<svg width="381pt" height="136pt" version="1.1" viewBox="0 0 381 136" xmlns="http://www.w3.org/2000/svg" xmlns:xlink="http://www.w3.org/1999/xlink">
<defs>
<g id="aa">
<path d="m2.0625-8.2969-1.6719 0.14062v0.34375c0.8125 0 0.90625 0.078125 0.90625 0.67188v6.25c0 0.54688-0.125 0.54688-0.90625 0.54688v0.34375c0.34375-0.03125 0.92188-0.03125 1.2812-0.03125s0.95312 0 1.2969 0.03125v-0.34375c-0.76562 0-0.90625 0-0.90625-0.54688z"/>
</g>
<g id="a">
<path d="m4.5781-2.7656c0.26562 0 0.28125 0 0.28125-0.23438 0-1.2031-0.64062-2.3281-2.0938-2.3281-1.3594 0-2.4062 1.2344-2.4062 2.7031 0 1.5781 1.2188 2.75 2.5469 2.75 1.4219 0 1.9531-1.2969 1.9531-1.5469 0-0.078125-0.046875-0.125-0.125-0.125-0.09375 0-0.125 0.0625-0.14062 0.125-0.3125 1-1.1094 1.2812-1.625 1.2812-0.5 0-1.7031-0.34375-1.7031-2.4062v-0.21875zm-3.2969-0.23438c0.09375-1.875 1.1406-2.0938 1.4844-2.0938 1.2812 0 1.3438 1.6875 1.3594 2.0938z"/>
</g>
<g id="j">
<path d="m2.0781-7.3594c0-0.3125-0.25-0.59375-0.57812-0.59375-0.3125 0-0.57812 0.25-0.57812 0.57812 0 0.35938 0.28125 0.57812 0.57812 0.57812 0.35938 0 0.57812-0.29688 0.57812-0.5625zm-1.6406 2.2188v0.34375c0.75 0 0.85938 0.078125 0.85938 0.65625v3.25c0 0.54688-0.125 0.54688-0.90625 0.54688v0.34375c0.34375-0.03125 0.90625-0.03125 1.2656-0.03125 0.125 0 0.8125 0 1.2188 0.03125v-0.34375c-0.76562 0-0.8125-0.0625-0.8125-0.53125v-4.3906z"/>
</g>
<g id="c">
<path d="m2.0156-4.8125h1.6719v-0.34375h-1.6719v-2.1875h-0.26562c-0.015625 1.1094-0.45312 2.2656-1.5312 2.2969v0.23438h1.0156v3.3281c0 1.3281 0.875 1.6094 1.5156 1.6094 0.75 0 1.1406-0.75 1.1406-1.6094v-0.67188h-0.25v0.65625c0 0.85938-0.35938 1.3594-0.8125 1.3594-0.8125 0-0.8125-1.1094-0.8125-1.3125z"/>
</g>
<g id="e">
<path d="m3.6406-5.1406v0.34375c0.8125 0 0.90625 0.09375 0.90625 0.67188v2.1406c0 1.0156-0.54688 1.8594-1.4375 1.8594-0.98438 0-1.0469-0.5625-1.0469-1.1875v-3.9531l-1.6875 0.125v0.34375c0.92188 0 0.92188 0.046875 0.92188 1.1094v1.7812c0 0.75 0 1.1719 0.35938 1.5781 0.28125 0.29688 0.76562 0.45312 1.375 0.45312 0.20312 0 0.59375 0 1-0.35938 0.34375-0.26562 0.53125-0.71875 0.53125-0.71875v1.0781l1.6719-0.125v-0.34375c-0.8125 0-0.92188-0.09375-0.92188-0.67188v-4.25z"/>
</g>
<g id="b">
<path d="m5.3125-2.9062c0-1.1094 0-1.4375-0.26562-1.8281-0.34375-0.46875-0.90625-0.53125-1.3125-0.53125-1.1719 0-1.625 0.98438-1.7188 1.2188v-1.2188l-1.6406 0.125v0.34375c0.8125 0 0.92188 0.09375 0.92188 0.67188v3.2344c0 0.54688-0.14062 0.54688-0.92188 0.54688v0.34375c0.3125-0.03125 0.96875-0.03125 1.2969-0.03125 0.34375 0 1 0 1.2969 0.03125v-0.34375c-0.75 0-0.90625 0-0.90625-0.54688v-2.2188c0-1.25 0.82812-1.9219 1.5781-1.9219 0.73438 0 0.90625 0.60938 0.90625 1.3438v2.7969c0 0.54688-0.14062 0.54688-0.90625 0.54688v0.34375c0.29688-0.03125 0.95312-0.03125 1.2812-0.03125 0.34375 0 1 0 1.3125 0.03125v-0.34375c-0.60938 0-0.90625 0-0.92188-0.35938z"/>
</g>
<g id="i">
<path d="m1.4219-2.1562c0.5625 0.35938 1.0469 0.35938 1.1719 0.35938 1.0781 0 1.875-0.8125 1.875-1.7344 0-0.3125-0.09375-0.76562-0.46875-1.1562 0.45312-0.46875 1.0156-0.46875 1.0781-0.46875 0.046875 0 0.10938 0 0.15625 0.015625-0.125 0.046875-0.17188 0.17188-0.17188 0.29688 0 0.17188 0.10938 0.3125 0.29688 0.3125 0.10938 0 0.3125-0.0625 0.3125-0.32812 0-0.20312-0.15625-0.54688-0.57812-0.54688-0.625 0-1.0938 0.39062-1.25 0.5625-0.35938-0.26562-0.78125-0.42188-1.2344-0.42188-1.0781 0-1.875 0.8125-1.875 1.7344 0 0.67188 0.40625 1.1094 0.53125 1.2188-0.14062 0.1875-0.35938 0.53125-0.35938 1 0 0.6875 0.42188 0.98438 0.51562 1.0469-0.54688 0.15625-1.0938 0.59375-1.0938 1.2031 0 0.82812 1.125 1.5156 2.5938 1.5156 1.4219 0 2.5938-0.64062 2.5938-1.5312 0-0.29688-0.078125-1-0.79688-1.375-0.60938-0.3125-1.2031-0.3125-2.2344-0.3125-0.73438 0-0.8125 0-1.0312-0.21875-0.10938-0.125-0.21875-0.35938-0.21875-0.60938 0-0.20312 0.0625-0.40625 0.1875-0.5625zm1.1875 0.10938c-1.0625 0-1.0625-1.2031-1.0625-1.4844 0-0.20312 0-0.70312 0.20312-1.0156 0.23438-0.35938 0.59375-0.46875 0.84375-0.46875 1.0469 0 1.0469 1.2031 1.0469 1.4844 0 0.20312 0 0.70312-0.20312 1.0156-0.21875 0.35938-0.57812 0.46875-0.82812 0.46875zm0.3125 4.25c-1.1406 0-2.0156-0.59375-2.0156-1.2656 0-0.09375 0.03125-0.5625 0.48438-0.875 0.26562-0.17188 0.35938-0.17188 1.2031-0.17188 0.98438 0 2.3438 0 2.3438 1.0469 0 0.70312-0.90625 1.2656-2.0156 1.2656z"/>
</g>
<g id="s">
<path d="m7.625-3.0625h-0.26562c-0.28125 1.875-0.5625 2.7188-2.5938 2.7188h-1.625c-0.51562 0-0.54688-0.09375-0.54688-0.48438v-3.2188h1.0938c1.1406 0 1.2656 0.35938 1.2656 1.3906h0.26562v-3.1406h-0.26562c0 1.0312-0.125 1.3906-1.2656 1.3906h-1.0938v-2.9062c0-0.39062 0.03125-0.48438 0.54688-0.48438h1.5938c1.75 0 2.125 0.59375 2.3125 2.3281h0.25l-0.29688-2.6719h-6.5156v0.34375h0.25c0.85938 0 0.89062 0.125 0.89062 0.5625v6.3281c0 0.4375-0.03125 0.5625-0.89062 0.5625h-0.25v0.34375h6.6562z"/>
</g>
<g id="r">
<path d="m5.1406-8.5312c0.0625-0.15625 0.0625-0.1875 0.0625-0.20312 0-0.15625-0.125-0.23438-0.21875-0.23438-0.15625 0-0.1875 0.10938-0.25 0.26562l-4.0312 11.266c-0.0625 0.15625-0.0625 0.17188-0.0625 0.20312 0 0.125 0.09375 0.21875 0.23438 0.21875 0.15625 0 0.1875-0.10938 0.23438-0.25z"/>
</g>
<g id="q">
<path d="m4.625-8.3125c-0.046875-0.15625-0.078125-0.21875-0.23438-0.21875-0.17188 0-0.1875 0.03125-0.25 0.21875l-2.5 7.1562c-0.17188 0.48438-0.5 0.79688-1.2656 0.8125v0.34375c0.71875-0.03125 0.75-0.03125 1.1406-0.03125 0.34375 0 0.90625 0 1.2188 0.03125v-0.34375c-0.5-0.015625-0.79688-0.26562-0.79688-0.59375 0-0.078125 0-0.10938 0.0625-0.25l0.54688-1.5938h3.0156l0.65625 1.875c0.0625 0.14062 0.0625 0.17188 0.0625 0.20312 0 0.35938-0.60938 0.35938-0.92188 0.35938v0.34375c0.28125-0.03125 1.2344-0.03125 1.5625-0.03125s1.1875 0 1.4688 0.03125v-0.34375c-0.78125 0-0.98438 0-1.1562-0.5zm-0.57812 1.2031 1.3906 3.9844h-2.7656z"/>
</g>
<g id="d">
<path d="m3.2344-2.2656v-0.64062h-3.1094v0.64062z"/>
</g>
<g id="p">
<path d="m0.51562-8.1562v0.34375h0.23438c0.85938 0 0.90625 0.10938 0.90625 0.5625v6.3438c0 0.4375-0.046875 0.5625-0.90625 0.5625h-0.23438v0.34375h4.5c1.5312 0 2.6094-1.0469 2.6094-2.1875 0-0.96875-0.875-1.9219-2.2969-2.0781 1.1406-0.21875 1.9688-0.98438 1.9688-1.875 0-1.0312-1.0469-2.0156-2.6094-2.0156zm2.0469 3.7969v-2.9844c0-0.39062 0.015625-0.46875 0.54688-0.46875h1.5c1.2031 0 1.625 1.0156 1.625 1.6719 0 0.78125-0.60938 1.7812-1.9375 1.7812zm0.54688 4.0156c-0.53125 0-0.54688-0.09375-0.54688-0.48438v-3.2969h2.2344c1.1406 0 1.7344 1 1.7344 1.9219 0 0.96875-0.71875 1.8594-1.8906 1.8594z"/>
</g>
<g id="h">
<path d="m3.9219-5.0625c0-0.20312 0-0.26562-0.125-0.26562-0.09375 0-0.3125 0.26562-0.40625 0.375-0.35938-0.3125-0.73438-0.375-1.125-0.375-1.4375 0-1.875 0.78125-1.875 1.4375 0 0.14062 0 0.5625 0.45312 0.96875 0.39062 0.34375 0.79688 0.42188 1.3438 0.53125 0.65625 0.125 0.8125 0.17188 1.1094 0.40625 0.21875 0.17188 0.375 0.4375 0.375 0.78125 0 0.51562-0.29688 1.0781-1.3594 1.0781-0.78125 0-1.3594-0.45312-1.625-1.6406-0.046875-0.21875-0.046875-0.23438-0.046875-0.25-0.03125-0.046875-0.078125-0.046875-0.10938-0.046875-0.14062 0-0.14062 0.0625-0.14062 0.28125v1.625c0 0.21875 0 0.28125 0.125 0.28125 0.0625 0 0.0625-0.015625 0.26562-0.26562 0.0625-0.09375 0.0625-0.10938 0.25-0.29688 0.45312 0.5625 1.0938 0.5625 1.2969 0.5625 1.25 0 1.875-0.70312 1.875-1.6406 0-0.64062-0.39062-1.0312-0.5-1.1406-0.42188-0.375-0.75-0.4375-1.5469-0.57812-0.34375-0.078125-1.2188-0.25-1.2188-0.96875 0-0.35938 0.25-0.90625 1.3281-0.90625 1.2969 0 1.375 1.1094 1.3906 1.4688 0.015625 0.10938 0.09375 0.10938 0.14062 0.10938 0.125 0 0.125-0.0625 0.125-0.28125z"/>
</g>
<g id="o">
<path d="m2.5938-7.25c0-0.45312 0.03125-0.5625 0.9375-0.5625h0.26562v-0.34375c-0.29688 0.015625-1.3281 0.015625-1.6875 0.015625s-1.3906 0-1.6719-0.015625v0.34375h0.25c0.90625 0 0.9375 0.10938 0.9375 0.5625v6.3438c0 0.4375-0.03125 0.5625-0.9375 0.5625h-0.25v0.34375c0.28125-0.03125 1.3125-0.03125 1.6719-0.03125s1.3906 0 1.6875 0.03125v-0.34375h-0.26562c-0.90625 0-0.9375-0.125-0.9375-0.5625z"/>
</g>
<g id="f">
<path d="m2-2.7812c0-1.1562 0.46875-2.25 1.3906-2.25 0.09375 0 0.125 0 0.17188 0.015625-0.09375 0.046875-0.28125 0.10938-0.28125 0.4375 0 0.34375 0.26562 0.48438 0.45312 0.48438 0.25 0 0.48438-0.15625 0.48438-0.48438 0-0.35938-0.32812-0.6875-0.84375-0.6875-1.0156 0-1.3594 1.0938-1.4219 1.3281h-0.015625v-1.3281l-1.6094 0.125v0.34375c0.8125 0 0.92188 0.09375 0.92188 0.67188v3.2344c0 0.54688-0.14062 0.54688-0.92188 0.54688v0.34375c0.34375-0.03125 1-0.03125 1.3594-0.03125 0.32812 0 1.1719 0 1.4375 0.03125v-0.34375h-0.23438c-0.875 0-0.89062-0.14062-0.89062-0.5625z"/>
</g>
<g id="n">
<path d="m2.0625-4.8125h1.3438v-0.34375h-1.375v-1.3906c0-1.0781 0.54688-1.625 1.0469-1.625 0.09375 0 0.26562 0.015625 0.40625 0.09375-0.046875 0.015625-0.34375 0.125-0.34375 0.46875 0 0.26562 0.1875 0.46875 0.46875 0.46875s0.48438-0.20312 0.48438-0.48438c0-0.4375-0.4375-0.79688-1.0156-0.79688-0.82812 0-1.7812 0.65625-1.7812 1.875v1.3906h-0.92188v0.34375h0.92188v3.9219c0 0.54688-0.125 0.54688-0.90625 0.54688v0.34375c0.34375-0.03125 1-0.03125 1.3594-0.03125 0.3125 0 1.1719 0 1.4375 0.03125v-0.34375h-0.23438c-0.875 0-0.89062-0.14062-0.89062-0.5625z"/>
</g>
<g id="g">
<path d="m4.6094-3.1875c0-0.65625 0-1.125-0.51562-1.5938-0.42188-0.375-0.96875-0.54688-1.4844-0.54688-0.98438 0-1.7344 0.64062-1.7344 1.4219 0 0.34375 0.21875 0.51562 0.5 0.51562s0.48438-0.20312 0.48438-0.5c0-0.48438-0.42188-0.48438-0.60938-0.48438 0.28125-0.5 0.85938-0.71875 1.3281-0.71875 0.54688 0 1.2656 0.45312 1.2656 1.5312v0.48438c-2.4062 0.03125-3.3125 1.0312-3.3125 1.9531 0 0.95312 1.0938 1.25 1.8281 1.25 0.78125 0 1.3281-0.48438 1.5469-1.0625 0.046875 0.5625 0.42188 1 0.9375 1 0.25 0 0.9375-0.17188 0.9375-1.125v-0.67188h-0.26562v0.67188c0 0.6875-0.28125 0.78125-0.45312 0.78125-0.45312 0-0.45312-0.64062-0.45312-0.8125zm-0.76562 1.5c0 1.1719-0.875 1.5625-1.3906 1.5625-0.59375 0-1.0781-0.42188-1.0781-1 0-1.5781 2.0312-1.7188 2.4688-1.75z"/>
</g>
<g id="m">
<path d="m4.3281-4.4219c-0.14062 0-0.59375 0-0.59375 0.48438 0 0.29688 0.20312 0.5 0.5 0.5 0.26562 0 0.5-0.17188 0.5-0.51562 0-0.79688-0.84375-1.375-1.8125-1.375-1.3906 0-2.5 1.2344-2.5 2.75 0 1.5312 1.1406 2.7031 2.5 2.7031 1.5781 0 1.9375-1.4375 1.9375-1.5469s-0.09375-0.10938-0.125-0.10938c-0.10938 0-0.125 0.03125-0.15625 0.1875-0.26562 0.84375-0.90625 1.2031-1.5469 1.2031-0.73438 0-1.7031-0.64062-1.7031-2.4531 0-1.9844 1.0156-2.4688 1.6094-2.4688 0.45312 0 1.1094 0.17188 1.3906 0.64062z"/>
</g>
<g id="z">
<path d="m6.8125-3.0625h-0.26562c-0.10938 1.2031-0.26562 2.7188-2.3594 2.7188h-1.0469c-0.51562 0-0.54688-0.09375-0.54688-0.48438v-6.4219c0-0.42188 0.03125-0.5625 1.0625-0.5625h0.35938v-0.34375c-0.34375 0.015625-1.3906 0.015625-1.8125 0.015625-0.35938 0-1.4219 0-1.7188-0.015625v0.34375h0.25c0.85938 0 0.89062 0.10938 0.89062 0.5625v6.3438c0 0.4375-0.03125 0.5625-0.89062 0.5625h-0.25v0.34375h6.0156z"/>
</g>
<g id="y">
<path d="m3.5781-8.1562v0.34375c0.82812 0 0.92188 0.078125 0.92188 0.67188v2.6406c-0.25-0.35938-0.76562-0.76562-1.5-0.76562-1.3906 0-2.5781 1.1719-2.5781 2.7031 0 1.5156 1.125 2.6875 2.4531 2.6875 0.90625 0 1.4219-0.60938 1.5938-0.82812v0.82812l1.6875-0.125v-0.34375c-0.8125 0-0.90625-0.09375-0.90625-0.67188v-7.2812zm0.89062 6.75c0 0.21875 0 0.26562-0.17188 0.51562-0.28125 0.42188-0.76562 0.76562-1.375 0.76562-0.29688 0-1.5938-0.10938-1.5938-2.4375 0-0.85938 0.14062-1.3281 0.40625-1.7344 0.23438-0.35938 0.71875-0.73438 1.3125-0.73438 0.75 0 1.1562 0.53125 1.2812 0.73438 0.14062 0.20312 0.14062 0.21875 0.14062 0.4375z"/>
</g>
<g id="x">
<path d="m2.9219 1.9688c-0.76562 0-0.90625 0-0.90625-0.53125v-2.0781c0.21875 0.29688 0.70312 0.76562 1.4688 0.76562 1.375 0 2.5938-1.1719 2.5938-2.7031 0-1.5156-1.125-2.6875-2.4375-2.6875-1.0469 0-1.6094 0.75-1.6406 0.79688v-0.79688l-1.6719 0.125v0.34375c0.84375 0 0.92188 0.09375 0.92188 0.60938v5.625c0 0.53125-0.14062 0.53125-0.92188 0.53125v0.34375c0.3125-0.015625 0.96875-0.015625 1.2969-0.015625 0.34375 0 1 0 1.2969 0.015625zm-0.90625-5.7812c0-0.23438 0-0.23438 0.14062-0.4375 0.35938-0.53125 0.9375-0.76562 1.3906-0.76562 0.90625 0 1.6094 1.0938 1.6094 2.4375 0 1.4219-0.8125 2.4531-1.7188 2.4531-0.375 0-0.71875-0.15625-0.96875-0.375-0.26562-0.28125-0.45312-0.51562-0.45312-0.84375z"/>
</g>
<g id="l">
<path d="m4.6719-5.0156c0.1875-0.1875 0.64062-0.625 0.84375-0.8125 1.6406-1.625 1.9844-1.9688 2.9219-1.9844v-0.34375c-0.34375 0.015625-0.48438 0.015625-1.0312 0.015625-0.3125 0-1.0156 0-1.2812-0.015625v0.34375c0.25 0 0.46875 0.10938 0.46875 0.375 0 0.1875-0.09375 0.29688-0.35938 0.54688l-3.6406 3.5156v-3.8594c0-0.57812 0.125-0.57812 1.1406-0.57812v-0.34375c-0.29688 0.015625-1.2656 0.015625-1.625 0.015625s-1.3281 0-1.625-0.015625v0.34375c1.0156 0 1.1406 0 1.1406 0.57812v6.2969c0 0.59375-0.125 0.59375-1.1406 0.59375v0.34375c0.29688-0.03125 1.2656-0.03125 1.625-0.03125s1.3281 0 1.625 0.03125v-0.34375c-1.0156 0-1.1406 0-1.1406-0.59375v-2.0781l1.4219-1.375 2.2188 3.3125c0.046875 0.078125 0.09375 0.15625 0.10938 0.21875 0.03125 0.046875 0.046875 0.10938 0.046875 0.17188 0 0.34375-0.4375 0.34375-0.625 0.34375v0.34375c0.28125-0.03125 1.1562-0.03125 1.5-0.03125 0.3125 0 0.90625 0 1.3281 0.03125v-0.34375c-0.64062 0-0.84375-0.0625-1.2344-0.64062z"/>
</g>
<g id="k">
<path d="m5.4844-2.5625c0-1.5312-1.1719-2.7656-2.5625-2.7656-1.4219 0-2.5625 1.2656-2.5625 2.7656 0 1.5312 1.1875 2.6875 2.5625 2.6875 1.4062 0 2.5625-1.1719 2.5625-2.6875zm-2.5625 2.4219c-0.4375 0-0.96875-0.1875-1.3125-0.78125-0.32812-0.53125-0.34375-1.2344-0.34375-1.75 0-0.45312 0-1.1719 0.375-1.7188 0.32812-0.51562 0.85938-0.70312 1.2812-0.70312 0.45312 0 0.96875 0.21875 1.2812 0.6875 0.375 0.54688 0.375 1.2969 0.375 1.7344 0 0.42188 0 1.1719-0.3125 1.7344-0.32812 0.5625-0.89062 0.79688-1.3438 0.79688z"/>
</g>
<g id="w">
<path d="m2.7031-8c-0.10938-0.15625-0.125-0.15625-0.39062-0.15625h-1.8281v0.34375c0.51562 0 0.8125 0 1.1406 0.078125v6.4844c0 0.34375 0 0.90625-1.1406 0.90625v0.34375c0.3125-0.03125 0.95312-0.03125 1.2812-0.03125 0.34375 0 0.96875 0 1.2812 0.03125v-0.34375c-1.1406 0-1.1406-0.5625-1.1406-0.90625v-6.2969c0.10938 0.09375 0.10938 0.125 0.20312 0.26562l4.6719 7.1094c0.10938 0.15625 0.125 0.17188 0.21875 0.17188s0.125-0.046875 0.14062-0.078125v-6.8281c0-0.34375 0-0.90625 1.125-0.90625v-0.34375c-0.3125 0.015625-0.9375 0.015625-1.2656 0.015625-0.34375 0-0.96875 0-1.2812-0.015625v0.34375c1.125 0 1.125 0.5625 1.125 0.90625v5.2188z"/>
</g>
<g id="v">
<path d="m4.5469-4.8125c0.10938-0.14062 0.10938-0.15625 0.10938-0.20312 0-0.14062-0.078125-0.14062-0.28125-0.14062h-3.75l-0.14062 1.9062h0.26562c0.078125-1.2188 0.29688-1.6562 1.6094-1.6562h1.375l-3.4062 4.6875c0 0.21875 0.015625 0.21875 0.28125 0.21875h3.8906l0.20312-2.2031h-0.26562c-0.10938 1.3594-0.3125 1.9375-1.7344 1.9375h-1.4531z"/>
</g>
<g id="u">
<path d="m7.2344-4.0156c0.26562-0.75 0.78125-0.78125 0.98438-0.79688v-0.34375c-0.29688 0.03125-0.51562 0.03125-0.875 0.03125-0.34375 0-0.375 0-1.0156-0.03125v0.34375c0.53125 0.03125 0.67188 0.35938 0.67188 0.57812 0 0.015625 0 0.09375-0.046875 0.21875l-1.0938 3.125-1.2031-3.375c-0.046875-0.14062-0.046875-0.17188-0.046875-0.20312 0-0.34375 0.4375-0.34375 0.6875-0.34375v-0.34375c-0.34375 0.03125-0.82812 0.03125-1.1719 0.03125-0.39062 0-0.40625 0-1.0781-0.03125v0.34375c0.45312 0 0.60938 0.03125 0.75 0.1875 0.046875 0.078125 0.20312 0.46875 0.28125 0.70312l-1.0156 2.9219-1.1562-3.25c-0.046875-0.15625-0.046875-0.1875-0.046875-0.23438 0-0.32812 0.45312-0.32812 0.6875-0.32812v-0.34375c-0.29688 0.03125-0.89062 0.03125-1.2188 0.03125-0.34375 0-0.35938 0-1.1094-0.03125v0.34375c0.60938 0 0.71875 0.0625 0.85938 0.4375l1.5 4.2812c0.046875 0.125 0.09375 0.21875 0.21875 0.21875 0.10938 0 0.17188-0.046875 0.23438-0.23438l1.1875-3.4062 1.2031 3.4062c0.046875 0.1875 0.10938 0.23438 0.21875 0.23438 0.125 0 0.17188-0.09375 0.21875-0.21875z"/>
</g>
<g id="t">
<path d="m3.3438-3.1719-0.078125-0.10938c0-0.046875 0.75-0.6875 0.84375-0.78125 0.82812-0.71875 1.3594-0.73438 1.6094-0.75v-0.34375c-0.25 0.03125-0.5625 0.03125-0.90625 0.03125-0.3125 0-0.92188 0-1.2031-0.03125v0.34375c0.20312 0.015625 0.34375 0.125 0.34375 0.3125 0 0.25-0.23438 0.45312-0.25 0.45312l-1.7031 1.5156v-5.7656l-1.6719 0.14062v0.34375c0.8125 0 0.92188 0.078125 0.92188 0.67188v6.25c0 0.54688-0.14062 0.54688-0.92188 0.54688v0.34375c0.34375-0.03125 0.92188-0.03125 1.2812-0.03125 0.34375 0 0.92188 0 1.2656 0.03125v-0.34375c-0.76562 0-0.92188 0-0.92188-0.54688v-1.2656l0.76562-0.67188 1.1562 1.6562c0.17188 0.25 0.26562 0.39062 0.26562 0.54688 0 0.21875-0.17188 0.28125-0.42188 0.28125v0.34375c0.29688-0.03125 0.89062-0.03125 1.2031-0.03125 0.51562 0 0.54688 0 1.0469 0.03125v-0.34375c-0.3125 0-0.6875 0-1.0156-0.5z"/>
</g>
<clipPath id="aj">
<path d="m57 7h1v101h-1z"/>
</clipPath>
<clipPath id="ai">
<path d="m0.52734-0.21875v136h383v-136zm55.25 102.12v5.5156h3.7773v-5.5156l-1.8906 4.7266zm3.7773-89.145v-5.5117h-3.7773v5.5117l1.8867-4.7266z" clip-rule="evenodd"/>
</clipPath>
<clipPath id="ah">
<path d="m0.52734 0h64.473v115h-64.473z"/>
</clipPath>
<clipPath id="ag">
<path d="m170 64h30v1h-30z"/>
</clipPath>
<clipPath id="af">
<path d="m0.52734-0.21875v136h383v-136zm193.85 66.527h5.5117v-3.7812h-5.5117l4.7266 1.8906z" clip-rule="evenodd"/>
</clipPath>
<clipPath id="ae">
<path d="m170 50h30v1h-30z"/>
</clipPath>
<clipPath id="ad">
<path d="m0.52734-0.21875v136h383v-136zm175.58 48.574h-5.5117v3.7773h5.5117l-4.7266-1.8906z" clip-rule="evenodd"/>
</clipPath>
<clipPath id="ac">
<path d="m263 57h65v1h-65z"/>
</clipPath>
<clipPath id="ab">
<path d="m0.52734-0.21875v136h383v-136zm321.42 59.441h5.5156v-3.7812h-5.5156l4.7266 1.8906zm-53.707-3.7812h-5.5117v3.7812h5.5117l-4.7227-1.8906z" clip-rule="evenodd"/>
</clipPath>
</defs>
<g clip-path="url(#aj)">
<g clip-path="url(#ai)">
<path transform="matrix(.1 0 0 -.1 .528 135.78)" d="m571.36 1280.6v-992.27" fill="none" stroke="#000" stroke-miterlimit="10" stroke-width="2.3625"/>
</g>
</g>
<path d="m59.555 12.758-1.8906-4.7266-1.8867 4.7266 1.8867-0.94531 1.8906 0.94531" fill-rule="evenodd"/>
<path transform="matrix(.1 0 0 -.1 .528 135.78)" d="m590.27 1230.2-18.906 47.266-18.867-47.266 18.867 9.4531z" fill="none" stroke="#000" stroke-miterlimit="10" stroke-width="2.3625"/>
<path d="m55.777 101.9 1.8867 4.7266 1.8906-4.7266-1.8906 0.94531-1.8867-0.94531" fill-rule="evenodd"/>
<path transform="matrix(.1 0 0 -.1 .528 135.78)" d="m552.49 338.79 18.867-47.266 18.906 47.266-18.906-9.4531z" fill="none" stroke="#000" stroke-miterlimit="10" stroke-width="2.3625"/>
<path transform="matrix(.1 0 0 -.1 .528 135.78)" d="m571.36 784.49h354.38" fill="none" stroke="#000" stroke-miterlimit="10" stroke-width="2.3625"/>
<path transform="matrix(.1 0 0 -.1 .528 135.78)" d="m925.74 501.01h1842.8v566.99h-1842.8z" fill="none" stroke="#000" stroke-miterlimit="10" stroke-width="2.3625"/>
<g clip-path="url(#ah)">
<path transform="matrix(.1 0 0 -.1 .528 135.78)" d="m4.3684 217.5h637.89v1134h-637.89z" fill="none" stroke="#000" stroke-miterlimit="10" stroke-width="2.3625"/>
</g>
<path transform="matrix(.1 0 0 -.1 .528 135.78)" d="m1067.5 642.73h637.89v283.52h-637.89z" fill="none" stroke="#000" stroke-miterlimit="10" stroke-width="2.3625"/>
<path transform="matrix(.1 0 0 -.1 .528 135.78)" d="m1988.9 642.73h637.89v283.52h-637.89z" fill="none" stroke="#000" stroke-miterlimit="10" stroke-width="2.3625"/>
<g clip-path="url(#ag)">
<g clip-path="url(#af)">
<path transform="matrix(.1 0 0 -.1 .528 135.78)" d="m1705.4 713.63h283.48" fill="none" stroke="#000" stroke-miterlimit="10" stroke-width="2.3625"/>
</g>
</g>
<path d="m194.38 66.309 4.7266-1.8906-4.7266-1.8906 0.94531 1.8906-0.94531 1.8906" fill-rule="evenodd"/>
<path transform="matrix(.1 0 0 -.1 .528 135.78)" d="m1938.5 694.72 47.266 18.906-47.266 18.906 9.4531-18.906z" fill="none" stroke="#000" stroke-miterlimit="10" stroke-width="2.3625"/>
<g clip-path="url(#ae)">
<g clip-path="url(#ad)">
<path transform="matrix(.1 0 0 -.1 .528 135.78)" d="m1988.9 855.39h-283.48" fill="none" stroke="#000" stroke-miterlimit="10" stroke-width="2.3625"/>
</g>
</g>
<path d="m176.11 48.355-4.7266 1.8867 4.7266 1.8906-0.94531-1.8906 0.94531-1.8867" fill-rule="evenodd"/>
<path transform="matrix(.1 0 0 -.1 .528 135.78)" d="m1755.8 874.26-47.266-18.867 47.266-18.906-9.4531 18.906z" fill="none" stroke="#000" stroke-miterlimit="10" stroke-width="2.3625"/>
<g clip-path="url(#ac)">
<g clip-path="url(#ab)">
<path transform="matrix(.1 0 0 -.1 .528 135.78)" d="m2626.8 784.49h637.85" fill="none" stroke="#000" stroke-miterlimit="10" stroke-width="2.3625"/>
</g>
</g>
<path d="m268.24 55.441-4.7227 1.8906 4.7227 1.8906-0.94531-1.8906 0.94531-1.8906" fill-rule="evenodd"/>
<path transform="matrix(.1 0 0 -.1 .528 135.78)" d="m2677.1 803.4-47.227-18.906 47.227-18.906-9.4531 18.906z" fill="none" stroke="#000" stroke-miterlimit="10" stroke-width="2.3625"/>
<path d="m321.95 59.223 4.7266-1.8906-4.7266-1.8906 0.94531 1.8906-0.94531 1.8906" fill-rule="evenodd"/>
<path transform="matrix(.1 0 0 -.1 .528 135.78)" d="m3214.2 765.58 47.266 18.906-47.266 18.906 9.4531-18.906z" fill="none" stroke="#000" stroke-miterlimit="10" stroke-width="2.3625"/>
<g>
<use x="337.701" y="83.809" xlink:href="#aa"/>
<use x="340.952814" y="83.809" xlink:href="#a"/>
<use x="346.155717" y="83.809" xlink:href="#j"/>
<use x="349.407532" y="83.809" xlink:href="#c"/>
<use x="353.960072" y="83.809" xlink:href="#e"/>
<use x="360.463701" y="83.809" xlink:href="#b"/>
<use x="366.96733" y="83.809" xlink:href="#i"/>
<use x="6.302" y="69.635" xlink:href="#s"/>
<use x="14.266554" y="69.635" xlink:href="#r"/>
<use x="20.11982" y="69.635" xlink:href="#q"/>
<use x="28.894937" y="69.635" xlink:href="#d"/>
<use x="32.797114" y="69.635" xlink:href="#p"/>
<use x="41.08685" y="69.635" xlink:href="#e"/>
<use x="47.590479" y="69.635" xlink:href="#h"/>
<use x="123.905" y="54.516" xlink:href="#p"/>
<use x="132.194736" y="54.516" xlink:href="#e"/>
<use x="138.698364" y="54.516" xlink:href="#h"/>
<use x="143.315463" y="54.516" xlink:href="#d"/>
<use x="113.289" y="66.8" xlink:href="#o"/>
<use x="117.511577" y="66.8" xlink:href="#b"/>
<use x="123.692415" y="66.8" xlink:href="#c"/>
<use x="128.244955" y="66.8" xlink:href="#a"/>
<use x="133.447858" y="66.8" xlink:href="#f"/>
<use x="138.000398" y="66.8" xlink:href="#n"/>
<use x="141.577394" y="66.8" xlink:href="#g"/>
<use x="147.43066" y="66.8" xlink:href="#m"/>
<use x="152.633563" y="66.8" xlink:href="#a"/>
<use x="210.93" y="54.516" xlink:href="#z"/>
<use x="218.244191" y="54.516" xlink:href="#a"/>
<use x="223.447094" y="54.516" xlink:href="#j"/>
<use x="226.698909" y="54.516" xlink:href="#c"/>
<use x="231.251449" y="54.516" xlink:href="#e"/>
<use x="237.755078" y="54.516" xlink:href="#b"/>
<use x="244.258707" y="54.516" xlink:href="#i"/>
<use x="250.111972" y="54.516" xlink:href="#h"/>
<use x="254.729071" y="54.516" xlink:href="#d"/>
<use x="212.508" y="66.8" xlink:href="#o"/>
<use x="216.730577" y="66.8" xlink:href="#b"/>
<use x="222.911415" y="66.8" xlink:href="#c"/>
<use x="227.463955" y="66.8" xlink:href="#a"/>
<use x="232.666858" y="66.8" xlink:href="#f"/>
<use x="237.219398" y="66.8" xlink:href="#n"/>
<use x="240.796394" y="66.8" xlink:href="#g"/>
<use x="246.64966" y="66.8" xlink:href="#m"/>
<use x="251.852563" y="66.8" xlink:href="#a"/>
<use x="164.199" y="106.96" xlink:href="#q"/>
<use x="172.974117" y="106.96" xlink:href="#y"/>
<use x="179.477746" y="106.96" xlink:href="#g"/>
<use x="185.331012" y="106.96" xlink:href="#x"/>
<use x="191.83464" y="106.96" xlink:href="#c"/>
<use x="196.38718" y="106.96" xlink:href="#a"/>
<use x="201.590084" y="106.96" xlink:href="#f"/>
<use x="10.397" y="135.308" xlink:href="#l"/>
<use x="19.497298" y="135.308" xlink:href="#b"/>
<use x="26.000927" y="135.308" xlink:href="#k"/>
<use x="31.854193" y="135.308" xlink:href="#c"/>
<use x="36.406733" y="135.308" xlink:href="#a"/>
<use x="41.609636" y="135.308" xlink:href="#b"/>
<use x="329.411" y="71.525" xlink:href="#w"/>
<use x="338.186117" y="71.525" xlink:href="#a"/>
<use x="343.38902" y="71.525" xlink:href="#c"/>
<use x="347.94156" y="71.525" xlink:href="#v"/>
<use x="353.144463" y="71.525" xlink:href="#u"/>
<use x="361.27639" y="71.525" xlink:href="#a"/>
<use x="366.479293" y="71.525" xlink:href="#f"/>
<use x="371.031833" y="71.525" xlink:href="#t"/>
<use x="377.210281" y="71.525" xlink:href="#d"/>
<use x="8.446" y="57.351" xlink:href="#l"/>
<use x="17.546298" y="57.351" xlink:href="#b"/>
<use x="24.049927" y="57.351" xlink:href="#k"/>
<use x="29.903193" y="57.351" xlink:href="#c"/>
<use x="34.455733" y="57.351" xlink:href="#a"/>
<use x="39.658636" y="57.351" xlink:href="#b"/>
<use x="46.162265" y="57.351" xlink:href="#d"/>
</g>
</svg>
