<svg width="341pt" height="131pt" version="1.1" viewBox="0 0 341 131" xmlns="http://www.w3.org/2000/svg" xmlns:xlink="http://www.w3.org/1999/xlink">
<defs>
<g id="k">
<path d="m8.3125-2.7656c0-0.046875 0.046875-0.125 0.046875-0.17188 0-0.0625-0.046875-0.125-0.125-0.125-0.046875 0-0.078125 0.015625-0.10938 0.046875-0.015625 0.015625-0.015625 0.046875-0.125 0.28125-0.70312 1.6719-1.2188 2.3906-3.1406 2.3906h-1.7344c-0.17188 0-0.20312 0-0.26562-0.015625-0.14062-0.015625-0.14062-0.03125-0.14062-0.125s0.015625-0.15625 0.046875-0.26562l0.8125-3.2969h1.1875c0.9375 0 1 0.20312 1 0.5625 0 0.10938 0 0.21875-0.078125 0.57812-0.015625 0.046875-0.03125 0.09375-0.03125 0.14062 0 0.078125 0.0625 0.10938 0.125 0.10938 0.10938 0 0.125-0.078125 0.17188-0.25l0.6875-2.7656c0-0.0625-0.046875-0.125-0.125-0.125-0.10938 0-0.125 0.046875-0.17188 0.21875-0.23438 0.92188-0.46875 1.1719-1.5312 1.1719h-1.1406l0.73438-2.9375c0.10938-0.40625 0.14062-0.45312 0.625-0.45312h1.7031c1.4844 0 1.7812 0.39062 1.7812 1.3125 0 0 0 0.34375-0.046875 0.73438-0.015625 0.046875-0.03125 0.125-0.03125 0.14062 0 0.09375 0.0625 0.14062 0.14062 0.14062s0.125-0.046875 0.14062-0.26562l0.26562-2.0938c0-0.03125 0.015625-0.15625 0.015625-0.1875 0-0.125-0.10938-0.125-0.32812-0.125h-5.8281c-0.21875 0-0.34375 0-0.34375 0.21875 0 0.125 0.078125 0.125 0.28125 0.125 0.75 0 0.75 0.09375 0.75 0.21875 0 0.0625-0.015625 0.10938-0.046875 0.23438l-1.625 6.4531c-0.10938 0.42188-0.125 0.54688-0.96875 0.54688-0.21875 0-0.34375 0-0.34375 0.21875 0 0.125 0.078125 0.125 0.3125 0.125h6c0.26562 0 0.28125-0.015625 0.35938-0.20312z"/>
</g>
<g id="h">
<path d="m5.6719-4.875c-0.39062 0.0625-0.53125 0.35938-0.53125 0.57812 0 0.29688 0.21875 0.39062 0.39062 0.39062 0.35938 0 0.60938-0.3125 0.60938-0.64062 0-0.5-0.57812-0.71875-1.0781-0.71875-0.71875 0-1.125 0.71875-1.2344 0.9375-0.28125-0.89062-1.0156-0.9375-1.2344-0.9375-1.2188 0-1.8594 1.5625-1.8594 1.8281 0 0.046875 0.046875 0.10938 0.125 0.10938 0.09375 0 0.125-0.078125 0.14062-0.125 0.40625-1.3281 1.2188-1.5781 1.5625-1.5781 0.53125 0 0.64062 0.5 0.64062 0.78125 0 0.26562-0.078125 0.54688-0.21875 1.125l-0.40625 1.625c-0.17188 0.71875-0.51562 1.375-1.1562 1.375-0.0625 0-0.35938 0-0.60938-0.15625 0.4375-0.078125 0.53125-0.4375 0.53125-0.57812 0-0.23438-0.1875-0.39062-0.40625-0.39062-0.29688 0-0.60938 0.26562-0.60938 0.64062 0 0.5 0.5625 0.73438 1.0781 0.73438 0.57812 0 0.98438-0.45312 1.2344-0.95312 0.1875 0.70312 0.79688 0.95312 1.2344 0.95312 1.2188 0 1.8594-1.5781 1.8594-1.8281 0-0.0625-0.046875-0.10938-0.10938-0.10938-0.10938 0-0.125 0.0625-0.15625 0.15625-0.32812 1.0469-1.0156 1.5312-1.5625 1.5312-0.42188 0-0.64062-0.3125-0.64062-0.79688 0-0.26562 0.046875-0.45312 0.23438-1.2344l0.42188-1.6406c0.17188-0.70312 0.57812-1.2344 1.1406-1.2344 0.015625 0 0.35938 0 0.60938 0.15625z"/>
</g>
<g id="g">
<path d="m4.1094-0.73438c0.26562 0.71875 1 0.85938 1.4531 0.85938 0.92188 0 1.4531-0.79688 1.7812-1.625 0.28125-0.6875 0.71875-2.2656 0.71875-2.9688 0-0.73438-0.35938-0.79688-0.46875-0.79688-0.29688 0-0.54688 0.28125-0.54688 0.51562 0 0.14062 0.078125 0.23438 0.14062 0.28125 0.10938 0.10938 0.42188 0.42188 0.42188 1.0469 0 0.40625-0.34375 1.5312-0.59375 2.0938-0.32812 0.73438-0.78125 1.2031-1.3906 1.2031-0.67188 0-0.89062-0.5-0.89062-1.0469 0-0.34375 0.10938-0.76562 0.15625-0.96875l0.5-2c0.0625-0.25 0.17188-0.67188 0.17188-0.71875 0-0.17188-0.14062-0.29688-0.32812-0.29688-0.34375 0-0.42188 0.29688-0.5 0.59375-0.125 0.46875-0.625 2.4844-0.67188 2.75-0.046875 0.20312-0.046875 0.32812-0.046875 0.59375 0 0.28125-0.375 0.73438-0.39062 0.76562-0.14062 0.125-0.32812 0.32812-0.70312 0.32812-0.9375 0-0.9375-0.89062-0.9375-1.0938 0-0.39062 0.078125-0.90625 0.625-2.3281 0.14062-0.375 0.20312-0.53125 0.20312-0.76562 0-0.5-0.35938-0.95312-0.95312-0.95312-1.0938 0-1.5312 1.7344-1.5312 1.8281 0 0.046875 0.046875 0.10938 0.125 0.10938 0.10938 0 0.125-0.046875 0.17188-0.21875 0.29688-1.0625 0.76562-1.4844 1.2031-1.4844 0.125 0 0.3125 0.015625 0.3125 0.39062 0 0.0625 0 0.3125-0.20312 0.84375-0.5625 1.4844-0.6875 1.9844-0.6875 2.4375 0 1.25 1.0312 1.4844 1.6406 1.4844 0.20312 0 0.75 0 1.2188-0.85938z"/>
</g>
<g id="f">
<path d="m3.1406 1.3438c-0.3125 0.45312-0.78125 0.85938-1.375 0.85938-0.14062 0-0.71875-0.03125-0.89062-0.57812 0.03125 0.015625 0.09375 0.015625 0.10938 0.015625 0.35938 0 0.60938-0.3125 0.60938-0.59375 0-0.26562-0.23438-0.35938-0.40625-0.35938-0.20312 0-0.60938 0.14062-0.60938 0.71875 0 0.60938 0.51562 1.0312 1.1875 1.0312 1.2031 0 2.4062-1.0938 2.7344-2.4219l1.1719-4.6719c0.015625-0.046875 0.046875-0.125 0.046875-0.20312 0-0.17188-0.15625-0.29688-0.32812-0.29688-0.10938 0-0.35938 0.046875-0.45312 0.40625l-0.89062 3.5156c-0.046875 0.21875-0.046875 0.25-0.15625 0.375-0.23438 0.32812-0.625 0.73438-1.2031 0.73438-0.67188 0-0.73438-0.65625-0.73438-0.96875 0-0.6875 0.32812-1.6094 0.65625-2.4688 0.125-0.34375 0.20312-0.51562 0.20312-0.75 0-0.5-0.35938-0.95312-0.95312-0.95312-1.0938 0-1.5312 1.7344-1.5312 1.8281 0 0.046875 0.046875 0.10938 0.125 0.10938 0.10938 0 0.125-0.046875 0.17188-0.21875 0.28125-1 0.73438-1.4844 1.2031-1.4844 0.10938 0 0.3125 0 0.3125 0.39062 0 0.3125-0.125 0.65625-0.3125 1.1094-0.57812 1.5781-0.57812 1.9688-0.57812 2.25 0 1.1406 0.8125 1.4062 1.4062 1.4062 0.34375 0 0.78125-0.10938 1.1875-0.5625l0.015625 0.015625c-0.17188 0.70312-0.29688 1.1719-0.71875 1.7656z"/>
</g>
<g id="e">
<path d="m1.5156-0.96875c0.51562-0.57812 0.9375-0.95312 1.5312-1.5 0.71875-0.60938 1.0312-0.90625 1.2031-1.0938 0.82812-0.82812 1.25-1.5156 1.25-1.6094s-0.09375-0.09375-0.125-0.09375c-0.078125 0-0.10938 0.046875-0.15625 0.125-0.3125 0.51562-0.59375 0.76562-0.90625 0.76562-0.25 0-0.375-0.10938-0.60938-0.39062-0.25-0.29688-0.45312-0.5-0.79688-0.5-0.875 0-1.4062 1.0781-1.4062 1.3281 0 0.046875 0.015625 0.10938 0.125 0.10938 0.09375 0 0.10938-0.046875 0.14062-0.125 0.20312-0.48438 0.78125-0.5625 1-0.5625 0.26562 0 0.5 0.078125 0.75 0.1875 0.45312 0.1875 0.64062 0.1875 0.76562 0.1875h0.1875c-0.39062 0.45312-1.0312 1.0312-1.5781 1.5156l-1.2031 1.125c-0.73438 0.73438-1.1719 1.4375-1.1719 1.5312 0 0.0625 0.0625 0.09375 0.125 0.09375 0.078125 0 0.09375-0.015625 0.17188-0.15625 0.1875-0.29688 0.57812-0.75 1.0156-0.75 0.25 0 0.375 0.09375 0.60938 0.39062 0.23438 0.26562 0.4375 0.51562 0.8125 0.51562 1.1719 0 1.8438-1.5312 1.8438-1.7969 0-0.046875-0.015625-0.125-0.14062-0.125-0.09375 0-0.09375 0.046875-0.14062 0.17188-0.26562 0.70312-0.96875 0.98438-1.4375 0.98438-0.25 0-0.48438-0.078125-0.73438-0.1875-0.48438-0.1875-0.60938-0.1875-0.76562-0.1875-0.125 0-0.25 0-0.35938 0.046875z"/>
</g>
<g id="d">
<path d="m4.375-7.3438c0.10938-0.45312 0.15625-0.46875 0.625-0.46875h1.5469c1.3594 0 1.3594 1.1406 1.3594 1.25 0 0.96875-0.96875 2.2031-2.5469 2.2031h-1.7188zm2.0156 3.0781c1.3125-0.23438 2.4844-1.1562 2.4844-2.25 0-0.9375-0.8125-1.6406-2.1719-1.6406h-3.8281c-0.23438 0-0.34375 0-0.34375 0.21875 0 0.125 0.10938 0.125 0.29688 0.125 0.71875 0 0.71875 0.09375 0.71875 0.21875 0 0.03125 0 0.09375-0.046875 0.28125l-1.6094 6.4219c-0.10938 0.42188-0.14062 0.54688-0.96875 0.54688-0.23438 0-0.34375 0-0.34375 0.21875 0 0.125 0.0625 0.125 0.3125 0.125h4.0938c1.8281 0 3.2344-1.3906 3.2344-2.5938 0-0.98438-0.85938-1.5781-1.8281-1.6719zm-1.6875 3.9219h-1.625c-0.15625 0-0.1875 0-0.25-0.015625-0.14062-0.015625-0.15625-0.03125-0.15625-0.125s0.03125-0.15625 0.046875-0.26562l0.84375-3.375h2.25c1.4062 0 1.4062 1.3125 1.4062 1.4062 0 1.1562-1.0312 2.375-2.5156 2.375z"/>
</g>
<g id="c">
<path d="m2.0312-1.3281c-0.42188 0.70312-0.82812 0.95312-1.3906 0.98438-0.14062 0.015625-0.23438 0.015625-0.23438 0.21875 0 0.078125 0.0625 0.125 0.14062 0.125 0.21875 0 0.75-0.03125 0.96875-0.03125 0.34375 0 0.73438 0.03125 1.0625 0.03125 0.078125 0 0.21875 0 0.21875-0.23438 0-0.09375-0.09375-0.10938-0.17188-0.10938-0.26562-0.03125-0.5-0.125-0.5-0.40625 0-0.17188 0.078125-0.29688 0.23438-0.5625l0.90625-1.5156h3.0469c0.015625 0.10938 0.015625 0.20312 0.015625 0.3125 0.046875 0.3125 0.1875 1.5625 0.1875 1.7812 0 0.35938-0.60938 0.39062-0.79688 0.39062-0.14062 0-0.26562 0-0.26562 0.21875 0 0.125 0.10938 0.125 0.17188 0.125 0.20312 0 0.45312-0.03125 0.65625-0.03125h0.67188c0.73438 0 1.2656 0.03125 1.2656 0.03125 0.09375 0 0.21875 0 0.21875-0.23438 0-0.10938-0.10938-0.10938-0.28125-0.10938-0.65625 0-0.67188-0.10938-0.70312-0.46875l-0.73438-7.4531c-0.03125-0.25-0.078125-0.26562-0.20312-0.26562s-0.1875 0.015625-0.29688 0.20312zm1.4375-1.8438 2.4062-4.0156 0.40625 4.0156z"/>
</g>
<g id="b">
<path d="m1.875-0.89062c-0.10938 0.42188-0.125 0.54688-0.96875 0.54688-0.21875 0-0.34375 0-0.34375 0.21875 0 0.125 0.078125 0.125 0.3125 0.125h3.7812c2.4219 0 4.7812-2.5 4.7812-5.1562 0-1.7344-1.0312-3-2.75-3h-3.8281c-0.23438 0-0.34375 0-0.34375 0.21875 0 0.125 0.10938 0.125 0.29688 0.125 0.71875 0 0.71875 0.09375 0.71875 0.21875 0 0.03125 0 0.09375-0.046875 0.28125zm2.5312-6.4531c0.09375-0.45312 0.14062-0.46875 0.60938-0.46875h1.3125c1.125 0 2.1562 0.60938 2.1562 2.25 0 0.60938-0.23438 2.6875-1.3906 4-0.34375 0.39062-1.25 1.2188-2.625 1.2188h-1.3594c-0.17188 0-0.1875 0-0.26562-0.015625-0.125-0.015625-0.14062-0.03125-0.14062-0.125s0.015625-0.15625 0.046875-0.26562z"/>
</g>
<g id="a">
<path d="m3.5469-3.8906h1.1562c0.90625 0 0.96875 0.20312 0.96875 0.54688 0 0.15625-0.015625 0.3125-0.078125 0.57812-0.03125 0.046875-0.03125 0.10938-0.03125 0.14062 0 0.078125 0.046875 0.125 0.125 0.125 0.09375 0 0.10938-0.046875 0.15625-0.23438l0.6875-2.7812c0-0.046875-0.03125-0.125-0.10938-0.125-0.10938 0-0.125 0.046875-0.17188 0.25-0.25 0.89062-0.48438 1.1406-1.5312 1.1406h-1.0781l0.76562-3.0938c0.10938-0.40625 0.14062-0.45312 0.625-0.45312h1.6094c1.4844 0 1.7031 0.45312 1.7031 1.2969 0 0.0625 0 0.32812-0.03125 0.64062-0.015625 0.046875-0.046875 0.20312-0.046875 0.25 0 0.09375 0.0625 0.14062 0.14062 0.14062s0.125-0.046875 0.15625-0.26562l0.25-2.0938c0-0.03125 0.015625-0.15625 0.015625-0.1875 0-0.125-0.10938-0.125-0.3125-0.125h-5.6719c-0.21875 0-0.34375 0-0.34375 0.21875 0 0.125 0.078125 0.125 0.28125 0.125 0.75 0 0.75 0.09375 0.75 0.21875 0 0.0625-0.015625 0.10938-0.046875 0.23438l-1.625 6.4531c-0.10938 0.42188-0.125 0.54688-0.96875 0.54688-0.21875 0-0.34375 0-0.34375 0.21875 0 0.125 0.10938 0.125 0.1875 0.125 0.21875 0 0.45312-0.03125 0.6875-0.03125h1.5469c0.26562 0 0.5625 0.03125 0.82812 0.03125 0.09375 0 0.25 0 0.25-0.21875 0-0.125-0.078125-0.125-0.34375-0.125-0.9375 0-0.96875-0.09375-0.96875-0.26562 0-0.0625 0.03125-0.15625 0.046875-0.23438z"/>
</g>
<g id="j">
<path d="m8.9219-8.3125c0-0.10938-0.09375-0.10938-0.10938-0.10938-0.03125 0-0.078125 0-0.17188 0.125l-0.82812 1c-0.0625-0.10938-0.29688-0.51562-0.76562-0.79688-0.51562-0.32812-1.0156-0.32812-1.2031-0.32812-2.5625 0-5.25 2.6094-5.25 5.4375 0 1.9688 1.3594 3.2344 3.1562 3.2344 0.85938 0 1.9531-0.28125 2.5469-1.0312 0.14062 0.45312 0.39062 0.76562 0.48438 0.76562 0.0625 0 0.0625-0.03125 0.078125-0.03125 0.015625-0.03125 0.10938-0.4375 0.17188-0.65625l0.1875-0.76562c0.09375-0.39062 0.14062-0.5625 0.23438-0.92188 0.10938-0.45312 0.14062-0.48438 0.79688-0.5 0.046875 0 0.1875 0 0.1875-0.23438 0-0.10938-0.125-0.10938-0.15625-0.10938-0.20312 0-0.42188 0.015625-0.64062 0.015625h-0.64062c-0.51562 0-1.0312-0.015625-1.5312-0.015625-0.10938 0-0.25 0-0.25 0.20312 0 0.125 0.09375 0.125 0.09375 0.14062h0.3125c0.9375 0 0.9375 0.09375 0.9375 0.26562 0 0.015625-0.23438 1.2188-0.45312 1.5781-0.45312 0.67188-1.4062 0.95312-2.1094 0.95312-0.92188 0-2.4062-0.48438-2.4062-2.5469 0-0.79688 0.28125-2.625 1.4375-3.9844 0.76562-0.85938 1.875-1.4375 2.9219-1.4375 1.4062 0 1.9062 1.2031 1.9062 2.2969 0 0.20312-0.046875 0.45312-0.046875 0.625 0 0.10938 0.125 0.10938 0.15625 0.10938 0.14062 0 0.14062-0.015625 0.1875-0.23438z"/>
</g>
<g id="i">
<path d="m8.9219-8.3125c0-0.10938-0.078125-0.10938-0.09375-0.10938-0.03125 0-0.078125 0-0.17188 0.125l-0.82812 1c-0.42188-0.71875-1.0781-1.125-1.9688-1.125-2.5781 0-5.2656 2.625-5.2656 5.4375 0 2 1.4062 3.2344 3.1406 3.2344 0.96875 0 1.7969-0.40625 2.5-0.98438 1.0312-0.875 1.3438-2.0312 1.3438-2.1406 0-0.09375-0.09375-0.09375-0.125-0.09375-0.10938 0-0.125 0.0625-0.15625 0.10938-0.54688 1.875-2.1562 2.7656-3.3594 2.7656-1.2656 0-2.3594-0.8125-2.3594-2.5156 0-0.375 0.125-2.4531 1.4688-4.0312 0.65625-0.76562 1.7812-1.4219 2.9219-1.4219 1.3125 0 1.8906 1.0781 1.8906 2.2969 0 0.3125-0.03125 0.57812-0.03125 0.625 0 0.10938 0.125 0.10938 0.15625 0.10938 0.125 0 0.14062-0.015625 0.1875-0.23438z"/>
</g>
<clipPath id="o">
<path d="m328 73h2v57.992h-2z"/>
</clipPath>
<clipPath id="n">
<path d="m212 108h23v22.992h-23z"/>
</clipPath>
<clipPath id="m">
<path d="m134 108h23v22.992h-23z"/>
</clipPath>
<clipPath id="l">
<path d="m56 108h23v22.992h-23z"/>
</clipPath>
</defs>
<path transform="matrix(.1 0 0 -.1 -.472 130.99)" d="m2346.2 123.52 949.73 595.35" fill="none" stroke="#000" stroke-miterlimit="10" stroke-width="4.725"/>
<path transform="matrix(.1 0 0 -.1 -.472 130.99)" d="m673.59 718.88v-496.13" fill="none" stroke="#000" stroke-miterlimit="10" stroke-width="4.725"/>
<path transform="matrix(.1 0 0 -.1 -.472 130.99)" d="m673.59 1300v-368.55" fill="none" stroke="#000" stroke-dasharray="18.9" stroke-miterlimit="10" stroke-width="4.725"/>
<path transform="matrix(.1 0 0 -.1 -.472 130.99)" d="m290.89 832.27h283.48" fill="none" stroke="#000" stroke-miterlimit="10" stroke-width="4.725"/>
<path transform="matrix(.1 0 0 -.1 -.472 130.99)" d="m7.3762 832.27h283.52" fill="none" stroke="#000" stroke-dasharray="18.9" stroke-miterlimit="10" stroke-width="4.725"/>
<path transform="matrix(.1 0 0 -.1 -.472 130.99)" d="m786.99 832.27h567.03" fill="none" stroke="#000" stroke-miterlimit="10" stroke-width="4.725"/>
<path transform="matrix(.1 0 0 -.1 -.472 130.99)" d="m1566.6 832.27h566.99" fill="none" stroke="#000" stroke-miterlimit="10" stroke-width="4.725"/>
<path transform="matrix(.1 0 0 -.1 -.472 130.99)" d="m1566.6 109.34h566.99" fill="none" stroke="#000" stroke-miterlimit="10" stroke-width="4.725"/>
<path transform="matrix(.1 0 0 -.1 -.472 130.99)" d="m3296 718.88v-127.58" fill="none" stroke="#000" stroke-miterlimit="10" stroke-width="4.725"/>
<g clip-path="url(#o)">
<path transform="matrix(.1 0 0 -.1 -.472 130.99)" d="m3296 577.12v-566.99" fill="none" stroke="#000" stroke-dasharray="18.9" stroke-miterlimit="10" stroke-width="4.725"/>
</g>
<path transform="matrix(.1 0 0 -.1 -.472 130.99)" d="m3296 1285.9v-212.62" fill="none" stroke="#000" stroke-dasharray="18.9" stroke-miterlimit="10" stroke-width="4.725"/>
<path transform="matrix(.1 0 0 -.1 -.472 130.99)" d="m3296 1073.3v-141.76" fill="none" stroke="#000" stroke-miterlimit="10" stroke-width="4.725"/>
<path transform="matrix(.1 0 0 -.1 -.472 130.99)" d="m2232.8 1300v-368.55" fill="none" stroke="#000" stroke-dasharray="18.9" stroke-miterlimit="10" stroke-width="4.725"/>
<path transform="matrix(.1 0 0 -.1 -.472 130.99)" d="m1453.2 1300v-368.55" fill="none" stroke="#000" stroke-dasharray="18.9" stroke-miterlimit="10" stroke-width="4.725"/>
<g clip-path="url(#n)">
<path transform="matrix(.1 0 0 -.1 -.472 130.99)" d="m2133.6 10.125h212.62v212.62h-212.62z" fill="none" stroke="#000" stroke-miterlimit="10" stroke-width="9.45"/>
</g>
<path transform="matrix(.1 0 0 -.1 -.472 130.99)" d="m2133.6 718.88h212.62v212.62h-212.62z" fill="none" stroke="#000" stroke-miterlimit="10" stroke-width="9.45"/>
<path transform="matrix(.1 0 0 -.1 -.472 130.99)" d="m3196.8 718.88h212.62v212.62h-212.62z" fill="none" stroke="#000" stroke-miterlimit="10" stroke-width="9.45"/>
<path transform="matrix(.1 0 0 -.1 -.472 130.99)" d="m1354 718.88h212.62v212.62h-212.62z" fill="none" stroke="#000" stroke-miterlimit="10" stroke-width="9.45"/>
<path transform="matrix(.1 0 0 -.1 -.472 130.99)" d="m574.37 718.88h212.62v212.62h-212.62z" fill="none" stroke="#000" stroke-miterlimit="10" stroke-width="9.45"/>
<path transform="matrix(.1 0 0 -.1 -.472 130.99)" d="m3069.2 832.27h127.58" fill="none" stroke="#000" stroke-miterlimit="10" stroke-width="4.725"/>
<path transform="matrix(.1 0 0 -.1 -.472 130.99)" d="m2927.4 832.27h127.58" fill="none" stroke="#000" stroke-dasharray="18.9" stroke-miterlimit="10" stroke-width="4.725"/>
<path transform="matrix(.1 0 0 -.1 -.472 130.99)" d="m2346.2 832.27h141.76" fill="none" stroke="#000" stroke-miterlimit="10" stroke-width="4.725"/>
<path transform="matrix(.1 0 0 -.1 -.472 130.99)" d="m2502.2 832.27h141.76" fill="none" stroke="#000" stroke-dasharray="18.9" stroke-miterlimit="10" stroke-width="4.725"/>
<g clip-path="url(#m)">
<path transform="matrix(.1 0 0 -.1 -.472 130.99)" d="m1354 10.125h212.62v212.62h-212.62z" fill="none" stroke="#000" stroke-miterlimit="10" stroke-width="9.45"/>
</g>
<g clip-path="url(#l)">
<path transform="matrix(.1 0 0 -.1 -.472 130.99)" d="m574.37 10.125h212.62v212.62h-212.62z" fill="none" stroke="#000" stroke-miterlimit="10" stroke-width="9.45"/>
</g>
<path transform="matrix(.1 0 0 -.1 -.472 130.99)" d="m786.99 123.52h567.03" fill="none" stroke="#000" stroke-miterlimit="10" stroke-width="4.725"/>
<g>
<use x="324.378" y="51.996" xlink:href="#k"/>
<use x="99.44" y="45.696" xlink:href="#h"/>
<use x="41.330555" y="45.696" xlink:href="#g"/>
<use x="241.182" y="44.121" xlink:href="#f"/>
<use x="333.314" y="30.735" xlink:href="#e"/>
<use x="140.05" y="51.996" xlink:href="#d"/>
<use x="62.447601" y="51.996" xlink:href="#c"/>
<use x="217.733694" y="51.996" xlink:href="#b"/>
<use x="140.196" y="122.867" xlink:href="#a"/>
<use x="218.141513" y="122.867" xlink:href="#j"/>
<use x="62.226577" y="122.867" xlink:href="#i"/>
</g>
</svg>
