<svg width="280pt" height="209pt" version="1.1" viewBox="0 0 280 209" xmlns="http://www.w3.org/2000/svg" xmlns:xlink="http://www.w3.org/1999/xlink">
<defs>
<g id="a">
<path d="m3.7344-6.125c0.0625-0.23438 0.09375-0.32812 0.28125-0.35938 0.09375-0.015625 0.40625-0.015625 0.60938-0.015625 0.70312 0 1.8125 0 1.8125 0.98438 0 0.34375-0.15625 1.0312-0.54688 1.4219-0.26562 0.25-0.78125 0.57812-1.6875 0.57812h-1.1094zm1.4375 2.7344c1.0156-0.21875 2.1875-0.92188 2.1875-1.9219 0-0.85938-0.89062-1.5-2.2031-1.5h-2.8281c-0.20312 0-0.29688 0-0.29688 0.20312 0 0.10938 0.09375 0.10938 0.28125 0.10938 0.015625 0 0.20312 0 0.375 0.015625 0.1875 0.03125 0.26562 0.03125 0.26562 0.17188 0 0.03125 0 0.0625-0.03125 0.1875l-1.3438 5.3438c-0.09375 0.39062-0.10938 0.46875-0.90625 0.46875-0.17188 0-0.26562 0-0.26562 0.20312 0 0.10938 0.125 0.10938 0.14062 0.10938 0.28125 0 0.98438-0.03125 1.25-0.03125 0.28125 0 1 0.03125 1.2812 0.03125 0.078125 0 0.1875 0 0.1875-0.20312 0-0.10938-0.078125-0.10938-0.28125-0.10938-0.35938 0-0.64062 0-0.64062-0.17188 0-0.0625 0.015625-0.10938 0.03125-0.17188l0.65625-2.6406h1.1875c0.90625 0 1.0781 0.5625 1.0781 0.90625 0 0.14062-0.078125 0.45312-0.14062 0.6875-0.0625 0.28125-0.15625 0.64062-0.15625 0.84375 0 1.0781 1.2031 1.0781 1.3281 1.0781 0.84375 0 1.2031-1 1.2031-1.1406 0-0.125-0.10938-0.125-0.125-0.125-0.09375 0-0.10938 0.0625-0.125 0.14062-0.25 0.73438-0.6875 0.90625-0.90625 0.90625-0.32812 0-0.40625-0.21875-0.40625-0.60938 0-0.3125 0.0625-0.8125 0.10938-1.1406 0.015625-0.14062 0.03125-0.32812 0.03125-0.46875 0-0.76562-0.67188-1.0781-0.9375-1.1719z"/>
</g>
<clipPath id="e">
<path d="m0.52734 35h3.4727v4h-3.4727z"/>
</clipPath>
<clipPath id="d">
<path d="m0.52734 170h3.4727v3h-3.4727z"/>
</clipPath>
<clipPath id="c">
<path d="m0.52734 169h3.4727v4h-3.4727z"/>
</clipPath>
<clipPath id="b">
<path d="m241 205h4v3.6367h-4z"/>
</clipPath>
</defs>
<path transform="matrix(.1 0 0 -.1 .528 208.64)" d="m2640.9 1151.5h-212.66" fill="none" stroke="#000" stroke-miterlimit="10" stroke-width="4.725"/>
<path transform="matrix(.1 0 0 -.1 .528 208.64)" d="m372.88 1931.1v-212.62" fill="none" stroke="#000" stroke-miterlimit="10" stroke-width="4.725"/>
<path transform="matrix(.1 0 0 -.1 .528 208.64)" d="m798.12 1931.1v-212.62" fill="none" stroke="#000" stroke-miterlimit="10" stroke-width="4.725"/>
<path transform="matrix(.1 0 0 -.1 .528 208.64)" d="m1152.5 1931.1v-212.62" fill="none" stroke="#000" stroke-miterlimit="10" stroke-width="4.725"/>
<path transform="matrix(.1 0 0 -.1 .528 208.64)" d="m1506.9 1931.1v-212.62" fill="none" stroke="#000" stroke-miterlimit="10" stroke-width="4.725"/>
<path transform="matrix(.1 0 0 -.1 .528 208.64)" d="m372.88 371.87v-212.62" fill="none" stroke="#000" stroke-miterlimit="10" stroke-width="4.725"/>
<path transform="matrix(.1 0 0 -.1 .528 208.64)" d="m370.66 17.493h4.7266" fill="none" stroke="#000" stroke-miterlimit="10" stroke-width="4.725"/>
<path transform="matrix(.1 0 0 -.1 .528 208.64)" d="m798.12 371.87v-212.62" fill="none" stroke="#000" stroke-miterlimit="10" stroke-width="4.725"/>
<path transform="matrix(.1 0 0 -.1 .528 208.64)" d="m1152.5 371.87v-212.62" fill="none" stroke="#000" stroke-miterlimit="10" stroke-width="4.725"/>
<path transform="matrix(.1 0 0 -.1 .528 208.64)" d="m1506.9 371.87v-212.62" fill="none" stroke="#000" stroke-miterlimit="10" stroke-width="4.725"/>
<path transform="matrix(.1 0 0 -.1 .528 208.64)" d="m2640.9 371.87h-212.66" fill="none" stroke="#000" stroke-miterlimit="10" stroke-width="4.725"/>
<path transform="matrix(.1 0 0 -.1 .528 208.64)" d="m2640.9 797.14h-212.66" fill="none" stroke="#000" stroke-miterlimit="10" stroke-width="4.725"/>
<path transform="matrix(.1 0 0 -.1 .528 208.64)" d="m2640.9 1505.9h-212.66" fill="none" stroke="#000" stroke-miterlimit="10" stroke-width="4.725"/>
<path transform="matrix(.1 0 0 -.1 .528 208.64)" d="m2428.2 1293.2h-1063.1" fill="none" stroke="#000" stroke-miterlimit="10" stroke-width="4.725"/>
<path transform="matrix(.1 0 0 -.1 .528 208.64)" d="m1365.1 1718.5v-425.27" fill="none" stroke="#000" stroke-miterlimit="10" stroke-width="4.725"/>
<path transform="matrix(.1 0 0 -.1 .528 208.64)" d="m1365.1 655.38v-283.52" fill="none" stroke="#000" stroke-miterlimit="10" stroke-width="4.725"/>
<path transform="matrix(.1 0 0 -.1 .528 208.64)" d="m2428.2 655.38h-1063.1" fill="none" stroke="#000" stroke-miterlimit="10" stroke-width="4.725"/>
<path d="m147.06 79.312c0 5.5312-4.4844 10.016-10.02 10.016-5.5312 0-10.016-4.4844-10.016-10.016 0-5.5352 4.4844-10.02 10.016-10.02 5.5352 0 10.02 4.4844 10.02 10.02" fill="#fff" fill-rule="evenodd"/>
<path transform="matrix(.1 0 0 -.1 .528 208.64)" d="m1465.3 1293.2c0-55.312-44.844-100.16-100.2-100.16-55.312 0-100.16 44.844-100.16 100.16 0 55.352 44.844 100.2 100.16 100.2 55.352 0 100.2-44.844 100.2-100.2z" fill="none" stroke="#000" stroke-miterlimit="10" stroke-width="4.725"/>
<path d="m147.06 143.1c0 5.5312-4.4844 10.02-10.02 10.02-5.5312 0-10.016-4.4883-10.016-10.02s4.4844-10.016 10.016-10.016c5.5352 0 10.02 4.4844 10.02 10.016" fill="#fff" fill-rule="evenodd"/>
<path transform="matrix(.1 0 0 -.1 .528 208.64)" d="m1465.3 655.38c0-55.312-44.844-100.2-100.2-100.2-55.312 0-100.16 44.883-100.16 100.2s44.844 100.16 100.16 100.16c55.352 0 100.2-44.844 100.2-100.16z" fill="none" stroke="#000" stroke-miterlimit="10" stroke-width="4.725"/>
<path transform="matrix(.1 0 0 -.1 .528 208.64)" d="m18.509 371.87h1984.5" fill="none" stroke="#000" stroke-miterlimit="10" stroke-width="4.725"/>
<path transform="matrix(.1 0 0 -.1 .528 208.64)" d="m2428.2 17.493v1984.5" fill="none" stroke="#000" stroke-miterlimit="10" stroke-width="4.725"/>
<path transform="matrix(.1 0 0 -.1 .528 208.64)" d="m18.509 1718.5h1984.5" fill="none" stroke="#000" stroke-miterlimit="10" stroke-width="4.725"/>
<path transform="matrix(.1 0 0 -.1 .528 208.64)" d="m301.99 17.493h141.76v141.76h-141.76z" fill="none" stroke="#000" stroke-miterlimit="10" stroke-width="9.45"/>
<path transform="matrix(.1 0 0 -.1 .528 208.64)" d="m727.26 17.493h141.76v141.76h-141.76z" fill="none" stroke="#000" stroke-miterlimit="10" stroke-width="9.45"/>
<path transform="matrix(.1 0 0 -.1 .528 208.64)" d="m1081.6 17.493h141.76v141.76h-141.76z" fill="none" stroke="#000" stroke-miterlimit="10" stroke-width="9.45"/>
<path transform="matrix(.1 0 0 -.1 .528 208.64)" d="m1436 17.493h141.76v141.76h-141.76z" fill="none" stroke="#000" stroke-miterlimit="10" stroke-width="9.45"/>
<path transform="matrix(.1 0 0 -.1 .528 208.64)" d="m2640.9 301.01h141.72v141.76h-141.72z" fill="none" stroke="#000" stroke-miterlimit="10" stroke-width="9.45"/>
<path transform="matrix(.1 0 0 -.1 .528 208.64)" d="m2640.9 726.24h141.72v141.76h-141.72z" fill="none" stroke="#000" stroke-miterlimit="10" stroke-width="9.45"/>
<path transform="matrix(.1 0 0 -.1 .528 208.64)" d="m2640.9 1080.6h141.72v141.76h-141.72z" fill="none" stroke="#000" stroke-miterlimit="10" stroke-width="9.45"/>
<path transform="matrix(.1 0 0 -.1 .528 208.64)" d="m2640.9 1435h141.72v141.76h-141.72z" fill="none" stroke="#000" stroke-miterlimit="10" stroke-width="9.45"/>
<path transform="matrix(.1 0 0 -.1 .528 208.64)" d="m1436 1931.1h141.76v141.76h-141.76z" fill="none" stroke="#000" stroke-miterlimit="10" stroke-width="9.45"/>
<path transform="matrix(.1 0 0 -.1 .528 208.64)" d="m1081.6 1931.1h141.76v141.76h-141.76z" fill="none" stroke="#000" stroke-miterlimit="10" stroke-width="9.45"/>
<path transform="matrix(.1 0 0 -.1 .528 208.64)" d="m727.26 1931.1h141.76v141.76h-141.76z" fill="none" stroke="#000" stroke-miterlimit="10" stroke-width="9.45"/>
<path transform="matrix(.1 0 0 -.1 .528 208.64)" d="m301.99 1931.1h141.76v141.76h-141.76z" fill="none" stroke="#000" stroke-miterlimit="10" stroke-width="9.45"/>
<path transform="matrix(.1 0 0 -.1 .528 208.64)" d="m1294.3 584.48h141.76v141.76h-141.76z" fill="none" stroke="#000" stroke-miterlimit="10" stroke-width="9.45"/>
<path transform="matrix(.1 0 0 -.1 .528 208.64)" d="m1294.3 1222.4h141.76v141.76h-141.76z" fill="none" stroke="#000" stroke-miterlimit="10" stroke-width="9.45"/>
<g clip-path="url(#e)">
<path transform="matrix(.1 0 0 -.1 .528 208.64)" d="m4.3294 1704.3h28.359v28.359h-28.359z" fill-rule="evenodd" stroke="#000" stroke-miterlimit="10" stroke-width="2.3625"/>
</g>
<path transform="matrix(.1 0 0 -.1 .528 208.64)" d="m1988.8 1704.3h28.359v28.359h-28.359z" fill-rule="evenodd" stroke="#000" stroke-miterlimit="10" stroke-width="2.3625"/>
<g clip-path="url(#d)">
<path d="m0.96094 172.87h2.8359v-2.8359h-2.8359z" fill-rule="evenodd"/>
</g>
<g clip-path="url(#c)">
<path transform="matrix(.1 0 0 -.1 .528 208.64)" d="m4.3294 357.69h28.359v28.359h-28.359z" fill="none" stroke="#000" stroke-miterlimit="10" stroke-width="2.3625"/>
</g>
<path transform="matrix(.1 0 0 -.1 .528 208.64)" d="m1988.8 357.69h28.359v28.359h-28.359z" fill-rule="evenodd" stroke="#000" stroke-miterlimit="10" stroke-width="2.3625"/>
<g clip-path="url(#b)">
<path transform="matrix(.1 0 0 -.1 .528 208.64)" d="m2414.1 3.3131h28.359v28.359h-28.359z" fill-rule="evenodd" stroke="#000" stroke-miterlimit="10" stroke-width="2.3625"/>
</g>
<path transform="matrix(.1 0 0 -.1 .528 208.64)" d="m2414.1 1987.8h28.359v28.359h-28.359z" fill-rule="evenodd" stroke="#000" stroke-miterlimit="10" stroke-width="2.3625"/>
<path transform="matrix(.1 0 0 -.1 .528 208.64)" d="m371.6 1931.1h2.5391" fill="none" stroke="#000" stroke-miterlimit="10" stroke-width="2.3625"/>
<path transform="matrix(.1 0 0 -.1 .528 208.64)" d="m796.87 1931.1h2.5" fill="none" stroke="#000" stroke-miterlimit="10" stroke-width="2.3625"/>
<path transform="matrix(.1 0 0 -.1 .528 208.64)" d="m1151.2 1931.1h2.5" fill="none" stroke="#000" stroke-miterlimit="10" stroke-width="2.3625"/>
<path transform="matrix(.1 0 0 -.1 .528 208.64)" d="m1505.6 1931.1h2.5391" fill="none" stroke="#000" stroke-miterlimit="10" stroke-width="2.3625"/>
<path transform="matrix(.1 0 0 -.1 .528 208.64)" d="m371.6 159.25h2.5391" fill="none" stroke="#000" stroke-miterlimit="10" stroke-width="2.3625"/>
<path transform="matrix(.1 0 0 -.1 .528 208.64)" d="m796.87 159.25h2.5" fill="none" stroke="#000" stroke-miterlimit="10" stroke-width="2.3625"/>
<path transform="matrix(.1 0 0 -.1 .528 208.64)" d="m1151.2 159.25h2.5" fill="none" stroke="#000" stroke-miterlimit="10" stroke-width="2.3625"/>
<path transform="matrix(.1 0 0 -.1 .528 208.64)" d="m1505.6 159.25h2.5391" fill="none" stroke="#000" stroke-miterlimit="10" stroke-width="2.3625"/>
<path transform="matrix(.1 0 0 -.1 .528 208.64)" d="m2639.6 371.87h2.5391" fill="none" stroke="#000" stroke-miterlimit="10" stroke-width="2.3625"/>
<path transform="matrix(.1 0 0 -.1 .528 208.64)" d="m2639.6 797.14h2.5391" fill="none" stroke="#000" stroke-miterlimit="10" stroke-width="2.3625"/>
<path transform="matrix(.1 0 0 -.1 .528 208.64)" d="m2639.6 1151.5h2.5391" fill="none" stroke="#000" stroke-miterlimit="10" stroke-width="2.3625"/>
<path transform="matrix(.1 0 0 -.1 .528 208.64)" d="m2639.6 1505.9h2.5391" fill="none" stroke="#000" stroke-miterlimit="10" stroke-width="2.3625"/>
<g>
<use x="133.157" y="145.892" xlink:href="#a"/>
<use x="133.157" y="82.108" xlink:href="#a"/>
</g>
</svg>
