<svg width="398pt" height="278pt" version="1.1" viewBox="0 0 398 278" xmlns="http://www.w3.org/2000/svg" xmlns:xlink="http://www.w3.org/1999/xlink">
<defs>
<g id="k">
<path d="m1.9062-2.4844h1.4531c0.96875 0 1.9219-0.625 1.9219-1.4688 0-0.78125-0.84375-1.4844-1.9844-1.4844h-2.9375v0.26562h0.1875c0.60938 0 0.625 0.078125 0.625 0.375v4.1562c0 0.29688-0.015625 0.375-0.625 0.375h-0.1875v0.26562c0.6875-0.03125 0.70312-0.03125 1.1719-0.03125 0.48438 0 0.5 0 1.1719 0.03125v-0.26562h-0.17188c-0.60938 0-0.625-0.078125-0.625-0.375zm-0.03125-0.23438v-2.1406c0-0.26562 0.015625-0.3125 0.39062-0.3125h0.82812c1.3594 0 1.3594 0.85938 1.3594 1.2188 0 0.34375 0 1.2344-1.3594 1.2344z"/>
</g>
<g id="x">
<path d="m1.7031-4.9375c0-0.26562-0.20312-0.42188-0.40625-0.42188-0.25 0-0.42188 0.20312-0.42188 0.42188s0.17188 0.40625 0.42188 0.40625c0.20312 0 0.40625-0.15625 0.40625-0.40625zm1.6406 0c0-0.21875-0.17188-0.42188-0.40625-0.42188-0.21875 0-0.42188 0.15625-0.42188 0.42188 0 0.25 0.20312 0.40625 0.42188 0.40625 0.23438 0 0.40625-0.1875 0.40625-0.40625z"/>
</g>
<g id="d">
<path d="m3.3438-2.375c0-0.78125-0.75-1.1719-1.4844-1.1719-0.65625 0-1.25 0.25-1.25 0.78125 0 0.23438 0.17188 0.375 0.375 0.375 0.23438 0 0.375-0.15625 0.375-0.375 0-0.1875-0.10938-0.32812-0.29688-0.35938 0.29688-0.20312 0.73438-0.20312 0.78125-0.20312 0.45312 0 0.89062 0.3125 0.89062 0.96875v0.23438c-0.45312 0.03125-0.98438 0.046875-1.5469 0.28125-0.70312 0.3125-0.84375 0.76562-0.84375 1.0312 0 0.6875 0.8125 0.89062 1.3594 0.89062 0.57812 0 0.9375-0.32812 1.125-0.64062 0.03125 0.29688 0.23438 0.60938 0.59375 0.60938 0.078125 0 0.75-0.03125 0.75-0.76562v-0.4375h-0.25v0.4375c0 0.32812-0.10938 0.45312-0.28125 0.45312-0.29688 0-0.29688-0.35938-0.29688-0.45312zm-0.60938 1.25c0 0.78125-0.64062 0.98438-0.96875 0.98438-0.40625 0-0.76562-0.28125-0.76562-0.67188 0-0.51562 0.5-1.0625 1.7344-1.0938z"/>
</g>
<g id="t">
<path d="m2.625-5.4375v0.26562c0.53125 0 0.60938 0.046875 0.60938 0.4375v1.6875c-0.28125-0.3125-0.65625-0.46875-1.0781-0.46875-1 0-1.875 0.78125-1.875 1.7969 0 0.98438 0.79688 1.7969 1.7969 1.7969 0.46875 0 0.85938-0.21875 1.125-0.5v0.5l1.2188-0.078125v-0.26562c-0.54688 0-0.60938-0.046875-0.60938-0.4375v-4.8281zm0.57812 4.4531c0 0.14062 0 0.17188-0.125 0.32812-0.21875 0.32812-0.57812 0.51562-0.95312 0.51562s-0.6875-0.1875-0.875-0.48438c-0.21875-0.3125-0.26562-0.70312-0.26562-1.0781 0-0.46875 0.078125-0.79688 0.26562-1.0625 0.1875-0.29688 0.54688-0.53125 0.95312-0.53125 0.375 0 0.76562 0.20312 1 0.60938z"/>
</g>
<g id="l">
<path d="m1.375-0.54688c-0.25-0.03125-0.4375-0.23438-0.4375-0.53125 0-0.1875 0.046875-0.26562 0.09375-0.32812 0.34375 0.1875 0.65625 0.23438 0.84375 0.23438 0.78125 0 1.375-0.54688 1.375-1.1719 0-0.29688-0.14062-0.5625-0.32812-0.76562 0.10938-0.09375 0.375-0.26562 0.76562-0.26562-0.03125 0.015625-0.078125 0.0625-0.078125 0.1875 0 0.14062 0.10938 0.25 0.25 0.25 0.10938 0 0.25-0.078125 0.25-0.26562 0-0.125-0.10938-0.40625-0.45312-0.40625-0.14062 0-0.53125 0.046875-0.89062 0.375-0.20312-0.14062-0.51562-0.28125-0.89062-0.28125-0.78125 0-1.3594 0.54688-1.3594 1.1719 0 0.375 0.20312 0.65625 0.375 0.8125-0.1875 0.20312-0.25 0.45312-0.25 0.64062 0 0.32812 0.17188 0.57812 0.34375 0.71875-0.42188 0.10938-0.75 0.42188-0.75 0.78125 0 0.57812 0.82812 1.0312 1.875 1.0312 1 0 1.875-0.40625 1.875-1.0469 0-0.42188-0.25-0.76562-0.51562-0.89062-0.46875-0.25-0.85938-0.25-1.6406-0.25zm0.5-0.85938c-0.73438 0-0.73438-0.76562-0.73438-0.9375 0-0.29688 0.03125-0.5 0.15625-0.65625 0.14062-0.1875 0.35938-0.28125 0.57812-0.28125 0.73438 0 0.73438 0.76562 0.73438 0.9375 0 0.29688-0.03125 0.5-0.15625 0.65625-0.17188 0.23438-0.42188 0.28125-0.57812 0.28125zm0.375 1.375c0.21875 0 1.2656 0 1.2656 0.64062 0 0.42188-0.60938 0.79688-1.4062 0.79688s-1.4062-0.375-1.4062-0.79688c0-0.17188 0.14062-0.64062 0.78125-0.64062z"/>
</g>
<g id="e">
<path d="m3.9844-1.7031c0-0.98438-0.82812-1.8438-1.875-1.8438s-1.875 0.85938-1.875 1.8438c0 1 0.85938 1.7812 1.875 1.7812 1.0312 0 1.875-0.78125 1.875-1.7812zm-1.875 1.5312c-0.42188 0-0.76562-0.20312-0.9375-0.48438-0.20312-0.32812-0.21875-0.71875-0.21875-1.1094 0-0.3125 0-0.78125 0.23438-1.125 0.21875-0.28125 0.54688-0.4375 0.92188-0.4375 0.42188 0 0.76562 0.20312 0.9375 0.46875 0.21875 0.34375 0.23438 0.76562 0.23438 1.0938 0 0.35938-0.015625 0.79688-0.25 1.1406-0.20312 0.3125-0.5625 0.45312-0.92188 0.45312z"/>
</g>
<g id="b">
<path d="m1.5469-4.9062c0-0.23438-0.17188-0.45312-0.4375-0.45312-0.23438 0-0.4375 0.1875-0.4375 0.4375 0 0.28125 0.23438 0.45312 0.4375 0.45312 0.28125 0 0.4375-0.23438 0.4375-0.4375zm-1.1875 1.4844v0.26562c0.51562 0 0.57812 0.046875 0.57812 0.4375v2.0938c0 0.35938-0.09375 0.35938-0.60938 0.35938v0.26562c0.3125-0.03125 0.76562-0.03125 0.89062-0.03125 0.09375 0 0.57812 0 0.85938 0.03125v-0.26562c-0.53125 0-0.5625-0.03125-0.5625-0.34375v-2.9062z"/>
</g>
<g id="c">
<path d="m2.4062-2.1719 0.67188-0.53125c0.53125-0.42188 0.85938-0.45312 1.0625-0.46875v-0.26562c-0.20312 0.03125-0.3125 0.03125-0.64062 0.03125-0.39062 0-0.5-0.015625-0.84375-0.03125v0.26562c0.15625 0.015625 0.1875 0.10938 0.1875 0.15625 0 0.17188-0.17188 0.3125-0.23438 0.35938l-1.1406 0.92188v-3.7969l-1.1875 0.09375v0.26562c0.54688 0 0.60938 0.046875 0.60938 0.4375v4.1094c0 0.35938-0.10938 0.35938-0.60938 0.35938v0.26562c0.3125-0.03125 0.73438-0.03125 0.875-0.03125 0.15625 0 0.57812 0 0.89062 0.03125v-0.26562c-0.51562 0-0.60938 0-0.60938-0.35938v-0.76562l0.53125-0.4375c0.03125 0 0.23438 0.28125 0.35938 0.4375s0.25 0.32812 0.375 0.48438 0.28125 0.35938 0.28125 0.48438c0 0.14062-0.14062 0.15625-0.25 0.15625v0.26562c0.34375-0.03125 0.70312-0.03125 0.84375-0.03125 0.29688 0 0.46875 0 0.73438 0.03125v-0.26562c-0.32812 0-0.46875-0.03125-0.76562-0.40625z"/>
</g>
<g id="s">
<path d="m5.1719-4.7969c0-0.29688 0.03125-0.375 0.64062-0.375h0.17188v-0.26562c-0.67188 0.015625-0.6875 0.015625-1.1719 0.015625s-0.5 0-1.1719-0.015625v0.26562h0.17188c0.625 0 0.64062 0.078125 0.64062 0.375v1.8281h-2.5625v-1.8281c0-0.29688 0.015625-0.375 0.625-0.375h0.17188v-0.26562c-0.67188 0.015625-0.6875 0.015625-1.1719 0.015625-0.46875 0-0.48438 0-1.1719-0.015625v0.26562h0.1875c0.60938 0 0.625 0.078125 0.625 0.375v4.1562c0 0.29688-0.015625 0.375-0.625 0.375h-0.1875v0.26562c0.6875-0.03125 0.70312-0.03125 1.1719-0.03125 0.48438 0 0.5 0 1.1719 0.03125v-0.26562h-0.17188c-0.60938 0-0.625-0.078125-0.625-0.375v-2.0625h2.5625v2.0625c0 0.29688-0.015625 0.375-0.64062 0.375h-0.17188v0.26562c0.67188-0.03125 0.6875-0.03125 1.1719-0.03125s0.5 0 1.1719 0.03125v-0.26562h-0.17188c-0.60938 0-0.64062-0.078125-0.64062-0.375z"/>
</g>
<g id="i">
<path d="m2.6562-3.4219v0.26562c0.54688 0 0.60938 0.046875 0.60938 0.4375v1.3906c0 0.6875-0.40625 1.1875-1.0156 1.1875-0.6875 0-0.71875-0.34375-0.71875-0.75v-2.625l-1.2031 0.09375v0.26562c0.60938 0 0.60938 0.015625 0.60938 0.71875v1.2031c0 0.57812 0 1.3125 1.2656 1.3125 0.75 0 1.0469-0.57812 1.0781-0.64062h0.015625v0.64062l1.1875-0.078125v-0.26562c-0.54688 0-0.60938-0.046875-0.60938-0.4375v-2.8125z"/>
</g>
<g id="aa">
<path d="m2.0938 1.2812c-0.51562 0-0.60938 0-0.60938-0.35938v-1.3125c0.375 0.40625 0.78125 0.46875 1.0469 0.46875 1 0 1.8906-0.78125 1.8906-1.7969 0-1-0.8125-1.7969-1.7812-1.7969-0.3125 0-0.76562 0.078125-1.1719 0.5v-0.5l-1.1875 0.09375v0.26562c0.5625 0 0.60938 0.046875 0.60938 0.375v3.7031c0 0.35938-0.10938 0.35938-0.60938 0.35938v0.26562c0.34375-0.03125 0.6875-0.03125 0.90625-0.03125 0.23438 0 0.5625 0 0.90625 0.03125zm-0.60938-3.9375c0.1875-0.3125 0.59375-0.60938 1.0938-0.60938 0.60938 0 1.125 0.67188 1.125 1.5469 0 0.90625-0.57812 1.5781-1.2188 1.5781-0.28125 0-0.64062-0.125-0.90625-0.51562-0.09375-0.14062-0.09375-0.15625-0.09375-0.29688z"/>
</g>
<g id="a">
<path d="m1.4844-3.1719h1.1875v-0.26562h-1.1875v-1.4688h-0.25c0 0.73438-0.32812 1.4844-1.0781 1.5156v0.21875h0.71875v2.1719c0 0.9375 0.71875 1.0781 1.0781 1.0781 0.54688 0 0.85938-0.46875 0.85938-1.0781v-0.4375h-0.25v0.42188c0 0.54688-0.25 0.84375-0.54688 0.84375-0.53125 0-0.53125-0.6875-0.53125-0.8125z"/>
</g>
<g id="f">
<path d="m1.4688-1.8125c0-0.60938 0.25-1.4688 1.0156-1.4844-0.046875 0.03125-0.14062 0.09375-0.14062 0.28125 0 0.25 0.20312 0.35938 0.35938 0.35938 0.1875 0 0.35938-0.125 0.35938-0.35938 0-0.28125-0.25-0.5-0.60938-0.5-0.51562 0-0.875 0.39062-1.0312 0.84375h-0.015625v-0.84375l-1.125 0.09375v0.26562c0.54688 0 0.60938 0.046875 0.60938 0.4375v2.0938c0 0.35938-0.10938 0.35938-0.60938 0.35938v0.26562c0.3125-0.03125 0.75-0.03125 0.9375-0.03125 0.46875 0 0.48438 0 1 0.03125v-0.26562h-0.15625c-0.57812 0-0.59375-0.078125-0.59375-0.375z"/>
</g>
<g id="g">
<path d="m3.2969-1.8125c0.17188 0 0.21875 0 0.21875-0.1875 0-0.70312-0.39062-1.5469-1.5156-1.5469-0.98438 0-1.7656 0.8125-1.7656 1.7969 0 1.0312 0.85938 1.8281 1.875 1.8281 1 0 1.4062-0.84375 1.4062-1.0312 0-0.03125-0.03125-0.10938-0.125-0.10938s-0.10938 0.046875-0.125 0.09375c-0.28125 0.78125-0.96875 0.79688-1.1094 0.79688-0.35938 0-0.73438-0.15625-0.96875-0.53125-0.23438-0.35938-0.23438-0.875-0.23438-1.1094zm-2.3438-0.21875c0.078125-1.1094 0.75-1.2969 1.0469-1.2969 0.9375 0 0.96875 1.125 0.96875 1.2969z"/>
</g>
<g id="z">
<path d="m3.7812-2.7031c0.625-0.17188 1.375-0.625 1.375-1.3125 0-0.78125-1-1.4219-2.1875-1.4219h-2.6094v0.26562h0.1875c0.60938 0 0.625 0.078125 0.625 0.375v4.1562c0 0.29688-0.015625 0.375-0.625 0.375h-0.1875v0.26562c0.6875-0.03125 0.70312-0.03125 1.1562-0.03125 0.46875 0 0.5 0 1.1719 0.03125v-0.26562h-0.17188c-0.625 0-0.64062-0.078125-0.64062-0.375v-1.9688h1.0156c0.57812 0 0.84375 0.29688 0.90625 0.35938 0.23438 0.25 0.23438 0.40625 0.23438 0.9375 0 0.5 0 0.84375 0.32812 1.1406 0.34375 0.29688 0.78125 0.34375 1.0156 0.34375 0.67188 0 0.82812-0.65625 0.82812-0.89062 0-0.046875 0-0.15625-0.125-0.15625s-0.125 0.09375-0.125 0.14062c-0.046875 0.5-0.3125 0.67188-0.54688 0.67188-0.42188 0-0.46875-0.35938-0.60938-1.375-0.0625-0.45312-0.14062-1-1.0156-1.2656zm-0.92188-0.14062h-0.98438v-2.0156c0-0.20312 0.015625-0.28125 0.20312-0.3125h0.48438c0.71875 0 1.7656 0 1.7656 1.1562 0 0.89062-0.625 1.1719-1.4688 1.1719z"/>
</g>
<g id="r">
<path d="m2.0312-5.2656c-0.078125-0.15625-0.078125-0.17188-0.29688-0.17188h-1.3438v0.26562h0.17188c0.60938 0 0.625 0.078125 0.625 0.375v3.9375c0 0.21875 0 0.59375-0.79688 0.59375v0.26562c0.35938-0.03125 0.73438-0.03125 0.9375-0.03125s0.57812 0 0.9375 0.03125v-0.26562c-0.79688 0-0.79688-0.375-0.79688-0.59375v-4.2344l2.0156 4.9062c0.046875 0.09375 0.078125 0.1875 0.1875 0.1875s0.14062-0.09375 0.1875-0.1875l2.0312-4.9688v4.5156c0 0.29688-0.015625 0.375-0.625 0.375h-0.17188v0.26562c0.625-0.03125 0.64062-0.03125 1.125-0.03125s0.5 0 1.1406 0.03125v-0.26562h-0.17188c-0.625 0-0.64062-0.078125-0.64062-0.375v-4.1562c0-0.29688 0.015625-0.375 0.64062-0.375h0.17188v-0.26562h-1.3438c-0.21875 0-0.23438 0.015625-0.29688 0.15625l-1.8438 4.5312z"/>
</g>
<g id="h">
<path d="m3.875-2.4219c0-0.65625-0.3125-1.0938-1.1406-1.0938-0.70312 0-1.0625 0.45312-1.2188 0.70312v-2.7188l-1.1875 0.09375v0.26562c0.54688 0 0.60938 0.046875 0.60938 0.4375v4.1094c0 0.35938-0.09375 0.35938-0.60938 0.35938v0.26562c0.34375-0.03125 0.6875-0.03125 0.90625-0.03125 0.23438 0 0.5625 0 0.90625 0.03125v-0.26562c-0.5 0-0.60938 0-0.60938-0.35938v-1.4375c0-0.84375 0.64062-1.2344 1.125-1.2344s0.60938 0.34375 0.60938 0.84375v1.8281c0 0.35938-0.09375 0.35938-0.60938 0.35938v0.26562c0.34375-0.03125 0.70312-0.03125 0.90625-0.03125 0.23438 0 0.57812 0 0.92188 0.03125v-0.26562c-0.51562 0-0.60938 0-0.60938-0.35938z"/>
</g>
<g id="q">
<path d="m6.2188-2.4219c0-0.64062-0.28125-1.0938-1.1406-1.0938-0.73438 0-1.1094 0.5-1.2344 0.73438-0.14062-0.57812-0.59375-0.73438-1.1094-0.73438-0.78125 0-1.1406 0.54688-1.25 0.76562v-0.76562l-1.1562 0.09375v0.26562c0.54688 0 0.60938 0.046875 0.60938 0.4375v2.0938c0 0.35938-0.09375 0.35938-0.60938 0.35938v0.26562c0.34375-0.03125 0.6875-0.03125 0.90625-0.03125 0.23438 0 0.5625 0 0.90625 0.03125v-0.26562c-0.5 0-0.60938 0-0.60938-0.35938v-1.4375c0-0.84375 0.64062-1.2344 1.1406-1.2344 0.51562 0 0.60938 0.40625 0.60938 0.84375v1.8281c0 0.35938-0.10938 0.35938-0.60938 0.35938v0.26562c0.34375-0.03125 0.6875-0.03125 0.90625-0.03125 0.23438 0 0.5625 0 0.90625 0.03125v-0.26562c-0.51562 0-0.60938 0-0.60938-0.35938v-1.4375c0-0.84375 0.64062-1.2344 1.1406-1.2344 0.51562 0 0.60938 0.40625 0.60938 0.84375v1.8281c0 0.35938-0.10938 0.35938-0.60938 0.35938v0.26562c0.34375-0.03125 0.6875-0.03125 0.90625-0.03125 0.23438 0 0.5625 0 0.90625 0.03125v-0.26562c-0.51562 0-0.60938 0-0.60938-0.35938z"/>
</g>
<g id="y">
<path d="m3.5312-2.625c0.20312-0.45312 0.5-0.53125 0.75-0.54688v-0.26562c-0.26562 0.03125-0.28125 0.03125-0.625 0.03125-0.03125 0-0.45312 0-0.6875-0.03125v0.26562c0.23438 0.015625 0.34375 0.14062 0.34375 0.32812 0 0.046875 0 0.10938-0.046875 0.20312l-0.84375 1.9219-0.9375-2.0938c-0.046875-0.10938-0.046875-0.125-0.046875-0.15625 0-0.1875 0.25-0.20312 0.42188-0.20312v-0.26562c-0.35938 0.03125-0.70312 0.03125-0.875 0.03125s-0.54688 0-0.8125-0.03125v0.26562c0.42188 0 0.53125 0.015625 0.67188 0.3125l1.25 2.8594c-0.35938 0.84375-0.59375 1.4062-1.1562 1.4062-0.20312 0-0.32812-0.09375-0.32812-0.09375 0.0625-0.015625 0.25-0.10938 0.25-0.34375 0-0.21875-0.17188-0.34375-0.34375-0.34375s-0.34375 0.10938-0.34375 0.35938c0 0.34375 0.34375 0.64062 0.76562 0.64062 0.71875 0 1.0938-0.85938 1.125-0.9375z"/>
</g>
<g id="j">
<path d="m2.8438-3.3438c0-0.125 0-0.20312-0.10938-0.20312-0.046875 0-0.0625 0-0.1875 0.125-0.015625 0-0.09375 0.078125-0.10938 0.078125s-0.03125 0-0.078125-0.03125c-0.125-0.09375-0.35938-0.17188-0.71875-0.17188-1.1094 0-1.3594 0.59375-1.3594 0.98438s0.29688 0.625 0.3125 0.65625c0.32812 0.23438 0.5 0.26562 1.0469 0.35938 0.375 0.078125 0.98438 0.1875 0.98438 0.71875 0 0.3125-0.20312 0.6875-0.9375 0.6875-0.8125 0-1.0469-0.625-1.1406-1.0469-0.03125-0.10938-0.046875-0.14062-0.14062-0.14062-0.125 0-0.125 0.0625-0.125 0.21875v0.98438c0 0.125 0 0.20312 0.09375 0.20312 0.0625 0 0.0625 0 0.20312-0.15625 0.046875-0.046875 0.125-0.14062 0.17188-0.1875 0.35938 0.32812 0.73438 0.34375 0.9375 0.34375 1.0156 0 1.3594-0.57812 1.3594-1.1094 0-0.375-0.21875-0.9375-1.1719-1.1094-0.0625-0.015625-0.51562-0.09375-0.54688-0.09375-0.25-0.0625-0.625-0.23438-0.625-0.54688 0-0.23438 0.1875-0.57812 0.9375-0.57812 0.89062 0 0.9375 0.65625 0.95312 0.875 0 0.0625 0.0625 0.09375 0.10938 0.09375 0.14062 0 0.14062-0.0625 0.14062-0.20312z"/>
</g>
<g id="w">
<path d="m1.8906-4.7969c0-0.29688 0.015625-0.375 0.65625-0.375h0.1875v-0.26562c-0.64062 0.015625-0.65625 0.015625-1.2188 0.015625-0.54688 0-0.5625 0-1.2031-0.015625v0.26562h0.1875c0.625 0 0.65625 0.078125 0.65625 0.375v4.1562c0 0.29688-0.03125 0.375-0.65625 0.375h-0.1875v0.26562c0.64062-0.03125 0.65625-0.03125 1.2031-0.03125 0.5625 0 0.57812 0 1.2188 0.03125v-0.26562h-0.1875c-0.64062 0-0.65625-0.078125-0.65625-0.375z"/>
</g>
<g id="p">
<path d="m3.875-2.4219c0-0.65625-0.3125-1.0938-1.1406-1.0938-0.79688 0-1.1562 0.57812-1.25 0.76562v-0.76562l-1.1562 0.09375v0.26562c0.54688 0 0.60938 0.046875 0.60938 0.4375v2.0938c0 0.35938-0.09375 0.35938-0.60938 0.35938v0.26562c0.34375-0.03125 0.6875-0.03125 0.90625-0.03125 0.23438 0 0.5625 0 0.90625 0.03125v-0.26562c-0.5 0-0.60938 0-0.60938-0.35938v-1.4375c0-0.84375 0.64062-1.2344 1.125-1.2344s0.60938 0.34375 0.60938 0.84375v1.8281c0 0.35938-0.09375 0.35938-0.60938 0.35938v0.26562c0.34375-0.03125 0.70312-0.03125 0.90625-0.03125 0.23438 0 0.57812 0 0.92188 0.03125v-0.26562c-0.51562 0-0.60938 0-0.60938-0.35938z"/>
</g>
<g id="o">
<path d="m1.5156-3.1719h0.96875v-0.26562h-0.98438v-0.89062c0-0.70312 0.39062-1.0625 0.73438-1.0625 0.125 0 0.20312 0.03125 0.23438 0.046875-0.14062 0.0625-0.1875 0.20312-0.1875 0.3125 0 0.20312 0.15625 0.35938 0.35938 0.35938 0.21875 0 0.35938-0.15625 0.35938-0.35938 0-0.34375-0.32812-0.57812-0.75-0.57812-0.59375 0-1.3125 0.4375-1.3125 1.2812v0.89062h-0.65625v0.26562h0.65625v2.5469c0 0.35938-0.09375 0.35938-0.60938 0.35938v0.26562c0.3125-0.03125 0.75-0.03125 0.95312-0.03125 0.46875 0 0.48438 0 1 0.03125v-0.26562h-0.15625c-0.59375 0-0.60938-0.078125-0.60938-0.375z"/>
</g>
<g id="v">
<path d="m5.5156-2.0781h-0.25c-0.20312 1.2031-0.375 1.8125-1.8125 1.8125h-1.1875c-0.35938 0-0.375-0.046875-0.375-0.32812v-2.0938h0.76562c0.79688 0 0.90625 0.23438 0.90625 0.9375h0.25v-2.125h-0.25c0 0.6875-0.10938 0.92188-0.90625 0.92188h-0.76562v-1.875c0-0.26562 0.015625-0.32812 0.375-0.32812h1.1406c1.3125 0 1.4844 0.48438 1.625 1.5469h0.25l-0.23438-1.8125h-4.7031v0.26562h0.1875c0.60938 0 0.625 0.09375 0.625 0.39062v4.125c0 0.29688-0.015625 0.375-0.625 0.375h-0.1875v0.26562h4.8125z"/>
</g>
<g id="n">
<path d="m1.5156-5.5312-1.1875 0.09375v0.26562c0.54688 0 0.60938 0.046875 0.60938 0.4375v4.1094c0 0.35938-0.09375 0.35938-0.60938 0.35938v0.26562c0.3125-0.03125 0.76562-0.03125 0.90625-0.03125 0.15625 0 0.57812 0 0.89062 0.03125v-0.26562c-0.5 0-0.60938 0-0.60938-0.35938z"/>
</g>
<g id="m">
<path d="m2.9375-3.1562c-0.23438 0.0625-0.26562 0.25-0.26562 0.34375 0 0.21875 0.15625 0.375 0.375 0.375s0.375-0.14062 0.375-0.39062c0-0.48438-0.53125-0.71875-1.2812-0.71875-1.1094 0-1.8594 0.875-1.8594 1.8281 0 1.0156 0.82812 1.7969 1.8281 1.7969 1.125 0 1.4062-0.9375 1.4062-1.0312s-0.10938-0.09375-0.125-0.09375c-0.0625 0-0.09375 0-0.125 0.078125-0.046875 0.17188-0.28125 0.79688-1.0781 0.79688-0.48438 0-1.2031-0.375-1.2031-1.5625 0-1.1406 0.59375-1.5781 1.1719-1.5781 0.078125 0 0.5 0 0.78125 0.15625z"/>
</g>
<g id="u">
<path d="m7.7344-4.6406c0.10938-0.32812 0.32812-0.53125 0.79688-0.53125v-0.26562c-0.26562 0.015625-0.53125 0.015625-0.78125 0.015625s-0.48438 0-0.92188-0.015625v0.26562c0.4375 0 0.65625 0.20312 0.65625 0.42188 0 0.03125 0 0.046875-0.03125 0.15625l-1.2656 3.6719-1.3438-3.875c-0.03125-0.09375-0.03125-0.10938-0.03125-0.14062 0-0.23438 0.40625-0.23438 0.64062-0.23438v-0.26562c-0.6875 0.015625-0.70312 0.015625-1.1094 0.015625-0.29688 0-0.625 0-0.98438-0.015625v0.26562c0.42188 0 0.54688 0.015625 0.64062 0.14062 0.0625 0.09375 0.20312 0.5625 0.20312 0.57812l-0.03125 0.09375-1.1875 3.4375-1.3281-3.875c-0.046875-0.10938-0.046875-0.125-0.046875-0.14062 0-0.23438 0.42188-0.23438 0.65625-0.23438v-0.26562c-0.6875 0.015625-0.70312 0.015625-1.1094 0.015625-0.29688 0-0.64062 0-1-0.015625v0.26562c0.46875 0 0.60938 0 0.71875 0.29688l1.6719 4.8594c0.046875 0.10938 0.078125 0.1875 0.20312 0.1875 0.10938 0 0.15625-0.078125 0.1875-0.1875l1.4062-4.0625 1.4062 4.0625c0.03125 0.09375 0.0625 0.1875 0.1875 0.1875s0.15625-0.078125 0.20312-0.1875z"/>
</g>
<clipPath id="ak">
<path d="m0.52734 64h149.47v1h-149.47z"/>
</clipPath>
<clipPath id="aj">
<path d="m0.52734 85h15.473v16h-15.473z"/>
</clipPath>
<clipPath id="ai">
<path d="m0.52734 121h149.47v1h-149.47z"/>
</clipPath>
<clipPath id="ah">
<path d="m0.52734 142h15.473v15h-15.473z"/>
</clipPath>
<clipPath id="ag">
<path d="m0.52734 177h149.47v1h-149.47z"/>
</clipPath>
<clipPath id="af">
<path d="m0.52734 206h15.473v15h-15.473z"/>
</clipPath>
<clipPath id="ae">
<path d="m0.52734 241h149.47v1h-149.47z"/>
</clipPath>
<clipPath id="ad">
<path d="m139 139h63v138.43h-63z"/>
</clipPath>
<clipPath id="ac">
<path d="m200 139h53v138.43h-53z"/>
</clipPath>
<clipPath id="ab">
<path d="m0.52734 28h15.473v16h-15.473z"/>
</clipPath>
</defs>
<path transform="matrix(.1 0 0 -.1 .528 277.43)" d="m74.642 2342.4v-212.62" fill="none" stroke="#000" stroke-miterlimit="10" stroke-width="2.3625"/>
<path transform="matrix(.1 0 0 -.1 .528 277.43)" d="m216.36 2342.4h141.76v141.76h-141.76z" fill="none" stroke="#000" stroke-miterlimit="10" stroke-width="2.3625"/>
<path transform="matrix(.1 0 0 -.1 .528 277.43)" d="m287.26 2342.4v-212.62" fill="none" stroke="#000" stroke-miterlimit="10" stroke-width="2.3625"/>
<path transform="matrix(.1 0 0 -.1 .528 277.43)" d="m429.02 2342.4h141.72v141.76h-141.72z" fill="none" stroke="#000" stroke-miterlimit="10" stroke-width="2.3625"/>
<path transform="matrix(.1 0 0 -.1 .528 277.43)" d="m499.88 2342.4v-212.62" fill="none" stroke="#000" stroke-miterlimit="10" stroke-width="2.3625"/>
<path transform="matrix(.1 0 0 -.1 .528 277.43)" d="m641.63 2342.4h141.76v141.76h-141.76z" fill="none" stroke="#000" stroke-miterlimit="10" stroke-width="2.3625"/>
<path transform="matrix(.1 0 0 -.1 .528 277.43)" d="m712.49 2342.4v-212.62" fill="none" stroke="#000" stroke-miterlimit="10" stroke-width="2.3625"/>
<path transform="matrix(.1 0 0 -.1 .528 277.43)" d="m854.25 2342.4h141.76v141.76h-141.76z" fill="none" stroke="#000" stroke-miterlimit="10" stroke-width="2.3625"/>
<path transform="matrix(.1 0 0 -.1 .528 277.43)" d="m925.11 2342.4v-212.62" fill="none" stroke="#000" stroke-miterlimit="10" stroke-width="2.3625"/>
<path transform="matrix(.1 0 0 -.1 .528 277.43)" d="m1066.9 2342.4h141.76v141.76h-141.76z" fill="none" stroke="#000" stroke-miterlimit="10" stroke-width="2.3625"/>
<path transform="matrix(.1 0 0 -.1 .528 277.43)" d="m1137.8 2342.4v-212.62" fill="none" stroke="#000" stroke-miterlimit="10" stroke-width="2.3625"/>
<path transform="matrix(.1 0 0 -.1 .528 277.43)" d="m1421.2 2413.3c0-39.141-31.719-70.898-70.859-70.898s-70.898 31.758-70.898 70.898 31.758 70.859 70.898 70.859 70.859-31.719 70.859-70.859z" fill="none" stroke="#000" stroke-miterlimit="10" stroke-width="2.3625"/>
<g clip-path="url(#ak)">
<path transform="matrix(.1 0 0 -.1 .528 277.43)" d="m3.7434 2129.7h1488.4" fill="none" stroke="#000" stroke-miterlimit="10" stroke-width="2.3625"/>
</g>
<path transform="matrix(.1 0 0 -.1 .528 277.43)" d="m1350.4 2342.4v-212.62" fill="none" stroke="#000" stroke-miterlimit="10" stroke-width="2.3625"/>
<g clip-path="url(#aj)">
<path transform="matrix(.1 0 0 -.1 .528 277.43)" d="m3.7434 1775.4h141.76v141.76h-141.76z" fill="none" stroke="#000" stroke-miterlimit="10" stroke-width="2.3625"/>
</g>
<path transform="matrix(.1 0 0 -.1 .528 277.43)" d="m74.642 1775.4v-212.62" fill="none" stroke="#000" stroke-miterlimit="10" stroke-width="2.3625"/>
<path transform="matrix(.1 0 0 -.1 .528 277.43)" d="m216.36 1775.4h141.76v141.76h-141.76z" fill="none" stroke="#000" stroke-miterlimit="10" stroke-width="2.3625"/>
<path transform="matrix(.1 0 0 -.1 .528 277.43)" d="m287.26 1775.4v-212.62" fill="none" stroke="#000" stroke-miterlimit="10" stroke-width="2.3625"/>
<path transform="matrix(.1 0 0 -.1 .528 277.43)" d="m429.02 1775.4h141.72v141.76h-141.72z" fill="none" stroke="#000" stroke-miterlimit="10" stroke-width="2.3625"/>
<path transform="matrix(.1 0 0 -.1 .528 277.43)" d="m499.88 1775.4v-212.62" fill="none" stroke="#000" stroke-miterlimit="10" stroke-width="2.3625"/>
<path transform="matrix(.1 0 0 -.1 .528 277.43)" d="m641.63 1775.4h141.76v141.76h-141.76z" fill="none" stroke="#000" stroke-miterlimit="10" stroke-width="2.3625"/>
<path transform="matrix(.1 0 0 -.1 .528 277.43)" d="m712.49 1775.4v-212.62" fill="none" stroke="#000" stroke-miterlimit="10" stroke-width="2.3625"/>
<path transform="matrix(.1 0 0 -.1 .528 277.43)" d="m854.25 1775.4h141.76v141.76h-141.76z" fill="none" stroke="#000" stroke-miterlimit="10" stroke-width="2.3625"/>
<path transform="matrix(.1 0 0 -.1 .528 277.43)" d="m925.11 1775.4v-212.62" fill="none" stroke="#000" stroke-miterlimit="10" stroke-width="2.3625"/>
<path transform="matrix(.1 0 0 -.1 .528 277.43)" d="m1066.9 1775.4h141.76v141.76h-141.76z" fill="none" stroke="#000" stroke-miterlimit="10" stroke-width="2.3625"/>
<path transform="matrix(.1 0 0 -.1 .528 277.43)" d="m1137.8 1775.4v-212.62" fill="none" stroke="#000" stroke-miterlimit="10" stroke-width="2.3625"/>
<path transform="matrix(.1 0 0 -.1 .528 277.43)" d="m1421.2 1846.2c0-39.141-31.719-70.859-70.859-70.859s-70.898 31.719-70.898 70.859 31.758 70.898 70.898 70.898 70.859-31.758 70.859-70.898z" fill="none" stroke="#000" stroke-miterlimit="10" stroke-width="2.3625"/>
<g clip-path="url(#ai)">
<path transform="matrix(.1 0 0 -.1 .528 277.43)" d="m3.7434 1562.8h1488.4" fill="none" stroke="#000" stroke-miterlimit="10" stroke-width="2.3625"/>
</g>
<path transform="matrix(.1 0 0 -.1 .528 277.43)" d="m1350.4 1775.4v-212.62" fill="none" stroke="#000" stroke-miterlimit="10" stroke-width="2.3625"/>
<g clip-path="url(#ah)">
<path transform="matrix(.1 0 0 -.1 .528 277.43)" d="m3.7434 1208.4h141.76v141.76h-141.76z" fill="none" stroke="#000" stroke-miterlimit="10" stroke-width="2.3625"/>
</g>
<path transform="matrix(.1 0 0 -.1 .528 277.43)" d="m74.642 1208.4v-212.62" fill="none" stroke="#000" stroke-miterlimit="10" stroke-width="2.3625"/>
<path transform="matrix(.1 0 0 -.1 .528 277.43)" d="m216.36 1208.4h141.76v141.76h-141.76z" fill="none" stroke="#000" stroke-miterlimit="10" stroke-width="2.3625"/>
<path transform="matrix(.1 0 0 -.1 .528 277.43)" d="m287.26 1208.4v-212.62" fill="none" stroke="#000" stroke-miterlimit="10" stroke-width="2.3625"/>
<path transform="matrix(.1 0 0 -.1 .528 277.43)" d="m429.02 1208.4h141.72v141.76h-141.72z" fill="none" stroke="#000" stroke-miterlimit="10" stroke-width="2.3625"/>
<path transform="matrix(.1 0 0 -.1 .528 277.43)" d="m499.88 1208.4v-212.62" fill="none" stroke="#000" stroke-miterlimit="10" stroke-width="2.3625"/>
<path transform="matrix(.1 0 0 -.1 .528 277.43)" d="m641.63 1208.4h141.76v141.76h-141.76z" fill="none" stroke="#000" stroke-miterlimit="10" stroke-width="2.3625"/>
<path transform="matrix(.1 0 0 -.1 .528 277.43)" d="m712.49 1208.4v-212.62" fill="none" stroke="#000" stroke-miterlimit="10" stroke-width="2.3625"/>
<path transform="matrix(.1 0 0 -.1 .528 277.43)" d="m854.25 1208.4h141.76v141.76h-141.76z" fill="none" stroke="#000" stroke-miterlimit="10" stroke-width="2.3625"/>
<path transform="matrix(.1 0 0 -.1 .528 277.43)" d="m925.11 1208.4v-212.62" fill="none" stroke="#000" stroke-miterlimit="10" stroke-width="2.3625"/>
<path transform="matrix(.1 0 0 -.1 .528 277.43)" d="m1066.9 1208.4h141.76v141.76h-141.76z" fill="none" stroke="#000" stroke-miterlimit="10" stroke-width="2.3625"/>
<path transform="matrix(.1 0 0 -.1 .528 277.43)" d="m1137.8 1208.4v-212.62" fill="none" stroke="#000" stroke-miterlimit="10" stroke-width="2.3625"/>
<path transform="matrix(.1 0 0 -.1 .528 277.43)" d="m1421.2 1279.2c0-39.141-31.719-70.859-70.859-70.859s-70.898 31.719-70.898 70.859 31.758 70.898 70.898 70.898 70.859-31.758 70.859-70.898z" fill="none" stroke="#000" stroke-miterlimit="10" stroke-width="2.3625"/>
<g clip-path="url(#ag)">
<path transform="matrix(.1 0 0 -.1 .528 277.43)" d="m3.7434 995.76h1488.4" fill="none" stroke="#000" stroke-miterlimit="10" stroke-width="2.3625"/>
</g>
<path transform="matrix(.1 0 0 -.1 .528 277.43)" d="m1350.4 1208.4v-212.62" fill="none" stroke="#000" stroke-miterlimit="10" stroke-width="2.3625"/>
<g clip-path="url(#af)">
<path transform="matrix(.1 0 0 -.1 .528 277.43)" d="m3.7434 570.49h141.76v141.76h-141.76z" fill="none" stroke="#000" stroke-miterlimit="10" stroke-width="2.3625"/>
</g>
<path transform="matrix(.1 0 0 -.1 .528 277.43)" d="m74.642 570.49v-212.62" fill="none" stroke="#000" stroke-miterlimit="10" stroke-width="2.3625"/>
<path transform="matrix(.1 0 0 -.1 .528 277.43)" d="m216.36 570.49h141.76v141.76h-141.76z" fill="none" stroke="#000" stroke-miterlimit="10" stroke-width="2.3625"/>
<path transform="matrix(.1 0 0 -.1 .528 277.43)" d="m287.26 570.49v-212.62" fill="none" stroke="#000" stroke-miterlimit="10" stroke-width="2.3625"/>
<path transform="matrix(.1 0 0 -.1 .528 277.43)" d="m429.02 570.49h141.72v141.76h-141.72z" fill="none" stroke="#000" stroke-miterlimit="10" stroke-width="2.3625"/>
<path transform="matrix(.1 0 0 -.1 .528 277.43)" d="m499.88 570.49v-212.62" fill="none" stroke="#000" stroke-miterlimit="10" stroke-width="2.3625"/>
<path transform="matrix(.1 0 0 -.1 .528 277.43)" d="m641.63 570.49h141.76v141.76h-141.76z" fill="none" stroke="#000" stroke-miterlimit="10" stroke-width="2.3625"/>
<path transform="matrix(.1 0 0 -.1 .528 277.43)" d="m712.49 570.49v-212.62" fill="none" stroke="#000" stroke-miterlimit="10" stroke-width="2.3625"/>
<path transform="matrix(.1 0 0 -.1 .528 277.43)" d="m854.25 570.49h141.76v141.76h-141.76z" fill="none" stroke="#000" stroke-miterlimit="10" stroke-width="2.3625"/>
<path transform="matrix(.1 0 0 -.1 .528 277.43)" d="m925.11 570.49v-212.62" fill="none" stroke="#000" stroke-miterlimit="10" stroke-width="2.3625"/>
<path transform="matrix(.1 0 0 -.1 .528 277.43)" d="m1066.9 570.49h141.76v141.76h-141.76z" fill="none" stroke="#000" stroke-miterlimit="10" stroke-width="2.3625"/>
<path transform="matrix(.1 0 0 -.1 .528 277.43)" d="m1137.8 570.49v-212.62" fill="none" stroke="#000" stroke-miterlimit="10" stroke-width="2.3625"/>
<path transform="matrix(.1 0 0 -.1 .528 277.43)" d="m1421.2 641.39c0-39.141-31.719-70.898-70.859-70.898s-70.898 31.758-70.898 70.898 31.758 70.859 70.898 70.859 70.859-31.719 70.859-70.859z" fill="none" stroke="#000" stroke-miterlimit="10" stroke-width="2.3625"/>
<g clip-path="url(#ae)">
<path transform="matrix(.1 0 0 -.1 .528 277.43)" d="m3.7434 357.87h1488.4" fill="none" stroke="#000" stroke-miterlimit="10" stroke-width="2.3625"/>
</g>
<path transform="matrix(.1 0 0 -.1 .528 277.43)" d="m1350.4 570.49v-212.62" fill="none" stroke="#000" stroke-miterlimit="10" stroke-width="2.3625"/>
<path transform="matrix(.1 0 0 -.1 .528 277.43)" d="m2697 2342.4h141.76v141.76h-141.76z" fill="none" stroke="#000" stroke-miterlimit="10" stroke-width="2.3625"/>
<path transform="matrix(.1 0 0 -.1 .528 277.43)" d="m2767.9 2342.4v-212.62" fill="none" stroke="#000" stroke-miterlimit="10" stroke-width="2.3625"/>
<path transform="matrix(.1 0 0 -.1 .528 277.43)" d="m2909.6 2342.4h141.76v141.76h-141.76z" fill="none" stroke="#000" stroke-miterlimit="10" stroke-width="2.3625"/>
<path transform="matrix(.1 0 0 -.1 .528 277.43)" d="m2980.5 2342.4v-212.62" fill="none" stroke="#000" stroke-miterlimit="10" stroke-width="2.3625"/>
<path transform="matrix(.1 0 0 -.1 .528 277.43)" d="m3122.3 2342.4h141.76v141.76h-141.76z" fill="none" stroke="#000" stroke-miterlimit="10" stroke-width="2.3625"/>
<path transform="matrix(.1 0 0 -.1 .528 277.43)" d="m3193.1 2342.4v-212.62" fill="none" stroke="#000" stroke-miterlimit="10" stroke-width="2.3625"/>
<path transform="matrix(.1 0 0 -.1 .528 277.43)" d="m3334.9 2342.4h141.76v141.76h-141.76z" fill="none" stroke="#000" stroke-miterlimit="10" stroke-width="2.3625"/>
<path transform="matrix(.1 0 0 -.1 .528 277.43)" d="m3405.7 2342.4v-212.62" fill="none" stroke="#000" stroke-miterlimit="10" stroke-width="2.3625"/>
<path transform="matrix(.1 0 0 -.1 .528 277.43)" d="m3547.5 2342.4h141.76v141.76h-141.76z" fill="none" stroke="#000" stroke-miterlimit="10" stroke-width="2.3625"/>
<path transform="matrix(.1 0 0 -.1 .528 277.43)" d="m3618.4 2342.4v-212.62" fill="none" stroke="#000" stroke-miterlimit="10" stroke-width="2.3625"/>
<path transform="matrix(.1 0 0 -.1 .528 277.43)" d="m2697 1775.4h141.76v141.76h-141.76z" fill="none" stroke="#000" stroke-miterlimit="10" stroke-width="2.3625"/>
<path transform="matrix(.1 0 0 -.1 .528 277.43)" d="m2767.9 1775.4v-212.62" fill="none" stroke="#000" stroke-miterlimit="10" stroke-width="2.3625"/>
<path transform="matrix(.1 0 0 -.1 .528 277.43)" d="m2909.6 1775.4h141.76v141.76h-141.76z" fill="none" stroke="#000" stroke-miterlimit="10" stroke-width="2.3625"/>
<path transform="matrix(.1 0 0 -.1 .528 277.43)" d="m2980.5 1775.4v-212.62" fill="none" stroke="#000" stroke-miterlimit="10" stroke-width="2.3625"/>
<path transform="matrix(.1 0 0 -.1 .528 277.43)" d="m3122.3 1775.4h141.76v141.76h-141.76z" fill="none" stroke="#000" stroke-miterlimit="10" stroke-width="2.3625"/>
<path transform="matrix(.1 0 0 -.1 .528 277.43)" d="m3193.1 1775.4v-212.62" fill="none" stroke="#000" stroke-miterlimit="10" stroke-width="2.3625"/>
<path transform="matrix(.1 0 0 -.1 .528 277.43)" d="m3334.9 1775.4h141.76v141.76h-141.76z" fill="none" stroke="#000" stroke-miterlimit="10" stroke-width="2.3625"/>
<path transform="matrix(.1 0 0 -.1 .528 277.43)" d="m3405.7 1775.4v-212.62" fill="none" stroke="#000" stroke-miterlimit="10" stroke-width="2.3625"/>
<path transform="matrix(.1 0 0 -.1 .528 277.43)" d="m3547.5 1775.4h141.76v141.76h-141.76z" fill="none" stroke="#000" stroke-miterlimit="10" stroke-width="2.3625"/>
<path transform="matrix(.1 0 0 -.1 .528 277.43)" d="m3618.4 1775.4v-212.62" fill="none" stroke="#000" stroke-miterlimit="10" stroke-width="2.3625"/>
<path transform="matrix(.1 0 0 -.1 .528 277.43)" d="m2697 1208.4h141.76v141.76h-141.76z" fill="none" stroke="#000" stroke-miterlimit="10" stroke-width="2.3625"/>
<path transform="matrix(.1 0 0 -.1 .528 277.43)" d="m2767.9 1208.4v-212.62" fill="none" stroke="#000" stroke-miterlimit="10" stroke-width="2.3625"/>
<path transform="matrix(.1 0 0 -.1 .528 277.43)" d="m2909.6 1208.4h141.76v141.76h-141.76z" fill="none" stroke="#000" stroke-miterlimit="10" stroke-width="2.3625"/>
<path transform="matrix(.1 0 0 -.1 .528 277.43)" d="m2980.5 1208.4v-212.62" fill="none" stroke="#000" stroke-miterlimit="10" stroke-width="2.3625"/>
<path transform="matrix(.1 0 0 -.1 .528 277.43)" d="m3122.3 1208.4h141.76v141.76h-141.76z" fill="none" stroke="#000" stroke-miterlimit="10" stroke-width="2.3625"/>
<path transform="matrix(.1 0 0 -.1 .528 277.43)" d="m3193.1 1208.4v-212.62" fill="none" stroke="#000" stroke-miterlimit="10" stroke-width="2.3625"/>
<path transform="matrix(.1 0 0 -.1 .528 277.43)" d="m3334.9 1208.4h141.76v141.76h-141.76z" fill="none" stroke="#000" stroke-miterlimit="10" stroke-width="2.3625"/>
<path transform="matrix(.1 0 0 -.1 .528 277.43)" d="m3405.7 1208.4v-212.62" fill="none" stroke="#000" stroke-miterlimit="10" stroke-width="2.3625"/>
<path transform="matrix(.1 0 0 -.1 .528 277.43)" d="m3547.5 1208.4h141.76v141.76h-141.76z" fill="none" stroke="#000" stroke-miterlimit="10" stroke-width="2.3625"/>
<path transform="matrix(.1 0 0 -.1 .528 277.43)" d="m3618.4 1208.4v-212.62" fill="none" stroke="#000" stroke-miterlimit="10" stroke-width="2.3625"/>
<path transform="matrix(.1 0 0 -.1 .528 277.43)" d="m2697 570.49h141.76v141.76h-141.76z" fill="none" stroke="#000" stroke-miterlimit="10" stroke-width="2.3625"/>
<path transform="matrix(.1 0 0 -.1 .528 277.43)" d="m2767.9 570.49v-212.62" fill="none" stroke="#000" stroke-miterlimit="10" stroke-width="2.3625"/>
<path transform="matrix(.1 0 0 -.1 .528 277.43)" d="m2909.6 570.49h141.76v141.76h-141.76z" fill="none" stroke="#000" stroke-miterlimit="10" stroke-width="2.3625"/>
<path transform="matrix(.1 0 0 -.1 .528 277.43)" d="m2980.5 570.49v-212.62" fill="none" stroke="#000" stroke-miterlimit="10" stroke-width="2.3625"/>
<path transform="matrix(.1 0 0 -.1 .528 277.43)" d="m3122.3 570.49h141.76v141.76h-141.76z" fill="none" stroke="#000" stroke-miterlimit="10" stroke-width="2.3625"/>
<path transform="matrix(.1 0 0 -.1 .528 277.43)" d="m3193.1 570.49v-212.62" fill="none" stroke="#000" stroke-miterlimit="10" stroke-width="2.3625"/>
<path transform="matrix(.1 0 0 -.1 .528 277.43)" d="m3334.9 570.49h141.76v141.76h-141.76z" fill="none" stroke="#000" stroke-miterlimit="10" stroke-width="2.3625"/>
<path transform="matrix(.1 0 0 -.1 .528 277.43)" d="m3405.7 570.49v-212.62" fill="none" stroke="#000" stroke-miterlimit="10" stroke-width="2.3625"/>
<path transform="matrix(.1 0 0 -.1 .528 277.43)" d="m3547.5 570.49h141.76v141.76h-141.76z" fill="none" stroke="#000" stroke-miterlimit="10" stroke-width="2.3625"/>
<path transform="matrix(.1 0 0 -.1 .528 277.43)" d="m3618.4 570.49v-212.62" fill="none" stroke="#000" stroke-miterlimit="10" stroke-width="2.3625"/>
<path transform="matrix(.1 0 0 -.1 .528 277.43)" d="m2626.1 2413.3c0-39.141-31.719-70.898-70.859-70.898s-70.898 31.758-70.898 70.898 31.758 70.859 70.898 70.859 70.859-31.719 70.859-70.859z" fill="none" stroke="#000" stroke-miterlimit="10" stroke-width="2.3625"/>
<path transform="matrix(.1 0 0 -.1 .528 277.43)" d="m2626.1 1846.2c0-39.141-31.719-70.859-70.859-70.859s-70.898 31.719-70.898 70.859 31.758 70.898 70.898 70.898 70.859-31.758 70.859-70.898z" fill="none" stroke="#000" stroke-miterlimit="10" stroke-width="2.3625"/>
<path transform="matrix(.1 0 0 -.1 .528 277.43)" d="m2626.1 1279.2c0-39.141-31.719-70.859-70.859-70.859s-70.898 31.719-70.898 70.859 31.758 70.898 70.898 70.898 70.859-31.758 70.859-70.898z" fill="none" stroke="#000" stroke-miterlimit="10" stroke-width="2.3625"/>
<path transform="matrix(.1 0 0 -.1 .528 277.43)" d="m2626.1 641.39c0-39.141-31.719-70.898-70.859-70.898s-70.898 31.758-70.898 70.898 31.758 70.859 70.898 70.859 70.859-31.719 70.859-70.859z" fill="none" stroke="#000" stroke-miterlimit="10" stroke-width="2.3625"/>
<path transform="matrix(.1 0 0 -.1 .528 277.43)" d="m2200.9 1562.8c0-117.42-95.195-212.62-212.66-212.62-117.42 0-212.62 95.195-212.62 212.62s95.195 212.62 212.62 212.62c117.46 0 212.66-95.195 212.66-212.62z" fill="none" stroke="#000" stroke-miterlimit="10" stroke-width="9.45"/>
<path transform="matrix(.1 0 0 -.1 .528 277.43)" d="m3831 2342.4v-212.62" fill="none" stroke="#000" stroke-miterlimit="10" stroke-width="2.3625"/>
<path transform="matrix(.1 0 0 -.1 .528 277.43)" d="m1421.2 2413.3 513.16-642.62" fill="none" stroke="#000" stroke-miterlimit="10" stroke-width="2.3625"/>
<path transform="matrix(.1 0 0 -.1 .528 277.43)" d="m2484.4 2413.3-417.7-647.34" fill="none" stroke="#000" stroke-miterlimit="10" stroke-width="2.3625"/>
<path transform="matrix(.1 0 0 -.1 .528 277.43)" d="m1421.2 1846.2 404.45-141.72" fill="none" stroke="#000" stroke-miterlimit="10" stroke-width="2.3625"/>
<path transform="matrix(.1 0 0 -.1 .528 277.43)" d="m2484.4 1846.2-332.66-146.45v4.7266" fill="none" stroke="#000" stroke-miterlimit="10" stroke-width="2.3625"/>
<path transform="matrix(.1 0 0 -.1 .528 277.43)" d="m1421.2 1279.2 354.38 283.52" fill="none" stroke="#000" stroke-miterlimit="10" stroke-width="2.3625"/>
<path transform="matrix(.1 0 0 -.1 .528 277.43)" d="m2484.4 1279.2-283.48 283.52" fill="none" stroke="#000" stroke-miterlimit="10" stroke-width="2.3625"/>
<path transform="matrix(.1 0 0 -.1 .528 277.43)" d="m1421.2 641.39 489.53 722.93" fill="none" stroke="#000" stroke-miterlimit="10" stroke-width="2.3625"/>
<path transform="matrix(.1 0 0 -.1 .528 277.43)" d="m2484.4 641.39-408.24 727.62" fill="none" stroke="#000" stroke-miterlimit="10" stroke-width="2.3625"/>
<g clip-path="url(#ad)">
<path transform="matrix(.1 0 0 -.1 .528 277.43)" d="m1972.2 1345.4-550.94-1341.9" fill="none" stroke="#000" stroke-miterlimit="10" stroke-width="2.3625"/>
</g>
<g clip-path="url(#ac)">
<path transform="matrix(.1 0 0 -.1 .528 277.43)" d="m2028.9 1350.1 455.47-1346.6" fill="none" stroke="#000" stroke-miterlimit="10" stroke-width="2.3625"/>
</g>
<path transform="matrix(.1 0 0 -.1 .528 277.43)" d="m1988.2 1775.4-566.99 992.27" fill="none" stroke="#000" stroke-miterlimit="10" stroke-width="2.3625"/>
<path transform="matrix(.1 0 0 -.1 .528 277.43)" d="m2019.4 1775.4 464.92 992.27" fill="none" stroke="#000" stroke-miterlimit="10" stroke-width="2.3625"/>
<path transform="matrix(.1 0 0 -.1 .528 277.43)" d="m2484.4 2129.7h1488.4" fill="none" stroke="#000" stroke-miterlimit="10" stroke-width="2.3625"/>
<path transform="matrix(.1 0 0 -.1 .528 277.43)" d="m3760.1 2342.4h141.76v141.76h-141.76z" fill="none" stroke="#000" stroke-miterlimit="10" stroke-width="2.3625"/>
<path transform="matrix(.1 0 0 -.1 .528 277.43)" d="m2555.3 2342.4v-212.62" fill="none" stroke="#000" stroke-miterlimit="10" stroke-width="2.3625"/>
<path transform="matrix(.1 0 0 -.1 .528 277.43)" d="m2484.4 1562.8h1488.4" fill="none" stroke="#000" stroke-miterlimit="10" stroke-width="2.3625"/>
<path transform="matrix(.1 0 0 -.1 .528 277.43)" d="m3760.1 1775.4h141.76v141.76h-141.76z" fill="none" stroke="#000" stroke-miterlimit="10" stroke-width="2.3625"/>
<path transform="matrix(.1 0 0 -.1 .528 277.43)" d="m2555.3 1775.4v-212.62" fill="none" stroke="#000" stroke-miterlimit="10" stroke-width="2.3625"/>
<path transform="matrix(.1 0 0 -.1 .528 277.43)" d="m2484.4 995.76h1488.4" fill="none" stroke="#000" stroke-miterlimit="10" stroke-width="2.3625"/>
<path transform="matrix(.1 0 0 -.1 .528 277.43)" d="m3760.1 1208.4h141.76v141.76h-141.76z" fill="none" stroke="#000" stroke-miterlimit="10" stroke-width="2.3625"/>
<path transform="matrix(.1 0 0 -.1 .528 277.43)" d="m2555.3 1208.4v-212.62" fill="none" stroke="#000" stroke-miterlimit="10" stroke-width="2.3625"/>
<path transform="matrix(.1 0 0 -.1 .528 277.43)" d="m2484.4 357.87h1488.4" fill="none" stroke="#000" stroke-miterlimit="10" stroke-width="2.3625"/>
<path transform="matrix(.1 0 0 -.1 .528 277.43)" d="m3760.1 570.49h141.76v141.76h-141.76z" fill="none" stroke="#000" stroke-miterlimit="10" stroke-width="2.3625"/>
<path transform="matrix(.1 0 0 -.1 .528 277.43)" d="m2555.3 570.49v-212.62" fill="none" stroke="#000" stroke-miterlimit="10" stroke-width="2.3625"/>
<g clip-path="url(#ab)">
<path transform="matrix(.1 0 0 -.1 .528 277.43)" d="m3.7434 2342.4h141.76v141.76h-141.76z" fill="none" stroke="#000" stroke-miterlimit="10" stroke-width="2.3625"/>
</g>
<g>
<use x="321.242" y="197.675" xlink:href="#k"/>
<use x="327.001" y="198.044" xlink:href="#x"/>
<use x="327.001" y="197.675" xlink:href="#d"/>
<use x="331.235514" y="197.675" xlink:href="#t"/>
<use x="335.940264" y="197.675" xlink:href="#d"/>
<use x="340.174778" y="197.675" xlink:href="#l"/>
<use x="344.409292" y="197.675" xlink:href="#e"/>
<use x="348.643807" y="197.675" xlink:href="#l"/>
<use x="352.878321" y="197.675" xlink:href="#b"/>
<use x="355.230297" y="197.675" xlink:href="#c"/>
<use x="187.705" y="119.717" xlink:href="#s"/>
<use x="194.047606" y="119.717" xlink:href="#d"/>
<use x="198.28212" y="119.717" xlink:href="#i"/>
<use x="202.98687" y="119.717" xlink:href="#aa"/>
<use x="207.69162" y="119.717" xlink:href="#a"/>
<use x="188.046" y="128.221" xlink:href="#f"/>
<use x="191.346418" y="128.221" xlink:href="#e"/>
<use x="195.580933" y="128.221" xlink:href="#i"/>
<use x="200.285683" y="128.221" xlink:href="#a"/>
<use x="203.578928" y="128.221" xlink:href="#g"/>
<use x="207.342409" y="128.221" xlink:href="#f"/>
<use x="122.798" y="24.75" xlink:href="#z"/>
<use x="129.02743" y="24.75" xlink:href="#e"/>
<use x="133.261944" y="24.75" xlink:href="#i"/>
<use x="137.966694" y="24.75" xlink:href="#a"/>
<use x="141.25994" y="24.75" xlink:href="#g"/>
<use x="145.023421" y="24.75" xlink:href="#f"/>
<use x="26.621" y="21.915" xlink:href="#r"/>
<use x="34.37511" y="21.915" xlink:href="#d"/>
<use x="38.609624" y="21.915" xlink:href="#a"/>
<use x="41.90287" y="21.915" xlink:href="#h"/>
<use x="46.60762" y="21.915" xlink:href="#g"/>
<use x="50.371101" y="21.915" xlink:href="#q"/>
<use x="57.427828" y="21.915" xlink:href="#d"/>
<use x="61.662342" y="21.915" xlink:href="#a"/>
<use x="64.955587" y="21.915" xlink:href="#b"/>
<use x="67.307563" y="21.915" xlink:href="#c"/>
<use x="45.5" y="78.612" xlink:href="#k"/>
<use x="51.259194" y="78.612" xlink:href="#h"/>
<use x="55.724841" y="78.612" xlink:href="#y"/>
<use x="60.194473" y="78.612" xlink:href="#j"/>
<use x="63.534742" y="78.612" xlink:href="#b"/>
<use x="65.886719" y="78.612" xlink:href="#c"/>
<use x="47.739" y="135.308" xlink:href="#r"/>
<use x="55.49311" y="135.308" xlink:href="#i"/>
<use x="60.19786" y="135.308" xlink:href="#j"/>
<use x="63.538129" y="135.308" xlink:href="#b"/>
<use x="65.890106" y="135.308" xlink:href="#c"/>
<use x="32.495" y="199.092" xlink:href="#w"/>
<use x="35.54436" y="199.092" xlink:href="#p"/>
<use x="40.24911" y="199.092" xlink:href="#o"/>
<use x="42.837002" y="199.092" xlink:href="#e"/>
<use x="47.071516" y="199.092" xlink:href="#f"/>
<use x="50.371934" y="199.092" xlink:href="#q"/>
<use x="57.428661" y="199.092" xlink:href="#d"/>
<use x="61.663175" y="199.092" xlink:href="#a"/>
<use x="64.95642" y="199.092" xlink:href="#b"/>
<use x="67.308397" y="199.092" xlink:href="#c"/>
<use x="319.825" y="21.915" xlink:href="#v"/>
<use x="325.584194" y="21.915" xlink:href="#n"/>
<use x="327.936171" y="21.915" xlink:href="#g"/>
<use x="331.699652" y="21.915" xlink:href="#c"/>
<use x="336.169284" y="21.915" xlink:href="#a"/>
<use x="339.462529" y="21.915" xlink:href="#f"/>
<use x="342.762948" y="21.915" xlink:href="#e"/>
<use x="346.997462" y="21.915" xlink:href="#a"/>
<use x="350.290707" y="21.915" xlink:href="#g"/>
<use x="354.054188" y="21.915" xlink:href="#m"/>
<use x="357.578567" y="21.915" xlink:href="#h"/>
<use x="362.283317" y="21.915" xlink:href="#p"/>
<use x="366.988067" y="21.915" xlink:href="#b"/>
<use x="369.340043" y="21.915" xlink:href="#c"/>
<use x="319.825" y="78.612" xlink:href="#u"/>
<use x="328.520379" y="78.612" xlink:href="#b"/>
<use x="330.872356" y="78.612" xlink:href="#f"/>
<use x="334.172774" y="78.612" xlink:href="#a"/>
<use x="337.466019" y="78.612" xlink:href="#j"/>
<use x="340.806288" y="78.612" xlink:href="#m"/>
<use x="344.330666" y="78.612" xlink:href="#h"/>
<use x="349.035416" y="78.612" xlink:href="#d"/>
<use x="353.269931" y="78.612" xlink:href="#o"/>
<use x="355.857822" y="78.612" xlink:href="#a"/>
<use x="319.825" y="133.891" xlink:href="#k"/>
<use x="325.345091" y="133.891" xlink:href="#e"/>
<use x="329.579605" y="133.891" xlink:href="#n"/>
<use x="331.931582" y="133.891" xlink:href="#b"/>
<use x="334.283558" y="133.891" xlink:href="#a"/>
<use x="337.576804" y="133.891" xlink:href="#b"/>
<use x="339.93675" y="133.891" xlink:href="#c"/>
</g>
</svg>
