<svg width="469pt" height="86pt" version="1.1" viewBox="0 0 469 86" xmlns="http://www.w3.org/2000/svg" xmlns:xlink="http://www.w3.org/1999/xlink">
<defs>
<g id="d">
<path d="m1.0781-14.109v0.53125c1.4219 0 1.6562 0 1.6562 0.9375v11.172c0 0.9375-0.23438 0.9375-1.6562 0.9375v0.53125h7.1094c2.6406 0 4.3438-1.875 4.3438-3.7656 0-1.8594-1.6875-3.4375-3.8906-3.5938 1.9844-0.39062 3.3594-1.7031 3.3594-3.2812 0-1.7188-1.6875-3.4688-4.3594-3.4688zm2.9531 6.6094v-5.2656c0-0.70312 0.03125-0.8125 0.85938-0.8125h2.6562c2.0312 0 2.9531 1.6562 2.9531 2.9375 0 1.5781-1.2656 3.1406-3.5 3.1406zm0.85938 6.9688c-0.82812 0-0.85938-0.10938-0.85938-0.8125v-5.8281h3.8125c2.1406 0 3.1719 1.8906 3.1719 3.3906 0 1.5156-1.1875 3.25-3.4375 3.25z"/>
</g>
<g id="c">
<path d="m3.2031-12.719c0-0.45312-0.375-0.85938-0.84375-0.85938-0.45312 0-0.84375 0.375-0.84375 0.85938 0 0.45312 0.35938 0.84375 0.84375 0.84375 0.45312 0 0.84375-0.375 0.84375-0.84375zm-2.4219 3.9062v0.53125c1.1562 0 1.3281 0.125 1.3281 1.1094v5.75c0 0.78125-0.078125 0.89062-1.4062 0.89062v0.53125c0.5-0.046875 1.3906-0.046875 1.9062-0.046875 0.48438 0 1.3438 0 1.8125 0.046875v-0.53125c-1.2188 0-1.2656-0.125-1.2656-0.875v-7.6406z"/>
</g>
<g id="b">
<path d="m3.125-8.3438h2.8906v-0.53125h-2.8906v-3.8281h-0.375c-0.046875 2.125-0.76562 3.9844-2.5156 4.0312v0.32812h1.7969v5.7969c0 0.40625 0 2.7188 2.3906 2.7188 1.2188 0 1.9219-1.2031 1.9219-2.7344v-1.1719h-0.375v1.1562c0 1.4219-0.5625 2.375-1.4219 2.375-0.59375 0-1.4219-0.42188-1.4219-2.2969z"/>
</g>
<g id="f">
<path d="m3.4219-8.0312c0-0.51562-0.40625-0.84375-0.84375-0.84375-0.40625 0-0.84375 0.32812-0.84375 0.84375s0.40625 0.84375 0.84375 0.84375c0.42188 0 0.84375-0.32812 0.84375-0.84375zm0 7.1875c0-0.51562-0.40625-0.84375-0.84375-0.84375-0.40625 0-0.84375 0.32812-0.84375 0.84375s0.40625 0.84375 0.84375 0.84375c0.42188 0 0.84375-0.32812 0.84375-0.84375z"/>
</g>
<g id="s">
<path d="m7.4531-8.4062c0.17188-0.20312 0.17188-0.25 0.17188-0.29688 0-0.17188-0.078125-0.17188-0.45312-0.17188h-6.2812l-0.20312 3.1875h0.35938c0.15625-2 0.375-2.8594 2.75-2.8594h2.5312l-5.9219 8.2344c0 0.29688 0.03125 0.3125 0.46875 0.3125h6.5156l0.29688-3.7188h-0.375c-0.17188 2.2969-0.4375 3.3438-2.9531 3.3438h-2.6406z"/>
</g>
<g id="r">
<path d="m6.0781-8.8125v0.53125c1.2188 0 1.4062 0.125 1.4062 1.1094v3.7656c0 1.7344-0.9375 3.2344-2.4688 3.2344-1.6875 0-1.8281-1-1.8281-2.0781v-6.7969l-2.5 0.23438v0.53125c0.82812 0 1.375 0 1.4062 0.82812v3.9688c0 1.375 0 2.2656 0.53125 2.8438 0.26562 0.26562 0.78125 0.8125 2.2656 0.8125 1.7656 0 2.4375-1.5 2.6094-1.9219h0.015625v1.9219l2.4688-0.17188v-0.53125c-1.2188 0-1.4062-0.125-1.4062-1.125v-7.3906z"/>
</g>
<g id="q">
<path d="m6.375-8.7188c0-0.375-0.015625-0.39062-0.14062-0.39062-0.078125 0-0.09375 0.015625-0.34375 0.32812-0.0625 0.078125-0.25 0.29688-0.3125 0.375-0.65625-0.70312-1.5938-0.71875-1.9375-0.71875-2.2969 0-3.125 1.1875-3.125 2.3906 0 1.8594 2.1094 2.2969 2.7031 2.4219 1.3125 0.26562 1.7656 0.34375 2.1875 0.71875 0.28125 0.25 0.73438 0.70312 0.73438 1.4531 0 0.85938-0.5 1.9688-2.4062 1.9688-1.7969 0-2.4375-1.3594-2.8125-3.1719-0.046875-0.29688-0.046875-0.3125-0.21875-0.3125s-0.1875 0.015625-0.1875 0.4375v2.9688c0 0.375 0.015625 0.39062 0.14062 0.39062 0.10938 0 0.125-0.015625 0.23438-0.1875 0.125-0.1875 0.4375-0.67188 0.5625-0.875 0.40625 0.54688 1.125 1.0938 2.2812 1.0938 2.0469 0 3.1406-1.125 3.1406-2.7344 0-1.0469-0.54688-1.6094-0.82812-1.8594-0.60938-0.64062-1.3438-0.78125-2.2031-0.95312-1.1406-0.25-2.5781-0.53125-2.5781-1.7969 0-0.53125 0.28125-1.6719 2.375-1.6719 2.2031 0 2.3281 2.0625 2.375 2.7344 0.015625 0.09375 0.125 0.125 0.1875 0.125 0.17188 0 0.17188-0.0625 0.17188-0.42188z"/>
</g>
<g id="a">
<path d="m7.875-4.8594c0.078125-0.078125 0.078125-0.125 0.078125-0.32812 0-2.1094-1.1094-3.9375-3.4688-3.9375-2.1875 0-3.9219 2.0781-3.9219 4.625 0 2.6875 1.9531 4.6719 4.1406 4.6719 2.3125 0 3.2344-2.2031 3.2344-2.625 0-0.15625-0.125-0.15625-0.17188-0.15625-0.14062 0-0.17188 0.046875-0.25 0.29688-0.45312 1.4062-1.5938 2.1094-2.6562 2.1094-0.89062 0-1.7812-0.5-2.3438-1.4062-0.64062-1.0625-0.64062-2.2812-0.64062-3.25zm-5.9688-0.3125c0.14062-2.9688 1.7344-3.625 2.5625-3.625 1.3906 0 2.3438 1.3125 2.375 3.625z"/>
</g>
<g id="e">
<path d="m8.5781-6.2812c0-1.0469-0.21875-2.7656-2.6562-2.7656-1.625 0-2.4688 1.2656-2.7812 2.0781h-0.015625v-2.0781l-2.4375 0.23438v0.53125c1.2188 0 1.4062 0.125 1.4062 1.1094v5.75c0 0.78125-0.09375 0.89062-1.4062 0.89062v0.53125c0.48438-0.046875 1.4062-0.046875 1.9375-0.046875s1.4688 0 1.9531 0.046875v-0.53125c-1.3125 0-1.3906-0.09375-1.3906-0.89062v-3.9688c0-1.9062 1.1562-3.3281 2.5938-3.3281 1.5312 0 1.7031 1.3594 1.7031 2.3594v4.9375c0 0.78125-0.09375 0.89062-1.4062 0.89062v0.53125c0.48438-0.046875 1.4062-0.046875 1.9375-0.046875s1.4688 0 1.9688 0.046875v-0.53125c-1.3281 0-1.4062-0.09375-1.4062-0.89062z"/>
</g>
<g id="l">
<path d="m6.0312-14.109v0.53125c1.2188 0 1.4062 0.125 1.4062 1.125v4.8281c-0.078125-0.09375-0.9375-1.4219-2.6094-1.4219-2.0938 0-4.1406 1.875-4.1406 4.6094 0 2.7031 1.9219 4.6094 3.9375 4.6094 1.75 0 2.6719-1.375 2.7656-1.5156v1.5156l2.5-0.17188v-0.53125c-1.2188 0-1.4062-0.125-1.4062-1.125v-12.672zm1.3594 11.625c0 0.625-0.375 1.1875-0.84375 1.5938-0.70312 0.625-1.4062 0.71875-1.7969 0.71875-0.59375 0-2.75-0.29688-2.75-4.25 0-4.0469 2.4062-4.2969 2.9375-4.2969 0.95312 0 1.7188 0.53125 2.1875 1.2812 0.26562 0.4375 0.26562 0.5 0.26562 0.875z"/>
</g>
<g id="k">
<path d="m3.1562-8.3438h2.3594v-0.53125h-2.3906v-2.5c0-1.7188 0.85938-2.7969 1.75-2.7969 0.26562 0 0.57812 0.078125 0.78125 0.23438-0.15625 0.03125-0.59375 0.1875-0.59375 0.70312 0 0.53125 0.40625 0.70312 0.70312 0.70312 0.28125 0 0.70312-0.17188 0.70312-0.70312 0-0.79688-0.75-1.2656-1.5781-1.2656-1.1719 0-2.7812 0.96875-2.7812 3.1562v2.4688h-1.6562v0.53125h1.6562v6.9219c0 0.78125-0.078125 0.89062-1.4062 0.89062v0.53125c0.5-0.046875 1.4375-0.046875 1.9844-0.046875 0.59375 0 1.6562 0 2.2031 0.046875v-0.53125c-1.4844 0-1.7344 0-1.7344-0.9375z"/>
</g>
<g id="j">
<path d="m8.9062-4.4219c0-2.6406-1.9219-4.7031-4.1719-4.7031s-4.1719 2.0625-4.1719 4.7031c0 2.6094 1.9219 4.5938 4.1719 4.5938s4.1719-1.9844 4.1719-4.5938zm-4.1719 4.2188c-0.96875 0-1.7969-0.57812-2.2812-1.3906-0.51562-0.92188-0.57812-2.0781-0.57812-2.9844 0-0.875 0.046875-1.9531 0.57812-2.875 0.42188-0.6875 1.2188-1.3438 2.2812-1.3438 0.92188 0 1.7031 0.51562 2.2031 1.2344 0.64062 0.96875 0.64062 2.3438 0.64062 2.9844 0 0.79688-0.03125 2.0312-0.59375 3.0312-0.57812 0.95312-1.4688 1.3438-2.25 1.3438z"/>
</g>
<g id="i">
<path d="m3.1562-14.328-2.4531 0.21875v0.53125c1.2188 0 1.4062 0.125 1.4062 1.125v11.031c0 0.78125-0.078125 0.89062-1.4062 0.89062v0.53125c0.5-0.046875 1.4062-0.046875 1.9219-0.046875 0.53125 0 1.4375 0 1.9375 0.046875v-0.53125c-1.3125 0-1.4062-0.09375-1.4062-0.89062z"/>
</g>
<g id="h">
<path d="m2.2969-3.7188c0.39062 0.3125 1.0625 0.65625 1.8906 0.65625 1.6406 0 3.0469-1.2812 3.0469-2.9844 0-0.54688-0.17188-1.375-0.79688-2.0156 0.57812-0.60938 1.4375-0.8125 1.9062-0.8125 0.078125 0 0.20312 0 0.3125 0.0625-0.078125 0.015625-0.26562 0.09375-0.26562 0.42188 0 0.26562 0.1875 0.45312 0.45312 0.45312 0.3125 0 0.46875-0.20312 0.46875-0.46875 0-0.39062-0.3125-0.8125-0.96875-0.8125-0.82812 0-1.5469 0.40625-2.125 0.9375-0.625-0.5625-1.3594-0.76562-2.0312-0.76562-1.625 0-3.0312 1.2812-3.0312 3 0 1.1719 0.6875 1.9219 0.89062 2.125-0.625 0.71875-0.625 1.5625-0.625 1.6719 0 0.53125 0.20312 1.3281 0.90625 1.75-1.0625 0.26562-1.9219 1.0938-1.9219 2.125 0 1.5 1.9688 2.5938 4.3281 2.5938 2.2656 0 4.3125-1.0625 4.3125-2.6094 0-2.8125-3.0625-2.8125-4.6406-2.8125-0.48438 0-1.3281 0-1.4375-0.015625-0.64062-0.10938-1.0625-0.6875-1.0625-1.4062 0-0.1875 0-0.64062 0.39062-1.0938zm1.8906 0.3125c-1.8125 0-1.8125-2.2344-1.8125-2.6406 0-0.42188 0-2.6562 1.8125-2.6562 1.8281 0 1.8281 2.2344 1.8281 2.6562 0 0.40625 0 2.6406-1.8281 2.6406zm0.54688 7.2656c-2.0625 0-3.5-1.0938-3.5-2.2344 0-0.64062 0.35938-1.2344 0.8125-1.5625 0.51562-0.35938 0.71875-0.35938 2.125-0.35938 1.6875 0 4.0469 0 4.0469 1.9219 0 1.1406-1.4219 2.2344-3.4844 2.2344z"/>
</g>
<g id="g">
<path d="m12.828-14.031c0-0.35938-0.015625-0.39062-0.14062-0.39062-0.09375 0-0.10938 0.03125-0.25 0.26562l-0.90625 1.7344c-1.0156-1.2656-2.25-2.0156-3.8438-2.0156-3.5312 0-6.7344 3.125-6.7344 7.375 0 4.2969 3.2031 7.3906 6.75 7.3906 3.1562 0 5.125-2.7812 5.125-5.1562 0-0.21875 0-0.29688-0.1875-0.29688-0.17188 0-0.17188 0.0625-0.1875 0.25-0.15625 2.8906-2.2344 4.6719-4.4531 4.6719-2.1094 0-5.4844-1.4844-5.4844-6.8594 0-5.3906 3.4375-6.8438 5.4375-6.8438 2.3281 0 4.0312 2.0312 4.4219 4.9062 0.046875 0.23438 0.046875 0.28125 0.21875 0.28125 0.23438 0 0.23438-0.046875 0.23438-0.40625z"/>
</g>
<g id="u">
<path d="m8.0938-7.0469c1.9688-0.39062 3.625-1.7188 3.625-3.3594 0-1.9531-2.2031-3.7031-5.0938-3.7031h-5.5469v0.53125c1.4219 0 1.6562 0 1.6562 0.9375v11.172c0 0.9375-0.23438 0.9375-1.6562 0.9375v0.53125c0.59375-0.046875 1.6719-0.046875 2.3125-0.046875s1.7188 0 2.3125 0.046875v-0.53125c-1.4219 0-1.6562 0-1.6562-0.9375v-5.4375h2.4219c1.1719 0 1.8281 0.48438 2.125 0.75 0.82812 0.8125 0.82812 1.3594 0.82812 2.7656 0 1.3906 0 2.0938 0.60938 2.7969 0.79688 0.84375 1.8438 0.92188 2.2969 0.92188 1.5312 0 1.7656-1.7188 1.7656-2.0625 0-0.125 0-0.26562-0.1875-0.26562-0.17188 0-0.1875 0.125-0.1875 0.20312-0.10938 1.3438-0.70312 1.7969-1.3438 1.7969-1.1406 0-1.2656-1.2969-1.3906-2.5625-0.0625-0.4375-0.09375-0.75-0.14062-1.2031-0.125-1.0312-0.28125-2.5312-2.75-3.2812zm-1.6875-0.1875h-2.3594v-5.5312c0-0.70312 0.046875-0.8125 0.875-0.8125h1.5c1.7188 0 3.7188 0.60938 3.7188 3.1719 0 2.6562-2.1875 3.1719-3.7344 3.1719z"/>
</g>
<g id="t">
<path d="m5.2656-3.9844v-0.90625h-5.1875v0.90625z"/>
</g>
<g id="p">
<path d="m3.5156-2.2969c-0.73438 1.2188-1.4219 1.6406-2.4219 1.7031-0.21875 0.015625-0.39062 0.015625-0.39062 0.39062 0 0.125 0.10938 0.20312 0.25 0.20312 0.375 0 1.2969-0.046875 1.6719-0.046875 0.59375 0 1.2656 0.046875 1.8438 0.046875 0.10938 0 0.35938 0 0.35938-0.39062 0-0.1875-0.15625-0.20312-0.28125-0.20312-0.48438-0.046875-0.875-0.21875-0.875-0.70312 0-0.29688 0.125-0.51562 0.39062-0.96875l1.5781-2.6094h5.2656c0.015625 0.1875 0.015625 0.34375 0.046875 0.53125 0.0625 0.54688 0.29688 2.6875 0.29688 3.0781 0 0.625-1.0469 0.67188-1.375 0.67188-0.23438 0-0.45312 0-0.45312 0.35938 0 0.23438 0.1875 0.23438 0.3125 0.23438 0.34375 0 0.76562-0.046875 1.1094-0.046875h1.1719c1.2656 0 2.1719 0.046875 2.2031 0.046875 0.14062 0 0.35938 0 0.35938-0.39062 0-0.20312-0.1875-0.20312-0.48438-0.20312-1.1406 0-1.1562-0.1875-1.2188-0.8125l-1.2656-12.891c-0.046875-0.40625-0.125-0.45312-0.35938-0.45312-0.20312 0-0.32812 0.046875-0.51562 0.35938zm2.4688-3.1719 4.1562-6.9531 0.70312 6.9531z"/>
</g>
<g id="o">
<path d="m7.5938-12.703c0.1875-0.76562 0.28125-0.8125 1.0781-0.8125h1.4844c1.7812 0 3.1094 0.54688 3.1094 2.1562 0 1.0469-0.54688 4.0938-4.6875 4.0938h-2.3438zm2.875 5.6875c2.5625-0.5625 4.5625-2.2188 4.5625-4 0-1.6094-1.625-3.0938-4.5-3.0938h-5.5938c-0.40625 0-0.59375 0-0.59375 0.39062 0 0.20312 0.14062 0.20312 0.53125 0.20312 1.2344 0 1.2344 0.17188 1.2344 0.40625 0 0.03125 0 0.15625-0.078125 0.46875l-2.7812 11.109c-0.1875 0.71875-0.23438 0.9375-1.6562 0.9375-0.48438 0-0.625 0-0.625 0.39062 0 0.20312 0.23438 0.20312 0.29688 0.20312 0.35938 0 0.79688-0.046875 1.1875-0.046875h2.4375c0.375 0 0.8125 0.046875 1.1875 0.046875 0.15625 0 0.39062 0 0.39062-0.39062 0-0.20312-0.1875-0.20312-0.5-0.20312-1.2656 0-1.2656-0.17188-1.2656-0.375 0-0.015625 0-0.17188 0.046875-0.32812l1.3906-5.5625h2.4688c1.9688 0 2.3438 1.2344 2.3438 1.9219 0 0.3125-0.21875 1.1094-0.35938 1.6562-0.21875 0.95312-0.28125 1.1719-0.28125 1.5625 0 1.4688 1.1875 2.1562 2.5781 2.1562 1.6719 0 2.3906-2.0469 2.3906-2.3438 0-0.14062-0.09375-0.20312-0.21875-0.20312-0.17188 0-0.20312 0.125-0.25 0.29688-0.5 1.4688-1.3438 1.8281-1.8594 1.8281s-0.84375-0.21875-0.84375-1.1562c0-0.48438 0.25-2.375 0.26562-2.4688 0.09375-0.76562 0.09375-0.85938 0.09375-1.0156 0-1.5156-1.2188-2.1562-2-2.3906z"/>
</g>
<g id="n">
<path d="m4.25-6.0469c0.046875-0.125 0.5625-1.1562 1.3281-1.8281 0.53125-0.48438 1.2344-0.82812 2.0469-0.82812 0.82812 0 1.1094 0.625 1.1094 1.4531 0 1.1719-0.84375 3.5312-1.25 4.6406-0.1875 0.5-0.29688 0.76562-0.29688 1.1406 0 0.9375 0.64062 1.6719 1.625 1.6719 1.9219 0 2.6562-3.0312 2.6562-3.1562 0-0.10938-0.09375-0.1875-0.21875-0.1875-0.17188 0-0.20312 0.0625-0.29688 0.40625-0.48438 1.7031-1.2656 2.5312-2.0781 2.5312-0.20312 0-0.53125-0.03125-0.53125-0.6875 0-0.51562 0.23438-1.1406 0.35938-1.4219 0.40625-1.1406 1.2812-3.4531 1.2812-4.625 0-1.25-0.73438-2.1719-2.2969-2.1719-1.8438 0-2.8125 1.2969-3.1875 1.8125-0.0625-1.1719-0.90625-1.8125-1.8125-1.8125-0.65625 0-1.125 0.39062-1.4688 1.0938-0.375 0.75-0.65625 1.9844-0.65625 2.0625 0 0.09375 0.078125 0.1875 0.21875 0.1875 0.17188 0 0.1875-0.015625 0.3125-0.5 0.32812-1.25 0.70312-2.4375 1.5312-2.4375 0.46875 0 0.64062 0.34375 0.64062 0.95312 0 0.45312-0.20312 1.2656-0.35938 1.9062l-0.57812 2.2344c-0.078125 0.39062-0.29688 1.3125-0.40625 1.6875-0.14062 0.53125-0.375 1.5156-0.375 1.6094 0 0.29688 0.23438 0.51562 0.54688 0.51562 0.23438 0 0.53125-0.125 0.6875-0.4375 0.046875-0.09375 0.23438-0.8125 0.34375-1.2344l0.45312-1.8594z"/>
</g>
<g id="m">
<path d="m5.7969-13.812c0.03125-0.09375 0.0625-0.21875 0.0625-0.3125 0-0.20312-0.20312-0.20312-0.23438-0.20312s-0.76562 0.046875-1.1406 0.09375c-0.35938 0.015625-0.65625 0.0625-1.0312 0.078125-0.5 0.046875-0.64062 0.0625-0.64062 0.4375 0 0.20312 0.20312 0.20312 0.40625 0.20312 1.0625 0 1.0625 0.1875 1.0625 0.40625 0 0.078125 0 0.10938-0.10938 0.48438l-2.9531 11.812c-0.078125 0.3125-0.078125 0.35938-0.078125 0.48438 0 0.45312 0.34375 0.53125 0.54688 0.53125 0.57812 0 0.70312-0.45312 0.875-1.0938l0.96875-3.8594c1.4844 0.17188 2.375 0.78125 2.375 1.7812 0 0.125 0 0.20312-0.0625 0.51562-0.078125 0.3125-0.078125 0.54688-0.078125 0.65625 0 1.2031 0.78125 2 1.8281 2 0.95312 0 1.4531-0.85938 1.625-1.1562 0.42188-0.76562 0.70312-1.9219 0.70312-2 0-0.10938-0.09375-0.1875-0.21875-0.1875-0.1875 0-0.20312 0.078125-0.28125 0.40625-0.29688 1.0781-0.71875 2.5312-1.7812 2.5312-0.40625 0-0.67188-0.20312-0.67188-1 0-0.39062 0.078125-0.84375 0.15625-1.1562 0.078125-0.375 0.078125-0.39062 0.078125-0.64062 0-1.2188-1.0938-1.8906-2.9844-2.1406 0.73438-0.45312 1.4844-1.2656 1.7656-1.5781 1.1875-1.3125 1.9844-1.9844 2.9375-1.9844 0.48438 0 0.59375 0.125 0.75 0.25-0.76562 0.09375-1.0625 0.625-1.0625 1.0312 0 0.5 0.39062 0.67188 0.6875 0.67188 0.5625 0 1.0469-0.48438 1.0469-1.1406 0-0.59375-0.46875-1.2188-1.4062-1.2188-1.125 0-2.0625 0.8125-3.5312 2.4531-0.20312 0.25-0.96875 1.0312-1.7344 1.3281z"/>
</g>
<clipPath id="ae">
<path d="m170 8h100v1h-100z"/>
</clipPath>
<clipPath id="ad">
<path d="m-0.47266-2.0312v88h470v-88zm259.92 14.445h11.023v-7.5586h-11.023l9.4492 3.7773z" clip-rule="evenodd"/>
</clipPath>
<clipPath id="ac">
<path d="m269 8h58v1h-58z"/>
</clipPath>
<clipPath id="ab">
<path d="m-0.47266-2.0312v88h470v-88zm280.08 6.8867h-11.02v7.5586h11.02l-9.4453-3.7812z" clip-rule="evenodd"/>
</clipPath>
<clipPath id="aa">
<path d="m269 28h1v57.969h-1z"/>
</clipPath>
<clipPath id="z">
<path d="m0 28h469v57.969h-469z"/>
</clipPath>
<clipPath id="y">
<path d="m396 8h73v1h-73z"/>
</clipPath>
<clipPath id="x">
<path d="m-0.47266-2.0312v88h470v-88zm458.34 14.445h11.023v-7.5586h-11.023l9.4492 3.7773z" clip-rule="evenodd"/>
</clipPath>
<clipPath id="w">
<path d="m2 8h98v1h-98z"/>
</clipPath>
<clipPath id="v">
<path d="m-0.47266-2.0312v88h470v-88zm13.633 6.8867h-11.023v7.5586h11.023l-9.4492-3.7812z" clip-rule="evenodd"/>
</clipPath>
</defs>
<g clip-path="url(#ae)">
<g clip-path="url(#ad)">
<path transform="matrix(.1 0 0 -.1 -.472 85.967)" d="m2700 773.34h-992.07" fill="none" stroke="#000" stroke-miterlimit="10" stroke-width="4.7242"/>
</g>
</g>
<path d="m259.45 12.414 9.4492-3.7812-9.4492-3.7773 1.8906 3.7773-1.8906 3.7812" fill-rule="evenodd"/>
<path transform="matrix(.1 0 0 -.1 -.472 85.967)" d="m2599.2 735.53 94.492 37.812-94.492 37.773 18.906-37.773z" fill="none" stroke="#000" stroke-miterlimit="10" stroke-width="4.7242"/>
<g clip-path="url(#ac)">
<g clip-path="url(#ab)">
<path transform="matrix(.1 0 0 -.1 -.472 85.967)" d="m3266.9 773.34h-566.91" fill="none" stroke="#000" stroke-miterlimit="10" stroke-width="4.7242"/>
</g>
</g>
<path d="m279.61 4.8555-9.4453 3.7773 9.4453 3.7812-1.8867-3.7812 1.8867-3.7773" fill-rule="evenodd"/>
<path transform="matrix(.1 0 0 -.1 -.472 85.967)" d="m2800.8 811.12-94.453-37.773 94.453-37.812-18.867 37.812z" fill="none" stroke="#000" stroke-miterlimit="10" stroke-width="4.7242"/>
<g clip-path="url(#aa)">
<path transform="matrix(.1 0 0 -.1 -.472 85.967)" d="m2700 574.9v-566.91" fill="none" stroke="#000" stroke-miterlimit="10" stroke-width="4.7242"/>
</g>
<g clip-path="url(#z)">
<path transform="matrix(.1 0 0 -.1 -.472 85.967)" d="m7.1809 7.9903h4677v566.91h-4677z" fill="none" stroke="#000" stroke-miterlimit="10" stroke-width="4.7242"/>
</g>
<g clip-path="url(#y)">
<g clip-path="url(#x)">
<path transform="matrix(.1 0 0 -.1 -.472 85.967)" d="m4684.2 773.34h-708.63" fill="none" stroke="#000" stroke-miterlimit="10" stroke-width="4.7242"/>
</g>
</g>
<path d="m457.87 12.414 9.4492-3.7812-9.4492-3.7773 1.8906 3.7773-1.8906 3.7812" fill-rule="evenodd"/>
<path transform="matrix(.1 0 0 -.1 -.472 85.967)" d="m4583.4 735.53 94.492 37.812-94.492 37.773 18.906-37.773z" fill="none" stroke="#000" stroke-miterlimit="10" stroke-width="4.7242"/>
<g clip-path="url(#w)">
<g clip-path="url(#v)">
<path transform="matrix(.1 0 0 -.1 -.472 85.967)" d="m999.29 773.34h-963.75" fill="none" stroke="#000" stroke-miterlimit="10" stroke-width="4.7242"/>
</g>
</g>
<path d="m13.16 4.8555-9.4492 3.7773 9.4492 3.7812-1.8906-3.7812 1.8906-3.7773" fill-rule="evenodd"/>
<path transform="matrix(.1 0 0 -.1 -.472 85.967)" d="m136.32 811.12-94.492-37.773 94.492-37.812-18.906 37.812z" fill="none" stroke="#000" stroke-miterlimit="10" stroke-width="4.7242"/>
<g>
<use x="354.638" y="14.34" xlink:href="#d"/>
<use x="368.157474" y="14.34" xlink:href="#c"/>
<use x="373.314834" y="14.34" xlink:href="#b"/>
<use x="14.459" y="71.037" xlink:href="#p"/>
<use x="35.365" y="71.037" xlink:href="#f"/>
<use x="280.932" y="71.037" xlink:href="#o"/>
<use x="302.242" y="71.037" xlink:href="#f"/>
<use x="108.008" y="14.34" xlink:href="#n"/>
<use x="127.852" y="14.34" xlink:href="#d"/>
<use x="141.371474" y="14.34" xlink:href="#c"/>
<use x="146.528834" y="14.34" xlink:href="#b"/>
<use x="53.831" y="71.037" xlink:href="#s"/>
<use x="62.22824" y="71.037" xlink:href="#r"/>
<use x="79.024786" y="71.037" xlink:href="#q"/>
<use x="86.450889" y="71.037" xlink:href="#a"/>
<use x="94.848129" y="71.037" xlink:href="#e"/>
<use x="105.4046" y="71.037" xlink:href="#l"/>
<use x="115.961071" y="71.037" xlink:href="#a"/>
<use x="124.358311" y="71.037" xlink:href="#e"/>
<use x="134.914783" y="71.037" xlink:href="#l"/>
<use x="145.471254" y="71.037" xlink:href="#a"/>
<use x="160.087906" y="71.037" xlink:href="#d"/>
<use x="173.60738" y="71.037" xlink:href="#c"/>
<use x="178.785403" y="71.037" xlink:href="#b"/>
<use x="186.101994" y="71.037" xlink:href="#k"/>
<use x="191.800711" y="71.037" xlink:href="#j"/>
<use x="201.276534" y="71.037" xlink:href="#i"/>
<use x="206.433894" y="71.037" xlink:href="#h"/>
<use x="215.909716" y="71.037" xlink:href="#a"/>
<use x="318.424644" y="71.037" xlink:href="#g"/>
<use x="332.218929" y="71.037" xlink:href="#u"/>
<use x="345.721873" y="71.037" xlink:href="#g"/>
<use x="359.516157" y="71.037" xlink:href="#t"/>
<use x="365.754166" y="71.037" xlink:href="#d"/>
<use x="379.27364" y="71.037" xlink:href="#c"/>
<use x="384.431" y="71.037" xlink:href="#b"/>
<use x="391.747591" y="71.037" xlink:href="#k"/>
<use x="397.446309" y="71.037" xlink:href="#j"/>
<use x="406.922131" y="71.037" xlink:href="#i"/>
<use x="412.079491" y="71.037" xlink:href="#h"/>
<use x="421.555314" y="71.037" xlink:href="#a"/>
<use x="337.629" y="14.34" xlink:href="#m"/>
</g>
</svg>
