<svg width="377pt" height="150pt" version="1.1" viewBox="0 0 377 150" xmlns="http://www.w3.org/2000/svg" xmlns:xlink="http://www.w3.org/1999/xlink">
<defs>
<g id="g">
<path d="m4.375-7.3438c0.10938-0.45312 0.15625-0.46875 0.625-0.46875h1.5469c1.3594 0 1.3594 1.1406 1.3594 1.25 0 0.96875-0.96875 2.2031-2.5469 2.2031h-1.7188zm2.0156 3.0781c1.3125-0.23438 2.4844-1.1562 2.4844-2.25 0-0.9375-0.8125-1.6406-2.1719-1.6406h-3.8281c-0.23438 0-0.34375 0-0.34375 0.21875 0 0.125 0.10938 0.125 0.29688 0.125 0.71875 0 0.71875 0.09375 0.71875 0.21875 0 0.03125 0 0.09375-0.046875 0.28125l-1.6094 6.4219c-0.10938 0.42188-0.14062 0.54688-0.96875 0.54688-0.23438 0-0.34375 0-0.34375 0.21875 0 0.125 0.0625 0.125 0.3125 0.125h4.0938c1.8281 0 3.2344-1.3906 3.2344-2.5938 0-0.98438-0.85938-1.5781-1.8281-1.6719zm-1.6875 3.9219h-1.625c-0.15625 0-0.1875 0-0.25-0.015625-0.14062-0.015625-0.15625-0.03125-0.15625-0.125s0.03125-0.15625 0.046875-0.26562l0.84375-3.375h2.25c1.4062 0 1.4062 1.3125 1.4062 1.4062 0 1.1562-1.0312 2.375-2.5156 2.375z"/>
</g>
<g id="am">
<path d="m6.0156-8c0.015625-0.046875 0.03125-0.10938 0.03125-0.17188 0-0.125-0.125-0.125-0.14062-0.125s-0.59375 0.046875-0.65625 0.0625c-0.20312 0.015625-0.39062 0.03125-0.59375 0.046875-0.3125 0.03125-0.39062 0.03125-0.39062 0.25 0 0.125 0.09375 0.125 0.26562 0.125 0.57812 0 0.59375 0.10938 0.59375 0.21875 0 0.078125-0.015625 0.17188-0.03125 0.20312l-0.73438 2.9062c-0.125-0.3125-0.45312-0.78125-1.0781-0.78125-1.3438 0-2.7969 1.7344-2.7969 3.5156 0 1.1719 0.6875 1.875 1.5 1.875 0.65625 0 1.2188-0.51562 1.5469-0.90625 0.125 0.70312 0.6875 0.90625 1.0469 0.90625s0.64062-0.21875 0.85938-0.65625c0.1875-0.40625 0.35938-1.125 0.35938-1.1719 0-0.0625-0.046875-0.10938-0.125-0.10938-0.10938 0-0.10938 0.0625-0.15625 0.23438-0.1875 0.70312-0.40625 1.4531-0.90625 1.4531-0.34375 0-0.35938-0.3125-0.35938-0.54688 0-0.046875 0-0.29688 0.078125-0.625zm-2.4219 6.5781c-0.0625 0.20312-0.0625 0.23438-0.21875 0.45312-0.26562 0.32812-0.79688 0.84375-1.3594 0.84375-0.48438 0-0.76562-0.4375-0.76562-1.1406 0-0.65625 0.375-2 0.60938-2.5 0.40625-0.84375 0.96875-1.2656 1.4219-1.2656 0.79688 0 0.95312 0.98438 0.95312 1.0781 0 0.015625-0.03125 0.15625-0.046875 0.1875z"/>
</g>
<g id="q">
<path d="m8.3125-2.7656c0-0.046875 0.046875-0.125 0.046875-0.17188 0-0.0625-0.046875-0.125-0.125-0.125-0.046875 0-0.078125 0.015625-0.10938 0.046875-0.015625 0.015625-0.015625 0.046875-0.125 0.28125-0.70312 1.6719-1.2188 2.3906-3.1406 2.3906h-1.7344c-0.17188 0-0.20312 0-0.26562-0.015625-0.14062-0.015625-0.14062-0.03125-0.14062-0.125s0.015625-0.15625 0.046875-0.26562l0.8125-3.2969h1.1875c0.9375 0 1 0.20312 1 0.5625 0 0.10938 0 0.21875-0.078125 0.57812-0.015625 0.046875-0.03125 0.09375-0.03125 0.14062 0 0.078125 0.0625 0.10938 0.125 0.10938 0.10938 0 0.125-0.078125 0.17188-0.25l0.6875-2.7656c0-0.0625-0.046875-0.125-0.125-0.125-0.10938 0-0.125 0.046875-0.17188 0.21875-0.23438 0.92188-0.46875 1.1719-1.5312 1.1719h-1.1406l0.73438-2.9375c0.10938-0.40625 0.14062-0.45312 0.625-0.45312h1.7031c1.4844 0 1.7812 0.39062 1.7812 1.3125 0 0 0 0.34375-0.046875 0.73438-0.015625 0.046875-0.03125 0.125-0.03125 0.14062 0 0.09375 0.0625 0.14062 0.14062 0.14062s0.125-0.046875 0.14062-0.26562l0.26562-2.0938c0-0.03125 0.015625-0.15625 0.015625-0.1875 0-0.125-0.10938-0.125-0.32812-0.125h-5.8281c-0.21875 0-0.34375 0-0.34375 0.21875 0 0.125 0.078125 0.125 0.28125 0.125 0.75 0 0.75 0.09375 0.75 0.21875 0 0.0625-0.015625 0.10938-0.046875 0.23438l-1.625 6.4531c-0.10938 0.42188-0.125 0.54688-0.96875 0.54688-0.21875 0-0.34375 0-0.34375 0.21875 0 0.125 0.078125 0.125 0.3125 0.125h6c0.26562 0 0.28125-0.015625 0.35938-0.20312z"/>
</g>
<g id="f">
<path d="m1.875-0.89062c-0.10938 0.42188-0.125 0.54688-0.96875 0.54688-0.21875 0-0.34375 0-0.34375 0.21875 0 0.125 0.078125 0.125 0.3125 0.125h3.7812c2.4219 0 4.7812-2.5 4.7812-5.1562 0-1.7344-1.0312-3-2.75-3h-3.8281c-0.23438 0-0.34375 0-0.34375 0.21875 0 0.125 0.10938 0.125 0.29688 0.125 0.71875 0 0.71875 0.09375 0.71875 0.21875 0 0.03125 0 0.09375-0.046875 0.28125zm2.5312-6.4531c0.09375-0.45312 0.14062-0.46875 0.60938-0.46875h1.3125c1.125 0 2.1562 0.60938 2.1562 2.25 0 0.60938-0.23438 2.6875-1.3906 4-0.34375 0.39062-1.25 1.2188-2.625 1.2188h-1.3594c-0.17188 0-0.1875 0-0.26562-0.015625-0.125-0.015625-0.14062-0.03125-0.14062-0.125s0.015625-0.15625 0.046875-0.26562z"/>
</g>
<g id="e">
<path d="m2.0312-1.3281c-0.42188 0.70312-0.82812 0.95312-1.3906 0.98438-0.14062 0.015625-0.23438 0.015625-0.23438 0.21875 0 0.078125 0.0625 0.125 0.14062 0.125 0.21875 0 0.75-0.03125 0.96875-0.03125 0.34375 0 0.73438 0.03125 1.0625 0.03125 0.078125 0 0.21875 0 0.21875-0.23438 0-0.09375-0.09375-0.10938-0.17188-0.10938-0.26562-0.03125-0.5-0.125-0.5-0.40625 0-0.17188 0.078125-0.29688 0.23438-0.5625l0.90625-1.5156h3.0469c0.015625 0.10938 0.015625 0.20312 0.015625 0.3125 0.046875 0.3125 0.1875 1.5625 0.1875 1.7812 0 0.35938-0.60938 0.39062-0.79688 0.39062-0.14062 0-0.26562 0-0.26562 0.21875 0 0.125 0.10938 0.125 0.17188 0.125 0.20312 0 0.45312-0.03125 0.65625-0.03125h0.67188c0.73438 0 1.2656 0.03125 1.2656 0.03125 0.09375 0 0.21875 0 0.21875-0.23438 0-0.10938-0.10938-0.10938-0.28125-0.10938-0.65625 0-0.67188-0.10938-0.70312-0.46875l-0.73438-7.4531c-0.03125-0.25-0.078125-0.26562-0.20312-0.26562s-0.1875 0.015625-0.29688 0.20312zm1.4375-1.8438 2.4062-4.0156 0.40625 4.0156z"/>
</g>
<g id="p">
<path d="m8.9219-8.3125c0-0.10938-0.078125-0.10938-0.09375-0.10938-0.03125 0-0.078125 0-0.17188 0.125l-0.82812 1c-0.42188-0.71875-1.0781-1.125-1.9688-1.125-2.5781 0-5.2656 2.625-5.2656 5.4375 0 2 1.4062 3.2344 3.1406 3.2344 0.96875 0 1.7969-0.40625 2.5-0.98438 1.0312-0.875 1.3438-2.0312 1.3438-2.1406 0-0.09375-0.09375-0.09375-0.125-0.09375-0.10938 0-0.125 0.0625-0.15625 0.10938-0.54688 1.875-2.1562 2.7656-3.3594 2.7656-1.2656 0-2.3594-0.8125-2.3594-2.5156 0-0.375 0.125-2.4531 1.4688-4.0312 0.65625-0.76562 1.7812-1.4219 2.9219-1.4219 1.3125 0 1.8906 1.0781 1.8906 2.2969 0 0.3125-0.03125 0.57812-0.03125 0.625 0 0.10938 0.125 0.10938 0.15625 0.10938 0.125 0 0.14062-0.015625 0.1875-0.23438z"/>
</g>
<g id="a">
<path d="m3.4375-7.6562c0-0.28125 0-0.29688-0.23438-0.29688-0.28125 0.32812-0.89062 0.76562-2.1094 0.76562v0.34375c0.26562 0 0.85938 0 1.5312-0.29688v6.2188c0 0.4375-0.046875 0.57812-1.0938 0.57812h-0.375v0.34375c0.32812-0.03125 1.4844-0.03125 1.875-0.03125 0.40625 0 1.5469 0 1.875 0.03125v-0.34375h-0.375c-1.0469 0-1.0938-0.14062-1.0938-0.57812z"/>
</g>
<g id="m">
<path d="m5.2656-2.0156h-0.26562c-0.046875 0.20312-0.14062 0.875-0.25 1.0625-0.09375 0.10938-0.76562 0.10938-1.125 0.10938h-2.2188c0.32812-0.28125 1.0625-1.0469 1.3594-1.3281 1.8281-1.6719 2.5-2.2969 2.5-3.4844 0-1.375-1.0938-2.2969-2.4844-2.2969-1.375 0-2.2031 1.1875-2.2031 2.2188 0 0.60938 0.53125 0.60938 0.5625 0.60938 0.26562 0 0.5625-0.1875 0.5625-0.5625 0-0.34375-0.21875-0.5625-0.5625-0.5625-0.09375 0-0.125 0-0.15625 0.015625 0.21875-0.8125 0.875-1.375 1.6406-1.375 1.0156 0 1.6406 0.85938 1.6406 1.9531 0 1.0156-0.57812 1.9062-1.2656 2.6719l-2.4219 2.7031v0.28125h4.375z"/>
</g>
<g id="j">
<path d="m3.5625-4.3125c0.59375-0.32812 1.4688-0.875 1.4688-1.875 0-1.0469-1-1.7656-2.1094-1.7656-1.1719 0-2.1094 0.875-2.1094 1.9688 0 0.40625 0.125 0.8125 0.45312 1.2188 0.14062 0.15625 0.14062 0.15625 0.98438 0.75-1.1562 0.53125-1.7656 1.3438-1.7656 2.2031 0 1.2812 1.2188 2.0625 2.4375 2.0625 1.3281 0 2.4375-0.98438 2.4375-2.2344 0-1.2188-0.85938-1.75-1.7969-2.3281zm-1.625-1.0781c-0.15625-0.10938-0.64062-0.42188-0.64062-1 0-0.78125 0.8125-1.2656 1.625-1.2656 0.85938 0 1.625 0.60938 1.625 1.4688 0 0.73438-0.53125 1.3281-1.2188 1.7031zm0.5625 1.5469 1.4375 0.9375c0.3125 0.20312 0.875 0.57812 0.875 1.2969 0 0.92188-0.92188 1.5312-1.8906 1.5312-1.0156 0-1.875-0.73438-1.875-1.7344 0-0.92188 0.67188-1.6719 1.4531-2.0312z"/>
</g>
<g id="y">
<path d="m2.7031-8c-0.10938-0.15625-0.125-0.15625-0.39062-0.15625h-1.8281v0.34375c0.51562 0 0.8125 0 1.1406 0.078125v6.4844c0 0.34375 0 0.90625-1.1406 0.90625v0.34375c0.3125-0.03125 0.95312-0.03125 1.2812-0.03125 0.34375 0 0.96875 0 1.2812 0.03125v-0.34375c-1.1406 0-1.1406-0.5625-1.1406-0.90625v-6.2969c0.10938 0.09375 0.10938 0.125 0.20312 0.26562l4.6719 7.1094c0.10938 0.15625 0.125 0.17188 0.21875 0.17188s0.125-0.046875 0.14062-0.078125v-6.8281c0-0.34375 0-0.90625 1.125-0.90625v-0.34375c-0.3125 0.015625-0.9375 0.015625-1.2656 0.015625-0.34375 0-0.96875 0-1.2812-0.015625v0.34375c1.125 0 1.125 0.5625 1.125 0.90625v5.2188z"/>
</g>
<g id="b">
<path d="m4.6094-3.1875c0-0.65625 0-1.125-0.51562-1.5938-0.42188-0.375-0.96875-0.54688-1.4844-0.54688-0.98438 0-1.7344 0.64062-1.7344 1.4219 0 0.34375 0.21875 0.51562 0.5 0.51562s0.48438-0.20312 0.48438-0.5c0-0.48438-0.42188-0.48438-0.60938-0.48438 0.28125-0.5 0.85938-0.71875 1.3281-0.71875 0.54688 0 1.2656 0.45312 1.2656 1.5312v0.48438c-2.4062 0.03125-3.3125 1.0312-3.3125 1.9531 0 0.95312 1.0938 1.25 1.8281 1.25 0.78125 0 1.3281-0.48438 1.5469-1.0625 0.046875 0.5625 0.42188 1 0.9375 1 0.25 0 0.9375-0.17188 0.9375-1.125v-0.67188h-0.26562v0.67188c0 0.6875-0.28125 0.78125-0.45312 0.78125-0.45312 0-0.45312-0.64062-0.45312-0.8125zm-0.76562 1.5c0 1.1719-0.875 1.5625-1.3906 1.5625-0.59375 0-1.0781-0.42188-1.0781-1 0-1.5781 2.0312-1.7188 2.4688-1.75z"/>
</g>
<g id="x">
<path d="m4.3281-4.4219c-0.14062 0-0.59375 0-0.59375 0.48438 0 0.29688 0.20312 0.5 0.5 0.5 0.26562 0 0.5-0.17188 0.5-0.51562 0-0.79688-0.84375-1.375-1.8125-1.375-1.3906 0-2.5 1.2344-2.5 2.75 0 1.5312 1.1406 2.7031 2.5 2.7031 1.5781 0 1.9375-1.4375 1.9375-1.5469s-0.09375-0.10938-0.125-0.10938c-0.10938 0-0.125 0.03125-0.15625 0.1875-0.26562 0.84375-0.90625 1.2031-1.5469 1.2031-0.73438 0-1.7031-0.64062-1.7031-2.4531 0-1.9844 1.0156-2.4688 1.6094-2.4688 0.45312 0 1.1094 0.17188 1.3906 0.64062z"/>
</g>
<g id="w">
<path d="m5.3125-2.9062c0-1.1094 0-1.4375-0.26562-1.8281-0.34375-0.46875-0.90625-0.53125-1.3125-0.53125-1.0312 0-1.5156 0.76562-1.6719 1.1406h-0.015625v-4.1719l-1.6719 0.14062v0.34375c0.8125 0 0.92188 0.078125 0.92188 0.67188v6.25c0 0.54688-0.14062 0.54688-0.92188 0.54688v0.34375c0.3125-0.03125 0.96875-0.03125 1.2969-0.03125 0.34375 0 1 0 1.2969 0.03125v-0.34375c-0.75 0-0.90625 0-0.90625-0.54688v-2.2188c0-1.25 0.82812-1.9219 1.5781-1.9219 0.73438 0 0.90625 0.60938 0.90625 1.3438v2.7969c0 0.54688-0.14062 0.54688-0.90625 0.54688v0.34375c0.29688-0.03125 0.95312-0.03125 1.2812-0.03125 0.34375 0 1 0 1.3125 0.03125v-0.34375c-0.60938 0-0.90625 0-0.92188-0.35938z"/>
</g>
<g id="i">
<path d="m2-8.2969-1.6719 0.14062v0.34375c0.8125 0 0.92188 0.078125 0.92188 0.67188v7.1406h0.25c0.046875-0.09375 0.39062-0.6875 0.4375-0.78125 0.28125 0.45312 0.78125 0.90625 1.5469 0.90625 1.375 0 2.5938-1.1719 2.5938-2.7031 0-1.5156-1.125-2.6875-2.4531-2.6875-0.65625 0-1.2188 0.29688-1.625 0.79688zm0.015625 4.4688c0-0.21875 0-0.23438 0.14062-0.42188 0.28125-0.4375 0.8125-0.78125 1.3906-0.78125 0.35938 0 1.6094 0.14062 1.6094 2.4375 0 0.79688-0.10938 1.2969-0.40625 1.7344-0.23438 0.375-0.70312 0.73438-1.3125 0.73438-0.64062 0-1.0625-0.40625-1.2656-0.73438-0.15625-0.25-0.15625-0.29688-0.15625-0.5z"/>
</g>
<g id="h">
<path d="m2-2.7812c0-1.1562 0.46875-2.25 1.3906-2.25 0.09375 0 0.125 0 0.17188 0.015625-0.09375 0.046875-0.28125 0.10938-0.28125 0.4375 0 0.34375 0.26562 0.48438 0.45312 0.48438 0.25 0 0.48438-0.15625 0.48438-0.48438 0-0.35938-0.32812-0.6875-0.84375-0.6875-1.0156 0-1.3594 1.0938-1.4219 1.3281h-0.015625v-1.3281l-1.6094 0.125v0.34375c0.8125 0 0.92188 0.09375 0.92188 0.67188v3.2344c0 0.54688-0.14062 0.54688-0.92188 0.54688v0.34375c0.34375-0.03125 1-0.03125 1.3594-0.03125 0.32812 0 1.1719 0 1.4375 0.03125v-0.34375h-0.23438c-0.875 0-0.89062-0.14062-0.89062-0.5625z"/>
</g>
<g id="al">
<path d="m6.3906-7.75c0.09375-0.15625 0.09375-0.15625 0.09375-0.25 0-0.15625-0.046875-0.15625-0.28125-0.15625h-5.2656l-0.125 2.6562h0.26562c0.078125-1.3438 0.45312-2.3125 2.3906-2.3125h1.9062l-4.7344 7.5312c0 0.26562 0.015625 0.28125 0.29688 0.28125h5.4219l0.1875-3.1562h-0.26562c-0.078125 1.6875-0.32812 2.7812-2.5 2.7812h-2.0312z"/>
</g>
<g id="o">
<path d="m2.0781-7.3594c0-0.3125-0.25-0.59375-0.57812-0.59375-0.3125 0-0.57812 0.25-0.57812 0.57812 0 0.35938 0.28125 0.57812 0.57812 0.57812 0.35938 0 0.57812-0.29688 0.57812-0.5625zm-1.6406 2.2188v0.34375c0.75 0 0.85938 0.078125 0.85938 0.65625v3.25c0 0.54688-0.125 0.54688-0.90625 0.54688v0.34375c0.34375-0.03125 0.90625-0.03125 1.2656-0.03125 0.125 0 0.8125 0 1.2188 0.03125v-0.34375c-0.76562 0-0.8125-0.0625-0.8125-0.53125v-4.3906z"/>
</g>
<g id="d">
<path d="m4.5781-2.7656c0.26562 0 0.28125 0 0.28125-0.23438 0-1.2031-0.64062-2.3281-2.0938-2.3281-1.3594 0-2.4062 1.2344-2.4062 2.7031 0 1.5781 1.2188 2.75 2.5469 2.75 1.4219 0 1.9531-1.2969 1.9531-1.5469 0-0.078125-0.046875-0.125-0.125-0.125-0.09375 0-0.125 0.0625-0.14062 0.125-0.3125 1-1.1094 1.2812-1.625 1.2812-0.5 0-1.7031-0.34375-1.7031-2.4062v-0.21875zm-3.2969-0.23438c0.09375-1.875 1.1406-2.0938 1.4844-2.0938 1.2812 0 1.3438 1.6875 1.3594 2.0938z"/>
</g>
<g id="c">
<path d="m2.0625-8.2969-1.6719 0.14062v0.34375c0.8125 0 0.90625 0.078125 0.90625 0.67188v6.25c0 0.54688-0.125 0.54688-0.90625 0.54688v0.34375c0.34375-0.03125 0.92188-0.03125 1.2812-0.03125s0.95312 0 1.2969 0.03125v-0.34375c-0.76562 0-0.90625 0-0.90625-0.54688z"/>
</g>
<g id="ak">
<path d="m3.8906 2.9062c0-0.03125 0-0.0625-0.20312-0.26562-1.2031-1.2031-1.875-3.1719-1.875-5.6094 0-2.3281 0.5625-4.3281 1.9531-5.7344 0.125-0.10938 0.125-0.125 0.125-0.17188 0-0.0625-0.0625-0.09375-0.10938-0.09375-0.15625 0-1.1406 0.85938-1.7188 2.0312-0.60938 1.2188-0.89062 2.4844-0.89062 3.9688 0 1.0625 0.17188 2.4844 0.78125 3.75 0.71875 1.4375 1.6875 2.2188 1.8281 2.2188 0.046875 0 0.10938-0.03125 0.10938-0.09375z"/>
</g>
<g id="aj">
<path d="m3.375-2.9688c0-0.92188-0.125-2.3906-0.79688-3.7812-0.70312-1.4375-1.6875-2.2188-1.8125-2.2188-0.046875 0-0.10938 0.03125-0.10938 0.09375 0 0.046875 0 0.0625 0.20312 0.26562 1.2031 1.2031 1.8594 3.1875 1.8594 5.625 0 2.3125-0.5625 4.3125-1.9375 5.7188-0.125 0.10938-0.125 0.14062-0.125 0.17188 0 0.0625 0.0625 0.09375 0.10938 0.09375 0.15625 0 1.1406-0.85938 1.7188-2.0312 0.60938-1.2188 0.89062-2.5156 0.89062-3.9375z"/>
</g>
<g id="ai">
<path d="m0.5-8.1562v0.34375h0.23438c0.875 0 0.90625 0.10938 0.90625 0.5625v6.3438c0 0.4375-0.03125 0.5625-0.90625 0.5625h-0.23438v0.34375h4.1875c2 0 3.5938-1.7969 3.5938-4 0-2.3125-1.6094-4.1562-3.5938-4.1562zm2.625 7.8125c-0.51562 0-0.54688-0.09375-0.54688-0.48438v-6.5156c0-0.39062 0.03125-0.46875 0.54688-0.46875h1.2656c0.98438 0 1.7812 0.46875 2.2656 1.2656 0.54688 0.84375 0.54688 2.0469 0.54688 2.5312 0 0.67188-0.015625 1.7969-0.70312 2.6719-0.39062 0.5-1.1094 1-2.1094 1z"/>
</g>
<g id="ah">
<path d="m3.9219-5.0625c0-0.20312 0-0.26562-0.125-0.26562-0.09375 0-0.3125 0.26562-0.40625 0.375-0.35938-0.3125-0.73438-0.375-1.125-0.375-1.4375 0-1.875 0.78125-1.875 1.4375 0 0.14062 0 0.5625 0.45312 0.96875 0.39062 0.34375 0.79688 0.42188 1.3438 0.53125 0.65625 0.125 0.8125 0.17188 1.1094 0.40625 0.21875 0.17188 0.375 0.4375 0.375 0.78125 0 0.51562-0.29688 1.0781-1.3594 1.0781-0.78125 0-1.3594-0.45312-1.625-1.6406-0.046875-0.21875-0.046875-0.23438-0.046875-0.25-0.03125-0.046875-0.078125-0.046875-0.10938-0.046875-0.14062 0-0.14062 0.0625-0.14062 0.28125v1.625c0 0.21875 0 0.28125 0.125 0.28125 0.0625 0 0.0625-0.015625 0.26562-0.26562 0.0625-0.09375 0.0625-0.10938 0.25-0.29688 0.45312 0.5625 1.0938 0.5625 1.2969 0.5625 1.25 0 1.875-0.70312 1.875-1.6406 0-0.64062-0.39062-1.0312-0.5-1.1406-0.42188-0.375-0.75-0.4375-1.5469-0.57812-0.34375-0.078125-1.2188-0.25-1.2188-0.96875 0-0.35938 0.25-0.90625 1.3281-0.90625 1.2969 0 1.375 1.1094 1.3906 1.4688 0.015625 0.10938 0.09375 0.10938 0.14062 0.10938 0.125 0 0.125-0.0625 0.125-0.28125z"/>
</g>
<g id="n">
<path d="m2.0156-4.8125h1.6719v-0.34375h-1.6719v-2.1875h-0.26562c-0.015625 1.1094-0.45312 2.2656-1.5312 2.2969v0.23438h1.0156v3.3281c0 1.3281 0.875 1.6094 1.5156 1.6094 0.75 0 1.1406-0.75 1.1406-1.6094v-0.67188h-0.25v0.65625c0 0.85938-0.35938 1.3594-0.8125 1.3594-0.8125 0-0.8125-1.1094-0.8125-1.3125z"/>
</g>
<g id="ag">
<path d="m5.3125-2.9062c0-1.1094 0-1.4375-0.26562-1.8281-0.34375-0.46875-0.90625-0.53125-1.3125-0.53125-1.1719 0-1.625 0.98438-1.7188 1.2188v-1.2188l-1.6406 0.125v0.34375c0.8125 0 0.92188 0.09375 0.92188 0.67188v3.2344c0 0.54688-0.14062 0.54688-0.92188 0.54688v0.34375c0.3125-0.03125 0.96875-0.03125 1.2969-0.03125 0.34375 0 1 0 1.2969 0.03125v-0.34375c-0.75 0-0.90625 0-0.90625-0.54688v-2.2188c0-1.25 0.82812-1.9219 1.5781-1.9219 0.73438 0 0.90625 0.60938 0.90625 1.3438v2.7969c0 0.54688-0.14062 0.54688-0.90625 0.54688v0.34375c0.29688-0.03125 0.95312-0.03125 1.2812-0.03125 0.34375 0 1 0 1.3125 0.03125v-0.34375c-0.60938 0-0.90625 0-0.92188-0.35938z"/>
</g>
<g id="af">
<path d="m4.5469-4.8125c0.10938-0.14062 0.10938-0.15625 0.10938-0.20312 0-0.14062-0.078125-0.14062-0.28125-0.14062h-3.75l-0.14062 1.9062h0.26562c0.078125-1.2188 0.29688-1.6562 1.6094-1.6562h1.375l-3.4062 4.6875c0 0.21875 0.015625 0.21875 0.28125 0.21875h3.8906l0.20312-2.2031h-0.26562c-0.10938 1.3594-0.3125 1.9375-1.7344 1.9375h-1.4531z"/>
</g>
<g id="ae">
<path d="m2.0625-4.8125h1.3438v-0.34375h-1.375v-1.3906c0-1.0781 0.54688-1.625 1.0469-1.625 0.09375 0 0.26562 0.015625 0.40625 0.09375-0.046875 0.015625-0.34375 0.125-0.34375 0.46875 0 0.26562 0.1875 0.46875 0.46875 0.46875s0.48438-0.20312 0.48438-0.48438c0-0.4375-0.4375-0.79688-1.0156-0.79688-0.82812 0-1.7812 0.65625-1.7812 1.875v1.3906h-0.92188v0.34375h0.92188v3.9219c0 0.54688-0.125 0.54688-0.90625 0.54688v0.34375c0.34375-0.03125 1-0.03125 1.3594-0.03125 0.3125 0 1.1719 0 1.4375 0.03125v-0.34375h-0.23438c-0.875 0-0.89062-0.14062-0.89062-0.5625z"/>
</g>
<g id="ad">
<path d="m2.3438-7.4062c0-0.29688-0.25-0.54688-0.54688-0.54688s-0.54688 0.21875-0.54688 0.54688c0 0.34375 0.25 0.5625 0.54688 0.5625s0.54688-0.25 0.54688-0.5625zm2.2656 0c0-0.32812-0.26562-0.54688-0.5625-0.54688s-0.54688 0.25-0.54688 0.54688c0 0.3125 0.25 0.5625 0.54688 0.5625s0.5625-0.21875 0.5625-0.5625z"/>
</g>
<g id="ac">
<path d="m3.6406-5.1406v0.34375c0.8125 0 0.90625 0.09375 0.90625 0.67188v2.1406c0 1.0156-0.54688 1.8594-1.4375 1.8594-0.98438 0-1.0469-0.5625-1.0469-1.1875v-3.9531l-1.6875 0.125v0.34375c0.92188 0 0.92188 0.046875 0.92188 1.1094v1.7812c0 0.75 0 1.1719 0.35938 1.5781 0.28125 0.29688 0.76562 0.45312 1.375 0.45312 0.20312 0 0.59375 0 1-0.35938 0.34375-0.26562 0.53125-0.71875 0.53125-0.71875v1.0781l1.6719-0.125v-0.34375c-0.8125 0-0.92188-0.09375-0.92188-0.67188v-4.25z"/>
</g>
<g id="l">
<path d="m5.6719-7.4219v-0.28125h-2.875c-1.4531 0-1.4688-0.15625-1.5156-0.375h-0.26562l-0.375 2.3906h0.26562c0.03125-0.21875 0.14062-0.95312 0.29688-1.0938 0.09375-0.0625 1-0.0625 1.1562-0.0625h2.5469l-1.2656 1.8125c-0.32812 0.46875-1.5312 2.4219-1.5312 4.6719 0 0.125 0 0.60938 0.48438 0.60938 0.5 0 0.5-0.46875 0.5-0.625v-0.59375c0-1.7812 0.28125-3.1719 0.84375-3.9688z"/>
</g>
<g id="k">
<path d="m4.3125-7.7812c0-0.23438 0-0.28125-0.17188-0.28125-0.09375 0-0.125 0-0.21875 0.14062l-3.5938 5.5781v0.34375h3.1406v1.0938c0 0.4375-0.03125 0.5625-0.90625 0.5625h-0.23438v0.34375c0.28125-0.03125 1.2188-0.03125 1.5625-0.03125 0.32812 0 1.2812 0 1.5625 0.03125v-0.34375h-0.23438c-0.875 0-0.90625-0.125-0.90625-0.5625v-1.0938h1.2031v-0.34375h-1.2031zm-0.78125 0.9375v4.5h-2.9062z"/>
</g>
<g id="ab">
<path d="m1.5312-6.8438c0.51562 0.15625 0.9375 0.17188 1.0625 0.17188 1.3438 0 2.2188-0.98438 2.2188-1.1562 0-0.046875-0.03125-0.10938-0.10938-0.10938-0.015625 0-0.046875 0-0.15625 0.046875-0.65625 0.28125-1.2344 0.32812-1.5469 0.32812-0.78125 0-1.3438-0.25-1.5781-0.34375-0.078125-0.03125-0.10938-0.03125-0.125-0.03125-0.09375 0-0.09375 0.078125-0.09375 0.26562v3.5469c0 0.21875 0 0.28125 0.14062 0.28125 0.0625 0 0.078125 0 0.20312-0.15625 0.32812-0.48438 0.89062-0.76562 1.4844-0.76562 0.64062 0 0.95312 0.57812 1.0469 0.78125 0.20312 0.46875 0.21875 1.0625 0.21875 1.5156s0 1.125-0.34375 1.6719c-0.26562 0.42188-0.71875 0.71875-1.25 0.71875-0.79688 0-1.5625-0.53125-1.7812-1.4062 0.0625 0.03125 0.125 0.03125 0.1875 0.03125 0.20312 0 0.53125-0.10938 0.53125-0.51562 0-0.34375-0.23438-0.53125-0.53125-0.53125-0.21875 0-0.53125 0.10938-0.53125 0.57812 0 1.0156 0.82812 2.1719 2.1406 2.1719 1.3594 0 2.5469-1.1406 2.5469-2.6562 0-1.4219-0.96875-2.6094-2.2188-2.6094-0.6875 0-1.2031 0.3125-1.5156 0.64062z"/>
</g>
<g id="aa">
<path d="m1.4688-4.1562c0-3.0312 1.4688-3.5 2.1094-3.5 0.4375 0 0.875 0.125 1.0938 0.48438-0.14062 0-0.59375 0-0.59375 0.48438 0 0.26562 0.17188 0.5 0.48438 0.5 0.29688 0 0.5-0.1875 0.5-0.53125 0-0.625-0.45312-1.2344-1.4844-1.2344-1.5156 0-3.0938 1.5469-3.0938 4.1719 0 3.2969 1.4375 4.0312 2.4531 4.0312 1.3125 0 2.4219-1.1406 2.4219-2.6875 0-1.5938-1.1094-2.6562-2.3125-2.6562-1.0625 0-1.4531 0.92188-1.5781 1.25zm1.4688 4.0781c-0.75 0-1.1094-0.65625-1.2188-0.90625-0.10938-0.3125-0.21875-0.90625-0.21875-1.7344 0-0.95312 0.42188-2.1406 1.5-2.1406 0.65625 0 1 0.45312 1.1875 0.85938 0.1875 0.4375 0.1875 1.0312 0.1875 1.5469 0 0.60938 0 1.1562-0.23438 1.6094-0.29688 0.5625-0.71875 0.76562-1.2031 0.76562z"/>
</g>
<g id="z">
<path d="m4.375-3.4844c0 2.8281-1.25 3.4062-1.9688 3.4062-0.29688 0-0.92188-0.03125-1.2188-0.45312h0.0625c0.09375 0.03125 0.51562-0.046875 0.51562-0.48438 0-0.26562-0.17188-0.48438-0.48438-0.48438s-0.5 0.20312-0.5 0.51562c0 0.73438 0.59375 1.2344 1.6406 1.2344 1.4844 0 2.9375-1.5938 2.9375-4.1875 0-3.2031-1.3438-4.0156-2.3906-4.0156-1.3125 0-2.4844 1.1094-2.4844 2.6875s1.125 2.6406 2.3125 2.6406c0.89062 0 1.3438-0.64062 1.5781-1.25zm-1.5312 0.625c-0.75 0-1.0781-0.60938-1.1875-0.82812-0.1875-0.45312-0.1875-1.0312-0.1875-1.5781 0-0.65625 0-1.2344 0.3125-1.7344 0.21875-0.3125 0.53125-0.65625 1.1875-0.65625 0.67188 0 1.0312 0.59375 1.1406 0.85938 0.23438 0.59375 0.23438 1.6094 0.23438 1.7812 0 1.0156-0.45312 2.1562-1.5 2.1562z"/>
</g>
<g id="v">
<path d="m5.9688-1.8438c0.015625-0.03125 0.03125-0.078125 0.03125-0.10938 0-0.015625 0-0.125-0.125-0.125-0.078125 0-0.09375 0.03125-0.17188 0.20312-0.5 1.1719-0.875 1.6094-2.1875 1.6094h-1.4375c-0.078125-0.015625-0.10938-0.015625-0.10938-0.0625 0-0.0625 0.015625-0.14062 0.046875-0.1875l0.54688-2.1719h0.84375c0.59375 0 0.70312 0.09375 0.70312 0.35938 0 0 0 0.125-0.046875 0.35938-0.015625 0.03125-0.03125 0.078125-0.03125 0.10938 0 0 0.015625 0.10938 0.125 0.10938 0.09375 0 0.10938-0.046875 0.14062-0.1875l0.42188-1.6719c0-0.015625 0.03125-0.14062 0.03125-0.15625 0-0.078125-0.0625-0.10938-0.125-0.10938-0.09375 0-0.10938 0.046875-0.14062 0.1875-0.17188 0.625-0.375 0.73438-1.0625 0.73438h-0.79688l0.46875-1.9062c0.078125-0.28125 0.078125-0.29688 0.40625-0.29688h1.25c0.95312 0 1.2656 0.1875 1.2656 0.89062 0 0.17188-0.046875 0.375-0.046875 0.51562 0 0.09375 0.0625 0.14062 0.125 0.14062 0.10938 0 0.10938-0.078125 0.125-0.20312l0.14062-1.3594c0.015625-0.046875 0.015625-0.09375 0.015625-0.14062 0-0.10938-0.09375-0.10938-0.23438-0.10938h-4.2031c-0.15625 0-0.25 0-0.25 0.15625 0 0.10938 0.10938 0.10938 0.23438 0.10938 0.03125 0 0.17188 0 0.3125 0.015625 0.17188 0.015625 0.1875 0.046875 0.1875 0.10938 0 0.046875-0.015625 0.09375-0.03125 0.125l-1.0625 4.2812c-0.078125 0.29688-0.09375 0.35938-0.6875 0.35938-0.14062 0-0.25 0-0.25 0.15625 0 0.10938 0.10938 0.10938 0.25 0.10938h4.3125c0.1875 0 0.20312 0 0.26562-0.14062z"/>
</g>
<g id="u">
<path d="m3.75-7.4531c0-0.375-0.0625-0.375-0.46875-0.375-0.78125 0.76562-2.0312 0.76562-2.4531 0.76562v0.5625c0.3125 0 0.875 0 1.5-0.20312v6.1406h-1.3438v0.5625c0.46875-0.03125 1.5469-0.03125 2.0625-0.03125s1.6406 0 2.0938 0.03125v-0.5625h-1.3906z"/>
</g>
<g id="t">
<path d="m4.7188-1.8594h0.90625v-0.5625h-0.90625v-5.0312c0-0.29688-0.015625-0.39062-0.34375-0.39062-0.1875 0-0.25 0-0.375 0.1875l-3.6719 5.2344v0.5625h2.9062v1.2969h-1.1719v0.5625c0.42188-0.03125 1.4062-0.03125 1.875-0.03125 0.48438 0 1.2188 0 1.6875 0.03125v-0.5625h-0.90625zm-1.3594-4.0312v3.4688h-2.4375z"/>
</g>
<g id="s">
<path d="m5.3594-2.6562h-0.54688c-0.046875 0.29688-0.125 0.875-0.26562 1.0625-0.0625 0.09375-1.0781 0.09375-1.0938 0.09375h-1.4375c0.32812-0.28125 1.0938-1.0312 1.4219-1.3281 0.23438-0.21875 0.85938-0.75 1.0938-0.96875 0.57812-0.60938 0.82812-1.1562 0.82812-1.7656 0-1.3281-1.0625-2.2656-2.5312-2.2656-1.2656 0-2.2344 0.8125-2.2344 1.8125 0 0.70312 0.57812 0.89062 0.85938 0.89062 0.39062 0 0.85938-0.26562 0.85938-0.85938 0-0.5-0.29688-0.79688-0.71875-0.85938 0.3125-0.35938 0.76562-0.42188 0.96875-0.42188 1.0156 0 1.1562 1.2031 1.1562 1.7031 0 0.65625-0.23438 1.4844-1.1094 2.5938l-1.8906 2.3594c-0.125 0.14062-0.125 0.17188-0.125 0.39062v0.21875h4.4062z"/>
</g>
<g id="r">
<path d="m1.7031-6.0312c0.20312 0.0625 0.26562 0.0625 0.625 0.0625 1.625 0 2.5781-1.3281 2.5781-1.6406 0-0.09375-0.03125-0.21875-0.17188-0.21875-0.03125 0-0.0625 0-0.15625 0.0625-0.54688 0.21875-1.0938 0.3125-1.5938 0.3125-0.71875 0-1.25-0.1875-1.5781-0.32812-0.078125-0.03125-0.10938-0.046875-0.15625-0.046875-0.17188 0-0.17188 0.15625-0.17188 0.34375v3.4375c0 0.25 0 0.40625 0.26562 0.40625 0.14062 0 0.1875-0.046875 0.25-0.125 0.125-0.1875 0.5-0.6875 1.3281-0.6875 0.75 0 0.75 0.875 0.75 1.9688 0 0.5625 0 1.0781-0.14062 1.4375-0.15625 0.46875-0.57812 0.67188-0.95312 0.67188-0.42188 0-0.92188-0.23438-1.2031-0.75 0.5625-0.015625 0.82812-0.375 0.82812-0.79688 0-0.64062-0.51562-0.8125-0.79688-0.8125-0.1875 0-0.8125 0.10938-0.8125 0.82812 0 0.95312 0.73438 2.0312 2.0312 2.0312 1.5625 0 2.7344-0.9375 2.7344-2.5469 0-1.4844-0.96875-2.4688-2.3906-2.4688-0.23438 0-0.73438 0.015625-1.2656 0.375z"/>
</g>
</defs>
<path transform="matrix(.1 0 0 -.1 -.472 152.6)" d="m2916.2 670.27h850.51" fill="none" stroke="#000" stroke-miterlimit="10" stroke-width="2.3625"/>
<path transform="matrix(.1 0 0 -.1 -.472 152.6)" d="m2916.2 457.61h850.51" fill="none" stroke="#000" stroke-miterlimit="10" stroke-width="2.3625"/>
<path transform="matrix(.1 0 0 -.1 -.472 152.6)" d="m2916.2 244.99h850.51" fill="none" stroke="#000" stroke-miterlimit="10" stroke-width="2.3625"/>
<path transform="matrix(.1 0 0 -.1 -.472 152.6)" d="m3341.5 1095.5v-1063.1" fill="none" stroke="#000" stroke-miterlimit="10" stroke-width="2.3625"/>
<path transform="matrix(.1 0 0 -.1 -.472 152.6)" d="m3128.9 1095.5h637.89v212.62h-637.89z" fill="none" stroke="#000" stroke-miterlimit="10" stroke-width="2.3625"/>
<path transform="matrix(.1 0 0 -.1 -.472 152.6)" d="m3554.1 1095.5v-1063.1" fill="none" stroke="#000" stroke-miterlimit="10" stroke-width="2.3625"/>
<path transform="matrix(.1 0 0 -.1 -.472 152.6)" d="m3766.8 1095.5v-212.62" fill="none" stroke="#000" stroke-miterlimit="10" stroke-width="2.3625"/>
<path transform="matrix(.1 0 0 -.1 -.472 152.6)" d="m2916.2 882.88v-850.51" fill="none" stroke="#000" stroke-miterlimit="10" stroke-width="2.3625"/>
<path transform="matrix(.1 0 0 -.1 -.472 152.6)" d="m1002.6 131.6h992.27" fill="none" stroke="#000" stroke-miterlimit="10" stroke-width="4.725"/>
<path transform="matrix(.1 0 0 -.1 -.472 152.6)" d="m2108.3 1095.5v-850.51" fill="none" stroke="#000" stroke-miterlimit="10" stroke-width="4.725"/>
<path transform="matrix(.1 0 0 -.1 -.472 152.6)" d="m1002.6 1208.9h992.27" fill="none" stroke="#000" stroke-miterlimit="10" stroke-width="4.725"/>
<path transform="matrix(.1 0 0 -.1 -.472 152.6)" d="m903.39 1095.5v-850.51" fill="none" stroke="#000" stroke-miterlimit="10" stroke-width="4.725"/>
<path transform="matrix(.1 0 0 -.1 -.472 152.6)" d="m223 811.99 566.99 283.52" fill="none" stroke="#000" stroke-miterlimit="10" stroke-width="4.725"/>
<path transform="matrix(.1 0 0 -.1 -.472 152.6)" d="m223 599.37 566.99-354.38" fill="none" stroke="#000" stroke-miterlimit="10" stroke-width="4.725"/>
<path transform="matrix(.1 0 0 -.1 -.472 152.6)" d="m789.99 32.377h212.62v212.62h-212.62z" fill="none" stroke="#000" stroke-miterlimit="10" stroke-width="9.45"/>
<path transform="matrix(.1 0 0 -.1 -.472 152.6)" d="m1994.9 32.377h212.62v212.62h-212.62z" fill="none" stroke="#000" stroke-miterlimit="10" stroke-width="9.45"/>
<path transform="matrix(.1 0 0 -.1 -.472 152.6)" d="m789.99 1095.5h212.62v212.62h-212.62z" fill="none" stroke="#000" stroke-miterlimit="10" stroke-width="9.45"/>
<path transform="matrix(.1 0 0 -.1 -.472 152.6)" d="m10.384 599.37h212.62v212.62h-212.62z" fill="none" stroke="#000" stroke-miterlimit="10" stroke-width="9.45"/>
<path transform="matrix(.1 0 0 -.1 -.472 152.6)" d="m2632.8 32.377h1134v850.51h-1134z" fill="none" stroke="#000" stroke-miterlimit="10" stroke-width="2.3625"/>
<path transform="matrix(.1 0 0 -.1 -.472 152.6)" d="m1994.9 1095.5h212.62v212.62h-212.62z" fill="none" stroke="#000" stroke-miterlimit="10" stroke-width="9.45"/>
<path transform="matrix(.1 0 0 -.1 -.472 152.6)" d="m3128.9 1095.5v-1063.1" fill="none" stroke="#000" stroke-miterlimit="10" stroke-width="2.3625"/>
<g>
<use x="83.699" y="36.184" xlink:href="#g"/>
<use x="145.052" y="24.845" xlink:href="#a"/>
<use x="217.432" y="82.959" xlink:href="#m"/>
<use x="96.954668" y="82.959" xlink:href="#j"/>
<use x="319.451" y="33.349" xlink:href="#y"/>
<use x="328.226117" y="33.349" xlink:href="#b"/>
<use x="334.079383" y="33.349" xlink:href="#x"/>
<use x="338.959495" y="33.349" xlink:href="#w"/>
<use x="345.140334" y="33.349" xlink:href="#i"/>
<use x="351.643963" y="33.349" xlink:href="#b"/>
<use x="357.497228" y="33.349" xlink:href="#h"/>
<use x="268.951" y="105.637" xlink:href="#al"/>
<use x="276.104992" y="105.637" xlink:href="#o"/>
<use x="279.356806" y="105.637" xlink:href="#d"/>
<use x="284.559709" y="105.637" xlink:href="#c"/>
<use x="284.391" y="51.775" xlink:href="#am"/>
<use x="290.474" y="53.569" xlink:href="#v"/>
<use x="297.625" y="51.775" xlink:href="#ak"/>
<use x="302.17754" y="51.775" xlink:href="#aj"/>
<use x="361.578" y="9.253" xlink:href="#q"/>
<use x="264.649" y="9.253" xlink:href="#ai"/>
<use x="273.589099" y="9.253" xlink:href="#o"/>
<use x="276.840913" y="9.253" xlink:href="#ah"/>
<use x="281.458011" y="9.253" xlink:href="#n"/>
<use x="286.010551" y="9.253" xlink:href="#b"/>
<use x="291.863817" y="9.253" xlink:href="#ag"/>
<use x="298.367446" y="9.253" xlink:href="#af"/>
<use x="303.570349" y="9.253" xlink:href="#n"/>
<use x="308.122889" y="9.253" xlink:href="#b"/>
<use x="313.976155" y="9.253" xlink:href="#i"/>
<use x="320.802574" y="9.253" xlink:href="#d"/>
<use x="326.005477" y="9.253" xlink:href="#c"/>
<use x="329.257292" y="9.253" xlink:href="#c"/>
<use x="332.509106" y="9.253" xlink:href="#d"/>
<use x="341.609404" y="9.253" xlink:href="#ae"/>
<use x="345.516" y="9.724" xlink:href="#ad"/>
<use x="345.191" y="9.253" xlink:href="#ac"/>
<use x="351.694629" y="9.253" xlink:href="#h"/>
<use x="50.177" y="68.784" xlink:href="#l"/>
<use x="145.052" y="149.577" xlink:href="#m"/>
<use x="44.324" y="122.646" xlink:href="#a"/>
<use x="340.251" y="56.028" xlink:href="#g"/>
<use x="359.820467" y="56.028" xlink:href="#f"/>
<use x="319.332" y="78.706" xlink:href="#u"/>
</g>
<path transform="matrix(1 0 0 -1 319.33 80.101)" d="m3.125e-5 -5.625e-4h5.9766" fill="none" stroke="#000" stroke-miterlimit="10" stroke-width=".398"/>
<g>
<use x="339.147" y="78.706" xlink:href="#a"/>
<use x="345.000266" y="78.706" xlink:href="#k"/>
<use x="361.912092" y="78.706" xlink:href="#ab"/>
<use x="319.394" y="98.55" xlink:href="#l"/>
<use x="319.394" y="119.811" xlink:href="#aa"/>
<use x="342.073" y="121.229" xlink:href="#z"/>
<use x="361.855" y="119.811" xlink:href="#t"/>
</g>
<path transform="matrix(1 0 0 -1 361.86 121.21)" d="m4.6875e-4 -0.0010312h5.9766" fill="none" stroke="#000" stroke-miterlimit="10" stroke-width=".398"/>
<g>
<use x="319.394" y="141.073" xlink:href="#k"/>
<use x="296.672" y="78.706" xlink:href="#e"/>
<use x="363.272" y="141.073" xlink:href="#s"/>
</g>
<path transform="matrix(1 0 0 -1 363.27 142.47)" d="m0.0014375-0.00175h5.9766" fill="none" stroke="#000" stroke-miterlimit="10" stroke-width=".398"/>
<g>
<use x="337.729" y="141.073" xlink:href="#a"/>
<use x="343.582266" y="141.073" xlink:href="#a"/>
<use x="296.443" y="121.229" xlink:href="#p"/>
<use x="319.351" y="56.028" xlink:href="#e"/>
<use x="342.073" y="98.55" xlink:href="#j"/>
<use x="361.855" y="98.55" xlink:href="#r"/>
</g>
<path transform="matrix(1 0 0 -1 361.86 99.945)" d="m4.6875e-4 -3.125e-4h5.9766" fill="none" stroke="#000" stroke-miterlimit="10" stroke-width=".398"/>
<g>
<use x="296.312" y="99.968" xlink:href="#g"/>
<use x="296.037" y="142.49" xlink:href="#f"/>
<use x="205.004" y="36.184" xlink:href="#p"/>
<use x="204.598" y="142.49" xlink:href="#f"/>
<use x="84.460195" y="142.49" xlink:href="#q"/>
<use x="6.795" y="85.793" xlink:href="#e"/>
</g>
</svg>
