<svg width="788pt" height="527pt" version="1.1" viewBox="0 0 788 527" xmlns="http://www.w3.org/2000/svg" xmlns:xlink="http://www.w3.org/1999/xlink">
<defs>
<g id="v">
<path d="m13.281-6.625c0.3125 0 0.625 0 0.625-0.35938 0-0.375-0.35938-0.375-0.70312-0.375h-11.547c-0.35938 0-0.70312 0-0.70312 0.375 0 0.35938 0.3125 0.35938 0.60938 0.35938zm-0.078125 3.6719c0.34375 0 0.70312 0 0.70312-0.375 0-0.34375-0.3125-0.34375-0.625-0.34375h-11.719c-0.29688 0-0.60938 0-0.60938 0.34375 0 0.375 0.34375 0.375 0.70312 0.375z"/>
</g>
<g id="a">
<path d="m5.5-13.203c0-0.4375-0.03125-0.45312-0.3125-0.45312-0.8125 0.96875-2.0312 1.2812-3.1875 1.3281-0.0625 0-0.15625 0-0.1875 0.03125-0.015625 0.046875-0.015625 0.09375-0.015625 0.51562 0.64062 0 1.7188-0.10938 2.5469-0.60938v10.875c0 0.73438-0.046875 0.98438-1.8281 0.98438h-0.60938v0.53125c0.98438-0.015625 2.0156-0.046875 3.0156-0.046875 0.98438 0 2.0156 0.03125 3.0156 0.046875v-0.53125h-0.625c-1.7812 0-1.8125-0.23438-1.8125-0.98438z"/>
</g>
<g id="b">
<path d="m8.6719-6.625c0-1.2656-0.015625-3.4062-0.89062-5.0625-0.76562-1.4531-1.9844-1.9688-3.0469-1.9688-1 0-2.25 0.45312-3.0469 1.9375-0.8125 1.5625-0.90625 3.4844-0.90625 5.0938 0 1.1719 0.03125 2.9688 0.67188 4.5312 0.875 2.1406 2.4688 2.4219 3.2812 2.4219 0.95312 0 2.3906-0.39062 3.2344-2.3594 0.625-1.4219 0.70312-3.0938 0.70312-4.5938zm-3.9375 6.625c-1.3281 0-2.1094-1.1406-2.4062-2.7031-0.21875-1.2188-0.21875-3-0.21875-4.1562 0-1.5938 0-2.9062 0.26562-4.1719 0.39062-1.75 1.5469-2.2969 2.3594-2.2969 0.84375 0 1.9375 0.5625 2.3281 2.25 0.26562 1.1875 0.29688 2.5625 0.29688 4.2188 0 1.3438 0 3-0.25 4.2188-0.4375 2.25-1.6562 2.6406-2.375 2.6406z"/>
</g>
<g id="p">
<path d="m7.625-8.6562 3.5781-3.5781c0.73438-0.71875 1.5156-1.2969 2.6719-1.3438v-0.53125c-0.40625 0.015625-0.92188 0.046875-1.3438 0.046875-0.54688 0-1.5156 0-2.0625-0.046875v0.53125c0.54688 0.046875 0.625 0.42188 0.625 0.5625s-0.078125 0.375-0.17188 0.5l-6.8594 6.875v-7c0-0.9375 0.23438-0.9375 1.6562-0.9375v-0.53125c-0.59375 0.046875-1.6875 0.046875-2.3281 0.046875s-1.7344 0-2.3438-0.046875v0.53125c1.4375 0 1.6562 0 1.6562 0.9375v11.172c0 0.9375-0.21875 0.9375-1.6562 0.9375v0.53125c0.60938-0.046875 1.7031-0.046875 2.3438-0.046875s1.7344 0 2.3281 0.046875v-0.53125c-1.4219 0-1.6562 0-1.6562-0.9375v-3.6562l2.6562-2.625 3.9062 6c0.10938 0.20312 0.26562 0.46875 0.26562 0.67188 0 0.54688-0.57812 0.54688-0.85938 0.54688v0.53125c0.67188-0.046875 1.625-0.046875 2.2969-0.046875 0.5 0 1.3438 0 1.8281 0.046875v-0.53125c-1 0-1.3125-0.125-1.9219-1.0781z"/>
</g>
<g id="f">
<path d="m8.9062-4.4219c0-2.6406-1.9219-4.7031-4.1719-4.7031s-4.1719 2.0625-4.1719 4.7031c0 2.6094 1.9219 4.5938 4.1719 4.5938s4.1719-1.9844 4.1719-4.5938zm-4.1719 4.2188c-0.96875 0-1.7969-0.57812-2.2812-1.3906-0.51562-0.92188-0.57812-2.0781-0.57812-2.9844 0-0.875 0.046875-1.9531 0.57812-2.875 0.42188-0.6875 1.2188-1.3438 2.2812-1.3438 0.92188 0 1.7031 0.51562 2.2031 1.2344 0.64062 0.96875 0.64062 2.3438 0.64062 2.9844 0 0.79688-0.03125 2.0312-0.59375 3.0312-0.57812 0.95312-1.4688 1.3438-2.25 1.3438z"/>
</g>
<g id="c">
<path d="m7.875-4.8594c0.078125-0.078125 0.078125-0.125 0.078125-0.32812 0-2.1094-1.1094-3.9375-3.4688-3.9375-2.1875 0-3.9219 2.0781-3.9219 4.625 0 2.6875 1.9531 4.6719 4.1406 4.6719 2.3125 0 3.2344-2.2031 3.2344-2.625 0-0.15625-0.125-0.15625-0.17188-0.15625-0.14062 0-0.17188 0.046875-0.25 0.29688-0.45312 1.4062-1.5938 2.1094-2.6562 2.1094-0.89062 0-1.7812-0.5-2.3438-1.4062-0.64062-1.0625-0.64062-2.2812-0.64062-3.25zm-5.9688-0.3125c0.14062-2.9688 1.7344-3.625 2.5625-3.625 1.3906 0 2.3438 1.3125 2.375 3.625z"/>
</g>
<g id="o">
<path d="m13.406-9.0625c-0.5 0.015625-2.0312 0.125-2.4219 0.15625-0.125 0.03125-0.15625 0.03125-0.40625 0.03125h-2.3594v-2.4219c0-1.9688 1.5781-2.875 2.8125-2.875 0.39062 0 1.2812 0.10938 1.7344 0.8125-0.20312 0-0.875 0-0.875 0.71875 0 0.5 0.34375 0.75 0.75 0.75 0.375 0 0.75-0.21875 0.75-0.76562 0-1.0312-1-1.8438-2.2812-1.8438-0.64062 0-1.9844 0.14062-3.0469 1.1562-0.28125-0.53125-0.95312-1.1562-2.1406-1.1562-1.5781 0-3.875 0.92188-3.875 3.2031v2.4219h-1.6562v0.53125h1.6562v6.9219c0 0.78125-0.078125 0.89062-1.4062 0.89062v0.53125c0.5-0.046875 1.4062-0.046875 1.9219-0.046875 0.53125 0 1.4375 0 1.9375 0.046875v-0.53125c-1.3125 0-1.4062-0.09375-1.4062-0.89062v-6.9219h4.1094v6.9219c0 0.78125-0.078125 0.89062-1.4062 0.89062v0.53125c0.5-0.046875 1.4062-0.046875 1.9219-0.046875 0.54688 0 1.4531 0 1.9531 0.046875v-0.53125c-1.3281 0-1.4062-0.09375-1.4062-0.89062v-6.9219h3.0312c0.89062 0 1.0625 0.1875 1.0625 1.0938v5.8281c0 0.78125-0.09375 0.89062-1.4062 0.89062v0.53125c0.48438-0.046875 1.4062-0.046875 1.9219-0.046875 0.53125 0 1.4375 0 1.9375 0.046875v-0.53125c-1.3281 0-1.4062-0.09375-1.4062-0.89062zm-10.344 0.1875v-2.4219c0-1.9375 1.5156-2.875 2.7969-2.875 0.73438 0 1.4375 0.3125 1.7344 0.8125-0.20312 0-0.875 0-0.875 0.71875 0 0.375 0.20312 0.625 0.53125 0.71875-0.046875 0.1875-0.046875 0.60938-0.046875 0.625v2.4219z"/>
</g>
<g id="n">
<path d="m7.4531-8.4062c0.17188-0.20312 0.17188-0.25 0.17188-0.29688 0-0.17188-0.078125-0.17188-0.45312-0.17188h-6.2812l-0.20312 3.1875h0.35938c0.15625-2 0.375-2.8594 2.75-2.8594h2.5312l-5.9219 8.2344c0 0.29688 0.03125 0.3125 0.46875 0.3125h6.5156l0.29688-3.7188h-0.375c-0.17188 2.2969-0.4375 3.3438-2.9531 3.3438h-2.6406z"/>
</g>
<g id="m">
<path d="m3.2031-12.719c0-0.45312-0.375-0.85938-0.84375-0.85938-0.45312 0-0.84375 0.375-0.84375 0.85938 0 0.45312 0.35938 0.84375 0.84375 0.84375 0.45312 0 0.84375-0.375 0.84375-0.84375zm-2.4219 3.9062v0.53125c1.1562 0 1.3281 0.125 1.3281 1.1094v5.75c0 0.78125-0.078125 0.89062-1.4062 0.89062v0.53125c0.5-0.046875 1.3906-0.046875 1.9062-0.046875 0.48438 0 1.3438 0 1.8125 0.046875v-0.53125c-1.2188 0-1.2656-0.125-1.2656-0.875v-7.6406z"/>
</g>
<g id="d">
<path d="m8.5781-6.2812c0-1.0469-0.21875-2.7656-2.6562-2.7656-1.625 0-2.4688 1.2656-2.7812 2.0781h-0.015625v-2.0781l-2.4375 0.23438v0.53125c1.2188 0 1.4062 0.125 1.4062 1.1094v5.75c0 0.78125-0.09375 0.89062-1.4062 0.89062v0.53125c0.48438-0.046875 1.4062-0.046875 1.9375-0.046875s1.4688 0 1.9531 0.046875v-0.53125c-1.3125 0-1.3906-0.09375-1.3906-0.89062v-3.9688c0-1.9062 1.1562-3.3281 2.5938-3.3281 1.5312 0 1.7031 1.3594 1.7031 2.3594v4.9375c0 0.78125-0.09375 0.89062-1.4062 0.89062v0.53125c0.48438-0.046875 1.4062-0.046875 1.9375-0.046875s1.4688 0 1.9688 0.046875v-0.53125c-1.3281 0-1.4062-0.09375-1.4062-0.89062z"/>
</g>
<g id="u">
<path d="m3.125-8.3438h2.8906v-0.53125h-2.8906v-3.8281h-0.375c-0.046875 2.125-0.76562 3.9844-2.5156 4.0312v0.32812h1.7969v5.7969c0 0.40625 0 2.7188 2.3906 2.7188 1.2188 0 1.9219-1.2031 1.9219-2.7344v-1.1719h-0.375v1.1562c0 1.4219-0.5625 2.375-1.4219 2.375-0.59375 0-1.4219-0.42188-1.4219-2.2969z"/>
</g>
<g id="t">
<path d="m8.0781-7.0156c0.1875-0.46875 0.51562-1.2812 1.7188-1.3281v-0.53125c-0.39062 0.015625-0.92188 0.03125-1.3125 0.03125-0.42188 0-1.1094 0-1.5156-0.03125v0.53125c0.51562 0.046875 0.79688 0.28125 0.79688 0.82812 0 0.1875 0 0.21875-0.125 0.51562l-2.2656 5.7344-2.4688-6.1875c-0.125-0.26562-0.125-0.3125-0.125-0.39062 0-0.5 0.6875-0.5 1-0.5v-0.53125c-0.5 0.03125-1.4062 0.03125-1.9219 0.03125-0.5625 0-1.2031 0-1.6562-0.03125v0.53125c0.78125 0 1.2188 0 1.4688 0.64062l3 7.5156c0.125 0.3125 0.14062 0.35938 0.32812 0.35938s0.20312-0.046875 0.32812-0.35938z"/>
</g>
<g id="s">
<path d="m6.3281 5.0469c0-0.03125 0-0.0625-0.0625-0.125-0.95312-0.96875-3.5-3.625-3.5-10.062 0-6.4531 2.5-9.0781 3.5156-10.109 0-0.015625 0.046875-0.0625 0.046875-0.125s-0.0625-0.09375-0.15625-0.09375c-0.21875 0-1.9844 1.5312-2.9844 3.7969-1.0469 2.2969-1.3281 4.5312-1.3281 6.5 0 1.5 0.14062 4.0156 1.3906 6.6875 0.98438 2.1406 2.6719 3.6562 2.9219 3.6562 0.10938 0 0.15625-0.046875 0.15625-0.125z"/>
</g>
<g id="r">
<path d="m5.4375-5.1406c0-1.4844-0.15625-4.0156-1.3906-6.6719-0.98438-2.1562-2.6875-3.6562-2.9375-3.6562-0.0625 0-0.14062 0.015625-0.14062 0.125 0 0.03125 0.015625 0.0625 0.046875 0.09375 0.98438 1.0312 3.5156 3.6562 3.5156 10.078 0 6.4531-2.5 9.0781-3.5156 10.109-0.03125 0.046875-0.046875 0.0625-0.046875 0.10938 0 0.09375 0.078125 0.125 0.14062 0.125 0.23438 0 1.9844-1.5312 3-3.8125 1.0312-2.2812 1.3281-4.5156 1.3281-6.5z"/>
</g>
<g id="q">
<path d="m3.4219-8.0312c0-0.51562-0.40625-0.84375-0.84375-0.84375-0.40625 0-0.84375 0.32812-0.84375 0.84375s0.40625 0.84375 0.84375 0.84375c0.42188 0 0.84375-0.32812 0.84375-0.84375zm0 7.1875c0-0.51562-0.40625-0.84375-0.84375-0.84375-0.40625 0-0.84375 0.32812-0.84375 0.84375s0.40625 0.84375 0.84375 0.84375c0.42188 0 0.84375-0.32812 0.84375-0.84375z"/>
</g>
<g id="e">
<path d="m6.4844-12.875c0-0.65625-0.10938-0.65625-0.79688-0.65625-1.375 1.3281-3.5469 1.3281-4.2656 1.3281v0.96875c0.54688 0 1.5156 0 2.6094-0.35938v10.625h-2.3125v0.96875c0.78125-0.0625 2.6562-0.0625 3.5469-0.0625s2.8281 0 3.6094 0.0625v-0.96875h-2.3906z"/>
</g>
<g id="l">
<path d="m9.5-6.5938c0-1.9531 0-6.9375-4.3281-6.9375-4.3594 0-4.3594 4.9375-4.3594 6.9375 0 1.9844 0 6.8281 4.3281 6.8281 4.3594 0 4.3594-4.8125 4.3594-6.8281zm-4.3281 6.0781c-0.40625 0-1.5156-0.23438-1.6406-2.1875-0.078125-1.0625-0.078125-3.4375-0.078125-4.1094 0-0.90625 0-3.0469 0.0625-3.9219 0.15625-1.9844 1.4219-2.0469 1.625-2.0469 0.54688 0 1.5156 0.34375 1.6406 2.0156 0.078125 0.9375 0.078125 3.2031 0.078125 3.9219 0 1.375 0 3.25-0.078125 4.2344-0.15625 1.7969-1.2031 2.0938-1.6094 2.0938z"/>
</g>
<g id="k">
<path d="m3.5156-2.2969c-0.73438 1.2188-1.4219 1.6406-2.4219 1.7031-0.21875 0.015625-0.39062 0.015625-0.39062 0.39062 0 0.125 0.10938 0.20312 0.25 0.20312 0.375 0 1.2969-0.046875 1.6719-0.046875 0.59375 0 1.2656 0.046875 1.8438 0.046875 0.10938 0 0.35938 0 0.35938-0.39062 0-0.1875-0.15625-0.20312-0.28125-0.20312-0.48438-0.046875-0.875-0.21875-0.875-0.70312 0-0.29688 0.125-0.51562 0.39062-0.96875l1.5781-2.6094h5.2656c0.015625 0.1875 0.015625 0.34375 0.046875 0.53125 0.0625 0.54688 0.29688 2.6875 0.29688 3.0781 0 0.625-1.0469 0.67188-1.375 0.67188-0.23438 0-0.45312 0-0.45312 0.35938 0 0.23438 0.1875 0.23438 0.3125 0.23438 0.34375 0 0.76562-0.046875 1.1094-0.046875h1.1719c1.2656 0 2.1719 0.046875 2.2031 0.046875 0.14062 0 0.35938 0 0.35938-0.39062 0-0.20312-0.1875-0.20312-0.48438-0.20312-1.1406 0-1.1562-0.1875-1.2188-0.8125l-1.2656-12.891c-0.046875-0.40625-0.125-0.45312-0.35938-0.45312-0.20312 0-0.32812 0.046875-0.51562 0.35938zm2.4688-3.1719 4.1562-6.9531 0.70312 6.9531z"/>
</g>
<g id="j">
<path d="m15.406-14.359c0-0.1875-0.14062-0.1875-0.1875-0.1875-0.03125 0-0.125 0-0.28125 0.21875l-1.4219 1.7031c-0.10938-0.15625-0.51562-0.89062-1.3281-1.3594-0.89062-0.5625-1.7812-0.5625-2.0938-0.5625-4.4062 0-9.0625 4.5156-9.0625 9.375 0 3.4219 2.3594 5.6094 5.4531 5.6094 1.4844 0 3.375-0.5 4.4062-1.7969 0.21875 0.78125 0.67188 1.3438 0.82812 1.3438 0.09375 0 0.125-0.0625 0.14062-0.0625 0.015625-0.046875 0.1875-0.76562 0.28125-1.1406l0.32812-1.3281c0.17188-0.67188 0.25-0.96875 0.40625-1.5781 0.20312-0.79688 0.23438-0.85938 1.375-0.875 0.078125 0 0.32812 0 0.32812-0.39062 0-0.20312-0.20312-0.20312-0.26562-0.20312-0.34375 0-0.73438 0.03125-1.1094 0.03125h-1.125c-0.85938 0-1.7656-0.03125-2.625-0.03125-0.17188 0-0.42188 0-0.42188 0.375 0 0.20312 0.15625 0.20312 0.15625 0.21875h0.51562c1.6406 0 1.6406 0.17188 1.6406 0.46875 0 0.03125-0.39062 2.1094-0.78125 2.7344-0.79688 1.1562-2.4219 1.625-3.6406 1.625-1.5938 0-4.1719-0.8125-4.1719-4.3906 0-1.3906 0.5-4.5469 2.5-6.875 1.2969-1.5 3.2188-2.5 5.0312-2.5 2.4375 0 3.3125 2.0781 3.3125 3.9844 0 0.32812-0.078125 0.78125-0.078125 1.0781 0 0.17188 0.20312 0.17188 0.26562 0.17188 0.21875 0 0.25-0.015625 0.32812-0.39062z"/>
</g>
<g id="i">
<path d="m7.5938-12.703c0.1875-0.76562 0.28125-0.8125 1.0781-0.8125h1.4844c1.7812 0 3.1094 0.54688 3.1094 2.1562 0 1.0469-0.54688 4.0938-4.6875 4.0938h-2.3438zm2.875 5.6875c2.5625-0.5625 4.5625-2.2188 4.5625-4 0-1.6094-1.625-3.0938-4.5-3.0938h-5.5938c-0.40625 0-0.59375 0-0.59375 0.39062 0 0.20312 0.14062 0.20312 0.53125 0.20312 1.2344 0 1.2344 0.17188 1.2344 0.40625 0 0.03125 0 0.15625-0.078125 0.46875l-2.7812 11.109c-0.1875 0.71875-0.23438 0.9375-1.6562 0.9375-0.48438 0-0.625 0-0.625 0.39062 0 0.20312 0.23438 0.20312 0.29688 0.20312 0.35938 0 0.79688-0.046875 1.1875-0.046875h2.4375c0.375 0 0.8125 0.046875 1.1875 0.046875 0.15625 0 0.39062 0 0.39062-0.39062 0-0.20312-0.1875-0.20312-0.5-0.20312-1.2656 0-1.2656-0.17188-1.2656-0.375 0-0.015625 0-0.17188 0.046875-0.32812l1.3906-5.5625h2.4688c1.9688 0 2.3438 1.2344 2.3438 1.9219 0 0.3125-0.21875 1.1094-0.35938 1.6562-0.21875 0.95312-0.28125 1.1719-0.28125 1.5625 0 1.4688 1.1875 2.1562 2.5781 2.1562 1.6719 0 2.3906-2.0469 2.3906-2.3438 0-0.14062-0.09375-0.20312-0.21875-0.20312-0.17188 0-0.20312 0.125-0.25 0.29688-0.5 1.4688-1.3438 1.8281-1.8594 1.8281s-0.84375-0.21875-0.84375-1.1562c0-0.48438 0.25-2.375 0.26562-2.4688 0.09375-0.76562 0.09375-0.85938 0.09375-1.0156 0-1.5156-1.2188-2.1562-2-2.3906z"/>
</g>
<g id="h">
<path d="m4.25-6.0469c0.046875-0.125 0.5625-1.1562 1.3281-1.8281 0.53125-0.48438 1.2344-0.82812 2.0469-0.82812 0.82812 0 1.1094 0.625 1.1094 1.4531 0 0.125 0 0.53125-0.25 1.5l-0.51562 2.1406c-0.15625 0.60938-0.54688 2.1406-0.59375 2.375-0.078125 0.3125-0.20312 0.84375-0.20312 0.92188 0 0.29688 0.21875 0.51562 0.53125 0.51562 0.625 0 0.71875-0.46875 0.90625-1.2188l1.25-4.9375c0.03125-0.15625 1.1094-2.75 3.375-2.75 0.82812 0 1.125 0.625 1.125 1.4531 0 1.1562-0.8125 3.4062-1.2656 4.6406-0.1875 0.5-0.28125 0.76562-0.28125 1.1406 0 0.9375 0.64062 1.6719 1.625 1.6719 1.9219 0 2.6406-3.0312 2.6406-3.1562 0-0.10938-0.078125-0.1875-0.20312-0.1875-0.1875 0-0.20312 0.0625-0.3125 0.40625-0.46875 1.6562-1.2344 2.5312-2.0625 2.5312-0.20312 0-0.53125-0.03125-0.53125-0.6875 0-0.53125 0.25-1.2031 0.32812-1.4219 0.375-1 1.2969-3.4375 1.2969-4.625 0-1.25-0.71875-2.1719-2.2969-2.1719-1.375 0-2.5 0.78125-3.3125 2-0.0625-1.1094-0.75-2-2.2969-2-1.8438 0-2.8125 1.2969-3.1875 1.8125-0.0625-1.1719-0.90625-1.8125-1.8125-1.8125-0.59375 0-1.0781 0.29688-1.4688 1.0781-0.375 0.73438-0.65625 2-0.65625 2.0781 0 0.09375 0.078125 0.1875 0.21875 0.1875 0.17188 0 0.1875-0.015625 0.3125-0.5 0.3125-1.2188 0.70312-2.4375 1.5312-2.4375 0.46875 0 0.64062 0.34375 0.64062 0.95312 0 0.45312-0.20312 1.2656-0.35938 1.9062l-0.57812 2.2344c-0.078125 0.39062-0.29688 1.3125-0.40625 1.6875-0.14062 0.53125-0.375 1.5156-0.375 1.6094 0 0.29688 0.23438 0.51562 0.54688 0.51562 0.23438 0 0.53125-0.125 0.6875-0.4375 0.046875-0.09375 0.23438-0.8125 0.34375-1.2344l0.45312-1.8594z"/>
</g>
<g id="g">
<path d="m9.7969-8.4219c-0.67188 0.125-0.92188 0.60938-0.92188 1 0 0.5 0.40625 0.67188 0.6875 0.67188 0.625 0 1.0625-0.54688 1.0625-1.0938 0-0.875-1-1.2656-1.8594-1.2656-1.2656 0-1.9688 1.2344-2.1562 1.625-0.46875-1.5469-1.75-1.625-2.125-1.625-2.1094 0-3.2188 2.7031-3.2188 3.1562 0 0.09375 0.078125 0.1875 0.21875 0.1875 0.17188 0 0.20312-0.125 0.25-0.20312 0.70312-2.2969 2.0938-2.7344 2.6875-2.7344 0.92188 0 1.1094 0.875 1.1094 1.375 0 0.45312-0.125 0.92188-0.35938 1.9219l-0.70312 2.8281c-0.3125 1.2344-0.92188 2.375-2.0156 2.375-0.09375 0-0.60938 0-1.0469-0.26562 0.73438-0.15625 0.90625-0.76562 0.90625-1.0156 0-0.42188-0.3125-0.65625-0.70312-0.65625-0.5 0-1.0312 0.42188-1.0312 1.0938 0 0.85938 0.96875 1.25 1.8594 1.25 0.98438 0 1.6875-0.78125 2.125-1.625 0.32812 1.2188 1.3594 1.625 2.125 1.625 2.1094 0 3.2344-2.7031 3.2344-3.1562 0-0.10938-0.09375-0.1875-0.21875-0.1875-0.1875 0-0.20312 0.10938-0.26562 0.26562-0.5625 1.8281-1.75 2.6719-2.6875 2.6719-0.71875 0-1.1094-0.54688-1.1094-1.3906 0-0.45312 0.078125-0.78125 0.40625-2.1406l0.73438-2.8125c0.29688-1.2344 1-2.1562 1.9531-2.1562 0.046875 0 0.625 0 1.0625 0.28125z"/>
</g>
</defs>
<path transform="matrix(.1 0 0 -.1 -.472 531.85)" d="m38.079 4120.3h1530.7" fill="none" stroke="#000" stroke-miterlimit="10" stroke-width="4.7242"/>
<path transform="matrix(.1 0 0 -.1 -.472 531.85)" d="m576.63 3269.9h1842.5" fill="none" stroke="#000" stroke-miterlimit="10" stroke-width="4.7242"/>
<path transform="matrix(.1 0 0 -.1 -.472 531.85)" d="m1427 2419.6h1842.4" fill="none" stroke="#000" stroke-miterlimit="10" stroke-width="4.7242"/>
<path transform="matrix(.1 0 0 -.1 -.472 531.85)" d="m2277.4 1569.2h1275.5" fill="none" stroke="#000" stroke-miterlimit="10" stroke-width="4.7242"/>
<path transform="matrix(.1 0 0 -.1 -.472 531.85)" d="m2560.8 718.81h992.11" fill="none" stroke="#000" stroke-miterlimit="10" stroke-width="4.7242"/>
<path transform="matrix(.1 0 0 -.1 -.472 531.85)" d="m9.72 4970.6h2692.8" fill="none" stroke="#000" stroke-miterlimit="10" stroke-width="4.7242"/>
<path transform="matrix(.1 0 0 -.1 -.472 531.85)" d="m3836.4 4970.6h992.11" fill="none" stroke="#000" stroke-miterlimit="10" stroke-width="4.7242"/>
<path transform="matrix(.1 0 0 -.1 -.472 531.85)" d="m5253.7 4970.6h2551.1" fill="none" stroke="#000" stroke-miterlimit="10" stroke-width="4.7242"/>
<g>
<use x="493.734" y="58.618" xlink:href="#v"/>
<use x="439.86273" y="58.618" xlink:href="#a"/>
<use x="411.526178" y="58.618" xlink:href="#b"/>
<use x="383.168963" y="58.618" xlink:href="#a"/>
<use x="0.470535" y="58.618" xlink:href="#a"/>
<use x="28.831883" y="58.618" xlink:href="#b"/>
<use x="57.172568" y="58.618" xlink:href="#b"/>
<use x="85.513253" y="58.618" xlink:href="#a"/>
<use x="113.8746" y="58.618" xlink:href="#a"/>
<use x="142.215285" y="58.618" xlink:href="#b"/>
<use x="170.55597" y="58.618" xlink:href="#b"/>
<use x="198.917318" y="58.618" xlink:href="#a"/>
<use x="255.606953" y="58.618" xlink:href="#a"/>
<use x="0.473" y="101.141" xlink:href="#a"/>
<use x="28.813685" y="101.141" xlink:href="#b"/>
<use x="57.175033" y="101.141" xlink:href="#a"/>
<use x="85.515718" y="101.141" xlink:href="#a"/>
<use x="57.17" y="143.663" xlink:href="#a"/>
<use x="85.510685" y="143.663" xlink:href="#b"/>
<use x="113.872033" y="143.663" xlink:href="#a"/>
<use x="142.212718" y="143.663" xlink:href="#b"/>
<use x="57.17" y="186.186" xlink:href="#a"/>
<use x="85.510685" y="186.186" xlink:href="#b"/>
<use x="113.872033" y="186.186" xlink:href="#a"/>
<use x="142.212718" y="186.186" xlink:href="#a"/>
<use x="142.215" y="228.708" xlink:href="#a"/>
<use x="170.555685" y="228.708" xlink:href="#b"/>
<use x="198.917033" y="228.708" xlink:href="#a"/>
<use x="142.215" y="271.231" xlink:href="#a"/>
<use x="170.555685" y="271.231" xlink:href="#b"/>
<use x="198.917033" y="271.231" xlink:href="#a"/>
<use x="227.257718" y="271.231" xlink:href="#a"/>
<use x="227.26" y="313.753" xlink:href="#a"/>
<use x="255.600685" y="313.753" xlink:href="#a"/>
<use x="283.956" y="58.619" xlink:href="#b"/>
<use x="312.296685" y="58.619" xlink:href="#b"/>
<use x="524.926208" y="58.619" xlink:href="#a"/>
<use x="553.266893" y="58.619" xlink:href="#b"/>
<use x="581.607578" y="58.619" xlink:href="#a"/>
<use x="609.968925" y="58.619" xlink:href="#b"/>
<use x="638.30961" y="58.619" xlink:href="#b"/>
<use x="666.650295" y="58.619" xlink:href="#a"/>
<use x="695.011643" y="58.619" xlink:href="#b"/>
<use x="227.266365" y="58.619" xlink:href="#b"/>
<use x="227.26" y="228.708" xlink:href="#b"/>
<use x="283.956" y="313.753" xlink:href="#b"/>
<use x="312.296685" y="313.753" xlink:href="#b"/>
<use x="227.26" y="356.275" xlink:href="#a"/>
<use x="255.600685" y="356.275" xlink:href="#b"/>
<use x="283.962033" y="356.275" xlink:href="#a"/>
<use x="312.302718" y="356.275" xlink:href="#a"/>
<use x="255.608" y="398.798" xlink:href="#a"/>
<use x="283.948685" y="398.798" xlink:href="#a"/>
<use x="312.310033" y="398.798" xlink:href="#a"/>
<use x="340.650718" y="398.798" xlink:href="#b"/>
<use x="751.703" y="58.619" xlink:href="#a"/>
<use x="255.608" y="441.32" xlink:href="#a"/>
<use x="283.948685" y="441.32" xlink:href="#b"/>
<use x="312.310033" y="441.32" xlink:href="#a"/>
<use x="340.650718" y="441.32" xlink:href="#a"/>
<use x="283.956" y="483.843" xlink:href="#e"/>
<use x="312.30495" y="483.843" xlink:href="#l"/>
<use x="340.6539" y="483.843" xlink:href="#e"/>
<use x="120.457" y="16.096" xlink:href="#k"/>
<use x="431.8822" y="16.096" xlink:href="#j"/>
<use x="304.52" y="526.365" xlink:href="#i"/>
<use x="723.355" y="58.619" xlink:href="#b"/>
<use x="780.044635" y="58.619" xlink:href="#a"/>
<use x="581.58" y="16.096" xlink:href="#p"/>
<use x="596.444603" y="16.096" xlink:href="#f"/>
<use x="606.45765" y="16.096" xlink:href="#c"/>
<use x="614.85489" y="16.096" xlink:href="#o"/>
<use x="630.329036" y="16.096" xlink:href="#n"/>
<use x="638.726276" y="16.096" xlink:href="#m"/>
<use x="643.883636" y="16.096" xlink:href="#c"/>
<use x="652.280876" y="16.096" xlink:href="#d"/>
<use x="662.300123" y="16.096" xlink:href="#u"/>
<use x="669.616714" y="16.096" xlink:href="#c"/>
<use x="678.013954" y="16.096" xlink:href="#d"/>
<use x="694.8105" y="16.096" xlink:href="#t"/>
<use x="704.288389" y="16.096" xlink:href="#f"/>
<use x="713.764211" y="16.096" xlink:href="#d"/>
<use x="730.553" y="16.096" xlink:href="#h"/>
<use x="748.25" y="16.096" xlink:href="#s"/>
<use x="755.567" y="16.096" xlink:href="#g"/>
<use x="767.064" y="16.096" xlink:href="#r"/>
<use x="340.653" y="58.619" xlink:href="#b"/>
<use x="363.33216" y="58.619" xlink:href="#q"/>
<use x="468.227408" y="58.619" xlink:href="#a"/>
</g>
</svg>
