<svg width="554pt" height="99pt" version="1.1" viewBox="0 0 554 99" xmlns="http://www.w3.org/2000/svg" xmlns:xlink="http://www.w3.org/1999/xlink">
<defs>
<g id="h">
<path d="m12.828-14.031c0-0.35938-0.015625-0.39062-0.14062-0.39062-0.09375 0-0.10938 0.03125-0.25 0.26562l-0.90625 1.7344c-1.0156-1.2656-2.25-2.0156-3.8438-2.0156-3.5312 0-6.7344 3.125-6.7344 7.375 0 4.2969 3.2031 7.3906 6.75 7.3906 3.1562 0 5.125-2.7812 5.125-5.1562 0-0.21875 0-0.29688-0.1875-0.29688-0.17188 0-0.17188 0.0625-0.1875 0.25-0.15625 2.8906-2.2344 4.6719-4.4531 4.6719-2.1094 0-5.4844-1.4844-5.4844-6.8594 0-5.3906 3.4375-6.8438 5.4375-6.8438 2.3281 0 4.0312 2.0312 4.4219 4.9062 0.046875 0.23438 0.046875 0.28125 0.21875 0.28125 0.23438 0 0.23438-0.046875 0.23438-0.40625z"/>
</g>
<g id="q">
<path d="m8.0938-7.0469c1.9688-0.39062 3.625-1.7188 3.625-3.3594 0-1.9531-2.2031-3.7031-5.0938-3.7031h-5.5469v0.53125c1.4219 0 1.6562 0 1.6562 0.9375v11.172c0 0.9375-0.23438 0.9375-1.6562 0.9375v0.53125c0.59375-0.046875 1.6719-0.046875 2.3125-0.046875s1.7188 0 2.3125 0.046875v-0.53125c-1.4219 0-1.6562 0-1.6562-0.9375v-5.4375h2.4219c1.1719 0 1.8281 0.48438 2.125 0.75 0.82812 0.8125 0.82812 1.3594 0.82812 2.7656 0 1.3906 0 2.0938 0.60938 2.7969 0.79688 0.84375 1.8438 0.92188 2.2969 0.92188 1.5312 0 1.7656-1.7188 1.7656-2.0625 0-0.125 0-0.26562-0.1875-0.26562-0.17188 0-0.1875 0.125-0.1875 0.20312-0.10938 1.3438-0.70312 1.7969-1.3438 1.7969-1.1406 0-1.2656-1.2969-1.3906-2.5625-0.0625-0.4375-0.09375-0.75-0.14062-1.2031-0.125-1.0312-0.28125-2.5312-2.75-3.2812zm-1.6875-0.1875h-2.3594v-5.5312c0-0.70312 0.046875-0.8125 0.875-0.8125h1.5c1.7188 0 3.7188 0.60938 3.7188 3.1719 0 2.6562-2.1875 3.1719-3.7344 3.1719z"/>
</g>
<g id="l">
<path d="m4.0938-6.625h3.2969c2.6719 0 4.6094-1.7344 4.6094-3.7031s-1.9062-3.7812-4.6094-3.7812h-6.3125v0.53125c1.4219 0 1.6562 0 1.6562 0.9375v11.172c0 0.9375-0.23438 0.9375-1.6562 0.9375v0.53125c0.59375-0.046875 1.6875-0.046875 2.3281-0.046875s1.7344 0 2.3438 0.046875v-0.53125c-1.4375 0-1.6562 0-1.6562-0.9375zm-0.046875-0.4375v-5.7031c0-0.70312 0.046875-0.8125 0.875-0.8125h2.0781c2.6719 0 3.4375 1.5312 3.4375 3.25 0 1.875-0.92188 3.2656-3.4375 3.2656z"/>
</g>
<g id="e">
<path d="m3.0938-4.875c0-1.9844 0.85938-3.8438 2.4062-3.8438 0.14062 0 0.28125 0.015625 0.42188 0.078125 0 0-0.45312 0.15625-0.45312 0.6875 0 0.5 0.39062 0.70312 0.70312 0.70312 0.25 0 0.70312-0.14062 0.70312-0.71875 0-0.67188-0.65625-1.0781-1.3594-1.0781-1.5625 0-2.25 1.5312-2.4531 2.25h-0.03125v-2.25l-2.3906 0.23438v0.53125c1.2188 0 1.4062 0.125 1.4062 1.1094v5.75c0 0.78125-0.078125 0.89062-1.4062 0.89062v0.53125c0.5-0.046875 1.4531-0.046875 1.9844-0.046875 0.59375 0 1.6562 0 2.2031 0.046875v-0.53125c-1.4844 0-1.7344 0-1.7344-0.9375z"/>
</g>
<g id="k">
<path d="m3.6562-12.75c0-0.51562-0.40625-0.82812-0.8125-0.82812-0.53125 0-0.8125 0.46875-0.8125 0.8125 0 0.40625 0.32812 0.82812 0.8125 0.82812 0.4375 0 0.8125-0.35938 0.8125-0.8125zm3.7812 0c0-0.40625-0.32812-0.82812-0.82812-0.82812-0.4375 0-0.8125 0.35938-0.8125 0.8125 0 0.51562 0.42188 0.82812 0.8125 0.82812 0.53125 0 0.82812-0.45312 0.82812-0.8125z"/>
</g>
<g id="b">
<path d="m7.4375-5.3438c0-1.375 0-2.0938-0.875-2.8906-0.76562-0.6875-1.6406-0.89062-2.3438-0.89062-1.6406 0-2.8125 1.2812-2.8125 2.6406 0 0.76562 0.625 0.79688 0.73438 0.79688 0.28125 0 0.75-0.15625 0.75-0.73438 0-0.51562-0.39062-0.75-0.75-0.75-0.078125 0-0.17188 0.03125-0.23438 0.046875 0.42188-1.2969 1.5469-1.6719 2.2656-1.6719 1.0312 0 2.1719 0.90625 2.1719 2.6406v0.90625c-1.2188 0.046875-2.6875 0.20312-3.8438 0.82812-1.2969 0.71875-1.6719 1.75-1.6719 2.5469 0 1.5781 1.8594 2.0469 2.9531 2.0469 1.1406 0 2.1875-0.64062 2.6406-1.8281 0.046875 0.90625 0.625 1.7344 1.5312 1.7344 0.4375 0 1.5312-0.28125 1.5312-1.9219v-1.1562h-0.375v1.1875c0 1.25-0.5625 1.4219-0.82812 1.4219-0.84375 0-0.84375-1.0781-0.84375-1.9844zm-1.0938 2.4688c0 1.7969-1.2812 2.7031-2.4219 2.7031-1.0312 0-1.8281-0.75-1.8281-1.7031 0-0.625 0.26562-1.7188 1.4531-2.375 1-0.5625 2.1406-0.64062 2.7969-0.6875z"/>
</g>
<g id="j">
<path d="m13.969-6.2812c0-1.0312-0.1875-2.7656-2.6562-2.7656-1.3906 0-2.375 0.95312-2.7344 2.0625h-0.03125c-0.25-1.6875-1.4688-2.0625-2.625-2.0625-1.625 0-2.4688 1.2656-2.7812 2.0781h-0.015625v-2.0781l-2.4375 0.23438v0.53125c1.2188 0 1.4062 0.125 1.4062 1.1094v5.75c0 0.78125-0.09375 0.89062-1.4062 0.89062v0.53125c0.48438-0.046875 1.4062-0.046875 1.9375-0.046875s1.4688 0 1.9531 0.046875v-0.53125c-1.3125 0-1.3906-0.09375-1.3906-0.89062v-3.9688c0-1.9062 1.1562-3.3281 2.5938-3.3281 1.5312 0 1.7031 1.3594 1.7031 2.3594v4.9375c0 0.78125-0.09375 0.89062-1.4062 0.89062v0.53125c0.48438-0.046875 1.4062-0.046875 1.9375-0.046875s1.4688 0 1.9688 0.046875v-0.53125c-1.3281 0-1.4062-0.09375-1.4062-0.89062v-3.9688c0-1.9062 1.1562-3.3281 2.5938-3.3281 1.5312 0 1.7031 1.3594 1.7031 2.3594v4.9375c0 0.78125-0.09375 0.89062-1.4062 0.89062v0.53125c0.48438-0.046875 1.4062-0.046875 1.9375-0.046875s1.4688 0 1.9688 0.046875v-0.53125c-1.3281 0-1.4062-0.09375-1.4062-0.89062z"/>
</g>
<g id="i">
<path d="m3.0938-14.328-2.4531 0.21875v0.53125c1.2188 0 1.4062 0.125 1.4062 1.125v12.453h0.375l0.59375-1.4688c0.59375 0.96875 1.4844 1.6406 2.6875 1.6406 2.0625 0 4.1562-1.8281 4.1562-4.6406 0-2.6406-1.8594-4.5781-3.9531-4.5781-1.2812 0-2.1875 0.6875-2.8125 1.4844zm0.046875 7.8281c0-0.375 0-0.4375 0.28125-0.875 0.8125-1.2344 1.9688-1.3438 2.3594-1.3438 0.625 0 2.75 0.32812 2.75 4.2344 0 4.0938-2.4375 4.3125-2.9375 4.3125-0.64062 0-1.5625-0.23438-2.2344-1.4375-0.21875-0.39062-0.21875-0.4375-0.21875-0.8125z"/>
</g>
<g id="a">
<path d="m7.875-4.8594c0.078125-0.078125 0.078125-0.125 0.078125-0.32812 0-2.1094-1.1094-3.9375-3.4688-3.9375-2.1875 0-3.9219 2.0781-3.9219 4.625 0 2.6875 1.9531 4.6719 4.1406 4.6719 2.3125 0 3.2344-2.2031 3.2344-2.625 0-0.15625-0.125-0.15625-0.17188-0.15625-0.14062 0-0.17188 0.046875-0.25 0.29688-0.45312 1.4062-1.5938 2.1094-2.6562 2.1094-0.89062 0-1.7812-0.5-2.3438-1.4062-0.64062-1.0625-0.64062-2.2812-0.64062-3.25zm-5.9688-0.3125c0.14062-2.9688 1.7344-3.625 2.5625-3.625 1.3906 0 2.3438 1.3125 2.375 3.625z"/>
</g>
<g id="d">
<path d="m3.1562-14.328-2.4531 0.21875v0.53125c1.2188 0 1.4062 0.125 1.4062 1.125v11.031c0 0.78125-0.078125 0.89062-1.4062 0.89062v0.53125c0.5-0.046875 1.4062-0.046875 1.9219-0.046875 0.53125 0 1.4375 0 1.9375 0.046875v-0.53125c-1.3125 0-1.4062-0.09375-1.4062-0.89062z"/>
</g>
<g id="w">
<path d="m10.656-13.688c0-0.40625-0.015625-0.42188-0.45312-0.42188h-8.7812l-0.20312 4.5625h0.375c0.125-2.3438 0.73438-4.0312 4.0938-4.0312h3.4062l-8 12.922c-0.14062 0.21875-0.14062 0.25-0.14062 0.39062 0 0.26562 0.03125 0.26562 0.45312 0.26562h9.0625l0.29688-5.3906h-0.375c-0.1875 2.7031-0.32812 4.8125-4.2812 4.8125h-3.5938z"/>
</g>
<g id="v">
<path d="m3.2031-12.719c0-0.45312-0.375-0.85938-0.84375-0.85938-0.45312 0-0.84375 0.375-0.84375 0.85938 0 0.45312 0.35938 0.84375 0.84375 0.84375 0.45312 0 0.84375-0.375 0.84375-0.84375zm-2.4219 3.9062v0.53125c1.1562 0 1.3281 0.125 1.3281 1.1094v5.75c0 0.78125-0.078125 0.89062-1.4062 0.89062v0.53125c0.5-0.046875 1.3906-0.046875 1.9062-0.046875 0.48438 0 1.3438 0 1.8125 0.046875v-0.53125c-1.2188 0-1.2656-0.125-1.2656-0.875v-7.6406z"/>
</g>
<g id="g">
<path d="m5.2656-3.9844v-0.90625h-5.1875v0.90625z"/>
</g>
<g id="f">
<path d="m6.0312-14.109v0.53125c1.2188 0 1.4062 0.125 1.4062 1.125v4.8281c-0.078125-0.09375-0.9375-1.4219-2.6094-1.4219-2.0938 0-4.1406 1.875-4.1406 4.6094 0 2.7031 1.9219 4.6094 3.9375 4.6094 1.75 0 2.6719-1.375 2.7656-1.5156v1.5156l2.5-0.17188v-0.53125c-1.2188 0-1.4062-0.125-1.4062-1.125v-12.672zm1.3594 11.625c0 0.625-0.375 1.1875-0.84375 1.5938-0.70312 0.625-1.4062 0.71875-1.7969 0.71875-0.59375 0-2.75-0.29688-2.75-4.25 0-4.0469 2.4062-4.2969 2.9375-4.2969 0.95312 0 1.7188 0.53125 2.1875 1.2812 0.26562 0.4375 0.26562 0.5 0.26562 0.875z"/>
</g>
<g id="c">
<path d="m6.375-8.7188c0-0.375-0.015625-0.39062-0.14062-0.39062-0.078125 0-0.09375 0.015625-0.34375 0.32812-0.0625 0.078125-0.25 0.29688-0.3125 0.375-0.65625-0.70312-1.5938-0.71875-1.9375-0.71875-2.2969 0-3.125 1.1875-3.125 2.3906 0 1.8594 2.1094 2.2969 2.7031 2.4219 1.3125 0.26562 1.7656 0.34375 2.1875 0.71875 0.28125 0.25 0.73438 0.70312 0.73438 1.4531 0 0.85938-0.5 1.9688-2.4062 1.9688-1.7969 0-2.4375-1.3594-2.8125-3.1719-0.046875-0.29688-0.046875-0.3125-0.21875-0.3125s-0.1875 0.015625-0.1875 0.4375v2.9688c0 0.375 0.015625 0.39062 0.14062 0.39062 0.10938 0 0.125-0.015625 0.23438-0.1875 0.125-0.1875 0.4375-0.67188 0.5625-0.875 0.40625 0.54688 1.125 1.0938 2.2812 1.0938 2.0469 0 3.1406-1.125 3.1406-2.7344 0-1.0469-0.54688-1.6094-0.82812-1.8594-0.60938-0.64062-1.3438-0.78125-2.2031-0.95312-1.1406-0.25-2.5781-0.53125-2.5781-1.7969 0-0.53125 0.28125-1.6719 2.375-1.6719 2.2031 0 2.3281 2.0625 2.375 2.7344 0.015625 0.09375 0.125 0.125 0.1875 0.125 0.17188 0 0.17188-0.0625 0.17188-0.42188z"/>
</g>
<g id="u">
<path d="m9.7656-0.1875c2.4688-1.0469 4.1406-3.7344 4.1406-6.8281 0-4.2344-3.0469-7.4219-6.4688-7.4219-3.5156 0-6.4844 3.2188-6.4844 7.4219 0 4.125 2.9688 7.3438 6.4844 7.3438 0.46875 0 1.1406-0.0625 1.9219-0.32812 0.34375 2.5156 0.57812 4.0312 2.3594 4.0312 2.1875 0 2.2812-3.2188 2.2812-3.7969 0-0.21875 0-0.35938-0.14062-0.35938-0.10938 0-0.125 0.14062-0.125 0.1875-0.14062 1.9844-1.2656 2.3906-1.9219 2.3906-1.2188 0-1.6562-1.0938-2.0469-2.6406zm-3.4375-0.015625c-2.1562-0.6875-3.8438-2.9844-3.8438-6.8125 0-4.9219 2.7031-7.0469 4.9375-7.0469 2.3125 0 4.9531 2.2031 4.9531 7.0469 0 3.4844-1.3906 5.4219-2.7656 6.3125-0.3125-1.0469-0.8125-2.2969-2.1562-2.2969-0.98438 0-1.5469 0.875-1.5469 1.6562 0 0.46875 0.1875 0.875 0.42188 1.1406zm2.9531-0.3125c-0.82812 0.4375-1.5 0.46875-1.8438 0.46875-0.9375 0-1.2031-0.84375-1.2031-1.2969 0-0.64062 0.4375-1.3281 1.2188-1.3281 1.3281 0 1.6562 1.1875 1.8281 2.1562z"/>
</g>
<g id="t">
<path d="m6.0781-8.8125v0.53125c1.2188 0 1.4062 0.125 1.4062 1.1094v3.7656c0 1.7344-0.9375 3.2344-2.4688 3.2344-1.6875 0-1.8281-1-1.8281-2.0781v-6.7969l-2.5 0.23438v0.53125c0.82812 0 1.375 0 1.4062 0.82812v3.9688c0 1.375 0 2.2656 0.53125 2.8438 0.26562 0.26562 0.78125 0.8125 2.2656 0.8125 1.7656 0 2.4375-1.5 2.6094-1.9219h0.015625v1.9219l2.4688-0.17188v-0.53125c-1.2188 0-1.4062-0.125-1.4062-1.125v-7.3906z"/>
</g>
<g id="s">
<path d="m12.844-14.047h-11.922l-0.34375 4.5625h0.375c0.26562-3.4219 0.5625-4.0312 3.7344-4.0312 0.375 0 0.96875 0 1.1406 0.03125 0.39062 0.0625 0.39062 0.3125 0.39062 0.78125v11.188c0 0.75-0.0625 0.98438-1.7812 0.98438h-0.57812v0.53125c1-0.015625 2.0312-0.046875 3.0469-0.046875 1 0 2.0312 0.03125 3.0312 0.046875v-0.53125h-0.57812c-1.7188 0-1.7812-0.23438-1.7812-0.98438v-11.188c0-0.45312 0-0.70312 0.375-0.78125 0.17188-0.03125 0.76562-0.03125 1.1406-0.03125 3.1562 0 3.4688 0.60938 3.7344 4.0312h0.375z"/>
</g>
<g id="r">
<path d="m8.0625-7.0625c0.51562-1.2656 1.4375-1.2812 1.7344-1.2812v-0.53125c-0.39062 0.015625-0.92188 0.03125-1.3125 0.03125-0.42188 0-1.1094 0-1.5156-0.03125v0.53125c0.78125 0.0625 0.79688 0.64062 0.79688 0.79688 0 0.21875-0.046875 0.3125-0.14062 0.5625l-2.25 5.5781-2.4688-6.0312c-0.09375-0.25-0.09375-0.39062-0.09375-0.40625 0-0.45312 0.46875-0.5 0.96875-0.5v-0.53125c-0.5 0.03125-1.3906 0.03125-1.9062 0.03125-0.54688 0-1.2188 0-1.6719-0.03125v0.53125c1.125 0 1.25 0.10938 1.5156 0.76562l3.0781 7.5781c-0.9375 2.4375-1.4688 3.8594-2.7656 3.8594-0.23438 0-0.75-0.0625-1.125-0.4375 0.48438-0.03125 0.6875-0.32812 0.6875-0.67188 0-0.35938-0.25-0.65625-0.67188-0.65625-0.45312 0-0.67188 0.29688-0.67188 0.67188 0 0.82812 0.84375 1.4219 1.7812 1.4219 1.1875 0 1.9375-1.1562 2.3438-2.1875z"/>
</g>
<g id="p">
<path d="m4.5469 3.4844c-1.3281 0-1.4062-0.078125-1.4062-0.875v-3.875c0.59375 0.875 1.4688 1.4375 2.5625 1.4375 2.0625 0 4.1562-1.8281 4.1562-4.6406 0-2.5938-1.7969-4.5781-3.9375-4.5781-1.2344 0-2.25 0.6875-2.8281 1.5v-1.5l-2.4531 0.23438v0.53125c1.2188 0 1.4062 0.125 1.4062 1.1094v9.7812c0 0.78125-0.078125 0.875-1.4062 0.875v0.54688c0.5-0.046875 1.4062-0.046875 1.9375-0.046875 0.54688 0 1.4688 0 1.9688 0.046875zm-1.4062-9.9688c0-0.29688 0-0.71875 0.8125-1.4844 0.09375-0.09375 0.79688-0.70312 1.8281-0.70312 1.5156 0 2.75 1.875 2.75 4.2344 0 2.3438-1.3281 4.2656-2.9531 4.2656-0.75 0-1.5469-0.34375-2.1719-1.3125-0.26562-0.45312-0.26562-0.57812-0.26562-0.90625z"/>
</g>
<g id="o">
<path d="m1.0781-14.109v0.53125c1.4219 0 1.6562 0 1.6562 0.9375v11.172c0 0.9375-0.23438 0.9375-1.6562 0.9375v0.53125h6.5625c3.3281 0 6-3.0625 6-6.9375 0-3.9062-2.625-7.1719-6-7.1719zm3.8438 13.578c-0.82812 0-0.875-0.10938-0.875-0.8125v-11.422c0-0.70312 0.046875-0.8125 0.875-0.8125h2.3125c1.7031 0 4.875 1.0156 4.875 6.6406 0 2.9062-0.85938 4.0938-1.25 4.6406-0.48438 0.64062-1.6719 1.7656-3.625 1.7656z"/>
</g>
<g id="n">
<path d="m3.125-8.3438h2.8906v-0.53125h-2.8906v-3.8281h-0.375c-0.046875 2.125-0.76562 3.9844-2.5156 4.0312v0.32812h1.7969v5.7969c0 0.40625 0 2.7188 2.3906 2.7188 1.2188 0 1.9219-1.2031 1.9219-2.7344v-1.1719h-0.375v1.1562c0 1.4219-0.5625 2.375-1.4219 2.375-0.59375 0-1.4219-0.42188-1.4219-2.2969z"/>
</g>
<g id="m">
<path d="m8.5781-6.2812c0-1.0469-0.21875-2.7656-2.6562-2.7656-1.625 0-2.4688 1.2656-2.7812 2.0781h-0.015625v-2.0781l-2.4375 0.23438v0.53125c1.2188 0 1.4062 0.125 1.4062 1.1094v5.75c0 0.78125-0.09375 0.89062-1.4062 0.89062v0.53125c0.48438-0.046875 1.4062-0.046875 1.9375-0.046875s1.4688 0 1.9531 0.046875v-0.53125c-1.3125 0-1.3906-0.09375-1.3906-0.89062v-3.9688c0-1.9062 1.1562-3.3281 2.5938-3.3281 1.5312 0 1.7031 1.3594 1.7031 2.3594v4.9375c0 0.78125-0.09375 0.89062-1.4062 0.89062v0.53125c0.48438-0.046875 1.4062-0.046875 1.9375-0.046875s1.4688 0 1.9688 0.046875v-0.53125c-1.3281 0-1.4062-0.09375-1.4062-0.89062z"/>
</g>
</defs>
<path d="m398.05 63.379c0 0.52344-0.42188 0.94531-0.94531 0.94531-0.51953 0-0.94531-0.42188-0.94531-0.94531 0-0.51953 0.42578-0.94141 0.94531-0.94141 0.52344 0 0.94531 0.42188 0.94531 0.94141" fill-rule="evenodd"/>
<path transform="matrix(.1 0 0 -.1 -.472 100.63)" d="m3985.3 372.5c0-5.2344-4.2188-9.4531-9.4531-9.4531-5.1953 0-9.4531 4.2188-9.4531 9.4531 0 5.1953 4.2578 9.4141 9.4531 9.4141 5.2344 0 9.4531-4.2188 9.4531-9.4141z" fill="none" stroke="#000" stroke-miterlimit="10" stroke-width="4.7242"/>
<path d="m409.39 63.379c0 0.52344-0.42188 0.94531-0.94531 0.94531-0.51953 0-0.94531-0.42188-0.94531-0.94531 0-0.51953 0.42578-0.94141 0.94531-0.94141 0.52344 0 0.94531 0.42188 0.94531 0.94141" fill-rule="evenodd"/>
<path transform="matrix(.1 0 0 -.1 -.472 100.63)" d="m4098.7 372.5c0-5.2344-4.2188-9.4531-9.4531-9.4531-5.1953 0-9.4531 4.2188-9.4531 9.4531 0 5.1953 4.2578 9.4141 9.4531 9.4141 5.2344 0 9.4531-4.2188 9.4531-9.4141z" fill="none" stroke="#000" stroke-miterlimit="10" stroke-width="4.7242"/>
<path transform="matrix(.1 0 0 -.1 -.472 100.63)" d="m149.17 429.18v-141.72" fill="none" stroke="#000" stroke-miterlimit="10" stroke-width="4.7242"/>
<path transform="matrix(.1 0 0 -.1 -.472 100.63)" d="m290.93 429.18v-141.72" fill="none" stroke="#000" stroke-miterlimit="10" stroke-width="4.7242"/>
<path transform="matrix(.1 0 0 -.1 -.472 100.63)" d="m432.65 429.18v-141.72" fill="none" stroke="#000" stroke-miterlimit="10" stroke-width="4.7242"/>
<path transform="matrix(.1 0 0 -.1 -.472 100.63)" d="m574.37 429.18v-141.72" fill="none" stroke="#000" stroke-miterlimit="10" stroke-width="4.7242"/>
<path transform="matrix(.1 0 0 -.1 -.472 100.63)" d="m716.09 429.18v-141.72" fill="none" stroke="#000" stroke-miterlimit="10" stroke-width="4.7242"/>
<path transform="matrix(.1 0 0 -.1 -.472 100.63)" d="m857.81 429.18v-141.72" fill="none" stroke="#000" stroke-miterlimit="10" stroke-width="4.7242"/>
<path transform="matrix(.1 0 0 -.1 -.472 100.63)" d="m999.56 429.18v-141.72" fill="none" stroke="#000" stroke-miterlimit="10" stroke-width="4.7242"/>
<path transform="matrix(.1 0 0 -.1 -.472 100.63)" d="m1141.3 996.09v-708.63" fill="none" stroke="#000" stroke-miterlimit="10" stroke-width="4.7242"/>
<path transform="matrix(.1 0 0 -.1 -.472 100.63)" d="m1283 429.18v-141.72" fill="none" stroke="#000" stroke-miterlimit="10" stroke-width="4.7242"/>
<path transform="matrix(.1 0 0 -.1 -.472 100.63)" d="m1283 429.18v-141.72" fill="none" stroke="#000" stroke-miterlimit="10" stroke-width="4.7242"/>
<path transform="matrix(.1 0 0 -.1 -.472 100.63)" d="m1424.7 429.18v-141.72" fill="none" stroke="#000" stroke-miterlimit="10" stroke-width="4.7242"/>
<path transform="matrix(.1 0 0 -.1 -.472 100.63)" d="m1424.7 429.18v-141.72" fill="none" stroke="#000" stroke-miterlimit="10" stroke-width="4.7242"/>
<path transform="matrix(.1 0 0 -.1 -.472 100.63)" d="m1424.7 429.18v-141.72" fill="none" stroke="#000" stroke-miterlimit="10" stroke-width="4.7242"/>
<path transform="matrix(.1 0 0 -.1 -.472 100.63)" d="m1566.5 429.18v-141.72" fill="none" stroke="#000" stroke-miterlimit="10" stroke-width="4.7242"/>
<path transform="matrix(.1 0 0 -.1 -.472 100.63)" d="m1566.5 429.18v-141.72" fill="none" stroke="#000" stroke-miterlimit="10" stroke-width="4.7242"/>
<path transform="matrix(.1 0 0 -.1 -.472 100.63)" d="m1708.2 429.18v-141.72" fill="none" stroke="#000" stroke-miterlimit="10" stroke-width="4.7242"/>
<path transform="matrix(.1 0 0 -.1 -.472 100.63)" d="m1849.9 429.18v-141.72" fill="none" stroke="#000" stroke-miterlimit="10" stroke-width="4.7242"/>
<path transform="matrix(.1 0 0 -.1 -.472 100.63)" d="m2133.4 429.18v-141.72" fill="none" stroke="#000" stroke-miterlimit="10" stroke-width="4.7242"/>
<path transform="matrix(.1 0 0 -.1 -.472 100.63)" d="m1991.6 287.46v708.63" fill="none" stroke="#000" stroke-miterlimit="10" stroke-width="4.7242"/>
<path transform="matrix(.1 0 0 -.1 -.472 100.63)" d="m2275.1 429.18v-141.72" fill="none" stroke="#000" stroke-miterlimit="10" stroke-width="4.7242"/>
<path transform="matrix(.1 0 0 -.1 -.472 100.63)" d="m2416.8 429.18v-141.72" fill="none" stroke="#000" stroke-miterlimit="10" stroke-width="4.7242"/>
<path transform="matrix(.1 0 0 -.1 -.472 100.63)" d="m2558.5 429.18v-141.72" fill="none" stroke="#000" stroke-miterlimit="10" stroke-width="4.7242"/>
<path transform="matrix(.1 0 0 -.1 -.472 100.63)" d="m2700.3 429.18v-141.72" fill="none" stroke="#000" stroke-miterlimit="10" stroke-width="4.7242"/>
<path transform="matrix(.1 0 0 -.1 -.472 100.63)" d="m2842 287.46v708.63" fill="none" stroke="#000" stroke-miterlimit="10" stroke-width="4.7242"/>
<path transform="matrix(.1 0 0 -.1 -.472 100.63)" d="m2983.7 429.18v-141.72" fill="none" stroke="#000" stroke-miterlimit="10" stroke-width="4.7242"/>
<path transform="matrix(.1 0 0 -.1 -.472 100.63)" d="m3267.2 429.18v-141.72" fill="none" stroke="#000" stroke-miterlimit="10" stroke-width="4.7242"/>
<path transform="matrix(.1 0 0 -.1 -.472 100.63)" d="m3125.5 287.46v708.63" fill="none" stroke="#000" stroke-miterlimit="10" stroke-width="4.7242"/>
<path transform="matrix(.1 0 0 -.1 -.472 100.63)" d="m3408.9 429.18v-141.72" fill="none" stroke="#000" stroke-miterlimit="10" stroke-width="4.7242"/>
<path transform="matrix(.1 0 0 -.1 -.472 100.63)" d="m5393.1 429.18v-141.72" fill="none" stroke="#000" stroke-miterlimit="10" stroke-width="4.7242"/>
<path transform="matrix(.1 0 0 -.1 -.472 100.63)" d="m5251.4 429.18v-141.72" fill="none" stroke="#000" stroke-miterlimit="10" stroke-width="4.7242"/>
<path transform="matrix(.1 0 0 -.1 -.472 100.63)" d="m5109.6 429.18v-141.72" fill="none" stroke="#000" stroke-miterlimit="10" stroke-width="4.7242"/>
<path transform="matrix(.1 0 0 -.1 -.472 100.63)" d="m4967.9 287.46v708.63" fill="none" stroke="#000" stroke-miterlimit="10" stroke-width="4.7242"/>
<path transform="matrix(.1 0 0 -.1 -.472 100.63)" d="m4826.2 429.18v-141.72" fill="none" stroke="#000" stroke-miterlimit="10" stroke-width="4.7242"/>
<path transform="matrix(.1 0 0 -.1 -.472 100.63)" d="m7.4544 287.46h5527.4v708.63h-5527.4z" fill="none" stroke="#000" stroke-miterlimit="10" stroke-width="4.7242"/>
<path d="m381.05 63.379c0 0.52344-0.42188 0.94531-0.94531 0.94531-0.51953 0-0.94531-0.42188-0.94531-0.94531 0-0.51953 0.42578-0.94141 0.94531-0.94141 0.52344 0 0.94531 0.42188 0.94531 0.94141" fill-rule="evenodd"/>
<path transform="matrix(.1 0 0 -.1 -.472 100.63)" d="m3815.2 372.5c0-5.2344-4.2188-9.4531-9.4531-9.4531-5.1953 0-9.4531 4.2188-9.4531 9.4531 0 5.1953 4.2578 9.4141 9.4531 9.4141 5.2344 0 9.4531-4.2188 9.4531-9.4141z" fill="none" stroke="#000" stroke-miterlimit="10" stroke-width="4.7242"/>
<g>
<use x="504.173" y="32.215" xlink:href="#h"/>
<use x="517.967285" y="32.215" xlink:href="#q"/>
<use x="531.490891" y="32.215" xlink:href="#h"/>
<use x="17.324" y="29.38" xlink:href="#l"/>
<use x="30.304183" y="29.38" xlink:href="#e"/>
<use x="37.622" y="30.037" xlink:href="#k"/>
<use x="37.622" y="29.38" xlink:href="#b"/>
<use x="47.097823" y="29.38" xlink:href="#b"/>
<use x="56.573645" y="29.38" xlink:href="#j"/>
<use x="71.989936" y="29.38" xlink:href="#i"/>
<use x="83.083633" y="29.38" xlink:href="#a"/>
<use x="91.480873" y="29.38" xlink:href="#d"/>
<use x="137.907" y="23.711" xlink:href="#w"/>
<use x="149.542054" y="23.711" xlink:href="#v"/>
<use x="154.699414" y="23.711" xlink:href="#a"/>
<use x="163.096654" y="23.711" xlink:href="#d"/>
<use x="168.254014" y="23.711" xlink:href="#g"/>
<use x="126.703" y="46.389" xlink:href="#b"/>
<use x="136.178823" y="46.389" xlink:href="#f"/>
<use x="146.735294" y="46.389" xlink:href="#e"/>
<use x="154.051885" y="46.389" xlink:href="#a"/>
<use x="162.449125" y="46.389" xlink:href="#c"/>
<use x="169.875228" y="46.389" xlink:href="#c"/>
<use x="177.30133" y="46.389" xlink:href="#a"/>
<use x="216.055" y="23.711" xlink:href="#u"/>
<use x="230.927867" y="23.711" xlink:href="#t"/>
<use x="241.484339" y="23.711" xlink:href="#a"/>
<use x="249.881579" y="23.711" xlink:href="#d"/>
<use x="255.038939" y="23.711" xlink:href="#d"/>
<use x="260.196299" y="23.711" xlink:href="#g"/>
<use x="211.748" y="46.389" xlink:href="#b"/>
<use x="221.223822" y="46.389" xlink:href="#f"/>
<use x="231.780294" y="46.389" xlink:href="#e"/>
<use x="239.096885" y="46.389" xlink:href="#a"/>
<use x="247.494125" y="46.389" xlink:href="#c"/>
<use x="254.920228" y="46.389" xlink:href="#c"/>
<use x="262.34633" y="46.389" xlink:href="#a"/>
<use x="281.028" y="94.581" xlink:href="#s"/>
<use x="294.28506" y="94.581" xlink:href="#r"/>
<use x="304.300174" y="94.581" xlink:href="#p"/>
<use x="371.988" y="32.215" xlink:href="#o"/>
<use x="386.588123" y="32.215" xlink:href="#b"/>
<use x="396.063945" y="32.215" xlink:href="#n"/>
<use x="403.380536" y="32.215" xlink:href="#a"/>
<use x="411.777776" y="32.215" xlink:href="#m"/>
</g>
</svg>
