<svg width="369pt" height="214pt" version="1.1" viewBox="0 0 369 214" xmlns="http://www.w3.org/2000/svg" xmlns:xlink="http://www.w3.org/1999/xlink">
<defs>
<g id="o">
<path d="m4.0938-6.625h3.2969c2.6719 0 4.6094-1.7344 4.6094-3.7031s-1.9062-3.7812-4.6094-3.7812h-6.3125v0.53125c1.4219 0 1.6562 0 1.6562 0.9375v11.172c0 0.9375-0.23438 0.9375-1.6562 0.9375v0.53125c0.59375-0.046875 1.6875-0.046875 2.3281-0.046875s1.7344 0 2.3438 0.046875v-0.53125c-1.4375 0-1.6562 0-1.6562-0.9375zm-0.046875-0.4375v-5.7031c0-0.70312 0.046875-0.8125 0.875-0.8125h2.0781c2.6719 0 3.4375 1.5312 3.4375 3.25 0 1.875-0.92188 3.2656-3.4375 3.2656z"/>
</g>
<g id="g">
<path d="m7.4375-5.3438c0-1.375 0-2.0938-0.875-2.8906-0.76562-0.6875-1.6406-0.89062-2.3438-0.89062-1.6406 0-2.8125 1.2812-2.8125 2.6406 0 0.76562 0.625 0.79688 0.73438 0.79688 0.28125 0 0.75-0.15625 0.75-0.73438 0-0.51562-0.39062-0.75-0.75-0.75-0.078125 0-0.17188 0.03125-0.23438 0.046875 0.42188-1.2969 1.5469-1.6719 2.2656-1.6719 1.0312 0 2.1719 0.90625 2.1719 2.6406v0.90625c-1.2188 0.046875-2.6875 0.20312-3.8438 0.82812-1.2969 0.71875-1.6719 1.75-1.6719 2.5469 0 1.5781 1.8594 2.0469 2.9531 2.0469 1.1406 0 2.1875-0.64062 2.6406-1.8281 0.046875 0.90625 0.625 1.7344 1.5312 1.7344 0.4375 0 1.5312-0.28125 1.5312-1.9219v-1.1562h-0.375v1.1875c0 1.25-0.5625 1.4219-0.82812 1.4219-0.84375 0-0.84375-1.0781-0.84375-1.9844zm-1.0938 2.4688c0 1.7969-1.2812 2.7031-2.4219 2.7031-1.0312 0-1.8281-0.75-1.8281-1.7031 0-0.625 0.26562-1.7188 1.4531-2.375 1-0.5625 2.1406-0.64062 2.7969-0.6875z"/>
</g>
<g id="e">
<path d="m3.0938-4.875c0-1.9844 0.85938-3.8438 2.4062-3.8438 0.14062 0 0.28125 0.015625 0.42188 0.078125 0 0-0.45312 0.15625-0.45312 0.6875 0 0.5 0.39062 0.70312 0.70312 0.70312 0.25 0 0.70312-0.14062 0.70312-0.71875 0-0.67188-0.65625-1.0781-1.3594-1.0781-1.5625 0-2.25 1.5312-2.4531 2.25h-0.03125v-2.25l-2.3906 0.23438v0.53125c1.2188 0 1.4062 0.125 1.4062 1.1094v5.75c0 0.78125-0.078125 0.89062-1.4062 0.89062v0.53125c0.5-0.046875 1.4531-0.046875 1.9844-0.046875 0.59375 0 1.6562 0 2.2031 0.046875v-0.53125c-1.4844 0-1.7344 0-1.7344-0.9375z"/>
</g>
<g id="f">
<path d="m3.2031-12.719c0-0.45312-0.375-0.85938-0.84375-0.85938-0.45312 0-0.84375 0.375-0.84375 0.85938 0 0.45312 0.35938 0.84375 0.84375 0.84375 0.45312 0 0.84375-0.375 0.84375-0.84375zm-2.4219 3.9062v0.53125c1.1562 0 1.3281 0.125 1.3281 1.1094v5.75c0 0.78125-0.078125 0.89062-1.4062 0.89062v0.53125c0.5-0.046875 1.3906-0.046875 1.9062-0.046875 0.48438 0 1.3438 0 1.8125 0.046875v-0.53125c-1.2188 0-1.2656-0.125-1.2656-0.875v-7.6406z"/>
</g>
<g id="c">
<path d="m3.125-8.3438h2.8906v-0.53125h-2.8906v-3.8281h-0.375c-0.046875 2.125-0.76562 3.9844-2.5156 4.0312v0.32812h1.7969v5.7969c0 0.40625 0 2.7188 2.3906 2.7188 1.2188 0 1.9219-1.2031 1.9219-2.7344v-1.1719h-0.375v1.1562c0 1.4219-0.5625 2.375-1.4219 2.375-0.59375 0-1.4219-0.42188-1.4219-2.2969z"/>
</g>
<g id="n">
<path d="m3.6562-12.75c0-0.51562-0.40625-0.82812-0.8125-0.82812-0.53125 0-0.8125 0.46875-0.8125 0.8125 0 0.40625 0.32812 0.82812 0.8125 0.82812 0.4375 0 0.8125-0.35938 0.8125-0.8125zm3.7812 0c0-0.40625-0.32812-0.82812-0.82812-0.82812-0.4375 0-0.8125 0.35938-0.8125 0.8125 0 0.51562 0.42188 0.82812 0.8125 0.82812 0.53125 0 0.82812-0.45312 0.82812-0.8125z"/>
</g>
<g id="m">
<path d="m6.375-8.7188c0-0.375-0.015625-0.39062-0.14062-0.39062-0.078125 0-0.09375 0.015625-0.34375 0.32812-0.0625 0.078125-0.25 0.29688-0.3125 0.375-0.65625-0.70312-1.5938-0.71875-1.9375-0.71875-2.2969 0-3.125 1.1875-3.125 2.3906 0 1.8594 2.1094 2.2969 2.7031 2.4219 1.3125 0.26562 1.7656 0.34375 2.1875 0.71875 0.28125 0.25 0.73438 0.70312 0.73438 1.4531 0 0.85938-0.5 1.9688-2.4062 1.9688-1.7969 0-2.4375-1.3594-2.8125-3.1719-0.046875-0.29688-0.046875-0.3125-0.21875-0.3125s-0.1875 0.015625-0.1875 0.4375v2.9688c0 0.375 0.015625 0.39062 0.14062 0.39062 0.10938 0 0.125-0.015625 0.23438-0.1875 0.125-0.1875 0.4375-0.67188 0.5625-0.875 0.40625 0.54688 1.125 1.0938 2.2812 1.0938 2.0469 0 3.1406-1.125 3.1406-2.7344 0-1.0469-0.54688-1.6094-0.82812-1.8594-0.60938-0.64062-1.3438-0.78125-2.2031-0.95312-1.1406-0.25-2.5781-0.53125-2.5781-1.7969 0-0.53125 0.28125-1.6719 2.375-1.6719 2.2031 0 2.3281 2.0625 2.375 2.7344 0.015625 0.09375 0.125 0.125 0.1875 0.125 0.17188 0 0.17188-0.0625 0.17188-0.42188z"/>
</g>
<g id="l">
<path d="m3.0938-14.328-2.4531 0.21875v0.53125c1.2188 0 1.4062 0.125 1.4062 1.125v12.453h0.375l0.59375-1.4688c0.59375 0.96875 1.4844 1.6406 2.6875 1.6406 2.0625 0 4.1562-1.8281 4.1562-4.6406 0-2.6406-1.8594-4.5781-3.9531-4.5781-1.2812 0-2.1875 0.6875-2.8125 1.4844zm0.046875 7.8281c0-0.375 0-0.4375 0.28125-0.875 0.8125-1.2344 1.9688-1.3438 2.3594-1.3438 0.625 0 2.75 0.32812 2.75 4.2344 0 4.0938-2.4375 4.3125-2.9375 4.3125-0.64062 0-1.5625-0.23438-2.2344-1.4375-0.21875-0.39062-0.21875-0.4375-0.21875-0.8125z"/>
</g>
<g id="h">
<path d="m12.828-14.031c0-0.35938-0.015625-0.39062-0.14062-0.39062-0.09375 0-0.10938 0.03125-0.25 0.26562l-0.90625 1.7344c-1.0156-1.2656-2.25-2.0156-3.8438-2.0156-3.5312 0-6.7344 3.125-6.7344 7.375 0 4.2969 3.2031 7.3906 6.75 7.3906 3.1562 0 5.125-2.7812 5.125-5.1562 0-0.21875 0-0.29688-0.1875-0.29688-0.17188 0-0.17188 0.0625-0.1875 0.25-0.15625 2.8906-2.2344 4.6719-4.4531 4.6719-2.1094 0-5.4844-1.4844-5.4844-6.8594 0-5.3906 3.4375-6.8438 5.4375-6.8438 2.3281 0 4.0312 2.0312 4.4219 4.9062 0.046875 0.23438 0.046875 0.28125 0.21875 0.28125 0.23438 0 0.23438-0.046875 0.23438-0.40625z"/>
</g>
<g id="d">
<path d="m8.9062-4.4219c0-2.6406-1.9219-4.7031-4.1719-4.7031s-4.1719 2.0625-4.1719 4.7031c0 2.6094 1.9219 4.5938 4.1719 4.5938s4.1719-1.9844 4.1719-4.5938zm-4.1719 4.2188c-0.96875 0-1.7969-0.57812-2.2812-1.3906-0.51562-0.92188-0.57812-2.0781-0.57812-2.9844 0-0.875 0.046875-1.9531 0.57812-2.875 0.42188-0.6875 1.2188-1.3438 2.2812-1.3438 0.92188 0 1.7031 0.51562 2.2031 1.2344 0.64062 0.96875 0.64062 2.3438 0.64062 2.9844 0 0.79688-0.03125 2.0312-0.59375 3.0312-0.57812 0.95312-1.4688 1.3438-2.25 1.3438z"/>
</g>
<g id="k">
<path d="m6.0312-14.109v0.53125c1.2188 0 1.4062 0.125 1.4062 1.125v4.8281c-0.078125-0.09375-0.9375-1.4219-2.6094-1.4219-2.0938 0-4.1406 1.875-4.1406 4.6094 0 2.7031 1.9219 4.6094 3.9375 4.6094 1.75 0 2.6719-1.375 2.7656-1.5156v1.5156l2.5-0.17188v-0.53125c-1.2188 0-1.4062-0.125-1.4062-1.125v-12.672zm1.3594 11.625c0 0.625-0.375 1.1875-0.84375 1.5938-0.70312 0.625-1.4062 0.71875-1.7969 0.71875-0.59375 0-2.75-0.29688-2.75-4.25 0-4.0469 2.4062-4.2969 2.9375-4.2969 0.95312 0 1.7188 0.53125 2.1875 1.2812 0.26562 0.4375 0.26562 0.5 0.26562 0.875z"/>
</g>
<g id="j">
<path d="m7.875-4.8594c0.078125-0.078125 0.078125-0.125 0.078125-0.32812 0-2.1094-1.1094-3.9375-3.4688-3.9375-2.1875 0-3.9219 2.0781-3.9219 4.625 0 2.6875 1.9531 4.6719 4.1406 4.6719 2.3125 0 3.2344-2.2031 3.2344-2.625 0-0.15625-0.125-0.15625-0.17188-0.15625-0.14062 0-0.17188 0.046875-0.25 0.29688-0.45312 1.4062-1.5938 2.1094-2.6562 2.1094-0.89062 0-1.7812-0.5-2.3438-1.4062-0.64062-1.0625-0.64062-2.2812-0.64062-3.25zm-5.9688-0.3125c0.14062-2.9688 1.7344-3.625 2.5625-3.625 1.3906 0 2.3438 1.3125 2.375 3.625z"/>
</g>
<g id="i">
<path d="m12.016-7.0625c0.42188-1.2188 1.25-1.2656 1.5625-1.2812v-0.53125c-0.42188 0.015625-0.82812 0.03125-1.25 0.03125-0.39062 0-1.2812 0-1.625-0.03125v0.53125c0.64062 0.046875 0.98438 0.40625 0.98438 0.92188 0 0.15625-0.03125 0.34375-0.078125 0.48438l-1.9375 5.6094-2.1094-6.0938c-0.046875-0.14062-0.10938-0.29688-0.10938-0.39062 0-0.53125 0.70312-0.53125 1.0312-0.53125v-0.53125c-0.46875 0.03125-1.3438 0.03125-1.8281 0.03125-0.51562 0-1.0625 0-1.5312-0.03125v0.53125c1.1406 0 1.1406 0.046875 1.5625 1.3438l-1.8906 5.5312-2.0469-5.9688c-0.10938-0.26562-0.10938-0.3125-0.10938-0.375 0-0.53125 0.70312-0.53125 1.0312-0.53125v-0.53125c-0.48438 0.03125-1.3594 0.03125-1.875 0.03125-0.45312 0-1.1562 0-1.5938-0.03125v0.53125c0.90625 0 1.1406 0.0625 1.3594 0.75l2.5469 7.4219c0.078125 0.28125 0.14062 0.34375 0.3125 0.34375 0.14062 0 0.21875-0.046875 0.32812-0.35938l2.125-6.2344 2.1562 6.2344c0.09375 0.3125 0.1875 0.35938 0.32812 0.35938 0.15625 0 0.21875-0.0625 0.3125-0.34375z"/>
</g>
<g id="q">
<path d="m8.6094-3.2031h-0.375c-0.20312 1.4688-0.35938 1.7188-0.45312 1.8438-0.09375 0.15625-1.5781 0.15625-1.875 0.15625h-3.9688c0.75-0.79688 2.1875-2.2656 3.9531-3.9688 1.25-1.1875 2.7188-2.5938 2.7188-4.6406 0-2.4375-1.9375-3.8438-4.1094-3.8438-2.2656 0-3.6562 2-3.6562 3.8594 0 0.8125 0.60938 0.92188 0.84375 0.92188 0.21875 0 0.82812-0.125 0.82812-0.85938 0-0.64062-0.53125-0.82812-0.82812-0.82812-0.125 0-0.23438 0.03125-0.32812 0.0625 0.39062-1.75 1.5938-2.6094 2.8594-2.6094 1.7969 0 2.9688 1.4219 2.9688 3.2969 0 1.7969-1.0469 3.3438-2.2344 4.6875l-4.1094 4.6562v0.46875h7.2812z"/>
</g>
<g id="a">
<path d="m5.5-13.203c0-0.4375-0.03125-0.45312-0.3125-0.45312-0.8125 0.96875-2.0312 1.2812-3.1875 1.3281-0.0625 0-0.15625 0-0.1875 0.03125-0.015625 0.046875-0.015625 0.09375-0.015625 0.51562 0.64062 0 1.7188-0.10938 2.5469-0.60938v10.875c0 0.73438-0.046875 0.98438-1.8281 0.98438h-0.60938v0.53125c0.98438-0.015625 2.0156-0.046875 3.0156-0.046875 0.98438 0 2.0156 0.03125 3.0156 0.046875v-0.53125h-0.625c-1.7812 0-1.8125-0.23438-1.8125-0.98438z"/>
</g>
<g id="b">
<path d="m8.6719-6.625c0-1.2656-0.015625-3.4062-0.89062-5.0625-0.76562-1.4531-1.9844-1.9688-3.0469-1.9688-1 0-2.25 0.45312-3.0469 1.9375-0.8125 1.5625-0.90625 3.4844-0.90625 5.0938 0 1.1719 0.03125 2.9688 0.67188 4.5312 0.875 2.1406 2.4688 2.4219 3.2812 2.4219 0.95312 0 2.3906-0.39062 3.2344-2.3594 0.625-1.4219 0.70312-3.0938 0.70312-4.5938zm-3.9375 6.625c-1.3281 0-2.1094-1.1406-2.4062-2.7031-0.21875-1.2188-0.21875-3-0.21875-4.1562 0-1.5938 0-2.9062 0.26562-4.1719 0.39062-1.75 1.5469-2.2969 2.3594-2.2969 0.84375 0 1.9375 0.5625 2.3281 2.25 0.26562 1.1875 0.29688 2.5625 0.29688 4.2188 0 1.3438 0 3-0.25 4.2188-0.4375 2.25-1.6562 2.6406-2.375 2.6406z"/>
</g>
<g id="p">
<path d="m4.5625-7.0156c1.8438 0 2.6406 1.5781 2.6406 3.4219 0 2.4844-1.3125 3.4219-2.5156 3.4219-1.0938 0-2.875-0.53125-3.4219-2.125 0.09375 0.046875 0.20312 0.046875 0.29688 0.046875 0.5 0 0.875-0.32812 0.875-0.875 0-0.59375-0.45312-0.85938-0.875-0.85938-0.34375 0-0.875 0.15625-0.875 0.92188 0 1.9062 1.8594 3.3906 4.0469 3.3906 2.2812 0 4.0469-1.7969 4.0469-3.9062 0-2-1.6562-3.4375-3.6094-3.6719 1.5625-0.32812 3.0625-1.7344 3.0625-3.6094 0-1.6094-1.625-2.7969-3.4844-2.7969-1.875 0-3.5312 1.1562-3.5312 2.8125 0 0.71875 0.53125 0.84375 0.8125 0.84375 0.42188 0 0.79688-0.26562 0.79688-0.79688 0-0.54688-0.375-0.8125-0.79688-0.8125-0.09375 0-0.1875 0-0.28125 0.046875 0.60938-1.375 2.2344-1.6094 2.9531-1.6094 0.73438 0 2.0938 0.34375 2.0938 2.3281 0 0.57812-0.078125 1.6094-0.78125 2.5156-0.625 0.8125-1.3281 0.84375-2.0156 0.90625-0.09375 0-0.57812 0.046875-0.65625 0.046875-0.14062 0.015625-0.21875 0.046875-0.21875 0.1875s0.015625 0.17188 0.42188 0.17188z"/>
</g>
</defs>
<path transform="matrix(.1 0 0 -.1 -.472 214.48)" d="m1590.2 1864.3v-1857" fill="none" stroke="#000" stroke-dasharray="37.794" stroke-miterlimit="10" stroke-width="4.7242"/>
<path transform="matrix(.1 0 0 -.1 -.472 214.48)" d="m2702 1717.5v-1559" fill="none" stroke="#000" stroke-miterlimit="10" stroke-width="4.7242"/>
<path transform="matrix(.1 0 0 -.1 -.472 214.48)" d="m1284.7 1637.6h1984.2" fill="none" stroke="#000" stroke-dasharray="37.794" stroke-miterlimit="10" stroke-width="4.7242"/>
<path transform="matrix(.1 0 0 -.1 -.472 214.48)" d="m9.1731 583.74h3684.9" fill="none" stroke="#000" stroke-miterlimit="10" stroke-width="4.7242"/>
<g>
<use x="267.825" y="14.34" xlink:href="#o"/>
<use x="280.267958" y="14.34" xlink:href="#g"/>
<use x="289.74378" y="14.34" xlink:href="#e"/>
<use x="297.060371" y="14.34" xlink:href="#f"/>
<use x="302.217731" y="14.34" xlink:href="#c"/>
<use x="309.534" y="14.997" xlink:href="#n"/>
<use x="309.534" y="14.34" xlink:href="#g"/>
<use x="319.009823" y="14.34" xlink:href="#c"/>
<use x="326.326414" y="14.34" xlink:href="#m"/>
<use x="333.752516" y="14.34" xlink:href="#l"/>
<use x="344.308987" y="14.34" xlink:href="#f"/>
<use x="349.466347" y="14.34" xlink:href="#c"/>
<use x="0.473" y="99.385" xlink:href="#h"/>
<use x="14.267285" y="99.385" xlink:href="#d"/>
<use x="24.280333" y="99.385" xlink:href="#k"/>
<use x="34.836804" y="99.385" xlink:href="#j"/>
<use x="43.234044" y="99.385" xlink:href="#i"/>
<use x="56.491104" y="99.385" xlink:href="#d"/>
<use x="65.966926" y="99.385" xlink:href="#e"/>
<use x="73.283518" y="99.385" xlink:href="#c"/>
<use x="86.840184" y="99.385" xlink:href="#q"/>
<use x="0.473" y="56.863" xlink:href="#h"/>
<use x="14.267285" y="56.863" xlink:href="#d"/>
<use x="24.280333" y="56.863" xlink:href="#k"/>
<use x="34.836804" y="56.863" xlink:href="#j"/>
<use x="43.234044" y="56.863" xlink:href="#i"/>
<use x="56.491104" y="56.863" xlink:href="#d"/>
<use x="65.966926" y="56.863" xlink:href="#e"/>
<use x="73.283518" y="56.863" xlink:href="#c"/>
<use x="86.840184" y="56.863" xlink:href="#a"/>
<use x="142.207419" y="56.863" xlink:href="#b"/>
<use x="151.683241" y="56.863" xlink:href="#b"/>
<use x="161.159064" y="56.863" xlink:href="#a"/>
<use x="170.634886" y="56.863" xlink:href="#b"/>
<use x="180.110709" y="56.863" xlink:href="#a"/>
<use x="189.586531" y="56.863" xlink:href="#b"/>
<use x="199.062354" y="56.863" xlink:href="#b"/>
<use x="142.215" y="99.385" xlink:href="#a"/>
<use x="151.690823" y="99.385" xlink:href="#b"/>
<use x="161.166645" y="99.385" xlink:href="#a"/>
<use x="170.642468" y="99.385" xlink:href="#a"/>
<use x="180.11829" y="99.385" xlink:href="#b"/>
<use x="189.594112" y="99.385" xlink:href="#b"/>
<use x="199.069935" y="99.385" xlink:href="#a"/>
<use x="307.560457" y="99.385" xlink:href="#b"/>
<use x="0.473" y="141.907" xlink:href="#h"/>
<use x="14.267285" y="141.907" xlink:href="#d"/>
<use x="24.280333" y="141.907" xlink:href="#k"/>
<use x="34.836804" y="141.907" xlink:href="#j"/>
<use x="43.234044" y="141.907" xlink:href="#i"/>
<use x="56.491104" y="141.907" xlink:href="#d"/>
<use x="65.966926" y="141.907" xlink:href="#e"/>
<use x="73.283518" y="141.907" xlink:href="#c"/>
<use x="86.840184" y="141.907" xlink:href="#p"/>
<use x="142.207419" y="141.907" xlink:href="#b"/>
<use x="151.683241" y="141.907" xlink:href="#b"/>
<use x="161.159064" y="141.907" xlink:href="#a"/>
<use x="170.634886" y="141.907" xlink:href="#a"/>
<use x="180.110709" y="141.907" xlink:href="#b"/>
<use x="189.586531" y="141.907" xlink:href="#a"/>
<use x="199.062354" y="141.907" xlink:href="#a"/>
<use x="307.573539" y="141.907" xlink:href="#b"/>
<use x="0.473" y="198.604" xlink:href="#o"/>
<use x="12.915958" y="198.604" xlink:href="#g"/>
<use x="22.39178" y="198.604" xlink:href="#e"/>
<use x="29.708371" y="198.604" xlink:href="#f"/>
<use x="34.865731" y="198.604" xlink:href="#c"/>
<use x="42.183" y="199.26" xlink:href="#n"/>
<use x="42.183" y="198.604" xlink:href="#g"/>
<use x="51.658823" y="198.604" xlink:href="#c"/>
<use x="58.975414" y="198.604" xlink:href="#m"/>
<use x="66.401516" y="198.604" xlink:href="#l"/>
<use x="76.957988" y="198.604" xlink:href="#f"/>
<use x="82.115348" y="198.604" xlink:href="#c"/>
<use x="142.224626" y="198.604" xlink:href="#a"/>
<use x="151.700449" y="198.604" xlink:href="#a"/>
<use x="161.176271" y="198.604" xlink:href="#a"/>
<use x="170.652094" y="198.604" xlink:href="#b"/>
<use x="180.127916" y="198.604" xlink:href="#a"/>
<use x="189.603739" y="198.604" xlink:href="#a"/>
<use x="199.079561" y="198.604" xlink:href="#b"/>
<use x="307.570084" y="198.604" xlink:href="#a"/>
<use x="307.566" y="56.863" xlink:href="#a"/>
</g>
</svg>
