<svg width="366pt" height="272pt" version="1.1" viewBox="0 0 366 272" xmlns="http://www.w3.org/2000/svg" xmlns:xlink="http://www.w3.org/1999/xlink">
<defs>
<g id="aj">
<path d="m1.3594-0.78125c0 0.35938-0.03125 0.46875-0.79688 0.46875h-0.23438v0.3125h5.75l0.42188-2.5781h-0.25c-0.25 1.5469-0.48438 2.2656-2.1875 2.2656h-1.3281c-0.46875 0-0.48438-0.0625-0.48438-0.39062v-2.6719h0.89062c0.96875 0 1.0781 0.32812 1.0781 1.1719h0.25v-2.6406h-0.25c0 0.85938-0.10938 1.1719-1.0781 1.1719h-0.89062v-2.4062c0-0.32812 0.015625-0.39062 0.48438-0.39062h1.2812c1.5312 0 1.7969 0.54688 1.9531 1.9375h0.25l-0.28125-2.25h-5.6094v0.3125h0.23438c0.76562 0 0.79688 0.10938 0.79688 0.46875z"/>
</g>
<g id="m">
<path d="m1.7656-4.4062-1.3906 0.10938v0.3125c0.64062 0 0.73438 0.0625 0.73438 0.54688v2.6875c0 0.4375-0.10938 0.4375-0.78125 0.4375v0.3125c0.3125-0.015625 0.85938-0.03125 1.0938-0.03125 0.35938 0 0.70312 0.015625 1.0469 0.03125v-0.3125c-0.67188 0-0.70312-0.046875-0.70312-0.4375zm0.03125-1.7344c0-0.3125-0.23438-0.53125-0.51562-0.53125-0.3125 0-0.53125 0.26562-0.53125 0.53125s0.21875 0.53125 0.53125 0.53125c0.28125 0 0.51562-0.21875 0.51562-0.53125z"/>
</g>
<g id="o">
<path d="m1.0938-3.4219v2.6719c0 0.4375-0.10938 0.4375-0.78125 0.4375v0.3125c0.35938-0.015625 0.85938-0.03125 1.1406-0.03125 0.25 0 0.76562 0.015625 1.1094 0.03125v-0.3125c-0.67188 0-0.78125 0-0.78125-0.4375v-1.8438c0-1.0312 0.71875-1.5938 1.3438-1.5938 0.64062 0 0.75 0.53125 0.75 1.1094v2.3281c0 0.4375-0.10938 0.4375-0.78125 0.4375v0.3125c0.34375-0.015625 0.85938-0.03125 1.125-0.03125 0.25 0 0.78125 0.015625 1.1094 0.03125v-0.3125c-0.51562 0-0.76562 0-0.76562-0.29688v-1.9062c0-0.85938 0-1.1562-0.3125-1.5156-0.14062-0.17188-0.46875-0.375-1.0469-0.375-0.73438 0-1.2031 0.42188-1.4844 1.0469v-1.0469l-1.4062 0.10938v0.3125c0.70312 0 0.78125 0.0625 0.78125 0.5625z"/>
</g>
<g id="g">
<path d="m1.1094-2.5156c0.0625-1.4844 0.90625-1.7344 1.25-1.7344 1.0156 0 1.125 1.3438 1.125 1.7344zm0 0.21875h2.7812c0.21875 0 0.25 0 0.25-0.21875 0-0.98438-0.54688-1.9531-1.7812-1.9531-1.1562 0-2.0781 1.0312-2.0781 2.2812 0 1.3281 1.0469 2.2969 2.1875 2.2969 1.2188 0 1.6719-1.1094 1.6719-1.2969 0-0.09375-0.078125-0.125-0.14062-0.125-0.078125 0-0.10938 0.0625-0.125 0.14062-0.34375 1.0312-1.25 1.0312-1.3438 1.0312-0.5 0-0.89062-0.29688-1.125-0.67188-0.29688-0.46875-0.29688-1.125-0.29688-1.4844z"/>
</g>
<g id="t">
<path d="m1.75-4.2969v-1.1562c0-0.875 0.46875-1.3594 0.90625-1.3594 0.03125 0 0.1875 0 0.32812 0.078125-0.10938 0.03125-0.29688 0.17188-0.29688 0.42188 0 0.21875 0.15625 0.42188 0.4375 0.42188s0.4375-0.20312 0.4375-0.4375c0-0.375-0.375-0.70312-0.90625-0.70312-0.6875 0-1.5469 0.53125-1.5469 1.5938v1.1406h-0.78125v0.3125h0.78125v3.2344c0 0.4375-0.10938 0.4375-0.76562 0.4375v0.3125c0.39062-0.015625 0.85938-0.03125 1.125-0.03125 0.40625 0 0.875 0 1.2656 0.03125v-0.3125h-0.20312c-0.73438 0-0.75-0.10938-0.75-0.46875v-3.2031h1.125v-0.3125z"/>
</g>
<g id="s">
<path d="m3.3125-0.75c0.046875 0.39062 0.3125 0.8125 0.78125 0.8125 0.21875 0 0.82812-0.14062 0.82812-0.95312v-0.5625h-0.25v0.5625c0 0.57812-0.25 0.64062-0.35938 0.64062-0.32812 0-0.375-0.45312-0.375-0.5v-1.9844c0-0.42188 0-0.8125-0.35938-1.1875-0.39062-0.39062-0.89062-0.54688-1.3594-0.54688-0.82812 0-1.5156 0.46875-1.5156 1.125 0 0.29688 0.20312 0.46875 0.46875 0.46875 0.28125 0 0.45312-0.20312 0.45312-0.45312 0-0.125-0.046875-0.45312-0.51562-0.45312 0.28125-0.35938 0.76562-0.46875 1.0781-0.46875 0.5 0 1.0625 0.39062 1.0625 1.2812v0.35938c-0.51562 0.03125-1.2031 0.0625-1.8281 0.35938-0.75 0.34375-1 0.85938-1 1.2969 0 0.8125 0.96875 1.0625 1.5938 1.0625 0.65625 0 1.1094-0.40625 1.2969-0.85938zm-0.0625-1.6406v1c0 0.9375-0.71875 1.2812-1.1719 1.2812-0.48438 0-0.89062-0.34375-0.89062-0.84375 0-0.54688 0.42188-1.375 2.0625-1.4375z"/>
</g>
<g id="r">
<path d="m1.1719-2.1719c0-1.625 0.8125-2.0469 1.3438-2.0469 0.09375 0 0.71875 0.015625 1.0625 0.375-0.40625 0.03125-0.46875 0.32812-0.46875 0.45312 0 0.26562 0.1875 0.45312 0.45312 0.45312s0.46875-0.15625 0.46875-0.46875c0-0.67188-0.76562-1.0625-1.5312-1.0625-1.25 0-2.1562 1.0781-2.1562 2.3125 0 1.2812 0.98438 2.2656 2.1406 2.2656 1.3281 0 1.6562-1.2031 1.6562-1.2969s-0.10938-0.09375-0.14062-0.09375c-0.078125 0-0.10938 0.03125-0.125 0.09375-0.28125 0.92188-0.9375 1.0469-1.2969 1.0469-0.53125 0-1.4062-0.42188-1.4062-2.0312z"/>
</g>
<g id="q">
<path d="m1.0938-0.75c0 0.4375-0.10938 0.4375-0.78125 0.4375v0.3125c0.35938-0.015625 0.85938-0.03125 1.1406-0.03125 0.25 0 0.76562 0.015625 1.1094 0.03125v-0.3125c-0.67188 0-0.78125 0-0.78125-0.4375v-1.8438c0-1.0312 0.71875-1.5938 1.3438-1.5938 0.64062 0 0.75 0.53125 0.75 1.1094v2.3281c0 0.4375-0.10938 0.4375-0.78125 0.4375v0.3125c0.34375-0.015625 0.85938-0.03125 1.125-0.03125 0.25 0 0.78125 0.015625 1.1094 0.03125v-0.3125c-0.51562 0-0.76562 0-0.76562-0.29688v-1.9062c0-0.85938 0-1.1562-0.3125-1.5156-0.14062-0.17188-0.46875-0.375-1.0469-0.375-0.84375 0-1.2812 0.59375-1.4531 0.98438v-3.5l-1.4375 0.10938v0.3125c0.70312 0 0.78125 0.0625 0.78125 0.5625z"/>
</g>
<g id="e">
<path d="m2.0781-1.9375c0.21875 0.046875 1.0312 0.20312 1.0312 0.92188 0 0.5-0.34375 0.90625-1.125 0.90625-0.84375 0-1.2031-0.5625-1.3906-1.4219-0.03125-0.125-0.03125-0.15625-0.14062-0.15625-0.125 0-0.125 0.0625-0.125 0.23438v1.3281c0 0.17188 0 0.23438 0.10938 0.23438 0.046875 0 0.0625-0.015625 0.25-0.20312 0.015625-0.015625 0.015625-0.03125 0.20312-0.21875 0.4375 0.40625 0.89062 0.42188 1.0938 0.42188 1.1406 0 1.6094-0.67188 1.6094-1.3906 0-0.51562-0.29688-0.82812-0.42188-0.9375-0.32812-0.32812-0.71875-0.40625-1.1406-0.48438-0.5625-0.10938-1.2188-0.23438-1.2188-0.8125 0-0.35938 0.25-0.76562 1.1094-0.76562 1.0938 0 1.1562 0.90625 1.1719 1.2031 0 0.09375 0.09375 0.09375 0.10938 0.09375 0.14062 0 0.14062-0.046875 0.14062-0.23438v-1.0156c0-0.15625 0-0.23438-0.10938-0.23438-0.046875 0-0.078125 0-0.20312 0.125-0.03125 0.03125-0.125 0.125-0.17188 0.15625-0.375-0.28125-0.78125-0.28125-0.9375-0.28125-1.2188 0-1.5938 0.67188-1.5938 1.2344 0 0.34375 0.15625 0.625 0.42188 0.84375 0.32812 0.25 0.60938 0.3125 1.3281 0.45312z"/>
</g>
<g id="b">
<path d="m1.2656-0.76562 1.0625-1.0312c1.5469-1.375 2.1406-1.9062 2.1406-2.9062 0-1.1406-0.89062-1.9375-2.1094-1.9375-1.125 0-1.8594 0.92188-1.8594 1.8125 0 0.54688 0.5 0.54688 0.53125 0.54688 0.17188 0 0.51562-0.10938 0.51562-0.53125 0-0.25-0.1875-0.51562-0.53125-0.51562-0.078125 0-0.09375 0-0.125 0.015625 0.21875-0.65625 0.76562-1.0156 1.3438-1.0156 0.90625 0 1.3281 0.8125 1.3281 1.625 0 0.79688-0.48438 1.5781-1.0469 2.2031l-1.9062 2.125c-0.10938 0.10938-0.10938 0.14062-0.10938 0.375h3.7031l0.26562-1.7344h-0.23438c-0.0625 0.29688-0.125 0.73438-0.23438 0.89062-0.0625 0.078125-0.71875 0.078125-0.9375 0.078125z"/>
</g>
<g id="d">
<path d="m4.5781-3.1875c0-0.79688-0.046875-1.5938-0.39062-2.3281-0.45312-0.96875-1.2812-1.125-1.6875-1.125-0.60938 0-1.3281 0.26562-1.75 1.1875-0.3125 0.6875-0.35938 1.4688-0.35938 2.2656 0 0.75 0.03125 1.6406 0.45312 2.4062 0.42188 0.79688 1.1562 1 1.6406 1 0.53125 0 1.2969-0.20312 1.7344-1.1562 0.3125-0.6875 0.35938-1.4688 0.35938-2.25zm-2.0938 3.1875c-0.39062 0-0.98438-0.25-1.1562-1.2031-0.10938-0.59375-0.10938-1.5156-0.10938-2.1094 0-0.64062 0-1.2969 0.078125-1.8281 0.1875-1.1875 0.9375-1.2812 1.1875-1.2812 0.32812 0 0.98438 0.1875 1.1719 1.1719 0.10938 0.5625 0.10938 1.3125 0.10938 1.9375 0 0.75 0 1.4219-0.10938 2.0625-0.15625 0.95312-0.71875 1.25-1.1719 1.25z"/>
</g>
<g id="a">
<path d="m1.9062-0.53125c0-0.28125-0.23438-0.53125-0.51562-0.53125-0.29688 0-0.53125 0.25-0.53125 0.53125 0 0.29688 0.23438 0.53125 0.53125 0.53125 0.28125 0 0.51562-0.23438 0.51562-0.53125z"/>
</g>
<g id="c">
<path d="m2.9375-6.375c0-0.25 0-0.26562-0.23438-0.26562-0.625 0.64062-1.5 0.64062-1.8125 0.64062v0.3125c0.20312 0 0.78125 0 1.2969-0.26562v5.1719c0 0.35938-0.03125 0.46875-0.92188 0.46875h-0.3125v0.3125c0.34375-0.03125 1.2031-0.03125 1.6094-0.03125 0.39062 0 1.2656 0 1.6094 0.03125v-0.3125h-0.3125c-0.90625 0-0.92188-0.10938-0.92188-0.46875z"/>
</g>
<g id="i">
<path d="m6.1094-6.0312c0-0.35938 0.015625-0.46875 0.78125-0.46875h0.25v-0.3125c-0.35938 0.03125-1.0938 0.03125-1.4688 0.03125s-1.125 0-1.4688-0.03125v0.3125h0.23438c0.76562 0 0.78125 0.10938 0.78125 0.46875v2.3281h-2.9688v-2.3281c0-0.35938 0.015625-0.46875 0.78125-0.46875h0.23438v-0.3125c-0.34375 0.03125-1.0781 0.03125-1.4688 0.03125-0.375 0-1.125 0-1.4688-0.03125v0.3125h0.23438c0.76562 0 0.79688 0.10938 0.79688 0.46875v5.25c0 0.35938-0.03125 0.46875-0.79688 0.46875h-0.23438v0.3125c0.34375-0.03125 1.0938-0.03125 1.4688-0.03125s1.125 0 1.4688 0.03125v-0.3125h-0.23438c-0.76562 0-0.78125-0.10938-0.78125-0.46875v-2.6094h2.9688v2.6094c0 0.35938-0.015625 0.46875-0.78125 0.46875h-0.23438v0.3125c0.34375-0.03125 1.0781-0.03125 1.4531-0.03125 0.39062 0 1.125 0 1.4844 0.03125v-0.3125h-0.25c-0.76562 0-0.78125-0.10938-0.78125-0.46875z"/>
</g>
<g id="h">
<path d="m4.6875-2.1406c0-1.2656-0.98438-2.3281-2.1875-2.3281-1.25 0-2.2188 1.0938-2.2188 2.3281 0 1.2969 1.0312 2.25 2.2031 2.25 1.2031 0 2.2031-0.98438 2.2031-2.25zm-2.1875 2c-0.4375 0-0.875-0.20312-1.1406-0.67188-0.25-0.4375-0.25-1.0469-0.25-1.4062 0-0.39062 0-0.92188 0.23438-1.3594 0.26562-0.45312 0.73438-0.67188 1.1406-0.67188 0.4375 0 0.85938 0.21875 1.125 0.65625 0.26562 0.42188 0.26562 1 0.26562 1.375 0 0.35938 0 0.90625-0.21875 1.3438-0.23438 0.45312-0.67188 0.73438-1.1562 0.73438z"/>
</g>
<g id="f">
<path d="m1.7188-3.9844h1.4375v-0.3125h-1.4375v-1.8281h-0.25c0 0.8125-0.29688 1.875-1.2812 1.9219v0.21875h0.84375v2.75c0 1.2188 0.9375 1.3438 1.2969 1.3438 0.70312 0 0.98438-0.70312 0.98438-1.3438v-0.5625h-0.25v0.54688c0 0.73438-0.29688 1.1094-0.67188 1.1094-0.67188 0-0.67188-0.90625-0.67188-1.0781z"/>
</g>
<g id="j">
<path d="m2.8906-3.5156c0.8125-0.26562 1.3906-0.95312 1.3906-1.75 0-0.8125-0.875-1.375-1.8281-1.375-1 0-1.7656 0.59375-1.7656 1.3594 0 0.32812 0.21875 0.51562 0.51562 0.51562s0.5-0.21875 0.5-0.51562c0-0.48438-0.46875-0.48438-0.60938-0.48438 0.29688-0.5 0.95312-0.625 1.3125-0.625 0.42188 0 0.96875 0.21875 0.96875 1.1094 0 0.125-0.03125 0.70312-0.28125 1.1406-0.29688 0.48438-0.64062 0.51562-0.89062 0.51562-0.078125 0.015625-0.3125 0.03125-0.39062 0.03125-0.078125 0.015625-0.14062 0.03125-0.14062 0.125 0 0.10938 0.0625 0.10938 0.23438 0.10938h0.4375c0.8125 0 1.1875 0.67188 1.1875 1.6562 0 1.3594-0.6875 1.6406-1.125 1.6406s-1.1875-0.17188-1.5312-0.75c0.34375 0.046875 0.65625-0.17188 0.65625-0.54688 0-0.35938-0.26562-0.5625-0.54688-0.5625-0.25 0-0.5625 0.14062-0.5625 0.57812 0 0.90625 0.92188 1.5625 2.0156 1.5625 1.2188 0 2.125-0.90625 2.125-1.9219 0-0.8125-0.64062-1.5938-1.6719-1.8125z"/>
</g>
<g id="ai">
<path d="m2.2344-3.5156v-2.5781c0-0.23438 0-0.35938 0.21875-0.39062 0.09375-0.015625 0.39062-0.015625 0.59375-0.015625 0.89062 0 2 0.046875 2 1.4844 0 0.6875-0.23438 1.5-1.7031 1.5zm2.1094 0.125c0.95312-0.23438 1.7344-0.84375 1.7344-1.625 0-0.95312-1.1406-1.7969-2.5938-1.7969h-3.1406v0.3125h0.25c0.76562 0 0.78125 0.10938 0.78125 0.46875v5.25c0 0.35938-0.015625 0.46875-0.78125 0.46875h-0.25v0.3125c0.35938-0.03125 1.0781-0.03125 1.4531-0.03125 0.39062 0 1.1094 0 1.4688 0.03125v-0.3125h-0.25c-0.76562 0-0.78125-0.10938-0.78125-0.46875v-2.5156h1.1406c0.15625 0 0.57812 0 0.9375 0.34375 0.375 0.34375 0.375 0.65625 0.375 1.3281 0 0.64062 0 1.0469 0.40625 1.4219 0.40625 0.35938 0.95312 0.42188 1.25 0.42188 0.78125 0 0.95312-0.8125 0.95312-1.0938 0-0.0625 0-0.17188-0.125-0.17188-0.10938 0-0.10938 0.09375-0.125 0.15625-0.0625 0.71875-0.40625 0.89062-0.65625 0.89062-0.48438 0-0.5625-0.51562-0.70312-1.4375l-0.14062-0.79688c-0.17188-0.64062-0.65625-0.96875-1.2031-1.1562z"/>
</g>
<g id="ah">
<path d="m3.8906-0.78125v0.89062l1.4375-0.10938v-0.3125c-0.6875 0-0.76562-0.0625-0.76562-0.5625v-3.5312l-1.4688 0.10938v0.3125c0.6875 0 0.78125 0.0625 0.78125 0.5625v1.7656c0 0.875-0.48438 1.5469-1.2188 1.5469-0.82812 0-0.875-0.46875-0.875-0.98438v-3.3125l-1.4688 0.10938v0.3125c0.78125 0 0.78125 0.03125 0.78125 0.90625v1.5c0 0.78125 0 1.6875 1.5156 1.6875 0.5625 0 1-0.28125 1.2812-0.89062z"/>
</g>
<g id="k">
<path d="m1.6719-3.3125v-1.0938l-1.3906 0.10938v0.3125c0.70312 0 0.78125 0.0625 0.78125 0.5625v2.6719c0 0.4375-0.10938 0.4375-0.78125 0.4375v0.3125c0.39062-0.015625 0.85938-0.03125 1.1406-0.03125 0.39062 0 0.85938 0 1.2656 0.03125v-0.3125h-0.21875c-0.73438 0-0.75-0.10938-0.75-0.46875v-1.5312c0-0.98438 0.42188-1.875 1.1719-1.875 0.0625 0 0.09375 0 0.10938 0.015625-0.03125 0-0.23438 0.125-0.23438 0.39062s0.21875 0.42188 0.4375 0.42188c0.17188 0 0.42188-0.125 0.42188-0.4375s-0.3125-0.60938-0.73438-0.60938c-0.73438 0-1.0938 0.67188-1.2188 1.0938z"/>
</g>
<g id="p">
<path d="m4.75-6.0781c0.078125-0.10938 0.078125-0.125 0.078125-0.34375h-2.4219c-1.2031 0-1.2344-0.125-1.2656-0.3125h-0.25l-0.32812 2.0469h0.25c0.03125-0.15625 0.10938-0.78125 0.25-0.90625 0.0625-0.0625 0.84375-0.0625 0.96875-0.0625h2.0625c-0.10938 0.15625-0.89062 1.25-1.1094 1.5781-0.90625 1.3438-1.2344 2.7344-1.2344 3.75 0 0.09375 0 0.54688 0.46875 0.54688 0.45312 0 0.45312-0.45312 0.45312-0.54688v-0.51562c0-0.54688 0.03125-1.0938 0.10938-1.625 0.046875-0.23438 0.17188-1.0938 0.625-1.7031z"/>
</g>
<g id="ag">
<path d="m1.3125-3.2656v-0.25c0-2.5156 1.2344-2.875 1.75-2.875 0.23438 0 0.65625 0.0625 0.875 0.40625-0.15625 0-0.54688 0-0.54688 0.4375 0 0.3125 0.23438 0.46875 0.45312 0.46875 0.15625 0 0.46875-0.09375 0.46875-0.48438 0-0.59375-0.4375-1.0781-1.2656-1.0781-1.2812 0-2.625 1.2812-2.625 3.4844 0 2.6719 1.1562 3.375 2.0781 3.375 1.1094 0 2.0625-0.9375 2.0625-2.25 0-1.2656-0.89062-2.2188-2-2.2188-0.67188 0-1.0469 0.5-1.25 0.98438zm1.1875 3.2031c-0.625 0-0.92188-0.59375-0.98438-0.75-0.1875-0.46875-0.1875-1.2656-0.1875-1.4375 0-0.78125 0.32812-1.7812 1.2188-1.7812 0.17188 0 0.625 0 0.9375 0.625 0.17188 0.35938 0.17188 0.875 0.17188 1.3594s0 0.98438-0.17188 1.3438c-0.29688 0.59375-0.75 0.64062-0.98438 0.64062z"/>
</g>
<g id="af">
<path d="m4.4688-2c0-1.1875-0.8125-2.1875-1.8906-2.1875-0.46875 0-0.90625 0.15625-1.2656 0.51562v-1.9531c0.20312 0.0625 0.53125 0.125 0.84375 0.125 1.2344 0 1.9375-0.90625 1.9375-1.0312 0-0.0625-0.03125-0.10938-0.10938-0.10938 0 0-0.03125 0-0.078125 0.03125-0.20312 0.09375-0.6875 0.29688-1.3594 0.29688-0.39062 0-0.85938-0.078125-1.3281-0.28125-0.078125-0.03125-0.09375-0.03125-0.10938-0.03125-0.10938 0-0.10938 0.078125-0.10938 0.23438v2.9531c0 0.17188 0 0.25 0.14062 0.25 0.078125 0 0.09375-0.015625 0.14062-0.078125 0.10938-0.15625 0.46875-0.70312 1.2812-0.70312 0.51562 0 0.76562 0.45312 0.84375 0.64062 0.15625 0.375 0.1875 0.75 0.1875 1.25 0 0.35938 0 0.95312-0.25 1.375-0.23438 0.39062-0.60938 0.64062-1.0625 0.64062-0.71875 0-1.2969-0.53125-1.4688-1.1094 0.03125 0 0.0625 0.015625 0.17188 0.015625 0.32812 0 0.5-0.25 0.5-0.48438 0-0.25-0.17188-0.5-0.5-0.5-0.14062 0-0.48438 0.078125-0.48438 0.53125 0 0.85938 0.6875 1.8281 1.7969 1.8281 1.1562 0 2.1719-0.95312 2.1719-2.2188z"/>
</g>
<g id="l">
<path d="m2.9375-1.6406v0.85938c0 0.35938-0.03125 0.46875-0.76562 0.46875h-0.20312v0.3125c0.40625-0.03125 0.92188-0.03125 1.3438-0.03125s0.9375 0 1.3594 0.03125v-0.3125h-0.21875c-0.73438 0-0.75-0.10938-0.75-0.46875v-0.85938h0.98438v-0.3125h-0.98438v-4.5312c0-0.20312 0-0.26562-0.17188-0.26562-0.078125 0-0.10938 0-0.1875 0.125l-3.0625 4.6719v0.3125zm0.046875-0.3125h-2.4219l2.4219-3.7188z"/>
</g>
<g id="ae">
<path d="m3.6562-3.1719v0.32812c0 2.3281-1.0312 2.7812-1.6094 2.7812-0.17188 0-0.71875-0.015625-0.98438-0.35938 0.4375 0 0.51562-0.28125 0.51562-0.45312 0-0.3125-0.23438-0.45312-0.45312-0.45312-0.15625 0-0.45312 0.078125-0.45312 0.46875 0 0.67188 0.53125 1.0781 1.375 1.0781 1.2969 0 2.5156-1.3594 2.5156-3.5 0-2.6875-1.1562-3.3594-2.0469-3.3594-0.54688 0-1.0312 0.1875-1.4531 0.625-0.42188 0.45312-0.64062 0.875-0.64062 1.625 0 1.2344 0.875 2.2188 1.9844 2.2188 0.60938 0 1.0156-0.42188 1.25-1zm-1.2344 0.76562c-0.15625 0-0.625 0-0.92188-0.625-0.1875-0.375-0.1875-0.85938-0.1875-1.3594 0-0.53125 0-1 0.21875-1.375 0.26562-0.5 0.64062-0.625 0.98438-0.625 0.46875 0 0.79688 0.34375 0.96875 0.78125 0.10938 0.32812 0.15625 0.95312 0.15625 1.4062 0 0.82812-0.34375 1.7969-1.2188 1.7969z"/>
</g>
<g id="ad">
<path d="m2.25-6.0312c0-0.35938 0.015625-0.46875 0.8125-0.46875h0.25v-0.3125c-0.34375 0.03125-1.125 0.03125-1.5156 0.03125-0.375 0-1.1719 0-1.5156-0.03125v0.3125h0.25c0.79688 0 0.82812 0.10938 0.82812 0.46875v5.25c0 0.35938-0.03125 0.46875-0.82812 0.46875h-0.25v0.3125c0.34375-0.03125 1.1406-0.03125 1.5156-0.03125 0.39062 0 1.1719 0 1.5156 0.03125v-0.3125h-0.25c-0.79688 0-0.8125-0.10938-0.8125-0.46875z"/>
</g>
<g id="ac">
<path d="m2.2656-3.1562h1.6875c1.1875 0 2.2656-0.79688 2.2656-1.7969 0-0.98438-0.98438-1.8594-2.3438-1.8594h-3.5312v0.3125h0.25c0.76562 0 0.78125 0.10938 0.78125 0.46875v5.25c0 0.35938-0.015625 0.46875-0.78125 0.46875h-0.25v0.3125c0.35938-0.03125 1.0938-0.03125 1.4688-0.03125s1.125 0 1.4844 0.03125v-0.3125h-0.25c-0.76562 0-0.78125-0.10938-0.78125-0.46875zm-0.03125-0.25v-2.6875c0-0.34375 0.015625-0.40625 0.48438-0.40625h0.89062c1.5781 0 1.5781 1.0625 1.5781 1.5469 0 0.46875 0 1.5469-1.5781 1.5469z"/>
</g>
<g id="ab">
<path d="m2.75-1.8594v-0.57812h-2.6406v0.57812z"/>
</g>
<g id="aa">
<path d="m2.3125-6.6719c-0.09375-0.125-0.09375-0.14062-0.28125-0.14062h-1.7031v0.3125h0.29688c0.14062 0 0.34375 0.015625 0.48438 0.015625 0.23438 0.03125 0.25 0.046875 0.25 0.23438v5.2031c0 0.26562 0 0.73438-1.0312 0.73438v0.3125c0.34375-0.015625 0.84375-0.03125 1.1719-0.03125s0.8125 0.015625 1.1562 0.03125v-0.3125c-1.0156 0-1.0156-0.46875-1.0156-0.73438v-5.1875c0.046875 0.046875 0.046875 0.0625 0.09375 0.125l4.0625 5.9844c0.09375 0.10938 0.10938 0.125 0.17188 0.125 0.14062 0 0.14062-0.0625 0.14062-0.26562v-5.5c0-0.26562 0-0.73438 1.0312-0.73438v-0.3125c-0.35938 0.015625-0.84375 0.03125-1.1719 0.03125s-0.8125-0.015625-1.1562-0.03125v0.3125c1.0156 0 1.0156 0.46875 1.0156 0.73438v4.2656z"/>
</g>
<g id="z">
<path d="m3.8906-4c0.09375-0.10938 0.09375-0.125 0.09375-0.17188 0-0.125-0.09375-0.125-0.26562-0.125h-3.1875l-0.10938 1.6094h0.25c0.0625-1.0156 0.25-1.3906 1.3438-1.3906h1.1406l-2.7812 3.7656c-0.09375 0.10938-0.09375 0.125-0.09375 0.17188 0 0.14062 0.0625 0.14062 0.25 0.14062h3.2969l0.17188-1.8594h-0.25c-0.09375 1.1719-0.29688 1.6094-1.4531 1.6094h-1.1875z"/>
</g>
<g id="y">
<path d="m6.1719-3.3438c0.17188-0.5 0.48438-0.64062 0.84375-0.64062v-0.3125c-0.23438 0.015625-0.51562 0.03125-0.73438 0.03125-0.29688 0-0.73438-0.015625-0.92188-0.03125v0.3125c0.35938 0 0.57812 0.1875 0.57812 0.46875 0 0.0625 0 0.09375-0.0625 0.21875l-0.90625 2.5469-0.98438-2.7812c-0.03125-0.125-0.046875-0.14062-0.046875-0.1875 0-0.26562 0.39062-0.26562 0.59375-0.26562v-0.3125c-0.29688 0.015625-0.79688 0.03125-1.0469 0.03125-0.29688 0-0.57812-0.015625-0.875-0.03125v0.3125c0.35938 0 0.51562 0.015625 0.625 0.14062 0.046875 0.0625 0.15625 0.35938 0.21875 0.54688l-0.84375 2.4219-0.95312-2.6562c-0.046875-0.125-0.046875-0.14062-0.046875-0.1875 0-0.26562 0.39062-0.26562 0.57812-0.26562v-0.3125c-0.29688 0.015625-0.85938 0.03125-1.0781 0.03125-0.046875 0-0.57812-0.015625-0.9375-0.03125v0.3125c0.5 0 0.625 0.03125 0.75 0.34375l1.25 3.5312c0.046875 0.14062 0.078125 0.21875 0.20312 0.21875 0.14062 0 0.15625-0.0625 0.20312-0.20312l1.0156-2.8125 1.0156 2.8281c0.03125 0.10938 0.0625 0.1875 0.20312 0.1875 0.125 0 0.15625-0.09375 0.1875-0.1875z"/>
</g>
<g id="x">
<path d="m1.0625-0.75c0 0.4375-0.10938 0.4375-0.78125 0.4375v0.3125c0.32812-0.015625 0.79688-0.03125 1.0781-0.03125 0.3125 0 0.70312 0.015625 1.1094 0.03125v-0.3125c-0.67188 0-0.78125 0-0.78125-0.4375v-1.0312l0.64062-0.54688c0.76562 1.0469 1.1875 1.6094 1.1875 1.7969s-0.17188 0.21875-0.35938 0.21875v0.3125c0.26562-0.015625 0.85938-0.03125 1.0781-0.03125 0.28125 0 0.57812 0.015625 0.85938 0.03125v-0.3125c-0.375 0-0.59375 0-0.96875-0.53125l-1.2656-1.7812c-0.015625-0.015625-0.0625-0.078125-0.0625-0.10938s0.71875-0.64062 0.8125-0.71875c0.625-0.5 1.0469-0.53125 1.25-0.53125v-0.3125c-0.28125 0.03125-0.40625 0.03125-0.6875 0.03125-0.35938 0-0.98438-0.015625-1.125-0.03125v0.3125c0.1875 0 0.29688 0.10938 0.29688 0.25 0 0.20312-0.14062 0.3125-0.21875 0.39062l-1.4062 1.2031v-4.7812l-1.4375 0.10938v0.3125c0.70312 0 0.78125 0.0625 0.78125 0.5625z"/>
</g>
<g id="w">
<path d="m1.0938-3.4219v2.6719c0 0.4375-0.10938 0.4375-0.78125 0.4375v0.3125c0.35938-0.015625 0.85938-0.03125 1.1406-0.03125 0.25 0 0.76562 0.015625 1.1094 0.03125v-0.3125c-0.67188 0-0.78125 0-0.78125-0.4375v-1.8438c0-1.0312 0.71875-1.5938 1.3438-1.5938 0.64062 0 0.75 0.53125 0.75 1.1094v2.3281c0 0.4375-0.10938 0.4375-0.78125 0.4375v0.3125c0.34375-0.015625 0.85938-0.03125 1.125-0.03125 0.25 0 0.78125 0.015625 1.1094 0.03125v-0.3125c-0.65625 0-0.76562 0-0.76562-0.4375v-1.8438c0-1.0312 0.70312-1.5938 1.3438-1.5938 0.625 0 0.73438 0.53125 0.73438 1.1094v2.3281c0 0.4375-0.10938 0.4375-0.78125 0.4375v0.3125c0.34375-0.015625 0.85938-0.03125 1.125-0.03125s0.78125 0.015625 1.125 0.03125v-0.3125c-0.51562 0-0.76562 0-0.78125-0.29688v-1.9062c0-0.85938 0-1.1562-0.3125-1.5156-0.14062-0.17188-0.46875-0.375-1.0469-0.375-0.82812 0-1.2812 0.59375-1.4375 0.98438-0.14062-0.875-0.875-0.98438-1.3281-0.98438-0.73438 0-1.2031 0.42188-1.4844 1.0469v-1.0469l-1.4062 0.10938v0.3125c0.70312 0 0.78125 0.0625 0.78125 0.5625z"/>
</g>
<g id="n">
<path d="m3.7812-0.54688v0.65625l1.4688-0.10938v-0.3125c-0.6875 0-0.78125-0.0625-0.78125-0.5625v-6.0469l-1.4219 0.10938v0.3125c0.6875 0 0.76562 0.0625 0.76562 0.5625v2.1562c-0.28125-0.35938-0.71875-0.625-1.25-0.625-1.1719 0-2.2188 0.98438-2.2188 2.2656 0 1.2656 0.96875 2.25 2.1094 2.25 0.64062 0 1.0781-0.34375 1.3281-0.65625zm0-2.6719v2.0469c0 0.17188 0 0.1875-0.10938 0.35938-0.29688 0.48438-0.73438 0.70312-1.1719 0.70312-0.45312 0-0.8125-0.26562-1.0469-0.64062-0.25-0.40625-0.28125-0.96875-0.28125-1.3906 0-0.35938 0.015625-0.95312 0.29688-1.4062 0.21875-0.3125 0.59375-0.64062 1.1406-0.64062 0.34375 0 0.76562 0.15625 1.0625 0.59375 0.10938 0.17188 0.10938 0.1875 0.10938 0.375z"/>
</g>
<g id="v">
<path d="m3.9688-6.9375c-0.046875-0.125-0.078125-0.20312-0.23438-0.20312s-0.1875 0.0625-0.23438 0.20312l-2.0625 5.9531c-0.1875 0.51562-0.57812 0.67188-1.125 0.67188v0.3125c0.23438-0.015625 0.67188-0.03125 1.0156-0.03125 0.3125 0 0.82812 0.015625 1.1562 0.03125v-0.3125c-0.5 0-0.75-0.25-0.75-0.5 0-0.03125 0.015625-0.14062 0.015625-0.15625l0.46875-1.2969h2.4531l0.53125 1.5156c0.015625 0.046875 0.03125 0.10938 0.03125 0.14062 0 0.29688-0.5625 0.29688-0.82812 0.29688v0.3125c0.35938-0.03125 1.0625-0.03125 1.4375-0.03125 0.42188 0 0.89062 0.015625 1.2969 0.03125v-0.3125h-0.17188c-0.59375 0-0.73438-0.0625-0.84375-0.39062zm-0.53125 1.1094 1.125 3.25h-2.2344z"/>
</g>
<g id="u">
<path d="m4.3594-7.0938c0.0625-0.14062 0.0625-0.15625 0.0625-0.1875 0-0.10938-0.09375-0.20312-0.20312-0.20312-0.14062 0-0.1875 0.10938-0.21875 0.20312l-3.3906 9.3906c-0.046875 0.14062-0.046875 0.15625-0.046875 0.1875 0 0.10938 0.078125 0.20312 0.1875 0.20312 0.14062 0 0.1875-0.10938 0.21875-0.20312z"/>
</g>
<clipPath id="am">
<path d="m0.52734 0h208.47v217h-208.47z"/>
</clipPath>
<clipPath id="al">
<path d="m72 213h2v24h-2z"/>
</clipPath>
<clipPath id="ak">
<path d="m0.52734-0.16406v270h365v-270zm74.453 218.42v-5.5117h-3.7812v5.5117l1.8906-4.7227z" clip-rule="evenodd"/>
</clipPath>
</defs>
<g clip-path="url(#am)">
<path transform="matrix(.1 0 0 -.1 .528 269.84)" d="m2043.9 1629.3c0-587.15-456.95-1063.1-1020.6-1063.1-563.67 0-1020.6 475.98-1020.6 1063.1 0 587.15 456.95 1063.1 1020.6 1063.1 563.63 0 1020.6-475.98 1020.6-1063.1z" fill="none" stroke="#000" stroke-dasharray="18.9" stroke-miterlimit="10" stroke-width="2.3625"/>
</g>
<path transform="matrix(.1 0 0 -.1 .528 269.84)" d="m583.86 1473.4h354.38v212.62h-354.38z" fill="none" stroke="#000" stroke-miterlimit="10" stroke-width="2.3625"/>
<path transform="matrix(.1 0 0 -.1 .528 269.84)" d="m583.86 906.38h354.38v212.62h-354.38z" fill="none" stroke="#000" stroke-miterlimit="10" stroke-width="2.3625"/>
<path transform="matrix(.1 0 0 -.1 .528 269.84)" d="m938.24 2182.1h212.66v-1204.9h-212.66" fill="none" stroke="#000" stroke-miterlimit="10" stroke-width="2.3625"/>
<path transform="matrix(.1 0 0 -.1 .528 269.84)" d="m938.24 1544.3h212.66" fill="none" stroke="#000" stroke-miterlimit="10" stroke-width="2.3625"/>
<path transform="matrix(.1 0 0 -.1 .528 269.84)" d="m1150.9 1615.1h850.47" fill="none" stroke="#000" stroke-miterlimit="10" stroke-width="2.3625"/>
<path transform="matrix(.1 0 0 -.1 .528 269.84)" d="m2426.6 1615.1h637.85" fill="none" stroke="#000" stroke-miterlimit="10" stroke-width="2.3625"/>
<path transform="matrix(.1 0 0 -.1 .528 269.84)" d="m2214 1402.5v-708.75" fill="none" stroke="#000" stroke-miterlimit="10" stroke-width="2.3625"/>
<path transform="matrix(.1 0 0 -.1 .528 269.84)" d="m3277.1 1756.9h-212.62v-637.89h212.62" fill="none" stroke="#000" stroke-miterlimit="10" stroke-width="2.3625"/>
<path transform="matrix(.1 0 0 -.1 .528 269.84)" d="m3277.1 1615.1h354.38v212.62h-354.38z" fill="none" stroke="#000" stroke-miterlimit="10" stroke-width="2.3625"/>
<path transform="matrix(.1 0 0 -.1 .528 269.84)" d="m3277.1 1048.1h354.38v212.62h-354.38z" fill="none" stroke="#000" stroke-miterlimit="10" stroke-width="2.3625"/>
<path transform="matrix(.1 0 0 -.1 .528 269.84)" d="m2497.5 268.49h354.38v212.66h-354.38z" fill="none" stroke="#000" stroke-miterlimit="10" stroke-width="2.3625"/>
<path transform="matrix(.1 0 0 -.1 .528 269.84)" d="m1647 268.49h354.38v212.66h-354.38z" fill="none" stroke="#000" stroke-miterlimit="10" stroke-width="2.3625"/>
<path transform="matrix(.1 0 0 -.1 .528 269.84)" d="m1817.1 481.14v212.62h850.51v-212.62" fill="none" stroke="#000" stroke-miterlimit="10" stroke-width="2.3625"/>
<path transform="matrix(.1 0 0 -.1 .528 269.84)" d="m583.86 2040.4h354.38v212.66h-354.38z" fill="none" stroke="#000" stroke-miterlimit="10" stroke-width="2.3625"/>
<g clip-path="url(#al)">
<g clip-path="url(#ak)">
<path transform="matrix(.1 0 0 -.1 .528 269.84)" d="m725.62 339.39v226.8" fill="none" stroke="#000" stroke-miterlimit="10" stroke-width="2.3625"/>
</g>
</g>
<path d="m74.98 218.26-1.8906-4.7227-1.8906 4.7227 1.8906-0.94531 1.8906 0.94531" fill-rule="evenodd"/>
<path transform="matrix(.1 0 0 -.1 .528 269.84)" d="m744.52 515.79-18.906 47.227-18.906-47.227 18.906 9.4531z" fill="none" stroke="#000" stroke-miterlimit="10" stroke-width="2.3625"/>
<path transform="matrix(.1 0 0 -.1 .528 269.84)" d="m2426.6 1615.1c0-117.42-95.195-212.62-212.62-212.62-117.46 0-212.66 95.195-212.66 212.62s95.195 212.62 212.66 212.62c117.42 0 212.62-95.195 212.62-212.62z" fill="none" stroke="#000" stroke-miterlimit="10" stroke-width="2.3625"/>
<g>
<use x="44.467" y="248.576" xlink:href="#aj"/>
<use x="51.247546" y="248.576" xlink:href="#m"/>
<use x="54.015156" y="248.576" xlink:href="#o"/>
<use x="62.867922" y="248.576" xlink:href="#g"/>
<use x="67.295302" y="248.576" xlink:href="#m"/>
<use x="70.062912" y="248.576" xlink:href="#o"/>
<use x="75.598132" y="248.576" xlink:href="#t"/>
<use x="78.642703" y="248.576" xlink:href="#s"/>
<use x="83.624003" y="248.576" xlink:href="#r"/>
<use x="87.77243" y="248.576" xlink:href="#q"/>
<use x="93.30765" y="248.576" xlink:href="#g"/>
<use x="97.73503" y="248.576" xlink:href="#e"/>
<use x="58.226" y="132.348" xlink:href="#b"/>
<use x="63.2073" y="132.348" xlink:href="#b"/>
<use x="68.1886" y="132.348" xlink:href="#d"/>
<use x="73.1699" y="132.348" xlink:href="#a"/>
<use x="75.93751" y="132.348" xlink:href="#c"/>
<use x="80.91881" y="132.348" xlink:href="#a"/>
<use x="83.686421" y="132.348" xlink:href="#c"/>
<use x="88.667721" y="132.348" xlink:href="#a"/>
<use x="91.435331" y="132.348" xlink:href="#b"/>
<use x="63.041" y="113.764" xlink:href="#i"/>
<use x="70.51295" y="113.764" xlink:href="#h"/>
<use x="75.49425" y="113.764" xlink:href="#e"/>
<use x="79.423499" y="113.764" xlink:href="#f"/>
<use x="86.6155" y="113.764" xlink:href="#b"/>
<use x="58.226" y="189.044" xlink:href="#b"/>
<use x="63.2073" y="189.044" xlink:href="#b"/>
<use x="68.1886" y="189.044" xlink:href="#d"/>
<use x="73.1699" y="189.044" xlink:href="#a"/>
<use x="75.93751" y="189.044" xlink:href="#c"/>
<use x="80.91881" y="189.044" xlink:href="#a"/>
<use x="83.686421" y="189.044" xlink:href="#c"/>
<use x="88.667721" y="189.044" xlink:href="#a"/>
<use x="91.435331" y="189.044" xlink:href="#j"/>
<use x="63.041" y="170.46" xlink:href="#i"/>
<use x="70.51295" y="170.46" xlink:href="#h"/>
<use x="75.49425" y="170.46" xlink:href="#e"/>
<use x="79.423499" y="170.46" xlink:href="#f"/>
<use x="86.6155" y="170.46" xlink:href="#j"/>
<use x="206.87" y="111.086" xlink:href="#ai"/>
<use x="214.20347" y="111.086" xlink:href="#h"/>
<use x="219.18477" y="111.086" xlink:href="#ah"/>
<use x="224.71999" y="111.086" xlink:href="#f"/>
<use x="228.594446" y="111.086" xlink:href="#g"/>
<use x="233.021825" y="111.086" xlink:href="#k"/>
<use x="327.534" y="118.173" xlink:href="#b"/>
<use x="332.5153" y="118.173" xlink:href="#b"/>
<use x="337.4966" y="118.173" xlink:href="#d"/>
<use x="342.4779" y="118.173" xlink:href="#a"/>
<use x="345.24551" y="118.173" xlink:href="#c"/>
<use x="350.22681" y="118.173" xlink:href="#a"/>
<use x="352.994421" y="118.173" xlink:href="#b"/>
<use x="357.975721" y="118.173" xlink:href="#a"/>
<use x="360.743331" y="118.173" xlink:href="#c"/>
<use x="332.35" y="99.59" xlink:href="#i"/>
<use x="339.82195" y="99.59" xlink:href="#h"/>
<use x="344.80325" y="99.59" xlink:href="#e"/>
<use x="348.732499" y="99.59" xlink:href="#f"/>
<use x="355.9245" y="99.59" xlink:href="#p"/>
<use x="327.534" y="174.87" xlink:href="#b"/>
<use x="332.5153" y="174.87" xlink:href="#b"/>
<use x="337.4966" y="174.87" xlink:href="#d"/>
<use x="342.4779" y="174.87" xlink:href="#a"/>
<use x="345.24551" y="174.87" xlink:href="#c"/>
<use x="350.22681" y="174.87" xlink:href="#a"/>
<use x="352.994421" y="174.87" xlink:href="#b"/>
<use x="357.975721" y="174.87" xlink:href="#a"/>
<use x="360.743331" y="174.87" xlink:href="#b"/>
<use x="332.35" y="156.286" xlink:href="#i"/>
<use x="339.82195" y="156.286" xlink:href="#h"/>
<use x="344.80325" y="156.286" xlink:href="#e"/>
<use x="348.732499" y="156.286" xlink:href="#f"/>
<use x="355.9245" y="156.286" xlink:href="#ag"/>
<use x="249.577" y="252.828" xlink:href="#b"/>
<use x="254.5583" y="252.828" xlink:href="#b"/>
<use x="259.5396" y="252.828" xlink:href="#d"/>
<use x="264.5209" y="252.828" xlink:href="#a"/>
<use x="267.28851" y="252.828" xlink:href="#c"/>
<use x="272.26981" y="252.828" xlink:href="#a"/>
<use x="275.037421" y="252.828" xlink:href="#j"/>
<use x="280.018721" y="252.828" xlink:href="#a"/>
<use x="282.786331" y="252.828" xlink:href="#b"/>
<use x="254.392" y="234.244" xlink:href="#i"/>
<use x="261.86395" y="234.244" xlink:href="#h"/>
<use x="266.84525" y="234.244" xlink:href="#e"/>
<use x="270.774499" y="234.244" xlink:href="#f"/>
<use x="277.9665" y="234.244" xlink:href="#af"/>
<use x="164.532" y="252.828" xlink:href="#b"/>
<use x="169.5133" y="252.828" xlink:href="#b"/>
<use x="174.4946" y="252.828" xlink:href="#d"/>
<use x="179.4759" y="252.828" xlink:href="#a"/>
<use x="182.24351" y="252.828" xlink:href="#c"/>
<use x="187.22481" y="252.828" xlink:href="#a"/>
<use x="189.992421" y="252.828" xlink:href="#j"/>
<use x="194.973721" y="252.828" xlink:href="#a"/>
<use x="197.741331" y="252.828" xlink:href="#c"/>
<use x="169.347" y="234.244" xlink:href="#i"/>
<use x="176.81895" y="234.244" xlink:href="#h"/>
<use x="181.80025" y="234.244" xlink:href="#e"/>
<use x="185.729499" y="234.244" xlink:href="#f"/>
<use x="192.9215" y="234.244" xlink:href="#l"/>
<use x="58.226" y="75.651" xlink:href="#b"/>
<use x="63.2073" y="75.651" xlink:href="#b"/>
<use x="68.1886" y="75.651" xlink:href="#d"/>
<use x="73.1699" y="75.651" xlink:href="#a"/>
<use x="75.93751" y="75.651" xlink:href="#c"/>
<use x="80.91881" y="75.651" xlink:href="#a"/>
<use x="83.686421" y="75.651" xlink:href="#c"/>
<use x="88.667721" y="75.651" xlink:href="#a"/>
<use x="91.435331" y="75.651" xlink:href="#c"/>
<use x="63.041" y="57.067" xlink:href="#i"/>
<use x="70.51295" y="57.067" xlink:href="#h"/>
<use x="75.49425" y="57.067" xlink:href="#e"/>
<use x="79.423499" y="57.067" xlink:href="#f"/>
<use x="86.6155" y="57.067" xlink:href="#c"/>
<use x="159.611" y="101.164" xlink:href="#b"/>
<use x="164.5923" y="101.164" xlink:href="#b"/>
<use x="169.5736" y="101.164" xlink:href="#d"/>
<use x="174.5549" y="101.164" xlink:href="#a"/>
<use x="177.32251" y="101.164" xlink:href="#c"/>
<use x="182.30381" y="101.164" xlink:href="#a"/>
<use x="185.071421" y="101.164" xlink:href="#c"/>
<use x="190.052721" y="101.164" xlink:href="#a"/>
<use x="192.820331" y="101.164" xlink:href="#l"/>
<use x="247.415379" y="101.164" xlink:href="#b"/>
<use x="252.396679" y="101.164" xlink:href="#b"/>
<use x="257.377979" y="101.164" xlink:href="#d"/>
<use x="262.359279" y="101.164" xlink:href="#a"/>
<use x="265.116927" y="101.164" xlink:href="#c"/>
<use x="270.098227" y="101.164" xlink:href="#a"/>
<use x="272.865837" y="101.164" xlink:href="#b"/>
<use x="277.847137" y="101.164" xlink:href="#a"/>
<use x="280.614747" y="101.164" xlink:href="#ae"/>
<use x="224.732" y="139.435" xlink:href="#b"/>
<use x="229.7133" y="139.435" xlink:href="#b"/>
<use x="234.6946" y="139.435" xlink:href="#d"/>
<use x="239.6759" y="139.435" xlink:href="#a"/>
<use x="242.44351" y="139.435" xlink:href="#c"/>
<use x="247.42481" y="139.435" xlink:href="#a"/>
<use x="250.192421" y="139.435" xlink:href="#j"/>
<use x="255.173721" y="139.435" xlink:href="#a"/>
<use x="257.941331" y="139.435" xlink:href="#b"/>
<use x="262.922631" y="139.435" xlink:href="#p"/>
<use x="26.479" y="258.97" xlink:href="#ad"/>
<use x="30.076495" y="258.97" xlink:href="#ac"/>
<use x="36.85704" y="258.97" xlink:href="#ab"/>
<use x="40.177575" y="258.97" xlink:href="#aa"/>
<use x="47.649525" y="258.97" xlink:href="#g"/>
<use x="52.076904" y="258.97" xlink:href="#f"/>
<use x="55.95136" y="258.97" xlink:href="#z"/>
<use x="60.378739" y="258.97" xlink:href="#y"/>
<use x="67.294776" y="258.97" xlink:href="#g"/>
<use x="71.722155" y="258.97" xlink:href="#k"/>
<use x="75.624506" y="258.97" xlink:href="#x"/>
<use x="84.210274" y="258.97" xlink:href="#w"/>
<use x="92.512109" y="258.97" xlink:href="#m"/>
<use x="95.279719" y="258.97" xlink:href="#f"/>
<use x="102.47172" y="258.97" xlink:href="#n"/>
<use x="108.006941" y="258.97" xlink:href="#g"/>
<use x="112.43432" y="258.97" xlink:href="#k"/>
<use x="28.029" y="269.364" xlink:href="#v"/>
<use x="35.50095" y="269.364" xlink:href="#n"/>
<use x="41.036171" y="269.364" xlink:href="#k"/>
<use x="44.938521" y="269.364" xlink:href="#g"/>
<use x="49.3659" y="269.364" xlink:href="#e"/>
<use x="53.29515" y="269.364" xlink:href="#e"/>
<use x="57.224399" y="269.364" xlink:href="#g"/>
<use x="64.969325" y="269.364" xlink:href="#b"/>
<use x="69.950625" y="269.364" xlink:href="#b"/>
<use x="74.931925" y="269.364" xlink:href="#d"/>
<use x="79.913225" y="269.364" xlink:href="#a"/>
<use x="82.680835" y="269.364" xlink:href="#c"/>
<use x="87.662135" y="269.364" xlink:href="#a"/>
<use x="90.429745" y="269.364" xlink:href="#c"/>
<use x="95.411045" y="269.364" xlink:href="#a"/>
<use x="98.178655" y="269.364" xlink:href="#d"/>
<use x="103.159955" y="269.364" xlink:href="#u"/>
<use x="108.141255" y="269.364" xlink:href="#b"/>
<use x="113.122555" y="269.364" xlink:href="#l"/>
</g>
</svg>
