<svg width="765pt" height="442pt" version="1.1" viewBox="0 0 765 442" xmlns="http://www.w3.org/2000/svg" xmlns:xlink="http://www.w3.org/1999/xlink">
<defs>
<g id="l">
<path d="m11.594-12.641c0-0.9375 0.21875-0.9375 1.6406-0.9375v-0.53125c-0.59375 0.046875-1.6875 0.046875-2.3281 0.046875s-1.7344 0-2.3281-0.046875v0.53125c1.4219 0 1.6406 0 1.6406 0.9375v5.0469h-6.1562v-5.0469c0-0.9375 0.23438-0.9375 1.6562-0.9375v-0.53125c-0.59375 0.046875-1.6875 0.046875-2.3281 0.046875s-1.7344 0-2.3438-0.046875v0.53125c1.4375 0 1.6562 0 1.6562 0.9375v11.172c0 0.9375-0.21875 0.9375-1.6562 0.9375v0.53125c0.60938-0.046875 1.7031-0.046875 2.3438-0.046875s1.7344 0 2.3281 0.046875v-0.53125c-1.4219 0-1.6562 0-1.6562-0.9375v-5.5938h6.1562v5.5938c0 0.9375-0.21875 0.9375-1.6406 0.9375v0.53125c0.59375-0.046875 1.6875-0.046875 2.3281-0.046875s1.7344 0 2.3281 0.046875v-0.53125c-1.4219 0-1.6406 0-1.6406-0.9375z"/>
</g>
<g id="i">
<path d="m8.9062-4.4219c0-2.6406-1.9219-4.7031-4.1719-4.7031s-4.1719 2.0625-4.1719 4.7031c0 2.6094 1.9219 4.5938 4.1719 4.5938s4.1719-1.9844 4.1719-4.5938zm-4.1719 4.2188c-0.96875 0-1.7969-0.57812-2.2812-1.3906-0.51562-0.92188-0.57812-2.0781-0.57812-2.9844 0-0.875 0.046875-1.9531 0.57812-2.875 0.42188-0.6875 1.2188-1.3438 2.2812-1.3438 0.92188 0 1.7031 0.51562 2.2031 1.2344 0.64062 0.96875 0.64062 2.3438 0.64062 2.9844 0 0.79688-0.03125 2.0312-0.59375 3.0312-0.57812 0.95312-1.4688 1.3438-2.25 1.3438z"/>
</g>
<g id="j">
<path d="m6.375-8.7188c0-0.375-0.015625-0.39062-0.14062-0.39062-0.078125 0-0.09375 0.015625-0.34375 0.32812-0.0625 0.078125-0.25 0.29688-0.3125 0.375-0.65625-0.70312-1.5938-0.71875-1.9375-0.71875-2.2969 0-3.125 1.1875-3.125 2.3906 0 1.8594 2.1094 2.2969 2.7031 2.4219 1.3125 0.26562 1.7656 0.34375 2.1875 0.71875 0.28125 0.25 0.73438 0.70312 0.73438 1.4531 0 0.85938-0.5 1.9688-2.4062 1.9688-1.7969 0-2.4375-1.3594-2.8125-3.1719-0.046875-0.29688-0.046875-0.3125-0.21875-0.3125s-0.1875 0.015625-0.1875 0.4375v2.9688c0 0.375 0.015625 0.39062 0.14062 0.39062 0.10938 0 0.125-0.015625 0.23438-0.1875 0.125-0.1875 0.4375-0.67188 0.5625-0.875 0.40625 0.54688 1.125 1.0938 2.2812 1.0938 2.0469 0 3.1406-1.125 3.1406-2.7344 0-1.0469-0.54688-1.6094-0.82812-1.8594-0.60938-0.64062-1.3438-0.78125-2.2031-0.95312-1.1406-0.25-2.5781-0.53125-2.5781-1.7969 0-0.53125 0.28125-1.6719 2.375-1.6719 2.2031 0 2.3281 2.0625 2.375 2.7344 0.015625 0.09375 0.125 0.125 0.1875 0.125 0.17188 0 0.17188-0.0625 0.17188-0.42188z"/>
</g>
<g id="h">
<path d="m3.125-8.3438h2.8906v-0.53125h-2.8906v-3.8281h-0.375c-0.046875 2.125-0.76562 3.9844-2.5156 4.0312v0.32812h1.7969v5.7969c0 0.40625 0 2.7188 2.3906 2.7188 1.2188 0 1.9219-1.2031 1.9219-2.7344v-1.1719h-0.375v1.1562c0 1.4219-0.5625 2.375-1.4219 2.375-0.59375 0-1.4219-0.42188-1.4219-2.2969z"/>
</g>
<g id="r">
<path d="m2.1875-7.125c0-4.9375 2.3125-6.0469 3.6562-6.0469 0.4375 0 1.4844 0.078125 1.9062 0.875-0.32812 0-0.95312 0-0.95312 0.73438 0 0.54688 0.45312 0.73438 0.75 0.73438 0.17188 0 0.73438-0.078125 0.73438-0.78125 0-1.2969-1.0312-2.0469-2.4531-2.0469-2.4688 0-5.0469 2.5625-5.0469 7.125 0 5.625 2.3438 6.8594 3.9844 6.8594 2.0156 0 3.9062-1.7969 3.9062-4.5625 0-2.5781-1.6719-4.4688-3.7812-4.4688-1.25 0-2.1875 0.82812-2.7031 2.2812zm2.5781 6.9531c-2.5312 0-2.5312-3.7969-2.5312-4.5625 0-1.4844 0.70312-3.625 2.625-3.625 0.34375 0 1.3594 0 2.0469 1.4219 0.35938 0.79688 0.35938 1.6562 0.35938 2.6875 0 1.1094 0 1.9375-0.42188 2.7656-0.46875 0.84375-1.125 1.3125-2.0781 1.3125z"/>
</g>
<g id="a">
<path d="m8.6094-3.2031h-0.375c-0.20312 1.4688-0.35938 1.7188-0.45312 1.8438-0.09375 0.15625-1.5781 0.15625-1.875 0.15625h-3.9688c0.75-0.79688 2.1875-2.2656 3.9531-3.9688 1.25-1.1875 2.7188-2.5938 2.7188-4.6406 0-2.4375-1.9375-3.8438-4.1094-3.8438-2.2656 0-3.6562 2-3.6562 3.8594 0 0.8125 0.60938 0.92188 0.84375 0.92188 0.21875 0 0.82812-0.125 0.82812-0.85938 0-0.64062-0.53125-0.82812-0.82812-0.82812-0.125 0-0.23438 0.03125-0.32812 0.0625 0.39062-1.75 1.5938-2.6094 2.8594-2.6094 1.7969 0 2.9688 1.4219 2.9688 3.2969 0 1.7969-1.0469 3.3438-2.2344 4.6875l-4.1094 4.6562v0.46875h7.2812z"/>
</g>
<g id="e">
<path d="m8.6719-6.625c0-1.2656-0.015625-3.4062-0.89062-5.0625-0.76562-1.4531-1.9844-1.9688-3.0469-1.9688-1 0-2.25 0.45312-3.0469 1.9375-0.8125 1.5625-0.90625 3.4844-0.90625 5.0938 0 1.1719 0.03125 2.9688 0.67188 4.5312 0.875 2.1406 2.4688 2.4219 3.2812 2.4219 0.95312 0 2.3906-0.39062 3.2344-2.3594 0.625-1.4219 0.70312-3.0938 0.70312-4.5938zm-3.9375 6.625c-1.3281 0-2.1094-1.1406-2.4062-2.7031-0.21875-1.2188-0.21875-3-0.21875-4.1562 0-1.5938 0-2.9062 0.26562-4.1719 0.39062-1.75 1.5469-2.2969 2.3594-2.2969 0.84375 0 1.9375 0.5625 2.3281 2.25 0.26562 1.1875 0.29688 2.5625 0.29688 4.2188 0 1.3438 0 3-0.25 4.2188-0.4375 2.25-1.6562 2.6406-2.375 2.6406z"/>
</g>
<g id="c">
<path d="m3.4219-0.84375c0-0.51562-0.40625-0.84375-0.84375-0.84375-0.40625 0-0.84375 0.32812-0.84375 0.84375s0.40625 0.84375 0.84375 0.84375c0.42188 0 0.84375-0.32812 0.84375-0.84375z"/>
</g>
<g id="d">
<path d="m5.5-13.203c0-0.4375-0.03125-0.45312-0.3125-0.45312-0.8125 0.96875-2.0312 1.2812-3.1875 1.3281-0.0625 0-0.15625 0-0.1875 0.03125-0.015625 0.046875-0.015625 0.09375-0.015625 0.51562 0.64062 0 1.7188-0.10938 2.5469-0.60938v10.875c0 0.73438-0.046875 0.98438-1.8281 0.98438h-0.60938v0.53125c0.98438-0.015625 2.0156-0.046875 3.0156-0.046875 0.98438 0 2.0156 0.03125 3.0156 0.046875v-0.53125h-0.625c-1.7812 0-1.8125-0.23438-1.8125-0.98438z"/>
</g>
<g id="f">
<path d="m4.5625-7.0156c1.8438 0 2.6406 1.5781 2.6406 3.4219 0 2.4844-1.3125 3.4219-2.5156 3.4219-1.0938 0-2.875-0.53125-3.4219-2.125 0.09375 0.046875 0.20312 0.046875 0.29688 0.046875 0.5 0 0.875-0.32812 0.875-0.875 0-0.59375-0.45312-0.85938-0.875-0.85938-0.34375 0-0.875 0.15625-0.875 0.92188 0 1.9062 1.8594 3.3906 4.0469 3.3906 2.2812 0 4.0469-1.7969 4.0469-3.9062 0-2-1.6562-3.4375-3.6094-3.6719 1.5625-0.32812 3.0625-1.7344 3.0625-3.6094 0-1.6094-1.625-2.7969-3.4844-2.7969-1.875 0-3.5312 1.1562-3.5312 2.8125 0 0.71875 0.53125 0.84375 0.8125 0.84375 0.42188 0 0.79688-0.26562 0.79688-0.79688 0-0.54688-0.375-0.8125-0.79688-0.8125-0.09375 0-0.1875 0-0.28125 0.046875 0.60938-1.375 2.2344-1.6094 2.9531-1.6094 0.73438 0 2.0938 0.34375 2.0938 2.3281 0 0.57812-0.078125 1.6094-0.78125 2.5156-0.625 0.8125-1.3281 0.84375-2.0156 0.90625-0.09375 0-0.57812 0.046875-0.65625 0.046875-0.14062 0.015625-0.21875 0.046875-0.21875 0.1875s0.015625 0.17188 0.42188 0.17188z"/>
</g>
<g id="z">
<path d="m8.0938-7.0469c1.9688-0.39062 3.625-1.7188 3.625-3.3594 0-1.9531-2.2031-3.7031-5.0938-3.7031h-5.5469v0.53125c1.4219 0 1.6562 0 1.6562 0.9375v11.172c0 0.9375-0.23438 0.9375-1.6562 0.9375v0.53125c0.59375-0.046875 1.6719-0.046875 2.3125-0.046875s1.7188 0 2.3125 0.046875v-0.53125c-1.4219 0-1.6562 0-1.6562-0.9375v-5.4375h2.4219c1.1719 0 1.8281 0.48438 2.125 0.75 0.82812 0.8125 0.82812 1.3594 0.82812 2.7656 0 1.3906 0 2.0938 0.60938 2.7969 0.79688 0.84375 1.8438 0.92188 2.2969 0.92188 1.5312 0 1.7656-1.7188 1.7656-2.0625 0-0.125 0-0.26562-0.1875-0.26562-0.17188 0-0.1875 0.125-0.1875 0.20312-0.10938 1.3438-0.70312 1.7969-1.3438 1.7969-1.1406 0-1.2656-1.2969-1.3906-2.5625-0.0625-0.4375-0.09375-0.75-0.14062-1.2031-0.125-1.0312-0.28125-2.5312-2.75-3.2812zm-1.6875-0.1875h-2.3594v-5.5312c0-0.70312 0.046875-0.8125 0.875-0.8125h1.5c1.7188 0 3.7188 0.60938 3.7188 3.1719 0 2.6562-2.1875 3.1719-3.7344 3.1719z"/>
</g>
<g id="y">
<path d="m6.0781-8.8125v0.53125c1.2188 0 1.4062 0.125 1.4062 1.1094v3.7656c0 1.7344-0.9375 3.2344-2.4688 3.2344-1.6875 0-1.8281-1-1.8281-2.0781v-6.7969l-2.5 0.23438v0.53125c0.82812 0 1.375 0 1.4062 0.82812v3.9688c0 1.375 0 2.2656 0.53125 2.8438 0.26562 0.26562 0.78125 0.8125 2.2656 0.8125 1.7656 0 2.4375-1.5 2.6094-1.9219h0.015625v1.9219l2.4688-0.17188v-0.53125c-1.2188 0-1.4062-0.125-1.4062-1.125v-7.3906z"/>
</g>
<g id="x">
<path d="m7.875-4.8594c0.078125-0.078125 0.078125-0.125 0.078125-0.32812 0-2.1094-1.1094-3.9375-3.4688-3.9375-2.1875 0-3.9219 2.0781-3.9219 4.625 0 2.6875 1.9531 4.6719 4.1406 4.6719 2.3125 0 3.2344-2.2031 3.2344-2.625 0-0.15625-0.125-0.15625-0.17188-0.15625-0.14062 0-0.17188 0.046875-0.25 0.29688-0.45312 1.4062-1.5938 2.1094-2.6562 2.1094-0.89062 0-1.7812-0.5-2.3438-1.4062-0.64062-1.0625-0.64062-2.2812-0.64062-3.25zm-5.9688-0.3125c0.14062-2.9688 1.7344-3.625 2.5625-3.625 1.3906 0 2.3438 1.3125 2.375 3.625z"/>
</g>
<g id="w">
<path d="m3.0938-4.875c0-1.9844 0.85938-3.8438 2.4062-3.8438 0.14062 0 0.28125 0.015625 0.42188 0.078125 0 0-0.45312 0.15625-0.45312 0.6875 0 0.5 0.39062 0.70312 0.70312 0.70312 0.25 0 0.70312-0.14062 0.70312-0.71875 0-0.67188-0.65625-1.0781-1.3594-1.0781-1.5625 0-2.25 1.5312-2.4531 2.25h-0.03125v-2.25l-2.3906 0.23438v0.53125c1.2188 0 1.4062 0.125 1.4062 1.1094v5.75c0 0.78125-0.078125 0.89062-1.4062 0.89062v0.53125c0.5-0.046875 1.4531-0.046875 1.9844-0.046875 0.59375 0 1.6562 0 2.2031 0.046875v-0.53125c-1.4844 0-1.7344 0-1.7344-0.9375z"/>
</g>
<g id="u">
<path d="m2.3594-12.078c0.20312 0.078125 1.0469 0.34375 1.9219 0.34375 1.9219 0 2.9688-1.0312 3.5625-1.625 0-0.17188 0-0.28125-0.125-0.28125-0.015625 0-0.0625 0-0.21875 0.09375-0.71875 0.3125-1.5781 0.54688-2.6094 0.54688-0.60938 0-1.5469-0.078125-2.5625-0.53125-0.21875-0.10938-0.26562-0.10938-0.28125-0.10938-0.10938 0-0.125 0.03125-0.125 0.4375v6c0 0.35938 0 0.46875 0.20312 0.46875 0.10938 0 0.14062-0.046875 0.25-0.1875 0.65625-0.92188 1.5781-1.3125 2.6094-1.3125 0.71875 0 2.2656 0.45312 2.2656 3.9844 0 0.65625 0 1.8594-0.625 2.7969-0.51562 0.85938-1.3125 1.2812-2.2031 1.2812-1.3594 0-2.75-0.9375-3.125-2.5312 0.09375 0.015625 0.25 0.0625 0.32812 0.0625 0.28125 0 0.79688-0.14062 0.79688-0.78125 0-0.5625-0.39062-0.79688-0.79688-0.79688-0.46875 0-0.78125 0.29688-0.78125 0.875 0 1.7969 1.4219 3.6719 3.625 3.6719 2.125 0 4.1406-1.8438 4.1406-4.5 0-2.4844-1.6094-4.4062-3.6094-4.4062-1.0469 0-1.9375 0.39062-2.6406 1.1406z"/>
</g>
<g id="o">
<path d="m6.9375-13.359c0-0.4375-0.015625-0.45312-0.39062-0.45312l-6.1406 9.7656v0.53125h5.3438v2.0312c0 0.73438-0.046875 0.95312-1.5 0.95312h-0.39062v0.53125c0.67188-0.046875 1.7812-0.046875 2.4844-0.046875s1.8125 0 2.4688 0.046875v-0.53125h-0.39062c-1.4375 0-1.4844-0.21875-1.4844-0.95312v-2.0312h2.1094v-0.53125h-2.1094zm-1.1406 1.3594v7.9531h-4.9688z"/>
</g>
<g id="q">
<path d="m7.2656-6.1094c0 4.5469-1.875 5.9375-3.4219 5.9375-0.48438 0-1.6406-0.0625-2.1094-0.85938 0.53125 0.078125 0.9375-0.20312 0.9375-0.71875 0-0.5625-0.46875-0.75-0.75-0.75-0.1875 0-0.75 0.078125-0.75 0.78125 0 1.4062 1.2188 2.0469 2.7188 2.0469 2.375 0 4.7812-2.5938 4.7812-7.1406 0-5.6562-2.3125-6.8438-3.875-6.8438-2.0469 0-4.0156 1.7969-4.0156 4.5625 0 2.5625 1.6719 4.4688 3.7812 4.4688 1.7344 0 2.5-1.6094 2.7031-2.2969zm-2.6562 1.1562c-0.5625 0-1.3438-0.10938-1.9844-1.3438-0.4375-0.8125-0.4375-1.7656-0.4375-2.7656 0-1.2188 0-2.0781 0.57812-2.9844 0.29688-0.42188 0.82812-1.125 2.0312-1.125 2.4375 0 2.4375 3.7344 2.4375 4.5625 0 1.4688-0.67188 3.6562-2.625 3.6562z"/>
</g>
<g id="n">
<path d="m12.531-5.2188h-0.35938c-0.45312 3.0312-0.73438 4.6875-4.3594 4.6875h-2.875c-0.82812 0-0.875-0.10938-0.875-0.8125v-5.7031h1.9531c1.9375 0 2.125 0.70312 2.125 2.4219h0.375v-5.375h-0.375c0 1.7188-0.1875 2.4219-2.125 2.4219h-1.9531v-5.1406c0-0.70312 0.046875-0.8125 0.875-0.8125h2.8281c3.2031 0 3.5781 1.2812 3.8594 4.0312h0.375l-0.5-4.5625h-10.453v0.53125c1.4375 0 1.6562 0 1.6562 0.9375v11.125c0 0.9375-0.21875 0.9375-1.6562 0.9375v0.53125h10.75z"/>
</g>
<g id="b">
<path d="m5.2656-3.9844v-0.90625h-5.1875v0.90625z"/>
</g>
<g id="m">
<path d="m9.3125-12.875v-0.45312h-4.8438c-2.4219 0-2.4688-0.26562-2.5469-0.65625h-0.375l-0.59375 3.8594h0.375c0.0625-0.39062 0.20312-1.4375 0.45312-1.8281 0.125-0.17188 1.6406-0.17188 2-0.17188h4.5469l-2.2969 3.4062c-1.5312 2.2969-2.5781 5.3906-2.5781 8.0938 0 0.25 0 0.95312 0.73438 0.95312 0.75 0 0.75-0.70312 0.75-0.96875v-0.95312c0-3.3906 0.57812-5.6094 1.5312-7.0469z"/>
</g>
<g id="g">
<path d="m1.0781-14.109v0.53125c1.4219 0 1.6562 0 1.6562 0.9375v11.172c0 0.9375-0.23438 0.9375-1.6562 0.9375v0.53125h7.1094c2.6406 0 4.3438-1.875 4.3438-3.7656 0-1.8594-1.6875-3.4375-3.8906-3.5938 1.9844-0.39062 3.3594-1.7031 3.3594-3.2812 0-1.7188-1.6875-3.4688-4.3594-3.4688zm2.9531 6.6094v-5.2656c0-0.70312 0.03125-0.8125 0.85938-0.8125h2.6562c2.0312 0 2.9531 1.6562 2.9531 2.9375 0 1.5781-1.2656 3.1406-3.5 3.1406zm0.85938 6.9688c-0.82812 0-0.85938-0.10938-0.85938-0.8125v-5.8281h3.8125c2.1406 0 3.1719 1.8906 3.1719 3.3906 0 1.5156-1.1875 3.25-3.4375 3.25z"/>
</g>
<g id="k">
<path d="m1.0781-14.109v0.53125c1.4219 0 1.6562 0 1.6562 0.9375v11.172c0 0.9375-0.23438 0.9375-1.6562 0.9375v0.53125h6.5625c3.3281 0 6-3.0625 6-6.9375 0-3.9062-2.625-7.1719-6-7.1719zm3.8438 13.578c-0.82812 0-0.875-0.10938-0.875-0.8125v-11.422c0-0.70312 0.046875-0.8125 0.875-0.8125h2.3125c1.7031 0 4.875 1.0156 4.875 6.6406 0 2.9062-0.85938 4.0938-1.25 4.6406-0.48438 0.64062-1.6719 1.7656-3.625 1.7656z"/>
</g>
<g id="p">
<path d="m12.828-14.031c0-0.35938-0.015625-0.39062-0.14062-0.39062-0.09375 0-0.10938 0.03125-0.25 0.26562l-0.90625 1.7344c-1.0156-1.2656-2.25-2.0156-3.8438-2.0156-3.5312 0-6.7344 3.125-6.7344 7.375 0 4.2969 3.2031 7.3906 6.75 7.3906 3.1562 0 5.125-2.7812 5.125-5.1562 0-0.21875 0-0.29688-0.1875-0.29688-0.17188 0-0.17188 0.0625-0.1875 0.25-0.15625 2.8906-2.2344 4.6719-4.4531 4.6719-2.1094 0-5.4844-1.4844-5.4844-6.8594 0-5.3906 3.4375-6.8438 5.4375-6.8438 2.3281 0 4.0312 2.0312 4.4219 4.9062 0.046875 0.23438 0.046875 0.28125 0.21875 0.28125 0.23438 0 0.23438-0.046875 0.23438-0.40625z"/>
</g>
<g id="v">
<path d="m5.625-7.4375c1.2969-0.65625 2.6094-1.6562 2.6094-3.2344 0-1.8906-1.8125-2.9844-3.4844-2.9844-1.875 0-3.5312 1.3594-3.5312 3.25 0 0.51562 0.125 1.4062 0.92188 2.1875 0.21875 0.20312 1.0781 0.82812 1.6406 1.2188-0.9375 0.46875-3.0938 1.6094-3.0938 3.875 0 2.1406 2.0156 3.4531 4.0156 3.4531 2.2188 0 4.0781-1.5938 4.0781-3.6875 0-1.8906-1.2656-2.75-2.0938-3.3125zm-2.7188-1.8125c-0.15625-0.10938-0.98438-0.75-0.98438-1.7188 0-1.2656 1.2969-2.2031 2.7812-2.2031 1.6406 0 2.8438 1.1562 2.8438 2.5 0 1.9062-2.1562 3.0156-2.2656 3.0156-0.015625 0-0.03125 0-0.20312-0.125zm3.8125 4.2344c0.29688 0.21875 1.2969 0.90625 1.2969 2.1719 0 1.5156-1.5312 2.6719-3.2656 2.6719-1.875 0-3.2969-1.3438-3.2969-2.9688s1.25-3 2.6719-3.6406z"/>
</g>
<g id="t">
<path d="m7.5-14.281c-0.10938-0.26562-0.14062-0.32812-0.35938-0.32812-0.20312 0-0.23438 0.0625-0.34375 0.32812l-4.375 12.406c-0.39062 1.1094-1.2188 1.3438-1.9531 1.3438v0.53125c0.375-0.046875 1.2031-0.046875 1.5938-0.046875 0.51562 0 1.3438 0 1.8438 0.046875v-0.53125c-0.96875-0.046875-1.125-0.70312-1.125-0.95312 0-0.1875 0.046875-0.29688 0.09375-0.42188l1.0938-3.0781h5.4062l1.25 3.5156c0.09375 0.25 0.09375 0.29688 0.09375 0.375 0 0.5625-0.89062 0.5625-1.2812 0.5625v0.53125c0.59375-0.046875 1.6719-0.046875 2.3125-0.046875 0.54688 0 1.5781 0 2.0625 0.046875v-0.53125c-1.0938 0-1.4531 0-1.7344-0.76562zm-0.82812 1.6562 2.5156 7.1094h-5.0312z"/>
</g>
<g id="s">
<path d="m11.234-14.062h-10.188v0.53125c1.4375 0 1.6562 0 1.6562 0.9375v11.125c0 0.9375-0.21875 0.9375-1.6562 0.9375v0.53125c0.60938-0.046875 1.7656-0.046875 2.4062-0.046875 0.84375 0 1.8281 0 2.6875 0.046875v-0.53125h-0.45312c-1.5781 0-1.625-0.21875-1.625-0.95312v-5.2969h1.8594c1.9219 0 2.1094 0.6875 2.1094 2.4219h0.375v-5.375h-0.375c0 1.7344-0.1875 2.4219-2.1094 2.4219h-1.8594v-5.4062c0-0.70312 0.046875-0.8125 0.875-0.8125h2.6562c3.125 0 3.4844 1.2812 3.7656 4.0312h0.375z"/>
</g>
</defs>
<path transform="matrix(.1 0 0 -.1 13.528 442.32)" d="m977.53 2853.2h708.63v425.2h-708.63z" fill="none" stroke="#000" stroke-miterlimit="10" stroke-width="4.7242"/>
<path transform="matrix(.1 0 0 -.1 13.528 442.32)" d="m977.53 1719.4h708.63v425.16h-708.63z" fill="none" stroke="#000" stroke-miterlimit="10" stroke-width="4.7242"/>
<path transform="matrix(.1 0 0 -.1 13.528 442.32)" d="m1913 4270.5h198.4v-2409.4h-198.4" fill="none" stroke="#000" stroke-miterlimit="10" stroke-width="4.7242"/>
<path transform="matrix(.1 0 0 -.1 13.528 442.32)" d="m1913 2994.9h198.4" fill="none" stroke="#000" stroke-miterlimit="10" stroke-width="4.7242"/>
<path transform="matrix(.1 0 0 -.1 13.528 442.32)" d="m2111.4 3136.6h1474" fill="none" stroke="#000" stroke-miterlimit="10" stroke-width="4.7242"/>
<path transform="matrix(.1 0 0 -.1 13.528 442.32)" d="m4889.2 3136.6h1474" fill="none" stroke="#000" stroke-miterlimit="10" stroke-width="4.7242"/>
<path transform="matrix(.1 0 0 -.1 13.528 442.32)" d="m4237.3 2598.1v-1303.9" fill="none" stroke="#000" stroke-miterlimit="10" stroke-width="4.7242"/>
<path transform="matrix(.1 0 0 -.1 13.528 442.32)" d="m4804.2 443.82h708.67v425.16h-708.67z" fill="none" stroke="#000" stroke-miterlimit="10" stroke-width="4.7242"/>
<path transform="matrix(.1 0 0 -.1 13.528 442.32)" d="m3103.5 443.82h708.63v425.16h-708.63z" fill="none" stroke="#000" stroke-miterlimit="10" stroke-width="4.7242"/>
<path transform="matrix(.1 0 0 -.1 13.528 442.32)" d="m3443.6 982.38v311.8h1700.7v-311.8" fill="none" stroke="#000" stroke-miterlimit="10" stroke-width="4.7242"/>
<path transform="matrix(.1 0 0 -.1 13.528 442.32)" d="m977.53 3987h708.63v425.2h-708.63z" fill="none" stroke="#000" stroke-miterlimit="10" stroke-width="4.7242"/>
<path transform="matrix(.1 0 0 -.1 13.528 442.32)" d="m1686.2 4213.7h226.8v113.4h-226.8z" fill="none" stroke="#000" stroke-miterlimit="10" stroke-width="4.7242"/>
<path transform="matrix(.1 0 0 -.1 13.528 442.32)" d="m1686.2 2938.2h226.8v113.4h-226.8z" fill="none" stroke="#000" stroke-miterlimit="10" stroke-width="4.7242"/>
<path transform="matrix(.1 0 0 -.1 13.528 442.32)" d="m1686.2 1804.4h226.8v113.4h-226.8z" fill="none" stroke="#000" stroke-miterlimit="10" stroke-width="4.7242"/>
<path transform="matrix(.1 0 0 -.1 13.528 442.32)" d="m3585.3 3080h226.76v113.36h-226.76z" fill="none" stroke="#000" stroke-miterlimit="10" stroke-width="4.7242"/>
<path transform="matrix(.1 0 0 -.1 13.528 442.32)" d="m4662.5 3080h226.76v113.36h-226.76z" fill="none" stroke="#000" stroke-miterlimit="10" stroke-width="4.7242"/>
<path transform="matrix(.1 0 0 -.1 13.528 442.32)" d="m4123.9 2598.1h226.76v113.36h-226.76z" fill="none" stroke="#000" stroke-miterlimit="10" stroke-width="4.7242"/>
<path transform="matrix(.1 0 0 -.1 13.528 442.32)" d="m3330.2 868.98h226.76v113.4h-226.76z" fill="none" stroke="#000" stroke-miterlimit="10" stroke-width="4.7242"/>
<path transform="matrix(.1 0 0 -.1 13.528 442.32)" d="m5030.9 868.98h226.8v113.4h-226.8z" fill="none" stroke="#000" stroke-miterlimit="10" stroke-width="4.7242"/>
<path transform="matrix(.1 0 0 -.1 13.528 442.32)" d="m6561.6 3420.1h-198.4v-1275.5h198.4" fill="none" stroke="#000" stroke-miterlimit="10" stroke-width="4.7242"/>
<path transform="matrix(.1 0 0 -.1 13.528 442.32)" d="m6788.4 3136.6h708.63v425.2h-708.63z" fill="none" stroke="#000" stroke-miterlimit="10" stroke-width="4.7242"/>
<path transform="matrix(.1 0 0 -.1 13.528 442.32)" d="m6788.4 2002.8h708.63v425.2h-708.63z" fill="none" stroke="#000" stroke-miterlimit="10" stroke-width="4.7242"/>
<path transform="matrix(.1 0 0 -.1 13.528 442.32)" d="m6561.6 2087.8h226.76v113.4h-226.76z" fill="none" stroke="#000" stroke-miterlimit="10" stroke-width="4.7242"/>
<path transform="matrix(.1 0 0 -.1 13.528 442.32)" d="m6561.6 3363.4h226.76v113.4h-226.76z" fill="none" stroke="#000" stroke-miterlimit="10" stroke-width="4.7242"/>
<path transform="matrix(.1 0 0 -.1 13.528 442.32)" d="m4662.5 3136.6c0-234.84-190.35-425.2-425.16-425.2-234.84 0-425.2 190.35-425.2 425.2 0 234.8 190.35 425.2 425.2 425.2 234.8 0 425.16-190.39 425.16-425.2z" fill="none" stroke="#000" stroke-miterlimit="10" stroke-width="4.7242"/>
<g>
<use x="702.162" y="224.668" xlink:href="#l"/>
<use x="716.487311" y="224.668" xlink:href="#i"/>
<use x="725.963134" y="224.668" xlink:href="#j"/>
<use x="733.389236" y="224.668" xlink:href="#h"/>
<use x="746.945902" y="224.668" xlink:href="#r"/>
<use x="111.985" y="176.791" xlink:href="#a"/>
<use x="121.460822" y="176.791" xlink:href="#a"/>
<use x="130.936645" y="176.791" xlink:href="#e"/>
<use x="140.412467" y="176.791" xlink:href="#c"/>
<use x="145.569827" y="176.791" xlink:href="#d"/>
<use x="155.04565" y="176.791" xlink:href="#c"/>
<use x="160.20301" y="176.791" xlink:href="#d"/>
<use x="169.678832" y="176.791" xlink:href="#c"/>
<use x="174.836192" y="176.791" xlink:href="#a"/>
<use x="121.022" y="139.624" xlink:href="#l"/>
<use x="135.347311" y="139.624" xlink:href="#i"/>
<use x="144.823134" y="139.624" xlink:href="#j"/>
<use x="152.249236" y="139.624" xlink:href="#h"/>
<use x="165.805902" y="139.624" xlink:href="#a"/>
<use x="121.022" y="253.017" xlink:href="#l"/>
<use x="135.347311" y="253.017" xlink:href="#i"/>
<use x="144.823134" y="253.017" xlink:href="#j"/>
<use x="152.249236" y="253.017" xlink:href="#h"/>
<use x="165.805902" y="253.017" xlink:href="#f"/>
<use x="408.742" y="134.269" xlink:href="#z"/>
<use x="422.802831" y="134.269" xlink:href="#i"/>
<use x="432.278654" y="134.269" xlink:href="#y"/>
<use x="442.835125" y="134.269" xlink:href="#h"/>
<use x="450.151716" y="134.269" xlink:href="#x"/>
<use x="458.548956" y="134.269" xlink:href="#w"/>
<use x="494.687" y="417.752" xlink:href="#a"/>
<use x="504.162822" y="417.752" xlink:href="#a"/>
<use x="513.638645" y="417.752" xlink:href="#e"/>
<use x="523.114468" y="417.752" xlink:href="#c"/>
<use x="528.271828" y="417.752" xlink:href="#d"/>
<use x="537.74765" y="417.752" xlink:href="#c"/>
<use x="542.90501" y="417.752" xlink:href="#f"/>
<use x="552.380833" y="417.752" xlink:href="#c"/>
<use x="557.538193" y="417.752" xlink:href="#a"/>
<use x="503.724" y="380.584" xlink:href="#l"/>
<use x="518.049311" y="380.584" xlink:href="#i"/>
<use x="527.525134" y="380.584" xlink:href="#j"/>
<use x="534.951236" y="380.584" xlink:href="#h"/>
<use x="548.507903" y="380.584" xlink:href="#u"/>
<use x="324.597" y="417.752" xlink:href="#a"/>
<use x="334.072822" y="417.752" xlink:href="#a"/>
<use x="343.548645" y="417.752" xlink:href="#e"/>
<use x="353.024468" y="417.752" xlink:href="#c"/>
<use x="358.181828" y="417.752" xlink:href="#d"/>
<use x="367.65765" y="417.752" xlink:href="#c"/>
<use x="372.81501" y="417.752" xlink:href="#f"/>
<use x="382.290833" y="417.752" xlink:href="#c"/>
<use x="387.448193" y="417.752" xlink:href="#d"/>
<use x="333.634" y="380.584" xlink:href="#l"/>
<use x="347.959311" y="380.584" xlink:href="#i"/>
<use x="357.435134" y="380.584" xlink:href="#j"/>
<use x="364.861236" y="380.584" xlink:href="#h"/>
<use x="378.417902" y="380.584" xlink:href="#o"/>
<use x="111.985" y="63.398" xlink:href="#a"/>
<use x="121.460822" y="63.398" xlink:href="#a"/>
<use x="130.936645" y="63.398" xlink:href="#e"/>
<use x="140.412467" y="63.398" xlink:href="#c"/>
<use x="145.569827" y="63.398" xlink:href="#d"/>
<use x="155.04565" y="63.398" xlink:href="#c"/>
<use x="160.20301" y="63.398" xlink:href="#d"/>
<use x="169.678832" y="63.398" xlink:href="#c"/>
<use x="174.836192" y="63.398" xlink:href="#d"/>
<use x="121.022" y="26.23" xlink:href="#l"/>
<use x="135.347311" y="26.23" xlink:href="#i"/>
<use x="144.823134" y="26.23" xlink:href="#j"/>
<use x="152.249236" y="26.23" xlink:href="#h"/>
<use x="165.805902" y="26.23" xlink:href="#d"/>
<use x="111.985" y="290.185" xlink:href="#a"/>
<use x="121.460822" y="290.185" xlink:href="#a"/>
<use x="130.936645" y="290.185" xlink:href="#e"/>
<use x="140.412467" y="290.185" xlink:href="#c"/>
<use x="145.569827" y="290.185" xlink:href="#d"/>
<use x="155.04565" y="290.185" xlink:href="#c"/>
<use x="160.20301" y="290.185" xlink:href="#d"/>
<use x="169.678832" y="290.185" xlink:href="#c"/>
<use x="174.836192" y="290.185" xlink:href="#f"/>
<use x="294.101" y="114.425" xlink:href="#a"/>
<use x="303.576822" y="114.425" xlink:href="#a"/>
<use x="313.052645" y="114.425" xlink:href="#e"/>
<use x="322.528467" y="114.425" xlink:href="#c"/>
<use x="327.685827" y="114.425" xlink:href="#d"/>
<use x="337.16165" y="114.425" xlink:href="#c"/>
<use x="342.31901" y="114.425" xlink:href="#d"/>
<use x="351.794832" y="114.425" xlink:href="#c"/>
<use x="356.952193" y="114.425" xlink:href="#o"/>
<use x="508.172765" y="114.425" xlink:href="#a"/>
<use x="517.648588" y="114.425" xlink:href="#a"/>
<use x="527.12441" y="114.425" xlink:href="#e"/>
<use x="536.600233" y="114.425" xlink:href="#c"/>
<use x="541.757593" y="114.425" xlink:href="#d"/>
<use x="551.233415" y="114.425" xlink:href="#c"/>
<use x="556.390775" y="114.425" xlink:href="#a"/>
<use x="565.866598" y="114.425" xlink:href="#c"/>
<use x="571.023958" y="114.425" xlink:href="#q"/>
<use x="270.237" y="83.242" xlink:href="#n"/>
<use x="283.217182" y="83.242" xlink:href="#r"/>
<use x="292.693005" y="83.242" xlink:href="#b"/>
<use x="298.931014" y="83.242" xlink:href="#n"/>
<use x="311.911196" y="83.242" xlink:href="#q"/>
<use x="321.387019" y="83.242" xlink:href="#b"/>
<use x="327.625027" y="83.242" xlink:href="#e"/>
<use x="337.10085" y="83.242" xlink:href="#e"/>
<use x="346.576672" y="83.242" xlink:href="#b"/>
<use x="352.814681" y="83.242" xlink:href="#d"/>
<use x="362.290504" y="83.242" xlink:href="#m"/>
<use x="371.766326" y="83.242" xlink:href="#b"/>
<use x="378.004335" y="83.242" xlink:href="#g"/>
<use x="391.523809" y="83.242" xlink:href="#g"/>
<use x="405.043282" y="83.242" xlink:href="#b"/>
<use x="411.281291" y="83.242" xlink:href="#o"/>
<use x="420.757114" y="83.242" xlink:href="#g"/>
<use x="247.043" y="441.375" xlink:href="#a"/>
<use x="256.518822" y="441.375" xlink:href="#d"/>
<use x="265.994645" y="441.375" xlink:href="#b"/>
<use x="272.232654" y="441.375" xlink:href="#a"/>
<use x="281.708476" y="441.375" xlink:href="#a"/>
<use x="291.184299" y="441.375" xlink:href="#b"/>
<use x="297.422307" y="441.375" xlink:href="#a"/>
<use x="306.89813" y="441.375" xlink:href="#f"/>
<use x="316.373952" y="441.375" xlink:href="#b"/>
<use x="322.611961" y="441.375" xlink:href="#a"/>
<use x="332.087784" y="441.375" xlink:href="#o"/>
<use x="341.563606" y="441.375" xlink:href="#b"/>
<use x="347.801615" y="441.375" xlink:href="#a"/>
<use x="357.277437" y="441.375" xlink:href="#u"/>
<use x="366.75326" y="441.375" xlink:href="#b"/>
<use x="372.991269" y="441.375" xlink:href="#a"/>
<use x="382.467091" y="441.375" xlink:href="#r"/>
<use x="493.995001" y="441.375" xlink:href="#o"/>
<use x="503.470824" y="441.375" xlink:href="#q"/>
<use x="512.946646" y="441.375" xlink:href="#b"/>
<use x="519.184655" y="441.375" xlink:href="#g"/>
<use x="532.704129" y="441.375" xlink:href="#k"/>
<use x="547.304251" y="441.375" xlink:href="#b"/>
<use x="553.54226" y="441.375" xlink:href="#g"/>
<use x="567.061734" y="441.375" xlink:href="#f"/>
<use x="576.537556" y="441.375" xlink:href="#b"/>
<use x="582.775565" y="441.375" xlink:href="#p"/>
<use x="596.56985" y="441.375" xlink:href="#v"/>
<use x="606.045672" y="441.375" xlink:href="#b"/>
<use x="612.283681" y="441.375" xlink:href="#m"/>
<use x="621.759504" y="441.375" xlink:href="#q"/>
<use x="631.235326" y="441.375" xlink:href="#b"/>
<use x="637.473335" y="441.375" xlink:href="#a"/>
<use x="646.949157" y="441.375" xlink:href="#g"/>
<use x="451.478" y="213.644" xlink:href="#a"/>
<use x="460.953822" y="213.644" xlink:href="#q"/>
<use x="470.429645" y="213.644" xlink:href="#b"/>
<use x="476.667654" y="213.644" xlink:href="#f"/>
<use x="486.143476" y="213.644" xlink:href="#e"/>
<use x="495.619299" y="213.644" xlink:href="#b"/>
<use x="501.857307" y="213.644" xlink:href="#f"/>
<use x="511.33313" y="213.644" xlink:href="#d"/>
<use x="520.808953" y="213.644" xlink:href="#b"/>
<use x="527.046961" y="213.644" xlink:href="#t"/>
<use x="541.372273" y="213.644" xlink:href="#g"/>
<use x="554.891746" y="213.644" xlink:href="#b"/>
<use x="561.129755" y="213.644" xlink:href="#p"/>
<use x="574.92404" y="213.644" xlink:href="#k"/>
<use x="589.524162" y="213.644" xlink:href="#b"/>
<use x="595.762171" y="213.644" xlink:href="#e"/>
<use x="605.237994" y="213.644" xlink:href="#m"/>
<use x="451.478" y="239.158" xlink:href="#a"/>
<use x="460.953822" y="239.158" xlink:href="#a"/>
<use x="470.429645" y="239.158" xlink:href="#e"/>
<use x="479.905467" y="239.158" xlink:href="#c"/>
<use x="485.062828" y="239.158" xlink:href="#d"/>
<use x="494.53865" y="239.158" xlink:href="#c"/>
<use x="499.69601" y="239.158" xlink:href="#f"/>
<use x="509.171833" y="239.158" xlink:href="#c"/>
<use x="514.329193" y="239.158" xlink:href="#a"/>
<use x="523.805015" y="239.158" xlink:href="#m"/>
<use x="14.082" y="87.022" xlink:href="#s"/>
<use x="26.522891" y="87.022" xlink:href="#s"/>
<use x="38.963782" y="87.022" xlink:href="#b"/>
<use x="45.201791" y="87.022" xlink:href="#k"/>
<use x="59.801914" y="87.022" xlink:href="#k"/>
<use x="74.402036" y="87.022" xlink:href="#b"/>
<use x="80.640045" y="87.022" xlink:href="#n"/>
<use x="93.620227" y="87.022" xlink:href="#n"/>
<use x="106.60041" y="87.022" xlink:href="#b"/>
<use x="112.838419" y="87.022" xlink:href="#d"/>
<use x="122.314241" y="87.022" xlink:href="#d"/>
<use x="131.790064" y="87.022" xlink:href="#b"/>
<use x="138.028072" y="87.022" xlink:href="#d"/>
<use x="147.503895" y="87.022" xlink:href="#a"/>
<use x="156.979717" y="87.022" xlink:href="#b"/>
<use x="163.217726" y="87.022" xlink:href="#d"/>
<use x="172.693549" y="87.022" xlink:href="#f"/>
<use x="-0.483" y="200.415" xlink:href="#p"/>
<use x="13.311285" y="200.415" xlink:href="#p"/>
<use x="27.10557" y="200.415" xlink:href="#b"/>
<use x="33.343579" y="200.415" xlink:href="#o"/>
<use x="42.819401" y="200.415" xlink:href="#v"/>
<use x="52.295224" y="200.415" xlink:href="#b"/>
<use x="58.533232" y="200.415" xlink:href="#k"/>
<use x="73.133355" y="200.415" xlink:href="#s"/>
<use x="85.574246" y="200.415" xlink:href="#b"/>
<use x="91.812255" y="200.415" xlink:href="#t"/>
<use x="106.137566" y="200.415" xlink:href="#g"/>
<use x="119.65704" y="200.415" xlink:href="#b"/>
<use x="125.895049" y="200.415" xlink:href="#m"/>
<use x="135.370871" y="200.415" xlink:href="#k"/>
<use x="149.970994" y="200.415" xlink:href="#b"/>
<use x="156.209002" y="200.415" xlink:href="#n"/>
<use x="169.189185" y="200.415" xlink:href="#n"/>
<use x="18.931" y="310.973" xlink:href="#a"/>
<use x="28.406822" y="310.973" xlink:href="#d"/>
<use x="37.882645" y="310.973" xlink:href="#b"/>
<use x="44.120654" y="310.973" xlink:href="#a"/>
<use x="53.596476" y="310.973" xlink:href="#a"/>
<use x="63.072299" y="310.973" xlink:href="#b"/>
<use x="69.310307" y="310.973" xlink:href="#f"/>
<use x="78.78613" y="310.973" xlink:href="#e"/>
<use x="88.261952" y="310.973" xlink:href="#b"/>
<use x="94.499961" y="310.973" xlink:href="#t"/>
<use x="108.825272" y="310.973" xlink:href="#g"/>
<use x="122.344746" y="310.973" xlink:href="#b"/>
<use x="128.582755" y="310.973" xlink:href="#p"/>
<use x="142.37704" y="310.973" xlink:href="#k"/>
<use x="156.977162" y="310.973" xlink:href="#b"/>
<use x="163.215171" y="310.973" xlink:href="#d"/>
<use x="172.690994" y="310.973" xlink:href="#u"/>
<use x="693.125" y="148.443" xlink:href="#a"/>
<use x="702.600823" y="148.443" xlink:href="#a"/>
<use x="712.076645" y="148.443" xlink:href="#e"/>
<use x="721.552468" y="148.443" xlink:href="#c"/>
<use x="726.709828" y="148.443" xlink:href="#d"/>
<use x="736.18565" y="148.443" xlink:href="#c"/>
<use x="741.34301" y="148.443" xlink:href="#a"/>
<use x="750.818833" y="148.443" xlink:href="#c"/>
<use x="755.976193" y="148.443" xlink:href="#d"/>
<use x="702.162" y="111.275" xlink:href="#l"/>
<use x="716.487311" y="111.275" xlink:href="#i"/>
<use x="725.963134" y="111.275" xlink:href="#j"/>
<use x="733.389236" y="111.275" xlink:href="#h"/>
<use x="746.945903" y="111.275" xlink:href="#m"/>
<use x="693.125" y="261.836" xlink:href="#a"/>
<use x="702.600823" y="261.836" xlink:href="#a"/>
<use x="712.076645" y="261.836" xlink:href="#e"/>
<use x="721.552468" y="261.836" xlink:href="#c"/>
<use x="726.709828" y="261.836" xlink:href="#d"/>
<use x="736.18565" y="261.836" xlink:href="#c"/>
<use x="741.34301" y="261.836" xlink:href="#a"/>
<use x="750.818833" y="261.836" xlink:href="#c"/>
<use x="755.976193" y="261.836" xlink:href="#a"/>
</g>
</svg>
