<svg width="346pt" height="224pt" version="1.1" viewBox="0 0 346 224" xmlns="http://www.w3.org/2000/svg" xmlns:xlink="http://www.w3.org/1999/xlink">
<defs>
<g id="bf">
<path d="m4.625-8.3125c-0.046875-0.15625-0.078125-0.21875-0.23438-0.21875-0.17188 0-0.1875 0.03125-0.25 0.21875l-2.5 7.1562c-0.17188 0.48438-0.5 0.79688-1.2656 0.8125v0.34375c0.71875-0.03125 0.75-0.03125 1.1406-0.03125 0.34375 0 0.90625 0 1.2188 0.03125v-0.34375c-0.5-0.015625-0.79688-0.26562-0.79688-0.59375 0-0.078125 0-0.10938 0.0625-0.25l0.54688-1.5938h3.0156l0.65625 1.875c0.0625 0.14062 0.0625 0.17188 0.0625 0.20312 0 0.35938-0.60938 0.35938-0.92188 0.35938v0.34375c0.28125-0.03125 1.2344-0.03125 1.5625-0.03125s1.1875 0 1.4688 0.03125v-0.34375c-0.78125 0-0.98438 0-1.1562-0.5zm-0.57812 1.2031 1.3906 3.9844h-2.7656z"/>
</g>
<g id="aw">
<path d="m3.5781-8.1562v0.34375c0.82812 0 0.92188 0.078125 0.92188 0.67188v2.6406c-0.25-0.35938-0.76562-0.76562-1.5-0.76562-1.3906 0-2.5781 1.1719-2.5781 2.7031 0 1.5156 1.125 2.6875 2.4531 2.6875 0.90625 0 1.4219-0.60938 1.5938-0.82812v0.82812l1.6875-0.125v-0.34375c-0.8125 0-0.90625-0.09375-0.90625-0.67188v-7.2812zm0.89062 6.75c0 0.21875 0 0.26562-0.17188 0.51562-0.28125 0.42188-0.76562 0.76562-1.375 0.76562-0.29688 0-1.5938-0.10938-1.5938-2.4375 0-0.85938 0.14062-1.3281 0.40625-1.7344 0.23438-0.35938 0.71875-0.73438 1.3125-0.73438 0.75 0 1.1562 0.53125 1.2812 0.73438 0.14062 0.20312 0.14062 0.21875 0.14062 0.4375z"/>
</g>
<g id="ac">
<path d="m2-2.7812c0-1.1562 0.46875-2.25 1.3906-2.25 0.09375 0 0.125 0 0.17188 0.015625-0.09375 0.046875-0.28125 0.10938-0.28125 0.4375 0 0.34375 0.26562 0.48438 0.45312 0.48438 0.25 0 0.48438-0.15625 0.48438-0.48438 0-0.35938-0.32812-0.6875-0.84375-0.6875-1.0156 0-1.3594 1.0938-1.4219 1.3281h-0.015625v-1.3281l-1.6094 0.125v0.34375c0.8125 0 0.92188 0.09375 0.92188 0.67188v3.2344c0 0.54688-0.14062 0.54688-0.92188 0.54688v0.34375c0.34375-0.03125 1-0.03125 1.3594-0.03125 0.32812 0 1.1719 0 1.4375 0.03125v-0.34375h-0.23438c-0.875 0-0.89062-0.14062-0.89062-0.5625z"/>
</g>
<g id="l">
<path d="m4.5781-2.7656c0.26562 0 0.28125 0 0.28125-0.23438 0-1.2031-0.64062-2.3281-2.0938-2.3281-1.3594 0-2.4062 1.2344-2.4062 2.7031 0 1.5781 1.2188 2.75 2.5469 2.75 1.4219 0 1.9531-1.2969 1.9531-1.5469 0-0.078125-0.046875-0.125-0.125-0.125-0.09375 0-0.125 0.0625-0.14062 0.125-0.3125 1-1.1094 1.2812-1.625 1.2812-0.5 0-1.7031-0.34375-1.7031-2.4062v-0.21875zm-3.2969-0.23438c0.09375-1.875 1.1406-2.0938 1.4844-2.0938 1.2812 0 1.3438 1.6875 1.3594 2.0938z"/>
</g>
<g id="p">
<path d="m3.9219-5.0625c0-0.20312 0-0.26562-0.125-0.26562-0.09375 0-0.3125 0.26562-0.40625 0.375-0.35938-0.3125-0.73438-0.375-1.125-0.375-1.4375 0-1.875 0.78125-1.875 1.4375 0 0.14062 0 0.5625 0.45312 0.96875 0.39062 0.34375 0.79688 0.42188 1.3438 0.53125 0.65625 0.125 0.8125 0.17188 1.1094 0.40625 0.21875 0.17188 0.375 0.4375 0.375 0.78125 0 0.51562-0.29688 1.0781-1.3594 1.0781-0.78125 0-1.3594-0.45312-1.625-1.6406-0.046875-0.21875-0.046875-0.23438-0.046875-0.25-0.03125-0.046875-0.078125-0.046875-0.10938-0.046875-0.14062 0-0.14062 0.0625-0.14062 0.28125v1.625c0 0.21875 0 0.28125 0.125 0.28125 0.0625 0 0.0625-0.015625 0.26562-0.26562 0.0625-0.09375 0.0625-0.10938 0.25-0.29688 0.45312 0.5625 1.0938 0.5625 1.2969 0.5625 1.25 0 1.875-0.70312 1.875-1.6406 0-0.64062-0.39062-1.0312-0.5-1.1406-0.42188-0.375-0.75-0.4375-1.5469-0.57812-0.34375-0.078125-1.2188-0.25-1.2188-0.96875 0-0.35938 0.25-0.90625 1.3281-0.90625 1.2969 0 1.375 1.1094 1.3906 1.4688 0.015625 0.10938 0.09375 0.10938 0.14062 0.10938 0.125 0 0.125-0.0625 0.125-0.28125z"/>
</g>
<g id="av">
<path d="m5.3125-2.9062c0-1.1094 0-1.4375-0.26562-1.8281-0.34375-0.46875-0.90625-0.53125-1.3125-0.53125-1.1719 0-1.625 0.98438-1.7188 1.2188v-1.2188l-1.6406 0.125v0.34375c0.8125 0 0.92188 0.09375 0.92188 0.67188v3.2344c0 0.54688-0.14062 0.54688-0.92188 0.54688v0.34375c0.3125-0.03125 0.96875-0.03125 1.2969-0.03125 0.34375 0 1 0 1.2969 0.03125v-0.34375c-0.75 0-0.90625 0-0.90625-0.54688v-2.2188c0-1.25 0.82812-1.9219 1.5781-1.9219 0.73438 0 0.90625 0.60938 0.90625 1.3438v2.7969c0 0.54688-0.14062 0.54688-0.90625 0.54688v0.34375c0.29688-0.03125 0.95312-0.03125 1.2812-0.03125 0.34375 0 1 0 1.3125 0.03125v-0.34375c-0.60938 0-0.90625 0-0.92188-0.35938z"/>
</g>
<g id="au">
<path d="m2-8.2969-1.6719 0.14062v0.34375c0.8125 0 0.92188 0.078125 0.92188 0.67188v7.1406h0.25c0.046875-0.09375 0.39062-0.6875 0.4375-0.78125 0.28125 0.45312 0.78125 0.90625 1.5469 0.90625 1.375 0 2.5938-1.1719 2.5938-2.7031 0-1.5156-1.125-2.6875-2.4531-2.6875-0.65625 0-1.2188 0.29688-1.625 0.79688zm0.015625 4.4688c0-0.21875 0-0.23438 0.14062-0.42188 0.28125-0.4375 0.8125-0.78125 1.3906-0.78125 0.35938 0 1.6094 0.14062 1.6094 2.4375 0 0.79688-0.10938 1.2969-0.40625 1.7344-0.23438 0.375-0.70312 0.73438-1.3125 0.73438-0.64062 0-1.0625-0.40625-1.2656-0.73438-0.15625-0.25-0.15625-0.29688-0.15625-0.5z"/>
</g>
<g id="ab">
<path d="m2.0781-7.3594c0-0.3125-0.25-0.59375-0.57812-0.59375-0.3125 0-0.57812 0.25-0.57812 0.57812 0 0.35938 0.28125 0.57812 0.57812 0.57812 0.35938 0 0.57812-0.29688 0.57812-0.5625zm-1.6406 2.2188v0.34375c0.75 0 0.85938 0.078125 0.85938 0.65625v3.25c0 0.54688-0.125 0.54688-0.90625 0.54688v0.34375c0.34375-0.03125 0.90625-0.03125 1.2656-0.03125 0.125 0 0.8125 0 1.2188 0.03125v-0.34375c-0.76562 0-0.8125-0.0625-0.8125-0.53125v-4.3906z"/>
</g>
<g id="at">
<path d="m4.3281-4.4219c-0.14062 0-0.59375 0-0.59375 0.48438 0 0.29688 0.20312 0.5 0.5 0.5 0.26562 0 0.5-0.17188 0.5-0.51562 0-0.79688-0.84375-1.375-1.8125-1.375-1.3906 0-2.5 1.2344-2.5 2.75 0 1.5312 1.1406 2.7031 2.5 2.7031 1.5781 0 1.9375-1.4375 1.9375-1.5469s-0.09375-0.10938-0.125-0.10938c-0.10938 0-0.125 0.03125-0.15625 0.1875-0.26562 0.84375-0.90625 1.2031-1.5469 1.2031-0.73438 0-1.7031-0.64062-1.7031-2.4531 0-1.9844 1.0156-2.4688 1.6094-2.4688 0.45312 0 1.1094 0.17188 1.3906 0.64062z"/>
</g>
<g id="be">
<path d="m5.3125-2.9062c0-1.1094 0-1.4375-0.26562-1.8281-0.34375-0.46875-0.90625-0.53125-1.3125-0.53125-1.0312 0-1.5156 0.76562-1.6719 1.1406h-0.015625v-4.1719l-1.6719 0.14062v0.34375c0.8125 0 0.92188 0.078125 0.92188 0.67188v6.25c0 0.54688-0.14062 0.54688-0.92188 0.54688v0.34375c0.3125-0.03125 0.96875-0.03125 1.2969-0.03125 0.34375 0 1 0 1.2969 0.03125v-0.34375c-0.75 0-0.90625 0-0.90625-0.54688v-2.2188c0-1.25 0.82812-1.9219 1.5781-1.9219 0.73438 0 0.90625 0.60938 0.90625 1.3438v2.7969c0 0.54688-0.14062 0.54688-0.90625 0.54688v0.34375c0.29688-0.03125 0.95312-0.03125 1.2812-0.03125 0.34375 0 1 0 1.3125 0.03125v-0.34375c-0.60938 0-0.90625 0-0.92188-0.35938z"/>
</g>
<g id="bd">
<path d="m2.2031-4.2969c-0.20312 0.015625-0.25 0.03125-0.25 0.14062s0.0625 0.10938 0.26562 0.10938h0.54688c1.0312 0 1.4844 0.84375 1.4844 1.9844 0 1.5781-0.8125 1.9844-1.4062 1.9844-0.57812 0-1.5469-0.26562-1.9062-1.0625 0.39062 0.0625 0.73438-0.15625 0.73438-0.57812 0-0.34375-0.25-0.59375-0.57812-0.59375-0.29688 0-0.60938 0.17188-0.60938 0.625 0 1.0625 1.0625 1.9375 2.3906 1.9375 1.4219 0 2.4844-1.0938 2.4844-2.2969 0-1.0938-0.89062-1.9531-2.0312-2.1562 1.0312-0.29688 1.7031-1.1719 1.7031-2.1094s-0.98438-1.6406-2.1406-1.6406c-1.1875 0-2.0781 0.73438-2.0781 1.6094 0 0.46875 0.375 0.57812 0.54688 0.57812 0.25 0 0.54688-0.1875 0.54688-0.54688 0-0.375-0.29688-0.54688-0.5625-0.54688-0.0625 0-0.09375 0-0.125 0.015625 0.45312-0.8125 1.5781-0.8125 1.6406-0.8125 0.39062 0 1.1719 0.17188 1.1719 1.3438 0 0.23438-0.03125 0.89062-0.39062 1.4062-0.35938 0.53125-0.76562 0.5625-1.0781 0.57812z"/>
</g>
<g id="bc">
<path d="m5.2656-2.0156h-0.26562c-0.046875 0.20312-0.14062 0.875-0.25 1.0625-0.09375 0.10938-0.76562 0.10938-1.125 0.10938h-2.2188c0.32812-0.28125 1.0625-1.0469 1.3594-1.3281 1.8281-1.6719 2.5-2.2969 2.5-3.4844 0-1.375-1.0938-2.2969-2.4844-2.2969-1.375 0-2.2031 1.1875-2.2031 2.2188 0 0.60938 0.53125 0.60938 0.5625 0.60938 0.26562 0 0.5625-0.1875 0.5625-0.5625 0-0.34375-0.21875-0.5625-0.5625-0.5625-0.09375 0-0.125 0-0.15625 0.015625 0.21875-0.8125 0.875-1.375 1.6406-1.375 1.0156 0 1.6406 0.85938 1.6406 1.9531 0 1.0156-0.57812 1.9062-1.2656 2.6719l-2.4219 2.7031v0.28125h4.375z"/>
</g>
<g id="bb">
<path d="m0.51562-8.1562v0.34375h0.23438c0.85938 0 0.90625 0.10938 0.90625 0.5625v6.3438c0 0.4375-0.046875 0.5625-0.90625 0.5625h-0.23438v0.34375h4.5c1.5312 0 2.6094-1.0469 2.6094-2.1875 0-0.96875-0.875-1.9219-2.2969-2.0781 1.1406-0.21875 1.9688-0.98438 1.9688-1.875 0-1.0312-1.0469-2.0156-2.6094-2.0156zm2.0469 3.7969v-2.9844c0-0.39062 0.015625-0.46875 0.54688-0.46875h1.5c1.2031 0 1.625 1.0156 1.625 1.6719 0 0.78125-0.60938 1.7812-1.9375 1.7812zm0.54688 4.0156c-0.53125 0-0.54688-0.09375-0.54688-0.48438v-3.2969h2.2344c1.1406 0 1.7344 1 1.7344 1.9219 0 0.96875-0.71875 1.8594-1.8906 1.8594z"/>
</g>
<g id="ba">
<path d="m2.0156-4.8125h1.6719v-0.34375h-1.6719v-2.1875h-0.26562c-0.015625 1.1094-0.45312 2.2656-1.5312 2.2969v0.23438h1.0156v3.3281c0 1.3281 0.875 1.6094 1.5156 1.6094 0.75 0 1.1406-0.75 1.1406-1.6094v-0.67188h-0.25v0.65625c0 0.85938-0.35938 1.3594-0.8125 1.3594-0.8125 0-0.8125-1.1094-0.8125-1.3125z"/>
</g>
<g id="az">
<path d="m4.6719-5.0156c0.1875-0.1875 0.64062-0.625 0.84375-0.8125 1.6406-1.625 1.9844-1.9688 2.9219-1.9844v-0.34375c-0.34375 0.015625-0.48438 0.015625-1.0312 0.015625-0.3125 0-1.0156 0-1.2812-0.015625v0.34375c0.25 0 0.46875 0.10938 0.46875 0.375 0 0.1875-0.09375 0.29688-0.35938 0.54688l-3.6406 3.5156v-3.8594c0-0.57812 0.125-0.57812 1.1406-0.57812v-0.34375c-0.29688 0.015625-1.2656 0.015625-1.625 0.015625s-1.3281 0-1.625-0.015625v0.34375c1.0156 0 1.1406 0 1.1406 0.57812v6.2969c0 0.59375-0.125 0.59375-1.1406 0.59375v0.34375c0.29688-0.03125 1.2656-0.03125 1.625-0.03125s1.3281 0 1.625 0.03125v-0.34375c-1.0156 0-1.1406 0-1.1406-0.59375v-2.0781l1.4219-1.375 2.2188 3.3125c0.046875 0.078125 0.09375 0.15625 0.10938 0.21875 0.03125 0.046875 0.046875 0.10938 0.046875 0.17188 0 0.34375-0.4375 0.34375-0.625 0.34375v0.34375c0.28125-0.03125 1.1562-0.03125 1.5-0.03125 0.3125 0 0.90625 0 1.3281 0.03125v-0.34375c-0.64062 0-0.84375-0.0625-1.2344-0.64062z"/>
</g>
<g id="ay">
<path d="m2.0625-8.2969-1.6719 0.14062v0.34375c0.8125 0 0.90625 0.078125 0.90625 0.67188v6.25c0 0.54688-0.125 0.54688-0.90625 0.54688v0.34375c0.34375-0.03125 0.92188-0.03125 1.2812-0.03125s0.95312 0 1.2969 0.03125v-0.34375c-0.76562 0-0.90625 0-0.90625-0.54688z"/>
</g>
<g id="ax">
<path d="m4.6094-3.1875c0-0.65625 0-1.125-0.51562-1.5938-0.42188-0.375-0.96875-0.54688-1.4844-0.54688-0.98438 0-1.7344 0.64062-1.7344 1.4219 0 0.34375 0.21875 0.51562 0.5 0.51562s0.48438-0.20312 0.48438-0.5c0-0.48438-0.42188-0.48438-0.60938-0.48438 0.28125-0.5 0.85938-0.71875 1.3281-0.71875 0.54688 0 1.2656 0.45312 1.2656 1.5312v0.48438c-2.4062 0.03125-3.3125 1.0312-3.3125 1.9531 0 0.95312 1.0938 1.25 1.8281 1.25 0.78125 0 1.3281-0.48438 1.5469-1.0625 0.046875 0.5625 0.42188 1 0.9375 1 0.25 0 0.9375-0.17188 0.9375-1.125v-0.67188h-0.26562v0.67188c0 0.6875-0.28125 0.78125-0.45312 0.78125-0.45312 0-0.45312-0.64062-0.45312-0.8125zm-0.76562 1.5c0 1.1719-0.875 1.5625-1.3906 1.5625-0.59375 0-1.0781-0.42188-1.0781-1 0-1.5781 2.0312-1.7188 2.4688-1.75z"/>
</g>
<g id="aa">
<path d="m3.9688-6.9375c-0.046875-0.125-0.078125-0.20312-0.23438-0.20312s-0.1875 0.0625-0.23438 0.20312l-2.0625 5.9531c-0.1875 0.51562-0.57812 0.67188-1.125 0.67188v0.3125c0.23438-0.015625 0.67188-0.03125 1.0156-0.03125 0.3125 0 0.82812 0.015625 1.1562 0.03125v-0.3125c-0.5 0-0.75-0.25-0.75-0.5 0-0.03125 0.015625-0.14062 0.015625-0.15625l0.46875-1.2969h2.4531l0.53125 1.5156c0.015625 0.046875 0.03125 0.10938 0.03125 0.14062 0 0.29688-0.5625 0.29688-0.82812 0.29688v0.3125c0.35938-0.03125 1.0625-0.03125 1.4375-0.03125 0.42188 0 0.89062 0.015625 1.2969 0.03125v-0.3125h-0.17188c-0.59375 0-0.73438-0.0625-0.84375-0.39062zm-0.53125 1.1094 1.125 3.25h-2.2344z"/>
</g>
<g id="e">
<path d="m2.9375-6.375c0-0.25 0-0.26562-0.23438-0.26562-0.625 0.64062-1.5 0.64062-1.8125 0.64062v0.3125c0.20312 0 0.78125 0 1.2969-0.26562v5.1719c0 0.35938-0.03125 0.46875-0.92188 0.46875h-0.3125v0.3125c0.34375-0.03125 1.2031-0.03125 1.6094-0.03125 0.39062 0 1.2656 0 1.6094 0.03125v-0.3125h-0.3125c-0.90625 0-0.92188-0.10938-0.92188-0.46875z"/>
</g>
<g id="c">
<path d="m1.2656-0.76562 1.0625-1.0312c1.5469-1.375 2.1406-1.9062 2.1406-2.9062 0-1.1406-0.89062-1.9375-2.1094-1.9375-1.125 0-1.8594 0.92188-1.8594 1.8125 0 0.54688 0.5 0.54688 0.53125 0.54688 0.17188 0 0.51562-0.10938 0.51562-0.53125 0-0.25-0.1875-0.51562-0.53125-0.51562-0.078125 0-0.09375 0-0.125 0.015625 0.21875-0.65625 0.76562-1.0156 1.3438-1.0156 0.90625 0 1.3281 0.8125 1.3281 1.625 0 0.79688-0.48438 1.5781-1.0469 2.2031l-1.9062 2.125c-0.10938 0.10938-0.10938 0.14062-0.10938 0.375h3.7031l0.26562-1.7344h-0.23438c-0.0625 0.29688-0.125 0.73438-0.23438 0.89062-0.0625 0.078125-0.71875 0.078125-0.9375 0.078125z"/>
</g>
<g id="w">
<path d="m2.8906-3.5156c0.8125-0.26562 1.3906-0.95312 1.3906-1.75 0-0.8125-0.875-1.375-1.8281-1.375-1 0-1.7656 0.59375-1.7656 1.3594 0 0.32812 0.21875 0.51562 0.51562 0.51562s0.5-0.21875 0.5-0.51562c0-0.48438-0.46875-0.48438-0.60938-0.48438 0.29688-0.5 0.95312-0.625 1.3125-0.625 0.42188 0 0.96875 0.21875 0.96875 1.1094 0 0.125-0.03125 0.70312-0.28125 1.1406-0.29688 0.48438-0.64062 0.51562-0.89062 0.51562-0.078125 0.015625-0.3125 0.03125-0.39062 0.03125-0.078125 0.015625-0.14062 0.03125-0.14062 0.125 0 0.10938 0.0625 0.10938 0.23438 0.10938h0.4375c0.8125 0 1.1875 0.67188 1.1875 1.6562 0 1.3594-0.6875 1.6406-1.125 1.6406s-1.1875-0.17188-1.5312-0.75c0.34375 0.046875 0.65625-0.17188 0.65625-0.54688 0-0.35938-0.26562-0.5625-0.54688-0.5625-0.25 0-0.5625 0.14062-0.5625 0.57812 0 0.90625 0.92188 1.5625 2.0156 1.5625 1.2188 0 2.125-0.90625 2.125-1.9219 0-0.8125-0.64062-1.5938-1.6719-1.8125z"/>
</g>
<g id="b">
<path d="m1.9062-0.53125c0-0.28125-0.23438-0.53125-0.51562-0.53125-0.29688 0-0.53125 0.25-0.53125 0.53125 0 0.29688 0.23438 0.53125 0.53125 0.53125 0.28125 0 0.51562-0.23438 0.51562-0.53125z"/>
</g>
<g id="a">
<path d="m4.4688-2c0-1.1875-0.8125-2.1875-1.8906-2.1875-0.46875 0-0.90625 0.15625-1.2656 0.51562v-1.9531c0.20312 0.0625 0.53125 0.125 0.84375 0.125 1.2344 0 1.9375-0.90625 1.9375-1.0312 0-0.0625-0.03125-0.10938-0.10938-0.10938 0 0-0.03125 0-0.078125 0.03125-0.20312 0.09375-0.6875 0.29688-1.3594 0.29688-0.39062 0-0.85938-0.078125-1.3281-0.28125-0.078125-0.03125-0.09375-0.03125-0.10938-0.03125-0.10938 0-0.10938 0.078125-0.10938 0.23438v2.9531c0 0.17188 0 0.25 0.14062 0.25 0.078125 0 0.09375-0.015625 0.14062-0.078125 0.10938-0.15625 0.46875-0.70312 1.2812-0.70312 0.51562 0 0.76562 0.45312 0.84375 0.64062 0.15625 0.375 0.1875 0.75 0.1875 1.25 0 0.35938 0 0.95312-0.25 1.375-0.23438 0.39062-0.60938 0.64062-1.0625 0.64062-0.71875 0-1.2969-0.53125-1.4688-1.1094 0.03125 0 0.0625 0.015625 0.17188 0.015625 0.32812 0 0.5-0.25 0.5-0.48438 0-0.25-0.17188-0.5-0.5-0.5-0.14062 0-0.48438 0.078125-0.48438 0.53125 0 0.85938 0.6875 1.8281 1.7969 1.8281 1.1562 0 2.1719-0.95312 2.1719-2.2188z"/>
</g>
<g id="q">
<path d="m2.9375-1.6406v0.85938c0 0.35938-0.03125 0.46875-0.76562 0.46875h-0.20312v0.3125c0.40625-0.03125 0.92188-0.03125 1.3438-0.03125s0.9375 0 1.3594 0.03125v-0.3125h-0.21875c-0.73438 0-0.75-0.10938-0.75-0.46875v-0.85938h0.98438v-0.3125h-0.98438v-4.5312c0-0.20312 0-0.26562-0.17188-0.26562-0.078125 0-0.10938 0-0.1875 0.125l-3.0625 4.6719v0.3125zm0.046875-0.3125h-2.4219l2.4219-3.7188z"/>
</g>
<g id="d">
<path d="m4.5781-3.1875c0-0.79688-0.046875-1.5938-0.39062-2.3281-0.45312-0.96875-1.2812-1.125-1.6875-1.125-0.60938 0-1.3281 0.26562-1.75 1.1875-0.3125 0.6875-0.35938 1.4688-0.35938 2.2656 0 0.75 0.03125 1.6406 0.45312 2.4062 0.42188 0.79688 1.1562 1 1.6406 1 0.53125 0 1.2969-0.20312 1.7344-1.1562 0.3125-0.6875 0.35938-1.4688 0.35938-2.25zm-2.0938 3.1875c-0.39062 0-0.98438-0.25-1.1562-1.2031-0.10938-0.59375-0.10938-1.5156-0.10938-2.1094 0-0.64062 0-1.2969 0.078125-1.8281 0.1875-1.1875 0.9375-1.2812 1.1875-1.2812 0.32812 0 0.98438 0.1875 1.1719 1.1719 0.10938 0.5625 0.10938 1.3125 0.10938 1.9375 0 0.75 0 1.4219-0.10938 2.0625-0.15625 0.95312-0.71875 1.25-1.1719 1.25z"/>
</g>
<g id="k">
<path d="m1.7188-3.7656v-3.1562l-1.4375 0.10938v0.3125c0.70312 0 0.78125 0.0625 0.78125 0.5625v5.9375h0.25c0-0.015625 0.078125-0.15625 0.35938-0.625 0.14062 0.23438 0.5625 0.73438 1.2969 0.73438 1.1875 0 2.2188-0.98438 2.2188-2.2656 0-1.2656-0.96875-2.25-2.1094-2.25-0.78125 0-1.2031 0.46875-1.3594 0.64062zm0.03125 2.625v-2.0469c0-0.1875 0-0.20312 0.10938-0.35938 0.39062-0.5625 0.9375-0.64062 1.1719-0.64062 0.45312 0 0.8125 0.26562 1.0469 0.64062 0.26562 0.40625 0.28125 0.96875 0.28125 1.3906 0 0.35938-0.015625 0.95312-0.29688 1.4062-0.21875 0.3125-0.59375 0.64062-1.125 0.64062-0.45312 0-0.8125-0.23438-1.0469-0.60938-0.14062-0.20312-0.14062-0.23438-0.14062-0.42188z"/>
</g>
<g id="j">
<path d="m1.7656-4.4062-1.3906 0.10938v0.3125c0.64062 0 0.73438 0.0625 0.73438 0.54688v2.6875c0 0.4375-0.10938 0.4375-0.78125 0.4375v0.3125c0.3125-0.015625 0.85938-0.03125 1.0938-0.03125 0.35938 0 0.70312 0.015625 1.0469 0.03125v-0.3125c-0.67188 0-0.70312-0.046875-0.70312-0.4375zm0.03125-1.7344c0-0.3125-0.23438-0.53125-0.51562-0.53125-0.3125 0-0.53125 0.26562-0.53125 0.53125s0.21875 0.53125 0.53125 0.53125c0.28125 0 0.51562-0.21875 0.51562-0.53125z"/>
</g>
<g id="g">
<path d="m2.0781-1.9375c0.21875 0.046875 1.0312 0.20312 1.0312 0.92188 0 0.5-0.34375 0.90625-1.125 0.90625-0.84375 0-1.2031-0.5625-1.3906-1.4219-0.03125-0.125-0.03125-0.15625-0.14062-0.15625-0.125 0-0.125 0.0625-0.125 0.23438v1.3281c0 0.17188 0 0.23438 0.10938 0.23438 0.046875 0 0.0625-0.015625 0.25-0.20312 0.015625-0.015625 0.015625-0.03125 0.20312-0.21875 0.4375 0.40625 0.89062 0.42188 1.0938 0.42188 1.1406 0 1.6094-0.67188 1.6094-1.3906 0-0.51562-0.29688-0.82812-0.42188-0.9375-0.32812-0.32812-0.71875-0.40625-1.1406-0.48438-0.5625-0.10938-1.2188-0.23438-1.2188-0.8125 0-0.35938 0.25-0.76562 1.1094-0.76562 1.0938 0 1.1562 0.90625 1.1719 1.2031 0 0.09375 0.09375 0.09375 0.10938 0.09375 0.14062 0 0.14062-0.046875 0.14062-0.23438v-1.0156c0-0.15625 0-0.23438-0.10938-0.23438-0.046875 0-0.078125 0-0.20312 0.125-0.03125 0.03125-0.125 0.125-0.17188 0.15625-0.375-0.28125-0.78125-0.28125-0.9375-0.28125-1.2188 0-1.5938 0.67188-1.5938 1.2344 0 0.34375 0.15625 0.625 0.42188 0.84375 0.32812 0.25 0.60938 0.3125 1.3281 0.45312z"/>
</g>
<g id="v">
<path d="m3.6562-3.1719v0.32812c0 2.3281-1.0312 2.7812-1.6094 2.7812-0.17188 0-0.71875-0.015625-0.98438-0.35938 0.4375 0 0.51562-0.28125 0.51562-0.45312 0-0.3125-0.23438-0.45312-0.45312-0.45312-0.15625 0-0.45312 0.078125-0.45312 0.46875 0 0.67188 0.53125 1.0781 1.375 1.0781 1.2969 0 2.5156-1.3594 2.5156-3.5 0-2.6875-1.1562-3.3594-2.0469-3.3594-0.54688 0-1.0312 0.1875-1.4531 0.625-0.42188 0.45312-0.64062 0.875-0.64062 1.625 0 1.2344 0.875 2.2188 1.9844 2.2188 0.60938 0 1.0156-0.42188 1.25-1zm-1.2344 0.76562c-0.15625 0-0.625 0-0.92188-0.625-0.1875-0.375-0.1875-0.85938-0.1875-1.3594 0-0.53125 0-1 0.21875-1.375 0.26562-0.5 0.64062-0.625 0.98438-0.625 0.46875 0 0.79688 0.34375 0.96875 0.78125 0.10938 0.32812 0.15625 0.95312 0.15625 1.4062 0 0.82812-0.34375 1.7969-1.2188 1.7969z"/>
</g>
<g id="z">
<path d="m4.75-6.0781c0.078125-0.10938 0.078125-0.125 0.078125-0.34375h-2.4219c-1.2031 0-1.2344-0.125-1.2656-0.3125h-0.25l-0.32812 2.0469h0.25c0.03125-0.15625 0.10938-0.78125 0.25-0.90625 0.0625-0.0625 0.84375-0.0625 0.96875-0.0625h2.0625c-0.10938 0.15625-0.89062 1.25-1.1094 1.5781-0.90625 1.3438-1.2344 2.7344-1.2344 3.75 0 0.09375 0 0.54688 0.46875 0.54688 0.45312 0 0.45312-0.45312 0.45312-0.54688v-0.51562c0-0.54688 0.03125-1.0938 0.10938-1.625 0.046875-0.23438 0.17188-1.0938 0.625-1.7031z"/>
</g>
<g id="o">
<path d="m2.3125-6.6719c-0.09375-0.125-0.09375-0.14062-0.28125-0.14062h-1.7031v0.3125h0.29688c0.14062 0 0.34375 0.015625 0.48438 0.015625 0.23438 0.03125 0.25 0.046875 0.25 0.23438v5.2031c0 0.26562 0 0.73438-1.0312 0.73438v0.3125c0.34375-0.015625 0.84375-0.03125 1.1719-0.03125s0.8125 0.015625 1.1562 0.03125v-0.3125c-1.0156 0-1.0156-0.46875-1.0156-0.73438v-5.1875c0.046875 0.046875 0.046875 0.0625 0.09375 0.125l4.0625 5.9844c0.09375 0.10938 0.10938 0.125 0.17188 0.125 0.14062 0 0.14062-0.0625 0.14062-0.26562v-5.5c0-0.26562 0-0.73438 1.0312-0.73438v-0.3125c-0.35938 0.015625-0.84375 0.03125-1.1719 0.03125s-0.8125-0.015625-1.1562-0.03125v0.3125c1.0156 0 1.0156 0.46875 1.0156 0.73438v4.2656z"/>
</g>
<g id="f">
<path d="m1.1094-2.5156c0.0625-1.4844 0.90625-1.7344 1.25-1.7344 1.0156 0 1.125 1.3438 1.125 1.7344zm0 0.21875h2.7812c0.21875 0 0.25 0 0.25-0.21875 0-0.98438-0.54688-1.9531-1.7812-1.9531-1.1562 0-2.0781 1.0312-2.0781 2.2812 0 1.3281 1.0469 2.2969 2.1875 2.2969 1.2188 0 1.6719-1.1094 1.6719-1.2969 0-0.09375-0.078125-0.125-0.14062-0.125-0.078125 0-0.10938 0.0625-0.125 0.14062-0.34375 1.0312-1.25 1.0312-1.3438 1.0312-0.5 0-0.89062-0.29688-1.125-0.67188-0.29688-0.46875-0.29688-1.125-0.29688-1.4844z"/>
</g>
<g id="h">
<path d="m1.7188-3.9844h1.4375v-0.3125h-1.4375v-1.8281h-0.25c0 0.8125-0.29688 1.875-1.2812 1.9219v0.21875h0.84375v2.75c0 1.2188 0.9375 1.3438 1.2969 1.3438 0.70312 0 0.98438-0.70312 0.98438-1.3438v-0.5625h-0.25v0.54688c0 0.73438-0.29688 1.1094-0.67188 1.1094-0.67188 0-0.67188-0.90625-0.67188-1.0781z"/>
</g>
<g id="n">
<path d="m3.8906-4c0.09375-0.10938 0.09375-0.125 0.09375-0.17188 0-0.125-0.09375-0.125-0.26562-0.125h-3.1875l-0.10938 1.6094h0.25c0.0625-1.0156 0.25-1.3906 1.3438-1.3906h1.1406l-2.7812 3.7656c-0.09375 0.10938-0.09375 0.125-0.09375 0.17188 0 0.14062 0.0625 0.14062 0.25 0.14062h3.2969l0.17188-1.8594h-0.25c-0.09375 1.1719-0.29688 1.6094-1.4531 1.6094h-1.1875z"/>
</g>
<g id="u">
<path d="m6.1719-3.3438c0.17188-0.5 0.48438-0.64062 0.84375-0.64062v-0.3125c-0.23438 0.015625-0.51562 0.03125-0.73438 0.03125-0.29688 0-0.73438-0.015625-0.92188-0.03125v0.3125c0.35938 0 0.57812 0.1875 0.57812 0.46875 0 0.0625 0 0.09375-0.0625 0.21875l-0.90625 2.5469-0.98438-2.7812c-0.03125-0.125-0.046875-0.14062-0.046875-0.1875 0-0.26562 0.39062-0.26562 0.59375-0.26562v-0.3125c-0.29688 0.015625-0.79688 0.03125-1.0469 0.03125-0.29688 0-0.57812-0.015625-0.875-0.03125v0.3125c0.35938 0 0.51562 0.015625 0.625 0.14062 0.046875 0.0625 0.15625 0.35938 0.21875 0.54688l-0.84375 2.4219-0.95312-2.6562c-0.046875-0.125-0.046875-0.14062-0.046875-0.1875 0-0.26562 0.39062-0.26562 0.57812-0.26562v-0.3125c-0.29688 0.015625-0.85938 0.03125-1.0781 0.03125-0.046875 0-0.57812-0.015625-0.9375-0.03125v0.3125c0.5 0 0.625 0.03125 0.75 0.34375l1.25 3.5312c0.046875 0.14062 0.078125 0.21875 0.20312 0.21875 0.14062 0 0.15625-0.0625 0.20312-0.20312l1.0156-2.8125 1.0156 2.8281c0.03125 0.10938 0.0625 0.1875 0.20312 0.1875 0.125 0 0.15625-0.09375 0.1875-0.1875z"/>
</g>
<g id="i">
<path d="m1.6719-3.3125v-1.0938l-1.3906 0.10938v0.3125c0.70312 0 0.78125 0.0625 0.78125 0.5625v2.6719c0 0.4375-0.10938 0.4375-0.78125 0.4375v0.3125c0.39062-0.015625 0.85938-0.03125 1.1406-0.03125 0.39062 0 0.85938 0 1.2656 0.03125v-0.3125h-0.21875c-0.73438 0-0.75-0.10938-0.75-0.46875v-1.5312c0-0.98438 0.42188-1.875 1.1719-1.875 0.0625 0 0.09375 0 0.10938 0.015625-0.03125 0-0.23438 0.125-0.23438 0.39062s0.21875 0.42188 0.4375 0.42188c0.17188 0 0.42188-0.125 0.42188-0.4375s-0.3125-0.60938-0.73438-0.60938c-0.73438 0-1.0938 0.67188-1.2188 1.0938z"/>
</g>
<g id="t">
<path d="m1.0625-0.75c0 0.4375-0.10938 0.4375-0.78125 0.4375v0.3125c0.32812-0.015625 0.79688-0.03125 1.0781-0.03125 0.3125 0 0.70312 0.015625 1.1094 0.03125v-0.3125c-0.67188 0-0.78125 0-0.78125-0.4375v-1.0312l0.64062-0.54688c0.76562 1.0469 1.1875 1.6094 1.1875 1.7969s-0.17188 0.21875-0.35938 0.21875v0.3125c0.26562-0.015625 0.85938-0.03125 1.0781-0.03125 0.28125 0 0.57812 0.015625 0.85938 0.03125v-0.3125c-0.375 0-0.59375 0-0.96875-0.53125l-1.2656-1.7812c-0.015625-0.015625-0.0625-0.078125-0.0625-0.10938s0.71875-0.64062 0.8125-0.71875c0.625-0.5 1.0469-0.53125 1.25-0.53125v-0.3125c-0.28125 0.03125-0.40625 0.03125-0.6875 0.03125-0.35938 0-0.98438-0.015625-1.125-0.03125v0.3125c0.1875 0 0.29688 0.10938 0.29688 0.25 0 0.20312-0.14062 0.3125-0.21875 0.39062l-1.4062 1.2031v-4.7812l-1.4375 0.10938v0.3125c0.70312 0 0.78125 0.0625 0.78125 0.5625z"/>
</g>
<g id="s">
<path d="m6.1094-6.0312c0-0.35938 0.015625-0.46875 0.78125-0.46875h0.25v-0.3125c-0.35938 0.03125-1.0938 0.03125-1.4688 0.03125s-1.125 0-1.4688-0.03125v0.3125h0.23438c0.76562 0 0.78125 0.10938 0.78125 0.46875v2.3281h-2.9688v-2.3281c0-0.35938 0.015625-0.46875 0.78125-0.46875h0.23438v-0.3125c-0.34375 0.03125-1.0781 0.03125-1.4688 0.03125-0.375 0-1.125 0-1.4688-0.03125v0.3125h0.23438c0.76562 0 0.79688 0.10938 0.79688 0.46875v5.25c0 0.35938-0.03125 0.46875-0.79688 0.46875h-0.23438v0.3125c0.34375-0.03125 1.0938-0.03125 1.4688-0.03125s1.125 0 1.4688 0.03125v-0.3125h-0.23438c-0.76562 0-0.78125-0.10938-0.78125-0.46875v-2.6094h2.9688v2.6094c0 0.35938-0.015625 0.46875-0.78125 0.46875h-0.23438v0.3125c0.34375-0.03125 1.0781-0.03125 1.4531-0.03125 0.39062 0 1.125 0 1.4844 0.03125v-0.3125h-0.25c-0.76562 0-0.78125-0.10938-0.78125-0.46875z"/>
</g>
<g id="r">
<path d="m4.6875-2.1406c0-1.2656-0.98438-2.3281-2.1875-2.3281-1.25 0-2.2188 1.0938-2.2188 2.3281 0 1.2969 1.0312 2.25 2.2031 2.25 1.2031 0 2.2031-0.98438 2.2031-2.25zm-2.1875 2c-0.4375 0-0.875-0.20312-1.1406-0.67188-0.25-0.4375-0.25-1.0469-0.25-1.4062 0-0.39062 0-0.92188 0.23438-1.3594 0.26562-0.45312 0.73438-0.67188 1.1406-0.67188 0.4375 0 0.85938 0.21875 1.125 0.65625 0.26562 0.42188 0.26562 1 0.26562 1.375 0 0.35938 0 0.90625-0.21875 1.3438-0.23438 0.45312-0.67188 0.73438-1.1562 0.73438z"/>
</g>
<g id="as">
<path d="m2.2188-3.6562v-2.4375c0-0.34375 0.015625-0.40625 0.48438-0.40625h1.2344c0.96875 0 1.3125 0.84375 1.3125 1.375 0 0.64062-0.48438 1.4688-1.5938 1.4688zm2.3438 0.09375c0.96875-0.1875 1.6562-0.82812 1.6562-1.5625 0-0.85938-0.92188-1.6875-2.2188-1.6875h-3.6406v0.3125h0.23438c0.76562 0 0.79688 0.10938 0.79688 0.46875v5.25c0 0.35938-0.03125 0.46875-0.79688 0.46875h-0.23438v0.3125h3.9062c1.3281 0 2.2188-0.89062 2.2188-1.8281 0-0.85938-0.8125-1.6094-1.9219-1.7344zm-0.60938 3.25h-1.25c-0.46875 0-0.48438-0.0625-0.48438-0.39062v-2.7188h1.875c0.98438 0 1.4062 0.92188 1.4062 1.5938 0 0.70312-0.53125 1.5156-1.5469 1.5156z"/>
</g>
<g id="ar">
<path d="m0.5625-3.4062c0 2.0625 1.6094 3.625 3.4688 3.625 1.625 0 2.5938-1.3906 2.5938-2.5469 0-0.09375 0-0.17188-0.125-0.17188-0.10938 0-0.10938 0.0625-0.125 0.17188-0.078125 1.4219-1.1406 2.2344-2.2344 2.2344-0.60938 0-2.5625-0.32812-2.5625-3.3125 0-2.9688 1.9531-3.3125 2.5625-3.3125 1.0781 0 1.9688 0.90625 2.1719 2.3594 0.015625 0.14062 0.015625 0.17188 0.15625 0.17188 0.15625 0 0.15625-0.03125 0.15625-0.23438v-2.3594c0-0.17188 0-0.25-0.10938-0.25-0.03125 0-0.078125 0-0.15625 0.125l-0.5 0.73438c-0.35938-0.35938-0.875-0.85938-1.8281-0.85938-1.875 0-3.4688 1.5938-3.4688 3.625z"/>
</g>
<g id="aq">
<path d="m0.34375-6.8125v0.3125h0.25c0.76562 0 0.78125 0.10938 0.78125 0.46875v5.25c0 0.35938-0.015625 0.46875-0.78125 0.46875h-0.25v0.3125h3.6562c1.6719 0 3.0469-1.4688 3.0469-3.3438 0-1.9062-1.3438-3.4688-3.0469-3.4688zm2.375 6.5c-0.46875 0-0.48438-0.0625-0.48438-0.39062v-5.3906c0-0.34375 0.015625-0.40625 0.48438-0.40625h1c0.625 0 1.3125 0.21875 1.8125 0.92188 0.4375 0.59375 0.51562 1.4531 0.51562 2.2344 0 1.0938-0.1875 1.7031-0.54688 2.1875-0.20312 0.26562-0.76562 0.84375-1.7656 0.84375z"/>
</g>
<g id="ap">
<path d="m1.3594-0.78125c0 0.35938-0.03125 0.46875-0.79688 0.46875h-0.23438v0.3125h5.75l0.42188-2.5781h-0.25c-0.25 1.5469-0.48438 2.2656-2.1875 2.2656h-1.3281c-0.46875 0-0.48438-0.0625-0.48438-0.39062v-2.6719h0.89062c0.96875 0 1.0781 0.32812 1.0781 1.1719h0.25v-2.6406h-0.25c0 0.85938-0.10938 1.1719-1.0781 1.1719h-0.89062v-2.4062c0-0.32812 0.015625-0.39062 0.48438-0.39062h1.2812c1.5312 0 1.7969 0.54688 1.9531 1.9375h0.25l-0.28125-2.25h-5.6094v0.3125h0.23438c0.76562 0 0.79688 0.10938 0.79688 0.46875z"/>
</g>
<g id="ao">
<path d="m2.4062-6.5938c-0.09375-0.21875-0.125-0.21875-0.35938-0.21875h-1.6719v0.3125h0.23438c0.76562 0 0.78125 0.10938 0.78125 0.46875v4.9844c0 0.26562 0 0.73438-1.0156 0.73438v0.3125c0.34375-0.015625 0.82812-0.03125 1.1562-0.03125s0.82812 0.015625 1.1719 0.03125v-0.3125c-1.0312 0-1.0312-0.46875-1.0312-0.73438v-5.375h0.015625l2.4062 6.2031c0.046875 0.125 0.09375 0.21875 0.1875 0.21875 0.10938 0 0.14062-0.078125 0.1875-0.1875l2.4531-6.3125v5.7188c0 0.35938-0.015625 0.46875-0.78125 0.46875h-0.23438v0.3125c0.35938-0.03125 1.0469-0.03125 1.4375-0.03125 0.375 0 1.0469 0 1.4219 0.03125v-0.3125h-0.25c-0.76562 0-0.78125-0.10938-0.78125-0.46875v-5.25c0-0.35938 0.015625-0.46875 0.78125-0.46875h0.25v-0.3125h-1.6875c-0.26562 0-0.26562 0.015625-0.32812 0.1875l-2.1875 5.625z"/>
</g>
<g id="m">
<path d="m3.8906-0.78125v0.89062l1.4375-0.10938v-0.3125c-0.6875 0-0.76562-0.0625-0.76562-0.5625v-3.5312l-1.4688 0.10938v0.3125c0.6875 0 0.78125 0.0625 0.78125 0.5625v1.7656c0 0.875-0.48438 1.5469-1.2188 1.5469-0.82812 0-0.875-0.46875-0.875-0.98438v-3.3125l-1.4688 0.10938v0.3125c0.78125 0 0.78125 0.03125 0.78125 0.90625v1.5c0 0.78125 0 1.6875 1.5156 1.6875 0.5625 0 1-0.28125 1.2812-0.89062z"/>
</g>
<g id="an">
<path d="m1.7656-6.9219-1.4375 0.10938v0.3125c0.70312 0 0.78125 0.0625 0.78125 0.5625v5.1875c0 0.4375-0.10938 0.4375-0.78125 0.4375v0.3125c0.32812-0.015625 0.85938-0.03125 1.1094-0.03125s0.73438 0.015625 1.1094 0.03125v-0.3125c-0.67188 0-0.78125 0-0.78125-0.4375z"/>
</g>
<g id="am">
<path d="m1.1719-2.1719c0-1.625 0.8125-2.0469 1.3438-2.0469 0.09375 0 0.71875 0.015625 1.0625 0.375-0.40625 0.03125-0.46875 0.32812-0.46875 0.45312 0 0.26562 0.1875 0.45312 0.45312 0.45312s0.46875-0.15625 0.46875-0.46875c0-0.67188-0.76562-1.0625-1.5312-1.0625-1.25 0-2.1562 1.0781-2.1562 2.3125 0 1.2812 0.98438 2.2656 2.1406 2.2656 1.3281 0 1.6562-1.2031 1.6562-1.2969s-0.10938-0.09375-0.14062-0.09375c-0.078125 0-0.10938 0.03125-0.125 0.09375-0.28125 0.92188-0.9375 1.0469-1.2969 1.0469-0.53125 0-1.4062-0.42188-1.4062-2.0312z"/>
</g>
<g id="y">
<path d="m3.3125-0.75c0.046875 0.39062 0.3125 0.8125 0.78125 0.8125 0.21875 0 0.82812-0.14062 0.82812-0.95312v-0.5625h-0.25v0.5625c0 0.57812-0.25 0.64062-0.35938 0.64062-0.32812 0-0.375-0.45312-0.375-0.5v-1.9844c0-0.42188 0-0.8125-0.35938-1.1875-0.39062-0.39062-0.89062-0.54688-1.3594-0.54688-0.82812 0-1.5156 0.46875-1.5156 1.125 0 0.29688 0.20312 0.46875 0.46875 0.46875 0.28125 0 0.45312-0.20312 0.45312-0.45312 0-0.125-0.046875-0.45312-0.51562-0.45312 0.28125-0.35938 0.76562-0.46875 1.0781-0.46875 0.5 0 1.0625 0.39062 1.0625 1.2812v0.35938c-0.51562 0.03125-1.2031 0.0625-1.8281 0.35938-0.75 0.34375-1 0.85938-1 1.2969 0 0.8125 0.96875 1.0625 1.5938 1.0625 0.65625 0 1.1094-0.40625 1.2969-0.85938zm-0.0625-1.6406v1c0 0.9375-0.71875 1.2812-1.1719 1.2812-0.48438 0-0.89062-0.34375-0.89062-0.84375 0-0.54688 0.42188-1.375 2.0625-1.4375z"/>
</g>
<g id="al">
<path d="m2.75-1.8594v-0.57812h-2.6406v0.57812z"/>
</g>
<g id="ak">
<path d="m3.7812-0.54688v0.65625l1.4688-0.10938v-0.3125c-0.6875 0-0.78125-0.0625-0.78125-0.5625v-6.0469l-1.4219 0.10938v0.3125c0.6875 0 0.76562 0.0625 0.76562 0.5625v2.1562c-0.28125-0.35938-0.71875-0.625-1.25-0.625-1.1719 0-2.2188 0.98438-2.2188 2.2656 0 1.2656 0.96875 2.25 2.1094 2.25 0.64062 0 1.0781-0.34375 1.3281-0.65625zm0-2.6719v2.0469c0 0.17188 0 0.1875-0.10938 0.35938-0.29688 0.48438-0.73438 0.70312-1.1719 0.70312-0.45312 0-0.8125-0.26562-1.0469-0.64062-0.25-0.40625-0.28125-0.96875-0.28125-1.3906 0-0.35938 0.015625-0.95312 0.29688-1.4062 0.21875-0.3125 0.59375-0.64062 1.1406-0.64062 0.34375 0 0.76562 0.15625 1.0625 0.59375 0.10938 0.17188 0.10938 0.1875 0.10938 0.375z"/>
</g>
<g id="aj">
<path d="m1.625-4.5625c-0.45312-0.29688-0.5-0.625-0.5-0.79688 0-0.60938 0.65625-1.0312 1.3594-1.0312 0.71875 0 1.3594 0.51562 1.3594 1.2344 0 0.57812-0.39062 1.0469-0.98438 1.3906zm1.4531 0.95312c0.71875-0.375 1.2031-0.89062 1.2031-1.5469 0-0.92188-0.875-1.4844-1.7812-1.4844-1 0-1.8125 0.73438-1.8125 1.6719 0 0.17188 0.015625 0.625 0.4375 1.0938 0.10938 0.10938 0.48438 0.35938 0.73438 0.53125-0.57812 0.29688-1.4375 0.84375-1.4375 1.8438 0 1.0469 1.0156 1.7188 2.0625 1.7188 1.125 0 2.0781-0.82812 2.0781-1.8906 0-0.35938-0.10938-0.8125-0.5-1.2344-0.1875-0.20312-0.34375-0.29688-0.98438-0.70312zm-1 0.42188 1.2344 0.78125c0.28125 0.1875 0.75 0.48438 0.75 1.0938 0 0.73438-0.75 1.25-1.5625 1.25-0.85938 0-1.5781-0.60938-1.5781-1.4375 0-0.57812 0.3125-1.2188 1.1562-1.6875z"/>
</g>
<g id="ai">
<path d="m2.2344-3.5156v-2.5781c0-0.23438 0-0.35938 0.21875-0.39062 0.09375-0.015625 0.39062-0.015625 0.59375-0.015625 0.89062 0 2 0.046875 2 1.4844 0 0.6875-0.23438 1.5-1.7031 1.5zm2.1094 0.125c0.95312-0.23438 1.7344-0.84375 1.7344-1.625 0-0.95312-1.1406-1.7969-2.5938-1.7969h-3.1406v0.3125h0.25c0.76562 0 0.78125 0.10938 0.78125 0.46875v5.25c0 0.35938-0.015625 0.46875-0.78125 0.46875h-0.25v0.3125c0.35938-0.03125 1.0781-0.03125 1.4531-0.03125 0.39062 0 1.1094 0 1.4688 0.03125v-0.3125h-0.25c-0.76562 0-0.78125-0.10938-0.78125-0.46875v-2.5156h1.1406c0.15625 0 0.57812 0 0.9375 0.34375 0.375 0.34375 0.375 0.65625 0.375 1.3281 0 0.64062 0 1.0469 0.40625 1.4219 0.40625 0.35938 0.95312 0.42188 1.25 0.42188 0.78125 0 0.95312-0.8125 0.95312-1.0938 0-0.0625 0-0.17188-0.125-0.17188-0.10938 0-0.10938 0.09375-0.125 0.15625-0.0625 0.71875-0.40625 0.89062-0.65625 0.89062-0.48438 0-0.5625-0.51562-0.70312-1.4375l-0.14062-0.79688c-0.17188-0.64062-0.65625-0.96875-1.2031-1.1562z"/>
</g>
<g id="ah">
<path d="m4.1406-3.3125c0.09375-0.23438 0.26562-0.67188 0.92188-0.67188v-0.3125c-0.23438 0.015625-0.51562 0.03125-0.75 0.03125s-0.6875-0.015625-0.85938-0.03125v0.3125c0.35938 0 0.46875 0.23438 0.46875 0.42188 0 0.09375-0.015625 0.14062-0.046875 0.25l-1.0312 2.5312-1.1094-2.7812c-0.0625-0.125-0.0625-0.14062-0.0625-0.17188 0-0.25 0.39062-0.25 0.57812-0.25v-0.3125c-0.3125 0.015625-0.85938 0.03125-1.0938 0.03125-0.26562 0-0.67188-0.015625-0.96875-0.03125v0.3125c0.625 0 0.67188 0.0625 0.79688 0.35938l1.4375 3.5469c0.0625 0.14062 0.078125 0.1875 0.20312 0.1875 0.14062 0 0.17188-0.09375 0.21875-0.1875z"/>
</g>
<g id="ag">
<path d="m1.75-4.2969v-1.1562c0-0.875 0.46875-1.3594 0.90625-1.3594 0.03125 0 0.1875 0 0.32812 0.078125-0.10938 0.03125-0.29688 0.17188-0.29688 0.42188 0 0.21875 0.15625 0.42188 0.4375 0.42188s0.4375-0.20312 0.4375-0.4375c0-0.375-0.375-0.70312-0.90625-0.70312-0.6875 0-1.5469 0.53125-1.5469 1.5938v1.1406h-0.78125v0.3125h0.78125v3.2344c0 0.4375-0.10938 0.4375-0.76562 0.4375v0.3125c0.39062-0.015625 0.85938-0.03125 1.125-0.03125 0.40625 0 0.875 0 1.2656 0.03125v-0.3125h-0.20312c-0.73438 0-0.75-0.10938-0.75-0.46875v-3.2031h1.125v-0.3125z"/>
</g>
<g id="x">
<path d="m2.0312-6.1719c0-0.23438-0.20312-0.5-0.5-0.5-0.28125 0-0.5 0.21875-0.5 0.5s0.21875 0.5 0.5 0.5c0.29688 0 0.5-0.26562 0.5-0.5zm1.9219 0c0-0.28125-0.21875-0.5-0.5-0.5-0.29688 0-0.5 0.26562-0.5 0.5s0.20312 0.5 0.5 0.5c0.28125 0 0.5-0.21875 0.5-0.5z"/>
</g>
<g id="af">
<path d="m1.7188-3.75v-0.65625l-1.4375 0.10938v0.3125c0.70312 0 0.78125 0.0625 0.78125 0.5v4.6562c0 0.45312-0.10938 0.45312-0.78125 0.45312v0.3125c0.34375-0.015625 0.85938-0.03125 1.1094-0.03125 0.28125 0 0.78125 0.015625 1.125 0.03125v-0.3125c-0.65625 0-0.76562 0-0.76562-0.45312v-1.7656c0.046875 0.17188 0.46875 0.70312 1.2188 0.70312 1.1875 0 2.2188-0.98438 2.2188-2.2656 0-1.2656-0.95312-2.25-2.0781-2.25-0.78125 0-1.2031 0.4375-1.3906 0.65625zm0.03125 2.6094v-2.2188c0.28125-0.51562 0.76562-0.79688 1.2812-0.79688 0.73438 0 1.3281 0.875 1.3281 2 0 1.2031-0.6875 2.0469-1.4219 2.0469-0.40625 0-0.78125-0.20312-1.0469-0.60938-0.14062-0.20312-0.14062-0.21875-0.14062-0.42188z"/>
</g>
<g id="ae">
<path d="m1.0938-3.4219v2.6719c0 0.4375-0.10938 0.4375-0.78125 0.4375v0.3125c0.35938-0.015625 0.85938-0.03125 1.1406-0.03125 0.25 0 0.76562 0.015625 1.1094 0.03125v-0.3125c-0.67188 0-0.78125 0-0.78125-0.4375v-1.8438c0-1.0312 0.71875-1.5938 1.3438-1.5938 0.64062 0 0.75 0.53125 0.75 1.1094v2.3281c0 0.4375-0.10938 0.4375-0.78125 0.4375v0.3125c0.34375-0.015625 0.85938-0.03125 1.125-0.03125 0.25 0 0.78125 0.015625 1.1094 0.03125v-0.3125c-0.51562 0-0.76562 0-0.76562-0.29688v-1.9062c0-0.85938 0-1.1562-0.3125-1.5156-0.14062-0.17188-0.46875-0.375-1.0469-0.375-0.73438 0-1.2031 0.42188-1.4844 1.0469v-1.0469l-1.4062 0.10938v0.3125c0.70312 0 0.78125 0.0625 0.78125 0.5625z"/>
</g>
<g id="ad">
<path d="m2.2188-1.7188c-0.875 0-0.875-1-0.875-1.2188 0-0.26562 0.015625-0.59375 0.15625-0.84375 0.078125-0.10938 0.3125-0.39062 0.71875-0.39062 0.85938 0 0.85938 0.98438 0.85938 1.2188 0 0.26562 0 0.59375-0.15625 0.84375-0.078125 0.10938-0.3125 0.39062-0.70312 0.39062zm-1.1562 0.39062c0-0.03125 0-0.26562 0.15625-0.46875 0.39062 0.28125 0.8125 0.3125 1 0.3125 0.92188 0 1.6094-0.6875 1.6094-1.4531 0-0.375-0.15625-0.73438-0.40625-0.96875 0.35938-0.34375 0.71875-0.39062 0.89062-0.39062 0.03125 0 0.078125 0 0.10938 0.015625-0.10938 0.03125-0.17188 0.14062-0.17188 0.26562 0 0.17188 0.14062 0.28125 0.29688 0.28125 0.09375 0 0.28125-0.0625 0.28125-0.29688 0-0.17188-0.10938-0.48438-0.5-0.48438-0.20312 0-0.64062 0.0625-1.0625 0.46875-0.42188-0.32812-0.82812-0.35938-1.0469-0.35938-0.9375 0-1.625 0.6875-1.625 1.4531 0 0.4375 0.21875 0.8125 0.46875 1.0312-0.125 0.14062-0.3125 0.46875-0.3125 0.82812 0 0.3125 0.14062 0.6875 0.45312 0.89062-0.60938 0.15625-0.92188 0.59375-0.92188 0.98438 0 0.71875 0.98438 1.2656 2.2031 1.2656 1.1719 0 2.2031-0.5 2.2031-1.2812 0-0.34375-0.125-0.85938-0.64062-1.1406-0.53125-0.26562-1.1094-0.26562-1.7188-0.26562-0.25 0-0.67188 0-0.75-0.015625-0.3125-0.046875-0.51562-0.34375-0.51562-0.67188zm1.4375 3.1562c-1.0156 0-1.7031-0.51562-1.7031-1.0469 0-0.45312 0.375-0.82812 0.8125-0.84375h0.59375c0.85938 0 1.9688 0 1.9688 0.84375 0 0.54688-0.70312 1.0469-1.6719 1.0469z"/>
</g>
<clipPath id="bj">
<path d="m30 3h93v2h-93z"/>
</clipPath>
<clipPath id="bi">
<path d="m-1.4727 224.08h353v-225h-353zm31.43-219.79v-0.44141l5.2617-1.668-0.94531 1.8906 0.94531 1.8867z" clip-rule="evenodd"/>
</clipPath>
<clipPath id="bh">
<path d="m164 3h94v2h-94z"/>
</clipPath>
<clipPath id="bg">
<path d="m-1.4727 224.08h353v-225h-353zm258.67-220.23v0.44141l-5.2617 1.668 0.94531-1.8867-0.94531-1.8906z" clip-rule="evenodd"/>
</clipPath>
</defs>
<path transform="matrix(.1 0 0 -.1 -1.472 224.08)" d="m883.51 2058.4v-141.76h566.99v141.76" fill="none" stroke="#000" stroke-miterlimit="10" stroke-width="2.3625"/>
<path transform="matrix(.1 0 0 -.1 -1.472 224.08)" d="m1450.5 2058.4v-141.76h566.99v141.76" fill="none" stroke="#000" stroke-miterlimit="10" stroke-width="2.3625"/>
<path transform="matrix(.1 0 0 -.1 -1.472 224.08)" d="m2017.5 2058.4v-141.76h566.99v141.76" fill="none" stroke="#000" stroke-miterlimit="10" stroke-width="2.3625"/>
<path transform="matrix(.1 0 0 -.1 -1.472 224.08)" d="m387.38 1987.5v-70.859" fill="none" stroke="#000" stroke-miterlimit="10" stroke-width="2.3625"/>
<path transform="matrix(.1 0 0 -.1 -1.472 224.08)" d="m458.24 1987.5v-70.859" fill="none" stroke="#000" stroke-miterlimit="10" stroke-width="2.3625"/>
<path transform="matrix(.1 0 0 -.1 -1.472 224.08)" d="m529.13 1987.5v-70.859" fill="none" stroke="#000" stroke-miterlimit="10" stroke-width="2.3625"/>
<path transform="matrix(.1 0 0 -.1 -1.472 224.08)" d="m599.99 1987.5v-70.859" fill="none" stroke="#000" stroke-miterlimit="10" stroke-width="2.3625"/>
<path transform="matrix(.1 0 0 -.1 -1.472 224.08)" d="m670.89 1987.5v-70.859" fill="none" stroke="#000" stroke-miterlimit="10" stroke-width="2.3625"/>
<path transform="matrix(.1 0 0 -.1 -1.472 224.08)" d="m741.75 1987.5v-70.859" fill="none" stroke="#000" stroke-miterlimit="10" stroke-width="2.3625"/>
<path transform="matrix(.1 0 0 -.1 -1.472 224.08)" d="m812.61 1987.5v-70.859" fill="none" stroke="#000" stroke-miterlimit="10" stroke-width="2.3625"/>
<path transform="matrix(.1 0 0 -.1 -1.472 224.08)" d="m954.37 1987.5v-70.859" fill="none" stroke="#000" stroke-miterlimit="10" stroke-width="2.3625"/>
<path transform="matrix(.1 0 0 -.1 -1.472 224.08)" d="m1025.3 1987.5v-70.859" fill="none" stroke="#000" stroke-miterlimit="10" stroke-width="2.3625"/>
<path transform="matrix(.1 0 0 -.1 -1.472 224.08)" d="m1096.1 1987.5v-70.859" fill="none" stroke="#000" stroke-miterlimit="10" stroke-width="2.3625"/>
<path transform="matrix(.1 0 0 -.1 -1.472 224.08)" d="m1167 1987.5v-70.859" fill="none" stroke="#000" stroke-miterlimit="10" stroke-width="2.3625"/>
<path transform="matrix(.1 0 0 -.1 -1.472 224.08)" d="m1237.9 1987.5v-70.859" fill="none" stroke="#000" stroke-miterlimit="10" stroke-width="2.3625"/>
<path transform="matrix(.1 0 0 -.1 -1.472 224.08)" d="m1308.7 1987.5v-70.859" fill="none" stroke="#000" stroke-miterlimit="10" stroke-width="2.3625"/>
<path transform="matrix(.1 0 0 -.1 -1.472 224.08)" d="m1379.6 1987.5v-70.859" fill="none" stroke="#000" stroke-miterlimit="10" stroke-width="2.3625"/>
<path transform="matrix(.1 0 0 -.1 -1.472 224.08)" d="m1521.4 1987.5v-70.859" fill="none" stroke="#000" stroke-miterlimit="10" stroke-width="2.3625"/>
<path transform="matrix(.1 0 0 -.1 -1.472 224.08)" d="m1592.3 1987.5v-70.859" fill="none" stroke="#000" stroke-miterlimit="10" stroke-width="2.3625"/>
<path transform="matrix(.1 0 0 -.1 -1.472 224.08)" d="m1663.1 1987.5v-70.859" fill="none" stroke="#000" stroke-miterlimit="10" stroke-width="2.3625"/>
<path transform="matrix(.1 0 0 -.1 -1.472 224.08)" d="m1734 1987.5v-70.859" fill="none" stroke="#000" stroke-miterlimit="10" stroke-width="2.3625"/>
<path transform="matrix(.1 0 0 -.1 -1.472 224.08)" d="m1804.9 1987.5v-70.859" fill="none" stroke="#000" stroke-miterlimit="10" stroke-width="2.3625"/>
<path transform="matrix(.1 0 0 -.1 -1.472 224.08)" d="m1875.7 1987.5v-70.859" fill="none" stroke="#000" stroke-miterlimit="10" stroke-width="2.3625"/>
<path transform="matrix(.1 0 0 -.1 -1.472 224.08)" d="m1946.6 1987.5v-70.859" fill="none" stroke="#000" stroke-miterlimit="10" stroke-width="2.3625"/>
<path transform="matrix(.1 0 0 -.1 -1.472 224.08)" d="m2088.4 1987.5v-70.859" fill="none" stroke="#000" stroke-miterlimit="10" stroke-width="2.3625"/>
<path transform="matrix(.1 0 0 -.1 -1.472 224.08)" d="m2159.3 1987.5v-70.859" fill="none" stroke="#000" stroke-miterlimit="10" stroke-width="2.3625"/>
<path transform="matrix(.1 0 0 -.1 -1.472 224.08)" d="m2230.1 1987.5v-70.859" fill="none" stroke="#000" stroke-miterlimit="10" stroke-width="2.3625"/>
<path transform="matrix(.1 0 0 -.1 -1.472 224.08)" d="m2301 1987.5v-70.859" fill="none" stroke="#000" stroke-miterlimit="10" stroke-width="2.3625"/>
<path transform="matrix(.1 0 0 -.1 -1.472 224.08)" d="m2371.9 1987.5v-70.859" fill="none" stroke="#000" stroke-miterlimit="10" stroke-width="2.3625"/>
<path transform="matrix(.1 0 0 -.1 -1.472 224.08)" d="m2442.8 1987.5v-70.859" fill="none" stroke="#000" stroke-miterlimit="10" stroke-width="2.3625"/>
<path transform="matrix(.1 0 0 -.1 -1.472 224.08)" d="m2513.6 1987.5v-70.859" fill="none" stroke="#000" stroke-miterlimit="10" stroke-width="2.3625"/>
<g clip-path="url(#bj)">
<g clip-path="url(#bi)">
<path transform="matrix(.1 0 0 -.1 -1.472 224.08)" d="m316.52 2200.1h921.37" fill="none" stroke="#000" stroke-miterlimit="10" stroke-width="2.3625"/>
</g>
</g>
<path d="m35.219 2.1758-4.7266 1.8906 4.7266 1.8867-0.94531-1.8867 0.94531-1.8906" fill-rule="evenodd"/>
<path transform="matrix(.1 0 0 -.1 -1.472 224.08)" d="m366.91 2219-47.266-18.906 47.266-18.867-9.4531 18.867z" fill="none" stroke="#000" stroke-miterlimit="10" stroke-width="2.3625"/>
<g clip-path="url(#bh)">
<g clip-path="url(#bg)">
<path transform="matrix(.1 0 0 -.1 -1.472 224.08)" d="m2584.5 2200.1h-921.37" fill="none" stroke="#000" stroke-miterlimit="10" stroke-width="2.3625"/>
</g>
</g>
<path d="m251.94 5.9531 4.7266-1.8867-4.7266-1.8906 0.94531 1.8906-0.94531 1.8867" fill-rule="evenodd"/>
<path transform="matrix(.1 0 0 -.1 -1.472 224.08)" d="m2534.1 2181.2 47.266 18.867-47.266 18.906 9.4531-18.906z" fill="none" stroke="#000" stroke-miterlimit="10" stroke-width="2.3625"/>
<path transform="matrix(.1 0 0 -.1 -1.472 224.08)" d="m316.52 1066.1h2268v212.62h-2268z" fill="none" stroke="#000" stroke-miterlimit="10" stroke-width="2.3625"/>
<path transform="matrix(.1 0 0 -.1 -1.472 224.08)" d="m316.52 711.76h2268v212.62h-2268z" fill="none" stroke="#000" stroke-miterlimit="10" stroke-width="2.3625"/>
<path transform="matrix(.1 0 0 -.1 -1.472 224.08)" d="m316.52 357.38h2268v212.62h-2268z" fill="none" stroke="#000" stroke-miterlimit="10" stroke-width="2.3625"/>
<path transform="matrix(.1 0 0 -.1 -1.472 224.08)" d="m316.52 3.0066h2268v212.62h-2268z" fill="none" stroke="#000" stroke-miterlimit="10" stroke-width="2.3625"/>
<path transform="matrix(.1 0 0 -.1 -1.472 224.08)" d="m387.38 1633.1v-212.62" fill="none" stroke="#000" stroke-miterlimit="10" stroke-width="2.3625"/>
<path transform="matrix(.1 0 0 -.1 -1.472 224.08)" d="m883.51 1633.1v-212.62" fill="none" stroke="#000" stroke-miterlimit="10" stroke-width="2.3625"/>
<path transform="matrix(.1 0 0 -.1 -1.472 224.08)" d="m316.52 1420.5h2268v212.62h-2268z" fill="none" stroke="#000" stroke-miterlimit="10" stroke-width="2.3625"/>
<path transform="matrix(.1 0 0 -.1 -1.472 224.08)" d="m458.24 1278.7v-212.62" fill="none" stroke="#000" stroke-miterlimit="10" stroke-width="2.3625"/>
<path transform="matrix(.1 0 0 -.1 -1.472 224.08)" d="m1450.5 1278.7v-212.62" fill="none" stroke="#000" stroke-miterlimit="10" stroke-width="2.3625"/>
<path transform="matrix(.1 0 0 -.1 -1.472 224.08)" d="m2017.5 924.37v-212.62" fill="none" stroke="#000" stroke-miterlimit="10" stroke-width="2.3625"/>
<path transform="matrix(.1 0 0 -.1 -1.472 224.08)" d="m529.13 924.37v-212.62" fill="none" stroke="#000" stroke-miterlimit="10" stroke-width="2.3625"/>
<path transform="matrix(.1 0 0 -.1 -1.472 224.08)" d="m599.99 570v-212.62" fill="none" stroke="#000" stroke-miterlimit="10" stroke-width="2.3625"/>
<path transform="matrix(.1 0 0 -.1 -1.472 224.08)" d="m670.89 215.62v-212.62" fill="none" stroke="#000" stroke-miterlimit="10" stroke-width="2.3625"/>
<path transform="matrix(.1 0 0 -.1 -1.472 224.08)" d="m316.52 2058.4v-141.76h566.99v141.76" fill="none" stroke="#000" stroke-miterlimit="10" stroke-width="2.3625"/>
<g>
<use x="264.026" y="46.523" xlink:href="#bf"/>
<use x="272.801117" y="46.523" xlink:href="#aw"/>
<use x="279.304746" y="46.523" xlink:href="#ac"/>
<use x="283.857286" y="46.523" xlink:href="#l"/>
<use x="289.060189" y="46.523" xlink:href="#p"/>
<use x="293.677287" y="46.523" xlink:href="#p"/>
<use x="298.294385" y="46.523" xlink:href="#l"/>
<use x="303.497288" y="46.523" xlink:href="#av"/>
<use x="309.678127" y="46.523" xlink:href="#au"/>
<use x="316.504546" y="46.523" xlink:href="#l"/>
<use x="321.707449" y="46.523" xlink:href="#ac"/>
<use x="326.259989" y="46.523" xlink:href="#l"/>
<use x="331.462892" y="46.523" xlink:href="#ab"/>
<use x="334.714707" y="46.523" xlink:href="#at"/>
<use x="339.594819" y="46.523" xlink:href="#be"/>
<use x="127.695" y="8.253" xlink:href="#bd"/>
<use x="133.548266" y="8.253" xlink:href="#bc"/>
<use x="143.298927" y="8.253" xlink:href="#bb"/>
<use x="151.588663" y="8.253" xlink:href="#ab"/>
<use x="154.840477" y="8.253" xlink:href="#ba"/>
<use x="-0.343" y="46.523" xlink:href="#az"/>
<use x="8.757298" y="46.523" xlink:href="#ay"/>
<use x="12.009113" y="46.523" xlink:href="#ax"/>
<use x="17.862379" y="46.523" xlink:href="#p"/>
<use x="22.479477" y="46.523" xlink:href="#p"/>
<use x="27.096575" y="46.523" xlink:href="#l"/>
<use x="12.242" y="74.871" xlink:href="#aa"/>
<use x="30.812" y="110.307" xlink:href="#e"/>
<use x="30.812" y="145.742" xlink:href="#e"/>
<use x="264.026" y="150.467" xlink:href="#c"/>
<use x="269.0073" y="150.467" xlink:href="#c"/>
<use x="273.9886" y="150.467" xlink:href="#w"/>
<use x="278.9699" y="150.467" xlink:href="#b"/>
<use x="281.73751" y="150.467" xlink:href="#c"/>
<use x="286.71881" y="150.467" xlink:href="#a"/>
<use x="291.70011" y="150.467" xlink:href="#a"/>
<use x="296.68141" y="150.467" xlink:href="#b"/>
<use x="299.449021" y="150.467" xlink:href="#c"/>
<use x="304.430321" y="150.467" xlink:href="#a"/>
<use x="309.411621" y="150.467" xlink:href="#a"/>
<use x="314.392921" y="150.467" xlink:href="#b"/>
<use x="317.160531" y="150.467" xlink:href="#c"/>
<use x="322.141831" y="150.467" xlink:href="#a"/>
<use x="327.123131" y="150.467" xlink:href="#a"/>
<use x="30.812" y="181.178" xlink:href="#e"/>
<use x="264.026" y="175.508" xlink:href="#c"/>
<use x="269.0073" y="175.508" xlink:href="#c"/>
<use x="273.9886" y="175.508" xlink:href="#q"/>
<use x="278.9699" y="175.508" xlink:href="#b"/>
<use x="281.73751" y="175.508" xlink:href="#d"/>
<use x="286.71881" y="175.508" xlink:href="#b"/>
<use x="289.486421" y="175.508" xlink:href="#d"/>
<use x="294.467721" y="175.508" xlink:href="#b"/>
<use x="297.235331" y="175.508" xlink:href="#d"/>
<use x="305.534177" y="175.508" xlink:href="#k"/>
<use x="311.069397" y="175.508" xlink:href="#j"/>
<use x="313.837007" y="175.508" xlink:href="#g"/>
<use x="264.026" y="185.902" xlink:href="#c"/>
<use x="269.0073" y="185.902" xlink:href="#w"/>
<use x="273.9886" y="185.902" xlink:href="#v"/>
<use x="278.9699" y="185.902" xlink:href="#b"/>
<use x="281.73751" y="185.902" xlink:href="#c"/>
<use x="286.71881" y="185.902" xlink:href="#a"/>
<use x="291.70011" y="185.902" xlink:href="#a"/>
<use x="296.68141" y="185.902" xlink:href="#b"/>
<use x="299.449021" y="185.902" xlink:href="#c"/>
<use x="304.430321" y="185.902" xlink:href="#a"/>
<use x="309.411621" y="185.902" xlink:href="#a"/>
<use x="314.392921" y="185.902" xlink:href="#b"/>
<use x="317.160531" y="185.902" xlink:href="#c"/>
<use x="322.141831" y="185.902" xlink:href="#a"/>
<use x="327.123131" y="185.902" xlink:href="#a"/>
<use x="30.812" y="216.613" xlink:href="#e"/>
<use x="264.026" y="210.943" xlink:href="#c"/>
<use x="269.0073" y="210.943" xlink:href="#q"/>
<use x="273.9886" y="210.943" xlink:href="#d"/>
<use x="278.9699" y="210.943" xlink:href="#b"/>
<use x="281.73751" y="210.943" xlink:href="#d"/>
<use x="286.71881" y="210.943" xlink:href="#b"/>
<use x="289.486421" y="210.943" xlink:href="#d"/>
<use x="294.467721" y="210.943" xlink:href="#b"/>
<use x="297.235331" y="210.943" xlink:href="#d"/>
<use x="305.534177" y="210.943" xlink:href="#k"/>
<use x="311.069397" y="210.943" xlink:href="#j"/>
<use x="313.837007" y="210.943" xlink:href="#g"/>
<use x="264.026" y="221.338" xlink:href="#c"/>
<use x="269.0073" y="221.338" xlink:href="#q"/>
<use x="273.9886" y="221.338" xlink:href="#z"/>
<use x="278.9699" y="221.338" xlink:href="#b"/>
<use x="281.73751" y="221.338" xlink:href="#c"/>
<use x="286.71881" y="221.338" xlink:href="#a"/>
<use x="291.70011" y="221.338" xlink:href="#a"/>
<use x="296.68141" y="221.338" xlink:href="#b"/>
<use x="299.449021" y="221.338" xlink:href="#c"/>
<use x="304.430321" y="221.338" xlink:href="#a"/>
<use x="309.411621" y="221.338" xlink:href="#a"/>
<use x="314.392921" y="221.338" xlink:href="#b"/>
<use x="317.160531" y="221.338" xlink:href="#c"/>
<use x="322.141831" y="221.338" xlink:href="#a"/>
<use x="327.123131" y="221.338" xlink:href="#a"/>
<use x="42.399" y="74.871" xlink:href="#o"/>
<use x="49.87095" y="74.871" xlink:href="#f"/>
<use x="54.298329" y="74.871" xlink:href="#h"/>
<use x="58.172785" y="74.871" xlink:href="#n"/>
<use x="62.600164" y="74.871" xlink:href="#u"/>
<use x="69.516201" y="74.871" xlink:href="#f"/>
<use x="73.94358" y="74.871" xlink:href="#i"/>
<use x="77.845931" y="74.871" xlink:href="#t"/>
<use x="161.768881" y="74.871" xlink:href="#s"/>
<use x="169.240831" y="74.871" xlink:href="#r"/>
<use x="174.222131" y="74.871" xlink:href="#g"/>
<use x="178.15138" y="74.871" xlink:href="#h"/>
<use x="264.026" y="69.202" xlink:href="#d"/>
<use x="269.0073" y="69.202" xlink:href="#b"/>
<use x="271.77491" y="69.202" xlink:href="#d"/>
<use x="276.75621" y="69.202" xlink:href="#b"/>
<use x="279.523821" y="69.202" xlink:href="#d"/>
<use x="284.505121" y="69.202" xlink:href="#b"/>
<use x="287.272731" y="69.202" xlink:href="#d"/>
<use x="295.571577" y="69.202" xlink:href="#k"/>
<use x="301.106797" y="69.202" xlink:href="#j"/>
<use x="303.874407" y="69.202" xlink:href="#g"/>
<use x="264.026" y="79.596" xlink:href="#e"/>
<use x="269.0073" y="79.596" xlink:href="#c"/>
<use x="273.9886" y="79.596" xlink:href="#z"/>
<use x="278.9699" y="79.596" xlink:href="#b"/>
<use x="281.73751" y="79.596" xlink:href="#c"/>
<use x="286.71881" y="79.596" xlink:href="#a"/>
<use x="291.70011" y="79.596" xlink:href="#a"/>
<use x="296.68141" y="79.596" xlink:href="#b"/>
<use x="299.449021" y="79.596" xlink:href="#c"/>
<use x="304.430321" y="79.596" xlink:href="#a"/>
<use x="309.411621" y="79.596" xlink:href="#a"/>
<use x="314.392921" y="79.596" xlink:href="#b"/>
<use x="317.160531" y="79.596" xlink:href="#c"/>
<use x="322.141831" y="79.596" xlink:href="#a"/>
<use x="327.123131" y="79.596" xlink:href="#a"/>
<use x="12.45" y="110.307" xlink:href="#as"/>
<use x="12.381" y="145.742" xlink:href="#ar"/>
<use x="12.173" y="181.178" xlink:href="#aq"/>
<use x="12.588" y="216.613" xlink:href="#ap"/>
<use x="39.001" y="110.307" xlink:href="#d"/>
<use x="73.581185" y="110.307" xlink:href="#o"/>
<use x="81.053135" y="110.307" xlink:href="#f"/>
<use x="85.480514" y="110.307" xlink:href="#h"/>
<use x="89.354969" y="110.307" xlink:href="#n"/>
<use x="93.782349" y="110.307" xlink:href="#u"/>
<use x="100.698386" y="110.307" xlink:href="#f"/>
<use x="105.125765" y="110.307" xlink:href="#i"/>
<use x="109.028115" y="110.307" xlink:href="#t"/>
<use x="190.111724" y="110.307" xlink:href="#s"/>
<use x="197.583674" y="110.307" xlink:href="#r"/>
<use x="202.564974" y="110.307" xlink:href="#g"/>
<use x="206.494224" y="110.307" xlink:href="#h"/>
<use x="218.462" y="145.742" xlink:href="#s"/>
<use x="225.93395" y="145.742" xlink:href="#r"/>
<use x="230.91525" y="145.742" xlink:href="#g"/>
<use x="234.844499" y="145.742" xlink:href="#h"/>
<use x="104.428" y="181.178" xlink:href="#ao"/>
<use x="113.560715" y="181.178" xlink:href="#m"/>
<use x="119.095936" y="181.178" xlink:href="#an"/>
<use x="121.863546" y="181.178" xlink:href="#h"/>
<use x="125.738001" y="181.178" xlink:href="#j"/>
<use x="128.505612" y="181.178" xlink:href="#am"/>
<use x="132.932991" y="181.178" xlink:href="#y"/>
<use x="137.914291" y="181.178" xlink:href="#g"/>
<use x="141.843541" y="181.178" xlink:href="#h"/>
<use x="145.717996" y="181.178" xlink:href="#al"/>
<use x="149.03853" y="181.178" xlink:href="#aa"/>
<use x="156.51048" y="181.178" xlink:href="#ak"/>
<use x="162.045701" y="181.178" xlink:href="#i"/>
<use x="165.948051" y="181.178" xlink:href="#f"/>
<use x="170.375431" y="181.178" xlink:href="#g"/>
<use x="174.30468" y="181.178" xlink:href="#g"/>
<use x="178.23393" y="181.178" xlink:href="#f"/>
<use x="39.001" y="216.613" xlink:href="#e"/>
<use x="39.001" y="181.178" xlink:href="#e"/>
<use x="39.001" y="145.742" xlink:href="#e"/>
<use x="46.084409" y="145.742" xlink:href="#d"/>
<use x="46.088" y="181.178" xlink:href="#e"/>
<use x="46.088" y="216.613" xlink:href="#e"/>
<use x="53.175" y="181.178" xlink:href="#d"/>
<use x="53.175" y="216.613" xlink:href="#e"/>
<use x="60.258409" y="216.613" xlink:href="#d"/>
<use x="101.93" y="145.742" xlink:href="#o"/>
<use x="109.40195" y="145.742" xlink:href="#f"/>
<use x="113.829329" y="145.742" xlink:href="#h"/>
<use x="117.703785" y="145.742" xlink:href="#n"/>
<use x="122.131164" y="145.742" xlink:href="#u"/>
<use x="129.047201" y="145.742" xlink:href="#f"/>
<use x="133.47458" y="145.742" xlink:href="#i"/>
<use x="137.376931" y="145.742" xlink:href="#t"/>
<use x="264.026" y="104.637" xlink:href="#e"/>
<use x="269.0073" y="104.637" xlink:href="#c"/>
<use x="273.9886" y="104.637" xlink:href="#aj"/>
<use x="278.9699" y="104.637" xlink:href="#b"/>
<use x="281.73751" y="104.637" xlink:href="#d"/>
<use x="286.71881" y="104.637" xlink:href="#b"/>
<use x="289.486421" y="104.637" xlink:href="#d"/>
<use x="294.467721" y="104.637" xlink:href="#b"/>
<use x="297.235331" y="104.637" xlink:href="#d"/>
<use x="305.534177" y="104.637" xlink:href="#k"/>
<use x="311.069397" y="104.637" xlink:href="#j"/>
<use x="313.837007" y="104.637" xlink:href="#g"/>
<use x="264.026" y="115.032" xlink:href="#e"/>
<use x="269.0073" y="115.032" xlink:href="#v"/>
<use x="273.9886" y="115.032" xlink:href="#e"/>
<use x="278.9699" y="115.032" xlink:href="#b"/>
<use x="281.73751" y="115.032" xlink:href="#c"/>
<use x="286.71881" y="115.032" xlink:href="#a"/>
<use x="291.70011" y="115.032" xlink:href="#a"/>
<use x="296.68141" y="115.032" xlink:href="#b"/>
<use x="299.449021" y="115.032" xlink:href="#c"/>
<use x="304.430321" y="115.032" xlink:href="#a"/>
<use x="309.411621" y="115.032" xlink:href="#a"/>
<use x="314.392921" y="115.032" xlink:href="#b"/>
<use x="317.160531" y="115.032" xlink:href="#c"/>
<use x="322.141831" y="115.032" xlink:href="#a"/>
<use x="327.123131" y="115.032" xlink:href="#a"/>
<use x="264.026" y="140.073" xlink:href="#e"/>
<use x="269.0073" y="140.073" xlink:href="#v"/>
<use x="273.9886" y="140.073" xlink:href="#c"/>
<use x="278.9699" y="140.073" xlink:href="#b"/>
<use x="281.73751" y="140.073" xlink:href="#d"/>
<use x="286.71881" y="140.073" xlink:href="#b"/>
<use x="289.486421" y="140.073" xlink:href="#d"/>
<use x="294.467721" y="140.073" xlink:href="#b"/>
<use x="297.235331" y="140.073" xlink:href="#d"/>
<use x="305.534177" y="140.073" xlink:href="#k"/>
<use x="311.069397" y="140.073" xlink:href="#j"/>
<use x="313.837007" y="140.073" xlink:href="#g"/>
<use x="31.442" y="74.872" xlink:href="#d"/>
<use x="75.98" y="216.613" xlink:href="#ai"/>
<use x="83.31347" y="216.613" xlink:href="#f"/>
<use x="87.740849" y="216.613" xlink:href="#g"/>
<use x="91.670099" y="216.613" xlink:href="#f"/>
<use x="96.097478" y="216.613" xlink:href="#i"/>
<use x="99.999829" y="216.613" xlink:href="#ah"/>
<use x="105.258089" y="216.613" xlink:href="#j"/>
<use x="108.025699" y="216.613" xlink:href="#f"/>
<use x="112.453079" y="216.613" xlink:href="#i"/>
<use x="116.355429" y="216.613" xlink:href="#h"/>
<use x="123.54743" y="216.613" xlink:href="#ag"/>
<use x="126.872" y="217.047" xlink:href="#x"/>
<use x="126.595" y="216.613" xlink:href="#m"/>
<use x="132.130221" y="216.613" xlink:href="#i"/>
<use x="139.350117" y="216.613" xlink:href="#g"/>
<use x="143.279366" y="216.613" xlink:href="#af"/>
<use x="148.818" y="217.047" xlink:href="#x"/>
<use x="148.818" y="216.613" xlink:href="#y"/>
<use x="153.7993" y="216.613" xlink:href="#h"/>
<use x="157.673755" y="216.613" xlink:href="#f"/>
<use x="162.101135" y="216.613" xlink:href="#i"/>
<use x="166.003485" y="216.613" xlink:href="#f"/>
<use x="173.74841" y="216.613" xlink:href="#o"/>
<use x="181.22036" y="216.613" xlink:href="#m"/>
<use x="186.755581" y="216.613" xlink:href="#h"/>
<use x="190.630036" y="216.613" xlink:href="#n"/>
<use x="195.057415" y="216.613" xlink:href="#m"/>
<use x="200.592636" y="216.613" xlink:href="#ae"/>
<use x="206.127856" y="216.613" xlink:href="#ad"/>
</g>
</svg>
