<svg width="272pt" height="165pt" version="1.1" viewBox="0 0 272 165" xmlns="http://www.w3.org/2000/svg" xmlns:xlink="http://www.w3.org/1999/xlink">
<defs>
<g id="h">
<path d="m2.0312-1.3281c-0.42188 0.70312-0.82812 0.95312-1.3906 0.98438-0.14062 0.015625-0.23438 0.015625-0.23438 0.21875 0 0.078125 0.0625 0.125 0.14062 0.125 0.21875 0 0.75-0.03125 0.96875-0.03125 0.34375 0 0.73438 0.03125 1.0625 0.03125 0.078125 0 0.21875 0 0.21875-0.23438 0-0.09375-0.09375-0.10938-0.17188-0.10938-0.26562-0.03125-0.5-0.125-0.5-0.40625 0-0.17188 0.078125-0.29688 0.23438-0.5625l0.90625-1.5156h3.0469c0.015625 0.10938 0.015625 0.20312 0.015625 0.3125 0.046875 0.3125 0.1875 1.5625 0.1875 1.7812 0 0.35938-0.60938 0.39062-0.79688 0.39062-0.14062 0-0.26562 0-0.26562 0.21875 0 0.125 0.10938 0.125 0.17188 0.125 0.20312 0 0.45312-0.03125 0.65625-0.03125h0.67188c0.73438 0 1.2656 0.03125 1.2656 0.03125 0.09375 0 0.21875 0 0.21875-0.23438 0-0.10938-0.10938-0.10938-0.28125-0.10938-0.65625 0-0.67188-0.10938-0.70312-0.46875l-0.73438-7.4531c-0.03125-0.25-0.078125-0.26562-0.20312-0.26562s-0.1875 0.015625-0.29688 0.20312zm1.4375-1.8438 2.4062-4.0156 0.40625 4.0156z"/>
</g>
<g id="g">
<path d="m1.875-0.89062c-0.10938 0.42188-0.125 0.54688-0.96875 0.54688-0.21875 0-0.34375 0-0.34375 0.21875 0 0.125 0.078125 0.125 0.3125 0.125h3.7812c2.4219 0 4.7812-2.5 4.7812-5.1562 0-1.7344-1.0312-3-2.75-3h-3.8281c-0.23438 0-0.34375 0-0.34375 0.21875 0 0.125 0.10938 0.125 0.29688 0.125 0.71875 0 0.71875 0.09375 0.71875 0.21875 0 0.03125 0 0.09375-0.046875 0.28125zm2.5312-6.4531c0.09375-0.45312 0.14062-0.46875 0.60938-0.46875h1.3125c1.125 0 2.1562 0.60938 2.1562 2.25 0 0.60938-0.23438 2.6875-1.3906 4-0.34375 0.39062-1.25 1.2188-2.625 1.2188h-1.3594c-0.17188 0-0.1875 0-0.26562-0.015625-0.125-0.015625-0.14062-0.03125-0.14062-0.125s0.015625-0.15625 0.046875-0.26562z"/>
</g>
<g id="f">
<path d="m8.3125-2.7656c0-0.046875 0.046875-0.125 0.046875-0.17188 0-0.0625-0.046875-0.125-0.125-0.125-0.046875 0-0.078125 0.015625-0.10938 0.046875-0.015625 0.015625-0.015625 0.046875-0.125 0.28125-0.70312 1.6719-1.2188 2.3906-3.1406 2.3906h-1.7344c-0.17188 0-0.20312 0-0.26562-0.015625-0.14062-0.015625-0.14062-0.03125-0.14062-0.125s0.015625-0.15625 0.046875-0.26562l0.8125-3.2969h1.1875c0.9375 0 1 0.20312 1 0.5625 0 0.10938 0 0.21875-0.078125 0.57812-0.015625 0.046875-0.03125 0.09375-0.03125 0.14062 0 0.078125 0.0625 0.10938 0.125 0.10938 0.10938 0 0.125-0.078125 0.17188-0.25l0.6875-2.7656c0-0.0625-0.046875-0.125-0.125-0.125-0.10938 0-0.125 0.046875-0.17188 0.21875-0.23438 0.92188-0.46875 1.1719-1.5312 1.1719h-1.1406l0.73438-2.9375c0.10938-0.40625 0.14062-0.45312 0.625-0.45312h1.7031c1.4844 0 1.7812 0.39062 1.7812 1.3125 0 0 0 0.34375-0.046875 0.73438-0.015625 0.046875-0.03125 0.125-0.03125 0.14062 0 0.09375 0.0625 0.14062 0.14062 0.14062s0.125-0.046875 0.14062-0.26562l0.26562-2.0938c0-0.03125 0.015625-0.15625 0.015625-0.1875 0-0.125-0.10938-0.125-0.32812-0.125h-5.8281c-0.21875 0-0.34375 0-0.34375 0.21875 0 0.125 0.078125 0.125 0.28125 0.125 0.75 0 0.75 0.09375 0.75 0.21875 0 0.0625-0.015625 0.10938-0.046875 0.23438l-1.625 6.4531c-0.10938 0.42188-0.125 0.54688-0.96875 0.54688-0.21875 0-0.34375 0-0.34375 0.21875 0 0.125 0.078125 0.125 0.3125 0.125h6c0.26562 0 0.28125-0.015625 0.35938-0.20312z"/>
</g>
<g id="e">
<path d="m3.5469-3.8906h1.1562c0.90625 0 0.96875 0.20312 0.96875 0.54688 0 0.15625-0.015625 0.3125-0.078125 0.57812-0.03125 0.046875-0.03125 0.10938-0.03125 0.14062 0 0.078125 0.046875 0.125 0.125 0.125 0.09375 0 0.10938-0.046875 0.15625-0.23438l0.6875-2.7812c0-0.046875-0.03125-0.125-0.10938-0.125-0.10938 0-0.125 0.046875-0.17188 0.25-0.25 0.89062-0.48438 1.1406-1.5312 1.1406h-1.0781l0.76562-3.0938c0.10938-0.40625 0.14062-0.45312 0.625-0.45312h1.6094c1.4844 0 1.7031 0.45312 1.7031 1.2969 0 0.0625 0 0.32812-0.03125 0.64062-0.015625 0.046875-0.046875 0.20312-0.046875 0.25 0 0.09375 0.0625 0.14062 0.14062 0.14062s0.125-0.046875 0.15625-0.26562l0.25-2.0938c0-0.03125 0.015625-0.15625 0.015625-0.1875 0-0.125-0.10938-0.125-0.3125-0.125h-5.6719c-0.21875 0-0.34375 0-0.34375 0.21875 0 0.125 0.078125 0.125 0.28125 0.125 0.75 0 0.75 0.09375 0.75 0.21875 0 0.0625-0.015625 0.10938-0.046875 0.23438l-1.625 6.4531c-0.10938 0.42188-0.125 0.54688-0.96875 0.54688-0.21875 0-0.34375 0-0.34375 0.21875 0 0.125 0.10938 0.125 0.1875 0.125 0.21875 0 0.45312-0.03125 0.6875-0.03125h1.5469c0.26562 0 0.5625 0.03125 0.82812 0.03125 0.09375 0 0.25 0 0.25-0.21875 0-0.125-0.078125-0.125-0.34375-0.125-0.9375 0-0.96875-0.09375-0.96875-0.26562 0-0.0625 0.03125-0.15625 0.046875-0.23438z"/>
</g>
<g id="d">
<path d="m8.9219-8.3125c0-0.10938-0.078125-0.10938-0.09375-0.10938-0.03125 0-0.078125 0-0.17188 0.125l-0.82812 1c-0.42188-0.71875-1.0781-1.125-1.9688-1.125-2.5781 0-5.2656 2.625-5.2656 5.4375 0 2 1.4062 3.2344 3.1406 3.2344 0.96875 0 1.7969-0.40625 2.5-0.98438 1.0312-0.875 1.3438-2.0312 1.3438-2.1406 0-0.09375-0.09375-0.09375-0.125-0.09375-0.10938 0-0.125 0.0625-0.15625 0.10938-0.54688 1.875-2.1562 2.7656-3.3594 2.7656-1.2656 0-2.3594-0.8125-2.3594-2.5156 0-0.375 0.125-2.4531 1.4688-4.0312 0.65625-0.76562 1.7812-1.4219 2.9219-1.4219 1.3125 0 1.8906 1.0781 1.8906 2.2969 0 0.3125-0.03125 0.57812-0.03125 0.625 0 0.10938 0.125 0.10938 0.15625 0.10938 0.125 0 0.14062-0.015625 0.1875-0.23438z"/>
</g>
<g id="c">
<path d="m4.375-7.3438c0.10938-0.45312 0.15625-0.46875 0.625-0.46875h1.5469c1.3594 0 1.3594 1.1406 1.3594 1.25 0 0.96875-0.96875 2.2031-2.5469 2.2031h-1.7188zm2.0156 3.0781c1.3125-0.23438 2.4844-1.1562 2.4844-2.25 0-0.9375-0.8125-1.6406-2.1719-1.6406h-3.8281c-0.23438 0-0.34375 0-0.34375 0.21875 0 0.125 0.10938 0.125 0.29688 0.125 0.71875 0 0.71875 0.09375 0.71875 0.21875 0 0.03125 0 0.09375-0.046875 0.28125l-1.6094 6.4219c-0.10938 0.42188-0.14062 0.54688-0.96875 0.54688-0.23438 0-0.34375 0-0.34375 0.21875 0 0.125 0.0625 0.125 0.3125 0.125h4.0938c1.8281 0 3.2344-1.3906 3.2344-2.5938 0-0.98438-0.85938-1.5781-1.8281-1.6719zm-1.6875 3.9219h-1.625c-0.15625 0-0.1875 0-0.25-0.015625-0.14062-0.015625-0.15625-0.03125-0.15625-0.125s0.03125-0.15625 0.046875-0.26562l0.84375-3.375h2.25c1.4062 0 1.4062 1.3125 1.4062 1.4062 0 1.1562-1.0312 2.375-2.5156 2.375z"/>
</g>
<g id="a">
<path d="m3.4375-7.6562c0-0.28125 0-0.29688-0.23438-0.29688-0.28125 0.32812-0.89062 0.76562-2.1094 0.76562v0.34375c0.26562 0 0.85938 0 1.5312-0.29688v6.2188c0 0.4375-0.046875 0.57812-1.0938 0.57812h-0.375v0.34375c0.32812-0.03125 1.4844-0.03125 1.875-0.03125 0.40625 0 1.5469 0 1.875 0.03125v-0.34375h-0.375c-1.0469 0-1.0938-0.14062-1.0938-0.57812z"/>
</g>
<g id="b">
<path d="m5.2656-2.0156h-0.26562c-0.046875 0.20312-0.14062 0.875-0.25 1.0625-0.09375 0.10938-0.76562 0.10938-1.125 0.10938h-2.2188c0.32812-0.28125 1.0625-1.0469 1.3594-1.3281 1.8281-1.6719 2.5-2.2969 2.5-3.4844 0-1.375-1.0938-2.2969-2.4844-2.2969-1.375 0-2.2031 1.1875-2.2031 2.2188 0 0.60938 0.53125 0.60938 0.5625 0.60938 0.26562 0 0.5625-0.1875 0.5625-0.5625 0-0.34375-0.21875-0.5625-0.5625-0.5625-0.09375 0-0.125 0-0.15625 0.015625 0.21875-0.8125 0.875-1.375 1.6406-1.375 1.0156 0 1.6406 0.85938 1.6406 1.9531 0 1.0156-0.57812 1.9062-1.2656 2.6719l-2.4219 2.7031v0.28125h4.375z"/>
</g>
</defs>
<path transform="matrix(.1 0 0 -.1 -.472 167.18)" d="m229.37 1025 566.99 425.23" fill="none" stroke="#000" stroke-miterlimit="10" stroke-width="4.725"/>
<path transform="matrix(.1 0 0 -.1 -.472 167.18)" d="m1831.2 1450.2v-1204.9" fill="none" stroke="#000" stroke-miterlimit="10" stroke-width="4.725"/>
<path transform="matrix(.1 0 0 -.1 -.472 167.18)" d="m2497.4 812.36-566.99-566.99" fill="none" stroke="#000" stroke-miterlimit="10" stroke-width="4.725"/>
<path transform="matrix(.1 0 0 -.1 -.472 167.18)" d="m1009 131.97h708.75" fill="none" stroke="#000" stroke-miterlimit="10" stroke-width="4.725"/>
<path transform="matrix(.1 0 0 -.1 -.472 167.18)" d="m796.36 1450.2h212.66v212.62h-212.66z" fill="none" stroke="#000" stroke-miterlimit="10" stroke-width="9.45"/>
<path transform="matrix(.1 0 0 -.1 -.472 167.18)" d="m1717.8 32.747h212.62v212.62h-212.62z" fill="none" stroke="#000" stroke-miterlimit="10" stroke-width="9.45"/>
<path transform="matrix(.1 0 0 -.1 -.472 167.18)" d="m2497.4 812.36h212.62v212.66h-212.62z" fill="none" stroke="#000" stroke-miterlimit="10" stroke-width="9.45"/>
<path transform="matrix(.1 0 0 -.1 -.472 167.18)" d="m1717.8 1450.2h212.62v212.62h-212.62z" fill="none" stroke="#000" stroke-miterlimit="10" stroke-width="9.45"/>
<path transform="matrix(.1 0 0 -.1 -.472 167.18)" d="m796.36 32.747h212.66v212.62h-212.66z" fill="none" stroke="#000" stroke-miterlimit="10" stroke-width="9.45"/>
<path transform="matrix(.1 0 0 -.1 -.472 167.18)" d="m16.751 812.36h212.62v212.66h-212.62z" fill="none" stroke="#000" stroke-miterlimit="10" stroke-width="18.9"/>
<path transform="matrix(.1 0 0 -.1 -.472 167.18)" d="m229.37 812.36 566.99-566.99" fill="none" stroke="#000" stroke-miterlimit="10" stroke-width="4.725"/>
<g>
<use x="6.764" y="79.108" xlink:href="#h"/>
<use x="39.316" y="120.213" xlink:href="#a"/>
<use x="232.268" y="113.126" xlink:href="#b"/>
<use x="37.899" y="40.838" xlink:href="#b"/>
<use x="171.136" y="77.691" xlink:href="#a"/>
<use x="132.957" y="164.153" xlink:href="#a"/>
<use x="84.087" y="157.066" xlink:href="#g"/>
<use x="176.560472" y="157.066" xlink:href="#f"/>
<use x="254.597" y="79.108" xlink:href="#e"/>
<use x="176.624" y="15.324" xlink:href="#d"/>
<use x="84.359744" y="15.324" xlink:href="#c"/>
</g>
</svg>
