<svg width="518pt" height="584pt" version="1.1" viewBox="0 0 518 584" xmlns="http://www.w3.org/2000/svg" xmlns:xlink="http://www.w3.org/1999/xlink">
<defs>
<g id="c">
<path d="m18.75-12.594c0.1875-0.70312 0.23438-0.92188 1.7031-0.92188 0.39062 0 0.57812 0 0.57812-0.39062 0-0.20312-0.14062-0.20312-0.54688-0.20312h-2.4688c-0.51562 0-0.54688 0.015625-0.76562 0.35938l-7.5469 11.906-1.5469-11.812c-0.0625-0.45312-0.078125-0.45312-0.60938-0.45312h-2.5625c-0.40625 0-0.57812 0-0.57812 0.39062 0 0.20312 0.17188 0.20312 0.48438 0.20312 1.2656 0 1.2656 0.17188 1.2656 0.40625 0 0.03125 0 0.15625-0.078125 0.46875l-2.6562 10.531c-0.23438 1-0.71875 1.4531-2.0938 1.5156-0.0625 0-0.3125 0.015625-0.3125 0.35938 0 0.23438 0.1875 0.23438 0.26562 0.23438 0.40625 0 1.4688-0.046875 1.875-0.046875h1c0.28125 0 0.64062 0.046875 0.92188 0.046875 0.14062 0 0.375 0 0.375-0.39062 0-0.1875-0.20312-0.20312-0.28125-0.20312-0.6875-0.03125-1.3438-0.15625-1.3438-0.89062 0-0.20312 0-0.23438 0.078125-0.51562l2.8438-11.391h0.03125l1.7031 12.828c0.0625 0.5 0.09375 0.5625 0.28125 0.5625 0.21875 0 0.32812-0.17188 0.42188-0.34375l8.3125-13.141h0.015625l-3 11.953c-0.1875 0.71875-0.21875 0.9375-1.6719 0.9375-0.39062 0-0.59375 0-0.59375 0.35938 0 0.23438 0.1875 0.23438 0.3125 0.23438 0.34375 0 0.76562-0.046875 1.1094-0.046875h2.4375c0.35938 0 0.78125 0.046875 1.1406 0.046875 0.15625 0 0.39062 0 0.39062-0.39062 0-0.20312-0.1875-0.20312-0.5-0.20312-1.25 0-1.25-0.17188-1.25-0.375 0-0.015625 0-0.17188 0.03125-0.32812z"/>
</g>
<g id="a">
<path d="m15.453-12.594c0.1875-0.70312 0.21875-0.92188 1.6875-0.92188 0.375 0 0.57812 0 0.57812-0.35938 0-0.23438-0.1875-0.23438-0.3125-0.23438-0.35938 0-0.79688 0.046875-1.1875 0.046875h-2.4375c-0.39062 0-0.82812-0.046875-1.2188-0.046875-0.14062 0-0.39062 0-0.39062 0.39062 0 0.20312 0.14062 0.20312 0.53125 0.20312 1.2344 0 1.2344 0.17188 1.2344 0.40625 0 0.03125 0 0.15625-0.078125 0.46875l-1.2656 5h-6.2344l1.2344-4.9531c0.1875-0.70312 0.23438-0.92188 1.7031-0.92188 0.375 0 0.57812 0 0.57812-0.35938 0-0.23438-0.1875-0.23438-0.3125-0.23438-0.375 0-0.79688 0.046875-1.2031 0.046875h-2.4375c-0.39062 0-0.8125-0.046875-1.2188-0.046875-0.14062 0-0.39062 0-0.39062 0.39062 0 0.20312 0.15625 0.20312 0.54688 0.20312 1.2344 0 1.2344 0.17188 1.2344 0.40625 0 0.03125 0 0.15625-0.078125 0.46875l-2.7969 11.109c-0.1875 0.71875-0.21875 0.9375-1.6562 0.9375-0.46875 0-0.60938 0-0.60938 0.39062 0 0.20312 0.21875 0.20312 0.28125 0.20312 0.375 0 0.8125-0.046875 1.2031-0.046875h2.4375c0.39062 0 0.82812 0.046875 1.2188 0.046875 0.17188 0 0.39062 0 0.39062-0.39062 0-0.20312-0.1875-0.20312-0.5-0.20312-1.25 0-1.25-0.17188-1.25-0.375 0-0.015625 0-0.17188 0.03125-0.32812l1.4375-5.75h6.25c-0.34375 1.3594-1.4062 5.6875-1.4375 5.8125-0.23438 0.60938-0.5625 0.60938-1.7812 0.64062-0.25 0-0.4375 0-0.4375 0.39062 0 0.20312 0.23438 0.20312 0.29688 0.20312 0.35938 0 0.79688-0.046875 1.1875-0.046875h2.4375c0.39062 0 0.82812 0.046875 1.2188 0.046875 0.17188 0 0.39062 0 0.39062-0.39062 0-0.20312-0.17188-0.20312-0.48438-0.20312-1.2656 0-1.2656-0.17188-1.2656-0.375 0-0.015625 0-0.17188 0.046875-0.32812z"/>
</g>
<g id="b">
<path d="m8.6094-12.594c0.125-0.5 0.17188-0.6875 0.48438-0.76562 0.15625-0.046875 0.84375-0.046875 1.2812-0.046875 2.0625 0 3.0312 0.078125 3.0312 1.6875 0 0.3125-0.078125 1.0938-0.20312 1.8594l-0.03125 0.25c0 0.09375 0.09375 0.20312 0.21875 0.20312 0.20312 0 0.20312-0.09375 0.26562-0.42188l0.59375-3.6562c0.046875-0.1875 0.046875-0.23438 0.046875-0.29688 0-0.21875-0.125-0.21875-0.54688-0.21875h-11.297c-0.46875 0-0.48438 0.015625-0.60938 0.39062l-1.2656 3.7188c-0.015625 0.03125-0.078125 0.26562-0.078125 0.28125 0 0.10938 0.078125 0.20312 0.20312 0.20312 0.17188 0 0.20312-0.078125 0.28125-0.34375 0.875-2.5 1.3125-3.6562 4.0625-3.6562h1.375c0.5 0 0.70312 0 0.70312 0.23438 0 0.0625 0 0.09375-0.10938 0.46875l-2.7656 11.094c-0.20312 0.79688-0.25 1.0156-2.4375 1.0156-0.51562 0-0.65625 0-0.65625 0.39062 0 0.20312 0.23438 0.20312 0.32812 0.20312 0.51562 0 1.0625-0.046875 1.5781-0.046875h3.2188c0.51562 0 1.0781 0.046875 1.5938 0.046875 0.21875 0 0.42188 0 0.42188-0.39062 0-0.20312-0.14062-0.20312-0.67188-0.20312-1.8594 0-1.8594-0.1875-1.8594-0.5 0-0.015625 0-0.17188 0.078125-0.5z"/>
</g>
<g id="i">
<path d="m5.1719-9.3438c0-0.26562 0-0.34375-0.1875-0.34375-0.125 0-0.17188 0-0.28125 0.17188l-4.3125 6.7031v0.42188h3.7656v1.2969c0 0.53125-0.03125 0.67188-1.0781 0.67188h-0.28125v0.42188c0.32812-0.03125 1.4688-0.03125 1.8594-0.03125 0.40625 0 1.5469 0 1.8906 0.03125v-0.42188h-0.29688c-1.0312 0-1.0781-0.14062-1.0781-0.67188v-1.2969h1.4531v-0.42188h-1.4531zm-0.9375 1.125v5.4062h-3.4844z"/>
</g>
<g id="h">
<path d="m6.3125-2.4062h-0.3125c-0.046875 0.23438-0.15625 1.0312-0.3125 1.2656-0.09375 0.125-0.90625 0.125-1.3438 0.125h-2.6562c0.39062-0.32812 1.2656-1.25 1.6406-1.5938 2.1875-2.0156 2.9844-2.75 2.9844-4.1719 0-1.6562-1.3125-2.75-2.9688-2.75-1.6719 0-2.6406 1.4062-2.6406 2.6406 0 0.73438 0.625 0.73438 0.67188 0.73438 0.29688 0 0.67188-0.21875 0.67188-0.67188 0-0.40625-0.26562-0.67188-0.67188-0.67188-0.125 0-0.15625 0-0.20312 0.015625 0.28125-0.98438 1.0469-1.6406 1.9844-1.6406 1.2188 0 1.9688 1.0156 1.9688 2.3438 0 1.2188-0.70312 2.2812-1.5312 3.2031l-2.8906 3.2344v0.34375h5.2344z"/>
</g>
<g id="g">
<path d="m2.6406-5.1562c-0.25 0.015625-0.29688 0.03125-0.29688 0.17188s0.0625 0.14062 0.32812 0.14062h0.65625c1.2188 0 1.7656 1 1.7656 2.375 0 1.875-0.98438 2.375-1.6875 2.375-0.6875 0-1.8594-0.32812-2.2656-1.2656 0.45312 0.0625 0.875-0.1875 0.875-0.70312 0-0.42188-0.3125-0.70312-0.70312-0.70312-0.34375 0-0.71875 0.20312-0.71875 0.75 0 1.2656 1.2656 2.3125 2.8594 2.3125 1.7031 0 2.9688-1.2969 2.9688-2.75 0-1.3125-1.0625-2.3594-2.4375-2.5938 1.25-0.35938 2.0469-1.4062 2.0469-2.5312s-1.1719-1.9531-2.5625-1.9531c-1.4375 0-2.5 0.875-2.5 1.9219 0 0.5625 0.45312 0.6875 0.67188 0.6875 0.29688 0 0.64062-0.21875 0.64062-0.65625 0-0.45312-0.34375-0.65625-0.65625-0.65625-0.09375 0-0.125 0-0.15625 0.015625 0.54688-0.96875 1.8906-0.96875 1.9531-0.96875 0.48438 0 1.4062 0.20312 1.4062 1.6094 0 0.28125-0.03125 1.0781-0.45312 1.7031-0.4375 0.625-0.92188 0.67188-1.3125 0.6875z"/>
</g>
<g id="f">
<path d="m1.8438-8.2188c0.60938 0.20312 1.1094 0.21875 1.2656 0.21875 1.625 0 2.6562-1.1875 2.6562-1.3906 0-0.0625-0.03125-0.14062-0.10938-0.14062-0.03125 0-0.0625 0-0.1875 0.0625-0.8125 0.34375-1.5 0.39062-1.875 0.39062-0.9375 0-1.6094-0.28125-1.8906-0.40625-0.09375-0.046875-0.125-0.046875-0.14062-0.046875-0.10938 0-0.10938 0.09375-0.10938 0.32812v4.25c0 0.26562 0 0.34375 0.17188 0.34375 0.0625 0 0.078125-0.015625 0.21875-0.1875 0.40625-0.57812 1.0781-0.92188 1.7969-0.92188 0.76562 0 1.1406 0.70312 1.25 0.9375 0.25 0.5625 0.26562 1.2656 0.26562 1.8125s0 1.3594-0.40625 2c-0.3125 0.53125-0.875 0.875-1.5156 0.875-0.9375 0-1.875-0.64062-2.125-1.6875 0.0625 0.03125 0.15625 0.046875 0.21875 0.046875 0.25 0 0.64062-0.14062 0.64062-0.625 0-0.40625-0.28125-0.64062-0.64062-0.64062-0.25 0-0.625 0.125-0.625 0.6875 0 1.2188 0.96875 2.6094 2.5625 2.6094 1.625 0 3.0469-1.3594 3.0469-3.1875 0-1.7031-1.1562-3.125-2.6562-3.125-0.8125 0-1.4531 0.35938-1.8125 0.76562z"/>
</g>
<g id="e">
<path d="m4.125-9.1875c0-0.34375 0-0.34375-0.28125-0.34375-0.34375 0.375-1.0625 0.90625-2.5312 0.90625v0.42188c0.32812 0 1.0469 0 1.8281-0.375v7.4688c0 0.51562-0.046875 0.6875-1.2969 0.6875h-0.45312v0.42188c0.39062-0.03125 1.7812-0.03125 2.25-0.03125s1.8594 0 2.2344 0.03125v-0.42188h-0.4375c-1.2656 0-1.3125-0.17188-1.3125-0.6875z"/>
</g>
<g id="d">
<path d="m1.7656-4.9844c0-3.6406 1.7656-4.2031 2.5312-4.2031 0.51562 0 1.0312 0.15625 1.3125 0.57812-0.17188 0-0.71875 0-0.71875 0.59375 0 0.3125 0.21875 0.57812 0.59375 0.57812 0.35938 0 0.59375-0.20312 0.59375-0.625 0-0.75-0.54688-1.4688-1.7969-1.4688-1.7969 0-3.6875 1.8438-3.6875 5 0 3.9375 1.7188 4.8281 2.9375 4.8281 1.5625 0 2.8906-1.3594 2.8906-3.2188 0-1.9062-1.3281-3.1875-2.7656-3.1875-1.2812 0-1.75 1.1094-1.8906 1.5zm1.7656 4.8906c-0.90625 0-1.3438-0.79688-1.4688-1.0938-0.125-0.375-0.26562-1.0781-0.26562-2.0781 0-1.1406 0.51562-2.5625 1.7969-2.5625 0.79688 0 1.2188 0.53125 1.4219 1.0156 0.23438 0.53125 0.23438 1.25 0.23438 1.875 0 0.73438 0 1.375-0.26562 1.9219-0.35938 0.6875-0.875 0.92188-1.4531 0.92188z"/>
</g>
<clipPath id="k">
<path d="m0 0.0625h108v85.938h-108z"/>
</clipPath>
<clipPath id="j">
<path d="m119 0.0625h93v64.938h-93z"/>
</clipPath>
</defs>
<path transform="matrix(.1 0 0 -.1 -.472 584.06)" d="m893.16 297.18c0-156.56-177.7-283.48-396.84-283.48-219.18 0-396.84 126.91-396.84 283.48 0 156.52 177.66 283.44 396.84 283.44 219.14 0 396.84-126.91 396.84-283.44z" fill="none" stroke="#000" stroke-miterlimit="10" stroke-width="4.7242"/>
<path transform="matrix(.1 0 0 -.1 -.472 584.06)" d="m5173.3 2394.7c0-156.52-177.66-283.44-396.84-283.44-219.14 0-396.84 126.91-396.84 283.44 0 156.56 177.7 283.48 396.84 283.48 219.18 0 396.84-126.91 396.84-283.48z" fill="none" stroke="#000" stroke-miterlimit="10" stroke-width="4.7242"/>
<path transform="matrix(.1 0 0 -.1 -.472 584.06)" d="m5173.3 3415.2c0-156.56-177.66-283.48-396.84-283.48-219.14 0-396.84 126.91-396.84 283.48 0 156.52 177.7 283.44 396.84 283.44 219.18 0 396.84-126.91 396.84-283.44z" fill="none" stroke="#000" stroke-miterlimit="10" stroke-width="4.7242"/>
<path transform="matrix(.1 0 0 -.1 -.472 584.06)" d="m5173.3 4123.8c0-156.56-177.66-283.48-396.84-283.48-219.14 0-396.84 126.91-396.84 283.48 0 156.52 177.7 283.44 396.84 283.44 219.18 0 396.84-126.91 396.84-283.44z" fill="none" stroke="#000" stroke-miterlimit="10" stroke-width="4.7242"/>
<path transform="matrix(.1 0 0 -.1 -.472 584.06)" d="m5173.3 1714.4c0-156.56-177.66-283.48-396.84-283.48-219.14 0-396.84 126.91-396.84 283.48 0 156.52 177.7 283.44 396.84 283.44 219.18 0 396.84-126.91 396.84-283.44z" fill="none" stroke="#000" stroke-miterlimit="10" stroke-width="4.7242"/>
<g clip-path="url(#k)">
<path transform="matrix(.1 0 0 -.1 -.472 584.06)" d="m808.12 5541.1c0-156.56-177.7-283.48-396.84-283.48-219.18 0-396.84 126.91-396.84 283.48 0 156.52 177.66 283.44 396.84 283.44 219.14 0 396.84-126.91 396.84-283.44z" fill="none" stroke="#000" stroke-miterlimit="10" stroke-width="18.897"/>
</g>
<path transform="matrix(.1 0 0 -.1 -.472 584.06)" d="m2055.3 297.18c0-156.56-177.66-283.48-396.84-283.48-219.14 0-396.84 126.91-396.84 283.48 0 156.52 177.7 283.44 396.84 283.44 219.18 0 396.84-126.91 396.84-283.44z" fill="none" stroke="#000" stroke-miterlimit="10" stroke-width="18.897"/>
<path transform="matrix(.1 0 0 -.1 -.472 584.06)" d="m5173.3 5115.9c0-156.52-177.66-283.44-396.84-283.44-219.14 0-396.84 126.91-396.84 283.44 0 156.56 177.7 283.48 396.84 283.48 219.18 0 396.84-126.91 396.84-283.48z" fill="none" stroke="#000" stroke-miterlimit="10" stroke-width="18.897"/>
<path transform="matrix(.1 0 0 -.1 -.472 584.06)" d="m5173.3 722.34c0-156.52-177.66-283.44-396.84-283.44-219.14 0-396.84 126.91-396.84 283.44 0 156.56 177.7 283.48 396.84 283.48 219.18 0 396.84-126.91 396.84-283.48z" fill="none" stroke="#000" stroke-miterlimit="10" stroke-width="18.897"/>
<path transform="matrix(.1 0 0 -.1 -.472 584.06)" d="m1034.9 4407.3v-1275.5" fill="none" stroke="#000" stroke-miterlimit="10" stroke-width="4.7242"/>
<path transform="matrix(.1 0 0 -.1 -.472 584.06)" d="m1034.9 2706.6v-1275.6" fill="none" stroke="#000" stroke-miterlimit="10" stroke-width="4.7242"/>
<path transform="matrix(.1 0 0 -.1 -.472 584.06)" d="m836.44 4832.5-425.16 425.16" fill="none" stroke="#000" stroke-miterlimit="10" stroke-width="4.7242"/>
<path transform="matrix(.1 0 0 -.1 -.472 584.06)" d="m1261.6 4832.5 425.2 425.16" fill="none" stroke="#000" stroke-miterlimit="10" stroke-width="4.7242"/>
<path transform="matrix(.1 0 0 -.1 -.472 584.06)" d="m836.44 1005.8-425.16-425.2" fill="none" stroke="#000" stroke-miterlimit="10" stroke-width="4.7242"/>
<path transform="matrix(.1 0 0 -.1 -.472 584.06)" d="m1261.6 1005.8 425.2-425.2" fill="none" stroke="#000" stroke-miterlimit="10" stroke-width="4.7242"/>
<path transform="matrix(.1 0 0 -.1 -.472 584.06)" d="m3954.4 4832.5 425.2 283.44" fill="none" stroke="#000" stroke-miterlimit="10" stroke-width="4.7242"/>
<path transform="matrix(.1 0 0 -.1 -.472 584.06)" d="m3954.4 4407.3 425.2-283.44" fill="none" stroke="#000" stroke-miterlimit="10" stroke-width="4.7242"/>
<path transform="matrix(.1 0 0 -.1 -.472 584.06)" d="m3954.4 3131.7 425.2 283.48" fill="none" stroke="#000" stroke-miterlimit="10" stroke-width="4.7242"/>
<path transform="matrix(.1 0 0 -.1 -.472 584.06)" d="m3954.4 2706.6 425.2-283.48" fill="none" stroke="#000" stroke-miterlimit="10" stroke-width="4.7242"/>
<path transform="matrix(.1 0 0 -.1 -.472 584.06)" d="m3954.4 1431 425.2 283.48" fill="none" stroke="#000" stroke-miterlimit="10" stroke-width="4.7242"/>
<path transform="matrix(.1 0 0 -.1 -.472 584.06)" d="m3954.4 1005.8 425.2-283.48" fill="none" stroke="#000" stroke-miterlimit="10" stroke-width="4.7242"/>
<path transform="matrix(.1 0 0 -.1 -.472 584.06)" d="m1261.6 4634h2267.7" fill="none" stroke="#000" stroke-miterlimit="10" stroke-width="4.7242"/>
<path transform="matrix(.1 0 0 -.1 -.472 584.06)" d="m1261.6 1232.6h2267.7" fill="none" stroke="#000" stroke-miterlimit="10" stroke-width="4.7242"/>
<path transform="matrix(.1 0 0 -.1 -.472 584.06)" d="m1261.6 2905 2267.7-1672.4" fill="none" stroke="#000" stroke-miterlimit="10" stroke-width="4.7242"/>
<path transform="matrix(.1 0 0 -.1 -.472 584.06)" d="m1261.6 2905 2267.7 1729.1" fill="none" stroke="#000" stroke-miterlimit="10" stroke-width="4.7242"/>
<path transform="matrix(.1 0 0 -.1 -.472 584.06)" d="m3529.3 2706.6h425.16v425.16h-425.16z" fill="none" stroke="#000" stroke-miterlimit="10" stroke-width="4.7242"/>
<path transform="matrix(.1 0 0 -.1 -.472 584.06)" d="m836.44 2706.6h425.2v425.16h-425.2z" fill="none" stroke="#000" stroke-miterlimit="10" stroke-width="4.7242"/>
<path transform="matrix(.1 0 0 -.1 -.472 584.06)" d="m3727.7 4407.3v-1275.5" fill="none" stroke="#000" stroke-miterlimit="10" stroke-width="4.7242"/>
<path transform="matrix(.1 0 0 -.1 -.472 584.06)" d="m3727.7 2706.6v-1275.6" fill="none" stroke="#000" stroke-miterlimit="10" stroke-width="4.7242"/>
<path transform="matrix(.1 0 0 -.1 -.472 584.06)" d="m836.44 4407.3h425.2v425.2h-425.2z" fill="none" stroke="#000" stroke-miterlimit="10" stroke-width="18.897"/>
<path transform="matrix(.1 0 0 -.1 -.472 584.06)" d="m836.44 1005.8h425.2v425.16h-425.2z" fill="none" stroke="#000" stroke-miterlimit="10" stroke-width="18.897"/>
<path transform="matrix(.1 0 0 -.1 -.472 584.06)" d="m3529.3 4407.3h425.16v425.2h-425.16z" fill="none" stroke="#000" stroke-miterlimit="10" stroke-width="18.897"/>
<path transform="matrix(.1 0 0 -.1 -.472 584.06)" d="m3529.3 1005.8h425.16v425.16h-425.16z" fill="none" stroke="#000" stroke-miterlimit="10" stroke-width="18.897"/>
<g clip-path="url(#j)">
<path transform="matrix(.1 0 0 -.1 -.472 584.06)" d="m2055.3 5541.1c0-156.56-177.66-283.48-396.84-283.48-219.14 0-396.84 126.91-396.84 283.48 0 156.52 177.7 283.44 396.84 283.44 219.18 0 396.84-126.91 396.84-283.44z" fill="none" stroke="#000" stroke-miterlimit="10" stroke-width="4.7242"/>
</g>
<g>
<use x="457.183" y="520.373" xlink:href="#c"/>
<use x="478.905486" y="520.373" xlink:href="#a"/>
<use x="156.218" y="38.452" xlink:href="#a"/>
<use x="39.99" y="562.895" xlink:href="#a"/>
<use x="468.049" y="421.154" xlink:href="#a"/>
<use x="468.049" y="353.118" xlink:href="#a"/>
<use x="468.049" y="251.064" xlink:href="#a"/>
<use x="468.049" y="180.193" xlink:href="#a"/>
<use x="364.036" y="299.256" xlink:href="#b"/>
<use x="375.894" y="302.355" xlink:href="#i"/>
<use x="364.036" y="126.331" xlink:href="#b"/>
<use x="375.894" y="129.431" xlink:href="#h"/>
<use x="94.727" y="296.421" xlink:href="#b"/>
<use x="106.585" y="299.521" xlink:href="#g"/>
<use x="94.727" y="469.346" xlink:href="#b"/>
<use x="106.585" y="472.445" xlink:href="#f"/>
<use x="94.727" y="126.331" xlink:href="#b"/>
<use x="106.585" y="129.431" xlink:href="#e"/>
<use x="364.036" y="469.346" xlink:href="#b"/>
<use x="375.894" y="472.445" xlink:href="#d"/>
<use x="20.62" y="38.452" xlink:href="#c"/>
<use x="42.342486" y="38.452" xlink:href="#a"/>
<use x="145.352" y="562.895" xlink:href="#c"/>
<use x="167.074486" y="562.895" xlink:href="#a"/>
<use x="457.183" y="80.974" xlink:href="#c"/>
<use x="478.905486" y="80.974" xlink:href="#a"/>
</g>
</svg>
