<svg width="318pt" height="128pt" version="1.1" viewBox="0 0 318 128" xmlns="http://www.w3.org/2000/svg" xmlns:xlink="http://www.w3.org/1999/xlink">
<defs>
<g id="b">
<path d="m6.0938-0.17188c-0.625-0.0625-0.6875-0.14062-0.82812-0.92188l-1.0156-6.125h-0.28125l-3.125 5.4062c-0.85938 1.4375-0.96875 1.5469-1.3906 1.6406v0.17188h2.0156v-0.17188c-0.54688-0.0625-0.64062-0.10938-0.64062-0.375 0-0.20312 0.03125-0.3125 0.21875-0.67188l0.60938-1.2188h2.375l0.21875 1.4062c0.015625 0.10938 0.03125 0.20312 0.03125 0.28125 0 0.42188-0.15625 0.51562-0.84375 0.57812v0.17188h2.6562zm-4.2031-2.6562 1.625-2.8125 0.46875 2.8125z"/>
</g>
<g id="n">
<path d="m-0.09375 0h3.0469c1.7031 0 2.8594-0.875 2.8594-2.1562 0-0.79688-0.32812-1.1875-1.3594-1.6406 0.76562-0.17188 1.0781-0.3125 1.4375-0.60938 0.29688-0.26562 0.45312-0.625 0.45312-1.0625 0-1.0156-0.76562-1.5781-2.1562-1.5781h-2.7812v0.17188c0.67188 0.046875 0.82812 0.125 0.82812 0.4375 0 0.17188-0.046875 0.4375-0.125 0.6875l-1.3281 4.7812c-0.1875 0.625-0.26562 0.6875-0.875 0.79688zm2.6562-3.5781c0.70312 0 1.1562 0.046875 1.375 0.14062 0.45312 0.17188 0.71875 0.64062 0.71875 1.2344 0 1.1719-0.79688 1.875-2.125 1.875-0.45312 0-0.6875-0.14062-0.6875-0.45312 0-0.14062 0.125-0.65625 0.375-1.5 0.14062-0.46875 0.23438-0.79688 0.34375-1.2969zm0.8125-2.8438c0.0625-0.23438 0.20312-0.29688 0.625-0.29688 0.875 0 1.2656 0.35938 1.2656 1.1562 0 0.625-0.26562 1.1094-0.73438 1.3594-0.35938 0.20312-0.89062 0.29688-1.8594 0.28125z"/>
</g>
<g id="h">
<path d="m7.0469-5.0156 0.39062-2.1562h-0.21875c-0.09375 0.17188-0.20312 0.23438-0.42188 0.23438-0.09375 0-0.20312-0.015625-0.4375-0.0625-0.46875-0.125-0.90625-0.1875-1.2656-0.1875-2.3125 0-4.375 2.1562-4.375 4.5625 0 1.6562 1.1562 2.8125 2.8125 2.8125 1.1094 0 1.9688-0.45312 2.9531-1.6094l-0.1875-0.14062c-0.96875 0.95312-1.5938 1.2656-2.4844 1.2656-1.2031 0-1.8906-0.79688-1.8906-2.2031 0-1.2969 0.51562-2.5938 1.3594-3.4688 0.51562-0.53125 1.2031-0.82812 1.9062-0.82812 1 0 1.5469 0.57812 1.6562 1.75z"/>
</g>
<g id="aa">
<path d="m1.4062-6.875c0.67188 0.0625 0.82812 0.15625 0.82812 0.4375 0 0.17188-0.046875 0.42188-0.125 0.6875l-1.3281 4.7812c-0.1875 0.625-0.26562 0.6875-0.875 0.79688v0.17188h2.7344c1.2656 0 2.4219-0.32812 3.25-0.9375 1.0469-0.76562 1.6719-1.9531 1.6719-3.2031 0-1.7812-1.2344-2.9062-3.1562-2.9062h-3zm1.9688 0.46875c0.0625-0.25 0.23438-0.3125 0.65625-0.3125 0.625 0 1.1562 0.125 1.5 0.39062 0.53125 0.375 0.82812 1.0625 0.82812 1.9062 0 1.1875-0.45312 2.3906-1.1875 3.125-0.64062 0.65625-1.5156 0.96875-2.6406 0.96875-0.48438 0-0.70312-0.10938-0.70312-0.39062 0-0.14062 0.0625-0.35938 0.25-1.0312z"/>
</g>
<g id="m">
<path d="m1.5312-6.8438c0.51562 0.15625 0.9375 0.17188 1.0625 0.17188 1.3438 0 2.2188-0.98438 2.2188-1.1562 0-0.046875-0.03125-0.10938-0.10938-0.10938-0.015625 0-0.046875 0-0.15625 0.046875-0.65625 0.28125-1.2344 0.32812-1.5469 0.32812-0.78125 0-1.3438-0.25-1.5781-0.34375-0.078125-0.03125-0.10938-0.03125-0.125-0.03125-0.09375 0-0.09375 0.078125-0.09375 0.26562v3.5469c0 0.21875 0 0.28125 0.14062 0.28125 0.0625 0 0.078125 0 0.20312-0.15625 0.32812-0.48438 0.89062-0.76562 1.4844-0.76562 0.64062 0 0.95312 0.57812 1.0469 0.78125 0.20312 0.46875 0.21875 1.0625 0.21875 1.5156s0 1.125-0.34375 1.6719c-0.26562 0.42188-0.71875 0.71875-1.25 0.71875-0.79688 0-1.5625-0.53125-1.7812-1.4062 0.0625 0.03125 0.125 0.03125 0.1875 0.03125 0.20312 0 0.53125-0.10938 0.53125-0.51562 0-0.34375-0.23438-0.53125-0.53125-0.53125-0.21875 0-0.53125 0.10938-0.53125 0.57812 0 1.0156 0.82812 2.1719 2.1406 2.1719 1.3594 0 2.5469-1.1406 2.5469-2.6562 0-1.4219-0.96875-2.6094-2.2188-2.6094-0.6875 0-1.2031 0.3125-1.5156 0.64062z"/>
</g>
<g id="k">
<path d="m5.3594-3.8281c0-0.98438-0.0625-1.9531-0.5-2.8594-0.48438-1-1.3438-1.2656-1.9375-1.2656-0.6875 0-1.5312 0.34375-1.9844 1.3438-0.32812 0.75-0.45312 1.5-0.45312 2.7812 0 1.1562 0.09375 2.0312 0.51562 2.8906 0.46875 0.90625 1.2969 1.1875 1.9219 1.1875 1.0312 0 1.625-0.625 1.9844-1.3125 0.42188-0.89062 0.45312-2.0625 0.45312-2.7656zm-2.4375 3.8438c-0.39062 0-1.1719-0.21875-1.3906-1.5156-0.125-0.71875-0.125-1.625-0.125-2.4688 0-0.98438 0-1.8594 0.1875-2.5625 0.20312-0.8125 0.8125-1.1719 1.3281-1.1719 0.45312 0 1.1406 0.26562 1.375 1.2969 0.15625 0.6875 0.15625 1.625 0.15625 2.4375 0 0.79688 0 1.7031-0.14062 2.4375-0.21875 1.3125-0.98438 1.5469-1.3906 1.5469z"/>
</g>
<g id="e">
<path d="m3.4375-7.6562c0-0.28125 0-0.29688-0.23438-0.29688-0.28125 0.32812-0.89062 0.76562-2.1094 0.76562v0.34375c0.26562 0 0.85938 0 1.5312-0.29688v6.2188c0 0.4375-0.046875 0.57812-1.0938 0.57812h-0.375v0.34375c0.32812-0.03125 1.4844-0.03125 1.875-0.03125 0.40625 0 1.5469 0 1.875 0.03125v-0.34375h-0.375c-1.0469 0-1.0938-0.14062-1.0938-0.57812z"/>
</g>
<g id="j">
<path d="m0.5-8.1562v0.34375h0.23438c0.875 0 0.90625 0.10938 0.90625 0.5625v6.3438c0 0.4375-0.03125 0.5625-0.90625 0.5625h-0.23438v0.34375h4.1875c2 0 3.5938-1.7969 3.5938-4 0-2.3125-1.6094-4.1562-3.5938-4.1562zm2.625 7.8125c-0.51562 0-0.54688-0.09375-0.54688-0.48438v-6.5156c0-0.39062 0.03125-0.46875 0.54688-0.46875h1.2656c0.98438 0 1.7812 0.46875 2.2656 1.2656 0.54688 0.84375 0.54688 2.0469 0.54688 2.5312 0 0.67188-0.015625 1.7969-0.70312 2.6719-0.39062 0.5-1.1094 1-2.1094 1z"/>
</g>
<g id="u">
<path d="m2.0781-7.3594c0-0.3125-0.25-0.59375-0.57812-0.59375-0.3125 0-0.57812 0.25-0.57812 0.57812 0 0.35938 0.28125 0.57812 0.57812 0.57812 0.35938 0 0.57812-0.29688 0.57812-0.5625zm-1.6406 2.2188v0.34375c0.75 0 0.85938 0.078125 0.85938 0.65625v3.25c0 0.54688-0.125 0.54688-0.90625 0.54688v0.34375c0.34375-0.03125 0.90625-0.03125 1.2656-0.03125 0.125 0 0.8125 0 1.2188 0.03125v-0.34375c-0.76562 0-0.8125-0.0625-0.8125-0.53125v-4.3906z"/>
</g>
<g id="t">
<path d="m3.9219-5.0625c0-0.20312 0-0.26562-0.125-0.26562-0.09375 0-0.3125 0.26562-0.40625 0.375-0.35938-0.3125-0.73438-0.375-1.125-0.375-1.4375 0-1.875 0.78125-1.875 1.4375 0 0.14062 0 0.5625 0.45312 0.96875 0.39062 0.34375 0.79688 0.42188 1.3438 0.53125 0.65625 0.125 0.8125 0.17188 1.1094 0.40625 0.21875 0.17188 0.375 0.4375 0.375 0.78125 0 0.51562-0.29688 1.0781-1.3594 1.0781-0.78125 0-1.3594-0.45312-1.625-1.6406-0.046875-0.21875-0.046875-0.23438-0.046875-0.25-0.03125-0.046875-0.078125-0.046875-0.10938-0.046875-0.14062 0-0.14062 0.0625-0.14062 0.28125v1.625c0 0.21875 0 0.28125 0.125 0.28125 0.0625 0 0.0625-0.015625 0.26562-0.26562 0.0625-0.09375 0.0625-0.10938 0.25-0.29688 0.45312 0.5625 1.0938 0.5625 1.2969 0.5625 1.25 0 1.875-0.70312 1.875-1.6406 0-0.64062-0.39062-1.0312-0.5-1.1406-0.42188-0.375-0.75-0.4375-1.5469-0.57812-0.34375-0.078125-1.2188-0.25-1.2188-0.96875 0-0.35938 0.25-0.90625 1.3281-0.90625 1.2969 0 1.375 1.1094 1.3906 1.4688 0.015625 0.10938 0.09375 0.10938 0.14062 0.10938 0.125 0 0.125-0.0625 0.125-0.28125z"/>
</g>
<g id="c">
<path d="m2.0156-4.8125h1.6719v-0.34375h-1.6719v-2.1875h-0.26562c-0.015625 1.1094-0.45312 2.2656-1.5312 2.2969v0.23438h1.0156v3.3281c0 1.3281 0.875 1.6094 1.5156 1.6094 0.75 0 1.1406-0.75 1.1406-1.6094v-0.67188h-0.25v0.65625c0 0.85938-0.35938 1.3594-0.8125 1.3594-0.8125 0-0.8125-1.1094-0.8125-1.3125z"/>
</g>
<g id="i">
<path d="m4.6094-3.1875c0-0.65625 0-1.125-0.51562-1.5938-0.42188-0.375-0.96875-0.54688-1.4844-0.54688-0.98438 0-1.7344 0.64062-1.7344 1.4219 0 0.34375 0.21875 0.51562 0.5 0.51562s0.48438-0.20312 0.48438-0.5c0-0.48438-0.42188-0.48438-0.60938-0.48438 0.28125-0.5 0.85938-0.71875 1.3281-0.71875 0.54688 0 1.2656 0.45312 1.2656 1.5312v0.48438c-2.4062 0.03125-3.3125 1.0312-3.3125 1.9531 0 0.95312 1.0938 1.25 1.8281 1.25 0.78125 0 1.3281-0.48438 1.5469-1.0625 0.046875 0.5625 0.42188 1 0.9375 1 0.25 0 0.9375-0.17188 0.9375-1.125v-0.67188h-0.26562v0.67188c0 0.6875-0.28125 0.78125-0.45312 0.78125-0.45312 0-0.45312-0.64062-0.45312-0.8125zm-0.76562 1.5c0 1.1719-0.875 1.5625-1.3906 1.5625-0.59375 0-1.0781-0.42188-1.0781-1 0-1.5781 2.0312-1.7188 2.4688-1.75z"/>
</g>
<g id="a">
<path d="m5.3125-2.9062c0-1.1094 0-1.4375-0.26562-1.8281-0.34375-0.46875-0.90625-0.53125-1.3125-0.53125-1.1719 0-1.625 0.98438-1.7188 1.2188v-1.2188l-1.6406 0.125v0.34375c0.8125 0 0.92188 0.09375 0.92188 0.67188v3.2344c0 0.54688-0.14062 0.54688-0.92188 0.54688v0.34375c0.3125-0.03125 0.96875-0.03125 1.2969-0.03125 0.34375 0 1 0 1.2969 0.03125v-0.34375c-0.75 0-0.90625 0-0.90625-0.54688v-2.2188c0-1.25 0.82812-1.9219 1.5781-1.9219 0.73438 0 0.90625 0.60938 0.90625 1.3438v2.7969c0 0.54688-0.14062 0.54688-0.90625 0.54688v0.34375c0.29688-0.03125 0.95312-0.03125 1.2812-0.03125 0.34375 0 1 0 1.3125 0.03125v-0.34375c-0.60938 0-0.90625 0-0.92188-0.35938z"/>
</g>
<g id="z">
<path d="m4.5469-4.8125c0.10938-0.14062 0.10938-0.15625 0.10938-0.20312 0-0.14062-0.078125-0.14062-0.28125-0.14062h-3.75l-0.14062 1.9062h0.26562c0.078125-1.2188 0.29688-1.6562 1.6094-1.6562h1.375l-3.4062 4.6875c0 0.21875 0.015625 0.21875 0.28125 0.21875h3.8906l0.20312-2.2031h-0.26562c-0.10938 1.3594-0.3125 1.9375-1.7344 1.9375h-1.4531z"/>
</g>
<g id="y">
<path d="m2-8.2969-1.6719 0.14062v0.34375c0.8125 0 0.92188 0.078125 0.92188 0.67188v7.1406h0.25c0.046875-0.09375 0.39062-0.6875 0.4375-0.78125 0.28125 0.45312 0.78125 0.90625 1.5469 0.90625 1.375 0 2.5938-1.1719 2.5938-2.7031 0-1.5156-1.125-2.6875-2.4531-2.6875-0.65625 0-1.2188 0.29688-1.625 0.79688zm0.015625 4.4688c0-0.21875 0-0.23438 0.14062-0.42188 0.28125-0.4375 0.8125-0.78125 1.3906-0.78125 0.35938 0 1.6094 0.14062 1.6094 2.4375 0 0.79688-0.10938 1.2969-0.40625 1.7344-0.23438 0.375-0.70312 0.73438-1.3125 0.73438-0.64062 0-1.0625-0.40625-1.2656-0.73438-0.15625-0.25-0.15625-0.29688-0.15625-0.5z"/>
</g>
<g id="d">
<path d="m4.5781-2.7656c0.26562 0 0.28125 0 0.28125-0.23438 0-1.2031-0.64062-2.3281-2.0938-2.3281-1.3594 0-2.4062 1.2344-2.4062 2.7031 0 1.5781 1.2188 2.75 2.5469 2.75 1.4219 0 1.9531-1.2969 1.9531-1.5469 0-0.078125-0.046875-0.125-0.125-0.125-0.09375 0-0.125 0.0625-0.14062 0.125-0.3125 1-1.1094 1.2812-1.625 1.2812-0.5 0-1.7031-0.34375-1.7031-2.4062v-0.21875zm-3.2969-0.23438c0.09375-1.875 1.1406-2.0938 1.4844-2.0938 1.2812 0 1.3438 1.6875 1.3594 2.0938z"/>
</g>
<g id="l">
<path d="m2.0625-8.2969-1.6719 0.14062v0.34375c0.8125 0 0.90625 0.078125 0.90625 0.67188v6.25c0 0.54688-0.125 0.54688-0.90625 0.54688v0.34375c0.34375-0.03125 0.92188-0.03125 1.2812-0.03125s0.95312 0 1.2969 0.03125v-0.34375c-0.76562 0-0.90625 0-0.90625-0.54688z"/>
</g>
<g id="x">
<path d="m2.2031-4.2969c-0.20312 0.015625-0.25 0.03125-0.25 0.14062s0.0625 0.10938 0.26562 0.10938h0.54688c1.0312 0 1.4844 0.84375 1.4844 1.9844 0 1.5781-0.8125 1.9844-1.4062 1.9844-0.57812 0-1.5469-0.26562-1.9062-1.0625 0.39062 0.0625 0.73438-0.15625 0.73438-0.57812 0-0.34375-0.25-0.59375-0.57812-0.59375-0.29688 0-0.60938 0.17188-0.60938 0.625 0 1.0625 1.0625 1.9375 2.3906 1.9375 1.4219 0 2.4844-1.0938 2.4844-2.2969 0-1.0938-0.89062-1.9531-2.0312-2.1562 1.0312-0.29688 1.7031-1.1719 1.7031-2.1094s-0.98438-1.6406-2.1406-1.6406c-1.1875 0-2.0781 0.73438-2.0781 1.6094 0 0.46875 0.375 0.57812 0.54688 0.57812 0.25 0 0.54688-0.1875 0.54688-0.54688 0-0.375-0.29688-0.54688-0.5625-0.54688-0.0625 0-0.09375 0-0.125 0.015625 0.45312-0.8125 1.5781-0.8125 1.6406-0.8125 0.39062 0 1.1719 0.17188 1.1719 1.3438 0 0.23438-0.03125 0.89062-0.39062 1.4062-0.35938 0.53125-0.76562 0.5625-1.0781 0.57812z"/>
</g>
<g id="g">
<path d="m4.6719-5.0156c0.1875-0.1875 0.64062-0.625 0.84375-0.8125 1.6406-1.625 1.9844-1.9688 2.9219-1.9844v-0.34375c-0.34375 0.015625-0.48438 0.015625-1.0312 0.015625-0.3125 0-1.0156 0-1.2812-0.015625v0.34375c0.25 0 0.46875 0.10938 0.46875 0.375 0 0.1875-0.09375 0.29688-0.35938 0.54688l-3.6406 3.5156v-3.8594c0-0.57812 0.125-0.57812 1.1406-0.57812v-0.34375c-0.29688 0.015625-1.2656 0.015625-1.625 0.015625s-1.3281 0-1.625-0.015625v0.34375c1.0156 0 1.1406 0 1.1406 0.57812v6.2969c0 0.59375-0.125 0.59375-1.1406 0.59375v0.34375c0.29688-0.03125 1.2656-0.03125 1.625-0.03125s1.3281 0 1.625 0.03125v-0.34375c-1.0156 0-1.1406 0-1.1406-0.59375v-2.0781l1.4219-1.375 2.2188 3.3125c0.046875 0.078125 0.09375 0.15625 0.10938 0.21875 0.03125 0.046875 0.046875 0.10938 0.046875 0.17188 0 0.34375-0.4375 0.34375-0.625 0.34375v0.34375c0.28125-0.03125 1.1562-0.03125 1.5-0.03125 0.3125 0 0.90625 0 1.3281 0.03125v-0.34375c-0.64062 0-0.84375-0.0625-1.2344-0.64062z"/>
</g>
<g id="f">
<path d="m5.4844-2.5625c0-1.5312-1.1719-2.7656-2.5625-2.7656-1.4219 0-2.5625 1.2656-2.5625 2.7656 0 1.5312 1.1875 2.6875 2.5625 2.6875 1.4062 0 2.5625-1.1719 2.5625-2.6875zm-2.5625 2.4219c-0.4375 0-0.96875-0.1875-1.3125-0.78125-0.32812-0.53125-0.34375-1.2344-0.34375-1.75 0-0.45312 0-1.1719 0.375-1.7188 0.32812-0.51562 0.85938-0.70312 1.2812-0.70312 0.45312 0 0.96875 0.21875 1.2812 0.6875 0.375 0.54688 0.375 1.2969 0.375 1.7344 0 0.42188 0 1.1719-0.3125 1.7344-0.32812 0.5625-0.89062 0.79688-1.3438 0.79688z"/>
</g>
<g id="w">
<path d="m0.51562-8.1562v0.34375h0.23438c0.85938 0 0.90625 0.10938 0.90625 0.5625v6.3438c0 0.4375-0.046875 0.5625-0.90625 0.5625h-0.23438v0.34375h4.5c1.5312 0 2.6094-1.0469 2.6094-2.1875 0-0.96875-0.875-1.9219-2.2969-2.0781 1.1406-0.21875 1.9688-0.98438 1.9688-1.875 0-1.0312-1.0469-2.0156-2.6094-2.0156zm2.0469 3.7969v-2.9844c0-0.39062 0.015625-0.46875 0.54688-0.46875h1.5c1.2031 0 1.625 1.0156 1.625 1.6719 0 0.78125-0.60938 1.7812-1.9375 1.7812zm0.54688 4.0156c-0.53125 0-0.54688-0.09375-0.54688-0.48438v-3.2969h2.2344c1.1406 0 1.7344 1 1.7344 1.9219 0 0.96875-0.71875 1.8594-1.8906 1.8594z"/>
</g>
<g id="v">
<path d="m7.7969-8.1406c0-0.21875 0-0.28125-0.125-0.28125-0.0625 0-0.078125 0.03125-0.15625 0.15625l-0.57812 0.9375c-0.54688-0.67188-1.3594-1.0938-2.2188-1.0938-2.1875 0-4.0781 1.8906-4.0781 4.3281 0 2.4844 1.9219 4.3438 4.0781 4.3438 1.9688 0 3.0781-1.7031 3.0781-3.0156 0-0.14062 0-0.20312-0.14062-0.20312-0.10938 0-0.125 0.046875-0.125 0.14062-0.10938 1.8906-1.5 2.7344-2.6562 2.7344-0.82812 0-3.125-0.5-3.125-4 0-3.4531 2.25-3.9688 3.1094-3.9688 1.2656 0 2.3594 1.0625 2.5938 2.8438 0.03125 0.15625 0.03125 0.1875 0.17188 0.1875 0.17188 0 0.17188-0.03125 0.17188-0.28125z"/>
</g>
<g id="s">
<path d="m1.875-0.89062c-0.10938 0.42188-0.125 0.54688-0.96875 0.54688-0.21875 0-0.34375 0-0.34375 0.21875 0 0.125 0.078125 0.125 0.3125 0.125h3.7812c2.4219 0 4.7812-2.5 4.7812-5.1562 0-1.7344-1.0312-3-2.75-3h-3.8281c-0.23438 0-0.34375 0-0.34375 0.21875 0 0.125 0.10938 0.125 0.29688 0.125 0.71875 0 0.71875 0.09375 0.71875 0.21875 0 0.03125 0 0.09375-0.046875 0.28125zm2.5312-6.4531c0.09375-0.45312 0.14062-0.46875 0.60938-0.46875h1.3125c1.125 0 2.1562 0.60938 2.1562 2.25 0 0.60938-0.23438 2.6875-1.3906 4-0.34375 0.39062-1.25 1.2188-2.625 1.2188h-1.3594c-0.17188 0-0.1875 0-0.26562-0.015625-0.125-0.015625-0.14062-0.03125-0.14062-0.125s0.015625-0.15625 0.046875-0.26562z"/>
</g>
<g id="r">
<path d="m6.0312-2.5625h-0.5c-0.03125 0.25-0.10938 0.95312-0.29688 1.0625-0.09375 0.09375-1.0312 0.09375-1.2031 0.09375h-1.8594c0.45312-0.39062 1.5469-1.2969 1.7188-1.4219 1.3281-1 2.1406-1.6094 2.1406-2.75 0-1.4219-1.2812-2.2656-2.8594-2.2656-1.3438 0-2.5 0.76562-2.5 1.9062 0 0.625 0.51562 0.8125 0.78125 0.8125 0.375 0 0.8125-0.25 0.8125-0.79688 0-0.51562-0.375-0.76562-0.75-0.8125 0.48438-0.54688 1.1094-0.59375 1.3594-0.59375 1.1094 0 1.625 0.89062 1.625 1.7656 0 0.92188-0.625 1.7812-1.125 2.2969l-2.5938 2.7188c-0.10938 0.10938-0.10938 0.125-0.10938 0.34375v0.20312h5.0156z"/>
</g>
<g id="q">
<path d="m4.1406-7.5c0-0.34375-0.03125-0.34375-0.40625-0.34375-0.89062 0.76562-2.2188 0.76562-2.4844 0.76562h-0.21875v0.51562h0.21875c0.42188 0 1.0625-0.078125 1.5312-0.23438v6.2812h-1.6562v0.51562c0.5-0.03125 1.75-0.03125 2.3125-0.03125s1.8281 0 2.3281 0.03125v-0.51562h-1.625z"/>
</g>
<g id="p">
<path d="m3.125-3.9531c1.3281 0 1.3281 1.2344 1.3281 1.8125 0 0.53125 0 1.8125-1.2812 1.8125-0.25 0-1.0469-0.046875-1.625-0.45312 0.51562-0.10938 0.70312-0.46875 0.70312-0.82812 0-0.5-0.34375-0.84375-0.84375-0.84375s-0.84375 0.34375-0.84375 0.84375c0 1.1094 1.1875 1.75 2.6719 1.75 1.9688 0 2.9062-1.0781 2.9062-2.2812 0-0.57812-0.29688-1.7188-2.1406-2.0469 1.0469-0.3125 1.7656-1.0625 1.7656-2 0-0.90625-0.85938-1.6562-2.5156-1.6562-1.3438 0-2.3125 0.70312-2.3125 1.6719 0 0.60938 0.46875 0.79688 0.76562 0.79688 0.35938 0 0.76562-0.23438 0.76562-0.78125 0-0.28125-0.10938-0.6875-0.67188-0.76562 0.5-0.48438 1.3125-0.48438 1.375-0.48438 1.0781 0 1.0781 0.8125 1.0781 1.1719s-0.046875 0.92188-0.4375 1.4062c-0.3125 0.40625-0.625 0.42188-1.0781 0.45312-0.14062 0.015625-0.375 0.03125-0.42188 0.046875-0.078125 0.03125-0.078125 0.125-0.078125 0.17188 0 0.20312 0.078125 0.20312 0.3125 0.20312z"/>
</g>
<g id="o">
<path d="m6.0781-3.2344c-0.65625-0.8125-0.79688-1-1.1719-1.2969-0.65625-0.53125-1.3281-0.75-1.9375-0.75-1.4062 0-2.3125 1.3125-2.3125 2.7188 0 1.375 0.89062 2.6875 2.2656 2.6875s2.3594-1.0781 2.9531-2.0312c0.64062 0.8125 0.78125 0.98438 1.1562 1.2812 0.67188 0.54688 1.3281 0.75 1.9531 0.75 1.3906 0 2.2969-1.3125 2.2969-2.7031 0-1.375-0.875-2.7031-2.25-2.7031s-2.375 1.0781-2.9531 2.0469zm0.3125 0.40625c0.48438-0.85938 1.3594-2.0781 2.7188-2.0781 1.2656 0 1.9062 1.25 1.9062 2.3281 0 1.1719-0.79688 2.1406-1.8438 2.1406-0.70312 0-1.2344-0.5-1.4844-0.75-0.29688-0.32812-0.57812-0.70312-1.2969-1.6406zm-0.82812 0.51562c-0.5 0.85938-1.375 2.0625-2.7344 2.0625-1.2656 0-1.9062-1.25-1.9062-2.3125 0-1.1719 0.79688-2.1406 1.8438-2.1406 0.70312 0 1.2344 0.5 1.4844 0.75 0.29688 0.3125 0.57812 0.6875 1.3125 1.6406z"/>
</g>
<clipPath id="aj">
<path d="m191 91h1v36.785h-1z"/>
</clipPath>
<clipPath id="ai">
<path d="m209 91h1v36.785h-1z"/>
</clipPath>
<clipPath id="ah">
<path d="m173 91h55v36.785h-55z"/>
</clipPath>
<clipPath id="ag">
<path d="m110 91h1v36.785h-1z"/>
</clipPath>
<clipPath id="af">
<path d="m128 91h1v36.785h-1z"/>
</clipPath>
<clipPath id="ae">
<path d="m92 91h55v36.785h-55z"/>
</clipPath>
<clipPath id="ad">
<path d="m281 91h1v36.785h-1z"/>
</clipPath>
<clipPath id="ac">
<path d="m299 91h1v36.785h-1z"/>
</clipPath>
<clipPath id="ab">
<path d="m263 91h55v36.785h-55z"/>
</clipPath>
</defs>
<path transform="matrix(.1 0 0 -.1 3.528 127.79)" d="m801.99 814h180v180h-180z" fill="none" stroke="#000" stroke-miterlimit="10" stroke-width="2.25"/>
<path transform="matrix(.1 0 0 -.1 3.528 127.79)" d="m2962 814h180v180h-180z" fill="none" stroke="#000" stroke-miterlimit="10" stroke-width="2.25"/>
<path transform="matrix(.1 0 0 -.1 3.528 127.79)" d="m981.99 904h540" fill="none" stroke="#000" stroke-miterlimit="10" stroke-width="2.25"/>
<path transform="matrix(.1 0 0 -.1 3.528 127.79)" d="m2422 904h540" fill="none" stroke="#000" stroke-miterlimit="10" stroke-width="2.25"/>
<path transform="matrix(.1 0 0 -.1 3.528 127.79)" d="m1702 904h540" fill="none" stroke="#000" stroke-miterlimit="10" stroke-width="2.25"/>
<path transform="matrix(.1 0 0 -.1 3.528 127.79)" d="m1522 814h180v180h-180z" fill="none" stroke="#000" stroke-miterlimit="10" stroke-width="2.25"/>
<path transform="matrix(.1 0 0 -.1 3.528 127.79)" d="m2242 814h180v180h-180z" fill="none" stroke="#000" stroke-miterlimit="10" stroke-width="2.25"/>
<g clip-path="url(#aj)">
<path transform="matrix(.1 0 0 -.1 3.528 127.79)" d="m1882 364v-360" fill="none" stroke="#000" stroke-miterlimit="10" stroke-width="2.25"/>
</g>
<path transform="matrix(.1 0 0 -.1 3.528 127.79)" d="m1702 184h540" fill="none" stroke="#000" stroke-miterlimit="10" stroke-width="2.25"/>
<g clip-path="url(#ai)">
<path transform="matrix(.1 0 0 -.1 3.528 127.79)" d="m2062 364v-360" fill="none" stroke="#000" stroke-miterlimit="10" stroke-width="2.25"/>
</g>
<g clip-path="url(#ah)">
<path transform="matrix(.1 0 0 -.1 3.528 127.79)" d="m1702 4.0028h540v360h-540z" fill="none" stroke="#000" stroke-miterlimit="10" stroke-width="2.25"/>
</g>
<g clip-path="url(#ag)">
<path transform="matrix(.1 0 0 -.1 3.528 127.79)" d="m1072 364v-360" fill="none" stroke="#000" stroke-miterlimit="10" stroke-width="2.25"/>
</g>
<path transform="matrix(.1 0 0 -.1 3.528 127.79)" d="m891.99 184h540" fill="none" stroke="#000" stroke-miterlimit="10" stroke-width="2.25"/>
<g clip-path="url(#af)">
<path transform="matrix(.1 0 0 -.1 3.528 127.79)" d="m1252 364v-360" fill="none" stroke="#000" stroke-miterlimit="10" stroke-width="2.25"/>
</g>
<g clip-path="url(#ae)">
<path transform="matrix(.1 0 0 -.1 3.528 127.79)" d="m891.99 4.0028h540v360h-540z" fill="none" stroke="#000" stroke-miterlimit="10" stroke-width="2.25"/>
</g>
<g clip-path="url(#ad)">
<path transform="matrix(.1 0 0 -.1 3.528 127.79)" d="m2782 364v-360" fill="none" stroke="#000" stroke-miterlimit="10" stroke-width="2.25"/>
</g>
<path transform="matrix(.1 0 0 -.1 3.528 127.79)" d="m2602 184h540" fill="none" stroke="#000" stroke-miterlimit="10" stroke-width="2.25"/>
<g clip-path="url(#ac)">
<path transform="matrix(.1 0 0 -.1 3.528 127.79)" d="m2962 364v-360" fill="none" stroke="#000" stroke-miterlimit="10" stroke-width="2.25"/>
</g>
<g clip-path="url(#ab)">
<path transform="matrix(.1 0 0 -.1 3.528 127.79)" d="m2602 4.0028h540v360h-540z" fill="none" stroke="#000" stroke-miterlimit="10" stroke-width="2.25"/>
</g>
<g>
<use x="89.4288" y="41.887" xlink:href="#b"/>
<use x="161.428836" y="41.887" xlink:href="#n"/>
<use x="233.126148" y="41.887" xlink:href="#h"/>
<use x="197.4288" y="104.887" xlink:href="#n"/>
<use x="214.82922" y="104.887" xlink:href="#aa"/>
<use x="179.4288" y="122.887" xlink:href="#b"/>
<use x="116.4288" y="104.887" xlink:href="#b"/>
<use x="134.126112" y="104.887" xlink:href="#h"/>
<use x="98.4288" y="122.887" xlink:href="#b"/>
<use x="269.42844" y="122.887" xlink:href="#b"/>
<use x="287.1258" y="104.887" xlink:href="#h"/>
<use x="305.42856" y="104.887" xlink:href="#b"/>
</g>
<path transform="matrix(.1 0 0 -.1 3.528 127.79)" d="m3052 994c-347.58 119.18-712.54 180-1080 180-367.46 0-732.38-60.82-1080-180" fill="none" stroke="#000" stroke-miterlimit="10" stroke-width="2.25"/>
<g>
<use x="302.795" y="122.928" xlink:href="#m"/>
<use x="308.648266" y="122.928" xlink:href="#k"/>
<use x="125.763" y="35.648" xlink:href="#e"/>
<use x="278.725002" y="35.648" xlink:href="#e"/>
<use x="197.74765" y="35.648" xlink:href="#e"/>
<use x="303.626" y="41.947" xlink:href="#s"/>
<use x="-0.365" y="84.687" xlink:href="#j"/>
<use x="8.575099" y="84.687" xlink:href="#u"/>
<use x="11.826913" y="84.687" xlink:href="#t"/>
<use x="16.444011" y="84.687" xlink:href="#c"/>
<use x="20.996551" y="84.687" xlink:href="#i"/>
<use x="26.849817" y="84.687" xlink:href="#a"/>
<use x="33.353446" y="84.687" xlink:href="#z"/>
<use x="38.556349" y="84.687" xlink:href="#c"/>
<use x="43.108889" y="84.687" xlink:href="#i"/>
<use x="48.962155" y="84.687" xlink:href="#y"/>
<use x="55.788574" y="84.687" xlink:href="#d"/>
<use x="60.991477" y="84.687" xlink:href="#l"/>
<use x="64.243292" y="84.687" xlink:href="#l"/>
<use x="67.495106" y="84.687" xlink:href="#d"/>
<use x="72.698009" y="84.687" xlink:href="#a"/>
<use x="194.82" y="8.204" xlink:href="#m"/>
<use x="200.673266" y="8.204" xlink:href="#k"/>
<use x="197.311" y="122.928" xlink:href="#r"/>
</g>
<path transform="matrix(1 0 0 -1 197.31 124.32)" d="m0.0015-0.0012188h6.7227" fill="none" stroke="#000" stroke-miterlimit="10" stroke-width=".398"/>
<g>
<use x="212.691" y="122.928" xlink:href="#o"/>
<use x="116.329" y="122.928" xlink:href="#q"/>
</g>
<path transform="matrix(1 0 0 -1 116.33 124.32)" d="m-8.75e-4 -0.0012188h6.7266" fill="none" stroke="#000" stroke-miterlimit="10" stroke-width=".398"/>
<g>
<use x="134.761" y="122.928" xlink:href="#x"/>
<use x="94.738" y="84.687" xlink:href="#g"/>
<use x="103.838298" y="84.687" xlink:href="#a"/>
<use x="110.341927" y="84.687" xlink:href="#f"/>
<use x="116.195193" y="84.687" xlink:href="#c"/>
<use x="120.747733" y="84.687" xlink:href="#d"/>
<use x="125.950636" y="84.687" xlink:href="#a"/>
<use x="136.35166" y="84.687" xlink:href="#w"/>
<use x="287.29" y="122.928" xlink:href="#p"/>
</g>
<path transform="matrix(1 0 0 -1 287.29 124.32)" d="m-9.375e-4 -0.0012188h6.7266" fill="none" stroke="#000" stroke-miterlimit="10" stroke-width=".398"/>
<g>
<use x="175.637" y="84.687" xlink:href="#g"/>
<use x="184.737298" y="84.687" xlink:href="#a"/>
<use x="191.240927" y="84.687" xlink:href="#f"/>
<use x="197.094193" y="84.687" xlink:href="#c"/>
<use x="201.646733" y="84.687" xlink:href="#d"/>
<use x="206.849636" y="84.687" xlink:href="#a"/>
<use x="217.25066" y="84.687" xlink:href="#v"/>
<use x="256.370466" y="84.687" xlink:href="#g"/>
<use x="265.470764" y="84.687" xlink:href="#a"/>
<use x="271.974393" y="84.687" xlink:href="#f"/>
<use x="277.827659" y="84.687" xlink:href="#c"/>
<use x="282.380199" y="84.687" xlink:href="#d"/>
<use x="287.583102" y="84.687" xlink:href="#a"/>
<use x="297.996081" y="84.687" xlink:href="#j"/>
</g>
</svg>
