<svg width="359pt" height="251pt" version="1.1" viewBox="0 0 359 251" xmlns="http://www.w3.org/2000/svg" xmlns:xlink="http://www.w3.org/1999/xlink">
<defs>
<g id="d">
<path d="m2.7188-2.3906c0.20312 0.03125 0.53125 0.10938 0.60938 0.125 0.15625 0.046875 0.6875 0.23438 0.6875 0.8125 0 0.35938-0.32812 1.3281-1.7188 1.3281-0.25 0-1.1562-0.03125-1.3906-0.6875 0.48438 0.0625 0.71875-0.3125 0.71875-0.57812 0-0.25-0.17188-0.375-0.40625-0.375-0.26562 0-0.60938 0.20312-0.60938 0.73438 0 0.70312 0.71875 1.1562 1.6719 1.1562 1.8125 0 2.3594-1.3438 2.3594-1.9688 0-0.17188 0-0.51562-0.39062-0.89062-0.29688-0.29688-0.57812-0.34375-1.2188-0.48438-0.32812-0.0625-0.84375-0.17188-0.84375-0.71875 0-0.23438 0.21875-1.0938 1.3438-1.0938 0.51562 0 1 0.1875 1.125 0.625-0.53125 0-0.5625 0.45312-0.5625 0.46875 0 0.25 0.23438 0.3125 0.34375 0.3125 0.17188 0 0.5-0.125 0.5-0.625s-0.45312-1.0156-1.3906-1.0156c-1.5625 0-1.9844 1.2188-1.9844 1.7188 0 0.90625 0.89062 1.0938 1.1562 1.1562z"/>
</g>
<g id="a">
<path d="m2.4062-4.8125h1.0938c0.23438 0 0.34375 0 0.34375-0.20312 0-0.14062-0.0625-0.14062-0.3125-0.14062h-1.0469l0.4375-1.7344c0.046875-0.17188 0.046875-0.20312 0.046875-0.28125 0-0.1875-0.14062-0.29688-0.29688-0.29688-0.10938 0-0.375 0.03125-0.46875 0.42188l-0.46875 1.8906h-1.125c-0.23438 0-0.34375 0-0.34375 0.23438 0 0.10938 0.078125 0.10938 0.3125 0.10938h1.0625l-0.79688 3.1562c-0.09375 0.42188-0.125 0.54688-0.125 0.70312 0 0.5625 0.39062 1.0781 1.0625 1.0781 1.2031 0 1.8594-1.75 1.8594-1.8281s-0.0625-0.10938-0.125-0.10938c-0.03125 0-0.078125 0-0.09375 0.046875-0.015625 0.015625-0.03125 0.015625-0.10938 0.21875-0.25 0.59375-0.79688 1.4219-1.5 1.4219-0.35938 0-0.375-0.29688-0.375-0.5625 0 0 0-0.23438 0.03125-0.375z"/>
</g>
<g id="c">
<path d="m3.8906 2.9062c0-0.03125 0-0.0625-0.20312-0.26562-1.2031-1.2031-1.875-3.1719-1.875-5.6094 0-2.3281 0.5625-4.3281 1.9531-5.7344 0.125-0.10938 0.125-0.125 0.125-0.17188 0-0.0625-0.0625-0.09375-0.10938-0.09375-0.15625 0-1.1406 0.85938-1.7188 2.0312-0.60938 1.2188-0.89062 2.4844-0.89062 3.9688 0 1.0625 0.17188 2.4844 0.78125 3.75 0.71875 1.4375 1.6875 2.2188 1.8281 2.2188 0.046875 0 0.10938-0.03125 0.10938-0.09375z"/>
</g>
<g id="b">
<path d="m3.375-2.9688c0-0.92188-0.125-2.3906-0.79688-3.7812-0.70312-1.4375-1.6875-2.2188-1.8125-2.2188-0.046875 0-0.10938 0.03125-0.10938 0.09375 0 0.046875 0 0.0625 0.20312 0.26562 1.2031 1.2031 1.8594 3.1875 1.8594 5.625 0 2.3125-0.5625 4.3125-1.9375 5.7188-0.125 0.10938-0.125 0.14062-0.125 0.17188 0 0.0625 0.0625 0.09375 0.10938 0.09375 0.15625 0 1.1406-0.85938 1.7188-2.0312 0.60938-1.2188 0.89062-2.5156 0.89062-3.9375z"/>
</g>
<clipPath id="q">
<path d="m25 129h334v3h-334z"/>
</clipPath>
<clipPath id="p">
<path d="m-2.4727 252.16h363v-252h-363zm362.28-122.64v1.6094l-7.5273 1.0703 0.94531-1.8906-0.94531-1.8906z" clip-rule="evenodd"/>
</clipPath>
<clipPath id="l">
<path d="m25 2h2v249h-2z"/>
</clipPath>
<clipPath id="k">
<path d="m-2.4727 252.16h363v-252h-363zm27.562-250.21h1.6055l1.0742 7.4961-1.8906-0.94531-1.8906 0.94531z" clip-rule="evenodd"/>
</clipPath>
<clipPath id="j">
<path d="m3 0.16406h45v29.836h-45z"/>
</clipPath>
<clipPath id="i">
<path d="m24 15h145v117h-145z"/>
</clipPath>
<clipPath id="h">
<path d="m-2.4727 252.16h363v-252h-363zm171.14-120.81h-2.0781l0.09375-5.3555 0.94531 3.7812 0.94531-3.7812z" clip-rule="evenodd"/>
</clipPath>
<clipPath id="g">
<path d="m166 129h145v116h-145z"/>
</clipPath>
<clipPath id="f">
<path d="m-2.4727 252.16h363v-252h-363zm169.06-122.89h2.0781l-0.09375 5.3555-0.94531-3.7812-0.94531 3.7812z" clip-rule="evenodd"/>
</clipPath>
<clipPath id="e">
<path d="m308 58h31v88h-31z"/>
</clipPath>
<clipPath id="o">
<path d="m-2.4727 252.16h363v-252h-363zm339.16-193.76h2.0781l-0.09375 5.3555-0.94531-3.7812-0.94531 3.7812z" clip-rule="evenodd"/>
</clipPath>
<clipPath id="n">
<path d="m24 15h317v230h-317z"/>
</clipPath>
<clipPath id="m">
<path d="m-2.4727 252.16h363v-252h-363zm338.66-183.68 2.332-5.0703 2.332 1.0703-2.3633 5.0703-0.31641-0.15625 0.75781-3.8086-2.457 3.0195z" clip-rule="evenodd"/>
</clipPath>
</defs>
<path transform="matrix(.1 0 0 -.1 -2.472 252.17)" d="m425.27 2352.5v-2268" fill="none" stroke="#000" stroke-dasharray="28.35" stroke-miterlimit="10" stroke-width="4.725"/>
<path transform="matrix(.1 0 0 -.1 -2.472 252.17)" d="m3402 2352.5v-2268" fill="none" stroke="#000" stroke-dasharray="28.35" stroke-miterlimit="10" stroke-width="4.725"/>
<path transform="matrix(.1 0 0 -.1 -2.472 252.17)" d="m566.99 2352.5v-2268" fill="none" stroke="#000" stroke-dasharray="28.35" stroke-miterlimit="10" stroke-width="4.725"/>
<path transform="matrix(.1 0 0 -.1 -2.472 252.17)" d="m708.74 2352.5v-2268" fill="none" stroke="#000" stroke-dasharray="28.35" stroke-miterlimit="10" stroke-width="4.725"/>
<path transform="matrix(.1 0 0 -.1 -2.472 252.17)" d="m992.26 2352.5v-2268" fill="none" stroke="#000" stroke-dasharray="28.35" stroke-miterlimit="10" stroke-width="4.725"/>
<path transform="matrix(.1 0 0 -.1 -2.472 252.17)" d="m1134 2352.5v-2268" fill="none" stroke="#000" stroke-dasharray="28.35" stroke-miterlimit="10" stroke-width="4.725"/>
<path transform="matrix(.1 0 0 -.1 -2.472 252.17)" d="m1275.7 2352.5v-2268" fill="none" stroke="#000" stroke-dasharray="28.35" stroke-miterlimit="10" stroke-width="4.725"/>
<path transform="matrix(.1 0 0 -.1 -2.472 252.17)" d="m1417.5 2352.5v-2268" fill="none" stroke="#000" stroke-dasharray="28.35" stroke-miterlimit="10" stroke-width="4.725"/>
<path transform="matrix(.1 0 0 -.1 -2.472 252.17)" d="m1559.3 2352.5v-2268" fill="none" stroke="#000" stroke-dasharray="28.35" stroke-miterlimit="10" stroke-width="4.725"/>
<path transform="matrix(.1 0 0 -.1 -2.472 252.17)" d="m1701 2352.5v-2268" fill="none" stroke="#000" stroke-dasharray="28.35" stroke-miterlimit="10" stroke-width="4.725"/>
<path transform="matrix(.1 0 0 -.1 -2.472 252.17)" d="m1842.8 2352.5v-2268" fill="none" stroke="#000" stroke-dasharray="28.35" stroke-miterlimit="10" stroke-width="4.725"/>
<path transform="matrix(.1 0 0 -.1 -2.472 252.17)" d="m1984.5 2352.5v-2268" fill="none" stroke="#000" stroke-dasharray="28.35" stroke-miterlimit="10" stroke-width="4.725"/>
<path transform="matrix(.1 0 0 -.1 -2.472 252.17)" d="m2126.2 2352.5v-2268" fill="none" stroke="#000" stroke-dasharray="28.35" stroke-miterlimit="10" stroke-width="4.725"/>
<path transform="matrix(.1 0 0 -.1 -2.472 252.17)" d="m2268 2352.5v-2268" fill="none" stroke="#000" stroke-dasharray="28.35" stroke-miterlimit="10" stroke-width="4.725"/>
<path transform="matrix(.1 0 0 -.1 -2.472 252.17)" d="m2409.8 2352.5v-2268" fill="none" stroke="#000" stroke-dasharray="28.35" stroke-miterlimit="10" stroke-width="4.725"/>
<path transform="matrix(.1 0 0 -.1 -2.472 252.17)" d="m2551.5 2352.5v-2268" fill="none" stroke="#000" stroke-dasharray="28.35" stroke-miterlimit="10" stroke-width="4.725"/>
<path transform="matrix(.1 0 0 -.1 -2.472 252.17)" d="m2693.2 2352.5v-2268" fill="none" stroke="#000" stroke-dasharray="28.35" stroke-miterlimit="10" stroke-width="4.725"/>
<path transform="matrix(.1 0 0 -.1 -2.472 252.17)" d="m2835 2352.5v-2268" fill="none" stroke="#000" stroke-dasharray="28.35" stroke-miterlimit="10" stroke-width="4.725"/>
<path transform="matrix(.1 0 0 -.1 -2.472 252.17)" d="m2976.8 2352.5v-2268" fill="none" stroke="#000" stroke-dasharray="28.35" stroke-miterlimit="10" stroke-width="4.725"/>
<path transform="matrix(.1 0 0 -.1 -2.472 252.17)" d="m3118.5 2352.5v-2268" fill="none" stroke="#000" stroke-dasharray="28.35" stroke-miterlimit="10" stroke-width="4.725"/>
<path transform="matrix(.1 0 0 -.1 -2.472 252.17)" d="m3260.3 2352.5v-2268" fill="none" stroke="#000" stroke-dasharray="28.35" stroke-miterlimit="10" stroke-width="4.725"/>
<path transform="matrix(.1 0 0 -.1 -2.472 252.17)" d="m283.51 2352.5h3118.5" fill="none" stroke="#000" stroke-dasharray="28.35" stroke-miterlimit="10" stroke-width="4.725"/>
<path transform="matrix(.1 0 0 -.1 -2.472 252.17)" d="m283.51 2210.8h3118.5" fill="none" stroke="#000" stroke-dasharray="28.35" stroke-miterlimit="10" stroke-width="4.725"/>
<path transform="matrix(.1 0 0 -.1 -2.472 252.17)" d="m283.51 2069h3118.5" fill="none" stroke="#000" stroke-dasharray="28.35" stroke-miterlimit="10" stroke-width="4.725"/>
<path transform="matrix(.1 0 0 -.1 -2.472 252.17)" d="m283.51 1927.2h3118.5" fill="none" stroke="#000" stroke-dasharray="28.35" stroke-miterlimit="10" stroke-width="4.725"/>
<path transform="matrix(.1 0 0 -.1 -2.472 252.17)" d="m283.51 1785.5h3118.5" fill="none" stroke="#000" stroke-dasharray="28.35" stroke-miterlimit="10" stroke-width="4.725"/>
<path transform="matrix(.1 0 0 -.1 -2.472 252.17)" d="m283.51 1643.8h3118.5" fill="none" stroke="#000" stroke-dasharray="28.35" stroke-miterlimit="10" stroke-width="4.725"/>
<path transform="matrix(.1 0 0 -.1 -2.472 252.17)" d="m283.51 1502h3118.5" fill="none" stroke="#000" stroke-dasharray="28.35" stroke-miterlimit="10" stroke-width="4.725"/>
<path transform="matrix(.1 0 0 -.1 -2.472 252.17)" d="m283.51 1360.3h3118.5" fill="none" stroke="#000" stroke-dasharray="28.35" stroke-miterlimit="10" stroke-width="4.725"/>
<path transform="matrix(.1 0 0 -.1 -2.472 252.17)" d="m283.51 1218.5h3118.5" fill="none" stroke="#000" stroke-dasharray="28.35" stroke-miterlimit="10" stroke-width="4.725"/>
<path transform="matrix(.1 0 0 -.1 -2.472 252.17)" d="m283.51 1076.7h3118.5" fill="none" stroke="#000" stroke-dasharray="28.35" stroke-miterlimit="10" stroke-width="4.725"/>
<path transform="matrix(.1 0 0 -.1 -2.472 252.17)" d="m283.51 935.02h3118.5" fill="none" stroke="#000" stroke-dasharray="28.35" stroke-miterlimit="10" stroke-width="4.725"/>
<path transform="matrix(.1 0 0 -.1 -2.472 252.17)" d="m283.51 793.26h3118.5" fill="none" stroke="#000" stroke-dasharray="28.35" stroke-miterlimit="10" stroke-width="4.725"/>
<path transform="matrix(.1 0 0 -.1 -2.472 252.17)" d="m283.51 651.5h3118.5" fill="none" stroke="#000" stroke-dasharray="28.35" stroke-miterlimit="10" stroke-width="4.725"/>
<path transform="matrix(.1 0 0 -.1 -2.472 252.17)" d="m283.51 509.75h3118.5" fill="none" stroke="#000" stroke-dasharray="28.35" stroke-miterlimit="10" stroke-width="4.725"/>
<path transform="matrix(.1 0 0 -.1 -2.472 252.17)" d="m283.51 367.99h3118.5" fill="none" stroke="#000" stroke-dasharray="28.35" stroke-miterlimit="10" stroke-width="4.725"/>
<path transform="matrix(.1 0 0 -.1 -2.472 252.17)" d="m283.51 226.27h3118.5" fill="none" stroke="#000" stroke-dasharray="28.35" stroke-miterlimit="10" stroke-width="4.725"/>
<path transform="matrix(.1 0 0 -.1 -2.472 252.17)" d="m283.51 84.512h3118.5" fill="none" stroke="#000" stroke-dasharray="28.35" stroke-miterlimit="10" stroke-width="4.725"/>
<g clip-path="url(#q)">
<g clip-path="url(#p)">
<path transform="matrix(.1 0 0 -.1 -2.472 252.17)" d="m283.51 1218.5h3331.1" fill="none" stroke="#000" stroke-miterlimit="10" stroke-width="14.175"/>
</g>
</g>
<path d="m352.28 132.21 4.7266-1.8906-4.7266-1.8906 0.94531 1.8906-0.94531 1.8906" fill-rule="evenodd"/>
<path transform="matrix(.1 0 0 -.1 -2.472 252.17)" d="m3547.5 1199.6 47.266 18.906-47.266 18.906 9.4531-18.906z" fill="none" stroke="#000" stroke-miterlimit="10" stroke-width="14.175"/>
<g clip-path="url(#l)">
<g clip-path="url(#k)">
<path transform="matrix(.1 0 0 -.1 -2.472 252.17)" d="m283.51 13.613v2480.6" fill="none" stroke="#000" stroke-miterlimit="10" stroke-width="14.175"/>
</g>
</g>
<path d="m27.77 9.4492-1.8906-4.7227-1.8906 4.7227 1.8906-0.94531 1.8906 0.94531" fill-rule="evenodd"/>
<g clip-path="url(#j)">
<path transform="matrix(.1 0 0 -.1 -2.472 252.17)" d="m302.42 2427.2-18.906 47.227-18.906-47.227 18.906 9.4531z" fill="none" stroke="#000" stroke-miterlimit="10" stroke-width="14.175"/>
</g>
<g clip-path="url(#i)">
<g clip-path="url(#h)">
<path transform="matrix(.1 0 0 -.1 -2.472 252.17)" d="m283.51 1360.3h141.76v283.52h141.72v283.48h141.76v283.52h141.76v141.76h283.52v-141.76h141.72v-283.52h141.76v-283.48h141.76v-283.52h141.76v-141.76" fill="none" stroke="#000" stroke-miterlimit="10" stroke-width="18.9"/>
</g>
</g>
<path transform="matrix(.1 0 0 -.1 -2.472 252.17)" d="m1710.5 1261.7-9.4531-37.812-9.4531 37.812" fill="none" stroke="#000" stroke-miterlimit="10" stroke-width="2.3625"/>
<path transform="matrix(.1 0 0 -.1 -2.472 252.17)" d="m850.5 2352.5v-2268" fill="none" stroke="#000" stroke-dasharray="28.35" stroke-miterlimit="10" stroke-width="4.725"/>
<g clip-path="url(#g)">
<g clip-path="url(#f)">
<path transform="matrix(.1 0 0 -.1 -2.472 252.17)" d="m3118.5 1076.7h-141.76v-283.48h-141.76v-283.52h-141.76v-283.48h-141.72v-141.76h-283.52v141.76h-141.76v283.48h-141.76v283.52h-141.72v283.48h-141.76v141.76" fill="none" stroke="#000" stroke-miterlimit="10" stroke-width="18.9"/>
</g>
</g>
<path transform="matrix(.1 0 0 -.1 -2.472 252.17)" d="m1691.6 1175.3 9.4531 37.812 9.4531-37.812" fill="none" stroke="#000" stroke-miterlimit="10" stroke-width="2.3625"/>
<g clip-path="url(#e)">
<g clip-path="url(#o)">
<path transform="matrix(.1 0 0 -.1 -2.472 252.17)" d="m3118.5 1076.7v283.52h141.76v283.52h141.72v283.48" fill="none" stroke="#000" stroke-miterlimit="10" stroke-width="18.9"/>
</g>
</g>
<path transform="matrix(.1 0 0 -.1 -2.472 252.17)" d="m3392.5 1884.1 9.4531 37.812 9.4531-37.812" fill="none" stroke="#000" stroke-miterlimit="10" stroke-width="2.3625"/>
<g clip-path="url(#n)">
<g clip-path="url(#m)">
<path transform="matrix(.1 0 0 -.1 -2.472 252.17)" d="m283.51 1218.5 0.3125 0.3125 0.3125 0.9375 0.625 1.9141 1.25 2.8125 1.9141 3.7891 2.5 5.6641 3.1641 7.2656 4.1016 8.8281 4.7266 10.703 5.6641 12.578 6.9141 14.492 7.5781 16.719 8.4766 18.555 9.4531 20.469 10.391 22.695 11.367 24.258 11.953 25.82 12.93 27.422 13.555 28.672 14.141 30.234 14.805 31.172 15.156 31.836 15.742 32.422 16.055 33.086 16.367 33.398 16.406 33.711 16.68 33.359 16.68 33.398 16.719 32.773 16.367 32.422 16.719 31.836 16.055 31.172 16.367 30.586 15.742 29.258 15.781 28.672 15.117 27.734 15.117 26.445 14.805 25.508 14.492 24.258 14.18 23.32 13.828 22.383 13.555 20.781 13.242 19.844 12.891 18.906 12.617 17.617 12.266 16.719 12.305 15.43 11.641 14.18 11.68 13.203 11.328 12.305 11.328 11.328 11.055 10.078 11.016 9.1406 10.703 8.2031 10.391 7.2266 10.391 6.3281 10.391 5.3516 10.391 4.6875 10.391 3.4766 10.117 2.8516 10.391 1.875 10.078 1.25 10.078 0.35156 10.078-0.35156 10.391-1.25 10.078-1.5625 10.078-2.8516 10.391-3.125 10.391-4.1016 10.391-4.7266 10.391-5.3516 10.43-6.3281 10.703-6.9141 10.391-7.5391 10.703-8.5156 11.016-9.1406 10.703-9.7656 11.055-10.703 11.016-11.328 11.328-11.992 11.016-12.578 11.367-13.242 11.328-14.18 11.641-14.805 11.367-15.117 11.641-16.055 11.68-16.719 11.953-17.305 11.641-17.969 11.68-18.281 11.953-19.219 11.992-19.531 11.641-20.156 11.953-20.469 11.992-20.781 11.953-21.719 11.992-21.758 11.641-22.344 11.953-22.383 11.992-23.008 11.641-23.281 11.68-23.633 11.953-23.633 11.641-23.945 11.68-24.258 11.328-24.258 11.68-24.57 22.656-49.141 11.016-24.883 11.367-24.883 22.031-49.766 10.703-24.57 11.016-24.883 10.742-24.883 10.391-24.883 10.703-24.883 51.953-122.85 10.117-24.57 10.039-24.258 10.43-24.57 20.156-48.516 10.391-24.57 10.078-24.258 10.078-24.57 41.562-98.281 10.43-24.57 10.703-24.883 10.391-24.883 10.703-24.883 11.016-24.883 10.703-24.57 11.055-24.883 11.016-24.883 11.328-24.883 11.016-24.883 11.367-24.57 11.328-24.57 11.641-24.57 11.367-24.258 11.641-24.258 11.68-23.945 11.953-23.633 11.641-23.594 11.68-23.32 11.953-23.008 11.992-22.344 11.641-22.383 11.953-21.719 11.992-21.758 11.953-20.781 11.992-20.469 11.641-20.156 11.953-19.531 11.992-19.219 11.641-18.281 11.68-17.93 11.953-17.344 11.641-16.68 11.68-16.094 11.328-15.117 11.68-14.805 11.328-14.18 11.328-13.203 11.016-12.617 11.367-11.953 11.016-11.367 11.016-10.703 10.703-9.7656 11.016-9.1406 10.742-8.4766 10.391-7.5781 10.703-6.9141 10.391-6.3281 10.391-5.3516 10.391-4.7266 10.391-4.0625 10.391-3.1641 10.117-2.8516 10.039-1.5625 10.43-1.25 10.078-0.3125 10.703 0.3125 11.016 1.25 10.703 2.2266 11.055 2.8125 11.016 3.7891 11.016 4.4141 11.016 5.3516 11.055 5.9766 11.016 6.9141 11.328 7.5781 11.328 8.5156 11.367 9.1016 11.328 10.117 11.641 10.703 11.68 11.328 11.641 12.305 11.641 12.891 11.68 13.555 11.953 14.18 11.68 14.805 11.953 15.742 11.992 16.055 11.953 16.719 11.953 17.305 11.68 17.656 11.953 18.594 11.992 18.555 11.953 19.219 11.68 19.844 11.953 20.156 11.641 20.156 11.641 20.82 11.68 21.094 11.328 21.094 11.367 21.445 11.328 21.406 11.328 21.719 11.016 22.07 10.703 21.719 11.055 22.07 10.391 21.719 10.703 22.07 10.078 21.719 10.391 21.719 9.7656 21.758 9.7656 21.406 9.7656 21.445 9.4531 21.094 9.4531 20.781 9.1406 20.781 9.1406 20.508 8.8281 20.156 8.4766 20.156 17.031 39.062 8.1641 19.18 8.2031 18.906 7.8906 18.594 7.8516 18.594 7.8906 17.969 8.5156 20.469 8.7891 20.469 8.5156 19.844 8.5156 19.531 8.2031 19.531 8.4766 18.906 8.2031 18.906 8.1641 18.867 7.8906 18.906 16.406 37.188 8.1641 18.594 8.2031 18.906 8.1641 18.867 8.5156 18.906 8.5156 19.219 8.5156 19.531 8.7891 19.531 17.656 40.312 18.281 40.938 9.4531 21.133 9.4141 21.094 9.4922 21.406 9.7656 21.445 9.4141 21.719 9.8047 21.445 9.7266 21.406 9.4531 21.406 9.4531 20.781 9.1406 20.82 9.1406 19.844 8.5156 19.219 8.4766 18.555 7.8906 17.344 7.2266 16.367 6.9531 15.117 6.2891 14.18 5.6641 12.305 5.0391 11.328 4.4141 9.7656 3.7891 8.2031 3.1641 6.9141 2.5 5.3516 1.9141 4.4141 1.25 3.125 2.1875 4.7656" fill="none" stroke="#000" stroke-linejoin="bevel" stroke-miterlimit="10" stroke-width="23.625"/>
</g>
</g>
<path transform="matrix(.1 0 0 -.1 -2.472 252.17)" d="m3389.4 1835.6 24.57 30.195-7.5781-38.086" fill="none" stroke="#000" stroke-miterlimit="10" stroke-width="2.3625"/>
<path transform="matrix(.1 0 0 -.1 -2.472 252.17)" d="m283.51 2352.5v-2268" fill="none" stroke="#000" stroke-dasharray="28.35" stroke-miterlimit="10" stroke-width="4.725"/>
<g>
<use x="-0.025" y="9.82" xlink:href="#d"/>
<use x="5.489" y="9.82" xlink:href="#c"/>
<use x="10.042" y="9.82" xlink:href="#a"/>
<use x="14.269" y="9.82" xlink:href="#b"/>
<use x="351.913" y="144.474" xlink:href="#a"/>
</g>
</svg>
