<svg width="268pt" height="508pt" version="1.1" viewBox="0 0 268 508" xmlns="http://www.w3.org/2000/svg" xmlns:xlink="http://www.w3.org/1999/xlink">
<defs>
<g id="ai">
<path d="m-0.09375 0h3.0469c1.7031 0 2.8594-0.875 2.8594-2.1562 0-0.79688-0.32812-1.1875-1.3594-1.6406 0.76562-0.17188 1.0781-0.3125 1.4375-0.60938 0.29688-0.26562 0.45312-0.625 0.45312-1.0625 0-1.0156-0.76562-1.5781-2.1562-1.5781h-2.7812v0.17188c0.67188 0.046875 0.82812 0.125 0.82812 0.4375 0 0.17188-0.046875 0.4375-0.125 0.6875l-1.3281 4.7812c-0.1875 0.625-0.26562 0.6875-0.875 0.79688zm2.6562-3.5781c0.70312 0 1.1562 0.046875 1.375 0.14062 0.45312 0.17188 0.71875 0.64062 0.71875 1.2344 0 1.1719-0.79688 1.875-2.125 1.875-0.45312 0-0.6875-0.14062-0.6875-0.45312 0-0.14062 0.125-0.65625 0.375-1.5 0.14062-0.46875 0.23438-0.79688 0.34375-1.2969zm0.8125-2.8438c0.0625-0.23438 0.20312-0.29688 0.625-0.29688 0.875 0 1.2656 0.35938 1.2656 1.1562 0 0.625-0.26562 1.1094-0.73438 1.3594-0.35938 0.20312-0.89062 0.29688-1.8594 0.28125z"/>
</g>
<g id="ah">
<path d="m1.4062-6.875c0.67188 0.0625 0.82812 0.15625 0.82812 0.4375 0 0.17188-0.046875 0.42188-0.125 0.6875l-1.3281 4.7812c-0.1875 0.625-0.26562 0.6875-0.875 0.79688v0.17188h2.7344c1.2656 0 2.4219-0.32812 3.25-0.9375 1.0469-0.76562 1.6719-1.9531 1.6719-3.2031 0-1.7812-1.2344-2.9062-3.1562-2.9062h-3zm1.9688 0.46875c0.0625-0.25 0.23438-0.3125 0.65625-0.3125 0.625 0 1.1562 0.125 1.5 0.39062 0.53125 0.375 0.82812 1.0625 0.82812 1.9062 0 1.1875-0.45312 2.3906-1.1875 3.125-0.64062 0.65625-1.5156 0.96875-2.6406 0.96875-0.48438 0-0.70312-0.10938-0.70312-0.39062 0-0.14062 0.0625-0.35938 0.25-1.0312z"/>
</g>
<g id="n">
<path d="m6.0938-0.17188c-0.625-0.0625-0.6875-0.14062-0.82812-0.92188l-1.0156-6.125h-0.28125l-3.125 5.4062c-0.85938 1.4375-0.96875 1.5469-1.3906 1.6406v0.17188h2.0156v-0.17188c-0.54688-0.0625-0.64062-0.10938-0.64062-0.375 0-0.20312 0.03125-0.3125 0.21875-0.67188l0.60938-1.2188h2.375l0.21875 1.4062c0.015625 0.10938 0.03125 0.20312 0.03125 0.28125 0 0.42188-0.15625 0.51562-0.84375 0.57812v0.17188h2.6562zm-4.2031-2.6562 1.625-2.8125 0.46875 2.8125z"/>
</g>
<g id="x">
<path d="m7.0469-5.0156 0.39062-2.1562h-0.21875c-0.09375 0.17188-0.20312 0.23438-0.42188 0.23438-0.09375 0-0.20312-0.015625-0.4375-0.0625-0.46875-0.125-0.90625-0.1875-1.2656-0.1875-2.3125 0-4.375 2.1562-4.375 4.5625 0 1.6562 1.1562 2.8125 2.8125 2.8125 1.1094 0 1.9688-0.45312 2.9531-1.6094l-0.1875-0.14062c-0.96875 0.95312-1.5938 1.2656-2.4844 1.2656-1.2031 0-1.8906-0.79688-1.8906-2.2031 0-1.2969 0.51562-2.5938 1.3594-3.4688 0.51562-0.53125 1.2031-0.82812 1.9062-0.82812 1 0 1.5469 0.57812 1.6562 1.75z"/>
</g>
<g id="d">
<path d="m1.5312-6.8438c0.51562 0.15625 0.9375 0.17188 1.0625 0.17188 1.3438 0 2.2188-0.98438 2.2188-1.1562 0-0.046875-0.03125-0.10938-0.10938-0.10938-0.015625 0-0.046875 0-0.15625 0.046875-0.65625 0.28125-1.2344 0.32812-1.5469 0.32812-0.78125 0-1.3438-0.25-1.5781-0.34375-0.078125-0.03125-0.10938-0.03125-0.125-0.03125-0.09375 0-0.09375 0.078125-0.09375 0.26562v3.5469c0 0.21875 0 0.28125 0.14062 0.28125 0.0625 0 0.078125 0 0.20312-0.15625 0.32812-0.48438 0.89062-0.76562 1.4844-0.76562 0.64062 0 0.95312 0.57812 1.0469 0.78125 0.20312 0.46875 0.21875 1.0625 0.21875 1.5156s0 1.125-0.34375 1.6719c-0.26562 0.42188-0.71875 0.71875-1.25 0.71875-0.79688 0-1.5625-0.53125-1.7812-1.4062 0.0625 0.03125 0.125 0.03125 0.1875 0.03125 0.20312 0 0.53125-0.10938 0.53125-0.51562 0-0.34375-0.23438-0.53125-0.53125-0.53125-0.21875 0-0.53125 0.10938-0.53125 0.57812 0 1.0156 0.82812 2.1719 2.1406 2.1719 1.3594 0 2.5469-1.1406 2.5469-2.6562 0-1.4219-0.96875-2.6094-2.2188-2.6094-0.6875 0-1.2031 0.3125-1.5156 0.64062z"/>
</g>
<g id="e">
<path d="m5.3594-3.8281c0-0.98438-0.0625-1.9531-0.5-2.8594-0.48438-1-1.3438-1.2656-1.9375-1.2656-0.6875 0-1.5312 0.34375-1.9844 1.3438-0.32812 0.75-0.45312 1.5-0.45312 2.7812 0 1.1562 0.09375 2.0312 0.51562 2.8906 0.46875 0.90625 1.2969 1.1875 1.9219 1.1875 1.0312 0 1.625-0.625 1.9844-1.3125 0.42188-0.89062 0.45312-2.0625 0.45312-2.7656zm-2.4375 3.8438c-0.39062 0-1.1719-0.21875-1.3906-1.5156-0.125-0.71875-0.125-1.625-0.125-2.4688 0-0.98438 0-1.8594 0.1875-2.5625 0.20312-0.8125 0.8125-1.1719 1.3281-1.1719 0.45312 0 1.1406 0.26562 1.375 1.2969 0.15625 0.6875 0.15625 1.625 0.15625 2.4375 0 0.79688 0 1.7031-0.14062 2.4375-0.21875 1.3125-0.98438 1.5469-1.3906 1.5469z"/>
</g>
<g id="i">
<path d="m3.8906 2.9062c0-0.03125 0-0.0625-0.20312-0.26562-1.2031-1.2031-1.875-3.1719-1.875-5.6094 0-2.3281 0.5625-4.3281 1.9531-5.7344 0.125-0.10938 0.125-0.125 0.125-0.17188 0-0.0625-0.0625-0.09375-0.10938-0.09375-0.15625 0-1.1406 0.85938-1.7188 2.0312-0.60938 1.2188-0.89062 2.4844-0.89062 3.9688 0 1.0625 0.17188 2.4844 0.78125 3.75 0.71875 1.4375 1.6875 2.2188 1.8281 2.2188 0.046875 0 0.10938-0.03125 0.10938-0.09375z"/>
</g>
<g id="aa">
<path d="m5.2656-2.0156h-0.26562c-0.046875 0.20312-0.14062 0.875-0.25 1.0625-0.09375 0.10938-0.76562 0.10938-1.125 0.10938h-2.2188c0.32812-0.28125 1.0625-1.0469 1.3594-1.3281 1.8281-1.6719 2.5-2.2969 2.5-3.4844 0-1.375-1.0938-2.2969-2.4844-2.2969-1.375 0-2.2031 1.1875-2.2031 2.2188 0 0.60938 0.53125 0.60938 0.5625 0.60938 0.26562 0 0.5625-0.1875 0.5625-0.5625 0-0.34375-0.21875-0.5625-0.5625-0.5625-0.09375 0-0.125 0-0.15625 0.015625 0.21875-0.8125 0.875-1.375 1.6406-1.375 1.0156 0 1.6406 0.85938 1.6406 1.9531 0 1.0156-0.57812 1.9062-1.2656 2.6719l-2.4219 2.7031v0.28125h4.375z"/>
</g>
<g id="h">
<path d="m3.375-2.9688c0-0.92188-0.125-2.3906-0.79688-3.7812-0.70312-1.4375-1.6875-2.2188-1.8125-2.2188-0.046875 0-0.10938 0.03125-0.10938 0.09375 0 0.046875 0 0.0625 0.20312 0.26562 1.2031 1.2031 1.8594 3.1875 1.8594 5.625 0 2.3125-0.5625 4.3125-1.9375 5.7188-0.125 0.10938-0.125 0.14062-0.125 0.17188 0 0.0625 0.0625 0.09375 0.10938 0.09375 0.15625 0 1.1406-0.85938 1.7188-2.0312 0.60938-1.2188 0.89062-2.5156 0.89062-3.9375z"/>
</g>
<g id="z">
<path d="m4.3125-7.7812c0-0.23438 0-0.28125-0.17188-0.28125-0.09375 0-0.125 0-0.21875 0.14062l-3.5938 5.5781v0.34375h3.1406v1.0938c0 0.4375-0.03125 0.5625-0.90625 0.5625h-0.23438v0.34375c0.28125-0.03125 1.2188-0.03125 1.5625-0.03125 0.32812 0 1.2812 0 1.5625 0.03125v-0.34375h-0.23438c-0.875 0-0.90625-0.125-0.90625-0.5625v-1.0938h1.2031v-0.34375h-1.2031zm-0.78125 0.9375v4.5h-2.9062z"/>
</g>
<g id="p">
<path d="m4.6719-5.0156c0.1875-0.1875 0.64062-0.625 0.84375-0.8125 1.6406-1.625 1.9844-1.9688 2.9219-1.9844v-0.34375c-0.34375 0.015625-0.48438 0.015625-1.0312 0.015625-0.3125 0-1.0156 0-1.2812-0.015625v0.34375c0.25 0 0.46875 0.10938 0.46875 0.375 0 0.1875-0.09375 0.29688-0.35938 0.54688l-3.6406 3.5156v-3.8594c0-0.57812 0.125-0.57812 1.1406-0.57812v-0.34375c-0.29688 0.015625-1.2656 0.015625-1.625 0.015625s-1.3281 0-1.625-0.015625v0.34375c1.0156 0 1.1406 0 1.1406 0.57812v6.2969c0 0.59375-0.125 0.59375-1.1406 0.59375v0.34375c0.29688-0.03125 1.2656-0.03125 1.625-0.03125s1.3281 0 1.625 0.03125v-0.34375c-1.0156 0-1.1406 0-1.1406-0.59375v-2.0781l1.4219-1.375 2.2188 3.3125c0.046875 0.078125 0.09375 0.15625 0.10938 0.21875 0.03125 0.046875 0.046875 0.10938 0.046875 0.17188 0 0.34375-0.4375 0.34375-0.625 0.34375v0.34375c0.28125-0.03125 1.1562-0.03125 1.5-0.03125 0.3125 0 0.90625 0 1.3281 0.03125v-0.34375c-0.64062 0-0.84375-0.0625-1.2344-0.64062z"/>
</g>
<g id="j">
<path d="m5.3125-2.9062c0-1.1094 0-1.4375-0.26562-1.8281-0.34375-0.46875-0.90625-0.53125-1.3125-0.53125-1.1719 0-1.625 0.98438-1.7188 1.2188v-1.2188l-1.6406 0.125v0.34375c0.8125 0 0.92188 0.09375 0.92188 0.67188v3.2344c0 0.54688-0.14062 0.54688-0.92188 0.54688v0.34375c0.3125-0.03125 0.96875-0.03125 1.2969-0.03125 0.34375 0 1 0 1.2969 0.03125v-0.34375c-0.75 0-0.90625 0-0.90625-0.54688v-2.2188c0-1.25 0.82812-1.9219 1.5781-1.9219 0.73438 0 0.90625 0.60938 0.90625 1.3438v2.7969c0 0.54688-0.14062 0.54688-0.90625 0.54688v0.34375c0.29688-0.03125 0.95312-0.03125 1.2812-0.03125 0.34375 0 1 0 1.3125 0.03125v-0.34375c-0.60938 0-0.90625 0-0.92188-0.35938z"/>
</g>
<g id="o">
<path d="m5.4844-2.5625c0-1.5312-1.1719-2.7656-2.5625-2.7656-1.4219 0-2.5625 1.2656-2.5625 2.7656 0 1.5312 1.1875 2.6875 2.5625 2.6875 1.4062 0 2.5625-1.1719 2.5625-2.6875zm-2.5625 2.4219c-0.4375 0-0.96875-0.1875-1.3125-0.78125-0.32812-0.53125-0.34375-1.2344-0.34375-1.75 0-0.45312 0-1.1719 0.375-1.7188 0.32812-0.51562 0.85938-0.70312 1.2812-0.70312 0.45312 0 0.96875 0.21875 1.2812 0.6875 0.375 0.54688 0.375 1.2969 0.375 1.7344 0 0.42188 0 1.1719-0.3125 1.7344-0.32812 0.5625-0.89062 0.79688-1.3438 0.79688z"/>
</g>
<g id="s">
<path d="m2.0156-4.8125h1.6719v-0.34375h-1.6719v-2.1875h-0.26562c-0.015625 1.1094-0.45312 2.2656-1.5312 2.2969v0.23438h1.0156v3.3281c0 1.3281 0.875 1.6094 1.5156 1.6094 0.75 0 1.1406-0.75 1.1406-1.6094v-0.67188h-0.25v0.65625c0 0.85938-0.35938 1.3594-0.8125 1.3594-0.8125 0-0.8125-1.1094-0.8125-1.3125z"/>
</g>
<g id="r">
<path d="m4.5781-2.7656c0.26562 0 0.28125 0 0.28125-0.23438 0-1.2031-0.64062-2.3281-2.0938-2.3281-1.3594 0-2.4062 1.2344-2.4062 2.7031 0 1.5781 1.2188 2.75 2.5469 2.75 1.4219 0 1.9531-1.2969 1.9531-1.5469 0-0.078125-0.046875-0.125-0.125-0.125-0.09375 0-0.125 0.0625-0.14062 0.125-0.3125 1-1.1094 1.2812-1.625 1.2812-0.5 0-1.7031-0.34375-1.7031-2.4062v-0.21875zm-3.2969-0.23438c0.09375-1.875 1.1406-2.0938 1.4844-2.0938 1.2812 0 1.3438 1.6875 1.3594 2.0938z"/>
</g>
<g id="ag">
<path d="m7.7969-8.1406c0-0.21875 0-0.28125-0.125-0.28125-0.0625 0-0.078125 0.03125-0.15625 0.15625l-0.57812 0.9375c-0.54688-0.67188-1.3594-1.0938-2.2188-1.0938-2.1875 0-4.0781 1.8906-4.0781 4.3281 0 2.4844 1.9219 4.3438 4.0781 4.3438 1.9688 0 3.0781-1.7031 3.0781-3.0156 0-0.14062 0-0.20312-0.14062-0.20312-0.10938 0-0.125 0.046875-0.125 0.14062-0.10938 1.8906-1.5 2.7344-2.6562 2.7344-0.82812 0-3.125-0.5-3.125-4 0-3.4531 2.25-3.9688 3.1094-3.9688 1.2656 0 2.3594 1.0625 2.5938 2.8438 0.03125 0.15625 0.03125 0.1875 0.17188 0.1875 0.17188 0 0.17188-0.03125 0.17188-0.28125z"/>
</g>
<g id="af">
<path d="m0.51562-8.1562v0.34375h0.23438c0.85938 0 0.90625 0.10938 0.90625 0.5625v6.3438c0 0.4375-0.046875 0.5625-0.90625 0.5625h-0.23438v0.34375h4.5c1.5312 0 2.6094-1.0469 2.6094-2.1875 0-0.96875-0.875-1.9219-2.2969-2.0781 1.1406-0.21875 1.9688-0.98438 1.9688-1.875 0-1.0312-1.0469-2.0156-2.6094-2.0156zm2.0469 3.7969v-2.9844c0-0.39062 0.015625-0.46875 0.54688-0.46875h1.5c1.2031 0 1.625 1.0156 1.625 1.6719 0 0.78125-0.60938 1.7812-1.9375 1.7812zm0.54688 4.0156c-0.53125 0-0.54688-0.09375-0.54688-0.48438v-3.2969h2.2344c1.1406 0 1.7344 1 1.7344 1.9219 0 0.96875-0.71875 1.8594-1.8906 1.8594z"/>
</g>
<g id="q">
<path d="m3.4375-7.6562c0-0.28125 0-0.29688-0.23438-0.29688-0.28125 0.32812-0.89062 0.76562-2.1094 0.76562v0.34375c0.26562 0 0.85938 0 1.5312-0.29688v6.2188c0 0.4375-0.046875 0.57812-1.0938 0.57812h-0.375v0.34375c0.32812-0.03125 1.4844-0.03125 1.875-0.03125 0.40625 0 1.5469 0 1.875 0.03125v-0.34375h-0.375c-1.0469 0-1.0938-0.14062-1.0938-0.57812z"/>
</g>
<g id="ae">
<path d="m2.2031-4.2969c-0.20312 0.015625-0.25 0.03125-0.25 0.14062s0.0625 0.10938 0.26562 0.10938h0.54688c1.0312 0 1.4844 0.84375 1.4844 1.9844 0 1.5781-0.8125 1.9844-1.4062 1.9844-0.57812 0-1.5469-0.26562-1.9062-1.0625 0.39062 0.0625 0.73438-0.15625 0.73438-0.57812 0-0.34375-0.25-0.59375-0.57812-0.59375-0.29688 0-0.60938 0.17188-0.60938 0.625 0 1.0625 1.0625 1.9375 2.3906 1.9375 1.4219 0 2.4844-1.0938 2.4844-2.2969 0-1.0938-0.89062-1.9531-2.0312-2.1562 1.0312-0.29688 1.7031-1.1719 1.7031-2.1094s-0.98438-1.6406-2.1406-1.6406c-1.1875 0-2.0781 0.73438-2.0781 1.6094 0 0.46875 0.375 0.57812 0.54688 0.57812 0.25 0 0.54688-0.1875 0.54688-0.54688 0-0.375-0.29688-0.54688-0.5625-0.54688-0.0625 0-0.09375 0-0.125 0.015625 0.45312-0.8125 1.5781-0.8125 1.6406-0.8125 0.39062 0 1.1719 0.17188 1.1719 1.3438 0 0.23438-0.03125 0.89062-0.39062 1.4062-0.35938 0.53125-0.76562 0.5625-1.0781 0.57812z"/>
</g>
<g id="ad">
<path d="m0.5-8.1562v0.34375h0.23438c0.875 0 0.90625 0.10938 0.90625 0.5625v6.3438c0 0.4375-0.03125 0.5625-0.90625 0.5625h-0.23438v0.34375h4.1875c2 0 3.5938-1.7969 3.5938-4 0-2.3125-1.6094-4.1562-3.5938-4.1562zm2.625 7.8125c-0.51562 0-0.54688-0.09375-0.54688-0.48438v-6.5156c0-0.39062 0.03125-0.46875 0.54688-0.46875h1.2656c0.98438 0 1.7812 0.46875 2.2656 1.2656 0.54688 0.84375 0.54688 2.0469 0.54688 2.5312 0 0.67188-0.015625 1.7969-0.70312 2.6719-0.39062 0.5-1.1094 1-2.1094 1z"/>
</g>
<g id="ac">
<path d="m1.4688-4.1562c0-3.0312 1.4688-3.5 2.1094-3.5 0.4375 0 0.875 0.125 1.0938 0.48438-0.14062 0-0.59375 0-0.59375 0.48438 0 0.26562 0.17188 0.5 0.48438 0.5 0.29688 0 0.5-0.1875 0.5-0.53125 0-0.625-0.45312-1.2344-1.4844-1.2344-1.5156 0-3.0938 1.5469-3.0938 4.1719 0 3.2969 1.4375 4.0312 2.4531 4.0312 1.3125 0 2.4219-1.1406 2.4219-2.6875 0-1.5938-1.1094-2.6562-2.3125-2.6562-1.0625 0-1.4531 0.92188-1.5781 1.25zm1.4688 4.0781c-0.75 0-1.1094-0.65625-1.2188-0.90625-0.10938-0.3125-0.21875-0.90625-0.21875-1.7344 0-0.95312 0.42188-2.1406 1.5-2.1406 0.65625 0 1 0.45312 1.1875 0.85938 0.1875 0.4375 0.1875 1.0312 0.1875 1.5469 0 0.60938 0 1.1562-0.23438 1.6094-0.29688 0.5625-0.71875 0.76562-1.2031 0.76562z"/>
</g>
<g id="ab">
<path d="m5.6719-7.4219v-0.28125h-2.875c-1.4531 0-1.4688-0.15625-1.5156-0.375h-0.26562l-0.375 2.3906h0.26562c0.03125-0.21875 0.14062-0.95312 0.29688-1.0938 0.09375-0.0625 1-0.0625 1.1562-0.0625h2.5469l-1.2656 1.8125c-0.32812 0.46875-1.5312 2.4219-1.5312 4.6719 0 0.125 0 0.60938 0.48438 0.60938 0.5 0 0.5-0.46875 0.5-0.625v-0.59375c0-1.7812 0.28125-3.1719 0.84375-3.9688z"/>
</g>
<g id="g">
<path d="m4.375-7.3438c0.10938-0.45312 0.15625-0.46875 0.625-0.46875h1.5469c1.3594 0 1.3594 1.1406 1.3594 1.25 0 0.96875-0.96875 2.2031-2.5469 2.2031h-1.7188zm2.0156 3.0781c1.3125-0.23438 2.4844-1.1562 2.4844-2.25 0-0.9375-0.8125-1.6406-2.1719-1.6406h-3.8281c-0.23438 0-0.34375 0-0.34375 0.21875 0 0.125 0.10938 0.125 0.29688 0.125 0.71875 0 0.71875 0.09375 0.71875 0.21875 0 0.03125 0 0.09375-0.046875 0.28125l-1.6094 6.4219c-0.10938 0.42188-0.14062 0.54688-0.96875 0.54688-0.23438 0-0.34375 0-0.34375 0.21875 0 0.125 0.0625 0.125 0.3125 0.125h4.0938c1.8281 0 3.2344-1.3906 3.2344-2.5938 0-0.98438-0.85938-1.5781-1.8281-1.6719zm-1.6875 3.9219h-1.625c-0.15625 0-0.1875 0-0.25-0.015625-0.14062-0.015625-0.15625-0.03125-0.15625-0.125s0.03125-0.15625 0.046875-0.26562l0.84375-3.375h2.25c1.4062 0 1.4062 1.3125 1.4062 1.4062 0 1.1562-1.0312 2.375-2.5156 2.375z"/>
</g>
<g id="f">
<path d="m1.875-0.89062c-0.10938 0.42188-0.125 0.54688-0.96875 0.54688-0.21875 0-0.34375 0-0.34375 0.21875 0 0.125 0.078125 0.125 0.3125 0.125h3.7812c2.4219 0 4.7812-2.5 4.7812-5.1562 0-1.7344-1.0312-3-2.75-3h-3.8281c-0.23438 0-0.34375 0-0.34375 0.21875 0 0.125 0.10938 0.125 0.29688 0.125 0.71875 0 0.71875 0.09375 0.71875 0.21875 0 0.03125 0 0.09375-0.046875 0.28125zm2.5312-6.4531c0.09375-0.45312 0.14062-0.46875 0.60938-0.46875h1.3125c1.125 0 2.1562 0.60938 2.1562 2.25 0 0.60938-0.23438 2.6875-1.3906 4-0.34375 0.39062-1.25 1.2188-2.625 1.2188h-1.3594c-0.17188 0-0.1875 0-0.26562-0.015625-0.125-0.015625-0.14062-0.03125-0.14062-0.125s0.015625-0.15625 0.046875-0.26562z"/>
</g>
<g id="a">
<path d="m2.0312-1.3281c-0.42188 0.70312-0.82812 0.95312-1.3906 0.98438-0.14062 0.015625-0.23438 0.015625-0.23438 0.21875 0 0.078125 0.0625 0.125 0.14062 0.125 0.21875 0 0.75-0.03125 0.96875-0.03125 0.34375 0 0.73438 0.03125 1.0625 0.03125 0.078125 0 0.21875 0 0.21875-0.23438 0-0.09375-0.09375-0.10938-0.17188-0.10938-0.26562-0.03125-0.5-0.125-0.5-0.40625 0-0.17188 0.078125-0.29688 0.23438-0.5625l0.90625-1.5156h3.0469c0.015625 0.10938 0.015625 0.20312 0.015625 0.3125 0.046875 0.3125 0.1875 1.5625 0.1875 1.7812 0 0.35938-0.60938 0.39062-0.79688 0.39062-0.14062 0-0.26562 0-0.26562 0.21875 0 0.125 0.10938 0.125 0.17188 0.125 0.20312 0 0.45312-0.03125 0.65625-0.03125h0.67188c0.73438 0 1.2656 0.03125 1.2656 0.03125 0.09375 0 0.21875 0 0.21875-0.23438 0-0.10938-0.10938-0.10938-0.28125-0.10938-0.65625 0-0.67188-0.10938-0.70312-0.46875l-0.73438-7.4531c-0.03125-0.25-0.078125-0.26562-0.20312-0.26562s-0.1875 0.015625-0.29688 0.20312zm1.4375-1.8438 2.4062-4.0156 0.40625 4.0156z"/>
</g>
<g id="c">
<path d="m8.9219-8.3125c0-0.10938-0.078125-0.10938-0.09375-0.10938-0.03125 0-0.078125 0-0.17188 0.125l-0.82812 1c-0.42188-0.71875-1.0781-1.125-1.9688-1.125-2.5781 0-5.2656 2.625-5.2656 5.4375 0 2 1.4062 3.2344 3.1406 3.2344 0.96875 0 1.7969-0.40625 2.5-0.98438 1.0312-0.875 1.3438-2.0312 1.3438-2.1406 0-0.09375-0.09375-0.09375-0.125-0.09375-0.10938 0-0.125 0.0625-0.15625 0.10938-0.54688 1.875-2.1562 2.7656-3.3594 2.7656-1.2656 0-2.3594-0.8125-2.3594-2.5156 0-0.375 0.125-2.4531 1.4688-4.0312 0.65625-0.76562 1.7812-1.4219 2.9219-1.4219 1.3125 0 1.8906 1.0781 1.8906 2.2969 0 0.3125-0.03125 0.57812-0.03125 0.625 0 0.10938 0.125 0.10938 0.15625 0.10938 0.125 0 0.14062-0.015625 0.1875-0.23438z"/>
</g>
<g id="w">
<path d="m5.1719-1.875h1.1562v-0.51562h-1.1562v-5.125c0-0.29688-0.015625-0.34375-0.3125-0.34375-0.20312 0-0.23438 0-0.375 0.17188l-4.1094 5.2969v0.51562h3.3906v1.3594h-1.2969v0.51562c0.34375-0.03125 1.5312-0.03125 1.9531-0.03125 0.40625 0 1.5938 0 1.9062 0.03125v-0.51562h-1.1562zm-1.2969-4.3125v3.7969h-2.9531z"/>
</g>
<g id="m">
<path d="m1.8438-6.2031c0.40625 0.09375 0.71875 0.09375 0.90625 0.09375 0.28125 0 0.96875 0 1.7656-0.48438 0.375-0.23438 1-0.76562 1-1.0469 0-0.0625 0-0.20312-0.15625-0.20312 0 0-0.03125 0-0.14062 0.0625-0.5625 0.1875-1.1406 0.32812-1.8125 0.32812-0.6875 0-1.25-0.14062-1.8125-0.34375-0.09375-0.015625-0.125-0.046875-0.15625-0.046875-0.14062 0-0.14062 0.125-0.14062 0.32812v3.4688c0 0.23438 0 0.35938 0.23438 0.35938 0.125 0 0.14062 0 0.23438-0.125 0.14062-0.17188 0.57812-0.6875 1.5938-0.6875 1.0938 0 1.0938 1.125 1.0938 2.0625 0 0.85938 0 2.1094-1.4688 2.1094-0.4375 0-1.1875-0.17188-1.5938-0.85938 0.625 0 0.78125-0.46875 0.78125-0.73438 0-0.4375-0.3125-0.75-0.75-0.75-0.35938 0-0.75 0.20312-0.75 0.76562 0 1.0469 0.9375 2.0469 2.3594 2.0469 1.8438 0 3-1.0625 3-2.5469 0-1.4531-0.98438-2.5-2.625-2.5-0.48438 0-1.0469 0.09375-1.5625 0.48438z"/>
</g>
<g id="l">
<path d="m3.125-3.9531c1.3281 0 1.3281 1.2344 1.3281 1.8125 0 0.53125 0 1.8125-1.2812 1.8125-0.25 0-1.0469-0.046875-1.625-0.45312 0.51562-0.10938 0.70312-0.46875 0.70312-0.82812 0-0.5-0.34375-0.84375-0.84375-0.84375s-0.84375 0.34375-0.84375 0.84375c0 1.1094 1.1875 1.75 2.6719 1.75 1.9688 0 2.9062-1.0781 2.9062-2.2812 0-0.57812-0.29688-1.7188-2.1406-2.0469 1.0469-0.3125 1.7656-1.0625 1.7656-2 0-0.90625-0.85938-1.6562-2.5156-1.6562-1.3438 0-2.3125 0.70312-2.3125 1.6719 0 0.60938 0.46875 0.79688 0.76562 0.79688 0.35938 0 0.76562-0.23438 0.76562-0.78125 0-0.28125-0.10938-0.6875-0.67188-0.76562 0.5-0.48438 1.3125-0.48438 1.375-0.48438 1.0781 0 1.0781 0.8125 1.0781 1.1719s-0.046875 0.92188-0.4375 1.4062c-0.3125 0.40625-0.625 0.42188-1.0781 0.45312-0.14062 0.015625-0.375 0.03125-0.42188 0.046875-0.078125 0.03125-0.078125 0.125-0.078125 0.17188 0 0.20312 0.078125 0.20312 0.3125 0.20312z"/>
</g>
<g id="v">
<path d="m2.0781-4.3281c0-0.73438 0.03125-1.4688 0.375-2.1094 0.26562-0.5 0.875-0.96875 1.6406-0.96875 0.23438 0 0.65625 0.03125 0.95312 0.32812-0.45312 0.046875-0.64062 0.39062-0.64062 0.70312 0 0.4375 0.3125 0.70312 0.70312 0.70312 0.3125 0 0.70312-0.20312 0.70312-0.71875 0-0.71875-0.48438-1.4531-1.7344-1.4531-1.5 0-3.5156 0.9375-3.5156 4.0469 0 0.8125 0 3.9375 2.8281 3.9375 1.5781 0 2.75-0.92188 2.75-2.6094 0-1.6719-1.1562-2.5469-2.5781-2.5469-0.23438 0-1 0-1.4844 1.0156zm1.2969 4c-0.75 0-1.0625-0.65625-1.1094-0.75-0.15625-0.39062-0.15625-1.3438-0.15625-1.4531 0-1.4688 0.625-2.0938 1.3281-2.0938 1.1875 0 1.1875 0.95312 1.1875 2.1562 0 1.1719 0 2.1406-1.25 2.1406z"/>
</g>
<g id="y">
<path d="m6.0312-2.5625h-0.5c-0.03125 0.25-0.10938 0.95312-0.29688 1.0625-0.09375 0.09375-1.0312 0.09375-1.2031 0.09375h-1.8594c0.45312-0.39062 1.5469-1.2969 1.7188-1.4219 1.3281-1 2.1406-1.6094 2.1406-2.75 0-1.4219-1.2812-2.2656-2.8594-2.2656-1.3438 0-2.5 0.76562-2.5 1.9062 0 0.625 0.51562 0.8125 0.78125 0.8125 0.375 0 0.8125-0.25 0.8125-0.79688 0-0.51562-0.375-0.76562-0.75-0.8125 0.48438-0.54688 1.1094-0.59375 1.3594-0.59375 1.1094 0 1.625 0.89062 1.625 1.7656 0 0.92188-0.625 1.7812-1.125 2.2969l-2.5938 2.7188c-0.10938 0.10938-0.10938 0.125-0.10938 0.34375v0.20312h5.0156z"/>
</g>
<g id="k">
<path d="m6.4062-7.1562c0.10938-0.125 0.10938-0.14062 0.10938-0.54688h-2.5156c-0.09375 0-1.875-0.046875-2.0156-0.078125-0.29688-0.046875-0.32812-0.17188-0.34375-0.29688h-0.5l-0.40625 2.9531h0.51562c0-0.125 0.09375-0.95312 0.29688-1.0938 0.10938-0.0625 1.1094-0.0625 1.2969-0.0625h2.1719c-1.3906 1.6719-1.5469 1.875-1.9219 2.5781-0.70312 1.3906-0.8125 2.4531-0.8125 3.0469 0 0.79688 0.60938 0.79688 0.70312 0.79688 0.29688 0 0.46875-0.15625 0.54688-0.23438 0.15625-0.1875 0.15625-0.34375 0.15625-0.85938 0-1.8281 0.17188-3.1719 0.92188-4.0625z"/>
</g>
<g id="u">
<path d="m4.5-4.4062c0.60938-0.29688 1.2656-0.75 1.2656-1.6719 0-1.2344-1.0938-1.7656-2.3906-1.7656-1.5938 0-2.4375 0.90625-2.4375 2.0781 0 0.64062 0.3125 1.3594 1.2031 1.8281-1.3594 0.59375-1.5781 1.4219-1.5781 2.0312 0 1.375 1.1875 2.0469 2.7656 2.0469 1.7812 0 2.8125-0.95312 2.8125-2.3438 0-1.2969-1.0312-1.8594-1.6406-2.2031zm-2.1406-1.2188c-0.25-0.14062-0.57812-0.40625-0.57812-0.8125 0-0.95312 1.2812-0.96875 1.5469-0.96875 1.0156 0 1.5938 0.53125 1.5938 1.3281 0 0.48438-0.21875 1-0.89062 1.3906zm0.26562 1.9688 1.6562 0.9375c0.39062 0.23438 0.90625 0.51562 0.90625 1.125 0 0.95312-0.95312 1.2656-1.8125 1.2656-1.1875 0-1.8594-0.64062-1.8594-1.5781 0-0.875 0.54688-1.4219 1.1094-1.75z"/>
</g>
<g id="t">
<path d="m4.625-3.375c0 0.84375 0 3.0469-1.8594 3.0469-0.375 0-0.8125-0.10938-1.0625-0.29688 0.35938-0.0625 0.60938-0.3125 0.60938-0.70312 0-0.42188-0.32812-0.70312-0.70312-0.70312-0.3125 0-0.71875 0.20312-0.71875 0.73438 0 0.82812 0.65625 1.4375 1.8906 1.4375 1.5156 0 3.3594-0.98438 3.3594-4.0781 0-0.79688 0-3.9062-2.7656-3.9062-1.6406 0-2.8125 0.95312-2.8125 2.5938 0 1.6719 1.1406 2.5625 2.5781 2.5625 0.5 0 1.1094-0.1875 1.4844-1.0312zm-1.3594 0.29688c-1.1875 0-1.1875-0.96875-1.1875-2.1406 0-1.1562 0-2.1875 1.2969-2.1875 0.76562 0 1.0469 0.67188 1.0938 0.8125 0.125 0.35938 0.14062 1.0938 0.14062 1.4844 0 0.84375-0.34375 2.0312-1.3438 2.0312z"/>
</g>
<g id="b">
<path d="m6.0781-3.2344c-0.65625-0.8125-0.79688-1-1.1719-1.2969-0.65625-0.53125-1.3281-0.75-1.9375-0.75-1.4062 0-2.3125 1.3125-2.3125 2.7188 0 1.375 0.89062 2.6875 2.2656 2.6875s2.3594-1.0781 2.9531-2.0312c0.64062 0.8125 0.78125 0.98438 1.1562 1.2812 0.67188 0.54688 1.3281 0.75 1.9531 0.75 1.3906 0 2.2969-1.3125 2.2969-2.7031 0-1.375-0.875-2.7031-2.25-2.7031s-2.375 1.0781-2.9531 2.0469zm0.3125 0.40625c0.48438-0.85938 1.3594-2.0781 2.7188-2.0781 1.2656 0 1.9062 1.25 1.9062 2.3281 0 1.1719-0.79688 2.1406-1.8438 2.1406-0.70312 0-1.2344-0.5-1.4844-0.75-0.29688-0.32812-0.57812-0.70312-1.2969-1.6406zm-0.82812 0.51562c-0.5 0.85938-1.375 2.0625-2.7344 2.0625-1.2656 0-1.9062-1.25-1.9062-2.3125 0-1.1719 0.79688-2.1406 1.8438-2.1406 0.70312 0 1.2344 0.5 1.4844 0.75 0.29688 0.3125 0.57812 0.6875 1.3125 1.6406z"/>
</g>
<clipPath id="ba">
<path d="m93 243h70v18h-70z"/>
</clipPath>
<clipPath id="az">
<path d="m-20.473 516.62h298v-518h-298zm116.73-269.94 0.21094-0.33203 5.0078 1.6211-1.7695 0.92969-0.32812 1.9805z" clip-rule="evenodd"/>
</clipPath>
<clipPath id="aq">
<path d="m93 306h70v16h-70z"/>
</clipPath>
<clipPath id="ap">
<path d="m-20.473 516.62h298v-518h-298zm180.06-207.27 0.20703 0.33203-3.5078 3.9297-0.12109-2.0117-1.7109-1.0781z" clip-rule="evenodd"/>
</clipPath>
<clipPath id="ao">
<path d="m156 243h88v16h-88z"/>
</clipPath>
<clipPath id="an">
<path d="m-20.473 516.62h298v-518h-298zm261.09-270.27 0.17969 0.35938-3.9297 3.5117 0.089843-2.0117-1.5586-1.2578z" clip-rule="evenodd"/>
</clipPath>
<clipPath id="am">
<path d="m93 369h70v18h-70z"/>
</clipPath>
<clipPath id="al">
<path d="m-20.473 516.62h298v-518h-298zm116.73-143.94 0.21094-0.33203 5.0078 1.6211-1.7695 0.92969-0.32812 1.9805z" clip-rule="evenodd"/>
</clipPath>
<clipPath id="ak">
<path d="m156 369h88v16h-88z"/>
</clipPath>
<clipPath id="aj">
<path d="m-20.473 516.62h298v-518h-298zm261.12-142.02 0.14844 0.39062-4.2305 3.1797 0.27344-2.0117-1.4414-1.4102z" clip-rule="evenodd"/>
</clipPath>
<clipPath id="ay">
<path d="m93 432h70v16h-70z"/>
</clipPath>
<clipPath id="ax">
<path d="m-20.473 516.62h298v-518h-298zm180.06-81.27 0.20703 0.33203-3.5078 3.9297-0.12109-2.0117-1.7109-1.0781z" clip-rule="evenodd"/>
</clipPath>
<clipPath id="aw">
<path d="m93 495h70v13h-70z"/>
</clipPath>
<clipPath id="av">
<path d="m-20.473 516.62h298v-518h-298zm116.73-17.938 0.21094-0.33203 5.1289 1.1719-1.7109 1.0781-0.11719 2.0117z" clip-rule="evenodd"/>
</clipPath>
<clipPath id="au">
<path d="m156 495h88v13h-88z"/>
</clipPath>
<clipPath id="at">
<path d="m-20.473 516.62h298v-518h-298zm261.09-18.27 0.17969 0.35938-3.9297 3.5117 0.089843-2.0117-1.5586-1.2578z" clip-rule="evenodd"/>
</clipPath>
<clipPath id="as">
<path d="m93 117h70v16h-70z"/>
</clipPath>
<clipPath id="ar">
<path d="m-20.473 516.62h298v-518h-298zm180.06-396.27 0.20703 0.33203-3.5078 3.9297-0.12109-2.0117-1.7109-1.0781z" clip-rule="evenodd"/>
</clipPath>
</defs>
<g clip-path="url(#ba)">
<g clip-path="url(#az)">
<path transform="matrix(.1 0 0 -.1 -20.472 516.62)" d="m1800 2700c-90.039-70.039-200.9-108.09-315-108.09-114.1 0-224.96 38.047-315 108.09" fill="none" stroke="#000" stroke-miterlimit="10" stroke-width="2.25"/>
</g>
</g>
<path d="m101.48 247.97-4.707-1.1719 2.6094 4.082 0.32812-1.9805 1.7695-0.92969" fill-rule="evenodd"/>
<path transform="matrix(.1 0 0 -.1 -20.472 516.62)" d="m1219.5 2686.5-47.07 11.719 26.094-40.82 3.2812 19.805z" fill="none" stroke="#000" stroke-miterlimit="10" stroke-width="2.25"/>
<g clip-path="url(#aq)">
<g clip-path="url(#ap)">
<path transform="matrix(.1 0 0 -.1 -20.472 516.62)" d="m1170 2070c94.141-59.922 203.4-91.758 315-91.758 111.6 0 220.86 31.836 315 91.758" fill="none" stroke="#000" stroke-miterlimit="10" stroke-width="2.25"/>
</g>
</g>
<path d="m156.29 313.61 2.9688-3.8398-4.8008 0.75 1.7109 1.0781 0.12109 2.0117" fill-rule="evenodd"/>
<path transform="matrix(.1 0 0 -.1 -20.472 516.62)" d="m1767.6 2030.1 29.688 38.398-48.008-7.5 17.109-10.781z" fill="none" stroke="#000" stroke-miterlimit="10" stroke-width="2.25"/>
<g clip-path="url(#ao)">
<g clip-path="url(#an)">
<path transform="matrix(.1 0 0 -.1 -20.472 516.62)" d="m2610 2700c-126.6-59.961-264.92-91.094-405-91.094s-278.4 31.133-405 91.094" fill="none" stroke="#000" stroke-miterlimit="10" stroke-width="2.25"/>
</g>
</g>
<path d="m236.87 250.22 3.3594-3.4805-4.8281 0.21094 1.5586 1.2578-0.089843 2.0117" fill-rule="evenodd"/>
<path transform="matrix(.1 0 0 -.1 -20.472 516.62)" d="m2573.4 2664 33.594 34.805-48.281-2.1094 15.586-12.578z" fill="none" stroke="#000" stroke-miterlimit="10" stroke-width="2.25"/>
<g clip-path="url(#am)">
<g clip-path="url(#al)">
<path transform="matrix(.1 0 0 -.1 -20.472 516.62)" d="m1800 1440c-90.039-70.039-200.9-108.09-315-108.09-114.1 0-224.96 38.047-315 108.09" fill="none" stroke="#000" stroke-miterlimit="10" stroke-width="2.25"/>
</g>
</g>
<path d="m101.48 373.97-4.707-1.1719 2.6094 4.082 0.32812-1.9805 1.7695-0.92969" fill-rule="evenodd"/>
<path transform="matrix(.1 0 0 -.1 -20.472 516.62)" d="m1219.5 1426.5-47.07 11.719 26.094-40.82 3.2812 19.805z" fill="none" stroke="#000" stroke-miterlimit="10" stroke-width="2.25"/>
<g clip-path="url(#ak)">
<g clip-path="url(#aj)">
<path transform="matrix(.1 0 0 -.1 -20.472 516.62)" d="m2610 1417.5c-120.66-44.727-248.36-67.617-377.07-67.617-148.95 0-296.33 30.703-432.93 90.117" fill="none" stroke="#000" stroke-miterlimit="10" stroke-width="2.25"/>
</g>
</g>
<path d="m236.57 378.17 3.6602-3.2109-4.8281-0.21094 1.4414 1.4102-0.27344 2.0117" fill-rule="evenodd"/>
<path transform="matrix(.1 0 0 -.1 -20.472 516.62)" d="m2570.4 1384.5 36.602 32.109-48.281 2.1094 14.414-14.102z" fill="none" stroke="#000" stroke-miterlimit="10" stroke-width="2.25"/>
<g clip-path="url(#ay)">
<g clip-path="url(#ax)">
<path transform="matrix(.1 0 0 -.1 -20.472 516.62)" d="m1170 810.01c94.141-59.922 203.4-91.758 315-91.758 111.6 0 220.86 31.836 315 91.758" fill="none" stroke="#000" stroke-miterlimit="10" stroke-width="2.25"/>
</g>
</g>
<path d="m156.29 439.61 2.9688-3.8398-4.8008 0.75 1.7109 1.0781 0.12109 2.0117" fill-rule="evenodd"/>
<path transform="matrix(.1 0 0 -.1 -20.472 516.62)" d="m1767.6 770.09 29.688 38.398-48.008-7.5 17.109-10.781z" fill="none" stroke="#000" stroke-miterlimit="10" stroke-width="2.25"/>
<g clip-path="url(#aw)">
<g clip-path="url(#av)">
<path transform="matrix(.1 0 0 -.1 -20.472 516.62)" d="m1800 180.01c-94.141-59.922-203.4-91.758-315-91.758-111.6 0-220.86 31.836-315 91.758" fill="none" stroke="#000" stroke-miterlimit="10" stroke-width="2.25"/>
</g>
</g>
<path d="m101.6 499.52-4.8008-0.75 2.9727 3.8398 0.11719-2.0117 1.7109-1.0781" fill-rule="evenodd"/>
<path transform="matrix(.1 0 0 -.1 -20.472 516.62)" d="m1220.7 170.98-48.008 7.5 29.727-38.398 1.1719 20.117z" fill="none" stroke="#000" stroke-miterlimit="10" stroke-width="2.25"/>
<g clip-path="url(#au)">
<g clip-path="url(#at)">
<path transform="matrix(.1 0 0 -.1 -20.472 516.62)" d="m2610 180.01c-126.6-60-264.92-91.094-405-91.094s-278.4 31.094-405 91.094" fill="none" stroke="#000" stroke-miterlimit="10" stroke-width="2.25"/>
</g>
</g>
<path d="m236.87 502.22 3.3594-3.4805-4.8281 0.21094 1.5586 1.2578-0.089843 2.0117" fill-rule="evenodd"/>
<path transform="matrix(.1 0 0 -.1 -20.472 516.62)" d="m2573.4 143.99 33.594 34.805-48.281-2.1094 15.586-12.578z" fill="none" stroke="#000" stroke-miterlimit="10" stroke-width="2.25"/>
<path transform="matrix(.1 0 0 -.1 -20.472 516.62)" d="m2790 4860c-347.58 119.18-712.54 180-1080 180-367.46 0-732.38-60.82-1080-180" fill="none" stroke="#000" stroke-miterlimit="10" stroke-width="2.25"/>
<path transform="matrix(.1 0 0 -.1 -20.472 516.62)" d="m1710 3060v-360" fill="none" stroke="#000" stroke-miterlimit="10" stroke-width="2.25"/>
<path transform="matrix(.1 0 0 -.1 -20.472 516.62)" d="m1530 2880h540" fill="none" stroke="#000" stroke-miterlimit="10" stroke-width="2.25"/>
<path transform="matrix(.1 0 0 -.1 -20.472 516.62)" d="m1890 3060v-360" fill="none" stroke="#000" stroke-miterlimit="10" stroke-width="2.25"/>
<path transform="matrix(.1 0 0 -.1 -20.472 516.62)" d="m1530 2700h540v360h-540z" fill="none" stroke="#000" stroke-miterlimit="10" stroke-width="2.25"/>
<path transform="matrix(.1 0 0 -.1 -20.472 516.62)" d="m899.99 3060v-360" fill="none" stroke="#000" stroke-miterlimit="10" stroke-width="2.25"/>
<path transform="matrix(.1 0 0 -.1 -20.472 516.62)" d="m1080 3060v-360" fill="none" stroke="#000" stroke-miterlimit="10" stroke-width="2.25"/>
<path transform="matrix(.1 0 0 -.1 -20.472 516.62)" d="m2520 3060v-360" fill="none" stroke="#000" stroke-miterlimit="10" stroke-width="2.25"/>
<path transform="matrix(.1 0 0 -.1 -20.472 516.62)" d="m2340 2880h540" fill="none" stroke="#000" stroke-miterlimit="10" stroke-width="2.25"/>
<path transform="matrix(.1 0 0 -.1 -20.472 516.62)" d="m1710 3690v-360" fill="none" stroke="#000" stroke-miterlimit="10" stroke-width="2.25"/>
<path transform="matrix(.1 0 0 -.1 -20.472 516.62)" d="m1530 3510h540" fill="none" stroke="#000" stroke-miterlimit="10" stroke-width="2.25"/>
<path transform="matrix(.1 0 0 -.1 -20.472 516.62)" d="m1890 3690v-360" fill="none" stroke="#000" stroke-miterlimit="10" stroke-width="2.25"/>
<path transform="matrix(.1 0 0 -.1 -20.472 516.62)" d="m1530 3330h540v360h-540z" fill="none" stroke="#000" stroke-miterlimit="10" stroke-width="2.25"/>
<path transform="matrix(.1 0 0 -.1 -20.472 516.62)" d="m899.99 3690v-360" fill="none" stroke="#000" stroke-miterlimit="10" stroke-width="2.25"/>
<path transform="matrix(.1 0 0 -.1 -20.472 516.62)" d="m719.99 3330h540v360h-540z" fill="none" stroke="#000" stroke-miterlimit="10" stroke-width="2.25"/>
<path transform="matrix(.1 0 0 -.1 -20.472 516.62)" d="m2340 3510h540" fill="none" stroke="#000" stroke-miterlimit="10" stroke-width="2.25"/>
<path transform="matrix(.1 0 0 -.1 -20.472 516.62)" d="m1710 2430v-360" fill="none" stroke="#000" stroke-miterlimit="10" stroke-width="2.25"/>
<path transform="matrix(.1 0 0 -.1 -20.472 516.62)" d="m1530 2250h540" fill="none" stroke="#000" stroke-miterlimit="10" stroke-width="2.25"/>
<path transform="matrix(.1 0 0 -.1 -20.472 516.62)" d="m1890 2430v-360" fill="none" stroke="#000" stroke-miterlimit="10" stroke-width="2.25"/>
<path transform="matrix(.1 0 0 -.1 -20.472 516.62)" d="m1530 2070h540v360h-540z" fill="none" stroke="#000" stroke-miterlimit="10" stroke-width="2.25"/>
<path transform="matrix(.1 0 0 -.1 -20.472 516.62)" d="m899.99 2430v-360" fill="none" stroke="#000" stroke-miterlimit="10" stroke-width="2.25"/>
<path transform="matrix(.1 0 0 -.1 -20.472 516.62)" d="m719.99 2250h540" fill="none" stroke="#000" stroke-miterlimit="10" stroke-width="2.25"/>
<path transform="matrix(.1 0 0 -.1 -20.472 516.62)" d="m1080 2430v-360" fill="none" stroke="#000" stroke-miterlimit="10" stroke-width="2.25"/>
<path transform="matrix(.1 0 0 -.1 -20.472 516.62)" d="m719.99 2070h540v360h-540z" fill="none" stroke="#000" stroke-miterlimit="10" stroke-width="2.25"/>
<path transform="matrix(.1 0 0 -.1 -20.472 516.62)" d="m2520 2430v-360" fill="none" stroke="#000" stroke-miterlimit="10" stroke-width="2.25"/>
<path transform="matrix(.1 0 0 -.1 -20.472 516.62)" d="m2340 2250h540" fill="none" stroke="#000" stroke-miterlimit="10" stroke-width="2.25"/>
<path transform="matrix(.1 0 0 -.1 -20.472 516.62)" d="m1710 4320v-360" fill="none" stroke="#000" stroke-miterlimit="10" stroke-width="2.25"/>
<path transform="matrix(.1 0 0 -.1 -20.472 516.62)" d="m1530 4140h540" fill="none" stroke="#000" stroke-miterlimit="10" stroke-width="2.25"/>
<path transform="matrix(.1 0 0 -.1 -20.472 516.62)" d="m1890 4320v-360" fill="none" stroke="#000" stroke-miterlimit="10" stroke-width="2.25"/>
<path transform="matrix(.1 0 0 -.1 -20.472 516.62)" d="m1530 3960h540v360h-540z" fill="none" stroke="#000" stroke-miterlimit="10" stroke-width="2.25"/>
<path transform="matrix(.1 0 0 -.1 -20.472 516.62)" d="m899.99 4320v-360" fill="none" stroke="#000" stroke-miterlimit="10" stroke-width="2.25"/>
<path transform="matrix(.1 0 0 -.1 -20.472 516.62)" d="m719.99 4140h540" fill="none" stroke="#000" stroke-miterlimit="10" stroke-width="2.25"/>
<path transform="matrix(.1 0 0 -.1 -20.472 516.62)" d="m2520 4320v-360" fill="none" stroke="#000" stroke-miterlimit="10" stroke-width="2.25"/>
<path transform="matrix(.1 0 0 -.1 -20.472 516.62)" d="m2520 3690v-360" fill="none" stroke="#000" stroke-miterlimit="10" stroke-width="2.25"/>
<path transform="matrix(.1 0 0 -.1 -20.472 516.62)" d="m719.99 3960h540v360h-540z" fill="none" stroke="#000" stroke-miterlimit="10" stroke-width="2.25"/>
<path transform="matrix(.1 0 0 -.1 -20.472 516.62)" d="m1080 4320v-360" fill="none" stroke="#000" stroke-miterlimit="10" stroke-width="2.25"/>
<path transform="matrix(.1 0 0 -.1 -20.472 516.62)" d="m719.99 3510h540" fill="none" stroke="#000" stroke-miterlimit="10" stroke-width="2.25"/>
<path transform="matrix(.1 0 0 -.1 -20.472 516.62)" d="m1080 3690v-360" fill="none" stroke="#000" stroke-miterlimit="10" stroke-width="2.25"/>
<path transform="matrix(.1 0 0 -.1 -20.472 516.62)" d="m719.99 2880h540" fill="none" stroke="#000" stroke-miterlimit="10" stroke-width="2.25"/>
<path transform="matrix(.1 0 0 -.1 -20.472 516.62)" d="m719.99 2700h540v360h-540z" fill="none" stroke="#000" stroke-miterlimit="10" stroke-width="2.25"/>
<path transform="matrix(.1 0 0 -.1 -20.472 516.62)" d="m2340 4140h540" fill="none" stroke="#000" stroke-miterlimit="10" stroke-width="2.25"/>
<path transform="matrix(.1 0 0 -.1 -20.472 516.62)" d="m1710 1800v-360" fill="none" stroke="#000" stroke-miterlimit="10" stroke-width="2.25"/>
<path transform="matrix(.1 0 0 -.1 -20.472 516.62)" d="m1530 1620h540" fill="none" stroke="#000" stroke-miterlimit="10" stroke-width="2.25"/>
<path transform="matrix(.1 0 0 -.1 -20.472 516.62)" d="m1530 1440h540v360h-540z" fill="none" stroke="#000" stroke-miterlimit="10" stroke-width="2.25"/>
<path transform="matrix(.1 0 0 -.1 -20.472 516.62)" d="m899.99 1800v-360" fill="none" stroke="#000" stroke-miterlimit="10" stroke-width="2.25"/>
<path transform="matrix(.1 0 0 -.1 -20.472 516.62)" d="m719.99 1620h540" fill="none" stroke="#000" stroke-miterlimit="10" stroke-width="2.25"/>
<path transform="matrix(.1 0 0 -.1 -20.472 516.62)" d="m1080 1800v-360" fill="none" stroke="#000" stroke-miterlimit="10" stroke-width="2.25"/>
<path transform="matrix(.1 0 0 -.1 -20.472 516.62)" d="m719.99 1440h540v360h-540z" fill="none" stroke="#000" stroke-miterlimit="10" stroke-width="2.25"/>
<path transform="matrix(.1 0 0 -.1 -20.472 516.62)" d="m2520 1800v-360" fill="none" stroke="#000" stroke-miterlimit="10" stroke-width="2.25"/>
<path transform="matrix(.1 0 0 -.1 -20.472 516.62)" d="m2340 1620h540" fill="none" stroke="#000" stroke-miterlimit="10" stroke-width="2.25"/>
<path transform="matrix(.1 0 0 -.1 -20.472 516.62)" d="m1710 1170v-360" fill="none" stroke="#000" stroke-miterlimit="10" stroke-width="2.25"/>
<path transform="matrix(.1 0 0 -.1 -20.472 516.62)" d="m1530 990.01h540" fill="none" stroke="#000" stroke-miterlimit="10" stroke-width="2.25"/>
<path transform="matrix(.1 0 0 -.1 -20.472 516.62)" d="m1890 1170v-360" fill="none" stroke="#000" stroke-miterlimit="10" stroke-width="2.25"/>
<path transform="matrix(.1 0 0 -.1 -20.472 516.62)" d="m1530 810.01h540v360h-540z" fill="none" stroke="#000" stroke-miterlimit="10" stroke-width="2.25"/>
<path transform="matrix(.1 0 0 -.1 -20.472 516.62)" d="m899.99 1170v-360" fill="none" stroke="#000" stroke-miterlimit="10" stroke-width="2.25"/>
<path transform="matrix(.1 0 0 -.1 -20.472 516.62)" d="m719.99 990.01h540" fill="none" stroke="#000" stroke-miterlimit="10" stroke-width="2.25"/>
<path transform="matrix(.1 0 0 -.1 -20.472 516.62)" d="m1080 1170v-360" fill="none" stroke="#000" stroke-miterlimit="10" stroke-width="2.25"/>
<path transform="matrix(.1 0 0 -.1 -20.472 516.62)" d="m719.99 810.01h540v360h-540z" fill="none" stroke="#000" stroke-miterlimit="10" stroke-width="2.25"/>
<path transform="matrix(.1 0 0 -.1 -20.472 516.62)" d="m2340 990.01h540" fill="none" stroke="#000" stroke-miterlimit="10" stroke-width="2.25"/>
<path transform="matrix(.1 0 0 -.1 -20.472 516.62)" d="m2520 1170v-360" fill="none" stroke="#000" stroke-miterlimit="10" stroke-width="2.25"/>
<path transform="matrix(.1 0 0 -.1 -20.472 516.62)" d="m2340 3330h540v360h-540z" fill="none" stroke="#000" stroke-miterlimit="10" stroke-width="2.25"/>
<path transform="matrix(.1 0 0 -.1 -20.472 516.62)" d="m2700 3690v-360" fill="none" stroke="#000" stroke-miterlimit="10" stroke-width="2.25"/>
<path transform="matrix(.1 0 0 -.1 -20.472 516.62)" d="m2340 2700h540v360h-540z" fill="none" stroke="#000" stroke-miterlimit="10" stroke-width="2.25"/>
<path transform="matrix(.1 0 0 -.1 -20.472 516.62)" d="m2340 2070h540v360h-540z" fill="none" stroke="#000" stroke-miterlimit="10" stroke-width="2.25"/>
<path transform="matrix(.1 0 0 -.1 -20.472 516.62)" d="m2340 1440h540v360h-540z" fill="none" stroke="#000" stroke-miterlimit="10" stroke-width="2.25"/>
<path transform="matrix(.1 0 0 -.1 -20.472 516.62)" d="m2340 810.01h540v360h-540z" fill="none" stroke="#000" stroke-miterlimit="10" stroke-width="2.25"/>
<path transform="matrix(.1 0 0 -.1 -20.472 516.62)" d="m2340 3960h540v360h-540z" fill="none" stroke="#000" stroke-miterlimit="10" stroke-width="2.25"/>
<path transform="matrix(.1 0 0 -.1 -20.472 516.62)" d="m2700 4320v-360" fill="none" stroke="#000" stroke-miterlimit="10" stroke-width="2.25"/>
<path transform="matrix(.1 0 0 -.1 -20.472 516.62)" d="m2700 3060v-360" fill="none" stroke="#000" stroke-miterlimit="10" stroke-width="2.25"/>
<path transform="matrix(.1 0 0 -.1 -20.472 516.62)" d="m2700 2430v-360" fill="none" stroke="#000" stroke-miterlimit="10" stroke-width="2.25"/>
<path transform="matrix(.1 0 0 -.1 -20.472 516.62)" d="m2700 1800v-360" fill="none" stroke="#000" stroke-miterlimit="10" stroke-width="2.25"/>
<path transform="matrix(.1 0 0 -.1 -20.472 516.62)" d="m2700 1170v-360" fill="none" stroke="#000" stroke-miterlimit="10" stroke-width="2.25"/>
<path transform="matrix(.1 0 0 -.1 -20.472 516.62)" d="m2340 360.01h540" fill="none" stroke="#000" stroke-miterlimit="10" stroke-width="2.25"/>
<path transform="matrix(.1 0 0 -.1 -20.472 516.62)" d="m1710 540.01v-360" fill="none" stroke="#000" stroke-miterlimit="10" stroke-width="2.25"/>
<path transform="matrix(.1 0 0 -.1 -20.472 516.62)" d="m1530 360.01h540" fill="none" stroke="#000" stroke-miterlimit="10" stroke-width="2.25"/>
<path transform="matrix(.1 0 0 -.1 -20.472 516.62)" d="m1890 540.01v-360" fill="none" stroke="#000" stroke-miterlimit="10" stroke-width="2.25"/>
<path transform="matrix(.1 0 0 -.1 -20.472 516.62)" d="m1530 180.01h540v360h-540z" fill="none" stroke="#000" stroke-miterlimit="10" stroke-width="2.25"/>
<path transform="matrix(.1 0 0 -.1 -20.472 516.62)" d="m899.99 540.01v-360" fill="none" stroke="#000" stroke-miterlimit="10" stroke-width="2.25"/>
<path transform="matrix(.1 0 0 -.1 -20.472 516.62)" d="m719.99 360.01h540" fill="none" stroke="#000" stroke-miterlimit="10" stroke-width="2.25"/>
<path transform="matrix(.1 0 0 -.1 -20.472 516.62)" d="m1080 540.01v-360" fill="none" stroke="#000" stroke-miterlimit="10" stroke-width="2.25"/>
<path transform="matrix(.1 0 0 -.1 -20.472 516.62)" d="m719.99 180.01h540v360h-540z" fill="none" stroke="#000" stroke-miterlimit="10" stroke-width="2.25"/>
<path transform="matrix(.1 0 0 -.1 -20.472 516.62)" d="m2520 540.01v-360" fill="none" stroke="#000" stroke-miterlimit="10" stroke-width="2.25"/>
<path transform="matrix(.1 0 0 -.1 -20.472 516.62)" d="m2700 540.01v-360" fill="none" stroke="#000" stroke-miterlimit="10" stroke-width="2.25"/>
<path transform="matrix(.1 0 0 -.1 -20.472 516.62)" d="m2340 180.01h540v360h-540z" fill="none" stroke="#000" stroke-miterlimit="10" stroke-width="2.25"/>
<path transform="matrix(.1 0 0 -.1 -20.472 516.62)" d="m539.99 4680h180v180h-180z" fill="none" stroke="#000" stroke-miterlimit="10" stroke-width="2.25"/>
<path transform="matrix(.1 0 0 -.1 -20.472 516.62)" d="m1260 4680h180v180h-180z" fill="none" stroke="#000" stroke-miterlimit="10" stroke-width="2.25"/>
<path transform="matrix(.1 0 0 -.1 -20.472 516.62)" d="m1980 4680h180v180h-180z" fill="none" stroke="#000" stroke-miterlimit="10" stroke-width="2.25"/>
<path transform="matrix(.1 0 0 -.1 -20.472 516.62)" d="m2700 4680h180v180h-180z" fill="none" stroke="#000" stroke-miterlimit="10" stroke-width="2.25"/>
<path transform="matrix(.1 0 0 -.1 -20.472 516.62)" d="m1440 4770h540" fill="none" stroke="#000" stroke-miterlimit="10" stroke-width="2.25"/>
<path transform="matrix(.1 0 0 -.1 -20.472 516.62)" d="m2160 4770h540" fill="none" stroke="#000" stroke-miterlimit="10" stroke-width="2.25"/>
<path transform="matrix(.1 0 0 -.1 -20.472 516.62)" d="m1890 1800v-360" fill="none" stroke="#000" stroke-miterlimit="10" stroke-width="2.25"/>
<g>
<use x="156.229" y="350.118" xlink:href="#ai"/>
<use x="173.62942" y="350.118" xlink:href="#ah"/>
<use x="138.229" y="368.118" xlink:href="#n"/>
<use x="75.229" y="350.118" xlink:href="#n"/>
<use x="92.926312" y="350.118" xlink:href="#x"/>
<use x="57.229" y="368.118" xlink:href="#n"/>
<use x="219.229" y="368.118" xlink:href="#n"/>
<use x="236.926" y="350.118" xlink:href="#x"/>
</g>
<g clip-path="url(#as)">
<g clip-path="url(#ar)">
<path transform="matrix(.1 0 0 -.1 -20.472 516.62)" d="m1170 3960c94.141-59.922 203.4-91.758 315-91.758 111.6 0 220.86 31.836 315 91.758" fill="none" stroke="#000" stroke-miterlimit="10" stroke-width="2.25"/>
</g>
</g>
<path d="m156.29 124.61 2.9688-3.8398-4.8008 0.75 1.7109 1.0781 0.12109 2.0117" fill-rule="evenodd"/>
<path transform="matrix(.1 0 0 -.1 -20.472 516.62)" d="m1767.6 3920.1 29.688 38.398-48.008-7.5 17.109-10.781z" fill="none" stroke="#000" stroke-miterlimit="10" stroke-width="2.25"/>
<g>
<use x="146.916" y="8.204" xlink:href="#d"/>
<use x="152.769266" y="8.204" xlink:href="#e"/>
<use x="154.769" y="224.155" xlink:href="#g"/>
<use x="172.485411" y="224.155" xlink:href="#f"/>
<use x="137.134" y="242.151" xlink:href="#a"/>
<use x="156.155" y="242.151" xlink:href="#w"/>
</g>
<path transform="matrix(1 0 0 -1 156.16 243.54)" d="m0.00125-0.001875h6.7227" fill="none" stroke="#000" stroke-miterlimit="10" stroke-width=".398"/>
<g>
<use x="74.148" y="224.155" xlink:href="#a"/>
<use x="91.913427" y="224.155" xlink:href="#c"/>
<use x="56.152" y="242.151" xlink:href="#a"/>
<use x="72.558" y="242.151" xlink:href="#b"/>
<use x="218.115" y="242.151" xlink:href="#a"/>
<use x="237.136" y="242.151" xlink:href="#m"/>
</g>
<path transform="matrix(1 0 0 -1 237.14 243.54)" d="m7.1875e-4 -0.001875h6.7227" fill="none" stroke="#000" stroke-miterlimit="10" stroke-width=".398"/>
<g>
<use x="235.882" y="224.155" xlink:href="#c"/>
<use x="154.769" y="161.169" xlink:href="#g"/>
<use x="172.485411" y="161.169" xlink:href="#f"/>
<use x="137.134" y="179.165" xlink:href="#a"/>
<use x="171.535" y="179.165" xlink:href="#b"/>
<use x="74.148" y="161.169" xlink:href="#a"/>
<use x="91.913427" y="161.169" xlink:href="#c"/>
<use x="56.152" y="179.165" xlink:href="#a"/>
<use x="72.558" y="179.165" xlink:href="#b"/>
<use x="218.115" y="179.165" xlink:href="#a"/>
<use x="237.136" y="179.165" xlink:href="#l"/>
</g>
<path transform="matrix(1 0 0 -1 237.14 180.56)" d="m7.1875e-4 0.0014062h6.7227" fill="none" stroke="#000" stroke-miterlimit="10" stroke-width=".398"/>
<g>
<use x="235.882" y="161.169" xlink:href="#c"/>
<use x="171.535" y="242.151" xlink:href="#b"/>
<use x="154.769" y="287.14" xlink:href="#g"/>
<use x="172.485411" y="287.14" xlink:href="#f"/>
<use x="137.134" y="305.136" xlink:href="#a"/>
<use x="156.155" y="305.136" xlink:href="#v"/>
</g>
<path transform="matrix(1 0 0 -1 156.16 306.53)" d="m0.00125-2.5e-4h6.7227" fill="none" stroke="#000" stroke-miterlimit="10" stroke-width=".398"/>
<g>
<use x="171.535" y="305.136" xlink:href="#b"/>
<use x="74.148" y="287.14" xlink:href="#a"/>
<use x="91.913427" y="287.14" xlink:href="#c"/>
<use x="56.152" y="305.136" xlink:href="#a"/>
<use x="72.558" y="305.136" xlink:href="#b"/>
<use x="218.115" y="305.136" xlink:href="#a"/>
<use x="235.882" y="287.14" xlink:href="#c"/>
<use x="93.169" y="305.136" xlink:href="#m"/>
</g>
<path transform="matrix(1 0 0 -1 93.169 306.53)" d="m-0.0010312-2.5e-4h6.7266" fill="none" stroke="#000" stroke-miterlimit="10" stroke-width=".398"/>
<g>
<use x="-0.927" y="156.67" xlink:href="#i"/>
<use x="3.62554" y="156.67" xlink:href="#aa"/>
<use x="9.478806" y="156.67" xlink:href="#h"/>
<use x="1.323" y="282.641" xlink:href="#i"/>
<use x="5.87554" y="282.641" xlink:href="#z"/>
<use x="11.728806" y="282.641" xlink:href="#h"/>
<use x="93.169" y="242.151" xlink:href="#m"/>
</g>
<path transform="matrix(1 0 0 -1 93.169 243.54)" d="m-0.0010312-0.001875h6.7266" fill="none" stroke="#000" stroke-miterlimit="10" stroke-width=".398"/>
<g>
<use x="93.169" y="179.165" xlink:href="#l"/>
</g>
<path transform="matrix(1 0 0 -1 93.169 180.56)" d="m-0.0010312 0.0014062h6.7266" fill="none" stroke="#000" stroke-miterlimit="10" stroke-width=".398"/>
<g>
<use x="156.155" y="179.165" xlink:href="#w"/>
</g>
<path transform="matrix(1 0 0 -1 156.16 180.56)" d="m0.00125 0.0014062h6.7227" fill="none" stroke="#000" stroke-miterlimit="10" stroke-width=".398"/>
<g>
<use x="154.769" y="98.184" xlink:href="#g"/>
<use x="172.485411" y="98.184" xlink:href="#f"/>
<use x="137.134" y="116.18" xlink:href="#a"/>
<use x="156.155" y="116.18" xlink:href="#y"/>
</g>
<path transform="matrix(1 0 0 -1 156.16 117.57)" d="m0.00125-2.1875e-4h6.7227" fill="none" stroke="#000" stroke-miterlimit="10" stroke-width=".398"/>
<g>
<use x="171.535" y="116.18" xlink:href="#b"/>
<use x="134.481" y="77.938" xlink:href="#p"/>
<use x="143.581298" y="77.938" xlink:href="#j"/>
<use x="150.084927" y="77.938" xlink:href="#o"/>
<use x="155.938193" y="77.938" xlink:href="#s"/>
<use x="160.490733" y="77.938" xlink:href="#r"/>
<use x="165.693636" y="77.938" xlink:href="#j"/>
<use x="176.09466" y="77.938" xlink:href="#ag"/>
<use x="74.148" y="98.184" xlink:href="#a"/>
<use x="91.913427" y="98.184" xlink:href="#c"/>
<use x="56.152" y="116.18" xlink:href="#a"/>
<use x="72.558" y="116.18" xlink:href="#b"/>
<use x="53.582" y="77.939" xlink:href="#p"/>
<use x="62.682298" y="77.939" xlink:href="#j"/>
<use x="69.185927" y="77.939" xlink:href="#o"/>
<use x="75.039193" y="77.939" xlink:href="#s"/>
<use x="79.591733" y="77.939" xlink:href="#r"/>
<use x="84.794636" y="77.939" xlink:href="#j"/>
<use x="95.19566" y="77.939" xlink:href="#af"/>
<use x="-0.927" y="102.683" xlink:href="#i"/>
<use x="3.62554" y="102.683" xlink:href="#q"/>
<use x="9.478806" y="102.683" xlink:href="#h"/>
<use x="218.115" y="116.18" xlink:href="#a"/>
<use x="235.882" y="98.184" xlink:href="#c"/>
<use x="93.169" y="116.18" xlink:href="#l"/>
</g>
<path transform="matrix(1 0 0 -1 93.169 117.57)" d="m-0.0010312-2.1875e-4h6.7266" fill="none" stroke="#000" stroke-miterlimit="10" stroke-width=".398"/>
<g>
<use x="237.136" y="305.136" xlink:href="#m"/>
</g>
<path transform="matrix(1 0 0 -1 237.14 306.53)" d="m7.1875e-4 -2.5e-4h6.7227" fill="none" stroke="#000" stroke-miterlimit="10" stroke-width=".398"/>
<g>
<use x="1.323" y="219.656" xlink:href="#i"/>
<use x="5.87554" y="219.656" xlink:href="#ae"/>
<use x="11.728806" y="219.656" xlink:href="#h"/>
<use x="237.136" y="116.18" xlink:href="#l"/>
</g>
<path transform="matrix(1 0 0 -1 237.14 117.57)" d="m7.1875e-4 -2.1875e-4h6.7227" fill="none" stroke="#000" stroke-miterlimit="10" stroke-width=".398"/>
<g>
<use x="206.222" y="77.938" xlink:href="#p"/>
<use x="215.322298" y="77.938" xlink:href="#j"/>
<use x="221.825927" y="77.938" xlink:href="#o"/>
<use x="227.679193" y="77.938" xlink:href="#s"/>
<use x="232.231733" y="77.938" xlink:href="#r"/>
<use x="237.434636" y="77.938" xlink:href="#j"/>
<use x="247.83566" y="77.938" xlink:href="#ad"/>
<use x="1.323" y="408.613" xlink:href="#i"/>
<use x="5.87554" y="408.613" xlink:href="#ac"/>
<use x="11.728806" y="408.613" xlink:href="#h"/>
<use x="1.323" y="471.598" xlink:href="#i"/>
<use x="5.87554" y="471.598" xlink:href="#ab"/>
<use x="11.728806" y="471.598" xlink:href="#h"/>
<use x="156.155" y="368.122" xlink:href="#v"/>
</g>
<path transform="matrix(1 0 0 -1 156.16 369.52)" d="m0.00125 0.001375h6.7227" fill="none" stroke="#000" stroke-miterlimit="10" stroke-width=".398"/>
<g>
<use x="72.558" y="368.122" xlink:href="#b"/>
<use x="93.169" y="368.122" xlink:href="#k"/>
</g>
<path transform="matrix(1 0 0 -1 93.169 369.52)" d="m-0.0010312 0.001375h6.7266" fill="none" stroke="#000" stroke-miterlimit="10" stroke-width=".398"/>
<g>
<use x="237.136" y="368.122" xlink:href="#k"/>
</g>
<path transform="matrix(1 0 0 -1 237.14 369.52)" d="m7.1875e-4 0.001375h6.7227" fill="none" stroke="#000" stroke-miterlimit="10" stroke-width=".398"/>
<g>
<use x="171.535" y="368.122" xlink:href="#b"/>
<use x="1.323" y="345.627" xlink:href="#i"/>
<use x="5.87554" y="345.627" xlink:href="#d"/>
<use x="11.728806" y="345.627" xlink:href="#h"/>
<use x="154.769" y="413.112" xlink:href="#g"/>
<use x="172.485411" y="413.112" xlink:href="#f"/>
<use x="137.134" y="431.107" xlink:href="#a"/>
<use x="74.148" y="413.112" xlink:href="#a"/>
<use x="91.913427" y="413.112" xlink:href="#c"/>
<use x="56.152" y="431.107" xlink:href="#a"/>
<use x="72.558" y="431.107" xlink:href="#b"/>
<use x="93.169" y="431.107" xlink:href="#k"/>
</g>
<path transform="matrix(1 0 0 -1 93.169 432.5)" d="m-0.0010312-0.0019062h6.7266" fill="none" stroke="#000" stroke-miterlimit="10" stroke-width=".398"/>
<g>
<use x="218.115" y="431.107" xlink:href="#a"/>
<use x="237.136" y="431.107" xlink:href="#k"/>
</g>
<path transform="matrix(1 0 0 -1 237.14 432.5)" d="m7.1875e-4 -0.0019062h6.7227" fill="none" stroke="#000" stroke-miterlimit="10" stroke-width=".398"/>
<g>
<use x="235.882" y="413.112" xlink:href="#c"/>
<use x="171.535" y="431.107" xlink:href="#b"/>
<use x="156.155" y="431.107" xlink:href="#u"/>
</g>
<path transform="matrix(1 0 0 -1 156.16 432.5)" d="m0.00125-0.0019062h6.7227" fill="none" stroke="#000" stroke-miterlimit="10" stroke-width=".398"/>
<g>
<use x="154.769" y="476.097" xlink:href="#g"/>
<use x="172.485411" y="476.097" xlink:href="#f"/>
<use x="137.134" y="494.093" xlink:href="#a"/>
<use x="156.155" y="494.093" xlink:href="#u"/>
</g>
<path transform="matrix(1 0 0 -1 156.16 495.49)" d="m0.00125-2.8125e-4h6.7227" fill="none" stroke="#000" stroke-miterlimit="10" stroke-width=".398"/>
<g>
<use x="171.535" y="494.093" xlink:href="#b"/>
<use x="74.148" y="476.097" xlink:href="#a"/>
<use x="91.913427" y="476.097" xlink:href="#c"/>
<use x="56.152" y="494.093" xlink:href="#a"/>
<use x="72.558" y="494.093" xlink:href="#b"/>
<use x="93.169" y="494.093" xlink:href="#t"/>
</g>
<path transform="matrix(1 0 0 -1 93.169 495.49)" d="m-0.0010312-2.8125e-4h6.7266" fill="none" stroke="#000" stroke-miterlimit="10" stroke-width=".398"/>
<g>
<use x="218.115" y="494.093" xlink:href="#a"/>
<use x="237.136" y="494.093" xlink:href="#t"/>
</g>
<path transform="matrix(1 0 0 -1 237.14 495.49)" d="m7.1875e-4 -2.8125e-4h6.7227" fill="none" stroke="#000" stroke-miterlimit="10" stroke-width=".398"/>
<g>
<use x="235.882" y="476.097" xlink:href="#c"/>
<use x="254.107" y="98.184" xlink:href="#a"/>
<use x="252.641" y="116.18" xlink:href="#d"/>
<use x="258.494266" y="116.18" xlink:href="#e"/>
<use x="254.107" y="161.169" xlink:href="#a"/>
<use x="252.641" y="179.165" xlink:href="#d"/>
<use x="258.494266" y="179.165" xlink:href="#e"/>
<use x="254.107" y="224.155" xlink:href="#a"/>
<use x="252.641" y="242.151" xlink:href="#d"/>
<use x="258.494266" y="242.151" xlink:href="#e"/>
<use x="254.107" y="287.14" xlink:href="#a"/>
<use x="252.641" y="305.136" xlink:href="#d"/>
<use x="258.494266" y="305.136" xlink:href="#e"/>
<use x="254.107" y="350.126" xlink:href="#a"/>
<use x="252.641" y="368.122" xlink:href="#d"/>
<use x="258.494266" y="368.122" xlink:href="#e"/>
<use x="254.107" y="413.112" xlink:href="#a"/>
<use x="252.641" y="431.107" xlink:href="#d"/>
<use x="258.494266" y="431.107" xlink:href="#e"/>
<use x="254.107" y="476.097" xlink:href="#a"/>
<use x="252.641" y="494.093" xlink:href="#d"/>
<use x="258.494266" y="494.093" xlink:href="#e"/>
<use x="147.593" y="37.898" xlink:href="#q"/>
<use x="109.779" y="44.196" xlink:href="#g"/>
<use x="181.891571" y="44.196" xlink:href="#c"/>
<use x="253.473331" y="44.196" xlink:href="#f"/>
<use x="38.160179" y="44.196" xlink:href="#a"/>
<use x="221.016" y="37.898" xlink:href="#q"/>
</g>
</svg>
