<svg width="271pt" height="222pt" version="1.1" viewBox="0 0 271 222" xmlns="http://www.w3.org/2000/svg" xmlns:xlink="http://www.w3.org/1999/xlink">
<defs>
<g id="af">
<path d="m7.8125-8.1094h-7.1719l-0.21875 2.6719h0.26562c0.15625-1.8906 0.26562-2.3125 2.1562-2.3125 0.21875 0 0.54688 0 0.64062 0.015625 0.25 0.03125 0.25 0.1875 0.25 0.45312v6.3594c0 0.40625 0 0.57812-1.1719 0.57812h-0.42188v0.34375c0.375-0.03125 1.6094-0.03125 2.0781-0.03125s1.7031 0 2.0938 0.03125v-0.34375h-0.4375c-1.1719 0-1.1719-0.17188-1.1719-0.57812v-6.3594c0-0.29688 0.03125-0.40625 0.21875-0.45312 0.09375-0.015625 0.4375-0.015625 0.67188-0.015625 1.8906 0 2 0.42188 2.1562 2.3125h0.26562z"/>
</g>
<g id="p">
<path d="m4.6094-3.1875c0-0.65625 0-1.125-0.51562-1.5938-0.42188-0.375-0.96875-0.54688-1.4844-0.54688-0.98438 0-1.7344 0.64062-1.7344 1.4219 0 0.34375 0.21875 0.51562 0.5 0.51562s0.48438-0.20312 0.48438-0.5c0-0.48438-0.42188-0.48438-0.60938-0.48438 0.28125-0.5 0.85938-0.71875 1.3281-0.71875 0.54688 0 1.2656 0.45312 1.2656 1.5312v0.48438c-2.4062 0.03125-3.3125 1.0312-3.3125 1.9531 0 0.95312 1.0938 1.25 1.8281 1.25 0.78125 0 1.3281-0.48438 1.5469-1.0625 0.046875 0.5625 0.42188 1 0.9375 1 0.25 0 0.9375-0.17188 0.9375-1.125v-0.67188h-0.26562v0.67188c0 0.6875-0.28125 0.78125-0.45312 0.78125-0.45312 0-0.45312-0.64062-0.45312-0.8125zm-0.76562 1.5c0 1.1719-0.875 1.5625-1.3906 1.5625-0.59375 0-1.0781-0.42188-1.0781-1 0-1.5781 2.0312-1.7188 2.4688-1.75z"/>
</g>
<g id="u">
<path d="m2-8.2969-1.6719 0.14062v0.34375c0.8125 0 0.92188 0.078125 0.92188 0.67188v7.1406h0.25c0.046875-0.09375 0.39062-0.6875 0.4375-0.78125 0.28125 0.45312 0.78125 0.90625 1.5469 0.90625 1.375 0 2.5938-1.1719 2.5938-2.7031 0-1.5156-1.125-2.6875-2.4531-2.6875-0.65625 0-1.2188 0.29688-1.625 0.79688zm0.015625 4.4688c0-0.21875 0-0.23438 0.14062-0.42188 0.28125-0.4375 0.8125-0.78125 1.3906-0.78125 0.35938 0 1.6094 0.14062 1.6094 2.4375 0 0.79688-0.10938 1.2969-0.40625 1.7344-0.23438 0.375-0.70312 0.73438-1.3125 0.73438-0.64062 0-1.0625-0.40625-1.2656-0.73438-0.15625-0.25-0.15625-0.29688-0.15625-0.5z"/>
</g>
<g id="c">
<path d="m4.5781-2.7656c0.26562 0 0.28125 0 0.28125-0.23438 0-1.2031-0.64062-2.3281-2.0938-2.3281-1.3594 0-2.4062 1.2344-2.4062 2.7031 0 1.5781 1.2188 2.75 2.5469 2.75 1.4219 0 1.9531-1.2969 1.9531-1.5469 0-0.078125-0.046875-0.125-0.125-0.125-0.09375 0-0.125 0.0625-0.14062 0.125-0.3125 1-1.1094 1.2812-1.625 1.2812-0.5 0-1.7031-0.34375-1.7031-2.4062v-0.21875zm-3.2969-0.23438c0.09375-1.875 1.1406-2.0938 1.4844-2.0938 1.2812 0 1.3438 1.6875 1.3594 2.0938z"/>
</g>
<g id="o">
<path d="m2.0625-8.2969-1.6719 0.14062v0.34375c0.8125 0 0.90625 0.078125 0.90625 0.67188v6.25c0 0.54688-0.125 0.54688-0.90625 0.54688v0.34375c0.34375-0.03125 0.92188-0.03125 1.2812-0.03125s0.95312 0 1.2969 0.03125v-0.34375c-0.76562 0-0.90625 0-0.90625-0.54688z"/>
</g>
<g id="b">
<path d="m5.3125-2.9062c0-1.1094 0-1.4375-0.26562-1.8281-0.34375-0.46875-0.90625-0.53125-1.3125-0.53125-1.1719 0-1.625 0.98438-1.7188 1.2188v-1.2188l-1.6406 0.125v0.34375c0.8125 0 0.92188 0.09375 0.92188 0.67188v3.2344c0 0.54688-0.14062 0.54688-0.92188 0.54688v0.34375c0.3125-0.03125 0.96875-0.03125 1.2969-0.03125 0.34375 0 1 0 1.2969 0.03125v-0.34375c-0.75 0-0.90625 0-0.90625-0.54688v-2.2188c0-1.25 0.82812-1.9219 1.5781-1.9219 0.73438 0 0.90625 0.60938 0.90625 1.3438v2.7969c0 0.54688-0.14062 0.54688-0.90625 0.54688v0.34375c0.29688-0.03125 0.95312-0.03125 1.2812-0.03125 0.34375 0 1 0 1.3125 0.03125v-0.34375c-0.60938 0-0.90625 0-0.92188-0.35938z"/>
</g>
<g id="n">
<path d="m4.6719-5.0156c0.1875-0.1875 0.64062-0.625 0.84375-0.8125 1.6406-1.625 1.9844-1.9688 2.9219-1.9844v-0.34375c-0.34375 0.015625-0.48438 0.015625-1.0312 0.015625-0.3125 0-1.0156 0-1.2812-0.015625v0.34375c0.25 0 0.46875 0.10938 0.46875 0.375 0 0.1875-0.09375 0.29688-0.35938 0.54688l-3.6406 3.5156v-3.8594c0-0.57812 0.125-0.57812 1.1406-0.57812v-0.34375c-0.29688 0.015625-1.2656 0.015625-1.625 0.015625s-1.3281 0-1.625-0.015625v0.34375c1.0156 0 1.1406 0 1.1406 0.57812v6.2969c0 0.59375-0.125 0.59375-1.1406 0.59375v0.34375c0.29688-0.03125 1.2656-0.03125 1.625-0.03125s1.3281 0 1.625 0.03125v-0.34375c-1.0156 0-1.1406 0-1.1406-0.59375v-2.0781l1.4219-1.375 2.2188 3.3125c0.046875 0.078125 0.09375 0.15625 0.10938 0.21875 0.03125 0.046875 0.046875 0.10938 0.046875 0.17188 0 0.34375-0.4375 0.34375-0.625 0.34375v0.34375c0.28125-0.03125 1.1562-0.03125 1.5-0.03125 0.3125 0 0.90625 0 1.3281 0.03125v-0.34375c-0.64062 0-0.84375-0.0625-1.2344-0.64062z"/>
</g>
<g id="m">
<path d="m5.4844-2.5625c0-1.5312-1.1719-2.7656-2.5625-2.7656-1.4219 0-2.5625 1.2656-2.5625 2.7656 0 1.5312 1.1875 2.6875 2.5625 2.6875 1.4062 0 2.5625-1.1719 2.5625-2.6875zm-2.5625 2.4219c-0.4375 0-0.96875-0.1875-1.3125-0.78125-0.32812-0.53125-0.34375-1.2344-0.34375-1.75 0-0.45312 0-1.1719 0.375-1.7188 0.32812-0.51562 0.85938-0.70312 1.2812-0.70312 0.45312 0 0.96875 0.21875 1.2812 0.6875 0.375 0.54688 0.375 1.2969 0.375 1.7344 0 0.42188 0 1.1719-0.3125 1.7344-0.32812 0.5625-0.89062 0.79688-1.3438 0.79688z"/>
</g>
<g id="h">
<path d="m2.0156-4.8125h1.6719v-0.34375h-1.6719v-2.1875h-0.26562c-0.015625 1.1094-0.45312 2.2656-1.5312 2.2969v0.23438h1.0156v3.3281c0 1.3281 0.875 1.6094 1.5156 1.6094 0.75 0 1.1406-0.75 1.1406-1.6094v-0.67188h-0.25v0.65625c0 0.85938-0.35938 1.3594-0.8125 1.3594-0.8125 0-0.8125-1.1094-0.8125-1.3125z"/>
</g>
<g id="ae">
<path d="m0.51562-8.1562v0.34375h0.23438c0.85938 0 0.90625 0.10938 0.90625 0.5625v6.3438c0 0.4375-0.046875 0.5625-0.90625 0.5625h-0.23438v0.34375h4.5c1.5312 0 2.6094-1.0469 2.6094-2.1875 0-0.96875-0.875-1.9219-2.2969-2.0781 1.1406-0.21875 1.9688-0.98438 1.9688-1.875 0-1.0312-1.0469-2.0156-2.6094-2.0156zm2.0469 3.7969v-2.9844c0-0.39062 0.015625-0.46875 0.54688-0.46875h1.5c1.2031 0 1.625 1.0156 1.625 1.6719 0 0.78125-0.60938 1.7812-1.9375 1.7812zm0.54688 4.0156c-0.53125 0-0.54688-0.09375-0.54688-0.48438v-3.2969h2.2344c1.1406 0 1.7344 1 1.7344 1.9219 0 0.96875-0.71875 1.8594-1.8906 1.8594z"/>
</g>
<g id="ad">
<path d="m7.7969-8.1406c0-0.21875 0-0.28125-0.125-0.28125-0.0625 0-0.078125 0.03125-0.15625 0.15625l-0.57812 0.9375c-0.54688-0.67188-1.3594-1.0938-2.2188-1.0938-2.1875 0-4.0781 1.8906-4.0781 4.3281 0 2.4844 1.9219 4.3438 4.0781 4.3438 1.9688 0 3.0781-1.7031 3.0781-3.0156 0-0.14062 0-0.20312-0.14062-0.20312-0.10938 0-0.125 0.046875-0.125 0.14062-0.10938 1.8906-1.5 2.7344-2.6562 2.7344-0.82812 0-3.125-0.5-3.125-4 0-3.4531 2.25-3.9688 3.1094-3.9688 1.2656 0 2.3594 1.0625 2.5938 2.8438 0.03125 0.15625 0.03125 0.1875 0.17188 0.1875 0.17188 0 0.17188-0.03125 0.17188-0.28125z"/>
</g>
<g id="ac">
<path d="m0.5-8.1562v0.34375h0.23438c0.875 0 0.90625 0.10938 0.90625 0.5625v6.3438c0 0.4375-0.03125 0.5625-0.90625 0.5625h-0.23438v0.34375h4.1875c2 0 3.5938-1.7969 3.5938-4 0-2.3125-1.6094-4.1562-3.5938-4.1562zm2.625 7.8125c-0.51562 0-0.54688-0.09375-0.54688-0.48438v-6.5156c0-0.39062 0.03125-0.46875 0.54688-0.46875h1.2656c0.98438 0 1.7812 0.46875 2.2656 1.2656 0.54688 0.84375 0.54688 2.0469 0.54688 2.5312 0 0.67188-0.015625 1.7969-0.70312 2.6719-0.39062 0.5-1.1094 1-2.1094 1z"/>
</g>
<g id="ab">
<path d="m2.0781-7.3594c0-0.3125-0.25-0.59375-0.57812-0.59375-0.3125 0-0.57812 0.25-0.57812 0.57812 0 0.35938 0.28125 0.57812 0.57812 0.57812 0.35938 0 0.57812-0.29688 0.57812-0.5625zm-1.6406 2.2188v0.34375c0.75 0 0.85938 0.078125 0.85938 0.65625v3.25c0 0.54688-0.125 0.54688-0.90625 0.54688v0.34375c0.34375-0.03125 0.90625-0.03125 1.2656-0.03125 0.125 0 0.8125 0 1.2188 0.03125v-0.34375c-0.76562 0-0.8125-0.0625-0.8125-0.53125v-4.3906z"/>
</g>
<g id="aa">
<path d="m3.9219-5.0625c0-0.20312 0-0.26562-0.125-0.26562-0.09375 0-0.3125 0.26562-0.40625 0.375-0.35938-0.3125-0.73438-0.375-1.125-0.375-1.4375 0-1.875 0.78125-1.875 1.4375 0 0.14062 0 0.5625 0.45312 0.96875 0.39062 0.34375 0.79688 0.42188 1.3438 0.53125 0.65625 0.125 0.8125 0.17188 1.1094 0.40625 0.21875 0.17188 0.375 0.4375 0.375 0.78125 0 0.51562-0.29688 1.0781-1.3594 1.0781-0.78125 0-1.3594-0.45312-1.625-1.6406-0.046875-0.21875-0.046875-0.23438-0.046875-0.25-0.03125-0.046875-0.078125-0.046875-0.10938-0.046875-0.14062 0-0.14062 0.0625-0.14062 0.28125v1.625c0 0.21875 0 0.28125 0.125 0.28125 0.0625 0 0.0625-0.015625 0.26562-0.26562 0.0625-0.09375 0.0625-0.10938 0.25-0.29688 0.45312 0.5625 1.0938 0.5625 1.2969 0.5625 1.25 0 1.875-0.70312 1.875-1.6406 0-0.64062-0.39062-1.0312-0.5-1.1406-0.42188-0.375-0.75-0.4375-1.5469-0.57812-0.34375-0.078125-1.2188-0.25-1.2188-0.96875 0-0.35938 0.25-0.90625 1.3281-0.90625 1.2969 0 1.375 1.1094 1.3906 1.4688 0.015625 0.10938 0.09375 0.10938 0.14062 0.10938 0.125 0 0.125-0.0625 0.125-0.28125z"/>
</g>
<g id="z">
<path d="m4.5469-4.8125c0.10938-0.14062 0.10938-0.15625 0.10938-0.20312 0-0.14062-0.078125-0.14062-0.28125-0.14062h-3.75l-0.14062 1.9062h0.26562c0.078125-1.2188 0.29688-1.6562 1.6094-1.6562h1.375l-3.4062 4.6875c0 0.21875 0.015625 0.21875 0.28125 0.21875h3.8906l0.20312-2.2031h-0.26562c-0.10938 1.3594-0.3125 1.9375-1.7344 1.9375h-1.4531z"/>
</g>
<g id="y">
<path d="m3.2344-2.2656v-0.64062h-3.1094v0.64062z"/>
</g>
<g id="r">
<path d="m3.8906 2.9062c0-0.03125 0-0.0625-0.20312-0.26562-1.2031-1.2031-1.875-3.1719-1.875-5.6094 0-2.3281 0.5625-4.3281 1.9531-5.7344 0.125-0.10938 0.125-0.125 0.125-0.17188 0-0.0625-0.0625-0.09375-0.10938-0.09375-0.15625 0-1.1406 0.85938-1.7188 2.0312-0.60938 1.2188-0.89062 2.4844-0.89062 3.9688 0 1.0625 0.17188 2.4844 0.78125 3.75 0.71875 1.4375 1.6875 2.2188 1.8281 2.2188 0.046875 0 0.10938-0.03125 0.10938-0.09375z"/>
</g>
<g id="k">
<path d="m3.4375-7.6562c0-0.28125 0-0.29688-0.23438-0.29688-0.28125 0.32812-0.89062 0.76562-2.1094 0.76562v0.34375c0.26562 0 0.85938 0 1.5312-0.29688v6.2188c0 0.4375-0.046875 0.57812-1.0938 0.57812h-0.375v0.34375c0.32812-0.03125 1.4844-0.03125 1.875-0.03125 0.40625 0 1.5469 0 1.875 0.03125v-0.34375h-0.375c-1.0469 0-1.0938-0.14062-1.0938-0.57812z"/>
</g>
<g id="q">
<path d="m3.375-2.9688c0-0.92188-0.125-2.3906-0.79688-3.7812-0.70312-1.4375-1.6875-2.2188-1.8125-2.2188-0.046875 0-0.10938 0.03125-0.10938 0.09375 0 0.046875 0 0.0625 0.20312 0.26562 1.2031 1.2031 1.8594 3.1875 1.8594 5.625 0 2.3125-0.5625 4.3125-1.9375 5.7188-0.125 0.10938-0.125 0.14062-0.125 0.17188 0 0.0625 0.0625 0.09375 0.10938 0.09375 0.15625 0 1.1406-0.85938 1.7188-2.0312 0.60938-1.2188 0.89062-2.5156 0.89062-3.9375z"/>
</g>
<g id="x">
<path d="m5.2656-2.0156h-0.26562c-0.046875 0.20312-0.14062 0.875-0.25 1.0625-0.09375 0.10938-0.76562 0.10938-1.125 0.10938h-2.2188c0.32812-0.28125 1.0625-1.0469 1.3594-1.3281 1.8281-1.6719 2.5-2.2969 2.5-3.4844 0-1.375-1.0938-2.2969-2.4844-2.2969-1.375 0-2.2031 1.1875-2.2031 2.2188 0 0.60938 0.53125 0.60938 0.5625 0.60938 0.26562 0 0.5625-0.1875 0.5625-0.5625 0-0.34375-0.21875-0.5625-0.5625-0.5625-0.09375 0-0.125 0-0.15625 0.015625 0.21875-0.8125 0.875-1.375 1.6406-1.375 1.0156 0 1.6406 0.85938 1.6406 1.9531 0 1.0156-0.57812 1.9062-1.2656 2.6719l-2.4219 2.7031v0.28125h4.375z"/>
</g>
<g id="j">
<path d="m1.4688-4.1562c0-3.0312 1.4688-3.5 2.1094-3.5 0.4375 0 0.875 0.125 1.0938 0.48438-0.14062 0-0.59375 0-0.59375 0.48438 0 0.26562 0.17188 0.5 0.48438 0.5 0.29688 0 0.5-0.1875 0.5-0.53125 0-0.625-0.45312-1.2344-1.4844-1.2344-1.5156 0-3.0938 1.5469-3.0938 4.1719 0 3.2969 1.4375 4.0312 2.4531 4.0312 1.3125 0 2.4219-1.1406 2.4219-2.6875 0-1.5938-1.1094-2.6562-2.3125-2.6562-1.0625 0-1.4531 0.92188-1.5781 1.25zm1.4688 4.0781c-0.75 0-1.1094-0.65625-1.2188-0.90625-0.10938-0.3125-0.21875-0.90625-0.21875-1.7344 0-0.95312 0.42188-2.1406 1.5-2.1406 0.65625 0 1 0.45312 1.1875 0.85938 0.1875 0.4375 0.1875 1.0312 0.1875 1.5469 0 0.60938 0 1.1562-0.23438 1.6094-0.29688 0.5625-0.71875 0.76562-1.2031 0.76562z"/>
</g>
<g id="i">
<path d="m5.3594-3.8281c0-0.98438-0.0625-1.9531-0.5-2.8594-0.48438-1-1.3438-1.2656-1.9375-1.2656-0.6875 0-1.5312 0.34375-1.9844 1.3438-0.32812 0.75-0.45312 1.5-0.45312 2.7812 0 1.1562 0.09375 2.0312 0.51562 2.8906 0.46875 0.90625 1.2969 1.1875 1.9219 1.1875 1.0312 0 1.625-0.625 1.9844-1.3125 0.42188-0.89062 0.45312-2.0625 0.45312-2.7656zm-2.4375 3.8438c-0.39062 0-1.1719-0.21875-1.3906-1.5156-0.125-0.71875-0.125-1.625-0.125-2.4688 0-0.98438 0-1.8594 0.1875-2.5625 0.20312-0.8125 0.8125-1.1719 1.3281-1.1719 0.45312 0 1.1406 0.26562 1.375 1.2969 0.15625 0.6875 0.15625 1.625 0.15625 2.4375 0 0.79688 0 1.7031-0.14062 2.4375-0.21875 1.3125-0.98438 1.5469-1.3906 1.5469z"/>
</g>
<g id="w">
<path d="m4.3125-7.7812c0-0.23438 0-0.28125-0.17188-0.28125-0.09375 0-0.125 0-0.21875 0.14062l-3.5938 5.5781v0.34375h3.1406v1.0938c0 0.4375-0.03125 0.5625-0.90625 0.5625h-0.23438v0.34375c0.28125-0.03125 1.2188-0.03125 1.5625-0.03125 0.32812 0 1.2812 0 1.5625 0.03125v-0.34375h-0.23438c-0.875 0-0.90625-0.125-0.90625-0.5625v-1.0938h1.2031v-0.34375h-1.2031zm-0.78125 0.9375v4.5h-2.9062z"/>
</g>
<g id="v">
<path d="m1.5312-6.8438c0.51562 0.15625 0.9375 0.17188 1.0625 0.17188 1.3438 0 2.2188-0.98438 2.2188-1.1562 0-0.046875-0.03125-0.10938-0.10938-0.10938-0.015625 0-0.046875 0-0.15625 0.046875-0.65625 0.28125-1.2344 0.32812-1.5469 0.32812-0.78125 0-1.3438-0.25-1.5781-0.34375-0.078125-0.03125-0.10938-0.03125-0.125-0.03125-0.09375 0-0.09375 0.078125-0.09375 0.26562v3.5469c0 0.21875 0 0.28125 0.14062 0.28125 0.0625 0 0.078125 0 0.20312-0.15625 0.32812-0.48438 0.89062-0.76562 1.4844-0.76562 0.64062 0 0.95312 0.57812 1.0469 0.78125 0.20312 0.46875 0.21875 1.0625 0.21875 1.5156s0 1.125-0.34375 1.6719c-0.26562 0.42188-0.71875 0.71875-1.25 0.71875-0.79688 0-1.5625-0.53125-1.7812-1.4062 0.0625 0.03125 0.125 0.03125 0.1875 0.03125 0.20312 0 0.53125-0.10938 0.53125-0.51562 0-0.34375-0.23438-0.53125-0.53125-0.53125-0.21875 0-0.53125 0.10938-0.53125 0.57812 0 1.0156 0.82812 2.1719 2.1406 2.1719 1.3594 0 2.5469-1.1406 2.5469-2.6562 0-1.4219-0.96875-2.6094-2.2188-2.6094-0.6875 0-1.2031 0.3125-1.5156 0.64062z"/>
</g>
<g id="a">
<path d="m2.0312-1.3281c-0.42188 0.70312-0.82812 0.95312-1.3906 0.98438-0.14062 0.015625-0.23438 0.015625-0.23438 0.21875 0 0.078125 0.0625 0.125 0.14062 0.125 0.21875 0 0.75-0.03125 0.96875-0.03125 0.34375 0 0.73438 0.03125 1.0625 0.03125 0.078125 0 0.21875 0 0.21875-0.23438 0-0.09375-0.09375-0.10938-0.17188-0.10938-0.26562-0.03125-0.5-0.125-0.5-0.40625 0-0.17188 0.078125-0.29688 0.23438-0.5625l0.90625-1.5156h3.0469c0.015625 0.10938 0.015625 0.20312 0.015625 0.3125 0.046875 0.3125 0.1875 1.5625 0.1875 1.7812 0 0.35938-0.60938 0.39062-0.79688 0.39062-0.14062 0-0.26562 0-0.26562 0.21875 0 0.125 0.10938 0.125 0.17188 0.125 0.20312 0 0.45312-0.03125 0.65625-0.03125h0.67188c0.73438 0 1.2656 0.03125 1.2656 0.03125 0.09375 0 0.21875 0 0.21875-0.23438 0-0.10938-0.10938-0.10938-0.28125-0.10938-0.65625 0-0.67188-0.10938-0.70312-0.46875l-0.73438-7.4531c-0.03125-0.25-0.078125-0.26562-0.20312-0.26562s-0.1875 0.015625-0.29688 0.20312zm1.4375-1.8438 2.4062-4.0156 0.40625 4.0156z"/>
</g>
<g id="g">
<path d="m8.9219-8.3125c0-0.10938-0.078125-0.10938-0.09375-0.10938-0.03125 0-0.078125 0-0.17188 0.125l-0.82812 1c-0.42188-0.71875-1.0781-1.125-1.9688-1.125-2.5781 0-5.2656 2.625-5.2656 5.4375 0 2 1.4062 3.2344 3.1406 3.2344 0.96875 0 1.7969-0.40625 2.5-0.98438 1.0312-0.875 1.3438-2.0312 1.3438-2.1406 0-0.09375-0.09375-0.09375-0.125-0.09375-0.10938 0-0.125 0.0625-0.15625 0.10938-0.54688 1.875-2.1562 2.7656-3.3594 2.7656-1.2656 0-2.3594-0.8125-2.3594-2.5156 0-0.375 0.125-2.4531 1.4688-4.0312 0.65625-0.76562 1.7812-1.4219 2.9219-1.4219 1.3125 0 1.8906 1.0781 1.8906 2.2969 0 0.3125-0.03125 0.57812-0.03125 0.625 0 0.10938 0.125 0.10938 0.15625 0.10938 0.125 0 0.14062-0.015625 0.1875-0.23438z"/>
</g>
<g id="f">
<path d="m4.375-7.3438c0.10938-0.45312 0.15625-0.46875 0.625-0.46875h1.5469c1.3594 0 1.3594 1.1406 1.3594 1.25 0 0.96875-0.96875 2.2031-2.5469 2.2031h-1.7188zm2.0156 3.0781c1.3125-0.23438 2.4844-1.1562 2.4844-2.25 0-0.9375-0.8125-1.6406-2.1719-1.6406h-3.8281c-0.23438 0-0.34375 0-0.34375 0.21875 0 0.125 0.10938 0.125 0.29688 0.125 0.71875 0 0.71875 0.09375 0.71875 0.21875 0 0.03125 0 0.09375-0.046875 0.28125l-1.6094 6.4219c-0.10938 0.42188-0.14062 0.54688-0.96875 0.54688-0.23438 0-0.34375 0-0.34375 0.21875 0 0.125 0.0625 0.125 0.3125 0.125h4.0938c1.8281 0 3.2344-1.3906 3.2344-2.5938 0-0.98438-0.85938-1.5781-1.8281-1.6719zm-1.6875 3.9219h-1.625c-0.15625 0-0.1875 0-0.25-0.015625-0.14062-0.015625-0.15625-0.03125-0.15625-0.125s0.03125-0.15625 0.046875-0.26562l0.84375-3.375h2.25c1.4062 0 1.4062 1.3125 1.4062 1.4062 0 1.1562-1.0312 2.375-2.5156 2.375z"/>
</g>
<g id="e">
<path d="m1.8438-6.2031c0.40625 0.09375 0.71875 0.09375 0.90625 0.09375 0.28125 0 0.96875 0 1.7656-0.48438 0.375-0.23438 1-0.76562 1-1.0469 0-0.0625 0-0.20312-0.15625-0.20312 0 0-0.03125 0-0.14062 0.0625-0.5625 0.1875-1.1406 0.32812-1.8125 0.32812-0.6875 0-1.25-0.14062-1.8125-0.34375-0.09375-0.015625-0.125-0.046875-0.15625-0.046875-0.14062 0-0.14062 0.125-0.14062 0.32812v3.4688c0 0.23438 0 0.35938 0.23438 0.35938 0.125 0 0.14062 0 0.23438-0.125 0.14062-0.17188 0.57812-0.6875 1.5938-0.6875 1.0938 0 1.0938 1.125 1.0938 2.0625 0 0.85938 0 2.1094-1.4688 2.1094-0.4375 0-1.1875-0.17188-1.5938-0.85938 0.625 0 0.78125-0.46875 0.78125-0.73438 0-0.4375-0.3125-0.75-0.75-0.75-0.35938 0-0.75 0.20312-0.75 0.76562 0 1.0469 0.9375 2.0469 2.3594 2.0469 1.8438 0 3-1.0625 3-2.5469 0-1.4531-0.98438-2.5-2.625-2.5-0.48438 0-1.0469 0.09375-1.5625 0.48438z"/>
</g>
<g id="d">
<path d="m6.1875-3.8125c0-1.1406 0-4.0312-2.8281-4.0312s-2.8281 2.875-2.8281 4.0312c0 1.1406 0 3.9531 2.8125 3.9531 2.8281 0 2.8438-2.7656 2.8438-3.9531zm-2.8281 3.5625c-0.39062 0-0.67188-0.15625-0.90625-0.40625-0.29688-0.29688-0.5-0.48438-0.5-3.2969 0-0.84375 0-1.6094 0.10938-2.2344 0.15625-1.1719 1.0156-1.2656 1.2812-1.2656 0.39062 0 1.125 0.1875 1.2969 1.1875 0.10938 0.60938 0.10938 1.5781 0.10938 2.3125 0 2.8125-0.1875 2.9844-0.54688 3.3438-0.23438 0.23438-0.5625 0.35938-0.84375 0.35938z"/>
</g>
<g id="t">
<path d="m2.0781-4.3281c0-0.73438 0.03125-1.4688 0.375-2.1094 0.26562-0.5 0.875-0.96875 1.6406-0.96875 0.23438 0 0.65625 0.03125 0.95312 0.32812-0.45312 0.046875-0.64062 0.39062-0.64062 0.70312 0 0.4375 0.3125 0.70312 0.70312 0.70312 0.3125 0 0.70312-0.20312 0.70312-0.71875 0-0.71875-0.48438-1.4531-1.7344-1.4531-1.5 0-3.5156 0.9375-3.5156 4.0469 0 0.8125 0 3.9375 2.8281 3.9375 1.5781 0 2.75-0.92188 2.75-2.6094 0-1.6719-1.1562-2.5469-2.5781-2.5469-0.23438 0-1 0-1.4844 1.0156zm1.2969 4c-0.75 0-1.0625-0.65625-1.1094-0.75-0.15625-0.39062-0.15625-1.3438-0.15625-1.4531 0-1.4688 0.625-2.0938 1.3281-2.0938 1.1875 0 1.1875 0.95312 1.1875 2.1562 0 1.1719 0 2.1406-1.25 2.1406z"/>
</g>
<g id="s">
<path d="m4.1406-7.5c0-0.34375-0.03125-0.34375-0.40625-0.34375-0.89062 0.76562-2.2188 0.76562-2.4844 0.76562h-0.21875v0.51562h0.21875c0.42188 0 1.0625-0.078125 1.5312-0.23438v6.2812h-1.6562v0.51562c0.5-0.03125 1.75-0.03125 2.3125-0.03125s1.8281 0 2.3281 0.03125v-0.51562h-1.625z"/>
</g>
<g id="l">
<path d="m6.0781-3.2344c-0.65625-0.8125-0.79688-1-1.1719-1.2969-0.65625-0.53125-1.3281-0.75-1.9375-0.75-1.4062 0-2.3125 1.3125-2.3125 2.7188 0 1.375 0.89062 2.6875 2.2656 2.6875s2.3594-1.0781 2.9531-2.0312c0.64062 0.8125 0.78125 0.98438 1.1562 1.2812 0.67188 0.54688 1.3281 0.75 1.9531 0.75 1.3906 0 2.2969-1.3125 2.2969-2.7031 0-1.375-0.875-2.7031-2.25-2.7031s-2.375 1.0781-2.9531 2.0469zm0.3125 0.40625c0.48438-0.85938 1.3594-2.0781 2.7188-2.0781 1.2656 0 1.9062 1.25 1.9062 2.3281 0 1.1719-0.79688 2.1406-1.8438 2.1406-0.70312 0-1.2344-0.5-1.4844-0.75-0.29688-0.32812-0.57812-0.70312-1.2969-1.6406zm-0.82812 0.51562c-0.5 0.85938-1.375 2.0625-2.7344 2.0625-1.2656 0-1.9062-1.25-1.9062-2.3125 0-1.1719 0.79688-2.1406 1.8438-2.1406 0.70312 0 1.2344 0.5 1.4844 0.75 0.29688 0.3125 0.57812 0.6875 1.3125 1.6406z"/>
</g>
<clipPath id="at">
<path d="m100 178h1v43.395h-1z"/>
</clipPath>
<clipPath id="as">
<path d="m78 178h2v43.395h-2z"/>
</clipPath>
<clipPath id="an">
<path d="m57 178h65v43.395h-65z"/>
</clipPath>
<clipPath id="am">
<path d="m121 211h83v1h-83z"/>
</clipPath>
<clipPath id="al">
<path d="m-1.4727 221.39h273v-222h-273zm205.44-10.434v0.44141l-5.2617 1.6719 0.94531-1.8906-0.94531-1.8906z" clip-rule="evenodd"/>
</clipPath>
<clipPath id="ak">
<path d="m227 178h1v43.395h-1z"/>
</clipPath>
<clipPath id="aj">
<path d="m206 178h65v43.395h-65z"/>
</clipPath>
<clipPath id="ai">
<path d="m248 178h2v43.395h-2z"/>
</clipPath>
<clipPath id="ah">
<path d="m95 13h18v19h-18z"/>
</clipPath>
<clipPath id="ag">
<path d="m-1.4727 221.39h273v-222h-273zm100-204.44 0.34766-0.28125 4.7266 2.8633-2.0469 0.53516-0.78906 1.9531z" clip-rule="evenodd"/>
</clipPath>
<clipPath id="ar">
<path d="m121 145h83v2h-83z"/>
</clipPath>
<clipPath id="aq">
<path d="m-1.4727 221.39h273v-222h-273zm205.44-75.637v0.44141l-5.2617 1.668 0.94531-1.8906-0.94531-1.8867z" clip-rule="evenodd"/>
</clipPath>
<clipPath id="ap">
<path d="m118 153h128v58h-128z"/>
</clipPath>
<clipPath id="ao">
<path d="m-1.4727 221.39h273v-222h-273zm122.88-14.18-0.16016-0.41016 4.2539-3.5586-0.15625 2.1094 1.5742 1.3867z" clip-rule="evenodd"/>
</clipPath>
</defs>
<g clip-path="url(#at)">
<path transform="matrix(.1 0 0 -.1 -1.472 221.39)" d="m1017.4 428.11v-425.23" fill="none" stroke="#000" stroke-miterlimit="10" stroke-width="2.3625"/>
</g>
<path transform="matrix(.1 0 0 -.1 -1.472 221.39)" d="m592.14 215.49h637.85" fill="none" stroke="#000" stroke-miterlimit="10" stroke-width="2.3625"/>
<g clip-path="url(#as)">
<path transform="matrix(.1 0 0 -.1 -1.472 221.39)" d="m804.76 428.11v-425.23" fill="none" stroke="#000" stroke-miterlimit="10" stroke-width="2.3625"/>
</g>
<g clip-path="url(#an)">
<path transform="matrix(.1 0 0 -.1 -1.472 221.39)" d="m592.14 2.8753h637.85v425.23h-637.85z" fill="none" stroke="#000" stroke-miterlimit="10" stroke-width="2.3625"/>
</g>
<g clip-path="url(#am)">
<g clip-path="url(#al)">
<path transform="matrix(.1 0 0 -.1 -1.472 221.39)" d="m1230 102.09h822.15" fill="none" stroke="#000" stroke-miterlimit="10" stroke-width="2.3625"/>
</g>
</g>
<path d="m198.7 213.07 4.7266-1.8906-4.7266-1.8906 0.94531 1.8906-0.94531 1.8906" fill-rule="evenodd"/>
<path transform="matrix(.1 0 0 -.1 -1.472 221.39)" d="m2001.8 83.188 47.266 18.906-47.266 18.906 9.4531-18.906z" fill="none" stroke="#000" stroke-miterlimit="10" stroke-width="2.3625"/>
<g clip-path="url(#ak)">
<path transform="matrix(.1 0 0 -.1 -1.472 221.39)" d="m2293.1 428.11v-425.23" fill="none" stroke="#000" stroke-miterlimit="10" stroke-width="2.3625"/>
</g>
<g clip-path="url(#aj)">
<path transform="matrix(.1 0 0 -.1 -1.472 221.39)" d="m2080.5 2.8753h637.89v425.23h-637.89z" fill="none" stroke="#000" stroke-miterlimit="10" stroke-width="2.3625"/>
</g>
<g clip-path="url(#ai)">
<path transform="matrix(.1 0 0 -.1 -1.472 221.39)" d="m2505.7 428.11v-425.23" fill="none" stroke="#000" stroke-miterlimit="10" stroke-width="2.3625"/>
</g>
<path transform="matrix(.1 0 0 -.1 -1.472 221.39)" d="m1017.4 1066v-425.23" fill="none" stroke="#000" stroke-miterlimit="10" stroke-width="2.3625"/>
<path transform="matrix(.1 0 0 -.1 -1.472 221.39)" d="m592.14 853.38h637.85" fill="none" stroke="#000" stroke-miterlimit="10" stroke-width="2.3625"/>
<path transform="matrix(.1 0 0 -.1 -1.472 221.39)" d="m804.76 1066v-425.23" fill="none" stroke="#000" stroke-miterlimit="10" stroke-width="2.3625"/>
<path transform="matrix(.1 0 0 -.1 -1.472 221.39)" d="m592.14 640.77h637.85v425.23h-637.85z" fill="none" stroke="#000" stroke-miterlimit="10" stroke-width="2.3625"/>
<path transform="matrix(.1 0 0 -.1 -1.472 221.39)" d="m2293.1 1066v-425.23" fill="none" stroke="#000" stroke-miterlimit="10" stroke-width="2.3625"/>
<path transform="matrix(.1 0 0 -.1 -1.472 221.39)" d="m2080.5 640.77h637.89v425.23h-637.89z" fill="none" stroke="#000" stroke-miterlimit="10" stroke-width="2.3625"/>
<path transform="matrix(.1 0 0 -.1 -1.472 221.39)" d="m2505.7 1066v-425.23" fill="none" stroke="#000" stroke-miterlimit="10" stroke-width="2.3625"/>
<path transform="matrix(.1 0 0 -.1 -1.472 221.39)" d="m2080.5 215.49h637.89" fill="none" stroke="#000" stroke-miterlimit="10" stroke-width="2.3625"/>
<g clip-path="url(#ah)">
<g clip-path="url(#ag)">
<path transform="matrix(.1 0 0 -.1 -1.472 221.39)" d="m1102.4 1930.7-99.219 113.4" fill="none" stroke="#000" stroke-miterlimit="10" stroke-width="2.3625"/>
</g>
</g>
<path d="m103.61 19.535-4.5352-2.2969 1.6992 4.7852 0.78906-1.9531 2.0469-0.53516" fill-rule="evenodd"/>
<path transform="matrix(.1 0 0 -.1 -1.472 221.39)" d="m1050.8 2018.6-45.352 22.969 16.992-47.852 7.8906 19.531z" fill="none" stroke="#000" stroke-miterlimit="10" stroke-width="2.3625"/>
<path transform="matrix(.1 0 0 -.1 -1.472 221.39)" d="m1442.6 1987.4-566.99-283.48" fill="none" stroke="#000" stroke-miterlimit="10" stroke-width="4.725"/>
<path transform="matrix(.1 0 0 -.1 -1.472 221.39)" d="m1655.3 1987.4 566.99-283.48" fill="none" stroke="#000" stroke-miterlimit="10" stroke-width="4.725"/>
<path transform="matrix(.1 0 0 -.1 -1.472 221.39)" d="m875.62 1590.5h1346.6" fill="none" stroke="#000" stroke-miterlimit="10" stroke-width="4.725"/>
<path transform="matrix(.1 0 0 -.1 -1.472 221.39)" d="m1442.6 1987.4h212.66v212.66h-212.66z" fill="none" stroke="#000" stroke-miterlimit="10" stroke-width="9.45"/>
<path transform="matrix(.1 0 0 -.1 -1.472 221.39)" d="m2222.3 1491.2h212.62v212.66h-212.62z" fill="none" stroke="#000" stroke-miterlimit="10" stroke-width="9.45"/>
<path transform="matrix(.1 0 0 -.1 -1.472 221.39)" d="m663 1491.2h212.62v212.66h-212.62z" fill="none" stroke="#000" stroke-miterlimit="10" stroke-width="9.45"/>
<path transform="matrix(.1 0 0 -.1 -1.472 221.39)" d="m1228.7 2086.6h2.5" fill="none" stroke="#000" stroke-miterlimit="10" stroke-width="2.3625"/>
<path transform="matrix(.1 0 0 -.1 -1.472 221.39)" d="m2080.5 853.38h637.89" fill="none" stroke="#000" stroke-miterlimit="10" stroke-width="2.3625"/>
<g clip-path="url(#ar)">
<g clip-path="url(#aq)">
<path transform="matrix(.1 0 0 -.1 -1.472 221.39)" d="m1230 754.16h822.15" fill="none" stroke="#000" stroke-miterlimit="10" stroke-width="2.3625"/>
</g>
</g>
<path d="m198.7 147.87 4.7266-1.8906-4.7266-1.8867 0.94531 1.8867-0.94531 1.8906" fill-rule="evenodd"/>
<path transform="matrix(.1 0 0 -.1 -1.472 221.39)" d="m2001.8 735.26 47.266 18.906-47.266 18.867 9.4531-18.867z" fill="none" stroke="#000" stroke-miterlimit="10" stroke-width="2.3625"/>
<g clip-path="url(#ap)">
<g clip-path="url(#ao)">
<path transform="matrix(.1 0 0 -.1 -1.472 221.39)" d="m2434.9 640.77-1204.9-496.13" fill="none" stroke="#000" stroke-miterlimit="10" stroke-width="2.3625"/>
</g>
</g>
<path d="m125.5 203.25-3.6523 3.5586 5.0703-0.0625-1.5742-1.3867 0.15625-2.1094" fill-rule="evenodd"/>
<path transform="matrix(.1 0 0 -.1 -1.472 221.39)" d="m1269.7 181.47-36.523-35.586 50.703 0.625-15.742 13.867z" fill="none" stroke="#000" stroke-miterlimit="10" stroke-width="2.3625"/>
<g>
<use x="-0.002" y="107.622" xlink:href="#af"/>
<use x="7.472391" y="107.622" xlink:href="#p"/>
<use x="13.325657" y="107.622" xlink:href="#u"/>
<use x="20.164031" y="107.622" xlink:href="#c"/>
<use x="25.366934" y="107.622" xlink:href="#o"/>
<use x="28.618749" y="107.622" xlink:href="#o"/>
<use x="31.870563" y="107.622" xlink:href="#c"/>
<use x="37.061511" y="107.622" xlink:href="#b"/>
<use x="61.139284" y="107.622" xlink:href="#n"/>
<use x="70.239582" y="107.622" xlink:href="#b"/>
<use x="76.743211" y="107.622" xlink:href="#m"/>
<use x="82.596477" y="107.622" xlink:href="#h"/>
<use x="87.149017" y="107.622" xlink:href="#c"/>
<use x="92.35192" y="107.622" xlink:href="#b"/>
<use x="102.752944" y="107.622" xlink:href="#ae"/>
<use x="209.888273" y="107.622" xlink:href="#n"/>
<use x="218.988572" y="107.622" xlink:href="#b"/>
<use x="225.4922" y="107.622" xlink:href="#m"/>
<use x="231.345466" y="107.622" xlink:href="#h"/>
<use x="235.898006" y="107.622" xlink:href="#c"/>
<use x="241.100909" y="107.622" xlink:href="#b"/>
<use x="251.501933" y="107.622" xlink:href="#ad"/>
<use x="0.748" y="93.447" xlink:href="#ac"/>
<use x="9.688099" y="93.447" xlink:href="#ab"/>
<use x="12.939913" y="93.447" xlink:href="#aa"/>
<use x="17.557011" y="93.447" xlink:href="#h"/>
<use x="22.109551" y="93.447" xlink:href="#p"/>
<use x="27.962817" y="93.447" xlink:href="#b"/>
<use x="34.466446" y="93.447" xlink:href="#z"/>
<use x="39.669349" y="93.447" xlink:href="#y"/>
<use x="21.526" y="143.057" xlink:href="#r"/>
<use x="26.07854" y="143.057" xlink:href="#k"/>
<use x="31.931806" y="143.057" xlink:href="#q"/>
<use x="21.526" y="201.171" xlink:href="#r"/>
<use x="26.07854" y="201.171" xlink:href="#x"/>
<use x="31.931806" y="201.171" xlink:href="#q"/>
<use x="85.958" y="192.666" xlink:href="#a"/>
<use x="106.987197" y="192.666" xlink:href="#g"/>
<use x="84.492" y="213.928" xlink:href="#j"/>
<use x="90.345266" y="213.928" xlink:href="#i"/>
<use x="234.786" y="192.666" xlink:href="#a"/>
<use x="255.68369" y="192.666" xlink:href="#f"/>
<use x="212.108" y="213.928" xlink:href="#a"/>
<use x="85.958" y="128.883" xlink:href="#a"/>
<use x="106.987197" y="128.883" xlink:href="#g"/>
<use x="234.782307" y="128.883" xlink:href="#a"/>
<use x="255.691952" y="128.883" xlink:href="#f"/>
<use x="232.449" y="150.144" xlink:href="#e"/>
<use x="239.1738" y="150.144" xlink:href="#d"/>
</g>
<path transform="matrix(1 0 0 -1 232.45 151.54)" d="m2.1875e-4 -6.25e-5h13.449" fill="none" stroke="#000" stroke-miterlimit="10" stroke-width=".398"/>
<g>
<use x="83.621" y="150.144" xlink:href="#t"/>
<use x="90.3458" y="150.144" xlink:href="#d"/>
</g>
<path transform="matrix(1 0 0 -1 83.621 151.54)" d="m9.375e-5 -6.25e-5h13.449" fill="none" stroke="#000" stroke-miterlimit="10" stroke-width=".398"/>
<g>
<use x="63.279" y="150.144" xlink:href="#a"/>
<use x="102.794" y="150.144" xlink:href="#l"/>
<use x="212.108" y="150.144" xlink:href="#a"/>
<use x="63.279" y="213.928" xlink:href="#a"/>
<use x="251.747" y="150.144" xlink:href="#j"/>
<use x="257.600266" y="150.144" xlink:href="#k"/>
<use x="102.047" y="213.928" xlink:href="#e"/>
<use x="108.7718" y="213.928" xlink:href="#s"/>
</g>
<path transform="matrix(1 0 0 -1 102.05 215.32)" d="m-1.25e-4 0.0016875h13.449" fill="none" stroke="#000" stroke-miterlimit="10" stroke-width=".398"/>
<g>
<use x="232.449" y="213.928" xlink:href="#e"/>
<use x="239.1738" y="213.928" xlink:href="#d"/>
</g>
<path transform="matrix(1 0 0 -1 232.45 215.32)" d="m2.1875e-4 0.0016875h13.449" fill="none" stroke="#000" stroke-miterlimit="10" stroke-width=".398"/>
<g>
<use x="251.623" y="213.928" xlink:href="#l"/>
<use x="149.017" y="15.49" xlink:href="#a"/>
<use x="108.68" y="35.333" xlink:href="#w"/>
<use x="226.746" y="65.099" xlink:href="#g"/>
<use x="151.203" y="58.012" xlink:href="#k"/>
<use x="89.979" y="15.49" xlink:href="#j"/>
<use x="95.832266" y="15.49" xlink:href="#i"/>
<use x="199.486" y="36.751" xlink:href="#v"/>
<use x="205.339266" y="36.751" xlink:href="#i"/>
<use x="70.699" y="65.099" xlink:href="#f"/>
</g>
</svg>
