<svg width="350pt" height="212pt" version="1.1" viewBox="0 0 350 212" xmlns="http://www.w3.org/2000/svg" xmlns:xlink="http://www.w3.org/1999/xlink">
<defs>
<g id="b">
<path d="m3.8906 2.9062c0-0.03125 0-0.0625-0.20312-0.26562-1.2031-1.2031-1.875-3.1719-1.875-5.6094 0-2.3281 0.5625-4.3281 1.9531-5.7344 0.125-0.10938 0.125-0.125 0.125-0.17188 0-0.0625-0.0625-0.09375-0.10938-0.09375-0.15625 0-1.1406 0.85938-1.7188 2.0312-0.60938 1.2188-0.89062 2.4844-0.89062 3.9688 0 1.0625 0.17188 2.4844 0.78125 3.75 0.71875 1.4375 1.6875 2.2188 1.8281 2.2188 0.046875 0 0.10938-0.03125 0.10938-0.09375z"/>
</g>
<g id="d">
<path d="m4.6094-3.1875c0-0.65625 0-1.125-0.51562-1.5938-0.42188-0.375-0.96875-0.54688-1.4844-0.54688-0.98438 0-1.7344 0.64062-1.7344 1.4219 0 0.34375 0.21875 0.51562 0.5 0.51562s0.48438-0.20312 0.48438-0.5c0-0.48438-0.42188-0.48438-0.60938-0.48438 0.28125-0.5 0.85938-0.71875 1.3281-0.71875 0.54688 0 1.2656 0.45312 1.2656 1.5312v0.48438c-2.4062 0.03125-3.3125 1.0312-3.3125 1.9531 0 0.95312 1.0938 1.25 1.8281 1.25 0.78125 0 1.3281-0.48438 1.5469-1.0625 0.046875 0.5625 0.42188 1 0.9375 1 0.25 0 0.9375-0.17188 0.9375-1.125v-0.67188h-0.26562v0.67188c0 0.6875-0.28125 0.78125-0.45312 0.78125-0.45312 0-0.45312-0.64062-0.45312-0.8125zm-0.76562 1.5c0 1.1719-0.875 1.5625-1.3906 1.5625-0.59375 0-1.0781-0.42188-1.0781-1 0-1.5781 2.0312-1.7188 2.4688-1.75z"/>
</g>
<g id="a">
<path d="m3.375-2.9688c0-0.92188-0.125-2.3906-0.79688-3.7812-0.70312-1.4375-1.6875-2.2188-1.8125-2.2188-0.046875 0-0.10938 0.03125-0.10938 0.09375 0 0.046875 0 0.0625 0.20312 0.26562 1.2031 1.2031 1.8594 3.1875 1.8594 5.625 0 2.3125-0.5625 4.3125-1.9375 5.7188-0.125 0.10938-0.125 0.14062-0.125 0.17188 0 0.0625 0.0625 0.09375 0.10938 0.09375 0.15625 0 1.1406-0.85938 1.7188-2.0312 0.60938-1.2188 0.89062-2.5156 0.89062-3.9375z"/>
</g>
<g id="c">
<path d="m2-8.2969-1.6719 0.14062v0.34375c0.8125 0 0.92188 0.078125 0.92188 0.67188v7.1406h0.25c0.046875-0.09375 0.39062-0.6875 0.4375-0.78125 0.28125 0.45312 0.78125 0.90625 1.5469 0.90625 1.375 0 2.5938-1.1719 2.5938-2.7031 0-1.5156-1.125-2.6875-2.4531-2.6875-0.65625 0-1.2188 0.29688-1.625 0.79688zm0.015625 4.4688c0-0.21875 0-0.23438 0.14062-0.42188 0.28125-0.4375 0.8125-0.78125 1.3906-0.78125 0.35938 0 1.6094 0.14062 1.6094 2.4375 0 0.79688-0.10938 1.2969-0.40625 1.7344-0.23438 0.375-0.70312 0.73438-1.3125 0.73438-0.64062 0-1.0625-0.40625-1.2656-0.73438-0.15625-0.25-0.15625-0.29688-0.15625-0.5z"/>
</g>
<clipPath id="u">
<path d="m85 0.13281h16v15.867h-16z"/>
</clipPath>
<clipPath id="t">
<path d="m52 33h37v20h-37z"/>
</clipPath>
<clipPath id="l">
<path d="m-0.47266 212.13h351v-212h-351zm59.469-167-4.7539 3.1836 2.1094 3.1172 4.7578-3.1484-4.9766 1.0703z" clip-rule="evenodd"/>
</clipPath>
<clipPath id="k">
<path d="m32 54h19v39h-19z"/>
</clipPath>
<clipPath id="j">
<path d="m-0.47266 212.13h351v-212h-351zm35.406-128.2-0.91406 5.6055 3.7461 0.60156 0.88281-5.6094-2.582 4.3789z" clip-rule="evenodd"/>
</clipPath>
<clipPath id="i">
<path d="m32 92h21v41h-21z"/>
</clipPath>
<clipPath id="h">
<path d="m-0.47266 212.13h351v-212h-351zm44.664-86.078 3.4336 4.5039 2.9922-2.3008-3.4336-4.5039 1.3867 4.9141z" clip-rule="evenodd"/>
</clipPath>
<clipPath id="g">
<path d="m52 132h37v21h-37z"/>
</clipPath>
<clipPath id="f">
<path d="m-0.47266 212.13h351v-212h-351zm80.672-61.605 5.6055 0.75781 0.50391-3.75-5.6055-0.75391 4.4414 2.5195z" clip-rule="evenodd"/>
</clipPath>
<clipPath id="e">
<path d="m96 132h37v21h-37z"/>
</clipPath>
<clipPath id="s">
<path d="m-0.47266 212.13h351v-212h-351zm127.32-71.434 4.4414-3.5273-2.3281-2.9609-4.4414 3.4961 4.8828-1.418z" clip-rule="evenodd"/>
</clipPath>
<clipPath id="r">
<path d="m133 92h20v41h-20z"/>
</clipPath>
<clipPath id="q">
<path d="m-0.47266 212.13h351v-212h-351zm151.29-110.78 0.56641-5.6367-3.7461-0.41016-0.57031 5.6719 2.3633-4.5039z" clip-rule="evenodd"/>
</clipPath>
<clipPath id="p">
<path d="m133 54h21v39h-21z"/>
</clipPath>
<clipPath id="o">
<path d="m-0.47266 212.13h351v-212h-351zm142.25-151.41-3.4648-4.5039-2.9922 2.2969 3.4609 4.5039-1.3828-4.8789z" clip-rule="evenodd"/>
</clipPath>
<clipPath id="n">
<path d="m96 33h39v22h-39z"/>
</clipPath>
<clipPath id="m">
<path d="m-0.47266 212.13h351v-212h-351zm105.87-176.45-5.5781-1.0391-0.69141 3.7148 5.5742 1.0391-4.2812-2.707z" clip-rule="evenodd"/>
</clipPath>
</defs>
<path transform="matrix(.1 0 0 -.1 -.472 212.13)" d="m364.76 690.38 70.859 70.859" fill="none" stroke="#000" stroke-miterlimit="10" stroke-width="4.725"/>
<path transform="matrix(.1 0 0 -.1 -.472 212.13)" d="m1498.7 1682.6-70.859-70.898" fill="none" stroke="#000" stroke-miterlimit="10" stroke-width="4.725"/>
<path transform="matrix(.1 0 0 -.1 -.472 212.13)" d="m1498.7 690.38-70.859 70.859" fill="none" stroke="#000" stroke-miterlimit="10" stroke-width="4.725"/>
<path transform="matrix(.1 0 0 -.1 -.472 212.13)" d="m152.14 1186.5h141.72" fill="none" stroke="#000" stroke-miterlimit="10" stroke-width="4.725"/>
<path transform="matrix(.1 0 0 -.1 -.472 212.13)" d="m364.76 1682.6 70.859-70.898" fill="none" stroke="#000" stroke-miterlimit="10" stroke-width="4.725"/>
<path transform="matrix(.1 0 0 -.1 -.472 212.13)" d="m291.67 1186.5h4.7266" fill="none" stroke="#000" stroke-miterlimit="10" stroke-width="4.725"/>
<path transform="matrix(.1 0 0 -.1 -.472 212.13)" d="m1498.7 1190.9c0-313.16-253.87-567.03-566.99-567.03-313.16 0-566.99 253.87-566.99 567.03 0 313.12 253.83 566.99 566.99 566.99 313.12 0 566.99-253.87 566.99-566.99z" fill="none" stroke="#000" stroke-miterlimit="10" stroke-width="9.45"/>
<path d="m85.617 151.6h14.172v-4.25h-14.172z" fill="#fff" fill-rule="evenodd"/>
<path d="m34.586 96.316h2.8359v-7.0859h-2.8359z" fill="#fff" fill-rule="evenodd"/>
<path d="m129.56 58.043h8.5039v-7.0859h-8.5039z" fill="#fff" fill-rule="evenodd"/>
<path d="m146.57 96.316h5.6719v-7.0859h-5.6719z" fill="#fff" fill-rule="evenodd"/>
<path d="m129.56 136.01h8.5039v-7.0898h-8.5039z" fill="#fff" fill-rule="evenodd"/>
<path d="m85.617 38.199h14.172v-2.8359h-14.172z" fill="#fff" fill-rule="evenodd"/>
<path d="m45.926 58.043h9.9219v-7.0859h-9.9219z" fill="#fff" fill-rule="evenodd"/>
<path d="m45.926 136.01h11.34v-7.0898h-11.34z" fill="#fff" fill-rule="evenodd"/>
<path transform="matrix(.1 0 0 -.1 -.472 212.13)" d="m2817 1073.1c-14.375 9.3359-31.172 14.336-48.32 14.336-24.727 0-48.32-10.352-65.078-28.516" fill="none" stroke="#000" stroke-miterlimit="10" stroke-width="4.725"/>
<path transform="matrix(.1 0 0 -.1 -.472 212.13)" d="m3284.8 1611.7-70.859-70.859" fill="none" stroke="#000" stroke-miterlimit="10" stroke-width="2.3625"/>
<path transform="matrix(.1 0 0 -.1 -.472 212.13)" d="m860.89 265.11h141.72v141.76h-141.72z" fill="none" stroke="#000" stroke-miterlimit="10" stroke-width="9.45"/>
<path transform="matrix(.1 0 0 -.1 -.472 212.13)" d="m10.384 1115.6h141.76v141.76h-141.76z" fill="none" stroke="#000" stroke-miterlimit="10" stroke-width="9.45"/>
<g clip-path="url(#u)">
<path transform="matrix(.1 0 0 -.1 -.472 212.13)" d="m860.89 1966.1h141.72v141.76h-141.72z" fill="none" stroke="#000" stroke-miterlimit="10" stroke-width="9.45"/>
</g>
<path transform="matrix(.1 0 0 -.1 -.472 212.13)" d="m1711.4 1115.6h141.76v141.76h-141.76z" fill="none" stroke="#000" stroke-miterlimit="10" stroke-width="9.45"/>
<path transform="matrix(.1 0 0 -.1 -.472 212.13)" d="m2207.5 619.48h141.76v141.76h-141.76z" fill="none" stroke="#000" stroke-miterlimit="10" stroke-width="9.45"/>
<path transform="matrix(.1 0 0 -.1 -.472 212.13)" d="m2746.2 477.77h141.72v141.72h-141.72z" fill="none" stroke="#000" stroke-miterlimit="10" stroke-width="9.45"/>
<path transform="matrix(.1 0 0 -.1 -.472 212.13)" d="m3270.6 619.48h141.76v141.76h-141.76z" fill="none" stroke="#000" stroke-miterlimit="10" stroke-width="9.45"/>
<path transform="matrix(.1 0 0 -.1 -.472 212.13)" d="m3355.7 1115.6h141.72v141.76h-141.72z" fill="none" stroke="#000" stroke-miterlimit="10" stroke-width="9.45"/>
<path transform="matrix(.1 0 0 -.1 -.472 212.13)" d="m3284.8 1611.7h141.76v141.76h-141.76z" fill="none" stroke="#000" stroke-miterlimit="10" stroke-width="9.45"/>
<path transform="matrix(.1 0 0 -.1 -.472 212.13)" d="m2746.2 1753.5h141.72v141.76h-141.72z" fill="none" stroke="#000" stroke-miterlimit="10" stroke-width="9.45"/>
<path transform="matrix(.1 0 0 -.1 -.472 212.13)" d="m2207.5 1611.7h141.76v141.76h-141.76z" fill="none" stroke="#000" stroke-miterlimit="10" stroke-width="9.45"/>
<path transform="matrix(.1 0 0 -.1 -.472 212.13)" d="m2136.6 1115.6h141.76v141.76h-141.76z" fill="none" stroke="#000" stroke-miterlimit="10" stroke-width="9.45"/>
<path transform="matrix(.1 0 0 -.1 -.472 212.13)" d="m2420.1 1470h141.76v70.898h-141.76z" fill="none" stroke="#000" stroke-miterlimit="10" stroke-width="9.45"/>
<path transform="matrix(.1 0 0 -.1 -.472 212.13)" d="m2746.2 1512.5h141.72v70.859h-141.72z" fill="none" stroke="#000" stroke-miterlimit="10" stroke-width="9.45"/>
<path transform="matrix(.1 0 0 -.1 -.472 212.13)" d="m3072.2 1470h141.76v70.898h-141.76z" fill="none" stroke="#000" stroke-miterlimit="10" stroke-width="9.45"/>
<path transform="matrix(.1 0 0 -.1 -.472 212.13)" d="m3128.9 1115.6h70.898v141.76h-70.898z" fill="none" stroke="#000" stroke-miterlimit="10" stroke-width="9.45"/>
<path transform="matrix(.1 0 0 -.1 -.472 212.13)" d="m3058 832.14h141.76v70.859h-141.76z" fill="none" stroke="#000" stroke-miterlimit="10" stroke-width="9.45"/>
<path transform="matrix(.1 0 0 -.1 -.472 212.13)" d="m2746.2 789.6h141.72v70.859h-141.72z" fill="none" stroke="#000" stroke-miterlimit="10" stroke-width="9.45"/>
<path transform="matrix(.1 0 0 -.1 -.472 212.13)" d="m2420.1 832.14h141.76v70.859h-141.76z" fill="none" stroke="#000" stroke-miterlimit="10" stroke-width="9.45"/>
<path transform="matrix(.1 0 0 -.1 -.472 212.13)" d="m2434.3 1115.6h70.898v141.76h-70.898z" fill="none" stroke="#000" stroke-miterlimit="10" stroke-width="9.45"/>
<path transform="matrix(.1 0 0 -.1 -.472 212.13)" d="m860.89 591.16h141.72v70.859h-141.72z" fill="none" stroke="#000" stroke-miterlimit="10" stroke-width="9.45"/>
<path transform="matrix(.1 0 0 -.1 -.472 212.13)" d="m293.86 1158.2h141.76v70.859h-141.76z" fill="none" stroke="#000" stroke-miterlimit="10" stroke-width="9.45"/>
<path transform="matrix(.1 0 0 -.1 -.472 212.13)" d="m860.89 1725.1h141.72v70.859h-141.72z" fill="none" stroke="#000" stroke-miterlimit="10" stroke-width="9.45"/>
<path transform="matrix(.1 0 0 -.1 -.472 212.13)" d="m1427.9 1158.2h141.76v70.859h-141.76z" fill="none" stroke="#000" stroke-miterlimit="10" stroke-width="9.45"/>
<path transform="matrix(.1 0 0 -.1 -.472 212.13)" d="m2349.3 761.24 70.859 70.898" fill="none" stroke="#000" stroke-miterlimit="10" stroke-width="4.725"/>
<path transform="matrix(.1 0 0 -.1 -.472 212.13)" d="m2434.3 1186.5h-155.9" fill="none" stroke="#000" stroke-miterlimit="10" stroke-width="4.725"/>
<path transform="matrix(.1 0 0 -.1 -.472 212.13)" d="m2505.2 1186.5h198.44" fill="none" stroke="#000" stroke-miterlimit="10" stroke-width="4.725"/>
<path transform="matrix(.1 0 0 -.1 -.472 212.13)" d="m2717.8 1073.1-155.94-170.12" fill="none" stroke="#000" stroke-miterlimit="10" stroke-width="4.725"/>
<path transform="matrix(.1 0 0 -.1 -.472 212.13)" d="m2349.3 1611.7 70.859-70.859" fill="none" stroke="#000" stroke-miterlimit="10" stroke-width="4.725"/>
<path transform="matrix(.1 0 0 -.1 -.472 212.13)" d="m2817 1753.5v-170.12" fill="none" stroke="#000" stroke-miterlimit="10" stroke-width="4.725"/>
<path transform="matrix(.1 0 0 -.1 -.472 212.13)" d="m2817 1512.5v-226.8" fill="none" stroke="#000" stroke-miterlimit="10" stroke-width="4.725"/>
<path transform="matrix(.1 0 0 -.1 -.472 212.13)" d="m2902.1 1285.7 170.12 184.26" fill="none" stroke="#000" stroke-miterlimit="10" stroke-width="4.725"/>
<path transform="matrix(.1 0 0 -.1 -.472 212.13)" d="m3128.9 1186.5h-212.62" fill="none" stroke="#000" stroke-miterlimit="10" stroke-width="4.725"/>
<path transform="matrix(.1 0 0 -.1 -.472 212.13)" d="m3199.8 1186.5h155.94" fill="none" stroke="#000" stroke-miterlimit="10" stroke-width="4.725"/>
<path transform="matrix(.1 0 0 -.1 -.472 212.13)" d="m3270.6 761.24-70.859 70.898" fill="none" stroke="#000" stroke-miterlimit="10" stroke-width="4.725"/>
<path transform="matrix(.1 0 0 -.1 -.472 212.13)" d="m2916.2 1073.1 141.76-170.12" fill="none" stroke="#000" stroke-miterlimit="10" stroke-width="4.725"/>
<path transform="matrix(.1 0 0 -.1 -.472 212.13)" d="m2817 860.46v212.66" fill="none" stroke="#000" stroke-miterlimit="10" stroke-width="4.725"/>
<path transform="matrix(.1 0 0 -.1 -.472 212.13)" d="m2817 619.48v170.12" fill="none" stroke="#000" stroke-miterlimit="10" stroke-width="4.725"/>
<path transform="matrix(.1 0 0 -.1 -.472 212.13)" d="m2732 1285.7-170.12 184.26" fill="none" stroke="#000" stroke-miterlimit="10" stroke-width="4.725"/>
<path transform="matrix(.1 0 0 -.1 -.472 212.13)" d="m2675.3 1044.8h283.52v283.48h-283.52z" fill="none" stroke="#000" stroke-dasharray="18.9" stroke-miterlimit="10" stroke-width="4.725"/>
<path transform="matrix(.1 0 0 -.1 -.472 212.13)" d="m223 1682.6h141.76v141.72h-141.76z" fill="none" stroke="#000" stroke-miterlimit="10" stroke-width="9.45"/>
<path transform="matrix(.1 0 0 -.1 -.472 212.13)" d="m360.03 1682.6h9.4531" fill="none" stroke="#000" stroke-miterlimit="10" stroke-width="9.45"/>
<path transform="matrix(.1 0 0 -.1 -.472 212.13)" d="m1286.1 1540.9h141.76v70.859h-141.76z" fill="none" stroke="#000" stroke-miterlimit="10" stroke-width="9.45"/>
<path transform="matrix(.1 0 0 -.1 -.472 212.13)" d="m1286.1 761.24h141.76v70.898h-141.76z" fill="none" stroke="#000" stroke-miterlimit="10" stroke-width="9.45"/>
<path transform="matrix(.1 0 0 -.1 -.472 212.13)" d="m1498.7 548.62h141.76v141.76h-141.76z" fill="none" stroke="#000" stroke-miterlimit="10" stroke-width="9.45"/>
<path transform="matrix(.1 0 0 -.1 -.472 212.13)" d="m1494 690.38h9.4531" fill="none" stroke="#000" stroke-miterlimit="10" stroke-width="9.45"/>
<path transform="matrix(.1 0 0 -.1 -.472 212.13)" d="m435.62 761.24h141.76v70.898h-141.76z" fill="none" stroke="#000" stroke-miterlimit="10" stroke-width="9.45"/>
<path transform="matrix(.1 0 0 -.1 -.472 212.13)" d="m147.42 1186.5h9.4531" fill="none" stroke="#000" stroke-miterlimit="10" stroke-width="9.45"/>
<path transform="matrix(.1 0 0 -.1 -.472 212.13)" d="m435.62 1540.9h141.76v70.859h-141.76z" fill="none" stroke="#000" stroke-miterlimit="10" stroke-width="4.725"/>
<path transform="matrix(.1 0 0 -.1 -.472 212.13)" d="m931.75 1966.1v-170.12" fill="none" stroke="#000" stroke-miterlimit="10" stroke-width="4.725"/>
<path transform="matrix(.1 0 0 -.1 -.472 212.13)" d="m1496.6 1682.6h4.7266" fill="none" stroke="#000" stroke-miterlimit="10" stroke-width="4.725"/>
<path transform="matrix(.1 0 0 -.1 -.472 212.13)" d="m1569.6 1186.5h141.72" fill="none" stroke="#000" stroke-miterlimit="10" stroke-width="4.725"/>
<path transform="matrix(.1 0 0 -.1 -.472 212.13)" d="m931.75 591.16v-184.3" fill="none" stroke="#000" stroke-miterlimit="10" stroke-width="4.725"/>
<path transform="matrix(.1 0 0 -.1 -.472 212.13)" d="m362.53 690.38h4.7266" fill="none" stroke="#000" stroke-miterlimit="10" stroke-width="4.725"/>
<path transform="matrix(.1 0 0 -.1 -.472 212.13)" d="m223 548.62h141.76v141.76h-141.76z" fill="none" stroke="#000" stroke-miterlimit="10" stroke-width="9.45"/>
<path transform="matrix(.1 0 0 -.1 -.472 212.13)" d="m1498.7 1682.6h141.76v141.72h-141.76z" fill="none" stroke="#000" stroke-miterlimit="10" stroke-width="9.45"/>
<g clip-path="url(#t)">
<g clip-path="url(#l)">
<path transform="matrix(.1 0 0 -.1 -.472 212.13)" d="m860.89 1753.5c-107.03-21.367-208.44-64.805-297.7-127.58" fill="none" stroke="#000" stroke-miterlimit="10" stroke-width="2.3625"/>
</g>
</g>
<path d="m58.996 45.129-2.8633 4.2227 4.9766-1.0703-1.8594-1.043-0.25391-2.1094" fill-rule="evenodd"/>
<path transform="matrix(.1 0 0 -.1 -.472 212.13)" d="m594.68 1670-28.633-42.227 49.766 10.703-18.594 10.43z" fill="none" stroke="#000" stroke-miterlimit="10" stroke-width="2.3625"/>
<g clip-path="url(#k)">
<g clip-path="url(#j)">
<path transform="matrix(.1 0 0 -.1 -.472 212.13)" d="m478.16 1540.9c-60.156-94.375-98.867-200.82-113.4-311.84" fill="none" stroke="#000" stroke-miterlimit="10" stroke-width="2.3625"/>
</g>
</g>
<path d="m34.934 83.938 1.1328 4.9766 2.582-4.3789-2.0156 0.62891-1.6992-1.2266" fill-rule="evenodd"/>
<path transform="matrix(.1 0 0 -.1 -.472 212.13)" d="m354.06 1281.9 11.328-49.766 25.82 43.789-20.156-6.2891z" fill="none" stroke="#000" stroke-miterlimit="10" stroke-width="2.3625"/>
<g clip-path="url(#i)">
<g clip-path="url(#h)">
<path transform="matrix(.1 0 0 -.1 -.472 212.13)" d="m364.76 1158.2c7.0703-119.41 51.719-233.52 127.54-326.02" fill="none" stroke="#000" stroke-miterlimit="10" stroke-width="2.3625"/>
</g>
</g>
<path d="m44.191 126.05 4.3789 2.6133-1.3867-4.9141-0.91016 1.8906-2.082 0.41016" fill-rule="evenodd"/>
<path transform="matrix(.1 0 0 -.1 -.472 212.13)" d="m446.63 860.77 43.789-26.133-13.867 49.141-9.1016-18.906z" fill="none" stroke="#000" stroke-miterlimit="10" stroke-width="2.3625"/>
<g clip-path="url(#g)">
<g clip-path="url(#f)">
<path transform="matrix(.1 0 0 -.1 -.472 212.13)" d="m563.2 761.24c81.25-75.938 185.39-122.77 296.09-133.24" fill="none" stroke="#000" stroke-miterlimit="10" stroke-width="2.3625"/>
</g>
</g>
<path d="m80.199 150.53 4.9453-1.2266-4.4414-2.5195 0.69141 1.9844-1.1953 1.7617" fill-rule="evenodd"/>
<path transform="matrix(.1 0 0 -.1 -.472 212.13)" d="m806.71 616.05 49.453 12.266-44.414 25.195 6.9141-19.844z" fill="none" stroke="#000" stroke-miterlimit="10" stroke-width="2.3625"/>
<g clip-path="url(#e)">
<g clip-path="url(#s)">
<path transform="matrix(.1 0 0 -.1 -.472 212.13)" d="m1003.6 625.81c109.88 15.938 213.05 62.578 297.66 134.49" fill="none" stroke="#000" stroke-miterlimit="10" stroke-width="2.3625"/>
</g>
</g>
<path d="m126.85 140.7 2.5547-4.4102-4.8828 1.418 1.8867 0.91406 0.44141 2.0781" fill-rule="evenodd"/>
<path transform="matrix(.1 0 0 -.1 -.472 212.13)" d="m1273.2 714.33 25.547 44.102-48.828-14.18 18.867-9.1406z" fill="none" stroke="#000" stroke-miterlimit="10" stroke-width="2.3625"/>
<g clip-path="url(#r)">
<g clip-path="url(#q)">
<path transform="matrix(.1 0 0 -.1 -.472 212.13)" d="m1374.3 833.7c72.969 93.945 116.48 207.38 125.04 326.02" fill="none" stroke="#000" stroke-miterlimit="10" stroke-width="2.3625"/>
</g>
</g>
<path d="m150.82 101.36-1.3867-4.8789-2.3633 4.5039 1.9531-0.75781 1.7969 1.1328" fill-rule="evenodd"/>
<path transform="matrix(.1 0 0 -.1 -.472 212.13)" d="m1512.9 1107.8-13.867 48.789-23.633-45.039 19.531 7.5781z" fill="none" stroke="#000" stroke-miterlimit="10" stroke-width="2.3625"/>
<g clip-path="url(#p)">
<g clip-path="url(#o)">
<path transform="matrix(.1 0 0 -.1 -.472 212.13)" d="m1501.9 1228.1c-7.6172 115.35-51.367 225.35-125.04 314.38" fill="none" stroke="#000" stroke-miterlimit="10" stroke-width="2.3625"/>
</g>
</g>
<path d="m141.78 60.723-4.3789-2.582 1.3828 4.8789 0.91406-1.918 2.082-0.37891" fill-rule="evenodd"/>
<path transform="matrix(.1 0 0 -.1 -.472 212.13)" d="m1422.5 1514.1-43.789 25.82 13.828-48.789 9.1406 19.18z" fill="none" stroke="#000" stroke-miterlimit="10" stroke-width="2.3625"/>
<g clip-path="url(#n)">
<g clip-path="url(#m)">
<path transform="matrix(.1 0 0 -.1 -.472 212.13)" d="m1312.9 1610.8c-86.133 76.992-192.85 127.11-307.11 144.26" fill="none" stroke="#000" stroke-miterlimit="10" stroke-width="2.3625"/>
</g>
</g>
<path d="m105.4 35.68-4.9766 1.0078 4.2812 2.707-0.56641-2.0469 1.2617-1.668" fill-rule="evenodd"/>
<path transform="matrix(.1 0 0 -.1 -.472 212.13)" d="m1058.7 1764.5-49.766-10.078 42.812-27.07-5.6641 20.469z" fill="none" stroke="#000" stroke-miterlimit="10" stroke-width="2.3625"/>
<path transform="matrix(.1 0 0 -.1 -.472 212.13)" d="m2703.6 1058.9c19.688 15.312 31.172 38.828 31.172 63.789 0 24.922-11.484 48.477-31.172 63.75" fill="none" stroke="#000" stroke-miterlimit="10" stroke-width="4.725"/>
<path transform="matrix(.1 0 0 -.1 -.472 212.13)" d="m2703.6 1186.5c19.531 21.25 30.352 49.062 30.352 77.93 0 7.1484-0.66406 14.258-1.9922 21.289" fill="none" stroke="#000" stroke-miterlimit="10" stroke-width="4.725"/>
<path transform="matrix(.1 0 0 -.1 -.472 212.13)" d="m2717.8 1299.9c10.156-17.812 29.102-28.789 49.609-28.789 20.508 0 39.453 10.977 49.609 28.789" fill="none" stroke="#000" stroke-miterlimit="10" stroke-width="4.725"/>
<path transform="matrix(.1 0 0 -.1 -.472 212.13)" d="m2817 1299.9c10.156-17.812 29.102-28.789 49.609-28.789 20.508 0 39.453 10.977 49.609 28.789" fill="none" stroke="#000" stroke-miterlimit="10" stroke-width="4.725"/>
<path transform="matrix(.1 0 0 -.1 -.472 212.13)" d="m2916.2 1299.9c-9.2969-17.461-14.18-36.953-14.18-56.719s4.8828-39.258 14.18-56.68" fill="none" stroke="#000" stroke-miterlimit="10" stroke-width="4.725"/>
<path transform="matrix(.1 0 0 -.1 -.472 212.13)" d="m2916.2 1186.5c-9.8828-17.305-15.039-36.836-15.039-56.719 0-19.883 5.1562-39.414 15.039-56.68" fill="none" stroke="#000" stroke-miterlimit="10" stroke-width="4.725"/>
<path transform="matrix(.1 0 0 -.1 -.472 212.13)" d="m2916.2 1073.1c-14.805 9.4141-32.031 14.453-49.609 14.453s-34.805-5.0391-49.609-14.453" fill="none" stroke="#000" stroke-miterlimit="10" stroke-width="4.725"/>
<g>
<use x="83.27" y="208.258" xlink:href="#b"/>
<use x="87.82254" y="208.258" xlink:href="#d"/>
<use x="93.675806" y="208.258" xlink:href="#a"/>
<use x="274.830561" y="208.258" xlink:href="#b"/>
<use x="279.383101" y="208.258" xlink:href="#c"/>
<use x="285.88673" y="208.258" xlink:href="#a"/>
</g>
</svg>
