<svg width="313pt" height="405pt" version="1.1" viewBox="0 0 313 405" xmlns="http://www.w3.org/2000/svg" xmlns:xlink="http://www.w3.org/1999/xlink">
<defs>
<g id="b">
<path d="m1.2656-0.76562 1.0625-1.0312c1.5469-1.375 2.1406-1.9062 2.1406-2.9062 0-1.1406-0.89062-1.9375-2.1094-1.9375-1.125 0-1.8594 0.92188-1.8594 1.8125 0 0.54688 0.5 0.54688 0.53125 0.54688 0.17188 0 0.51562-0.10938 0.51562-0.53125 0-0.25-0.1875-0.51562-0.53125-0.51562-0.078125 0-0.09375 0-0.125 0.015625 0.21875-0.65625 0.76562-1.0156 1.3438-1.0156 0.90625 0 1.3281 0.8125 1.3281 1.625 0 0.79688-0.48438 1.5781-1.0469 2.2031l-1.9062 2.125c-0.10938 0.10938-0.10938 0.14062-0.10938 0.375h3.7031l0.26562-1.7344h-0.23438c-0.0625 0.29688-0.125 0.73438-0.23438 0.89062-0.0625 0.078125-0.71875 0.078125-0.9375 0.078125z"/>
</g>
<g id="d">
<path d="m4.5781-3.1875c0-0.79688-0.046875-1.5938-0.39062-2.3281-0.45312-0.96875-1.2812-1.125-1.6875-1.125-0.60938 0-1.3281 0.26562-1.75 1.1875-0.3125 0.6875-0.35938 1.4688-0.35938 2.2656 0 0.75 0.03125 1.6406 0.45312 2.4062 0.42188 0.79688 1.1562 1 1.6406 1 0.53125 0 1.2969-0.20312 1.7344-1.1562 0.3125-0.6875 0.35938-1.4688 0.35938-2.25zm-2.0938 3.1875c-0.39062 0-0.98438-0.25-1.1562-1.2031-0.10938-0.59375-0.10938-1.5156-0.10938-2.1094 0-0.64062 0-1.2969 0.078125-1.8281 0.1875-1.1875 0.9375-1.2812 1.1875-1.2812 0.32812 0 0.98438 0.1875 1.1719 1.1719 0.10938 0.5625 0.10938 1.3125 0.10938 1.9375 0 0.75 0 1.4219-0.10938 2.0625-0.15625 0.95312-0.71875 1.25-1.1719 1.25z"/>
</g>
<g id="a">
<path d="m1.9062-0.53125c0-0.28125-0.23438-0.53125-0.51562-0.53125-0.29688 0-0.53125 0.25-0.53125 0.53125 0 0.29688 0.23438 0.53125 0.53125 0.53125 0.28125 0 0.51562-0.23438 0.51562-0.53125z"/>
</g>
<g id="c">
<path d="m2.9375-6.375c0-0.25 0-0.26562-0.23438-0.26562-0.625 0.64062-1.5 0.64062-1.8125 0.64062v0.3125c0.20312 0 0.78125 0 1.2969-0.26562v5.1719c0 0.35938-0.03125 0.46875-0.92188 0.46875h-0.3125v0.3125c0.34375-0.03125 1.2031-0.03125 1.6094-0.03125 0.39062 0 1.2656 0 1.6094 0.03125v-0.3125h-0.3125c-0.90625 0-0.92188-0.10938-0.92188-0.46875z"/>
</g>
<g id="i">
<path d="m2.9375-1.6406v0.85938c0 0.35938-0.03125 0.46875-0.76562 0.46875h-0.20312v0.3125c0.40625-0.03125 0.92188-0.03125 1.3438-0.03125s0.9375 0 1.3594 0.03125v-0.3125h-0.21875c-0.73438 0-0.75-0.10938-0.75-0.46875v-0.85938h0.98438v-0.3125h-0.98438v-4.5312c0-0.20312 0-0.26562-0.17188-0.26562-0.078125 0-0.10938 0-0.1875 0.125l-3.0625 4.6719v0.3125zm0.046875-0.3125h-2.4219l2.4219-3.7188z"/>
</g>
<g id="k">
<path d="m6.1094-6.0312c0-0.35938 0.015625-0.46875 0.78125-0.46875h0.25v-0.3125c-0.35938 0.03125-1.0938 0.03125-1.4688 0.03125s-1.125 0-1.4688-0.03125v0.3125h0.23438c0.76562 0 0.78125 0.10938 0.78125 0.46875v2.3281h-2.9688v-2.3281c0-0.35938 0.015625-0.46875 0.78125-0.46875h0.23438v-0.3125c-0.34375 0.03125-1.0781 0.03125-1.4688 0.03125-0.375 0-1.125 0-1.4688-0.03125v0.3125h0.23438c0.76562 0 0.79688 0.10938 0.79688 0.46875v5.25c0 0.35938-0.03125 0.46875-0.79688 0.46875h-0.23438v0.3125c0.34375-0.03125 1.0938-0.03125 1.4688-0.03125s1.125 0 1.4688 0.03125v-0.3125h-0.23438c-0.76562 0-0.78125-0.10938-0.78125-0.46875v-2.6094h2.9688v2.6094c0 0.35938-0.015625 0.46875-0.78125 0.46875h-0.23438v0.3125c0.34375-0.03125 1.0781-0.03125 1.4531-0.03125 0.39062 0 1.125 0 1.4844 0.03125v-0.3125h-0.25c-0.76562 0-0.78125-0.10938-0.78125-0.46875z"/>
</g>
<g id="g">
<path d="m4.6875-2.1406c0-1.2656-0.98438-2.3281-2.1875-2.3281-1.25 0-2.2188 1.0938-2.2188 2.3281 0 1.2969 1.0312 2.25 2.2031 2.25 1.2031 0 2.2031-0.98438 2.2031-2.25zm-2.1875 2c-0.4375 0-0.875-0.20312-1.1406-0.67188-0.25-0.4375-0.25-1.0469-0.25-1.4062 0-0.39062 0-0.92188 0.23438-1.3594 0.26562-0.45312 0.73438-0.67188 1.1406-0.67188 0.4375 0 0.85938 0.21875 1.125 0.65625 0.26562 0.42188 0.26562 1 0.26562 1.375 0 0.35938 0 0.90625-0.21875 1.3438-0.23438 0.45312-0.67188 0.73438-1.1562 0.73438z"/>
</g>
<g id="h">
<path d="m2.0781-1.9375c0.21875 0.046875 1.0312 0.20312 1.0312 0.92188 0 0.5-0.34375 0.90625-1.125 0.90625-0.84375 0-1.2031-0.5625-1.3906-1.4219-0.03125-0.125-0.03125-0.15625-0.14062-0.15625-0.125 0-0.125 0.0625-0.125 0.23438v1.3281c0 0.17188 0 0.23438 0.10938 0.23438 0.046875 0 0.0625-0.015625 0.25-0.20312 0.015625-0.015625 0.015625-0.03125 0.20312-0.21875 0.4375 0.40625 0.89062 0.42188 1.0938 0.42188 1.1406 0 1.6094-0.67188 1.6094-1.3906 0-0.51562-0.29688-0.82812-0.42188-0.9375-0.32812-0.32812-0.71875-0.40625-1.1406-0.48438-0.5625-0.10938-1.2188-0.23438-1.2188-0.8125 0-0.35938 0.25-0.76562 1.1094-0.76562 1.0938 0 1.1562 0.90625 1.1719 1.2031 0 0.09375 0.09375 0.09375 0.10938 0.09375 0.14062 0 0.14062-0.046875 0.14062-0.23438v-1.0156c0-0.15625 0-0.23438-0.10938-0.23438-0.046875 0-0.078125 0-0.20312 0.125-0.03125 0.03125-0.125 0.125-0.17188 0.15625-0.375-0.28125-0.78125-0.28125-0.9375-0.28125-1.2188 0-1.5938 0.67188-1.5938 1.2344 0 0.34375 0.15625 0.625 0.42188 0.84375 0.32812 0.25 0.60938 0.3125 1.3281 0.45312z"/>
</g>
<g id="e">
<path d="m1.7188-3.9844h1.4375v-0.3125h-1.4375v-1.8281h-0.25c0 0.8125-0.29688 1.875-1.2812 1.9219v0.21875h0.84375v2.75c0 1.2188 0.9375 1.3438 1.2969 1.3438 0.70312 0 0.98438-0.70312 0.98438-1.3438v-0.5625h-0.25v0.54688c0 0.73438-0.29688 1.1094-0.67188 1.1094-0.67188 0-0.67188-0.90625-0.67188-1.0781z"/>
</g>
<g id="m">
<path d="m2.8906-3.5156c0.8125-0.26562 1.3906-0.95312 1.3906-1.75 0-0.8125-0.875-1.375-1.8281-1.375-1 0-1.7656 0.59375-1.7656 1.3594 0 0.32812 0.21875 0.51562 0.51562 0.51562s0.5-0.21875 0.5-0.51562c0-0.48438-0.46875-0.48438-0.60938-0.48438 0.29688-0.5 0.95312-0.625 1.3125-0.625 0.42188 0 0.96875 0.21875 0.96875 1.1094 0 0.125-0.03125 0.70312-0.28125 1.1406-0.29688 0.48438-0.64062 0.51562-0.89062 0.51562-0.078125 0.015625-0.3125 0.03125-0.39062 0.03125-0.078125 0.015625-0.14062 0.03125-0.14062 0.125 0 0.10938 0.0625 0.10938 0.23438 0.10938h0.4375c0.8125 0 1.1875 0.67188 1.1875 1.6562 0 1.3594-0.6875 1.6406-1.125 1.6406s-1.1875-0.17188-1.5312-0.75c0.34375 0.046875 0.65625-0.17188 0.65625-0.54688 0-0.35938-0.26562-0.5625-0.54688-0.5625-0.25 0-0.5625 0.14062-0.5625 0.57812 0 0.90625 0.92188 1.5625 2.0156 1.5625 1.2188 0 2.125-0.90625 2.125-1.9219 0-0.8125-0.64062-1.5938-1.6719-1.8125z"/>
</g>
<g id="t">
<path d="m2.2344-3.5156v-2.5781c0-0.23438 0-0.35938 0.21875-0.39062 0.09375-0.015625 0.39062-0.015625 0.59375-0.015625 0.89062 0 2 0.046875 2 1.4844 0 0.6875-0.23438 1.5-1.7031 1.5zm2.1094 0.125c0.95312-0.23438 1.7344-0.84375 1.7344-1.625 0-0.95312-1.1406-1.7969-2.5938-1.7969h-3.1406v0.3125h0.25c0.76562 0 0.78125 0.10938 0.78125 0.46875v5.25c0 0.35938-0.015625 0.46875-0.78125 0.46875h-0.25v0.3125c0.35938-0.03125 1.0781-0.03125 1.4531-0.03125 0.39062 0 1.1094 0 1.4688 0.03125v-0.3125h-0.25c-0.76562 0-0.78125-0.10938-0.78125-0.46875v-2.5156h1.1406c0.15625 0 0.57812 0 0.9375 0.34375 0.375 0.34375 0.375 0.65625 0.375 1.3281 0 0.64062 0 1.0469 0.40625 1.4219 0.40625 0.35938 0.95312 0.42188 1.25 0.42188 0.78125 0 0.95312-0.8125 0.95312-1.0938 0-0.0625 0-0.17188-0.125-0.17188-0.10938 0-0.10938 0.09375-0.125 0.15625-0.0625 0.71875-0.40625 0.89062-0.65625 0.89062-0.48438 0-0.5625-0.51562-0.70312-1.4375l-0.14062-0.79688c-0.17188-0.64062-0.65625-0.96875-1.2031-1.1562z"/>
</g>
<g id="s">
<path d="m3.8906-0.78125v0.89062l1.4375-0.10938v-0.3125c-0.6875 0-0.76562-0.0625-0.76562-0.5625v-3.5312l-1.4688 0.10938v0.3125c0.6875 0 0.78125 0.0625 0.78125 0.5625v1.7656c0 0.875-0.48438 1.5469-1.2188 1.5469-0.82812 0-0.875-0.46875-0.875-0.98438v-3.3125l-1.4688 0.10938v0.3125c0.78125 0 0.78125 0.03125 0.78125 0.90625v1.5c0 0.78125 0 1.6875 1.5156 1.6875 0.5625 0 1-0.28125 1.2812-0.89062z"/>
</g>
<g id="f">
<path d="m1.1094-2.5156c0.0625-1.4844 0.90625-1.7344 1.25-1.7344 1.0156 0 1.125 1.3438 1.125 1.7344zm0 0.21875h2.7812c0.21875 0 0.25 0 0.25-0.21875 0-0.98438-0.54688-1.9531-1.7812-1.9531-1.1562 0-2.0781 1.0312-2.0781 2.2812 0 1.3281 1.0469 2.2969 2.1875 2.2969 1.2188 0 1.6719-1.1094 1.6719-1.2969 0-0.09375-0.078125-0.125-0.14062-0.125-0.078125 0-0.10938 0.0625-0.125 0.14062-0.34375 1.0312-1.25 1.0312-1.3438 1.0312-0.5 0-0.89062-0.29688-1.125-0.67188-0.29688-0.46875-0.29688-1.125-0.29688-1.4844z"/>
</g>
<g id="j">
<path d="m1.6719-3.3125v-1.0938l-1.3906 0.10938v0.3125c0.70312 0 0.78125 0.0625 0.78125 0.5625v2.6719c0 0.4375-0.10938 0.4375-0.78125 0.4375v0.3125c0.39062-0.015625 0.85938-0.03125 1.1406-0.03125 0.39062 0 0.85938 0 1.2656 0.03125v-0.3125h-0.21875c-0.73438 0-0.75-0.10938-0.75-0.46875v-1.5312c0-0.98438 0.42188-1.875 1.1719-1.875 0.0625 0 0.09375 0 0.10938 0.015625-0.03125 0-0.23438 0.125-0.23438 0.39062s0.21875 0.42188 0.4375 0.42188c0.17188 0 0.42188-0.125 0.42188-0.4375s-0.3125-0.60938-0.73438-0.60938c-0.73438 0-1.0938 0.67188-1.2188 1.0938z"/>
</g>
<g id="x">
<path d="m4.75-6.0781c0.078125-0.10938 0.078125-0.125 0.078125-0.34375h-2.4219c-1.2031 0-1.2344-0.125-1.2656-0.3125h-0.25l-0.32812 2.0469h0.25c0.03125-0.15625 0.10938-0.78125 0.25-0.90625 0.0625-0.0625 0.84375-0.0625 0.96875-0.0625h2.0625c-0.10938 0.15625-0.89062 1.25-1.1094 1.5781-0.90625 1.3438-1.2344 2.7344-1.2344 3.75 0 0.09375 0 0.54688 0.46875 0.54688 0.45312 0 0.45312-0.45312 0.45312-0.54688v-0.51562c0-0.54688 0.03125-1.0938 0.10938-1.625 0.046875-0.23438 0.17188-1.0938 0.625-1.7031z"/>
</g>
<g id="am">
<path d="m1.3125-3.2656v-0.25c0-2.5156 1.2344-2.875 1.75-2.875 0.23438 0 0.65625 0.0625 0.875 0.40625-0.15625 0-0.54688 0-0.54688 0.4375 0 0.3125 0.23438 0.46875 0.45312 0.46875 0.15625 0 0.46875-0.09375 0.46875-0.48438 0-0.59375-0.4375-1.0781-1.2656-1.0781-1.2812 0-2.625 1.2812-2.625 3.4844 0 2.6719 1.1562 3.375 2.0781 3.375 1.1094 0 2.0625-0.9375 2.0625-2.25 0-1.2656-0.89062-2.2188-2-2.2188-0.67188 0-1.0469 0.5-1.25 0.98438zm1.1875 3.2031c-0.625 0-0.92188-0.59375-0.98438-0.75-0.1875-0.46875-0.1875-1.2656-0.1875-1.4375 0-0.78125 0.32812-1.7812 1.2188-1.7812 0.17188 0 0.625 0 0.9375 0.625 0.17188 0.35938 0.17188 0.875 0.17188 1.3594s0 0.98438-0.17188 1.3438c-0.29688 0.59375-0.75 0.64062-0.98438 0.64062z"/>
</g>
<g id="al">
<path d="m4.4688-2c0-1.1875-0.8125-2.1875-1.8906-2.1875-0.46875 0-0.90625 0.15625-1.2656 0.51562v-1.9531c0.20312 0.0625 0.53125 0.125 0.84375 0.125 1.2344 0 1.9375-0.90625 1.9375-1.0312 0-0.0625-0.03125-0.10938-0.10938-0.10938 0 0-0.03125 0-0.078125 0.03125-0.20312 0.09375-0.6875 0.29688-1.3594 0.29688-0.39062 0-0.85938-0.078125-1.3281-0.28125-0.078125-0.03125-0.09375-0.03125-0.10938-0.03125-0.10938 0-0.10938 0.078125-0.10938 0.23438v2.9531c0 0.17188 0 0.25 0.14062 0.25 0.078125 0 0.09375-0.015625 0.14062-0.078125 0.10938-0.15625 0.46875-0.70312 1.2812-0.70312 0.51562 0 0.76562 0.45312 0.84375 0.64062 0.15625 0.375 0.1875 0.75 0.1875 1.25 0 0.35938 0 0.95312-0.25 1.375-0.23438 0.39062-0.60938 0.64062-1.0625 0.64062-0.71875 0-1.2969-0.53125-1.4688-1.1094 0.03125 0 0.0625 0.015625 0.17188 0.015625 0.32812 0 0.5-0.25 0.5-0.48438 0-0.25-0.17188-0.5-0.5-0.5-0.14062 0-0.48438 0.078125-0.48438 0.53125 0 0.85938 0.6875 1.8281 1.7969 1.8281 1.1562 0 2.1719-0.95312 2.1719-2.2188z"/>
</g>
<g id="l">
<path d="m1.7656-4.4062-1.3906 0.10938v0.3125c0.64062 0 0.73438 0.0625 0.73438 0.54688v2.6875c0 0.4375-0.10938 0.4375-0.78125 0.4375v0.3125c0.3125-0.015625 0.85938-0.03125 1.0938-0.03125 0.35938 0 0.70312 0.015625 1.0469 0.03125v-0.3125c-0.67188 0-0.70312-0.046875-0.70312-0.4375zm0.03125-1.7344c0-0.3125-0.23438-0.53125-0.51562-0.53125-0.3125 0-0.53125 0.26562-0.53125 0.53125s0.21875 0.53125 0.53125 0.53125c0.28125 0 0.51562-0.21875 0.51562-0.53125z"/>
</g>
<g id="r">
<path d="m1.0938-3.4219v2.6719c0 0.4375-0.10938 0.4375-0.78125 0.4375v0.3125c0.35938-0.015625 0.85938-0.03125 1.1406-0.03125 0.25 0 0.76562 0.015625 1.1094 0.03125v-0.3125c-0.67188 0-0.78125 0-0.78125-0.4375v-1.8438c0-1.0312 0.71875-1.5938 1.3438-1.5938 0.64062 0 0.75 0.53125 0.75 1.1094v2.3281c0 0.4375-0.10938 0.4375-0.78125 0.4375v0.3125c0.34375-0.015625 0.85938-0.03125 1.125-0.03125 0.25 0 0.78125 0.015625 1.1094 0.03125v-0.3125c-0.51562 0-0.76562 0-0.76562-0.29688v-1.9062c0-0.85938 0-1.1562-0.3125-1.5156-0.14062-0.17188-0.46875-0.375-1.0469-0.375-0.73438 0-1.2031 0.42188-1.4844 1.0469v-1.0469l-1.4062 0.10938v0.3125c0.70312 0 0.78125 0.0625 0.78125 0.5625z"/>
</g>
<g id="ah">
<path d="m2.2188-1.7188c-0.875 0-0.875-1-0.875-1.2188 0-0.26562 0.015625-0.59375 0.15625-0.84375 0.078125-0.10938 0.3125-0.39062 0.71875-0.39062 0.85938 0 0.85938 0.98438 0.85938 1.2188 0 0.26562 0 0.59375-0.15625 0.84375-0.078125 0.10938-0.3125 0.39062-0.70312 0.39062zm-1.1562 0.39062c0-0.03125 0-0.26562 0.15625-0.46875 0.39062 0.28125 0.8125 0.3125 1 0.3125 0.92188 0 1.6094-0.6875 1.6094-1.4531 0-0.375-0.15625-0.73438-0.40625-0.96875 0.35938-0.34375 0.71875-0.39062 0.89062-0.39062 0.03125 0 0.078125 0 0.10938 0.015625-0.10938 0.03125-0.17188 0.14062-0.17188 0.26562 0 0.17188 0.14062 0.28125 0.29688 0.28125 0.09375 0 0.28125-0.0625 0.28125-0.29688 0-0.17188-0.10938-0.48438-0.5-0.48438-0.20312 0-0.64062 0.0625-1.0625 0.46875-0.42188-0.32812-0.82812-0.35938-1.0469-0.35938-0.9375 0-1.625 0.6875-1.625 1.4531 0 0.4375 0.21875 0.8125 0.46875 1.0312-0.125 0.14062-0.3125 0.46875-0.3125 0.82812 0 0.3125 0.14062 0.6875 0.45312 0.89062-0.60938 0.15625-0.92188 0.59375-0.92188 0.98438 0 0.71875 0.98438 1.2656 2.2031 1.2656 1.1719 0 2.2031-0.5 2.2031-1.2812 0-0.34375-0.125-0.85938-0.64062-1.1406-0.53125-0.26562-1.1094-0.26562-1.7188-0.26562-0.25 0-0.67188 0-0.75-0.015625-0.3125-0.046875-0.51562-0.34375-0.51562-0.67188zm1.4375 3.1562c-1.0156 0-1.7031-0.51562-1.7031-1.0469 0-0.45312 0.375-0.82812 0.8125-0.84375h0.59375c0.85938 0 1.9688 0 1.9688 0.84375 0 0.54688-0.70312 1.0469-1.6719 1.0469z"/>
</g>
<g id="o">
<path d="m2.75-1.8594v-0.57812h-2.6406v0.57812z"/>
</g>
<g id="ag">
<path d="m6.6406-6.75h-6.0938l-0.1875 2.25h0.25c0.14062-1.6094 0.28125-1.9375 1.7969-1.9375 0.17188 0 0.4375 0 0.53125 0.015625 0.21875 0.046875 0.21875 0.15625 0.21875 0.375v5.2656c0 0.32812 0 0.46875-1.0469 0.46875h-0.40625v0.3125c0.40625-0.03125 1.4219-0.03125 1.8906-0.03125 0.45312 0 1.4844 0 1.8906 0.03125v-0.3125h-0.40625c-1.0469 0-1.0469-0.14062-1.0469-0.46875v-5.2656c0-0.1875 0-0.32812 0.1875-0.375 0.10938-0.015625 0.375-0.015625 0.5625-0.015625 1.5156 0 1.6562 0.32812 1.7969 1.9375h0.25z"/>
</g>
<g id="n">
<path d="m3.3125-0.75c0.046875 0.39062 0.3125 0.8125 0.78125 0.8125 0.21875 0 0.82812-0.14062 0.82812-0.95312v-0.5625h-0.25v0.5625c0 0.57812-0.25 0.64062-0.35938 0.64062-0.32812 0-0.375-0.45312-0.375-0.5v-1.9844c0-0.42188 0-0.8125-0.35938-1.1875-0.39062-0.39062-0.89062-0.54688-1.3594-0.54688-0.82812 0-1.5156 0.46875-1.5156 1.125 0 0.29688 0.20312 0.46875 0.46875 0.46875 0.28125 0 0.45312-0.20312 0.45312-0.45312 0-0.125-0.046875-0.45312-0.51562-0.45312 0.28125-0.35938 0.76562-0.46875 1.0781-0.46875 0.5 0 1.0625 0.39062 1.0625 1.2812v0.35938c-0.51562 0.03125-1.2031 0.0625-1.8281 0.35938-0.75 0.34375-1 0.85938-1 1.2969 0 0.8125 0.96875 1.0625 1.5938 1.0625 0.65625 0 1.1094-0.40625 1.2969-0.85938zm-0.0625-1.6406v1c0 0.9375-0.71875 1.2812-1.1719 1.2812-0.48438 0-0.89062-0.34375-0.89062-0.84375 0-0.54688 0.42188-1.375 2.0625-1.4375z"/>
</g>
<g id="af">
<path d="m1.7188-3.7656v-3.1562l-1.4375 0.10938v0.3125c0.70312 0 0.78125 0.0625 0.78125 0.5625v5.9375h0.25c0-0.015625 0.078125-0.15625 0.35938-0.625 0.14062 0.23438 0.5625 0.73438 1.2969 0.73438 1.1875 0 2.2188-0.98438 2.2188-2.2656 0-1.2656-0.96875-2.25-2.1094-2.25-0.78125 0-1.2031 0.46875-1.3594 0.64062zm0.03125 2.625v-2.0469c0-0.1875 0-0.20312 0.10938-0.35938 0.39062-0.5625 0.9375-0.64062 1.1719-0.64062 0.45312 0 0.8125 0.26562 1.0469 0.64062 0.26562 0.40625 0.28125 0.96875 0.28125 1.3906 0 0.35938-0.015625 0.95312-0.29688 1.4062-0.21875 0.3125-0.59375 0.64062-1.125 0.64062-0.45312 0-0.8125-0.23438-1.0469-0.60938-0.14062-0.20312-0.14062-0.23438-0.14062-0.42188z"/>
</g>
<g id="q">
<path d="m1.7656-6.9219-1.4375 0.10938v0.3125c0.70312 0 0.78125 0.0625 0.78125 0.5625v5.1875c0 0.4375-0.10938 0.4375-0.78125 0.4375v0.3125c0.32812-0.015625 0.85938-0.03125 1.1094-0.03125s0.73438 0.015625 1.1094 0.03125v-0.3125c-0.67188 0-0.78125 0-0.78125-0.4375z"/>
</g>
<g id="ae">
<path d="m5.4531-6.4531c0.0625-0.10938 0.0625-0.125 0.0625-0.20312 0-0.15625-0.046875-0.15625-0.25-0.15625h-4.4688l-0.10938 2.25h0.25c0.0625-1.125 0.375-1.9375 2-1.9375h1.5625l-3.875 6.125c-0.0625 0.10938-0.0625 0.125-0.0625 0.20312 0 0.17188 0.046875 0.17188 0.25 0.17188h4.5938l0.17188-2.6562h-0.25c-0.078125 1.375-0.26562 2.3125-2.1094 2.3125h-1.6406z"/>
</g>
<g id="v">
<path d="m2.3125-6.6719c-0.09375-0.125-0.09375-0.14062-0.28125-0.14062h-1.7031v0.3125h0.29688c0.14062 0 0.34375 0.015625 0.48438 0.015625 0.23438 0.03125 0.25 0.046875 0.25 0.23438v5.2031c0 0.26562 0 0.73438-1.0312 0.73438v0.3125c0.34375-0.015625 0.84375-0.03125 1.1719-0.03125s0.8125 0.015625 1.1562 0.03125v-0.3125c-1.0156 0-1.0156-0.46875-1.0156-0.73438v-5.1875c0.046875 0.046875 0.046875 0.0625 0.09375 0.125l4.0625 5.9844c0.09375 0.10938 0.10938 0.125 0.17188 0.125 0.14062 0 0.14062-0.0625 0.14062-0.26562v-5.5c0-0.26562 0-0.73438 1.0312-0.73438v-0.3125c-0.35938 0.015625-0.84375 0.03125-1.1719 0.03125s-0.8125-0.015625-1.1562-0.03125v0.3125c1.0156 0 1.0156 0.46875 1.0156 0.73438v4.2656z"/>
</g>
<g id="u">
<path d="m3.8906-4c0.09375-0.10938 0.09375-0.125 0.09375-0.17188 0-0.125-0.09375-0.125-0.26562-0.125h-3.1875l-0.10938 1.6094h0.25c0.0625-1.0156 0.25-1.3906 1.3438-1.3906h1.1406l-2.7812 3.7656c-0.09375 0.10938-0.09375 0.125-0.09375 0.17188 0 0.14062 0.0625 0.14062 0.25 0.14062h3.2969l0.17188-1.8594h-0.25c-0.09375 1.1719-0.29688 1.6094-1.4531 1.6094h-1.1875z"/>
</g>
<g id="ad">
<path d="m6.1719-3.3438c0.17188-0.5 0.48438-0.64062 0.84375-0.64062v-0.3125c-0.23438 0.015625-0.51562 0.03125-0.73438 0.03125-0.29688 0-0.73438-0.015625-0.92188-0.03125v0.3125c0.35938 0 0.57812 0.1875 0.57812 0.46875 0 0.0625 0 0.09375-0.0625 0.21875l-0.90625 2.5469-0.98438-2.7812c-0.03125-0.125-0.046875-0.14062-0.046875-0.1875 0-0.26562 0.39062-0.26562 0.59375-0.26562v-0.3125c-0.29688 0.015625-0.79688 0.03125-1.0469 0.03125-0.29688 0-0.57812-0.015625-0.875-0.03125v0.3125c0.35938 0 0.51562 0.015625 0.625 0.14062 0.046875 0.0625 0.15625 0.35938 0.21875 0.54688l-0.84375 2.4219-0.95312-2.6562c-0.046875-0.125-0.046875-0.14062-0.046875-0.1875 0-0.26562 0.39062-0.26562 0.57812-0.26562v-0.3125c-0.29688 0.015625-0.85938 0.03125-1.0781 0.03125-0.046875 0-0.57812-0.015625-0.9375-0.03125v0.3125c0.5 0 0.625 0.03125 0.75 0.34375l1.25 3.5312c0.046875 0.14062 0.078125 0.21875 0.20312 0.21875 0.14062 0 0.15625-0.0625 0.20312-0.20312l1.0156-2.8125 1.0156 2.8281c0.03125 0.10938 0.0625 0.1875 0.20312 0.1875 0.125 0 0.15625-0.09375 0.1875-0.1875z"/>
</g>
<g id="ac">
<path d="m1.0625-0.75c0 0.4375-0.10938 0.4375-0.78125 0.4375v0.3125c0.32812-0.015625 0.79688-0.03125 1.0781-0.03125 0.3125 0 0.70312 0.015625 1.1094 0.03125v-0.3125c-0.67188 0-0.78125 0-0.78125-0.4375v-1.0312l0.64062-0.54688c0.76562 1.0469 1.1875 1.6094 1.1875 1.7969s-0.17188 0.21875-0.35938 0.21875v0.3125c0.26562-0.015625 0.85938-0.03125 1.0781-0.03125 0.28125 0 0.57812 0.015625 0.85938 0.03125v-0.3125c-0.375 0-0.59375 0-0.96875-0.53125l-1.2656-1.7812c-0.015625-0.015625-0.0625-0.078125-0.0625-0.10938s0.71875-0.64062 0.8125-0.71875c0.625-0.5 1.0469-0.53125 1.25-0.53125v-0.3125c-0.28125 0.03125-0.40625 0.03125-0.6875 0.03125-0.35938 0-0.98438-0.015625-1.125-0.03125v0.3125c0.1875 0 0.29688 0.10938 0.29688 0.25 0 0.20312-0.14062 0.3125-0.21875 0.39062l-1.4062 1.2031v-4.7812l-1.4375 0.10938v0.3125c0.70312 0 0.78125 0.0625 0.78125 0.5625z"/>
</g>
<g id="ab">
<path d="m2.0312-6.1719c0-0.23438-0.20312-0.5-0.5-0.5-0.28125 0-0.5 0.21875-0.5 0.5s0.21875 0.5 0.5 0.5c0.29688 0 0.5-0.26562 0.5-0.5zm1.9219 0c0-0.28125-0.21875-0.5-0.5-0.5-0.29688 0-0.5 0.26562-0.5 0.5s0.20312 0.5 0.5 0.5c0.28125 0 0.5-0.21875 0.5-0.5z"/>
</g>
<g id="w">
<path d="m1.1719-2.1719c0-1.625 0.8125-2.0469 1.3438-2.0469 0.09375 0 0.71875 0.015625 1.0625 0.375-0.40625 0.03125-0.46875 0.32812-0.46875 0.45312 0 0.26562 0.1875 0.45312 0.45312 0.45312s0.46875-0.15625 0.46875-0.46875c0-0.67188-0.76562-1.0625-1.5312-1.0625-1.25 0-2.1562 1.0781-2.1562 2.3125 0 1.2812 0.98438 2.2656 2.1406 2.2656 1.3281 0 1.6562-1.2031 1.6562-1.2969s-0.10938-0.09375-0.14062-0.09375c-0.078125 0-0.10938 0.03125-0.125 0.09375-0.28125 0.92188-0.9375 1.0469-1.2969 1.0469-0.53125 0-1.4062-0.42188-1.4062-2.0312z"/>
</g>
<g id="aa">
<path d="m1.0938-0.75c0 0.4375-0.10938 0.4375-0.78125 0.4375v0.3125c0.35938-0.015625 0.85938-0.03125 1.1406-0.03125 0.25 0 0.76562 0.015625 1.1094 0.03125v-0.3125c-0.67188 0-0.78125 0-0.78125-0.4375v-1.8438c0-1.0312 0.71875-1.5938 1.3438-1.5938 0.64062 0 0.75 0.53125 0.75 1.1094v2.3281c0 0.4375-0.10938 0.4375-0.78125 0.4375v0.3125c0.34375-0.015625 0.85938-0.03125 1.125-0.03125 0.25 0 0.78125 0.015625 1.1094 0.03125v-0.3125c-0.51562 0-0.76562 0-0.76562-0.29688v-1.9062c0-0.85938 0-1.1562-0.3125-1.5156-0.14062-0.17188-0.46875-0.375-1.0469-0.375-0.84375 0-1.2812 0.59375-1.4531 0.98438v-3.5l-1.4375 0.10938v0.3125c0.70312 0 0.78125 0.0625 0.78125 0.5625z"/>
</g>
<g id="z">
<path d="m0.34375-6.8125v0.3125h0.25c0.76562 0 0.78125 0.10938 0.78125 0.46875v5.25c0 0.35938-0.015625 0.46875-0.78125 0.46875h-0.25v0.3125h3.6562c1.6719 0 3.0469-1.4688 3.0469-3.3438 0-1.9062-1.3438-3.4688-3.0469-3.4688zm2.375 6.5c-0.46875 0-0.48438-0.0625-0.48438-0.39062v-5.3906c0-0.34375 0.015625-0.40625 0.48438-0.40625h1c0.625 0 1.3125 0.21875 1.8125 0.92188 0.4375 0.59375 0.51562 1.4531 0.51562 2.2344 0 1.0938-0.1875 1.7031-0.54688 2.1875-0.20312 0.26562-0.76562 0.84375-1.7656 0.84375z"/>
</g>
<g id="p">
<path d="m4.3594-7.0938c0.0625-0.14062 0.0625-0.15625 0.0625-0.1875 0-0.10938-0.09375-0.20312-0.20312-0.20312-0.14062 0-0.1875 0.10938-0.21875 0.20312l-3.3906 9.3906c-0.046875 0.14062-0.046875 0.15625-0.046875 0.1875 0 0.10938 0.078125 0.20312 0.1875 0.20312 0.14062 0 0.1875-0.10938 0.21875-0.20312z"/>
</g>
<g id="ak">
<path d="m1.0938-3.4219v2.6719c0 0.4375-0.10938 0.4375-0.78125 0.4375v0.3125c0.35938-0.015625 0.85938-0.03125 1.1406-0.03125 0.25 0 0.76562 0.015625 1.1094 0.03125v-0.3125c-0.67188 0-0.78125 0-0.78125-0.4375v-1.8438c0-1.0312 0.71875-1.5938 1.3438-1.5938 0.64062 0 0.75 0.53125 0.75 1.1094v2.3281c0 0.4375-0.10938 0.4375-0.78125 0.4375v0.3125c0.34375-0.015625 0.85938-0.03125 1.125-0.03125 0.25 0 0.78125 0.015625 1.1094 0.03125v-0.3125c-0.65625 0-0.76562 0-0.76562-0.4375v-1.8438c0-1.0312 0.70312-1.5938 1.3438-1.5938 0.625 0 0.73438 0.53125 0.73438 1.1094v2.3281c0 0.4375-0.10938 0.4375-0.78125 0.4375v0.3125c0.34375-0.015625 0.85938-0.03125 1.125-0.03125s0.78125 0.015625 1.125 0.03125v-0.3125c-0.51562 0-0.76562 0-0.78125-0.29688v-1.9062c0-0.85938 0-1.1562-0.3125-1.5156-0.14062-0.17188-0.46875-0.375-1.0469-0.375-0.82812 0-1.2812 0.59375-1.4375 0.98438-0.14062-0.875-0.875-0.98438-1.3281-0.98438-0.73438 0-1.2031 0.42188-1.4844 1.0469v-1.0469l-1.4062 0.10938v0.3125c0.70312 0 0.78125 0.0625 0.78125 0.5625z"/>
</g>
<g id="aj">
<path d="m2.25-6.0312c0-0.35938 0.015625-0.46875 0.8125-0.46875h0.25v-0.3125c-0.34375 0.03125-1.125 0.03125-1.5156 0.03125-0.375 0-1.1719 0-1.5156-0.03125v0.3125h0.25c0.79688 0 0.82812 0.10938 0.82812 0.46875v5.25c0 0.35938-0.03125 0.46875-0.82812 0.46875h-0.25v0.3125c0.34375-0.03125 1.1406-0.03125 1.5156-0.03125 0.39062 0 1.1719 0 1.5156 0.03125v-0.3125h-0.25c-0.79688 0-0.8125-0.10938-0.8125-0.46875z"/>
</g>
<g id="ai">
<path d="m1.75-4.2969v-1.1562c0-0.875 0.46875-1.3594 0.90625-1.3594 0.03125 0 0.1875 0 0.32812 0.078125-0.10938 0.03125-0.29688 0.17188-0.29688 0.42188 0 0.21875 0.15625 0.42188 0.4375 0.42188s0.4375-0.20312 0.4375-0.4375c0-0.375-0.375-0.70312-0.90625-0.70312-0.6875 0-1.5469 0.53125-1.5469 1.5938v1.1406h-0.78125v0.3125h0.78125v3.2344c0 0.4375-0.10938 0.4375-0.76562 0.4375v0.3125c0.39062-0.015625 0.85938-0.03125 1.125-0.03125 0.40625 0 0.875 0 1.2656 0.03125v-0.3125h-0.20312c-0.73438 0-0.75-0.10938-0.75-0.46875v-3.2031h1.125v-0.3125z"/>
</g>
<g id="y">
<path d="m3.6562-3.1719v0.32812c0 2.3281-1.0312 2.7812-1.6094 2.7812-0.17188 0-0.71875-0.015625-0.98438-0.35938 0.4375 0 0.51562-0.28125 0.51562-0.45312 0-0.3125-0.23438-0.45312-0.45312-0.45312-0.15625 0-0.45312 0.078125-0.45312 0.46875 0 0.67188 0.53125 1.0781 1.375 1.0781 1.2969 0 2.5156-1.3594 2.5156-3.5 0-2.6875-1.1562-3.3594-2.0469-3.3594-0.54688 0-1.0312 0.1875-1.4531 0.625-0.42188 0.45312-0.64062 0.875-0.64062 1.625 0 1.2344 0.875 2.2188 1.9844 2.2188 0.60938 0 1.0156-0.42188 1.25-1zm-1.2344 0.76562c-0.15625 0-0.625 0-0.92188-0.625-0.1875-0.375-0.1875-0.85938-0.1875-1.3594 0-0.53125 0-1 0.21875-1.375 0.26562-0.5 0.64062-0.625 0.98438-0.625 0.46875 0 0.79688 0.34375 0.96875 0.78125 0.10938 0.32812 0.15625 0.95312 0.15625 1.4062 0 0.82812-0.34375 1.7969-1.2188 1.7969z"/>
</g>
<clipPath id="aq">
<path d="m0.52734 156h36.473v23h-36.473z"/>
</clipPath>
<clipPath id="ap">
<path d="m0.52734 213h36.473v22h-36.473z"/>
</clipPath>
<clipPath id="ao">
<path d="m0.52734 99h36.473v23h-36.473z"/>
</clipPath>
<clipPath id="an">
<path d="m64 326h249v78.996h-249z"/>
</clipPath>
</defs>
<g clip-path="url(#aq)">
<path transform="matrix(.1 0 0 -.1 .528 405)" d="m3.8606 2270.9h354.38v212.62h-354.38z" fill="none" stroke="#000" stroke-miterlimit="10" stroke-width="2.3625"/>
</g>
<g clip-path="url(#ap)">
<path transform="matrix(.1 0 0 -.1 .528 405)" d="m3.8606 1703.9h354.38v212.62h-354.38z" fill="none" stroke="#000" stroke-miterlimit="10" stroke-width="2.3625"/>
</g>
<path transform="matrix(.1 0 0 -.1 .528 405)" d="m358.24 2979.6h212.66v-1204.9h-212.66" fill="none" stroke="#000" stroke-miterlimit="10" stroke-width="2.3625"/>
<path transform="matrix(.1 0 0 -.1 .528 405)" d="m358.24 2341.7h212.66" fill="none" stroke="#000" stroke-miterlimit="10" stroke-width="2.3625"/>
<path transform="matrix(.1 0 0 -.1 .528 405)" d="m570.89 2412.6h850.47" fill="none" stroke="#000" stroke-miterlimit="10" stroke-width="2.3625"/>
<path transform="matrix(.1 0 0 -.1 .528 405)" d="m1846.6 2412.6h637.85" fill="none" stroke="#000" stroke-miterlimit="10" stroke-width="2.3625"/>
<path transform="matrix(.1 0 0 -.1 .528 405)" d="m1634 2200v-708.75" fill="none" stroke="#000" stroke-miterlimit="10" stroke-width="2.3625"/>
<path transform="matrix(.1 0 0 -.1 .528 405)" d="m2697.1 2554.4h-212.66v-637.85h212.66" fill="none" stroke="#000" stroke-miterlimit="10" stroke-width="2.3625"/>
<path transform="matrix(.1 0 0 -.1 .528 405)" d="m2697.1 2412.6h354.38v212.62h-354.38z" fill="none" stroke="#000" stroke-miterlimit="10" stroke-width="2.3625"/>
<path transform="matrix(.1 0 0 -.1 .528 405)" d="m2697.1 1845.6h354.38v212.66h-354.38z" fill="none" stroke="#000" stroke-miterlimit="10" stroke-width="2.3625"/>
<path transform="matrix(.1 0 0 -.1 .528 405)" d="m1917.5 1066h354.38v212.62h-354.38z" fill="none" stroke="#000" stroke-miterlimit="10" stroke-width="2.3625"/>
<path transform="matrix(.1 0 0 -.1 .528 405)" d="m1067 1066h354.38v212.62h-354.38z" fill="none" stroke="#000" stroke-miterlimit="10" stroke-width="2.3625"/>
<path transform="matrix(.1 0 0 -.1 .528 405)" d="m1237.1 1278.6v212.62h850.51v-212.62" fill="none" stroke="#000" stroke-miterlimit="10" stroke-width="2.3625"/>
<g clip-path="url(#ao)">
<path transform="matrix(.1 0 0 -.1 .528 405)" d="m3.8606 2837.9h354.38v212.62h-354.38z" fill="none" stroke="#000" stroke-miterlimit="10" stroke-width="2.3625"/>
</g>
<path transform="matrix(.1 0 0 -.1 .528 405)" d="m74.759 3263.1h2055.4v779.65h-2055.4z" fill="none" stroke="#000" stroke-miterlimit="10" stroke-width="2.3625"/>
<g clip-path="url(#an)">
<path transform="matrix(.1 0 0 -.1 .528 405)" d="m641.75 2.8797h2480.6v779.61h-2480.6z" fill="none" stroke="#000" stroke-miterlimit="10" stroke-width="2.3625"/>
</g>
<path transform="matrix(.1 0 0 -.1 .528 405)" d="m1846.6 2412.6c0-117.46-95.195-212.66-212.62-212.66-117.46 0-212.66 95.195-212.66 212.66 0 117.42 95.195 212.62 212.66 212.62 117.42 0 212.62-95.195 212.62-212.62z" fill="none" stroke="#000" stroke-miterlimit="10" stroke-width="2.3625"/>
<g>
<use x="93.038" y="71.052" xlink:href="#b"/>
<use x="98.0193" y="71.052" xlink:href="#b"/>
<use x="103.0006" y="71.052" xlink:href="#d"/>
<use x="107.9819" y="71.052" xlink:href="#a"/>
<use x="110.74951" y="71.052" xlink:href="#c"/>
<use x="115.73081" y="71.052" xlink:href="#a"/>
<use x="118.498421" y="71.052" xlink:href="#c"/>
<use x="123.479721" y="71.052" xlink:href="#a"/>
<use x="126.247331" y="71.052" xlink:href="#i"/>
<use x="0.238" y="187.753" xlink:href="#b"/>
<use x="5.2193" y="187.753" xlink:href="#b"/>
<use x="10.2006" y="187.753" xlink:href="#d"/>
<use x="15.1819" y="187.753" xlink:href="#a"/>
<use x="17.94951" y="187.753" xlink:href="#c"/>
<use x="22.93081" y="187.753" xlink:href="#a"/>
<use x="25.698421" y="187.753" xlink:href="#c"/>
<use x="30.679721" y="187.753" xlink:href="#a"/>
<use x="33.447331" y="187.753" xlink:href="#b"/>
<use x="5.053" y="169.169" xlink:href="#k"/>
<use x="12.52495" y="169.169" xlink:href="#g"/>
<use x="17.50625" y="169.169" xlink:href="#h"/>
<use x="21.435499" y="169.169" xlink:href="#e"/>
<use x="28.6275" y="169.169" xlink:href="#b"/>
<use x="0.238" y="244.449" xlink:href="#b"/>
<use x="5.2193" y="244.449" xlink:href="#b"/>
<use x="10.2006" y="244.449" xlink:href="#d"/>
<use x="15.1819" y="244.449" xlink:href="#a"/>
<use x="17.94951" y="244.449" xlink:href="#c"/>
<use x="22.93081" y="244.449" xlink:href="#a"/>
<use x="25.698421" y="244.449" xlink:href="#c"/>
<use x="30.679721" y="244.449" xlink:href="#a"/>
<use x="33.447331" y="244.449" xlink:href="#m"/>
<use x="5.053" y="225.865" xlink:href="#k"/>
<use x="12.52495" y="225.865" xlink:href="#g"/>
<use x="17.50625" y="225.865" xlink:href="#h"/>
<use x="21.435499" y="225.865" xlink:href="#e"/>
<use x="28.6275" y="225.865" xlink:href="#m"/>
<use x="148.882" y="166.492" xlink:href="#t"/>
<use x="156.21547" y="166.492" xlink:href="#g"/>
<use x="161.19677" y="166.492" xlink:href="#s"/>
<use x="166.73199" y="166.492" xlink:href="#e"/>
<use x="170.606446" y="166.492" xlink:href="#f"/>
<use x="175.033825" y="166.492" xlink:href="#j"/>
<use x="269.546" y="173.579" xlink:href="#b"/>
<use x="274.5273" y="173.579" xlink:href="#b"/>
<use x="279.5086" y="173.579" xlink:href="#d"/>
<use x="284.4899" y="173.579" xlink:href="#a"/>
<use x="287.25751" y="173.579" xlink:href="#c"/>
<use x="292.23881" y="173.579" xlink:href="#a"/>
<use x="295.006421" y="173.579" xlink:href="#b"/>
<use x="299.987721" y="173.579" xlink:href="#a"/>
<use x="302.755331" y="173.579" xlink:href="#c"/>
<use x="274.362" y="154.995" xlink:href="#k"/>
<use x="281.83395" y="154.995" xlink:href="#g"/>
<use x="286.81525" y="154.995" xlink:href="#h"/>
<use x="290.744499" y="154.995" xlink:href="#e"/>
<use x="297.9365" y="154.995" xlink:href="#x"/>
<use x="269.546" y="230.275" xlink:href="#b"/>
<use x="274.5273" y="230.275" xlink:href="#b"/>
<use x="279.5086" y="230.275" xlink:href="#d"/>
<use x="284.4899" y="230.275" xlink:href="#a"/>
<use x="287.25751" y="230.275" xlink:href="#c"/>
<use x="292.23881" y="230.275" xlink:href="#a"/>
<use x="295.006421" y="230.275" xlink:href="#b"/>
<use x="299.987721" y="230.275" xlink:href="#a"/>
<use x="302.755331" y="230.275" xlink:href="#b"/>
<use x="274.362" y="211.691" xlink:href="#k"/>
<use x="281.83395" y="211.691" xlink:href="#g"/>
<use x="286.81525" y="211.691" xlink:href="#h"/>
<use x="290.744499" y="211.691" xlink:href="#e"/>
<use x="297.9365" y="211.691" xlink:href="#am"/>
<use x="191.589" y="308.233" xlink:href="#b"/>
<use x="196.5703" y="308.233" xlink:href="#b"/>
<use x="201.5516" y="308.233" xlink:href="#d"/>
<use x="206.5329" y="308.233" xlink:href="#a"/>
<use x="209.30051" y="308.233" xlink:href="#c"/>
<use x="214.28181" y="308.233" xlink:href="#a"/>
<use x="217.049421" y="308.233" xlink:href="#m"/>
<use x="222.030721" y="308.233" xlink:href="#a"/>
<use x="224.798331" y="308.233" xlink:href="#b"/>
<use x="196.404" y="289.649" xlink:href="#k"/>
<use x="203.87595" y="289.649" xlink:href="#g"/>
<use x="208.85725" y="289.649" xlink:href="#h"/>
<use x="212.786499" y="289.649" xlink:href="#e"/>
<use x="219.9785" y="289.649" xlink:href="#al"/>
<use x="106.544" y="308.233" xlink:href="#b"/>
<use x="111.5253" y="308.233" xlink:href="#b"/>
<use x="116.5066" y="308.233" xlink:href="#d"/>
<use x="121.4879" y="308.233" xlink:href="#a"/>
<use x="124.25551" y="308.233" xlink:href="#c"/>
<use x="129.23681" y="308.233" xlink:href="#a"/>
<use x="132.004421" y="308.233" xlink:href="#m"/>
<use x="136.985721" y="308.233" xlink:href="#a"/>
<use x="139.753331" y="308.233" xlink:href="#c"/>
<use x="111.359" y="289.649" xlink:href="#k"/>
<use x="118.83095" y="289.649" xlink:href="#g"/>
<use x="123.81225" y="289.649" xlink:href="#h"/>
<use x="127.741499" y="289.649" xlink:href="#e"/>
<use x="134.9335" y="289.649" xlink:href="#i"/>
<use x="0.238" y="131.056" xlink:href="#b"/>
<use x="5.2193" y="131.056" xlink:href="#b"/>
<use x="10.2006" y="131.056" xlink:href="#d"/>
<use x="15.1819" y="131.056" xlink:href="#a"/>
<use x="17.94951" y="131.056" xlink:href="#c"/>
<use x="22.93081" y="131.056" xlink:href="#a"/>
<use x="25.698421" y="131.056" xlink:href="#c"/>
<use x="30.679721" y="131.056" xlink:href="#a"/>
<use x="33.447331" y="131.056" xlink:href="#c"/>
<use x="5.053" y="112.472" xlink:href="#k"/>
<use x="12.52495" y="112.472" xlink:href="#g"/>
<use x="17.50625" y="112.472" xlink:href="#h"/>
<use x="21.435499" y="112.472" xlink:href="#e"/>
<use x="28.6275" y="112.472" xlink:href="#c"/>
<use x="50.522" y="14.828" xlink:href="#t"/>
<use x="57.85547" y="14.828" xlink:href="#g"/>
<use x="62.83677" y="14.828" xlink:href="#s"/>
<use x="68.37199" y="14.828" xlink:href="#e"/>
<use x="72.246446" y="14.828" xlink:href="#l"/>
<use x="75.014056" y="14.828" xlink:href="#r"/>
<use x="80.549276" y="14.828" xlink:href="#ah"/>
<use x="85.530576" y="14.828" xlink:href="#o"/>
<use x="88.851111" y="14.828" xlink:href="#ag"/>
<use x="95.219205" y="14.828" xlink:href="#n"/>
<use x="100.200505" y="14.828" xlink:href="#af"/>
<use x="106.004716" y="14.828" xlink:href="#f"/>
<use x="110.432095" y="14.828" xlink:href="#q"/>
<use x="113.199705" y="14.828" xlink:href="#q"/>
<use x="115.967316" y="14.828" xlink:href="#f"/>
<use x="123.722203" y="14.828" xlink:href="#l"/>
<use x="126.489814" y="14.828" xlink:href="#r"/>
<use x="135.34258" y="14.828" xlink:href="#k"/>
<use x="142.81453" y="14.828" xlink:href="#g"/>
<use x="147.79583" y="14.828" xlink:href="#h"/>
<use x="151.72508" y="14.828" xlink:href="#e"/>
<use x="158.917081" y="14.828" xlink:href="#c"/>
<use x="15.081" y="29.002" xlink:href="#ae"/>
<use x="21.169145" y="29.002" xlink:href="#l"/>
<use x="23.936755" y="29.002" xlink:href="#f"/>
<use x="28.364135" y="29.002" xlink:href="#q"/>
<use x="31.131745" y="29.002" xlink:href="#o"/>
<use x="34.452279" y="29.002" xlink:href="#v"/>
<use x="41.924229" y="29.002" xlink:href="#f"/>
<use x="46.351609" y="29.002" xlink:href="#e"/>
<use x="50.226064" y="29.002" xlink:href="#u"/>
<use x="54.653443" y="29.002" xlink:href="#ad"/>
<use x="61.56948" y="29.002" xlink:href="#f"/>
<use x="65.99686" y="29.002" xlink:href="#j"/>
<use x="69.89921" y="29.002" xlink:href="#ac"/>
<use x="93.040338" y="29.002" xlink:href="#v"/>
<use x="100.51" y="29.436" xlink:href="#ab"/>
<use x="100.51" y="29.002" xlink:href="#n"/>
<use x="105.4913" y="29.002" xlink:href="#w"/>
<use x="109.639727" y="29.002" xlink:href="#aa"/>
<use x="115.174947" y="29.002" xlink:href="#h"/>
<use x="119.104197" y="29.002" xlink:href="#e"/>
<use x="122.978652" y="29.002" xlink:href="#f"/>
<use x="127.406031" y="29.002" xlink:href="#j"/>
<use x="134.63589" y="29.002" xlink:href="#t"/>
<use x="141.96936" y="29.002" xlink:href="#g"/>
<use x="146.95066" y="29.002" xlink:href="#s"/>
<use x="152.48588" y="29.002" xlink:href="#e"/>
<use x="156.360336" y="29.002" xlink:href="#f"/>
<use x="160.787715" y="29.002" xlink:href="#j"/>
<use x="178.0798" y="29.002" xlink:href="#z"/>
<use x="185.69023" y="29.002" xlink:href="#l"/>
<use x="188.45784" y="29.002" xlink:href="#h"/>
<use x="192.38709" y="29.002" xlink:href="#e"/>
<use x="196.261545" y="29.002" xlink:href="#n"/>
<use x="201.242845" y="29.002" xlink:href="#r"/>
<use x="206.778065" y="29.002" xlink:href="#u"/>
<use x="15.081" y="50.264" xlink:href="#b"/>
<use x="20.0623" y="50.264" xlink:href="#b"/>
<use x="25.0436" y="50.264" xlink:href="#d"/>
<use x="30.0249" y="50.264" xlink:href="#a"/>
<use x="32.79251" y="50.264" xlink:href="#c"/>
<use x="37.77381" y="50.264" xlink:href="#a"/>
<use x="40.541421" y="50.264" xlink:href="#c"/>
<use x="45.522721" y="50.264" xlink:href="#a"/>
<use x="48.290331" y="50.264" xlink:href="#d"/>
<use x="53.271631" y="50.264" xlink:href="#p"/>
<use x="58.252931" y="50.264" xlink:href="#b"/>
<use x="63.234231" y="50.264" xlink:href="#i"/>
<use x="15.081" y="60.658" xlink:href="#b"/>
<use x="20.0623" y="60.658" xlink:href="#b"/>
<use x="25.0436" y="60.658" xlink:href="#d"/>
<use x="30.0249" y="60.658" xlink:href="#a"/>
<use x="32.79251" y="60.658" xlink:href="#c"/>
<use x="37.77381" y="60.658" xlink:href="#a"/>
<use x="40.541421" y="60.658" xlink:href="#b"/>
<use x="45.522721" y="60.658" xlink:href="#a"/>
<use x="48.290331" y="60.658" xlink:href="#d"/>
<use x="53.271631" y="60.658" xlink:href="#p"/>
<use x="58.252931" y="60.658" xlink:href="#b"/>
<use x="63.234231" y="60.658" xlink:href="#i"/>
<use x="93.04233" y="60.658" xlink:href="#b"/>
<use x="98.02363" y="60.658" xlink:href="#b"/>
<use x="103.00493" y="60.658" xlink:href="#d"/>
<use x="107.98623" y="60.658" xlink:href="#a"/>
<use x="110.75384" y="60.658" xlink:href="#c"/>
<use x="115.73514" y="60.658" xlink:href="#a"/>
<use x="118.502751" y="60.658" xlink:href="#c"/>
<use x="123.484051" y="60.658" xlink:href="#a"/>
<use x="126.251661" y="60.658" xlink:href="#i"/>
<use x="15.081" y="71.052" xlink:href="#b"/>
<use x="20.0623" y="71.052" xlink:href="#b"/>
<use x="25.0436" y="71.052" xlink:href="#d"/>
<use x="30.0249" y="71.052" xlink:href="#a"/>
<use x="32.79251" y="71.052" xlink:href="#c"/>
<use x="37.77381" y="71.052" xlink:href="#a"/>
<use x="40.541421" y="71.052" xlink:href="#m"/>
<use x="45.522721" y="71.052" xlink:href="#a"/>
<use x="48.290331" y="71.052" xlink:href="#d"/>
<use x="53.271631" y="71.052" xlink:href="#p"/>
<use x="58.252931" y="71.052" xlink:href="#b"/>
<use x="63.234231" y="71.052" xlink:href="#i"/>
<use x="189.767" y="50.264" xlink:href="#c"/>
<use x="189.767" y="60.658" xlink:href="#b"/>
<use x="189.767" y="71.052" xlink:href="#b"/>
<use x="105.088" y="340.833" xlink:href="#t"/>
<use x="112.42147" y="340.833" xlink:href="#g"/>
<use x="117.40277" y="340.833" xlink:href="#s"/>
<use x="122.93799" y="340.833" xlink:href="#e"/>
<use x="126.812446" y="340.833" xlink:href="#l"/>
<use x="129.580056" y="340.833" xlink:href="#r"/>
<use x="135.115276" y="340.833" xlink:href="#ah"/>
<use x="140.096576" y="340.833" xlink:href="#o"/>
<use x="143.417111" y="340.833" xlink:href="#ag"/>
<use x="149.785205" y="340.833" xlink:href="#n"/>
<use x="154.766505" y="340.833" xlink:href="#af"/>
<use x="160.570716" y="340.833" xlink:href="#f"/>
<use x="164.998095" y="340.833" xlink:href="#q"/>
<use x="167.765705" y="340.833" xlink:href="#q"/>
<use x="170.533316" y="340.833" xlink:href="#f"/>
<use x="178.288203" y="340.833" xlink:href="#l"/>
<use x="181.055814" y="340.833" xlink:href="#ak"/>
<use x="192.675194" y="340.833" xlink:href="#t"/>
<use x="200.008664" y="340.833" xlink:href="#g"/>
<use x="204.989964" y="340.833" xlink:href="#s"/>
<use x="210.525185" y="340.833" xlink:href="#e"/>
<use x="214.39964" y="340.833" xlink:href="#f"/>
<use x="218.827019" y="340.833" xlink:href="#j"/>
<use x="71.777" y="355.008" xlink:href="#ae"/>
<use x="77.865145" y="355.008" xlink:href="#l"/>
<use x="80.632755" y="355.008" xlink:href="#f"/>
<use x="85.060135" y="355.008" xlink:href="#q"/>
<use x="87.827745" y="355.008" xlink:href="#o"/>
<use x="91.148279" y="355.008" xlink:href="#v"/>
<use x="98.620229" y="355.008" xlink:href="#f"/>
<use x="103.047609" y="355.008" xlink:href="#e"/>
<use x="106.922064" y="355.008" xlink:href="#u"/>
<use x="111.349443" y="355.008" xlink:href="#ad"/>
<use x="118.26548" y="355.008" xlink:href="#f"/>
<use x="122.69286" y="355.008" xlink:href="#j"/>
<use x="126.59521" y="355.008" xlink:href="#ac"/>
<use x="71.777" y="375.796" xlink:href="#b"/>
<use x="76.7583" y="375.796" xlink:href="#b"/>
<use x="81.7396" y="375.796" xlink:href="#d"/>
<use x="86.7209" y="375.796" xlink:href="#a"/>
<use x="89.48851" y="375.796" xlink:href="#c"/>
<use x="94.46981" y="375.796" xlink:href="#a"/>
<use x="97.237421" y="375.796" xlink:href="#c"/>
<use x="102.218721" y="375.796" xlink:href="#a"/>
<use x="104.986331" y="375.796" xlink:href="#d"/>
<use x="109.967631" y="375.796" xlink:href="#p"/>
<use x="114.948931" y="375.796" xlink:href="#b"/>
<use x="119.930231" y="375.796" xlink:href="#i"/>
<use x="142.648" y="355.008" xlink:href="#v"/>
<use x="150.12" y="355.442" xlink:href="#ab"/>
<use x="150.12" y="355.008" xlink:href="#n"/>
<use x="155.1013" y="355.008" xlink:href="#w"/>
<use x="159.249727" y="355.008" xlink:href="#aa"/>
<use x="164.784947" y="355.008" xlink:href="#h"/>
<use x="168.714197" y="355.008" xlink:href="#e"/>
<use x="172.588652" y="355.008" xlink:href="#f"/>
<use x="177.016031" y="355.008" xlink:href="#j"/>
<use x="184.24589" y="355.008" xlink:href="#t"/>
<use x="191.57936" y="355.008" xlink:href="#g"/>
<use x="196.56066" y="355.008" xlink:href="#s"/>
<use x="202.09588" y="355.008" xlink:href="#e"/>
<use x="205.970336" y="355.008" xlink:href="#f"/>
<use x="210.397715" y="355.008" xlink:href="#j"/>
<use x="220.606391" y="355.008" xlink:href="#z"/>
<use x="228.216821" y="355.008" xlink:href="#l"/>
<use x="230.984432" y="355.008" xlink:href="#h"/>
<use x="234.913681" y="355.008" xlink:href="#e"/>
<use x="238.788136" y="355.008" xlink:href="#n"/>
<use x="243.769436" y="355.008" xlink:href="#r"/>
<use x="249.304657" y="355.008" xlink:href="#u"/>
<use x="263.126768" y="355.008" xlink:href="#aj"/>
<use x="266.724263" y="355.008" xlink:href="#r"/>
<use x="271.980531" y="355.008" xlink:href="#e"/>
<use x="275.854986" y="355.008" xlink:href="#f"/>
<use x="280.282365" y="355.008" xlink:href="#j"/>
<use x="284.184716" y="355.008" xlink:href="#ai"/>
<use x="287.229286" y="355.008" xlink:href="#n"/>
<use x="292.210586" y="355.008" xlink:href="#w"/>
<use x="296.637966" y="355.008" xlink:href="#f"/>
<use x="71.777" y="386.191" xlink:href="#b"/>
<use x="76.7583" y="386.191" xlink:href="#b"/>
<use x="81.7396" y="386.191" xlink:href="#d"/>
<use x="86.7209" y="386.191" xlink:href="#a"/>
<use x="89.48851" y="386.191" xlink:href="#c"/>
<use x="94.46981" y="386.191" xlink:href="#a"/>
<use x="97.237421" y="386.191" xlink:href="#b"/>
<use x="102.218721" y="386.191" xlink:href="#a"/>
<use x="104.986331" y="386.191" xlink:href="#d"/>
<use x="109.967631" y="386.191" xlink:href="#p"/>
<use x="114.948931" y="386.191" xlink:href="#b"/>
<use x="119.930231" y="386.191" xlink:href="#i"/>
<use x="71.777" y="396.585" xlink:href="#b"/>
<use x="76.7583" y="396.585" xlink:href="#b"/>
<use x="81.7396" y="396.585" xlink:href="#d"/>
<use x="86.7209" y="396.585" xlink:href="#a"/>
<use x="89.48851" y="396.585" xlink:href="#c"/>
<use x="94.46981" y="396.585" xlink:href="#a"/>
<use x="97.237421" y="396.585" xlink:href="#m"/>
<use x="102.218721" y="396.585" xlink:href="#a"/>
<use x="104.986331" y="396.585" xlink:href="#d"/>
<use x="109.967631" y="396.585" xlink:href="#p"/>
<use x="114.948931" y="396.585" xlink:href="#b"/>
<use x="119.930231" y="396.585" xlink:href="#i"/>
<use x="263.128" y="386.191" xlink:href="#b"/>
<use x="268.1093" y="386.191" xlink:href="#b"/>
<use x="273.0906" y="386.191" xlink:href="#d"/>
<use x="278.0719" y="386.191" xlink:href="#a"/>
<use x="280.83951" y="386.191" xlink:href="#c"/>
<use x="285.82081" y="386.191" xlink:href="#a"/>
<use x="288.588421" y="386.191" xlink:href="#b"/>
<use x="293.569721" y="386.191" xlink:href="#a"/>
<use x="296.337331" y="386.191" xlink:href="#y"/>
<use x="116.485" y="196.257" xlink:href="#b"/>
<use x="121.4663" y="196.257" xlink:href="#b"/>
<use x="126.4476" y="196.257" xlink:href="#d"/>
<use x="131.4289" y="196.257" xlink:href="#a"/>
<use x="134.19651" y="196.257" xlink:href="#c"/>
<use x="139.17781" y="196.257" xlink:href="#a"/>
<use x="141.945421" y="196.257" xlink:href="#m"/>
<use x="146.926721" y="196.257" xlink:href="#a"/>
<use x="149.694331" y="196.257" xlink:href="#b"/>
<use x="154.675631" y="196.257" xlink:href="#x"/>
<use x="189.423" y="156.57" xlink:href="#b"/>
<use x="194.4043" y="156.57" xlink:href="#b"/>
<use x="199.3856" y="156.57" xlink:href="#d"/>
<use x="204.3669" y="156.57" xlink:href="#a"/>
<use x="207.13451" y="156.57" xlink:href="#c"/>
<use x="212.11581" y="156.57" xlink:href="#a"/>
<use x="214.883421" y="156.57" xlink:href="#b"/>
<use x="219.864721" y="156.57" xlink:href="#a"/>
<use x="222.632331" y="156.57" xlink:href="#y"/>
<use x="100.201939" y="156.57" xlink:href="#b"/>
<use x="105.183239" y="156.57" xlink:href="#b"/>
<use x="110.164539" y="156.57" xlink:href="#d"/>
<use x="115.145839" y="156.57" xlink:href="#a"/>
<use x="117.91345" y="156.57" xlink:href="#c"/>
<use x="122.89475" y="156.57" xlink:href="#a"/>
<use x="125.66236" y="156.57" xlink:href="#c"/>
<use x="130.64366" y="156.57" xlink:href="#a"/>
<use x="133.41127" y="156.57" xlink:href="#i"/>
<use x="236.197" y="375.796" xlink:href="#c"/>
<use x="236.197" y="386.191" xlink:href="#c"/>
<use x="236.197" y="396.585" xlink:href="#c"/>
<use x="173.831" y="375.796" xlink:href="#o"/>
<use x="173.831" y="386.191" xlink:href="#o"/>
<use x="173.831" y="396.585" xlink:href="#o"/>
<use x="263.128" y="375.796" xlink:href="#b"/>
<use x="268.1093" y="375.796" xlink:href="#b"/>
<use x="273.0906" y="375.796" xlink:href="#d"/>
<use x="278.0719" y="375.796" xlink:href="#a"/>
<use x="280.83951" y="375.796" xlink:href="#c"/>
<use x="285.82081" y="375.796" xlink:href="#a"/>
<use x="288.588421" y="375.796" xlink:href="#c"/>
<use x="293.569721" y="375.796" xlink:href="#a"/>
<use x="296.337331" y="375.796" xlink:href="#i"/>
<use x="263.128" y="396.585" xlink:href="#b"/>
<use x="268.1093" y="396.585" xlink:href="#b"/>
<use x="273.0906" y="396.585" xlink:href="#d"/>
<use x="278.0719" y="396.585" xlink:href="#a"/>
<use x="280.83951" y="396.585" xlink:href="#c"/>
<use x="285.82081" y="396.585" xlink:href="#a"/>
<use x="288.588421" y="396.585" xlink:href="#m"/>
<use x="293.569721" y="396.585" xlink:href="#a"/>
<use x="296.337331" y="396.585" xlink:href="#b"/>
<use x="301.318631" y="396.585" xlink:href="#x"/>
</g>
</svg>
