<svg width="321pt" height="351pt" version="1.1" viewBox="0 0 321 351" xmlns="http://www.w3.org/2000/svg" xmlns:xlink="http://www.w3.org/1999/xlink">
<defs>
<g id="s">
<path d="m4.6719-5.0156c0.1875-0.1875 0.64062-0.625 0.84375-0.8125 1.6406-1.625 1.9844-1.9688 2.9219-1.9844v-0.34375c-0.34375 0.015625-0.48438 0.015625-1.0312 0.015625-0.3125 0-1.0156 0-1.2812-0.015625v0.34375c0.25 0 0.46875 0.10938 0.46875 0.375 0 0.1875-0.09375 0.29688-0.35938 0.54688l-3.6406 3.5156v-3.8594c0-0.57812 0.125-0.57812 1.1406-0.57812v-0.34375c-0.29688 0.015625-1.2656 0.015625-1.625 0.015625s-1.3281 0-1.625-0.015625v0.34375c1.0156 0 1.1406 0 1.1406 0.57812v6.2969c0 0.59375-0.125 0.59375-1.1406 0.59375v0.34375c0.29688-0.03125 1.2656-0.03125 1.625-0.03125s1.3281 0 1.625 0.03125v-0.34375c-1.0156 0-1.1406 0-1.1406-0.59375v-2.0781l1.4219-1.375 2.2188 3.3125c0.046875 0.078125 0.09375 0.15625 0.10938 0.21875 0.03125 0.046875 0.046875 0.10938 0.046875 0.17188 0 0.34375-0.4375 0.34375-0.625 0.34375v0.34375c0.28125-0.03125 1.1562-0.03125 1.5-0.03125 0.3125 0 0.90625 0 1.3281 0.03125v-0.34375c-0.64062 0-0.84375-0.0625-1.2344-0.64062z"/>
</g>
<g id="e">
<path d="m5.3125-2.9062c0-1.1094 0-1.4375-0.26562-1.8281-0.34375-0.46875-0.90625-0.53125-1.3125-0.53125-1.1719 0-1.625 0.98438-1.7188 1.2188v-1.2188l-1.6406 0.125v0.34375c0.8125 0 0.92188 0.09375 0.92188 0.67188v3.2344c0 0.54688-0.14062 0.54688-0.92188 0.54688v0.34375c0.3125-0.03125 0.96875-0.03125 1.2969-0.03125 0.34375 0 1 0 1.2969 0.03125v-0.34375c-0.75 0-0.90625 0-0.90625-0.54688v-2.2188c0-1.25 0.82812-1.9219 1.5781-1.9219 0.73438 0 0.90625 0.60938 0.90625 1.3438v2.7969c0 0.54688-0.14062 0.54688-0.90625 0.54688v0.34375c0.29688-0.03125 0.95312-0.03125 1.2812-0.03125 0.34375 0 1 0 1.3125 0.03125v-0.34375c-0.60938 0-0.90625 0-0.92188-0.35938z"/>
</g>
<g id="o">
<path d="m5.4844-2.5625c0-1.5312-1.1719-2.7656-2.5625-2.7656-1.4219 0-2.5625 1.2656-2.5625 2.7656 0 1.5312 1.1875 2.6875 2.5625 2.6875 1.4062 0 2.5625-1.1719 2.5625-2.6875zm-2.5625 2.4219c-0.4375 0-0.96875-0.1875-1.3125-0.78125-0.32812-0.53125-0.34375-1.2344-0.34375-1.75 0-0.45312 0-1.1719 0.375-1.7188 0.32812-0.51562 0.85938-0.70312 1.2812-0.70312 0.45312 0 0.96875 0.21875 1.2812 0.6875 0.375 0.54688 0.375 1.2969 0.375 1.7344 0 0.42188 0 1.1719-0.3125 1.7344-0.32812 0.5625-0.89062 0.79688-1.3438 0.79688z"/>
</g>
<g id="l">
<path d="m2.0156-4.8125h1.6719v-0.34375h-1.6719v-2.1875h-0.26562c-0.015625 1.1094-0.45312 2.2656-1.5312 2.2969v0.23438h1.0156v3.3281c0 1.3281 0.875 1.6094 1.5156 1.6094 0.75 0 1.1406-0.75 1.1406-1.6094v-0.67188h-0.25v0.65625c0 0.85938-0.35938 1.3594-0.8125 1.3594-0.8125 0-0.8125-1.1094-0.8125-1.3125z"/>
</g>
<g id="j">
<path d="m4.5781-2.7656c0.26562 0 0.28125 0 0.28125-0.23438 0-1.2031-0.64062-2.3281-2.0938-2.3281-1.3594 0-2.4062 1.2344-2.4062 2.7031 0 1.5781 1.2188 2.75 2.5469 2.75 1.4219 0 1.9531-1.2969 1.9531-1.5469 0-0.078125-0.046875-0.125-0.125-0.125-0.09375 0-0.125 0.0625-0.14062 0.125-0.3125 1-1.1094 1.2812-1.625 1.2812-0.5 0-1.7031-0.34375-1.7031-2.4062v-0.21875zm-3.2969-0.23438c0.09375-1.875 1.1406-2.0938 1.4844-2.0938 1.2812 0 1.3438 1.6875 1.3594 2.0938z"/>
</g>
<g id="z">
<path d="m4.625-8.3125c-0.046875-0.15625-0.078125-0.21875-0.23438-0.21875-0.17188 0-0.1875 0.03125-0.25 0.21875l-2.5 7.1562c-0.17188 0.48438-0.5 0.79688-1.2656 0.8125v0.34375c0.71875-0.03125 0.75-0.03125 1.1406-0.03125 0.34375 0 0.90625 0 1.2188 0.03125v-0.34375c-0.5-0.015625-0.79688-0.26562-0.79688-0.59375 0-0.078125 0-0.10938 0.0625-0.25l0.54688-1.5938h3.0156l0.65625 1.875c0.0625 0.14062 0.0625 0.17188 0.0625 0.20312 0 0.35938-0.60938 0.35938-0.92188 0.35938v0.34375c0.28125-0.03125 1.2344-0.03125 1.5625-0.03125s1.1875 0 1.4688 0.03125v-0.34375c-0.78125 0-0.98438 0-1.1562-0.5zm-0.57812 1.2031 1.3906 3.9844h-2.7656z"/>
</g>
<g id="y">
<path d="m0.51562-8.1562v0.34375h0.23438c0.85938 0 0.90625 0.10938 0.90625 0.5625v6.3438c0 0.4375-0.046875 0.5625-0.90625 0.5625h-0.23438v0.34375h4.5c1.5312 0 2.6094-1.0469 2.6094-2.1875 0-0.96875-0.875-1.9219-2.2969-2.0781 1.1406-0.21875 1.9688-0.98438 1.9688-1.875 0-1.0312-1.0469-2.0156-2.6094-2.0156zm2.0469 3.7969v-2.9844c0-0.39062 0.015625-0.46875 0.54688-0.46875h1.5c1.2031 0 1.625 1.0156 1.625 1.6719 0 0.78125-0.60938 1.7812-1.9375 1.7812zm0.54688 4.0156c-0.53125 0-0.54688-0.09375-0.54688-0.48438v-3.2969h2.2344c1.1406 0 1.7344 1 1.7344 1.9219 0 0.96875-0.71875 1.8594-1.8906 1.8594z"/>
</g>
<g id="x">
<path d="m7.7969-8.1406c0-0.21875 0-0.28125-0.125-0.28125-0.0625 0-0.078125 0.03125-0.15625 0.15625l-0.57812 0.9375c-0.54688-0.67188-1.3594-1.0938-2.2188-1.0938-2.1875 0-4.0781 1.8906-4.0781 4.3281 0 2.4844 1.9219 4.3438 4.0781 4.3438 1.9688 0 3.0781-1.7031 3.0781-3.0156 0-0.14062 0-0.20312-0.14062-0.20312-0.10938 0-0.125 0.046875-0.125 0.14062-0.10938 1.8906-1.5 2.7344-2.6562 2.7344-0.82812 0-3.125-0.5-3.125-4 0-3.4531 2.25-3.9688 3.1094-3.9688 1.2656 0 2.3594 1.0625 2.5938 2.8438 0.03125 0.15625 0.03125 0.1875 0.17188 0.1875 0.17188 0 0.17188-0.03125 0.17188-0.28125z"/>
</g>
<g id="w">
<path d="m0.5-8.1562v0.34375h0.23438c0.875 0 0.90625 0.10938 0.90625 0.5625v6.3438c0 0.4375-0.03125 0.5625-0.90625 0.5625h-0.23438v0.34375h4.1875c2 0 3.5938-1.7969 3.5938-4 0-2.3125-1.6094-4.1562-3.5938-4.1562zm2.625 7.8125c-0.51562 0-0.54688-0.09375-0.54688-0.48438v-6.5156c0-0.39062 0.03125-0.46875 0.54688-0.46875h1.2656c0.98438 0 1.7812 0.46875 2.2656 1.2656 0.54688 0.84375 0.54688 2.0469 0.54688 2.5312 0 0.67188-0.015625 1.7969-0.70312 2.6719-0.39062 0.5-1.1094 1-2.1094 1z"/>
</g>
<g id="ah">
<path d="m2.0781-7.3594c0-0.3125-0.25-0.59375-0.57812-0.59375-0.3125 0-0.57812 0.25-0.57812 0.57812 0 0.35938 0.28125 0.57812 0.57812 0.57812 0.35938 0 0.57812-0.29688 0.57812-0.5625zm-1.6406 2.2188v0.34375c0.75 0 0.85938 0.078125 0.85938 0.65625v3.25c0 0.54688-0.125 0.54688-0.90625 0.54688v0.34375c0.34375-0.03125 0.90625-0.03125 1.2656-0.03125 0.125 0 0.8125 0 1.2188 0.03125v-0.34375c-0.76562 0-0.8125-0.0625-0.8125-0.53125v-4.3906z"/>
</g>
<g id="ag">
<path d="m3.9219-5.0625c0-0.20312 0-0.26562-0.125-0.26562-0.09375 0-0.3125 0.26562-0.40625 0.375-0.35938-0.3125-0.73438-0.375-1.125-0.375-1.4375 0-1.875 0.78125-1.875 1.4375 0 0.14062 0 0.5625 0.45312 0.96875 0.39062 0.34375 0.79688 0.42188 1.3438 0.53125 0.65625 0.125 0.8125 0.17188 1.1094 0.40625 0.21875 0.17188 0.375 0.4375 0.375 0.78125 0 0.51562-0.29688 1.0781-1.3594 1.0781-0.78125 0-1.3594-0.45312-1.625-1.6406-0.046875-0.21875-0.046875-0.23438-0.046875-0.25-0.03125-0.046875-0.078125-0.046875-0.10938-0.046875-0.14062 0-0.14062 0.0625-0.14062 0.28125v1.625c0 0.21875 0 0.28125 0.125 0.28125 0.0625 0 0.0625-0.015625 0.26562-0.26562 0.0625-0.09375 0.0625-0.10938 0.25-0.29688 0.45312 0.5625 1.0938 0.5625 1.2969 0.5625 1.25 0 1.875-0.70312 1.875-1.6406 0-0.64062-0.39062-1.0312-0.5-1.1406-0.42188-0.375-0.75-0.4375-1.5469-0.57812-0.34375-0.078125-1.2188-0.25-1.2188-0.96875 0-0.35938 0.25-0.90625 1.3281-0.90625 1.2969 0 1.375 1.1094 1.3906 1.4688 0.015625 0.10938 0.09375 0.10938 0.14062 0.10938 0.125 0 0.125-0.0625 0.125-0.28125z"/>
</g>
<g id="r">
<path d="m4.6094-3.1875c0-0.65625 0-1.125-0.51562-1.5938-0.42188-0.375-0.96875-0.54688-1.4844-0.54688-0.98438 0-1.7344 0.64062-1.7344 1.4219 0 0.34375 0.21875 0.51562 0.5 0.51562s0.48438-0.20312 0.48438-0.5c0-0.48438-0.42188-0.48438-0.60938-0.48438 0.28125-0.5 0.85938-0.71875 1.3281-0.71875 0.54688 0 1.2656 0.45312 1.2656 1.5312v0.48438c-2.4062 0.03125-3.3125 1.0312-3.3125 1.9531 0 0.95312 1.0938 1.25 1.8281 1.25 0.78125 0 1.3281-0.48438 1.5469-1.0625 0.046875 0.5625 0.42188 1 0.9375 1 0.25 0 0.9375-0.17188 0.9375-1.125v-0.67188h-0.26562v0.67188c0 0.6875-0.28125 0.78125-0.45312 0.78125-0.45312 0-0.45312-0.64062-0.45312-0.8125zm-0.76562 1.5c0 1.1719-0.875 1.5625-1.3906 1.5625-0.59375 0-1.0781-0.42188-1.0781-1 0-1.5781 2.0312-1.7188 2.4688-1.75z"/>
</g>
<g id="af">
<path d="m4.5469-4.8125c0.10938-0.14062 0.10938-0.15625 0.10938-0.20312 0-0.14062-0.078125-0.14062-0.28125-0.14062h-3.75l-0.14062 1.9062h0.26562c0.078125-1.2188 0.29688-1.6562 1.6094-1.6562h1.375l-3.4062 4.6875c0 0.21875 0.015625 0.21875 0.28125 0.21875h3.8906l0.20312-2.2031h-0.26562c-0.10938 1.3594-0.3125 1.9375-1.7344 1.9375h-1.4531z"/>
</g>
<g id="ae">
<path d="m3.2344-2.2656v-0.64062h-3.1094v0.64062z"/>
</g>
<g id="ad">
<path d="m7.8125-8.1094h-7.1719l-0.21875 2.6719h0.26562c0.15625-1.8906 0.26562-2.3125 2.1562-2.3125 0.21875 0 0.54688 0 0.64062 0.015625 0.25 0.03125 0.25 0.1875 0.25 0.45312v6.3594c0 0.40625 0 0.57812-1.1719 0.57812h-0.42188v0.34375c0.375-0.03125 1.6094-0.03125 2.0781-0.03125s1.7031 0 2.0938 0.03125v-0.34375h-0.4375c-1.1719 0-1.1719-0.17188-1.1719-0.57812v-6.3594c0-0.29688 0.03125-0.40625 0.21875-0.45312 0.09375-0.015625 0.4375-0.015625 0.67188-0.015625 1.8906 0 2 0.42188 2.1562 2.3125h0.26562z"/>
</g>
<g id="v">
<path d="m2-8.2969-1.6719 0.14062v0.34375c0.8125 0 0.92188 0.078125 0.92188 0.67188v7.1406h0.25c0.046875-0.09375 0.39062-0.6875 0.4375-0.78125 0.28125 0.45312 0.78125 0.90625 1.5469 0.90625 1.375 0 2.5938-1.1719 2.5938-2.7031 0-1.5156-1.125-2.6875-2.4531-2.6875-0.65625 0-1.2188 0.29688-1.625 0.79688zm0.015625 4.4688c0-0.21875 0-0.23438 0.14062-0.42188 0.28125-0.4375 0.8125-0.78125 1.3906-0.78125 0.35938 0 1.6094 0.14062 1.6094 2.4375 0 0.79688-0.10938 1.2969-0.40625 1.7344-0.23438 0.375-0.70312 0.73438-1.3125 0.73438-0.64062 0-1.0625-0.40625-1.2656-0.73438-0.15625-0.25-0.15625-0.29688-0.15625-0.5z"/>
</g>
<g id="u">
<path d="m2.0625-8.2969-1.6719 0.14062v0.34375c0.8125 0 0.90625 0.078125 0.90625 0.67188v6.25c0 0.54688-0.125 0.54688-0.90625 0.54688v0.34375c0.34375-0.03125 0.92188-0.03125 1.2812-0.03125s0.95312 0 1.2969 0.03125v-0.34375c-0.76562 0-0.90625 0-0.90625-0.54688z"/>
</g>
<g id="d">
<path d="m1.5312-6.8438c0.51562 0.15625 0.9375 0.17188 1.0625 0.17188 1.3438 0 2.2188-0.98438 2.2188-1.1562 0-0.046875-0.03125-0.10938-0.10938-0.10938-0.015625 0-0.046875 0-0.15625 0.046875-0.65625 0.28125-1.2344 0.32812-1.5469 0.32812-0.78125 0-1.3438-0.25-1.5781-0.34375-0.078125-0.03125-0.10938-0.03125-0.125-0.03125-0.09375 0-0.09375 0.078125-0.09375 0.26562v3.5469c0 0.21875 0 0.28125 0.14062 0.28125 0.0625 0 0.078125 0 0.20312-0.15625 0.32812-0.48438 0.89062-0.76562 1.4844-0.76562 0.64062 0 0.95312 0.57812 1.0469 0.78125 0.20312 0.46875 0.21875 1.0625 0.21875 1.5156s0 1.125-0.34375 1.6719c-0.26562 0.42188-0.71875 0.71875-1.25 0.71875-0.79688 0-1.5625-0.53125-1.7812-1.4062 0.0625 0.03125 0.125 0.03125 0.1875 0.03125 0.20312 0 0.53125-0.10938 0.53125-0.51562 0-0.34375-0.23438-0.53125-0.53125-0.53125-0.21875 0-0.53125 0.10938-0.53125 0.57812 0 1.0156 0.82812 2.1719 2.1406 2.1719 1.3594 0 2.5469-1.1406 2.5469-2.6562 0-1.4219-0.96875-2.6094-2.2188-2.6094-0.6875 0-1.2031 0.3125-1.5156 0.64062z"/>
</g>
<g id="n">
<path d="m3.4375-7.6562c0-0.28125 0-0.29688-0.23438-0.29688-0.28125 0.32812-0.89062 0.76562-2.1094 0.76562v0.34375c0.26562 0 0.85938 0 1.5312-0.29688v6.2188c0 0.4375-0.046875 0.57812-1.0938 0.57812h-0.375v0.34375c0.32812-0.03125 1.4844-0.03125 1.875-0.03125 0.40625 0 1.5469 0 1.875 0.03125v-0.34375h-0.375c-1.0469 0-1.0938-0.14062-1.0938-0.57812z"/>
</g>
<g id="k">
<path d="m5.3594-3.8281c0-0.98438-0.0625-1.9531-0.5-2.8594-0.48438-1-1.3438-1.2656-1.9375-1.2656-0.6875 0-1.5312 0.34375-1.9844 1.3438-0.32812 0.75-0.45312 1.5-0.45312 2.7812 0 1.1562 0.09375 2.0312 0.51562 2.8906 0.46875 0.90625 1.2969 1.1875 1.9219 1.1875 1.0312 0 1.625-0.625 1.9844-1.3125 0.42188-0.89062 0.45312-2.0625 0.45312-2.7656zm-2.4375 3.8438c-0.39062 0-1.1719-0.21875-1.3906-1.5156-0.125-0.71875-0.125-1.625-0.125-2.4688 0-0.98438 0-1.8594 0.1875-2.5625 0.20312-0.8125 0.8125-1.1719 1.3281-1.1719 0.45312 0 1.1406 0.26562 1.375 1.2969 0.15625 0.6875 0.15625 1.625 0.15625 2.4375 0 0.79688 0 1.7031-0.14062 2.4375-0.21875 1.3125-0.98438 1.5469-1.3906 1.5469z"/>
</g>
<g id="m">
<path d="m4.3125-7.7812c0-0.23438 0-0.28125-0.17188-0.28125-0.09375 0-0.125 0-0.21875 0.14062l-3.5938 5.5781v0.34375h3.1406v1.0938c0 0.4375-0.03125 0.5625-0.90625 0.5625h-0.23438v0.34375c0.28125-0.03125 1.2188-0.03125 1.5625-0.03125 0.32812 0 1.2812 0 1.5625 0.03125v-0.34375h-0.23438c-0.875 0-0.90625-0.125-0.90625-0.5625v-1.0938h1.2031v-0.34375h-1.2031zm-0.78125 0.9375v4.5h-2.9062z"/>
</g>
<g id="ac">
<path d="m1.4688-4.1562c0-3.0312 1.4688-3.5 2.1094-3.5 0.4375 0 0.875 0.125 1.0938 0.48438-0.14062 0-0.59375 0-0.59375 0.48438 0 0.26562 0.17188 0.5 0.48438 0.5 0.29688 0 0.5-0.1875 0.5-0.53125 0-0.625-0.45312-1.2344-1.4844-1.2344-1.5156 0-3.0938 1.5469-3.0938 4.1719 0 3.2969 1.4375 4.0312 2.4531 4.0312 1.3125 0 2.4219-1.1406 2.4219-2.6875 0-1.5938-1.1094-2.6562-2.3125-2.6562-1.0625 0-1.4531 0.92188-1.5781 1.25zm1.4688 4.0781c-0.75 0-1.1094-0.65625-1.2188-0.90625-0.10938-0.3125-0.21875-0.90625-0.21875-1.7344 0-0.95312 0.42188-2.1406 1.5-2.1406 0.65625 0 1 0.45312 1.1875 0.85938 0.1875 0.4375 0.1875 1.0312 0.1875 1.5469 0 0.60938 0 1.1562-0.23438 1.6094-0.29688 0.5625-0.71875 0.76562-1.2031 0.76562z"/>
</g>
<g id="ab">
<path d="m4.375-3.4844c0 2.8281-1.25 3.4062-1.9688 3.4062-0.29688 0-0.92188-0.03125-1.2188-0.45312h0.0625c0.09375 0.03125 0.51562-0.046875 0.51562-0.48438 0-0.26562-0.17188-0.48438-0.48438-0.48438s-0.5 0.20312-0.5 0.51562c0 0.73438 0.59375 1.2344 1.6406 1.2344 1.4844 0 2.9375-1.5938 2.9375-4.1875 0-3.2031-1.3438-4.0156-2.3906-4.0156-1.3125 0-2.4844 1.1094-2.4844 2.6875s1.125 2.6406 2.3125 2.6406c0.89062 0 1.3438-0.64062 1.5781-1.25zm-1.5312 0.625c-0.75 0-1.0781-0.60938-1.1875-0.82812-0.1875-0.45312-0.1875-1.0312-0.1875-1.5781 0-0.65625 0-1.2344 0.3125-1.7344 0.21875-0.3125 0.53125-0.65625 1.1875-0.65625 0.67188 0 1.0312 0.59375 1.1406 0.85938 0.23438 0.59375 0.23438 1.6094 0.23438 1.7812 0 1.0156-0.45312 2.1562-1.5 2.1562z"/>
</g>
<g id="q">
<path d="m3.8906 2.9062c0-0.03125 0-0.0625-0.20312-0.26562-1.2031-1.2031-1.875-3.1719-1.875-5.6094 0-2.3281 0.5625-4.3281 1.9531-5.7344 0.125-0.10938 0.125-0.125 0.125-0.17188 0-0.0625-0.0625-0.09375-0.10938-0.09375-0.15625 0-1.1406 0.85938-1.7188 2.0312-0.60938 1.2188-0.89062 2.4844-0.89062 3.9688 0 1.0625 0.17188 2.4844 0.78125 3.75 0.71875 1.4375 1.6875 2.2188 1.8281 2.2188 0.046875 0 0.10938-0.03125 0.10938-0.09375z"/>
</g>
<g id="p">
<path d="m3.375-2.9688c0-0.92188-0.125-2.3906-0.79688-3.7812-0.70312-1.4375-1.6875-2.2188-1.8125-2.2188-0.046875 0-0.10938 0.03125-0.10938 0.09375 0 0.046875 0 0.0625 0.20312 0.26562 1.2031 1.2031 1.8594 3.1875 1.8594 5.625 0 2.3125-0.5625 4.3125-1.9375 5.7188-0.125 0.10938-0.125 0.14062-0.125 0.17188 0 0.0625 0.0625 0.09375 0.10938 0.09375 0.15625 0 1.1406-0.85938 1.7188-2.0312 0.60938-1.2188 0.89062-2.5156 0.89062-3.9375z"/>
</g>
<g id="aa">
<path d="m4.3281-4.4219c-0.14062 0-0.59375 0-0.59375 0.48438 0 0.29688 0.20312 0.5 0.5 0.5 0.26562 0 0.5-0.17188 0.5-0.51562 0-0.79688-0.84375-1.375-1.8125-1.375-1.3906 0-2.5 1.2344-2.5 2.75 0 1.5312 1.1406 2.7031 2.5 2.7031 1.5781 0 1.9375-1.4375 1.9375-1.5469s-0.09375-0.10938-0.125-0.10938c-0.10938 0-0.125 0.03125-0.15625 0.1875-0.26562 0.84375-0.90625 1.2031-1.5469 1.2031-0.73438 0-1.7031-0.64062-1.7031-2.4531 0-1.9844 1.0156-2.4688 1.6094-2.4688 0.45312 0 1.1094 0.17188 1.3906 0.64062z"/>
</g>
<g id="c">
<path d="m2.0312-1.3281c-0.42188 0.70312-0.82812 0.95312-1.3906 0.98438-0.14062 0.015625-0.23438 0.015625-0.23438 0.21875 0 0.078125 0.0625 0.125 0.14062 0.125 0.21875 0 0.75-0.03125 0.96875-0.03125 0.34375 0 0.73438 0.03125 1.0625 0.03125 0.078125 0 0.21875 0 0.21875-0.23438 0-0.09375-0.09375-0.10938-0.17188-0.10938-0.26562-0.03125-0.5-0.125-0.5-0.40625 0-0.17188 0.078125-0.29688 0.23438-0.5625l0.90625-1.5156h3.0469c0.015625 0.10938 0.015625 0.20312 0.015625 0.3125 0.046875 0.3125 0.1875 1.5625 0.1875 1.7812 0 0.35938-0.60938 0.39062-0.79688 0.39062-0.14062 0-0.26562 0-0.26562 0.21875 0 0.125 0.10938 0.125 0.17188 0.125 0.20312 0 0.45312-0.03125 0.65625-0.03125h0.67188c0.73438 0 1.2656 0.03125 1.2656 0.03125 0.09375 0 0.21875 0 0.21875-0.23438 0-0.10938-0.10938-0.10938-0.28125-0.10938-0.65625 0-0.67188-0.10938-0.70312-0.46875l-0.73438-7.4531c-0.03125-0.25-0.078125-0.26562-0.20312-0.26562s-0.1875 0.015625-0.29688 0.20312zm1.4375-1.8438 2.4062-4.0156 0.40625 4.0156z"/>
</g>
<g id="b">
<path d="m4.375-7.3438c0.10938-0.45312 0.15625-0.46875 0.625-0.46875h1.5469c1.3594 0 1.3594 1.1406 1.3594 1.25 0 0.96875-0.96875 2.2031-2.5469 2.2031h-1.7188zm2.0156 3.0781c1.3125-0.23438 2.4844-1.1562 2.4844-2.25 0-0.9375-0.8125-1.6406-2.1719-1.6406h-3.8281c-0.23438 0-0.34375 0-0.34375 0.21875 0 0.125 0.10938 0.125 0.29688 0.125 0.71875 0 0.71875 0.09375 0.71875 0.21875 0 0.03125 0 0.09375-0.046875 0.28125l-1.6094 6.4219c-0.10938 0.42188-0.14062 0.54688-0.96875 0.54688-0.23438 0-0.34375 0-0.34375 0.21875 0 0.125 0.0625 0.125 0.3125 0.125h4.0938c1.8281 0 3.2344-1.3906 3.2344-2.5938 0-0.98438-0.85938-1.5781-1.8281-1.6719zm-1.6875 3.9219h-1.625c-0.15625 0-0.1875 0-0.25-0.015625-0.14062-0.015625-0.15625-0.03125-0.15625-0.125s0.03125-0.15625 0.046875-0.26562l0.84375-3.375h2.25c1.4062 0 1.4062 1.3125 1.4062 1.4062 0 1.1562-1.0312 2.375-2.5156 2.375z"/>
</g>
<g id="a">
<path d="m8.9219-8.3125c0-0.10938-0.078125-0.10938-0.09375-0.10938-0.03125 0-0.078125 0-0.17188 0.125l-0.82812 1c-0.42188-0.71875-1.0781-1.125-1.9688-1.125-2.5781 0-5.2656 2.625-5.2656 5.4375 0 2 1.4062 3.2344 3.1406 3.2344 0.96875 0 1.7969-0.40625 2.5-0.98438 1.0312-0.875 1.3438-2.0312 1.3438-2.1406 0-0.09375-0.09375-0.09375-0.125-0.09375-0.10938 0-0.125 0.0625-0.15625 0.10938-0.54688 1.875-2.1562 2.7656-3.3594 2.7656-1.2656 0-2.3594-0.8125-2.3594-2.5156 0-0.375 0.125-2.4531 1.4688-4.0312 0.65625-0.76562 1.7812-1.4219 2.9219-1.4219 1.3125 0 1.8906 1.0781 1.8906 2.2969 0 0.3125-0.03125 0.57812-0.03125 0.625 0 0.10938 0.125 0.10938 0.15625 0.10938 0.125 0 0.14062-0.015625 0.1875-0.23438z"/>
</g>
<g id="i">
<path d="m4.1406-7.5c0-0.34375-0.03125-0.34375-0.40625-0.34375-0.89062 0.76562-2.2188 0.76562-2.4844 0.76562h-0.21875v0.51562h0.21875c0.42188 0 1.0625-0.078125 1.5312-0.23438v6.2812h-1.6562v0.51562c0.5-0.03125 1.75-0.03125 2.3125-0.03125s1.8281 0 2.3281 0.03125v-0.51562h-1.625z"/>
</g>
<g id="h">
<path d="m5.1719-1.875h1.1562v-0.51562h-1.1562v-5.125c0-0.29688-0.015625-0.34375-0.3125-0.34375-0.20312 0-0.23438 0-0.375 0.17188l-4.1094 5.2969v0.51562h3.3906v1.3594h-1.2969v0.51562c0.34375-0.03125 1.5312-0.03125 1.9531-0.03125 0.40625 0 1.5938 0 1.9062 0.03125v-0.51562h-1.1562zm-1.2969-4.3125v3.7969h-2.9531z"/>
</g>
<g id="g">
<path d="m1.8438-6.2031c0.40625 0.09375 0.71875 0.09375 0.90625 0.09375 0.28125 0 0.96875 0 1.7656-0.48438 0.375-0.23438 1-0.76562 1-1.0469 0-0.0625 0-0.20312-0.15625-0.20312 0 0-0.03125 0-0.14062 0.0625-0.5625 0.1875-1.1406 0.32812-1.8125 0.32812-0.6875 0-1.25-0.14062-1.8125-0.34375-0.09375-0.015625-0.125-0.046875-0.15625-0.046875-0.14062 0-0.14062 0.125-0.14062 0.32812v3.4688c0 0.23438 0 0.35938 0.23438 0.35938 0.125 0 0.14062 0 0.23438-0.125 0.14062-0.17188 0.57812-0.6875 1.5938-0.6875 1.0938 0 1.0938 1.125 1.0938 2.0625 0 0.85938 0 2.1094-1.4688 2.1094-0.4375 0-1.1875-0.17188-1.5938-0.85938 0.625 0 0.78125-0.46875 0.78125-0.73438 0-0.4375-0.3125-0.75-0.75-0.75-0.35938 0-0.75 0.20312-0.75 0.76562 0 1.0469 0.9375 2.0469 2.3594 2.0469 1.8438 0 3-1.0625 3-2.5469 0-1.4531-0.98438-2.5-2.625-2.5-0.48438 0-1.0469 0.09375-1.5625 0.48438z"/>
</g>
<g id="t">
<path d="m6.1875-3.8125c0-1.1406 0-4.0312-2.8281-4.0312s-2.8281 2.875-2.8281 4.0312c0 1.1406 0 3.9531 2.8125 3.9531 2.8281 0 2.8438-2.7656 2.8438-3.9531zm-2.8281 3.5625c-0.39062 0-0.67188-0.15625-0.90625-0.40625-0.29688-0.29688-0.5-0.48438-0.5-3.2969 0-0.84375 0-1.6094 0.10938-2.2344 0.15625-1.1719 1.0156-1.2656 1.2812-1.2656 0.39062 0 1.125 0.1875 1.2969 1.1875 0.10938 0.60938 0.10938 1.5781 0.10938 2.3125 0 2.8125-0.1875 2.9844-0.54688 3.3438-0.23438 0.23438-0.5625 0.35938-0.84375 0.35938z"/>
</g>
<g id="f">
<path d="m6.0781-3.2344c-0.65625-0.8125-0.79688-1-1.1719-1.2969-0.65625-0.53125-1.3281-0.75-1.9375-0.75-1.4062 0-2.3125 1.3125-2.3125 2.7188 0 1.375 0.89062 2.6875 2.2656 2.6875s2.3594-1.0781 2.9531-2.0312c0.64062 0.8125 0.78125 0.98438 1.1562 1.2812 0.67188 0.54688 1.3281 0.75 1.9531 0.75 1.3906 0 2.2969-1.3125 2.2969-2.7031 0-1.375-0.875-2.7031-2.25-2.7031s-2.375 1.0781-2.9531 2.0469zm0.3125 0.40625c0.48438-0.85938 1.3594-2.0781 2.7188-2.0781 1.2656 0 1.9062 1.25 1.9062 2.3281 0 1.1719-0.79688 2.1406-1.8438 2.1406-0.70312 0-1.2344-0.5-1.4844-0.75-0.29688-0.32812-0.57812-0.70312-1.2969-1.6406zm-0.82812 0.51562c-0.5 0.85938-1.375 2.0625-2.7344 2.0625-1.2656 0-1.9062-1.25-1.9062-2.3125 0-1.1719 0.79688-2.1406 1.8438-2.1406 0.70312 0 1.2344 0.5 1.4844 0.75 0.29688 0.3125 0.57812 0.6875 1.3125 1.6406z"/>
</g>
<clipPath id="as">
<path d="m256 286h64.527v64.379h-64.527z"/>
</clipPath>
<clipPath id="ar">
<path d="m256 307h64.527v1h-64.527z"/>
</clipPath>
<clipPath id="ap">
<path d="m256 328h64.527v1h-64.527z"/>
</clipPath>
<clipPath id="ao">
<path d="m277 286h1v64.379h-1z"/>
</clipPath>
<clipPath id="an">
<path d="m298 286h1v64.379h-1z"/>
</clipPath>
<clipPath id="am">
<path d="m256 228h64.527v1h-64.527z"/>
</clipPath>
<clipPath id="al">
<path d="m256 206h64.527v65h-64.527z"/>
</clipPath>
<clipPath id="ak">
<path d="m256 249h64.527v1h-64.527z"/>
</clipPath>
<clipPath id="aj">
<path d="m256 121h64.527v65h-64.527z"/>
</clipPath>
<clipPath id="ai">
<path d="m256 143h64.527v1h-64.527z"/>
</clipPath>
<clipPath id="aq">
<path d="m256 164h64.527v1h-64.527z"/>
</clipPath>
</defs>
<path transform="matrix(.1 0 0 -.1 -1.472 350.38)" d="m1655.4 1647h637.85v637.85h-637.85z" fill="none" stroke="#000" stroke-miterlimit="10" stroke-width="2.3625"/>
<path transform="matrix(.1 0 0 -.1 -1.472 350.38)" d="m1655.4 2072.2h637.85" fill="none" stroke="#000" stroke-miterlimit="10" stroke-width="2.3625"/>
<path transform="matrix(.1 0 0 -.1 -1.472 350.38)" d="m1655.4 1859.6h637.85" fill="none" stroke="#000" stroke-miterlimit="10" stroke-width="2.3625"/>
<path transform="matrix(.1 0 0 -.1 -1.472 350.38)" d="m1868 2284.9v-637.85" fill="none" stroke="#000" stroke-miterlimit="10" stroke-width="2.3625"/>
<path transform="matrix(.1 0 0 -.1 -1.472 350.38)" d="m2080.6 2284.9v-637.85" fill="none" stroke="#000" stroke-miterlimit="10" stroke-width="2.3625"/>
<path transform="matrix(.1 0 0 -.1 -1.472 350.38)" d="m734.02 796.5h637.85v637.85h-637.85z" fill="none" stroke="#000" stroke-miterlimit="10" stroke-width="2.3625"/>
<path transform="matrix(.1 0 0 -.1 -1.472 350.38)" d="m734.02 1221.7h637.85" fill="none" stroke="#000" stroke-miterlimit="10" stroke-width="2.3625"/>
<path transform="matrix(.1 0 0 -.1 -1.472 350.38)" d="m734.02 1009.1h637.85" fill="none" stroke="#000" stroke-miterlimit="10" stroke-width="2.3625"/>
<path transform="matrix(.1 0 0 -.1 -1.472 350.38)" d="m946.63 1434.4v-637.89" fill="none" stroke="#000" stroke-miterlimit="10" stroke-width="2.3625"/>
<path transform="matrix(.1 0 0 -.1 -1.472 350.38)" d="m1159.3 1434.4v-637.89" fill="none" stroke="#000" stroke-miterlimit="10" stroke-width="2.3625"/>
<path transform="matrix(.1 0 0 -.1 -1.472 350.38)" d="m1655.4 796.5h637.85v637.85h-637.85z" fill="none" stroke="#000" stroke-miterlimit="10" stroke-width="2.3625"/>
<path transform="matrix(.1 0 0 -.1 -1.472 350.38)" d="m1655.4 1221.7h637.85" fill="none" stroke="#000" stroke-miterlimit="10" stroke-width="2.3625"/>
<path transform="matrix(.1 0 0 -.1 -1.472 350.38)" d="m1655.4 1009.1h637.85" fill="none" stroke="#000" stroke-miterlimit="10" stroke-width="2.3625"/>
<path transform="matrix(.1 0 0 -.1 -1.472 350.38)" d="m1868 1434.4v-637.89" fill="none" stroke="#000" stroke-miterlimit="10" stroke-width="2.3625"/>
<path transform="matrix(.1 0 0 -.1 -1.472 350.38)" d="m2080.6 1434.4v-637.89" fill="none" stroke="#000" stroke-miterlimit="10" stroke-width="2.3625"/>
<path transform="matrix(.1 0 0 -.1 -1.472 350.38)" d="m734.02 16.856h637.85v637.89h-637.85z" fill="none" stroke="#000" stroke-miterlimit="10" stroke-width="2.3625"/>
<path transform="matrix(.1 0 0 -.1 -1.472 350.38)" d="m734.02 442.13h637.85" fill="none" stroke="#000" stroke-miterlimit="10" stroke-width="2.3625"/>
<path transform="matrix(.1 0 0 -.1 -1.472 350.38)" d="m734.02 229.51h637.85" fill="none" stroke="#000" stroke-miterlimit="10" stroke-width="2.3625"/>
<path transform="matrix(.1 0 0 -.1 -1.472 350.38)" d="m946.63 654.75v-637.89" fill="none" stroke="#000" stroke-miterlimit="10" stroke-width="2.3625"/>
<path transform="matrix(.1 0 0 -.1 -1.472 350.38)" d="m1159.3 654.75v-637.89" fill="none" stroke="#000" stroke-miterlimit="10" stroke-width="2.3625"/>
<path transform="matrix(.1 0 0 -.1 -1.472 350.38)" d="m1655.4 16.856h637.85v637.89h-637.85z" fill="none" stroke="#000" stroke-miterlimit="10" stroke-width="2.3625"/>
<path transform="matrix(.1 0 0 -.1 -1.472 350.38)" d="m1655.4 442.13h637.85" fill="none" stroke="#000" stroke-miterlimit="10" stroke-width="2.3625"/>
<path transform="matrix(.1 0 0 -.1 -1.472 350.38)" d="m1655.4 229.51h637.85" fill="none" stroke="#000" stroke-miterlimit="10" stroke-width="2.3625"/>
<path transform="matrix(.1 0 0 -.1 -1.472 350.38)" d="m1868 654.75v-637.89" fill="none" stroke="#000" stroke-miterlimit="10" stroke-width="2.3625"/>
<path transform="matrix(.1 0 0 -.1 -1.472 350.38)" d="m2080.6 654.75v-637.89" fill="none" stroke="#000" stroke-miterlimit="10" stroke-width="2.3625"/>
<g clip-path="url(#as)">
<path transform="matrix(.1 0 0 -.1 -1.472 350.38)" d="m2576.8 2.7153h637.89v637.85h-637.89z" fill="none" stroke="#000" stroke-miterlimit="10" stroke-width="2.3625"/>
</g>
<g clip-path="url(#ar)">
<path transform="matrix(.1 0 0 -.1 -1.472 350.38)" d="m2576.8 427.95h637.89" fill="none" stroke="#000" stroke-miterlimit="10" stroke-width="2.3625"/>
</g>
<g clip-path="url(#ap)">
<path transform="matrix(.1 0 0 -.1 -1.472 350.38)" d="m2576.8 215.33h637.89" fill="none" stroke="#000" stroke-miterlimit="10" stroke-width="2.3625"/>
</g>
<g clip-path="url(#ao)">
<path transform="matrix(.1 0 0 -.1 -1.472 350.38)" d="m2789.4 640.57v-637.85" fill="none" stroke="#000" stroke-miterlimit="10" stroke-width="2.3625"/>
</g>
<g clip-path="url(#an)">
<path transform="matrix(.1 0 0 -.1 -1.472 350.38)" d="m3002 640.57v-637.85" fill="none" stroke="#000" stroke-miterlimit="10" stroke-width="2.3625"/>
</g>
<path transform="matrix(.1 0 0 -.1 -1.472 350.38)" d="m2789.4 1434.4v-637.89" fill="none" stroke="#000" stroke-miterlimit="10" stroke-width="2.3625"/>
<path transform="matrix(.1 0 0 -.1 -1.472 350.38)" d="m3002 1434.4v-637.89" fill="none" stroke="#000" stroke-miterlimit="10" stroke-width="2.3625"/>
<g clip-path="url(#am)">
<path transform="matrix(.1 0 0 -.1 -1.472 350.38)" d="m2576.8 1221.7h637.89" fill="none" stroke="#000" stroke-miterlimit="10" stroke-width="2.3625"/>
</g>
<g clip-path="url(#al)">
<path transform="matrix(.1 0 0 -.1 -1.472 350.38)" d="m2576.8 796.5h637.89v637.85h-637.89z" fill="none" stroke="#000" stroke-miterlimit="10" stroke-width="2.3625"/>
</g>
<g clip-path="url(#ak)">
<path transform="matrix(.1 0 0 -.1 -1.472 350.38)" d="m2576.8 1009.1h637.89" fill="none" stroke="#000" stroke-miterlimit="10" stroke-width="2.3625"/>
</g>
<path transform="matrix(.1 0 0 -.1 -1.472 350.38)" d="m734.02 1647h637.85v637.85h-637.85z" fill="none" stroke="#000" stroke-miterlimit="10" stroke-width="2.3625"/>
<path transform="matrix(.1 0 0 -.1 -1.472 350.38)" d="m734.02 2072.2h637.85" fill="none" stroke="#000" stroke-miterlimit="10" stroke-width="2.3625"/>
<path transform="matrix(.1 0 0 -.1 -1.472 350.38)" d="m734.02 1859.6h637.85" fill="none" stroke="#000" stroke-miterlimit="10" stroke-width="2.3625"/>
<path transform="matrix(.1 0 0 -.1 -1.472 350.38)" d="m946.63 2284.9v-637.85" fill="none" stroke="#000" stroke-miterlimit="10" stroke-width="2.3625"/>
<path transform="matrix(.1 0 0 -.1 -1.472 350.38)" d="m1868 3277.1-566.99-283.52" fill="none" stroke="#000" stroke-miterlimit="10" stroke-width="4.725"/>
<path transform="matrix(.1 0 0 -.1 -1.472 350.38)" d="m2080.6 3277.1 566.99-283.52" fill="none" stroke="#000" stroke-miterlimit="10" stroke-width="4.725"/>
<path transform="matrix(.1 0 0 -.1 -1.472 350.38)" d="m1301 2880.2h1346.6" fill="none" stroke="#000" stroke-miterlimit="10" stroke-width="4.725"/>
<path transform="matrix(.1 0 0 -.1 -1.472 350.38)" d="m1868 3277.1h212.62v212.62h-212.62z" fill="none" stroke="#000" stroke-miterlimit="10" stroke-width="9.45"/>
<path transform="matrix(.1 0 0 -.1 -1.472 350.38)" d="m1088.4 2781h212.62v212.62h-212.62z" fill="none" stroke="#000" stroke-miterlimit="10" stroke-width="9.45"/>
<path transform="matrix(.1 0 0 -.1 -1.472 350.38)" d="m2647.6 2781h212.66v212.62h-212.66z" fill="none" stroke="#000" stroke-miterlimit="10" stroke-width="9.45"/>
<path transform="matrix(.1 0 0 -.1 -1.472 350.38)" d="m1159.3 2284.9v-637.85" fill="none" stroke="#000" stroke-miterlimit="10" stroke-width="2.3625"/>
<g clip-path="url(#aj)">
<path transform="matrix(.1 0 0 -.1 -1.472 350.38)" d="m2576.8 1647h637.89v637.85h-637.89z" fill="none" stroke="#000" stroke-miterlimit="10" stroke-width="2.3625"/>
</g>
<g clip-path="url(#ai)">
<path transform="matrix(.1 0 0 -.1 -1.472 350.38)" d="m2576.8 2072.2h637.89" fill="none" stroke="#000" stroke-miterlimit="10" stroke-width="2.3625"/>
</g>
<g clip-path="url(#aq)">
<path transform="matrix(.1 0 0 -.1 -1.472 350.38)" d="m2576.8 1859.6h637.89" fill="none" stroke="#000" stroke-miterlimit="10" stroke-width="2.3625"/>
</g>
<path transform="matrix(.1 0 0 -.1 -1.472 350.38)" d="m2789.4 2284.9v-637.85" fill="none" stroke="#000" stroke-miterlimit="10" stroke-width="2.3625"/>
<path transform="matrix(.1 0 0 -.1 -1.472 350.38)" d="m3002 2284.9v-637.85" fill="none" stroke="#000" stroke-miterlimit="10" stroke-width="2.3625"/>
<g>
<use x="75.071" y="110.456" xlink:href="#s"/>
<use x="84.171298" y="110.456" xlink:href="#e"/>
<use x="90.674927" y="110.456" xlink:href="#o"/>
<use x="96.528193" y="110.456" xlink:href="#l"/>
<use x="101.080733" y="110.456" xlink:href="#j"/>
<use x="106.283636" y="110.456" xlink:href="#e"/>
<use x="116.68466" y="110.456" xlink:href="#z"/>
<use x="173.113204" y="110.456" xlink:href="#s"/>
<use x="182.213502" y="110.456" xlink:href="#e"/>
<use x="188.717131" y="110.456" xlink:href="#o"/>
<use x="194.570397" y="110.456" xlink:href="#l"/>
<use x="199.122937" y="110.456" xlink:href="#j"/>
<use x="204.32584" y="110.456" xlink:href="#e"/>
<use x="214.726864" y="110.456" xlink:href="#y"/>
<use x="266.581349" y="110.456" xlink:href="#s"/>
<use x="275.681647" y="110.456" xlink:href="#e"/>
<use x="282.185276" y="110.456" xlink:href="#o"/>
<use x="288.038542" y="110.456" xlink:href="#l"/>
<use x="292.591082" y="110.456" xlink:href="#j"/>
<use x="297.793985" y="110.456" xlink:href="#e"/>
<use x="308.195009" y="110.456" xlink:href="#x"/>
<use x="0.748" y="101.952" xlink:href="#w"/>
<use x="9.688099" y="101.952" xlink:href="#ah"/>
<use x="12.939913" y="101.952" xlink:href="#ag"/>
<use x="17.557011" y="101.952" xlink:href="#l"/>
<use x="22.109551" y="101.952" xlink:href="#r"/>
<use x="27.962817" y="101.952" xlink:href="#e"/>
<use x="34.466446" y="101.952" xlink:href="#af"/>
<use x="39.669349" y="101.952" xlink:href="#ae"/>
<use x="-0.002" y="114.709" xlink:href="#ad"/>
<use x="7.472391" y="114.709" xlink:href="#r"/>
<use x="13.325657" y="114.709" xlink:href="#v"/>
<use x="20.164031" y="114.709" xlink:href="#j"/>
<use x="25.366934" y="114.709" xlink:href="#u"/>
<use x="28.618749" y="114.709" xlink:href="#u"/>
<use x="31.870563" y="114.709" xlink:href="#j"/>
<use x="37.061511" y="114.709" xlink:href="#e"/>
<use x="264.394" y="155.814" xlink:href="#c"/>
<use x="264.034" y="178.492" xlink:href="#b"/>
<use x="306.682" y="178.492" xlink:href="#i"/>
</g>
<path transform="matrix(1 0 0 -1 306.68 179.89)" d="m0.0015938 2.8125e-4h6.7227" fill="none" stroke="#000" stroke-miterlimit="10" stroke-width=".398"/>
<g>
<use x="282.978" y="135.97" xlink:href="#c"/>
<use x="281.388" y="178.492" xlink:href="#f"/>
<use x="305.296" y="135.97" xlink:href="#b"/>
<use x="172.262" y="155.814" xlink:href="#c"/>
<use x="211.935" y="155.814" xlink:href="#f"/>
<use x="214.55" y="178.492" xlink:href="#i"/>
</g>
<path transform="matrix(1 0 0 -1 214.55 179.89)" d="m7.8125e-4 2.8125e-4h6.7227" fill="none" stroke="#000" stroke-miterlimit="10" stroke-width=".398"/>
<g>
<use x="190.846" y="135.97" xlink:href="#c"/>
<use x="191.872" y="155.814" xlink:href="#h"/>
</g>
<path transform="matrix(1 0 0 -1 191.87 157.21)" d="m-9.0625e-4 9.6875e-4h6.7266" fill="none" stroke="#000" stroke-miterlimit="10" stroke-width=".398"/>
<g>
<use x="189.256" y="178.492" xlink:href="#f"/>
<use x="213.296" y="135.97" xlink:href="#a"/>
<use x="280.641" y="155.814" xlink:href="#g"/>
<use x="287.3658" y="155.814" xlink:href="#t"/>
</g>
<path transform="matrix(1 0 0 -1 280.64 157.21)" d="m-3.75e-4 9.6875e-4h13.449" fill="none" stroke="#000" stroke-miterlimit="10" stroke-width=".398"/>
<g>
<use x="79.77" y="242.276" xlink:href="#b"/>
<use x="79.901" y="263.537" xlink:href="#a"/>
<use x="119.928" y="242.276" xlink:href="#d"/>
<use x="125.781266" y="242.276" xlink:href="#n"/>
<use x="119.928" y="263.537" xlink:href="#d"/>
<use x="125.781266" y="263.537" xlink:href="#k"/>
<use x="99.74" y="242.276" xlink:href="#h"/>
</g>
<path transform="matrix(1 0 0 -1 99.74 243.67)" d="m-0.0017188-8.75e-4h6.7266" fill="none" stroke="#000" stroke-miterlimit="10" stroke-width=".398"/>
<g>
<use x="99.74" y="263.537" xlink:href="#g"/>
</g>
<path transform="matrix(1 0 0 -1 99.74 264.93)" d="m-0.0017188-0.0015938h6.7266" fill="none" stroke="#000" stroke-miterlimit="10" stroke-width=".398"/>
<g>
<use x="121.164" y="221.015" xlink:href="#a"/>
<use x="172.262" y="242.276" xlink:href="#c"/>
<use x="172.033" y="263.537" xlink:href="#a"/>
<use x="212.06" y="242.276" xlink:href="#d"/>
<use x="217.913266" y="242.276" xlink:href="#n"/>
<use x="214.55" y="263.537" xlink:href="#i"/>
</g>
<path transform="matrix(1 0 0 -1 214.55 264.93)" d="m7.8125e-4 -0.0015938h6.7227" fill="none" stroke="#000" stroke-miterlimit="10" stroke-width=".398"/>
<g>
<use x="190.846" y="221.015" xlink:href="#c"/>
<use x="191.872" y="242.276" xlink:href="#h"/>
</g>
<path transform="matrix(1 0 0 -1 191.87 243.67)" d="m-9.0625e-4 -8.75e-4h6.7266" fill="none" stroke="#000" stroke-miterlimit="10" stroke-width=".398"/>
<g>
<use x="189.381" y="263.537" xlink:href="#d"/>
<use x="195.234266" y="263.537" xlink:href="#m"/>
<use x="213.296" y="221.015" xlink:href="#a"/>
<use x="79.77" y="320.234" xlink:href="#b"/>
<use x="79.901" y="341.495" xlink:href="#a"/>
<use x="119.928" y="320.234" xlink:href="#d"/>
<use x="125.781266" y="320.234" xlink:href="#n"/>
<use x="98.354" y="298.972" xlink:href="#b"/>
<use x="99.74" y="320.234" xlink:href="#h"/>
</g>
<path transform="matrix(1 0 0 -1 99.74 321.63)" d="m-0.0017188-9.0625e-4h6.7266" fill="none" stroke="#000" stroke-miterlimit="10" stroke-width=".398"/>
<g>
<use x="99.74" y="341.495" xlink:href="#g"/>
</g>
<path transform="matrix(1 0 0 -1 99.74 342.89)" d="m-0.0017188-6.25e-4h6.7266" fill="none" stroke="#000" stroke-miterlimit="10" stroke-width=".398"/>
<g>
<use x="121.164" y="298.972" xlink:href="#a"/>
<use x="172.262" y="320.234" xlink:href="#c"/>
<use x="172.033" y="341.495" xlink:href="#a"/>
<use x="214.986" y="320.234" xlink:href="#ac"/>
<use x="190.846" y="298.972" xlink:href="#c"/>
<use x="191.872" y="320.234" xlink:href="#h"/>
</g>
<path transform="matrix(1 0 0 -1 191.87 321.63)" d="m-9.0625e-4 -9.0625e-4h6.7266" fill="none" stroke="#000" stroke-miterlimit="10" stroke-width=".398"/>
<g>
<use x="192.308" y="341.495" xlink:href="#ab"/>
<use x="213.296" y="298.972" xlink:href="#a"/>
<use x="264.394" y="320.234" xlink:href="#c"/>
<use x="264.034" y="341.495" xlink:href="#b"/>
<use x="306.682" y="320.234" xlink:href="#g"/>
</g>
<path transform="matrix(1 0 0 -1 306.68 321.63)" d="m0.0015938-9.0625e-4h6.7227" fill="none" stroke="#000" stroke-miterlimit="10" stroke-width=".398"/>
<g>
<use x="306.682" y="341.495" xlink:href="#i"/>
</g>
<path transform="matrix(1 0 0 -1 306.68 342.89)" d="m0.0015938-6.25e-4h6.7227" fill="none" stroke="#000" stroke-miterlimit="10" stroke-width=".398"/>
<g>
<use x="282.978" y="300.39" xlink:href="#c"/>
<use x="281.513" y="320.234" xlink:href="#d"/>
<use x="287.366266" y="320.234" xlink:href="#k"/>
<use x="281.513" y="341.495" xlink:href="#d"/>
<use x="287.366266" y="341.495" xlink:href="#m"/>
<use x="305.296" y="300.39" xlink:href="#b"/>
<use x="28.613" y="158.649" xlink:href="#q"/>
<use x="33.16554" y="158.649" xlink:href="#r"/>
<use x="39.018806" y="158.649" xlink:href="#p"/>
<use x="27.963" y="242.276" xlink:href="#q"/>
<use x="32.51554" y="242.276" xlink:href="#v"/>
<use x="39.019169" y="242.276" xlink:href="#p"/>
<use x="29.263" y="321.651" xlink:href="#q"/>
<use x="33.81554" y="321.651" xlink:href="#aa"/>
<use x="39.018443" y="321.651" xlink:href="#p"/>
<use x="79.77" y="155.814" xlink:href="#b"/>
<use x="80.689" y="178.492" xlink:href="#a"/>
<use x="119.803" y="155.814" xlink:href="#f"/>
<use x="119.056" y="178.492" xlink:href="#g"/>
<use x="125.7808" y="178.492" xlink:href="#t"/>
</g>
<path transform="matrix(1 0 0 -1 119.06 179.89)" d="m-0.0013125 2.8125e-4h13.453" fill="none" stroke="#000" stroke-miterlimit="10" stroke-width=".398"/>
<g>
<use x="98.354" y="135.97" xlink:href="#b"/>
<use x="97.125" y="178.492" xlink:href="#f"/>
<use x="121.164" y="135.97" xlink:href="#a"/>
<use x="172.033" y="178.492" xlink:href="#a"/>
<use x="282.978" y="221.015" xlink:href="#c"/>
<use x="264.394" y="242.276" xlink:href="#c"/>
<use x="264.034" y="263.537" xlink:href="#b"/>
<use x="306.682" y="242.276" xlink:href="#g"/>
</g>
<path transform="matrix(1 0 0 -1 306.68 243.67)" d="m0.0015938-8.75e-4h6.7227" fill="none" stroke="#000" stroke-miterlimit="10" stroke-width=".398"/>
<g>
<use x="306.682" y="263.537" xlink:href="#i"/>
</g>
<path transform="matrix(1 0 0 -1 306.68 264.93)" d="m0.0015938-0.0015938h6.7227" fill="none" stroke="#000" stroke-miterlimit="10" stroke-width=".398"/>
<g>
<use x="281.513" y="242.276" xlink:href="#d"/>
<use x="287.366266" y="242.276" xlink:href="#k"/>
<use x="281.513" y="263.537" xlink:href="#d"/>
<use x="287.366266" y="263.537" xlink:href="#m"/>
<use x="305.296" y="221.015" xlink:href="#b"/>
<use x="99.74" y="155.814" xlink:href="#h"/>
</g>
<path transform="matrix(1 0 0 -1 99.74 157.21)" d="m-0.0017188 9.6875e-4h6.7266" fill="none" stroke="#000" stroke-miterlimit="10" stroke-width=".398"/>
<g>
<use x="304.067" y="155.814" xlink:href="#f"/>
<use x="214.55" y="341.495" xlink:href="#i"/>
</g>
<path transform="matrix(1 0 0 -1 214.55 342.89)" d="m7.8125e-4 -6.25e-4h6.7227" fill="none" stroke="#000" stroke-miterlimit="10" stroke-width=".398"/>
<g>
<use x="119.928" y="341.495" xlink:href="#d"/>
<use x="125.781266" y="341.495" xlink:href="#k"/>
<use x="98.354" y="221.015" xlink:href="#b"/>
<use x="193.725" y="58.012" xlink:href="#n"/>
<use x="242.009" y="36.751" xlink:href="#d"/>
<use x="247.862266" y="36.751" xlink:href="#k"/>
<use x="148.276" y="32.499" xlink:href="#m"/>
<use x="190.846" y="15.49" xlink:href="#c"/>
<use x="112.528" y="65.099" xlink:href="#b"/>
<use x="268.57803" y="65.099" xlink:href="#a"/>
</g>
</svg>
