<svg width="366pt" height="361pt" version="1.1" viewBox="0 0 366 361" xmlns="http://www.w3.org/2000/svg" xmlns:xlink="http://www.w3.org/1999/xlink">
<defs>
<g id="j">
<path d="m4.1406-7.5c0-0.34375-0.03125-0.34375-0.40625-0.34375-0.89062 0.76562-2.2188 0.76562-2.4844 0.76562h-0.21875v0.51562h0.21875c0.42188 0 1.0625-0.078125 1.5312-0.23438v6.2812h-1.6562v0.51562c0.5-0.03125 1.75-0.03125 2.3125-0.03125s1.8281 0 2.3281 0.03125v-0.51562h-1.625z"/>
</g>
<g id="m">
<path d="m6.1875-3.8125c0-1.1406 0-4.0312-2.8281-4.0312s-2.8281 2.875-2.8281 4.0312c0 1.1406 0 3.9531 2.8125 3.9531 2.8281 0 2.8438-2.7656 2.8438-3.9531zm-2.8281 3.5625c-0.39062 0-0.67188-0.15625-0.90625-0.40625-0.29688-0.29688-0.5-0.48438-0.5-3.2969 0-0.84375 0-1.6094 0.10938-2.2344 0.15625-1.1719 1.0156-1.2656 1.2812-1.2656 0.39062 0 1.125 0.1875 1.2969 1.1875 0.10938 0.60938 0.10938 1.5781 0.10938 2.3125 0 2.8125-0.1875 2.9844-0.54688 3.3438-0.23438 0.23438-0.5625 0.35938-0.84375 0.35938z"/>
</g>
<g id="l">
<path d="m2.625-7.2031c-0.09375-0.25-0.125-0.25-0.375-0.25h-1.8438v0.34375h0.26562c0.82812 0 0.85938 0.125 0.85938 0.51562v5.4531c0 0.29688 0 0.79688-1.125 0.79688v0.34375c0.375-0.015625 0.90625-0.03125 1.2656-0.03125 0.375 0 0.90625 0.015625 1.2812 0.03125v-0.34375c-1.125 0-1.125-0.5-1.125-0.79688v-5.8906h0.015625l2.625 6.7969c0.0625 0.14062 0.10938 0.23438 0.21875 0.23438 0.125 0 0.15625-0.09375 0.20312-0.20312l2.6719-6.9062h0.015625v6.2656c0 0.39062-0.015625 0.5-0.85938 0.5h-0.26562v0.34375c0.40625-0.03125 1.1562-0.03125 1.5781-0.03125s1.1562 0 1.5625 0.03125v-0.34375h-0.26562c-0.84375 0-0.85938-0.10938-0.85938-0.5v-5.75c0-0.39062 0.015625-0.51562 0.85938-0.51562h0.26562v-0.34375h-1.8438c-0.29688 0-0.29688 0.015625-0.35938 0.21875l-2.3906 6.1406z"/>
</g>
<g id="d">
<path d="m5.1406-2.3281c0-1.4062-1.0938-2.5625-2.4219-2.5625-1.3594 0-2.4062 1.1875-2.4062 2.5625 0 1.4062 1.125 2.4531 2.4062 2.4531 1.3125 0 2.4219-1.0781 2.4219-2.4531zm-2.4219 2.1719c-0.46875 0-0.9375-0.21875-1.2344-0.73438-0.28125-0.46875-0.28125-1.1406-0.28125-1.5312 0-0.42188 0-1.0156 0.26562-1.5 0.29688-0.5 0.8125-0.71875 1.25-0.71875 0.48438 0 0.95312 0.23438 1.2344 0.70312s0.28125 1.1094 0.28125 1.5156c0 0.39062 0 0.98438-0.25 1.4688-0.23438 0.48438-0.71875 0.79688-1.2656 0.79688z"/>
</g>
<g id="g">
<path d="m4.1406-0.59375v0.71875l1.6094-0.125v-0.34375c-0.76562 0-0.85938-0.078125-0.85938-0.60938v-6.6094l-1.5625 0.10938v0.34375c0.76562 0 0.84375 0.078125 0.84375 0.60938v2.3594c-0.3125-0.39062-0.78125-0.6875-1.375-0.6875-1.2812 0-2.4219 1.0781-2.4219 2.4844 0 1.3906 1.0625 2.4688 2.3125 2.4688 0.6875 0 1.1875-0.375 1.4531-0.71875zm0-2.9219v2.2344c0 0.1875 0 0.21875-0.10938 0.39062-0.32812 0.53125-0.82812 0.76562-1.2969 0.76562-0.48438 0-0.875-0.28125-1.1406-0.6875-0.28125-0.45312-0.3125-1.0781-0.3125-1.5156 0-0.40625 0.015625-1.0625 0.32812-1.5469 0.23438-0.34375 0.64062-0.70312 1.2344-0.70312 0.39062 0 0.84375 0.15625 1.1875 0.65625 0.10938 0.1875 0.10938 0.20312 0.10938 0.40625z"/>
</g>
<g id="f">
<path d="m4.2656-0.85938v0.98438l1.5625-0.125v-0.34375c-0.75 0-0.84375-0.078125-0.84375-0.60938v-3.875l-1.6094 0.125v0.34375c0.76562 0 0.85938 0.078125 0.85938 0.60938v1.9375c0 0.95312-0.53125 1.6875-1.3281 1.6875-0.90625 0-0.95312-0.5-0.95312-1.0781v-3.625l-1.6094 0.125v0.34375c0.85938 0 0.85938 0.03125 0.85938 1v1.6406c0 0.84375 0 1.8438 1.6562 1.8438 0.60938 0 1.0938-0.3125 1.4062-0.98438z"/>
</g>
<g id="c">
<path d="m1.9375-7.5625-1.5781 0.10938v0.34375c0.76562 0 0.84375 0.078125 0.84375 0.60938v5.6719c0 0.48438-0.10938 0.48438-0.84375 0.48438v0.34375c0.35938-0.015625 0.9375-0.03125 1.2188-0.03125 0.26562 0 0.79688 0.015625 1.2031 0.03125v-0.34375c-0.73438 0-0.84375 0-0.84375-0.48438z"/>
</g>
<g id="i">
<path d="m3.625-0.82812c0.046875 0.4375 0.34375 0.89062 0.85938 0.89062 0.23438 0 0.89062-0.15625 0.89062-1.0312v-0.60938h-0.26562v0.60938c0 0.625-0.28125 0.70312-0.39062 0.70312-0.35938 0-0.40625-0.5-0.40625-0.54688v-2.1875c0-0.45312 0-0.875-0.39062-1.2812-0.4375-0.4375-0.98438-0.60938-1.5-0.60938-0.89062 0-1.6406 0.51562-1.6406 1.2344 0 0.32812 0.21875 0.51562 0.5 0.51562 0.29688 0 0.5-0.21875 0.5-0.5 0-0.14062-0.0625-0.5-0.5625-0.5 0.29688-0.39062 0.82812-0.5 1.1875-0.5 0.53125 0 1.1562 0.42188 1.1562 1.3906v0.40625c-0.5625 0.03125-1.3281 0.0625-2.0156 0.39062-0.8125 0.375-1.0938 0.9375-1.0938 1.4219 0 0.875 1.0625 1.1562 1.75 1.1562 0.71875 0 1.2188-0.4375 1.4219-0.95312zm-0.0625-1.7969v1.0938c0 1.0469-0.79688 1.4062-1.2812 1.4062-0.53125 0-0.98438-0.375-0.98438-0.92188 0-0.59375 0.45312-1.5 2.2656-1.5781z"/>
</g>
<g id="e">
<path d="m1.8906-4.3594h1.5625v-0.34375h-1.5625v-2h-0.28125c0 0.89062-0.32812 2.0625-1.4062 2.0938v0.25h0.9375v3c0 1.3438 1.0156 1.4844 1.4062 1.4844 0.76562 0 1.0781-0.78125 1.0781-1.4844v-0.60938h-0.28125v0.59375c0 0.8125-0.32812 1.2188-0.71875 1.2188-0.73438 0-0.73438-0.98438-0.73438-1.1719z"/>
</g>
<g id="h">
<path d="m1.9375-4.8281-1.5312 0.125v0.34375c0.70312 0 0.79688 0.0625 0.79688 0.59375v2.9375c0 0.48438-0.10938 0.48438-0.84375 0.48438v0.34375c0.34375-0.015625 0.9375-0.03125 1.2031-0.03125 0.375 0 0.76562 0.015625 1.125 0.03125v-0.34375c-0.71875 0-0.75-0.046875-0.75-0.46875zm0.03125-1.8906c0-0.34375-0.26562-0.57812-0.57812-0.57812-0.32812 0-0.57812 0.29688-0.57812 0.57812 0 0.29688 0.25 0.57812 0.57812 0.57812 0.3125 0 0.57812-0.23438 0.57812-0.57812z"/>
</g>
<g id="b">
<path d="m1.2031-3.75v2.9219c0 0.48438-0.125 0.48438-0.85938 0.48438v0.34375c0.39062-0.015625 0.9375-0.03125 1.2344-0.03125 0.28125 0 0.85938 0.015625 1.2188 0.03125v-0.34375c-0.71875 0-0.84375 0-0.84375-0.48438v-2c0-1.1406 0.76562-1.75 1.4688-1.75 0.6875 0 0.8125 0.59375 0.8125 1.2031v2.5469c0 0.48438-0.125 0.48438-0.85938 0.48438v0.34375c0.39062-0.015625 0.9375-0.03125 1.2344-0.03125 0.28125 0 0.85938 0.015625 1.2188 0.03125v-0.34375c-0.5625 0-0.82812 0-0.84375-0.32812v-2.0781c0-0.9375 0-1.2812-0.34375-1.6719-0.14062-0.1875-0.5-0.40625-1.1406-0.40625-0.79688 0-1.3125 0.46875-1.6094 1.1562v-1.1562l-1.5469 0.125v0.34375c0.76562 0 0.85938 0.078125 0.85938 0.60938z"/>
</g>
<g id="z">
<path d="m6.3438-7.4219h-5.9844v0.34375h0.26562c0.84375 0 0.85938 0.125 0.85938 0.51562v5.7188c0 0.39062-0.015625 0.5-0.85938 0.5h-0.26562v0.34375c0.375-0.03125 1.2344-0.03125 1.6562-0.03125 0.45312 0 1.4375 0 1.8281 0.03125v-0.34375h-0.35938c-1.0312 0-1.0312-0.14062-1.0312-0.51562v-2.6875h0.9375c1.0469 0 1.1562 0.34375 1.1562 1.2812h0.28125v-2.8906h-0.28125c0 0.90625-0.10938 1.2812-1.1562 1.2812h-0.9375v-2.7656c0-0.35938 0.015625-0.4375 0.53125-0.4375h1.3125c1.6406 0 1.9062 0.60938 2.0781 2.1094h0.28125z"/>
</g>
<g id="p">
<path d="m1.8281-3.625v-1.2031l-1.5156 0.125v0.34375c0.75 0 0.84375 0.078125 0.84375 0.60938v2.9219c0 0.48438-0.125 0.48438-0.84375 0.48438v0.34375c0.42188-0.015625 0.9375-0.03125 1.2344-0.03125 0.4375 0 0.95312 0 1.3906 0.03125v-0.34375h-0.23438c-0.8125 0-0.82812-0.10938-0.82812-0.5v-1.6875c0-1.0781 0.45312-2.0469 1.2812-2.0469 0.078125 0 0.10938 0 0.125 0.015625-0.03125 0-0.25 0.14062-0.25 0.42188 0 0.29688 0.23438 0.46875 0.46875 0.46875 0.20312 0 0.46875-0.14062 0.46875-0.48438s-0.34375-0.67188-0.8125-0.67188c-0.79688 0-1.1875 0.73438-1.3281 1.2031z"/>
</g>
<g id="a">
<path d="m1.2188-2.75c0.0625-1.625 0.98438-1.8906 1.3594-1.8906 1.125 0 1.2344 1.4688 1.2344 1.8906zm-0.015625 0.23438h3.0469c0.25 0 0.28125 0 0.28125-0.23438 0-1.0781-0.59375-2.1406-1.9531-2.1406-1.2656 0-2.2656 1.125-2.2656 2.4844 0 1.4688 1.1406 2.5312 2.3906 2.5312 1.3281 0 1.8281-1.2188 1.8281-1.4219 0-0.10938-0.09375-0.125-0.14062-0.125-0.10938 0-0.125 0.0625-0.14062 0.14062-0.39062 1.125-1.375 1.125-1.4844 1.125-0.54688 0-0.98438-0.32812-1.2344-0.73438-0.32812-0.51562-0.32812-1.2344-0.32812-1.625z"/>
</g>
<g id="y">
<path d="m4.1406-0.67188v1.9531c0 0.5-0.10938 0.5-0.84375 0.5v0.32812c0.375 0 0.9375-0.03125 1.2188-0.03125 0.29688 0 0.84375 0.03125 1.2344 0.03125v-0.32812c-0.73438 0-0.85938 0-0.85938-0.5v-6.1094h-0.23438l-0.40625 1c-0.15625-0.3125-0.59375-1-1.4688-1-1.2656 0-2.4062 1.0625-2.4062 2.4844 0 1.3594 1.0469 2.4688 2.3125 2.4688 0.76562 0 1.2188-0.46875 1.4531-0.79688zm0.03125-2.3438v1.5312c0 0.34375-0.1875 0.65625-0.4375 0.92188-0.14062 0.14062-0.48438 0.4375-1 0.4375-0.79688 0-1.4531-0.96875-1.4531-2.2188 0-1.2969 0.76562-2.2031 1.5625-2.2031 0.875 0 1.3281 0.95312 1.3281 1.5312z"/>
</g>
<g id="o">
<path d="m4.25-4.375c0.10938-0.125 0.10938-0.14062 0.10938-0.1875 0-0.14062-0.09375-0.14062-0.29688-0.14062h-3.4844l-0.125 1.7656h0.28125c0.0625-1.125 0.26562-1.5156 1.4688-1.5156h1.25l-3.0469 4.1094c-0.09375 0.10938-0.09375 0.14062-0.09375 0.1875 0 0.15625 0.0625 0.15625 0.28125 0.15625h3.5938l0.1875-2.0469h-0.28125c-0.09375 1.2969-0.3125 1.7812-1.5781 1.7812h-1.2969z"/>
</g>
<g id="k">
<path d="m3.0156-2.0469v-0.625h-2.8906v0.625z"/>
</g>
<g id="x">
<path d="m2.4688-3.4531h1.8438c1.3125 0 2.5-0.875 2.5-1.9688 0-1.0625-1.0938-2.0312-2.5781-2.0312h-3.8594v0.34375h0.26562c0.84375 0 0.85938 0.125 0.85938 0.51562v5.75c0 0.39062-0.015625 0.5-0.85938 0.5h-0.26562v0.34375c0.39062-0.03125 1.2031-0.03125 1.6094-0.03125 0.42188 0 1.2344 0 1.6094 0.03125v-0.34375h-0.25c-0.84375 0-0.875-0.10938-0.875-0.5zm-0.03125-0.28125v-2.9375c0-0.35938 0.03125-0.4375 0.54688-0.4375h0.96875c1.7344 0 1.7344 1.1562 1.7344 1.6875 0 0.51562 0 1.6875-1.7344 1.6875z"/>
</g>
<g id="w">
<path d="m1.2031-0.82812c0 0.48438-0.125 0.48438-0.85938 0.48438v0.34375c0.39062-0.015625 0.9375-0.03125 1.2344-0.03125 0.28125 0 0.85938 0.015625 1.2188 0.03125v-0.34375c-0.71875 0-0.84375 0-0.84375-0.48438v-2c0-1.1406 0.76562-1.75 1.4688-1.75 0.6875 0 0.8125 0.59375 0.8125 1.2031v2.5469c0 0.48438-0.125 0.48438-0.85938 0.48438v0.34375c0.39062-0.015625 0.9375-0.03125 1.2344-0.03125 0.28125 0 0.85938 0.015625 1.2188 0.03125v-0.34375c-0.5625 0-0.82812 0-0.84375-0.32812v-2.0781c0-0.9375 0-1.2812-0.34375-1.6719-0.14062-0.1875-0.5-0.40625-1.1406-0.40625-0.92188 0-1.3906 0.65625-1.5781 1.0781v-3.8125l-1.5781 0.10938v0.34375c0.76562 0 0.85938 0.078125 0.85938 0.60938z"/>
</g>
<g id="n">
<path d="m2.2656-2.1094c0.25 0.03125 1.1406 0.21875 1.1406 1 0 0.54688-0.39062 0.98438-1.2344 0.98438-0.92188 0-1.3125-0.60938-1.5156-1.5469-0.03125-0.14062-0.046875-0.1875-0.15625-0.1875-0.14062 0-0.14062 0.078125-0.14062 0.28125v1.4375c0 0.1875 0 0.26562 0.125 0.26562 0.046875 0 0.0625-0.015625 0.26562-0.21875 0.03125-0.03125 0.03125-0.046875 0.21875-0.25 0.48438 0.45312 0.96875 0.46875 1.2031 0.46875 1.25 0 1.75-0.73438 1.75-1.5156 0-0.57812-0.32812-0.90625-0.45312-1.0469-0.35938-0.34375-0.78125-0.4375-1.25-0.51562-0.60938-0.125-1.3281-0.26562-1.3281-0.89062 0-0.39062 0.28125-0.82812 1.2188-0.82812 1.1875 0 1.25 0.96875 1.2656 1.3125 0.015625 0.09375 0.10938 0.09375 0.14062 0.09375 0.14062 0 0.14062-0.046875 0.14062-0.25v-1.1094c0-0.1875 0-0.26562-0.125-0.26562-0.046875 0-0.078125 0-0.21875 0.14062-0.03125 0.03125-0.14062 0.14062-0.1875 0.17188-0.40625-0.3125-0.85938-0.3125-1.0156-0.3125-1.3281 0-1.75 0.73438-1.75 1.3438 0 0.39062 0.17188 0.6875 0.46875 0.92188 0.34375 0.29688 0.65625 0.35938 1.4375 0.51562z"/>
</g>
<g id="v">
<path d="m2.4219-3.9844v-2.6875c0-0.35938 0.015625-0.4375 0.53125-0.4375h1.3594c1.0469 0 1.4375 0.92188 1.4375 1.5 0 0.70312-0.53125 1.625-1.75 1.625zm2.5781 0.09375c1.0469-0.20312 1.8125-0.90625 1.8125-1.7188 0-0.9375-1.0156-1.8438-2.4219-1.8438h-4v0.34375h0.26562c0.84375 0 0.85938 0.125 0.85938 0.51562v5.75c0 0.39062-0.015625 0.5-0.85938 0.5h-0.26562v0.34375h4.2812c1.4531 0 2.4219-0.96875 2.4219-2 0-0.9375-0.89062-1.7656-2.0938-1.8906zm-0.6875 3.5469h-1.3594c-0.51562 0-0.53125-0.078125-0.53125-0.4375v-2.9688h2.0469c1.0781 0 1.5469 1.0156 1.5469 1.75 0 0.76562-0.57812 1.6562-1.7031 1.6562z"/>
</g>
<g id="u">
<path d="m1.9062-4.7031v-1.2656c0-0.95312 0.53125-1.4844 1-1.4844 0.03125 0 0.20312 0 0.35938 0.078125-0.125 0.046875-0.32812 0.1875-0.32812 0.45312s0.1875 0.46875 0.46875 0.46875c0.32812 0 0.48438-0.20312 0.48438-0.46875 0-0.40625-0.40625-0.76562-0.98438-0.76562-0.75 0-1.6875 0.57812-1.6875 1.7344v1.25h-0.85938v0.34375h0.85938v3.5312c0 0.48438-0.125 0.48438-0.84375 0.48438v0.34375c0.42188-0.015625 0.9375-0.03125 1.2344-0.03125 0.4375 0 0.95312 0 1.3906 0.03125v-0.34375h-0.23438c-0.79688 0-0.82812-0.10938-0.82812-0.5v-3.5156h1.25v-0.34375z"/>
</g>
<g id="t">
<path d="m2.4219-1.875c-0.95312 0-0.95312-1.0938-0.95312-1.3438 0-0.29688 0.015625-0.64062 0.17188-0.92188 0.09375-0.125 0.34375-0.42188 0.78125-0.42188 0.95312 0 0.95312 1.0781 0.95312 1.3281 0 0.29688-0.015625 0.65625-0.17188 0.92188-0.09375 0.125-0.34375 0.4375-0.78125 0.4375zm-1.2656 0.42188c0-0.046875 0-0.29688 0.1875-0.51562 0.42188 0.3125 0.875 0.34375 1.0781 0.34375 1.0156 0 1.7656-0.75 1.7656-1.5938 0-0.40625-0.17188-0.8125-0.45312-1.0625 0.40625-0.35938 0.79688-0.42188 0.98438-0.42188 0.03125 0 0.078125 0 0.10938 0.015625-0.10938 0.046875-0.17188 0.15625-0.17188 0.29688 0 0.1875 0.14062 0.3125 0.3125 0.3125 0.10938 0 0.32812-0.078125 0.32812-0.32812 0-0.1875-0.14062-0.53125-0.5625-0.53125-0.21875 0-0.70312 0.0625-1.1562 0.51562-0.45312-0.35938-0.92188-0.40625-1.1562-0.40625-1.0156 0-1.7656 0.76562-1.7656 1.5938 0 0.48438 0.23438 0.90625 0.51562 1.125-0.14062 0.17188-0.34375 0.53125-0.34375 0.90625 0 0.34375 0.14062 0.75 0.48438 0.96875-0.65625 0.1875-1 0.65625-1 1.0938 0 0.78125 1.0781 1.3906 2.4062 1.3906 1.2812 0 2.4219-0.5625 2.4219-1.4062 0-0.39062-0.15625-0.9375-0.71875-1.25-0.57812-0.29688-1.2031-0.29688-1.875-0.29688-0.26562 0-0.73438 0-0.8125-0.015625-0.34375-0.046875-0.57812-0.375-0.57812-0.73438zm1.5625 3.4531c-1.0938 0-1.8438-0.5625-1.8438-1.1406 0-0.5 0.40625-0.90625 0.89062-0.9375h0.64062c0.9375 0 2.1562 0 2.1562 0.9375 0 0.59375-0.76562 1.1406-1.8438 1.1406z"/>
</g>
<g id="s">
<path d="m4.3438-7.5938c-0.0625-0.14062-0.078125-0.21875-0.25-0.21875s-0.21875 0.0625-0.26562 0.21875l-2.25 6.5312c-0.20312 0.54688-0.64062 0.71875-1.2344 0.71875v0.34375c0.25-0.015625 0.71875-0.03125 1.125-0.03125 0.32812 0 0.89062 0.015625 1.25 0.03125v-0.34375c-0.54688 0-0.82812-0.26562-0.82812-0.54688 0-0.03125 0.015625-0.14062 0.03125-0.17188l0.5-1.4219h2.6875l0.57812 1.6719c0.015625 0.03125 0.03125 0.10938 0.03125 0.14062 0 0.32812-0.60938 0.32812-0.89062 0.32812v0.34375c0.39062-0.03125 1.1562-0.03125 1.5625-0.03125 0.46875 0 0.96875 0.015625 1.4219 0.03125v-0.34375h-0.1875c-0.65625 0-0.8125-0.078125-0.92188-0.4375zm-0.57812 1.2188 1.2344 3.5469h-2.4531z"/>
</g>
<g id="r">
<path d="m1.2031-3.75v2.9219c0 0.48438-0.125 0.48438-0.85938 0.48438v0.34375c0.39062-0.015625 0.9375-0.03125 1.2344-0.03125 0.28125 0 0.85938 0.015625 1.2188 0.03125v-0.34375c-0.71875 0-0.84375 0-0.84375-0.48438v-2c0-1.1406 0.76562-1.75 1.4688-1.75 0.6875 0 0.8125 0.59375 0.8125 1.2031v2.5469c0 0.48438-0.125 0.48438-0.85938 0.48438v0.34375c0.39062-0.015625 0.9375-0.03125 1.2344-0.03125 0.28125 0 0.85938 0.015625 1.2188 0.03125v-0.34375c-0.71875 0-0.84375 0-0.84375-0.48438v-2c0-1.1406 0.78125-1.75 1.4688-1.75s0.8125 0.59375 0.8125 1.2031v2.5469c0 0.48438-0.125 0.48438-0.85938 0.48438v0.34375c0.39062-0.015625 0.9375-0.03125 1.2344-0.03125 0.28125 0 0.85938 0.015625 1.2188 0.03125v-0.34375c-0.5625 0-0.82812 0-0.84375-0.32812v-2.0781c0-0.9375 0-1.2812-0.34375-1.6719-0.14062-0.1875-0.5-0.40625-1.1406-0.40625-0.92188 0-1.3906 0.65625-1.5781 1.0781-0.15625-0.95312-0.96875-1.0781-1.4531-1.0781-0.79688 0-1.3125 0.46875-1.6094 1.1562v-1.1562l-1.5469 0.125v0.34375c0.76562 0 0.85938 0.078125 0.85938 0.60938z"/>
</g>
<g id="q">
<path d="m1.875-4.0938v-0.73438l-1.5625 0.125v0.34375c0.76562 0 0.84375 0.0625 0.84375 0.54688v5.0938c0 0.5-0.125 0.5-0.84375 0.5v0.32812c0.35938 0 0.9375-0.03125 1.2188-0.03125 0.29688 0 0.84375 0.03125 1.2344 0.03125v-0.32812c-0.73438 0-0.85938 0-0.85938-0.5v-1.9219c0.0625 0.17188 0.51562 0.76562 1.3438 0.76562 1.2969 0 2.4375-1.0781 2.4375-2.4844 0-1.375-1.0625-2.4688-2.2812-2.4688-0.85938 0-1.3125 0.48438-1.5312 0.73438zm0.03125 2.8438v-2.4219c0.3125-0.5625 0.85938-0.875 1.4062-0.875 0.79688 0 1.4688 0.95312 1.4688 2.1875 0 1.3281-0.76562 2.2344-1.5781 2.2344-0.4375 0-0.84375-0.21875-1.1406-0.65625-0.15625-0.23438-0.15625-0.25-0.15625-0.46875z"/>
</g>
</defs>
<path transform="matrix(.1 0 0 -.1 -.472 363.6)" d="m784.49 2983.4v496.13h354.38v-496.13h354.38v496.13h708.75v-496.13h708.75v496.13h708.75v-496.13" fill="none" stroke="#000" stroke-miterlimit="10" stroke-width="18.9"/>
<path transform="matrix(.1 0 0 -.1 -.472 363.6)" d="m784.49 3479.5v-3472.9" fill="none" stroke="#000" stroke-dasharray="47.25" stroke-miterlimit="10" stroke-width="4.725"/>
<path transform="matrix(.1 0 0 -.1 -.472 363.6)" d="m1847.6 3479.5v-3472.9" fill="none" stroke="#000" stroke-dasharray="47.25" stroke-miterlimit="10" stroke-width="4.725"/>
<path transform="matrix(.1 0 0 -.1 -.472 363.6)" d="m3265.1 3479.5v-3472.9" fill="none" stroke="#000" stroke-dasharray="47.25" stroke-miterlimit="10" stroke-width="4.725"/>
<path transform="matrix(.1 0 0 -.1 -.472 363.6)" d="m3619.5 3479.5v-3472.9" fill="none" stroke="#000" stroke-dasharray="47.25" stroke-miterlimit="10" stroke-width="4.725"/>
<path transform="matrix(.1 0 0 -.1 -.472 363.6)" d="m786.4 2345.5v1.2891l0.3125 2.5 0.625 4.7266 0.625 6.9141 1.25 9.8047 1.2891 11.953 1.5625 14.18 1.875 15.742 1.9141 16.68 2.1875 17.344 1.875 17.031 2.2266 16.68 1.875 15.742 2.2266 14.492 1.875 13.555 1.5625 11.953 1.9141 10.391 1.5625 9.1406 1.5625 7.5781 1.2891 6.2891 1.5625 5.0391 1.25 3.7891 1.6016 2.8125 1.25 1.2891 1.5625 0.625 1.25-0.3125 1.2891-1.2891 1.25-2.1875 1.25-2.8516 1.2891-3.4375 1.5625-4.4141 1.25-5.3516 1.5625-6.3281 1.6016-6.9141 1.5625-7.5391 1.5625-8.5156 1.6016-9.1406 1.5625-10.078 1.5625-10.391 1.6016-11.055 1.5625-11.641 1.5625-11.953 1.6016-12.305 1.5625-12.578 1.5625-12.93 1.6016-13.242 1.5625-12.891 1.5625-13.555 1.6016-13.242 1.5625-13.555 1.25-13.516 1.5625-13.555 1.6016-13.555 0.9375-10.703 1.25-10.703 0.9375-11.016 1.2891-11.055 1.25-10.703 1.25-11.328 1.25-11.016 1.2891-11.055 1.25-10.703 1.25-11.016 1.25-10.703 1.6016-10.391 1.25-10.078 1.5625-10.078 1.6016-9.4531 1.25-8.8281 1.5625-8.8281 1.6016-7.8516 1.5625-7.5781 1.5625-6.6016 1.5625-5.9766 1.6016-5.3906 1.5625-4.7266 1.5625-3.75 1.6016-2.8516 1.875-1.875 1.5625-1.2891h1.6016l1.5625 0.66406 1.5625 1.5625 1.9141 2.5 1.5625 3.4766 1.5625 4.7266 1.6016 5.3516 1.875 6.6016 1.5625 7.5781 1.9141 8.8281 1.875 9.7656 1.6016 11.016 1.875 11.641 1.875 12.93 2.2266 13.555 1.875 14.492 2.2266 15.117 1.875 16.055 2.1875 16.68 2.2266 17.344 2.5 17.656 2.2266 17.93 2.1875 17.969 2.5391 18.594 2.5 18.242 2.5391 18.281 2.5 17.969 2.5391 17.617 2.5 17.344 2.5391 16.367 2.5 16.055 2.5391 14.805 2.5 14.18 2.2266 13.242 2.5 11.953 2.5391 11.055 2.5 9.7656 2.2266 8.1641 2.5 7.2656 2.2266 5.3516 2.5 4.4141 2.2266 2.5 2.1875 1.25 2.5391-0.625 2.1875-2.1875 2.2266-3.4766 1.875-5.0391 2.1875-6.2891 2.2266-7.8906 2.1875-9.1016 2.2266-10.43 2.5-11.641 2.2266-12.578 2.1875-13.906 2.5391-14.766 2.1875-15.781 2.5391-16.68 2.5-17.344 2.2266-17.617 2.5-18.594 2.5391-18.594 2.5-19.18 2.5391-19.219 2.5-19.219 2.5391-18.906 2.5-18.906 2.5391-18.594 2.5-17.93 2.5391-17.656 2.1875-16.68 2.5391-15.781 2.5-14.805 2.2266-14.18 2.5-12.578 2.2266-11.641 2.1875-10.43 2.5391-9.1406 2.1875-7.8516 2.2266-5.9766 2.1875-5.0391 2.1875-3.1641 1.9141-1.5625h2.1875l2.2266 1.5625 2.1875 3.4766 2.2266 5.0391 2.1875 6.2891 2.1875 8.2031 2.2266 9.1406 2.1875 10.703 2.2266 12.266 2.5 13.242 2.2266 14.18 2.5 15.43 2.2266 16.367 2.5 17.344 2.5391 17.93 2.5 18.594 2.5391 18.906 2.5 19.531 2.5391 19.844 2.5 19.844 2.5391 19.844 2.5 19.531 2.2266 19.219 2.5 18.906 2.5391 18.594 2.5 17.617 2.5391 17.031 2.1875 15.742 2.5391 15.117 2.5 13.867 2.2266 12.578 2.1875 11.68 2.2266 10.078 2.1875 8.8281 2.2266 7.2266 2.1875 5.6641 2.1875 4.1016 2.2266 2.8516 2.1875 0.625 2.2266-0.625 2.1875-2.8516 2.2266-4.1016 2.1875-5.6641 2.1875-7.2266 2.2266-8.8281 2.1875-10.078 2.2266-11.328 2.1875-12.617 2.5391-13.867 2.5391-15.117 2.1875-15.742 2.5-16.719 2.5391-17.617 2.5-18.281 2.5391-18.906 2.1875-18.906 2.5391-19.531 2.8125-19.531 2.5391-19.531 2.5-19.492 2.2266-18.906 2.5391-18.906 2.5-18.281 2.5391-17.617 2.5-16.719 2.1875-15.742 2.5391-15.117 2.5-13.867 2.2266-12.578 2.1875-11.367 2.2266-10.078 2.1875-8.8281 2.2266-7.2266 2.1875-5.6641 2.1875-4.1016 2.2266-2.8516 2.1875-0.625 2.2266 0.625 2.1875 2.8516 2.2266 4.1016 2.1875 5.6641 2.2266 7.2266 2.1875 8.8281 2.2266 10.078 2.1875 11.367 2.2266 12.578 2.5 13.867 2.5391 15.117 2.1875 15.742 2.5 16.719 2.5391 17.617 2.5391 18.281 2.5 18.906 2.1875 18.906 2.5391 19.492 2.8516 19.531 5 39.062 2.2266 18.906 2.5391 18.906 2.5 18.281 2.5391 17.617 2.5 16.719 2.2266 15.742 2.5 15.117 2.5391 13.867 2.1875 12.617 2.2266 11.328 2.1875 10.078 2.1875 8.8281 2.2266 7.2266 2.1875 5.6641 2.2266 4.1016 2.1875 2.8516 2.2266 0.625 2.1875-0.625 2.1875-2.8516 2.2266-4.1016 2.1875-5.6641 2.2266-7.2266 2.1875-8.8281 2.2266-10.078 2.1875-11.328 2.2266-12.617 2.5-13.867 2.5391-15.117 2.1875-15.742 2.5391-16.719 2.5-17.617 2.5391-18.281 2.5-18.906 2.1875-18.906 2.5391-19.531 2.8516-19.531 2.5-19.531 2.5391-19.492 2.1875-18.906 2.5391-18.906 2.5-18.281 2.5391-17.617 2.5-16.719 2.2266-15.742 2.5-15.117 2.5391-13.867 2.1875-12.578 2.2266-11.367 2.1875-10.078 2.1875-8.8281 2.2266-7.2266 2.1875-5.6641 2.2266-4.1016 2.1875-2.8516 2.2266-0.625 2.1875 0.625 2.1875 2.8516 2.2266 4.1016 2.1875 5.6641 2.2266 7.2266 2.1875 8.8281 2.2266 10.078 2.1875 11.367 2.2266 12.578 2.5 13.867 2.5391 15.117 2.1875 15.742 2.5391 16.719 2.5 17.617 2.5391 18.281 2.5 18.906 2.2266 18.906 2.5 19.492 2.8516 19.531 2.5 19.531 2.5391 19.531 2.1875 18.906 2.5391 18.906 2.5 18.281 2.5391 17.617 2.5 16.719 2.2266 15.742 2.5 15.117 2.5391 13.867 2.1875 12.617 2.2266 11.328 2.1875 10.078 2.1875 8.8281 2.2266 7.2266 2.1875 5.6641 2.2266 4.1016 2.1875 2.8516 2.2266 0.625 2.1875-0.625 2.2266-2.8516 2.1875-4.1016 2.2266-5.6641 2.1875-7.2266 2.2266-8.8281 2.1875-10.078 2.1875-11.328 2.2266-12.617 2.5-13.867 2.5391-15.117 2.1875-15.742 2.5391-16.719 2.5-17.617 2.5391-18.281 2.5-18.906 2.2266-18.906 2.5-19.531 2.5391-19.531 2.5-19.531 2.5391-19.492 2.5-18.906 2.5391-18.906 2.5-18.281 2.5391-17.617 2.5391-16.719 2.1875-15.742 2.5-15.117 2.2266-13.867 2.5-12.578 2.2266-11.367 2.1875-10.078 2.2266-8.8281 2.1875-7.2266 2.2266-5.6641 2.1875-4.1016 2.1875-2.8516 2.2266-0.625 2.1875 0.625 1.9141 2.8516 2.1875 4.1016 2.2266 5.6641 2.1875 7.2266 2.2266 8.8281 2.5 10.078 2.1875 11.367 2.2266 12.578 2.5 13.867 2.2266 15.117 2.5391 15.742 2.5 16.719 2.1875 17.617 2.5391 18.281 2.5 18.906 2.5391 18.906 2.5 19.492 2.5391 19.531 2.5 19.531 2.5391 19.531 2.5 18.906 2.5391 18.906 2.5391 18.281 2.1875 17.617 2.5 16.719 2.5391 15.742 2.1875 15.117 2.5391 13.867 2.1875 12.617 2.2266 11.328 2.5 10.078 2.2266 8.8281 2.1875 7.2266 2.2266 5.6641 2.1875 4.1016 1.9141 2.8516 2.1875 0.625 2.1875-0.625 2.2266-2.8516 2.1875-4.1016 2.2266-5.6641 2.1875-7.2266 2.2266-8.8281 2.1875-10.078 2.2266-11.328 2.5-12.617 2.2266-13.867 2.5-15.117 2.1875-15.742 2.5391-16.719 2.5-17.617 2.5391-18.281 2.5391-18.906 2.5-18.906 2.5391-19.531 5-39.062 2.5391-19.492 2.2266-18.906 2.5-18.906 2.5391-18.281 2.5-17.617 2.5391-16.719 2.1875-15.742 2.5391-15.117 2.5-13.867 2.2266-12.578 2.1875-11.367 2.1875-10.078 2.2266-8.8281 2.1875-7.2266 2.2266-5.6641 2.1875-4.1016 2.2266-2.8516 2.1875-0.625 2.2266 0.625 2.1875 2.8516 2.2266 4.1016 2.1875 5.6641 2.1875 7.2266 2.2266 8.8281 2.1875 10.078 2.2266 11.367 2.1875 12.578 2.5391 13.867 2.5 15.117 2.2266 15.742 2.5 16.719 2.5391 17.617 2.5 18.281 2.5391 18.906 2.1875 18.906 2.5 19.492 2.8516 19.531 2.5391 19.531 2.5 19.531 2.2266 18.906 2.5 18.906 2.5391 18.281 2.5 17.617 2.5391 16.719 2.1875 15.742 2.5391 15.117 2.5 13.867 2.1875 12.617 2.2266 11.328 2.1875 10.078 2.2266 8.8281 2.1875 7.2266 2.2266 5.6641 2.1875 4.1016 2.2266 2.8516 2.1875 0.625 2.2266-0.625 2.1875-2.8516 2.2266-4.1016 2.1875-5.6641 2.1875-7.2266 2.2266-8.8281 2.1875-10.078 2.2266-11.328 2.1875-12.617 2.5391-13.867 2.5-15.117 2.2266-15.742 2.5-16.719 2.5391-17.617 2.5-18.281 2.5391-18.906 2.1875-18.906 2.5391-19.531 2.8125-19.531 2.5391-19.531 2.5-19.492 2.2266-18.906 2.5-18.906 2.5391-18.281 2.5-17.617 2.5391-16.719 2.1875-15.742 2.5391-15.117 2.5-13.867 2.2266-12.578 2.1875-11.367 2.2266-10.078 2.1875-8.8281 2.2266-7.2266 2.1875-5.6641 2.1875-4.1016 2.2266-2.8516 2.1875-0.625 2.2266 0.625 2.1875 2.8516 2.2266 4.1016 2.1875 5.6641 2.2266 7.2266 2.1875 8.8281 2.2266 10.078 2.1875 11.367 2.1875 12.578 2.5391 13.867 2.5 15.117 2.2266 15.742 2.5 16.719 2.5391 17.617 2.5 18.281 2.5391 18.906 2.1875 18.906 2.5391 19.492 2.8125 19.531 2.5391 19.531 2.5 19.531 2.2266 18.906 2.5 18.906 2.5391 18.281 2.5 17.617 2.5391 16.719 2.1875 15.742 2.5391 15.117 2.5 13.867 2.2266 12.617 2.1875 11.328 2.2266 10.078 2.1875 8.8281 2.2266 7.2266 2.1875 5.6641 2.2266 4.1016 2.1875 2.8516 2.2266 0.625 2.1875-0.625 2.1875-2.8516 2.2266-4.1016 2.1875-5.6641 2.2266-7.2266 2.1875-8.8281 2.2266-10.078 2.1875-11.328 2.1875-12.617 2.5391-13.867 2.5-15.117 2.2266-15.742 2.5391-16.719 2.5-17.617 2.5391-18.281 2.5-18.906 2.1875-18.906 2.5391-19.531 2.5-19.531 2.5391-19.531 2.5-19.492 2.5391-18.906 2.5-18.906 2.5391-18.281 2.5391-17.617 2.5-16.719 2.1875-15.742 2.5391-15.117 2.1875-13.867 2.5391-12.578 2.1875-11.367 2.2266-10.078 2.1875-8.8281 2.2266-7.2266 2.1875-5.6641 2.2266-4.1016 2.1875-2.8516 2.2266-0.625 2.1875 0.625 1.875 2.8516 2.2266 4.1016 2.1875 5.6641 2.2266 7.2266 2.1875 8.8281 2.5391 10.078 2.1875 11.367 2.2266 12.578 2.5 13.867 2.2266 15.117 2.5 15.742 2.5391 16.719 2.1875 17.617 2.5 18.281 5.0781 37.812 2.5 19.492 2.5391 19.531 5 39.062 2.5391 18.906 2.5 18.906 2.5391 18.281 2.2266 17.617 2.5 16.719 2.5391 15.742 2.1875 15.117 2.5391 13.867 2.1875 12.617 2.2266 11.328 2.5 10.078 2.1875 8.8281 2.2266 7.2266 2.1875 5.6641 2.2266 4.1016 1.875 2.8516 2.2266 0.625 2.1875-0.625 2.1875-2.8516 2.2266-4.1016 2.1875-5.6641 2.2266-7.2266 2.1875-8.8281 2.2266-10.078 2.1875-11.328 2.5391-12.617 2.1875-13.867 2.5391-15.117 2.1875-15.742 2.5391-16.719 2.5-17.617 2.5391-18.281 2.5-18.906 2.5391-18.906 2.5-19.531 2.5391-19.531 2.5-19.531 2.5391-19.492 2.1875-18.906 2.5391-18.906 2.5-18.281 2.5391-17.617 2.5-16.719 2.2266-15.742 2.5-15.117 2.5391-13.867 2.1875-12.578 2.2266-11.367 2.1875-10.078 2.1875-8.8281 2.2266-7.2266 2.1875-5.6641 2.2266-4.1016 2.1875-2.8516 2.2266-0.625 2.1875 0.625 2.1875 2.8516 2.2266 4.1016 2.1875 5.6641 2.2266 7.2266 2.1875 8.8281 2.2266 10.078 2.1875 11.367 2.2266 12.578 2.5 13.867 2.5391 15.117 2.1875 15.742 2.5391 16.719 2.5 17.617 2.5391 18.281 2.5 18.906 2.2266 18.906 2.5 19.492 2.8516 19.531 2.5 19.531 2.5391 19.531 2.1875 18.906 2.5391 18.906 2.5 18.281 2.5391 17.617 2.5 16.719 2.2266 15.742 2.5 15.117 2.5391 13.867 2.1875 12.617 2.2266 11.328 2.1875 10.078 2.2266 8.8281 2.1875 7.2266 2.2266 5.6641 2.1875 4.1016 2.1875 2.8516 2.2266 0.625 2.1875-0.625 2.2266-2.8516 2.1875-4.1016 2.2266-5.6641 2.1875-7.2266 2.1875-8.8281 2.2266-10.078 2.1875-11.328 2.2266-12.617 2.5-13.867 2.5391-15.117 2.1875-15.742 2.5391-16.719 2.5-17.617 2.5391-18.281 2.5-18.906 2.2266-18.906 2.5-19.531 2.8516-19.531 2.5-19.531 2.5391-19.492 2.1875-18.906 2.5391-18.906 2.5-18.281 2.5391-17.617 2.5391-16.719 2.1875-15.742 2.5-15.117 2.5391-13.867 2.1875-12.578 2.2266-11.367 2.1875-10.078 2.2266-8.8281 2.1875-7.2266 2.2266-5.6641 2.1875-4.1016 2.1875-2.8516 2.2266-0.625 2.1875 0.625 2.2266 2.8516 2.1875 4.1016 2.2266 5.6641 2.1875 7.2266 2.1875 8.8281 2.2266 10.078 2.1875 11.367 2.2266 12.578 2.5 13.867 2.5391 15.117 2.2266 15.742 2.5 16.719 2.5391 17.617 2.5 18.281 2.5 18.906 2.2266 18.906 2.5 19.492 2.8516 19.531 2.5391 19.531 2.5 19.531 2.1875 18.906 2.5391 18.906 2.5391 18.281 2.5 17.617 2.5391 16.719 2.1875 15.742 2.5 15.117 2.5391 13.867 2.1875 12.617 2.2266 11.328 2.1875 10.078 2.2266 8.8281 2.1875 7.2266 2.2266 5.6641 2.1875 4.1016 2.1875 2.8516 2.2266 0.625 2.1875-0.625 2.2266-2.8516 2.1875-4.1016 2.2266-5.6641 2.1875-7.2266 2.2266-8.8281 2.1875-10.078 2.2266-11.328 2.1875-12.617 2.5-13.867 2.5391-15.117 2.2266-15.742 2.5-16.719 2.5391-17.617 2.5-18.281 2.5391-18.906 2.1875-18.906 2.5391-19.531 2.8125-19.531 2.5391-19.531 2.5-19.492 2.1875-18.906 2.5391-18.906 2.5391-18.281 2.5-17.617 2.5391-16.719 2.1875-15.742 2.5391-15.117 2.5-13.867 2.2266-12.578 2.1875-11.367 2.2266-10.078 2.1875-8.8281 2.1875-7.2266 2.2266-5.6641 2.1875-4.1016 2.2266-2.8516 2.1875-0.625 2.2266 0.625 2.1875 2.8516 2.1875 4.1016 2.2266 5.6641 2.1875 7.2266 2.2266 8.8281 2.1875 10.078 2.2266 11.367 2.1875 12.578 2.5391 13.867 2.5 15.117 2.2266 15.742 2.5 16.719 2.5391 17.617 2.5 18.281 2.5391 18.906 2.1875 18.906 2.5391 19.492 2.5 19.531 2.5391 19.531 2.5 19.531 2.5391 18.906 2.5 18.906 2.5391 18.281 2.5 17.617 2.5391 16.719 2.1875 15.742 2.5391 15.117 2.1875 13.867 2.5391 12.617 2.1875 11.328 2.2266 10.078 2.1875 8.8281 2.1875 7.2266 2.2266 5.6641 2.1875 4.1016 2.2266 2.8516 2.1875 0.625 2.2266-0.625 1.875-2.8516 2.2266-4.1016 2.1875-5.6641 2.1875-7.2266 2.2266-8.8281 2.5-10.078 2.2266-11.328 2.1875-12.617 2.5391-13.867 2.1875-15.117 2.5391-15.742 2.5-16.719 2.2266-17.617 2.5-18.281 2.5391-18.906 2.5-18.906 2.5391-19.531 2.5-19.531 2.5391-19.531 2.5-19.492 2.5391-18.906 2.5-18.906 2.5391-18.281 2.1875-17.617 2.5391-16.719 2.5-15.742 2.2266-15.117 2.5-13.867 2.2266-12.578 2.1875-11.367 2.5391-10.078 2.1875-8.8281 2.1875-7.2266 2.2266-5.6641 2.1875-4.1016 1.9141-2.8516 2.1875-0.625 2.2266 0.625 2.1875 2.8516 2.2266 4.1016 2.1875 5.6641 2.2266 7.2266 2.1875 8.8281 2.2266 10.078 2.1875 11.367 2.5 12.578 2.2266 13.867 2.5 15.117 2.2266 15.742 2.5 16.719 2.5391 17.617 2.5 18.281 2.5391 18.906 2.5 18.906 2.5391 19.492 2.5 19.531 2.5391 19.531 2.5 19.531 2.2266 18.906 2.5 18.906 2.5391 18.281 2.5 17.617 2.5391 16.719 2.1875 15.742 2.5391 15.117 2.5 13.867 2.2266 12.617 2.1875 11.328 2.2266 10.078 2.1875 8.8281 2.2266 7.2266 2.1875 5.6641 2.2266 4.1016 2.1875 2.8516 2.2266 0.625 2.1875-0.625 2.1875-2.8516 2.2266-4.1016 2.1875-5.6641 2.2266-7.2266 2.1875-8.8281 2.2266-10.078 2.1875-11.328 2.1875-12.617 2.5391-13.867 2.5-15.117 2.2266-15.742 2.5391-16.719 2.5-17.617 2.5391-18.281 2.5-18.906 2.1875-18.906 2.5391-19.531 2.8125-19.531 2.5391-19.531 2.5391-19.492 2.1875-18.906 2.5-18.906 2.5391-18.281 2.5391-17.617 2.5-16.719 2.1875-15.742 2.5391-15.117 2.5-13.867 2.2266-12.578 2.1875-11.367 2.2266-10.078 2.1875-8.8281 2.2266-7.2266 2.1875-5.6641 2.2266-4.1016 2.1875-2.8516 2.2266-0.625 2.1875 0.625 2.1875 2.8516 2.2266 4.1016 2.1875 5.6641 2.2266 7.2266 2.1875 8.8281 2.2266 10.078 2.1875 11.367 2.2266 12.578 2.5 13.867 2.5 15.117 2.2266 15.742 2.5391 16.719 2.5 17.617 2.5391 18.281 2.5 18.906 2.2266 18.906 2.5 19.492 2.8516 19.531 2.5 19.531 2.5391 19.531 2.1875 18.906 2.5 18.906 2.5391 18.281 2.5391 17.617 2.5 16.719 2.2266 15.742 2.5 15.117 2.5391 13.867 2.1875 12.617 2.2266 11.328 2.1875 10.078 2.1875 8.8281 2.2266 7.2266 2.1875 5.6641 2.2266 4.1016 2.1875 2.8516 2.2266 0.625 2.1875-0.625 2.2266-2.8516 2.1875-4.1016 2.2266-5.6641 2.1875-7.2266 2.1875-8.8281 2.2266-10.078 2.1875-11.328 2.2266-12.617 2.5-13.867 2.5391-15.117 2.1875-15.742 2.5391-16.719 2.5-17.617 2.5391-18.281 2.5-18.906 2.2266-18.906 2.5-19.531 2.8516-19.531 2.5-19.531 2.5391-19.492 2.1875-18.906 2.5391-18.906 2.5-18.281 2.5391-17.617 2.5-16.719 2.2266-15.742 2.5-15.117 2.5391-13.867 2.1875-12.578 2.2266-11.367 2.1875-10.078 2.1875-8.8281 2.2266-7.2266 2.1875-5.6641 2.2266-4.1016 2.1875-2.8516 2.2266-0.625 2.1875 0.625 2.2266 2.8516 2.1875 4.1016 2.2266 5.6641 2.1875 7.2266 2.1875 8.8281 2.2266 10.078 2.1875 11.367 2.2266 12.578 2.5 13.867 2.5391 15.117 2.1875 15.742 2.5391 16.719 2.5 17.617 2.5391 18.281 2.5 18.906 2.2266 18.906 2.5 19.492 2.8516 19.531 2.5 19.531 2.5391 19.531 2.1875 18.906 2.5391 18.906 2.5 18.281 2.5391 17.617 2.5 16.719 2.2266 15.742 2.5 15.117 2.5391 13.867 2.1875 12.617 2.2266 11.328 2.1875 10.078 2.2266 8.8281 2.1875 7.2266 2.2266 5.6641 2.1875 4.1016 2.1875 2.8516 2.2266 0.625 2.1875-0.625 2.2266-2.8516 2.1875-4.1016 2.2266-5.6641 2.1875-7.2266 2.2266-8.8281 2.1875-10.078 2.2266-11.68 2.1875-12.578 2.5-13.867 2.5391-15.117 2.1875-15.742 2.5391-17.031 2.5-17.617 2.5391-18.594 2.5391-18.906 2.1875-19.219 2.5-19.531 2.5391-19.844 2.5-19.844 2.5391-19.844 2.5-19.531 2.5391-18.906 2.5-18.594 2.5391-17.93 2.5-17.344 2.2266-16.367 2.5391-15.43 2.1875-14.18 2.5-13.242 2.2266-12.266 2.1875-10.703 2.2266-9.1406 2.1875-8.2031 2.2266-6.2891 2.1875-5.0391 2.2266-3.4766 2.1875-1.5625h2.2266l1.875 1.5625 2.1875 3.1641 2.2266 5.0391 2.1875 5.9766 2.1875 7.8516 2.5391 9.1406 2.2266 10.43 2.1875 11.641 2.5391 12.578 2.1875 14.18 2.5 14.805 2.5391 15.781 2.2266 16.68 2.5 17.656 2.5391 17.93 2.5 18.594 2.5 18.906 2.5391 18.906 2.5 19.219 2.5391 19.219 2.5391 19.18 2.5 18.594 2.5391 18.594 2.1875 17.617 2.5391 17.344 2.5 16.68 2.1875 15.781 2.5391 14.766 2.1875 13.906 2.2266 12.578 2.5 11.641 2.2266 10.43 2.1875 9.1016 2.2266 7.8906 2.1875 6.2891 1.875 5.0391 2.2266 3.4766 2.1875 2.1875 2.5391 0.625 2.1875-1.25 2.2266-2.5 2.5-4.4141 2.2266-5.3516 2.5-7.2656 2.2266-8.1641 2.5-9.7656 2.5391-11.055 2.1875-11.953 2.5391-13.242 2.5-14.18 2.5391-14.805 2.5-16.055 2.5391-16.367 2.5-17.344 2.5391-17.617 2.1875-17.969 2.5391-18.281 2.5-18.242 2.2266-18.594 2.1875-17.969 2.5391-17.93 2.1875-17.656 1.9141-17.344 2.1875-16.68 1.875-16.055 2.2266-15.117 1.875-14.492 1.9141-13.555 1.5625-12.93 1.875-11.641 1.6016-11.016 1.875-9.7656 1.5625-8.8281 2.2266-10.078 1.875-7.8906 2.2266-5.6641 1.875-3.4766 1.875-0.625 2.2266 1.2891 1.875 4.0625 2.2266 6.3281 1.875 8.8281 2.2266 11.016 2.1875 13.555 2.5391 15.43 2.1875 17.617 2.1875 18.906 2.5391 20.156 2.1875 20.469 2.2266 20.156 1.875 19.531 1.5625 17.344 1.6016 15.117 0.9375 11.992 0.9375 9.1016 0.625 5.9766 0.3125 3.1641v1.5625" fill="none" stroke="#000" stroke-linecap="round" stroke-linejoin="bevel" stroke-miterlimit="10" stroke-width="18.9"/>
<path transform="matrix(.1 0 0 -.1 -.472 363.6)" d="m784.49 1424.1v1.2891l0.3125 2.5 0.66406 4.7266 0.625 6.9141 1.25 9.7656 1.25 11.992 1.6016 13.867 1.5625 15.742 1.875 16.68 1.9141 17.031 2.1875 16.992 1.875 16.719 1.9141 15.742 1.875 14.492 1.6016 13.203 1.5625 11.992 1.5625 10.391 1.5625 9.1406 1.2891 7.5391 1.25 6.2891 1.25 5.0391 1.25 3.7891 0.97656 2.5391 1.25 1.5625 0.9375 0.625 0.9375-0.625 0.97656-0.9375 0.9375-2.1875 0.9375-2.8516 0.9375-3.4766 0.9375-4.4141 0.9375-5.3516 0.97656-6.2891 0.9375-6.6016 1.25-7.8906 0.9375-8.2031 0.97656-9.1016 0.9375-10.117 1.25-10.391 0.9375-10.703 0.9375-11.641 0.97656-11.992 0.9375-12.266 1.25-12.305 0.9375-12.891 0.9375-12.93 0.97656-13.242 0.9375-12.891 0.9375-13.242 0.9375-13.555 0.9375-13.203 0.97656-13.555 0.9375-13.242 0.9375-10.703 0.625-10.703 0.9375-10.703 0.625-10.742 0.97656-11.016 0.625-10.703 0.9375-11.016 0.9375-10.703 0.9375-10.742 0.9375-10.703 0.97656-10.703 1.875-20.156 0.9375-9.7656 1.25-9.4531 0.97656-8.8281 1.25-8.4766 0.9375-7.8906 1.25-7.2266 0.97656-6.6406 1.25-5.6641 0.9375-5.3516 1.25-4.4141 1.2891-3.7891 0.9375-2.5 1.25-2.2266 1.25-0.9375h1.25l0.97656 0.625 1.25 1.6016 1.25 2.8125 0.9375 3.4766 1.2891 4.4141 1.25 5.6641 1.25 6.6016 0.9375 7.5781 1.2891 8.5156 1.25 9.7266 1.25 10.742 1.25 11.641 1.2891 12.617 1.5625 13.555 1.25 14.453 1.25 15.117 1.6016 16.094 1.5625 16.367 1.25 17.031 1.6016 17.305 1.5625 17.969 1.5625 17.93 1.6016 18.281 1.875 18.281 1.5625 17.93 1.6016 17.969 1.875 17.344 1.5625 16.992 1.6016 16.719 1.875 15.742 1.5625 14.805 1.6016 14.18 1.5625 12.891 1.875 11.992 1.6016 10.703 1.5625 9.7656 1.5625 8.1641 1.6016 7.2656 1.5625 5.3516 1.5625 4.4141 1.6016 2.5 1.5625 1.2891 1.25-0.66406 1.6016-1.875 1.5625-3.4766 1.25-5.0391 1.5625-6.2891 1.2891-7.5391 1.5625-8.8281 1.5625-10.391 1.6016-11.367 1.25-12.578 1.5625-13.555 1.6016-14.492 1.5625-15.43 1.5625-16.367 1.5625-17.031 1.9141-17.656 1.5625-17.93 1.6016-18.594 1.5625-18.594 1.875-18.867 1.6016-18.906 1.5625-18.906 1.875-18.594 1.6016-18.281 1.5625-17.617 1.5625-17.344 1.9141-16.367 1.5625-15.742 1.5625-14.492 1.6016-13.867 1.5625-12.617 1.5625-11.328 1.25-10.391 1.6016-8.8281 1.5625-7.5391 1.5625-6.2891 1.2891-4.7656 1.5625-3.125 1.25-1.6016h1.6016l1.25 1.9141 1.5625 3.1641 1.25 5.0391 1.6016 6.2891 1.5625 7.8516 1.25 9.1406 1.5625 10.742 1.6016 11.641 1.5625 13.242 1.6016 14.141 1.5625 15.156 1.5625 16.055 1.6016 16.992 1.5625 17.656 1.5625 18.242 1.9141 18.906 3.125 38.438 1.875 19.531 1.6016 19.531 1.5625 19.531 1.6016 18.906 1.875 18.594 1.5625 17.93 1.6016 17.344 1.5625 16.68 1.5625 15.742 1.6016 14.844 1.5625 13.516 1.5625 12.305 1.5625 11.328 1.6016 9.7656 1.25 8.5156 1.5625 7.2266 1.6016 5.3516 1.25 4.1016 1.5625 2.5391 1.2891 0.625 1.5625-0.9375 1.25-2.8516 1.5625-4.1016 1.2891-5.9766 1.5625-7.2266 1.5625-8.8281 1.6016-10.117 1.25-11.641 1.5625-12.578 1.6016-13.867 1.5625-14.805 1.5625-16.055 1.6016-16.719 1.875-17.656 1.5625-17.93 1.6016-18.906 1.5625-18.906 1.875-19.531 1.6016-19.531 1.5625-19.18 1.875-19.531 1.6016-18.906 1.5625-18.906 1.5625-17.969 1.9141-17.617 1.5625-16.719 1.5625-15.742 1.6016-14.805 1.5625-13.867 1.5625-12.578 1.2891-11.367 1.5625-10.078 1.5625-8.8281 1.5625-6.9141 1.2891-5.9766 1.5625-4.1016 1.25-2.5391 1.6016-0.9375 1.25 0.9375 1.5625 2.5391 1.25 4.1016 1.6016 5.9766 1.5625 6.9141 1.25 8.8281 1.6016 10.078 1.5625 11.367 1.5625 12.578 1.5625 13.867 1.6016 14.805 1.5625 15.742 1.6016 16.719 1.5625 17.305 1.5625 18.281 1.9141 18.594 1.5625 18.867 1.5625 19.531 1.9141 19.531 1.5625 19.219 1.5625 19.531 1.6016 18.906 1.875 18.594 1.5625 18.281 1.6016 17.305 1.5625 16.68 1.5625 15.781 1.6016 14.805 1.5625 13.867 1.5625 12.578 1.5625 11.328 1.6016 10.078 1.25 8.8281 1.5625 6.9141 1.6016 6.0156 1.25 4.1016 1.5625 2.5 1.2891 0.9375 1.5625-0.9375 1.25-2.5 1.6016-4.1016 1.25-6.0156 1.5625-6.9141 1.5625-8.8281 1.6016-10.078 1.25-11.328 1.5625-12.578 1.6016-13.867 1.5625-14.805 1.5625-15.781 1.5625-16.68 1.9141-17.305 1.5625-18.281 1.6016-18.594 1.5625-18.906 1.875-19.531 1.6016-19.531 1.5625-19.219 1.875-19.531 1.5625-18.867 1.6016-18.594 1.5625-18.281 1.875-17.305 1.6016-16.719 1.5625-15.742 1.6016-14.805 1.5625-13.867 1.5625-12.578 1.25-11.367 1.6016-10.078 1.5625-8.8281 1.5625-6.9141 1.2891-5.9766 1.5625-4.1016 1.25-2.5391 1.6016-0.9375 1.25 0.9375 1.5625 2.5391 1.25 4.1016 1.6016 5.9766 1.5625 6.9141 1.25 8.8281 1.5625 10.078 1.6016 11.367 1.5625 12.578 1.6016 13.867 1.5625 14.805 1.5625 15.742 1.6016 16.719 1.5625 17.305 1.5625 18.281 1.9141 18.594 1.5625 18.867 1.5625 19.531 1.875 19.531 1.6016 19.219 1.5625 19.531 1.6016 18.906 1.875 18.594 1.5625 18.281 1.6016 17.305 1.5625 16.68 1.5625 15.781 1.6016 14.805 1.5625 13.867 1.5625 12.578 1.5625 11.328 1.6016 10.078 1.25 8.8281 1.5625 6.9141 1.6016 6.0156 1.25 4.1016 1.5625 2.5 1.2891 0.9375 1.5625-0.9375 1.25-2.5 1.5625-4.1016 1.2891-6.0156 1.5625-6.9141 1.5625-8.8281 1.6016-10.078 1.25-11.328 1.5625-12.578 1.6016-13.867 1.5625-14.805 1.5625-15.781 1.6016-16.68 1.875-17.305 1.5625-18.281 1.6016-18.594 1.5625-18.906 1.875-19.531 1.6016-19.531 1.5625-19.219 1.875-19.531 1.6016-18.867 1.5625-18.594 1.5625-18.281 1.9141-17.305 1.5625-16.719 1.5625-15.742 1.6016-14.805 1.5625-13.867 1.5625-12.578 1.2891-11.367 1.5625-10.078 1.5625-8.8281 1.5625-6.9141 1.2891-5.9766 1.5625-4.1016 1.25-2.5391 1.6016-0.9375 1.25 0.9375 1.5625 2.5391 1.25 4.1016 1.6016 5.9766 1.5625 6.9141 1.25 8.8281 1.6016 10.078 1.5625 11.367 1.5625 12.578 1.5625 13.867 1.6016 14.805 1.5625 15.742 1.6016 16.719 1.5625 17.305 1.5625 18.281 1.9141 18.594 1.5625 18.867 1.5625 19.531 1.9141 19.531 1.5625 19.219 1.5625 19.531 1.6016 18.906 1.875 18.594 1.5625 18.281 1.6016 17.305 1.5625 16.68 1.5625 15.781 1.6016 14.805 1.5625 13.867 1.5625 12.578 1.5625 11.328 1.6016 10.078 1.25 8.8281 1.5625 6.9141 1.6016 6.0156 1.25 4.1016 1.5625 2.5 1.2891 0.9375 1.5625-0.9375 1.25-2.5 1.6016-4.1016 1.25-6.0156 1.5625-6.9141 1.5625-8.8281 1.6016-10.078 1.25-11.328 1.5625-12.578 1.6016-13.867 1.5625-14.805 1.5625-15.781 1.5625-16.68 1.9141-17.305 1.5625-18.281 1.6016-18.594 1.5625-18.906 1.875-19.531 1.6016-19.531 1.5625-19.219 1.875-19.531 1.5625-18.867 1.6016-18.594 1.5625-18.281 1.875-17.305 1.6016-16.719 1.5625-15.742 1.6016-14.805 1.5625-13.867 1.5625-12.578 1.25-11.367 1.6016-10.078 1.5625-8.8281 1.5625-6.9141 1.2891-5.9766 1.5625-4.1016 1.25-2.5391 1.6016-0.9375 1.25 0.9375 1.5625 2.5391 1.25 4.1016 1.6016 5.9766 1.5625 6.9141 1.25 8.8281 1.5625 10.078 1.6016 11.367 1.5625 12.578 1.6016 13.867 1.5625 14.805 1.5625 15.742 1.6016 16.719 1.5625 17.305 1.5625 18.281 1.9141 18.594 1.5625 18.867 1.5625 19.531 1.875 19.531 1.6016 19.219 1.5625 19.531 1.6016 18.906 1.875 18.594 1.5625 18.281 1.6016 17.305 1.5625 16.68 1.5625 15.781 1.6016 14.805 1.5625 13.867 1.5625 12.578 1.5625 11.328 1.6016 10.078 1.25 8.8281 1.5625 6.9141 1.6016 6.0156 1.25 4.1016 1.5625 2.5 1.2891 0.9375 1.5625-0.9375 1.25-2.5 1.5625-4.1016 1.2891-6.0156 1.5625-6.9141 1.5625-8.8281 1.6016-10.078 1.25-11.328 1.5625-12.578 1.6016-13.867 1.5625-14.805 1.5625-15.781 1.6016-16.68 1.875-17.305 1.5625-18.281 1.6016-18.594 1.5625-18.906 1.875-19.531 1.6016-19.531 1.5625-19.219 1.875-19.531 1.6016-18.867 1.5625-18.594 1.5625-18.281 1.9141-17.305 1.5625-16.719 1.5625-15.742 1.6016-14.805 1.5625-13.867 1.5625-12.578 1.2891-11.367 1.5625-10.078 1.5625-8.8281 1.5625-6.9141 1.2891-5.9766 1.5625-4.1016 1.25-2.5391 1.6016-0.9375 1.25 0.9375 1.5625 2.5391 1.25 4.1016 1.6016 5.9766 1.5625 6.9141 1.25 8.8281 1.6016 10.078 1.5625 11.367 1.5625 12.578 1.5625 13.867 1.6016 14.805 1.5625 15.742 1.6016 16.719 1.5625 17.305 1.5625 18.281 1.9141 18.594 1.5625 18.867 1.5625 19.531 1.9141 19.531 1.5625 19.219 1.5625 19.531 1.6016 18.906 1.875 18.594 1.5625 18.281 1.6016 17.305 1.5625 16.68 1.5625 15.781 1.6016 14.805 1.5625 13.867 1.5625 12.578 1.5625 11.328 1.6016 10.078 1.25 8.8281 1.5625 6.9141 1.6016 6.0156 1.25 4.1016 1.5625 2.5 1.2891 0.9375 1.5625-0.9375 1.25-2.5 1.6016-4.1016 1.25-6.0156 1.5625-6.9141 1.5625-8.8281 1.6016-10.078 1.25-11.328 1.5625-12.578 1.6016-13.867 1.5625-14.805 1.5625-15.781 1.5625-16.68 1.9141-17.305 1.5625-18.281 1.6016-18.594 1.5625-18.906 1.875-19.531 1.6016-19.531 1.5625-19.219 1.875-19.531 1.5625-18.867 1.6016-18.594 1.5625-18.281 1.875-17.305 1.6016-16.719 1.5625-15.742 1.6016-14.805 1.5625-13.867 1.5625-12.578 1.25-11.367 1.6016-10.078 1.5625-8.8281 1.5625-6.9141 1.2891-5.9766 1.5625-4.1016 1.25-2.5391 1.6016-0.9375 1.25 0.9375 1.5625 2.5391 1.25 4.1016 1.6016 5.9766 1.5625 6.9141 1.25 8.8281 1.5625 10.078 1.6016 11.367 1.5625 12.578 1.6016 13.867 1.5625 14.805 1.5625 15.742 1.6016 16.719 1.5625 17.305 1.5625 18.281 1.9141 18.594 1.5625 18.867 1.5625 19.531 1.875 19.531 1.6016 19.219 1.5625 19.531 1.6016 18.906 1.875 18.594 1.5625 18.281 1.6016 17.305 1.5625 16.68 1.5625 15.781 1.6016 14.805 1.5625 13.867 1.5625 12.578 1.5625 11.328 1.6016 10.078 1.25 8.8281 1.5625 6.9141 1.6016 6.0156 1.25 4.1016 1.5625 2.5 1.2891 0.9375 1.5625-0.9375 1.25-2.5 1.5625-4.1016 1.2891-6.0156 1.5625-6.9141 1.5625-8.8281 1.6016-10.078 1.25-11.328 1.5625-12.578 1.6016-13.867 1.5625-14.805 1.5625-15.781 1.6016-16.68 1.875-17.305 1.5625-18.281 1.6016-18.594 1.5625-18.906 1.875-19.531 1.6016-19.531 1.5625-19.219 1.875-19.531 1.6016-18.867 1.5625-18.594 1.5625-18.281 1.9141-17.305 1.5625-16.719 1.5625-15.742 1.6016-14.805 1.5625-13.867 1.5625-12.578 1.2891-11.367 1.5625-10.078 1.5625-8.8281 1.5625-6.9141 1.2891-5.9766 1.5625-4.1016 1.25-2.5391 1.6016-0.9375 1.25 0.9375 1.5625 2.5391 1.25 4.1016 1.6016 5.9766 1.5625 6.9141 1.25 8.8281 1.6016 10.078 1.5625 11.367 1.5625 12.578 1.5625 13.867 1.6016 14.805 1.5625 15.742 1.6016 16.719 1.5625 17.305 1.5625 18.281 1.9141 18.594 1.5625 18.867 1.5625 19.531 1.9141 19.531 1.5625 19.219 1.5625 19.531 1.6016 18.906 1.875 18.594 1.5625 18.281 1.6016 17.305 1.5625 16.68 1.5625 15.781 1.6016 14.805 1.5625 13.867 1.5625 12.578 1.5625 11.328 1.6016 10.078 1.25 8.8281 1.5625 6.9141 1.6016 6.0156 1.25 4.1016 1.5625 2.5 1.2891 0.9375 1.5625-0.9375 1.25-2.5 1.6016-4.1016 1.25-6.0156 1.5625-6.9141 1.5625-8.8281 1.6016-10.078 1.25-11.328 1.5625-12.578 1.6016-13.867 1.5625-14.805 1.5625-15.781 1.5625-16.68 1.9141-17.305 1.5625-18.281 1.6016-18.594 1.5625-18.906 1.875-19.531 1.6016-19.531 1.5625-19.219 1.875-19.531 1.5625-18.867 1.6016-18.594 1.5625-18.281 1.875-17.305 1.6016-16.719 1.5625-15.742 1.6016-14.805 1.5625-13.867 1.5625-12.578 1.25-11.367 1.6016-10.078 1.5625-8.8281 1.5625-6.9141 1.2891-5.9766 1.5625-4.1016 1.25-2.5391 1.6016-0.9375 1.25 0.9375 1.5625 2.5391 1.25 4.1016 1.6016 5.9766 1.5625 6.9141 1.25 8.8281 1.5625 10.078 1.6016 11.367 1.5625 12.578 1.6016 13.867 1.5625 14.805 1.5625 15.742 1.6016 16.719 1.5625 17.305 1.5625 18.281 1.9141 18.594 1.5625 18.867 1.5625 19.531 1.875 19.531 1.6016 19.219 1.5625 19.531 1.6016 18.906 1.875 18.594 1.5625 18.281 1.6016 17.305 1.5625 16.68 1.5625 15.781 1.6016 14.805 1.5625 13.867 1.5625 12.578 1.5625 11.328 1.6016 10.078 1.25 8.8281 1.5625 6.9141 1.6016 6.0156 1.25 4.1016 1.5625 2.5 1.2891 0.9375 1.5625-0.9375 1.25-2.5 1.5625-4.1016 1.2891-6.0156 1.5625-6.9141 1.5625-8.8281 1.6016-10.078 1.25-11.328 1.5625-12.578 1.6016-13.867 1.5625-14.805 1.5625-15.781 1.6016-16.68 1.875-17.305 1.5625-18.281 1.6016-18.594 1.5625-18.906 1.875-19.531 1.6016-19.531 1.5625-19.219 1.875-19.531 1.6016-18.867 1.5625-18.594 1.5625-18.281 1.9141-17.305 1.5625-16.719 1.5625-15.742 1.6016-14.805 1.5625-13.867 1.5625-12.578 1.2891-11.367 1.5625-10.078 1.5625-8.8281 1.5625-6.9141 1.2891-5.9766 1.5625-4.1016 1.25-2.5391 1.6016-0.9375 1.25 0.9375 1.5625 2.5391 1.25 4.1016 1.6016 5.9766 1.5625 6.9141 1.25 8.8281 1.6016 10.078 1.5625 11.367 1.5625 12.578 1.5625 13.867 1.6016 14.805 1.5625 15.742 1.6016 16.719 1.5625 17.305 1.5625 18.281 1.9141 18.594 1.5625 18.867 1.5625 19.531 1.9141 19.531 1.5625 19.219 1.5625 19.531 1.6016 18.906 1.875 18.594 1.5625 18.281 1.6016 17.305 1.5625 16.68 1.5625 15.781 1.6016 14.805 1.5625 13.867 1.5625 12.578 1.5625 11.328 1.6016 10.078 1.25 8.8281 1.5625 6.9141 1.6016 6.0156 1.25 4.1016 1.5625 2.5 1.2891 0.9375 1.5625-0.9375 1.25-2.5 1.6016-4.1016 1.25-6.0156 1.5625-6.9141 1.5625-8.8281 1.6016-10.078 1.25-11.328 1.5625-12.578 1.6016-13.867 1.5625-14.805 1.5625-15.781 1.5625-16.68 1.9141-17.305 1.5625-18.281 1.6016-18.594 1.5625-18.906 1.875-19.531 1.6016-19.531 1.5625-19.219 1.875-19.531 1.5625-18.867 1.6016-18.594 1.5625-18.281 1.875-17.305 1.6016-16.719 1.5625-15.742 1.6016-14.805 1.5625-13.867 1.5625-12.578 1.6016-11.367 1.25-10.078 1.5625-8.8281 1.6016-6.9141 1.25-5.9766 1.5625-4.1016 1.25-2.5391 1.6016-0.9375 1.5625 0.9375 1.25 2.5391 1.6016 4.1016 1.25 5.9766 1.5625 6.9141 1.5625 8.8281 1.2891 10.078 1.5625 11.367 1.5625 12.578 1.6016 13.867 1.5625 14.805 1.5625 15.742 1.6016 16.719 1.875 17.305 1.5625 18.281 1.6016 18.594 1.5625 18.867 1.875 19.531 1.5625 19.531 1.6016 19.219 1.875 19.531 1.5625 18.906 1.6016 18.594 1.5625 18.281 1.9141 17.305 1.5625 16.68 1.5625 15.781 1.6016 14.805 1.5625 13.867 1.5625 12.578 1.25 11.328 1.6016 10.078 1.5625 8.8281 1.6016 6.9141 1.25 6.0156 1.5625 4.1016 1.25 2.5 1.5625 0.9375 1.2891-0.9375 1.5625-2.5 1.25-4.1016 1.6016-6.0156 1.5625-6.9141 1.25-8.8281 1.6016-10.078 1.5625-11.328 1.5625-12.578 1.6016-13.867 1.5625-14.805 1.5625-15.781 1.6016-16.68 1.5625-17.305 1.5625-18.281 1.875-18.594 1.6016-18.906 1.5625-19.531 1.9141-19.531 1.5625-19.219 1.5625-19.531 1.6016-18.867 1.875-18.594 1.5625-18.281 1.6016-17.305 1.5625-16.719 1.5625-15.742 1.6016-14.805 1.5625-13.867 1.5625-12.578 1.6016-11.367 1.5625-10.078 1.25-8.8281 1.5625-6.9141 1.6016-5.9766 1.25-4.1016 1.5625-2.5391 1.2891-0.9375 1.5625 0.9375 1.25 2.5391 1.5625 4.1016 1.2891 5.9766 1.5625 6.9141 1.5625 8.8281 1.6016 10.078 1.25 11.367 1.5625 12.578 1.5625 13.867 1.6016 14.805 1.5625 15.742 1.6016 16.719 1.875 17.305 1.5625 18.281 1.6016 18.594 1.5625 18.867 1.875 19.531 1.6016 19.531 1.5625 19.219 1.875 19.531 1.6016 18.906 1.5625 18.594 1.5625 18.281 1.9141 17.305 1.5625 16.68 1.5625 15.781 1.5625 14.805 1.6016 13.867 1.5625 12.578 1.25 11.328 1.6016 10.078 1.5625 8.8281 1.5625 6.9141 1.2891 6.0156 1.5625 4.1016 1.25 2.5 1.6016 0.9375 1.25-0.9375 1.5625-2.5 1.2891-4.1016 1.5625-6.0156 1.5625-6.9141 1.25-8.8281 1.6016-10.078 1.5625-11.328 1.5625-12.578 1.5625-13.867 1.6016-14.805 1.5625-15.781 1.6016-16.68 1.5625-17.305 1.5625-18.281 1.9141-18.594 1.5625-18.906 1.5625-19.531 1.9141-19.531 1.5625-19.219 1.5625-19.531 1.5625-18.867 1.9141-18.594 1.5625-18.281 1.5625-17.305 1.6016-16.719 1.5625-15.742 1.6016-14.805 1.5625-13.867 1.5625-12.578 1.6016-11.367 1.5625-10.078 1.25-8.8281 1.6016-6.9141 1.5625-5.9766 1.25-4.1016 1.5625-2.5391 1.2891-0.9375 1.5625 0.9375 1.25 2.5391 1.6016 4.1016 1.25 5.9766 1.5625 6.9141 1.5625 8.8281 1.6016 10.078 1.25 11.367 1.5625 12.578 1.6016 13.867 1.5625 14.805 1.5625 15.742 1.6016 16.719 1.875 17.305 1.5625 18.281 1.6016 18.594 1.5625 18.867 1.875 19.531 1.5625 19.531 1.6016 19.219 1.875 19.531 1.5625 18.906 1.6016 18.594 1.5625 18.281 1.9141 17.305 1.5625 16.68 1.5625 15.781 1.6016 14.805 1.5625 13.867 1.5625 12.578 1.25 11.328 1.6016 10.078 1.5625 8.8281 1.6016 6.9141 1.25 6.0156 1.5625 4.1016 1.25 2.5 1.5625 0.9375 1.2891-0.9375 1.5625-2.5 1.25-4.1016 1.6016-6.0156 1.5625-6.9141 1.25-8.8281 1.6016-10.078 1.5625-11.328 1.5625-12.578 1.6016-13.867 1.5625-14.805 1.5625-15.781 1.6016-16.68 1.5625-17.305 1.5625-18.281 1.875-18.594 1.6016-18.906 1.5625-19.531 1.9141-19.531 1.5625-19.219 1.5625-19.531 1.6016-18.867 1.875-18.594 1.5625-18.281 1.6016-17.305 1.5625-16.719 1.5625-15.742 1.6016-14.805 1.5625-13.867 1.5625-12.578 1.6016-11.367 1.5625-10.078 1.25-8.8281 1.5625-6.9141 1.6016-5.9766 1.25-4.1016 1.5625-2.5391 1.2891-0.9375 1.5625 0.9375 1.25 2.5391 1.5625 4.1016 1.2891 5.9766 1.5625 6.9141 1.5625 8.8281 1.6016 10.078 1.25 11.367 1.5625 12.578 1.5625 13.867 1.6016 14.805 1.5625 15.742 1.6016 16.719 1.875 17.305 1.5625 18.281 1.6016 18.594 1.5625 18.867 1.875 19.531 1.6016 19.531 1.5625 19.219 1.875 19.531 1.6016 18.906 1.5625 18.594 1.5625 18.281 1.9141 17.305 1.5625 16.68 1.5625 15.781 1.5625 14.805 1.6016 13.867 1.5625 12.578 1.25 11.328 1.6016 10.078 1.5625 8.8281 1.5625 6.9141 1.2891 6.0156 1.5625 4.1016 1.25 2.5 1.6016 0.9375 1.25-0.9375 1.5625-2.5 1.2891-4.1016 1.5625-6.0156 1.5625-6.9141 1.25-8.8281 1.6016-10.078 1.5625-11.328 1.5625-12.578 1.5625-13.867 1.6016-14.805 1.5625-15.781 1.6016-16.68 1.5625-17.305 1.5625-18.281 1.9141-18.594 1.5625-18.906 1.5625-19.531 1.9141-19.531 1.5625-19.219 1.5625-19.531 1.5625-18.867 1.9141-18.594 1.5625-18.281 1.5625-17.305 1.6016-16.719 1.5625-15.742 1.6016-14.805 1.5625-13.867 1.5625-12.578 1.6016-11.367 1.5625-10.078 1.25-8.8281 1.6016-6.9141 1.5625-5.9766 1.25-4.1016 1.5625-2.5391 1.2891-0.9375 1.5625 0.9375 1.25 2.5391 1.6016 4.1016 1.25 5.9766 1.5625 6.9141 1.5625 8.8281 1.6016 10.078 1.25 11.367 1.5625 12.578 1.6016 13.867 1.5625 14.805 1.5625 15.742 1.6016 16.719 1.875 17.305 1.5625 18.281 1.6016 18.594 1.5625 18.867 1.875 19.531 1.5625 19.531 1.6016 19.219 1.875 19.531 1.5625 18.906 1.6016 18.594 1.5625 18.281 1.9141 17.305 1.5625 16.68 1.5625 15.781 1.6016 14.805 1.5625 13.867 1.5625 12.578 1.25 11.328 1.6016 10.078 1.5625 8.8281 1.6016 6.9141 1.25 6.0156 1.5625 4.1016 1.25 2.5 1.5625 0.9375 1.2891-0.9375 1.5625-2.5 1.25-4.1016 1.6016-6.0156 1.5625-6.9141 1.25-8.8281 1.6016-10.078 1.5625-11.328 1.5625-12.578 1.6016-13.867 1.5625-14.805 1.5625-15.781 1.6016-16.68 1.5625-17.305 1.5625-18.281 1.875-18.594 1.6016-18.906 1.5625-19.531 1.9141-19.531 1.5625-19.219 1.5625-19.531 1.6016-18.867 1.875-18.594 1.5625-18.281 1.6016-17.305 1.5625-16.719 1.5625-15.742 1.6016-14.805 1.5625-13.867 1.5625-12.578 1.6016-11.367 1.5625-10.078 1.25-8.8281 1.5625-6.9141 1.6016-5.9766 1.25-4.1016 1.5625-2.5391 1.2891-0.9375 1.5625 0.9375 1.25 2.5391 1.5625 4.1016 1.2891 5.9766 1.5625 6.9141 1.5625 8.8281 1.6016 10.078 1.25 11.367 1.5625 12.578 1.5625 13.867 1.6016 14.805 1.5625 15.742 1.6016 16.719 1.875 17.305 1.5625 18.281 1.6016 18.594 1.5625 18.867 1.875 19.531 1.6016 19.531 1.5625 19.219 1.875 19.531 1.6016 18.906 1.5625 18.594 1.5625 18.281 1.9141 17.305 1.5625 16.68 1.5625 15.781 1.5625 14.805 1.6016 13.867 1.5625 12.578 1.25 11.328 1.6016 10.078 1.5625 8.8281 1.5625 6.9141 1.2891 6.0156 1.5625 4.1016 1.25 2.5 1.6016 0.9375 1.25-0.9375 1.5625-2.5 1.2891-4.1016 1.5625-6.0156 1.5625-6.9141 1.25-8.8281 1.6016-10.078 1.5625-11.328 1.5625-12.578 1.5625-13.867 1.6016-14.805 1.5625-15.781 1.6016-16.68 1.5625-17.305 1.5625-18.281 1.9141-18.594 1.5625-18.906 1.5625-19.531 1.9141-19.531 1.5625-19.219 1.5625-19.531 1.5625-18.867 1.9141-18.594 1.5625-18.281 1.5625-17.305 1.6016-16.719 1.5625-15.742 1.6016-14.805 1.5625-13.867 1.5625-12.578 1.6016-11.367 1.5625-10.078 1.25-8.8281 1.6016-6.9141 1.5625-5.9766 1.25-4.1016 1.5625-2.5391 1.2891-0.9375 1.5625 0.9375 1.25 2.5391 1.6016 4.1016 1.25 5.9766 1.5625 6.9141 1.5625 8.8281 1.6016 10.078 1.25 11.367 1.5625 12.578 1.6016 13.867 1.5625 14.805 1.5625 15.742 1.6016 16.719 1.875 17.305 1.5625 18.281 1.6016 18.594 1.5625 18.867 1.875 19.531 1.5625 19.531 1.6016 19.219 1.875 19.531 1.5625 18.906 1.6016 18.594 1.5625 18.281 1.9141 17.305 1.5625 16.68 1.5625 15.781 1.6016 14.805 1.5625 13.867 1.5625 12.578 1.25 11.328 1.6016 10.078 1.5625 8.8281 1.6016 6.9141 1.25 6.0156 1.5625 4.1016 1.25 2.5 1.5625 0.9375 1.2891-0.9375 1.5625-2.5 1.25-4.1016 1.6016-6.0156 1.5625-6.9141 1.25-8.8281 1.6016-10.078 1.5625-11.328 1.5625-12.578 1.6016-13.867 1.5625-14.805 1.5625-15.781 1.6016-16.68 1.5625-17.305 1.5625-18.281 1.875-18.594 1.6016-18.906 1.5625-19.531 1.9141-19.531 1.5625-19.219 1.5625-19.531 1.6016-18.867 1.875-18.594 1.5625-18.281 1.6016-17.305 1.5625-16.719 1.5625-15.742 1.6016-14.805 1.5625-13.867 1.5625-12.578 1.6016-11.367 1.5625-10.078 1.25-8.8281 1.5625-6.9141 1.6016-5.9766 1.25-4.1016 1.5625-2.5391 1.2891-0.9375 1.5625 0.9375 1.25 2.5391 1.5625 4.1016 1.2891 5.9766 1.5625 6.9141 1.5625 8.8281 1.6016 10.078 1.25 11.367 1.5625 12.578 1.5625 13.867 1.6016 14.805 1.5625 15.742 1.6016 16.719 1.875 17.305 1.5625 18.281 1.6016 18.594 1.5625 18.867 1.875 19.531 1.6016 19.531 1.5625 19.219 1.875 19.531 1.6016 18.906 1.5625 18.594 1.5625 18.281 1.9141 17.305 1.5625 16.68 1.5625 15.781 1.5625 14.805 1.6016 13.867 1.5625 12.578 1.25 11.328 1.6016 10.078 1.5625 8.8281 1.5625 6.9141 1.2891 6.0156 1.5625 4.1016 1.25 2.5 1.6016 0.9375 1.25-0.9375 1.5625-2.5 1.2891-4.1016 1.5625-6.0156 1.5625-6.9141 1.25-8.8281 1.6016-10.078 1.5625-11.328 1.5625-12.578 1.5625-13.867 1.6016-14.805 1.5625-15.781 1.6016-16.68 1.5625-17.305 1.5625-18.281 1.9141-18.594 1.5625-18.906 1.5625-19.531 1.9141-19.531 1.5625-19.219 1.5625-19.531 1.5625-18.867 1.9141-18.594 1.5625-18.281 1.5625-17.305 1.6016-16.719 1.5625-15.742 1.6016-14.805 1.5625-13.867 1.5625-12.578 1.6016-11.367 1.5625-10.078 1.25-8.8281 1.6016-6.9141 1.5625-5.9766 1.25-4.1016 1.5625-2.5391 1.2891-0.9375 1.5625 0.9375 1.25 2.5391 1.6016 4.1016 1.25 5.9766 1.5625 6.9141 1.5625 8.8281 1.6016 10.078 1.25 11.367 1.5625 12.578 1.6016 13.867 1.5625 14.805 1.5625 15.742 1.6016 16.719 1.875 17.305 1.5625 18.281 1.6016 18.594 1.5625 18.867 1.875 19.531 1.5625 19.531 1.6016 19.219 1.875 19.531 1.5625 18.906 1.6016 18.594 1.5625 18.281 1.9141 17.305 1.5625 16.68 1.5625 15.781 1.6016 14.805 1.5625 13.867 1.5625 12.578 1.25 11.328 1.6016 10.078 1.5625 8.8281 1.6016 6.9141 1.25 6.0156 1.5625 4.1016 1.25 2.5 1.5625 0.9375 1.2891-0.9375 1.5625-2.5 1.25-4.1016 1.6016-6.0156 1.5625-6.9141 1.25-8.8281 1.6016-10.078 1.5625-11.328 1.5625-12.578 1.6016-13.867 1.5625-14.805 1.5625-15.781 1.6016-16.68 1.5625-17.305 1.5625-18.281 1.875-18.594 1.6016-18.906 1.5625-19.531 1.9141-19.531 1.5625-19.219 1.5625-19.531 1.6016-18.867 1.875-18.594 1.5625-18.281 1.6016-17.305 1.5625-16.719 1.5625-15.742 1.6016-14.805 1.5625-13.867 1.5625-12.578 1.6016-11.367 1.5625-10.078 1.25-8.8281 1.5625-6.9141 1.6016-5.9766 1.25-4.1016 1.5625-2.5391 1.2891-0.9375 1.5625 0.9375 1.25 2.5391 1.5625 4.1016 1.2891 5.9766 1.5625 6.9141 1.5625 8.8281 1.6016 10.078 1.25 11.367 1.5625 12.578 1.5625 13.867 1.6016 14.805 1.5625 15.742 1.6016 16.719 1.875 17.305 1.5625 18.281 1.6016 18.594 1.5625 18.867 1.875 19.531 1.6016 19.531 1.5625 19.219 1.875 19.531 1.6016 18.906 1.5625 18.594 1.5625 18.281 1.9141 17.305 1.5625 16.68 1.5625 15.781 1.5625 14.805 1.6016 13.867 1.5625 12.578 1.25 11.328 1.6016 10.078 1.5625 8.8281 1.5625 6.9141 1.2891 6.0156 1.5625 4.1016 1.25 2.5 1.6016 0.9375 1.25-0.9375 1.5625-2.5 1.2891-4.1016 1.5625-6.0156 1.5625-6.9141 1.25-8.8281 1.6016-10.078 1.5625-11.328 1.5625-12.578 1.5625-13.867 1.6016-14.805 1.5625-15.781 1.6016-16.68 1.5625-17.305 1.5625-18.281 1.9141-18.594 1.5625-18.906 1.5625-19.531 1.9141-19.531 1.5625-19.219 1.5625-19.531 1.5625-18.867 1.9141-18.594 1.5625-18.281 1.5625-17.305 1.6016-16.719 1.5625-15.742 1.6016-14.805 1.5625-13.867 1.5625-12.578 1.6016-11.367 1.5625-10.078 1.25-8.8281 1.6016-6.9141 1.5625-5.9766 1.25-4.1016 1.5625-2.5391 1.2891-0.9375 1.5625 0.9375 1.25 2.5391 1.6016 4.1016 1.25 5.9766 1.5625 6.9141 1.5625 8.8281 1.6016 10.078 1.25 11.367 1.5625 12.578 1.6016 13.867 1.5625 14.805 1.5625 15.742 1.6016 16.719 1.875 17.305 1.5625 18.281 1.6016 18.594 1.5625 18.867 1.875 19.531 1.5625 19.531 1.6016 19.219 1.875 19.531 1.5625 18.906 1.6016 18.594 1.5625 18.281 1.9141 17.305 1.5625 16.68 1.5625 15.781 1.6016 14.805 1.5625 13.867 1.5625 12.578 1.25 11.328 1.6016 10.078 1.5625 8.8281 1.6016 6.9141 1.25 6.0156 1.5625 4.1016 1.25 2.5 1.5625 0.9375 1.2891-0.9375 1.5625-2.5 1.25-4.1016 1.6016-6.0156 1.5625-7.2266 1.25-8.5156 1.6016-10.078 1.5625-11.328 1.5625-12.578 1.6016-13.867 1.5625-15.156 1.5625-15.742 1.6016-16.68 1.5625-17.656 1.5625-18.242 1.875-18.906 1.6016-19.219 1.5625-19.219 1.9141-19.844 3.125-39.062 1.6016-19.531 1.875-18.906 1.5625-18.242 1.6016-17.969 1.5625-17.031 1.5625-16.055 1.6016-15.43 1.5625-14.18 1.5625-12.891 1.6016-11.992 1.5625-10.703 1.25-9.1406 1.5625-7.8906 1.6016-6.2891 1.25-4.7266 1.5625-3.1641 1.2891-1.5625h1.5625l1.25 1.9141 1.5625 3.4375 1.2891 4.7266 1.5625 6.6406 1.5625 7.8516 1.6016 9.1406 1.25 10.391 1.5625 11.641 1.5625 13.242 1.6016 13.867 1.5625 15.117 1.6016 16.055 1.875 16.719 1.5625 17.656 1.6016 17.93 1.5625 18.594 1.875 18.906 1.6016 19.219 1.5625 19.531 1.875 19.219 1.6016 18.867 1.5625 18.906 1.5625 18.594 1.9141 17.93 1.5625 17.031 1.5625 16.68 1.5625 15.781 1.6016 14.805 1.5625 13.867 1.25 12.578 1.6016 11.641 1.5625 10.391 1.5625 9.1406 1.2891 7.5781 1.5625 6.2891 1.25 5.0391 1.6016 3.4766 1.5625 2.1875 1.25 0.3125 1.5625-1.25 1.6016-2.8125 1.5625-4.4141 1.6016-5.6641 1.5625-7.2656 1.5625-8.5156 1.5625-9.7656 1.6016-11.016 1.5625-12.305 1.875-13.516 1.6016-14.18 1.5625-15.43 1.5625-16.055 1.6016-16.719 1.875-17.305 1.6016-17.969 1.5625-18.281 1.5625-18.555 1.5625-18.594 1.6016-18.281 1.5625-18.594 1.5625-18.242 1.25-17.656 1.6016-17.344 1.25-16.992 1.25-16.055 1.6016-15.43 1.25-14.844 0.9375-13.828 1.25-12.93 1.2891-11.953 0.9375-10.703 1.25-10.117 0.9375-8.7891 1.6016-10.43 1.25-7.8516 1.5625-5.9766 1.2891-3.1641 1.25-0.9375 1.25 1.25 1.25 4.1016 1.5625 6.2891 1.2891 8.8281 1.5625 11.016 1.25 13.555 1.6016 15.742 1.5625 17.656 1.5625 18.906 1.6016 20.156 1.5625 20.781 1.25 20.469 1.2891 19.219 1.25 17.656 0.9375 15.117 0.625 12.266 0.625 9.1406 0.3125 5.9766 0.3125 3.1641v1.5625" fill="none" stroke="#000" stroke-linecap="round" stroke-linejoin="bevel" stroke-miterlimit="10" stroke-width="18.9"/>
<path transform="matrix(.1 0 0 -.1 -.472 363.6)" d="m784.49 743.72 0.97656-0.625 2.5-0.9375 3.4766-2.2266 4.7266-2.5 5.3516-3.4766 5.6641-4.1016 5.0391-4.1016 4.7266-4.7266 4.4141-4.7266 3.7891-5.3516 3.4375-5.9766 2.8516-6.6016 3.1641-7.8906 1.5625-4.4141 1.5625-4.7266 1.5625-5.3516 1.2891-5.3516 1.875-5.9766 1.5625-6.2891 1.6016-6.9531 1.5625-6.9141 1.5625-7.5781 1.9141-8.1641 1.875-8.2031 1.5625-8.8281 1.9141-8.8281 1.875-9.4531 1.9141-9.4141 3.75-19.531 1.9141-10.078 2.1875-10.078 1.9141-10.117 1.875-10.391 1.875-10.078 2.2266-10.391 1.875-10.391 2.2266-10.391 2.1875-10.391 2.2266-10.703 2.1875-11.055 2.5391-11.016 2.5-11.328 2.5391-11.641 2.8125-11.68 2.8516-11.953 2.8125-11.68 3.1641-11.953 3.1641-11.641 3.125-11.68 3.4766-11.328 3.1641-10.703 3.4375-10.391 3.4766-10.078 3.4766-9.1406 3.4375-8.5156 3.4766-7.8906 3.1641-6.9141 3.4375-5.9766 3.4766-5.0391 3.1641-4.4141 3.125-3.4766 3.1641-2.1875 3.1641-1.6016 3.125-0.3125 2.8516 0.3125 2.8125 1.2891 3.1641 2.1875 2.8516 2.8516 3.125 3.75 3.1641 4.4141 3.1641 5.6641 3.125 6.0156 3.1641 6.9141 3.4766 7.8906 3.125 8.4766 3.4766 9.1406 3.4766 9.7656 3.4375 10.391 3.1641 11.055 3.4766 11.016 3.4375 11.641 3.1641 11.992 3.4766 12.266 3.125 12.305 3.1641 12.266 3.1641 12.617 3.125 12.266 3.1641 12.305 2.8516 12.578 3.125 12.305 2.8516 11.953 2.8125 12.305 2.8516 12.266 3.1641 11.992 2.8125 12.266 3.1641 12.617 2.8125 12.266 3.1641 12.305 3.1641 12.578 3.125 12.305 3.4766 12.266 3.125 12.305 3.4766 11.953 3.1641 11.641 3.4766 11.055 3.4375 11.016 3.4766 10.391 3.4766 9.7656 3.125 9.1406 3.4766 8.5156 3.1641 7.8516 3.4375 6.9531 3.1641 5.9766 3.1641 5.6641 3.125 4.4141 2.8516 3.7891 3.125 2.8125 2.8516 2.2266 3.1641 1.25 2.8125 0.3125 3.7891-0.625 3.4766-1.875 3.7891-3.1641 4.1016-4.4141 3.75-5.0391 4.1016-6.2891 4.1016-7.2656 4.4141-7.5391 4.1016-8.2031 4.375-8.8281 4.4141-8.8281 4.4141-8.4766 8.5156-17.031 4.4141-7.8516 4.1016-6.9531 4.0625-6.2891 4.1016-5.3516 4.1016-4.1016 3.7891-3.1641 4.1016-1.875 3.7891-0.9375 3.75 0.9375 3.7891 1.875 4.1016 3.1641 4.1016 4.1016 4.1016 5.3516 4.0625 6.2891 4.4141 6.9531 4.4141 7.8516 4.4141 8.2031 4.7266 8.5156 4.4141 8.7891 4.4141 8.8281 4.7266 8.5156 4.4141 8.2031 4.4141 7.8516 4.0625 6.9531 4.1016 6.2891 4.1016 5.3516 4.1016 4.1016 3.7891 3.125 3.7891 2.2266 3.75 0.625 4.1016-0.9375 3.7891-2.2266 4.1016-3.75 4.4141-5.3516 4.1016-6.3281 4.375-7.2266 4.4141-8.2031 9.1406-18.281 8.8281-19.531 4.7266-9.1016 4.4141-9.1406 4.4141-8.2031 4.0625-7.2266 4.1016-6.3281 4.1016-5.3516 4.1016-3.7891 3.7891-2.1875 4.1016-0.9375 3.75 0.9375 4.1016 2.5391 4.1016 3.75 4.1016 5.0391 4.4141 6.3281 4.4141 7.2266 4.4141 8.2031 4.6875 9.1406 4.7656 9.4141 4.6875 9.4531 4.7266 9.7656 4.4141 9.4531 4.7266 8.8281 4.7266 8.5156 4.4141 7.2266 4.4141 6.3281 4.4141 5.0391 4.1016 3.75 4.1016 2.5391 4.0625 0.625 2.8516-0.3125 2.8516-1.25 3.125-2.2266 2.8516-2.8125 3.125-3.7891 3.1641-4.4141 3.1641-5.6641 3.125-5.9766 3.1641-6.9531 3.4766-7.8516 3.125-8.5156 3.4766-9.1406 3.4766-9.7656 3.125-10.391 3.4766-11.016 3.4766-11.055 3.4766-11.641 3.125-11.953 3.4766-12.305 3.125-12.266 3.1641-12.305 3.1641-12.578 3.125-12.305 3.1641-12.266 2.8516-12.617 3.125-12.266 2.8516-11.992 2.8125-12.266 2.8516-12.305 2.8125-11.953 3.1641-12.305 2.8516-12.578 3.125-12.305 3.1641-12.266 3.1641-12.617 3.125-12.266 3.1641-12.305 3.4766-12.266 3.125-11.992 3.4766-11.641 3.4766-11.016 3.4375-11.055 3.1641-10.391 3.4766-9.7656 3.4375-9.1406 3.1641-8.4766 3.4766-7.8906 3.125-6.9141 3.1641-6.0156 3.1641-5.6641 3.125-4.4141 3.1641-3.75 2.8516-2.8516 3.125-2.1875 2.8516-1.2891 2.8125-0.3125 2.8516 0.3125 2.8125 1.2891 3.1641 2.1875 2.8516 2.8516 3.125 3.75 3.1641 4.4141 3.1641 5.6641 3.125 6.0156 3.1641 6.9141 3.4766 7.8906 3.125 8.4766 3.4766 9.1406 3.4766 9.7656 3.4375 10.391 3.1641 11.055 3.4766 11.016 3.4375 11.641 3.1641 11.992 3.4766 12.266 3.125 12.305 3.1641 12.266 3.1641 12.617 3.125 12.266 3.1641 12.305 2.8516 12.578 3.125 12.305 2.8516 11.953 2.8125 12.305 2.8516 12.266 3.1641 11.992 2.8125 12.266 3.1641 12.617 2.8125 12.266 3.1641 12.305 3.1641 12.578 3.125 12.305 3.4766 12.266 3.125 12.305 3.4766 11.953 3.1641 11.641 3.4766 11.055 3.4375 11.016 3.4766 10.391 3.4766 9.7656 3.125 9.1406 3.4766 8.5156 3.1641 7.8516 3.4375 6.9531 3.1641 5.9766 3.1641 5.6641 3.125 4.4141 2.8516 3.7891 3.125 2.8125 2.8516 2.2266 3.1641 1.25 2.8125 0.3125 2.8516-0.3125 2.8516-1.25 3.125-2.2266 2.8516-2.8125 3.125-3.7891 3.1641-4.4141 3.1641-5.6641 3.125-5.9766 3.1641-6.9531 3.4766-7.8516 3.125-8.5156 3.4766-9.1406 3.4766-9.7656 3.125-10.391 3.4766-11.016 3.4766-11.055 3.4375-11.641 3.1641-11.953 3.4766-12.305 3.1641-12.266 3.125-12.305 3.1641-12.578 3.125-12.305 3.1641-12.266 2.8516-12.617 3.125-12.266 2.8516-11.992 2.8125-12.266 2.8516-12.305 2.8516-11.953 3.125-12.305 2.8516-12.578 3.125-12.305 3.1641-12.266 3.1641-12.617 3.125-12.266 3.1641-12.305 3.4766-12.266 3.125-11.992 3.4766-11.641 3.4766-11.016 3.4375-11.055 3.1641-10.391 3.4766-9.7656 3.4766-9.1406 3.125-8.4766 3.4766-7.8906 3.125-6.9141 3.1641-6.0156 3.1641-5.6641 3.125-4.4141 3.1641-3.75 2.8516-2.8516 3.125-2.1875 2.8516-1.2891 2.8125-0.3125 2.8516 0.3125 2.8125 1.2891 3.1641 2.1875 2.8516 2.8516 3.125 3.75 3.1641 4.4141 3.1641 5.6641 3.125 6.0156 3.1641 6.9141 3.4375 7.8906 3.1641 8.4766 3.4766 9.1406 3.4766 9.7656 3.4375 10.391 3.1641 11.055 3.4766 11.016 3.4375 11.641 3.1641 11.992 3.4766 12.266 3.125 12.305 3.1641 12.266 3.1641 12.617 3.125 12.266 3.1641 12.305 2.8516 12.578 3.125 12.305 2.8516 11.953 2.8125 12.305 2.8516 12.266 3.1641 11.992 2.8125 12.266 3.1641 12.617 2.8125 12.266 3.1641 12.305 3.125 12.578 3.1641 12.305 3.4766 12.266 3.1641 12.305 3.4375 11.953 3.1641 11.641 3.4766 11.055 3.4375 11.016 3.4766 10.391 3.4766 9.7656 3.125 9.1406 3.4766 8.5156 3.1641 7.8516 3.4766 6.9531 3.125 5.9766 3.1641 5.6641 3.125 4.4141 2.8516 3.7891 3.1641 2.8125 2.8125 2.2266 3.1641 1.25 2.8125 0.3125 4.1016-0.625 4.1016-2.5391 4.1016-3.75 4.4141-5.0391 4.4141-6.3281 4.4141-7.2266 4.4141-8.5156 4.6875-8.8281 4.7266-9.4531 4.7266-9.7656 4.7266-9.4531 4.7266-9.4141 4.4141-9.1406 4.7266-8.2031 4.4141-7.2266 4.1016-6.3281 4.1016-5.0391 4.0625-3.75 4.1016-2.5391 3.7891-0.9375 4.1016 0.9375 3.7891 2.1875 4.1016 3.7891 3.75 5.3516 4.4141 6.3281 4.1016 7.2266 4.4141 8.2031 4.4141 9.1406 4.4141 9.1016 4.7266 9.7656 4.4141 9.7656 4.4141 9.4531 4.375 8.8281 4.4141 8.2031 4.4141 7.2266 4.4141 6.3281 4.1016 5.3516 4.1016 3.75 4.1016 2.2266 4.0625 0.9375 2.8516-0.625 2.8516-1.25 3.125-1.9141 2.8516-3.125 3.125-3.4766 3.1641-4.7266 3.4766-5.3516 3.125-6.2891 3.4766-6.9531 3.4766-7.8516 3.4375-8.5156 3.4766-9.1406 3.4766-9.7656 3.7891-10.391 3.4375-11.016 3.4766-11.367 3.4766-11.641 3.7891-11.953 3.4375-11.992 3.4766-12.578 3.125-12.305 3.4766-12.617 3.1641-12.578 3.1641-12.305 3.125-12.578 3.1641-12.305 3.125-12.266 2.8516-12.305 3.1641-12.266 2.8125-12.305 3.1641-12.578 3.1641-12.617 3.125-12.266 3.1641-12.617 3.125-12.578 3.1641-12.617 3.4766-12.578 3.4766-12.305 3.125-11.953 3.4766-11.992 3.4766-11.328 3.4375-11.016 3.4766-10.742 3.4766-9.7656 3.4375-9.4141 3.1641-8.5156 3.4766-8.2031 3.125-6.9141 3.1641-6.3281 3.1641-5.6641 3.125-4.7266 3.1641-3.75 2.8516-2.8516 3.125-2.1875 2.8516-1.2891 2.8125-0.3125 2.8516 0.3125 3.1641 1.2891 2.8125 2.1875 3.1641 2.8516 2.8125 3.75 3.1641 4.7266 3.125 5.6641 3.1641 6.3281 3.4766 6.9141 3.1641 8.2031 3.4375 8.5156 3.4766 9.4141 3.4766 9.7656 3.4375 10.742 3.1641 11.016 3.4766 11.328 3.4375 11.992 3.4766 11.953 3.4766 12.305 3.125 12.578 3.4766 12.617 3.1641 12.578 3.125 12.617 3.1641 12.266 3.1641 12.617 2.8125 12.578 3.1641 12.305 3.1641 12.266 2.8125 12.305 3.1641 12.266 3.1641 12.305 3.125 12.578 3.1641 12.305 3.125 12.578 3.1641 12.617 3.4766 12.305 3.4766 12.578 3.4375 11.992 3.4766 11.953 3.4766 11.641 3.75 11.367 3.4766 11.016 3.4766 10.391 3.75 9.7656 3.4766 9.1406 3.4766 8.5156 3.4375 7.8516 3.1641 6.9531 3.4766 6.2891 3.1641 5.3516 3.125 4.7266 3.1641 3.4766 3.1641 3.125 2.8125 1.9141 2.8516 1.25 3.125 0.625 2.8516-0.625 2.8125-1.25 2.8516-1.9141 3.1641-3.125 2.8125-3.4766 3.1641-4.7266 2.8516-5.3516 3.125-6.2891 3.1641-6.9531 3.125-7.8516 3.1641-8.5156 3.1641-9.1406 3.4375-9.7656 3.1641-10.391 3.1641-11.016 3.125-11.367 3.4766-11.641 3.1641-11.953 3.125-11.992 2.8516-12.578 3.125-12.305 2.8516-12.617 3.1641-12.578 2.8125-12.305 2.8516-12.578 2.8125-12.305 2.8516-12.266 2.8516-12.305 2.8125-12.266 2.5391-12.305 3.125-12.578 2.8516-12.617 2.8516-12.266 3.125-12.617 2.8516-12.578 3.125-12.617 3.1641-12.578 3.4766-12.305 3.125-11.953 3.4766-11.992 3.1641-11.328 3.4375-11.016 3.4766-10.742 3.1641-9.7656 3.4375-9.4141 3.4766-8.5156 3.1641-8.2031 3.125-6.9141 3.1641-6.3281 3.1641-5.6641 3.125-4.7266 3.1641-3.75 2.8125-2.8516 3.1641-2.1875 2.8516-1.2891 2.8125-0.3125 3.7891 0.625 3.7891 1.9141 3.75 3.125 3.7891 4.4141 4.1016 5.3516 4.1016 6.6406 4.1016 7.2266 4.1016 7.8906 4.375 8.1641 4.1016 8.8281 8.8281 18.281 4.1016 8.8281 4.4141 8.4766 4.1016 7.8906 4.1016 7.2656 4.0625 6.6016 4.1016 5.3516 3.7891 4.4141 3.7891 3.4766 3.75 2.1875 3.7891 0.625 4.1016-0.625 4.1016-2.1875 4.1016-3.4766 4.4141-5.0391 4.4141-6.2891 4.4141-7.2656 4.6875-8.2031 4.4141-8.7891 9.4531-18.906 5.0391-9.7656 4.7266-9.1406 4.4141-9.1406 4.7266-8.2031 4.4141-7.2266 4.4141-6.2891 4.4141-5.0391 4.1016-3.7891 4.0625-2.5391 4.1016-0.625 2.8516 0.3125 2.8125 1.2891 3.1641 2.1875 2.8516 2.8516 3.125 3.75 3.1641 4.4141 3.1641 5.6641 3.125 6.0156 3.1641 6.9141 3.4766 7.8906 3.125 8.4766 3.4766 9.1406 3.4766 9.7656 3.4375 10.391 3.1641 11.055 3.4766 11.016 3.4375 11.641 3.1641 11.992 3.4766 12.266 3.125 12.305 3.1641 12.266 3.1641 12.617 3.125 12.266 3.1641 12.305 2.8516 12.578 3.125 12.305 2.8516 11.953 2.8125 12.305 2.8516 12.266 2.8125 11.992 3.1641 12.266 2.8516 12.617 3.125 12.266 3.1641 12.305 3.1641 12.578 3.125 12.305 3.1641 12.266 3.4375 12.305 3.1641 11.953 3.4766 11.641 3.4766 11.055 3.4375 11.016 3.1641 10.391 3.4766 9.7656 3.4375 9.1406 3.1641 8.5156 3.4766 7.8516 3.125 6.9531 3.1641 5.9766 3.1641 5.6641 3.125 4.4141 3.1641 3.7891 2.8516 2.8125 3.125 2.2266 2.8516 1.25 2.8125 0.3125 2.8516-0.3125 3.1641-1.25 2.8125-2.2266 3.1641-2.8125 2.8125-3.7891 3.1641-4.4141 3.125-5.6641 3.1641-5.9766 3.4766-6.9531 3.1641-7.8516 3.4375-8.5156 3.1641-9.1406 3.4766-9.7656 3.4375-10.391 3.4766-11.016 3.4766-11.055 3.125-11.641 3.4766-11.953 3.1641-12.305 3.4766-12.266 3.125-12.305 3.1641-12.578 3.125-12.305 2.8516-12.266 3.1641-12.617 2.8125-12.266 3.1641-11.992 2.8125-12.266 2.8516-12.305 2.8516-11.953 3.125-12.305 2.8516-12.578 3.125-12.305 3.1641-12.266 3.1641-12.617 3.125-12.266 3.1641-12.305 3.4766-12.266 3.125-11.992 3.4766-11.641 3.4766-11.016 3.125-11.055 3.4766-10.391 3.4766-9.7656 3.4766-9.1406 3.125-8.4766 3.4766-7.8906 3.125-6.9141 3.1641-6.0156 3.1641-5.6641 3.125-4.4141 3.1641-3.75 2.8516-2.8516 3.125-2.1875 2.8516-1.2891 2.8125-0.3125 3.1641 0.3125 3.1641 1.6016 3.125 2.1875 3.1641 3.4766 3.1641 4.4141 3.4375 5.0391 3.4766 5.9766 3.125 6.9141 3.4766 7.8906 3.4766 8.5156 3.4766 9.1406 3.4375 10.078 3.4766 10.391 3.1641 10.703 3.4766 11.328 3.125 11.68 3.1641 11.641 3.125 11.953 2.8516 11.68 2.8516 11.953 2.8125 11.68 2.5391 11.641 2.5 11.328 2.5391 11.016 2.1875 11.055 2.2266 10.703 4.375 20.781 1.9141 10.391 2.1875 10.391 1.9141 10.078 1.875 10.391 1.875 10.117 2.2266 10.078 1.875 10.078 1.9141 9.7656 1.875 9.7656 1.875 9.4141 1.9141 9.4531 1.875 8.8281 1.5625 8.8281 1.9141 8.2031 1.875 8.1641 1.6016 7.5781 1.5625 6.9141 1.5625 6.9531 1.6016 6.2891 1.875 5.9766 1.25 5.3516 1.5625 5.3516 1.6016 4.7266 1.5625 4.4141 3.1641 7.8906 2.8125 6.6016 3.4766 5.9766 3.7891 5.3516 4.4141 4.7266 4.7266 4.7266 5.0391 4.1016 5.6641 4.1016 5.3516 3.4766 4.7266 2.5 3.4766 2.2266 2.5 0.9375 0.9375 0.625" fill="none" stroke="#000" stroke-linecap="round" stroke-linejoin="bevel" stroke-miterlimit="10" stroke-width="18.9"/>
<path transform="matrix(.1 0 0 -.1 -.472 363.6)" d="m3619.5 2983.4h28.359" fill="none" stroke="#000" stroke-linecap="round" stroke-miterlimit="10" stroke-width="18.9"/>
<path transform="matrix(.1 0 0 -.1 -.472 363.6)" d="m3619.5 2345.5h28.359" fill="none" stroke="#000" stroke-linecap="round" stroke-miterlimit="10" stroke-width="18.9"/>
<path transform="matrix(.1 0 0 -.1 -.472 363.6)" d="m3619.5 1424.1h28.359" fill="none" stroke="#000" stroke-linecap="round" stroke-miterlimit="10" stroke-width="18.9"/>
<path transform="matrix(.1 0 0 -.1 -.472 363.6)" d="m3619.5 743.72h28.359" fill="none" stroke="#000" stroke-linecap="round" stroke-miterlimit="10" stroke-width="18.9"/>
<path transform="matrix(.1 0 0 -.1 -.472 363.6)" d="m784.49 2983.4h-28.32" fill="none" stroke="#000" stroke-linecap="round" stroke-miterlimit="10" stroke-width="18.9"/>
<path transform="matrix(.1 0 0 -.1 -.472 363.6)" d="m784.49 2345.5h-28.32" fill="none" stroke="#000" stroke-linecap="round" stroke-miterlimit="10" stroke-width="18.9"/>
<path transform="matrix(.1 0 0 -.1 -.472 363.6)" d="m784.49 1424.1h-28.32" fill="none" stroke="#000" stroke-linecap="round" stroke-miterlimit="10" stroke-width="18.9"/>
<path transform="matrix(.1 0 0 -.1 -.472 363.6)" d="m784.49 729.54h-28.32" fill="none" stroke="#000" stroke-linecap="round" stroke-miterlimit="10" stroke-width="18.9"/>
<path d="m153.11 221.19h-8.5039l-2.8359-28.352h-35.438l2.8359 28.352h7.0859l4.2539 28.348h35.438" fill="#fff" fill-rule="evenodd"/>
<path d="m294.86 221.19h-8.5039l-2.8359-28.352h-70.875l2.8359 28.352h7.0859l4.2539 28.348h70.875" fill="#fff" fill-rule="evenodd"/>
<path d="m294.86 129.05h-8.5039l-2.8359-28.352h-70.875l2.8359 28.352h7.0859l4.2539 28.348h70.875" fill="#fff" fill-rule="evenodd"/>
<path d="m153.11 129.05h-8.5039l-2.8359-28.352h-35.438l2.8359 28.352h7.0859l4.2539 28.348h35.438" fill="#fff" fill-rule="evenodd"/>
<path transform="matrix(.1 0 0 -.1 -.472 363.6)" d="m1493.2 3479.5v-3472.9" fill="none" stroke="#000" stroke-dasharray="47.25" stroke-miterlimit="10" stroke-width="4.725"/>
<path transform="matrix(.1 0 0 -.1 -.472 363.6)" d="m2556.4 1424.1 0.3125 0.9375 0.3125 2.2266 1.2891 4.1016 1.25 5.9766 2.1875 8.2031 2.8516 10.703 3.1641 12.266 3.7891 14.18 4.0625 15.742 4.4141 16.094 4.4141 16.68 4.7266 16.367 4.4141 16.094 4.7266 15.117 4.1016 14.141 4.375 12.93 3.7891 11.992 3.7891 10.391 3.7891 9.4531 3.1641 7.8516 3.4375 6.6016 3.1641 5.7031 3.1641 4.4141 2.8125 3.4375 2.8516 2.2266 3.125 1.5625 2.8516 0.3125 2.8125-0.3125 2.8516-1.25 3.1641-2.1875 2.8125-2.8516 3.1641-3.7891 3.1641-4.4141 3.125-5.3516 3.4766-6.2891 3.1641-6.9531 3.4375-7.5391 3.4766-8.5156 3.4766-9.1406 3.4375-9.4531 3.4766-10.391 3.4766-10.703 3.4375-11.328 3.4766-11.367 3.4766-11.953 3.4375-11.953 3.4766-12.305 3.1641-12.266 3.4766-12.305 3.125-12.266 3.1641-12.305 3.1641-12.266 3.125-11.992 2.8516-12.266 3.125-11.992 2.8516-11.953 3.1641-12.305 3.125-11.953 3.1641-12.305 3.1641-12.266 3.125-12.266 3.1641-12.305 3.4766-12.266 3.125-12.305 3.4766-11.992 3.4766-11.953 3.4375-11.328 3.4766-11.367 3.4766-10.703 3.7891-10.391 3.4375-9.4531 3.4766-9.1406 3.125-8.4766 3.4766-7.5781 3.4766-6.9141 3.1641-6.2891 3.125-5.3906 3.1641-4.4141 3.1641-3.75 2.8125-2.8516 3.1641-2.1875 2.8125-1.2891 2.8516-0.3125 3.125 0.3125 2.8516 1.6016 2.8516 2.1875 2.8125 3.4766 3.1641 4.4141 3.125 5.6641 3.4766 6.6016 3.1641 7.8906 3.7891 9.4531 3.75 10.391 4.1016 11.953 4.1016 12.93 4.1016 14.18 4.7266 15.117 4.4141 16.055 4.7266 16.367 4.4141 16.719 4.4141 16.055 4.0625 15.742 3.7891 14.18 3.1641 12.305 2.8125 10.703 2.2266 8.1641 1.25 6.0156 1.25 4.1016 0.3125 2.1875 0.3125 0.9375" fill="none" stroke="#000" stroke-linecap="round" stroke-linejoin="bevel" stroke-miterlimit="10" stroke-width="18.9"/>
<path transform="matrix(.1 0 0 -.1 -.472 363.6)" d="m2202 3479.5v-3472.9" fill="none" stroke="#000" stroke-dasharray="47.25" stroke-miterlimit="10" stroke-width="4.725"/>
<path transform="matrix(.1 0 0 -.1 -.472 363.6)" d="m2556.4 3479.5v-3472.9" fill="none" stroke="#000" stroke-dasharray="47.25" stroke-miterlimit="10" stroke-width="4.725"/>
<path transform="matrix(.1 0 0 -.1 -.472 363.6)" d="m2910.7 3479.5v-3472.9" fill="none" stroke="#000" stroke-dasharray="47.25" stroke-miterlimit="10" stroke-width="4.725"/>
<path transform="matrix(.1 0 0 -.1 -.472 363.6)" d="m1138.9 1424.1 0.3125 0.9375 0.3125 2.2266 1.2891 4.1016 1.25 5.9766 2.1875 8.2031 2.8516 10.703 3.1641 12.266 3.7891 14.18 4.0625 15.742 4.4141 16.094 4.4141 16.68 4.7266 16.367 4.4141 16.094 4.7266 15.117 4.1016 14.141 4.375 12.93 3.7891 11.992 3.7891 10.391 3.7891 9.4531 3.1641 7.8516 3.4375 6.6016 3.1641 5.7031 3.1641 4.4141 2.8125 3.4375 2.8516 2.2266 3.125 1.5625 2.8516 0.3125 2.8125-0.3125 2.8516-1.25 3.1641-2.1875 2.8125-2.8516 3.1641-3.7891 3.1641-4.4141 3.125-5.3516 3.4766-6.2891 3.1641-6.9531 3.4375-7.5391 3.4766-8.5156 3.4766-9.1406 3.4375-9.4531 3.4766-10.391 3.4766-10.703 3.4375-11.328 3.4766-11.367 3.4766-11.953 3.4375-11.953 3.4766-12.305 3.1641-12.266 3.4766-12.305 3.125-12.266 3.1641-12.305 3.1641-12.266 3.125-11.992 2.8516-12.266 3.125-11.992 2.8516-11.953 3.125-12.305 3.1641-11.953 3.1641-12.305 3.1641-12.266 3.125-12.266 3.1641-12.305 3.4766-12.266 3.125-12.305 3.4766-11.992 3.4766-11.953 3.4375-11.328 3.4766-11.367 3.4766-10.703 3.7891-10.391 3.4375-9.4531 3.4766-9.1406 3.125-8.4766 3.4766-7.5781 3.4766-6.9141 3.1641-6.2891 3.125-5.3906 3.1641-4.4141 3.1641-3.75 2.8125-2.8516 3.1641-2.1875 2.8125-1.2891 2.8516-0.3125 3.125 0.3125 2.8516 1.6016 2.8516 2.1875 2.8125 3.4766 3.1641 4.4141 3.125 5.6641 3.4766 6.6016 3.1641 7.8906 3.7891 9.4531 3.75 10.391 4.1016 11.953 4.1016 12.93 4.1016 14.18 4.7266 15.117 4.4141 16.055 4.7266 16.367 4.4141 16.719 4.4141 16.055 4.0625 15.742 3.7891 14.18 3.1641 12.305 2.8125 10.703 2.2266 8.1641 1.25 6.0156 1.25 4.1016 0.3125 2.1875 0.3125 0.9375" fill="none" stroke="#000" stroke-linecap="round" stroke-linejoin="bevel" stroke-miterlimit="10" stroke-width="18.9"/>
<path transform="matrix(.1 0 0 -.1 -.472 363.6)" d="m2202 1424.1 0.35156 0.9375 0.27344 2.2266 1.2891 4.1016 1.25 5.9766 2.2266 8.2031 2.8125 10.703 3.1641 12.266 3.75 14.18 4.1016 15.742 4.4141 16.094 4.4141 16.68 4.7266 16.367 4.4141 16.094 4.7266 15.117 4.1016 14.141 4.4141 12.93 3.75 11.992 3.7891 10.391 3.7891 9.4531 3.1641 7.8516 3.4375 6.6016 3.1641 5.7031 3.1641 4.4141 2.8125 3.4375 2.8516 2.2266 3.125 1.5625 2.8516 0.3125 2.8125-0.3125 2.8516-1.25 3.1641-2.1875 2.8125-2.8516 3.1641-3.7891 3.1641-4.4141 3.125-5.3516 3.4766-6.2891 3.1641-6.9531 3.4375-7.5391 3.4766-8.5156 3.4766-9.1406 3.4375-9.4531 3.4766-10.391 3.4766-10.703 3.4766-11.328 3.4375-11.367 6.9531-23.906 3.4375-12.305 3.1641-12.266 3.4766-12.305 3.125-12.266 3.1641-12.305 3.1641-12.266 3.125-11.992 2.8516-12.266 3.125-11.992 2.8516-11.953 3.1641-12.305 3.125-11.953 3.1641-12.305 3.1641-12.266 3.125-12.266 3.1641-12.305 3.4766-12.266 3.125-12.305 3.4766-11.992 3.4766-11.953 3.4375-11.328 3.4766-11.367 3.4766-10.703 3.75-10.391 3.4766-9.4531 3.4766-9.1406 3.125-8.4766 3.4766-7.5781 3.4766-6.9141 3.1641-6.2891 3.125-5.3906 3.1641-4.4141 3.125-3.75 2.8516-2.8516 3.1641-2.1875 2.8125-1.2891 2.8516-0.3125 3.125 0.3125 2.8516 1.6016 2.8516 2.1875 2.8125 3.4766 3.1641 4.4141 3.125 5.6641 3.4766 6.6016 3.1641 7.8906 3.75 9.4531 3.7891 10.391 4.1016 11.953 4.1016 12.93 4.1016 14.18 4.7266 15.117 4.4141 16.055 4.7266 16.367 4.4141 16.719 4.375 16.055 4.1016 15.742 3.7891 14.18 3.1641 12.305 2.8125 10.703 2.2266 8.1641 1.25 6.0156 1.25 4.1016 0.3125 2.1875 0.3125 0.9375" fill="none" stroke="#000" stroke-linecap="round" stroke-linejoin="bevel" stroke-miterlimit="10" stroke-width="18.9"/>
<path transform="matrix(.1 0 0 -.1 -.472 363.6)" d="m1138.9 2345.5h354.38" fill="none" stroke="#000" stroke-linecap="round" stroke-miterlimit="10" stroke-width="18.9"/>
<path transform="matrix(.1 0 0 -.1 -.472 363.6)" d="m2202 2345.5h708.75" fill="none" stroke="#000" stroke-linecap="round" stroke-miterlimit="10" stroke-width="18.9"/>
<path transform="matrix(.1 0 0 -.1 -.472 363.6)" d="m1138.9 3479.5v-3472.9" fill="none" stroke="#000" stroke-dasharray="47.25" stroke-miterlimit="10" stroke-width="4.725"/>
<g>
<use x="92.33" y="8.552" xlink:href="#j"/>
<use x="0.001" y="138.954" xlink:href="#l"/>
<use x="10.001372" y="138.954" xlink:href="#d"/>
<use x="15.761377" y="138.954" xlink:href="#g"/>
<use x="21.822473" y="138.954" xlink:href="#f"/>
<use x="27.883569" y="138.954" xlink:href="#c"/>
<use x="30.914117" y="138.954" xlink:href="#i"/>
<use x="36.368667" y="138.954" xlink:href="#e"/>
<use x="40.611216" y="138.954" xlink:href="#h"/>
<use x="43.641764" y="138.954" xlink:href="#d"/>
<use x="49.096314" y="138.954" xlink:href="#b"/>
<use x="0.001" y="217.857" xlink:href="#z"/>
<use x="6.217005" y="217.857" xlink:href="#p"/>
<use x="10.4901" y="217.857" xlink:href="#a"/>
<use x="15.338104" y="217.857" xlink:href="#y"/>
<use x="21.095927" y="217.857" xlink:href="#f"/>
<use x="27.157023" y="217.857" xlink:href="#a"/>
<use x="32.005027" y="217.857" xlink:href="#b"/>
<use x="38.066123" y="217.857" xlink:href="#o"/>
<use x="42.914127" y="217.857" xlink:href="#k"/>
<use x="0.001" y="231.086" xlink:href="#l"/>
<use x="10.001372" y="231.086" xlink:href="#d"/>
<use x="15.761377" y="231.086" xlink:href="#g"/>
<use x="21.822473" y="231.086" xlink:href="#f"/>
<use x="27.883569" y="231.086" xlink:href="#c"/>
<use x="30.914117" y="231.086" xlink:href="#i"/>
<use x="36.368667" y="231.086" xlink:href="#e"/>
<use x="40.611216" y="231.086" xlink:href="#h"/>
<use x="43.641764" y="231.086" xlink:href="#d"/>
<use x="49.096314" y="231.086" xlink:href="#b"/>
<use x="0.001" y="309.989" xlink:href="#x"/>
<use x="7.425733" y="309.989" xlink:href="#w"/>
<use x="13.486829" y="309.989" xlink:href="#i"/>
<use x="18.941379" y="309.989" xlink:href="#n"/>
<use x="23.243928" y="309.989" xlink:href="#a"/>
<use x="28.091932" y="309.989" xlink:href="#b"/>
<use x="34.153028" y="309.989" xlink:href="#k"/>
<use x="0.001" y="323.218" xlink:href="#l"/>
<use x="10.001372" y="323.218" xlink:href="#d"/>
<use x="15.761377" y="323.218" xlink:href="#g"/>
<use x="21.822473" y="323.218" xlink:href="#f"/>
<use x="27.883569" y="323.218" xlink:href="#c"/>
<use x="30.914117" y="323.218" xlink:href="#i"/>
<use x="36.368667" y="323.218" xlink:href="#e"/>
<use x="40.611216" y="323.218" xlink:href="#h"/>
<use x="43.641764" y="323.218" xlink:href="#d"/>
<use x="49.096314" y="323.218" xlink:href="#b"/>
<use x="0.001" y="21.309" xlink:href="#g"/>
<use x="6.062096" y="21.309" xlink:href="#i"/>
<use x="11.516646" y="21.309" xlink:href="#p"/>
<use x="15.78974" y="21.309" xlink:href="#o"/>
<use x="20.637744" y="21.309" xlink:href="#f"/>
<use x="26.69884" y="21.309" xlink:href="#n"/>
<use x="31.001389" y="21.309" xlink:href="#e"/>
<use x="35.243938" y="21.309" xlink:href="#a"/>
<use x="40.091942" y="21.309" xlink:href="#c"/>
<use x="43.12249" y="21.309" xlink:href="#c"/>
<use x="46.153038" y="21.309" xlink:href="#a"/>
<use x="51.001042" y="21.309" xlink:href="#b"/>
<use x="57.062138" y="21.309" xlink:href="#g"/>
<use x="63.123234" y="21.309" xlink:href="#a"/>
<use x="0.001" y="34.538" xlink:href="#v"/>
<use x="7.727916" y="34.538" xlink:href="#h"/>
<use x="10.758464" y="34.538" xlink:href="#e"/>
<use x="15.001012" y="34.538" xlink:href="#u"/>
<use x="18.334833" y="34.538" xlink:href="#d"/>
<use x="23.789383" y="34.538" xlink:href="#c"/>
<use x="26.819931" y="34.538" xlink:href="#t"/>
<use x="32.274481" y="34.538" xlink:href="#a"/>
<use x="340.377" y="8.552" xlink:href="#j"/>
<use x="304.947765" y="8.552" xlink:href="#j"/>
<use x="269.506574" y="8.552" xlink:href="#m"/>
<use x="234.065384" y="8.552" xlink:href="#m"/>
<use x="198.636149" y="8.552" xlink:href="#j"/>
<use x="163.194958" y="8.552" xlink:href="#j"/>
<use x="127.765723" y="8.552" xlink:href="#m"/>
<use x="0.001" y="125.725" xlink:href="#s"/>
<use x="8.182825" y="125.725" xlink:href="#r"/>
<use x="17.273378" y="125.725" xlink:href="#q"/>
<use x="23.334474" y="125.725" xlink:href="#c"/>
<use x="26.365022" y="125.725" xlink:href="#h"/>
<use x="29.39557" y="125.725" xlink:href="#e"/>
<use x="33.638119" y="125.725" xlink:href="#f"/>
<use x="39.699215" y="125.725" xlink:href="#g"/>
<use x="45.760311" y="125.725" xlink:href="#a"/>
<use x="50.608315" y="125.725" xlink:href="#b"/>
<use x="56.669411" y="125.725" xlink:href="#k"/>
</g>
</svg>
