<svg width="228pt" height="84pt" version="1.1" viewBox="0 0 228 84" xmlns="http://www.w3.org/2000/svg" xmlns:xlink="http://www.w3.org/1999/xlink">
<defs>
<g id="p">
<path d="m3.875-2.4219c0-0.65625-0.3125-1.0938-1.1406-1.0938-0.79688 0-1.1562 0.57812-1.25 0.76562v-0.76562l-1.1562 0.09375v0.26562c0.54688 0 0.60938 0.046875 0.60938 0.4375v2.0938c0 0.35938-0.09375 0.35938-0.60938 0.35938v0.26562c0.34375-0.03125 0.6875-0.03125 0.90625-0.03125 0.23438 0 0.5625 0 0.90625 0.03125v-0.26562c-0.5 0-0.60938 0-0.60938-0.35938v-1.4375c0-0.84375 0.64062-1.2344 1.125-1.2344s0.60938 0.34375 0.60938 0.84375v1.8281c0 0.35938-0.09375 0.35938-0.60938 0.35938v0.26562c0.34375-0.03125 0.70312-0.03125 0.90625-0.03125 0.23438 0 0.57812 0 0.92188 0.03125v-0.26562c-0.51562 0-0.60938 0-0.60938-0.35938z"/>
</g>
<g id="d">
<path d="m3.2969-1.8125c0.17188 0 0.21875 0 0.21875-0.1875 0-0.70312-0.39062-1.5469-1.5156-1.5469-0.98438 0-1.7656 0.8125-1.7656 1.7969 0 1.0312 0.85938 1.8281 1.875 1.8281 1 0 1.4062-0.84375 1.4062-1.0312 0-0.03125-0.03125-0.10938-0.125-0.10938s-0.10938 0.046875-0.125 0.09375c-0.28125 0.78125-0.96875 0.79688-1.1094 0.79688-0.35938 0-0.73438-0.15625-0.96875-0.53125-0.23438-0.35938-0.23438-0.875-0.23438-1.1094zm-2.3438-0.21875c0.078125-1.1094 0.75-1.2969 1.0469-1.2969 0.9375 0 0.96875 1.125 0.96875 1.2969z"/>
</g>
<g id="c">
<path d="m1.4844-3.1719h1.1875v-0.26562h-1.1875v-1.4688h-0.25c0 0.73438-0.32812 1.4844-1.0781 1.5156v0.21875h0.71875v2.1719c0 0.9375 0.71875 1.0781 1.0781 1.0781 0.54688 0 0.85938-0.46875 0.85938-1.0781v-0.4375h-0.25v0.42188c0 0.54688-0.25 0.84375-0.54688 0.84375-0.53125 0-0.53125-0.6875-0.53125-0.8125z"/>
</g>
<g id="k">
<path d="m3.3125-3.1562c0.046875-0.078125 0.0625-0.09375 0.0625-0.15625 0-0.125-0.09375-0.125-0.21875-0.125h-2.7031l-0.10938 1.3281h0.25c0.046875-0.82812 0.23438-1.1094 1.125-1.1094h0.90625l-2.3125 2.9219c-0.0625 0.078125-0.078125 0.09375-0.078125 0.15625 0 0.14062 0.09375 0.14062 0.23438 0.14062h2.7969l0.14062-1.5312h-0.25c-0.078125 0.92188-0.23438 1.2812-1.2188 1.2812h-0.9375z"/>
</g>
<g id="j">
<path d="m5.2656-2.625c0.0625-0.1875 0.20312-0.53125 0.67188-0.54688v-0.26562c-0.26562 0.03125-0.28125 0.03125-0.625 0.03125-0.25 0-0.46875 0-0.71875-0.03125v0.26562c0.34375 0.015625 0.4375 0.21875 0.4375 0.35938 0 0.10938-0.03125 0.15625-0.046875 0.20312l-0.75 1.9844-0.82812-2.1719c-0.03125-0.10938-0.03125-0.125-0.03125-0.15625 0-0.20312 0.25-0.21875 0.4375-0.21875v-0.26562c-0.3125 0.03125-0.73438 0.03125-0.8125 0.03125-0.17188 0-0.5 0-0.73438-0.03125v0.26562c0.48438 0 0.5 0.046875 0.65625 0.46875l-0.73438 1.9688-0.79688-2.0781c0-0.03125-0.03125-0.10938-0.03125-0.14062 0-0.21875 0.29688-0.21875 0.4375-0.21875v-0.26562c-0.34375 0.03125-0.70312 0.03125-0.84375 0.03125s-0.5625 0-0.78125-0.03125v0.26562c0.39062 0 0.46875 0.03125 0.5625 0.25l1.0625 2.8125c0.046875 0.125 0.078125 0.1875 0.20312 0.1875 0.14062 0 0.17188-0.09375 0.20312-0.1875l0.84375-2.2344 0.84375 2.2344c0.046875 0.09375 0.078125 0.1875 0.21875 0.1875 0.125 0 0.15625-0.078125 0.1875-0.17188z"/>
</g>
<g id="i">
<path d="m1.4688-1.8125c0-0.60938 0.25-1.4688 1.0156-1.4844-0.046875 0.03125-0.14062 0.09375-0.14062 0.28125 0 0.25 0.20312 0.35938 0.35938 0.35938 0.1875 0 0.35938-0.125 0.35938-0.35938 0-0.28125-0.25-0.5-0.60938-0.5-0.51562 0-0.875 0.39062-1.0312 0.84375h-0.015625v-0.84375l-1.125 0.09375v0.26562c0.54688 0 0.60938 0.046875 0.60938 0.4375v2.0938c0 0.35938-0.10938 0.35938-0.60938 0.35938v0.26562c0.3125-0.03125 0.75-0.03125 0.9375-0.03125 0.46875 0 0.48438 0 1 0.03125v-0.26562h-0.15625c-0.57812 0-0.59375-0.078125-0.59375-0.375z"/>
</g>
<g id="h">
<path d="m2.4062-2.1719 0.67188-0.53125c0.53125-0.42188 0.85938-0.45312 1.0625-0.46875v-0.26562c-0.20312 0.03125-0.3125 0.03125-0.64062 0.03125-0.39062 0-0.5-0.015625-0.84375-0.03125v0.26562c0.15625 0.015625 0.1875 0.10938 0.1875 0.15625 0 0.17188-0.17188 0.3125-0.23438 0.35938l-1.1406 0.92188v-3.7969l-1.1875 0.09375v0.26562c0.54688 0 0.60938 0.046875 0.60938 0.4375v4.1094c0 0.35938-0.10938 0.35938-0.60938 0.35938v0.26562c0.3125-0.03125 0.73438-0.03125 0.875-0.03125 0.15625 0 0.57812 0 0.89062 0.03125v-0.26562c-0.51562 0-0.60938 0-0.60938-0.35938v-0.76562l0.53125-0.4375c0.03125 0 0.23438 0.28125 0.35938 0.4375s0.25 0.32812 0.375 0.48438 0.28125 0.35938 0.28125 0.48438c0 0.14062-0.14062 0.15625-0.25 0.15625v0.26562c0.34375-0.03125 0.70312-0.03125 0.84375-0.03125 0.29688 0 0.46875 0 0.73438 0.03125v-0.26562c-0.32812 0-0.46875-0.03125-0.76562-0.40625z"/>
</g>
<g id="b">
<path d="m3.8906-2.5469c0-0.84375-0.078125-1.3594-0.34375-1.875-0.34375-0.70312-1-0.875-1.4375-0.875-1 0-1.375 0.75-1.4844 0.96875-0.28125 0.57812-0.29688 1.375-0.29688 1.7812 0 0.53125 0.015625 1.3281 0.40625 1.9688 0.35938 0.59375 0.95312 0.75 1.375 0.75 0.39062 0 1.0625-0.125 1.4688-0.90625 0.29688-0.57812 0.3125-1.2969 0.3125-1.8125zm-1.7812 2.4844c-0.26562 0-0.8125-0.125-0.98438-0.95312-0.09375-0.45312-0.09375-1.2031-0.09375-1.625 0-0.54688 0-1.1094 0.09375-1.5469 0.17188-0.8125 0.78125-0.89062 0.98438-0.89062 0.26562 0 0.82812 0.14062 0.98438 0.85938 0.09375 0.4375 0.09375 1.0469 0.09375 1.5781 0 0.46875 0 1.1875-0.09375 1.6406-0.17188 0.82812-0.71875 0.9375-0.98438 0.9375z"/>
</g>
<g id="a">
<path d="m2.5-5.0781c0-0.21875-0.015625-0.21875-0.23438-0.21875-0.32812 0.3125-0.75 0.5-1.5 0.5v0.26562c0.21875 0 0.64062 0 1.1094-0.20312v4.0781c0 0.29688-0.03125 0.39062-0.78125 0.39062h-0.28125v0.26562c0.32812-0.03125 1.0156-0.03125 1.375-0.03125s1.0469 0 1.375 0.03125v-0.26562h-0.28125c-0.75 0-0.78125-0.09375-0.78125-0.39062z"/>
</g>
<g id="o">
<path d="m2.0156-2.6562c0.625 0 1.0312 0.45312 1.0312 1.2969 0 1-0.5625 1.2812-0.98438 1.2812-0.4375 0-1.0469-0.15625-1.3281-0.57812 0.29688 0 0.5-0.1875 0.5-0.4375 0-0.26562-0.1875-0.4375-0.45312-0.4375-0.20312 0-0.4375 0.125-0.4375 0.45312 0 0.75 0.8125 1.25 1.7344 1.25 1.0469 0 1.7969-0.73438 1.7969-1.5312 0-0.67188-0.53125-1.2656-1.3438-1.4531 0.625-0.21875 1.1094-0.75 1.1094-1.3906s-0.71875-1.0938-1.5469-1.0938c-0.85938 0-1.5 0.45312-1.5 1.0625 0 0.29688 0.1875 0.42188 0.40625 0.42188 0.25 0 0.40625-0.17188 0.40625-0.40625 0-0.29688-0.26562-0.40625-0.4375-0.40625 0.34375-0.4375 0.95312-0.46875 1.0938-0.46875 0.20312 0 0.8125 0.0625 0.8125 0.89062 0 0.54688-0.23438 0.89062-0.34375 1.0156-0.23438 0.25-0.42188 0.26562-0.90625 0.29688-0.15625 0-0.21875 0.015625-0.21875 0.125s0.078125 0.10938 0.21875 0.10938z"/>
</g>
<g id="u">
<path d="m2.25-1.625c0.125-0.125 0.45312-0.39062 0.59375-0.5 0.48438-0.45312 0.95312-0.89062 0.95312-1.6094 0-0.95312-0.79688-1.5625-1.7812-1.5625-0.96875 0-1.5938 0.71875-1.5938 1.4375 0 0.39062 0.3125 0.4375 0.42188 0.4375 0.17188 0 0.42188-0.10938 0.42188-0.42188 0-0.40625-0.40625-0.40625-0.5-0.40625 0.23438-0.59375 0.76562-0.78125 1.1562-0.78125 0.73438 0 1.125 0.625 1.125 1.2969 0 0.82812-0.57812 1.4375-1.5312 2.3906l-1 1.0469c-0.09375 0.078125-0.09375 0.09375-0.09375 0.29688h3.1406l0.23438-1.4219h-0.25c-0.015625 0.15625-0.078125 0.54688-0.17188 0.70312-0.046875 0.0625-0.65625 0.0625-0.78125 0.0625h-1.4219z"/>
</g>
<g id="g">
<path d="m0.375-5.4375v0.26562h0.1875c0.60938 0 0.625 0.078125 0.625 0.375v4.1562c0 0.29688-0.015625 0.375-0.625 0.375h-0.1875v0.26562h3.2656c1.0938 0 1.875-0.70312 1.875-1.4531 0-0.65625-0.60938-1.2812-1.6094-1.3906 0.85938-0.1875 1.375-0.70312 1.375-1.25 0-0.71875-0.79688-1.3438-1.875-1.3438zm1.4844 2.5v-1.9219c0-0.26562 0.015625-0.3125 0.39062-0.3125h1.1094c0.78125 0 1.1406 0.60938 1.1406 1.0781 0 0.54688-0.46875 1.1562-1.3906 1.1562zm0.39062 2.6719c-0.375 0-0.39062-0.046875-0.39062-0.32812v-2.125h1.625c0.76562 0 1.2188 0.625 1.2188 1.25 0 0.64062-0.53125 1.2031-1.3438 1.2031z"/>
</g>
<g id="e">
<path d="m1.5469-4.9062c0-0.23438-0.17188-0.45312-0.4375-0.45312-0.23438 0-0.4375 0.1875-0.4375 0.4375 0 0.28125 0.23438 0.45312 0.4375 0.45312 0.28125 0 0.4375-0.23438 0.4375-0.4375zm-1.1875 1.4844v0.26562c0.51562 0 0.57812 0.046875 0.57812 0.4375v2.0938c0 0.35938-0.09375 0.35938-0.60938 0.35938v0.26562c0.3125-0.03125 0.76562-0.03125 0.89062-0.03125 0.09375 0 0.57812 0 0.85938 0.03125v-0.26562c-0.53125 0-0.5625-0.03125-0.5625-0.34375v-2.9062z"/>
</g>
<g id="n">
<path d="m5.6406-5.3906h-5.1719l-0.17188 1.8125h0.25c0.10938-1.3438 0.29688-1.5469 1.5156-1.5469 0.15625 0 0.40625 0 0.46875 0.015625 0.14062 0.03125 0.15625 0.10938 0.15625 0.3125v4.1406c0 0.28125 0 0.39062-0.82812 0.39062h-0.3125v0.26562c0.29688-0.03125 1.1562-0.03125 1.5-0.03125s1.2031 0 1.5 0.03125v-0.26562h-0.29688c-0.82812 0-0.82812-0.10938-0.82812-0.39062v-4.1406c0-0.1875 0-0.28125 0.15625-0.3125 0.078125-0.015625 0.3125-0.015625 0.46875-0.015625 1.2188 0 1.3906 0.20312 1.5 1.5469h0.25z"/>
</g>
<g id="m">
<path d="m1.5156-5.5312-1.1875 0.09375v0.26562c0.54688 0 0.60938 0.046875 0.60938 0.4375v4.1094c0 0.35938-0.09375 0.35938-0.60938 0.35938v0.26562c0.3125-0.03125 0.76562-0.03125 0.90625-0.03125 0.15625 0 0.57812 0 0.89062 0.03125v-0.26562c-0.5 0-0.60938 0-0.60938-0.35938z"/>
</g>
<g id="l">
<path d="m2.3438-1.4531v-0.51562h-2.25v0.51562z"/>
</g>
<g id="f">
<path d="m1.1094-4.4844c0.10938 0.03125 0.42188 0.125 0.76562 0.125 1 0 1.5938-0.70312 1.5938-0.82812 0-0.09375-0.046875-0.10938-0.09375-0.10938-0.015625 0-0.03125 0-0.09375 0.03125-0.3125 0.125-0.6875 0.21875-1.1094 0.21875-0.46875 0-0.85938-0.10938-1.1094-0.21875-0.078125-0.03125-0.09375-0.03125-0.10938-0.03125-0.09375 0-0.09375 0.078125-0.09375 0.23438v2.3281c0 0.14062 0 0.23438 0.125 0.23438 0.0625 0 0.078125-0.03125 0.125-0.09375 0.09375-0.10938 0.39062-0.51562 1.0781-0.51562 0.4375 0 0.65625 0.35938 0.73438 0.51562 0.125 0.28125 0.14062 0.65625 0.14062 0.95312s0 0.73438-0.21875 1.0781c-0.15625 0.25-0.48438 0.48438-0.90625 0.48438-0.51562 0-1.0156-0.3125-1.2031-0.84375 0.015625 0.015625 0.078125 0.015625 0.078125 0.015625 0.21875 0 0.40625-0.14062 0.40625-0.39062 0-0.29688-0.23438-0.40625-0.39062-0.40625s-0.40625 0.078125-0.40625 0.42188c0 0.71875 0.625 1.4531 1.5312 1.4531 1 0 1.8438-0.78125 1.8438-1.7656 0-0.92188-0.67188-1.75-1.6094-1.75-0.39062 0-0.76562 0.125-1.0781 0.40625z"/>
</g>
<g id="t">
<path d="m5.1719-4.7969c0-0.29688 0.03125-0.375 0.64062-0.375h0.17188v-0.26562c-0.67188 0.015625-0.6875 0.015625-1.1719 0.015625s-0.5 0-1.1719-0.015625v0.26562h0.17188c0.625 0 0.64062 0.078125 0.64062 0.375v1.8281h-2.5625v-1.8281c0-0.29688 0.015625-0.375 0.625-0.375h0.17188v-0.26562c-0.67188 0.015625-0.6875 0.015625-1.1719 0.015625-0.46875 0-0.48438 0-1.1719-0.015625v0.26562h0.1875c0.60938 0 0.625 0.078125 0.625 0.375v4.1562c0 0.29688-0.015625 0.375-0.625 0.375h-0.1875v0.26562c0.6875-0.03125 0.70312-0.03125 1.1719-0.03125 0.48438 0 0.5 0 1.1719 0.03125v-0.26562h-0.17188c-0.60938 0-0.625-0.078125-0.625-0.375v-2.0625h2.5625v2.0625c0 0.29688-0.015625 0.375-0.64062 0.375h-0.17188v0.26562c0.67188-0.03125 0.6875-0.03125 1.1719-0.03125s0.5 0 1.1719 0.03125v-0.26562h-0.17188c-0.60938 0-0.64062-0.078125-0.64062-0.375z"/>
</g>
<g id="s">
<path d="m3.9844-1.7031c0-0.98438-0.82812-1.8438-1.875-1.8438s-1.875 0.85938-1.875 1.8438c0 1 0.85938 1.7812 1.875 1.7812 1.0312 0 1.875-0.78125 1.875-1.7812zm-1.875 1.5312c-0.42188 0-0.76562-0.20312-0.9375-0.48438-0.20312-0.32812-0.21875-0.71875-0.21875-1.1094 0-0.3125 0-0.78125 0.23438-1.125 0.21875-0.28125 0.54688-0.4375 0.92188-0.4375 0.42188 0 0.76562 0.20312 0.9375 0.46875 0.21875 0.34375 0.23438 0.76562 0.23438 1.0938 0 0.35938-0.015625 0.79688-0.25 1.1406-0.20312 0.3125-0.5625 0.45312-0.92188 0.45312z"/>
</g>
<g id="r">
<path d="m2.8438-3.3438c0-0.125 0-0.20312-0.10938-0.20312-0.046875 0-0.0625 0-0.1875 0.125-0.015625 0-0.09375 0.078125-0.10938 0.078125s-0.03125 0-0.078125-0.03125c-0.125-0.09375-0.35938-0.17188-0.71875-0.17188-1.1094 0-1.3594 0.59375-1.3594 0.98438s0.29688 0.625 0.3125 0.65625c0.32812 0.23438 0.5 0.26562 1.0469 0.35938 0.375 0.078125 0.98438 0.1875 0.98438 0.71875 0 0.3125-0.20312 0.6875-0.9375 0.6875-0.8125 0-1.0469-0.625-1.1406-1.0469-0.03125-0.10938-0.046875-0.14062-0.14062-0.14062-0.125 0-0.125 0.0625-0.125 0.21875v0.98438c0 0.125 0 0.20312 0.09375 0.20312 0.0625 0 0.0625 0 0.20312-0.15625 0.046875-0.046875 0.125-0.14062 0.17188-0.1875 0.35938 0.32812 0.73438 0.34375 0.9375 0.34375 1.0156 0 1.3594-0.57812 1.3594-1.1094 0-0.375-0.21875-0.9375-1.1719-1.1094-0.0625-0.015625-0.51562-0.09375-0.54688-0.09375-0.25-0.0625-0.625-0.23438-0.625-0.54688 0-0.23438 0.1875-0.57812 0.9375-0.57812 0.89062 0 0.9375 0.65625 0.95312 0.875 0 0.0625 0.0625 0.09375 0.10938 0.09375 0.14062 0 0.14062-0.0625 0.14062-0.20312z"/>
</g>
<g id="q">
<path d="m6.2188-2.4219c0-0.64062-0.28125-1.0938-1.1406-1.0938-0.73438 0-1.1094 0.5-1.2344 0.73438-0.14062-0.57812-0.59375-0.73438-1.1094-0.73438-0.78125 0-1.1406 0.54688-1.25 0.76562v-0.76562l-1.1562 0.09375v0.26562c0.54688 0 0.60938 0.046875 0.60938 0.4375v2.0938c0 0.35938-0.09375 0.35938-0.60938 0.35938v0.26562c0.34375-0.03125 0.6875-0.03125 0.90625-0.03125 0.23438 0 0.5625 0 0.90625 0.03125v-0.26562c-0.5 0-0.60938 0-0.60938-0.35938v-1.4375c0-0.84375 0.64062-1.2344 1.1406-1.2344 0.51562 0 0.60938 0.40625 0.60938 0.84375v1.8281c0 0.35938-0.10938 0.35938-0.60938 0.35938v0.26562c0.34375-0.03125 0.6875-0.03125 0.90625-0.03125 0.23438 0 0.5625 0 0.90625 0.03125v-0.26562c-0.51562 0-0.60938 0-0.60938-0.35938v-1.4375c0-0.84375 0.64062-1.2344 1.1406-1.2344 0.51562 0 0.60938 0.40625 0.60938 0.84375v1.8281c0 0.35938-0.10938 0.35938-0.60938 0.35938v0.26562c0.34375-0.03125 0.6875-0.03125 0.90625-0.03125 0.23438 0 0.5625 0 0.90625 0.03125v-0.26562c-0.51562 0-0.60938 0-0.60938-0.35938z"/>
</g>
<clipPath id="ae">
<path d="m0.52734 12h227.47v16h-227.47z"/>
</clipPath>
<clipPath id="ad">
<path d="m128 5h100v1h-100z"/>
</clipPath>
<clipPath id="ac">
<path d="m0.52734-1.5078v88h228v-88zm222.11 9.2422h5.5156v-3.7812h-5.5156l4.7266 1.8906z" clip-rule="evenodd"/>
</clipPath>
<clipPath id="ab">
<path d="m0.52734 5h100.47v1h-100.47z"/>
</clipPath>
<clipPath id="aa">
<path d="m0.52734-1.5078v88h228v-88zm5.3906 5.4609h-5.5117v3.7812h5.5117l-4.7266-1.8906z" clip-rule="evenodd"/>
</clipPath>
<clipPath id="z">
<path d="m0.52734 0h9.4727v12h-9.4727z"/>
</clipPath>
<clipPath id="y">
<path d="m114 69h36v1h-36z"/>
</clipPath>
<clipPath id="x">
<path d="m0.52734-1.5078v88h228v-88zm144.15 73.027h5.5117v-3.7773h-5.5117l4.7266 1.8906zm-25.359-3.7773h-5.5117v3.7773h5.5117l-4.7227-1.8867z" clip-rule="evenodd"/>
</clipPath>
<clipPath id="w">
<path d="m149 69h79v1h-79z"/>
</clipPath>
<clipPath id="v">
<path d="m0.52734-1.5078v88h228v-88zm222.11 73.027h5.5156v-3.7773h-5.5156l4.7266 1.8906zm-67.883-3.7773h-5.5117v3.7773h5.5117l-4.7227-1.8867z" clip-rule="evenodd"/>
</clipPath>
</defs>
<path transform="matrix(.1 0 0 -.1 .528 86.494)" d="m1137.5 522.99v-212.62" fill="none" stroke="#000" stroke-miterlimit="10" stroke-width="2.3625"/>
<path transform="matrix(.1 0 0 -.1 .528 86.494)" d="m570.5 522.99v-212.62" fill="none" stroke="#000" stroke-miterlimit="10" stroke-width="2.3625"/>
<path transform="matrix(.1 0 0 -.1 .528 86.494)" d="m1491.9 522.99v-212.62" fill="none" stroke="#000" stroke-miterlimit="10" stroke-width="2.3625"/>
<g clip-path="url(#ae)">
<path transform="matrix(.1 0 0 -.1 .528 86.494)" d="m3.5091 735.64v-141.76h2268v141.76" fill="none" stroke="#000" stroke-miterlimit="10" stroke-width="2.3625"/>
</g>
<path transform="matrix(.1 0 0 -.1 .528 86.494)" d="m74.368 664.74v-70.859" fill="none" stroke="#000" stroke-miterlimit="10" stroke-width="2.3625"/>
<path transform="matrix(.1 0 0 -.1 .528 86.494)" d="m145.27 664.74v-70.859" fill="none" stroke="#000" stroke-miterlimit="10" stroke-width="2.3625"/>
<path transform="matrix(.1 0 0 -.1 .528 86.494)" d="m216.13 664.74v-70.859" fill="none" stroke="#000" stroke-miterlimit="10" stroke-width="2.3625"/>
<path transform="matrix(.1 0 0 -.1 .528 86.494)" d="m286.99 664.74v-70.859" fill="none" stroke="#000" stroke-miterlimit="10" stroke-width="2.3625"/>
<path transform="matrix(.1 0 0 -.1 .528 86.494)" d="m357.88 664.74v-70.859" fill="none" stroke="#000" stroke-miterlimit="10" stroke-width="2.3625"/>
<path transform="matrix(.1 0 0 -.1 .528 86.494)" d="m428.74 664.74v-70.859" fill="none" stroke="#000" stroke-miterlimit="10" stroke-width="2.3625"/>
<path transform="matrix(.1 0 0 -.1 .528 86.494)" d="m499.64 664.74v-70.859" fill="none" stroke="#000" stroke-miterlimit="10" stroke-width="2.3625"/>
<path transform="matrix(.1 0 0 -.1 .528 86.494)" d="m570.5 664.74v-70.859" fill="none" stroke="#000" stroke-miterlimit="10" stroke-width="2.3625"/>
<path transform="matrix(.1 0 0 -.1 .528 86.494)" d="m641.36 664.74v-70.859" fill="none" stroke="#000" stroke-miterlimit="10" stroke-width="2.3625"/>
<path transform="matrix(.1 0 0 -.1 .528 86.494)" d="m712.26 664.74v-70.859" fill="none" stroke="#000" stroke-miterlimit="10" stroke-width="2.3625"/>
<path transform="matrix(.1 0 0 -.1 .528 86.494)" d="m783.12 664.74v-70.859" fill="none" stroke="#000" stroke-miterlimit="10" stroke-width="2.3625"/>
<path transform="matrix(.1 0 0 -.1 .528 86.494)" d="m854.02 664.74v-70.859" fill="none" stroke="#000" stroke-miterlimit="10" stroke-width="2.3625"/>
<path transform="matrix(.1 0 0 -.1 .528 86.494)" d="m924.88 664.74v-70.859" fill="none" stroke="#000" stroke-miterlimit="10" stroke-width="2.3625"/>
<path transform="matrix(.1 0 0 -.1 .528 86.494)" d="m995.74 664.74v-70.859" fill="none" stroke="#000" stroke-miterlimit="10" stroke-width="2.3625"/>
<path transform="matrix(.1 0 0 -.1 .528 86.494)" d="m1066.6 664.74v-70.859" fill="none" stroke="#000" stroke-miterlimit="10" stroke-width="2.3625"/>
<path transform="matrix(.1 0 0 -.1 .528 86.494)" d="m1137.5 664.74v-70.859" fill="none" stroke="#000" stroke-miterlimit="10" stroke-width="2.3625"/>
<path transform="matrix(.1 0 0 -.1 .528 86.494)" d="m1208.4 664.74v-70.859" fill="none" stroke="#000" stroke-miterlimit="10" stroke-width="2.3625"/>
<path transform="matrix(.1 0 0 -.1 .528 86.494)" d="m1279.3 664.74v-70.859" fill="none" stroke="#000" stroke-miterlimit="10" stroke-width="2.3625"/>
<path transform="matrix(.1 0 0 -.1 .528 86.494)" d="m1350.1 664.74v-70.859" fill="none" stroke="#000" stroke-miterlimit="10" stroke-width="2.3625"/>
<path transform="matrix(.1 0 0 -.1 .528 86.494)" d="m1421 664.74v-70.859" fill="none" stroke="#000" stroke-miterlimit="10" stroke-width="2.3625"/>
<path transform="matrix(.1 0 0 -.1 .528 86.494)" d="m1491.9 664.74v-70.859" fill="none" stroke="#000" stroke-miterlimit="10" stroke-width="2.3625"/>
<path transform="matrix(.1 0 0 -.1 .528 86.494)" d="m1562.8 664.74v-70.859" fill="none" stroke="#000" stroke-miterlimit="10" stroke-width="2.3625"/>
<path transform="matrix(.1 0 0 -.1 .528 86.494)" d="m1633.6 664.74v-70.859" fill="none" stroke="#000" stroke-miterlimit="10" stroke-width="2.3625"/>
<path transform="matrix(.1 0 0 -.1 .528 86.494)" d="m1704.5 664.74v-70.859" fill="none" stroke="#000" stroke-miterlimit="10" stroke-width="2.3625"/>
<path transform="matrix(.1 0 0 -.1 .528 86.494)" d="m1775.4 664.74v-70.859" fill="none" stroke="#000" stroke-miterlimit="10" stroke-width="2.3625"/>
<path transform="matrix(.1 0 0 -.1 .528 86.494)" d="m1846.2 664.74v-70.859" fill="none" stroke="#000" stroke-miterlimit="10" stroke-width="2.3625"/>
<path transform="matrix(.1 0 0 -.1 .528 86.494)" d="m1917.1 664.74v-70.859" fill="none" stroke="#000" stroke-miterlimit="10" stroke-width="2.3625"/>
<path transform="matrix(.1 0 0 -.1 .528 86.494)" d="m1988 664.74v-70.859" fill="none" stroke="#000" stroke-miterlimit="10" stroke-width="2.3625"/>
<path transform="matrix(.1 0 0 -.1 .528 86.494)" d="m2058.9 664.74v-70.859" fill="none" stroke="#000" stroke-miterlimit="10" stroke-width="2.3625"/>
<path transform="matrix(.1 0 0 -.1 .528 86.494)" d="m2129.8 664.74v-70.859" fill="none" stroke="#000" stroke-miterlimit="10" stroke-width="2.3625"/>
<path transform="matrix(.1 0 0 -.1 .528 86.494)" d="m2200.6 664.74v-70.859" fill="none" stroke="#000" stroke-miterlimit="10" stroke-width="2.3625"/>
<g clip-path="url(#ad)">
<g clip-path="url(#ac)">
<path transform="matrix(.1 0 0 -.1 .528 86.494)" d="m1279.3 806.5h992.27" fill="none" stroke="#000" stroke-miterlimit="10" stroke-width="2.3625"/>
</g>
</g>
<path d="m222.64 7.7344 4.7266-1.8906-4.7266-1.8906 0.94531 1.8906-0.94531 1.8906" fill-rule="evenodd"/>
<path transform="matrix(.1 0 0 -.1 .528 86.494)" d="m2221.1 787.6 47.266 18.906-47.266 18.906 9.4531-18.906z" fill="none" stroke="#000" stroke-miterlimit="10" stroke-width="2.3625"/>
<g clip-path="url(#ab)">
<g clip-path="url(#aa)">
<path transform="matrix(.1 0 0 -.1 .528 86.494)" d="m3.5091 806.5h992.23" fill="none" stroke="#000" stroke-miterlimit="10" stroke-width="2.3625"/>
</g>
</g>
<path d="m5.918 3.9531-4.7266 1.8906 4.7266 1.8906-0.94531-1.8906 0.94531-1.8906" fill-rule="evenodd"/>
<g clip-path="url(#z)">
<path transform="matrix(.1 0 0 -.1 .528 86.494)" d="m53.9 825.41-47.266-18.906 47.266-18.906-9.4531 18.906z" fill="none" stroke="#000" stroke-miterlimit="10" stroke-width="2.3625"/>
</g>
<g clip-path="url(#y)">
<g clip-path="url(#x)">
<path transform="matrix(.1 0 0 -.1 .528 86.494)" d="m1137.5 168.61h354.38" fill="none" stroke="#000" stroke-miterlimit="10" stroke-width="2.3625"/>
</g>
</g>
<path d="m119.32 67.742-4.7227 1.8906 4.7227 1.8867-0.94531-1.8867 0.94531-1.8906" fill-rule="evenodd"/>
<path transform="matrix(.1 0 0 -.1 .528 86.494)" d="m1187.9 187.52-47.227-18.906 47.227-18.867-9.4531 18.867z" fill="none" stroke="#000" stroke-miterlimit="10" stroke-width="2.3625"/>
<path d="m144.68 71.52 4.7266-1.8867-4.7266-1.8906 0.94531 1.8906-0.94531 1.8867" fill-rule="evenodd"/>
<path transform="matrix(.1 0 0 -.1 .528 86.494)" d="m1441.5 149.74 47.266 18.867-47.266 18.906 9.4531-18.906z" fill="none" stroke="#000" stroke-miterlimit="10" stroke-width="2.3625"/>
<g clip-path="url(#w)">
<g clip-path="url(#v)">
<path transform="matrix(.1 0 0 -.1 .528 86.494)" d="m1491.9 168.61h779.65" fill="none" stroke="#000" stroke-miterlimit="10" stroke-width="2.3625"/>
</g>
</g>
<path d="m154.75 67.742-4.7227 1.8906 4.7227 1.8867-0.94531-1.8867 0.94531-1.8906" fill-rule="evenodd"/>
<path transform="matrix(.1 0 0 -.1 .528 86.494)" d="m1542.3 187.52-47.227-18.906 47.227-18.867-9.4531 18.867z" fill="none" stroke="#000" stroke-miterlimit="10" stroke-width="2.3625"/>
<path d="m222.64 71.52 4.7266-1.8867-4.7266-1.8906 0.94531 1.8906-0.94531 1.8867" fill-rule="evenodd"/>
<path transform="matrix(.1 0 0 -.1 .528 86.494)" d="m2221.1 149.74 47.266 18.867-47.266 18.906 9.4531-18.906z" fill="none" stroke="#000" stroke-miterlimit="10" stroke-width="2.3625"/>
<path transform="matrix(.1 0 0 -.1 .528 86.494)" d="m2271.5 522.99v-212.62" fill="none" stroke="#000" stroke-miterlimit="10" stroke-width="2.3625"/>
<path transform="matrix(.1 0 0 -.1 .528 86.494)" d="m145.27 522.99v-212.62" fill="none" stroke="#000" stroke-miterlimit="10" stroke-width="2.3625"/>
<g>
<use x="171.535" y="55.406" xlink:href="#p"/>
<use x="176.23975" y="55.406" xlink:href="#d"/>
<use x="180.003231" y="55.406" xlink:href="#c"/>
<use x="183.296477" y="55.406" xlink:href="#k"/>
<use x="187.059958" y="55.406" xlink:href="#j"/>
<use x="192.94508" y="55.406" xlink:href="#d"/>
<use x="196.708561" y="55.406" xlink:href="#i"/>
<use x="200.008979" y="55.406" xlink:href="#h"/>
<use x="10.129" y="44.066" xlink:href="#b"/>
<use x="17.21681" y="44.066" xlink:href="#b"/>
<use x="3.040393" y="44.066" xlink:href="#a"/>
<use x="24.299041" y="44.066" xlink:href="#b"/>
<use x="31.386851" y="44.066" xlink:href="#b"/>
<use x="38.474661" y="44.066" xlink:href="#a"/>
<use x="45.562471" y="44.066" xlink:href="#a"/>
<use x="52.650281" y="44.066" xlink:href="#a"/>
<use x="59.73809" y="44.066" xlink:href="#b"/>
<use x="66.8259" y="44.066" xlink:href="#b"/>
<use x="73.91371" y="44.066" xlink:href="#a"/>
<use x="81.00152" y="44.066" xlink:href="#a"/>
<use x="86.670652" y="44.066" xlink:href="#b"/>
<use x="95.17714" y="44.066" xlink:href="#b"/>
<use x="102.25698" y="44.066" xlink:href="#a"/>
<use x="109.34479" y="44.066" xlink:href="#b"/>
<use x="102.834" y="5.796" xlink:href="#o"/>
<use x="107.068514" y="5.796" xlink:href="#u"/>
<use x="114.124444" y="5.796" xlink:href="#g"/>
<use x="120.118756" y="5.796" xlink:href="#e"/>
<use x="122.470732" y="5.796" xlink:href="#c"/>
<use x="124.375" y="42.649" xlink:href="#n"/>
<use x="129.781916" y="42.649" xlink:href="#d"/>
<use x="133.545397" y="42.649" xlink:href="#e"/>
<use x="135.905344" y="42.649" xlink:href="#m"/>
<use x="138.25732" y="42.649" xlink:href="#l"/>
<use x="121.96" y="83.754" xlink:href="#f"/>
<use x="129.01593" y="83.754" xlink:href="#g"/>
<use x="135.010242" y="83.754" xlink:href="#e"/>
<use x="137.362218" y="83.754" xlink:href="#c"/>
<use x="175.118176" y="83.754" xlink:href="#a"/>
<use x="179.35269" y="83.754" xlink:href="#a"/>
<use x="186.41659" y="83.754" xlink:href="#g"/>
<use x="192.410902" y="83.754" xlink:href="#e"/>
<use x="194.762878" y="83.754" xlink:href="#c"/>
<use x="22.903" y="69.58" xlink:href="#a"/>
<use x="27.137514" y="69.58" xlink:href="#o"/>
<use x="31.372028" y="69.58" xlink:href="#f"/>
<use x="81.713571" y="69.58" xlink:href="#f"/>
<use x="85.948085" y="69.58" xlink:href="#b"/>
<use x="116.256" y="55.406" xlink:href="#p"/>
<use x="120.96075" y="55.406" xlink:href="#d"/>
<use x="124.724231" y="55.406" xlink:href="#c"/>
<use x="128.017477" y="55.406" xlink:href="#k"/>
<use x="131.780958" y="55.406" xlink:href="#j"/>
<use x="137.66608" y="55.406" xlink:href="#d"/>
<use x="141.429561" y="55.406" xlink:href="#i"/>
<use x="144.729979" y="55.406" xlink:href="#h"/>
<use x="163.522" y="42.649" xlink:href="#t"/>
<use x="169.864606" y="42.649" xlink:href="#s"/>
<use x="174.09912" y="42.649" xlink:href="#r"/>
<use x="177.439389" y="42.649" xlink:href="#c"/>
<use x="183.554049" y="42.649" xlink:href="#e"/>
<use x="185.906026" y="42.649" xlink:href="#q"/>
<use x="195.784168" y="42.649" xlink:href="#n"/>
<use x="201.199054" y="42.649" xlink:href="#d"/>
<use x="204.962535" y="42.649" xlink:href="#e"/>
<use x="207.314511" y="42.649" xlink:href="#m"/>
<use x="209.666488" y="42.649" xlink:href="#l"/>
</g>
</svg>
