<svg width="765pt" height="533pt" version="1.1" viewBox="0 0 765 533" xmlns="http://www.w3.org/2000/svg" xmlns:xlink="http://www.w3.org/1999/xlink">
<defs>
<g id="t">
<path d="m7.5-14.281c-0.10938-0.26562-0.14062-0.32812-0.35938-0.32812-0.20312 0-0.23438 0.0625-0.34375 0.32812l-4.375 12.406c-0.39062 1.1094-1.2188 1.3438-1.9531 1.3438v0.53125c0.375-0.046875 1.2031-0.046875 1.5938-0.046875 0.51562 0 1.3438 0 1.8438 0.046875v-0.53125c-0.96875-0.046875-1.125-0.70312-1.125-0.95312 0-0.1875 0.046875-0.29688 0.09375-0.42188l1.0938-3.0781h5.4062l1.25 3.5156c0.09375 0.25 0.09375 0.29688 0.09375 0.375 0 0.5625-0.89062 0.5625-1.2812 0.5625v0.53125c0.59375-0.046875 1.6719-0.046875 2.3125-0.046875 0.54688 0 1.5781 0 2.0625 0.046875v-0.53125c-1.0938 0-1.4531 0-1.7344-0.76562zm-0.82812 1.6562 2.5156 7.1094h-5.0312z"/>
</g>
<g id="aa">
<path d="m6.0312-14.109v0.53125c1.2188 0 1.4062 0.125 1.4062 1.125v4.8281c-0.078125-0.09375-0.9375-1.4219-2.6094-1.4219-2.0938 0-4.1406 1.875-4.1406 4.6094 0 2.7031 1.9219 4.6094 3.9375 4.6094 1.75 0 2.6719-1.375 2.7656-1.5156v1.5156l2.5-0.17188v-0.53125c-1.2188 0-1.4062-0.125-1.4062-1.125v-12.672zm1.3594 11.625c0 0.625-0.375 1.1875-0.84375 1.5938-0.70312 0.625-1.4062 0.71875-1.7969 0.71875-0.59375 0-2.75-0.29688-2.75-4.25 0-4.0469 2.4062-4.2969 2.9375-4.2969 0.95312 0 1.7188 0.53125 2.1875 1.2812 0.26562 0.4375 0.26562 0.5 0.26562 0.875z"/>
</g>
<g id="s">
<path d="m3.0938-4.875c0-1.9844 0.85938-3.8438 2.4062-3.8438 0.14062 0 0.28125 0.015625 0.42188 0.078125 0 0-0.45312 0.15625-0.45312 0.6875 0 0.5 0.39062 0.70312 0.70312 0.70312 0.25 0 0.70312-0.14062 0.70312-0.71875 0-0.67188-0.65625-1.0781-1.3594-1.0781-1.5625 0-2.25 1.5312-2.4531 2.25h-0.03125v-2.25l-2.3906 0.23438v0.53125c1.2188 0 1.4062 0.125 1.4062 1.1094v5.75c0 0.78125-0.078125 0.89062-1.4062 0.89062v0.53125c0.5-0.046875 1.4531-0.046875 1.9844-0.046875 0.59375 0 1.6562 0 2.2031 0.046875v-0.53125c-1.4844 0-1.7344 0-1.7344-0.9375z"/>
</g>
<g id="j">
<path d="m7.875-4.8594c0.078125-0.078125 0.078125-0.125 0.078125-0.32812 0-2.1094-1.1094-3.9375-3.4688-3.9375-2.1875 0-3.9219 2.0781-3.9219 4.625 0 2.6875 1.9531 4.6719 4.1406 4.6719 2.3125 0 3.2344-2.2031 3.2344-2.625 0-0.15625-0.125-0.15625-0.17188-0.15625-0.14062 0-0.17188 0.046875-0.25 0.29688-0.45312 1.4062-1.5938 2.1094-2.6562 2.1094-0.89062 0-1.7812-0.5-2.3438-1.4062-0.64062-1.0625-0.64062-2.2812-0.64062-3.25zm-5.9688-0.3125c0.14062-2.9688 1.7344-3.625 2.5625-3.625 1.3906 0 2.3438 1.3125 2.375 3.625z"/>
</g>
<g id="g">
<path d="m6.375-8.7188c0-0.375-0.015625-0.39062-0.14062-0.39062-0.078125 0-0.09375 0.015625-0.34375 0.32812-0.0625 0.078125-0.25 0.29688-0.3125 0.375-0.65625-0.70312-1.5938-0.71875-1.9375-0.71875-2.2969 0-3.125 1.1875-3.125 2.3906 0 1.8594 2.1094 2.2969 2.7031 2.4219 1.3125 0.26562 1.7656 0.34375 2.1875 0.71875 0.28125 0.25 0.73438 0.70312 0.73438 1.4531 0 0.85938-0.5 1.9688-2.4062 1.9688-1.7969 0-2.4375-1.3594-2.8125-3.1719-0.046875-0.29688-0.046875-0.3125-0.21875-0.3125s-0.1875 0.015625-0.1875 0.4375v2.9688c0 0.375 0.015625 0.39062 0.14062 0.39062 0.10938 0 0.125-0.015625 0.23438-0.1875 0.125-0.1875 0.4375-0.67188 0.5625-0.875 0.40625 0.54688 1.125 1.0938 2.2812 1.0938 2.0469 0 3.1406-1.125 3.1406-2.7344 0-1.0469-0.54688-1.6094-0.82812-1.8594-0.60938-0.64062-1.3438-0.78125-2.2031-0.95312-1.1406-0.25-2.5781-0.53125-2.5781-1.7969 0-0.53125 0.28125-1.6719 2.375-1.6719 2.2031 0 2.3281 2.0625 2.375 2.7344 0.015625 0.09375 0.125 0.125 0.1875 0.125 0.17188 0 0.17188-0.0625 0.17188-0.42188z"/>
</g>
<g id="a">
<path d="m8.6094-3.2031h-0.375c-0.20312 1.4688-0.35938 1.7188-0.45312 1.8438-0.09375 0.15625-1.5781 0.15625-1.875 0.15625h-3.9688c0.75-0.79688 2.1875-2.2656 3.9531-3.9688 1.25-1.1875 2.7188-2.5938 2.7188-4.6406 0-2.4375-1.9375-3.8438-4.1094-3.8438-2.2656 0-3.6562 2-3.6562 3.8594 0 0.8125 0.60938 0.92188 0.84375 0.92188 0.21875 0 0.82812-0.125 0.82812-0.85938 0-0.64062-0.53125-0.82812-0.82812-0.82812-0.125 0-0.23438 0.03125-0.32812 0.0625 0.39062-1.75 1.5938-2.6094 2.8594-2.6094 1.7969 0 2.9688 1.4219 2.9688 3.2969 0 1.7969-1.0469 3.3438-2.2344 4.6875l-4.1094 4.6562v0.46875h7.2812z"/>
</g>
<g id="e">
<path d="m6.9375-13.359c0-0.4375-0.015625-0.45312-0.39062-0.45312l-6.1406 9.7656v0.53125h5.3438v2.0312c0 0.73438-0.046875 0.95312-1.5 0.95312h-0.39062v0.53125c0.67188-0.046875 1.7812-0.046875 2.4844-0.046875s1.8125 0 2.4688 0.046875v-0.53125h-0.39062c-1.4375 0-1.4844-0.21875-1.4844-0.95312v-2.0312h2.1094v-0.53125h-2.1094zm-1.1406 1.3594v7.9531h-4.9688z"/>
</g>
<g id="c">
<path d="m3.4219-0.84375c0-0.51562-0.40625-0.84375-0.84375-0.84375-0.40625 0-0.84375 0.32812-0.84375 0.84375s0.40625 0.84375 0.84375 0.84375c0.42188 0 0.84375-0.32812 0.84375-0.84375z"/>
</g>
<g id="d">
<path d="m5.5-13.203c0-0.4375-0.03125-0.45312-0.3125-0.45312-0.8125 0.96875-2.0312 1.2812-3.1875 1.3281-0.0625 0-0.15625 0-0.1875 0.03125-0.015625 0.046875-0.015625 0.09375-0.015625 0.51562 0.64062 0 1.7188-0.10938 2.5469-0.60938v10.875c0 0.73438-0.046875 0.98438-1.8281 0.98438h-0.60938v0.53125c0.98438-0.015625 2.0156-0.046875 3.0156-0.046875 0.98438 0 2.0156 0.03125 3.0156 0.046875v-0.53125h-0.625c-1.7812 0-1.8125-0.23438-1.8125-0.98438z"/>
</g>
<g id="p">
<path d="m8.6719-6.625c0-1.2656-0.015625-3.4062-0.89062-5.0625-0.76562-1.4531-1.9844-1.9688-3.0469-1.9688-1 0-2.25 0.45312-3.0469 1.9375-0.8125 1.5625-0.90625 3.4844-0.90625 5.0938 0 1.1719 0.03125 2.9688 0.67188 4.5312 0.875 2.1406 2.4688 2.4219 3.2812 2.4219 0.95312 0 2.3906-0.39062 3.2344-2.3594 0.625-1.4219 0.70312-3.0938 0.70312-4.5938zm-3.9375 6.625c-1.3281 0-2.1094-1.1406-2.4062-2.7031-0.21875-1.2188-0.21875-3-0.21875-4.1562 0-1.5938 0-2.9062 0.26562-4.1719 0.39062-1.75 1.5469-2.2969 2.3594-2.2969 0.84375 0 1.9375 0.5625 2.3281 2.25 0.26562 1.1875 0.29688 2.5625 0.29688 4.2188 0 1.3438 0 3-0.25 4.2188-0.4375 2.25-1.6562 2.6406-2.375 2.6406z"/>
</g>
<g id="ao">
<path d="m8.4062-14.75c0.10938-0.26562 0.10938-0.3125 0.10938-0.34375 0-0.25-0.1875-0.375-0.35938-0.375-0.25 0-0.32812 0.15625-0.40625 0.40625l-6.7031 19.484c-0.09375 0.26562-0.09375 0.3125-0.09375 0.34375 0 0.25 0.1875 0.375 0.34375 0.375 0.25 0 0.32812-0.15625 0.42188-0.40625z"/>
</g>
<g id="n">
<path d="m11.594-12.641c0-0.9375 0.21875-0.9375 1.6406-0.9375v-0.53125c-0.59375 0.046875-1.6875 0.046875-2.3281 0.046875s-1.7344 0-2.3281-0.046875v0.53125c1.4219 0 1.6406 0 1.6406 0.9375v5.0469h-6.1562v-5.0469c0-0.9375 0.23438-0.9375 1.6562-0.9375v-0.53125c-0.59375 0.046875-1.6875 0.046875-2.3281 0.046875s-1.7344 0-2.3438-0.046875v0.53125c1.4375 0 1.6562 0 1.6562 0.9375v11.172c0 0.9375-0.21875 0.9375-1.6562 0.9375v0.53125c0.60938-0.046875 1.7031-0.046875 2.3438-0.046875s1.7344 0 2.3281 0.046875v-0.53125c-1.4219 0-1.6562 0-1.6562-0.9375v-5.5938h6.1562v5.5938c0 0.9375-0.21875 0.9375-1.6406 0.9375v0.53125c0.59375-0.046875 1.6875-0.046875 2.3281-0.046875s1.7344 0 2.3281 0.046875v-0.53125c-1.4219 0-1.6406 0-1.6406-0.9375z"/>
</g>
<g id="k">
<path d="m8.9062-4.4219c0-2.6406-1.9219-4.7031-4.1719-4.7031s-4.1719 2.0625-4.1719 4.7031c0 2.6094 1.9219 4.5938 4.1719 4.5938s4.1719-1.9844 4.1719-4.5938zm-4.1719 4.2188c-0.96875 0-1.7969-0.57812-2.2812-1.3906-0.51562-0.92188-0.57812-2.0781-0.57812-2.9844 0-0.875 0.046875-1.9531 0.57812-2.875 0.42188-0.6875 1.2188-1.3438 2.2812-1.3438 0.92188 0 1.7031 0.51562 2.2031 1.2344 0.64062 0.96875 0.64062 2.3438 0.64062 2.9844 0 0.79688-0.03125 2.0312-0.59375 3.0312-0.57812 0.95312-1.4688 1.3438-2.25 1.3438z"/>
</g>
<g id="h">
<path d="m3.125-8.3438h2.8906v-0.53125h-2.8906v-3.8281h-0.375c-0.046875 2.125-0.76562 3.9844-2.5156 4.0312v0.32812h1.7969v5.7969c0 0.40625 0 2.7188 2.3906 2.7188 1.2188 0 1.9219-1.2031 1.9219-2.7344v-1.1719h-0.375v1.1562c0 1.4219-0.5625 2.375-1.4219 2.375-0.59375 0-1.4219-0.42188-1.4219-2.2969z"/>
</g>
<g id="o">
<path d="m9.3125-12.875v-0.45312h-4.8438c-2.4219 0-2.4688-0.26562-2.5469-0.65625h-0.375l-0.59375 3.8594h0.375c0.0625-0.39062 0.20312-1.4375 0.45312-1.8281 0.125-0.17188 1.6406-0.17188 2-0.17188h4.5469l-2.2969 3.4062c-1.5312 2.2969-2.5781 5.3906-2.5781 8.0938 0 0.25 0 0.95312 0.73438 0.95312 0.75 0 0.75-0.70312 0.75-0.96875v-0.95312c0-3.3906 0.57812-5.6094 1.5312-7.0469z"/>
</g>
<g id="x">
<path d="m2.1875-7.125c0-4.9375 2.3125-6.0469 3.6562-6.0469 0.4375 0 1.4844 0.078125 1.9062 0.875-0.32812 0-0.95312 0-0.95312 0.73438 0 0.54688 0.45312 0.73438 0.75 0.73438 0.17188 0 0.73438-0.078125 0.73438-0.78125 0-1.2969-1.0312-2.0469-2.4531-2.0469-2.4688 0-5.0469 2.5625-5.0469 7.125 0 5.625 2.3438 6.8594 3.9844 6.8594 2.0156 0 3.9062-1.7969 3.9062-4.5625 0-2.5781-1.6719-4.4688-3.7812-4.4688-1.25 0-2.1875 0.82812-2.7031 2.2812zm2.5781 6.9531c-2.5312 0-2.5312-3.7969-2.5312-4.5625 0-1.4844 0.70312-3.625 2.625-3.625 0.34375 0 1.3594 0 2.0469 1.4219 0.35938 0.79688 0.35938 1.6562 0.35938 2.6875 0 1.1094 0 1.9375-0.42188 2.7656-0.46875 0.84375-1.125 1.3125-2.0781 1.3125z"/>
</g>
<g id="f">
<path d="m4.5625-7.0156c1.8438 0 2.6406 1.5781 2.6406 3.4219 0 2.4844-1.3125 3.4219-2.5156 3.4219-1.0938 0-2.875-0.53125-3.4219-2.125 0.09375 0.046875 0.20312 0.046875 0.29688 0.046875 0.5 0 0.875-0.32812 0.875-0.875 0-0.59375-0.45312-0.85938-0.875-0.85938-0.34375 0-0.875 0.15625-0.875 0.92188 0 1.9062 1.8594 3.3906 4.0469 3.3906 2.2812 0 4.0469-1.7969 4.0469-3.9062 0-2-1.6562-3.4375-3.6094-3.6719 1.5625-0.32812 3.0625-1.7344 3.0625-3.6094 0-1.6094-1.625-2.7969-3.4844-2.7969-1.875 0-3.5312 1.1562-3.5312 2.8125 0 0.71875 0.53125 0.84375 0.8125 0.84375 0.42188 0 0.79688-0.26562 0.79688-0.79688 0-0.54688-0.375-0.8125-0.79688-0.8125-0.09375 0-0.1875 0-0.28125 0.046875 0.60938-1.375 2.2344-1.6094 2.9531-1.6094 0.73438 0 2.0938 0.34375 2.0938 2.3281 0 0.57812-0.078125 1.6094-0.78125 2.5156-0.625 0.8125-1.3281 0.84375-2.0156 0.90625-0.09375 0-0.57812 0.046875-0.65625 0.046875-0.14062 0.015625-0.21875 0.046875-0.21875 0.1875s0.015625 0.17188 0.42188 0.17188z"/>
</g>
<g id="an">
<path d="m8.0938-7.0469c1.9688-0.39062 3.625-1.7188 3.625-3.3594 0-1.9531-2.2031-3.7031-5.0938-3.7031h-5.5469v0.53125c1.4219 0 1.6562 0 1.6562 0.9375v11.172c0 0.9375-0.23438 0.9375-1.6562 0.9375v0.53125c0.59375-0.046875 1.6719-0.046875 2.3125-0.046875s1.7188 0 2.3125 0.046875v-0.53125c-1.4219 0-1.6562 0-1.6562-0.9375v-5.4375h2.4219c1.1719 0 1.8281 0.48438 2.125 0.75 0.82812 0.8125 0.82812 1.3594 0.82812 2.7656 0 1.3906 0 2.0938 0.60938 2.7969 0.79688 0.84375 1.8438 0.92188 2.2969 0.92188 1.5312 0 1.7656-1.7188 1.7656-2.0625 0-0.125 0-0.26562-0.1875-0.26562-0.17188 0-0.1875 0.125-0.1875 0.20312-0.10938 1.3438-0.70312 1.7969-1.3438 1.7969-1.1406 0-1.2656-1.2969-1.3906-2.5625-0.0625-0.4375-0.09375-0.75-0.14062-1.2031-0.125-1.0312-0.28125-2.5312-2.75-3.2812zm-1.6875-0.1875h-2.3594v-5.5312c0-0.70312 0.046875-0.8125 0.875-0.8125h1.5c1.7188 0 3.7188 0.60938 3.7188 3.1719 0 2.6562-2.1875 3.1719-3.7344 3.1719z"/>
</g>
<g id="am">
<path d="m6.0781-8.8125v0.53125c1.2188 0 1.4062 0.125 1.4062 1.1094v3.7656c0 1.7344-0.9375 3.2344-2.4688 3.2344-1.6875 0-1.8281-1-1.8281-2.0781v-6.7969l-2.5 0.23438v0.53125c0.82812 0 1.375 0 1.4062 0.82812v3.9688c0 1.375 0 2.2656 0.53125 2.8438 0.26562 0.26562 0.78125 0.8125 2.2656 0.8125 1.7656 0 2.4375-1.5 2.6094-1.9219h0.015625v1.9219l2.4688-0.17188v-0.53125c-1.2188 0-1.4062-0.125-1.4062-1.125v-7.3906z"/>
</g>
<g id="w">
<path d="m2.3594-12.078c0.20312 0.078125 1.0469 0.34375 1.9219 0.34375 1.9219 0 2.9688-1.0312 3.5625-1.625 0-0.17188 0-0.28125-0.125-0.28125-0.015625 0-0.0625 0-0.21875 0.09375-0.71875 0.3125-1.5781 0.54688-2.6094 0.54688-0.60938 0-1.5469-0.078125-2.5625-0.53125-0.21875-0.10938-0.26562-0.10938-0.28125-0.10938-0.10938 0-0.125 0.03125-0.125 0.4375v6c0 0.35938 0 0.46875 0.20312 0.46875 0.10938 0 0.14062-0.046875 0.25-0.1875 0.65625-0.92188 1.5781-1.3125 2.6094-1.3125 0.71875 0 2.2656 0.45312 2.2656 3.9844 0 0.65625 0 1.8594-0.625 2.7969-0.51562 0.85938-1.3125 1.2812-2.2031 1.2812-1.3594 0-2.75-0.9375-3.125-2.5312 0.09375 0.015625 0.25 0.0625 0.32812 0.0625 0.28125 0 0.79688-0.14062 0.79688-0.78125 0-0.5625-0.39062-0.79688-0.79688-0.79688-0.46875 0-0.78125 0.29688-0.78125 0.875 0 1.7969 1.4219 3.6719 3.625 3.6719 2.125 0 4.1406-1.8438 4.1406-4.5 0-2.4844-1.6094-4.4062-3.6094-4.4062-1.0469 0-1.9375 0.39062-2.6406 1.1406z"/>
</g>
<g id="r">
<path d="m7.2656-6.1094c0 4.5469-1.875 5.9375-3.4219 5.9375-0.48438 0-1.6406-0.0625-2.1094-0.85938 0.53125 0.078125 0.9375-0.20312 0.9375-0.71875 0-0.5625-0.46875-0.75-0.75-0.75-0.1875 0-0.75 0.078125-0.75 0.78125 0 1.4062 1.2188 2.0469 2.7188 2.0469 2.375 0 4.7812-2.5938 4.7812-7.1406 0-5.6562-2.3125-6.8438-3.875-6.8438-2.0469 0-4.0156 1.7969-4.0156 4.5625 0 2.5625 1.6719 4.4688 3.7812 4.4688 1.7344 0 2.5-1.6094 2.7031-2.2969zm-2.6562 1.1562c-0.5625 0-1.3438-0.10938-1.9844-1.3438-0.4375-0.8125-0.4375-1.7656-0.4375-2.7656 0-1.2188 0-2.0781 0.57812-2.9844 0.29688-0.42188 0.82812-1.125 2.0312-1.125 2.4375 0 2.4375 3.7344 2.4375 4.5625 0 1.4688-0.67188 3.6562-2.625 3.6562z"/>
</g>
<g id="m">
<path d="m12.531-5.2188h-0.35938c-0.45312 3.0312-0.73438 4.6875-4.3594 4.6875h-2.875c-0.82812 0-0.875-0.10938-0.875-0.8125v-5.7031h1.9531c1.9375 0 2.125 0.70312 2.125 2.4219h0.375v-5.375h-0.375c0 1.7188-0.1875 2.4219-2.125 2.4219h-1.9531v-5.1406c0-0.70312 0.046875-0.8125 0.875-0.8125h2.8281c3.2031 0 3.5781 1.2812 3.8594 4.0312h0.375l-0.5-4.5625h-10.453v0.53125c1.4375 0 1.6562 0 1.6562 0.9375v11.125c0 0.9375-0.21875 0.9375-1.6562 0.9375v0.53125h10.75z"/>
</g>
<g id="b">
<path d="m5.2656-3.9844v-0.90625h-5.1875v0.90625z"/>
</g>
<g id="i">
<path d="m1.0781-14.109v0.53125c1.4219 0 1.6562 0 1.6562 0.9375v11.172c0 0.9375-0.23438 0.9375-1.6562 0.9375v0.53125h7.1094c2.6406 0 4.3438-1.875 4.3438-3.7656 0-1.8594-1.6875-3.4375-3.8906-3.5938 1.9844-0.39062 3.3594-1.7031 3.3594-3.2812 0-1.7188-1.6875-3.4688-4.3594-3.4688zm2.9531 6.6094v-5.2656c0-0.70312 0.03125-0.8125 0.85938-0.8125h2.6562c2.0312 0 2.9531 1.6562 2.9531 2.9375 0 1.5781-1.2656 3.1406-3.5 3.1406zm0.85938 6.9688c-0.82812 0-0.85938-0.10938-0.85938-0.8125v-5.8281h3.8125c2.1406 0 3.1719 1.8906 3.1719 3.3906 0 1.5156-1.1875 3.25-3.4375 3.25z"/>
</g>
<g id="l">
<path d="m1.0781-14.109v0.53125c1.4219 0 1.6562 0 1.6562 0.9375v11.172c0 0.9375-0.23438 0.9375-1.6562 0.9375v0.53125h6.5625c3.3281 0 6-3.0625 6-6.9375 0-3.9062-2.625-7.1719-6-7.1719zm3.8438 13.578c-0.82812 0-0.875-0.10938-0.875-0.8125v-11.422c0-0.70312 0.046875-0.8125 0.875-0.8125h2.3125c1.7031 0 4.875 1.0156 4.875 6.6406 0 2.9062-0.85938 4.0938-1.25 4.6406-0.48438 0.64062-1.6719 1.7656-3.625 1.7656z"/>
</g>
<g id="q">
<path d="m12.828-14.031c0-0.35938-0.015625-0.39062-0.14062-0.39062-0.09375 0-0.10938 0.03125-0.25 0.26562l-0.90625 1.7344c-1.0156-1.2656-2.25-2.0156-3.8438-2.0156-3.5312 0-6.7344 3.125-6.7344 7.375 0 4.2969 3.2031 7.3906 6.75 7.3906 3.1562 0 5.125-2.7812 5.125-5.1562 0-0.21875 0-0.29688-0.1875-0.29688-0.17188 0-0.17188 0.0625-0.1875 0.25-0.15625 2.8906-2.2344 4.6719-4.4531 4.6719-2.1094 0-5.4844-1.4844-5.4844-6.8594 0-5.3906 3.4375-6.8438 5.4375-6.8438 2.3281 0 4.0312 2.0312 4.4219 4.9062 0.046875 0.23438 0.046875 0.28125 0.21875 0.28125 0.23438 0 0.23438-0.046875 0.23438-0.40625z"/>
</g>
<g id="z">
<path d="m5.625-7.4375c1.2969-0.65625 2.6094-1.6562 2.6094-3.2344 0-1.8906-1.8125-2.9844-3.4844-2.9844-1.875 0-3.5312 1.3594-3.5312 3.25 0 0.51562 0.125 1.4062 0.92188 2.1875 0.21875 0.20312 1.0781 0.82812 1.6406 1.2188-0.9375 0.46875-3.0938 1.6094-3.0938 3.875 0 2.1406 2.0156 3.4531 4.0156 3.4531 2.2188 0 4.0781-1.5938 4.0781-3.6875 0-1.8906-1.2656-2.75-2.0938-3.3125zm-2.7188-1.8125c-0.15625-0.10938-0.98438-0.75-0.98438-1.7188 0-1.2656 1.2969-2.2031 2.7812-2.2031 1.6406 0 2.8438 1.1562 2.8438 2.5 0 1.9062-2.1562 3.0156-2.2656 3.0156-0.015625 0-0.03125 0-0.20312-0.125zm3.8125 4.2344c0.29688 0.21875 1.2969 0.90625 1.2969 2.1719 0 1.5156-1.5312 2.6719-3.2656 2.6719-1.875 0-3.2969-1.3438-3.2969-2.9688s1.25-3 2.6719-3.6406z"/>
</g>
<g id="v">
<path d="m11.234-14.062h-10.188v0.53125c1.4375 0 1.6562 0 1.6562 0.9375v11.125c0 0.9375-0.21875 0.9375-1.6562 0.9375v0.53125c0.60938-0.046875 1.7656-0.046875 2.4062-0.046875 0.84375 0 1.8281 0 2.6875 0.046875v-0.53125h-0.45312c-1.5781 0-1.625-0.21875-1.625-0.95312v-5.2969h1.8594c1.9219 0 2.1094 0.6875 2.1094 2.4219h0.375v-5.375h-0.375c0 1.7344-0.1875 2.4219-2.1094 2.4219h-1.8594v-5.4062c0-0.70312 0.046875-0.8125 0.875-0.8125h2.6562c3.125 0 3.4844 1.2812 3.7656 4.0312h0.375z"/>
</g>
<g id="u">
<path d="m3.2031-12.719c0-0.45312-0.375-0.85938-0.84375-0.85938-0.45312 0-0.84375 0.375-0.84375 0.85938 0 0.45312 0.35938 0.84375 0.84375 0.84375 0.45312 0 0.84375-0.375 0.84375-0.84375zm-2.4219 3.9062v0.53125c1.1562 0 1.3281 0.125 1.3281 1.1094v5.75c0 0.78125-0.078125 0.89062-1.4062 0.89062v0.53125c0.5-0.046875 1.3906-0.046875 1.9062-0.046875 0.48438 0 1.3438 0 1.8125 0.046875v-0.53125c-1.2188 0-1.2656-0.125-1.2656-0.875v-7.6406z"/>
</g>
<g id="y">
<path d="m8.5781-6.2812c0-1.0469-0.21875-2.7656-2.6562-2.7656-1.625 0-2.4688 1.2656-2.7812 2.0781h-0.015625v-2.0781l-2.4375 0.23438v0.53125c1.2188 0 1.4062 0.125 1.4062 1.1094v5.75c0 0.78125-0.09375 0.89062-1.4062 0.89062v0.53125c0.48438-0.046875 1.4062-0.046875 1.9375-0.046875s1.4688 0 1.9531 0.046875v-0.53125c-1.3125 0-1.3906-0.09375-1.3906-0.89062v-3.9688c0-1.9062 1.1562-3.3281 2.5938-3.3281 1.5312 0 1.7031 1.3594 1.7031 2.3594v4.9375c0 0.78125-0.09375 0.89062-1.4062 0.89062v0.53125c0.48438-0.046875 1.4062-0.046875 1.9375-0.046875s1.4688 0 1.9688 0.046875v-0.53125c-1.3281 0-1.4062-0.09375-1.4062-0.89062z"/>
</g>
<g id="al">
<path d="m3.1562-8.3438h2.3594v-0.53125h-2.3906v-2.5c0-1.7188 0.85938-2.7969 1.75-2.7969 0.26562 0 0.57812 0.078125 0.78125 0.23438-0.15625 0.03125-0.59375 0.1875-0.59375 0.70312 0 0.53125 0.40625 0.70312 0.70312 0.70312 0.28125 0 0.70312-0.17188 0.70312-0.70312 0-0.79688-0.75-1.2656-1.5781-1.2656-1.1719 0-2.7812 0.96875-2.7812 3.1562v2.4688h-1.6562v0.53125h1.6562v6.9219c0 0.78125-0.078125 0.89062-1.4062 0.89062v0.53125c0.5-0.046875 1.4375-0.046875 1.9844-0.046875 0.59375 0 1.6562 0 2.2031 0.046875v-0.53125c-1.4844 0-1.7344 0-1.7344-0.9375z"/>
</g>
<g id="ak">
<path d="m7.4375-5.3438c0-1.375 0-2.0938-0.875-2.8906-0.76562-0.6875-1.6406-0.89062-2.3438-0.89062-1.6406 0-2.8125 1.2812-2.8125 2.6406 0 0.76562 0.625 0.79688 0.73438 0.79688 0.28125 0 0.75-0.15625 0.75-0.73438 0-0.51562-0.39062-0.75-0.75-0.75-0.078125 0-0.17188 0.03125-0.23438 0.046875 0.42188-1.2969 1.5469-1.6719 2.2656-1.6719 1.0312 0 2.1719 0.90625 2.1719 2.6406v0.90625c-1.2188 0.046875-2.6875 0.20312-3.8438 0.82812-1.2969 0.71875-1.6719 1.75-1.6719 2.5469 0 1.5781 1.8594 2.0469 2.9531 2.0469 1.1406 0 2.1875-0.64062 2.6406-1.8281 0.046875 0.90625 0.625 1.7344 1.5312 1.7344 0.4375 0 1.5312-0.28125 1.5312-1.9219v-1.1562h-0.375v1.1875c0 1.25-0.5625 1.4219-0.82812 1.4219-0.84375 0-0.84375-1.0781-0.84375-1.9844zm-1.0938 2.4688c0 1.7969-1.2812 2.7031-2.4219 2.7031-1.0312 0-1.8281-0.75-1.8281-1.7031 0-0.625 0.26562-1.7188 1.4531-2.375 1-0.5625 2.1406-0.64062 2.7969-0.6875z"/>
</g>
<g id="aj">
<path d="m7.2031-7.2344c-0.39062 0-0.96875 0-0.96875 0.73438 0 0.57812 0.48438 0.73438 0.75 0.73438 0.14062 0 0.73438-0.0625 0.73438-0.78125 0-1.4688-1.3906-2.5781-2.9844-2.5781-2.1875 0-4.0469 2.0156-4.0469 4.6562 0 2.75 1.9375 4.6406 4.0469 4.6406 2.5625 0 3.2031-2.375 3.2031-2.6094 0-0.078125-0.03125-0.14062-0.17188-0.14062s-0.17188 0.015625-0.25 0.28125c-0.53125 1.6719-1.7188 2.0938-2.5938 2.0938-1.3281 0-2.9219-1.2188-2.9219-4.2812 0-3.1406 1.5312-4.2812 2.75-4.2812 0.8125 0 2 0.40625 2.4531 1.5312z"/>
</g>
<g id="ai">
<path d="m8.5781-6.2812c0-1.0469-0.21875-2.7656-2.6562-2.7656-1.6875 0-2.5156 1.3594-2.7656 2.0469h-0.015625v-7.3281l-2.4531 0.21875v0.53125c1.2188 0 1.4062 0.125 1.4062 1.125v11.031c0 0.78125-0.09375 0.89062-1.4062 0.89062v0.53125c0.48438-0.046875 1.4062-0.046875 1.9375-0.046875s1.4688 0 1.9531 0.046875v-0.53125c-1.3125 0-1.3906-0.09375-1.3906-0.89062v-3.9688c0-1.9062 1.1562-3.3281 2.5938-3.3281 1.5312 0 1.7031 1.3594 1.7031 2.3594v4.9375c0 0.78125-0.09375 0.89062-1.4062 0.89062v0.53125c0.48438-0.046875 1.4062-0.046875 1.9375-0.046875s1.4688 0 1.9688 0.046875v-0.53125c-1.3281 0-1.4062-0.09375-1.4062-0.89062z"/>
</g>
<g id="ah">
<path d="m4.0625-12.641c0-0.9375 0.25-0.9375 1.7344-0.9375v-0.53125c-0.65625 0.046875-1.7031 0.046875-2.4062 0.046875s-1.7656 0-2.4219-0.046875v0.53125c1.4844 0 1.7344 0 1.7344 0.9375v11.172c0 0.9375-0.25 0.9375-1.7344 0.9375v0.53125c0.65625-0.046875 1.7188-0.046875 2.4219-0.046875s1.75 0 2.4062 0.046875v-0.53125c-1.4844 0-1.7344 0-1.7344-0.9375z"/>
</g>
<g id="ag">
<path d="m4.0938-6.625h3.2969c2.6719 0 4.6094-1.7344 4.6094-3.7031s-1.9062-3.7812-4.6094-3.7812h-6.3125v0.53125c1.4219 0 1.6562 0 1.6562 0.9375v11.172c0 0.9375-0.23438 0.9375-1.6562 0.9375v0.53125c0.59375-0.046875 1.6875-0.046875 2.3281-0.046875s1.7344 0 2.3438 0.046875v-0.53125c-1.4375 0-1.6562 0-1.6562-0.9375zm-0.046875-0.4375v-5.7031c0-0.70312 0.046875-0.8125 0.875-0.8125h2.0781c2.6719 0 3.4375 1.5312 3.4375 3.25 0 1.875-0.92188 3.2656-3.4375 3.2656z"/>
</g>
<g id="af">
<path d="m4.2344-13.859c-0.14062-0.23438-0.17188-0.25-0.5625-0.25h-2.625v0.53125h0.40625c0.8125 0 1.1875 0.10938 1.25 0.125v11.422c0 0.51562 0 1.5-1.6562 1.5v0.53125c0.48438-0.046875 1.3438-0.046875 1.8594-0.046875s1.3906 0 1.8594 0.046875v-0.53125c-1.6406 0-1.6406-0.98438-1.6406-1.5v-11.125c0.14062 0.125 0.14062 0.15625 0.28125 0.375l7.6719 12.531c0.14062 0.25 0.20312 0.25 0.29688 0.25 0.21875 0 0.21875-0.0625 0.21875-0.45312v-11.625c0-0.51562 0-1.5 1.6406-1.5v-0.53125c-0.46875 0.046875-1.3438 0.046875-1.8594 0.046875s-1.375 0-1.8594-0.046875v0.53125c1.6562 0 1.6562 0.98438 1.6562 1.5v9.5625z"/>
</g>
<g id="ae">
<path d="m7.4531-8.4062c0.17188-0.20312 0.17188-0.25 0.17188-0.29688 0-0.17188-0.078125-0.17188-0.45312-0.17188h-6.2812l-0.20312 3.1875h0.35938c0.15625-2 0.375-2.8594 2.75-2.8594h2.5312l-5.9219 8.2344c0 0.29688 0.03125 0.3125 0.46875 0.3125h6.5156l0.29688-3.7188h-0.375c-0.17188 2.2969-0.4375 3.3438-2.9531 3.3438h-2.6406z"/>
</g>
<g id="ad">
<path d="m12.016-7.0625c0.42188-1.2188 1.25-1.2656 1.5625-1.2812v-0.53125c-0.42188 0.015625-0.82812 0.03125-1.25 0.03125-0.39062 0-1.2812 0-1.625-0.03125v0.53125c0.64062 0.046875 0.98438 0.40625 0.98438 0.92188 0 0.15625-0.03125 0.34375-0.078125 0.48438l-1.9375 5.6094-2.1094-6.0938c-0.046875-0.14062-0.10938-0.29688-0.10938-0.39062 0-0.53125 0.70312-0.53125 1.0312-0.53125v-0.53125c-0.46875 0.03125-1.3438 0.03125-1.8281 0.03125-0.51562 0-1.0625 0-1.5312-0.03125v0.53125c1.1406 0 1.1406 0.046875 1.5625 1.3438l-1.8906 5.5312-2.0469-5.9688c-0.10938-0.26562-0.10938-0.3125-0.10938-0.375 0-0.53125 0.70312-0.53125 1.0312-0.53125v-0.53125c-0.48438 0.03125-1.3594 0.03125-1.875 0.03125-0.45312 0-1.1562 0-1.5938-0.03125v0.53125c0.90625 0 1.1406 0.0625 1.3594 0.75l2.5469 7.4219c0.078125 0.28125 0.14062 0.34375 0.3125 0.34375 0.14062 0 0.21875-0.046875 0.32812-0.35938l2.125-6.2344 2.1562 6.2344c0.09375 0.3125 0.1875 0.35938 0.32812 0.35938 0.15625 0 0.21875-0.0625 0.3125-0.34375z"/>
</g>
<g id="ac">
<path d="m5.3906-5.4531c-0.015625-0.046875-0.125-0.17188-0.125-0.23438 0-0.03125 1.4688-1.375 1.6562-1.5469 1.1719-0.98438 1.9219-1.0938 2.4531-1.1094v-0.53125c-0.125 0-0.15625 0-0.1875 0.015625l-1 0.015625c-0.59375 0-1.4688 0-2.0312-0.03125v0.53125c0.28125 0.015625 0.5 0.1875 0.5 0.46875 0 0.42188-0.42188 0.8125-0.4375 0.8125l-3.125 2.8438v-10.109l-2.4531 0.21875v0.53125c1.2188 0 1.4062 0.125 1.4062 1.125v11.031c0 0.78125-0.078125 0.89062-1.4062 0.89062v0.53125c0.5-0.046875 1.4062-0.046875 1.9219-0.046875s1.4219 0 1.9219 0.046875v-0.53125c-1.3281 0-1.4062-0.09375-1.4062-0.89062v-2.2812l1.4219-1.2969 2.0938 3.0938c0.25 0.375 0.45312 0.67188 0.45312 0.9375 0 0.375-0.375 0.4375-0.625 0.4375v0.53125c0.5-0.046875 1.3906-0.046875 1.9062-0.046875 0.375 0 1.125 0.03125 1.4844 0.046875v-0.53125c-0.96875 0-1.2031-0.1875-1.8125-1.0938z"/>
</g>
<g id="ab">
<path d="m13.969-6.2812c0-1.0312-0.1875-2.7656-2.6562-2.7656-1.3906 0-2.375 0.95312-2.7344 2.0625h-0.03125c-0.25-1.6875-1.4688-2.0625-2.625-2.0625-1.625 0-2.4688 1.2656-2.7812 2.0781h-0.015625v-2.0781l-2.4375 0.23438v0.53125c1.2188 0 1.4062 0.125 1.4062 1.1094v5.75c0 0.78125-0.09375 0.89062-1.4062 0.89062v0.53125c0.48438-0.046875 1.4062-0.046875 1.9375-0.046875s1.4688 0 1.9531 0.046875v-0.53125c-1.3125 0-1.3906-0.09375-1.3906-0.89062v-3.9688c0-1.9062 1.1562-3.3281 2.5938-3.3281 1.5312 0 1.7031 1.3594 1.7031 2.3594v4.9375c0 0.78125-0.09375 0.89062-1.4062 0.89062v0.53125c0.48438-0.046875 1.4062-0.046875 1.9375-0.046875s1.4688 0 1.9688 0.046875v-0.53125c-1.3281 0-1.4062-0.09375-1.4062-0.89062v-3.9688c0-1.9062 1.1562-3.3281 2.5938-3.3281 1.5312 0 1.7031 1.3594 1.7031 2.3594v4.9375c0 0.78125-0.09375 0.89062-1.4062 0.89062v0.53125c0.48438-0.046875 1.4062-0.046875 1.9375-0.046875s1.4688 0 1.9688 0.046875v-0.53125c-1.3281 0-1.4062-0.09375-1.4062-0.89062z"/>
</g>
</defs>
<path transform="matrix(.1 0 0 -.1 -13.472 532.72)" d="m7060.4 3136.6h708.63v425.2h-708.63z" fill="none" stroke="#000" stroke-miterlimit="10" stroke-width="4.7242"/>
<path transform="matrix(.1 0 0 -.1 -13.472 532.72)" d="m7060.4 2002.8h708.63v425.16h-708.63z" fill="none" stroke="#000" stroke-miterlimit="10" stroke-width="4.7242"/>
<path transform="matrix(.1 0 0 -.1 -13.472 532.72)" d="m6833.6 2087.9h226.76v113.36h-226.76z" fill="none" stroke="#000" stroke-miterlimit="10" stroke-width="4.7242"/>
<path transform="matrix(.1 0 0 -.1 -13.472 532.72)" d="m6833.6 3363.4h226.76v113.36h-226.76z" fill="none" stroke="#000" stroke-miterlimit="10" stroke-width="4.7242"/>
<path transform="matrix(.1 0 0 -.1 -13.472 532.72)" d="m4934.4 3136.6c0-234.8-190.35-425.16-425.16-425.16-234.84 0-425.2 190.35-425.2 425.16 0 234.84 190.35 425.2 425.2 425.2 234.8 0 425.16-190.35 425.16-425.2z" fill="none" stroke="#000" stroke-miterlimit="10" stroke-width="4.7242"/>
<path transform="matrix(.1 0 0 -.1 -13.472 532.72)" d="m4169.1 3136.6c0-1205.4-862.97-2182.6-1927.5-2182.6s-1927.5 977.19-1927.5 2182.6c0 1205.4 862.97 2182.6 1927.5 2182.6s1927.5-977.19 1927.5-2182.6z" fill="none" stroke="#000" stroke-dasharray="37.794" stroke-miterlimit="10" stroke-width="4.7242"/>
<path transform="matrix(.1 0 0 -.1 -13.472 532.72)" d="m1249.6 2853.2h708.63v425.2h-708.63z" fill="none" stroke="#000" stroke-miterlimit="10" stroke-width="4.7242"/>
<path transform="matrix(.1 0 0 -.1 -13.472 532.72)" d="m1249.6 1719.3h708.63v425.2h-708.63z" fill="none" stroke="#000" stroke-miterlimit="10" stroke-width="4.7242"/>
<path transform="matrix(.1 0 0 -.1 -13.472 532.72)" d="m2185 4270.4h198.4v-2409.3h-198.4" fill="none" stroke="#000" stroke-miterlimit="10" stroke-width="4.7242"/>
<path transform="matrix(.1 0 0 -.1 -13.472 532.72)" d="m2185 2994.9h198.4" fill="none" stroke="#000" stroke-miterlimit="10" stroke-width="4.7242"/>
<path transform="matrix(.1 0 0 -.1 -13.472 532.72)" d="m2383.4 3136.6h1474" fill="none" stroke="#000" stroke-miterlimit="10" stroke-width="4.7242"/>
<path transform="matrix(.1 0 0 -.1 -13.472 532.72)" d="m5161.2 3136.6h1473.9" fill="none" stroke="#000" stroke-miterlimit="10" stroke-width="4.7242"/>
<path transform="matrix(.1 0 0 -.1 -13.472 532.72)" d="m4509.3 2598.1v-1303.9" fill="none" stroke="#000" stroke-miterlimit="10" stroke-width="4.7242"/>
<path transform="matrix(.1 0 0 -.1 -13.472 532.72)" d="m5076.2 443.8h708.63v425.2h-708.63z" fill="none" stroke="#000" stroke-miterlimit="10" stroke-width="4.7242"/>
<path transform="matrix(.1 0 0 -.1 -13.472 532.72)" d="m3375.5 443.8h708.63v425.2h-708.63z" fill="none" stroke="#000" stroke-miterlimit="10" stroke-width="4.7242"/>
<path transform="matrix(.1 0 0 -.1 -13.472 532.72)" d="m3715.6 982.36v311.84h1700.7v-311.84" fill="none" stroke="#000" stroke-miterlimit="10" stroke-width="4.7242"/>
<path transform="matrix(.1 0 0 -.1 -13.472 532.72)" d="m1249.6 3987h708.63v425.2h-708.63z" fill="none" stroke="#000" stroke-miterlimit="10" stroke-width="4.7242"/>
<path transform="matrix(.1 0 0 -.1 -13.472 532.72)" d="m1958.2 4213.8h226.76v113.4h-226.76z" fill="none" stroke="#000" stroke-miterlimit="10" stroke-width="4.7242"/>
<path transform="matrix(.1 0 0 -.1 -13.472 532.72)" d="m1958.2 2938.2h226.76v113.36h-226.76z" fill="none" stroke="#000" stroke-miterlimit="10" stroke-width="4.7242"/>
<path transform="matrix(.1 0 0 -.1 -13.472 532.72)" d="m1958.2 1804.4h226.76v113.4h-226.76z" fill="none" stroke="#000" stroke-miterlimit="10" stroke-width="4.7242"/>
<path transform="matrix(.1 0 0 -.1 -13.472 532.72)" d="m3857.3 3079.9h226.76v113.4h-226.76z" fill="none" stroke="#000" stroke-miterlimit="10" stroke-width="4.7242"/>
<path transform="matrix(.1 0 0 -.1 -13.472 532.72)" d="m4934.4 3079.9h226.76v113.4h-226.76z" fill="none" stroke="#000" stroke-miterlimit="10" stroke-width="4.7242"/>
<path transform="matrix(.1 0 0 -.1 -13.472 532.72)" d="m4395.9 2598.1h226.76v113.4h-226.76z" fill="none" stroke="#000" stroke-miterlimit="10" stroke-width="4.7242"/>
<path transform="matrix(.1 0 0 -.1 -13.472 532.72)" d="m3602.2 869h226.76v113.36h-226.76z" fill="none" stroke="#000" stroke-miterlimit="10" stroke-width="4.7242"/>
<path transform="matrix(.1 0 0 -.1 -13.472 532.72)" d="m5303 869h226.76v113.36h-226.76z" fill="none" stroke="#000" stroke-miterlimit="10" stroke-width="4.7242"/>
<path transform="matrix(.1 0 0 -.1 -13.472 532.72)" d="m6833.6 3420.1h-198.44v-1275.5h198.44" fill="none" stroke="#000" stroke-miterlimit="10" stroke-width="4.7242"/>
<g>
<use x="54.378" y="511.931" xlink:href="#t"/>
<use x="68.703311" y="511.931" xlink:href="#aa"/>
<use x="79.259782" y="511.931" xlink:href="#s"/>
<use x="86.576374" y="511.931" xlink:href="#j"/>
<use x="94.973614" y="511.931" xlink:href="#g"/>
<use x="102.399716" y="511.931" xlink:href="#g"/>
<use x="109.825819" y="511.931" xlink:href="#j"/>
<use x="124.463134" y="511.931" xlink:href="#a"/>
<use x="133.938956" y="511.931" xlink:href="#a"/>
<use x="143.414779" y="511.931" xlink:href="#e"/>
<use x="152.890601" y="511.931" xlink:href="#c"/>
<use x="158.047961" y="511.931" xlink:href="#d"/>
<use x="167.523784" y="511.931" xlink:href="#c"/>
<use x="172.681144" y="511.931" xlink:href="#d"/>
<use x="182.156966" y="511.931" xlink:href="#c"/>
<use x="187.314326" y="511.931" xlink:href="#p"/>
<use x="196.790149" y="511.931" xlink:href="#ao"/>
<use x="206.265971" y="511.931" xlink:href="#a"/>
<use x="215.741794" y="511.931" xlink:href="#e"/>
<use x="693.277" y="238.843" xlink:href="#a"/>
<use x="702.752823" y="238.843" xlink:href="#a"/>
<use x="712.228645" y="238.843" xlink:href="#e"/>
<use x="721.704468" y="238.843" xlink:href="#c"/>
<use x="726.861828" y="238.843" xlink:href="#d"/>
<use x="736.33765" y="238.843" xlink:href="#c"/>
<use x="741.49501" y="238.843" xlink:href="#a"/>
<use x="750.970833" y="238.843" xlink:href="#c"/>
<use x="756.128193" y="238.843" xlink:href="#d"/>
<use x="702.313" y="201.675" xlink:href="#n"/>
<use x="716.638311" y="201.675" xlink:href="#k"/>
<use x="726.114134" y="201.675" xlink:href="#g"/>
<use x="733.540236" y="201.675" xlink:href="#h"/>
<use x="747.096903" y="201.675" xlink:href="#o"/>
<use x="693.277" y="352.236" xlink:href="#a"/>
<use x="702.752823" y="352.236" xlink:href="#a"/>
<use x="712.228645" y="352.236" xlink:href="#e"/>
<use x="721.704468" y="352.236" xlink:href="#c"/>
<use x="726.861828" y="352.236" xlink:href="#d"/>
<use x="736.33765" y="352.236" xlink:href="#c"/>
<use x="741.49501" y="352.236" xlink:href="#a"/>
<use x="750.970833" y="352.236" xlink:href="#c"/>
<use x="756.128193" y="352.236" xlink:href="#a"/>
<use x="702.313" y="315.068" xlink:href="#n"/>
<use x="716.638311" y="315.068" xlink:href="#k"/>
<use x="726.114134" y="315.068" xlink:href="#g"/>
<use x="733.540236" y="315.068" xlink:href="#h"/>
<use x="747.096903" y="315.068" xlink:href="#x"/>
<use x="112.137" y="267.191" xlink:href="#a"/>
<use x="121.612822" y="267.191" xlink:href="#a"/>
<use x="131.088645" y="267.191" xlink:href="#e"/>
<use x="140.564467" y="267.191" xlink:href="#c"/>
<use x="145.721827" y="267.191" xlink:href="#d"/>
<use x="155.19765" y="267.191" xlink:href="#c"/>
<use x="160.35501" y="267.191" xlink:href="#d"/>
<use x="169.830832" y="267.191" xlink:href="#c"/>
<use x="174.988192" y="267.191" xlink:href="#a"/>
<use x="121.174" y="343.416" xlink:href="#n"/>
<use x="135.499311" y="343.416" xlink:href="#k"/>
<use x="144.975134" y="343.416" xlink:href="#g"/>
<use x="152.401236" y="343.416" xlink:href="#h"/>
<use x="165.957902" y="343.416" xlink:href="#f"/>
<use x="408.894" y="224.669" xlink:href="#an"/>
<use x="422.954831" y="224.669" xlink:href="#k"/>
<use x="432.430654" y="224.669" xlink:href="#am"/>
<use x="442.987125" y="224.669" xlink:href="#h"/>
<use x="450.303716" y="224.669" xlink:href="#j"/>
<use x="458.700956" y="224.669" xlink:href="#s"/>
<use x="494.839" y="508.151" xlink:href="#a"/>
<use x="504.314822" y="508.151" xlink:href="#a"/>
<use x="513.790645" y="508.151" xlink:href="#e"/>
<use x="523.266468" y="508.151" xlink:href="#c"/>
<use x="528.423828" y="508.151" xlink:href="#d"/>
<use x="537.89965" y="508.151" xlink:href="#c"/>
<use x="543.05701" y="508.151" xlink:href="#f"/>
<use x="552.532833" y="508.151" xlink:href="#c"/>
<use x="557.690193" y="508.151" xlink:href="#a"/>
<use x="503.875" y="470.984" xlink:href="#n"/>
<use x="518.200311" y="470.984" xlink:href="#k"/>
<use x="527.676134" y="470.984" xlink:href="#g"/>
<use x="535.102236" y="470.984" xlink:href="#h"/>
<use x="548.658902" y="470.984" xlink:href="#w"/>
<use x="324.749" y="508.151" xlink:href="#a"/>
<use x="334.224822" y="508.151" xlink:href="#a"/>
<use x="343.700645" y="508.151" xlink:href="#e"/>
<use x="353.176468" y="508.151" xlink:href="#c"/>
<use x="358.333828" y="508.151" xlink:href="#d"/>
<use x="367.80965" y="508.151" xlink:href="#c"/>
<use x="372.96701" y="508.151" xlink:href="#f"/>
<use x="382.442833" y="508.151" xlink:href="#c"/>
<use x="387.600193" y="508.151" xlink:href="#d"/>
<use x="333.786" y="470.984" xlink:href="#n"/>
<use x="348.111311" y="470.984" xlink:href="#k"/>
<use x="357.587134" y="470.984" xlink:href="#g"/>
<use x="365.013236" y="470.984" xlink:href="#h"/>
<use x="378.569903" y="470.984" xlink:href="#e"/>
<use x="112.137" y="153.798" xlink:href="#a"/>
<use x="121.612822" y="153.798" xlink:href="#a"/>
<use x="131.088645" y="153.798" xlink:href="#e"/>
<use x="140.564467" y="153.798" xlink:href="#c"/>
<use x="145.721827" y="153.798" xlink:href="#d"/>
<use x="155.19765" y="153.798" xlink:href="#c"/>
<use x="160.35501" y="153.798" xlink:href="#d"/>
<use x="169.830832" y="153.798" xlink:href="#c"/>
<use x="174.988192" y="153.798" xlink:href="#d"/>
<use x="121.174" y="116.63" xlink:href="#n"/>
<use x="135.499311" y="116.63" xlink:href="#k"/>
<use x="144.975134" y="116.63" xlink:href="#g"/>
<use x="152.401236" y="116.63" xlink:href="#h"/>
<use x="165.957902" y="116.63" xlink:href="#d"/>
<use x="112.137" y="380.584" xlink:href="#a"/>
<use x="121.612822" y="380.584" xlink:href="#a"/>
<use x="131.088645" y="380.584" xlink:href="#e"/>
<use x="140.564467" y="380.584" xlink:href="#c"/>
<use x="145.721827" y="380.584" xlink:href="#d"/>
<use x="155.19765" y="380.584" xlink:href="#c"/>
<use x="160.35501" y="380.584" xlink:href="#d"/>
<use x="169.830832" y="380.584" xlink:href="#c"/>
<use x="174.988192" y="380.584" xlink:href="#f"/>
<use x="294.253" y="204.825" xlink:href="#a"/>
<use x="303.728822" y="204.825" xlink:href="#a"/>
<use x="313.204645" y="204.825" xlink:href="#e"/>
<use x="322.680467" y="204.825" xlink:href="#c"/>
<use x="327.837828" y="204.825" xlink:href="#d"/>
<use x="337.31365" y="204.825" xlink:href="#c"/>
<use x="342.47101" y="204.825" xlink:href="#d"/>
<use x="351.946833" y="204.825" xlink:href="#c"/>
<use x="357.104193" y="204.825" xlink:href="#e"/>
<use x="508.324765" y="204.825" xlink:href="#a"/>
<use x="517.800588" y="204.825" xlink:href="#a"/>
<use x="527.27641" y="204.825" xlink:href="#e"/>
<use x="536.752233" y="204.825" xlink:href="#c"/>
<use x="541.909593" y="204.825" xlink:href="#d"/>
<use x="551.385415" y="204.825" xlink:href="#c"/>
<use x="556.542775" y="204.825" xlink:href="#a"/>
<use x="566.018598" y="204.825" xlink:href="#c"/>
<use x="571.175958" y="204.825" xlink:href="#r"/>
<use x="270.389" y="173.642" xlink:href="#m"/>
<use x="283.369182" y="173.642" xlink:href="#x"/>
<use x="292.845005" y="173.642" xlink:href="#b"/>
<use x="299.083014" y="173.642" xlink:href="#m"/>
<use x="312.063196" y="173.642" xlink:href="#r"/>
<use x="321.539019" y="173.642" xlink:href="#b"/>
<use x="327.777027" y="173.642" xlink:href="#p"/>
<use x="337.25285" y="173.642" xlink:href="#p"/>
<use x="346.728673" y="173.642" xlink:href="#b"/>
<use x="352.966681" y="173.642" xlink:href="#d"/>
<use x="362.442504" y="173.642" xlink:href="#o"/>
<use x="371.918326" y="173.642" xlink:href="#b"/>
<use x="378.156335" y="173.642" xlink:href="#i"/>
<use x="391.675809" y="173.642" xlink:href="#i"/>
<use x="405.195282" y="173.642" xlink:href="#b"/>
<use x="411.433291" y="173.642" xlink:href="#e"/>
<use x="420.909114" y="173.642" xlink:href="#i"/>
<use x="247.195" y="531.775" xlink:href="#a"/>
<use x="256.670822" y="531.775" xlink:href="#d"/>
<use x="266.146645" y="531.775" xlink:href="#b"/>
<use x="272.384654" y="531.775" xlink:href="#a"/>
<use x="281.860476" y="531.775" xlink:href="#a"/>
<use x="291.336299" y="531.775" xlink:href="#b"/>
<use x="297.574307" y="531.775" xlink:href="#a"/>
<use x="307.05013" y="531.775" xlink:href="#f"/>
<use x="316.525953" y="531.775" xlink:href="#b"/>
<use x="322.763961" y="531.775" xlink:href="#a"/>
<use x="332.239784" y="531.775" xlink:href="#e"/>
<use x="341.715606" y="531.775" xlink:href="#b"/>
<use x="347.953615" y="531.775" xlink:href="#a"/>
<use x="357.429438" y="531.775" xlink:href="#w"/>
<use x="366.90526" y="531.775" xlink:href="#b"/>
<use x="373.143269" y="531.775" xlink:href="#a"/>
<use x="382.619091" y="531.775" xlink:href="#x"/>
<use x="494.147001" y="531.775" xlink:href="#e"/>
<use x="503.622824" y="531.775" xlink:href="#r"/>
<use x="513.098646" y="531.775" xlink:href="#b"/>
<use x="519.336655" y="531.775" xlink:href="#i"/>
<use x="532.856129" y="531.775" xlink:href="#l"/>
<use x="547.456251" y="531.775" xlink:href="#b"/>
<use x="553.69426" y="531.775" xlink:href="#i"/>
<use x="567.213734" y="531.775" xlink:href="#f"/>
<use x="576.689556" y="531.775" xlink:href="#b"/>
<use x="582.927565" y="531.775" xlink:href="#q"/>
<use x="596.72185" y="531.775" xlink:href="#z"/>
<use x="606.197673" y="531.775" xlink:href="#b"/>
<use x="612.435681" y="531.775" xlink:href="#o"/>
<use x="621.911504" y="531.775" xlink:href="#r"/>
<use x="631.387326" y="531.775" xlink:href="#b"/>
<use x="637.625335" y="531.775" xlink:href="#a"/>
<use x="647.101158" y="531.775" xlink:href="#i"/>
<use x="451.629" y="304.044" xlink:href="#a"/>
<use x="461.104822" y="304.044" xlink:href="#r"/>
<use x="470.580645" y="304.044" xlink:href="#b"/>
<use x="476.818654" y="304.044" xlink:href="#f"/>
<use x="486.294476" y="304.044" xlink:href="#p"/>
<use x="495.770299" y="304.044" xlink:href="#b"/>
<use x="502.008308" y="304.044" xlink:href="#f"/>
<use x="511.48413" y="304.044" xlink:href="#d"/>
<use x="520.959953" y="304.044" xlink:href="#b"/>
<use x="527.197961" y="304.044" xlink:href="#t"/>
<use x="541.523273" y="304.044" xlink:href="#i"/>
<use x="555.042746" y="304.044" xlink:href="#b"/>
<use x="561.280755" y="304.044" xlink:href="#q"/>
<use x="575.07504" y="304.044" xlink:href="#l"/>
<use x="589.675162" y="304.044" xlink:href="#b"/>
<use x="595.913171" y="304.044" xlink:href="#p"/>
<use x="605.388994" y="304.044" xlink:href="#o"/>
<use x="451.629" y="329.557" xlink:href="#a"/>
<use x="461.104822" y="329.557" xlink:href="#a"/>
<use x="470.580645" y="329.557" xlink:href="#e"/>
<use x="480.056468" y="329.557" xlink:href="#c"/>
<use x="485.213828" y="329.557" xlink:href="#d"/>
<use x="494.68965" y="329.557" xlink:href="#c"/>
<use x="499.84701" y="329.557" xlink:href="#f"/>
<use x="509.322833" y="329.557" xlink:href="#c"/>
<use x="514.480193" y="329.557" xlink:href="#a"/>
<use x="523.956015" y="329.557" xlink:href="#o"/>
<use x="14.233" y="177.421" xlink:href="#v"/>
<use x="26.673891" y="177.421" xlink:href="#v"/>
<use x="39.114782" y="177.421" xlink:href="#b"/>
<use x="45.352791" y="177.421" xlink:href="#l"/>
<use x="59.952914" y="177.421" xlink:href="#l"/>
<use x="74.553036" y="177.421" xlink:href="#b"/>
<use x="80.791045" y="177.421" xlink:href="#m"/>
<use x="93.771227" y="177.421" xlink:href="#m"/>
<use x="106.75141" y="177.421" xlink:href="#b"/>
<use x="112.989419" y="177.421" xlink:href="#d"/>
<use x="122.465241" y="177.421" xlink:href="#d"/>
<use x="131.941064" y="177.421" xlink:href="#b"/>
<use x="138.179072" y="177.421" xlink:href="#d"/>
<use x="147.654895" y="177.421" xlink:href="#a"/>
<use x="157.130717" y="177.421" xlink:href="#b"/>
<use x="163.368726" y="177.421" xlink:href="#d"/>
<use x="172.844549" y="177.421" xlink:href="#f"/>
<use x="-0.331" y="290.814" xlink:href="#q"/>
<use x="13.463285" y="290.814" xlink:href="#q"/>
<use x="27.25757" y="290.814" xlink:href="#b"/>
<use x="33.495579" y="290.814" xlink:href="#e"/>
<use x="42.971401" y="290.814" xlink:href="#z"/>
<use x="52.447224" y="290.814" xlink:href="#b"/>
<use x="58.685232" y="290.814" xlink:href="#l"/>
<use x="73.285355" y="290.814" xlink:href="#v"/>
<use x="85.726246" y="290.814" xlink:href="#b"/>
<use x="91.964255" y="290.814" xlink:href="#t"/>
<use x="106.289566" y="290.814" xlink:href="#i"/>
<use x="119.80904" y="290.814" xlink:href="#b"/>
<use x="126.047049" y="290.814" xlink:href="#o"/>
<use x="135.522871" y="290.814" xlink:href="#l"/>
<use x="150.122994" y="290.814" xlink:href="#b"/>
<use x="156.361002" y="290.814" xlink:href="#m"/>
<use x="169.341185" y="290.814" xlink:href="#m"/>
<use x="19.083" y="401.373" xlink:href="#a"/>
<use x="28.558822" y="401.373" xlink:href="#d"/>
<use x="38.034645" y="401.373" xlink:href="#b"/>
<use x="44.272654" y="401.373" xlink:href="#a"/>
<use x="53.748476" y="401.373" xlink:href="#a"/>
<use x="63.224299" y="401.373" xlink:href="#b"/>
<use x="69.462307" y="401.373" xlink:href="#f"/>
<use x="78.93813" y="401.373" xlink:href="#p"/>
<use x="88.413952" y="401.373" xlink:href="#b"/>
<use x="94.651961" y="401.373" xlink:href="#t"/>
<use x="108.977272" y="401.373" xlink:href="#i"/>
<use x="122.496746" y="401.373" xlink:href="#b"/>
<use x="128.734755" y="401.373" xlink:href="#q"/>
<use x="142.52904" y="401.373" xlink:href="#l"/>
<use x="157.129162" y="401.373" xlink:href="#b"/>
<use x="163.367171" y="401.373" xlink:href="#d"/>
<use x="172.842994" y="401.373" xlink:href="#w"/>
<use x="121.174" y="230.338" xlink:href="#n"/>
<use x="135.499311" y="230.338" xlink:href="#k"/>
<use x="144.975134" y="230.338" xlink:href="#g"/>
<use x="152.401236" y="230.338" xlink:href="#h"/>
<use x="165.957902" y="230.338" xlink:href="#a"/>
<use x="85.573" y="462.794" xlink:href="#m"/>
<use x="98.553182" y="462.794" xlink:href="#u"/>
<use x="103.710542" y="462.794" xlink:href="#y"/>
<use x="120.507089" y="462.794" xlink:href="#j"/>
<use x="128.904329" y="462.794" xlink:href="#u"/>
<use x="134.061689" y="462.794" xlink:href="#y"/>
<use x="144.61816" y="462.794" xlink:href="#al"/>
<use x="150.316877" y="462.794" xlink:href="#ak"/>
<use x="159.7927" y="462.794" xlink:href="#aj"/>
<use x="167.652715" y="462.794" xlink:href="#ai"/>
<use x="178.209186" y="462.794" xlink:href="#j"/>
<use x="186.606426" y="462.794" xlink:href="#g"/>
<use x="54.507" y="487.363" xlink:href="#ah"/>
<use x="61.276035" y="487.363" xlink:href="#ag"/>
<use x="74.256217" y="487.363" xlink:href="#b"/>
<use x="80.494226" y="487.363" xlink:href="#af"/>
<use x="94.819537" y="487.363" xlink:href="#j"/>
<use x="103.216777" y="487.363" xlink:href="#h"/>
<use x="110.533369" y="487.363" xlink:href="#ae"/>
<use x="118.930609" y="487.363" xlink:href="#ad"/>
<use x="132.187669" y="487.363" xlink:href="#j"/>
<use x="140.584909" y="487.363" xlink:href="#s"/>
<use x="147.9015" y="487.363" xlink:href="#ac"/>
<use x="164.156689" y="487.363" xlink:href="#ab"/>
<use x="180.110205" y="487.363" xlink:href="#u"/>
<use x="185.267565" y="487.363" xlink:href="#h"/>
<use x="198.824231" y="487.363" xlink:href="#aa"/>
<use x="209.380702" y="487.363" xlink:href="#j"/>
<use x="217.777942" y="487.363" xlink:href="#s"/>
</g>
</svg>
