<svg width="782pt" height="448pt" version="1.1" viewBox="0 0 782 448" xmlns="http://www.w3.org/2000/svg" xmlns:xlink="http://www.w3.org/1999/xlink">
<defs>
<g id="b">
<path d="m8.6094-12.594c0.125-0.5 0.17188-0.6875 0.48438-0.76562 0.15625-0.046875 0.84375-0.046875 1.2812-0.046875 2.0625 0 3.0312 0.078125 3.0312 1.6875 0 0.3125-0.078125 1.0938-0.20312 1.8594l-0.03125 0.25c0 0.09375 0.09375 0.20312 0.21875 0.20312 0.20312 0 0.20312-0.09375 0.26562-0.42188l0.59375-3.6562c0.046875-0.1875 0.046875-0.23438 0.046875-0.29688 0-0.21875-0.125-0.21875-0.54688-0.21875h-11.297c-0.46875 0-0.48438 0.015625-0.60938 0.39062l-1.2656 3.7188c-0.015625 0.03125-0.078125 0.26562-0.078125 0.28125 0 0.10938 0.078125 0.20312 0.20312 0.20312 0.17188 0 0.20312-0.078125 0.28125-0.34375 0.875-2.5 1.3125-3.6562 4.0625-3.6562h1.375c0.5 0 0.70312 0 0.70312 0.23438 0 0.0625 0 0.09375-0.10938 0.46875l-2.7656 11.094c-0.20312 0.79688-0.25 1.0156-2.4375 1.0156-0.51562 0-0.65625 0-0.65625 0.39062 0 0.20312 0.23438 0.20312 0.32812 0.20312 0.51562 0 1.0625-0.046875 1.5781-0.046875h3.2188c0.51562 0 1.0781 0.046875 1.5938 0.046875 0.21875 0 0.42188 0 0.42188-0.39062 0-0.20312-0.14062-0.20312-0.67188-0.20312-1.8594 0-1.8594-0.1875-1.8594-0.5 0-0.015625 0-0.17188 0.078125-0.5z"/>
</g>
<g id="g">
<path d="m18.75-12.594c0.1875-0.70312 0.23438-0.92188 1.7031-0.92188 0.39062 0 0.57812 0 0.57812-0.39062 0-0.20312-0.14062-0.20312-0.54688-0.20312h-2.4688c-0.51562 0-0.54688 0.015625-0.76562 0.35938l-7.5469 11.906-1.5469-11.812c-0.0625-0.45312-0.078125-0.45312-0.60938-0.45312h-2.5625c-0.40625 0-0.57812 0-0.57812 0.39062 0 0.20312 0.17188 0.20312 0.48438 0.20312 1.2656 0 1.2656 0.17188 1.2656 0.40625 0 0.03125 0 0.15625-0.078125 0.46875l-2.6562 10.531c-0.23438 1-0.71875 1.4531-2.0938 1.5156-0.0625 0-0.3125 0.015625-0.3125 0.35938 0 0.23438 0.1875 0.23438 0.26562 0.23438 0.40625 0 1.4688-0.046875 1.875-0.046875h1c0.28125 0 0.64062 0.046875 0.92188 0.046875 0.14062 0 0.375 0 0.375-0.39062 0-0.1875-0.20312-0.20312-0.28125-0.20312-0.6875-0.03125-1.3438-0.15625-1.3438-0.89062 0-0.20312 0-0.23438 0.078125-0.51562l2.8438-11.391h0.03125l1.7031 12.828c0.0625 0.5 0.09375 0.5625 0.28125 0.5625 0.21875 0 0.32812-0.17188 0.42188-0.34375l8.3125-13.141h0.015625l-3 11.953c-0.1875 0.71875-0.21875 0.9375-1.6719 0.9375-0.39062 0-0.59375 0-0.59375 0.35938 0 0.23438 0.1875 0.23438 0.3125 0.23438 0.34375 0 0.76562-0.046875 1.1094-0.046875h2.4375c0.35938 0 0.78125 0.046875 1.1406 0.046875 0.15625 0 0.39062 0 0.39062-0.39062 0-0.20312-0.1875-0.20312-0.5-0.20312-1.25 0-1.25-0.17188-1.25-0.375 0-0.015625 0-0.17188 0.03125-0.32812z"/>
</g>
<g id="y">
<path d="m1.8438-8.2188c0.60938 0.20312 1.1094 0.21875 1.2656 0.21875 1.625 0 2.6562-1.1875 2.6562-1.3906 0-0.0625-0.03125-0.14062-0.10938-0.14062-0.03125 0-0.0625 0-0.1875 0.0625-0.8125 0.34375-1.5 0.39062-1.875 0.39062-0.9375 0-1.6094-0.28125-1.8906-0.40625-0.09375-0.046875-0.125-0.046875-0.14062-0.046875-0.10938 0-0.10938 0.09375-0.10938 0.32812v4.25c0 0.26562 0 0.34375 0.17188 0.34375 0.0625 0 0.078125-0.015625 0.21875-0.1875 0.40625-0.57812 1.0781-0.92188 1.7969-0.92188 0.76562 0 1.1406 0.70312 1.25 0.9375 0.25 0.5625 0.26562 1.2656 0.26562 1.8125s0 1.3594-0.40625 2c-0.3125 0.53125-0.875 0.875-1.5156 0.875-0.9375 0-1.875-0.64062-2.125-1.6875 0.0625 0.03125 0.15625 0.046875 0.21875 0.046875 0.25 0 0.64062-0.14062 0.64062-0.625 0-0.40625-0.28125-0.64062-0.64062-0.64062-0.25 0-0.625 0.125-0.625 0.6875 0 1.2188 0.96875 2.6094 2.5625 2.6094 1.625 0 3.0469-1.3594 3.0469-3.1875 0-1.7031-1.1562-3.125-2.6562-3.125-0.8125 0-1.4531 0.35938-1.8125 0.76562z"/>
</g>
<g id="ag">
<path d="m1.7656-4.9844c0-3.6406 1.7656-4.2031 2.5312-4.2031 0.51562 0 1.0312 0.15625 1.3125 0.57812-0.17188 0-0.71875 0-0.71875 0.59375 0 0.3125 0.21875 0.57812 0.59375 0.57812 0.35938 0 0.59375-0.20312 0.59375-0.625 0-0.75-0.54688-1.4688-1.7969-1.4688-1.7969 0-3.6875 1.8438-3.6875 5 0 3.9375 1.7188 4.8281 2.9375 4.8281 1.5625 0 2.8906-1.3594 2.8906-3.2188 0-1.9062-1.3281-3.1875-2.7656-3.1875-1.2812 0-1.75 1.1094-1.8906 1.5zm1.7656 4.8906c-0.90625 0-1.3438-0.79688-1.4688-1.0938-0.125-0.375-0.26562-1.0781-0.26562-2.0781 0-1.1406 0.51562-2.5625 1.7969-2.5625 0.79688 0 1.2188 0.53125 1.4219 1.0156 0.23438 0.53125 0.23438 1.25 0.23438 1.875 0 0.73438 0 1.375-0.26562 1.9219-0.35938 0.6875-0.875 0.92188-1.4531 0.92188z"/>
</g>
<g id="x">
<path d="m5.1719-9.3438c0-0.26562 0-0.34375-0.1875-0.34375-0.125 0-0.17188 0-0.28125 0.17188l-4.3125 6.7031v0.42188h3.7656v1.2969c0 0.53125-0.03125 0.67188-1.0781 0.67188h-0.28125v0.42188c0.32812-0.03125 1.4688-0.03125 1.8594-0.03125 0.40625 0 1.5469 0 1.8906 0.03125v-0.42188h-0.29688c-1.0312 0-1.0781-0.14062-1.0781-0.67188v-1.2969h1.4531v-0.42188h-1.4531zm-0.9375 1.125v5.4062h-3.4844z"/>
</g>
<g id="w">
<path d="m2.6406-5.1562c-0.25 0.015625-0.29688 0.03125-0.29688 0.17188s0.0625 0.14062 0.32812 0.14062h0.65625c1.2188 0 1.7656 1 1.7656 2.375 0 1.875-0.98438 2.375-1.6875 2.375-0.6875 0-1.8594-0.32812-2.2656-1.2656 0.45312 0.0625 0.875-0.1875 0.875-0.70312 0-0.42188-0.3125-0.70312-0.70312-0.70312-0.34375 0-0.71875 0.20312-0.71875 0.75 0 1.2656 1.2656 2.3125 2.8594 2.3125 1.7031 0 2.9688-1.2969 2.9688-2.75 0-1.3125-1.0625-2.3594-2.4375-2.5938 1.25-0.35938 2.0469-1.4062 2.0469-2.5312s-1.1719-1.9531-2.5625-1.9531c-1.4375 0-2.5 0.875-2.5 1.9219 0 0.5625 0.45312 0.6875 0.67188 0.6875 0.29688 0 0.64062-0.21875 0.64062-0.65625 0-0.45312-0.34375-0.65625-0.65625-0.65625-0.09375 0-0.125 0-0.15625 0.015625 0.54688-0.96875 1.8906-0.96875 1.9531-0.96875 0.48438 0 1.4062 0.20312 1.4062 1.6094 0 0.28125-0.03125 1.0781-0.45312 1.7031-0.4375 0.625-0.92188 0.67188-1.3125 0.6875z"/>
</g>
<g id="v">
<path d="m6.3125-2.4062h-0.3125c-0.046875 0.23438-0.15625 1.0312-0.3125 1.2656-0.09375 0.125-0.90625 0.125-1.3438 0.125h-2.6562c0.39062-0.32812 1.2656-1.25 1.6406-1.5938 2.1875-2.0156 2.9844-2.75 2.9844-4.1719 0-1.6562-1.3125-2.75-2.9688-2.75-1.6719 0-2.6406 1.4062-2.6406 2.6406 0 0.73438 0.625 0.73438 0.67188 0.73438 0.29688 0 0.67188-0.21875 0.67188-0.67188 0-0.40625-0.26562-0.67188-0.67188-0.67188-0.125 0-0.15625 0-0.20312 0.015625 0.28125-0.98438 1.0469-1.6406 1.9844-1.6406 1.2188 0 1.9688 1.0156 1.9688 2.3438 0 1.2188-0.70312 2.2812-1.5312 3.2031l-2.8906 3.2344v0.34375h5.2344z"/>
</g>
<g id="u">
<path d="m4.125-9.1875c0-0.34375 0-0.34375-0.28125-0.34375-0.34375 0.375-1.0625 0.90625-2.5312 0.90625v0.42188c0.32812 0 1.0469 0 1.8281-0.375v7.4688c0 0.51562-0.046875 0.6875-1.2969 0.6875h-0.45312v0.42188c0.39062-0.03125 1.7812-0.03125 2.25-0.03125s1.8594 0 2.2344 0.03125v-0.42188h-0.4375c-1.2656 0-1.3125-0.17188-1.3125-0.6875z"/>
</g>
<g id="m">
<path d="m12.844-14.047h-11.922l-0.34375 4.5625h0.375c0.26562-3.4219 0.5625-4.0312 3.7344-4.0312 0.375 0 0.96875 0 1.1406 0.03125 0.39062 0.0625 0.39062 0.3125 0.39062 0.78125v11.188c0 0.75-0.0625 0.98438-1.7812 0.98438h-0.57812v0.53125c1-0.015625 2.0312-0.046875 3.0469-0.046875 1 0 2.0312 0.03125 3.0312 0.046875v-0.53125h-0.57812c-1.7188 0-1.7812-0.23438-1.7812-0.98438v-11.188c0-0.45312 0-0.70312 0.375-0.78125 0.17188-0.03125 0.76562-0.03125 1.1406-0.03125 3.1562 0 3.4688 0.60938 3.7344 4.0312h0.375z"/>
</g>
<g id="f">
<path d="m6.0781-8.8125v0.53125c1.2188 0 1.4062 0.125 1.4062 1.1094v3.7656c0 1.7344-0.9375 3.2344-2.4688 3.2344-1.6875 0-1.8281-1-1.8281-2.0781v-6.7969l-2.5 0.23438v0.53125c0.82812 0 1.375 0 1.4062 0.82812v3.9688c0 1.375 0 2.2656 0.53125 2.8438 0.26562 0.26562 0.78125 0.8125 2.2656 0.8125 1.7656 0 2.4375-1.5 2.6094-1.9219h0.015625v1.9219l2.4688-0.17188v-0.53125c-1.2188 0-1.4062-0.125-1.4062-1.125v-7.3906z"/>
</g>
<g id="e">
<path d="m8.5781-6.2812c0-1.0469-0.21875-2.7656-2.6562-2.7656-1.625 0-2.4688 1.2656-2.7812 2.0781h-0.015625v-2.0781l-2.4375 0.23438v0.53125c1.2188 0 1.4062 0.125 1.4062 1.1094v5.75c0 0.78125-0.09375 0.89062-1.4062 0.89062v0.53125c0.48438-0.046875 1.4062-0.046875 1.9375-0.046875s1.4688 0 1.9531 0.046875v-0.53125c-1.3125 0-1.3906-0.09375-1.3906-0.89062v-3.9688c0-1.9062 1.1562-3.3281 2.5938-3.3281 1.5312 0 1.7031 1.3594 1.7031 2.3594v4.9375c0 0.78125-0.09375 0.89062-1.4062 0.89062v0.53125c0.48438-0.046875 1.4062-0.046875 1.9375-0.046875s1.4688 0 1.9688 0.046875v-0.53125c-1.3281 0-1.4062-0.09375-1.4062-0.89062z"/>
</g>
<g id="a">
<path d="m7.875-4.8594c0.078125-0.078125 0.078125-0.125 0.078125-0.32812 0-2.1094-1.1094-3.9375-3.4688-3.9375-2.1875 0-3.9219 2.0781-3.9219 4.625 0 2.6875 1.9531 4.6719 4.1406 4.6719 2.3125 0 3.2344-2.2031 3.2344-2.625 0-0.15625-0.125-0.15625-0.17188-0.15625-0.14062 0-0.17188 0.046875-0.25 0.29688-0.45312 1.4062-1.5938 2.1094-2.6562 2.1094-0.89062 0-1.7812-0.5-2.3438-1.4062-0.64062-1.0625-0.64062-2.2812-0.64062-3.25zm-5.9688-0.3125c0.14062-2.9688 1.7344-3.625 2.5625-3.625 1.3906 0 2.3438 1.3125 2.375 3.625z"/>
</g>
<g id="h">
<path d="m3.1562-14.328-2.4531 0.21875v0.53125c1.2188 0 1.4062 0.125 1.4062 1.125v11.031c0 0.78125-0.078125 0.89062-1.4062 0.89062v0.53125c0.5-0.046875 1.4062-0.046875 1.9219-0.046875 0.53125 0 1.4375 0 1.9375 0.046875v-0.53125c-1.3125 0-1.4062-0.09375-1.4062-0.89062z"/>
</g>
<g id="o">
<path d="m3.6562-12.75c0-0.51562-0.40625-0.82812-0.8125-0.82812-0.53125 0-0.8125 0.46875-0.8125 0.8125 0 0.40625 0.32812 0.82812 0.8125 0.82812 0.4375 0 0.8125-0.35938 0.8125-0.8125zm3.7812 0c0-0.40625-0.32812-0.82812-0.82812-0.82812-0.4375 0-0.8125 0.35938-0.8125 0.8125 0 0.51562 0.42188 0.82812 0.8125 0.82812 0.53125 0 0.82812-0.45312 0.82812-0.8125z"/>
</g>
<g id="n">
<path d="m3.0938-14.328-2.4531 0.21875v0.53125c1.2188 0 1.4062 0.125 1.4062 1.125v12.453h0.375l0.59375-1.4688c0.59375 0.96875 1.4844 1.6406 2.6875 1.6406 2.0625 0 4.1562-1.8281 4.1562-4.6406 0-2.6406-1.8594-4.5781-3.9531-4.5781-1.2812 0-2.1875 0.6875-2.8125 1.4844zm0.046875 7.8281c0-0.375 0-0.4375 0.28125-0.875 0.8125-1.2344 1.9688-1.3438 2.3594-1.3438 0.625 0 2.75 0.32812 2.75 4.2344 0 4.0938-2.4375 4.3125-2.9375 4.3125-0.64062 0-1.5625-0.23438-2.2344-1.4375-0.21875-0.39062-0.21875-0.4375-0.21875-0.8125z"/>
</g>
<g id="j">
<path d="m3.0938-4.875c0-1.9844 0.85938-3.8438 2.4062-3.8438 0.14062 0 0.28125 0.015625 0.42188 0.078125 0 0-0.45312 0.15625-0.45312 0.6875 0 0.5 0.39062 0.70312 0.70312 0.70312 0.25 0 0.70312-0.14062 0.70312-0.71875 0-0.67188-0.65625-1.0781-1.3594-1.0781-1.5625 0-2.25 1.5312-2.4531 2.25h-0.03125v-2.25l-2.3906 0.23438v0.53125c1.2188 0 1.4062 0.125 1.4062 1.1094v5.75c0 0.78125-0.078125 0.89062-1.4062 0.89062v0.53125c0.5-0.046875 1.4531-0.046875 1.9844-0.046875 0.59375 0 1.6562 0 2.2031 0.046875v-0.53125c-1.4844 0-1.7344 0-1.7344-0.9375z"/>
</g>
<g id="z">
<path d="m4.3125-13.781c-0.125-0.3125-0.14062-0.32812-0.57812-0.32812h-2.6406v0.53125c1.4219 0 1.6562 0 1.6562 0.9375v10.609c0 0.51562 0 1.5-1.6562 1.5v0.53125c0.46875-0.046875 1.3438-0.046875 1.8594-0.046875s1.3906 0 1.8594 0.046875v-0.53125c-1.6562 0-1.6562-0.98438-1.6562-1.5v-11.453h0.03125l4.8438 13.156c0.09375 0.20312 0.125 0.32812 0.29688 0.32812 0.15625 0 0.20312-0.125 0.28125-0.32812l4.9062-13.266h0.015625v12.125c0 0.9375-0.23438 0.9375-1.6562 0.9375v0.53125c0.5625-0.046875 1.6719-0.046875 2.2812-0.046875 0.59375 0 1.7344 0 2.2812 0.046875v-0.53125c-1.4219 0-1.6406 0-1.6406-0.9375v-11.172c0-0.9375 0.21875-0.9375 1.6406-0.9375v-0.53125h-2.625c-0.42188 0-0.45312 0.015625-0.57812 0.32812l-4.4531 12.109z"/>
</g>
<g id="q">
<path d="m3.125-8.3438h2.8906v-0.53125h-2.8906v-3.8281h-0.375c-0.046875 2.125-0.76562 3.9844-2.5156 4.0312v0.32812h1.7969v5.7969c0 0.40625 0 2.7188 2.3906 2.7188 1.2188 0 1.9219-1.2031 1.9219-2.7344v-1.1719h-0.375v1.1562c0 1.4219-0.5625 2.375-1.4219 2.375-0.59375 0-1.4219-0.42188-1.4219-2.2969z"/>
</g>
<g id="c">
<path d="m3.2031-12.719c0-0.45312-0.375-0.85938-0.84375-0.85938-0.45312 0-0.84375 0.375-0.84375 0.85938 0 0.45312 0.35938 0.84375 0.84375 0.84375 0.45312 0 0.84375-0.375 0.84375-0.84375zm-2.4219 3.9062v0.53125c1.1562 0 1.3281 0.125 1.3281 1.1094v5.75c0 0.78125-0.078125 0.89062-1.4062 0.89062v0.53125c0.5-0.046875 1.3906-0.046875 1.9062-0.046875 0.48438 0 1.3438 0 1.8125 0.046875v-0.53125c-1.2188 0-1.2656-0.125-1.2656-0.875v-7.6406z"/>
</g>
<g id="p">
<path d="m7.2031-7.2344c-0.39062 0-0.96875 0-0.96875 0.73438 0 0.57812 0.48438 0.73438 0.75 0.73438 0.14062 0 0.73438-0.0625 0.73438-0.78125 0-1.4688-1.3906-2.5781-2.9844-2.5781-2.1875 0-4.0469 2.0156-4.0469 4.6562 0 2.75 1.9375 4.6406 4.0469 4.6406 2.5625 0 3.2031-2.375 3.2031-2.6094 0-0.078125-0.03125-0.14062-0.17188-0.14062s-0.17188 0.015625-0.25 0.28125c-0.53125 1.6719-1.7188 2.0938-2.5938 2.0938-1.3281 0-2.9219-1.2188-2.9219-4.2812 0-3.1406 1.5312-4.2812 2.75-4.2812 0.8125 0 2 0.40625 2.4531 1.5312z"/>
</g>
<g id="t">
<path d="m7.4375-5.3438c0-1.375 0-2.0938-0.875-2.8906-0.76562-0.6875-1.6406-0.89062-2.3438-0.89062-1.6406 0-2.8125 1.2812-2.8125 2.6406 0 0.76562 0.625 0.79688 0.73438 0.79688 0.28125 0 0.75-0.15625 0.75-0.73438 0-0.51562-0.39062-0.75-0.75-0.75-0.078125 0-0.17188 0.03125-0.23438 0.046875 0.42188-1.2969 1.5469-1.6719 2.2656-1.6719 1.0312 0 2.1719 0.90625 2.1719 2.6406v0.90625c-1.2188 0.046875-2.6875 0.20312-3.8438 0.82812-1.2969 0.71875-1.6719 1.75-1.6719 2.5469 0 1.5781 1.8594 2.0469 2.9531 2.0469 1.1406 0 2.1875-0.64062 2.6406-1.8281 0.046875 0.90625 0.625 1.7344 1.5312 1.7344 0.4375 0 1.5312-0.28125 1.5312-1.9219v-1.1562h-0.375v1.1875c0 1.25-0.5625 1.4219-0.82812 1.4219-0.84375 0-0.84375-1.0781-0.84375-1.9844zm-1.0938 2.4688c0 1.7969-1.2812 2.7031-2.4219 2.7031-1.0312 0-1.8281-0.75-1.8281-1.7031 0-0.625 0.26562-1.7188 1.4531-2.375 1-0.5625 2.1406-0.64062 2.7969-0.6875z"/>
</g>
<g id="l">
<path d="m6.375-8.7188c0-0.375-0.015625-0.39062-0.14062-0.39062-0.078125 0-0.09375 0.015625-0.34375 0.32812-0.0625 0.078125-0.25 0.29688-0.3125 0.375-0.65625-0.70312-1.5938-0.71875-1.9375-0.71875-2.2969 0-3.125 1.1875-3.125 2.3906 0 1.8594 2.1094 2.2969 2.7031 2.4219 1.3125 0.26562 1.7656 0.34375 2.1875 0.71875 0.28125 0.25 0.73438 0.70312 0.73438 1.4531 0 0.85938-0.5 1.9688-2.4062 1.9688-1.7969 0-2.4375-1.3594-2.8125-3.1719-0.046875-0.29688-0.046875-0.3125-0.21875-0.3125s-0.1875 0.015625-0.1875 0.4375v2.9688c0 0.375 0.015625 0.39062 0.14062 0.39062 0.10938 0 0.125-0.015625 0.23438-0.1875 0.125-0.1875 0.4375-0.67188 0.5625-0.875 0.40625 0.54688 1.125 1.0938 2.2812 1.0938 2.0469 0 3.1406-1.125 3.1406-2.7344 0-1.0469-0.54688-1.6094-0.82812-1.8594-0.60938-0.64062-1.3438-0.78125-2.2031-0.95312-1.1406-0.25-2.5781-0.53125-2.5781-1.7969 0-0.53125 0.28125-1.6719 2.375-1.6719 2.2031 0 2.3281 2.0625 2.375 2.7344 0.015625 0.09375 0.125 0.125 0.1875 0.125 0.17188 0 0.17188-0.0625 0.17188-0.42188z"/>
</g>
<g id="af">
<path d="m3.1562-8.3438h2.3594v-0.53125h-2.3906v-2.5c0-1.7188 0.85938-2.7969 1.75-2.7969 0.26562 0 0.57812 0.078125 0.78125 0.23438-0.15625 0.03125-0.59375 0.1875-0.59375 0.70312 0 0.53125 0.40625 0.70312 0.70312 0.70312 0.28125 0 0.70312-0.17188 0.70312-0.70312 0-0.79688-0.75-1.2656-1.5781-1.2656-1.1719 0-2.7812 0.96875-2.7812 3.1562v2.4688h-1.6562v0.53125h1.6562v6.9219c0 0.78125-0.078125 0.89062-1.4062 0.89062v0.53125c0.5-0.046875 1.4375-0.046875 1.9844-0.046875 0.59375 0 1.6562 0 2.2031 0.046875v-0.53125c-1.4844 0-1.7344 0-1.7344-0.9375z"/>
</g>
<g id="k">
<path d="m8.5781-6.2812c0-1.0469-0.21875-2.7656-2.6562-2.7656-1.6875 0-2.5156 1.3594-2.7656 2.0469h-0.015625v-7.3281l-2.4531 0.21875v0.53125c1.2188 0 1.4062 0.125 1.4062 1.125v11.031c0 0.78125-0.09375 0.89062-1.4062 0.89062v0.53125c0.48438-0.046875 1.4062-0.046875 1.9375-0.046875s1.4688 0 1.9531 0.046875v-0.53125c-1.3125 0-1.3906-0.09375-1.3906-0.89062v-3.9688c0-1.9062 1.1562-3.3281 2.5938-3.3281 1.5312 0 1.7031 1.3594 1.7031 2.3594v4.9375c0 0.78125-0.09375 0.89062-1.4062 0.89062v0.53125c0.48438-0.046875 1.4062-0.046875 1.9375-0.046875s1.4688 0 1.9688 0.046875v-0.53125c-1.3281 0-1.4062-0.09375-1.4062-0.89062z"/>
</g>
<g id="i">
<path d="m2.2969-3.7188c0.39062 0.3125 1.0625 0.65625 1.8906 0.65625 1.6406 0 3.0469-1.2812 3.0469-2.9844 0-0.54688-0.17188-1.375-0.79688-2.0156 0.57812-0.60938 1.4375-0.8125 1.9062-0.8125 0.078125 0 0.20312 0 0.3125 0.0625-0.078125 0.015625-0.26562 0.09375-0.26562 0.42188 0 0.26562 0.1875 0.45312 0.45312 0.45312 0.3125 0 0.46875-0.20312 0.46875-0.46875 0-0.39062-0.3125-0.8125-0.96875-0.8125-0.82812 0-1.5469 0.40625-2.125 0.9375-0.625-0.5625-1.3594-0.76562-2.0312-0.76562-1.625 0-3.0312 1.2812-3.0312 3 0 1.1719 0.6875 1.9219 0.89062 2.125-0.625 0.71875-0.625 1.5625-0.625 1.6719 0 0.53125 0.20312 1.3281 0.90625 1.75-1.0625 0.26562-1.9219 1.0938-1.9219 2.125 0 1.5 1.9688 2.5938 4.3281 2.5938 2.2656 0 4.3125-1.0625 4.3125-2.6094 0-2.8125-3.0625-2.8125-4.6406-2.8125-0.48438 0-1.3281 0-1.4375-0.015625-0.64062-0.10938-1.0625-0.6875-1.0625-1.4062 0-0.1875 0-0.64062 0.39062-1.0938zm1.8906 0.3125c-1.8125 0-1.8125-2.2344-1.8125-2.6406 0-0.42188 0-2.6562 1.8125-2.6562 1.8281 0 1.8281 2.2344 1.8281 2.6562 0 0.40625 0 2.6406-1.8281 2.6406zm0.54688 7.2656c-2.0625 0-3.5-1.0938-3.5-2.2344 0-0.64062 0.35938-1.2344 0.8125-1.5625 0.51562-0.35938 0.71875-0.35938 2.125-0.35938 1.6875 0 4.0469 0 4.0469 1.9219 0 1.1406-1.4219 2.2344-3.4844 2.2344z"/>
</g>
<g id="s">
<path d="m6.0312-14.109v0.53125c1.2188 0 1.4062 0.125 1.4062 1.125v4.8281c-0.078125-0.09375-0.9375-1.4219-2.6094-1.4219-2.0938 0-4.1406 1.875-4.1406 4.6094 0 2.7031 1.9219 4.6094 3.9375 4.6094 1.75 0 2.6719-1.375 2.7656-1.5156v1.5156l2.5-0.17188v-0.53125c-1.2188 0-1.4062-0.125-1.4062-1.125v-12.672zm1.3594 11.625c0 0.625-0.375 1.1875-0.84375 1.5938-0.70312 0.625-1.4062 0.71875-1.7969 0.71875-0.59375 0-2.75-0.29688-2.75-4.25 0-4.0469 2.4062-4.2969 2.9375-4.2969 0.95312 0 1.7188 0.53125 2.1875 1.2812 0.26562 0.4375 0.26562 0.5 0.26562 0.875z"/>
</g>
<g id="ae">
<path d="m5.3906-5.4531c-0.015625-0.046875-0.125-0.17188-0.125-0.23438 0-0.03125 1.4688-1.375 1.6562-1.5469 1.1719-0.98438 1.9219-1.0938 2.4531-1.1094v-0.53125c-0.125 0-0.15625 0-0.1875 0.015625l-1 0.015625c-0.59375 0-1.4688 0-2.0312-0.03125v0.53125c0.28125 0.015625 0.5 0.1875 0.5 0.46875 0 0.42188-0.42188 0.8125-0.4375 0.8125l-3.125 2.8438v-10.109l-2.4531 0.21875v0.53125c1.2188 0 1.4062 0.125 1.4062 1.125v11.031c0 0.78125-0.078125 0.89062-1.4062 0.89062v0.53125c0.5-0.046875 1.4062-0.046875 1.9219-0.046875s1.4219 0 1.9219 0.046875v-0.53125c-1.3281 0-1.4062-0.09375-1.4062-0.89062v-2.2812l1.4219-1.2969 2.0938 3.0938c0.25 0.375 0.45312 0.67188 0.45312 0.9375 0 0.375-0.375 0.4375-0.625 0.4375v0.53125c0.5-0.046875 1.3906-0.046875 1.9062-0.046875 0.375 0 1.125 0.03125 1.4844 0.046875v-0.53125c-0.96875 0-1.2031-0.1875-1.8125-1.0938z"/>
</g>
<g id="ad">
<path d="m12.188-12.203c0.1875-0.45312 0.51562-1.3438 1.9062-1.375v-0.53125c-0.48438 0.046875-1.0156 0.046875-1.5312 0.046875-0.5 0-1.3438 0-1.8281-0.046875v0.53125c1.0469 0.0625 1.0781 0.79688 1.0781 0.92188 0 0.21875-0.0625 0.35938-0.125 0.53125l-4.0625 10.594-4.2656-11.125c-0.046875-0.15625-0.09375-0.25-0.09375-0.35938 0-0.5625 0.82812-0.5625 1.2656-0.5625v-0.53125c-0.67188 0.046875-1.6406 0.046875-2.3281 0.046875-0.53125 0-1.5 0-2-0.046875v0.53125c1.2031 0 1.4219 0.09375 1.6719 0.75l4.9219 12.828c0.10938 0.29688 0.125 0.32812 0.34375 0.32812 0.23438 0 0.25-0.03125 0.35938-0.32812z"/>
</g>
<g id="ac">
<path d="m4.0938-6.625h3.2969c2.6719 0 4.6094-1.7344 4.6094-3.7031s-1.9062-3.7812-4.6094-3.7812h-6.3125v0.53125c1.4219 0 1.6562 0 1.6562 0.9375v11.172c0 0.9375-0.23438 0.9375-1.6562 0.9375v0.53125c0.59375-0.046875 1.6875-0.046875 2.3281-0.046875s1.7344 0 2.3438 0.046875v-0.53125c-1.4375 0-1.6562 0-1.6562-0.9375zm-0.046875-0.4375v-5.7031c0-0.70312 0.046875-0.8125 0.875-0.8125h2.0781c2.6719 0 3.4375 1.5312 3.4375 3.25 0 1.875-0.92188 3.2656-3.4375 3.2656z"/>
</g>
<g id="ab">
<path d="m8.0625-7.0625c0.51562-1.2656 1.4375-1.2812 1.7344-1.2812v-0.53125c-0.39062 0.015625-0.92188 0.03125-1.3125 0.03125-0.42188 0-1.1094 0-1.5156-0.03125v0.53125c0.78125 0.0625 0.79688 0.64062 0.79688 0.79688 0 0.21875-0.046875 0.3125-0.14062 0.5625l-2.25 5.5781-2.4688-6.0312c-0.09375-0.25-0.09375-0.39062-0.09375-0.40625 0-0.45312 0.46875-0.5 0.96875-0.5v-0.53125c-0.5 0.03125-1.3906 0.03125-1.9062 0.03125-0.54688 0-1.2188 0-1.6719-0.03125v0.53125c1.125 0 1.25 0.10938 1.5156 0.76562l3.0781 7.5781c-0.9375 2.4375-1.4688 3.8594-2.7656 3.8594-0.23438 0-0.75-0.0625-1.125-0.4375 0.48438-0.03125 0.6875-0.32812 0.6875-0.67188 0-0.35938-0.25-0.65625-0.67188-0.65625-0.45312 0-0.67188 0.29688-0.67188 0.67188 0 0.82812 0.84375 1.4219 1.7812 1.4219 1.1875 0 1.9375-1.1562 2.3438-2.1875z"/>
</g>
<g id="d">
<path d="m8.9062-4.4219c0-2.6406-1.9219-4.7031-4.1719-4.7031s-4.1719 2.0625-4.1719 4.7031c0 2.6094 1.9219 4.5938 4.1719 4.5938s4.1719-1.9844 4.1719-4.5938zm-4.1719 4.2188c-0.96875 0-1.7969-0.57812-2.2812-1.3906-0.51562-0.92188-0.57812-2.0781-0.57812-2.9844 0-0.875 0.046875-1.9531 0.57812-2.875 0.42188-0.6875 1.2188-1.3438 2.2812-1.3438 0.92188 0 1.7031 0.51562 2.2031 1.2344 0.64062 0.96875 0.64062 2.3438 0.64062 2.9844 0 0.79688-0.03125 2.0312-0.59375 3.0312-0.57812 0.95312-1.4688 1.3438-2.25 1.3438z"/>
</g>
<g id="r">
<path d="m4.5469 3.4844c-1.3281 0-1.4062-0.078125-1.4062-0.875v-3.875c0.59375 0.875 1.4688 1.4375 2.5625 1.4375 2.0625 0 4.1562-1.8281 4.1562-4.6406 0-2.5938-1.7969-4.5781-3.9375-4.5781-1.2344 0-2.25 0.6875-2.8281 1.5v-1.5l-2.4531 0.23438v0.53125c1.2188 0 1.4062 0.125 1.4062 1.1094v9.7812c0 0.78125-0.078125 0.875-1.4062 0.875v0.54688c0.5-0.046875 1.4062-0.046875 1.9375-0.046875 0.54688 0 1.4688 0 1.9688 0.046875zm-1.4062-9.9688c0-0.29688 0-0.71875 0.8125-1.4844 0.09375-0.09375 0.79688-0.70312 1.8281-0.70312 1.5156 0 2.75 1.875 2.75 4.2344 0 2.3438-1.3281 4.2656-2.9531 4.2656-0.75 0-1.5469-0.34375-2.1719-1.3125-0.26562-0.45312-0.26562-0.57812-0.26562-0.90625z"/>
</g>
<g id="aa">
<path d="m11.203-5.2188h-0.375c-0.17188 2.0312-0.4375 4.6875-3.9688 4.6875h-1.9219c-0.82812 0-0.875-0.10938-0.875-0.8125v-11.281c0-0.73438 0.046875-0.95312 1.625-0.95312h0.45312v-0.53125c-0.85938 0.046875-1.8438 0.046875-2.6875 0.046875-0.64062 0-1.7969 0-2.4062-0.046875v0.53125c1.4375 0 1.6562 0 1.6562 0.9375v11.172c0 0.9375-0.21875 0.9375-1.6562 0.9375v0.53125h9.6562z"/>
</g>
<clipPath id="al">
<path d="m171 0.13281h160v197.87h-160z"/>
</clipPath>
<clipPath id="ak">
<path d="m526 0.13281h233v197.87h-233z"/>
</clipPath>
<clipPath id="aj">
<path d="m0 0.13281h58v43.867h-58z"/>
</clipPath>
<clipPath id="ai">
<path d="m496 0.13281h58v43.867h-58z"/>
</clipPath>
<clipPath id="ah">
<path d="m155 0.13281h44v43.867h-44z"/>
</clipPath>
</defs>
<g clip-path="url(#al)">
<path transform="matrix(.1 0 0 -.1 -.472 450.13)" d="m1991.9 4292 1048.8-1502.3" fill="none" stroke="#000" stroke-miterlimit="10" stroke-width="18.897"/>
</g>
<path transform="matrix(.1 0 0 -.1 -.472 450.13)" d="m347.88 2364.5 1417.3-1275.5" fill="none" stroke="#000" stroke-miterlimit="10" stroke-width="18.897"/>
<path transform="matrix(.1 0 0 -.1 -.472 450.13)" d="m574.64 4292h992.07" fill="none" stroke="#000" stroke-miterlimit="10" stroke-width="18.897"/>
<path transform="matrix(.1 0 0 -.1 -.472 450.13)" d="m1765.1 4065.3v-1275.5" fill="none" stroke="#000" stroke-miterlimit="10" stroke-width="4.7242"/>
<path transform="matrix(.1 0 0 -.1 -.472 450.13)" d="m1765.1 2364.5v-1275.5" fill="none" stroke="#000" stroke-miterlimit="10" stroke-width="4.7242"/>
<path transform="matrix(.1 0 0 -.1 -.472 450.13)" d="m1566.7 2364.5h425.2v425.2h-425.2z" fill="none" stroke="#000" stroke-miterlimit="10" stroke-width="4.7242"/>
<path transform="matrix(.1 0 0 -.1 -.472 450.13)" d="m574.64 2563h992.07" fill="none" stroke="#000" stroke-miterlimit="10" stroke-width="4.7242"/>
<path transform="matrix(.1 0 0 -.1 -.472 450.13)" d="m5336.7 4065.3v-2976.3" fill="none" stroke="#000" stroke-miterlimit="10" stroke-width="18.897"/>
<g clip-path="url(#ak)">
<path transform="matrix(.1 0 0 -.1 -.472 450.13)" d="m5535.1 4292 1785.7-1502.3" fill="none" stroke="#000" stroke-miterlimit="10" stroke-width="18.897"/>
</g>
<path transform="matrix(.1 0 0 -.1 -.472 450.13)" d="m7320.9 2364.5-1785.7-1502.3" fill="none" stroke="#000" stroke-miterlimit="10" stroke-width="18.897"/>
<path transform="matrix(.1 0 0 -.1 -.472 450.13)" d="m347.88 4065.3v-1275.5" fill="none" stroke="#000" stroke-miterlimit="10" stroke-width="18.897"/>
<g clip-path="url(#aj)">
<path transform="matrix(.1 0 0 -.1 -.472 450.13)" d="m7.7278 4065.3h566.91v425.2h-566.91z" fill="none" stroke="#000" stroke-miterlimit="10" stroke-width="4.7242"/>
</g>
<path transform="matrix(.1 0 0 -.1 -.472 450.13)" d="m1425 663.82h566.91v425.16h-566.91z" fill="none" stroke="#000" stroke-miterlimit="10" stroke-width="4.7242"/>
<path transform="matrix(.1 0 0 -.1 -.472 450.13)" d="m2700.5 2364.5h566.91v425.2h-566.91z" fill="none" stroke="#000" stroke-miterlimit="10" stroke-width="4.7242"/>
<path transform="matrix(.1 0 0 -.1 -.472 450.13)" d="m4968.2 663.82h566.91v425.16h-566.91z" fill="none" stroke="#000" stroke-miterlimit="10" stroke-width="4.7242"/>
<g clip-path="url(#ai)">
<path transform="matrix(.1 0 0 -.1 -.472 450.13)" d="m4968.2 4065.3h566.91v425.2h-566.91z" fill="none" stroke="#000" stroke-miterlimit="10" stroke-width="4.7242"/>
</g>
<path transform="matrix(.1 0 0 -.1 -.472 450.13)" d="m6952.4 2364.5h566.91v425.2h-566.91z" fill="none" stroke="#000" stroke-miterlimit="10" stroke-width="4.7242"/>
<path transform="matrix(.1 0 0 -.1 -.472 450.13)" d="m149.45 2364.5h425.2v425.2h-425.2z" fill="none" stroke="#000" stroke-miterlimit="10" stroke-width="4.7242"/>
<g clip-path="url(#ah)">
<path transform="matrix(.1 0 0 -.1 -.472 450.13)" d="m1566.7 4065.3h425.2v425.2h-425.2z" fill="none" stroke="#000" stroke-miterlimit="10" stroke-width="4.7242"/>
</g>
<path transform="matrix(.1 0 0 -.1 -.472 450.13)" d="m1765.1 1089 1303.9 1275.5" fill="none" stroke="#000" stroke-miterlimit="10" stroke-width="18.897"/>
<g>
<use x="167.74" y="26.545" xlink:href="#b"/>
<use x="179.598" y="29.645" xlink:href="#y"/>
<use x="167.74" y="196.635" xlink:href="#b"/>
<use x="179.598" y="199.735" xlink:href="#ag"/>
<use x="467.331" y="128.599" xlink:href="#m"/>
<use x="479.51361" y="128.599" xlink:href="#f"/>
<use x="490.070081" y="128.599" xlink:href="#e"/>
<use x="500.626552" y="128.599" xlink:href="#e"/>
<use x="511.183024" y="128.599" xlink:href="#a"/>
<use x="519.559601" y="128.599" xlink:href="#h"/>
<use x="487.902" y="153.824" xlink:href="#o"/>
<use x="487.363" y="153.168" xlink:href="#f"/>
<use x="497.919471" y="153.168" xlink:href="#n"/>
<use x="509.013167" y="153.168" xlink:href="#a"/>
<use x="517.410407" y="153.168" xlink:href="#j"/>
<use x="505.348" y="182.461" xlink:href="#b"/>
<use x="517.206" y="185.56" xlink:href="#x"/>
<use x="638.121" y="77.572" xlink:href="#m"/>
<use x="650.30361" y="77.572" xlink:href="#f"/>
<use x="660.860081" y="77.572" xlink:href="#e"/>
<use x="671.416552" y="77.572" xlink:href="#e"/>
<use x="681.973024" y="77.572" xlink:href="#a"/>
<use x="690.349601" y="77.572" xlink:href="#h"/>
<use x="702.295" y="78.229" xlink:href="#o"/>
<use x="701.756" y="77.572" xlink:href="#f"/>
<use x="712.312471" y="77.572" xlink:href="#n"/>
<use x="723.406167" y="77.572" xlink:href="#a"/>
<use x="731.803407" y="77.572" xlink:href="#j"/>
<use x="762.853" y="77.572" xlink:href="#b"/>
<use x="774.711" y="80.672" xlink:href="#y"/>
<use x="609.773" y="332.707" xlink:href="#z"/>
<use x="627.336125" y="332.707" xlink:href="#f"/>
<use x="637.892596" y="332.707" xlink:href="#h"/>
<use x="643.049956" y="332.707" xlink:href="#q"/>
<use x="650.366547" y="332.707" xlink:href="#c"/>
<use x="655.523907" y="332.707" xlink:href="#p"/>
<use x="663.921147" y="332.707" xlink:href="#t"/>
<use x="673.39697" y="332.707" xlink:href="#l"/>
<use x="680.823072" y="332.707" xlink:href="#q"/>
<use x="688.139664" y="332.707" xlink:href="#af"/>
<use x="693.839" y="333.363" xlink:href="#o"/>
<use x="693.839" y="332.707" xlink:href="#t"/>
<use x="703.314822" y="332.707" xlink:href="#k"/>
<use x="713.871294" y="332.707" xlink:href="#c"/>
<use x="719.028654" y="332.707" xlink:href="#i"/>
<use x="728.504476" y="332.707" xlink:href="#a"/>
<use x="609.773" y="357.275" xlink:href="#s"/>
<use x="620.329471" y="357.275" xlink:href="#c"/>
<use x="625.486831" y="357.275" xlink:href="#j"/>
<use x="632.803422" y="357.275" xlink:href="#a"/>
<use x="641.200662" y="357.275" xlink:href="#ae"/>
<use x="651.215776" y="357.275" xlink:href="#q"/>
<use x="658.532367" y="357.275" xlink:href="#a"/>
<use x="673.169682" y="357.275" xlink:href="#ad"/>
<use x="685.883319" y="357.275" xlink:href="#a"/>
<use x="694.280559" y="357.275" xlink:href="#j"/>
<use x="701.59715" y="357.275" xlink:href="#n"/>
<use x="712.153621" y="357.275" xlink:href="#c"/>
<use x="717.310981" y="357.275" xlink:href="#e"/>
<use x="727.867452" y="357.275" xlink:href="#s"/>
<use x="738.423924" y="357.275" xlink:href="#f"/>
<use x="748.959732" y="357.275" xlink:href="#e"/>
<use x="759.516204" y="357.275" xlink:href="#i"/>
<use x="149.819" y="369.56" xlink:href="#g"/>
<use x="171.541486" y="369.56" xlink:href="#b"/>
<use x="183.408" y="372.659" xlink:href="#w"/>
<use x="277.386" y="199.47" xlink:href="#g"/>
<use x="299.108486" y="199.47" xlink:href="#b"/>
<use x="310.975" y="202.569" xlink:href="#v"/>
<use x="702.61" y="199.47" xlink:href="#g"/>
<use x="724.332486" y="199.47" xlink:href="#b"/>
<use x="736.2" y="202.569" xlink:href="#v"/>
<use x="504.172" y="29.38" xlink:href="#g"/>
<use x="525.894486" y="29.38" xlink:href="#b"/>
<use x="537.762" y="32.48" xlink:href="#u"/>
<use x="8.077" y="26.545" xlink:href="#g"/>
<use x="29.799486" y="26.545" xlink:href="#b"/>
<use x="41.667" y="29.645" xlink:href="#u"/>
<use x="504.172" y="366.725" xlink:href="#g"/>
<use x="525.894486" y="366.725" xlink:href="#b"/>
<use x="537.762" y="369.824" xlink:href="#w"/>
<use x="87.396" y="443.265" xlink:href="#ac"/>
<use x="100.376182" y="443.265" xlink:href="#k"/>
<use x="110.395429" y="443.265" xlink:href="#ab"/>
<use x="120.410542" y="443.265" xlink:href="#l"/>
<use x="127.836645" y="443.265" xlink:href="#c"/>
<use x="132.994005" y="443.265" xlink:href="#l"/>
<use x="140.420107" y="443.265" xlink:href="#p"/>
<use x="148.280122" y="443.265" xlink:href="#k"/>
<use x="158.836594" y="443.265" xlink:href="#a"/>
<use x="173.473909" y="443.265" xlink:href="#m"/>
<use x="185.635856" y="443.265" xlink:href="#d"/>
<use x="195.111679" y="443.265" xlink:href="#r"/>
<use x="206.205375" y="443.265" xlink:href="#d"/>
<use x="215.681197" y="443.265" xlink:href="#h"/>
<use x="220.838557" y="443.265" xlink:href="#d"/>
<use x="230.31438" y="443.265" xlink:href="#i"/>
<use x="239.790202" y="443.265" xlink:href="#c"/>
<use x="244.947562" y="443.265" xlink:href="#a"/>
<use x="540.098977" y="443.265" xlink:href="#aa"/>
<use x="552.000577" y="443.265" xlink:href="#d"/>
<use x="561.4764" y="443.265" xlink:href="#i"/>
<use x="570.952222" y="443.265" xlink:href="#c"/>
<use x="576.109582" y="443.265" xlink:href="#l"/>
<use x="583.535685" y="443.265" xlink:href="#p"/>
<use x="591.375037" y="443.265" xlink:href="#k"/>
<use x="601.931509" y="443.265" xlink:href="#a"/>
<use x="616.568824" y="443.265" xlink:href="#m"/>
<use x="628.751434" y="443.265" xlink:href="#d"/>
<use x="638.227256" y="443.265" xlink:href="#r"/>
<use x="649.320952" y="443.265" xlink:href="#d"/>
<use x="658.796775" y="443.265" xlink:href="#h"/>
<use x="663.954135" y="443.265" xlink:href="#d"/>
<use x="673.429958" y="443.265" xlink:href="#i"/>
<use x="682.90578" y="443.265" xlink:href="#c"/>
<use x="688.06314" y="443.265" xlink:href="#a"/>
<use x="25.998" y="196.635" xlink:href="#b"/>
<use x="37.856" y="199.735" xlink:href="#x"/>
</g>
</svg>
