<svg width="405pt" height="203pt" version="1.1" viewBox="0 0 405 203" xmlns="http://www.w3.org/2000/svg" xmlns:xlink="http://www.w3.org/1999/xlink">
<defs>
<g id="d">
<path d="m1.7188-0.9375h-0.9375v0.9375h0.9375z"/>
</g>
<g id="w">
<path d="m6.375-3.4688h-2.7344v0.73438h2v0.1875c0 1.1719-0.85938 2.0156-2.0625 2.0156-0.65625 0-1.2656-0.25-1.6562-0.67188-0.42188-0.46875-0.6875-1.25-0.6875-2.0625 0-1.6094 0.92188-2.6719 2.2969-2.6719 1 0 1.7188 0.51562 1.9062 1.3594h0.85938c-0.23438-1.3281-1.25-2.0938-2.75-2.0938-0.79688 0-1.4531 0.20312-1.9688 0.64062-0.75 0.625-1.1875 1.6406-1.1875 2.8125 0 2.0156 1.2344 3.4219 3.0156 3.4219 0.89062 0 1.5938-0.32812 2.2344-1.0469l0.20312 0.875h0.53125z"/>
</g>
<g id="e">
<path d="m0.625-4.7188v4.7188h0.75v-2.4531c0-0.67188 0.17188-1.1094 0.53125-1.375 0.23438-0.17188 0.45312-0.21875 0.98438-0.23438v-0.76562c-0.125-0.015625-0.1875-0.015625-0.29688-0.015625-0.48438 0-0.84375 0.28125-1.2812 0.98438v-0.85938z"/>
</g>
<g id="c">
<path d="m4.6094-2.1094c0-0.71875-0.046875-1.1562-0.1875-1.5-0.29688-0.78125-1.0156-1.2344-1.9062-1.2344-1.3125 0-2.1562 1-2.1562 2.5469s0.8125 2.5 2.1406 2.5c1.0781 0 1.8281-0.60938 2.0156-1.6406h-0.75c-0.20312 0.625-0.64062 0.95312-1.2344 0.95312-0.48438 0-0.89062-0.21875-1.1406-0.60938-0.17188-0.28125-0.23438-0.54688-0.25-1.0156zm-3.4531-0.60938c0.0625-0.875 0.59375-1.4375 1.3594-1.4375 0.73438 0 1.2969 0.60938 1.2969 1.3906v0.046875z"/>
</g>
<g id="g">
<path d="m0.625-4.7188v4.7188h0.76562v-2.5938c0-0.96875 0.5-1.5938 1.2656-1.5938 0.60938 0 0.98438 0.35938 0.98438 0.92188v3.2656h0.75v-3.5625c0-0.78125-0.59375-1.2812-1.5-1.2812-0.70312 0-1.1562 0.26562-1.5625 0.92188v-0.79688z"/>
</g>
<g id="q">
<path d="m3.9844-4.7188h-3.5156v0.65625h2.625l-2.8125 3.3906v0.67188h3.8281v-0.65625h-2.9219l2.7969-3.3906z"/>
</g>
<g id="i">
<path d="m3.7031-4.7188v0.6875c-0.375-0.5625-0.82812-0.8125-1.4375-0.8125-1.1875 0-2 1.0312-2 2.5625 0 0.78125 0.20312 1.4062 0.59375 1.8594 0.34375 0.39062 0.84375 0.625 1.3438 0.625 0.59375 0 1.0156-0.25 1.4375-0.84375v0.25c0 0.64062-0.078125 1.0156-0.28125 1.2812-0.1875 0.28125-0.57812 0.4375-1.0312 0.4375-0.34375 0-0.65625-0.09375-0.85938-0.25-0.17188-0.14062-0.25-0.26562-0.29688-0.53125h-0.76562c0.09375 0.89062 0.78125 1.4219 1.8906 1.4219 0.70312 0 1.2969-0.23438 1.6094-0.60938 0.35938-0.4375 0.5-1.0312 0.5-2.1406v-3.9375zm-1.3594 0.5625c0.8125 0 1.2969 0.6875 1.2969 1.8594 0 1.125-0.48438 1.8125-1.2812 1.8125-0.82812 0-1.3125-0.6875-1.3125-1.8438 0-1.125 0.5-1.8281 1.2969-1.8281z"/>
</g>
<g id="h">
<path d="m1.3438-4.7188h-0.73438v4.7188h0.73438zm0-1.8438h-0.75v0.95312h0.75z"/>
</g>
<g id="f">
<path d="m3.9375-3.4062c0-0.92188-0.60938-1.4375-1.7031-1.4375s-1.8125 0.5625-1.8125 1.4375c0 0.73438 0.375 1.0781 1.5 1.3594l0.70312 0.17188c0.51562 0.125 0.71875 0.3125 0.71875 0.65625 0 0.4375-0.4375 0.73438-1.0938 0.73438-0.40625 0-0.75-0.125-0.9375-0.3125-0.10938-0.14062-0.17188-0.28125-0.21875-0.60938h-0.78125c0.03125 1.0938 0.64062 1.6094 1.875 1.6094 1.1875 0 1.9375-0.57812 1.9375-1.4844 0-0.70312-0.39062-1.0938-1.3281-1.3125l-0.71875-0.17188c-0.60938-0.15625-0.875-0.34375-0.875-0.6875 0-0.42188 0.39062-0.70312 1-0.70312s0.92188 0.26562 0.95312 0.75z"/>
</g>
<g id="m">
<path d="m2.2812-4.7188h-0.76562v-1.2969h-0.75v1.2969h-0.64062v0.60938h0.64062v3.5625c0 0.48438 0.32812 0.75 0.90625 0.75 0.1875 0 0.35938-0.015625 0.60938-0.0625v-0.625c-0.09375 0.03125-0.21875 0.03125-0.35938 0.03125-0.3125 0-0.40625-0.09375-0.40625-0.42188v-3.2344h0.76562z"/>
</g>
<g id="l">
<path d="m4.2656-1.9688 0.67188 1.9688h0.9375l-2.2969-6.5625h-1.0781l-2.3438 6.5625h0.89062l0.6875-1.9688zm-0.23438-0.70312h-2.0938l1.0938-2.9844z"/>
</g>
<g id="k">
<path d="m4.4531-6.5625h-0.75v2.4375c-0.3125-0.46875-0.8125-0.71875-1.4375-0.71875-1.2344 0-2.0312 0.96875-2.0312 2.4844 0 1.5781 0.78125 2.5625 2.0469 2.5625 0.65625 0 1.1094-0.23438 1.5-0.82812v0.625h0.67188zm-2.0625 2.4062c0.79688 0 1.3125 0.73438 1.3125 1.8594 0 1.0781-0.51562 1.7969-1.3125 1.7969-0.82812 0-1.375-0.71875-1.375-1.8281 0-1.0938 0.54688-1.8281 1.375-1.8281z"/>
</g>
<g id="p">
<path d="m4.9688-6.5625v4.6094c0 0.875-0.64062 1.4219-1.6875 1.4219-0.48438 0-0.89062-0.10938-1.2031-0.34375-0.32812-0.25-0.46875-0.57812-0.46875-1.0781v-4.6094h-0.84375v4.6094c0 1.3281 0.95312 2.1562 2.5156 2.1562 1.5312 0 2.5312-0.84375 2.5312-2.1562v-4.6094z"/>
</g>
<g id="z">
<path d="m0.48438-6.5625v6.5625h0.67188v-0.60938c0.35938 0.5625 0.84375 0.8125 1.5 0.8125 1.2344 0 2.0469-1.0156 2.0469-2.5781 0-1.5312-0.76562-2.4688-2.0156-2.4688-0.64062 0-1.1094 0.23438-1.4531 0.76562v-2.4844zm2.0625 2.4062c0.84375 0 1.375 0.73438 1.375 1.8594 0 1.0781-0.5625 1.7969-1.375 1.7969-0.79688 0-1.3125-0.71875-1.3125-1.8281 0-1.0938 0.51562-1.8281 1.3125-1.8281z"/>
</g>
<g id="y">
<path d="m4.2344-3.125c-0.03125-0.46875-0.125-0.76562-0.3125-1.0312-0.32812-0.4375-0.89062-0.6875-1.5469-0.6875-1.2656 0-2.0938 1-2.0938 2.5625 0 1.5312 0.8125 2.4844 2.0781 2.4844 1.125 0 1.8438-0.67188 1.9375-1.8281h-0.76562c-0.125 0.76562-0.5 1.1406-1.1406 1.1406-0.82812 0-1.3281-0.67188-1.3281-1.7969 0-1.1719 0.48438-1.875 1.2969-1.875 0.64062 0 1.0312 0.375 1.125 1.0312z"/>
</g>
<g id="x">
<path d="m0.625-6.5625v6.5625h0.75v-2.5938c0-0.96875 0.5-1.5938 1.2812-1.5938 0.23438 0 0.48438 0.078125 0.67188 0.20312 0.20312 0.15625 0.29688 0.39062 0.29688 0.71875v3.2656h0.75v-3.5625c0-0.79688-0.5625-1.2812-1.4844-1.2812-0.67188 0-1.0781 0.20312-1.5156 0.78125v-2.5z"/>
</g>
<g id="o">
<path d="m4.3438 0v-4.7188h-0.75v2.6719c0 0.96875-0.5 1.5938-1.2969 1.5938-0.59375 0-0.96875-0.35938-0.96875-0.92188v-3.3438h-0.75v3.6406c0 0.78125 0.59375 1.2812 1.5156 1.2812 0.6875 0 1.125-0.23438 1.5625-0.85938v0.65625z"/>
</g>
<g id="n">
<path d="m0.625-4.7188v5.4062c0 0.46875-0.14062 0.625-0.60938 0.625-0.03125 0-0.03125 0-0.17188-0.015625v0.64062c0.078125 0.015625 0.125 0.03125 0.25 0.03125 0.84375 0 1.2812-0.34375 1.2812-0.98438v-5.7031zm0.75-1.8438h-0.75v0.95312h0.75z"/>
</g>
<g id="j">
<path d="m4.8125-0.4375c-0.078125 0.015625-0.10938 0.015625-0.15625 0.015625-0.26562 0-0.40625-0.14062-0.40625-0.375v-2.7656c0-0.84375-0.60938-1.2812-1.7812-1.2812-0.67188 0-1.25 0.1875-1.5625 0.54688-0.21875 0.23438-0.29688 0.51562-0.32812 0.96875h0.76562c0.0625-0.5625 0.40625-0.82812 1.1094-0.82812 0.67188 0 1.0469 0.25 1.0469 0.70312v0.1875c0 0.32812-0.1875 0.45312-0.78125 0.53125-1.0625 0.14062-1.2188 0.17188-1.5156 0.28125-0.54688 0.23438-0.82812 0.65625-0.82812 1.2656 0 0.85938 0.59375 1.3906 1.5469 1.3906 0.59375 0 1.0781-0.20312 1.6094-0.6875 0.046875 0.46875 0.28125 0.6875 0.76562 0.6875 0.15625 0 0.28125-0.015625 0.51562-0.078125zm-1.3125-1.0469c0 0.25-0.078125 0.40625-0.29688 0.60938-0.3125 0.28125-0.67188 0.42188-1.1094 0.42188-0.59375 0-0.9375-0.28125-0.9375-0.75 0-0.5 0.34375-0.75 1.1406-0.85938s0.95312-0.15625 1.2031-0.26562z"/>
</g>
<g id="v">
<path d="m0.71875 0h2.9531c0.625 0 1.0781-0.17188 1.4375-0.54688 0.3125-0.34375 0.5-0.8125 0.5-1.3281 0-0.78125-0.35938-1.2656-1.2031-1.5938 0.59375-0.28125 0.90625-0.76562 0.90625-1.4219 0-0.48438-0.17188-0.90625-0.51562-1.2188s-0.79688-0.45312-1.4219-0.45312h-2.6562zm0.82812-3.7344v-2.0938h1.625c0.46875 0 0.71875 0.0625 0.95312 0.23438 0.23438 0.1875 0.35938 0.45312 0.35938 0.8125s-0.125 0.625-0.35938 0.8125c-0.23438 0.17188-0.48438 0.23438-0.95312 0.23438zm0 3v-2.2656h2.0469c0.40625 0 0.67188 0.10938 0.875 0.3125 0.1875 0.21875 0.29688 0.5 0.29688 0.82812 0 0.3125-0.10938 0.59375-0.29688 0.8125-0.20312 0.20312-0.46875 0.3125-0.875 0.3125z"/>
</g>
<g id="u">
<path d="m5.9531-4.5312c-0.25-1.4375-1.0781-2.1406-2.5312-2.1406-0.875 0-1.5781 0.28125-2.0781 0.82812-0.59375 0.64062-0.90625 1.5781-0.90625 2.6406 0 1.0781 0.32812 2 0.95312 2.6406 0.5 0.53125 1.1406 0.76562 2 0.76562 1.6094 0 2.5-0.85938 2.7031-2.5938h-0.85938c-0.078125 0.45312-0.17188 0.75-0.29688 1.0156-0.28125 0.53125-0.82812 0.84375-1.5312 0.84375-1.3125 0-2.1406-1.0469-2.1406-2.6875 0-1.6719 0.79688-2.7188 2.0625-2.7188 0.53125 0 1.0312 0.17188 1.2969 0.42188 0.25 0.21875 0.375 0.5 0.48438 0.98438z"/>
</g>
<g id="t">
<path d="m1.6562-2.7812h2.0625c0.51562 0 0.92188-0.15625 1.2656-0.46875 0.39062-0.35938 0.5625-0.78125 0.5625-1.3906 0-1.2344-0.71875-1.9219-2.0156-1.9219h-2.7188v6.5625h0.84375zm0-0.73438v-2.3125h1.75c0.79688 0 1.2812 0.4375 1.2812 1.1562s-0.48438 1.1562-1.2812 1.1562z"/>
</g>
<g id="s">
<path d="m4.8125-2.4062h-1.875v-1.8594h-0.625v1.8594h-1.8594v0.64062h1.8594v1.8594h0.625v-1.8594h1.875z"/>
</g>
<g id="r">
<path d="m0.625-4.7188v4.7188h0.76562v-2.9688c0-0.67188 0.48438-1.2188 1.1094-1.2188 0.54688 0 0.85938 0.32812 0.85938 0.9375v3.25h0.76562v-2.9688c0-0.67188 0.48438-1.2188 1.1094-1.2188 0.54688 0 0.875 0.34375 0.875 0.9375v3.25h0.75v-3.5312c0-0.85938-0.48438-1.3125-1.375-1.3125-0.625 0-1 0.1875-1.4375 0.71875-0.28125-0.51562-0.65625-0.71875-1.2812-0.71875s-1.0312 0.23438-1.4375 0.79688v-0.67188z"/>
</g>
<g id="b">
<path d="m4.3906-3.1562c0-1.4375-0.6875-2.4062-1.6875-2.4062s-1.6875 0.96875-1.6875 2.4062v0.89062c0 1.4219 0.6875 2.4062 1.6875 2.4062s1.6875-0.98438 1.6875-2.4062zm-3 0.046875c0-0.57812 0.15625-1.1875 0.42188-1.6094 0.20312-0.29688 0.51562-0.46875 0.89062-0.46875s0.6875 0.17188 0.875 0.46875c0.28125 0.42188 0.4375 1.0312 0.4375 1.6094v0.79688c0 0.57812-0.15625 1.1875-0.4375 1.5938-0.1875 0.3125-0.5 0.48438-0.875 0.48438s-0.6875-0.17188-0.89062-0.48438c-0.26562-0.40625-0.42188-1.0156-0.42188-1.5938z"/>
</g>
<g id="a">
<path d="m2.8906-5.5156-1.6719 0.53125c-0.14062 0.046875-0.1875 0.09375-0.1875 0.20312 0 0.078125 0.09375 0.17188 0.17188 0.17188 0.015625 0 0.09375-0.015625 0.125-0.03125l1.1875-0.375v4.6406h-1.25c-0.17188 0-0.25 0.0625-0.25 0.1875s0.09375 0.1875 0.25 0.1875h2.875c0.15625 0 0.25-0.0625 0.25-0.1875s-0.09375-0.1875-0.25-0.1875h-1.25z"/>
</g>
<clipPath id="as">
<path d="m73 104h64v1h-64z"/>
</clipPath>
<clipPath id="ar">
<path d="m0.52734-0.76172v204h405v-204zm131.32 105.8h4.5312v-1.8008h-4.5312l3.6016 0.90234z" clip-rule="evenodd"/>
</clipPath>
<clipPath id="ah">
<path d="m158 104h69v1h-69z"/>
</clipPath>
<clipPath id="ag">
<path d="m0.52734-0.76172v204h405v-204zm221.32 105.95h4.5312v-1.7969h-4.5312l3.6016 0.89844z" clip-rule="evenodd"/>
</clipPath>
<clipPath id="af">
<path d="m248 86h69v19h-69z"/>
</clipPath>
<clipPath id="ae">
<path d="m0.52734-0.76172v204h405v-204zm311.32 87.801h4.5312v-1.8008h-4.5312l3.6016 0.90234z" clip-rule="evenodd"/>
</clipPath>
<clipPath id="ad">
<path d="m72 13h38v10h-38z"/>
</clipPath>
<clipPath id="ac">
<path d="m0.52734-0.76172v204h405v-204zm107.5 18.652v4.5273h1.8008v-4.5273l-0.89844 3.5977z" clip-rule="evenodd"/>
</clipPath>
<clipPath id="ab">
<path d="m72 44h38v9h-38z"/>
</clipPath>
<clipPath id="aa">
<path d="m0.52734-0.76172v204h405v-204zm109.3 49.223v-4.5312h-1.8008v4.5312l0.90234-3.6016z" clip-rule="evenodd"/>
</clipPath>
<clipPath id="aq">
<path d="m72 56h76v38h-76z"/>
</clipPath>
<clipPath id="ap">
<path d="m0.52734-0.76172v204h405v-204zm145.87 89.691v4.5312h1.8008v-4.5312l-0.90234 3.5977z" clip-rule="evenodd"/>
</clipPath>
<clipPath id="ao">
<path d="m120 32h118v62h-118z"/>
</clipPath>
<clipPath id="an">
<path d="m0.52734-0.76172v204h405v-204zm236.05 90.02v4.5312h1.8008v-4.5312l-0.90234 3.6016z" clip-rule="evenodd"/>
</clipPath>
<clipPath id="am">
<path d="m0.52734 0h271.47v181h-271.47z"/>
</clipPath>
<clipPath id="al">
<path d="m237 115h1v48h-1z"/>
</clipPath>
<clipPath id="ak">
<path d="m0.52734-0.76172v204h405v-204zm235.9 159.32v4.5312h1.7969v-4.5312l-0.89844 3.6016z" clip-rule="evenodd"/>
</clipPath>
<clipPath id="aj">
<path d="m147 115h1v48h-1z"/>
</clipPath>
<clipPath id="ai">
<path d="m0.52734-0.76172v204h405v-204zm145.9 159.47v4.5312h1.7969v-4.5312l-0.89844 3.6016z" clip-rule="evenodd"/>
</clipPath>
</defs>
<g>
<use x="314.788" y="28.239" xlink:href="#d"/>
<use x="386.788" y="31.839" xlink:href="#d"/>
<use x="386.788" y="28.239" xlink:href="#d"/>
<use x="386.788" y="24.639" xlink:href="#d"/>
<use x="314.788" y="199.239" xlink:href="#d"/>
<use x="314.788" y="202.839" xlink:href="#d"/>
<use x="314.788" y="195.639" xlink:href="#d"/>
<use x="386.788" y="199.239" xlink:href="#d"/>
<use x="386.788" y="202.839" xlink:href="#d"/>
<use x="386.788" y="195.639" xlink:href="#d"/>
<use x="314.788" y="31.839" xlink:href="#d"/>
<use x="314.788" y="24.639" xlink:href="#d"/>
</g>
<path transform="matrix(.1 0 0 -.1 .528 203.24)" d="m3154 405.98h720v990h-720z" fill="#e5e5e5" fill-rule="evenodd" stroke="#000" stroke-miterlimit="10" stroke-width="2.25"/>
<path transform="matrix(.1 0 0 -.1 .528 203.24)" d="m3154 945.98h720" fill="none" stroke="#000" stroke-miterlimit="10" stroke-width="2.25"/>
<path transform="matrix(.1 0 0 -.1 .528 203.24)" d="m3154 855.98h720" fill="none" stroke="#000" stroke-miterlimit="10" stroke-width="2.25"/>
<path transform="matrix(.1 0 0 -.1 .528 203.24)" d="m3154 765.98h720" fill="none" stroke="#000" stroke-miterlimit="10" stroke-width="2.25"/>
<path transform="matrix(.1 0 0 -.1 .528 203.24)" d="m3154 675.98h720" fill="none" stroke="#000" stroke-miterlimit="10" stroke-width="2.25"/>
<path transform="matrix(.1 0 0 -.1 .528 203.24)" d="m3154 585.98h720" fill="none" stroke="#000" stroke-miterlimit="10" stroke-width="2.25"/>
<path transform="matrix(.1 0 0 -.1 .528 203.24)" d="m3154 495.98h720" fill="none" stroke="#000" stroke-miterlimit="10" stroke-width="2.25"/>
<path transform="matrix(.1 0 0 -.1 .528 203.24)" d="m184.02 1846h540v90h-540z" fill="none" stroke="#000" stroke-miterlimit="10" stroke-width="2.25"/>
<g clip-path="url(#as)">
<g clip-path="url(#ar)">
<path transform="matrix(.1 0 0 -.1 .528 203.24)" d="m728.51 990.98h625.51" fill="none" stroke="#000" stroke-miterlimit="10" stroke-width="2.25"/>
</g>
</g>
<path d="m131.85 105.04 3.6016-0.89844-3.6016-0.90234v1.8008" fill-rule="evenodd"/>
<path transform="matrix(.1 0 0 -.1 .528 203.24)" d="m1313.2 982 36.016 8.9844-36.016 9.0234z" fill="none" stroke="#000" stroke-miterlimit="10" stroke-width="2.25"/>
<path transform="matrix(.1 0 0 -.1 .528 203.24)" d="m184.02 855.98h540v270h-540z" fill="none" stroke="#000" stroke-miterlimit="10" stroke-width="2.25"/>
<g clip-path="url(#ah)">
<g clip-path="url(#ag)">
<path transform="matrix(.1 0 0 -.1 .528 203.24)" d="m1582 989.5h672.03" fill="none" stroke="#000" stroke-miterlimit="10" stroke-width="2.25"/>
</g>
</g>
<path d="m221.85 105.19 3.6016-0.89844-3.6016-0.89844v1.7969" fill-rule="evenodd"/>
<path transform="matrix(.1 0 0 -.1 .528 203.24)" d="m2213.2 980.52 36.016 8.9844-36.016 8.9844z" fill="none" stroke="#000" stroke-miterlimit="10" stroke-width="2.25"/>
<g clip-path="url(#af)">
<g clip-path="url(#ae)">
<path transform="matrix(.1 0 0 -.1 .528 203.24)" d="m3154 1171h-345v-182.97h-328.52" fill="none" stroke="#000" stroke-miterlimit="10" stroke-width="2.25"/>
</g>
</g>
<path d="m311.85 87.039 3.6016-0.89844-3.6016-0.90234v1.8008" fill-rule="evenodd"/>
<path transform="matrix(.1 0 0 -.1 .528 203.24)" d="m3113.2 1162 36.016 8.9844-36.016 9.0234z" fill="none" stroke="#000" stroke-miterlimit="10" stroke-width="2.25"/>
<g clip-path="url(#ad)">
<g clip-path="url(#ac)">
<path transform="matrix(.1 0 0 -.1 .528 203.24)" d="m725.19 1892.2h358.83v-79.492" fill="none" stroke="#000" stroke-miterlimit="10" stroke-width="2.25"/>
</g>
</g>
<path d="m108.03 17.891 0.90234 3.5977 0.89844-3.5977h-1.8008" fill-rule="evenodd"/>
<path transform="matrix(.1 0 0 -.1 .528 203.24)" d="m1075 1853.5 9.0234-35.977 8.9844 35.977z" fill="none" stroke="#000" stroke-miterlimit="10" stroke-width="2.25"/>
<g clip-path="url(#ab)">
<g clip-path="url(#aa)">
<path transform="matrix(.1 0 0 -.1 .528 203.24)" d="m725.19 1509.7h358.83v78.906" fill="none" stroke="#000" stroke-miterlimit="10" stroke-width="2.25"/>
</g>
</g>
<path d="m109.83 48.461-0.89844-3.6016-0.90234 3.6016h1.8008" fill-rule="evenodd"/>
<path transform="matrix(.1 0 0 -.1 .528 203.24)" d="m1093 1547.8-8.9844 36.016-9.0234-36.016z" fill="none" stroke="#000" stroke-miterlimit="10" stroke-width="2.25"/>
<g clip-path="url(#aq)">
<g clip-path="url(#ap)">
<path transform="matrix(.1 0 0 -.1 .528 203.24)" d="m725.19 1469.2h742.5v-366.88" fill="none" stroke="#000" stroke-miterlimit="10" stroke-width="2.25"/>
</g>
</g>
<path d="m146.4 88.93 0.89844 3.5977 0.90234-3.5977h-1.8008" fill-rule="evenodd"/>
<path transform="matrix(.1 0 0 -.1 .528 203.24)" d="m1458.7 1143.1 8.9844-35.977 9.0234 35.977z" fill="none" stroke="#000" stroke-miterlimit="10" stroke-width="2.25"/>
<g clip-path="url(#ao)">
<g clip-path="url(#an)">
<path transform="matrix(.1 0 0 -.1 .528 203.24)" d="m1198 1702h1171.5v-603.01" fill="none" stroke="#000" stroke-miterlimit="10" stroke-width="2.25"/>
</g>
</g>
<path d="m236.58 89.258 0.89844 3.6016 0.90234-3.6016h-1.8008" fill-rule="evenodd"/>
<path transform="matrix(.1 0 0 -.1 .528 203.24)" d="m2360.5 1139.8 8.9844-36.016 9.0234 36.016z" fill="none" stroke="#000" stroke-miterlimit="10" stroke-width="2.25"/>
<path transform="matrix(.1 0 0 -.1 .528 203.24)" d="m1468 1103.5 112.5-112.5" fill="none" stroke="#000" stroke-miterlimit="10" stroke-width="2.25"/>
<path transform="matrix(.1 0 0 -.1 .528 203.24)" d="m1580.5 990.98-112.5-112.5" fill="none" stroke="#000" stroke-miterlimit="10" stroke-width="2.25"/>
<path transform="matrix(.1 0 0 -.1 .528 203.24)" d="m1468 1103.5-112.5-112.5 112.5-112.5" fill="none" stroke="#000" stroke-miterlimit="10" stroke-width="2.25"/>
<path transform="matrix(.1 0 0 -.1 .528 203.24)" d="m2368 1100.5-112.5-112.5" fill="none" stroke="#000" stroke-miterlimit="10" stroke-width="2.25"/>
<path transform="matrix(.1 0 0 -.1 .528 203.24)" d="m2255.5 988.02 112.5-112.5" fill="none" stroke="#000" stroke-miterlimit="10" stroke-width="2.25"/>
<path transform="matrix(.1 0 0 -.1 .528 203.24)" d="m2368 1100.5 112.5-112.5-112.5-112.5" fill="none" stroke="#000" stroke-miterlimit="10" stroke-width="2.25"/>
<path transform="matrix(.1 0 0 -.1 .528 203.24)" d="m1447 1018 45-17.734-45-17.695" fill="none" stroke="#000" stroke-miterlimit="10" stroke-width="4.5"/>
<path transform="matrix(.1 0 0 -.1 .528 203.24)" d="m1496.5 962.51h-48.008" fill="none" stroke="#000" stroke-miterlimit="10" stroke-width="4.5"/>
<path transform="matrix(.1 0 0 -.1 .528 203.24)" d="m2390.5 1019.5-43.516-18.594 43.516-18.906" fill="none" stroke="#000" stroke-miterlimit="10" stroke-width="4.5"/>
<path transform="matrix(.1 0 0 -.1 .528 203.24)" d="m2341 963.99 47.383 0.625" fill="none" stroke="#000" stroke-miterlimit="10" stroke-width="4.5"/>
<g clip-path="url(#am)">
<path transform="matrix(.1 0 0 -.1 .528 203.24)" d="m4.0169 225.98h2700v1800h-2700z" fill="none" stroke="#000" stroke-miterlimit="10" stroke-width="2.25"/>
</g>
<path transform="matrix(.1 0 0 -.1 .528 203.24)" d="m184.02 1444h540v90h-540z" fill="none" stroke="#000" stroke-miterlimit="10" stroke-width="2.25"/>
<path transform="matrix(.1 0 0 -.1 .528 203.24)" d="m1084 1814.5 112.5-112.5" fill="none" stroke="#000" stroke-miterlimit="10" stroke-width="2.25"/>
<path transform="matrix(.1 0 0 -.1 .528 203.24)" d="m1196.5 1702-112.5-112.5" fill="none" stroke="#000" stroke-miterlimit="10" stroke-width="2.25"/>
<path transform="matrix(.1 0 0 -.1 .528 203.24)" d="m1084 1814.5-112.5-112.5 112.5-112.5" fill="none" stroke="#000" stroke-miterlimit="10" stroke-width="2.25"/>
<g clip-path="url(#al)">
<g clip-path="url(#ak)">
<path transform="matrix(.1 0 0 -.1 .528 203.24)" d="m2368 873.99v-468.01" fill="none" stroke="#000" stroke-linejoin="bevel" stroke-miterlimit="10" stroke-width="2.25"/>
</g>
</g>
<path d="m236.43 158.56 0.89844 3.6016 0.89844-3.6016h-1.7969" fill-rule="evenodd"/>
<path transform="matrix(.1 0 0 -.1 .528 203.24)" d="m2359 446.8 8.9844-36.016 8.9844 36.016z" fill="none" stroke="#000" stroke-miterlimit="10" stroke-width="2.25"/>
<g clip-path="url(#aj)">
<g clip-path="url(#ai)">
<path transform="matrix(.1 0 0 -.1 .528 203.24)" d="m1468 877v-472.5" fill="none" stroke="#000" stroke-linejoin="bevel" stroke-miterlimit="10" stroke-width="2.25"/>
</g>
</g>
<path d="m146.43 158.71 0.89844 3.6016 0.89844-3.6016h-1.7969" fill-rule="evenodd"/>
<path transform="matrix(.1 0 0 -.1 .528 203.24)" d="m1459 445.32 8.9844-36.016 8.9844 36.016z" fill="none" stroke="#000" stroke-miterlimit="10" stroke-width="2.25"/>
<g>
<use x="277.889" y="161.4992" xlink:href="#b"/>
<use x="283.289" y="161.4992" xlink:href="#a"/>
<use x="288.689" y="161.4992" xlink:href="#a"/>
<use x="294.089" y="161.4992" xlink:href="#a"/>
<use x="299.489" y="161.4992" xlink:href="#b"/>
<use x="304.889" y="161.4992" xlink:href="#a"/>
<use x="276.77884" y="71.4992" xlink:href="#a"/>
<use x="282.17884" y="71.4992" xlink:href="#b"/>
<use x="287.57884" y="71.4992" xlink:href="#a"/>
<use x="292.97884" y="71.4992" xlink:href="#b"/>
<use x="298.37884" y="71.4992" xlink:href="#b"/>
<use x="303.77884" y="71.4992" xlink:href="#b"/>
<use x="18.67184" y="27.639" xlink:href="#w"/>
<use x="25.67384" y="27.639" xlink:href="#e"/>
<use x="28.67084" y="27.639" xlink:href="#c"/>
<use x="33.67484" y="27.639" xlink:href="#g"/>
<use x="38.67884" y="27.639" xlink:href="#q"/>
<use x="43.17884" y="27.639" xlink:href="#e"/>
<use x="46.17584" y="27.639" xlink:href="#c"/>
<use x="51.17984" y="27.639" xlink:href="#i"/>
<use x="56.18384" y="27.639" xlink:href="#h"/>
<use x="58.18184" y="27.639" xlink:href="#f"/>
<use x="62.68184" y="27.639" xlink:href="#m"/>
<use x="65.18384" y="27.639" xlink:href="#c"/>
<use x="70.18784" y="27.639" xlink:href="#e"/>
<use x="29.72844" y="17.289" xlink:href="#b"/>
<use x="35.12844" y="17.289" xlink:href="#b"/>
<use x="40.52844" y="17.289" xlink:href="#a"/>
<use x="45.92844" y="17.289" xlink:href="#b"/>
<use x="51.32844" y="17.289" xlink:href="#a"/>
<use x="56.72844" y="17.289" xlink:href="#a"/>
<use x="87.02184" y="100.089" xlink:href="#l"/>
<use x="93.02484" y="100.089" xlink:href="#k"/>
<use x="98.02884" y="100.089" xlink:href="#e"/>
<use x="101.02584" y="100.089" xlink:href="#c"/>
<use x="106.02984" y="100.089" xlink:href="#f"/>
<use x="110.52984" y="100.089" xlink:href="#f"/>
<use x="115.02984" y="100.089" xlink:href="#c"/>
<use x="88.22848" y="113.139" xlink:href="#a"/>
<use x="93.62848" y="113.139" xlink:href="#b"/>
<use x="99.02848" y="113.139" xlink:href="#b"/>
<use x="104.42848" y="113.139" xlink:href="#a"/>
<use x="109.82848" y="113.139" xlink:href="#a"/>
<use x="115.22848" y="113.139" xlink:href="#b"/>
<use x="161.57848" y="30.339" xlink:href="#a"/>
<use x="166.97848" y="30.339" xlink:href="#b"/>
<use x="172.37848" y="30.339" xlink:href="#a"/>
<use x="177.77848" y="30.339" xlink:href="#b"/>
<use x="183.17848" y="30.339" xlink:href="#b"/>
<use x="188.57848" y="30.339" xlink:href="#b"/>
<use x="153.92731" y="126.639" xlink:href="#g"/>
<use x="158.93131" y="126.639" xlink:href="#c"/>
<use x="163.93531" y="126.639" xlink:href="#h"/>
<use x="165.93331" y="126.639" xlink:href="#g"/>
<use x="243.92731" y="126.639" xlink:href="#g"/>
<use x="248.93131" y="126.639" xlink:href="#c"/>
<use x="253.93531" y="126.639" xlink:href="#h"/>
<use x="255.93331" y="126.639" xlink:href="#g"/>
<use x="163.1652" y="162.489" xlink:href="#p"/>
<use x="169.6632" y="162.489" xlink:href="#g"/>
<use x="174.6672" y="162.489" xlink:href="#m"/>
<use x="177.1692" y="162.489" xlink:href="#c"/>
<use x="182.1732" y="162.489" xlink:href="#e"/>
<use x="185.1702" y="162.489" xlink:href="#z"/>
<use x="190.1742" y="162.489" xlink:href="#e"/>
<use x="193.1712" y="162.489" xlink:href="#c"/>
<use x="198.1752" y="162.489" xlink:href="#y"/>
<use x="202.6752" y="162.489" xlink:href="#x"/>
<use x="207.6792" y="162.489" xlink:href="#o"/>
<use x="212.6832" y="162.489" xlink:href="#g"/>
<use x="217.6872" y="162.489" xlink:href="#i"/>
<use x="163.026528" y="99.639" xlink:href="#n"/>
<use x="165.024528" y="99.639" xlink:href="#j"/>
<use x="254.376528" y="99.189" xlink:href="#n"/>
<use x="256.374528" y="99.189" xlink:href="#j"/>
<use x="19.922528" y="67.839" xlink:href="#v"/>
<use x="25.925528" y="67.839" xlink:href="#j"/>
<use x="30.929528" y="67.839" xlink:href="#f"/>
<use x="35.429528" y="67.839" xlink:href="#h"/>
<use x="37.427528" y="67.839" xlink:href="#f"/>
<use x="41.927528" y="67.839" xlink:href="#e"/>
<use x="44.924528" y="67.839" xlink:href="#c"/>
<use x="49.928528" y="67.839" xlink:href="#i"/>
<use x="54.932528" y="67.839" xlink:href="#h"/>
<use x="56.930528" y="67.839" xlink:href="#f"/>
<use x="61.430528" y="67.839" xlink:href="#m"/>
<use x="63.932528" y="67.839" xlink:href="#c"/>
<use x="68.936528" y="67.839" xlink:href="#e"/>
<use x="24.170188" y="106.539" xlink:href="#l"/>
<use x="30.173188" y="106.539" xlink:href="#k"/>
<use x="35.177188" y="106.539" xlink:href="#e"/>
<use x="38.174188" y="106.539" xlink:href="#c"/>
<use x="43.178188" y="106.539" xlink:href="#f"/>
<use x="47.678188" y="106.539" xlink:href="#f"/>
<use x="52.178188" y="106.539" xlink:href="#e"/>
<use x="55.175188" y="106.539" xlink:href="#c"/>
<use x="60.179188" y="106.539" xlink:href="#i"/>
<use x="65.183188" y="106.539" xlink:href="#d"/>
<use x="9.427588" y="171.639" xlink:href="#u"/>
<use x="15.925588" y="171.639" xlink:href="#t"/>
<use x="21.928588" y="171.639" xlink:href="#p"/>
<use x="29.727988" y="57.039" xlink:href="#b"/>
<use x="35.127988" y="57.039" xlink:href="#a"/>
<use x="40.527988" y="57.039" xlink:href="#a"/>
<use x="45.927988" y="57.039" xlink:href="#a"/>
<use x="51.327988" y="57.039" xlink:href="#b"/>
<use x="56.727988" y="57.039" xlink:href="#a"/>
<use x="398.474988" y="108.639" xlink:href="#c"/>
<use x="398.726941" y="117.639" xlink:href="#f"/>
<use x="398.726941" y="126.639" xlink:href="#f"/>
<use x="398.474988" y="144.639" xlink:href="#j"/>
<use x="398.474988" y="153.639" xlink:href="#o"/>
<use x="399.478508" y="99.639" xlink:href="#e"/>
<use x="106.448508" y="35.139" xlink:href="#s"/>
<use x="399.478508" y="135.639" xlink:href="#e"/>
<use x="398.474988" y="90.639" xlink:href="#k"/>
<use x="397.228508" y="162.639" xlink:href="#r"/>
<use x="397.975383" y="81.639" xlink:href="#l"/>
</g>
<path transform="matrix(.1 0 0 -.1 .528 203.24)" d="m3154 1486h720" fill="none" stroke="#000" stroke-miterlimit="10" stroke-width="2.25"/>
<path transform="matrix(.1 0 0 -.1 .528 203.24)" d="m3154 1576v90" fill="none" stroke="#000" stroke-miterlimit="10" stroke-width="2.25"/>
<path transform="matrix(.1 0 0 -.1 .528 203.24)" d="m3874 1576v90" fill="none" stroke="#000" stroke-miterlimit="10" stroke-width="2.25"/>
<path transform="matrix(.1 0 0 -.1 .528 203.24)" d="m3154 1396h720v180h-720z" fill="none" stroke="#000" stroke-miterlimit="10" stroke-width="2.25"/>
<path transform="matrix(.1 0 0 -.1 .528 203.24)" d="m3154 405.98v-180h720v180" fill="none" stroke="#000" stroke-miterlimit="10" stroke-width="2.25"/>
<path transform="matrix(.1 0 0 -.1 .528 203.24)" d="m3154 225.98v-90" fill="none" stroke="#000" stroke-miterlimit="10" stroke-width="2.25"/>
<path transform="matrix(.1 0 0 -.1 .528 203.24)" d="m3874 225.98v-90" fill="none" stroke="#000" stroke-miterlimit="10" stroke-width="2.25"/>
<path transform="matrix(.1 0 0 -.1 .528 203.24)" d="m3154 315.98h720" fill="none" stroke="#000" stroke-miterlimit="10" stroke-width="2.25"/>
<path transform="matrix(.1 0 0 -.1 .528 203.24)" d="m3154 1306h720" fill="none" stroke="#000" stroke-miterlimit="10" stroke-width="2.25"/>
<path transform="matrix(.1 0 0 -.1 .528 203.24)" d="m3154 1216h720" fill="none" stroke="#000" stroke-miterlimit="10" stroke-width="2.25"/>
<path transform="matrix(.1 0 0 -.1 .528 203.24)" d="m3154 1126h720" fill="none" stroke="#000" stroke-miterlimit="10" stroke-width="2.25"/>
<path transform="matrix(.1 0 0 -.1 .528 203.24)" d="m3154 1036h720" fill="none" stroke="#000" stroke-miterlimit="10" stroke-width="2.25"/>
</svg>
