<svg width="320pt" height="434pt" version="1.1" viewBox="0 0 320 434" xmlns="http://www.w3.org/2000/svg" xmlns:xlink="http://www.w3.org/1999/xlink">
<defs>
<g id="z">
<path d="m2.4062-6.5938c-0.09375-0.21875-0.125-0.21875-0.35938-0.21875h-1.6719v0.3125h0.23438c0.76562 0 0.78125 0.10938 0.78125 0.46875v4.9844c0 0.26562 0 0.73438-1.0156 0.73438v0.3125c0.34375-0.015625 0.82812-0.03125 1.1562-0.03125s0.82812 0.015625 1.1719 0.03125v-0.3125c-1.0312 0-1.0312-0.46875-1.0312-0.73438v-5.375h0.015625l2.4062 6.2031c0.046875 0.125 0.09375 0.21875 0.1875 0.21875 0.10938 0 0.14062-0.078125 0.1875-0.1875l2.4531-6.3125v5.7188c0 0.35938-0.015625 0.46875-0.78125 0.46875h-0.23438v0.3125c0.35938-0.03125 1.0469-0.03125 1.4375-0.03125 0.375 0 1.0469 0 1.4219 0.03125v-0.3125h-0.25c-0.76562 0-0.78125-0.10938-0.78125-0.46875v-5.25c0-0.35938 0.015625-0.46875 0.78125-0.46875h0.25v-0.3125h-1.6875c-0.26562 0-0.26562 0.015625-0.32812 0.1875l-2.1875 5.625z"/>
</g>
<g id="e">
<path d="m3.3125-0.75c0.046875 0.39062 0.3125 0.8125 0.78125 0.8125 0.21875 0 0.82812-0.14062 0.82812-0.95312v-0.5625h-0.25v0.5625c0 0.57812-0.25 0.64062-0.35938 0.64062-0.32812 0-0.375-0.45312-0.375-0.5v-1.9844c0-0.42188 0-0.8125-0.35938-1.1875-0.39062-0.39062-0.89062-0.54688-1.3594-0.54688-0.82812 0-1.5156 0.46875-1.5156 1.125 0 0.29688 0.20312 0.46875 0.46875 0.46875 0.28125 0 0.45312-0.20312 0.45312-0.45312 0-0.125-0.046875-0.45312-0.51562-0.45312 0.28125-0.35938 0.76562-0.46875 1.0781-0.46875 0.5 0 1.0625 0.39062 1.0625 1.2812v0.35938c-0.51562 0.03125-1.2031 0.0625-1.8281 0.35938-0.75 0.34375-1 0.85938-1 1.2969 0 0.8125 0.96875 1.0625 1.5938 1.0625 0.65625 0 1.1094-0.40625 1.2969-0.85938zm-0.0625-1.6406v1c0 0.9375-0.71875 1.2812-1.1719 1.2812-0.48438 0-0.89062-0.34375-0.89062-0.84375 0-0.54688 0.42188-1.375 2.0625-1.4375z"/>
</g>
<g id="c">
<path d="m1.0938-3.4219v2.6719c0 0.4375-0.10938 0.4375-0.78125 0.4375v0.3125c0.35938-0.015625 0.85938-0.03125 1.1406-0.03125 0.25 0 0.76562 0.015625 1.1094 0.03125v-0.3125c-0.67188 0-0.78125 0-0.78125-0.4375v-1.8438c0-1.0312 0.71875-1.5938 1.3438-1.5938 0.64062 0 0.75 0.53125 0.75 1.1094v2.3281c0 0.4375-0.10938 0.4375-0.78125 0.4375v0.3125c0.34375-0.015625 0.85938-0.03125 1.125-0.03125 0.25 0 0.78125 0.015625 1.1094 0.03125v-0.3125c-0.51562 0-0.76562 0-0.76562-0.29688v-1.9062c0-0.85938 0-1.1562-0.3125-1.5156-0.14062-0.17188-0.46875-0.375-1.0469-0.375-0.73438 0-1.2031 0.42188-1.4844 1.0469v-1.0469l-1.4062 0.10938v0.3125c0.70312 0 0.78125 0.0625 0.78125 0.5625z"/>
</g>
<g id="u">
<path d="m2.2188-1.7188c-0.875 0-0.875-1-0.875-1.2188 0-0.26562 0.015625-0.59375 0.15625-0.84375 0.078125-0.10938 0.3125-0.39062 0.71875-0.39062 0.85938 0 0.85938 0.98438 0.85938 1.2188 0 0.26562 0 0.59375-0.15625 0.84375-0.078125 0.10938-0.3125 0.39062-0.70312 0.39062zm-1.1562 0.39062c0-0.03125 0-0.26562 0.15625-0.46875 0.39062 0.28125 0.8125 0.3125 1 0.3125 0.92188 0 1.6094-0.6875 1.6094-1.4531 0-0.375-0.15625-0.73438-0.40625-0.96875 0.35938-0.34375 0.71875-0.39062 0.89062-0.39062 0.03125 0 0.078125 0 0.10938 0.015625-0.10938 0.03125-0.17188 0.14062-0.17188 0.26562 0 0.17188 0.14062 0.28125 0.29688 0.28125 0.09375 0 0.28125-0.0625 0.28125-0.29688 0-0.17188-0.10938-0.48438-0.5-0.48438-0.20312 0-0.64062 0.0625-1.0625 0.46875-0.42188-0.32812-0.82812-0.35938-1.0469-0.35938-0.9375 0-1.625 0.6875-1.625 1.4531 0 0.4375 0.21875 0.8125 0.46875 1.0312-0.125 0.14062-0.3125 0.46875-0.3125 0.82812 0 0.3125 0.14062 0.6875 0.45312 0.89062-0.60938 0.15625-0.92188 0.59375-0.92188 0.98438 0 0.71875 0.98438 1.2656 2.2031 1.2656 1.1719 0 2.2031-0.5 2.2031-1.2812 0-0.34375-0.125-0.85938-0.64062-1.1406-0.53125-0.26562-1.1094-0.26562-1.7188-0.26562-0.25 0-0.67188 0-0.75-0.015625-0.3125-0.046875-0.51562-0.34375-0.51562-0.67188zm1.4375 3.1562c-1.0156 0-1.7031-0.51562-1.7031-1.0469 0-0.45312 0.375-0.82812 0.8125-0.84375h0.59375c0.85938 0 1.9688 0 1.9688 0.84375 0 0.54688-0.70312 1.0469-1.6719 1.0469z"/>
</g>
<g id="a">
<path d="m1.1094-2.5156c0.0625-1.4844 0.90625-1.7344 1.25-1.7344 1.0156 0 1.125 1.3438 1.125 1.7344zm0 0.21875h2.7812c0.21875 0 0.25 0 0.25-0.21875 0-0.98438-0.54688-1.9531-1.7812-1.9531-1.1562 0-2.0781 1.0312-2.0781 2.2812 0 1.3281 1.0469 2.2969 2.1875 2.2969 1.2188 0 1.6719-1.1094 1.6719-1.2969 0-0.09375-0.078125-0.125-0.14062-0.125-0.078125 0-0.10938 0.0625-0.125 0.14062-0.34375 1.0312-1.25 1.0312-1.3438 1.0312-0.5 0-0.89062-0.29688-1.125-0.67188-0.29688-0.46875-0.29688-1.125-0.29688-1.4844z"/>
</g>
<g id="b">
<path d="m1.6719-3.3125v-1.0938l-1.3906 0.10938v0.3125c0.70312 0 0.78125 0.0625 0.78125 0.5625v2.6719c0 0.4375-0.10938 0.4375-0.78125 0.4375v0.3125c0.39062-0.015625 0.85938-0.03125 1.1406-0.03125 0.39062 0 0.85938 0 1.2656 0.03125v-0.3125h-0.21875c-0.73438 0-0.75-0.10938-0.75-0.46875v-1.5312c0-0.98438 0.42188-1.875 1.1719-1.875 0.0625 0 0.09375 0 0.10938 0.015625-0.03125 0-0.23438 0.125-0.23438 0.39062s0.21875 0.42188 0.4375 0.42188c0.17188 0 0.42188-0.125 0.42188-0.4375s-0.3125-0.60938-0.73438-0.60938c-0.73438 0-1.0938 0.67188-1.2188 1.0938z"/>
</g>
<g id="s">
<path d="m6.1094-6.0312c0-0.35938 0.015625-0.46875 0.78125-0.46875h0.25v-0.3125c-0.35938 0.03125-1.0938 0.03125-1.4688 0.03125s-1.125 0-1.4688-0.03125v0.3125h0.23438c0.76562 0 0.78125 0.10938 0.78125 0.46875v2.3281h-2.9688v-2.3281c0-0.35938 0.015625-0.46875 0.78125-0.46875h0.23438v-0.3125c-0.34375 0.03125-1.0781 0.03125-1.4688 0.03125-0.375 0-1.125 0-1.4688-0.03125v0.3125h0.23438c0.76562 0 0.79688 0.10938 0.79688 0.46875v5.25c0 0.35938-0.03125 0.46875-0.79688 0.46875h-0.23438v0.3125c0.34375-0.03125 1.0938-0.03125 1.4688-0.03125s1.125 0 1.4688 0.03125v-0.3125h-0.23438c-0.76562 0-0.78125-0.10938-0.78125-0.46875v-2.6094h2.9688v2.6094c0 0.35938-0.015625 0.46875-0.78125 0.46875h-0.23438v0.3125c0.34375-0.03125 1.0781-0.03125 1.4531-0.03125 0.39062 0 1.125 0 1.4844 0.03125v-0.3125h-0.25c-0.76562 0-0.78125-0.10938-0.78125-0.46875z"/>
</g>
<g id="h">
<path d="m3.8906-0.78125v0.89062l1.4375-0.10938v-0.3125c-0.6875 0-0.76562-0.0625-0.76562-0.5625v-3.5312l-1.4688 0.10938v0.3125c0.6875 0 0.78125 0.0625 0.78125 0.5625v1.7656c0 0.875-0.48438 1.5469-1.2188 1.5469-0.82812 0-0.875-0.46875-0.875-0.98438v-3.3125l-1.4688 0.10938v0.3125c0.78125 0 0.78125 0.03125 0.78125 0.90625v1.5c0 0.78125 0 1.6875 1.5156 1.6875 0.5625 0 1-0.28125 1.2812-0.89062z"/>
</g>
<g id="r">
<path d="m1.7188-3.75v-0.65625l-1.4375 0.10938v0.3125c0.70312 0 0.78125 0.0625 0.78125 0.5v4.6562c0 0.45312-0.10938 0.45312-0.78125 0.45312v0.3125c0.34375-0.015625 0.85938-0.03125 1.1094-0.03125 0.28125 0 0.78125 0.015625 1.125 0.03125v-0.3125c-0.65625 0-0.76562 0-0.76562-0.45312v-1.7656c0.046875 0.17188 0.46875 0.70312 1.2188 0.70312 1.1875 0 2.2188-0.98438 2.2188-2.2656 0-1.2656-0.95312-2.25-2.0781-2.25-0.78125 0-1.2031 0.4375-1.3906 0.65625zm0.03125 2.6094v-2.2188c0.28125-0.51562 0.76562-0.79688 1.2812-0.79688 0.73438 0 1.3281 0.875 1.3281 2 0 1.2031-0.6875 2.0469-1.4219 2.0469-0.40625 0-0.78125-0.20312-1.0469-0.60938-0.14062-0.20312-0.14062-0.21875-0.14062-0.42188z"/>
</g>
<g id="d">
<path d="m1.7188-3.9844h1.4375v-0.3125h-1.4375v-1.8281h-0.25c0 0.8125-0.29688 1.875-1.2812 1.9219v0.21875h0.84375v2.75c0 1.2188 0.9375 1.3438 1.2969 1.3438 0.70312 0 0.98438-0.70312 0.98438-1.3438v-0.5625h-0.25v0.54688c0 0.73438-0.29688 1.1094-0.67188 1.1094-0.67188 0-0.67188-0.90625-0.67188-1.0781z"/>
</g>
<g id="g">
<path d="m2.0781-1.9375c0.21875 0.046875 1.0312 0.20312 1.0312 0.92188 0 0.5-0.34375 0.90625-1.125 0.90625-0.84375 0-1.2031-0.5625-1.3906-1.4219-0.03125-0.125-0.03125-0.15625-0.14062-0.15625-0.125 0-0.125 0.0625-0.125 0.23438v1.3281c0 0.17188 0 0.23438 0.10938 0.23438 0.046875 0 0.0625-0.015625 0.25-0.20312 0.015625-0.015625 0.015625-0.03125 0.20312-0.21875 0.4375 0.40625 0.89062 0.42188 1.0938 0.42188 1.1406 0 1.6094-0.67188 1.6094-1.3906 0-0.51562-0.29688-0.82812-0.42188-0.9375-0.32812-0.32812-0.71875-0.40625-1.1406-0.48438-0.5625-0.10938-1.2188-0.23438-1.2188-0.8125 0-0.35938 0.25-0.76562 1.1094-0.76562 1.0938 0 1.1562 0.90625 1.1719 1.2031 0 0.09375 0.09375 0.09375 0.10938 0.09375 0.14062 0 0.14062-0.046875 0.14062-0.23438v-1.0156c0-0.15625 0-0.23438-0.10938-0.23438-0.046875 0-0.078125 0-0.20312 0.125-0.03125 0.03125-0.125 0.125-0.17188 0.15625-0.375-0.28125-0.78125-0.28125-0.9375-0.28125-1.2188 0-1.5938 0.67188-1.5938 1.2344 0 0.34375 0.15625 0.625 0.42188 0.84375 0.32812 0.25 0.60938 0.3125 1.3281 0.45312z"/>
</g>
<g id="k">
<path d="m1.7656-4.4062-1.3906 0.10938v0.3125c0.64062 0 0.73438 0.0625 0.73438 0.54688v2.6875c0 0.4375-0.10938 0.4375-0.78125 0.4375v0.3125c0.3125-0.015625 0.85938-0.03125 1.0938-0.03125 0.35938 0 0.70312 0.015625 1.0469 0.03125v-0.3125c-0.67188 0-0.70312-0.046875-0.70312-0.4375zm0.03125-1.7344c0-0.3125-0.23438-0.53125-0.51562-0.53125-0.3125 0-0.53125 0.26562-0.53125 0.53125s0.21875 0.53125 0.53125 0.53125c0.28125 0 0.51562-0.21875 0.51562-0.53125z"/>
</g>
<g id="ag">
<path d="m1.1719-2.1719c0-1.625 0.8125-2.0469 1.3438-2.0469 0.09375 0 0.71875 0.015625 1.0625 0.375-0.40625 0.03125-0.46875 0.32812-0.46875 0.45312 0 0.26562 0.1875 0.45312 0.45312 0.45312s0.46875-0.15625 0.46875-0.46875c0-0.67188-0.76562-1.0625-1.5312-1.0625-1.25 0-2.1562 1.0781-2.1562 2.3125 0 1.2812 0.98438 2.2656 2.1406 2.2656 1.3281 0 1.6562-1.2031 1.6562-1.2969s-0.10938-0.09375-0.14062-0.09375c-0.078125 0-0.10938 0.03125-0.125 0.09375-0.28125 0.92188-0.9375 1.0469-1.2969 1.0469-0.53125 0-1.4062-0.42188-1.4062-2.0312z"/>
</g>
<g id="y">
<path d="m1.0938-0.75c0 0.4375-0.10938 0.4375-0.78125 0.4375v0.3125c0.35938-0.015625 0.85938-0.03125 1.1406-0.03125 0.25 0 0.76562 0.015625 1.1094 0.03125v-0.3125c-0.67188 0-0.78125 0-0.78125-0.4375v-1.8438c0-1.0312 0.71875-1.5938 1.3438-1.5938 0.64062 0 0.75 0.53125 0.75 1.1094v2.3281c0 0.4375-0.10938 0.4375-0.78125 0.4375v0.3125c0.34375-0.015625 0.85938-0.03125 1.125-0.03125 0.25 0 0.78125 0.015625 1.1094 0.03125v-0.3125c-0.51562 0-0.76562 0-0.76562-0.29688v-1.9062c0-0.85938 0-1.1562-0.3125-1.5156-0.14062-0.17188-0.46875-0.375-1.0469-0.375-0.84375 0-1.2812 0.59375-1.4531 0.98438v-3.5l-1.4375 0.10938v0.3125c0.70312 0 0.78125 0.0625 0.78125 0.5625z"/>
</g>
<g id="x">
<path d="m0.5625-3.4062c0 2.0625 1.6094 3.625 3.4688 3.625 1.625 0 2.5938-1.3906 2.5938-2.5469 0-0.09375 0-0.17188-0.125-0.17188-0.10938 0-0.10938 0.0625-0.125 0.17188-0.078125 1.4219-1.1406 2.2344-2.2344 2.2344-0.60938 0-2.5625-0.32812-2.5625-3.3125 0-2.9688 1.9531-3.3125 2.5625-3.3125 1.0781 0 1.9688 0.90625 2.1719 2.3594 0.015625 0.14062 0.015625 0.17188 0.15625 0.17188 0.15625 0 0.15625-0.03125 0.15625-0.23438v-2.3594c0-0.17188 0-0.25-0.10938-0.25-0.03125 0-0.078125 0-0.15625 0.125l-0.5 0.73438c-0.35938-0.35938-0.875-0.85938-1.8281-0.85938-1.875 0-3.4688 1.5938-3.4688 3.625z"/>
</g>
<g id="f">
<path d="m4.6875-2.1406c0-1.2656-0.98438-2.3281-2.1875-2.3281-1.25 0-2.2188 1.0938-2.2188 2.3281 0 1.2969 1.0312 2.25 2.2031 2.25 1.2031 0 2.2031-0.98438 2.2031-2.25zm-2.1875 2c-0.4375 0-0.875-0.20312-1.1406-0.67188-0.25-0.4375-0.25-1.0469-0.25-1.4062 0-0.39062 0-0.92188 0.23438-1.3594 0.26562-0.45312 0.73438-0.67188 1.1406-0.67188 0.4375 0 0.85938 0.21875 1.125 0.65625 0.26562 0.42188 0.26562 1 0.26562 1.375 0 0.35938 0 0.90625-0.21875 1.3438-0.23438 0.45312-0.67188 0.73438-1.1562 0.73438z"/>
</g>
<g id="j">
<path d="m1.7656-6.9219-1.4375 0.10938v0.3125c0.70312 0 0.78125 0.0625 0.78125 0.5625v5.1875c0 0.4375-0.10938 0.4375-0.78125 0.4375v0.3125c0.32812-0.015625 0.85938-0.03125 1.1094-0.03125s0.73438 0.015625 1.1094 0.03125v-0.3125c-0.67188 0-0.78125 0-0.78125-0.4375z"/>
</g>
<g id="q">
<path d="m2.2188-3.6562v-2.4375c0-0.34375 0.015625-0.40625 0.48438-0.40625h1.2344c0.96875 0 1.3125 0.84375 1.3125 1.375 0 0.64062-0.48438 1.4688-1.5938 1.4688zm2.3438 0.09375c0.96875-0.1875 1.6562-0.82812 1.6562-1.5625 0-0.85938-0.92188-1.6875-2.2188-1.6875h-3.6406v0.3125h0.23438c0.76562 0 0.79688 0.10938 0.79688 0.46875v5.25c0 0.35938-0.03125 0.46875-0.79688 0.46875h-0.23438v0.3125h3.9062c1.3281 0 2.2188-0.89062 2.2188-1.8281 0-0.85938-0.8125-1.6094-1.9219-1.7344zm-0.60938 3.25h-1.25c-0.46875 0-0.48438-0.0625-0.48438-0.39062v-2.7188h1.875c0.98438 0 1.4062 0.92188 1.4062 1.5938 0 0.70312-0.53125 1.5156-1.5469 1.5156z"/>
</g>
<g id="p">
<path d="m4.1406-3.3438c0.25-0.64062 0.76562-0.64062 0.92188-0.64062v-0.3125c-0.23438 0.015625-0.51562 0.03125-0.75 0.03125-0.17188 0-0.64062-0.015625-0.85938-0.03125v0.3125c0.3125 0 0.46875 0.17188 0.46875 0.42188 0 0.10938-0.015625 0.125-0.0625 0.25l-1.0156 2.4375-1.0938-2.6719c-0.046875-0.10938-0.0625-0.14062-0.0625-0.1875 0-0.25 0.35938-0.25 0.5625-0.25v-0.3125c-0.26562 0.015625-0.92188 0.03125-1.0938 0.03125-0.26562 0-0.67188-0.015625-0.96875-0.03125v0.3125c0.48438 0 0.67188 0 0.8125 0.34375l1.5 3.6406c-0.0625 0.125-0.20312 0.45312-0.25 0.59375-0.21875 0.54688-0.5 1.2344-1.1406 1.2344-0.046875 0-0.28125 0-0.46875-0.1875 0.3125-0.03125 0.39062-0.25 0.39062-0.42188 0-0.25-0.1875-0.40625-0.42188-0.40625-0.20312 0-0.42188 0.125-0.42188 0.42188 0 0.45312 0.42188 0.8125 0.92188 0.8125 0.625 0 1.0312-0.57812 1.2656-1.1406z"/>
</g>
<g id="l">
<path d="m1.0938-3.4219v2.6719c0 0.4375-0.10938 0.4375-0.78125 0.4375v0.3125c0.35938-0.015625 0.85938-0.03125 1.1406-0.03125 0.25 0 0.76562 0.015625 1.1094 0.03125v-0.3125c-0.67188 0-0.78125 0-0.78125-0.4375v-1.8438c0-1.0312 0.71875-1.5938 1.3438-1.5938 0.64062 0 0.75 0.53125 0.75 1.1094v2.3281c0 0.4375-0.10938 0.4375-0.78125 0.4375v0.3125c0.34375-0.015625 0.85938-0.03125 1.125-0.03125 0.25 0 0.78125 0.015625 1.1094 0.03125v-0.3125c-0.65625 0-0.76562 0-0.76562-0.4375v-1.8438c0-1.0312 0.70312-1.5938 1.3438-1.5938 0.625 0 0.73438 0.53125 0.73438 1.1094v2.3281c0 0.4375-0.10938 0.4375-0.78125 0.4375v0.3125c0.34375-0.015625 0.85938-0.03125 1.125-0.03125s0.78125 0.015625 1.125 0.03125v-0.3125c-0.51562 0-0.76562 0-0.78125-0.29688v-1.9062c0-0.85938 0-1.1562-0.3125-1.5156-0.14062-0.17188-0.46875-0.375-1.0469-0.375-0.82812 0-1.2812 0.59375-1.4375 0.98438-0.14062-0.875-0.875-0.98438-1.3281-0.98438-0.73438 0-1.2031 0.42188-1.4844 1.0469v-1.0469l-1.4062 0.10938v0.3125c0.70312 0 0.78125 0.0625 0.78125 0.5625z"/>
</g>
<g id="aw">
<path d="m2.2656-3.1562h1.6875c1.1875 0 2.2656-0.79688 2.2656-1.7969 0-0.98438-0.98438-1.8594-2.3438-1.8594h-3.5312v0.3125h0.25c0.76562 0 0.78125 0.10938 0.78125 0.46875v5.25c0 0.35938-0.015625 0.46875-0.78125 0.46875h-0.25v0.3125c0.35938-0.03125 1.0938-0.03125 1.4688-0.03125s1.125 0 1.4844 0.03125v-0.3125h-0.25c-0.76562 0-0.78125-0.10938-0.78125-0.46875zm-0.03125-0.25v-2.6875c0-0.34375 0.015625-0.40625 0.48438-0.40625h0.89062c1.5781 0 1.5781 1.0625 1.5781 1.5469 0 0.46875 0 1.5469-1.5781 1.5469z"/>
</g>
<g id="av">
<path d="m5.7969-2.2969c0 1.4062-0.96875 2.2031-1.9062 2.2031-0.46875 0-1.6406-0.25-1.6406-2.1406v-3.7969c0-0.35938 0.015625-0.46875 0.78125-0.46875h0.23438v-0.3125c-0.34375 0.03125-1.0781 0.03125-1.4688 0.03125-0.375 0-1.125 0-1.4688-0.03125v0.3125h0.23438c0.76562 0 0.79688 0.10938 0.79688 0.46875v3.7656c0 1.3906 1.1562 2.4844 2.5156 2.4844 1.1406 0 2.0312-0.92188 2.2031-2.0625 0.03125-0.20312 0.03125-0.29688 0.03125-0.6875v-3.1875c0-0.32812 0-0.78125 1.0312-0.78125v-0.3125c-0.35938 0.015625-0.84375 0.03125-1.1719 0.03125-0.35938 0-0.82812-0.015625-1.1875-0.03125v0.3125c1.0156 0 1.0156 0.46875 1.0156 0.73438z"/>
</g>
<g id="m">
<path d="m3.7812-0.54688v0.65625l1.4688-0.10938v-0.3125c-0.6875 0-0.78125-0.0625-0.78125-0.5625v-6.0469l-1.4219 0.10938v0.3125c0.6875 0 0.76562 0.0625 0.76562 0.5625v2.1562c-0.28125-0.35938-0.71875-0.625-1.25-0.625-1.1719 0-2.2188 0.98438-2.2188 2.2656 0 1.2656 0.96875 2.25 2.1094 2.25 0.64062 0 1.0781-0.34375 1.3281-0.65625zm0-2.6719v2.0469c0 0.17188 0 0.1875-0.10938 0.35938-0.29688 0.48438-0.73438 0.70312-1.1719 0.70312-0.45312 0-0.8125-0.26562-1.0469-0.64062-0.25-0.40625-0.28125-0.96875-0.28125-1.3906 0-0.35938 0.015625-0.95312 0.29688-1.4062 0.21875-0.3125 0.59375-0.64062 1.1406-0.64062 0.34375 0 0.76562 0.15625 1.0625 0.59375 0.10938 0.17188 0.10938 0.1875 0.10938 0.375z"/>
</g>
<g id="o">
<path d="m6.1719-3.3438c0.17188-0.5 0.48438-0.64062 0.84375-0.64062v-0.3125c-0.23438 0.015625-0.51562 0.03125-0.73438 0.03125-0.29688 0-0.73438-0.015625-0.92188-0.03125v0.3125c0.35938 0 0.57812 0.1875 0.57812 0.46875 0 0.0625 0 0.09375-0.0625 0.21875l-0.90625 2.5469-0.98438-2.7812c-0.03125-0.125-0.046875-0.14062-0.046875-0.1875 0-0.26562 0.39062-0.26562 0.59375-0.26562v-0.3125c-0.29688 0.015625-0.79688 0.03125-1.0469 0.03125-0.29688 0-0.57812-0.015625-0.875-0.03125v0.3125c0.35938 0 0.51562 0.015625 0.625 0.14062 0.046875 0.0625 0.15625 0.35938 0.21875 0.54688l-0.84375 2.4219-0.95312-2.6562c-0.046875-0.125-0.046875-0.14062-0.046875-0.1875 0-0.26562 0.39062-0.26562 0.57812-0.26562v-0.3125c-0.29688 0.015625-0.85938 0.03125-1.0781 0.03125-0.046875 0-0.57812-0.015625-0.9375-0.03125v0.3125c0.5 0 0.625 0.03125 0.75 0.34375l1.25 3.5312c0.046875 0.14062 0.078125 0.21875 0.20312 0.21875 0.14062 0 0.15625-0.0625 0.20312-0.20312l1.0156-2.8125 1.0156 2.8281c0.03125 0.10938 0.0625 0.1875 0.20312 0.1875 0.125 0 0.15625-0.09375 0.1875-0.1875z"/>
</g>
<g id="af">
<path d="m6.6406-6.75h-6.0938l-0.1875 2.25h0.25c0.14062-1.6094 0.28125-1.9375 1.7969-1.9375 0.17188 0 0.4375 0 0.53125 0.015625 0.21875 0.046875 0.21875 0.15625 0.21875 0.375v5.2656c0 0.32812 0 0.46875-1.0469 0.46875h-0.40625v0.3125c0.40625-0.03125 1.4219-0.03125 1.8906-0.03125 0.45312 0 1.4844 0 1.8906 0.03125v-0.3125h-0.40625c-1.0469 0-1.0469-0.14062-1.0469-0.46875v-5.2656c0-0.1875 0-0.32812 0.1875-0.375 0.10938-0.015625 0.375-0.015625 0.5625-0.015625 1.5156 0 1.6562 0.32812 1.7969 1.9375h0.25z"/>
</g>
<g id="w">
<path d="m1.7188-3.7656v-3.1562l-1.4375 0.10938v0.3125c0.70312 0 0.78125 0.0625 0.78125 0.5625v5.9375h0.25c0-0.015625 0.078125-0.15625 0.35938-0.625 0.14062 0.23438 0.5625 0.73438 1.2969 0.73438 1.1875 0 2.2188-0.98438 2.2188-2.2656 0-1.2656-0.96875-2.25-2.1094-2.25-0.78125 0-1.2031 0.46875-1.3594 0.64062zm0.03125 2.625v-2.0469c0-0.1875 0-0.20312 0.10938-0.35938 0.39062-0.5625 0.9375-0.64062 1.1719-0.64062 0.45312 0 0.8125 0.26562 1.0469 0.64062 0.26562 0.40625 0.28125 0.96875 0.28125 1.3906 0 0.35938-0.015625 0.95312-0.29688 1.4062-0.21875 0.3125-0.59375 0.64062-1.125 0.64062-0.45312 0-0.8125-0.23438-1.0469-0.60938-0.14062-0.20312-0.14062-0.23438-0.14062-0.42188z"/>
</g>
<g id="v">
<path d="m1.0625-0.75c0 0.4375-0.10938 0.4375-0.78125 0.4375v0.3125c0.32812-0.015625 0.79688-0.03125 1.0781-0.03125 0.3125 0 0.70312 0.015625 1.1094 0.03125v-0.3125c-0.67188 0-0.78125 0-0.78125-0.4375v-1.0312l0.64062-0.54688c0.76562 1.0469 1.1875 1.6094 1.1875 1.7969s-0.17188 0.21875-0.35938 0.21875v0.3125c0.26562-0.015625 0.85938-0.03125 1.0781-0.03125 0.28125 0 0.57812 0.015625 0.85938 0.03125v-0.3125c-0.375 0-0.59375 0-0.96875-0.53125l-1.2656-1.7812c-0.015625-0.015625-0.0625-0.078125-0.0625-0.10938s0.71875-0.64062 0.8125-0.71875c0.625-0.5 1.0469-0.53125 1.25-0.53125v-0.3125c-0.28125 0.03125-0.40625 0.03125-0.6875 0.03125-0.35938 0-0.98438-0.015625-1.125-0.03125v0.3125c0.1875 0 0.29688 0.10938 0.29688 0.25 0 0.20312-0.14062 0.3125-0.21875 0.39062l-1.4062 1.2031v-4.7812l-1.4375 0.10938v0.3125c0.70312 0 0.78125 0.0625 0.78125 0.5625z"/>
</g>
<g id="au">
<path d="m1.75-4.2969v-1.1562c0-0.875 0.46875-1.3594 0.90625-1.3594 0.03125 0 0.1875 0 0.32812 0.078125-0.10938 0.03125-0.29688 0.17188-0.29688 0.42188 0 0.21875 0.15625 0.42188 0.4375 0.42188s0.4375-0.20312 0.4375-0.4375c0-0.375-0.375-0.70312-0.90625-0.70312-0.6875 0-1.5469 0.53125-1.5469 1.5938v1.1406h-0.78125v0.3125h0.78125v3.2344c0 0.4375-0.10938 0.4375-0.76562 0.4375v0.3125c0.39062-0.015625 0.85938-0.03125 1.125-0.03125 0.40625 0 0.875 0 1.2656 0.03125v-0.3125h-0.20312c-0.73438 0-0.75-0.10938-0.75-0.46875v-3.2031h1.125v-0.3125z"/>
</g>
<g id="at">
<path d="m3.9688-6.9375c-0.046875-0.125-0.078125-0.20312-0.23438-0.20312s-0.1875 0.0625-0.23438 0.20312l-2.0625 5.9531c-0.1875 0.51562-0.57812 0.67188-1.125 0.67188v0.3125c0.23438-0.015625 0.67188-0.03125 1.0156-0.03125 0.3125 0 0.82812 0.015625 1.1562 0.03125v-0.3125c-0.5 0-0.75-0.25-0.75-0.5 0-0.03125 0.015625-0.14062 0.015625-0.15625l0.46875-1.2969h2.4531l0.53125 1.5156c0.015625 0.046875 0.03125 0.10938 0.03125 0.14062 0 0.29688-0.5625 0.29688-0.82812 0.29688v0.3125c0.35938-0.03125 1.0625-0.03125 1.4375-0.03125 0.42188 0 0.89062 0.015625 1.2969 0.03125v-0.3125h-0.17188c-0.59375 0-0.73438-0.0625-0.84375-0.39062zm-0.53125 1.1094 1.125 3.25h-2.2344z"/>
</g>
<g id="ae">
<path d="m3.8906-4c0.09375-0.10938 0.09375-0.125 0.09375-0.17188 0-0.125-0.09375-0.125-0.26562-0.125h-3.1875l-0.10938 1.6094h0.25c0.0625-1.0156 0.25-1.3906 1.3438-1.3906h1.1406l-2.7812 3.7656c-0.09375 0.10938-0.09375 0.125-0.09375 0.17188 0 0.14062 0.0625 0.14062 0.25 0.14062h3.2969l0.17188-1.8594h-0.25c-0.09375 1.1719-0.29688 1.6094-1.4531 1.6094h-1.1875z"/>
</g>
<g id="as">
<path d="m2.3125-6.6719c-0.09375-0.125-0.09375-0.14062-0.28125-0.14062h-1.7031v0.3125h0.29688c0.14062 0 0.34375 0.015625 0.48438 0.015625 0.23438 0.03125 0.25 0.046875 0.25 0.23438v5.2031c0 0.26562 0 0.73438-1.0312 0.73438v0.3125c0.34375-0.015625 0.84375-0.03125 1.1719-0.03125s0.8125 0.015625 1.1562 0.03125v-0.3125c-1.0156 0-1.0156-0.46875-1.0156-0.73438v-5.1875c0.046875 0.046875 0.046875 0.0625 0.09375 0.125l4.0625 5.9844c0.09375 0.10938 0.10938 0.125 0.17188 0.125 0.14062 0 0.14062-0.0625 0.14062-0.26562v-5.5c0-0.26562 0-0.73438 1.0312-0.73438v-0.3125c-0.35938 0.015625-0.84375 0.03125-1.1719 0.03125s-0.8125-0.015625-1.1562-0.03125v0.3125c1.0156 0 1.0156 0.46875 1.0156 0.73438v4.2656z"/>
</g>
<g id="ad">
<path d="m2.75-1.8594v-0.57812h-2.6406v0.57812z"/>
</g>
<g id="ar">
<path d="m2.25-6.0312c0-0.35938 0.015625-0.46875 0.8125-0.46875h0.25v-0.3125c-0.34375 0.03125-1.125 0.03125-1.5156 0.03125-0.375 0-1.1719 0-1.5156-0.03125v0.3125h0.25c0.79688 0 0.82812 0.10938 0.82812 0.46875v5.25c0 0.35938-0.03125 0.46875-0.82812 0.46875h-0.25v0.3125c0.34375-0.03125 1.1406-0.03125 1.5156-0.03125 0.39062 0 1.1719 0 1.5156 0.03125v-0.3125h-0.25c-0.79688 0-0.8125-0.10938-0.8125-0.46875z"/>
</g>
<g id="aq">
<path d="m4.3594-7.0938c0.0625-0.14062 0.0625-0.15625 0.0625-0.1875 0-0.10938-0.09375-0.20312-0.20312-0.20312-0.14062 0-0.1875 0.10938-0.21875 0.20312l-3.3906 9.3906c-0.046875 0.14062-0.046875 0.15625-0.046875 0.1875 0 0.10938 0.078125 0.20312 0.1875 0.20312 0.14062 0 0.1875-0.10938 0.21875-0.20312z"/>
</g>
<g id="ap">
<path d="m7.1875-3.375c0-2.0312-1.5-3.6562-3.3125-3.6562-1.7969 0-3.3125 1.5938-3.3125 3.6562 0 2.0469 1.5312 3.5938 3.3125 3.5938 1.8125 0 3.3125-1.5781 3.3125-3.5938zm-3.3125 3.3281c-0.95312 0-2.2969-0.875-2.2969-3.4688 0-2.5781 1.4688-3.2656 2.2969-3.2656 0.85938 0 2.2812 0.70312 2.2812 3.2656 0 2.6406-1.3594 3.4688-2.2812 3.4688z"/>
</g>
<g id="ao">
<path d="m3.4844-3.875-1.2812-0.29688c-0.625-0.15625-1-0.6875-1-1.2656 0-0.70312 0.53125-1.3125 1.3125-1.3125 1.6562 0 1.875 1.6406 1.9375 2.0781 0.015625 0.0625 0.015625 0.125 0.125 0.125 0.125 0 0.125-0.046875 0.125-0.23438v-2c0-0.17188 0-0.25-0.10938-0.25-0.0625 0-0.078125 0.015625-0.14062 0.14062l-0.35938 0.5625c-0.29688-0.29688-0.70312-0.70312-1.5938-0.70312-1.1094 0-1.9375 0.875-1.9375 1.9375 0 0.82812 0.53125 1.5625 1.2969 1.8281 0.10938 0.03125 0.625 0.15625 1.3281 0.32812 0.26562 0.0625 0.5625 0.14062 0.84375 0.5 0.20312 0.26562 0.3125 0.59375 0.3125 0.92188 0 0.70312-0.5 1.4219-1.3438 1.4219-0.28125 0-1.0469-0.046875-1.5781-0.53125-0.57812-0.54688-0.60938-1.1719-0.60938-1.5312-0.015625-0.10938-0.09375-0.10938-0.125-0.10938-0.125 0-0.125 0.078125-0.125 0.25v2c0 0.17188 0 0.23438 0.10938 0.23438 0.0625 0 0.078125-0.015625 0.14062-0.125 0-0.015625 0.03125-0.046875 0.35938-0.57812 0.3125 0.34375 0.95312 0.70312 1.8438 0.70312 1.1562 0 1.9531-0.96875 1.9531-2.0781 0-0.98438-0.65625-1.8125-1.4844-2.0156z"/>
</g>
<g id="n">
<path d="m4.75-6.0781c0.078125-0.10938 0.078125-0.125 0.078125-0.34375h-2.4219c-1.2031 0-1.2344-0.125-1.2656-0.3125h-0.25l-0.32812 2.0469h0.25c0.03125-0.15625 0.10938-0.78125 0.25-0.90625 0.0625-0.0625 0.84375-0.0625 0.96875-0.0625h2.0625c-0.10938 0.15625-0.89062 1.25-1.1094 1.5781-0.90625 1.3438-1.2344 2.7344-1.2344 3.75 0 0.09375 0 0.54688 0.46875 0.54688 0.45312 0 0.45312-0.45312 0.45312-0.54688v-0.51562c0-0.54688 0.03125-1.0938 0.10938-1.625 0.046875-0.23438 0.17188-1.0938 0.625-1.7031z"/>
</g>
<g id="ac">
<path d="m1.625-4.5625c-0.45312-0.29688-0.5-0.625-0.5-0.79688 0-0.60938 0.65625-1.0312 1.3594-1.0312 0.71875 0 1.3594 0.51562 1.3594 1.2344 0 0.57812-0.39062 1.0469-0.98438 1.3906zm1.4531 0.95312c0.71875-0.375 1.2031-0.89062 1.2031-1.5469 0-0.92188-0.875-1.4844-1.7812-1.4844-1 0-1.8125 0.73438-1.8125 1.6719 0 0.17188 0.015625 0.625 0.4375 1.0938 0.10938 0.10938 0.48438 0.35938 0.73438 0.53125-0.57812 0.29688-1.4375 0.84375-1.4375 1.8438 0 1.0469 1.0156 1.7188 2.0625 1.7188 1.125 0 2.0781-0.82812 2.0781-1.8906 0-0.35938-0.10938-0.8125-0.5-1.2344-0.1875-0.20312-0.34375-0.29688-0.98438-0.70312zm-1 0.42188 1.2344 0.78125c0.28125 0.1875 0.75 0.48438 0.75 1.0938 0 0.73438-0.75 1.25-1.5625 1.25-0.85938 0-1.5781-0.60938-1.5781-1.4375 0-0.57812 0.3125-1.2188 1.1562-1.6875z"/>
</g>
<g id="an">
<path d="m3.6562-3.1719v0.32812c0 2.3281-1.0312 2.7812-1.6094 2.7812-0.17188 0-0.71875-0.015625-0.98438-0.35938 0.4375 0 0.51562-0.28125 0.51562-0.45312 0-0.3125-0.23438-0.45312-0.45312-0.45312-0.15625 0-0.45312 0.078125-0.45312 0.46875 0 0.67188 0.53125 1.0781 1.375 1.0781 1.2969 0 2.5156-1.3594 2.5156-3.5 0-2.6875-1.1562-3.3594-2.0469-3.3594-0.54688 0-1.0312 0.1875-1.4531 0.625-0.42188 0.45312-0.64062 0.875-0.64062 1.625 0 1.2344 0.875 2.2188 1.9844 2.2188 0.60938 0 1.0156-0.42188 1.25-1zm-1.2344 0.76562c-0.15625 0-0.625 0-0.92188-0.625-0.1875-0.375-0.1875-0.85938-0.1875-1.3594 0-0.53125 0-1 0.21875-1.375 0.26562-0.5 0.64062-0.625 0.98438-0.625 0.46875 0 0.79688 0.34375 0.96875 0.78125 0.10938 0.32812 0.15625 0.95312 0.15625 1.4062 0 0.82812-0.34375 1.7969-1.2188 1.7969z"/>
</g>
<g id="i">
<path d="m2.9375-6.375c0-0.25 0-0.26562-0.23438-0.26562-0.625 0.64062-1.5 0.64062-1.8125 0.64062v0.3125c0.20312 0 0.78125 0 1.2969-0.26562v5.1719c0 0.35938-0.03125 0.46875-0.92188 0.46875h-0.3125v0.3125c0.34375-0.03125 1.2031-0.03125 1.6094-0.03125 0.39062 0 1.2656 0 1.6094 0.03125v-0.3125h-0.3125c-0.90625 0-0.92188-0.10938-0.92188-0.46875z"/>
</g>
<g id="t">
<path d="m1.2656-0.76562 1.0625-1.0312c1.5469-1.375 2.1406-1.9062 2.1406-2.9062 0-1.1406-0.89062-1.9375-2.1094-1.9375-1.125 0-1.8594 0.92188-1.8594 1.8125 0 0.54688 0.5 0.54688 0.53125 0.54688 0.17188 0 0.51562-0.10938 0.51562-0.53125 0-0.25-0.1875-0.51562-0.53125-0.51562-0.078125 0-0.09375 0-0.125 0.015625 0.21875-0.65625 0.76562-1.0156 1.3438-1.0156 0.90625 0 1.3281 0.8125 1.3281 1.625 0 0.79688-0.48438 1.5781-1.0469 2.2031l-1.9062 2.125c-0.10938 0.10938-0.10938 0.14062-0.10938 0.375h3.7031l0.26562-1.7344h-0.23438c-0.0625 0.29688-0.125 0.73438-0.23438 0.89062-0.0625 0.078125-0.71875 0.078125-0.9375 0.078125z"/>
</g>
<g id="ab">
<path d="m4.5781-3.1875c0-0.79688-0.046875-1.5938-0.39062-2.3281-0.45312-0.96875-1.2812-1.125-1.6875-1.125-0.60938 0-1.3281 0.26562-1.75 1.1875-0.3125 0.6875-0.35938 1.4688-0.35938 2.2656 0 0.75 0.03125 1.6406 0.45312 2.4062 0.42188 0.79688 1.1562 1 1.6406 1 0.53125 0 1.2969-0.20312 1.7344-1.1562 0.3125-0.6875 0.35938-1.4688 0.35938-2.25zm-2.0938 3.1875c-0.39062 0-0.98438-0.25-1.1562-1.2031-0.10938-0.59375-0.10938-1.5156-0.10938-2.1094 0-0.64062 0-1.2969 0.078125-1.8281 0.1875-1.1875 0.9375-1.2812 1.1875-1.2812 0.32812 0 0.98438 0.1875 1.1719 1.1719 0.10938 0.5625 0.10938 1.3125 0.10938 1.9375 0 0.75 0 1.4219-0.10938 2.0625-0.15625 0.95312-0.71875 1.25-1.1719 1.25z"/>
</g>
<g id="aa">
<path d="m2.8906-3.5156c0.8125-0.26562 1.3906-0.95312 1.3906-1.75 0-0.8125-0.875-1.375-1.8281-1.375-1 0-1.7656 0.59375-1.7656 1.3594 0 0.32812 0.21875 0.51562 0.51562 0.51562s0.5-0.21875 0.5-0.51562c0-0.48438-0.46875-0.48438-0.60938-0.48438 0.29688-0.5 0.95312-0.625 1.3125-0.625 0.42188 0 0.96875 0.21875 0.96875 1.1094 0 0.125-0.03125 0.70312-0.28125 1.1406-0.29688 0.48438-0.64062 0.51562-0.89062 0.51562-0.078125 0.015625-0.3125 0.03125-0.39062 0.03125-0.078125 0.015625-0.14062 0.03125-0.14062 0.125 0 0.10938 0.0625 0.10938 0.23438 0.10938h0.4375c0.8125 0 1.1875 0.67188 1.1875 1.6562 0 1.3594-0.6875 1.6406-1.125 1.6406s-1.1875-0.17188-1.5312-0.75c0.34375 0.046875 0.65625-0.17188 0.65625-0.54688 0-0.35938-0.26562-0.5625-0.54688-0.5625-0.25 0-0.5625 0.14062-0.5625 0.57812 0 0.90625 0.92188 1.5625 2.0156 1.5625 1.2188 0 2.125-0.90625 2.125-1.9219 0-0.8125-0.64062-1.5938-1.6719-1.8125z"/>
</g>
<g id="am">
<path d="m2.9375-1.6406v0.85938c0 0.35938-0.03125 0.46875-0.76562 0.46875h-0.20312v0.3125c0.40625-0.03125 0.92188-0.03125 1.3438-0.03125s0.9375 0 1.3594 0.03125v-0.3125h-0.21875c-0.73438 0-0.75-0.10938-0.75-0.46875v-0.85938h0.98438v-0.3125h-0.98438v-4.5312c0-0.20312 0-0.26562-0.17188-0.26562-0.078125 0-0.10938 0-0.1875 0.125l-3.0625 4.6719v0.3125zm0.046875-0.3125h-2.4219l2.4219-3.7188z"/>
</g>
<g id="al">
<path d="m4.4688-2c0-1.1875-0.8125-2.1875-1.8906-2.1875-0.46875 0-0.90625 0.15625-1.2656 0.51562v-1.9531c0.20312 0.0625 0.53125 0.125 0.84375 0.125 1.2344 0 1.9375-0.90625 1.9375-1.0312 0-0.0625-0.03125-0.10938-0.10938-0.10938 0 0-0.03125 0-0.078125 0.03125-0.20312 0.09375-0.6875 0.29688-1.3594 0.29688-0.39062 0-0.85938-0.078125-1.3281-0.28125-0.078125-0.03125-0.09375-0.03125-0.10938-0.03125-0.10938 0-0.10938 0.078125-0.10938 0.23438v2.9531c0 0.17188 0 0.25 0.14062 0.25 0.078125 0 0.09375-0.015625 0.14062-0.078125 0.10938-0.15625 0.46875-0.70312 1.2812-0.70312 0.51562 0 0.76562 0.45312 0.84375 0.64062 0.15625 0.375 0.1875 0.75 0.1875 1.25 0 0.35938 0 0.95312-0.25 1.375-0.23438 0.39062-0.60938 0.64062-1.0625 0.64062-0.71875 0-1.2969-0.53125-1.4688-1.1094 0.03125 0 0.0625 0.015625 0.17188 0.015625 0.32812 0 0.5-0.25 0.5-0.48438 0-0.25-0.17188-0.5-0.5-0.5-0.14062 0-0.48438 0.078125-0.48438 0.53125 0 0.85938 0.6875 1.8281 1.7969 1.8281 1.1562 0 2.1719-0.95312 2.1719-2.2188z"/>
</g>
<g id="ak">
<path d="m1.3125-3.2656v-0.25c0-2.5156 1.2344-2.875 1.75-2.875 0.23438 0 0.65625 0.0625 0.875 0.40625-0.15625 0-0.54688 0-0.54688 0.4375 0 0.3125 0.23438 0.46875 0.45312 0.46875 0.15625 0 0.46875-0.09375 0.46875-0.48438 0-0.59375-0.4375-1.0781-1.2656-1.0781-1.2812 0-2.625 1.2812-2.625 3.4844 0 2.6719 1.1562 3.375 2.0781 3.375 1.1094 0 2.0625-0.9375 2.0625-2.25 0-1.2656-0.89062-2.2188-2-2.2188-0.67188 0-1.0469 0.5-1.25 0.98438zm1.1875 3.2031c-0.625 0-0.92188-0.59375-0.98438-0.75-0.1875-0.46875-0.1875-1.2656-0.1875-1.4375 0-0.78125 0.32812-1.7812 1.2188-1.7812 0.17188 0 0.625 0 0.9375 0.625 0.17188 0.35938 0.17188 0.875 0.17188 1.3594s0 0.98438-0.17188 1.3438c-0.29688 0.59375-0.75 0.64062-0.98438 0.64062z"/>
</g>
<g id="aj">
<path d="m2.5938-7.25c0-0.45312 0.03125-0.5625 0.9375-0.5625h0.26562v-0.34375c-0.29688 0.015625-1.3281 0.015625-1.6875 0.015625s-1.3906 0-1.6719-0.015625v0.34375h0.25c0.90625 0 0.9375 0.10938 0.9375 0.5625v6.3438c0 0.4375-0.03125 0.5625-0.9375 0.5625h-0.25v0.34375c0.28125-0.03125 1.3125-0.03125 1.6719-0.03125s1.3906 0 1.6875 0.03125v-0.34375h-0.26562c-0.90625 0-0.9375-0.125-0.9375-0.5625z"/>
</g>
<g id="ai">
<path d="m2.4844-4.9844c-0.60938-0.15625-1.1406-0.75-1.1406-1.5156 0-0.84375 0.67188-1.5938 1.5938-1.5938 1.9688 0 2.2188 1.9375 2.2969 2.4531 0.03125 0.14062 0.03125 0.1875 0.14062 0.1875 0.14062 0 0.14062-0.0625 0.14062-0.26562v-2.4219c0-0.21875 0-0.28125-0.125-0.28125-0.03125 0-0.078125 0-0.17188 0.15625l-0.39062 0.73438c-0.57812-0.73438-1.3594-0.89062-1.8906-0.89062-1.3281 0-2.2969 1.0781-2.2969 2.2969 0 0.5625 0.20312 1.0938 0.65625 1.5781 0.40625 0.45312 0.82812 0.5625 1.6719 0.78125 0.42188 0.09375 1.0781 0.26562 1.25 0.32812 0.5625 0.28125 0.9375 0.92188 0.9375 1.5938 0 0.90625-0.64062 1.75-1.625 1.75-0.54688 0-1.2812-0.14062-1.875-0.64062-0.6875-0.625-0.73438-1.4844-0.75-1.8906-0.015625-0.09375-0.10938-0.09375-0.125-0.09375-0.14062 0-0.14062 0.0625-0.14062 0.28125v2.4062c0 0.21875 0 0.28125 0.125 0.28125 0.078125 0 0.078125-0.015625 0.17188-0.17188 0.046875-0.09375 0.29688-0.53125 0.39062-0.71875 0.42188 0.48438 1.1875 0.89062 2.2031 0.89062 1.3438 0 2.3125-1.1406 2.3125-2.4531 0-0.71875-0.28125-1.2656-0.59375-1.6562-0.4375-0.54688-0.98438-0.67188-1.4531-0.79688z"/>
</g>
<g id="ah">
<path d="m4.625-8.3125c-0.046875-0.15625-0.078125-0.21875-0.23438-0.21875-0.17188 0-0.1875 0.03125-0.25 0.21875l-2.5 7.1562c-0.17188 0.48438-0.5 0.79688-1.2656 0.8125v0.34375c0.71875-0.03125 0.75-0.03125 1.1406-0.03125 0.34375 0 0.90625 0 1.2188 0.03125v-0.34375c-0.5-0.015625-0.79688-0.26562-0.79688-0.59375 0-0.078125 0-0.10938 0.0625-0.25l0.54688-1.5938h3.0156l0.65625 1.875c0.0625 0.14062 0.0625 0.17188 0.0625 0.20312 0 0.35938-0.60938 0.35938-0.92188 0.35938v0.34375c0.28125-0.03125 1.2344-0.03125 1.5625-0.03125s1.1875 0 1.4688 0.03125v-0.34375c-0.78125 0-0.98438 0-1.1562-0.5zm-0.57812 1.2031 1.3906 3.9844h-2.7656z"/>
</g>
<clipPath id="bl">
<path d="m0.52734 383h78.473v50.855h-78.473z"/>
</clipPath>
<clipPath id="bk">
<path d="m0.52734 291h135.47v93h-135.47z"/>
</clipPath>
<clipPath id="be">
<path d="m0.52734 249h263.47v86h-263.47z"/>
</clipPath>
<clipPath id="bd">
<path d="m263 433h36v0.85547h-36z"/>
</clipPath>
<clipPath id="bc">
<path d="m284 355h1v78.855h-1z"/>
</clipPath>
<clipPath id="bb">
<path d="m0.52734-1.1445v435h320v-435zm282.95 426.14v9.1055h1.8867v-9.1055l-0.94531 4.7266z" clip-rule="evenodd"/>
</clipPath>
<clipPath id="ba">
<path d="m263 404h43v29.855h-43z"/>
</clipPath>
<clipPath id="az">
<path d="m0.52734 36h263.47v214h-263.47z"/>
</clipPath>
<clipPath id="ay">
<path d="m284 36h1v86h-1z"/>
</clipPath>
<clipPath id="ax">
<path d="m0.52734-1.1445v435h320v-435zm284.83 46.184v-9.1016h-1.8867v9.1016l0.94141-4.7227z" clip-rule="evenodd"/>
</clipPath>
<clipPath id="bj">
<path d="m284 249h1v86h-1z"/>
</clipPath>
<clipPath id="bi">
<path d="m0.52734-1.1445v435h320v-435zm284.83 258.81v-9.1016h-1.8867v9.1016l0.94141-4.7227z" clip-rule="evenodd"/>
</clipPath>
<clipPath id="bh">
<path d="m284 142h1v108h-1z"/>
</clipPath>
<clipPath id="bg">
<path d="m0.52734-1.1445v435h320v-435zm282.95 241.86v9.1055h1.8867v-9.1055l-0.94531 4.7266z" clip-rule="evenodd"/>
</clipPath>
<clipPath id="bf">
<path d="m114 383h107v50.855h-107z"/>
</clipPath>
</defs>
<path transform="matrix(.1 0 0 -.1 .528 433.86)" d="m783.51 500h354.38" fill="none" stroke="#000" stroke-miterlimit="10" stroke-width="2.3625"/>
<g clip-path="url(#bl)">
<path transform="matrix(.1 0 0 -.1 .528 433.86)" d="m3.8606 3.8625h779.65v496.13h-779.65z" fill="none" stroke="#000" stroke-miterlimit="10" stroke-width="2.3625"/>
</g>
<g clip-path="url(#bk)">
<path transform="matrix(.1 0 0 -.1 .528 433.86)" d="m3.8606 500v921.37h1346.6v-425.23" fill="none" stroke="#000" stroke-miterlimit="10" stroke-width="2.3625"/>
</g>
<g clip-path="url(#be)">
<path transform="matrix(.1 0 0 -.1 .528 433.86)" d="m3.8606 1421.4v425.27h2622.4v-850.51" fill="none" stroke="#000" stroke-miterlimit="10" stroke-width="2.3625"/>
</g>
<path transform="matrix(.1 0 0 -.1 .528 433.86)" d="m400.77 500v496.13h2225.5v-496.13" fill="none" stroke="#000" stroke-miterlimit="10" stroke-width="2.3625"/>
<path transform="matrix(.1 0 0 -.1 .528 433.86)" d="m2626.2 1846.6h354.38" fill="none" stroke="#000" stroke-miterlimit="10" stroke-width="2.3625"/>
<g clip-path="url(#bd)">
<path transform="matrix(.1 0 0 -.1 .528 433.86)" d="m2626.2 3.8625h354.38" fill="none" stroke="#000" stroke-miterlimit="10" stroke-width="2.3625"/>
</g>
<g clip-path="url(#bc)">
<g clip-path="url(#bb)">
<path transform="matrix(.1 0 0 -.1 .528 433.86)" d="m2838.9 783.51v-779.65" fill="none" stroke="#000" stroke-miterlimit="10" stroke-width="2.3625"/>
</g>
</g>
<path d="m283.47 424.99 0.94141 4.7266 0.94531-4.7266-0.94531 0.94531-0.94141-0.94531" fill-rule="evenodd"/>
<g clip-path="url(#ba)">
<path transform="matrix(.1 0 0 -.1 .528 433.86)" d="m2829.4 88.628 9.4141-47.266 9.4531 47.266-9.4531-9.4531z" fill="none" stroke="#000" stroke-miterlimit="10" stroke-width="14.175"/>
</g>
<path transform="matrix(.1 0 0 -.1 .528 433.86)" d="m2130.1 1846.6v496.13h496.13v-496.13" fill="none" stroke="#000" stroke-miterlimit="10" stroke-width="2.3625"/>
<path transform="matrix(.1 0 0 -.1 .528 433.86)" d="m1704.9 1846.6v496.13h425.23" fill="none" stroke="#000" stroke-miterlimit="10" stroke-width="2.3625"/>
<path transform="matrix(.1 0 0 -.1 .528 433.86)" d="m1279.6 1846.6v496.13h425.23" fill="none" stroke="#000" stroke-miterlimit="10" stroke-width="2.3625"/>
<path transform="matrix(.1 0 0 -.1 .528 433.86)" d="m854.37 1846.6v992.23h1771.9v-992.23" fill="none" stroke="#000" stroke-miterlimit="10" stroke-width="2.3625"/>
<path transform="matrix(.1 0 0 -.1 .528 433.86)" d="m429.13 1846.6v1488.4h1842.7v-496.13" fill="none" stroke="#000" stroke-miterlimit="10" stroke-width="2.3625"/>
<g clip-path="url(#az)">
<path transform="matrix(.1 0 0 -.1 .528 433.86)" d="m3.8606 1846.6v2126.2h2622.4v-1134" fill="none" stroke="#000" stroke-miterlimit="10" stroke-width="2.3625"/>
</g>
<path transform="matrix(.1 0 0 -.1 .528 433.86)" d="m2626.2 3972.9h354.38" fill="none" stroke="#000" stroke-miterlimit="10" stroke-width="2.3625"/>
<g clip-path="url(#ay)">
<g clip-path="url(#ax)">
<path transform="matrix(.1 0 0 -.1 .528 433.86)" d="m2838.9 3972.9v-850.51" fill="none" stroke="#000" stroke-miterlimit="10" stroke-width="2.3625"/>
</g>
</g>
<path d="m285.36 45.039-0.94531-4.7227-0.94141 4.7227 0.94141-0.94141 0.94531 0.94141" fill-rule="evenodd"/>
<path transform="matrix(.1 0 0 -.1 .528 433.86)" d="m2848.3 3888.2-9.4531 47.227-9.4141-47.227 9.4141 9.4141z" fill="none" stroke="#000" stroke-miterlimit="10" stroke-width="14.175"/>
<g clip-path="url(#bj)">
<g clip-path="url(#bi)">
<path transform="matrix(.1 0 0 -.1 .528 433.86)" d="m2838.9 1846.6v-850.51" fill="none" stroke="#000" stroke-miterlimit="10" stroke-width="2.3625"/>
</g>
</g>
<path d="m285.36 257.66-0.94531-4.7227-0.94141 4.7227 0.94141-0.94141 0.94531 0.94141" fill-rule="evenodd"/>
<path transform="matrix(.1 0 0 -.1 .528 433.86)" d="m2848.3 1761.9-9.4531 47.227-9.4141-47.227 9.4141 9.4141z" fill="none" stroke="#000" stroke-miterlimit="10" stroke-width="14.175"/>
<g clip-path="url(#bh)">
<g clip-path="url(#bg)">
<path transform="matrix(.1 0 0 -.1 .528 433.86)" d="m2838.9 2909.8v-1063.1" fill="none" stroke="#000" stroke-miterlimit="10" stroke-width="2.3625"/>
</g>
</g>
<path d="m283.47 240.72 0.94141 4.7266 0.94531-4.7266-0.94531 0.94531-0.94141-0.94531" fill-rule="evenodd"/>
<path transform="matrix(.1 0 0 -.1 .528 433.86)" d="m2829.4 1931.4 9.4141-47.266 9.4531 47.266-9.4531-9.4531z" fill="none" stroke="#000" stroke-miterlimit="10" stroke-width="14.175"/>
<g clip-path="url(#bf)">
<path transform="matrix(.1 0 0 -.1 .528 433.86)" d="m1137.9 3.8625h1063.1v496.13h-1063.1z" fill="none" stroke="#000" stroke-miterlimit="10" stroke-width="2.3625"/>
</g>
<path transform="matrix(.1 0 0 -.1 .528 433.86)" d="m1704.9 500h921.37" fill="none" stroke="#000" stroke-miterlimit="10" stroke-width="2.3625"/>
<path d="m36.352 383.86c0 3.9141-6.3438 7.0859-14.172 7.0859-7.832 0-14.176-3.1719-14.176-7.0859 0-3.9141 6.3438-7.0898 14.176-7.0898 7.8281 0 14.172 3.1758 14.172 7.0898" fill="#e5e5e5" fill-rule="evenodd"/>
<path transform="matrix(.1 0 0 -.1 .528 433.86)" d="m358.24 500c0-39.141-63.438-70.859-141.72-70.859-78.32 0-141.76 31.719-141.76 70.859s63.438 70.898 141.76 70.898c78.281 0 141.72-31.758 141.72-70.898z" fill="none" stroke="#000" stroke-miterlimit="10" stroke-width="2.3625"/>
<path d="m36.352 383.86c0 3.9141-6.3438 7.0859-14.172 7.0859-7.832 0-14.176-3.1719-14.176-7.0859 0-3.9141 6.3438-7.0898 14.176-7.0898 7.8281 0 14.172 3.1758 14.172 7.0898" fill="#e5e5e5" fill-rule="evenodd"/>
<path transform="matrix(.1 0 0 -.1 .528 433.86)" d="m358.24 500c0-39.141-63.438-70.859-141.72-70.859-78.32 0-141.76 31.719-141.76 70.859s63.438 70.898 141.76 70.898c78.281 0 141.72-31.758 141.72-70.898z" fill="none" stroke="#000" stroke-miterlimit="10" stroke-width="2.3625"/>
<path d="m142.66 36.566c0 3.9141-6.3438 7.0898-14.172 7.0898-7.832 0-14.176-3.1758-14.176-7.0898 0-3.9141 6.3438-7.0859 14.176-7.0859 7.8281 0 14.172 3.1719 14.172 7.0859" fill="#e5e5e5" fill-rule="evenodd"/>
<path transform="matrix(.1 0 0 -.1 .528 433.86)" d="m1421.4 3972.9c0-39.141-63.438-70.898-141.72-70.898-78.32 0-141.76 31.758-141.76 70.898s63.438 70.859 141.76 70.859c78.281 0 141.72-31.719 141.72-70.859z" fill="none" stroke="#000" stroke-miterlimit="10" stroke-width="2.3625"/>
<path d="m142.66 100.36c0 3.9141-6.3438 7.0859-14.172 7.0859-7.832 0-14.176-3.1719-14.176-7.0859 0-3.9141 6.3438-7.0898 14.176-7.0898 7.8281 0 14.172 3.1758 14.172 7.0898" fill="#e5e5e5" fill-rule="evenodd"/>
<path transform="matrix(.1 0 0 -.1 .528 433.86)" d="m1421.4 3335c0-39.141-63.438-70.859-141.72-70.859-78.32 0-141.76 31.719-141.76 70.859s63.438 70.898 141.76 70.898c78.281 0 141.72-31.758 141.72-70.898z" fill="none" stroke="#000" stroke-miterlimit="10" stroke-width="2.3625"/>
<path d="m178.1 149.97c0 3.9141-6.3438 7.0859-14.172 7.0859-7.832 0-14.176-3.1719-14.176-7.0859s6.3438-7.0898 14.176-7.0898c7.8281 0 14.172 3.1758 14.172 7.0898" fill="#e5e5e5" fill-rule="evenodd"/>
<path transform="matrix(.1 0 0 -.1 .528 433.86)" d="m1775.7 2838.9c0-39.141-63.438-70.859-141.72-70.859-78.32 0-141.76 31.719-141.76 70.859s63.438 70.898 141.76 70.898c78.281 0 141.72-31.758 141.72-70.898z" fill="none" stroke="#000" stroke-miterlimit="10" stroke-width="2.3625"/>
<path d="m263.15 149.97c0 3.9141-6.3438 7.0859-14.176 7.0859-7.8281 0-14.172-3.1719-14.172-7.0859s6.3438-7.0898 14.172-7.0898c7.832 0 14.176 3.1758 14.176 7.0898" fill="#e5e5e5" fill-rule="evenodd"/>
<path transform="matrix(.1 0 0 -.1 .528 433.86)" d="m2626.2 2838.9c0-39.141-63.438-70.859-141.76-70.859-78.281 0-141.72 31.719-141.72 70.859s63.438 70.898 141.72 70.898c78.32 0 141.76-31.758 141.76-70.898z" fill="none" stroke="#000" stroke-miterlimit="10" stroke-width="2.3625"/>
<path d="m163.93 199.58c0 3.9141-6.3477 7.0898-14.176 7.0898s-14.176-3.1758-14.176-7.0898 6.3477-7.0859 14.176-7.0859 14.176 3.1719 14.176 7.0859" fill="#e5e5e5" fill-rule="evenodd"/>
<path transform="matrix(.1 0 0 -.1 .528 433.86)" d="m1634 2342.8c0-39.141-63.477-70.898-141.76-70.898s-141.76 31.758-141.76 70.898 63.477 70.859 141.76 70.859 141.76-31.719 141.76-70.859z" fill="none" stroke="#000" stroke-miterlimit="10" stroke-width="2.3625"/>
<path d="m206.45 199.58c0 3.9141-6.3477 7.0898-14.176 7.0898s-14.176-3.1758-14.176-7.0898 6.3477-7.0859 14.176-7.0859 14.176 3.1719 14.176 7.0859" fill="#e5e5e5" fill-rule="evenodd"/>
<path transform="matrix(.1 0 0 -.1 .528 433.86)" d="m2059.3 2342.8c0-39.141-63.477-70.898-141.76-70.898s-141.76 31.758-141.76 70.898 63.477 70.859 141.76 70.859 141.76-31.719 141.76-70.859z" fill="none" stroke="#000" stroke-miterlimit="10" stroke-width="2.3625"/>
<path d="m248.98 199.58c0 3.9141-6.3438 7.0898-14.172 7.0898-7.832 0-14.176-3.1758-14.176-7.0898s6.3438-7.0859 14.176-7.0859c7.8281 0 14.172 3.1719 14.172 7.0859" fill="#e5e5e5" fill-rule="evenodd"/>
<path transform="matrix(.1 0 0 -.1 .528 433.86)" d="m2484.5 2342.8c0-39.141-63.438-70.898-141.72-70.898-78.32 0-141.76 31.758-141.76 70.898s63.438 70.859 141.76 70.859c78.281 0 141.72-31.719 141.72-70.859z" fill="none" stroke="#000" stroke-miterlimit="10" stroke-width="2.3625"/>
<path d="m71.789 383.86c0 3.9141-6.3438 7.0859-14.172 7.0859-7.832 0-14.176-3.1719-14.176-7.0859 0-3.9141 6.3438-7.0898 14.176-7.0898 7.8281 0 14.172 3.1758 14.172 7.0898" fill="#e5e5e5" fill-rule="evenodd"/>
<path transform="matrix(.1 0 0 -.1 .528 433.86)" d="m712.61 500c0-39.141-63.438-70.859-141.72-70.859-78.32 0-141.76 31.719-141.76 70.859s63.438 70.898 141.76 70.898c78.281 0 141.72-31.758 141.72-70.898z" fill="none" stroke="#000" stroke-miterlimit="10" stroke-width="2.3625"/>
<path d="m248.98 249.19c0 3.9141-6.3438 7.0898-14.172 7.0898-7.832 0-14.176-3.1758-14.176-7.0898 0-3.9141 6.3438-7.0859 14.176-7.0859 7.8281 0 14.172 3.1719 14.172 7.0859" fill="#e5e5e5" fill-rule="evenodd"/>
<path transform="matrix(.1 0 0 -.1 .528 433.86)" d="m2484.5 1846.6c0-39.141-63.438-70.898-141.72-70.898-78.32 0-141.76 31.758-141.76 70.898s63.438 70.859 141.76 70.859c78.281 0 141.72-31.719 141.72-70.859z" fill="none" stroke="#000" stroke-miterlimit="10" stroke-width="2.3625"/>
<path d="m206.45 249.19c0 3.9141-6.3477 7.0898-14.176 7.0898s-14.176-3.1758-14.176-7.0898c0-3.9141 6.3477-7.0859 14.176-7.0859s14.176 3.1719 14.176 7.0859" fill="#e5e5e5" fill-rule="evenodd"/>
<path transform="matrix(.1 0 0 -.1 .528 433.86)" d="m2059.3 1846.6c0-39.141-63.477-70.898-141.76-70.898s-141.76 31.758-141.76 70.898 63.477 70.859 141.76 70.859 141.76-31.719 141.76-70.859z" fill="none" stroke="#000" stroke-miterlimit="10" stroke-width="2.3625"/>
<path d="m163.93 249.19c0 3.9141-6.3477 7.0898-14.176 7.0898s-14.176-3.1758-14.176-7.0898c0-3.9141 6.3477-7.0859 14.176-7.0859s14.176 3.1719 14.176 7.0859" fill="#e5e5e5" fill-rule="evenodd"/>
<path transform="matrix(.1 0 0 -.1 .528 433.86)" d="m1634 1846.6c0-39.141-63.477-70.898-141.76-70.898s-141.76 31.758-141.76 70.898 63.477 70.859 141.76 70.859 141.76-31.719 141.76-70.859z" fill="none" stroke="#000" stroke-miterlimit="10" stroke-width="2.3625"/>
<path d="m121.4 249.19c0 3.9141-6.3438 7.0898-14.176 7.0898-7.8281 0-14.172-3.1758-14.172-7.0898 0-3.9141 6.3438-7.0859 14.172-7.0859 7.832 0 14.176 3.1719 14.176 7.0859" fill="#e5e5e5" fill-rule="evenodd"/>
<path transform="matrix(.1 0 0 -.1 .528 433.86)" d="m1208.7 1846.6c0-39.141-63.438-70.898-141.76-70.898-78.281 0-141.72 31.758-141.72 70.898s63.438 70.859 141.72 70.859c78.32 0 141.76-31.719 141.76-70.859z" fill="none" stroke="#000" stroke-miterlimit="10" stroke-width="2.3625"/>
<path d="m36.352 249.19c0 3.9141-6.3438 7.0898-14.172 7.0898-7.832 0-14.176-3.1758-14.176-7.0898 0-3.9141 6.3438-7.0859 14.176-7.0859 7.8281 0 14.172 3.1719 14.172 7.0859" fill="#e5e5e5" fill-rule="evenodd"/>
<path transform="matrix(.1 0 0 -.1 .528 433.86)" d="m358.24 1846.6c0-39.141-63.438-70.898-141.72-70.898-78.32 0-141.76 31.758-141.76 70.898s63.438 70.859 141.76 70.859c78.281 0 141.72-31.719 141.72-70.859z" fill="none" stroke="#000" stroke-miterlimit="10" stroke-width="2.3625"/>
<path d="m78.879 249.19c0 3.9141-6.3477 7.0898-14.176 7.0898s-14.176-3.1758-14.176-7.0898c0-3.9141 6.3477-7.0859 14.176-7.0859s14.176 3.1719 14.176 7.0859" fill="#e5e5e5" fill-rule="evenodd"/>
<path transform="matrix(.1 0 0 -.1 .528 433.86)" d="m783.51 1846.6c0-39.141-63.477-70.898-141.76-70.898s-141.76 31.758-141.76 70.898 63.477 70.859 141.76 70.859 141.76-31.719 141.76-70.859z" fill="none" stroke="#000" stroke-miterlimit="10" stroke-width="2.3625"/>
<path d="m78.879 291.72c0 3.9141-6.3477 7.0859-14.176 7.0859s-14.176-3.1719-14.176-7.0859 6.3477-7.0898 14.176-7.0898 14.176 3.1758 14.176 7.0898" fill="#e5e5e5" fill-rule="evenodd"/>
<path transform="matrix(.1 0 0 -.1 .528 433.86)" d="m783.51 1421.4c0-39.141-63.477-70.859-141.76-70.859s-141.76 31.719-141.76 70.859 63.477 70.898 141.76 70.898 141.76-31.758 141.76-70.898z" fill="none" stroke="#000" stroke-miterlimit="10" stroke-width="2.3625"/>
<path d="m93.055 334.24c0 3.9141-6.3477 7.0859-14.176 7.0859s-14.176-3.1719-14.176-7.0859c0-3.9141 6.3477-7.0859 14.176-7.0859s14.176 3.1719 14.176 7.0859" fill="#e5e5e5" fill-rule="evenodd"/>
<path transform="matrix(.1 0 0 -.1 .528 433.86)" d="m925.27 996.13c0-39.141-63.477-70.859-141.76-70.859s-141.76 31.719-141.76 70.859 63.477 70.859 141.76 70.859 141.76-31.719 141.76-70.859z" fill="none" stroke="#000" stroke-miterlimit="10" stroke-width="2.3625"/>
<path d="m234.8 334.24c0 3.9141-6.3477 7.0859-14.176 7.0859s-14.176-3.1719-14.176-7.0859c0-3.9141 6.3477-7.0859 14.176-7.0859s14.176 3.1719 14.176 7.0859" fill="#e5e5e5" fill-rule="evenodd"/>
<path transform="matrix(.1 0 0 -.1 .528 433.86)" d="m2342.8 996.13c0-39.141-63.477-70.859-141.76-70.859s-141.76 31.719-141.76 70.859 63.477 70.859 141.76 70.859 141.76-31.719 141.76-70.859z" fill="none" stroke="#000" stroke-miterlimit="10" stroke-width="2.3625"/>
<path d="m185.19 383.86c0 3.9141-6.3477 7.0859-14.176 7.0859s-14.176-3.1719-14.176-7.0859c0-3.9141 6.3477-7.0898 14.176-7.0898s14.176 3.1758 14.176 7.0898" fill="#e5e5e5" fill-rule="evenodd"/>
<path transform="matrix(.1 0 0 -.1 .528 433.86)" d="m1846.6 500c0-39.141-63.477-70.859-141.76-70.859s-141.76 31.719-141.76 70.859 63.477 70.898 141.76 70.898 141.76-31.758 141.76-70.898z" fill="none" stroke="#000" stroke-miterlimit="10" stroke-width="2.3625"/>
<g>
<use x="130.764" y="235.039" xlink:href="#z"/>
<use x="139.896715" y="235.039" xlink:href="#e"/>
<use x="144.878015" y="235.039" xlink:href="#c"/>
<use x="150.413236" y="235.039" xlink:href="#e"/>
<use x="155.394536" y="235.039" xlink:href="#u"/>
<use x="160.375836" y="235.039" xlink:href="#a"/>
<use x="164.803215" y="235.039" xlink:href="#b"/>
<use x="5.167" y="407.964" xlink:href="#s"/>
<use x="12.63895" y="407.964" xlink:href="#e"/>
<use x="17.62025" y="407.964" xlink:href="#h"/>
<use x="23.155471" y="407.964" xlink:href="#r"/>
<use x="28.690691" y="407.964" xlink:href="#d"/>
<use x="32.565146" y="407.964" xlink:href="#g"/>
<use x="36.494396" y="407.964" xlink:href="#r"/>
<use x="42.308569" y="407.964" xlink:href="#a"/>
<use x="46.735949" y="407.964" xlink:href="#k"/>
<use x="49.503559" y="407.964" xlink:href="#ag"/>
<use x="53.651985" y="407.964" xlink:href="#y"/>
<use x="59.187206" y="407.964" xlink:href="#a"/>
<use x="63.614585" y="407.964" xlink:href="#b"/>
<use x="14.313" y="419.303" xlink:href="#x"/>
<use x="21.50799" y="419.303" xlink:href="#f"/>
<use x="26.48929" y="419.303" xlink:href="#c"/>
<use x="31.745557" y="419.303" xlink:href="#d"/>
<use x="35.620013" y="419.303" xlink:href="#b"/>
<use x="39.522363" y="419.303" xlink:href="#f"/>
<use x="44.503663" y="419.303" xlink:href="#j"/>
<use x="47.271273" y="419.303" xlink:href="#j"/>
<use x="50.038884" y="419.303" xlink:href="#a"/>
<use x="54.466263" y="419.303" xlink:href="#b"/>
<use x="112.439" y="362.607" xlink:href="#q"/>
<use x="119.49551" y="362.607" xlink:href="#h"/>
<use x="125.03073" y="362.607" xlink:href="#g"/>
<use x="128.95998" y="362.607" xlink:href="#g"/>
<use x="132.889229" y="362.607" xlink:href="#p"/>
<use x="138.147489" y="362.607" xlink:href="#g"/>
<use x="142.076739" y="362.607" xlink:href="#d"/>
<use x="145.951194" y="362.607" xlink:href="#a"/>
<use x="150.378573" y="362.607" xlink:href="#l"/>
<use x="124.837" y="277.562" xlink:href="#x"/>
<use x="132.03199" y="277.562" xlink:href="#aw"/>
<use x="138.812535" y="277.562" xlink:href="#av"/>
<use x="263.329" y="348.432" xlink:href="#s"/>
<use x="270.80095" y="348.432" xlink:href="#e"/>
<use x="275.78225" y="348.432" xlink:href="#b"/>
<use x="279.6846" y="348.432" xlink:href="#m"/>
<use x="285.219821" y="348.432" xlink:href="#o"/>
<use x="292.135858" y="348.432" xlink:href="#e"/>
<use x="297.117158" y="348.432" xlink:href="#b"/>
<use x="301.019508" y="348.432" xlink:href="#a"/>
<use x="20.218" y="312.997" xlink:href="#z"/>
<use x="29.350715" y="312.997" xlink:href="#a"/>
<use x="33.778095" y="312.997" xlink:href="#l"/>
<use x="42.079929" y="312.997" xlink:href="#f"/>
<use x="47.061229" y="312.997" xlink:href="#b"/>
<use x="50.96358" y="312.997" xlink:href="#p"/>
<use x="59.539386" y="312.997" xlink:href="#af"/>
<use x="65.90748" y="312.997" xlink:href="#b"/>
<use x="69.80983" y="312.997" xlink:href="#e"/>
<use x="74.79113" y="312.997" xlink:href="#c"/>
<use x="80.326351" y="312.997" xlink:href="#g"/>
<use x="84.2556" y="312.997" xlink:href="#j"/>
<use x="87.023211" y="312.997" xlink:href="#e"/>
<use x="92.004511" y="312.997" xlink:href="#d"/>
<use x="95.878966" y="312.997" xlink:href="#k"/>
<use x="98.646576" y="312.997" xlink:href="#f"/>
<use x="103.627876" y="312.997" xlink:href="#c"/>
<use x="299.981" y="253.466" xlink:href="#aj"/>
<use x="304.203577" y="253.466" xlink:href="#ai"/>
<use x="310.707205" y="253.466" xlink:href="#ah"/>
<use x="263.329" y="134.403" xlink:href="#s"/>
<use x="270.80095" y="134.403" xlink:href="#e"/>
<use x="275.78225" y="134.403" xlink:href="#b"/>
<use x="279.6846" y="134.403" xlink:href="#m"/>
<use x="285.219821" y="134.403" xlink:href="#o"/>
<use x="292.135858" y="134.403" xlink:href="#e"/>
<use x="297.117158" y="134.403" xlink:href="#b"/>
<use x="301.019508" y="134.403" xlink:href="#a"/>
<use x="146.679" y="174.09" xlink:href="#q"/>
<use x="153.73551" y="174.09" xlink:href="#a"/>
<use x="158.162889" y="174.09" xlink:href="#d"/>
<use x="162.037344" y="174.09" xlink:href="#b"/>
<use x="165.939695" y="174.09" xlink:href="#k"/>
<use x="168.707305" y="174.09" xlink:href="#a"/>
<use x="173.134684" y="174.09" xlink:href="#w"/>
<use x="178.669905" y="174.09" xlink:href="#g"/>
<use x="182.599154" y="174.09" xlink:href="#g"/>
<use x="186.528404" y="174.09" xlink:href="#p"/>
<use x="191.786664" y="174.09" xlink:href="#g"/>
<use x="195.715913" y="174.09" xlink:href="#d"/>
<use x="199.590369" y="174.09" xlink:href="#a"/>
<use x="204.017748" y="174.09" xlink:href="#l"/>
<use x="105.421" y="124.481" xlink:href="#q"/>
<use x="112.47751" y="124.481" xlink:href="#k"/>
<use x="115.24512" y="124.481" xlink:href="#w"/>
<use x="120.78034" y="124.481" xlink:href="#j"/>
<use x="123.547951" y="124.481" xlink:href="#k"/>
<use x="126.315561" y="124.481" xlink:href="#f"/>
<use x="131.296861" y="124.481" xlink:href="#d"/>
<use x="135.171316" y="124.481" xlink:href="#y"/>
<use x="140.706537" y="124.481" xlink:href="#a"/>
<use x="145.133916" y="124.481" xlink:href="#v"/>
<use x="150.392176" y="124.481" xlink:href="#au"/>
<use x="153.436747" y="124.481" xlink:href="#h"/>
<use x="158.971968" y="124.481" xlink:href="#c"/>
<use x="164.507188" y="124.481" xlink:href="#v"/>
<use x="169.765448" y="124.481" xlink:href="#d"/>
<use x="173.639904" y="124.481" xlink:href="#k"/>
<use x="176.407514" y="124.481" xlink:href="#f"/>
<use x="181.388814" y="124.481" xlink:href="#c"/>
<use x="186.924034" y="124.481" xlink:href="#a"/>
<use x="191.351414" y="124.481" xlink:href="#c"/>
<use x="76.253" y="67.784" xlink:href="#at"/>
<use x="83.72495" y="67.784" xlink:href="#c"/>
<use x="88.981218" y="67.784" xlink:href="#o"/>
<use x="95.897255" y="67.784" xlink:href="#a"/>
<use x="100.324634" y="67.784" xlink:href="#c"/>
<use x="105.859855" y="67.784" xlink:href="#m"/>
<use x="111.395075" y="67.784" xlink:href="#h"/>
<use x="116.930296" y="67.784" xlink:href="#c"/>
<use x="122.465516" y="67.784" xlink:href="#u"/>
<use x="127.446816" y="67.784" xlink:href="#g"/>
<use x="131.376066" y="67.784" xlink:href="#r"/>
<use x="136.911286" y="67.784" xlink:href="#b"/>
<use x="140.813637" y="67.784" xlink:href="#f"/>
<use x="145.794937" y="67.784" xlink:href="#u"/>
<use x="150.776237" y="67.784" xlink:href="#b"/>
<use x="154.678587" y="67.784" xlink:href="#e"/>
<use x="159.659887" y="67.784" xlink:href="#l"/>
<use x="167.961722" y="67.784" xlink:href="#l"/>
<use x="176.263556" y="67.784" xlink:href="#a"/>
<use x="109.019" y="6.836" xlink:href="#q"/>
<use x="116.07551" y="6.836" xlink:href="#a"/>
<use x="120.502889" y="6.836" xlink:href="#c"/>
<use x="125.759157" y="6.836" xlink:href="#h"/>
<use x="131.294377" y="6.836" xlink:href="#d"/>
<use x="135.168832" y="6.836" xlink:href="#ae"/>
<use x="139.596212" y="6.836" xlink:href="#a"/>
<use x="144.023591" y="6.836" xlink:href="#b"/>
<use x="127.534" y="407.964" xlink:href="#as"/>
<use x="135.00595" y="407.964" xlink:href="#a"/>
<use x="139.433329" y="407.964" xlink:href="#d"/>
<use x="143.307785" y="407.964" xlink:href="#ae"/>
<use x="147.735164" y="407.964" xlink:href="#o"/>
<use x="154.651201" y="407.964" xlink:href="#a"/>
<use x="159.07858" y="407.964" xlink:href="#b"/>
<use x="162.980931" y="407.964" xlink:href="#v"/>
<use x="168.239191" y="407.964" xlink:href="#ad"/>
<use x="174.887234" y="407.964" xlink:href="#h"/>
<use x="180.422455" y="407.964" xlink:href="#c"/>
<use x="185.957675" y="407.964" xlink:href="#m"/>
<use x="194.810442" y="407.964" xlink:href="#ar"/>
<use x="198.407936" y="407.964" xlink:href="#aq"/>
<use x="203.389236" y="407.964" xlink:href="#ap"/>
<use x="211.138147" y="407.964" xlink:href="#ad"/>
<use x="148.968" y="419.303" xlink:href="#x"/>
<use x="156.16299" y="419.303" xlink:href="#f"/>
<use x="161.14429" y="419.303" xlink:href="#c"/>
<use x="166.400557" y="419.303" xlink:href="#d"/>
<use x="170.275013" y="419.303" xlink:href="#b"/>
<use x="174.177363" y="419.303" xlink:href="#f"/>
<use x="179.158663" y="419.303" xlink:href="#j"/>
<use x="181.926273" y="419.303" xlink:href="#j"/>
<use x="184.693884" y="419.303" xlink:href="#a"/>
<use x="189.121263" y="419.303" xlink:href="#b"/>
<use x="218.978" y="227.952" xlink:href="#af"/>
<use x="225.346094" y="227.952" xlink:href="#b"/>
<use x="229.248444" y="227.952" xlink:href="#a"/>
<use x="233.675824" y="227.952" xlink:href="#k"/>
<use x="236.443434" y="227.952" xlink:href="#w"/>
<use x="242.247645" y="227.952" xlink:href="#a"/>
<use x="246.675024" y="227.952" xlink:href="#b"/>
<use x="171.344817" y="227.952" xlink:href="#ao"/>
<use x="176.880037" y="227.952" xlink:href="#ag"/>
<use x="181.038427" y="227.952" xlink:href="#y"/>
<use x="186.573647" y="227.952" xlink:href="#a"/>
<use x="191.001027" y="227.952" xlink:href="#m"/>
<use x="196.536247" y="227.952" xlink:href="#h"/>
<use x="202.071468" y="227.952" xlink:href="#j"/>
<use x="204.839078" y="227.952" xlink:href="#a"/>
<use x="209.266458" y="227.952" xlink:href="#b"/>
<use x="131.733" y="220.865" xlink:href="#z"/>
<use x="140.865715" y="220.865" xlink:href="#a"/>
<use x="145.293095" y="220.865" xlink:href="#l"/>
<use x="153.594929" y="220.865" xlink:href="#f"/>
<use x="158.576229" y="220.865" xlink:href="#b"/>
<use x="162.47858" y="220.865" xlink:href="#p"/>
<use x="147.244" y="253.466" xlink:href="#n"/>
<use x="62.203246" y="253.466" xlink:href="#ac"/>
<use x="19.672907" y="253.466" xlink:href="#ac"/>
<use x="189.764377" y="253.466" xlink:href="#n"/>
<use x="62.199" y="295.988" xlink:href="#an"/>
<use x="52.622" y="388.12" xlink:href="#i"/>
<use x="57.6033" y="388.12" xlink:href="#t"/>
<use x="73.883" y="338.511" xlink:href="#i"/>
<use x="78.8643" y="338.511" xlink:href="#ab"/>
<use x="215.62091" y="338.511" xlink:href="#i"/>
<use x="220.60221" y="338.511" xlink:href="#ab"/>
<use x="17.186" y="388.12" xlink:href="#i"/>
<use x="22.1673" y="388.12" xlink:href="#i"/>
<use x="166.017281" y="388.12" xlink:href="#i"/>
<use x="170.998581" y="388.12" xlink:href="#t"/>
<use x="125.983" y="40.854" xlink:href="#i"/>
<use x="125.983" y="104.637" xlink:href="#t"/>
<use x="161.418" y="154.247" xlink:href="#aa"/>
<use x="246.458754" y="154.247" xlink:href="#aa"/>
<use x="147.244" y="203.856" xlink:href="#am"/>
<use x="189.764377" y="203.856" xlink:href="#al"/>
<use x="232.284754" y="203.856" xlink:href="#ak"/>
<use x="232.289" y="253.466" xlink:href="#n"/>
<use x="104.717907" y="253.466" xlink:href="#n"/>
</g>
</svg>
