<svg width="391pt" height="80pt" version="1.1" viewBox="0 0 391 80" xmlns="http://www.w3.org/2000/svg" xmlns:xlink="http://www.w3.org/1999/xlink">
<defs>
<g id="v">
<path d="m6.3438-7.4219h-5.9844v0.34375h0.26562c0.84375 0 0.85938 0.125 0.85938 0.51562v5.7188c0 0.39062-0.015625 0.5-0.85938 0.5h-0.26562v0.34375c0.375-0.03125 1.2344-0.03125 1.6562-0.03125 0.45312 0 1.4375 0 1.8281 0.03125v-0.34375h-0.35938c-1.0312 0-1.0312-0.14062-1.0312-0.51562v-2.6875h0.9375c1.0469 0 1.1562 0.34375 1.1562 1.2812h0.28125v-2.8906h-0.28125c0 0.90625-0.10938 1.2812-1.1562 1.2812h-0.9375v-2.7656c0-0.35938 0.015625-0.4375 0.53125-0.4375h1.3125c1.6406 0 1.9062 0.60938 2.0781 2.1094h0.28125z"/>
</g>
<g id="j">
<path d="m2.2188-6.75c0-0.26562-0.21875-0.54688-0.54688-0.54688-0.3125 0-0.54688 0.23438-0.54688 0.54688 0 0.29688 0.23438 0.54688 0.54688 0.54688 0.32812 0 0.54688-0.28125 0.54688-0.54688zm2.0938 0c0-0.3125-0.23438-0.54688-0.53125-0.54688-0.32812 0-0.54688 0.28125-0.54688 0.54688s0.21875 0.54688 0.54688 0.54688c0.29688 0 0.53125-0.25 0.53125-0.54688z"/>
</g>
<g id="e">
<path d="m4.2656-0.85938v0.98438l1.5625-0.125v-0.34375c-0.75 0-0.84375-0.078125-0.84375-0.60938v-3.875l-1.6094 0.125v0.34375c0.76562 0 0.85938 0.078125 0.85938 0.60938v1.9375c0 0.95312-0.53125 1.6875-1.3281 1.6875-0.90625 0-0.95312-0.5-0.95312-1.0781v-3.625l-1.6094 0.125v0.34375c0.85938 0 0.85938 0.03125 0.85938 1v1.6406c0 0.84375 0 1.8438 1.6562 1.8438 0.60938 0 1.0938-0.3125 1.4062-0.98438z"/>
</g>
<g id="b">
<path d="m1.2031-0.82812c0 0.48438-0.125 0.48438-0.85938 0.48438v0.34375c0.39062-0.015625 0.9375-0.03125 1.2344-0.03125 0.28125 0 0.85938 0.015625 1.2188 0.03125v-0.34375c-0.71875 0-0.84375 0-0.84375-0.48438v-2c0-1.1406 0.76562-1.75 1.4688-1.75 0.6875 0 0.8125 0.59375 0.8125 1.2031v2.5469c0 0.48438-0.125 0.48438-0.85938 0.48438v0.34375c0.39062-0.015625 0.9375-0.03125 1.2344-0.03125 0.28125 0 0.85938 0.015625 1.2188 0.03125v-0.34375c-0.5625 0-0.82812 0-0.84375-0.32812v-2.0781c0-0.9375 0-1.2812-0.34375-1.6719-0.14062-0.1875-0.5-0.40625-1.1406-0.40625-0.92188 0-1.3906 0.65625-1.5781 1.0781v-3.8125l-1.5781 0.10938v0.34375c0.76562 0 0.85938 0.078125 0.85938 0.60938z"/>
</g>
<g id="i">
<path d="m1.8281-3.625v-1.2031l-1.5156 0.125v0.34375c0.75 0 0.84375 0.078125 0.84375 0.60938v2.9219c0 0.48438-0.125 0.48438-0.84375 0.48438v0.34375c0.42188-0.015625 0.9375-0.03125 1.2344-0.03125 0.4375 0 0.95312 0 1.3906 0.03125v-0.34375h-0.23438c-0.8125 0-0.82812-0.10938-0.82812-0.5v-1.6875c0-1.0781 0.45312-2.0469 1.2812-2.0469 0.078125 0 0.10938 0 0.125 0.015625-0.03125 0-0.25 0.14062-0.25 0.42188 0 0.29688 0.23438 0.46875 0.46875 0.46875 0.20312 0 0.46875-0.14062 0.46875-0.48438s-0.34375-0.67188-0.8125-0.67188c-0.79688 0-1.1875 0.73438-1.3281 1.2031z"/>
</g>
<g id="a">
<path d="m1.2188-2.75c0.0625-1.625 0.98438-1.8906 1.3594-1.8906 1.125 0 1.2344 1.4688 1.2344 1.8906zm-0.015625 0.23438h3.0469c0.25 0 0.28125 0 0.28125-0.23438 0-1.0781-0.59375-2.1406-1.9531-2.1406-1.2656 0-2.2656 1.125-2.2656 2.4844 0 1.4688 1.1406 2.5312 2.3906 2.5312 1.3281 0 1.8281-1.2188 1.8281-1.4219 0-0.10938-0.09375-0.125-0.14062-0.125-0.10938 0-0.125 0.0625-0.14062 0.14062-0.39062 1.125-1.375 1.125-1.4844 1.125-0.54688 0-0.98438-0.32812-1.2344-0.73438-0.32812-0.51562-0.32812-1.2344-0.32812-1.625z"/>
</g>
<g id="h">
<path d="m4.1406-0.59375v0.71875l1.6094-0.125v-0.34375c-0.76562 0-0.85938-0.078125-0.85938-0.60938v-6.6094l-1.5625 0.10938v0.34375c0.76562 0 0.84375 0.078125 0.84375 0.60938v2.3594c-0.3125-0.39062-0.78125-0.6875-1.375-0.6875-1.2812 0-2.4219 1.0781-2.4219 2.4844 0 1.3906 1.0625 2.4688 2.3125 2.4688 0.6875 0 1.1875-0.375 1.4531-0.71875zm0-2.9219v2.2344c0 0.1875 0 0.21875-0.10938 0.39062-0.32812 0.53125-0.82812 0.76562-1.2969 0.76562-0.48438 0-0.875-0.28125-1.1406-0.6875-0.28125-0.45312-0.3125-1.0781-0.3125-1.5156 0-0.40625 0.015625-1.0625 0.32812-1.5469 0.23438-0.34375 0.64062-0.70312 1.2344-0.70312 0.39062 0 0.84375 0.15625 1.1875 0.65625 0.10938 0.1875 0.10938 0.20312 0.10938 0.40625z"/>
</g>
<g id="c">
<path d="m1.2031-3.75v2.9219c0 0.48438-0.125 0.48438-0.85938 0.48438v0.34375c0.39062-0.015625 0.9375-0.03125 1.2344-0.03125 0.28125 0 0.85938 0.015625 1.2188 0.03125v-0.34375c-0.71875 0-0.84375 0-0.84375-0.48438v-2c0-1.1406 0.76562-1.75 1.4688-1.75 0.6875 0 0.8125 0.59375 0.8125 1.2031v2.5469c0 0.48438-0.125 0.48438-0.85938 0.48438v0.34375c0.39062-0.015625 0.9375-0.03125 1.2344-0.03125 0.28125 0 0.85938 0.015625 1.2188 0.03125v-0.34375c-0.5625 0-0.82812 0-0.84375-0.32812v-2.0781c0-0.9375 0-1.2812-0.34375-1.6719-0.14062-0.1875-0.5-0.40625-1.1406-0.40625-0.79688 0-1.3125 0.46875-1.6094 1.1562v-1.1562l-1.5469 0.125v0.34375c0.76562 0 0.85938 0.078125 0.85938 0.60938z"/>
</g>
<g id="q">
<path d="m3.8125-4.2344-1.4062-0.32812c-0.67188-0.17188-1.0938-0.76562-1.0938-1.3906 0-0.76562 0.57812-1.4375 1.4375-1.4375 1.8125 0 2.0625 1.7969 2.125 2.2812 0.015625 0.078125 0.015625 0.14062 0.125 0.14062 0.14062 0 0.14062-0.0625 0.14062-0.26562v-2.1875c0-0.1875 0-0.26562-0.10938-0.26562-0.078125 0-0.09375 0.015625-0.17188 0.14062l-0.375 0.625c-0.32812-0.3125-0.78125-0.76562-1.75-0.76562-1.2031 0-2.125 0.95312-2.125 2.1094 0 0.90625 0.57812 1.7031 1.4375 2 0.10938 0.046875 0.67188 0.17188 1.4375 0.35938 0.29688 0.078125 0.60938 0.15625 0.92188 0.5625 0.23438 0.28125 0.34375 0.64062 0.34375 1 0 0.76562-0.54688 1.5625-1.4688 1.5625-0.3125 0-1.1406-0.0625-1.7188-0.59375-0.64062-0.59375-0.67188-1.2812-0.67188-1.6719-0.015625-0.10938-0.10938-0.10938-0.14062-0.10938-0.14062 0-0.14062 0.0625-0.14062 0.26562v2.1875c0 0.17188 0 0.25 0.125 0.25 0.078125 0 0.078125-0.015625 0.15625-0.14062 0 0 0.03125-0.046875 0.39062-0.625 0.34375 0.375 1.0469 0.76562 2.0156 0.76562 1.2656 0 2.1406-1.0625 2.1406-2.2656 0-1.0938-0.71875-1.9844-1.625-2.2031z"/>
</g>
<g id="l">
<path d="m1.8906-4.3594h1.5625v-0.34375h-1.5625v-2h-0.28125c0 0.89062-0.32812 2.0625-1.4062 2.0938v0.25h0.9375v3c0 1.3438 1.0156 1.4844 1.4062 1.4844 0.76562 0 1.0781-0.78125 1.0781-1.4844v-0.60938h-0.28125v0.59375c0 0.8125-0.32812 1.2188-0.71875 1.2188-0.73438 0-0.73438-0.98438-0.73438-1.1719z"/>
</g>
<g id="f">
<path d="m3.625-0.82812c0.046875 0.4375 0.34375 0.89062 0.85938 0.89062 0.23438 0 0.89062-0.15625 0.89062-1.0312v-0.60938h-0.26562v0.60938c0 0.625-0.28125 0.70312-0.39062 0.70312-0.35938 0-0.40625-0.5-0.40625-0.54688v-2.1875c0-0.45312 0-0.875-0.39062-1.2812-0.4375-0.4375-0.98438-0.60938-1.5-0.60938-0.89062 0-1.6406 0.51562-1.6406 1.2344 0 0.32812 0.21875 0.51562 0.5 0.51562 0.29688 0 0.5-0.21875 0.5-0.5 0-0.14062-0.0625-0.5-0.5625-0.5 0.29688-0.39062 0.82812-0.5 1.1875-0.5 0.53125 0 1.1562 0.42188 1.1562 1.3906v0.40625c-0.5625 0.03125-1.3281 0.0625-2.0156 0.39062-0.8125 0.375-1.0938 0.9375-1.0938 1.4219 0 0.875 1.0625 1.1562 1.75 1.1562 0.71875 0 1.2188-0.4375 1.4219-0.95312zm-0.0625-1.7969v1.0938c0 1.0469-0.79688 1.4062-1.2812 1.4062-0.53125 0-0.98438-0.375-0.98438-0.92188 0-0.59375 0.45312-1.5 2.2656-1.5781z"/>
</g>
<g id="u">
<path d="m1.4844-0.84375c0 0.39062-0.015625 0.5-0.85938 0.5h-0.26562v0.34375h6.2969l0.45312-2.8125h-0.26562c-0.28125 1.6719-0.53125 2.4688-2.4062 2.4688h-1.4531c-0.51562 0-0.53125-0.078125-0.53125-0.4375v-2.9062h0.98438c1.0625 0 1.1719 0.34375 1.1719 1.2812h0.28125v-2.8906h-0.28125c0 0.9375-0.10938 1.2656-1.1719 1.2656h-0.98438v-2.6094c0-0.35938 0.015625-0.4375 0.53125-0.4375h1.4062c1.6719 0 1.9688 0.59375 2.1406 2.1094h0.28125l-0.3125-2.4531h-6.1406v0.34375h0.26562c0.84375 0 0.85938 0.125 0.85938 0.51562z"/>
</g>
<g id="p">
<path d="m2.4219-3.9844v-2.6875c0-0.35938 0.015625-0.4375 0.53125-0.4375h1.3594c1.0469 0 1.4375 0.92188 1.4375 1.5 0 0.70312-0.53125 1.625-1.75 1.625zm2.5781 0.09375c1.0469-0.20312 1.8125-0.90625 1.8125-1.7188 0-0.9375-1.0156-1.8438-2.4219-1.8438h-4v0.34375h0.26562c0.84375 0 0.85938 0.125 0.85938 0.51562v5.75c0 0.39062-0.015625 0.5-0.85938 0.5h-0.26562v0.34375h4.2812c1.4531 0 2.4219-0.96875 2.4219-2 0-0.9375-0.89062-1.7656-2.0938-1.8906zm-0.6875 3.5469h-1.3594c-0.51562 0-0.53125-0.078125-0.53125-0.4375v-2.9688h2.0469c1.0781 0 1.5469 1.0156 1.5469 1.75 0 0.76562-0.57812 1.6562-1.7031 1.6562z"/>
</g>
<g id="k">
<path d="m1.9062-4.7031v-1.2656c0-0.95312 0.53125-1.4844 1-1.4844 0.03125 0 0.20312 0 0.35938 0.078125-0.125 0.046875-0.32812 0.1875-0.32812 0.45312s0.1875 0.46875 0.46875 0.46875c0.32812 0 0.48438-0.20312 0.48438-0.46875 0-0.40625-0.40625-0.76562-0.98438-0.76562-0.75 0-1.6875 0.57812-1.6875 1.7344v1.25h-0.85938v0.34375h0.85938v3.5312c0 0.48438-0.125 0.48438-0.84375 0.48438v0.34375c0.42188-0.015625 0.9375-0.03125 1.2344-0.03125 0.4375 0 0.95312 0 1.3906 0.03125v-0.34375h-0.23438c-0.79688 0-0.82812-0.10938-0.82812-0.5v-3.5156h1.25v-0.34375z"/>
</g>
<g id="g">
<path d="m1.9375-7.5625-1.5781 0.10938v0.34375c0.76562 0 0.84375 0.078125 0.84375 0.60938v5.6719c0 0.48438-0.10938 0.48438-0.84375 0.48438v0.34375c0.35938-0.015625 0.9375-0.03125 1.2188-0.03125 0.26562 0 0.79688 0.015625 1.2031 0.03125v-0.34375c-0.73438 0-0.84375 0-0.84375-0.48438z"/>
</g>
<g id="d">
<path d="m2.2656-2.1094c0.25 0.03125 1.1406 0.21875 1.1406 1 0 0.54688-0.39062 0.98438-1.2344 0.98438-0.92188 0-1.3125-0.60938-1.5156-1.5469-0.03125-0.14062-0.046875-0.1875-0.15625-0.1875-0.14062 0-0.14062 0.078125-0.14062 0.28125v1.4375c0 0.1875 0 0.26562 0.125 0.26562 0.046875 0 0.0625-0.015625 0.26562-0.21875 0.03125-0.03125 0.03125-0.046875 0.21875-0.25 0.48438 0.45312 0.96875 0.46875 1.2031 0.46875 1.25 0 1.75-0.73438 1.75-1.5156 0-0.57812-0.32812-0.90625-0.45312-1.0469-0.35938-0.34375-0.78125-0.4375-1.25-0.51562-0.60938-0.125-1.3281-0.26562-1.3281-0.89062 0-0.39062 0.28125-0.82812 1.2188-0.82812 1.1875 0 1.25 0.96875 1.2656 1.3125 0.015625 0.09375 0.10938 0.09375 0.14062 0.09375 0.14062 0 0.14062-0.046875 0.14062-0.25v-1.1094c0-0.1875 0-0.26562-0.125-0.26562-0.046875 0-0.078125 0-0.21875 0.14062-0.03125 0.03125-0.14062 0.14062-0.1875 0.17188-0.40625-0.3125-0.85938-0.3125-1.0156-0.3125-1.3281 0-1.75 0.73438-1.75 1.3438 0 0.39062 0.17188 0.6875 0.46875 0.92188 0.34375 0.29688 0.65625 0.35938 1.4375 0.51562z"/>
</g>
<g id="o">
<path d="m6.6875-6.5938c0-0.39062 0.015625-0.51562 0.85938-0.51562h0.26562v-0.34375c-0.39062 0.03125-1.1875 0.03125-1.6094 0.03125-0.40625 0-1.2344 0-1.6094-0.03125v0.34375h0.26562c0.82812 0 0.85938 0.125 0.85938 0.51562v2.5469h-3.2656v-2.5469c0-0.39062 0.015625-0.51562 0.85938-0.51562h0.26562v-0.34375c-0.375 0.03125-1.1875 0.03125-1.6094 0.03125-0.40625 0-1.2344 0-1.6094-0.03125v0.34375h0.26562c0.84375 0 0.85938 0.125 0.85938 0.51562v5.75c0 0.39062-0.015625 0.5-0.85938 0.5h-0.26562v0.34375c0.375-0.03125 1.1875-0.03125 1.6094-0.03125 0.40625 0 1.2344 0 1.6094 0.03125v-0.34375h-0.26562c-0.84375 0-0.85938-0.10938-0.85938-0.5v-2.8594h3.2656v2.8594c0 0.39062-0.03125 0.5-0.85938 0.5h-0.26562v0.34375c0.375-0.03125 1.1875-0.03125 1.5938-0.03125 0.42188 0 1.2344 0 1.625 0.03125v-0.34375h-0.26562c-0.84375 0-0.85938-0.10938-0.85938-0.5z"/>
</g>
<g id="n">
<path d="m5.1406-2.3281c0-1.4062-1.0938-2.5625-2.4219-2.5625-1.3594 0-2.4062 1.1875-2.4062 2.5625 0 1.4062 1.125 2.4531 2.4062 2.4531 1.3125 0 2.4219-1.0781 2.4219-2.4531zm-2.4219 2.1719c-0.46875 0-0.9375-0.21875-1.2344-0.73438-0.28125-0.46875-0.28125-1.1406-0.28125-1.5312 0-0.42188 0-1.0156 0.26562-1.5 0.29688-0.5 0.8125-0.71875 1.25-0.71875 0.48438 0 0.95312 0.23438 1.2344 0.70312s0.28125 1.1094 0.28125 1.5156c0 0.39062 0 0.98438-0.25 1.4688-0.23438 0.48438-0.71875 0.79688-1.2656 0.79688z"/>
</g>
<g id="m">
<path d="m1.875-4.0938v-0.73438l-1.5625 0.125v0.34375c0.76562 0 0.84375 0.0625 0.84375 0.54688v5.0938c0 0.5-0.125 0.5-0.84375 0.5v0.32812c0.35938 0 0.9375-0.03125 1.2188-0.03125 0.29688 0 0.84375 0.03125 1.2344 0.03125v-0.32812c-0.73438 0-0.85938 0-0.85938-0.5v-1.9219c0.0625 0.17188 0.51562 0.76562 1.3438 0.76562 1.2969 0 2.4375-1.0781 2.4375-2.4844 0-1.375-1.0625-2.4688-2.2812-2.4688-0.85938 0-1.3125 0.48438-1.5312 0.73438zm0.03125 2.8438v-2.4219c0.3125-0.5625 0.85938-0.875 1.4062-0.875 0.79688 0 1.4688 0.95312 1.4688 2.1875 0 1.3281-0.76562 2.2344-1.5781 2.2344-0.4375 0-0.84375-0.21875-1.1406-0.65625-0.15625-0.23438-0.15625-0.25-0.15625-0.46875z"/>
</g>
<g id="t">
<path d="m4.3438-7.5938c-0.0625-0.14062-0.078125-0.21875-0.25-0.21875s-0.21875 0.0625-0.26562 0.21875l-2.25 6.5312c-0.20312 0.54688-0.64062 0.71875-1.2344 0.71875v0.34375c0.25-0.015625 0.71875-0.03125 1.125-0.03125 0.32812 0 0.89062 0.015625 1.25 0.03125v-0.34375c-0.54688 0-0.82812-0.26562-0.82812-0.54688 0-0.03125 0.015625-0.14062 0.03125-0.17188l0.5-1.4219h2.6875l0.57812 1.6719c0.015625 0.03125 0.03125 0.10938 0.03125 0.14062 0 0.32812-0.60938 0.32812-0.89062 0.32812v0.34375c0.39062-0.03125 1.1562-0.03125 1.5625-0.03125 0.46875 0 0.96875 0.015625 1.4219 0.03125v-0.34375h-0.1875c-0.65625 0-0.8125-0.078125-0.92188-0.4375zm-0.57812 1.2188 1.2344 3.5469h-2.4531z"/>
</g>
<g id="s">
<path d="m2.4219-1.875c-0.95312 0-0.95312-1.0938-0.95312-1.3438 0-0.29688 0.015625-0.64062 0.17188-0.92188 0.09375-0.125 0.34375-0.42188 0.78125-0.42188 0.95312 0 0.95312 1.0781 0.95312 1.3281 0 0.29688-0.015625 0.65625-0.17188 0.92188-0.09375 0.125-0.34375 0.4375-0.78125 0.4375zm-1.2656 0.42188c0-0.046875 0-0.29688 0.1875-0.51562 0.42188 0.3125 0.875 0.34375 1.0781 0.34375 1.0156 0 1.7656-0.75 1.7656-1.5938 0-0.40625-0.17188-0.8125-0.45312-1.0625 0.40625-0.35938 0.79688-0.42188 0.98438-0.42188 0.03125 0 0.078125 0 0.10938 0.015625-0.10938 0.046875-0.17188 0.15625-0.17188 0.29688 0 0.1875 0.14062 0.3125 0.3125 0.3125 0.10938 0 0.32812-0.078125 0.32812-0.32812 0-0.1875-0.14062-0.53125-0.5625-0.53125-0.21875 0-0.70312 0.0625-1.1562 0.51562-0.45312-0.35938-0.92188-0.40625-1.1562-0.40625-1.0156 0-1.7656 0.76562-1.7656 1.5938 0 0.48438 0.23438 0.90625 0.51562 1.125-0.14062 0.17188-0.34375 0.53125-0.34375 0.90625 0 0.34375 0.14062 0.75 0.48438 0.96875-0.65625 0.1875-1 0.65625-1 1.0938 0 0.78125 1.0781 1.3906 2.4062 1.3906 1.2812 0 2.4219-0.5625 2.4219-1.4062 0-0.39062-0.15625-0.9375-0.71875-1.25-0.57812-0.29688-1.2031-0.29688-1.875-0.29688-0.26562 0-0.73438 0-0.8125-0.015625-0.34375-0.046875-0.57812-0.375-0.57812-0.73438zm1.5625 3.4531c-1.0938 0-1.8438-0.5625-1.8438-1.1406 0-0.5 0.40625-0.90625 0.89062-0.9375h0.64062c0.9375 0 2.1562 0 2.1562 0.9375 0 0.59375-0.76562 1.1406-1.8438 1.1406z"/>
</g>
<g id="r">
<path d="m1.2812-2.375c0-1.7812 0.89062-2.2344 1.4688-2.2344 0.09375 0 0.78125 0 1.1719 0.40625-0.45312 0.03125-0.51562 0.35938-0.51562 0.5 0 0.28125 0.1875 0.5 0.5 0.5 0.28125 0 0.5-0.1875 0.5-0.51562 0-0.73438-0.82812-1.1719-1.6719-1.1719-1.3594 0-2.3594 1.1875-2.3594 2.5312 0 1.4062 1.0781 2.4844 2.3438 2.4844 1.4531 0 1.8125-1.3125 1.8125-1.4219s-0.10938-0.10938-0.14062-0.10938c-0.10938 0-0.125 0.046875-0.14062 0.10938-0.32812 1.0156-1.0312 1.1406-1.4375 1.1406-0.57812 0-1.5312-0.46875-1.5312-2.2188z"/>
</g>
<clipPath id="ae">
<path d="m71 0h188v56h-188z"/>
</clipPath>
<clipPath id="ad">
<path d="m0.52734 80.723h391v-81h-391zm68.543-30.941v6.2383h4.1562v-6.2383l-2.0781 5.1992z" clip-rule="evenodd"/>
</clipPath>
<clipPath id="ac">
<path d="m47 55h40v1h-40z"/>
</clipPath>
<clipPath id="ab">
<path d="m0.52734 80.723h391v-81h-391zm80.672-23.316h6.2344v-4.1562h-6.2344l5.1953 2.0781z" clip-rule="evenodd"/>
</clipPath>
<clipPath id="aa">
<path d="m180 55h40v1h-40z"/>
</clipPath>
<clipPath id="z">
<path d="m0.52734 80.723h391v-81h-391zm213.21-23.316h6.2383v-4.1562h-6.2383l5.1992 2.0781z" clip-rule="evenodd"/>
</clipPath>
<clipPath id="y">
<path d="m297 55h48v1h-48z"/>
</clipPath>
<clipPath id="x">
<path d="m0.52734 80.723h391v-81h-391zm337.95-23.316h6.2383v-4.1562h-6.2383l5.1992 2.0781z" clip-rule="evenodd"/>
</clipPath>
<clipPath id="w">
<path d="m0.52734 36h51.473v31h-51.473z"/>
</clipPath>
</defs>
<path transform="matrix(.1 0 0 -.1 .528 80.721)" d="m3471.3 409.87c-20.078 0-36.367-16.289-36.367-36.367v-161.13c0-20.117 16.289-36.406 36.367-36.406h395c20.078 0 36.406 16.328 36.406 36.406v161.13c0 20.078-16.328 36.367-36.406 36.367z" fill="none" stroke="#000" stroke-miterlimit="10" stroke-width="2.5988"/>
<path transform="matrix(.1 0 0 -.1 .528 80.721)" d="m2187.5 175.96h779.65v389.84h-779.65z" fill="none" stroke="#000" stroke-miterlimit="10" stroke-width="10.395"/>
<g clip-path="url(#ae)">
<g clip-path="url(#ad)">
<path transform="matrix(.1 0 0 -.1 .528 80.721)" d="m2577.3 565.8v233.87h-1871.1v-545.74" fill="none" stroke="#000" stroke-miterlimit="10" stroke-width="2.5988"/>
</g>
</g>
<path d="m69.07 49.781 2.0781 5.1992 2.0781-5.1992-2.0781 1.043-2.0781-1.043" fill-rule="evenodd"/>
<path transform="matrix(.1 0 0 -.1 .528 80.721)" d="m685.42 309.4 20.781-51.992 20.781 51.992-20.781-10.43z" fill="none" stroke="#000" stroke-miterlimit="10" stroke-width="2.5988"/>
<g clip-path="url(#ac)">
<g clip-path="url(#ab)">
<path transform="matrix(.1 0 0 -.1 .528 80.721)" d="m472.34 253.93h389.8" fill="none" stroke="#000" stroke-miterlimit="10" stroke-width="2.5988"/>
</g>
</g>
<path d="m81.199 57.406 5.1953-2.0781-5.1953-2.0781 1.0391 2.0781-1.0391 2.0781" fill-rule="evenodd"/>
<path transform="matrix(.1 0 0 -.1 .528 80.721)" d="m806.71 233.15 51.953 20.781-51.953 20.781 10.391-20.781z" fill="none" stroke="#000" stroke-miterlimit="10" stroke-width="2.5988"/>
<g clip-path="url(#aa)">
<g clip-path="url(#z)">
<path transform="matrix(.1 0 0 -.1 .528 80.721)" d="m1797.7 253.93h389.8" fill="none" stroke="#000" stroke-miterlimit="10" stroke-width="2.5988"/>
</g>
</g>
<path d="m213.73 57.406 5.1992-2.0781-5.1992-2.0781 1.0391 2.0781-1.0391 2.0781" fill-rule="evenodd"/>
<path transform="matrix(.1 0 0 -.1 .528 80.721)" d="m2132.1 233.15 51.992 20.781-51.992 20.781 10.391-20.781z" fill="none" stroke="#000" stroke-miterlimit="10" stroke-width="2.5988"/>
<g clip-path="url(#y)">
<g clip-path="url(#x)">
<path transform="matrix(.1 0 0 -.1 .528 80.721)" d="m2967.1 253.93h467.77" fill="none" stroke="#000" stroke-miterlimit="10" stroke-width="2.5988"/>
</g>
</g>
<path d="m338.47 57.406 5.1992-2.0781-5.1992-2.0781 1.043 2.0781-1.043 2.0781" fill-rule="evenodd"/>
<path transform="matrix(.1 0 0 -.1 .528 80.721)" d="m3379.4 233.15 51.992 20.781-51.992 20.781 10.43-20.781z" fill="none" stroke="#000" stroke-miterlimit="10" stroke-width="2.5988"/>
<path transform="matrix(.1 0 0 -.1 .528 80.721)" d="m862.14 175.96h935.55v389.84h-935.55z" fill="none" stroke="#000" stroke-miterlimit="10" stroke-width="10.395"/>
<g clip-path="url(#w)">
<path transform="matrix(.1 0 0 -.1 .528 80.721)" d="m40.931 409.87c-20.078 0-36.367-16.289-36.367-36.367v-161.13c0-20.078 16.289-36.406 36.367-36.406h395c20.117 0 36.406 16.328 36.406 36.406v161.13c0 20.078-16.289 36.367-36.406 36.367z" fill="none" stroke="#000" stroke-miterlimit="10" stroke-width="2.5988"/>
</g>
<g>
<use x="233.697" y="38.108" xlink:href="#v"/>
<use x="241.122" y="38.583" xlink:href="#j"/>
<use x="240.819" y="38.108" xlink:href="#e"/>
<use x="246.880096" y="38.108" xlink:href="#b"/>
<use x="252.941192" y="38.108" xlink:href="#i"/>
<use x="257.214286" y="38.108" xlink:href="#a"/>
<use x="265.695021" y="38.108" xlink:href="#h"/>
<use x="271.756117" y="38.108" xlink:href="#a"/>
<use x="276.604121" y="38.108" xlink:href="#c"/>
<use x="10.634" y="55.257" xlink:href="#q"/>
<use x="16.695096" y="55.257" xlink:href="#l"/>
<use x="20.937645" y="55.257" xlink:href="#f"/>
<use x="26.392195" y="55.257" xlink:href="#i"/>
<use x="30.665289" y="55.257" xlink:href="#l"/>
<use x="353.562649" y="55.257" xlink:href="#u"/>
<use x="360.987383" y="55.257" xlink:href="#c"/>
<use x="367.03757" y="55.257" xlink:href="#h"/>
<use x="373.098666" y="55.257" xlink:href="#a"/>
<use x="233.531" y="52.659" xlink:href="#p"/>
<use x="241.257916" y="52.659" xlink:href="#a"/>
<use x="246.10592" y="52.659" xlink:href="#k"/>
<use x="249.439741" y="52.659" xlink:href="#a"/>
<use x="254.287745" y="52.659" xlink:href="#b"/>
<use x="260.348841" y="52.659" xlink:href="#g"/>
<use x="267.012119" y="52.659" xlink:href="#f"/>
<use x="272.466669" y="52.659" xlink:href="#e"/>
<use x="278.527765" y="52.659" xlink:href="#d"/>
<use x="111.764" y="77.084" xlink:href="#o"/>
<use x="119.945825" y="77.084" xlink:href="#n"/>
<use x="125.400375" y="77.084" xlink:href="#g"/>
<use x="128.430923" y="77.084" xlink:href="#m"/>
<use x="134.492019" y="77.084" xlink:href="#b"/>
<use x="140.553115" y="77.084" xlink:href="#f"/>
<use x="146.007665" y="77.084" xlink:href="#d"/>
<use x="150.310214" y="77.084" xlink:href="#a"/>
<use x="214.743722" y="77.084" xlink:href="#t"/>
<use x="222.925547" y="77.084" xlink:href="#e"/>
<use x="228.986643" y="77.084" xlink:href="#d"/>
<use x="233.289192" y="77.084" xlink:href="#k"/>
<use x="236.925" y="77.559" xlink:href="#j"/>
<use x="236.622" y="77.084" xlink:href="#e"/>
<use x="242.683096" y="77.084" xlink:href="#b"/>
<use x="248.744192" y="77.084" xlink:href="#i"/>
<use x="253.017286" y="77.084" xlink:href="#e"/>
<use x="259.078382" y="77.084" xlink:href="#c"/>
<use x="265.139478" y="77.084" xlink:href="#s"/>
<use x="270.594028" y="77.084" xlink:href="#d"/>
<use x="274.896577" y="77.084" xlink:href="#m"/>
<use x="280.957673" y="77.084" xlink:href="#b"/>
<use x="287.018769" y="77.084" xlink:href="#f"/>
<use x="292.473319" y="77.084" xlink:href="#d"/>
<use x="296.775868" y="77.084" xlink:href="#a"/>
<use x="95.93" y="52.659" xlink:href="#c"/>
<use x="101.991" y="53.134" xlink:href="#j"/>
<use x="101.991" y="52.659" xlink:href="#f"/>
<use x="107.44555" y="52.659" xlink:href="#r"/>
<use x="111.988099" y="52.659" xlink:href="#b"/>
<use x="118.049195" y="52.659" xlink:href="#d"/>
<use x="122.351744" y="52.659" xlink:href="#l"/>
<use x="126.594293" y="52.659" xlink:href="#a"/>
<use x="131.442297" y="52.659" xlink:href="#c"/>
<use x="141.147033" y="52.659" xlink:href="#p"/>
<use x="148.873948" y="52.659" xlink:href="#a"/>
<use x="153.721952" y="52.659" xlink:href="#k"/>
<use x="157.055773" y="52.659" xlink:href="#a"/>
<use x="161.903777" y="52.659" xlink:href="#b"/>
<use x="167.964873" y="52.659" xlink:href="#g"/>
<use x="112.4" y="38.108" xlink:href="#o"/>
<use x="120.581825" y="38.108" xlink:href="#n"/>
<use x="126.036375" y="38.108" xlink:href="#g"/>
<use x="129.066923" y="38.108" xlink:href="#a"/>
<use x="137.547657" y="38.108" xlink:href="#h"/>
<use x="143.608753" y="38.108" xlink:href="#a"/>
<use x="148.456757" y="38.108" xlink:href="#c"/>
</g>
</svg>
