<svg width="485pt" height="205pt" version="1.1" viewBox="0 0 485 205" xmlns="http://www.w3.org/2000/svg" xmlns:xlink="http://www.w3.org/1999/xlink">
<defs>
<g id="ac">
<path d="m4.5312-3.625c0.10938-0.25 0.29688-0.73438 1.0156-0.73438v-0.34375c-0.25 0.03125-0.57812 0.03125-0.82812 0.03125-0.26562 0-0.76562-0.015625-0.9375-0.03125v0.34375c0.39062 0 0.51562 0.26562 0.51562 0.46875 0 0.09375-0.015625 0.14062-0.0625 0.26562l-1.1094 2.7812-1.2344-3.0469c-0.0625-0.14062-0.0625-0.17188-0.0625-0.1875 0-0.28125 0.42188-0.28125 0.625-0.28125v-0.34375c-0.32812 0.015625-0.9375 0.03125-1.1875 0.03125-0.29688 0-0.73438 0-1.0625-0.03125v0.34375c0.6875 0 0.73438 0.0625 0.875 0.40625l1.5781 3.8594c0.0625 0.15625 0.078125 0.21875 0.21875 0.21875s0.1875-0.10938 0.23438-0.21875z"/>
</g>
<g id="q">
<path d="m5.1406-2.3281c0-1.4062-1.0938-2.5625-2.4219-2.5625-1.3594 0-2.4062 1.1875-2.4062 2.5625 0 1.4062 1.125 2.4531 2.4062 2.4531 1.3125 0 2.4219-1.0781 2.4219-2.4531zm-2.4219 2.1719c-0.46875 0-0.9375-0.21875-1.2344-0.73438-0.28125-0.46875-0.28125-1.1406-0.28125-1.5312 0-0.42188 0-1.0156 0.26562-1.5 0.29688-0.5 0.8125-0.71875 1.25-0.71875 0.48438 0 0.95312 0.23438 1.2344 0.70312s0.28125 1.1094 0.28125 1.5156c0 0.39062 0 0.98438-0.25 1.4688-0.23438 0.48438-0.71875 0.79688-1.2656 0.79688z"/>
</g>
<g id="d">
<path d="m1.8281-3.625v-1.2031l-1.5156 0.125v0.34375c0.75 0 0.84375 0.078125 0.84375 0.60938v2.9219c0 0.48438-0.125 0.48438-0.84375 0.48438v0.34375c0.42188-0.015625 0.9375-0.03125 1.2344-0.03125 0.4375 0 0.95312 0 1.3906 0.03125v-0.34375h-0.23438c-0.8125 0-0.82812-0.10938-0.82812-0.5v-1.6875c0-1.0781 0.45312-2.0469 1.2812-2.0469 0.078125 0 0.10938 0 0.125 0.015625-0.03125 0-0.25 0.14062-0.25 0.42188 0 0.29688 0.23438 0.46875 0.46875 0.46875 0.20312 0 0.46875-0.14062 0.46875-0.48438s-0.34375-0.67188-0.8125-0.67188c-0.79688 0-1.1875 0.73438-1.3281 1.2031z"/>
</g>
<g id="v">
<path d="m2.5625-2.7188c0-1.375 1.0625-2.1406 1.4375-2.4219 0.29688-0.21875 0.53125-0.625 0.53125-1.0781 0-0.625-0.4375-1.4688-2.0625-1.4688-1.1875 0-1.8594 0.73438-1.8594 1.4531 0 0.35938 0.25 0.51562 0.5 0.51562 0.3125 0 0.5-0.21875 0.5-0.5 0-0.48438-0.45312-0.48438-0.60938-0.48438 0.34375-0.57812 0.96875-0.75 1.4375-0.75 1.1875 0 1.1875 0.75 1.1875 1.1719 0 0.64062-0.17188 0.84375-0.375 1.0312-0.71875 0.79688-0.95312 1.7969-0.95312 2.4531v0.5c0 0.1875 0 0.25 0.125 0.25 0.14062 0 0.14062-0.09375 0.14062-0.28125zm0.4375 2.1406c0-0.3125-0.26562-0.57812-0.57812-0.57812s-0.57812 0.26562-0.57812 0.57812 0.26562 0.57812 0.57812 0.57812 0.57812-0.26562 0.57812-0.57812z"/>
</g>
<g id="u">
<path d="m6.6875-6.5938c0-0.39062 0.015625-0.51562 0.85938-0.51562h0.26562v-0.34375c-0.39062 0.03125-1.1875 0.03125-1.6094 0.03125-0.40625 0-1.2344 0-1.6094-0.03125v0.34375h0.26562c0.82812 0 0.85938 0.125 0.85938 0.51562v2.5469h-3.2656v-2.5469c0-0.39062 0.015625-0.51562 0.85938-0.51562h0.26562v-0.34375c-0.375 0.03125-1.1875 0.03125-1.6094 0.03125-0.40625 0-1.2344 0-1.6094-0.03125v0.34375h0.26562c0.84375 0 0.85938 0.125 0.85938 0.51562v5.75c0 0.39062-0.015625 0.5-0.85938 0.5h-0.26562v0.34375c0.375-0.03125 1.1875-0.03125 1.6094-0.03125 0.40625 0 1.2344 0 1.6094 0.03125v-0.34375h-0.26562c-0.84375 0-0.85938-0.10938-0.85938-0.5v-2.8594h3.2656v2.8594c0 0.39062-0.03125 0.5-0.85938 0.5h-0.26562v0.34375c0.375-0.03125 1.1875-0.03125 1.5938-0.03125 0.42188 0 1.2344 0 1.625 0.03125v-0.34375h-0.26562c-0.84375 0-0.85938-0.10938-0.85938-0.5z"/>
</g>
<g id="i">
<path d="m1.9375-7.5625-1.5781 0.10938v0.34375c0.76562 0 0.84375 0.078125 0.84375 0.60938v5.6719c0 0.48438-0.10938 0.48438-0.84375 0.48438v0.34375c0.35938-0.015625 0.9375-0.03125 1.2188-0.03125 0.26562 0 0.79688 0.015625 1.2031 0.03125v-0.34375c-0.73438 0-0.84375 0-0.84375-0.48438z"/>
</g>
<g id="m">
<path d="m1.875-4.0938v-0.73438l-1.5625 0.125v0.34375c0.76562 0 0.84375 0.0625 0.84375 0.54688v5.0938c0 0.5-0.125 0.5-0.84375 0.5v0.32812c0.35938 0 0.9375-0.03125 1.2188-0.03125 0.29688 0 0.84375 0.03125 1.2344 0.03125v-0.32812c-0.73438 0-0.85938 0-0.85938-0.5v-1.9219c0.0625 0.17188 0.51562 0.76562 1.3438 0.76562 1.2969 0 2.4375-1.0781 2.4375-2.4844 0-1.375-1.0625-2.4688-2.2812-2.4688-0.85938 0-1.3125 0.48438-1.5312 0.73438zm0.03125 2.8438v-2.4219c0.3125-0.5625 0.85938-0.875 1.4062-0.875 0.79688 0 1.4688 0.95312 1.4688 2.1875 0 1.3281-0.76562 2.2344-1.5781 2.2344-0.4375 0-0.84375-0.21875-1.1406-0.65625-0.15625-0.23438-0.15625-0.25-0.15625-0.46875z"/>
</g>
<g id="c">
<path d="m1.2031-0.82812c0 0.48438-0.125 0.48438-0.85938 0.48438v0.34375c0.39062-0.015625 0.9375-0.03125 1.2344-0.03125 0.28125 0 0.85938 0.015625 1.2188 0.03125v-0.34375c-0.71875 0-0.84375 0-0.84375-0.48438v-2c0-1.1406 0.76562-1.75 1.4688-1.75 0.6875 0 0.8125 0.59375 0.8125 1.2031v2.5469c0 0.48438-0.125 0.48438-0.85938 0.48438v0.34375c0.39062-0.015625 0.9375-0.03125 1.2344-0.03125 0.28125 0 0.85938 0.015625 1.2188 0.03125v-0.34375c-0.5625 0-0.82812 0-0.84375-0.32812v-2.0781c0-0.9375 0-1.2812-0.34375-1.6719-0.14062-0.1875-0.5-0.40625-1.1406-0.40625-0.92188 0-1.3906 0.65625-1.5781 1.0781v-3.8125l-1.5781 0.10938v0.34375c0.76562 0 0.85938 0.078125 0.85938 0.60938z"/>
</g>
<g id="f">
<path d="m3.625-0.82812c0.046875 0.4375 0.34375 0.89062 0.85938 0.89062 0.23438 0 0.89062-0.15625 0.89062-1.0312v-0.60938h-0.26562v0.60938c0 0.625-0.28125 0.70312-0.39062 0.70312-0.35938 0-0.40625-0.5-0.40625-0.54688v-2.1875c0-0.45312 0-0.875-0.39062-1.2812-0.4375-0.4375-0.98438-0.60938-1.5-0.60938-0.89062 0-1.6406 0.51562-1.6406 1.2344 0 0.32812 0.21875 0.51562 0.5 0.51562 0.29688 0 0.5-0.21875 0.5-0.5 0-0.14062-0.0625-0.5-0.5625-0.5 0.29688-0.39062 0.82812-0.5 1.1875-0.5 0.53125 0 1.1562 0.42188 1.1562 1.3906v0.40625c-0.5625 0.03125-1.3281 0.0625-2.0156 0.39062-0.8125 0.375-1.0938 0.9375-1.0938 1.4219 0 0.875 1.0625 1.1562 1.75 1.1562 0.71875 0 1.2188-0.4375 1.4219-0.95312zm-0.0625-1.7969v1.0938c0 1.0469-0.79688 1.4062-1.2812 1.4062-0.53125 0-0.98438-0.375-0.98438-0.92188 0-0.59375 0.45312-1.5 2.2656-1.5781z"/>
</g>
<g id="g">
<path d="m2.2656-2.1094c0.25 0.03125 1.1406 0.21875 1.1406 1 0 0.54688-0.39062 0.98438-1.2344 0.98438-0.92188 0-1.3125-0.60938-1.5156-1.5469-0.03125-0.14062-0.046875-0.1875-0.15625-0.1875-0.14062 0-0.14062 0.078125-0.14062 0.28125v1.4375c0 0.1875 0 0.26562 0.125 0.26562 0.046875 0 0.0625-0.015625 0.26562-0.21875 0.03125-0.03125 0.03125-0.046875 0.21875-0.25 0.48438 0.45312 0.96875 0.46875 1.2031 0.46875 1.25 0 1.75-0.73438 1.75-1.5156 0-0.57812-0.32812-0.90625-0.45312-1.0469-0.35938-0.34375-0.78125-0.4375-1.25-0.51562-0.60938-0.125-1.3281-0.26562-1.3281-0.89062 0-0.39062 0.28125-0.82812 1.2188-0.82812 1.1875 0 1.25 0.96875 1.2656 1.3125 0.015625 0.09375 0.10938 0.09375 0.14062 0.09375 0.14062 0 0.14062-0.046875 0.14062-0.25v-1.1094c0-0.1875 0-0.26562-0.125-0.26562-0.046875 0-0.078125 0-0.21875 0.14062-0.03125 0.03125-0.14062 0.14062-0.1875 0.17188-0.40625-0.3125-0.85938-0.3125-1.0156-0.3125-1.3281 0-1.75 0.73438-1.75 1.3438 0 0.39062 0.17188 0.6875 0.46875 0.92188 0.34375 0.29688 0.65625 0.35938 1.4375 0.51562z"/>
</g>
<g id="a">
<path d="m1.2188-2.75c0.0625-1.625 0.98438-1.8906 1.3594-1.8906 1.125 0 1.2344 1.4688 1.2344 1.8906zm-0.015625 0.23438h3.0469c0.25 0 0.28125 0 0.28125-0.23438 0-1.0781-0.59375-2.1406-1.9531-2.1406-1.2656 0-2.2656 1.125-2.2656 2.4844 0 1.4688 1.1406 2.5312 2.3906 2.5312 1.3281 0 1.8281-1.2188 1.8281-1.4219 0-0.10938-0.09375-0.125-0.14062-0.125-0.10938 0-0.125 0.0625-0.14062 0.14062-0.39062 1.125-1.375 1.125-1.4844 1.125-0.54688 0-0.98438-0.32812-1.2344-0.73438-0.32812-0.51562-0.32812-1.2344-0.32812-1.625z"/>
</g>
<g id="t">
<path d="m2.4219-3.9844v-2.6875c0-0.35938 0.015625-0.4375 0.53125-0.4375h1.3594c1.0469 0 1.4375 0.92188 1.4375 1.5 0 0.70312-0.53125 1.625-1.75 1.625zm2.5781 0.09375c1.0469-0.20312 1.8125-0.90625 1.8125-1.7188 0-0.9375-1.0156-1.8438-2.4219-1.8438h-4v0.34375h0.26562c0.84375 0 0.85938 0.125 0.85938 0.51562v5.75c0 0.39062-0.015625 0.5-0.85938 0.5h-0.26562v0.34375h4.2812c1.4531 0 2.4219-0.96875 2.4219-2 0-0.9375-0.89062-1.7656-2.0938-1.8906zm-0.6875 3.5469h-1.3594c-0.51562 0-0.53125-0.078125-0.53125-0.4375v-2.9688h2.0469c1.0781 0 1.5469 1.0156 1.5469 1.75 0 0.76562-0.57812 1.6562-1.7031 1.6562z"/>
</g>
<g id="s">
<path d="m1.9062-4.7031v-1.2656c0-0.95312 0.53125-1.4844 1-1.4844 0.03125 0 0.20312 0 0.35938 0.078125-0.125 0.046875-0.32812 0.1875-0.32812 0.45312s0.1875 0.46875 0.46875 0.46875c0.32812 0 0.48438-0.20312 0.48438-0.46875 0-0.40625-0.40625-0.76562-0.98438-0.76562-0.75 0-1.6875 0.57812-1.6875 1.7344v1.25h-0.85938v0.34375h0.85938v3.5312c0 0.48438-0.125 0.48438-0.84375 0.48438v0.34375c0.42188-0.015625 0.9375-0.03125 1.2344-0.03125 0.4375 0 0.95312 0 1.3906 0.03125v-0.34375h-0.23438c-0.79688 0-0.82812-0.10938-0.82812-0.5v-3.5156h1.25v-0.34375z"/>
</g>
<g id="e">
<path d="m4.2656-0.85938v0.98438l1.5625-0.125v-0.34375c-0.75 0-0.84375-0.078125-0.84375-0.60938v-3.875l-1.6094 0.125v0.34375c0.76562 0 0.85938 0.078125 0.85938 0.60938v1.9375c0 0.95312-0.53125 1.6875-1.3281 1.6875-0.90625 0-0.95312-0.5-0.95312-1.0781v-3.625l-1.6094 0.125v0.34375c0.85938 0 0.85938 0.03125 0.85938 1v1.6406c0 0.84375 0 1.8438 1.6562 1.8438 0.60938 0 1.0938-0.3125 1.4062-0.98438z"/>
</g>
<g id="ab">
<path d="m6.3438-7.4219h-5.9844v0.34375h0.26562c0.84375 0 0.85938 0.125 0.85938 0.51562v5.7188c0 0.39062-0.015625 0.5-0.85938 0.5h-0.26562v0.34375c0.375-0.03125 1.2344-0.03125 1.6562-0.03125 0.45312 0 1.4375 0 1.8281 0.03125v-0.34375h-0.35938c-1.0312 0-1.0312-0.14062-1.0312-0.51562v-2.6875h0.9375c1.0469 0 1.1562 0.34375 1.1562 1.2812h0.28125v-2.8906h-0.28125c0 0.90625-0.10938 1.2812-1.1562 1.2812h-0.9375v-2.7656c0-0.35938 0.015625-0.4375 0.53125-0.4375h1.3125c1.6406 0 1.9062 0.60938 2.0781 2.1094h0.28125z"/>
</g>
<g id="r">
<path d="m2.2188-6.75c0-0.26562-0.21875-0.54688-0.54688-0.54688-0.3125 0-0.54688 0.23438-0.54688 0.54688 0 0.29688 0.23438 0.54688 0.54688 0.54688 0.32812 0 0.54688-0.28125 0.54688-0.54688zm2.0938 0c0-0.3125-0.23438-0.54688-0.53125-0.54688-0.32812 0-0.54688 0.28125-0.54688 0.54688s0.21875 0.54688 0.54688 0.54688c0.29688 0 0.53125-0.25 0.53125-0.54688z"/>
</g>
<g id="k">
<path d="m4.1406-0.59375v0.71875l1.6094-0.125v-0.34375c-0.76562 0-0.85938-0.078125-0.85938-0.60938v-6.6094l-1.5625 0.10938v0.34375c0.76562 0 0.84375 0.078125 0.84375 0.60938v2.3594c-0.3125-0.39062-0.78125-0.6875-1.375-0.6875-1.2812 0-2.4219 1.0781-2.4219 2.4844 0 1.3906 1.0625 2.4688 2.3125 2.4688 0.6875 0 1.1875-0.375 1.4531-0.71875zm0-2.9219v2.2344c0 0.1875 0 0.21875-0.10938 0.39062-0.32812 0.53125-0.82812 0.76562-1.2969 0.76562-0.48438 0-0.875-0.28125-1.1406-0.6875-0.28125-0.45312-0.3125-1.0781-0.3125-1.5156 0-0.40625 0.015625-1.0625 0.32812-1.5469 0.23438-0.34375 0.64062-0.70312 1.2344-0.70312 0.39062 0 0.84375 0.15625 1.1875 0.65625 0.10938 0.1875 0.10938 0.20312 0.10938 0.40625z"/>
</g>
<g id="b">
<path d="m1.2031-3.75v2.9219c0 0.48438-0.125 0.48438-0.85938 0.48438v0.34375c0.39062-0.015625 0.9375-0.03125 1.2344-0.03125 0.28125 0 0.85938 0.015625 1.2188 0.03125v-0.34375c-0.71875 0-0.84375 0-0.84375-0.48438v-2c0-1.1406 0.76562-1.75 1.4688-1.75 0.6875 0 0.8125 0.59375 0.8125 1.2031v2.5469c0 0.48438-0.125 0.48438-0.85938 0.48438v0.34375c0.39062-0.015625 0.9375-0.03125 1.2344-0.03125 0.28125 0 0.85938 0.015625 1.2188 0.03125v-0.34375c-0.5625 0-0.82812 0-0.84375-0.32812v-2.0781c0-0.9375 0-1.2812-0.34375-1.6719-0.14062-0.1875-0.5-0.40625-1.1406-0.40625-0.79688 0-1.3125 0.46875-1.6094 1.1562v-1.1562l-1.5469 0.125v0.34375c0.76562 0 0.85938 0.078125 0.85938 0.60938z"/>
</g>
<g id="aa">
<path d="m4.3438-7.5938c-0.0625-0.14062-0.078125-0.21875-0.25-0.21875s-0.21875 0.0625-0.26562 0.21875l-2.25 6.5312c-0.20312 0.54688-0.64062 0.71875-1.2344 0.71875v0.34375c0.25-0.015625 0.71875-0.03125 1.125-0.03125 0.32812 0 0.89062 0.015625 1.25 0.03125v-0.34375c-0.54688 0-0.82812-0.26562-0.82812-0.54688 0-0.03125 0.015625-0.14062 0.03125-0.17188l0.5-1.4219h2.6875l0.57812 1.6719c0.015625 0.03125 0.03125 0.10938 0.03125 0.14062 0 0.32812-0.60938 0.32812-0.89062 0.32812v0.34375c0.39062-0.03125 1.1562-0.03125 1.5625-0.03125 0.46875 0 0.96875 0.015625 1.4219 0.03125v-0.34375h-0.1875c-0.65625 0-0.8125-0.078125-0.92188-0.4375zm-0.57812 1.2188 1.2344 3.5469h-2.4531z"/>
</g>
<g id="j">
<path d="m2.4219-1.875c-0.95312 0-0.95312-1.0938-0.95312-1.3438 0-0.29688 0.015625-0.64062 0.17188-0.92188 0.09375-0.125 0.34375-0.42188 0.78125-0.42188 0.95312 0 0.95312 1.0781 0.95312 1.3281 0 0.29688-0.015625 0.65625-0.17188 0.92188-0.09375 0.125-0.34375 0.4375-0.78125 0.4375zm-1.2656 0.42188c0-0.046875 0-0.29688 0.1875-0.51562 0.42188 0.3125 0.875 0.34375 1.0781 0.34375 1.0156 0 1.7656-0.75 1.7656-1.5938 0-0.40625-0.17188-0.8125-0.45312-1.0625 0.40625-0.35938 0.79688-0.42188 0.98438-0.42188 0.03125 0 0.078125 0 0.10938 0.015625-0.10938 0.046875-0.17188 0.15625-0.17188 0.29688 0 0.1875 0.14062 0.3125 0.3125 0.3125 0.10938 0 0.32812-0.078125 0.32812-0.32812 0-0.1875-0.14062-0.53125-0.5625-0.53125-0.21875 0-0.70312 0.0625-1.1562 0.51562-0.45312-0.35938-0.92188-0.40625-1.1562-0.40625-1.0156 0-1.7656 0.76562-1.7656 1.5938 0 0.48438 0.23438 0.90625 0.51562 1.125-0.14062 0.17188-0.34375 0.53125-0.34375 0.90625 0 0.34375 0.14062 0.75 0.48438 0.96875-0.65625 0.1875-1 0.65625-1 1.0938 0 0.78125 1.0781 1.3906 2.4062 1.3906 1.2812 0 2.4219-0.5625 2.4219-1.4062 0-0.39062-0.15625-0.9375-0.71875-1.25-0.57812-0.29688-1.2031-0.29688-1.875-0.29688-0.26562 0-0.73438 0-0.8125-0.015625-0.34375-0.046875-0.57812-0.375-0.57812-0.73438zm1.5625 3.4531c-1.0938 0-1.8438-0.5625-1.8438-1.1406 0-0.5 0.40625-0.90625 0.89062-0.9375h0.64062c0.9375 0 2.1562 0 2.1562 0.9375 0 0.59375-0.76562 1.1406-1.8438 1.1406z"/>
</g>
<g id="l">
<path d="m1.2812-2.375c0-1.7812 0.89062-2.2344 1.4688-2.2344 0.09375 0 0.78125 0 1.1719 0.40625-0.45312 0.03125-0.51562 0.35938-0.51562 0.5 0 0.28125 0.1875 0.5 0.5 0.5 0.28125 0 0.5-0.1875 0.5-0.51562 0-0.73438-0.82812-1.1719-1.6719-1.1719-1.3594 0-2.3594 1.1875-2.3594 2.5312 0 1.4062 1.0781 2.4844 2.3438 2.4844 1.4531 0 1.8125-1.3125 1.8125-1.4219s-0.10938-0.10938-0.14062-0.10938c-0.10938 0-0.125 0.046875-0.14062 0.10938-0.32812 1.0156-1.0312 1.1406-1.4375 1.1406-0.57812 0-1.5312-0.46875-1.5312-2.2188z"/>
</g>
<g id="h">
<path d="m1.8906-4.3594h1.5625v-0.34375h-1.5625v-2h-0.28125c0 0.89062-0.32812 2.0625-1.4062 2.0938v0.25h0.9375v3c0 1.3438 1.0156 1.4844 1.4062 1.4844 0.76562 0 1.0781-0.78125 1.0781-1.4844v-0.60938h-0.28125v0.59375c0 0.8125-0.32812 1.2188-0.71875 1.2188-0.73438 0-0.73438-0.98438-0.73438-1.1719z"/>
</g>
<g id="z">
<path d="m1.4844-0.84375c0 0.39062-0.015625 0.5-0.85938 0.5h-0.26562v0.34375h6.2969l0.45312-2.8125h-0.26562c-0.28125 1.6719-0.53125 2.4688-2.4062 2.4688h-1.4531c-0.51562 0-0.53125-0.078125-0.53125-0.4375v-2.9062h0.98438c1.0625 0 1.1719 0.34375 1.1719 1.2812h0.28125v-2.8906h-0.28125c0 0.9375-0.10938 1.2656-1.1719 1.2656h-0.98438v-2.6094c0-0.35938 0.015625-0.4375 0.53125-0.4375h1.4062c1.6719 0 1.9688 0.59375 2.1406 2.1094h0.28125l-0.3125-2.4531h-6.1406v0.34375h0.26562c0.84375 0 0.85938 0.125 0.85938 0.51562z"/>
</g>
<g id="p">
<path d="m6.3438-2.5156c0 1.5469-1.0469 2.4219-2.0938 2.4219-0.51562 0-1.7969-0.28125-1.7969-2.3438v-4.1562c0-0.39062 0.015625-0.51562 0.85938-0.51562h0.26562v-0.34375c-0.375 0.03125-1.1875 0.03125-1.6094 0.03125-0.40625 0-1.2344 0-1.6094-0.03125v0.34375h0.26562c0.84375 0 0.85938 0.125 0.85938 0.51562v4.1094c0 1.5312 1.2656 2.7188 2.75 2.7188 1.25 0 2.2344-1.0156 2.4219-2.25 0.03125-0.21875 0.03125-0.3125 0.03125-0.75v-3.5c0-0.35938 0-0.84375 1.125-0.84375v-0.34375c-0.39062 0.015625-0.92188 0.03125-1.2969 0.03125s-0.90625-0.015625-1.2969-0.03125v0.34375c1.125 0 1.125 0.51562 1.125 0.8125z"/>
</g>
<g id="o">
<path d="m1.875-4.1094v-3.4531l-1.5625 0.10938v0.34375c0.75 0 0.84375 0.078125 0.84375 0.60938v6.5h0.26562c0.015625-0.015625 0.10938-0.15625 0.40625-0.67188 0.15625 0.25 0.60938 0.79688 1.4219 0.79688 1.2969 0 2.4375-1.0781 2.4375-2.4844 0-1.375-1.0781-2.4688-2.3125-2.4688-0.85938 0-1.3281 0.51562-1.5 0.71875zm0.03125 2.8594v-2.2344c0-0.21875 0-0.21875 0.125-0.39062 0.42188-0.625 1.0156-0.70312 1.2812-0.70312 0.5 0 0.89062 0.28125 1.1406 0.70312 0.29688 0.4375 0.32812 1.0625 0.32812 1.5156 0 0.39062-0.03125 1.0469-0.34375 1.5469-0.23438 0.32812-0.64062 0.6875-1.2344 0.6875-0.48438 0-0.875-0.25-1.1406-0.65625-0.15625-0.23438-0.15625-0.26562-0.15625-0.46875z"/>
</g>
<g id="y">
<path d="m2.5312-7.3125c-0.09375-0.125-0.10938-0.14062-0.3125-0.14062h-1.8594v0.34375h0.3125c0.17188 0 0.39062 0.015625 0.54688 0.015625 0.25 0.03125 0.26562 0.046875 0.26562 0.25v5.7031c0 0.29688 0 0.79688-1.125 0.79688v0.34375c0.375-0.015625 0.92188-0.03125 1.2812-0.03125s0.89062 0.015625 1.2656 0.03125v-0.34375c-1.125 0-1.125-0.5-1.125-0.79688v-5.6719c0.0625 0.046875 0.078125 0.0625 0.10938 0.125l4.4531 6.5469c0.10938 0.125 0.10938 0.14062 0.1875 0.14062 0.15625 0 0.15625-0.078125 0.15625-0.28125v-6.0156c0-0.29688 0-0.8125 1.125-0.8125v-0.34375c-0.39062 0.015625-0.92188 0.03125-1.2812 0.03125s-0.89062-0.015625-1.2812-0.03125v0.34375c1.125 0 1.125 0.51562 1.125 0.8125v4.6562z"/>
</g>
<g id="n">
<path d="m1.9375-4.8281-1.5312 0.125v0.34375c0.70312 0 0.79688 0.0625 0.79688 0.59375v2.9375c0 0.48438-0.10938 0.48438-0.84375 0.48438v0.34375c0.34375-0.015625 0.9375-0.03125 1.2031-0.03125 0.375 0 0.76562 0.015625 1.125 0.03125v-0.34375c-0.71875 0-0.75-0.046875-0.75-0.46875zm0.03125-1.8906c0-0.34375-0.26562-0.57812-0.57812-0.57812-0.32812 0-0.57812 0.29688-0.57812 0.57812 0 0.29688 0.25 0.57812 0.57812 0.57812 0.3125 0 0.57812-0.23438 0.57812-0.57812z"/>
</g>
<g id="x">
<path d="m3.2969-1.6094c0 1-0.54688 1.6094-1.125 1.6094-0.0625 0-0.8125 0-1.2031-0.625 0.5625 0 0.70312-0.32812 0.70312-0.625 0-0.39062-0.3125-0.60938-0.60938-0.60938-0.25 0-0.60938 0.15625-0.60938 0.64062 0 0.79688 0.76562 1.4531 1.7344 1.4531 1.1094 0 1.9062-0.76562 2.0312-1.5781 0.015625-0.078125 0.015625-0.10938 0.015625-0.48438v-4.8281c0-0.45312 0.15625-0.45312 0.84375-0.45312v-0.34375c-0.48438 0.03125-0.90625 0.03125-1.4062 0.03125-0.46875 0-1.4219 0-1.8438-0.03125v0.34375h0.39062c1.0781 0 1.0781 0.14062 1.0781 0.51562z"/>
</g>
<g id="w">
<path d="m3.8125-4.2344-1.4062-0.32812c-0.67188-0.17188-1.0938-0.76562-1.0938-1.3906 0-0.76562 0.57812-1.4375 1.4375-1.4375 1.8125 0 2.0625 1.7969 2.125 2.2812 0.015625 0.078125 0.015625 0.14062 0.125 0.14062 0.14062 0 0.14062-0.0625 0.14062-0.26562v-2.1875c0-0.1875 0-0.26562-0.10938-0.26562-0.078125 0-0.09375 0.015625-0.17188 0.14062l-0.375 0.625c-0.32812-0.3125-0.78125-0.76562-1.75-0.76562-1.2031 0-2.125 0.95312-2.125 2.1094 0 0.90625 0.57812 1.7031 1.4375 2 0.10938 0.046875 0.67188 0.17188 1.4375 0.35938 0.29688 0.078125 0.60938 0.15625 0.92188 0.5625 0.23438 0.28125 0.34375 0.64062 0.34375 1 0 0.76562-0.54688 1.5625-1.4688 1.5625-0.3125 0-1.1406-0.0625-1.7188-0.59375-0.64062-0.59375-0.67188-1.2812-0.67188-1.6719-0.015625-0.10938-0.10938-0.10938-0.14062-0.10938-0.14062 0-0.14062 0.0625-0.14062 0.26562v2.1875c0 0.17188 0 0.25 0.125 0.25 0.078125 0 0.078125-0.015625 0.15625-0.14062 0 0 0.03125-0.046875 0.39062-0.625 0.34375 0.375 1.0469 0.76562 2.0156 0.76562 1.2656 0 2.1406-1.0625 2.1406-2.2656 0-1.0938-0.71875-1.9844-1.625-2.2031z"/>
</g>
<clipPath id="aq">
<path d="m180 70h71v1h-71z"/>
</clipPath>
<clipPath id="ap">
<path d="m0.52734 205.44h485v-206h-485zm250.18-134.84v0.48828l-5.7891 1.8359 1.0391-2.082-1.0391-2.0781z" clip-rule="evenodd"/>
</clipPath>
<clipPath id="ak">
<path d="m351 117h87v56h-87z"/>
</clipPath>
<clipPath id="aj">
<path d="m0.52734 205.44h485v-206h-485zm351.04-33v-0.48438l5.7891-1.8359-1.0391 2.0781 1.0391 2.082z" clip-rule="evenodd"/>
</clipPath>
<clipPath id="ai">
<path d="m55 70h173v103h-173z"/>
</clipPath>
<clipPath id="ah">
<path d="m0.52734 205.44h485v-206h-485zm54.785-134.84h0.48828l1.8359 5.7891-2.0781-1.0391-2.082 1.0391z" clip-rule="evenodd"/>
</clipPath>
<clipPath id="ag">
<path d="m0.52734 55h47.473v24h-47.473z"/>
</clipPath>
<clipPath id="af">
<path d="m0.52734 51h51.473v32h-51.473z"/>
</clipPath>
<clipPath id="ae">
<path d="m55 0h383v71h-383z"/>
</clipPath>
<clipPath id="ad">
<path d="m0.52734 205.44h485v-206h-485zm55.273-134.35h-0.48828l-1.8359-5.7891 2.082 1.0391 2.0781-1.0391z" clip-rule="evenodd"/>
</clipPath>
<clipPath id="ao">
<path d="m328 70h63v1h-63z"/>
</clipPath>
<clipPath id="an">
<path d="m0.52734 205.44h485v-206h-485zm390.51-134.84v0.48828l-5.7891 1.8359 1.0391-2.082-1.0391-2.0781z" clip-rule="evenodd"/>
</clipPath>
<clipPath id="am">
<path d="m47 70h40v1h-40z"/>
</clipPath>
<clipPath id="al">
<path d="m0.52734 205.44h485v-206h-485zm86.457-134.84v0.48828l-5.7852 1.8359 1.0391-2.082-1.0391-2.0781z" clip-rule="evenodd"/>
</clipPath>
</defs>
<g clip-path="url(#aq)">
<g clip-path="url(#ap)">
<path transform="matrix(.1 0 0 -.1 .528 205.44)" d="m1797.7 1346h701.68" fill="none" stroke="#000" stroke-miterlimit="10" stroke-width="2.5988"/>
</g>
</g>
<path d="m244.92 72.93 5.1992-2.082-5.1992-2.0781 1.0391 2.0781-1.0391 2.082" fill-rule="evenodd"/>
<path transform="matrix(.1 0 0 -.1 .528 205.44)" d="m2443.9 1325.1 51.992 20.82-51.992 20.781 10.391-20.781z" fill="none" stroke="#000" stroke-miterlimit="10" stroke-width="2.5988"/>
<path transform="matrix(.1 0 0 -.1 .528 205.44)" d="m2889.2 1268v-311.88" fill="none" stroke="#000" stroke-miterlimit="10" stroke-width="2.5988"/>
<g clip-path="url(#ak)">
<g clip-path="url(#aj)">
<path transform="matrix(.1 0 0 -.1 .528 205.44)" d="m4370.5 878.18v-545.74h-857.62" fill="none" stroke="#000" stroke-miterlimit="10" stroke-width="2.5988"/>
</g>
</g>
<path d="m357.36 170.12-5.1992 2.0781 5.1992 2.082-1.0391-2.082 1.0391-2.0781" fill-rule="evenodd"/>
<path transform="matrix(.1 0 0 -.1 .528 205.44)" d="m3568.3 353.22-51.992-20.781 51.992-20.82-10.391 20.82z" fill="none" stroke="#000" stroke-miterlimit="10" stroke-width="2.5988"/>
<g clip-path="url(#ai)">
<g clip-path="url(#ah)">
<path transform="matrix(.1 0 0 -.1 .528 205.44)" d="m2265.5 332.44h-1715.2v1013.5" fill="none" stroke="#000" stroke-miterlimit="10" stroke-width="2.5988"/>
</g>
</g>
<path d="m57.637 76.395-2.0781-5.1992-2.082 5.1992 2.082-1.0391 2.0781 1.0391" fill-rule="evenodd"/>
<path transform="matrix(.1 0 0 -.1 .528 205.44)" d="m571.09 1290.5-20.781 51.992-20.82-51.992 20.82 10.391z" fill="none" stroke="#000" stroke-miterlimit="10" stroke-width="2.5988"/>
<g clip-path="url(#ag)">
<path d="m4.6211 55.258c-2.0078 0-3.6367 1.6289-3.6367 3.6367v16.113c0 2.0078 1.6289 3.6367 3.6367 3.6367h39.5c2.0117 0 3.6406-1.6289 3.6406-3.6367v-16.113c0-2.0078-1.6289-3.6367-3.6406-3.6367" fill="#ff7fff" fill-rule="evenodd"/>
</g>
<g clip-path="url(#af)">
<path transform="matrix(.1 0 0 -.1 .528 205.44)" d="m40.931 1501.9c-20.078 0-36.367-16.289-36.367-36.367v-161.13c0-20.078 16.289-36.367 36.367-36.367h395c20.117 0 36.406 16.289 36.406 36.367v161.13c0 20.078-16.289 36.367-36.406 36.367z" fill="none" stroke="#000" stroke-miterlimit="10" stroke-width="2.5988"/>
</g>
<path d="m269.7 109.83c-2.0117 0-3.6406 1.6289-3.6406 3.6367v16.113c0 2.0078 1.6289 3.6367 3.6406 3.6367h39.5c2.0078 0 3.6367-1.6289 3.6367-3.6367v-16.113c0-2.0078-1.6289-3.6367-3.6367-3.6367" fill="#ff7fff" fill-rule="evenodd"/>
<path transform="matrix(.1 0 0 -.1 .528 205.44)" d="m2691.7 956.11c-20.117 0-36.406-16.289-36.406-36.367v-161.13c0-20.078 16.289-36.367 36.406-36.367h395c20.078 0 36.367 16.289 36.367 36.367v161.13c0 20.078-16.289 36.367-36.367 36.367z" fill="none" stroke="#000" stroke-miterlimit="10" stroke-width="2.5988"/>
<path transform="matrix(.1 0 0 -.1 .528 205.44)" d="m862.14 1268h935.55v389.8h-935.55z" fill="#ff0" fill-rule="evenodd" stroke="#000" stroke-miterlimit="10" stroke-width="10.395"/>
<path transform="matrix(.1 0 0 -.1 .528 205.44)" d="m2499.4 1268h779.61v389.8h-779.61z" fill="#ff0" fill-rule="evenodd" stroke="#000" stroke-miterlimit="10" stroke-width="10.395"/>
<path transform="matrix(.1 0 0 -.1 .528 205.44)" d="m2265.5 176.5h1247.4v389.8h-1247.4z" fill="#ff0" fill-rule="evenodd" stroke="#000" stroke-miterlimit="10" stroke-width="10.395"/>
<g clip-path="url(#ae)">
<g clip-path="url(#ad)">
<path transform="matrix(.1 0 0 -.1 .528 205.44)" d="m4370.5 1813.7v233.87h-3820.2v-701.64" fill="none" stroke="#000" stroke-miterlimit="10" stroke-width="2.5988"/>
</g>
</g>
<path d="m53.477 65.305 2.082 5.1992 2.0781-5.1992-2.0781 1.0391-2.082-1.0391" fill-rule="evenodd"/>
<path transform="matrix(.1 0 0 -.1 .528 205.44)" d="m529.49 1401.4 20.82-51.992 20.781 51.992-20.781-10.391z" fill="none" stroke="#000" stroke-miterlimit="10" stroke-width="2.5988"/>
<g clip-path="url(#ao)">
<g clip-path="url(#an)">
<path transform="matrix(.1 0 0 -.1 .528 205.44)" d="m3279 1346h623.71" fill="none" stroke="#000" stroke-miterlimit="10" stroke-width="2.5988"/>
</g>
</g>
<path d="m385.25 72.93 5.1992-2.082-5.1992-2.0781 1.0391 2.0781-1.0391 2.082" fill-rule="evenodd"/>
<path transform="matrix(.1 0 0 -.1 .528 205.44)" d="m3847.2 1325.1 51.992 20.82-51.992 20.781 10.391-20.781z" fill="none" stroke="#000" stroke-miterlimit="10" stroke-width="2.5988"/>
<path transform="matrix(.1 0 0 -.1 .528 205.44)" d="m3902.7 1346 467.77 467.77 467.77-467.77-467.77-467.77z" fill="#ff7fff" fill-rule="evenodd" stroke="#000" stroke-miterlimit="10" stroke-width="2.5988"/>
<g clip-path="url(#am)">
<g clip-path="url(#al)">
<path transform="matrix(.1 0 0 -.1 .528 205.44)" d="m472.34 1346h389.8" fill="none" stroke="#000" stroke-miterlimit="10" stroke-width="2.5988"/>
</g>
</g>
<path d="m81.199 72.93 5.1953-2.082-5.1953-2.0781 1.0391 2.0781-1.0391 2.082" fill-rule="evenodd"/>
<path transform="matrix(.1 0 0 -.1 .528 205.44)" d="m806.71 1325.1 51.953 20.82-51.953 20.781 10.391-20.781z" fill="none" stroke="#000" stroke-miterlimit="10" stroke-width="2.5988"/>
<g>
<use x="430.421" y="87.997" xlink:href="#ac"/>
<use x="435.873368" y="87.997" xlink:href="#q"/>
<use x="441.327918" y="87.997" xlink:href="#d"/>
<use x="445.601013" y="87.997" xlink:href="#v"/>
<use x="111.764" y="31.872" xlink:href="#u"/>
<use x="119.945825" y="31.872" xlink:href="#q"/>
<use x="125.400375" y="31.872" xlink:href="#i"/>
<use x="128.430923" y="31.872" xlink:href="#m"/>
<use x="134.492019" y="31.872" xlink:href="#c"/>
<use x="140.553115" y="31.872" xlink:href="#f"/>
<use x="146.007665" y="31.872" xlink:href="#g"/>
<use x="150.310214" y="31.872" xlink:href="#a"/>
<use x="264.711" y="68.249" xlink:href="#t"/>
<use x="272.437916" y="68.249" xlink:href="#a"/>
<use x="277.28592" y="68.249" xlink:href="#s"/>
<use x="280.619741" y="68.249" xlink:href="#a"/>
<use x="285.467745" y="68.249" xlink:href="#c"/>
<use x="291.528841" y="68.249" xlink:href="#i"/>
<use x="298.192119" y="68.249" xlink:href="#f"/>
<use x="303.646669" y="68.249" xlink:href="#e"/>
<use x="309.707765" y="68.249" xlink:href="#g"/>
<use x="264.878" y="53.698" xlink:href="#ab"/>
<use x="272.302" y="54.174" xlink:href="#r"/>
<use x="271.999" y="53.698" xlink:href="#e"/>
<use x="278.060096" y="53.698" xlink:href="#c"/>
<use x="284.121192" y="53.698" xlink:href="#d"/>
<use x="288.394286" y="53.698" xlink:href="#a"/>
<use x="296.875021" y="53.698" xlink:href="#k"/>
<use x="302.936117" y="53.698" xlink:href="#a"/>
<use x="307.784121" y="53.698" xlink:href="#b"/>
<use x="245.923" y="31.872" xlink:href="#aa"/>
<use x="254.104825" y="31.872" xlink:href="#e"/>
<use x="260.165921" y="31.872" xlink:href="#g"/>
<use x="264.46847" y="31.872" xlink:href="#s"/>
<use x="268.105" y="32.347" xlink:href="#r"/>
<use x="267.802" y="31.872" xlink:href="#e"/>
<use x="273.863096" y="31.872" xlink:href="#c"/>
<use x="279.924192" y="31.872" xlink:href="#d"/>
<use x="284.197286" y="31.872" xlink:href="#e"/>
<use x="290.258382" y="31.872" xlink:href="#b"/>
<use x="296.319478" y="31.872" xlink:href="#j"/>
<use x="301.774028" y="31.872" xlink:href="#g"/>
<use x="306.076577" y="31.872" xlink:href="#m"/>
<use x="312.137673" y="31.872" xlink:href="#c"/>
<use x="318.198769" y="31.872" xlink:href="#f"/>
<use x="323.653319" y="31.872" xlink:href="#g"/>
<use x="327.955868" y="31.872" xlink:href="#a"/>
<use x="95.93" y="68.249" xlink:href="#b"/>
<use x="101.991" y="68.724" xlink:href="#r"/>
<use x="101.991" y="68.249" xlink:href="#f"/>
<use x="107.44555" y="68.249" xlink:href="#l"/>
<use x="111.988099" y="68.249" xlink:href="#c"/>
<use x="118.049195" y="68.249" xlink:href="#g"/>
<use x="122.351744" y="68.249" xlink:href="#h"/>
<use x="126.594293" y="68.249" xlink:href="#a"/>
<use x="131.442297" y="68.249" xlink:href="#b"/>
<use x="141.147033" y="68.249" xlink:href="#t"/>
<use x="148.873948" y="68.249" xlink:href="#a"/>
<use x="153.721952" y="68.249" xlink:href="#s"/>
<use x="157.055773" y="68.249" xlink:href="#a"/>
<use x="161.903777" y="68.249" xlink:href="#c"/>
<use x="167.964873" y="68.249" xlink:href="#i"/>
<use x="112.4" y="53.698" xlink:href="#u"/>
<use x="120.581825" y="53.698" xlink:href="#q"/>
<use x="126.036375" y="53.698" xlink:href="#i"/>
<use x="129.066923" y="53.698" xlink:href="#a"/>
<use x="137.547657" y="53.698" xlink:href="#k"/>
<use x="143.608753" y="53.698" xlink:href="#a"/>
<use x="148.456757" y="53.698" xlink:href="#b"/>
<use x="277.166" y="125.413" xlink:href="#z"/>
<use x="284.590733" y="125.413" xlink:href="#b"/>
<use x="290.651829" y="125.413" xlink:href="#k"/>
<use x="296.712925" y="125.413" xlink:href="#a"/>
<use x="251.544" y="162.83" xlink:href="#t"/>
<use x="259.270916" y="162.83" xlink:href="#a"/>
<use x="264.11892" y="162.83" xlink:href="#c"/>
<use x="270.180016" y="162.83" xlink:href="#f"/>
<use x="275.634566" y="162.83" xlink:href="#b"/>
<use x="281.695661" y="162.83" xlink:href="#k"/>
<use x="287.756757" y="162.83" xlink:href="#i"/>
<use x="290.787305" y="162.83" xlink:href="#e"/>
<use x="296.848401" y="162.83" xlink:href="#b"/>
<use x="302.909497" y="162.83" xlink:href="#j"/>
<use x="311.996778" y="162.83" xlink:href="#k"/>
<use x="318.057874" y="162.83" xlink:href="#a"/>
<use x="322.905878" y="162.83" xlink:href="#d"/>
<use x="254.181" y="178.42" xlink:href="#p"/>
<use x="262.362825" y="178.42" xlink:href="#b"/>
<use x="268.118466" y="178.42" xlink:href="#h"/>
<use x="272.361015" y="178.42" xlink:href="#a"/>
<use x="277.209019" y="178.42" xlink:href="#d"/>
<use x="281.482114" y="178.42" xlink:href="#o"/>
<use x="287.54321" y="178.42" xlink:href="#d"/>
<use x="291.816304" y="178.42" xlink:href="#a"/>
<use x="296.664308" y="178.42" xlink:href="#l"/>
<use x="301.206857" y="178.42" xlink:href="#c"/>
<use x="306.973408" y="178.42" xlink:href="#e"/>
<use x="313.034504" y="178.42" xlink:href="#b"/>
<use x="319.08469" y="178.42" xlink:href="#j"/>
<use x="445.265" y="16.282" xlink:href="#y"/>
<use x="453.446825" y="16.282" xlink:href="#a"/>
<use x="458.294829" y="16.282" xlink:href="#n"/>
<use x="461.325377" y="16.282" xlink:href="#b"/>
<use x="445.265" y="150.358" xlink:href="#x"/>
<use x="450.871186" y="150.358" xlink:href="#f"/>
<use x="238.666" y="201.805" xlink:href="#p"/>
<use x="246.847825" y="201.805" xlink:href="#b"/>
<use x="252.603466" y="201.805" xlink:href="#h"/>
<use x="256.846015" y="201.805" xlink:href="#a"/>
<use x="261.694019" y="201.805" xlink:href="#d"/>
<use x="265.967114" y="201.805" xlink:href="#o"/>
<use x="272.02821" y="201.805" xlink:href="#d"/>
<use x="276.301304" y="201.805" xlink:href="#a"/>
<use x="281.149308" y="201.805" xlink:href="#l"/>
<use x="285.691857" y="201.805" xlink:href="#c"/>
<use x="291.458408" y="201.805" xlink:href="#e"/>
<use x="297.519504" y="201.805" xlink:href="#b"/>
<use x="303.56969" y="201.805" xlink:href="#j"/>
<use x="309.02424" y="201.805" xlink:href="#g"/>
<use x="313.337699" y="201.805" xlink:href="#m"/>
<use x="319.387885" y="201.805" xlink:href="#c"/>
<use x="325.448981" y="201.805" xlink:href="#f"/>
<use x="330.903531" y="201.805" xlink:href="#g"/>
<use x="335.20608" y="201.805" xlink:href="#a"/>
<use x="10.634" y="70.848" xlink:href="#w"/>
<use x="16.695096" y="70.848" xlink:href="#h"/>
<use x="20.937645" y="70.848" xlink:href="#f"/>
<use x="26.392195" y="70.848" xlink:href="#d"/>
<use x="30.665289" y="70.848" xlink:href="#h"/>
<use x="417.513" y="59.934" xlink:href="#i"/>
<use x="420.543548" y="59.934" xlink:href="#n"/>
<use x="423.574096" y="59.934" xlink:href="#a"/>
<use x="428.4221" y="59.934" xlink:href="#j"/>
<use x="433.87665" y="59.934" xlink:href="#h"/>
<use x="441.751929" y="59.934" xlink:href="#a"/>
<use x="446.599933" y="59.934" xlink:href="#n"/>
<use x="449.630481" y="59.934" xlink:href="#b"/>
<use x="455.691577" y="59.934" xlink:href="#a"/>
<use x="403.847" y="75.525" xlink:href="#p"/>
<use x="412.028825" y="75.525" xlink:href="#b"/>
<use x="417.784466" y="75.525" xlink:href="#h"/>
<use x="422.027015" y="75.525" xlink:href="#a"/>
<use x="426.875019" y="75.525" xlink:href="#d"/>
<use x="431.148114" y="75.525" xlink:href="#o"/>
<use x="437.20921" y="75.525" xlink:href="#d"/>
<use x="441.482304" y="75.525" xlink:href="#a"/>
<use x="446.330308" y="75.525" xlink:href="#l"/>
<use x="450.872857" y="75.525" xlink:href="#c"/>
<use x="456.639408" y="75.525" xlink:href="#e"/>
<use x="462.700504" y="75.525" xlink:href="#b"/>
<use x="468.75069" y="75.525" xlink:href="#j"/>
</g>
</svg>
