<svg width="327pt" height="283pt" version="1.1" viewBox="0 0 327 283" xmlns="http://www.w3.org/2000/svg" xmlns:xlink="http://www.w3.org/1999/xlink">
<defs>
<g id="q">
<path d="m0.71875 0h2.9531c0.625 0 1.0781-0.17188 1.4375-0.54688 0.3125-0.34375 0.5-0.8125 0.5-1.3281 0-0.78125-0.35938-1.2656-1.2031-1.5938 0.60938-0.28125 0.90625-0.75 0.90625-1.4219 0-0.48438-0.17188-0.90625-0.51562-1.2188s-0.79688-0.45312-1.4219-0.45312h-2.6562zm0.82812-3.7344v-2.0938h1.625c0.46875 0 0.71875 0.0625 0.95312 0.23438 0.23438 0.1875 0.35938 0.45312 0.35938 0.8125s-0.125 0.625-0.35938 0.8125c-0.23438 0.17188-0.48438 0.23438-0.95312 0.23438zm0 3v-2.2656h2.0469c0.73438 0 1.1719 0.42188 1.1719 1.1406 0 0.70312-0.4375 1.125-1.1719 1.125z"/>
</g>
<g id="a">
<path d="m4.6094-2.1094c0-0.71875-0.046875-1.1562-0.1875-1.5-0.29688-0.78125-1.0156-1.2344-1.9062-1.2344-1.3125 0-2.1562 0.98438-2.1562 2.5469s0.8125 2.5 2.1406 2.5c1.0781 0 1.8281-0.60938 2.0156-1.6406h-0.75c-0.20312 0.625-0.64062 0.95312-1.2344 0.95312-0.48438 0-0.89062-0.21875-1.1406-0.60938-0.17188-0.28125-0.23438-0.54688-0.25-1.0156zm-3.4531-0.60938c0.0625-0.875 0.59375-1.4375 1.3594-1.4375s1.2969 0.59375 1.2969 1.4375z"/>
</g>
<g id="d">
<path d="m0.625-4.7188v4.7188h0.76562v-2.5938c0-0.96875 0.5-1.5938 1.2656-1.5938 0.60938 0 0.98438 0.35938 0.98438 0.92188v3.2656h0.75v-3.5625c0-0.78125-0.59375-1.2812-1.5-1.2812-0.70312 0-1.1562 0.26562-1.5625 0.92188v-0.79688z"/>
</g>
<g id="f">
<path d="m4.3438 0v-4.7188h-0.75v2.6719c0 0.96875-0.5 1.5938-1.2969 1.5938-0.59375 0-0.96875-0.35938-0.96875-0.92188v-3.3438h-0.75v3.6406c0 0.78125 0.59375 1.2812 1.5156 1.2812 0.6875 0 1.125-0.23438 1.5625-0.85938v0.65625z"/>
</g>
<g id="c">
<path d="m2.2812-4.7188h-0.76562v-1.2969h-0.75v1.2969h-0.64062v0.60938h0.64062v3.5625c0 0.5 0.32812 0.75 0.90625 0.75 0.20312 0 0.35938-0.015625 0.60938-0.0625v-0.625c-0.10938 0.03125-0.20312 0.03125-0.35938 0.03125-0.3125 0-0.40625-0.09375-0.40625-0.42188v-3.2344h0.76562z"/>
</g>
<g id="t">
<path d="m3.9844-4.7188h-3.5156v0.65625h2.625l-2.8125 3.3906v0.67188h3.8281v-0.65625h-2.9219l2.7969-3.3906z"/>
</g>
<g id="b">
<path d="m0.625-4.7188v4.7188h0.75v-2.4531c0.015625-1.125 0.48438-1.6406 1.5156-1.6094v-0.76562c-0.125-0.015625-0.20312-0.015625-0.29688-0.015625-0.48438 0-0.84375 0.28125-1.2812 0.98438v-0.85938z"/>
</g>
<g id="s">
<path d="m4.2656-1.9688 0.67188 1.9688h0.9375l-2.2969-6.5625h-1.0781l-2.3438 6.5625h0.89062l0.6875-1.9688zm-0.23438-0.70312h-2.0938l1.0938-2.9844z"/>
</g>
<g id="r">
<path d="m4.9844 0 1.3906-4.7188h-0.84375l-0.9375 3.6719-0.9375-3.6719h-0.90625l-0.90625 3.6719-0.96875-3.6719h-0.82812l1.375 4.7188h0.84375l0.90625-3.7031 0.95312 3.7031z"/>
</g>
<g id="v">
<path d="m4.4531-6.5625h-0.75v2.4375c-0.3125-0.46875-0.8125-0.71875-1.4375-0.71875-1.2344 0-2.0312 0.96875-2.0312 2.4844 0 1.5781 0.78125 2.5625 2.0469 2.5625 0.65625 0 1.1094-0.23438 1.5-0.82812v0.625h0.67188zm-2.0625 2.4062c0.79688 0 1.3125 0.71875 1.3125 1.8594 0 1.0781-0.51562 1.7969-1.3125 1.7969-0.82812 0-1.375-0.71875-1.375-1.8281 0-1.0938 0.54688-1.8281 1.375-1.8281z"/>
</g>
<g id="i">
<path d="m3.6406-4.7188v0.6875c-0.375-0.5625-0.79688-0.8125-1.3906-0.8125-1.1406 0-1.9375 1.0625-1.9375 2.5625 0 0.79688 0.1875 1.375 0.59375 1.8438 0.35938 0.42188 0.79688 0.64062 1.2969 0.64062 0.5625 0 0.96875-0.25 1.3594-0.84375v0.25c0 1.25-0.34375 1.7188-1.2812 1.7188-0.64062 0-0.96875-0.25-1.0469-0.78125h-0.76562c0.078125 0.85938 0.76562 1.4219 1.7969 1.4219 0.6875 0 1.2656-0.23438 1.5625-0.60938 0.35938-0.4375 0.5-1.0312 0.5-2.1406v-3.9375zm-1.3125 0.5625c0.78125 0 1.2344 0.67188 1.2344 1.8594 0 1.1406-0.45312 1.8125-1.2344 1.8125s-1.2344-0.67188-1.2344-1.8438c0-1.1406 0.45312-1.8281 1.2344-1.8281z"/>
</g>
<g id="e">
<path d="m3.9375-3.4062c0-0.92188-0.60938-1.4375-1.7031-1.4375s-1.8125 0.5625-1.8125 1.4375c0 0.73438 0.375 1.0781 1.5 1.3594l0.70312 0.17188c0.51562 0.125 0.71875 0.3125 0.71875 0.64062 0 0.45312-0.4375 0.75-1.0938 0.75-0.40625 0-0.75-0.125-0.9375-0.3125-0.10938-0.14062-0.17188-0.28125-0.21875-0.60938h-0.78125c0.03125 1.0938 0.64062 1.6094 1.875 1.6094 1.1875 0 1.9375-0.57812 1.9375-1.4844 0-0.70312-0.39062-1.0938-1.3281-1.3125l-0.71875-0.17188c-0.60938-0.15625-0.875-0.34375-0.875-0.6875 0-0.4375 0.39062-0.70312 1-0.70312s0.92188 0.26562 0.95312 0.75z"/>
</g>
<g id="k">
<path d="m4.8906-2.4062h-4.5312v0.64062h4.5312z"/>
</g>
<g id="o">
<path d="m0.48438 1.9688h0.75v-2.4688c0.40625 0.48438 0.84375 0.70312 1.4531 0.70312 1.2344 0 2.0156-0.98438 2.0156-2.4844 0-1.5781-0.76562-2.5625-2.0156-2.5625-0.64062 0-1.1562 0.28125-1.5156 0.84375v-0.71875h-0.6875zm2.0781-6.125c0.82812 0 1.3594 0.73438 1.3594 1.8594 0 1.0781-0.54688 1.7969-1.3594 1.7969s-1.3281-0.71875-1.3281-1.8281c0-1.0938 0.51562-1.8281 1.3281-1.8281z"/>
</g>
<g id="p">
<path d="m2.4531-4.8438c-1.3438 0-2.125 0.9375-2.125 2.5156 0 1.5938 0.78125 2.5312 2.125 2.5312 1.3281 0 2.1406-0.9375 2.1406-2.4844 0-1.6406-0.78125-2.5625-2.1406-2.5625zm0 0.6875c0.84375 0 1.3594 0.6875 1.3594 1.8594 0 1.125-0.53125 1.8125-1.3594 1.8125s-1.3438-0.6875-1.3438-1.8438c0-1.1406 0.51562-1.8281 1.3438-1.8281z"/>
</g>
<g id="j">
<path d="m4.8125-0.4375c-0.078125 0.015625-0.10938 0.015625-0.15625 0.015625-0.26562 0-0.40625-0.14062-0.40625-0.375v-2.7656c0-0.84375-0.60938-1.2812-1.7812-1.2812-0.6875 0-1.2344 0.1875-1.5625 0.54688-0.21875 0.23438-0.29688 0.51562-0.32812 0.96875h0.76562c0.0625-0.5625 0.40625-0.82812 1.1094-0.82812 0.67188 0 1.0469 0.25 1.0469 0.70312v0.1875c-0.015625 0.32812-0.17188 0.45312-0.78125 0.53125-1.0625 0.14062-1.2188 0.17188-1.5156 0.28125-0.54688 0.23438-0.82812 0.65625-0.82812 1.2656 0 0.85938 0.59375 1.3906 1.5469 1.3906 0.59375 0 1.0781-0.20312 1.6094-0.6875 0.046875 0.48438 0.28125 0.6875 0.76562 0.6875 0.17188 0 0.26562-0.015625 0.51562-0.078125zm-1.3125-1.0469c0 0.25-0.078125 0.40625-0.29688 0.60938-0.3125 0.28125-0.67188 0.42188-1.1094 0.42188-0.59375 0-0.9375-0.28125-0.9375-0.75 0-0.5 0.32812-0.75 1.1406-0.85938 0.79688-0.10938 0.95312-0.15625 1.2031-0.26562z"/>
</g>
<g id="l">
<path d="m0.625-4.7188v4.7188h0.76562v-2.9688c0-0.67188 0.48438-1.2188 1.1094-1.2188 0.54688 0 0.85938 0.32812 0.85938 0.9375v3.25h0.76562v-2.9688c0-0.67188 0.48438-1.2188 1.1094-1.2188 0.54688 0 0.875 0.34375 0.875 0.9375v3.25h0.75v-3.5312c0-0.85938-0.48438-1.3125-1.375-1.3125-0.625 0-1 0.1875-1.4375 0.71875-0.28125-0.51562-0.65625-0.71875-1.2812-0.71875s-1.0469 0.23438-1.4375 0.79688v-0.67188z"/>
</g>
<g id="u">
<path d="m1.6562-2.7812h2.0625c0.51562 0 0.92188-0.15625 1.2656-0.46875 0.39062-0.35938 0.5625-0.78125 0.5625-1.3906 0-1.2344-0.71875-1.9219-2.0156-1.9219h-2.7188v6.5625h0.84375zm0-0.73438v-2.3125h1.75c0.79688 0 1.2812 0.4375 1.2812 1.1562s-0.48438 1.1562-1.2812 1.1562z"/>
</g>
<g id="g">
<path d="m1.3438-4.7188h-0.73438v4.7188h0.73438zm0-1.8438h-0.75v0.95312h0.75z"/>
</g>
<g id="n">
<path d="m4.2344-3.125c-0.03125-0.46875-0.125-0.76562-0.3125-1.0312-0.32812-0.4375-0.89062-0.6875-1.5469-0.6875-1.2812 0-2.0938 1-2.0938 2.5625 0 1.5312 0.8125 2.4844 2.0781 2.4844 1.125 0 1.8438-0.67188 1.9375-1.8281h-0.76562c-0.125 0.76562-0.5 1.1406-1.1406 1.1406-0.82812 0-1.3281-0.67188-1.3281-1.7969 0-1.1719 0.48438-1.875 1.2969-1.875 0.64062 0 1.0312 0.375 1.125 1.0312z"/>
</g>
<g id="m">
<path d="m0.625-6.5625v6.5625h0.75v-2.5938c0-0.96875 0.5-1.5938 1.2812-1.5938 0.25 0 0.48438 0.0625 0.67188 0.20312 0.20312 0.15625 0.29688 0.39062 0.29688 0.71875v3.2656h0.75v-3.5625c0-0.79688-0.5625-1.2812-1.4844-1.2812-0.67188 0-1.0781 0.20312-1.5156 0.78125v-2.5z"/>
</g>
<g id="h">
<path d="m1.375-6.5625h-0.76562v6.5625h0.76562z"/>
</g>
<g id="y">
<path d="m0.48438-6.5625v6.5625h0.67188v-0.60938c0.35938 0.5625 0.84375 0.8125 1.5 0.8125 1.2344 0 2.0469-1.0156 2.0469-2.5781 0-1.5312-0.76562-2.4688-2.0156-2.4688-0.64062 0-1.1094 0.23438-1.4531 0.76562v-2.4844zm2.0625 2.4062c0.84375 0 1.375 0.73438 1.375 1.8594 0 1.0781-0.5625 1.7969-1.375 1.7969-0.79688 0-1.3125-0.71875-1.3125-1.8281 0-1.0938 0.51562-1.8281 1.3125-1.8281z"/>
</g>
<g id="ag">
<path d="m3.4844-4.7188-1.2969 3.6719-1.2031-3.6719h-0.79688l1.5781 4.7344-0.28125 0.75c-0.125 0.32812-0.28125 0.45312-0.60938 0.45312-0.125 0-0.23438-0.015625-0.39062-0.046875v0.67188c0.15625 0.078125 0.3125 0.125 0.5 0.125 0.25 0 0.51562-0.09375 0.70312-0.23438 0.23438-0.17188 0.375-0.35938 0.51562-0.75l2.0938-5.7031z"/>
</g>
<g id="ae">
<path d="m2.5625 0 1.8125-4.7188h-0.84375l-1.3281 3.8281-1.2656-3.8281h-0.84375l1.6562 4.7188z"/>
</g>
<g id="x">
<path d="m4.9531-2.9844v2.9844h0.84375v-6.5625h-0.84375v2.8438h-3.375v-2.8438h-0.82812v6.5625h0.82812v-2.9844z"/>
</g>
<g id="ad">
<path d="m5.9531-4.5312c-0.25-1.4375-1.0781-2.1406-2.5312-2.1406-0.875 0-1.5781 0.28125-2.0781 0.82812-0.59375 0.64062-0.90625 1.5781-0.90625 2.6406 0 1.0781 0.32812 2 0.9375 2.6406 0.51562 0.53125 1.1562 0.76562 2.0156 0.76562 1.6094 0 2.5-0.85938 2.7031-2.5938h-0.85938c-0.078125 0.45312-0.17188 0.75-0.29688 1.0156-0.28125 0.53125-0.82812 0.84375-1.5312 0.84375-1.3125 0-2.1406-1.0469-2.1406-2.6875 0-1.6719 0.78125-2.7188 2.0625-2.7188 0.53125 0 1.0312 0.15625 1.2969 0.42188 0.25 0.21875 0.375 0.5 0.48438 0.98438z"/>
</g>
<g id="ac">
<path d="m4.9688-6.5625v4.6094c0 0.875-0.64062 1.4219-1.6875 1.4219-0.48438 0-0.89062-0.10938-1.2031-0.34375-0.32812-0.25-0.46875-0.57812-0.46875-1.0781v-4.6094h-0.84375v4.6094c0 1.3281 0.95312 2.1562 2.5156 2.1562 1.5312 0 2.5312-0.84375 2.5312-2.1562v-4.6094z"/>
</g>
<g id="w">
<path d="m5.3594-4.6406c0-0.4375-0.015625-0.57812-0.17188-0.875-0.35938-0.75-1.125-1.1562-2.2188-1.1562-1.4531 0-2.3438 0.73438-2.3438 1.9219 0 0.8125 0.42188 1.3125 1.2969 1.5312l1.625 0.4375c0.84375 0.21875 1.2031 0.54688 1.2031 1.0625 0 0.34375-0.1875 0.70312-0.46875 0.90625-0.26562 0.1875-0.67188 0.28125-1.2031 0.28125-0.71875 0-1.2031-0.17188-1.5156-0.54688-0.23438-0.29688-0.34375-0.60938-0.34375-1.0156h-0.78125c0 0.60938 0.125 1 0.375 1.3594 0.45312 0.625 1.2188 0.9375 2.2188 0.9375 0.78125 0 1.4219-0.17188 1.8438-0.5 0.4375-0.34375 0.71875-0.9375 0.71875-1.5 0-0.8125-0.51562-1.4062-1.4062-1.6562l-1.6406-0.4375c-0.79688-0.21875-1.0781-0.46875-1.0781-0.96875 0-0.67188 0.57812-1.1094 1.4688-1.1094 1.0469 0 1.625 0.46875 1.6406 1.3281z"/>
</g>
<g id="af">
<path d="m3.5312 0 2.2812-6.5625h-0.90625l-1.8125 5.5469-1.9219-5.5469h-0.90625l2.3594 6.5625z"/>
</g>
<g id="ab">
<path d="m1.6406-2.9844h3.5781v-0.73438h-3.5781v-2.1094h3.7188v-0.73438h-4.5469v6.5625h4.7031v-0.73438h-3.875z"/>
</g>
<g id="aa">
<path d="m2.0625-6.5625-2.1406 6.75h0.5l2.1406-6.75z"/>
</g>
<g id="z">
<path d="m4.8125-0.4375c-0.078125 0.015625-0.10938 0.015625-0.15625 0.015625-0.26562 0-0.40625-0.14062-0.40625-0.375v-2.7656c0-0.84375-0.60938-1.2812-1.7812-1.2812-0.6875 0-1.2344 0.1875-1.5625 0.54688-0.21875 0.23438-0.29688 0.51562-0.32812 0.96875h0.76562c0.0625-0.5625 0.40625-0.82812 1.1094-0.82812 0.67188 0 1.0469 0.25 1.0469 0.70312v0.1875c-0.015625 0.32812-0.17188 0.45312-0.78125 0.53125-1.0625 0.14062-1.2188 0.17188-1.5156 0.28125-0.54688 0.23438-0.82812 0.65625-0.82812 1.2656 0 0.85938 0.59375 1.3906 1.5469 1.3906 0.59375 0 1.0781-0.20312 1.6094-0.6875 0.046875 0.48438 0.28125 0.6875 0.76562 0.6875 0.17188 0 0.26562-0.015625 0.51562-0.078125zm-1.3125-1.0469c0 0.25-0.078125 0.40625-0.29688 0.60938-0.3125 0.28125-0.67188 0.42188-1.1094 0.42188-0.59375 0-0.9375-0.28125-0.9375-0.75 0-0.5 0.32812-0.75 1.1406-0.85938 0.79688-0.10938 0.95312-0.15625 1.2031-0.26562zm-1.2969-4.9531h-0.9375v0.92188h0.9375zm1.4531 0h-0.9375v0.92188h0.9375z"/>
</g>
<clipPath id="au">
<path d="m37 65h1v46h-1z"/>
</clipPath>
<clipPath id="at">
<path d="m-0.47266-0.73828v284h328v-284zm38.5 70.449v-4.6797h-1.8008v4.6797l0.90234-3.6016zm-1.8008 36.84v4.6797h1.8008v-4.6797l-0.89844 3.6016z" clip-rule="evenodd"/>
</clipPath>
<clipPath id="ao">
<path d="m289 65h1v46h-1z"/>
</clipPath>
<clipPath id="an">
<path d="m-0.47266-0.73828v284h328v-284zm290.5 70.449v-4.6797h-1.8008v4.6797l0.90234-3.6016zm-1.8008 36.84v4.6797h1.8008v-4.6797l-0.89844 3.6016z" clip-rule="evenodd"/>
</clipPath>
<clipPath id="am">
<path d="m73 13h48v98h-48z"/>
</clipPath>
<clipPath id="al">
<path d="m-0.47266-0.73828v284h328v-284zm77.59 13.391-4.6797 0.35938 0.15234 1.8008 4.6484-0.36328-3.6289-0.59766zm40.68 93.777-0.6875 4.6523 1.7695 0.26953 0.6875-4.6523-1.4102 3.4531z" clip-rule="evenodd"/>
</clipPath>
<clipPath id="ak">
<path d="m196 13h49v98h-49z"/>
</clipPath>
<clipPath id="aj">
<path d="m-0.47266-0.73828v284h328v-284zm240.28 15.188 4.6484 0.36328 0.15234-1.8008-4.6797-0.35938 3.5391 1.1992zm-42.359 92.25 0.6875 4.6523 1.7695-0.26953-0.6875-4.6523-0.33203 3.7227z" clip-rule="evenodd"/>
</clipPath>
<clipPath id="ai">
<path d="m37 22h1v17h-1z"/>
</clipPath>
<clipPath id="ah">
<path d="m-0.47266-0.73828v284h328v-284zm38.5 27.699v-4.6797h-1.8008v4.6797l0.90234-3.6016zm-1.8008 7.5898v4.6797h1.8008v-4.6797l-0.89844 3.6016z" clip-rule="evenodd"/>
</clipPath>
<clipPath id="as">
<path d="m289 22h1v17h-1z"/>
</clipPath>
<clipPath id="ar">
<path d="m-0.47266-0.73828v284h328v-284zm290.5 27.699v-4.6797h-1.8008v4.6797l0.90234-3.6016zm-1.8008 7.5898v4.6797h1.8008v-4.6797l-0.89844 3.6016z" clip-rule="evenodd"/>
</clipPath>
<clipPath id="aq">
<path d="m163 209h1v19h-1z"/>
</clipPath>
<clipPath id="ap">
<path d="m-0.47266-0.73828v284h328v-284zm164.5 214.48v-4.6797h-1.8008v4.6797l0.90234-3.6016zm-1.8008 9.8086v4.6797h1.8008v-4.6797l-0.89844 3.6016z" clip-rule="evenodd"/>
</clipPath>
</defs>
<path transform="matrix(.1 0 0 -.1 -.472 283.26)" d="m106.01 893.51h900v360h-900z" fill="none" stroke="#000" stroke-miterlimit="10" stroke-width="9"/>
<path transform="matrix(.1 0 0 -.1 -.472 283.26)" d="m1186 803.51h900v630h-900z" fill="none" stroke="#000" stroke-miterlimit="10" stroke-width="9"/>
<path transform="matrix(.1 0 0 -.1 -.472 283.26)" d="m2266 893.51h900v450h-900z" fill="none" stroke="#000" stroke-miterlimit="10" stroke-width="9"/>
<path transform="matrix(.1 0 0 -.1 -.472 283.26)" d="m1186 106.01h900v270h-900z" fill="none" stroke="#000" stroke-miterlimit="10" stroke-width="9"/>
<path transform="matrix(.1 0 0 -.1 -.472 283.26)" d="m2266 106.01h900v270h-900z" fill="none" stroke="#000" stroke-miterlimit="10" stroke-width="9"/>
<path transform="matrix(.1 0 0 -.1 -.472 283.26)" d="m106.01 106.01h900v270h-900z" fill="none" stroke="#000" stroke-miterlimit="10" stroke-width="9"/>
<g clip-path="url(#au)">
<g clip-path="url(#at)">
<path transform="matrix(.1 0 0 -.1 -.472 283.26)" d="m376.01 1726.3v450" fill="none" stroke="#000" stroke-miterlimit="10" stroke-width="2.25"/>
</g>
</g>
<path d="m36.227 106.55 0.90234 3.6016 0.89844-3.6016h-1.8008" fill-rule="evenodd"/>
<path transform="matrix(.1 0 0 -.1 -.472 283.26)" d="m366.99 1767.1 9.0234-36.016 8.9844 36.016z" fill="none" stroke="#000" stroke-miterlimit="10" stroke-width="2.25"/>
<path d="m38.027 69.711-0.89844-3.6016-0.90234 3.6016h1.8008" fill-rule="evenodd"/>
<path transform="matrix(.1 0 0 -.1 -.472 283.26)" d="m384.99 2135.5-8.9844 36.016-9.0234-36.016z" fill="none" stroke="#000" stroke-miterlimit="10" stroke-width="2.25"/>
<g clip-path="url(#ao)">
<g clip-path="url(#an)">
<path transform="matrix(.1 0 0 -.1 -.472 283.26)" d="m2896 1726.3v450" fill="none" stroke="#000" stroke-miterlimit="10" stroke-width="2.25"/>
</g>
</g>
<path d="m288.23 106.55 0.90234 3.6016 0.89844-3.6016h-1.8008" fill-rule="evenodd"/>
<path transform="matrix(.1 0 0 -.1 -.472 283.26)" d="m2887 1767.1 9.0234-36.016 8.9844 36.016z" fill="none" stroke="#000" stroke-miterlimit="10" stroke-width="2.25"/>
<path d="m290.03 69.711-0.89844-3.6016-0.90234 3.6016h1.8008" fill-rule="evenodd"/>
<path transform="matrix(.1 0 0 -.1 -.472 283.26)" d="m2905 2135.5-8.9844 36.016-9.0234-36.016z" fill="none" stroke="#000" stroke-miterlimit="10" stroke-width="2.25"/>
<g clip-path="url(#am)">
<g clip-path="url(#al)">
<path transform="matrix(.1 0 0 -.1 -.472 283.26)" d="m1185.7 1726.3 0.58594 3.9062 0.3125 2.6953 0.3125 3.9062 0.58594 4.4922 0.89844 6.0156 0.89844 6.9141 0.89844 8.3984 1.2109 9.2969 1.2109 10.508 1.1719 11.68 1.2109 12.891 1.5234 14.102 1.4844 14.727 1.4844 15.898 1.7969 16.484 1.5234 17.422 1.4844 17.969 1.2109 18.633 1.4844 18.867 1.2109 19.219 1.2109 19.805 0.89844 20.078 0.58594 20.117 0.625 20.391 0.27344 20.391 0.3125 20.703-0.3125 21.016-0.27344 20.703-0.89844 20.977-0.9375 21.328-1.4844 20.977-1.7969 21.602-2.3828 21.328-2.7344 21.562-3.2812 21.914-3.9062 21.914-4.4922 21.875-4.8047 22.227-5.7031 22.188-6.2891 21.914-6.9141 22.188-7.7734 21.602-8.4375 21.016-8.9844 20.664-11.68 23.438-12.305 22.188-12.93 20.391-13.164 18.594-13.516 17.109-13.516 15.586-13.477 13.828-13.828 12.578-13.789 11.094-13.789 9.9219-13.789 8.9844-14.102 7.8125-13.828 6.9141-13.789 5.9766-13.789 5.3906-13.789 4.8047-13.828 3.9062-13.789 3.3203-13.789 2.9688-13.203 2.4219-13.203 2.1094-13.203 1.7969-12.305 1.1719-12.305 0.89844-11.406 0.89844-10.781 0.625-10.195 0.27344-9.2969 0.3125-8.3984 0.3125h-13.828l-5.3906-0.3125h-10.781l-3.9062-0.3125" fill="none" stroke="#000" stroke-dasharray="18" stroke-linejoin="bevel" stroke-miterlimit="10" stroke-width="2.25"/>
</g>
</g>
<path d="m117.8 106.43 0.35938 3.7227 1.4102-3.4531-1.7695-0.26953" fill-rule="evenodd"/>
<path transform="matrix(.1 0 0 -.1 -.472 283.26)" d="m1182.7 1768.3 3.5938-37.227 14.102 34.531z" fill="none" stroke="#000" stroke-miterlimit="10" stroke-width="2.25"/>
<path d="m77.117 12.652-3.5078 1.1992 3.6289 0.59766-0.12109-1.7969" fill-rule="evenodd"/>
<path transform="matrix(.1 0 0 -.1 -.472 283.26)" d="m775.89 2706.1-35.078-11.992 36.289-5.9766z" fill="none" stroke="#000" stroke-miterlimit="10" stroke-width="2.25"/>
<g clip-path="url(#ak)">
<g clip-path="url(#aj)">
<path transform="matrix(.1 0 0 -.1 -.472 283.26)" d="m1994.2 1726.3-0.625 3.9062-0.27344 2.6953-0.3125 3.9062-0.58594 4.4922-0.89844 6.0156-0.89844 6.9141-0.9375 8.3984-1.1719 9.2969-1.2109 10.508-1.2109 11.68-1.4844 12.891-1.2109 14.102-1.4844 14.727-1.7969 15.898-1.5234 16.484-1.4844 17.422-1.4844 17.969-1.2109 18.633-1.5234 18.867-1.1719 19.219-1.2109 19.805-0.89844 20.078-0.58594 20.117-0.625 20.391-0.58594 20.391v41.719l0.58594 20.703 0.625 20.977 1.1719 21.328 1.5234 20.977 1.7969 21.602 2.3828 21.328 2.6953 21.562 3.3203 21.914 3.9062 21.914 4.1797 21.875 5.1172 22.227 5.7031 22.188 6.2891 21.914 6.9141 22.188 7.7734 21.602 8.3984 21.016 9.0234 20.664 11.68 23.438 12.305 22.188 12.891 20.391 13.203 18.594 13.516 17.109 13.477 15.586 13.828 13.828 13.789 12.578 13.789 11.094 13.828 9.9219 13.789 8.9844 13.789 7.8125 13.789 6.9141 13.828 5.9766 14.102 5.3906 13.789 4.8047 13.789 3.9062 13.789 3.3203 13.516 2.9688 13.516 2.4219 13.203 2.1094 12.891 1.7969 12.578 1.1719 12.031 0.89844 11.68 0.89844 10.82 0.625 10.195 0.27344 9.2969 0.3125 8.3984 0.3125h13.789l5.3906-0.3125h10.82l3.9062-0.3125" fill="none" stroke="#000" stroke-dasharray="18" stroke-linejoin="bevel" stroke-miterlimit="10" stroke-width="2.25"/>
</g>
</g>
<path d="m197.45 106.7 1.4375 3.4531 0.33203-3.7227-1.7695 0.26953" fill-rule="evenodd"/>
<path transform="matrix(.1 0 0 -.1 -.472 283.26)" d="m1979.2 1765.6 14.375-34.531 3.3203 37.227z" fill="none" stroke="#000" stroke-miterlimit="10" stroke-width="2.25"/>
<path d="m239.81 14.449 3.6602-0.59766-3.5391-1.1992-0.12109 1.7969" fill-rule="evenodd"/>
<path transform="matrix(.1 0 0 -.1 -.472 283.26)" d="m2402.8 2688.1 36.602 5.9766-35.391 11.992z" fill="none" stroke="#000" stroke-miterlimit="10" stroke-width="2.25"/>
<path d="m325.13 88.133c0 7.4375-16.117 13.469-36 13.469-19.883 0-36-6.0312-36-13.469 0-7.4414 16.117-13.473 36-13.473 19.883 0 36 6.0312 36 13.473" fill="#fff" fill-rule="evenodd"/>
<path transform="matrix(.1 0 0 -.1 -.472 283.26)" d="m3256 1951.3c0-74.375-161.17-134.69-360-134.69s-360 60.312-360 134.69c0 74.414 161.17 134.73 360 134.73s360-60.312 360-134.73z" fill="none" stroke="#000" stroke-miterlimit="10" stroke-width="2.25"/>
<path d="m154.1 52.133c0 7.4375-16.117 13.469-36 13.469-19.883 0-36-6.0312-36-13.469 0-7.4414 16.117-13.473 36-13.473 19.883 0 36 6.0312 36 13.473" fill="#fff" fill-rule="evenodd"/>
<path transform="matrix(.1 0 0 -.1 -.472 283.26)" d="m1545.7 2311.3c0-74.375-161.17-134.69-360-134.69s-360 60.312-360 134.69c0 74.414 161.17 134.73 360 134.73s360-60.312 360-134.73z" fill="none" stroke="#000" stroke-miterlimit="10" stroke-width="2.25"/>
<path d="m235.31 52.133c0 7.4375-16.117 13.469-36 13.469-19.883 0-36-6.0312-36-13.469 0-7.4414 16.117-13.473 36-13.473 19.883 0 36 6.0312 36 13.473" fill="#fff" fill-rule="evenodd"/>
<path transform="matrix(.1 0 0 -.1 -.472 283.26)" d="m2357.8 2311.3c0-74.375-161.17-134.69-360-134.69s-360 60.312-360 134.69c0 74.414 161.17 134.73 360 134.73s360-60.312 360-134.73z" fill="none" stroke="#000" stroke-miterlimit="10" stroke-width="2.25"/>
<path d="m73.129 88.133c0 7.4375-16.117 13.469-36 13.469-19.883 0-36-6.0312-36-13.469 0-7.4414 16.117-13.473 36-13.473 19.883 0 36 6.0312 36 13.473" fill="#fff" fill-rule="evenodd"/>
<path transform="matrix(.1 0 0 -.1 -.472 283.26)" d="m736.01 1951.3c0-74.375-161.17-134.69-360-134.69s-360 60.312-360 134.69c0 74.414 161.17 134.73 360 134.73s360-60.312 360-134.73z" fill="none" stroke="#000" stroke-miterlimit="10" stroke-width="2.25"/>
<g>
<use x="19.1194" y="15.231" xlink:href="#q"/>
<use x="25.1224" y="15.231" xlink:href="#a"/>
<use x="30.1264" y="15.231" xlink:href="#d"/>
<use x="35.1304" y="15.231" xlink:href="#f"/>
<use x="40.1344" y="15.231" xlink:href="#c"/>
<use x="42.6364" y="15.231" xlink:href="#t"/>
<use x="47.1364" y="15.231" xlink:href="#a"/>
<use x="52.1404" y="15.231" xlink:href="#b"/>
<use x="8.4862" y="50.5712" xlink:href="#s"/>
<use x="14.4892" y="50.5712" xlink:href="#d"/>
<use x="19.4932" y="50.5712" xlink:href="#r"/>
<use x="25.9912" y="50.5712" xlink:href="#a"/>
<use x="30.9952" y="50.5712" xlink:href="#d"/>
<use x="35.9992" y="50.5712" xlink:href="#v"/>
<use x="41.0032" y="50.5712" xlink:href="#f"/>
<use x="46.0072" y="50.5712" xlink:href="#d"/>
<use x="51.0112" y="50.5712" xlink:href="#i"/>
<use x="56.0152" y="50.5712" xlink:href="#e"/>
<use x="60.5152" y="50.5712" xlink:href="#k"/>
<use x="262.2992" y="15.231" xlink:href="#q"/>
<use x="268.3022" y="15.231" xlink:href="#a"/>
<use x="273.3062" y="15.231" xlink:href="#d"/>
<use x="278.3102" y="15.231" xlink:href="#f"/>
<use x="283.3142" y="15.231" xlink:href="#c"/>
<use x="285.8162" y="15.231" xlink:href="#t"/>
<use x="290.3162" y="15.231" xlink:href="#a"/>
<use x="295.3202" y="15.231" xlink:href="#b"/>
<use x="260.48592" y="50.781" xlink:href="#s"/>
<use x="266.48892" y="50.781" xlink:href="#d"/>
<use x="271.49292" y="50.781" xlink:href="#r"/>
<use x="277.99092" y="50.781" xlink:href="#a"/>
<use x="282.99492" y="50.781" xlink:href="#d"/>
<use x="287.99892" y="50.781" xlink:href="#v"/>
<use x="293.00292" y="50.781" xlink:href="#f"/>
<use x="298.00692" y="50.781" xlink:href="#d"/>
<use x="303.01092" y="50.781" xlink:href="#i"/>
<use x="308.01492" y="50.781" xlink:href="#e"/>
<use x="312.51492" y="50.781" xlink:href="#k"/>
<use x="269.49608" y="60.681" xlink:href="#o"/>
<use x="274.50008" y="60.681" xlink:href="#b"/>
<use x="277.49708" y="60.681" xlink:href="#p"/>
<use x="282.50108" y="60.681" xlink:href="#i"/>
<use x="287.50508" y="60.681" xlink:href="#b"/>
<use x="290.50208" y="60.681" xlink:href="#j"/>
<use x="295.50608" y="60.681" xlink:href="#l"/>
<use x="303.00308" y="60.681" xlink:href="#l"/>
<use x="16.62608" y="60.471234" xlink:href="#o"/>
<use x="21.63008" y="60.471234" xlink:href="#b"/>
<use x="24.62708" y="60.471234" xlink:href="#p"/>
<use x="29.63108" y="60.471234" xlink:href="#i"/>
<use x="34.63508" y="60.471234" xlink:href="#b"/>
<use x="37.63208" y="60.471234" xlink:href="#j"/>
<use x="42.63608" y="60.471234" xlink:href="#l"/>
<use x="50.13308" y="60.471234" xlink:href="#l"/>
<use x="12.06944" y="88.131034" xlink:href="#u"/>
<use x="18.07244" y="88.131034" xlink:href="#b"/>
<use x="21.06944" y="88.131034" xlink:href="#p"/>
<use x="26.07344" y="88.131034" xlink:href="#i"/>
<use x="31.07744" y="88.131034" xlink:href="#b"/>
<use x="34.07444" y="88.131034" xlink:href="#j"/>
<use x="39.07844" y="88.131034" xlink:href="#l"/>
<use x="46.57544" y="88.131034" xlink:href="#l"/>
<use x="54.07244" y="88.131034" xlink:href="#g"/>
<use x="56.07044" y="88.131034" xlink:href="#a"/>
<use x="61.07444" y="88.131034" xlink:href="#b"/>
<use x="64.07144" y="88.131034" xlink:href="#k"/>
<use x="14.49092" y="97.131034" xlink:href="#e"/>
<use x="18.99092" y="97.131034" xlink:href="#n"/>
<use x="23.49092" y="97.131034" xlink:href="#m"/>
<use x="28.49492" y="97.131034" xlink:href="#d"/>
<use x="33.49892" y="97.131034" xlink:href="#g"/>
<use x="35.49692" y="97.131034" xlink:href="#c"/>
<use x="37.99892" y="97.131034" xlink:href="#c"/>
<use x="40.50092" y="97.131034" xlink:href="#e"/>
<use x="45.00092" y="97.131034" xlink:href="#c"/>
<use x="47.50292" y="97.131034" xlink:href="#a"/>
<use x="52.50692" y="97.131034" xlink:href="#h"/>
<use x="54.50492" y="97.131034" xlink:href="#h"/>
<use x="56.50292" y="97.131034" xlink:href="#a"/>
<use x="178.05092" y="60.231034" xlink:href="#e"/>
<use x="182.55092" y="60.231034" xlink:href="#n"/>
<use x="187.05092" y="60.231034" xlink:href="#m"/>
<use x="192.05492" y="60.231034" xlink:href="#d"/>
<use x="197.05892" y="60.231034" xlink:href="#g"/>
<use x="199.05692" y="60.231034" xlink:href="#c"/>
<use x="201.55892" y="60.231034" xlink:href="#c"/>
<use x="204.06092" y="60.231034" xlink:href="#e"/>
<use x="208.56092" y="60.231034" xlink:href="#c"/>
<use x="211.06292" y="60.231034" xlink:href="#a"/>
<use x="216.06692" y="60.231034" xlink:href="#h"/>
<use x="218.06492" y="60.231034" xlink:href="#h"/>
<use x="220.06292" y="60.231034" xlink:href="#a"/>
<use x="180.92123" y="50.781034" xlink:href="#q"/>
<use x="186.92423" y="50.781034" xlink:href="#a"/>
<use x="191.92823" y="50.781034" xlink:href="#d"/>
<use x="196.93223" y="50.781034" xlink:href="#f"/>
<use x="201.93623" y="50.781034" xlink:href="#c"/>
<use x="204.43823" y="50.781034" xlink:href="#t"/>
<use x="208.93823" y="50.781034" xlink:href="#a"/>
<use x="213.94223" y="50.781034" xlink:href="#b"/>
<use x="216.93923" y="50.781034" xlink:href="#k"/>
<use x="264.06923" y="88.131034" xlink:href="#u"/>
<use x="270.07223" y="88.131034" xlink:href="#b"/>
<use x="273.06923" y="88.131034" xlink:href="#p"/>
<use x="278.07323" y="88.131034" xlink:href="#i"/>
<use x="283.07723" y="88.131034" xlink:href="#b"/>
<use x="286.07423" y="88.131034" xlink:href="#j"/>
<use x="291.07823" y="88.131034" xlink:href="#l"/>
<use x="298.57523" y="88.131034" xlink:href="#l"/>
<use x="306.07223" y="88.131034" xlink:href="#g"/>
<use x="308.07023" y="88.131034" xlink:href="#a"/>
<use x="313.07423" y="88.131034" xlink:href="#b"/>
<use x="316.07123" y="88.131034" xlink:href="#k"/>
<use x="266.49071" y="97.131034" xlink:href="#e"/>
<use x="270.99071" y="97.131034" xlink:href="#n"/>
<use x="275.49071" y="97.131034" xlink:href="#m"/>
<use x="280.49471" y="97.131034" xlink:href="#d"/>
<use x="285.49871" y="97.131034" xlink:href="#g"/>
<use x="287.49671" y="97.131034" xlink:href="#c"/>
<use x="289.99871" y="97.131034" xlink:href="#c"/>
<use x="292.50071" y="97.131034" xlink:href="#e"/>
<use x="297.00071" y="97.131034" xlink:href="#c"/>
<use x="299.50271" y="97.131034" xlink:href="#a"/>
<use x="304.50671" y="97.131034" xlink:href="#h"/>
<use x="306.50471" y="97.131034" xlink:href="#h"/>
<use x="308.50271" y="97.131034" xlink:href="#a"/>
<use x="96.84071" y="60.231034" xlink:href="#e"/>
<use x="101.34071" y="60.231034" xlink:href="#n"/>
<use x="105.84071" y="60.231034" xlink:href="#m"/>
<use x="110.84471" y="60.231034" xlink:href="#d"/>
<use x="115.84871" y="60.231034" xlink:href="#g"/>
<use x="117.84671" y="60.231034" xlink:href="#c"/>
<use x="120.34871" y="60.231034" xlink:href="#c"/>
<use x="122.85071" y="60.231034" xlink:href="#e"/>
<use x="127.35071" y="60.231034" xlink:href="#c"/>
<use x="129.85271" y="60.231034" xlink:href="#a"/>
<use x="134.85671" y="60.231034" xlink:href="#h"/>
<use x="136.85471" y="60.231034" xlink:href="#h"/>
<use x="138.85271" y="60.231034" xlink:href="#a"/>
<use x="99.71102" y="50.781034" xlink:href="#q"/>
<use x="105.71402" y="50.781034" xlink:href="#a"/>
<use x="110.71802" y="50.781034" xlink:href="#d"/>
<use x="115.72202" y="50.781034" xlink:href="#f"/>
<use x="120.72602" y="50.781034" xlink:href="#c"/>
<use x="123.22802" y="50.781034" xlink:href="#t"/>
<use x="127.72802" y="50.781034" xlink:href="#a"/>
<use x="132.73202" y="50.781034" xlink:href="#b"/>
<use x="135.72902" y="50.781034" xlink:href="#k"/>
<use x="127.84152" y="130.911134" xlink:href="#q"/>
<use x="133.84452" y="130.911134" xlink:href="#a"/>
<use x="138.84852" y="130.911134" xlink:href="#c"/>
<use x="141.35052" y="130.911134" xlink:href="#b"/>
<use x="144.34752" y="130.911134" xlink:href="#g"/>
<use x="146.34552" y="130.911134" xlink:href="#a"/>
<use x="151.34952" y="130.911134" xlink:href="#y"/>
<use x="156.35352" y="130.911134" xlink:href="#e"/>
<use x="160.85352" y="130.911134" xlink:href="#e"/>
<use x="165.35352" y="130.911134" xlink:href="#ag"/>
<use x="169.85352" y="130.911134" xlink:href="#e"/>
<use x="174.35352" y="130.911134" xlink:href="#c"/>
<use x="176.85552" y="130.911134" xlink:href="#a"/>
<use x="181.85952" y="130.911134" xlink:href="#l"/>
<use x="141.37082" y="164.661134" xlink:href="#ae"/>
<use x="145.87082" y="164.661134" xlink:href="#a"/>
<use x="150.87482" y="164.661134" xlink:href="#b"/>
<use x="153.87182" y="164.661134" xlink:href="#r"/>
<use x="160.36982" y="164.661134" xlink:href="#j"/>
<use x="165.37382" y="164.661134" xlink:href="#h"/>
<use x="167.37182" y="164.661134" xlink:href="#c"/>
<use x="169.87382" y="164.661134" xlink:href="#f"/>
<use x="174.87782" y="164.661134" xlink:href="#d"/>
<use x="179.88182" y="164.661134" xlink:href="#i"/>
<use x="131.48918" y="151.161134" xlink:href="#x"/>
<use x="137.98718" y="151.161134" xlink:href="#j"/>
<use x="142.99118" y="151.161134" xlink:href="#f"/>
<use x="147.99518" y="151.161134" xlink:href="#o"/>
<use x="152.99918" y="151.161134" xlink:href="#c"/>
<use x="155.50118" y="151.161134" xlink:href="#e"/>
<use x="160.00118" y="151.161134" xlink:href="#o"/>
<use x="165.00518" y="151.161134" xlink:href="#a"/>
<use x="170.00918" y="151.161134" xlink:href="#g"/>
<use x="172.00718" y="151.161134" xlink:href="#n"/>
<use x="176.50718" y="151.161134" xlink:href="#m"/>
<use x="181.51118" y="151.161134" xlink:href="#a"/>
<use x="186.51518" y="151.161134" xlink:href="#b"/>
<use x="189.51218" y="151.161134" xlink:href="#k"/>
<use x="22.74218" y="180.411134" xlink:href="#ad"/>
<use x="29.24018" y="180.411134" xlink:href="#u"/>
<use x="35.24318" y="180.411134" xlink:href="#ac"/>
<use x="41.74118" y="180.411134" xlink:href="#k"/>
<use x="46.99718" y="180.411134" xlink:href="#w"/>
<use x="53.00018" y="180.411134" xlink:href="#n"/>
<use x="57.50018" y="180.411134" xlink:href="#m"/>
<use x="62.50418" y="180.411134" xlink:href="#a"/>
<use x="67.50818" y="180.411134" xlink:href="#v"/>
<use x="72.51218" y="180.411134" xlink:href="#f"/>
<use x="77.51618" y="180.411134" xlink:href="#h"/>
<use x="79.51418" y="180.411134" xlink:href="#a"/>
<use x="84.51818" y="180.411134" xlink:href="#b"/>
<use x="145.37582" y="180.411134" xlink:href="#af"/>
<use x="151.37882" y="180.411134" xlink:href="#g"/>
<use x="153.37682" y="180.411134" xlink:href="#b"/>
<use x="156.37382" y="180.411134" xlink:href="#c"/>
<use x="158.87582" y="180.411134" xlink:href="#f"/>
<use x="163.87982" y="180.411134" xlink:href="#a"/>
<use x="168.88382" y="180.411134" xlink:href="#h"/>
<use x="170.88182" y="180.411134" xlink:href="#h"/>
<use x="172.87982" y="180.411134" xlink:href="#a"/>
<use x="177.88382" y="180.411134" xlink:href="#b"/>
<use x="145.37118" y="193.911134" xlink:href="#w"/>
<use x="151.37418" y="193.911134" xlink:href="#o"/>
<use x="156.37818" y="193.911134" xlink:href="#a"/>
<use x="161.38218" y="193.911134" xlink:href="#g"/>
<use x="163.38018" y="193.911134" xlink:href="#n"/>
<use x="167.88018" y="193.911134" xlink:href="#m"/>
<use x="172.88418" y="193.911134" xlink:href="#a"/>
<use x="177.88818" y="193.911134" xlink:href="#b"/>
<use x="241.86028" y="166.911134" xlink:href="#w"/>
<use x="247.86328" y="166.911134" xlink:href="#c"/>
<use x="250.36528" y="166.911134" xlink:href="#a"/>
<use x="255.36928" y="166.911134" xlink:href="#f"/>
<use x="260.37328" y="166.911134" xlink:href="#a"/>
<use x="265.37728" y="166.911134" xlink:href="#b"/>
<use x="268.37428" y="166.911134" xlink:href="#f"/>
<use x="273.37828" y="166.911134" xlink:href="#d"/>
<use x="278.38228" y="166.911134" xlink:href="#i"/>
<use x="283.38628" y="166.911134" xlink:href="#glyph-0-31"/>
<use x="285.88828" y="166.911134" xlink:href="#ae"/>
<use x="290.38828" y="166.911134" xlink:href="#p"/>
<use x="295.39228" y="166.911134" xlink:href="#d"/>
</g>
<path transform="matrix(.1 0 0 -.1 -.472 283.26)" d="m16.009 16.008h3240v540.27h-3240z" fill="none" stroke="#000" stroke-miterlimit="10" stroke-width="18"/>
<g>
<use x="227.727" y="184.911" xlink:href="#ab"/>
<use x="233.73" y="184.911" xlink:href="#g"/>
<use x="235.728" y="184.911" xlink:href="#d"/>
<use x="240.732" y="184.911" xlink:href="#k"/>
<use x="245.988" y="184.911" xlink:href="#aa"/>
<use x="248.49" y="184.911" xlink:href="#s"/>
<use x="254.493" y="184.911" xlink:href="#f"/>
<use x="259.497" y="184.911" xlink:href="#e"/>
<use x="263.997" y="184.911" xlink:href="#i"/>
<use x="269.001" y="184.911" xlink:href="#j"/>
<use x="274.005" y="184.911" xlink:href="#y"/>
<use x="279.009" y="184.911" xlink:href="#a"/>
<use x="284.013" y="184.911" xlink:href="#i"/>
<use x="289.017" y="184.911" xlink:href="#a"/>
<use x="294.021" y="184.911" xlink:href="#b"/>
<use x="297.018" y="184.911" xlink:href="#z"/>
<use x="302.022" y="184.911" xlink:href="#c"/>
<use x="304.524" y="184.911" xlink:href="#a"/>
<use x="309.528" y="184.911" xlink:href="#d"/>
<use x="45.629" y="263.661" xlink:href="#ad"/>
<use x="52.127" y="263.661" xlink:href="#u"/>
<use x="58.13" y="263.661" xlink:href="#ac"/>
<use x="139.0958" y="240.2309" xlink:href="#x"/>
<use x="145.5938" y="240.2309" xlink:href="#j"/>
<use x="150.5978" y="240.2309" xlink:href="#b"/>
<use x="153.5948" y="240.2309" xlink:href="#v"/>
<use x="158.5988" y="240.2309" xlink:href="#r"/>
<use x="165.0968" y="240.2309" xlink:href="#j"/>
<use x="170.1008" y="240.2309" xlink:href="#b"/>
<use x="173.0978" y="240.2309" xlink:href="#a"/>
<use x="134.11767" y="263.661" xlink:href="#x"/>
<use x="140.61567" y="263.661" xlink:href="#j"/>
<use x="145.61967" y="263.661" xlink:href="#f"/>
<use x="150.62367" y="263.661" xlink:href="#o"/>
<use x="155.62767" y="263.661" xlink:href="#c"/>
<use x="158.12967" y="263.661" xlink:href="#e"/>
<use x="162.62967" y="263.661" xlink:href="#o"/>
<use x="167.63367" y="263.661" xlink:href="#a"/>
<use x="172.63767" y="263.661" xlink:href="#g"/>
<use x="174.63567" y="263.661" xlink:href="#n"/>
<use x="179.13567" y="263.661" xlink:href="#m"/>
<use x="184.13967" y="263.661" xlink:href="#a"/>
<use x="189.14367" y="263.661" xlink:href="#b"/>
<use x="230.22903" y="263.661" xlink:href="#ab"/>
<use x="236.23203" y="263.661" xlink:href="#g"/>
<use x="238.23003" y="263.661" xlink:href="#d"/>
<use x="243.23403" y="263.661" xlink:href="#k"/>
<use x="248.49003" y="263.661" xlink:href="#aa"/>
<use x="250.99203" y="263.661" xlink:href="#s"/>
<use x="256.99503" y="263.661" xlink:href="#f"/>
<use x="261.99903" y="263.661" xlink:href="#e"/>
<use x="266.49903" y="263.661" xlink:href="#i"/>
<use x="271.50303" y="263.661" xlink:href="#j"/>
<use x="276.50703" y="263.661" xlink:href="#y"/>
<use x="281.51103" y="263.661" xlink:href="#a"/>
<use x="286.51503" y="263.661" xlink:href="#i"/>
<use x="291.51903" y="263.661" xlink:href="#a"/>
<use x="296.52303" y="263.661" xlink:href="#b"/>
<use x="299.52003" y="263.661" xlink:href="#z"/>
<use x="304.52403" y="263.661" xlink:href="#c"/>
<use x="307.02603" y="263.661" xlink:href="#a"/>
</g>
<path transform="matrix(.1 0 0 -.1 -.472 283.26)" d="m736.01 2716c0-61.953-161.17-112.23-360-112.23s-360 50.273-360 112.23 161.17 112.19 360 112.19 360-50.234 360-112.19z" fill="none" stroke="#000" stroke-miterlimit="10" stroke-width="2.25"/>
<path transform="matrix(.1 0 0 -.1 -.472 283.26)" d="m3165.7 2716.3c0-61.953-161.17-112.19-360-112.19s-360 50.234-360 112.19c0 61.992 161.17 112.23 360 112.23s360-50.234 360-112.23z" fill="none" stroke="#000" stroke-miterlimit="10" stroke-width="2.25"/>
<path transform="matrix(.1 0 0 -.1 -.472 283.26)" d="m16.009 2176.3h720v270h-720z" fill="none" stroke="#000" stroke-miterlimit="10" stroke-width="2.25"/>
<path transform="matrix(.1 0 0 -.1 -.472 283.26)" d="m374.8 1996.3h2.3828" fill="none" stroke="#000" stroke-miterlimit="10" stroke-width="2.25"/>
<g clip-path="url(#ai)">
<g clip-path="url(#ah)">
<path transform="matrix(.1 0 0 -.1 -.472 283.26)" d="m376.01 2446.3v157.5" fill="none" stroke="#000" stroke-miterlimit="10" stroke-width="2.25"/>
</g>
</g>
<path d="m36.227 34.551 0.90234 3.6016 0.89844-3.6016h-1.8008" fill-rule="evenodd"/>
<path transform="matrix(.1 0 0 -.1 -.472 283.26)" d="m366.99 2487.1 9.0234-36.016 8.9844 36.016z" fill="none" stroke="#000" stroke-miterlimit="10" stroke-width="2.25"/>
<path d="m38.027 26.961-0.89844-3.6016-0.90234 3.6016h1.8008" fill-rule="evenodd"/>
<path transform="matrix(.1 0 0 -.1 -.472 283.26)" d="m384.99 2563-8.9844 36.016-9.0234-36.016z" fill="none" stroke="#000" stroke-miterlimit="10" stroke-width="2.25"/>
<path transform="matrix(.1 0 0 -.1 -.472 283.26)" d="m2536 2176.3h720v270h-720z" fill="none" stroke="#000" stroke-miterlimit="10" stroke-width="2.25"/>
<g clip-path="url(#as)">
<g clip-path="url(#ar)">
<path transform="matrix(.1 0 0 -.1 -.472 283.26)" d="m2896 2446.3v157.5" fill="none" stroke="#000" stroke-miterlimit="10" stroke-width="2.25"/>
</g>
</g>
<path d="m288.23 34.551 0.90234 3.6016 0.89844-3.6016h-1.8008" fill-rule="evenodd"/>
<path transform="matrix(.1 0 0 -.1 -.472 283.26)" d="m2887 2487.1 9.0234-36.016 8.9844 36.016z" fill="none" stroke="#000" stroke-miterlimit="10" stroke-width="2.25"/>
<path d="m290.03 26.961-0.89844-3.6016-0.90234 3.6016h1.8008" fill-rule="evenodd"/>
<path transform="matrix(.1 0 0 -.1 -.472 283.26)" d="m2905 2563-8.9844 36.016-9.0234-36.016z" fill="none" stroke="#000" stroke-miterlimit="10" stroke-width="2.25"/>
<g clip-path="url(#aq)">
<g clip-path="url(#ap)">
<path transform="matrix(.1 0 0 -.1 -.472 283.26)" d="m1636 556.28v179.73" fill="none" stroke="#000" stroke-miterlimit="10" stroke-width="2.25"/>
</g>
</g>
<path d="m162.23 223.55 0.90234 3.6016 0.89844-3.6016h-1.8008" fill-rule="evenodd"/>
<path transform="matrix(.1 0 0 -.1 -.472 283.26)" d="m1627 597.1 9.0234-36.016 8.9844 36.016z" fill="none" stroke="#000" stroke-miterlimit="10" stroke-width="2.25"/>
<path d="m164.03 213.74-0.89844-3.6016-0.90234 3.6016h1.8008" fill-rule="evenodd"/>
<path transform="matrix(.1 0 0 -.1 -.472 283.26)" d="m1645 695.19-8.9844 36.016-9.0234-36.016z" fill="none" stroke="#000" stroke-miterlimit="10" stroke-width="2.25"/>
<path transform="matrix(.1 0 0 -.1 -.472 283.26)" d="m16.009 713.51h3240v990h-3240z" fill="none" stroke="#000" stroke-miterlimit="10" stroke-width="18"/>
</svg>
