<svg width="346pt" height="258pt" version="1.1" viewBox="0 0 346 258" xmlns="http://www.w3.org/2000/svg" xmlns:xlink="http://www.w3.org/1999/xlink">
<defs>
<g id="e">
<path d="m3.9375-3.4062c0-0.92188-0.60938-1.4375-1.7031-1.4375s-1.8125 0.5625-1.8125 1.4375c0 0.73438 0.375 1.0781 1.5 1.3594l0.70312 0.17188c0.51562 0.125 0.71875 0.3125 0.71875 0.64062 0 0.45312-0.4375 0.75-1.0938 0.75-0.40625 0-0.75-0.125-0.9375-0.3125-0.10938-0.14062-0.17188-0.28125-0.21875-0.60938h-0.78125c0.03125 1.0938 0.64062 1.6094 1.875 1.6094 1.1875 0 1.9375-0.57812 1.9375-1.4844 0-0.70312-0.39062-1.0938-1.3281-1.3125l-0.71875-0.17188c-0.60938-0.15625-0.875-0.34375-0.875-0.6875 0-0.4375 0.39062-0.70312 1-0.70312s0.92188 0.26562 0.95312 0.75z"/>
</g>
<g id="o">
<path d="m4.2344-3.125c-0.03125-0.46875-0.125-0.76562-0.3125-1.0312-0.32812-0.4375-0.89062-0.6875-1.5469-0.6875-1.2812 0-2.0938 1-2.0938 2.5625 0 1.5312 0.8125 2.4844 2.0781 2.4844 1.125 0 1.8438-0.67188 1.9375-1.8281h-0.76562c-0.125 0.76562-0.5 1.1406-1.1406 1.1406-0.82812 0-1.3281-0.67188-1.3281-1.7969 0-1.1719 0.48438-1.875 1.2969-1.875 0.64062 0 1.0312 0.375 1.125 1.0312z"/>
</g>
<g id="m">
<path d="m0.625-6.5625v6.5625h0.75v-2.5938c0-0.96875 0.5-1.5938 1.2812-1.5938 0.25 0 0.48438 0.0625 0.67188 0.20312 0.20312 0.15625 0.29688 0.39062 0.29688 0.71875v3.2656h0.75v-3.5625c0-0.79688-0.5625-1.2812-1.4844-1.2812-0.67188 0-1.0781 0.20312-1.5156 0.78125v-2.5z"/>
</g>
<g id="d">
<path d="m0.625-4.7188v4.7188h0.76562v-2.5938c0-0.96875 0.5-1.5938 1.2656-1.5938 0.60938 0 0.98438 0.35938 0.98438 0.92188v3.2656h0.75v-3.5625c0-0.78125-0.59375-1.2812-1.5-1.2812-0.70312 0-1.1562 0.26562-1.5625 0.92188v-0.79688z"/>
</g>
<g id="f">
<path d="m1.3438-4.7188h-0.73438v4.7188h0.73438zm0-1.8438h-0.75v0.95312h0.75z"/>
</g>
<g id="b">
<path d="m2.2812-4.7188h-0.76562v-1.2969h-0.75v1.2969h-0.64062v0.60938h0.64062v3.5625c0 0.5 0.32812 0.75 0.90625 0.75 0.20312 0 0.35938-0.015625 0.60938-0.0625v-0.625c-0.10938 0.03125-0.20312 0.03125-0.35938 0.03125-0.3125 0-0.40625-0.09375-0.40625-0.42188v-3.2344h0.76562z"/>
</g>
<g id="a">
<path d="m4.6094-2.1094c0-0.71875-0.046875-1.1562-0.1875-1.5-0.29688-0.78125-1.0156-1.2344-1.9062-1.2344-1.3125 0-2.1562 0.98438-2.1562 2.5469s0.8125 2.5 2.1406 2.5c1.0781 0 1.8281-0.60938 2.0156-1.6406h-0.75c-0.20312 0.625-0.64062 0.95312-1.2344 0.95312-0.48438 0-0.89062-0.21875-1.1406-0.60938-0.17188-0.28125-0.23438-0.54688-0.25-1.0156zm-3.4531-0.60938c0.0625-0.875 0.59375-1.4375 1.3594-1.4375s1.2969 0.59375 1.2969 1.4375z"/>
</g>
<g id="h">
<path d="m1.375-6.5625h-0.76562v6.5625h0.76562z"/>
</g>
<g id="p">
<path d="m4.2656-1.9688 0.67188 1.9688h0.9375l-2.2969-6.5625h-1.0781l-2.3438 6.5625h0.89062l0.6875-1.9688zm-0.23438-0.70312h-2.0938l1.0938-2.9844z"/>
</g>
<g id="v">
<path d="m4.9844 0 1.3906-4.7188h-0.84375l-0.9375 3.6719-0.9375-3.6719h-0.90625l-0.90625 3.6719-0.96875-3.6719h-0.82812l1.375 4.7188h0.84375l0.90625-3.7031 0.95312 3.7031z"/>
</g>
<g id="u">
<path d="m4.4531-6.5625h-0.75v2.4375c-0.3125-0.46875-0.8125-0.71875-1.4375-0.71875-1.2344 0-2.0312 0.96875-2.0312 2.4844 0 1.5781 0.78125 2.5625 2.0469 2.5625 0.65625 0 1.1094-0.23438 1.5-0.82812v0.625h0.67188zm-2.0625 2.4062c0.79688 0 1.3125 0.71875 1.3125 1.8594 0 1.0781-0.51562 1.7969-1.3125 1.7969-0.82812 0-1.375-0.71875-1.375-1.8281 0-1.0938 0.54688-1.8281 1.375-1.8281z"/>
</g>
<g id="j">
<path d="m4.3438 0v-4.7188h-0.75v2.6719c0 0.96875-0.5 1.5938-1.2969 1.5938-0.59375 0-0.96875-0.35938-0.96875-0.92188v-3.3438h-0.75v3.6406c0 0.78125 0.59375 1.2812 1.5156 1.2812 0.6875 0 1.125-0.23438 1.5625-0.85938v0.65625z"/>
</g>
<g id="l">
<path d="m3.6406-4.7188v0.6875c-0.375-0.5625-0.79688-0.8125-1.3906-0.8125-1.1406 0-1.9375 1.0625-1.9375 2.5625 0 0.79688 0.1875 1.375 0.59375 1.8438 0.35938 0.42188 0.79688 0.64062 1.2969 0.64062 0.5625 0 0.96875-0.25 1.3594-0.84375v0.25c0 1.25-0.34375 1.7188-1.2812 1.7188-0.64062 0-0.96875-0.25-1.0469-0.78125h-0.76562c0.078125 0.85938 0.76562 1.4219 1.7969 1.4219 0.6875 0 1.2656-0.23438 1.5625-0.60938 0.35938-0.4375 0.5-1.0312 0.5-2.1406v-3.9375zm-1.3125 0.5625c0.78125 0 1.2344 0.67188 1.2344 1.8594 0 1.1406-0.45312 1.8125-1.2344 1.8125s-1.2344-0.67188-1.2344-1.8438c0-1.1406 0.45312-1.8281 1.2344-1.8281z"/>
</g>
<g id="k">
<path d="m4.8906-2.4062h-4.5312v0.64062h4.5312z"/>
</g>
<g id="s">
<path d="m0.48438 1.9688h0.75v-2.4688c0.40625 0.48438 0.84375 0.70312 1.4531 0.70312 1.2344 0 2.0156-0.98438 2.0156-2.4844 0-1.5781-0.76562-2.5625-2.0156-2.5625-0.64062 0-1.1562 0.28125-1.5156 0.84375v-0.71875h-0.6875zm2.0781-6.125c0.82812 0 1.3594 0.73438 1.3594 1.8594 0 1.0781-0.54688 1.7969-1.3594 1.7969s-1.3281-0.71875-1.3281-1.8281c0-1.0938 0.51562-1.8281 1.3281-1.8281z"/>
</g>
<g id="c">
<path d="m0.625-4.7188v4.7188h0.75v-2.4531c0.015625-1.125 0.48438-1.6406 1.5156-1.6094v-0.76562c-0.125-0.015625-0.20312-0.015625-0.29688-0.015625-0.48438 0-0.84375 0.28125-1.2812 0.98438v-0.85938z"/>
</g>
<g id="r">
<path d="m2.4531-4.8438c-1.3438 0-2.125 0.9375-2.125 2.5156 0 1.5938 0.78125 2.5312 2.125 2.5312 1.3281 0 2.1406-0.9375 2.1406-2.4844 0-1.6406-0.78125-2.5625-2.1406-2.5625zm0 0.6875c0.84375 0 1.3594 0.6875 1.3594 1.8594 0 1.125-0.53125 1.8125-1.3594 1.8125s-1.3438-0.6875-1.3438-1.8438c0-1.1406 0.51562-1.8281 1.3438-1.8281z"/>
</g>
<g id="i">
<path d="m4.8125-0.4375c-0.078125 0.015625-0.10938 0.015625-0.15625 0.015625-0.26562 0-0.40625-0.14062-0.40625-0.375v-2.7656c0-0.84375-0.60938-1.2812-1.7812-1.2812-0.6875 0-1.2344 0.1875-1.5625 0.54688-0.21875 0.23438-0.29688 0.51562-0.32812 0.96875h0.76562c0.0625-0.5625 0.40625-0.82812 1.1094-0.82812 0.67188 0 1.0469 0.25 1.0469 0.70312v0.1875c-0.015625 0.32812-0.17188 0.45312-0.78125 0.53125-1.0625 0.14062-1.2188 0.17188-1.5156 0.28125-0.54688 0.23438-0.82812 0.65625-0.82812 1.2656 0 0.85938 0.59375 1.3906 1.5469 1.3906 0.59375 0 1.0781-0.20312 1.6094-0.6875 0.046875 0.48438 0.28125 0.6875 0.76562 0.6875 0.17188 0 0.26562-0.015625 0.51562-0.078125zm-1.3125-1.0469c0 0.25-0.078125 0.40625-0.29688 0.60938-0.3125 0.28125-0.67188 0.42188-1.1094 0.42188-0.59375 0-0.9375-0.28125-0.9375-0.75 0-0.5 0.32812-0.75 1.1406-0.85938 0.79688-0.10938 0.95312-0.15625 1.2031-0.26562z"/>
</g>
<g id="g">
<path d="m0.625-4.7188v4.7188h0.76562v-2.9688c0-0.67188 0.48438-1.2188 1.1094-1.2188 0.54688 0 0.85938 0.32812 0.85938 0.9375v3.25h0.76562v-2.9688c0-0.67188 0.48438-1.2188 1.1094-1.2188 0.54688 0 0.875 0.34375 0.875 0.9375v3.25h0.75v-3.5312c0-0.85938-0.48438-1.3125-1.375-1.3125-0.625 0-1 0.1875-1.4375 0.71875-0.28125-0.51562-0.65625-0.71875-1.2812-0.71875s-1.0469 0.23438-1.4375 0.79688v-0.67188z"/>
</g>
<g id="n">
<path d="m0.71875 0h2.9531c0.625 0 1.0781-0.17188 1.4375-0.54688 0.3125-0.34375 0.5-0.8125 0.5-1.3281 0-0.78125-0.35938-1.2656-1.2031-1.5938 0.60938-0.28125 0.90625-0.75 0.90625-1.4219 0-0.48438-0.17188-0.90625-0.51562-1.2188s-0.79688-0.45312-1.4219-0.45312h-2.6562zm0.82812-3.7344v-2.0938h1.625c0.46875 0 0.71875 0.0625 0.95312 0.23438 0.23438 0.1875 0.35938 0.45312 0.35938 0.8125s-0.125 0.625-0.35938 0.8125c-0.23438 0.17188-0.48438 0.23438-0.95312 0.23438zm0 3v-2.2656h2.0469c0.73438 0 1.1719 0.42188 1.1719 1.1406 0 0.70312-0.4375 1.125-1.1719 1.125z"/>
</g>
<g id="q">
<path d="m3.9844-4.7188h-3.5156v0.65625h2.625l-2.8125 3.3906v0.67188h3.8281v-0.65625h-2.9219l2.7969-3.3906z"/>
</g>
<g id="x">
<path d="m0.48438-6.5625v6.5625h0.67188v-0.60938c0.35938 0.5625 0.84375 0.8125 1.5 0.8125 1.2344 0 2.0469-1.0156 2.0469-2.5781 0-1.5312-0.76562-2.4688-2.0156-2.4688-0.64062 0-1.1094 0.23438-1.4531 0.76562v-2.4844zm2.0625 2.4062c0.84375 0 1.375 0.73438 1.375 1.8594 0 1.0781-0.5625 1.7969-1.375 1.7969-0.79688 0-1.3125-0.71875-1.3125-1.8281 0-1.0938 0.51562-1.8281 1.3125-1.8281z"/>
</g>
<g id="ae">
<path d="m3.4844-4.7188-1.2969 3.6719-1.2031-3.6719h-0.79688l1.5781 4.7344-0.28125 0.75c-0.125 0.32812-0.28125 0.45312-0.60938 0.45312-0.125 0-0.23438-0.015625-0.39062-0.046875v0.67188c0.15625 0.078125 0.3125 0.125 0.5 0.125 0.25 0 0.51562-0.09375 0.70312-0.23438 0.23438-0.17188 0.375-0.35938 0.51562-0.75l2.0938-5.7031z"/>
</g>
<g id="ad">
<path d="m1.75-6.5625h-0.84375v6.5625h0.84375z"/>
</g>
<g id="ac">
<path d="m5.3594-4.6406c0-0.4375-0.015625-0.57812-0.17188-0.875-0.35938-0.75-1.125-1.1562-2.2188-1.1562-1.4531 0-2.3438 0.73438-2.3438 1.9219 0 0.8125 0.42188 1.3125 1.2969 1.5312l1.625 0.4375c0.84375 0.21875 1.2031 0.54688 1.2031 1.0625 0 0.34375-0.1875 0.70312-0.46875 0.90625-0.26562 0.1875-0.67188 0.28125-1.2031 0.28125-0.71875 0-1.2031-0.17188-1.5156-0.54688-0.23438-0.29688-0.34375-0.60938-0.34375-1.0156h-0.78125c0 0.60938 0.125 1 0.375 1.3594 0.45312 0.625 1.2188 0.9375 2.2188 0.9375 0.78125 0 1.4219-0.17188 1.8438-0.5 0.4375-0.34375 0.71875-0.9375 0.71875-1.5 0-0.8125-0.51562-1.4062-1.4062-1.6562l-1.6406-0.4375c-0.79688-0.21875-1.0781-0.46875-1.0781-0.96875 0-0.67188 0.57812-1.1094 1.4688-1.1094 1.0469 0 1.625 0.46875 1.6406 1.3281z"/>
</g>
<g id="w">
<path d="m4.9531-2.9844v2.9844h0.84375v-6.5625h-0.84375v2.8438h-3.375v-2.8438h-0.82812v6.5625h0.82812v-2.9844z"/>
</g>
<g id="ab">
<path d="m5.9531-4.5312c-0.25-1.4375-1.0781-2.1406-2.5312-2.1406-0.875 0-1.5781 0.28125-2.0781 0.82812-0.59375 0.64062-0.90625 1.5781-0.90625 2.6406 0 1.0781 0.32812 2 0.9375 2.6406 0.51562 0.53125 1.1562 0.76562 2.0156 0.76562 1.6094 0 2.5-0.85938 2.7031-2.5938h-0.85938c-0.078125 0.45312-0.17188 0.75-0.29688 1.0156-0.28125 0.53125-0.82812 0.84375-1.5312 0.84375-1.3125 0-2.1406-1.0469-2.1406-2.6875 0-1.6719 0.78125-2.7188 2.0625-2.7188 0.53125 0 1.0312 0.15625 1.2969 0.42188 0.25 0.21875 0.375 0.5 0.48438 0.98438z"/>
</g>
<g id="t">
<path d="m1.6562-2.7812h2.0625c0.51562 0 0.92188-0.15625 1.2656-0.46875 0.39062-0.35938 0.5625-0.78125 0.5625-1.3906 0-1.2344-0.71875-1.9219-2.0156-1.9219h-2.7188v6.5625h0.84375zm0-0.73438v-2.3125h1.75c0.79688 0 1.2812 0.4375 1.2812 1.1562s-0.48438 1.1562-1.2812 1.1562z"/>
</g>
<g id="aa">
<path d="m4.9688-6.5625v4.6094c0 0.875-0.64062 1.4219-1.6875 1.4219-0.48438 0-0.89062-0.10938-1.2031-0.34375-0.32812-0.25-0.46875-0.57812-0.46875-1.0781v-4.6094h-0.84375v4.6094c0 1.3281 0.95312 2.1562 2.5156 2.1562 1.5312 0 2.5312-0.84375 2.5312-2.1562v-4.6094z"/>
</g>
<g id="z">
<path d="m1.6406-2.9844h3.5781v-0.73438h-3.5781v-2.1094h3.7188v-0.73438h-4.5469v6.5625h4.7031v-0.73438h-3.875z"/>
</g>
<g id="y">
<path d="m2.0625-6.5625-2.1406 6.75h0.5l2.1406-6.75z"/>
</g>
<clipPath id="av">
<path d="m0 20h346v238h-346z"/>
</clipPath>
<clipPath id="au">
<path d="m55 66h1v55h-1z"/>
</clipPath>
<clipPath id="am">
<path d="m-0.47266 258h347v-259h-347zm55.992-191.41h0.41797l1.1406 4.1406h-2.6992zm0.41797 54.391h-0.41797l-1.1406-4.1406h2.6992z" clip-rule="evenodd"/>
</clipPath>
<clipPath id="al">
<path d="m87 3h43v118h-43z"/>
</clipPath>
<clipPath id="ak">
<path d="m-0.47266 258h347v-259h-347zm87.43-254.11 0.17969-0.35938 4.2031 0.80859-1.2031 2.4297zm40.922 117.09-0.39062-0.03125-0.80859-4.1992 2.6992 0.21094z" clip-rule="evenodd"/>
</clipPath>
<clipPath id="aj">
<path d="m204 3h64v118h-64z"/>
</clipPath>
<clipPath id="ai">
<path d="m-0.47266 258h347v-259h-347zm267.82-254.47 0.14844 0.39062-3.5664 2.3984-0.87109-2.5508zm-58.559 117.39-0.39062 0.089843-2.1016-3.7227 2.6094-0.65625z" clip-rule="evenodd"/>
</clipPath>
<clipPath id="ah">
<path d="m289 66h1v55h-1z"/>
</clipPath>
<clipPath id="ag">
<path d="m-0.47266 258h347v-259h-347zm289.99-191.41h0.41797l1.1406 4.1406h-2.6992zm0.41797 54.391h-0.41797l-1.1406-4.1406h2.6992z" clip-rule="evenodd"/>
</clipPath>
<clipPath id="af">
<path d="m165 135h7v21h-7z"/>
</clipPath>
<clipPath id="at">
<path d="m-0.47266 258h347v-259h-347zm168.46-119.41h0.41797l1.1406 4.1406h-2.6992zm0.44922 13.922h-0.41797l-1.1406-4.1406h2.6992z" clip-rule="evenodd"/>
</clipPath>
<clipPath id="as">
<path d="m168 179h1v14h-1z"/>
</clipPath>
<clipPath id="ar">
<path d="m-0.47266 258h347v-259h-347zm168.49-78.91h0.41797l1.1406 4.1406h-2.6992zm0.41797 13.922h-0.41797l-1.1406-4.1406h2.6992z" clip-rule="evenodd"/>
</clipPath>
<clipPath id="aq">
<path d="m289 8h1v23h-1z"/>
</clipPath>
<clipPath id="ap">
<path d="m-0.47266 258h347v-259h-347zm289.99-249.91h0.41797l1.1406 4.1406h-2.6992zm0.41797 22.922h-0.41797l-1.1406-4.1406h2.6992z" clip-rule="evenodd"/>
</clipPath>
<clipPath id="ao">
<path d="m64 8h1v23h-1z"/>
</clipPath>
<clipPath id="an">
<path d="m-0.47266 258h347v-259h-347zm64.992-249.91h0.41797l1.1406 4.1406h-2.6992zm0.41797 22.922h-0.41797l-1.1406-4.1406h2.6992z" clip-rule="evenodd"/>
</clipPath>
</defs>
<path d="m1.7266 255.8h342v-256.5h-342z" fill="#fff" fill-rule="evenodd"/>
<path transform="matrix(.1 0 0 -.1 -.472 258)" d="m269.49 2182c-37.266 0-67.5-30.234-67.5-67.5v-135c0-37.266 30.234-67.5 67.5-67.5h585c37.305 0 67.5 30.234 67.5 67.5v135c0 37.266-30.195 67.5-67.5 67.5z" fill="none" stroke="#000" stroke-miterlimit="10" stroke-width="9"/>
<path transform="matrix(.1 0 0 -.1 -.472 258)" d="m2609.5 2182c-37.266 0-67.5-30.234-67.5-67.5v-135c0-37.266 30.234-67.5 67.5-67.5h585c37.305 0 67.5 30.234 67.5 67.5v135c0 37.266-30.195 67.5-67.5 67.5z" fill="none" stroke="#000" stroke-miterlimit="10" stroke-width="9"/>
<path transform="matrix(.1 0 0 -.1 -.472 258)" d="m2429.5 472c-37.266 0-67.5-30.234-67.5-67.5v-135c0-37.266 30.234-67.5 67.5-67.5h765c37.305 0 67.5 30.234 67.5 67.5v135c0 37.266-30.195 67.5-67.5 67.5z" fill="none" stroke="#000" stroke-miterlimit="10" stroke-width="9"/>
<path transform="matrix(.1 0 0 -.1 -.472 258)" d="m111.99 1822h3240v450h-3240z" fill="none" stroke="#000" stroke-miterlimit="10" stroke-width="18"/>
<g clip-path="url(#av)">
<path transform="matrix(.1 0 0 -.1 -.472 258)" d="m21.986 22.001h3420v2340h-3420z" fill="none" stroke="#000" stroke-miterlimit="10" stroke-width="27"/>
</g>
<path transform="matrix(.1 0 0 -.1 -.472 258)" d="m269.49 472c-37.266 0-67.5-30.234-67.5-67.5v-135c0-37.266 30.234-67.5 67.5-67.5h765c37.305 0 67.5 30.234 67.5 67.5v135c0 37.266-30.195 67.5-67.5 67.5z" fill="none" stroke="#000" stroke-miterlimit="10" stroke-width="9"/>
<path transform="matrix(.1 0 0 -.1 -.472 258)" d="m1349.5 472c-37.266 0-67.5-30.234-67.5-67.5v-135c0-37.266 30.234-67.5 67.5-67.5h765c37.305 0 67.5 30.234 67.5 67.5v135c0 37.266-30.195 67.5-67.5 67.5z" fill="none" stroke="#000" stroke-miterlimit="10" stroke-width="9"/>
<path transform="matrix(.1 0 0 -.1 -.472 258)" d="m2474.5 922c0-74.57-372.73-135-832.5-135s-832.5 60.43-832.5 135c0 74.57 372.73 135 832.5 135s832.5-60.43 832.5-135z" fill="none" stroke="#000" stroke-miterlimit="10" stroke-width="13.5"/>
<g clip-path="url(#au)">
<g clip-path="url(#am)">
<path transform="matrix(.1 0 0 -.1 -.472 258)" d="m561.99 1372.3v539.69" fill="none" stroke="#000" stroke-miterlimit="10" stroke-width="2.25"/>
</g>
</g>
<path transform="matrix(.1 0 0 -.1 -.472 258)" d="m548.51 1411.6 13.477-36.016 13.516 36.016z" fill-rule="evenodd" stroke="#000" stroke-miterlimit="10" stroke-width="2.25"/>
<path transform="matrix(.1 0 0 -.1 -.472 258)" d="m575.5 1872.7-13.516 35.977-13.477-35.977z" fill-rule="evenodd" stroke="#000" stroke-miterlimit="10" stroke-width="2.25"/>
<g clip-path="url(#al)">
<g clip-path="url(#ak)">
<path transform="matrix(.1 0 0 -.1 -.472 258)" d="m1281.7 1372.3 0.27344 3.5938 0.3125 2.3828 0.58594 3.3203 0.3125 4.4922 0.58594 5.0781 0.89844 6.3281 0.625 7.5 0.89844 8.6719 1.2109 9.6094 0.89844 10.508 1.1719 11.992 1.2109 12.617 1.2109 13.477 1.2109 14.727 1.1719 15.273 1.2109 15.898 1.2109 16.836 1.1719 17.07 1.2109 17.695 0.89844 18.008 0.89844 18.594 0.625 18.906 0.58594 19.219 0.3125 19.492 0.27344 19.492-0.27344 20.117v20.078l-0.625 20.391-0.89844 20.703-1.2109 21.328-1.1719 21.289-1.7969 21.602-2.4219 21.914-2.3828 22.5-3.3203 22.773-3.2812 23.125-4.2188 23.672-4.4922 24.023-5.0781 24.297-5.7031 24.609-6.3281 24.883-7.1875 24.883-7.5 24.922-8.0859 24.609-9.9219 27.305-10.508 26.68-11.094 25.195-11.094 24.023-11.406 22.5-11.406 21.602-11.68 19.766-11.719 18.906-11.68 17.695-11.719 16.523-11.68 15.273-11.719 14.727-11.68 13.789-11.719 12.891-11.68 11.992-11.719 11.719-11.68 10.781-11.719 10.508-11.68 9.9219-11.406 9.2969-11.406 8.9844-11.094 8.3984-11.094 7.8125-10.508 7.5-10.195 6.9141-9.9219 6.6016-9.2969 5.9766-8.6719 5.3906-8.125 5.1172-7.5 4.4922-6.6016 3.9062-5.7031 3.5938-5.0781 2.6953-4.2188 2.4219-3.5938 2.0703-2.6953 1.5234-2.1094 1.2109-3.0078 1.4844" fill="none" stroke="#000" stroke-dasharray="18" stroke-linejoin="bevel" stroke-miterlimit="10" stroke-width="2.25"/>
</g>
</g>
<path transform="matrix(.1 0 0 -.1 -.472 258)" d="m1271.5 1412.5 10.469-36.914 16.523 34.805z" fill-rule="evenodd" stroke="#000" stroke-miterlimit="10" stroke-width="2.25"/>
<path transform="matrix(.1 0 0 -.1 -.472 258)" d="m918.12 2536.6-38.125 3.9062 26.094-28.203z" fill-rule="evenodd" stroke="#000" stroke-miterlimit="10" stroke-width="2.25"/>
<g clip-path="url(#aj)">
<g clip-path="url(#ai)">
<path transform="matrix(.1 0 0 -.1 -.472 258)" d="m2090.2 1372.3-0.89844 3.5938-0.27344 2.3828-0.89844 3.3203-0.9375 4.4922-0.89844 5.0781-1.4844 6.3281-1.4844 7.5-1.5234 8.6719-1.7969 9.6094-2.1094 10.508-2.0703 11.992-2.4219 12.617-2.3828 13.477-2.4219 14.727-2.3828 15.273-2.4219 15.898-2.3828 16.836-2.1094 17.07-2.3828 17.695-2.1094 18.008-1.7969 18.594-1.7969 18.906-1.5234 19.219-1.1719 19.492-0.89844 19.492-0.625 20.117-0.27344 20.078 0.27344 20.391 0.625 20.703 0.89844 21.328 1.4844 21.289 2.1094 21.602 2.6953 21.914 3.3203 22.5 3.8672 22.773 4.8047 23.125 5.3906 23.672 6.3281 24.023 7.1875 24.297 8.0859 24.609 8.7109 24.883 10.195 24.883 10.82 24.922 11.68 24.609 13.203 25.195 13.789 24.297 14.727 23.086 15 22.5 15.273 21.016 15.312 20.078 15.898 18.906 15.898 18.008 15.898 16.797 15.898 15.898 15.898 15 16.211 14.102 15.898 13.516 16.211 12.578 16.211 11.992 16.172 11.406 16.211 10.82 16.211 10.195 16.172 9.8828 15.898 9.2969 16.211 8.7109 15.898 8.7109 15.625 8.0859 15.586 7.5 15.312 7.5 14.688 6.9141 14.414 6.2891 14.102 6.2891 13.164 5.7031 12.617 5.1172 11.992 5.0781 10.82 4.2188 10.195 4.1797 9.2969 3.6328 8.0859 2.9688 7.2266 2.7344 5.9766 2.3828 5.1172 1.7969 4.1797 1.4844 3.3203 1.2109 2.3828 0.89844 3.5938 1.2109" fill="none" stroke="#000" stroke-dasharray="18" stroke-linejoin="bevel" stroke-miterlimit="10" stroke-width="2.25"/>
</g>
</g>
<path transform="matrix(.1 0 0 -.1 -.472 258)" d="m2067.7 1407.1 21.602-31.523 4.4922 38.086z" fill-rule="evenodd" stroke="#000" stroke-miterlimit="10" stroke-width="2.25"/>
<path transform="matrix(.1 0 0 -.1 -.472 258)" d="m2644 2516.8 29.688 23.984-38.398 1.5234z" fill-rule="evenodd" stroke="#000" stroke-miterlimit="10" stroke-width="2.25"/>
<g clip-path="url(#ah)">
<g clip-path="url(#ag)">
<path transform="matrix(.1 0 0 -.1 -.472 258)" d="m2902 1372.3v539.69" fill="none" stroke="#000" stroke-miterlimit="10" stroke-width="2.25"/>
</g>
</g>
<path transform="matrix(.1 0 0 -.1 -.472 258)" d="m2888.5 1411.6 13.477-36.016 13.516 36.016z" fill-rule="evenodd" stroke="#000" stroke-miterlimit="10" stroke-width="2.25"/>
<path transform="matrix(.1 0 0 -.1 -.472 258)" d="m2915.5 1872.7-13.516 35.977-13.477-35.977z" fill-rule="evenodd" stroke="#000" stroke-miterlimit="10" stroke-width="2.25"/>
<path d="m170.45 98.266c0 7.4414-16.121 13.473-36 13.473-19.883 0-36-6.0312-36-13.473 0-7.4375 16.117-13.469 36-13.469 19.879 0 36 6.0312 36 13.469" fill="#fff" fill-rule="evenodd"/>
<path transform="matrix(.1 0 0 -.1 -.472 258)" d="m1709.2 1597.3c0-74.414-161.21-134.73-360-134.73-198.83 0-360 60.312-360 134.73 0 74.375 161.17 134.69 360 134.69 198.79 0 360-60.312 360-134.69z" fill="none" stroke="#000" stroke-miterlimit="10" stroke-width="13.5"/>
<path d="m91.727 98.266c0 7.4414-16.117 13.473-36 13.473-19.879 0-36-6.0312-36-13.473 0-7.4375 16.121-13.469 36-13.469 19.883 0 36 6.0312 36 13.469" fill="#fff" fill-rule="evenodd"/>
<path transform="matrix(.1 0 0 -.1 -.472 258)" d="m921.99 1597.3c0-74.414-161.17-134.73-360-134.73-198.79 0-360 60.312-360 134.73 0 74.375 161.21 134.69 360 134.69 198.83 0 360-60.312 360-134.69z" fill="none" stroke="#000" stroke-miterlimit="10" stroke-width="13.5"/>
<path d="m325.73 98.266c0 7.4414-16.117 13.473-36 13.473-19.879 0-36-6.0312-36-13.473 0-7.4375 16.121-13.469 36-13.469 19.883 0 36 6.0312 36 13.469" fill="#fff" fill-rule="evenodd"/>
<path transform="matrix(.1 0 0 -.1 -.472 258)" d="m3262 1597.3c0-74.414-161.17-134.73-360-134.73-198.79 0-360 60.312-360 134.73 0 74.375 161.21 134.69 360 134.69 198.83 0 360-60.312 360-134.69z" fill="none" stroke="#000" stroke-miterlimit="10" stroke-width="13.5"/>
<path d="m247.16 98.266c0 7.4414-16.117 13.473-36 13.473-19.879 0-36-6.0312-36-13.473 0-7.4375 16.121-13.469 36-13.469 19.883 0 36 6.0312 36 13.469" fill="#fff" fill-rule="evenodd"/>
<path transform="matrix(.1 0 0 -.1 -.472 258)" d="m2476.3 1597.3c0-74.414-161.17-134.73-360-134.73-198.79 0-360 60.312-360 134.73 0 74.375 161.21 134.69 360 134.69 198.83 0 360-60.312 360-134.69z" fill="none" stroke="#000" stroke-miterlimit="10" stroke-width="13.5"/>
<g>
<use x="267.091" y="107.267" xlink:href="#e"/>
<use x="271.591" y="107.267" xlink:href="#o"/>
<use x="276.091" y="107.267" xlink:href="#m"/>
<use x="281.095" y="107.267" xlink:href="#d"/>
<use x="286.099" y="107.267" xlink:href="#f"/>
<use x="288.097" y="107.267" xlink:href="#b"/>
<use x="290.599" y="107.267" xlink:href="#b"/>
<use x="293.101" y="107.267" xlink:href="#e"/>
<use x="297.601" y="107.267" xlink:href="#b"/>
<use x="300.103" y="107.267" xlink:href="#a"/>
<use x="305.107" y="107.267" xlink:href="#h"/>
<use x="307.105" y="107.267" xlink:href="#h"/>
<use x="309.103" y="107.267" xlink:href="#a"/>
<use x="27.086" y="51.7072" xlink:href="#p"/>
<use x="33.089" y="51.7072" xlink:href="#d"/>
<use x="38.093" y="51.7072" xlink:href="#v"/>
<use x="44.591" y="51.7072" xlink:href="#a"/>
<use x="49.595" y="51.7072" xlink:href="#d"/>
<use x="54.599" y="51.7072" xlink:href="#u"/>
<use x="59.603" y="51.7072" xlink:href="#j"/>
<use x="64.607" y="51.7072" xlink:href="#d"/>
<use x="69.611" y="51.7072" xlink:href="#l"/>
<use x="74.615" y="51.7072" xlink:href="#e"/>
<use x="79.115" y="51.7072" xlink:href="#k"/>
<use x="35.22623" y="61.6072" xlink:href="#s"/>
<use x="40.23023" y="61.6072" xlink:href="#c"/>
<use x="43.22723" y="61.6072" xlink:href="#r"/>
<use x="48.23123" y="61.6072" xlink:href="#l"/>
<use x="53.23523" y="61.6072" xlink:href="#c"/>
<use x="56.23223" y="61.6072" xlink:href="#i"/>
<use x="61.23623" y="61.6072" xlink:href="#g"/>
<use x="68.73323" y="61.6072" xlink:href="#g"/>
<use x="261.08623" y="51.91697" xlink:href="#p"/>
<use x="267.08923" y="51.91697" xlink:href="#d"/>
<use x="272.09323" y="51.91697" xlink:href="#v"/>
<use x="278.59123" y="51.91697" xlink:href="#a"/>
<use x="283.59523" y="51.91697" xlink:href="#d"/>
<use x="288.59923" y="51.91697" xlink:href="#u"/>
<use x="293.60323" y="51.91697" xlink:href="#j"/>
<use x="298.60723" y="51.91697" xlink:href="#d"/>
<use x="303.61123" y="51.91697" xlink:href="#l"/>
<use x="308.61523" y="51.91697" xlink:href="#e"/>
<use x="313.11523" y="51.91697" xlink:href="#k"/>
<use x="270.09639" y="61.81697" xlink:href="#s"/>
<use x="275.10039" y="61.81697" xlink:href="#c"/>
<use x="278.09739" y="61.81697" xlink:href="#r"/>
<use x="283.10139" y="61.81697" xlink:href="#l"/>
<use x="288.10539" y="61.81697" xlink:href="#c"/>
<use x="291.10239" y="61.81697" xlink:href="#i"/>
<use x="296.10639" y="61.81697" xlink:href="#g"/>
<use x="303.60339" y="61.81697" xlink:href="#g"/>
<use x="46.71939" y="7.36697" xlink:href="#n"/>
<use x="52.72239" y="7.36697" xlink:href="#a"/>
<use x="57.72639" y="7.36697" xlink:href="#d"/>
<use x="62.73039" y="7.36697" xlink:href="#j"/>
<use x="67.73439" y="7.36697" xlink:href="#b"/>
<use x="70.23639" y="7.36697" xlink:href="#q"/>
<use x="74.73639" y="7.36697" xlink:href="#a"/>
<use x="79.74039" y="7.36697" xlink:href="#c"/>
<use x="271.89939" y="7.36697" xlink:href="#n"/>
<use x="277.90239" y="7.36697" xlink:href="#a"/>
<use x="282.90639" y="7.36697" xlink:href="#d"/>
<use x="287.91039" y="7.36697" xlink:href="#j"/>
<use x="292.91439" y="7.36697" xlink:href="#b"/>
<use x="295.41639" y="7.36697" xlink:href="#q"/>
<use x="299.91639" y="7.36697" xlink:href="#a"/>
<use x="304.92039" y="7.36697" xlink:href="#c"/>
<use x="113.19129" y="106.36697" xlink:href="#e"/>
<use x="117.69129" y="106.36697" xlink:href="#o"/>
<use x="122.19129" y="106.36697" xlink:href="#m"/>
<use x="127.19529" y="106.36697" xlink:href="#d"/>
<use x="132.19929" y="106.36697" xlink:href="#f"/>
<use x="134.19729" y="106.36697" xlink:href="#b"/>
<use x="136.69929" y="106.36697" xlink:href="#b"/>
<use x="139.20129" y="106.36697" xlink:href="#e"/>
<use x="143.70129" y="106.36697" xlink:href="#b"/>
<use x="146.20329" y="106.36697" xlink:href="#a"/>
<use x="151.20729" y="106.36697" xlink:href="#h"/>
<use x="153.20529" y="106.36697" xlink:href="#h"/>
<use x="155.20329" y="106.36697" xlink:href="#a"/>
<use x="116.0616" y="96.91697" xlink:href="#n"/>
<use x="122.0646" y="96.91697" xlink:href="#a"/>
<use x="127.0686" y="96.91697" xlink:href="#d"/>
<use x="132.0726" y="96.91697" xlink:href="#j"/>
<use x="137.0766" y="96.91697" xlink:href="#b"/>
<use x="139.5786" y="96.91697" xlink:href="#q"/>
<use x="144.0786" y="96.91697" xlink:href="#a"/>
<use x="149.0826" y="96.91697" xlink:href="#c"/>
<use x="152.0796" y="96.91697" xlink:href="#k"/>
<use x="189.9014" y="106.36697" xlink:href="#e"/>
<use x="194.4014" y="106.36697" xlink:href="#o"/>
<use x="198.9014" y="106.36697" xlink:href="#m"/>
<use x="203.9054" y="106.36697" xlink:href="#d"/>
<use x="208.9094" y="106.36697" xlink:href="#f"/>
<use x="210.9074" y="106.36697" xlink:href="#b"/>
<use x="213.4094" y="106.36697" xlink:href="#b"/>
<use x="215.9114" y="106.36697" xlink:href="#e"/>
<use x="220.4114" y="106.36697" xlink:href="#b"/>
<use x="222.9134" y="106.36697" xlink:href="#a"/>
<use x="227.9174" y="106.36697" xlink:href="#h"/>
<use x="229.9154" y="106.36697" xlink:href="#h"/>
<use x="231.9134" y="106.36697" xlink:href="#a"/>
<use x="192.77171" y="96.91697" xlink:href="#n"/>
<use x="198.77471" y="96.91697" xlink:href="#a"/>
<use x="203.77871" y="96.91697" xlink:href="#d"/>
<use x="208.78271" y="96.91697" xlink:href="#j"/>
<use x="213.78671" y="96.91697" xlink:href="#b"/>
<use x="216.28871" y="96.91697" xlink:href="#q"/>
<use x="220.78871" y="96.91697" xlink:href="#a"/>
<use x="225.79271" y="96.91697" xlink:href="#c"/>
<use x="228.78971" y="96.91697" xlink:href="#k"/>
</g>
<path transform="matrix(.1 0 0 -.1 -.472 258)" d="m470.81 1642.3h2.3828" fill="none" stroke="#000" stroke-miterlimit="10" stroke-width="2.25"/>
<path transform="matrix(.1 0 0 -.1 -.472 258)" d="m111.99 1192h3240v180.31h-3240z" fill="none" stroke="#000" stroke-miterlimit="10" stroke-width="18"/>
<path transform="matrix(.1 0 0 -.1 -.472 258)" d="m111.99 112h3240v540.31h-3240z" fill="none" stroke="#000" stroke-miterlimit="10" stroke-width="18"/>
<g clip-path="url(#af)">
<g clip-path="url(#at)">
<path transform="matrix(.1 0 0 -.1 -.472 258)" d="m1687 1057-0.27344 135" fill="none" stroke="#000" stroke-miterlimit="10" stroke-width="2.25"/>
</g>
</g>
<path transform="matrix(.1 0 0 -.1 -.472 258)" d="m1673.5 1096.3 13.477-36.016 13.516 36.016z" fill-rule="evenodd" stroke="#000" stroke-miterlimit="10" stroke-width="2.25"/>
<path transform="matrix(.1 0 0 -.1 -.472 258)" d="m1700.2 1152.7-13.477 35.977-13.516-35.977z" fill-rule="evenodd" stroke="#000" stroke-miterlimit="10" stroke-width="2.25"/>
<g clip-path="url(#as)">
<g clip-path="url(#ar)">
<path transform="matrix(.1 0 0 -.1 -.472 258)" d="m1687 652v135" fill="none" stroke="#000" stroke-miterlimit="10" stroke-width="2.25"/>
</g>
</g>
<path transform="matrix(.1 0 0 -.1 -.472 258)" d="m1673.5 691.3 13.477-36.016 13.516 36.016z" fill-rule="evenodd" stroke="#000" stroke-miterlimit="10" stroke-width="2.25"/>
<path transform="matrix(.1 0 0 -.1 -.472 258)" d="m1700.5 747.7-13.516 35.977-13.477-35.977z" fill-rule="evenodd" stroke="#000" stroke-miterlimit="10" stroke-width="2.25"/>
<g clip-path="url(#aq)">
<g clip-path="url(#ap)">
<path transform="matrix(.1 0 0 -.1 -.472 258)" d="m2902 2272v225" fill="none" stroke="#000" stroke-miterlimit="10" stroke-width="2.25"/>
</g>
</g>
<path transform="matrix(.1 0 0 -.1 -.472 258)" d="m2888.5 2311.3 13.477-36.016 13.516 36.016z" fill-rule="evenodd" stroke="#000" stroke-miterlimit="10" stroke-width="2.25"/>
<path transform="matrix(.1 0 0 -.1 -.472 258)" d="m2915.5 2457.7-13.516 35.977-13.477-35.977z" fill-rule="evenodd" stroke="#000" stroke-miterlimit="10" stroke-width="2.25"/>
<g clip-path="url(#ao)">
<g clip-path="url(#an)">
<path transform="matrix(.1 0 0 -.1 -.472 258)" d="m651.99 2272v225" fill="none" stroke="#000" stroke-miterlimit="10" stroke-width="2.25"/>
</g>
</g>
<path transform="matrix(.1 0 0 -.1 -.472 258)" d="m638.51 2311.3 13.477-36.016 13.516 36.016z" fill-rule="evenodd" stroke="#000" stroke-miterlimit="10" stroke-width="2.25"/>
<path transform="matrix(.1 0 0 -.1 -.472 258)" d="m665.5 2457.7-13.516 35.977-13.477-35.977z" fill-rule="evenodd" stroke="#000" stroke-miterlimit="10" stroke-width="2.25"/>
<g>
<use x="137.442" y="133.367" xlink:href="#n"/>
<use x="143.445" y="133.367" xlink:href="#a"/>
<use x="148.449" y="133.367" xlink:href="#b"/>
<use x="150.951" y="133.367" xlink:href="#c"/>
<use x="153.948" y="133.367" xlink:href="#f"/>
<use x="155.946" y="133.367" xlink:href="#a"/>
<use x="160.95" y="133.367" xlink:href="#x"/>
<use x="165.954" y="133.367" xlink:href="#e"/>
<use x="170.454" y="133.367" xlink:href="#e"/>
<use x="174.954" y="133.367" xlink:href="#ae"/>
<use x="179.454" y="133.367" xlink:href="#e"/>
<use x="183.954" y="133.367" xlink:href="#b"/>
<use x="186.456" y="133.367" xlink:href="#a"/>
<use x="191.46" y="133.367" xlink:href="#g"/>
<use x="160.974" y="170.2971" xlink:href="#ad"/>
<use x="163.476" y="170.2971" xlink:href="#ac"/>
<use x="169.479" y="170.2971" xlink:href="#p"/>
<use x="148.6955" y="205.367" xlink:href="#w"/>
<use x="155.1935" y="205.367" xlink:href="#i"/>
<use x="160.1975" y="205.367" xlink:href="#c"/>
<use x="163.1945" y="205.367" xlink:href="#u"/>
<use x="168.1985" y="205.367" xlink:href="#v"/>
<use x="174.6965" y="205.367" xlink:href="#i"/>
<use x="179.7005" y="205.367" xlink:href="#c"/>
<use x="182.6975" y="205.367" xlink:href="#a"/>
<use x="55.2287" y="228.7971" xlink:href="#ab"/>
<use x="61.7267" y="228.7971" xlink:href="#t"/>
<use x="67.7297" y="228.7971" xlink:href="#aa"/>
<use x="252.5861" y="228.7971" xlink:href="#z"/>
<use x="258.5891" y="228.7971" xlink:href="#f"/>
<use x="260.5871" y="228.7971" xlink:href="#d"/>
<use x="265.5911" y="228.7971" xlink:href="#k"/>
<use x="270.8471" y="228.7971" xlink:href="#y"/>
<use x="273.3491" y="228.7971" xlink:href="#p"/>
<use x="279.3521" y="228.7971" xlink:href="#j"/>
<use x="284.3561" y="228.7971" xlink:href="#e"/>
<use x="288.8561" y="228.7971" xlink:href="#l"/>
<use x="293.8601" y="228.7971" xlink:href="#i"/>
<use x="298.8641" y="228.7971" xlink:href="#x"/>
<use x="303.8681" y="228.7971" xlink:href="#a"/>
<use x="143.7176" y="228.7971" xlink:href="#w"/>
<use x="150.2156" y="228.7971" xlink:href="#i"/>
<use x="155.2196" y="228.7971" xlink:href="#j"/>
<use x="160.2236" y="228.7971" xlink:href="#s"/>
<use x="165.2276" y="228.7971" xlink:href="#b"/>
<use x="167.7296" y="228.7971" xlink:href="#e"/>
<use x="172.2296" y="228.7971" xlink:href="#s"/>
<use x="177.2336" y="228.7971" xlink:href="#a"/>
<use x="182.2376" y="228.7971" xlink:href="#f"/>
<use x="184.2356" y="228.7971" xlink:href="#o"/>
<use x="188.7356" y="228.7971" xlink:href="#m"/>
<use x="193.7396" y="228.7971" xlink:href="#a"/>
<use x="198.7436" y="228.7971" xlink:href="#c"/>
<use x="30.6697" y="98.2671" xlink:href="#t"/>
<use x="36.6727" y="98.2671" xlink:href="#c"/>
<use x="39.6697" y="98.2671" xlink:href="#r"/>
<use x="44.6737" y="98.2671" xlink:href="#l"/>
<use x="49.6777" y="98.2671" xlink:href="#c"/>
<use x="52.6747" y="98.2671" xlink:href="#i"/>
<use x="57.6787" y="98.2671" xlink:href="#g"/>
<use x="65.1757" y="98.2671" xlink:href="#g"/>
<use x="72.6727" y="98.2671" xlink:href="#f"/>
<use x="74.6707" y="98.2671" xlink:href="#a"/>
<use x="79.6747" y="98.2671" xlink:href="#c"/>
<use x="82.6717" y="98.2671" xlink:href="#k"/>
<use x="33.09118" y="107.2671" xlink:href="#e"/>
<use x="37.59118" y="107.2671" xlink:href="#o"/>
<use x="42.09118" y="107.2671" xlink:href="#m"/>
<use x="47.09518" y="107.2671" xlink:href="#d"/>
<use x="52.09918" y="107.2671" xlink:href="#f"/>
<use x="54.09718" y="107.2671" xlink:href="#b"/>
<use x="56.59918" y="107.2671" xlink:href="#b"/>
<use x="59.10118" y="107.2671" xlink:href="#e"/>
<use x="63.60118" y="107.2671" xlink:href="#b"/>
<use x="66.10318" y="107.2671" xlink:href="#a"/>
<use x="71.10718" y="107.2671" xlink:href="#h"/>
<use x="73.10518" y="107.2671" xlink:href="#h"/>
<use x="75.10318" y="107.2671" xlink:href="#a"/>
<use x="264.67018" y="98.2671" xlink:href="#t"/>
<use x="270.67318" y="98.2671" xlink:href="#c"/>
<use x="273.67018" y="98.2671" xlink:href="#r"/>
<use x="278.67418" y="98.2671" xlink:href="#l"/>
<use x="283.67818" y="98.2671" xlink:href="#c"/>
<use x="286.67518" y="98.2671" xlink:href="#i"/>
<use x="291.67918" y="98.2671" xlink:href="#g"/>
<use x="299.17618" y="98.2671" xlink:href="#g"/>
<use x="306.67318" y="98.2671" xlink:href="#f"/>
<use x="308.67118" y="98.2671" xlink:href="#a"/>
<use x="313.67518" y="98.2671" xlink:href="#c"/>
<use x="316.67218" y="98.2671" xlink:href="#k"/>
</g>
</svg>
