<svg width="358pt" height="134pt" version="1.1" viewBox="0 0 358 134" xmlns="http://www.w3.org/2000/svg" xmlns:xlink="http://www.w3.org/1999/xlink">
<defs>
<g id="ac">
<path d="m1.9062-3.2188h2.4688c0.84375 0 1.2344 0.40625 1.2344 1.3281l-0.015625 0.67188c0 0.45312 0.078125 0.90625 0.21875 1.2188h1.1562v-0.23438c-0.35938-0.25-0.42188-0.51562-0.45312-1.5156 0-1.2344-0.20312-1.5938-1.0156-1.9531 0.84375-0.40625 1.1875-0.92188 1.1875-1.7812 0-1.2969-0.8125-2-2.2812-2h-3.4531v7.4844h0.95312zm0-0.84375v-2.5781h2.3125c0.53125 0 0.84375 0.078125 1.0781 0.28125 0.25 0.21875 0.39062 0.5625 0.39062 1.0156 0 0.875-0.45312 1.2812-1.4688 1.2812z"/>
</g>
<g id="l">
<path d="m5.2656-2.4062c0-0.8125-0.0625-1.3125-0.21875-1.7031-0.34375-0.89062-1.1719-1.4219-2.1719-1.4219-1.5 0-2.4688 1.1406-2.4688 2.9062s0.9375 2.8594 2.4531 2.8594c1.2188 0 2.0781-0.70312 2.2969-1.8594h-0.85938c-0.23438 0.70312-0.71875 1.0781-1.4062 1.0781-0.54688 0-1.0156-0.25-1.2969-0.70312-0.20312-0.3125-0.28125-0.625-0.29688-1.1562zm-3.9375-0.6875c0.0625-1 0.67188-1.6562 1.5312-1.6562 0.84375 0 1.5 0.70312 1.5 1.5938 0 0.015625 0 0.03125-0.015625 0.0625z"/>
</g>
<g id="z">
<path d="m4.2344-5.375v0.78125c-0.4375-0.64062-0.95312-0.9375-1.6406-0.9375-1.375 0-2.2969 1.1875-2.2969 2.9375 0 0.875 0.23438 1.5938 0.67188 2.1094 0.40625 0.45312 0.98438 0.71875 1.5469 0.71875 0.67188 0 1.1562-0.28125 1.625-0.96875v0.28125c0 0.73438-0.078125 1.1719-0.29688 1.4688-0.23438 0.3125-0.67188 0.5-1.1875 0.5-0.39062 0-0.75-0.09375-0.98438-0.28125-0.1875-0.15625-0.28125-0.29688-0.32812-0.625h-0.875c0.09375 1.0156 0.89062 1.625 2.1562 1.625 0.79688 0 1.4844-0.25 1.8281-0.6875 0.40625-0.48438 0.5625-1.1719 0.5625-2.4375v-4.4844zm-1.5625 0.625c0.9375 0 1.4688 0.78125 1.4688 2.125 0 1.2969-0.54688 2.0781-1.4531 2.0781-0.9375 0-1.5-0.79688-1.5-2.1094 0-1.2812 0.57812-2.0938 1.4844-2.0938z"/>
</g>
<g id="y">
<path d="m1.5469-5.375h-0.85938v5.375h0.85938zm0-2.1094h-0.875v1.0781h0.875z"/>
</g>
<g id="x">
<path d="m4.5-3.875c-0.015625-1.0625-0.71875-1.6562-1.9531-1.6562-1.25 0-2.0625 0.64062-2.0625 1.6406 0 0.84375 0.42188 1.2344 1.7031 1.5469l0.79688 0.20312c0.59375 0.14062 0.82812 0.35938 0.82812 0.75 0 0.5-0.5 0.84375-1.25 0.84375-0.45312 0-0.84375-0.14062-1.0625-0.35938-0.14062-0.15625-0.20312-0.3125-0.25-0.6875h-0.90625c0.046875 1.2344 0.75 1.8281 2.1562 1.8281 1.3438 0 2.2188-0.67188 2.2188-1.7031 0-0.79688-0.45312-1.2344-1.5312-1.5l-0.8125-0.1875c-0.70312-0.17188-1-0.39062-1-0.78125 0-0.48438 0.4375-0.8125 1.1406-0.8125 0.6875 0 1.0625 0.3125 1.0781 0.875z"/>
</g>
<g id="w">
<path d="m2.6094-5.375h-0.89062v-1.4844h-0.84375v1.4844h-0.73438v0.6875h0.73438v4.0781c0 0.53125 0.35938 0.84375 1.0312 0.84375 0.20312 0 0.40625-0.015625 0.70312-0.0625v-0.71875c-0.10938 0.015625-0.25 0.03125-0.40625 0.03125-0.375 0-0.48438-0.09375-0.48438-0.48438v-3.6875h0.89062z"/>
</g>
<g id="v">
<path d="m0.70312-5.375v5.375h0.875v-2.7969c0-0.76562 0.1875-1.2656 0.59375-1.5625 0.26562-0.20312 0.53125-0.26562 1.125-0.26562v-0.875c-0.14062-0.015625-0.21875-0.03125-0.32812-0.03125-0.5625 0-0.98438 0.32812-1.4688 1.125v-0.96875z"/>
</g>
<g id="u">
<path d="m6.7969-5.1562c-0.29688-1.6562-1.25-2.4531-2.8906-2.4531-1 0-1.8125 0.32812-2.3594 0.9375-0.6875 0.73438-1.0469 1.8125-1.0469 3.0156 0 1.2344 0.375 2.2969 1.0781 3.0156 0.57812 0.59375 1.3125 0.875 2.2969 0.875 1.8281 0 2.8438-0.98438 3.0781-2.9688h-0.98438c-0.09375 0.51562-0.1875 0.85938-0.34375 1.1562-0.3125 0.625-0.9375 0.96875-1.75 0.96875-1.4844 0-2.4219-1.1875-2.4219-3.0625 0-1.9062 0.89062-3.0938 2.3438-3.0938 0.60938 0 1.1719 0.1875 1.4844 0.46875 0.26562 0.26562 0.42188 0.57812 0.54688 1.1406z"/>
</g>
<g id="t">
<path d="m1.8906-3.1719h2.3438c0.59375 0 1.0469-0.17188 1.4531-0.53125 0.45312-0.40625 0.64062-0.89062 0.64062-1.5781 0-1.4062-0.82812-2.2031-2.2969-2.2031h-3.0938v7.4844h0.95312zm0-0.84375v-2.625h1.9844c0.92188 0 1.4688 0.48438 1.4688 1.3125s-0.54688 1.3125-1.4688 1.3125z"/>
</g>
<g id="ab">
<path d="m5.6719-7.4844v5.25c0 1.0156-0.73438 1.625-1.9375 1.625-0.54688 0-1-0.125-1.3594-0.39062-0.375-0.28125-0.54688-0.65625-0.54688-1.2344v-5.25h-0.95312v5.25c0 1.5312 1.0781 2.4688 2.8594 2.4688 1.75 0 2.8906-0.96875 2.8906-2.4688v-5.25z"/>
</g>
<g id="aa">
<path d="m5.5781-2.7344h-5.1719v0.71875h5.1719z"/>
</g>
<g id="s">
<path d="m7.1406-5.4375c-0.3125-1.7188-1.2969-2.5625-3.0312-2.5625-1.0469 0-1.9062 0.32812-2.4844 0.98438-0.71875 0.78125-1.1094 1.8906-1.1094 3.1719 0 1.2969 0.40625 2.4062 1.1406 3.1719 0.60938 0.625 1.3906 0.92188 2.4219 0.92188 1.9219 0 3-1.0312 3.2344-3.125h-1.0469c-0.078125 0.54688-0.1875 0.90625-0.34375 1.2188-0.32812 0.65625-1 1.0156-1.8438 1.0156-1.5625 0-2.5625-1.25-2.5625-3.2188 0-2.0156 0.95312-3.25 2.4844-3.25 0.625 0 1.2188 0.1875 1.5469 0.48438 0.29688 0.28125 0.45312 0.60938 0.57812 1.1875z"/>
</g>
<g id="j">
<path d="m5.7812-0.53125c-0.10938 0.03125-0.14062 0.03125-0.20312 0.03125-0.3125 0-0.48438-0.17188-0.48438-0.45312v-3.3281c0-1-0.73438-1.5312-2.125-1.5312-0.8125 0-1.5 0.23438-1.875 0.65625-0.26562 0.28125-0.375 0.60938-0.39062 1.1719h0.90625c0.078125-0.6875 0.48438-1 1.3281-1 0.8125 0 1.2656 0.29688 1.2656 0.84375v0.23438c0 0.375-0.23438 0.53125-0.9375 0.625-1.2812 0.15625-1.4688 0.20312-1.8125 0.34375-0.67188 0.26562-1 0.78125-1 1.5156 0 1.0156 0.71875 1.6719 1.8594 1.6719 0.70312 0 1.2812-0.25 1.9219-0.82812 0.0625 0.5625 0.34375 0.82812 0.92188 0.82812 0.1875 0 0.32812-0.015625 0.625-0.09375zm-1.5781-1.25c0 0.29688-0.09375 0.48438-0.35938 0.73438-0.35938 0.32812-0.8125 0.5-1.3438 0.5-0.70312 0-1.1094-0.32812-1.1094-0.90625 0-0.59375 0.40625-0.89062 1.3594-1.0312 0.95312-0.125 1.1406-0.17188 1.4531-0.3125z"/>
</g>
<g id="e">
<path d="m5.0781-3.75c-0.03125-0.5625-0.15625-0.92188-0.375-1.2344-0.39062-0.51562-1.0625-0.82812-1.8594-0.82812-1.5156 0-2.5156 1.2031-2.5156 3.0781 0 1.8281 0.98438 2.9844 2.5156 2.9844 1.3438 0 2.2031-0.8125 2.3125-2.1875h-0.90625c-0.15625 0.90625-0.625 1.3594-1.3906 1.3594-0.98438 0-1.5781-0.8125-1.5781-2.1562 0-1.4062 0.57812-2.25 1.5625-2.25 0.75 0 1.2344 0.4375 1.3281 1.2344z"/>
</g>
<g id="d">
<path d="m0.75-7.875v7.875h0.90625v-3.125c0-1.1562 0.59375-1.9062 1.5312-1.9062 0.29688 0 0.57812 0.09375 0.79688 0.26562 0.26562 0.17188 0.35938 0.45312 0.35938 0.84375v3.9219h0.90625v-4.2812c0-0.9375-0.6875-1.5312-1.7812-1.5312-0.79688 0-1.2812 0.23438-1.8125 0.9375v-3z"/>
</g>
<g id="a">
<path d="m5.5312-2.5312c0-0.85938-0.0625-1.375-0.21875-1.7969-0.375-0.9375-1.2344-1.4844-2.2969-1.4844-1.5625 0-2.5781 1.2031-2.5781 3.0625s0.98438 3 2.5625 3c1.2969 0 2.1875-0.73438 2.4219-1.9688h-0.90625c-0.25 0.75-0.76562 1.1406-1.4844 1.1406-0.5625 0-1.0625-0.26562-1.3594-0.73438-0.21875-0.32812-0.29688-0.65625-0.29688-1.2188zm-4.1406-0.73438c0.078125-1.0469 0.71875-1.7188 1.625-1.7188 0.875 0 1.5625 0.73438 1.5625 1.6562 0 0.03125 0 0.046875-0.015625 0.0625z"/>
</g>
<g id="m">
<path d="m5.9531-3.5781v3.5781h1v-7.875h-1v3.4062h-4.0469v-3.4062h-1.0156v7.875h1.0156v-3.5781z"/>
</g>
<g id="i">
<path d="m5.2031 0v-5.6562h-0.89062v3.2031c0 1.1562-0.60938 1.9062-1.5469 1.9062-0.71875 0-1.1719-0.42188-1.1719-1.1094v-4h-0.89062v4.3594c0 0.9375 0.70312 1.5469 1.7969 1.5469 0.84375 0 1.3594-0.29688 1.8906-1.0312v0.78125z"/>
</g>
<g id="c">
<path d="m0.57812 2.3594h0.90625v-2.9531c0.48438 0.57812 1.0156 0.84375 1.75 0.84375 1.4531 0 2.4062-1.1719 2.4062-2.9844 0-1.8906-0.92188-3.0781-2.4219-3.0781-0.76562 0-1.3906 0.34375-1.7969 1.0156v-0.85938h-0.84375zm2.4844-7.3438c1 0 1.6406 0.875 1.6406 2.2344 0 1.2812-0.65625 2.1562-1.6406 2.1562-0.95312 0-1.5781-0.85938-1.5781-2.1875s0.625-2.2031 1.5781-2.2031z"/>
</g>
<g id="h">
<path d="m2.75-5.6562h-0.9375v-1.5625h-0.89062v1.5625h-0.76562v0.73438h0.76562v4.2812c0 0.5625 0.39062 0.89062 1.0938 0.89062 0.20312 0 0.42188-0.015625 0.73438-0.078125v-0.75c-0.125 0.03125-0.26562 0.03125-0.4375 0.03125-0.39062 0-0.5-0.09375-0.5-0.5v-3.875h0.9375z"/>
</g>
<g id="g">
<path d="m4.7344-4.0781c-0.015625-1.1094-0.75-1.7344-2.0625-1.7344s-2.1719 0.67188-2.1719 1.7188c0 0.89062 0.45312 1.3125 1.7969 1.625l0.84375 0.21875c0.625 0.14062 0.875 0.375 0.875 0.78125 0 0.53125-0.53125 0.89062-1.3125 0.89062-0.48438 0-0.90625-0.14062-1.125-0.375-0.14062-0.17188-0.20312-0.32812-0.26562-0.73438h-0.95312c0.046875 1.3125 0.78125 1.9375 2.2656 1.9375 1.4219 0 2.3281-0.70312 2.3281-1.7969 0-0.84375-0.46875-1.2969-1.5938-1.5781l-0.85938-0.20312c-0.73438-0.17188-1.0469-0.40625-1.0469-0.8125 0-0.51562 0.45312-0.84375 1.1875-0.84375s1.1094 0.3125 1.1406 0.90625z"/>
</g>
<g id="f">
<path d="m1.625-5.6562h-0.90625v5.6562h0.90625zm0-2.2188h-0.90625v1.1406h0.90625z"/>
</g>
<g id="b">
<path d="m0.75-5.6562v5.6562h0.90625v-2.9375c0-0.8125 0.20312-1.3438 0.625-1.6562 0.28125-0.20312 0.5625-0.26562 1.1875-0.28125v-0.90625c-0.15625-0.03125-0.23438-0.03125-0.34375-0.03125-0.59375 0-1.0312 0.34375-1.5469 1.1875v-1.0312z"/>
</g>
<g id="r">
<path d="m6.4375-5.5625c-0.015625-1.5469-1.0781-2.4375-2.8906-2.4375-1.7188 0-2.7969 0.89062-2.7969 2.3125 0 0.95312 0.51562 1.5625 1.5469 1.8281l1.9531 0.51562c1 0.26562 1.4531 0.67188 1.4531 1.2812 0 0.42188-0.23438 0.85938-0.5625 1.0938-0.3125 0.21875-0.8125 0.32812-1.4531 0.32812-0.84375 0-1.4375-0.20312-1.8125-0.65625-0.28125-0.34375-0.42188-0.71875-0.40625-1.2031h-0.95312c0.015625 0.71875 0.15625 1.1875 0.46875 1.625 0.53125 0.73438 1.4375 1.125 2.6406 1.125 0.9375 0 1.7031-0.21875 2.2188-0.60938 0.53125-0.42188 0.85938-1.125 0.85938-1.7969 0-0.96875-0.60938-1.6875-1.6719-1.9844l-1.9688-0.53125c-0.95312-0.25-1.2969-0.54688-1.2969-1.1562 0-0.79688 0.70312-1.3281 1.75-1.3281 1.25 0 1.9531 0.5625 1.9688 1.5938z"/>
</g>
<g id="q">
<path d="m1.5156-7.875h-0.89062v7.875h0.89062v-2.2031l0.875-0.85938 1.9219 3.0625h1.1094l-2.3125-3.7031 1.9688-1.9531h-1.1562l-2.4062 2.3906z"/>
</g>
<g id="p">
<path d="m0.75-5.6562v5.6562h0.90625v-3.125c0-1.1562 0.60938-1.9062 1.5469-1.9062 0.70312 0 1.1562 0.4375 1.1562 1.1094v3.9219h0.90625v-4.2812c0-0.9375-0.70312-1.5312-1.7969-1.5312-0.84375 0-1.3906 0.3125-1.875 1.1094v-0.95312z"/>
</g>
<g id="o">
<path d="m5.3438-7.875h-0.89062v2.9375c-0.375-0.57812-0.98438-0.875-1.75-0.875-1.4688 0-2.4219 1.1719-2.4219 2.9688 0 1.9219 0.9375 3.0938 2.4688 3.0938 0.76562 0 1.3125-0.29688 1.7969-1v0.75h0.79688zm-2.4844 2.8906c0.96875 0 1.5938 0.875 1.5938 2.2188 0 1.3125-0.625 2.1719-1.5781 2.1719-1 0-1.6562-0.875-1.6562-2.1875 0-1.3281 0.65625-2.2031 1.6406-2.2031z"/>
</g>
<g id="k">
<path d="m5.7812-0.53125c-0.10938 0.03125-0.14062 0.03125-0.20312 0.03125-0.3125 0-0.48438-0.17188-0.48438-0.45312v-3.3281c0-1-0.73438-1.5312-2.125-1.5312-0.8125 0-1.5 0.23438-1.875 0.65625-0.26562 0.28125-0.375 0.60938-0.39062 1.1719h0.90625c0.078125-0.6875 0.48438-1 1.3281-1 0.8125 0 1.2656 0.29688 1.2656 0.84375v0.23438c0 0.375-0.23438 0.53125-0.9375 0.625-1.2812 0.15625-1.4688 0.20312-1.8125 0.34375-0.67188 0.26562-1 0.78125-1 1.5156 0 1.0156 0.71875 1.6719 1.8594 1.6719 0.70312 0 1.2812-0.25 1.9219-0.82812 0.0625 0.5625 0.34375 0.82812 0.92188 0.82812 0.1875 0 0.32812-0.015625 0.625-0.09375zm-1.5781-1.25c0 0.29688-0.09375 0.48438-0.35938 0.73438-0.35938 0.32812-0.8125 0.5-1.3438 0.5-0.70312 0-1.1094-0.32812-1.1094-0.90625 0-0.59375 0.40625-0.89062 1.3594-1.0312 0.95312-0.125 1.1406-0.17188 1.4531-0.3125zm-1.5625-5.9375h-1.125v1.1094h1.125zm1.75 0h-1.125v1.1094h1.125z"/>
</g>
<g id="n">
<path d="m3.8281-6.9844h2.5781v-0.89062h-6.1719v0.89062h2.5781v6.9844h1.0156z"/>
</g>
<clipPath id="ad">
<path d="m0.52734 111h357.47v22.434h-357.47z"/>
</clipPath>
</defs>
<g>
<use x="154.882" y="21.792" xlink:href="#ac"/>
<use x="162.28972" y="21.792" xlink:href="#l"/>
<use x="167.99428" y="21.792" xlink:href="#z"/>
<use x="173.69884" y="21.792" xlink:href="#y"/>
<use x="175.97656" y="21.792" xlink:href="#x"/>
<use x="181.10656" y="21.792" xlink:href="#w"/>
<use x="183.95884" y="21.792" xlink:href="#l"/>
<use x="189.6634" y="21.792" xlink:href="#v"/>
</g>
<path transform="matrix(.1 0 0 -.1 .528 133.43)" d="m436.01 274.01h2700v215.98h-2700z" fill="none" stroke="#000" stroke-miterlimit="10" stroke-width="2.7"/>
<path transform="matrix(.1 0 0 -.1 .528 133.43)" d="m868 544.01h1728v215.98h-1728z" fill="none" stroke="#000" stroke-miterlimit="10" stroke-width="2.7"/>
<path transform="matrix(.1 0 0 -.1 .528 133.43)" d="m1300 814.01h864.02v215.98h-864.02z" fill="none" stroke="#000" stroke-miterlimit="10" stroke-width="2.7"/>
<path transform="matrix(.1 0 0 -.1 .528 133.43)" d="m1516 1084h431.99v243.01h-431.99z" fill="none" stroke="#000" stroke-miterlimit="10" stroke-width="2.7"/>
<g>
<use x="155.422" y="45.3" xlink:href="#s"/>
<use x="163.2196" y="45.3" xlink:href="#j"/>
<use x="169.2244" y="45.3" xlink:href="#e"/>
<use x="174.6244" y="45.3" xlink:href="#d"/>
<use x="180.6292" y="45.3" xlink:href="#a"/>
<use x="136.215" y="72.3" xlink:href="#m"/>
<use x="144.0126" y="72.3" xlink:href="#j"/>
<use x="150.0174" y="72.3" xlink:href="#i"/>
<use x="156.0222" y="72.3" xlink:href="#c"/>
<use x="162.027" y="72.3" xlink:href="#h"/>
<use x="165.0294" y="72.3" xlink:href="#g"/>
<use x="170.4294" y="72.3" xlink:href="#c"/>
<use x="176.4342" y="72.3" xlink:href="#a"/>
<use x="182.439" y="72.3" xlink:href="#f"/>
<use x="184.8366" y="72.3" xlink:href="#e"/>
<use x="190.2366" y="72.3" xlink:href="#d"/>
<use x="196.2414" y="72.3" xlink:href="#a"/>
<use x="202.2462" y="72.3" xlink:href="#b"/>
<use x="127.51031" y="98.2199" xlink:href="#r"/>
<use x="134.71391" y="98.2199" xlink:href="#a"/>
<use x="140.71871" y="98.2199" xlink:href="#q"/>
<use x="146.11871" y="98.2199" xlink:href="#i"/>
<use x="152.12351" y="98.2199" xlink:href="#p"/>
<use x="158.12831" y="98.2199" xlink:href="#o"/>
<use x="164.13311" y="98.2199" xlink:href="#k"/>
<use x="170.13791" y="98.2199" xlink:href="#b"/>
<use x="173.73431" y="98.2199" xlink:href="#g"/>
<use x="179.13431" y="98.2199" xlink:href="#c"/>
<use x="185.13911" y="98.2199" xlink:href="#a"/>
<use x="191.14391" y="98.2199" xlink:href="#f"/>
<use x="193.54151" y="98.2199" xlink:href="#e"/>
<use x="198.94151" y="98.2199" xlink:href="#d"/>
<use x="204.94631" y="98.2199" xlink:href="#a"/>
<use x="210.95111" y="98.2199" xlink:href="#b"/>
<use x="135.02203" y="124.932" xlink:href="#n"/>
<use x="141.62083" y="124.932" xlink:href="#a"/>
<use x="147.62563" y="124.932" xlink:href="#b"/>
<use x="151.22203" y="124.932" xlink:href="#h"/>
<use x="154.22443" y="124.932" xlink:href="#f"/>
<use x="156.62203" y="124.932" xlink:href="#k"/>
<use x="162.62683" y="124.932" xlink:href="#b"/>
<use x="166.22323" y="124.932" xlink:href="#g"/>
<use x="171.62323" y="124.932" xlink:href="#c"/>
<use x="177.62803" y="124.932" xlink:href="#a"/>
<use x="183.63283" y="124.932" xlink:href="#f"/>
<use x="186.03043" y="124.932" xlink:href="#e"/>
<use x="191.43043" y="124.932" xlink:href="#d"/>
<use x="197.43523" y="124.932" xlink:href="#a"/>
<use x="203.44003" y="124.932" xlink:href="#b"/>
<use x="160.98293" y="11.532" xlink:href="#u"/>
<use x="168.39065" y="11.532" xlink:href="#t"/>
<use x="175.23407" y="11.532" xlink:href="#ab"/>
<use x="182.64179" y="11.532" xlink:href="#aa"/>
</g>
<g clip-path="url(#ad)">
<path transform="matrix(.1 0 0 -.1 .528 133.43)" d="m4.0169 4.0075h3564v215.98h-3564z" fill="none" stroke="#000" stroke-miterlimit="10" stroke-width="2.7"/>
</g>
</svg>
