<svg width="224pt" height="361pt" version="1.1" viewBox="0 0 224 361" xmlns="http://www.w3.org/2000/svg" xmlns:xlink="http://www.w3.org/1999/xlink">
<defs>
<g id="h">
<path d="m1.3438-4.7188h-0.73438v4.7188h0.73438zm0-1.8438h-0.75v0.95312h0.75z"/>
</g>
<g id="v">
<path d="m0.625-4.7188v4.7188h0.76562v-2.5938c0-0.96875 0.5-1.5938 1.2656-1.5938 0.60938 0 0.98438 0.35938 0.98438 0.92188v3.2656h0.75v-3.5625c0-0.78125-0.59375-1.2812-1.5-1.2812-0.70312 0-1.1562 0.26562-1.5625 0.92188v-0.79688z"/>
</g>
<g id="j">
<path d="m0.625-6.5625v6.5625h0.75v-2.5938c0-0.96875 0.5-1.5938 1.2812-1.5938 0.25 0 0.48438 0.0625 0.67188 0.20312 0.20312 0.15625 0.29688 0.39062 0.29688 0.71875v3.2656h0.75v-3.5625c0-0.79688-0.5625-1.2812-1.4844-1.2812-0.67188 0-1.0781 0.20312-1.5156 0.78125v-2.5z"/>
</g>
<g id="m">
<path d="m4.8125-0.4375c-0.078125 0.015625-0.10938 0.015625-0.15625 0.015625-0.26562 0-0.40625-0.14062-0.40625-0.375v-2.7656c0-0.84375-0.60938-1.2812-1.7812-1.2812-0.6875 0-1.2344 0.1875-1.5625 0.54688-0.21875 0.23438-0.29688 0.51562-0.32812 0.96875h0.76562c0.0625-0.5625 0.40625-0.82812 1.1094-0.82812 0.67188 0 1.0469 0.25 1.0469 0.70312v0.1875c-0.015625 0.32812-0.17188 0.45312-0.78125 0.53125-1.0625 0.14062-1.2188 0.17188-1.5156 0.28125-0.54688 0.23438-0.82812 0.65625-0.82812 1.2656 0 0.85938 0.59375 1.3906 1.5469 1.3906 0.59375 0 1.0781-0.20312 1.6094-0.6875 0.046875 0.48438 0.28125 0.6875 0.76562 0.6875 0.17188 0 0.26562-0.015625 0.51562-0.078125zm-1.3125-1.0469c0 0.25-0.078125 0.40625-0.29688 0.60938-0.3125 0.28125-0.67188 0.42188-1.1094 0.42188-0.59375 0-0.9375-0.28125-0.9375-0.75 0-0.5 0.32812-0.75 1.1406-0.85938 0.79688-0.10938 0.95312-0.15625 1.2031-0.26562z"/>
</g>
<g id="l">
<path d="m1.375-6.5625h-0.76562v6.5625h0.76562z"/>
</g>
<g id="g">
<path d="m2.2812-4.7188h-0.76562v-1.2969h-0.75v1.2969h-0.64062v0.60938h0.64062v3.5625c0 0.5 0.32812 0.75 0.90625 0.75 0.20312 0 0.35938-0.015625 0.60938-0.0625v-0.625c-0.10938 0.03125-0.20312 0.03125-0.35938 0.03125-0.3125 0-0.40625-0.09375-0.40625-0.42188v-3.2344h0.76562z"/>
</g>
<g id="f">
<path d="m3.9375-3.4062c0-0.92188-0.60938-1.4375-1.7031-1.4375s-1.8125 0.5625-1.8125 1.4375c0 0.73438 0.375 1.0781 1.5 1.3594l0.70312 0.17188c0.51562 0.125 0.71875 0.3125 0.71875 0.64062 0 0.45312-0.4375 0.75-1.0938 0.75-0.40625 0-0.75-0.125-0.9375-0.3125-0.10938-0.14062-0.17188-0.28125-0.21875-0.60938h-0.78125c0.03125 1.0938 0.64062 1.6094 1.875 1.6094 1.1875 0 1.9375-0.57812 1.9375-1.4844 0-0.70312-0.39062-1.0938-1.3281-1.3125l-0.71875-0.17188c-0.60938-0.15625-0.875-0.34375-0.875-0.6875 0-0.4375 0.39062-0.70312 1-0.70312s0.92188 0.26562 0.95312 0.75z"/>
</g>
<g id="e">
<path d="m0.625-4.7188v4.7188h0.75v-2.4531c0.015625-1.125 0.48438-1.6406 1.5156-1.6094v-0.76562c-0.125-0.015625-0.20312-0.015625-0.29688-0.015625-0.48438 0-0.84375 0.28125-1.2812 0.98438v-0.85938z"/>
</g>
<g id="d">
<path d="m4.6094-2.1094c0-0.71875-0.046875-1.1562-0.1875-1.5-0.29688-0.78125-1.0156-1.2344-1.9062-1.2344-1.3125 0-2.1562 0.98438-2.1562 2.5469s0.8125 2.5 2.1406 2.5c1.0781 0 1.8281-0.60938 2.0156-1.6406h-0.75c-0.20312 0.625-0.64062 0.95312-1.2344 0.95312-0.48438 0-0.89062-0.21875-1.1406-0.60938-0.17188-0.28125-0.23438-0.54688-0.25-1.0156zm-3.4531-0.60938c0.0625-0.875 0.59375-1.4375 1.3594-1.4375s1.2969 0.59375 1.2969 1.4375z"/>
</g>
<g id="k">
<path d="m3.6406-4.7188v0.6875c-0.375-0.5625-0.79688-0.8125-1.3906-0.8125-1.1406 0-1.9375 1.0625-1.9375 2.5625 0 0.79688 0.1875 1.375 0.59375 1.8438 0.35938 0.42188 0.79688 0.64062 1.2969 0.64062 0.5625 0 0.96875-0.25 1.3594-0.84375v0.25c0 1.25-0.34375 1.7188-1.2812 1.7188-0.64062 0-0.96875-0.25-1.0469-0.78125h-0.76562c0.078125 0.85938 0.76562 1.4219 1.7969 1.4219 0.6875 0 1.2656-0.23438 1.5625-0.60938 0.35938-0.4375 0.5-1.0312 0.5-2.1406v-3.9375zm-1.3125 0.5625c0.78125 0 1.2344 0.67188 1.2344 1.8594 0 1.1406-0.45312 1.8125-1.2344 1.8125s-1.2344-0.67188-1.2344-1.8438c0-1.1406 0.45312-1.8281 1.2344-1.8281z"/>
</g>
<g id="i">
<path d="m1.7188-0.9375h-0.9375v0.9375h0.9375z"/>
</g>
<g id="aa">
<path d="m4.9531-2.9844v2.9844h0.84375v-6.5625h-0.84375v2.8438h-3.375v-2.8438h-0.82812v6.5625h0.82812v-2.9844z"/>
</g>
<g id="n">
<path d="m4.3438 0v-4.7188h-0.75v2.6719c0 0.96875-0.5 1.5938-1.2969 1.5938-0.59375 0-0.96875-0.35938-0.96875-0.92188v-3.3438h-0.75v3.6406c0 0.78125 0.59375 1.2812 1.5156 1.2812 0.6875 0 1.125-0.23438 1.5625-0.85938v0.65625z"/>
</g>
<g id="p">
<path d="m0.48438 1.9688h0.75v-2.4688c0.40625 0.48438 0.84375 0.70312 1.4531 0.70312 1.2344 0 2.0156-0.98438 2.0156-2.4844 0-1.5781-0.76562-2.5625-2.0156-2.5625-0.64062 0-1.1562 0.28125-1.5156 0.84375v-0.71875h-0.6875zm2.0781-6.125c0.82812 0 1.3594 0.73438 1.3594 1.8594 0 1.0781-0.54688 1.7969-1.3594 1.7969s-1.3281-0.71875-1.3281-1.8281c0-1.0938 0.51562-1.8281 1.3281-1.8281z"/>
</g>
<g id="z">
<path d="m4.8906-2.4062h-4.5312v0.64062h4.5312z"/>
</g>
<g id="q">
<path d="m4.2344-3.125c-0.03125-0.46875-0.125-0.76562-0.3125-1.0312-0.32812-0.4375-0.89062-0.6875-1.5469-0.6875-1.2812 0-2.0938 1-2.0938 2.5625 0 1.5312 0.8125 2.4844 2.0781 2.4844 1.125 0 1.8438-0.67188 1.9375-1.8281h-0.76562c-0.125 0.76562-0.5 1.1406-1.1406 1.1406-0.82812 0-1.3281-0.67188-1.3281-1.7969 0-1.1719 0.48438-1.875 1.2969-1.875 0.64062 0 1.0312 0.375 1.125 1.0312z"/>
</g>
<g id="y">
<path d="m4.2656-1.9688 0.67188 1.9688h0.9375l-2.2969-6.5625h-1.0781l-2.3438 6.5625h0.89062l0.6875-1.9688zm-0.23438-0.70312h-2.0938l1.0938-2.9844z"/>
</g>
<g id="x">
<path d="m4.4531-6.5625h-0.75v2.4375c-0.3125-0.46875-0.8125-0.71875-1.4375-0.71875-1.2344 0-2.0312 0.96875-2.0312 2.4844 0 1.5781 0.78125 2.5625 2.0469 2.5625 0.65625 0 1.1094-0.23438 1.5-0.82812v0.625h0.67188zm-2.0625 2.4062c0.79688 0 1.3125 0.71875 1.3125 1.8594 0 1.0781-0.51562 1.7969-1.3125 1.7969-0.82812 0-1.375-0.71875-1.375-1.8281 0-1.0938 0.54688-1.8281 1.375-1.8281z"/>
</g>
<g id="w">
<path d="m0.48438-6.5625v6.5625h0.67188v-0.60938c0.35938 0.5625 0.84375 0.8125 1.5 0.8125 1.2344 0 2.0469-1.0156 2.0469-2.5781 0-1.5312-0.76562-2.4688-2.0156-2.4688-0.64062 0-1.1094 0.23438-1.4531 0.76562v-2.4844zm2.0625 2.4062c0.84375 0 1.375 0.73438 1.375 1.8594 0 1.0781-0.5625 1.7969-1.375 1.7969-0.79688 0-1.3125-0.71875-1.3125-1.8281 0-1.0938 0.51562-1.8281 1.3125-1.8281z"/>
</g>
<g id="am">
<path d="m2.3281-4.6406v4.6406h0.79688v-6.5h-0.53125c-0.26562 0.98438-0.45312 1.125-1.6719 1.2812v0.57812z"/>
</g>
<g id="al">
<path d="m4.4844-4.8125c-0.15625-1.0625-0.84375-1.6875-1.8125-1.6875-0.70312 0-1.3281 0.32812-1.7031 0.92188-0.40625 0.64062-0.57812 1.4219-0.57812 2.6094 0 1.0938 0.15625 1.7969 0.53125 2.3594 0.34375 0.53125 0.90625 0.8125 1.6094 0.8125 1.2188 0 2.0781-0.90625 2.0781-2.1719 0-1.2031-0.79688-2.0469-1.9531-2.0469-0.625 0-1.125 0.23438-1.4531 0.71875 0-1.6094 0.5-2.5156 1.4219-2.5156 0.54688 0 0.9375 0.375 1.0625 1zm-1.9219 1.5c0.76562 0 1.25 0.54688 1.25 1.4062 0 0.8125-0.54688 1.4062-1.2812 1.4062s-1.2969-0.60938-1.2969-1.4375c0-0.8125 0.54688-1.375 1.3281-1.375z"/>
</g>
<g id="o">
<path d="m0.71875 0h2.9531c0.625 0 1.0781-0.17188 1.4375-0.54688 0.3125-0.34375 0.5-0.8125 0.5-1.3281 0-0.78125-0.35938-1.2656-1.2031-1.5938 0.60938-0.28125 0.90625-0.75 0.90625-1.4219 0-0.48438-0.17188-0.90625-0.51562-1.2188s-0.79688-0.45312-1.4219-0.45312h-2.6562zm0.82812-3.7344v-2.0938h1.625c0.46875 0 0.71875 0.0625 0.95312 0.23438 0.23438 0.1875 0.35938 0.45312 0.35938 0.8125s-0.125 0.625-0.35938 0.8125c-0.23438 0.17188-0.48438 0.23438-0.95312 0.23438zm0 3v-2.2656h2.0469c0.73438 0 1.1719 0.42188 1.1719 1.1406 0 0.70312-0.4375 1.125-1.1719 1.125z"/>
</g>
<g id="ak">
<path d="m0.79688 0h2.5312c1.6562 0 2.6719-1.2344 2.6719-3.2812 0-2.0312-1-3.2812-2.6719-3.2812h-2.5312zm0.84375-0.73438v-5.0938h1.5469c1.2969 0 1.9844 0.875 1.9844 2.5469s-0.6875 2.5469-1.9844 2.5469z"/>
</g>
<g id="aj">
<path d="m3.5156-3.4219c0.67188-0.40625 0.875-0.73438 0.875-1.3438 0-1.0312-0.78125-1.7344-1.9219-1.7344-1.125 0-1.9062 0.70312-1.9062 1.7188 0 0.625 0.20312 0.9375 0.85938 1.3594-0.73438 0.35938-1.0938 0.89062-1.0938 1.6094 0 1.1875 0.875 2.0156 2.1406 2.0156s2.1406-0.82812 2.1406-2.0156c0-0.71875-0.35938-1.25-1.0938-1.6094zm-1.0469-2.3906c0.6875 0 1.1094 0.40625 1.1094 1.0625 0 0.60938-0.4375 1.0156-1.1094 1.0156s-1.0938-0.40625-1.0938-1.0312c0-0.64062 0.42188-1.0469 1.0938-1.0469zm0 2.75c0.79688 0 1.3438 0.51562 1.3438 1.2656 0 0.78125-0.53125 1.2969-1.3594 1.2969-0.76562 0-1.3125-0.53125-1.3125-1.2812 0-0.78125 0.53125-1.2812 1.3281-1.2812z"/>
</g>
<g id="u">
<path d="m2.3281-4.7188h-0.79688v-0.73438c0-0.3125 0.17188-0.48438 0.53125-0.48438 0.0625 0 0.09375 0 0.26562 0.015625v-0.625c-0.17188-0.03125-0.28125-0.046875-0.42188-0.046875-0.70312 0-1.1094 0.40625-1.1094 1.0781v0.79688h-0.64062v0.60938h0.64062v4.1094h0.73438v-4.1094h0.79688z"/>
</g>
<g id="ai">
<path d="m3.9844-4.7188h-3.5156v0.65625h2.625l-2.8125 3.3906v0.67188h3.8281v-0.65625h-2.9219l2.7969-3.3906z"/>
</g>
<g id="ah">
<path d="m4.8125-0.4375c-0.078125 0.015625-0.10938 0.015625-0.15625 0.015625-0.26562 0-0.40625-0.14062-0.40625-0.375v-2.7656c0-0.84375-0.60938-1.2812-1.7812-1.2812-0.6875 0-1.2344 0.1875-1.5625 0.54688-0.21875 0.23438-0.29688 0.51562-0.32812 0.96875h0.76562c0.0625-0.5625 0.40625-0.82812 1.1094-0.82812 0.67188 0 1.0469 0.25 1.0469 0.70312v0.1875c-0.015625 0.32812-0.17188 0.45312-0.78125 0.53125-1.0625 0.14062-1.2188 0.17188-1.5156 0.28125-0.54688 0.23438-0.82812 0.65625-0.82812 1.2656 0 0.85938 0.59375 1.3906 1.5469 1.3906 0.59375 0 1.0781-0.20312 1.6094-0.6875 0.046875 0.48438 0.28125 0.6875 0.76562 0.6875 0.17188 0 0.26562-0.015625 0.51562-0.078125zm-1.3125-1.0469c0 0.25-0.078125 0.40625-0.29688 0.60938-0.3125 0.28125-0.67188 0.42188-1.1094 0.42188-0.59375 0-0.9375-0.28125-0.9375-0.75 0-0.5 0.32812-0.75 1.1406-0.85938 0.79688-0.10938 0.95312-0.15625 1.2031-0.26562zm-1.2969-4.9531h-0.9375v0.92188h0.9375zm1.4531 0h-0.9375v0.92188h0.9375z"/>
</g>
<g id="t">
<path d="m1.2656-6.5625h-0.75v6.5625h0.75v-1.8438l0.73438-0.71875 1.5938 2.5625h0.92188l-1.9219-3.0938 1.6406-1.625h-0.96875l-2 2z"/>
</g>
<g id="ag">
<path d="m0.625-4.7188v4.7188h0.76562v-2.9688c0-0.67188 0.48438-1.2188 1.1094-1.2188 0.54688 0 0.85938 0.32812 0.85938 0.9375v3.25h0.76562v-2.9688c0-0.67188 0.48438-1.2188 1.1094-1.2188 0.54688 0 0.875 0.34375 0.875 0.9375v3.25h0.75v-3.5312c0-0.85938-0.48438-1.3125-1.375-1.3125-0.625 0-1 0.1875-1.4375 0.71875-0.28125-0.51562-0.65625-0.71875-1.2812-0.71875s-1.0469 0.23438-1.4375 0.79688v-0.67188z"/>
</g>
<g id="af">
<path d="m2.4531-4.8438c-1.3438 0-2.125 0.9375-2.125 2.5156 0 1.5938 0.78125 2.5312 2.125 2.5312 1.3281 0 2.1406-0.9375 2.1406-2.4844 0-1.6406-0.78125-2.5625-2.1406-2.5625zm0 0.6875c0.84375 0 1.3594 0.6875 1.3594 1.8594 0 1.125-0.53125 1.8125-1.3594 1.8125s-1.3438-0.6875-1.3438-1.8438c0-1.1406 0.51562-1.8281 1.3438-1.8281z"/>
</g>
<g id="s">
<path d="m1.6719-2.8281h2.1562c0.75 0 1.0781 0.35938 1.0781 1.1719v0.57812c0 0.40625 0.078125 0.8125 0.1875 1.0781h1.0156v-0.20312c-0.3125-0.21875-0.375-0.45312-0.39062-1.3281-0.015625-1.0781-0.1875-1.4062-0.89062-1.7031 0.73438-0.375 1.0312-0.8125 1.0312-1.5781 0-1.125-0.70312-1.75-2-1.75h-3.0156v6.5625h0.82812zm0-0.73438v-2.2656h2.0312c0.46875 0 0.73438 0.078125 0.9375 0.25 0.23438 0.20312 0.34375 0.5 0.34375 0.875 0 0.78125-0.39062 1.1406-1.2812 1.1406z"/>
</g>
<g id="ae">
<path d="m1.5625-6.5625h-0.84375v6.5625h4.0781v-0.73438h-3.2344z"/>
</g>
<g id="ad">
<path d="m5.9531-4.5312c-0.25-1.4375-1.0781-2.1406-2.5312-2.1406-0.875 0-1.5781 0.28125-2.0781 0.82812-0.59375 0.64062-0.90625 1.5781-0.90625 2.6406 0 1.0781 0.32812 2 0.9375 2.6406 0.51562 0.53125 1.1562 0.76562 2.0156 0.76562 1.6094 0 2.5-0.85938 2.7031-2.5938h-0.85938c-0.078125 0.45312-0.17188 0.75-0.29688 1.0156-0.28125 0.53125-0.82812 0.84375-1.5312 0.84375-1.3125 0-2.1406-1.0469-2.1406-2.6875 0-1.6719 0.78125-2.7188 2.0625-2.7188 0.53125 0 1.0312 0.15625 1.2969 0.42188 0.25 0.21875 0.375 0.5 0.48438 0.98438z"/>
</g>
<g id="ac">
<path d="m1.6562-2.7812h2.0625c0.51562 0 0.92188-0.15625 1.2656-0.46875 0.39062-0.35938 0.5625-0.78125 0.5625-1.3906 0-1.2344-0.71875-1.9219-2.0156-1.9219h-2.7188v6.5625h0.84375zm0-0.73438v-2.3125h1.75c0.79688 0 1.2812 0.4375 1.2812 1.1562s-0.48438 1.1562-1.2812 1.1562z"/>
</g>
<g id="ab">
<path d="m4.9688-6.5625v4.6094c0 0.875-0.64062 1.4219-1.6875 1.4219-0.48438 0-0.89062-0.10938-1.2031-0.34375-0.32812-0.25-0.46875-0.57812-0.46875-1.0781v-4.6094h-0.84375v4.6094c0 1.3281 0.95312 2.1562 2.5156 2.1562 1.5312 0 2.5312-0.84375 2.5312-2.1562v-4.6094z"/>
</g>
<g id="r">
<path d="m5.3594-4.6406c0-0.4375-0.015625-0.57812-0.17188-0.875-0.35938-0.75-1.125-1.1562-2.2188-1.1562-1.4531 0-2.3438 0.73438-2.3438 1.9219 0 0.8125 0.42188 1.3125 1.2969 1.5312l1.625 0.4375c0.84375 0.21875 1.2031 0.54688 1.2031 1.0625 0 0.34375-0.1875 0.70312-0.46875 0.90625-0.26562 0.1875-0.67188 0.28125-1.2031 0.28125-0.71875 0-1.2031-0.17188-1.5156-0.54688-0.23438-0.29688-0.34375-0.60938-0.34375-1.0156h-0.78125c0 0.60938 0.125 1 0.375 1.3594 0.45312 0.625 1.2188 0.9375 2.2188 0.9375 0.78125 0 1.4219-0.17188 1.8438-0.5 0.4375-0.34375 0.71875-0.9375 0.71875-1.5 0-0.8125-0.51562-1.4062-1.4062-1.6562l-1.6406-0.4375c-0.79688-0.21875-1.0781-0.46875-1.0781-0.96875 0-0.67188 0.57812-1.1094 1.4688-1.1094 1.0469 0 1.625 0.46875 1.6406 1.3281z"/>
</g>
<g id="b">
<path d="m4.4375-3.1562c0-1.4219-0.70312-2.3906-1.7344-2.3906s-1.7344 0.96875-1.7344 2.3906v0.89062c0 1.4219 0.70312 2.4062 1.7344 2.4062s1.7344-0.98438 1.7344-2.4062zm-3 0.0625c0-0.5625 0.17188-1.1406 0.42188-1.5469 0.1875-0.29688 0.48438-0.4375 0.84375-0.4375s0.65625 0.14062 0.84375 0.4375c0.26562 0.40625 0.42188 0.98438 0.42188 1.5469v0.78125c0 0.54688-0.15625 1.1406-0.42188 1.5469-0.1875 0.28125-0.48438 0.4375-0.84375 0.4375s-0.65625-0.15625-0.84375-0.4375c-0.25-0.40625-0.42188-1-0.42188-1.5469z"/>
</g>
<g id="c">
<path d="m2.9375-5.5156-1.7188 0.53125c-0.17188 0.0625-0.23438 0.10938-0.23438 0.23438s0.10938 0.23438 0.21875 0.23438c0.015625 0 0.10938-0.015625 0.14062-0.03125l1.125-0.34375v4.4375h-1.2031c-0.1875 0-0.29688 0.078125-0.29688 0.21875 0 0.15625 0.10938 0.23438 0.29688 0.23438h2.8906c0.1875 0 0.28125-0.078125 0.28125-0.23438 0-0.14062-0.09375-0.21875-0.28125-0.21875h-1.2188z"/>
</g>
<g id="a">
<path d="m2.6562-1.1094c-0.375 0-0.67188 0.26562-0.67188 0.60938 0 0.35938 0.29688 0.64062 0.67188 0.64062h0.09375c0.375 0 0.67188-0.28125 0.67188-0.64062 0-0.34375-0.29688-0.60938-0.67188-0.60938z"/>
</g>
<clipPath id="av">
<path d="m54 117h2v55h-2z"/>
</clipPath>
<clipPath id="au">
<path d="m0.52734 360.91h228v-361h-228zm54.191-243.61h0.41797l0.69141 4.2891h-1.8008z" clip-rule="evenodd"/>
</clipPath>
<clipPath id="at">
<path d="m180 117h2v55h-2z"/>
</clipPath>
<clipPath id="as">
<path d="m0.52734 360.91h228v-361h-228zm180.19-243.61h0.41797l0.69141 4.2891h-1.8008zm0.41797 54.418h-0.41797l-0.69141-4.2891h1.8008z" clip-rule="evenodd"/>
</clipPath>
<clipPath id="ar">
<path d="m0.52734 171h217.47v189.91h-217.47z"/>
</clipPath>
<clipPath id="aq">
<path d="m203 193h1v24h-1z"/>
</clipPath>
<clipPath id="ap">
<path d="m0.52734 360.91h228v-361h-228zm203.11-144.19h-0.41797l-0.69141-4.2891h1.8008z" clip-rule="evenodd"/>
</clipPath>
<clipPath id="ao">
<path d="m104 193h1v24h-1z"/>
</clipPath>
<clipPath id="an">
<path d="m0.52734 360.91h228v-361h-228zm103.69-167.11h0.41797l0.69141 4.2891h-1.8008z" clip-rule="evenodd"/>
</clipPath>
</defs>
<g>
<use x="153.928" y="213.363" xlink:href="#h"/>
<use x="155.926" y="213.363" xlink:href="#v"/>
<use x="160.93" y="213.363" xlink:href="#j"/>
<use x="165.934" y="213.363" xlink:href="#m"/>
<use x="170.938" y="213.363" xlink:href="#l"/>
<use x="172.936" y="213.363" xlink:href="#g"/>
<use x="175.438" y="213.363" xlink:href="#f"/>
<use x="179.938" y="213.363" xlink:href="#e"/>
<use x="182.935" y="213.363" xlink:href="#d"/>
<use x="187.939" y="213.363" xlink:href="#k"/>
<use x="192.943" y="213.363" xlink:href="#i"/>
<use x="152.78816" y="33.513" xlink:href="#i"/>
<use x="152.78816" y="40.713" xlink:href="#i"/>
<use x="206.78816" y="37.113" xlink:href="#i"/>
<use x="206.78816" y="33.513" xlink:href="#i"/>
<use x="206.78816" y="40.713" xlink:href="#i"/>
</g>
<path transform="matrix(.1 0 0 -.1 .528 360.91)" d="m1534 3154v-720h540v720" fill="none" stroke="#000" stroke-miterlimit="10" stroke-width="2.25"/>
<path transform="matrix(.1 0 0 -.1 .528 360.91)" d="m1534 2974h540" fill="none" stroke="#000" stroke-miterlimit="10" stroke-width="2.25"/>
<path transform="matrix(.1 0 0 -.1 .528 360.91)" d="m1534 2884h540" fill="none" stroke="#000" stroke-miterlimit="10" stroke-width="2.25"/>
<path transform="matrix(.1 0 0 -.1 .528 360.91)" d="m1534 2794h540" fill="none" stroke="#000" stroke-miterlimit="10" stroke-width="2.25"/>
<path transform="matrix(.1 0 0 -.1 .528 360.91)" d="m1534 2704h540" fill="none" stroke="#000" stroke-miterlimit="10" stroke-width="2.25"/>
<path transform="matrix(.1 0 0 -.1 .528 360.91)" d="m1534 2524h540" fill="none" stroke="#000" stroke-miterlimit="10" stroke-width="2.25"/>
<path transform="matrix(.1 0 0 -.1 .528 360.91)" d="m1534 2614h540" fill="none" stroke="#000" stroke-miterlimit="10" stroke-width="2.25"/>
<path transform="matrix(.1 0 0 -.1 .528 360.91)" d="m1534 3334v270h540v-270" fill="none" stroke="#000" stroke-miterlimit="10" stroke-width="2.25"/>
<path transform="matrix(.1 0 0 -.1 .528 360.91)" d="m1534 3514h540" fill="none" stroke="#000" stroke-miterlimit="10" stroke-width="2.25"/>
<path transform="matrix(.1 0 0 -.1 .528 360.91)" d="m1534 3424h540" fill="none" stroke="#000" stroke-miterlimit="10" stroke-width="2.25"/>
<path transform="matrix(.1 0 0 -.1 .528 360.91)" d="m1534 3064h540" fill="none" stroke="#000" stroke-miterlimit="10" stroke-width="2.25"/>
<g>
<use x="165.178" y="36.513" xlink:href="#aa"/>
<use x="171.676" y="36.513" xlink:href="#m"/>
<use x="176.68" y="36.513" xlink:href="#n"/>
<use x="181.684" y="36.513" xlink:href="#p"/>
<use x="186.688" y="36.513" xlink:href="#g"/>
<use x="189.19" y="36.513" xlink:href="#z"/>
<use x="162.928" y="45.513" xlink:href="#f"/>
<use x="167.428" y="45.513" xlink:href="#p"/>
<use x="172.432" y="45.513" xlink:href="#d"/>
<use x="177.436" y="45.513" xlink:href="#h"/>
<use x="179.434" y="45.513" xlink:href="#q"/>
<use x="183.934" y="45.513" xlink:href="#j"/>
<use x="188.938" y="45.513" xlink:href="#d"/>
<use x="193.942" y="45.513" xlink:href="#e"/>
<use x="159.32956" y="80.613" xlink:href="#b"/>
<use x="164.72956" y="80.613" xlink:href="#c"/>
<use x="170.12956" y="80.613" xlink:href="#c"/>
<use x="175.52956" y="80.613" xlink:href="#b"/>
<use x="180.92956" y="80.613" xlink:href="#b"/>
<use x="186.32956" y="80.613" xlink:href="#c"/>
<use x="191.72956" y="80.613" xlink:href="#c"/>
<use x="197.12956" y="80.613" xlink:href="#c"/>
<use x="159.32956" y="71.163" xlink:href="#c"/>
<use x="164.72956" y="71.163" xlink:href="#b"/>
<use x="170.12956" y="71.163" xlink:href="#b"/>
<use x="175.52956" y="71.163" xlink:href="#c"/>
<use x="180.92956" y="71.163" xlink:href="#c"/>
<use x="186.32956" y="71.163" xlink:href="#b"/>
<use x="191.72956" y="71.163" xlink:href="#c"/>
<use x="197.12956" y="71.163" xlink:href="#b"/>
<use x="159.32956" y="17.163" xlink:href="#b"/>
<use x="164.72956" y="17.163" xlink:href="#b"/>
<use x="170.12956" y="17.163" xlink:href="#b"/>
<use x="175.52956" y="17.163" xlink:href="#b"/>
<use x="180.92956" y="17.163" xlink:href="#b"/>
<use x="186.32956" y="17.163" xlink:href="#b"/>
<use x="191.72956" y="17.163" xlink:href="#c"/>
<use x="197.12956" y="17.163" xlink:href="#c"/>
<use x="18.00056" y="116.1028" xlink:href="#b"/>
<use x="23.40056" y="116.1028" xlink:href="#a"/>
<use x="28.80056" y="116.1028" xlink:href="#a"/>
<use x="34.20056" y="116.1028" xlink:href="#a"/>
<use x="39.60056" y="116.1028" xlink:href="#a"/>
<use x="45.00056" y="116.1028" xlink:href="#a"/>
<use x="50.40056" y="116.1028" xlink:href="#a"/>
<use x="55.80056" y="116.1028" xlink:href="#a"/>
<use x="61.20056" y="116.1028" xlink:href="#a"/>
<use x="66.60056" y="116.1028" xlink:href="#a"/>
<use x="72.00056" y="116.1028" xlink:href="#a"/>
<use x="77.40056" y="116.1028" xlink:href="#a"/>
<use x="82.80056" y="116.1028" xlink:href="#b"/>
<use x="88.20056" y="116.1028" xlink:href="#b"/>
<use x="93.60056" y="116.1028" xlink:href="#b"/>
<use x="99.00056" y="116.1028" xlink:href="#b"/>
<use x="18.00056" y="107.1028" xlink:href="#b"/>
<use x="23.40056" y="107.1028" xlink:href="#a"/>
<use x="28.80056" y="107.1028" xlink:href="#a"/>
<use x="34.20056" y="107.1028" xlink:href="#a"/>
<use x="39.60056" y="107.1028" xlink:href="#a"/>
<use x="45.00056" y="107.1028" xlink:href="#a"/>
<use x="50.40056" y="107.1028" xlink:href="#a"/>
<use x="55.80056" y="107.1028" xlink:href="#a"/>
<use x="61.20056" y="107.1028" xlink:href="#a"/>
<use x="66.60056" y="107.1028" xlink:href="#a"/>
<use x="72.00056" y="107.1028" xlink:href="#a"/>
<use x="77.40056" y="107.1028" xlink:href="#a"/>
<use x="82.80056" y="107.1028" xlink:href="#b"/>
<use x="88.20056" y="107.1028" xlink:href="#b"/>
<use x="93.60056" y="107.1028" xlink:href="#b"/>
<use x="99.00056" y="107.1028" xlink:href="#c"/>
<use x="18.00056" y="97.6528" xlink:href="#b"/>
<use x="23.40056" y="97.6528" xlink:href="#a"/>
<use x="28.80056" y="97.6528" xlink:href="#a"/>
<use x="34.20056" y="97.6528" xlink:href="#a"/>
<use x="39.60056" y="97.6528" xlink:href="#a"/>
<use x="45.00056" y="97.6528" xlink:href="#a"/>
<use x="50.40056" y="97.6528" xlink:href="#a"/>
<use x="55.80056" y="97.6528" xlink:href="#a"/>
<use x="61.20056" y="97.6528" xlink:href="#a"/>
<use x="66.60056" y="97.6528" xlink:href="#a"/>
<use x="72.00056" y="97.6528" xlink:href="#a"/>
<use x="77.40056" y="97.6528" xlink:href="#a"/>
<use x="82.80056" y="97.6528" xlink:href="#b"/>
<use x="88.20056" y="97.6528" xlink:href="#b"/>
<use x="93.60056" y="97.6528" xlink:href="#c"/>
<use x="99.00056" y="97.6528" xlink:href="#b"/>
<use x="18.00056" y="89.1028" xlink:href="#b"/>
<use x="23.40056" y="89.1028" xlink:href="#a"/>
<use x="28.80056" y="89.1028" xlink:href="#a"/>
<use x="34.20056" y="89.1028" xlink:href="#a"/>
<use x="39.60056" y="89.1028" xlink:href="#a"/>
<use x="45.00056" y="89.1028" xlink:href="#a"/>
<use x="50.40056" y="89.1028" xlink:href="#a"/>
<use x="55.80056" y="89.1028" xlink:href="#a"/>
<use x="61.20056" y="89.1028" xlink:href="#a"/>
<use x="66.60056" y="89.1028" xlink:href="#a"/>
<use x="72.00056" y="89.1028" xlink:href="#a"/>
<use x="77.40056" y="89.1028" xlink:href="#a"/>
<use x="82.80056" y="89.1028" xlink:href="#b"/>
<use x="88.20056" y="89.1028" xlink:href="#b"/>
<use x="93.60056" y="89.1028" xlink:href="#c"/>
<use x="99.00056" y="89.1028" xlink:href="#c"/>
<use x="18.00056" y="80.1028" xlink:href="#b"/>
<use x="23.40056" y="80.1028" xlink:href="#a"/>
<use x="28.80056" y="80.1028" xlink:href="#a"/>
<use x="34.20056" y="80.1028" xlink:href="#a"/>
<use x="39.60056" y="80.1028" xlink:href="#a"/>
<use x="45.00056" y="80.1028" xlink:href="#a"/>
<use x="50.40056" y="80.1028" xlink:href="#a"/>
<use x="55.80056" y="80.1028" xlink:href="#a"/>
<use x="61.20056" y="80.1028" xlink:href="#a"/>
<use x="66.60056" y="80.1028" xlink:href="#a"/>
<use x="72.00056" y="80.1028" xlink:href="#a"/>
<use x="77.40056" y="80.1028" xlink:href="#a"/>
<use x="82.80056" y="80.1028" xlink:href="#b"/>
<use x="88.20056" y="80.1028" xlink:href="#c"/>
<use x="93.60056" y="80.1028" xlink:href="#b"/>
<use x="99.00056" y="80.1028" xlink:href="#b"/>
<use x="18.00056" y="71.1028" xlink:href="#b"/>
<use x="23.40056" y="71.1028" xlink:href="#a"/>
<use x="28.80056" y="71.1028" xlink:href="#a"/>
<use x="34.20056" y="71.1028" xlink:href="#a"/>
<use x="39.60056" y="71.1028" xlink:href="#a"/>
<use x="45.00056" y="71.1028" xlink:href="#a"/>
<use x="50.40056" y="71.1028" xlink:href="#a"/>
<use x="55.80056" y="71.1028" xlink:href="#a"/>
<use x="61.20056" y="71.1028" xlink:href="#a"/>
<use x="66.60056" y="71.1028" xlink:href="#a"/>
<use x="72.00056" y="71.1028" xlink:href="#a"/>
<use x="77.40056" y="71.1028" xlink:href="#a"/>
<use x="82.80056" y="71.1028" xlink:href="#b"/>
<use x="88.20056" y="71.1028" xlink:href="#c"/>
<use x="93.60056" y="71.1028" xlink:href="#b"/>
<use x="99.00056" y="71.1028" xlink:href="#c"/>
<use x="18.00056" y="61.6528" xlink:href="#b"/>
<use x="23.40056" y="61.6528" xlink:href="#a"/>
<use x="28.80056" y="61.6528" xlink:href="#a"/>
<use x="34.20056" y="61.6528" xlink:href="#a"/>
<use x="39.60056" y="61.6528" xlink:href="#a"/>
<use x="45.00056" y="61.6528" xlink:href="#a"/>
<use x="50.40056" y="61.6528" xlink:href="#a"/>
<use x="55.80056" y="61.6528" xlink:href="#a"/>
<use x="61.20056" y="61.6528" xlink:href="#a"/>
<use x="66.60056" y="61.6528" xlink:href="#a"/>
<use x="72.00056" y="61.6528" xlink:href="#a"/>
<use x="77.40056" y="61.6528" xlink:href="#a"/>
<use x="82.80056" y="61.6528" xlink:href="#b"/>
<use x="88.20056" y="61.6528" xlink:href="#c"/>
<use x="93.60056" y="61.6528" xlink:href="#c"/>
<use x="99.00056" y="61.6528" xlink:href="#b"/>
<use x="18.00056" y="17.5528" xlink:href="#c"/>
<use x="23.40056" y="17.5528" xlink:href="#a"/>
<use x="28.80056" y="17.5528" xlink:href="#a"/>
<use x="34.20056" y="17.5528" xlink:href="#a"/>
<use x="39.60056" y="17.5528" xlink:href="#a"/>
<use x="45.00056" y="17.5528" xlink:href="#a"/>
<use x="50.40056" y="17.5528" xlink:href="#a"/>
<use x="55.80056" y="17.5528" xlink:href="#a"/>
<use x="61.20056" y="17.5528" xlink:href="#a"/>
<use x="66.60056" y="17.5528" xlink:href="#a"/>
<use x="72.00056" y="17.5528" xlink:href="#a"/>
<use x="77.40056" y="17.5528" xlink:href="#a"/>
<use x="82.80056" y="17.5528" xlink:href="#c"/>
<use x="88.20056" y="17.5528" xlink:href="#c"/>
<use x="93.60056" y="17.5528" xlink:href="#c"/>
<use x="99.00056" y="17.5528" xlink:href="#b"/>
<use x="18.00056" y="8.5528" xlink:href="#c"/>
<use x="23.40056" y="8.5528" xlink:href="#a"/>
<use x="28.80056" y="8.5528" xlink:href="#a"/>
<use x="34.20056" y="8.5528" xlink:href="#a"/>
<use x="39.60056" y="8.5528" xlink:href="#a"/>
<use x="45.00056" y="8.5528" xlink:href="#a"/>
<use x="50.40056" y="8.5528" xlink:href="#a"/>
<use x="55.80056" y="8.5528" xlink:href="#a"/>
<use x="61.20056" y="8.5528" xlink:href="#a"/>
<use x="66.60056" y="8.5528" xlink:href="#a"/>
<use x="72.00056" y="8.5528" xlink:href="#a"/>
<use x="77.40056" y="8.5528" xlink:href="#a"/>
<use x="82.80056" y="8.5528" xlink:href="#c"/>
<use x="88.20056" y="8.5528" xlink:href="#c"/>
<use x="93.60056" y="8.5528" xlink:href="#c"/>
<use x="99.00056" y="8.5528" xlink:href="#c"/>
</g>
<g clip-path="url(#av)">
<g clip-path="url(#au)">
<path transform="matrix(.1 0 0 -.1 .528 360.91)" d="m544.02 1894v540" fill="none" stroke="#000" stroke-miterlimit="10" stroke-width="2.25"/>
</g>
</g>
<path transform="matrix(.1 0 0 -.1 .528 360.91)" d="m553 2393.2-8.9844 36.016-9.0234-36.016z" fill-rule="evenodd" stroke="#000" stroke-miterlimit="10" stroke-width="2.25"/>
<g clip-path="url(#at)">
<g clip-path="url(#as)">
<path transform="matrix(.1 0 0 -.1 .528 360.91)" d="m1804 1894v540" fill="none" stroke="#000" stroke-miterlimit="10" stroke-width="2.25"/>
</g>
</g>
<path transform="matrix(.1 0 0 -.1 .528 360.91)" d="m1795 1934.8 9.0234-35.977 8.9844 35.977z" fill-rule="evenodd" stroke="#000" stroke-miterlimit="10" stroke-width="2.25"/>
<path transform="matrix(.1 0 0 -.1 .528 360.91)" d="m1813 2393.2-8.9844 36.016-9.0234-36.016z" fill-rule="evenodd" stroke="#000" stroke-miterlimit="10" stroke-width="2.25"/>
<g clip-path="url(#ar)">
<path transform="matrix(.1 0 0 -.1 .528 360.91)" d="m4.0169 4.0128h2160v1890h-2160z" fill="none" stroke="#000" stroke-miterlimit="10" stroke-width="2.25"/>
</g>
<path transform="matrix(.1 0 0 -.1 .528 360.91)" d="m1534 1669h540v135h-540z" fill="none" stroke="#000" stroke-miterlimit="10" stroke-width="2.25"/>
<path transform="matrix(.1 0 0 -.1 .528 360.91)" d="m94.017 1669h990v135h-990z" fill="none" stroke="#000" stroke-miterlimit="10" stroke-width="2.25"/>
<path transform="matrix(.1 0 0 -.1 .528 360.91)" d="m94.017 1309h990v135h-990z" fill="none" stroke="#000" stroke-miterlimit="10" stroke-width="2.25"/>
<path transform="matrix(.1 0 0 -.1 .528 360.91)" d="m1534 1309h540v135h-540z" fill="none" stroke="#000" stroke-miterlimit="10" stroke-width="2.25"/>
<path transform="matrix(.1 0 0 -.1 .528 360.91)" d="m1534 949.01h540v135h-540z" fill="none" stroke="#000" stroke-miterlimit="10" stroke-width="2.25"/>
<path transform="matrix(.1 0 0 -.1 .528 360.91)" d="m1534 589.01h540v135h-540z" fill="none" stroke="#000" stroke-miterlimit="10" stroke-width="2.25"/>
<path transform="matrix(.1 0 0 -.1 .528 360.91)" d="m1534 229.01h540v135h-540z" fill="none" stroke="#000" stroke-miterlimit="10" stroke-width="2.25"/>
<g clip-path="url(#aq)">
<g clip-path="url(#ap)">
<path transform="matrix(.1 0 0 -.1 .528 360.91)" d="m2029 1669v-225" fill="none" stroke="#000" stroke-miterlimit="10" stroke-width="2.25"/>
</g>
</g>
<path transform="matrix(.1 0 0 -.1 .528 360.91)" d="m2020 1484.8 9.0234-35.977 8.9844 35.977z" fill-rule="evenodd" stroke="#000" stroke-miterlimit="10" stroke-width="2.25"/>
<g clip-path="url(#ao)">
<g clip-path="url(#an)">
<path transform="matrix(.1 0 0 -.1 .528 360.91)" d="m1039 1444v225" fill="none" stroke="#000" stroke-miterlimit="10" stroke-width="2.25"/>
</g>
</g>
<path transform="matrix(.1 0 0 -.1 .528 360.91)" d="m1048 1628.2-8.9844 36.016-9.0234-36.016z" fill-rule="evenodd" stroke="#000" stroke-miterlimit="10" stroke-width="2.25"/>
<g>
<use x="59.428" y="144.513" xlink:href="#y"/>
<use x="65.431" y="144.513" xlink:href="#x"/>
<use x="70.435" y="144.513" xlink:href="#e"/>
<use x="73.432" y="144.513" xlink:href="#d"/>
<use x="78.436" y="144.513" xlink:href="#f"/>
<use x="82.936" y="144.513" xlink:href="#f"/>
<use x="87.436" y="144.513" xlink:href="#w"/>
<use x="92.44" y="144.513" xlink:href="#n"/>
<use x="97.444" y="144.513" xlink:href="#f"/>
<use x="63.928" y="155.763" xlink:href="#am"/>
<use x="68.932" y="155.763" xlink:href="#al"/>
<use x="73.936" y="155.763" xlink:href="#glyph-0-22"/>
<use x="76.438" y="155.763" xlink:href="#o"/>
<use x="82.441" y="155.763" xlink:href="#h"/>
<use x="84.439" y="155.763" xlink:href="#g"/>
<use x="185.428" y="144.513" xlink:href="#ak"/>
<use x="191.926" y="144.513" xlink:href="#m"/>
<use x="196.93" y="144.513" xlink:href="#g"/>
<use x="199.432" y="144.513" xlink:href="#d"/>
<use x="204.436" y="144.513" xlink:href="#v"/>
<use x="209.44" y="144.513" xlink:href="#w"/>
<use x="214.444" y="144.513" xlink:href="#n"/>
<use x="219.448" y="144.513" xlink:href="#f"/>
<use x="196.678" y="155.763" xlink:href="#aj"/>
<use x="201.682" y="155.763" xlink:href="#glyph-0-22"/>
<use x="204.184" y="155.763" xlink:href="#o"/>
<use x="210.187" y="155.763" xlink:href="#h"/>
<use x="212.185" y="155.763" xlink:href="#g"/>
<use x="9.928" y="241.263" xlink:href="#o"/>
<use x="15.931" y="241.263" xlink:href="#d"/>
<use x="20.935" y="241.263" xlink:href="#u"/>
<use x="23.437" y="241.263" xlink:href="#d"/>
<use x="28.441" y="241.263" xlink:href="#j"/>
<use x="33.445" y="241.263" xlink:href="#l"/>
<use x="35.443" y="241.263" xlink:href="#f"/>
<use x="39.943" y="241.263" xlink:href="#ai"/>
<use x="44.443" y="241.263" xlink:href="#ah"/>
<use x="49.447" y="241.263" xlink:href="#j"/>
<use x="54.451" y="241.263" xlink:href="#l"/>
<use x="56.449" y="241.263" xlink:href="#e"/>
<use x="59.446" y="241.263" xlink:href="#d"/>
<use x="64.45" y="241.263" xlink:href="#k"/>
<use x="69.454" y="241.263" xlink:href="#h"/>
<use x="71.452" y="241.263" xlink:href="#f"/>
<use x="75.952" y="241.263" xlink:href="#g"/>
<use x="78.454" y="241.263" xlink:href="#d"/>
<use x="83.458" y="241.263" xlink:href="#e"/>
<use x="153.928" y="241.263" xlink:href="#o"/>
<use x="159.931" y="241.263" xlink:href="#d"/>
<use x="164.935" y="241.263" xlink:href="#u"/>
<use x="167.437" y="241.263" xlink:href="#d"/>
<use x="172.441" y="241.263" xlink:href="#j"/>
<use x="177.445" y="241.263" xlink:href="#l"/>
<use x="179.443" y="241.263" xlink:href="#f"/>
<use x="183.943" y="241.263" xlink:href="#e"/>
<use x="186.94" y="241.263" xlink:href="#d"/>
<use x="191.944" y="241.263" xlink:href="#k"/>
<use x="196.948" y="241.263" xlink:href="#i"/>
<use x="153.928" y="277.263" xlink:href="#y"/>
<use x="159.931" y="277.263" xlink:href="#t"/>
<use x="164.431" y="277.263" xlink:href="#t"/>
<use x="168.931" y="277.263" xlink:href="#n"/>
<use x="173.935" y="277.263" xlink:href="#ag"/>
<use x="181.432" y="277.263" xlink:href="#n"/>
<use x="186.436" y="277.263" xlink:href="#l"/>
<use x="188.434" y="277.263" xlink:href="#m"/>
<use x="193.438" y="277.263" xlink:href="#g"/>
<use x="195.94" y="277.263" xlink:href="#af"/>
<use x="200.944" y="277.263" xlink:href="#e"/>
<use x="153.928" y="313.263" xlink:href="#s"/>
<use x="160.426" y="313.263" xlink:href="#d"/>
<use x="165.43" y="313.263" xlink:href="#k"/>
<use x="170.434" y="313.263" xlink:href="#h"/>
<use x="172.432" y="313.263" xlink:href="#f"/>
<use x="176.932" y="313.263" xlink:href="#g"/>
<use x="179.434" y="313.263" xlink:href="#d"/>
<use x="184.438" y="313.263" xlink:href="#e"/>
<use x="187.435" y="313.263" xlink:href="#glyph-0-22"/>
<use x="189.937" y="313.263" xlink:href="#aa"/>
<use x="153.928" y="349.263" xlink:href="#s"/>
<use x="160.426" y="349.263" xlink:href="#d"/>
<use x="165.43" y="349.263" xlink:href="#k"/>
<use x="170.434" y="349.263" xlink:href="#h"/>
<use x="172.432" y="349.263" xlink:href="#f"/>
<use x="176.932" y="349.263" xlink:href="#g"/>
<use x="179.434" y="349.263" xlink:href="#d"/>
<use x="184.438" y="349.263" xlink:href="#e"/>
<use x="187.435" y="349.263" xlink:href="#glyph-0-22"/>
<use x="189.937" y="349.263" xlink:href="#ae"/>
<use x="45.928" y="288.513" xlink:href="#ad"/>
<use x="52.426" y="288.513" xlink:href="#ac"/>
<use x="58.429" y="288.513" xlink:href="#ab"/>
<use x="16.2311" y="190.413" xlink:href="#b"/>
<use x="21.6311" y="190.413" xlink:href="#a"/>
<use x="27.0311" y="190.413" xlink:href="#a"/>
<use x="32.4311" y="190.413" xlink:href="#a"/>
<use x="37.8311" y="190.413" xlink:href="#a"/>
<use x="43.2311" y="190.413" xlink:href="#a"/>
<use x="48.6311" y="190.413" xlink:href="#a"/>
<use x="54.0311" y="190.413" xlink:href="#a"/>
<use x="59.4311" y="190.413" xlink:href="#a"/>
<use x="64.8311" y="190.413" xlink:href="#a"/>
<use x="70.2311" y="190.413" xlink:href="#a"/>
<use x="75.6311" y="190.413" xlink:href="#a"/>
<use x="81.0311" y="190.413" xlink:href="#b"/>
<use x="86.4311" y="190.413" xlink:href="#c"/>
<use x="91.8311" y="190.413" xlink:href="#b"/>
<use x="97.2311" y="190.413" xlink:href="#b"/>
<use x="16.2311" y="226.413" xlink:href="#b"/>
<use x="21.6311" y="226.413" xlink:href="#a"/>
<use x="27.0311" y="226.413" xlink:href="#a"/>
<use x="32.4311" y="226.413" xlink:href="#a"/>
<use x="37.8311" y="226.413" xlink:href="#a"/>
<use x="43.2311" y="226.413" xlink:href="#a"/>
<use x="48.6311" y="226.413" xlink:href="#a"/>
<use x="54.0311" y="226.413" xlink:href="#a"/>
<use x="59.4311" y="226.413" xlink:href="#a"/>
<use x="64.8311" y="226.413" xlink:href="#a"/>
<use x="70.2311" y="226.413" xlink:href="#a"/>
<use x="75.6311" y="226.413" xlink:href="#a"/>
<use x="81.0311" y="226.413" xlink:href="#b"/>
<use x="86.4311" y="226.413" xlink:href="#c"/>
<use x="91.8311" y="226.413" xlink:href="#b"/>
<use x="97.2311" y="226.413" xlink:href="#b"/>
<use x="159.3291" y="190.413" xlink:href="#b"/>
<use x="164.7291" y="190.413" xlink:href="#c"/>
<use x="170.1291" y="190.413" xlink:href="#c"/>
<use x="175.5291" y="190.413" xlink:href="#b"/>
<use x="180.9291" y="190.413" xlink:href="#b"/>
<use x="186.3291" y="190.413" xlink:href="#c"/>
<use x="191.7291" y="190.413" xlink:href="#c"/>
<use x="197.1291" y="190.413" xlink:href="#c"/>
<use x="159.3291" y="226.413" xlink:href="#b"/>
<use x="164.7291" y="226.413" xlink:href="#c"/>
<use x="170.1291" y="226.413" xlink:href="#c"/>
<use x="175.5291" y="226.413" xlink:href="#b"/>
<use x="180.9291" y="226.413" xlink:href="#b"/>
<use x="186.3291" y="226.413" xlink:href="#c"/>
<use x="191.7291" y="226.413" xlink:href="#c"/>
<use x="197.1291" y="226.413" xlink:href="#c"/>
<use x="159.3291" y="262.413" xlink:href="#b"/>
<use x="164.7291" y="262.413" xlink:href="#b"/>
<use x="170.1291" y="262.413" xlink:href="#b"/>
<use x="175.5291" y="262.413" xlink:href="#b"/>
<use x="180.9291" y="262.413" xlink:href="#c"/>
<use x="186.3291" y="262.413" xlink:href="#c"/>
<use x="191.7291" y="262.413" xlink:href="#b"/>
<use x="197.1291" y="262.413" xlink:href="#c"/>
<use x="159.3291" y="298.413" xlink:href="#c"/>
<use x="164.7291" y="298.413" xlink:href="#c"/>
<use x="170.1291" y="298.413" xlink:href="#c"/>
<use x="175.5291" y="298.413" xlink:href="#c"/>
<use x="180.9291" y="298.413" xlink:href="#c"/>
<use x="186.3291" y="298.413" xlink:href="#c"/>
<use x="191.7291" y="298.413" xlink:href="#c"/>
<use x="197.1291" y="298.413" xlink:href="#c"/>
<use x="159.3291" y="334.413" xlink:href="#c"/>
<use x="164.7291" y="334.413" xlink:href="#c"/>
<use x="170.1291" y="334.413" xlink:href="#c"/>
<use x="175.5291" y="334.413" xlink:href="#c"/>
<use x="180.9291" y="334.413" xlink:href="#c"/>
<use x="186.3291" y="334.413" xlink:href="#c"/>
<use x="191.7291" y="334.413" xlink:href="#c"/>
<use x="197.1291" y="334.413" xlink:href="#b"/>
<use x="9.9271" y="205.263" xlink:href="#r"/>
<use x="15.9301" y="205.263" xlink:href="#p"/>
<use x="20.9341" y="205.263" xlink:href="#d"/>
<use x="25.9381" y="205.263" xlink:href="#h"/>
<use x="27.9361" y="205.263" xlink:href="#q"/>
<use x="32.4361" y="205.263" xlink:href="#j"/>
<use x="37.4401" y="205.263" xlink:href="#d"/>
<use x="42.4441" y="205.263" xlink:href="#e"/>
<use x="45.4411" y="205.263" xlink:href="#m"/>
<use x="50.4451" y="205.263" xlink:href="#x"/>
<use x="55.4491" y="205.263" xlink:href="#e"/>
<use x="58.4461" y="205.263" xlink:href="#d"/>
<use x="63.4501" y="205.263" xlink:href="#f"/>
<use x="67.9501" y="205.263" xlink:href="#f"/>
<use x="72.4501" y="205.263" xlink:href="#e"/>
<use x="75.4471" y="205.263" xlink:href="#d"/>
<use x="80.4511" y="205.263" xlink:href="#k"/>
<use x="85.4551" y="205.263" xlink:href="#h"/>
<use x="87.4531" y="205.263" xlink:href="#f"/>
<use x="91.9531" y="205.263" xlink:href="#g"/>
<use x="94.4551" y="205.263" xlink:href="#d"/>
<use x="99.4591" y="205.263" xlink:href="#e"/>
<use x="153.9271" y="204.363" xlink:href="#r"/>
<use x="159.9301" y="204.363" xlink:href="#p"/>
<use x="164.9341" y="204.363" xlink:href="#d"/>
<use x="169.9381" y="204.363" xlink:href="#h"/>
<use x="171.9361" y="204.363" xlink:href="#q"/>
<use x="176.4361" y="204.363" xlink:href="#j"/>
<use x="181.4401" y="204.363" xlink:href="#d"/>
<use x="186.4441" y="204.363" xlink:href="#e"/>
<use x="189.4411" y="204.363" xlink:href="#z"/>
<use x="152.78726" y="37.113" xlink:href="#i"/>
</g>
</svg>
