<svg width="388pt" height="93pt" version="1.1" viewBox="0 0 388 93" xmlns="http://www.w3.org/2000/svg" xmlns:xlink="http://www.w3.org/1999/xlink">
<defs>
<g id="m">
<path d="m5.9531-4.5312c-0.25-1.4375-1.0781-2.1406-2.5312-2.1406-0.875 0-1.5781 0.28125-2.0781 0.82812-0.59375 0.64062-0.90625 1.5781-0.90625 2.6406 0 1.0781 0.32812 2 0.95312 2.6406 0.5 0.53125 1.1406 0.76562 2 0.76562 1.6094 0 2.5-0.85938 2.7031-2.5938h-0.85938c-0.078125 0.45312-0.17188 0.75-0.29688 1.0156-0.28125 0.53125-0.82812 0.84375-1.5312 0.84375-1.3125 0-2.1406-1.0469-2.1406-2.6875 0-1.6719 0.79688-2.7188 2.0625-2.7188 0.53125 0 1.0312 0.17188 1.2969 0.42188 0.25 0.21875 0.375 0.5 0.48438 0.98438z"/>
</g>
<g id="l">
<path d="m1.6562-2.7812h2.0625c0.51562 0 0.92188-0.15625 1.2656-0.46875 0.39062-0.35938 0.5625-0.78125 0.5625-1.3906 0-1.2344-0.71875-1.9219-2.0156-1.9219h-2.7188v6.5625h0.84375zm0-0.73438v-2.3125h1.75c0.79688 0 1.2812 0.4375 1.2812 1.1562s-0.48438 1.1562-1.2812 1.1562z"/>
</g>
<g id="u">
<path d="m4.9688-6.5625v4.6094c0 0.875-0.64062 1.4219-1.6875 1.4219-0.48438 0-0.89062-0.10938-1.2031-0.34375-0.32812-0.25-0.46875-0.57812-0.46875-1.0781v-4.6094h-0.84375v4.6094c0 1.3281 0.95312 2.1562 2.5156 2.1562 1.5312 0 2.5312-0.84375 2.5312-2.1562v-4.6094z"/>
</g>
<g id="t">
<path d="m5.3594-4.6406c0-1.2812-0.89062-2.0312-2.3906-2.0312-1.4531 0-2.3438 0.73438-2.3438 1.9219 0 0.8125 0.42188 1.3125 1.2969 1.5312l1.625 0.4375c0.82812 0.21875 1.2031 0.54688 1.2031 1.0625 0 0.34375-0.1875 0.70312-0.46875 0.90625-0.26562 0.1875-0.67188 0.28125-1.2031 0.28125-0.71875 0-1.2031-0.17188-1.5156-0.54688-0.23438-0.29688-0.34375-0.60938-0.34375-1.0156h-0.78125c0 0.60938 0.125 1 0.375 1.3594 0.45312 0.625 1.2188 0.9375 2.2188 0.9375 0.78125 0 1.4219-0.17188 1.8438-0.5 0.4375-0.34375 0.71875-0.9375 0.71875-1.5 0-0.8125-0.51562-1.4062-1.4062-1.6562l-1.6406-0.4375c-0.79688-0.21875-1.0781-0.46875-1.0781-0.96875 0-0.67188 0.57812-1.1094 1.4688-1.1094 1.0469 0 1.625 0.48438 1.6406 1.3281z"/>
</g>
<g id="q">
<path d="m0.48438 1.9688h0.75v-2.4688c0.40625 0.48438 0.84375 0.70312 1.4531 0.70312 1.2188 0 2.0156-0.98438 2.0156-2.4844 0-1.5781-0.76562-2.5625-2.0156-2.5625-0.64062 0-1.1562 0.28125-1.5156 0.84375v-0.71875h-0.6875zm2.0781-6.125c0.82812 0 1.3594 0.73438 1.3594 1.8594 0 1.0781-0.54688 1.7969-1.3594 1.7969-0.79688 0-1.3281-0.71875-1.3281-1.8281 0-1.0938 0.53125-1.8281 1.3281-1.8281z"/>
</g>
<g id="b">
<path d="m4.6094-2.1094c0-0.71875-0.046875-1.1562-0.1875-1.5-0.29688-0.78125-1.0156-1.2344-1.9062-1.2344-1.3125 0-2.1562 1-2.1562 2.5469s0.8125 2.5 2.1406 2.5c1.0781 0 1.8281-0.60938 2.0156-1.6406h-0.75c-0.20312 0.625-0.64062 0.95312-1.2344 0.95312-0.48438 0-0.89062-0.21875-1.1406-0.60938-0.17188-0.28125-0.23438-0.54688-0.25-1.0156zm-3.4531-0.60938c0.0625-0.875 0.59375-1.4375 1.3594-1.4375 0.73438 0 1.2969 0.60938 1.2969 1.3906v0.046875z"/>
</g>
<g id="j">
<path d="m1.3438-4.7188h-0.73438v4.7188h0.73438zm0-1.8438h-0.75v0.95312h0.75z"/>
</g>
<g id="p">
<path d="m4.2344-3.125c-0.03125-0.46875-0.125-0.76562-0.3125-1.0312-0.32812-0.4375-0.89062-0.6875-1.5469-0.6875-1.2656 0-2.0938 1-2.0938 2.5625 0 1.5312 0.8125 2.4844 2.0781 2.4844 1.125 0 1.8438-0.67188 1.9375-1.8281h-0.76562c-0.125 0.76562-0.5 1.1406-1.1406 1.1406-0.82812 0-1.3281-0.67188-1.3281-1.7969 0-1.1719 0.48438-1.875 1.2969-1.875 0.64062 0 1.0312 0.375 1.125 1.0312z"/>
</g>
<g id="o">
<path d="m0.625-6.5625v6.5625h0.75v-2.5938c0-0.96875 0.5-1.5938 1.2812-1.5938 0.23438 0 0.48438 0.078125 0.67188 0.20312 0.20312 0.15625 0.29688 0.39062 0.29688 0.71875v3.2656h0.75v-3.5625c0-0.79688-0.5625-1.2812-1.4844-1.2812-0.67188 0-1.0781 0.20312-1.5156 0.78125v-2.5z"/>
</g>
<g id="e">
<path d="m0.625-4.7188v4.7188h0.75v-2.4531c0-0.67188 0.17188-1.1094 0.53125-1.375 0.23438-0.17188 0.45312-0.21875 0.98438-0.23438v-0.76562c-0.125-0.015625-0.1875-0.015625-0.29688-0.015625-0.48438 0-0.84375 0.28125-1.2812 0.98438v-0.85938z"/>
</g>
<g id="aa">
<path d="m4.9531-2.9844v2.9844h0.84375v-6.5625h-0.84375v2.8438h-3.375v-2.8438h-0.82812v6.5625h0.84375v-2.9844z"/>
</g>
<g id="i">
<path d="m4.8125-0.4375c-0.078125 0.015625-0.10938 0.015625-0.15625 0.015625-0.26562 0-0.40625-0.14062-0.40625-0.375v-2.7656c0-0.84375-0.60938-1.2812-1.7812-1.2812-0.67188 0-1.25 0.1875-1.5625 0.54688-0.21875 0.23438-0.29688 0.51562-0.32812 0.96875h0.76562c0.0625-0.5625 0.40625-0.82812 1.1094-0.82812 0.67188 0 1.0469 0.25 1.0469 0.70312v0.1875c0 0.32812-0.1875 0.45312-0.78125 0.53125-1.0625 0.14062-1.2188 0.17188-1.5156 0.28125-0.54688 0.23438-0.82812 0.65625-0.82812 1.2656 0 0.85938 0.59375 1.3906 1.5469 1.3906 0.59375 0 1.0781-0.20312 1.6094-0.6875 0.046875 0.46875 0.28125 0.6875 0.76562 0.6875 0.15625 0 0.28125-0.015625 0.51562-0.078125zm-1.3125-1.0469c0 0.25-0.078125 0.40625-0.29688 0.60938-0.3125 0.28125-0.67188 0.42188-1.1094 0.42188-0.59375 0-0.9375-0.28125-0.9375-0.75 0-0.5 0.34375-0.75 1.1406-0.85938s0.95312-0.15625 1.2031-0.26562z"/>
</g>
<g id="f">
<path d="m4.3438 0v-4.7188h-0.75v2.6719c0 0.96875-0.5 1.5938-1.2969 1.5938-0.59375 0-0.96875-0.35938-0.96875-0.92188v-3.3438h-0.75v3.6406c0 0.78125 0.59375 1.2812 1.5156 1.2812 0.6875 0 1.125-0.23438 1.5625-0.85938v0.65625z"/>
</g>
<g id="a">
<path d="m2.2812-4.7188h-0.76562v-1.2969h-0.75v1.2969h-0.64062v0.60938h0.64062v3.5625c0 0.48438 0.32812 0.75 0.90625 0.75 0.1875 0 0.35938-0.015625 0.60938-0.0625v-0.625c-0.09375 0.03125-0.21875 0.03125-0.35938 0.03125-0.3125 0-0.40625-0.09375-0.40625-0.42188v-3.2344h0.76562z"/>
</g>
<g id="n">
<path d="m4.8906-2.4062h-4.5312v0.64062h4.5312z"/>
</g>
<g id="c">
<path d="m1.375-6.5625h-0.76562v6.5625h0.76562z"/>
</g>
<g id="z">
<path d="m0.79688 0h2.5312c1.6562 0 2.6719-1.2344 2.6719-3.2812 0-2.0312-1-3.2812-2.6719-3.2812h-2.5312zm0.84375-0.73438v-5.0938h1.5469c1.2969 0 1.9844 0.875 1.9844 2.5469 0 1.6562-0.6875 2.5469-1.9844 2.5469z"/>
</g>
<g id="y">
<path d="m4.2188 0 1.8438-5.5v5.5h0.78125v-6.5625h-1.1562l-1.9062 5.7188-1.9375-5.7188h-1.1719v6.5625h0.79688v-5.5l1.8594 5.5z"/>
</g>
<g id="s">
<path d="m4.2656-1.9688 0.67188 1.9688h0.9375l-2.2969-6.5625h-1.0781l-2.3438 6.5625h0.89062l0.6875-1.9688zm-0.23438-0.70312h-2.0938l1.0938-2.9844z"/>
</g>
<g id="h">
<path d="m2.4531-4.8438c-1.3281 0-2.125 0.9375-2.125 2.5156 0 1.5938 0.78125 2.5312 2.125 2.5312 1.3281 0 2.1406-0.9375 2.1406-2.4844 0-1.6406-0.78125-2.5625-2.1406-2.5625zm0 0.6875c0.84375 0 1.3594 0.6875 1.3594 1.8594 0 1.1094-0.53125 1.8125-1.3594 1.8125s-1.3438-0.6875-1.3438-1.8438c0-1.125 0.51562-1.8281 1.3438-1.8281z"/>
</g>
<g id="d">
<path d="m0.625-4.7188v4.7188h0.76562v-2.5938c0-0.96875 0.5-1.5938 1.2656-1.5938 0.60938 0 0.98438 0.35938 0.98438 0.92188v3.2656h0.75v-3.5625c0-0.78125-0.59375-1.2812-1.5-1.2812-0.70312 0-1.1562 0.26562-1.5625 0.92188v-0.79688z"/>
</g>
<g id="r">
<path d="m0.71875 0h2.9531c0.625 0 1.0781-0.17188 1.4375-0.54688 0.3125-0.34375 0.5-0.8125 0.5-1.3281 0-0.78125-0.35938-1.2656-1.2031-1.5938 0.59375-0.28125 0.90625-0.76562 0.90625-1.4219 0-0.48438-0.17188-0.90625-0.51562-1.2188s-0.79688-0.45312-1.4219-0.45312h-2.6562zm0.82812-3.7344v-2.0938h1.625c0.46875 0 0.71875 0.0625 0.95312 0.23438 0.23438 0.1875 0.35938 0.45312 0.35938 0.8125s-0.125 0.625-0.35938 0.8125c-0.23438 0.17188-0.48438 0.23438-0.95312 0.23438zm0 3v-2.2656h2.0469c0.40625 0 0.67188 0.10938 0.875 0.3125 0.1875 0.21875 0.29688 0.5 0.29688 0.82812 0 0.3125-0.10938 0.59375-0.29688 0.8125-0.20312 0.20312-0.46875 0.3125-0.875 0.3125z"/>
</g>
<g id="k">
<path d="m3.9375-3.4062c0-0.92188-0.60938-1.4375-1.7031-1.4375s-1.8125 0.5625-1.8125 1.4375c0 0.73438 0.375 1.0781 1.5 1.3594l0.70312 0.17188c0.51562 0.125 0.71875 0.3125 0.71875 0.65625 0 0.4375-0.4375 0.73438-1.0938 0.73438-0.40625 0-0.75-0.125-0.9375-0.3125-0.10938-0.14062-0.17188-0.28125-0.21875-0.60938h-0.78125c0.03125 1.0938 0.64062 1.6094 1.875 1.6094 1.1875 0 1.9375-0.57812 1.9375-1.4844 0-0.70312-0.39062-1.0938-1.3281-1.3125l-0.71875-0.17188c-0.60938-0.15625-0.875-0.34375-0.875-0.6875 0-0.42188 0.39062-0.70312 1-0.70312s0.92188 0.26562 0.95312 0.75z"/>
</g>
<g id="x">
<path d="m4.8125-0.4375c-0.078125 0.015625-0.10938 0.015625-0.15625 0.015625-0.26562 0-0.40625-0.14062-0.40625-0.375v-2.7656c0-0.84375-0.60938-1.2812-1.7812-1.2812-0.67188 0-1.25 0.1875-1.5625 0.54688-0.21875 0.23438-0.29688 0.51562-0.32812 0.96875h0.76562c0.0625-0.5625 0.40625-0.82812 1.1094-0.82812 0.67188 0 1.0469 0.25 1.0469 0.70312v0.1875c0 0.32812-0.1875 0.45312-0.78125 0.53125-1.0625 0.14062-1.2188 0.17188-1.5156 0.28125-0.54688 0.23438-0.82812 0.65625-0.82812 1.2656 0 0.85938 0.59375 1.3906 1.5469 1.3906 0.59375 0 1.0781-0.20312 1.6094-0.6875 0.046875 0.46875 0.28125 0.6875 0.76562 0.6875 0.15625 0 0.28125-0.015625 0.51562-0.078125zm-1.3125-1.0469c0 0.25-0.078125 0.40625-0.29688 0.60938-0.3125 0.28125-0.67188 0.42188-1.1094 0.42188-0.59375 0-0.9375-0.28125-0.9375-0.75 0-0.5 0.34375-0.75 1.1406-0.85938s0.95312-0.15625 1.2031-0.26562zm-1.2969-4.9531h-0.9375v0.92188h0.9375zm1.4531 0h-0.9375v0.92188h0.9375z"/>
</g>
<g id="g">
<path d="m3.7031-4.7188v0.6875c-0.375-0.5625-0.82812-0.8125-1.4375-0.8125-1.1875 0-2 1.0312-2 2.5625 0 0.78125 0.20312 1.4062 0.59375 1.8594 0.34375 0.39062 0.84375 0.625 1.3438 0.625 0.59375 0 1.0156-0.25 1.4375-0.84375v0.25c0 0.64062-0.078125 1.0156-0.28125 1.2812-0.1875 0.28125-0.57812 0.4375-1.0312 0.4375-0.34375 0-0.65625-0.09375-0.85938-0.25-0.17188-0.14062-0.25-0.26562-0.29688-0.53125h-0.76562c0.09375 0.89062 0.78125 1.4219 1.8906 1.4219 0.70312 0 1.2969-0.23438 1.6094-0.60938 0.35938-0.4375 0.5-1.0312 0.5-2.1406v-3.9375zm-1.3594 0.5625c0.8125 0 1.2969 0.6875 1.2969 1.8594 0 1.125-0.48438 1.8125-1.2812 1.8125-0.82812 0-1.3125-0.6875-1.3125-1.8438 0-1.125 0.5-1.8281 1.2969-1.8281z"/>
</g>
<g id="w">
<path d="m2.3281-4.7188h-0.79688v-0.73438c0-0.3125 0.1875-0.48438 0.53125-0.48438 0.0625 0 0.09375 0 0.26562 0.015625v-0.625c-0.17188-0.03125-0.28125-0.046875-0.42188-0.046875-0.70312 0-1.1094 0.40625-1.1094 1.0781v0.79688h-0.64062v0.60938h0.64062v4.1094h0.73438v-4.1094h0.79688z"/>
</g>
<g id="v">
<path d="m4.4531-6.5625h-0.75v2.4375c-0.3125-0.46875-0.8125-0.71875-1.4375-0.71875-1.2344 0-2.0312 0.96875-2.0312 2.4844 0 1.5781 0.78125 2.5625 2.0469 2.5625 0.65625 0 1.1094-0.23438 1.5-0.82812v0.625h0.67188zm-2.0625 2.4062c0.79688 0 1.3125 0.73438 1.3125 1.8594 0 1.0781-0.51562 1.7969-1.3125 1.7969-0.82812 0-1.375-0.71875-1.375-1.8281 0-1.0938 0.54688-1.8281 1.375-1.8281z"/>
</g>
<clipPath id="ag">
<path d="m0.52734 71h39.473v21.613h-39.473z"/>
</clipPath>
<clipPath id="af">
<path d="m38 71h43v21.613h-43z"/>
</clipPath>
<clipPath id="ae">
<path d="m65 38h110v1h-110z"/>
</clipPath>
<clipPath id="ad">
<path d="m0.52734-1.3867v94h391v-94zm169.42 40.703h4.5273v-1.8008h-4.5273l3.5977 0.89844z" clip-rule="evenodd"/>
</clipPath>
<clipPath id="ac">
<path d="m65 47h110v1h-110z"/>
</clipPath>
<clipPath id="ab">
<path d="m0.52734-1.3867v94h391v-94zm69.582 47.902h-4.5312v1.8008h4.5312l-3.6016-0.90234z" clip-rule="evenodd"/>
</clipPath>
</defs>
<g>
<use x="245.529" y="46.2752" xlink:href="#m"/>
<use x="252.027" y="46.2752" xlink:href="#l"/>
<use x="258.03" y="46.2752" xlink:href="#u"/>
<use x="336.272" y="50.7752" xlink:href="#t"/>
<use x="342.275" y="50.7752" xlink:href="#q"/>
<use x="347.279" y="50.7752" xlink:href="#b"/>
<use x="352.283" y="50.7752" xlink:href="#j"/>
<use x="354.281" y="50.7752" xlink:href="#p"/>
<use x="358.781" y="50.7752" xlink:href="#o"/>
<use x="363.785" y="50.7752" xlink:href="#b"/>
<use x="368.789" y="50.7752" xlink:href="#e"/>
<use x="339.39466" y="41.14512" xlink:href="#aa"/>
<use x="345.89266" y="41.14512" xlink:href="#i"/>
<use x="350.89666" y="41.14512" xlink:href="#f"/>
<use x="355.90066" y="41.14512" xlink:href="#q"/>
<use x="360.90466" y="41.14512" xlink:href="#a"/>
<use x="363.40666" y="41.14512" xlink:href="#n"/>
</g>
<g clip-path="url(#ag)">
<path transform="matrix(.1 0 0 -.1 .528 92.615)" d="m362.49 92.009c0-49.727-80.586-90-180-90-99.414 0-180 40.273-180 90 0 49.688 80.586 90 180 90 99.414 0 180-40.312 180-90z" fill="none" stroke="#000" stroke-miterlimit="10" stroke-width="2.25"/>
</g>
<g clip-path="url(#af)">
<path transform="matrix(.1 0 0 -.1 .528 92.615)" d="m767.49 92.009c0-49.727-80.586-90-180-90-99.414 0-180 40.273-180 90 0 49.688 80.586 90 180 90 99.414 0 180-40.312 180-90z" fill="none" stroke="#000" stroke-miterlimit="10" stroke-width="2.25"/>
</g>
<path transform="matrix(.1 0 0 -.1 .528 92.615)" d="m204.99 182.01 180 180 180-180" fill="none" stroke="#000" stroke-miterlimit="10" stroke-width="2.25"/>
<g>
<use x="47.7718" y="86.35484" xlink:href="#l"/>
<use x="53.7748" y="86.35484" xlink:href="#c"/>
<use x="55.7728" y="86.35484" xlink:href="#i"/>
<use x="60.7768" y="86.35484" xlink:href="#a"/>
<use x="63.2788" y="86.35484" xlink:href="#a"/>
<use x="65.7808" y="86.35484" xlink:href="#b"/>
<use x="7.2718" y="86.114996" xlink:href="#l"/>
<use x="13.2748" y="86.114996" xlink:href="#c"/>
<use x="15.2728" y="86.114996" xlink:href="#i"/>
<use x="20.2768" y="86.114996" xlink:href="#a"/>
<use x="22.7788" y="86.114996" xlink:href="#a"/>
<use x="25.2808" y="86.114996" xlink:href="#b"/>
</g>
<path transform="matrix(.1 0 0 -.1 .528 92.615)" d="m24.993 812.01h3600" fill="none" stroke="#000" stroke-miterlimit="10" stroke-width="4.5"/>
<path transform="matrix(.1 0 0 -.1 .528 92.615)" d="m2543.2 812.01-0.3125-177.89" fill="none" stroke="#000" stroke-miterlimit="10" stroke-width="2.25"/>
<path transform="matrix(.1 0 0 -.1 .528 92.615)" d="m2993.2 812.01-0.3125-180" fill="none" stroke="#000" stroke-miterlimit="10" stroke-width="2.25"/>
<path transform="matrix(.1 0 0 -.1 .528 92.615)" d="m1735 362.01h540v270h-540z" fill="none" stroke="#000" stroke-miterlimit="10" stroke-width="2.25"/>
<path transform="matrix(.1 0 0 -.1 .528 92.615)" d="m2005 632.01v180" fill="none" stroke="#000" stroke-miterlimit="10" stroke-width="2.25"/>
<path transform="matrix(.1 0 0 -.1 .528 92.615)" d="m2815 362.01h360v270h-360z" fill="none" stroke="#000" stroke-miterlimit="10" stroke-width="2.25"/>
<path transform="matrix(.1 0 0 -.1 .528 92.615)" d="m2362.9 362.01h360v270h-360z" fill="none" stroke="#000" stroke-miterlimit="10" stroke-width="2.25"/>
<path transform="matrix(.1 0 0 -.1 .528 92.615)" d="m3535 812.01-0.3125-180" fill="none" stroke="#000" stroke-miterlimit="10" stroke-width="2.25"/>
<path transform="matrix(.1 0 0 -.1 .528 92.615)" d="m3625 812.01h270" fill="none" stroke="#000" stroke-dasharray="27" stroke-miterlimit="10" stroke-width="4.5"/>
<path transform="matrix(.1 0 0 -.1 .528 92.615)" d="m384.99 632.01v180" fill="none" stroke="#000" stroke-miterlimit="10" stroke-width="2.25"/>
<path transform="matrix(.1 0 0 -.1 .528 92.615)" d="m114.99 362.01h540v270h-540z" fill="none" stroke="#000" stroke-miterlimit="10" stroke-width="2.25"/>
<g clip-path="url(#ae)">
<g clip-path="url(#ad)">
<path transform="matrix(.1 0 0 -.1 .528 92.615)" d="m654.99 542.01h1080" fill="none" stroke="#000" stroke-dasharray="18" stroke-miterlimit="10" stroke-width="2.25"/>
</g>
</g>
<path d="m169.95 39.316 3.5977-0.90234-3.5977-0.89844v1.8008" fill-rule="evenodd"/>
<path transform="matrix(.1 0 0 -.1 .528 92.615)" d="m1694.2 532.99 35.977 9.0234-35.977 8.9844z" fill="none" stroke="#000" stroke-miterlimit="10" stroke-width="2.25"/>
<g clip-path="url(#ac)">
<g clip-path="url(#ab)">
<path transform="matrix(.1 0 0 -.1 .528 92.615)" d="m1735 452.01h-1080" fill="none" stroke="#000" stroke-dasharray="18" stroke-miterlimit="10" stroke-width="2.25"/>
</g>
</g>
<path d="m70.109 46.516-3.6016 0.89844 3.6016 0.90234v-1.8008" fill-rule="evenodd"/>
<path transform="matrix(.1 0 0 -.1 .528 92.615)" d="m695.81 460.99-36.016-8.9844 36.016-9.0234z" fill="none" stroke="#000" stroke-miterlimit="10" stroke-width="2.25"/>
<g>
<use x="190.651" y="40.665" xlink:href="#z"/>
<use x="197.149" y="40.665" xlink:href="#y"/>
<use x="204.646" y="40.665" xlink:href="#s"/>
<use x="210.649" y="40.665" xlink:href="#n"/>
<use x="183.77522" y="50.565" xlink:href="#m"/>
<use x="190.27322" y="50.565" xlink:href="#h"/>
<use x="195.27722" y="50.565" xlink:href="#d"/>
<use x="200.28122" y="50.565" xlink:href="#a"/>
<use x="202.78322" y="50.565" xlink:href="#e"/>
<use x="205.78022" y="50.565" xlink:href="#h"/>
<use x="210.78422" y="50.565" xlink:href="#c"/>
<use x="212.78222" y="50.565" xlink:href="#c"/>
<use x="214.78022" y="50.565" xlink:href="#b"/>
<use x="219.78422" y="50.565" xlink:href="#e"/>
<use x="288.13322" y="45.615" xlink:href="#m"/>
<use x="294.63122" y="45.615" xlink:href="#i"/>
<use x="299.63522" y="45.615" xlink:href="#p"/>
<use x="304.13522" y="45.615" xlink:href="#o"/>
<use x="309.13922" y="45.615" xlink:href="#b"/>
<use x="19.52522" y="50.77516" xlink:href="#m"/>
<use x="26.02322" y="50.77516" xlink:href="#h"/>
<use x="31.02722" y="50.77516" xlink:href="#d"/>
<use x="36.03122" y="50.77516" xlink:href="#a"/>
<use x="38.53322" y="50.77516" xlink:href="#e"/>
<use x="41.53022" y="50.77516" xlink:href="#h"/>
<use x="46.53422" y="50.77516" xlink:href="#c"/>
<use x="48.53222" y="50.77516" xlink:href="#c"/>
<use x="50.53022" y="50.77516" xlink:href="#b"/>
<use x="55.53422" y="50.77516" xlink:href="#e"/>
<use x="24.64163" y="41.115" xlink:href="#l"/>
<use x="30.64463" y="41.115" xlink:href="#c"/>
<use x="32.64263" y="41.115" xlink:href="#i"/>
<use x="37.64663" y="41.115" xlink:href="#a"/>
<use x="40.14863" y="41.115" xlink:href="#a"/>
<use x="42.65063" y="41.115" xlink:href="#b"/>
<use x="47.65463" y="41.115" xlink:href="#d"/>
<use x="52.65863" y="41.115" xlink:href="#n"/>
<use x="84.02753" y="59.8048" xlink:href="#r"/>
<use x="90.03053" y="59.8048" xlink:href="#b"/>
<use x="95.03453" y="59.8048" xlink:href="#k"/>
<use x="99.53453" y="59.8048" xlink:href="#a"/>
<use x="102.03653" y="59.8048" xlink:href="#x"/>
<use x="107.04053" y="59.8048" xlink:href="#a"/>
<use x="109.54253" y="59.8048" xlink:href="#j"/>
<use x="111.54053" y="59.8048" xlink:href="#g"/>
<use x="116.54453" y="59.8048" xlink:href="#f"/>
<use x="121.54853" y="59.8048" xlink:href="#d"/>
<use x="126.55253" y="59.8048" xlink:href="#g"/>
<use x="131.55653" y="59.8048" xlink:href="#k"/>
<use x="136.05653" y="59.8048" xlink:href="#c"/>
<use x="138.05453" y="59.8048" xlink:href="#b"/>
<use x="143.05853" y="59.8048" xlink:href="#j"/>
<use x="145.05653" y="59.8048" xlink:href="#a"/>
<use x="147.55853" y="59.8048" xlink:href="#f"/>
<use x="152.56253" y="59.8048" xlink:href="#d"/>
<use x="157.56653" y="59.8048" xlink:href="#g"/>
<use x="84.02753" y="33.015" xlink:href="#s"/>
<use x="90.03053" y="33.015" xlink:href="#d"/>
<use x="95.03453" y="33.015" xlink:href="#w"/>
<use x="97.53653" y="33.015" xlink:href="#h"/>
<use x="102.54053" y="33.015" xlink:href="#e"/>
<use x="105.53753" y="33.015" xlink:href="#v"/>
<use x="110.54153" y="33.015" xlink:href="#b"/>
<use x="115.54553" y="33.015" xlink:href="#e"/>
<use x="118.54253" y="33.015" xlink:href="#f"/>
<use x="123.54653" y="33.015" xlink:href="#d"/>
<use x="128.55053" y="33.015" xlink:href="#g"/>
<use x="133.55453" y="33.015" xlink:href="#k"/>
<use x="138.05453" y="33.015" xlink:href="#c"/>
<use x="140.05253" y="33.015" xlink:href="#b"/>
<use x="145.05653" y="33.015" xlink:href="#j"/>
<use x="147.05453" y="33.015" xlink:href="#a"/>
<use x="149.55653" y="33.015" xlink:href="#f"/>
<use x="154.56053" y="33.015" xlink:href="#d"/>
<use x="159.56453" y="33.015" xlink:href="#g"/>
<use x="110.12753" y="6.915" xlink:href="#r"/>
<use x="116.13053" y="6.915" xlink:href="#f"/>
<use x="121.13453" y="6.915" xlink:href="#k"/>
</g>
<path transform="matrix(.1 0 0 -.1 .528 92.615)" d="m3265 362.01h540v270h-540z" fill="none" stroke="#000" stroke-miterlimit="10" stroke-width="2.25"/>
</svg>
