<svg width="327pt" height="202pt" version="1.1" viewBox="0 0 327 202" xmlns="http://www.w3.org/2000/svg" xmlns:xlink="http://www.w3.org/1999/xlink">
<defs>
<g id="v">
<path d="m4.2656-1.9688 0.67188 1.9688h0.9375l-2.2969-6.5625h-1.0781l-2.3438 6.5625h0.89062l0.6875-1.9688zm-0.23438-0.70312h-2.0938l1.0938-2.9844z"/>
</g>
<g id="e">
<path d="m0.625-4.7188v4.7188h0.76562v-2.5938c0-0.96875 0.5-1.5938 1.2656-1.5938 0.60938 0 0.98438 0.35938 0.98438 0.92188v3.2656h0.75v-3.5625c0-0.78125-0.59375-1.2812-1.5-1.2812-0.70312 0-1.1562 0.26562-1.5625 0.92188v-0.79688z"/>
</g>
<g id="t">
<path d="m4.9844 0 1.3906-4.7188h-0.84375l-0.9375 3.6719-0.9375-3.6719h-0.90625l-0.90625 3.6719-0.96875-3.6719h-0.82812l1.375 4.7188h0.84375l0.90625-3.7031 0.95312 3.7031z"/>
</g>
<g id="a">
<path d="m4.6094-2.1094c0-0.71875-0.046875-1.1562-0.1875-1.5-0.29688-0.78125-1.0156-1.2344-1.9062-1.2344-1.3125 0-2.1562 0.98438-2.1562 2.5469s0.8125 2.5 2.1406 2.5c1.0781 0 1.8281-0.60938 2.0156-1.6406h-0.75c-0.20312 0.625-0.64062 0.95312-1.2344 0.95312-0.48438 0-0.89062-0.21875-1.1406-0.60938-0.17188-0.28125-0.23438-0.54688-0.25-1.0156zm-3.4531-0.60938c0.0625-0.875 0.59375-1.4375 1.3594-1.4375s1.2969 0.59375 1.2969 1.4375z"/>
</g>
<g id="s">
<path d="m4.4531-6.5625h-0.75v2.4375c-0.3125-0.46875-0.8125-0.71875-1.4375-0.71875-1.2344 0-2.0312 0.96875-2.0312 2.4844 0 1.5781 0.78125 2.5625 2.0469 2.5625 0.65625 0 1.1094-0.23438 1.5-0.82812v0.625h0.67188zm-2.0625 2.4062c0.79688 0 1.3125 0.71875 1.3125 1.8594 0 1.0781-0.51562 1.7969-1.3125 1.7969-0.82812 0-1.375-0.71875-1.375-1.8281 0-1.0938 0.54688-1.8281 1.375-1.8281z"/>
</g>
<g id="h">
<path d="m4.3438 0v-4.7188h-0.75v2.6719c0 0.96875-0.5 1.5938-1.2969 1.5938-0.59375 0-0.96875-0.35938-0.96875-0.92188v-3.3438h-0.75v3.6406c0 0.78125 0.59375 1.2812 1.5156 1.2812 0.6875 0 1.125-0.23438 1.5625-0.85938v0.65625z"/>
</g>
<g id="l">
<path d="m3.6406-4.7188v0.6875c-0.375-0.5625-0.79688-0.8125-1.3906-0.8125-1.1406 0-1.9375 1.0625-1.9375 2.5625 0 0.79688 0.1875 1.375 0.59375 1.8438 0.35938 0.42188 0.79688 0.64062 1.2969 0.64062 0.5625 0 0.96875-0.25 1.3594-0.84375v0.25c0 1.25-0.34375 1.7188-1.2812 1.7188-0.64062 0-0.96875-0.25-1.0469-0.78125h-0.76562c0.078125 0.85938 0.76562 1.4219 1.7969 1.4219 0.6875 0 1.2656-0.23438 1.5625-0.60938 0.35938-0.4375 0.5-1.0312 0.5-2.1406v-3.9375zm-1.3125 0.5625c0.78125 0 1.2344 0.67188 1.2344 1.8594 0 1.1406-0.45312 1.8125-1.2344 1.8125s-1.2344-0.67188-1.2344-1.8438c0-1.1406 0.45312-1.8281 1.2344-1.8281z"/>
</g>
<g id="d">
<path d="m3.9375-3.4062c0-0.92188-0.60938-1.4375-1.7031-1.4375s-1.8125 0.5625-1.8125 1.4375c0 0.73438 0.375 1.0781 1.5 1.3594l0.70312 0.17188c0.51562 0.125 0.71875 0.3125 0.71875 0.64062 0 0.45312-0.4375 0.75-1.0938 0.75-0.40625 0-0.75-0.125-0.9375-0.3125-0.10938-0.14062-0.17188-0.28125-0.21875-0.60938h-0.78125c0.03125 1.0938 0.64062 1.6094 1.875 1.6094 1.1875 0 1.9375-0.57812 1.9375-1.4844 0-0.70312-0.39062-1.0938-1.3281-1.3125l-0.71875-0.17188c-0.60938-0.15625-0.875-0.34375-0.875-0.6875 0-0.4375 0.39062-0.70312 1-0.70312s0.92188 0.26562 0.95312 0.75z"/>
</g>
<g id="k">
<path d="m4.8906-2.4062h-4.5312v0.64062h4.5312z"/>
</g>
<g id="o">
<path d="m0.71875 0h2.9531c0.625 0 1.0781-0.17188 1.4375-0.54688 0.3125-0.34375 0.5-0.8125 0.5-1.3281 0-0.78125-0.35938-1.2656-1.2031-1.5938 0.60938-0.28125 0.90625-0.75 0.90625-1.4219 0-0.48438-0.17188-0.90625-0.51562-1.2188s-0.79688-0.45312-1.4219-0.45312h-2.6562zm0.82812-3.7344v-2.0938h1.625c0.46875 0 0.71875 0.0625 0.95312 0.23438 0.23438 0.1875 0.35938 0.45312 0.35938 0.8125s-0.125 0.625-0.35938 0.8125c-0.23438 0.17188-0.48438 0.23438-0.95312 0.23438zm0 3v-2.2656h2.0469c0.73438 0 1.1719 0.42188 1.1719 1.1406 0 0.70312-0.4375 1.125-1.1719 1.125z"/>
</g>
<g id="b">
<path d="m2.2812-4.7188h-0.76562v-1.2969h-0.75v1.2969h-0.64062v0.60938h0.64062v3.5625c0 0.5 0.32812 0.75 0.90625 0.75 0.20312 0 0.35938-0.015625 0.60938-0.0625v-0.625c-0.10938 0.03125-0.20312 0.03125-0.35938 0.03125-0.3125 0-0.40625-0.09375-0.40625-0.42188v-3.2344h0.76562z"/>
</g>
<g id="r">
<path d="m3.9844-4.7188h-3.5156v0.65625h2.625l-2.8125 3.3906v0.67188h3.8281v-0.65625h-2.9219l2.7969-3.3906z"/>
</g>
<g id="c">
<path d="m0.625-4.7188v4.7188h0.75v-2.4531c0.015625-1.125 0.48438-1.6406 1.5156-1.6094v-0.76562c-0.125-0.015625-0.20312-0.015625-0.29688-0.015625-0.48438 0-0.84375 0.28125-1.2812 0.98438v-0.85938z"/>
</g>
<g id="q">
<path d="m0.48438 1.9688h0.75v-2.4688c0.40625 0.48438 0.84375 0.70312 1.4531 0.70312 1.2344 0 2.0156-0.98438 2.0156-2.4844 0-1.5781-0.76562-2.5625-2.0156-2.5625-0.64062 0-1.1562 0.28125-1.5156 0.84375v-0.71875h-0.6875zm2.0781-6.125c0.82812 0 1.3594 0.73438 1.3594 1.8594 0 1.0781-0.54688 1.7969-1.3594 1.7969s-1.3281-0.71875-1.3281-1.8281c0-1.0938 0.51562-1.8281 1.3281-1.8281z"/>
</g>
<g id="p">
<path d="m2.4531-4.8438c-1.3438 0-2.125 0.9375-2.125 2.5156 0 1.5938 0.78125 2.5312 2.125 2.5312 1.3281 0 2.1406-0.9375 2.1406-2.4844 0-1.6406-0.78125-2.5625-2.1406-2.5625zm0 0.6875c0.84375 0 1.3594 0.6875 1.3594 1.8594 0 1.125-0.53125 1.8125-1.3594 1.8125s-1.3438-0.6875-1.3438-1.8438c0-1.1406 0.51562-1.8281 1.3438-1.8281z"/>
</g>
<g id="j">
<path d="m4.8125-0.4375c-0.078125 0.015625-0.10938 0.015625-0.15625 0.015625-0.26562 0-0.40625-0.14062-0.40625-0.375v-2.7656c0-0.84375-0.60938-1.2812-1.7812-1.2812-0.6875 0-1.2344 0.1875-1.5625 0.54688-0.21875 0.23438-0.29688 0.51562-0.32812 0.96875h0.76562c0.0625-0.5625 0.40625-0.82812 1.1094-0.82812 0.67188 0 1.0469 0.25 1.0469 0.70312v0.1875c-0.015625 0.32812-0.17188 0.45312-0.78125 0.53125-1.0625 0.14062-1.2188 0.17188-1.5156 0.28125-0.54688 0.23438-0.82812 0.65625-0.82812 1.2656 0 0.85938 0.59375 1.3906 1.5469 1.3906 0.59375 0 1.0781-0.20312 1.6094-0.6875 0.046875 0.48438 0.28125 0.6875 0.76562 0.6875 0.17188 0 0.26562-0.015625 0.51562-0.078125zm-1.3125-1.0469c0 0.25-0.078125 0.40625-0.29688 0.60938-0.3125 0.28125-0.67188 0.42188-1.1094 0.42188-0.59375 0-0.9375-0.28125-0.9375-0.75 0-0.5 0.32812-0.75 1.1406-0.85938 0.79688-0.10938 0.95312-0.15625 1.2031-0.26562z"/>
</g>
<g id="g">
<path d="m0.625-4.7188v4.7188h0.76562v-2.9688c0-0.67188 0.48438-1.2188 1.1094-1.2188 0.54688 0 0.85938 0.32812 0.85938 0.9375v3.25h0.76562v-2.9688c0-0.67188 0.48438-1.2188 1.1094-1.2188 0.54688 0 0.875 0.34375 0.875 0.9375v3.25h0.75v-3.5312c0-0.85938-0.48438-1.3125-1.375-1.3125-0.625 0-1 0.1875-1.4375 0.71875-0.28125-0.51562-0.65625-0.71875-1.2812-0.71875s-1.0469 0.23438-1.4375 0.79688v-0.67188z"/>
</g>
<g id="f">
<path d="m1.3438-4.7188h-0.73438v4.7188h0.73438zm0-1.8438h-0.75v0.95312h0.75z"/>
</g>
<g id="x">
<path d="m0.48438-6.5625v6.5625h0.67188v-0.60938c0.35938 0.5625 0.84375 0.8125 1.5 0.8125 1.2344 0 2.0469-1.0156 2.0469-2.5781 0-1.5312-0.76562-2.4688-2.0156-2.4688-0.64062 0-1.1094 0.23438-1.4531 0.76562v-2.4844zm2.0625 2.4062c0.84375 0 1.375 0.73438 1.375 1.8594 0 1.0781-0.5625 1.7969-1.375 1.7969-0.79688 0-1.3125-0.71875-1.3125-1.8281 0-1.0938 0.51562-1.8281 1.3125-1.8281z"/>
</g>
<g id="ac">
<path d="m3.4844-4.7188-1.2969 3.6719-1.2031-3.6719h-0.79688l1.5781 4.7344-0.28125 0.75c-0.125 0.32812-0.28125 0.45312-0.60938 0.45312-0.125 0-0.23438-0.015625-0.39062-0.046875v0.67188c0.15625 0.078125 0.3125 0.125 0.5 0.125 0.25 0 0.51562-0.09375 0.70312-0.23438 0.23438-0.17188 0.375-0.35938 0.51562-0.75l2.0938-5.7031z"/>
</g>
<g id="w">
<path d="m4.9531-2.9844v2.9844h0.84375v-6.5625h-0.84375v2.8438h-3.375v-2.8438h-0.82812v6.5625h0.82812v-2.9844z"/>
</g>
<g id="u">
<path d="m1.6562-2.7812h2.0625c0.51562 0 0.92188-0.15625 1.2656-0.46875 0.39062-0.35938 0.5625-0.78125 0.5625-1.3906 0-1.2344-0.71875-1.9219-2.0156-1.9219h-2.7188v6.5625h0.84375zm0-0.73438v-2.3125h1.75c0.79688 0 1.2812 0.4375 1.2812 1.1562s-0.48438 1.1562-1.2812 1.1562z"/>
</g>
<g id="n">
<path d="m4.2344-3.125c-0.03125-0.46875-0.125-0.76562-0.3125-1.0312-0.32812-0.4375-0.89062-0.6875-1.5469-0.6875-1.2812 0-2.0938 1-2.0938 2.5625 0 1.5312 0.8125 2.4844 2.0781 2.4844 1.125 0 1.8438-0.67188 1.9375-1.8281h-0.76562c-0.125 0.76562-0.5 1.1406-1.1406 1.1406-0.82812 0-1.3281-0.67188-1.3281-1.7969 0-1.1719 0.48438-1.875 1.2969-1.875 0.64062 0 1.0312 0.375 1.125 1.0312z"/>
</g>
<g id="m">
<path d="m0.625-6.5625v6.5625h0.75v-2.5938c0-0.96875 0.5-1.5938 1.2812-1.5938 0.25 0 0.48438 0.0625 0.67188 0.20312 0.20312 0.15625 0.29688 0.39062 0.29688 0.71875v3.2656h0.75v-3.5625c0-0.79688-0.5625-1.2812-1.4844-1.2812-0.67188 0-1.0781 0.20312-1.5156 0.78125v-2.5z"/>
</g>
<g id="i">
<path d="m1.375-6.5625h-0.76562v6.5625h0.76562z"/>
</g>
<g id="ab">
<path d="m5.9531-4.5312c-0.25-1.4375-1.0781-2.1406-2.5312-2.1406-0.875 0-1.5781 0.28125-2.0781 0.82812-0.59375 0.64062-0.90625 1.5781-0.90625 2.6406 0 1.0781 0.32812 2 0.9375 2.6406 0.51562 0.53125 1.1562 0.76562 2.0156 0.76562 1.6094 0 2.5-0.85938 2.7031-2.5938h-0.85938c-0.078125 0.45312-0.17188 0.75-0.29688 1.0156-0.28125 0.53125-0.82812 0.84375-1.5312 0.84375-1.3125 0-2.1406-1.0469-2.1406-2.6875 0-1.6719 0.78125-2.7188 2.0625-2.7188 0.53125 0 1.0312 0.15625 1.2969 0.42188 0.25 0.21875 0.375 0.5 0.48438 0.98438z"/>
</g>
<g id="aa">
<path d="m4.9688-6.5625v4.6094c0 0.875-0.64062 1.4219-1.6875 1.4219-0.48438 0-0.89062-0.10938-1.2031-0.34375-0.32812-0.25-0.46875-0.57812-0.46875-1.0781v-4.6094h-0.84375v4.6094c0 1.3281 0.95312 2.1562 2.5156 2.1562 1.5312 0 2.5312-0.84375 2.5312-2.1562v-4.6094z"/>
</g>
<g id="z">
<path d="m1.6406-2.9844h3.5781v-0.73438h-3.5781v-2.1094h3.7188v-0.73438h-4.5469v6.5625h4.7031v-0.73438h-3.875z"/>
</g>
<g id="y">
<path d="m2.0625-6.5625-2.1406 6.75h0.5l2.1406-6.75z"/>
</g>
<clipPath id="aq">
<path d="m196 13h49v98h-49z"/>
</clipPath>
<clipPath id="ap">
<path d="m-0.47266-0.71875v203h328v-203zm240.28 15.188 4.6484 0.35938 0.15234-1.7969-4.6797-0.35938 3.5391 1.1992zm-42.359 92.25 0.6875 4.6523 1.7695-0.26953-0.6875-4.6523-0.33203 3.7188z" clip-rule="evenodd"/>
</clipPath>
<clipPath id="ak">
<path d="m37 65h1v46h-1z"/>
</clipPath>
<clipPath id="aj">
<path d="m-0.47266-0.71875v203h328v-203zm38.5 70.449v-4.6797h-1.8008v4.6797l0.90234-3.6016zm-1.8008 36.84v4.6797h1.8008v-4.6797l-0.89844 3.5977z" clip-rule="evenodd"/>
</clipPath>
<clipPath id="ai">
<path d="m289 65h1v46h-1z"/>
</clipPath>
<clipPath id="ah">
<path d="m-0.47266-0.71875v203h328v-203zm290.5 70.449v-4.6797h-1.8008v4.6797l0.90234-3.6016zm-1.8008 36.84v4.6797h1.8008v-4.6797l-0.89844 3.5977z" clip-rule="evenodd"/>
</clipPath>
<clipPath id="ag">
<path d="m73 13h48v98h-48z"/>
</clipPath>
<clipPath id="af">
<path d="m-0.47266-0.71875v203h328v-203zm77.59 13.391-4.6797 0.35938 0.15234 1.7969 4.6484-0.35938-3.6289-0.59766zm40.68 93.777-0.6875 4.6523 1.7695 0.26953 0.6875-4.6523-1.4102 3.4492z" clip-rule="evenodd"/>
</clipPath>
<clipPath id="ae">
<path d="m37 22h1v17h-1z"/>
</clipPath>
<clipPath id="ad">
<path d="m-0.47266-0.71875v203h328v-203zm38.5 27.699v-4.6797h-1.8008v4.6797l0.90234-3.6016zm-1.8008 7.5898v4.6797h1.8008v-4.6797l-0.89844 3.6016z" clip-rule="evenodd"/>
</clipPath>
<clipPath id="ao">
<path d="m158 128h1v19h-1z"/>
</clipPath>
<clipPath id="an">
<path d="m-0.47266-0.71875v203h328v-203zm159.97 133.48v-4.6836h-1.7969v4.6836l0.89844-3.6016zm-1.7969 9.8086v4.6797h1.7969v-4.6797l-0.89844 3.5977z" clip-rule="evenodd"/>
</clipPath>
<clipPath id="am">
<path d="m289 22h1v17h-1z"/>
</clipPath>
<clipPath id="al">
<path d="m-0.47266-0.71875v203h328v-203zm290.5 27.699v-4.6797h-1.8008v4.6797l0.90234-3.6016zm-1.8008 7.5898v4.6797h1.8008v-4.6797l-0.89844 3.6016z" clip-rule="evenodd"/>
</clipPath>
</defs>
<path transform="matrix(.1 0 0 -.1 -.472 202.28)" d="m106.01 106h900v270h-900z" fill="none" stroke="#000" stroke-miterlimit="10" stroke-width="9"/>
<path transform="matrix(.1 0 0 -.1 -.472 202.28)" d="m1186 106h900v270h-900z" fill="none" stroke="#000" stroke-miterlimit="10" stroke-width="9"/>
<path transform="matrix(.1 0 0 -.1 -.472 202.28)" d="m2266 106h900v270h-900z" fill="none" stroke="#000" stroke-miterlimit="10" stroke-width="9"/>
<g clip-path="url(#aq)">
<g clip-path="url(#ap)">
<path transform="matrix(.1 0 0 -.1 -.472 202.28)" d="m1994.2 916.32-0.625 3.8672-0.27344 2.7344-0.3125 3.8672-0.58594 4.5312-0.89844 5.9766-0.89844 6.9141-0.9375 8.3984-1.1719 9.2969-1.2109 10.508-1.2109 11.68-1.4844 12.93-1.2109 14.062-1.4844 14.727-1.7969 15.898-1.5234 16.484-1.4844 17.422-1.4844 17.969-1.2109 18.633-1.5234 18.867-1.1719 19.219-1.2109 19.805-0.89844 20.078-0.58594 20.117-0.625 20.391-0.58594 20.391v41.719l0.58594 20.703 0.625 21.016 1.1719 21.289 1.5234 20.977 1.7969 21.602 2.3828 21.328 2.6953 21.602 3.3203 21.875 3.9062 21.914 4.1797 21.914 5.1172 22.188 5.7031 22.188 6.2891 21.914 6.9141 22.188 7.7734 21.602 8.3984 21.016 9.0234 20.703 11.68 23.398 12.305 22.188 12.891 20.391 13.203 18.594 13.516 17.109 13.477 15.586 13.828 13.828 13.789 12.578 13.789 11.094 13.828 9.9219 13.789 8.9844 13.789 7.8125 13.789 6.9141 13.828 5.9766 14.102 5.3906 13.789 4.8047 13.789 3.9062 13.789 3.3203 13.516 2.9688 13.516 2.4219 13.203 2.1094 12.891 1.7969 12.578 1.1719 12.031 0.9375 11.68 0.89844 10.82 0.58594 10.195 0.3125 9.2969 0.27344 8.3984 0.3125h13.789l5.3906-0.3125h10.82l3.9062-0.27344" fill="none" stroke="#000" stroke-dasharray="18" stroke-linejoin="bevel" stroke-miterlimit="10" stroke-width="2.25"/>
</g>
</g>
<path d="m197.45 106.72 1.4375 3.4492 0.33203-3.7188-1.7695 0.26953" fill-rule="evenodd"/>
<path transform="matrix(.1 0 0 -.1 -.472 202.28)" d="m1979.2 955.61 14.375-34.492 3.3203 37.188z" fill="none" stroke="#000" stroke-miterlimit="10" stroke-width="2.25"/>
<path d="m239.81 14.469 3.6602-0.59766-3.5391-1.1992-0.12109 1.7969" fill-rule="evenodd"/>
<path transform="matrix(.1 0 0 -.1 -.472 202.28)" d="m2402.8 1878.1 36.602 5.9766-35.391 11.992z" fill="none" stroke="#000" stroke-miterlimit="10" stroke-width="2.25"/>
<g clip-path="url(#ak)">
<g clip-path="url(#aj)">
<path transform="matrix(.1 0 0 -.1 -.472 202.28)" d="m376.01 916.32v450" fill="none" stroke="#000" stroke-miterlimit="10" stroke-width="2.25"/>
</g>
</g>
<path d="m36.227 106.57 0.90234 3.5977 0.89844-3.5977h-1.8008" fill-rule="evenodd"/>
<path transform="matrix(.1 0 0 -.1 -.472 202.28)" d="m366.99 957.1 9.0234-35.977 8.9844 35.977z" fill="none" stroke="#000" stroke-miterlimit="10" stroke-width="2.25"/>
<path d="m38.027 69.73-0.89844-3.6016-0.90234 3.6016h1.8008" fill-rule="evenodd"/>
<path transform="matrix(.1 0 0 -.1 -.472 202.28)" d="m384.99 1325.5-8.9844 36.016-9.0234-36.016z" fill="none" stroke="#000" stroke-miterlimit="10" stroke-width="2.25"/>
<g clip-path="url(#ai)">
<g clip-path="url(#ah)">
<path transform="matrix(.1 0 0 -.1 -.472 202.28)" d="m2896 916.32v450" fill="none" stroke="#000" stroke-miterlimit="10" stroke-width="2.25"/>
</g>
</g>
<path d="m288.23 106.57 0.90234 3.5977 0.89844-3.5977h-1.8008" fill-rule="evenodd"/>
<path transform="matrix(.1 0 0 -.1 -.472 202.28)" d="m2887 957.1 9.0234-35.977 8.9844 35.977z" fill="none" stroke="#000" stroke-miterlimit="10" stroke-width="2.25"/>
<path d="m290.03 69.73-0.89844-3.6016-0.90234 3.6016h1.8008" fill-rule="evenodd"/>
<path transform="matrix(.1 0 0 -.1 -.472 202.28)" d="m2905 1325.5-8.9844 36.016-9.0234-36.016z" fill="none" stroke="#000" stroke-miterlimit="10" stroke-width="2.25"/>
<g clip-path="url(#ag)">
<g clip-path="url(#af)">
<path transform="matrix(.1 0 0 -.1 -.472 202.28)" d="m1185.7 916.32 0.58594 3.8672 0.3125 2.7344 0.3125 3.8672 0.58594 4.5312 0.89844 5.9766 0.89844 6.9141 0.89844 8.3984 1.2109 9.2969 1.2109 10.508 1.1719 11.68 1.2109 12.93 1.5234 14.062 1.4844 14.727 1.4844 15.898 1.7969 16.484 1.5234 17.422 1.4844 17.969 1.2109 18.633 1.4844 18.867 1.2109 19.219 1.2109 19.805 0.89844 20.078 0.58594 20.117 0.625 20.391 0.27344 20.391 0.3125 20.703-0.3125 21.016-0.27344 20.703-0.89844 21.016-0.9375 21.289-1.4844 20.977-1.7969 21.602-2.3828 21.328-2.7344 21.602-3.2812 21.875-3.9062 21.914-4.4922 21.914-4.8047 22.188-5.7031 22.188-6.2891 21.914-6.9141 22.188-7.7734 21.602-8.4375 21.016-8.9844 20.703-11.68 23.398-12.305 22.188-12.93 20.391-13.164 18.594-13.516 17.109-13.516 15.586-13.477 13.828-13.828 12.578-13.789 11.094-13.789 9.9219-13.789 8.9844-14.102 7.8125-13.828 6.9141-13.789 5.9766-13.789 5.3906-13.789 4.8047-13.828 3.9062-13.789 3.3203-13.789 2.9688-13.203 2.4219-13.203 2.1094-13.203 1.7969-12.305 1.1719-12.305 0.9375-11.406 0.89844-10.781 0.58594-10.195 0.3125-9.2969 0.27344-8.3984 0.3125h-13.828l-5.3906-0.3125h-10.781l-3.9062-0.27344" fill="none" stroke="#000" stroke-dasharray="18" stroke-linejoin="bevel" stroke-miterlimit="10" stroke-width="2.25"/>
</g>
</g>
<path d="m117.8 106.45 0.35938 3.7188 1.4102-3.4492-1.7695-0.26953" fill-rule="evenodd"/>
<path transform="matrix(.1 0 0 -.1 -.472 202.28)" d="m1182.7 958.31 3.5938-37.188 14.102 34.492z" fill="none" stroke="#000" stroke-miterlimit="10" stroke-width="2.25"/>
<path d="m77.117 12.672-3.5078 1.1992 3.6289 0.59766-0.12109-1.7969" fill-rule="evenodd"/>
<path transform="matrix(.1 0 0 -.1 -.472 202.28)" d="m775.89 1896.1-35.078-11.992 36.289-5.9766z" fill="none" stroke="#000" stroke-miterlimit="10" stroke-width="2.25"/>
<path d="m73.129 88.148c0 7.4414-16.117 13.473-36 13.473-19.883 0-36-6.0312-36-13.473 0-7.4375 16.117-13.469 36-13.469 19.883 0 36 6.0312 36 13.469" fill="#fff" fill-rule="evenodd"/>
<path transform="matrix(.1 0 0 -.1 -.472 202.28)" d="m736.01 1141.3c0-74.414-161.17-134.73-360-134.73s-360 60.312-360 134.73c0 74.375 161.17 134.69 360 134.69s360-60.312 360-134.69z" fill="none" stroke="#000" stroke-miterlimit="10" stroke-width="2.25"/>
<path d="m154.1 52.148c0 7.4414-16.117 13.473-36 13.473-19.883 0-36-6.0312-36-13.473 0-7.4375 16.117-13.469 36-13.469 19.883 0 36 6.0312 36 13.469" fill="#fff" fill-rule="evenodd"/>
<path transform="matrix(.1 0 0 -.1 -.472 202.28)" d="m1545.7 1501.3c0-74.414-161.17-134.73-360-134.73s-360 60.312-360 134.73c0 74.375 161.17 134.69 360 134.69s360-60.312 360-134.69z" fill="none" stroke="#000" stroke-miterlimit="10" stroke-width="2.25"/>
<path d="m235.31 52.148c0 7.4414-16.117 13.473-36 13.473-19.883 0-36-6.0312-36-13.473 0-7.4375 16.117-13.469 36-13.469 19.883 0 36 6.0312 36 13.469" fill="#fff" fill-rule="evenodd"/>
<path transform="matrix(.1 0 0 -.1 -.472 202.28)" d="m2357.8 1501.3c0-74.414-161.17-134.73-360-134.73s-360 60.312-360 134.73c0 74.375 161.17 134.69 360 134.69s360-60.312 360-134.69z" fill="none" stroke="#000" stroke-miterlimit="10" stroke-width="2.25"/>
<path d="m325.13 88.148c0 7.4414-16.117 13.473-36 13.473-19.883 0-36-6.0312-36-13.473 0-7.4375 16.117-13.469 36-13.469 19.883 0 36 6.0312 36 13.469" fill="#fff" fill-rule="evenodd"/>
<path transform="matrix(.1 0 0 -.1 -.472 202.28)" d="m3256 1141.3c0-74.414-161.17-134.73-360-134.73s-360 60.312-360 134.73c0 74.375 161.17 134.69 360 134.69s360-60.312 360-134.69z" fill="none" stroke="#000" stroke-miterlimit="10" stroke-width="2.25"/>
<g>
<use x="8.4862" y="50.59" xlink:href="#v"/>
<use x="14.4892" y="50.59" xlink:href="#e"/>
<use x="19.4932" y="50.59" xlink:href="#t"/>
<use x="25.9912" y="50.59" xlink:href="#a"/>
<use x="30.9952" y="50.59" xlink:href="#e"/>
<use x="35.9992" y="50.59" xlink:href="#s"/>
<use x="41.0032" y="50.59" xlink:href="#h"/>
<use x="46.0072" y="50.59" xlink:href="#e"/>
<use x="51.0112" y="50.59" xlink:href="#l"/>
<use x="56.0152" y="50.59" xlink:href="#d"/>
<use x="60.5152" y="50.59" xlink:href="#k"/>
<use x="262.2992" y="15.2498" xlink:href="#o"/>
<use x="268.3022" y="15.2498" xlink:href="#a"/>
<use x="273.3062" y="15.2498" xlink:href="#e"/>
<use x="278.3102" y="15.2498" xlink:href="#h"/>
<use x="283.3142" y="15.2498" xlink:href="#b"/>
<use x="285.8162" y="15.2498" xlink:href="#r"/>
<use x="290.3162" y="15.2498" xlink:href="#a"/>
<use x="295.3202" y="15.2498" xlink:href="#c"/>
<use x="260.48592" y="50.7998" xlink:href="#v"/>
<use x="266.48892" y="50.7998" xlink:href="#e"/>
<use x="271.49292" y="50.7998" xlink:href="#t"/>
<use x="277.99092" y="50.7998" xlink:href="#a"/>
<use x="282.99492" y="50.7998" xlink:href="#e"/>
<use x="287.99892" y="50.7998" xlink:href="#s"/>
<use x="293.00292" y="50.7998" xlink:href="#h"/>
<use x="298.00692" y="50.7998" xlink:href="#e"/>
<use x="303.01092" y="50.7998" xlink:href="#l"/>
<use x="308.01492" y="50.7998" xlink:href="#d"/>
<use x="312.51492" y="50.7998" xlink:href="#k"/>
<use x="269.49608" y="60.6998" xlink:href="#q"/>
<use x="274.50008" y="60.6998" xlink:href="#c"/>
<use x="277.49708" y="60.6998" xlink:href="#p"/>
<use x="282.50108" y="60.6998" xlink:href="#l"/>
<use x="287.50508" y="60.6998" xlink:href="#c"/>
<use x="290.50208" y="60.6998" xlink:href="#j"/>
<use x="295.50608" y="60.6998" xlink:href="#g"/>
<use x="303.00308" y="60.6998" xlink:href="#g"/>
<use x="16.62608" y="60.490034" xlink:href="#q"/>
<use x="21.63008" y="60.490034" xlink:href="#c"/>
<use x="24.62708" y="60.490034" xlink:href="#p"/>
<use x="29.63108" y="60.490034" xlink:href="#l"/>
<use x="34.63508" y="60.490034" xlink:href="#c"/>
<use x="37.63208" y="60.490034" xlink:href="#j"/>
<use x="42.63608" y="60.490034" xlink:href="#g"/>
<use x="50.13308" y="60.490034" xlink:href="#g"/>
<use x="127.84208" y="123.249834" xlink:href="#o"/>
<use x="133.84508" y="123.249834" xlink:href="#a"/>
<use x="138.84908" y="123.249834" xlink:href="#b"/>
<use x="141.35108" y="123.249834" xlink:href="#c"/>
<use x="144.34808" y="123.249834" xlink:href="#f"/>
<use x="146.34608" y="123.249834" xlink:href="#a"/>
<use x="151.35008" y="123.249834" xlink:href="#x"/>
<use x="156.35408" y="123.249834" xlink:href="#d"/>
<use x="160.85408" y="123.249834" xlink:href="#d"/>
<use x="165.35408" y="123.249834" xlink:href="#ac"/>
<use x="169.85408" y="123.249834" xlink:href="#d"/>
<use x="174.35408" y="123.249834" xlink:href="#b"/>
<use x="176.85608" y="123.249834" xlink:href="#a"/>
<use x="181.86008" y="123.249834" xlink:href="#g"/>
<use x="139.09558" y="159.249834" xlink:href="#w"/>
<use x="145.59358" y="159.249834" xlink:href="#j"/>
<use x="150.59758" y="159.249834" xlink:href="#c"/>
<use x="153.59458" y="159.249834" xlink:href="#s"/>
<use x="158.59858" y="159.249834" xlink:href="#t"/>
<use x="165.09658" y="159.249834" xlink:href="#j"/>
<use x="170.10058" y="159.249834" xlink:href="#c"/>
<use x="173.09758" y="159.249834" xlink:href="#a"/>
<use x="12.06958" y="88.149834" xlink:href="#u"/>
<use x="18.07258" y="88.149834" xlink:href="#c"/>
<use x="21.06958" y="88.149834" xlink:href="#p"/>
<use x="26.07358" y="88.149834" xlink:href="#l"/>
<use x="31.07758" y="88.149834" xlink:href="#c"/>
<use x="34.07458" y="88.149834" xlink:href="#j"/>
<use x="39.07858" y="88.149834" xlink:href="#g"/>
<use x="46.57558" y="88.149834" xlink:href="#g"/>
<use x="54.07258" y="88.149834" xlink:href="#f"/>
<use x="56.07058" y="88.149834" xlink:href="#a"/>
<use x="61.07458" y="88.149834" xlink:href="#c"/>
<use x="64.07158" y="88.149834" xlink:href="#k"/>
<use x="14.49106" y="97.149834" xlink:href="#d"/>
<use x="18.99106" y="97.149834" xlink:href="#n"/>
<use x="23.49106" y="97.149834" xlink:href="#m"/>
<use x="28.49506" y="97.149834" xlink:href="#e"/>
<use x="33.49906" y="97.149834" xlink:href="#f"/>
<use x="35.49706" y="97.149834" xlink:href="#b"/>
<use x="37.99906" y="97.149834" xlink:href="#b"/>
<use x="40.50106" y="97.149834" xlink:href="#d"/>
<use x="45.00106" y="97.149834" xlink:href="#b"/>
<use x="47.50306" y="97.149834" xlink:href="#a"/>
<use x="52.50706" y="97.149834" xlink:href="#i"/>
<use x="54.50506" y="97.149834" xlink:href="#i"/>
<use x="56.50306" y="97.149834" xlink:href="#a"/>
<use x="178.05106" y="60.249834" xlink:href="#d"/>
<use x="182.55106" y="60.249834" xlink:href="#n"/>
<use x="187.05106" y="60.249834" xlink:href="#m"/>
<use x="192.05506" y="60.249834" xlink:href="#e"/>
<use x="197.05906" y="60.249834" xlink:href="#f"/>
<use x="199.05706" y="60.249834" xlink:href="#b"/>
<use x="201.55906" y="60.249834" xlink:href="#b"/>
<use x="204.06106" y="60.249834" xlink:href="#d"/>
<use x="208.56106" y="60.249834" xlink:href="#b"/>
<use x="211.06306" y="60.249834" xlink:href="#a"/>
<use x="216.06706" y="60.249834" xlink:href="#i"/>
<use x="218.06506" y="60.249834" xlink:href="#i"/>
<use x="220.06306" y="60.249834" xlink:href="#a"/>
<use x="180.92137" y="50.799834" xlink:href="#o"/>
<use x="186.92437" y="50.799834" xlink:href="#a"/>
<use x="191.92837" y="50.799834" xlink:href="#e"/>
<use x="196.93237" y="50.799834" xlink:href="#h"/>
<use x="201.93637" y="50.799834" xlink:href="#b"/>
<use x="204.43837" y="50.799834" xlink:href="#r"/>
<use x="208.93837" y="50.799834" xlink:href="#a"/>
<use x="213.94237" y="50.799834" xlink:href="#c"/>
<use x="216.93937" y="50.799834" xlink:href="#k"/>
<use x="264.06937" y="88.149834" xlink:href="#u"/>
<use x="270.07237" y="88.149834" xlink:href="#c"/>
<use x="273.06937" y="88.149834" xlink:href="#p"/>
<use x="278.07337" y="88.149834" xlink:href="#l"/>
<use x="283.07737" y="88.149834" xlink:href="#c"/>
<use x="286.07437" y="88.149834" xlink:href="#j"/>
<use x="291.07837" y="88.149834" xlink:href="#g"/>
<use x="298.57537" y="88.149834" xlink:href="#g"/>
<use x="306.07237" y="88.149834" xlink:href="#f"/>
<use x="308.07037" y="88.149834" xlink:href="#a"/>
<use x="313.07437" y="88.149834" xlink:href="#c"/>
<use x="316.07137" y="88.149834" xlink:href="#k"/>
<use x="266.49085" y="97.149834" xlink:href="#d"/>
<use x="270.99085" y="97.149834" xlink:href="#n"/>
<use x="275.49085" y="97.149834" xlink:href="#m"/>
<use x="280.49485" y="97.149834" xlink:href="#e"/>
<use x="285.49885" y="97.149834" xlink:href="#f"/>
<use x="287.49685" y="97.149834" xlink:href="#b"/>
<use x="289.99885" y="97.149834" xlink:href="#b"/>
<use x="292.50085" y="97.149834" xlink:href="#d"/>
<use x="297.00085" y="97.149834" xlink:href="#b"/>
<use x="299.50285" y="97.149834" xlink:href="#a"/>
<use x="304.50685" y="97.149834" xlink:href="#i"/>
<use x="306.50485" y="97.149834" xlink:href="#i"/>
<use x="308.50285" y="97.149834" xlink:href="#a"/>
<use x="96.84085" y="60.249834" xlink:href="#d"/>
<use x="101.34085" y="60.249834" xlink:href="#n"/>
<use x="105.84085" y="60.249834" xlink:href="#m"/>
<use x="110.84485" y="60.249834" xlink:href="#e"/>
<use x="115.84885" y="60.249834" xlink:href="#f"/>
<use x="117.84685" y="60.249834" xlink:href="#b"/>
<use x="120.34885" y="60.249834" xlink:href="#b"/>
<use x="122.85085" y="60.249834" xlink:href="#d"/>
<use x="127.35085" y="60.249834" xlink:href="#b"/>
<use x="129.85285" y="60.249834" xlink:href="#a"/>
<use x="134.85685" y="60.249834" xlink:href="#i"/>
<use x="136.85485" y="60.249834" xlink:href="#i"/>
<use x="138.85285" y="60.249834" xlink:href="#a"/>
<use x="99.71116" y="50.799834" xlink:href="#o"/>
<use x="105.71416" y="50.799834" xlink:href="#a"/>
<use x="110.71816" y="50.799834" xlink:href="#e"/>
<use x="115.72216" y="50.799834" xlink:href="#h"/>
<use x="120.72616" y="50.799834" xlink:href="#b"/>
<use x="123.22816" y="50.799834" xlink:href="#r"/>
<use x="127.72816" y="50.799834" xlink:href="#a"/>
<use x="132.73216" y="50.799834" xlink:href="#c"/>
<use x="135.72916" y="50.799834" xlink:href="#k"/>
<use x="45.62836" y="182.679834" xlink:href="#ab"/>
<use x="52.12636" y="182.679834" xlink:href="#u"/>
<use x="58.12936" y="182.679834" xlink:href="#aa"/>
<use x="242.98536" y="182.679834" xlink:href="#z"/>
<use x="248.98836" y="182.679834" xlink:href="#f"/>
<use x="250.98636" y="182.679834" xlink:href="#e"/>
<use x="255.99036" y="182.679834" xlink:href="#k"/>
<use x="261.24636" y="182.679834" xlink:href="#y"/>
<use x="263.74836" y="182.679834" xlink:href="#v"/>
<use x="269.75136" y="182.679834" xlink:href="#h"/>
<use x="274.75536" y="182.679834" xlink:href="#d"/>
<use x="279.25536" y="182.679834" xlink:href="#l"/>
<use x="284.25936" y="182.679834" xlink:href="#j"/>
<use x="289.26336" y="182.679834" xlink:href="#x"/>
<use x="294.26736" y="182.679834" xlink:href="#a"/>
</g>
<path transform="matrix(.1 0 0 -.1 -.472 202.28)" d="m736.01 1906c0-61.953-161.17-112.19-360-112.19s-360 50.234-360 112.19 161.17 112.19 360 112.19 360-50.234 360-112.19z" fill="none" stroke="#000" stroke-miterlimit="10" stroke-width="2.25"/>
<g>
<use x="134.117" y="182.68" xlink:href="#w"/>
<use x="140.615" y="182.68" xlink:href="#j"/>
<use x="145.619" y="182.68" xlink:href="#h"/>
<use x="150.623" y="182.68" xlink:href="#q"/>
<use x="155.627" y="182.68" xlink:href="#b"/>
<use x="158.129" y="182.68" xlink:href="#d"/>
<use x="162.629" y="182.68" xlink:href="#q"/>
<use x="167.633" y="182.68" xlink:href="#a"/>
<use x="172.637" y="182.68" xlink:href="#f"/>
<use x="174.635" y="182.68" xlink:href="#n"/>
<use x="179.135" y="182.68" xlink:href="#m"/>
<use x="184.139" y="182.68" xlink:href="#a"/>
<use x="189.143" y="182.68" xlink:href="#c"/>
</g>
<path transform="matrix(.1 0 0 -.1 -.472 202.28)" d="m3165.7 1906.3c0-61.992-161.17-112.23-360-112.23s-360 50.234-360 112.23c0 61.953 161.17 112.19 360 112.19s360-50.234 360-112.19z" fill="none" stroke="#000" stroke-miterlimit="10" stroke-width="2.25"/>
<path transform="matrix(.1 0 0 -.1 -.472 202.28)" d="m16.009 1366.3h720v270h-720z" fill="none" stroke="#000" stroke-miterlimit="10" stroke-width="2.25"/>
<path transform="matrix(.1 0 0 -.1 -.472 202.28)" d="m374.8 1186.3h2.3828" fill="none" stroke="#000" stroke-miterlimit="10" stroke-width="2.25"/>
<g clip-path="url(#ae)">
<g clip-path="url(#ad)">
<path transform="matrix(.1 0 0 -.1 -.472 202.28)" d="m376.01 1636.3v157.5" fill="none" stroke="#000" stroke-miterlimit="10" stroke-width="2.25"/>
</g>
</g>
<path d="m36.227 34.57 0.90234 3.6016 0.89844-3.6016h-1.8008" fill-rule="evenodd"/>
<path transform="matrix(.1 0 0 -.1 -.472 202.28)" d="m366.99 1677.1 9.0234-36.016 8.9844 36.016z" fill="none" stroke="#000" stroke-miterlimit="10" stroke-width="2.25"/>
<path d="m38.027 26.98-0.89844-3.6016-0.90234 3.6016h1.8008" fill-rule="evenodd"/>
<path transform="matrix(.1 0 0 -.1 -.472 202.28)" d="m384.99 1753-8.9844 36.016-9.0234-36.016z" fill="none" stroke="#000" stroke-miterlimit="10" stroke-width="2.25"/>
<path transform="matrix(.1 0 0 -.1 -.472 202.28)" d="m2536 1366.3h720v270h-720z" fill="none" stroke="#000" stroke-miterlimit="10" stroke-width="2.25"/>
<path transform="matrix(.1 0 0 -.1 -.472 202.28)" d="m16.009 736h3240v180.31h-3240z" fill="none" stroke="#000" stroke-miterlimit="10" stroke-width="18"/>
<g clip-path="url(#ao)">
<g clip-path="url(#an)">
<path transform="matrix(.1 0 0 -.1 -.472 202.28)" d="m1590.7 556.32v179.69" fill="none" stroke="#000" stroke-miterlimit="10" stroke-width="2.25"/>
</g>
</g>
<path d="m157.7 142.57 0.89844 3.5977 0.89844-3.5977h-1.7969" fill-rule="evenodd"/>
<path transform="matrix(.1 0 0 -.1 -.472 202.28)" d="m1581.7 597.1 8.9844-35.977 8.9844 35.977z" fill="none" stroke="#000" stroke-miterlimit="10" stroke-width="2.25"/>
<path d="m159.5 132.76-0.89844-3.6016-0.89844 3.6016h1.7969" fill-rule="evenodd"/>
<path transform="matrix(.1 0 0 -.1 -.472 202.28)" d="m1599.7 695.18-8.9844 36.016-8.9844-36.016z" fill="none" stroke="#000" stroke-miterlimit="10" stroke-width="2.25"/>
<g clip-path="url(#am)">
<g clip-path="url(#al)">
<path transform="matrix(.1 0 0 -.1 -.472 202.28)" d="m2896 1636.3v157.5" fill="none" stroke="#000" stroke-miterlimit="10" stroke-width="2.25"/>
</g>
</g>
<path d="m288.23 34.57 0.90234 3.6016 0.89844-3.6016h-1.8008" fill-rule="evenodd"/>
<path transform="matrix(.1 0 0 -.1 -.472 202.28)" d="m2887 1677.1 9.0234-36.016 8.9844 36.016z" fill="none" stroke="#000" stroke-miterlimit="10" stroke-width="2.25"/>
<path d="m290.03 26.98-0.89844-3.6016-0.90234 3.6016h1.8008" fill-rule="evenodd"/>
<path transform="matrix(.1 0 0 -.1 -.472 202.28)" d="m2905 1753-8.9844 36.016-9.0234-36.016z" fill="none" stroke="#000" stroke-miterlimit="10" stroke-width="2.25"/>
<path transform="matrix(.1 0 0 -.1 -.472 202.28)" d="m16.009 16.003h3240v540.31h-3240z" fill="none" stroke="#000" stroke-miterlimit="10" stroke-width="18"/>
<g>
<use x="19.1194" y="15.25" xlink:href="#o"/>
<use x="25.1224" y="15.25" xlink:href="#a"/>
<use x="30.1264" y="15.25" xlink:href="#e"/>
<use x="35.1304" y="15.25" xlink:href="#h"/>
<use x="40.1344" y="15.25" xlink:href="#b"/>
<use x="42.6364" y="15.25" xlink:href="#r"/>
<use x="47.1364" y="15.25" xlink:href="#a"/>
<use x="52.1404" y="15.25" xlink:href="#c"/>
</g>
</svg>
