<svg width="222pt" height="244pt" version="1.1" viewBox="0 0 222 244" xmlns="http://www.w3.org/2000/svg" xmlns:xlink="http://www.w3.org/1999/xlink">
<defs>
<g id="e">
<path d="m1.7188-0.9375h-0.9375v0.9375h0.9375z"/>
</g>
<g id="ad">
<path d="m2.5625 0 1.8125-4.7188h-0.84375l-1.3281 3.8281-1.2656-3.8281h-0.84375l1.6562 4.7188z"/>
</g>
<g id="d">
<path d="m4.6094-2.1094c0-0.71875-0.046875-1.1562-0.1875-1.5-0.29688-0.78125-1.0156-1.2344-1.9062-1.2344-1.3125 0-2.1562 0.98438-2.1562 2.5469s0.8125 2.5 2.1406 2.5c1.0781 0 1.8281-0.60938 2.0156-1.6406h-0.75c-0.20312 0.625-0.64062 0.95312-1.2344 0.95312-0.48438 0-0.89062-0.21875-1.1406-0.60938-0.17188-0.28125-0.23438-0.54688-0.25-1.0156zm-3.4531-0.60938c0.0625-0.875 0.59375-1.4375 1.3594-1.4375s1.2969 0.59375 1.2969 1.4375z"/>
</g>
<g id="y">
<path d="m1.2656-6.5625h-0.75v6.5625h0.75v-1.8438l0.73438-0.71875 1.5938 2.5625h0.92188l-1.9219-3.0938 1.6406-1.625h-0.96875l-2 2z"/>
</g>
<g id="g">
<path d="m2.2812-4.7188h-0.76562v-1.2969h-0.75v1.2969h-0.64062v0.60938h0.64062v3.5625c0 0.5 0.32812 0.75 0.90625 0.75 0.20312 0 0.35938-0.015625 0.60938-0.0625v-0.625c-0.10938 0.03125-0.20312 0.03125-0.35938 0.03125-0.3125 0-0.40625-0.09375-0.40625-0.42188v-3.2344h0.76562z"/>
</g>
<g id="l">
<path d="m2.4531-4.8438c-1.3438 0-2.125 0.9375-2.125 2.5156 0 1.5938 0.78125 2.5312 2.125 2.5312 1.3281 0 2.1406-0.9375 2.1406-2.4844 0-1.6406-0.78125-2.5625-2.1406-2.5625zm0 0.6875c0.84375 0 1.3594 0.6875 1.3594 1.8594 0 1.125-0.53125 1.8125-1.3594 1.8125s-1.3438-0.6875-1.3438-1.8438c0-1.1406 0.51562-1.8281 1.3438-1.8281z"/>
</g>
<g id="c">
<path d="m0.625-4.7188v4.7188h0.75v-2.4531c0.015625-1.125 0.48438-1.6406 1.5156-1.6094v-0.76562c-0.125-0.015625-0.20312-0.015625-0.29688-0.015625-0.48438 0-0.84375 0.28125-1.2812 0.98438v-0.85938z"/>
</g>
<g id="k">
<path d="m4.9688-6.5625v4.6094c0 0.875-0.64062 1.4219-1.6875 1.4219-0.48438 0-0.89062-0.10938-1.2031-0.34375-0.32812-0.25-0.46875-0.57812-0.46875-1.0781v-4.6094h-0.84375v4.6094c0 1.3281 0.95312 2.1562 2.5156 2.1562 1.5312 0 2.5312-0.84375 2.5312-2.1562v-4.6094z"/>
</g>
<g id="f">
<path d="m0.625-4.7188v4.7188h0.76562v-2.5938c0-0.96875 0.5-1.5938 1.2656-1.5938 0.60938 0 0.98438 0.35938 0.98438 0.92188v3.2656h0.75v-3.5625c0-0.78125-0.59375-1.2812-1.5-1.2812-0.70312 0-1.1562 0.26562-1.5625 0.92188v-0.79688z"/>
</g>
<g id="s">
<path d="m0.48438-6.5625v6.5625h0.67188v-0.60938c0.35938 0.5625 0.84375 0.8125 1.5 0.8125 1.2344 0 2.0469-1.0156 2.0469-2.5781 0-1.5312-0.76562-2.4688-2.0156-2.4688-0.64062 0-1.1094 0.23438-1.4531 0.76562v-2.4844zm2.0625 2.4062c0.84375 0 1.375 0.73438 1.375 1.8594 0 1.0781-0.5625 1.7969-1.375 1.7969-0.79688 0-1.3125-0.71875-1.3125-1.8281 0-1.0938 0.51562-1.8281 1.3125-1.8281z"/>
</g>
<g id="r">
<path d="m4.2344-3.125c-0.03125-0.46875-0.125-0.76562-0.3125-1.0312-0.32812-0.4375-0.89062-0.6875-1.5469-0.6875-1.2812 0-2.0938 1-2.0938 2.5625 0 1.5312 0.8125 2.4844 2.0781 2.4844 1.125 0 1.8438-0.67188 1.9375-1.8281h-0.76562c-0.125 0.76562-0.5 1.1406-1.1406 1.1406-0.82812 0-1.3281-0.67188-1.3281-1.7969 0-1.1719 0.48438-1.875 1.2969-1.875 0.64062 0 1.0312 0.375 1.125 1.0312z"/>
</g>
<g id="q">
<path d="m0.625-6.5625v6.5625h0.75v-2.5938c0-0.96875 0.5-1.5938 1.2812-1.5938 0.25 0 0.48438 0.0625 0.67188 0.20312 0.20312 0.15625 0.29688 0.39062 0.29688 0.71875v3.2656h0.75v-3.5625c0-0.79688-0.5625-1.2812-1.4844-1.2812-0.67188 0-1.0781 0.20312-1.5156 0.78125v-2.5z"/>
</g>
<g id="h">
<path d="m4.3438 0v-4.7188h-0.75v2.6719c0 0.96875-0.5 1.5938-1.2969 1.5938-0.59375 0-0.96875-0.35938-0.96875-0.92188v-3.3438h-0.75v3.6406c0 0.78125 0.59375 1.2812 1.5156 1.2812 0.6875 0 1.125-0.23438 1.5625-0.85938v0.65625z"/>
</g>
<g id="p">
<path d="m3.6406-4.7188v0.6875c-0.375-0.5625-0.79688-0.8125-1.3906-0.8125-1.1406 0-1.9375 1.0625-1.9375 2.5625 0 0.79688 0.1875 1.375 0.59375 1.8438 0.35938 0.42188 0.79688 0.64062 1.2969 0.64062 0.5625 0 0.96875-0.25 1.3594-0.84375v0.25c0 1.25-0.34375 1.7188-1.2812 1.7188-0.64062 0-0.96875-0.25-1.0469-0.78125h-0.76562c0.078125 0.85938 0.76562 1.4219 1.7969 1.4219 0.6875 0 1.2656-0.23438 1.5625-0.60938 0.35938-0.4375 0.5-1.0312 0.5-2.1406v-3.9375zm-1.3125 0.5625c0.78125 0 1.2344 0.67188 1.2344 1.8594 0 1.1406-0.45312 1.8125-1.2344 1.8125s-1.2344-0.67188-1.2344-1.8438c0-1.1406 0.45312-1.8281 1.2344-1.8281z"/>
</g>
<g id="i">
<path d="m3.9375-3.4062c0-0.92188-0.60938-1.4375-1.7031-1.4375s-1.8125 0.5625-1.8125 1.4375c0 0.73438 0.375 1.0781 1.5 1.3594l0.70312 0.17188c0.51562 0.125 0.71875 0.3125 0.71875 0.64062 0 0.45312-0.4375 0.75-1.0938 0.75-0.40625 0-0.75-0.125-0.9375-0.3125-0.10938-0.14062-0.17188-0.28125-0.21875-0.60938h-0.78125c0.03125 1.0938 0.64062 1.6094 1.875 1.6094 1.1875 0 1.9375-0.57812 1.9375-1.4844 0-0.70312-0.39062-1.0938-1.3281-1.3125l-0.71875-0.17188c-0.60938-0.15625-0.875-0.34375-0.875-0.6875 0-0.4375 0.39062-0.70312 1-0.70312s0.92188 0.26562 0.95312 0.75z"/>
</g>
<g id="j">
<path d="m4.8906-2.4062h-4.5312v0.64062h4.5312z"/>
</g>
<g id="o">
<path d="m6.375-3.4688h-2.7344v0.73438h2v0.1875c0 1.1719-0.85938 2.0156-2.0625 2.0156-0.65625 0-1.2656-0.25-1.6562-0.67188-0.42188-0.46875-0.6875-1.25-0.6875-2.0625 0-1.6094 0.92188-2.6719 2.2969-2.6719 1 0 1.7188 0.51562 1.9062 1.3594h0.85938c-0.23438-1.3281-1.25-2.0938-2.75-2.0938-0.79688 0-1.4531 0.20312-1.9688 0.64062-0.76562 0.625-1.1875 1.6406-1.1875 2.8125 0 2.0156 1.2344 3.4219 3.0156 3.4219 0.89062 0 1.5938-0.32812 2.2344-1.0469l0.20312 0.875h0.53125z"/>
</g>
<g id="n">
<path d="m4.8125-0.4375c-0.078125 0.015625-0.10938 0.015625-0.15625 0.015625-0.26562 0-0.40625-0.14062-0.40625-0.375v-2.7656c0-0.84375-0.60938-1.2812-1.7812-1.2812-0.6875 0-1.2344 0.1875-1.5625 0.54688-0.21875 0.23438-0.29688 0.51562-0.32812 0.96875h0.76562c0.0625-0.5625 0.40625-0.82812 1.1094-0.82812 0.67188 0 1.0469 0.25 1.0469 0.70312v0.1875c-0.015625 0.32812-0.17188 0.45312-0.78125 0.53125-1.0625 0.14062-1.2188 0.17188-1.5156 0.28125-0.54688 0.23438-0.82812 0.65625-0.82812 1.2656 0 0.85938 0.59375 1.3906 1.5469 1.3906 0.59375 0 1.0781-0.20312 1.6094-0.6875 0.046875 0.48438 0.28125 0.6875 0.76562 0.6875 0.17188 0 0.26562-0.015625 0.51562-0.078125zm-1.3125-1.0469c0 0.25-0.078125 0.40625-0.29688 0.60938-0.3125 0.28125-0.67188 0.42188-1.1094 0.42188-0.59375 0-0.9375-0.28125-0.9375-0.75 0-0.5 0.32812-0.75 1.1406-0.85938 0.79688-0.10938 0.95312-0.15625 1.2031-0.26562zm-1.2969-4.9531h-0.9375v0.92188h0.9375zm1.4531 0h-0.9375v0.92188h0.9375z"/>
</g>
<g id="m">
<path d="m5.8125-6.5625h-0.79688v5.3594l-3.4219-5.3594h-0.90625v6.5625h0.78125v-5.3125l3.4062 5.3125h0.9375z"/>
</g>
<g id="x">
<path d="m0.625-4.7188v4.7188h0.76562v-2.9688c0-0.67188 0.48438-1.2188 1.1094-1.2188 0.54688 0 0.85938 0.32812 0.85938 0.9375v3.25h0.76562v-2.9688c0-0.67188 0.48438-1.2188 1.1094-1.2188 0.54688 0 0.875 0.34375 0.875 0.9375v3.25h0.75v-3.5312c0-0.85938-0.48438-1.3125-1.375-1.3125-0.625 0-1 0.1875-1.4375 0.71875-0.28125-0.51562-0.65625-0.71875-1.2812-0.71875s-1.0469 0.23438-1.4375 0.79688v-0.67188z"/>
</g>
<g id="w">
<path d="m1.3438-4.7188h-0.73438v4.7188h0.73438zm0-1.8438h-0.75v0.95312h0.75z"/>
</g>
<g id="v">
<path d="m2.3281-4.7188h-0.79688v-0.73438c0-0.3125 0.17188-0.48438 0.53125-0.48438 0.0625 0 0.09375 0 0.26562 0.015625v-0.625c-0.17188-0.03125-0.28125-0.046875-0.42188-0.046875-0.70312 0-1.1094 0.40625-1.1094 1.0781v0.79688h-0.64062v0.60938h0.64062v4.1094h0.73438v-4.1094h0.79688z"/>
</g>
<g id="u">
<path d="m4.3438 0v-4.7188h-0.75v2.6719c0 0.96875-0.5 1.5938-1.2969 1.5938-0.59375 0-0.96875-0.35938-0.96875-0.92188v-3.3438h-0.75v3.6406c0 0.78125 0.59375 1.2812 1.5156 1.2812 0.6875 0 1.125-0.23438 1.5625-0.85938v0.65625zm-2.1406-6.4375h-0.9375v0.92188h0.9375zm1.4531 0h-0.92188v0.92188h0.92188z"/>
</g>
<g id="ac">
<path d="m2.3281-4.5469v4.5469h0.79688v-6.375h-0.53125c-0.26562 0.96875-0.45312 1.1094-1.6719 1.2656v0.5625z"/>
</g>
<g id="ab">
<path d="m4.2656-1.9688 0.67188 1.9688h0.9375l-2.2969-6.5625h-1.0781l-2.3438 6.5625h0.89062l0.6875-1.9688zm-0.23438-0.70312h-2.0938l1.0938-2.9844z"/>
</g>
<g id="aa">
<path d="m4.4531-6.5625h-0.75v2.4375c-0.3125-0.46875-0.8125-0.71875-1.4375-0.71875-1.2344 0-2.0312 0.96875-2.0312 2.4844 0 1.5781 0.78125 2.5625 2.0469 2.5625 0.65625 0 1.1094-0.23438 1.5-0.82812v0.625h0.67188zm-2.0625 2.4062c0.79688 0 1.3125 0.71875 1.3125 1.8594 0 1.0781-0.51562 1.7969-1.3125 1.7969-0.82812 0-1.375-0.71875-1.375-1.8281 0-1.0938 0.54688-1.8281 1.375-1.8281z"/>
</g>
<g id="z">
<path d="m2.4688-6.375c-0.59375 0-1.125 0.25-1.4531 0.70312-0.42188 0.54688-0.625 1.4062-0.625 2.5781 0 2.1719 0.71875 3.2969 2.0781 3.2969s2.0938-1.1406 2.0938-3.2344c0-1.25-0.20312-2.0781-0.625-2.6406-0.32812-0.45312-0.85938-0.70312-1.4688-0.70312zm0 0.70312c0.85938 0 1.2812 0.84375 1.2812 2.5625 0 1.8125-0.40625 2.6562-1.2969 2.6562-0.82812 0-1.25-0.875-1.25-2.625s0.42188-2.5938 1.2656-2.5938z"/>
</g>
<g id="a">
<path d="m4.4375-3.1562c0-1.4219-0.70312-2.3906-1.7344-2.3906s-1.7344 0.96875-1.7344 2.3906v0.89062c0 1.4219 0.70312 2.4062 1.7344 2.4062s1.7344-0.98438 1.7344-2.4062zm-3 0.0625c0-0.5625 0.17188-1.1406 0.42188-1.5469 0.1875-0.29688 0.48438-0.4375 0.84375-0.4375s0.65625 0.14062 0.84375 0.4375c0.26562 0.40625 0.42188 0.98438 0.42188 1.5469v0.78125c0 0.54688-0.15625 1.1406-0.42188 1.5469-0.1875 0.28125-0.48438 0.4375-0.84375 0.4375s-0.65625-0.15625-0.84375-0.4375c-0.25-0.40625-0.42188-1-0.42188-1.5469z"/>
</g>
<g id="b">
<path d="m2.9375-5.5156-1.7188 0.53125c-0.17188 0.0625-0.23438 0.10938-0.23438 0.23438s0.10938 0.23438 0.21875 0.23438c0.015625 0 0.10938-0.015625 0.14062-0.03125l1.125-0.34375v4.4375h-1.2031c-0.1875 0-0.29688 0.078125-0.29688 0.21875 0 0.15625 0.10938 0.23438 0.29688 0.23438h2.8906c0.1875 0 0.28125-0.078125 0.28125-0.23438 0-0.14062-0.09375-0.21875-0.28125-0.21875h-1.2188z"/>
</g>
<g id="t">
<path d="m1.2188-0.45312c0.48438-0.42188 1.0469-0.9375 1.7812-1.6562 1.1406-1.0781 1.3125-1.3438 1.3125-1.875 0-0.82812-0.79688-1.5625-1.7031-1.5625-0.5625 0-1.0781 0.25-1.4219 0.6875-0.17188 0.21875-0.29688 0.5-0.29688 0.67188 0 0.09375 0.09375 0.20312 0.21875 0.20312s0.20312-0.0625 0.23438-0.20312c0.15625-0.53125 0.6875-0.89062 1.2656-0.89062 0.67188 0 1.25 0.5 1.25 1.0938 0 0.39062-0.17188 0.60938-1 1.4219-0.75 0.70312-1.4375 1.3438-2.0625 1.8906l-0.078125 0.0625v0.60938h3.6406v-0.73438c0-0.1875-0.078125-0.28125-0.23438-0.28125s-0.23438 0.09375-0.23438 0.28125v0.28125z"/>
</g>
<clipPath id="ai">
<path d="m113 171h73v72.941h-73z"/>
</clipPath>
<clipPath id="ah">
<path d="m185 130h20v109h-20z"/>
</clipPath>
<clipPath id="ag">
<path d="m-2.4727 243.94h225v-244h-225zm192.28-114.01h-4.6797v1.8008h4.6797l-3.6016-0.90234z" clip-rule="evenodd"/>
</clipPath>
<clipPath id="af">
<path d="m185 49h37v181h-37z"/>
</clipPath>
<clipPath id="ae">
<path d="m-2.4727 243.94h225v-244h-225zm192.28-194.89h-4.6797v1.8008h4.6797l-3.6016-0.90234z" clip-rule="evenodd"/>
</clipPath>
</defs>
<g>
<use x="112.588" y="150.54" xlink:href="#e"/>
<use x="184.588" y="157.74" xlink:href="#e"/>
<use x="184.588" y="150.54" xlink:href="#e"/>
<use x="112.588" y="76.74" xlink:href="#e"/>
<use x="112.588" y="69.54" xlink:href="#e"/>
<use x="184.588" y="73.14" xlink:href="#e"/>
<use x="184.588" y="76.74" xlink:href="#e"/>
<use x="184.588" y="69.54" xlink:href="#e"/>
<use x="184.588" y="154.14" xlink:href="#e"/>
<use x="112.588" y="73.14" xlink:href="#e"/>
<use x="112.588" y="154.14" xlink:href="#e"/>
<use x="112.588" y="157.74" xlink:href="#e"/>
</g>
<g clip-path="url(#ai)">
<path d="m113.73 171.54v72h72v-72h-72" fill="#e5e5e5" fill-rule="evenodd"/>
<path transform="matrix(.1 0 0 -.1 -2.472 243.94)" d="m1162 724.01v-720h720v720z" fill="none" stroke="#000" stroke-miterlimit="10" stroke-width="2.25"/>
</g>
<path transform="matrix(.1 0 0 -.1 -2.472 243.94)" d="m1162 94.009h720" fill="none" stroke="#000" stroke-miterlimit="10" stroke-width="2.25"/>
<path transform="matrix(.1 0 0 -.1 -2.472 243.94)" d="m1162 184.01h720" fill="none" stroke="#000" stroke-miterlimit="10" stroke-width="2.25"/>
<path transform="matrix(.1 0 0 -.1 -2.472 243.94)" d="m1162 274.01h720" fill="none" stroke="#000" stroke-miterlimit="10" stroke-width="2.25"/>
<path transform="matrix(.1 0 0 -.1 -2.472 243.94)" d="m1162 634.01h720" fill="none" stroke="#000" stroke-miterlimit="10" stroke-width="2.25"/>
<path transform="matrix(.1 0 0 -.1 -2.472 243.94)" d="m1162 724.01v90" fill="none" stroke="#000" stroke-miterlimit="10" stroke-width="2.25"/>
<path transform="matrix(.1 0 0 -.1 -2.472 243.94)" d="m1882 724.01v90" fill="none" stroke="#000" stroke-miterlimit="10" stroke-width="2.25"/>
<g>
<use x="137.475" y="207.54" xlink:href="#ad"/>
<use x="141.975" y="207.54" xlink:href="#d"/>
<use x="146.979" y="207.54" xlink:href="#y"/>
<use x="151.479" y="207.54" xlink:href="#g"/>
<use x="153.981" y="207.54" xlink:href="#l"/>
<use x="158.985" y="207.54" xlink:href="#c"/>
<use x="115.0883" y="196.0798" xlink:href="#k"/>
<use x="121.5863" y="196.0798" xlink:href="#f"/>
<use x="126.5903" y="196.0798" xlink:href="#g"/>
<use x="129.0923" y="196.0798" xlink:href="#d"/>
<use x="134.0963" y="196.0798" xlink:href="#c"/>
<use x="137.0933" y="196.0798" xlink:href="#s"/>
<use x="142.0973" y="196.0798" xlink:href="#c"/>
<use x="145.0943" y="196.0798" xlink:href="#d"/>
<use x="150.0983" y="196.0798" xlink:href="#r"/>
<use x="154.5983" y="196.0798" xlink:href="#q"/>
<use x="159.6023" y="196.0798" xlink:href="#h"/>
<use x="164.6063" y="196.0798" xlink:href="#f"/>
<use x="169.6103" y="196.0798" xlink:href="#p"/>
<use x="174.6143" y="196.0798" xlink:href="#i"/>
<use x="179.1143" y="196.0798" xlink:href="#j"/>
<use x="128.1297" y="232.9798" xlink:href="#a"/>
<use x="133.5297" y="232.9798" xlink:href="#b"/>
<use x="138.9297" y="232.9798" xlink:href="#a"/>
<use x="144.3297" y="232.9798" xlink:href="#b"/>
<use x="149.7297" y="232.9798" xlink:href="#a"/>
<use x="155.1297" y="232.9798" xlink:href="#a"/>
<use x="160.5297" y="232.9798" xlink:href="#a"/>
<use x="165.9297" y="232.9798" xlink:href="#b"/>
<use x="128.1297" y="241.9798" xlink:href="#a"/>
<use x="133.5297" y="241.9798" xlink:href="#a"/>
<use x="138.9297" y="241.9798" xlink:href="#b"/>
<use x="144.3297" y="241.9798" xlink:href="#a"/>
<use x="149.7297" y="241.9798" xlink:href="#b"/>
<use x="155.1297" y="241.9798" xlink:href="#a"/>
<use x="160.5297" y="241.9798" xlink:href="#b"/>
<use x="165.9297" y="241.9798" xlink:href="#b"/>
<use x="2.8437" y="198.54" xlink:href="#o"/>
<use x="9.8457" y="198.54" xlink:href="#d"/>
<use x="14.8497" y="198.54" xlink:href="#c"/>
<use x="17.8467" y="198.54" xlink:href="#n"/>
<use x="22.8507" y="198.54" xlink:href="#g"/>
<use x="25.3527" y="198.54" xlink:href="#d"/>
<use x="30.3567" y="198.54" xlink:href="#j"/>
<use x="-0.52193" y="207.54" xlink:href="#m"/>
<use x="5.97607" y="207.54" xlink:href="#h"/>
<use x="10.98007" y="207.54" xlink:href="#x"/>
<use x="18.47707" y="207.54" xlink:href="#x"/>
<use x="25.97407" y="207.54" xlink:href="#d"/>
<use x="30.97807" y="207.54" xlink:href="#c"/>
<use x="33.97507" y="207.54" xlink:href="#f"/>
<use x="115.08807" y="25.29" xlink:href="#k"/>
<use x="121.58607" y="25.29" xlink:href="#f"/>
<use x="126.59007" y="25.29" xlink:href="#g"/>
<use x="129.09207" y="25.29" xlink:href="#d"/>
<use x="134.09607" y="25.29" xlink:href="#c"/>
<use x="137.09307" y="25.29" xlink:href="#s"/>
<use x="142.09707" y="25.29" xlink:href="#c"/>
<use x="145.09407" y="25.29" xlink:href="#d"/>
<use x="150.09807" y="25.29" xlink:href="#r"/>
<use x="154.59807" y="25.29" xlink:href="#q"/>
<use x="159.60207" y="25.29" xlink:href="#h"/>
<use x="164.60607" y="25.29" xlink:href="#f"/>
<use x="169.61007" y="25.29" xlink:href="#p"/>
<use x="174.61407" y="25.29" xlink:href="#i"/>
<use x="179.11407" y="25.29" xlink:href="#j"/>
<use x="129.46927" y="35.4002" xlink:href="#c"/>
<use x="132.46627" y="35.4002" xlink:href="#l"/>
<use x="137.47027" y="35.4002" xlink:href="#h"/>
<use x="142.47427" y="35.4002" xlink:href="#g"/>
<use x="144.97627" y="35.4002" xlink:href="#w"/>
<use x="146.97427" y="35.4002" xlink:href="#f"/>
<use x="151.97827" y="35.4002" xlink:href="#d"/>
<use x="156.98227" y="35.4002" xlink:href="#glyph-0-22"/>
<use x="159.48427" y="35.4002" xlink:href="#v"/>
<use x="161.98627" y="35.4002" xlink:href="#u"/>
<use x="166.99027" y="35.4002" xlink:href="#c"/>
<use x="115.08807" y="106.29" xlink:href="#k"/>
<use x="121.58607" y="106.29" xlink:href="#f"/>
<use x="126.59007" y="106.29" xlink:href="#g"/>
<use x="129.09207" y="106.29" xlink:href="#d"/>
<use x="134.09607" y="106.29" xlink:href="#c"/>
<use x="137.09307" y="106.29" xlink:href="#s"/>
<use x="142.09707" y="106.29" xlink:href="#c"/>
<use x="145.09407" y="106.29" xlink:href="#d"/>
<use x="150.09807" y="106.29" xlink:href="#r"/>
<use x="154.59807" y="106.29" xlink:href="#q"/>
<use x="159.60207" y="106.29" xlink:href="#h"/>
<use x="164.60607" y="106.29" xlink:href="#f"/>
<use x="169.61007" y="106.29" xlink:href="#p"/>
<use x="174.61407" y="106.29" xlink:href="#i"/>
<use x="179.11407" y="106.29" xlink:href="#j"/>
<use x="129.46927" y="116.4002" xlink:href="#c"/>
<use x="132.46627" y="116.4002" xlink:href="#l"/>
<use x="137.47027" y="116.4002" xlink:href="#h"/>
<use x="142.47427" y="116.4002" xlink:href="#g"/>
<use x="144.97627" y="116.4002" xlink:href="#w"/>
<use x="146.97427" y="116.4002" xlink:href="#f"/>
<use x="151.97827" y="116.4002" xlink:href="#d"/>
<use x="156.98227" y="116.4002" xlink:href="#glyph-0-22"/>
<use x="159.48427" y="116.4002" xlink:href="#v"/>
<use x="161.98627" y="116.4002" xlink:href="#u"/>
<use x="166.99027" y="116.4002" xlink:href="#c"/>
<use x="127.47122" y="45.54" xlink:href="#o"/>
<use x="134.47322" y="45.54" xlink:href="#d"/>
<use x="139.47722" y="45.54" xlink:href="#c"/>
<use x="142.47422" y="45.54" xlink:href="#n"/>
<use x="147.47822" y="45.54" xlink:href="#g"/>
<use x="149.98022" y="45.54" xlink:href="#glyph-0-22"/>
<use x="152.48222" y="45.54" xlink:href="#m"/>
<use x="158.98022" y="45.54" xlink:href="#c"/>
<use x="161.97722" y="45.54" xlink:href="#e"/>
<use x="164.47922" y="45.54" xlink:href="#glyph-0-22"/>
<use x="166.98122" y="45.54" xlink:href="#ac"/>
<use x="56.23062" y="202.38" xlink:href="#ab"/>
<use x="62.23362" y="202.38" xlink:href="#aa"/>
<use x="67.23762" y="202.38" xlink:href="#c"/>
<use x="70.23462" y="202.38" xlink:href="#d"/>
<use x="75.23862" y="202.38" xlink:href="#i"/>
<use x="79.73862" y="202.38" xlink:href="#i"/>
<use x="84.23862" y="202.38" xlink:href="#d"/>
<use x="89.24262" y="202.38" xlink:href="#f"/>
<use x="53.6396" y="133.9503" xlink:href="#a"/>
<use x="59.0396" y="133.9503" xlink:href="#a"/>
<use x="64.4396" y="133.9503" xlink:href="#b"/>
<use x="69.8396" y="133.9503" xlink:href="#a"/>
<use x="75.2396" y="133.9503" xlink:href="#b"/>
<use x="80.6396" y="133.9503" xlink:href="#a"/>
<use x="86.0396" y="133.9503" xlink:href="#b"/>
<use x="91.4396" y="133.9503" xlink:href="#b"/>
<use x="16.5279" y="242.1903" xlink:href="#a"/>
<use x="16.5279" y="233.43014" xlink:href="#b"/>
<use x="16.318134" y="224.1903" xlink:href="#t"/>
<use x="13.618134" y="178.9505" xlink:href="#b"/>
<use x="19.018134" y="178.9505" xlink:href="#t"/>
<use x="53.429434" y="52.9505" xlink:href="#a"/>
<use x="58.829434" y="52.9505" xlink:href="#b"/>
<use x="64.229434" y="52.9505" xlink:href="#a"/>
<use x="69.629434" y="52.9505" xlink:href="#b"/>
<use x="75.029434" y="52.9505" xlink:href="#a"/>
<use x="80.429434" y="52.9505" xlink:href="#a"/>
<use x="85.829434" y="52.9505" xlink:href="#a"/>
<use x="91.229434" y="52.9505" xlink:href="#b"/>
<use x="53.429434" y="178.9505" xlink:href="#a"/>
<use x="58.829434" y="178.9505" xlink:href="#a"/>
<use x="64.229434" y="178.9505" xlink:href="#a"/>
<use x="69.629434" y="178.9505" xlink:href="#a"/>
<use x="75.029434" y="178.9505" xlink:href="#b"/>
<use x="80.429434" y="178.9505" xlink:href="#b"/>
<use x="85.829434" y="178.9505" xlink:href="#a"/>
<use x="91.229434" y="178.9505" xlink:href="#a"/>
<use x="53.399356" y="242.1302" xlink:href="#a"/>
<use x="58.799356" y="242.1302" xlink:href="#a"/>
<use x="64.199356" y="242.1302" xlink:href="#a"/>
<use x="69.599356" y="242.1302" xlink:href="#a"/>
<use x="74.999356" y="242.1302" xlink:href="#a"/>
<use x="80.399356" y="242.1302" xlink:href="#a"/>
<use x="85.799356" y="242.1302" xlink:href="#a"/>
<use x="91.199356" y="242.1302" xlink:href="#a"/>
<use x="127.471256" y="126.5402" xlink:href="#o"/>
<use x="134.473256" y="126.5402" xlink:href="#d"/>
<use x="139.477256" y="126.5402" xlink:href="#c"/>
<use x="142.474256" y="126.5402" xlink:href="#n"/>
<use x="147.478256" y="126.5402" xlink:href="#g"/>
<use x="149.980256" y="126.5402" xlink:href="#glyph-0-22"/>
<use x="152.482256" y="126.5402" xlink:href="#m"/>
<use x="158.980256" y="126.5402" xlink:href="#c"/>
<use x="161.977256" y="126.5402" xlink:href="#e"/>
<use x="164.479256" y="126.5402" xlink:href="#glyph-0-22"/>
<use x="166.981256" y="126.5402" xlink:href="#z"/>
<use x="53.399356" y="233.1302" xlink:href="#a"/>
<use x="58.799356" y="233.1302" xlink:href="#a"/>
<use x="64.199356" y="233.1302" xlink:href="#a"/>
<use x="69.599356" y="233.1302" xlink:href="#a"/>
<use x="74.999356" y="233.1302" xlink:href="#a"/>
<use x="80.399356" y="233.1302" xlink:href="#a"/>
<use x="85.799356" y="233.1302" xlink:href="#a"/>
<use x="91.199356" y="233.1302" xlink:href="#b"/>
<use x="53.399356" y="223.6802" xlink:href="#a"/>
<use x="58.799356" y="223.6802" xlink:href="#a"/>
<use x="64.199356" y="223.6802" xlink:href="#a"/>
<use x="69.599356" y="223.6802" xlink:href="#a"/>
<use x="74.999356" y="223.6802" xlink:href="#a"/>
<use x="80.399356" y="223.6802" xlink:href="#a"/>
<use x="85.799356" y="223.6802" xlink:href="#b"/>
<use x="91.199356" y="223.6802" xlink:href="#a"/>
</g>
<path transform="matrix(.1 0 0 -.1 -2.472 243.94)" d="m1162 2434v-90" fill="none" stroke="#000" stroke-miterlimit="10" stroke-width="2.25"/>
<path transform="matrix(.1 0 0 -.1 -2.472 243.94)" d="m1882 2434v-90" fill="none" stroke="#000" stroke-miterlimit="10" stroke-width="2.25"/>
<path transform="matrix(.1 0 0 -.1 -2.472 243.94)" d="m1162 1804v540h720v-540" fill="none" stroke="#000" stroke-miterlimit="10" stroke-width="2.25"/>
<path transform="matrix(.1 0 0 -.1 -2.472 243.94)" d="m1162 1894h720" fill="none" stroke="#000" stroke-miterlimit="10" stroke-width="2.25"/>
<path transform="matrix(.1 0 0 -.1 -2.472 243.94)" d="m1162 1624v-90" fill="none" stroke="#000" stroke-miterlimit="10" stroke-width="2.25"/>
<path transform="matrix(.1 0 0 -.1 -2.472 243.94)" d="m1882 1624v-90" fill="none" stroke="#000" stroke-miterlimit="10" stroke-width="2.25"/>
<path transform="matrix(.1 0 0 -.1 -2.472 243.94)" d="m1162 994.01v540h720v-540" fill="none" stroke="#000" stroke-miterlimit="10" stroke-width="2.25"/>
<path transform="matrix(.1 0 0 -.1 -2.472 243.94)" d="m1162 1084h720" fill="none" stroke="#000" stroke-miterlimit="10" stroke-width="2.25"/>
<g clip-path="url(#ah)">
<g clip-path="url(#ag)">
<path transform="matrix(.1 0 0 -.1 -2.472 243.94)" d="m1884.1 51.119h180.31v1080h-182.42" fill="none" stroke="#000" stroke-miterlimit="10" stroke-width="2.25"/>
</g>
</g>
<path transform="matrix(.1 0 0 -.1 -2.472 243.94)" d="m1922.8 1140.1-36.016-8.9844 36.016-9.0234z" fill-rule="evenodd" stroke="#000" stroke-miterlimit="10" stroke-width="2.25"/>
<g clip-path="url(#af)">
<g clip-path="url(#ae)">
<path transform="matrix(.1 0 0 -.1 -2.472 243.94)" d="m1884.7 145.3h357.3v1794.6h-360" fill="none" stroke="#000" stroke-miterlimit="10" stroke-width="2.25"/>
</g>
</g>
<path transform="matrix(.1 0 0 -.1 -2.472 243.94)" d="m1922.8 1948.9-36.016-8.9844 36.016-9.0234z" fill-rule="evenodd" stroke="#000" stroke-miterlimit="10" stroke-width="2.25"/>
</svg>
