<svg width="363pt" height="334pt" version="1.1" viewBox="0 0 363 334" xmlns="http://www.w3.org/2000/svg" xmlns:xlink="http://www.w3.org/1999/xlink">
<defs>
<g id="z">
<path d="m1.9062-2.4844h1.4531c0.96875 0 1.9219-0.625 1.9219-1.4688 0-0.78125-0.84375-1.4844-1.9844-1.4844h-2.9375v0.26562h0.1875c0.60938 0 0.625 0.078125 0.625 0.375v4.1562c0 0.29688-0.015625 0.375-0.625 0.375h-0.1875v0.26562c0.6875-0.03125 0.70312-0.03125 1.1719-0.03125 0.48438 0 0.5 0 1.1719 0.03125v-0.26562h-0.17188c-0.60938 0-0.625-0.078125-0.625-0.375zm-0.03125-0.23438v-2.1406c0-0.26562 0.015625-0.3125 0.39062-0.3125h0.82812c1.3594 0 1.3594 0.85938 1.3594 1.2188 0 0.34375 0 1.2344-1.3594 1.2344z"/>
</g>
<g id="b">
<path d="m1.4688-1.8125c0-0.60938 0.25-1.4688 1.0156-1.4844-0.046875 0.03125-0.14062 0.09375-0.14062 0.28125 0 0.25 0.20312 0.35938 0.35938 0.35938 0.1875 0 0.35938-0.125 0.35938-0.35938 0-0.28125-0.25-0.5-0.60938-0.5-0.51562 0-0.875 0.39062-1.0312 0.84375h-0.015625v-0.84375l-1.125 0.09375v0.26562c0.54688 0 0.60938 0.046875 0.60938 0.4375v2.0938c0 0.35938-0.10938 0.35938-0.60938 0.35938v0.26562c0.3125-0.03125 0.75-0.03125 0.9375-0.03125 0.46875 0 0.48438 0 1 0.03125v-0.26562h-0.15625c-0.57812 0-0.59375-0.078125-0.59375-0.375z"/>
</g>
<g id="l">
<path d="m1.7031-4.9375c0-0.26562-0.20312-0.42188-0.40625-0.42188-0.25 0-0.42188 0.20312-0.42188 0.42188s0.17188 0.40625 0.42188 0.40625c0.20312 0 0.40625-0.15625 0.40625-0.40625zm1.6406 0c0-0.21875-0.17188-0.42188-0.40625-0.42188-0.21875 0-0.42188 0.15625-0.42188 0.42188 0 0.25 0.20312 0.40625 0.42188 0.40625 0.23438 0 0.40625-0.1875 0.40625-0.40625z"/>
</g>
<g id="f">
<path d="m2.6562-3.4219v0.26562c0.54688 0 0.60938 0.046875 0.60938 0.4375v1.3906c0 0.6875-0.40625 1.1875-1.0156 1.1875-0.6875 0-0.71875-0.34375-0.71875-0.75v-2.625l-1.2031 0.09375v0.26562c0.60938 0 0.60938 0.015625 0.60938 0.71875v1.2031c0 0.57812 0 1.3125 1.2656 1.3125 0.75 0 1.0469-0.57812 1.0781-0.64062h0.015625v0.64062l1.1875-0.078125v-0.26562c-0.54688 0-0.60938-0.046875-0.60938-0.4375v-2.8125z"/>
</g>
<g id="m">
<path d="m1.5156-3.1719h0.96875v-0.26562h-0.98438v-0.89062c0-0.70312 0.39062-1.0625 0.73438-1.0625 0.125 0 0.20312 0.03125 0.23438 0.046875-0.14062 0.0625-0.1875 0.20312-0.1875 0.3125 0 0.20312 0.15625 0.35938 0.35938 0.35938 0.21875 0 0.35938-0.15625 0.35938-0.35938 0-0.34375-0.32812-0.57812-0.75-0.57812-0.59375 0-1.3125 0.4375-1.3125 1.2812v0.89062h-0.65625v0.26562h0.65625v2.5469c0 0.35938-0.09375 0.35938-0.60938 0.35938v0.26562c0.3125-0.03125 0.75-0.03125 0.95312-0.03125 0.46875 0 0.48438 0 1 0.03125v-0.26562h-0.15625c-0.59375 0-0.60938-0.078125-0.60938-0.375z"/>
</g>
<g id="d">
<path d="m3.875-2.4219c0-0.65625-0.3125-1.0938-1.1406-1.0938-0.79688 0-1.1562 0.57812-1.25 0.76562v-0.76562l-1.1562 0.09375v0.26562c0.54688 0 0.60938 0.046875 0.60938 0.4375v2.0938c0 0.35938-0.09375 0.35938-0.60938 0.35938v0.26562c0.34375-0.03125 0.6875-0.03125 0.90625-0.03125 0.23438 0 0.5625 0 0.90625 0.03125v-0.26562c-0.5 0-0.60938 0-0.60938-0.35938v-1.4375c0-0.84375 0.64062-1.2344 1.125-1.2344s0.60938 0.34375 0.60938 0.84375v1.8281c0 0.35938-0.09375 0.35938-0.60938 0.35938v0.26562c0.34375-0.03125 0.70312-0.03125 0.90625-0.03125 0.23438 0 0.57812 0 0.92188 0.03125v-0.26562c-0.51562 0-0.60938 0-0.60938-0.35938z"/>
</g>
<g id="g">
<path d="m1.375-0.54688c-0.25-0.03125-0.4375-0.23438-0.4375-0.53125 0-0.1875 0.046875-0.26562 0.09375-0.32812 0.34375 0.1875 0.65625 0.23438 0.84375 0.23438 0.78125 0 1.375-0.54688 1.375-1.1719 0-0.29688-0.14062-0.5625-0.32812-0.76562 0.10938-0.09375 0.375-0.26562 0.76562-0.26562-0.03125 0.015625-0.078125 0.0625-0.078125 0.1875 0 0.14062 0.10938 0.25 0.25 0.25 0.10938 0 0.25-0.078125 0.25-0.26562 0-0.125-0.10938-0.40625-0.45312-0.40625-0.14062 0-0.53125 0.046875-0.89062 0.375-0.20312-0.14062-0.51562-0.28125-0.89062-0.28125-0.78125 0-1.3594 0.54688-1.3594 1.1719 0 0.375 0.20312 0.65625 0.375 0.8125-0.1875 0.20312-0.25 0.45312-0.25 0.64062 0 0.32812 0.17188 0.57812 0.34375 0.71875-0.42188 0.10938-0.75 0.42188-0.75 0.78125 0 0.57812 0.82812 1.0312 1.875 1.0312 1 0 1.875-0.40625 1.875-1.0469 0-0.42188-0.25-0.76562-0.51562-0.89062-0.46875-0.25-0.85938-0.25-1.6406-0.25zm0.5-0.85938c-0.73438 0-0.73438-0.76562-0.73438-0.9375 0-0.29688 0.03125-0.5 0.15625-0.65625 0.14062-0.1875 0.35938-0.28125 0.57812-0.28125 0.73438 0 0.73438 0.76562 0.73438 0.9375 0 0.29688-0.03125 0.5-0.15625 0.65625-0.17188 0.23438-0.42188 0.28125-0.57812 0.28125zm0.375 1.375c0.21875 0 1.2656 0 1.2656 0.64062 0 0.42188-0.60938 0.79688-1.4062 0.79688s-1.4062-0.375-1.4062-0.79688c0-0.17188 0.14062-0.64062 0.78125-0.64062z"/>
</g>
<g id="k">
<path d="m2.625-5.4375v0.26562c0.53125 0 0.60938 0.046875 0.60938 0.4375v1.6875c-0.28125-0.3125-0.65625-0.46875-1.0781-0.46875-1 0-1.875 0.78125-1.875 1.7969 0 0.98438 0.79688 1.7969 1.7969 1.7969 0.46875 0 0.85938-0.21875 1.125-0.5v0.5l1.2188-0.078125v-0.26562c-0.54688 0-0.60938-0.046875-0.60938-0.4375v-4.8281zm0.57812 4.4531c0 0.14062 0 0.17188-0.125 0.32812-0.21875 0.32812-0.57812 0.51562-0.95312 0.51562s-0.6875-0.1875-0.875-0.48438c-0.21875-0.3125-0.26562-0.70312-0.26562-1.0781 0-0.46875 0.078125-0.79688 0.26562-1.0625 0.1875-0.29688 0.54688-0.53125 0.95312-0.53125 0.375 0 0.76562 0.20312 1 0.60938z"/>
</g>
<g id="a">
<path d="m3.2969-1.8125c0.17188 0 0.21875 0 0.21875-0.1875 0-0.70312-0.39062-1.5469-1.5156-1.5469-0.98438 0-1.7656 0.8125-1.7656 1.7969 0 1.0312 0.85938 1.8281 1.875 1.8281 1 0 1.4062-0.84375 1.4062-1.0312 0-0.03125-0.03125-0.10938-0.125-0.10938s-0.10938 0.046875-0.125 0.09375c-0.28125 0.78125-0.96875 0.79688-1.1094 0.79688-0.35938 0-0.73438-0.15625-0.96875-0.53125-0.23438-0.35938-0.23438-0.875-0.23438-1.1094zm-2.3438-0.21875c0.078125-1.1094 0.75-1.2969 1.0469-1.2969 0.9375 0 0.96875 1.125 0.96875 1.2969z"/>
</g>
<g id="ac">
<path d="m0.35938-5.4375v0.26562h0.1875c0.60938 0 0.625 0.078125 0.625 0.375v4.1562c0 0.29688-0.015625 0.375-0.625 0.375h-0.1875v0.26562h3.0312c1.4375 0 2.5938-1.1875 2.5938-2.6719 0-1.5312-1.1562-2.7656-2.5938-2.7656zm1.9062 5.1719c-0.375 0-0.39062-0.046875-0.39062-0.32812v-4.2656c0-0.26562 0.015625-0.3125 0.39062-0.3125h0.90625c0.625 0 1.1406 0.25 1.5 0.64062 0.5 0.60938 0.5 1.4688 0.5 1.8594 0 0.40625 0 1.1875-0.5 1.7656-0.26562 0.32812-0.78125 0.64062-1.5 0.64062z"/>
</g>
<g id="e">
<path d="m3.3438-2.375c0-0.78125-0.75-1.1719-1.4844-1.1719-0.65625 0-1.25 0.25-1.25 0.78125 0 0.23438 0.17188 0.375 0.375 0.375 0.23438 0 0.375-0.15625 0.375-0.375 0-0.1875-0.10938-0.32812-0.29688-0.35938 0.29688-0.20312 0.73438-0.20312 0.78125-0.20312 0.45312 0 0.89062 0.3125 0.89062 0.96875v0.23438c-0.45312 0.03125-0.98438 0.046875-1.5469 0.28125-0.70312 0.3125-0.84375 0.76562-0.84375 1.0312 0 0.6875 0.8125 0.89062 1.3594 0.89062 0.57812 0 0.9375-0.32812 1.125-0.64062 0.03125 0.29688 0.23438 0.60938 0.59375 0.60938 0.078125 0 0.75-0.03125 0.75-0.76562v-0.4375h-0.25v0.4375c0 0.32812-0.10938 0.45312-0.28125 0.45312-0.29688 0-0.29688-0.35938-0.29688-0.45312zm-0.60938 1.25c0 0.78125-0.64062 0.98438-0.96875 0.98438-0.40625 0-0.76562-0.28125-0.76562-0.67188 0-0.51562 0.5-1.0625 1.7344-1.0938z"/>
</g>
<g id="c">
<path d="m1.4844-3.1719h1.1875v-0.26562h-1.1875v-1.4688h-0.25c0 0.73438-0.32812 1.4844-1.0781 1.5156v0.21875h0.71875v2.1719c0 0.9375 0.71875 1.0781 1.0781 1.0781 0.54688 0 0.85938-0.46875 0.85938-1.0781v-0.4375h-0.25v0.42188c0 0.54688-0.25 0.84375-0.54688 0.84375-0.53125 0-0.53125-0.6875-0.53125-0.8125z"/>
</g>
<g id="v">
<path d="m5.5156-2.0781h-0.25c-0.20312 1.2031-0.375 1.8125-1.8125 1.8125h-1.1875c-0.35938 0-0.375-0.046875-0.375-0.32812v-2.0938h0.76562c0.79688 0 0.90625 0.23438 0.90625 0.9375h0.25v-2.125h-0.25c0 0.6875-0.10938 0.92188-0.90625 0.92188h-0.76562v-1.875c0-0.26562 0.015625-0.32812 0.375-0.32812h1.1406c1.3125 0 1.4844 0.48438 1.625 1.5469h0.25l-0.23438-1.8125h-4.7031v0.26562h0.1875c0.60938 0 0.625 0.09375 0.625 0.39062v4.125c0 0.29688-0.015625 0.375-0.625 0.375h-0.1875v0.26562h4.8125z"/>
</g>
<g id="u">
<path d="m3.7188-5.6562c0.03125-0.09375 0.03125-0.125 0.03125-0.14062 0-0.09375-0.078125-0.17188-0.1875-0.17188-0.125 0-0.15625 0.09375-0.1875 0.1875l-2.8594 7.4531c-0.046875 0.09375-0.046875 0.125-0.046875 0.14062 0 0.09375 0.078125 0.17188 0.1875 0.17188 0.125 0 0.15625-0.09375 0.20312-0.1875z"/>
</g>
<g id="s">
<path d="m3.375-5.5156c-0.046875-0.10938-0.0625-0.17188-0.20312-0.17188s-0.17188 0.0625-0.20312 0.17188l-1.7812 4.6875c-0.078125 0.21875-0.25 0.5625-0.90625 0.5625v0.26562c0.26562-0.03125 0.6875-0.03125 0.82812-0.03125 0.25 0 0.5 0 0.875 0.03125v-0.26562c-0.34375 0-0.54688-0.17188-0.54688-0.39062 0-0.0625 0-0.078125 0.03125-0.17188l0.375-1h2.1719l0.45312 1.1875c0.03125 0.09375 0.03125 0.125 0.03125 0.14062 0 0.23438-0.40625 0.23438-0.64062 0.23438v0.26562c0.6875-0.03125 0.70312-0.03125 1.1406-0.03125s0.59375 0 1.0469 0.03125v-0.26562h-0.14062c-0.5 0-0.57812-0.0625-0.67188-0.32812zm-0.4375 0.82812 0.96875 2.5938h-1.9688z"/>
</g>
<g id="t">
<path d="m2.3438-1.4531v-0.51562h-2.25v0.51562z"/>
</g>
<g id="i">
<path d="m3.9844-1.7031c0-0.98438-0.82812-1.8438-1.875-1.8438s-1.875 0.85938-1.875 1.8438c0 1 0.85938 1.7812 1.875 1.7812 1.0312 0 1.875-0.78125 1.875-1.7812zm-1.875 1.5312c-0.42188 0-0.76562-0.20312-0.9375-0.48438-0.20312-0.32812-0.21875-0.71875-0.21875-1.1094 0-0.3125 0-0.78125 0.23438-1.125 0.21875-0.28125 0.54688-0.4375 0.92188-0.4375 0.42188 0 0.76562 0.20312 0.9375 0.46875 0.21875 0.34375 0.23438 0.76562 0.23438 1.0938 0 0.35938-0.015625 0.79688-0.25 1.1406-0.20312 0.3125-0.5625 0.45312-0.92188 0.45312z"/>
</g>
<g id="j">
<path d="m1.4688-5.5312-1.1875 0.09375v0.26562c0.54688 0 0.60938 0.046875 0.60938 0.4375v4.7344h0.23438l0.29688-0.5c0.1875 0.28125 0.5625 0.57812 1.1094 0.57812 1 0 1.8906-0.78125 1.8906-1.7969 0-1-0.82812-1.7969-1.7969-1.7969-0.64062 0-1.0156 0.34375-1.1562 0.48438zm0.015625 3.0156c0-0.15625 0-0.17188 0.125-0.3125 0.23438-0.29688 0.60938-0.46875 0.96875-0.46875 0.40625 0 0.71875 0.25 0.875 0.48438 0.14062 0.21875 0.25 0.5 0.25 1.0781 0 0.1875 0 0.75-0.28125 1.125-0.29688 0.35938-0.67188 0.46875-0.92188 0.46875-0.39062 0-0.70312-0.20312-0.92188-0.51562-0.09375-0.15625-0.09375-0.15625-0.09375-0.3125z"/>
</g>
<g id="h">
<path d="m1.5469-4.9062c0-0.23438-0.17188-0.45312-0.4375-0.45312-0.23438 0-0.4375 0.1875-0.4375 0.4375 0 0.28125 0.23438 0.45312 0.4375 0.45312 0.28125 0 0.4375-0.23438 0.4375-0.4375zm-1.1875 1.4844v0.26562c0.51562 0 0.57812 0.046875 0.57812 0.4375v2.0938c0 0.35938-0.09375 0.35938-0.60938 0.35938v0.26562c0.3125-0.03125 0.76562-0.03125 0.89062-0.03125 0.09375 0 0.57812 0 0.85938 0.03125v-0.26562c-0.53125 0-0.5625-0.03125-0.5625-0.34375v-2.9062z"/>
</g>
<g id="bf">
<path d="m4.9375-5.4219h-4.5938v0.26562h0.1875c0.60938 0 0.625 0.09375 0.625 0.39062v4.125c0 0.29688-0.015625 0.375-0.625 0.375h-0.1875v0.26562c0.6875-0.03125 0.70312-0.03125 1.2344-0.03125 0.375 0 0.95312 0 1.3125 0.03125v-0.26562h-0.25c-0.75 0-0.75-0.10938-0.75-0.39062v-1.9219h0.73438c0.78125 0 0.875 0.25 0.875 0.92188h0.25v-2.125h-0.25c0 0.6875-0.09375 0.9375-0.875 0.9375h-0.73438v-1.9844c0-0.26562 0.015625-0.32812 0.375-0.32812h1.0625c1.2969 0 1.4531 0.5 1.5938 1.5469h0.23438z"/>
</g>
<g id="r">
<path d="m3.875-2.4219c0-0.65625-0.3125-1.0938-1.1406-1.0938-0.70312 0-1.0625 0.45312-1.2188 0.70312v-2.7188l-1.1875 0.09375v0.26562c0.54688 0 0.60938 0.046875 0.60938 0.4375v4.1094c0 0.35938-0.09375 0.35938-0.60938 0.35938v0.26562c0.34375-0.03125 0.6875-0.03125 0.90625-0.03125 0.23438 0 0.5625 0 0.90625 0.03125v-0.26562c-0.5 0-0.60938 0-0.60938-0.35938v-1.4375c0-0.84375 0.64062-1.2344 1.125-1.2344s0.60938 0.34375 0.60938 0.84375v1.8281c0 0.35938-0.09375 0.35938-0.60938 0.35938v0.26562c0.34375-0.03125 0.70312-0.03125 0.90625-0.03125 0.23438 0 0.57812 0 0.92188 0.03125v-0.26562c-0.51562 0-0.60938 0-0.60938-0.35938z"/>
</g>
<g id="p">
<path d="m1.5156-5.5312-1.1875 0.09375v0.26562c0.54688 0 0.60938 0.046875 0.60938 0.4375v4.1094c0 0.35938-0.09375 0.35938-0.60938 0.35938v0.26562c0.3125-0.03125 0.76562-0.03125 0.90625-0.03125 0.15625 0 0.57812 0 0.89062 0.03125v-0.26562c-0.5 0-0.60938 0-0.60938-0.35938z"/>
</g>
<g id="o">
<path d="m6.2188-2.4219c0-0.64062-0.28125-1.0938-1.1406-1.0938-0.73438 0-1.1094 0.5-1.2344 0.73438-0.14062-0.57812-0.59375-0.73438-1.1094-0.73438-0.78125 0-1.1406 0.54688-1.25 0.76562v-0.76562l-1.1562 0.09375v0.26562c0.54688 0 0.60938 0.046875 0.60938 0.4375v2.0938c0 0.35938-0.09375 0.35938-0.60938 0.35938v0.26562c0.34375-0.03125 0.6875-0.03125 0.90625-0.03125 0.23438 0 0.5625 0 0.90625 0.03125v-0.26562c-0.5 0-0.60938 0-0.60938-0.35938v-1.4375c0-0.84375 0.64062-1.2344 1.1406-1.2344 0.51562 0 0.60938 0.40625 0.60938 0.84375v1.8281c0 0.35938-0.10938 0.35938-0.60938 0.35938v0.26562c0.34375-0.03125 0.6875-0.03125 0.90625-0.03125 0.23438 0 0.5625 0 0.90625 0.03125v-0.26562c-0.51562 0-0.60938 0-0.60938-0.35938v-1.4375c0-0.84375 0.64062-1.2344 1.1406-1.2344 0.51562 0 0.60938 0.40625 0.60938 0.84375v1.8281c0 0.35938-0.10938 0.35938-0.60938 0.35938v0.26562c0.34375-0.03125 0.6875-0.03125 0.90625-0.03125 0.23438 0 0.5625 0 0.90625 0.03125v-0.26562c-0.51562 0-0.60938 0-0.60938-0.35938z"/>
</g>
<g id="n">
<path d="m2.8438-3.3438c0-0.125 0-0.20312-0.10938-0.20312-0.046875 0-0.0625 0-0.1875 0.125-0.015625 0-0.09375 0.078125-0.10938 0.078125s-0.03125 0-0.078125-0.03125c-0.125-0.09375-0.35938-0.17188-0.71875-0.17188-1.1094 0-1.3594 0.59375-1.3594 0.98438s0.29688 0.625 0.3125 0.65625c0.32812 0.23438 0.5 0.26562 1.0469 0.35938 0.375 0.078125 0.98438 0.1875 0.98438 0.71875 0 0.3125-0.20312 0.6875-0.9375 0.6875-0.8125 0-1.0469-0.625-1.1406-1.0469-0.03125-0.10938-0.046875-0.14062-0.14062-0.14062-0.125 0-0.125 0.0625-0.125 0.21875v0.98438c0 0.125 0 0.20312 0.09375 0.20312 0.0625 0 0.0625 0 0.20312-0.15625 0.046875-0.046875 0.125-0.14062 0.17188-0.1875 0.35938 0.32812 0.73438 0.34375 0.9375 0.34375 1.0156 0 1.3594-0.57812 1.3594-1.1094 0-0.375-0.21875-0.9375-1.1719-1.1094-0.0625-0.015625-0.51562-0.09375-0.54688-0.09375-0.25-0.0625-0.625-0.23438-0.625-0.54688 0-0.23438 0.1875-0.57812 0.9375-0.57812 0.89062 0 0.9375 0.65625 0.95312 0.875 0 0.0625 0.0625 0.09375 0.10938 0.09375 0.14062 0 0.14062-0.0625 0.14062-0.20312z"/>
</g>
<g id="y">
<path d="m3.3125-3.1562c0.046875-0.078125 0.0625-0.09375 0.0625-0.15625 0-0.125-0.09375-0.125-0.21875-0.125h-2.7031l-0.10938 1.3281h0.25c0.046875-0.82812 0.23438-1.1094 1.125-1.1094h0.90625l-2.3125 2.9219c-0.0625 0.078125-0.078125 0.09375-0.078125 0.15625 0 0.14062 0.09375 0.14062 0.23438 0.14062h2.7969l0.14062-1.5312h-0.25c-0.078125 0.92188-0.23438 1.2812-1.2188 1.2812h-0.9375z"/>
</g>
<g id="aq">
<path d="m3.8125-3.1719h0.95312v-0.26562h-0.98438v-0.89062c0-0.71875 0.40625-1.0625 0.75-1.0625 0.03125 0 0.125 0 0.23438 0.046875-0.14062 0.0625-0.1875 0.20312-0.1875 0.3125 0 0.20312 0.15625 0.35938 0.35938 0.35938 0.21875 0 0.35938-0.15625 0.35938-0.35938 0-0.34375-0.32812-0.57812-0.75-0.57812-0.29688 0-0.64062 0.10938-0.90625 0.32812-0.26562-0.3125-0.73438-0.32812-0.95312-0.32812-0.79688 0-1.7969 0.39062-1.7969 1.2969v0.875h-0.65625v0.26562h0.65625v2.5469c0 0.35938-0.10938 0.35938-0.60938 0.35938v0.26562c0.3125-0.03125 0.75-0.03125 0.89062-0.03125 0.15625 0 0.59375 0 0.90625 0.03125v-0.26562c-0.51562 0-0.60938 0-0.60938-0.35938v-2.5469h1.7656v2.5469c0 0.35938-0.10938 0.35938-0.60938 0.35938v0.26562c0.3125-0.03125 0.75-0.03125 0.9375-0.03125 0.46875 0 0.48438 0 1 0.03125v-0.26562h-0.15625c-0.57812 0-0.59375-0.078125-0.59375-0.375zm-2.375-0.26562v-0.85938c0-0.78125 0.70312-1.0938 1.2344-1.0938 0.078125 0 0.375 0 0.60938 0.125-0.20312 0.09375-0.23438 0.26562-0.23438 0.34375 0 0.0625 0.015625 0.23438 0.20312 0.3125-0.015625 0.09375-0.015625 0.25-0.015625 0.28125v0.89062z"/>
</g>
<g id="be">
<path d="m2-1.9688c0-0.78125 0.46875-1.3281 1.0469-1.7344 0.125-0.078125 0.46875-0.32812 0.46875-0.82812 0-0.4375-0.3125-1.0781-1.6094-1.0781-0.92188 0-1.4375 0.53125-1.4375 1.0625 0 0.35938 0.28125 0.39062 0.375 0.39062 0.1875 0 0.375-0.125 0.375-0.375 0-0.078125-0.03125-0.35938-0.39062-0.375 0.17188-0.26562 0.5625-0.48438 1.0625-0.48438 0.90625 0 0.92188 0.5 0.92188 0.82812 0 0.42188-0.15625 0.59375-0.26562 0.70312-0.76562 0.76562-0.79688 1.5-0.79688 1.9844v0.23438c0.015625 0.125 0.078125 0.125 0.125 0.125 0.125 0 0.125-0.046875 0.125-0.21875zm0.3125 1.5312c0-0.26562-0.20312-0.45312-0.4375-0.45312-0.25 0-0.4375 0.21875-0.4375 0.4375 0 0.25 0.20312 0.45312 0.4375 0.45312 0.25 0 0.4375-0.1875 0.4375-0.4375z"/>
</g>
<g id="x">
<path d="m1.8594-3.3281c-0.51562-0.10938-0.89062-0.51562-0.89062-1 0-0.54688 0.46875-1.0469 1.1562-1.0469 1.375 0 1.5625 1.2969 1.6094 1.5938 0.015625 0.09375 0.015625 0.14062 0.125 0.14062 0.125 0 0.125-0.046875 0.125-0.20312v-1.5625c0-0.125 0-0.20312-0.10938-0.20312-0.0625 0-0.078125 0.015625-0.125 0.10938l-0.28125 0.45312c-0.40625-0.4375-0.90625-0.5625-1.3438-0.5625-0.95312 0-1.6562 0.71875-1.6562 1.5312 0 0.60938 0.34375 0.9375 0.5 1.0938 0.28125 0.28125 0.54688 0.34375 1.4062 0.54688 0.6875 0.15625 0.79688 0.1875 1.0625 0.46875 0.078125 0.078125 0.28125 0.34375 0.28125 0.73438 0 0.5625-0.42188 1.1406-1.1719 1.1406-0.875 0-1.7812-0.42188-1.8281-1.5312-0.015625-0.125-0.015625-0.1875-0.125-0.1875-0.125 0-0.125 0.0625-0.125 0.21875v1.5469c0 0.14062 0 0.21875 0.10938 0.21875 0.0625 0 0.0625-0.015625 0.125-0.09375 0.03125-0.046875 0.0625-0.125 0.28125-0.45312 0.5 0.4375 1.0938 0.54688 1.5781 0.54688 0.98438 0 1.6562-0.79688 1.6562-1.6406 0-0.70312-0.45312-1.4062-1.2656-1.5938z"/>
</g>
<g id="ap">
<path d="m3.5312-2.625c0.20312-0.45312 0.5-0.53125 0.75-0.54688v-0.26562c-0.26562 0.03125-0.28125 0.03125-0.625 0.03125-0.03125 0-0.45312 0-0.6875-0.03125v0.26562c0.23438 0.015625 0.34375 0.14062 0.34375 0.32812 0 0.046875 0 0.10938-0.046875 0.20312l-0.84375 1.9219-0.9375-2.0938c-0.046875-0.10938-0.046875-0.125-0.046875-0.15625 0-0.1875 0.25-0.20312 0.42188-0.20312v-0.26562c-0.35938 0.03125-0.70312 0.03125-0.875 0.03125s-0.54688 0-0.8125-0.03125v0.26562c0.42188 0 0.53125 0.015625 0.67188 0.3125l1.25 2.8594c-0.35938 0.84375-0.59375 1.4062-1.1562 1.4062-0.20312 0-0.32812-0.09375-0.32812-0.09375 0.0625-0.015625 0.25-0.10938 0.25-0.34375 0-0.21875-0.17188-0.34375-0.34375-0.34375s-0.34375 0.10938-0.34375 0.35938c0 0.34375 0.34375 0.64062 0.76562 0.64062 0.71875 0 1.0938-0.85938 1.125-0.9375z"/>
</g>
<g id="bd">
<path d="m1.9375-5.3281c-0.09375-0.10938-0.09375-0.10938-0.25-0.10938h-1.3438v0.26562h0.23438c0.14062 0 0.20312 0 0.35938 0.015625 0.20312 0.015625 0.21875 0.03125 0.21875 0.17188v4.125c0 0.21875 0 0.59375-0.8125 0.59375v0.26562c0.35938-0.03125 0.73438-0.03125 0.95312-0.03125 0.20312 0 0.57812 0 0.9375 0.03125v-0.26562c-0.8125 0-0.8125-0.375-0.8125-0.59375v-4.0625l3.4531 4.7969c0.078125 0.09375 0.09375 0.125 0.17188 0.125 0.125 0 0.125-0.078125 0.125-0.21875v-4.375c0-0.20312 0-0.57812 0.8125-0.57812v-0.26562c-0.35938 0.015625-0.73438 0.015625-0.9375 0.015625s-0.57812 0-0.9375-0.015625v0.26562c0.79688 0 0.79688 0.375 0.79688 0.57812v3.4062z"/>
</g>
<g id="bc">
<path d="m5.6406-5.3906h-5.1719l-0.17188 1.8125h0.25c0.10938-1.3438 0.29688-1.5469 1.5156-1.5469 0.15625 0 0.40625 0 0.46875 0.015625 0.14062 0.03125 0.15625 0.10938 0.15625 0.3125v4.1406c0 0.28125 0 0.39062-0.82812 0.39062h-0.3125v0.26562c0.29688-0.03125 1.1562-0.03125 1.5-0.03125s1.2031 0 1.5 0.03125v-0.26562h-0.29688c-0.82812 0-0.82812-0.10938-0.82812-0.39062v-4.1406c0-0.1875 0-0.28125 0.15625-0.3125 0.078125-0.015625 0.3125-0.015625 0.46875-0.015625 1.2188 0 1.3906 0.20312 1.5 1.5469h0.25z"/>
</g>
<g id="q">
<path d="m2.9375-3.1562c-0.23438 0.0625-0.26562 0.25-0.26562 0.34375 0 0.21875 0.15625 0.375 0.375 0.375s0.375-0.14062 0.375-0.39062c0-0.48438-0.53125-0.71875-1.2812-0.71875-1.1094 0-1.8594 0.875-1.8594 1.8281 0 1.0156 0.82812 1.7969 1.8281 1.7969 1.125 0 1.4062-0.9375 1.4062-1.0312s-0.10938-0.09375-0.125-0.09375c-0.0625 0-0.09375 0-0.125 0.078125-0.046875 0.17188-0.28125 0.79688-1.0781 0.79688-0.48438 0-1.2031-0.375-1.2031-1.5625 0-1.1406 0.59375-1.5781 1.1719-1.5781 0.078125 0 0.5 0 0.78125 0.15625z"/>
</g>
<g id="w">
<path d="m2.4062-2.1719 0.67188-0.53125c0.53125-0.42188 0.85938-0.45312 1.0625-0.46875v-0.26562c-0.20312 0.03125-0.3125 0.03125-0.64062 0.03125-0.39062 0-0.5-0.015625-0.84375-0.03125v0.26562c0.15625 0.015625 0.1875 0.10938 0.1875 0.15625 0 0.17188-0.17188 0.3125-0.23438 0.35938l-1.1406 0.92188v-3.7969l-1.1875 0.09375v0.26562c0.54688 0 0.60938 0.046875 0.60938 0.4375v4.1094c0 0.35938-0.10938 0.35938-0.60938 0.35938v0.26562c0.3125-0.03125 0.73438-0.03125 0.875-0.03125 0.15625 0 0.57812 0 0.89062 0.03125v-0.26562c-0.51562 0-0.60938 0-0.60938-0.35938v-0.76562l0.53125-0.4375c0.03125 0 0.23438 0.28125 0.35938 0.4375s0.25 0.32812 0.375 0.48438 0.28125 0.35938 0.28125 0.48438c0 0.14062-0.14062 0.15625-0.25 0.15625v0.26562c0.34375-0.03125 0.70312-0.03125 0.84375-0.03125 0.29688 0 0.46875 0 0.73438 0.03125v-0.26562c-0.32812 0-0.46875-0.03125-0.76562-0.40625z"/>
</g>
<g id="ab">
<path d="m5.2656-2.625c0.0625-0.1875 0.20312-0.53125 0.67188-0.54688v-0.26562c-0.26562 0.03125-0.28125 0.03125-0.625 0.03125-0.25 0-0.46875 0-0.71875-0.03125v0.26562c0.34375 0.015625 0.4375 0.21875 0.4375 0.35938 0 0.10938-0.03125 0.15625-0.046875 0.20312l-0.75 1.9844-0.82812-2.1719c-0.03125-0.10938-0.03125-0.125-0.03125-0.15625 0-0.20312 0.25-0.21875 0.4375-0.21875v-0.26562c-0.3125 0.03125-0.73438 0.03125-0.8125 0.03125-0.17188 0-0.5 0-0.73438-0.03125v0.26562c0.48438 0 0.5 0.046875 0.65625 0.46875l-0.73438 1.9688-0.79688-2.0781c0-0.03125-0.03125-0.10938-0.03125-0.14062 0-0.21875 0.29688-0.21875 0.4375-0.21875v-0.26562c-0.34375 0.03125-0.70312 0.03125-0.84375 0.03125s-0.5625 0-0.78125-0.03125v0.26562c0.39062 0 0.46875 0.03125 0.5625 0.25l1.0625 2.8125c0.046875 0.125 0.078125 0.1875 0.20312 0.1875 0.14062 0 0.17188-0.09375 0.20312-0.1875l0.84375-2.2344 0.84375 2.2344c0.046875 0.09375 0.078125 0.1875 0.21875 0.1875 0.125 0 0.15625-0.078125 0.1875-0.17188z"/>
</g>
<g id="ao">
<path d="m5.6406-1.5781c0-0.3125 0.03125-0.35938 0.59375-0.35938v-0.26562c-0.40625 0.03125-0.625 0.03125-1.0938 0.03125-0.32812 0-0.98438 0-1.2969-0.03125v0.26562h0.28125c0.76562 0 0.78125 0.09375 0.78125 0.39062v0.51562c0 0.15625 0 0.48438-0.42188 0.71875-0.39062 0.21875-0.84375 0.21875-0.9375 0.21875-0.8125 0-2.25-0.5-2.25-2.625 0-2.1719 1.4531-2.625 2.1875-2.625 0.79688 0 1.6875 0.57812 1.8906 1.8906 0.015625 0.078125 0.015625 0.125 0.125 0.125 0.14062 0 0.14062-0.046875 0.14062-0.20312v-1.875c0-0.125 0-0.20312-0.10938-0.20312-0.046875 0-0.0625 0-0.125 0.10938l-0.40625 0.59375c-0.34375-0.375-0.875-0.70312-1.5938-0.70312-1.5938 0-2.9375 1.2812-2.9375 2.8906 0 1.5781 1.3125 2.8906 2.9688 2.8906 0.60938 0 1.2969-0.1875 1.6094-0.65625 0.15625 0.21875 0.42188 0.48438 0.5 0.48438 0.09375 0 0.09375-0.09375 0.09375-0.20312z"/>
</g>
<g id="ai">
<path d="m1.8906-4.7969c0-0.29688 0.015625-0.375 0.65625-0.375h0.1875v-0.26562c-0.64062 0.015625-0.65625 0.015625-1.2188 0.015625-0.54688 0-0.5625 0-1.2031-0.015625v0.26562h0.1875c0.625 0 0.65625 0.078125 0.65625 0.375v4.1562c0 0.29688-0.03125 0.375-0.65625 0.375h-0.1875v0.26562c0.64062-0.03125 0.65625-0.03125 1.2031-0.03125 0.5625 0 0.57812 0 1.2188 0.03125v-0.26562h-0.1875c-0.64062 0-0.65625-0.078125-0.65625-0.375z"/>
</g>
<g id="ah">
<path d="m2.0938 1.2812c-0.51562 0-0.60938 0-0.60938-0.35938v-1.3125c0.375 0.40625 0.78125 0.46875 1.0469 0.46875 1 0 1.8906-0.78125 1.8906-1.7969 0-1-0.8125-1.7969-1.7812-1.7969-0.3125 0-0.76562 0.078125-1.1719 0.5v-0.5l-1.1875 0.09375v0.26562c0.5625 0 0.60938 0.046875 0.60938 0.375v3.7031c0 0.35938-0.10938 0.35938-0.60938 0.35938v0.26562c0.34375-0.03125 0.6875-0.03125 0.90625-0.03125 0.23438 0 0.5625 0 0.90625 0.03125zm-0.60938-3.9375c0.1875-0.3125 0.59375-0.60938 1.0938-0.60938 0.60938 0 1.125 0.67188 1.125 1.5469 0 0.90625-0.57812 1.5781-1.2188 1.5781-0.28125 0-0.64062-0.125-0.90625-0.51562-0.09375-0.14062-0.09375-0.15625-0.09375-0.29688z"/>
</g>
<g id="an">
<path d="m5.6406-5.4062c0-0.125 0-0.20312-0.10938-0.20312-0.0625 0-0.0625 0-0.14062 0.10938l-0.40625 0.59375c-0.28125-0.3125-0.8125-0.70312-1.5781-0.70312-1.5938 0-2.9375 1.2812-2.9375 2.8906s1.3281 2.8906 2.9531 2.8906c1.3281 0 2.2188-1.0625 2.2188-2.0312 0-0.078125 0-0.15625-0.14062-0.15625-0.078125 0-0.10938 0.046875-0.10938 0.125-0.0625 1.2188-1.0625 1.7969-1.9062 1.7969-0.67188 0-2.1875-0.42188-2.1875-2.625 0-2.1562 1.4375-2.625 2.1875-2.625s1.6719 0.53125 1.8906 1.9062c0 0.0625 0.015625 0.10938 0.125 0.10938 0.14062 0 0.14062-0.046875 0.14062-0.20312z"/>
</g>
<g id="aa">
<path d="m1.4844-0.125c0 0.25 0 0.89062-0.59375 1.4688-0.03125 0.015625-0.046875 0.03125-0.046875 0.078125 0 0.078125 0.0625 0.125 0.10938 0.125 0.09375 0 0.76562-0.625 0.76562-1.5781 0-0.4375-0.17188-0.85938-0.54688-0.85938-0.26562 0-0.4375 0.21875-0.4375 0.4375 0 0.25 0.17188 0.45312 0.4375 0.45312 0.1875 0 0.29688-0.09375 0.3125-0.125z"/>
</g>
<g id="am">
<path d="m5.1719-4.5938c0-0.20312 0-0.57812 0.8125-0.57812v-0.26562c-0.35938 0.015625-0.71875 0.015625-0.9375 0.015625s-0.57812 0-0.9375-0.015625v0.26562c0.8125 0 0.8125 0.375 0.8125 0.57812v2.75c0 1.0938-0.8125 1.75-1.625 1.75-0.4375 0-1.4062-0.25-1.4062-1.7031v-3c0-0.29688 0.015625-0.375 0.625-0.375h0.17188v-0.26562c-0.67188 0.015625-0.6875 0.015625-1.1719 0.015625-0.46875 0-0.48438 0-1.1719-0.015625v0.26562h0.1875c0.60938 0 0.625 0.078125 0.625 0.375v2.9688c0 1.1406 0.98438 2 2.125 2 1.0625 0 1.8906-0.89062 1.8906-1.9844z"/>
</g>
<g id="bb">
<path d="m3.4062-3.3125 1.5625-1.375c0.51562-0.46875 0.9375-0.48438 1.125-0.48438v-0.26562c-0.3125 0.015625-0.32812 0.015625-0.73438 0.015625s-0.4375 0-0.95312-0.015625v0.26562c0.15625 0 0.29688 0.078125 0.29688 0.23438 0 0.0625-0.03125 0.17188-0.17188 0.29688l-2.6406 2.3438v-2.5c0-0.29688 0.015625-0.375 0.625-0.375h0.17188v-0.26562c-0.67188 0.015625-0.6875 0.015625-1.1719 0.015625-0.46875 0-0.48438 0-1.1719-0.015625v0.26562h0.1875c0.60938 0 0.625 0.078125 0.625 0.375v4.1562c0 0.29688-0.015625 0.375-0.625 0.375h-0.1875v0.26562c0.6875-0.03125 0.70312-0.03125 1.1719-0.03125 0.48438 0 0.5 0 1.1719 0.03125v-0.26562h-0.17188c-0.60938 0-0.625-0.078125-0.625-0.375v-1.3281l1.0312-0.92188 1.5469 2.1406c0.078125 0.09375 0.125 0.17188 0.125 0.26562 0 0.21875-0.28125 0.21875-0.42188 0.21875v0.26562c0.6875-0.03125 0.70312-0.03125 1.0938-0.03125 0.21875 0 0.65625 0 0.9375 0.03125v-0.26562c-0.28125 0-0.54688 0-0.78125-0.3125z"/>
</g>
<g id="ba">
<path d="m5.1719-4.7969c0-0.29688 0.03125-0.375 0.64062-0.375h0.17188v-0.26562c-0.67188 0.015625-0.6875 0.015625-1.1719 0.015625s-0.5 0-1.1719-0.015625v0.26562h0.17188c0.625 0 0.64062 0.078125 0.64062 0.375v1.8281h-2.5625v-1.8281c0-0.29688 0.015625-0.375 0.625-0.375h0.17188v-0.26562c-0.67188 0.015625-0.6875 0.015625-1.1719 0.015625-0.46875 0-0.48438 0-1.1719-0.015625v0.26562h0.1875c0.60938 0 0.625 0.078125 0.625 0.375v4.1562c0 0.29688-0.015625 0.375-0.625 0.375h-0.1875v0.26562c0.6875-0.03125 0.70312-0.03125 1.1719-0.03125 0.48438 0 0.5 0 1.1719 0.03125v-0.26562h-0.17188c-0.60938 0-0.625-0.078125-0.625-0.375v-2.0625h2.5625v2.0625c0 0.29688-0.015625 0.375-0.64062 0.375h-0.17188v0.26562c0.67188-0.03125 0.6875-0.03125 1.1719-0.03125s0.5 0 1.1719 0.03125v-0.26562h-0.17188c-0.60938 0-0.64062-0.078125-0.64062-0.375z"/>
</g>
<g id="az">
<path d="m3.2812-4.8281c0-0.34375 0.09375-0.34375 0.60938-0.34375v-0.26562c-0.40625 0.015625-0.625 0.015625-1.0781 0.015625-0.34375 0-0.95312 0-1.2812-0.015625v0.26562h0.26562c0.75 0 0.78125 0.09375 0.78125 0.375v3.6094c0 0.73438-0.4375 1.125-0.85938 1.125-0.34375 0-0.70312-0.15625-0.89062-0.40625 0.21875 0 0.46875-0.14062 0.46875-0.4375 0-0.28125-0.21875-0.4375-0.4375-0.4375-0.17188 0-0.4375 0.10938-0.4375 0.45312 0 0.59375 0.57812 1.0625 1.3281 1.0625 0.73438 0 1.5312-0.48438 1.5312-1.3594z"/>
</g>
<g id="ay">
<path d="m4.625-5.125c0.0625-0.10938 0.0625-0.14062 0.0625-0.17188 0-0.14062-0.078125-0.14062-0.21875-0.14062h-3.7812l-0.09375 1.7969h0.25c0.0625-1.1719 0.60938-1.5312 1.6562-1.5312h1.3281l-3.2969 4.8438c-0.0625 0.09375-0.0625 0.14062-0.0625 0.17188 0 0.15625 0.078125 0.15625 0.21875 0.15625h3.9062l0.14062-2.1406h-0.23438c-0.0625 1.1094-0.25 1.8594-1.75 1.8594h-1.4062z"/>
</g>
<g id="ax">
<path d="m3.5312-2.6094c0.1875-0.45312 0.46875-0.54688 0.75-0.5625v-0.26562c-0.26562 0.03125-0.28125 0.03125-0.60938 0.03125-0.078125 0-0.45312 0-0.70312-0.03125v0.26562c0.28125 0.015625 0.35938 0.1875 0.35938 0.32812 0 0.078125-0.015625 0.125-0.046875 0.1875l-0.85938 2.0156-0.95312-2.1719c-0.046875-0.09375-0.046875-0.14062-0.046875-0.15625 0-0.20312 0.29688-0.20312 0.42188-0.20312v-0.26562c-0.34375 0.03125-0.71875 0.03125-0.85938 0.03125-0.17188 0-0.54688 0-0.8125-0.03125v0.26562c0.48438 0 0.53125 0.046875 0.65625 0.3125l1.1875 2.7656c0.0625 0.125 0.10938 0.17188 0.21875 0.17188s0.17188-0.0625 0.20312-0.15625z"/>
</g>
<g id="aw">
<path d="m2.0312-5.4844c0-0.29688 0.015625-0.35938 0.4375-0.35938h1.1719c0.875 0 1.25 0.70312 1.25 1.2344 0 0.6875-0.60938 1.3125-1.4531 1.3125h-1.4062zm2.2031 2.2812c0.89062-0.17188 1.5156-0.75 1.5156-1.4062 0-0.79688-0.85938-1.5156-2.0469-1.5156h-3.3281v0.28125h0.20312c0.6875 0 0.70312 0.09375 0.70312 0.42188v4.7188c0 0.32812-0.015625 0.42188-0.70312 0.42188h-0.20312v0.28125h3.5781c1.2188 0 2.0625-0.79688 2.0625-1.625 0-0.8125-0.78125-1.4688-1.7812-1.5781zm-1.7656 2.9219c-0.42188 0-0.4375-0.0625-0.4375-0.35938v-2.4375h1.7031c1.0312 0 1.3906 0.875 1.3906 1.4219 0 0.70312-0.54688 1.375-1.4688 1.375z"/>
</g>
<g id="af">
<path d="m3.5938-2.0469c0.1875 0 0.23438 0 0.23438-0.20312 0-0.92188-0.5-1.7656-1.6562-1.7656-1.0625 0-1.9062 0.9375-1.9062 2.0469 0 1.1719 0.9375 2.0625 2.0312 2.0625s1.5312-0.95312 1.5312-1.1562c0-0.0625-0.046875-0.125-0.125-0.125-0.09375 0-0.10938 0.0625-0.125 0.10938-0.29688 0.90625-1.1094 0.92188-1.2344 0.92188-0.4375 0-0.79688-0.23438-1-0.54688-0.29688-0.4375-0.3125-0.96875-0.3125-1.3438zm-2.5469-0.21875c0.078125-1.3906 0.875-1.5312 1.125-1.5312 0.5 0 1.0312 0.375 1.0469 1.5312z"/>
</g>
<g id="at">
<path d="m1.6719-2.3281c0-0.95312 0.67188-1.4062 1.2344-1.4062 0.53125 0 0.64062 0.4375 0.64062 0.96875v2.0781c0 0.40625-0.09375 0.40625-0.6875 0.40625v0.28125c0.42188-0.015625 0.59375-0.03125 1.0312-0.03125 0.42188 0 0.54688 0.015625 1.0156 0.03125v-0.28125c-0.45312 0-0.6875 0-0.6875-0.28125v-1.7188c0-0.73438 0-1-0.25-1.3125-0.20312-0.25-0.54688-0.375-1-0.375-0.82812 0-1.2188 0.625-1.3438 0.875h-0.015625v-0.875l-1.2969 0.10938v0.26562c0.60938 0 0.6875 0.0625 0.6875 0.51562v2.3906c0 0.40625-0.09375 0.40625-0.6875 0.40625v0.28125c0.42188-0.015625 0.59375-0.03125 1.0312-0.03125 0.42188 0 0.54688 0.015625 1.0156 0.03125v-0.28125c-0.59375 0-0.6875 0-0.6875-0.40625z"/>
</g>
<g id="ae">
<path d="m3.5469-1.5c0 0.79688-0.4375 1.375-1.0938 1.375-0.73438 0-0.78125-0.39062-0.78125-0.875v-2.9688l-1.3594 0.10938v0.26562c0.6875 0 0.6875 0.03125 0.6875 0.82812v1.3438c0 0.59375 0 0.96875 0.42188 1.2812 0.25 0.17188 0.625 0.23438 0.98438 0.23438 0.46875 0 0.90625-0.20312 1.1562-0.73438h0.015625v0.73438l1.3281-0.09375v-0.28125c-0.60938 0-0.6875-0.0625-0.6875-0.5v-3.1875l-1.3594 0.10938v0.26562c0.60938 0 0.6875 0.0625 0.6875 0.51562z"/>
</g>
<g id="ak">
<path d="m2.9219-3.5938v-0.26562h-1.3125v-1.6562h-0.25c0 0.75-0.3125 1.6719-1.1875 1.7031v0.21875h0.78125v2.4844c0 1 0.71875 1.2031 1.2031 1.2031 0.59375 0 0.90625-0.5625 0.90625-1.2031v-0.51562h-0.25v0.48438c0 0.67188-0.28125 0.98438-0.59375 0.98438-0.60938 0-0.60938-0.78125-0.60938-0.95312v-2.4844z"/>
</g>
<g id="as">
<path d="m3.5938-3.5781c0.078125-0.09375 0.078125-0.10938 0.078125-0.15625 0-0.125-0.078125-0.125-0.23438-0.125h-2.9531l-0.09375 1.4688h0.25c0.046875-0.92188 0.21875-1.25 1.2188-1.25h1.0156l-2.5312 3.3281c-0.078125 0.10938-0.078125 0.125-0.078125 0.17188 0 0.14062 0.078125 0.14062 0.23438 0.14062h3.0469l0.15625-1.7031h-0.25c-0.09375 1-0.20312 1.4531-1.3281 1.4531h-1.0469z"/>
</g>
<g id="ar">
<path d="m1.5938-2.0469c0-0.375 0.09375-1.6875 1.125-1.6875-0.015625 0.015625-0.15625 0.125-0.15625 0.32812 0 0.25 0.1875 0.40625 0.39062 0.40625 0.1875 0 0.39062-0.14062 0.39062-0.40625 0-0.28125-0.26562-0.5625-0.67188-0.5625-0.53125 0-0.90625 0.375-1.125 0.9375v-0.9375l-1.2812 0.10938v0.26562c0.60938 0 0.6875 0.0625 0.6875 0.51562v2.3906c0 0.40625-0.09375 0.40625-0.6875 0.40625v0.28125c0.48438-0.015625 0.59375-0.03125 1.0469-0.03125 0.35938 0 0.57812 0.015625 1.1406 0.03125v-0.28125h-0.17188c-0.65625 0-0.6875-0.09375-0.6875-0.42188z"/>
</g>
<g id="ad">
<path d="m1.6719-2.3281c0-0.96875 0.70312-1.4062 1.2344-1.4062 0.5 0 0.65625 0.34375 0.65625 0.96875v2.0781c0 0.40625-0.09375 0.40625-0.6875 0.40625v0.28125c0.42188-0.015625 0.59375-0.03125 1.0156-0.03125 0.4375 0 0.54688 0.015625 1.0312 0.03125v-0.28125c-0.59375 0-0.70312 0-0.70312-0.40625v-1.6406c0-0.96875 0.70312-1.4062 1.25-1.4062 0.48438 0 0.64062 0.34375 0.64062 0.96875v2.0781c0 0.40625-0.09375 0.40625-0.6875 0.40625v0.28125c0.42188-0.015625 0.59375-0.03125 1.0312-0.03125 0.42188 0 0.54688 0.015625 1.0156 0.03125v-0.28125c-0.45312 0-0.67188 0-0.6875-0.28125v-1.7188c0-0.78125 0-1.0312-0.29688-1.3594-0.1875-0.21875-0.54688-0.32812-0.95312-0.32812-0.65625 0-1.0938 0.375-1.3438 0.85938-0.10938-0.53125-0.46875-0.85938-1.2188-0.85938-0.71875 0-1.1562 0.46875-1.3438 0.89062h-0.015625v-0.89062l-1.2969 0.10938v0.26562c0.60938 0 0.6875 0.0625 0.6875 0.51562v2.3906c0 0.40625-0.09375 0.40625-0.6875 0.40625v0.28125c0.42188-0.015625 0.59375-0.03125 1.0312-0.03125 0.42188 0 0.54688 0.015625 1.0156 0.03125v-0.28125c-0.59375 0-0.6875 0-0.6875-0.40625z"/>
</g>
<g id="aj">
<path d="m4.3438-1.9062c0-1.1719-0.9375-2.1094-2.0312-2.1094-1.1406 0-2.0469 0.95312-2.0469 2.1094 0 1.1094 0.92188 2 2.0312 2 1.1406 0 2.0469-0.90625 2.0469-2zm-2.0312 1.75c-0.45312 0-0.82812-0.21875-1.0312-0.5625-0.23438-0.39062-0.25-0.85938-0.25-1.2656 0-0.34375 0-0.84375 0.21875-1.2188 0.28125-0.45312 0.71875-0.59375 1.0469-0.59375 0.51562 0 0.875 0.29688 1.0625 0.59375 0.20312 0.375 0.20312 0.82812 0.20312 1.2188 0 0.32812 0 0.84375-0.21875 1.2344-0.25 0.42188-0.65625 0.59375-1.0312 0.59375z"/>
</g>
<g id="al">
<path d="m3.4844-1.0781c0 0.15625 0 0.1875-0.125 0.375-0.28125 0.40625-0.70312 0.57812-1.0469 0.57812-0.39062 0-0.75-0.21875-0.98438-0.59375-0.23438-0.39062-0.25-0.90625-0.25-1.2031 0-0.42188 0.046875-0.89062 0.28125-1.25 0.20312-0.29688 0.5625-0.5625 1.0469-0.5625 0.375 0 0.73438 0.1875 0.96875 0.53125 0.10938 0.14062 0.10938 0.14062 0.10938 0.3125zm0.03125-2.3594c-0.046875-0.046875-0.45312-0.53125-1.1406-0.53125-1.1094 0-2.0625 0.89062-2.0625 2.0469 0 1.1094 0.89062 2.0156 1.9531 2.0156 0.65625 0 1.0625-0.375 1.2188-0.5625v0.5625l1.3594-0.09375v-0.28125c-0.60938 0-0.6875-0.0625-0.6875-0.5v-5.4375l-1.3281 0.09375v0.28125c0.60938 0 0.6875 0.0625 0.6875 0.5z"/>
</g>
<g id="ag">
<path d="m3.0781-3.7812c0-0.15625 0-0.23438-0.09375-0.23438-0.046875 0-0.0625 0-0.1875 0.10938-0.015625 0.015625-0.09375 0.09375-0.15625 0.14062-0.26562-0.20312-0.54688-0.25-0.85938-0.25-1.1875 0-1.4688 0.65625-1.4688 1.1094 0 0.28125 0.125 0.51562 0.32812 0.71875 0.29688 0.28125 0.64062 0.34375 1.0938 0.42188 0.46875 0.09375 0.60938 0.10938 0.8125 0.26562 0.09375 0.078125 0.3125 0.25 0.3125 0.57812 0 0.79688-0.90625 0.79688-1.0312 0.79688-0.90625 0-1.1406-0.76562-1.25-1.25-0.03125-0.09375-0.046875-0.14062-0.14062-0.14062-0.125 0-0.125 0.078125-0.125 0.23438v1.1406c0 0.15625 0 0.23438 0.09375 0.23438 0.0625 0 0.0625 0 0.23438-0.17188 0.03125-0.0625 0.125-0.17188 0.17188-0.21875 0.375 0.375 0.79688 0.39062 1.0156 0.39062 1.1094 0 1.4844-0.64062 1.4844-1.2344 0-0.40625-0.17188-0.65625-0.375-0.85938-0.29688-0.29688-0.625-0.35938-1.2812-0.48438-0.23438-0.046875-0.89062-0.15625-0.89062-0.67188 0-0.28125 0.20312-0.67188 1.0156-0.67188 0.96875 0 1.0312 0.75 1.0469 0.96875 0.015625 0.10938 0.015625 0.17188 0.125 0.17188 0.125 0 0.125-0.0625 0.125-0.23438z"/>
</g>
<g id="av">
<path d="m2.0312-3.75c-0.71875-0.17188-0.95312-0.75-0.95312-1.1406 0-0.60938 0.48438-1.1875 1.25-1.1875 1.1562 0 1.625 0.875 1.75 1.7656 0.015625 0.17188 0.03125 0.21875 0.14062 0.21875 0.125 0 0.125-0.0625 0.125-0.25v-1.7344c0-0.17188 0-0.25-0.10938-0.25-0.0625 0-0.078125 0.015625-0.14062 0.125-0.10938 0.15625-0.015625 0.046875-0.3125 0.51562-0.15625-0.1875-0.625-0.64062-1.4688-0.64062-1.0469 0-1.7969 0.82812-1.7969 1.7344 0 0.70312 0.42188 1.125 0.46875 1.1719 0.39062 0.40625 0.5625 0.4375 1.625 0.70312 0.73438 0.15625 0.8125 0.1875 1.1094 0.48438 0 0.015625 0.3125 0.34375 0.3125 0.875 0 0.60938-0.4375 1.2812-1.2656 1.2812-0.6875 0-1.9375-0.29688-2-1.7656-0.015625-0.14062-0.015625-0.1875-0.125-0.1875-0.125 0-0.125 0.0625-0.125 0.25v1.7344c0 0.17188 0 0.25 0.10938 0.25 0.0625 0 0.0625-0.015625 0.125-0.125 0.125-0.15625 0.03125-0.046875 0.32812-0.51562 0.54688 0.54688 1.2656 0.64062 1.7031 0.64062 1.0938 0 1.8125-0.90625 1.8125-1.8594 0-0.51562-0.1875-0.90625-0.39062-1.1719-0.39062-0.5-0.79688-0.59375-1.375-0.73438z"/>
</g>
<g id="au">
<path d="m1.625-3.1719c-0.046875-0.125-0.046875-0.17188-0.046875-0.1875 0-0.23438 0.3125-0.23438 0.5-0.23438v-0.26562c-0.45312 0.015625-0.625 0.015625-1 0.015625-0.03125 0-0.54688 0-0.89062-0.015625v0.26562c0.40625 0 0.57812 0.03125 0.6875 0.26562l1.4062 3.3281-0.21875 0.53125c-0.20312 0.46875-0.45312 1.0781-1.0469 1.0781-0.21875 0-0.375-0.10938-0.39062-0.125 0.0625-0.015625 0.3125-0.078125 0.3125-0.39062 0-0.23438-0.17188-0.375-0.375-0.375-0.21875 0-0.39062 0.14062-0.39062 0.39062 0 0.39062 0.39062 0.73438 0.84375 0.73438 0.59375 0 0.96875-0.53125 1.1875-1.0156l1.625-3.7969c0.09375-0.23438 0.26562-0.59375 0.82812-0.625v-0.26562c-0.28125 0.015625-0.5625 0.015625-0.67188 0.015625-0.25 0-0.53125 0-0.78125-0.015625v0.26562c0.40625 0.03125 0.40625 0.34375 0.40625 0.39062 0 0.09375-0.03125 0.1875-0.0625 0.25l-0.90625 2.1406z"/>
</g>
<clipPath id="cb">
<path d="m149 71h107v1h-107z"/>
</clipPath>
<clipPath id="ca">
<path d="m-0.47266 334.12h364v-334h-364zm256.38-262.81v0.44141l-5.2578 1.668 0.94531-1.8906-0.94531-1.8867z" clip-rule="evenodd"/>
</clipPath>
<clipPath id="bp">
<path d="m255 0.125h86v36.875h-86z"/>
</clipPath>
<clipPath id="bm">
<path d="m298 35h1v30h-1z"/>
</clipPath>
<clipPath id="bl">
<path d="m-0.47266 334.12h364v-334h-364zm298.47-298.25h0.44141l1.668 5.2617-1.8906-0.94531-1.8906 0.94531z" clip-rule="evenodd"/>
</clipPath>
<clipPath id="bk">
<path d="m298 99h1v72h-1z"/>
</clipPath>
<clipPath id="bj">
<path d="m-0.47266 334.12h364v-334h-364zm298.47-234.46h0.44141l1.668 5.2617-1.8906-0.94531-1.8906 0.94531z" clip-rule="evenodd"/>
</clipPath>
<clipPath id="bi">
<path d="m113 35h2v23h-2z"/>
</clipPath>
<clipPath id="bh">
<path d="m-0.47266 334.12h364v-334h-364zm114.63-276.54h-0.44141l-1.668-5.2617 1.8906 0.94531 1.8867-0.94531z" clip-rule="evenodd"/>
</clipPath>
<clipPath id="bg">
<path d="m113 85h2v23h-2z"/>
</clipPath>
<clipPath id="bz">
<path d="m-0.47266 334.12h364v-334h-364zm114.63-226.93h-0.44141l-1.668-5.2617 1.8906 0.94531 1.8867-0.94531z" clip-rule="evenodd"/>
</clipPath>
<clipPath id="by">
<path d="m113 142h2v29h-2z"/>
</clipPath>
<clipPath id="bx">
<path d="m-0.47266 334.12h364v-334h-364zm114.63-163.14h-0.44141l-1.668-5.2578 1.8906 0.94531 1.8867-0.94531z" clip-rule="evenodd"/>
</clipPath>
<clipPath id="bw">
<path d="m298 213h1v22h-1z"/>
</clipPath>
<clipPath id="bv">
<path d="m-0.47266 334.12h364v-334h-364zm298.47-121.06h0.44141l1.668 5.2578-1.8906-0.94141-1.8906 0.94141z" clip-rule="evenodd"/>
</clipPath>
<clipPath id="bu">
<path d="m113 213h2v86h-2z"/>
</clipPath>
<clipPath id="bt">
<path d="m-0.47266 334.12h364v-334h-364zm114.63-35.566h-0.44141l-1.668-5.2617 1.8906 0.94531 1.8867-0.94531z" clip-rule="evenodd"/>
</clipPath>
<clipPath id="bs">
<path d="m298 276h1v23h-1z"/>
</clipPath>
<clipPath id="br">
<path d="m-0.47266 334.12h364v-334h-364zm298.47-57.273h0.44141l1.668 5.2617-1.8906-0.94531-1.8906 0.94531z" clip-rule="evenodd"/>
</clipPath>
<clipPath id="bq">
<path d="m156 319h100v1h-100z"/>
</clipPath>
<clipPath id="bo">
<path d="m-0.47266 334.12h364v-334h-364zm256.38-14.746v0.44141l-5.2578 1.668 0.94531-1.8906-0.94531-1.8867z" clip-rule="evenodd"/>
</clipPath>
<clipPath id="bn">
<path d="m71 0.125h86v36.875h-86z"/>
</clipPath>
</defs>
<g clip-path="url(#cb)">
<g clip-path="url(#ca)">
<path transform="matrix(.1 0 0 -.1 -.472 334.12)" d="m1498.5 2625.9h1063.1" fill="none" stroke="#000" stroke-miterlimit="10" stroke-width="2.3625"/>
</g>
</g>
<path d="m250.65 73.426 4.7227-1.8906-4.7227-1.8867 0.94531 1.8867-0.94531 1.8906" fill-rule="evenodd"/>
<path transform="matrix(.1 0 0 -.1 -.472 334.12)" d="m2511.2 2607 47.227 18.906-47.227 18.867 9.4531-18.867z" fill="none" stroke="#000" stroke-miterlimit="10" stroke-width="2.3625"/>
<g clip-path="url(#bp)">
<path transform="matrix(.1 0 0 -.1 -.472 334.12)" d="m2561.6 2980.3h850.51v354.38h-850.51z" fill="none" stroke="#000" stroke-miterlimit="10" stroke-width="2.3625"/>
</g>
<g clip-path="url(#bm)">
<g clip-path="url(#bl)">
<path transform="matrix(.1 0 0 -.1 -.472 334.12)" d="m2986.9 2696.7v283.52" fill="none" stroke="#000" stroke-miterlimit="10" stroke-width="2.3625"/>
</g>
</g>
<path d="m300.11 41.141-1.8906-4.7266-1.8906 4.7266 1.8906-0.94531 1.8906 0.94531" fill-rule="evenodd"/>
<path transform="matrix(.1 0 0 -.1 -.472 334.12)" d="m3005.8 2929.8-18.906 47.266-18.906-47.266 18.906 9.4531z" fill="none" stroke="#000" stroke-miterlimit="10" stroke-width="2.3625"/>
<path transform="matrix(.1 0 0 -.1 -.472 334.12)" d="m2561.6 2342.4h850.51v354.38h-850.51z" fill="none" stroke="#000" stroke-miterlimit="10" stroke-width="2.3625"/>
<g clip-path="url(#bk)">
<g clip-path="url(#bj)">
<path transform="matrix(.1 0 0 -.1 -.472 334.12)" d="m2986.9 1633.6v708.75" fill="none" stroke="#000" stroke-miterlimit="10" stroke-width="2.3625"/>
</g>
</g>
<path d="m300.11 104.93-1.8906-4.7266-1.8906 4.7266 1.8906-0.94531 1.8906 0.94531" fill-rule="evenodd"/>
<path transform="matrix(.1 0 0 -.1 -.472 334.12)" d="m3005.8 2292-18.906 47.266-18.906-47.266 18.906 9.4531z" fill="none" stroke="#000" stroke-miterlimit="10" stroke-width="2.3625"/>
<path transform="matrix(.1 0 0 -.1 -.472 334.12)" d="m10.111 2909.4h3614.6" fill="none" stroke="#000" stroke-miterlimit="10" stroke-width="9.45"/>
<g clip-path="url(#bi)">
<g clip-path="url(#bh)">
<path transform="matrix(.1 0 0 -.1 -.472 334.12)" d="m1144.1 2980.3v-212.62" fill="none" stroke="#000" stroke-miterlimit="10" stroke-width="2.3625"/>
</g>
</g>
<path d="m112.05 52.32 1.8906 4.7266 1.8867-4.7266-1.8867 0.94531-1.8906-0.94531" fill-rule="evenodd"/>
<path transform="matrix(.1 0 0 -.1 -.472 334.12)" d="m1125.2 2818 18.906-47.266 18.867 47.266-18.867-9.4531z" fill="none" stroke="#000" stroke-miterlimit="10" stroke-width="2.3625"/>
<path transform="matrix(.1 0 0 -.1 -.472 334.12)" d="m1144.1 2767.6-354.38-141.76 354.38-141.76 354.38 141.76z" fill="none" stroke="#000" stroke-miterlimit="10" stroke-width="2.3625"/>
<g clip-path="url(#bg)">
<g clip-path="url(#bz)">
<path transform="matrix(.1 0 0 -.1 -.472 334.12)" d="m1144.1 2484.1v-212.62" fill="none" stroke="#000" stroke-miterlimit="10" stroke-width="2.3625"/>
</g>
</g>
<path d="m112.05 101.93 1.8906 4.7266 1.8867-4.7266-1.8867 0.94531-1.8906-0.94531" fill-rule="evenodd"/>
<path transform="matrix(.1 0 0 -.1 -.472 334.12)" d="m1125.2 2321.9 18.906-47.266 18.867 47.266-18.867-9.4531z" fill="none" stroke="#000" stroke-miterlimit="10" stroke-width="2.3625"/>
<g clip-path="url(#by)">
<g clip-path="url(#bx)">
<path transform="matrix(.1 0 0 -.1 -.472 334.12)" d="m1144.1 1917.1v-283.52" fill="none" stroke="#000" stroke-miterlimit="10" stroke-width="2.3625"/>
</g>
</g>
<path d="m112.05 165.72 1.8906 4.7227 1.8867-4.7227-1.8867 0.94531-1.8906-0.94531" fill-rule="evenodd"/>
<path transform="matrix(.1 0 0 -.1 -.472 334.12)" d="m1125.2 1684 18.906-47.227 18.867 47.227-18.867-9.4531z" fill="none" stroke="#000" stroke-miterlimit="10" stroke-width="2.3625"/>
<path transform="matrix(.1 0 0 -.1 -.472 334.12)" d="m718.86 1917.1h850.51v354.38h-850.51z" fill="none" stroke="#000" stroke-miterlimit="10" stroke-width="2.3625"/>
<path transform="matrix(.1 0 0 -.1 -.472 334.12)" d="m2561.6 570.5h850.51v425.23h-850.51z" fill="none" stroke="#000" stroke-miterlimit="10" stroke-width="2.3625"/>
<g clip-path="url(#bw)">
<g clip-path="url(#bv)">
<path transform="matrix(.1 0 0 -.1 -.472 334.12)" d="m2986.9 995.73v212.66" fill="none" stroke="#000" stroke-miterlimit="10" stroke-width="2.3625"/>
</g>
</g>
<path d="m300.11 218.32-1.8906-4.7227-1.8906 4.7227 1.8906-0.94141 1.8906 0.94141" fill-rule="evenodd"/>
<path transform="matrix(.1 0 0 -.1 -.472 334.12)" d="m3005.8 1158-18.906 47.227-18.906-47.227 18.906 9.4141z" fill="none" stroke="#000" stroke-miterlimit="10" stroke-width="2.3625"/>
<g clip-path="url(#bu)">
<g clip-path="url(#bt)">
<path transform="matrix(.1 0 0 -.1 -.472 334.12)" d="m1144.1 1208.4v-850.51" fill="none" stroke="#000" stroke-miterlimit="10" stroke-width="2.3625"/>
</g>
</g>
<path d="m112.05 293.3 1.8906 4.7266 1.8867-4.7266-1.8867 0.94531-1.8906-0.94531" fill-rule="evenodd"/>
<path transform="matrix(.1 0 0 -.1 -.472 334.12)" d="m1125.2 408.27 18.906-47.266 18.867 47.266-18.867-9.4531z" fill="none" stroke="#000" stroke-miterlimit="10" stroke-width="2.3625"/>
<g clip-path="url(#bs)">
<g clip-path="url(#br)">
<path transform="matrix(.1 0 0 -.1 -.472 334.12)" d="m2986.9 357.88v212.62" fill="none" stroke="#000" stroke-miterlimit="10" stroke-width="2.3625"/>
</g>
</g>
<path d="m300.11 282.11-1.8906-4.7227-1.8906 4.7227 1.8906-0.94531 1.8906 0.94531" fill-rule="evenodd"/>
<path transform="matrix(.1 0 0 -.1 -.472 334.12)" d="m3005.8 520.11-18.906 47.227-18.906-47.227 18.906 9.4531z" fill="none" stroke="#000" stroke-miterlimit="10" stroke-width="2.3625"/>
<path transform="matrix(.1 0 0 -.1 -.472 334.12)" d="m2561.6 3.5056h850.51v354.38h-850.51z" fill="none" stroke="#000" stroke-miterlimit="10" stroke-width="2.3625"/>
<g clip-path="url(#bq)">
<g clip-path="url(#bo)">
<path transform="matrix(.1 0 0 -.1 -.472 334.12)" d="m1569.4 145.26h992.27" fill="none" stroke="#000" stroke-miterlimit="10" stroke-width="2.3625"/>
</g>
</g>
<path d="m250.65 321.49 4.7227-1.8906-4.7227-1.8867 0.94531 1.8867-0.94531 1.8906" fill-rule="evenodd"/>
<path transform="matrix(.1 0 0 -.1 -.472 334.12)" d="m2511.2 126.36 47.227 18.906-47.227 18.867 9.4531-18.867z" fill="none" stroke="#000" stroke-miterlimit="10" stroke-width="2.3625"/>
<path transform="matrix(.1 0 0 -.1 -.472 334.12)" d="m718.86 3.5056h850.51v354.38h-850.51z" fill="none" stroke="#000" stroke-miterlimit="10" stroke-width="2.3625"/>
<path transform="matrix(.1 0 0 -.1 -.472 334.12)" d="m2561.6 1208.4h850.51v425.23h-850.51z" fill="none" stroke="#000" stroke-miterlimit="10" stroke-width="2.3625"/>
<path transform="matrix(.1 0 0 -.1 -.472 334.12)" d="m718.86 1208.4h850.51v425.23h-850.51z" fill="none" stroke="#000" stroke-miterlimit="10" stroke-width="2.3625"/>
<g clip-path="url(#bn)">
<path transform="matrix(.1 0 0 -.1 -.472 334.12)" d="m718.86 2980.3h850.51v354.38h-850.51z" fill="none" stroke="#000" stroke-miterlimit="10" stroke-width="2.3625"/>
</g>
<g>
<use x="79.026" y="319.572" xlink:href="#z"/>
<use x="84.785194" y="319.572" xlink:href="#b"/>
<use x="88.321" y="319.941" xlink:href="#l"/>
<use x="88.085" y="319.572" xlink:href="#f"/>
<use x="92.78975" y="319.572" xlink:href="#m"/>
<use x="95.377641" y="319.572" xlink:href="#f"/>
<use x="100.082392" y="319.572" xlink:href="#d"/>
<use x="104.787142" y="319.572" xlink:href="#g"/>
<use x="111.843071" y="319.572" xlink:href="#k"/>
<use x="116.547821" y="319.572" xlink:href="#a"/>
<use x="120.311302" y="319.572" xlink:href="#b"/>
<use x="126.433136" y="319.572" xlink:href="#ac"/>
<use x="132.897684" y="319.572" xlink:href="#e"/>
<use x="137.132198" y="319.572" xlink:href="#c"/>
<use x="140.425444" y="319.572" xlink:href="#a"/>
<use x="144.188925" y="319.572" xlink:href="#d"/>
<use x="81.091" y="20.498" xlink:href="#v"/>
<use x="86.850194" y="20.498" xlink:href="#u"/>
<use x="91.084708" y="20.498" xlink:href="#s"/>
<use x="97.427314" y="20.498" xlink:href="#t"/>
<use x="100.250323" y="20.498" xlink:href="#s"/>
<use x="106.592929" y="20.498" xlink:href="#d"/>
<use x="111.297679" y="20.498" xlink:href="#m"/>
<use x="113.88557" y="20.498" xlink:href="#i"/>
<use x="118.120085" y="20.498" xlink:href="#b"/>
<use x="121.420503" y="20.498" xlink:href="#k"/>
<use x="126.125253" y="20.498" xlink:href="#a"/>
<use x="129.888734" y="20.498" xlink:href="#b"/>
<use x="133.189153" y="20.498" xlink:href="#f"/>
<use x="137.893903" y="20.498" xlink:href="#d"/>
<use x="142.598653" y="20.498" xlink:href="#g"/>
<use x="274.179425" y="20.498" xlink:href="#v"/>
<use x="279.938619" y="20.498" xlink:href="#u"/>
<use x="284.173133" y="20.498" xlink:href="#s"/>
<use x="290.515739" y="20.498" xlink:href="#t"/>
<use x="293.338748" y="20.498" xlink:href="#j"/>
<use x="298.274631" y="20.498" xlink:href="#a"/>
<use x="302.038112" y="20.498" xlink:href="#a"/>
<use x="305.801593" y="20.498" xlink:href="#d"/>
<use x="310.506343" y="20.498" xlink:href="#k"/>
<use x="315.211093" y="20.498" xlink:href="#a"/>
<use x="318.974575" y="20.498" xlink:href="#c"/>
<use x="263.35" y="73.311" xlink:href="#l"/>
<use x="263.115" y="72.942" xlink:href="#f"/>
<use x="267.81975" y="72.942" xlink:href="#j"/>
<use x="272.755633" y="72.942" xlink:href="#a"/>
<use x="276.527084" y="72.942" xlink:href="#b"/>
<use x="279.819533" y="72.942" xlink:href="#g"/>
<use x="284.054047" y="72.942" xlink:href="#h"/>
<use x="286.406023" y="72.942" xlink:href="#j"/>
<use x="291.110773" y="72.942" xlink:href="#c"/>
<use x="297.233404" y="72.942" xlink:href="#k"/>
<use x="301.938154" y="72.942" xlink:href="#h"/>
<use x="304.290131" y="72.942" xlink:href="#a"/>
<use x="310.875027" y="72.942" xlink:href="#ac"/>
<use x="317.339575" y="72.942" xlink:href="#e"/>
<use x="321.574089" y="72.942" xlink:href="#c"/>
<use x="324.867335" y="72.942" xlink:href="#a"/>
<use x="328.630816" y="72.942" xlink:href="#d"/>
<use x="263.562" y="90.896" xlink:href="#bf"/>
<use x="268.376737" y="90.896" xlink:href="#a"/>
<use x="272.140219" y="90.896" xlink:href="#r"/>
<use x="276.844969" y="90.896" xlink:href="#p"/>
<use x="279.196945" y="90.896" xlink:href="#a"/>
<use x="282.968396" y="90.896" xlink:href="#b"/>
<use x="286.260845" y="90.896" xlink:href="#o"/>
<use x="293.325541" y="90.896" xlink:href="#a"/>
<use x="297.089023" y="90.896" xlink:href="#p"/>
<use x="299.440999" y="90.896" xlink:href="#k"/>
<use x="304.145749" y="90.896" xlink:href="#f"/>
<use x="308.850499" y="90.896" xlink:href="#d"/>
<use x="313.555249" y="90.896" xlink:href="#g"/>
<use x="320.611179" y="90.896" xlink:href="#e"/>
<use x="324.845693" y="90.896" xlink:href="#f"/>
<use x="329.550443" y="90.896" xlink:href="#n"/>
<use x="260.359" y="81.919" xlink:href="#e"/>
<use x="264.593514" y="81.919" xlink:href="#d"/>
<use x="272.11968" y="81.919" xlink:href="#z"/>
<use x="277.878874" y="81.919" xlink:href="#b"/>
<use x="281.179292" y="81.919" xlink:href="#i"/>
<use x="285.413806" y="81.919" xlink:href="#y"/>
<use x="289.177288" y="81.919" xlink:href="#a"/>
<use x="292.940769" y="81.919" xlink:href="#n"/>
<use x="296.281038" y="81.919" xlink:href="#n"/>
<use x="302.442722" y="81.919" xlink:href="#i"/>
<use x="306.916339" y="81.919" xlink:href="#k"/>
<use x="311.621089" y="81.919" xlink:href="#a"/>
<use x="315.38457" y="81.919" xlink:href="#b"/>
<use x="321.506404" y="81.919" xlink:href="#g"/>
<use x="325.740918" y="81.919" xlink:href="#h"/>
<use x="328.092895" y="81.919" xlink:href="#j"/>
<use x="332.797645" y="81.919" xlink:href="#c"/>
<use x="1.942" y="19.08" xlink:href="#aw"/>
<use x="8.468643" y="19.08" xlink:href="#af"/>
<use x="12.568081" y="19.08" xlink:href="#at"/>
<use x="17.427869" y="19.08" xlink:href="#ae"/>
<use x="22.547684" y="19.08" xlink:href="#ak"/>
<use x="26.131554" y="19.08" xlink:href="#as"/>
<use x="30.227405" y="19.08" xlink:href="#af"/>
<use x="34.326844" y="19.08" xlink:href="#ar"/>
<use x="37.931336" y="19.08" xlink:href="#ad"/>
<use x="45.611058" y="19.08" xlink:href="#aj"/>
<use x="50.478916" y="19.08" xlink:href="#al"/>
<use x="55.598731" y="19.08" xlink:href="#ae"/>
<use x="60.718545" y="19.08" xlink:href="#ag"/>
<use x="8.953" y="92.786" xlink:href="#av"/>
<use x="14.072814" y="92.786" xlink:href="#au"/>
<use x="18.93619" y="92.786" xlink:href="#ag"/>
<use x="22.571168" y="92.786" xlink:href="#ak"/>
<use x="26.155038" y="92.786" xlink:href="#af"/>
<use x="30.254476" y="92.786" xlink:href="#ad"/>
<use x="37.934198" y="92.786" xlink:href="#ad"/>
<use x="45.61392" y="92.786" xlink:href="#aj"/>
<use x="50.472812" y="92.786" xlink:href="#al"/>
<use x="55.592626" y="92.786" xlink:href="#ae"/>
<use x="60.712441" y="92.786" xlink:href="#ag"/>
<use x="94.612" y="72.942" xlink:href="#h"/>
<use x="96.963977" y="72.942" xlink:href="#o"/>
<use x="106.842118" y="72.942" xlink:href="#z"/>
<use x="112.601313" y="72.942" xlink:href="#f"/>
<use x="117.306063" y="72.942" xlink:href="#aq"/>
<use x="122.245931" y="72.942" xlink:href="#a"/>
<use x="126.009412" y="72.942" xlink:href="#b"/>
<use x="129.30983" y="72.942" xlink:href="#be"/>
<use x="121.048" y="51.681" xlink:href="#x"/>
<use x="125.75275" y="51.681" xlink:href="#ap"/>
<use x="130.222382" y="51.681" xlink:href="#n"/>
<use x="133.562651" y="51.681" xlink:href="#c"/>
<use x="136.855896" y="51.681" xlink:href="#a"/>
<use x="140.619378" y="51.681" xlink:href="#o"/>
<use x="147.676104" y="51.681" xlink:href="#e"/>
<use x="151.910618" y="51.681" xlink:href="#f"/>
<use x="156.615368" y="51.681" xlink:href="#m"/>
<use x="159.20326" y="51.681" xlink:href="#b"/>
<use x="162.503678" y="51.681" xlink:href="#f"/>
<use x="167.208428" y="51.681" xlink:href="#m"/>
<use x="121.048" y="97.038" xlink:href="#bd"/>
<use x="127.390606" y="97.038" xlink:href="#a"/>
<use x="131.154087" y="97.038" xlink:href="#h"/>
<use x="133.506063" y="97.038" xlink:href="#d"/>
<use x="81.492" y="125.386" xlink:href="#y"/>
<use x="85.255481" y="125.386" xlink:href="#f"/>
<use x="89.960231" y="125.386" xlink:href="#o"/>
<use x="99.838373" y="125.386" xlink:href="#bc"/>
<use x="105.253259" y="125.386" xlink:href="#b"/>
<use x="108.553678" y="125.386" xlink:href="#a"/>
<use x="112.317159" y="125.386" xlink:href="#h"/>
<use x="114.669135" y="125.386" xlink:href="#j"/>
<use x="119.605018" y="125.386" xlink:href="#a"/>
<use x="123.368499" y="125.386" xlink:href="#b"/>
<use x="129.490333" y="125.386" xlink:href="#f"/>
<use x="134.195083" y="125.386" xlink:href="#d"/>
<use x="138.899833" y="125.386" xlink:href="#k"/>
<use x="77.124" y="115.465" xlink:href="#n"/>
<use x="80.464269" y="115.465" xlink:href="#q"/>
<use x="83.996617" y="115.465" xlink:href="#r"/>
<use x="88.701367" y="115.465" xlink:href="#h"/>
<use x="91.053344" y="115.465" xlink:href="#q"/>
<use x="94.577722" y="115.465" xlink:href="#w"/>
<use x="99.047354" y="115.465" xlink:href="#c"/>
<use x="105.162015" y="115.465" xlink:href="#k"/>
<use x="109.866765" y="115.465" xlink:href="#h"/>
<use x="112.218741" y="115.465" xlink:href="#a"/>
<use x="118.803638" y="115.465" xlink:href="#s"/>
<use x="125.154214" y="115.465" xlink:href="#d"/>
<use x="129.858964" y="115.465" xlink:href="#m"/>
<use x="132.438885" y="115.465" xlink:href="#b"/>
<use x="135.739303" y="115.465" xlink:href="#e"/>
<use x="139.973818" y="115.465" xlink:href="#g"/>
<use x="144.208332" y="115.465" xlink:href="#a"/>
<use x="74.684" y="135.308" xlink:href="#j"/>
<use x="79.38875" y="135.308" xlink:href="#p"/>
<use x="81.740727" y="135.308" xlink:href="#i"/>
<use x="86.214344" y="135.308" xlink:href="#q"/>
<use x="89.738722" y="135.308" xlink:href="#w"/>
<use x="94.208354" y="135.308" xlink:href="#h"/>
<use x="96.56033" y="135.308" xlink:href="#a"/>
<use x="100.323812" y="135.308" xlink:href="#b"/>
<use x="103.62423" y="135.308" xlink:href="#c"/>
<use x="109.738891" y="135.308" xlink:href="#k"/>
<use x="114.443641" y="135.308" xlink:href="#a"/>
<use x="118.207122" y="135.308" xlink:href="#d"/>
<use x="125.733288" y="135.308" xlink:href="#z"/>
<use x="131.492482" y="135.308" xlink:href="#b"/>
<use x="134.7929" y="135.308" xlink:href="#i"/>
<use x="139.027414" y="135.308" xlink:href="#y"/>
<use x="142.790896" y="135.308" xlink:href="#a"/>
<use x="146.554377" y="135.308" xlink:href="#n"/>
<use x="149.894646" y="135.308" xlink:href="#n"/>
<use x="180.632" y="90.424" xlink:href="#v"/>
<use x="186.391194" y="90.424" xlink:href="#u"/>
<use x="190.625708" y="90.424" xlink:href="#s"/>
<use x="196.968314" y="90.424" xlink:href="#t"/>
<use x="199.791323" y="90.424" xlink:href="#x"/>
<use x="204.496073" y="90.424" xlink:href="#i"/>
<use x="208.730588" y="90.424" xlink:href="#m"/>
<use x="211.318479" y="90.424" xlink:href="#c"/>
<use x="214.372621" y="90.424" xlink:href="#ab"/>
<use x="220.257743" y="90.424" xlink:href="#e"/>
<use x="224.492257" y="90.424" xlink:href="#b"/>
<use x="227.792676" y="90.424" xlink:href="#a"/>
<use x="171.51" y="81.447" xlink:href="#g"/>
<use x="175.744514" y="81.447" xlink:href="#a"/>
<use x="179.507995" y="81.447" xlink:href="#b"/>
<use x="182.808" y="81.816" xlink:href="#l"/>
<use x="182.808" y="81.447" xlink:href="#e"/>
<use x="187.042514" y="81.447" xlink:href="#c"/>
<use x="190.335759" y="81.447" xlink:href="#a"/>
<use x="194.099241" y="81.447" xlink:href="#f"/>
<use x="198.803991" y="81.447" xlink:href="#d"/>
<use x="203.508741" y="81.447" xlink:href="#e"/>
<use x="207.743255" y="81.447" xlink:href="#j"/>
<use x="212.448005" y="81.447" xlink:href="#r"/>
<use x="217.152" y="81.816" xlink:href="#l"/>
<use x="217.152" y="81.447" xlink:href="#e"/>
<use x="221.386514" y="81.447" xlink:href="#d"/>
<use x="226.091264" y="81.447" xlink:href="#g"/>
<use x="230.325778" y="81.447" xlink:href="#h"/>
<use x="232.677755" y="81.447" xlink:href="#g"/>
<use x="236.912269" y="81.447" xlink:href="#a"/>
<use x="180.632" y="131.529" xlink:href="#v"/>
<use x="186.391194" y="131.529" xlink:href="#u"/>
<use x="190.625708" y="131.529" xlink:href="#s"/>
<use x="196.968314" y="131.529" xlink:href="#t"/>
<use x="199.791323" y="131.529" xlink:href="#x"/>
<use x="204.496073" y="131.529" xlink:href="#i"/>
<use x="208.730588" y="131.529" xlink:href="#m"/>
<use x="211.318479" y="131.529" xlink:href="#c"/>
<use x="214.372621" y="131.529" xlink:href="#ab"/>
<use x="220.257743" y="131.529" xlink:href="#e"/>
<use x="224.492257" y="131.529" xlink:href="#b"/>
<use x="227.792676" y="131.529" xlink:href="#a"/>
<use x="171.51" y="122.552" xlink:href="#g"/>
<use x="175.744514" y="122.552" xlink:href="#a"/>
<use x="179.507995" y="122.552" xlink:href="#b"/>
<use x="182.808" y="122.921" xlink:href="#l"/>
<use x="182.808" y="122.552" xlink:href="#e"/>
<use x="187.042514" y="122.552" xlink:href="#c"/>
<use x="190.335759" y="122.552" xlink:href="#a"/>
<use x="194.099241" y="122.552" xlink:href="#f"/>
<use x="198.803991" y="122.552" xlink:href="#d"/>
<use x="203.508741" y="122.552" xlink:href="#e"/>
<use x="207.743255" y="122.552" xlink:href="#j"/>
<use x="212.448005" y="122.552" xlink:href="#r"/>
<use x="217.152" y="122.921" xlink:href="#l"/>
<use x="217.152" y="122.552" xlink:href="#e"/>
<use x="221.386514" y="122.552" xlink:href="#d"/>
<use x="226.091264" y="122.552" xlink:href="#g"/>
<use x="230.325778" y="122.552" xlink:href="#h"/>
<use x="232.677755" y="122.552" xlink:href="#g"/>
<use x="236.912269" y="122.552" xlink:href="#a"/>
<use x="181.237" y="199.092" xlink:href="#ao"/>
<use x="187.880078" y="199.092" xlink:href="#a"/>
<use x="191.64356" y="199.092" xlink:href="#b"/>
<use x="194.944" y="199.461" xlink:href="#l"/>
<use x="194.944" y="199.092" xlink:href="#e"/>
<use x="199.178514" y="199.092" xlink:href="#c"/>
<use x="202.471759" y="199.092" xlink:href="#a"/>
<use x="206.235241" y="199.092" xlink:href="#c"/>
<use x="209.528486" y="199.092" xlink:href="#b"/>
<use x="212.828904" y="199.092" xlink:href="#a"/>
<use x="216.592386" y="199.092" xlink:href="#h"/>
<use x="218.944362" y="199.092" xlink:href="#j"/>
<use x="223.888215" y="199.092" xlink:href="#a"/>
<use x="227.651696" y="199.092" xlink:href="#b"/>
<use x="302.477" y="291.224" xlink:href="#ai"/>
<use x="305.52636" y="291.224" xlink:href="#d"/>
<use x="309.999977" y="291.224" xlink:href="#c"/>
<use x="313.293223" y="291.224" xlink:href="#a"/>
<use x="317.056704" y="291.224" xlink:href="#b"/>
<use x="320.357122" y="291.224" xlink:href="#b"/>
<use x="323.649571" y="291.224" xlink:href="#f"/>
<use x="328.354321" y="291.224" xlink:href="#ah"/>
<use x="333.059071" y="291.224" xlink:href="#c"/>
<use x="187.385" y="313.903" xlink:href="#an"/>
<use x="193.501255" y="313.903" xlink:href="#i"/>
<use x="197.735769" y="313.903" xlink:href="#d"/>
<use x="202.201416" y="313.903" xlink:href="#c"/>
<use x="205.494661" y="313.903" xlink:href="#b"/>
<use x="208.79508" y="313.903" xlink:href="#i"/>
<use x="213.029594" y="313.903" xlink:href="#p"/>
<use x="215.38157" y="313.903" xlink:href="#p"/>
<use x="217.733547" y="313.903" xlink:href="#a"/>
<use x="221.497028" y="313.903" xlink:href="#b"/>
<use x="258.946" y="311.068" xlink:href="#v"/>
<use x="264.705194" y="311.068" xlink:href="#u"/>
<use x="268.939708" y="311.068" xlink:href="#s"/>
<use x="278.103729" y="311.068" xlink:href="#m"/>
<use x="280.691621" y="311.068" xlink:href="#a"/>
<use x="284.455102" y="311.068" xlink:href="#b"/>
<use x="287.75552" y="311.068" xlink:href="#c"/>
<use x="291.048766" y="311.068" xlink:href="#h"/>
<use x="293.400742" y="311.068" xlink:href="#g"/>
<use x="297.635256" y="311.068" xlink:href="#aa"/>
<use x="302.808648" y="311.068" xlink:href="#ac"/>
<use x="309.273196" y="311.068" xlink:href="#e"/>
<use x="313.507711" y="311.068" xlink:href="#c"/>
<use x="316.800956" y="311.068" xlink:href="#a"/>
<use x="320.564437" y="311.068" xlink:href="#d"/>
<use x="328.090603" y="311.068" xlink:href="#h"/>
<use x="330.450549" y="311.068" xlink:href="#o"/>
<use x="260.877" y="320.045" xlink:href="#z"/>
<use x="266.636194" y="320.045" xlink:href="#f"/>
<use x="271.340944" y="320.045" xlink:href="#aq"/>
<use x="276.280812" y="320.045" xlink:href="#a"/>
<use x="280.044293" y="320.045" xlink:href="#b"/>
<use x="283.344712" y="320.045" xlink:href="#aa"/>
<use x="288.518104" y="320.045" xlink:href="#a"/>
<use x="292.281585" y="320.045" xlink:href="#b"/>
<use x="295.582003" y="320.045" xlink:href="#y"/>
<use x="299.345485" y="320.045" xlink:href="#a"/>
<use x="303.108966" y="320.045" xlink:href="#f"/>
<use x="307.813716" y="320.045" xlink:href="#g"/>
<use x="312.04823" y="320.045" xlink:href="#c"/>
<use x="318.162891" y="320.045" xlink:href="#a"/>
<use x="321.926372" y="320.045" xlink:href="#h"/>
<use x="324.278348" y="320.045" xlink:href="#d"/>
<use x="328.983099" y="320.045" xlink:href="#a"/>
<use x="270.935" y="329.494" xlink:href="#am"/>
<use x="277.277606" y="329.494" xlink:href="#d"/>
<use x="281.751223" y="329.494" xlink:href="#c"/>
<use x="285.044468" y="329.494" xlink:href="#a"/>
<use x="288.807949" y="329.494" xlink:href="#b"/>
<use x="292.108368" y="329.494" xlink:href="#j"/>
<use x="296.813118" y="329.494" xlink:href="#b"/>
<use x="300.105566" y="329.494" xlink:href="#a"/>
<use x="303.877017" y="329.494" xlink:href="#q"/>
<use x="307.401396" y="329.494" xlink:href="#r"/>
<use x="311.867043" y="329.494" xlink:href="#f"/>
<use x="316.571793" y="329.494" xlink:href="#d"/>
<use x="321.276543" y="329.494" xlink:href="#g"/>
<use x="77.692" y="183.5" xlink:href="#n"/>
<use x="81.032269" y="183.5" xlink:href="#a"/>
<use x="84.79575" y="183.5" xlink:href="#d"/>
<use x="89.5005" y="183.5" xlink:href="#k"/>
<use x="94.20525" y="183.5" xlink:href="#a"/>
<use x="97.968731" y="183.5" xlink:href="#c"/>
<use x="104.083392" y="183.5" xlink:href="#bb"/>
<use x="110.661913" y="183.5" xlink:href="#i"/>
<use x="114.896427" y="183.5" xlink:href="#o"/>
<use x="121.953153" y="183.5" xlink:href="#o"/>
<use x="129.00988" y="183.5" xlink:href="#e"/>
<use x="133.244394" y="183.5" xlink:href="#d"/>
<use x="137.949144" y="183.5" xlink:href="#k"/>
<use x="142.653894" y="183.5" xlink:href="#i"/>
<use x="146.888408" y="183.5" xlink:href="#n"/>
<use x="84.903" y="194.84" xlink:href="#y"/>
<use x="88.666481" y="194.84" xlink:href="#f"/>
<use x="93.371231" y="194.84" xlink:href="#o"/>
<use x="103.249373" y="194.84" xlink:href="#an"/>
<use x="109.365628" y="194.84" xlink:href="#i"/>
<use x="113.600142" y="194.84" xlink:href="#d"/>
<use x="118.073759" y="194.84" xlink:href="#c"/>
<use x="121.367005" y="194.84" xlink:href="#b"/>
<use x="124.667423" y="194.84" xlink:href="#i"/>
<use x="128.901937" y="194.84" xlink:href="#p"/>
<use x="131.253914" y="194.84" xlink:href="#p"/>
<use x="133.60589" y="194.84" xlink:href="#a"/>
<use x="137.369371" y="194.84" xlink:href="#b"/>
<use x="140.66979" y="194.84" xlink:href="#aa"/>
<use x="97.844" y="206.179" xlink:href="#j"/>
<use x="102.54875" y="206.179" xlink:href="#p"/>
<use x="104.900727" y="206.179" xlink:href="#i"/>
<use x="109.374344" y="206.179" xlink:href="#q"/>
<use x="112.898722" y="206.179" xlink:href="#w"/>
<use x="117.368354" y="206.179" xlink:href="#h"/>
<use x="119.72033" y="206.179" xlink:href="#a"/>
<use x="123.483812" y="206.179" xlink:href="#b"/>
<use x="126.78423" y="206.179" xlink:href="#c"/>
<use x="173.041" y="261.458" xlink:href="#ai"/>
<use x="176.09036" y="261.458" xlink:href="#d"/>
<use x="180.556007" y="261.458" xlink:href="#c"/>
<use x="183.849253" y="261.458" xlink:href="#a"/>
<use x="187.620704" y="261.458" xlink:href="#b"/>
<use x="190.913152" y="261.458" xlink:href="#b"/>
<use x="194.213571" y="261.458" xlink:href="#f"/>
<use x="198.918321" y="261.458" xlink:href="#ah"/>
<use x="203.623071" y="261.458" xlink:href="#c"/>
<use x="206.916316" y="261.458" xlink:href="#t"/>
<use x="209.739325" y="261.458" xlink:href="#ba"/>
<use x="216.081931" y="261.458" xlink:href="#e"/>
<use x="220.316445" y="261.458" xlink:href="#d"/>
<use x="225.021195" y="261.458" xlink:href="#k"/>
<use x="229.725945" y="261.458" xlink:href="#p"/>
<use x="232.077922" y="261.458" xlink:href="#a"/>
<use x="235.841403" y="261.458" xlink:href="#b"/>
<use x="272.764" y="204.762" xlink:href="#v"/>
<use x="278.523194" y="204.762" xlink:href="#u"/>
<use x="282.757708" y="204.762" xlink:href="#s"/>
<use x="289.100314" y="204.762" xlink:href="#t"/>
<use x="291.923323" y="204.762" xlink:href="#x"/>
<use x="296.628073" y="204.762" xlink:href="#i"/>
<use x="300.862588" y="204.762" xlink:href="#m"/>
<use x="303.450479" y="204.762" xlink:href="#c"/>
<use x="306.504621" y="204.762" xlink:href="#ab"/>
<use x="312.389743" y="204.762" xlink:href="#e"/>
<use x="316.624257" y="204.762" xlink:href="#b"/>
<use x="319.924676" y="204.762" xlink:href="#a"/>
<use x="257.469" y="185.287" xlink:href="#l"/>
<use x="257.234" y="184.918" xlink:href="#f"/>
<use x="261.93875" y="184.918" xlink:href="#j"/>
<use x="266.882603" y="184.918" xlink:href="#a"/>
<use x="270.646084" y="184.918" xlink:href="#b"/>
<use x="273.946503" y="184.918" xlink:href="#g"/>
<use x="278.173047" y="184.918" xlink:href="#h"/>
<use x="280.532993" y="184.918" xlink:href="#j"/>
<use x="285.229773" y="184.918" xlink:href="#c"/>
<use x="291.352404" y="184.918" xlink:href="#k"/>
<use x="296.057154" y="184.918" xlink:href="#h"/>
<use x="298.409131" y="184.918" xlink:href="#a"/>
<use x="304.994027" y="184.918" xlink:href="#ac"/>
<use x="311.458575" y="184.918" xlink:href="#e"/>
<use x="315.693089" y="184.918" xlink:href="#c"/>
<use x="318.986335" y="184.918" xlink:href="#a"/>
<use x="322.749816" y="184.918" xlink:href="#d"/>
<use x="330.275981" y="184.918" xlink:href="#e"/>
<use x="334.510496" y="184.918" xlink:href="#d"/>
<use x="263.642" y="194.84" xlink:href="#g"/>
<use x="267.876514" y="194.84" xlink:href="#a"/>
<use x="271.639995" y="194.84" xlink:href="#b"/>
<use x="274.94" y="195.209" xlink:href="#l"/>
<use x="274.94" y="194.84" xlink:href="#e"/>
<use x="279.174514" y="194.84" xlink:href="#c"/>
<use x="282.467759" y="194.84" xlink:href="#a"/>
<use x="286.231241" y="194.84" xlink:href="#f"/>
<use x="290.935991" y="194.84" xlink:href="#d"/>
<use x="295.640741" y="194.84" xlink:href="#e"/>
<use x="299.875255" y="194.84" xlink:href="#j"/>
<use x="304.580005" y="194.84" xlink:href="#r"/>
<use x="309.284" y="195.209" xlink:href="#l"/>
<use x="309.284" y="194.84" xlink:href="#e"/>
<use x="313.518514" y="194.84" xlink:href="#d"/>
<use x="318.223264" y="194.84" xlink:href="#g"/>
<use x="322.457778" y="194.84" xlink:href="#h"/>
<use x="324.809755" y="194.84" xlink:href="#g"/>
<use x="329.044269" y="194.84" xlink:href="#a"/>
<use x="149.396" y="67.273" xlink:href="#az"/>
<use x="153.74369" y="67.273" xlink:href="#e"/>
<use x="261.49" y="265.711" xlink:href="#ab"/>
<use x="267.367152" y="265.711" xlink:href="#a"/>
<use x="271.130633" y="265.711" xlink:href="#q"/>
<use x="274.662981" y="265.711" xlink:href="#w"/>
<use x="279.132613" y="265.711" xlink:href="#c"/>
<use x="285.247274" y="265.711" xlink:href="#ao"/>
<use x="291.890352" y="265.711" xlink:href="#a"/>
<use x="295.653834" y="265.711" xlink:href="#b"/>
<use x="298.955" y="266.08" xlink:href="#l"/>
<use x="298.955" y="265.711" xlink:href="#e"/>
<use x="303.189514" y="265.711" xlink:href="#c"/>
<use x="306.482759" y="265.711" xlink:href="#a"/>
<use x="310.246241" y="265.711" xlink:href="#c"/>
<use x="313.539486" y="265.711" xlink:href="#b"/>
<use x="316.839904" y="265.711" xlink:href="#a"/>
<use x="320.603386" y="265.711" xlink:href="#h"/>
<use x="322.955362" y="265.711" xlink:href="#j"/>
<use x="327.899215" y="265.711" xlink:href="#a"/>
<use x="331.662696" y="265.711" xlink:href="#b"/>
<use x="267.874" y="252.954" xlink:href="#a"/>
<use x="271.637481" y="252.954" xlink:href="#b"/>
<use x="274.9379" y="252.954" xlink:href="#r"/>
<use x="279.642" y="253.323" xlink:href="#l"/>
<use x="279.642" y="252.954" xlink:href="#e"/>
<use x="283.876514" y="252.954" xlink:href="#p"/>
<use x="286.228491" y="252.954" xlink:href="#c"/>
<use x="292.343151" y="252.954" xlink:href="#ai"/>
<use x="295.392512" y="252.954" xlink:href="#d"/>
<use x="299.866129" y="252.954" xlink:href="#c"/>
<use x="303.159374" y="252.954" xlink:href="#a"/>
<use x="306.922855" y="252.954" xlink:href="#b"/>
<use x="310.223274" y="252.954" xlink:href="#b"/>
<use x="313.523692" y="252.954" xlink:href="#f"/>
<use x="318.228442" y="252.954" xlink:href="#ah"/>
<use x="322.933192" y="252.954" xlink:href="#c"/>
<use x="326.226437" y="252.954" xlink:href="#aa"/>
<use x="251.742" y="53.098" xlink:href="#ay"/>
<use x="256.916986" y="53.098" xlink:href="#f"/>
<use x="261.621736" y="53.098" xlink:href="#b"/>
<use x="265.157" y="53.468" xlink:href="#l"/>
<use x="264.922" y="53.098" xlink:href="#f"/>
<use x="269.62675" y="53.098" xlink:href="#q"/>
<use x="273.151128" y="53.098" xlink:href="#w"/>
<use x="280.450146" y="53.098" xlink:href="#ax"/>
<use x="284.680675" y="53.098" xlink:href="#i"/>
<use x="288.915189" y="53.098" xlink:href="#o"/>
<use x="298.793331" y="53.098" xlink:href="#x"/>
<use x="303.498081" y="53.098" xlink:href="#ap"/>
<use x="307.967713" y="53.098" xlink:href="#n"/>
<use x="311.307982" y="53.098" xlink:href="#c"/>
<use x="314.601227" y="53.098" xlink:href="#a"/>
<use x="318.364709" y="53.098" xlink:href="#o"/>
<use x="325.421435" y="53.098" xlink:href="#e"/>
<use x="329.655949" y="53.098" xlink:href="#f"/>
<use x="334.360699" y="53.098" xlink:href="#m"/>
<use x="336.948591" y="53.098" xlink:href="#b"/>
<use x="340.249009" y="53.098" xlink:href="#f"/>
<use x="344.953759" y="53.098" xlink:href="#m"/>
<use x="14.437" y="40.342" xlink:href="#am"/>
<use x="20.779606" y="40.342" xlink:href="#o"/>
<use x="27.836332" y="40.342" xlink:href="#n"/>
<use x="31.176601" y="40.342" xlink:href="#q"/>
<use x="34.708949" y="40.342" xlink:href="#r"/>
<use x="39.413699" y="40.342" xlink:href="#e"/>
<use x="43.648214" y="40.342" xlink:href="#p"/>
<use x="46.00019" y="40.342" xlink:href="#c"/>
<use x="49.293435" y="40.342" xlink:href="#f"/>
<use x="53.998185" y="40.342" xlink:href="#d"/>
<use x="58.702935" y="40.342" xlink:href="#g"/>
</g>
</svg>
