<svg width="375pt" height="165pt" version="1.1" viewBox="0 0 375 165" xmlns="http://www.w3.org/2000/svg" xmlns:xlink="http://www.w3.org/1999/xlink">
<defs>
<g id="aj">
<path d="m0.5625-3.4062c0 2.0625 1.6094 3.625 3.4688 3.625 1.625 0 2.5938-1.3906 2.5938-2.5469 0-0.09375 0-0.17188-0.125-0.17188-0.10938 0-0.10938 0.0625-0.125 0.17188-0.078125 1.4219-1.1406 2.2344-2.2344 2.2344-0.60938 0-2.5625-0.32812-2.5625-3.3125 0-2.9688 1.9531-3.3125 2.5625-3.3125 1.0781 0 1.9688 0.90625 2.1719 2.3594 0.015625 0.14062 0.015625 0.17188 0.15625 0.17188 0.15625 0 0.15625-0.03125 0.15625-0.23438v-2.3594c0-0.17188 0-0.25-0.10938-0.25-0.03125 0-0.078125 0-0.15625 0.125l-0.5 0.73438c-0.35938-0.35938-0.875-0.85938-1.8281-0.85938-1.875 0-3.4688 1.5938-3.4688 3.625z"/>
</g>
<g id="m">
<path d="m4.6875-2.1406c0-1.2656-0.98438-2.3281-2.1875-2.3281-1.25 0-2.2188 1.0938-2.2188 2.3281 0 1.2969 1.0312 2.25 2.2031 2.25 1.2031 0 2.2031-0.98438 2.2031-2.25zm-2.1875 2c-0.4375 0-0.875-0.20312-1.1406-0.67188-0.25-0.4375-0.25-1.0469-0.25-1.4062 0-0.39062 0-0.92188 0.23438-1.3594 0.26562-0.45312 0.73438-0.67188 1.1406-0.67188 0.4375 0 0.85938 0.21875 1.125 0.65625 0.26562 0.42188 0.26562 1 0.26562 1.375 0 0.35938 0 0.90625-0.21875 1.3438-0.23438 0.45312-0.67188 0.73438-1.1562 0.73438z"/>
</g>
<g id="l">
<path d="m1.0938-3.4219v2.6719c0 0.4375-0.10938 0.4375-0.78125 0.4375v0.3125c0.35938-0.015625 0.85938-0.03125 1.1406-0.03125 0.25 0 0.76562 0.015625 1.1094 0.03125v-0.3125c-0.67188 0-0.78125 0-0.78125-0.4375v-1.8438c0-1.0312 0.71875-1.5938 1.3438-1.5938 0.64062 0 0.75 0.53125 0.75 1.1094v2.3281c0 0.4375-0.10938 0.4375-0.78125 0.4375v0.3125c0.34375-0.015625 0.85938-0.03125 1.125-0.03125 0.25 0 0.78125 0.015625 1.1094 0.03125v-0.3125c-0.51562 0-0.76562 0-0.76562-0.29688v-1.9062c0-0.85938 0-1.1562-0.3125-1.5156-0.14062-0.17188-0.46875-0.375-1.0469-0.375-0.73438 0-1.2031 0.42188-1.4844 1.0469v-1.0469l-1.4062 0.10938v0.3125c0.70312 0 0.78125 0.0625 0.78125 0.5625z"/>
</g>
<g id="c">
<path d="m1.7188-3.9844h1.4375v-0.3125h-1.4375v-1.8281h-0.25c0 0.8125-0.29688 1.875-1.2812 1.9219v0.21875h0.84375v2.75c0 1.2188 0.9375 1.3438 1.2969 1.3438 0.70312 0 0.98438-0.70312 0.98438-1.3438v-0.5625h-0.25v0.54688c0 0.73438-0.29688 1.1094-0.67188 1.1094-0.67188 0-0.67188-0.90625-0.67188-1.0781z"/>
</g>
<g id="b">
<path d="m1.6719-3.3125v-1.0938l-1.3906 0.10938v0.3125c0.70312 0 0.78125 0.0625 0.78125 0.5625v2.6719c0 0.4375-0.10938 0.4375-0.78125 0.4375v0.3125c0.39062-0.015625 0.85938-0.03125 1.1406-0.03125 0.39062 0 0.85938 0 1.2656 0.03125v-0.3125h-0.21875c-0.73438 0-0.75-0.10938-0.75-0.46875v-1.5312c0-0.98438 0.42188-1.875 1.1719-1.875 0.0625 0 0.09375 0 0.10938 0.015625-0.03125 0-0.23438 0.125-0.23438 0.39062s0.21875 0.42188 0.4375 0.42188c0.17188 0 0.42188-0.125 0.42188-0.4375s-0.3125-0.60938-0.73438-0.60938c-0.73438 0-1.0938 0.67188-1.2188 1.0938z"/>
</g>
<g id="k">
<path d="m1.7656-6.9219-1.4375 0.10938v0.3125c0.70312 0 0.78125 0.0625 0.78125 0.5625v5.1875c0 0.4375-0.10938 0.4375-0.78125 0.4375v0.3125c0.32812-0.015625 0.85938-0.03125 1.1094-0.03125s0.73438 0.015625 1.1094 0.03125v-0.3125c-0.67188 0-0.78125 0-0.78125-0.4375z"/>
</g>
<g id="a">
<path d="m1.1094-2.5156c0.0625-1.4844 0.90625-1.7344 1.25-1.7344 1.0156 0 1.125 1.3438 1.125 1.7344zm0 0.21875h2.7812c0.21875 0 0.25 0 0.25-0.21875 0-0.98438-0.54688-1.9531-1.7812-1.9531-1.1562 0-2.0781 1.0312-2.0781 2.2812 0 1.3281 1.0469 2.2969 2.1875 2.2969 1.2188 0 1.6719-1.1094 1.6719-1.2969 0-0.09375-0.078125-0.125-0.14062-0.125-0.078125 0-0.10938 0.0625-0.125 0.14062-0.34375 1.0312-1.25 1.0312-1.3438 1.0312-0.5 0-0.89062-0.29688-1.125-0.67188-0.29688-0.46875-0.29688-1.125-0.29688-1.4844z"/>
</g>
<g id="ab">
<path d="m5.9062-0.625c0.14062 0.21875 0.53125 0.60938 0.64062 0.60938 0.09375 0 0.09375-0.078125 0.09375-0.21875v-1.7344c0-0.39062 0.03125-0.4375 0.6875-0.4375v-0.3125c-0.375 0-0.92188 0.03125-1.2188 0.03125-0.39062 0-1.25 0-1.6094-0.03125v0.3125h0.32812c0.89062 0 0.92188 0.10938 0.92188 0.46875v0.64062c0 1.125-1.2656 1.2031-1.5469 1.2031-0.64062 0-2.625-0.34375-2.625-3.3125 0-2.9844 1.9688-3.3125 2.5625-3.3125 1.0781 0 1.9844 0.89062 2.1719 2.3594 0.03125 0.14062 0.03125 0.17188 0.17188 0.17188 0.15625 0 0.15625-0.03125 0.15625-0.23438v-2.3594c0-0.17188 0-0.25-0.10938-0.25-0.046875 0-0.078125 0-0.15625 0.125l-0.5 0.73438c-0.32812-0.3125-0.85938-0.85938-1.8438-0.85938-1.8594 0-3.4688 1.5781-3.4688 3.625s1.5938 3.625 3.4844 3.625c0.73438 0 1.5312-0.26562 1.8594-0.84375z"/>
</g>
<g id="aa">
<path d="m2.0312-6.1719c0-0.23438-0.20312-0.5-0.5-0.5-0.28125 0-0.5 0.21875-0.5 0.5s0.21875 0.5 0.5 0.5c0.29688 0 0.5-0.26562 0.5-0.5zm1.9219 0c0-0.28125-0.21875-0.5-0.5-0.5-0.29688 0-0.5 0.26562-0.5 0.5s0.20312 0.5 0.5 0.5c0.28125 0 0.5-0.21875 0.5-0.5z"/>
</g>
<g id="o">
<path d="m3.3125-0.75c0.046875 0.39062 0.3125 0.8125 0.78125 0.8125 0.21875 0 0.82812-0.14062 0.82812-0.95312v-0.5625h-0.25v0.5625c0 0.57812-0.25 0.64062-0.35938 0.64062-0.32812 0-0.375-0.45312-0.375-0.5v-1.9844c0-0.42188 0-0.8125-0.35938-1.1875-0.39062-0.39062-0.89062-0.54688-1.3594-0.54688-0.82812 0-1.5156 0.46875-1.5156 1.125 0 0.29688 0.20312 0.46875 0.46875 0.46875 0.28125 0 0.45312-0.20312 0.45312-0.45312 0-0.125-0.046875-0.45312-0.51562-0.45312 0.28125-0.35938 0.76562-0.46875 1.0781-0.46875 0.5 0 1.0625 0.39062 1.0625 1.2812v0.35938c-0.51562 0.03125-1.2031 0.0625-1.8281 0.35938-0.75 0.34375-1 0.85938-1 1.2969 0 0.8125 0.96875 1.0625 1.5938 1.0625 0.65625 0 1.1094-0.40625 1.2969-0.85938zm-0.0625-1.6406v1c0 0.9375-0.71875 1.2812-1.1719 1.2812-0.48438 0-0.89062-0.34375-0.89062-0.84375 0-0.54688 0.42188-1.375 2.0625-1.4375z"/>
</g>
<g id="ai">
<path d="m6.1094-6.0312c0-0.35938 0.015625-0.46875 0.78125-0.46875h0.25v-0.3125c-0.35938 0.03125-1.0938 0.03125-1.4688 0.03125s-1.125 0-1.4688-0.03125v0.3125h0.23438c0.76562 0 0.78125 0.10938 0.78125 0.46875v2.3281h-2.9688v-2.3281c0-0.35938 0.015625-0.46875 0.78125-0.46875h0.23438v-0.3125c-0.34375 0.03125-1.0781 0.03125-1.4688 0.03125-0.375 0-1.125 0-1.4688-0.03125v0.3125h0.23438c0.76562 0 0.79688 0.10938 0.79688 0.46875v5.25c0 0.35938-0.03125 0.46875-0.79688 0.46875h-0.23438v0.3125c0.34375-0.03125 1.0938-0.03125 1.4688-0.03125s1.125 0 1.4688 0.03125v-0.3125h-0.23438c-0.76562 0-0.78125-0.10938-0.78125-0.46875v-2.6094h2.9688v2.6094c0 0.35938-0.015625 0.46875-0.78125 0.46875h-0.23438v0.3125c0.34375-0.03125 1.0781-0.03125 1.4531-0.03125 0.39062 0 1.125 0 1.4844 0.03125v-0.3125h-0.25c-0.76562 0-0.78125-0.10938-0.78125-0.46875z"/>
</g>
<g id="ah">
<path d="m3.8906-0.78125v0.89062l1.4375-0.10938v-0.3125c-0.6875 0-0.76562-0.0625-0.76562-0.5625v-3.5312l-1.4688 0.10938v0.3125c0.6875 0 0.78125 0.0625 0.78125 0.5625v1.7656c0 0.875-0.48438 1.5469-1.2188 1.5469-0.82812 0-0.875-0.46875-0.875-0.98438v-3.3125l-1.4688 0.10938v0.3125c0.78125 0 0.78125 0.03125 0.78125 0.90625v1.5c0 0.78125 0 1.6875 1.5156 1.6875 0.5625 0 1-0.28125 1.2812-0.89062z"/>
</g>
<g id="n">
<path d="m1.7188-3.75v-0.65625l-1.4375 0.10938v0.3125c0.70312 0 0.78125 0.0625 0.78125 0.5v4.6562c0 0.45312-0.10938 0.45312-0.78125 0.45312v0.3125c0.34375-0.015625 0.85938-0.03125 1.1094-0.03125 0.28125 0 0.78125 0.015625 1.125 0.03125v-0.3125c-0.65625 0-0.76562 0-0.76562-0.45312v-1.7656c0.046875 0.17188 0.46875 0.70312 1.2188 0.70312 1.1875 0 2.2188-0.98438 2.2188-2.2656 0-1.2656-0.95312-2.25-2.0781-2.25-0.78125 0-1.2031 0.4375-1.3906 0.65625zm0.03125 2.6094v-2.2188c0.28125-0.51562 0.76562-0.79688 1.2812-0.79688 0.73438 0 1.3281 0.875 1.3281 2 0 1.2031-0.6875 2.0469-1.4219 2.0469-0.40625 0-0.78125-0.20312-1.0469-0.60938-0.14062-0.20312-0.14062-0.21875-0.14062-0.42188z"/>
</g>
<g id="d">
<path d="m2.0781-1.9375c0.21875 0.046875 1.0312 0.20312 1.0312 0.92188 0 0.5-0.34375 0.90625-1.125 0.90625-0.84375 0-1.2031-0.5625-1.3906-1.4219-0.03125-0.125-0.03125-0.15625-0.14062-0.15625-0.125 0-0.125 0.0625-0.125 0.23438v1.3281c0 0.17188 0 0.23438 0.10938 0.23438 0.046875 0 0.0625-0.015625 0.25-0.20312 0.015625-0.015625 0.015625-0.03125 0.20312-0.21875 0.4375 0.40625 0.89062 0.42188 1.0938 0.42188 1.1406 0 1.6094-0.67188 1.6094-1.3906 0-0.51562-0.29688-0.82812-0.42188-0.9375-0.32812-0.32812-0.71875-0.40625-1.1406-0.48438-0.5625-0.10938-1.2188-0.23438-1.2188-0.8125 0-0.35938 0.25-0.76562 1.1094-0.76562 1.0938 0 1.1562 0.90625 1.1719 1.2031 0 0.09375 0.09375 0.09375 0.10938 0.09375 0.14062 0 0.14062-0.046875 0.14062-0.23438v-1.0156c0-0.15625 0-0.23438-0.10938-0.23438-0.046875 0-0.078125 0-0.20312 0.125-0.03125 0.03125-0.125 0.125-0.17188 0.15625-0.375-0.28125-0.78125-0.28125-0.9375-0.28125-1.2188 0-1.5938 0.67188-1.5938 1.2344 0 0.34375 0.15625 0.625 0.42188 0.84375 0.32812 0.25 0.60938 0.3125 1.3281 0.45312z"/>
</g>
<g id="e">
<path d="m1.7656-4.4062-1.3906 0.10938v0.3125c0.64062 0 0.73438 0.0625 0.73438 0.54688v2.6875c0 0.4375-0.10938 0.4375-0.78125 0.4375v0.3125c0.3125-0.015625 0.85938-0.03125 1.0938-0.03125 0.35938 0 0.70312 0.015625 1.0469 0.03125v-0.3125c-0.67188 0-0.70312-0.046875-0.70312-0.4375zm0.03125-1.7344c0-0.3125-0.23438-0.53125-0.51562-0.53125-0.3125 0-0.53125 0.26562-0.53125 0.53125s0.21875 0.53125 0.53125 0.53125c0.28125 0 0.51562-0.21875 0.51562-0.53125z"/>
</g>
<g id="ag">
<path d="m1.1719-2.1719c0-1.625 0.8125-2.0469 1.3438-2.0469 0.09375 0 0.71875 0.015625 1.0625 0.375-0.40625 0.03125-0.46875 0.32812-0.46875 0.45312 0 0.26562 0.1875 0.45312 0.45312 0.45312s0.46875-0.15625 0.46875-0.46875c0-0.67188-0.76562-1.0625-1.5312-1.0625-1.25 0-2.1562 1.0781-2.1562 2.3125 0 1.2812 0.98438 2.2656 2.1406 2.2656 1.3281 0 1.6562-1.2031 1.6562-1.2969s-0.10938-0.09375-0.14062-0.09375c-0.078125 0-0.10938 0.03125-0.125 0.09375-0.28125 0.92188-0.9375 1.0469-1.2969 1.0469-0.53125 0-1.4062-0.42188-1.4062-2.0312z"/>
</g>
<g id="af">
<path d="m1.0938-0.75c0 0.4375-0.10938 0.4375-0.78125 0.4375v0.3125c0.35938-0.015625 0.85938-0.03125 1.1406-0.03125 0.25 0 0.76562 0.015625 1.1094 0.03125v-0.3125c-0.67188 0-0.78125 0-0.78125-0.4375v-1.8438c0-1.0312 0.71875-1.5938 1.3438-1.5938 0.64062 0 0.75 0.53125 0.75 1.1094v2.3281c0 0.4375-0.10938 0.4375-0.78125 0.4375v0.3125c0.34375-0.015625 0.85938-0.03125 1.125-0.03125 0.25 0 0.78125 0.015625 1.1094 0.03125v-0.3125c-0.51562 0-0.76562 0-0.76562-0.29688v-1.9062c0-0.85938 0-1.1562-0.3125-1.5156-0.14062-0.17188-0.46875-0.375-1.0469-0.375-0.84375 0-1.2812 0.59375-1.4531 0.98438v-3.5l-1.4375 0.10938v0.3125c0.70312 0 0.78125 0.0625 0.78125 0.5625z"/>
</g>
<g id="g">
<path d="m2.2344-3.5156v-2.5781c0-0.23438 0-0.35938 0.21875-0.39062 0.09375-0.015625 0.39062-0.015625 0.59375-0.015625 0.89062 0 2 0.046875 2 1.4844 0 0.6875-0.23438 1.5-1.7031 1.5zm2.1094 0.125c0.95312-0.23438 1.7344-0.84375 1.7344-1.625 0-0.95312-1.1406-1.7969-2.5938-1.7969h-3.1406v0.3125h0.25c0.76562 0 0.78125 0.10938 0.78125 0.46875v5.25c0 0.35938-0.015625 0.46875-0.78125 0.46875h-0.25v0.3125c0.35938-0.03125 1.0781-0.03125 1.4531-0.03125 0.39062 0 1.1094 0 1.4688 0.03125v-0.3125h-0.25c-0.76562 0-0.78125-0.10938-0.78125-0.46875v-2.5156h1.1406c0.15625 0 0.57812 0 0.9375 0.34375 0.375 0.34375 0.375 0.65625 0.375 1.3281 0 0.64062 0 1.0469 0.40625 1.4219 0.40625 0.35938 0.95312 0.42188 1.25 0.42188 0.78125 0 0.95312-0.8125 0.95312-1.0938 0-0.0625 0-0.17188-0.125-0.17188-0.10938 0-0.10938 0.09375-0.125 0.15625-0.0625 0.71875-0.40625 0.89062-0.65625 0.89062-0.48438 0-0.5625-0.51562-0.70312-1.4375l-0.14062-0.79688c-0.17188-0.64062-0.65625-0.96875-1.2031-1.1562z"/>
</g>
<g id="f">
<path d="m2.2188-1.7188c-0.875 0-0.875-1-0.875-1.2188 0-0.26562 0.015625-0.59375 0.15625-0.84375 0.078125-0.10938 0.3125-0.39062 0.71875-0.39062 0.85938 0 0.85938 0.98438 0.85938 1.2188 0 0.26562 0 0.59375-0.15625 0.84375-0.078125 0.10938-0.3125 0.39062-0.70312 0.39062zm-1.1562 0.39062c0-0.03125 0-0.26562 0.15625-0.46875 0.39062 0.28125 0.8125 0.3125 1 0.3125 0.92188 0 1.6094-0.6875 1.6094-1.4531 0-0.375-0.15625-0.73438-0.40625-0.96875 0.35938-0.34375 0.71875-0.39062 0.89062-0.39062 0.03125 0 0.078125 0 0.10938 0.015625-0.10938 0.03125-0.17188 0.14062-0.17188 0.26562 0 0.17188 0.14062 0.28125 0.29688 0.28125 0.09375 0 0.28125-0.0625 0.28125-0.29688 0-0.17188-0.10938-0.48438-0.5-0.48438-0.20312 0-0.64062 0.0625-1.0625 0.46875-0.42188-0.32812-0.82812-0.35938-1.0469-0.35938-0.9375 0-1.625 0.6875-1.625 1.4531 0 0.4375 0.21875 0.8125 0.46875 1.0312-0.125 0.14062-0.3125 0.46875-0.3125 0.82812 0 0.3125 0.14062 0.6875 0.45312 0.89062-0.60938 0.15625-0.92188 0.59375-0.92188 0.98438 0 0.71875 0.98438 1.2656 2.2031 1.2656 1.1719 0 2.2031-0.5 2.2031-1.2812 0-0.34375-0.125-0.85938-0.64062-1.1406-0.53125-0.26562-1.1094-0.26562-1.7188-0.26562-0.25 0-0.67188 0-0.75-0.015625-0.3125-0.046875-0.51562-0.34375-0.51562-0.67188zm1.4375 3.1562c-1.0156 0-1.7031-0.51562-1.7031-1.0469 0-0.45312 0.375-0.82812 0.8125-0.84375h0.59375c0.85938 0 1.9688 0 1.9688 0.84375 0 0.54688-0.70312 1.0469-1.6719 1.0469z"/>
</g>
<g id="ae">
<path d="m3.9688-6.9375c-0.046875-0.125-0.078125-0.20312-0.23438-0.20312s-0.1875 0.0625-0.23438 0.20312l-2.0625 5.9531c-0.1875 0.51562-0.57812 0.67188-1.125 0.67188v0.3125c0.23438-0.015625 0.67188-0.03125 1.0156-0.03125 0.3125 0 0.82812 0.015625 1.1562 0.03125v-0.3125c-0.5 0-0.75-0.25-0.75-0.5 0-0.03125 0.015625-0.14062 0.015625-0.15625l0.46875-1.2969h2.4531l0.53125 1.5156c0.015625 0.046875 0.03125 0.10938 0.03125 0.14062 0 0.29688-0.5625 0.29688-0.82812 0.29688v0.3125c0.35938-0.03125 1.0625-0.03125 1.4375-0.03125 0.42188 0 0.89062 0.015625 1.2969 0.03125v-0.3125h-0.17188c-0.59375 0-0.73438-0.0625-0.84375-0.39062zm-0.53125 1.1094 1.125 3.25h-2.2344z"/>
</g>
<g id="ad">
<path d="m3.7812-0.54688v0.65625l1.4688-0.10938v-0.3125c-0.6875 0-0.78125-0.0625-0.78125-0.5625v-6.0469l-1.4219 0.10938v0.3125c0.6875 0 0.76562 0.0625 0.76562 0.5625v2.1562c-0.28125-0.35938-0.71875-0.625-1.25-0.625-1.1719 0-2.2188 0.98438-2.2188 2.2656 0 1.2656 0.96875 2.25 2.1094 2.25 0.64062 0 1.0781-0.34375 1.3281-0.65625zm0-2.6719v2.0469c0 0.17188 0 0.1875-0.10938 0.35938-0.29688 0.48438-0.73438 0.70312-1.1719 0.70312-0.45312 0-0.8125-0.26562-1.0469-0.64062-0.25-0.40625-0.28125-0.96875-0.28125-1.3906 0-0.35938 0.015625-0.95312 0.29688-1.4062 0.21875-0.3125 0.59375-0.64062 1.1406-0.64062 0.34375 0 0.76562 0.15625 1.0625 0.59375 0.10938 0.17188 0.10938 0.1875 0.10938 0.375z"/>
</g>
<g id="ac">
<path d="m4.5781-3.1875c0-0.79688-0.046875-1.5938-0.39062-2.3281-0.45312-0.96875-1.2812-1.125-1.6875-1.125-0.60938 0-1.3281 0.26562-1.75 1.1875-0.3125 0.6875-0.35938 1.4688-0.35938 2.2656 0 0.75 0.03125 1.6406 0.45312 2.4062 0.42188 0.79688 1.1562 1 1.6406 1 0.53125 0 1.2969-0.20312 1.7344-1.1562 0.3125-0.6875 0.35938-1.4688 0.35938-2.25zm-2.0938 3.1875c-0.39062 0-0.98438-0.25-1.1562-1.2031-0.10938-0.59375-0.10938-1.5156-0.10938-2.1094 0-0.64062 0-1.2969 0.078125-1.8281 0.1875-1.1875 0.9375-1.2812 1.1875-1.2812 0.32812 0 0.98438 0.1875 1.1719 1.1719 0.10938 0.5625 0.10938 1.3125 0.10938 1.9375 0 0.75 0 1.4219-0.10938 2.0625-0.15625 0.95312-0.71875 1.25-1.1719 1.25z"/>
</g>
<g id="z">
<path d="m-3.875-3.4844-0.29688 1.2812c-0.15625 0.625-0.6875 1-1.2656 1-0.70312 0-1.3125-0.53125-1.3125-1.3125 0-1.6562 1.6406-1.875 2.0781-1.9375 0.0625-0.015625 0.125-0.015625 0.125-0.125 0-0.125-0.046875-0.125-0.23438-0.125h-2c-0.17188 0-0.25 0-0.25 0.10938 0 0.0625 0.015625 0.078125 0.14062 0.14062l0.5625 0.35938c-0.29688 0.29688-0.70312 0.70312-0.70312 1.5938 0 1.1094 0.875 1.9375 1.9375 1.9375 0.82812 0 1.5625-0.53125 1.8281-1.2969 0.03125-0.10938 0.15625-0.625 0.32812-1.3281 0.0625-0.26562 0.14062-0.5625 0.5-0.84375 0.26562-0.20312 0.59375-0.3125 0.92188-0.3125 0.70312 0 1.4219 0.5 1.4219 1.3438 0 0.28125-0.046875 1.0469-0.53125 1.5781-0.54688 0.57812-1.1719 0.60938-1.5312 0.60938-0.10938 0.015625-0.10938 0.09375-0.10938 0.125 0 0.125 0.078125 0.125 0.25 0.125h2c0.17188 0 0.23438 0 0.23438-0.10938 0-0.0625-0.015625-0.078125-0.125-0.14062-0.015625 0-0.046875-0.03125-0.57812-0.35938 0.34375-0.3125 0.70312-0.95312 0.70312-1.8438 0-1.1562-0.96875-1.9531-2.0781-1.9531-0.98438 0-1.8125 0.65625-2.0156 1.4844z"/>
</g>
<g id="t">
<path d="m-3.75-1.7188h-0.65625l0.10938 1.4375h0.3125c0-0.70312 0.0625-0.78125 0.5-0.78125h4.6562c0.45312 0 0.45312 0.10938 0.45312 0.78125h0.3125c-0.015625-0.34375-0.03125-0.85938-0.03125-1.1094 0-0.28125 0.015625-0.78125 0.03125-1.125h-0.3125c0 0.65625 0 0.76562-0.45312 0.76562h-1.7656c0.17188-0.046875 0.70312-0.46875 0.70312-1.2188 0-1.1875-0.98438-2.2188-2.2656-2.2188-1.2656 0-2.25 0.95312-2.25 2.0781 0 0.78125 0.4375 1.2031 0.65625 1.3906zm2.6094-0.03125h-2.2188c-0.51562-0.28125-0.79688-0.76562-0.79688-1.2812 0-0.73438 0.875-1.3281 2-1.3281 1.2031 0 2.0469 0.6875 2.0469 1.4219 0 0.40625-0.20312 0.78125-0.60938 1.0469-0.20312 0.14062-0.21875 0.14062-0.42188 0.14062z"/>
</g>
<g id="j">
<path d="m-2.5156-1.1094c-1.4844-0.0625-1.7344-0.90625-1.7344-1.25 0-1.0156 1.3438-1.125 1.7344-1.125zm0.21875 0v-2.7812c0-0.21875 0-0.25-0.21875-0.25-0.98438 0-1.9531 0.54688-1.9531 1.7812 0 1.1562 1.0312 2.0781 2.2812 2.0781 1.3281 0 2.2969-1.0469 2.2969-2.1875 0-1.2188-1.1094-1.6719-1.2969-1.6719-0.09375 0-0.125 0.078125-0.125 0.14062 0 0.078125 0.0625 0.10938 0.14062 0.125 1.0312 0.34375 1.0312 1.25 1.0312 1.3438 0 0.5-0.29688 0.89062-0.67188 1.125-0.46875 0.29688-1.125 0.29688-1.4844 0.29688z"/>
</g>
<g id="i">
<path d="m-4.4062-1.7656 0.10938 1.3906h0.3125c0-0.64062 0.0625-0.73438 0.54688-0.73438h2.6875c0.4375 0 0.4375 0.10938 0.4375 0.78125h0.3125c-0.015625-0.3125-0.03125-0.85938-0.03125-1.0938 0-0.35938 0.015625-0.70312 0.03125-1.0469h-0.3125c0 0.67188-0.046875 0.70312-0.4375 0.70312zm-1.7344-0.03125c-0.3125 0-0.53125 0.23438-0.53125 0.51562 0 0.3125 0.26562 0.53125 0.53125 0.53125s0.53125-0.21875 0.53125-0.53125c0-0.28125-0.21875-0.51562-0.53125-0.51562z"/>
</g>
<g id="s">
<path d="m-2.1719-1.1719c-1.625 0-2.0469-0.8125-2.0469-1.3438 0-0.09375 0.015625-0.71875 0.375-1.0625 0.03125 0.40625 0.32812 0.46875 0.45312 0.46875 0.26562 0 0.45312-0.1875 0.45312-0.45312s-0.15625-0.46875-0.46875-0.46875c-0.67188 0-1.0625 0.76562-1.0625 1.5312 0 1.25 1.0781 2.1562 2.3125 2.1562 1.2812 0 2.2656-0.98438 2.2656-2.1406 0-1.3281-1.2031-1.6562-1.2969-1.6562s-0.09375 0.10938-0.09375 0.14062c0 0.078125 0.03125 0.10938 0.09375 0.125 0.92188 0.28125 1.0469 0.9375 1.0469 1.2969 0 0.53125-0.42188 1.4062-2.0312 1.4062z"/>
</g>
<g id="r">
<path d="m-0.75-1.0938c0.4375 0 0.4375 0.10938 0.4375 0.78125h0.3125c-0.015625-0.35938-0.03125-0.85938-0.03125-1.1406 0-0.25 0.015625-0.76562 0.03125-1.1094h-0.3125c0 0.67188 0 0.78125-0.4375 0.78125h-1.8438c-1.0312 0-1.5938-0.71875-1.5938-1.3438 0-0.64062 0.53125-0.75 1.1094-0.75h2.3281c0.4375 0 0.4375 0.10938 0.4375 0.78125h0.3125c-0.015625-0.34375-0.03125-0.85938-0.03125-1.125 0-0.25 0.015625-0.78125 0.03125-1.1094h-0.3125c0 0.51562 0 0.76562-0.29688 0.76562h-1.9062c-0.85938 0-1.1562 0-1.5156 0.3125-0.17188 0.14062-0.375 0.46875-0.375 1.0469 0 0.84375 0.59375 1.2812 0.98438 1.4531h-3.5l0.10938 1.4375h0.3125c0-0.70312 0.0625-0.78125 0.5625-0.78125z"/>
</g>
<g id="q">
<path d="m-3.3125-1.6719h-1.0938l0.10938 1.3906h0.3125c0-0.70312 0.0625-0.78125 0.5625-0.78125h2.6719c0.4375 0 0.4375 0.10938 0.4375 0.78125h0.3125c-0.015625-0.39062-0.03125-0.85938-0.03125-1.1406 0-0.39062 0-0.85938 0.03125-1.2656h-0.3125v0.21875c0 0.73438-0.10938 0.75-0.46875 0.75h-1.5312c-0.98438 0-1.875-0.42188-1.875-1.1719 0-0.0625 0-0.09375 0.015625-0.10938 0 0.03125 0.125 0.23438 0.39062 0.23438s0.42188-0.21875 0.42188-0.4375c0-0.17188-0.125-0.42188-0.4375-0.42188s-0.60938 0.3125-0.60938 0.73438c0 0.73438 0.67188 1.0938 1.0938 1.2188z"/>
</g>
<g id="p">
<path d="m-0.75-3.3125c0.39062-0.046875 0.8125-0.3125 0.8125-0.78125 0-0.21875-0.14062-0.82812-0.95312-0.82812h-0.5625v0.25h0.5625c0.57812 0 0.64062 0.25 0.64062 0.35938 0 0.32812-0.45312 0.375-0.5 0.375h-1.9844c-0.42188 0-0.8125 0-1.1875 0.35938-0.39062 0.39062-0.54688 0.89062-0.54688 1.3594 0 0.82812 0.46875 1.5156 1.125 1.5156 0.29688 0 0.46875-0.20312 0.46875-0.46875 0-0.28125-0.20312-0.45312-0.45312-0.45312-0.125 0-0.45312 0.046875-0.45312 0.51562-0.35938-0.28125-0.46875-0.76562-0.46875-1.0781 0-0.5 0.39062-1.0625 1.2812-1.0625h0.35938c0.03125 0.51562 0.0625 1.2031 0.35938 1.8281 0.34375 0.75 0.85938 1 1.2969 1 0.8125 0 1.0625-0.96875 1.0625-1.5938 0-0.65625-0.40625-1.1094-0.85938-1.2969zm-1.6406 0.0625h1c0.9375 0 1.2812 0.71875 1.2812 1.1719 0 0.48438-0.34375 0.89062-0.84375 0.89062-0.54688 0-1.375-0.42188-1.4375-2.0625z"/>
</g>
<g id="h">
<path d="m-3.7656-1.7188h-3.1562l0.10938 1.4375h0.3125c0-0.70312 0.0625-0.78125 0.5625-0.78125h5.9375v-0.25c-0.015625 0-0.15625-0.078125-0.625-0.35938 0.23438-0.14062 0.73438-0.5625 0.73438-1.2969 0-1.1875-0.98438-2.2188-2.2656-2.2188-1.2656 0-2.25 0.96875-2.25 2.1094 0 0.78125 0.46875 1.2031 0.64062 1.3594zm2.625-0.03125h-2.0469c-0.1875 0-0.20312 0-0.35938-0.10938-0.5625-0.39062-0.64062-0.9375-0.64062-1.1719 0-0.45312 0.26562-0.8125 0.64062-1.0469 0.40625-0.26562 0.96875-0.28125 1.3906-0.28125 0.35938 0 0.95312 0.015625 1.4062 0.29688 0.3125 0.21875 0.64062 0.59375 0.64062 1.125 0 0.45312-0.23438 0.8125-0.60938 1.0469-0.20312 0.14062-0.23438 0.14062-0.42188 0.14062z"/>
</g>
<g id="y">
<path d="m-6.9219-1.7656 0.10938 1.4375h0.3125c0-0.70312 0.0625-0.78125 0.5625-0.78125h5.1875c0.4375 0 0.4375 0.10938 0.4375 0.78125h0.3125c-0.015625-0.32812-0.03125-0.85938-0.03125-1.1094s0.015625-0.73438 0.03125-1.1094h-0.3125c0 0.67188 0 0.78125-0.4375 0.78125z"/>
</g>
<g id="x">
<path d="m-0.54688-3.7812h0.65625l-0.10938-1.4688h-0.3125c0 0.6875-0.0625 0.78125-0.5625 0.78125h-6.0469l0.10938 1.4219h0.3125c0-0.6875 0.0625-0.76562 0.5625-0.76562h2.1562c-0.35938 0.28125-0.625 0.71875-0.625 1.25 0 1.1719 0.98438 2.2188 2.2656 2.2188 1.2656 0 2.25-0.96875 2.25-2.1094 0-0.64062-0.34375-1.0781-0.65625-1.3281zm-2.6719 0h2.0469c0.17188 0 0.1875 0 0.35938 0.10938 0.48438 0.29688 0.70312 0.73438 0.70312 1.1719 0 0.45312-0.26562 0.8125-0.64062 1.0469-0.40625 0.25-0.96875 0.28125-1.3906 0.28125-0.35938 0-0.95312-0.015625-1.4062-0.29688-0.3125-0.21875-0.64062-0.59375-0.64062-1.1406 0-0.34375 0.15625-0.76562 0.59375-1.0625 0.17188-0.10938 0.1875-0.10938 0.375-0.10938z"/>
</g>
<g id="w">
<path d="m-0.78125-3.8906h0.89062l-0.10938-1.4375h-0.3125c0 0.6875-0.0625 0.76562-0.5625 0.76562h-3.5312l0.10938 1.4688h0.3125c0-0.6875 0.0625-0.78125 0.5625-0.78125h1.7656c0.875 0 1.5469 0.48438 1.5469 1.2188 0 0.82812-0.46875 0.875-0.98438 0.875h-3.3125l0.10938 1.4688h0.3125c0-0.78125 0.03125-0.78125 0.90625-0.78125h1.5c0.78125 0 1.6875 0 1.6875-1.5156 0-0.5625-0.28125-1-0.89062-1.2812z"/>
</g>
<g id="v">
<path d="m-3.4219-1.0938h2.6719c0.4375 0 0.4375 0.10938 0.4375 0.78125h0.3125c-0.015625-0.35938-0.03125-0.85938-0.03125-1.1406 0-0.25 0.015625-0.76562 0.03125-1.1094h-0.3125c0 0.67188 0 0.78125-0.4375 0.78125h-1.8438c-1.0312 0-1.5938-0.71875-1.5938-1.3438 0-0.64062 0.53125-0.75 1.1094-0.75h2.3281c0.4375 0 0.4375 0.10938 0.4375 0.78125h0.3125c-0.015625-0.34375-0.03125-0.85938-0.03125-1.125 0-0.25 0.015625-0.78125 0.03125-1.1094h-0.3125c0 0.51562 0 0.76562-0.29688 0.76562h-1.9062c-0.85938 0-1.1562 0-1.5156 0.3125-0.17188 0.14062-0.375 0.46875-0.375 1.0469 0 0.73438 0.42188 1.2031 1.0469 1.4844h-1.0469l0.10938 1.4062h0.3125c0-0.70312 0.0625-0.78125 0.5625-0.78125z"/>
</g>
<g id="u">
<path d="m-1.7188-2.2188c0 0.875-1 0.875-1.2188 0.875-0.26562 0-0.59375-0.015625-0.84375-0.15625-0.10938-0.078125-0.39062-0.3125-0.39062-0.71875 0-0.85938 0.98438-0.85938 1.2188-0.85938 0.26562 0 0.59375 0 0.84375 0.15625 0.10938 0.078125 0.39062 0.3125 0.39062 0.70312zm0.39062 1.1562c-0.03125 0-0.26562 0-0.46875-0.15625 0.28125-0.39062 0.3125-0.8125 0.3125-1 0-0.92188-0.6875-1.6094-1.4531-1.6094-0.375 0-0.73438 0.15625-0.96875 0.40625-0.34375-0.35938-0.39062-0.71875-0.39062-0.89062 0-0.03125 0-0.078125 0.015625-0.10938 0.03125 0.10938 0.14062 0.17188 0.26562 0.17188 0.17188 0 0.28125-0.14062 0.28125-0.29688 0-0.09375-0.0625-0.28125-0.29688-0.28125-0.17188 0-0.48438 0.10938-0.48438 0.5 0 0.20312 0.0625 0.64062 0.46875 1.0625-0.32812 0.42188-0.35938 0.82812-0.35938 1.0469 0 0.9375 0.6875 1.625 1.4531 1.625 0.4375 0 0.8125-0.21875 1.0312-0.46875 0.14062 0.125 0.46875 0.3125 0.82812 0.3125 0.3125 0 0.6875-0.14062 0.89062-0.45312 0.15625 0.60938 0.59375 0.92188 0.98438 0.92188 0.71875 0 1.2656-0.98438 1.2656-2.2031 0-1.1719-0.5-2.2031-1.2812-2.2031-0.34375 0-0.85938 0.125-1.1406 0.64062-0.26562 0.53125-0.26562 1.1094-0.26562 1.7188 0 0.25 0 0.67188-0.015625 0.75-0.046875 0.3125-0.34375 0.51562-0.67188 0.51562zm3.1562-1.4375c0 1.0156-0.51562 1.7031-1.0469 1.7031-0.45312 0-0.82812-0.375-0.84375-0.8125v-0.59375c0-0.85938 0-1.9688 0.84375-1.9688 0.54688 0 1.0469 0.70312 1.0469 1.6719z"/>
</g>
<clipPath id="at">
<path d="m113 104h65v17h-65z"/>
</clipPath>
<clipPath id="as">
<path d="m0.52734-0.64062v166h375v-166zm121.38 115.43-5.6055 0.97656 0.66406 3.7188 5.6055-0.97656-4.9766-1.0391z" clip-rule="evenodd"/>
</clipPath>
<clipPath id="ar">
<path d="m113 118h65v11h-65z"/>
</clipPath>
<clipPath id="aq">
<path d="m0.52734-0.64062v166h375v-166zm121.63 124-5.668 0.40625 0.28125 3.7812 5.6367-0.41016-4.8164-1.543z" clip-rule="evenodd"/>
</clipPath>
<clipPath id="ap">
<path d="m113 129h65v11h-65z"/>
</clipPath>
<clipPath id="ao">
<path d="m0.52734-0.64062v166h375v-166zm121.88 131.81-5.668-0.34766-0.21875 3.7773 5.668 0.34766-4.5977-2.1406z" clip-rule="evenodd"/>
</clipPath>
<clipPath id="an">
<path d="m113 135h65v18h-65z"/>
</clipPath>
<clipPath id="am">
<path d="m0.52734-0.64062v166h375v-166zm122.04 138.39-5.6055-0.97656-0.66406 3.7148 5.6055 1.0117-4.3125-2.6797z" clip-rule="evenodd"/>
</clipPath>
<clipPath id="al">
<path d="m280 142h36v2h-36z"/>
</clipPath>
<clipPath id="ak">
<path d="m0.52734-0.64062v166h375v-166zm310.16 145.57h5.7969v-3.7773h-5.7969l4.7266 1.8906zm-25.359-3.7773h-5.793v3.7773h5.793l-4.7227-1.8867z" clip-rule="evenodd"/>
</clipPath>
</defs>
<path transform="matrix(.1 0 0 -.1 .528 165.36)" d="m3166.2 10.494h567.03v354.38h-567.03z" fill="none" stroke="#000" stroke-miterlimit="10" stroke-width="9.45"/>
<g clip-path="url(#at)">
<g clip-path="url(#as)">
<path transform="matrix(.1 0 0 -.1 .528 165.36)" d="m1734.5 577.49-566.99-99.219" fill="none" stroke="#000" stroke-miterlimit="10" stroke-width="2.3625"/>
</g>
</g>
<path d="m121.91 114.79-4.3125 2.6797 4.9766 1.0391-1.2617-1.7031 0.59766-2.0156" fill-rule="evenodd"/>
<path transform="matrix(.1 0 0 -.1 .528 165.36)" d="m1213.8 505.69-43.125-26.797 49.766-10.391-12.617 17.031z" fill="none" stroke="#000" stroke-miterlimit="10" stroke-width="2.3625"/>
<g clip-path="url(#ar)">
<g clip-path="url(#aq)">
<path transform="matrix(.1 0 0 -.1 .528 165.36)" d="m1734.5 435.77-566.99-38.438" fill="none" stroke="#000" stroke-miterlimit="10" stroke-width="2.3625"/>
</g>
</g>
<path d="m122.16 123.36-4.5664 2.2344 4.8164 1.543-1.0664-1.8242 0.81641-1.9531" fill-rule="evenodd"/>
<path transform="matrix(.1 0 0 -.1 .528 165.36)" d="m1216.3 419.99-45.664-22.344 48.164-15.43-10.664 18.242z" fill="none" stroke="#000" stroke-miterlimit="10" stroke-width="2.3625"/>
<g clip-path="url(#ap)">
<g clip-path="url(#ao)">
<path transform="matrix(.1 0 0 -.1 .528 165.36)" d="m1734.5 294.01-566.99 31.797" fill="none" stroke="#000" stroke-miterlimit="10" stroke-width="2.3625"/>
</g>
</g>
<path d="m122.41 131.17-4.8164 1.6367 4.5977 2.1406-0.84766-1.9531 1.0664-1.8242" fill-rule="evenodd"/>
<path transform="matrix(.1 0 0 -.1 .528 165.36)" d="m1218.8 341.86-48.164-16.367 45.977-21.406-8.4766 19.531z" fill="none" stroke="#000" stroke-miterlimit="10" stroke-width="2.3625"/>
<g clip-path="url(#an)">
<g clip-path="url(#am)">
<path transform="matrix(.1 0 0 -.1 .528 165.36)" d="m1734.5 166.43-566.99 99.531" fill="none" stroke="#000" stroke-miterlimit="10" stroke-width="2.3625"/>
</g>
</g>
<path d="m122.57 137.75-4.9766 1.0703 4.3125 2.6797-0.59766-2.0508 1.2617-1.6992" fill-rule="evenodd"/>
<path transform="matrix(.1 0 0 -.1 .528 165.36)" d="m1220.4 276.04-49.766-10.703 43.125-26.797-5.9766 20.508z" fill="none" stroke="#000" stroke-miterlimit="10" stroke-width="2.3625"/>
<path transform="matrix(.1 0 0 -.1 .528 165.36)" d="m458.74 223.11h708.75v283.52h-708.75z" fill="#bfbfbf" fill-rule="evenodd" stroke="#000" stroke-miterlimit="10" stroke-width="2.3625"/>
<path transform="matrix(.1 0 0 -.1 .528 165.36)" d="m458.74 10.494h708.75v1630.1h-708.75z" fill="none" stroke="#000" stroke-miterlimit="10" stroke-width="9.45"/>
<path transform="matrix(.1 0 0 -.1 .528 165.36)" d="m1734.5 81.392h496.13v566.99h-496.13z" fill="none" stroke="#000" stroke-miterlimit="10" stroke-width="9.45"/>
<path transform="matrix(.1 0 0 -.1 .528 165.36)" d="m1734.5 506.63h496.13" fill="none" stroke="#000" stroke-miterlimit="10" stroke-width="9.45"/>
<path transform="matrix(.1 0 0 -.1 .528 165.36)" d="m1734.5 364.87h496.13" fill="none" stroke="#000" stroke-miterlimit="10" stroke-width="9.45"/>
<path transform="matrix(.1 0 0 -.1 .528 165.36)" d="m1734.5 223.11h496.13" fill="none" stroke="#000" stroke-miterlimit="10" stroke-width="9.45"/>
<g clip-path="url(#al)">
<g clip-path="url(#ak)">
<path transform="matrix(.1 0 0 -.1 .528 165.36)" d="m2797.6 223.11h354.38" fill="none" stroke="#000" stroke-miterlimit="10" stroke-width="4.725"/>
</g>
</g>
<path d="m285.33 141.16-4.7227 1.8906 4.7227 1.8867-0.94141-1.8867 0.94141-1.8906" fill-rule="evenodd"/>
<path transform="matrix(.1 0 0 -.1 .528 165.36)" d="m2848 242.02-47.227-18.906 47.227-18.867-9.4141 18.867z" fill="none" stroke="#000" stroke-miterlimit="10" stroke-width="2.3625"/>
<path d="m310.69 144.93 4.7266-1.8867-4.7266-1.8906 0.94531 1.8906-0.94531 1.8867" fill-rule="evenodd"/>
<path transform="matrix(.1 0 0 -.1 .528 165.36)" d="m3101.6 204.24 47.266 18.867-47.266 18.906 9.4531-18.906z" fill="none" stroke="#000" stroke-miterlimit="10" stroke-width="2.3625"/>
<path transform="matrix(.1 0 0 -.1 .528 165.36)" d="m1663.6 10.494h1134v708.75h-1134z" fill="none" stroke="#000" stroke-miterlimit="10" stroke-width="9.45"/>
<path transform="matrix(.1 0 0 -.1 .528 165.36)" d="m458.74 223.11h708.75" fill="none" stroke="#000" stroke-miterlimit="10" stroke-width="9.45"/>
<path transform="matrix(.1 0 0 -.1 .528 165.36)" d="m458.74 364.87h708.75" fill="none" stroke="#000" stroke-miterlimit="10" stroke-width="9.45"/>
<path transform="matrix(.1 0 0 -.1 .528 165.36)" d="m458.74 294.01h708.75" fill="none" stroke="#000" stroke-miterlimit="10" stroke-width="9.45"/>
<path transform="matrix(.1 0 0 -.1 .528 165.36)" d="m458.74 435.77h708.75" fill="none" stroke="#000" stroke-miterlimit="10" stroke-width="9.45"/>
<path transform="matrix(.1 0 0 -.1 .528 165.36)" d="m458.74 152.25h708.75" fill="none" stroke="#000" stroke-miterlimit="10" stroke-width="9.45"/>
<path transform="matrix(.1 0 0 -.1 .528 165.36)" d="m458.74 81.392h708.75" fill="none" stroke="#000" stroke-miterlimit="10" stroke-width="9.45"/>
<path transform="matrix(.1 0 0 -.1 .528 165.36)" d="m458.74 506.63h708.75" fill="none" stroke="#000" stroke-miterlimit="10" stroke-width="9.45"/>
<g>
<use x="229.236" y="130.3" xlink:href="#aj"/>
<use x="236.43099" y="130.3" xlink:href="#m"/>
<use x="241.41229" y="130.3" xlink:href="#l"/>
<use x="246.668557" y="130.3" xlink:href="#c"/>
<use x="250.543013" y="130.3" xlink:href="#b"/>
<use x="254.445363" y="130.3" xlink:href="#m"/>
<use x="259.426663" y="130.3" xlink:href="#k"/>
<use x="262.194273" y="130.3" xlink:href="#k"/>
<use x="264.961884" y="130.3" xlink:href="#a"/>
<use x="269.389263" y="130.3" xlink:href="#b"/>
<use x="332.962" y="148.727" xlink:href="#ab"/>
<use x="340.779652" y="148.727" xlink:href="#a"/>
<use x="345.207032" y="148.727" xlink:href="#b"/>
<use x="349.11" y="149.161" xlink:href="#aa"/>
<use x="349.11" y="148.727" xlink:href="#o"/>
<use x="354.0913" y="148.727" xlink:href="#c"/>
<use x="50.65" y="28.246" xlink:href="#ai"/>
<use x="58.12195" y="28.246" xlink:href="#o"/>
<use x="63.10325" y="28.246" xlink:href="#ah"/>
<use x="68.638471" y="28.246" xlink:href="#n"/>
<use x="74.173691" y="28.246" xlink:href="#c"/>
<use x="78.048146" y="28.246" xlink:href="#d"/>
<use x="81.977396" y="28.246" xlink:href="#n"/>
<use x="87.791569" y="28.246" xlink:href="#a"/>
<use x="92.218949" y="28.246" xlink:href="#e"/>
<use x="94.986559" y="28.246" xlink:href="#ag"/>
<use x="99.134985" y="28.246" xlink:href="#af"/>
<use x="104.670206" y="28.246" xlink:href="#a"/>
<use x="109.097585" y="28.246" xlink:href="#b"/>
<use x="178.813" y="110.456" xlink:href="#g"/>
<use x="186.14647" y="110.456" xlink:href="#a"/>
<use x="190.573849" y="110.456" xlink:href="#f"/>
<use x="195.555149" y="110.456" xlink:href="#e"/>
<use x="198.32276" y="110.456" xlink:href="#d"/>
<use x="202.252009" y="110.456" xlink:href="#c"/>
<use x="206.126464" y="110.456" xlink:href="#a"/>
<use x="210.553844" y="110.456" xlink:href="#b"/>
<use x="178.813" y="124.631" xlink:href="#g"/>
<use x="186.14647" y="124.631" xlink:href="#a"/>
<use x="190.573849" y="124.631" xlink:href="#f"/>
<use x="195.555149" y="124.631" xlink:href="#e"/>
<use x="198.32276" y="124.631" xlink:href="#d"/>
<use x="202.252009" y="124.631" xlink:href="#c"/>
<use x="206.126464" y="124.631" xlink:href="#a"/>
<use x="210.553844" y="124.631" xlink:href="#b"/>
<use x="178.813" y="152.979" xlink:href="#g"/>
<use x="186.14647" y="152.979" xlink:href="#a"/>
<use x="190.573849" y="152.979" xlink:href="#f"/>
<use x="195.555149" y="152.979" xlink:href="#e"/>
<use x="198.32276" y="152.979" xlink:href="#d"/>
<use x="202.252009" y="152.979" xlink:href="#c"/>
<use x="206.126464" y="152.979" xlink:href="#a"/>
<use x="210.553844" y="152.979" xlink:href="#b"/>
<use x="178.813" y="138.805" xlink:href="#g"/>
<use x="186.14647" y="138.805" xlink:href="#a"/>
<use x="190.573849" y="138.805" xlink:href="#f"/>
<use x="195.555149" y="138.805" xlink:href="#e"/>
<use x="198.32276" y="138.805" xlink:href="#d"/>
<use x="202.252009" y="138.805" xlink:href="#c"/>
<use x="206.126464" y="138.805" xlink:href="#a"/>
<use x="210.553844" y="138.805" xlink:href="#b"/>
<use x="144.191" y="109.039" xlink:href="#z"/>
<use x="144.191" y="103.503779" xlink:href="#t"/>
<use x="144.191" y="97.689606" xlink:href="#j"/>
<use x="144.191" y="93.262227" xlink:href="#i"/>
<use x="144.191" y="90.494616" xlink:href="#s"/>
<use x="144.191" y="86.34619" xlink:href="#r"/>
<use x="144.191" y="80.810969" xlink:href="#j"/>
<use x="144.191" y="76.38359" xlink:href="#q"/>
<use x="144.191" y="72.481239" xlink:href="#p"/>
<use x="144.191" y="67.499939" xlink:href="#h"/>
<use x="144.191" y="61.964719" xlink:href="#h"/>
<use x="144.191" y="56.429498" xlink:href="#i"/>
<use x="144.191" y="53.661888" xlink:href="#y"/>
<use x="144.191" y="50.894278" xlink:href="#x"/>
<use x="144.191" y="45.359057" xlink:href="#w"/>
<use x="144.191" y="39.823836" xlink:href="#v"/>
<use x="144.191" y="34.288616" xlink:href="#u"/>
<use x="0.144" y="120.378" xlink:href="#ae"/>
<use x="7.61595" y="120.378" xlink:href="#ad"/>
<use x="13.151171" y="120.378" xlink:href="#b"/>
<use x="17.053521" y="120.378" xlink:href="#a"/>
<use x="21.4809" y="120.378" xlink:href="#d"/>
<use x="25.41015" y="120.378" xlink:href="#d"/>
<use x="29.339399" y="120.378" xlink:href="#a"/>
<use x="33.766779" y="120.378" xlink:href="#l"/>
<use x="34.321" y="162.901" xlink:href="#ac"/>
</g>
</svg>
