<svg width="71pt" height="31pt" version="1.1" viewBox="0 0 71 31" xmlns="http://www.w3.org/2000/svg" xmlns:xlink="http://www.w3.org/1999/xlink">
<defs>
<g id="e">
<path d="m6.4844-5.6094c0-0.54688-0.03125-0.70312-0.20312-1.0625-0.4375-0.92188-1.3594-1.3906-2.7031-1.3906-1.7344 0-2.8125 0.89062-2.8125 2.3281 0 0.96875 0.51562 1.5781 1.5469 1.8438l1.9844 0.53125c1 0.25 1.4531 0.65625 1.4531 1.2812 0 0.42188-0.23438 0.85938-0.5625 1.0938-0.3125 0.23438-0.82812 0.34375-1.4688 0.34375-0.85938 0-1.4375-0.20312-1.8281-0.67188-0.29688-0.34375-0.42188-0.71875-0.40625-1.2188h-0.96875c0.015625 0.73438 0.15625 1.2188 0.46875 1.6562 0.54688 0.75 1.4688 1.125 2.6719 1.125 0.95312 0 1.7188-0.21875 2.2344-0.60938 0.53125-0.42188 0.875-1.125 0.875-1.8125 0-0.98438-0.60938-1.7031-1.6875-2l-2-0.53125c-0.95312-0.26562-1.2969-0.5625-1.2969-1.1719 0-0.8125 0.70312-1.3438 1.7656-1.3438 1.2656 0 1.9688 0.5625 1.9844 1.6094z"/>
</g>
<g id="b">
<path d="m5.125-3.7969c-0.03125-0.54688-0.15625-0.90625-0.375-1.2188-0.39062-0.53125-1.0781-0.85938-1.875-0.85938-1.5469 0-2.5312 1.2188-2.5312 3.125 0 1.8281 0.96875 3 2.5156 3 1.3594 0 2.2344-0.8125 2.3281-2.2031h-0.90625c-0.15625 0.90625-0.625 1.3594-1.3906 1.3594-1 0-1.6094-0.8125-1.6094-2.1562 0-1.4375 0.59375-2.2812 1.5781-2.2812 0.76562 0 1.25 0.45312 1.3594 1.2344z"/>
</g>
<g id="a">
<path d="m0.76562-7.9375v7.9375h0.90625v-3.1406c0-1.1719 0.60938-1.9375 1.5469-1.9375 0.29688 0 0.57812 0.09375 0.79688 0.25 0.26562 0.20312 0.375 0.46875 0.375 0.875v3.9531h0.90625v-4.3125c0-0.95312-0.6875-1.5625-1.7969-1.5625-0.8125 0-1.2969 0.25-1.8281 0.95312v-3.0156z"/>
</g>
<g id="d">
<path d="m1.6406-5.7031h-0.90625v5.7031h0.90625zm0-2.2344h-0.92188v1.1406h0.92188z"/>
</g>
<g id="c">
<path d="m2.7656-5.7031h-0.9375v-1.5781h-0.90625v1.5781h-0.76562v0.73438h0.76562v4.3125c0 0.59375 0.39062 0.90625 1.1094 0.90625 0.23438 0 0.4375-0.015625 0.73438-0.078125v-0.76562c-0.125 0.03125-0.25 0.046875-0.4375 0.046875-0.39062 0-0.5-0.10938-0.5-0.51562v-3.9062h0.9375z"/>
</g>
</defs>
<path transform="matrix(.1 0 0 -.1 -.472 31.115)" d="m16.634 15.838h680.39v285.78h-680.39z" fill="none" stroke="#000" stroke-miterlimit="10" stroke-width="18.144"/>
<g>
<use x="17.3647" y="18.6455" xlink:href="#e"/>
<use x="24.625929" y="18.6455" xlink:href="#b"/>
<use x="30.069129" y="18.6455" xlink:href="#a"/>
<use x="36.121967" y="18.6455" xlink:href="#d"/>
<use x="38.538748" y="18.6455" xlink:href="#b"/>
<use x="43.981948" y="18.6455" xlink:href="#a"/>
<use x="50.034786" y="18.6455" xlink:href="#c"/>
</g>
</svg>
