<svg width="349pt" height="243pt" version="1.1" viewBox="0 0 349 243" xmlns="http://www.w3.org/2000/svg" xmlns:xlink="http://www.w3.org/1999/xlink">
<defs>
<g id="z">
<path d="m2.4844-4.9844c-0.60938-0.15625-1.1406-0.75-1.1406-1.5156 0-0.84375 0.67188-1.5938 1.5938-1.5938 1.9688 0 2.2188 1.9375 2.2969 2.4531 0.03125 0.14062 0.03125 0.1875 0.14062 0.1875 0.14062 0 0.14062-0.0625 0.14062-0.26562v-2.4219c0-0.21875 0-0.28125-0.125-0.28125-0.03125 0-0.078125 0-0.17188 0.15625l-0.39062 0.73438c-0.57812-0.73438-1.3594-0.89062-1.8906-0.89062-1.3281 0-2.2969 1.0781-2.2969 2.2969 0 0.5625 0.20312 1.0938 0.65625 1.5781 0.40625 0.45312 0.82812 0.5625 1.6719 0.78125 0.42188 0.09375 1.0781 0.26562 1.25 0.32812 0.5625 0.28125 0.9375 0.92188 0.9375 1.5938 0 0.90625-0.64062 1.75-1.625 1.75-0.54688 0-1.2812-0.14062-1.875-0.64062-0.6875-0.625-0.73438-1.4844-0.75-1.8906-0.015625-0.09375-0.10938-0.09375-0.125-0.09375-0.14062 0-0.14062 0.0625-0.14062 0.28125v2.4062c0 0.21875 0 0.28125 0.125 0.28125 0.078125 0 0.078125-0.015625 0.17188-0.17188 0.046875-0.09375 0.29688-0.53125 0.39062-0.71875 0.42188 0.48438 1.1875 0.89062 2.2031 0.89062 1.3438 0 2.3125-1.1406 2.3125-2.4531 0-0.71875-0.28125-1.2656-0.59375-1.6562-0.4375-0.54688-0.98438-0.67188-1.4531-0.79688z"/>
</g>
<g id="r">
<path d="m4.8438-4c0.3125-0.79688 0.875-0.8125 1.1094-0.8125v-0.34375c-0.34375 0.03125-0.51562 0.03125-0.89062 0.03125-0.28125 0-0.3125 0-0.96875-0.03125v0.34375c0.4375 0.03125 0.54688 0.3125 0.54688 0.51562 0 0.10938-0.03125 0.17188-0.078125 0.29688l-1.2188 3.0156-1.3281-3.2656c-0.0625-0.15625-0.0625-0.23438-0.0625-0.25 0-0.3125 0.40625-0.3125 0.65625-0.3125v-0.34375c-0.3125 0.03125-0.90625 0.03125-1.2344 0.03125-0.45312 0-0.48438 0-1.1562-0.03125v0.34375c0.6875 0 0.78125 0.0625 0.9375 0.4375l1.7812 4.375c-0.51562 1.2656-0.51562 1.2969-0.57812 1.3906-0.20312 0.35938-0.51562 0.8125-1.0625 0.8125-0.35938 0-0.59375-0.21875-0.59375-0.21875s0.42188-0.046875 0.42188-0.46875c0-0.28125-0.23438-0.4375-0.4375-0.4375s-0.45312 0.10938-0.45312 0.46875c0 0.45312 0.4375 0.89062 1.0625 0.89062 0.67188 0 1.1719-0.57812 1.4688-1.3438z"/>
</g>
<g id="d">
<path d="m3.9219-5.0625c0-0.20312 0-0.26562-0.125-0.26562-0.09375 0-0.3125 0.26562-0.40625 0.375-0.35938-0.3125-0.73438-0.375-1.125-0.375-1.4375 0-1.875 0.78125-1.875 1.4375 0 0.14062 0 0.5625 0.45312 0.96875 0.39062 0.34375 0.79688 0.42188 1.3438 0.53125 0.65625 0.125 0.8125 0.17188 1.1094 0.40625 0.21875 0.17188 0.375 0.4375 0.375 0.78125 0 0.51562-0.29688 1.0781-1.3594 1.0781-0.78125 0-1.3594-0.45312-1.625-1.6406-0.046875-0.21875-0.046875-0.23438-0.046875-0.25-0.03125-0.046875-0.078125-0.046875-0.10938-0.046875-0.14062 0-0.14062 0.0625-0.14062 0.28125v1.625c0 0.21875 0 0.28125 0.125 0.28125 0.0625 0 0.0625-0.015625 0.26562-0.26562 0.0625-0.09375 0.0625-0.10938 0.25-0.29688 0.45312 0.5625 1.0938 0.5625 1.2969 0.5625 1.25 0 1.875-0.70312 1.875-1.6406 0-0.64062-0.39062-1.0312-0.5-1.1406-0.42188-0.375-0.75-0.4375-1.5469-0.57812-0.34375-0.078125-1.2188-0.25-1.2188-0.96875 0-0.35938 0.25-0.90625 1.3281-0.90625 1.2969 0 1.375 1.1094 1.3906 1.4688 0.015625 0.10938 0.09375 0.10938 0.14062 0.10938 0.125 0 0.125-0.0625 0.125-0.28125z"/>
</g>
<g id="c">
<path d="m2.0156-4.8125h1.6719v-0.34375h-1.6719v-2.1875h-0.26562c-0.015625 1.1094-0.45312 2.2656-1.5312 2.2969v0.23438h1.0156v3.3281c0 1.3281 0.875 1.6094 1.5156 1.6094 0.75 0 1.1406-0.75 1.1406-1.6094v-0.67188h-0.25v0.65625c0 0.85938-0.35938 1.3594-0.8125 1.3594-0.8125 0-0.8125-1.1094-0.8125-1.3125z"/>
</g>
<g id="a">
<path d="m4.5781-2.7656c0.26562 0 0.28125 0 0.28125-0.23438 0-1.2031-0.64062-2.3281-2.0938-2.3281-1.3594 0-2.4062 1.2344-2.4062 2.7031 0 1.5781 1.2188 2.75 2.5469 2.75 1.4219 0 1.9531-1.2969 1.9531-1.5469 0-0.078125-0.046875-0.125-0.125-0.125-0.09375 0-0.125 0.0625-0.14062 0.125-0.3125 1-1.1094 1.2812-1.625 1.2812-0.5 0-1.7031-0.34375-1.7031-2.4062v-0.21875zm-3.2969-0.23438c0.09375-1.875 1.1406-2.0938 1.4844-2.0938 1.2812 0 1.3438 1.6875 1.3594 2.0938z"/>
</g>
<g id="m">
<path d="m8.5781-2.9062c0-1.1094 0-1.4375-0.28125-1.8281-0.34375-0.46875-0.90625-0.53125-1.3125-0.53125-1 0-1.5 0.71875-1.6875 1.1719-0.17188-0.92188-0.8125-1.1719-1.5625-1.1719-1.1719 0-1.625 0.98438-1.7188 1.2188v-1.2188l-1.6406 0.125v0.34375c0.8125 0 0.92188 0.09375 0.92188 0.67188v3.2344c0 0.54688-0.14062 0.54688-0.92188 0.54688v0.34375c0.3125-0.03125 0.96875-0.03125 1.2969-0.03125 0.34375 0 1 0 1.2969 0.03125v-0.34375c-0.75 0-0.90625 0-0.90625-0.54688v-2.2188c0-1.25 0.82812-1.9219 1.5781-1.9219 0.73438 0 0.90625 0.60938 0.90625 1.3438v2.7969c0 0.54688-0.14062 0.54688-0.90625 0.54688v0.34375c0.29688-0.03125 0.95312-0.03125 1.2812-0.03125 0.34375 0 1 0 1.3125 0.03125v-0.34375c-0.76562 0-0.92188 0-0.92188-0.54688v-2.2188c0-1.25 0.82812-1.9219 1.5781-1.9219 0.73438 0 0.90625 0.60938 0.90625 1.3438v2.7969c0 0.54688-0.14062 0.54688-0.90625 0.54688v0.34375c0.3125-0.03125 0.95312-0.03125 1.2812-0.03125 0.34375 0 1 0 1.3125 0.03125v-0.34375c-0.60938 0-0.90625 0-0.90625-0.35938z"/>
</g>
<g id="e">
<path d="m4.6094-3.1875c0-0.65625 0-1.125-0.51562-1.5938-0.42188-0.375-0.96875-0.54688-1.4844-0.54688-0.98438 0-1.7344 0.64062-1.7344 1.4219 0 0.34375 0.21875 0.51562 0.5 0.51562s0.48438-0.20312 0.48438-0.5c0-0.48438-0.42188-0.48438-0.60938-0.48438 0.28125-0.5 0.85938-0.71875 1.3281-0.71875 0.54688 0 1.2656 0.45312 1.2656 1.5312v0.48438c-2.4062 0.03125-3.3125 1.0312-3.3125 1.9531 0 0.95312 1.0938 1.25 1.8281 1.25 0.78125 0 1.3281-0.48438 1.5469-1.0625 0.046875 0.5625 0.42188 1 0.9375 1 0.25 0 0.9375-0.17188 0.9375-1.125v-0.67188h-0.26562v0.67188c0 0.6875-0.28125 0.78125-0.45312 0.78125-0.45312 0-0.45312-0.64062-0.45312-0.8125zm-0.76562 1.5c0 1.1719-0.875 1.5625-1.3906 1.5625-0.59375 0-1.0781-0.42188-1.0781-1 0-1.5781 2.0312-1.7188 2.4688-1.75z"/>
</g>
<g id="l">
<path d="m3.6406-5.1406v0.34375c0.8125 0 0.90625 0.09375 0.90625 0.67188v2.1406c0 1.0156-0.54688 1.8594-1.4375 1.8594-0.98438 0-1.0469-0.5625-1.0469-1.1875v-3.9531l-1.6875 0.125v0.34375c0.92188 0 0.92188 0.046875 0.92188 1.1094v1.7812c0 0.75 0 1.1719 0.35938 1.5781 0.28125 0.29688 0.76562 0.45312 1.375 0.45312 0.20312 0 0.59375 0 1-0.35938 0.34375-0.26562 0.53125-0.71875 0.53125-0.71875v1.0781l1.6719-0.125v-0.34375c-0.8125 0-0.92188-0.09375-0.92188-0.67188v-4.25z"/>
</g>
<g id="u">
<path d="m2.0625-4.8125h1.3438v-0.34375h-1.375v-1.3906c0-1.0781 0.54688-1.625 1.0469-1.625 0.09375 0 0.26562 0.015625 0.40625 0.09375-0.046875 0.015625-0.34375 0.125-0.34375 0.46875 0 0.26562 0.1875 0.46875 0.46875 0.46875s0.48438-0.20312 0.48438-0.48438c0-0.4375-0.4375-0.79688-1.0156-0.79688-0.82812 0-1.7812 0.65625-1.7812 1.875v1.3906h-0.92188v0.34375h0.92188v3.9219c0 0.54688-0.125 0.54688-0.90625 0.54688v0.34375c0.34375-0.03125 1-0.03125 1.3594-0.03125 0.3125 0 1.1719 0 1.4375 0.03125v-0.34375h-0.23438c-0.875 0-0.89062-0.14062-0.89062-0.5625z"/>
</g>
<g id="b">
<path d="m2-2.7812c0-1.1562 0.46875-2.25 1.3906-2.25 0.09375 0 0.125 0 0.17188 0.015625-0.09375 0.046875-0.28125 0.10938-0.28125 0.4375 0 0.34375 0.26562 0.48438 0.45312 0.48438 0.25 0 0.48438-0.15625 0.48438-0.48438 0-0.35938-0.32812-0.6875-0.84375-0.6875-1.0156 0-1.3594 1.0938-1.4219 1.3281h-0.015625v-1.3281l-1.6094 0.125v0.34375c0.8125 0 0.92188 0.09375 0.92188 0.67188v3.2344c0 0.54688-0.14062 0.54688-0.92188 0.54688v0.34375c0.34375-0.03125 1-0.03125 1.3594-0.03125 0.32812 0 1.1719 0 1.4375 0.03125v-0.34375h-0.23438c-0.875 0-0.89062-0.14062-0.89062-0.5625z"/>
</g>
<g id="ae">
<path d="m0.51562-8.1562v0.34375h0.23438c0.85938 0 0.90625 0.10938 0.90625 0.5625v6.3438c0 0.4375-0.046875 0.5625-0.90625 0.5625h-0.23438v0.34375h4.5c1.5312 0 2.6094-1.0469 2.6094-2.1875 0-0.96875-0.875-1.9219-2.2969-2.0781 1.1406-0.21875 1.9688-0.98438 1.9688-1.875 0-1.0312-1.0469-2.0156-2.6094-2.0156zm2.0469 3.7969v-2.9844c0-0.39062 0.015625-0.46875 0.54688-0.46875h1.5c1.2031 0 1.625 1.0156 1.625 1.6719 0 0.78125-0.60938 1.7812-1.9375 1.7812zm0.54688 4.0156c-0.53125 0-0.54688-0.09375-0.54688-0.48438v-3.2969h2.2344c1.1406 0 1.7344 1 1.7344 1.9219 0 0.96875-0.71875 1.8594-1.8906 1.8594z"/>
</g>
<g id="i">
<path d="m5.3125-2.9062c0-1.1094 0-1.4375-0.26562-1.8281-0.34375-0.46875-0.90625-0.53125-1.3125-0.53125-1.1719 0-1.625 0.98438-1.7188 1.2188v-1.2188l-1.6406 0.125v0.34375c0.8125 0 0.92188 0.09375 0.92188 0.67188v3.2344c0 0.54688-0.14062 0.54688-0.92188 0.54688v0.34375c0.3125-0.03125 0.96875-0.03125 1.2969-0.03125 0.34375 0 1 0 1.2969 0.03125v-0.34375c-0.75 0-0.90625 0-0.90625-0.54688v-2.2188c0-1.25 0.82812-1.9219 1.5781-1.9219 0.73438 0 0.90625 0.60938 0.90625 1.3438v2.7969c0 0.54688-0.14062 0.54688-0.90625 0.54688v0.34375c0.29688-0.03125 0.95312-0.03125 1.2812-0.03125 0.34375 0 1 0 1.3125 0.03125v-0.34375c-0.60938 0-0.90625 0-0.92188-0.35938z"/>
</g>
<g id="am">
<path d="m4.5469-4.8125c0.10938-0.14062 0.10938-0.15625 0.10938-0.20312 0-0.14062-0.078125-0.14062-0.28125-0.14062h-3.75l-0.14062 1.9062h0.26562c0.078125-1.2188 0.29688-1.6562 1.6094-1.6562h1.375l-3.4062 4.6875c0 0.21875 0.015625 0.21875 0.28125 0.21875h3.8906l0.20312-2.2031h-0.26562c-0.10938 1.3594-0.3125 1.9375-1.7344 1.9375h-1.4531z"/>
</g>
<g id="t">
<path d="m3.2344-2.2656v-0.64062h-3.1094v0.64062z"/>
</g>
<g id="y">
<path d="m2.6094-3.7969h2.0156c1.4062 0 2.6719-0.95312 2.6719-2.1562 0-1.1562-1.1562-2.2031-2.7656-2.2031h-4.0312v0.34375h0.23438c0.875 0 0.90625 0.10938 0.90625 0.5625v6.3438c0 0.4375-0.03125 0.5625-0.90625 0.5625h-0.23438v0.34375c0.28125-0.03125 1.2656-0.03125 1.6094-0.03125 0.35938 0 1.3438 0 1.625 0.03125v-0.34375h-0.23438c-0.85938 0-0.89062-0.125-0.89062-0.5625zm-0.03125-0.29688v-3.25c0-0.39062 0.03125-0.46875 0.54688-0.46875h1.125c1.9375 0 1.9375 1.3438 1.9375 1.8594 0 0.5 0 1.8594-1.9375 1.8594z"/>
</g>
<g id="k">
<path d="m5.4844-2.5625c0-1.5312-1.1719-2.7656-2.5625-2.7656-1.4219 0-2.5625 1.2656-2.5625 2.7656 0 1.5312 1.1875 2.6875 2.5625 2.6875 1.4062 0 2.5625-1.1719 2.5625-2.6875zm-2.5625 2.4219c-0.4375 0-0.96875-0.1875-1.3125-0.78125-0.32812-0.53125-0.34375-1.2344-0.34375-1.75 0-0.45312 0-1.1719 0.375-1.7188 0.32812-0.51562 0.85938-0.70312 1.2812-0.70312 0.45312 0 0.96875 0.21875 1.2812 0.6875 0.375 0.54688 0.375 1.2969 0.375 1.7344 0 0.42188 0 1.1719-0.3125 1.7344-0.32812 0.5625-0.89062 0.79688-1.3438 0.79688z"/>
</g>
<g id="s">
<path d="m1.4219-2.1562c0.5625 0.35938 1.0469 0.35938 1.1719 0.35938 1.0781 0 1.875-0.8125 1.875-1.7344 0-0.3125-0.09375-0.76562-0.46875-1.1562 0.45312-0.46875 1.0156-0.46875 1.0781-0.46875 0.046875 0 0.10938 0 0.15625 0.015625-0.125 0.046875-0.17188 0.17188-0.17188 0.29688 0 0.17188 0.10938 0.3125 0.29688 0.3125 0.10938 0 0.3125-0.0625 0.3125-0.32812 0-0.20312-0.15625-0.54688-0.57812-0.54688-0.625 0-1.0938 0.39062-1.25 0.5625-0.35938-0.26562-0.78125-0.42188-1.2344-0.42188-1.0781 0-1.875 0.8125-1.875 1.7344 0 0.67188 0.40625 1.1094 0.53125 1.2188-0.14062 0.1875-0.35938 0.53125-0.35938 1 0 0.6875 0.42188 0.98438 0.51562 1.0469-0.54688 0.15625-1.0938 0.59375-1.0938 1.2031 0 0.82812 1.125 1.5156 2.5938 1.5156 1.4219 0 2.5938-0.64062 2.5938-1.5312 0-0.29688-0.078125-1-0.79688-1.375-0.60938-0.3125-1.2031-0.3125-2.2344-0.3125-0.73438 0-0.8125 0-1.0312-0.21875-0.10938-0.125-0.21875-0.35938-0.21875-0.60938 0-0.20312 0.0625-0.40625 0.1875-0.5625zm1.1875 0.10938c-1.0625 0-1.0625-1.2031-1.0625-1.4844 0-0.20312 0-0.70312 0.20312-1.0156 0.23438-0.35938 0.59375-0.46875 0.84375-0.46875 1.0469 0 1.0469 1.2031 1.0469 1.4844 0 0.20312 0 0.70312-0.20312 1.0156-0.21875 0.35938-0.57812 0.46875-0.82812 0.46875zm0.3125 4.25c-1.1406 0-2.0156-0.59375-2.0156-1.2656 0-0.09375 0.03125-0.5625 0.48438-0.875 0.26562-0.17188 0.35938-0.17188 1.2031-0.17188 0.98438 0 2.3438 0 2.3438 1.0469 0 0.70312-0.90625 1.2656-2.0156 1.2656z"/>
</g>
<g id="f">
<path d="m2.0781-7.3594c0-0.3125-0.25-0.59375-0.57812-0.59375-0.3125 0-0.57812 0.25-0.57812 0.57812 0 0.35938 0.28125 0.57812 0.57812 0.57812 0.35938 0 0.57812-0.29688 0.57812-0.5625zm-1.6406 2.2188v0.34375c0.75 0 0.85938 0.078125 0.85938 0.65625v3.25c0 0.54688-0.125 0.54688-0.90625 0.54688v0.34375c0.34375-0.03125 0.90625-0.03125 1.2656-0.03125 0.125 0 0.8125 0 1.2188 0.03125v-0.34375c-0.76562 0-0.8125-0.0625-0.8125-0.53125v-4.3906z"/>
</g>
<g id="o">
<path d="m4.3281-4.4219c-0.14062 0-0.59375 0-0.59375 0.48438 0 0.29688 0.20312 0.5 0.5 0.5 0.26562 0 0.5-0.17188 0.5-0.51562 0-0.79688-0.84375-1.375-1.8125-1.375-1.3906 0-2.5 1.2344-2.5 2.75 0 1.5312 1.1406 2.7031 2.5 2.7031 1.5781 0 1.9375-1.4375 1.9375-1.5469s-0.09375-0.10938-0.125-0.10938c-0.10938 0-0.125 0.03125-0.15625 0.1875-0.26562 0.84375-0.90625 1.2031-1.5469 1.2031-0.73438 0-1.7031-0.64062-1.7031-2.4531 0-1.9844 1.0156-2.4688 1.6094-2.4688 0.45312 0 1.1094 0.17188 1.3906 0.64062z"/>
</g>
<g id="q">
<path d="m5.3125-2.9062c0-1.1094 0-1.4375-0.26562-1.8281-0.34375-0.46875-0.90625-0.53125-1.3125-0.53125-1.0312 0-1.5156 0.76562-1.6719 1.1406h-0.015625v-4.1719l-1.6719 0.14062v0.34375c0.8125 0 0.92188 0.078125 0.92188 0.67188v6.25c0 0.54688-0.14062 0.54688-0.92188 0.54688v0.34375c0.3125-0.03125 0.96875-0.03125 1.2969-0.03125 0.34375 0 1 0 1.2969 0.03125v-0.34375c-0.75 0-0.90625 0-0.90625-0.54688v-2.2188c0-1.25 0.82812-1.9219 1.5781-1.9219 0.73438 0 0.90625 0.60938 0.90625 1.3438v2.7969c0 0.54688-0.14062 0.54688-0.90625 0.54688v0.34375c0.29688-0.03125 0.95312-0.03125 1.2812-0.03125 0.34375 0 1 0 1.3125 0.03125v-0.34375c-0.60938 0-0.90625 0-0.92188-0.35938z"/>
</g>
<g id="h">
<path d="m2.0625-8.2969-1.6719 0.14062v0.34375c0.8125 0 0.90625 0.078125 0.90625 0.67188v6.25c0 0.54688-0.125 0.54688-0.90625 0.54688v0.34375c0.34375-0.03125 0.92188-0.03125 1.2812-0.03125s0.95312 0 1.2969 0.03125v-0.34375c-0.76562 0-0.90625 0-0.90625-0.54688z"/>
</g>
<g id="j">
<path d="m3.5781-8.1562v0.34375c0.82812 0 0.92188 0.078125 0.92188 0.67188v2.6406c-0.25-0.35938-0.76562-0.76562-1.5-0.76562-1.3906 0-2.5781 1.1719-2.5781 2.7031 0 1.5156 1.125 2.6875 2.4531 2.6875 0.90625 0 1.4219-0.60938 1.5938-0.82812v0.82812l1.6875-0.125v-0.34375c-0.8125 0-0.90625-0.09375-0.90625-0.67188v-7.2812zm0.89062 6.75c0 0.21875 0 0.26562-0.17188 0.51562-0.28125 0.42188-0.76562 0.76562-1.375 0.76562-0.29688 0-1.5938-0.10938-1.5938-2.4375 0-0.85938 0.14062-1.3281 0.40625-1.7344 0.23438-0.35938 0.71875-0.73438 1.3125-0.73438 0.75 0 1.1562 0.53125 1.2812 0.73438 0.14062 0.20312 0.14062 0.21875 0.14062 0.4375z"/>
</g>
<g id="ad">
<path d="m6.8125-3.0625h-0.26562c-0.10938 1.2031-0.26562 2.7188-2.3594 2.7188h-1.0469c-0.51562 0-0.54688-0.09375-0.54688-0.48438v-6.4219c0-0.42188 0.03125-0.5625 1.0625-0.5625h0.35938v-0.34375c-0.34375 0.015625-1.3906 0.015625-1.8125 0.015625-0.35938 0-1.4219 0-1.7188-0.015625v0.34375h0.25c0.85938 0 0.89062 0.10938 0.89062 0.5625v6.3438c0 0.4375-0.03125 0.5625-0.89062 0.5625h-0.25v0.34375h6.0156z"/>
</g>
<g id="x">
<path d="m2-8.2969-1.6719 0.14062v0.34375c0.8125 0 0.92188 0.078125 0.92188 0.67188v7.1406h0.25c0.046875-0.09375 0.39062-0.6875 0.4375-0.78125 0.28125 0.45312 0.78125 0.90625 1.5469 0.90625 1.375 0 2.5938-1.1719 2.5938-2.7031 0-1.5156-1.125-2.6875-2.4531-2.6875-0.65625 0-1.2188 0.29688-1.625 0.79688zm0.015625 4.4688c0-0.21875 0-0.23438 0.14062-0.42188 0.28125-0.4375 0.8125-0.78125 1.3906-0.78125 0.35938 0 1.6094 0.14062 1.6094 2.4375 0 0.79688-0.10938 1.2969-0.40625 1.7344-0.23438 0.375-0.70312 0.73438-1.3125 0.73438-0.64062 0-1.0625-0.40625-1.2656-0.73438-0.15625-0.25-0.15625-0.29688-0.15625-0.5z"/>
</g>
<g id="ac">
<path d="m6.8125-2.75c0 1.6719-1.1406 2.6562-2.2656 2.6562-0.70312 0-1.9531-0.48438-1.9531-2.5781v-4.5781c0-0.45312 0.03125-0.5625 0.89062-0.5625h0.25v-0.34375c-0.29688 0.015625-1.2656 0.015625-1.625 0.015625s-1.3281 0-1.625-0.015625v0.34375h0.25c0.85938 0 0.89062 0.10938 0.89062 0.5625v4.5156c0 1.7344 1.3906 2.9844 2.9062 2.9844 1.6562 0 2.6094-1.625 2.6094-2.8125v-4.5312c0-0.71875 0.92188-0.71875 1.125-0.71875v-0.34375c-0.3125 0.015625-0.95312 0.015625-1.2812 0.015625-0.34375 0-1 0-1.3125-0.015625v0.34375c1.1406 0 1.1406 0.5625 1.1406 0.875z"/>
</g>
<g id="w">
<path d="m3.8906 2.9062c0-0.03125 0-0.0625-0.20312-0.26562-1.2031-1.2031-1.875-3.1719-1.875-5.6094 0-2.3281 0.5625-4.3281 1.9531-5.7344 0.125-0.10938 0.125-0.125 0.125-0.17188 0-0.0625-0.0625-0.09375-0.10938-0.09375-0.15625 0-1.1406 0.85938-1.7188 2.0312-0.60938 1.2188-0.89062 2.4844-0.89062 3.9688 0 1.0625 0.17188 2.4844 0.78125 3.75 0.71875 1.4375 1.6875 2.2188 1.8281 2.2188 0.046875 0 0.10938-0.03125 0.10938-0.09375z"/>
</g>
<g id="g">
<path d="m2.3281 0.046875c0-0.73438-0.25-1.2031-0.71875-1.2031-0.34375 0-0.5625 0.26562-0.5625 0.57812s0.21875 0.57812 0.57812 0.57812c0.1875 0 0.3125-0.078125 0.39062-0.14062 0.03125-0.03125 0.046875-0.03125 0.046875-0.03125 0.03125 0 0.03125 0.15625 0.03125 0.21875 0 0.76562-0.3125 1.4844-0.84375 2.0312-0.046875 0.03125-0.0625 0.0625-0.0625 0.10938 0 0.0625 0.0625 0.125 0.125 0.125 0.10938 0 1.0156-0.89062 1.0156-2.2656z"/>
</g>
<g id="p">
<path d="m2.9219 1.9688c-0.76562 0-0.90625 0-0.90625-0.53125v-2.0781c0.21875 0.29688 0.70312 0.76562 1.4688 0.76562 1.375 0 2.5938-1.1719 2.5938-2.7031 0-1.5156-1.125-2.6875-2.4375-2.6875-1.0469 0-1.6094 0.75-1.6406 0.79688v-0.79688l-1.6719 0.125v0.34375c0.84375 0 0.92188 0.09375 0.92188 0.60938v5.625c0 0.53125-0.14062 0.53125-0.92188 0.53125v0.34375c0.3125-0.015625 0.96875-0.015625 1.2969-0.015625 0.34375 0 1 0 1.2969 0.015625zm-0.90625-5.7812c0-0.23438 0-0.23438 0.14062-0.4375 0.35938-0.53125 0.9375-0.76562 1.3906-0.76562 0.90625 0 1.6094 1.0938 1.6094 2.4375 0 1.4219-0.8125 2.4531-1.7188 2.4531-0.375 0-0.71875-0.15625-0.96875-0.375-0.26562-0.28125-0.45312-0.51562-0.45312-0.84375z"/>
</g>
<g id="n">
<path d="m2.2031-0.57812c0-0.32812-0.28125-0.57812-0.57812-0.57812-0.34375 0-0.57812 0.26562-0.57812 0.57812 0 0.34375 0.29688 0.57812 0.5625 0.57812 0.32812 0 0.59375-0.25 0.59375-0.57812z"/>
</g>
<g id="v">
<path d="m3.375-2.9688c0-0.92188-0.125-2.3906-0.79688-3.7812-0.70312-1.4375-1.6875-2.2188-1.8125-2.2188-0.046875 0-0.10938 0.03125-0.10938 0.09375 0 0.046875 0 0.0625 0.20312 0.26562 1.2031 1.2031 1.8594 3.1875 1.8594 5.625 0 2.3125-0.5625 4.3125-1.9375 5.7188-0.125 0.10938-0.125 0.14062-0.125 0.17188 0 0.0625 0.0625 0.09375 0.10938 0.09375 0.15625 0 1.1406-0.85938 1.7188-2.0312 0.60938-1.2188 0.89062-2.5156 0.89062-3.9375z"/>
</g>
<g id="ab">
<path d="m7.2344-4.0156c0.26562-0.75 0.78125-0.78125 0.98438-0.79688v-0.34375c-0.29688 0.03125-0.51562 0.03125-0.875 0.03125-0.34375 0-0.375 0-1.0156-0.03125v0.34375c0.53125 0.03125 0.67188 0.35938 0.67188 0.57812 0 0.015625 0 0.09375-0.046875 0.21875l-1.0938 3.125-1.2031-3.375c-0.046875-0.14062-0.046875-0.17188-0.046875-0.20312 0-0.34375 0.4375-0.34375 0.6875-0.34375v-0.34375c-0.34375 0.03125-0.82812 0.03125-1.1719 0.03125-0.39062 0-0.40625 0-1.0781-0.03125v0.34375c0.45312 0 0.60938 0.03125 0.75 0.1875 0.046875 0.078125 0.20312 0.46875 0.28125 0.70312l-1.0156 2.9219-1.1562-3.25c-0.046875-0.15625-0.046875-0.1875-0.046875-0.23438 0-0.32812 0.45312-0.32812 0.6875-0.32812v-0.34375c-0.29688 0.03125-0.89062 0.03125-1.2188 0.03125-0.34375 0-0.35938 0-1.1094-0.03125v0.34375c0.60938 0 0.71875 0.0625 0.85938 0.4375l1.5 4.2812c0.046875 0.125 0.09375 0.21875 0.21875 0.21875 0.10938 0 0.17188-0.046875 0.23438-0.23438l1.1875-3.4062 1.2031 3.4062c0.046875 0.1875 0.10938 0.23438 0.21875 0.23438 0.125 0 0.17188-0.09375 0.21875-0.21875z"/>
</g>
<g id="al">
<path d="m3.3438-3.1719-0.078125-0.10938c0-0.046875 0.75-0.6875 0.84375-0.78125 0.82812-0.71875 1.3594-0.73438 1.6094-0.75v-0.34375c-0.25 0.03125-0.5625 0.03125-0.90625 0.03125-0.3125 0-0.92188 0-1.2031-0.03125v0.34375c0.20312 0.015625 0.34375 0.125 0.34375 0.3125 0 0.25-0.23438 0.45312-0.25 0.45312l-1.7031 1.5156v-5.7656l-1.6719 0.14062v0.34375c0.8125 0 0.92188 0.078125 0.92188 0.67188v6.25c0 0.54688-0.14062 0.54688-0.92188 0.54688v0.34375c0.34375-0.03125 0.92188-0.03125 1.2812-0.03125 0.34375 0 0.92188 0 1.2656 0.03125v-0.34375c-0.76562 0-0.92188 0-0.92188-0.54688v-1.2656l0.76562-0.67188 1.1562 1.6562c0.17188 0.25 0.26562 0.39062 0.26562 0.54688 0 0.21875-0.17188 0.28125-0.42188 0.28125v0.34375c0.29688-0.03125 0.89062-0.03125 1.2031-0.03125 0.51562 0 0.54688 0 1.0469 0.03125v-0.34375c-0.3125 0-0.6875 0-1.0156-0.5z"/>
</g>
<g id="ak">
<path d="m7.7969-8.1406c0-0.21875 0-0.28125-0.125-0.28125-0.0625 0-0.078125 0.03125-0.15625 0.15625l-0.57812 0.9375c-0.54688-0.67188-1.3594-1.0938-2.2188-1.0938-2.1875 0-4.0781 1.8906-4.0781 4.3281 0 2.4844 1.9219 4.3438 4.0781 4.3438 1.9688 0 3.0781-1.7031 3.0781-3.0156 0-0.14062 0-0.20312-0.14062-0.20312-0.10938 0-0.125 0.046875-0.125 0.14062-0.10938 1.8906-1.5 2.7344-2.6562 2.7344-0.82812 0-3.125-0.5-3.125-4 0-3.4531 2.25-3.9688 3.1094-3.9688 1.2656 0 2.3594 1.0625 2.5938 2.8438 0.03125 0.15625 0.03125 0.1875 0.17188 0.1875 0.17188 0 0.17188-0.03125 0.17188-0.28125z"/>
</g>
<g id="aa">
<path d="m7.1406-7.25c0-0.45312 0.03125-0.5625 0.89062-0.5625h0.23438v-0.34375c-0.28125 0.015625-1.2656 0.015625-1.6094 0.015625-0.35938 0-1.3438 0-1.625-0.015625v0.34375h0.23438c0.85938 0 0.90625 0.10938 0.90625 0.5625v2.8281h-3.5781v-2.8281c0-0.45312 0.03125-0.5625 0.89062-0.5625h0.25v-0.34375c-0.29688 0.015625-1.2656 0.015625-1.625 0.015625s-1.3281 0-1.625-0.015625v0.34375h0.25c0.85938 0 0.89062 0.10938 0.89062 0.5625v6.3438c0 0.4375-0.03125 0.5625-0.89062 0.5625h-0.25v0.34375c0.29688-0.03125 1.2656-0.03125 1.625-0.03125s1.3281 0 1.625 0.03125v-0.34375h-0.25c-0.85938 0-0.89062-0.125-0.89062-0.5625v-3.1719h3.5781v3.1719c0 0.4375-0.046875 0.5625-0.90625 0.5625h-0.23438v0.34375c0.28125-0.03125 1.2656-0.03125 1.6094-0.03125 0.35938 0 1.3438 0 1.625 0.03125v-0.34375h-0.23438c-0.85938 0-0.89062-0.125-0.89062-0.5625z"/>
</g>
<g id="aj">
<path d="m7.625-3.0625h-0.26562c-0.28125 1.875-0.5625 2.7188-2.5938 2.7188h-1.625c-0.51562 0-0.54688-0.09375-0.54688-0.48438v-3.2188h1.0938c1.1406 0 1.2656 0.35938 1.2656 1.3906h0.26562v-3.1406h-0.26562c0 1.0312-0.125 1.3906-1.2656 1.3906h-1.0938v-2.9062c0-0.39062 0.03125-0.48438 0.54688-0.48438h1.5938c1.75 0 2.125 0.59375 2.3125 2.3281h0.25l-0.29688-2.6719h-6.5156v0.34375h0.25c0.85938 0 0.89062 0.125 0.89062 0.5625v6.3281c0 0.4375-0.03125 0.5625-0.89062 0.5625h-0.25v0.34375h6.6562z"/>
</g>
<g id="ai">
<path d="m5.1406-8.5312c0.0625-0.15625 0.0625-0.1875 0.0625-0.20312 0-0.15625-0.125-0.23438-0.21875-0.23438-0.15625 0-0.1875 0.10938-0.25 0.26562l-4.0312 11.266c-0.0625 0.15625-0.0625 0.17188-0.0625 0.20312 0 0.125 0.09375 0.21875 0.23438 0.21875 0.15625 0 0.1875-0.10938 0.23438-0.25z"/>
</g>
<g id="ah">
<path d="m4.625-8.3125c-0.046875-0.15625-0.078125-0.21875-0.23438-0.21875-0.17188 0-0.1875 0.03125-0.25 0.21875l-2.5 7.1562c-0.17188 0.48438-0.5 0.79688-1.2656 0.8125v0.34375c0.71875-0.03125 0.75-0.03125 1.1406-0.03125 0.34375 0 0.90625 0 1.2188 0.03125v-0.34375c-0.5-0.015625-0.79688-0.26562-0.79688-0.59375 0-0.078125 0-0.10938 0.0625-0.25l0.54688-1.5938h3.0156l0.65625 1.875c0.0625 0.14062 0.0625 0.17188 0.0625 0.20312 0 0.35938-0.60938 0.35938-0.92188 0.35938v0.34375c0.28125-0.03125 1.2344-0.03125 1.5625-0.03125s1.1875 0 1.4688 0.03125v-0.34375c-0.78125 0-0.98438 0-1.1562-0.5zm-0.57812 1.2031 1.3906 3.9844h-2.7656z"/>
</g>
<g id="ag">
<path d="m2.3438-7.4062c0-0.29688-0.25-0.54688-0.54688-0.54688s-0.54688 0.21875-0.54688 0.54688c0 0.34375 0.25 0.5625 0.54688 0.5625s0.54688-0.25 0.54688-0.5625zm2.2656 0c0-0.32812-0.26562-0.54688-0.5625-0.54688s-0.54688 0.25-0.54688 0.54688c0 0.3125 0.25 0.5625 0.54688 0.5625s0.5625-0.21875 0.5625-0.5625z"/>
</g>
<g id="af">
<path d="m3.3438-2.8281c0.34375-0.45312 0.85938-1.0938 1.0781-1.3438 0.48438-0.54688 1.0469-0.64062 1.4375-0.64062v-0.34375c-0.51562 0.03125-0.54688 0.03125-1 0.03125s-0.48438 0-1.0781-0.03125v0.34375c0.15625 0.03125 0.34375 0.10938 0.34375 0.375 0 0.20312-0.10938 0.34375-0.1875 0.4375l-0.76562 0.96875-0.92188-1.2344c-0.03125-0.046875-0.10938-0.15625-0.10938-0.23438s0.0625-0.29688 0.42188-0.3125v-0.34375c-0.29688 0.03125-0.90625 0.03125-1.2344 0.03125-0.39062 0-0.42188 0-1.1562-0.03125v0.34375c0.60938 0 0.84375 0.03125 1.0938 0.35938l1.4062 1.8281c0.015625 0.015625 0.0625 0.09375 0.0625 0.125s-0.92188 1.2031-1.0469 1.3594c-0.53125 0.65625-1.0469 0.78125-1.5625 0.79688v0.34375c0.45312-0.03125 0.46875-0.03125 0.98438-0.03125 0.45312 0 0.48438 0 1.0781 0.03125v-0.34375c-0.28125-0.03125-0.32812-0.21875-0.32812-0.39062 0-0.1875 0.078125-0.28125 0.20312-0.4375 0.17188-0.25 0.5625-0.73438 0.85938-1.1094l0.96875 1.2812c0.20312 0.26562 0.20312 0.28125 0.20312 0.35938 0 0.09375-0.09375 0.28125-0.40625 0.29688v0.34375c0.3125-0.03125 0.89062-0.03125 1.2188-0.03125 0.40625 0 0.42188 0 1.1406 0.03125v-0.34375c-0.625 0-0.84375-0.03125-1.1406-0.40625z"/>
</g>
<clipPath id="ar">
<path d="m42 205h307v37.652h-307z"/>
</clipPath>
<clipPath id="aq">
<path d="m290 135h2v36h-2z"/>
</clipPath>
<clipPath id="ap">
<path d="m-3.4727 242.65h353v-243h-353zm294.14-107.54h0.4375l1.6719 5.2578-1.8906-0.94141-1.8906 0.94141z" clip-rule="evenodd"/>
</clipPath>
<clipPath id="ao">
<path d="m99 135h1v36h-1z"/>
</clipPath>
<clipPath id="an">
<path d="m-3.4727 242.65h353v-243h-353zm102.78-107.54h0.4375l1.6719 5.2578-1.8906-0.94141-1.8906 0.94141z" clip-rule="evenodd"/>
</clipPath>
</defs>
<path transform="matrix(.1 0 0 -.1 -3.472 242.65)" d="m959.13 2065.5h2197.1v354.38h-2197.1z" fill="none" stroke="#000" stroke-miterlimit="10" stroke-width="2.3625"/>
<path transform="matrix(.1 0 0 -.1 -3.472 242.65)" d="m3014.5 1179.7c0-176.21-460.16-319.06-1027.8-319.06-567.7 0-1027.9 142.85-1027.9 319.06 0 176.25 460.16 319.1 1027.9 319.1 567.66 0 1027.8-142.85 1027.8-319.1z" fill="none" stroke="#000" stroke-miterlimit="10" stroke-width="2.3625"/>
<path transform="matrix(.1 0 0 -.1 -3.472 242.65)" d="m604.76 364.51h2764.1v354.38h-2764.1z" fill="none" stroke="#000" stroke-miterlimit="10" stroke-width="9.45"/>
<g clip-path="url(#ar)">
<path transform="matrix(.1 0 0 -.1 -3.472 242.65)" d="m463 10.134h3047.6v354.38h-3047.6z" fill="none" stroke="#000" stroke-miterlimit="10" stroke-width="9.45"/>
</g>
<g clip-path="url(#aq)">
<g clip-path="url(#ap)">
<path transform="matrix(.1 0 0 -.1 -3.472 242.65)" d="m2943.6 718.88v354.38" fill="none" stroke="#000" stroke-miterlimit="10" stroke-width="2.3625"/>
</g>
</g>
<path d="m292.78 140.37-1.8906-4.7227-1.8906 4.7227 1.8906-0.94141 1.8906 0.94141" fill-rule="evenodd"/>
<path transform="matrix(.1 0 0 -.1 -3.472 242.65)" d="m2962.5 1022.9-18.906 47.227-18.906-47.227 18.906 9.4141z" fill="none" stroke="#000" stroke-miterlimit="10" stroke-width="2.3625"/>
<g clip-path="url(#ao)">
<g clip-path="url(#an)">
<path transform="matrix(.1 0 0 -.1 -3.472 242.65)" d="m1030 718.88v354.38" fill="none" stroke="#000" stroke-miterlimit="10" stroke-width="2.3625"/>
</g>
</g>
<path d="m101.42 140.37-1.8906-4.7227-1.8906 4.7227 1.8906-0.94141 1.8906 0.94141" fill-rule="evenodd"/>
<path transform="matrix(.1 0 0 -.1 -3.472 242.65)" d="m1048.9 1022.9-18.906 47.227-18.906-47.227 18.906 9.4141z" fill="none" stroke="#000" stroke-miterlimit="10" stroke-width="2.3625"/>
<path transform="matrix(.1 0 0 -.1 -3.472 242.65)" d="m817.38 1711.1h2480.6v354.38h-2480.6z" fill="none" stroke="#000" stroke-miterlimit="10" stroke-width="2.3625"/>
<g>
<use x="155.339" y="128.221" xlink:href="#z"/>
<use x="161.842629" y="128.221" xlink:href="#r"/>
<use x="168.021076" y="128.221" xlink:href="#d"/>
<use x="172.638174" y="128.221" xlink:href="#c"/>
<use x="177.190715" y="128.221" xlink:href="#a"/>
<use x="182.393618" y="128.221" xlink:href="#m"/>
<use x="192.149061" y="128.221" xlink:href="#e"/>
<use x="198.002327" y="128.221" xlink:href="#l"/>
<use x="204.505956" y="128.221" xlink:href="#u"/>
<use x="208.082951" y="128.221" xlink:href="#b"/>
<use x="212.635492" y="128.221" xlink:href="#l"/>
<use x="219.13912" y="128.221" xlink:href="#u"/>
<use x="222.716116" y="128.221" xlink:href="#a"/>
<use x="35.736" y="13.411" xlink:href="#ae"/>
<use x="44.025736" y="13.411" xlink:href="#a"/>
<use x="49.228639" y="13.411" xlink:href="#i"/>
<use x="55.409477" y="13.411" xlink:href="#l"/>
<use x="61.913106" y="13.411" xlink:href="#c"/>
<use x="66.465646" y="13.411" xlink:href="#am"/>
<use x="71.668549" y="13.411" xlink:href="#a"/>
<use x="76.871452" y="13.411" xlink:href="#b"/>
<use x="81.423992" y="13.411" xlink:href="#t"/>
<use x="0.101" y="47.429" xlink:href="#y"/>
<use x="8.065554" y="47.429" xlink:href="#b"/>
<use x="12.618094" y="47.429" xlink:href="#k"/>
<use x="18.47136" y="47.429" xlink:href="#s"/>
<use x="24.324626" y="47.429" xlink:href="#b"/>
<use x="28.877166" y="47.429" xlink:href="#e"/>
<use x="34.730432" y="47.429" xlink:href="#m"/>
<use x="44.485876" y="47.429" xlink:href="#m"/>
<use x="54.241319" y="47.429" xlink:href="#f"/>
<use x="57.493133" y="47.429" xlink:href="#a"/>
<use x="62.696036" y="47.429" xlink:href="#b"/>
<use x="67.248576" y="47.429" xlink:href="#t"/>
<use x="24.385" y="29.002" xlink:href="#d"/>
<use x="29.002098" y="29.002" xlink:href="#o"/>
<use x="33.882211" y="29.002" xlink:href="#q"/>
<use x="40.38584" y="29.002" xlink:href="#i"/>
<use x="46.889468" y="29.002" xlink:href="#f"/>
<use x="50.141283" y="29.002" xlink:href="#c"/>
<use x="54.693823" y="29.002" xlink:href="#c"/>
<use x="59.246363" y="29.002" xlink:href="#d"/>
<use x="63.863461" y="29.002" xlink:href="#c"/>
<use x="68.416002" y="29.002" xlink:href="#a"/>
<use x="73.618905" y="29.002" xlink:href="#h"/>
<use x="76.870719" y="29.002" xlink:href="#h"/>
<use x="80.122533" y="29.002" xlink:href="#a"/>
<use x="10.211" y="61.603" xlink:href="#d"/>
<use x="14.828098" y="61.603" xlink:href="#o"/>
<use x="19.708211" y="61.603" xlink:href="#q"/>
<use x="26.21184" y="61.603" xlink:href="#i"/>
<use x="32.715468" y="61.603" xlink:href="#f"/>
<use x="35.967283" y="61.603" xlink:href="#c"/>
<use x="40.519823" y="61.603" xlink:href="#c"/>
<use x="45.072363" y="61.603" xlink:href="#d"/>
<use x="49.689461" y="61.603" xlink:href="#c"/>
<use x="54.242002" y="61.603" xlink:href="#a"/>
<use x="59.444905" y="61.603" xlink:href="#h"/>
<use x="62.696719" y="61.603" xlink:href="#h"/>
<use x="65.948533" y="61.603" xlink:href="#a"/>
<use x="154.249" y="50.264" xlink:href="#z"/>
<use x="160.752629" y="50.264" xlink:href="#c"/>
<use x="165.305169" y="50.264" xlink:href="#e"/>
<use x="171.158435" y="50.264" xlink:href="#i"/>
<use x="177.662064" y="50.264" xlink:href="#j"/>
<use x="184.165692" y="50.264" xlink:href="#e"/>
<use x="190.018958" y="50.264" xlink:href="#b"/>
<use x="194.571499" y="50.264" xlink:href="#j"/>
<use x="204.972523" y="50.264" xlink:href="#ad"/>
<use x="212.286714" y="50.264" xlink:href="#f"/>
<use x="215.538528" y="50.264" xlink:href="#x"/>
<use x="222.042157" y="50.264" xlink:href="#b"/>
<use x="226.594697" y="50.264" xlink:href="#e"/>
<use x="232.447963" y="50.264" xlink:href="#b"/>
<use x="237.000503" y="50.264" xlink:href="#r"/>
<use x="130.157" y="14.828" xlink:href="#z"/>
<use x="136.660629" y="14.828" xlink:href="#c"/>
<use x="141.213169" y="14.828" xlink:href="#e"/>
<use x="147.066435" y="14.828" xlink:href="#i"/>
<use x="153.570064" y="14.828" xlink:href="#j"/>
<use x="160.073692" y="14.828" xlink:href="#e"/>
<use x="165.926958" y="14.828" xlink:href="#b"/>
<use x="170.479499" y="14.828" xlink:href="#j"/>
<use x="180.880523" y="14.828" xlink:href="#ac"/>
<use x="189.655639" y="14.828" xlink:href="#c"/>
<use x="194.20818" y="14.828" xlink:href="#f"/>
<use x="197.459994" y="14.828" xlink:href="#h"/>
<use x="200.711808" y="14.828" xlink:href="#f"/>
<use x="203.963623" y="14.828" xlink:href="#c"/>
<use x="208.193372" y="14.828" xlink:href="#r"/>
<use x="218.269215" y="14.828" xlink:href="#y"/>
<use x="226.233769" y="14.828" xlink:href="#b"/>
<use x="230.786309" y="14.828" xlink:href="#k"/>
<use x="236.639575" y="14.828" xlink:href="#s"/>
<use x="242.492841" y="14.828" xlink:href="#b"/>
<use x="247.045381" y="14.828" xlink:href="#e"/>
<use x="252.898647" y="14.828" xlink:href="#m"/>
<use x="262.654091" y="14.828" xlink:href="#d"/>
<use x="122.853" y="29.002" xlink:href="#w"/>
<use x="127.40554" y="29.002" xlink:href="#d"/>
<use x="132.022638" y="29.002" xlink:href="#q"/>
<use x="138.526267" y="29.002" xlink:href="#a"/>
<use x="143.72917" y="29.002" xlink:href="#h"/>
<use x="146.980985" y="29.002" xlink:href="#h"/>
<use x="150.232799" y="29.002" xlink:href="#g"/>
<use x="157.382009" y="29.002" xlink:href="#a"/>
<use x="162.584912" y="29.002" xlink:href="#j"/>
<use x="169.08854" y="29.002" xlink:href="#f"/>
<use x="172.340355" y="29.002" xlink:href="#c"/>
<use x="176.892895" y="29.002" xlink:href="#k"/>
<use x="182.746161" y="29.002" xlink:href="#b"/>
<use x="187.298701" y="29.002" xlink:href="#d"/>
<use x="191.915799" y="29.002" xlink:href="#g"/>
<use x="199.076964" y="29.002" xlink:href="#o"/>
<use x="204.279867" y="29.002" xlink:href="#k"/>
<use x="210.133133" y="29.002" xlink:href="#m"/>
<use x="219.888576" y="29.002" xlink:href="#p"/>
<use x="226.392205" y="29.002" xlink:href="#f"/>
<use x="229.632064" y="29.002" xlink:href="#h"/>
<use x="232.883879" y="29.002" xlink:href="#a"/>
<use x="238.086782" y="29.002" xlink:href="#b"/>
<use x="242.639322" y="29.002" xlink:href="#d"/>
<use x="247.25642" y="29.002" xlink:href="#g"/>
<use x="254.417585" y="29.002" xlink:href="#n"/>
<use x="259.618097" y="29.002" xlink:href="#n"/>
<use x="264.818609" y="29.002" xlink:href="#n"/>
<use x="270.019121" y="29.002" xlink:href="#v"/>
<use x="110.074" y="64.438" xlink:href="#w"/>
<use x="114.62654" y="64.438" xlink:href="#k"/>
<use x="120.479806" y="64.438" xlink:href="#p"/>
<use x="127.306225" y="64.438" xlink:href="#a"/>
<use x="132.509128" y="64.438" xlink:href="#i"/>
<use x="139.012757" y="64.438" xlink:href="#g"/>
<use x="146.161967" y="64.438" xlink:href="#o"/>
<use x="151.36487" y="64.438" xlink:href="#h"/>
<use x="154.616684" y="64.438" xlink:href="#k"/>
<use x="160.46995" y="64.438" xlink:href="#d"/>
<use x="165.087048" y="64.438" xlink:href="#a"/>
<use x="170.289951" y="64.438" xlink:href="#g"/>
<use x="177.451116" y="64.438" xlink:href="#b"/>
<use x="182.003656" y="64.438" xlink:href="#a"/>
<use x="187.206559" y="64.438" xlink:href="#e"/>
<use x="193.059825" y="64.438" xlink:href="#j"/>
<use x="199.563454" y="64.438" xlink:href="#g"/>
<use x="206.712664" y="64.438" xlink:href="#ab"/>
<use x="215.167381" y="64.438" xlink:href="#b"/>
<use x="219.719921" y="64.438" xlink:href="#f"/>
<use x="222.971736" y="64.438" xlink:href="#c"/>
<use x="227.524276" y="64.438" xlink:href="#a"/>
<use x="232.727179" y="64.438" xlink:href="#g"/>
<use x="239.876388" y="64.438" xlink:href="#u"/>
<use x="243.453384" y="64.438" xlink:href="#k"/>
<use x="249.30665" y="64.438" xlink:href="#b"/>
<use x="253.85919" y="64.438" xlink:href="#al"/>
<use x="260.037638" y="64.438" xlink:href="#g"/>
<use x="267.198803" y="64.438" xlink:href="#n"/>
<use x="272.399315" y="64.438" xlink:href="#n"/>
<use x="277.599827" y="64.438" xlink:href="#n"/>
<use x="282.800339" y="64.438" xlink:href="#v"/>
<use x="79.551" y="235" xlink:href="#w"/>
<use x="84.10354" y="235" xlink:href="#ak"/>
<use x="92.558258" y="235" xlink:href="#y"/>
<use x="100.522812" y="235" xlink:href="#ac"/>
<use x="109.297929" y="235" xlink:href="#g"/>
<use x="116.447138" y="235" xlink:href="#aa"/>
<use x="125.222255" y="235" xlink:href="#e"/>
<use x="131.075521" y="235" xlink:href="#l"/>
<use x="137.57915" y="235" xlink:href="#p"/>
<use x="144.082779" y="235" xlink:href="#c"/>
<use x="148.635319" y="235" xlink:href="#d"/>
<use x="153.252417" y="235" xlink:href="#p"/>
<use x="160.078836" y="235" xlink:href="#a"/>
<use x="165.281739" y="235" xlink:href="#f"/>
<use x="168.533554" y="235" xlink:href="#o"/>
<use x="173.413666" y="235" xlink:href="#q"/>
<use x="179.917295" y="235" xlink:href="#a"/>
<use x="185.120198" y="235" xlink:href="#b"/>
<use x="189.672738" y="235" xlink:href="#g"/>
<use x="196.833903" y="235" xlink:href="#aj"/>
<use x="204.798457" y="235" xlink:href="#f"/>
<use x="208.050272" y="235" xlink:href="#i"/>
<use x="214.541945" y="235" xlink:href="#t"/>
<use x="218.444123" y="235" xlink:href="#ai"/>
<use x="224.297388" y="235" xlink:href="#ah"/>
<use x="233.072505" y="235" xlink:href="#l"/>
<use x="239.576134" y="235" xlink:href="#d"/>
<use x="244.193232" y="235" xlink:href="#s"/>
<use x="250.046498" y="235" xlink:href="#e"/>
<use x="255.899764" y="235" xlink:href="#x"/>
<use x="262.738139" y="235" xlink:href="#a"/>
<use x="267.941042" y="235" xlink:href="#s"/>
<use x="273.794308" y="235" xlink:href="#a"/>
<use x="278.997211" y="235" xlink:href="#b"/>
<use x="283.544" y="235.471" xlink:href="#ag"/>
<use x="283.544" y="235" xlink:href="#e"/>
<use x="289.397266" y="235" xlink:href="#c"/>
<use x="293.949806" y="235" xlink:href="#a"/>
<use x="299.152709" y="235" xlink:href="#v"/>
<use x="166.917" y="220.353" xlink:href="#aa"/>
<use x="175.692117" y="220.353" xlink:href="#e"/>
<use x="181.545383" y="220.353" xlink:href="#b"/>
<use x="186.097923" y="220.353" xlink:href="#j"/>
<use x="192.601552" y="220.353" xlink:href="#ab"/>
<use x="200.733479" y="220.353" xlink:href="#e"/>
<use x="206.586745" y="220.353" xlink:href="#b"/>
<use x="211.139285" y="220.353" xlink:href="#a"/>
<use x="136.416" y="192.005" xlink:href="#ad"/>
<use x="143.730191" y="192.005" xlink:href="#f"/>
<use x="146.982006" y="192.005" xlink:href="#i"/>
<use x="153.162844" y="192.005" xlink:href="#l"/>
<use x="159.666473" y="192.005" xlink:href="#af"/>
<use x="165.84492" y="192.005" xlink:href="#t"/>
<use x="169.747098" y="192.005" xlink:href="#ae"/>
<use x="178.036833" y="192.005" xlink:href="#a"/>
<use x="183.239736" y="192.005" xlink:href="#c"/>
<use x="187.792276" y="192.005" xlink:href="#b"/>
<use x="192.344817" y="192.005" xlink:href="#f"/>
<use x="195.596631" y="192.005" xlink:href="#a"/>
<use x="200.799534" y="192.005" xlink:href="#x"/>
<use x="207.303163" y="192.005" xlink:href="#d"/>
<use x="211.920261" y="192.005" xlink:href="#d"/>
<use x="216.537359" y="192.005" xlink:href="#r"/>
<use x="222.715807" y="192.005" xlink:href="#d"/>
<use x="227.332905" y="192.005" xlink:href="#c"/>
<use x="231.885445" y="192.005" xlink:href="#a"/>
<use x="237.088348" y="192.005" xlink:href="#m"/>
</g>
</svg>
