<svg width="359pt" height="211pt" version="1.1" viewBox="0 0 359 211" xmlns="http://www.w3.org/2000/svg" xmlns:xlink="http://www.w3.org/1999/xlink">
<defs>
<g id="ak">
<path d="m7.1406 9.3125v-2.1406l-5.4531-2.3906 5.4531-2.5v-2.125h-0.20312c-0.03125 0.875-0.15625 1-0.96875 1.0156h-4.375c-1.1562-0.015625-1.3281-0.15625-1.3906-1.0469h-0.20312v2.5469h0.20312c0.046875-0.84375 0.26562-1 1.3906-1.0156h4.3438l-5.9375 2.7031v0.15625l6.1875 2.7656h-4.8906c-0.92188-0.015625-1.0312-0.14062-1.0938-0.98438h-0.20312v3.0156h0.20312c0.046875-0.76562 0.20312-0.90625 0.96875-0.9375h4.7969c0.78125 0.03125 0.92188 0.15625 0.96875 0.9375z"/>
</g>
<g id="aj">
<path d="m0.71875 4.7656c-0.15625-0.17188-0.21875-0.3125-0.21875-0.46875 0-0.25 0.15625-0.32812 0.64062-0.32812h2.0938c0.5625 0 0.875-0.046875 1.1406-0.21875 0.39062-0.23438 0.59375-0.6875 0.59375-1.3281 0-1.0156-0.53125-1.8125-1.2188-1.8125-0.23438 0-0.45312 0.20312-0.45312 0.45312 0 0.26562 0.21875 0.5 0.45312 0.5 0.046875 0 0.09375-0.015625 0.17188-0.03125 0.09375-0.015625 0.1875-0.03125 0.25-0.03125 0.29688 0 0.53125 0.34375 0.53125 0.78125 0 0.53125-0.3125 0.8125-0.89062 0.8125h-0.65625c-0.65625-1.6406-0.76562-1.8438-1.1719-2.3125-0.21875-0.23438-0.57812-0.375-0.9375-0.375-0.6875 0-1.1562 0.46875-1.1562 1.125 0 0.48438 0.23438 0.92188 0.79688 1.5781-0.57812 0.046875-0.79688 0.25-0.79688 0.6875 0 0.375 0.125 0.59375 0.54688 0.96875zm0.60938-1.6719c-0.32812 0-0.4375-0.046875-0.57812-0.28125-0.14062-0.26562-0.23438-0.5625-0.23438-0.78125 0-0.375 0.375-0.6875 0.82812-0.6875h0.046875c0.65625 0.015625 1.0625 0.48438 1.5 1.75z"/>
</g>
<g id="ai">
<path d="m3.3906 3.4062 1.4844-0.046875v-0.125c-0.09375-0.046875-0.125-0.10938-0.125-0.17188s0.015625-0.17188 0.078125-0.28125c0.078125-0.25 0.14062-0.5 0.14062-0.76562 0-0.84375-0.5625-1.4688-1.3438-1.4688-0.60938 0-1.0312 0.34375-1.5469 1.2656l-0.35938 0.625c-0.21875 0.375-0.48438 0.5625-0.8125 0.5625-0.46875 0-0.78125-0.34375-0.78125-0.89062 0-0.75 0.42188-1.125 1.5156-1.375v-0.17188h-1.6875v0.14062c0.10938 0.078125 0.14062 0.125 0.14062 0.25 0 0.10938-0.03125 0.25-0.09375 0.5-0.0625 0.28125-0.10938 0.5625-0.10938 0.78125 0 0.84375 0.625 1.5156 1.3906 1.5156 0.53125 0 0.89062-0.25 1.2812-0.90625l0.6875-1.1562c0.1875-0.3125 0.4375-0.46875 0.73438-0.46875 0.4375 0 0.73438 0.34375 0.73438 0.82812 0 0.625-0.35938 0.9375-1.3281 1.1875z"/>
</g>
<g id="ah">
<path d="m1.6875 4.2969c-0.76562-0.51562-1.0156-0.90625-1.0156-1.5156 0-1 0.85938-1.6875 2.1094-1.6875 1.1094 0 1.875 0.59375 1.875 1.4688 0 0.39062-0.10938 0.53125-0.51562 0.64062l-0.25 0.0625c-0.3125 0.09375-0.48438 0.28125-0.48438 0.53125 0 0.28125 0.20312 0.5 0.45312 0.5 0.59375 0 1.1094-0.75 1.1094-1.6562 0-0.53125-0.21875-1.0781-0.60938-1.5312-0.46875-0.53125-1.2031-0.84375-2.0781-0.84375-1.3906 0-2.3906 0.85938-2.3906 2.0625 0 0.48438 0.17188 0.90625 0.51562 1.2969 0.23438 0.29688 0.54688 0.5 1.1875 0.82812z"/>
</g>
<g id="ag">
<path d="m0.15625 5.2656c0.10938-0.59375 0.17188-0.64062 0.9375-0.65625h2.1562c1.1406 0 1.7188-0.4375 1.7188-1.3281 0-0.64062-0.26562-1.0938-0.90625-1.5938h3.2812l0.03125-0.046875c-0.125-0.375-0.21875-0.64062-0.39062-1.2344l-0.078125-0.29688h-0.1875c0.015625 0.046875 0.015625 0.0625 0.015625 0.125 0 0.46875-0.078125 0.54688-0.54688 0.54688h-5.0938c-0.76562-0.015625-0.85938-0.0625-0.9375-0.6875h-0.15625v2.3281h0.15625c0.0625-0.625 0.17188-0.70312 0.9375-0.73438h2.6094c0.5 0.46875 0.6875 0.78125 0.6875 1.2188 0 0.53125-0.39062 0.79688-1.1562 0.79688h-2.1406c-0.76562-0.015625-0.875-0.125-0.9375-0.73438h-0.15625v2.2969z"/>
</g>
<g id="af">
<path d="m0 0.17188v2.5625h0.15625c0.0625-0.71875 0.15625-0.79688 0.9375-0.79688h3.8438l0.03125-0.046875-0.59375-1.6719h-0.17188l0.015625 0.078125c0.03125 0.14062 0.03125 0.26562 0.03125 0.375 0 0.25-0.17188 0.35938-0.64062 0.35938h-2.5156c-0.79688-0.03125-0.90625-0.125-0.9375-0.85938zm7.375 1.2031c0-0.28125-0.25-0.53125-0.54688-0.53125-0.3125 0-0.5625 0.23438-0.5625 0.53125 0 0.32812 0.25 0.5625 0.5625 0.5625s0.54688-0.25 0.54688-0.5625z"/>
</g>
<g id="ae">
<path d="m0 0.1875v2.2969h0.15625c0.03125-0.54688 0.17188-0.71875 0.5625-0.71875h3.0312c0.5 0.51562 0.625 0.76562 0.625 1.1094 0 0.53125-0.34375 0.79688-1.0469 0.79688h-2.2656c-0.70312-0.015625-0.875-0.15625-0.90625-0.6875h-0.15625v2.25h0.15625c0.0625-0.53125 0.1875-0.64062 0.71875-0.65625h2.4688c1.0156 0 1.625-0.46875 1.625-1.2812 0-0.48438-0.1875-0.82812-0.875-1.5625h0.84375l0.03125-0.078125c-0.20312-0.5625-0.32812-0.92188-0.48438-1.4844h-0.1875c0.03125 0.078125 0.046875 0.17188 0.046875 0.29688 0 0.29688-0.17188 0.39062-0.6875 0.39062h-2.6875c-0.64062 0-0.78125-0.125-0.8125-0.67188z"/>
</g>
<g id="ad">
<path d="m1.7656 4.4062c-0.8125-0.51562-1.125-0.98438-1.125-1.6719 0-0.625 0.3125-1.0781 0.92188-1.3906 0.40625-0.20312 0.76562-0.28125 1.4219-0.29688v3.3281c0.70312-0.09375 1.0156-0.20312 1.3594-0.46875 0.39062-0.32812 0.625-0.8125 0.625-1.375 0-0.54688-0.20312-1.0469-0.5625-1.4688-0.4375-0.5-1.2031-0.79688-2.0938-0.79688-1.4844 0-2.4219 0.78125-2.4219 2.0156 0 1.0312 0.64062 1.8438 1.7969 2.2969zm1.5781-3.3438c0.82812 0.125 1.2344 0.5 1.2344 1.1562s-0.29688 0.90625-1.2344 1.0469z"/>
</g>
<g id="r">
<path d="m0.48438 1.9688h0.75v-2.4688c0.40625 0.48438 0.84375 0.70312 1.4531 0.70312 1.2344 0 2.0156-0.98438 2.0156-2.4844 0-1.5781-0.76562-2.5625-2.0156-2.5625-0.64062 0-1.1562 0.28125-1.5156 0.84375v-0.71875h-0.6875zm2.0781-6.125c0.82812 0 1.3594 0.73438 1.3594 1.8594 0 1.0781-0.54688 1.7969-1.3594 1.7969s-1.3281-0.71875-1.3281-1.8281c0-1.0938 0.51562-1.8281 1.3281-1.8281z"/>
</g>
<g id="c">
<path d="m0.625-4.7188v4.7188h0.75v-2.4531c0.015625-1.125 0.48438-1.6406 1.5156-1.6094v-0.76562c-0.125-0.015625-0.20312-0.015625-0.29688-0.015625-0.48438 0-0.84375 0.28125-1.2812 0.98438v-0.85938z"/>
</g>
<g id="p">
<path d="m2.4531-4.8438c-1.3438 0-2.125 0.9375-2.125 2.5156 0 1.5938 0.78125 2.5312 2.125 2.5312 1.3281 0 2.1406-0.9375 2.1406-2.4844 0-1.6406-0.78125-2.5625-2.1406-2.5625zm0 0.6875c0.84375 0 1.3594 0.6875 1.3594 1.8594 0 1.125-0.53125 1.8125-1.3594 1.8125s-1.3438-0.6875-1.3438-1.8438c0-1.1406 0.51562-1.8281 1.3438-1.8281z"/>
</g>
<g id="k">
<path d="m3.6406-4.7188v0.6875c-0.375-0.5625-0.79688-0.8125-1.3906-0.8125-1.1406 0-1.9375 1.0625-1.9375 2.5625 0 0.79688 0.1875 1.375 0.59375 1.8438 0.35938 0.42188 0.79688 0.64062 1.2969 0.64062 0.5625 0 0.96875-0.25 1.3594-0.84375v0.25c0 1.25-0.34375 1.7188-1.2812 1.7188-0.64062 0-0.96875-0.25-1.0469-0.78125h-0.76562c0.078125 0.85938 0.76562 1.4219 1.7969 1.4219 0.6875 0 1.2656-0.23438 1.5625-0.60938 0.35938-0.4375 0.5-1.0312 0.5-2.1406v-3.9375zm-1.3125 0.5625c0.78125 0 1.2344 0.67188 1.2344 1.8594 0 1.1406-0.45312 1.8125-1.2344 1.8125s-1.2344-0.67188-1.2344-1.8438c0-1.1406 0.45312-1.8281 1.2344-1.8281z"/>
</g>
<g id="h">
<path d="m4.8125-0.4375c-0.078125 0.015625-0.10938 0.015625-0.15625 0.015625-0.26562 0-0.40625-0.14062-0.40625-0.375v-2.7656c0-0.84375-0.60938-1.2812-1.7812-1.2812-0.6875 0-1.2344 0.1875-1.5625 0.54688-0.21875 0.23438-0.29688 0.51562-0.32812 0.96875h0.76562c0.0625-0.5625 0.40625-0.82812 1.1094-0.82812 0.67188 0 1.0469 0.25 1.0469 0.70312v0.1875c-0.015625 0.32812-0.17188 0.45312-0.78125 0.53125-1.0625 0.14062-1.2188 0.17188-1.5156 0.28125-0.54688 0.23438-0.82812 0.65625-0.82812 1.2656 0 0.85938 0.59375 1.3906 1.5469 1.3906 0.59375 0 1.0781-0.20312 1.6094-0.6875 0.046875 0.48438 0.28125 0.6875 0.76562 0.6875 0.17188 0 0.26562-0.015625 0.51562-0.078125zm-1.3125-1.0469c0 0.25-0.078125 0.40625-0.29688 0.60938-0.3125 0.28125-0.67188 0.42188-1.1094 0.42188-0.59375 0-0.9375-0.28125-0.9375-0.75 0-0.5 0.32812-0.75 1.1406-0.85938 0.79688-0.10938 0.95312-0.15625 1.2031-0.26562z"/>
</g>
<g id="f">
<path d="m0.625-4.7188v4.7188h0.76562v-2.9688c0-0.67188 0.48438-1.2188 1.1094-1.2188 0.54688 0 0.85938 0.32812 0.85938 0.9375v3.25h0.76562v-2.9688c0-0.67188 0.48438-1.2188 1.1094-1.2188 0.54688 0 0.875 0.34375 0.875 0.9375v3.25h0.75v-3.5312c0-0.85938-0.48438-1.3125-1.375-1.3125-0.625 0-1 0.1875-1.4375 0.71875-0.28125-0.51562-0.65625-0.71875-1.2812-0.71875s-1.0469 0.23438-1.4375 0.79688v-0.67188z"/>
</g>
<g id="m">
<path d="m0.71875 0h2.9531c0.625 0 1.0781-0.17188 1.4375-0.54688 0.3125-0.34375 0.5-0.8125 0.5-1.3281 0-0.78125-0.35938-1.2656-1.2031-1.5938 0.60938-0.28125 0.90625-0.75 0.90625-1.4219 0-0.48438-0.17188-0.90625-0.51562-1.2188s-0.79688-0.45312-1.4219-0.45312h-2.6562zm0.82812-3.7344v-2.0938h1.625c0.46875 0 0.71875 0.0625 0.95312 0.23438 0.23438 0.1875 0.35938 0.45312 0.35938 0.8125s-0.125 0.625-0.35938 0.8125c-0.23438 0.17188-0.48438 0.23438-0.95312 0.23438zm0 3v-2.2656h2.0469c0.73438 0 1.1719 0.42188 1.1719 1.1406 0 0.70312-0.4375 1.125-1.1719 1.125z"/>
</g>
<g id="a">
<path d="m4.6094-2.1094c0-0.71875-0.046875-1.1562-0.1875-1.5-0.29688-0.78125-1.0156-1.2344-1.9062-1.2344-1.3125 0-2.1562 0.98438-2.1562 2.5469s0.8125 2.5 2.1406 2.5c1.0781 0 1.8281-0.60938 2.0156-1.6406h-0.75c-0.20312 0.625-0.64062 0.95312-1.2344 0.95312-0.48438 0-0.89062-0.21875-1.1406-0.60938-0.17188-0.28125-0.23438-0.54688-0.25-1.0156zm-3.4531-0.60938c0.0625-0.875 0.59375-1.4375 1.3594-1.4375s1.2969 0.59375 1.2969 1.4375z"/>
</g>
<g id="b">
<path d="m2.2812-4.7188h-0.76562v-1.2969h-0.75v1.2969h-0.64062v0.60938h0.64062v3.5625c0 0.5 0.32812 0.75 0.90625 0.75 0.20312 0 0.35938-0.015625 0.60938-0.0625v-0.625c-0.10938 0.03125-0.20312 0.03125-0.35938 0.03125-0.3125 0-0.40625-0.09375-0.40625-0.42188v-3.2344h0.76562z"/>
</g>
<g id="g">
<path d="m1.3438-4.7188h-0.73438v4.7188h0.73438zm0-1.8438h-0.75v0.95312h0.75z"/>
</g>
<g id="x">
<path d="m0.48438-6.5625v6.5625h0.67188v-0.60938c0.35938 0.5625 0.84375 0.8125 1.5 0.8125 1.2344 0 2.0469-1.0156 2.0469-2.5781 0-1.5312-0.76562-2.4688-2.0156-2.4688-0.64062 0-1.1094 0.23438-1.4531 0.76562v-2.4844zm2.0625 2.4062c0.84375 0 1.375 0.73438 1.375 1.8594 0 1.0781-0.5625 1.7969-1.375 1.7969-0.79688 0-1.3125-0.71875-1.3125-1.8281 0-1.0938 0.51562-1.8281 1.3125-1.8281z"/>
</g>
<g id="e">
<path d="m3.9375-3.4062c0-0.92188-0.60938-1.4375-1.7031-1.4375s-1.8125 0.5625-1.8125 1.4375c0 0.73438 0.375 1.0781 1.5 1.3594l0.70312 0.17188c0.51562 0.125 0.71875 0.3125 0.71875 0.64062 0 0.45312-0.4375 0.75-1.0938 0.75-0.40625 0-0.75-0.125-0.9375-0.3125-0.10938-0.14062-0.17188-0.28125-0.21875-0.60938h-0.78125c0.03125 1.0938 0.64062 1.6094 1.875 1.6094 1.1875 0 1.9375-0.57812 1.9375-1.4844 0-0.70312-0.39062-1.0938-1.3281-1.3125l-0.71875-0.17188c-0.60938-0.15625-0.875-0.34375-0.875-0.6875 0-0.4375 0.39062-0.70312 1-0.70312s0.92188 0.26562 0.95312 0.75z"/>
</g>
<g id="ac">
<path d="m3.4844-4.7188-1.2969 3.6719-1.2031-3.6719h-0.79688l1.5781 4.7344-0.28125 0.75c-0.125 0.32812-0.28125 0.45312-0.60938 0.45312-0.125 0-0.23438-0.015625-0.39062-0.046875v0.67188c0.15625 0.078125 0.3125 0.125 0.5 0.125 0.25 0 0.51562-0.09375 0.70312-0.23438 0.23438-0.17188 0.375-0.35938 0.51562-0.75l2.0938-5.7031z"/>
</g>
<g id="w">
<path d="m4.9531-2.9844v2.9844h0.84375v-6.5625h-0.84375v2.8438h-3.375v-2.8438h-0.82812v6.5625h0.82812v-2.9844z"/>
</g>
<g id="v">
<path d="m4.4531-6.5625h-0.75v2.4375c-0.3125-0.46875-0.8125-0.71875-1.4375-0.71875-1.2344 0-2.0312 0.96875-2.0312 2.4844 0 1.5781 0.78125 2.5625 2.0469 2.5625 0.65625 0 1.1094-0.23438 1.5-0.82812v0.625h0.67188zm-2.0625 2.4062c0.79688 0 1.3125 0.71875 1.3125 1.8594 0 1.0781-0.51562 1.7969-1.3125 1.7969-0.82812 0-1.375-0.71875-1.375-1.8281 0-1.0938 0.54688-1.8281 1.375-1.8281z"/>
</g>
<g id="u">
<path d="m4.9844 0 1.3906-4.7188h-0.84375l-0.9375 3.6719-0.9375-3.6719h-0.90625l-0.90625 3.6719-0.96875-3.6719h-0.82812l1.375 4.7188h0.84375l0.90625-3.7031 0.95312 3.7031z"/>
</g>
<g id="t">
<path d="m1.6562-2.7812h2.0625c0.51562 0 0.92188-0.15625 1.2656-0.46875 0.39062-0.35938 0.5625-0.78125 0.5625-1.3906 0-1.2344-0.71875-1.9219-2.0156-1.9219h-2.7188v6.5625h0.84375zm0-0.73438v-2.3125h1.75c0.79688 0 1.2812 0.4375 1.2812 1.1562s-0.48438 1.1562-1.2812 1.1562z"/>
</g>
<g id="l">
<path d="m4.8906-2.4062h-4.5312v0.64062h4.5312z"/>
</g>
<g id="o">
<path d="m4.2344-3.125c-0.03125-0.46875-0.125-0.76562-0.3125-1.0312-0.32812-0.4375-0.89062-0.6875-1.5469-0.6875-1.2812 0-2.0938 1-2.0938 2.5625 0 1.5312 0.8125 2.4844 2.0781 2.4844 1.125 0 1.8438-0.67188 1.9375-1.8281h-0.76562c-0.125 0.76562-0.5 1.1406-1.1406 1.1406-0.82812 0-1.3281-0.67188-1.3281-1.7969 0-1.1719 0.48438-1.875 1.2969-1.875 0.64062 0 1.0312 0.375 1.125 1.0312z"/>
</g>
<g id="n">
<path d="m0.625-6.5625v6.5625h0.75v-2.5938c0-0.96875 0.5-1.5938 1.2812-1.5938 0.25 0 0.48438 0.0625 0.67188 0.20312 0.20312 0.15625 0.29688 0.39062 0.29688 0.71875v3.2656h0.75v-3.5625c0-0.79688-0.5625-1.2812-1.4844-1.2812-0.67188 0-1.0781 0.20312-1.5156 0.78125v-2.5z"/>
</g>
<g id="d">
<path d="m0.625-4.7188v4.7188h0.76562v-2.5938c0-0.96875 0.5-1.5938 1.2656-1.5938 0.60938 0 0.98438 0.35938 0.98438 0.92188v3.2656h0.75v-3.5625c0-0.78125-0.59375-1.2812-1.5-1.2812-0.70312 0-1.1562 0.26562-1.5625 0.92188v-0.79688z"/>
</g>
<g id="j">
<path d="m1.375-6.5625h-0.76562v6.5625h0.76562z"/>
</g>
<g id="i">
<path d="m4.3438 0v-4.7188h-0.75v2.6719c0 0.96875-0.5 1.5938-1.2969 1.5938-0.59375 0-0.96875-0.35938-0.96875-0.92188v-3.3438h-0.75v3.6406c0 0.78125 0.59375 1.2812 1.5156 1.2812 0.6875 0 1.125-0.23438 1.5625-0.85938v0.65625z"/>
</g>
<g id="q">
<path d="m3.9844-4.7188h-3.5156v0.65625h2.625l-2.8125 3.3906v0.67188h3.8281v-0.65625h-2.9219l2.7969-3.3906z"/>
</g>
<g id="ab">
<path d="m5.9531-4.5312c-0.25-1.4375-1.0781-2.1406-2.5312-2.1406-0.875 0-1.5781 0.28125-2.0781 0.82812-0.59375 0.64062-0.90625 1.5781-0.90625 2.6406 0 1.0781 0.32812 2 0.9375 2.6406 0.51562 0.53125 1.1562 0.76562 2.0156 0.76562 1.6094 0 2.5-0.85938 2.7031-2.5938h-0.85938c-0.078125 0.45312-0.17188 0.75-0.29688 1.0156-0.28125 0.53125-0.82812 0.84375-1.5312 0.84375-1.3125 0-2.1406-1.0469-2.1406-2.6875 0-1.6719 0.78125-2.7188 2.0625-2.7188 0.53125 0 1.0312 0.15625 1.2969 0.42188 0.25 0.21875 0.375 0.5 0.48438 0.98438z"/>
</g>
<g id="aa">
<path d="m4.9688-6.5625v4.6094c0 0.875-0.64062 1.4219-1.6875 1.4219-0.48438 0-0.89062-0.10938-1.2031-0.34375-0.32812-0.25-0.46875-0.57812-0.46875-1.0781v-4.6094h-0.84375v4.6094c0 1.3281 0.95312 2.1562 2.5156 2.1562 1.5312 0 2.5312-0.84375 2.5312-2.1562v-4.6094z"/>
</g>
<g id="z">
<path d="m1.6406-2.9844h3.5781v-0.73438h-3.5781v-2.1094h3.7188v-0.73438h-4.5469v6.5625h4.7031v-0.73438h-3.875z"/>
</g>
<g id="y">
<path d="m2.0625-6.5625-2.1406 6.75h0.5l2.1406-6.75z"/>
</g>
<g id="s">
<path d="m4.2656-1.9688 0.67188 1.9688h0.9375l-2.2969-6.5625h-1.0781l-2.3438 6.5625h0.89062l0.6875-1.9688zm-0.23438-0.70312h-2.0938l1.0938-2.9844z"/>
</g>
<clipPath id="az">
<path d="m0 29h343v181.75h-343z"/>
</clipPath>
<clipPath id="ay">
<path d="m81 13h49v98h-49z"/>
</clipPath>
<clipPath id="as">
<path d="m-0.47266 210.75h362v-213h-362zm81.82-196.57-0.03125-0.39062 4.2031-1.0195 0.14844 1.7695zm45.332 96.781-0.42188-0.058593-0.03125-4.3516 1.7695 0.26953z" clip-rule="evenodd"/>
</clipPath>
<clipPath id="ar">
<path d="m45 65h1v46h-1z"/>
</clipPath>
<clipPath id="aq">
<path d="m-0.47266 210.75h362v-213h-362zm45.789-145.24h0.42188l0.69141 4.2891h-1.8008zm0.42188 45.418h-0.42188l-0.6875-4.2891h1.8008z" clip-rule="evenodd"/>
</clipPath>
<clipPath id="ap">
<path d="m297 65h1v46h-1z"/>
</clipPath>
<clipPath id="ao">
<path d="m-0.47266 210.75h362v-213h-362zm297.79-145.24h0.42188l0.69141 4.2891h-1.8008zm0.42188 45.418h-0.42188l-0.6875-4.2891h1.8008z" clip-rule="evenodd"/>
</clipPath>
<clipPath id="an">
<path d="m204 13h49v98h-49z"/>
</clipPath>
<clipPath id="am">
<path d="m-0.47266 210.75h362v-213h-362zm253.03-196.96-0.03125 0.39062-4.3203 0.35938 0.15234-1.7695zm-44.969 97.113-0.42188 0.058593-1.3203-4.1406 1.7695-0.26953z" clip-rule="evenodd"/>
</clipPath>
<clipPath id="al">
<path d="m45 22h1v17h-1z"/>
</clipPath>
<clipPath id="ax">
<path d="m-0.47266 210.75h362v-213h-362zm45.789-187.99h0.42188l0.69141 4.2891h-1.8008zm0.42188 16.168h-0.42188l-0.6875-4.2891h1.8008z" clip-rule="evenodd"/>
</clipPath>
<clipPath id="aw">
<path d="m166 128h2v19h-2z"/>
</clipPath>
<clipPath id="av">
<path d="m-0.47266 210.75h362v-213h-362zm167.26-82.211h0.41797l0.69141 4.293h-1.8008zm0.41797 18.391h-0.41797l-0.69141-4.2891h1.8008z" clip-rule="evenodd"/>
</clipPath>
<clipPath id="au">
<path d="m297 22h1v17h-1z"/>
</clipPath>
<clipPath id="at">
<path d="m-0.47266 210.75h362v-213h-362zm297.79-187.99h0.42188l0.69141 4.2891h-1.8008zm0.42188 16.168h-0.42188l-0.6875-4.2891h1.8008z" clip-rule="evenodd"/>
</clipPath>
</defs>
<path d="m0.52734 209.75h360v-211.5h-360z" fill="#fff" fill-rule="evenodd"/>
<path transform="matrix(.1 0 0 -.1 -.472 210.75)" d="m2350 190.01h900v270h-900z" fill="none" stroke="#000" stroke-miterlimit="10" stroke-width="9"/>
<path transform="matrix(.1 0 0 -.1 -.472 210.75)" d="m189.99 190.01h900v270h-900z" fill="none" stroke="#000" stroke-miterlimit="10" stroke-width="9"/>
<g clip-path="url(#az)">
<path transform="matrix(.1 0 0 -.1 -.472 210.75)" d="m9.9934 10.009h3420v1800h-3420z" fill="none" stroke="#000" stroke-miterlimit="10" stroke-width="9"/>
</g>
<path transform="matrix(.1 0 0 -.1 -.472 210.75)" d="m1270 190.01h900v270h-900z" fill="none" stroke="#000" stroke-miterlimit="10" stroke-width="9"/>
<g>
<use x="351.528" y="95.758" xlink:href="#ak"/>
<use x="351.528" y="105.3592" xlink:href="#aj"/>
<use x="351.528" y="110.1544" xlink:href="#ai"/>
<use x="351.528" y="114.3556" xlink:href="#ah"/>
<use x="351.528" y="119.1508" xlink:href="#ag"/>
<use x="351.528" y="124.5508" xlink:href="#af"/>
<use x="351.528" y="127.5532" xlink:href="#ae"/>
<use x="351.528" y="132.9532" xlink:href="#ad"/>
</g>
<g clip-path="url(#ay)">
<g clip-path="url(#as)">
<path transform="matrix(.1 0 0 -.1 -.472 210.75)" d="m1269.7 1000.3 0.625 3.9062 0.3125 2.6953 0.27344 3.9062 0.625 4.4922 0.89844 6.0156 0.89844 6.9141 0.89844 8.3984 1.1719 9.2969 1.2109 10.508 1.2109 11.68 1.2109 12.891 1.4844 14.102 1.4844 14.727 1.5234 15.898 1.7969 16.484 1.4844 17.422 1.5234 17.969 1.1719 18.594 1.5234 18.906 1.1719 19.219 1.2109 19.805 0.89844 20.078 0.625 20.117 0.58594 20.391 0.3125 20.391 0.27344 20.703-0.27344 21.016-0.3125 20.703-0.89844 20.977-0.89844 21.328-1.5234 20.977-1.7969 21.602-2.3828 21.289-2.6953 21.602-3.3203 21.914-3.8672 21.914-4.5312 21.875-4.8047 22.227-5.6641 22.188-6.3281 21.914-6.875 22.188-7.8125 21.602-8.3984 21.016-9.0234 20.664-11.68 23.398-12.305 22.227-12.891 20.391-13.203 18.594-13.516 17.109-13.477 15.586-13.516 13.828-13.789 12.578-13.789 11.094-13.828 9.9219-13.789 8.9844-14.102 7.8125-13.789 6.875-13.828 6.0156-13.789 5.3906-13.789 4.8047-13.789 3.9062-13.828 3.3203-13.789 2.9688-13.203 2.4219-13.203 2.1094-13.203 1.7969-12.305 1.1719-12.266 0.89844-11.406 0.89844-10.82 0.625-10.195 0.27344-9.2969 0.3125-8.3984 0.3125h-13.789l-5.4297-0.3125h-10.781l-3.9062-0.3125" fill="none" stroke="#000" stroke-dasharray="18" stroke-linejoin="bevel" stroke-miterlimit="10" stroke-width="2.25"/>
</g>
</g>
<path transform="matrix(.1 0 0 -.1 -.472 210.75)" d="m1267 1042 3.3203-36.914 14.375 34.219z" fill-rule="evenodd" stroke="#000" stroke-miterlimit="10" stroke-width="2.25"/>
<path transform="matrix(.1 0 0 -.1 -.472 210.75)" d="m859.92 1979.8-35.117-11.719 36.602-5.9766z" fill-rule="evenodd" stroke="#000" stroke-miterlimit="10" stroke-width="2.25"/>
<g clip-path="url(#ar)">
<g clip-path="url(#aq)">
<path transform="matrix(.1 0 0 -.1 -.472 210.75)" d="m459.99 1000.3v450" fill="none" stroke="#000" stroke-miterlimit="10" stroke-width="2.25"/>
</g>
</g>
<path transform="matrix(.1 0 0 -.1 -.472 210.75)" d="m451.01 1041.1 8.9844-36.016 9.0234 36.016z" fill-rule="evenodd" stroke="#000" stroke-miterlimit="10" stroke-width="2.25"/>
<path transform="matrix(.1 0 0 -.1 -.472 210.75)" d="m469.02 1409.5-9.0234 36.016-8.9844-36.016z" fill-rule="evenodd" stroke="#000" stroke-miterlimit="10" stroke-width="2.25"/>
<g clip-path="url(#ap)">
<g clip-path="url(#ao)">
<path transform="matrix(.1 0 0 -.1 -.472 210.75)" d="m2980 1000.3v450" fill="none" stroke="#000" stroke-miterlimit="10" stroke-width="2.25"/>
</g>
</g>
<path transform="matrix(.1 0 0 -.1 -.472 210.75)" d="m2971 1041.1 8.9844-36.016 9.0234 36.016z" fill-rule="evenodd" stroke="#000" stroke-miterlimit="10" stroke-width="2.25"/>
<path transform="matrix(.1 0 0 -.1 -.472 210.75)" d="m2989 1409.5-9.0234 36.016-8.9844-36.016z" fill-rule="evenodd" stroke="#000" stroke-miterlimit="10" stroke-width="2.25"/>
<g clip-path="url(#an)">
<g clip-path="url(#am)">
<path transform="matrix(.1 0 0 -.1 -.472 210.75)" d="m2078.2 1000.3-0.58594 3.9062-0.3125 2.6953-0.3125 3.9062-0.58594 4.4922-0.89844 6.0156-0.89844 6.9141-0.89844 8.3984-1.2109 9.2969-1.2109 10.508-1.1719 11.68-1.5234 12.891-1.1719 14.102-1.5234 14.727-1.7969 15.898-1.4844 16.484-1.5234 17.422-1.4844 17.969-1.2109 18.594-1.4844 18.906-1.2109 19.219-1.2109 19.805-0.89844 20.078-0.58594 20.117-0.58594 20.391-0.625 20.391v41.719l0.625 20.703 0.58594 20.977 1.2109 21.328 1.4844 20.977 1.7969 21.602 2.4219 21.289 2.6953 21.602 3.2812 21.914 3.9062 21.914 4.2188 21.875 5.0781 22.227 5.7031 22.188 6.2891 21.914 6.9141 22.188 7.8125 21.602 8.3984 21.016 8.9844 20.664 11.719 23.398 12.266 22.227 12.93 20.391 13.203 18.594 13.477 17.109 13.516 15.586 13.789 13.828 13.789 12.578 13.828 11.094 13.789 9.9219 13.789 8.9844 13.828 7.8125 13.789 6.875 13.789 6.0156 14.102 5.3906 13.789 4.8047 13.828 3.9062 13.789 3.3203 13.477 2.9688 13.516 2.4219 13.203 2.1094 12.891 1.7969 12.617 1.1719 11.992 0.89844 11.719 0.89844 10.781 0.625 10.195 0.27344 9.2969 0.3125 8.3984 0.3125h13.828l5.3906-0.3125h10.781l3.9062-0.3125" fill="none" stroke="#000" stroke-dasharray="18" stroke-linejoin="bevel" stroke-miterlimit="10" stroke-width="2.25"/>
</g>
</g>
<path transform="matrix(.1 0 0 -.1 -.472 210.75)" d="m2063.2 1039.3 14.414-34.219 3.2812 36.914z" fill-rule="evenodd" stroke="#000" stroke-miterlimit="10" stroke-width="2.25"/>
<path transform="matrix(.1 0 0 -.1 -.472 210.75)" d="m2486.8 1962.1 36.602 5.9766-35.078 11.719z" fill-rule="evenodd" stroke="#000" stroke-miterlimit="10" stroke-width="2.25"/>
<path d="m333.53 88.219c0 7.4375-16.117 13.469-36 13.469-19.883 0-36-6.0312-36-13.469 0-7.4414 16.117-13.473 36-13.473 19.883 0 36 6.0312 36 13.473" fill="#fff" fill-rule="evenodd"/>
<path transform="matrix(.1 0 0 -.1 -.472 210.75)" d="m3340 1225.3c0-74.375-161.17-134.69-360-134.69s-360 60.312-360 134.69c0 74.414 161.17 134.73 360 134.73s360-60.312 360-134.73z" fill="none" stroke="#000" stroke-miterlimit="10" stroke-width="2.25"/>
<path d="m81.527 88.219c0 7.4375-16.117 13.469-36 13.469-19.883 0-36-6.0312-36-13.469 0-7.4414 16.117-13.473 36-13.473 19.883 0 36 6.0312 36 13.473" fill="#fff" fill-rule="evenodd"/>
<path transform="matrix(.1 0 0 -.1 -.472 210.75)" d="m819.99 1225.3c0-74.375-161.17-134.69-360-134.69s-360 60.312-360 134.69c0 74.414 161.17 134.73 360 134.73s360-60.312 360-134.73z" fill="none" stroke="#000" stroke-miterlimit="10" stroke-width="2.25"/>
<path d="m162.5 52.219c0 7.4375-16.117 13.469-36 13.469-19.879 0-36-6.0312-36-13.469 0-7.4414 16.121-13.473 36-13.473 19.883 0 36 6.0312 36 13.473" fill="#fff" fill-rule="evenodd"/>
<path transform="matrix(.1 0 0 -.1 -.472 210.75)" d="m1629.7 1585.3c0-74.375-161.17-134.69-360-134.69-198.79 0-360 60.312-360 134.69 0 74.414 161.21 134.73 360 134.73 198.83 0 360-60.312 360-134.73z" fill="none" stroke="#000" stroke-miterlimit="10" stroke-width="2.25"/>
<path d="m243.71 52.219c0 7.4375-16.117 13.469-36 13.469-19.883 0-36-6.0312-36-13.469 0-7.4414 16.117-13.473 36-13.473 19.883 0 36 6.0312 36 13.473" fill="#fff" fill-rule="evenodd"/>
<path transform="matrix(.1 0 0 -.1 -.472 210.75)" d="m2441.8 1585.3c0-74.375-161.17-134.69-360-134.69s-360 60.312-360 134.69c0 74.414 161.17 134.73 360 134.73s360-60.312 360-134.73z" fill="none" stroke="#000" stroke-miterlimit="10" stroke-width="2.25"/>
<g>
<use x="277.896" y="60.767" xlink:href="#r"/>
<use x="282.9" y="60.767" xlink:href="#c"/>
<use x="285.897" y="60.767" xlink:href="#p"/>
<use x="290.901" y="60.767" xlink:href="#k"/>
<use x="295.905" y="60.767" xlink:href="#c"/>
<use x="298.902" y="60.767" xlink:href="#h"/>
<use x="303.906" y="60.767" xlink:href="#f"/>
<use x="311.403" y="60.767" xlink:href="#f"/>
<use x="25.026" y="60.557234" xlink:href="#r"/>
<use x="30.03" y="60.557234" xlink:href="#c"/>
<use x="33.027" y="60.557234" xlink:href="#p"/>
<use x="38.031" y="60.557234" xlink:href="#k"/>
<use x="43.035" y="60.557234" xlink:href="#c"/>
<use x="46.032" y="60.557234" xlink:href="#h"/>
<use x="51.036" y="60.557234" xlink:href="#f"/>
<use x="58.533" y="60.557234" xlink:href="#f"/>
<use x="136.242" y="123.317034" xlink:href="#m"/>
<use x="142.245" y="123.317034" xlink:href="#a"/>
<use x="147.249" y="123.317034" xlink:href="#b"/>
<use x="149.751" y="123.317034" xlink:href="#c"/>
<use x="152.748" y="123.317034" xlink:href="#g"/>
<use x="154.746" y="123.317034" xlink:href="#a"/>
<use x="159.75" y="123.317034" xlink:href="#x"/>
<use x="164.754" y="123.317034" xlink:href="#e"/>
<use x="169.254" y="123.317034" xlink:href="#e"/>
<use x="173.754" y="123.317034" xlink:href="#ac"/>
<use x="178.254" y="123.317034" xlink:href="#e"/>
<use x="182.754" y="123.317034" xlink:href="#b"/>
<use x="185.256" y="123.317034" xlink:href="#a"/>
<use x="190.26" y="123.317034" xlink:href="#f"/>
<use x="147.4955" y="159.317034" xlink:href="#w"/>
<use x="153.9935" y="159.317034" xlink:href="#h"/>
<use x="158.9975" y="159.317034" xlink:href="#c"/>
<use x="161.9945" y="159.317034" xlink:href="#v"/>
<use x="166.9985" y="159.317034" xlink:href="#u"/>
<use x="173.4965" y="159.317034" xlink:href="#h"/>
<use x="178.5005" y="159.317034" xlink:href="#c"/>
<use x="181.4975" y="159.317034" xlink:href="#a"/>
<use x="20.4695" y="88.217034" xlink:href="#t"/>
<use x="26.4725" y="88.217034" xlink:href="#c"/>
<use x="29.4695" y="88.217034" xlink:href="#p"/>
<use x="34.4735" y="88.217034" xlink:href="#k"/>
<use x="39.4775" y="88.217034" xlink:href="#c"/>
<use x="42.4745" y="88.217034" xlink:href="#h"/>
<use x="47.4785" y="88.217034" xlink:href="#f"/>
<use x="54.9755" y="88.217034" xlink:href="#f"/>
<use x="62.4725" y="88.217034" xlink:href="#g"/>
<use x="64.4705" y="88.217034" xlink:href="#a"/>
<use x="69.4745" y="88.217034" xlink:href="#c"/>
<use x="72.4715" y="88.217034" xlink:href="#l"/>
<use x="22.89098" y="97.217034" xlink:href="#e"/>
<use x="27.39098" y="97.217034" xlink:href="#o"/>
<use x="31.89098" y="97.217034" xlink:href="#n"/>
<use x="36.89498" y="97.217034" xlink:href="#d"/>
<use x="41.89898" y="97.217034" xlink:href="#g"/>
<use x="43.89698" y="97.217034" xlink:href="#b"/>
<use x="46.39898" y="97.217034" xlink:href="#b"/>
<use x="48.90098" y="97.217034" xlink:href="#e"/>
<use x="53.40098" y="97.217034" xlink:href="#b"/>
<use x="55.90298" y="97.217034" xlink:href="#a"/>
<use x="60.90698" y="97.217034" xlink:href="#j"/>
<use x="62.90498" y="97.217034" xlink:href="#j"/>
<use x="64.90298" y="97.217034" xlink:href="#a"/>
<use x="186.45098" y="60.317034" xlink:href="#e"/>
<use x="190.95098" y="60.317034" xlink:href="#o"/>
<use x="195.45098" y="60.317034" xlink:href="#n"/>
<use x="200.45498" y="60.317034" xlink:href="#d"/>
<use x="205.45898" y="60.317034" xlink:href="#g"/>
<use x="207.45698" y="60.317034" xlink:href="#b"/>
<use x="209.95898" y="60.317034" xlink:href="#b"/>
<use x="212.46098" y="60.317034" xlink:href="#e"/>
<use x="216.96098" y="60.317034" xlink:href="#b"/>
<use x="219.46298" y="60.317034" xlink:href="#a"/>
<use x="224.46698" y="60.317034" xlink:href="#j"/>
<use x="226.46498" y="60.317034" xlink:href="#j"/>
<use x="228.46298" y="60.317034" xlink:href="#a"/>
<use x="189.32129" y="50.867034" xlink:href="#m"/>
<use x="195.32429" y="50.867034" xlink:href="#a"/>
<use x="200.32829" y="50.867034" xlink:href="#d"/>
<use x="205.33229" y="50.867034" xlink:href="#i"/>
<use x="210.33629" y="50.867034" xlink:href="#b"/>
<use x="212.83829" y="50.867034" xlink:href="#q"/>
<use x="217.33829" y="50.867034" xlink:href="#a"/>
<use x="222.34229" y="50.867034" xlink:href="#c"/>
<use x="225.33929" y="50.867034" xlink:href="#l"/>
<use x="272.46929" y="88.217034" xlink:href="#t"/>
<use x="278.47229" y="88.217034" xlink:href="#c"/>
<use x="281.46929" y="88.217034" xlink:href="#p"/>
<use x="286.47329" y="88.217034" xlink:href="#k"/>
<use x="291.47729" y="88.217034" xlink:href="#c"/>
<use x="294.47429" y="88.217034" xlink:href="#h"/>
<use x="299.47829" y="88.217034" xlink:href="#f"/>
<use x="306.97529" y="88.217034" xlink:href="#f"/>
<use x="314.47229" y="88.217034" xlink:href="#g"/>
<use x="316.47029" y="88.217034" xlink:href="#a"/>
<use x="321.47429" y="88.217034" xlink:href="#c"/>
<use x="324.47129" y="88.217034" xlink:href="#l"/>
<use x="274.89077" y="97.217034" xlink:href="#e"/>
<use x="279.39077" y="97.217034" xlink:href="#o"/>
<use x="283.89077" y="97.217034" xlink:href="#n"/>
<use x="288.89477" y="97.217034" xlink:href="#d"/>
<use x="293.89877" y="97.217034" xlink:href="#g"/>
<use x="295.89677" y="97.217034" xlink:href="#b"/>
<use x="298.39877" y="97.217034" xlink:href="#b"/>
<use x="300.90077" y="97.217034" xlink:href="#e"/>
<use x="305.40077" y="97.217034" xlink:href="#b"/>
<use x="307.90277" y="97.217034" xlink:href="#a"/>
<use x="312.90677" y="97.217034" xlink:href="#j"/>
<use x="314.90477" y="97.217034" xlink:href="#j"/>
<use x="316.90277" y="97.217034" xlink:href="#a"/>
</g>
<path transform="matrix(.1 0 0 -.1 -.472 210.75)" d="m819.99 1990c0-61.953-161.17-112.23-360-112.23s-360 50.273-360 112.23 161.17 112.19 360 112.19 360-50.234 360-112.19z" fill="none" stroke="#000" stroke-miterlimit="10" stroke-width="2.25"/>
<g>
<use x="108.112" y="50.867" xlink:href="#m"/>
<use x="114.115" y="50.867" xlink:href="#a"/>
<use x="119.119" y="50.867" xlink:href="#d"/>
<use x="124.123" y="50.867" xlink:href="#i"/>
<use x="129.127" y="50.867" xlink:href="#b"/>
<use x="131.629" y="50.867" xlink:href="#q"/>
<use x="136.129" y="50.867" xlink:href="#a"/>
<use x="141.133" y="50.867" xlink:href="#c"/>
<use x="144.13" y="50.867" xlink:href="#l"/>
<use x="54.0292" y="182.747" xlink:href="#ab"/>
<use x="60.5272" y="182.747" xlink:href="#t"/>
<use x="66.5302" y="182.747" xlink:href="#aa"/>
<use x="251.3866" y="182.747" xlink:href="#z"/>
<use x="257.3896" y="182.747" xlink:href="#g"/>
<use x="259.3876" y="182.747" xlink:href="#d"/>
<use x="264.3916" y="182.747" xlink:href="#l"/>
<use x="269.6476" y="182.747" xlink:href="#y"/>
<use x="272.1496" y="182.747" xlink:href="#s"/>
<use x="278.1526" y="182.747" xlink:href="#i"/>
<use x="283.1566" y="182.747" xlink:href="#e"/>
<use x="287.6566" y="182.747" xlink:href="#k"/>
<use x="292.6606" y="182.747" xlink:href="#h"/>
<use x="297.6646" y="182.747" xlink:href="#x"/>
<use x="302.6686" y="182.747" xlink:href="#a"/>
<use x="142.5181" y="182.747" xlink:href="#w"/>
<use x="149.0161" y="182.747" xlink:href="#h"/>
<use x="154.0201" y="182.747" xlink:href="#i"/>
<use x="159.0241" y="182.747" xlink:href="#r"/>
<use x="164.0281" y="182.747" xlink:href="#b"/>
<use x="166.5301" y="182.747" xlink:href="#e"/>
<use x="171.0301" y="182.747" xlink:href="#r"/>
<use x="176.0341" y="182.747" xlink:href="#a"/>
<use x="181.0381" y="182.747" xlink:href="#g"/>
<use x="183.0361" y="182.747" xlink:href="#o"/>
<use x="187.5361" y="182.747" xlink:href="#n"/>
<use x="192.5401" y="182.747" xlink:href="#a"/>
<use x="197.5441" y="182.747" xlink:href="#c"/>
<use x="105.2417" y="60.317" xlink:href="#e"/>
<use x="109.7417" y="60.317" xlink:href="#o"/>
<use x="114.2417" y="60.317" xlink:href="#n"/>
<use x="119.2457" y="60.317" xlink:href="#d"/>
<use x="124.2497" y="60.317" xlink:href="#g"/>
<use x="126.2477" y="60.317" xlink:href="#b"/>
<use x="128.7497" y="60.317" xlink:href="#b"/>
<use x="131.2517" y="60.317" xlink:href="#e"/>
<use x="135.7517" y="60.317" xlink:href="#b"/>
<use x="138.2537" y="60.317" xlink:href="#a"/>
<use x="143.2577" y="60.317" xlink:href="#j"/>
<use x="145.2557" y="60.317" xlink:href="#j"/>
<use x="147.2537" y="60.317" xlink:href="#a"/>
</g>
<path transform="matrix(.1 0 0 -.1 -.472 210.75)" d="m3249.7 1990.3c0-61.953-161.17-112.19-360-112.19-198.79 0-360 50.234-360 112.19 0 61.992 161.21 112.23 360 112.23 198.83 0 360-50.234 360-112.23z" fill="none" stroke="#000" stroke-miterlimit="10" stroke-width="2.25"/>
<path transform="matrix(.1 0 0 -.1 -.472 210.75)" d="m99.993 1450.3h720v270h-720z" fill="none" stroke="#000" stroke-miterlimit="10" stroke-width="2.25"/>
<path transform="matrix(.1 0 0 -.1 -.472 210.75)" d="m458.78 1270.3h2.4219" fill="none" stroke="#000" stroke-miterlimit="10" stroke-width="2.25"/>
<g clip-path="url(#al)">
<g clip-path="url(#ax)">
<path transform="matrix(.1 0 0 -.1 -.472 210.75)" d="m459.99 1720.3v157.5" fill="none" stroke="#000" stroke-miterlimit="10" stroke-width="2.25"/>
</g>
</g>
<path transform="matrix(.1 0 0 -.1 -.472 210.75)" d="m451.01 1761.1 8.9844-36.016 9.0234 36.016z" fill-rule="evenodd" stroke="#000" stroke-miterlimit="10" stroke-width="2.25"/>
<path transform="matrix(.1 0 0 -.1 -.472 210.75)" d="m469.02 1837-9.0234 36.016-8.9844-36.016z" fill-rule="evenodd" stroke="#000" stroke-miterlimit="10" stroke-width="2.25"/>
<path transform="matrix(.1 0 0 -.1 -.472 210.75)" d="m2620 1450.3h720v270h-720z" fill="none" stroke="#000" stroke-miterlimit="10" stroke-width="2.25"/>
<path transform="matrix(.1 0 0 -.1 -.472 210.75)" d="m99.993 820.01h3240v180.27h-3240z" fill="none" stroke="#000" stroke-miterlimit="10" stroke-width="18"/>
<g clip-path="url(#aw)">
<g clip-path="url(#av)">
<path transform="matrix(.1 0 0 -.1 -.472 210.75)" d="m1674.7 640.28v179.73" fill="none" stroke="#000" stroke-miterlimit="10" stroke-width="2.25"/>
</g>
</g>
<path transform="matrix(.1 0 0 -.1 -.472 210.75)" d="m1665.7 681.1 8.9844-36.016 9.0234 36.016z" fill-rule="evenodd" stroke="#000" stroke-miterlimit="10" stroke-width="2.25"/>
<path transform="matrix(.1 0 0 -.1 -.472 210.75)" d="m1683.7 779.19-9.0234 36.016-8.9844-36.016z" fill-rule="evenodd" stroke="#000" stroke-miterlimit="10" stroke-width="2.25"/>
<g clip-path="url(#au)">
<g clip-path="url(#at)">
<path transform="matrix(.1 0 0 -.1 -.472 210.75)" d="m2980 1720.3v157.5" fill="none" stroke="#000" stroke-miterlimit="10" stroke-width="2.25"/>
</g>
</g>
<path transform="matrix(.1 0 0 -.1 -.472 210.75)" d="m2971 1761.1 8.9844-36.016 9.0234 36.016z" fill-rule="evenodd" stroke="#000" stroke-miterlimit="10" stroke-width="2.25"/>
<path transform="matrix(.1 0 0 -.1 -.472 210.75)" d="m2989 1837-9.0234 36.016-8.9844-36.016z" fill-rule="evenodd" stroke="#000" stroke-miterlimit="10" stroke-width="2.25"/>
<path transform="matrix(.1 0 0 -.1 -.472 210.75)" d="m99.993 100.01h3240v540.27h-3240z" fill="none" stroke="#000" stroke-miterlimit="10" stroke-width="18"/>
<g>
<use x="27.5194" y="15.317" xlink:href="#m"/>
<use x="33.5224" y="15.317" xlink:href="#a"/>
<use x="38.5264" y="15.317" xlink:href="#d"/>
<use x="43.5304" y="15.317" xlink:href="#i"/>
<use x="48.5344" y="15.317" xlink:href="#b"/>
<use x="51.0364" y="15.317" xlink:href="#q"/>
<use x="55.5364" y="15.317" xlink:href="#a"/>
<use x="60.5404" y="15.317" xlink:href="#c"/>
<use x="16.8862" y="50.6572" xlink:href="#s"/>
<use x="22.8892" y="50.6572" xlink:href="#d"/>
<use x="27.8932" y="50.6572" xlink:href="#u"/>
<use x="34.3912" y="50.6572" xlink:href="#a"/>
<use x="39.3952" y="50.6572" xlink:href="#d"/>
<use x="44.3992" y="50.6572" xlink:href="#v"/>
<use x="49.4032" y="50.6572" xlink:href="#i"/>
<use x="54.4072" y="50.6572" xlink:href="#d"/>
<use x="59.4112" y="50.6572" xlink:href="#k"/>
<use x="64.4152" y="50.6572" xlink:href="#e"/>
<use x="68.9152" y="50.6572" xlink:href="#l"/>
<use x="270.6992" y="15.317" xlink:href="#m"/>
<use x="276.7022" y="15.317" xlink:href="#a"/>
<use x="281.7062" y="15.317" xlink:href="#d"/>
<use x="286.7102" y="15.317" xlink:href="#i"/>
<use x="291.7142" y="15.317" xlink:href="#b"/>
<use x="294.2162" y="15.317" xlink:href="#q"/>
<use x="298.7162" y="15.317" xlink:href="#a"/>
<use x="303.7202" y="15.317" xlink:href="#c"/>
<use x="268.88592" y="50.867" xlink:href="#s"/>
<use x="274.88892" y="50.867" xlink:href="#d"/>
<use x="279.89292" y="50.867" xlink:href="#u"/>
<use x="286.39092" y="50.867" xlink:href="#a"/>
<use x="291.39492" y="50.867" xlink:href="#d"/>
<use x="296.39892" y="50.867" xlink:href="#v"/>
<use x="301.40292" y="50.867" xlink:href="#i"/>
<use x="306.40692" y="50.867" xlink:href="#d"/>
<use x="311.41092" y="50.867" xlink:href="#k"/>
<use x="316.41492" y="50.867" xlink:href="#e"/>
<use x="320.91492" y="50.867" xlink:href="#l"/>
</g>
</svg>
