<svg width="78pt" height="27pt" version="1.1" viewBox="0 0 78 27" xmlns="http://www.w3.org/2000/svg" xmlns:xlink="http://www.w3.org/1999/xlink">
<defs>
<g id="i">
<path d="m5.0781-7.2656c-0.60938-0.35938-1.2031-0.54688-2-0.54688-1.5156 0-2.4688 1.0781-2.4688 2.1562 0 0.46875 0.15625 0.92188 0.59375 1.375 0.45312 0.5 0.9375 0.625 1.5781 0.78125 0.92188 0.23438 1.0312 0.26562 1.3438 0.53125 0.21875 0.1875 0.45312 0.54688 0.45312 1.0156 0 0.71875-0.59375 1.4375-1.5938 1.4375-0.4375 0-1.4219-0.10938-2.3438-0.875l-0.15625 0.875c0.95312 0.60938 1.8281 0.75 2.5156 0.75 1.4375 0 2.4375-1.0938 2.4375-2.2969 0-0.70312-0.32812-1.2344-0.57812-1.5-0.5-0.53125-0.875-0.64062-1.875-0.89062-0.625-0.15625-0.79688-0.1875-1.125-0.46875-0.078125-0.078125-0.39062-0.39062-0.39062-0.875 0-0.64062 0.59375-1.2969 1.5938-1.2969 0.92188 0 1.4375 0.35938 1.8438 0.70312z"/>
</g>
<g id="h">
<path d="m4.4688-4.5625c-0.64062-0.35938-1.0156-0.46875-1.6719-0.46875-1.5156 0-2.4062 1.3281-2.4062 2.6094 0 1.3594 1 2.5469 2.3594 2.5469 0.59375 0 1.1875-0.15625 1.7812-0.5625l-0.078125-0.73438c-0.54688 0.4375-1.1406 0.59375-1.6875 0.59375-0.90625 0-1.5156-0.78125-1.5156-1.8594 0-0.84375 0.39062-1.8906 1.5469-1.8906 0.57812 0 0.9375 0.078125 1.5469 0.48438z"/>
</g>
<g id="g">
<path d="m4.75-3.25c0-0.71875-0.17188-1.7188-1.5-1.7188-0.67188 0-1.2031 0.34375-1.5469 0.79688v-3.3906h-0.8125v7.5625h0.84375v-2.6719c0-0.71875 0.26562-1.625 1.0938-1.625 1.0469 0 1.0625 0.78125 1.0625 1.125v3.1719h0.85938z"/>
</g>
<g id="f">
<path d="m4.75-3.25c0-0.71875-0.17188-1.7188-1.5-1.7188-0.98438 0-1.5156 0.75-1.5781 0.82812v-0.76562h-0.78125v4.9062h0.84375v-2.6719c0-0.71875 0.26562-1.625 1.0938-1.625 1.0469 0 1.0625 0.78125 1.0625 1.125v3.1719h0.85938z"/>
</g>
<g id="e">
<path d="m1.7812-7.4219h-0.96875v0.96875h0.96875zm-0.078125 2.5781h-0.8125v4.8438h0.8125z"/>
</g>
<g id="a">
<path d="m1.9062-4.2031h1.5469v-0.64062h-1.5469v-1.3906h-0.75v1.3906h-0.95312v0.64062h0.92188v2.9062c0 0.65625 0.15625 1.4219 0.90625 1.4219 0.76562 0 1.3125-0.28125 1.5938-0.42188l-0.17188-0.64062c-0.29688 0.23438-0.64062 0.35938-0.98438 0.35938-0.40625 0-0.5625-0.32812-0.5625-0.90625z"/>
</g>
<g id="d">
<path d="m3.7344-4.6719c-0.5625-0.26562-1.0156-0.35938-1.5625-0.35938-0.28125 0-1.8125 0-1.8125 1.4375 0 0.53125 0.3125 0.875 0.59375 1.0781 0.32812 0.25 0.57812 0.29688 1.1719 0.40625 0.39062 0.078125 1.0312 0.21875 1.0312 0.79688 0 0.75-0.85938 0.75-1.0312 0.75-0.875 0-1.5-0.40625-1.6875-0.53125l-0.125 0.73438c0.34375 0.17188 0.9375 0.48438 1.8281 0.48438 0.1875 0 0.79688 0 1.2656-0.35938 0.32812-0.25 0.51562-0.6875 0.51562-1.1562 0-0.60938-0.40625-0.96875-0.42188-1.0156-0.42188-0.375-0.71875-0.4375-1.2656-0.53125-0.59375-0.125-1.0938-0.23438-1.0938-0.76562 0-0.6875 0.78125-0.6875 0.92188-0.6875 0.34375 0 0.92188 0.046875 1.5469 0.42188z"/>
</g>
<g id="c">
<path d="m4.5156-2.3906c0-0.375-0.015625-1.1875-0.4375-1.8438-0.45312-0.67188-1.1094-0.79688-1.5-0.79688-1.2188 0-2.2031 1.1562-2.2031 2.5625 0 1.4375 1.0469 2.5938 2.3594 2.5938 0.6875 0 1.3125-0.26562 1.7344-0.57812l-0.0625-0.70312c-0.6875 0.5625-1.4062 0.60938-1.6562 0.60938-0.875 0-1.5781-0.76562-1.6094-1.8438zm-3.3125-0.59375c0.17188-0.82812 0.75-1.375 1.375-1.375 0.5625 0 1.1719 0.375 1.3125 1.375z"/>
</g>
<g id="b">
<path d="m1.7031-7.5625h-0.8125v7.5625h0.8125z"/>
</g>
<clipPath id="j">
<path d="m0.52734 0h77.473v26.586h-77.473z"/>
</clipPath>
</defs>
<g clip-path="url(#j)">
<path transform="matrix(.1 0 0 -.1 .528 26.586)" d="m765.54 131.88c0-68.125-169.45-123.32-378.48-123.32-209.02 0-378.48 55.195-378.48 123.32 0 68.086 169.45 123.32 378.48 123.32 209.02 0 378.48-55.234 378.48-123.32z" fill="none" stroke="#000" stroke-miterlimit="10" stroke-width="12.758"/>
</g>
<g>
<use x="12.23" y="16.833" xlink:href="#i"/>
<use x="18.291096" y="16.833" xlink:href="#h"/>
<use x="23.1391" y="16.833" xlink:href="#g"/>
<use x="28.775832" y="16.833" xlink:href="#f"/>
<use x="34.412564" y="16.833" xlink:href="#e"/>
<use x="37.018748" y="16.833" xlink:href="#a"/>
<use x="40.958024" y="16.833" xlink:href="#a"/>
<use x="44.8973" y="16.833" xlink:href="#d"/>
<use x="49.078758" y="16.833" xlink:href="#a"/>
<use x="53.018034" y="16.833" xlink:href="#c"/>
<use x="57.866038" y="16.833" xlink:href="#b"/>
<use x="60.472222" y="16.833" xlink:href="#b"/>
<use x="63.078406" y="16.833" xlink:href="#c"/>
</g>
</svg>
