<svg width="398pt" height="137pt" version="1.1" viewBox="0 0 398 137" xmlns="http://www.w3.org/2000/svg" xmlns:xlink="http://www.w3.org/1999/xlink">
<defs>
<g id="p">
<path d="m3.9844-4.7188h-3.5156v0.65625h2.625l-2.8125 3.3906v0.67188h3.8281v-0.65625h-2.9219l2.7969-3.3906z"/>
</g>
<g id="g">
<path d="m4.3438 0v-4.7188h-0.75v2.6719c0 0.96875-0.5 1.5938-1.2969 1.5938-0.59375 0-0.96875-0.35938-0.96875-0.92188v-3.3438h-0.75v3.6406c0 0.78125 0.59375 1.2812 1.5156 1.2812 0.6875 0 1.125-0.23438 1.5625-0.85938v0.65625z"/>
</g>
<g id="e">
<path d="m3.6406-4.7188v0.6875c-0.375-0.5625-0.79688-0.8125-1.3906-0.8125-1.1406 0-1.9375 1.0625-1.9375 2.5625 0 0.79688 0.1875 1.375 0.59375 1.8438 0.35938 0.42188 0.79688 0.64062 1.2969 0.64062 0.5625 0 0.96875-0.25 1.3594-0.84375v0.25c0 1.25-0.34375 1.7188-1.2812 1.7188-0.64062 0-0.96875-0.25-1.0469-0.78125h-0.76562c0.078125 0.85938 0.76562 1.4219 1.7969 1.4219 0.6875 0 1.2656-0.23438 1.5625-0.60938 0.35938-0.4375 0.5-1.0312 0.5-2.1406v-3.9375zm-1.3125 0.5625c0.78125 0 1.2344 0.67188 1.2344 1.8594 0 1.1406-0.45312 1.8125-1.2344 1.8125s-1.2344-0.67188-1.2344-1.8438c0-1.1406 0.45312-1.8281 1.2344-1.8281z"/>
</g>
<g id="a">
<path d="m4.6094-2.1094c0-0.71875-0.046875-1.1562-0.1875-1.5-0.29688-0.78125-1.0156-1.2344-1.9062-1.2344-1.3125 0-2.1562 0.98438-2.1562 2.5469s0.8125 2.5 2.1406 2.5c1.0781 0 1.8281-0.60938 2.0156-1.6406h-0.75c-0.20312 0.625-0.64062 0.95312-1.2344 0.95312-0.48438 0-0.89062-0.21875-1.1406-0.60938-0.17188-0.28125-0.23438-0.54688-0.25-1.0156zm-3.4531-0.60938c0.0625-0.875 0.59375-1.4375 1.3594-1.4375s1.2969 0.59375 1.2969 1.4375z"/>
</g>
<g id="m">
<path d="m1.375-6.5625h-0.76562v6.5625h0.76562z"/>
</g>
<g id="j">
<path d="m4.8125-0.4375c-0.078125 0.015625-0.10938 0.015625-0.15625 0.015625-0.26562 0-0.40625-0.14062-0.40625-0.375v-2.7656c0-0.84375-0.60938-1.2812-1.7812-1.2812-0.6875 0-1.2344 0.1875-1.5625 0.54688-0.21875 0.23438-0.29688 0.51562-0.32812 0.96875h0.76562c0.0625-0.5625 0.40625-0.82812 1.1094-0.82812 0.67188 0 1.0469 0.25 1.0469 0.70312v0.1875c-0.015625 0.32812-0.17188 0.45312-0.78125 0.53125-1.0625 0.14062-1.2188 0.17188-1.5156 0.28125-0.54688 0.23438-0.82812 0.65625-0.82812 1.2656 0 0.85938 0.59375 1.3906 1.5469 1.3906 0.59375 0 1.0781-0.20312 1.6094-0.6875 0.046875 0.48438 0.28125 0.6875 0.76562 0.6875 0.17188 0 0.26562-0.015625 0.51562-0.078125zm-1.3125-1.0469c0 0.25-0.078125 0.40625-0.29688 0.60938-0.3125 0.28125-0.67188 0.42188-1.1094 0.42188-0.59375 0-0.9375-0.28125-0.9375-0.75 0-0.5 0.32812-0.75 1.1406-0.85938 0.79688-0.10938 0.95312-0.15625 1.2031-0.26562z"/>
</g>
<g id="i">
<path d="m3.9375-3.4062c0-0.92188-0.60938-1.4375-1.7031-1.4375s-1.8125 0.5625-1.8125 1.4375c0 0.73438 0.375 1.0781 1.5 1.3594l0.70312 0.17188c0.51562 0.125 0.71875 0.3125 0.71875 0.64062 0 0.45312-0.4375 0.75-1.0938 0.75-0.40625 0-0.75-0.125-0.9375-0.3125-0.10938-0.14062-0.17188-0.28125-0.21875-0.60938h-0.78125c0.03125 1.0938 0.64062 1.6094 1.875 1.6094 1.1875 0 1.9375-0.57812 1.9375-1.4844 0-0.70312-0.39062-1.0938-1.3281-1.3125l-0.71875-0.17188c-0.60938-0.15625-0.875-0.34375-0.875-0.6875 0-0.4375 0.39062-0.70312 1-0.70312s0.92188 0.26562 0.95312 0.75z"/>
</g>
<g id="b">
<path d="m0.625-4.7188v4.7188h0.76562v-2.5938c0-0.96875 0.5-1.5938 1.2656-1.5938 0.60938 0 0.98438 0.35938 0.98438 0.92188v3.2656h0.75v-3.5625c0-0.78125-0.59375-1.2812-1.5-1.2812-0.70312 0-1.1562 0.26562-1.5625 0.92188v-0.79688z"/>
</g>
<g id="h">
<path d="m0.48438-6.5625v6.5625h0.67188v-0.60938c0.35938 0.5625 0.84375 0.8125 1.5 0.8125 1.2344 0 2.0469-1.0156 2.0469-2.5781 0-1.5312-0.76562-2.4688-2.0156-2.4688-0.64062 0-1.1094 0.23438-1.4531 0.76562v-2.4844zm2.0625 2.4062c0.84375 0 1.375 0.73438 1.375 1.8594 0 1.0781-0.5625 1.7969-1.375 1.7969-0.79688 0-1.3125-0.71875-1.3125-1.8281 0-1.0938 0.51562-1.8281 1.3125-1.8281z"/>
</g>
<g id="l">
<path d="m4.4531-6.5625h-0.75v2.4375c-0.3125-0.46875-0.8125-0.71875-1.4375-0.71875-1.2344 0-2.0312 0.96875-2.0312 2.4844 0 1.5781 0.78125 2.5625 2.0469 2.5625 0.65625 0 1.1094-0.23438 1.5-0.82812v0.625h0.67188zm-2.0625 2.4062c0.79688 0 1.3125 0.71875 1.3125 1.8594 0 1.0781-0.51562 1.7969-1.3125 1.7969-0.82812 0-1.375-0.71875-1.375-1.8281 0-1.0938 0.54688-1.8281 1.375-1.8281z"/>
</g>
<g id="d">
<path d="m2.2812-4.7188h-0.76562v-1.2969h-0.75v1.2969h-0.64062v0.60938h0.64062v3.5625c0 0.5 0.32812 0.75 0.90625 0.75 0.20312 0 0.35938-0.015625 0.60938-0.0625v-0.625c-0.10938 0.03125-0.20312 0.03125-0.35938 0.03125-0.3125 0-0.40625-0.09375-0.40625-0.42188v-3.2344h0.76562z"/>
</g>
<g id="c">
<path d="m0.625-4.7188v4.7188h0.75v-2.4531c0.015625-1.125 0.48438-1.6406 1.5156-1.6094v-0.76562c-0.125-0.015625-0.20312-0.015625-0.29688-0.015625-0.48438 0-0.84375 0.28125-1.2812 0.98438v-0.85938z"/>
</g>
<g id="f">
<path d="m1.3438-4.7188h-0.73438v4.7188h0.73438zm0-1.8438h-0.75v0.95312h0.75z"/>
</g>
<g id="w">
<path d="m2.4531-4.8438c-1.3438 0-2.125 0.9375-2.125 2.5156 0 1.5938 0.78125 2.5312 2.125 2.5312 1.3281 0 2.1406-0.9375 2.1406-2.4844 0-1.6406-0.78125-2.5625-2.1406-2.5625zm0 0.6875c0.84375 0 1.3594 0.6875 1.3594 1.8594 0 1.125-0.53125 1.8125-1.3594 1.8125s-1.3438-0.6875-1.3438-1.8438c0-1.1406 0.51562-1.8281 1.3438-1.8281z"/>
</g>
<g id="o">
<path d="m4.2344-3.125c-0.03125-0.46875-0.125-0.76562-0.3125-1.0312-0.32812-0.4375-0.89062-0.6875-1.5469-0.6875-1.2812 0-2.0938 1-2.0938 2.5625 0 1.5312 0.8125 2.4844 2.0781 2.4844 1.125 0 1.8438-0.67188 1.9375-1.8281h-0.76562c-0.125 0.76562-0.5 1.1406-1.1406 1.1406-0.82812 0-1.3281-0.67188-1.3281-1.7969 0-1.1719 0.48438-1.875 1.2969-1.875 0.64062 0 1.0312 0.375 1.125 1.0312z"/>
</g>
<g id="aa">
<path d="m1.2656-6.5625h-0.75v6.5625h0.75v-1.8438l0.73438-0.71875 1.5938 2.5625h0.92188l-1.9219-3.0938 1.6406-1.625h-0.96875l-2 2z"/>
</g>
<g id="v">
<path d="m0.625-6.5625v6.5625h0.75v-2.5938c0-0.96875 0.5-1.5938 1.2812-1.5938 0.25 0 0.48438 0.0625 0.67188 0.20312 0.20312 0.15625 0.29688 0.39062 0.29688 0.71875v3.2656h0.75v-3.5625c0-0.79688-0.5625-1.2812-1.4844-1.2812-0.67188 0-1.0781 0.20312-1.5156 0.78125v-2.5z"/>
</g>
<g id="z">
<path d="m5.9531-4.5312c-0.25-1.4375-1.0781-2.1406-2.5312-2.1406-0.875 0-1.5781 0.28125-2.0781 0.82812-0.59375 0.64062-0.90625 1.5781-0.90625 2.6406 0 1.0781 0.32812 2 0.9375 2.6406 0.51562 0.53125 1.1562 0.76562 2.0156 0.76562 1.6094 0 2.5-0.85938 2.7031-2.5938h-0.85938c-0.078125 0.45312-0.17188 0.75-0.29688 1.0156-0.28125 0.53125-0.82812 0.84375-1.5312 0.84375-1.3125 0-2.1406-1.0469-2.1406-2.6875 0-1.6719 0.78125-2.7188 2.0625-2.7188 0.53125 0 1.0312 0.15625 1.2969 0.42188 0.25 0.21875 0.375 0.5 0.48438 0.98438z"/>
</g>
<g id="y">
<path d="m1.6562-2.7812h2.0625c0.51562 0 0.92188-0.15625 1.2656-0.46875 0.39062-0.35938 0.5625-0.78125 0.5625-1.3906 0-1.2344-0.71875-1.9219-2.0156-1.9219h-2.7188v6.5625h0.84375zm0-0.73438v-2.3125h1.75c0.79688 0 1.2812 0.4375 1.2812 1.1562s-0.48438 1.1562-1.2812 1.1562z"/>
</g>
<g id="u">
<path d="m4.9688-6.5625v4.6094c0 0.875-0.64062 1.4219-1.6875 1.4219-0.48438 0-0.89062-0.10938-1.2031-0.34375-0.32812-0.25-0.46875-0.57812-0.46875-1.0781v-4.6094h-0.84375v4.6094c0 1.3281 0.95312 2.1562 2.5156 2.1562 1.5312 0 2.5312-0.84375 2.5312-2.1562v-4.6094z"/>
</g>
<g id="k">
<path d="m1.6406-2.9844h3.5781v-0.73438h-3.5781v-2.1094h3.7188v-0.73438h-4.5469v6.5625h4.7031v-0.73438h-3.875z"/>
</g>
<g id="t">
<path d="m4.8906-2.4062h-4.5312v0.64062h4.5312z"/>
</g>
<g id="s">
<path d="m2.0625-6.5625-2.1406 6.75h0.5l2.1406-6.75z"/>
</g>
<g id="r">
<path d="m4.2656-1.9688 0.67188 1.9688h0.9375l-2.2969-6.5625h-1.0781l-2.3438 6.5625h0.89062l0.6875-1.9688zm-0.23438-0.70312h-2.0938l1.0938-2.9844z"/>
</g>
<g id="n">
<path d="m2.3281-4.7188h-0.79688v-0.73438c0-0.3125 0.17188-0.48438 0.53125-0.48438 0.0625 0 0.09375 0 0.26562 0.015625v-0.625c-0.17188-0.03125-0.28125-0.046875-0.42188-0.046875-0.70312 0-1.1094 0.40625-1.1094 1.0781v0.79688h-0.64062v0.60938h0.64062v4.1094h0.73438v-4.1094h0.79688z"/>
</g>
<g id="q">
<path d="m1.9375-4.7188h-0.9375v0.9375h0.9375zm-0.95312 3.7812v0.9375h0.54688v0.15625c0 0.625-0.125 0.8125-0.54688 0.82812v0.34375c0.59375 0.015625 0.95312-0.42188 0.95312-1.1875v-1.0781z"/>
</g>
<g id="x">
<path d="m6.7031 0 1.6562-6.5625h-0.9375l-1.2031 5.3281-1.5-5.3281h-0.89062l-1.4688 5.3281-1.2188-5.3281h-0.9375l1.6719 6.5625h0.92188l1.4688-5.3906 1.5156 5.3906z"/>
</g>
<clipPath id="ap">
<path d="m159 105h80v31.566h-80z"/>
</clipPath>
<clipPath id="ao">
<path d="m0.52734 0h67.473v32h-67.473z"/>
</clipPath>
<clipPath id="ai">
<path d="m273 3h77v59h-77z"/>
</clipPath>
<clipPath id="ah">
<path d="m0.52734 136.57h398v-137h-398zm343-127.03 0.03125 0.62891-5.8203 0.90234-0.089843-1.8008z" clip-rule="evenodd"/>
</clipPath>
<clipPath id="ag">
<path d="m129 21h140v41h-140z"/>
</clipPath>
<clipPath id="af">
<path d="m0.52734 136.57h398v-137h-398zm135.7-81.25-0.44922-0.45312 3.7812-4.5273 1.2578 1.2891z" clip-rule="evenodd"/>
</clipPath>
<clipPath id="ae">
<path d="m129 66h140v41h-140z"/>
</clipPath>
<clipPath id="ad">
<path d="m0.52734 136.57h398v-137h-398zm261.7-64.152 0.45313 0.44922-3.7812 4.5312-1.2617-1.2891z" clip-rule="evenodd"/>
</clipPath>
<clipPath id="ac">
<path d="m111 66h68v68h-68z"/>
</clipPath>
<clipPath id="ab">
<path d="m0.52734 136.57h398v-137h-398zm117.34-63.941 0.60156-0.12109 1.6484 5.6406-1.7695 0.33203z" clip-rule="evenodd"/>
</clipPath>
<clipPath id="an">
<path d="m219 66h68v68h-68z"/>
</clipPath>
<clipPath id="am">
<path d="m0.52734 136.57h398v-137h-398zm225.46-9.3398-0.12109-0.60156 5.6406-1.6484 0.33203 1.7695z" clip-rule="evenodd"/>
</clipPath>
<clipPath id="al">
<path d="m215 112h30v24.566h-30z"/>
</clipPath>
<clipPath id="ak">
<path d="m48 3h77v59h-77z"/>
</clipPath>
<clipPath id="aj">
<path d="m0.52734 136.57h398v-137h-398zm118.12-81.52-0.60156 0.23828-2.7305-5.2188 1.6523-0.66016z" clip-rule="evenodd"/>
</clipPath>
</defs>
<g>
<use x="93.2178" y="18.865" xlink:href="#p"/>
<use x="97.7178" y="18.865" xlink:href="#g"/>
<use x="102.7218" y="18.865" xlink:href="#e"/>
<use x="107.7258" y="18.865" xlink:href="#a"/>
<use x="112.7298" y="18.865" xlink:href="#m"/>
<use x="114.7278" y="18.865" xlink:href="#j"/>
<use x="119.7318" y="18.865" xlink:href="#i"/>
<use x="124.2318" y="18.865" xlink:href="#i"/>
<use x="128.7318" y="18.865" xlink:href="#a"/>
<use x="133.7358" y="18.865" xlink:href="#b"/>
<use x="353.9648" y="12.265" xlink:href="#h"/>
<use x="358.9688" y="12.265" xlink:href="#a"/>
<use x="363.9728" y="12.265" xlink:href="#a"/>
<use x="368.9768" y="12.265" xlink:href="#b"/>
<use x="373.9808" y="12.265" xlink:href="#l"/>
<use x="378.9848" y="12.265" xlink:href="#a"/>
<use x="383.9888" y="12.265" xlink:href="#d"/>
</g>
<path transform="matrix(.1 0 0 -.1 .528 136.56)" d="m1537 727.02c0-49.727-120.86-90-270-90-149.1 0-270 40.273-270 90 0 49.688 120.9 90 270 90 149.14 0 270-40.312 270-90z" fill="none" stroke="#000" stroke-miterlimit="10" stroke-width="9"/>
<g>
<use x="115.974" y="66.265" xlink:href="#h"/>
<use x="120.978" y="66.265" xlink:href="#a"/>
<use x="125.982" y="66.265" xlink:href="#c"/>
<use x="128.979" y="66.265" xlink:href="#a"/>
<use x="133.983" y="66.265" xlink:href="#f"/>
<use x="135.981" y="66.265" xlink:href="#d"/>
</g>
<g clip-path="url(#ap)">
<path transform="matrix(.1 0 0 -.1 .528 136.56)" d="m2257 97.017c0-49.727-120.86-90-270-90-149.1 0-270 40.273-270 90 0 49.688 120.9 90 270 90 149.14 0 270-40.312 270-90z" fill="none" stroke="#000" stroke-miterlimit="10" stroke-width="9"/>
</g>
<g>
<use x="182.475" y="129.265" xlink:href="#h"/>
<use x="187.479" y="129.265" xlink:href="#m"/>
<use x="189.477" y="129.265" xlink:href="#w"/>
<use x="194.481" y="129.265" xlink:href="#o"/>
<use x="198.981" y="129.265" xlink:href="#aa"/>
<use x="203.481" y="129.265" xlink:href="#f"/>
<use x="205.479" y="129.265" xlink:href="#a"/>
<use x="210.483" y="129.265" xlink:href="#c"/>
<use x="213.48" y="129.265" xlink:href="#d"/>
</g>
<g clip-path="url(#ao)">
<path transform="matrix(.1 0 0 -.1 .528 136.56)" d="m546.99 1267c0-49.727-120.86-90-270-90-149.1 0-270 40.273-270 90 0 49.688 120.9 90 270 90 149.14 0 270-40.312 270-90z" fill="none" stroke="#000" stroke-miterlimit="10" stroke-width="9"/>
</g>
<g>
<use x="13.221" y="12.265" xlink:href="#a"/>
<use x="18.225" y="12.265" xlink:href="#c"/>
<use x="21.222" y="12.265" xlink:href="#p"/>
<use x="25.722" y="12.265" xlink:href="#a"/>
<use x="30.726" y="12.265" xlink:href="#g"/>
<use x="35.73" y="12.265" xlink:href="#e"/>
<use x="40.734" y="12.265" xlink:href="#d"/>
</g>
<path transform="matrix(.1 0 0 -.1 .528 136.56)" d="m2977 727.02c0-49.727-120.86-90-270-90-149.1 0-270 40.273-270 90 0 49.688 120.9 90 270 90 149.14 0 270-40.312 270-90z" fill="none" stroke="#000" stroke-miterlimit="10" stroke-width="9"/>
<g>
<use x="252.468" y="66.265" xlink:href="#c"/>
<use x="255.465" y="66.265" xlink:href="#a"/>
<use x="260.469" y="66.265" xlink:href="#o"/>
<use x="264.969" y="66.265" xlink:href="#v"/>
<use x="269.973" y="66.265" xlink:href="#b"/>
<use x="274.977" y="66.265" xlink:href="#a"/>
<use x="279.981" y="66.265" xlink:href="#b"/>
<use x="284.985" y="66.265" xlink:href="#l"/>
</g>
<g clip-path="url(#ai)">
<g clip-path="url(#ah)">
<path transform="matrix(.1 0 0 -.1 .528 136.56)" d="m2797 816.98c96.562 265.98 347.07 444.92 629.96 450" fill="none" stroke="#000" stroke-miterlimit="10" stroke-width="4.5"/>
</g>
</g>
<path transform="matrix(.1 0 0 -.1 .528 136.56)" d="m3372.1 1255 35.391 10.82-36.289 7.1875z" fill-rule="evenodd" stroke="#000" stroke-miterlimit="10" stroke-width="9"/>
<g clip-path="url(#ag)">
<g clip-path="url(#af)">
<path transform="matrix(.1 0 0 -.1 .528 136.56)" d="m2617 817.02c-164.18 172.38-391.88 270-630 270-238.09 0-465.78-97.617-630-270" fill="none" stroke="#000" stroke-miterlimit="10" stroke-width="4.5"/>
</g>
</g>
<path transform="matrix(.1 0 0 -.1 .528 136.56)" d="m1390.3 862.29-19.492-31.797 32.07 18.906z" fill-rule="evenodd" stroke="#000" stroke-miterlimit="10" stroke-width="9"/>
<g clip-path="url(#ae)">
<g clip-path="url(#ad)">
<path transform="matrix(.1 0 0 -.1 .528 136.56)" d="m1357 637.02c164.22-172.42 391.91-270 630-270 238.12 0 465.82 97.578 630 270" fill="none" stroke="#000" stroke-miterlimit="10" stroke-width="4.5"/>
</g>
</g>
<path transform="matrix(.1 0 0 -.1 .528 136.56)" d="m2583.7 591.7 19.492 31.797-32.109-18.906z" fill-rule="evenodd" stroke="#000" stroke-miterlimit="10" stroke-width="9"/>
<g clip-path="url(#ac)">
<g clip-path="url(#ab)">
<path transform="matrix(.1 0 0 -.1 .528 136.56)" d="m1717 97.017c-280 40-500 260-539.96 540" fill="none" stroke="#000" stroke-miterlimit="10" stroke-width="4.5"/>
</g>
</g>
<path transform="matrix(.1 0 0 -.1 .528 136.56)" d="m1195.9 584.2-15.273 33.594-2.4219-36.914z" fill-rule="evenodd" stroke="#000" stroke-miterlimit="10" stroke-width="9"/>
<g clip-path="url(#an)">
<g clip-path="url(#am)">
<path transform="matrix(.1 0 0 -.1 .528 136.56)" d="m2797 637.02c-40-280-260-500-540-540" fill="none" stroke="#000" stroke-miterlimit="10" stroke-width="4.5"/>
</g>
</g>
<path d="m231.51 124.98-3.3594 1.5273 3.6914 0.24219z" fill-rule="evenodd"/>
<g clip-path="url(#al)">
<path transform="matrix(.1 0 0 -.1 .528 136.56)" d="m2309.8 115.88-33.594-15.273 36.914-2.4219z" fill="none" stroke="#000" stroke-miterlimit="10" stroke-width="9"/>
</g>
<g clip-path="url(#ak)">
<g clip-path="url(#aj)">
<path transform="matrix(.1 0 0 -.1 .528 136.56)" d="m546.99 1267c282.93-5.0781 533.44-184.02 630-450" fill="none" stroke="#000" stroke-miterlimit="10" stroke-width="4.5"/>
</g>
</g>
<path transform="matrix(.1 0 0 -.1 .528 136.56)" d="m1147.9 864.99 21.914-30-5.3906 36.602z" fill-rule="evenodd" stroke="#000" stroke-miterlimit="10" stroke-width="9"/>
<g>
<use x="171.721" y="90.865" xlink:href="#z"/>
<use x="178.219" y="90.865" xlink:href="#y"/>
<use x="184.222" y="90.865" xlink:href="#u"/>
<use x="190.72" y="90.865" xlink:href="#glyph-0-21"/>
<use x="193.222" y="90.865" xlink:href="#p"/>
<use x="197.722" y="90.865" xlink:href="#g"/>
<use x="202.726" y="90.865" xlink:href="#e"/>
<use x="207.73" y="90.865" xlink:href="#a"/>
<use x="212.734" y="90.865" xlink:href="#d"/>
<use x="215.236" y="90.865" xlink:href="#a"/>
<use x="220.24" y="90.865" xlink:href="#f"/>
<use x="222.238" y="90.865" xlink:href="#m"/>
<use x="224.236" y="90.865" xlink:href="#d"/>
<use x="262.5718" y="117.865" xlink:href="#k"/>
<use x="268.5748" y="117.865" xlink:href="#f"/>
<use x="270.5728" y="117.865" xlink:href="#b"/>
<use x="275.5768" y="117.865" xlink:href="#t"/>
<use x="280.8328" y="117.865" xlink:href="#s"/>
<use x="283.3348" y="117.865" xlink:href="#r"/>
<use x="289.3378" y="117.865" xlink:href="#g"/>
<use x="294.3418" y="117.865" xlink:href="#i"/>
<use x="298.8418" y="117.865" xlink:href="#e"/>
<use x="303.8458" y="117.865" xlink:href="#j"/>
<use x="308.8498" y="117.865" xlink:href="#h"/>
<use x="313.8538" y="117.865" xlink:href="#a"/>
<use x="318.8578" y="117.865" xlink:href="#j"/>
<use x="323.8618" y="117.865" xlink:href="#b"/>
<use x="328.8658" y="117.865" xlink:href="#n"/>
<use x="331.3678" y="117.865" xlink:href="#w"/>
<use x="336.3718" y="117.865" xlink:href="#c"/>
<use x="339.3688" y="117.865" xlink:href="#l"/>
<use x="344.3728" y="117.865" xlink:href="#a"/>
<use x="349.3768" y="117.865" xlink:href="#c"/>
<use x="352.3738" y="117.865" xlink:href="#g"/>
<use x="357.3778" y="117.865" xlink:href="#b"/>
<use x="362.3818" y="117.865" xlink:href="#e"/>
<use x="367.3858" y="117.865" xlink:href="#q"/>
<use x="276.7152" y="128.665" xlink:href="#x"/>
<use x="285.2112" y="128.665" xlink:href="#j"/>
<use x="290.2152" y="128.665" xlink:href="#c"/>
<use x="293.2122" y="128.665" xlink:href="#d"/>
<use x="295.7142" y="128.665" xlink:href="#a"/>
<use x="300.7182" y="128.665" xlink:href="#b"/>
<use x="305.7222" y="128.665" xlink:href="#glyph-0-21"/>
<use x="308.2242" y="128.665" xlink:href="#j"/>
<use x="313.2282" y="128.665" xlink:href="#g"/>
<use x="318.2322" y="128.665" xlink:href="#n"/>
<use x="320.7342" y="128.665" xlink:href="#glyph-0-21"/>
<use x="323.2362" y="128.665" xlink:href="#k"/>
<use x="329.2392" y="128.665" xlink:href="#c"/>
<use x="332.2362" y="128.665" xlink:href="#a"/>
<use x="337.2402" y="128.665" xlink:href="#f"/>
<use x="339.2382" y="128.665" xlink:href="#e"/>
<use x="344.2422" y="128.665" xlink:href="#b"/>
<use x="349.2462" y="128.665" xlink:href="#f"/>
<use x="351.2442" y="128.665" xlink:href="#i"/>
<use x="44.3222" y="117.865" xlink:href="#k"/>
<use x="50.3252" y="117.865" xlink:href="#f"/>
<use x="52.3232" y="117.865" xlink:href="#b"/>
<use x="57.3272" y="117.865" xlink:href="#t"/>
<use x="62.5832" y="117.865" xlink:href="#s"/>
<use x="65.0852" y="117.865" xlink:href="#r"/>
<use x="71.0882" y="117.865" xlink:href="#g"/>
<use x="76.0922" y="117.865" xlink:href="#i"/>
<use x="80.5922" y="117.865" xlink:href="#e"/>
<use x="85.5962" y="117.865" xlink:href="#j"/>
<use x="90.6002" y="117.865" xlink:href="#h"/>
<use x="95.6042" y="117.865" xlink:href="#a"/>
<use x="100.6082" y="117.865" xlink:href="#glyph-0-21"/>
<use x="103.1102" y="117.865" xlink:href="#h"/>
<use x="108.1142" y="117.865" xlink:href="#a"/>
<use x="113.1182" y="117.865" xlink:href="#a"/>
<use x="118.1222" y="117.865" xlink:href="#b"/>
<use x="123.1262" y="117.865" xlink:href="#l"/>
<use x="128.1302" y="117.865" xlink:href="#a"/>
<use x="133.1342" y="117.865" xlink:href="#d"/>
<use x="135.6362" y="117.865" xlink:href="#q"/>
<use x="51.21165" y="128.665" xlink:href="#k"/>
<use x="57.21465" y="128.665" xlink:href="#c"/>
<use x="60.21165" y="128.665" xlink:href="#a"/>
<use x="65.21565" y="128.665" xlink:href="#f"/>
<use x="67.21365" y="128.665" xlink:href="#e"/>
<use x="72.21765" y="128.665" xlink:href="#b"/>
<use x="77.22165" y="128.665" xlink:href="#f"/>
<use x="79.21965" y="128.665" xlink:href="#i"/>
<use x="83.71965" y="128.665" xlink:href="#glyph-0-21"/>
<use x="86.22165" y="128.665" xlink:href="#a"/>
<use x="91.22565" y="128.665" xlink:href="#f"/>
<use x="93.22365" y="128.665" xlink:href="#b"/>
<use x="98.22765" y="128.665" xlink:href="#e"/>
<use x="103.23165" y="128.665" xlink:href="#a"/>
<use x="108.23565" y="128.665" xlink:href="#d"/>
<use x="110.73765" y="128.665" xlink:href="#c"/>
<use x="113.73465" y="128.665" xlink:href="#a"/>
<use x="118.73865" y="128.665" xlink:href="#d"/>
<use x="121.24065" y="128.665" xlink:href="#a"/>
<use x="126.24465" y="128.665" xlink:href="#b"/>
<use x="169.46665" y="23.365" xlink:href="#u"/>
<use x="175.96465" y="23.365" xlink:href="#b"/>
<use x="180.96865" y="23.365" xlink:href="#d"/>
<use x="183.47065" y="23.365" xlink:href="#a"/>
<use x="188.47465" y="23.365" xlink:href="#c"/>
<use x="191.47165" y="23.365" xlink:href="#h"/>
<use x="196.47565" y="23.365" xlink:href="#c"/>
<use x="199.47265" y="23.365" xlink:href="#a"/>
<use x="204.47665" y="23.365" xlink:href="#o"/>
<use x="208.97665" y="23.365" xlink:href="#v"/>
<use x="213.98065" y="23.365" xlink:href="#g"/>
<use x="218.98465" y="23.365" xlink:href="#b"/>
<use x="223.98865" y="23.365" xlink:href="#e"/>
<use x="283.72565" y="18.865" xlink:href="#n"/>
<use x="286.22765" y="18.865" xlink:href="#a"/>
<use x="291.23165" y="18.865" xlink:href="#c"/>
<use x="294.22865" y="18.865" xlink:href="#d"/>
<use x="296.73065" y="18.865" xlink:href="#f"/>
<use x="298.72865" y="18.865" xlink:href="#e"/>
</g>
<path transform="matrix(.1 0 0 -.1 .528 136.56)" d="m3967 1267c0-49.727-120.86-90-270-90-149.1 0-270 40.273-270 90 0 49.688 120.9 90 270 90 149.14 0 270-40.312 270-90z" fill="none" stroke="#000" stroke-miterlimit="10" stroke-width="9"/>
</svg>
