<svg width="230pt" height="289pt" version="1.1" viewBox="0 0 230 289" xmlns="http://www.w3.org/2000/svg" xmlns:xlink="http://www.w3.org/1999/xlink">
<defs>
<g id="c">
<path d="m1.5469-0.84375h-0.84375v0.84375h0.84375z"/>
</g>
<g id="r">
<path d="m5.2344-5.9062h-0.71875v4.8281l-3.0781-4.8281h-0.82812v5.9062h0.71875v-4.7812l3.0469 4.7812h0.85938z"/>
</g>
<g id="f">
<path d="m0.5625-4.2344v4.2344h0.67188v-2.2031c0.015625-1.0156 0.4375-1.4688 1.3594-1.4531v-0.6875c-0.10938-0.015625-0.17188-0.015625-0.25-0.015625-0.4375 0-0.78125 0.25-1.1562 0.89062v-0.76562z"/>
</g>
<g id="af">
<path d="m2.0938-4.1719v4.1719h0.71875v-5.8594h-0.46875c-0.25 0.90625-0.42188 1.0312-1.5156 1.1719v0.51562z"/>
</g>
<g id="ae">
<path d="m3.8438-1.7656 0.59375 1.7656h0.84375l-2.0625-5.9062h-0.98438l-2.0938 5.9062h0.79688l0.625-1.7656zm-0.21875-0.64062h-1.875l0.96875-2.6875z"/>
</g>
<g id="ad">
<path d="m4-5.9062h-0.67188v2.2031c-0.28125-0.4375-0.73438-0.65625-1.2969-0.65625-1.0938 0-1.8281 0.875-1.8281 2.2344 0 1.4219 0.70312 2.3125 1.8594 2.3125 0.57812 0 0.98438-0.21875 1.3438-0.75v0.5625h0.59375zm-1.8594 2.1719c0.73438 0 1.1875 0.64062 1.1875 1.6562 0 0.98438-0.46875 1.6406-1.1719 1.6406-0.75 0-1.2344-0.65625-1.2344-1.6562 0-0.98438 0.48438-1.6406 1.2188-1.6406z"/>
</g>
<g id="e">
<path d="m4.1562-1.8906c0-0.65625-0.046875-1.0469-0.17188-1.3594-0.28125-0.6875-0.92188-1.1094-1.7188-1.1094-1.1875 0-1.9375 0.89062-1.9375 2.2969s0.71875 2.25 1.9219 2.25c0.96875 0 1.6406-0.54688 1.8125-1.4688h-0.67188c-0.1875 0.54688-0.57812 0.84375-1.1094 0.84375-0.4375 0-0.79688-0.1875-1.0312-0.54688-0.15625-0.25-0.21875-0.48438-0.21875-0.90625zm-3.1094-0.54688c0.046875-0.79688 0.53125-1.2969 1.2188-1.2969s1.1562 0.53125 1.1562 1.2969z"/>
</g>
<g id="d">
<path d="m3.5469-3.0625c-0.015625-0.82812-0.5625-1.2969-1.5469-1.2969s-1.625 0.5-1.625 1.2969c0 0.65625 0.34375 0.96875 1.3438 1.2188l0.64062 0.15625c0.46875 0.10938 0.65625 0.28125 0.65625 0.57812 0 0.40625-0.40625 0.67188-0.98438 0.67188-0.375 0-0.67188-0.10938-0.84375-0.28125-0.10938-0.125-0.15625-0.25-0.20312-0.54688h-0.70312c0.03125 0.98438 0.57812 1.4531 1.6875 1.4531 1.0625 0 1.75-0.53125 1.75-1.3438 0-0.625-0.35938-0.98438-1.2031-1.1875l-0.64062-0.15625c-0.5625-0.125-0.79688-0.29688-0.79688-0.59375 0-0.40625 0.35938-0.64062 0.90625-0.64062s0.82812 0.23438 0.84375 0.67188z"/>
</g>
<g id="i">
<path d="m0.5625-4.2344v4.2344h0.6875v-2.3438c0-0.85938 0.45312-1.4219 1.1406-1.4219 0.54688 0 0.875 0.3125 0.875 0.82812v2.9375h0.67188v-3.2031c0-0.70312-0.51562-1.1562-1.3438-1.1562-0.625 0-1.0312 0.23438-1.4062 0.82812v-0.70312z"/>
</g>
<g id="an">
<path d="m4.4531-2.6875v2.6875h0.76562v-5.9062h-0.76562v2.5625h-3.0312v-2.5625h-0.75v5.9062h0.75v-2.6875z"/>
</g>
<g id="am">
<path d="m4.3281-0.39062c-0.078125 0.015625-0.10938 0.015625-0.14062 0.015625-0.23438 0-0.375-0.125-0.375-0.34375v-2.4844c0-0.75-0.54688-1.1562-1.5938-1.1562-0.60938 0-1.1094 0.17188-1.4062 0.48438-0.1875 0.21875-0.26562 0.46875-0.28125 0.89062h0.67188c0.0625-0.51562 0.35938-0.75 1-0.75 0.60938 0 0.95312 0.21875 0.95312 0.625v0.17188c-0.015625 0.29688-0.15625 0.40625-0.71875 0.48438-0.95312 0.10938-1.0938 0.14062-1.3594 0.25-0.48438 0.21875-0.73438 0.57812-0.73438 1.1406 0 0.76562 0.53125 1.25 1.3906 1.25 0.53125 0 0.95312-0.1875 1.4375-0.625 0.046875 0.4375 0.26562 0.625 0.70312 0.625 0.14062 0 0.23438-0.015625 0.45312-0.078125zm-1.1719-0.9375c0 0.21875-0.078125 0.35938-0.28125 0.54688-0.26562 0.25-0.59375 0.375-1 0.375-0.51562 0-0.82812-0.25-0.82812-0.67188 0-0.45312 0.28125-0.67188 1.0156-0.78125 0.71875-0.09375 0.85938-0.125 1.0938-0.23438z"/>
</g>
<g id="t">
<path d="m3.9062 0v-4.2344h-0.67188v2.3906c0 0.875-0.45312 1.4375-1.1562 1.4375-0.54688 0-0.875-0.32812-0.875-0.82812v-3h-0.67188v3.2656c0 0.70312 0.51562 1.1562 1.3438 1.1562 0.625 0 1.0156-0.21875 1.4219-0.78125v0.59375z"/>
</g>
<g id="s">
<path d="m0.4375 1.7656h0.67188v-2.2031c0.35938 0.42188 0.76562 0.625 1.3125 0.625 1.0938 0 1.8125-0.89062 1.8125-2.2344 0-1.4219-0.70312-2.3125-1.8281-2.3125-0.5625 0-1.0312 0.25-1.3438 0.75v-0.625h-0.625zm1.8594-5.5c0.75 0 1.2344 0.65625 1.2344 1.6719 0 0.96875-0.5 1.625-1.2344 1.625-0.71875 0-1.1875-0.65625-1.1875-1.6562 0-0.98438 0.46875-1.6406 1.1875-1.6406z"/>
</g>
<g id="al">
<path d="m2.0625-4.2344h-0.70312v-1.1719h-0.67188v1.1719h-0.57812v0.54688h0.57812v3.2031c0 0.4375 0.29688 0.67188 0.8125 0.67188 0.1875 0 0.32812-0.015625 0.5625-0.0625v-0.5625c-0.10938 0.03125-0.1875 0.03125-0.32812 0.03125-0.29688 0-0.375-0.078125-0.375-0.375v-2.9062h0.70312z"/>
</g>
<g id="ak">
<path d="m1.2188-4.2344h-0.67188v4.2344h0.67188zm0-1.6719h-0.6875v0.85938h0.6875z"/>
</g>
<g id="aj">
<path d="m3.8125-2.8125c-0.03125-0.42188-0.125-0.6875-0.28125-0.92188-0.29688-0.39062-0.79688-0.625-1.3906-0.625-1.1562 0-1.8906 0.90625-1.8906 2.3125 0 1.3594 0.73438 2.2344 1.875 2.2344 1.0156 0 1.6562-0.60938 1.7344-1.6406h-0.67188c-0.125 0.67188-0.46875 1.0156-1.0469 1.0156-0.73438 0-1.1875-0.60938-1.1875-1.6094 0-1.0625 0.4375-1.6875 1.1719-1.6875 0.5625 0 0.92188 0.32812 1 0.92188z"/>
</g>
<g id="ai">
<path d="m0.5625-5.9062v5.9062h0.67188v-2.3438c0-0.85938 0.45312-1.4219 1.1562-1.4219 0.21875 0 0.4375 0.0625 0.59375 0.1875 0.20312 0.14062 0.28125 0.34375 0.28125 0.64062v2.9375h0.67188v-3.2031c0-0.71875-0.51562-1.1562-1.3438-1.1562-0.59375 0-0.95312 0.1875-1.3594 0.70312v-2.25z"/>
</g>
<g id="h">
<path d="m1.4844-2.5h1.8594c0.45312 0 0.82812-0.14062 1.1406-0.42188 0.35938-0.32812 0.51562-0.70312 0.51562-1.25 0-1.1094-0.65625-1.7344-1.8281-1.7344h-2.4375v5.9062h0.75zm0-0.67188v-2.0625h1.5781c0.71875 0 1.1406 0.39062 1.1406 1.0312 0 0.65625-0.42188 1.0312-1.1406 1.0312z"/>
</g>
<g id="q">
<path d="m5.3594-4.0781c-0.23438-1.2812-0.98438-1.9219-2.2812-1.9219-0.78125 0-1.4219 0.25-1.8594 0.73438-0.53125 0.59375-0.82812 1.4219-0.82812 2.3906s0.29688 1.7969 0.84375 2.375c0.46875 0.46875 1.0469 0.6875 1.8125 0.6875 1.4375 0 2.25-0.78125 2.4375-2.3438h-0.78125c-0.0625 0.40625-0.14062 0.6875-0.26562 0.92188-0.25 0.48438-0.75 0.75-1.375 0.75-1.1719 0-1.9219-0.9375-1.9219-2.4062 0-1.5156 0.70312-2.4375 1.8594-2.4375 0.46875 0 0.92188 0.125 1.1562 0.35938 0.21875 0.20312 0.34375 0.45312 0.4375 0.89062z"/>
</g>
<g id="p">
<path d="m0.64062 0h2.6562c0.5625 0 0.98438-0.15625 1.2969-0.5 0.28125-0.29688 0.45312-0.71875 0.45312-1.1875 0-0.70312-0.32812-1.1406-1.0781-1.4219 0.54688-0.25 0.8125-0.6875 0.8125-1.2969 0-0.4375-0.15625-0.8125-0.46875-1.0781-0.3125-0.28125-0.70312-0.42188-1.2812-0.42188h-2.3906zm0.75-3.3594v-1.875h1.4531c0.42188 0 0.65625 0.046875 0.85938 0.20312 0.21875 0.17188 0.32812 0.40625 0.32812 0.73438s-0.10938 0.5625-0.32812 0.73438c-0.20312 0.14062-0.4375 0.20312-0.85938 0.20312zm0 2.7031v-2.0312h1.8438c0.65625 0 1.0625 0.375 1.0625 1.0156 0 0.625-0.40625 1.0156-1.0625 1.0156z"/>
</g>
<g id="o">
<path d="m2.3125 0 1.625-4.2344h-0.76562l-1.2031 3.4375-1.125-3.4375h-0.76562l1.4844 4.2344z"/>
</g>
<g id="g">
<path d="m2.2031-4.3594c-1.2031 0-1.9062 0.84375-1.9062 2.2656 0 1.4375 0.70312 2.2812 1.9062 2.2812s1.9219-0.84375 1.9219-2.25c0-1.4688-0.6875-2.2969-1.9219-2.2969zm0 0.625c0.76562 0 1.2188 0.625 1.2188 1.6719 0 1-0.46875 1.625-1.2188 1.625s-1.2031-0.625-1.2031-1.6562c0-1.0156 0.45312-1.6406 1.2031-1.6406z"/>
</g>
<g id="k">
<path d="m3.5781-4.2344h-3.1562v0.57812h2.3594l-2.5312 3.0469v0.60938h3.4531v-0.59375h-2.6406l2.5156-3.0469z"/>
</g>
<g id="n">
<path d="m0.5625-4.2344v4.2344h0.6875v-2.6562c0-0.625 0.4375-1.1094 0.98438-1.1094 0.51562 0 0.79688 0.29688 0.79688 0.84375v2.9219h0.67188v-2.6562c0-0.625 0.45312-1.1094 1-1.1094 0.5 0 0.78125 0.3125 0.78125 0.84375v2.9219h0.6875v-3.1875c0-0.75-0.4375-1.1719-1.2344-1.1719-0.5625 0-0.90625 0.17188-1.2969 0.64062-0.25-0.45312-0.59375-0.64062-1.1406-0.64062-0.57812 0-0.95312 0.20312-1.3125 0.71875v-0.59375z"/>
</g>
<g id="ah">
<path d="m4.4062-2.1562h-4.0781v0.5625h4.0781z"/>
</g>
<g id="ag">
<path d="m2.2188-5.8594c-0.53125 0-1.0156 0.25-1.3125 0.64062-0.375 0.53125-0.5625 1.2969-0.5625 2.3906 0 1.9688 0.65625 3.0156 1.875 3.0156s1.8906-1.0469 1.8906-2.9688c0-1.1406-0.1875-1.8906-0.5625-2.4375-0.29688-0.39062-0.78125-0.64062-1.3281-0.64062zm0 0.64062c0.78125 0 1.1562 0.78125 1.1562 2.375 0 1.6562-0.375 2.4375-1.1719 2.4375-0.75 0-1.125-0.8125-1.125-2.4219s0.375-2.3906 1.1406-2.3906z"/>
</g>
<g id="b">
<path d="m2.6406-4.9688-1.5469 0.5c-0.15625 0.046875-0.20312 0.09375-0.20312 0.20312s0.09375 0.20312 0.1875 0.20312c0.015625 0 0.10938-0.015625 0.14062-0.03125l1-0.3125v4h-1.0781c-0.17188 0-0.26562 0.0625-0.26562 0.20312 0 0.125 0.09375 0.20312 0.26562 0.20312h2.5938c0.17188 0 0.25-0.078125 0.25-0.20312 0-0.14062-0.078125-0.20312-0.25-0.20312h-1.0938z"/>
</g>
<g id="a">
<path d="m3.9844-2.8281c0-1.2812-0.625-2.1562-1.5469-2.1562-0.9375 0-1.5625 0.875-1.5625 2.1562v0.78125c0 1.2969 0.625 2.1719 1.5625 2.1719 0.92188 0 1.5469-0.875 1.5469-2.1719zm-2.6875 0.046875c0-0.5 0.14062-1.0312 0.375-1.3906 0.17188-0.26562 0.4375-0.40625 0.76562-0.40625s0.57812 0.14062 0.75 0.40625c0.23438 0.35938 0.375 0.89062 0.375 1.3906v0.70312c0 0.48438-0.14062 1.0312-0.375 1.3906-0.17188 0.26562-0.4375 0.39062-0.75 0.39062-0.32812 0-0.59375-0.125-0.76562-0.39062-0.23438-0.35938-0.375-0.90625-0.375-1.3906z"/>
</g>
<g id="ac">
<path d="m1.0938-0.40625c0.4375-0.375 0.9375-0.84375 1.6094-1.4844 1.0156-0.96875 1.1875-1.2031 1.1875-1.6875 0-0.75-0.71875-1.4062-1.5469-1.4062-0.5 0-0.96875 0.21875-1.2812 0.60938-0.15625 0.20312-0.26562 0.45312-0.26562 0.60938 0 0.09375 0.09375 0.1875 0.20312 0.1875s0.17188-0.0625 0.20312-0.1875c0.14062-0.46875 0.625-0.8125 1.1406-0.8125 0.60938 0 1.125 0.46875 1.125 1 0 0.34375-0.15625 0.54688-0.90625 1.2656-0.67188 0.64062-1.2812 1.2188-1.8438 1.7031l-0.078125 0.0625v0.54688h3.2812v-0.65625c0-0.17188-0.078125-0.26562-0.21875-0.26562s-0.20312 0.09375-0.20312 0.26562v0.25z"/>
</g>
<g id="ab">
<path d="m1.5938-4.4688h1.9062c0.17188 0 0.26562-0.078125 0.26562-0.20312 0-0.14062-0.09375-0.20312-0.26562-0.20312h-2.3281v2.1719c0 0.125 0.078125 0.21875 0.20312 0.21875 0.046875 0 0.078125-0.015625 0.1875-0.0625 0.35938-0.1875 0.67188-0.26562 1-0.26562 0.65625 0 1.1094 0.46875 1.1094 1.1562 0 0.8125-0.53125 1.3594-1.2969 1.3594-0.45312 0-0.875-0.17188-1.2656-0.51562-0.078125-0.0625-0.10938-0.078125-0.17188-0.078125-0.10938 0-0.20312 0.078125-0.20312 0.1875 0 0.125 0.10938 0.25 0.40625 0.42188 0.40625 0.26562 0.8125 0.40625 1.25 0.40625 1 0 1.7031-0.73438 1.7031-1.7656 0-0.92188-0.625-1.5781-1.4844-1.5781-0.34375 0-0.625 0.0625-1.0156 0.21875z"/>
</g>
<g id="aa">
<path d="m2.5 1.4844v1.8594c0 0.45312 0.14062 0.82812 0.42188 1.1406 0.32812 0.35938 0.70312 0.51562 1.25 0.51562 1.1094 0 1.7344-0.65625 1.7344-1.8281v-2.4375h-5.9062v0.75zm0.67188 0h2.0625v1.5781c0 0.71875-0.39062 1.1406-1.0312 1.1406-0.65625 0-1.0312-0.42188-1.0312-1.1406z"/>
</g>
<g id="z">
<path d="m4.2344 0.5625h-4.2344v0.67188h2.2031c1.0156 0.015625 1.4688 0.4375 1.4531 1.3594h0.6875c0.015625-0.10938 0.015625-0.17188 0.015625-0.25 0-0.4375-0.25-0.78125-0.89062-1.1562h0.76562z"/>
</g>
<g id="y">
<path d="m4.3594 2.2031c0-1.2031-0.84375-1.9062-2.2656-1.9062-1.4375 0-2.2812 0.70312-2.2812 1.9062s0.84375 1.9219 2.25 1.9219c1.4688 0 2.2969-0.6875 2.2969-1.9219zm-0.625 0c0 0.76562-0.625 1.2188-1.6719 1.2188-1 0-1.625-0.46875-1.625-1.2188s0.625-1.2031 1.6562-1.2031c1.0156 0 1.6406 0.45312 1.6406 1.2031z"/>
</g>
<g id="x">
<path d="m4.2344 3.5781v-3.1562h-0.57812v2.3594l-3.0469-2.5312h-0.60938v3.4531h0.59375v-2.6406l3.0469 2.5156z"/>
</g>
<g id="j">
<path d="m1.8906 4.1562c0.65625 0 1.0469-0.046875 1.3594-0.17188 0.6875-0.28125 1.1094-0.92188 1.1094-1.7188 0-1.1875-0.89062-1.9375-2.2969-1.9375s-2.25 0.71875-2.25 1.9219c0 0.96875 0.54688 1.6406 1.4688 1.8125v-0.67188c-0.54688-0.1875-0.84375-0.57812-0.84375-1.1094 0-0.4375 0.1875-0.79688 0.54688-1.0312 0.25-0.15625 0.48438-0.21875 0.90625-0.21875zm0.54688-3.1094c0.79688 0.046875 1.2969 0.53125 1.2969 1.2188s-0.53125 1.1562-1.2969 1.1562z"/>
</g>
<g id="l">
<path d="m3.0625 3.5469c0.82812-0.015625 1.2969-0.5625 1.2969-1.5469s-0.5-1.625-1.2969-1.625c-0.65625 0-0.96875 0.34375-1.2188 1.3438l-0.15625 0.64062c-0.10938 0.46875-0.28125 0.65625-0.57812 0.65625-0.40625 0-0.67188-0.40625-0.67188-0.98438 0-0.375 0.10938-0.67188 0.28125-0.84375 0.125-0.10938 0.25-0.15625 0.54688-0.20312v-0.70312c-0.98438 0.03125-1.4531 0.57812-1.4531 1.6875 0 1.0625 0.53125 1.75 1.3438 1.75 0.625 0 0.98438-0.35938 1.1875-1.2031l0.15625-0.64062c0.125-0.5625 0.29688-0.79688 0.59375-0.79688 0.40625 0 0.64062 0.35938 0.64062 0.90625s-0.23438 0.82812-0.67188 0.84375z"/>
</g>
<g id="w">
<path d="m4.2344 2.0625v-0.70312h1.1719v-0.67188h-1.1719v-0.57812h-0.54688v0.57812h-3.2031c-0.4375 0-0.67188 0.29688-0.67188 0.8125 0 0.1875 0.015625 0.32812 0.0625 0.5625h0.5625c-0.03125-0.10938-0.03125-0.1875-0.03125-0.32812 0-0.29688 0.078125-0.375 0.375-0.375h2.9062v0.70312z"/>
</g>
<g id="v">
<path d="m0.39062 4.3281c-0.015625-0.078125-0.015625-0.10938-0.015625-0.14062 0-0.23438 0.125-0.375 0.34375-0.375h2.4844c0.75 0 1.1562-0.54688 1.1562-1.5938 0-0.60938-0.17188-1.1094-0.48438-1.4062-0.21875-0.1875-0.46875-0.26562-0.89062-0.28125v0.67188c0.51562 0.0625 0.75 0.35938 0.75 1 0 0.60938-0.21875 0.95312-0.625 0.95312h-0.17188c-0.29688-0.015625-0.40625-0.15625-0.48438-0.71875-0.10938-0.95312-0.14062-1.0938-0.25-1.3594-0.21875-0.48438-0.57812-0.73438-1.1406-0.73438-0.76562 0-1.25 0.53125-1.25 1.3906 0 0.53125 0.1875 0.95312 0.625 1.4375-0.4375 0.046875-0.625 0.26562-0.625 0.70312 0 0.14062 0.015625 0.23438 0.078125 0.45312zm0.9375-1.1719c-0.21875 0-0.35938-0.078125-0.54688-0.28125-0.25-0.26562-0.375-0.59375-0.375-1 0-0.51562 0.25-0.82812 0.67188-0.82812 0.45312 0 0.67188 0.28125 0.78125 1.0156 0.09375 0.71875 0.125 0.85938 0.23438 1.0938z"/>
</g>
<g id="u">
<path d="m5.9062 0.4375h-5.9062v0.60938h0.54688c-0.5 0.32812-0.73438 0.75-0.73438 1.3438 0 1.1094 0.92188 1.8438 2.3281 1.8438 1.375 0 2.2188-0.6875 2.2188-1.8125 0-0.57812-0.21875-1-0.6875-1.3125h2.2344zm-2.1719 1.8594c0 0.75-0.65625 1.2344-1.6719 1.2344-0.96875 0-1.625-0.5-1.625-1.2344s0.65625-1.1875 1.6562-1.1875c0.98438 0 1.6406 0.45312 1.6406 1.1875z"/>
</g>
<g id="m">
<path d="m5.9062 1.2344v-0.6875h-5.9062v0.6875z"/>
</g>
<clipPath id="at">
<path d="m197 74h33v163h-33z"/>
</clipPath>
<clipPath id="as">
<path d="m-2.4727 289.11h233v-290h-233zm199.71-214.76v-0.37891l4.5078-1.4297-0.80859 1.6172 0.80859 1.6211z" clip-rule="evenodd"/>
</clipPath>
<clipPath id="ar">
<path d="m203 183h1v66h-1z"/>
</clipPath>
<clipPath id="aq">
<path d="m-2.4727 289.11h233v-290h-233zm206.33-40.047h-0.37891l-1.5117-4.7227 1.6992 0.86328 1.7031-0.86328zm-0.37891-65.445h0.37891l1.5117 4.7227-1.7031-0.86328-1.6992 0.86328z" clip-rule="evenodd"/>
</clipPath>
<clipPath id="ap">
<path d="m197 146h25v99h-25z"/>
</clipPath>
<clipPath id="ao">
<path d="m-2.4727 289.11h233v-290h-233zm199.71-141.86v-0.37891l4.5078-1.4297-0.80859 1.6211 0.80859 1.6211z" clip-rule="evenodd"/>
</clipPath>
</defs>
<g clip-path="url(#at)">
<g clip-path="url(#as)">
<path transform="matrix(.1 0 0 -.1 -2.472 289.1)" d="m1999 529.52h323.98v1620h-323.98" fill="none" stroke="#000" stroke-miterlimit="10" stroke-width="2.025"/>
</g>
</g>
<path d="m201.75 72.535-4.0469 1.6172 4.0469 1.6211-0.80859-1.6211 0.80859-1.6172" fill-rule="evenodd"/>
<path transform="matrix(.1 0 0 -.1 -2.472 289.1)" d="m2042.2 2165.7-40.469-16.172 40.469-16.211-8.0859 16.211z" fill="none" stroke="#000" stroke-miterlimit="10" stroke-width="2.025"/>
<path d="m48.93 197.84c0 0.49219-0.40234 0.89062-0.89453 0.89062-0.48828 0-0.89062-0.39844-0.89062-0.89062 0-0.49219 0.40234-0.89062 0.89062-0.89062 0.49219 0 0.89453 0.39844 0.89453 0.89062" fill-rule="evenodd"/>
<path transform="matrix(.1 0 0 -.1 -2.472 289.1)" d="m514.02 912.64c0-4.9219-4.0234-8.9062-8.9453-8.9062-4.8828 0-8.9062 3.9844-8.9062 8.9062s4.0234 8.9062 8.9062 8.9062c4.9219 0 8.9453-3.9844 8.9453-8.9062z" fill="none" stroke="#000" stroke-miterlimit="10" stroke-width="2.025"/>
<path d="m48.93 204.21c0 0.48828-0.40234 0.89062-0.89453 0.89062-0.48828 0-0.89062-0.40234-0.89062-0.89062 0-0.49219 0.40234-0.89453 0.89062-0.89453 0.49219 0 0.89453 0.40234 0.89453 0.89453" fill-rule="evenodd"/>
<path transform="matrix(.1 0 0 -.1 -2.472 289.1)" d="m514.02 848.89c0-4.8828-4.0234-8.9062-8.9453-8.9062-4.8828 0-8.9062 4.0234-8.9062 8.9062 0 4.9219 4.0234 8.9453 8.9062 8.9453 4.9219 0 8.9453-4.0234 8.9453-8.9453z" fill="none" stroke="#000" stroke-miterlimit="10" stroke-width="2.025"/>
<path d="m48.93 211.88c0 0.48828-0.40234 0.89063-0.89453 0.89063-0.48828 0-0.89062-0.40234-0.89062-0.89063 0-0.49219 0.40234-0.89453 0.89062-0.89453 0.49219 0 0.89453 0.40234 0.89453 0.89453" fill-rule="evenodd"/>
<path transform="matrix(.1 0 0 -.1 -2.472 289.1)" d="m514.02 772.21c0-4.8828-4.0234-8.9062-8.9453-8.9062-4.8828 0-8.9062 4.0234-8.9062 8.9062 0 4.9219 4.0234 8.9453 8.9062 8.9453 4.9219 0 8.9453-4.0234 8.9453-8.9453z" fill="none" stroke="#000" stroke-miterlimit="10" stroke-width="2.025"/>
<path d="m48.93 216.98c0 0.49219-0.40234 0.89062-0.89453 0.89062-0.48828 0-0.89062-0.39844-0.89062-0.89062s0.40234-0.89062 0.89062-0.89062c0.49219 0 0.89453 0.39844 0.89453 0.89062" fill-rule="evenodd"/>
<path transform="matrix(.1 0 0 -.1 -2.472 289.1)" d="m514.02 721.2c0-4.9219-4.0234-8.9062-8.9453-8.9062-4.8828 0-8.9062 3.9844-8.9062 8.9062s4.0234 8.9062 8.9062 8.9062c4.9219 0 8.9453-3.9844 8.9453-8.9062z" fill="none" stroke="#000" stroke-miterlimit="10" stroke-width="2.025"/>
<path transform="matrix(.1 0 0 -.1 -2.472 289.1)" d="m2036 402.33h50.742" fill="none" stroke="#000" stroke-miterlimit="10" stroke-width="2.025"/>
<path transform="matrix(.1 0 0 -.1 -2.472 289.1)" d="m2085.7 402.33h2.1875" fill="none" stroke="#000" stroke-miterlimit="10" stroke-width="2.025"/>
<path transform="matrix(.1 0 0 -.1 -2.472 289.1)" d="m2036 1053h50.742" fill="none" stroke="#000" stroke-miterlimit="10" stroke-width="2.025"/>
<g clip-path="url(#ar)">
<g clip-path="url(#aq)">
<path transform="matrix(.1 0 0 -.1 -2.472 289.1)" d="m2061.4 1053v-650.7" fill="none" stroke="#000" stroke-miterlimit="10" stroke-width="2.025"/>
</g>
</g>
<path d="m205.37 188.34-1.7031-4.2656-1.6992 4.2656 1.6992-0.86328 1.7031 0.86328" fill-rule="evenodd"/>
<path transform="matrix(.1 0 0 -.1 -2.472 289.1)" d="m2078.4 1007.7-17.031 42.656-16.992-42.656 16.992 8.6328z" fill="none" stroke="#000" stroke-miterlimit="10" stroke-width="2.025"/>
<path d="m201.96 244.34 1.6992 4.2656 1.7031-4.2656-1.7031 0.86328-1.6992-0.86328" fill-rule="evenodd"/>
<path transform="matrix(.1 0 0 -.1 -2.472 289.1)" d="m2044.4 447.68 16.992-42.656 17.031 42.656-17.031-8.6328z" fill="none" stroke="#000" stroke-miterlimit="10" stroke-width="2.025"/>
<path transform="matrix(.1 0 0 -.1 -2.472 289.1)" d="m1351 407.99v-405" fill="none" stroke="#000" stroke-miterlimit="10" stroke-width="2.025"/>
<path transform="matrix(.1 0 0 -.1 -2.472 289.1)" d="m1999 407.99v-405" fill="none" stroke="#000" stroke-miterlimit="10" stroke-width="2.025"/>
<path d="m165.92 256.4c0 0.49219-0.39844 0.89453-0.89062 0.89453-0.49219 0-0.89062-0.40234-0.89062-0.89453 0-0.48828 0.39844-0.89062 0.89062-0.89062 0.49219 0 0.89062 0.40234 0.89062 0.89062" fill-rule="evenodd"/>
<path transform="matrix(.1 0 0 -.1 -2.472 289.1)" d="m1683.9 327.02c0-4.9219-3.9844-8.9453-8.9062-8.9453s-8.9062 4.0234-8.9062 8.9453c0 4.8828 3.9844 8.9062 8.9062 8.9062s8.9062-4.0234 8.9062-8.9062z" fill="none" stroke="#000" stroke-miterlimit="10" stroke-width="2.025"/>
<path d="m165.92 264.5c0 0.49219-0.39844 0.89062-0.89062 0.89062-0.49219 0-0.89062-0.39844-0.89062-0.89062 0-0.49219 0.39844-0.89062 0.89062-0.89062 0.49219 0 0.89062 0.39844 0.89062 0.89062" fill-rule="evenodd"/>
<path transform="matrix(.1 0 0 -.1 -2.472 289.1)" d="m1683.9 246c0-4.9219-3.9844-8.9062-8.9062-8.9062s-8.9062 3.9844-8.9062 8.9062 3.9844 8.9062 8.9062 8.9062 8.9062-3.9844 8.9062-8.9062z" fill="none" stroke="#000" stroke-miterlimit="10" stroke-width="2.025"/>
<g clip-path="url(#ap)">
<g clip-path="url(#ao)">
<path transform="matrix(.1 0 0 -.1 -2.472 289.1)" d="m1999 448.5h242.97v971.99h-242.97" fill="none" stroke="#000" stroke-miterlimit="10" stroke-width="2.025"/>
</g>
</g>
<path d="m201.75 145.43-4.0469 1.6211 4.0469 1.6211-0.80859-1.6211 0.80859-1.6211" fill-rule="evenodd"/>
<path transform="matrix(.1 0 0 -.1 -2.472 289.1)" d="m2042.2 1436.7-40.469-16.211 40.469-16.211-8.0859 16.211z" fill="none" stroke="#000" stroke-miterlimit="10" stroke-width="2.025"/>
<path d="m165.92 272.61c0 0.49219-0.39844 0.89062-0.89062 0.89062-0.49219 0-0.89062-0.39844-0.89062-0.89062 0-0.49219 0.39844-0.89062 0.89062-0.89062 0.49219 0 0.89062 0.39844 0.89062 0.89062" fill-rule="evenodd"/>
<path transform="matrix(.1 0 0 -.1 -2.472 289.1)" d="m1683.9 164.99c0-4.9219-3.9844-8.9062-8.9062-8.9062s-8.9062 3.9844-8.9062 8.9062 3.9844 8.9062 8.9062 8.9062 8.9062-3.9844 8.9062-8.9062z" fill="none" stroke="#000" stroke-miterlimit="10" stroke-width="2.025"/>
<path d="m165.92 280.7c0 0.49219-0.39844 0.89062-0.89062 0.89062-0.49219 0-0.89062-0.39844-0.89062-0.89062s0.39844-0.89062 0.89062-0.89062c0.49219 0 0.89062 0.39844 0.89062 0.89062" fill-rule="evenodd"/>
<path transform="matrix(.1 0 0 -.1 -2.472 289.1)" d="m1683.9 84.009c0-4.9219-3.9844-8.9062-8.9062-8.9062s-8.9062 3.9844-8.9062 8.9062 3.9844 8.9062 8.9062 8.9062 8.9062-3.9844 8.9062-8.9062z" fill="none" stroke="#000" stroke-miterlimit="10" stroke-width="2.025"/>
<path d="m102.5 197.84c0 0.49219-0.39844 0.89062-0.89062 0.89062-0.49219 0-0.89062-0.39844-0.89062-0.89062 0-0.49219 0.39844-0.89062 0.89062-0.89062 0.49219 0 0.89062 0.39844 0.89062 0.89062" fill-rule="evenodd"/>
<path transform="matrix(.1 0 0 -.1 -2.472 289.1)" d="m1049.7 912.64c0-4.9219-3.9844-8.9062-8.9062-8.9062s-8.9062 3.9844-8.9062 8.9062 3.9844 8.9062 8.9062 8.9062 8.9062-3.9844 8.9062-8.9062z" fill="none" stroke="#000" stroke-miterlimit="10" stroke-width="2.025"/>
<path d="m102.5 204.21c0 0.48828-0.39844 0.89062-0.89062 0.89062-0.49219 0-0.89062-0.40234-0.89062-0.89062 0-0.49219 0.39844-0.89453 0.89062-0.89453 0.49219 0 0.89062 0.40234 0.89062 0.89453" fill-rule="evenodd"/>
<path transform="matrix(.1 0 0 -.1 -2.472 289.1)" d="m1049.7 848.89c0-4.8828-3.9844-8.9062-8.9062-8.9062s-8.9062 4.0234-8.9062 8.9062c0 4.9219 3.9844 8.9453 8.9062 8.9453s8.9062-4.0234 8.9062-8.9453z" fill="none" stroke="#000" stroke-miterlimit="10" stroke-width="2.025"/>
<path d="m102.5 210.59c0 0.49219-0.39844 0.89062-0.89062 0.89062-0.49219 0-0.89062-0.39844-0.89062-0.89062 0-0.49219 0.39844-0.89063 0.89062-0.89063 0.49219 0 0.89062 0.39844 0.89062 0.89063" fill-rule="evenodd"/>
<path transform="matrix(.1 0 0 -.1 -2.472 289.1)" d="m1049.7 785.18c0-4.9219-3.9844-8.9062-8.9062-8.9062s-8.9062 3.9844-8.9062 8.9062 3.9844 8.9062 8.9062 8.9062 8.9062-3.9844 8.9062-8.9062z" fill="none" stroke="#000" stroke-miterlimit="10" stroke-width="2.025"/>
<path d="m102.5 216.98c0 0.49219-0.39844 0.89062-0.89062 0.89062-0.49219 0-0.89062-0.39844-0.89062-0.89062s0.39844-0.89062 0.89062-0.89062c0.49219 0 0.89062 0.39844 0.89062 0.89062" fill-rule="evenodd"/>
<path transform="matrix(.1 0 0 -.1 -2.472 289.1)" d="m1049.7 721.2c0-4.9219-3.9844-8.9062-8.9062-8.9062s-8.9062 3.9844-8.9062 8.9062 3.9844 8.9062 8.9062 8.9062 8.9062-3.9844 8.9062-8.9062z" fill="none" stroke="#000" stroke-miterlimit="10" stroke-width="2.025"/>
<path d="m159.9 32.008c0 0.49219-0.39844 0.89063-0.89063 0.89063-0.49219 0-0.89062-0.39844-0.89062-0.89063 0-0.49219 0.39844-0.89062 0.89062-0.89062 0.49219 0 0.89063 0.39844 0.89063 0.89062" fill-rule="evenodd"/>
<path transform="matrix(.1 0 0 -.1 -2.472 289.1)" d="m1623.7 2571c0-4.9219-3.9844-8.9062-8.9062-8.9062s-8.9062 3.9844-8.9062 8.9062 3.9844 8.9062 8.9062 8.9062 8.9062-3.9844 8.9062-8.9062z" fill="none" stroke="#000" stroke-miterlimit="10" stroke-width="2.025"/>
<path d="m159.9 25.637c0 0.49219-0.39844 0.89062-0.89063 0.89062-0.49219 0-0.89062-0.39844-0.89062-0.89062 0-0.49219 0.39844-0.89453 0.89062-0.89453 0.49219 0 0.89063 0.40234 0.89063 0.89453" fill-rule="evenodd"/>
<path transform="matrix(.1 0 0 -.1 -2.472 289.1)" d="m1623.7 2634.7c0-4.9219-3.9844-8.9062-8.9062-8.9062s-8.9062 3.9844-8.9062 8.9062 3.9844 8.9453 8.9062 8.9453 8.9062-4.0234 8.9062-8.9453z" fill="none" stroke="#000" stroke-miterlimit="10" stroke-width="2.025"/>
<path d="m159.9 19.262c0 0.49219-0.39844 0.89062-0.89063 0.89062-0.49219 0-0.89062-0.39844-0.89062-0.89062 0-0.49219 0.39844-0.89062 0.89062-0.89062 0.49219 0 0.89063 0.39844 0.89063 0.89062" fill-rule="evenodd"/>
<path transform="matrix(.1 0 0 -.1 -2.472 289.1)" d="m1623.7 2698.4c0-4.9219-3.9844-8.9062-8.9062-8.9062s-8.9062 3.9844-8.9062 8.9062 3.9844 8.9062 8.9062 8.9062 8.9062-3.9844 8.9062-8.9062z" fill="none" stroke="#000" stroke-miterlimit="10" stroke-width="2.025"/>
<g>
<use x="131.575" y="94.917" xlink:href="#c"/>
<use x="131.575" y="91.67716" xlink:href="#c"/>
<use x="196.375" y="94.917" xlink:href="#c"/>
<use x="196.375" y="98.15723" xlink:href="#c"/>
<use x="196.375" y="91.67715" xlink:href="#c"/>
<use x="131.575" y="167.81695" xlink:href="#c"/>
<use x="131.575" y="171.05718" xlink:href="#c"/>
<use x="131.575" y="164.60405" xlink:href="#c"/>
<use x="196.375" y="167.81694" xlink:href="#c"/>
<use x="196.375" y="171.05717" xlink:href="#c"/>
<use x="196.375" y="164.60404" xlink:href="#c"/>
<use x="131.575" y="98.15714" xlink:href="#c"/>
</g>
<path d="m132.6 183.48v64.801h64.801v-64.801h-64.801" fill="#0f0" fill-rule="evenodd"/>
<path transform="matrix(.1 0 0 -.1 -2.472 289.1)" d="m1350.7 1056.3v-648.01h648.01v648.01z" fill="none" stroke="#000" stroke-miterlimit="10" stroke-width="2.025"/>
<g>
<use x="78.3319" y="76.746" xlink:href="#b"/>
<use x="83.1919" y="76.746" xlink:href="#b"/>
<use x="88.0519" y="76.746" xlink:href="#a"/>
<use x="92.9119" y="76.746" xlink:href="#b"/>
<use x="97.7719" y="76.746" xlink:href="#a"/>
<use x="102.6319" y="76.746" xlink:href="#b"/>
<use x="107.4919" y="76.746" xlink:href="#a"/>
<use x="112.3519" y="76.746" xlink:href="#b"/>
<use x="145.562" y="191.469" xlink:href="#b"/>
<use x="150.422" y="191.469" xlink:href="#b"/>
<use x="155.282" y="191.469" xlink:href="#a"/>
<use x="160.142" y="191.469" xlink:href="#b"/>
<use x="165.002" y="191.469" xlink:href="#b"/>
<use x="169.862" y="191.469" xlink:href="#b"/>
<use x="174.722" y="191.469" xlink:href="#a"/>
<use x="179.582" y="191.469" xlink:href="#a"/>
</g>
<path transform="matrix(.1 0 0 -.1 -2.472 289.1)" d="m1350.7 1299.3v485.7h648.01v-485.7" fill="none" stroke="#000" stroke-miterlimit="10" stroke-width="2.025"/>
<g>
<use x="209.578" y="181.245" xlink:href="#aa"/>
<use x="209.578" y="186.6477" xlink:href="#z"/>
<use x="209.578" y="189.345" xlink:href="#y"/>
<use x="209.578" y="193.8486" xlink:href="#x"/>
<use x="209.578" y="197.8986" xlink:href="#j"/>
<use x="209.578" y="202.4022" xlink:href="#l"/>
<use x="209.578" y="206.4522" xlink:href="#l"/>
<use x="209.578" y="210.5022" xlink:href="#w"/>
<use x="209.578" y="212.754" xlink:href="#v"/>
<use x="209.578" y="217.2576" xlink:href="#u"/>
<use x="209.578" y="221.7612" xlink:href="#j"/>
<use x="209.578" y="226.2648" xlink:href="#m"/>
<use x="209.578" y="228.063" xlink:href="#m"/>
<use x="209.578" y="229.8612" xlink:href="#j"/>
</g>
<path transform="matrix(.1 0 0 -.1 -2.472 289.1)" d="m1998.7 1056.3v80.742" fill="none" stroke="#000" stroke-miterlimit="10" stroke-width="2.025"/>
<path transform="matrix(.1 0 0 -.1 -2.472 289.1)" d="m1350.7 2762.1v-247.85" fill="none" stroke="#000" stroke-miterlimit="10" stroke-width="2.025"/>
<path transform="matrix(.1 0 0 -.1 -2.472 289.1)" d="m1998.7 2775.1v-260.82" fill="none" stroke="#000" stroke-miterlimit="10" stroke-width="2.025"/>
<path transform="matrix(.1 0 0 -.1 -2.472 289.1)" d="m1350.7 2028.3v486.02h648.01v-486.02" fill="none" stroke="#000" stroke-miterlimit="10" stroke-width="2.025"/>
<path transform="matrix(.1 0 0 -.1 -2.472 289.1)" d="m1350.7 2109h648.01" fill="none" stroke="#000" stroke-miterlimit="10" stroke-width="2.025"/>
<path transform="matrix(.1 0 0 -.1 -2.472 289.1)" d="m1350.7 1866.3v-81.289" fill="none" stroke="#000" stroke-miterlimit="10" stroke-width="2.025"/>
<path transform="matrix(.1 0 0 -.1 -2.472 289.1)" d="m1998.7 1866.3v-81.289" fill="none" stroke="#000" stroke-miterlimit="10" stroke-width="2.025"/>
<path transform="matrix(.1 0 0 -.1 -2.472 289.1)" d="m1350.7 1380.3h648.01" fill="none" stroke="#000" stroke-miterlimit="10" stroke-width="2.025"/>
<path transform="matrix(.1 0 0 -.1 -2.472 289.1)" d="m1350.7 651.27h648.01" fill="none" stroke="#000" stroke-miterlimit="10" stroke-width="2.025"/>
<path transform="matrix(.1 0 0 -.1 -2.472 289.1)" d="m1350.7 1056.3v80.742" fill="none" stroke="#000" stroke-miterlimit="10" stroke-width="2.025"/>
<path transform="matrix(.1 0 0 -.1 -2.472 289.1)" d="m1350.7 950.96h648.01" fill="none" stroke="#000" stroke-miterlimit="10" stroke-width="2.025"/>
<path transform="matrix(.1 0 0 -.1 -2.472 289.1)" d="m1350.7 746.86h648.01" fill="none" stroke="#000" stroke-miterlimit="10" stroke-width="2.025"/>
<path transform="matrix(.1 0 0 -.1 -2.472 289.1)" d="m1350.7 570.26h648.01" fill="none" stroke="#000" stroke-miterlimit="10" stroke-width="2.025"/>
<path transform="matrix(.1 0 0 -.1 -2.472 289.1)" d="m1350.7 489.01h648.01" fill="none" stroke="#000" stroke-miterlimit="10" stroke-width="2.025"/>
<g>
<use x="45.121" y="239.1778" xlink:href="#b"/>
<use x="44.932328" y="230.86178" xlink:href="#ac"/>
<use x="42.502248" y="190.14618" xlink:href="#b"/>
<use x="47.362248" y="190.14618" xlink:href="#ab"/>
<use x="156.225248" y="70.07718" xlink:href="#r"/>
<use x="162.073448" y="70.07718" xlink:href="#f"/>
<use x="164.770748" y="70.07718" xlink:href="#c"/>
<use x="167.022548" y="70.07718" xlink:href="#glyph-0-4"/>
<use x="169.274348" y="70.07718" xlink:href="#af"/>
<use x="80.853348" y="6.49198" xlink:href="#ae"/>
<use x="86.256048" y="6.49198" xlink:href="#ad"/>
<use x="90.759648" y="6.49198" xlink:href="#f"/>
<use x="93.456948" y="6.49198" xlink:href="#e"/>
<use x="97.960548" y="6.49198" xlink:href="#d"/>
<use x="102.010548" y="6.49198" xlink:href="#d"/>
<use x="106.060548" y="6.49198" xlink:href="#e"/>
<use x="110.564148" y="6.49198" xlink:href="#i"/>
<use x="139.296711" y="6.49198" xlink:href="#an"/>
<use x="145.144911" y="6.49198" xlink:href="#am"/>
<use x="149.648511" y="6.49198" xlink:href="#t"/>
<use x="154.152111" y="6.49198" xlink:href="#s"/>
<use x="158.655711" y="6.49198" xlink:href="#al"/>
<use x="160.907511" y="6.49198" xlink:href="#d"/>
<use x="164.957511" y="6.49198" xlink:href="#s"/>
<use x="169.461111" y="6.49198" xlink:href="#e"/>
<use x="173.964711" y="6.49198" xlink:href="#ak"/>
<use x="175.762911" y="6.49198" xlink:href="#aj"/>
<use x="179.812911" y="6.49198" xlink:href="#ai"/>
<use x="184.316511" y="6.49198" xlink:href="#e"/>
<use x="188.820111" y="6.49198" xlink:href="#f"/>
<use x="145.562348" y="246.87298" xlink:href="#a"/>
<use x="150.422348" y="246.87298" xlink:href="#b"/>
<use x="155.282348" y="246.87298" xlink:href="#b"/>
<use x="160.142348" y="246.87298" xlink:href="#a"/>
<use x="165.002348" y="246.87298" xlink:href="#b"/>
<use x="169.862348" y="246.87298" xlink:href="#b"/>
<use x="174.722348" y="246.87298" xlink:href="#a"/>
<use x="179.582348" y="246.87298" xlink:href="#a"/>
<use x="78.521348" y="149.64598" xlink:href="#a"/>
<use x="83.381348" y="149.64598" xlink:href="#b"/>
<use x="88.241348" y="149.64598" xlink:href="#b"/>
<use x="93.101348" y="149.64598" xlink:href="#a"/>
<use x="97.961348" y="149.64598" xlink:href="#b"/>
<use x="102.821348" y="149.64598" xlink:href="#b"/>
<use x="107.681348" y="149.64598" xlink:href="#a"/>
<use x="112.541348" y="149.64598" xlink:href="#a"/>
<use x="149.020548" y="124.75188" xlink:href="#h"/>
<use x="154.423248" y="124.75188" xlink:href="#q"/>
<use x="160.271448" y="124.75188" xlink:href="#p"/>
<use x="165.674148" y="124.75188" xlink:href="#glyph-0-4"/>
<use x="167.925948" y="124.75188" xlink:href="#o"/>
<use x="171.975948" y="124.75188" xlink:href="#g"/>
<use x="176.479548" y="124.75188" xlink:href="#i"/>
<use x="149.247111" y="133.85071" xlink:href="#h"/>
<use x="154.649811" y="133.85071" xlink:href="#f"/>
<use x="157.347111" y="133.85071" xlink:href="#g"/>
<use x="161.850711" y="133.85071" xlink:href="#k"/>
<use x="165.900711" y="133.85071" xlink:href="#e"/>
<use x="170.404311" y="133.85071" xlink:href="#d"/>
<use x="174.454311" y="133.85071" xlink:href="#d"/>
<use x="178.504311" y="133.85071" xlink:href="#glyph-0-4"/>
<use x="149.020548" y="51.85191" xlink:href="#h"/>
<use x="154.423248" y="51.85191" xlink:href="#q"/>
<use x="160.271448" y="51.85191" xlink:href="#p"/>
<use x="165.674148" y="51.85191" xlink:href="#glyph-0-4"/>
<use x="167.925948" y="51.85191" xlink:href="#o"/>
<use x="171.975948" y="51.85191" xlink:href="#g"/>
<use x="176.479548" y="51.85191" xlink:href="#i"/>
<use x="-0.154452" y="215.87691" xlink:href="#i"/>
<use x="4.349148" y="215.87691" xlink:href="#t"/>
<use x="8.852748" y="215.87691" xlink:href="#n"/>
<use x="15.600048" y="215.87691" xlink:href="#n"/>
<use x="22.347348" y="215.87691" xlink:href="#e"/>
<use x="26.850948" y="215.87691" xlink:href="#f"/>
<use x="29.548248" y="215.87691" xlink:href="#i"/>
<use x="0.064689" y="207.80386" xlink:href="#h"/>
<use x="5.467389" y="207.80386" xlink:href="#f"/>
<use x="8.164689" y="207.80386" xlink:href="#g"/>
<use x="12.668289" y="207.80386" xlink:href="#k"/>
<use x="16.718289" y="207.80386" xlink:href="#e"/>
<use x="21.221889" y="207.80386" xlink:href="#d"/>
<use x="25.271889" y="207.80386" xlink:href="#d"/>
<use x="29.321889" y="207.80386" xlink:href="#ah"/>
<use x="145.562689" y="238.77296" xlink:href="#b"/>
<use x="150.422689" y="238.77296" xlink:href="#b"/>
<use x="155.282689" y="238.77296" xlink:href="#a"/>
<use x="160.142689" y="238.77296" xlink:href="#b"/>
<use x="165.002689" y="238.77296" xlink:href="#a"/>
<use x="169.862689" y="238.77296" xlink:href="#b"/>
<use x="174.722689" y="238.77296" xlink:href="#a"/>
<use x="179.582689" y="238.77296" xlink:href="#b"/>
<use x="45.121689" y="247.06163" xlink:href="#a"/>
<use x="156.225689" y="143.00363" xlink:href="#r"/>
<use x="162.073889" y="143.00363" xlink:href="#f"/>
<use x="164.771189" y="143.00363" xlink:href="#c"/>
<use x="167.022989" y="143.00363" xlink:href="#glyph-0-4"/>
<use x="169.274789" y="143.00363" xlink:href="#ag"/>
<use x="78.305789" y="238.90753" xlink:href="#a"/>
<use x="83.165789" y="238.90753" xlink:href="#a"/>
<use x="88.025789" y="238.90753" xlink:href="#b"/>
<use x="92.885789" y="238.90753" xlink:href="#a"/>
<use x="97.745789" y="238.90753" xlink:href="#a"/>
<use x="102.605789" y="238.90753" xlink:href="#a"/>
<use x="107.465789" y="238.90753" xlink:href="#a"/>
<use x="112.325789" y="238.90753" xlink:href="#b"/>
<use x="78.332742" y="190.14583" xlink:href="#a"/>
<use x="83.192742" y="190.14583" xlink:href="#a"/>
<use x="88.052742" y="190.14583" xlink:href="#b"/>
<use x="92.912742" y="190.14583" xlink:href="#a"/>
<use x="97.772742" y="190.14583" xlink:href="#b"/>
<use x="102.632742" y="190.14583" xlink:href="#b"/>
<use x="107.492742" y="190.14583" xlink:href="#b"/>
<use x="112.352742" y="190.14583" xlink:href="#b"/>
<use x="78.305789" y="246.98063" xlink:href="#a"/>
<use x="83.165789" y="246.98063" xlink:href="#a"/>
<use x="88.025789" y="246.98063" xlink:href="#b"/>
<use x="92.885789" y="246.98063" xlink:href="#a"/>
<use x="97.745789" y="246.98063" xlink:href="#a"/>
<use x="102.605789" y="246.98063" xlink:href="#a"/>
<use x="107.465789" y="246.98063" xlink:href="#a"/>
<use x="112.325789" y="246.98063" xlink:href="#a"/>
<use x="78.305789" y="230.40253" xlink:href="#a"/>
<use x="83.165789" y="230.40253" xlink:href="#a"/>
<use x="88.025789" y="230.40253" xlink:href="#b"/>
<use x="92.885789" y="230.40253" xlink:href="#a"/>
<use x="97.745789" y="230.40253" xlink:href="#a"/>
<use x="102.605789" y="230.40253" xlink:href="#a"/>
<use x="107.465789" y="230.40253" xlink:href="#b"/>
<use x="112.325789" y="230.40253" xlink:href="#a"/>
<use x="150.373389" y="60.95053" xlink:href="#h"/>
<use x="155.776089" y="60.95053" xlink:href="#f"/>
<use x="158.473389" y="60.95053" xlink:href="#g"/>
<use x="162.976989" y="60.95053" xlink:href="#k"/>
<use x="167.026989" y="60.95053" xlink:href="#e"/>
<use x="171.530589" y="60.95053" xlink:href="#d"/>
<use x="175.580589" y="60.95053" xlink:href="#d"/>
</g>
</svg>
