<svg width="391pt" height="204pt" version="1.1" viewBox="0 0 391 204" xmlns="http://www.w3.org/2000/svg" xmlns:xlink="http://www.w3.org/1999/xlink">
<defs>
<g id="an">
<path d="m7.1406-5.4375c-0.3125-1.7188-1.2969-2.5625-3.0312-2.5625-1.0469 0-1.9062 0.32812-2.4844 0.98438-0.71875 0.78125-1.1094 1.8906-1.1094 3.1719 0 1.2969 0.40625 2.4062 1.1406 3.1719 0.60938 0.625 1.3906 0.92188 2.4219 0.92188 1.9219 0 3-1.0312 3.2344-3.125h-1.0469c-0.078125 0.54688-0.1875 0.90625-0.34375 1.2188-0.32812 0.65625-1 1.0156-1.8438 1.0156-1.5625 0-2.5625-1.25-2.5625-3.2188 0-2.0156 0.95312-3.25 2.4844-3.25 0.625 0 1.2188 0.17188 1.5469 0.48438 0.29688 0.28125 0.45312 0.59375 0.57812 1.1875z"/>
</g>
<g id="aj">
<path d="m1.9844-3.3438h2.4688c0.625 0 1.1094-0.17188 1.5312-0.54688 0.46875-0.4375 0.67188-0.95312 0.67188-1.6719 0-1.4844-0.875-2.3125-2.4219-2.3125h-3.25v7.875h1zm0-0.875v-2.7656h2.0938c0.96875 0 1.5312 0.51562 1.5312 1.375 0 0.875-0.5625 1.3906-1.5312 1.3906z"/>
</g>
<g id="n">
<path d="m5.9531-7.875v5.5312c0 1.0625-0.76562 1.7031-2.0156 1.7031-0.59375 0-1.0625-0.14062-1.4375-0.40625-0.39062-0.29688-0.57812-0.70312-0.57812-1.2969v-5.5312h-1v5.5312c0 1.5938 1.1406 2.5938 3.0156 2.5938 1.8438 0 3.0312-1.0156 3.0312-2.5938v-5.5312z"/>
</g>
<g id="ad">
<path d="m7.6562-4.1562h-3.2812v0.89062h2.3906v0.20312c0 1.4062-1.0312 2.4219-2.4688 2.4219-0.79688 0-1.5156-0.28125-1.9844-0.79688-0.51562-0.5625-0.82812-1.5-0.82812-2.4688 0-1.9375 1.0938-3.2031 2.7656-3.2031 1.1875 0 2.0625 0.60938 2.2656 1.625h1.0312c-0.28125-1.5938-1.4844-2.5156-3.2969-2.5156-0.95312 0-1.7344 0.25-2.3438 0.75-0.92188 0.76562-1.4375 1.9844-1.4375 3.3906 0 2.4219 1.4844 4.1094 3.6094 4.1094 1.0781 0 1.9219-0.40625 2.6875-1.25l0.25 1.0469h0.64062z"/>
</g>
<g id="d">
<path d="m0.75-5.6562v5.6562h0.90625v-2.9375c0-1.3594 0.5625-1.9688 1.8125-1.9375v-0.90625c-0.15625-0.03125-0.23438-0.03125-0.34375-0.03125-0.59375 0-1.0312 0.34375-1.5469 1.1875v-1.0312z"/>
</g>
<g id="c">
<path d="m5.5312-2.5312c0-0.85938-0.0625-1.375-0.21875-1.7969-0.375-0.9375-1.2344-1.4844-2.2969-1.4844-1.5625 0-2.5781 1.1875-2.5781 3.0625 0 1.8594 0.96875 3 2.5625 3 1.2969 0 2.1875-0.73438 2.4219-1.9688h-0.90625c-0.25 0.75-0.76562 1.1406-1.4844 1.1406-0.5625 0-1.0625-0.26562-1.3594-0.73438-0.21875-0.32812-0.29688-0.65625-0.29688-1.2188zm-4.1406-0.73438c0.078125-1.0469 0.71875-1.7188 1.625-1.7188 0.92188 0 1.5469 0.70312 1.5469 1.7188z"/>
</g>
<g id="g">
<path d="m0.75-5.6562v5.6562h0.90625v-3.125c0-1.1562 0.60938-1.9062 1.5469-1.9062 0.70312 0 1.1562 0.4375 1.1562 1.1094v3.9219h0.90625v-4.2812c0-0.9375-0.70312-1.5312-1.7969-1.5312-0.84375 0-1.3906 0.3125-1.875 1.1094v-0.95312z"/>
</g>
<g id="ac">
<path d="m4.7812-5.6562h-4.2188v0.78125h3.1562l-3.3906 4.0625v0.8125h4.6094v-0.78125h-3.5156l3.3594-4.0781z"/>
</g>
<g id="i">
<path d="m4.3594-5.6562v0.8125c-0.45312-0.67188-0.95312-0.96875-1.6562-0.96875-1.375 0-2.3281 1.2656-2.3281 3.0781 0 0.95312 0.23438 1.6406 0.71875 2.2188 0.42188 0.5 0.95312 0.76562 1.5469 0.76562 0.67188 0 1.1562-0.29688 1.6406-1.0156v0.29688c0 1.5-0.42188 2.0625-1.5469 2.0625-0.76562 0-1.1719-0.29688-1.25-0.95312h-0.92188c0.078125 1.0469 0.92188 1.7188 2.1406 1.7188 0.84375 0 1.5312-0.28125 1.8906-0.73438 0.4375-0.53125 0.59375-1.2188 0.59375-2.5469v-4.7344zm-1.5781 0.67188c0.95312 0 1.5 0.79688 1.5 2.2344 0 1.375-0.5625 2.1719-1.5 2.1719-0.92188 0-1.4688-0.8125-1.4688-2.2031s0.54688-2.2031 1.4688-2.2031z"/>
</g>
<g id="f">
<path d="m1.625-5.6562h-0.90625v5.6562h0.90625zm0-2.2188h-0.90625v1.1406h0.90625z"/>
</g>
<g id="e">
<path d="m4.7344-4.0781c-0.015625-1.1094-0.75-1.7344-2.0625-1.7344s-2.1719 0.67188-2.1719 1.7188c0 0.89062 0.45312 1.3125 1.7969 1.625l0.84375 0.21875c0.625 0.14062 0.875 0.375 0.875 0.76562 0 0.54688-0.53125 0.90625-1.3125 0.90625-0.48438 0-0.90625-0.14062-1.125-0.375-0.14062-0.17188-0.20312-0.32812-0.26562-0.73438h-0.95312c0.046875 1.3125 0.78125 1.9375 2.2656 1.9375 1.4219 0 2.3281-0.70312 2.3281-1.7969 0-0.84375-0.46875-1.2969-1.5938-1.5781l-0.85938-0.20312c-0.73438-0.17188-1.0469-0.40625-1.0469-0.8125 0-0.53125 0.45312-0.84375 1.1875-0.84375s1.1094 0.3125 1.1406 0.90625z"/>
</g>
<g id="h">
<path d="m2.75-5.6562h-0.9375v-1.5625h-0.89062v1.5625h-0.76562v0.73438h0.76562v4.2812c0 0.57812 0.39062 0.89062 1.0938 0.89062 0.23438 0 0.42188-0.015625 0.73438-0.078125v-0.75c-0.14062 0.03125-0.25 0.03125-0.4375 0.03125-0.39062 0-0.5-0.09375-0.5-0.5v-3.875h0.9375z"/>
</g>
<g id="am">
<path d="m0.57812-7.875v7.875h0.8125v-0.71875c0.4375 0.65625 1 0.96875 1.7969 0.96875 1.4844 0 2.4531-1.2188 2.4531-3.0938 0-1.8438-0.90625-2.9688-2.4062-2.9688-0.78125 0-1.3281 0.28125-1.75 0.92188v-2.9844zm2.4844 2.8906c1 0 1.6406 0.875 1.6406 2.2344 0 1.2812-0.67188 2.1562-1.6406 2.1562s-1.5781-0.85938-1.5781-2.1875 0.60938-2.2031 1.5781-2.2031z"/>
</g>
<g id="q">
<path d="m5.0781-3.75c-0.03125-0.5625-0.15625-0.92188-0.375-1.2344-0.39062-0.51562-1.0625-0.82812-1.8594-0.82812-1.5312 0-2.5156 1.2031-2.5156 3.0781 0 1.8281 0.98438 2.9844 2.5156 2.9844 1.3438 0 2.2031-0.8125 2.3125-2.1875h-0.90625c-0.15625 0.90625-0.625 1.3594-1.3906 1.3594-0.98438 0-1.5781-0.8125-1.5781-2.1562 0-1.4062 0.57812-2.25 1.5625-2.25 0.75 0 1.2344 0.4375 1.3281 1.2344z"/>
</g>
<g id="k">
<path d="m0.75-7.875v7.875h0.90625v-3.125c0-1.1562 0.59375-1.9062 1.5312-1.9062 0.29688 0 0.57812 0.09375 0.79688 0.25 0.26562 0.1875 0.35938 0.46875 0.35938 0.85938v3.9219h0.90625v-4.2812c0-0.9375-0.6875-1.5312-1.7812-1.5312-0.79688 0-1.2812 0.23438-1.8125 0.9375v-3z"/>
</g>
<g id="al">
<path d="m5.2031 0v-5.6562h-0.89062v3.2031c0 1.1562-0.60938 1.9062-1.5469 1.9062-0.71875 0-1.1719-0.42188-1.1719-1.1094v-4h-0.89062v4.3594c0 0.9375 0.70312 1.5469 1.7969 1.5469 0.84375 0 1.3594-0.29688 1.8906-1.0312v0.78125z"/>
</g>
<g id="ak">
<path d="m0.75-5.6562v6.4844c0 0.54688-0.17188 0.73438-0.73438 0.73438h-0.20312v0.76562c0.09375 0.015625 0.15625 0.03125 0.29688 0.03125 1.0156 0 1.5469-0.40625 1.5469-1.1875v-6.8281zm0.90625-2.2188h-0.90625v1.1406h0.90625z"/>
</g>
<g id="j">
<path d="m5.7812-0.53125c-0.10938 0.03125-0.14062 0.03125-0.20312 0.03125-0.3125 0-0.48438-0.17188-0.48438-0.45312v-3.3281c0-1-0.73438-1.5312-2.125-1.5312-0.82812 0-1.4844 0.23438-1.875 0.65625-0.26562 0.28125-0.375 0.60938-0.39062 1.1719h0.90625c0.078125-0.6875 0.48438-1 1.3281-1 0.8125 0 1.2656 0.29688 1.2656 0.84375v0.23438c-0.015625 0.39062-0.20312 0.53125-0.9375 0.625-1.2812 0.15625-1.4688 0.20312-1.8125 0.34375-0.67188 0.28125-1 0.78125-1 1.5156 0 1.0156 0.71875 1.6719 1.8594 1.6719 0.70312 0 1.2812-0.25 1.9219-0.82812 0.0625 0.57812 0.34375 0.82812 0.92188 0.82812 0.20312 0 0.3125-0.015625 0.625-0.09375zm-1.5781-1.25c0 0.29688-0.09375 0.48438-0.35938 0.73438-0.35938 0.32812-0.8125 0.5-1.3438 0.5-0.70312 0-1.1094-0.32812-1.1094-0.90625 0-0.59375 0.39062-0.89062 1.3594-1.0312 0.96875-0.125 1.1406-0.17188 1.4531-0.3125z"/>
</g>
<g id="p">
<path d="m5.125-2.3594 0.79688 2.3594h1.125l-2.7656-7.875h-1.2969l-2.7969 7.875h1.0625l0.82812-2.3594zm-0.28125-0.84375h-2.5156l1.2969-3.5938z"/>
</g>
<g id="o">
<path d="m5.3438-7.875h-0.89062v2.9375c-0.375-0.57812-0.98438-0.875-1.75-0.875-1.4688 0-2.4219 1.1719-2.4219 2.9688 0 1.9219 0.92188 3.0938 2.4688 3.0938 0.76562 0 1.3125-0.29688 1.7969-1v0.75h0.79688zm-2.4844 2.8906c0.96875 0 1.5938 0.85938 1.5938 2.2188 0 1.3125-0.625 2.1719-1.5781 2.1719-1 0-1.6562-0.875-1.6562-2.1875 0-1.3281 0.65625-2.2031 1.6406-2.2031z"/>
</g>
<g id="ai">
<path d="m0.85938 0h3.5469c0.75 0 1.2969-0.20312 1.7188-0.65625 0.39062-0.40625 0.59375-0.96875 0.59375-1.5938 0-0.95312-0.42188-1.5156-1.4219-1.9062 0.71875-0.32812 1.0781-0.90625 1.0781-1.7188 0-0.57812-0.20312-1.0781-0.625-1.4375-0.42188-0.39062-0.95312-0.5625-1.7031-0.5625h-3.1875zm1-4.4844v-2.5h1.9375c0.5625 0 0.875 0.078125 1.1406 0.28125 0.28125 0.21875 0.4375 0.53125 0.4375 0.96875s-0.15625 0.75-0.4375 0.96875c-0.26562 0.20312-0.57812 0.28125-1.1406 0.28125zm0 3.5938v-2.7031h2.4531c0.875 0 1.4062 0.5 1.4062 1.3594 0 0.84375-0.53125 1.3438-1.4062 1.3438z"/>
</g>
<g id="ah">
<path d="m1.6406-7.875h-0.90625v7.875h0.90625z"/>
</g>
<g id="ag">
<path d="m3.0781 0 2.1719-5.6562h-1.0156l-1.5938 4.5938-1.5156-4.5938h-1.0156l1.9844 5.6562z"/>
</g>
<g id="af">
<path d="m0.57812 2.3594h0.90625v-2.9531c0.48438 0.57812 1.0156 0.84375 1.75 0.84375 1.4688 0 2.4062-1.1719 2.4062-2.9844 0-1.8906-0.92188-3.0781-2.4219-3.0781-0.76562 0-1.3906 0.34375-1.7969 1.0156v-0.85938h-0.84375zm2.4844-7.3438c1 0 1.6406 0.875 1.6406 2.2344 0 1.2812-0.65625 2.1562-1.6406 2.1562-0.95312 0-1.5781-0.85938-1.5781-2.1875s0.625-2.2031 1.5781-2.2031z"/>
</g>
<g id="ae">
<path d="m4.1875-5.6562-1.5625 4.4062-1.4531-4.4062h-0.95312l1.9062 5.6719-0.34375 0.90625c-0.15625 0.39062-0.34375 0.54688-0.71875 0.54688-0.15625 0-0.28125-0.015625-0.48438-0.0625v0.8125c0.1875 0.09375 0.375 0.14062 0.60938 0.14062 0.29688 0 0.60938-0.10938 0.84375-0.28125 0.28125-0.20312 0.4375-0.4375 0.60938-0.89062l2.5156-6.8438z"/>
</g>
<g id="ab">
<path d="m3.2969-3.0938h-2.375v0.71875h2.375v2.375h0.70312v-2.375h2.375v-0.71875h-2.375v-2.375h-0.70312z"/>
</g>
<g id="aa">
<path d="m6.7031-6.4375-5.2344 2.8594-0.015625 0.0625 3.6094 2.9688 0.3125-1.1094-2.6875-2.2031 3.9062-2.1562z"/>
</g>
<g id="b">
<path d="m5.3281-3.7812c0-1.7031-0.84375-2.875-2.0781-2.875s-2.0781 1.1719-2.0781 2.875v1.0625c0 1.7188 0.84375 2.875 2.0781 2.875s2.0781-1.1562 2.0781-2.875zm-3.5938 0.0625c0-0.67188 0.1875-1.3594 0.5-1.8594 0.23438-0.34375 0.57812-0.51562 1.0156-0.51562s0.78125 0.17188 1 0.51562c0.3125 0.5 0.51562 1.1875 0.51562 1.8594v0.9375c0 0.67188-0.20312 1.375-0.51562 1.8594-0.21875 0.34375-0.57812 0.53125-1 0.53125-0.4375 0-0.78125-0.1875-1.0156-0.53125-0.3125-0.48438-0.5-1.1875-0.5-1.8594z"/>
</g>
<g id="a">
<path d="m3.5312-6.625-2.0781 0.65625c-0.20312 0.0625-0.26562 0.125-0.26562 0.28125 0 0.14062 0.125 0.26562 0.26562 0.26562 0.015625 0 0.125-0.015625 0.17188-0.03125l1.3438-0.42188v5.3281h-1.4531c-0.23438 0-0.34375 0.09375-0.34375 0.26562 0 0.1875 0.125 0.28125 0.34375 0.28125h3.4688c0.21875 0 0.34375-0.09375 0.34375-0.28125 0-0.17188-0.125-0.26562-0.34375-0.26562h-1.4531z"/>
</g>
<g id="z">
<path d="m7.1094-8.2969h-1.0312v3.625h-3.9688v-3.625h-1.0312v8.2969h1.0312v-3.9531h3.9688v3.9531h1.0312z"/>
</g>
<g id="w">
<path d="m4.6719-3.5c0-1.1562-0.82812-1.9844-1.9375-1.9844-0.71875 0-1.25 0.17188-1.8438 0.5l0.078125 0.78125c0.53125-0.375 1.0781-0.59375 1.7656-0.59375 0.54688 0 1.0312 0.45312 1.0312 1.3125v0.5c-0.53125 0.015625-1.25 0.0625-1.9688 0.29688-0.8125 0.26562-1.2656 0.71875-1.2656 1.3125 0 0.53125 0.3125 1.5 1.3281 1.5 0.65625 0 1.4844-0.20312 1.9375-0.5625v0.4375h0.875zm-0.90625 1.8906c0 0.25 0 0.53125-0.39062 0.76562-0.32812 0.20312-0.73438 0.25-0.90625 0.25-0.65625 0-1.0938-0.34375-1.0938-0.79688 0-0.8125 1.6562-0.98438 2.3906-0.98438z"/>
</g>
<g id="v">
<path d="m5.0625-5.3125h-0.90625v3.4219c0 0.90625-0.625 1.3594-1.4062 1.3594-0.84375 0-0.92188-0.3125-0.92188-0.84375v-3.9375h-0.90625v3.9844c0 0.85938 0.26562 1.4531 1.25 1.4531 0.34375 0 1.2812-0.0625 2.0156-0.71875v0.59375h0.875z"/>
</g>
<g id="m">
<path d="m1.8438-0.53125c0.40625 0.35938 0.90625 0.65625 1.5469 0.65625 1.1562 0 2.1719-1.1719 2.1719-2.7969 0-1.4375-0.75-2.75-1.875-2.75-0.48438 0-1.25 0.15625-1.875 0.67188v-0.5625h-0.875v7.625h0.90625zm0-3.4844c0.26562-0.40625 0.71875-0.67188 1.2188-0.67188 0.875 0 1.5938 0.89062 1.5938 2.0312 0 1.2031-0.8125 2.0625-1.7031 2.0625-0.32812 0-0.5625-0.125-0.78125-0.29688-0.29688-0.25-0.32812-0.46875-0.32812-0.65625z"/>
</g>
<g id="u">
<path d="m2.0469-4.6094h1.6406v-0.70312h-1.6406v-1.5156h-0.82812v1.5156h-1v0.70312h0.96875v3.2031c0 0.70312 0.15625 1.5312 0.98438 1.5312 0.79688 0 1.3594-0.28125 1.7188-0.46875l-0.17188-0.70312c-0.42188 0.375-0.85938 0.42188-1.0781 0.42188-0.53125 0-0.59375-0.5625-0.59375-0.98438z"/>
</g>
<g id="t">
<path d="m4.0156-5.1094c-0.76562-0.35938-1.4062-0.375-1.6875-0.375-0.26562 0-1.9375 0-1.9375 1.5469 0 0.53125 0.29688 0.89062 0.46875 1.0625 0.4375 0.35938 0.73438 0.42188 1.4375 0.5625 0.39062 0.09375 1.0781 0.23438 1.0781 0.85938 0 0.82812-0.92188 0.82812-1.0938 0.82812-0.46875 0-1.1719-0.125-1.8125-0.59375l-0.14062 0.8125c0.046875 0.03125 0.85938 0.53125 1.9688 0.53125 1.5469 0 1.9062-0.9375 1.9062-1.6406 0-0.60938-0.35938-1-0.40625-1.0469-0.45312-0.46875-0.8125-0.53125-1.5312-0.67188-0.4375-0.09375-1.0469-0.20312-1.0469-0.8125 0-0.73438 0.84375-0.73438 1-0.73438 0.625 0 1.125 0.14062 1.6562 0.4375z"/>
</g>
<g id="l">
<path d="m4.8594-2.6875c0-0.51562-0.046875-1.25-0.42188-1.875-0.5-0.82812-1.3281-0.92188-1.6719-0.92188-1.2969 0-2.375 1.2344-2.375 2.7969 0 1.5781 1.1562 2.8125 2.5312 2.8125 0.5625 0 1.2188-0.15625 1.875-0.64062 0-0.046875-0.046875-0.42188-0.046875-0.4375s-0.03125-0.28125-0.03125-0.32812c-0.70312 0.59375-1.4062 0.6875-1.7656 0.6875-0.92188 0-1.7031-0.82812-1.7344-2.0938zm-3.5625-0.64062c0.20312-0.8125 0.76562-1.4375 1.4688-1.4375 0.35938 0 1.1875 0.15625 1.3906 1.4375z"/>
</g>
<g id="s">
<path d="m1.8906-8.1094h-1.0312v1.0156h1.0312zm-0.078125 2.7969h-0.875v5.3125h0.875z"/>
</g>
<g id="r">
<path d="m4.7969-1.2969c-0.54688 0.45312-1.1562 0.67188-1.8281 0.67188-1 0-1.6406-0.875-1.6406-2.0469 0-0.98438 0.48438-2.0781 1.6719-2.0781 0.79688 0 1.1406 0.20312 1.6562 0.54688l0.14062-0.78125c-0.70312-0.40625-1.0938-0.5-1.7969-0.5-1.6562 0-2.5781 1.4531-2.5781 2.8125 0 1.5312 1.0938 2.7969 2.5312 2.7969 0.57812 0 1.25-0.15625 1.9062-0.625 0-0.03125-0.03125-0.40625-0.046875-0.45312z"/>
</g>
<g id="y">
<path d="m5.0625-3.5938c0-0.73438-0.15625-1.8281-1.5938-1.8281-0.82812 0-1.375 0.46875-1.6562 0.8125v-3.6875h-0.89062v8.2969h0.90625v-2.9688c0-0.75 0.28125-1.7344 1.1875-1.7344 1.1094 0 1.1406 0.76562 1.1406 1.1875v3.5156h0.90625z"/>
</g>
<g id="x">
<path d="m1.8125-2.625c0-1.2031 0.90625-1.9844 1.9844-2v-0.79688c-1.0781 0-1.7188 0.64062-2.0469 1.1094v-1.0469h-0.8125v5.3594h0.875z"/>
</g>
<clipPath id="bb">
<path d="m43 105h67v2h-67z"/>
</clipPath>
<clipPath id="ba">
<path d="m0.52734 203.71h391v-205h-391zm108.65-97.852v0.50391l-6.0117 1.9102 1.0781-2.1602-1.0781-2.1602z" clip-rule="evenodd"/>
</clipPath>
<clipPath id="av">
<path d="m303 19h87v184.71h-87z"/>
</clipPath>
<clipPath id="au">
<path d="m0.52734 95h44.473v23h-44.473z"/>
</clipPath>
<clipPath id="at">
<path d="m130 51h1v45h-1z"/>
</clipPath>
<clipPath id="as">
<path d="m0.52734 203.71h391v-205h-391zm130.25-108.15h-0.50391l-0.82812-5.1484h2.1602z" clip-rule="evenodd"/>
</clipPath>
<clipPath id="ar">
<path d="m216 51h2v45h-2z"/>
</clipPath>
<clipPath id="aq">
<path d="m0.52734 203.71h391v-205h-391zm216.65-108.15h-0.50391l-0.82812-5.1484h2.1602z" clip-rule="evenodd"/>
</clipPath>
<clipPath id="ap">
<path d="m151 105h56v2h-56z"/>
</clipPath>
<clipPath id="ao">
<path d="m0.52734 203.71h391v-205h-391zm205.85-97.852v0.50391l-5.1484 0.82812v-2.1602z" clip-rule="evenodd"/>
</clipPath>
<clipPath id="az">
<path d="m227 105h77v2h-77z"/>
</clipPath>
<clipPath id="ay">
<path d="m0.52734 203.71h391v-205h-391zm303.05-97.852v0.50391l-5.1445 0.82812v-2.1602z" clip-rule="evenodd"/>
</clipPath>
<clipPath id="ax">
<path d="m130 116h1v58h-1z"/>
</clipPath>
<clipPath id="aw">
<path d="m0.52734 203.71h391v-205h-391zm130.25-29.668h-0.50391l-0.82812-5.1484h2.1602z" clip-rule="evenodd"/>
</clipPath>
</defs>
<g clip-path="url(#bb)">
<g clip-path="url(#ba)">
<path transform="matrix(.1 0 0 -.1 .528 203.71)" d="m436.01 975.99h648.01" fill="none" stroke="#000" stroke-miterlimit="10" stroke-width="2.7"/>
</g>
</g>
<path d="m103.17 108.27 5.3984-2.1602-5.3984-2.1602 1.0781 2.1602-1.0781 2.1602" fill-rule="evenodd"/>
<path transform="matrix(.1 0 0 -.1 .528 203.71)" d="m1026.4 954.38 53.984 21.602-53.984 21.602 10.781-21.602z" fill="none" stroke="#000" stroke-miterlimit="10" stroke-width="2.7"/>
<path transform="matrix(.1 0 0 -.1 .528 203.71)" d="m1084 975.99 215.98 108.01 216.02-108.01-216.02-107.97z" fill="none" stroke="#000" stroke-miterlimit="10" stroke-width="2.7"/>
<g clip-path="url(#av)">
<path transform="matrix(.1 0 0 -.1 .528 203.71)" d="m3028 3.9941h863.98v1836h-863.98z" fill="none" stroke="#000" stroke-miterlimit="10" stroke-width="2.7"/>
</g>
<path transform="matrix(.1 0 0 -.1 .528 203.71)" d="m3028 220.01h863.98v1188h-863.98z" fill="#989898" fill-rule="evenodd" stroke="#000" stroke-miterlimit="10" stroke-width="10.8"/>
<g clip-path="url(#au)">
<path transform="matrix(.1 0 0 -.1 .528 203.71)" d="m4.0169 868.02h431.99v215.98h-431.99z" fill="none" stroke="#000" stroke-miterlimit="10" stroke-width="2.7"/>
</g>
<path transform="matrix(.1 0 0 -.1 .528 203.71)" d="m2272 975.99c0-59.648-48.359-107.97-107.97-107.97-59.648 0-108.01 48.32-108.01 107.97 0 59.648 48.359 108.01 108.01 108.01 59.609 0 107.97-48.359 107.97-108.01z" fill="none" stroke="#000" stroke-miterlimit="10" stroke-width="2.7"/>
<path transform="matrix(.1 0 0 -.1 .528 203.71)" d="m3028 328.02h863.98" fill="none" stroke="#000" stroke-miterlimit="10" stroke-width="10.8"/>
<path transform="matrix(.1 0 0 -.1 .528 203.71)" d="m3028 1408h863.98v107.97h-863.98z" fill="#989898" fill-rule="evenodd" stroke="#000" stroke-miterlimit="10" stroke-width="10.8"/>
<g>
<use x="11.1288" y="108.808" xlink:href="#an"/>
<use x="18.9264" y="108.808" xlink:href="#aj"/>
<use x="26.13" y="108.808" xlink:href="#n"/>
<use x="213.2828" y="108.808" xlink:href="#ab"/>
<use x="126.8828" y="108.808" xlink:href="#aa"/>
<use x="97.8214" y="30.508" xlink:href="#ad"/>
<use x="106.2238" y="30.508" xlink:href="#d"/>
<use x="109.8202" y="30.508" xlink:href="#c"/>
<use x="115.825" y="30.508" xlink:href="#g"/>
<use x="121.8298" y="30.508" xlink:href="#ac"/>
<use x="127.2298" y="30.508" xlink:href="#d"/>
<use x="130.8262" y="30.508" xlink:href="#c"/>
<use x="136.831" y="30.508" xlink:href="#i"/>
<use x="142.8358" y="30.508" xlink:href="#f"/>
<use x="145.2334" y="30.508" xlink:href="#e"/>
<use x="150.6334" y="30.508" xlink:href="#h"/>
<use x="153.6358" y="30.508" xlink:href="#c"/>
<use x="159.6406" y="30.508" xlink:href="#d"/>
<use x="135.928" y="149.308" xlink:href="#g"/>
<use x="141.9328" y="149.308" xlink:href="#c"/>
<use x="147.9376" y="149.308" xlink:href="#f"/>
<use x="150.3352" y="149.308" xlink:href="#g"/>
<use x="94.8135" y="187.108" xlink:href="#n"/>
<use x="102.6111" y="187.108" xlink:href="#g"/>
<use x="108.6159" y="187.108" xlink:href="#h"/>
<use x="111.6183" y="187.108" xlink:href="#c"/>
<use x="117.6231" y="187.108" xlink:href="#d"/>
<use x="121.2195" y="187.108" xlink:href="#am"/>
<use x="127.2243" y="187.108" xlink:href="#d"/>
<use x="130.8207" y="187.108" xlink:href="#c"/>
<use x="136.8255" y="187.108" xlink:href="#q"/>
<use x="142.2255" y="187.108" xlink:href="#k"/>
<use x="148.2303" y="187.108" xlink:href="#al"/>
<use x="154.2351" y="187.108" xlink:href="#g"/>
<use x="160.2399" y="187.108" xlink:href="#i"/>
<use x="169.5268" y="98.008" xlink:href="#ak"/>
<use x="171.9244" y="98.008" xlink:href="#j"/>
<use x="54.0208" y="119.608" xlink:href="#p"/>
<use x="61.2244" y="119.608" xlink:href="#o"/>
<use x="67.2292" y="119.608" xlink:href="#d"/>
<use x="70.8256" y="119.608" xlink:href="#c"/>
<use x="76.8304" y="119.608" xlink:href="#e"/>
<use x="82.2304" y="119.608" xlink:href="#e"/>
<use x="87.6304" y="119.608" xlink:href="#c"/>
<use x="185.7228" y="30.508" xlink:href="#ai"/>
<use x="192.9264" y="30.508" xlink:href="#j"/>
<use x="198.9312" y="30.508" xlink:href="#e"/>
<use x="204.3312" y="30.508" xlink:href="#f"/>
<use x="206.7288" y="30.508" xlink:href="#e"/>
<use x="212.1288" y="30.508" xlink:href="#d"/>
<use x="215.7252" y="30.508" xlink:href="#c"/>
<use x="221.73" y="30.508" xlink:href="#i"/>
<use x="227.7348" y="30.508" xlink:href="#f"/>
<use x="230.1324" y="30.508" xlink:href="#e"/>
<use x="235.5324" y="30.508" xlink:href="#h"/>
<use x="238.5348" y="30.508" xlink:href="#c"/>
<use x="244.5396" y="30.508" xlink:href="#d"/>
<use x="197.4892" y="49.408" xlink:href="#b"/>
<use x="203.9692" y="49.408" xlink:href="#a"/>
<use x="210.4492" y="49.408" xlink:href="#a"/>
<use x="216.9292" y="49.408" xlink:href="#a"/>
<use x="223.4092" y="49.408" xlink:href="#b"/>
<use x="229.8892" y="49.408" xlink:href="#a"/>
<use x="56.4252" y="100.708" xlink:href="#d"/>
<use x="60.0216" y="100.708" xlink:href="#c"/>
<use x="66.0264" y="100.708" xlink:href="#ah"/>
<use x="68.424" y="100.708" xlink:href="#j"/>
<use x="74.4288" y="100.708" xlink:href="#h"/>
<use x="77.4312" y="100.708" xlink:href="#f"/>
<use x="79.8288" y="100.708" xlink:href="#ag"/>
<use x="85.2288" y="100.708" xlink:href="#c"/>
<use x="236.121" y="100.708" xlink:href="#af"/>
<use x="242.1258" y="100.708" xlink:href="#k"/>
<use x="248.1306" y="100.708" xlink:href="#ae"/>
<use x="253.5306" y="100.708" xlink:href="#e"/>
<use x="258.9306" y="100.708" xlink:href="#f"/>
<use x="261.3282" y="100.708" xlink:href="#e"/>
<use x="266.7282" y="100.708" xlink:href="#q"/>
<use x="272.1282" y="100.708" xlink:href="#k"/>
<use x="278.133" y="100.708" xlink:href="#c"/>
<use x="240.3222" y="119.608" xlink:href="#p"/>
<use x="247.5258" y="119.608" xlink:href="#o"/>
<use x="253.5306" y="119.608" xlink:href="#d"/>
<use x="257.127" y="119.608" xlink:href="#c"/>
<use x="263.1318" y="119.608" xlink:href="#e"/>
<use x="268.5318" y="119.608" xlink:href="#e"/>
<use x="273.9318" y="119.608" xlink:href="#c"/>
<use x="54.3902" y="135.808" xlink:href="#b"/>
<use x="60.8702" y="135.808" xlink:href="#b"/>
<use x="67.3502" y="135.808" xlink:href="#b"/>
<use x="73.8302" y="135.808" xlink:href="#a"/>
<use x="80.3102" y="135.808" xlink:href="#b"/>
<use x="86.7902" y="135.808" xlink:href="#a"/>
<use x="111.0902" y="49.9478" xlink:href="#b"/>
<use x="117.5702" y="49.9478" xlink:href="#b"/>
<use x="124.0502" y="49.9478" xlink:href="#a"/>
<use x="130.5302" y="49.9478" xlink:href="#b"/>
<use x="137.0102" y="49.9478" xlink:href="#a"/>
<use x="143.4902" y="49.9478" xlink:href="#a"/>
<use x="240.6902" y="135.808" xlink:href="#a"/>
<use x="247.1702" y="135.808" xlink:href="#b"/>
<use x="253.6502" y="135.808" xlink:href="#b"/>
<use x="260.1302" y="135.808" xlink:href="#b"/>
<use x="266.6102" y="135.808" xlink:href="#a"/>
<use x="273.0902" y="135.808" xlink:href="#b"/>
<use x="259.0511" y="60.208" xlink:href="#a"/>
<use x="265.5311" y="60.208" xlink:href="#b"/>
<use x="272.0111" y="60.208" xlink:href="#b"/>
<use x="278.4911" y="60.208" xlink:href="#a"/>
<use x="284.9711" y="60.208" xlink:href="#a"/>
<use x="291.4511" y="60.208" xlink:href="#a"/>
<use x="259.0511" y="181.708" xlink:href="#b"/>
<use x="265.5311" y="181.708" xlink:href="#a"/>
<use x="272.0111" y="181.708" xlink:href="#a"/>
<use x="278.4911" y="181.708" xlink:href="#a"/>
<use x="284.9711" y="181.708" xlink:href="#b"/>
<use x="291.4511" y="181.708" xlink:href="#a"/>
</g>
<g clip-path="url(#at)">
<g clip-path="url(#as)">
<path transform="matrix(.1 0 0 -.1 .528 203.71)" d="m1300 1516v-431.99" fill="none" stroke="#000" stroke-miterlimit="10" stroke-width="2.7"/>
</g>
</g>
<path transform="matrix(.1 0 0 -.1 .528 203.71)" d="m1289.2 1133 10.781-43.203 10.82 43.203z" fill-rule="evenodd" stroke="#000" stroke-miterlimit="10" stroke-width="2.7"/>
<path transform="matrix(.1 0 0 -.1 .528 203.71)" d="m1840 1516h648.01v108.01h-648.01z" fill="none" stroke="#000" stroke-miterlimit="10" stroke-width="2.7"/>
<g clip-path="url(#ar)">
<g clip-path="url(#aq)">
<path transform="matrix(.1 0 0 -.1 .528 203.71)" d="m2164 1516v-431.99" fill="none" stroke="#000" stroke-miterlimit="10" stroke-width="2.7"/>
</g>
</g>
<path transform="matrix(.1 0 0 -.1 .528 203.71)" d="m2153.2 1133 10.82-43.203 10.781 43.203z" fill-rule="evenodd" stroke="#000" stroke-miterlimit="10" stroke-width="2.7"/>
<g clip-path="url(#ap)">
<g clip-path="url(#ao)">
<path transform="matrix(.1 0 0 -.1 .528 203.71)" d="m1515.7 975.99h540.35" fill="none" stroke="#000" stroke-miterlimit="10" stroke-width="2.7"/>
</g>
</g>
<path transform="matrix(.1 0 0 -.1 .528 203.71)" d="m2007 965.2 43.203 10.781-43.203 10.82z" fill-rule="evenodd" stroke="#000" stroke-miterlimit="10" stroke-width="2.7"/>
<g clip-path="url(#az)">
<g clip-path="url(#ay)">
<path transform="matrix(.1 0 0 -.1 .528 203.71)" d="m2271.6 975.99h756.37" fill="none" stroke="#000" stroke-miterlimit="10" stroke-width="2.7"/>
</g>
</g>
<path transform="matrix(.1 0 0 -.1 .528 203.71)" d="m2979.1 965.2 43.203 10.781-43.203 10.82z" fill-rule="evenodd" stroke="#000" stroke-miterlimit="10" stroke-width="2.7"/>
<path transform="matrix(.1 0 0 -.1 .528 203.71)" d="m436.01 652h648.01v108.01h-648.01z" fill="none" stroke="#000" stroke-miterlimit="10" stroke-width="2.7"/>
<path transform="matrix(.1 0 0 -.1 .528 203.71)" d="m976.01 1516h648.01v108.01h-648.01z" fill="none" stroke="#000" stroke-miterlimit="10" stroke-width="2.7"/>
<path transform="matrix(.1 0 0 -.1 .528 203.71)" d="m2272 652h648.01v108.01h-648.01z" fill="none" stroke="#000" stroke-miterlimit="10" stroke-width="2.7"/>
<path transform="matrix(.1 0 0 -.1 .528 203.71)" d="m2272 652h648.01v108.01h-648.01z" fill="none" stroke="#000" stroke-miterlimit="10" stroke-width="2.7"/>
<path transform="matrix(.1 0 0 -.1 .528 203.71)" d="m2272 652h648.01v108.01h-648.01z" fill="none" stroke="#000" stroke-miterlimit="10" stroke-width="2.7"/>
<g clip-path="url(#ax)">
<g clip-path="url(#aw)">
<path transform="matrix(.1 0 0 -.1 .528 203.71)" d="m1300 866.18v-566.99" fill="none" stroke="#000" stroke-linejoin="bevel" stroke-miterlimit="10" stroke-width="2.7"/>
</g>
</g>
<path transform="matrix(.1 0 0 -.1 .528 203.71)" d="m1289.2 348.17 10.781-43.203 10.82 43.203z" fill-rule="evenodd" stroke="#000" stroke-miterlimit="10" stroke-width="2.7"/>
<g>
<use x="311.935" y="8.887" xlink:href="#z"/>
<use x="320.139854" y="8.887" xlink:href="#w"/>
<use x="325.743256" y="8.887" xlink:href="#v"/>
<use x="331.748353" y="8.887" xlink:href="#m"/>
<use x="337.75345" y="8.887" xlink:href="#u"/>
<use x="341.980809" y="8.887" xlink:href="#t"/>
<use x="346.467595" y="8.887" xlink:href="#m"/>
<use x="352.795483" y="8.887" xlink:href="#l"/>
<use x="357.998386" y="8.887" xlink:href="#s"/>
<use x="360.751668" y="8.887" xlink:href="#r"/>
<use x="365.954571" y="8.887" xlink:href="#y"/>
<use x="371.959668" y="8.887" xlink:href="#l"/>
<use x="377.162571" y="8.887" xlink:href="#x"/>
</g>
</svg>
