<svg width="394pt" height="93pt" version="1.1" viewBox="0 0 394 93" xmlns="http://www.w3.org/2000/svg" xmlns:xlink="http://www.w3.org/1999/xlink">
<defs>
<g id="w">
<path d="m0.71875 0h2.9531c0.625 0 1.0781-0.17188 1.4375-0.54688 0.3125-0.34375 0.5-0.8125 0.5-1.3281 0-0.78125-0.35938-1.2656-1.2031-1.5938 0.60938-0.28125 0.90625-0.75 0.90625-1.4219 0-0.48438-0.17188-0.90625-0.51562-1.2188s-0.79688-0.45312-1.4219-0.45312h-2.6562zm0.82812-3.7344v-2.0938h1.625c0.46875 0 0.71875 0.0625 0.95312 0.23438 0.23438 0.1875 0.35938 0.45312 0.35938 0.8125s-0.125 0.625-0.35938 0.8125c-0.23438 0.17188-0.48438 0.23438-0.95312 0.23438zm0 3v-2.2656h2.0469c0.73438 0 1.1719 0.42188 1.1719 1.1406 0 0.70312-0.4375 1.125-1.1719 1.125z"/>
</g>
<g id="g">
<path d="m4.3438 0v-4.7188h-0.75v2.6719c0 0.96875-0.5 1.5938-1.2969 1.5938-0.59375 0-0.96875-0.35938-0.96875-0.92188v-3.3438h-0.75v3.6406c0 0.78125 0.59375 1.2812 1.5156 1.2812 0.6875 0 1.125-0.23438 1.5625-0.85938v0.65625z"/>
</g>
<g id="m">
<path d="m3.9375-3.4062c0-0.92188-0.60938-1.4375-1.7031-1.4375s-1.8125 0.5625-1.8125 1.4375c0 0.73438 0.375 1.0781 1.5 1.3594l0.70312 0.17188c0.51562 0.125 0.71875 0.3125 0.71875 0.64062 0 0.45312-0.4375 0.75-1.0938 0.75-0.40625 0-0.75-0.125-0.9375-0.3125-0.10938-0.14062-0.17188-0.28125-0.21875-0.60938h-0.78125c0.03125 1.0938 0.64062 1.6094 1.875 1.6094 1.1875 0 1.9375-0.57812 1.9375-1.4844 0-0.70312-0.39062-1.0938-1.3281-1.3125l-0.71875-0.17188c-0.60938-0.15625-0.875-0.34375-0.875-0.6875 0-0.4375 0.39062-0.70312 1-0.70312s0.92188 0.26562 0.95312 0.75z"/>
</g>
<g id="h">
<path d="m5.9531-4.5312c-0.25-1.4375-1.0781-2.1406-2.5312-2.1406-0.875 0-1.5781 0.28125-2.0781 0.82812-0.59375 0.64062-0.90625 1.5781-0.90625 2.6406 0 1.0781 0.32812 2 0.9375 2.6406 0.51562 0.53125 1.1562 0.76562 2.0156 0.76562 1.6094 0 2.5-0.85938 2.7031-2.5938h-0.85938c-0.078125 0.45312-0.17188 0.75-0.29688 1.0156-0.28125 0.53125-0.82812 0.84375-1.5312 0.84375-1.3125 0-2.1406-1.0469-2.1406-2.6875 0-1.6719 0.78125-2.7188 2.0625-2.7188 0.53125 0 1.0312 0.15625 1.2969 0.42188 0.25 0.21875 0.375 0.5 0.48438 0.98438z"/>
</g>
<g id="j">
<path d="m1.6562-2.7812h2.0625c0.51562 0 0.92188-0.15625 1.2656-0.46875 0.39062-0.35938 0.5625-0.78125 0.5625-1.3906 0-1.2344-0.71875-1.9219-2.0156-1.9219h-2.7188v6.5625h0.84375zm0-0.73438v-2.3125h1.75c0.79688 0 1.2812 0.4375 1.2812 1.1562s-0.48438 1.1562-1.2812 1.1562z"/>
</g>
<g id="s">
<path d="m4.9688-6.5625v4.6094c0 0.875-0.64062 1.4219-1.6875 1.4219-0.48438 0-0.89062-0.10938-1.2031-0.34375-0.32812-0.25-0.46875-0.57812-0.46875-1.0781v-4.6094h-0.84375v4.6094c0 1.3281 0.95312 2.1562 2.5156 2.1562 1.5312 0 2.5312-0.84375 2.5312-2.1562v-4.6094z"/>
</g>
<g id="e">
<path d="m4.8125-0.4375c-0.078125 0.015625-0.10938 0.015625-0.15625 0.015625-0.26562 0-0.40625-0.14062-0.40625-0.375v-2.7656c0-0.84375-0.60938-1.2812-1.7812-1.2812-0.6875 0-1.2344 0.1875-1.5625 0.54688-0.21875 0.23438-0.29688 0.51562-0.32812 0.96875h0.76562c0.0625-0.5625 0.40625-0.82812 1.1094-0.82812 0.67188 0 1.0469 0.25 1.0469 0.70312v0.1875c-0.015625 0.32812-0.17188 0.45312-0.78125 0.53125-1.0625 0.14062-1.2188 0.17188-1.5156 0.28125-0.54688 0.23438-0.82812 0.65625-0.82812 1.2656 0 0.85938 0.59375 1.3906 1.5469 1.3906 0.59375 0 1.0781-0.20312 1.6094-0.6875 0.046875 0.48438 0.28125 0.6875 0.76562 0.6875 0.17188 0 0.26562-0.015625 0.51562-0.078125zm-1.3125-1.0469c0 0.25-0.078125 0.40625-0.29688 0.60938-0.3125 0.28125-0.67188 0.42188-1.1094 0.42188-0.59375 0-0.9375-0.28125-0.9375-0.75 0-0.5 0.32812-0.75 1.1406-0.85938 0.79688-0.10938 0.95312-0.15625 1.2031-0.26562z"/>
</g>
<g id="i">
<path d="m4.2344-3.125c-0.03125-0.46875-0.125-0.76562-0.3125-1.0312-0.32812-0.4375-0.89062-0.6875-1.5469-0.6875-1.2812 0-2.0938 1-2.0938 2.5625 0 1.5312 0.8125 2.4844 2.0781 2.4844 1.125 0 1.8438-0.67188 1.9375-1.8281h-0.76562c-0.125 0.76562-0.5 1.1406-1.1406 1.1406-0.82812 0-1.3281-0.67188-1.3281-1.7969 0-1.1719 0.48438-1.875 1.2969-1.875 0.64062 0 1.0312 0.375 1.125 1.0312z"/>
</g>
<g id="n">
<path d="m0.625-6.5625v6.5625h0.75v-2.5938c0-0.96875 0.5-1.5938 1.2812-1.5938 0.25 0 0.48438 0.0625 0.67188 0.20312 0.20312 0.15625 0.29688 0.39062 0.29688 0.71875v3.2656h0.75v-3.5625c0-0.79688-0.5625-1.2812-1.4844-1.2812-0.67188 0-1.0781 0.20312-1.5156 0.78125v-2.5z"/>
</g>
<g id="b">
<path d="m4.6094-2.1094c0-0.71875-0.046875-1.1562-0.1875-1.5-0.29688-0.78125-1.0156-1.2344-1.9062-1.2344-1.3125 0-2.1562 0.98438-2.1562 2.5469s0.8125 2.5 2.1406 2.5c1.0781 0 1.8281-0.60938 2.0156-1.6406h-0.75c-0.20312 0.625-0.64062 0.95312-1.2344 0.95312-0.48438 0-0.89062-0.21875-1.1406-0.60938-0.17188-0.28125-0.23438-0.54688-0.25-1.0156zm-3.4531-0.60938c0.0625-0.875 0.59375-1.4375 1.3594-1.4375s1.2969 0.59375 1.2969 1.4375z"/>
</g>
<g id="v">
<path d="m5.3594-4.6406c0-0.4375-0.015625-0.57812-0.17188-0.875-0.35938-0.75-1.125-1.1562-2.2188-1.1562-1.4531 0-2.3438 0.73438-2.3438 1.9219 0 0.8125 0.42188 1.3125 1.2969 1.5312l1.625 0.4375c0.84375 0.21875 1.2031 0.54688 1.2031 1.0625 0 0.34375-0.1875 0.70312-0.46875 0.90625-0.26562 0.1875-0.67188 0.28125-1.2031 0.28125-0.71875 0-1.2031-0.17188-1.5156-0.54688-0.23438-0.29688-0.34375-0.60938-0.34375-1.0156h-0.78125c0 0.60938 0.125 1 0.375 1.3594 0.45312 0.625 1.2188 0.9375 2.2188 0.9375 0.78125 0 1.4219-0.17188 1.8438-0.5 0.4375-0.34375 0.71875-0.9375 0.71875-1.5 0-0.8125-0.51562-1.4062-1.4062-1.6562l-1.6406-0.4375c-0.79688-0.21875-1.0781-0.46875-1.0781-0.96875 0-0.67188 0.57812-1.1094 1.4688-1.1094 1.0469 0 1.625 0.46875 1.6406 1.3281z"/>
</g>
<g id="r">
<path d="m0.48438 1.9688h0.75v-2.4688c0.40625 0.48438 0.84375 0.70312 1.4531 0.70312 1.2344 0 2.0156-0.98438 2.0156-2.4844 0-1.5781-0.76562-2.5625-2.0156-2.5625-0.64062 0-1.1562 0.28125-1.5156 0.84375v-0.71875h-0.6875zm2.0781-6.125c0.82812 0 1.3594 0.73438 1.3594 1.8594 0 1.0781-0.54688 1.7969-1.3594 1.7969s-1.3281-0.71875-1.3281-1.8281c0-1.0938 0.51562-1.8281 1.3281-1.8281z"/>
</g>
<g id="u">
<path d="m1.3438-4.7188h-0.73438v4.7188h0.73438zm0-1.8438h-0.75v0.95312h0.75z"/>
</g>
<g id="a">
<path d="m0.625-4.7188v4.7188h0.75v-2.4531c0.015625-1.125 0.48438-1.6406 1.5156-1.6094v-0.76562c-0.125-0.015625-0.20312-0.015625-0.29688-0.015625-0.48438 0-0.84375 0.28125-1.2812 0.98438v-0.85938z"/>
</g>
<g id="t">
<path d="m4.9531-2.9844v2.9844h0.84375v-6.5625h-0.84375v2.8438h-3.375v-2.8438h-0.82812v6.5625h0.82812v-2.9844z"/>
</g>
<g id="c">
<path d="m2.2812-4.7188h-0.76562v-1.2969h-0.75v1.2969h-0.64062v0.60938h0.64062v3.5625c0 0.5 0.32812 0.75 0.90625 0.75 0.20312 0 0.35938-0.015625 0.60938-0.0625v-0.625c-0.10938 0.03125-0.20312 0.03125-0.35938 0.03125-0.3125 0-0.40625-0.09375-0.40625-0.42188v-3.2344h0.76562z"/>
</g>
<g id="l">
<path d="m4.8906-2.4062h-4.5312v0.64062h4.5312z"/>
</g>
<g id="q">
<path d="m0.79688 0h2.5312c1.6562 0 2.6719-1.2344 2.6719-3.2812 0-2.0312-1-3.2812-2.6719-3.2812h-2.5312zm0.84375-0.73438v-5.0938h1.5469c1.2969 0 1.9844 0.875 1.9844 2.5469s-0.6875 2.5469-1.9844 2.5469z"/>
</g>
<g id="p">
<path d="m1.2656-6.5625h-0.75v6.5625h0.75v-1.8438l0.73438-0.71875 1.5938 2.5625h0.92188l-1.9219-3.0938 1.6406-1.625h-0.96875l-2 2z"/>
</g>
<g id="f">
<path d="m2.4531-4.8438c-1.3438 0-2.125 0.9375-2.125 2.5156 0 1.5938 0.78125 2.5312 2.125 2.5312 1.3281 0 2.1406-0.9375 2.1406-2.4844 0-1.6406-0.78125-2.5625-2.1406-2.5625zm0 0.6875c0.84375 0 1.3594 0.6875 1.3594 1.8594 0 1.125-0.53125 1.8125-1.3594 1.8125s-1.3438-0.6875-1.3438-1.8438c0-1.1406 0.51562-1.8281 1.3438-1.8281z"/>
</g>
<g id="k">
<path d="m0.625-4.7188v4.7188h0.76562v-2.5938c0-0.96875 0.5-1.5938 1.2656-1.5938 0.60938 0 0.98438 0.35938 0.98438 0.92188v3.2656h0.75v-3.5625c0-0.78125-0.59375-1.2812-1.5-1.2812-0.70312 0-1.1562 0.26562-1.5625 0.92188v-0.79688z"/>
</g>
<g id="d">
<path d="m1.375-6.5625h-0.76562v6.5625h0.76562z"/>
</g>
<g id="o">
<path d="m4.2188 0 1.8438-5.5v5.5h0.78125v-6.5625h-1.1562l-1.9062 5.7188-1.9375-5.7188h-1.1719v6.5625h0.79688v-5.5l1.8594 5.5z"/>
</g>
<clipPath id="aa">
<path d="m174 71h44v21.613h-44z"/>
</clipPath>
<clipPath id="z">
<path d="m321 71h43v21.613h-43z"/>
</clipPath>
<clipPath id="y">
<path d="m255 71h48v21.613h-48z"/>
</clipPath>
<clipPath id="x">
<path d="m215 71h43v21.613h-43z"/>
</clipPath>
</defs>
<g>
<use x="183.348" y="6.8849" xlink:href="#w"/>
<use x="189.351" y="6.8849" xlink:href="#g"/>
<use x="194.355" y="6.8849" xlink:href="#m"/>
</g>
<g clip-path="url(#aa)">
<path transform="matrix(.1 0 0 -.1 -.472 92.615)" d="m2143.9 92.283c0-49.531-80.469-89.688-179.69-89.688-99.258 0-179.73 40.156-179.73 89.688 0 49.57 80.469 89.727 179.73 89.727 99.219 0 179.69-40.156 179.69-89.727z" fill="none" stroke="#000" stroke-miterlimit="10" stroke-width="2.25"/>
</g>
<g clip-path="url(#z)">
<path transform="matrix(.1 0 0 -.1 -.472 92.615)" d="m3606.4 92.283c0-49.531-80.469-89.688-179.69-89.688-99.258 0-179.73 40.156-179.73 89.688 0 49.57 80.469 89.727 179.73 89.727 99.219 0 179.69-40.156 179.69-89.727z" fill="none" stroke="#000" stroke-miterlimit="10" stroke-width="2.25"/>
</g>
<g clip-path="url(#y)">
<path transform="matrix(.1 0 0 -.1 -.472 92.615)" d="m2999.2 92.283c0-49.531-90.547-89.688-202.23-89.688-111.64 0-202.19 40.156-202.19 89.688 0 49.57 90.547 89.727 202.19 89.727 111.68 0 202.23-40.156 202.23-89.727z" fill="none" stroke="#000" stroke-miterlimit="10" stroke-width="2.25"/>
</g>
<path transform="matrix(.1 0 0 -.1 -.472 92.615)" d="m6.7122 362.01h540v270.27h-540z" fill="none" stroke="#000" stroke-miterlimit="10" stroke-width="2.25"/>
<path transform="matrix(.1 0 0 -.1 -.472 92.615)" d="m636.99 362.01h539.73v270.27h-539.73z" fill="none" stroke="#000" stroke-miterlimit="10" stroke-width="2.25"/>
<path transform="matrix(.1 0 0 -.1 -.472 92.615)" d="m1896.7 362.01h540.27v270.27h-540.27z" fill="none" stroke="#000" stroke-miterlimit="10" stroke-width="2.25"/>
<path transform="matrix(.1 0 0 -.1 -.472 92.615)" d="m2526.7 362.01h540v270.27h-540z" fill="none" stroke="#000" stroke-miterlimit="10" stroke-width="2.25"/>
<path transform="matrix(.1 0 0 -.1 -.472 92.615)" d="m3157 362.01h539.73v270.27h-539.73z" fill="none" stroke="#000" stroke-miterlimit="10" stroke-width="2.25"/>
<path transform="matrix(.1 0 0 -.1 -.472 92.615)" d="m1266.7 362.01h540v270.27h-540z" fill="none" stroke="#000" stroke-miterlimit="10" stroke-width="2.25"/>
<path transform="matrix(.1 0 0 -.1 -.472 92.615)" d="m1986.7 182.28 180 179.73 180-179.73" fill="none" stroke="#000" stroke-miterlimit="10" stroke-width="2.25"/>
<path transform="matrix(.1 0 0 -.1 -.472 92.615)" d="m2797 182.28v179.73" fill="none" stroke="#000" stroke-miterlimit="10" stroke-width="2.25"/>
<path transform="matrix(.1 0 0 -.1 -.472 92.615)" d="m3426.7 182.28v179.73" fill="none" stroke="#000" stroke-miterlimit="10" stroke-width="2.25"/>
<path transform="matrix(.1 0 0 -.1 -.472 92.615)" d="m6.7122 812.28h3690" fill="none" stroke="#000" stroke-miterlimit="10" stroke-width="4.5"/>
<path transform="matrix(.1 0 0 -.1 -.472 92.615)" d="m3696.7 812.28h247.77" fill="none" stroke="#000" stroke-dasharray="27" stroke-miterlimit="10" stroke-width="4.5"/>
<path transform="matrix(.1 0 0 -.1 -.472 92.615)" d="m276.99 632.28v180" fill="none" stroke="#000" stroke-miterlimit="10" stroke-width="2.25"/>
<path transform="matrix(.1 0 0 -.1 -.472 92.615)" d="m906.71 632.28v180" fill="none" stroke="#000" stroke-miterlimit="10" stroke-width="2.25"/>
<path transform="matrix(.1 0 0 -.1 -.472 92.615)" d="m1536.7 632.28v180" fill="none" stroke="#000" stroke-miterlimit="10" stroke-width="2.25"/>
<path transform="matrix(.1 0 0 -.1 -.472 92.615)" d="m2166.7 632.28v180" fill="none" stroke="#000" stroke-miterlimit="10" stroke-width="2.25"/>
<path transform="matrix(.1 0 0 -.1 -.472 92.615)" d="m2797 632.28v180" fill="none" stroke="#000" stroke-miterlimit="10" stroke-width="2.25"/>
<path transform="matrix(.1 0 0 -.1 -.472 92.615)" d="m3426.7 632.28v180" fill="none" stroke="#000" stroke-miterlimit="10" stroke-width="2.25"/>
<g>
<use x="17.7288" y="47.3849" xlink:href="#h"/>
<use x="24.2268" y="47.3849" xlink:href="#j"/>
<use x="30.2298" y="47.3849" xlink:href="#s"/>
<use x="77.19369" y="47.3849" xlink:href="#h"/>
<use x="83.69169" y="47.3849" xlink:href="#e"/>
<use x="88.69569" y="47.3849" xlink:href="#i"/>
<use x="93.19569" y="47.3849" xlink:href="#n"/>
<use x="98.19969" y="47.3849" xlink:href="#b"/>
<use x="135.4418" y="50.74506" xlink:href="#v"/>
<use x="141.4448" y="50.74506" xlink:href="#r"/>
<use x="146.4488" y="50.74506" xlink:href="#b"/>
<use x="151.4528" y="50.74506" xlink:href="#u"/>
<use x="153.4508" y="50.74506" xlink:href="#i"/>
<use x="157.9508" y="50.74506" xlink:href="#n"/>
<use x="162.9548" y="50.74506" xlink:href="#b"/>
<use x="167.9588" y="50.74506" xlink:href="#a"/>
<use x="138.56446" y="41.11498" xlink:href="#t"/>
<use x="145.06246" y="41.11498" xlink:href="#e"/>
<use x="150.06646" y="41.11498" xlink:href="#g"/>
<use x="155.07046" y="41.11498" xlink:href="#r"/>
<use x="160.07446" y="41.11498" xlink:href="#c"/>
<use x="162.57646" y="41.11498" xlink:href="#l"/>
<use x="261.03046" y="40.634902" xlink:href="#q"/>
<use x="267.52846" y="40.634902" xlink:href="#a"/>
<use x="270.52546" y="40.634902" xlink:href="#g"/>
<use x="275.52946" y="40.634902" xlink:href="#i"/>
<use x="280.02946" y="40.634902" xlink:href="#p"/>
<use x="284.52946" y="40.634902" xlink:href="#b"/>
<use x="289.53346" y="40.634902" xlink:href="#a"/>
<use x="292.53046" y="40.634902" xlink:href="#l"/>
<use x="259.72538" y="50.534902" xlink:href="#h"/>
<use x="266.22338" y="50.534902" xlink:href="#f"/>
<use x="271.22738" y="50.534902" xlink:href="#k"/>
<use x="276.23138" y="50.534902" xlink:href="#c"/>
<use x="278.73338" y="50.534902" xlink:href="#a"/>
<use x="281.73038" y="50.534902" xlink:href="#f"/>
<use x="286.73438" y="50.534902" xlink:href="#d"/>
<use x="288.73238" y="50.534902" xlink:href="#d"/>
<use x="290.73038" y="50.534902" xlink:href="#b"/>
<use x="295.73438" y="50.534902" xlink:href="#a"/>
<use x="196.93558" y="50.745058" xlink:href="#h"/>
<use x="203.43358" y="50.745058" xlink:href="#f"/>
<use x="208.43758" y="50.745058" xlink:href="#k"/>
<use x="213.44158" y="50.745058" xlink:href="#c"/>
<use x="215.94358" y="50.745058" xlink:href="#a"/>
<use x="218.94058" y="50.745058" xlink:href="#f"/>
<use x="223.94458" y="50.745058" xlink:href="#d"/>
<use x="225.94258" y="50.745058" xlink:href="#d"/>
<use x="227.94058" y="50.745058" xlink:href="#b"/>
<use x="232.94458" y="50.745058" xlink:href="#a"/>
<use x="199.77191" y="41.084898" xlink:href="#j"/>
<use x="205.77491" y="41.084898" xlink:href="#d"/>
<use x="207.77291" y="41.084898" xlink:href="#e"/>
<use x="212.77691" y="41.084898" xlink:href="#c"/>
<use x="215.27891" y="41.084898" xlink:href="#c"/>
<use x="217.78091" y="41.084898" xlink:href="#b"/>
<use x="222.78491" y="41.084898" xlink:href="#k"/>
<use x="227.78891" y="41.084898" xlink:href="#l"/>
<use x="329.01791" y="41.325132" xlink:href="#o"/>
<use x="336.51491" y="41.325132" xlink:href="#e"/>
<use x="341.51891" y="41.325132" xlink:href="#g"/>
<use x="346.52291" y="41.325132" xlink:href="#m"/>
<use x="351.02291" y="41.325132" xlink:href="#l"/>
<use x="322.69603" y="50.745052" xlink:href="#h"/>
<use x="329.19403" y="50.745052" xlink:href="#f"/>
<use x="334.19803" y="50.745052" xlink:href="#k"/>
<use x="339.20203" y="50.745052" xlink:href="#c"/>
<use x="341.70403" y="50.745052" xlink:href="#a"/>
<use x="344.70103" y="50.745052" xlink:href="#f"/>
<use x="349.70503" y="50.745052" xlink:href="#d"/>
<use x="351.70303" y="50.745052" xlink:href="#d"/>
<use x="353.70103" y="50.745052" xlink:href="#b"/>
<use x="358.70503" y="50.745052" xlink:href="#a"/>
<use x="331.19603" y="86.534852" xlink:href="#o"/>
<use x="338.69303" y="86.534852" xlink:href="#e"/>
<use x="343.69703" y="86.534852" xlink:href="#g"/>
<use x="348.70103" y="86.534852" xlink:href="#m"/>
<use x="263.47883" y="86.295008" xlink:href="#q"/>
<use x="269.97683" y="86.295008" xlink:href="#a"/>
<use x="272.97383" y="86.295008" xlink:href="#g"/>
<use x="277.97783" y="86.295008" xlink:href="#i"/>
<use x="282.47783" y="86.295008" xlink:href="#p"/>
<use x="286.97783" y="86.295008" xlink:href="#b"/>
<use x="291.98183" y="86.295008" xlink:href="#a"/>
<use x="224.94213" y="86.325086" xlink:href="#j"/>
<use x="230.94513" y="86.325086" xlink:href="#d"/>
<use x="232.94313" y="86.325086" xlink:href="#e"/>
<use x="237.94713" y="86.325086" xlink:href="#c"/>
<use x="240.44913" y="86.325086" xlink:href="#c"/>
<use x="242.95113" y="86.325086" xlink:href="#b"/>
<use x="184.44213" y="86.054773" xlink:href="#j"/>
<use x="190.44513" y="86.054773" xlink:href="#d"/>
<use x="192.44313" y="86.054773" xlink:href="#e"/>
<use x="197.44713" y="86.054773" xlink:href="#c"/>
<use x="199.94913" y="86.054773" xlink:href="#c"/>
<use x="202.45113" y="86.054773" xlink:href="#b"/>
</g>
<g clip-path="url(#x)">
<path transform="matrix(.1 0 0 -.1 -.472 92.615)" d="m2548.9 92.283c0-49.531-80.469-89.688-179.69-89.688-99.258 0-179.73 40.156-179.73 89.688 0 49.57 80.469 89.727 179.73 89.727 99.219 0 179.69-40.156 179.69-89.727z" fill="none" stroke="#000" stroke-miterlimit="10" stroke-width="2.25"/>
</g>
</svg>
