<svg width="399pt" height="189pt" version="1.1" viewBox="0 0 399 189" xmlns="http://www.w3.org/2000/svg" xmlns:xlink="http://www.w3.org/1999/xlink">
<defs>
<g id="aw">
<path d="m3.2031-1.7969v0.95312c0 0.39062-0.015625 0.5-0.82812 0.5h-0.21875v0.34375c0.4375-0.03125 1-0.03125 1.4688-0.03125 0.45312 0 1.0312 0 1.4844 0.03125v-0.34375h-0.23438c-0.8125 0-0.82812-0.10938-0.82812-0.5v-0.95312h1.0938v-0.34375h-1.0938v-4.9531c0-0.21875 0-0.29688-0.17188-0.29688-0.09375 0-0.14062 0-0.21875 0.14062l-3.3438 5.1094v0.34375zm0.0625-0.34375h-2.6562l2.6562-4.0625z"/>
</g>
<g id="as">
<path d="m0.375-7.4531v0.34375h0.26562c0.84375 0 0.85938 0.125 0.85938 0.51562v5.75c0 0.39062-0.015625 0.5-0.85938 0.5h-0.26562v0.34375h4c1.8281 0 3.3281-1.6094 3.3281-3.6719s-1.4688-3.7812-3.3281-3.7812zm2.6094 7.1094c-0.51562 0-0.54688-0.078125-0.54688-0.4375v-5.8906c0-0.35938 0.03125-0.4375 0.54688-0.4375h1.0781c0.6875 0 1.4375 0.23438 1.9844 1.0156 0.46875 0.64062 0.57812 1.5781 0.57812 2.4219 0 1.2188-0.21875 1.875-0.60938 2.4062-0.21875 0.29688-0.82812 0.92188-1.9375 0.92188z"/>
</g>
<g id="ah">
<path d="m2.625-7.2031c-0.09375-0.25-0.125-0.25-0.375-0.25h-1.8438v0.34375h0.26562c0.82812 0 0.85938 0.125 0.85938 0.51562v5.4531c0 0.29688 0 0.79688-1.125 0.79688v0.34375c0.375-0.015625 0.90625-0.03125 1.2656-0.03125 0.375 0 0.90625 0.015625 1.2812 0.03125v-0.34375c-1.125 0-1.125-0.5-1.125-0.79688v-5.8906h0.015625l2.625 6.7969c0.0625 0.14062 0.10938 0.23438 0.21875 0.23438 0.125 0 0.15625-0.09375 0.20312-0.20312l2.6719-6.9062h0.015625v6.2656c0 0.39062-0.015625 0.5-0.85938 0.5h-0.26562v0.34375c0.40625-0.03125 1.1562-0.03125 1.5781-0.03125s1.1562 0 1.5625 0.03125v-0.34375h-0.26562c-0.84375 0-0.85938-0.10938-0.85938-0.5v-5.75c0-0.39062 0.015625-0.51562 0.85938-0.51562h0.26562v-0.34375h-1.8438c-0.29688 0-0.29688 0.015625-0.35938 0.21875l-2.3906 6.1406z"/>
</g>
<g id="ag">
<path d="m4.3438-7.5938c-0.0625-0.14062-0.078125-0.21875-0.25-0.21875s-0.21875 0.0625-0.26562 0.21875l-2.25 6.5312c-0.20312 0.54688-0.64062 0.71875-1.2344 0.71875v0.34375c0.25-0.015625 0.71875-0.03125 1.125-0.03125 0.32812 0 0.89062 0.015625 1.25 0.03125v-0.34375c-0.54688 0-0.82812-0.26562-0.82812-0.54688 0-0.03125 0.015625-0.14062 0.03125-0.17188l0.5-1.4219h2.6875l0.57812 1.6719c0.015625 0.03125 0.03125 0.10938 0.03125 0.14062 0 0.32812-0.60938 0.32812-0.89062 0.32812v0.34375c0.39062-0.03125 1.1562-0.03125 1.5625-0.03125 0.46875 0 0.96875 0.015625 1.4219 0.03125v-0.34375h-0.1875c-0.65625 0-0.8125-0.078125-0.92188-0.4375zm-0.57812 1.2188 1.2344 3.5469h-2.4531z"/>
</g>
<g id="s">
<path d="m3.0156-2.0469v-0.625h-2.8906v0.625z"/>
</g>
<g id="i">
<path d="m0.60938-3.7344c0 2.2656 1.7656 3.9688 3.7969 3.9688 1.7812 0 2.8438-1.5156 2.8438-2.7812 0-0.10938 0-0.17188-0.14062-0.17188-0.125 0-0.125 0.0625-0.125 0.17188-0.09375 1.5469-1.2656 2.4531-2.4531 2.4531-0.65625 0-2.7969-0.375-2.7969-3.625 0-3.2656 2.125-3.625 2.7969-3.625 1.1875 0 2.1562 0.98438 2.375 2.5781 0.015625 0.15625 0.015625 0.1875 0.17188 0.1875 0.17188 0 0.17188-0.03125 0.17188-0.26562v-2.5781c0-0.1875 0-0.26562-0.125-0.26562-0.03125 0-0.078125 0-0.17188 0.125l-0.54688 0.8125c-0.39062-0.39062-0.95312-0.9375-2-0.9375-2.0469 0-3.7969 1.7344-3.7969 3.9531z"/>
</g>
<g id="g">
<path d="m5.1406-2.3281c0-1.4062-1.0938-2.5625-2.4219-2.5625-1.3594 0-2.4062 1.1875-2.4062 2.5625 0 1.4062 1.125 2.4531 2.4062 2.4531 1.3125 0 2.4219-1.0781 2.4219-2.4531zm-2.4219 2.1719c-0.46875 0-0.9375-0.21875-1.2344-0.73438-0.28125-0.46875-0.28125-1.1406-0.28125-1.5312 0-0.42188 0-1.0156 0.26562-1.5 0.29688-0.5 0.8125-0.71875 1.25-0.71875 0.48438 0 0.95312 0.23438 1.2344 0.70312s0.28125 1.1094 0.28125 1.5156c0 0.39062 0 0.98438-0.25 1.4688-0.23438 0.48438-0.71875 0.79688-1.2656 0.79688z"/>
</g>
<g id="h">
<path d="m1.2031-3.75v2.9219c0 0.48438-0.125 0.48438-0.85938 0.48438v0.34375c0.39062-0.015625 0.9375-0.03125 1.2344-0.03125 0.28125 0 0.85938 0.015625 1.2188 0.03125v-0.34375c-0.71875 0-0.84375 0-0.84375-0.48438v-2c0-1.1406 0.76562-1.75 1.4688-1.75 0.6875 0 0.8125 0.59375 0.8125 1.2031v2.5469c0 0.48438-0.125 0.48438-0.85938 0.48438v0.34375c0.39062-0.015625 0.9375-0.03125 1.2344-0.03125 0.28125 0 0.85938 0.015625 1.2188 0.03125v-0.34375c-0.5625 0-0.82812 0-0.84375-0.32812v-2.0781c0-0.9375 0-1.2812-0.34375-1.6719-0.14062-0.1875-0.5-0.40625-1.1406-0.40625-0.79688 0-1.3125 0.46875-1.6094 1.1562v-1.1562l-1.5469 0.125v0.34375c0.76562 0 0.85938 0.078125 0.85938 0.60938z"/>
</g>
<g id="c">
<path d="m1.8906-4.3594h1.5625v-0.34375h-1.5625v-2h-0.28125c0 0.89062-0.32812 2.0625-1.4062 2.0938v0.25h0.9375v3c0 1.3438 1.0156 1.4844 1.4062 1.4844 0.76562 0 1.0781-0.78125 1.0781-1.4844v-0.60938h-0.28125v0.59375c0 0.8125-0.32812 1.2188-0.71875 1.2188-0.73438 0-0.73438-0.98438-0.73438-1.1719z"/>
</g>
<g id="f">
<path d="m1.8281-3.625v-1.2031l-1.5156 0.125v0.34375c0.75 0 0.84375 0.078125 0.84375 0.60938v2.9219c0 0.48438-0.125 0.48438-0.84375 0.48438v0.34375c0.42188-0.015625 0.9375-0.03125 1.2344-0.03125 0.4375 0 0.95312 0 1.3906 0.03125v-0.34375h-0.23438c-0.8125 0-0.82812-0.10938-0.82812-0.5v-1.6875c0-1.0781 0.45312-2.0469 1.2812-2.0469 0.078125 0 0.10938 0 0.125 0.015625-0.03125 0-0.25 0.14062-0.25 0.42188 0 0.29688 0.23438 0.46875 0.46875 0.46875 0.20312 0 0.46875-0.14062 0.46875-0.48438s-0.34375-0.67188-0.8125-0.67188c-0.79688 0-1.1875 0.73438-1.3281 1.2031z"/>
</g>
<g id="e">
<path d="m1.9375-7.5625-1.5781 0.10938v0.34375c0.76562 0 0.84375 0.078125 0.84375 0.60938v5.6719c0 0.48438-0.10938 0.48438-0.84375 0.48438v0.34375c0.35938-0.015625 0.9375-0.03125 1.2188-0.03125 0.26562 0 0.79688 0.015625 1.2031 0.03125v-0.34375c-0.73438 0-0.84375 0-0.84375-0.48438z"/>
</g>
<g id="d">
<path d="m1.2188-2.75c0.0625-1.625 0.98438-1.8906 1.3594-1.8906 1.125 0 1.2344 1.4688 1.2344 1.8906zm-0.015625 0.23438h3.0469c0.25 0 0.28125 0 0.28125-0.23438 0-1.0781-0.59375-2.1406-1.9531-2.1406-1.2656 0-2.2656 1.125-2.2656 2.4844 0 1.4688 1.1406 2.5312 2.3906 2.5312 1.3281 0 1.8281-1.2188 1.8281-1.4219 0-0.10938-0.09375-0.125-0.14062-0.125-0.10938 0-0.125 0.0625-0.14062 0.14062-0.39062 1.125-1.375 1.125-1.4844 1.125-0.54688 0-0.98438-0.32812-1.2344-0.73438-0.32812-0.51562-0.32812-1.2344-0.32812-1.625z"/>
</g>
<g id="av">
<path d="m6.6875-6.5938c0-0.39062 0.015625-0.51562 0.85938-0.51562h0.26562v-0.34375c-0.39062 0.03125-1.1875 0.03125-1.6094 0.03125-0.40625 0-1.2344 0-1.6094-0.03125v0.34375h0.26562c0.82812 0 0.85938 0.125 0.85938 0.51562v2.5469h-3.2656v-2.5469c0-0.39062 0.015625-0.51562 0.85938-0.51562h0.26562v-0.34375c-0.375 0.03125-1.1875 0.03125-1.6094 0.03125-0.40625 0-1.2344 0-1.6094-0.03125v0.34375h0.26562c0.84375 0 0.85938 0.125 0.85938 0.51562v5.75c0 0.39062-0.015625 0.5-0.85938 0.5h-0.26562v0.34375c0.375-0.03125 1.1875-0.03125 1.6094-0.03125 0.40625 0 1.2344 0 1.6094 0.03125v-0.34375h-0.26562c-0.84375 0-0.85938-0.10938-0.85938-0.5v-2.8594h3.2656v2.8594c0 0.39062-0.03125 0.5-0.85938 0.5h-0.26562v0.34375c0.375-0.03125 1.1875-0.03125 1.5938-0.03125 0.42188 0 1.2344 0 1.625 0.03125v-0.34375h-0.26562c-0.84375 0-0.85938-0.10938-0.85938-0.5z"/>
</g>
<g id="u">
<path d="m3.625-0.82812c0.046875 0.4375 0.34375 0.89062 0.85938 0.89062 0.23438 0 0.89062-0.15625 0.89062-1.0312v-0.60938h-0.26562v0.60938c0 0.625-0.28125 0.70312-0.39062 0.70312-0.35938 0-0.40625-0.5-0.40625-0.54688v-2.1875c0-0.45312 0-0.875-0.39062-1.2812-0.4375-0.4375-0.98438-0.60938-1.5-0.60938-0.89062 0-1.6406 0.51562-1.6406 1.2344 0 0.32812 0.21875 0.51562 0.5 0.51562 0.29688 0 0.5-0.21875 0.5-0.5 0-0.14062-0.0625-0.5-0.5625-0.5 0.29688-0.39062 0.82812-0.5 1.1875-0.5 0.53125 0 1.1562 0.42188 1.1562 1.3906v0.40625c-0.5625 0.03125-1.3281 0.0625-2.0156 0.39062-0.8125 0.375-1.0938 0.9375-1.0938 1.4219 0 0.875 1.0625 1.1562 1.75 1.1562 0.71875 0 1.2188-0.4375 1.4219-0.95312zm-0.0625-1.7969v1.0938c0 1.0469-0.79688 1.4062-1.2812 1.4062-0.53125 0-0.98438-0.375-0.98438-0.92188 0-0.59375 0.45312-1.5 2.2656-1.5781z"/>
</g>
<g id="t">
<path d="m4.2656-0.85938v0.98438l1.5625-0.125v-0.34375c-0.75 0-0.84375-0.078125-0.84375-0.60938v-3.875l-1.6094 0.125v0.34375c0.76562 0 0.85938 0.078125 0.85938 0.60938v1.9375c0 0.95312-0.53125 1.6875-1.3281 1.6875-0.90625 0-0.95312-0.5-0.95312-1.0781v-3.625l-1.6094 0.125v0.34375c0.85938 0 0.85938 0.03125 0.85938 1v1.6406c0 0.84375 0 1.8438 1.6562 1.8438 0.60938 0 1.0938-0.3125 1.4062-0.98438z"/>
</g>
<g id="k">
<path d="m1.875-4.0938v-0.73438l-1.5625 0.125v0.34375c0.76562 0 0.84375 0.0625 0.84375 0.54688v5.0938c0 0.5-0.125 0.5-0.84375 0.5v0.32812c0.35938 0 0.9375-0.03125 1.2188-0.03125 0.29688 0 0.84375 0.03125 1.2344 0.03125v-0.32812c-0.73438 0-0.85938 0-0.85938-0.5v-1.9219c0.0625 0.17188 0.51562 0.76562 1.3438 0.76562 1.2969 0 2.4375-1.0781 2.4375-2.4844 0-1.375-1.0625-2.4688-2.2812-2.4688-0.85938 0-1.3125 0.48438-1.5312 0.73438zm0.03125 2.8438v-2.4219c0.3125-0.5625 0.85938-0.875 1.4062-0.875 0.79688 0 1.4688 0.95312 1.4688 2.1875 0 1.3281-0.76562 2.2344-1.5781 2.2344-0.4375 0-0.84375-0.21875-1.1406-0.65625-0.15625-0.23438-0.15625-0.25-0.15625-0.46875z"/>
</g>
<g id="j">
<path d="m2.2656-2.1094c0.25 0.03125 1.1406 0.21875 1.1406 1 0 0.54688-0.39062 0.98438-1.2344 0.98438-0.92188 0-1.3125-0.60938-1.5156-1.5469-0.03125-0.14062-0.046875-0.1875-0.15625-0.1875-0.14062 0-0.14062 0.078125-0.14062 0.28125v1.4375c0 0.1875 0 0.26562 0.125 0.26562 0.046875 0 0.0625-0.015625 0.26562-0.21875 0.03125-0.03125 0.03125-0.046875 0.21875-0.25 0.48438 0.45312 0.96875 0.46875 1.2031 0.46875 1.25 0 1.75-0.73438 1.75-1.5156 0-0.57812-0.32812-0.90625-0.45312-1.0469-0.35938-0.34375-0.78125-0.4375-1.25-0.51562-0.60938-0.125-1.3281-0.26562-1.3281-0.89062 0-0.39062 0.28125-0.82812 1.2188-0.82812 1.1875 0 1.25 0.96875 1.2656 1.3125 0.015625 0.09375 0.10938 0.09375 0.14062 0.09375 0.14062 0 0.14062-0.046875 0.14062-0.25v-1.1094c0-0.1875 0-0.26562-0.125-0.26562-0.046875 0-0.078125 0-0.21875 0.14062-0.03125 0.03125-0.14062 0.14062-0.1875 0.17188-0.40625-0.3125-0.85938-0.3125-1.0156-0.3125-1.3281 0-1.75 0.73438-1.75 1.3438 0 0.39062 0.17188 0.6875 0.46875 0.92188 0.34375 0.29688 0.65625 0.35938 1.4375 0.51562z"/>
</g>
<g id="au">
<path d="m1.9375-4.8281-1.5312 0.125v0.34375c0.70312 0 0.79688 0.0625 0.79688 0.59375v2.9375c0 0.48438-0.10938 0.48438-0.84375 0.48438v0.34375c0.34375-0.015625 0.9375-0.03125 1.2031-0.03125 0.375 0 0.76562 0.015625 1.125 0.03125v-0.34375c-0.71875 0-0.75-0.046875-0.75-0.46875zm0.03125-1.8906c0-0.34375-0.26562-0.57812-0.57812-0.57812-0.32812 0-0.57812 0.29688-0.57812 0.57812 0 0.29688 0.25 0.57812 0.57812 0.57812 0.3125 0 0.57812-0.23438 0.57812-0.57812z"/>
</g>
<g id="at">
<path d="m1.2812-2.375c0-1.7812 0.89062-2.2344 1.4688-2.2344 0.09375 0 0.78125 0 1.1719 0.40625-0.45312 0.03125-0.51562 0.35938-0.51562 0.5 0 0.28125 0.1875 0.5 0.5 0.5 0.28125 0 0.5-0.1875 0.5-0.51562 0-0.73438-0.82812-1.1719-1.6719-1.1719-1.3594 0-2.3594 1.1875-2.3594 2.5312 0 1.4062 1.0781 2.4844 2.3438 2.4844 1.4531 0 1.8125-1.3125 1.8125-1.4219s-0.10938-0.10938-0.14062-0.10938c-0.10938 0-0.125 0.046875-0.14062 0.10938-0.32812 1.0156-1.0312 1.1406-1.4375 1.1406-0.57812 0-1.5312-0.46875-1.5312-2.2188z"/>
</g>
<g id="ar">
<path d="m1.2031-0.82812c0 0.48438-0.125 0.48438-0.85938 0.48438v0.34375c0.39062-0.015625 0.9375-0.03125 1.2344-0.03125 0.28125 0 0.85938 0.015625 1.2188 0.03125v-0.34375c-0.71875 0-0.84375 0-0.84375-0.48438v-2c0-1.1406 0.76562-1.75 1.4688-1.75 0.6875 0 0.8125 0.59375 0.8125 1.2031v2.5469c0 0.48438-0.125 0.48438-0.85938 0.48438v0.34375c0.39062-0.015625 0.9375-0.03125 1.2344-0.03125 0.28125 0 0.85938 0.015625 1.2188 0.03125v-0.34375c-0.5625 0-0.82812 0-0.84375-0.32812v-2.0781c0-0.9375 0-1.2812-0.34375-1.6719-0.14062-0.1875-0.5-0.40625-1.1406-0.40625-0.92188 0-1.3906 0.65625-1.5781 1.0781v-3.8125l-1.5781 0.10938v0.34375c0.76562 0 0.85938 0.078125 0.85938 0.60938z"/>
</g>
<g id="aq">
<path d="m2.4219-3.9844v-2.6875c0-0.35938 0.015625-0.4375 0.53125-0.4375h1.3594c1.0469 0 1.4375 0.92188 1.4375 1.5 0 0.70312-0.53125 1.625-1.75 1.625zm2.5781 0.09375c1.0469-0.20312 1.8125-0.90625 1.8125-1.7188 0-0.9375-1.0156-1.8438-2.4219-1.8438h-4v0.34375h0.26562c0.84375 0 0.85938 0.125 0.85938 0.51562v5.75c0 0.39062-0.015625 0.5-0.85938 0.5h-0.26562v0.34375h4.2812c1.4531 0 2.4219-0.96875 2.4219-2 0-0.9375-0.89062-1.7656-2.0938-1.8906zm-0.6875 3.5469h-1.3594c-0.51562 0-0.53125-0.078125-0.53125-0.4375v-2.9688h2.0469c1.0781 0 1.5469 1.0156 1.5469 1.75 0 0.76562-0.57812 1.6562-1.7031 1.6562z"/>
</g>
<g id="ap">
<path d="m2.4688-3.4531h1.8438c1.3125 0 2.5-0.875 2.5-1.9688 0-1.0625-1.0938-2.0312-2.5781-2.0312h-3.8594v0.34375h0.26562c0.84375 0 0.85938 0.125 0.85938 0.51562v5.75c0 0.39062-0.015625 0.5-0.85938 0.5h-0.26562v0.34375c0.39062-0.03125 1.2031-0.03125 1.6094-0.03125 0.42188 0 1.2344 0 1.6094 0.03125v-0.34375h-0.25c-0.84375 0-0.875-0.10938-0.875-0.5zm-0.03125-0.28125v-2.9375c0-0.35938 0.03125-0.4375 0.54688-0.4375h0.96875c1.7344 0 1.7344 1.1562 1.7344 1.6875 0 0.51562 0 1.6875-1.7344 1.6875z"/>
</g>
<g id="ao">
<path d="m6.3438-2.5156c0 1.5469-1.0469 2.4219-2.0938 2.4219-0.51562 0-1.7969-0.28125-1.7969-2.3438v-4.1562c0-0.39062 0.015625-0.51562 0.85938-0.51562h0.26562v-0.34375c-0.375 0.03125-1.1875 0.03125-1.6094 0.03125-0.40625 0-1.2344 0-1.6094-0.03125v0.34375h0.26562c0.84375 0 0.85938 0.125 0.85938 0.51562v4.1094c0 1.5312 1.2656 2.7188 2.75 2.7188 1.25 0 2.2344-1.0156 2.4219-2.25 0.03125-0.21875 0.03125-0.3125 0.03125-0.75v-3.5c0-0.35938 0-0.84375 1.125-0.84375v-0.34375c-0.39062 0.015625-0.92188 0.03125-1.2969 0.03125s-0.90625-0.015625-1.2969-0.03125v0.34375c1.125 0 1.125 0.51562 1.125 0.8125z"/>
</g>
<g id="an">
<path d="m3.2031-6.9844c0-0.25 0-0.28125-0.25-0.28125-0.67188 0.70312-1.6406 0.70312-1.9844 0.70312v0.32812c0.21875 0 0.85938 0 1.4375-0.28125v5.6562c0 0.39062-0.046875 0.51562-1.0156 0.51562h-0.35938v0.34375c0.39062-0.03125 1.3281-0.03125 1.7656-0.03125s1.3906 0 1.7656 0.03125v-0.34375h-0.34375c-0.98438 0-1.0156-0.10938-1.0156-0.51562z"/>
</g>
<g id="am">
<path d="m1.4375-3.5781v-0.26562c0-2.75 1.3594-3.1406 1.9062-3.1406 0.26562 0 0.71875 0.0625 0.96875 0.4375-0.17188 0-0.60938 0-0.60938 0.48438 0 0.34375 0.26562 0.5 0.5 0.5 0.1875 0 0.51562-0.09375 0.51562-0.51562 0-0.65625-0.48438-1.1875-1.3906-1.1875-1.3906 0-2.875 1.4062-2.875 3.8125 0 2.9219 1.2656 3.6875 2.2812 3.6875 1.2188 0 2.25-1.0156 2.25-2.4531 0-1.3906-0.96875-2.4375-2.1875-2.4375-0.73438 0-1.1406 0.5625-1.3594 1.0781zm1.2969 3.5156c-0.6875 0-1.0156-0.65625-1.0781-0.82812-0.1875-0.5-0.1875-1.375-0.1875-1.5781 0-0.84375 0.34375-1.9375 1.3281-1.9375 0.17188 0 0.67188 0 1.0156 0.67188 0.1875 0.40625 0.1875 0.96875 0.1875 1.5 0 0.51562 0 1.0625-0.1875 1.4531-0.32812 0.65625-0.82812 0.71875-1.0781 0.71875z"/>
</g>
<g id="al">
<path d="m6.3438-7.4219h-5.9844v0.34375h0.26562c0.84375 0 0.85938 0.125 0.85938 0.51562v5.7188c0 0.39062-0.015625 0.5-0.85938 0.5h-0.26562v0.34375c0.375-0.03125 1.2344-0.03125 1.6562-0.03125 0.45312 0 1.4375 0 1.8281 0.03125v-0.34375h-0.35938c-1.0312 0-1.0312-0.14062-1.0312-0.51562v-2.6875h0.9375c1.0469 0 1.1562 0.34375 1.1562 1.2812h0.28125v-2.8906h-0.28125c0 0.90625-0.10938 1.2812-1.1562 1.2812h-0.9375v-2.7656c0-0.35938 0.015625-0.4375 0.53125-0.4375h1.3125c1.6406 0 1.9062 0.60938 2.0781 2.1094h0.28125z"/>
</g>
<g id="ak">
<path d="m3.1562-3.8438c0.90625-0.29688 1.5312-1.0469 1.5312-1.9219 0-0.89062-0.95312-1.5-2-1.5-1.1094 0-1.9375 0.65625-1.9375 1.4844 0 0.35938 0.25 0.5625 0.5625 0.5625 0.32812 0 0.54688-0.23438 0.54688-0.54688 0-0.54688-0.5-0.54688-0.67188-0.54688 0.34375-0.53125 1.0625-0.67188 1.4531-0.67188 0.45312 0 1.0469 0.23438 1.0469 1.2188 0 0.125-0.015625 0.76562-0.3125 1.2344-0.32812 0.53125-0.6875 0.5625-0.96875 0.57812-0.078125 0-0.34375 0.03125-0.42188 0.03125-0.09375 0-0.15625 0.015625-0.15625 0.125 0 0.125 0.0625 0.125 0.25 0.125h0.48438c0.89062 0 1.2969 0.73438 1.2969 1.8125 0 1.4844-0.75 1.7969-1.2344 1.7969-0.46875 0-1.2812-0.1875-1.6719-0.82812 0.39062 0.046875 0.71875-0.1875 0.71875-0.60938 0-0.39062-0.28125-0.60938-0.60938-0.60938-0.25 0-0.60938 0.15625-0.60938 0.64062 0 0.98438 1.0156 1.7031 2.2031 1.7031 1.3281 0 2.3281-0.98438 2.3281-2.0938 0-0.90625-0.6875-1.75-1.8281-1.9844z"/>
</g>
<g id="aj">
<path d="m4.8906-2.1875c0-1.2969-0.89062-2.3906-2.0625-2.3906-0.53125 0-1 0.17188-1.3906 0.54688v-2.125c0.21875 0.078125 0.57812 0.14062 0.92188 0.14062 1.3438 0 2.1094-0.98438 2.1094-1.125 0-0.0625-0.03125-0.125-0.10938-0.125 0 0-0.03125 0-0.078125 0.03125-0.21875 0.10938-0.76562 0.3125-1.4844 0.3125-0.4375 0-0.9375-0.0625-1.4531-0.29688-0.09375-0.03125-0.10938-0.03125-0.14062-0.03125-0.10938 0-0.10938 0.078125-0.10938 0.26562v3.2188c0 0.20312 0 0.28125 0.15625 0.28125 0.078125 0 0.10938-0.03125 0.14062-0.09375 0.125-0.17188 0.53125-0.76562 1.4062-0.76562 0.57812 0 0.84375 0.5 0.9375 0.70312 0.17188 0.40625 0.1875 0.82812 0.1875 1.375 0 0.375 0 1.0312-0.25 1.4844-0.26562 0.4375-0.67188 0.71875-1.1719 0.71875-0.79688 0-1.4219-0.57812-1.6094-1.2188 0.03125 0 0.0625 0.015625 0.1875 0.015625 0.35938 0 0.54688-0.26562 0.54688-0.53125s-0.1875-0.53125-0.54688-0.53125c-0.15625 0-0.53125 0.078125-0.53125 0.57812 0 0.9375 0.75 1.9844 1.9688 1.9844 1.2656 0 2.375-1.0469 2.375-2.4219z"/>
</g>
<g id="ai">
<path d="m1.3906-0.84375 1.1562-1.125c1.7031-1.5 2.3438-2.0938 2.3438-3.1719 0-1.25-0.96875-2.125-2.3125-2.125-1.2188 0-2.0312 1-2.0312 1.9688 0 0.625 0.54688 0.625 0.57812 0.625 0.1875 0 0.5625-0.14062 0.5625-0.57812 0-0.29688-0.1875-0.57812-0.57812-0.57812-0.078125 0-0.10938 0-0.14062 0.015625 0.25-0.70312 0.84375-1.1094 1.4688-1.1094 1 0 1.4688 0.875 1.4688 1.7812 0 0.85938-0.54688 1.7344-1.1406 2.4062l-2.0938 2.3281c-0.125 0.125-0.125 0.14062-0.125 0.40625h4.0469l0.29688-1.8906h-0.26562c-0.0625 0.3125-0.125 0.79688-0.23438 0.96875-0.078125 0.078125-0.79688 0.078125-1.0469 0.078125z"/>
</g>
<g id="r">
<path d="m3.9688-6.9375c-0.046875-0.125-0.078125-0.20312-0.23438-0.20312s-0.1875 0.0625-0.23438 0.20312l-2.0625 5.9531c-0.1875 0.51562-0.57812 0.67188-1.125 0.67188v0.3125c0.23438-0.015625 0.67188-0.03125 1.0156-0.03125 0.3125 0 0.82812 0.015625 1.1562 0.03125v-0.3125c-0.5 0-0.75-0.25-0.75-0.5 0-0.03125 0.015625-0.14062 0.015625-0.15625l0.46875-1.2969h2.4531l0.53125 1.5156c0.015625 0.046875 0.03125 0.10938 0.03125 0.14062 0 0.29688-0.5625 0.29688-0.82812 0.29688v0.3125c0.35938-0.03125 1.0625-0.03125 1.4375-0.03125 0.42188 0 0.89062 0.015625 1.2969 0.03125v-0.3125h-0.17188c-0.59375 0-0.73438-0.0625-0.84375-0.39062zm-0.53125 1.1094 1.125 3.25h-2.2344z"/>
</g>
<g id="n">
<path d="m3.7812-0.54688v0.65625l1.4688-0.10938v-0.3125c-0.6875 0-0.78125-0.0625-0.78125-0.5625v-6.0469l-1.4219 0.10938v0.3125c0.6875 0 0.76562 0.0625 0.76562 0.5625v2.1562c-0.28125-0.35938-0.71875-0.625-1.25-0.625-1.1719 0-2.2188 0.98438-2.2188 2.2656 0 1.2656 0.96875 2.25 2.1094 2.25 0.64062 0 1.0781-0.34375 1.3281-0.65625zm0-2.6719v2.0469c0 0.17188 0 0.1875-0.10938 0.35938-0.29688 0.48438-0.73438 0.70312-1.1719 0.70312-0.45312 0-0.8125-0.26562-1.0469-0.64062-0.25-0.40625-0.28125-0.96875-0.28125-1.3906 0-0.35938 0.015625-0.95312 0.29688-1.4062 0.21875-0.3125 0.59375-0.64062 1.1406-0.64062 0.34375 0 0.76562 0.15625 1.0625 0.59375 0.10938 0.17188 0.10938 0.1875 0.10938 0.375z"/>
</g>
<g id="b">
<path d="m1.6719-3.3125v-1.0938l-1.3906 0.10938v0.3125c0.70312 0 0.78125 0.0625 0.78125 0.5625v2.6719c0 0.4375-0.10938 0.4375-0.78125 0.4375v0.3125c0.39062-0.015625 0.85938-0.03125 1.1406-0.03125 0.39062 0 0.85938 0 1.2656 0.03125v-0.3125h-0.21875c-0.73438 0-0.75-0.10938-0.75-0.46875v-1.5312c0-0.98438 0.42188-1.875 1.1719-1.875 0.0625 0 0.09375 0 0.10938 0.015625-0.03125 0-0.23438 0.125-0.23438 0.39062s0.21875 0.42188 0.4375 0.42188c0.17188 0 0.42188-0.125 0.42188-0.4375s-0.3125-0.60938-0.73438-0.60938c-0.73438 0-1.0938 0.67188-1.2188 1.0938z"/>
</g>
<g id="a">
<path d="m1.1094-2.5156c0.0625-1.4844 0.90625-1.7344 1.25-1.7344 1.0156 0 1.125 1.3438 1.125 1.7344zm0 0.21875h2.7812c0.21875 0 0.25 0 0.25-0.21875 0-0.98438-0.54688-1.9531-1.7812-1.9531-1.1562 0-2.0781 1.0312-2.0781 2.2812 0 1.3281 1.0469 2.2969 2.1875 2.2969 1.2188 0 1.6719-1.1094 1.6719-1.2969 0-0.09375-0.078125-0.125-0.14062-0.125-0.078125 0-0.10938 0.0625-0.125 0.14062-0.34375 1.0312-1.25 1.0312-1.3438 1.0312-0.5 0-0.89062-0.29688-1.125-0.67188-0.29688-0.46875-0.29688-1.125-0.29688-1.4844z"/>
</g>
<g id="m">
<path d="m2.0781-1.9375c0.21875 0.046875 1.0312 0.20312 1.0312 0.92188 0 0.5-0.34375 0.90625-1.125 0.90625-0.84375 0-1.2031-0.5625-1.3906-1.4219-0.03125-0.125-0.03125-0.15625-0.14062-0.15625-0.125 0-0.125 0.0625-0.125 0.23438v1.3281c0 0.17188 0 0.23438 0.10938 0.23438 0.046875 0 0.0625-0.015625 0.25-0.20312 0.015625-0.015625 0.015625-0.03125 0.20312-0.21875 0.4375 0.40625 0.89062 0.42188 1.0938 0.42188 1.1406 0 1.6094-0.67188 1.6094-1.3906 0-0.51562-0.29688-0.82812-0.42188-0.9375-0.32812-0.32812-0.71875-0.40625-1.1406-0.48438-0.5625-0.10938-1.2188-0.23438-1.2188-0.8125 0-0.35938 0.25-0.76562 1.1094-0.76562 1.0938 0 1.1562 0.90625 1.1719 1.2031 0 0.09375 0.09375 0.09375 0.10938 0.09375 0.14062 0 0.14062-0.046875 0.14062-0.23438v-1.0156c0-0.15625 0-0.23438-0.10938-0.23438-0.046875 0-0.078125 0-0.20312 0.125-0.03125 0.03125-0.125 0.125-0.17188 0.15625-0.375-0.28125-0.78125-0.28125-0.9375-0.28125-1.2188 0-1.5938 0.67188-1.5938 1.2344 0 0.34375 0.15625 0.625 0.42188 0.84375 0.32812 0.25 0.60938 0.3125 1.3281 0.45312z"/>
</g>
<g id="x">
<path d="m1.0938-3.4219v2.6719c0 0.4375-0.10938 0.4375-0.78125 0.4375v0.3125c0.35938-0.015625 0.85938-0.03125 1.1406-0.03125 0.25 0 0.76562 0.015625 1.1094 0.03125v-0.3125c-0.67188 0-0.78125 0-0.78125-0.4375v-1.8438c0-1.0312 0.71875-1.5938 1.3438-1.5938 0.64062 0 0.75 0.53125 0.75 1.1094v2.3281c0 0.4375-0.10938 0.4375-0.78125 0.4375v0.3125c0.34375-0.015625 0.85938-0.03125 1.125-0.03125 0.25 0 0.78125 0.015625 1.1094 0.03125v-0.3125c-0.51562 0-0.76562 0-0.76562-0.29688v-1.9062c0-0.85938 0-1.1562-0.3125-1.5156-0.14062-0.17188-0.46875-0.375-1.0469-0.375-0.73438 0-1.2031 0.42188-1.4844 1.0469v-1.0469l-1.4062 0.10938v0.3125c0.70312 0 0.78125 0.0625 0.78125 0.5625z"/>
</g>
<g id="w">
<path d="m3.8906-4c0.09375-0.10938 0.09375-0.125 0.09375-0.17188 0-0.125-0.09375-0.125-0.26562-0.125h-3.1875l-0.10938 1.6094h0.25c0.0625-1.0156 0.25-1.3906 1.3438-1.3906h1.1406l-2.7812 3.7656c-0.09375 0.10938-0.09375 0.125-0.09375 0.17188 0 0.14062 0.0625 0.14062 0.25 0.14062h3.2969l0.17188-1.8594h-0.25c-0.09375 1.1719-0.29688 1.6094-1.4531 1.6094h-1.1875z"/>
</g>
<g id="l">
<path d="m3.3125-0.75c0.046875 0.39062 0.3125 0.8125 0.78125 0.8125 0.21875 0 0.82812-0.14062 0.82812-0.95312v-0.5625h-0.25v0.5625c0 0.57812-0.25 0.64062-0.35938 0.64062-0.32812 0-0.375-0.45312-0.375-0.5v-1.9844c0-0.42188 0-0.8125-0.35938-1.1875-0.39062-0.39062-0.89062-0.54688-1.3594-0.54688-0.82812 0-1.5156 0.46875-1.5156 1.125 0 0.29688 0.20312 0.46875 0.46875 0.46875 0.28125 0 0.45312-0.20312 0.45312-0.45312 0-0.125-0.046875-0.45312-0.51562-0.45312 0.28125-0.35938 0.76562-0.46875 1.0781-0.46875 0.5 0 1.0625 0.39062 1.0625 1.2812v0.35938c-0.51562 0.03125-1.2031 0.0625-1.8281 0.35938-0.75 0.34375-1 0.85938-1 1.2969 0 0.8125 0.96875 1.0625 1.5938 1.0625 0.65625 0 1.1094-0.40625 1.2969-0.85938zm-0.0625-1.6406v1c0 0.9375-0.71875 1.2812-1.1719 1.2812-0.48438 0-0.89062-0.34375-0.89062-0.84375 0-0.54688 0.42188-1.375 2.0625-1.4375z"/>
</g>
<g id="v">
<path d="m1.0938-0.75c0 0.4375-0.10938 0.4375-0.78125 0.4375v0.3125c0.35938-0.015625 0.85938-0.03125 1.1406-0.03125 0.25 0 0.76562 0.015625 1.1094 0.03125v-0.3125c-0.67188 0-0.78125 0-0.78125-0.4375v-1.8438c0-1.0312 0.71875-1.5938 1.3438-1.5938 0.64062 0 0.75 0.53125 0.75 1.1094v2.3281c0 0.4375-0.10938 0.4375-0.78125 0.4375v0.3125c0.34375-0.015625 0.85938-0.03125 1.125-0.03125 0.25 0 0.78125 0.015625 1.1094 0.03125v-0.3125c-0.51562 0-0.76562 0-0.76562-0.29688v-1.9062c0-0.85938 0-1.1562-0.3125-1.5156-0.14062-0.17188-0.46875-0.375-1.0469-0.375-0.84375 0-1.2812 0.59375-1.4531 0.98438v-3.5l-1.4375 0.10938v0.3125c0.70312 0 0.78125 0.0625 0.78125 0.5625z"/>
</g>
<g id="af">
<path d="m1.7656-6.9219-1.4375 0.10938v0.3125c0.70312 0 0.78125 0.0625 0.78125 0.5625v5.1875c0 0.4375-0.10938 0.4375-0.78125 0.4375v0.3125c0.32812-0.015625 0.85938-0.03125 1.1094-0.03125s0.73438 0.015625 1.1094 0.03125v-0.3125c-0.67188 0-0.78125 0-0.78125-0.4375z"/>
</g>
<g id="q">
<path d="m2.2656-3.1562h1.6875c1.1875 0 2.2656-0.79688 2.2656-1.7969 0-0.98438-0.98438-1.8594-2.3438-1.8594h-3.5312v0.3125h0.25c0.76562 0 0.78125 0.10938 0.78125 0.46875v5.25c0 0.35938-0.015625 0.46875-0.78125 0.46875h-0.25v0.3125c0.35938-0.03125 1.0938-0.03125 1.4688-0.03125s1.125 0 1.4844 0.03125v-0.3125h-0.25c-0.76562 0-0.78125-0.10938-0.78125-0.46875zm-0.03125-0.25v-2.6875c0-0.34375 0.015625-0.40625 0.48438-0.40625h0.89062c1.5781 0 1.5781 1.0625 1.5781 1.5469 0 0.46875 0 1.5469-1.5781 1.5469z"/>
</g>
<g id="ae">
<path d="m4.6875-2.1406c0-1.2656-0.98438-2.3281-2.1875-2.3281-1.25 0-2.2188 1.0938-2.2188 2.3281 0 1.2969 1.0312 2.25 2.2031 2.25 1.2031 0 2.2031-0.98438 2.2031-2.25zm-2.1875 2c-0.4375 0-0.875-0.20312-1.1406-0.67188-0.25-0.4375-0.25-1.0469-0.25-1.4062 0-0.39062 0-0.92188 0.23438-1.3594 0.26562-0.45312 0.73438-0.67188 1.1406-0.67188 0.4375 0 0.85938 0.21875 1.125 0.65625 0.26562 0.42188 0.26562 1 0.26562 1.375 0 0.35938 0 0.90625-0.21875 1.3438-0.23438 0.45312-0.67188 0.73438-1.1562 0.73438z"/>
</g>
<g id="p">
<path d="m1.7188-3.9844h1.4375v-0.3125h-1.4375v-1.8281h-0.25c0 0.8125-0.29688 1.875-1.2812 1.9219v0.21875h0.84375v2.75c0 1.2188 0.9375 1.3438 1.2969 1.3438 0.70312 0 0.98438-0.70312 0.98438-1.3438v-0.5625h-0.25v0.54688c0 0.73438-0.29688 1.1094-0.67188 1.1094-0.67188 0-0.67188-0.90625-0.67188-1.0781z"/>
</g>
<g id="ad">
<path d="m4.3594-7.0938c0.0625-0.14062 0.0625-0.15625 0.0625-0.1875 0-0.10938-0.09375-0.20312-0.20312-0.20312-0.14062 0-0.1875 0.10938-0.21875 0.20312l-3.3906 9.3906c-0.046875 0.14062-0.046875 0.15625-0.046875 0.1875 0 0.10938 0.078125 0.20312 0.1875 0.20312 0.14062 0 0.1875-0.10938 0.21875-0.20312z"/>
</g>
<g id="ac">
<path d="m6.1719-3.3438c0.17188-0.5 0.48438-0.64062 0.84375-0.64062v-0.3125c-0.23438 0.015625-0.51562 0.03125-0.73438 0.03125-0.29688 0-0.73438-0.015625-0.92188-0.03125v0.3125c0.35938 0 0.57812 0.1875 0.57812 0.46875 0 0.0625 0 0.09375-0.0625 0.21875l-0.90625 2.5469-0.98438-2.7812c-0.03125-0.125-0.046875-0.14062-0.046875-0.1875 0-0.26562 0.39062-0.26562 0.59375-0.26562v-0.3125c-0.29688 0.015625-0.79688 0.03125-1.0469 0.03125-0.29688 0-0.57812-0.015625-0.875-0.03125v0.3125c0.35938 0 0.51562 0.015625 0.625 0.14062 0.046875 0.0625 0.15625 0.35938 0.21875 0.54688l-0.84375 2.4219-0.95312-2.6562c-0.046875-0.125-0.046875-0.14062-0.046875-0.1875 0-0.26562 0.39062-0.26562 0.57812-0.26562v-0.3125c-0.29688 0.015625-0.85938 0.03125-1.0781 0.03125-0.046875 0-0.57812-0.015625-0.9375-0.03125v0.3125c0.5 0 0.625 0.03125 0.75 0.34375l1.25 3.5312c0.046875 0.14062 0.078125 0.21875 0.20312 0.21875 0.14062 0 0.15625-0.0625 0.20312-0.20312l1.0156-2.8125 1.0156 2.8281c0.03125 0.10938 0.0625 0.1875 0.20312 0.1875 0.125 0 0.15625-0.09375 0.1875-0.1875z"/>
</g>
<g id="o">
<path d="m1.7656-4.4062-1.3906 0.10938v0.3125c0.64062 0 0.73438 0.0625 0.73438 0.54688v2.6875c0 0.4375-0.10938 0.4375-0.78125 0.4375v0.3125c0.3125-0.015625 0.85938-0.03125 1.0938-0.03125 0.35938 0 0.70312 0.015625 1.0469 0.03125v-0.3125c-0.67188 0-0.70312-0.046875-0.70312-0.4375zm0.03125-1.7344c0-0.3125-0.23438-0.53125-0.51562-0.53125-0.3125 0-0.53125 0.26562-0.53125 0.53125s0.21875 0.53125 0.53125 0.53125c0.28125 0 0.51562-0.21875 0.51562-0.53125z"/>
</g>
<g id="ab">
<path d="m3.8906-0.78125v0.89062l1.4375-0.10938v-0.3125c-0.6875 0-0.76562-0.0625-0.76562-0.5625v-3.5312l-1.4688 0.10938v0.3125c0.6875 0 0.78125 0.0625 0.78125 0.5625v1.7656c0 0.875-0.48438 1.5469-1.2188 1.5469-0.82812 0-0.875-0.46875-0.875-0.98438v-3.3125l-1.4688 0.10938v0.3125c0.78125 0 0.78125 0.03125 0.78125 0.90625v1.5c0 0.78125 0 1.6875 1.5156 1.6875 0.5625 0 1-0.28125 1.2812-0.89062z"/>
</g>
<g id="aa">
<path d="m4.4688-3.9844h1.1406v-0.3125h-1.1719v-1.1562c0-0.89062 0.48438-1.3594 0.92188-1.3594 0.03125 0 0.1875 0 0.32812 0.078125-0.10938 0.03125-0.29688 0.17188-0.29688 0.42188 0 0.21875 0.15625 0.42188 0.4375 0.42188s0.4375-0.20312 0.4375-0.4375c0-0.35938-0.35938-0.70312-0.90625-0.70312-0.59375 0-1.0312 0.375-1.0781 0.42188-0.29688-0.375-0.85938-0.42188-1.125-0.42188-0.9375 0-2.0938 0.51562-2.0938 1.5938v1.1406h-0.79688v0.3125h0.79688v3.2344c0 0.4375-0.10938 0.4375-0.78125 0.4375v0.3125c0.32812-0.015625 0.85938-0.03125 1.1094-0.03125s0.73438 0.015625 1.1094 0.03125v-0.3125c-0.67188 0-0.78125 0-0.78125-0.4375v-3.2344h2.0938v3.2344c0 0.4375-0.10938 0.4375-0.78125 0.4375v0.3125c0.39062-0.015625 0.85938-0.03125 1.1406-0.03125 0.39062 0 0.85938 0 1.2656 0.03125v-0.3125h-0.21875c-0.73438 0-0.75-0.10938-0.75-0.46875zm-2.7812-0.3125v-1.125c0-0.96875 0.8125-1.3906 1.4688-1.3906 0.48438 0 0.76562 0.1875 0.76562 0.1875v0.015625c-0.15625 0.015625-0.35938 0.15625-0.35938 0.42188 0 0.0625 0 0.3125 0.28125 0.40625-0.03125 0.125-0.03125 0.21875-0.03125 0.34375v1.1406z"/>
</g>
<g id="z">
<path d="m6.6406-6.75h-6.0938l-0.1875 2.25h0.25c0.14062-1.6094 0.28125-1.9375 1.7969-1.9375 0.17188 0 0.4375 0 0.53125 0.015625 0.21875 0.046875 0.21875 0.15625 0.21875 0.375v5.2656c0 0.32812 0 0.46875-1.0469 0.46875h-0.40625v0.3125c0.40625-0.03125 1.4219-0.03125 1.8906-0.03125 0.45312 0 1.4844 0 1.8906 0.03125v-0.3125h-0.40625c-1.0469 0-1.0469-0.14062-1.0469-0.46875v-5.2656c0-0.1875 0-0.32812 0.1875-0.375 0.10938-0.015625 0.375-0.015625 0.5625-0.015625 1.5156 0 1.6562 0.32812 1.7969 1.9375h0.25z"/>
</g>
<g id="y">
<path d="m1.7188-3.7656v-3.1562l-1.4375 0.10938v0.3125c0.70312 0 0.78125 0.0625 0.78125 0.5625v5.9375h0.25c0-0.015625 0.078125-0.15625 0.35938-0.625 0.14062 0.23438 0.5625 0.73438 1.2969 0.73438 1.1875 0 2.2188-0.98438 2.2188-2.2656 0-1.2656-0.96875-2.25-2.1094-2.25-0.78125 0-1.2031 0.46875-1.3594 0.64062zm0.03125 2.625v-2.0469c0-0.1875 0-0.20312 0.10938-0.35938 0.39062-0.5625 0.9375-0.64062 1.1719-0.64062 0.45312 0 0.8125 0.26562 1.0469 0.64062 0.26562 0.40625 0.28125 0.96875 0.28125 1.3906 0 0.35938-0.015625 0.95312-0.29688 1.4062-0.21875 0.3125-0.59375 0.64062-1.125 0.64062-0.45312 0-0.8125-0.23438-1.0469-0.60938-0.14062-0.20312-0.14062-0.23438-0.14062-0.42188z"/>
</g>
<clipPath id="bj">
<path d="m48 134h84v26h-84z"/>
</clipPath>
<clipPath id="bi">
<path d="m0.52734 188.95h399v-190h-399zm51.133-51.445 0.28516-0.22656 4.1641 2.7227-1.8711 0.39844-0.79297 1.7578z" clip-rule="evenodd"/>
</clipPath>
<clipPath id="be">
<path d="m182 101h46v22h-46z"/>
</clipPath>
<clipPath id="bd">
<path d="m0.52734 188.95h399v-190h-399zm185.46-69.02-0.37109-0.14453 0.28516-4.9609 1.2734 1.3906 1.9023-0.19922z" clip-rule="evenodd"/>
</clipPath>
<clipPath id="bc">
<path d="m48 6h180v52h-180z"/>
</clipPath>
<clipPath id="bb">
<path d="m0.52734 188.95h399v-190h-399zm223.87-134.31-0.28516 0.22656-4.1406-2.75 1.875-0.39453 0.79297-1.7305z" clip-rule="evenodd"/>
</clipPath>
<clipPath id="ba">
<path d="m182 121h46v14h-46z"/>
</clipPath>
<clipPath id="az">
<path d="m0.52734 188.95h399v-190h-399zm223.67-64.43 0.19922 0.3125-3.0898 3.8828-0.23047-1.8711-1.6719-0.96094z" clip-rule="evenodd"/>
</clipPath>
<clipPath id="ay">
<path d="m0.52734 137h370.47v39h-370.47z"/>
</clipPath>
<clipPath id="ax">
<path d="m281 60h52v97h-52z"/>
</clipPath>
<clipPath id="bh">
<path d="m0.52734 188.95h399v-190h-399zm332.25-96.266v0.39844l-4.7344 1.5 0.85156-1.6992-0.85156-1.7031z" clip-rule="evenodd"/>
</clipPath>
<clipPath id="bg">
<path d="m55 44h96v20h-96z"/>
</clipPath>
<clipPath id="bf">
<path d="m0.52734 188.95h399v-190h-399zm147.32-128.02-0.19922 0.30859-4.7891-1.3008 1.6133-0.96484 0.22656-1.8711z" clip-rule="evenodd"/>
</clipPath>
</defs>
<g clip-path="url(#bj)">
<g clip-path="url(#bi)">
<path transform="matrix(.1 0 0 -.1 .528 188.95)" d="m1279.3 514.15c-90.352-120.43-232.15-191.33-382.73-191.33-150.59 0-292.38 70.898-382.73 191.33" fill="none" stroke="#000" stroke-miterlimit="10" stroke-width="2.1262"/>
</g>
</g>
<path d="m56.109 140-3.9961-2.2383 1.332 4.3945 0.79297-1.7578 1.8711-0.39844" fill-rule="evenodd"/>
<path transform="matrix(.1 0 0 -.1 .528 188.95)" d="m555.81 489.5-39.961 22.383 13.32-43.945 7.9297 17.578z" fill="none" stroke="#000" stroke-miterlimit="10" stroke-width="2.1262"/>
<g clip-path="url(#be)">
<g clip-path="url(#bd)">
<path transform="matrix(.1 0 0 -.1 .528 188.95)" d="m2236.1 756.57c-40.039 57.812-105.94 92.305-176.29 92.305-95.977 0-180.31-63.75-206.41-156.09" fill="none" stroke="#000" stroke-miterlimit="10" stroke-width="2.1262"/>
</g>
</g>
<path d="m185.9 114.82 0.085937 4.5664 3.0898-3.375-1.9023 0.19922-1.2734-1.3906" fill-rule="evenodd"/>
<path transform="matrix(.1 0 0 -.1 .528 188.95)" d="m1853.7 741.26 0.85938-45.664 30.898 33.75-19.023-1.9922z" fill="none" stroke="#000" stroke-miterlimit="10" stroke-width="2.1262"/>
<g clip-path="url(#bc)">
<g clip-path="url(#bb)">
<path transform="matrix(.1 0 0 -.1 .528 188.95)" d="m513.86 1471c216.41 206.91 504.26 322.38 803.63 322.38 359.26 0 698.4-166.09 918.63-449.96" fill="none" stroke="#000" stroke-miterlimit="10" stroke-width="2.1262"/>
</g>
</g>
<path d="m219.97 52.109 3.9688 2.2695-1.3008-4.3945-0.79297 1.7305-1.875 0.39453" fill-rule="evenodd"/>
<path transform="matrix(.1 0 0 -.1 .528 188.95)" d="m2194.4 1368.4 39.688-22.695-13.008 43.945-7.9297-17.305z" fill="none" stroke="#000" stroke-miterlimit="10" stroke-width="2.1262"/>
<g clip-path="url(#ba)">
<g clip-path="url(#az)">
<path transform="matrix(.1 0 0 -.1 .528 188.95)" d="m1853.4 641.73c55.234-41.406 122.38-63.789 191.37-63.789 69.023 0 136.17 22.383 191.37 63.789" fill="none" stroke="#000" stroke-miterlimit="10" stroke-width="2.1262"/>
</g>
</g>
<path d="m221.31 128.71 2.5781-3.7695-4.4805 0.9375 1.6719 0.96094 0.23047 1.8711" fill-rule="evenodd"/>
<path transform="matrix(.1 0 0 -.1 .528 188.95)" d="m2207.8 602.35 25.781 37.695-44.805-9.375 16.719-9.6094z" fill="none" stroke="#000" stroke-miterlimit="10" stroke-width="2.1262"/>
<path transform="matrix(.1 0 0 -.1 .528 188.95)" d="m1088 514.15h765.47v956.84h-765.47z" fill="none" stroke="#000" stroke-miterlimit="10" stroke-width="2.1262"/>
<path transform="matrix(.1 0 0 -.1 .528 188.95)" d="m1215.5 577.94h510.31v127.58h-510.31z" fill="none" stroke="#000" stroke-miterlimit="10" stroke-width="2.1262"/>
<path transform="matrix(.1 0 0 -.1 .528 188.95)" d="m1215.5 769.3h510.31v127.58h-510.31z" fill="none" stroke="#000" stroke-miterlimit="10" stroke-width="2.1262"/>
<path transform="matrix(.1 0 0 -.1 .528 188.95)" d="m1215.5 960.67h510.31v127.58h-510.31z" fill="none" stroke="#000" stroke-miterlimit="10" stroke-width="2.1262"/>
<path transform="matrix(.1 0 0 -.1 .528 188.95)" d="m1215.5 1152h510.31v127.58h-510.31z" fill="none" stroke="#000" stroke-miterlimit="10" stroke-width="2.1262"/>
<path transform="matrix(.1 0 0 -.1 .528 188.95)" d="m2236.1 514.15h701.68v956.84h-701.68z" fill="none" stroke="#000" stroke-miterlimit="10" stroke-width="2.1262"/>
<path transform="matrix(.1 0 0 -.1 .528 188.95)" d="m2363.7 1152h446.52v255.16h-446.52z" fill="none" stroke="#000" stroke-miterlimit="10" stroke-width="2.1262"/>
<path transform="matrix(.1 0 0 -.1 .528 188.95)" d="m3320.5 514.15h574.1v956.84h-574.1z" fill="none" stroke="#000" stroke-miterlimit="10" stroke-width="2.1262"/>
<path transform="matrix(.1 0 0 -.1 .528 188.95)" d="m131.17 514.15h574.06v956.84h-574.06z" fill="none" stroke="#000" stroke-miterlimit="10" stroke-width="2.1262"/>
<path transform="matrix(.1 0 0 -.1 .528 188.95)" d="m3320.5 896.88h574.1v191.37h-574.1z" fill="#ccc" fill-rule="evenodd" stroke="#000" stroke-miterlimit="10" stroke-width="2.1262"/>
<g clip-path="url(#ay)">
<path transform="matrix(.1 0 0 -.1 .528 188.95)" d="m3.5872 259.03h318.91v255.12h127.58v-255.12h956.84v255.12h191.37v-255.12h893.01v255.12h127.58v-255.12h956.84v255.12h127.54v-382.7h-3699.6z" fill="none" stroke="#000" stroke-miterlimit="10" stroke-width="2.1262"/>
</g>
<path transform="matrix(.1 0 0 -.1 .528 188.95)" d="m194.95 1088.2h446.48v255.16h-446.48z" fill="none" stroke="#000" stroke-miterlimit="10" stroke-width="2.1262"/>
<g clip-path="url(#ax)">
<g clip-path="url(#bh)">
<path transform="matrix(.1 0 0 -.1 .528 188.95)" d="m2810.2 1279.6h63.789v-956.8h318.95v637.85h127.54" fill="none" stroke="#000" stroke-miterlimit="10" stroke-width="2.1262"/>
</g>
</g>
<path d="m328.04 94.578 4.2539-1.6992-4.2539-1.7031 0.85156 1.7031-0.85156 1.6992" fill-rule="evenodd"/>
<path transform="matrix(.1 0 0 -.1 .528 188.95)" d="m3275.1 943.68 42.539 16.992-42.539 17.031 8.5156-17.031z" fill="none" stroke="#000" stroke-miterlimit="10" stroke-width="2.1262"/>
<g clip-path="url(#bg)">
<g clip-path="url(#bf)">
<path transform="matrix(.1 0 0 -.1 .528 188.95)" d="m577.65 1279.6c131.6 89.844 287.19 137.93 446.52 137.93 159.34 0 314.92-48.086 446.52-137.93" fill="none" stroke="#000" stroke-miterlimit="10" stroke-width="2.1262"/>
</g>
</g>
<path d="m142.86 59.938 4.4805 0.87891-2.6406-3.7148-0.22656 1.8711-1.6133 0.96484" fill-rule="evenodd"/>
<path transform="matrix(.1 0 0 -.1 .528 188.95)" d="m1423.4 1290.1 44.805-8.7891-26.406 37.148-2.2656-18.711z" fill="none" stroke="#000" stroke-miterlimit="10" stroke-width="2.1262"/>
<g>
<use x="203.547" y="142.592" xlink:href="#aw"/>
<use x="108.39" y="35.424" xlink:href="#as"/>
<use x="116.723461" y="35.424" xlink:href="#ah"/>
<use x="126.723833" y="35.424" xlink:href="#ag"/>
<use x="134.905658" y="35.424" xlink:href="#s"/>
<use x="138.541661" y="35.424" xlink:href="#i"/>
<use x="146.420214" y="35.424" xlink:href="#g"/>
<use x="151.874764" y="35.424" xlink:href="#h"/>
<use x="157.630405" y="35.424" xlink:href="#c"/>
<use x="161.872954" y="35.424" xlink:href="#f"/>
<use x="166.146048" y="35.424" xlink:href="#g"/>
<use x="171.600598" y="35.424" xlink:href="#e"/>
<use x="174.631146" y="35.424" xlink:href="#e"/>
<use x="177.661694" y="35.424" xlink:href="#d"/>
<use x="182.509698" y="35.424" xlink:href="#f"/>
<use x="130.775" y="71.147" xlink:href="#r"/>
<use x="138.24695" y="71.147" xlink:href="#n"/>
<use x="143.782171" y="71.147" xlink:href="#b"/>
<use x="147.684521" y="71.147" xlink:href="#a"/>
<use x="152.1119" y="71.147" xlink:href="#m"/>
<use x="156.04115" y="71.147" xlink:href="#m"/>
<use x="159.970399" y="71.147" xlink:href="#a"/>
<use x="132.228" y="89.008" xlink:href="#r"/>
<use x="139.69995" y="89.008" xlink:href="#x"/>
<use x="145.235171" y="89.008" xlink:href="#w"/>
<use x="149.66255" y="89.008" xlink:href="#l"/>
<use x="154.64385" y="89.008" xlink:href="#v"/>
<use x="160.179071" y="89.008" xlink:href="#af"/>
<use x="137.956" y="109.421" xlink:href="#q"/>
<use x="144.457593" y="109.421" xlink:href="#ae"/>
<use x="149.438893" y="109.421" xlink:href="#b"/>
<use x="153.341243" y="109.421" xlink:href="#p"/>
<use x="124.59" y="128.558" xlink:href="#b"/>
<use x="128.49235" y="128.558" xlink:href="#a"/>
<use x="132.91973" y="128.558" xlink:href="#l"/>
<use x="137.90103" y="128.558" xlink:href="#n"/>
<use x="143.43625" y="128.558" xlink:href="#ad"/>
<use x="148.41755" y="128.558" xlink:href="#ac"/>
<use x="155.61254" y="128.558" xlink:href="#b"/>
<use x="159.514891" y="128.558" xlink:href="#o"/>
<use x="162.282501" y="128.558" xlink:href="#p"/>
<use x="166.156956" y="128.558" xlink:href="#a"/>
<use x="246.63" y="63.492" xlink:href="#q"/>
<use x="253.410546" y="63.492" xlink:href="#ab"/>
<use x="258.945766" y="63.492" xlink:href="#aa"/>
<use x="264.756951" y="63.492" xlink:href="#a"/>
<use x="269.18433" y="63.492" xlink:href="#b"/>
<use x="330.338" y="35.424" xlink:href="#av"/>
<use x="338.519825" y="35.424" xlink:href="#u"/>
<use x="343.974375" y="35.424" xlink:href="#t"/>
<use x="350.035471" y="35.424" xlink:href="#k"/>
<use x="356.096567" y="35.424" xlink:href="#c"/>
<use x="360.339116" y="35.424" xlink:href="#j"/>
<use x="364.641665" y="35.424" xlink:href="#k"/>
<use x="371.008216" y="35.424" xlink:href="#d"/>
<use x="375.85622" y="35.424" xlink:href="#au"/>
<use x="378.886768" y="35.424" xlink:href="#at"/>
<use x="383.429317" y="35.424" xlink:href="#ar"/>
<use x="389.490413" y="35.424" xlink:href="#d"/>
<use x="394.338417" y="35.424" xlink:href="#f"/>
<use x="183.195" y="188.521" xlink:href="#aq"/>
<use x="190.921916" y="188.521" xlink:href="#t"/>
<use x="196.983011" y="188.521" xlink:href="#j"/>
<use x="27.401" y="35.424" xlink:href="#i"/>
<use x="35.279552" y="35.424" xlink:href="#ap"/>
<use x="42.704285" y="35.424" xlink:href="#ao"/>
<use x="27.169" y="69.871" xlink:href="#z"/>
<use x="33.537094" y="69.871" xlink:href="#b"/>
<use x="37.439444" y="69.871" xlink:href="#a"/>
<use x="41.866824" y="69.871" xlink:href="#o"/>
<use x="44.634434" y="69.871" xlink:href="#y"/>
<use x="50.438645" y="69.871" xlink:href="#a"/>
<use x="54.866024" y="69.871" xlink:href="#b"/>
<use x="91.276" y="46.906" xlink:href="#an"/>
<use x="87.448" y="155.35" xlink:href="#am"/>
<use x="209.698" y="35.424" xlink:href="#al"/>
<use x="215.914005" y="35.424" xlink:href="#d"/>
<use x="220.762009" y="35.424" xlink:href="#j"/>
<use x="225.064558" y="35.424" xlink:href="#c"/>
<use x="229.307107" y="35.424" xlink:href="#k"/>
<use x="235.368203" y="35.424" xlink:href="#e"/>
<use x="238.398751" y="35.424" xlink:href="#u"/>
<use x="243.853301" y="35.424" xlink:href="#c"/>
<use x="248.09585" y="35.424" xlink:href="#c"/>
<use x="252.338399" y="35.424" xlink:href="#d"/>
<use x="257.186403" y="35.424" xlink:href="#h"/>
<use x="263.247499" y="35.424" xlink:href="#s"/>
<use x="266.883502" y="35.424" xlink:href="#i"/>
<use x="274.762054" y="35.424" xlink:href="#g"/>
<use x="280.216604" y="35.424" xlink:href="#h"/>
<use x="285.972245" y="35.424" xlink:href="#c"/>
<use x="290.214794" y="35.424" xlink:href="#f"/>
<use x="294.487889" y="35.424" xlink:href="#g"/>
<use x="299.942439" y="35.424" xlink:href="#e"/>
<use x="302.972987" y="35.424" xlink:href="#e"/>
<use x="306.003535" y="35.424" xlink:href="#d"/>
<use x="310.851539" y="35.424" xlink:href="#f"/>
<use x="203.547" y="101.766" xlink:href="#ak"/>
<use x="304.336" y="155.35" xlink:href="#aj"/>
<use x="137.205" y="7.356" xlink:href="#ai"/>
</g>
</svg>
