<svg width="398pt" height="226pt" version="1.1" viewBox="0 0 398 226" xmlns="http://www.w3.org/2000/svg" xmlns:xlink="http://www.w3.org/1999/xlink">
<defs>
<g id="r">
<path d="m5.9531-4.5312c-0.25-1.4375-1.0781-2.1406-2.5312-2.1406-0.875 0-1.5781 0.28125-2.0781 0.82812-0.59375 0.64062-0.90625 1.5781-0.90625 2.6406 0 1.0781 0.32812 2 0.9375 2.6406 0.51562 0.53125 1.1562 0.76562 2.0156 0.76562 1.6094 0 2.5-0.85938 2.7031-2.5938h-0.85938c-0.078125 0.45312-0.17188 0.75-0.29688 1.0156-0.28125 0.53125-0.82812 0.84375-1.5312 0.84375-1.3125 0-2.1406-1.0469-2.1406-2.6875 0-1.6719 0.78125-2.7188 2.0625-2.7188 0.53125 0 1.0312 0.15625 1.2969 0.42188 0.25 0.21875 0.375 0.5 0.48438 0.98438z"/>
</g>
<g id="i">
<path d="m2.4531-4.8438c-1.3438 0-2.125 0.9375-2.125 2.5156 0 1.5938 0.78125 2.5312 2.125 2.5312 1.3281 0 2.1406-0.9375 2.1406-2.4844 0-1.6406-0.78125-2.5625-2.1406-2.5625zm0 0.6875c0.84375 0 1.3594 0.6875 1.3594 1.8594 0 1.125-0.53125 1.8125-1.3594 1.8125s-1.3438-0.6875-1.3438-1.8438c0-1.1406 0.51562-1.8281 1.3438-1.8281z"/>
</g>
<g id="e">
<path d="m0.625-4.7188v4.7188h0.76562v-2.5938c0-0.96875 0.5-1.5938 1.2656-1.5938 0.60938 0 0.98438 0.35938 0.98438 0.92188v3.2656h0.75v-3.5625c0-0.78125-0.59375-1.2812-1.5-1.2812-0.70312 0-1.1562 0.26562-1.5625 0.92188v-0.79688z"/>
</g>
<g id="c">
<path d="m2.2812-4.7188h-0.76562v-1.2969h-0.75v1.2969h-0.64062v0.60938h0.64062v3.5625c0 0.5 0.32812 0.75 0.90625 0.75 0.20312 0 0.35938-0.015625 0.60938-0.0625v-0.625c-0.10938 0.03125-0.20312 0.03125-0.35938 0.03125-0.3125 0-0.40625-0.09375-0.40625-0.42188v-3.2344h0.76562z"/>
</g>
<g id="b">
<path d="m0.625-4.7188v4.7188h0.75v-2.4531c0.015625-1.125 0.48438-1.6406 1.5156-1.6094v-0.76562c-0.125-0.015625-0.20312-0.015625-0.29688-0.015625-0.48438 0-0.84375 0.28125-1.2812 0.98438v-0.85938z"/>
</g>
<g id="d">
<path d="m1.375-6.5625h-0.76562v6.5625h0.76562z"/>
</g>
<g id="a">
<path d="m4.6094-2.1094c0-0.71875-0.046875-1.1562-0.1875-1.5-0.29688-0.78125-1.0156-1.2344-1.9062-1.2344-1.3125 0-2.1562 0.98438-2.1562 2.5469s0.8125 2.5 2.1406 2.5c1.0781 0 1.8281-0.60938 2.0156-1.6406h-0.75c-0.20312 0.625-0.64062 0.95312-1.2344 0.95312-0.48438 0-0.89062-0.21875-1.1406-0.60938-0.17188-0.28125-0.23438-0.54688-0.25-1.0156zm-3.4531-0.60938c0.0625-0.875 0.59375-1.4375 1.3594-1.4375s1.2969 0.59375 1.2969 1.4375z"/>
</g>
<g id="x">
<path d="m0.71875 0h2.9531c0.625 0 1.0781-0.17188 1.4375-0.54688 0.3125-0.34375 0.5-0.8125 0.5-1.3281 0-0.78125-0.35938-1.2656-1.2031-1.5938 0.60938-0.28125 0.90625-0.75 0.90625-1.4219 0-0.48438-0.17188-0.90625-0.51562-1.2188s-0.79688-0.45312-1.4219-0.45312h-2.6562zm0.82812-3.7344v-2.0938h1.625c0.46875 0 0.71875 0.0625 0.95312 0.23438 0.23438 0.1875 0.35938 0.45312 0.35938 0.8125s-0.125 0.625-0.35938 0.8125c-0.23438 0.17188-0.48438 0.23438-0.95312 0.23438zm0 3v-2.2656h2.0469c0.73438 0 1.1719 0.42188 1.1719 1.1406 0 0.70312-0.4375 1.125-1.1719 1.125z"/>
</g>
<g id="h">
<path d="m4.8125-0.4375c-0.078125 0.015625-0.10938 0.015625-0.15625 0.015625-0.26562 0-0.40625-0.14062-0.40625-0.375v-2.7656c0-0.84375-0.60938-1.2812-1.7812-1.2812-0.6875 0-1.2344 0.1875-1.5625 0.54688-0.21875 0.23438-0.29688 0.51562-0.32812 0.96875h0.76562c0.0625-0.5625 0.40625-0.82812 1.1094-0.82812 0.67188 0 1.0469 0.25 1.0469 0.70312v0.1875c-0.015625 0.32812-0.17188 0.45312-0.78125 0.53125-1.0625 0.14062-1.2188 0.17188-1.5156 0.28125-0.54688 0.23438-0.82812 0.65625-0.82812 1.2656 0 0.85938 0.59375 1.3906 1.5469 1.3906 0.59375 0 1.0781-0.20312 1.6094-0.6875 0.046875 0.48438 0.28125 0.6875 0.76562 0.6875 0.17188 0 0.26562-0.015625 0.51562-0.078125zm-1.3125-1.0469c0 0.25-0.078125 0.40625-0.29688 0.60938-0.3125 0.28125-0.67188 0.42188-1.1094 0.42188-0.59375 0-0.9375-0.28125-0.9375-0.75 0-0.5 0.32812-0.75 1.1406-0.85938 0.79688-0.10938 0.95312-0.15625 1.2031-0.26562z"/>
</g>
<g id="w">
<path d="m4.4531-6.5625h-0.75v2.4375c-0.3125-0.46875-0.8125-0.71875-1.4375-0.71875-1.2344 0-2.0312 0.96875-2.0312 2.4844 0 1.5781 0.78125 2.5625 2.0469 2.5625 0.65625 0 1.1094-0.23438 1.5-0.82812v0.625h0.67188zm-2.0625 2.4062c0.79688 0 1.3125 0.71875 1.3125 1.8594 0 1.0781-0.51562 1.7969-1.3125 1.7969-0.82812 0-1.375-0.71875-1.375-1.8281 0-1.0938 0.54688-1.8281 1.375-1.8281z"/>
</g>
<g id="m">
<path d="m4.8906-2.4062h-4.5312v0.64062h4.5312z"/>
</g>
<g id="ab">
<path d="m3.1875-5.8281h2.1562v-0.73438h-5.1562v0.73438h2.1562v5.8281h0.84375z"/>
</g>
<g id="j">
<path d="m0.625-4.7188v4.7188h0.76562v-2.9688c0-0.67188 0.48438-1.2188 1.1094-1.2188 0.54688 0 0.85938 0.32812 0.85938 0.9375v3.25h0.76562v-2.9688c0-0.67188 0.48438-1.2188 1.1094-1.2188 0.54688 0 0.875 0.34375 0.875 0.9375v3.25h0.75v-3.5312c0-0.85938-0.48438-1.3125-1.375-1.3125-0.625 0-1 0.1875-1.4375 0.71875-0.28125-0.51562-0.65625-0.71875-1.2812-0.71875s-1.0469 0.23438-1.4375 0.79688v-0.67188z"/>
</g>
<g id="f">
<path d="m1.3438-4.7188h-0.73438v4.7188h0.73438zm0-1.8438h-0.75v0.95312h0.75z"/>
</g>
<g id="z">
<path d="m1.6562-2.7812h2.0625c0.51562 0 0.92188-0.15625 1.2656-0.46875 0.39062-0.35938 0.5625-0.78125 0.5625-1.3906 0-1.2344-0.71875-1.9219-2.0156-1.9219h-2.7188v6.5625h0.84375zm0-0.73438v-2.3125h1.75c0.79688 0 1.2812 0.4375 1.2812 1.1562s-0.48438 1.1562-1.2812 1.1562z"/>
</g>
<g id="ah">
<path d="m2.5625 0 1.8125-4.7188h-0.84375l-1.3281 3.8281-1.2656-3.8281h-0.84375l1.6562 4.7188z"/>
</g>
<g id="y">
<path d="m4.9844 0 1.3906-4.7188h-0.84375l-0.9375 3.6719-0.9375-3.6719h-0.90625l-0.90625 3.6719-0.96875-3.6719h-0.82812l1.375 4.7188h0.84375l0.90625-3.7031 0.95312 3.7031z"/>
</g>
<g id="k">
<path d="m4.3438 0v-4.7188h-0.75v2.6719c0 0.96875-0.5 1.5938-1.2969 1.5938-0.59375 0-0.96875-0.35938-0.96875-0.92188v-3.3438h-0.75v3.6406c0 0.78125 0.59375 1.2812 1.5156 1.2812 0.6875 0 1.125-0.23438 1.5625-0.85938v0.65625z"/>
</g>
<g id="q">
<path d="m3.6406-4.7188v0.6875c-0.375-0.5625-0.79688-0.8125-1.3906-0.8125-1.1406 0-1.9375 1.0625-1.9375 2.5625 0 0.79688 0.1875 1.375 0.59375 1.8438 0.35938 0.42188 0.79688 0.64062 1.2969 0.64062 0.5625 0 0.96875-0.25 1.3594-0.84375v0.25c0 1.25-0.34375 1.7188-1.2812 1.7188-0.64062 0-0.96875-0.25-1.0469-0.78125h-0.76562c0.078125 0.85938 0.76562 1.4219 1.7969 1.4219 0.6875 0 1.2656-0.23438 1.5625-0.60938 0.35938-0.4375 0.5-1.0312 0.5-2.1406v-3.9375zm-1.3125 0.5625c0.78125 0 1.2344 0.67188 1.2344 1.8594 0 1.1406-0.45312 1.8125-1.2344 1.8125s-1.2344-0.67188-1.2344-1.8438c0-1.1406 0.45312-1.8281 1.2344-1.8281z"/>
</g>
<g id="p">
<path d="m0.48438-6.5625v6.5625h0.67188v-0.60938c0.35938 0.5625 0.84375 0.8125 1.5 0.8125 1.2344 0 2.0469-1.0156 2.0469-2.5781 0-1.5312-0.76562-2.4688-2.0156-2.4688-0.64062 0-1.1094 0.23438-1.4531 0.76562v-2.4844zm2.0625 2.4062c0.84375 0 1.375 0.73438 1.375 1.8594 0 1.0781-0.5625 1.7969-1.375 1.7969-0.79688 0-1.3125-0.71875-1.3125-1.8281 0-1.0938 0.51562-1.8281 1.3125-1.8281z"/>
</g>
<g id="ag">
<path d="m1.6406-2.9844h3.5781v-0.73438h-3.5781v-2.1094h3.7188v-0.73438h-4.5469v6.5625h4.7031v-0.73438h-3.875z"/>
</g>
<g id="af">
<path d="m2.0625-6.5625-2.1406 6.75h0.5l2.1406-6.75z"/>
</g>
<g id="ae">
<path d="m4.2656-1.9688 0.67188 1.9688h0.9375l-2.2969-6.5625h-1.0781l-2.3438 6.5625h0.89062l0.6875-1.9688zm-0.23438-0.70312h-2.0938l1.0938-2.9844z"/>
</g>
<g id="g">
<path d="m3.9375-3.4062c0-0.92188-0.60938-1.4375-1.7031-1.4375s-1.8125 0.5625-1.8125 1.4375c0 0.73438 0.375 1.0781 1.5 1.3594l0.70312 0.17188c0.51562 0.125 0.71875 0.3125 0.71875 0.64062 0 0.45312-0.4375 0.75-1.0938 0.75-0.40625 0-0.75-0.125-0.9375-0.3125-0.10938-0.14062-0.17188-0.28125-0.21875-0.60938h-0.78125c0.03125 1.0938 0.64062 1.6094 1.875 1.6094 1.1875 0 1.9375-0.57812 1.9375-1.4844 0-0.70312-0.39062-1.0938-1.3281-1.3125l-0.71875-0.17188c-0.60938-0.15625-0.875-0.34375-0.875-0.6875 0-0.4375 0.39062-0.70312 1-0.70312s0.92188 0.26562 0.95312 0.75z"/>
</g>
<g id="v">
<path d="m2.125-6.5625c-0.90625 1.1875-1.4688 2.8125-1.4688 4.2344s0.5625 3.0625 1.4688 4.2344h0.5c-0.79688-1.2812-1.2344-2.7969-1.2344-4.2344s0.4375-2.9531 1.2344-4.2344z"/>
</g>
<g id="ad">
<path d="m3.9844-4.7188h-3.5156v0.65625h2.625l-2.8125 3.3906v0.67188h3.8281v-0.65625h-2.9219l2.7969-3.3906z"/>
</g>
<g id="n">
<path d="m4.2344-3.125c-0.03125-0.46875-0.125-0.76562-0.3125-1.0312-0.32812-0.4375-0.89062-0.6875-1.5469-0.6875-1.2812 0-2.0938 1-2.0938 2.5625 0 1.5312 0.8125 2.4844 2.0781 2.4844 1.125 0 1.8438-0.67188 1.9375-1.8281h-0.76562c-0.125 0.76562-0.5 1.1406-1.1406 1.1406-0.82812 0-1.3281-0.67188-1.3281-1.7969 0-1.1719 0.48438-1.875 1.2969-1.875 0.64062 0 1.0312 0.375 1.125 1.0312z"/>
</g>
<g id="l">
<path d="m0.625-6.5625v6.5625h0.75v-2.5938c0-0.96875 0.5-1.5938 1.2812-1.5938 0.25 0 0.48438 0.0625 0.67188 0.20312 0.20312 0.15625 0.29688 0.39062 0.29688 0.71875v3.2656h0.75v-3.5625c0-0.79688-0.5625-1.2812-1.4844-1.2812-0.67188 0-1.0781 0.20312-1.5156 0.78125v-2.5z"/>
</g>
<g id="u">
<path d="m0.84375 1.9062c0.89062-1.1719 1.4531-2.8125 1.4531-4.2344s-0.5625-3.0469-1.4531-4.2344h-0.5c0.79688 1.2812 1.2344 2.7969 1.2344 4.2344s-0.4375 2.9531-1.2344 4.2344z"/>
</g>
<g id="ao">
<path d="m4.9531-2.9844v2.9844h0.84375v-6.5625h-0.84375v2.8438h-3.375v-2.8438h-0.82812v6.5625h0.82812v-2.9844z"/>
</g>
<g id="o">
<path d="m0.48438 1.9688h0.75v-2.4688c0.40625 0.48438 0.84375 0.70312 1.4531 0.70312 1.2344 0 2.0156-0.98438 2.0156-2.4844 0-1.5781-0.76562-2.5625-2.0156-2.5625-0.64062 0-1.1562 0.28125-1.5156 0.84375v-0.71875h-0.6875zm2.0781-6.125c0.82812 0 1.3594 0.73438 1.3594 1.8594 0 1.0781-0.54688 1.7969-1.3594 1.7969s-1.3281-0.71875-1.3281-1.8281c0-1.0938 0.51562-1.8281 1.3281-1.8281z"/>
</g>
<g id="an">
<path d="m3.5312 0 2.2812-6.5625h-0.90625l-1.8125 5.5469-1.9219-5.5469h-0.90625l2.3594 6.5625z"/>
</g>
<g id="s">
<path d="m5.3594-4.6406c0-0.4375-0.015625-0.57812-0.17188-0.875-0.35938-0.75-1.125-1.1562-2.2188-1.1562-1.4531 0-2.3438 0.73438-2.3438 1.9219 0 0.8125 0.42188 1.3125 1.2969 1.5312l1.625 0.4375c0.84375 0.21875 1.2031 0.54688 1.2031 1.0625 0 0.34375-0.1875 0.70312-0.46875 0.90625-0.26562 0.1875-0.67188 0.28125-1.2031 0.28125-0.71875 0-1.2031-0.17188-1.5156-0.54688-0.23438-0.29688-0.34375-0.60938-0.34375-1.0156h-0.78125c0 0.60938 0.125 1 0.375 1.3594 0.45312 0.625 1.2188 0.9375 2.2188 0.9375 0.78125 0 1.4219-0.17188 1.8438-0.5 0.4375-0.34375 0.71875-0.9375 0.71875-1.5 0-0.8125-0.51562-1.4062-1.4062-1.6562l-1.6406-0.4375c-0.79688-0.21875-1.0781-0.46875-1.0781-0.96875 0-0.67188 0.57812-1.1094 1.4688-1.1094 1.0469 0 1.625 0.46875 1.6406 1.3281z"/>
</g>
<g id="am">
<path d="m4.9688-6.5625v4.6094c0 0.875-0.64062 1.4219-1.6875 1.4219-0.48438 0-0.89062-0.10938-1.2031-0.34375-0.32812-0.25-0.46875-0.57812-0.46875-1.0781v-4.6094h-0.84375v4.6094c0 1.3281 0.95312 2.1562 2.5156 2.1562 1.5312 0 2.5312-0.84375 2.5312-2.1562v-4.6094z"/>
</g>
<g id="aa">
<path d="m1.2656-6.5625h-0.75v6.5625h0.75v-1.8438l0.73438-0.71875 1.5938 2.5625h0.92188l-1.9219-3.0938 1.6406-1.625h-0.96875l-2 2z"/>
</g>
<g id="al">
<path d="m0.79688 0h2.5312c1.6562 0 2.6719-1.2344 2.6719-3.2812 0-2.0312-1-3.2812-2.6719-3.2812h-2.5312zm0.84375-0.73438v-5.0938h1.5469c1.2969 0 1.9844 0.875 1.9844 2.5469s-0.6875 2.5469-1.9844 2.5469z"/>
</g>
<g id="t">
<path d="m3.4844-4.7188-1.2969 3.6719-1.2031-3.6719h-0.79688l1.5781 4.7344-0.28125 0.75c-0.125 0.32812-0.28125 0.45312-0.60938 0.45312-0.125 0-0.23438-0.015625-0.39062-0.046875v0.67188c0.15625 0.078125 0.3125 0.125 0.5 0.125 0.25 0 0.51562-0.09375 0.70312-0.23438 0.23438-0.17188 0.375-0.35938 0.51562-0.75l2.0938-5.7031z"/>
</g>
<g id="ak">
<path d="m4.8125-0.4375c-0.078125 0.015625-0.10938 0.015625-0.15625 0.015625-0.26562 0-0.40625-0.14062-0.40625-0.375v-2.7656c0-0.84375-0.60938-1.2812-1.7812-1.2812-0.6875 0-1.2344 0.1875-1.5625 0.54688-0.21875 0.23438-0.29688 0.51562-0.32812 0.96875h0.76562c0.0625-0.5625 0.40625-0.82812 1.1094-0.82812 0.67188 0 1.0469 0.25 1.0469 0.70312v0.1875c-0.015625 0.32812-0.17188 0.45312-0.78125 0.53125-1.0625 0.14062-1.2188 0.17188-1.5156 0.28125-0.54688 0.23438-0.82812 0.65625-0.82812 1.2656 0 0.85938 0.59375 1.3906 1.5469 1.3906 0.59375 0 1.0781-0.20312 1.6094-0.6875 0.046875 0.48438 0.28125 0.6875 0.76562 0.6875 0.17188 0 0.26562-0.015625 0.51562-0.078125zm-1.3125-1.0469c0 0.25-0.078125 0.40625-0.29688 0.60938-0.3125 0.28125-0.67188 0.42188-1.1094 0.42188-0.59375 0-0.9375-0.28125-0.9375-0.75 0-0.5 0.32812-0.75 1.1406-0.85938 0.79688-0.10938 0.95312-0.15625 1.2031-0.26562zm-1.2969-4.9531h-0.9375v0.92188h0.9375zm1.4531 0h-0.9375v0.92188h0.9375z"/>
</g>
<g id="aj">
<path d="m1.75-6.5625h-0.84375v6.5625h0.84375z"/>
</g>
<g id="ac">
<path d="m2.3281-4.7188h-0.79688v-0.73438c0-0.3125 0.17188-0.48438 0.53125-0.48438 0.0625 0 0.09375 0 0.26562 0.015625v-0.625c-0.17188-0.03125-0.28125-0.046875-0.42188-0.046875-0.70312 0-1.1094 0.40625-1.1094 1.0781v0.79688h-0.64062v0.60938h0.64062v4.1094h0.73438v-4.1094h0.79688z"/>
</g>
<g id="ai">
<path d="m1.5469-2.2969 1.0781-1.0625 2.3125 3.3594h0.98438l-2.7031-3.8906 2.6719-2.6719h-1.0781l-3.2656 3.3281v-3.3281h-0.82812v6.5625h0.82812z"/>
</g>
<clipPath id="bb">
<path d="m0.52734 72h396.47v91h-396.47z"/>
</clipPath>
<clipPath id="ba">
<path d="m0.52734 72h397v91h-397z"/>
</clipPath>
<clipPath id="aw">
<path d="m0.52734 162h396.47v19h-396.47z"/>
</clipPath>
<clipPath id="av">
<path d="m0.52734 162h397v19h-397z"/>
</clipPath>
<clipPath id="au">
<path d="m0.52734 0h396.47v19h-396.47z"/>
</clipPath>
<clipPath id="at">
<path d="m0.52734 0h397v19h-397z"/>
</clipPath>
<clipPath id="as">
<path d="m0.52734 54h396.47v19h-396.47z"/>
</clipPath>
<clipPath id="ar">
<path d="m0.52734 54h397v19h-397z"/>
</clipPath>
<clipPath id="aq">
<path d="m72 198h56v27.945h-56z"/>
</clipPath>
<clipPath id="ap">
<path d="m171 198h56v27.945h-56z"/>
</clipPath>
<clipPath id="az">
<path d="m9 198h56v27.945h-56z"/>
</clipPath>
<clipPath id="ay">
<path d="m0.52734 18h397v37h-397z"/>
</clipPath>
<clipPath id="ax">
<path d="m279 198h56v27.945h-56z"/>
</clipPath>
</defs>
<g clip-path="url(#bb)">
<path d="m0.92969 162.54h396v-90h-396z" fill="#d8d8d8" fill-rule="evenodd"/>
</g>
<g clip-path="url(#ba)">
<path transform="matrix(.1 0 0 -.1 .528 225.94)" d="m4.0169 634.01h3960v900h-3960z" fill="none" stroke="#000" stroke-miterlimit="10" stroke-width="2.25"/>
</g>
<g clip-path="url(#aw)">
<path d="m0.92969 180.54h396v-18h-396z" fill="#a5a5a5" fill-rule="evenodd"/>
</g>
<g clip-path="url(#av)">
<path transform="matrix(.1 0 0 -.1 .528 225.94)" d="m4.0169 454.01h3960v180h-3960z" fill="none" stroke="#000" stroke-miterlimit="10" stroke-width="2.25"/>
</g>
<g clip-path="url(#au)">
<path d="m0.92969 18.543h396v-18h-396z" fill="#a5a5a5" fill-rule="evenodd"/>
</g>
<g clip-path="url(#at)">
<path transform="matrix(.1 0 0 -.1 .528 225.94)" d="m4.0169 2074h3960v180h-3960z" fill="none" stroke="#000" stroke-miterlimit="10" stroke-width="2.25"/>
</g>
<g clip-path="url(#as)">
<path d="m0.92969 72.543h396v-18h-396z" fill="#a5a5a5" fill-rule="evenodd"/>
</g>
<g clip-path="url(#ar)">
<path transform="matrix(.1 0 0 -.1 .528 225.94)" d="m4.0169 1534h3960v180h-3960z" fill="none" stroke="#000" stroke-miterlimit="10" stroke-width="2.25"/>
</g>
<g clip-path="url(#aq)">
<path transform="matrix(.1 0 0 -.1 .528 225.94)" d="m724.02 4.0103h540v270h-540z" fill="none" stroke="#000" stroke-miterlimit="10" stroke-width="2.25"/>
</g>
<path transform="matrix(.1 0 0 -.1 .528 225.94)" d="m994.02 274.01v180" fill="none" stroke="#000" stroke-miterlimit="10" stroke-width="2.25"/>
<g>
<use x="80.6659" y="219.90416" xlink:href="#r"/>
<use x="87.1639" y="219.90416" xlink:href="#i"/>
<use x="92.1679" y="219.90416" xlink:href="#e"/>
<use x="97.1719" y="219.90416" xlink:href="#c"/>
<use x="99.6739" y="219.90416" xlink:href="#b"/>
<use x="102.6709" y="219.90416" xlink:href="#i"/>
<use x="107.6749" y="219.90416" xlink:href="#d"/>
<use x="109.6729" y="219.90416" xlink:href="#d"/>
<use x="111.6709" y="219.90416" xlink:href="#a"/>
<use x="116.6749" y="219.90416" xlink:href="#b"/>
<use x="87.00301" y="210.244" xlink:href="#x"/>
<use x="93.00601" y="210.244" xlink:href="#h"/>
<use x="98.01001" y="210.244" xlink:href="#e"/>
<use x="103.01401" y="210.244" xlink:href="#w"/>
<use x="108.01801" y="210.244" xlink:href="#m"/>
</g>
<g clip-path="url(#ap)">
<path transform="matrix(.1 0 0 -.1 .528 225.94)" d="m1714 4.0103h540v270h-540z" fill="none" stroke="#000" stroke-miterlimit="10" stroke-width="2.25"/>
</g>
<path transform="matrix(.1 0 0 -.1 .528 225.94)" d="m1984 274.01v180" fill="none" stroke="#000" stroke-miterlimit="10" stroke-width="2.25"/>
<g>
<use x="179.426" y="219.694" xlink:href="#r"/>
<use x="185.924" y="219.694" xlink:href="#i"/>
<use x="190.928" y="219.694" xlink:href="#e"/>
<use x="195.932" y="219.694" xlink:href="#c"/>
<use x="198.434" y="219.694" xlink:href="#b"/>
<use x="201.431" y="219.694" xlink:href="#i"/>
<use x="206.435" y="219.694" xlink:href="#d"/>
<use x="208.433" y="219.694" xlink:href="#d"/>
<use x="210.431" y="219.694" xlink:href="#a"/>
<use x="215.435" y="219.694" xlink:href="#b"/>
<use x="179.010766" y="209.794" xlink:href="#ab"/>
<use x="184.509766" y="209.794" xlink:href="#a"/>
<use x="189.513766" y="209.794" xlink:href="#b"/>
<use x="192.510766" y="209.794" xlink:href="#j"/>
<use x="200.007766" y="209.794" xlink:href="#f"/>
<use x="202.005766" y="209.794" xlink:href="#e"/>
<use x="207.009766" y="209.794" xlink:href="#h"/>
<use x="212.013766" y="209.794" xlink:href="#d"/>
<use x="214.011766" y="209.794" xlink:href="#m"/>
</g>
<g clip-path="url(#az)">
<path transform="matrix(.1 0 0 -.1 .528 225.94)" d="m94.017 4.0103h540v270h-540z" fill="none" stroke="#000" stroke-miterlimit="10" stroke-width="2.25"/>
</g>
<path transform="matrix(.1 0 0 -.1 .528 225.94)" d="m364.02 274.01v180" fill="none" stroke="#000" stroke-miterlimit="10" stroke-width="2.25"/>
<g>
<use x="17.6659" y="219.90416" xlink:href="#r"/>
<use x="24.1639" y="219.90416" xlink:href="#i"/>
<use x="29.1679" y="219.90416" xlink:href="#e"/>
<use x="34.1719" y="219.90416" xlink:href="#c"/>
<use x="36.6739" y="219.90416" xlink:href="#b"/>
<use x="39.6709" y="219.90416" xlink:href="#i"/>
<use x="44.6749" y="219.90416" xlink:href="#d"/>
<use x="46.6729" y="219.90416" xlink:href="#d"/>
<use x="48.6709" y="219.90416" xlink:href="#a"/>
<use x="53.6749" y="219.90416" xlink:href="#b"/>
<use x="20.50223" y="210.244" xlink:href="#z"/>
<use x="26.50523" y="210.244" xlink:href="#d"/>
<use x="28.50323" y="210.244" xlink:href="#h"/>
<use x="33.50723" y="210.244" xlink:href="#c"/>
<use x="36.00923" y="210.244" xlink:href="#c"/>
<use x="38.51123" y="210.244" xlink:href="#a"/>
<use x="43.51523" y="210.244" xlink:href="#e"/>
<use x="48.51923" y="210.244" xlink:href="#m"/>
<use x="130.52823" y="126.094" xlink:href="#ab"/>
<use x="136.02723" y="126.094" xlink:href="#a"/>
<use x="141.03123" y="126.094" xlink:href="#b"/>
<use x="144.02823" y="126.094" xlink:href="#j"/>
<use x="151.52523" y="126.094" xlink:href="#f"/>
<use x="153.52323" y="126.094" xlink:href="#e"/>
<use x="158.52723" y="126.094" xlink:href="#h"/>
<use x="163.53123" y="126.094" xlink:href="#d"/>
<use x="165.52923" y="126.094" xlink:href="#ah"/>
<use x="170.02923" y="126.094" xlink:href="#a"/>
<use x="175.03323" y="126.094" xlink:href="#b"/>
<use x="178.03023" y="126.094" xlink:href="#y"/>
<use x="184.52823" y="126.094" xlink:href="#h"/>
<use x="189.53223" y="126.094" xlink:href="#d"/>
<use x="191.53023" y="126.094" xlink:href="#c"/>
<use x="194.03223" y="126.094" xlink:href="#k"/>
<use x="199.03623" y="126.094" xlink:href="#e"/>
<use x="204.04023" y="126.094" xlink:href="#q"/>
<use x="130.52823" y="136.894" xlink:href="#ab"/>
<use x="136.02723" y="136.894" xlink:href="#a"/>
<use x="141.03123" y="136.894" xlink:href="#b"/>
<use x="144.02823" y="136.894" xlink:href="#j"/>
<use x="151.52523" y="136.894" xlink:href="#f"/>
<use x="153.52323" y="136.894" xlink:href="#e"/>
<use x="158.52723" y="136.894" xlink:href="#h"/>
<use x="163.53123" y="136.894" xlink:href="#d"/>
<use x="165.52923" y="136.894" xlink:href="#c"/>
<use x="168.03123" y="136.894" xlink:href="#b"/>
<use x="171.02823" y="136.894" xlink:href="#a"/>
<use x="176.03223" y="136.894" xlink:href="#f"/>
<use x="178.03023" y="136.894" xlink:href="#p"/>
<use x="183.03423" y="136.894" xlink:href="#a"/>
<use x="188.03823" y="136.894" xlink:href="#b"/>
<use x="130.52823" y="115.294" xlink:href="#ag"/>
<use x="136.53123" y="115.294" xlink:href="#f"/>
<use x="138.52923" y="115.294" xlink:href="#e"/>
<use x="143.53323" y="115.294" xlink:href="#m"/>
<use x="148.78923" y="115.294" xlink:href="#af"/>
<use x="151.29123" y="115.294" xlink:href="#ae"/>
<use x="157.29423" y="115.294" xlink:href="#k"/>
<use x="162.29823" y="115.294" xlink:href="#g"/>
<use x="166.79823" y="115.294" xlink:href="#q"/>
<use x="171.80223" y="115.294" xlink:href="#h"/>
<use x="176.80623" y="115.294" xlink:href="#p"/>
<use x="181.81023" y="115.294" xlink:href="#a"/>
<use x="186.81423" y="115.294" xlink:href="#glyph-0-25"/>
<use x="189.31623" y="115.294" xlink:href="#v"/>
<use x="192.31323" y="115.294" xlink:href="#ad"/>
<use x="196.81323" y="115.294" xlink:href="#a"/>
<use x="201.81723" y="115.294" xlink:href="#f"/>
<use x="203.81523" y="115.294" xlink:href="#n"/>
<use x="208.31523" y="115.294" xlink:href="#l"/>
<use x="213.31923" y="115.294" xlink:href="#a"/>
<use x="218.32323" y="115.294" xlink:href="#e"/>
<use x="223.32723" y="115.294" xlink:href="#y"/>
<use x="229.82523" y="115.294" xlink:href="#a"/>
<use x="234.82923" y="115.294" xlink:href="#f"/>
<use x="236.82723" y="115.294" xlink:href="#g"/>
<use x="241.32723" y="115.294" xlink:href="#a"/>
<use x="246.33123" y="115.294" xlink:href="#u"/>
<use x="261.92823" y="117.544" xlink:href="#ao"/>
<use x="268.42623" y="117.544" xlink:href="#h"/>
<use x="273.43023" y="117.544" xlink:href="#k"/>
<use x="278.43423" y="117.544" xlink:href="#o"/>
<use x="283.43823" y="117.544" xlink:href="#c"/>
<use x="285.94023" y="117.544" xlink:href="#g"/>
<use x="290.44023" y="117.544" xlink:href="#o"/>
<use x="295.44423" y="117.544" xlink:href="#a"/>
<use x="300.44823" y="117.544" xlink:href="#f"/>
<use x="302.44623" y="117.544" xlink:href="#n"/>
<use x="306.94623" y="117.544" xlink:href="#l"/>
<use x="311.95023" y="117.544" xlink:href="#a"/>
<use x="316.95423" y="117.544" xlink:href="#b"/>
<use x="319.95123" y="117.544" xlink:href="#m"/>
<use x="261.92823" y="139.144" xlink:href="#an"/>
<use x="267.93123" y="139.144" xlink:href="#f"/>
<use x="269.92923" y="139.144" xlink:href="#b"/>
<use x="272.92623" y="139.144" xlink:href="#c"/>
<use x="275.42823" y="139.144" xlink:href="#k"/>
<use x="280.43223" y="139.144" xlink:href="#a"/>
<use x="285.43623" y="139.144" xlink:href="#d"/>
<use x="287.43423" y="139.144" xlink:href="#d"/>
<use x="289.43223" y="139.144" xlink:href="#a"/>
<use x="294.43623" y="139.144" xlink:href="#b"/>
<use x="297.43323" y="139.144" xlink:href="#glyph-0-25"/>
<use x="299.93523" y="139.144" xlink:href="#s"/>
<use x="305.93823" y="139.144" xlink:href="#o"/>
<use x="310.94223" y="139.144" xlink:href="#a"/>
<use x="315.94623" y="139.144" xlink:href="#f"/>
<use x="317.94423" y="139.144" xlink:href="#n"/>
<use x="322.44423" y="139.144" xlink:href="#l"/>
<use x="327.44823" y="139.144" xlink:href="#a"/>
<use x="332.45223" y="139.144" xlink:href="#b"/>
<use x="271.82823" y="128.344" xlink:href="#ah"/>
<use x="276.32823" y="128.344" xlink:href="#a"/>
<use x="281.33223" y="128.344" xlink:href="#b"/>
<use x="284.32923" y="128.344" xlink:href="#y"/>
<use x="290.82723" y="128.344" xlink:href="#h"/>
<use x="295.83123" y="128.344" xlink:href="#d"/>
<use x="297.82923" y="128.344" xlink:href="#c"/>
<use x="300.33123" y="128.344" xlink:href="#k"/>
<use x="305.33523" y="128.344" xlink:href="#e"/>
<use x="310.33923" y="128.344" xlink:href="#q"/>
<use x="349.22823" y="128.344" xlink:href="#s"/>
<use x="355.23123" y="128.344" xlink:href="#n"/>
<use x="359.73123" y="128.344" xlink:href="#l"/>
<use x="364.73523" y="128.344" xlink:href="#a"/>
<use x="369.73923" y="128.344" xlink:href="#w"/>
<use x="374.74323" y="128.344" xlink:href="#k"/>
<use x="379.74723" y="128.344" xlink:href="#d"/>
<use x="381.74523" y="128.344" xlink:href="#a"/>
<use x="386.74923" y="128.344" xlink:href="#b"/>
<use x="356.42823" y="117.544" xlink:href="#r"/>
<use x="362.92623" y="117.544" xlink:href="#z"/>
<use x="368.92923" y="117.544" xlink:href="#am"/>
<use x="375.42723" y="117.544" xlink:href="#m"/>
<use x="9.92823" y="117.544" xlink:href="#ag"/>
<use x="15.93123" y="117.544" xlink:href="#f"/>
<use x="17.92923" y="117.544" xlink:href="#e"/>
<use x="22.93323" y="117.544" xlink:href="#m"/>
<use x="28.18923" y="117.544" xlink:href="#af"/>
<use x="30.69123" y="117.544" xlink:href="#ae"/>
<use x="36.69423" y="117.544" xlink:href="#k"/>
<use x="41.69823" y="117.544" xlink:href="#g"/>
<use x="46.19823" y="117.544" xlink:href="#q"/>
<use x="51.20223" y="117.544" xlink:href="#h"/>
<use x="56.20623" y="117.544" xlink:href="#p"/>
<use x="61.21023" y="117.544" xlink:href="#a"/>
<use x="66.21423" y="117.544" xlink:href="#glyph-0-25"/>
<use x="68.71623" y="117.544" xlink:href="#v"/>
<use x="71.71323" y="117.544" xlink:href="#p"/>
<use x="76.71723" y="117.544" xlink:href="#d"/>
<use x="78.71523" y="117.544" xlink:href="#i"/>
<use x="83.71923" y="117.544" xlink:href="#n"/>
<use x="88.21923" y="117.544" xlink:href="#aa"/>
<use x="92.71923" y="117.544" xlink:href="#y"/>
<use x="99.21723" y="117.544" xlink:href="#a"/>
<use x="104.22123" y="117.544" xlink:href="#f"/>
<use x="106.21923" y="117.544" xlink:href="#g"/>
<use x="110.71923" y="117.544" xlink:href="#a"/>
<use x="115.72323" y="117.544" xlink:href="#u"/>
<use x="9.92823" y="128.344" xlink:href="#al"/>
<use x="16.42623" y="128.344" xlink:href="#h"/>
<use x="21.43023" y="128.344" xlink:href="#c"/>
<use x="23.93223" y="128.344" xlink:href="#a"/>
<use x="28.93623" y="128.344" xlink:href="#f"/>
<use x="30.93423" y="128.344" xlink:href="#g"/>
<use x="35.43423" y="128.344" xlink:href="#t"/>
<use x="39.93423" y="128.344" xlink:href="#g"/>
<use x="44.43423" y="128.344" xlink:href="#c"/>
<use x="46.93623" y="128.344" xlink:href="#a"/>
<use x="51.94023" y="128.344" xlink:href="#j"/>
<use x="59.43723" y="128.344" xlink:href="#a"/>
<use x="9.92823" y="139.144" xlink:href="#z"/>
<use x="15.93123" y="139.144" xlink:href="#d"/>
<use x="17.92923" y="139.144" xlink:href="#h"/>
<use x="22.93323" y="139.144" xlink:href="#c"/>
<use x="25.43523" y="139.144" xlink:href="#c"/>
<use x="27.93723" y="139.144" xlink:href="#a"/>
<use x="32.94123" y="139.144" xlink:href="#e"/>
<use x="37.94523" y="139.144" xlink:href="#m"/>
<use x="43.20123" y="139.144" xlink:href="#glyph-0-25"/>
<use x="45.70323" y="139.144" xlink:href="#k"/>
<use x="50.70723" y="139.144" xlink:href="#e"/>
<use x="55.71123" y="139.144" xlink:href="#w"/>
<use x="60.71523" y="139.144" xlink:href="#glyph-0-25"/>
<use x="63.21723" y="139.144" xlink:href="#x"/>
<use x="69.22023" y="139.144" xlink:href="#h"/>
<use x="74.22423" y="139.144" xlink:href="#e"/>
<use x="79.22823" y="139.144" xlink:href="#w"/>
<use x="84.23223" y="139.144" xlink:href="#m"/>
<use x="24.32823" y="149.944" xlink:href="#q"/>
<use x="29.33223" y="149.944" xlink:href="#a"/>
<use x="34.33623" y="149.944" xlink:href="#b"/>
<use x="37.33323" y="149.944" xlink:href="#ak"/>
<use x="42.33723" y="149.944" xlink:href="#c"/>
<use x="44.83923" y="149.944" xlink:href="#a"/>
<use x="49.84323" y="149.944" xlink:href="#c"/>
<use x="52.34523" y="149.944" xlink:href="#b"/>
<use x="55.34223" y="149.944" xlink:href="#a"/>
<use x="60.34623" y="149.944" xlink:href="#f"/>
<use x="62.34423" y="149.944" xlink:href="#p"/>
<use x="67.34823" y="149.944" xlink:href="#a"/>
<use x="72.35223" y="149.944" xlink:href="#b"/>
</g>
<g clip-path="url(#ay)">
<path transform="matrix(.1 0 0 -.1 .528 225.94)" d="m4.0169 1714h3960v360h-3960z" fill="none" stroke="#000" stroke-miterlimit="10" stroke-width="2.25"/>
</g>
<g>
<use x="178.17" y="45.094" xlink:href="#aj"/>
<use x="180.672" y="45.094" xlink:href="#e"/>
<use x="185.676" y="45.094" xlink:href="#c"/>
<use x="188.178" y="45.094" xlink:href="#a"/>
<use x="193.182" y="45.094" xlink:href="#b"/>
<use x="196.179" y="45.094" xlink:href="#o"/>
<use x="201.183" y="45.094" xlink:href="#b"/>
<use x="204.18" y="45.094" xlink:href="#a"/>
<use x="209.184" y="45.094" xlink:href="#c"/>
<use x="211.686" y="45.094" xlink:href="#a"/>
<use x="216.69" y="45.094" xlink:href="#b"/>
<use x="301.665" y="40.144" xlink:href="#s"/>
<use x="307.668" y="40.144" xlink:href="#t"/>
<use x="312.168" y="40.144" xlink:href="#g"/>
<use x="316.668" y="40.144" xlink:href="#c"/>
<use x="319.17" y="40.144" xlink:href="#a"/>
<use x="324.174" y="40.144" xlink:href="#j"/>
<use x="331.671" y="40.144" xlink:href="#p"/>
<use x="336.675" y="40.144" xlink:href="#f"/>
<use x="338.673" y="40.144" xlink:href="#p"/>
<use x="343.677" y="40.144" xlink:href="#d"/>
<use x="345.675" y="40.144" xlink:href="#f"/>
<use x="347.673" y="40.144" xlink:href="#i"/>
<use x="352.677" y="40.144" xlink:href="#c"/>
<use x="355.179" y="40.144" xlink:href="#l"/>
<use x="360.183" y="40.144" xlink:href="#a"/>
<use x="365.187" y="40.144" xlink:href="#aa"/>
<use x="369.687" y="40.144" xlink:href="#a"/>
<use x="374.691" y="40.144" xlink:href="#e"/>
<use x="117.513" y="67.144" xlink:href="#z"/>
<use x="123.516" y="67.144" xlink:href="#b"/>
<use x="126.513" y="67.144" xlink:href="#i"/>
<use x="131.517" y="67.144" xlink:href="#q"/>
<use x="136.521" y="67.144" xlink:href="#b"/>
<use x="139.518" y="67.144" xlink:href="#h"/>
<use x="144.522" y="67.144" xlink:href="#j"/>
<use x="152.019" y="67.144" xlink:href="#j"/>
<use x="159.516" y="67.144" xlink:href="#f"/>
<use x="161.514" y="67.144" xlink:href="#a"/>
<use x="166.518" y="67.144" xlink:href="#b"/>
<use x="169.515" y="67.144" xlink:href="#g"/>
<use x="174.015" y="67.144" xlink:href="#n"/>
<use x="178.515" y="67.144" xlink:href="#l"/>
<use x="183.519" y="67.144" xlink:href="#e"/>
<use x="188.523" y="67.144" xlink:href="#f"/>
<use x="190.521" y="67.144" xlink:href="#c"/>
<use x="193.023" y="67.144" xlink:href="#c"/>
<use x="195.525" y="67.144" xlink:href="#g"/>
<use x="200.025" y="67.144" xlink:href="#c"/>
<use x="202.527" y="67.144" xlink:href="#a"/>
<use x="207.531" y="67.144" xlink:href="#d"/>
<use x="209.529" y="67.144" xlink:href="#d"/>
<use x="211.527" y="67.144" xlink:href="#a"/>
<use x="216.531" y="67.144" xlink:href="#glyph-0-25"/>
<use x="219.033" y="67.144" xlink:href="#v"/>
<use x="222.03" y="67.144" xlink:href="#s"/>
<use x="228.033" y="67.144" xlink:href="#t"/>
<use x="232.533" y="67.144" xlink:href="#g"/>
<use x="237.033" y="67.144" xlink:href="#c"/>
<use x="239.535" y="67.144" xlink:href="#a"/>
<use x="244.539" y="67.144" xlink:href="#j"/>
<use x="252.036" y="67.144" xlink:href="#h"/>
<use x="257.04" y="67.144" xlink:href="#k"/>
<use x="262.044" y="67.144" xlink:href="#ac"/>
<use x="264.546" y="67.144" xlink:href="#b"/>
<use x="267.543" y="67.144" xlink:href="#k"/>
<use x="272.547" y="67.144" xlink:href="#ac"/>
<use x="275.049" y="67.144" xlink:href="#a"/>
<use x="280.053" y="67.144" xlink:href="#u"/>
<use x="116.05948" y="13.144" xlink:href="#x"/>
<use x="122.06248" y="13.144" xlink:href="#a"/>
<use x="127.06648" y="13.144" xlink:href="#e"/>
<use x="132.07048" y="13.144" xlink:href="#k"/>
<use x="137.07448" y="13.144" xlink:href="#c"/>
<use x="139.57648" y="13.144" xlink:href="#ad"/>
<use x="144.07648" y="13.144" xlink:href="#a"/>
<use x="149.08048" y="13.144" xlink:href="#b"/>
<use x="152.07748" y="13.144" xlink:href="#g"/>
<use x="156.57748" y="13.144" xlink:href="#n"/>
<use x="161.07748" y="13.144" xlink:href="#l"/>
<use x="166.08148" y="13.144" xlink:href="#e"/>
<use x="171.08548" y="13.144" xlink:href="#f"/>
<use x="173.08348" y="13.144" xlink:href="#c"/>
<use x="175.58548" y="13.144" xlink:href="#c"/>
<use x="178.08748" y="13.144" xlink:href="#g"/>
<use x="182.58748" y="13.144" xlink:href="#c"/>
<use x="185.08948" y="13.144" xlink:href="#a"/>
<use x="190.09348" y="13.144" xlink:href="#d"/>
<use x="192.09148" y="13.144" xlink:href="#d"/>
<use x="194.08948" y="13.144" xlink:href="#a"/>
<use x="199.09348" y="13.144" xlink:href="#glyph-0-25"/>
<use x="201.59548" y="13.144" xlink:href="#v"/>
<use x="204.59248" y="13.144" xlink:href="#s"/>
<use x="210.59548" y="13.144" xlink:href="#t"/>
<use x="215.09548" y="13.144" xlink:href="#g"/>
<use x="219.59548" y="13.144" xlink:href="#c"/>
<use x="222.09748" y="13.144" xlink:href="#a"/>
<use x="227.10148" y="13.144" xlink:href="#j"/>
<use x="234.59848" y="13.144" xlink:href="#o"/>
<use x="239.60248" y="13.144" xlink:href="#b"/>
<use x="242.59948" y="13.144" xlink:href="#i"/>
<use x="247.60348" y="13.144" xlink:href="#q"/>
<use x="252.60748" y="13.144" xlink:href="#b"/>
<use x="255.60448" y="13.144" xlink:href="#h"/>
<use x="260.60848" y="13.144" xlink:href="#j"/>
<use x="268.10548" y="13.144" xlink:href="#j"/>
<use x="275.60248" y="13.144" xlink:href="#a"/>
<use x="280.60648" y="13.144" xlink:href="#u"/>
<use x="19.06498" y="40.144" xlink:href="#ai"/>
<use x="25.06798" y="40.144" xlink:href="#i"/>
<use x="30.07198" y="40.144" xlink:href="#j"/>
<use x="37.56898" y="40.144" xlink:href="#j"/>
<use x="45.06598" y="40.144" xlink:href="#h"/>
<use x="50.06998" y="40.144" xlink:href="#e"/>
<use x="55.07398" y="40.144" xlink:href="#w"/>
<use x="60.07798" y="40.144" xlink:href="#i"/>
<use x="65.08198" y="40.144" xlink:href="#f"/>
<use x="67.07998" y="40.144" xlink:href="#e"/>
<use x="72.08398" y="40.144" xlink:href="#c"/>
<use x="74.58598" y="40.144" xlink:href="#a"/>
<use x="79.58998" y="40.144" xlink:href="#b"/>
<use x="82.58698" y="40.144" xlink:href="#o"/>
<use x="87.59098" y="40.144" xlink:href="#b"/>
<use x="90.58798" y="40.144" xlink:href="#a"/>
<use x="95.59198" y="40.144" xlink:href="#c"/>
<use x="98.09398" y="40.144" xlink:href="#a"/>
<use x="103.09798" y="40.144" xlink:href="#b"/>
<use x="106.09498" y="40.144" xlink:href="#glyph-0-25"/>
<use x="108.59698" y="40.144" xlink:href="#v"/>
<use x="111.59398" y="40.144" xlink:href="#g"/>
<use x="116.09398" y="40.144" xlink:href="#l"/>
<use x="121.09798" y="40.144" xlink:href="#a"/>
<use x="126.10198" y="40.144" xlink:href="#d"/>
<use x="128.09998" y="40.144" xlink:href="#d"/>
<use x="130.09798" y="40.144" xlink:href="#u"/>
<use x="177.32898" y="36.544" xlink:href="#r"/>
<use x="183.82698" y="36.544" xlink:href="#i"/>
<use x="188.83098" y="36.544" xlink:href="#j"/>
<use x="196.32798" y="36.544" xlink:href="#o"/>
<use x="201.33198" y="36.544" xlink:href="#f"/>
<use x="203.32998" y="36.544" xlink:href="#d"/>
<use x="205.32798" y="36.544" xlink:href="#a"/>
<use x="210.33198" y="36.544" xlink:href="#b"/>
<use x="144.66918" y="173.794" xlink:href="#r"/>
<use x="151.16718" y="173.794" xlink:href="#i"/>
<use x="156.17118" y="173.794" xlink:href="#e"/>
<use x="161.17518" y="173.794" xlink:href="#c"/>
<use x="163.67718" y="173.794" xlink:href="#b"/>
<use x="166.67418" y="173.794" xlink:href="#i"/>
<use x="171.67818" y="173.794" xlink:href="#d"/>
<use x="173.67618" y="173.794" xlink:href="#d"/>
<use x="175.67418" y="173.794" xlink:href="#a"/>
<use x="180.67818" y="173.794" xlink:href="#b"/>
<use x="183.67518" y="173.794" xlink:href="#g"/>
<use x="188.17518" y="173.794" xlink:href="#n"/>
<use x="192.67518" y="173.794" xlink:href="#l"/>
<use x="197.67918" y="173.794" xlink:href="#e"/>
<use x="202.68318" y="173.794" xlink:href="#f"/>
<use x="204.68118" y="173.794" xlink:href="#c"/>
<use x="207.18318" y="173.794" xlink:href="#c"/>
<use x="209.68518" y="173.794" xlink:href="#g"/>
<use x="214.18518" y="173.794" xlink:href="#c"/>
<use x="216.68718" y="173.794" xlink:href="#a"/>
<use x="221.69118" y="173.794" xlink:href="#d"/>
<use x="223.68918" y="173.794" xlink:href="#d"/>
<use x="225.68718" y="173.794" xlink:href="#a"/>
</g>
<g clip-path="url(#ax)">
<path transform="matrix(.1 0 0 -.1 .528 225.94)" d="m2794 4.0103h540v270h-540z" fill="none" stroke="#000" stroke-miterlimit="10" stroke-width="2.25"/>
</g>
<g>
<use x="150.42" y="90.544" xlink:href="#x"/>
<use x="156.423" y="90.544" xlink:href="#a"/>
<use x="161.427" y="90.544" xlink:href="#c"/>
<use x="163.929" y="90.544" xlink:href="#b"/>
<use x="166.926" y="90.544" xlink:href="#f"/>
<use x="168.924" y="90.544" xlink:href="#a"/>
<use x="173.928" y="90.544" xlink:href="#p"/>
<use x="178.932" y="90.544" xlink:href="#g"/>
<use x="183.432" y="90.544" xlink:href="#g"/>
<use x="187.932" y="90.544" xlink:href="#t"/>
<use x="192.432" y="90.544" xlink:href="#g"/>
<use x="196.932" y="90.544" xlink:href="#c"/>
<use x="199.434" y="90.544" xlink:href="#a"/>
<use x="204.438" y="90.544" xlink:href="#j"/>
<use x="211.935" y="90.544" xlink:href="#aa"/>
<use x="216.435" y="90.544" xlink:href="#a"/>
<use x="221.439" y="90.544" xlink:href="#b"/>
<use x="224.436" y="90.544" xlink:href="#e"/>
</g>
<path transform="matrix(.1 0 0 -.1 .528 225.94)" d="m3064 274.01v180" fill="none" stroke="#000" stroke-miterlimit="10" stroke-width="2.25"/>
<g>
<use x="287.426" y="219.90416" xlink:href="#r"/>
<use x="293.924" y="219.90416" xlink:href="#i"/>
<use x="298.928" y="219.90416" xlink:href="#e"/>
<use x="303.932" y="219.90416" xlink:href="#c"/>
<use x="306.434" y="219.90416" xlink:href="#b"/>
<use x="309.431" y="219.90416" xlink:href="#i"/>
<use x="314.435" y="219.90416" xlink:href="#d"/>
<use x="316.433" y="219.90416" xlink:href="#d"/>
<use x="318.431" y="219.90416" xlink:href="#a"/>
<use x="323.435" y="219.90416" xlink:href="#b"/>
<use x="286.993969" y="210.48385" xlink:href="#s"/>
<use x="292.996969" y="210.48385" xlink:href="#o"/>
<use x="298.000969" y="210.48385" xlink:href="#a"/>
<use x="303.004969" y="210.48385" xlink:href="#f"/>
<use x="305.002969" y="210.48385" xlink:href="#n"/>
<use x="309.502969" y="210.48385" xlink:href="#l"/>
<use x="314.506969" y="210.48385" xlink:href="#a"/>
<use x="319.510969" y="210.48385" xlink:href="#b"/>
<use x="322.507969" y="210.48385" xlink:href="#m"/>
</g>
</svg>
