<svg width="345pt" height="202pt" version="1.1" viewBox="0 0 345 202" xmlns="http://www.w3.org/2000/svg" xmlns:xlink="http://www.w3.org/1999/xlink">
<defs>
<g id="y">
<path d="m4.2656-1.9688 0.67188 1.9688h0.9375l-2.2969-6.5625h-1.0781l-2.3438 6.5625h0.89062l0.6875-1.9688zm-0.23438-0.70312h-2.0938l1.0938-2.9844z"/>
</g>
<g id="d">
<path d="m0.625-4.7188v4.7188h0.76562v-2.5938c0-0.96875 0.5-1.5938 1.2656-1.5938 0.60938 0 0.98438 0.35938 0.98438 0.92188v3.2656h0.75v-3.5625c0-0.78125-0.59375-1.2812-1.5-1.2812-0.70312 0-1.1562 0.26562-1.5625 0.92188v-0.79688z"/>
</g>
<g id="u">
<path d="m4.9844 0 1.3906-4.7188h-0.84375l-0.9375 3.6719-0.9375-3.6719h-0.90625l-0.90625 3.6719-0.96875-3.6719h-0.82812l1.375 4.7188h0.84375l0.90625-3.7031 0.95312 3.7031z"/>
</g>
<g id="a">
<path d="m4.6094-2.1094c0-0.71875-0.046875-1.1562-0.1875-1.5-0.29688-0.78125-1.0156-1.2344-1.9062-1.2344-1.3125 0-2.1562 0.98438-2.1562 2.5469s0.8125 2.5 2.1406 2.5c1.0781 0 1.8281-0.60938 2.0156-1.6406h-0.75c-0.20312 0.625-0.64062 0.95312-1.2344 0.95312-0.48438 0-0.89062-0.21875-1.1406-0.60938-0.17188-0.28125-0.23438-0.54688-0.25-1.0156zm-3.4531-0.60938c0.0625-0.875 0.59375-1.4375 1.3594-1.4375s1.2969 0.59375 1.2969 1.4375z"/>
</g>
<g id="t">
<path d="m4.4531-6.5625h-0.75v2.4375c-0.3125-0.46875-0.8125-0.71875-1.4375-0.71875-1.2344 0-2.0312 0.96875-2.0312 2.4844 0 1.5781 0.78125 2.5625 2.0469 2.5625 0.65625 0 1.1094-0.23438 1.5-0.82812v0.625h0.67188zm-2.0625 2.4062c0.79688 0 1.3125 0.71875 1.3125 1.8594 0 1.0781-0.51562 1.7969-1.3125 1.7969-0.82812 0-1.375-0.71875-1.375-1.8281 0-1.0938 0.54688-1.8281 1.375-1.8281z"/>
</g>
<g id="f">
<path d="m4.3438 0v-4.7188h-0.75v2.6719c0 0.96875-0.5 1.5938-1.2969 1.5938-0.59375 0-0.96875-0.35938-0.96875-0.92188v-3.3438h-0.75v3.6406c0 0.78125 0.59375 1.2812 1.5156 1.2812 0.6875 0 1.125-0.23438 1.5625-0.85938v0.65625z"/>
</g>
<g id="m">
<path d="m3.6406-4.7188v0.6875c-0.375-0.5625-0.79688-0.8125-1.3906-0.8125-1.1406 0-1.9375 1.0625-1.9375 2.5625 0 0.79688 0.1875 1.375 0.59375 1.8438 0.35938 0.42188 0.79688 0.64062 1.2969 0.64062 0.5625 0 0.96875-0.25 1.3594-0.84375v0.25c0 1.25-0.34375 1.7188-1.2812 1.7188-0.64062 0-0.96875-0.25-1.0469-0.78125h-0.76562c0.078125 0.85938 0.76562 1.4219 1.7969 1.4219 0.6875 0 1.2656-0.23438 1.5625-0.60938 0.35938-0.4375 0.5-1.0312 0.5-2.1406v-3.9375zm-1.3125 0.5625c0.78125 0 1.2344 0.67188 1.2344 1.8594 0 1.1406-0.45312 1.8125-1.2344 1.8125s-1.2344-0.67188-1.2344-1.8438c0-1.1406 0.45312-1.8281 1.2344-1.8281z"/>
</g>
<g id="e">
<path d="m3.9375-3.4062c0-0.92188-0.60938-1.4375-1.7031-1.4375s-1.8125 0.5625-1.8125 1.4375c0 0.73438 0.375 1.0781 1.5 1.3594l0.70312 0.17188c0.51562 0.125 0.71875 0.3125 0.71875 0.64062 0 0.45312-0.4375 0.75-1.0938 0.75-0.40625 0-0.75-0.125-0.9375-0.3125-0.10938-0.14062-0.17188-0.28125-0.21875-0.60938h-0.78125c0.03125 1.0938 0.64062 1.6094 1.875 1.6094 1.1875 0 1.9375-0.57812 1.9375-1.4844 0-0.70312-0.39062-1.0938-1.3281-1.3125l-0.71875-0.17188c-0.60938-0.15625-0.875-0.34375-0.875-0.6875 0-0.4375 0.39062-0.70312 1-0.70312s0.92188 0.26562 0.95312 0.75z"/>
</g>
<g id="l">
<path d="m4.8906-2.4062h-4.5312v0.64062h4.5312z"/>
</g>
<g id="q">
<path d="m0.71875 0h2.9531c0.625 0 1.0781-0.17188 1.4375-0.54688 0.3125-0.34375 0.5-0.8125 0.5-1.3281 0-0.78125-0.35938-1.2656-1.2031-1.5938 0.60938-0.28125 0.90625-0.75 0.90625-1.4219 0-0.48438-0.17188-0.90625-0.51562-1.2188s-0.79688-0.45312-1.4219-0.45312h-2.6562zm0.82812-3.7344v-2.0938h1.625c0.46875 0 0.71875 0.0625 0.95312 0.23438 0.23438 0.1875 0.35938 0.45312 0.35938 0.8125s-0.125 0.625-0.35938 0.8125c-0.23438 0.17188-0.48438 0.23438-0.95312 0.23438zm0 3v-2.2656h2.0469c0.73438 0 1.1719 0.42188 1.1719 1.1406 0 0.70312-0.4375 1.125-1.1719 1.125z"/>
</g>
<g id="b">
<path d="m2.2812-4.7188h-0.76562v-1.2969h-0.75v1.2969h-0.64062v0.60938h0.64062v3.5625c0 0.5 0.32812 0.75 0.90625 0.75 0.20312 0 0.35938-0.015625 0.60938-0.0625v-0.625c-0.10938 0.03125-0.20312 0.03125-0.35938 0.03125-0.3125 0-0.40625-0.09375-0.40625-0.42188v-3.2344h0.76562z"/>
</g>
<g id="p">
<path d="m3.9844-4.7188h-3.5156v0.65625h2.625l-2.8125 3.3906v0.67188h3.8281v-0.65625h-2.9219l2.7969-3.3906z"/>
</g>
<g id="c">
<path d="m0.625-4.7188v4.7188h0.75v-2.4531c0.015625-1.125 0.48438-1.6406 1.5156-1.6094v-0.76562c-0.125-0.015625-0.20312-0.015625-0.29688-0.015625-0.48438 0-0.84375 0.28125-1.2812 0.98438v-0.85938z"/>
</g>
<g id="x">
<path d="m0.48438 1.9688h0.75v-2.4688c0.40625 0.48438 0.84375 0.70312 1.4531 0.70312 1.2344 0 2.0156-0.98438 2.0156-2.4844 0-1.5781-0.76562-2.5625-2.0156-2.5625-0.64062 0-1.1562 0.28125-1.5156 0.84375v-0.71875h-0.6875zm2.0781-6.125c0.82812 0 1.3594 0.73438 1.3594 1.8594 0 1.0781-0.54688 1.7969-1.3594 1.7969s-1.3281-0.71875-1.3281-1.8281c0-1.0938 0.51562-1.8281 1.3281-1.8281z"/>
</g>
<g id="o">
<path d="m2.4531-4.8438c-1.3438 0-2.125 0.9375-2.125 2.5156 0 1.5938 0.78125 2.5312 2.125 2.5312 1.3281 0 2.1406-0.9375 2.1406-2.4844 0-1.6406-0.78125-2.5625-2.1406-2.5625zm0 0.6875c0.84375 0 1.3594 0.6875 1.3594 1.8594 0 1.125-0.53125 1.8125-1.3594 1.8125s-1.3438-0.6875-1.3438-1.8438c0-1.1406 0.51562-1.8281 1.3438-1.8281z"/>
</g>
<g id="k">
<path d="m4.8125-0.4375c-0.078125 0.015625-0.10938 0.015625-0.15625 0.015625-0.26562 0-0.40625-0.14062-0.40625-0.375v-2.7656c0-0.84375-0.60938-1.2812-1.7812-1.2812-0.6875 0-1.2344 0.1875-1.5625 0.54688-0.21875 0.23438-0.29688 0.51562-0.32812 0.96875h0.76562c0.0625-0.5625 0.40625-0.82812 1.1094-0.82812 0.67188 0 1.0469 0.25 1.0469 0.70312v0.1875c-0.015625 0.32812-0.17188 0.45312-0.78125 0.53125-1.0625 0.14062-1.2188 0.17188-1.5156 0.28125-0.54688 0.23438-0.82812 0.65625-0.82812 1.2656 0 0.85938 0.59375 1.3906 1.5469 1.3906 0.59375 0 1.0781-0.20312 1.6094-0.6875 0.046875 0.48438 0.28125 0.6875 0.76562 0.6875 0.17188 0 0.26562-0.015625 0.51562-0.078125zm-1.3125-1.0469c0 0.25-0.078125 0.40625-0.29688 0.60938-0.3125 0.28125-0.67188 0.42188-1.1094 0.42188-0.59375 0-0.9375-0.28125-0.9375-0.75 0-0.5 0.32812-0.75 1.1406-0.85938 0.79688-0.10938 0.95312-0.15625 1.2031-0.26562z"/>
</g>
<g id="i">
<path d="m0.625-4.7188v4.7188h0.76562v-2.9688c0-0.67188 0.48438-1.2188 1.1094-1.2188 0.54688 0 0.85938 0.32812 0.85938 0.9375v3.25h0.76562v-2.9688c0-0.67188 0.48438-1.2188 1.1094-1.2188 0.54688 0 0.875 0.34375 0.875 0.9375v3.25h0.75v-3.5312c0-0.85938-0.48438-1.3125-1.375-1.3125-0.625 0-1 0.1875-1.4375 0.71875-0.28125-0.51562-0.65625-0.71875-1.2812-0.71875s-1.0469 0.23438-1.4375 0.79688v-0.67188z"/>
</g>
<g id="j">
<path d="m4.2344-3.125c-0.03125-0.46875-0.125-0.76562-0.3125-1.0312-0.32812-0.4375-0.89062-0.6875-1.5469-0.6875-1.2812 0-2.0938 1-2.0938 2.5625 0 1.5312 0.8125 2.4844 2.0781 2.4844 1.125 0 1.8438-0.67188 1.9375-1.8281h-0.76562c-0.125 0.76562-0.5 1.1406-1.1406 1.1406-0.82812 0-1.3281-0.67188-1.3281-1.7969 0-1.1719 0.48438-1.875 1.2969-1.875 0.64062 0 1.0312 0.375 1.125 1.0312z"/>
</g>
<g id="n">
<path d="m0.625-6.5625v6.5625h0.75v-2.5938c0-0.96875 0.5-1.5938 1.2812-1.5938 0.25 0 0.48438 0.0625 0.67188 0.20312 0.20312 0.15625 0.29688 0.39062 0.29688 0.71875v3.2656h0.75v-3.5625c0-0.79688-0.5625-1.2812-1.4844-1.2812-0.67188 0-1.0781 0.20312-1.5156 0.78125v-2.5z"/>
</g>
<g id="h">
<path d="m1.3438-4.7188h-0.73438v4.7188h0.73438zm0-1.8438h-0.75v0.95312h0.75z"/>
</g>
<g id="g">
<path d="m1.375-6.5625h-0.76562v6.5625h0.76562z"/>
</g>
<g id="w">
<path d="m1.6562-2.7812h2.0625c0.51562 0 0.92188-0.15625 1.2656-0.46875 0.39062-0.35938 0.5625-0.78125 0.5625-1.3906 0-1.2344-0.71875-1.9219-2.0156-1.9219h-2.7188v6.5625h0.84375zm0-0.73438v-2.3125h1.75c0.79688 0 1.2812 0.4375 1.2812 1.1562s-0.48438 1.1562-1.2812 1.1562z"/>
</g>
<g id="ag">
<path d="m1.75-6.5625h-0.84375v6.5625h0.84375z"/>
</g>
<g id="af">
<path d="m4.9531-2.9844v2.9844h0.84375v-6.5625h-0.84375v2.8438h-3.375v-2.8438h-0.82812v6.5625h0.82812v-2.9844z"/>
</g>
<g id="ae">
<path d="m0.64062 0h2.6562c0.5625 0 0.98438-0.15625 1.2969-0.5 0.28125-0.29688 0.45312-0.71875 0.45312-1.1875 0-0.70312-0.32812-1.1406-1.0781-1.4219 0.54688-0.25 0.8125-0.6875 0.8125-1.2969 0-0.4375-0.15625-0.8125-0.46875-1.0781-0.3125-0.28125-0.70312-0.42188-1.2812-0.42188h-2.3906zm0.75-3.3594v-1.875h1.4531c0.42188 0 0.65625 0.046875 0.85938 0.20312 0.21875 0.17188 0.32812 0.40625 0.32812 0.73438s-0.10938 0.5625-0.32812 0.73438c-0.20312 0.14062-0.4375 0.20312-0.85938 0.20312zm0 2.7031v-2.0312h1.8438c0.65625 0 1.0625 0.375 1.0625 1.0156 0 0.625-0.40625 1.0156-1.0625 1.0156z"/>
</g>
<g id="s">
<path d="m4.1562-1.8906c0-0.65625-0.046875-1.0469-0.17188-1.3594-0.28125-0.6875-0.92188-1.1094-1.7188-1.1094-1.1875 0-1.9375 0.89062-1.9375 2.2969s0.71875 2.25 1.9219 2.25c0.96875 0 1.6406-0.54688 1.8125-1.4688h-0.67188c-0.1875 0.54688-0.57812 0.84375-1.1094 0.84375-0.4375 0-0.79688-0.1875-1.0312-0.54688-0.15625-0.25-0.21875-0.48438-0.21875-0.90625zm-3.1094-0.54688c0.046875-0.79688 0.53125-1.2969 1.2188-1.2969s1.1562 0.53125 1.1562 1.2969z"/>
</g>
<g id="v">
<path d="m2.0625-4.2344h-0.70312v-1.1719h-0.67188v1.1719h-0.57812v0.54688h0.57812v3.2031c0 0.4375 0.29688 0.67188 0.8125 0.67188 0.1875 0 0.32812-0.015625 0.5625-0.0625v-0.5625c-0.10938 0.03125-0.1875 0.03125-0.32812 0.03125-0.29688 0-0.375-0.078125-0.375-0.375v-2.9062h0.70312z"/>
</g>
<g id="ad">
<path d="m0.5625-4.2344v4.2344h0.67188v-2.2031c0.015625-1.0156 0.4375-1.4688 1.3594-1.4531v-0.6875c-0.10938-0.015625-0.17188-0.015625-0.25-0.015625-0.4375 0-0.78125 0.25-1.1562 0.89062v-0.76562z"/>
</g>
<g id="ac">
<path d="m1.2188-4.2344h-0.67188v4.2344h0.67188zm0-1.6719h-0.6875v0.85938h0.6875z"/>
</g>
<g id="ab">
<path d="m0.4375-5.9062v5.9062h0.60938v-0.54688c0.32812 0.5 0.75 0.73438 1.3438 0.73438 1.1094 0 1.8438-0.92188 1.8438-2.3281 0-1.375-0.6875-2.2188-1.8125-2.2188-0.57812 0-1 0.21875-1.3125 0.6875v-2.2344zm1.8594 2.1719c0.75 0 1.2344 0.65625 1.2344 1.6719 0 0.96875-0.5 1.625-1.2344 1.625s-1.1875-0.65625-1.1875-1.6562c0-0.98438 0.45312-1.6406 1.1875-1.6406z"/>
</g>
<g id="r">
<path d="m3.5469-3.0625c-0.015625-0.82812-0.5625-1.2969-1.5469-1.2969s-1.625 0.5-1.625 1.2969c0 0.65625 0.34375 0.96875 1.3438 1.2188l0.64062 0.15625c0.46875 0.10938 0.65625 0.28125 0.65625 0.57812 0 0.40625-0.40625 0.67188-0.98438 0.67188-0.375 0-0.67188-0.10938-0.84375-0.28125-0.10938-0.125-0.15625-0.25-0.20312-0.54688h-0.70312c0.03125 0.98438 0.57812 1.4531 1.6875 1.4531 1.0625 0 1.75-0.53125 1.75-1.3438 0-0.625-0.35938-0.98438-1.2031-1.1875l-0.64062-0.15625c-0.5625-0.125-0.79688-0.29688-0.79688-0.59375 0-0.40625 0.35938-0.64062 0.90625-0.64062s0.82812 0.23438 0.84375 0.67188z"/>
</g>
<g id="aa">
<path d="m3.1406-4.2344-1.1719 3.2969-1.0938-3.2969h-0.71875l1.4375 4.25-0.26562 0.67188c-0.10938 0.29688-0.25 0.40625-0.53125 0.40625-0.10938 0-0.21875-0.015625-0.35938-0.046875v0.60938c0.14062 0.078125 0.28125 0.10938 0.45312 0.10938 0.21875 0 0.45312-0.078125 0.625-0.20312 0.21875-0.15625 0.34375-0.32812 0.46875-0.67188l1.8906-5.125z"/>
</g>
<g id="z">
<path d="m0.5625-4.2344v4.2344h0.6875v-2.6562c0-0.625 0.4375-1.1094 0.98438-1.1094 0.51562 0 0.79688 0.29688 0.79688 0.84375v2.9219h0.67188v-2.6562c0-0.625 0.45312-1.1094 1-1.1094 0.5 0 0.78125 0.3125 0.78125 0.84375v2.9219h0.6875v-3.1875c0-0.75-0.4375-1.1719-1.2344-1.1719-0.5625 0-0.90625 0.17188-1.2969 0.64062-0.25-0.45312-0.59375-0.64062-1.1406-0.64062-0.57812 0-0.95312 0.20312-1.3125 0.71875v-0.59375z"/>
</g>
<clipPath id="aw">
<path d="m82 13h48v98h-48z"/>
</clipPath>
<clipPath id="av">
<path d="m-0.47266 202.28h346v-203h-346zm82.422-188.17-0.03125-0.39062 4.1992-1.0195 0.15234 1.7695zm45.328 96.781-0.41797-0.0625-0.03125-4.3477 1.7695 0.26953z" clip-rule="evenodd"/>
</clipPath>
<clipPath id="ao">
<path d="m205 13h49v98h-49z"/>
</clipPath>
<clipPath id="an">
<path d="m-0.47266 202.28h346v-203h-346zm253.63-188.56-0.027344 0.39062-4.3203 0.35938 0.14844-1.7695zm-44.969 97.109-0.41797 0.0625-1.3203-4.1406 1.7695-0.26953z" clip-rule="evenodd"/>
</clipPath>
<clipPath id="am">
<path d="m46 65h1v46h-1z"/>
</clipPath>
<clipPath id="al">
<path d="m-0.47266 202.28h346v-203h-346zm46.391-136.84h0.42188l0.6875 4.2891h-1.8008zm0.42188 45.418h-0.42188l-0.69141-4.2891h1.8008z" clip-rule="evenodd"/>
</clipPath>
<clipPath id="ak">
<path d="m298 65h1v46h-1z"/>
</clipPath>
<clipPath id="aj">
<path d="m-0.47266 202.28h346v-203h-346zm298.39-136.84h0.42188l0.6875 4.2891h-1.8008zm0.42188 45.418h-0.42188l-0.69141-4.2891h1.8008z" clip-rule="evenodd"/>
</clipPath>
<clipPath id="ai">
<path d="m46 22h1v17h-1z"/>
</clipPath>
<clipPath id="ah">
<path d="m-0.47266 202.28h346v-203h-346zm46.391-179.59h0.42188l0.6875 4.2891h-1.8008zm0.42188 16.168h-0.42188l-0.69141-4.2891h1.8008z" clip-rule="evenodd"/>
</clipPath>
<clipPath id="au">
<path d="m298 22h1v17h-1z"/>
</clipPath>
<clipPath id="at">
<path d="m-0.47266 202.28h346v-203h-346zm298.39-179.59h0.42188l0.6875 4.2891h-1.8008zm0.42188 16.168h-0.42188l-0.69141-4.2891h1.8008z" clip-rule="evenodd"/>
</clipPath>
<clipPath id="as">
<path d="m172 128h1v10h-1z"/>
</clipPath>
<clipPath id="ar">
<path d="m-0.47266 202.28h346v-203h-346zm172.39-73.812h0.42188l0.6875 4.293h-1.8008z" clip-rule="evenodd"/>
</clipPath>
<clipPath id="aq">
<path d="m172 164h1v10h-1z"/>
</clipPath>
<clipPath id="ap">
<path d="m-0.47266 202.28h346v-203h-346zm172.81-28.391h-0.42188l-0.69141-5.3125 0.90234 0.90234 0.89844-0.90234z" clip-rule="evenodd"/>
</clipPath>
</defs>
<path transform="matrix(.1 0 0 -.1 -.472 202.28)" d="m16.009 16.003h3420v1710h-3420z" fill="none" stroke="#000" stroke-miterlimit="10" stroke-width="18"/>
<g clip-path="url(#aw)">
<g clip-path="url(#av)">
<path transform="matrix(.1 0 0 -.1 -.472 202.28)" d="m1275.7 916.32 0.58594 3.8672 0.3125 2.7344 0.3125 3.8672 0.58594 4.5312 0.89844 5.9766 0.89844 6.9141 0.89844 8.3984 1.2109 9.2969 1.2109 10.508 1.1719 11.68 1.2109 12.93 1.5234 14.062 1.4844 14.727 1.4844 15.898 1.7969 16.484 1.5234 17.422 1.4844 17.969 1.2109 18.633 1.4844 18.867 1.2109 19.219 1.2109 19.805 0.89844 20.078 0.58594 20.117 0.625 20.391 0.27344 20.391 0.3125 20.703-0.3125 21.016-0.27344 20.703-0.89844 21.016-0.9375 21.289-1.4844 20.977-1.7969 21.602-2.3828 21.328-2.7344 21.602-3.2812 21.875-3.9062 21.914-4.4922 21.914-4.8047 22.188-5.7031 22.188-6.2891 21.914-6.9141 22.188-7.7734 21.602-8.4375 21.016-8.9844 20.703-11.68 23.398-12.305 22.188-12.93 20.391-13.164 18.594-13.516 17.109-13.516 15.586-13.477 13.828-13.828 12.578-13.789 11.094-13.789 9.9219-13.789 8.9844-14.102 7.8125-13.828 6.9141-13.789 5.9766-13.789 5.3906-13.789 4.8047-13.828 3.9062-13.789 3.3203-13.789 2.9688-13.203 2.4219-13.203 2.1094-13.203 1.7969-12.305 1.1719-12.305 0.9375-11.406 0.89844-10.781 0.58594-10.195 0.3125-9.2969 0.27344-8.3984 0.3125h-13.828l-5.3906-0.3125h-10.781l-3.9062-0.27344" fill="none" stroke="#000" stroke-dasharray="18" stroke-linejoin="bevel" stroke-miterlimit="10" stroke-width="2.25"/>
</g>
</g>
<path transform="matrix(.1 0 0 -.1 -.472 202.28)" d="m1273 958 3.2812-36.875 14.414 34.18z" fill-rule="evenodd" stroke="#000" stroke-miterlimit="10" stroke-width="2.25"/>
<path transform="matrix(.1 0 0 -.1 -.472 202.28)" d="m865.89 1895.8-35.078-11.719 36.602-5.9766z" fill-rule="evenodd" stroke="#000" stroke-miterlimit="10" stroke-width="2.25"/>
<g clip-path="url(#ao)">
<g clip-path="url(#an)">
<path transform="matrix(.1 0 0 -.1 -.472 202.28)" d="m2084.2 916.32-0.625 3.8672-0.27344 2.7344-0.3125 3.8672-0.58594 4.5312-0.89844 5.9766-0.89844 6.9141-0.9375 8.3984-1.1719 9.2969-1.2109 10.508-1.2109 11.68-1.4844 12.93-1.2109 14.062-1.4844 14.727-1.7969 15.898-1.5234 16.484-1.4844 17.422-1.4844 17.969-1.2109 18.633-1.5234 18.867-1.1719 19.219-1.2109 19.805-0.89844 20.078-0.58594 20.117-0.625 20.391-0.58594 20.391v41.719l0.58594 20.703 0.625 21.016 1.1719 21.289 1.5234 20.977 1.7969 21.602 2.3828 21.328 2.6953 21.602 3.3203 21.875 3.9062 21.914 4.1797 21.914 5.1172 22.188 5.7031 22.188 6.2891 21.914 6.9141 22.188 7.7734 21.602 8.3984 21.016 9.0234 20.703 11.68 23.398 12.305 22.188 12.891 20.391 13.203 18.594 13.516 17.109 13.477 15.586 13.828 13.828 13.789 12.578 13.789 11.094 13.828 9.9219 13.789 8.9844 13.789 7.8125 13.789 6.9141 13.828 5.9766 14.102 5.3906 13.789 4.8047 13.789 3.9062 13.789 3.3203 13.516 2.9688 13.516 2.4219 13.203 2.1094 12.891 1.7969 12.578 1.1719 12.031 0.9375 11.68 0.89844 10.82 0.58594 10.195 0.3125 9.2969 0.27344 8.3984 0.3125h13.789l5.3906-0.3125h10.82l3.9062-0.27344" fill="none" stroke="#000" stroke-dasharray="18" stroke-linejoin="bevel" stroke-miterlimit="10" stroke-width="2.25"/>
</g>
</g>
<path transform="matrix(.1 0 0 -.1 -.472 202.28)" d="m2069.2 955.3 14.375-34.18 3.3203 36.875z" fill-rule="evenodd" stroke="#000" stroke-miterlimit="10" stroke-width="2.25"/>
<path transform="matrix(.1 0 0 -.1 -.472 202.28)" d="m2492.8 1878.1 36.602 5.9766-35.117 11.719z" fill-rule="evenodd" stroke="#000" stroke-miterlimit="10" stroke-width="2.25"/>
<g clip-path="url(#am)">
<g clip-path="url(#al)">
<path transform="matrix(.1 0 0 -.1 -.472 202.28)" d="m466.01 916.32v450" fill="none" stroke="#000" stroke-miterlimit="10" stroke-width="2.25"/>
</g>
</g>
<path transform="matrix(.1 0 0 -.1 -.472 202.28)" d="m456.99 957.1 9.0234-35.977 8.9844 35.977z" fill-rule="evenodd" stroke="#000" stroke-miterlimit="10" stroke-width="2.25"/>
<path transform="matrix(.1 0 0 -.1 -.472 202.28)" d="m474.99 1325.5-8.9844 36.016-9.0234-36.016z" fill-rule="evenodd" stroke="#000" stroke-miterlimit="10" stroke-width="2.25"/>
<g clip-path="url(#ak)">
<g clip-path="url(#aj)">
<path transform="matrix(.1 0 0 -.1 -.472 202.28)" d="m2986 916.32v450" fill="none" stroke="#000" stroke-miterlimit="10" stroke-width="2.25"/>
</g>
</g>
<path transform="matrix(.1 0 0 -.1 -.472 202.28)" d="m2977 957.1 9.0234-35.977 8.9844 35.977z" fill-rule="evenodd" stroke="#000" stroke-miterlimit="10" stroke-width="2.25"/>
<path transform="matrix(.1 0 0 -.1 -.472 202.28)" d="m2995 1325.5-8.9844 36.016-9.0234-36.016z" fill-rule="evenodd" stroke="#000" stroke-miterlimit="10" stroke-width="2.25"/>
<path d="m289.13 151.21c0 7.4375-48.355 13.469-108 13.469-59.648 0-108-6.0312-108-13.469 0-7.4414 48.352-13.473 108-13.473 59.645 0 108 6.0312 108 13.473" fill="#fff" fill-rule="evenodd"/>
<path transform="matrix(.1 0 0 -.1 -.472 202.28)" d="m2896 510.69c0-74.375-483.55-134.69-1080-134.69-596.48 0-1080 60.312-1080 134.69 0 74.414 483.52 134.73 1080 134.73 596.45 0 1080-60.312 1080-134.73z" fill="none" stroke="#000" stroke-miterlimit="10" stroke-width="2.25"/>
<path d="m244.31 52.148c0 7.4414-16.117 13.473-36 13.473-19.883 0-36-6.0312-36-13.473 0-7.4375 16.117-13.469 36-13.469 19.883 0 36 6.0312 36 13.469" fill="#fff" fill-rule="evenodd"/>
<path transform="matrix(.1 0 0 -.1 -.472 202.28)" d="m2447.8 1501.3c0-74.414-161.17-134.73-360-134.73s-360 60.312-360 134.73c0 74.375 161.17 134.69 360 134.69s360-60.312 360-134.69z" fill="none" stroke="#000" stroke-miterlimit="10" stroke-width="2.25"/>
<path d="m82.129 88.148c0 7.4414-16.117 13.473-36 13.473-19.883 0-36-6.0312-36-13.473 0-7.4375 16.117-13.469 36-13.469 19.883 0 36 6.0312 36 13.469" fill="#fff" fill-rule="evenodd"/>
<path transform="matrix(.1 0 0 -.1 -.472 202.28)" d="m826.01 1141.3c0-74.414-161.17-134.73-360-134.73s-360 60.312-360 134.73c0 74.375 161.17 134.69 360 134.69s360-60.312 360-134.69z" fill="none" stroke="#000" stroke-miterlimit="10" stroke-width="2.25"/>
<path d="m334.13 88.148c0 7.4414-16.117 13.473-36 13.473-19.883 0-36-6.0312-36-13.473 0-7.4375 16.117-13.469 36-13.469 19.883 0 36 6.0312 36 13.469" fill="#fff" fill-rule="evenodd"/>
<path transform="matrix(.1 0 0 -.1 -.472 202.28)" d="m3346 1141.3c0-74.414-161.17-134.73-360-134.73s-360 60.312-360 134.73c0 74.375 161.17 134.69 360 134.69s360-60.312 360-134.69z" fill="none" stroke="#000" stroke-miterlimit="10" stroke-width="2.25"/>
<path d="m163.1 52.148c0 7.4414-16.117 13.473-36 13.473-19.883 0-36-6.0312-36-13.473 0-7.4375 16.117-13.469 36-13.469 19.883 0 36 6.0312 36 13.469" fill="#fff" fill-rule="evenodd"/>
<path transform="matrix(.1 0 0 -.1 -.472 202.28)" d="m1635.7 1501.3c0-74.414-161.17-134.73-360-134.73s-360 60.312-360 134.73c0 74.375 161.17 134.69 360 134.69s360-60.312 360-134.69z" fill="none" stroke="#000" stroke-miterlimit="10" stroke-width="2.25"/>
<path transform="matrix(.1 0 0 -.1 -.472 202.28)" d="m106.01 106h3240v180.31h-3240z" fill="none" stroke="#000" stroke-miterlimit="10" stroke-width="2.25"/>
<g>
<use x="17.4862" y="50.59" xlink:href="#y"/>
<use x="23.4892" y="50.59" xlink:href="#d"/>
<use x="28.4932" y="50.59" xlink:href="#u"/>
<use x="34.9912" y="50.59" xlink:href="#a"/>
<use x="39.9952" y="50.59" xlink:href="#d"/>
<use x="44.9992" y="50.59" xlink:href="#t"/>
<use x="50.0032" y="50.59" xlink:href="#f"/>
<use x="55.0072" y="50.59" xlink:href="#d"/>
<use x="60.0112" y="50.59" xlink:href="#m"/>
<use x="65.0152" y="50.59" xlink:href="#e"/>
<use x="69.5152" y="50.59" xlink:href="#l"/>
<use x="271.2992" y="15.2498" xlink:href="#q"/>
<use x="277.3022" y="15.2498" xlink:href="#a"/>
<use x="282.3062" y="15.2498" xlink:href="#d"/>
<use x="287.3102" y="15.2498" xlink:href="#f"/>
<use x="292.3142" y="15.2498" xlink:href="#b"/>
<use x="294.8162" y="15.2498" xlink:href="#p"/>
<use x="299.3162" y="15.2498" xlink:href="#a"/>
<use x="304.3202" y="15.2498" xlink:href="#c"/>
<use x="269.48592" y="50.7998" xlink:href="#y"/>
<use x="275.48892" y="50.7998" xlink:href="#d"/>
<use x="280.49292" y="50.7998" xlink:href="#u"/>
<use x="286.99092" y="50.7998" xlink:href="#a"/>
<use x="291.99492" y="50.7998" xlink:href="#d"/>
<use x="296.99892" y="50.7998" xlink:href="#t"/>
<use x="302.00292" y="50.7998" xlink:href="#f"/>
<use x="307.00692" y="50.7998" xlink:href="#d"/>
<use x="312.01092" y="50.7998" xlink:href="#m"/>
<use x="317.01492" y="50.7998" xlink:href="#e"/>
<use x="321.51492" y="50.7998" xlink:href="#l"/>
<use x="278.49608" y="60.6998" xlink:href="#x"/>
<use x="283.50008" y="60.6998" xlink:href="#c"/>
<use x="286.49708" y="60.6998" xlink:href="#o"/>
<use x="291.50108" y="60.6998" xlink:href="#m"/>
<use x="296.50508" y="60.6998" xlink:href="#c"/>
<use x="299.50208" y="60.6998" xlink:href="#k"/>
<use x="304.50608" y="60.6998" xlink:href="#i"/>
<use x="312.00308" y="60.6998" xlink:href="#i"/>
<use x="25.62608" y="60.490034" xlink:href="#x"/>
<use x="30.63008" y="60.490034" xlink:href="#c"/>
<use x="33.62708" y="60.490034" xlink:href="#o"/>
<use x="38.63108" y="60.490034" xlink:href="#m"/>
<use x="43.63508" y="60.490034" xlink:href="#c"/>
<use x="46.63208" y="60.490034" xlink:href="#k"/>
<use x="51.63608" y="60.490034" xlink:href="#i"/>
<use x="59.13308" y="60.490034" xlink:href="#i"/>
<use x="23.49092" y="97.149834" xlink:href="#e"/>
<use x="27.99092" y="97.149834" xlink:href="#j"/>
<use x="32.49092" y="97.149834" xlink:href="#n"/>
<use x="37.49492" y="97.149834" xlink:href="#d"/>
<use x="42.49892" y="97.149834" xlink:href="#h"/>
<use x="44.49692" y="97.149834" xlink:href="#b"/>
<use x="46.99892" y="97.149834" xlink:href="#b"/>
<use x="49.50092" y="97.149834" xlink:href="#e"/>
<use x="54.00092" y="97.149834" xlink:href="#b"/>
<use x="56.50292" y="97.149834" xlink:href="#a"/>
<use x="61.50692" y="97.149834" xlink:href="#g"/>
<use x="63.50492" y="97.149834" xlink:href="#g"/>
<use x="65.50292" y="97.149834" xlink:href="#a"/>
<use x="187.05092" y="60.249834" xlink:href="#e"/>
<use x="191.55092" y="60.249834" xlink:href="#j"/>
<use x="196.05092" y="60.249834" xlink:href="#n"/>
<use x="201.05492" y="60.249834" xlink:href="#d"/>
<use x="206.05892" y="60.249834" xlink:href="#h"/>
<use x="208.05692" y="60.249834" xlink:href="#b"/>
<use x="210.55892" y="60.249834" xlink:href="#b"/>
<use x="213.06092" y="60.249834" xlink:href="#e"/>
<use x="217.56092" y="60.249834" xlink:href="#b"/>
<use x="220.06292" y="60.249834" xlink:href="#a"/>
<use x="225.06692" y="60.249834" xlink:href="#g"/>
<use x="227.06492" y="60.249834" xlink:href="#g"/>
<use x="229.06292" y="60.249834" xlink:href="#a"/>
<use x="189.92123" y="50.799834" xlink:href="#q"/>
<use x="195.92423" y="50.799834" xlink:href="#a"/>
<use x="200.92823" y="50.799834" xlink:href="#d"/>
<use x="205.93223" y="50.799834" xlink:href="#f"/>
<use x="210.93623" y="50.799834" xlink:href="#b"/>
<use x="213.43823" y="50.799834" xlink:href="#p"/>
<use x="217.93823" y="50.799834" xlink:href="#a"/>
<use x="222.94223" y="50.799834" xlink:href="#c"/>
<use x="225.93923" y="50.799834" xlink:href="#l"/>
<use x="273.06923" y="88.149834" xlink:href="#w"/>
<use x="279.07223" y="88.149834" xlink:href="#c"/>
<use x="282.06923" y="88.149834" xlink:href="#o"/>
<use x="287.07323" y="88.149834" xlink:href="#m"/>
<use x="292.07723" y="88.149834" xlink:href="#c"/>
<use x="295.07423" y="88.149834" xlink:href="#k"/>
<use x="300.07823" y="88.149834" xlink:href="#i"/>
<use x="307.57523" y="88.149834" xlink:href="#i"/>
<use x="315.07223" y="88.149834" xlink:href="#h"/>
<use x="317.07023" y="88.149834" xlink:href="#a"/>
<use x="322.07423" y="88.149834" xlink:href="#c"/>
<use x="325.07123" y="88.149834" xlink:href="#l"/>
<use x="275.49071" y="97.149834" xlink:href="#e"/>
<use x="279.99071" y="97.149834" xlink:href="#j"/>
<use x="284.49071" y="97.149834" xlink:href="#n"/>
<use x="289.49471" y="97.149834" xlink:href="#d"/>
<use x="294.49871" y="97.149834" xlink:href="#h"/>
<use x="296.49671" y="97.149834" xlink:href="#b"/>
<use x="298.99871" y="97.149834" xlink:href="#b"/>
<use x="301.50071" y="97.149834" xlink:href="#e"/>
<use x="306.00071" y="97.149834" xlink:href="#b"/>
<use x="308.50271" y="97.149834" xlink:href="#a"/>
<use x="313.50671" y="97.149834" xlink:href="#g"/>
<use x="315.50471" y="97.149834" xlink:href="#g"/>
<use x="317.50271" y="97.149834" xlink:href="#a"/>
<use x="105.84071" y="60.249834" xlink:href="#e"/>
<use x="110.34071" y="60.249834" xlink:href="#j"/>
<use x="114.84071" y="60.249834" xlink:href="#n"/>
<use x="119.84471" y="60.249834" xlink:href="#d"/>
<use x="124.84871" y="60.249834" xlink:href="#h"/>
<use x="126.84671" y="60.249834" xlink:href="#b"/>
<use x="129.34871" y="60.249834" xlink:href="#b"/>
<use x="131.85071" y="60.249834" xlink:href="#e"/>
<use x="136.35071" y="60.249834" xlink:href="#b"/>
<use x="138.85271" y="60.249834" xlink:href="#a"/>
<use x="143.85671" y="60.249834" xlink:href="#g"/>
<use x="145.85471" y="60.249834" xlink:href="#g"/>
<use x="147.85271" y="60.249834" xlink:href="#a"/>
<use x="108.71102" y="50.799834" xlink:href="#q"/>
<use x="114.71402" y="50.799834" xlink:href="#a"/>
<use x="119.71802" y="50.799834" xlink:href="#d"/>
<use x="124.72202" y="50.799834" xlink:href="#f"/>
<use x="129.72602" y="50.799834" xlink:href="#b"/>
<use x="132.22802" y="50.799834" xlink:href="#p"/>
<use x="136.72802" y="50.799834" xlink:href="#a"/>
<use x="141.73202" y="50.799834" xlink:href="#c"/>
<use x="144.72902" y="50.799834" xlink:href="#l"/>
<use x="21.06922" y="88.149834" xlink:href="#w"/>
<use x="27.07222" y="88.149834" xlink:href="#c"/>
<use x="30.06922" y="88.149834" xlink:href="#o"/>
<use x="35.07322" y="88.149834" xlink:href="#m"/>
<use x="40.07722" y="88.149834" xlink:href="#c"/>
<use x="43.07422" y="88.149834" xlink:href="#k"/>
<use x="48.07822" y="88.149834" xlink:href="#i"/>
<use x="55.57522" y="88.149834" xlink:href="#i"/>
<use x="63.07222" y="88.149834" xlink:href="#h"/>
<use x="65.07022" y="88.149834" xlink:href="#a"/>
<use x="70.07422" y="88.149834" xlink:href="#c"/>
<use x="73.07122" y="88.149834" xlink:href="#l"/>
<use x="28.11883" y="15.249834" xlink:href="#q"/>
<use x="34.12183" y="15.249834" xlink:href="#a"/>
<use x="39.12583" y="15.249834" xlink:href="#d"/>
<use x="44.12983" y="15.249834" xlink:href="#f"/>
<use x="49.13383" y="15.249834" xlink:href="#b"/>
<use x="51.63583" y="15.249834" xlink:href="#p"/>
<use x="56.13583" y="15.249834" xlink:href="#a"/>
<use x="61.13983" y="15.249834" xlink:href="#c"/>
<use x="144.44583" y="124.179834" xlink:href="#ae"/>
<use x="149.84853" y="124.179834" xlink:href="#s"/>
<use x="154.35213" y="124.179834" xlink:href="#v"/>
<use x="156.60393" y="124.179834" xlink:href="#ad"/>
<use x="159.30123" y="124.179834" xlink:href="#ac"/>
<use x="161.09943" y="124.179834" xlink:href="#s"/>
<use x="165.60303" y="124.179834" xlink:href="#ab"/>
<use x="170.10663" y="124.179834" xlink:href="#r"/>
<use x="174.15663" y="124.179834" xlink:href="#r"/>
<use x="178.20663" y="124.179834" xlink:href="#aa"/>
<use x="182.25663" y="124.179834" xlink:href="#r"/>
<use x="186.30663" y="124.179834" xlink:href="#v"/>
<use x="188.55843" y="124.179834" xlink:href="#s"/>
<use x="193.06203" y="124.179834" xlink:href="#z"/>
<use x="119.35753" y="153.429834" xlink:href="#ag"/>
<use x="121.85953" y="153.429834" xlink:href="#d"/>
<use x="126.86353" y="153.429834" xlink:href="#e"/>
<use x="131.36353" y="153.429834" xlink:href="#b"/>
<use x="133.86553" y="153.429834" xlink:href="#c"/>
<use x="136.86253" y="153.429834" xlink:href="#f"/>
<use x="141.86653" y="153.429834" xlink:href="#j"/>
<use x="146.36653" y="153.429834" xlink:href="#b"/>
<use x="148.86853" y="153.429834" xlink:href="#h"/>
<use x="150.86653" y="153.429834" xlink:href="#o"/>
<use x="155.87053" y="153.429834" xlink:href="#d"/>
<use x="160.87453" y="153.429834" xlink:href="#glyph-0-24"/>
<use x="163.37653" y="153.429834" xlink:href="#e"/>
<use x="167.87653" y="153.429834" xlink:href="#a"/>
<use x="172.88053" y="153.429834" xlink:href="#b"/>
<use x="175.38253" y="153.429834" xlink:href="#glyph-0-24"/>
<use x="177.88453" y="153.429834" xlink:href="#k"/>
<use x="182.88853" y="153.429834" xlink:href="#c"/>
<use x="185.88553" y="153.429834" xlink:href="#j"/>
<use x="190.38553" y="153.429834" xlink:href="#n"/>
<use x="195.38953" y="153.429834" xlink:href="#h"/>
<use x="197.38753" y="153.429834" xlink:href="#b"/>
<use x="199.88953" y="153.429834" xlink:href="#a"/>
<use x="204.89353" y="153.429834" xlink:href="#j"/>
<use x="209.39353" y="153.429834" xlink:href="#b"/>
<use x="211.89553" y="153.429834" xlink:href="#f"/>
<use x="216.89953" y="153.429834" xlink:href="#c"/>
<use x="219.89653" y="153.429834" xlink:href="#a"/>
</g>
<path transform="matrix(.1 0 0 -.1 -.472 202.28)" d="m826.01 1906c0-61.953-161.17-112.19-360-112.19s-360 50.234-360 112.19 161.17 112.19 360 112.19 360-50.234 360-112.19z" fill="none" stroke="#000" stroke-miterlimit="10" stroke-width="2.25"/>
<g>
<use x="152.626" y="184.93" xlink:href="#af"/>
<use x="159.124" y="184.93" xlink:href="#k"/>
<use x="164.128" y="184.93" xlink:href="#c"/>
<use x="167.125" y="184.93" xlink:href="#t"/>
<use x="172.129" y="184.93" xlink:href="#u"/>
<use x="178.627" y="184.93" xlink:href="#k"/>
<use x="183.631" y="184.93" xlink:href="#c"/>
<use x="186.628" y="184.93" xlink:href="#a"/>
</g>
<path transform="matrix(.1 0 0 -.1 -.472 202.28)" d="m3255.7 1906.3c0-61.992-161.17-112.23-360-112.23s-360 50.234-360 112.23c0 61.953 161.17 112.19 360 112.19s360-50.234 360-112.19z" fill="none" stroke="#000" stroke-miterlimit="10" stroke-width="2.25"/>
<path transform="matrix(.1 0 0 -.1 -.472 202.28)" d="m106.01 1366.3h720v270h-720z" fill="none" stroke="#000" stroke-miterlimit="10" stroke-width="2.25"/>
<path transform="matrix(.1 0 0 -.1 -.472 202.28)" d="m464.8 1186.3h2.3828" fill="none" stroke="#000" stroke-miterlimit="10" stroke-width="2.25"/>
<g clip-path="url(#ai)">
<g clip-path="url(#ah)">
<path transform="matrix(.1 0 0 -.1 -.472 202.28)" d="m466.01 1636.3v157.5" fill="none" stroke="#000" stroke-miterlimit="10" stroke-width="2.25"/>
</g>
</g>
<path transform="matrix(.1 0 0 -.1 -.472 202.28)" d="m456.99 1677.1 9.0234-36.016 8.9844 36.016z" fill-rule="evenodd" stroke="#000" stroke-miterlimit="10" stroke-width="2.25"/>
<path transform="matrix(.1 0 0 -.1 -.472 202.28)" d="m474.99 1753-8.9844 36.016-9.0234-36.016z" fill-rule="evenodd" stroke="#000" stroke-miterlimit="10" stroke-width="2.25"/>
<path transform="matrix(.1 0 0 -.1 -.472 202.28)" d="m2626 1366.3h720v270h-720z" fill="none" stroke="#000" stroke-miterlimit="10" stroke-width="2.25"/>
<g clip-path="url(#au)">
<g clip-path="url(#at)">
<path transform="matrix(.1 0 0 -.1 -.472 202.28)" d="m2986 1636.3v157.5" fill="none" stroke="#000" stroke-miterlimit="10" stroke-width="2.25"/>
</g>
</g>
<path transform="matrix(.1 0 0 -.1 -.472 202.28)" d="m2977 1677.1 9.0234-36.016 8.9844 36.016z" fill-rule="evenodd" stroke="#000" stroke-miterlimit="10" stroke-width="2.25"/>
<path transform="matrix(.1 0 0 -.1 -.472 202.28)" d="m2995 1753-8.9844 36.016-9.0234-36.016z" fill-rule="evenodd" stroke="#000" stroke-miterlimit="10" stroke-width="2.25"/>
<path transform="matrix(.1 0 0 -.1 -.472 202.28)" d="m106.01 736h3240v180h-3240z" fill="none" stroke="#000" stroke-miterlimit="10" stroke-width="2.25"/>
<g clip-path="url(#as)">
<g clip-path="url(#ar)">
<path transform="matrix(.1 0 0 -.1 -.472 202.28)" d="m1726 646v90" fill="none" stroke="#000" stroke-miterlimit="10" stroke-width="2.25"/>
</g>
</g>
<path transform="matrix(.1 0 0 -.1 -.472 202.28)" d="m1735 695.18-8.9844 36.016-9.0234-36.016z" fill-rule="evenodd" stroke="#000" stroke-miterlimit="10" stroke-width="2.25"/>
<g clip-path="url(#aq)">
<g clip-path="url(#ap)">
<path transform="matrix(.1 0 0 -.1 -.472 202.28)" d="m1726 286v90" fill="none" stroke="#000" stroke-miterlimit="10" stroke-width="2.25"/>
</g>
</g>
<path d="m171.23 168.58 0.90234 4.5 0.89844-4.5-0.89844 0.90234-0.90234-0.90234" fill-rule="evenodd"/>
<path transform="matrix(.1 0 0 -.1 -.472 202.28)" d="m1717 337.02 9.0234-45 8.9844 45-8.9844-9.0234z" fill="none" stroke="#000" stroke-miterlimit="10" stroke-width="2.25"/>
</svg>
