<svg width="217pt" height="236pt" version="1.1" viewBox="0 0 217 236" xmlns="http://www.w3.org/2000/svg" xmlns:xlink="http://www.w3.org/1999/xlink">
<defs>
<g id="ao">
<path d="m4.9531-2.9844v2.9844h0.84375v-6.5625h-0.84375v2.8438h-3.375v-2.8438h-0.82812v6.5625h0.82812v-2.9844z"/>
</g>
<g id="e">
<path d="m4.8125-0.4375c-0.078125 0.015625-0.10938 0.015625-0.15625 0.015625-0.26562 0-0.40625-0.14062-0.40625-0.375v-2.7656c0-0.84375-0.60938-1.2812-1.7812-1.2812-0.6875 0-1.2344 0.1875-1.5625 0.54688-0.21875 0.23438-0.29688 0.51562-0.32812 0.96875h0.76562c0.0625-0.5625 0.40625-0.82812 1.1094-0.82812 0.67188 0 1.0469 0.25 1.0469 0.70312v0.1875c-0.015625 0.32812-0.17188 0.45312-0.78125 0.53125-1.0625 0.14062-1.2188 0.17188-1.5156 0.28125-0.54688 0.23438-0.82812 0.65625-0.82812 1.2656 0 0.85938 0.59375 1.3906 1.5469 1.3906 0.59375 0 1.0781-0.20312 1.6094-0.6875 0.046875 0.48438 0.28125 0.6875 0.76562 0.6875 0.17188 0 0.26562-0.015625 0.51562-0.078125zm-1.3125-1.0469c0 0.25-0.078125 0.40625-0.29688 0.60938-0.3125 0.28125-0.67188 0.42188-1.1094 0.42188-0.59375 0-0.9375-0.28125-0.9375-0.75 0-0.5 0.32812-0.75 1.1406-0.85938 0.79688-0.10938 0.95312-0.15625 1.2031-0.26562z"/>
</g>
<g id="b">
<path d="m0.625-4.7188v4.7188h0.75v-2.4531c0.015625-1.125 0.48438-1.6406 1.5156-1.6094v-0.76562c-0.125-0.015625-0.20312-0.015625-0.29688-0.015625-0.48438 0-0.84375 0.28125-1.2812 0.98438v-0.85938z"/>
</g>
<g id="ac">
<path d="m4.4531-6.5625h-0.75v2.4375c-0.3125-0.46875-0.8125-0.71875-1.4375-0.71875-1.2344 0-2.0312 0.96875-2.0312 2.4844 0 1.5781 0.78125 2.5625 2.0469 2.5625 0.65625 0 1.1094-0.23438 1.5-0.82812v0.625h0.67188zm-2.0625 2.4062c0.79688 0 1.3125 0.71875 1.3125 1.8594 0 1.0781-0.51562 1.7969-1.3125 1.7969-0.82812 0-1.375-0.71875-1.375-1.8281 0-1.0938 0.54688-1.8281 1.375-1.8281z"/>
</g>
<g id="w">
<path d="m4.9844 0 1.3906-4.7188h-0.84375l-0.9375 3.6719-0.9375-3.6719h-0.90625l-0.90625 3.6719-0.96875-3.6719h-0.82812l1.375 4.7188h0.84375l0.90625-3.7031 0.95312 3.7031z"/>
</g>
<g id="a">
<path d="m4.6094-2.1094c0-0.71875-0.046875-1.1562-0.1875-1.5-0.29688-0.78125-1.0156-1.2344-1.9062-1.2344-1.3125 0-2.1562 0.98438-2.1562 2.5469s0.8125 2.5 2.1406 2.5c1.0781 0 1.8281-0.60938 2.0156-1.6406h-0.75c-0.20312 0.625-0.64062 0.95312-1.2344 0.95312-0.48438 0-0.89062-0.21875-1.1406-0.60938-0.17188-0.28125-0.23438-0.54688-0.25-1.0156zm-3.4531-0.60938c0.0625-0.875 0.59375-1.4375 1.3594-1.4375s1.2969 0.59375 1.2969 1.4375z"/>
</g>
<g id="v">
<path d="m6.375-3.4688h-2.7344v0.73438h2v0.1875c0 1.1719-0.85938 2.0156-2.0625 2.0156-0.65625 0-1.2656-0.25-1.6562-0.67188-0.42188-0.46875-0.6875-1.25-0.6875-2.0625 0-1.6094 0.92188-2.6719 2.2969-2.6719 1 0 1.7188 0.51562 1.9062 1.3594h0.85938c-0.23438-1.3281-1.25-2.0938-2.75-2.0938-0.79688 0-1.4531 0.20312-1.9688 0.64062-0.76562 0.625-1.1875 1.6406-1.1875 2.8125 0 2.0156 1.2344 3.4219 3.0156 3.4219 0.89062 0 1.5938-0.32812 2.2344-1.0469l0.20312 0.875h0.53125z"/>
</g>
<g id="u">
<path d="m4.8125-0.4375c-0.078125 0.015625-0.10938 0.015625-0.15625 0.015625-0.26562 0-0.40625-0.14062-0.40625-0.375v-2.7656c0-0.84375-0.60938-1.2812-1.7812-1.2812-0.6875 0-1.2344 0.1875-1.5625 0.54688-0.21875 0.23438-0.29688 0.51562-0.32812 0.96875h0.76562c0.0625-0.5625 0.40625-0.82812 1.1094-0.82812 0.67188 0 1.0469 0.25 1.0469 0.70312v0.1875c-0.015625 0.32812-0.17188 0.45312-0.78125 0.53125-1.0625 0.14062-1.2188 0.17188-1.5156 0.28125-0.54688 0.23438-0.82812 0.65625-0.82812 1.2656 0 0.85938 0.59375 1.3906 1.5469 1.3906 0.59375 0 1.0781-0.20312 1.6094-0.6875 0.046875 0.48438 0.28125 0.6875 0.76562 0.6875 0.17188 0 0.26562-0.015625 0.51562-0.078125zm-1.3125-1.0469c0 0.25-0.078125 0.40625-0.29688 0.60938-0.3125 0.28125-0.67188 0.42188-1.1094 0.42188-0.59375 0-0.9375-0.28125-0.9375-0.75 0-0.5 0.32812-0.75 1.1406-0.85938 0.79688-0.10938 0.95312-0.15625 1.2031-0.26562zm-1.2969-4.9531h-0.9375v0.92188h0.9375zm1.4531 0h-0.9375v0.92188h0.9375z"/>
</g>
<g id="c">
<path d="m2.2812-4.7188h-0.76562v-1.2969h-0.75v1.2969h-0.64062v0.60938h0.64062v3.5625c0 0.5 0.32812 0.75 0.90625 0.75 0.20312 0 0.35938-0.015625 0.60938-0.0625v-0.625c-0.10938 0.03125-0.20312 0.03125-0.35938 0.03125-0.3125 0-0.40625-0.09375-0.40625-0.42188v-3.2344h0.76562z"/>
</g>
<g id="an">
<path d="m5.9531-4.5312c-0.25-1.4375-1.0781-2.1406-2.5312-2.1406-0.875 0-1.5781 0.28125-2.0781 0.82812-0.59375 0.64062-0.90625 1.5781-0.90625 2.6406 0 1.0781 0.32812 2 0.9375 2.6406 0.51562 0.53125 1.1562 0.76562 2.0156 0.76562 1.6094 0 2.5-0.85938 2.7031-2.5938h-0.85938c-0.078125 0.45312-0.17188 0.75-0.29688 1.0156-0.28125 0.53125-0.82812 0.84375-1.5312 0.84375-1.3125 0-2.1406-1.0469-2.1406-2.6875 0-1.6719 0.78125-2.7188 2.0625-2.7188 0.53125 0 1.0312 0.15625 1.2969 0.42188 0.25 0.21875 0.375 0.5 0.48438 0.98438z"/>
</g>
<g id="k">
<path d="m2.4531-4.8438c-1.3438 0-2.125 0.9375-2.125 2.5156 0 1.5938 0.78125 2.5312 2.125 2.5312 1.3281 0 2.1406-0.9375 2.1406-2.4844 0-1.6406-0.78125-2.5625-2.1406-2.5625zm0 0.6875c0.84375 0 1.3594 0.6875 1.3594 1.8594 0 1.125-0.53125 1.8125-1.3594 1.8125s-1.3438-0.6875-1.3438-1.8438c0-1.1406 0.51562-1.8281 1.3438-1.8281z"/>
</g>
<g id="z">
<path d="m0.625-4.7188v4.7188h0.76562v-2.5938c0-0.96875 0.5-1.5938 1.2656-1.5938 0.60938 0 0.98438 0.35938 0.98438 0.92188v3.2656h0.75v-3.5625c0-0.78125-0.59375-1.2812-1.5-1.2812-0.70312 0-1.1562 0.26562-1.5625 0.92188v-0.79688z"/>
</g>
<g id="y">
<path d="m1.375-6.5625h-0.76562v6.5625h0.76562z"/>
</g>
<g id="am">
<path d="m0.71875 0h2.9531c0.625 0 1.0781-0.17188 1.4375-0.54688 0.3125-0.34375 0.5-0.8125 0.5-1.3281 0-0.78125-0.35938-1.2656-1.2031-1.5938 0.60938-0.28125 0.90625-0.75 0.90625-1.4219 0-0.48438-0.17188-0.90625-0.51562-1.2188s-0.79688-0.45312-1.4219-0.45312h-2.6562zm0.82812-3.7344v-2.0938h1.625c0.46875 0 0.71875 0.0625 0.95312 0.23438 0.23438 0.1875 0.35938 0.45312 0.35938 0.8125s-0.125 0.625-0.35938 0.8125c-0.23438 0.17188-0.48438 0.23438-0.95312 0.23438zm0 3v-2.2656h2.0469c0.73438 0 1.1719 0.42188 1.1719 1.1406 0 0.70312-0.4375 1.125-1.1719 1.125z"/>
</g>
<g id="j">
<path d="m1.3438-4.7188h-0.73438v4.7188h0.73438zm0-1.8438h-0.75v0.95312h0.75z"/>
</g>
<g id="i">
<path d="m0.48438-6.5625v6.5625h0.67188v-0.60938c0.35938 0.5625 0.84375 0.8125 1.5 0.8125 1.2344 0 2.0469-1.0156 2.0469-2.5781 0-1.5312-0.76562-2.4688-2.0156-2.4688-0.64062 0-1.1094 0.23438-1.4531 0.76562v-2.4844zm2.0625 2.4062c0.84375 0 1.375 0.73438 1.375 1.8594 0 1.0781-0.5625 1.7969-1.375 1.7969-0.79688 0-1.3125-0.71875-1.3125-1.8281 0-1.0938 0.51562-1.8281 1.3125-1.8281z"/>
</g>
<g id="f">
<path d="m3.9375-3.4062c0-0.92188-0.60938-1.4375-1.7031-1.4375s-1.8125 0.5625-1.8125 1.4375c0 0.73438 0.375 1.0781 1.5 1.3594l0.70312 0.17188c0.51562 0.125 0.71875 0.3125 0.71875 0.64062 0 0.45312-0.4375 0.75-1.0938 0.75-0.40625 0-0.75-0.125-0.9375-0.3125-0.10938-0.14062-0.17188-0.28125-0.21875-0.60938h-0.78125c0.03125 1.0938 0.64062 1.6094 1.875 1.6094 1.1875 0 1.9375-0.57812 1.9375-1.4844 0-0.70312-0.39062-1.0938-1.3281-1.3125l-0.71875-0.17188c-0.60938-0.15625-0.875-0.34375-0.875-0.6875 0-0.4375 0.39062-0.70312 1-0.70312s0.92188 0.26562 0.95312 0.75z"/>
</g>
<g id="al">
<path d="m3.4844-4.7188-1.2969 3.6719-1.2031-3.6719h-0.79688l1.5781 4.7344-0.28125 0.75c-0.125 0.32812-0.28125 0.45312-0.60938 0.45312-0.125 0-0.23438-0.015625-0.39062-0.046875v0.67188c0.15625 0.078125 0.3125 0.125 0.5 0.125 0.25 0 0.51562-0.09375 0.70312-0.23438 0.23438-0.17188 0.375-0.35938 0.51562-0.75l2.0938-5.7031z"/>
</g>
<g id="ak">
<path d="m0.625-4.7188v4.7188h0.76562v-2.9688c0-0.67188 0.48438-1.2188 1.1094-1.2188 0.54688 0 0.85938 0.32812 0.85938 0.9375v3.25h0.76562v-2.9688c0-0.67188 0.48438-1.2188 1.1094-1.2188 0.54688 0 0.875 0.34375 0.875 0.9375v3.25h0.75v-3.5312c0-0.85938-0.48438-1.3125-1.375-1.3125-0.625 0-1 0.1875-1.4375 0.71875-0.28125-0.51562-0.65625-0.71875-1.2812-0.71875s-1.0469 0.23438-1.4375 0.79688v-0.67188z"/>
</g>
<g id="aj">
<path d="m1.6406-2.9844h3.5781v-0.73438h-3.5781v-2.1094h3.7188v-0.73438h-4.5469v6.5625h4.7031v-0.73438h-3.875z"/>
</g>
<g id="x">
<path d="m4.8906-2.4062h-4.5312v0.64062h4.5312z"/>
</g>
<g id="ai">
<path d="m2.0625-6.5625-2.1406 6.75h0.5l2.1406-6.75z"/>
</g>
<g id="ah">
<path d="m4.2656-1.9688 0.67188 1.9688h0.9375l-2.2969-6.5625h-1.0781l-2.3438 6.5625h0.89062l0.6875-1.9688zm-0.23438-0.70312h-2.0938l1.0938-2.9844z"/>
</g>
<g id="ag">
<path d="m4.3438 0v-4.7188h-0.75v2.6719c0 0.96875-0.5 1.5938-1.2969 1.5938-0.59375 0-0.96875-0.35938-0.96875-0.92188v-3.3438h-0.75v3.6406c0 0.78125 0.59375 1.2812 1.5156 1.2812 0.6875 0 1.125-0.23438 1.5625-0.85938v0.65625z"/>
</g>
<g id="af">
<path d="m3.6406-4.7188v0.6875c-0.375-0.5625-0.79688-0.8125-1.3906-0.8125-1.1406 0-1.9375 1.0625-1.9375 2.5625 0 0.79688 0.1875 1.375 0.59375 1.8438 0.35938 0.42188 0.79688 0.64062 1.2969 0.64062 0.5625 0 0.96875-0.25 1.3594-0.84375v0.25c0 1.25-0.34375 1.7188-1.2812 1.7188-0.64062 0-0.96875-0.25-1.0469-0.78125h-0.76562c0.078125 0.85938 0.76562 1.4219 1.7969 1.4219 0.6875 0 1.2656-0.23438 1.5625-0.60938 0.35938-0.4375 0.5-1.0312 0.5-2.1406v-3.9375zm-1.3125 0.5625c0.78125 0 1.2344 0.67188 1.2344 1.8594 0 1.1406-0.45312 1.8125-1.2344 1.8125s-1.2344-0.67188-1.2344-1.8438c0-1.1406 0.45312-1.8281 1.2344-1.8281z"/>
</g>
<g id="ae">
<path d="m5.3594-4.6406c0-0.4375-0.015625-0.57812-0.17188-0.875-0.35938-0.75-1.125-1.1562-2.2188-1.1562-1.4531 0-2.3438 0.73438-2.3438 1.9219 0 0.8125 0.42188 1.3125 1.2969 1.5312l1.625 0.4375c0.84375 0.21875 1.2031 0.54688 1.2031 1.0625 0 0.34375-0.1875 0.70312-0.46875 0.90625-0.26562 0.1875-0.67188 0.28125-1.2031 0.28125-0.71875 0-1.2031-0.17188-1.5156-0.54688-0.23438-0.29688-0.34375-0.60938-0.34375-1.0156h-0.78125c0 0.60938 0.125 1 0.375 1.3594 0.45312 0.625 1.2188 0.9375 2.2188 0.9375 0.78125 0 1.4219-0.17188 1.8438-0.5 0.4375-0.34375 0.71875-0.9375 0.71875-1.5 0-0.8125-0.51562-1.4062-1.4062-1.6562l-1.6406-0.4375c-0.79688-0.21875-1.0781-0.46875-1.0781-0.96875 0-0.67188 0.57812-1.1094 1.4688-1.1094 1.0469 0 1.625 0.46875 1.6406 1.3281z"/>
</g>
<g id="ad">
<path d="m2.3281-4.7188h-0.79688v-0.73438c0-0.3125 0.17188-0.48438 0.53125-0.48438 0.0625 0 0.09375 0 0.26562 0.015625v-0.625c-0.17188-0.03125-0.28125-0.046875-0.42188-0.046875-0.70312 0-1.1094 0.40625-1.1094 1.0781v0.79688h-0.64062v0.60938h0.64062v4.1094h0.73438v-4.1094h0.79688z"/>
</g>
<g id="d">
<path d="m3.6875-1.6875c0-0.57812-0.03125-0.92188-0.14062-1.2031-0.25-0.625-0.82812-0.98438-1.5312-0.98438-1.0469 0-1.7344 0.79688-1.7344 2.0312 0 1.25 0.65625 2.0156 1.7188 2.0156 0.85938 0 1.4688-0.5 1.6094-1.3125h-0.59375c-0.17188 0.5-0.51562 0.75-0.98438 0.75-0.39062 0-0.71875-0.17188-0.92188-0.48438-0.14062-0.21875-0.1875-0.4375-0.1875-0.8125zm-2.7656-0.48438c0.0625-0.70312 0.48438-1.1562 1.0938-1.1562s1.0312 0.46875 1.0312 1.1562z"/>
</g>
<g id="s">
<path d="m1.0938-5.25h-0.60938v5.25h0.60938z"/>
</g>
<g id="r">
<path d="m1.0156-5.25h-0.59375v5.25h0.59375v-1.4688l0.57812-0.57812 1.2812 2.0469h0.73438l-1.5312-2.4688 1.3125-1.3125h-0.78125l-1.5938 1.6094z"/>
</g>
<g id="q">
<path d="m1.8281-3.7812h-0.625v-1.0312h-0.59375v1.0312h-0.51562v0.5h0.51562v2.8438c0 0.39062 0.26562 0.60938 0.73438 0.60938 0.15625 0 0.28125-0.015625 0.48438-0.0625v-0.5c-0.078125 0.015625-0.17188 0.03125-0.28125 0.03125-0.26562 0-0.34375-0.078125-0.34375-0.34375v-2.5781h0.625z"/>
</g>
<g id="p">
<path d="m0.5-3.7812v3.7812h0.60938v-1.9531c0-0.90625 0.375-1.3125 1.2031-1.2969v-0.60938c-0.09375-0.015625-0.15625-0.015625-0.23438-0.015625-0.39062 0-0.6875 0.21875-1.0312 0.78125v-0.6875z"/>
</g>
<g id="o">
<path d="m1.9531-3.875c-1.0625 0-1.6875 0.75-1.6875 2.0156 0 1.2812 0.625 2.0312 1.7031 2.0312 1.0625 0 1.7031-0.76562 1.7031-2 0-1.3125-0.625-2.0469-1.7188-2.0469zm0.015625 0.54688c0.67188 0 1.0781 0.5625 1.0781 1.4844 0 0.90625-0.42188 1.4531-1.0781 1.4531-0.67188 0-1.0781-0.54688-1.0781-1.4688 0-0.90625 0.40625-1.4688 1.0781-1.4688z"/>
</g>
<g id="n">
<path d="m3.9219-1.9219h-3.6406v0.5h3.6406z"/>
</g>
<g id="m">
<path d="m0.5-3.7812v3.7812h0.60938v-2.0781c0-0.78125 0.40625-1.2812 1.0156-1.2812 0.48438 0 0.78125 0.29688 0.78125 0.75v2.6094h0.60938v-2.8594c0-0.625-0.46875-1.0156-1.2031-1.0156-0.5625 0-0.92188 0.20312-1.25 0.73438v-0.64062z"/>
</g>
<g id="l">
<path d="m1.0781-3.7812h-0.59375v3.7812h0.59375zm0-1.4688h-0.60938v0.75h0.60938z"/>
</g>
<g id="t">
<path d="m3.1562-2.7188c-0.015625-0.75-0.5-1.1562-1.375-1.1562s-1.4375 0.45312-1.4375 1.1406c0 0.59375 0.29688 0.875 1.1875 1.0938l0.5625 0.14062c0.42188 0.09375 0.57812 0.25 0.57812 0.51562 0 0.35938-0.34375 0.59375-0.875 0.59375-0.3125 0-0.59375-0.09375-0.75-0.25-0.09375-0.10938-0.125-0.21875-0.17188-0.48438h-0.625c0.03125 0.875 0.51562 1.2969 1.5 1.2969 0.95312 0 1.5625-0.46875 1.5625-1.2031 0-0.5625-0.32812-0.875-1.0781-1.0469l-0.57812-0.14062c-0.48438-0.10938-0.6875-0.28125-0.6875-0.54688 0-0.34375 0.3125-0.5625 0.79688-0.5625s0.73438 0.20312 0.75 0.60938z"/>
</g>
<g id="h">
<path d="m3.3906-2.5c-0.03125-0.375-0.10938-0.60938-0.25-0.82812-0.26562-0.34375-0.71875-0.54688-1.2344-0.54688-1.0312 0-1.6875 0.79688-1.6875 2.0469 0 1.2188 0.65625 2 1.6719 2 0.90625 0 1.4688-0.54688 1.5469-1.4688h-0.60938c-0.09375 0.60938-0.40625 0.90625-0.92188 0.90625-0.65625 0-1.0625-0.53125-1.0625-1.4375 0-0.9375 0.39062-1.5 1.0469-1.5 0.51562 0 0.82812 0.29688 0.89062 0.82812z"/>
</g>
<g id="g">
<path d="m0.5-5.25v5.25h0.60938v-2.0781c0-0.78125 0.39062-1.2812 1.0156-1.2812 0.20312 0 0.39062 0.0625 0.53125 0.17188 0.17188 0.125 0.25 0.3125 0.25 0.57812v2.6094h0.59375v-2.8594c0-0.625-0.45312-1.0156-1.1875-1.0156-0.53125 0-0.85938 0.15625-1.2031 0.625v-2z"/>
</g>
<g id="ab">
<path d="m0.5-3.7812v3.7812h0.60938v-2.375c0-0.54688 0.39062-0.98438 0.89062-0.98438 0.4375 0 0.6875 0.28125 0.6875 0.76562v2.5938h0.60938v-2.375c0-0.54688 0.39062-0.98438 0.89062-0.98438 0.4375 0 0.70312 0.28125 0.70312 0.76562v2.5938h0.59375v-2.8281c0-0.6875-0.39062-1.0469-1.0938-1.0469-0.5 0-0.79688 0.14062-1.1562 0.5625-0.21875-0.39062-0.53125-0.5625-1.0156-0.5625-0.5 0-0.84375 0.1875-1.1562 0.64062v-0.54688z"/>
</g>
<g id="aa">
<path d="m3.8594-0.35938c-0.078125 0.015625-0.09375 0.015625-0.14062 0.015625-0.20312 0-0.3125-0.10938-0.3125-0.29688v-2.2188c0-0.65625-0.5-1.0156-1.4219-1.0156-0.5625 0-1 0.15625-1.25 0.4375-0.1875 0.1875-0.25 0.40625-0.26562 0.78125h0.60938c0.046875-0.46875 0.3125-0.67188 0.875-0.67188 0.54688 0 0.84375 0.20312 0.84375 0.5625v0.15625c0 0.26562-0.125 0.35938-0.625 0.42188-0.84375 0.10938-0.96875 0.14062-1.2031 0.23438-0.4375 0.1875-0.67188 0.51562-0.67188 1 0 0.6875 0.48438 1.125 1.25 1.125 0.46875 0 0.85938-0.17188 1.2812-0.5625 0.03125 0.39062 0.21875 0.5625 0.60938 0.5625 0.14062 0 0.21875-0.015625 0.42188-0.078125zm-1.0625-0.82812c0 0.20312-0.046875 0.32812-0.23438 0.48438-0.25 0.23438-0.53125 0.34375-0.89062 0.34375-0.46875 0-0.75-0.21875-0.75-0.60938s0.26562-0.59375 0.92188-0.6875c0.64062-0.09375 0.75-0.10938 0.95312-0.20312z"/>
</g>
<clipPath id="ap">
<path d="m0 108h217v127.54h-217z"/>
</clipPath>
</defs>
<path transform="matrix(.1 0 0 -.1 -.472 235.54)" d="m186.99 276.98h1800v1530h-1800z" fill="#e5e5e5" fill-rule="evenodd" stroke="#000" stroke-dasharray="36" stroke-miterlimit="10" stroke-width="4.5"/>
<path transform="matrix(.1 0 0 -.1 -.472 235.54)" d="m1447 1537c0-49.688-161.17-90-360-90-198.79 0-360 40.312-360 90 0 49.727 161.21 90 360 90 198.83 0 360-40.273 360-90z" fill="none" stroke="#000" stroke-miterlimit="10" stroke-width="2.25"/>
<path transform="matrix(.1 0 0 -.1 -.472 235.54)" d="m726.99 996.98h720v180h-720z" fill="none" stroke="#000" stroke-miterlimit="10" stroke-width="2.25"/>
<path transform="matrix(.1 0 0 -.1 -.472 235.54)" d="m1087 1897v-270" fill="none" stroke="#000" stroke-miterlimit="10" stroke-width="2.25"/>
<path transform="matrix(.1 0 0 -.1 -.472 235.54)" d="m1087 1447v-270" fill="none" stroke="#000" stroke-miterlimit="10" stroke-width="2.25"/>
<path transform="matrix(.1 0 0 -.1 -.472 235.54)" d="m1087 996.98v-180" fill="none" stroke="#000" stroke-miterlimit="10" stroke-width="2.25"/>
<g clip-path="url(#ap)">
<path transform="matrix(.1 0 0 -.1 -.472 235.54)" d="m6.9856 6.9825h2160v1260h-2160z" fill="none" stroke="#000" stroke-miterlimit="10" stroke-width="4.5"/>
</g>
<path transform="matrix(.1 0 0 -.1 -.472 235.54)" d="m6.9856 1357h2160v990h-2160z" fill="none" stroke="#000" stroke-miterlimit="10" stroke-width="4.5"/>
<g>
<use x="88.7257" y="225.842" xlink:href="#ao"/>
<use x="95.2237" y="225.842" xlink:href="#e"/>
<use x="100.2277" y="225.842" xlink:href="#b"/>
<use x="103.2247" y="225.842" xlink:href="#ac"/>
<use x="108.2287" y="225.842" xlink:href="#w"/>
<use x="114.7267" y="225.842" xlink:href="#e"/>
<use x="119.7307" y="225.842" xlink:href="#b"/>
<use x="122.7277" y="225.842" xlink:href="#a"/>
<use x="96.97375" y="174.092" xlink:href="#v"/>
<use x="103.97575" y="174.092" xlink:href="#a"/>
<use x="108.97975" y="174.092" xlink:href="#b"/>
<use x="111.97675" y="174.092" xlink:href="#u"/>
<use x="116.98075" y="174.092" xlink:href="#c"/>
<use x="88.7257" y="129.992" xlink:href="#an"/>
<use x="95.2237" y="129.992" xlink:href="#k"/>
<use x="100.2277" y="129.992" xlink:href="#z"/>
<use x="105.2317" y="129.992" xlink:href="#c"/>
<use x="107.7337" y="129.992" xlink:href="#b"/>
<use x="110.7307" y="129.992" xlink:href="#k"/>
<use x="115.7347" y="129.992" xlink:href="#y"/>
<use x="117.7327" y="129.992" xlink:href="#y"/>
<use x="119.7307" y="129.992" xlink:href="#a"/>
<use x="124.7347" y="129.992" xlink:href="#b"/>
<use x="77.4718" y="20.192" xlink:href="#am"/>
<use x="83.4748" y="20.192" xlink:href="#a"/>
<use x="88.4788" y="20.192" xlink:href="#c"/>
<use x="90.9808" y="20.192" xlink:href="#b"/>
<use x="93.9778" y="20.192" xlink:href="#j"/>
<use x="95.9758" y="20.192" xlink:href="#a"/>
<use x="100.9798" y="20.192" xlink:href="#i"/>
<use x="105.9838" y="20.192" xlink:href="#f"/>
<use x="110.4838" y="20.192" xlink:href="#f"/>
<use x="114.9838" y="20.192" xlink:href="#al"/>
<use x="119.4838" y="20.192" xlink:href="#f"/>
<use x="123.9838" y="20.192" xlink:href="#c"/>
<use x="126.4858" y="20.192" xlink:href="#a"/>
<use x="131.4898" y="20.192" xlink:href="#ak"/>
<use x="153.8226" y="125.942" xlink:href="#d"/>
<use x="157.8258" y="125.942" xlink:href="#s"/>
<use x="159.4242" y="125.942" xlink:href="#d"/>
<use x="163.4274" y="125.942" xlink:href="#r"/>
<use x="167.0274" y="125.942" xlink:href="#q"/>
<use x="169.029" y="125.942" xlink:href="#p"/>
<use x="171.4266" y="125.942" xlink:href="#o"/>
<use x="175.4298" y="125.942" xlink:href="#n"/>
<use x="154.276116" y="134.492" xlink:href="#m"/>
<use x="158.279316" y="134.492" xlink:href="#l"/>
<use x="159.877716" y="134.492" xlink:href="#t"/>
<use x="163.477716" y="134.492" xlink:href="#h"/>
<use x="167.077716" y="134.492" xlink:href="#g"/>
<use x="81.719116" y="84.992" xlink:href="#v"/>
<use x="88.721116" y="84.992" xlink:href="#a"/>
<use x="93.725116" y="84.992" xlink:href="#b"/>
<use x="96.722116" y="84.992" xlink:href="#u"/>
<use x="101.726116" y="84.992" xlink:href="#c"/>
<use x="104.228116" y="84.992" xlink:href="#a"/>
<use x="109.232116" y="84.992" xlink:href="#c"/>
<use x="111.734116" y="84.992" xlink:href="#b"/>
<use x="114.731116" y="84.992" xlink:href="#a"/>
<use x="119.735116" y="84.992" xlink:href="#j"/>
<use x="121.733116" y="84.992" xlink:href="#i"/>
<use x="126.737116" y="84.992" xlink:href="#a"/>
<use x="131.741116" y="84.992" xlink:href="#b"/>
<use x="59.701516" y="41.342" xlink:href="#aj"/>
<use x="65.704516" y="41.342" xlink:href="#j"/>
<use x="67.702516" y="41.342" xlink:href="#z"/>
<use x="72.706516" y="41.342" xlink:href="#x"/>
<use x="77.962516" y="41.342" xlink:href="#ai"/>
<use x="80.464516" y="41.342" xlink:href="#ah"/>
<use x="86.467516" y="41.342" xlink:href="#ag"/>
<use x="91.471516" y="41.342" xlink:href="#f"/>
<use x="95.971516" y="41.342" xlink:href="#af"/>
<use x="100.975516" y="41.342" xlink:href="#e"/>
<use x="105.979516" y="41.342" xlink:href="#i"/>
<use x="110.983516" y="41.342" xlink:href="#a"/>
<use x="115.987516" y="41.342" xlink:href="#x"/>
<use x="121.243516" y="41.342" xlink:href="#ae"/>
<use x="127.246516" y="41.342" xlink:href="#k"/>
<use x="132.250516" y="41.342" xlink:href="#ad"/>
<use x="134.752516" y="41.342" xlink:href="#c"/>
<use x="137.254516" y="41.342" xlink:href="#w"/>
<use x="143.752516" y="41.342" xlink:href="#e"/>
<use x="148.756516" y="41.342" xlink:href="#b"/>
<use x="151.753516" y="41.342" xlink:href="#a"/>
<use x="139.423016" y="174.092" xlink:href="#ab"/>
<use x="145.420616" y="174.092" xlink:href="#d"/>
<use x="149.423816" y="174.092" xlink:href="#h"/>
<use x="153.023816" y="174.092" xlink:href="#g"/>
<use x="157.027016" y="174.092" xlink:href="#aa"/>
<use x="161.030216" y="174.092" xlink:href="#m"/>
<use x="165.033416" y="174.092" xlink:href="#l"/>
<use x="166.631816" y="174.092" xlink:href="#t"/>
<use x="170.231816" y="174.092" xlink:href="#h"/>
<use x="173.831816" y="174.092" xlink:href="#g"/>
</g>
<path transform="matrix(.1 0 0 -.1 -.472 235.54)" d="m1272.4 636.98c0-102.38-83.008-185.39-185.43-185.39-102.38 0-185.39 83.008-185.39 185.39 0 102.42 83.008 185.43 185.39 185.43 102.42 0 185.43-83.008 185.43-185.43z" fill="none" stroke="#000" stroke-miterlimit="10" stroke-width="2.25"/>
<g>
<use x="144.823" y="165.092" xlink:href="#d"/>
<use x="148.8262" y="165.092" xlink:href="#s"/>
<use x="150.4246" y="165.092" xlink:href="#d"/>
<use x="154.4278" y="165.092" xlink:href="#r"/>
<use x="158.0278" y="165.092" xlink:href="#q"/>
<use x="160.0294" y="165.092" xlink:href="#p"/>
<use x="162.427" y="165.092" xlink:href="#o"/>
<use x="166.4302" y="165.092" xlink:href="#n"/>
</g>
</svg>
