<svg width="398pt" height="244pt" version="1.1" viewBox="0 0 398 244" xmlns="http://www.w3.org/2000/svg" xmlns:xlink="http://www.w3.org/1999/xlink">
<defs>
<g id="ab">
<path d="m4.2656-1.9688 0.67188 1.9688h0.9375l-2.2969-6.5625h-1.0781l-2.3438 6.5625h0.89062l0.6875-1.9688zm-0.23438-0.70312h-2.0938l1.0938-2.9844z"/>
</g>
<g id="c">
<path d="m0.625-4.7188v4.7188h0.75v-2.4531c0.015625-1.125 0.48438-1.6406 1.5156-1.6094v-0.76562c-0.125-0.015625-0.20312-0.015625-0.29688-0.015625-0.48438 0-0.84375 0.28125-1.2812 0.98438v-0.85938z"/>
</g>
<g id="o">
<path d="m0.48438-6.5625v6.5625h0.67188v-0.60938c0.35938 0.5625 0.84375 0.8125 1.5 0.8125 1.2344 0 2.0469-1.0156 2.0469-2.5781 0-1.5312-0.76562-2.4688-2.0156-2.4688-0.64062 0-1.1094 0.23438-1.4531 0.76562v-2.4844zm2.0625 2.4062c0.84375 0 1.375 0.73438 1.375 1.8594 0 1.0781-0.5625 1.7969-1.375 1.7969-0.79688 0-1.3125-0.71875-1.3125-1.8281 0-1.0938 0.51562-1.8281 1.3125-1.8281z"/>
</g>
<g id="a">
<path d="m4.6094-2.1094c0-0.71875-0.046875-1.1562-0.1875-1.5-0.29688-0.78125-1.0156-1.2344-1.9062-1.2344-1.3125 0-2.1562 0.98438-2.1562 2.5469s0.8125 2.5 2.1406 2.5c1.0781 0 1.8281-0.60938 2.0156-1.6406h-0.75c-0.20312 0.625-0.64062 0.95312-1.2344 0.95312-0.48438 0-0.89062-0.21875-1.1406-0.60938-0.17188-0.28125-0.23438-0.54688-0.25-1.0156zm-3.4531-0.60938c0.0625-0.875 0.59375-1.4375 1.3594-1.4375s1.2969 0.59375 1.2969 1.4375z"/>
</g>
<g id="b">
<path d="m1.3438-4.7188h-0.73438v4.7188h0.73438zm0-1.8438h-0.75v0.95312h0.75z"/>
</g>
<g id="h">
<path d="m2.2812-4.7188h-0.76562v-1.2969h-0.75v1.2969h-0.64062v0.60938h0.64062v3.5625c0 0.5 0.32812 0.75 0.90625 0.75 0.20312 0 0.35938-0.015625 0.60938-0.0625v-0.625c-0.10938 0.03125-0.20312 0.03125-0.35938 0.03125-0.3125 0-0.40625-0.09375-0.40625-0.42188v-3.2344h0.76562z"/>
</g>
<g id="e">
<path d="m3.9375-3.4062c0-0.92188-0.60938-1.4375-1.7031-1.4375s-1.8125 0.5625-1.8125 1.4375c0 0.73438 0.375 1.0781 1.5 1.3594l0.70312 0.17188c0.51562 0.125 0.71875 0.3125 0.71875 0.64062 0 0.45312-0.4375 0.75-1.0938 0.75-0.40625 0-0.75-0.125-0.9375-0.3125-0.10938-0.14062-0.17188-0.28125-0.21875-0.60938h-0.78125c0.03125 1.0938 0.64062 1.6094 1.875 1.6094 1.1875 0 1.9375-0.57812 1.9375-1.4844 0-0.70312-0.39062-1.0938-1.3281-1.3125l-0.71875-0.17188c-0.60938-0.15625-0.875-0.34375-0.875-0.6875 0-0.4375 0.39062-0.70312 1-0.70312s0.92188 0.26562 0.95312 0.75z"/>
</g>
<g id="n">
<path d="m2.5625 0 1.8125-4.7188h-0.84375l-1.3281 3.8281-1.2656-3.8281h-0.84375l1.6562 4.7188z"/>
</g>
<g id="x">
<path d="m3.9844-4.7188h-3.5156v0.65625h2.625l-2.8125 3.3906v0.67188h3.8281v-0.65625h-2.9219l2.7969-3.3906z"/>
</g>
<g id="m">
<path d="m4.2344-3.125c-0.03125-0.46875-0.125-0.76562-0.3125-1.0312-0.32812-0.4375-0.89062-0.6875-1.5469-0.6875-1.2812 0-2.0938 1-2.0938 2.5625 0 1.5312 0.8125 2.4844 2.0781 2.4844 1.125 0 1.8438-0.67188 1.9375-1.8281h-0.76562c-0.125 0.76562-0.5 1.1406-1.1406 1.1406-0.82812 0-1.3281-0.67188-1.3281-1.7969 0-1.1719 0.48438-1.875 1.2969-1.875 0.64062 0 1.0312 0.375 1.125 1.0312z"/>
</g>
<g id="p">
<path d="m0.625-6.5625v6.5625h0.75v-2.5938c0-0.96875 0.5-1.5938 1.2812-1.5938 0.25 0 0.48438 0.0625 0.67188 0.20312 0.20312 0.15625 0.29688 0.39062 0.29688 0.71875v3.2656h0.75v-3.5625c0-0.79688-0.5625-1.2812-1.4844-1.2812-0.67188 0-1.0781 0.20312-1.5156 0.78125v-2.5z"/>
</g>
<g id="j">
<path d="m0.625-4.7188v4.7188h0.76562v-2.5938c0-0.96875 0.5-1.5938 1.2656-1.5938 0.60938 0 0.98438 0.35938 0.98438 0.92188v3.2656h0.75v-3.5625c0-0.78125-0.59375-1.2812-1.5-1.2812-0.70312 0-1.1562 0.26562-1.5625 0.92188v-0.79688z"/>
</g>
<g id="i">
<path d="m1.375-6.5625h-0.76562v6.5625h0.76562z"/>
</g>
<g id="aa">
<path d="m2.0625-6.5625-2.1406 6.75h0.5l2.1406-6.75z"/>
</g>
<g id="d">
<path d="m0.625-4.7188v4.7188h0.76562v-2.9688c0-0.67188 0.48438-1.2188 1.1094-1.2188 0.54688 0 0.85938 0.32812 0.85938 0.9375v3.25h0.76562v-2.9688c0-0.67188 0.48438-1.2188 1.1094-1.2188 0.54688 0 0.875 0.34375 0.875 0.9375v3.25h0.75v-3.5312c0-0.85938-0.48438-1.3125-1.375-1.3125-0.625 0-1 0.1875-1.4375 0.71875-0.28125-0.51562-0.65625-0.71875-1.2812-0.71875s-1.0469 0.23438-1.4375 0.79688v-0.67188z"/>
</g>
<g id="l">
<path d="m4.3438 0v-4.7188h-0.75v2.6719c0 0.96875-0.5 1.5938-1.2969 1.5938-0.59375 0-0.96875-0.35938-0.96875-0.92188v-3.3438h-0.75v3.6406c0 0.78125 0.59375 1.2812 1.5156 1.2812 0.6875 0 1.125-0.23438 1.5625-0.85938v0.65625z"/>
</g>
<g id="r">
<path d="m2.3281-4.7188h-0.79688v-0.73438c0-0.3125 0.17188-0.48438 0.53125-0.48438 0.0625 0 0.09375 0 0.26562 0.015625v-0.625c-0.17188-0.03125-0.28125-0.046875-0.42188-0.046875-0.70312 0-1.1094 0.40625-1.1094 1.0781v0.79688h-0.64062v0.60938h0.64062v4.1094h0.73438v-4.1094h0.79688z"/>
</g>
<g id="g">
<path d="m0.48438 1.9688h0.75v-2.4688c0.40625 0.48438 0.84375 0.70312 1.4531 0.70312 1.2344 0 2.0156-0.98438 2.0156-2.4844 0-1.5781-0.76562-2.5625-2.0156-2.5625-0.64062 0-1.1562 0.28125-1.5156 0.84375v-0.71875h-0.6875zm2.0781-6.125c0.82812 0 1.3594 0.73438 1.3594 1.8594 0 1.0781-0.54688 1.7969-1.3594 1.7969s-1.3281-0.71875-1.3281-1.8281c0-1.0938 0.51562-1.8281 1.3281-1.8281z"/>
</g>
<g id="f">
<path d="m4.8125-0.4375c-0.078125 0.015625-0.10938 0.015625-0.15625 0.015625-0.26562 0-0.40625-0.14062-0.40625-0.375v-2.7656c0-0.84375-0.60938-1.2812-1.7812-1.2812-0.6875 0-1.2344 0.1875-1.5625 0.54688-0.21875 0.23438-0.29688 0.51562-0.32812 0.96875h0.76562c0.0625-0.5625 0.40625-0.82812 1.1094-0.82812 0.67188 0 1.0469 0.25 1.0469 0.70312v0.1875c-0.015625 0.32812-0.17188 0.45312-0.78125 0.53125-1.0625 0.14062-1.2188 0.17188-1.5156 0.28125-0.54688 0.23438-0.82812 0.65625-0.82812 1.2656 0 0.85938 0.59375 1.3906 1.5469 1.3906 0.59375 0 1.0781-0.20312 1.6094-0.6875 0.046875 0.48438 0.28125 0.6875 0.76562 0.6875 0.17188 0 0.26562-0.015625 0.51562-0.078125zm-1.3125-1.0469c0 0.25-0.078125 0.40625-0.29688 0.60938-0.3125 0.28125-0.67188 0.42188-1.1094 0.42188-0.59375 0-0.9375-0.28125-0.9375-0.75 0-0.5 0.32812-0.75 1.1406-0.85938 0.79688-0.10938 0.95312-0.15625 1.2031-0.26562z"/>
</g>
<g id="w">
<path d="m3.4844-4.7188-1.2969 3.6719-1.2031-3.6719h-0.79688l1.5781 4.7344-0.28125 0.75c-0.125 0.32812-0.28125 0.45312-0.60938 0.45312-0.125 0-0.23438-0.015625-0.39062-0.046875v0.67188c0.15625 0.078125 0.3125 0.125 0.5 0.125 0.25 0 0.51562-0.09375 0.70312-0.23438 0.23438-0.17188 0.375-0.35938 0.51562-0.75l2.0938-5.7031z"/>
</g>
<g id="k">
<path d="m2.4531-4.8438c-1.3438 0-2.125 0.9375-2.125 2.5156 0 1.5938 0.78125 2.5312 2.125 2.5312 1.3281 0 2.1406-0.9375 2.1406-2.4844 0-1.6406-0.78125-2.5625-2.1406-2.5625zm0 0.6875c0.84375 0 1.3594 0.6875 1.3594 1.8594 0 1.125-0.53125 1.8125-1.3594 1.8125s-1.3438-0.6875-1.3438-1.8438c0-1.1406 0.51562-1.8281 1.3438-1.8281z"/>
</g>
<g id="v">
<path d="m3.6406-4.7188v0.6875c-0.375-0.5625-0.79688-0.8125-1.3906-0.8125-1.1406 0-1.9375 1.0625-1.9375 2.5625 0 0.79688 0.1875 1.375 0.59375 1.8438 0.35938 0.42188 0.79688 0.64062 1.2969 0.64062 0.5625 0 0.96875-0.25 1.3594-0.84375v0.25c0 1.25-0.34375 1.7188-1.2812 1.7188-0.64062 0-0.96875-0.25-1.0469-0.78125h-0.76562c0.078125 0.85938 0.76562 1.4219 1.7969 1.4219 0.6875 0 1.2656-0.23438 1.5625-0.60938 0.35938-0.4375 0.5-1.0312 0.5-2.1406v-3.9375zm-1.3125 0.5625c0.78125 0 1.2344 0.67188 1.2344 1.8594 0 1.1406-0.45312 1.8125-1.2344 1.8125s-1.2344-0.67188-1.2344-1.8438c0-1.1406 0.45312-1.8281 1.2344-1.8281z"/>
</g>
<g id="u">
<path d="m4.9844 0 1.3906-4.7188h-0.84375l-0.9375 3.6719-0.9375-3.6719h-0.90625l-0.90625 3.6719-0.96875-3.6719h-0.82812l1.375 4.7188h0.84375l0.90625-3.7031 0.95312 3.7031z"/>
</g>
<g id="z">
<path d="m1.7188-0.9375h-0.9375v0.9375h0.9375z"/>
</g>
<g id="t">
<path d="m2.625-2.4375 1.5938-2.2812h-0.85938l-1.125 1.7188-1.1406-1.7188h-0.84375l1.5625 2.3125-1.6562 2.4062h0.85938l1.1875-1.8125 1.1875 1.8125h0.85938z"/>
</g>
<g id="s">
<path d="m1.2656-6.5625h-0.75v6.5625h0.75v-1.8438l0.73438-0.71875 1.5938 2.5625h0.92188l-1.9219-3.0938 1.6406-1.625h-0.96875l-2 2z"/>
</g>
<g id="q">
<path d="m4.4531-6.5625h-0.75v2.4375c-0.3125-0.46875-0.8125-0.71875-1.4375-0.71875-1.2344 0-2.0312 0.96875-2.0312 2.4844 0 1.5781 0.78125 2.5625 2.0469 2.5625 0.65625 0 1.1094-0.23438 1.5-0.82812v0.625h0.67188zm-2.0625 2.4062c0.79688 0 1.3125 0.71875 1.3125 1.8594 0 1.0781-0.51562 1.7969-1.3125 1.7969-0.82812 0-1.375-0.71875-1.375-1.8281 0-1.0938 0.54688-1.8281 1.375-1.8281z"/>
</g>
<g id="y">
<path d="m0.625-4.7188v5.4062c0 0.46875-0.14062 0.625-0.60938 0.625-0.046875 0-0.078125 0-0.17188-0.015625v0.64062c0.078125 0.015625 0.125 0.03125 0.25 0.03125 0.84375 0 1.2812-0.34375 1.2812-0.98438v-5.7031zm0.75-1.8438h-0.75v0.95312h0.75z"/>
</g>
<clipPath id="ai">
<path d="m360 225h37.527v18.941h-37.527z"/>
</clipPath>
<clipPath id="ah">
<path d="m302 225h37v18.941h-37z"/>
</clipPath>
<clipPath id="ag">
<path d="m339 87h58.527v25h-58.527z"/>
</clipPath>
<clipPath id="af">
<path d="m0.52734 42h40.473v25h-40.473z"/>
</clipPath>
<clipPath id="ae">
<path d="m0.52734 90h37.473v19h-37.473z"/>
</clipPath>
<clipPath id="ad">
<path d="m171 144h31v1h-31z"/>
</clipPath>
<clipPath id="ac">
<path d="m0.52734 243.94h397v-244h-397zm200.86-99.613v0.42188l-4.2891 0.69141v-1.8008z" clip-rule="evenodd"/>
</clipPath>
</defs>
<g>
<use x="95.428" y="147.69" xlink:href="#ab"/>
<use x="101.431" y="147.69" xlink:href="#c"/>
<use x="104.428" y="147.69" xlink:href="#o"/>
<use x="109.432" y="147.69" xlink:href="#a"/>
<use x="114.436" y="147.69" xlink:href="#b"/>
<use x="116.434" y="147.69" xlink:href="#h"/>
<use x="118.936" y="147.69" xlink:href="#e"/>
<use x="123.436" y="147.69" xlink:href="#n"/>
<use x="127.936" y="147.69" xlink:href="#a"/>
<use x="132.94" y="147.69" xlink:href="#c"/>
<use x="135.937" y="147.69" xlink:href="#x"/>
<use x="140.437" y="147.69" xlink:href="#a"/>
<use x="145.441" y="147.69" xlink:href="#b"/>
<use x="147.439" y="147.69" xlink:href="#m"/>
<use x="151.939" y="147.69" xlink:href="#p"/>
<use x="156.943" y="147.69" xlink:href="#j"/>
<use x="161.947" y="147.69" xlink:href="#b"/>
<use x="163.945" y="147.69" xlink:href="#e"/>
<use x="129.9253" y="57.69" xlink:href="#o"/>
<use x="134.9293" y="57.69" xlink:href="#b"/>
<use x="136.9273" y="57.69" xlink:href="#j"/>
</g>
<path transform="matrix(.1 0 0 -.1 .528 243.94)" d="m1759 1804h360v180h-360z" fill="none" stroke="#000" stroke-miterlimit="10" stroke-width="2.25"/>
<g>
<use x="189.928" y="57.69" xlink:href="#i"/>
<use x="191.926" y="57.69" xlink:href="#b"/>
<use x="193.924" y="57.69" xlink:href="#o"/>
</g>
<path transform="matrix(.1 0 0 -.1 .528 243.94)" d="m3514 1804h360v180h-360z" fill="none" stroke="#000" stroke-miterlimit="10" stroke-width="2.25"/>
<g>
<use x="363.925" y="57.24" xlink:href="#a"/>
<use x="368.929" y="57.24" xlink:href="#h"/>
<use x="371.431" y="57.24" xlink:href="#m"/>
</g>
<path transform="matrix(.1 0 0 -.1 .528 243.94)" d="m1759 2254h360v180h-360z" fill="none" stroke="#000" stroke-miterlimit="10" stroke-width="2.25"/>
<g>
<use x="193.177" y="12.69" xlink:href="#aa"/>
</g>
<path transform="matrix(.1 0 0 -.1 .528 243.94)" d="m2344 1354h360v180h-360z" fill="none" stroke="#000" stroke-miterlimit="10" stroke-width="2.25"/>
<g>
<use x="238.178" y="102.24" xlink:href="#d"/>
<use x="245.675" y="102.24" xlink:href="#l"/>
<use x="250.679" y="102.24" xlink:href="#a"/>
<use x="255.683" y="102.24" xlink:href="#i"/>
<use x="257.681" y="102.24" xlink:href="#i"/>
<use x="259.679" y="102.24" xlink:href="#a"/>
<use x="264.683" y="102.24" xlink:href="#c"/>
</g>
<path transform="matrix(.1 0 0 -.1 .528 243.94)" d="m2501.5 544.01c0-49.727-120.9-90-270-90-149.14 0-270 40.273-270 90 0 49.688 120.86 90 270 90 149.1 0 270-40.312 270-90z" fill="none" stroke="#000" stroke-miterlimit="10" stroke-width="2.25"/>
<g>
<use x="217.477" y="192.24" xlink:href="#r"/>
<use x="219.979" y="192.24" xlink:href="#i"/>
<use x="221.977" y="192.24" xlink:href="#b"/>
<use x="223.975" y="192.24" xlink:href="#g"/>
</g>
<path transform="matrix(.1 0 0 -.1 .528 243.94)" d="m2726.5 454.01h360v180h-360z" fill="none" stroke="#000" stroke-miterlimit="10" stroke-width="2.25"/>
<g>
<use x="279.177" y="192.24" xlink:href="#f"/>
<use x="284.181" y="192.24" xlink:href="#c"/>
<use x="287.178" y="192.24" xlink:href="#m"/>
<use x="291.678" y="192.24" xlink:href="#p"/>
<use x="296.682" y="192.24" xlink:href="#b"/>
<use x="298.68" y="192.24" xlink:href="#n"/>
</g>
<path transform="matrix(.1 0 0 -.1 .528 243.94)" d="m3311.5 454.01h360v180h-360z" fill="none" stroke="#000" stroke-miterlimit="10" stroke-width="2.25"/>
<g>
<use x="338.676" y="192.24" xlink:href="#g"/>
<use x="343.68" y="192.24" xlink:href="#c"/>
<use x="346.677" y="192.24" xlink:href="#b"/>
<use x="348.675" y="192.24" xlink:href="#n"/>
<use x="353.175" y="192.24" xlink:href="#f"/>
<use x="358.179" y="192.24" xlink:href="#h"/>
</g>
<path transform="matrix(.1 0 0 -.1 .528 243.94)" d="m1736.5 544.01c0-49.727-120.9-90-270-90-149.14 0-270 40.273-270 90 0 49.688 120.86 90 270 90 149.1 0 270-40.312 270-90z" fill="none" stroke="#000" stroke-miterlimit="10" stroke-width="2.25"/>
<g>
<use x="123.976" y="192.24" xlink:href="#d"/>
<use x="131.473" y="192.24" xlink:href="#w"/>
<use x="135.973" y="192.24" xlink:href="#g"/>
<use x="140.977" y="192.24" xlink:href="#c"/>
<use x="143.974" y="192.24" xlink:href="#k"/>
<use x="148.978" y="192.24" xlink:href="#v"/>
<use x="153.982" y="192.24" xlink:href="#c"/>
<use x="156.979" y="192.24" xlink:href="#f"/>
<use x="161.983" y="192.24" xlink:href="#d"/>
</g>
<path transform="matrix(.1 0 0 -.1 .528 243.94)" d="m971.52 544.01c0-49.727-120.9-90-270-90-149.14 0-270 40.273-270 90 0 49.688 120.86 90 270 90 149.1 0 270-40.312 270-90z" fill="none" stroke="#000" stroke-miterlimit="10" stroke-width="2.25"/>
<g>
<use x="48.219" y="192.24" xlink:href="#a"/>
<use x="53.223" y="192.24" xlink:href="#j"/>
<use x="58.227" y="192.24" xlink:href="#h"/>
<use x="60.729" y="192.24" xlink:href="#u"/>
<use x="67.227" y="192.24" xlink:href="#l"/>
<use x="72.231" y="192.24" xlink:href="#c"/>
<use x="75.228" y="192.24" xlink:href="#r"/>
<use x="77.73" y="192.24" xlink:href="#z"/>
<use x="80.232" y="192.24" xlink:href="#h"/>
<use x="82.734" y="192.24" xlink:href="#a"/>
<use x="87.738" y="192.24" xlink:href="#t"/>
</g>
<g clip-path="url(#ai)">
<path transform="matrix(.1 0 0 -.1 .528 243.94)" d="m3604 4.0094h360v180h-360z" fill="none" stroke="#000" stroke-miterlimit="10" stroke-width="2.25"/>
</g>
<g>
<use x="367.179" y="237.24" xlink:href="#d"/>
<use x="374.676" y="237.24" xlink:href="#l"/>
<use x="379.68" y="237.24" xlink:href="#e"/>
<use x="384.18" y="237.24" xlink:href="#b"/>
<use x="386.178" y="237.24" xlink:href="#s"/>
</g>
<g clip-path="url(#ah)">
<path transform="matrix(.1 0 0 -.1 .528 243.94)" d="m3019 4.0094h360v180h-360z" fill="none" stroke="#000" stroke-miterlimit="10" stroke-width="2.25"/>
</g>
<g>
<use x="308.674" y="237.24" xlink:href="#e"/>
<use x="313.174" y="237.24" xlink:href="#g"/>
<use x="318.178" y="237.24" xlink:href="#b"/>
<use x="320.176" y="237.24" xlink:href="#a"/>
<use x="325.18" y="237.24" xlink:href="#i"/>
<use x="327.178" y="237.24" xlink:href="#a"/>
</g>
<path transform="matrix(.1 0 0 -.1 .528 243.94)" d="m3761.5 994.01c0-49.727-120.9-90-270-90-149.14 0-270 40.273-270 90 0 49.688 120.86 90 270 90 149.1 0 270-40.312 270-90z" fill="none" stroke="#000" stroke-miterlimit="10" stroke-width="2.25"/>
<g>
<use x="326.476" y="147.24" xlink:href="#d"/>
<use x="333.973" y="147.24" xlink:href="#w"/>
<use x="338.473" y="147.24" xlink:href="#g"/>
<use x="343.477" y="147.24" xlink:href="#c"/>
<use x="346.474" y="147.24" xlink:href="#k"/>
<use x="351.478" y="147.24" xlink:href="#v"/>
<use x="356.482" y="147.24" xlink:href="#c"/>
<use x="359.479" y="147.24" xlink:href="#f"/>
<use x="364.483" y="147.24" xlink:href="#d"/>
</g>
<path transform="matrix(.1 0 0 -.1 .528 243.94)" d="m1759 1354h360v180h-360z" fill="none" stroke="#000" stroke-miterlimit="10" stroke-width="2.25"/>
<g>
<use x="181.176" y="102.69" xlink:href="#r"/>
<use x="183.678" y="102.69" xlink:href="#b"/>
<use x="185.676" y="102.69" xlink:href="#e"/>
<use x="190.176" y="102.69" xlink:href="#m"/>
<use x="194.676" y="102.69" xlink:href="#p"/>
<use x="199.68" y="102.69" xlink:href="#a"/>
<use x="204.684" y="102.69" xlink:href="#c"/>
</g>
<path transform="matrix(.1 0 0 -.1 .528 243.94)" d="m2929 1354h360v180h-360z" fill="none" stroke="#000" stroke-miterlimit="10" stroke-width="2.25"/>
<g>
<use x="300.178" y="102.24" xlink:href="#d"/>
<use x="307.675" y="102.24" xlink:href="#a"/>
<use x="312.679" y="102.24" xlink:href="#b"/>
<use x="314.677" y="102.24" xlink:href="#a"/>
<use x="319.681" y="102.24" xlink:href="#c"/>
</g>
<g clip-path="url(#ag)">
<path transform="matrix(.1 0 0 -.1 .528 243.94)" d="m3964 1444c0-49.727-120.9-90-270-90-149.14 0-270 40.273-270 90 0 49.688 120.86 90 270 90 149.1 0 270-40.312 270-90z" fill="none" stroke="#000" stroke-miterlimit="10" stroke-width="2.25"/>
</g>
<g clip-path="url(#af)">
<path transform="matrix(.1 0 0 -.1 .528 243.94)" d="m364.02 1894c0-49.727-80.625-90-180-90-99.414 0-180 40.273-180 90 0 49.688 80.586 90 180 90 99.375 0 180-40.312 180-90z" fill="none" stroke="#000" stroke-miterlimit="10" stroke-width="2.25"/>
</g>
<path transform="matrix(.1 0 0 -.1 .528 243.94)" d="m1939 2254v-270" fill="none" stroke="#000" stroke-miterlimit="10" stroke-width="2.25"/>
<path transform="matrix(.1 0 0 -.1 .528 243.94)" d="m1939 2254-1170-270" fill="none" stroke="#000" stroke-miterlimit="10" stroke-width="2.25"/>
<path transform="matrix(.1 0 0 -.1 .528 243.94)" d="m1939 2254-585-270" fill="none" stroke="#000" stroke-miterlimit="10" stroke-width="2.25"/>
<path transform="matrix(.1 0 0 -.1 .528 243.94)" d="m1939 2254 585-270" fill="none" stroke="#000" stroke-miterlimit="10" stroke-width="2.25"/>
<path transform="matrix(.1 0 0 -.1 .528 243.94)" d="m1939 2254 1170-270" fill="none" stroke="#000" stroke-miterlimit="10" stroke-width="2.25"/>
<path transform="matrix(.1 0 0 -.1 .528 243.94)" d="m1939 2254 1755-270" fill="none" stroke="#000" stroke-miterlimit="10" stroke-width="2.25"/>
<path transform="matrix(.1 0 0 -.1 .528 243.94)" d="m3694 1804v-270" fill="none" stroke="#000" stroke-miterlimit="10" stroke-width="2.25"/>
<path transform="matrix(.1 0 0 -.1 .528 243.94)" d="m1939 2254-1755-270" fill="none" stroke="#000" stroke-miterlimit="10" stroke-width="2.25"/>
<path transform="matrix(.1 0 0 -.1 .528 243.94)" d="m769.02 1804-585-270" fill="none" stroke="#000" stroke-miterlimit="10" stroke-width="2.25"/>
<path transform="matrix(.1 0 0 -.1 .528 243.94)" d="m769.02 1804v-270" fill="none" stroke="#000" stroke-miterlimit="10" stroke-width="2.25"/>
<path transform="matrix(.1 0 0 -.1 .528 243.94)" d="m769.02 1804 585-270" fill="none" stroke="#000" stroke-miterlimit="10" stroke-width="2.25"/>
<g clip-path="url(#ae)">
<path transform="matrix(.1 0 0 -.1 .528 243.94)" d="m4.0169 1354h360v180h-360z" fill="none" stroke="#000" stroke-miterlimit="10" stroke-width="2.25"/>
</g>
<path transform="matrix(.1 0 0 -.1 .528 243.94)" d="m589.02 1354h360v180h-360z" fill="none" stroke="#000" stroke-miterlimit="10" stroke-width="2.25"/>
<path transform="matrix(.1 0 0 -.1 .528 243.94)" d="m1174 1354h360v180h-360z" fill="none" stroke="#000" stroke-miterlimit="10" stroke-width="2.25"/>
<path transform="matrix(.1 0 0 -.1 .528 243.94)" d="m589.02 1804h360v180h-360z" fill="none" stroke="#000" stroke-miterlimit="10" stroke-width="2.25"/>
<path transform="matrix(.1 0 0 -.1 .528 243.94)" d="m2929 1804h360v180h-360z" fill="none" stroke="#000" stroke-miterlimit="10" stroke-width="2.25"/>
<path transform="matrix(.1 0 0 -.1 .528 243.94)" d="m2344 1804h360v180h-360z" fill="none" stroke="#000" stroke-miterlimit="10" stroke-width="2.25"/>
<path transform="matrix(.1 0 0 -.1 .528 243.94)" d="m2524 1354-315-270" fill="none" stroke="#000" stroke-miterlimit="10" stroke-width="2.25"/>
<path transform="matrix(.1 0 0 -.1 .528 243.94)" d="m2524 1354 315-270" fill="none" stroke="#000" stroke-miterlimit="10" stroke-width="2.25"/>
<path transform="matrix(.1 0 0 -.1 .528 243.94)" d="m2524 1804-585-270" fill="none" stroke="#000" stroke-miterlimit="10" stroke-width="2.25"/>
<path transform="matrix(.1 0 0 -.1 .528 243.94)" d="m2524 1804v-270" fill="none" stroke="#000" stroke-miterlimit="10" stroke-width="2.25"/>
<path transform="matrix(.1 0 0 -.1 .528 243.94)" d="m2524 1804 585-270" fill="none" stroke="#000" stroke-miterlimit="10" stroke-width="2.25"/>
<path transform="matrix(.1 0 0 -.1 .528 243.94)" d="m2231.5 904.01v-270" fill="none" stroke="#000" stroke-miterlimit="10" stroke-width="2.25"/>
<path transform="matrix(.1 0 0 -.1 .528 243.94)" d="m2231.5 904.01 675-270" fill="none" stroke="#000" stroke-miterlimit="10" stroke-width="2.25"/>
<path transform="matrix(.1 0 0 -.1 .528 243.94)" d="m2231.5 904.01 1260-270" fill="none" stroke="#000" stroke-miterlimit="10" stroke-width="2.25"/>
<path transform="matrix(.1 0 0 -.1 .528 243.94)" d="m2231.5 904.01-765-270" fill="none" stroke="#000" stroke-miterlimit="10" stroke-width="2.25"/>
<path transform="matrix(.1 0 0 -.1 .528 243.94)" d="m2231.5 904.01-1530-270" fill="none" stroke="#000" stroke-miterlimit="10" stroke-width="2.25"/>
<path transform="matrix(.1 0 0 -.1 .528 243.94)" d="m3491.5 454.01 292.5-270" fill="none" stroke="#000" stroke-miterlimit="10" stroke-width="2.25"/>
<path transform="matrix(.1 0 0 -.1 .528 243.94)" d="m3491.5 454.01-292.5-270" fill="none" stroke="#000" stroke-miterlimit="10" stroke-width="2.25"/>
<path transform="matrix(.1 0 0 -.1 .528 243.94)" d="m2636.5 904.01h360v180h-360z" fill="none" stroke="#000" stroke-miterlimit="10" stroke-width="2.25"/>
<g clip-path="url(#ad)">
<g clip-path="url(#ac)">
<path transform="matrix(.1 0 0 -.1 .528 243.94)" d="m2006.5 994.01h-292.5" fill="none" stroke="#000" stroke-miterlimit="10" stroke-width="2.25"/>
</g>
</g>
<path transform="matrix(.1 0 0 -.1 .528 243.94)" d="m1965.7 984.99 36.016 9.0234-36.016 8.9844z" fill-rule="evenodd" stroke="#000" stroke-miterlimit="10" stroke-width="2.25"/>
<path transform="matrix(.1 0 0 -.1 .528 243.94)" d="m3107.8 1354h2.3828" fill="none" stroke="#000" stroke-miterlimit="10" stroke-width="2.25"/>
<path transform="matrix(.1 0 0 -.1 .528 243.94)" d="m3109 1354 382.5-270" fill="none" stroke="#000" stroke-miterlimit="10" stroke-width="2.25"/>
<path transform="matrix(.1 0 0 -.1 .528 243.94)" d="m2051.5 904.01h360v180h-360z" fill="#d8d8d8" fill-rule="evenodd" stroke="#000" stroke-miterlimit="10" stroke-width="2.25"/>
<g>
<use x="354.224" y="102.24" xlink:href="#g"/>
<use x="359.228" y="102.24" xlink:href="#f"/>
<use x="364.232" y="102.24" xlink:href="#e"/>
<use x="368.732" y="102.24" xlink:href="#e"/>
<use x="373.232" y="102.24" xlink:href="#u"/>
<use x="379.73" y="102.24" xlink:href="#q"/>
<use x="10.226" y="57.24" xlink:href="#l"/>
<use x="15.23" y="57.24" xlink:href="#j"/>
<use x="20.234" y="57.24" xlink:href="#b"/>
<use x="22.232" y="57.24" xlink:href="#t"/>
<use x="127.176" y="102.69" xlink:href="#d"/>
<use x="134.673" y="102.69" xlink:href="#f"/>
<use x="139.677" y="102.69" xlink:href="#j"/>
<use x="12.926" y="102.24" xlink:href="#o"/>
<use x="17.93" y="102.24" xlink:href="#b"/>
<use x="19.928" y="102.24" xlink:href="#j"/>
<use x="70.17482" y="102.24" xlink:href="#q"/>
<use x="75.17882" y="102.24" xlink:href="#k"/>
<use x="80.18282" y="102.24" xlink:href="#m"/>
<use x="71.1783" y="57.24" xlink:href="#l"/>
<use x="76.1823" y="57.24" xlink:href="#e"/>
<use x="80.6823" y="57.24" xlink:href="#c"/>
<use x="304.1743" y="57.69" xlink:href="#q"/>
<use x="309.1783" y="57.69" xlink:href="#a"/>
<use x="314.1823" y="57.69" xlink:href="#n"/>
<use x="241.6739" y="57.24" xlink:href="#p"/>
<use x="246.6779" y="57.24" xlink:href="#k"/>
<use x="251.6819" y="57.24" xlink:href="#d"/>
<use x="259.1789" y="57.24" xlink:href="#a"/>
<use x="273.9302" y="147.24" xlink:href="#d"/>
<use x="281.4272" y="147.24" xlink:href="#f"/>
<use x="286.4312" y="147.24" xlink:href="#b"/>
<use x="288.4292" y="147.24" xlink:href="#i"/>
<use x="210.1743" y="147.69" xlink:href="#g"/>
<use x="215.1783" y="147.69" xlink:href="#c"/>
<use x="218.1753" y="147.69" xlink:href="#k"/>
<use x="223.1793" y="147.69" xlink:href="#y"/>
<use x="225.1773" y="147.69" xlink:href="#a"/>
<use x="230.1813" y="147.69" xlink:href="#s"/>
<use x="234.6813" y="147.69" xlink:href="#h"/>
</g>
<path transform="matrix(.1 0 0 -.1 .528 243.94)" d="m1174 1804h360v180h-360z" fill="none" stroke="#000" stroke-miterlimit="10" stroke-width="2.25"/>
</svg>
