<svg width="178pt" height="170pt" version="1.1" viewBox="0 0 178 170" xmlns="http://www.w3.org/2000/svg">
<defs>
<clipPath id="d">
<path d="m19 128h47v41.684h-47z"/>
</clipPath>
<clipPath id="c">
<path d="m142 40h35.527v46h-35.527z"/>
</clipPath>
<clipPath id="b">
<path d="m0.52734 43h35.473v46h-35.473z"/>
</clipPath>
<clipPath id="a">
<path d="m112 128h47v41.684h-47z"/>
</clipPath>
</defs>
<g clip-path="url(#d)">
<path transform="matrix(.1 0 0 -.1 .528 169.68)" d="m487.18 5.9216-262.07 190.43 127.07 174.61 262.11-190.43zm0 0" fill="none" stroke="#000" stroke-linecap="round" stroke-miterlimit="10" stroke-width="2.7"/>
</g>
<path transform="matrix(.1 0 0 -.1 .528 169.68)" d="m696.01 934.01c0-59.648-48.359-108.01-108.01-108.01-59.648 0-108.01 48.359-108.01 108.01 0 59.648 48.359 108.01 108.01 108.01 59.648 0 108.01-48.359 108.01-108.01zm0 0" fill="none" stroke="#000" stroke-linecap="round" stroke-miterlimit="10" stroke-width="2.7"/>
<path transform="matrix(.1 0 0 -.1 .528 169.68)" d="m804.02 556c0-59.648-48.359-108.01-108.01-108.01-59.648 0-108.01 48.359-108.01 108.01 0 59.648 48.359 108.01 108.01 108.01 59.648 0 108.01-48.359 108.01-108.01zm0 0" fill="none" stroke="#000" stroke-linecap="round" stroke-miterlimit="10" stroke-width="2.7"/>
<path transform="matrix(.1 0 0 -.1 .528 169.68)" d="m1182 556c0-59.648-48.359-108.01-107.97-108.01-59.648 0-108.01 48.359-108.01 108.01 0 59.648 48.359 108.01 108.01 108.01 59.609 0 107.97-48.359 107.97-108.01zm0 0" fill="none" stroke="#000" stroke-linecap="round" stroke-miterlimit="10" stroke-width="2.7"/>
<path transform="matrix(.1 0 0 -.1 .528 169.68)" d="m1317 934.01c0-59.648-48.359-108.01-107.97-108.01-59.648 0-108.01 48.359-108.01 108.01 0 59.648 48.359 108.01 108.01 108.01 59.609 0 107.97-48.359 107.97-108.01zm0 0" fill="none" stroke="#000" stroke-linecap="round" stroke-miterlimit="10" stroke-width="2.7"/>
<path transform="matrix(.1 0 0 -.1 .528 169.68)" d="m1435.8 826c0-304.18-246.6-550.78-550.82-550.78-304.18 0-550.78 246.6-550.78 550.78 0 304.22 246.6 550.78 550.78 550.78 304.22 0 550.82-246.56 550.82-550.78zm0 0" fill="none" stroke="#000" stroke-linecap="round" stroke-miterlimit="10" stroke-width="5.4"/>
<path transform="matrix(.1 0 0 -.1 .528 169.68)" d="m676.91 750.41-205.2-66.602" fill="none" stroke="#000" stroke-linecap="round" stroke-miterlimit="10" stroke-width="10.8"/>
<path transform="matrix(.1 0 0 -.1 .528 169.68)" d="m1093.1 755.8 205.2-66.953" fill="none" stroke="#000" stroke-linecap="round" stroke-miterlimit="10" stroke-width="10.8"/>
<path transform="matrix(.1 0 0 -.1 .528 169.68)" d="m1017.1 1006.7 126.72 174.61" fill="none" stroke="#000" stroke-linecap="round" stroke-miterlimit="10" stroke-width="10.8"/>
<path transform="matrix(.1 0 0 -.1 .528 169.68)" d="m756.83 1007.1-126.72 174.57" fill="none" stroke="#000" stroke-linecap="round" stroke-miterlimit="10" stroke-width="10.8"/>
<path transform="matrix(.1 0 0 -.1 .528 169.68)" d="m884.99 615.02v-215.62" fill="none" stroke="#000" stroke-linecap="round" stroke-miterlimit="10" stroke-width="10.8"/>
<g clip-path="url(#c)">
<path transform="matrix(.1 0 0 -.1 .528 169.68)" d="m1665.5 1254.7 100.12-308.16-205.59-66.602-100.08 308.16zm0 0" fill="none" stroke="#000" stroke-linecap="round" stroke-miterlimit="10" stroke-width="2.7"/>
</g>
<g clip-path="url(#b)">
<path transform="matrix(.1 0 0 -.1 .528 169.68)" d="m4.4466 919.59 100.08 308.16 205.55-66.602-100.08-308.16zm0 0" fill="none" stroke="#000" stroke-linecap="round" stroke-miterlimit="10" stroke-width="2.7"/>
</g>
<path transform="matrix(.1 0 0 -.1 .528 169.68)" d="m723 1474h323.98v215.98h-323.98zm0 0" fill="none" stroke="#000" stroke-linecap="round" stroke-miterlimit="10" stroke-width="2.7"/>
<g clip-path="url(#a)">
<path transform="matrix(.1 0 0 -.1 .528 169.68)" d="m1546 194.91-262.11-190.43-127.07 174.61 262.07 190.43zm0 0" fill="none" stroke="#000" stroke-linecap="round" stroke-miterlimit="10" stroke-width="2.7"/>
</g>
<path transform="matrix(.1 0 0 -.1 .528 169.68)" d="m993 1150c0-59.609-48.359-107.97-108.01-107.97-59.648 0-108.01 48.359-108.01 107.97 0 59.648 48.359 108.01 108.01 108.01 59.648 0 108.01-48.359 108.01-108.01zm0 0" fill="none" stroke="#000" stroke-linecap="round" stroke-miterlimit="10" stroke-width="2.7"/>
</svg>
