<svg width="398pt" height="336pt" version="1.1" viewBox="0 0 398 336" xmlns="http://www.w3.org/2000/svg" xmlns:xlink="http://www.w3.org/1999/xlink">
<defs>
<g id="ab">
<path d="m0.625-4.7188v4.7188h0.76562v-2.9688c0-0.67188 0.48438-1.2188 1.1094-1.2188 0.54688 0 0.85938 0.32812 0.85938 0.9375v3.25h0.76562v-2.9688c0-0.67188 0.48438-1.2188 1.1094-1.2188 0.54688 0 0.875 0.34375 0.875 0.9375v3.25h0.75v-3.5312c0-0.85938-0.48438-1.3125-1.375-1.3125-0.625 0-1 0.1875-1.4375 0.71875-0.28125-0.51562-0.65625-0.71875-1.2812-0.71875s-1.0312 0.23438-1.4375 0.79688v-0.67188z"/>
</g>
<g id="ao">
<path d="m3.4844-4.7188-1.2969 3.6719-1.2031-3.6719h-0.79688l1.5781 4.7344-0.28125 0.75c-0.10938 0.32812-0.28125 0.45312-0.60938 0.45312-0.09375 0-0.23438-0.015625-0.39062-0.046875v0.67188c0.15625 0.078125 0.3125 0.125 0.5 0.125 0.25 0 0.51562-0.09375 0.70312-0.23438 0.23438-0.17188 0.375-0.35938 0.51562-0.75l2.0938-5.7031z"/>
</g>
<g id="o">
<path d="m0.48438 1.9688h0.75v-2.4688c0.40625 0.48438 0.84375 0.70312 1.4531 0.70312 1.2188 0 2.0156-0.98438 2.0156-2.4844 0-1.5781-0.76562-2.5625-2.0156-2.5625-0.64062 0-1.1562 0.28125-1.5156 0.84375v-0.71875h-0.6875zm2.0781-6.125c0.82812 0 1.3594 0.73438 1.3594 1.8594 0 1.0781-0.54688 1.7969-1.3594 1.7969-0.79688 0-1.3281-0.71875-1.3281-1.8281 0-1.0938 0.53125-1.8281 1.3281-1.8281z"/>
</g>
<g id="h">
<path d="m0.625-4.7188v4.7188h0.75v-2.4531c0-0.67188 0.17188-1.1094 0.53125-1.375 0.23438-0.17188 0.45312-0.21875 0.98438-0.23438v-0.76562c-0.125-0.015625-0.1875-0.015625-0.29688-0.015625-0.48438 0-0.84375 0.28125-1.2812 0.98438v-0.85938z"/>
</g>
<g id="k">
<path d="m2.4531-4.8438c-1.3281 0-2.125 0.9375-2.125 2.5156 0 1.5938 0.78125 2.5312 2.125 2.5312 1.3281 0 2.1406-0.9375 2.1406-2.4844 0-1.6406-0.78125-2.5625-2.1406-2.5625zm0 0.6875c0.84375 0 1.3594 0.6875 1.3594 1.8594 0 1.1094-0.53125 1.8125-1.3594 1.8125s-1.3438-0.6875-1.3438-1.8438c0-1.125 0.51562-1.8281 1.3438-1.8281z"/>
</g>
<g id="w">
<path d="m3.7031-4.7188v0.6875c-0.375-0.5625-0.82812-0.8125-1.4375-0.8125-1.1875 0-2 1.0312-2 2.5625 0 0.78125 0.20312 1.4062 0.59375 1.8594 0.34375 0.39062 0.84375 0.625 1.3438 0.625 0.59375 0 1.0156-0.25 1.4375-0.84375v0.25c0 0.64062-0.078125 1.0156-0.28125 1.2812-0.1875 0.28125-0.57812 0.4375-1.0312 0.4375-0.34375 0-0.65625-0.09375-0.85938-0.25-0.17188-0.14062-0.25-0.26562-0.29688-0.53125h-0.76562c0.09375 0.89062 0.78125 1.4219 1.8906 1.4219 0.70312 0 1.2969-0.23438 1.6094-0.60938 0.35938-0.4375 0.5-1.0312 0.5-2.1406v-3.9375zm-1.3594 0.5625c0.8125 0 1.2969 0.6875 1.2969 1.8594 0 1.125-0.48438 1.8125-1.2812 1.8125-0.82812 0-1.3125-0.6875-1.3125-1.8438 0-1.125 0.5-1.8281 1.2969-1.8281z"/>
</g>
<g id="n">
<path d="m4.8125-0.4375c-0.078125 0.015625-0.10938 0.015625-0.15625 0.015625-0.26562 0-0.40625-0.14062-0.40625-0.375v-2.7656c0-0.84375-0.60938-1.2812-1.7812-1.2812-0.67188 0-1.25 0.1875-1.5625 0.54688-0.21875 0.23438-0.29688 0.51562-0.32812 0.96875h0.76562c0.0625-0.5625 0.40625-0.82812 1.1094-0.82812 0.67188 0 1.0469 0.25 1.0469 0.70312v0.1875c0 0.32812-0.1875 0.45312-0.78125 0.53125-1.0625 0.14062-1.2188 0.17188-1.5156 0.28125-0.54688 0.23438-0.82812 0.65625-0.82812 1.2656 0 0.85938 0.59375 1.3906 1.5469 1.3906 0.59375 0 1.0781-0.20312 1.6094-0.6875 0.046875 0.46875 0.28125 0.6875 0.76562 0.6875 0.15625 0 0.28125-0.015625 0.51562-0.078125zm-1.3125-1.0469c0 0.25-0.078125 0.40625-0.29688 0.60938-0.3125 0.28125-0.67188 0.42188-1.1094 0.42188-0.59375 0-0.9375-0.28125-0.9375-0.75 0-0.5 0.34375-0.75 1.1406-0.85938s0.95312-0.15625 1.2031-0.26562z"/>
</g>
<g id="j">
<path d="m2.3281-4.7188h-0.79688v-0.73438c0-0.3125 0.1875-0.48438 0.53125-0.48438 0.0625 0 0.09375 0 0.26562 0.015625v-0.625c-0.17188-0.03125-0.28125-0.046875-0.42188-0.046875-0.70312 0-1.1094 0.40625-1.1094 1.0781v0.79688h-0.64062v0.60938h0.64062v4.1094h0.73438v-4.1094h0.79688z"/>
</g>
<g id="v">
<path d="m1.375-6.5625h-0.76562v6.5625h0.76562z"/>
</g>
<g id="q">
<path d="m1.3438-4.7188h-0.73438v4.7188h0.73438zm0-1.8438h-0.75v0.95312h0.75z"/>
</g>
<g id="f">
<path d="m1.9844-2.9219h0.10938l0.32812-0.015625c0.875 0 1.3281 0.40625 1.3281 1.1719 0 0.79688-0.5 1.2656-1.3281 1.2656-0.85938 0-1.2812-0.42188-1.3438-1.3594h-0.79688c0.046875 0.51562 0.125 0.84375 0.28125 1.1406 0.32812 0.60938 0.95312 0.92188 1.8281 0.92188 1.3125 0 2.1562-0.78125 2.1562-1.9844 0-0.8125-0.3125-1.2656-1.0781-1.5156 0.59375-0.23438 0.89062-0.6875 0.89062-1.3281 0-1.0938-0.71875-1.75-1.9375-1.75-1.2812 0-1.9688 0.70312-2 2.0625h0.79688c0-0.39062 0.046875-0.60938 0.14062-0.8125 0.17188-0.34375 0.57812-0.5625 1.0781-0.5625 0.6875 0 1.125 0.40625 1.125 1.0938 0 0.4375-0.17188 0.71875-0.51562 0.85938-0.21875 0.09375-0.5 0.125-1.0625 0.14062z"/>
</g>
<g id="g">
<path d="m4.4844-4.7188c-0.15625-1.0469-0.84375-1.6562-1.8125-1.6562-0.70312 0-1.3281 0.34375-1.7031 0.90625-0.40625 0.625-0.57812 1.4062-0.57812 2.5625 0 1.0625 0.15625 1.75 0.53125 2.3281 0.34375 0.5 0.90625 0.78125 1.6094 0.78125 1.2188 0 2.0781-0.89062 2.0781-2.1406 0-1.1875-0.79688-2.0312-1.9531-2.0312-0.625 0-1.125 0.25-1.4531 0.70312 0-1.5469 0.5-2.4062 1.4219-2.4062 0.54688 0 0.9375 0.34375 1.0625 0.95312zm-1.9219 1.4531c0.76562 0 1.25 0.53125 1.25 1.3906 0 0.79688-0.54688 1.375-1.2812 1.375s-1.2969-0.60938-1.2969-1.4219c0-0.79688 0.54688-1.3438 1.3281-1.3438z"/>
</g>
<g id="d">
<path d="m2.3281-4.5469v4.5469h0.79688v-6.375h-0.53125c-0.26562 0.96875-0.45312 1.1094-1.6719 1.2656v0.5625z"/>
</g>
<g id="aa">
<path d="m4.5469-0.78125h-3.3438c0.078125-0.53125 0.35938-0.85938 1.1406-1.3125l0.90625-0.48438c0.89062-0.48438 1.3438-1.1406 1.3438-1.9375 0-0.53125-0.20312-1.0156-0.59375-1.3594-0.375-0.34375-0.84375-0.5-1.4375-0.5-0.8125 0-1.4219 0.28125-1.7656 0.82812-0.23438 0.32812-0.32812 0.73438-0.34375 1.375h0.78125c0.03125-0.42188 0.09375-0.6875 0.20312-0.89062 0.20312-0.39062 0.60938-0.625 1.0938-0.625 0.71875 0 1.25 0.51562 1.25 1.2031 0 0.5-0.29688 0.92188-0.85938 1.25l-0.82812 0.46875c-1.3281 0.76562-1.7188 1.3594-1.7812 2.7656h4.2344z"/>
</g>
<g id="z">
<path d="m2.4688-6.375c-0.59375 0-1.125 0.25-1.4531 0.70312-0.42188 0.54688-0.625 1.4062-0.625 2.5781 0 2.1562 0.71875 3.2969 2.0781 3.2969s2.0938-1.1406 2.0938-3.2344c0-1.25-0.20312-2.0781-0.625-2.6406-0.32812-0.45312-0.85938-0.70312-1.4688-0.70312zm0 0.70312c0.85938 0 1.2812 0.85938 1.2812 2.5625 0 1.8125-0.40625 2.6562-1.2969 2.6562-0.82812 0-1.25-0.875-1.25-2.625s0.42188-2.5938 1.2656-2.5938z"/>
</g>
<g id="i">
<path d="m3.5156-3.3594c0.65625-0.39062 0.875-0.71875 0.875-1.3281 0-0.98438-0.78125-1.6875-1.9219-1.6875-1.125 0-1.9062 0.70312-1.9062 1.6875 0 0.59375 0.21875 0.92188 0.85938 1.3281-0.73438 0.35938-1.0938 0.89062-1.0938 1.5938 0 1.1562 0.89062 1.9688 2.1406 1.9688 1.2656 0 2.1406-0.8125 2.1406-1.9688 0-0.70312-0.35938-1.2344-1.0938-1.5938zm-1.0469-2.3125c0.6875 0 1.1094 0.39062 1.1094 1.0156 0 0.59375-0.4375 0.98438-1.1094 0.98438-0.65625 0-1.0938-0.39062-1.0938-1s0.4375-1 1.0938-1zm0 2.6719c0.79688 0 1.3438 0.5 1.3438 1.25s-0.54688 1.25-1.3594 1.25c-0.76562 0-1.3125-0.51562-1.3125-1.25 0-0.75 0.54688-1.25 1.3281-1.25z"/>
</g>
<g id="aq">
<path d="m3.5312 0 2.2812-6.5625h-0.90625l-1.8125 5.5469-1.9219-5.5469h-0.90625l2.3594 6.5625z"/>
</g>
<g id="e">
<path d="m4.6094-2.1094c0-0.71875-0.046875-1.1562-0.1875-1.5-0.29688-0.78125-1.0156-1.2344-1.9062-1.2344-1.3125 0-2.1562 1-2.1562 2.5469s0.8125 2.5 2.1406 2.5c1.0781 0 1.8281-0.60938 2.0156-1.6406h-0.75c-0.20312 0.625-0.64062 0.95312-1.2344 0.95312-0.48438 0-0.89062-0.21875-1.1406-0.60938-0.17188-0.28125-0.23438-0.54688-0.25-1.0156zm-3.4531-0.60938c0.0625-0.875 0.59375-1.4375 1.3594-1.4375 0.73438 0 1.2969 0.60938 1.2969 1.3906v0.046875z"/>
</g>
<g id="ap">
<path d="m3.9844-4.7188h-3.5156v0.65625h2.625l-2.8125 3.3906v0.67188h3.8281v-0.65625h-2.9219l2.7969-3.3906z"/>
</g>
<g id="an">
<path d="m4.2344-3.125c-0.03125-0.46875-0.125-0.76562-0.3125-1.0312-0.32812-0.4375-0.89062-0.6875-1.5469-0.6875-1.2656 0-2.0938 1-2.0938 2.5625 0 1.5312 0.8125 2.4844 2.0781 2.4844 1.125 0 1.8438-0.67188 1.9375-1.8281h-0.76562c-0.125 0.76562-0.5 1.1406-1.1406 1.1406-0.82812 0-1.3281-0.67188-1.3281-1.7969 0-1.1719 0.48438-1.875 1.2969-1.875 0.64062 0 1.0312 0.375 1.125 1.0312z"/>
</g>
<g id="am">
<path d="m0.625-6.5625v6.5625h0.75v-2.5938c0-0.96875 0.5-1.5938 1.2812-1.5938 0.23438 0 0.48438 0.078125 0.67188 0.20312 0.20312 0.15625 0.29688 0.39062 0.29688 0.71875v3.2656h0.75v-3.5625c0-0.79688-0.5625-1.2812-1.4844-1.2812-0.67188 0-1.0781 0.20312-1.5156 0.78125v-2.5z"/>
</g>
<g id="y">
<path d="m0.625-4.7188v4.7188h0.76562v-2.5938c0-0.96875 0.5-1.5938 1.2656-1.5938 0.60938 0 0.98438 0.35938 0.98438 0.92188v3.2656h0.75v-3.5625c0-0.78125-0.59375-1.2812-1.5-1.2812-0.70312 0-1.1562 0.26562-1.5625 0.92188v-0.79688z"/>
</g>
<g id="al">
<path d="m3.9375-3.4062c0-0.92188-0.60938-1.4375-1.7031-1.4375s-1.8125 0.5625-1.8125 1.4375c0 0.73438 0.375 1.0781 1.5 1.3594l0.70312 0.17188c0.51562 0.125 0.71875 0.3125 0.71875 0.65625 0 0.4375-0.4375 0.73438-1.0938 0.73438-0.40625 0-0.75-0.125-0.9375-0.3125-0.10938-0.14062-0.17188-0.28125-0.21875-0.60938h-0.78125c0.03125 1.0938 0.64062 1.6094 1.875 1.6094 1.1875 0 1.9375-0.57812 1.9375-1.4844 0-0.70312-0.39062-1.0938-1.3281-1.3125l-0.71875-0.17188c-0.60938-0.15625-0.875-0.34375-0.875-0.6875 0-0.42188 0.39062-0.70312 1-0.70312s0.92188 0.26562 0.95312 0.75z"/>
</g>
<g id="ak">
<path d="m1.6562-2.7812h2.0625c0.51562 0 0.92188-0.15625 1.2656-0.46875 0.39062-0.35938 0.5625-0.78125 0.5625-1.3906 0-1.2344-0.71875-1.9219-2.0156-1.9219h-2.7188v6.5625h0.84375zm0-0.73438v-2.3125h1.75c0.79688 0 1.2812 0.4375 1.2812 1.1562s-0.48438 1.1562-1.2812 1.1562z"/>
</g>
<g id="aj">
<path d="m0.625-4.7188v5.4062c0 0.46875-0.14062 0.625-0.60938 0.625-0.03125 0-0.03125 0-0.17188-0.015625v0.64062c0.078125 0.015625 0.125 0.03125 0.25 0.03125 0.84375 0 1.2812-0.34375 1.2812-0.98438v-5.7031zm0.75-1.8438h-0.75v0.95312h0.75z"/>
</g>
<g id="ai">
<path d="m1.2656-6.5625h-0.75v6.5625h0.75v-1.8438l0.73438-0.71875 1.5938 2.5625h0.92188l-1.9219-3.0938 1.6406-1.625h-0.96875l-2 2z"/>
</g>
<g id="l">
<path d="m2.2812-4.7188h-0.76562v-1.2969h-0.75v1.2969h-0.64062v0.60938h0.64062v3.5625c0 0.48438 0.32812 0.75 0.90625 0.75 0.1875 0 0.35938-0.015625 0.60938-0.0625v-0.625c-0.09375 0.03125-0.21875 0.03125-0.35938 0.03125-0.3125 0-0.40625-0.09375-0.40625-0.42188v-3.2344h0.76562z"/>
</g>
<g id="ah">
<path d="m4.2188 0 1.8438-5.5v5.5h0.78125v-6.5625h-1.1562l-1.9062 5.7188-1.9375-5.7188h-1.1719v6.5625h0.79688v-5.5l1.8594 5.5z"/>
</g>
<g id="p">
<path d="m1.7188-0.9375h-0.9375v0.9375h0.9375z"/>
</g>
<g id="x">
<path d="m4.2812-6.375h-3.2969l-0.46875 3.4688h0.71875c0.375-0.4375 0.6875-0.59375 1.1719-0.59375 0.85938 0 1.4062 0.57812 1.4062 1.5312 0 0.92188-0.53125 1.4688-1.4062 1.4688-0.6875 0-1.1094-0.34375-1.2969-1.0625h-0.79688c0.10938 0.51562 0.20312 0.76562 0.39062 1 0.35938 0.48438 1 0.76562 1.7344 0.76562 1.2812 0 2.1719-0.9375 2.1719-2.2812 0-1.2656-0.82812-2.125-2.0469-2.125-0.45312 0-0.8125 0.10938-1.1875 0.39062l0.25-1.7812h2.6562z"/>
</g>
<g id="ag">
<path d="m1.6406-2.9844h3.1406v-0.73438h-3.1406v-2.1094h3.5781v-0.73438h-4.4062v6.5625h0.82812z"/>
</g>
<g id="af">
<path d="m4.2656-1.9688 0.67188 1.9688h0.9375l-2.2969-6.5625h-1.0781l-2.3438 6.5625h0.89062l0.6875-1.9688zm-0.23438-0.70312h-2.0938l1.0938-2.9844z"/>
</g>
<g id="ae">
<path d="m3.1875-5.8281h2.1562v-0.73438h-5.1562v0.73438h2.1562v5.8281h0.84375z"/>
</g>
<g id="a">
<path d="m1.5938-2.3438h0.34375c0.70312 0 1.0625 0.3125 1.0625 0.92188 0 0.64062-0.40625 1.0312-1.0625 1.0312-0.6875 0-1.0312-0.34375-1.0781-1.0938h-0.625c0.03125 0.40625 0.09375 0.67188 0.21875 0.90625 0.26562 0.48438 0.76562 0.75 1.4688 0.75 1.0469 0 1.7188-0.64062 1.7188-1.5938 0-0.65625-0.25-1.0156-0.85938-1.2188 0.46875-0.1875 0.71875-0.54688 0.71875-1.0625 0-0.875-0.59375-1.4062-1.5625-1.4062-1.0312 0-1.5781 0.5625-1.5938 1.6562h0.625c0.015625-0.3125 0.046875-0.48438 0.125-0.64062 0.14062-0.28125 0.45312-0.45312 0.84375-0.45312 0.5625 0 0.90625 0.32812 0.90625 0.85938 0 0.35938-0.125 0.57812-0.40625 0.70312-0.17188 0.0625-0.40625 0.09375-0.84375 0.10938z"/>
</g>
<g id="c">
<path d="m3.5938-3.7812c-0.125-0.82812-0.67188-1.3281-1.4531-1.3281-0.5625 0-1.0625 0.28125-1.375 0.73438-0.3125 0.5-0.45312 1.125-0.45312 2.0469 0 0.85938 0.125 1.4062 0.42188 1.8594 0.28125 0.40625 0.73438 0.64062 1.2969 0.64062 0.96875 0 1.6562-0.71875 1.6562-1.7344 0-0.9375-0.64062-1.6094-1.5625-1.6094-0.5 0-0.89062 0.1875-1.1719 0.5625 0.015625-1.25 0.42188-1.9375 1.1406-1.9375 0.45312 0 0.76562 0.28125 0.85938 0.76562zm-1.5469 1.1719c0.625 0 1 0.42188 1 1.1094 0 0.64062-0.4375 1.1094-1.0156 1.1094-0.59375 0-1.0312-0.5-1.0312-1.1562 0-0.625 0.42188-1.0625 1.0469-1.0625z"/>
</g>
<g id="ad">
<path d="m2.3594-1.2188v1.2188h0.625v-1.2188h0.76562v-0.57812h-0.76562v-3.3125h-0.46875l-2.3125 3.2188v0.67188zm0-0.57812h-1.6094l1.6094-2.2344z"/>
</g>
<g id="ac">
<path d="m3.4219-5.1094h-2.625l-0.39062 2.7812h0.59375c0.29688-0.34375 0.53125-0.46875 0.9375-0.46875 0.67188 0 1.1094 0.46875 1.1094 1.2188 0 0.73438-0.42188 1.1875-1.1094 1.1875-0.5625 0-0.90625-0.28125-1.0469-0.85938h-0.64062c0.09375 0.42188 0.15625 0.60938 0.3125 0.79688 0.28125 0.39062 0.8125 0.625 1.375 0.625 1.0312 0 1.75-0.75 1.75-1.8281 0-1.0156-0.65625-1.7031-1.6406-1.7031-0.35938 0-0.65625 0.09375-0.9375 0.3125l0.1875-1.4375h2.125z"/>
</g>
<g id="t">
<path d="m1.9844-5.1094c-0.48438 0-0.90625 0.21875-1.1719 0.5625-0.34375 0.45312-0.5 1.125-0.5 2.0781 0 1.7188 0.57812 2.6406 1.6719 2.6406 1.0781 0 1.6719-0.92188 1.6719-2.5938 0-1-0.15625-1.6562-0.5-2.125-0.26562-0.35938-0.6875-0.5625-1.1719-0.5625zm0 0.5625c0.6875 0 1.0156 0.6875 1.0156 2.0625 0 1.4531-0.32812 2.125-1.0312 2.125-0.67188 0-1.0156-0.70312-1.0156-2.1094 0-1.3906 0.34375-2.0781 1.0312-2.0781z"/>
</g>
<g id="b">
<path d="m1.8594-3.6406v3.6406h0.64062v-5.1094h-0.42188c-0.21875 0.78125-0.35938 0.89062-1.3438 1.0156v0.45312z"/>
</g>
<g id="m">
<path d="m3.6406-0.625h-2.6875c0.0625-0.42188 0.29688-0.6875 0.92188-1.0469l0.71875-0.39062c0.71875-0.39062 1.0938-0.92188 1.0938-1.5469 0-0.42188-0.17188-0.82812-0.48438-1.0938-0.29688-0.28125-0.67188-0.40625-1.1562-0.40625-0.65625 0-1.125 0.23438-1.4062 0.67188-0.1875 0.26562-0.26562 0.57812-0.28125 1.1094h0.64062c0.015625-0.35938 0.0625-0.5625 0.14062-0.73438 0.17188-0.29688 0.5-0.48438 0.89062-0.48438 0.5625 0 1 0.40625 1 0.95312 0 0.40625-0.23438 0.75-0.6875 1.0156l-0.67188 0.35938c-1.0625 0.60938-1.375 1.0938-1.4219 2.2188h3.3906z"/>
</g>
<g id="s">
<path d="m3.75-5.1094h-3.4219v0.625h2.7656c-1.2188 1.7344-1.7188 2.8125-2.0938 4.4844h0.67188c0.28125-1.6406 0.92188-3.0469 2.0781-4.5781z"/>
</g>
<g id="r">
<path d="m2.8125-2.6875c0.53125-0.3125 0.70312-0.57812 0.70312-1.0625 0-0.79688-0.625-1.3594-1.5312-1.3594s-1.5312 0.5625-1.5312 1.3594c0 0.48438 0.17188 0.73438 0.6875 1.0625-0.59375 0.28125-0.875 0.70312-0.875 1.2656 0 0.9375 0.70312 1.5938 1.7188 1.5938 1 0 1.7031-0.65625 1.7031-1.5781 0-0.57812-0.28125-1-0.875-1.2812zm-0.82812-1.8594c0.53125 0 0.875 0.3125 0.875 0.8125 0 0.48438-0.34375 0.79688-0.875 0.79688s-0.89062-0.3125-0.89062-0.79688c0-0.5 0.35938-0.8125 0.89062-0.8125zm0 2.1406c0.625 0 1.0625 0.40625 1.0625 1 0 0.60938-0.4375 1.0156-1.0781 1.0156-0.625 0-1.0469-0.42188-1.0469-1.0156s0.42188-1 1.0625-1z"/>
</g>
<g id="u">
<path d="m0.375-1.1719c0.125 0.84375 0.67188 1.3438 1.4531 1.3438 0.5625 0 1.0781-0.28125 1.375-0.73438 0.3125-0.5 0.46875-1.125 0.46875-2.0469 0-0.85938-0.14062-1.4062-0.4375-1.8594-0.28125-0.42188-0.73438-0.64062-1.2969-0.64062-0.96875 0-1.6562 0.71875-1.6562 1.7188 0 0.95312 0.64062 1.625 1.5625 1.625 0.48438 0 0.82812-0.17188 1.1719-0.5625-0.015625 1.2344-0.42188 1.9375-1.1406 1.9375-0.45312 0-0.76562-0.28125-0.85938-0.78125zm1.5625-3.375c0.59375 0 1.0312 0.48438 1.0312 1.1406 0 0.64062-0.4375 1.0781-1.0469 1.0781-0.625 0-1-0.42188-1-1.1094 0-0.64062 0.4375-1.1094 1.0156-1.1094z"/>
</g>
<clipPath id="bp">
<path d="m258 240h139.53v34h-139.53z"/>
</clipPath>
<clipPath id="bo">
<path d="m0.52734 72h82.473v109h-82.473z"/>
</clipPath>
<clipPath id="bd">
<path d="m396 16h1.5273v287h-1.5273z"/>
</clipPath>
<clipPath id="ax">
<path d="m261 286h136.53v17h-136.53z"/>
</clipPath>
<clipPath id="aw">
<path d="m396 13h1.5273v290h-1.5273z"/>
</clipPath>
<clipPath id="av">
<path d="m81 99h38v1h-38z"/>
</clipPath>
<clipPath id="au">
<path d="m0.52734-0.17188v337h397v-337zm113.32 100.6h4.5312v-1.8008h-4.5312l3.6016 0.89844z" clip-rule="evenodd"/>
</clipPath>
<clipPath id="at">
<path d="m81 153h38v1h-38z"/>
</clipPath>
<clipPath id="as">
<path d="m0.52734-0.17188v337h397v-337zm113.32 154.6h4.5312v-1.8008h-4.5312l3.6016 0.89844z" clip-rule="evenodd"/>
</clipPath>
<clipPath id="ar">
<path d="m198 99h11v105h-11z"/>
</clipPath>
<clipPath id="bn">
<path d="m0.52734-0.17188v337h397v-337zm202.48 202.3h-4.5312v1.8008h4.5312l-3.6016-0.90234z" clip-rule="evenodd"/>
</clipPath>
<clipPath id="bm">
<path d="m198 67h20v146h-20z"/>
</clipPath>
<clipPath id="bl">
<path d="m0.52734-0.17188v337h397v-337zm202.48 67.301h-4.5312v1.8008h4.5312l-3.6016-0.90234z" clip-rule="evenodd"/>
</clipPath>
<clipPath id="bk">
<path d="m198 58h29v222h-29z"/>
</clipPath>
<clipPath id="bj">
<path d="m0.52734-0.17188v337h397v-337zm202.48 278.8h-4.5312v1.8008h4.5312l-3.6016-0.90234z" clip-rule="evenodd"/>
</clipPath>
<clipPath id="bi">
<path d="m300 88h41v176h-41z"/>
</clipPath>
<clipPath id="bh">
<path d="m0.52734-0.17188v337h397v-337zm337.06 261.13 2.6094 3.6875 1.4688-1.0508-2.6406-3.6875 1.3789 3.4805z" clip-rule="evenodd"/>
</clipPath>
<clipPath id="bg">
<path d="m315 113h60v71h-60z"/>
</clipPath>
<clipPath id="bf">
<path d="m0.52734-0.17188v337h397v-337zm369.28 182.86 4.2891 1.5312 0.60156-1.7109-4.2617-1.5 3.0898 2.0703z" clip-rule="evenodd"/>
</clipPath>
<clipPath id="be">
<path d="m316 86h59v93h-59z"/>
</clipPath>
<clipPath id="bc">
<path d="m0.52734-0.17188v337h397v-337zm319.57 89.621-2.8789-3.4492-1.3789 1.1406 2.8789 3.4766-1.5898-3.3281z" clip-rule="evenodd"/>
</clipPath>
<clipPath id="bb">
<path d="m258 0h139.53v31h-139.53z"/>
</clipPath>
<clipPath id="ba">
<path d="m258 285h139.53v34h-139.53z"/>
</clipPath>
<clipPath id="az">
<path d="m258 78h139.53v34h-139.53z"/>
</clipPath>
<clipPath id="ay">
<path d="m258 159h139.53v34h-139.53z"/>
</clipPath>
</defs>
<path transform="matrix(.1 0 0 -.1 .528 336.83)" d="m1444 303.02h540v180h-540z" fill="none" stroke="#000" stroke-miterlimit="10" stroke-width="2.25"/>
<path transform="matrix(.1 0 0 -.1 .528 336.83)" d="m1444 2823h540v180h-540z" fill="none" stroke="#000" stroke-miterlimit="10" stroke-width="2.25"/>
<path transform="matrix(.1 0 0 -.1 .528 336.83)" d="m1444 2283h540v180h-540z" fill="#e5e5e5" fill-rule="evenodd" stroke="#000" stroke-miterlimit="10" stroke-width="2.25"/>
<path transform="matrix(.1 0 0 -.1 .528 336.83)" d="m1444 1203h540v180h-540z" fill="#e5e5e5" fill-rule="evenodd" stroke="#000" stroke-miterlimit="10" stroke-width="2.25"/>
<g clip-path="url(#bp)">
<path transform="matrix(.1 0 0 -.1 .528 336.83)" d="m3964 798.02c0-74.57-302.23-135-675-135-372.81 0-675 60.43-675 135 0 74.531 302.19 135 675 135 372.77 0 675-60.469 675-135z" fill="none" stroke="#000" stroke-dasharray="18" stroke-miterlimit="10" stroke-width="2.25"/>
</g>
<g clip-path="url(#bo)">
<path transform="matrix(.1 0 0 -.1 .528 336.83)" d="m4.0169 1563h810v1080h-810z" fill="none" stroke="#000" stroke-miterlimit="10" stroke-width="2.25"/>
</g>
<path transform="matrix(.1 0 0 -.1 .528 336.83)" d="m2612.8 2598h2.3828" fill="none" stroke="#000" stroke-miterlimit="10" stroke-width="2.25"/>
<path transform="matrix(.1 0 0 -.1 .528 336.83)" d="m2614 3228v-2880" fill="none" stroke="#000" stroke-miterlimit="10" stroke-width="2.25"/>
<g clip-path="url(#bd)">
<path transform="matrix(.1 0 0 -.1 .528 336.83)" d="m3964 3205.5v-2857.5" fill="none" stroke="#000" stroke-miterlimit="10" stroke-width="2.25"/>
</g>
<path d="m261.93 302.03h135v-15.75h-135z" fill="#fff" fill-rule="evenodd"/>
<g clip-path="url(#ax)">
<path transform="matrix(.1 0 0 -.1 .528 336.83)" d="m2614 348.02h1350v157.5h-1350z" fill="none" stroke="#fff" stroke-miterlimit="10" stroke-width="2.25"/>
</g>
<path d="m274.32 82.219v9.5391l7.293-2.25v-8.4297" fill="#fff" fill-rule="evenodd"/>
<path transform="matrix(.1 0 0 -.1 .528 336.83)" d="m2737.9 2546.1v-95.391l72.93 22.5v84.297z" fill="none" stroke="#000" stroke-miterlimit="10" stroke-width="2.25"/>
<path d="m282.18 99.527v9.4531l-7.3203-1.6797v-7.8906" fill="#fff" fill-rule="evenodd"/>
<path transform="matrix(.1 0 0 -.1 .528 336.83)" d="m2816.5 2373v-94.531l-73.203 16.797v78.906z" fill="none" stroke="#000" stroke-miterlimit="10" stroke-width="2.25"/>
<path d="m341.79 103.4v9.7188l7.3203-0.59766v-8.9414" fill="#fff" fill-rule="evenodd"/>
<path transform="matrix(.1 0 0 -.1 .528 336.83)" d="m3412.6 2334.3v-97.188l73.203 5.9766v89.414z" fill="none" stroke="#000" stroke-miterlimit="10" stroke-width="2.25"/>
<path d="m349.68 76.309v9.7188l-7.3203-0.59766v-8.8516" fill="#fff" fill-rule="evenodd"/>
<path transform="matrix(.1 0 0 -.1 .528 336.83)" d="m3491.5 2605.2v-97.188l-73.203 5.9766v88.516z" fill="none" stroke="#000" stroke-miterlimit="10" stroke-width="2.25"/>
<path d="m383.43 81.527v9.4531l-7.3203-2.25v-7.6523" fill="#fff" fill-rule="evenodd"/>
<path transform="matrix(.1 0 0 -.1 .528 336.83)" d="m3829 2553v-94.531l-73.203 22.5v76.523z" fill="none" stroke="#000" stroke-miterlimit="10" stroke-width="2.25"/>
<path d="m375.54 99.527v9.6914l7.3203-1.8008v-8.3398" fill="#fff" fill-rule="evenodd"/>
<path transform="matrix(.1 0 0 -.1 .528 336.83)" d="m3750.1 2373v-96.914l73.203 18.008v83.398z" fill="none" stroke="#000" stroke-miterlimit="10" stroke-width="2.25"/>
<path d="m308.04 157.58v9.7227l7.3203-0.78125v-8.582" fill="#fff" fill-rule="evenodd"/>
<path transform="matrix(.1 0 0 -.1 .528 336.83)" d="m3075.1 1792.5v-97.227l73.203 7.8125v85.82z" fill="none" stroke="#000" stroke-miterlimit="10" stroke-width="2.25"/>
<path d="m274.32 163.22v9.5391l7.293-2.25v-8.4297" fill="#fff" fill-rule="evenodd"/>
<path transform="matrix(.1 0 0 -.1 .528 336.83)" d="m2737.9 1736.1v-95.391l72.93 22.5v84.297z" fill="none" stroke="#000" stroke-miterlimit="10" stroke-width="2.25"/>
<path d="m282.18 180.53v9.4531l-7.3203-1.6797v-7.8906" fill="#fff" fill-rule="evenodd"/>
<path transform="matrix(.1 0 0 -.1 .528 336.83)" d="m2816.5 1563v-94.531l-73.203 16.797v78.906z" fill="none" stroke="#000" stroke-miterlimit="10" stroke-width="2.25"/>
<path d="m313.68 184.82v9.3906l-7.3203-0.60156v-8.5195" fill="#fff" fill-rule="evenodd"/>
<path transform="matrix(.1 0 0 -.1 .528 336.83)" d="m3131.5 1520.1v-93.906l-73.203 6.0156v85.195z" fill="none" stroke="#000" stroke-miterlimit="10" stroke-width="2.25"/>
<path d="m341.79 184.4v9.7188l7.3203-0.59766v-8.9414" fill="#fff" fill-rule="evenodd"/>
<path transform="matrix(.1 0 0 -.1 .528 336.83)" d="m3412.6 1524.3v-97.188l73.203 5.9766v89.414z" fill="none" stroke="#000" stroke-miterlimit="10" stroke-width="2.25"/>
<path d="m349.68 157.31v9.7188l-7.3203-0.59766v-8.8516" fill="#fff" fill-rule="evenodd"/>
<path transform="matrix(.1 0 0 -.1 .528 336.83)" d="m3491.5 1795.2v-97.188l-73.203 5.9766v88.516z" fill="none" stroke="#000" stroke-miterlimit="10" stroke-width="2.25"/>
<path d="m383.43 162.53v9.4531l-7.3203-2.25v-7.6523" fill="#fff" fill-rule="evenodd"/>
<path transform="matrix(.1 0 0 -.1 .528 336.83)" d="m3829 1743v-94.531l-73.203 22.5v76.523z" fill="none" stroke="#000" stroke-miterlimit="10" stroke-width="2.25"/>
<path d="m308.04 238.58v9.7227l7.3203-0.78125v-8.582" fill="#fff" fill-rule="evenodd"/>
<path transform="matrix(.1 0 0 -.1 .528 336.83)" d="m3075.1 982.51v-97.227l73.203 7.8125v85.82z" fill="none" stroke="#000" stroke-miterlimit="10" stroke-width="2.25"/>
<path d="m274.32 244.22v9.5391l7.293-2.25v-8.4297" fill="#fff" fill-rule="evenodd"/>
<path transform="matrix(.1 0 0 -.1 .528 336.83)" d="m2737.9 926.1v-95.391l72.93 22.5v84.297z" fill="none" stroke="#000" stroke-miterlimit="10" stroke-width="2.25"/>
<path d="m282.18 261.53v9.4531l-7.3203-1.6797v-7.8906" fill="#fff" fill-rule="evenodd"/>
<path transform="matrix(.1 0 0 -.1 .528 336.83)" d="m2816.5 753.02v-94.531l-73.203 16.797v78.906z" fill="none" stroke="#000" stroke-miterlimit="10" stroke-width="2.25"/>
<path d="m313.68 265.82v9.3906l-7.3203-0.60156v-8.5195" fill="#fff" fill-rule="evenodd"/>
<path transform="matrix(.1 0 0 -.1 .528 336.83)" d="m3131.5 710.09v-93.906l-73.203 6.0156v85.195z" fill="none" stroke="#000" stroke-miterlimit="10" stroke-width="2.25"/>
<path d="m349.68 238.31v9.7188l-7.3203-0.59766v-8.8516" fill="#fff" fill-rule="evenodd"/>
<path transform="matrix(.1 0 0 -.1 .528 336.83)" d="m3491.5 985.2v-97.188l-73.203 5.9766v88.516z" fill="none" stroke="#000" stroke-miterlimit="10" stroke-width="2.25"/>
<path d="m383.43 243.53v9.4531l-7.3203-2.25v-7.6523" fill="#fff" fill-rule="evenodd"/>
<path transform="matrix(.1 0 0 -.1 .528 336.83)" d="m3829 933.02v-94.531l-73.203 22.5v76.523z" fill="none" stroke="#000" stroke-miterlimit="10" stroke-width="2.25"/>
<path d="m375.54 261.53v9.6914l7.3203-1.8008v-8.3398" fill="#fff" fill-rule="evenodd"/>
<path transform="matrix(.1 0 0 -.1 .528 336.83)" d="m3750.1 753.02v-96.914l73.203 18.008v83.398z" fill="none" stroke="#000" stroke-miterlimit="10" stroke-width="2.25"/>
<path d="m308.04 76.578v9.7227l7.3203-0.78125v-8.582" fill="#e5e5e5" fill-rule="evenodd"/>
<path transform="matrix(.1 0 0 -.1 .528 336.83)" d="m3075.1 2602.5v-97.227l73.203 7.8125v85.82z" fill="none" stroke="#000" stroke-miterlimit="10" stroke-width="2.25"/>
<path d="m313.68 103.82v9.3906l-7.3203-0.60156v-8.5195" fill="#e5e5e5" fill-rule="evenodd"/>
<path transform="matrix(.1 0 0 -.1 .528 336.83)" d="m3131.5 2330.1v-93.906l-73.203 6.0156v85.195z" fill="none" stroke="#000" stroke-miterlimit="10" stroke-width="2.25"/>
<path d="m375.54 180.53v9.6914l7.3203-1.8008v-8.3398" fill="#e5e5e5" fill-rule="evenodd"/>
<path transform="matrix(.1 0 0 -.1 .528 336.83)" d="m3750.1 1563v-96.914l73.203 18.008v83.398z" fill="none" stroke="#000" stroke-miterlimit="10" stroke-width="2.25"/>
<path d="m341.79 265.4v9.7188l7.3203-0.59766v-8.9414" fill="#e5e5e5" fill-rule="evenodd"/>
<path transform="matrix(.1 0 0 -.1 .528 336.83)" d="m3412.6 714.31v-97.188l73.203 5.9766v89.414z" fill="none" stroke="#000" stroke-miterlimit="10" stroke-width="2.25"/>
<path transform="matrix(.1 0 0 -.1 .528 336.83)" d="m2614 3228v-2880" fill="none" stroke="#000" stroke-miterlimit="10" stroke-width="2.25"/>
<g clip-path="url(#aw)">
<path transform="matrix(.1 0 0 -.1 .528 336.83)" d="m3964 3228v-2880" fill="none" stroke="#000" stroke-miterlimit="10" stroke-width="2.25"/>
</g>
<g clip-path="url(#av)">
<g clip-path="url(#au)">
<path transform="matrix(.1 0 0 -.1 .528 336.83)" d="m814.02 2373h360" fill="none" stroke="#000" stroke-miterlimit="10" stroke-width="2.25"/>
</g>
</g>
<path d="m113.85 100.43 3.6016-0.90234-3.6016-0.89844v1.8008" fill-rule="evenodd"/>
<path transform="matrix(.1 0 0 -.1 .528 336.83)" d="m1133.2 2364 36.016 9.0234-36.016 8.9844z" fill="none" stroke="#000" stroke-miterlimit="10" stroke-width="2.25"/>
<g clip-path="url(#at)">
<g clip-path="url(#as)">
<path transform="matrix(.1 0 0 -.1 .528 336.83)" d="m814.02 1833h360" fill="none" stroke="#000" stroke-miterlimit="10" stroke-width="2.25"/>
</g>
</g>
<path d="m113.85 154.43 3.6016-0.90234-3.6016-0.89844v1.8008" fill-rule="evenodd"/>
<path transform="matrix(.1 0 0 -.1 .528 336.83)" d="m1133.2 1824 36.016 9.0234-36.016 8.9844z" fill="none" stroke="#000" stroke-miterlimit="10" stroke-width="2.25"/>
<path transform="matrix(.1 0 0 -.1 .528 336.83)" d="m1444 663.02h540v180h-540z" fill="none" stroke="#000" stroke-miterlimit="10" stroke-width="2.25"/>
<path transform="matrix(.1 0 0 -.1 .528 336.83)" d="m1444 483.02h540v180h-540z" fill="#e5e5e5" fill-rule="evenodd" stroke="#000" stroke-miterlimit="10" stroke-width="2.25"/>
<path transform="matrix(.1 0 0 -.1 .528 336.83)" d="m1444 1023h540v180h-540z" fill="none" stroke="#000" stroke-miterlimit="10" stroke-width="2.25"/>
<path transform="matrix(.1 0 0 -.1 .528 336.83)" d="m1444 843.02h540v180h-540z" fill="none" stroke="#000" stroke-miterlimit="10" stroke-width="2.25"/>
<path transform="matrix(.1 0 0 -.1 .528 336.83)" d="m1444 2643h540v180h-540z" fill="#e5e5e5" fill-rule="evenodd" stroke="#000" stroke-miterlimit="10" stroke-width="2.25"/>
<path transform="matrix(.1 0 0 -.1 .528 336.83)" d="m1444 1743h540v180h-540z" fill="none" stroke="#000" stroke-miterlimit="10" stroke-width="2.25"/>
<path transform="matrix(.1 0 0 -.1 .528 336.83)" d="m1442.8 1743h2.3828" fill="none" stroke="#000" stroke-miterlimit="10" stroke-width="2.25"/>
<path transform="matrix(.1 0 0 -.1 .528 336.83)" d="m1444 1743v-360" fill="none" stroke="#000" stroke-miterlimit="10" stroke-width="2.25"/>
<path transform="matrix(.1 0 0 -.1 .528 336.83)" d="m1984 1743v-360" fill="none" stroke="#000" stroke-miterlimit="10" stroke-width="2.25"/>
<path transform="matrix(.1 0 0 -.1 .528 336.83)" d="m1444 2283v-360" fill="none" stroke="#000" stroke-miterlimit="10" stroke-width="2.25"/>
<path transform="matrix(.1 0 0 -.1 .528 336.83)" d="m1984 2283v-360" fill="none" stroke="#000" stroke-miterlimit="10" stroke-width="2.25"/>
<path transform="matrix(.1 0 0 -.1 .528 336.83)" d="m1444 2463h540v180h-540z" fill="none" stroke="#000" stroke-miterlimit="10" stroke-width="2.25"/>
<path transform="matrix(.1 0 0 -.1 .528 336.83)" d="m1444 3003h540v180h-540z" fill="none" stroke="#000" stroke-miterlimit="10" stroke-width="2.25"/>
<path transform="matrix(.1 0 0 -.1 .528 336.83)" d="m1444 3183h540v180h-540z" fill="none" stroke="#000" stroke-miterlimit="10" stroke-width="2.25"/>
<path transform="matrix(.1 0 0 -.1 .528 336.83)" d="m1982.8 1338h2.3828" fill="none" stroke="#000" stroke-miterlimit="10" stroke-width="2.25"/>
<g clip-path="url(#ar)">
<g clip-path="url(#bn)">
<path transform="matrix(.1 0 0 -.1 .528 336.83)" d="m1984 1338h90v1035h-90" fill="none" stroke="#000" stroke-miterlimit="10" stroke-width="2.25"/>
</g>
</g>
<path d="m203.01 202.13-3.6016 0.89844 3.6016 0.90234v-1.8008" fill-rule="evenodd"/>
<path transform="matrix(.1 0 0 -.1 .528 336.83)" d="m2024.8 1347-36.016-8.9844 36.016-9.0234z" fill="none" stroke="#000" stroke-miterlimit="10" stroke-width="2.25"/>
<g clip-path="url(#bm)">
<g clip-path="url(#bl)">
<path transform="matrix(.1 0 0 -.1 .528 336.83)" d="m1984 2688h180v-1440h-180" fill="none" stroke="#000" stroke-miterlimit="10" stroke-width="2.25"/>
</g>
</g>
<path d="m203.01 67.129-3.6016 0.89844 3.6016 0.90234v-1.8008" fill-rule="evenodd"/>
<path transform="matrix(.1 0 0 -.1 .528 336.83)" d="m2024.8 2697-36.016-8.9844 36.016-9.0234z" fill="none" stroke="#000" stroke-miterlimit="10" stroke-width="2.25"/>
<g clip-path="url(#bk)">
<g clip-path="url(#bj)">
<path transform="matrix(.1 0 0 -.1 .528 336.83)" d="m1984 573.02h270v2205h-270" fill="none" stroke="#000" stroke-miterlimit="10" stroke-width="2.25"/>
</g>
</g>
<path d="m203.01 278.63-3.6016 0.89844 3.6016 0.90234v-1.8008" fill-rule="evenodd"/>
<path transform="matrix(.1 0 0 -.1 .528 336.83)" d="m2024.8 582-36.016-8.9844 36.016-9.0234z" fill="none" stroke="#000" stroke-miterlimit="10" stroke-width="2.25"/>
<g clip-path="url(#bi)">
<g clip-path="url(#bh)">
<path transform="matrix(.1 0 0 -.1 .528 336.83)" d="m3064 2485.5-0.625-1.2109-0.89844-2.4219-1.4844-3.8672-2.4219-6.0156-2.9688-7.1875-3.3203-8.7109-3.5938-8.9844-3.5938-9.0234-3.5938-8.7109-3.0078-8.3984-3.0078-7.5-2.6953-7.1875-2.4219-6.6016-2.0703-6.2891-1.7969-6.0156-2.1094-5.7031-1.5234-5.7031-1.7969-5.7031-1.7969-5.9766-1.4844-6.0156-1.5234-5.9766-1.7969-6.6016-1.4844-6.3281-1.4844-6.875-1.2109-6.6016-1.5234-6.9141-1.1719-6.875-2.4219-13.828-1.1719-6.6016-0.89844-6.2891-0.9375-6.2891-0.58594-6.0156-0.58594-5.9766-0.625-6.0156-0.58594-5.7031-0.58594-6.0156-0.3125-5.9766-0.3125-6.0156-0.27344-6.6016-0.3125-6.2891v-20.117l0.3125-6.875 0.27344-6.6016 0.625-6.6016 0.27344-6.2891 0.89844-6.3281 0.625-6.2891 0.89844-5.7031 0.89844-6.0156 1.2109-5.6641 1.1719-5.7031 1.5234-6.0156 1.4844-5.7031 1.4844-6.2891 1.8359-6.2891 2.0703-6.3281 2.1094-6.6016 2.4219-6.6016 2.3828-6.875 8.0859-19.805 2.6953-6.2891 2.7344-6.3281 2.6953-6.2891 2.9688-5.7031 2.7344-6.0156 2.9688-5.6641 2.4219-5.1172 2.6953-5.3906 2.6953-5.1172 3.0078-5.3906 3.0078-5.7031 3.2812-5.7031 3.0078-5.7031 3.2812-5.7031 3.6328-5.9766 3.2812-6.0156 3.5938-5.7031 3.3203-5.9766 3.5938-5.7031 3.5938-5.4297 3.3203-5.3906 3.2812-5.3906 3.2812-5.1172 3.0078-4.8047 3.3203-4.7656 3.0078-4.8047 2.9688-4.4922 3.3203-4.5312 3.0078-4.8047 3.2812-4.7656 3.3203-5.1172 3.2812-5.1172 3.5938-5.0781 3.5938-5.3906 3.3203-5.7031 3.5938-5.7031 3.3203-5.7031 3.5938-6.0156 3.2812-5.9766 3.0078-6.0156 3.2812-6.2891 3.0078-6.0156 3.0078-6.2891 2.6953-6.2891 5.3906-13.203 2.1094-5.4297 2.1094-5.9766 2.1094-6.2891 2.0703-6.3281 2.1094-6.875 2.1094-6.9141 2.1094-7.5 2.0703-7.8125 2.1094-7.7734 4.2188-16.797 2.1094-8.7109 1.7969-9.0234 2.0703-8.9844 1.7969-8.9844 1.8359-9.2969 1.7969-9.0234 1.7969-9.2969 1.4844-8.9844 1.4844-9.0234 1.5234-8.9844 1.4844-8.9844 1.2109-9.0234 1.4844-8.9844 0.89844-7.5 1.2109-8.125 0.89844-8.0859 1.2109-8.0859 0.89844-8.3984 1.2109-8.7109 0.89844-8.7109 1.1719-8.9844 0.89844-9.2969 0.9375-9.2969 1.1719-9.2969 0.89844-9.6094 0.89844-9.9219 1.2109-9.5703 0.89844-9.6094 0.89844-9.9219 0.89844-9.5703 0.89844-9.2969 0.89844-9.3359 0.89844-9.2969 0.89844-8.9844 0.89844-8.7109 0.625-8.6719 0.89844-8.4375 0.89844-8.0859 0.58594-8.0859 0.89844-8.125 0.625-7.7734 0.89844-8.125 0.58594-8.3984 0.89844-8.0859 1.7969-16.797 0.58594-8.3984 0.89844-8.7109 0.9375-8.3984 0.89844-8.7109 0.89844-8.9844 0.89844-8.7109 0.89844-8.6719 1.1719-8.7109 1.7969-17.422 0.9375-8.3984 1.7969-16.797 0.89844-8.0859 0.89844-7.8125 0.58594-7.7734 1.7969-15 0.89844-7.2266 0.625-7.1875 0.89844-7.1875 1.7969-15.625 0.89844-7.7734 0.89844-8.125 0.89844-8.0859 1.7969-16.797 1.2109-8.3984 0.89844-8.7109 1.1719-8.7109 0.89844-8.6719 3.6328-26.133 1.1719-8.3984 2.4219-16.172 1.1719-7.8125 1.2109-7.5 1.2109-7.1875 1.2109-7.2266 1.1719-6.875 1.2109-6.6016 1.4844-6.6016 1.2109-6.9141 1.5234-6.9141 1.4844-6.875 1.7969-6.9141 1.7969-6.875 3.5938-13.828 1.7969-7.1875 2.1094-6.9141 2.1094-6.875 2.1094-6.6016 2.3828-6.9141 2.1094-6.2891 2.3828-6.3281 2.4219-6.2891 2.0703-5.9766 2.4219-5.7031 2.3828-5.4297 2.1094-5.0781 2.4219-5.1172 2.3828-4.8047 2.3828-4.7656 2.7344-5.7031 2.9688-5.7031 3.3203-5.4297 3.2812-5.9766 3.9062-6.0156 3.9062-6.2891 4.4922-6.9141 5.1172-7.1875 5.0781-7.8125 5.4297-7.7734 5.3906-7.8125 5.0781-7.1875 4.8047-6.3281 8.125-11.367" fill="none" stroke="#000" stroke-linejoin="bevel" stroke-miterlimit="10" stroke-width="2.25"/>
</g>
</g>
<path d="m337.59 260.96 2.8164 2.4297-1.3789-3.4805-1.4375 1.0508" fill-rule="evenodd"/>
<path transform="matrix(.1 0 0 -.1 .528 336.83)" d="m3370.6 758.68 28.164-24.297-13.789 34.805z" fill="none" stroke="#000" stroke-miterlimit="10" stroke-width="2.25"/>
<g clip-path="url(#bg)">
<g clip-path="url(#bf)">
<path transform="matrix(.1 0 0 -.1 .528 336.83)" d="m3149.5 2229 0.625-0.58594 1.4844-1.7969 6.6016-6.6016 4.8047-5.1172 6.0156-6.2891 6.6016-6.6016 6.5625-7.1875 6.9141-6.9141 6.6016-6.9141 6.2891-6.6016 6.0156-5.9766 5.7031-5.7031 5.0781-5.3906 18.633-18.633 4.4922-4.1797 4.1797-4.2188 4.5312-4.4922 4.7656-4.4922 4.8047-4.4922 4.8047-4.8047 5.3906-4.8047 5.1172-4.8047 5.3906-5.0781 5.3906-5.1172 5.7031-5.0781 5.7031-5.1172 5.4297-5.1172 5.6641-5.0781 5.4297-4.8047 5.7031-4.8047 5.3906-4.8047 5.0781-4.8047 5.4297-4.4922 5.0781-4.4922 5.1172-4.4922 4.8047-3.9062 4.8047-4.2188 4.7656-3.8672 5.1172-4.5312 5.1172-4.1797 5.0781-4.4922 5.3906-4.8047 5.4297-4.4922 5.3906-5.1172 5.7031-4.8047 5.3906-4.8047 5.3906-5.0781 5.3906-5.1172 5.4297-4.8047 5.3906-5.0781 4.8047-4.8047 5.0781-5.1172 4.5312-4.4922 8.9844-9.6094 4.1797-4.4922 4.2188-4.8047 4.2188-5.0781 4.4922-5.4297 4.1797-5.3906 4.2188-5.7031 4.1797-5.7031 4.4922-5.9766 4.2188-6.3281 4.2188-6.2891 4.1797-6.2891 7.8125-13.203 3.9062-6.2891 3.8672-6.6016 3.3203-6.3281 3.5938-5.9766 3.3203-6.0156 2.9688-5.9766 3.0078-5.7031 2.6953-5.4297 2.6953-5.6641 2.6953-5.4297 2.7344-5.3906 2.3828-5.7031 2.6953-5.3906 2.6953-6.0156 2.6953-5.7031 2.4219-5.9766 2.6953-6.0156 2.6953-5.9766 2.6953-6.3281 2.4219-5.9766 2.3828-6.0156 2.6953-6.0156 2.1094-5.6641 2.3828-5.7031 2.1094-5.4297 2.1094-5.0781 2.1094-5.3906 2.0703-4.8047 2.1094-5.1172 2.1094-5.3906 2.1094-5.7031 2.3828-5.3906 2.1094-5.7031 2.3828-6.0156 2.4219-5.7031 2.3828-5.9766 2.4219-6.0156 2.6953-5.7031 2.3828-5.7031 2.6953-5.3906 2.4219-5.3906 2.3828-5.1172 2.4219-4.8047 2.3828-4.4922 2.4219-4.1797 2.0703-3.9062 2.4219-3.9062 3.0078-4.4922 2.9688-4.4922 3.3203-4.2188 3.2812-4.1797 3.5938-3.9062 7.5-7.5 3.9062-3.5938 7.8125-6.0156 3.9062-2.6953 3.5938-2.4219 3.5938-2.3828 3.9062-2.1094 3.5938-2.1094 3.9062-1.7969 4.2188-2.0703 4.4922-2.1094 5.0781-2.1094 6.0156-2.3828 6.2891-2.7344 6.6016-2.3828 6.2891-2.3828 5.7031-2.4219 8.3984-3.0078" fill="none" stroke="#000" stroke-linejoin="bevel" stroke-miterlimit="10" stroke-width="2.25"/>
</g>
</g>
<path d="m369.81 182.69 3.7188 0.39062-3.0898-2.0703-0.62891 1.6797" fill-rule="evenodd"/>
<path transform="matrix(.1 0 0 -.1 .528 336.83)" d="m3692.8 1541.4 37.188-3.9062-30.898 20.703z" fill="none" stroke="#000" stroke-miterlimit="10" stroke-width="2.25"/>
<g clip-path="url(#be)">
<g clip-path="url(#bc)">
<path transform="matrix(.1 0 0 -.1 .528 336.83)" d="m3739 1581-0.625 0.89844-1.4844 1.7969-2.4219 3.0078-3.2812 4.4922-4.2188 5.7031-5.0781 6.6016-5.1172 6.9141-5.3906 7.1875-9.6094 13.203-4.4922 6.3281-4.1797 5.6641-3.6328 5.4297-3.5938 5.3906-3.2812 5.0781-3.3203 4.8047-3.2812 5.1172-3.0078 4.8047-2.6953 4.8047-3.0078 5.0781-3.2812 5.3906-3.0078 5.4297-3.3203 5.7031-3.2812 5.9766-3.3203 6.0156-3.5938 6.2891-7.1875 13.203-3.3203 6.6016-3.5938 6.9141-7.1875 13.203-3.3203 6.875-3.5938 6.6016-3.2812 6.2891-3.3203 6.6016-3.2812 6.6016-3.3203 6.0156-3.2812 6.2891-3.0078 6.3281-3.5938 6.5625-3.3203 6.6016-3.5938 6.9141-3.9062 7.1875-3.5938 7.2266-3.9062 7.1875-4.1797 7.5-3.9062 7.5-3.9062 7.1875-4.1797 7.5-3.9062 7.2266-3.9062 7.1875-3.9062 6.6016-3.9062 6.9141-7.1875 12.578-3.5938 6.0156-3.5938 5.7031-3.3203 5.3906-3.9062 6.2891-3.8672 5.7031-3.9062 6.0156-3.9062 5.9766-4.2188 5.7031-4.1797 6.0156-4.2188 5.7031-4.1797 5.9766-4.4922 5.7031-4.2188 5.7031-4.4922 5.3906-4.2188 5.4297-4.1797 5.3906-4.2188 4.8047-4.1797 4.8047-3.9062 4.8047-3.9062 4.1797-3.5938 4.2188-3.5938 4.1797-3.5938 3.9062-4.2188 4.1797-3.9062 4.5312-4.1797 4.1797-4.2188 4.4922-4.1797 4.5312-4.5312 4.1797-4.1797 4.8047-4.4922 4.4922-4.2188 4.4922-4.4922 4.2188-4.1797 4.4922-3.9062 4.2188-3.9062 4.1797-7.1875 7.8125-3.3203 3.9062-3.2812 3.5938-3.0078 3.2812-3.3203 4.2188-3.2812 3.9062-3.0078 4.1797-3.2812 4.2188-3.3203 4.4922-3.0078 4.4922-3.2812 4.4922-3.0078 4.5312-3.3203 4.4922-2.9688 4.4922-2.6953 4.4922-3.0078 4.4922-2.6953 3.9062-2.6953 4.2188-2.4219 3.9062-2.6953 3.8672-5.3906 7.8125-2.6953 4.2188-2.7344 4.1797-2.9688 4.4922-3.3203 4.4922-3.0078 4.8047-2.9688 4.8047-3.3203 5.1172-3.0078 4.8047-3.2812 5.0781-3.0078 5.1172-2.6953 5.0781-2.6953 4.8047-2.6953 5.1172-2.6953 5.0781-2.4219 4.8047-2.1094 4.8047-2.3828 4.8047-2.4219 5.3906-2.3828 5.3906-2.3828 5.7031-2.4219 6.0156-2.3828 6.0156-2.4219 5.9766-2.3828 6.2891-2.4219 6.0156-2.3828 6.0156-4.2188 11.406-2.0703 5.3906-1.7969 5.0781-2.1094 5.1172-1.7969 4.8047-4.2188 10.781-2.1094 5.1172-2.0703 5.3906-2.1094 5.3906-2.3828 5.4297-2.1094 5.3906-2.4219 5.3906-2.3828 5.1172-2.1094 5.0781-2.3828 4.8047-2.1094 4.4922-2.4219 4.4922-2.0703 4.2188-2.1094 3.9062-2.1094 3.5938-2.6953 4.4922-2.6953 4.2188-3.0078 4.1797-3.0078 4.4922-3.5938 5.1172-4.1797 5.3906-4.5312 5.7031-4.7656 6.0156-4.5312 5.9766-3.8672 5.1172-6.0156 7.1875" fill="none" stroke="#000" stroke-linejoin="bevel" stroke-miterlimit="10" stroke-width="2.25"/>
</g>
</g>
<path d="m320.1 89.449-2.9688-2.1602 1.5898 3.3281 1.3789-1.168" fill-rule="evenodd"/>
<path transform="matrix(.1 0 0 -.1 .528 336.83)" d="m3195.7 2473.8-29.688 21.602 15.898-33.281z" fill="none" stroke="#000" stroke-miterlimit="10" stroke-width="2.25"/>
<g>
<use x="6.328" y="102.679" xlink:href="#ab"/>
<use x="13.825" y="102.679" xlink:href="#ao"/>
<use x="18.325" y="102.679" xlink:href="#o"/>
<use x="23.329" y="102.679" xlink:href="#h"/>
<use x="26.326" y="102.679" xlink:href="#k"/>
<use x="31.33" y="102.679" xlink:href="#w"/>
<use x="36.334" y="102.679" xlink:href="#h"/>
<use x="39.331" y="102.679" xlink:href="#n"/>
<use x="44.335" y="102.679" xlink:href="#ab"/>
<use x="5.428" y="157.129" xlink:href="#j"/>
<use x="7.93" y="157.129" xlink:href="#v"/>
<use x="9.928" y="157.129" xlink:href="#q"/>
<use x="11.926" y="157.129" xlink:href="#o"/>
<use x="64.378" y="103.579" xlink:href="#f"/>
<use x="69.382" y="103.579" xlink:href="#g"/>
<use x="74.386" y="103.579" xlink:href="#d"/>
<use x="63.478" y="156.679" xlink:href="#aa"/>
<use x="68.482" y="156.679" xlink:href="#z"/>
<use x="73.486" y="156.679" xlink:href="#i"/>
<use x="18.1733" y="193.579" xlink:href="#aq"/>
<use x="24.1763" y="193.579" xlink:href="#e"/>
<use x="29.1803" y="193.579" xlink:href="#h"/>
<use x="32.1773" y="193.579" xlink:href="#ap"/>
<use x="36.6773" y="193.579" xlink:href="#e"/>
<use x="41.6813" y="193.579" xlink:href="#q"/>
<use x="43.6793" y="193.579" xlink:href="#an"/>
<use x="48.1793" y="193.579" xlink:href="#am"/>
<use x="53.1833" y="193.579" xlink:href="#y"/>
<use x="58.1873" y="193.579" xlink:href="#q"/>
<use x="60.1853" y="193.579" xlink:href="#al"/>
<use x="27.42447" y="204.379" xlink:href="#ak"/>
<use x="33.42747" y="204.379" xlink:href="#h"/>
<use x="36.42447" y="204.379" xlink:href="#k"/>
<use x="41.42847" y="204.379" xlink:href="#aj"/>
<use x="43.42647" y="204.379" xlink:href="#e"/>
<use x="48.43047" y="204.379" xlink:href="#ai"/>
<use x="52.93047" y="204.379" xlink:href="#l"/>
<use x="374.42847" y="77.029" xlink:href="#a"/>
<use x="378.43167" y="77.029" xlink:href="#c"/>
<use x="382.43487" y="77.029" xlink:href="#ad"/>
<use x="340.67847" y="72.529" xlink:href="#a"/>
<use x="344.68167" y="72.529" xlink:href="#c"/>
<use x="348.68487" y="72.529" xlink:href="#ac"/>
<use x="304.67847" y="72.529" xlink:href="#a"/>
<use x="308.68167" y="72.529" xlink:href="#c"/>
<use x="312.68487" y="72.529" xlink:href="#c"/>
<use x="273.17847" y="117.529" xlink:href="#a"/>
<use x="277.18167" y="117.529" xlink:href="#c"/>
<use x="281.18487" y="117.529" xlink:href="#t"/>
<use x="304.67847" y="122.029" xlink:href="#a"/>
<use x="308.68167" y="122.029" xlink:href="#c"/>
<use x="312.68487" y="122.029" xlink:href="#b"/>
<use x="340.67847" y="122.029" xlink:href="#a"/>
<use x="344.68167" y="122.029" xlink:href="#c"/>
<use x="348.68487" y="122.029" xlink:href="#m"/>
<use x="374.42847" y="117.529" xlink:href="#a"/>
<use x="378.43167" y="117.529" xlink:href="#c"/>
<use x="382.43487" y="117.529" xlink:href="#a"/>
<use x="273.17847" y="77.029" xlink:href="#a"/>
<use x="277.18167" y="77.029" xlink:href="#c"/>
<use x="281.18487" y="77.029" xlink:href="#s"/>
<use x="270.92847" y="198.529" xlink:href="#b"/>
<use x="274.93167" y="198.529" xlink:href="#m"/>
<use x="278.93487" y="198.529" xlink:href="#r"/>
<use x="304.67847" y="203.029" xlink:href="#b"/>
<use x="308.68167" y="203.029" xlink:href="#m"/>
<use x="312.68487" y="203.029" xlink:href="#u"/>
<use x="340.67847" y="203.029" xlink:href="#b"/>
<use x="344.68167" y="203.029" xlink:href="#a"/>
<use x="348.68487" y="203.029" xlink:href="#t"/>
<use x="374.42847" y="198.529" xlink:href="#b"/>
<use x="378.43167" y="198.529" xlink:href="#a"/>
<use x="382.43487" y="198.529" xlink:href="#b"/>
<use x="273.17847" y="279.529" xlink:href="#b"/>
<use x="277.18167" y="279.529" xlink:href="#c"/>
<use x="304.67847" y="284.029" xlink:href="#b"/>
<use x="308.68167" y="284.029" xlink:href="#s"/>
<use x="340.67847" y="284.029" xlink:href="#b"/>
<use x="344.68167" y="284.029" xlink:href="#r"/>
<use x="374.42847" y="279.529" xlink:href="#b"/>
<use x="378.43167" y="279.529" xlink:href="#u"/>
<use x="303.41437" y="333.529" xlink:href="#ah"/>
<use x="310.91137" y="333.529" xlink:href="#n"/>
<use x="315.91537" y="333.529" xlink:href="#w"/>
<use x="320.91937" y="333.529" xlink:href="#y"/>
<use x="325.92337" y="333.529" xlink:href="#e"/>
<use x="330.92737" y="333.529" xlink:href="#l"/>
<use x="333.42937" y="333.529" xlink:href="#o"/>
<use x="338.43337" y="333.529" xlink:href="#v"/>
<use x="340.43137" y="333.529" xlink:href="#n"/>
<use x="345.43537" y="333.529" xlink:href="#l"/>
<use x="347.93737" y="333.529" xlink:href="#l"/>
<use x="350.43937" y="333.529" xlink:href="#e"/>
<use x="17.67737" y="126.529" xlink:href="#p"/>
<use x="17.67737" y="140.929" xlink:href="#p"/>
<use x="17.67737" y="113.029" xlink:href="#p"/>
<use x="164.17537" y="246.979" xlink:href="#j"/>
<use x="166.67737" y="246.979" xlink:href="#h"/>
<use x="169.67437" y="246.979" xlink:href="#e"/>
<use x="174.67837" y="246.979" xlink:href="#e"/>
<use x="164.423026" y="156.979" xlink:href="#x"/>
<use x="169.427026" y="156.979" xlink:href="#d"/>
<use x="174.431026" y="156.979" xlink:href="#f"/>
<use x="165.673806" y="30.979" xlink:href="#e"/>
<use x="170.677806" y="30.979" xlink:href="#k"/>
<use x="175.681806" y="30.979" xlink:href="#j"/>
<use x="130.805106" y="246.469" xlink:href="#g"/>
<use x="135.809106" y="246.469" xlink:href="#i"/>
<use x="131.04495" y="282.1092" xlink:href="#d"/>
<use x="136.04895" y="282.1092" xlink:href="#i"/>
<use x="125.72307" y="66.6792" xlink:href="#f"/>
<use x="130.72707" y="66.6792" xlink:href="#g"/>
<use x="135.73107" y="66.6792" xlink:href="#g"/>
<use x="126.17307" y="30.919" xlink:href="#x"/>
<use x="131.17707" y="30.919" xlink:href="#d"/>
<use x="136.18107" y="30.919" xlink:href="#f"/>
<use x="126.053148" y="156.469" xlink:href="#aa"/>
<use x="131.057148" y="156.469" xlink:href="#z"/>
<use x="136.061148" y="156.469" xlink:href="#i"/>
<use x="127.073068" y="210.6792" xlink:href="#d"/>
<use x="132.077068" y="210.6792" xlink:href="#f"/>
<use x="137.081068" y="210.6792" xlink:href="#d"/>
<use x="126.503146" y="102.9192" xlink:href="#f"/>
<use x="131.507146" y="102.9192" xlink:href="#g"/>
<use x="136.511146" y="102.9192" xlink:href="#d"/>
<use x="163.428546" y="324.5292" xlink:href="#ag"/>
<use x="168.927546" y="324.5292" xlink:href="#af"/>
<use x="174.930546" y="324.5292" xlink:href="#ae"/>
<use x="166.925026" y="66.9792" xlink:href="#d"/>
<use x="171.929026" y="66.9792" xlink:href="#i"/>
<use x="164.423076" y="102.9792" xlink:href="#d"/>
<use x="169.427076" y="102.9792" xlink:href="#f"/>
<use x="174.431076" y="102.9792" xlink:href="#d"/>
<use x="164.423076" y="210.9792" xlink:href="#f"/>
<use x="169.427076" y="210.9792" xlink:href="#g"/>
<use x="174.431076" y="210.9792" xlink:href="#g"/>
</g>
<g clip-path="url(#bb)">
<path transform="matrix(.1 0 0 -.1 .528 336.83)" d="m3964 3228c0-74.57-302.23-135-675-135-372.81 0-675 60.43-675 135 0 74.531 302.19 135 675 135 372.77 0 675-60.469 675-135z" fill="none" stroke="#000" stroke-miterlimit="10" stroke-width="2.25"/>
</g>
<g>
<use x="165.673" y="282.0188" xlink:href="#e"/>
<use x="170.677" y="282.0188" xlink:href="#k"/>
<use x="175.681" y="282.0188" xlink:href="#j"/>
</g>
<g clip-path="url(#ba)">
<path transform="matrix(.1 0 0 -.1 .528 336.83)" d="m3964 348.02c0-74.57-302.23-135-675-135-372.81 0-675 60.43-675 135 0 74.531 302.19 135 675 135 372.77 0 675-60.469 675-135z" fill="none" stroke="#000" stroke-miterlimit="10" stroke-width="2.25"/>
</g>
<g clip-path="url(#az)">
<path transform="matrix(.1 0 0 -.1 .528 336.83)" d="m3964 2418c0-74.57-302.23-135-675-135-372.81 0-675 60.43-675 135 0 74.531 302.19 135 675 135 372.77 0 675-60.469 675-135z" fill="none" stroke="#000" stroke-dasharray="18" stroke-miterlimit="10" stroke-width="2.25"/>
</g>
<g clip-path="url(#ay)">
<path transform="matrix(.1 0 0 -.1 .528 336.83)" d="m3964 1608c0-74.57-302.23-135-675-135-372.81 0-675 60.43-675 135 0 74.531 302.19 135 675 135 372.77 0 675-60.469 675-135z" fill="none" stroke="#000" stroke-dasharray="18" stroke-miterlimit="10" stroke-width="2.25"/>
</g>
</svg>
