<svg width="308pt" height="447pt" version="1.1" viewBox="0 0 308 447" xmlns="http://www.w3.org/2000/svg" xmlns:xlink="http://www.w3.org/1999/xlink">
<defs>
<g id="af">
<path d="m2.3281-4.6406v4.6406h0.79688v-6.5h-0.53125c-0.26562 0.98438-0.45312 1.125-1.6719 1.2812v0.57812z"/>
</g>
<g id="ad">
<path d="m4.5469-0.78125h-3.3438c0.078125-0.54688 0.35938-0.89062 1.1406-1.3594l0.90625-0.5c0.89062-0.5 1.3438-1.1719 1.3438-1.9688 0-0.53125-0.20312-1.0469-0.59375-1.3906-0.375-0.34375-0.84375-0.5-1.4375-0.5-0.8125 0-1.4219 0.28125-1.7656 0.84375-0.23438 0.34375-0.32812 0.75-0.34375 1.4062h0.78125c0.03125-0.45312 0.09375-0.70312 0.20312-0.92188 0.20312-0.40625 0.60938-0.64062 1.0938-0.64062 0.71875 0 1.25 0.51562 1.25 1.2188 0 0.53125-0.29688 0.96875-0.85938 1.2969l-0.82812 0.48438c-1.3281 0.76562-1.7188 1.375-1.7812 2.7969h4.2344z"/>
</g>
<g id="x">
<path d="m0.71875 0h2.9531c0.625 0 1.0781-0.17188 1.4375-0.54688 0.3125-0.34375 0.5-0.8125 0.5-1.3281 0-0.78125-0.35938-1.2656-1.2031-1.5938 0.60938-0.28125 0.90625-0.75 0.90625-1.4219 0-0.48438-0.17188-0.90625-0.51562-1.2188s-0.79688-0.45312-1.4219-0.45312h-2.6562zm0.82812-3.7344v-2.0938h1.625c0.46875 0 0.71875 0.0625 0.95312 0.23438 0.23438 0.1875 0.35938 0.45312 0.35938 0.8125s-0.125 0.625-0.35938 0.8125c-0.23438 0.17188-0.48438 0.23438-0.95312 0.23438zm0 3v-2.2656h2.0469c0.73438 0 1.1719 0.42188 1.1719 1.1406 0 0.70312-0.4375 1.125-1.1719 1.125z"/>
</g>
<g id="k">
<path d="m1.375-6.5625h-0.76562v6.5625h0.76562z"/>
</g>
<g id="q">
<path d="m2.4531-4.8438c-1.3438 0-2.125 0.9375-2.125 2.5156 0 1.5938 0.78125 2.5312 2.125 2.5312 1.3281 0 2.1406-0.9375 2.1406-2.4844 0-1.6406-0.78125-2.5625-2.1406-2.5625zm0 0.6875c0.84375 0 1.3594 0.6875 1.3594 1.8594 0 1.125-0.53125 1.8125-1.3594 1.8125s-1.3438-0.6875-1.3438-1.8438c0-1.1406 0.51562-1.8281 1.3438-1.8281zm-0.25-2.2812h-0.9375v0.92188h0.9375zm1.4531 0h-0.9375v0.92188h0.9375z"/>
</g>
<g id="h">
<path d="m4.2344-3.125c-0.03125-0.46875-0.125-0.76562-0.3125-1.0312-0.32812-0.4375-0.89062-0.6875-1.5469-0.6875-1.2812 0-2.0938 1-2.0938 2.5625 0 1.5312 0.8125 2.4844 2.0781 2.4844 1.125 0 1.8438-0.67188 1.9375-1.8281h-0.76562c-0.125 0.76562-0.5 1.1406-1.1406 1.1406-0.82812 0-1.3281-0.67188-1.3281-1.7969 0-1.1719 0.48438-1.875 1.2969-1.875 0.64062 0 1.0312 0.375 1.125 1.0312z"/>
</g>
<g id="f">
<path d="m1.2656-6.5625h-0.75v6.5625h0.75v-1.8438l0.73438-0.71875 1.5938 2.5625h0.92188l-1.9219-3.0938 1.6406-1.625h-0.96875l-2 2z"/>
</g>
<g id="a">
<path d="m4.6094-2.1094c0-0.71875-0.046875-1.1562-0.1875-1.5-0.29688-0.78125-1.0156-1.2344-1.9062-1.2344-1.3125 0-2.1562 0.98438-2.1562 2.5469s0.8125 2.5 2.1406 2.5c1.0781 0 1.8281-0.60938 2.0156-1.6406h-0.75c-0.20312 0.625-0.64062 0.95312-1.2344 0.95312-0.48438 0-0.89062-0.21875-1.1406-0.60938-0.17188-0.28125-0.23438-0.54688-0.25-1.0156zm-3.4531-0.60938c0.0625-0.875 0.59375-1.4375 1.3594-1.4375s1.2969 0.59375 1.2969 1.4375z"/>
</g>
<g id="w">
<path d="m6.375-3.4688h-2.7344v0.73438h2v0.1875c0 1.1719-0.85938 2.0156-2.0625 2.0156-0.65625 0-1.2656-0.25-1.6562-0.67188-0.42188-0.46875-0.6875-1.25-0.6875-2.0625 0-1.6094 0.92188-2.6719 2.2969-2.6719 1 0 1.7188 0.51562 1.9062 1.3594h0.85938c-0.23438-1.3281-1.25-2.0938-2.75-2.0938-0.79688 0-1.4531 0.20312-1.9688 0.64062-0.76562 0.625-1.1875 1.6406-1.1875 2.8125 0 2.0156 1.2344 3.4219 3.0156 3.4219 0.89062 0 1.5938-0.32812 2.2344-1.0469l0.20312 0.875h0.53125z"/>
</g>
<g id="c">
<path d="m0.625-4.7188v4.7188h0.75v-2.4531c0.015625-1.125 0.48438-1.6406 1.5156-1.6094v-0.76562c-0.125-0.015625-0.20312-0.015625-0.29688-0.015625-0.48438 0-0.84375 0.28125-1.2812 0.98438v-0.85938z"/>
</g>
<g id="ae">
<path d="m2.4375-3.1406h0.14062c0.48438 0 0.70312 0.03125 0.92188 0.10938 0.45312 0.17188 0.71875 0.57812 0.71875 1.1094 0 0.8125-0.625 1.3594-1.5156 1.3594h-0.375v0.70312c0.17188 0.03125 0.25 0.046875 0.4375 0.046875 1.3594 0 2.2344-0.82812 2.2344-2.1562 0-0.5-0.15625-0.84375-0.48438-1.1562-0.25-0.21875-0.5-0.34375-0.95312-0.48438 0.76562-0.25 1.125-0.65625 1.125-1.2969 0-0.98438-0.79688-1.6562-1.9688-1.6562-0.60938 0-1.1562 0.1875-1.5781 0.5-0.35938 0.28125-0.51562 0.64062-0.51562 1.2188v4.8438h0.75v-4.8438c0-0.625 0.5-1.0156 1.2812-1.0156 0.73438 0 1.2344 0.40625 1.2344 0.98438s-0.5625 1-1.3594 1h-0.09375z"/>
</g>
<g id="v">
<path d="m5.2344-6.5625h-4.7344v0.73438h3.6875l-3.9375 5.0938v0.73438h5v-0.73438h-3.9375l3.9219-5.0781z"/>
</g>
<g id="p">
<path d="m4.3438 0v-4.7188h-0.75v2.6719c0 0.96875-0.5 1.5938-1.2969 1.5938-0.59375 0-0.96875-0.35938-0.96875-0.92188v-3.3438h-0.75v3.6406c0 0.78125 0.59375 1.2812 1.5156 1.2812 0.6875 0 1.125-0.23438 1.5625-0.85938v0.65625z"/>
</g>
<g id="u">
<path d="m3.6406-4.7188v0.6875c-0.375-0.5625-0.79688-0.8125-1.3906-0.8125-1.1406 0-1.9375 1.0625-1.9375 2.5625 0 0.79688 0.1875 1.375 0.59375 1.8438 0.35938 0.42188 0.79688 0.64062 1.2969 0.64062 0.5625 0 0.96875-0.25 1.3594-0.84375v0.25c0 1.25-0.34375 1.7188-1.2812 1.7188-0.64062 0-0.96875-0.25-1.0469-0.78125h-0.76562c0.078125 0.85938 0.76562 1.4219 1.7969 1.4219 0.6875 0 1.2656-0.23438 1.5625-0.60938 0.35938-0.4375 0.5-1.0312 0.5-2.1406v-3.9375zm-1.3125 0.5625c0.78125 0 1.2344 0.67188 1.2344 1.8594 0 1.1406-0.45312 1.8125-1.2344 1.8125s-1.2344-0.67188-1.2344-1.8438c0-1.1406 0.45312-1.8281 1.2344-1.8281z"/>
</g>
<g id="b">
<path d="m1.3438-4.7188h-0.73438v4.7188h0.73438zm0-1.8438h-0.75v0.95312h0.75z"/>
</g>
<g id="j">
<path d="m2.3281-4.7188h-0.79688v-0.73438c0-0.3125 0.17188-0.48438 0.53125-0.48438 0.0625 0 0.09375 0 0.26562 0.015625v-0.625c-0.17188-0.03125-0.28125-0.046875-0.42188-0.046875-0.70312 0-1.1094 0.40625-1.1094 1.0781v0.79688h-0.64062v0.60938h0.64062v4.1094h0.73438v-4.1094h0.79688z"/>
</g>
<g id="o">
<path d="m3.9375-3.4062c0-0.92188-0.60938-1.4375-1.7031-1.4375s-1.8125 0.5625-1.8125 1.4375c0 0.73438 0.375 1.0781 1.5 1.3594l0.70312 0.17188c0.51562 0.125 0.71875 0.3125 0.71875 0.64062 0 0.45312-0.4375 0.75-1.0938 0.75-0.40625 0-0.75-0.125-0.9375-0.3125-0.10938-0.14062-0.17188-0.28125-0.21875-0.60938h-0.78125c0.03125 1.0938 0.64062 1.6094 1.875 1.6094 1.1875 0 1.9375-0.57812 1.9375-1.4844 0-0.70312-0.39062-1.0938-1.3281-1.3125l-0.71875-0.17188c-0.60938-0.15625-0.875-0.34375-0.875-0.6875 0-0.4375 0.39062-0.70312 1-0.70312s0.92188 0.26562 0.95312 0.75z"/>
</g>
<g id="i">
<path d="m0.625-6.5625v6.5625h0.75v-2.5938c0-0.96875 0.5-1.5938 1.2812-1.5938 0.25 0 0.48438 0.0625 0.67188 0.20312 0.20312 0.15625 0.29688 0.39062 0.29688 0.71875v3.2656h0.75v-3.5625c0-0.79688-0.5625-1.2812-1.4844-1.2812-0.67188 0-1.0781 0.20312-1.5156 0.78125v-2.5z"/>
</g>
<g id="d">
<path d="m2.2812-4.7188h-0.76562v-1.2969h-0.75v1.2969h-0.64062v0.60938h0.64062v3.5625c0 0.5 0.32812 0.75 0.90625 0.75 0.20312 0 0.35938-0.015625 0.60938-0.0625v-0.625c-0.10938 0.03125-0.20312 0.03125-0.35938 0.03125-0.3125 0-0.40625-0.09375-0.40625-0.42188v-3.2344h0.76562z"/>
</g>
<g id="ac">
<path d="m1.6406-2.9844h3.5781v-0.73438h-3.5781v-2.1094h3.7188v-0.73438h-4.5469v6.5625h4.7031v-0.73438h-3.875z"/>
</g>
<g id="e">
<path d="m0.625-4.7188v4.7188h0.76562v-2.5938c0-0.96875 0.5-1.5938 1.2656-1.5938 0.60938 0 0.98438 0.35938 0.98438 0.92188v3.2656h0.75v-3.5625c0-0.78125-0.59375-1.2812-1.5-1.2812-0.70312 0-1.1562 0.26562-1.5625 0.92188v-0.79688z"/>
</g>
<g id="ab">
<path d="m4.3438 0v-4.7188h-0.75v2.6719c0 0.96875-0.5 1.5938-1.2969 1.5938-0.59375 0-0.96875-0.35938-0.96875-0.92188v-3.3438h-0.75v3.6406c0 0.78125 0.59375 1.2812 1.5156 1.2812 0.6875 0 1.125-0.23438 1.5625-0.85938v0.65625zm-2.1406-6.4375h-0.9375v0.92188h0.9375zm1.4531 0h-0.92188v0.92188h0.92188z"/>
</g>
<g id="t">
<path d="m0.625-4.7188v4.7188h0.76562v-2.9688c0-0.67188 0.48438-1.2188 1.1094-1.2188 0.54688 0 0.85938 0.32812 0.85938 0.9375v3.25h0.76562v-2.9688c0-0.67188 0.48438-1.2188 1.1094-1.2188 0.54688 0 0.875 0.34375 0.875 0.9375v3.25h0.75v-3.5312c0-0.85938-0.48438-1.3125-1.375-1.3125-0.625 0-1 0.1875-1.4375 0.71875-0.28125-0.51562-0.65625-0.71875-1.2812-0.71875s-1.0469 0.23438-1.4375 0.79688v-0.67188z"/>
</g>
<g id="aa">
<path d="m2.0625-6.5625-2.1406 6.75h0.5l2.1406-6.75z"/>
</g>
<g id="n">
<path d="m0.48438 1.9688h0.75v-2.4688c0.40625 0.48438 0.84375 0.70312 1.4531 0.70312 1.2344 0 2.0156-0.98438 2.0156-2.4844 0-1.5781-0.76562-2.5625-2.0156-2.5625-0.64062 0-1.1562 0.28125-1.5156 0.84375v-0.71875h-0.6875zm2.0781-6.125c0.82812 0 1.3594 0.73438 1.3594 1.8594 0 1.0781-0.54688 1.7969-1.3594 1.7969s-1.3281-0.71875-1.3281-1.8281c0-1.0938 0.51562-1.8281 1.3281-1.8281z"/>
</g>
<g id="s">
<path d="m4.2656-1.9688 0.67188 1.9688h0.9375l-2.2969-6.5625h-1.0781l-2.3438 6.5625h0.89062l0.6875-1.9688zm-0.23438-0.70312h-2.0938l1.0938-2.9844z"/>
</g>
<g id="r">
<path d="m3.9844-4.7188h-3.5156v0.65625h2.625l-2.8125 3.3906v0.67188h3.8281v-0.65625h-2.9219l2.7969-3.3906z"/>
</g>
<g id="l">
<path d="m4.8125-0.4375c-0.078125 0.015625-0.10938 0.015625-0.15625 0.015625-0.26562 0-0.40625-0.14062-0.40625-0.375v-2.7656c0-0.84375-0.60938-1.2812-1.7812-1.2812-0.6875 0-1.2344 0.1875-1.5625 0.54688-0.21875 0.23438-0.29688 0.51562-0.32812 0.96875h0.76562c0.0625-0.5625 0.40625-0.82812 1.1094-0.82812 0.67188 0 1.0469 0.25 1.0469 0.70312v0.1875c-0.015625 0.32812-0.17188 0.45312-0.78125 0.53125-1.0625 0.14062-1.2188 0.17188-1.5156 0.28125-0.54688 0.23438-0.82812 0.65625-0.82812 1.2656 0 0.85938 0.59375 1.3906 1.5469 1.3906 0.59375 0 1.0781-0.20312 1.6094-0.6875 0.046875 0.48438 0.28125 0.6875 0.76562 0.6875 0.17188 0 0.26562-0.015625 0.51562-0.078125zm-1.3125-1.0469c0 0.25-0.078125 0.40625-0.29688 0.60938-0.3125 0.28125-0.67188 0.42188-1.1094 0.42188-0.59375 0-0.9375-0.28125-0.9375-0.75 0-0.5 0.32812-0.75 1.1406-0.85938 0.79688-0.10938 0.95312-0.15625 1.2031-0.26562z"/>
</g>
<g id="g">
<path d="m4.4531-6.5625h-0.75v2.4375c-0.3125-0.46875-0.8125-0.71875-1.4375-0.71875-1.2344 0-2.0312 0.96875-2.0312 2.4844 0 1.5781 0.78125 2.5625 2.0469 2.5625 0.65625 0 1.1094-0.23438 1.5-0.82812v0.625h0.67188zm-2.0625 2.4062c0.79688 0 1.3125 0.71875 1.3125 1.8594 0 1.0781-0.51562 1.7969-1.3125 1.7969-0.82812 0-1.375-0.71875-1.375-1.8281 0-1.0938 0.54688-1.8281 1.375-1.8281z"/>
</g>
<g id="m">
<path d="m4.8906-2.4062h-4.5312v0.64062h4.5312z"/>
</g>
<g id="z">
<path d="m4.9844 0 1.3906-4.7188h-0.84375l-0.9375 3.6719-0.9375-3.6719h-0.90625l-0.90625 3.6719-0.96875-3.6719h-0.82812l1.375 4.7188h0.84375l0.90625-3.7031 0.95312 3.7031z"/>
</g>
<g id="y">
<path d="m0.48438-6.5625v6.5625h0.67188v-0.60938c0.35938 0.5625 0.84375 0.8125 1.5 0.8125 1.2344 0 2.0469-1.0156 2.0469-2.5781 0-1.5312-0.76562-2.4688-2.0156-2.4688-0.64062 0-1.1094 0.23438-1.4531 0.76562v-2.4844zm2.0625 2.4062c0.84375 0 1.375 0.73438 1.375 1.8594 0 1.0781-0.5625 1.7969-1.375 1.7969-0.79688 0-1.3125-0.71875-1.3125-1.8281 0-1.0938 0.51562-1.8281 1.3125-1.8281z"/>
</g>
<clipPath id="da">
<path d="m86 144h42v1h-42z"/>
</clipPath>
<clipPath id="cz">
<path d="m0.52734 446.39h307v-447h-307zm126.61-302.11v0.41797l-4.2891 0.69141v-1.8008z" clip-rule="evenodd"/>
</clipPath>
<clipPath id="co">
<path d="m86 108h42v1h-42z"/>
</clipPath>
<clipPath id="cd">
<path d="m0.52734 446.39h307v-447h-307zm126.61-338.11v0.41797l-4.2891 0.69141v-1.8008z" clip-rule="evenodd"/>
</clipPath>
<clipPath id="bs">
<path d="m185 256h42v2h-42z"/>
</clipPath>
<clipPath id="bh">
<path d="m0.52734 446.39h307v-447h-307zm225.61-189.61v0.41797l-4.2891 0.69141v-1.8008z" clip-rule="evenodd"/>
</clipPath>
<clipPath id="aw">
<path d="m185 274h42v2h-42z"/>
</clipPath>
<clipPath id="al">
<path d="m0.52734 446.39h307v-447h-307zm225.61-171.61v0.41797l-4.2891 0.69141v-1.8008z" clip-rule="evenodd"/>
</clipPath>
<clipPath id="ah">
<path d="m185 220h42v2h-42z"/>
</clipPath>
<clipPath id="ag">
<path d="m0.52734 446.39h307v-447h-307zm225.61-225.61v0.41797l-4.2891 0.69141v-1.8008z" clip-rule="evenodd"/>
</clipPath>
<clipPath id="cy">
<path d="m185 238h42v2h-42z"/>
</clipPath>
<clipPath id="cx">
<path d="m0.52734 446.39h307v-447h-307zm225.61-207.61v0.41797l-4.2891 0.69141v-1.8008z" clip-rule="evenodd"/>
</clipPath>
<clipPath id="cw">
<path d="m279 346h28.527v11h-28.527z"/>
</clipPath>
<clipPath id="cv">
<path d="m279 364h28.527v11h-28.527z"/>
</clipPath>
<clipPath id="cu">
<path d="m239 351h42v1h-42z"/>
</clipPath>
<clipPath id="ct">
<path d="m0.52734 446.39h307v-447h-307zm279.61-95.109v0.41797l-4.2891 0.69141v-1.8008z" clip-rule="evenodd"/>
</clipPath>
<clipPath id="cs">
<path d="m239 369h42v1h-42z"/>
</clipPath>
<clipPath id="cr">
<path d="m0.52734 446.39h307v-447h-307zm279.61-77.109v0.41797l-4.2891 0.69141v-1.8008z" clip-rule="evenodd"/>
</clipPath>
<clipPath id="cq">
<path d="m279 310h28.527v11h-28.527z"/>
</clipPath>
<clipPath id="cp">
<path d="m279 328h28.527v11h-28.527z"/>
</clipPath>
<clipPath id="cn">
<path d="m239 315h42v1h-42z"/>
</clipPath>
<clipPath id="cm">
<path d="m0.52734 446.39h307v-447h-307zm279.61-131.11v0.41797l-4.2891 0.69141v-1.8008z" clip-rule="evenodd"/>
</clipPath>
<clipPath id="cl">
<path d="m239 333h42v1h-42z"/>
</clipPath>
<clipPath id="ck">
<path d="m0.52734 446.39h307v-447h-307zm279.61-113.11v0.41797l-4.2891 0.69141v-1.8008z" clip-rule="evenodd"/>
</clipPath>
<clipPath id="cj">
<path d="m185 324h51v1h-51z"/>
</clipPath>
<clipPath id="ci">
<path d="m0.52734 446.39h307v-447h-307zm234.61-122.11v0.41797l-4.2891 0.69141v-1.8008z" clip-rule="evenodd"/>
</clipPath>
<clipPath id="ch">
<path d="m185 360h51v1h-51z"/>
</clipPath>
<clipPath id="cg">
<path d="m0.52734 446.39h307v-447h-307zm234.61-86.109v0.41797l-4.2891 0.69141v-1.8008z" clip-rule="evenodd"/>
</clipPath>
<clipPath id="cf">
<path d="m234 436h11v10.395h-11z"/>
</clipPath>
<clipPath id="ce">
<path d="m234 418h11v28.395h-11z"/>
</clipPath>
<clipPath id="cc">
<path d="m279 418h28.527v11h-28.527z"/>
</clipPath>
<clipPath id="cb">
<path d="m279 436h28.527v10.395h-28.527z"/>
</clipPath>
<clipPath id="ca">
<path d="m239 423h42v1h-42z"/>
</clipPath>
<clipPath id="bz">
<path d="m0.52734 446.39h307v-447h-307zm279.61-23.109v0.41797l-4.2891 0.69141v-1.8008z" clip-rule="evenodd"/>
</clipPath>
<clipPath id="by">
<path d="m239 441h42v1h-42z"/>
</clipPath>
<clipPath id="bx">
<path d="m0.52734 446.39h307v-447h-307zm279.61-5.1094v0.41797l-4.2891 0.69141v-1.8008z" clip-rule="evenodd"/>
</clipPath>
<clipPath id="bw">
<path d="m279 382h28.527v11h-28.527z"/>
</clipPath>
<clipPath id="bv">
<path d="m279 400h28.527v11h-28.527z"/>
</clipPath>
<clipPath id="bu">
<path d="m239 387h42v1h-42z"/>
</clipPath>
<clipPath id="bt">
<path d="m0.52734 446.39h307v-447h-307zm279.61-59.109v0.41797l-4.2891 0.69141v-1.8008z" clip-rule="evenodd"/>
</clipPath>
<clipPath id="br">
<path d="m239 405h42v1h-42z"/>
</clipPath>
<clipPath id="bq">
<path d="m0.52734 446.39h307v-447h-307zm279.61-41.109v0.41797l-4.2891 0.69141v-1.8008z" clip-rule="evenodd"/>
</clipPath>
<clipPath id="bp">
<path d="m185 396h51v1h-51z"/>
</clipPath>
<clipPath id="bo">
<path d="m0.52734 446.39h307v-447h-307zm234.61-50.109v0.41797l-4.2891 0.69141v-1.8008z" clip-rule="evenodd"/>
</clipPath>
<clipPath id="bn">
<path d="m185 432h51v1h-51z"/>
</clipPath>
<clipPath id="bm">
<path d="m0.52734 446.39h307v-447h-307zm234.61-14.109v0.41797l-4.2891 0.69141v-1.8008z" clip-rule="evenodd"/>
</clipPath>
<clipPath id="bl">
<path d="m0.52734 18h91.473v19h-91.473z"/>
</clipPath>
<clipPath id="bk">
<path d="m0.52734 0h91.473v19h-91.473z"/>
</clipPath>
<clipPath id="bj">
<path d="m0.52734 36h91.473v19h-91.473z"/>
</clipPath>
<clipPath id="bi">
<path d="m0.52734 54h91.473v19h-91.473z"/>
</clipPath>
<clipPath id="bg">
<path d="m0.52734 72h91.473v19h-91.473z"/>
</clipPath>
<clipPath id="bf">
<path d="m0.52734 90h91.473v73h-91.473z"/>
</clipPath>
<clipPath id="be">
<path d="m0.52734 162h91.473v19h-91.473z"/>
</clipPath>
<clipPath id="bd">
<path d="m0.52734 180h91.473v19h-91.473z"/>
</clipPath>
<clipPath id="bc">
<path d="m0.52734 198h91.473v19h-91.473z"/>
</clipPath>
<clipPath id="bb">
<path d="m86 171h42v1h-42z"/>
</clipPath>
<clipPath id="ba">
<path d="m0.52734 446.39h307v-447h-307zm126.61-275.11v0.41797l-4.2891 0.69141v-1.8008z" clip-rule="evenodd"/>
</clipPath>
<clipPath id="az">
<path d="m131 162h42v1h-42z"/>
</clipPath>
<clipPath id="ay">
<path d="m0.52734 446.39h307v-447h-307zm171.61-284.11v0.41797l-4.2891 0.69141v-1.8008z" clip-rule="evenodd"/>
</clipPath>
<clipPath id="ax">
<path d="m131 180h42v1h-42z"/>
</clipPath>
<clipPath id="av">
<path d="m0.52734 446.39h307v-447h-307zm171.61-266.11v0.41797l-4.2891 0.69141v-1.8008z" clip-rule="evenodd"/>
</clipPath>
<clipPath id="au">
<path d="m131 229h51v2h-51z"/>
</clipPath>
<clipPath id="at">
<path d="m0.52734 446.39h307v-447h-307zm180.61-216.61v0.41797l-4.2891 0.69141v-1.8008z" clip-rule="evenodd"/>
</clipPath>
<clipPath id="as">
<path d="m131 265h51v2h-51z"/>
</clipPath>
<clipPath id="ar">
<path d="m0.52734 446.39h307v-447h-307zm180.61-180.61v0.41797l-4.2891 0.69141v-1.8008z" clip-rule="evenodd"/>
</clipPath>
<clipPath id="aq">
<path d="m131 342h51v19h-51z"/>
</clipPath>
<clipPath id="ap">
<path d="m0.52734 446.39h307v-447h-307zm180.61-104.11v0.41797l-4.2891 0.69141v-1.8008z" clip-rule="evenodd"/>
</clipPath>
<clipPath id="ao">
<path d="m131 396h51v19h-51z"/>
</clipPath>
<clipPath id="an">
<path d="m0.52734 446.39h307v-447h-307zm180.61-32.109v0.41797l-4.2891 0.69141v-1.8008z" clip-rule="evenodd"/>
</clipPath>
<clipPath id="am">
<path d="m86 189h42v60h-42z"/>
</clipPath>
<clipPath id="ak">
<path d="m0.52734 446.39h307v-447h-307zm126.61-198.61v0.41797l-4.2891 0.69141v-1.8008z" clip-rule="evenodd"/>
</clipPath>
<clipPath id="aj">
<path d="m86 207h42v172h-42z"/>
</clipPath>
<clipPath id="ai">
<path d="m0.52734 446.39h307v-447h-307zm126.61-68.109v0.41797l-4.2891 0.69141v-1.8008z" clip-rule="evenodd"/>
</clipPath>
</defs>
<g>
<use x="171.928" y="130.094" xlink:href="#af"/>
<use x="176.932" y="130.094" xlink:href="#ad"/>
<use x="181.936" y="130.094" xlink:href="#glyph-0-3"/>
<use x="184.438" y="130.094" xlink:href="#x"/>
<use x="190.441" y="130.094" xlink:href="#k"/>
<use x="192.439" y="130.094" xlink:href="#q"/>
<use x="197.443" y="130.094" xlink:href="#h"/>
<use x="201.943" y="130.094" xlink:href="#f"/>
<use x="206.443" y="130.094" xlink:href="#a"/>
</g>
<g clip-path="url(#da)">
<g clip-path="url(#cz)">
<path transform="matrix(.1 0 0 -.1 .528 446.39)" d="m859.02 3019h405" fill="none" stroke="#000" stroke-miterlimit="10" stroke-width="2.25"/>
</g>
</g>
<path transform="matrix(.1 0 0 -.1 .528 446.39)" d="m1223.2 3010 36.016 9.0234-36.016 8.9844z" fill-rule="evenodd" stroke="#000" stroke-miterlimit="10" stroke-width="2.25"/>
<path transform="matrix(.1 0 0 -.1 .528 446.39)" d="m1264 3334h270v90h-270z" fill="#e5e5e5" fill-rule="evenodd" stroke="#000" stroke-miterlimit="10" stroke-width="2.25"/>
<g clip-path="url(#co)">
<g clip-path="url(#cd)">
<path transform="matrix(.1 0 0 -.1 .528 446.39)" d="m859.02 3379h405" fill="none" stroke="#000" stroke-miterlimit="10" stroke-width="2.25"/>
</g>
</g>
<path transform="matrix(.1 0 0 -.1 .528 446.39)" d="m1223.2 3370 36.016 9.0234-36.016 8.9844z" fill-rule="evenodd" stroke="#000" stroke-miterlimit="10" stroke-width="2.25"/>
<path d="m186.93 256.99c0 0.82812-0.67188 1.5-1.5 1.5-0.82813 0-1.5-0.67188-1.5-1.5 0-0.82813 0.67187-1.5 1.5-1.5 0.82812 0 1.5 0.67187 1.5 1.5" fill-rule="evenodd"/>
<path transform="matrix(.1 0 0 -.1 .528 446.39)" d="m1864 1894c0-8.2812-6.7188-15-15-15s-15 6.7188-15 15 6.7188 15 15 15 15-6.7188 15-15z" fill="none" stroke="#000" stroke-miterlimit="10" stroke-width="2.25"/>
<path d="m186.93 274.99c0 0.82812-0.67188 1.5-1.5 1.5-0.82813 0-1.5-0.67188-1.5-1.5 0-0.82813 0.67187-1.5 1.5-1.5 0.82812 0 1.5 0.67187 1.5 1.5" fill-rule="evenodd"/>
<path transform="matrix(.1 0 0 -.1 .528 446.39)" d="m1864 1714c0-8.2812-6.7188-15-15-15s-15 6.7188-15 15 6.7188 15 15 15 15-6.7188 15-15z" fill="none" stroke="#000" stroke-miterlimit="10" stroke-width="2.25"/>
<path d="m185.73 265.99c0 0.16797-0.13281 0.30078-0.29687 0.30078-0.16797 0-0.30078-0.13281-0.30078-0.30078 0-0.16406 0.13281-0.29688 0.30078-0.29688 0.16406 0 0.29687 0.13281 0.29687 0.29688" fill-rule="evenodd"/>
<path transform="matrix(.1 0 0 -.1 .528 446.39)" d="m1852 1804c0-1.6797-1.3281-3.0078-2.9688-3.0078-1.6797 0-3.0078 1.3281-3.0078 3.0078 0 1.6406 1.3281 2.9688 3.0078 2.9688 1.6406 0 2.9688-1.3281 2.9688-2.9688z" fill="none" stroke="#000" stroke-miterlimit="10" stroke-width="2.25"/>
<path d="m185.73 261.49c0 0.16797-0.13281 0.30078-0.29687 0.30078-0.16797 0-0.30078-0.13281-0.30078-0.30078 0-0.16406 0.13281-0.29688 0.30078-0.29688 0.16406 0 0.29687 0.13281 0.29687 0.29688" fill-rule="evenodd"/>
<path transform="matrix(.1 0 0 -.1 .528 446.39)" d="m1852 1849c0-1.6797-1.3281-3.0078-2.9688-3.0078-1.6797 0-3.0078 1.3281-3.0078 3.0078 0 1.6406 1.3281 2.9688 3.0078 2.9688 1.6406 0 2.9688-1.3281 2.9688-2.9688z" fill="none" stroke="#000" stroke-miterlimit="10" stroke-width="2.25"/>
<path d="m185.73 270.49c0 0.16797-0.13281 0.30078-0.29687 0.30078-0.16797 0-0.30078-0.13281-0.30078-0.30078 0-0.16406 0.13281-0.29688 0.30078-0.29688 0.16406 0 0.29687 0.13281 0.29687 0.29688" fill-rule="evenodd"/>
<path transform="matrix(.1 0 0 -.1 .528 446.39)" d="m1852 1759c0-1.6797-1.3281-3.0078-2.9688-3.0078-1.6797 0-3.0078 1.3281-3.0078 3.0078 0 1.6406 1.3281 2.9688 3.0078 2.9688 1.6406 0 2.9688-1.3281 2.9688-2.9688z" fill="none" stroke="#000" stroke-miterlimit="10" stroke-width="2.25"/>
<path transform="matrix(.1 0 0 -.1 .528 446.39)" d="m1804 1669h90v270h-90z" fill="none" stroke="#000" stroke-miterlimit="10" stroke-width="2.25"/>
<path transform="matrix(.1 0 0 -.1 .528 446.39)" d="m2254 1849h270v90h-270z" fill="#e5e5e5" fill-rule="evenodd" stroke="#000" stroke-miterlimit="10" stroke-width="2.25"/>
<path transform="matrix(.1 0 0 -.1 .528 446.39)" d="m2254 1669h270v90h-270z" fill="#e5e5e5" fill-rule="evenodd" stroke="#000" stroke-miterlimit="10" stroke-width="2.25"/>
<g clip-path="url(#bs)">
<g clip-path="url(#bh)">
<path transform="matrix(.1 0 0 -.1 .528 446.39)" d="m1849 1894h405" fill="none" stroke="#000" stroke-miterlimit="10" stroke-width="2.25"/>
</g>
</g>
<path transform="matrix(.1 0 0 -.1 .528 446.39)" d="m2213.2 1885 36.016 9.0234-36.016 8.9844z" fill-rule="evenodd" stroke="#000" stroke-miterlimit="10" stroke-width="2.25"/>
<g clip-path="url(#aw)">
<g clip-path="url(#al)">
<path transform="matrix(.1 0 0 -.1 .528 446.39)" d="m1849 1714h405" fill="none" stroke="#000" stroke-miterlimit="10" stroke-width="2.25"/>
</g>
</g>
<path transform="matrix(.1 0 0 -.1 .528 446.39)" d="m2213.2 1705 36.016 9.0234-36.016 8.9844z" fill-rule="evenodd" stroke="#000" stroke-miterlimit="10" stroke-width="2.25"/>
<path d="m186.93 220.99c0 0.82812-0.67188 1.5-1.5 1.5-0.82813 0-1.5-0.67188-1.5-1.5 0-0.82813 0.67187-1.5 1.5-1.5 0.82812 0 1.5 0.67187 1.5 1.5" fill-rule="evenodd"/>
<path transform="matrix(.1 0 0 -.1 .528 446.39)" d="m1864 2254c0-8.2812-6.7188-15-15-15s-15 6.7188-15 15 6.7188 15 15 15 15-6.7188 15-15z" fill="none" stroke="#000" stroke-miterlimit="10" stroke-width="2.25"/>
<path d="m186.93 238.99c0 0.82812-0.67188 1.5-1.5 1.5-0.82813 0-1.5-0.67188-1.5-1.5 0-0.82813 0.67187-1.5 1.5-1.5 0.82812 0 1.5 0.67187 1.5 1.5" fill-rule="evenodd"/>
<path transform="matrix(.1 0 0 -.1 .528 446.39)" d="m1864 2074c0-8.2812-6.7188-15-15-15s-15 6.7188-15 15 6.7188 15 15 15 15-6.7188 15-15z" fill="none" stroke="#000" stroke-miterlimit="10" stroke-width="2.25"/>
<path d="m185.73 229.99c0 0.16797-0.13281 0.30078-0.29687 0.30078-0.16797 0-0.30078-0.13281-0.30078-0.30078 0-0.16406 0.13281-0.29688 0.30078-0.29688 0.16406 0 0.29687 0.13281 0.29687 0.29688" fill-rule="evenodd"/>
<path transform="matrix(.1 0 0 -.1 .528 446.39)" d="m1852 2164c0-1.6797-1.3281-3.0078-2.9688-3.0078-1.6797 0-3.0078 1.3281-3.0078 3.0078 0 1.6406 1.3281 2.9688 3.0078 2.9688 1.6406 0 2.9688-1.3281 2.9688-2.9688z" fill="none" stroke="#000" stroke-miterlimit="10" stroke-width="2.25"/>
<path d="m185.73 225.49c0 0.16797-0.13281 0.30078-0.29687 0.30078-0.16797 0-0.30078-0.13281-0.30078-0.30078 0-0.16406 0.13281-0.29688 0.30078-0.29688 0.16406 0 0.29687 0.13281 0.29687 0.29688" fill-rule="evenodd"/>
<path transform="matrix(.1 0 0 -.1 .528 446.39)" d="m1852 2209c0-1.6797-1.3281-3.0078-2.9688-3.0078-1.6797 0-3.0078 1.3281-3.0078 3.0078 0 1.6406 1.3281 2.9688 3.0078 2.9688 1.6406 0 2.9688-1.3281 2.9688-2.9688z" fill="none" stroke="#000" stroke-miterlimit="10" stroke-width="2.25"/>
<path d="m185.73 234.49c0 0.16797-0.13281 0.30078-0.29687 0.30078-0.16797 0-0.30078-0.13281-0.30078-0.30078 0-0.16406 0.13281-0.29688 0.30078-0.29688 0.16406 0 0.29687 0.13281 0.29687 0.29688" fill-rule="evenodd"/>
<path transform="matrix(.1 0 0 -.1 .528 446.39)" d="m1852 2119c0-1.6797-1.3281-3.0078-2.9688-3.0078-1.6797 0-3.0078 1.3281-3.0078 3.0078 0 1.6406 1.3281 2.9688 3.0078 2.9688 1.6406 0 2.9688-1.3281 2.9688-2.9688z" fill="none" stroke="#000" stroke-miterlimit="10" stroke-width="2.25"/>
<path transform="matrix(.1 0 0 -.1 .528 446.39)" d="m1804 2029h90v270h-90z" fill="none" stroke="#000" stroke-miterlimit="10" stroke-width="2.25"/>
<path transform="matrix(.1 0 0 -.1 .528 446.39)" d="m2254 2209h270v90h-270z" fill="#e5e5e5" fill-rule="evenodd" stroke="#000" stroke-miterlimit="10" stroke-width="2.25"/>
<path transform="matrix(.1 0 0 -.1 .528 446.39)" d="m2254 2029h270v90h-270z" fill="#e5e5e5" fill-rule="evenodd" stroke="#000" stroke-miterlimit="10" stroke-width="2.25"/>
<g clip-path="url(#ah)">
<g clip-path="url(#ag)">
<path transform="matrix(.1 0 0 -.1 .528 446.39)" d="m1849 2254h405" fill="none" stroke="#000" stroke-miterlimit="10" stroke-width="2.25"/>
</g>
</g>
<path transform="matrix(.1 0 0 -.1 .528 446.39)" d="m2213.2 2245 36.016 9.0234-36.016 8.9844z" fill-rule="evenodd" stroke="#000" stroke-miterlimit="10" stroke-width="2.25"/>
<g clip-path="url(#cy)">
<g clip-path="url(#cx)">
<path transform="matrix(.1 0 0 -.1 .528 446.39)" d="m1849 2074h405" fill="none" stroke="#000" stroke-miterlimit="10" stroke-width="2.25"/>
</g>
</g>
<path transform="matrix(.1 0 0 -.1 .528 446.39)" d="m2213.2 2065 36.016 9.0234-36.016 8.9844z" fill-rule="evenodd" stroke="#000" stroke-miterlimit="10" stroke-width="2.25"/>
<path d="m132.93 265.99c0 0.82812-0.67188 1.5-1.5 1.5-0.82813 0-1.5-0.67188-1.5-1.5 0-0.82813 0.67187-1.5 1.5-1.5 0.82812 0 1.5 0.67187 1.5 1.5" fill-rule="evenodd"/>
<path transform="matrix(.1 0 0 -.1 .528 446.39)" d="m1324 1804c0-8.2812-6.7188-15-15-15s-15 6.7188-15 15 6.7188 15 15 15 15-6.7188 15-15z" fill="none" stroke="#000" stroke-miterlimit="10" stroke-width="2.25"/>
<path d="m132.93 229.99c0 0.82812-0.67188 1.5-1.5 1.5-0.82813 0-1.5-0.67188-1.5-1.5 0-0.82813 0.67187-1.5 1.5-1.5 0.82812 0 1.5 0.67187 1.5 1.5" fill-rule="evenodd"/>
<path transform="matrix(.1 0 0 -.1 .528 446.39)" d="m1324 2164c0-8.2812-6.7188-15-15-15s-15 6.7188-15 15 6.7188 15 15 15 15-6.7188 15-15z" fill="none" stroke="#000" stroke-miterlimit="10" stroke-width="2.25"/>
<path transform="matrix(.1 0 0 -.1 .528 446.39)" d="m1312 2074c0-1.6797-1.3281-3.0078-2.9688-3.0078-1.6797 0-3.0078 1.3281-3.0078 3.0078 0 1.6406 1.3281 2.9688 3.0078 2.9688 1.6406 0 2.9688-1.3281 2.9688-2.9688z" fill="none" stroke="#000" stroke-miterlimit="10" stroke-width="2.25"/>
<path transform="matrix(.1 0 0 -.1 .528 446.39)" d="m1312 1984c0-1.6797-1.3281-3.0078-2.9688-3.0078-1.6797 0-3.0078 1.3281-3.0078 3.0078 0 1.6406 1.3281 2.9688 3.0078 2.9688 1.6406 0 2.9688-1.3281 2.9688-2.9688z" fill="none" stroke="#000" stroke-miterlimit="10" stroke-width="2.25"/>
<path transform="matrix(.1 0 0 -.1 .528 446.39)" d="m1312 1894c0-1.6797-1.3281-3.0078-2.9688-3.0078-1.6797 0-3.0078 1.3281-3.0078 3.0078 0 1.6406 1.3281 2.9688 3.0078 2.9688 1.6406 0 2.9688-1.3281 2.9688-2.9688z" fill="none" stroke="#000" stroke-miterlimit="10" stroke-width="2.25"/>
<path transform="matrix(.1 0 0 -.1 .528 446.39)" d="m1264 1731.1h90v505.82h-90z" fill="none" stroke="#000" stroke-miterlimit="10" stroke-width="2.25"/>
<path d="m132.93 396.49c0 0.82812-0.67188 1.5-1.5 1.5-0.82813 0-1.5-0.67188-1.5-1.5 0-0.82813 0.67187-1.5 1.5-1.5 0.82812 0 1.5 0.67187 1.5 1.5" fill-rule="evenodd"/>
<path transform="matrix(.1 0 0 -.1 .528 446.39)" d="m1324 499.02c0-8.2812-6.7188-15-15-15s-15 6.7188-15 15 6.7188 15 15 15 15-6.7188 15-15z" fill="none" stroke="#000" stroke-miterlimit="10" stroke-width="2.25"/>
<path d="m132.93 360.49c0 0.82812-0.67188 1.5-1.5 1.5-0.82813 0-1.5-0.67188-1.5-1.5 0-0.82813 0.67187-1.5 1.5-1.5 0.82812 0 1.5 0.67187 1.5 1.5" fill-rule="evenodd"/>
<path transform="matrix(.1 0 0 -.1 .528 446.39)" d="m1324 859.02c0-8.2812-6.7188-15-15-15s-15 6.7188-15 15 6.7188 15 15 15 15-6.7188 15-15z" fill="none" stroke="#000" stroke-miterlimit="10" stroke-width="2.25"/>
<path transform="matrix(.1 0 0 -.1 .528 446.39)" d="m1312 769.02c0-1.6797-1.3281-3.0078-2.9688-3.0078-1.6797 0-3.0078 1.3281-3.0078 3.0078 0 1.6406 1.3281 2.9688 3.0078 2.9688 1.6406 0 2.9688-1.3281 2.9688-2.9688z" fill="none" stroke="#000" stroke-miterlimit="10" stroke-width="2.25"/>
<path transform="matrix(.1 0 0 -.1 .528 446.39)" d="m1312 679.02c0-1.6797-1.3281-3.0078-2.9688-3.0078-1.6797 0-3.0078 1.3281-3.0078 3.0078 0 1.6406 1.3281 2.9688 3.0078 2.9688 1.6406 0 2.9688-1.3281 2.9688-2.9688z" fill="none" stroke="#000" stroke-miterlimit="10" stroke-width="2.25"/>
<path transform="matrix(.1 0 0 -.1 .528 446.39)" d="m1312 589.02c0-1.6797-1.3281-3.0078-2.9688-3.0078-1.6797 0-3.0078 1.3281-3.0078 3.0078 0 1.6406 1.3281 2.9688 3.0078 2.9688 1.6406 0 2.9688-1.3281 2.9688-2.9688z" fill="none" stroke="#000" stroke-miterlimit="10" stroke-width="2.25"/>
<path transform="matrix(.1 0 0 -.1 .528 446.39)" d="m1264 426.09h90v505.82h-90z" fill="none" stroke="#000" stroke-miterlimit="10" stroke-width="2.25"/>
<path transform="matrix(.1 0 0 -.1 .528 446.39)" d="m953.51 4459c32.891-7.3438 57.93-34.141 63.008-67.5" fill="none" stroke="#000" stroke-miterlimit="10" stroke-width="2.25"/>
<path transform="matrix(.1 0 0 -.1 .528 446.39)" d="m1016.5 4391.5v-337.5" fill="none" stroke="#000" stroke-miterlimit="10" stroke-width="2.25"/>
<path transform="matrix(.1 0 0 -.1 .528 446.39)" d="m953.51 3559c32.891 7.3438 57.93 34.18 63.008 67.5" fill="none" stroke="#000" stroke-miterlimit="10" stroke-width="2.25"/>
<path transform="matrix(.1 0 0 -.1 .528 446.39)" d="m1016.5 3626.5v337.5" fill="none" stroke="#000" stroke-miterlimit="10" stroke-width="2.25"/>
<path transform="matrix(.1 0 0 -.1 .528 446.39)" d="m1016.5 4054c0.74219-23.75 19.219-43.125 42.891-45" fill="none" stroke="#000" stroke-miterlimit="10" stroke-width="2.25"/>
<path transform="matrix(.1 0 0 -.1 .528 446.39)" d="m1018.6 3959.8c0.78125 23.75 19.258 43.125 42.891 45" fill="none" stroke="#000" stroke-miterlimit="10" stroke-width="2.25"/>
<path transform="matrix(.1 0 0 -.1 .528 446.39)" d="m1592.5 3424c16.68-3.4375 29.336-17.07 31.523-33.906" fill="none" stroke="#000" stroke-miterlimit="10" stroke-width="2.25"/>
<path transform="matrix(.1 0 0 -.1 .528 446.39)" d="m1624 3390.1v-168.59" fill="none" stroke="#000" stroke-miterlimit="10" stroke-width="2.25"/>
<path transform="matrix(.1 0 0 -.1 .528 446.39)" d="m1592.5 2974c16.68 3.3984 29.336 17.031 31.523 33.867" fill="none" stroke="#000" stroke-miterlimit="10" stroke-width="2.25"/>
<path transform="matrix(.1 0 0 -.1 .528 446.39)" d="m1624 3007.9v168.63" fill="none" stroke="#000" stroke-miterlimit="10" stroke-width="2.25"/>
<path transform="matrix(.1 0 0 -.1 .528 446.39)" d="m1624 3221.5c0.54688-11.758 9.6094-21.367 21.328-22.5" fill="none" stroke="#000" stroke-miterlimit="10" stroke-width="2.25"/>
<path transform="matrix(.1 0 0 -.1 .528 446.39)" d="m1624.9 3174.4c0.50781 11.875 9.7656 21.484 21.641 22.5" fill="none" stroke="#000" stroke-miterlimit="10" stroke-width="2.25"/>
<path d="m240.93 351.49c0 0.82812-0.67188 1.5-1.5 1.5-0.82813 0-1.5-0.67188-1.5-1.5 0-0.82813 0.67187-1.5 1.5-1.5 0.82812 0 1.5 0.67187 1.5 1.5" fill-rule="evenodd"/>
<path transform="matrix(.1 0 0 -.1 .528 446.39)" d="m2404 949.02c0-8.2812-6.7188-15-15-15s-15 6.7188-15 15 6.7188 15 15 15 15-6.7188 15-15z" fill="none" stroke="#000" stroke-miterlimit="10" stroke-width="2.25"/>
<path d="m240.93 369.49c0 0.82812-0.67188 1.5-1.5 1.5-0.82813 0-1.5-0.67188-1.5-1.5 0-0.82813 0.67187-1.5 1.5-1.5 0.82812 0 1.5 0.67187 1.5 1.5" fill-rule="evenodd"/>
<path transform="matrix(.1 0 0 -.1 .528 446.39)" d="m2404 769.02c0-8.2812-6.7188-15-15-15s-15 6.7188-15 15 6.7188 15 15 15 15-6.7188 15-15z" fill="none" stroke="#000" stroke-miterlimit="10" stroke-width="2.25"/>
<path d="m239.73 360.49c0 0.16797-0.13281 0.30078-0.29687 0.30078-0.16797 0-0.30078-0.13281-0.30078-0.30078 0-0.16406 0.13281-0.29688 0.30078-0.29688 0.16406 0 0.29687 0.13281 0.29687 0.29688" fill-rule="evenodd"/>
<path transform="matrix(.1 0 0 -.1 .528 446.39)" d="m2392 859.02c0-1.6797-1.3281-3.0078-2.9688-3.0078-1.6797 0-3.0078 1.3281-3.0078 3.0078 0 1.6406 1.3281 2.9688 3.0078 2.9688 1.6406 0 2.9688-1.3281 2.9688-2.9688z" fill="none" stroke="#000" stroke-miterlimit="10" stroke-width="2.25"/>
<path d="m239.73 355.99c0 0.16797-0.13281 0.30078-0.29687 0.30078-0.16797 0-0.30078-0.13281-0.30078-0.30078 0-0.16406 0.13281-0.29688 0.30078-0.29688 0.16406 0 0.29687 0.13281 0.29687 0.29688" fill-rule="evenodd"/>
<path transform="matrix(.1 0 0 -.1 .528 446.39)" d="m2392 904.02c0-1.6797-1.3281-3.0078-2.9688-3.0078-1.6797 0-3.0078 1.3281-3.0078 3.0078 0 1.6406 1.3281 2.9688 3.0078 2.9688 1.6406 0 2.9688-1.3281 2.9688-2.9688z" fill="none" stroke="#000" stroke-miterlimit="10" stroke-width="2.25"/>
<path d="m239.73 364.99c0 0.16797-0.13281 0.30078-0.29687 0.30078-0.16797 0-0.30078-0.13281-0.30078-0.30078 0-0.16406 0.13281-0.29688 0.30078-0.29688 0.16406 0 0.29687 0.13281 0.29687 0.29688" fill-rule="evenodd"/>
<path transform="matrix(.1 0 0 -.1 .528 446.39)" d="m2392 814.02c0-1.6797-1.3281-3.0078-2.9688-3.0078-1.6797 0-3.0078 1.3281-3.0078 3.0078 0 1.6406 1.3281 2.9688 3.0078 2.9688 1.6406 0 2.9688-1.3281 2.9688-2.9688z" fill="none" stroke="#000" stroke-miterlimit="10" stroke-width="2.25"/>
<path transform="matrix(.1 0 0 -.1 .528 446.39)" d="m2344 724.02h90v270h-90z" fill="none" stroke="#000" stroke-miterlimit="10" stroke-width="2.25"/>
<path d="m279.93 355.99h27v-9h-27z" fill="#e5e5e5" fill-rule="evenodd"/>
<g clip-path="url(#cw)">
<path transform="matrix(.1 0 0 -.1 .528 446.39)" d="m2794 904.02h270v90h-270z" fill="none" stroke="#000" stroke-miterlimit="10" stroke-width="2.25"/>
</g>
<path d="m279.93 373.99h27v-9h-27z" fill="#e5e5e5" fill-rule="evenodd"/>
<g clip-path="url(#cv)">
<path transform="matrix(.1 0 0 -.1 .528 446.39)" d="m2794 724.02h270v90h-270z" fill="none" stroke="#000" stroke-miterlimit="10" stroke-width="2.25"/>
</g>
<g clip-path="url(#cu)">
<g clip-path="url(#ct)">
<path transform="matrix(.1 0 0 -.1 .528 446.39)" d="m2389 949.02h405" fill="none" stroke="#000" stroke-miterlimit="10" stroke-width="2.25"/>
</g>
</g>
<path transform="matrix(.1 0 0 -.1 .528 446.39)" d="m2753.2 939.99 36.016 9.0234-36.016 8.9844z" fill-rule="evenodd" stroke="#000" stroke-miterlimit="10" stroke-width="2.25"/>
<g clip-path="url(#cs)">
<g clip-path="url(#cr)">
<path transform="matrix(.1 0 0 -.1 .528 446.39)" d="m2389 769.02h405" fill="none" stroke="#000" stroke-miterlimit="10" stroke-width="2.25"/>
</g>
</g>
<path transform="matrix(.1 0 0 -.1 .528 446.39)" d="m2753.2 759.99 36.016 9.0234-36.016 8.9844z" fill-rule="evenodd" stroke="#000" stroke-miterlimit="10" stroke-width="2.25"/>
<path d="m240.93 315.49c0 0.82812-0.67188 1.5-1.5 1.5-0.82813 0-1.5-0.67188-1.5-1.5 0-0.82813 0.67187-1.5 1.5-1.5 0.82812 0 1.5 0.67187 1.5 1.5" fill-rule="evenodd"/>
<path transform="matrix(.1 0 0 -.1 .528 446.39)" d="m2404 1309c0-8.2812-6.7188-15-15-15s-15 6.7188-15 15 6.7188 15 15 15 15-6.7188 15-15z" fill="none" stroke="#000" stroke-miterlimit="10" stroke-width="2.25"/>
<path d="m240.93 333.49c0 0.82812-0.67188 1.5-1.5 1.5-0.82813 0-1.5-0.67188-1.5-1.5 0-0.82813 0.67187-1.5 1.5-1.5 0.82812 0 1.5 0.67187 1.5 1.5" fill-rule="evenodd"/>
<path transform="matrix(.1 0 0 -.1 .528 446.39)" d="m2404 1129c0-8.2812-6.7188-15-15-15s-15 6.7188-15 15 6.7188 15 15 15 15-6.7188 15-15z" fill="none" stroke="#000" stroke-miterlimit="10" stroke-width="2.25"/>
<path d="m239.73 324.49c0 0.16797-0.13281 0.30078-0.29687 0.30078-0.16797 0-0.30078-0.13281-0.30078-0.30078 0-0.16406 0.13281-0.29688 0.30078-0.29688 0.16406 0 0.29687 0.13281 0.29687 0.29688" fill-rule="evenodd"/>
<path transform="matrix(.1 0 0 -.1 .528 446.39)" d="m2392 1219c0-1.6797-1.3281-3.0078-2.9688-3.0078-1.6797 0-3.0078 1.3281-3.0078 3.0078 0 1.6406 1.3281 2.9688 3.0078 2.9688 1.6406 0 2.9688-1.3281 2.9688-2.9688z" fill="none" stroke="#000" stroke-miterlimit="10" stroke-width="2.25"/>
<path d="m239.73 319.99c0 0.16797-0.13281 0.30078-0.29687 0.30078-0.16797 0-0.30078-0.13281-0.30078-0.30078 0-0.16406 0.13281-0.29688 0.30078-0.29688 0.16406 0 0.29687 0.13281 0.29687 0.29688" fill-rule="evenodd"/>
<path transform="matrix(.1 0 0 -.1 .528 446.39)" d="m2392 1264c0-1.6797-1.3281-3.0078-2.9688-3.0078-1.6797 0-3.0078 1.3281-3.0078 3.0078 0 1.6406 1.3281 2.9688 3.0078 2.9688 1.6406 0 2.9688-1.3281 2.9688-2.9688z" fill="none" stroke="#000" stroke-miterlimit="10" stroke-width="2.25"/>
<path d="m239.73 328.99c0 0.16797-0.13281 0.30078-0.29687 0.30078-0.16797 0-0.30078-0.13281-0.30078-0.30078 0-0.16406 0.13281-0.29688 0.30078-0.29688 0.16406 0 0.29687 0.13281 0.29687 0.29688" fill-rule="evenodd"/>
<path transform="matrix(.1 0 0 -.1 .528 446.39)" d="m2392 1174c0-1.6797-1.3281-3.0078-2.9688-3.0078-1.6797 0-3.0078 1.3281-3.0078 3.0078 0 1.6406 1.3281 2.9688 3.0078 2.9688 1.6406 0 2.9688-1.3281 2.9688-2.9688z" fill="none" stroke="#000" stroke-miterlimit="10" stroke-width="2.25"/>
<path transform="matrix(.1 0 0 -.1 .528 446.39)" d="m2344 1084h90v270h-90z" fill="none" stroke="#000" stroke-miterlimit="10" stroke-width="2.25"/>
<path d="m279.93 319.99h27v-9h-27z" fill="#e5e5e5" fill-rule="evenodd"/>
<g clip-path="url(#cq)">
<path transform="matrix(.1 0 0 -.1 .528 446.39)" d="m2794 1264h270v90h-270z" fill="none" stroke="#000" stroke-miterlimit="10" stroke-width="2.25"/>
</g>
<path d="m279.93 337.99h27v-9h-27z" fill="#e5e5e5" fill-rule="evenodd"/>
<g clip-path="url(#cp)">
<path transform="matrix(.1 0 0 -.1 .528 446.39)" d="m2794 1084h270v90h-270z" fill="none" stroke="#000" stroke-miterlimit="10" stroke-width="2.25"/>
</g>
<g clip-path="url(#cn)">
<g clip-path="url(#cm)">
<path transform="matrix(.1 0 0 -.1 .528 446.39)" d="m2389 1309h405" fill="none" stroke="#000" stroke-miterlimit="10" stroke-width="2.25"/>
</g>
</g>
<path transform="matrix(.1 0 0 -.1 .528 446.39)" d="m2753.2 1300 36.016 9.0234-36.016 8.9844z" fill-rule="evenodd" stroke="#000" stroke-miterlimit="10" stroke-width="2.25"/>
<g clip-path="url(#cl)">
<g clip-path="url(#ck)">
<path transform="matrix(.1 0 0 -.1 .528 446.39)" d="m2389 1129h405" fill="none" stroke="#000" stroke-miterlimit="10" stroke-width="2.25"/>
</g>
</g>
<path transform="matrix(.1 0 0 -.1 .528 446.39)" d="m2753.2 1120 36.016 9.0234-36.016 8.9844z" fill-rule="evenodd" stroke="#000" stroke-miterlimit="10" stroke-width="2.25"/>
<path d="m186.93 360.49c0 0.82812-0.67188 1.5-1.5 1.5-0.82813 0-1.5-0.67188-1.5-1.5 0-0.82813 0.67187-1.5 1.5-1.5 0.82812 0 1.5 0.67187 1.5 1.5" fill-rule="evenodd"/>
<path transform="matrix(.1 0 0 -.1 .528 446.39)" d="m1864 859.02c0-8.2812-6.7188-15-15-15s-15 6.7188-15 15 6.7188 15 15 15 15-6.7188 15-15z" fill="none" stroke="#000" stroke-miterlimit="10" stroke-width="2.25"/>
<path d="m186.93 324.49c0 0.82812-0.67188 1.5-1.5 1.5-0.82813 0-1.5-0.67188-1.5-1.5 0-0.82813 0.67187-1.5 1.5-1.5 0.82812 0 1.5 0.67187 1.5 1.5" fill-rule="evenodd"/>
<path transform="matrix(.1 0 0 -.1 .528 446.39)" d="m1864 1219c0-8.2812-6.7188-15-15-15s-15 6.7188-15 15 6.7188 15 15 15 15-6.7188 15-15z" fill="none" stroke="#000" stroke-miterlimit="10" stroke-width="2.25"/>
<path transform="matrix(.1 0 0 -.1 .528 446.39)" d="m1852 1129c0-1.6797-1.3281-3.0078-2.9688-3.0078-1.6797 0-3.0078 1.3281-3.0078 3.0078 0 1.6406 1.3281 2.9688 3.0078 2.9688 1.6406 0 2.9688-1.3281 2.9688-2.9688z" fill="none" stroke="#000" stroke-miterlimit="10" stroke-width="2.25"/>
<path transform="matrix(.1 0 0 -.1 .528 446.39)" d="m1852 1039c0-1.6797-1.3281-3.0078-2.9688-3.0078-1.6797 0-3.0078 1.3281-3.0078 3.0078 0 1.6406 1.3281 2.9688 3.0078 2.9688 1.6406 0 2.9688-1.3281 2.9688-2.9688z" fill="none" stroke="#000" stroke-miterlimit="10" stroke-width="2.25"/>
<path transform="matrix(.1 0 0 -.1 .528 446.39)" d="m1852 949.02c0-1.6797-1.3281-3.0078-2.9688-3.0078-1.6797 0-3.0078 1.3281-3.0078 3.0078 0 1.6406 1.3281 2.9688 3.0078 2.9688 1.6406 0 2.9688-1.3281 2.9688-2.9688z" fill="none" stroke="#000" stroke-miterlimit="10" stroke-width="2.25"/>
<path transform="matrix(.1 0 0 -.1 .528 446.39)" d="m1804 786.09h90v505.82h-90z" fill="none" stroke="#000" stroke-miterlimit="10" stroke-width="2.25"/>
<g clip-path="url(#cj)">
<g clip-path="url(#ci)">
<path transform="matrix(.1 0 0 -.1 .528 446.39)" d="m1849 1219h495" fill="none" stroke="#000" stroke-miterlimit="10" stroke-width="2.25"/>
</g>
</g>
<path transform="matrix(.1 0 0 -.1 .528 446.39)" d="m2303.2 1210 36.016 9.0234-36.016 8.9844z" fill-rule="evenodd" stroke="#000" stroke-miterlimit="10" stroke-width="2.25"/>
<g clip-path="url(#ch)">
<g clip-path="url(#cg)">
<path transform="matrix(.1 0 0 -.1 .528 446.39)" d="m1849 859.02h495" fill="none" stroke="#000" stroke-miterlimit="10" stroke-width="2.25"/>
</g>
</g>
<path transform="matrix(.1 0 0 -.1 .528 446.39)" d="m2303.2 849.99 36.016 9.0234-36.016 8.9844z" fill-rule="evenodd" stroke="#000" stroke-miterlimit="10" stroke-width="2.25"/>
<path d="m240.93 423.49c0 0.82812-0.67188 1.5-1.5 1.5-0.82813 0-1.5-0.67188-1.5-1.5 0-0.82813 0.67187-1.5 1.5-1.5 0.82812 0 1.5 0.67187 1.5 1.5" fill-rule="evenodd"/>
<path transform="matrix(.1 0 0 -.1 .528 446.39)" d="m2404 229.02c0-8.2812-6.7188-15-15-15s-15 6.7188-15 15 6.7188 15 15 15 15-6.7188 15-15z" fill="none" stroke="#000" stroke-miterlimit="10" stroke-width="2.25"/>
<path d="m240.93 441.49c0 0.82812-0.67188 1.5-1.5 1.5-0.82813 0-1.5-0.67188-1.5-1.5 0-0.82813 0.67187-1.5 1.5-1.5 0.82812 0 1.5 0.67187 1.5 1.5" fill-rule="evenodd"/>
<g clip-path="url(#cf)">
<path transform="matrix(.1 0 0 -.1 .528 446.39)" d="m2404 49.018c0-8.2812-6.7188-15-15-15s-15 6.7188-15 15 6.7188 15 15 15 15-6.7188 15-15z" fill="none" stroke="#000" stroke-miterlimit="10" stroke-width="2.25"/>
</g>
<path d="m239.73 432.49c0 0.16797-0.13281 0.30078-0.29687 0.30078-0.16797 0-0.30078-0.13281-0.30078-0.30078 0-0.16406 0.13281-0.29688 0.30078-0.29688 0.16406 0 0.29687 0.13281 0.29687 0.29688" fill-rule="evenodd"/>
<path transform="matrix(.1 0 0 -.1 .528 446.39)" d="m2392 139.02c0-1.6797-1.3281-3.0078-2.9688-3.0078-1.6797 0-3.0078 1.3281-3.0078 3.0078 0 1.6406 1.3281 2.9688 3.0078 2.9688 1.6406 0 2.9688-1.3281 2.9688-2.9688z" fill="none" stroke="#000" stroke-miterlimit="10" stroke-width="2.25"/>
<path d="m239.73 427.99c0 0.16797-0.13281 0.30078-0.29687 0.30078-0.16797 0-0.30078-0.13281-0.30078-0.30078 0-0.16406 0.13281-0.29688 0.30078-0.29688 0.16406 0 0.29687 0.13281 0.29687 0.29688" fill-rule="evenodd"/>
<path transform="matrix(.1 0 0 -.1 .528 446.39)" d="m2392 184.02c0-1.6797-1.3281-3.0078-2.9688-3.0078-1.6797 0-3.0078 1.3281-3.0078 3.0078 0 1.6406 1.3281 2.9688 3.0078 2.9688 1.6406 0 2.9688-1.3281 2.9688-2.9688z" fill="none" stroke="#000" stroke-miterlimit="10" stroke-width="2.25"/>
<path d="m239.73 436.99c0 0.16797-0.13281 0.30078-0.29687 0.30078-0.16797 0-0.30078-0.13281-0.30078-0.30078 0-0.16406 0.13281-0.29688 0.30078-0.29688 0.16406 0 0.29687 0.13281 0.29687 0.29688" fill-rule="evenodd"/>
<path transform="matrix(.1 0 0 -.1 .528 446.39)" d="m2392 94.018c0-1.6797-1.3281-3.0078-2.9688-3.0078-1.6797 0-3.0078 1.3281-3.0078 3.0078 0 1.6406 1.3281 2.9688 3.0078 2.9688 1.6406 0 2.9688-1.3281 2.9688-2.9688z" fill="none" stroke="#000" stroke-miterlimit="10" stroke-width="2.25"/>
<g clip-path="url(#ce)">
<path transform="matrix(.1 0 0 -.1 .528 446.39)" d="m2344 4.0181h90v270h-90z" fill="none" stroke="#000" stroke-miterlimit="10" stroke-width="2.25"/>
</g>
<path d="m279.93 427.99h27v-9h-27z" fill="#e5e5e5" fill-rule="evenodd"/>
<g clip-path="url(#cc)">
<path transform="matrix(.1 0 0 -.1 .528 446.39)" d="m2794 184.02h270v90h-270z" fill="none" stroke="#000" stroke-miterlimit="10" stroke-width="2.25"/>
</g>
<path d="m279.93 445.99h27v-9h-27z" fill="#e5e5e5" fill-rule="evenodd"/>
<g clip-path="url(#cb)">
<path transform="matrix(.1 0 0 -.1 .528 446.39)" d="m2794 4.0181h270v90h-270z" fill="none" stroke="#000" stroke-miterlimit="10" stroke-width="2.25"/>
</g>
<g clip-path="url(#ca)">
<g clip-path="url(#bz)">
<path transform="matrix(.1 0 0 -.1 .528 446.39)" d="m2389 229.02h405" fill="none" stroke="#000" stroke-miterlimit="10" stroke-width="2.25"/>
</g>
</g>
<path transform="matrix(.1 0 0 -.1 .528 446.39)" d="m2753.2 219.99 36.016 9.0234-36.016 8.9844z" fill-rule="evenodd" stroke="#000" stroke-miterlimit="10" stroke-width="2.25"/>
<g clip-path="url(#by)">
<g clip-path="url(#bx)">
<path transform="matrix(.1 0 0 -.1 .528 446.39)" d="m2389 49.018h405" fill="none" stroke="#000" stroke-miterlimit="10" stroke-width="2.25"/>
</g>
</g>
<path transform="matrix(.1 0 0 -.1 .528 446.39)" d="m2753.2 39.995 36.016 9.0234-36.016 8.9844z" fill-rule="evenodd" stroke="#000" stroke-miterlimit="10" stroke-width="2.25"/>
<path d="m240.93 387.49c0 0.82812-0.67188 1.5-1.5 1.5-0.82813 0-1.5-0.67188-1.5-1.5 0-0.82813 0.67187-1.5 1.5-1.5 0.82812 0 1.5 0.67187 1.5 1.5" fill-rule="evenodd"/>
<path transform="matrix(.1 0 0 -.1 .528 446.39)" d="m2404 589.02c0-8.2812-6.7188-15-15-15s-15 6.7188-15 15 6.7188 15 15 15 15-6.7188 15-15z" fill="none" stroke="#000" stroke-miterlimit="10" stroke-width="2.25"/>
<path d="m240.93 405.49c0 0.82812-0.67188 1.5-1.5 1.5-0.82813 0-1.5-0.67188-1.5-1.5 0-0.82813 0.67187-1.5 1.5-1.5 0.82812 0 1.5 0.67187 1.5 1.5" fill-rule="evenodd"/>
<path transform="matrix(.1 0 0 -.1 .528 446.39)" d="m2404 409.02c0-8.2812-6.7188-15-15-15s-15 6.7188-15 15 6.7188 15 15 15 15-6.7188 15-15z" fill="none" stroke="#000" stroke-miterlimit="10" stroke-width="2.25"/>
<path d="m239.73 396.49c0 0.16797-0.13281 0.30078-0.29687 0.30078-0.16797 0-0.30078-0.13281-0.30078-0.30078 0-0.16406 0.13281-0.29688 0.30078-0.29688 0.16406 0 0.29687 0.13281 0.29687 0.29688" fill-rule="evenodd"/>
<path transform="matrix(.1 0 0 -.1 .528 446.39)" d="m2392 499.02c0-1.6797-1.3281-3.0078-2.9688-3.0078-1.6797 0-3.0078 1.3281-3.0078 3.0078 0 1.6406 1.3281 2.9688 3.0078 2.9688 1.6406 0 2.9688-1.3281 2.9688-2.9688z" fill="none" stroke="#000" stroke-miterlimit="10" stroke-width="2.25"/>
<path d="m239.73 391.99c0 0.16797-0.13281 0.30078-0.29687 0.30078-0.16797 0-0.30078-0.13281-0.30078-0.30078 0-0.16406 0.13281-0.29688 0.30078-0.29688 0.16406 0 0.29687 0.13281 0.29687 0.29688" fill-rule="evenodd"/>
<path transform="matrix(.1 0 0 -.1 .528 446.39)" d="m2392 544.02c0-1.6797-1.3281-3.0078-2.9688-3.0078-1.6797 0-3.0078 1.3281-3.0078 3.0078 0 1.6406 1.3281 2.9688 3.0078 2.9688 1.6406 0 2.9688-1.3281 2.9688-2.9688z" fill="none" stroke="#000" stroke-miterlimit="10" stroke-width="2.25"/>
<path d="m239.73 400.99c0 0.16797-0.13281 0.30078-0.29687 0.30078-0.16797 0-0.30078-0.13281-0.30078-0.30078 0-0.16406 0.13281-0.29688 0.30078-0.29688 0.16406 0 0.29687 0.13281 0.29687 0.29688" fill-rule="evenodd"/>
<path transform="matrix(.1 0 0 -.1 .528 446.39)" d="m2392 454.02c0-1.6797-1.3281-3.0078-2.9688-3.0078-1.6797 0-3.0078 1.3281-3.0078 3.0078 0 1.6406 1.3281 2.9688 3.0078 2.9688 1.6406 0 2.9688-1.3281 2.9688-2.9688z" fill="none" stroke="#000" stroke-miterlimit="10" stroke-width="2.25"/>
<path transform="matrix(.1 0 0 -.1 .528 446.39)" d="m2344 364.02h90v270h-90z" fill="none" stroke="#000" stroke-miterlimit="10" stroke-width="2.25"/>
<path d="m279.93 391.99h27v-9h-27z" fill="#e5e5e5" fill-rule="evenodd"/>
<g clip-path="url(#bw)">
<path transform="matrix(.1 0 0 -.1 .528 446.39)" d="m2794 544.02h270v90h-270z" fill="none" stroke="#000" stroke-miterlimit="10" stroke-width="2.25"/>
</g>
<path d="m279.93 409.99h27v-9h-27z" fill="#e5e5e5" fill-rule="evenodd"/>
<g clip-path="url(#bv)">
<path transform="matrix(.1 0 0 -.1 .528 446.39)" d="m2794 364.02h270v90h-270z" fill="none" stroke="#000" stroke-miterlimit="10" stroke-width="2.25"/>
</g>
<g clip-path="url(#bu)">
<g clip-path="url(#bt)">
<path transform="matrix(.1 0 0 -.1 .528 446.39)" d="m2389 589.02h405" fill="none" stroke="#000" stroke-miterlimit="10" stroke-width="2.25"/>
</g>
</g>
<path transform="matrix(.1 0 0 -.1 .528 446.39)" d="m2753.2 579.99 36.016 9.0234-36.016 8.9844z" fill-rule="evenodd" stroke="#000" stroke-miterlimit="10" stroke-width="2.25"/>
<g clip-path="url(#br)">
<g clip-path="url(#bq)">
<path transform="matrix(.1 0 0 -.1 .528 446.39)" d="m2389 409.02h405" fill="none" stroke="#000" stroke-miterlimit="10" stroke-width="2.25"/>
</g>
</g>
<path transform="matrix(.1 0 0 -.1 .528 446.39)" d="m2753.2 399.99 36.016 9.0234-36.016 8.9844z" fill-rule="evenodd" stroke="#000" stroke-miterlimit="10" stroke-width="2.25"/>
<path d="m186.93 432.49c0 0.82812-0.67188 1.5-1.5 1.5-0.82813 0-1.5-0.67188-1.5-1.5 0-0.82813 0.67187-1.5 1.5-1.5 0.82812 0 1.5 0.67187 1.5 1.5" fill-rule="evenodd"/>
<path transform="matrix(.1 0 0 -.1 .528 446.39)" d="m1864 139.02c0-8.2812-6.7188-15-15-15s-15 6.7188-15 15 6.7188 15 15 15 15-6.7188 15-15z" fill="none" stroke="#000" stroke-miterlimit="10" stroke-width="2.25"/>
<path d="m186.93 396.49c0 0.82812-0.67188 1.5-1.5 1.5-0.82813 0-1.5-0.67188-1.5-1.5 0-0.82813 0.67187-1.5 1.5-1.5 0.82812 0 1.5 0.67187 1.5 1.5" fill-rule="evenodd"/>
<path transform="matrix(.1 0 0 -.1 .528 446.39)" d="m1864 499.02c0-8.2812-6.7188-15-15-15s-15 6.7188-15 15 6.7188 15 15 15 15-6.7188 15-15z" fill="none" stroke="#000" stroke-miterlimit="10" stroke-width="2.25"/>
<path transform="matrix(.1 0 0 -.1 .528 446.39)" d="m1852 409.02c0-1.6797-1.3281-3.0078-2.9688-3.0078-1.6797 0-3.0078 1.3281-3.0078 3.0078 0 1.6406 1.3281 2.9688 3.0078 2.9688 1.6406 0 2.9688-1.3281 2.9688-2.9688z" fill="none" stroke="#000" stroke-miterlimit="10" stroke-width="2.25"/>
<path transform="matrix(.1 0 0 -.1 .528 446.39)" d="m1852 319.02c0-1.6797-1.3281-3.0078-2.9688-3.0078-1.6797 0-3.0078 1.3281-3.0078 3.0078 0 1.6406 1.3281 2.9688 3.0078 2.9688 1.6406 0 2.9688-1.3281 2.9688-2.9688z" fill="none" stroke="#000" stroke-miterlimit="10" stroke-width="2.25"/>
<path transform="matrix(.1 0 0 -.1 .528 446.39)" d="m1852 229.02c0-1.6797-1.3281-3.0078-2.9688-3.0078-1.6797 0-3.0078 1.3281-3.0078 3.0078 0 1.6406 1.3281 2.9688 3.0078 2.9688 1.6406 0 2.9688-1.3281 2.9688-2.9688z" fill="none" stroke="#000" stroke-miterlimit="10" stroke-width="2.25"/>
<path transform="matrix(.1 0 0 -.1 .528 446.39)" d="m1804 66.088h90v505.82h-90z" fill="none" stroke="#000" stroke-miterlimit="10" stroke-width="2.25"/>
<g clip-path="url(#bp)">
<g clip-path="url(#bo)">
<path transform="matrix(.1 0 0 -.1 .528 446.39)" d="m1849 499.02h495" fill="none" stroke="#000" stroke-miterlimit="10" stroke-width="2.25"/>
</g>
</g>
<path transform="matrix(.1 0 0 -.1 .528 446.39)" d="m2303.2 489.99 36.016 9.0234-36.016 8.9844z" fill-rule="evenodd" stroke="#000" stroke-miterlimit="10" stroke-width="2.25"/>
<g clip-path="url(#bn)">
<g clip-path="url(#bm)">
<path transform="matrix(.1 0 0 -.1 .528 446.39)" d="m1849 139.02h495" fill="none" stroke="#000" stroke-miterlimit="10" stroke-width="2.25"/>
</g>
</g>
<path transform="matrix(.1 0 0 -.1 .528 446.39)" d="m2303.2 129.99 36.016 9.0234-36.016 8.9844z" fill-rule="evenodd" stroke="#000" stroke-miterlimit="10" stroke-width="2.25"/>
<path d="m132.93 162.49c0 0.82812-0.67188 1.5-1.5 1.5-0.82813 0-1.5-0.67188-1.5-1.5 0-0.82813 0.67187-1.5 1.5-1.5 0.82812 0 1.5 0.67187 1.5 1.5" fill-rule="evenodd"/>
<path transform="matrix(.1 0 0 -.1 .528 446.39)" d="m1324 2839c0-8.2812-6.7188-15-15-15s-15 6.7188-15 15 6.7188 15 15 15 15-6.7188 15-15z" fill="none" stroke="#000" stroke-miterlimit="10" stroke-width="2.25"/>
<path d="m132.93 180.49c0 0.82812-0.67188 1.5-1.5 1.5-0.82813 0-1.5-0.67188-1.5-1.5 0-0.82813 0.67187-1.5 1.5-1.5 0.82812 0 1.5 0.67187 1.5 1.5" fill-rule="evenodd"/>
<path transform="matrix(.1 0 0 -.1 .528 446.39)" d="m1324 2659c0-8.2812-6.7188-15-15-15s-15 6.7188-15 15 6.7188 15 15 15 15-6.7188 15-15z" fill="none" stroke="#000" stroke-miterlimit="10" stroke-width="2.25"/>
<path d="m131.73 166.99c0 0.16797-0.13281 0.30078-0.29687 0.30078-0.16797 0-0.30078-0.13281-0.30078-0.30078 0-0.16406 0.13281-0.29688 0.30078-0.29688 0.16406 0 0.29687 0.13281 0.29687 0.29688" fill-rule="evenodd"/>
<path transform="matrix(.1 0 0 -.1 .528 446.39)" d="m1312 2794c0-1.6797-1.3281-3.0078-2.9688-3.0078-1.6797 0-3.0078 1.3281-3.0078 3.0078 0 1.6406 1.3281 2.9688 3.0078 2.9688 1.6406 0 2.9688-1.3281 2.9688-2.9688z" fill="none" stroke="#000" stroke-miterlimit="10" stroke-width="2.25"/>
<path d="m131.73 175.99c0 0.16797-0.13281 0.30078-0.29687 0.30078-0.16797 0-0.30078-0.13281-0.30078-0.30078 0-0.16406 0.13281-0.29688 0.30078-0.29688 0.16406 0 0.29687 0.13281 0.29687 0.29688" fill-rule="evenodd"/>
<path transform="matrix(.1 0 0 -.1 .528 446.39)" d="m1312 2704c0-1.6797-1.3281-3.0078-2.9688-3.0078-1.6797 0-3.0078 1.3281-3.0078 3.0078 0 1.6406 1.3281 2.9688 3.0078 2.9688 1.6406 0 2.9688-1.3281 2.9688-2.9688z" fill="none" stroke="#000" stroke-miterlimit="10" stroke-width="2.25"/>
<path d="m131.73 171.49c0 0.16797-0.13281 0.30078-0.29687 0.30078-0.16797 0-0.30078-0.13281-0.30078-0.30078 0-0.16406 0.13281-0.29688 0.30078-0.29688 0.16406 0 0.29687 0.13281 0.29687 0.29688" fill-rule="evenodd"/>
<path transform="matrix(.1 0 0 -.1 .528 446.39)" d="m1312 2749c0-1.6797-1.3281-3.0078-2.9688-3.0078-1.6797 0-3.0078 1.3281-3.0078 3.0078 0 1.6406 1.3281 2.9688 3.0078 2.9688 1.6406 0 2.9688-1.3281 2.9688-2.9688z" fill="none" stroke="#000" stroke-miterlimit="10" stroke-width="2.25"/>
<path d="m86.727 117.49c0 0.16797-0.13281 0.30078-0.29687 0.30078-0.16797 0-0.30078-0.13281-0.30078-0.30078 0-0.16406 0.13281-0.29688 0.30078-0.29688 0.16406 0 0.29687 0.13281 0.29687 0.29688" fill-rule="evenodd"/>
<path transform="matrix(.1 0 0 -.1 .528 446.39)" d="m861.99 3289c0-1.6797-1.3281-3.0078-2.9688-3.0078-1.6797 0-3.0078 1.3281-3.0078 3.0078 0 1.6406 1.3281 2.9688 3.0078 2.9688 1.6406 0 2.9688-1.3281 2.9688-2.9688z" fill="none" stroke="#000" stroke-miterlimit="10" stroke-width="2.25"/>
<path d="m86.727 126.49c0 0.16797-0.13281 0.30078-0.29687 0.30078-0.16797 0-0.30078-0.13281-0.30078-0.30078 0-0.16406 0.13281-0.29688 0.30078-0.29688 0.16406 0 0.29687 0.13281 0.29687 0.29688" fill-rule="evenodd"/>
<path transform="matrix(.1 0 0 -.1 .528 446.39)" d="m861.99 3199c0-1.6797-1.3281-3.0078-2.9688-3.0078-1.6797 0-3.0078 1.3281-3.0078 3.0078 0 1.6406 1.3281 2.9688 3.0078 2.9688 1.6406 0 2.9688-1.3281 2.9688-2.9688z" fill="none" stroke="#000" stroke-miterlimit="10" stroke-width="2.25"/>
<path d="m86.727 135.49c0 0.16797-0.13281 0.30078-0.29687 0.30078-0.16797 0-0.30078-0.13281-0.30078-0.30078 0-0.16406 0.13281-0.29688 0.30078-0.29688 0.16406 0 0.29687 0.13281 0.29687 0.29688" fill-rule="evenodd"/>
<path transform="matrix(.1 0 0 -.1 .528 446.39)" d="m861.99 3109c0-1.6797-1.3281-3.0078-2.9688-3.0078-1.6797 0-3.0078 1.3281-3.0078 3.0078 0 1.6406 1.3281 2.9688 3.0078 2.9688 1.6406 0 2.9688-1.3281 2.9688-2.9688z" fill="none" stroke="#000" stroke-miterlimit="10" stroke-width="2.25"/>
<g clip-path="url(#bl)">
<path transform="matrix(.1 0 0 -.1 .528 446.39)" d="m4.0169 4099h900v180h-900z" fill="none" stroke="#000" stroke-miterlimit="10" stroke-width="2.25"/>
</g>
<g clip-path="url(#bk)">
<path transform="matrix(.1 0 0 -.1 .528 446.39)" d="m4.0169 4279h900v180h-900z" fill="none" stroke="#000" stroke-miterlimit="10" stroke-width="2.25"/>
</g>
<g clip-path="url(#bj)">
<path transform="matrix(.1 0 0 -.1 .528 446.39)" d="m4.0169 3919h900v180h-900z" fill="none" stroke="#000" stroke-miterlimit="10" stroke-width="2.25"/>
</g>
<g clip-path="url(#bi)">
<path transform="matrix(.1 0 0 -.1 .528 446.39)" d="m4.0169 3739h900v180h-900z" fill="none" stroke="#000" stroke-miterlimit="10" stroke-width="2.25"/>
</g>
<g clip-path="url(#bg)">
<path transform="matrix(.1 0 0 -.1 .528 446.39)" d="m4.0169 3559h900v180h-900z" fill="none" stroke="#000" stroke-miterlimit="10" stroke-width="2.25"/>
</g>
<g clip-path="url(#bf)">
<path transform="matrix(.1 0 0 -.1 .528 446.39)" d="m4.0169 2839h900v720h-900z" fill="none" stroke="#000" stroke-miterlimit="10" stroke-width="2.25"/>
</g>
<g clip-path="url(#be)">
<path transform="matrix(.1 0 0 -.1 .528 446.39)" d="m4.0169 2659h900v180h-900z" fill="none" stroke="#000" stroke-miterlimit="10" stroke-width="2.25"/>
</g>
<g clip-path="url(#bd)">
<path transform="matrix(.1 0 0 -.1 .528 446.39)" d="m4.0169 2479h900v180h-900z" fill="none" stroke="#000" stroke-miterlimit="10" stroke-width="2.25"/>
</g>
<g clip-path="url(#bc)">
<path transform="matrix(.1 0 0 -.1 .528 446.39)" d="m4.0169 2299h900v180h-900z" fill="none" stroke="#000" stroke-miterlimit="10" stroke-width="2.25"/>
</g>
<g clip-path="url(#bb)">
<g clip-path="url(#ba)">
<path transform="matrix(.1 0 0 -.1 .528 446.39)" d="m859.02 2749h405" fill="none" stroke="#000" stroke-miterlimit="10" stroke-width="2.25"/>
</g>
</g>
<path transform="matrix(.1 0 0 -.1 .528 446.39)" d="m1223.2 2740 36.016 9.0234-36.016 8.9844z" fill-rule="evenodd" stroke="#000" stroke-miterlimit="10" stroke-width="2.25"/>
<path transform="matrix(.1 0 0 -.1 .528 446.39)" d="m1714 2794h270v90h-270z" fill="#e5e5e5" fill-rule="evenodd" stroke="#000" stroke-miterlimit="10" stroke-width="2.25"/>
<path transform="matrix(.1 0 0 -.1 .528 446.39)" d="m1714 2614h270v90h-270z" fill="#e5e5e5" fill-rule="evenodd" stroke="#000" stroke-miterlimit="10" stroke-width="2.25"/>
<g clip-path="url(#az)">
<g clip-path="url(#ay)">
<path transform="matrix(.1 0 0 -.1 .528 446.39)" d="m1309 2839h405" fill="none" stroke="#000" stroke-miterlimit="10" stroke-width="2.25"/>
</g>
</g>
<path transform="matrix(.1 0 0 -.1 .528 446.39)" d="m1673.2 2830 36.016 9.0234-36.016 8.9844z" fill-rule="evenodd" stroke="#000" stroke-miterlimit="10" stroke-width="2.25"/>
<g clip-path="url(#ax)">
<g clip-path="url(#av)">
<path transform="matrix(.1 0 0 -.1 .528 446.39)" d="m1309 2659h405" fill="none" stroke="#000" stroke-miterlimit="10" stroke-width="2.25"/>
</g>
</g>
<path transform="matrix(.1 0 0 -.1 .528 446.39)" d="m1673.2 2650 36.016 9.0234-36.016 8.9844z" fill-rule="evenodd" stroke="#000" stroke-miterlimit="10" stroke-width="2.25"/>
<path transform="matrix(.1 0 0 -.1 .528 446.39)" d="m1264 2614h90v270h-90z" fill="none" stroke="#000" stroke-miterlimit="10" stroke-width="2.25"/>
<g clip-path="url(#au)">
<g clip-path="url(#at)">
<path transform="matrix(.1 0 0 -.1 .528 446.39)" d="m1309 2164h495" fill="none" stroke="#000" stroke-miterlimit="10" stroke-width="2.25"/>
</g>
</g>
<path transform="matrix(.1 0 0 -.1 .528 446.39)" d="m1763.2 2155 36.016 9.0234-36.016 8.9844z" fill-rule="evenodd" stroke="#000" stroke-miterlimit="10" stroke-width="2.25"/>
<g clip-path="url(#as)">
<g clip-path="url(#ar)">
<path transform="matrix(.1 0 0 -.1 .528 446.39)" d="m1309 1804h495" fill="none" stroke="#000" stroke-miterlimit="10" stroke-width="2.25"/>
</g>
</g>
<path transform="matrix(.1 0 0 -.1 .528 446.39)" d="m1763.2 1795 36.016 9.0234-36.016 8.9844z" fill-rule="evenodd" stroke="#000" stroke-miterlimit="10" stroke-width="2.25"/>
<g clip-path="url(#aq)">
<g clip-path="url(#ap)">
<path transform="matrix(.1 0 0 -.1 .528 446.39)" d="m1309 859.02h225v180h270" fill="none" stroke="#000" stroke-miterlimit="10" stroke-width="2.25"/>
</g>
</g>
<path transform="matrix(.1 0 0 -.1 .528 446.39)" d="m1763.2 1030 36.016 9.0234-36.016 8.9844z" fill-rule="evenodd" stroke="#000" stroke-miterlimit="10" stroke-width="2.25"/>
<g clip-path="url(#ao)">
<g clip-path="url(#an)">
<path transform="matrix(.1 0 0 -.1 .528 446.39)" d="m1309 499.02h225v-180h270" fill="none" stroke="#000" stroke-miterlimit="10" stroke-width="2.25"/>
</g>
</g>
<path transform="matrix(.1 0 0 -.1 .528 446.39)" d="m1763.2 309.99 36.016 9.0234-36.016 8.9844z" fill-rule="evenodd" stroke="#000" stroke-miterlimit="10" stroke-width="2.25"/>
<g clip-path="url(#am)">
<g clip-path="url(#ak)">
<path transform="matrix(.1 0 0 -.1 .528 446.39)" d="m859.02 2569h225v-585h180" fill="none" stroke="#000" stroke-miterlimit="10" stroke-width="2.25"/>
</g>
</g>
<path transform="matrix(.1 0 0 -.1 .528 446.39)" d="m1223.2 1975 36.016 9.0234-36.016 8.9844z" fill-rule="evenodd" stroke="#000" stroke-miterlimit="10" stroke-width="2.25"/>
<g clip-path="url(#aj)">
<g clip-path="url(#ai)">
<path transform="matrix(.1 0 0 -.1 .528 446.39)" d="m859.02 2389h135v-1710h270" fill="none" stroke="#000" stroke-miterlimit="10" stroke-width="2.25"/>
</g>
</g>
<path transform="matrix(.1 0 0 -.1 .528 446.39)" d="m1223.2 669.99 36.016 9.0234-36.016 8.9844z" fill-rule="evenodd" stroke="#000" stroke-miterlimit="10" stroke-width="2.25"/>
<g>
<use x="33.1753" y="66.944" xlink:href="#w"/>
<use x="40.1773" y="66.944" xlink:href="#c"/>
<use x="43.1743" y="66.944" xlink:href="#q"/>
<use x="48.1783" y="66.944" xlink:href="#ae"/>
<use x="53.6773" y="66.944" xlink:href="#a"/>
<use x="18.4206" y="12.944" xlink:href="#v"/>
<use x="23.9196" y="12.944" xlink:href="#p"/>
<use x="28.9236" y="12.944" xlink:href="#u"/>
<use x="33.9276" y="12.944" xlink:href="#c"/>
<use x="36.9246" y="12.944" xlink:href="#b"/>
<use x="38.9226" y="12.944" xlink:href="#j"/>
<use x="41.4246" y="12.944" xlink:href="#j"/>
<use x="43.9266" y="12.944" xlink:href="#o"/>
<use x="48.4266" y="12.944" xlink:href="#c"/>
<use x="51.4236" y="12.944" xlink:href="#a"/>
<use x="56.4276" y="12.944" xlink:href="#h"/>
<use x="60.9276" y="12.944" xlink:href="#i"/>
<use x="65.9316" y="12.944" xlink:href="#d"/>
<use x="68.4336" y="12.944" xlink:href="#a"/>
<use x="6.662" y="30.944" xlink:href="#ac"/>
<use x="12.665" y="30.944" xlink:href="#b"/>
<use x="14.663" y="30.944" xlink:href="#u"/>
<use x="19.667" y="30.944" xlink:href="#a"/>
<use x="24.671" y="30.944" xlink:href="#e"/>
<use x="29.675" y="30.944" xlink:href="#d"/>
<use x="32.177" y="30.944" xlink:href="#ab"/>
<use x="37.181" y="30.944" xlink:href="#t"/>
<use x="44.678" y="30.944" xlink:href="#a"/>
<use x="49.682" y="30.944" xlink:href="#c"/>
<use x="52.679" y="30.944" xlink:href="#aa"/>
<use x="55.181" y="30.944" xlink:href="#w"/>
<use x="62.183" y="30.944" xlink:href="#c"/>
<use x="65.18" y="30.944" xlink:href="#p"/>
<use x="70.184" y="30.944" xlink:href="#n"/>
<use x="75.188" y="30.944" xlink:href="#n"/>
<use x="80.192" y="30.944" xlink:href="#a"/>
<use x="22.6729" y="48.944" xlink:href="#v"/>
<use x="28.1719" y="48.944" xlink:href="#a"/>
<use x="33.1759" y="48.944" xlink:href="#b"/>
<use x="35.1739" y="48.944" xlink:href="#d"/>
<use x="37.6759" y="48.944" xlink:href="#o"/>
<use x="42.1759" y="48.944" xlink:href="#d"/>
<use x="44.6779" y="48.944" xlink:href="#a"/>
<use x="49.6819" y="48.944" xlink:href="#t"/>
<use x="57.1789" y="48.944" xlink:href="#n"/>
<use x="62.1829" y="48.944" xlink:href="#a"/>
<use x="67.1869" y="48.944" xlink:href="#k"/>
<use x="14.1686" y="84.944" xlink:href="#s"/>
<use x="20.1716" y="84.944" xlink:href="#e"/>
<use x="25.1756" y="84.944" xlink:href="#r"/>
<use x="29.6756" y="84.944" xlink:href="#l"/>
<use x="34.6796" y="84.944" xlink:href="#i"/>
<use x="39.6836" y="84.944" xlink:href="#k"/>
<use x="41.6816" y="84.944" xlink:href="#glyph-0-3"/>
<use x="44.1836" y="84.944" xlink:href="#g"/>
<use x="49.1876" y="84.944" xlink:href="#a"/>
<use x="54.1916" y="84.944" xlink:href="#c"/>
<use x="57.1886" y="84.944" xlink:href="#glyph-0-3"/>
<use x="59.6906" y="84.944" xlink:href="#k"/>
<use x="61.6886" y="84.944" xlink:href="#b"/>
<use x="63.6866" y="84.944" xlink:href="#e"/>
<use x="68.6906" y="84.944" xlink:href="#f"/>
<use x="73.1906" y="84.944" xlink:href="#o"/>
<use x="34.926" y="129.194" xlink:href="#g"/>
<use x="39.93" y="129.194" xlink:href="#b"/>
<use x="41.928" y="129.194" xlink:href="#c"/>
<use x="44.925" y="129.194" xlink:href="#a"/>
<use x="49.929" y="129.194" xlink:href="#f"/>
<use x="54.429" y="129.194" xlink:href="#d"/>
<use x="14.2897" y="174.644" xlink:href="#a"/>
<use x="19.2937" y="174.644" xlink:href="#b"/>
<use x="21.2917" y="174.644" xlink:href="#e"/>
<use x="26.2957" y="174.644" xlink:href="#j"/>
<use x="28.7977" y="174.644" xlink:href="#l"/>
<use x="33.8017" y="174.644" xlink:href="#h"/>
<use x="38.3017" y="174.644" xlink:href="#i"/>
<use x="43.3057" y="174.644" xlink:href="#m"/>
<use x="48.5617" y="174.644" xlink:href="#b"/>
<use x="50.5597" y="174.644" xlink:href="#e"/>
<use x="55.5637" y="174.644" xlink:href="#g"/>
<use x="60.5677" y="174.644" xlink:href="#b"/>
<use x="62.5657" y="174.644" xlink:href="#c"/>
<use x="65.5627" y="174.644" xlink:href="#a"/>
<use x="70.5667" y="174.644" xlink:href="#f"/>
<use x="75.0667" y="174.644" xlink:href="#d"/>
<use x="11.29322" y="192.644" xlink:href="#r"/>
<use x="15.79322" y="192.644" xlink:href="#z"/>
<use x="22.29122" y="192.644" xlink:href="#a"/>
<use x="27.29522" y="192.644" xlink:href="#b"/>
<use x="29.29322" y="192.644" xlink:href="#j"/>
<use x="31.79522" y="192.644" xlink:href="#l"/>
<use x="36.79922" y="192.644" xlink:href="#h"/>
<use x="41.29922" y="192.644" xlink:href="#i"/>
<use x="46.30322" y="192.644" xlink:href="#m"/>
<use x="51.55922" y="192.644" xlink:href="#b"/>
<use x="53.55722" y="192.644" xlink:href="#e"/>
<use x="58.56122" y="192.644" xlink:href="#g"/>
<use x="63.56522" y="192.644" xlink:href="#b"/>
<use x="65.56322" y="192.644" xlink:href="#c"/>
<use x="68.56022" y="192.644" xlink:href="#a"/>
<use x="73.56422" y="192.644" xlink:href="#f"/>
<use x="78.06422" y="192.644" xlink:href="#d"/>
<use x="12.79127" y="210.644" xlink:href="#g"/>
<use x="17.79527" y="210.644" xlink:href="#c"/>
<use x="20.79227" y="210.644" xlink:href="#a"/>
<use x="25.79627" y="210.644" xlink:href="#b"/>
<use x="27.79427" y="210.644" xlink:href="#j"/>
<use x="30.29627" y="210.644" xlink:href="#l"/>
<use x="35.30027" y="210.644" xlink:href="#h"/>
<use x="39.80027" y="210.644" xlink:href="#i"/>
<use x="44.80427" y="210.644" xlink:href="#m"/>
<use x="50.06027" y="210.644" xlink:href="#b"/>
<use x="52.05827" y="210.644" xlink:href="#e"/>
<use x="57.06227" y="210.644" xlink:href="#g"/>
<use x="62.06627" y="210.644" xlink:href="#b"/>
<use x="64.06427" y="210.644" xlink:href="#c"/>
<use x="67.06127" y="210.644" xlink:href="#a"/>
<use x="72.06527" y="210.644" xlink:href="#f"/>
<use x="76.56527" y="210.644" xlink:href="#d"/>
<use x="113.42827" y="49.094" xlink:href="#s"/>
<use x="119.43127" y="49.094" xlink:href="#d"/>
<use x="121.93327" y="49.094" xlink:href="#d"/>
<use x="124.43527" y="49.094" xlink:href="#c"/>
<use x="127.43227" y="49.094" xlink:href="#b"/>
<use x="129.43027" y="49.094" xlink:href="#y"/>
<use x="134.43427" y="49.094" xlink:href="#p"/>
<use x="139.43827" y="49.094" xlink:href="#d"/>
<use x="141.94027" y="49.094" xlink:href="#a"/>
</g>
<path transform="matrix(.1 0 0 -.1 .528 446.39)" d="m1264 2974h270v90h-270z" fill="#e5e5e5" fill-rule="evenodd" stroke="#000" stroke-miterlimit="10" stroke-width="2.25"/>
</svg>
