<svg width="236pt" height="325pt" version="1.1" viewBox="0 0 236 325" xmlns="http://www.w3.org/2000/svg" xmlns:xlink="http://www.w3.org/1999/xlink">
<defs>
<g id="c">
<path d="m3.125-8.2031c-0.75 0-1.4375 0.34375-1.8594 0.89062-0.51562 0.73438-0.78125 1.8281-0.78125 3.3438 0 2.7656 0.90625 4.2344 2.6406 4.2344 1.7031 0 2.625-1.4688 2.625-4.1719 0-1.5781-0.25-2.6562-0.78125-3.4062-0.42188-0.5625-1.0938-0.89062-1.8438-0.89062zm0 0.89062c1.0781 0 1.6094 1.0938 1.6094 3.3125 0 2.3438-0.53125 3.4375-1.6406 3.4375-1.0469 0-1.5781-1.1406-1.5781-3.3906 0-2.2656 0.53125-3.3594 1.6094-3.3594z"/>
</g>
<g id="b">
<path d="m2.9375-5.8438v5.8438h1v-8.2031h-0.65625c-0.35938 1.2656-0.57812 1.4375-2.125 1.6406v0.71875z"/>
</g>
<g id="i">
<path d="m5.7344-0.98438h-4.2188c0.09375-0.6875 0.45312-1.1094 1.4375-1.7188l1.1406-0.625c1.125-0.625 1.7031-1.4688 1.7031-2.4844 0-0.67188-0.26562-1.3125-0.75-1.75-0.46875-0.4375-1.0625-0.64062-1.8281-0.64062-1.0156 0-1.7812 0.35938-2.2188 1.0625-0.28125 0.4375-0.40625 0.95312-0.4375 1.7812h1c0.03125-0.5625 0.10938-0.89062 0.23438-1.1562 0.26562-0.5 0.79688-0.8125 1.3906-0.8125 0.90625 0 1.5938 0.65625 1.5938 1.5469 0 0.65625-0.375 1.2188-1.0938 1.625l-1.0469 0.60938c-1.6719 0.96875-2.1719 1.75-2.25 3.5312h5.3438z"/>
</g>
<g id="al">
<path d="m2.5-3.7812h0.54688c1.0938 0 1.6719 0.51562 1.6719 1.5 0 1.0312-0.625 1.6562-1.6562 1.6562-1.0938 0-1.6406-0.5625-1.7031-1.75h-1c0.046875 0.65625 0.15625 1.0781 0.35938 1.4375 0.42188 0.79688 1.2031 1.2031 2.2969 1.2031 1.6562 0 2.7188-1 2.7188-2.5625 0-1.0312-0.39062-1.6094-1.3594-1.9531 0.75-0.29688 1.125-0.85938 1.125-1.6875 0-1.4062-0.92188-2.2656-2.4531-2.2656-1.625 0-2.4844 0.90625-2.5156 2.6406h1c0.015625-0.5 0.0625-0.78125 0.1875-1.0312 0.21875-0.46875 0.71875-0.73438 1.3438-0.73438 0.89062 0 1.4219 0.53125 1.4219 1.4219 0 0.57812-0.20312 0.92188-0.65625 1.125-0.26562 0.10938-0.625 0.15625-1.3281 0.17188z"/>
</g>
<g id="y">
<path d="m4.4375-4.3281c0.84375-0.5 1.0938-0.90625 1.0938-1.6875 0-1.2969-0.98438-2.1875-2.4062-2.1875s-2.4219 0.89062-2.4219 2.1719c0 0.79688 0.26562 1.1875 1.0938 1.7031-0.92188 0.46875-1.375 1.1406-1.375 2.0469 0 1.5 1.0938 2.5469 2.7031 2.5469 1.5781 0 2.6875-1.0469 2.6875-2.5469 0-0.90625-0.45312-1.5781-1.375-2.0469zm-1.3125-2.9844c0.84375 0 1.3906 0.5 1.3906 1.3281 0 0.76562-0.5625 1.2812-1.3906 1.2812-0.85938 0-1.4062-0.51562-1.4062-1.3125s0.54688-1.2969 1.4062-1.2969zm0 3.4375c1 0 1.6719 0.67188 1.6719 1.625 0 0.98438-0.67188 1.625-1.7031 1.625-0.96875 0-1.6562-0.67188-1.6562-1.625 0-0.96875 0.67188-1.625 1.6875-1.625z"/>
</g>
<g id="ak">
<path d="m0.59375-1.875c0.20312 1.3438 1.0625 2.1406 2.2812 2.1406 0.90625 0 1.7031-0.4375 2.1719-1.1719 0.5-0.8125 0.73438-1.8125 0.73438-3.2969 0-1.375-0.21875-2.25-0.6875-2.9844-0.4375-0.65625-1.1406-1.0156-2.0312-1.0156-1.5312 0-2.625 1.1406-2.625 2.7344 0 1.5156 1.0156 2.5781 2.4688 2.5781 0.75 0 1.3281-0.28125 1.8281-0.89062 0 2.0312-0.64062 3.1562-1.7812 3.1562-0.70312 0-1.1875-0.45312-1.3594-1.25zm2.4531-5.4531c0.9375 0 1.6406 0.78125 1.6406 1.8438 0 1-0.6875 1.7031-1.6719 1.7031-0.96875 0-1.5625-0.67188-1.5625-1.7656 0-1.0312 0.67188-1.7812 1.5938-1.7812z"/>
</g>
<g id="aj">
<path d="m5.6562-6.0625c-0.20312-1.3438-1.0625-2.1406-2.2812-2.1406-0.89062 0-1.6875 0.4375-2.1562 1.1719-0.51562 0.79688-0.73438 1.7969-0.73438 3.2812 0 1.3906 0.20312 2.2656 0.6875 2.9844 0.42188 0.67188 1.125 1.0312 2.0156 1.0312 1.5312 0 2.625-1.1562 2.625-2.75 0-1.5156-1.0156-2.5781-2.4531-2.5781-0.79688 0-1.4219 0.29688-1.8438 0.90625 0-2.0312 0.64062-3.1562 1.7812-3.1562 0.70312 0 1.1875 0.45312 1.3594 1.25zm-2.4219 1.8906c0.96875 0 1.5625 0.67188 1.5625 1.7656 0 1.0312-0.67188 1.7812-1.5938 1.7812-0.9375 0-1.6406-0.78125-1.6406-1.8281 0-1.0156 0.6875-1.7188 1.6719-1.7188z"/>
</g>
<g id="x">
<path d="m5.4062-8.0469h-4.1562l-0.60938 4.3906h0.92188c0.46875-0.5625 0.85938-0.75 1.4844-0.75 1.0781 0 1.75 0.73438 1.75 1.9219 0 1.1562-0.67188 1.8594-1.75 1.8594-0.875 0-1.4062-0.4375-1.6562-1.3438h-1c0.14062 0.65625 0.25 0.96875 0.5 1.2656 0.45312 0.60938 1.2656 0.96875 2.1719 0.96875 1.625 0 2.75-1.1875 2.75-2.8906 0-1.5781-1.0469-2.6719-2.5938-2.6719-0.5625 0-1.0156 0.14062-1.4844 0.48438l0.3125-2.25h3.3594z"/>
</g>
<g id="ai">
<path d="m5.9062-8.0469h-5.3906v0.98438h4.3438c-1.9062 2.7344-2.6875 4.4219-3.2969 7.0625h1.0625c0.45312-2.5781 1.4531-4.7812 3.2812-7.2031z"/>
</g>
<g id="w">
<path d="m0.23438 0h2.6875v-0.17188c-0.71875-0.03125-0.84375-0.14062-0.85938-0.78125v-6.7656l-0.046875-0.03125c-0.57812 0.1875-1 0.3125-1.7969 0.5v0.1875h0.0625c0.125-0.015625 0.26562-0.03125 0.35938-0.03125 0.35938 0 0.46875 0.15625 0.46875 0.70312v5.4062c-0.015625 0.60938-0.17188 0.76562-0.875 0.8125z"/>
</g>
<g id="s">
<path d="m2.8281-5.2188c-1.4844 0-2.5 1.0938-2.5 2.6562 0 1.5469 1.0625 2.6719 2.4844 2.6719 1.4375 0 2.5156-1.1875 2.5156-2.7656 0-1.5-1.0469-2.5625-2.5-2.5625zm-0.14062 0.3125c0.95312 0 1.625 1.0938 1.625 2.6562 0 1.2812-0.51562 2.0469-1.3594 2.0469-0.45312 0-0.85938-0.26562-1.1094-0.73438-0.3125-0.57812-0.5-1.375-0.5-2.1875 0-1.0781 0.53125-1.7812 1.3438-1.7812z"/>
</g>
<g id="p">
<path d="m5.3281-4.4062v-0.4375h-0.875c-0.23438 0-0.39062-0.03125-0.625-0.10938l-0.25-0.09375c-0.28125-0.10938-0.60938-0.17188-0.90625-0.17188-1.0469 0-1.8906 0.8125-1.8906 1.8438 0 0.71875 0.29688 1.1562 1.0625 1.5312l-0.29688 0.26562c-0.25 0.23438-0.375 0.35938-0.40625 0.39062-0.25 0.25-0.3125 0.375-0.3125 0.57812 0 0.25 0.125 0.375 0.59375 0.59375-0.8125 0.59375-1.1094 0.96875-1.1094 1.3906 0 0.59375 0.875 1.0938 1.9688 1.0938 0.84375 0 1.7344-0.29688 2.3281-0.76562 0.42188-0.35938 0.625-0.71875 0.625-1.1406 0-0.70312-0.53125-1.1719-1.375-1.2188l-1.4688-0.0625c-0.60938-0.03125-0.875-0.125-0.875-0.3125 0-0.23438 0.375-0.625 0.67188-0.71875 0.40625 0.03125 0.625 0.0625 0.64062 0.0625 0.42188 0 0.875-0.17188 1.2344-0.48438 0.375-0.3125 0.54688-0.70312 0.54688-1.2812 0-0.32812-0.0625-0.57812-0.21875-0.95312zm-3.6562 4.4219c0.375 0.09375 1.2656 0.15625 1.8438 0.15625 1.0156 0 1.3906 0.14062 1.3906 0.54688 0 0.67188-0.85938 1.1094-2.1406 1.1094-1 0-1.6562-0.32812-1.6562-0.82812 0-0.26562 0.10938-0.4375 0.5625-0.98438zm0.046875-3.8438c0-0.67188 0.32812-1.0781 0.84375-1.0781 0.35938 0 0.64062 0.20312 0.82812 0.53125 0.21875 0.40625 0.34375 0.92188 0.34375 1.375 0 0.625-0.3125 1.0312-0.84375 1.0312-0.70312 0-1.1719-0.75-1.1719-1.8281z"/>
</g>
<g id="m">
<path d="m0.1875 0h2.6875v-0.17188c-0.75-0.0625-0.82812-0.15625-0.84375-0.98438v-4.0312l-0.046875-0.03125-1.75 0.625v0.17188l0.078125-0.015625c0.14062-0.015625 0.28125-0.03125 0.39062-0.03125 0.26562 0 0.375 0.1875 0.375 0.6875v2.625c-0.015625 0.84375-0.125 0.95312-0.89062 0.98438zm1.2656-7.75c-0.3125 0-0.5625 0.26562-0.5625 0.57812 0 0.32812 0.25 0.57812 0.5625 0.57812 0.34375 0 0.59375-0.25 0.59375-0.57812s-0.26562-0.57812-0.59375-0.57812z"/>
</g>
<g id="f">
<path d="m3.5781-3.5625-0.046875-1.5469h-0.125c-0.0625 0.078125-0.10938 0.125-0.1875 0.125-0.0625 0-0.17188-0.03125-0.29688-0.09375-0.26562-0.078125-0.53125-0.14062-0.79688-0.14062-0.90625 0-1.5469 0.59375-1.5469 1.4062 0 0.64062 0.35938 1.0938 1.3281 1.6406l0.65625 0.375c0.39062 0.21875 0.59375 0.5 0.59375 0.84375 0 0.5-0.35938 0.8125-0.9375 0.8125-0.79688 0-1.1875-0.42188-1.4531-1.5781h-0.17188v1.7656h0.14062c0.078125-0.10938 0.125-0.14062 0.26562-0.14062 0.125 0 0.26562 0.03125 0.51562 0.09375 0.3125 0.0625 0.60938 0.10938 0.82812 0.10938 0.89062 0 1.6094-0.65625 1.6094-1.4531 0-0.5625-0.28125-0.9375-0.95312-1.3438l-1.2344-0.73438c-0.3125-0.1875-0.48438-0.45312-0.48438-0.76562 0-0.46875 0.35938-0.76562 0.875-0.76562 0.64062 0 0.98438 0.375 1.25 1.3906z"/>
</g>
<g id="o">
<path d="m4.5156-1.7656c-0.54688 0.79688-0.95312 1.0625-1.5938 1.0625-1.0469 0-1.7656-0.90625-1.7656-2.2188 0-1.1719 0.625-1.9688 1.5469-1.9688 0.40625 0 0.54688 0.10938 0.67188 0.54688l0.0625 0.25c0.09375 0.32812 0.29688 0.51562 0.54688 0.51562 0.29688 0 0.53125-0.20312 0.53125-0.46875 0-0.64062-0.79688-1.1719-1.75-1.1719-0.54688 0-1.125 0.23438-1.5938 0.64062-0.57812 0.5-0.89062 1.2656-0.89062 2.1719 0 1.4688 0.90625 2.5156 2.1562 2.5156 0.51562 0 0.96875-0.17188 1.375-0.53125 0.3125-0.26562 0.51562-0.57812 0.85938-1.25z"/>
</g>
<g id="n">
<path d="m5.5312-0.17188c-0.625-0.09375-0.67188-0.1875-0.6875-0.98438v-2.2656c0-1.1875-0.46875-1.7969-1.3906-1.7969-0.67188 0-1.1562 0.26562-1.6719 0.95312v-3.4531l-0.0625-0.03125c-0.39062 0.14062-0.67188 0.23438-1.2969 0.40625l-0.3125 0.09375v0.1875c0.046875-0.015625 0.078125-0.015625 0.14062-0.015625 0.48438 0 0.57812 0.09375 0.57812 0.57812v5.3438c-0.015625 0.8125-0.078125 0.90625-0.71875 0.98438v0.17188h2.4375v-0.17188c-0.65625-0.0625-0.75-0.1875-0.76562-0.98438v-2.7344c0.46875-0.51562 0.8125-0.71875 1.2656-0.71875 0.5625 0 0.84375 0.40625 0.84375 1.2031v2.25c-0.015625 0.79688-0.125 0.92188-0.76562 0.98438v0.17188h2.4062z"/>
</g>
<g id="e">
<path d="m4.625-1.8594c-0.54688 0.85938-1.0312 1.1875-1.75 1.1875-0.65625 0-1.1406-0.32812-1.4688-0.96875-0.20312-0.4375-0.28125-0.79688-0.3125-1.5h3.5c-0.09375-0.73438-0.20312-1.0625-0.48438-1.4375-0.34375-0.40625-0.85938-0.64062-1.4531-0.64062-0.5625 0-1.1094 0.20312-1.5312 0.59375-0.53125 0.46875-0.84375 1.2656-0.84375 2.2031 0 1.5625 0.8125 2.5312 2.125 2.5312 1.0781 0 1.9219-0.67188 2.4062-1.8906zm-3.5-1.6406c0.125-0.89062 0.51562-1.3125 1.2031-1.3125s0.96875 0.32812 1.1094 1.3125z"/>
</g>
<g id="v">
<path d="m8.0156-0.21875c-0.51562-0.03125-0.625-0.14062-1.0312-0.98438l-2.8281-6.4375h-0.21875l-2.3594 5.5625c-0.73438 1.6562-0.85938 1.8438-1.4062 1.8594v0.21875h2.25v-0.21875c-0.54688 0-0.78125-0.14062-0.78125-0.46875 0-0.125 0.03125-0.28125 0.09375-0.4375l0.51562-1.3281h2.9844l0.45312 1.0938c0.14062 0.29688 0.21875 0.59375 0.21875 0.76562 0 0.28125-0.1875 0.35938-0.79688 0.375v0.21875h2.9062zm-5.5625-2.7031 1.2969-3.1094 1.3281 3.1094z"/>
</g>
<g id="u">
<path d="m5.5625-0.65625c-0.14062 0.015625-0.20312 0.015625-0.25 0.015625-0.40625 0-0.5-0.125-0.5-0.65625v-6.4219l-0.0625-0.03125c-0.53125 0.1875-0.92188 0.3125-1.6719 0.5v0.1875c0.09375-0.015625 0.15625-0.015625 0.25-0.015625 0.42188 0 0.53125 0.10938 0.53125 0.57812v1.7656c-0.4375-0.35938-0.73438-0.48438-1.1875-0.48438-1.3125 0-2.3594 1.2812-2.3594 2.8906 0 1.4531 0.82812 2.4375 2.0938 2.4375 0.64062 0 1.0625-0.21875 1.4531-0.75v0.71875l0.046875 0.03125 1.6562-0.57812zm-1.7031-0.5c0 0.078125-0.078125 0.21875-0.20312 0.34375-0.1875 0.21875-0.48438 0.34375-0.8125 0.34375-0.95312 0-1.5625-0.92188-1.5625-2.3281 0-1.2656 0.5625-2.1094 1.4219-2.1094 0.60938 0 1.1562 0.53125 1.1562 1.1406z"/>
</g>
<g id="h">
<path d="m0.0625 0h2.7188v-0.17188c-0.76562-0.015625-0.9375-0.1875-0.96875-0.84375v-2.5625c0-0.35938 0.48438-0.92188 0.79688-0.92188 0.0625 0 0.17188 0.046875 0.29688 0.17188 0.17188 0.17188 0.29688 0.21875 0.45312 0.21875 0.26562 0 0.4375-0.1875 0.4375-0.5 0-0.375-0.23438-0.60938-0.625-0.60938-0.46875 0-0.79688 0.25-1.3594 1.0625v-1.0469l-0.046875-0.015625c-0.64062 0.25-1.0469 0.40625-1.6875 0.60938v0.1875c0.15625-0.03125 0.26562-0.046875 0.39062-0.046875 0.29688 0 0.39062 0.1875 0.39062 0.6875v2.8281c-0.015625 0.59375-0.09375 0.65625-0.79688 0.78125z"/>
</g>
<g id="ah">
<path d="m5.0156-0.75c-0.1875 0.15625-0.32812 0.21875-0.5 0.21875-0.26562 0-0.34375-0.15625-0.34375-0.65625v-2.2188c0-0.59375-0.046875-0.92188-0.21875-1.1875-0.25-0.40625-0.75-0.625-1.4062-0.625-1.0781 0-1.9062 0.5625-1.9062 1.2656 0 0.26562 0.20312 0.5 0.48438 0.5 0.26562 0 0.51562-0.23438 0.51562-0.48438 0-0.046875-0.015625-0.09375-0.03125-0.1875s-0.03125-0.1875-0.03125-0.26562c0-0.3125 0.35938-0.5625 0.8125-0.5625 0.5625 0 0.85938 0.34375 0.85938 0.95312v0.6875c-1.7344 0.6875-1.9375 0.79688-2.4219 1.2188-0.25 0.23438-0.40625 0.625-0.40625 1 0 0.70312 0.5 1.2031 1.1875 1.2031 0.5 0 0.96875-0.23438 1.6562-0.82812 0.0625 0.60938 0.26562 0.82812 0.73438 0.82812 0.375 0 0.60938-0.125 1.0156-0.5625zm-1.7656-0.64062c0 0.32812-0.046875 0.45312-0.29688 0.59375-0.28125 0.15625-0.57812 0.25-0.82812 0.25-0.39062 0-0.70312-0.39062-0.70312-0.875v-0.046875c0-0.67188 0.5-1.1094 1.8281-1.5781z"/>
</g>
<g id="ag">
<path d="m5.4375-0.5625h-0.0625c-0.54688-0.03125-0.64062-0.125-0.64062-0.65625v-3.8906h-1.7969v0.20312c0.70312 0.03125 0.84375 0.14062 0.84375 0.70312v2.6719c0 0.3125-0.0625 0.46875-0.21875 0.59375-0.3125 0.25-0.65625 0.39062-1 0.39062-0.4375 0-0.79688-0.39062-0.79688-0.85938v-3.7031h-1.6562v0.15625c0.53125 0.03125 0.6875 0.1875 0.70312 0.73438v2.8594c0 0.89062 0.53125 1.4688 1.3594 1.4688 0.42188 0 0.875-0.17188 1.1719-0.48438l0.48438-0.48438v0.9375l0.046875 0.03125c0.57812-0.23438 0.98438-0.35938 1.5625-0.51562z"/>
</g>
<g id="af">
<path d="m0.1875 0h2.5156v-0.17188c-0.57812-0.015625-0.76562-0.14062-0.78125-0.59375v-3.1875c0-0.03125 0.09375-0.14062 0.17188-0.21875 0.28125-0.26562 0.78125-0.45312 1.1719-0.45312 0.5 0 0.75 0.39062 0.75 1.1875v2.4688c-0.015625 0.64062-0.14062 0.76562-0.76562 0.79688v0.17188h2.5312v-0.17188c-0.625 0-0.79688-0.1875-0.8125-0.90625v-2.8594c0.34375-0.48438 0.70312-0.6875 1.2344-0.6875 0.65625 0 0.85938 0.29688 0.85938 1.25v2.3906c-0.03125 0.67188-0.09375 0.75-0.75 0.8125v0.17188h2.4844v-0.17188l-0.29688-0.015625c-0.35938-0.0625-0.48438-0.23438-0.48438-0.67188v-2.3438c0-1.3281-0.45312-2.0156-1.3281-2.0156-0.65625 0-1.2344 0.29688-1.8438 0.95312-0.20312-0.64062-0.59375-0.95312-1.2031-0.95312-0.51562 0-0.8125 0.14062-1.75 0.875v-0.85938l-0.09375-0.015625c-0.59375 0.21875-0.98438 0.34375-1.5781 0.51562v0.1875c0.14062-0.03125 0.23438-0.046875 0.35938-0.046875 0.29688 0 0.39062 0.1875 0.39062 0.73438v2.8594c-0.015625 0.64062-0.15625 0.79688-0.78125 0.79688z"/>
</g>
<g id="d">
<path d="m1.3438 0h3.125v-0.17188c-0.875 0-1.0625-0.125-1.0781-0.67188v-6.7969l-0.09375-0.03125-2.0312 1.0312v0.15625c0.4375-0.15625 0.70312-0.25 0.8125-0.25 0.23438 0 0.34375 0.17188 0.34375 0.54688v5.125c-0.03125 0.71875-0.21875 0.875-1.0781 0.89062z"/>
</g>
<g id="a">
<path d="m2.875-7.6719c-0.625 0-1.0938 0.1875-1.5156 0.59375-0.65625 0.64062-1.0938 1.9375-1.0938 3.2656 0 1.25 0.375 2.5625 0.92188 3.2031 0.40625 0.5 0.98438 0.76562 1.6406 0.76562 0.59375 0 1.0781-0.1875 1.4844-0.59375 0.65625-0.625 1.0938-1.9375 1.0938-3.3125 0-2.3125-1.0312-3.9219-2.5312-3.9219zm-0.03125 0.29688c0.95312 0 1.4688 1.2812 1.4688 3.6562s-0.5 3.5781-1.4844 3.5781c-0.96875 0-1.4688-1.2031-1.4688-3.5625 0-2.4219 0.51562-3.6719 1.4844-3.6719z"/>
</g>
<g id="ae">
<path d="m5.0781-7.6719h-0.25c-0.046875 0.25-0.17188 0.39062-0.35938 0.39062-0.10938 0-0.3125-0.046875-0.5-0.14062-0.42188-0.15625-0.84375-0.25-1.2188-0.25-0.46875 0-0.96875 0.20312-1.3438 0.53125-0.39062 0.34375-0.59375 0.82812-0.59375 1.4062 0 0.90625 0.48438 1.5469 1.7656 2.2188 0.8125 0.4375 1.4062 0.89062 1.6875 1.3281 0.10938 0.14062 0.15625 0.39062 0.15625 0.67188 0 0.75-0.5625 1.2656-1.3906 1.2656-1.0156 0-1.7344-0.625-2.2969-2h-0.26562l0.34375 2.3906h0.25c0.015625-0.20312 0.15625-0.375 0.32812-0.375 0.125 0 0.3125 0.046875 0.53125 0.125 0.42188 0.17188 0.89062 0.26562 1.3281 0.26562 1.3281 0 2.3125-0.89062 2.3125-2.0781 0-0.92188-0.60938-1.6562-2.1094-2.4688-1.2031-0.64062-1.6719-1.1406-1.6719-1.7656s0.46875-1.0469 1.1719-1.0469c0.51562 0 1 0.21875 1.3906 0.625 0.35938 0.35938 0.51562 0.65625 0.6875 1.3281h0.28125z"/>
</g>
<g id="t">
<path d="m2.8906-5.1094h-1.1406v-1.3125c0-0.10938-0.03125-0.14062-0.078125-0.14062-0.65625 0.95312-1 1.3281-1.3281 1.5312-0.125 0.078125-0.20312 0.14062-0.20312 0.20312 0 0.046875 0.015625 0.0625 0.046875 0.09375h0.60938v3.4062c0 0.95312 0.34375 1.4375 1 1.4375 0.5625 0 1-0.26562 1.375-0.85938l-0.15625-0.125c-0.25 0.29688-0.42188 0.40625-0.67188 0.40625-0.42188 0-0.59375-0.3125-0.59375-1.0312v-3.2344h1.1406z"/>
</g>
<g id="r">
<path d="m0.20312 0h2.4062v-0.17188c-0.5625-0.03125-0.75-0.1875-0.75-0.59375v-3.1875c0.54688-0.5 0.79688-0.64062 1.1719-0.64062 0.54688 0 0.82812 0.34375 0.82812 1.0938v2.375c-0.03125 0.73438-0.15625 0.92188-0.71875 0.95312v0.17188h2.3594v-0.17188c-0.54688-0.0625-0.67188-0.1875-0.6875-0.75v-2.5938c0-1.0625-0.5-1.7031-1.3438-1.7031-0.51562 0-0.875 0.1875-1.6406 0.92188v-0.90625l-0.078125-0.015625c-0.59375 0.21875-0.98438 0.34375-1.5625 0.51562v0.1875c0.078125-0.03125 0.17188-0.046875 0.29688-0.046875 0.32812 0 0.42188 0.17188 0.42188 0.73438v2.8125c-0.015625 0.65625-0.14062 0.8125-0.70312 0.84375z"/>
</g>
<g id="ad">
<path d="m1.4219-1.1406c-0.34375 0-0.625 0.29688-0.625 0.65625 0 0.32812 0.28125 0.60938 0.60938 0.60938 0.35938 0 0.64062-0.26562 0.64062-0.60938 0-0.35938-0.28125-0.65625-0.625-0.65625z"/>
</g>
<g id="ac">
<path d="m4.0938-7.6719c-2.1719 0-3.7031 1.625-3.7031 3.9219 0 1.0625 0.35938 2.1094 0.96875 2.75 0.65625 0.71875 1.6719 1.1562 2.6719 1.1562 2.2344 0 3.7656-1.5781 3.7656-3.8594 0-1.125-0.32812-2.1094-0.9375-2.7812-0.71875-0.78125-1.6719-1.1875-2.7656-1.1875zm0 0.40625c0.51562 0 1.0469 0.20312 1.4531 0.57812 0.60938 0.54688 0.96875 1.6094 0.96875 2.9688 0 0.67188-0.14062 1.4531-0.375 2.0469-0.10938 0.28125-0.29688 0.5625-0.5625 0.82812-0.39062 0.39062-0.90625 0.59375-1.5 0.59375-0.53125 0-1.0312-0.20312-1.4531-0.5625-0.57812-0.51562-0.95312-1.6562-0.95312-2.9219 0-1.1562 0.32812-2.25 0.79688-2.7812 0.45312-0.5 1-0.75 1.625-0.75z"/>
</g>
<g id="q">
<path d="m3.5-5.1094h-1.3906v-1.3125c0-0.67188 0.21875-1.0156 0.64062-1.0156 0.25 0 0.40625 0.125 0.60938 0.45312 0.1875 0.29688 0.3125 0.40625 0.51562 0.40625 0.26562 0 0.46875-0.20312 0.46875-0.46875 0-0.40625-0.5-0.70312-1.1719-0.70312-0.71875 0-1.3125 0.3125-1.6094 0.8125-0.29688 0.51562-0.375 0.92188-0.39062 1.8281h-0.9375v0.375h0.9375v3.5469c-0.03125 0.85938-0.14062 0.98438-0.9375 1.0156v0.17188h2.9375v-0.17188c-0.92188-0.03125-1.0469-0.15625-1.0469-1.0156v-3.5469h1.375z"/>
</g>
<g id="l">
<path d="m-7.6719-5.0781v0.25c0.25 0.046875 0.39062 0.17188 0.39062 0.35938 0 0.10938-0.046875 0.3125-0.14062 0.5-0.15625 0.42188-0.25 0.84375-0.25 1.2188 0 0.46875 0.20312 0.96875 0.53125 1.3438 0.34375 0.39062 0.82812 0.59375 1.4062 0.59375 0.90625 0 1.5469-0.48438 2.2188-1.7656 0.4375-0.8125 0.89062-1.4062 1.3281-1.6875 0.14062-0.10938 0.39062-0.15625 0.67188-0.15625 0.75 0 1.2656 0.5625 1.2656 1.3906 0 1.0156-0.625 1.7344-2 2.2969v0.26562l2.3906-0.34375v-0.25c-0.20312-0.015625-0.375-0.15625-0.375-0.32812 0-0.125 0.046875-0.3125 0.125-0.53125 0.17188-0.42188 0.26562-0.89062 0.26562-1.3281 0-1.3281-0.89062-2.3125-2.0781-2.3125-0.92188 0-1.6562 0.60938-2.4688 2.1094-0.64062 1.2031-1.1406 1.6719-1.7656 1.6719s-1.0469-0.46875-1.0469-1.1719c0-0.51562 0.21875-1 0.625-1.3906 0.35938-0.35938 0.65625-0.51562 1.3281-0.6875v-0.28125z"/>
</g>
<g id="g">
<path d="m-1.8594-4.625c0.85938 0.54688 1.1875 1.0312 1.1875 1.75 0 0.65625-0.32812 1.1406-0.96875 1.4688-0.4375 0.20312-0.79688 0.28125-1.5 0.3125v-3.5c-0.73438 0.09375-1.0625 0.20312-1.4375 0.48438-0.40625 0.34375-0.64062 0.85938-0.64062 1.4531 0 0.5625 0.20312 1.1094 0.59375 1.5312 0.46875 0.53125 1.2656 0.84375 2.2031 0.84375 1.5625 0 2.5312-0.8125 2.5312-2.125 0-1.0781-0.67188-1.9219-1.8906-2.4062zm-1.6406 3.5c-0.89062-0.125-1.3125-0.51562-1.3125-1.2031s0.32812-0.96875 1.3125-1.1094z"/>
</g>
<g id="k">
<path d="m0-0.1875v-2.6875h-0.17188c-0.0625 0.75-0.15625 0.82812-0.98438 0.84375h-4.0312l-0.03125 0.046875 0.625 1.75h0.17188l-0.015625-0.078125c-0.015625-0.14062-0.03125-0.28125-0.03125-0.39062 0-0.26562 0.1875-0.375 0.6875-0.375h2.625c0.84375 0.015625 0.95312 0.125 0.98438 0.89062zm-7.75-1.2656c0 0.3125 0.26562 0.5625 0.57812 0.5625 0.32812 0 0.57812-0.25 0.57812-0.5625 0-0.34375-0.25-0.59375-0.57812-0.59375s-0.57812 0.26562-0.57812 0.59375z"/>
</g>
<g id="j">
<path d="m-5.1094-2.8906v1.1406h-1.3125c-0.10938 0-0.14062 0.03125-0.14062 0.078125 0.95312 0.65625 1.3281 1 1.5312 1.3281 0.078125 0.125 0.14062 0.20312 0.20312 0.20312 0.046875 0 0.0625-0.015625 0.09375-0.046875v-0.60938h3.4062c0.95312 0 1.4375-0.34375 1.4375-1 0-0.5625-0.26562-1-0.85938-1.375l-0.125 0.15625c0.29688 0.25 0.40625 0.42188 0.40625 0.67188 0 0.42188-0.3125 0.59375-1.0312 0.59375h-3.2344v-1.1406z"/>
</g>
<g id="ab">
<path d="m-7.6719-2.875c0 0.625 0.1875 1.0938 0.59375 1.5156 0.64062 0.65625 1.9375 1.0938 3.2656 1.0938 1.25 0 2.5625-0.375 3.2031-0.92188 0.5-0.40625 0.76562-0.98438 0.76562-1.6406 0-0.59375-0.1875-1.0781-0.59375-1.4844-0.625-0.65625-1.9375-1.0938-3.3125-1.0938-2.3125 0-3.9219 1.0312-3.9219 2.5312zm0.29688 0.03125c0-0.95312 1.2812-1.4688 3.6562-1.4688s3.5781 0.5 3.5781 1.4844c0 0.96875-1.2031 1.4688-3.5625 1.4688-2.4219 0-3.6719-0.51562-3.6719-1.4844z"/>
</g>
<g id="aa">
<path d="m0-1.3438v-3.125h-0.17188c0 0.875-0.125 1.0625-0.67188 1.0781h-6.7969l-0.03125 0.09375 1.0312 2.0312h0.15625c-0.15625-0.4375-0.25-0.70312-0.25-0.8125 0-0.23438 0.17188-0.34375 0.54688-0.34375h5.125c0.71875 0.03125 0.875 0.21875 0.89062 1.0781z"/>
</g>
<g id="z">
<path d="m-7.5156-5.0938v4.2031l1.6719 0.65625 0.09375-0.1875c-0.76562-0.46875-0.90625-0.67188-0.92188-1.3125v-2.4688l6.7656 2.25v-0.73438l-7.4219-2.4062z"/>
</g>
<clipPath id="ax">
<path d="m226 203h1v27h-1z"/>
</clipPath>
<clipPath id="aw">
<path d="m-5.4727 325.06h249v-327h-249zm231.74-121.8h0.52734l2.0039 6.3125-2.2695-1.1328-2.2656 1.1328z" clip-rule="evenodd"/>
</clipPath>
<clipPath id="at">
<path d="m226 279h1v27h-1z"/>
</clipPath>
<clipPath id="as">
<path d="m-5.4727 325.06h249v-327h-249zm232.27-19.215h-0.52734l-2.0039-6.3125 2.2656 1.1328 2.2695-1.1328z" clip-rule="evenodd"/>
</clipPath>
<clipPath id="ar">
<path d="m226 186h1v18h-1z"/>
</clipPath>
<clipPath id="aq">
<path d="m-5.4727 325.06h249v-327h-249zm232.27-121.27h-0.52734l-2.0039-6.3125 2.2656 1.1328 2.2695-1.1328z" clip-rule="evenodd"/>
</clipPath>
<clipPath id="ap">
<path d="m226 135h1v18h-1z"/>
</clipPath>
<clipPath id="ao">
<path d="m-5.4727 325.06h249v-327h-249zm231.74-189.84h0.52734l2.0039 6.3125-2.2695-1.1328-2.2656 1.1328z" clip-rule="evenodd"/>
</clipPath>
<clipPath id="an">
<path d="m226 84h1v18h-1z"/>
</clipPath>
<clipPath id="am">
<path d="m-5.4727 325.06h249v-327h-249zm232.27-223.34h-0.52734l-2.0039-6.3125 2.2656 1.1367 2.2695-1.1367z" clip-rule="evenodd"/>
</clipPath>
<clipPath id="av">
<path d="m226 33h1v18h-1z"/>
</clipPath>
<clipPath id="au">
<path d="m-5.4727 325.06h249v-327h-249zm231.74-291.9h0.52734l2.0039 6.3125-2.2695-1.1328-2.2656 1.1328z" clip-rule="evenodd"/>
</clipPath>
</defs>
<g>
<use x="189.111" y="300.4768" xlink:href="#c"/>
</g>
<path d="m134.68 237.54c0 0.94141-0.76172 1.7031-1.7031 1.7031-0.9375 0-1.6992-0.76172-1.6992-1.7031 0-0.9375 0.76172-1.6992 1.6992-1.6992 0.94141 0 1.7031 0.76172 1.7031 1.6992" fill-rule="evenodd"/>
<path transform="matrix(.1 0 0 -.1 -5.472 325.06)" d="m1401.5 875.21c0-9.4141-7.6172-17.031-17.031-17.031-9.375 0-16.992 7.6172-16.992 17.031 0 9.375 7.6172 16.992 16.992 16.992 9.4141 0 17.031-7.6172 17.031-16.992z" fill="none" stroke="#000" stroke-miterlimit="10" stroke-width="2.835"/>
<path d="m134.68 229.04c0 0.9375-0.76172 1.6992-1.7031 1.6992-0.9375 0-1.6992-0.76172-1.6992-1.6992s0.76172-1.7031 1.6992-1.7031c0.94141 0 1.7031 0.76562 1.7031 1.7031" fill-rule="evenodd"/>
<path transform="matrix(.1 0 0 -.1 -5.472 325.06)" d="m1401.5 960.25c0-9.375-7.6172-16.992-17.031-16.992-9.375 0-16.992 7.6172-16.992 16.992s7.6172 17.031 16.992 17.031c9.4141 0 17.031-7.6562 17.031-17.031z" fill="none" stroke="#000" stroke-miterlimit="10" stroke-width="2.835"/>
<path d="m134.68 178c0 0.94141-0.76172 1.7031-1.7031 1.7031-0.9375 0-1.6992-0.76172-1.6992-1.7031 0-0.9375 0.76172-1.6992 1.6992-1.6992 0.94141 0 1.7031 0.76172 1.7031 1.6992" fill-rule="evenodd"/>
<path transform="matrix(.1 0 0 -.1 -5.472 325.06)" d="m1401.5 1470.6c0-9.4141-7.6172-17.031-17.031-17.031-9.375 0-16.992 7.6172-16.992 17.031 0 9.375 7.6172 16.992 16.992 16.992 9.4141 0 17.031-7.6172 17.031-16.992z" fill="none" stroke="#000" stroke-miterlimit="10" stroke-width="2.835"/>
<path d="m134.68 169.5c0 0.9375-0.76172 1.6992-1.7031 1.6992-0.9375 0-1.6992-0.76172-1.6992-1.6992s0.76172-1.6992 1.6992-1.6992c0.94141 0 1.7031 0.76172 1.7031 1.6992" fill-rule="evenodd"/>
<path transform="matrix(.1 0 0 -.1 -5.472 325.06)" d="m1401.5 1555.6c0-9.375-7.6172-16.992-17.031-16.992-9.375 0-16.992 7.6172-16.992 16.992s7.6172 16.992 16.992 16.992c9.4141 0 17.031-7.6172 17.031-16.992z" fill="none" stroke="#000" stroke-miterlimit="10" stroke-width="2.835"/>
<path d="m134.68 161c0 0.9375-0.76172 1.6992-1.7031 1.6992-0.9375 0-1.6992-0.76172-1.6992-1.6992 0-0.94141 0.76172-1.7031 1.6992-1.7031 0.94141 0 1.7031 0.76172 1.7031 1.7031" fill-rule="evenodd"/>
<path transform="matrix(.1 0 0 -.1 -5.472 325.06)" d="m1401.5 1640.6c0-9.375-7.6172-16.992-17.031-16.992-9.375 0-16.992 7.6172-16.992 16.992 0 9.4141 7.6172 17.031 16.992 17.031 9.4141 0 17.031-7.6172 17.031-17.031z" fill="none" stroke="#000" stroke-miterlimit="10" stroke-width="2.835"/>
<path d="m134.68 126.98c0 0.9375-0.76172 1.6992-1.7031 1.6992-0.9375 0-1.6992-0.76172-1.6992-1.6992 0-0.94141 0.76172-1.7031 1.6992-1.7031 0.94141 0 1.7031 0.76172 1.7031 1.7031" fill-rule="evenodd"/>
<path transform="matrix(.1 0 0 -.1 -5.472 325.06)" d="m1401.5 1980.8c0-9.375-7.6172-16.992-17.031-16.992-9.375 0-16.992 7.6172-16.992 16.992 0 9.4141 7.6172 17.031 16.992 17.031 9.4141 0 17.031-7.6172 17.031-17.031z" fill="none" stroke="#000" stroke-miterlimit="10" stroke-width="2.835"/>
<path d="m134.68 118.47c0 0.94141-0.76172 1.7031-1.7031 1.7031-0.9375 0-1.6992-0.76172-1.6992-1.7031 0-0.9375 0.76172-1.6992 1.6992-1.6992 0.94141 0 1.7031 0.76172 1.7031 1.6992" fill-rule="evenodd"/>
<path transform="matrix(.1 0 0 -.1 -5.472 325.06)" d="m1401.5 2065.9c0-9.4141-7.6172-17.031-17.031-17.031-9.375 0-16.992 7.6172-16.992 17.031 0 9.375 7.6172 16.992 16.992 16.992 9.4141 0 17.031-7.6172 17.031-16.992z" fill="none" stroke="#000" stroke-miterlimit="10" stroke-width="2.835"/>
<path d="m134.68 109.96c0 0.9375-0.76172 1.6992-1.7031 1.6992-0.9375 0-1.6992-0.76172-1.6992-1.6992s0.76172-1.6992 1.6992-1.6992c0.94141 0 1.7031 0.76172 1.7031 1.6992" fill-rule="evenodd"/>
<path transform="matrix(.1 0 0 -.1 -5.472 325.06)" d="m1401.5 2151c0-9.375-7.6172-16.992-17.031-16.992-9.375 0-16.992 7.6172-16.992 16.992s7.6172 16.992 16.992 16.992c9.4141 0 17.031-7.6172 17.031-16.992z" fill="none" stroke="#000" stroke-miterlimit="10" stroke-width="2.835"/>
<path d="m83.648 161c0 0.9375-0.76172 1.6992-1.6992 1.6992-0.94141 0-1.7031-0.76172-1.7031-1.6992 0-0.94141 0.76172-1.7031 1.7031-1.7031 0.9375 0 1.6992 0.76172 1.6992 1.7031" fill-rule="evenodd"/>
<path transform="matrix(.1 0 0 -.1 -5.472 325.06)" d="m891.2 1640.6c0-9.375-7.6172-16.992-16.992-16.992-9.4141 0-17.031 7.6172-17.031 16.992 0 9.4141 7.6172 17.031 17.031 17.031 9.375 0 16.992-7.6172 16.992-17.031z" fill="none" stroke="#000" stroke-miterlimit="10" stroke-width="2.835"/>
<path d="m83.648 169.5c0 0.9375-0.76172 1.6992-1.6992 1.6992-0.94141 0-1.7031-0.76172-1.7031-1.6992s0.76172-1.6992 1.7031-1.6992c0.9375 0 1.6992 0.76172 1.6992 1.6992" fill-rule="evenodd"/>
<path transform="matrix(.1 0 0 -.1 -5.472 325.06)" d="m891.2 1555.6c0-9.375-7.6172-16.992-16.992-16.992-9.4141 0-17.031 7.6172-17.031 16.992s7.6172 16.992 17.031 16.992c9.375 0 16.992-7.6172 16.992-16.992z" fill="none" stroke="#000" stroke-miterlimit="10" stroke-width="2.835"/>
<path d="m83.648 178c0 0.94141-0.76172 1.7031-1.6992 1.7031-0.94141 0-1.7031-0.76172-1.7031-1.7031 0-0.9375 0.76172-1.6992 1.7031-1.6992 0.9375 0 1.6992 0.76172 1.6992 1.6992" fill-rule="evenodd"/>
<path transform="matrix(.1 0 0 -.1 -5.472 325.06)" d="m891.2 1470.6c0-9.4141-7.6172-17.031-16.992-17.031-9.4141 0-17.031 7.6172-17.031 17.031 0 9.375 7.6172 16.992 17.031 16.992 9.375 0 16.992-7.6172 16.992-16.992z" fill="none" stroke="#000" stroke-miterlimit="10" stroke-width="2.835"/>
<path d="m194.21 161c0 0.9375-0.76172 1.6992-1.7031 1.6992-0.9375 0-1.6992-0.76172-1.6992-1.6992 0-0.94141 0.76172-1.7031 1.6992-1.7031 0.94141 0 1.7031 0.76172 1.7031 1.7031" fill-rule="evenodd"/>
<path transform="matrix(.1 0 0 -.1 -5.472 325.06)" d="m1996.9 1640.6c0-9.375-7.6172-16.992-17.031-16.992-9.375 0-16.992 7.6172-16.992 16.992 0 9.4141 7.6172 17.031 16.992 17.031 9.4141 0 17.031-7.6172 17.031-17.031z" fill="none" stroke="#000" stroke-miterlimit="10" stroke-width="2.835"/>
<path d="m194.21 169.5c0 0.9375-0.76172 1.6992-1.7031 1.6992-0.9375 0-1.6992-0.76172-1.6992-1.6992s0.76172-1.6992 1.6992-1.6992c0.94141 0 1.7031 0.76172 1.7031 1.6992" fill-rule="evenodd"/>
<path transform="matrix(.1 0 0 -.1 -5.472 325.06)" d="m1996.9 1555.6c0-9.375-7.6172-16.992-17.031-16.992-9.375 0-16.992 7.6172-16.992 16.992s7.6172 16.992 16.992 16.992c9.4141 0 17.031-7.6172 17.031-16.992z" fill="none" stroke="#000" stroke-miterlimit="10" stroke-width="2.835"/>
<path d="m194.21 178c0 0.94141-0.76172 1.7031-1.7031 1.7031-0.9375 0-1.6992-0.76172-1.6992-1.7031 0-0.9375 0.76172-1.6992 1.6992-1.6992 0.94141 0 1.7031 0.76172 1.7031 1.6992" fill-rule="evenodd"/>
<path transform="matrix(.1 0 0 -.1 -5.472 325.06)" d="m1996.9 1470.6c0-9.4141-7.6172-17.031-17.031-17.031-9.375 0-16.992 7.6172-16.992 17.031 0 9.375 7.6172 16.992 16.992 16.992 9.4141 0 17.031-7.6172 17.031-16.992z" fill="none" stroke="#000" stroke-miterlimit="10" stroke-width="2.835"/>
<path d="m194.21 229.04c0 0.9375-0.76172 1.6992-1.7031 1.6992-0.9375 0-1.6992-0.76172-1.6992-1.6992s0.76172-1.7031 1.6992-1.7031c0.94141 0 1.7031 0.76562 1.7031 1.7031" fill-rule="evenodd"/>
<path transform="matrix(.1 0 0 -.1 -5.472 325.06)" d="m1996.9 960.25c0-9.375-7.6172-16.992-17.031-16.992-9.375 0-16.992 7.6172-16.992 16.992s7.6172 17.031 16.992 17.031c9.4141 0 17.031-7.6562 17.031-17.031z" fill="none" stroke="#000" stroke-miterlimit="10" stroke-width="2.835"/>
<path d="m194.21 237.54c0 0.94141-0.76172 1.7031-1.7031 1.7031-0.9375 0-1.6992-0.76172-1.6992-1.7031 0-0.9375 0.76172-1.6992 1.6992-1.6992 0.94141 0 1.7031 0.76172 1.7031 1.6992" fill-rule="evenodd"/>
<path transform="matrix(.1 0 0 -.1 -5.472 325.06)" d="m1996.9 875.21c0-9.4141-7.6172-17.031-17.031-17.031-9.375 0-16.992 7.6172-16.992 17.031 0 9.375 7.6172 16.992 16.992 16.992 9.4141 0 17.031-7.6172 17.031-16.992z" fill="none" stroke="#000" stroke-miterlimit="10" stroke-width="2.835"/>
<path d="m194.21 246.05c0 0.9375-0.76172 1.6992-1.7031 1.6992-0.9375 0-1.6992-0.76172-1.6992-1.6992 0-0.94141 0.76172-1.7031 1.6992-1.7031 0.94141 0 1.7031 0.76172 1.7031 1.7031" fill-rule="evenodd"/>
<path transform="matrix(.1 0 0 -.1 -5.472 325.06)" d="m1996.9 790.13c0-9.375-7.6172-16.992-17.031-16.992-9.375 0-16.992 7.6172-16.992 16.992 0 9.4141 7.6172 17.031 16.992 17.031 9.4141 0 17.031-7.6172 17.031-17.031z" fill="none" stroke="#000" stroke-miterlimit="10" stroke-width="2.835"/>
<path d="m83.648 229.04c0 0.9375-0.76172 1.6992-1.6992 1.6992-0.94141 0-1.7031-0.76172-1.7031-1.6992s0.76172-1.7031 1.7031-1.7031c0.9375 0 1.6992 0.76562 1.6992 1.7031" fill-rule="evenodd"/>
<path transform="matrix(.1 0 0 -.1 -5.472 325.06)" d="m891.2 960.25c0-9.375-7.6172-16.992-16.992-16.992-9.4141 0-17.031 7.6172-17.031 16.992s7.6172 17.031 17.031 17.031c9.375 0 16.992-7.6562 16.992-17.031z" fill="none" stroke="#000" stroke-miterlimit="10" stroke-width="2.835"/>
<path d="m83.648 237.54c0 0.94141-0.76172 1.7031-1.6992 1.7031-0.94141 0-1.7031-0.76172-1.7031-1.7031 0-0.9375 0.76172-1.6992 1.7031-1.6992 0.9375 0 1.6992 0.76172 1.6992 1.6992" fill-rule="evenodd"/>
<path transform="matrix(.1 0 0 -.1 -5.472 325.06)" d="m891.2 875.21c0-9.4141-7.6172-17.031-16.992-17.031-9.4141 0-17.031 7.6172-17.031 17.031 0 9.375 7.6172 16.992 17.031 16.992 9.375 0 16.992-7.6172 16.992-16.992z" fill="none" stroke="#000" stroke-miterlimit="10" stroke-width="2.835"/>
<path d="m83.648 246.05c0 0.9375-0.76172 1.6992-1.6992 1.6992-0.94141 0-1.7031-0.76172-1.7031-1.6992 0-0.94141 0.76172-1.7031 1.7031-1.7031 0.9375 0 1.6992 0.76172 1.6992 1.7031" fill-rule="evenodd"/>
<path transform="matrix(.1 0 0 -.1 -5.472 325.06)" d="m891.2 790.13c0-9.375-7.6172-16.992-16.992-16.992-9.4141 0-17.031 7.6172-17.031 16.992 0 9.4141 7.6172 17.031 17.031 17.031 9.375 0 16.992-7.6172 16.992-17.031z" fill="none" stroke="#000" stroke-miterlimit="10" stroke-width="2.835"/>
<path d="m83.648 109.96c0 0.9375-0.76172 1.6992-1.6992 1.6992-0.94141 0-1.7031-0.76172-1.7031-1.6992s0.76172-1.6992 1.7031-1.6992c0.9375 0 1.6992 0.76172 1.6992 1.6992" fill-rule="evenodd"/>
<path transform="matrix(.1 0 0 -.1 -5.472 325.06)" d="m891.2 2151c0-9.375-7.6172-16.992-16.992-16.992-9.4141 0-17.031 7.6172-17.031 16.992s7.6172 16.992 17.031 16.992c9.375 0 16.992-7.6172 16.992-16.992z" fill="none" stroke="#000" stroke-miterlimit="10" stroke-width="2.835"/>
<path d="m83.648 118.47c0 0.94141-0.76172 1.7031-1.6992 1.7031-0.94141 0-1.7031-0.76172-1.7031-1.7031 0-0.9375 0.76172-1.6992 1.7031-1.6992 0.9375 0 1.6992 0.76172 1.6992 1.6992" fill-rule="evenodd"/>
<path transform="matrix(.1 0 0 -.1 -5.472 325.06)" d="m891.2 2065.9c0-9.4141-7.6172-17.031-16.992-17.031-9.4141 0-17.031 7.6172-17.031 17.031 0 9.375 7.6172 16.992 17.031 16.992 9.375 0 16.992-7.6172 16.992-16.992z" fill="none" stroke="#000" stroke-miterlimit="10" stroke-width="2.835"/>
<path d="m83.648 126.98c0 0.9375-0.76172 1.6992-1.6992 1.6992-0.94141 0-1.7031-0.76172-1.7031-1.6992 0-0.94141 0.76172-1.7031 1.7031-1.7031 0.9375 0 1.6992 0.76172 1.6992 1.7031" fill-rule="evenodd"/>
<path transform="matrix(.1 0 0 -.1 -5.472 325.06)" d="m891.2 1980.8c0-9.375-7.6172-16.992-16.992-16.992-9.4141 0-17.031 7.6172-17.031 16.992 0 9.4141 7.6172 17.031 17.031 17.031 9.375 0 16.992-7.6172 16.992-17.031z" fill="none" stroke="#000" stroke-miterlimit="10" stroke-width="2.835"/>
<path d="m194.21 126.98c0 0.9375-0.76172 1.6992-1.7031 1.6992-0.9375 0-1.6992-0.76172-1.6992-1.6992 0-0.94141 0.76172-1.7031 1.6992-1.7031 0.94141 0 1.7031 0.76172 1.7031 1.7031" fill-rule="evenodd"/>
<path transform="matrix(.1 0 0 -.1 -5.472 325.06)" d="m1996.9 1980.8c0-9.375-7.6172-16.992-17.031-16.992-9.375 0-16.992 7.6172-16.992 16.992 0 9.4141 7.6172 17.031 16.992 17.031 9.4141 0 17.031-7.6172 17.031-17.031z" fill="none" stroke="#000" stroke-miterlimit="10" stroke-width="2.835"/>
<path d="m194.21 118.47c0 0.94141-0.76172 1.7031-1.7031 1.7031-0.9375 0-1.6992-0.76172-1.6992-1.7031 0-0.9375 0.76172-1.6992 1.6992-1.6992 0.94141 0 1.7031 0.76172 1.7031 1.6992" fill-rule="evenodd"/>
<path transform="matrix(.1 0 0 -.1 -5.472 325.06)" d="m1996.9 2065.9c0-9.4141-7.6172-17.031-17.031-17.031-9.375 0-16.992 7.6172-16.992 17.031 0 9.375 7.6172 16.992 16.992 16.992 9.4141 0 17.031-7.6172 17.031-16.992z" fill="none" stroke="#000" stroke-miterlimit="10" stroke-width="2.835"/>
<path d="m194.21 109.96c0 0.9375-0.76172 1.6992-1.7031 1.6992-0.9375 0-1.6992-0.76172-1.6992-1.6992s0.76172-1.6992 1.6992-1.6992c0.94141 0 1.7031 0.76172 1.7031 1.6992" fill-rule="evenodd"/>
<path transform="matrix(.1 0 0 -.1 -5.472 325.06)" d="m1996.9 2151c0-9.375-7.6172-16.992-17.031-16.992-9.375 0-16.992 7.6172-16.992 16.992s7.6172 16.992 16.992 16.992c9.4141 0 17.031-7.6172 17.031-16.992z" fill="none" stroke="#000" stroke-miterlimit="10" stroke-width="2.835"/>
<path d="m134.68 75.945c0 0.9375-0.76172 1.6992-1.7031 1.6992-0.9375 0-1.6992-0.76172-1.6992-1.6992s0.76172-1.7031 1.6992-1.7031c0.94141 0 1.7031 0.76562 1.7031 1.7031" fill-rule="evenodd"/>
<path transform="matrix(.1 0 0 -.1 -5.472 325.06)" d="m1401.5 2491.1c0-9.375-7.6172-16.992-17.031-16.992-9.375 0-16.992 7.6172-16.992 16.992s7.6172 17.031 16.992 17.031c9.4141 0 17.031-7.6562 17.031-17.031z" fill="none" stroke="#000" stroke-miterlimit="10" stroke-width="2.835"/>
<path d="m134.68 67.441c0 0.9375-0.76172 1.6992-1.7031 1.6992-0.9375 0-1.6992-0.76172-1.6992-1.6992 0-0.94141 0.76172-1.7031 1.6992-1.7031 0.94141 0 1.7031 0.76172 1.7031 1.7031" fill-rule="evenodd"/>
<path transform="matrix(.1 0 0 -.1 -5.472 325.06)" d="m1401.5 2576.2c0-9.375-7.6172-16.992-17.031-16.992-9.375 0-16.992 7.6172-16.992 16.992 0 9.4141 7.6172 17.031 16.992 17.031 9.4141 0 17.031-7.6172 17.031-17.031z" fill="none" stroke="#000" stroke-miterlimit="10" stroke-width="2.835"/>
<path d="m134.68 58.934c0 0.94141-0.76172 1.7031-1.7031 1.7031-0.9375 0-1.6992-0.76172-1.6992-1.7031 0-0.9375 0.76172-1.6992 1.6992-1.6992 0.94141 0 1.7031 0.76172 1.7031 1.6992" fill-rule="evenodd"/>
<path transform="matrix(.1 0 0 -.1 -5.472 325.06)" d="m1401.5 2661.3c0-9.4141-7.6172-17.031-17.031-17.031-9.375 0-16.992 7.6172-16.992 17.031 0 9.375 7.6172 16.992 16.992 16.992 9.4141 0 17.031-7.6172 17.031-16.992z" fill="none" stroke="#000" stroke-miterlimit="10" stroke-width="2.835"/>
<path d="m83.648 58.934c0 0.94141-0.76172 1.7031-1.6992 1.7031-0.94141 0-1.7031-0.76172-1.7031-1.7031 0-0.9375 0.76172-1.6992 1.7031-1.6992 0.9375 0 1.6992 0.76172 1.6992 1.6992" fill-rule="evenodd"/>
<path transform="matrix(.1 0 0 -.1 -5.472 325.06)" d="m891.2 2661.3c0-9.4141-7.6172-17.031-16.992-17.031-9.4141 0-17.031 7.6172-17.031 17.031 0 9.375 7.6172 16.992 17.031 16.992 9.375 0 16.992-7.6172 16.992-16.992z" fill="none" stroke="#000" stroke-miterlimit="10" stroke-width="2.835"/>
<path d="m83.648 67.441c0 0.9375-0.76172 1.6992-1.6992 1.6992-0.94141 0-1.7031-0.76172-1.7031-1.6992 0-0.94141 0.76172-1.7031 1.7031-1.7031 0.9375 0 1.6992 0.76172 1.6992 1.7031" fill-rule="evenodd"/>
<path transform="matrix(.1 0 0 -.1 -5.472 325.06)" d="m891.2 2576.2c0-9.375-7.6172-16.992-16.992-16.992-9.4141 0-17.031 7.6172-17.031 16.992 0 9.4141 7.6172 17.031 17.031 17.031 9.375 0 16.992-7.6172 16.992-17.031z" fill="none" stroke="#000" stroke-miterlimit="10" stroke-width="2.835"/>
<path d="m83.648 75.945c0 0.9375-0.76172 1.6992-1.6992 1.6992-0.94141 0-1.7031-0.76172-1.7031-1.6992s0.76172-1.7031 1.7031-1.7031c0.9375 0 1.6992 0.76562 1.6992 1.7031" fill-rule="evenodd"/>
<path transform="matrix(.1 0 0 -.1 -5.472 325.06)" d="m891.2 2491.1c0-9.375-7.6172-16.992-16.992-16.992-9.4141 0-17.031 7.6172-17.031 16.992s7.6172 17.031 17.031 17.031c9.375 0 16.992-7.6562 16.992-17.031z" fill="none" stroke="#000" stroke-miterlimit="10" stroke-width="2.835"/>
<path d="m228.23 109.96c0 0.9375-0.76172 1.6992-1.7031 1.6992-0.9375 0-1.6992-0.76172-1.6992-1.6992s0.76172-1.6992 1.6992-1.6992c0.94141 0 1.7031 0.76172 1.7031 1.6992" fill-rule="evenodd"/>
<path transform="matrix(.1 0 0 -.1 -5.472 325.06)" d="m2337.1 2151c0-9.375-7.6172-16.992-17.031-16.992-9.375 0-16.992 7.6172-16.992 16.992s7.6172 16.992 16.992 16.992c9.4141 0 17.031-7.6172 17.031-16.992z" fill="none" stroke="#000" stroke-miterlimit="10" stroke-width="2.835"/>
<path d="m228.23 118.47c0 0.94141-0.76172 1.7031-1.7031 1.7031-0.9375 0-1.6992-0.76172-1.6992-1.7031 0-0.9375 0.76172-1.6992 1.6992-1.6992 0.94141 0 1.7031 0.76172 1.7031 1.6992" fill-rule="evenodd"/>
<path transform="matrix(.1 0 0 -.1 -5.472 325.06)" d="m2337.1 2065.9c0-9.4141-7.6172-17.031-17.031-17.031-9.375 0-16.992 7.6172-16.992 17.031 0 9.375 7.6172 16.992 16.992 16.992 9.4141 0 17.031-7.6172 17.031-16.992z" fill="none" stroke="#000" stroke-miterlimit="10" stroke-width="2.835"/>
<path d="m228.23 126.98c0 0.9375-0.76172 1.6992-1.7031 1.6992-0.9375 0-1.6992-0.76172-1.6992-1.6992 0-0.94141 0.76172-1.7031 1.6992-1.7031 0.94141 0 1.7031 0.76172 1.7031 1.7031" fill-rule="evenodd"/>
<path transform="matrix(.1 0 0 -.1 -5.472 325.06)" d="m2337.1 1980.8c0-9.375-7.6172-16.992-17.031-16.992-9.375 0-16.992 7.6172-16.992 16.992 0 9.4141 7.6172 17.031 16.992 17.031 9.4141 0 17.031-7.6172 17.031-17.031z" fill="none" stroke="#000" stroke-miterlimit="10" stroke-width="2.835"/>
<path transform="matrix(.1 0 0 -.1 -5.472 325.06)" d="m959.25 364.9h935.55" fill="none" stroke="#000" stroke-miterlimit="10" stroke-width="2.835"/>
<path transform="matrix(.1 0 0 -.1 -5.472 325.06)" d="m959.25 535.01h935.55" fill="none" stroke="#000" stroke-miterlimit="10" stroke-width="2.835"/>
<path transform="matrix(.1 0 0 -.1 -5.472 325.06)" d="m959.25 705.09h935.55" fill="none" stroke="#000" stroke-miterlimit="10" stroke-width="2.835"/>
<path transform="matrix(.1 0 0 -.1 -5.472 325.06)" d="m959.25 1045.3h935.55" fill="none" stroke="#000" stroke-miterlimit="10" stroke-width="2.835"/>
<path transform="matrix(.1 0 0 -.1 -5.472 325.06)" d="m959.25 1215.4h935.55" fill="none" stroke="#000" stroke-miterlimit="10" stroke-width="5.67"/>
<path transform="matrix(.1 0 0 -.1 -5.472 325.06)" d="m959.25 1385.5h935.55" fill="none" stroke="#000" stroke-miterlimit="10" stroke-width="2.835"/>
<path transform="matrix(.1 0 0 -.1 -5.472 325.06)" d="m959.25 1725.7h935.55" fill="none" stroke="#000" stroke-miterlimit="10" stroke-width="2.835"/>
<path transform="matrix(.1 0 0 -.1 -5.472 325.06)" d="m959.25 1895.8h935.55" fill="none" stroke="#000" stroke-miterlimit="10" stroke-width="5.67"/>
<path transform="matrix(.1 0 0 -.1 -5.472 325.06)" d="m959.25 2236h935.55" fill="none" stroke="#000" stroke-miterlimit="10" stroke-width="5.67"/>
<path transform="matrix(.1 0 0 -.1 -5.472 325.06)" d="m959.25 2406.1h935.55" fill="none" stroke="#000" stroke-miterlimit="10" stroke-width="2.835"/>
<path transform="matrix(.1 0 0 -.1 -5.472 325.06)" d="m959.25 2746.3h935.55" fill="none" stroke="#000" stroke-miterlimit="10" stroke-width="2.835"/>
<path transform="matrix(.1 0 0 -.1 -5.472 325.06)" d="m959.25 194.82h935.55v2721.6h-935.55z" fill="none" stroke="#000" stroke-miterlimit="10" stroke-width="5.67"/>
<path transform="matrix(.1 0 0 -.1 -5.472 325.06)" d="m2235 1215.4h170.12" fill="none" stroke="#000" stroke-miterlimit="10" stroke-width="2.835"/>
<path transform="matrix(.1 0 0 -.1 -5.472 325.06)" d="m2235 194.82h170.12" fill="none" stroke="#000" stroke-miterlimit="10" stroke-width="2.835"/>
<g clip-path="url(#ax)">
<g clip-path="url(#aw)">
<path transform="matrix(.1 0 0 -.1 -5.472 325.06)" d="m2320 960.25v255.16" fill="none" stroke="#000" stroke-miterlimit="10" stroke-width="2.835"/>
</g>
</g>
<path d="m228.8 209.57-2.2695-5.668-2.2656 5.668 2.2656-1.1328 2.2695 1.1328" fill-rule="evenodd"/>
<path transform="matrix(.1 0 0 -.1 -5.472 325.06)" d="m2342.7 1154.9-22.695 56.68-22.656-56.68 22.656 11.328z" fill="none" stroke="#000" stroke-miterlimit="10" stroke-width="2.835"/>
<g clip-path="url(#at)">
<g clip-path="url(#as)">
<path transform="matrix(.1 0 0 -.1 -5.472 325.06)" d="m2320 194.82v255.12" fill="none" stroke="#000" stroke-miterlimit="10" stroke-width="2.835"/>
</g>
</g>
<path d="m224.27 299.53 2.2656 5.6719 2.2695-5.6719-2.2695 1.1328-2.2656-1.1328" fill-rule="evenodd"/>
<path transform="matrix(.1 0 0 -.1 -5.472 325.06)" d="m2297.4 255.29 22.656-56.719 22.695 56.719-22.695-11.328z" fill="none" stroke="#000" stroke-miterlimit="10" stroke-width="2.835"/>
<g clip-path="url(#ar)">
<g clip-path="url(#aq)">
<path transform="matrix(.1 0 0 -.1 -5.472 325.06)" d="m2320 1215.4v170.08" fill="none" stroke="#000" stroke-miterlimit="10" stroke-width="2.835"/>
</g>
</g>
<path d="m224.27 197.47 2.2656 5.668 2.2695-5.668-2.2695 1.1328-2.2656-1.1328" fill-rule="evenodd"/>
<path transform="matrix(.1 0 0 -.1 -5.472 325.06)" d="m2297.4 1275.9 22.656-56.68 22.695 56.68-22.695-11.328z" fill="none" stroke="#000" stroke-miterlimit="10" stroke-width="2.835"/>
<path transform="matrix(.1 0 0 -.1 -5.472 325.06)" d="m2235 1895.8h170.12" fill="none" stroke="#000" stroke-miterlimit="10" stroke-width="2.835"/>
<g clip-path="url(#ap)">
<g clip-path="url(#ao)">
<path transform="matrix(.1 0 0 -.1 -5.472 325.06)" d="m2320 1725.7v170.08" fill="none" stroke="#000" stroke-miterlimit="10" stroke-width="2.835"/>
</g>
</g>
<path d="m228.8 141.53-2.2695-5.668-2.2656 5.668 2.2656-1.1328 2.2695 1.1328" fill-rule="evenodd"/>
<path transform="matrix(.1 0 0 -.1 -5.472 325.06)" d="m2342.7 1835.3-22.695 56.68-22.656-56.68 22.656 11.328z" fill="none" stroke="#000" stroke-miterlimit="10" stroke-width="2.835"/>
<path transform="matrix(.1 0 0 -.1 -5.472 325.06)" d="m2235 2236h170.12" fill="none" stroke="#000" stroke-miterlimit="10" stroke-width="2.835"/>
<g clip-path="url(#an)">
<g clip-path="url(#am)">
<path transform="matrix(.1 0 0 -.1 -5.472 325.06)" d="m2320 2236v170.12" fill="none" stroke="#000" stroke-miterlimit="10" stroke-width="2.835"/>
</g>
</g>
<path d="m224.27 95.41 2.2656 5.6719 2.2695-5.6719-2.2695 1.1367-2.2656-1.1367" fill-rule="evenodd"/>
<path transform="matrix(.1 0 0 -.1 -5.472 325.06)" d="m2297.4 2296.5 22.656-56.719 22.695 56.719-22.695-11.367z" fill="none" stroke="#000" stroke-miterlimit="10" stroke-width="2.835"/>
<path transform="matrix(.1 0 0 -.1 -5.472 325.06)" d="m2235 2916.4h170.12" fill="none" stroke="#000" stroke-miterlimit="10" stroke-width="2.835"/>
<g clip-path="url(#av)">
<g clip-path="url(#au)">
<path transform="matrix(.1 0 0 -.1 -5.472 325.06)" d="m2320 2746.3v170.08" fill="none" stroke="#000" stroke-miterlimit="10" stroke-width="2.835"/>
</g>
</g>
<path d="m228.8 39.469-2.2695-5.6719-2.2656 5.6719 2.2656-1.1328 2.2695 1.1328" fill-rule="evenodd"/>
<path transform="matrix(.1 0 0 -.1 -5.472 325.06)" d="m2342.7 2855.9-22.695 56.719-22.656-56.719 22.656 11.328z" fill="none" stroke="#000" stroke-miterlimit="10" stroke-width="2.835"/>
<path transform="matrix(.1 0 0 -.1 -5.472 325.06)" d="m465.97 2916.4v-2908.7" fill="none" stroke="#000" stroke-dasharray="22.68" stroke-miterlimit="10" stroke-width="5.67"/>
<g>
<use x="9.8968" y="23.214" xlink:href="#w"/>
<use x="13.04932" y="23.214" xlink:href="#s"/>
<use x="18.71932" y="23.214" xlink:href="#p"/>
<use x="24.38932" y="23.214" xlink:href="#m"/>
<use x="27.54184" y="23.214" xlink:href="#f"/>
<use x="31.9531" y="23.214" xlink:href="#o"/>
<use x="36.98806" y="23.214" xlink:href="#n"/>
<use x="42.65806" y="23.214" xlink:href="#e"/>
<use x="47.69302" y="23.214" xlink:href="#glyph-1-9"/>
<use x="50.52802" y="23.214" xlink:href="#v"/>
<use x="58.7155" y="23.214" xlink:href="#u"/>
<use x="64.3855" y="23.214" xlink:href="#h"/>
<use x="68.16172" y="23.214" xlink:href="#e"/>
<use x="73.19668" y="23.214" xlink:href="#f"/>
<use x="77.60794" y="23.214" xlink:href="#f"/>
<use x="82.0192" y="23.214" xlink:href="#e"/>
<use x="113.8938" y="7.905" xlink:href="#w"/>
<use x="117.04632" y="7.905" xlink:href="#s"/>
<use x="122.71632" y="7.905" xlink:href="#p"/>
<use x="128.38632" y="7.905" xlink:href="#m"/>
<use x="131.53884" y="7.905" xlink:href="#f"/>
<use x="135.9501" y="7.905" xlink:href="#o"/>
<use x="140.98506" y="7.905" xlink:href="#n"/>
<use x="146.65506" y="7.905" xlink:href="#e"/>
<use x="151.69002" y="7.905" xlink:href="#h"/>
<use x="107.28286" y="23.214" xlink:href="#v"/>
<use x="115.47034" y="23.214" xlink:href="#u"/>
<use x="121.14034" y="23.214" xlink:href="#h"/>
<use x="124.91656" y="23.214" xlink:href="#e"/>
<use x="129.95152" y="23.214" xlink:href="#f"/>
<use x="134.36278" y="23.214" xlink:href="#f"/>
<use x="138.77404" y="23.214" xlink:href="#h"/>
<use x="142.55026" y="23.214" xlink:href="#ah"/>
<use x="147.58522" y="23.214" xlink:href="#ag"/>
<use x="153.25522" y="23.214" xlink:href="#af"/>
<use x="43.01416" y="45.3269" xlink:href="#d"/>
<use x="48.68416" y="45.3269" xlink:href="#d"/>
<use x="54.35416" y="45.3269" xlink:href="#d"/>
<use x="60.02416" y="45.3269" xlink:href="#d"/>
<use x="65.69416" y="45.3269" xlink:href="#d"/>
<use x="71.36416" y="45.3269" xlink:href="#d"/>
<use x="77.03416" y="45.3269" xlink:href="#d"/>
<use x="43.01416" y="96.357" xlink:href="#a"/>
<use x="48.68416" y="96.357" xlink:href="#a"/>
<use x="54.35416" y="96.357" xlink:href="#a"/>
<use x="60.02416" y="96.357" xlink:href="#a"/>
<use x="65.69416" y="96.357" xlink:href="#a"/>
<use x="71.36416" y="96.357" xlink:href="#a"/>
<use x="77.03416" y="96.357" xlink:href="#a"/>
<use x="20.50906" y="45.3269" xlink:href="#b"/>
<use x="26.8141" y="45.3269" xlink:href="#b"/>
<use x="33.11914" y="45.3269" xlink:href="#b"/>
<use x="20.50906" y="96.357" xlink:href="#b"/>
<use x="26.8141" y="96.357" xlink:href="#b"/>
<use x="33.11914" y="96.357" xlink:href="#b"/>
<use x="20.50906" y="149.0883" xlink:href="#c"/>
<use x="26.8141" y="149.0883" xlink:href="#c"/>
<use x="33.11914" y="149.0883" xlink:href="#b"/>
<use x="43.014141" y="149.0883" xlink:href="#b"/>
<use x="49.319181" y="149.0883" xlink:href="#b"/>
<use x="55.624221" y="149.0883" xlink:href="#b"/>
<use x="61.929261" y="149.0883" xlink:href="#b"/>
<use x="68.234301" y="149.0883" xlink:href="#b"/>
<use x="74.539341" y="149.0883" xlink:href="#b"/>
<use x="80.844381" y="149.0883" xlink:href="#b"/>
<use x="20.50906" y="198.4172" xlink:href="#c"/>
<use x="26.8141" y="198.4172" xlink:href="#c"/>
<use x="33.11914" y="198.4172" xlink:href="#b"/>
<use x="43.01416" y="198.4172" xlink:href="#a"/>
<use x="48.68416" y="198.4172" xlink:href="#a"/>
<use x="54.35416" y="198.4172" xlink:href="#a"/>
<use x="60.02416" y="198.4172" xlink:href="#a"/>
<use x="65.69416" y="198.4172" xlink:href="#a"/>
<use x="71.36416" y="198.4172" xlink:href="#a"/>
<use x="77.03416" y="198.4172" xlink:href="#a"/>
<use x="20.50906" y="215.427" xlink:href="#c"/>
<use x="26.8141" y="215.427" xlink:href="#c"/>
<use x="33.11914" y="215.427" xlink:href="#c"/>
<use x="43.01416" y="215.427" xlink:href="#d"/>
<use x="48.68416" y="215.427" xlink:href="#d"/>
<use x="54.35416" y="215.427" xlink:href="#d"/>
<use x="60.02416" y="215.427" xlink:href="#d"/>
<use x="65.69416" y="215.427" xlink:href="#d"/>
<use x="71.36416" y="215.427" xlink:href="#d"/>
<use x="77.03416" y="215.427" xlink:href="#d"/>
<use x="20.50906" y="266.4571" xlink:href="#c"/>
<use x="26.8141" y="266.4571" xlink:href="#c"/>
<use x="33.11914" y="266.4571" xlink:href="#c"/>
<use x="20.50906" y="283.4673" xlink:href="#c"/>
<use x="26.8141" y="283.4673" xlink:href="#c"/>
<use x="33.11914" y="283.4673" xlink:href="#c"/>
<use x="43.01416" y="283.4673" xlink:href="#a"/>
<use x="48.68416" y="283.4673" xlink:href="#a"/>
<use x="54.35416" y="283.4673" xlink:href="#a"/>
<use x="60.02416" y="283.4673" xlink:href="#a"/>
<use x="65.69416" y="283.4673" xlink:href="#a"/>
<use x="71.36416" y="283.4673" xlink:href="#a"/>
<use x="77.03416" y="283.4673" xlink:href="#d"/>
<use x="20.50906" y="300.4771" xlink:href="#c"/>
<use x="26.8141" y="300.4771" xlink:href="#c"/>
<use x="33.11914" y="300.4771" xlink:href="#c"/>
<use x="43.01416" y="300.4771" xlink:href="#a"/>
<use x="48.68416" y="300.4771" xlink:href="#a"/>
<use x="54.35416" y="300.4771" xlink:href="#a"/>
<use x="60.02416" y="300.4771" xlink:href="#a"/>
<use x="65.69416" y="300.4771" xlink:href="#a"/>
<use x="71.36416" y="300.4771" xlink:href="#a"/>
<use x="77.03416" y="300.4771" xlink:href="#a"/>
<use x="0.49466" y="320.8892" xlink:href="#ae"/>
<use x="6.7997" y="320.8892" xlink:href="#e"/>
<use x="11.83466" y="320.8892" xlink:href="#m"/>
<use x="14.98718" y="320.8892" xlink:href="#t"/>
<use x="18.1397" y="320.8892" xlink:href="#e"/>
<use x="23.17466" y="320.8892" xlink:href="#r"/>
<use x="28.84466" y="320.8892" xlink:href="#r"/>
<use x="34.51466" y="320.8892" xlink:href="#h"/>
<use x="38.29088" y="320.8892" xlink:href="#ad"/>
<use x="189.11066" y="45.3272" xlink:href="#b"/>
<use x="195.4157" y="45.3272" xlink:href="#c"/>
<use x="201.72074" y="45.3272" xlink:href="#i"/>
<use x="208.02578" y="45.3272" xlink:href="#al"/>
<use x="189.11066" y="98.0585" xlink:href="#y"/>
<use x="195.4157" y="98.0585" xlink:href="#ak"/>
<use x="201.72074" y="98.0585" xlink:href="#aj"/>
<use x="189.11066" y="149.0886" xlink:href="#i"/>
<use x="195.4157" y="149.0886" xlink:href="#x"/>
<use x="201.72074" y="149.0886" xlink:href="#x"/>
<use x="189.11066" y="198.4175" xlink:href="#b"/>
<use x="195.4157" y="198.4175" xlink:href="#i"/>
<use x="201.72074" y="198.4175" xlink:href="#y"/>
<use x="189.11066" y="215.4273" xlink:href="#b"/>
<use x="195.4157" y="215.4273" xlink:href="#i"/>
<use x="201.72074" y="215.4273" xlink:href="#ai"/>
<use x="189.11066" y="268.1586" xlink:href="#i"/>
<use x="189.11066" y="283.4676" xlink:href="#b"/>
<use x="229.935" y="271.8428" xlink:href="#l"/>
<use x="229.935" y="265.53776" xlink:href="#g"/>
<use x="229.935" y="260.5028" xlink:href="#k"/>
<use x="229.935" y="257.35028" xlink:href="#j"/>
<use x="229.935" y="254.19776" xlink:href="#g"/>
<use x="229.935" y="249.1628" xlink:href="#glyph-2-5"/>
<use x="229.935" y="246.3278" xlink:href="#ab"/>
<use x="229.935" y="186.7928" xlink:href="#l"/>
<use x="229.935" y="180.48776" xlink:href="#g"/>
<use x="229.935" y="175.4528" xlink:href="#k"/>
<use x="229.935" y="172.30028" xlink:href="#j"/>
<use x="229.935" y="169.14776" xlink:href="#g"/>
<use x="229.935" y="164.1128" xlink:href="#glyph-2-5"/>
<use x="229.935" y="161.2778" xlink:href="#aa"/>
<use x="229.935" y="83.0318" xlink:href="#l"/>
<use x="229.935" y="76.72676" xlink:href="#g"/>
<use x="229.935" y="71.6918" xlink:href="#k"/>
<use x="229.935" y="68.53928" xlink:href="#j"/>
<use x="229.935" y="65.38676" xlink:href="#g"/>
<use x="229.935" y="60.3518" xlink:href="#glyph-2-5"/>
<use x="229.935" y="57.5168" xlink:href="#z"/>
<use x="43.0139" y="266.4569" xlink:href="#a"/>
<use x="48.6839" y="266.4569" xlink:href="#a"/>
<use x="54.3539" y="266.4569" xlink:href="#a"/>
<use x="60.0239" y="266.4569" xlink:href="#a"/>
<use x="65.6939" y="266.4569" xlink:href="#a"/>
<use x="71.3639" y="266.4569" xlink:href="#d"/>
<use x="77.0339" y="266.4569" xlink:href="#a"/>
<use x="44.52601" y="320.8889" xlink:href="#ac"/>
<use x="52.71349" y="320.8889" xlink:href="#q"/>
<use x="56.48971" y="320.8889" xlink:href="#q"/>
<use x="60.26593" y="320.8889" xlink:href="#f"/>
<use x="64.67719" y="320.8889" xlink:href="#e"/>
<use x="69.71215" y="320.8889" xlink:href="#t"/>
</g>
<path d="m134.68 246.05c0 0.9375-0.76172 1.6992-1.7031 1.6992-0.9375 0-1.6992-0.76172-1.6992-1.6992 0-0.94141 0.76172-1.7031 1.6992-1.7031 0.94141 0 1.7031 0.76172 1.7031 1.7031" fill-rule="evenodd"/>
<path transform="matrix(.1 0 0 -.1 -5.472 325.06)" d="m1401.5 790.13c0-9.375-7.6172-16.992-17.031-16.992-9.375 0-16.992 7.6172-16.992 16.992 0 9.4141 7.6172 17.031 16.992 17.031 9.4141 0 17.031-7.6172 17.031-17.031z" fill="none" stroke="#000" stroke-miterlimit="10" stroke-width="2.835"/>
</svg>
