<svg width="380pt" height="310pt" version="1.1" viewBox="0 0 380 310" xmlns="http://www.w3.org/2000/svg" xmlns:xlink="http://www.w3.org/1999/xlink">
<defs>
<g id="r">
<path d="m5.3594-4.6406c0-0.4375-0.015625-0.57812-0.17188-0.875-0.35938-0.75-1.125-1.1562-2.2188-1.1562-1.4531 0-2.3438 0.73438-2.3438 1.9219 0 0.8125 0.42188 1.3125 1.2969 1.5312l1.625 0.4375c0.84375 0.21875 1.2031 0.54688 1.2031 1.0625 0 0.34375-0.1875 0.70312-0.46875 0.90625-0.26562 0.1875-0.67188 0.28125-1.2031 0.28125-0.71875 0-1.2031-0.17188-1.5156-0.54688-0.23438-0.29688-0.34375-0.60938-0.34375-1.0156h-0.78125c0 0.60938 0.125 1 0.375 1.3594 0.45312 0.625 1.2188 0.9375 2.2188 0.9375 0.78125 0 1.4219-0.17188 1.8438-0.5 0.4375-0.34375 0.71875-0.9375 0.71875-1.5 0-0.8125-0.51562-1.4062-1.4062-1.6562l-1.6406-0.4375c-0.79688-0.21875-1.0781-0.46875-1.0781-0.96875 0-0.67188 0.57812-1.1094 1.4688-1.1094 1.0469 0 1.625 0.46875 1.6406 1.3281z"/>
</g>
<g id="p">
<path d="m0.48438 1.9688h0.75v-2.4688c0.40625 0.48438 0.84375 0.70312 1.4531 0.70312 1.2344 0 2.0156-0.98438 2.0156-2.4844 0-1.5781-0.76562-2.5625-2.0156-2.5625-0.64062 0-1.1562 0.28125-1.5156 0.84375v-0.71875h-0.6875zm2.0781-6.125c0.82812 0 1.3594 0.73438 1.3594 1.8594 0 1.0781-0.54688 1.7969-1.3594 1.7969s-1.3281-0.71875-1.3281-1.8281c0-1.0938 0.51562-1.8281 1.3281-1.8281z"/>
</g>
<g id="c">
<path d="m4.6094-2.1094c0-0.71875-0.046875-1.1562-0.1875-1.5-0.29688-0.78125-1.0156-1.2344-1.9062-1.2344-1.3125 0-2.1562 0.98438-2.1562 2.5469s0.8125 2.5 2.1406 2.5c1.0781 0 1.8281-0.60938 2.0156-1.6406h-0.75c-0.20312 0.625-0.64062 0.95312-1.2344 0.95312-0.48438 0-0.89062-0.21875-1.1406-0.60938-0.17188-0.28125-0.23438-0.54688-0.25-1.0156zm-3.4531-0.60938c0.0625-0.875 0.59375-1.4375 1.3594-1.4375s1.2969 0.59375 1.2969 1.4375z"/>
</g>
<g id="l">
<path d="m1.3438-4.7188h-0.73438v4.7188h0.73438zm0-1.8438h-0.75v0.95312h0.75z"/>
</g>
<g id="s">
<path d="m4.2344-3.125c-0.03125-0.46875-0.125-0.76562-0.3125-1.0312-0.32812-0.4375-0.89062-0.6875-1.5469-0.6875-1.2812 0-2.0938 1-2.0938 2.5625 0 1.5312 0.8125 2.4844 2.0781 2.4844 1.125 0 1.8438-0.67188 1.9375-1.8281h-0.76562c-0.125 0.76562-0.5 1.1406-1.1406 1.1406-0.82812 0-1.3281-0.67188-1.3281-1.7969 0-1.1719 0.48438-1.875 1.2969-1.875 0.64062 0 1.0312 0.375 1.125 1.0312z"/>
</g>
<g id="d">
<path d="m0.625-6.5625v6.5625h0.75v-2.5938c0-0.96875 0.5-1.5938 1.2812-1.5938 0.25 0 0.48438 0.0625 0.67188 0.20312 0.20312 0.15625 0.29688 0.39062 0.29688 0.71875v3.2656h0.75v-3.5625c0-0.79688-0.5625-1.2812-1.4844-1.2812-0.67188 0-1.0781 0.20312-1.5156 0.78125v-2.5z"/>
</g>
<g id="j">
<path d="m0.625-4.7188v4.7188h0.75v-2.4531c0.015625-1.125 0.48438-1.6406 1.5156-1.6094v-0.76562c-0.125-0.015625-0.20312-0.015625-0.29688-0.015625-0.48438 0-0.84375 0.28125-1.2812 0.98438v-0.85938z"/>
</g>
<g id="g">
<path d="m1.6719-2.8281h2.1562c0.75 0 1.0781 0.35938 1.0781 1.1719v0.57812c0 0.40625 0.078125 0.8125 0.1875 1.0781h1.0156v-0.20312c-0.3125-0.21875-0.375-0.45312-0.39062-1.3281-0.015625-1.0781-0.1875-1.4062-0.89062-1.7031 0.73438-0.375 1.0312-0.8125 1.0312-1.5781 0-1.125-0.70312-1.75-2-1.75h-3.0156v6.5625h0.82812zm0-0.73438v-2.2656h2.0312c0.46875 0 0.73438 0.078125 0.9375 0.25 0.23438 0.20312 0.34375 0.5 0.34375 0.875 0 0.78125-0.39062 1.1406-1.2812 1.1406z"/>
</g>
<g id="e">
<path d="m4.8125-0.4375c-0.078125 0.015625-0.10938 0.015625-0.15625 0.015625-0.26562 0-0.40625-0.14062-0.40625-0.375v-2.7656c0-0.84375-0.60938-1.2812-1.7812-1.2812-0.6875 0-1.2344 0.1875-1.5625 0.54688-0.21875 0.23438-0.29688 0.51562-0.32812 0.96875h0.76562c0.0625-0.5625 0.40625-0.82812 1.1094-0.82812 0.67188 0 1.0469 0.25 1.0469 0.70312v0.1875c-0.015625 0.32812-0.17188 0.45312-0.78125 0.53125-1.0625 0.14062-1.2188 0.17188-1.5156 0.28125-0.54688 0.23438-0.82812 0.65625-0.82812 1.2656 0 0.85938 0.59375 1.3906 1.5469 1.3906 0.59375 0 1.0781-0.20312 1.6094-0.6875 0.046875 0.48438 0.28125 0.6875 0.76562 0.6875 0.17188 0 0.26562-0.015625 0.51562-0.078125zm-1.3125-1.0469c0 0.25-0.078125 0.40625-0.29688 0.60938-0.3125 0.28125-0.67188 0.42188-1.1094 0.42188-0.59375 0-0.9375-0.28125-0.9375-0.75 0-0.5 0.32812-0.75 1.1406-0.85938 0.79688-0.10938 0.95312-0.15625 1.2031-0.26562z"/>
</g>
<g id="h">
<path d="m0.625-4.7188v4.7188h0.76562v-2.9688c0-0.67188 0.48438-1.2188 1.1094-1.2188 0.54688 0 0.85938 0.32812 0.85938 0.9375v3.25h0.76562v-2.9688c0-0.67188 0.48438-1.2188 1.1094-1.2188 0.54688 0 0.875 0.34375 0.875 0.9375v3.25h0.75v-3.5312c0-0.85938-0.48438-1.3125-1.375-1.3125-0.625 0-1 0.1875-1.4375 0.71875-0.28125-0.51562-0.65625-0.71875-1.2812-0.71875s-1.0469 0.23438-1.4375 0.79688v-0.67188z"/>
</g>
<g id="f">
<path d="m0.625-4.7188v4.7188h0.76562v-2.5938c0-0.96875 0.5-1.5938 1.2656-1.5938 0.60938 0 0.98438 0.35938 0.98438 0.92188v3.2656h0.75v-3.5625c0-0.78125-0.59375-1.2812-1.5-1.2812-0.70312 0-1.1562 0.26562-1.5625 0.92188v-0.79688z"/>
</g>
<g id="b">
<path d="m2.4688-6.5c-0.59375 0-1.125 0.26562-1.4531 0.70312-0.42188 0.57812-0.625 1.4375-0.625 2.6406 0 2.2031 0.71875 3.3594 2.0781 3.3594s2.0938-1.1562 2.0938-3.2969c0-1.2656-0.20312-2.1094-0.625-2.7031-0.32812-0.45312-0.85938-0.70312-1.4688-0.70312zm0 0.6875c0.85938 0 1.2812 0.875 1.2812 2.6406 0 1.8594-0.40625 2.7188-1.2969 2.7188-0.82812 0-1.25-0.89062-1.25-2.6875s0.42188-2.6719 1.2656-2.6719z"/>
</g>
<g id="a">
<path d="m2.3281-4.6406v4.6406h0.79688v-6.5h-0.53125c-0.26562 0.98438-0.45312 1.125-1.6719 1.2812v0.57812z"/>
</g>
<g id="ab">
<path d="m4.5469-0.78125h-3.3438c0.078125-0.54688 0.35938-0.89062 1.1406-1.3594l0.90625-0.5c0.89062-0.5 1.3438-1.1719 1.3438-1.9688 0-0.53125-0.20312-1.0469-0.59375-1.3906-0.375-0.34375-0.84375-0.5-1.4375-0.5-0.8125 0-1.4219 0.28125-1.7656 0.84375-0.23438 0.34375-0.32812 0.75-0.34375 1.4062h0.78125c0.03125-0.45312 0.09375-0.70312 0.20312-0.92188 0.20312-0.40625 0.60938-0.64062 1.0938-0.64062 0.71875 0 1.25 0.51562 1.25 1.2188 0 0.53125-0.29688 0.96875-0.85938 1.2969l-0.82812 0.48438c-1.3281 0.76562-1.7188 1.375-1.7812 2.7969h4.2344z"/>
</g>
<g id="aa">
<path d="m4.2812-6.375h-3.2969l-0.46875 3.4688h0.71875c0.375-0.4375 0.6875-0.59375 1.1875-0.59375 0.85938 0 1.3906 0.57812 1.3906 1.5312 0 0.92188-0.53125 1.4688-1.4062 1.4688-0.6875 0-1.1094-0.34375-1.2969-1.0625h-0.79688c0.10938 0.51562 0.20312 0.76562 0.39062 1 0.35938 0.48438 1 0.76562 1.7344 0.76562 1.2812 0 2.1719-0.9375 2.1719-2.2812 0-1.2656-0.82812-2.125-2.0469-2.125-0.45312 0-0.8125 0.10938-1.1875 0.39062l0.25-1.7812h2.6562z"/>
</g>
<g id="z">
<path d="m4.4844-4.8125c-0.15625-1.0625-0.84375-1.6875-1.8125-1.6875-0.70312 0-1.3281 0.32812-1.7031 0.92188-0.40625 0.64062-0.57812 1.4219-0.57812 2.6094 0 1.0938 0.15625 1.7969 0.53125 2.3594 0.34375 0.53125 0.90625 0.8125 1.6094 0.8125 1.2188 0 2.0781-0.90625 2.0781-2.1719 0-1.2031-0.79688-2.0469-1.9531-2.0469-0.625 0-1.125 0.23438-1.4531 0.71875 0-1.6094 0.5-2.5156 1.4219-2.5156 0.54688 0 0.9375 0.375 1.0625 1zm-1.9219 1.5c0.76562 0 1.25 0.54688 1.25 1.4062 0 0.8125-0.54688 1.4062-1.2812 1.4062s-1.2969-0.60938-1.2969-1.4375c0-0.8125 0.54688-1.375 1.3281-1.375z"/>
</g>
<g id="y">
<path d="m4.6875-6.375h-4.2812v0.78125h3.4531c-1.5156 2.1719-2.1406 3.5-2.625 5.5938h0.85938c0.34375-2.0469 1.1406-3.7969 2.5938-5.7188z"/>
</g>
<g id="q">
<path d="m2.2812-4.7188h-0.76562v-1.2969h-0.75v1.2969h-0.64062v0.60938h0.64062v3.5625c0 0.5 0.32812 0.75 0.90625 0.75 0.20312 0 0.35938-0.015625 0.60938-0.0625v-0.625c-0.10938 0.03125-0.20312 0.03125-0.35938 0.03125-0.3125 0-0.40625-0.09375-0.40625-0.42188v-3.2344h0.76562z"/>
</g>
<g id="x">
<path d="m0.48438-6.5625v6.5625h0.67188v-0.60938c0.35938 0.5625 0.84375 0.8125 1.5 0.8125 1.2344 0 2.0469-1.0156 2.0469-2.5781 0-1.5312-0.76562-2.4688-2.0156-2.4688-0.64062 0-1.1094 0.23438-1.4531 0.76562v-2.4844zm2.0625 2.4062c0.84375 0 1.375 0.73438 1.375 1.8594 0 1.0781-0.5625 1.7969-1.375 1.7969-0.79688 0-1.3125-0.71875-1.3125-1.8281 0-1.0938 0.51562-1.8281 1.3125-1.8281z"/>
</g>
<g id="k">
<path d="m1.375-6.5625h-0.76562v6.5625h0.76562z"/>
</g>
<g id="w">
<path d="m2.9375-1.5781v1.5781h0.79688v-1.5781h0.95312v-0.70312h-0.95312v-4.2188h-0.57812l-2.9062 4.0938v0.82812zm0-0.70312h-2l2-2.875z"/>
</g>
<g id="v">
<path d="m3.4844-4.7188-1.2969 3.6719-1.2031-3.6719h-0.79688l1.5781 4.7344-0.28125 0.75c-0.125 0.32812-0.28125 0.45312-0.60938 0.45312-0.125 0-0.23438-0.015625-0.39062-0.046875v0.67188c0.15625 0.078125 0.3125 0.125 0.5 0.125 0.25 0 0.51562-0.09375 0.70312-0.23438 0.23438-0.17188 0.375-0.35938 0.51562-0.75l2.0938-5.7031z"/>
</g>
<g id="i">
<path d="m3.9375-3.4062c0-0.92188-0.60938-1.4375-1.7031-1.4375s-1.8125 0.5625-1.8125 1.4375c0 0.73438 0.375 1.0781 1.5 1.3594l0.70312 0.17188c0.51562 0.125 0.71875 0.3125 0.71875 0.64062 0 0.45312-0.4375 0.75-1.0938 0.75-0.40625 0-0.75-0.125-0.9375-0.3125-0.10938-0.14062-0.17188-0.28125-0.21875-0.60938h-0.78125c0.03125 1.0938 0.64062 1.6094 1.875 1.6094 1.1875 0 1.9375-0.57812 1.9375-1.4844 0-0.70312-0.39062-1.0938-1.3281-1.3125l-0.71875-0.17188c-0.60938-0.15625-0.875-0.34375-0.875-0.6875 0-0.4375 0.39062-0.70312 1-0.70312s0.92188 0.26562 0.95312 0.75z"/>
</g>
<g id="o">
<path d="m1.7188-0.9375h-0.9375v0.9375h0.9375z"/>
</g>
<g id="n">
<path d="m4.2656-1.9688 0.67188 1.9688h0.9375l-2.2969-6.5625h-1.0781l-2.3438 6.5625h0.89062l0.6875-1.9688zm-0.23438-0.70312h-2.0938l1.0938-2.9844z"/>
</g>
<g id="m">
<path d="m4.4531-6.5625h-0.75v2.4375c-0.3125-0.46875-0.8125-0.71875-1.4375-0.71875-1.2344 0-2.0312 0.96875-2.0312 2.4844 0 1.5781 0.78125 2.5625 2.0469 2.5625 0.65625 0 1.1094-0.23438 1.5-0.82812v0.625h0.67188zm-2.0625 2.4062c0.79688 0 1.3125 0.71875 1.3125 1.8594 0 1.0781-0.51562 1.7969-1.3125 1.7969-0.82812 0-1.375-0.71875-1.375-1.8281 0-1.0938 0.54688-1.8281 1.375-1.8281z"/>
</g>
<g id="u">
<path d="m2.4531-4.8438c-1.3438 0-2.125 0.9375-2.125 2.5156 0 1.5938 0.78125 2.5312 2.125 2.5312 1.3281 0 2.1406-0.9375 2.1406-2.4844 0-1.6406-0.78125-2.5625-2.1406-2.5625zm0 0.6875c0.84375 0 1.3594 0.6875 1.3594 1.8594 0 1.125-0.53125 1.8125-1.3594 1.8125s-1.3438-0.6875-1.3438-1.8438c0-1.1406 0.51562-1.8281 1.3438-1.8281z"/>
</g>
<g id="t">
<path d="m3.6406-4.7188v0.6875c-0.375-0.5625-0.79688-0.8125-1.3906-0.8125-1.1406 0-1.9375 1.0625-1.9375 2.5625 0 0.79688 0.1875 1.375 0.59375 1.8438 0.35938 0.42188 0.79688 0.64062 1.2969 0.64062 0.5625 0 0.96875-0.25 1.3594-0.84375v0.25c0 1.25-0.34375 1.7188-1.2812 1.7188-0.64062 0-0.96875-0.25-1.0469-0.78125h-0.76562c0.078125 0.85938 0.76562 1.4219 1.7969 1.4219 0.6875 0 1.2656-0.23438 1.5625-0.60938 0.35938-0.4375 0.5-1.0312 0.5-2.1406v-3.9375zm-1.3125 0.5625c0.78125 0 1.2344 0.67188 1.2344 1.8594 0 1.1406-0.45312 1.8125-1.2344 1.8125s-1.2344-0.67188-1.2344-1.8438c0-1.1406 0.45312-1.8281 1.2344-1.8281z"/>
</g>
<clipPath id="ak">
<path d="m18 73h20v82h-20z"/>
</clipPath>
<clipPath id="aj">
<path d="m0.52734 310.46h380v-311h-380zm36.609-156.51v0.42188l-4.2891 0.69141v-1.8008z" clip-rule="evenodd"/>
</clipPath>
<clipPath id="ai">
<path d="m54 73h159v64h-159z"/>
</clipPath>
<clipPath id="ah">
<path d="m0.52734 310.46h380v-311h-380zm212.11-174.09h-0.41797l-0.69141-4.2891h1.8008z" clip-rule="evenodd"/>
</clipPath>
<clipPath id="ag">
<path d="m0.52734 55h73.473v19h-73.473z"/>
</clipPath>
<clipPath id="af">
<path d="m135 122h42v33h-42z"/>
</clipPath>
<clipPath id="ae">
<path d="m0.52734 310.46h380v-311h-380zm176.11-174.09h-0.41797l-0.69141-4.2891h1.8008z" clip-rule="evenodd"/>
</clipPath>
<clipPath id="ad">
<path d="m234 115h74v31h-74z"/>
</clipPath>
<clipPath id="ac">
<path d="m0.52734 310.46h380v-311h-380zm306.61-194.76v0.42188l-4.2891 0.69141v-1.8008z" clip-rule="evenodd"/>
</clipPath>
</defs>
<path transform="matrix(.1 0 0 -.1 .528 310.46)" d="m3064 1968h720" fill="none" stroke="#000" stroke-miterlimit="10" stroke-width="2.25"/>
<path d="m344.37 136.16c0 0.79688-0.64453 1.4414-1.4375 1.4414-0.79688 0-1.4414-0.64453-1.4414-1.4414 0-0.79297 0.64453-1.4375 1.4414-1.4375 0.79297 0 1.4375 0.64453 1.4375 1.4375" fill-rule="evenodd"/>
<path transform="matrix(.1 0 0 -.1 .528 310.46)" d="m3438.4 1743c0-7.9688-6.4453-14.414-14.375-14.414-7.9688 0-14.414 6.4453-14.414 14.414 0 7.9297 6.4453 14.375 14.414 14.375 7.9297 0 14.375-6.4453 14.375-14.375z" fill="none" stroke="#000" stroke-miterlimit="10" stroke-width="2.25"/>
<path transform="matrix(.1 0 0 -.1 .528 310.46)" d="m3064 1878h720" fill="none" stroke="#000" stroke-miterlimit="10" stroke-width="2.25"/>
<path transform="matrix(.1 0 0 -.1 .528 310.46)" d="m3064 1698h720" fill="none" stroke="#000" stroke-miterlimit="10" stroke-width="2.25"/>
<path transform="matrix(.1 0 0 -.1 .528 310.46)" d="m3064 573.01h720" fill="none" stroke="#000" stroke-miterlimit="10" stroke-width="9"/>
<path transform="matrix(.1 0 0 -.1 .528 310.46)" d="m3064 2733h720" fill="none" stroke="#000" stroke-miterlimit="10" stroke-width="9"/>
<path d="m344.37 127.16c0 0.79688-0.64453 1.4414-1.4375 1.4414-0.79688 0-1.4414-0.64453-1.4414-1.4414 0-0.79297 0.64453-1.4375 1.4414-1.4375 0.79297 0 1.4375 0.64453 1.4375 1.4375" fill-rule="evenodd"/>
<path transform="matrix(.1 0 0 -.1 .528 310.46)" d="m3438.4 1833c0-7.9688-6.4453-14.414-14.375-14.414-7.9688 0-14.414 6.4453-14.414 14.414 0 7.9297 6.4453 14.375 14.414 14.375 7.9297 0 14.375-6.4453 14.375-14.375z" fill="none" stroke="#000" stroke-miterlimit="10" stroke-width="2.25"/>
<path d="m344.37 131.66c0 0.79688-0.64453 1.4414-1.4375 1.4414-0.79688 0-1.4414-0.64453-1.4414-1.4414 0-0.79297 0.64453-1.4375 1.4414-1.4375 0.79297 0 1.4375 0.64453 1.4375 1.4375" fill-rule="evenodd"/>
<path transform="matrix(.1 0 0 -.1 .528 310.46)" d="m3438.4 1788c0-7.9688-6.4453-14.414-14.375-14.414-7.9688 0-14.414 6.4453-14.414 14.414 0 7.9297 6.4453 14.375 14.414 14.375 7.9297 0 14.375-6.4453 14.375-14.375z" fill="none" stroke="#000" stroke-miterlimit="10" stroke-width="2.25"/>
<path transform="matrix(.1 0 0 -.1 .528 310.46)" d="m634.02 753.01h720" fill="none" stroke="#000" stroke-miterlimit="10" stroke-width="2.25"/>
<path transform="matrix(.1 0 0 -.1 .528 310.46)" d="m634.02 573.01h720" fill="none" stroke="#000" stroke-miterlimit="10" stroke-width="2.25"/>
<path transform="matrix(.1 0 0 -.1 .528 310.46)" d="m634.02 393.01h720" fill="none" stroke="#000" stroke-miterlimit="10" stroke-width="2.25"/>
<path transform="matrix(.1 0 0 -.1 .528 310.46)" d="m634.02 393.01h720v540h-720z" fill="none" stroke="#000" stroke-miterlimit="10" stroke-width="2.25"/>
<path transform="matrix(.1 0 0 -.1 .528 310.46)" d="m3064 2373h720" fill="none" stroke="#000" stroke-miterlimit="10" stroke-width="9"/>
<path transform="matrix(.1 0 0 -.1 .528 310.46)" d="m3064 2013h720" fill="none" stroke="#000" stroke-miterlimit="10" stroke-width="9"/>
<path transform="matrix(.1 0 0 -.1 .528 310.46)" d="m3064 1653h720" fill="none" stroke="#000" stroke-miterlimit="10" stroke-width="9"/>
<path transform="matrix(.1 0 0 -.1 .528 310.46)" d="m3064 1293h720" fill="none" stroke="#000" stroke-miterlimit="10" stroke-width="9"/>
<path transform="matrix(.1 0 0 -.1 .528 310.46)" d="m3064 933.01h720" fill="none" stroke="#000" stroke-miterlimit="10" stroke-width="9"/>
<path transform="matrix(.1 0 0 -.1 .528 310.46)" d="m3064 1923h720" fill="none" stroke="#000" stroke-miterlimit="10" stroke-width="2.25"/>
<g>
<use x="325.172" y="307.165" xlink:href="#r"/>
<use x="331.175" y="307.165" xlink:href="#p"/>
<use x="336.179" y="307.165" xlink:href="#c"/>
<use x="341.183" y="307.165" xlink:href="#l"/>
<use x="343.181" y="307.165" xlink:href="#s"/>
<use x="347.681" y="307.165" xlink:href="#d"/>
<use x="352.685" y="307.165" xlink:href="#c"/>
<use x="357.689" y="307.165" xlink:href="#j"/>
<use x="322.17005" y="21.415" xlink:href="#g"/>
<use x="328.66805" y="21.415" xlink:href="#e"/>
<use x="333.67205" y="21.415" xlink:href="#d"/>
<use x="338.67605" y="21.415" xlink:href="#h"/>
<use x="346.17305" y="21.415" xlink:href="#c"/>
<use x="351.17705" y="21.415" xlink:href="#f"/>
<use x="356.18105" y="21.415" xlink:href="#glyph-0-12"/>
<use x="358.68305" y="21.415" xlink:href="#b"/>
<use x="322.17005" y="57.415" xlink:href="#g"/>
<use x="328.66805" y="57.415" xlink:href="#e"/>
<use x="333.67205" y="57.415" xlink:href="#d"/>
<use x="338.67605" y="57.415" xlink:href="#h"/>
<use x="346.17305" y="57.415" xlink:href="#c"/>
<use x="351.17705" y="57.415" xlink:href="#f"/>
<use x="356.18105" y="57.415" xlink:href="#glyph-0-12"/>
<use x="358.68305" y="57.415" xlink:href="#a"/>
<use x="322.17005" y="93.415" xlink:href="#g"/>
<use x="328.66805" y="93.415" xlink:href="#e"/>
<use x="333.67205" y="93.415" xlink:href="#d"/>
<use x="338.67605" y="93.415" xlink:href="#h"/>
<use x="346.17305" y="93.415" xlink:href="#c"/>
<use x="351.17705" y="93.415" xlink:href="#f"/>
<use x="356.18105" y="93.415" xlink:href="#glyph-0-12"/>
<use x="358.68305" y="93.415" xlink:href="#ab"/>
<use x="322.17005" y="201.415" xlink:href="#g"/>
<use x="328.66805" y="201.415" xlink:href="#e"/>
<use x="333.67205" y="201.415" xlink:href="#d"/>
<use x="338.67605" y="201.415" xlink:href="#h"/>
<use x="346.17305" y="201.415" xlink:href="#c"/>
<use x="351.17705" y="201.415" xlink:href="#f"/>
<use x="356.18105" y="201.415" xlink:href="#glyph-0-12"/>
<use x="358.68305" y="201.415" xlink:href="#aa"/>
<use x="322.17005" y="237.415" xlink:href="#g"/>
<use x="328.66805" y="237.415" xlink:href="#e"/>
<use x="333.67205" y="237.415" xlink:href="#d"/>
<use x="338.67605" y="237.415" xlink:href="#h"/>
<use x="346.17305" y="237.415" xlink:href="#c"/>
<use x="351.17705" y="237.415" xlink:href="#f"/>
<use x="356.18105" y="237.415" xlink:href="#glyph-0-12"/>
<use x="358.68305" y="237.415" xlink:href="#z"/>
<use x="322.17005" y="273.415" xlink:href="#g"/>
<use x="328.66805" y="273.415" xlink:href="#e"/>
<use x="333.67205" y="273.415" xlink:href="#d"/>
<use x="338.67605" y="273.415" xlink:href="#h"/>
<use x="346.17305" y="273.415" xlink:href="#c"/>
<use x="351.17705" y="273.415" xlink:href="#f"/>
<use x="356.18105" y="273.415" xlink:href="#glyph-0-12"/>
<use x="358.68305" y="273.415" xlink:href="#y"/>
<use x="11.42205" y="67.315" xlink:href="#b"/>
<use x="16.42605" y="67.315" xlink:href="#b"/>
<use x="21.43005" y="67.315" xlink:href="#a"/>
<use x="37.41423" y="67.315" xlink:href="#a"/>
<use x="42.41823" y="67.315" xlink:href="#a"/>
<use x="47.42223" y="67.315" xlink:href="#a"/>
<use x="52.42623" y="67.315" xlink:href="#a"/>
<use x="57.43023" y="67.315" xlink:href="#a"/>
<use x="62.43423" y="67.315" xlink:href="#a"/>
<use x="67.43823" y="67.315" xlink:href="#b"/>
<use x="73.91425" y="121.765" xlink:href="#r"/>
<use x="79.91725" y="121.765" xlink:href="#c"/>
<use x="84.92125" y="121.765" xlink:href="#l"/>
<use x="86.91925" y="121.765" xlink:href="#q"/>
<use x="89.42125" y="121.765" xlink:href="#c"/>
<use x="94.42525" y="121.765" xlink:href="#f"/>
<use x="99.42925" y="121.765" xlink:href="#q"/>
<use x="101.93125" y="121.765" xlink:href="#e"/>
<use x="106.93525" y="121.765" xlink:href="#x"/>
<use x="111.93925" y="121.765" xlink:href="#c"/>
<use x="116.94325" y="121.765" xlink:href="#k"/>
<use x="118.94125" y="121.765" xlink:href="#k"/>
<use x="120.93925" y="121.765" xlink:href="#c"/>
<use x="44.41625" y="139.315" xlink:href="#b"/>
<use x="49.42025" y="139.315" xlink:href="#b"/>
<use x="54.42425" y="139.315" xlink:href="#b"/>
<use x="44.41625" y="157.765" xlink:href="#b"/>
<use x="49.42025" y="157.765" xlink:href="#b"/>
<use x="54.42425" y="157.765" xlink:href="#a"/>
<use x="44.41625" y="175.765" xlink:href="#b"/>
<use x="49.42025" y="175.765" xlink:href="#a"/>
<use x="54.42425" y="175.765" xlink:href="#b"/>
<use x="44.41625" y="193.315" xlink:href="#b"/>
<use x="49.42025" y="193.315" xlink:href="#a"/>
<use x="54.42425" y="193.315" xlink:href="#a"/>
<use x="44.41625" y="212.665" xlink:href="#a"/>
<use x="49.42025" y="212.665" xlink:href="#b"/>
<use x="54.42425" y="212.665" xlink:href="#b"/>
<use x="44.41625" y="230.665" xlink:href="#a"/>
<use x="49.42025" y="230.665" xlink:href="#b"/>
<use x="54.42425" y="230.665" xlink:href="#a"/>
<use x="44.41625" y="248.665" xlink:href="#a"/>
<use x="49.42025" y="248.665" xlink:href="#a"/>
<use x="54.42425" y="248.665" xlink:href="#b"/>
<use x="44.41625" y="266.665" xlink:href="#a"/>
<use x="49.42025" y="266.665" xlink:href="#a"/>
<use x="54.42425" y="266.665" xlink:href="#a"/>
<use x="92.42215" y="193.615" xlink:href="#b"/>
<use x="97.42615" y="193.615" xlink:href="#b"/>
<use x="102.43015" y="193.615" xlink:href="#b"/>
<use x="92.42215" y="157.615" xlink:href="#b"/>
<use x="97.42615" y="157.615" xlink:href="#a"/>
<use x="102.43015" y="157.615" xlink:href="#a"/>
<use x="92.42215" y="175.615" xlink:href="#a"/>
<use x="97.42615" y="175.615" xlink:href="#b"/>
<use x="102.43015" y="175.615" xlink:href="#b"/>
<use x="92.42215" y="211.615" xlink:href="#b"/>
<use x="97.42615" y="211.615" xlink:href="#a"/>
<use x="102.43015" y="211.615" xlink:href="#b"/>
<use x="92.42215" y="139.615" xlink:href="#a"/>
<use x="97.42615" y="139.615" xlink:href="#a"/>
<use x="102.43015" y="139.615" xlink:href="#a"/>
<use x="92.42215" y="230.665" xlink:href="#b"/>
<use x="97.42615" y="230.665" xlink:href="#b"/>
<use x="102.43015" y="230.665" xlink:href="#a"/>
<use x="92.42215" y="246.415" xlink:href="#a"/>
<use x="97.42615" y="246.415" xlink:href="#a"/>
<use x="102.43015" y="246.415" xlink:href="#b"/>
<use x="92.42215" y="266.665" xlink:href="#a"/>
<use x="97.42615" y="266.665" xlink:href="#b"/>
<use x="102.43015" y="266.665" xlink:href="#a"/>
<use x="322.17015" y="165.415" xlink:href="#g"/>
<use x="328.66815" y="165.415" xlink:href="#e"/>
<use x="333.67215" y="165.415" xlink:href="#d"/>
<use x="338.67615" y="165.415" xlink:href="#h"/>
<use x="346.17315" y="165.415" xlink:href="#c"/>
<use x="351.17715" y="165.415" xlink:href="#f"/>
<use x="356.18115" y="165.415" xlink:href="#glyph-0-12"/>
<use x="358.68315" y="165.415" xlink:href="#w"/>
<use x="170.41715" y="167.665" xlink:href="#p"/>
<use x="175.42115" y="167.665" xlink:href="#d"/>
<use x="180.42515" y="167.665" xlink:href="#v"/>
<use x="184.92515" y="167.665" xlink:href="#i"/>
<use x="189.42515" y="167.665" xlink:href="#o"/>
<use x="191.92715" y="167.665" xlink:href="#glyph-0-12"/>
<use x="194.42915" y="167.665" xlink:href="#n"/>
<use x="200.43215" y="167.665" xlink:href="#m"/>
<use x="205.43615" y="167.665" xlink:href="#j"/>
<use x="208.43315" y="167.665" xlink:href="#c"/>
<use x="213.43715" y="167.665" xlink:href="#i"/>
<use x="217.93715" y="167.665" xlink:href="#i"/>
<use x="222.43715" y="167.665" xlink:href="#c"/>
</g>
<path transform="matrix(.1 0 0 -.1 .528 310.46)" d="m1624 1563h720v180h-720z" fill="none" stroke="#000" stroke-miterlimit="10" stroke-width="2.25"/>
<g>
<use x="252.389" y="113.665" xlink:href="#b"/>
<use x="257.393" y="113.665" xlink:href="#a"/>
<use x="262.397" y="113.665" xlink:href="#a"/>
<use x="267.401" y="113.665" xlink:href="#a"/>
<use x="272.405" y="113.665" xlink:href="#a"/>
<use x="277.409" y="113.665" xlink:href="#a"/>
<use x="282.413" y="113.665" xlink:href="#a"/>
<use x="287.417" y="113.665" xlink:href="#a"/>
<use x="292.421" y="113.665" xlink:href="#a"/>
<use x="297.425" y="113.665" xlink:href="#b"/>
</g>
<path transform="matrix(.1 0 0 -.1 .528 310.46)" d="m1894 1743v-180" fill="none" stroke="#000" stroke-miterlimit="10" stroke-width="2.25"/>
<g>
<use x="168.922" y="148.315" xlink:href="#b"/>
<use x="173.926" y="148.315" xlink:href="#a"/>
<use x="178.93" y="148.315" xlink:href="#a"/>
<use x="194.91418" y="148.315" xlink:href="#a"/>
<use x="199.91818" y="148.315" xlink:href="#a"/>
<use x="204.92218" y="148.315" xlink:href="#a"/>
<use x="209.92618" y="148.315" xlink:href="#a"/>
<use x="214.93018" y="148.315" xlink:href="#a"/>
<use x="219.93418" y="148.315" xlink:href="#a"/>
<use x="224.93818" y="148.315" xlink:href="#b"/>
</g>
<g clip-path="url(#ak)">
<g clip-path="url(#aj)">
<path transform="matrix(.1 0 0 -.1 .528 310.46)" d="m184.02 2373v-810h180" fill="none" stroke="#000" stroke-miterlimit="10" stroke-width="2.25"/>
</g>
</g>
<path transform="matrix(.1 0 0 -.1 .528 310.46)" d="m323.2 1554 36.016 9.0234-36.016 8.9844z" fill-rule="evenodd" stroke="#000" stroke-miterlimit="10" stroke-width="2.25"/>
<g clip-path="url(#ai)">
<g clip-path="url(#ah)">
<path transform="matrix(.1 0 0 -.1 .528 310.46)" d="m544.02 2373v-90h1575v-540" fill="none" stroke="#000" stroke-miterlimit="10" stroke-width="2.25"/>
</g>
</g>
<path transform="matrix(.1 0 0 -.1 .528 310.46)" d="m2110 1783.8 9.0234-35.977 8.9844 35.977z" fill-rule="evenodd" stroke="#000" stroke-miterlimit="10" stroke-width="2.25"/>
<path transform="matrix(.1 0 0 -.1 .528 310.46)" d="m3064 213.01h720v2880h-720z" fill="none" stroke="#000" stroke-miterlimit="10" stroke-width="9"/>
<g clip-path="url(#ag)">
<path transform="matrix(.1 0 0 -.1 .528 310.46)" d="m4.0169 2373h720v180h-720z" fill="none" stroke="#000" stroke-miterlimit="10" stroke-width="2.25"/>
</g>
<path transform="matrix(.1 0 0 -.1 .528 310.46)" d="m364.02 2553v-180" fill="none" stroke="#000" stroke-miterlimit="10" stroke-width="2.25"/>
<path transform="matrix(.1 0 0 -.1 .528 310.46)" d="m634.02 1653h720v180h-720z" fill="none" stroke="#000" stroke-miterlimit="10" stroke-width="2.25"/>
<path transform="matrix(.1 0 0 -.1 .528 310.46)" d="m634.02 1473h720v180h-720z" fill="none" stroke="#000" stroke-miterlimit="10" stroke-width="2.25"/>
<path transform="matrix(.1 0 0 -.1 .528 310.46)" d="m634.02 1293h720v180h-720z" fill="none" stroke="#000" stroke-miterlimit="10" stroke-width="2.25"/>
<path transform="matrix(.1 0 0 -.1 .528 310.46)" d="m634.02 1113h720v180h-720z" fill="none" stroke="#000" stroke-miterlimit="10" stroke-width="2.25"/>
<path transform="matrix(.1 0 0 -.1 .528 310.46)" d="m634.02 933.01h720v180h-720z" fill="none" stroke="#000" stroke-miterlimit="10" stroke-width="2.25"/>
<path transform="matrix(.1 0 0 -.1 .528 310.46)" d="m3064 1923h720v45h-720z" fill="#bfbfbf" fill-rule="evenodd" stroke="#000" stroke-miterlimit="10" stroke-width="2.25"/>
<g clip-path="url(#af)">
<g clip-path="url(#ae)">
<path transform="matrix(.1 0 0 -.1 .528 310.46)" d="m1354 1563h135v315h270v-135" fill="none" stroke="#000" stroke-miterlimit="10" stroke-width="2.25"/>
</g>
</g>
<path transform="matrix(.1 0 0 -.1 .528 310.46)" d="m1750 1783.8 9.0234-35.977 8.9844 35.977z" fill-rule="evenodd" stroke="#000" stroke-miterlimit="10" stroke-width="2.25"/>
<g clip-path="url(#ad)">
<g clip-path="url(#ac)">
<path transform="matrix(.1 0 0 -.1 .528 310.46)" d="m2344 1653h180v292.5h540" fill="none" stroke="#000" stroke-miterlimit="10" stroke-width="2.25"/>
</g>
</g>
<path transform="matrix(.1 0 0 -.1 .528 310.46)" d="m3023.2 1936.5 36.016 9.0234-36.016 8.9844z" fill-rule="evenodd" stroke="#000" stroke-miterlimit="10" stroke-width="2.25"/>
<g>
<use x="11.9178" y="49.315" xlink:href="#k"/>
<use x="13.9158" y="49.315" xlink:href="#u"/>
<use x="18.9198" y="49.315" xlink:href="#t"/>
<use x="23.9238" y="49.315" xlink:href="#o"/>
<use x="26.4258" y="49.315" xlink:href="#glyph-0-12"/>
<use x="28.9278" y="49.315" xlink:href="#n"/>
<use x="34.9308" y="49.315" xlink:href="#m"/>
<use x="39.9348" y="49.315" xlink:href="#j"/>
<use x="42.9318" y="49.315" xlink:href="#c"/>
<use x="47.9358" y="49.315" xlink:href="#i"/>
<use x="52.4358" y="49.315" xlink:href="#i"/>
<use x="56.9358" y="49.315" xlink:href="#c"/>
</g>
</svg>
