<svg width="312pt" height="190pt" version="1.1" viewBox="0 0 312 190" xmlns="http://www.w3.org/2000/svg" xmlns:xlink="http://www.w3.org/1999/xlink">
<defs>
<g id="h">
<path d="m0.625-4.7188v4.7188h0.76562v-2.5938c0-0.96875 0.5-1.5938 1.2656-1.5938 0.60938 0 0.98438 0.35938 0.98438 0.92188v3.2656h0.75v-3.5625c0-0.78125-0.59375-1.2812-1.5-1.2812-0.70312 0-1.1562 0.26562-1.5625 0.92188v-0.79688z"/>
</g>
<g id="ae">
<path d="m4.3438 0v-4.7188h-0.75v2.6719c0 0.96875-0.5 1.5938-1.2969 1.5938-0.59375 0-0.96875-0.35938-0.96875-0.92188v-3.3438h-0.75v3.6406c0 0.78125 0.59375 1.2812 1.5156 1.2812 0.6875 0 1.125-0.23438 1.5625-0.85938v0.65625z"/>
</g>
<g id="i">
<path d="m0.625-4.7188v4.7188h0.76562v-2.9688c0-0.67188 0.48438-1.2188 1.1094-1.2188 0.54688 0 0.85938 0.32812 0.85938 0.9375v3.25h0.76562v-2.9688c0-0.67188 0.48438-1.2188 1.1094-1.2188 0.54688 0 0.875 0.34375 0.875 0.9375v3.25h0.75v-3.5312c0-0.85938-0.48438-1.3125-1.375-1.3125-0.625 0-1 0.1875-1.4375 0.71875-0.28125-0.51562-0.65625-0.71875-1.2812-0.71875s-1.0312 0.23438-1.4375 0.79688v-0.67188z"/>
</g>
<g id="a">
<path d="m4.6094-2.1094c0-0.71875-0.046875-1.1562-0.1875-1.5-0.29688-0.78125-1.0156-1.2344-1.9062-1.2344-1.3125 0-2.1562 1-2.1562 2.5469s0.8125 2.5 2.1406 2.5c1.0781 0 1.8281-0.60938 2.0156-1.6406h-0.75c-0.20312 0.625-0.64062 0.95312-1.2344 0.95312-0.48438 0-0.89062-0.21875-1.1406-0.60938-0.17188-0.28125-0.23438-0.54688-0.25-1.0156zm-3.4531-0.60938c0.0625-0.875 0.59375-1.4375 1.3594-1.4375 0.73438 0 1.2969 0.60938 1.2969 1.3906v0.046875z"/>
</g>
<g id="e">
<path d="m0.625-4.7188v4.7188h0.75v-2.4531c0-0.67188 0.17188-1.1094 0.53125-1.375 0.23438-0.17188 0.45312-0.21875 0.98438-0.23438v-0.76562c-0.125-0.015625-0.1875-0.015625-0.29688-0.015625-0.48438 0-0.84375 0.28125-1.2812 0.98438v-0.85938z"/>
</g>
<g id="c">
<path d="m5.3594-4.6406c0-1.2812-0.89062-2.0312-2.3906-2.0312-1.4531 0-2.3438 0.73438-2.3438 1.9219 0 0.8125 0.42188 1.3125 1.2969 1.5312l1.625 0.4375c0.82812 0.21875 1.2031 0.54688 1.2031 1.0625 0 0.34375-0.1875 0.70312-0.46875 0.90625-0.26562 0.1875-0.67188 0.28125-1.2031 0.28125-0.71875 0-1.2031-0.17188-1.5156-0.54688-0.23438-0.29688-0.34375-0.60938-0.34375-1.0156h-0.78125c0 0.60938 0.125 1 0.375 1.3594 0.45312 0.625 1.2188 0.9375 2.2188 0.9375 0.78125 0 1.4219-0.17188 1.8438-0.5 0.4375-0.34375 0.71875-0.9375 0.71875-1.5 0-0.8125-0.51562-1.4062-1.4062-1.6562l-1.6406-0.4375c-0.79688-0.21875-1.0781-0.46875-1.0781-0.96875 0-0.67188 0.57812-1.1094 1.4688-1.1094 1.0469 0 1.625 0.48438 1.6406 1.3281z"/>
</g>
<g id="b">
<path d="m1.3438-4.7188h-0.73438v4.7188h0.73438zm0-1.8438h-0.75v0.95312h0.75z"/>
</g>
<g id="d">
<path d="m2.2812-4.7188h-0.76562v-1.2969h-0.75v1.2969h-0.64062v0.60938h0.64062v3.5625c0 0.48438 0.32812 0.75 0.90625 0.75 0.1875 0 0.35938-0.015625 0.60938-0.0625v-0.625c-0.09375 0.03125-0.21875 0.03125-0.35938 0.03125-0.3125 0-0.40625-0.09375-0.40625-0.42188v-3.2344h0.76562z"/>
</g>
<g id="p">
<path d="m2.4688-6.375c-0.59375 0-1.125 0.25-1.4531 0.70312-0.42188 0.54688-0.625 1.4062-0.625 2.5781 0 2.1562 0.71875 3.2969 2.0781 3.2969s2.0938-1.1406 2.0938-3.2344c0-1.25-0.20312-2.0781-0.625-2.6406-0.32812-0.45312-0.85938-0.70312-1.4688-0.70312zm0 0.70312c0.85938 0 1.2812 0.85938 1.2812 2.5625 0 1.8125-0.40625 2.6562-1.2969 2.6562-0.82812 0-1.25-0.875-1.25-2.625s0.42188-2.5938 1.2656-2.5938z"/>
</g>
<g id="w">
<path d="m2.3281-4.5469v4.5469h0.79688v-6.375h-0.53125c-0.26562 0.96875-0.45312 1.1094-1.6719 1.2656v0.5625z"/>
</g>
<g id="o">
<path d="m4.5469-0.78125h-3.3438c0.078125-0.53125 0.35938-0.85938 1.1406-1.3125l0.90625-0.48438c0.89062-0.48438 1.3438-1.1406 1.3438-1.9375 0-0.53125-0.20312-1.0156-0.59375-1.3594-0.375-0.34375-0.84375-0.5-1.4375-0.5-0.8125 0-1.4219 0.28125-1.7656 0.82812-0.23438 0.32812-0.32812 0.73438-0.34375 1.375h0.78125c0.03125-0.42188 0.09375-0.6875 0.20312-0.89062 0.20312-0.39062 0.60938-0.625 1.0938-0.625 0.71875 0 1.25 0.51562 1.25 1.2031 0 0.5-0.29688 0.92188-0.85938 1.25l-0.82812 0.46875c-1.3281 0.76562-1.7188 1.3594-1.7812 2.7656h4.2344z"/>
</g>
<g id="n">
<path d="m1.9844-2.9219h0.10938l0.32812-0.015625c0.875 0 1.3281 0.40625 1.3281 1.1719 0 0.79688-0.5 1.2656-1.3281 1.2656-0.85938 0-1.2812-0.42188-1.3438-1.3594h-0.79688c0.046875 0.51562 0.125 0.84375 0.28125 1.1406 0.32812 0.60938 0.95312 0.92188 1.8281 0.92188 1.3125 0 2.1562-0.78125 2.1562-1.9844 0-0.8125-0.3125-1.2656-1.0781-1.5156 0.59375-0.23438 0.89062-0.6875 0.89062-1.3281 0-1.0938-0.71875-1.75-1.9375-1.75-1.2812 0-1.9688 0.70312-2 2.0625h0.79688c0-0.39062 0.046875-0.60938 0.14062-0.8125 0.17188-0.34375 0.57812-0.5625 1.0781-0.5625 0.6875 0 1.125 0.40625 1.125 1.0938 0 0.4375-0.17188 0.71875-0.51562 0.85938-0.21875 0.09375-0.5 0.125-1.0625 0.14062z"/>
</g>
<g id="m">
<path d="m2.9375-1.5312v1.5312h0.79688v-1.5312h0.95312v-0.70312h-0.95312v-4.1406h-0.57812l-2.9062 4.0156v0.82812zm0-0.70312h-2l2-2.7969z"/>
</g>
<g id="l">
<path d="m1.375-6.5625h-0.76562v6.5625h0.76562z"/>
</g>
<g id="ag">
<path d="m2.4531-4.8438c-1.3281 0-2.125 0.9375-2.125 2.5156 0 1.5938 0.78125 2.5312 2.125 2.5312 1.3281 0 2.1406-0.9375 2.1406-2.4844 0-1.6406-0.78125-2.5625-2.1406-2.5625zm0 0.6875c0.84375 0 1.3594 0.6875 1.3594 1.8594 0 1.1094-0.53125 1.8125-1.3594 1.8125s-1.3438-0.6875-1.3438-1.8438c0-1.125 0.51562-1.8281 1.3438-1.8281z"/>
</g>
<g id="af">
<path d="m3.7031-4.7188v0.6875c-0.375-0.5625-0.82812-0.8125-1.4375-0.8125-1.1875 0-2 1.0312-2 2.5625 0 0.78125 0.20312 1.4062 0.59375 1.8594 0.34375 0.39062 0.84375 0.625 1.3438 0.625 0.59375 0 1.0156-0.25 1.4375-0.84375v0.25c0 0.64062-0.078125 1.0156-0.28125 1.2812-0.1875 0.28125-0.57812 0.4375-1.0312 0.4375-0.34375 0-0.65625-0.09375-0.85938-0.25-0.17188-0.14062-0.25-0.26562-0.29688-0.53125h-0.76562c0.09375 0.89062 0.78125 1.4219 1.8906 1.4219 0.70312 0 1.2969-0.23438 1.6094-0.60938 0.35938-0.4375 0.5-1.0312 0.5-2.1406v-3.9375zm-1.3594 0.5625c0.8125 0 1.2969 0.6875 1.2969 1.8594 0 1.125-0.48438 1.8125-1.2812 1.8125-0.82812 0-1.3125-0.6875-1.3125-1.8438 0-1.125 0.5-1.8281 1.2969-1.8281z"/>
</g>
<g id="k">
<path d="m3.9375-3.4062c0-0.92188-0.60938-1.4375-1.7031-1.4375s-1.8125 0.5625-1.8125 1.4375c0 0.73438 0.375 1.0781 1.5 1.3594l0.70312 0.17188c0.51562 0.125 0.71875 0.3125 0.71875 0.65625 0 0.4375-0.4375 0.73438-1.0938 0.73438-0.40625 0-0.75-0.125-0.9375-0.3125-0.10938-0.14062-0.17188-0.28125-0.21875-0.60938h-0.78125c0.03125 1.0938 0.64062 1.6094 1.875 1.6094 1.1875 0 1.9375-0.57812 1.9375-1.4844 0-0.70312-0.39062-1.0938-1.3281-1.3125l-0.71875-0.17188c-0.60938-0.15625-0.875-0.34375-0.875-0.6875 0-0.42188 0.39062-0.70312 1-0.70312s0.92188 0.26562 0.95312 0.75z"/>
</g>
<g id="g">
<path d="m4.2344-3.125c-0.03125-0.46875-0.125-0.76562-0.3125-1.0312-0.32812-0.4375-0.89062-0.6875-1.5469-0.6875-1.2656 0-2.0938 1-2.0938 2.5625 0 1.5312 0.8125 2.4844 2.0781 2.4844 1.125 0 1.8438-0.67188 1.9375-1.8281h-0.76562c-0.125 0.76562-0.5 1.1406-1.1406 1.1406-0.82812 0-1.3281-0.67188-1.3281-1.7969 0-1.1719 0.48438-1.875 1.2969-1.875 0.64062 0 1.0312 0.375 1.125 1.0312z"/>
</g>
<g id="f">
<path d="m0.625-6.5625v6.5625h0.75v-2.5938c0-0.96875 0.5-1.5938 1.2812-1.5938 0.23438 0 0.48438 0.078125 0.67188 0.20312 0.20312 0.15625 0.29688 0.39062 0.29688 0.71875v3.2656h0.75v-3.5625c0-0.79688-0.5625-1.2812-1.4844-1.2812-0.67188 0-1.0781 0.20312-1.5156 0.78125v-2.5z"/>
</g>
<g id="j">
<path d="m0.48438 1.9688h0.75v-2.4688c0.40625 0.48438 0.84375 0.70312 1.4531 0.70312 1.2188 0 2.0156-0.98438 2.0156-2.4844 0-1.5781-0.76562-2.5625-2.0156-2.5625-0.64062 0-1.1562 0.28125-1.5156 0.84375v-0.71875h-0.6875zm2.0781-6.125c0.82812 0 1.3594 0.73438 1.3594 1.8594 0 1.0781-0.54688 1.7969-1.3594 1.7969-0.79688 0-1.3281-0.71875-1.3281-1.8281 0-1.0938 0.53125-1.8281 1.3281-1.8281z"/>
</g>
<g id="ad">
<path d="m3.4844-4.7188-1.2969 3.6719-1.2031-3.6719h-0.79688l1.5781 4.7344-0.28125 0.75c-0.10938 0.32812-0.28125 0.45312-0.60938 0.45312-0.09375 0-0.23438-0.015625-0.39062-0.046875v0.67188c0.15625 0.078125 0.3125 0.125 0.5 0.125 0.25 0 0.51562-0.09375 0.70312-0.23438 0.23438-0.17188 0.375-0.35938 0.51562-0.75l2.0938-5.7031z"/>
</g>
<g id="ac">
<path d="m4.6875-6.375h-4.2812v0.78125h3.4531c-1.5156 2.1719-2.1406 3.5-2.625 5.5938h0.85938c0.34375-2.0469 1.1406-3.7969 2.5938-5.7188z"/>
</g>
<g id="v">
<path d="m4.8125-0.4375c-0.078125 0.015625-0.10938 0.015625-0.15625 0.015625-0.26562 0-0.40625-0.14062-0.40625-0.375v-2.7656c0-0.84375-0.60938-1.2812-1.7812-1.2812-0.67188 0-1.25 0.1875-1.5625 0.54688-0.21875 0.23438-0.29688 0.51562-0.32812 0.96875h0.76562c0.0625-0.5625 0.40625-0.82812 1.1094-0.82812 0.67188 0 1.0469 0.25 1.0469 0.70312v0.1875c0 0.32812-0.1875 0.45312-0.78125 0.53125-1.0625 0.14062-1.2188 0.17188-1.5156 0.28125-0.54688 0.23438-0.82812 0.65625-0.82812 1.2656 0 0.85938 0.59375 1.3906 1.5469 1.3906 0.59375 0 1.0781-0.20312 1.6094-0.6875 0.046875 0.46875 0.28125 0.6875 0.76562 0.6875 0.15625 0 0.28125-0.015625 0.51562-0.078125zm-1.3125-1.0469c0 0.25-0.078125 0.40625-0.29688 0.60938-0.3125 0.28125-0.67188 0.42188-1.1094 0.42188-0.59375 0-0.9375-0.28125-0.9375-0.75 0-0.5 0.34375-0.75 1.1406-0.85938s0.95312-0.15625 1.2031-0.26562z"/>
</g>
<g id="ab">
<path d="m0.48438-6.5625v6.5625h0.67188v-0.60938c0.35938 0.5625 0.84375 0.8125 1.5 0.8125 1.2344 0 2.0469-1.0156 2.0469-2.5781 0-1.5312-0.76562-2.4688-2.0156-2.4688-0.64062 0-1.1094 0.23438-1.4531 0.76562v-2.4844zm2.0625 2.4062c0.84375 0 1.375 0.73438 1.375 1.8594 0 1.0781-0.5625 1.7969-1.375 1.7969-0.79688 0-1.3125-0.71875-1.3125-1.8281 0-1.0938 0.51562-1.8281 1.3125-1.8281z"/>
</g>
<g id="aa">
<path d="m4.8906-2.4062h-4.5312v0.64062h4.5312z"/>
</g>
<g id="u">
<path d="m4.3906-3.1562c0-1.4375-0.6875-2.4062-1.6875-2.4062s-1.6875 0.96875-1.6875 2.4062v0.89062c0 1.4219 0.6875 2.4062 1.6875 2.4062s1.6875-0.98438 1.6875-2.4062zm-3 0.046875c0-0.57812 0.15625-1.1875 0.42188-1.6094 0.20312-0.29688 0.51562-0.46875 0.89062-0.46875s0.6875 0.17188 0.875 0.46875c0.28125 0.42188 0.4375 1.0312 0.4375 1.6094v0.79688c0 0.57812-0.15625 1.1875-0.4375 1.5938-0.1875 0.3125-0.5 0.48438-0.875 0.48438s-0.6875-0.17188-0.89062-0.48438c-0.26562-0.40625-0.42188-1.0156-0.42188-1.5938z"/>
</g>
<g id="t">
<path d="m2.8906-5.5156-1.6719 0.53125c-0.14062 0.046875-0.1875 0.09375-0.1875 0.20312 0 0.078125 0.09375 0.17188 0.17188 0.17188 0.015625 0 0.09375-0.015625 0.125-0.03125l1.1875-0.375v4.6406h-1.25c-0.17188 0-0.25 0.0625-0.25 0.1875s0.09375 0.1875 0.25 0.1875h2.875c0.15625 0 0.25-0.0625 0.25-0.1875s-0.09375-0.1875-0.25-0.1875h-1.25z"/>
</g>
<g id="s">
<path d="m1.1094-0.375v-0.015625c0.51562-0.4375 1.0781-0.96875 1.8594-1.75 1.125-1.0781 1.2969-1.3438 1.2969-1.875 0-0.8125-0.78125-1.5469-1.6562-1.5469-0.54688 0-1.0469 0.25-1.3906 0.6875-0.17188 0.21875-0.28125 0.48438-0.28125 0.64062 0 0.078125 0.078125 0.17188 0.17188 0.17188s0.15625-0.0625 0.1875-0.1875c0.14062-0.53125 0.70312-0.9375 1.3125-0.9375 0.6875 0 1.2812 0.54688 1.2812 1.1719 0 0.39062-0.17188 0.65625-1.0156 1.4844-0.67188 0.65625-1.3906 1.3281-2.125 1.9844v0.54688h3.5469v-0.6875c0-0.17188-0.0625-0.25-0.17188-0.25-0.125 0-0.1875 0.078125-0.1875 0.25v0.3125z"/>
</g>
<g id="r">
<path d="m3.3594-2.9531c0.03125-0.015625 0.046875-0.015625 0.046875-0.015625 0.54688-0.21875 0.89062-0.6875 0.89062-1.2031 0-0.78125-0.6875-1.3906-1.5938-1.3906-0.46875 0-0.90625 0.14062-1.2656 0.42188-0.1875 0.14062-0.3125 0.29688-0.3125 0.39062s0.078125 0.17188 0.1875 0.17188c0.0625 0 0.09375-0.015625 0.1875-0.125 0.25-0.3125 0.70312-0.48438 1.2031-0.48438 0.6875 0 1.2188 0.4375 1.2188 1.0156 0 0.39062-0.25 0.73438-0.625 0.89062-0.1875 0.09375-0.32812 0.10938-0.78125 0.10938-0.15625 0-0.25 0.0625-0.25 0.17188 0 0.125 0.078125 0.1875 0.25 0.1875 0.875 0 1.6094 0.59375 1.6094 1.2969s-0.6875 1.2812-1.5 1.2812c-0.51562 0-1.0156-0.17188-1.4375-0.5-0.0625-0.046875-0.09375-0.0625-0.15625-0.0625-0.09375 0-0.17188 0.078125-0.17188 0.17188 0 0.125 0.125 0.23438 0.42188 0.39062 0.46875 0.25 0.89062 0.375 1.3281 0.375 1.0312 0 1.875-0.75 1.875-1.6562 0-0.60938-0.42188-1.1406-1.125-1.4375z"/>
</g>
<g id="q">
<path d="m3.3906-1.5156v1.1406h-0.6875c-0.17188 0-0.25 0.0625-0.25 0.1875s0.078125 0.1875 0.25 0.1875h1.3594c0.15625 0 0.23438-0.0625 0.23438-0.1875s-0.078125-0.1875-0.23438-0.1875h-0.3125v-1.1406h0.3125c0.15625 0 0.23438-0.0625 0.23438-0.1875s-0.078125-0.1875-0.23438-0.1875h-0.3125v-3.5469h-0.75l-2.0625 3.5v0.42188zm0-0.375h-2.0938l1.875-3.1719h0.21875z"/>
</g>
<g id="z">
<path d="m1.7031-5.0625h2.1719c0.17188 0 0.25-0.0625 0.25-0.1875s-0.078125-0.1875-0.25-0.1875h-2.5312v2.4219c0 0.125 0.0625 0.20312 0.17188 0.20312 0.046875 0 0.09375-0.015625 0.1875-0.078125 0.39062-0.20312 0.78125-0.29688 1.1406-0.29688 0.75 0 1.2812 0.5625 1.2812 1.3594 0 0.95312-0.60938 1.5938-1.4844 1.5938-0.53125 0-1.0156-0.20312-1.4375-0.60938-0.0625-0.0625-0.10938-0.078125-0.15625-0.078125-0.10938 0-0.1875 0.078125-0.1875 0.1875s0.125 0.23438 0.42188 0.42188c0.45312 0.29688 0.89062 0.45312 1.375 0.45312 1.0625 0 1.8281-0.8125 1.8281-1.9531 0-1-0.67188-1.75-1.5938-1.75-0.39062 0-0.71875 0.09375-1.1875 0.28125z"/>
</g>
<g id="y">
<path d="m1.5938-2.1719c-0.015625-0.17188-0.015625-0.3125-0.015625-0.39062 0-0.57812 0.15625-1.1406 0.40625-1.5312 0.4375-0.67188 1.1406-1.0938 1.8281-1.0938 0.17188 0 0.34375 0.015625 0.42188 0.0625s0.10938 0.0625 0.15625 0.0625c0.09375 0 0.17188-0.078125 0.17188-0.1875 0-0.17188-0.32812-0.3125-0.70312-0.3125-0.59375 0-1.1719 0.21875-1.6562 0.64062-0.67188 0.5625-0.98438 1.3438-0.98438 2.3906 0 1.5625 0.75 2.6719 1.8125 2.6719 0.875 0 1.5625-0.76562 1.5625-1.75 0-0.90625-0.6875-1.6719-1.5-1.6719-0.64062 0-1.125 0.35938-1.5 1.1094zm0.046875 0.48438c0.21875-0.40625 0.32812-0.5625 0.45312-0.70312 0.29688-0.32812 0.65625-0.51562 0.98438-0.51562 0.625 0 1.1406 0.59375 1.1406 1.2969 0 0.78125-0.51562 1.375-1.1719 1.375-0.60938 0-1.0781-0.40625-1.3125-1.1562-0.03125-0.078125-0.03125-0.09375-0.09375-0.29688z"/>
</g>
<g id="x">
<path d="m3.9375-4.9062-1.4375 4.625c-0.015625 0.03125-0.03125 0.078125-0.03125 0.10938 0 0.09375 0.09375 0.1875 0.1875 0.1875s0.14062-0.046875 0.17188-0.20312l1.4688-4.6562v-0.59375h-3.3594v0.6875c0 0.17188 0.078125 0.25 0.20312 0.25 0.10938 0 0.17188-0.078125 0.17188-0.25v-0.3125h2.625z"/>
</g>
</defs>
<g>
<use x="218.127" y="15.982" xlink:href="#h"/>
<use x="223.131" y="15.982" xlink:href="#ae"/>
<use x="228.135" y="15.982" xlink:href="#i"/>
<use x="235.632" y="15.982" xlink:href="#i"/>
<use x="243.129" y="15.982" xlink:href="#a"/>
<use x="248.133" y="15.982" xlink:href="#e"/>
<use x="22.62" y="38.0019" xlink:href="#c"/>
<use x="28.623" y="38.0019" xlink:href="#a"/>
<use x="33.627" y="38.0019" xlink:href="#b"/>
<use x="35.625" y="38.0019" xlink:href="#d"/>
<use x="38.127" y="38.0019" xlink:href="#a"/>
<use x="43.131" y="38.0019" xlink:href="#glyph-0-9"/>
<use x="45.633" y="38.0019" xlink:href="#p"/>
</g>
<path transform="matrix(.1 0 0 -.1 -1.472 190.55)" d="m111.01 1290h540v180h-540z" fill="none" stroke="#000" stroke-miterlimit="10" stroke-width="2.25"/>
<g>
<use x="22.6198" y="56.002" xlink:href="#c"/>
<use x="28.6228" y="56.002" xlink:href="#a"/>
<use x="33.6268" y="56.002" xlink:href="#b"/>
<use x="35.6248" y="56.002" xlink:href="#d"/>
<use x="38.1268" y="56.002" xlink:href="#a"/>
<use x="43.1308" y="56.002" xlink:href="#glyph-0-9"/>
<use x="45.6328" y="56.002" xlink:href="#w"/>
</g>
<path transform="matrix(.1 0 0 -.1 -1.472 190.55)" d="m111.01 1110h540v180h-540z" fill="none" stroke="#000" stroke-miterlimit="10" stroke-width="2.25"/>
<g>
<use x="22.6198" y="74.002" xlink:href="#c"/>
<use x="28.6228" y="74.002" xlink:href="#a"/>
<use x="33.6268" y="74.002" xlink:href="#b"/>
<use x="35.6248" y="74.002" xlink:href="#d"/>
<use x="38.1268" y="74.002" xlink:href="#a"/>
<use x="43.1308" y="74.002" xlink:href="#glyph-0-9"/>
<use x="45.6328" y="74.002" xlink:href="#o"/>
</g>
<path transform="matrix(.1 0 0 -.1 -1.472 190.55)" d="m111.01 930.01h540v180h-540z" fill="none" stroke="#000" stroke-miterlimit="10" stroke-width="2.25"/>
<g>
<use x="22.6198" y="92.002" xlink:href="#c"/>
<use x="28.6228" y="92.002" xlink:href="#a"/>
<use x="33.6268" y="92.002" xlink:href="#b"/>
<use x="35.6248" y="92.002" xlink:href="#d"/>
<use x="38.1268" y="92.002" xlink:href="#a"/>
<use x="43.1308" y="92.002" xlink:href="#glyph-0-9"/>
<use x="45.6328" y="92.002" xlink:href="#n"/>
</g>
<path transform="matrix(.1 0 0 -.1 -1.472 190.55)" d="m111.01 750.01h540v180h-540z" fill="none" stroke="#000" stroke-miterlimit="10" stroke-width="2.25"/>
<g>
<use x="22.6198" y="110.002" xlink:href="#c"/>
<use x="28.6228" y="110.002" xlink:href="#a"/>
<use x="33.6268" y="110.002" xlink:href="#b"/>
<use x="35.6248" y="110.002" xlink:href="#d"/>
<use x="38.1268" y="110.002" xlink:href="#a"/>
<use x="43.1308" y="110.002" xlink:href="#glyph-0-9"/>
<use x="45.6328" y="110.002" xlink:href="#m"/>
<use x="-0.3829" y="133.552" xlink:href="#l"/>
<use x="1.6151" y="133.552" xlink:href="#ag"/>
<use x="6.6191" y="133.552" xlink:href="#af"/>
<use x="11.6231" y="133.552" xlink:href="#b"/>
<use x="13.6211" y="133.552" xlink:href="#k"/>
<use x="18.1211" y="133.552" xlink:href="#g"/>
<use x="22.6211" y="133.552" xlink:href="#f"/>
<use x="27.6251" y="133.552" xlink:href="#a"/>
<use x="32.6291" y="133.552" xlink:href="#e"/>
<use x="35.6261" y="133.552" xlink:href="#glyph-0-9"/>
<use x="38.1281" y="133.552" xlink:href="#c"/>
<use x="44.1311" y="133.552" xlink:href="#j"/>
<use x="49.1351" y="133.552" xlink:href="#a"/>
<use x="54.1391" y="133.552" xlink:href="#b"/>
<use x="56.1371" y="133.552" xlink:href="#g"/>
<use x="60.6371" y="133.552" xlink:href="#f"/>
<use x="65.6411" y="133.552" xlink:href="#a"/>
<use x="70.6451" y="133.552" xlink:href="#e"/>
</g>
<path transform="matrix(.1 0 0 -.1 -1.472 190.55)" d="m2451 1470h540v180h-540z" fill="#e5e5e5" fill-rule="evenodd" stroke="#000" stroke-miterlimit="10" stroke-width="2.25"/>
<path transform="matrix(.1 0 0 -.1 -1.472 190.55)" d="m2451 1290h540v180h-540z" fill="none" stroke="#000" stroke-miterlimit="10" stroke-width="2.25"/>
<path transform="matrix(.1 0 0 -.1 -1.472 190.55)" d="m2451 1110h540v180h-540z" fill="#e5e5e5" fill-rule="evenodd" stroke="#000" stroke-miterlimit="10" stroke-width="2.25"/>
<path transform="matrix(.1 0 0 -.1 -1.472 190.55)" d="m2451 930.01h540v180h-540z" fill="#e5e5e5" fill-rule="evenodd" stroke="#000" stroke-miterlimit="10" stroke-width="2.25"/>
<path transform="matrix(.1 0 0 -.1 -1.472 190.55)" d="m2451 750.01h540v180h-540z" fill="#e5e5e5" fill-rule="evenodd" stroke="#000" stroke-miterlimit="10" stroke-width="2.25"/>
<path transform="matrix(.1 0 0 -.1 -1.472 190.55)" d="m2451 570.01h540v180h-540z" fill="none" stroke="#000" stroke-miterlimit="10" stroke-width="2.25"/>
<path transform="matrix(.1 0 0 -.1 -1.472 190.55)" d="m2451 390.01h540v180h-540z" fill="none" stroke="#000" stroke-miterlimit="10" stroke-width="2.25"/>
<path transform="matrix(.1 0 0 -.1 -1.472 190.55)" d="m2451 210.01h540v180h-540z" fill="#e5e5e5" fill-rule="evenodd" stroke="#000" stroke-miterlimit="10" stroke-width="2.25"/>
<g>
<use x="256.62" y="38.002" xlink:href="#c"/>
<use x="262.623" y="38.002" xlink:href="#a"/>
<use x="267.627" y="38.002" xlink:href="#b"/>
<use x="269.625" y="38.002" xlink:href="#d"/>
<use x="272.127" y="38.002" xlink:href="#a"/>
<use x="277.131" y="38.002" xlink:href="#glyph-0-9"/>
<use x="279.633" y="38.002" xlink:href="#w"/>
<use x="256.62" y="74.002" xlink:href="#c"/>
<use x="262.623" y="74.002" xlink:href="#a"/>
<use x="267.627" y="74.002" xlink:href="#b"/>
<use x="269.625" y="74.002" xlink:href="#d"/>
<use x="272.127" y="74.002" xlink:href="#a"/>
<use x="277.131" y="74.002" xlink:href="#glyph-0-9"/>
<use x="279.633" y="74.002" xlink:href="#m"/>
<use x="256.62" y="92.002" xlink:href="#c"/>
<use x="262.623" y="92.002" xlink:href="#a"/>
<use x="267.627" y="92.002" xlink:href="#b"/>
<use x="269.625" y="92.002" xlink:href="#d"/>
<use x="272.127" y="92.002" xlink:href="#a"/>
<use x="277.131" y="92.002" xlink:href="#glyph-0-9"/>
<use x="279.633" y="92.002" xlink:href="#n"/>
<use x="256.62" y="110.002" xlink:href="#c"/>
<use x="262.623" y="110.002" xlink:href="#a"/>
<use x="267.627" y="110.002" xlink:href="#b"/>
<use x="269.625" y="110.002" xlink:href="#d"/>
<use x="272.127" y="110.002" xlink:href="#a"/>
<use x="277.131" y="110.002" xlink:href="#glyph-0-9"/>
<use x="279.633" y="110.002" xlink:href="#o"/>
<use x="256.62" y="164.002" xlink:href="#c"/>
<use x="262.623" y="164.002" xlink:href="#a"/>
<use x="267.627" y="164.002" xlink:href="#b"/>
<use x="269.625" y="164.002" xlink:href="#d"/>
<use x="272.127" y="164.002" xlink:href="#a"/>
<use x="277.131" y="164.002" xlink:href="#glyph-0-9"/>
<use x="279.633" y="164.002" xlink:href="#p"/>
<use x="230.1165" y="187.552" xlink:href="#j"/>
<use x="235.1205" y="187.552" xlink:href="#f"/>
<use x="240.1245" y="187.552" xlink:href="#ad"/>
<use x="244.6245" y="187.552" xlink:href="#k"/>
<use x="249.1245" y="187.552" xlink:href="#b"/>
<use x="251.1225" y="187.552" xlink:href="#k"/>
<use x="255.6225" y="187.552" xlink:href="#g"/>
<use x="260.1225" y="187.552" xlink:href="#f"/>
<use x="265.1265" y="187.552" xlink:href="#a"/>
<use x="270.1305" y="187.552" xlink:href="#e"/>
<use x="273.1275" y="187.552" xlink:href="#glyph-0-9"/>
<use x="275.6295" y="187.552" xlink:href="#c"/>
<use x="281.6325" y="187.552" xlink:href="#j"/>
<use x="286.6365" y="187.552" xlink:href="#a"/>
<use x="291.6405" y="187.552" xlink:href="#b"/>
<use x="293.6385" y="187.552" xlink:href="#g"/>
<use x="298.1385" y="187.552" xlink:href="#f"/>
<use x="303.1425" y="187.552" xlink:href="#a"/>
<use x="308.1465" y="187.552" xlink:href="#e"/>
</g>
<path transform="matrix(.1 0 0 -.1 -1.472 190.55)" d="m1461 1261.5h270v135h-270z" fill="none" stroke="#000" stroke-miterlimit="10" stroke-width="2.25"/>
<path transform="matrix(.1 0 0 -.1 -1.472 190.55)" d="m1461 1126.5h270v135h-270z" fill="none" stroke="#000" stroke-miterlimit="10" stroke-width="2.25"/>
<path transform="matrix(.1 0 0 -.1 -1.472 190.55)" d="m1461 991.5h270v135h-270z" fill="none" stroke="#000" stroke-miterlimit="10" stroke-width="2.25"/>
<path transform="matrix(.1 0 0 -.1 -1.472 190.55)" d="m1461 856.5h270v135h-270z" fill="none" stroke="#000" stroke-miterlimit="10" stroke-width="2.25"/>
<path transform="matrix(.1 0 0 -.1 -1.472 190.55)" d="m1461 1396.2h270v135h-270z" fill="none" stroke="#000" stroke-miterlimit="10" stroke-width="2.25"/>
<g>
<use x="155.626" y="46.702" xlink:href="#ac"/>
<use x="155.626" y="60.352" xlink:href="#p"/>
<use x="155.626" y="73.852" xlink:href="#m"/>
<use x="155.626" y="87.352" xlink:href="#n"/>
<use x="155.626" y="100.852" xlink:href="#o"/>
<use x="133.0143" y="123.202" xlink:href="#c"/>
<use x="139.0173" y="123.202" xlink:href="#a"/>
<use x="144.0213" y="123.202" xlink:href="#b"/>
<use x="146.0193" y="123.202" xlink:href="#d"/>
<use x="148.5213" y="123.202" xlink:href="#a"/>
<use x="153.5253" y="123.202" xlink:href="#h"/>
<use x="158.5293" y="123.202" xlink:href="#d"/>
<use x="161.0313" y="123.202" xlink:href="#v"/>
<use x="166.0353" y="123.202" xlink:href="#ab"/>
<use x="171.0393" y="123.202" xlink:href="#a"/>
<use x="176.0433" y="123.202" xlink:href="#l"/>
<use x="178.0413" y="123.202" xlink:href="#l"/>
<use x="180.0393" y="123.202" xlink:href="#a"/>
<use x="133.077972" y="46.702" xlink:href="#u"/>
<use x="132.927972" y="60.052" xlink:href="#t"/>
<use x="132.777972" y="74.002" xlink:href="#s"/>
<use x="132.927972" y="87.052" xlink:href="#r"/>
<use x="132.927972" y="101.002" xlink:href="#q"/>
<use x="231.927972" y="37.9418" xlink:href="#u"/>
<use x="231.927972" y="55.582" xlink:href="#t"/>
<use x="231.927972" y="73.7019" xlink:href="#s"/>
<use x="231.80805" y="91.7019" xlink:href="#r"/>
<use x="231.80805" y="109.4917" xlink:href="#q"/>
<use x="231.80805" y="127.0417" xlink:href="#z"/>
<use x="232.048284" y="145.1319" xlink:href="#y"/>
<use x="231.80805" y="163.4917" xlink:href="#x"/>
<use x="203.98815" y="7.4317" xlink:href="#c"/>
<use x="209.99115" y="7.4317" xlink:href="#a"/>
<use x="214.99515" y="7.4317" xlink:href="#b"/>
<use x="216.99315" y="7.4317" xlink:href="#d"/>
<use x="219.49515" y="7.4317" xlink:href="#a"/>
<use x="224.49915" y="7.4317" xlink:href="#h"/>
<use x="229.50315" y="7.4317" xlink:href="#e"/>
<use x="232.50015" y="7.4317" xlink:href="#v"/>
<use x="237.50415" y="7.4317" xlink:href="#f"/>
<use x="242.50815" y="7.4317" xlink:href="#i"/>
<use x="250.00515" y="7.4317" xlink:href="#a"/>
<use x="255.00915" y="7.4317" xlink:href="#h"/>
<use x="260.01315" y="7.4317" xlink:href="#aa"/>
</g>
<path transform="matrix(.1 0 0 -.1 -1.472 190.55)" d="m111.01 1470h540v180h-540z" fill="none" stroke="#000" stroke-miterlimit="10" stroke-width="2.25"/>
</svg>
