<svg width="312pt" height="198pt" version="1.1" viewBox="0 0 312 198" xmlns="http://www.w3.org/2000/svg" xmlns:xlink="http://www.w3.org/1999/xlink">
<defs>
<g id="c">
<path d="m5.3594-4.6406c0-0.4375-0.015625-0.57812-0.17188-0.875-0.35938-0.75-1.125-1.1562-2.2188-1.1562-1.4531 0-2.3438 0.73438-2.3438 1.9219 0 0.8125 0.42188 1.3125 1.2969 1.5312l1.625 0.4375c0.84375 0.21875 1.2031 0.54688 1.2031 1.0625 0 0.34375-0.1875 0.70312-0.46875 0.90625-0.26562 0.1875-0.67188 0.28125-1.2031 0.28125-0.71875 0-1.2031-0.17188-1.5156-0.54688-0.23438-0.29688-0.34375-0.60938-0.34375-1.0156h-0.78125c0 0.60938 0.125 1 0.375 1.3594 0.45312 0.625 1.2188 0.9375 2.2188 0.9375 0.78125 0 1.4219-0.17188 1.8438-0.5 0.4375-0.34375 0.71875-0.9375 0.71875-1.5 0-0.8125-0.51562-1.4062-1.4062-1.6562l-1.6406-0.4375c-0.79688-0.21875-1.0781-0.46875-1.0781-0.96875 0-0.67188 0.57812-1.1094 1.4688-1.1094 1.0469 0 1.625 0.46875 1.6406 1.3281z"/>
</g>
<g id="a">
<path d="m4.6094-2.1094c0-0.71875-0.046875-1.1562-0.1875-1.5-0.29688-0.78125-1.0156-1.2344-1.9062-1.2344-1.3125 0-2.1562 0.98438-2.1562 2.5469s0.8125 2.5 2.1406 2.5c1.0781 0 1.8281-0.60938 2.0156-1.6406h-0.75c-0.20312 0.625-0.64062 0.95312-1.2344 0.95312-0.48438 0-0.89062-0.21875-1.1406-0.60938-0.17188-0.28125-0.23438-0.54688-0.25-1.0156zm-3.4531-0.60938c0.0625-0.875 0.59375-1.4375 1.3594-1.4375s1.2969 0.59375 1.2969 1.4375z"/>
</g>
<g id="b">
<path d="m1.3438-4.7188h-0.73438v4.7188h0.73438zm0-1.8438h-0.75v0.95312h0.75z"/>
</g>
<g id="d">
<path d="m2.2812-4.7188h-0.76562v-1.2969h-0.75v1.2969h-0.64062v0.60938h0.64062v3.5625c0 0.5 0.32812 0.75 0.90625 0.75 0.20312 0 0.35938-0.015625 0.60938-0.0625v-0.625c-0.10938 0.03125-0.20312 0.03125-0.35938 0.03125-0.3125 0-0.40625-0.09375-0.40625-0.42188v-3.2344h0.76562z"/>
</g>
<g id="g">
<path d="m0.625-4.7188v4.7188h0.76562v-2.5938c0-0.96875 0.5-1.5938 1.2656-1.5938 0.60938 0 0.98438 0.35938 0.98438 0.92188v3.2656h0.75v-3.5625c0-0.78125-0.59375-1.2812-1.5-1.2812-0.70312 0-1.1562 0.26562-1.5625 0.92188v-0.79688z"/>
</g>
<g id="e">
<path d="m0.625-4.7188v4.7188h0.75v-2.4531c0.015625-1.125 0.48438-1.6406 1.5156-1.6094v-0.76562c-0.125-0.015625-0.20312-0.015625-0.29688-0.015625-0.48438 0-0.84375 0.28125-1.2812 0.98438v-0.85938z"/>
</g>
<g id="ac">
<path d="m4.8125-0.4375c-0.078125 0.015625-0.10938 0.015625-0.15625 0.015625-0.26562 0-0.40625-0.14062-0.40625-0.375v-2.7656c0-0.84375-0.60938-1.2812-1.7812-1.2812-0.6875 0-1.2344 0.1875-1.5625 0.54688-0.21875 0.23438-0.29688 0.51562-0.32812 0.96875h0.76562c0.0625-0.5625 0.40625-0.82812 1.1094-0.82812 0.67188 0 1.0469 0.25 1.0469 0.70312v0.1875c-0.015625 0.32812-0.17188 0.45312-0.78125 0.53125-1.0625 0.14062-1.2188 0.17188-1.5156 0.28125-0.54688 0.23438-0.82812 0.65625-0.82812 1.2656 0 0.85938 0.59375 1.3906 1.5469 1.3906 0.59375 0 1.0781-0.20312 1.6094-0.6875 0.046875 0.48438 0.28125 0.6875 0.76562 0.6875 0.17188 0 0.26562-0.015625 0.51562-0.078125zm-1.3125-1.0469c0 0.25-0.078125 0.40625-0.29688 0.60938-0.3125 0.28125-0.67188 0.42188-1.1094 0.42188-0.59375 0-0.9375-0.28125-0.9375-0.75 0-0.5 0.32812-0.75 1.1406-0.85938 0.79688-0.10938 0.95312-0.15625 1.2031-0.26562z"/>
</g>
<g id="f">
<path d="m0.625-6.5625v6.5625h0.75v-2.5938c0-0.96875 0.5-1.5938 1.2812-1.5938 0.25 0 0.48438 0.0625 0.67188 0.20312 0.20312 0.15625 0.29688 0.39062 0.29688 0.71875v3.2656h0.75v-3.5625c0-0.79688-0.5625-1.2812-1.4844-1.2812-0.67188 0-1.0781 0.20312-1.5156 0.78125v-2.5z"/>
</g>
<g id="h">
<path d="m0.625-4.7188v4.7188h0.76562v-2.9688c0-0.67188 0.48438-1.2188 1.1094-1.2188 0.54688 0 0.85938 0.32812 0.85938 0.9375v3.25h0.76562v-2.9688c0-0.67188 0.48438-1.2188 1.1094-1.2188 0.54688 0 0.875 0.34375 0.875 0.9375v3.25h0.75v-3.5312c0-0.85938-0.48438-1.3125-1.375-1.3125-0.625 0-1 0.1875-1.4375 0.71875-0.28125-0.51562-0.65625-0.71875-1.2812-0.71875s-1.0469 0.23438-1.4375 0.79688v-0.67188z"/>
</g>
<g id="ae">
<path d="m4.8906-2.4062h-4.5312v0.64062h4.5312z"/>
</g>
<g id="ad">
<path d="m4.3438 0v-4.7188h-0.75v2.6719c0 0.96875-0.5 1.5938-1.2969 1.5938-0.59375 0-0.96875-0.35938-0.96875-0.92188v-3.3438h-0.75v3.6406c0 0.78125 0.59375 1.2812 1.5156 1.2812 0.6875 0 1.125-0.23438 1.5625-0.85938v0.65625z"/>
</g>
<g id="t">
<path d="m2.9375-1.5781v1.5781h0.79688v-1.5781h0.95312v-0.70312h-0.95312v-4.2188h-0.57812l-2.9062 4.0938v0.82812zm0-0.70312h-2l2-2.875z"/>
</g>
<g id="s">
<path d="m1.9844-3h0.4375c0.85938 0 1.3281 0.40625 1.3281 1.1875 0 0.82812-0.5 1.3125-1.3125 1.3125-0.875 0-1.2969-0.4375-1.3594-1.3906h-0.79688c0.046875 0.51562 0.125 0.85938 0.28125 1.1562 0.34375 0.625 0.95312 0.9375 1.8281 0.9375 1.3125 0 2.1562-0.78125 2.1562-2.0156 0-0.82812-0.3125-1.2812-1.0781-1.5469 0.59375-0.25 0.89062-0.70312 0.89062-1.3594 0-1.1094-0.71875-1.7812-1.9375-1.7812-1.2812 0-1.9688 0.71875-2 2.0938h0.79688c0-0.40625 0.046875-0.625 0.14062-0.82812 0.17188-0.35938 0.57812-0.57812 1.0781-0.57812 0.6875 0 1.125 0.42188 1.125 1.125 0 0.45312-0.17188 0.73438-0.51562 0.89062-0.21875 0.09375-0.51562 0.125-1.0625 0.14062z"/>
</g>
<g id="r">
<path d="m2.3281-4.6406v4.6406h0.79688v-6.5h-0.53125c-0.26562 0.98438-0.45312 1.125-1.6719 1.2812v0.57812z"/>
</g>
<g id="q">
<path d="m4.5469-0.78125h-3.3438c0.078125-0.54688 0.35938-0.89062 1.1406-1.3594l0.90625-0.5c0.89062-0.5 1.3438-1.1719 1.3438-1.9688 0-0.53125-0.20312-1.0469-0.59375-1.3906-0.375-0.34375-0.84375-0.5-1.4375-0.5-0.8125 0-1.4219 0.28125-1.7656 0.84375-0.23438 0.34375-0.32812 0.75-0.34375 1.4062h0.78125c0.03125-0.45312 0.09375-0.70312 0.20312-0.92188 0.20312-0.40625 0.60938-0.64062 1.0938-0.64062 0.71875 0 1.25 0.51562 1.25 1.2188 0 0.53125-0.29688 0.96875-0.85938 1.2969l-0.82812 0.48438c-1.3281 0.76562-1.7188 1.375-1.7812 2.7969h4.2344z"/>
</g>
<g id="p">
<path d="m2.4688-6.5c-0.59375 0-1.125 0.26562-1.4531 0.70312-0.42188 0.57812-0.625 1.4375-0.625 2.6406 0 2.2031 0.71875 3.3594 2.0781 3.3594s2.0938-1.1562 2.0938-3.2969c0-1.2656-0.20312-2.1094-0.625-2.7031-0.32812-0.45312-0.85938-0.70312-1.4688-0.70312zm0 0.6875c0.85938 0 1.2812 0.875 1.2812 2.6406 0 1.8594-0.40625 2.7188-1.2969 2.7188-0.82812 0-1.25-0.89062-1.25-2.6875s0.42188-2.6719 1.2656-2.6719z"/>
</g>
<g id="o">
<path d="m4.4844-4.8125c-0.15625-1.0625-0.84375-1.6875-1.8125-1.6875-0.70312 0-1.3281 0.32812-1.7031 0.92188-0.40625 0.64062-0.57812 1.4219-0.57812 2.6094 0 1.0938 0.15625 1.7969 0.53125 2.3594 0.34375 0.53125 0.90625 0.8125 1.6094 0.8125 1.2188 0 2.0781-0.90625 2.0781-2.1719 0-1.2031-0.79688-2.0469-1.9531-2.0469-0.625 0-1.125 0.23438-1.4531 0.71875 0-1.6094 0.5-2.5156 1.4219-2.5156 0.54688 0 0.9375 0.375 1.0625 1zm-1.9219 1.5c0.76562 0 1.25 0.54688 1.25 1.4062 0 0.8125-0.54688 1.4062-1.2812 1.4062s-1.2969-0.60938-1.2969-1.4375c0-0.8125 0.54688-1.375 1.3281-1.375z"/>
</g>
<g id="n">
<path d="m4.6875-6.375h-4.2812v0.78125h3.4531c-1.5156 2.1719-2.1406 3.5-2.625 5.5938h0.85938c0.34375-2.0469 1.1406-3.7969 2.5938-5.7188z"/>
</g>
<g id="m">
<path d="m4.2812-6.375h-3.2969l-0.46875 3.4688h0.71875c0.375-0.4375 0.6875-0.59375 1.1875-0.59375 0.85938 0 1.3906 0.57812 1.3906 1.5312 0 0.92188-0.53125 1.4688-1.4062 1.4688-0.6875 0-1.1094-0.34375-1.2969-1.0625h-0.79688c0.10938 0.51562 0.20312 0.76562 0.39062 1 0.35938 0.48438 1 0.76562 1.7344 0.76562 1.2812 0 2.1719-0.9375 2.1719-2.2812 0-1.2656-0.82812-2.125-2.0469-2.125-0.45312 0-0.8125 0.10938-1.1875 0.39062l0.25-1.7812h2.6562z"/>
</g>
<g id="ai">
<path d="m0.48438-6.5625v6.5625h0.67188v-0.60938c0.35938 0.5625 0.84375 0.8125 1.5 0.8125 1.2344 0 2.0469-1.0156 2.0469-2.5781 0-1.5312-0.76562-2.4688-2.0156-2.4688-0.64062 0-1.1094 0.23438-1.4531 0.76562v-2.4844zm2.0625 2.4062c0.84375 0 1.375 0.73438 1.375 1.8594 0 1.0781-0.5625 1.7969-1.375 1.7969-0.79688 0-1.3125-0.71875-1.3125-1.8281 0-1.0938 0.51562-1.8281 1.3125-1.8281z"/>
</g>
<g id="l">
<path d="m1.375-6.5625h-0.76562v6.5625h0.76562z"/>
</g>
<g id="ah">
<path d="m2.4531-4.8438c-1.3438 0-2.125 0.9375-2.125 2.5156 0 1.5938 0.78125 2.5312 2.125 2.5312 1.3281 0 2.1406-0.9375 2.1406-2.4844 0-1.6406-0.78125-2.5625-2.1406-2.5625zm0 0.6875c0.84375 0 1.3594 0.6875 1.3594 1.8594 0 1.125-0.53125 1.8125-1.3594 1.8125s-1.3438-0.6875-1.3438-1.8438c0-1.1406 0.51562-1.8281 1.3438-1.8281z"/>
</g>
<g id="ag">
<path d="m3.6406-4.7188v0.6875c-0.375-0.5625-0.79688-0.8125-1.3906-0.8125-1.1406 0-1.9375 1.0625-1.9375 2.5625 0 0.79688 0.1875 1.375 0.59375 1.8438 0.35938 0.42188 0.79688 0.64062 1.2969 0.64062 0.5625 0 0.96875-0.25 1.3594-0.84375v0.25c0 1.25-0.34375 1.7188-1.2812 1.7188-0.64062 0-0.96875-0.25-1.0469-0.78125h-0.76562c0.078125 0.85938 0.76562 1.4219 1.7969 1.4219 0.6875 0 1.2656-0.23438 1.5625-0.60938 0.35938-0.4375 0.5-1.0312 0.5-2.1406v-3.9375zm-1.3125 0.5625c0.78125 0 1.2344 0.67188 1.2344 1.8594 0 1.1406-0.45312 1.8125-1.2344 1.8125s-1.2344-0.67188-1.2344-1.8438c0-1.1406 0.45312-1.8281 1.2344-1.8281z"/>
</g>
<g id="k">
<path d="m3.9375-3.4062c0-0.92188-0.60938-1.4375-1.7031-1.4375s-1.8125 0.5625-1.8125 1.4375c0 0.73438 0.375 1.0781 1.5 1.3594l0.70312 0.17188c0.51562 0.125 0.71875 0.3125 0.71875 0.64062 0 0.45312-0.4375 0.75-1.0938 0.75-0.40625 0-0.75-0.125-0.9375-0.3125-0.10938-0.14062-0.17188-0.28125-0.21875-0.60938h-0.78125c0.03125 1.0938 0.64062 1.6094 1.875 1.6094 1.1875 0 1.9375-0.57812 1.9375-1.4844 0-0.70312-0.39062-1.0938-1.3281-1.3125l-0.71875-0.17188c-0.60938-0.15625-0.875-0.34375-0.875-0.6875 0-0.4375 0.39062-0.70312 1-0.70312s0.92188 0.26562 0.95312 0.75z"/>
</g>
<g id="i">
<path d="m4.2344-3.125c-0.03125-0.46875-0.125-0.76562-0.3125-1.0312-0.32812-0.4375-0.89062-0.6875-1.5469-0.6875-1.2812 0-2.0938 1-2.0938 2.5625 0 1.5312 0.8125 2.4844 2.0781 2.4844 1.125 0 1.8438-0.67188 1.9375-1.8281h-0.76562c-0.125 0.76562-0.5 1.1406-1.1406 1.1406-0.82812 0-1.3281-0.67188-1.3281-1.7969 0-1.1719 0.48438-1.875 1.2969-1.875 0.64062 0 1.0312 0.375 1.125 1.0312z"/>
</g>
<g id="j">
<path d="m0.48438 1.9688h0.75v-2.4688c0.40625 0.48438 0.84375 0.70312 1.4531 0.70312 1.2344 0 2.0156-0.98438 2.0156-2.4844 0-1.5781-0.76562-2.5625-2.0156-2.5625-0.64062 0-1.1562 0.28125-1.5156 0.84375v-0.71875h-0.6875zm2.0781-6.125c0.82812 0 1.3594 0.73438 1.3594 1.8594 0 1.0781-0.54688 1.7969-1.3594 1.7969s-1.3281-0.71875-1.3281-1.8281c0-1.0938 0.51562-1.8281 1.3281-1.8281z"/>
</g>
<g id="af">
<path d="m3.4844-4.7188-1.2969 3.6719-1.2031-3.6719h-0.79688l1.5781 4.7344-0.28125 0.75c-0.125 0.32812-0.28125 0.45312-0.60938 0.45312-0.125 0-0.23438-0.015625-0.39062-0.046875v0.67188c0.15625 0.078125 0.3125 0.125 0.5 0.125 0.25 0 0.51562-0.09375 0.70312-0.23438 0.23438-0.17188 0.375-0.35938 0.51562-0.75l2.0938-5.7031z"/>
</g>
<g id="ab">
<path d="m2.9375-5.5156-1.7188 0.53125c-0.17188 0.0625-0.23438 0.10938-0.23438 0.23438s0.10938 0.23438 0.21875 0.23438c0.015625 0 0.10938-0.015625 0.14062-0.03125l1.125-0.34375v4.4375h-1.2031c-0.1875 0-0.29688 0.078125-0.29688 0.21875 0 0.15625 0.10938 0.23438 0.29688 0.23438h2.8906c0.1875 0 0.28125-0.078125 0.28125-0.23438 0-0.14062-0.09375-0.21875-0.28125-0.21875h-1.2188z"/>
</g>
<g id="aa">
<path d="m1.2188-0.45312c0.48438-0.42188 1.0469-0.9375 1.7812-1.6562 1.1406-1.0781 1.3125-1.3438 1.3125-1.875 0-0.82812-0.79688-1.5625-1.7031-1.5625-0.5625 0-1.0781 0.25-1.4219 0.6875-0.17188 0.21875-0.29688 0.5-0.29688 0.67188 0 0.09375 0.09375 0.20312 0.21875 0.20312s0.20312-0.0625 0.23438-0.20312c0.15625-0.53125 0.6875-0.89062 1.2656-0.89062 0.67188 0 1.25 0.5 1.25 1.0938 0 0.39062-0.17188 0.60938-1 1.4219-0.75 0.70312-1.4375 1.3438-2.0625 1.8906l-0.078125 0.0625v0.60938h3.6406v-0.73438c0-0.1875-0.078125-0.28125-0.23438-0.28125s-0.23438 0.09375-0.23438 0.28125v0.28125z"/>
</g>
<g id="z">
<path d="m4.4375-3.1562c0-1.4219-0.70312-2.3906-1.7344-2.3906s-1.7344 0.96875-1.7344 2.3906v0.89062c0 1.4219 0.70312 2.4062 1.7344 2.4062s1.7344-0.98438 1.7344-2.4062zm-3 0.0625c0-0.5625 0.17188-1.1406 0.42188-1.5469 0.1875-0.29688 0.48438-0.4375 0.84375-0.4375s0.65625 0.14062 0.84375 0.4375c0.26562 0.40625 0.42188 0.98438 0.42188 1.5469v0.78125c0 0.54688-0.15625 1.1406-0.42188 1.5469-0.1875 0.28125-0.48438 0.4375-0.84375 0.4375s-0.65625-0.15625-0.84375-0.4375c-0.25-0.40625-0.42188-1-0.42188-1.5469z"/>
</g>
<g id="y">
<path d="m2.5156-3.2188c-0.1875 0-0.29688 0.09375-0.29688 0.23438 0 0.15625 0.10938 0.23438 0.29688 0.23438 0.85938 0.015625 1.5469 0.54688 1.5469 1.2344 0 0.64062-0.65625 1.1875-1.4375 1.1875-0.51562 0-0.96875-0.15625-1.4062-0.46875-0.078125-0.0625-0.125-0.078125-0.1875-0.078125-0.10938 0-0.21875 0.09375-0.21875 0.21875 0 0.14062 0.125 0.26562 0.45312 0.42188 0.46875 0.25 0.89062 0.375 1.3438 0.375 1.0625 0 1.9219-0.75 1.9219-1.6562 0-0.59375-0.40625-1.1406-1.0469-1.4219 0.5625-0.26562 0.85938-0.6875 0.85938-1.1875 0-0.8125-0.70312-1.4219-1.6406-1.4219-0.46875 0-0.9375 0.14062-1.2969 0.42188-0.20312 0.15625-0.32812 0.3125-0.32812 0.42188s0.09375 0.21875 0.23438 0.21875c0.0625 0 0.125-0.03125 0.15625-0.09375 0.32812-0.35938 0.70312-0.5 1.2344-0.5 0.67188 0 1.1719 0.40625 1.1719 0.95312 0 0.28125-0.15625 0.5625-0.42188 0.73438-0.21875 0.125-0.39062 0.17188-0.75 0.17188z"/>
</g>
<g id="x">
<path d="m3.3438-1.5v1.0469h-0.64062c-0.1875 0-0.29688 0.078125-0.29688 0.21875 0 0.15625 0.10938 0.23438 0.29688 0.23438h1.3594c0.1875 0 0.29688-0.078125 0.29688-0.23438 0-0.14062-0.10938-0.21875-0.29688-0.21875h-0.25v-1.0469h0.25c0.1875 0 0.29688-0.078125 0.29688-0.23438 0-0.14062-0.10938-0.21875-0.29688-0.21875h-0.25v-3.4688h-0.84375l-2.0625 3.4531v0.46875zm0-0.45312h-1.9531l1.8125-3.0156h0.14062z"/>
</g>
<g id="w">
<path d="m1.7656-4.9688h2.125c0.20312 0 0.29688-0.078125 0.29688-0.23438 0-0.14062-0.09375-0.21875-0.29688-0.21875h-2.5938v2.4219c0 0.14062 0.09375 0.23438 0.21875 0.23438 0.0625 0 0.10938-0.015625 0.21875-0.0625 0.40625-0.20312 0.76562-0.29688 1.125-0.29688 0.71875 0 1.2188 0.53125 1.2188 1.2812 0 0.90625-0.59375 1.5156-1.4375 1.5156-0.5 0-0.96875-0.1875-1.4062-0.57812-0.078125-0.078125-0.125-0.09375-0.1875-0.09375-0.125 0-0.23438 0.09375-0.23438 0.21875 0 0.14062 0.125 0.28125 0.45312 0.46875 0.45312 0.29688 0.90625 0.45312 1.3906 0.45312 1.1094 0 1.8906-0.8125 1.8906-1.9531 0-1.0312-0.6875-1.7656-1.6562-1.7656-0.375 0-0.6875 0.0625-1.125 0.23438z"/>
</g>
<g id="v">
<path d="m3.8906-4.8594-1.4375 4.5156c-0.015625 0.0625-0.015625 0.09375-0.015625 0.125 0 0.125 0.09375 0.23438 0.21875 0.23438s0.17188-0.0625 0.23438-0.21875l1.4688-4.5938v-0.625h-3.4531v0.71875c0 0.1875 0.078125 0.29688 0.23438 0.29688 0.14062 0 0.23438-0.10938 0.23438-0.29688v-0.26562h2.5156z"/>
</g>
<g id="u">
<path d="m1.6406-2.3594c-0.015625-0.09375-0.015625-0.17188-0.015625-0.21875 0-0.53125 0.14062-1.0781 0.40625-1.4531 0.4375-0.65625 1.125-1.0469 1.7969-1.0469 0.17188 0 0.29688 0.015625 0.39062 0.0625 0.09375 0.03125 0.125 0.046875 0.1875 0.046875 0.125 0 0.20312-0.09375 0.20312-0.21875 0-0.20312-0.32812-0.35938-0.76562-0.35938-0.57812 0-1.1875 0.23438-1.6719 0.64062-0.67188 0.5625-1 1.3281-1 2.3906 0 1.5469 0.76562 2.6562 1.875 2.6562 0.89062 0 1.5938-0.76562 1.5938-1.75 0-0.92188-0.70312-1.6875-1.5469-1.6875-0.59375 0-1.125 0.32812-1.4531 0.9375zm0.0625 0.65625c0.20312-0.35938 0.29688-0.51562 0.4375-0.65625 0.28125-0.3125 0.625-0.48438 0.95312-0.48438 0.59375 0 1.0781 0.5625 1.0781 1.2344 0 0.73438-0.48438 1.2812-1.125 1.2812-0.67188 0-1.1094-0.42188-1.3438-1.375z"/>
</g>
</defs>
<path transform="matrix(.1 0 0 -.1 -4.472 199.24)" d="m1491 1563h270" fill="none" stroke="#000" stroke-miterlimit="10" stroke-width="2.25"/>
<path transform="matrix(.1 0 0 -.1 -4.472 199.24)" d="m1491 1383h270" fill="none" stroke="#000" stroke-miterlimit="10" stroke-width="2.25"/>
<path transform="matrix(.1 0 0 -.1 -4.472 199.24)" d="m1491 1203h270" fill="none" stroke="#000" stroke-miterlimit="10" stroke-width="2.25"/>
<path transform="matrix(.1 0 0 -.1 -4.472 199.24)" d="m1491 1023h270" fill="none" stroke="#000" stroke-miterlimit="10" stroke-width="2.25"/>
<path transform="matrix(.1 0 0 -.1 -4.472 199.24)" d="m1491 843.02h270" fill="none" stroke="#000" stroke-miterlimit="10" stroke-width="2.25"/>
<path transform="matrix(.1 0 0 -.1 -4.472 199.24)" d="m1491 663.02h270" fill="none" stroke="#000" stroke-miterlimit="10" stroke-width="2.25"/>
<path transform="matrix(.1 0 0 -.1 -4.472 199.24)" d="m1491 303.02h270v1440h-270z" fill="none" stroke="#000" stroke-miterlimit="10" stroke-width="2.25"/>
<path transform="matrix(.1 0 0 -.1 -4.472 199.24)" d="m1491 483.02h270" fill="none" stroke="#000" stroke-miterlimit="10" stroke-width="2.25"/>
<path transform="matrix(.1 0 0 -.1 -4.472 199.24)" d="m141.01 483.02h540" fill="none" stroke="#000" stroke-miterlimit="10" stroke-width="2.25"/>
<path transform="matrix(.1 0 0 -.1 -4.472 199.24)" d="m2481 1563h540v180h-540z" fill="#e5e5e5" fill-rule="evenodd" stroke="#000" stroke-miterlimit="10" stroke-width="2.25"/>
<path transform="matrix(.1 0 0 -.1 -4.472 199.24)" d="m2481 1203h540v180h-540z" fill="#e5e5e5" fill-rule="evenodd" stroke="#000" stroke-miterlimit="10" stroke-width="2.25"/>
<path transform="matrix(.1 0 0 -.1 -4.472 199.24)" d="m2481 1023h540v180h-540z" fill="#e5e5e5" fill-rule="evenodd" stroke="#000" stroke-miterlimit="10" stroke-width="2.25"/>
<path transform="matrix(.1 0 0 -.1 -4.472 199.24)" d="m2481 843.02h540v180h-540z" fill="#e5e5e5" fill-rule="evenodd" stroke="#000" stroke-miterlimit="10" stroke-width="2.25"/>
<path transform="matrix(.1 0 0 -.1 -4.472 199.24)" d="m2481 483.02h540v180h-540z" fill="#e5e5e5" fill-rule="evenodd" stroke="#000" stroke-miterlimit="10" stroke-width="2.25"/>
<path transform="matrix(.1 0 0 -.1 -4.472 199.24)" d="m2481 663.02h540v180h-540z" fill="#e5e5e5" fill-rule="evenodd" stroke="#000" stroke-miterlimit="10" stroke-width="2.25"/>
<path transform="matrix(.1 0 0 -.1 -4.472 199.24)" d="m2481 303.02h540v180h-540z" fill="#e5e5e5" fill-rule="evenodd" stroke="#000" stroke-miterlimit="10" stroke-width="2.25"/>
<path transform="matrix(.1 0 0 -.1 -4.472 199.24)" d="m2481 1383h540v180h-540z" fill="#e5e5e5" fill-rule="evenodd" stroke="#000" stroke-miterlimit="10" stroke-width="2.25"/>
<path transform="matrix(.1 0 0 -.1 -4.472 199.24)" d="m2481 1383h540v180h-540z" fill="none" stroke="#000" stroke-miterlimit="10" stroke-width="2.25"/>
<path transform="matrix(.1 0 0 -.1 -4.472 199.24)" d="m2481 663.02h540v180h-540z" fill="none" stroke="#000" stroke-miterlimit="10" stroke-width="2.25"/>
<path transform="matrix(.1 0 0 -.1 -4.472 199.24)" d="m2481 483.02h540v180h-540z" fill="none" stroke="#000" stroke-miterlimit="10" stroke-width="2.25"/>
<path transform="matrix(.1 0 0 -.1 -4.472 199.24)" d="m141.01 303.02h540v720h-540z" fill="none" stroke="#000" stroke-miterlimit="10" stroke-width="2.25"/>
<path transform="matrix(.1 0 0 -.1 -4.472 199.24)" d="m141.01 303.02h540v540h-540z" fill="none" stroke="#000" stroke-miterlimit="10" stroke-width="2.25"/>
<path transform="matrix(.1 0 0 -.1 -4.472 199.24)" d="m141.01 303.02h540v360h-540z" fill="none" stroke="#000" stroke-miterlimit="10" stroke-width="2.25"/>
<path transform="matrix(.1 0 0 -.1 -4.472 199.24)" d="m141.01 1563h540v180h-540z" fill="none" stroke="#000" stroke-miterlimit="10" stroke-width="2.25"/>
<path transform="matrix(.1 0 0 -.1 -4.472 199.24)" d="m141.01 1383h540v180h-540z" fill="none" stroke="#000" stroke-miterlimit="10" stroke-width="2.25"/>
<path transform="matrix(.1 0 0 -.1 -4.472 199.24)" d="m141.01 1203h540v180h-540z" fill="none" stroke="#000" stroke-miterlimit="10" stroke-width="2.25"/>
<path transform="matrix(.1 0 0 -.1 -4.472 199.24)" d="m141.01 1023h540v180h-540z" fill="none" stroke="#000" stroke-miterlimit="10" stroke-width="2.25"/>
<g>
<use x="203.988" y="6.819" xlink:href="#c"/>
<use x="209.991" y="6.819" xlink:href="#a"/>
<use x="214.995" y="6.819" xlink:href="#b"/>
<use x="216.993" y="6.819" xlink:href="#d"/>
<use x="219.495" y="6.819" xlink:href="#a"/>
<use x="224.499" y="6.819" xlink:href="#g"/>
<use x="229.503" y="6.819" xlink:href="#e"/>
<use x="232.5" y="6.819" xlink:href="#ac"/>
<use x="237.504" y="6.819" xlink:href="#f"/>
<use x="242.508" y="6.819" xlink:href="#h"/>
<use x="250.005" y="6.819" xlink:href="#a"/>
<use x="255.009" y="6.819" xlink:href="#g"/>
<use x="260.013" y="6.819" xlink:href="#ae"/>
<use x="218.1267" y="15.369" xlink:href="#g"/>
<use x="223.1307" y="15.369" xlink:href="#ad"/>
<use x="228.1347" y="15.369" xlink:href="#h"/>
<use x="235.6317" y="15.369" xlink:href="#h"/>
<use x="243.1287" y="15.369" xlink:href="#a"/>
<use x="248.1327" y="15.369" xlink:href="#e"/>
<use x="132.9279" y="56.4389" xlink:href="#ab"/>
<use x="132.7779" y="73.3889" xlink:href="#aa"/>
<use x="231.9279" y="37.3889" xlink:href="#z"/>
<use x="231.9279" y="73.3889" xlink:href="#aa"/>
<use x="231.807978" y="91.3889" xlink:href="#y"/>
<use x="231.807978" y="109.3889" xlink:href="#x"/>
<use x="231.807978" y="128.4389" xlink:href="#w"/>
<use x="231.807978" y="163.3889" xlink:href="#v"/>
<use x="155.625978" y="73.3889" xlink:href="#t"/>
<use x="256.619978" y="37.3889" xlink:href="#c"/>
<use x="262.622978" y="37.3889" xlink:href="#a"/>
<use x="267.626978" y="37.3889" xlink:href="#b"/>
<use x="269.624978" y="37.3889" xlink:href="#d"/>
<use x="272.126978" y="37.3889" xlink:href="#a"/>
<use x="277.130978" y="37.3889" xlink:href="#glyph-0-13"/>
<use x="279.632978" y="37.3889" xlink:href="#s"/>
<use x="256.619978" y="73.3889" xlink:href="#c"/>
<use x="262.622978" y="73.3889" xlink:href="#a"/>
<use x="267.626978" y="73.3889" xlink:href="#b"/>
<use x="269.624978" y="73.3889" xlink:href="#d"/>
<use x="272.126978" y="73.3889" xlink:href="#a"/>
<use x="277.130978" y="73.3889" xlink:href="#glyph-0-13"/>
<use x="279.632978" y="73.3889" xlink:href="#t"/>
<use x="256.619978" y="91.3889" xlink:href="#c"/>
<use x="262.622978" y="91.3889" xlink:href="#a"/>
<use x="267.626978" y="91.3889" xlink:href="#b"/>
<use x="269.624978" y="91.3889" xlink:href="#d"/>
<use x="272.126978" y="91.3889" xlink:href="#a"/>
<use x="277.130978" y="91.3889" xlink:href="#glyph-0-13"/>
<use x="279.632978" y="91.3889" xlink:href="#r"/>
<use x="256.619978" y="109.3889" xlink:href="#c"/>
<use x="262.622978" y="109.3889" xlink:href="#a"/>
<use x="267.626978" y="109.3889" xlink:href="#b"/>
<use x="269.624978" y="109.3889" xlink:href="#d"/>
<use x="272.126978" y="109.3889" xlink:href="#a"/>
<use x="277.130978" y="109.3889" xlink:href="#glyph-0-13"/>
<use x="279.632978" y="109.3889" xlink:href="#q"/>
<use x="256.619978" y="163.3889" xlink:href="#c"/>
<use x="262.622978" y="163.3889" xlink:href="#a"/>
<use x="267.626978" y="163.3889" xlink:href="#b"/>
<use x="269.624978" y="163.3889" xlink:href="#d"/>
<use x="272.126978" y="163.3889" xlink:href="#a"/>
<use x="277.130978" y="163.3889" xlink:href="#glyph-0-13"/>
<use x="279.632978" y="163.3889" xlink:href="#p"/>
<use x="256.619978" y="146.4389" xlink:href="#c"/>
<use x="262.622978" y="146.4389" xlink:href="#a"/>
<use x="267.626978" y="146.4389" xlink:href="#b"/>
<use x="269.624978" y="146.4389" xlink:href="#d"/>
<use x="272.126978" y="146.4389" xlink:href="#a"/>
<use x="277.130978" y="146.4389" xlink:href="#glyph-0-13"/>
<use x="279.632978" y="146.4389" xlink:href="#o"/>
<use x="256.619978" y="128.4389" xlink:href="#c"/>
<use x="262.622978" y="128.4389" xlink:href="#a"/>
<use x="267.626978" y="128.4389" xlink:href="#b"/>
<use x="269.624978" y="128.4389" xlink:href="#d"/>
<use x="272.126978" y="128.4389" xlink:href="#a"/>
<use x="277.130978" y="128.4389" xlink:href="#glyph-0-13"/>
<use x="279.632978" y="128.4389" xlink:href="#n"/>
<use x="256.619978" y="56.4389" xlink:href="#c"/>
<use x="262.622978" y="56.4389" xlink:href="#a"/>
<use x="267.626978" y="56.4389" xlink:href="#b"/>
<use x="269.624978" y="56.4389" xlink:href="#d"/>
<use x="272.126978" y="56.4389" xlink:href="#a"/>
<use x="277.130978" y="56.4389" xlink:href="#glyph-0-13"/>
<use x="279.632978" y="56.4389" xlink:href="#m"/>
<use x="136.614978" y="195.9389" xlink:href="#c"/>
<use x="142.617978" y="195.9389" xlink:href="#a"/>
<use x="147.621978" y="195.9389" xlink:href="#b"/>
<use x="149.619978" y="195.9389" xlink:href="#d"/>
<use x="152.121978" y="195.9389" xlink:href="#a"/>
<use x="157.125978" y="195.9389" xlink:href="#g"/>
<use x="162.129978" y="195.9389" xlink:href="#d"/>
<use x="164.631978" y="195.9389" xlink:href="#ac"/>
<use x="169.635978" y="195.9389" xlink:href="#ai"/>
<use x="174.639978" y="195.9389" xlink:href="#a"/>
<use x="179.643978" y="195.9389" xlink:href="#l"/>
<use x="181.641978" y="195.9389" xlink:href="#l"/>
<use x="183.639978" y="195.9389" xlink:href="#a"/>
<use x="155.626678" y="37.3889" xlink:href="#n"/>
<use x="155.626678" y="56.4389" xlink:href="#s"/>
<use x="155.626678" y="109.3889" xlink:href="#q"/>
<use x="155.626678" y="146.4389" xlink:href="#o"/>
<use x="155.626678" y="163.3889" xlink:href="#m"/>
<use x="155.626678" y="128.4389" xlink:href="#r"/>
<use x="-0.382322" y="195.9389" xlink:href="#l"/>
<use x="1.615678" y="195.9389" xlink:href="#ah"/>
<use x="6.619678" y="195.9389" xlink:href="#ag"/>
<use x="11.623678" y="195.9389" xlink:href="#b"/>
<use x="13.621678" y="195.9389" xlink:href="#k"/>
<use x="18.121678" y="195.9389" xlink:href="#i"/>
<use x="22.621678" y="195.9389" xlink:href="#f"/>
<use x="27.625678" y="195.9389" xlink:href="#a"/>
<use x="32.629678" y="195.9389" xlink:href="#e"/>
<use x="35.626678" y="195.9389" xlink:href="#glyph-0-13"/>
<use x="38.128678" y="195.9389" xlink:href="#c"/>
<use x="44.131678" y="195.9389" xlink:href="#j"/>
<use x="49.135678" y="195.9389" xlink:href="#a"/>
<use x="54.139678" y="195.9389" xlink:href="#b"/>
<use x="56.137678" y="195.9389" xlink:href="#i"/>
<use x="60.637678" y="195.9389" xlink:href="#f"/>
<use x="65.641678" y="195.9389" xlink:href="#a"/>
<use x="70.645678" y="195.9389" xlink:href="#e"/>
<use x="230.116678" y="195.9389" xlink:href="#j"/>
<use x="235.120678" y="195.9389" xlink:href="#f"/>
<use x="240.124678" y="195.9389" xlink:href="#af"/>
<use x="244.624678" y="195.9389" xlink:href="#k"/>
<use x="249.124678" y="195.9389" xlink:href="#b"/>
<use x="251.122678" y="195.9389" xlink:href="#k"/>
<use x="255.622678" y="195.9389" xlink:href="#i"/>
<use x="260.122678" y="195.9389" xlink:href="#f"/>
<use x="265.126678" y="195.9389" xlink:href="#a"/>
<use x="270.130678" y="195.9389" xlink:href="#e"/>
<use x="273.127678" y="195.9389" xlink:href="#glyph-0-13"/>
<use x="275.629678" y="195.9389" xlink:href="#c"/>
<use x="281.632678" y="195.9389" xlink:href="#j"/>
<use x="286.636678" y="195.9389" xlink:href="#a"/>
<use x="291.640678" y="195.9389" xlink:href="#b"/>
<use x="293.638678" y="195.9389" xlink:href="#i"/>
<use x="298.138678" y="195.9389" xlink:href="#f"/>
<use x="303.142678" y="195.9389" xlink:href="#a"/>
<use x="308.146678" y="195.9389" xlink:href="#e"/>
<use x="22.620678" y="128.4389" xlink:href="#c"/>
<use x="28.623678" y="128.4389" xlink:href="#a"/>
<use x="33.627678" y="128.4389" xlink:href="#b"/>
<use x="35.625678" y="128.4389" xlink:href="#d"/>
<use x="38.127678" y="128.4389" xlink:href="#a"/>
<use x="43.131678" y="128.4389" xlink:href="#glyph-0-13"/>
<use x="45.633678" y="128.4389" xlink:href="#m"/>
<use x="22.620678" y="146.4389" xlink:href="#c"/>
<use x="28.623678" y="146.4389" xlink:href="#a"/>
<use x="33.627678" y="146.4389" xlink:href="#b"/>
<use x="35.625678" y="146.4389" xlink:href="#d"/>
<use x="38.127678" y="146.4389" xlink:href="#a"/>
<use x="43.131678" y="146.4389" xlink:href="#glyph-0-13"/>
<use x="45.633678" y="146.4389" xlink:href="#o"/>
<use x="132.928678" y="109.3889" xlink:href="#x"/>
<use x="132.928678" y="128.4389" xlink:href="#w"/>
<use x="132.928678" y="146.4389" xlink:href="#u"/>
<use x="132.928678" y="163.3889" xlink:href="#v"/>
<use x="133.078678" y="37.3889" xlink:href="#z"/>
<use x="22.620678" y="37.3889" xlink:href="#c"/>
<use x="28.623678" y="37.3889" xlink:href="#a"/>
<use x="33.627678" y="37.3889" xlink:href="#b"/>
<use x="35.625678" y="37.3889" xlink:href="#d"/>
<use x="38.127678" y="37.3889" xlink:href="#a"/>
<use x="43.131678" y="37.3889" xlink:href="#glyph-0-13"/>
<use x="45.633678" y="37.3889" xlink:href="#p"/>
<use x="22.620678" y="73.3889" xlink:href="#c"/>
<use x="28.623678" y="73.3889" xlink:href="#a"/>
<use x="33.627678" y="73.3889" xlink:href="#b"/>
<use x="35.625678" y="73.3889" xlink:href="#d"/>
<use x="38.127678" y="73.3889" xlink:href="#a"/>
<use x="43.131678" y="73.3889" xlink:href="#glyph-0-13"/>
<use x="45.633678" y="73.3889" xlink:href="#q"/>
<use x="22.620678" y="91.3889" xlink:href="#c"/>
<use x="28.623678" y="91.3889" xlink:href="#a"/>
<use x="33.627678" y="91.3889" xlink:href="#b"/>
<use x="35.625678" y="91.3889" xlink:href="#d"/>
<use x="38.127678" y="91.3889" xlink:href="#a"/>
<use x="43.131678" y="91.3889" xlink:href="#glyph-0-13"/>
<use x="45.633678" y="91.3889" xlink:href="#s"/>
<use x="231.928678" y="56.4389" xlink:href="#ab"/>
<use x="22.620678" y="56.4389" xlink:href="#c"/>
<use x="28.623678" y="56.4389" xlink:href="#a"/>
<use x="33.627678" y="56.4389" xlink:href="#b"/>
<use x="35.625678" y="56.4389" xlink:href="#d"/>
<use x="38.127678" y="56.4389" xlink:href="#a"/>
<use x="43.131678" y="56.4389" xlink:href="#glyph-0-13"/>
<use x="45.633678" y="56.4389" xlink:href="#r"/>
<use x="155.626678" y="91.3889" xlink:href="#p"/>
<use x="132.928678" y="91.3889" xlink:href="#y"/>
<use x="22.620678" y="109.3889" xlink:href="#c"/>
<use x="28.623678" y="109.3889" xlink:href="#a"/>
<use x="33.627678" y="109.3889" xlink:href="#b"/>
<use x="35.625678" y="109.3889" xlink:href="#d"/>
<use x="38.127678" y="109.3889" xlink:href="#a"/>
<use x="43.131678" y="109.3889" xlink:href="#glyph-0-13"/>
<use x="45.633678" y="109.3889" xlink:href="#t"/>
<use x="232.049678" y="146.4389" xlink:href="#u"/>
<use x="22.620678" y="163.3889" xlink:href="#c"/>
<use x="28.623678" y="163.3889" xlink:href="#a"/>
<use x="33.627678" y="163.3889" xlink:href="#b"/>
<use x="35.625678" y="163.3889" xlink:href="#d"/>
<use x="38.127678" y="163.3889" xlink:href="#a"/>
<use x="43.131678" y="163.3889" xlink:href="#glyph-0-13"/>
<use x="45.633678" y="163.3889" xlink:href="#n"/>
<use x="117.993678" y="9.0689" xlink:href="#c"/>
<use x="123.996678" y="9.0689" xlink:href="#a"/>
<use x="129.000678" y="9.0689" xlink:href="#b"/>
<use x="130.998678" y="9.0689" xlink:href="#d"/>
<use x="133.500678" y="9.0689" xlink:href="#a"/>
<use x="138.504678" y="9.0689" xlink:href="#g"/>
<use x="143.508678" y="9.0689" xlink:href="#ae"/>
<use x="116.877658" y="17.6189" xlink:href="#g"/>
<use x="121.881658" y="17.6189" xlink:href="#ad"/>
<use x="126.885658" y="17.6189" xlink:href="#h"/>
<use x="134.382658" y="17.6189" xlink:href="#h"/>
<use x="141.879658" y="17.6189" xlink:href="#a"/>
<use x="146.883658" y="17.6189" xlink:href="#e"/>
</g>
</svg>
