<svg width="380pt" height="310pt" version="1.1" viewBox="0 0 380 310" xmlns="http://www.w3.org/2000/svg" xmlns:xlink="http://www.w3.org/1999/xlink">
<defs>
<g id="r">
<path d="m5.3594-4.6406v-0.10938c0-0.39062-0.10938-0.75-0.35938-1.0781-0.40625-0.54688-1.0938-0.84375-2.0312-0.84375-1.4531 0-2.3438 0.73438-2.3438 1.9219 0 0.8125 0.42188 1.3125 1.2969 1.5312l1.625 0.4375c0.84375 0.21875 1.2031 0.54688 1.2031 1.0625 0 0.34375-0.1875 0.70312-0.46875 0.90625-0.26562 0.1875-0.67188 0.28125-1.2031 0.28125-0.71875 0-1.2031-0.17188-1.5156-0.54688-0.23438-0.29688-0.34375-0.60938-0.34375-1.0156h-0.78125c0 0.60938 0.125 1 0.375 1.3594 0.45312 0.625 1.2188 0.9375 2.2188 0.9375 0.78125 0 1.4219-0.17188 1.8438-0.5 0.4375-0.34375 0.71875-0.9375 0.71875-1.5 0-0.8125-0.51562-1.4062-1.4062-1.6562l-1.6406-0.4375c-0.79688-0.21875-1.0781-0.46875-1.0781-0.96875 0-0.67188 0.57812-1.1094 1.4688-1.1094 1.0469 0 1.625 0.46875 1.6406 1.3281z"/>
</g>
<g id="c">
<path d="m4.6094-2.1094c0-0.71875-0.046875-1.1562-0.1875-1.5-0.29688-0.78125-1.0156-1.2344-1.9062-1.2344-1.3125 0-2.1562 0.98438-2.1562 2.5469s0.8125 2.5 2.1406 2.5c1.0781 0 1.8281-0.60938 2.0156-1.6406h-0.75c-0.20312 0.625-0.64062 0.95312-1.2344 0.95312-0.48438 0-0.89062-0.21875-1.1406-0.60938-0.17188-0.28125-0.23438-0.54688-0.25-1.0156zm-3.4531-0.60938c0.0625-0.875 0.59375-1.4375 1.3594-1.4375s1.2969 0.59375 1.2969 1.4375z"/>
</g>
<g id="m">
<path d="m1.3438-4.7188h-0.73438v4.7188h0.73438zm0-1.8438h-0.75v0.95312h0.75z"/>
</g>
<g id="l">
<path d="m2.2812-4.7188h-0.76562v-1.2969h-0.75v1.2969h-0.64062v0.60938h0.64062v3.5625c0 0.5 0.32812 0.75 0.90625 0.75 0.20312 0 0.35938-0.015625 0.60938-0.0625v-0.625c-0.10938 0.03125-0.20312 0.03125-0.35938 0.03125-0.3125 0-0.40625-0.09375-0.40625-0.42188v-3.2344h0.76562z"/>
</g>
<g id="f">
<path d="m0.625-4.7188v4.7188h0.76562v-2.5938c0-0.96875 0.5-1.5938 1.2656-1.5938 0.60938 0 0.98438 0.35938 0.98438 0.92188v3.2656h0.75v-3.5625c0-0.78125-0.59375-1.2812-1.5-1.2812-0.70312 0-1.1562 0.26562-1.5625 0.92188v-0.79688z"/>
</g>
<g id="e">
<path d="m4.8125-0.4375c-0.078125 0.015625-0.10938 0.015625-0.15625 0.015625-0.26562 0-0.40625-0.14062-0.40625-0.375v-2.7656c0-0.84375-0.60938-1.2812-1.7812-1.2812-0.6875 0-1.2344 0.1875-1.5625 0.54688-0.21875 0.23438-0.29688 0.51562-0.32812 0.96875h0.76562c0.0625-0.5625 0.40625-0.82812 1.1094-0.82812 0.67188 0 1.0469 0.25 1.0469 0.70312v0.1875c0 0.32812-0.1875 0.45312-0.78125 0.53125-1.0625 0.14062-1.2188 0.17188-1.5156 0.28125-0.54688 0.23438-0.82812 0.65625-0.82812 1.2656 0 0.85938 0.59375 1.3906 1.5469 1.3906 0.59375 0 1.0781-0.20312 1.6094-0.6875 0.046875 0.48438 0.28125 0.6875 0.76562 0.6875 0.17188 0 0.26562-0.015625 0.51562-0.078125zm-1.3125-1.0469c0 0.25-0.078125 0.40625-0.29688 0.60938-0.3125 0.28125-0.67188 0.42188-1.1094 0.42188-0.59375 0-0.9375-0.28125-0.9375-0.75 0-0.5 0.32812-0.75 1.1406-0.85938 0.79688-0.10938 0.95312-0.15625 1.2031-0.26562z"/>
</g>
<g id="s">
<path d="m0.48438-6.5625v6.5625h0.67188v-0.60938c0.35938 0.5625 0.84375 0.8125 1.5 0.8125 1.2344 0 2.0469-1.0156 2.0469-2.5781 0-1.5312-0.76562-2.4688-2.0156-2.4688-0.64062 0-1.1094 0.23438-1.4531 0.76562v-2.4844zm2.0625 2.4062c0.84375 0 1.375 0.73438 1.375 1.8594 0 1.0781-0.5625 1.7969-1.375 1.7969-0.79688 0-1.3125-0.71875-1.3125-1.8281 0-1.0938 0.51562-1.8281 1.3125-1.8281z"/>
</g>
<g id="j">
<path d="m1.375-6.5625h-0.76562v6.5625h0.76562z"/>
</g>
<g id="a">
<path d="m2.4688-6.375c-0.59375 0-1.125 0.25-1.4531 0.70312-0.42188 0.54688-0.625 1.4062-0.625 2.5781 0 2.1719 0.71875 3.2969 2.0781 3.2969s2.0938-1.1406 2.0938-3.2344c0-1.25-0.20312-2.0781-0.625-2.6406-0.32812-0.45312-0.85938-0.70312-1.4688-0.70312zm0 0.70312c0.85938 0 1.2812 0.84375 1.2812 2.5625 0 1.8125-0.40625 2.6562-1.2969 2.6562-0.82812 0-1.25-0.875-1.25-2.625s0.42188-2.5938 1.2656-2.5938z"/>
</g>
<g id="b">
<path d="m2.3281-4.5469v4.5469h0.79688v-6.375h-0.53125c-0.26562 0.96875-0.45312 1.1094-1.6719 1.2656v0.5625z"/>
</g>
<g id="ab">
<path d="m2.4531-4.8438c-1.3438 0-2.125 0.9375-2.125 2.5156 0 1.5938 0.78125 2.5312 2.125 2.5312 1.3281 0 2.1406-0.9375 2.1406-2.4844 0-1.6406-0.78125-2.5625-2.1406-2.5625zm0 0.6875c0.84375 0 1.3594 0.6875 1.3594 1.8594 0 1.125-0.53125 1.8125-1.3594 1.8125s-1.3438-0.6875-1.3438-1.8438c0-1.1406 0.51562-1.8281 1.3438-1.8281z"/>
</g>
<g id="aa">
<path d="m3.7031-4.7188v0.6875c-0.375-0.5625-0.82812-0.8125-1.4375-0.8125-1.1875 0-2 1.0312-2 2.5625 0 0.78125 0.20312 1.4062 0.59375 1.8594 0.34375 0.39062 0.84375 0.625 1.3438 0.625 0.59375 0 1.0156-0.25 1.4375-0.84375v0.25c0 0.64062-0.078125 1.0156-0.28125 1.2812-0.1875 0.28125-0.57812 0.4375-1.0312 0.4375-0.34375 0-0.65625-0.09375-0.85938-0.25-0.17188-0.14062-0.25-0.26562-0.29688-0.53125h-0.76562c0.09375 0.89062 0.78125 1.4219 1.8906 1.4219 0.70312 0 1.2969-0.23438 1.6094-0.60938 0.35938-0.4375 0.5-1.0312 0.5-2.1406v-3.9375zm-1.3594 0.5625c0.8125 0 1.2969 0.6875 1.2969 1.8594 0 1.125-0.48438 1.8125-1.2812 1.8125-0.82812 0-1.3125-0.6875-1.3125-1.8438 0-1.125 0.48438-1.8281 1.2969-1.8281z"/>
</g>
<g id="q">
<path d="m1.7188-0.9375h-0.9375v0.9375h0.9375z"/>
</g>
<g id="p">
<path d="m4.2656-1.9688 0.67188 1.9688h0.9375l-2.2969-6.5625h-1.0781l-2.3438 6.5625h0.89062l0.6875-1.9688zm-0.23438-0.70312h-2.0938l1.0938-2.9844z"/>
</g>
<g id="o">
<path d="m4.4531-6.5625h-0.75v2.4375c-0.3125-0.46875-0.8125-0.71875-1.4375-0.71875-1.2344 0-2.0312 0.96875-2.0312 2.4688 0 1.5938 0.78125 2.5781 2.0469 2.5781 0.65625 0 1.1094-0.23438 1.5-0.82812v0.625h0.67188zm-2.0625 2.4062c0.79688 0 1.3125 0.71875 1.3125 1.8594 0 1.0781-0.51562 1.7969-1.3125 1.7969-0.82812 0-1.375-0.71875-1.375-1.8281 0-1.0938 0.54688-1.8281 1.375-1.8281z"/>
</g>
<g id="k">
<path d="m0.625-4.7188v4.7188h0.75v-2.4531c0-0.67188 0.17188-1.1094 0.53125-1.375 0.23438-0.17188 0.45312-0.21875 0.98438-0.23438v-0.76562c-0.125-0.015625-0.20312-0.015625-0.29688-0.015625-0.48438 0-0.84375 0.28125-1.2812 0.98438v-0.85938z"/>
</g>
<g id="i">
<path d="m3.9375-3.4062c0-0.92188-0.60938-1.4375-1.7031-1.4375s-1.8125 0.5625-1.8125 1.4375c0 0.73438 0.375 1.0781 1.5 1.3594l0.70312 0.17188c0.51562 0.125 0.71875 0.3125 0.71875 0.64062 0 0.45312-0.4375 0.75-1.0938 0.75-0.40625 0-0.75-0.125-0.9375-0.3125-0.10938-0.14062-0.17188-0.28125-0.21875-0.60938h-0.78125c0.03125 1.0938 0.64062 1.6094 1.875 1.6094 1.1875 0 1.9375-0.57812 1.9375-1.4844 0-0.70312-0.39062-1.0938-1.3281-1.3125l-0.71875-0.17188c-0.60938-0.15625-0.875-0.34375-0.875-0.6875 0-0.4375 0.39062-0.70312 1-0.70312s0.92188 0.26562 0.95312 0.75z"/>
</g>
<g id="n">
<path d="m0.48438 1.9688h0.75v-2.4688c0.40625 0.48438 0.84375 0.70312 1.4531 0.70312 1.2344 0 2.0156-0.98438 2.0156-2.4844 0-1.5781-0.76562-2.5625-2.0156-2.5625-0.64062 0-1.1562 0.28125-1.5156 0.84375v-0.71875h-0.6875zm2.0781-6.125c0.82812 0 1.3594 0.73438 1.3594 1.8594 0 1.0781-0.54688 1.7969-1.3594 1.7969s-1.3281-0.71875-1.3281-1.8281c0-1.0938 0.51562-1.8281 1.3281-1.8281z"/>
</g>
<g id="d">
<path d="m0.625-6.5625v6.5625h0.75v-2.5938c0-0.96875 0.5-1.5938 1.2812-1.5938 0.25 0 0.48438 0.0625 0.67188 0.20312 0.20312 0.15625 0.29688 0.39062 0.29688 0.71875v3.2656h0.75v-3.5625c0-0.79688-0.5625-1.2812-1.4844-1.2812-0.67188 0-1.0781 0.20312-1.5156 0.78125v-2.5z"/>
</g>
<g id="z">
<path d="m3.4844-4.7188-1.2969 3.6719-1.2031-3.6719h-0.79688l1.5781 4.7344-0.28125 0.75c-0.10938 0.32812-0.28125 0.45312-0.60938 0.45312-0.125 0-0.23438-0.015625-0.39062-0.046875v0.67188c0.15625 0.078125 0.3125 0.125 0.5 0.125 0.57812 0 0.98438-0.32812 1.2188-0.98438l2.0938-5.7031z"/>
</g>
<g id="y">
<path d="m4.2344-3.125c-0.03125-0.46875-0.125-0.76562-0.3125-1.0312-0.32812-0.4375-0.89062-0.6875-1.5469-0.6875-1.2812 0-2.0938 1-2.0938 2.5625 0 1.5312 0.8125 2.4844 2.0781 2.4844 1.125 0 1.8438-0.67188 1.9375-1.8281h-0.76562c-0.125 0.76562-0.5 1.1406-1.1406 1.1406-0.82812 0-1.3281-0.67188-1.3281-1.7969 0-1.1719 0.48438-1.875 1.2969-1.875 0.64062 0 1.0312 0.375 1.125 1.0312z"/>
</g>
<g id="h">
<path d="m1.6719-2.8281h2.1562c0.75 0 1.0781 0.35938 1.0781 1.1719v0.57812c0 0.40625 0.078125 0.8125 0.1875 1.0781h1.0156v-0.20312c-0.3125-0.21875-0.375-0.45312-0.39062-1.3281-0.015625-1.0781-0.1875-1.4062-0.89062-1.7031 0.73438-0.375 1.0312-0.8125 1.0312-1.5781 0-1.125-0.70312-1.75-2-1.75h-3.0156v6.5625h0.82812zm0-0.73438v-2.2656h2.0312c0.46875 0 0.73438 0.078125 0.9375 0.25 0.23438 0.20312 0.34375 0.5 0.34375 0.875 0 0.78125-0.39062 1.1406-1.2812 1.1406z"/>
</g>
<g id="g">
<path d="m0.625-4.7188v4.7188h0.76562v-2.9688c0-0.67188 0.48438-1.2188 1.1094-1.2188 0.54688 0 0.85938 0.32812 0.85938 0.9375v3.25h0.76562v-2.9688c0-0.67188 0.48438-1.2188 1.1094-1.2188 0.54688 0 0.875 0.34375 0.875 0.9375v3.25h0.75v-3.5312c0-0.85938-0.48438-1.3125-1.375-1.3125-0.625 0-1 0.1875-1.4375 0.71875-0.28125-0.51562-0.65625-0.71875-1.2812-0.71875s-1.0469 0.23438-1.4375 0.79688v-0.67188z"/>
</g>
<g id="x">
<path d="m4.5469-0.78125h-3.3438c0.078125-0.53125 0.35938-0.85938 1.1406-1.3125l0.90625-0.48438c0.89062-0.48438 1.3438-1.1406 1.3438-1.9375 0-0.53125-0.20312-1.0156-0.59375-1.375-0.375-0.32812-0.82812-0.48438-1.4375-0.48438-0.8125 0-1.4219 0.26562-1.7656 0.82812-0.23438 0.32812-0.32812 0.73438-0.34375 1.375h0.78125c0.03125-0.42188 0.09375-0.6875 0.20312-0.89062 0.20312-0.39062 0.60938-0.625 1.0938-0.625 0.71875 0 1.25 0.51562 1.25 1.2031 0 0.5-0.29688 0.92188-0.85938 1.25l-0.82812 0.46875c-1.3281 0.76562-1.7188 1.3594-1.7812 2.7656h4.2344z"/>
</g>
<g id="w">
<path d="m1.9844-2.9219h0.10938l0.32812-0.015625c0.875 0 1.3281 0.40625 1.3281 1.1719 0 0.79688-0.5 1.2656-1.3281 1.2656-0.85938 0-1.2812-0.42188-1.3438-1.3594h-0.79688c0.046875 0.51562 0.125 0.84375 0.28125 1.1406 0.32812 0.60938 0.95312 0.92188 1.8281 0.92188 1.3125 0 2.1562-0.78125 2.1562-1.9844 0-0.8125-0.3125-1.2656-1.0781-1.5156 0.59375-0.25 0.89062-0.6875 0.89062-1.3281 0-1.0938-0.71875-1.75-1.9375-1.75-1.2812 0-1.9688 0.70312-2 2.0625h0.79688c0-0.39062 0.046875-0.60938 0.14062-0.8125 0.17188-0.34375 0.57812-0.5625 1.0781-0.5625 0.6875 0 1.125 0.40625 1.125 1.0938 0 0.4375-0.17188 0.71875-0.51562 0.85938-0.21875 0.09375-0.5 0.125-1.0625 0.14062z"/>
</g>
<g id="v">
<path d="m4.2812-6.375h-3.2969l-0.46875 3.4688h0.71875c0.375-0.4375 0.6875-0.59375 1.1875-0.59375 0.85938 0 1.3906 0.57812 1.3906 1.5312 0 0.92188-0.53125 1.4688-1.4062 1.4688-0.6875 0-1.1094-0.34375-1.2969-1.0625h-0.79688c0.10938 0.51562 0.20312 0.76562 0.39062 1 0.35938 0.48438 1 0.76562 1.7344 0.76562 1.2812 0 2.1719-0.9375 2.1719-2.2812 0-1.2656-0.82812-2.125-2.0469-2.125-0.45312 0-0.8125 0.10938-1.1875 0.39062l0.25-1.7812h2.6562z"/>
</g>
<g id="u">
<path d="m4.4844-4.7188c-0.15625-1.0469-0.84375-1.6562-1.8125-1.6562-0.70312 0-1.3281 0.32812-1.7031 0.90625-0.40625 0.625-0.57812 1.4062-0.57812 2.5625 0 1.0781 0.15625 1.75 0.53125 2.3281 0.34375 0.5 0.90625 0.78125 1.6094 0.78125 1.2188 0 2.0781-0.89062 2.0781-2.1406 0-1.1875-0.79688-2.0312-1.9531-2.0312-0.625 0-1.125 0.25-1.4531 0.70312 0-1.5469 0.5-2.4062 1.4219-2.4062 0.54688 0 0.9375 0.34375 1.0625 0.95312zm-1.9219 1.4531c0.76562 0 1.25 0.53125 1.25 1.3906 0 0.79688-0.54688 1.375-1.2812 1.375s-1.2969-0.60938-1.2969-1.4219c0-0.79688 0.54688-1.3438 1.3281-1.3438z"/>
</g>
<g id="t">
<path d="m4.6875-6.375h-4.2812v0.78125h3.4531c-1.5156 2.1719-2.1406 3.5-2.625 5.5938h0.85938c0.34375-2.0469 1.1406-3.7969 2.5938-5.7188z"/>
</g>
<clipPath id="ak">
<path d="m18 73h24v100h-24z"/>
</clipPath>
<clipPath id="aj">
<path d="m0.52734-0.53516v311h380v-311zm36.82 173.6h4.5312v-1.8008h-4.5312l3.6016 0.89844z" clip-rule="evenodd"/>
</clipPath>
<clipPath id="ai">
<path d="m135 118h47v55h-47z"/>
</clipPath>
<clipPath id="ah">
<path d="m0.52734-0.53516v311h380v-311zm181.3 122.78v-4.5312h-1.8008v4.5312l0.90234-3.6016z" clip-rule="evenodd"/>
</clipPath>
<clipPath id="ag">
<path d="m54 73h164v28h-164z"/>
</clipPath>
<clipPath id="af">
<path d="m0.52734-0.53516v311h380v-311zm215.5 96.621v4.5273h1.8008v-4.5273l-0.89844 3.5977z" clip-rule="evenodd"/>
</clipPath>
<clipPath id="ae">
<path d="m234 109h74v53h-74z"/>
</clipPath>
<clipPath id="ad">
<path d="m0.52734-0.53516v311h380v-311zm302.32 162.35h4.5312v-1.8008h-4.5312l3.6016 0.89844z" clip-rule="evenodd"/>
</clipPath>
<clipPath id="ac">
<path d="m0.52734 55h73.473v19h-73.473z"/>
</clipPath>
</defs>
<path transform="matrix(.1 0 0 -.1 .528 310.46)" d="m3064 1518h720" fill="none" stroke="#000" stroke-miterlimit="10" stroke-width="2.25"/>
<path transform="matrix(.1 0 0 -.1 .528 310.46)" d="m3064 1293h720" fill="none" stroke="#000" stroke-miterlimit="10" stroke-width="9"/>
<path transform="matrix(.1 0 0 -.1 .528 310.46)" d="m3064 933.01h720" fill="none" stroke="#000" stroke-miterlimit="10" stroke-width="9"/>
<path transform="matrix(.1 0 0 -.1 .528 310.46)" d="m3064 2373h720" fill="none" stroke="#000" stroke-miterlimit="10" stroke-width="9"/>
<path transform="matrix(.1 0 0 -.1 .528 310.46)" d="m3064 573.01h720" fill="none" stroke="#000" stroke-miterlimit="10" stroke-width="9"/>
<path transform="matrix(.1 0 0 -.1 .528 310.46)" d="m3064 1608h720" fill="none" stroke="#000" stroke-miterlimit="10" stroke-width="2.25"/>
<path transform="matrix(.1 0 0 -.1 .528 310.46)" d="m3064 1563h720" fill="none" stroke="#000" stroke-miterlimit="10" stroke-width="2.25"/>
<path transform="matrix(.1 0 0 -.1 .528 310.46)" d="m3064 1428h720" fill="none" stroke="#000" stroke-miterlimit="10" stroke-width="2.25"/>
<path transform="matrix(.1 0 0 -.1 .528 310.46)" d="m3064 1383h720" fill="none" stroke="#000" stroke-miterlimit="10" stroke-width="2.25"/>
<path transform="matrix(.1 0 0 -.1 .528 310.46)" d="m3064 1338h720" fill="none" stroke="#000" stroke-miterlimit="10" stroke-width="2.25"/>
<path transform="matrix(.1 0 0 -.1 .528 310.46)" d="m3064 2013h720" fill="none" stroke="#000" stroke-miterlimit="10" stroke-width="9"/>
<path transform="matrix(.1 0 0 -.1 .528 310.46)" d="m3064 2733h720" fill="none" stroke="#000" stroke-miterlimit="10" stroke-width="9"/>
<path transform="matrix(.1 0 0 -.1 .528 310.46)" d="m3064 1473h720" fill="none" stroke="#000" stroke-miterlimit="10" stroke-width="2.25"/>
<path transform="matrix(.1 0 0 -.1 .528 310.46)" d="m3064 1653h720" fill="none" stroke="#000" stroke-miterlimit="10" stroke-width="9"/>
<g>
<use x="73.9143" y="121.765" xlink:href="#r"/>
<use x="79.9173" y="121.765" xlink:href="#c"/>
<use x="84.9213" y="121.765" xlink:href="#m"/>
<use x="86.9193" y="121.765" xlink:href="#l"/>
<use x="89.4213" y="121.765" xlink:href="#c"/>
<use x="94.4253" y="121.765" xlink:href="#f"/>
<use x="99.4293" y="121.765" xlink:href="#l"/>
<use x="101.9313" y="121.765" xlink:href="#e"/>
<use x="106.9353" y="121.765" xlink:href="#s"/>
<use x="111.9393" y="121.765" xlink:href="#c"/>
<use x="116.9433" y="121.765" xlink:href="#j"/>
<use x="118.9413" y="121.765" xlink:href="#j"/>
<use x="120.9393" y="121.765" xlink:href="#c"/>
<use x="44.4163" y="139.315" xlink:href="#a"/>
<use x="49.4203" y="139.315" xlink:href="#a"/>
<use x="54.4243" y="139.315" xlink:href="#a"/>
<use x="44.4163" y="157.765" xlink:href="#a"/>
<use x="49.4203" y="157.765" xlink:href="#a"/>
<use x="54.4243" y="157.765" xlink:href="#b"/>
<use x="44.4163" y="175.765" xlink:href="#a"/>
<use x="49.4203" y="175.765" xlink:href="#b"/>
<use x="54.4243" y="175.765" xlink:href="#a"/>
<use x="44.4163" y="193.315" xlink:href="#a"/>
<use x="49.4203" y="193.315" xlink:href="#b"/>
<use x="54.4243" y="193.315" xlink:href="#b"/>
<use x="44.4163" y="211.315" xlink:href="#b"/>
<use x="49.4203" y="211.315" xlink:href="#a"/>
<use x="54.4243" y="211.315" xlink:href="#a"/>
</g>
<g clip-path="url(#ak)">
<g clip-path="url(#aj)">
<path transform="matrix(.1 0 0 -.1 .528 310.46)" d="m184.02 2373v-990h225" fill="none" stroke="#000" stroke-miterlimit="10" stroke-width="2.25"/>
</g>
</g>
<path d="m37.348 173.07 3.6016-0.90234-3.6016-0.89844v1.8008" fill-rule="evenodd"/>
<path transform="matrix(.1 0 0 -.1 .528 310.46)" d="m368.2 1374 36.016 9.0234-36.016 8.9844z" fill="none" stroke="#000" stroke-miterlimit="10" stroke-width="2.25"/>
<g clip-path="url(#ai)">
<g clip-path="url(#ah)">
<path transform="matrix(.1 0 0 -.1 .528 310.46)" d="m1354 1383h450v540" fill="none" stroke="#000" stroke-miterlimit="10" stroke-width="2.25"/>
</g>
</g>
<path d="m181.83 122.25-0.89844-3.6016-0.90234 3.6016h1.8008" fill-rule="evenodd"/>
<path transform="matrix(.1 0 0 -.1 .528 310.46)" d="m1813 1882.2-8.9844 36.016-9.0234-36.016z" fill="none" stroke="#000" stroke-miterlimit="10" stroke-width="2.25"/>
<path transform="matrix(.1 0 0 -.1 .528 310.46)" d="m1624 1923h720v180h-720z" fill="none" stroke="#000" stroke-miterlimit="10" stroke-width="2.25"/>
<path transform="matrix(.1 0 0 -.1 .528 310.46)" d="m1984 2103v-180" fill="none" stroke="#000" stroke-miterlimit="10" stroke-width="2.25"/>
<g clip-path="url(#ag)">
<g clip-path="url(#af)">
<path transform="matrix(.1 0 0 -.1 .528 310.46)" d="m544.02 2373v-90h1620v-180" fill="none" stroke="#000" stroke-miterlimit="10" stroke-width="2.25"/>
</g>
</g>
<path d="m216.03 96.086 0.90234 3.5977 0.89844-3.5977h-1.8008" fill-rule="evenodd"/>
<path transform="matrix(.1 0 0 -.1 .528 310.46)" d="m2155 2143.8 9.0234-35.977 8.9844 35.977z" fill="none" stroke="#000" stroke-miterlimit="10" stroke-width="2.25"/>
<path transform="matrix(.1 0 0 -.1 .528 310.46)" d="m3064 213.01h720v2880h-720z" fill="none" stroke="#000" stroke-miterlimit="10" stroke-width="9"/>
<g clip-path="url(#ae)">
<g clip-path="url(#ad)">
<path transform="matrix(.1 0 0 -.1 .528 310.46)" d="m2344 2013h360v-517.5h360" fill="none" stroke="#000" stroke-miterlimit="10" stroke-width="2.25"/>
</g>
</g>
<path d="m302.85 161.82 3.6016-0.90234-3.6016-0.89844v1.8008" fill-rule="evenodd"/>
<path transform="matrix(.1 0 0 -.1 .528 310.46)" d="m3023.2 1486.5 36.016 9.0234-36.016 8.9844z" fill="none" stroke="#000" stroke-miterlimit="10" stroke-width="2.25"/>
<path transform="matrix(.1 0 0 -.1 .528 310.46)" d="m3064 1473h720v45h-720z" fill="#bfbfbf" fill-rule="evenodd" stroke="#000" stroke-miterlimit="10" stroke-width="2.25"/>
<g>
<use x="11.9178" y="49.315" xlink:href="#j"/>
<use x="13.9158" y="49.315" xlink:href="#ab"/>
<use x="18.9198" y="49.315" xlink:href="#aa"/>
<use x="23.9238" y="49.315" xlink:href="#q"/>
<use x="26.4258" y="49.315" xlink:href="#glyph-0-14"/>
<use x="28.9278" y="49.315" xlink:href="#p"/>
<use x="34.9308" y="49.315" xlink:href="#o"/>
<use x="39.9348" y="49.315" xlink:href="#k"/>
<use x="42.9318" y="49.315" xlink:href="#c"/>
<use x="47.9358" y="49.315" xlink:href="#i"/>
<use x="52.4358" y="49.315" xlink:href="#i"/>
<use x="56.9358" y="49.315" xlink:href="#c"/>
<use x="188.4168" y="131.665" xlink:href="#n"/>
<use x="193.4208" y="131.665" xlink:href="#d"/>
<use x="198.4248" y="131.665" xlink:href="#z"/>
<use x="202.9248" y="131.665" xlink:href="#i"/>
<use x="207.4248" y="131.665" xlink:href="#q"/>
<use x="209.9268" y="131.665" xlink:href="#glyph-0-14"/>
<use x="212.4288" y="131.665" xlink:href="#p"/>
<use x="218.4318" y="131.665" xlink:href="#o"/>
<use x="223.4358" y="131.665" xlink:href="#k"/>
<use x="226.4328" y="131.665" xlink:href="#c"/>
<use x="231.4368" y="131.665" xlink:href="#i"/>
<use x="235.9368" y="131.665" xlink:href="#i"/>
<use x="240.4368" y="131.665" xlink:href="#c"/>
<use x="209.4219" y="112.315" xlink:href="#a"/>
<use x="214.4259" y="112.315" xlink:href="#b"/>
<use x="219.4299" y="112.315" xlink:href="#b"/>
<use x="173.4219" y="112.315" xlink:href="#b"/>
<use x="178.4259" y="112.315" xlink:href="#a"/>
<use x="183.4299" y="112.315" xlink:href="#a"/>
<use x="325.1719" y="307.165" xlink:href="#r"/>
<use x="331.1749" y="307.165" xlink:href="#n"/>
<use x="336.1789" y="307.165" xlink:href="#c"/>
<use x="341.1829" y="307.165" xlink:href="#m"/>
<use x="343.1809" y="307.165" xlink:href="#y"/>
<use x="347.6809" y="307.165" xlink:href="#d"/>
<use x="352.6849" y="307.165" xlink:href="#c"/>
<use x="357.6889" y="307.165" xlink:href="#k"/>
<use x="322.16995" y="21.415" xlink:href="#h"/>
<use x="328.66795" y="21.415" xlink:href="#e"/>
<use x="333.67195" y="21.415" xlink:href="#d"/>
<use x="338.67595" y="21.415" xlink:href="#g"/>
<use x="346.17295" y="21.415" xlink:href="#c"/>
<use x="351.17695" y="21.415" xlink:href="#f"/>
<use x="356.18095" y="21.415" xlink:href="#glyph-0-14"/>
<use x="358.68295" y="21.415" xlink:href="#a"/>
<use x="322.16995" y="57.415" xlink:href="#h"/>
<use x="328.66795" y="57.415" xlink:href="#e"/>
<use x="333.67195" y="57.415" xlink:href="#d"/>
<use x="338.67595" y="57.415" xlink:href="#g"/>
<use x="346.17295" y="57.415" xlink:href="#c"/>
<use x="351.17695" y="57.415" xlink:href="#f"/>
<use x="356.18095" y="57.415" xlink:href="#glyph-0-14"/>
<use x="358.68295" y="57.415" xlink:href="#b"/>
<use x="322.16995" y="93.415" xlink:href="#h"/>
<use x="328.66795" y="93.415" xlink:href="#e"/>
<use x="333.67195" y="93.415" xlink:href="#d"/>
<use x="338.67595" y="93.415" xlink:href="#g"/>
<use x="346.17295" y="93.415" xlink:href="#c"/>
<use x="351.17695" y="93.415" xlink:href="#f"/>
<use x="356.18095" y="93.415" xlink:href="#glyph-0-14"/>
<use x="358.68295" y="93.415" xlink:href="#x"/>
<use x="322.16995" y="129.415" xlink:href="#h"/>
<use x="328.66795" y="129.415" xlink:href="#e"/>
<use x="333.67195" y="129.415" xlink:href="#d"/>
<use x="338.67595" y="129.415" xlink:href="#g"/>
<use x="346.17295" y="129.415" xlink:href="#c"/>
<use x="351.17695" y="129.415" xlink:href="#f"/>
<use x="356.18095" y="129.415" xlink:href="#glyph-0-14"/>
<use x="358.68295" y="129.415" xlink:href="#w"/>
<use x="322.16995" y="201.415" xlink:href="#h"/>
<use x="328.66795" y="201.415" xlink:href="#e"/>
<use x="333.67195" y="201.415" xlink:href="#d"/>
<use x="338.67595" y="201.415" xlink:href="#g"/>
<use x="346.17295" y="201.415" xlink:href="#c"/>
<use x="351.17695" y="201.415" xlink:href="#f"/>
<use x="356.18095" y="201.415" xlink:href="#glyph-0-14"/>
<use x="358.68295" y="201.415" xlink:href="#v"/>
<use x="322.16995" y="237.415" xlink:href="#h"/>
<use x="328.66795" y="237.415" xlink:href="#e"/>
<use x="333.67195" y="237.415" xlink:href="#d"/>
<use x="338.67595" y="237.415" xlink:href="#g"/>
<use x="346.17295" y="237.415" xlink:href="#c"/>
<use x="351.17695" y="237.415" xlink:href="#f"/>
<use x="356.18095" y="237.415" xlink:href="#glyph-0-14"/>
<use x="358.68295" y="237.415" xlink:href="#u"/>
<use x="322.16995" y="273.415" xlink:href="#h"/>
<use x="328.66795" y="273.415" xlink:href="#e"/>
<use x="333.67195" y="273.415" xlink:href="#d"/>
<use x="338.67595" y="273.415" xlink:href="#g"/>
<use x="346.17295" y="273.415" xlink:href="#c"/>
<use x="351.17695" y="273.415" xlink:href="#f"/>
<use x="356.18095" y="273.415" xlink:href="#glyph-0-14"/>
<use x="358.68295" y="273.415" xlink:href="#t"/>
</g>
<g clip-path="url(#ac)">
<path transform="matrix(.1 0 0 -.1 .528 310.46)" d="m4.0169 2373h720v180h-720z" fill="none" stroke="#000" stroke-miterlimit="10" stroke-width="2.25"/>
</g>
<g>
<use x="274.655" y="158.665" xlink:href="#b"/>
<use x="279.659" y="158.665" xlink:href="#a"/>
<use x="284.663" y="158.665" xlink:href="#a"/>
<use x="289.667" y="158.665" xlink:href="#a"/>
<use x="294.671" y="158.665" xlink:href="#b"/>
<use x="299.675" y="158.665" xlink:href="#b"/>
</g>
<path transform="matrix(.1 0 0 -.1 .528 310.46)" d="m364.02 2553v-180" fill="none" stroke="#000" stroke-miterlimit="10" stroke-width="2.25"/>
<g>
<use x="11.4221" y="67.315" xlink:href="#a"/>
<use x="16.4261" y="67.315" xlink:href="#b"/>
<use x="21.4301" y="67.315" xlink:href="#a"/>
<use x="47.4221" y="67.315" xlink:href="#a"/>
<use x="52.4261" y="67.315" xlink:href="#b"/>
<use x="57.4301" y="67.315" xlink:href="#b"/>
</g>
<path transform="matrix(.1 0 0 -.1 .528 310.46)" d="m634.02 1653h720v180h-720z" fill="none" stroke="#000" stroke-miterlimit="10" stroke-width="2.25"/>
<path transform="matrix(.1 0 0 -.1 .528 310.46)" d="m634.02 1473h720v180h-720z" fill="none" stroke="#000" stroke-miterlimit="10" stroke-width="2.25"/>
<path transform="matrix(.1 0 0 -.1 .528 310.46)" d="m634.02 1293h720v180h-720z" fill="none" stroke="#000" stroke-miterlimit="10" stroke-width="2.25"/>
<path transform="matrix(.1 0 0 -.1 .528 310.46)" d="m634.02 1113h720v180h-720z" fill="none" stroke="#000" stroke-miterlimit="10" stroke-width="2.25"/>
<path transform="matrix(.1 0 0 -.1 .528 310.46)" d="m634.02 933.01h720v180h-720z" fill="none" stroke="#000" stroke-miterlimit="10" stroke-width="2.25"/>
<g>
<use x="92.4221" y="193.615" xlink:href="#a"/>
<use x="97.4261" y="193.615" xlink:href="#b"/>
<use x="102.4301" y="193.615" xlink:href="#b"/>
<use x="92.4221" y="157.615" xlink:href="#a"/>
<use x="97.4261" y="157.615" xlink:href="#a"/>
<use x="102.4301" y="157.615" xlink:href="#a"/>
<use x="92.4221" y="175.615" xlink:href="#b"/>
<use x="97.4261" y="175.615" xlink:href="#a"/>
<use x="102.4301" y="175.615" xlink:href="#a"/>
<use x="92.4221" y="211.615" xlink:href="#a"/>
<use x="97.4261" y="211.615" xlink:href="#b"/>
<use x="102.4301" y="211.615" xlink:href="#a"/>
<use x="92.4221" y="139.615" xlink:href="#b"/>
<use x="97.4261" y="139.615" xlink:href="#b"/>
<use x="102.4301" y="139.615" xlink:href="#b"/>
</g>
</svg>
