<svg width="388pt" height="181pt" version="1.1" viewBox="0 0 388 181" xmlns="http://www.w3.org/2000/svg" xmlns:xlink="http://www.w3.org/1999/xlink">
<defs>
<g id="f">
<path d="m1.7188-0.9375h-0.9375v0.9375h0.9375z"/>
</g>
<g id="p">
<path d="m4.3438 0v-4.7188h-0.75v2.6719c0 0.96875-0.5 1.5938-1.2969 1.5938-0.59375 0-0.96875-0.35938-0.96875-0.92188v-3.3438h-0.75v3.6406c0 0.78125 0.59375 1.2812 1.5156 1.2812 0.6875 0 1.125-0.23438 1.5625-0.85938v0.65625z"/>
</g>
<g id="k">
<path d="m4.2656-1.9688 0.67188 1.9688h0.9375l-2.2969-6.5625h-1.0781l-2.3438 6.5625h0.89062l0.6875-1.9688zm-0.23438-0.70312h-2.0938l1.0938-2.9844z"/>
</g>
<g id="j">
<path d="m4.4531-6.5625h-0.75v2.4375c-0.3125-0.46875-0.8125-0.71875-1.4375-0.71875-1.2344 0-2.0312 0.96875-2.0312 2.4844 0 1.5781 0.78125 2.5625 2.0469 2.5625 0.65625 0 1.1094-0.23438 1.5-0.82812v0.625h0.67188zm-2.0625 2.4062c0.79688 0 1.3125 0.73438 1.3125 1.8594 0 1.0781-0.51562 1.7969-1.3125 1.7969-0.82812 0-1.375-0.71875-1.375-1.8281 0-1.0938 0.54688-1.8281 1.375-1.8281z"/>
</g>
<g id="e">
<path d="m0.625-4.7188v4.7188h0.75v-2.4531c0-0.67188 0.17188-1.1094 0.53125-1.375 0.23438-0.17188 0.45312-0.21875 0.98438-0.23438v-0.76562c-0.125-0.015625-0.1875-0.015625-0.29688-0.015625-0.48438 0-0.84375 0.28125-1.2812 0.98438v-0.85938z"/>
</g>
<g id="c">
<path d="m4.6094-2.1094c0-0.71875-0.046875-1.1562-0.1875-1.5-0.29688-0.78125-1.0156-1.2344-1.9062-1.2344-1.3125 0-2.1562 1-2.1562 2.5469s0.8125 2.5 2.1406 2.5c1.0781 0 1.8281-0.60938 2.0156-1.6406h-0.75c-0.20312 0.625-0.64062 0.95312-1.2344 0.95312-0.48438 0-0.89062-0.21875-1.1406-0.60938-0.17188-0.28125-0.23438-0.54688-0.25-1.0156zm-3.4531-0.60938c0.0625-0.875 0.59375-1.4375 1.3594-1.4375 0.73438 0 1.2969 0.60938 1.2969 1.3906v0.046875z"/>
</g>
<g id="d">
<path d="m3.9375-3.4062c0-0.92188-0.60938-1.4375-1.7031-1.4375s-1.8125 0.5625-1.8125 1.4375c0 0.73438 0.375 1.0781 1.5 1.3594l0.70312 0.17188c0.51562 0.125 0.71875 0.3125 0.71875 0.65625 0 0.4375-0.4375 0.73438-1.0938 0.73438-0.40625 0-0.75-0.125-0.9375-0.3125-0.10938-0.14062-0.17188-0.28125-0.21875-0.60938h-0.78125c0.03125 1.0938 0.64062 1.6094 1.875 1.6094 1.1875 0 1.9375-0.57812 1.9375-1.4844 0-0.70312-0.39062-1.0938-1.3281-1.3125l-0.71875-0.17188c-0.60938-0.15625-0.875-0.34375-0.875-0.6875 0-0.42188 0.39062-0.70312 1-0.70312s0.92188 0.26562 0.95312 0.75z"/>
</g>
<g id="s">
<path d="m1.375-6.5625h-0.76562v6.5625h0.76562z"/>
</g>
<g id="r">
<path d="m2.4531-4.8438c-1.3281 0-2.125 0.9375-2.125 2.5156 0 1.5938 0.78125 2.5312 2.125 2.5312 1.3281 0 2.1406-0.9375 2.1406-2.4844 0-1.6406-0.78125-2.5625-2.1406-2.5625zm0 0.6875c0.84375 0 1.3594 0.6875 1.3594 1.8594 0 1.1094-0.53125 1.8125-1.3594 1.8125s-1.3438-0.6875-1.3438-1.8438c0-1.125 0.51562-1.8281 1.3438-1.8281z"/>
</g>
<g id="i">
<path d="m3.7031-4.7188v0.6875c-0.375-0.5625-0.82812-0.8125-1.4375-0.8125-1.1875 0-2 1.0312-2 2.5625 0 0.78125 0.20312 1.4062 0.59375 1.8594 0.34375 0.39062 0.84375 0.625 1.3438 0.625 0.59375 0 1.0156-0.25 1.4375-0.84375v0.25c0 0.64062-0.078125 1.0156-0.28125 1.2812-0.1875 0.28125-0.57812 0.4375-1.0312 0.4375-0.34375 0-0.65625-0.09375-0.85938-0.25-0.17188-0.14062-0.25-0.26562-0.29688-0.53125h-0.76562c0.09375 0.89062 0.78125 1.4219 1.8906 1.4219 0.70312 0 1.2969-0.23438 1.6094-0.60938 0.35938-0.4375 0.5-1.0312 0.5-2.1406v-3.9375zm-1.3594 0.5625c0.8125 0 1.2969 0.6875 1.2969 1.8594 0 1.125-0.48438 1.8125-1.2812 1.8125-0.82812 0-1.3125-0.6875-1.3125-1.8438 0-1.125 0.5-1.8281 1.2969-1.8281z"/>
</g>
<g id="g">
<path d="m1.3438-4.7188h-0.73438v4.7188h0.73438zm0-1.8438h-0.75v0.95312h0.75z"/>
</g>
<g id="o">
<path d="m4.2344-3.125c-0.03125-0.46875-0.125-0.76562-0.3125-1.0312-0.32812-0.4375-0.89062-0.6875-1.5469-0.6875-1.2656 0-2.0938 1-2.0938 2.5625 0 1.5312 0.8125 2.4844 2.0781 2.4844 1.125 0 1.8438-0.67188 1.9375-1.8281h-0.76562c-0.125 0.76562-0.5 1.1406-1.1406 1.1406-0.82812 0-1.3281-0.67188-1.3281-1.7969 0-1.1719 0.48438-1.875 1.2969-1.875 0.64062 0 1.0312 0.375 1.125 1.0312z"/>
</g>
<g id="m">
<path d="m0.625-6.5625v6.5625h0.75v-2.5938c0-0.96875 0.5-1.5938 1.2812-1.5938 0.23438 0 0.48438 0.078125 0.67188 0.20312 0.20312 0.15625 0.29688 0.39062 0.29688 0.71875v3.2656h0.75v-3.5625c0-0.79688-0.5625-1.2812-1.4844-1.2812-0.67188 0-1.0781 0.20312-1.5156 0.78125v-2.5z"/>
</g>
<g id="q">
<path d="m4.9688-6.5625v4.6094c0 0.875-0.64062 1.4219-1.6875 1.4219-0.48438 0-0.89062-0.10938-1.2031-0.34375-0.32812-0.25-0.46875-0.57812-0.46875-1.0781v-4.6094h-0.84375v4.6094c0 1.3281 0.95312 2.1562 2.5156 2.1562 1.5312 0 2.5312-0.84375 2.5312-2.1562v-4.6094z"/>
</g>
<g id="h">
<path d="m0.625-4.7188v4.7188h0.76562v-2.5938c0-0.96875 0.5-1.5938 1.2656-1.5938 0.60938 0 0.98438 0.35938 0.98438 0.92188v3.2656h0.75v-3.5625c0-0.78125-0.59375-1.2812-1.5-1.2812-0.70312 0-1.1562 0.26562-1.5625 0.92188v-0.79688z"/>
</g>
<g id="l">
<path d="m2.2812-4.7188h-0.76562v-1.2969h-0.75v1.2969h-0.64062v0.60938h0.64062v3.5625c0 0.48438 0.32812 0.75 0.90625 0.75 0.1875 0 0.35938-0.015625 0.60938-0.0625v-0.625c-0.09375 0.03125-0.21875 0.03125-0.35938 0.03125-0.3125 0-0.40625-0.09375-0.40625-0.42188v-3.2344h0.76562z"/>
</g>
<g id="ad">
<path d="m0.48438-6.5625v6.5625h0.67188v-0.60938c0.35938 0.5625 0.84375 0.8125 1.5 0.8125 1.2344 0 2.0469-1.0156 2.0469-2.5781 0-1.5312-0.76562-2.4688-2.0156-2.4688-0.64062 0-1.1094 0.23438-1.4531 0.76562v-2.4844zm2.0625 2.4062c0.84375 0 1.375 0.73438 1.375 1.8594 0 1.0781-0.5625 1.7969-1.375 1.7969-0.79688 0-1.3125-0.71875-1.3125-1.8281 0-1.0938 0.51562-1.8281 1.3125-1.8281z"/>
</g>
<g id="ac">
<path d="m0.71875 0h2.9531c0.625 0 1.0781-0.17188 1.4375-0.54688 0.3125-0.34375 0.5-0.8125 0.5-1.3281 0-0.78125-0.35938-1.2656-1.2031-1.5938 0.59375-0.28125 0.90625-0.76562 0.90625-1.4219 0-0.48438-0.17188-0.90625-0.51562-1.2188s-0.79688-0.45312-1.4219-0.45312h-2.6562zm0.82812-3.7344v-2.0938h1.625c0.46875 0 0.71875 0.0625 0.95312 0.23438 0.23438 0.1875 0.35938 0.45312 0.35938 0.8125s-0.125 0.625-0.35938 0.8125c-0.23438 0.17188-0.48438 0.23438-0.95312 0.23438zm0 3v-2.2656h2.0469c0.40625 0 0.67188 0.10938 0.875 0.3125 0.1875 0.21875 0.29688 0.5 0.29688 0.82812 0 0.3125-0.10938 0.59375-0.29688 0.8125-0.20312 0.20312-0.46875 0.3125-0.875 0.3125z"/>
</g>
<g id="n">
<path d="m4.8125-0.4375c-0.078125 0.015625-0.10938 0.015625-0.15625 0.015625-0.26562 0-0.40625-0.14062-0.40625-0.375v-2.7656c0-0.84375-0.60938-1.2812-1.7812-1.2812-0.67188 0-1.25 0.1875-1.5625 0.54688-0.21875 0.23438-0.29688 0.51562-0.32812 0.96875h0.76562c0.0625-0.5625 0.40625-0.82812 1.1094-0.82812 0.67188 0 1.0469 0.25 1.0469 0.70312v0.1875c0 0.32812-0.1875 0.45312-0.78125 0.53125-1.0625 0.14062-1.2188 0.17188-1.5156 0.28125-0.54688 0.23438-0.82812 0.65625-0.82812 1.2656 0 0.85938 0.59375 1.3906 1.5469 1.3906 0.59375 0 1.0781-0.20312 1.6094-0.6875 0.046875 0.46875 0.28125 0.6875 0.76562 0.6875 0.15625 0 0.28125-0.015625 0.51562-0.078125zm-1.3125-1.0469c0 0.25-0.078125 0.40625-0.29688 0.60938-0.3125 0.28125-0.67188 0.42188-1.1094 0.42188-0.59375 0-0.9375-0.28125-0.9375-0.75 0-0.5 0.34375-0.75 1.1406-0.85938s0.95312-0.15625 1.2031-0.26562z"/>
</g>
<g id="ab">
<path d="m6.375-3.4688h-2.7344v0.73438h2v0.1875c0 1.1719-0.85938 2.0156-2.0625 2.0156-0.65625 0-1.2656-0.25-1.6562-0.67188-0.42188-0.46875-0.6875-1.25-0.6875-2.0625 0-1.6094 0.92188-2.6719 2.2969-2.6719 1 0 1.7188 0.51562 1.9062 1.3594h0.85938c-0.23438-1.3281-1.25-2.0938-2.75-2.0938-0.79688 0-1.4531 0.20312-1.9688 0.64062-0.75 0.625-1.1875 1.6406-1.1875 2.8125 0 2.0156 1.2344 3.4219 3.0156 3.4219 0.89062 0 1.5938-0.32812 2.2344-1.0469l0.20312 0.875h0.53125z"/>
</g>
<g id="aa">
<path d="m3.9844-4.7188h-3.5156v0.65625h2.625l-2.8125 3.3906v0.67188h3.8281v-0.65625h-2.9219l2.7969-3.3906z"/>
</g>
<g id="z">
<path d="m5.9531-4.5312c-0.25-1.4375-1.0781-2.1406-2.5312-2.1406-0.875 0-1.5781 0.28125-2.0781 0.82812-0.59375 0.64062-0.90625 1.5781-0.90625 2.6406 0 1.0781 0.32812 2 0.95312 2.6406 0.5 0.53125 1.1406 0.76562 2 0.76562 1.6094 0 2.5-0.85938 2.7031-2.5938h-0.85938c-0.078125 0.45312-0.17188 0.75-0.29688 1.0156-0.28125 0.53125-0.82812 0.84375-1.5312 0.84375-1.3125 0-2.1406-1.0469-2.1406-2.6875 0-1.6719 0.79688-2.7188 2.0625-2.7188 0.53125 0 1.0312 0.17188 1.2969 0.42188 0.25 0.21875 0.375 0.5 0.48438 0.98438z"/>
</g>
<g id="y">
<path d="m1.6562-2.7812h2.0625c0.51562 0 0.92188-0.15625 1.2656-0.46875 0.39062-0.35938 0.5625-0.78125 0.5625-1.3906 0-1.2344-0.71875-1.9219-2.0156-1.9219h-2.7188v6.5625h0.84375zm0-0.73438v-2.3125h1.75c0.79688 0 1.2812 0.4375 1.2812 1.1562s-0.48438 1.1562-1.2812 1.1562z"/>
</g>
<g id="x">
<path d="m0.625-4.7188v5.4062c0 0.46875-0.14062 0.625-0.60938 0.625-0.03125 0-0.03125 0-0.17188-0.015625v0.64062c0.078125 0.015625 0.125 0.03125 0.25 0.03125 0.84375 0 1.2812-0.34375 1.2812-0.98438v-5.7031zm0.75-1.8438h-0.75v0.95312h0.75z"/>
</g>
<g id="w">
<path d="m4.8125-2.4062h-1.875v-1.8594h-0.625v1.8594h-1.8594v0.64062h1.8594v1.8594h0.625v-1.8594h1.875z"/>
</g>
<g id="v">
<path d="m0.48438 1.9688h0.75v-2.4688c0.40625 0.48438 0.84375 0.70312 1.4531 0.70312 1.2188 0 2.0156-0.98438 2.0156-2.4844 0-1.5781-0.76562-2.5625-2.0156-2.5625-0.64062 0-1.1562 0.28125-1.5156 0.84375v-0.71875h-0.6875zm2.0781-6.125c0.82812 0 1.3594 0.73438 1.3594 1.8594 0 1.0781-0.54688 1.7969-1.3594 1.7969-0.79688 0-1.3281-0.71875-1.3281-1.8281 0-1.0938 0.53125-1.8281 1.3281-1.8281z"/>
</g>
<g id="u">
<path d="m3.4844-4.7188-1.2969 3.6719-1.2031-3.6719h-0.79688l1.5781 4.7344-0.28125 0.75c-0.10938 0.32812-0.28125 0.45312-0.60938 0.45312-0.09375 0-0.23438-0.015625-0.39062-0.046875v0.67188c0.15625 0.078125 0.3125 0.125 0.5 0.125 0.25 0 0.51562-0.09375 0.70312-0.23438 0.23438-0.17188 0.375-0.35938 0.51562-0.75l2.0938-5.7031z"/>
</g>
<g id="t">
<path d="m0.625-4.7188v4.7188h0.76562v-2.9688c0-0.67188 0.48438-1.2188 1.1094-1.2188 0.54688 0 0.85938 0.32812 0.85938 0.9375v3.25h0.76562v-2.9688c0-0.67188 0.48438-1.2188 1.1094-1.2188 0.54688 0 0.875 0.34375 0.875 0.9375v3.25h0.75v-3.5312c0-0.85938-0.48438-1.3125-1.375-1.3125-0.625 0-1 0.1875-1.4375 0.71875-0.28125-0.51562-0.65625-0.71875-1.2812-0.71875s-1.0312 0.23438-1.4375 0.79688v-0.67188z"/>
</g>
<g id="b">
<path d="m2.8906-5.5156-1.6719 0.53125c-0.14062 0.046875-0.1875 0.09375-0.1875 0.20312 0 0.078125 0.09375 0.17188 0.17188 0.17188 0.015625 0 0.09375-0.015625 0.125-0.03125l1.1875-0.375v4.6406h-1.25c-0.17188 0-0.25 0.0625-0.25 0.1875s0.09375 0.1875 0.25 0.1875h2.875c0.15625 0 0.25-0.0625 0.25-0.1875s-0.09375-0.1875-0.25-0.1875h-1.25z"/>
</g>
<g id="a">
<path d="m4.3906-3.1562c0-1.4375-0.6875-2.4062-1.6875-2.4062s-1.6875 0.96875-1.6875 2.4062v0.89062c0 1.4219 0.6875 2.4062 1.6875 2.4062s1.6875-0.98438 1.6875-2.4062zm-3 0.046875c0-0.57812 0.15625-1.1875 0.42188-1.6094 0.20312-0.29688 0.51562-0.46875 0.89062-0.46875s0.6875 0.17188 0.875 0.46875c0.28125 0.42188 0.4375 1.0312 0.4375 1.6094v0.79688c0 0.57812-0.15625 1.1875-0.4375 1.5938-0.1875 0.3125-0.5 0.48438-0.875 0.48438s-0.6875-0.17188-0.89062-0.48438c-0.26562-0.40625-0.42188-1.0156-0.42188-1.5938z"/>
</g>
<clipPath id="aq">
<path d="m73 103h64v2h-64z"/>
</clipPath>
<clipPath id="ap">
<path d="m0.52734 0.19531v181h389v-181zm131.32 104.8h4.5312v-1.8008h-4.5312l3.6016 0.89844z" clip-rule="evenodd"/>
</clipPath>
<clipPath id="al">
<path d="m72 63h76v31h-76z"/>
</clipPath>
<clipPath id="ak">
<path d="m0.52734 0.19531v181h389v-181zm145.87 88.691v4.5273h1.8008v-4.5273l-0.90234 3.5977z" clip-rule="evenodd"/>
</clipPath>
<clipPath id="aj">
<path d="m158 103h51v2h-51z"/>
</clipPath>
<clipPath id="ai">
<path d="m0.52734 0.19531v181h389v-181zm203.47 104.77h4.5312v-1.8008h-4.5312l3.6016 0.90234z" clip-rule="evenodd"/>
</clipPath>
<clipPath id="ah">
<path d="m0.52734 0.19531h248.47v180.8h-248.47z"/>
</clipPath>
<clipPath id="ag">
<path d="m230 64h39v41h-39z"/>
</clipPath>
<clipPath id="af">
<path d="m0.52734 0.19531v181h389v-181zm264.07 64.988h4.5312v-1.7969h-4.5312l3.6016 0.89844z" clip-rule="evenodd"/>
</clipPath>
<clipPath id="ae">
<path d="m73 22h147v71h-147z"/>
</clipPath>
<clipPath id="ao">
<path d="m0.52734 0.19531v181h389v-181zm217.9 88.57v4.5312h1.7969v-4.5312l-0.89844 3.5977z" clip-rule="evenodd"/>
</clipPath>
<clipPath id="an">
<path d="m147 115h1v48h-1z"/>
</clipPath>
<clipPath id="am">
<path d="m0.52734 0.19531v181h389v-181zm145.9 158.47v4.5312h1.7969v-4.5312l-0.89844 3.6016z" clip-rule="evenodd"/>
</clipPath>
</defs>
<g>
<use x="373.738" y="173.545" xlink:href="#f"/>
<use x="301.738" y="9.745" xlink:href="#f"/>
<use x="301.738" y="2.545" xlink:href="#f"/>
<use x="373.738" y="6.145" xlink:href="#f"/>
<use x="373.738" y="9.745" xlink:href="#f"/>
<use x="301.738" y="6.145" xlink:href="#f"/>
<use x="373.738" y="2.545" xlink:href="#f"/>
<use x="301.738" y="177.145" xlink:href="#f"/>
<use x="301.738" y="180.745" xlink:href="#f"/>
<use x="301.738" y="173.545" xlink:href="#f"/>
<use x="373.738" y="177.145" xlink:href="#f"/>
<use x="373.738" y="180.745" xlink:href="#f"/>
</g>
<path transform="matrix(.1 0 0 -.1 .528 181.2)" d="m3023.5 406.48h720v990h-720z" fill="#e5e5e5" fill-rule="evenodd" stroke="#000" stroke-miterlimit="10" stroke-width="2.25"/>
<g>
<use x="382.276" y="131.545" xlink:href="#p"/>
</g>
<g clip-path="url(#aq)">
<g clip-path="url(#ap)">
<path transform="matrix(.1 0 0 -.1 .528 181.2)" d="m728.51 771.01h625.51" fill="none" stroke="#000" stroke-miterlimit="10" stroke-width="2.25"/>
</g>
</g>
<path d="m131.85 105 3.6016-0.90234-3.6016-0.89844v1.8008" fill-rule="evenodd"/>
<path transform="matrix(.1 0 0 -.1 .528 181.2)" d="m1313.2 761.99 36.016 9.0234-36.016 8.9844z" fill="none" stroke="#000" stroke-miterlimit="10" stroke-width="2.25"/>
<g clip-path="url(#al)">
<g clip-path="url(#ak)">
<path transform="matrix(.1 0 0 -.1 .528 181.2)" d="m725.19 1177.5h742.5v-295.2" fill="none" stroke="#000" stroke-miterlimit="10" stroke-width="2.25"/>
</g>
</g>
<path d="m146.4 88.887 0.89844 3.5977 0.90234-3.5977h-1.8008" fill-rule="evenodd"/>
<path transform="matrix(.1 0 0 -.1 .528 181.2)" d="m1458.7 923.08 8.9844-35.977 9.0234 35.977z" fill="none" stroke="#000" stroke-miterlimit="10" stroke-width="2.25"/>
<path transform="matrix(.1 0 0 -.1 .528 181.2)" d="m1468 883.51 112.5-112.5" fill="none" stroke="#000" stroke-miterlimit="10" stroke-width="2.25"/>
<path transform="matrix(.1 0 0 -.1 .528 181.2)" d="m1580.5 771.01-112.5-112.5" fill="none" stroke="#000" stroke-miterlimit="10" stroke-width="2.25"/>
<path transform="matrix(.1 0 0 -.1 .528 181.2)" d="m1468 883.51-112.5-112.5 112.5-112.5" fill="none" stroke="#000" stroke-miterlimit="10" stroke-width="2.25"/>
<path transform="matrix(.1 0 0 -.1 .528 181.2)" d="m1487.5 790.5-43.477-18.594 43.477-18.906" fill="none" stroke="#000" stroke-miterlimit="10" stroke-width="4.5"/>
<path transform="matrix(.1 0 0 -.1 .528 181.2)" d="m184.02 1536h540v90h-540z" fill="none" stroke="#000" stroke-miterlimit="10" stroke-width="2.25"/>
<path transform="matrix(.1 0 0 -.1 .528 181.2)" d="m184.02 1131h540v90h-540z" fill="none" stroke="#000" stroke-miterlimit="10" stroke-width="2.25"/>
<path transform="matrix(.1 0 0 -.1 .528 181.2)" d="m184.02 728.4h540v90h-540z" fill="none" stroke="#000" stroke-miterlimit="10" stroke-width="2.25"/>
<g clip-path="url(#aj)">
<g clip-path="url(#ai)">
<path transform="matrix(.1 0 0 -.1 .528 181.2)" d="m1578.7 771.29h496.8" fill="none" stroke="#000" stroke-miterlimit="10" stroke-width="2.25"/>
</g>
</g>
<path d="m204 104.96 3.6016-0.89844-3.6016-0.90234v1.8008" fill-rule="evenodd"/>
<path transform="matrix(.1 0 0 -.1 .528 181.2)" d="m2034.7 762.3 36.016 8.9844-36.016 9.0234z" fill="none" stroke="#000" stroke-miterlimit="10" stroke-width="2.25"/>
<path transform="matrix(.1 0 0 -.1 .528 181.2)" d="m2075.5 770.39 112.5-112.5" fill="none" stroke="#000" stroke-miterlimit="10" stroke-width="2.25"/>
<g clip-path="url(#ah)">
<path transform="matrix(.1 0 0 -.1 .528 181.2)" d="m4.0169 6.0125h2475v1800h-2475z" fill="none" stroke="#000" stroke-miterlimit="10" stroke-width="2.25"/>
</g>
<path transform="matrix(.1 0 0 -.1 .528 181.2)" d="m3023.5 1486.5h720" fill="none" stroke="#000" stroke-miterlimit="10" stroke-width="2.25"/>
<path transform="matrix(.1 0 0 -.1 .528 181.2)" d="m3023.5 1576.5v90" fill="none" stroke="#000" stroke-miterlimit="10" stroke-width="2.25"/>
<path transform="matrix(.1 0 0 -.1 .528 181.2)" d="m3743.5 1576.5v90" fill="none" stroke="#000" stroke-miterlimit="10" stroke-width="2.25"/>
<path transform="matrix(.1 0 0 -.1 .528 181.2)" d="m3023.5 1396.5h720v180h-720z" fill="none" stroke="#000" stroke-miterlimit="10" stroke-width="2.25"/>
<path transform="matrix(.1 0 0 -.1 .528 181.2)" d="m3023.5 406.48v-180h720v180" fill="none" stroke="#000" stroke-miterlimit="10" stroke-width="2.25"/>
<path transform="matrix(.1 0 0 -.1 .528 181.2)" d="m3023.5 226.48v-90" fill="none" stroke="#000" stroke-miterlimit="10" stroke-width="2.25"/>
<path transform="matrix(.1 0 0 -.1 .528 181.2)" d="m3743.5 226.48v-90" fill="none" stroke="#000" stroke-miterlimit="10" stroke-width="2.25"/>
<path transform="matrix(.1 0 0 -.1 .528 181.2)" d="m3023.5 316.48h720" fill="none" stroke="#000" stroke-miterlimit="10" stroke-width="2.25"/>
<path transform="matrix(.1 0 0 -.1 .528 181.2)" d="m3023.5 1306.5h720" fill="none" stroke="#000" stroke-miterlimit="10" stroke-width="2.25"/>
<path transform="matrix(.1 0 0 -.1 .528 181.2)" d="m3023.5 1126.5h720" fill="none" stroke="#000" stroke-miterlimit="10" stroke-width="2.25"/>
<path transform="matrix(.1 0 0 -.1 .528 181.2)" d="m3023.5 1036.5h720" fill="none" stroke="#000" stroke-miterlimit="10" stroke-width="2.25"/>
<path transform="matrix(.1 0 0 -.1 .528 181.2)" d="m3023.5 946.48h720" fill="none" stroke="#000" stroke-miterlimit="10" stroke-width="2.25"/>
<path transform="matrix(.1 0 0 -.1 .528 181.2)" d="m3023.5 856.48h720" fill="none" stroke="#000" stroke-miterlimit="10" stroke-width="2.25"/>
<path transform="matrix(.1 0 0 -.1 .528 181.2)" d="m3023.5 766.48h720" fill="none" stroke="#000" stroke-miterlimit="10" stroke-width="2.25"/>
<path transform="matrix(.1 0 0 -.1 .528 181.2)" d="m3023.5 676.48h720" fill="none" stroke="#000" stroke-miterlimit="10" stroke-width="2.25"/>
<path transform="matrix(.1 0 0 -.1 .528 181.2)" d="m3023.5 586.48h720" fill="none" stroke="#000" stroke-miterlimit="10" stroke-width="2.25"/>
<path transform="matrix(.1 0 0 -.1 .528 181.2)" d="m3023.5 496.48h720" fill="none" stroke="#000" stroke-miterlimit="10" stroke-width="2.25"/>
<path transform="matrix(.1 0 0 -.1 .528 181.2)" d="m3023.5 1216.5h720" fill="none" stroke="#000" stroke-miterlimit="10" stroke-width="2.25"/>
<g clip-path="url(#ag)">
<g clip-path="url(#af)">
<path transform="matrix(.1 0 0 -.1 .528 181.2)" d="m2299 771.01h270v398.09h112.5" fill="none" stroke="#000" stroke-miterlimit="10" stroke-width="2.25"/>
</g>
</g>
<path d="m264.6 65.184 3.6016-0.89844-3.6016-0.89844v1.7969" fill-rule="evenodd"/>
<path transform="matrix(.1 0 0 -.1 .528 181.2)" d="m2640.7 1160.1 36.016 8.9844-36.016 8.9844z" fill="none" stroke="#000" stroke-miterlimit="10" stroke-width="2.25"/>
<path transform="matrix(.1 0 0 -.1 .528 181.2)" d="m724.29 1584h2.4219" fill="none" stroke="#000" stroke-miterlimit="10" stroke-width="2.25"/>
<g clip-path="url(#ae)">
<g clip-path="url(#ao)">
<path transform="matrix(.1 0 0 -.1 .528 181.2)" d="m726.99 1582.5h1461v-698.98" fill="none" stroke="#000" stroke-miterlimit="10" stroke-width="2.25"/>
</g>
</g>
<path d="m218.43 88.766 0.89844 3.5977 0.89844-3.5977h-1.7969" fill-rule="evenodd"/>
<path transform="matrix(.1 0 0 -.1 .528 181.2)" d="m2179 924.29 8.9844-35.977 8.9844 35.977z" fill="none" stroke="#000" stroke-miterlimit="10" stroke-width="2.25"/>
<g clip-path="url(#an)">
<g clip-path="url(#am)">
<path transform="matrix(.1 0 0 -.1 .528 181.2)" d="m1468 656.99v-472.5" fill="none" stroke="#000" stroke-linejoin="bevel" stroke-miterlimit="10" stroke-width="2.25"/>
</g>
</g>
<path d="m146.43 158.66 0.89844 3.6016 0.89844-3.6016h-1.7969" fill-rule="evenodd"/>
<path transform="matrix(.1 0 0 -.1 .528 181.2)" d="m1459 225.31 8.9844-36.016 8.9844 36.016z" fill="none" stroke="#000" stroke-miterlimit="10" stroke-width="2.25"/>
<g>
<use x="87.0225" y="115.345" xlink:href="#k"/>
<use x="93.0255" y="115.345" xlink:href="#j"/>
<use x="98.0295" y="115.345" xlink:href="#e"/>
<use x="101.0265" y="115.345" xlink:href="#c"/>
<use x="106.0305" y="115.345" xlink:href="#d"/>
<use x="110.5305" y="115.345" xlink:href="#d"/>
<use x="115.0305" y="115.345" xlink:href="#c"/>
<use x="87.922891" y="99.595" xlink:href="#s"/>
<use x="89.920891" y="99.595" xlink:href="#r"/>
<use x="94.924891" y="99.595" xlink:href="#i"/>
<use x="99.928891" y="99.595" xlink:href="#g"/>
<use x="101.926891" y="99.595" xlink:href="#d"/>
<use x="106.426891" y="99.595" xlink:href="#o"/>
<use x="110.926891" y="99.595" xlink:href="#m"/>
<use x="115.930891" y="99.595" xlink:href="#c"/>
<use x="153.415891" y="162.445" xlink:href="#q"/>
<use x="159.913891" y="162.445" xlink:href="#h"/>
<use x="164.917891" y="162.445" xlink:href="#l"/>
<use x="167.419891" y="162.445" xlink:href="#c"/>
<use x="172.423891" y="162.445" xlink:href="#e"/>
<use x="175.420891" y="162.445" xlink:href="#ad"/>
<use x="180.424891" y="162.445" xlink:href="#e"/>
<use x="183.421891" y="162.445" xlink:href="#c"/>
<use x="188.425891" y="162.445" xlink:href="#o"/>
<use x="192.925891" y="162.445" xlink:href="#m"/>
<use x="197.929891" y="162.445" xlink:href="#p"/>
<use x="202.933891" y="162.445" xlink:href="#h"/>
<use x="207.937891" y="162.445" xlink:href="#i"/>
<use x="29.728891" y="25.795" xlink:href="#b"/>
<use x="35.128891" y="25.795" xlink:href="#b"/>
<use x="40.528891" y="25.795" xlink:href="#a"/>
<use x="45.928891" y="25.795" xlink:href="#a"/>
<use x="51.328891" y="25.795" xlink:href="#a"/>
<use x="56.728891" y="25.795" xlink:href="#a"/>
<use x="19.923421" y="39.295" xlink:href="#ac"/>
<use x="25.926421" y="39.295" xlink:href="#n"/>
<use x="30.930421" y="39.295" xlink:href="#d"/>
<use x="35.430421" y="39.295" xlink:href="#g"/>
<use x="37.428421" y="39.295" xlink:href="#d"/>
<use x="41.928421" y="39.295" xlink:href="#e"/>
<use x="44.925421" y="39.295" xlink:href="#c"/>
<use x="49.929421" y="39.295" xlink:href="#i"/>
<use x="54.933421" y="39.295" xlink:href="#g"/>
<use x="56.931421" y="39.295" xlink:href="#d"/>
<use x="61.431421" y="39.295" xlink:href="#l"/>
<use x="63.933421" y="39.295" xlink:href="#c"/>
<use x="68.937421" y="39.295" xlink:href="#e"/>
<use x="29.728891" y="66.295" xlink:href="#a"/>
<use x="35.128891" y="66.295" xlink:href="#a"/>
<use x="40.528891" y="66.295" xlink:href="#a"/>
<use x="45.928891" y="66.295" xlink:href="#b"/>
<use x="51.328891" y="66.295" xlink:href="#b"/>
<use x="56.728891" y="66.295" xlink:href="#b"/>
<use x="18.672291" y="81.145" xlink:href="#ab"/>
<use x="25.674291" y="81.145" xlink:href="#e"/>
<use x="28.671291" y="81.145" xlink:href="#c"/>
<use x="33.675291" y="81.145" xlink:href="#h"/>
<use x="38.679291" y="81.145" xlink:href="#aa"/>
<use x="43.179291" y="81.145" xlink:href="#e"/>
<use x="46.176291" y="81.145" xlink:href="#c"/>
<use x="51.180291" y="81.145" xlink:href="#i"/>
<use x="56.184291" y="81.145" xlink:href="#g"/>
<use x="58.182291" y="81.145" xlink:href="#d"/>
<use x="62.682291" y="81.145" xlink:href="#l"/>
<use x="65.184291" y="81.145" xlink:href="#c"/>
<use x="70.188291" y="81.145" xlink:href="#e"/>
<use x="16.921901" y="120.295" xlink:href="#k"/>
<use x="22.924901" y="120.295" xlink:href="#j"/>
<use x="27.928901" y="120.295" xlink:href="#e"/>
<use x="30.925901" y="120.295" xlink:href="#c"/>
<use x="35.929901" y="120.295" xlink:href="#d"/>
<use x="40.429901" y="120.295" xlink:href="#d"/>
<use x="44.929901" y="120.295" xlink:href="#e"/>
<use x="47.926901" y="120.295" xlink:href="#c"/>
<use x="52.930901" y="120.295" xlink:href="#i"/>
<use x="57.934901" y="120.295" xlink:href="#g"/>
<use x="59.932901" y="120.295" xlink:href="#d"/>
<use x="64.432901" y="120.295" xlink:href="#l"/>
<use x="66.934901" y="120.295" xlink:href="#c"/>
<use x="71.938901" y="120.295" xlink:href="#e"/>
<use x="29.728901" y="106.5552" xlink:href="#a"/>
<use x="35.128901" y="106.5552" xlink:href="#a"/>
<use x="40.528901" y="106.5552" xlink:href="#a"/>
<use x="45.928901" y="106.5552" xlink:href="#b"/>
<use x="51.328901" y="106.5552" xlink:href="#a"/>
<use x="56.728901" y="106.5552" xlink:href="#b"/>
<use x="9.428501" y="171.595" xlink:href="#z"/>
<use x="15.926501" y="171.595" xlink:href="#y"/>
<use x="21.929501" y="171.595" xlink:href="#q"/>
<use x="269.128501" y="40.405" xlink:href="#b"/>
<use x="274.528501" y="40.405" xlink:href="#b"/>
<use x="279.928501" y="40.405" xlink:href="#a"/>
<use x="285.328501" y="40.405" xlink:href="#b"/>
<use x="290.728501" y="40.405" xlink:href="#b"/>
<use x="296.128501" y="40.405" xlink:href="#b"/>
<use x="269.338657" y="139.405" xlink:href="#b"/>
<use x="274.738657" y="139.405" xlink:href="#b"/>
<use x="280.138657" y="139.405" xlink:href="#a"/>
<use x="285.538657" y="139.405" xlink:href="#a"/>
<use x="290.938657" y="139.405" xlink:href="#a"/>
<use x="296.338657" y="139.405" xlink:href="#a"/>
<use x="179.676557" y="99.5948" xlink:href="#x"/>
<use x="181.674557" y="99.5948" xlink:href="#n"/>
<use x="153.927357" y="137.3948" xlink:href="#h"/>
<use x="158.931357" y="137.3948" xlink:href="#c"/>
<use x="163.935357" y="137.3948" xlink:href="#g"/>
<use x="165.933357" y="137.3948" xlink:href="#h"/>
<use x="270.027357" y="66.7448" xlink:href="#b"/>
<use x="275.427357" y="66.7448" xlink:href="#b"/>
<use x="280.827357" y="66.7448" xlink:href="#a"/>
<use x="286.227357" y="66.7448" xlink:href="#b"/>
<use x="291.627357" y="66.7448" xlink:href="#a"/>
<use x="297.027357" y="66.7448" xlink:href="#b"/>
</g>
<path transform="matrix(.1 0 0 -.1 .528 181.2)" d="m2188 883.79-112.5-112.5" fill="none" stroke="#000" stroke-miterlimit="10" stroke-width="2.25"/>
<g>
<use x="382.528" y="95.545" xlink:href="#d"/>
</g>
<path transform="matrix(.1 0 0 -.1 .528 181.2)" d="m2188 883.79 112.5-112.5-112.5-112.5" fill="none" stroke="#000" stroke-miterlimit="10" stroke-width="2.25"/>
<g>
<use x="216.7" y="106.3149" xlink:href="#w"/>
<use x="260.5781" y="83.845" xlink:href="#v"/>
<use x="265.5821" y="83.845" xlink:href="#m"/>
<use x="270.5861" y="83.845" xlink:href="#u"/>
<use x="275.0861" y="83.845" xlink:href="#d"/>
<use x="279.5861" y="83.845" xlink:href="#g"/>
<use x="281.5841" y="83.845" xlink:href="#d"/>
<use x="286.0841" y="83.845" xlink:href="#o"/>
<use x="290.5841" y="83.845" xlink:href="#m"/>
<use x="295.5881" y="83.845" xlink:href="#c"/>
<use x="263.7281" y="94.645" xlink:href="#k"/>
<use x="269.7311" y="94.645" xlink:href="#j"/>
<use x="274.7351" y="94.645" xlink:href="#e"/>
<use x="277.7321" y="94.645" xlink:href="#c"/>
<use x="282.7361" y="94.645" xlink:href="#d"/>
<use x="287.2361" y="94.645" xlink:href="#d"/>
<use x="291.7361" y="94.645" xlink:href="#c"/>
<use x="381.7761" y="59.545" xlink:href="#k"/>
<use x="382.275709" y="68.545" xlink:href="#j"/>
<use x="382.275709" y="86.545" xlink:href="#c"/>
<use x="382.527662" y="104.545" xlink:href="#d"/>
<use x="382.275709" y="122.545" xlink:href="#n"/>
<use x="383.279229" y="77.545" xlink:href="#e"/>
<use x="383.279229" y="113.545" xlink:href="#e"/>
<use x="381.029229" y="141.445" xlink:href="#t"/>
</g>
</svg>
