<svg width="245pt" height="265pt" version="1.1" viewBox="0 0 245 265" xmlns="http://www.w3.org/2000/svg" xmlns:xlink="http://www.w3.org/1999/xlink">
<defs>
<g id="z">
<path d="m0.75 0h3.1094c0.65625 0 1.125-0.17188 1.5-0.57812 0.34375-0.35938 0.53125-0.84375 0.53125-1.3906 0-0.82812-0.375-1.3281-1.2656-1.6719 0.64062-0.29688 0.96875-0.79688 0.96875-1.5 0-0.51562-0.20312-0.95312-0.5625-1.2656-0.35938-0.32812-0.82812-0.48438-1.4844-0.48438h-2.7969zm0.875-3.9219v-2.1875h1.7031c0.48438 0 0.76562 0.0625 1 0.23438 0.25 0.1875 0.375 0.48438 0.375 0.85938s-0.125 0.65625-0.375 0.84375c-0.23438 0.1875-0.51562 0.25-1 0.25zm0 3.1406v-2.3594h2.1406c0.78125 0 1.25 0.4375 1.25 1.1875 0 0.73438-0.46875 1.1719-1.25 1.1719z"/>
</g>
<g id="a">
<path d="m4.8438-2.2188c0-0.75-0.046875-1.2031-0.1875-1.5781-0.32812-0.8125-1.0781-1.2969-2.0156-1.2969-1.375 0-2.2656 1.0469-2.2656 2.6875 0 1.625 0.85938 2.625 2.25 2.625 1.1406 0 1.9219-0.64062 2.125-1.7188h-0.79688c-0.21875 0.65625-0.65625 0.98438-1.2969 0.98438-0.5 0-0.92188-0.21875-1.1875-0.64062-0.1875-0.28125-0.26562-0.5625-0.26562-1.0625zm-3.625-0.64062c0.0625-0.90625 0.625-1.5156 1.4219-1.5156s1.3594 0.625 1.3594 1.5156z"/>
</g>
<g id="y">
<path d="m2.4375-4.9531h-0.82812v-0.78125c0-0.32812 0.1875-0.5 0.5625-0.5 0.0625 0 0.09375 0 0.26562 0.015625v-0.65625c-0.17188-0.03125-0.28125-0.046875-0.4375-0.046875-0.73438 0-1.1719 0.42188-1.1719 1.125v0.84375h-0.65625v0.64062h0.65625v4.3125h0.78125v-4.3125h0.82812z"/>
</g>
<g id="b">
<path d="m0.65625-6.8906v6.8906h0.79688v-2.7344c0-1.0156 0.51562-1.6719 1.3281-1.6719 0.26562 0 0.51562 0.078125 0.70312 0.21875 0.23438 0.17188 0.32812 0.40625 0.32812 0.75v3.4375h0.78125v-3.75c0-0.82812-0.59375-1.3438-1.5625-1.3438-0.70312 0-1.125 0.21875-1.5781 0.82812v-2.625z"/>
</g>
<g id="e">
<path d="m1.4375-6.8906h-0.79688v6.8906h0.79688z"/>
</g>
<g id="c">
<path d="m4.1406-3.5781c-0.015625-0.96875-0.65625-1.5156-1.7969-1.5156-1.1562 0-1.9062 0.59375-1.9062 1.5156 0 0.76562 0.40625 1.1406 1.5781 1.4219l0.73438 0.1875c0.54688 0.125 0.76562 0.32812 0.76562 0.67188 0 0.46875-0.46875 0.78125-1.1562 0.78125-0.42188 0-0.78125-0.125-0.98438-0.32812-0.125-0.14062-0.17188-0.28125-0.21875-0.625h-0.82812c0.03125 1.1406 0.67188 1.6875 1.9688 1.6875 1.25 0 2.0469-0.60938 2.0469-1.5781 0-0.73438-0.42188-1.1406-1.4062-1.375l-0.75-0.17188c-0.64062-0.15625-0.92188-0.35938-0.92188-0.71875 0-0.45312 0.40625-0.75 1.0469-0.75s0.98438 0.28125 1 0.79688z"/>
</g>
<g id="k">
<path d="m4.1875-4.9531h-3.7031v0.6875h2.7656l-2.9531 3.5625v0.70312h4.0156v-0.6875h-3.0625l2.9375-3.5625z"/>
</g>
<g id="x">
<path d="m5.0625-0.46875c-0.09375 0.03125-0.125 0.03125-0.17188 0.03125-0.28125 0-0.42188-0.15625-0.42188-0.39062v-2.9219c0-0.875-0.65625-1.3438-1.875-1.3438-0.71875 0-1.2969 0.20312-1.6406 0.57812-0.21875 0.25-0.3125 0.53125-0.34375 1.0312h0.79688c0.0625-0.60938 0.42188-0.89062 1.1719-0.89062 0.71875 0 1.0938 0.26562 1.0938 0.75v0.20312c0 0.34375-0.17188 0.46875-0.8125 0.54688-1.125 0.14062-1.2969 0.1875-1.5938 0.29688-0.57812 0.25-0.875 0.6875-0.875 1.3281 0 0.90625 0.625 1.4688 1.625 1.4688 0.625 0 1.125-0.21875 1.6875-0.73438 0.0625 0.51562 0.3125 0.73438 0.8125 0.73438 0.17188 0 0.28125-0.015625 0.54688-0.09375zm-1.3906-1.0938c0 0.26562-0.0625 0.42188-0.3125 0.64062-0.3125 0.29688-0.70312 0.45312-1.1719 0.45312-0.60938 0-0.96875-0.29688-0.96875-0.79688 0-0.51562 0.34375-0.78125 1.1875-0.90625 0.84375-0.10938 1-0.15625 1.2656-0.28125zm-1.3594-5.2031h-0.98438v0.98438h0.98438zm1.5312 0h-0.98438v0.98438h0.98438z"/>
</g>
<g id="d">
<path d="m0.65625-4.9531v4.9531h0.79688v-2.5781c0-1.1875 0.5-1.7188 1.5781-1.6875v-0.79688c-0.125-0.015625-0.20312-0.03125-0.29688-0.03125-0.51562 0-0.90625 0.29688-1.3594 1.0312v-0.89062z"/>
</g>
<g id="j">
<path d="m3.3438-6.1094h2.2656v-0.78125h-5.4062v0.78125h2.2656v6.1094h0.875z"/>
</g>
<g id="i">
<path d="m5.0625-0.46875c-0.09375 0.03125-0.125 0.03125-0.17188 0.03125-0.28125 0-0.42188-0.15625-0.42188-0.39062v-2.9219c0-0.875-0.65625-1.3438-1.875-1.3438-0.71875 0-1.2969 0.20312-1.6406 0.57812-0.21875 0.25-0.3125 0.53125-0.34375 1.0312h0.79688c0.0625-0.60938 0.42188-0.89062 1.1719-0.89062 0.71875 0 1.0938 0.26562 1.0938 0.75v0.20312c0 0.34375-0.17188 0.46875-0.8125 0.54688-1.125 0.14062-1.2969 0.1875-1.5938 0.29688-0.57812 0.25-0.875 0.6875-0.875 1.3281 0 0.90625 0.625 1.4688 1.625 1.4688 0.625 0 1.125-0.21875 1.6875-0.73438 0.0625 0.51562 0.3125 0.73438 0.8125 0.73438 0.17188 0 0.28125-0.015625 0.54688-0.09375zm-1.3906-1.0938c0 0.26562-0.0625 0.42188-0.3125 0.64062-0.3125 0.29688-0.70312 0.45312-1.1719 0.45312-0.60938 0-0.96875-0.29688-0.96875-0.79688 0-0.51562 0.34375-0.78125 1.1875-0.90625 0.84375-0.10938 1-0.15625 1.2656-0.28125z"/>
</g>
<g id="o">
<path d="m4.6719-6.8906h-0.78125v2.5625c-0.32812-0.5-0.85938-0.76562-1.5156-0.76562-1.2812 0-2.125 1.0312-2.125 2.6094 0 1.6719 0.8125 2.7031 2.1562 2.7031 0.67188 0 1.1406-0.25 1.5781-0.875v0.65625h0.6875zm-2.1719 2.5312c0.85938 0 1.3906 0.75 1.3906 1.9375 0 1.1406-0.54688 1.9062-1.375 1.9062-0.875 0-1.4531-0.76562-1.4531-1.9219s0.57812-1.9219 1.4375-1.9219z"/>
</g>
<g id="ak">
<path d="m2.4531-4.875v4.875h0.82812v-6.8281h-0.54688c-0.29688 1.0469-0.48438 1.1875-1.7656 1.3594v0.59375z"/>
</g>
<g id="aj">
<path d="m4.7812-0.82812h-3.5312c0.09375-0.5625 0.39062-0.92188 1.2188-1.4219l0.9375-0.53125c0.9375-0.51562 1.4219-1.2188 1.4219-2.0625 0-0.5625-0.21875-1.0938-0.625-1.4688-0.39062-0.35938-0.89062-0.51562-1.5156-0.51562-0.85938 0-1.4844 0.29688-1.8594 0.875-0.23438 0.35938-0.34375 0.79688-0.35938 1.4844h0.82812c0.03125-0.46875 0.09375-0.73438 0.20312-0.96875 0.21875-0.40625 0.65625-0.67188 1.1562-0.67188 0.75 0 1.3281 0.54688 1.3281 1.2812 0 0.5625-0.3125 1.0312-0.90625 1.375l-0.875 0.5c-1.4062 0.8125-1.8125 1.4531-1.875 2.9375h4.4531z"/>
</g>
<g id="ai">
<path d="m2.0938-3.1406h0.45312c0.90625 0 1.3906 0.42188 1.3906 1.2344 0 0.85938-0.53125 1.3906-1.3906 1.3906-0.90625 0-1.3594-0.46875-1.4062-1.4688h-0.84375c0.046875 0.54688 0.14062 0.90625 0.29688 1.2031 0.34375 0.67188 1 1 1.9219 1 1.375 0 2.2656-0.82812 2.2656-2.125 0-0.875-0.32812-1.3438-1.125-1.625 0.60938-0.26562 0.92188-0.73438 0.92188-1.4219 0-1.1719-0.76562-1.875-2.0312-1.875-1.3594 0-2.0781 0.75-2.1094 2.2031h0.84375c0-0.42188 0.046875-0.65625 0.14062-0.875 0.1875-0.375 0.60938-0.60938 1.125-0.60938 0.75 0 1.1875 0.45312 1.1875 1.1875 0 0.48438-0.17188 0.76562-0.54688 0.9375-0.21875 0.09375-0.51562 0.125-1.0938 0.14062z"/>
</g>
<g id="ah">
<path d="m6.2656-4.75c-0.28125-1.5156-1.1562-2.25-2.6562-2.25-0.9375 0-1.6875 0.28125-2.1875 0.85938-0.625 0.67188-0.96875 1.6562-0.96875 2.7812s0.34375 2.1094 1 2.7656c0.53125 0.5625 1.2188 0.8125 2.1094 0.8125 1.6875 0 2.625-0.90625 2.8438-2.7344h-0.90625c-0.078125 0.46875-0.17188 0.79688-0.3125 1.0625-0.29688 0.57812-0.875 0.89062-1.6094 0.89062-1.375 0-2.25-1.0938-2.25-2.8125 0-1.7656 0.82812-2.8594 2.1719-2.8594 0.5625 0 1.0781 0.17188 1.3594 0.4375 0.25 0.23438 0.39062 0.51562 0.5 1.0469z"/>
</g>
<g id="ad">
<path d="m2.5781-5.0938c-1.4062 0-2.2344 0.98438-2.2344 2.6562s0.82812 2.6562 2.2344 2.6562 2.25-1 2.25-2.625c0-1.7188-0.8125-2.6875-2.25-2.6875zm0 0.71875c0.89062 0 1.4219 0.73438 1.4219 1.9688 0 1.1719-0.54688 1.8906-1.4219 1.8906s-1.4219-0.71875-1.4219-1.9219 0.54688-1.9375 1.4219-1.9375z"/>
</g>
<g id="n">
<path d="m3.8125-4.9531v0.71875c-0.39062-0.59375-0.82812-0.85938-1.4531-0.85938-1.2031 0-2.0312 1.1094-2.0312 2.7031 0 0.82812 0.20312 1.4375 0.625 1.9375 0.375 0.4375 0.84375 0.67188 1.3594 0.67188 0.59375 0 1.0156-0.26562 1.4375-0.89062v0.25c0 1.3281-0.375 1.8281-1.3594 1.8281-0.67188 0-1.0156-0.26562-1.0938-0.84375h-0.8125c0.078125 0.92188 0.8125 1.5 1.8906 1.5 0.71875 0 1.3281-0.23438 1.6562-0.64062 0.375-0.45312 0.51562-1.0781 0.51562-2.2344v-4.1406zm-1.375 0.57812c0.82812 0 1.3125 0.70312 1.3125 1.9688 0 1.2031-0.48438 1.8906-1.3125 1.8906-0.8125 0-1.2812-0.70312-1.2812-1.9219s0.46875-1.9375 1.2812-1.9375z"/>
</g>
<g id="ac">
<path d="m0.65625-4.9531v4.9531h0.79688v-3.1094c0-0.71875 0.51562-1.2969 1.1719-1.2969 0.57812 0 0.90625 0.35938 0.90625 1v3.4062h0.79688v-3.1094c0-0.71875 0.51562-1.2969 1.1719-1.2969 0.5625 0 0.90625 0.375 0.90625 1v3.4062h0.79688v-3.7188c0-0.89062-0.51562-1.375-1.4375-1.375-0.65625 0-1.0625 0.20312-1.5156 0.75-0.29688-0.53125-0.70312-0.75-1.3438-0.75-0.65625 0-1.0938 0.25-1.5156 0.84375v-0.70312z"/>
</g>
<g id="m">
<path d="m0.65625-4.9531v4.9531h0.79688v-2.7344c0-1.0156 0.53125-1.6719 1.3438-1.6719 0.625 0 1.0156 0.375 1.0156 0.96875v3.4375h0.79688v-3.75c0-0.8125-0.625-1.3438-1.5781-1.3438-0.73438 0-1.2031 0.28125-1.6406 0.96875v-0.82812z"/>
</g>
<g id="h">
<path d="m2.4062-4.9531h-0.8125v-1.3594h-0.79688v1.3594h-0.67188v0.64062h0.67188v3.75c0 0.5 0.34375 0.78125 0.96875 0.78125 0.20312 0 0.375-0.015625 0.64062-0.0625v-0.67188c-0.125 0.03125-0.21875 0.046875-0.39062 0.046875-0.32812 0-0.42188-0.09375-0.42188-0.45312v-3.3906h0.8125z"/>
</g>
<g id="ag">
<path d="m1.3281-6.8906h-0.78125v6.8906h0.78125v-1.9219l0.76562-0.76562 1.6719 2.6875h0.98438l-2.0312-3.25 1.7188-1.7031h-1l-2.1094 2.0938z"/>
</g>
<g id="ab">
<path d="m0.84375 0h2.6562c1.7344 0 2.8125-1.2969 2.8125-3.4531 0-2.1406-1.0625-3.4375-2.8125-3.4375h-2.6562zm0.875-0.78125v-5.3281h1.625c1.3594 0 2.0781 0.90625 2.0781 2.6719 0 1.75-0.71875 2.6562-2.0781 2.6562z"/>
</g>
<g id="l">
<path d="m1.4219-4.9531h-0.78125v4.9531h0.78125zm0-1.9375h-0.79688v0.98438h0.79688z"/>
</g>
<g id="aa">
<path d="m4.4531-3.2969c-0.03125-0.46875-0.14062-0.78125-0.32812-1.0625-0.34375-0.46875-0.9375-0.73438-1.625-0.73438-1.3438 0-2.2031 1.0625-2.2031 2.7031 0 1.5938 0.84375 2.6094 2.1875 2.6094 1.1875 0 1.9375-0.70312 2.0312-1.9219h-0.79688c-0.14062 0.79688-0.54688 1.1875-1.2188 1.1875-0.85938 0-1.3906-0.70312-1.3906-1.875 0-1.2344 0.51562-1.9844 1.375-1.9844 0.65625 0 1.0781 0.39062 1.1719 1.0781z"/>
</g>
<g id="af">
<path d="m5.2344 0 1.4531-4.9531h-0.89062l-0.96875 3.8594-0.98438-3.8594h-0.95312l-0.95312 3.8594-1.0156-3.8594h-0.85938l1.4375 4.9531h0.875l0.96875-3.8906 1 3.8906z"/>
</g>
<g id="ae">
<path d="m1.7344-2.9219h2.1719c0.53125 0 0.96875-0.15625 1.3281-0.48438 0.42188-0.39062 0.59375-0.82812 0.59375-1.4688 0-1.2812-0.76562-2.0156-2.125-2.0156h-2.8438v6.8906h0.875zm0-0.78125v-2.4062h1.8438c0.84375 0 1.3438 0.45312 1.3438 1.2031s-0.5 1.2031-1.3438 1.2031z"/>
</g>
<g id="w">
<path d="m5.0625-4.375c0-0.42188-0.015625-0.54688-0.15625-0.82812-0.34375-0.71875-1.0625-1.0938-2.1094-1.0938-1.3594 0-2.2031 0.6875-2.2031 1.8125 0 0.76562 0.40625 1.2344 1.2188 1.4531l1.5312 0.40625c0.79688 0.20312 1.1406 0.51562 1.1406 1 0 0.32812-0.17188 0.67188-0.4375 0.85938-0.25 0.17188-0.64062 0.26562-1.1406 0.26562-0.67188 0-1.125-0.15625-1.4219-0.51562-0.23438-0.28125-0.34375-0.57812-0.32812-0.95312h-0.75c0.015625 0.5625 0.125 0.9375 0.375 1.2812 0.42188 0.57812 1.125 0.89062 2.0781 0.89062 0.73438 0 1.3438-0.17188 1.7344-0.48438 0.42188-0.32812 0.6875-0.89062 0.6875-1.4219 0-0.76562-0.48438-1.3281-1.3125-1.5469l-1.5625-0.42188c-0.75-0.20312-1.0156-0.4375-1.0156-0.92188 0-0.625 0.54688-1.0469 1.375-1.0469 0.98438 0 1.5469 0.45312 1.5469 1.2656z"/>
</g>
<g id="g">
<path d="m2.1562-4.4531h-0.73438v-1.2188h-0.70312v1.2188h-0.59375v0.57812h0.59375v3.3594c0 0.46875 0.3125 0.71875 0.85938 0.71875 0.1875 0 0.34375-0.03125 0.57812-0.0625v-0.59375c-0.09375 0.015625-0.1875 0.03125-0.34375 0.03125-0.29688 0-0.39062-0.09375-0.39062-0.40625v-3.0469h0.73438z"/>
</g>
<g id="v">
<path d="m4.5469-0.42188c-0.078125 0.015625-0.10938 0.015625-0.15625 0.015625-0.25 0-0.375-0.125-0.375-0.34375v-2.6094c0-0.79688-0.57812-1.2188-1.6719-1.2188-0.65625 0-1.1719 0.1875-1.4844 0.51562-0.20312 0.23438-0.29688 0.48438-0.3125 0.92188h0.71875c0.0625-0.54688 0.39062-0.78125 1.0469-0.78125 0.64062 0 1 0.23438 1 0.65625v0.1875c-0.015625 0.3125-0.17188 0.42188-0.75 0.5-1 0.125-1.1562 0.15625-1.4219 0.26562-0.51562 0.21875-0.78125 0.60938-0.78125 1.1875 0 0.8125 0.5625 1.3281 1.4531 1.3281 0.5625 0 1.0156-0.20312 1.5156-0.65625 0.0625 0.45312 0.28125 0.65625 0.73438 0.65625 0.15625 0 0.25-0.03125 0.48438-0.078125zm-1.2344-0.98438c0 0.23438-0.078125 0.39062-0.28125 0.57812-0.29688 0.26562-0.64062 0.40625-1.0625 0.40625-0.54688 0-0.875-0.26562-0.875-0.71875 0-0.46875 0.3125-0.70312 1.0781-0.8125 0.75-0.10938 0.89062-0.14062 1.1406-0.25z"/>
</g>
<g id="u">
<path d="m4-2.9531c-0.03125-0.4375-0.125-0.71875-0.29688-0.96875-0.29688-0.40625-0.84375-0.65625-1.4531-0.65625-1.2188 0-1.9844 0.95312-1.9844 2.4219 0 1.4375 0.76562 2.3594 1.9688 2.3594 1.0625 0 1.7344-0.64062 1.8125-1.7344h-0.70312c-0.125 0.71875-0.48438 1.0781-1.0938 1.0781-0.78125 0-1.25-0.64062-1.25-1.7031 0-1.1094 0.46875-1.7656 1.2344-1.7656 0.59375 0 0.96875 0.34375 1.0625 0.96875z"/>
</g>
<g id="t">
<path d="m1.2031-6.2031h-0.70312v6.2031h0.70312v-1.7344l0.6875-0.67188 1.5 2.4062h0.875l-1.8125-2.9219 1.5469-1.5312h-0.92188l-1.875 1.8906z"/>
</g>
<g id="s">
<path d="m3.7188-3.2188c0-0.875-0.57812-1.3594-1.6094-1.3594s-1.7031 0.53125-1.7031 1.3594c0 0.6875 0.34375 1.0312 1.4062 1.2812l0.65625 0.15625c0.5 0.125 0.6875 0.29688 0.6875 0.60938 0 0.4375-0.40625 0.71875-1.0312 0.71875-0.375 0-0.70312-0.10938-0.89062-0.29688-0.10938-0.14062-0.15625-0.26562-0.20312-0.57812h-0.75c0.046875 1.0312 0.625 1.5312 1.7812 1.5312 1.125 0 1.8438-0.5625 1.8438-1.4219 0-0.65625-0.375-1.0312-1.2656-1.2344l-0.67188-0.17188c-0.57812-0.125-0.82812-0.3125-0.82812-0.625 0-0.42188 0.35938-0.67188 0.9375-0.67188s0.875 0.23438 0.89062 0.70312z"/>
</g>
<g id="f">
<path d="m4.3594-1.9844c0-0.6875-0.046875-1.0938-0.17188-1.4219-0.29688-0.73438-0.96875-1.1719-1.8125-1.1719-1.2344 0-2.0312 0.9375-2.0312 2.4062s0.76562 2.375 2.0156 2.375c1.0312 0 1.7344-0.57812 1.9062-1.5469h-0.71875c-0.1875 0.57812-0.59375 0.89062-1.1562 0.89062-0.45312 0-0.82812-0.20312-1.0781-0.57812-0.17188-0.26562-0.21875-0.51562-0.23438-0.95312zm-3.2656-0.57812c0.0625-0.82812 0.5625-1.3594 1.2812-1.3594s1.2188 0.5625 1.2188 1.3594z"/>
</g>
<g id="r">
<path d="m3.4375-4.4531v0.64062c-0.35938-0.53125-0.75-0.76562-1.3125-0.76562-1.0781 0-1.8281 1-1.8281 2.4219 0 0.75 0.17188 1.2969 0.5625 1.75 0.32812 0.39062 0.75 0.60938 1.2188 0.60938 0.53125 0 0.90625-0.25 1.2812-0.8125v0.23438c0 1.1875-0.32812 1.6406-1.2031 1.6406-0.60938 0-0.92188-0.25-0.98438-0.75h-0.73438c0.078125 0.8125 0.73438 1.3438 1.7031 1.3438 0.64062 0 1.1875-0.21875 1.4844-0.57812 0.34375-0.42188 0.46875-0.96875 0.46875-2.0156v-3.7188zm-1.25 0.53125c0.75 0 1.1719 0.625 1.1719 1.75 0 1.0781-0.42188 1.7188-1.1719 1.7188-0.71875 0-1.1562-0.64062-1.1562-1.7344s0.4375-1.7344 1.1562-1.7344z"/>
</g>
<g id="q">
<path d="m0.59375-4.4531v4.4531h0.71875v-2.7969c0-0.64062 0.46875-1.1719 1.0469-1.1719 0.51562 0 0.8125 0.32812 0.8125 0.90625v3.0625h0.71875v-2.7969c0-0.64062 0.46875-1.1719 1.0469-1.1719 0.51562 0 0.82812 0.34375 0.82812 0.90625v3.0625h0.71875v-3.3438c0-0.79688-0.46875-1.2344-1.2969-1.2344-0.59375 0-0.95312 0.17188-1.375 0.67188-0.26562-0.46875-0.60938-0.67188-1.1875-0.67188-0.60938 0-1 0.21875-1.375 0.75v-0.625z"/>
</g>
<g id="p">
<path d="m0.59375-4.4531v4.4531h0.71875v-2.4531c0-0.90625 0.46875-1.5156 1.2031-1.5156 0.5625 0 0.92188 0.34375 0.92188 0.89062v3.0781h0.70312v-3.3594c0-0.75-0.54688-1.2188-1.4062-1.2188-0.67188 0-1.0938 0.25-1.4844 0.875v-0.75z"/>
</g>
<clipPath id="ar">
<path d="m0.52734 0.29297h244v264h-244z"/>
</clipPath>
<clipPath id="aq">
<path d="m95 72h93v46h-93z"/>
</clipPath>
<clipPath id="ap">
<path d="m0.52734 264.29h244v-264h-244zm187.4-146.82v0.44141l-5.2617 1.668 0.94531-1.8906-0.94531-1.8906z" clip-rule="evenodd"/>
</clipPath>
<clipPath id="ao">
<path d="m95 99h93v26h-93z"/>
</clipPath>
<clipPath id="an">
<path d="m0.52734 264.29h244v-264h-244zm187.4-164.81v0.44141l-5.2617 1.6719 0.94531-1.8906-0.94531-1.8906z" clip-rule="evenodd"/>
</clipPath>
<clipPath id="am">
<path d="m95 25h93v1h-93z"/>
</clipPath>
<clipPath id="al">
<path d="m0.52734 264.29h244v-264h-244zm187.4-239.09v0.44141l-5.2617 1.6719 0.94531-1.8906-0.94531-1.8906z" clip-rule="evenodd"/>
</clipPath>
</defs>
<g>
<use x="34.6827" y="129.848" xlink:href="#z"/>
<use x="40.98585" y="129.848" xlink:href="#a"/>
<use x="46.24005" y="129.848" xlink:href="#y"/>
<use x="48.86715" y="129.848" xlink:href="#a"/>
<use x="54.12135" y="129.848" xlink:href="#b"/>
<use x="59.37555" y="129.848" xlink:href="#e"/>
<use x="61.47345" y="129.848" xlink:href="#c"/>
<use x="66.19845" y="129.848" xlink:href="#k"/>
<use x="70.92345" y="129.848" xlink:href="#x"/>
<use x="76.17765" y="129.848" xlink:href="#b"/>
<use x="81.43185" y="129.848" xlink:href="#e"/>
<use x="83.52975" y="129.848" xlink:href="#a"/>
<use x="88.78395" y="129.848" xlink:href="#d"/>
</g>
<path transform="matrix(.1 0 0 -.1 .528 264.29)" d="m1264.2 295.82h539.92v360.04h-539.92z" fill="none" stroke="#000" stroke-miterlimit="10" stroke-width="2.3625"/>
<path transform="matrix(.1 0 0 -.1 .528 264.29)" d="m229.1 1083.3h854.92v405.08h-854.92z" fill="none" stroke="#000" stroke-miterlimit="10" stroke-width="2.3625"/>
<path transform="matrix(.1 0 0 -.1 .528 264.29)" d="m363.9 1128.4h675.04v135.16h-675.04z" fill="none" stroke="#000" stroke-miterlimit="10" stroke-width="2.3625"/>
<path transform="matrix(.1 0 0 -.1 .528 264.29)" d="m229.1 1600.9h854.92v405.08h-854.92z" fill="none" stroke="#000" stroke-miterlimit="10" stroke-width="2.3625"/>
<path transform="matrix(.1 0 0 -.1 .528 264.29)" d="m363.9 1645.9h675.04v135.16h-675.04z" fill="none" stroke="#000" stroke-miterlimit="10" stroke-width="2.3625"/>
<path transform="matrix(.1 0 0 -.1 .528 264.29)" d="m274.13 1826.1h675.04v134.8h-675.04z" fill="none" stroke="#000" stroke-miterlimit="10" stroke-width="2.3625"/>
<path transform="matrix(.1 0 0 -.1 .528 264.29)" d="m229.1 2096.1h854.92v405.08h-854.92z" fill="none" stroke="#000" stroke-miterlimit="10" stroke-width="2.3625"/>
<path transform="matrix(.1 0 0 -.1 .528 264.29)" d="m363.9 2141.1h675.04v134.8h-675.04z" fill="none" stroke="#000" stroke-miterlimit="10" stroke-width="2.3625"/>
<path transform="matrix(.1 0 0 -.1 .528 264.29)" d="m274.13 2321h675.04v135.12h-675.04z" fill="none" stroke="#000" stroke-miterlimit="10" stroke-width="2.3625"/>
<path transform="matrix(.1 0 0 -.1 .528 264.29)" d="m274.13 1308.6h675.04v134.8h-675.04z" fill="none" stroke="#000" stroke-miterlimit="10" stroke-width="2.3625"/>
<path transform="matrix(.1 0 0 -.1 .528 264.29)" d="m274.13 295.82h720.08v360.04h-720.08z" fill="none" stroke="#000" stroke-miterlimit="10" stroke-width="2.3625"/>
<g clip-path="url(#ar)">
<path transform="matrix(.1 0 0 -.1 .528 264.29)" d="m3.8606 3.1644h2430.5v2632.8h-2430.5z" fill="none" stroke="#000" stroke-miterlimit="10" stroke-width="2.3625"/>
</g>
<g clip-path="url(#aq)">
<g clip-path="url(#ap)">
<path transform="matrix(.1 0 0 -.1 .528 264.29)" d="m949.17 1915.9h584.96v-449.8h337.7" fill="none" stroke="#000" stroke-miterlimit="10" stroke-width="2.3625"/>
</g>
</g>
<path d="m182.67 119.58 4.7266-1.8906-4.7266-1.8906 0.94531 1.8906-0.94531 1.8906" fill-rule="evenodd"/>
<path transform="matrix(.1 0 0 -.1 .528 264.29)" d="m1821.4 1447.1 47.266 18.906-47.266 18.906 9.4531-18.906z" fill="none" stroke="#000" stroke-miterlimit="10" stroke-width="2.3625"/>
<g clip-path="url(#ao)">
<g clip-path="url(#an)">
<path transform="matrix(.1 0 0 -.1 .528 264.29)" d="m949.17 1398.3h405.08v247.58h517.58" fill="none" stroke="#000" stroke-miterlimit="10" stroke-width="2.3625"/>
</g>
</g>
<path d="m182.67 101.59 4.7266-1.8906-4.7266-1.8906 0.94531 1.8906-0.94531 1.8906" fill-rule="evenodd"/>
<path transform="matrix(.1 0 0 -.1 .528 264.29)" d="m1821.4 1627 47.266 18.906-47.266 18.906 9.4531-18.906z" fill="none" stroke="#000" stroke-miterlimit="10" stroke-width="2.3625"/>
<g clip-path="url(#am)">
<g clip-path="url(#al)">
<path transform="matrix(.1 0 0 -.1 .528 264.29)" d="m949.17 2388.7h922.66" fill="none" stroke="#000" stroke-miterlimit="10" stroke-width="2.3625"/>
</g>
</g>
<path d="m182.67 27.316 4.7266-1.8906-4.7266-1.8906 0.94531 1.8906-0.94531 1.8906" fill-rule="evenodd"/>
<path transform="matrix(.1 0 0 -.1 .528 264.29)" d="m1821.4 2369.8 47.266 18.906-47.266 18.906 9.4531-18.906z" fill="none" stroke="#000" stroke-miterlimit="10" stroke-width="2.3625"/>
<g>
<use x="111.196" y="45.679" xlink:href="#j"/>
<use x="116.96995" y="45.679" xlink:href="#b"/>
<use x="122.22415" y="45.679" xlink:href="#d"/>
<use x="125.371" y="45.679" xlink:href="#a"/>
<use x="130.6252" y="45.679" xlink:href="#i"/>
<use x="135.8794" y="45.679" xlink:href="#o"/>
<use x="141.1336" y="45.679" xlink:href="#glyph-0-12"/>
<use x="143.7607" y="45.679" xlink:href="#ak"/>
<use x="111.196" y="86.188" xlink:href="#j"/>
<use x="116.96995" y="86.188" xlink:href="#b"/>
<use x="122.22415" y="86.188" xlink:href="#d"/>
<use x="125.371" y="86.188" xlink:href="#a"/>
<use x="130.6252" y="86.188" xlink:href="#i"/>
<use x="135.8794" y="86.188" xlink:href="#o"/>
<use x="141.1336" y="86.188" xlink:href="#glyph-0-12"/>
<use x="143.7607" y="86.188" xlink:href="#aj"/>
<use x="111.196" y="140.2107" xlink:href="#j"/>
<use x="116.96995" y="140.2107" xlink:href="#b"/>
<use x="122.22415" y="140.2107" xlink:href="#d"/>
<use x="125.371" y="140.2107" xlink:href="#a"/>
<use x="130.6252" y="140.2107" xlink:href="#i"/>
<use x="135.8794" y="140.2107" xlink:href="#o"/>
<use x="141.1336" y="140.2107" xlink:href="#glyph-0-12"/>
<use x="143.7607" y="140.2107" xlink:href="#ai"/>
<use x="169.5433" y="176.2154" xlink:href="#ah"/>
<use x="176.3662" y="176.2154" xlink:href="#ad"/>
<use x="181.6204" y="176.2154" xlink:href="#o"/>
<use x="186.8746" y="176.2154" xlink:href="#a"/>
<use x="192.1288" y="176.2154" xlink:href="#c"/>
<use x="196.8538" y="176.2154" xlink:href="#a"/>
<use x="202.108" y="176.2154" xlink:href="#n"/>
<use x="207.3622" y="176.2154" xlink:href="#ac"/>
<use x="215.23405" y="176.2154" xlink:href="#a"/>
<use x="220.48825" y="176.2154" xlink:href="#m"/>
<use x="225.74245" y="176.2154" xlink:href="#h"/>
<use x="199.9617" y="252.7287" xlink:href="#j"/>
<use x="205.73565" y="252.7287" xlink:href="#i"/>
<use x="210.98985" y="252.7287" xlink:href="#c"/>
<use x="215.71485" y="252.7287" xlink:href="#ag"/>
<use x="33.2207" y="221.1971" xlink:href="#ab"/>
<use x="40.0436" y="221.1971" xlink:href="#i"/>
<use x="45.2978" y="221.1971" xlink:href="#h"/>
<use x="47.9249" y="221.1971" xlink:href="#a"/>
<use x="53.1791" y="221.1971" xlink:href="#m"/>
<use x="58.4333" y="221.1971" xlink:href="#c"/>
<use x="63.1583" y="221.1971" xlink:href="#a"/>
<use x="68.4125" y="221.1971" xlink:href="#n"/>
<use x="73.6667" y="221.1971" xlink:href="#ac"/>
<use x="81.53855" y="221.1971" xlink:href="#a"/>
<use x="86.79275" y="221.1971" xlink:href="#m"/>
<use x="92.04695" y="221.1971" xlink:href="#h"/>
<use x="137.659738" y="221.1971" xlink:href="#ab"/>
<use x="144.482638" y="221.1971" xlink:href="#i"/>
<use x="149.736838" y="221.1971" xlink:href="#h"/>
<use x="152.363938" y="221.1971" xlink:href="#a"/>
<use x="157.618138" y="221.1971" xlink:href="#l"/>
<use x="159.716038" y="221.1971" xlink:href="#a"/>
<use x="164.970238" y="221.1971" xlink:href="#m"/>
<use x="11.8285" y="171.7108" xlink:href="#e"/>
<use x="13.9264" y="171.7108" xlink:href="#a"/>
<use x="19.1806" y="171.7108" xlink:href="#l"/>
<use x="21.2785" y="171.7108" xlink:href="#aa"/>
<use x="26.0035" y="171.7108" xlink:href="#b"/>
<use x="31.2577" y="171.7108" xlink:href="#h"/>
<use x="33.8848" y="171.7108" xlink:href="#n"/>
<use x="39.139" y="171.7108" xlink:href="#a"/>
<use x="44.3932" y="171.7108" xlink:href="#af"/>
<use x="51.2161" y="171.7108" xlink:href="#l"/>
<use x="53.314" y="171.7108" xlink:href="#aa"/>
<use x="58.039" y="171.7108" xlink:href="#b"/>
<use x="63.2932" y="171.7108" xlink:href="#h"/>
<use x="65.9203" y="171.7108" xlink:href="#l"/>
<use x="68.0182" y="171.7108" xlink:href="#n"/>
<use x="73.2724" y="171.7108" xlink:href="#a"/>
<use x="78.5266" y="171.7108" xlink:href="#glyph-0-12"/>
<use x="81.1537" y="171.7108" xlink:href="#ae"/>
<use x="87.45685" y="171.7108" xlink:href="#d"/>
<use x="90.6037" y="171.7108" xlink:href="#ad"/>
<use x="95.8579" y="171.7108" xlink:href="#k"/>
<use x="100.5829" y="171.7108" xlink:href="#a"/>
<use x="105.8371" y="171.7108" xlink:href="#c"/>
<use x="110.5621" y="171.7108" xlink:href="#c"/>
<use x="115.2871" y="171.7108" xlink:href="#a"/>
<use x="41.1398" y="147.5819" xlink:href="#w"/>
<use x="46.812635" y="147.5819" xlink:href="#g"/>
<use x="49.177025" y="147.5819" xlink:href="#v"/>
<use x="53.905805" y="147.5819" xlink:href="#u"/>
<use x="58.158305" y="147.5819" xlink:href="#t"/>
<use x="62.410805" y="147.5819" xlink:href="#s"/>
<use x="66.663305" y="147.5819" xlink:href="#f"/>
<use x="71.392085" y="147.5819" xlink:href="#r"/>
<use x="76.120865" y="147.5819" xlink:href="#q"/>
<use x="83.20553" y="147.5819" xlink:href="#f"/>
<use x="87.93431" y="147.5819" xlink:href="#p"/>
<use x="92.66309" y="147.5819" xlink:href="#g"/>
<use x="41.1398" y="95.8272" xlink:href="#w"/>
<use x="46.812635" y="95.8272" xlink:href="#g"/>
<use x="49.177025" y="95.8272" xlink:href="#v"/>
<use x="53.905805" y="95.8272" xlink:href="#u"/>
<use x="58.158305" y="95.8272" xlink:href="#t"/>
<use x="62.410805" y="95.8272" xlink:href="#s"/>
<use x="66.663305" y="95.8272" xlink:href="#f"/>
<use x="71.392085" y="95.8272" xlink:href="#r"/>
<use x="76.120865" y="95.8272" xlink:href="#q"/>
<use x="83.20553" y="95.8272" xlink:href="#f"/>
<use x="87.93431" y="95.8272" xlink:href="#p"/>
<use x="92.66309" y="95.8272" xlink:href="#g"/>
<use x="34.68238" y="78.0928" xlink:href="#z"/>
<use x="40.98553" y="78.0928" xlink:href="#a"/>
<use x="46.23973" y="78.0928" xlink:href="#y"/>
<use x="48.86683" y="78.0928" xlink:href="#a"/>
<use x="54.12103" y="78.0928" xlink:href="#b"/>
<use x="59.37523" y="78.0928" xlink:href="#e"/>
<use x="61.47313" y="78.0928" xlink:href="#c"/>
<use x="66.19813" y="78.0928" xlink:href="#k"/>
<use x="70.92313" y="78.0928" xlink:href="#x"/>
<use x="76.17733" y="78.0928" xlink:href="#b"/>
<use x="81.43153" y="78.0928" xlink:href="#e"/>
<use x="83.52943" y="78.0928" xlink:href="#a"/>
<use x="88.78363" y="78.0928" xlink:href="#d"/>
<use x="41.1398" y="46.3092" xlink:href="#w"/>
<use x="46.812635" y="46.3092" xlink:href="#g"/>
<use x="49.177025" y="46.3092" xlink:href="#v"/>
<use x="53.905805" y="46.3092" xlink:href="#u"/>
<use x="58.158305" y="46.3092" xlink:href="#t"/>
<use x="62.410805" y="46.3092" xlink:href="#s"/>
<use x="66.663305" y="46.3092" xlink:href="#f"/>
<use x="71.392085" y="46.3092" xlink:href="#r"/>
<use x="76.120865" y="46.3092" xlink:href="#q"/>
<use x="83.20553" y="46.3092" xlink:href="#f"/>
<use x="87.93431" y="46.3092" xlink:href="#p"/>
<use x="92.66309" y="46.3092" xlink:href="#g"/>
<use x="34.68238" y="28.5748" xlink:href="#z"/>
<use x="40.98553" y="28.5748" xlink:href="#a"/>
<use x="46.23973" y="28.5748" xlink:href="#y"/>
<use x="48.86683" y="28.5748" xlink:href="#a"/>
<use x="54.12103" y="28.5748" xlink:href="#b"/>
<use x="59.37523" y="28.5748" xlink:href="#e"/>
<use x="61.47313" y="28.5748" xlink:href="#c"/>
<use x="66.19813" y="28.5748" xlink:href="#k"/>
<use x="70.92313" y="28.5748" xlink:href="#x"/>
<use x="76.17733" y="28.5748" xlink:href="#b"/>
<use x="81.43153" y="28.5748" xlink:href="#e"/>
<use x="83.52943" y="28.5748" xlink:href="#a"/>
<use x="88.78363" y="28.5748" xlink:href="#d"/>
</g>
<path transform="matrix(.1 0 0 -.1 .528 264.29)" d="m1894.2 1060.9h157.5v1440.2h-157.5z" fill="none" stroke="#000" stroke-miterlimit="10" stroke-width="2.3625"/>
</svg>
