<svg width="245pt" height="213pt" version="1.1" viewBox="0 0 245 213" xmlns="http://www.w3.org/2000/svg" xmlns:xlink="http://www.w3.org/1999/xlink">
<defs>
<g id="ad">
<path d="m0.71875 0h2.9531c0.625 0 1.0781-0.17188 1.4375-0.54688 0.3125-0.34375 0.5-0.8125 0.5-1.3281 0-0.78125-0.35938-1.2656-1.2031-1.5938 0.60938-0.28125 0.90625-0.75 0.90625-1.4219 0-0.48438-0.17188-0.90625-0.51562-1.2188s-0.79688-0.45312-1.4219-0.45312h-2.6562zm0.82812-3.7344v-2.0938h1.625c0.46875 0 0.71875 0.0625 0.95312 0.23438 0.23438 0.1875 0.35938 0.45312 0.35938 0.8125s-0.125 0.625-0.35938 0.8125c-0.23438 0.17188-0.48438 0.23438-0.95312 0.23438zm0 3v-2.2656h2.0469c0.73438 0 1.1719 0.42188 1.1719 1.1406 0 0.70312-0.4375 1.125-1.1719 1.125z"/>
</g>
<g id="a">
<path d="m4.6094-2.1094c0-0.71875-0.046875-1.1562-0.1875-1.5-0.29688-0.78125-1.0156-1.2344-1.9062-1.2344-1.3125 0-2.1562 0.98438-2.1562 2.5469s0.8125 2.5 2.1406 2.5c1.0781 0 1.8281-0.60938 2.0156-1.6406h-0.75c-0.20312 0.625-0.64062 0.95312-1.2344 0.95312-0.48438 0-0.89062-0.21875-1.1406-0.60938-0.17188-0.28125-0.23438-0.54688-0.25-1.0156zm-3.4531-0.60938c0.0625-0.875 0.59375-1.4375 1.3594-1.4375s1.2969 0.59375 1.2969 1.4375z"/>
</g>
<g id="y">
<path d="m2.3281-4.7188h-0.79688v-0.73438c0-0.3125 0.17188-0.48438 0.53125-0.48438 0.0625 0 0.09375 0 0.26562 0.015625v-0.625c-0.17188-0.03125-0.28125-0.046875-0.42188-0.046875-0.70312 0-1.1094 0.40625-1.1094 1.0781v0.79688h-0.64062v0.60938h0.64062v4.1094h0.73438v-4.1094h0.79688z"/>
</g>
<g id="b">
<path d="m0.625-6.5625v6.5625h0.75v-2.5938c0-0.96875 0.5-1.5938 1.2812-1.5938 0.25 0 0.48438 0.0625 0.67188 0.20312 0.20312 0.15625 0.29688 0.39062 0.29688 0.71875v3.2656h0.75v-3.5625c0-0.79688-0.5625-1.2812-1.4844-1.2812-0.67188 0-1.0781 0.20312-1.5156 0.78125v-2.5z"/>
</g>
<g id="f">
<path d="m1.375-6.5625h-0.76562v6.5625h0.76562z"/>
</g>
<g id="c">
<path d="m3.9375-3.4062c0-0.92188-0.60938-1.4375-1.7031-1.4375s-1.8125 0.5625-1.8125 1.4375c0 0.73438 0.375 1.0781 1.5 1.3594l0.70312 0.17188c0.51562 0.125 0.71875 0.3125 0.71875 0.64062 0 0.45312-0.4375 0.75-1.0938 0.75-0.40625 0-0.75-0.125-0.9375-0.3125-0.10938-0.14062-0.17188-0.28125-0.21875-0.60938h-0.78125c0.03125 1.0938 0.64062 1.6094 1.875 1.6094 1.1875 0 1.9375-0.57812 1.9375-1.4844 0-0.70312-0.39062-1.0938-1.3281-1.3125l-0.71875-0.17188c-0.60938-0.15625-0.875-0.34375-0.875-0.6875 0-0.4375 0.39062-0.70312 1-0.70312s0.92188 0.26562 0.95312 0.75z"/>
</g>
<g id="m">
<path d="m3.9844-4.7188h-3.5156v0.65625h2.625l-2.8125 3.3906v0.67188h3.8281v-0.65625h-2.9219l2.7969-3.3906z"/>
</g>
<g id="x">
<path d="m4.8125-0.4375c-0.078125 0.015625-0.10938 0.015625-0.15625 0.015625-0.26562 0-0.40625-0.14062-0.40625-0.375v-2.7656c0-0.84375-0.60938-1.2812-1.7812-1.2812-0.6875 0-1.2344 0.1875-1.5625 0.54688-0.21875 0.23438-0.29688 0.51562-0.32812 0.96875h0.76562c0.0625-0.5625 0.40625-0.82812 1.1094-0.82812 0.67188 0 1.0469 0.25 1.0469 0.70312v0.1875c-0.015625 0.32812-0.17188 0.45312-0.78125 0.53125-1.0625 0.14062-1.2188 0.17188-1.5156 0.28125-0.54688 0.23438-0.82812 0.65625-0.82812 1.2656 0 0.85938 0.59375 1.3906 1.5469 1.3906 0.59375 0 1.0781-0.20312 1.6094-0.6875 0.046875 0.48438 0.28125 0.6875 0.76562 0.6875 0.17188 0 0.26562-0.015625 0.51562-0.078125zm-1.3125-1.0469c0 0.25-0.078125 0.40625-0.29688 0.60938-0.3125 0.28125-0.67188 0.42188-1.1094 0.42188-0.59375 0-0.9375-0.28125-0.9375-0.75 0-0.5 0.32812-0.75 1.1406-0.85938 0.79688-0.10938 0.95312-0.15625 1.2031-0.26562zm-1.2969-4.9531h-0.9375v0.92188h0.9375zm1.4531 0h-0.9375v0.92188h0.9375z"/>
</g>
<g id="e">
<path d="m0.625-4.7188v4.7188h0.75v-2.4531c0.015625-1.125 0.48438-1.6406 1.5156-1.6094v-0.76562c-0.125-0.015625-0.20312-0.015625-0.29688-0.015625-0.48438 0-0.84375 0.28125-1.2812 0.98438v-0.85938z"/>
</g>
<g id="o">
<path d="m3.1875-5.8281h2.1562v-0.73438h-5.1562v0.73438h2.1562v5.8281h0.84375z"/>
</g>
<g id="g">
<path d="m4.8125-0.4375c-0.078125 0.015625-0.10938 0.015625-0.15625 0.015625-0.26562 0-0.40625-0.14062-0.40625-0.375v-2.7656c0-0.84375-0.60938-1.2812-1.7812-1.2812-0.6875 0-1.2344 0.1875-1.5625 0.54688-0.21875 0.23438-0.29688 0.51562-0.32812 0.96875h0.76562c0.0625-0.5625 0.40625-0.82812 1.1094-0.82812 0.67188 0 1.0469 0.25 1.0469 0.70312v0.1875c-0.015625 0.32812-0.17188 0.45312-0.78125 0.53125-1.0625 0.14062-1.2188 0.17188-1.5156 0.28125-0.54688 0.23438-0.82812 0.65625-0.82812 1.2656 0 0.85938 0.59375 1.3906 1.5469 1.3906 0.59375 0 1.0781-0.20312 1.6094-0.6875 0.046875 0.48438 0.28125 0.6875 0.76562 0.6875 0.17188 0 0.26562-0.015625 0.51562-0.078125zm-1.3125-1.0469c0 0.25-0.078125 0.40625-0.29688 0.60938-0.3125 0.28125-0.67188 0.42188-1.1094 0.42188-0.59375 0-0.9375-0.28125-0.9375-0.75 0-0.5 0.32812-0.75 1.1406-0.85938 0.79688-0.10938 0.95312-0.15625 1.2031-0.26562z"/>
</g>
<g id="n">
<path d="m4.4531-6.5625h-0.75v2.4375c-0.3125-0.46875-0.8125-0.71875-1.4375-0.71875-1.2344 0-2.0312 0.96875-2.0312 2.4844 0 1.5781 0.78125 2.5625 2.0469 2.5625 0.65625 0 1.1094-0.23438 1.5-0.82812v0.625h0.67188zm-2.0625 2.4062c0.79688 0 1.3125 0.71875 1.3125 1.8594 0 1.0781-0.51562 1.7969-1.3125 1.7969-0.82812 0-1.375-0.71875-1.375-1.8281 0-1.0938 0.54688-1.8281 1.375-1.8281z"/>
</g>
<g id="aj">
<path d="m4.5469-0.78125h-3.3438c0.078125-0.54688 0.35938-0.89062 1.1406-1.3594l0.90625-0.5c0.89062-0.5 1.3438-1.1719 1.3438-1.9688 0-0.53125-0.20312-1.0469-0.59375-1.3906-0.375-0.34375-0.84375-0.5-1.4375-0.5-0.8125 0-1.4219 0.28125-1.7656 0.84375-0.23438 0.34375-0.32812 0.75-0.34375 1.4062h0.78125c0.03125-0.45312 0.09375-0.70312 0.20312-0.92188 0.20312-0.40625 0.60938-0.64062 1.0938-0.64062 0.71875 0 1.25 0.51562 1.25 1.2188 0 0.53125-0.29688 0.96875-0.85938 1.2969l-0.82812 0.48438c-1.3281 0.76562-1.7188 1.375-1.7812 2.7969h4.2344z"/>
</g>
<g id="ai">
<path d="m1.9844-3h0.4375c0.85938 0 1.3281 0.40625 1.3281 1.1875 0 0.82812-0.5 1.3125-1.3125 1.3125-0.875 0-1.2969-0.4375-1.3594-1.3906h-0.79688c0.046875 0.51562 0.125 0.85938 0.28125 1.1562 0.34375 0.625 0.95312 0.9375 1.8281 0.9375 1.3125 0 2.1562-0.78125 2.1562-2.0156 0-0.82812-0.3125-1.2812-1.0781-1.5469 0.59375-0.25 0.89062-0.70312 0.89062-1.3594 0-1.1094-0.71875-1.7812-1.9375-1.7812-1.2812 0-1.9688 0.71875-2 2.0938h0.79688c0-0.40625 0.046875-0.625 0.14062-0.82812 0.17188-0.35938 0.57812-0.57812 1.0781-0.57812 0.6875 0 1.125 0.42188 1.125 1.125 0 0.45312-0.17188 0.73438-0.51562 0.89062-0.21875 0.09375-0.51562 0.125-1.0625 0.14062z"/>
</g>
<g id="l">
<path d="m1.3438-4.7188h-0.73438v4.7188h0.73438zm0-1.8438h-0.75v0.95312h0.75z"/>
</g>
<g id="ac">
<path d="m4.2344-3.125c-0.03125-0.46875-0.125-0.76562-0.3125-1.0312-0.32812-0.4375-0.89062-0.6875-1.5469-0.6875-1.2812 0-2.0938 1-2.0938 2.5625 0 1.5312 0.8125 2.4844 2.0781 2.4844 1.125 0 1.8438-0.67188 1.9375-1.8281h-0.76562c-0.125 0.76562-0.5 1.1406-1.1406 1.1406-0.82812 0-1.3281-0.67188-1.3281-1.7969 0-1.1719 0.48438-1.875 1.2969-1.875 0.64062 0 1.0312 0.375 1.125 1.0312z"/>
</g>
<g id="d">
<path d="m2.2812-4.7188h-0.76562v-1.2969h-0.75v1.2969h-0.64062v0.60938h0.64062v3.5625c0 0.5 0.32812 0.75 0.90625 0.75 0.20312 0 0.35938-0.015625 0.60938-0.0625v-0.625c-0.10938 0.03125-0.20312 0.03125-0.35938 0.03125-0.3125 0-0.40625-0.09375-0.40625-0.42188v-3.2344h0.76562z"/>
</g>
<g id="k">
<path d="m3.6406-4.7188v0.6875c-0.375-0.5625-0.79688-0.8125-1.3906-0.8125-1.1406 0-1.9375 1.0625-1.9375 2.5625 0 0.79688 0.1875 1.375 0.59375 1.8438 0.35938 0.42188 0.79688 0.64062 1.2969 0.64062 0.5625 0 0.96875-0.25 1.3594-0.84375v0.25c0 1.25-0.34375 1.7188-1.2812 1.7188-0.64062 0-0.96875-0.25-1.0469-0.78125h-0.76562c0.078125 0.85938 0.76562 1.4219 1.7969 1.4219 0.6875 0 1.2656-0.23438 1.5625-0.60938 0.35938-0.4375 0.5-1.0312 0.5-2.1406v-3.9375zm-1.3125 0.5625c0.78125 0 1.2344 0.67188 1.2344 1.8594 0 1.1406-0.45312 1.8125-1.2344 1.8125s-1.2344-0.67188-1.2344-1.8438c0-1.1406 0.45312-1.8281 1.2344-1.8281z"/>
</g>
<g id="ah">
<path d="m4.9844 0 1.3906-4.7188h-0.84375l-0.9375 3.6719-0.9375-3.6719h-0.90625l-0.90625 3.6719-0.96875-3.6719h-0.82812l1.375 4.7188h0.84375l0.90625-3.7031 0.95312 3.7031z"/>
</g>
<g id="ag">
<path d="m1.6562-2.7812h2.0625c0.51562 0 0.92188-0.15625 1.2656-0.46875 0.39062-0.35938 0.5625-0.78125 0.5625-1.3906 0-1.2344-0.71875-1.9219-2.0156-1.9219h-2.7188v6.5625h0.84375zm0-0.73438v-2.3125h1.75c0.79688 0 1.2812 0.4375 1.2812 1.1562s-0.48438 1.1562-1.2812 1.1562z"/>
</g>
<g id="ab">
<path d="m2.4531-4.8438c-1.3438 0-2.125 0.9375-2.125 2.5156 0 1.5938 0.78125 2.5312 2.125 2.5312 1.3281 0 2.1406-0.9375 2.1406-2.4844 0-1.6406-0.78125-2.5625-2.1406-2.5625zm0 0.6875c0.84375 0 1.3594 0.6875 1.3594 1.8594 0 1.125-0.53125 1.8125-1.3594 1.8125s-1.3438-0.6875-1.3438-1.8438c0-1.1406 0.51562-1.8281 1.3438-1.8281z"/>
</g>
<g id="af">
<path d="m5.9531-4.5312c-0.25-1.4375-1.0781-2.1406-2.5312-2.1406-0.875 0-1.5781 0.28125-2.0781 0.82812-0.59375 0.64062-0.90625 1.5781-0.90625 2.6406 0 1.0781 0.32812 2 0.9375 2.6406 0.51562 0.53125 1.1562 0.76562 2.0156 0.76562 1.6094 0 2.5-0.85938 2.7031-2.5938h-0.85938c-0.078125 0.45312-0.17188 0.75-0.29688 1.0156-0.28125 0.53125-0.82812 0.84375-1.5312 0.84375-1.3125 0-2.1406-1.0469-2.1406-2.6875 0-1.6719 0.78125-2.7188 2.0625-2.7188 0.53125 0 1.0312 0.15625 1.2969 0.42188 0.25 0.21875 0.375 0.5 0.48438 0.98438z"/>
</g>
<g id="aa">
<path d="m0.625-4.7188v4.7188h0.76562v-2.9688c0-0.67188 0.48438-1.2188 1.1094-1.2188 0.54688 0 0.85938 0.32812 0.85938 0.9375v3.25h0.76562v-2.9688c0-0.67188 0.48438-1.2188 1.1094-1.2188 0.54688 0 0.875 0.34375 0.875 0.9375v3.25h0.75v-3.5312c0-0.85938-0.48438-1.3125-1.375-1.3125-0.625 0-1 0.1875-1.4375 0.71875-0.28125-0.51562-0.65625-0.71875-1.2812-0.71875s-1.0469 0.23438-1.4375 0.79688v-0.67188z"/>
</g>
<g id="j">
<path d="m0.625-4.7188v4.7188h0.76562v-2.5938c0-0.96875 0.5-1.5938 1.2656-1.5938 0.60938 0 0.98438 0.35938 0.98438 0.92188v3.2656h0.75v-3.5625c0-0.78125-0.59375-1.2812-1.5-1.2812-0.70312 0-1.1562 0.26562-1.5625 0.92188v-0.79688z"/>
</g>
<g id="ae">
<path d="m1.2656-6.5625h-0.75v6.5625h0.75v-1.8438l0.73438-0.71875 1.5938 2.5625h0.92188l-1.9219-3.0938 1.6406-1.625h-0.96875l-2 2z"/>
</g>
<g id="z">
<path d="m0.79688 0h2.5312c1.6562 0 2.6719-1.2344 2.6719-3.2812 0-2.0312-1-3.2812-2.6719-3.2812h-2.5312zm0.84375-0.73438v-5.0938h1.5469c1.2969 0 1.9844 0.875 1.9844 2.5469s-0.6875 2.5469-1.9844 2.5469z"/>
</g>
<g id="w">
<path d="m4.8281-4.1719c0-0.40625-0.03125-0.51562-0.15625-0.79688-0.32812-0.67188-1.0156-1.0312-2.0156-1.0312-1.2812 0-2.0938 0.67188-2.0938 1.7344 0 0.71875 0.39062 1.1719 1.1562 1.375l1.4688 0.39062c0.75 0.1875 1.0938 0.5 1.0938 0.95312 0 0.3125-0.17188 0.64062-0.42188 0.8125-0.23438 0.17188-0.60938 0.25-1.0938 0.25-0.64062 0-1.0781-0.14062-1.3594-0.48438-0.21875-0.26562-0.3125-0.54688-0.3125-0.90625h-0.70312c0 0.54688 0.10938 0.89062 0.34375 1.2188 0.40625 0.5625 1.0938 0.84375 1.9844 0.84375 0.70312 0 1.2812-0.15625 1.6562-0.45312 0.40625-0.3125 0.65625-0.84375 0.65625-1.3594 0-0.71875-0.45312-1.25-1.2656-1.4688l-1.4688-0.40625c-0.71875-0.1875-0.98438-0.42188-0.98438-0.875 0-0.59375 0.53125-0.98438 1.3281-0.98438 0.9375 0 1.4688 0.40625 1.4688 1.1875z"/>
</g>
<g id="i">
<path d="m2.0625-4.2344h-0.70312v-1.1719h-0.67188v1.1719h-0.57812v0.54688h0.57812v3.2031c0 0.4375 0.29688 0.67188 0.8125 0.67188 0.1875 0 0.32812-0.015625 0.5625-0.0625v-0.5625c-0.10938 0.03125-0.1875 0.03125-0.32812 0.03125-0.29688 0-0.375-0.078125-0.375-0.375v-2.9062h0.70312z"/>
</g>
<g id="u">
<path d="m4.3281-0.39062c-0.078125 0.015625-0.10938 0.015625-0.14062 0.015625-0.23438 0-0.375-0.125-0.375-0.34375v-2.4844c0-0.75-0.54688-1.1562-1.5938-1.1562-0.60938 0-1.1094 0.17188-1.4062 0.48438-0.1875 0.21875-0.26562 0.46875-0.28125 0.89062h0.67188c0.0625-0.51562 0.35938-0.75 1-0.75 0.60938 0 0.95312 0.21875 0.95312 0.625v0.17188c-0.015625 0.29688-0.15625 0.40625-0.71875 0.48438-0.95312 0.10938-1.0938 0.14062-1.3594 0.25-0.48438 0.21875-0.73438 0.57812-0.73438 1.1406 0 0.76562 0.53125 1.25 1.3906 1.25 0.53125 0 0.95312-0.1875 1.4375-0.625 0.046875 0.4375 0.26562 0.625 0.70312 0.625 0.14062 0 0.23438-0.015625 0.45312-0.078125zm-1.1719-0.9375c0 0.21875-0.078125 0.35938-0.28125 0.54688-0.26562 0.25-0.59375 0.375-1 0.375-0.51562 0-0.82812-0.25-0.82812-0.67188 0-0.45312 0.28125-0.67188 1.0156-0.78125 0.71875-0.09375 0.85938-0.125 1.0938-0.23438z"/>
</g>
<g id="t">
<path d="m3.8125-2.8125c-0.03125-0.42188-0.125-0.6875-0.28125-0.92188-0.29688-0.39062-0.79688-0.625-1.3906-0.625-1.1562 0-1.8906 0.90625-1.8906 2.3125 0 1.3594 0.73438 2.2344 1.875 2.2344 1.0156 0 1.6562-0.60938 1.7344-1.6406h-0.67188c-0.125 0.67188-0.46875 1.0156-1.0469 1.0156-0.73438 0-1.1875-0.60938-1.1875-1.6094 0-1.0625 0.4375-1.6875 1.1719-1.6875 0.5625 0 0.92188 0.32812 1 0.92188z"/>
</g>
<g id="s">
<path d="m1.1406-5.9062h-0.67188v5.9062h0.67188v-1.6562l0.65625-0.64062 1.4375 2.2969h0.82812l-1.7344-2.7812 1.4688-1.4531h-0.85938l-1.7969 1.7969z"/>
</g>
<g id="r">
<path d="m3.5469-3.0625c-0.015625-0.82812-0.5625-1.2969-1.5469-1.2969s-1.625 0.5-1.625 1.2969c0 0.65625 0.34375 0.96875 1.3438 1.2188l0.64062 0.15625c0.46875 0.10938 0.65625 0.28125 0.65625 0.57812 0 0.40625-0.40625 0.67188-0.98438 0.67188-0.375 0-0.67188-0.10938-0.84375-0.28125-0.10938-0.125-0.15625-0.25-0.20312-0.54688h-0.70312c0.03125 0.98438 0.57812 1.4531 1.6875 1.4531 1.0625 0 1.75-0.53125 1.75-1.3438 0-0.625-0.35938-0.98438-1.2031-1.1875l-0.64062-0.15625c-0.5625-0.125-0.79688-0.29688-0.79688-0.59375 0-0.40625 0.35938-0.64062 0.90625-0.64062s0.82812 0.23438 0.84375 0.67188z"/>
</g>
<g id="h">
<path d="m4.1562-1.8906c0-0.65625-0.046875-1.0469-0.17188-1.3594-0.28125-0.6875-0.92188-1.1094-1.7188-1.1094-1.1875 0-1.9375 0.89062-1.9375 2.2969s0.71875 2.25 1.9219 2.25c0.96875 0 1.6406-0.54688 1.8125-1.4688h-0.67188c-0.1875 0.54688-0.57812 0.84375-1.1094 0.84375-0.4375 0-0.79688-0.1875-1.0312-0.54688-0.15625-0.25-0.21875-0.48438-0.21875-0.90625zm-3.1094-0.54688c0.046875-0.79688 0.53125-1.2969 1.2188-1.2969s1.1562 0.53125 1.1562 1.2969z"/>
</g>
<g id="q">
<path d="m3.2656-4.2344v0.60938c-0.32812-0.51562-0.70312-0.73438-1.2344-0.73438-1.0312 0-1.75 0.95312-1.75 2.3125 0 0.71875 0.17188 1.2344 0.53125 1.6562 0.32812 0.375 0.71875 0.57812 1.1562 0.57812 0.51562 0 0.875-0.23438 1.2344-0.76562v0.21875c0 1.1406-0.3125 1.5625-1.1562 1.5625-0.57812 0-0.875-0.23438-0.9375-0.71875h-0.6875c0.0625 0.78125 0.6875 1.2812 1.6094 1.2812 0.625 0 1.1406-0.20312 1.4219-0.54688 0.3125-0.39062 0.4375-0.92188 0.4375-1.9219v-3.5312zm-1.1719 0.5c0.70312 0 1.1094 0.59375 1.1094 1.6719 0 1.0312-0.40625 1.625-1.1094 1.625s-1.1094-0.60938-1.1094-1.6562c0-1.0312 0.40625-1.6406 1.1094-1.6406z"/>
</g>
<g id="p">
<path d="m0.5625-4.2344v4.2344h0.6875v-2.6562c0-0.625 0.4375-1.1094 0.98438-1.1094 0.51562 0 0.79688 0.29688 0.79688 0.84375v2.9219h0.67188v-2.6562c0-0.625 0.45312-1.1094 1-1.1094 0.5 0 0.78125 0.3125 0.78125 0.84375v2.9219h0.6875v-3.1875c0-0.75-0.4375-1.1719-1.2344-1.1719-0.5625 0-0.90625 0.17188-1.2969 0.64062-0.25-0.45312-0.59375-0.64062-1.1406-0.64062-0.57812 0-0.95312 0.20312-1.3125 0.71875v-0.59375z"/>
</g>
<g id="v">
<path d="m0.5625-4.2344v4.2344h0.6875v-2.3438c0-0.85938 0.45312-1.4219 1.1406-1.4219 0.54688 0 0.875 0.3125 0.875 0.82812v2.9375h0.67188v-3.2031c0-0.70312-0.51562-1.1562-1.3438-1.1562-0.625 0-1.0312 0.23438-1.4062 0.82812v-0.70312z"/>
</g>
<clipPath id="aq">
<path d="m23 0.21875h87v2.7812h-87z"/>
</clipPath>
<clipPath id="ap">
<path d="m189 0.21875h17v106.78h-17z"/>
</clipPath>
<clipPath id="ao">
<path d="m95 20h93v46h-93z"/>
</clipPath>
<clipPath id="an">
<path d="m0.52734 212.24h244v-264h-244zm183.07-145.7h4.5312v-1.8008h-4.5312l3.6016 0.90234z" clip-rule="evenodd"/>
</clipPath>
<clipPath id="am">
<path d="m95 47h93v26h-93z"/>
</clipPath>
<clipPath id="al">
<path d="m0.52734 212.24h244v-264h-244zm183.07-163.7h4.5312v-1.8008h-4.5312l3.6016 0.90234z" clip-rule="evenodd"/>
</clipPath>
<clipPath id="ak">
<path d="m0.52734 0.21875h244v212.02h-244z"/>
</clipPath>
</defs>
<g clip-path="url(#aq)">
<path transform="matrix(.1 0 0 -.1 .528 212.24)" d="m229.02 2096h855v405h-855z" fill="none" stroke="#000" stroke-miterlimit="10" stroke-width="2.25"/>
</g>
<path transform="matrix(.1 0 0 -.1 .528 212.24)" d="m274.02 1826h675v135h-675z" fill="none" stroke="#000" stroke-miterlimit="10" stroke-width="2.25"/>
<path transform="matrix(.1 0 0 -.1 .528 212.24)" d="m364.02 1646h675v135h-675z" fill="none" stroke="#000" stroke-miterlimit="10" stroke-width="2.25"/>
<path transform="matrix(.1 0 0 -.1 .528 212.24)" d="m229.02 1601h855v405h-855z" fill="none" stroke="#000" stroke-miterlimit="10" stroke-width="2.25"/>
<path transform="matrix(.1 0 0 -.1 .528 212.24)" d="m274.02 1308.5h675v135h-675z" fill="none" stroke="#000" stroke-miterlimit="10" stroke-width="2.25"/>
<path transform="matrix(.1 0 0 -.1 .528 212.24)" d="m364.02 1128.5h675v135h-675z" fill="none" stroke="#000" stroke-miterlimit="10" stroke-width="2.25"/>
<path transform="matrix(.1 0 0 -.1 .528 212.24)" d="m229.02 1083.5h855v405h-855z" fill="none" stroke="#000" stroke-miterlimit="10" stroke-width="2.25"/>
<g clip-path="url(#ap)">
<path transform="matrix(.1 0 0 -.1 .528 212.24)" d="m1894 1061h157.5v1440h-157.5z" fill="none" stroke="#000" stroke-miterlimit="10" stroke-width="2.25"/>
</g>
<g clip-path="url(#ao)">
<g clip-path="url(#an)">
<path transform="matrix(.1 0 0 -.1 .528 212.24)" d="m949.02 1916h585v-450h337.5" fill="none" stroke="#000" stroke-miterlimit="10" stroke-width="2.25"/>
</g>
</g>
<path transform="matrix(.1 0 0 -.1 .528 212.24)" d="m1830.7 1457 36.016 8.9844-36.016 9.0234z" fill-rule="evenodd" stroke="#000" stroke-miterlimit="10" stroke-width="2.25"/>
<g clip-path="url(#am)">
<g clip-path="url(#al)">
<path transform="matrix(.1 0 0 -.1 .528 212.24)" d="m949.02 1398.5h405v247.5h517.5" fill="none" stroke="#000" stroke-miterlimit="10" stroke-width="2.25"/>
</g>
</g>
<path transform="matrix(.1 0 0 -.1 .528 212.24)" d="m1830.7 1637 36.016 8.9844-36.016 9.0234z" fill-rule="evenodd" stroke="#000" stroke-miterlimit="10" stroke-width="2.25"/>
<g clip-path="url(#ak)">
<path transform="matrix(.1 0 0 -.1 .528 212.24)" d="m4.0169 3.4838h2430v2632.5h-2430z" fill="none" stroke="#000" stroke-miterlimit="10" stroke-width="2.25"/>
</g>
<path transform="matrix(.1 0 0 -.1 .528 212.24)" d="m274.02 295.98h720v360h-720z" fill="none" stroke="#000" stroke-miterlimit="10" stroke-width="2.25"/>
<path transform="matrix(.1 0 0 -.1 .528 212.24)" d="m1264 295.98h540v360h-540z" fill="none" stroke="#000" stroke-miterlimit="10" stroke-width="2.25"/>
<g>
<use x="34.678" y="26.039" xlink:href="#ad"/>
<use x="40.681" y="26.039" xlink:href="#a"/>
<use x="45.685" y="26.039" xlink:href="#y"/>
<use x="48.187" y="26.039" xlink:href="#a"/>
<use x="53.191" y="26.039" xlink:href="#b"/>
<use x="58.195" y="26.039" xlink:href="#f"/>
<use x="60.193" y="26.039" xlink:href="#c"/>
<use x="64.693" y="26.039" xlink:href="#m"/>
<use x="69.193" y="26.039" xlink:href="#x"/>
<use x="74.197" y="26.039" xlink:href="#b"/>
<use x="79.201" y="26.039" xlink:href="#f"/>
<use x="81.199" y="26.039" xlink:href="#a"/>
<use x="86.203" y="26.039" xlink:href="#e"/>
<use x="41.128" y="43.7691" xlink:href="#w"/>
<use x="46.5307" y="43.7691" xlink:href="#i"/>
<use x="48.7825" y="43.7691" xlink:href="#u"/>
<use x="53.2861" y="43.7691" xlink:href="#t"/>
<use x="57.3361" y="43.7691" xlink:href="#s"/>
<use x="61.3861" y="43.7691" xlink:href="#r"/>
<use x="65.4361" y="43.7691" xlink:href="#h"/>
<use x="69.9397" y="43.7691" xlink:href="#q"/>
<use x="74.4433" y="43.7691" xlink:href="#p"/>
<use x="81.1906" y="43.7691" xlink:href="#h"/>
<use x="85.6942" y="43.7691" xlink:href="#v"/>
<use x="90.1978" y="43.7691" xlink:href="#i"/>
<use x="34.678" y="77.789" xlink:href="#ad"/>
<use x="40.681" y="77.789" xlink:href="#a"/>
<use x="45.685" y="77.789" xlink:href="#y"/>
<use x="48.187" y="77.789" xlink:href="#a"/>
<use x="53.191" y="77.789" xlink:href="#b"/>
<use x="58.195" y="77.789" xlink:href="#f"/>
<use x="60.193" y="77.789" xlink:href="#c"/>
<use x="64.693" y="77.789" xlink:href="#m"/>
<use x="69.193" y="77.789" xlink:href="#x"/>
<use x="74.197" y="77.789" xlink:href="#b"/>
<use x="79.201" y="77.789" xlink:href="#f"/>
<use x="81.199" y="77.789" xlink:href="#a"/>
<use x="86.203" y="77.789" xlink:href="#e"/>
<use x="41.128" y="95.5191" xlink:href="#w"/>
<use x="46.5307" y="95.5191" xlink:href="#i"/>
<use x="48.7825" y="95.5191" xlink:href="#u"/>
<use x="53.2861" y="95.5191" xlink:href="#t"/>
<use x="57.3361" y="95.5191" xlink:href="#s"/>
<use x="61.3861" y="95.5191" xlink:href="#r"/>
<use x="65.4361" y="95.5191" xlink:href="#h"/>
<use x="69.9397" y="95.5191" xlink:href="#q"/>
<use x="74.4433" y="95.5191" xlink:href="#p"/>
<use x="81.1906" y="95.5191" xlink:href="#h"/>
<use x="85.6942" y="95.5191" xlink:href="#v"/>
<use x="90.1978" y="95.5191" xlink:href="#i"/>
<use x="111.178" y="34.1391" xlink:href="#o"/>
<use x="116.677" y="34.1391" xlink:href="#b"/>
<use x="121.681" y="34.1391" xlink:href="#e"/>
<use x="124.678" y="34.1391" xlink:href="#a"/>
<use x="129.682" y="34.1391" xlink:href="#g"/>
<use x="134.686" y="34.1391" xlink:href="#n"/>
<use x="139.69" y="34.1391" xlink:href="#glyph-0-13"/>
<use x="142.192" y="34.1391" xlink:href="#aj"/>
<use x="111.178" y="88.1391" xlink:href="#o"/>
<use x="116.677" y="88.1391" xlink:href="#b"/>
<use x="121.681" y="88.1391" xlink:href="#e"/>
<use x="124.678" y="88.1391" xlink:href="#a"/>
<use x="129.682" y="88.1391" xlink:href="#g"/>
<use x="134.686" y="88.1391" xlink:href="#n"/>
<use x="139.69" y="88.1391" xlink:href="#glyph-0-13"/>
<use x="142.192" y="88.1391" xlink:href="#ai"/>
<use x="14.4124" y="119.6391" xlink:href="#f"/>
<use x="16.4104" y="119.6391" xlink:href="#a"/>
<use x="21.4144" y="119.6391" xlink:href="#l"/>
<use x="23.4124" y="119.6391" xlink:href="#ac"/>
<use x="27.9124" y="119.6391" xlink:href="#b"/>
<use x="32.9164" y="119.6391" xlink:href="#d"/>
<use x="35.4184" y="119.6391" xlink:href="#k"/>
<use x="40.4224" y="119.6391" xlink:href="#a"/>
<use x="45.4264" y="119.6391" xlink:href="#ah"/>
<use x="51.9244" y="119.6391" xlink:href="#l"/>
<use x="53.9224" y="119.6391" xlink:href="#ac"/>
<use x="58.4224" y="119.6391" xlink:href="#b"/>
<use x="63.4264" y="119.6391" xlink:href="#d"/>
<use x="65.9284" y="119.6391" xlink:href="#l"/>
<use x="67.9264" y="119.6391" xlink:href="#k"/>
<use x="72.9304" y="119.6391" xlink:href="#a"/>
<use x="77.9344" y="119.6391" xlink:href="#glyph-0-13"/>
<use x="80.4364" y="119.6391" xlink:href="#ag"/>
<use x="86.4394" y="119.6391" xlink:href="#e"/>
<use x="89.4364" y="119.6391" xlink:href="#ab"/>
<use x="94.4404" y="119.6391" xlink:href="#m"/>
<use x="98.9404" y="119.6391" xlink:href="#a"/>
<use x="103.9444" y="119.6391" xlink:href="#c"/>
<use x="108.4444" y="119.6391" xlink:href="#c"/>
<use x="112.9444" y="119.6391" xlink:href="#a"/>
<use x="170.9164" y="124.1391" xlink:href="#af"/>
<use x="177.4144" y="124.1391" xlink:href="#ab"/>
<use x="182.4184" y="124.1391" xlink:href="#n"/>
<use x="187.4224" y="124.1391" xlink:href="#a"/>
<use x="192.4264" y="124.1391" xlink:href="#c"/>
<use x="196.9264" y="124.1391" xlink:href="#a"/>
<use x="201.9304" y="124.1391" xlink:href="#k"/>
<use x="206.9344" y="124.1391" xlink:href="#aa"/>
<use x="214.4314" y="124.1391" xlink:href="#a"/>
<use x="219.4354" y="124.1391" xlink:href="#j"/>
<use x="224.4394" y="124.1391" xlink:href="#d"/>
<use x="200.4269" y="200.6391" xlink:href="#o"/>
<use x="205.9259" y="200.6391" xlink:href="#g"/>
<use x="210.9299" y="200.6391" xlink:href="#c"/>
<use x="215.4299" y="200.6391" xlink:href="#ae"/>
<use x="34.6649" y="169.1391" xlink:href="#z"/>
<use x="41.1629" y="169.1391" xlink:href="#g"/>
<use x="46.1669" y="169.1391" xlink:href="#d"/>
<use x="48.6689" y="169.1391" xlink:href="#a"/>
<use x="53.6729" y="169.1391" xlink:href="#j"/>
<use x="58.6769" y="169.1391" xlink:href="#c"/>
<use x="63.1769" y="169.1391" xlink:href="#a"/>
<use x="68.1809" y="169.1391" xlink:href="#k"/>
<use x="73.1849" y="169.1391" xlink:href="#aa"/>
<use x="80.6819" y="169.1391" xlink:href="#a"/>
<use x="85.6859" y="169.1391" xlink:href="#j"/>
<use x="90.6899" y="169.1391" xlink:href="#d"/>
<use x="138.42113" y="169.1391" xlink:href="#z"/>
<use x="144.91913" y="169.1391" xlink:href="#g"/>
<use x="149.92313" y="169.1391" xlink:href="#d"/>
<use x="152.42513" y="169.1391" xlink:href="#a"/>
<use x="157.42913" y="169.1391" xlink:href="#l"/>
<use x="159.42713" y="169.1391" xlink:href="#a"/>
<use x="164.43113" y="169.1391" xlink:href="#j"/>
</g>
</svg>
