<svg width="388pt" height="619pt" version="1.1" viewBox="0 0 388 619" xmlns="http://www.w3.org/2000/svg" xmlns:xlink="http://www.w3.org/1999/xlink">
<defs>
<g id="c">
<path d="m1.5938-2.0469c0-0.375 0.09375-1.6875 1.125-1.6875-0.015625 0.015625-0.15625 0.125-0.15625 0.32812 0 0.25 0.1875 0.40625 0.39062 0.40625 0.1875 0 0.39062-0.14062 0.39062-0.40625 0-0.28125-0.26562-0.5625-0.67188-0.5625-0.53125 0-0.90625 0.375-1.125 0.9375v-0.9375l-1.2812 0.10938v0.26562c0.60938 0 0.6875 0.0625 0.6875 0.51562v2.3906c0 0.40625-0.09375 0.40625-0.6875 0.40625v0.28125c0.48438-0.015625 0.59375-0.03125 1.0469-0.03125 0.35938 0 0.57812 0.015625 1.1406 0.03125v-0.28125h-0.17188c-0.65625 0-0.6875-0.09375-0.6875-0.42188z"/>
</g>
<g id="a">
<path d="m3.5938-2.0469c0.1875 0 0.23438 0 0.23438-0.20312 0-0.92188-0.5-1.7656-1.6562-1.7656-1.0625 0-1.9062 0.9375-1.9062 2.0469 0 1.1719 0.9375 2.0625 2.0312 2.0625s1.5312-0.95312 1.5312-1.1562c0-0.0625-0.046875-0.125-0.125-0.125-0.09375 0-0.10938 0.0625-0.125 0.10938-0.29688 0.90625-1.1094 0.92188-1.2344 0.92188-0.4375 0-0.79688-0.23438-1-0.54688-0.29688-0.4375-0.3125-0.96875-0.3125-1.3438zm-2.5469-0.21875c0.078125-1.3906 0.875-1.5312 1.125-1.5312 0.5 0 1.0312 0.375 1.0469 1.5312z"/>
</g>
<g id="q">
<path d="m3.2656-3.5312c-0.1875 0.046875-0.375 0.17188-0.375 0.42188 0 0.23438 0.1875 0.42188 0.42188 0.42188s0.42188-0.15625 0.42188-0.4375c0-0.54688-0.625-0.89062-1.4219-0.89062-1.1406 0-2 0.95312-2 2.0781 0 1.1562 0.92188 2.0312 1.9844 2.0312 1.25 0 1.5312-1.0781 1.5312-1.1562 0-0.10938-0.09375-0.10938-0.125-0.10938-0.09375 0-0.09375 0.015625-0.15625 0.17188-0.20312 0.60938-0.70312 0.84375-1.1562 0.84375-0.57812 0-1.3125-0.46875-1.3125-1.7969 0-1.3906 0.71875-1.8125 1.25-1.8125 0.125 0 0.60938 0.015625 0.9375 0.23438z"/>
</g>
<g id="j">
<path d="m1.6562-3.9688-1.2969 0.10938v0.26562c0.57812 0 0.65625 0.0625 0.65625 0.5v2.4062c0 0.40625-0.09375 0.40625-0.6875 0.40625v0.28125c0.39062-0.015625 0.59375-0.03125 0.98438-0.03125 0.14062 0 0.51562 0 0.95312 0.03125v-0.28125c-0.57812 0-0.60938-0.046875-0.60938-0.39062zm0.015625-1.5625c0-0.26562-0.20312-0.48438-0.48438-0.48438-0.26562 0-0.48438 0.23438-0.48438 0.48438 0 0.26562 0.21875 0.48438 0.48438 0.48438 0.28125 0 0.48438-0.20312 0.48438-0.48438z"/>
</g>
<g id="p">
<path d="m1.6094-3.1875c-0.015625-0.046875-0.046875-0.10938-0.046875-0.17188 0-0.23438 0.32812-0.23438 0.5-0.23438v-0.26562c-0.39062 0.015625-0.59375 0.015625-0.98438 0.015625-0.3125 0-0.57812 0-0.90625-0.015625v0.26562c0.42188 0 0.59375 0 0.73438 0.34375l1.3125 3.1719c0.046875 0.15625 0.125 0.17188 0.20312 0.17188s0.15625-0.015625 0.21875-0.17188l1.2188-2.9375c0.1875-0.45312 0.5-0.5625 0.8125-0.57812v-0.26562c-0.26562 0.015625-0.67188 0.015625-0.6875 0.015625-0.25 0-0.53125 0-0.78125-0.015625v0.26562c0.26562 0.03125 0.40625 0.15625 0.40625 0.39062 0 0.09375 0 0.10938-0.046875 0.20312l-0.92188 2.2656z"/>
</g>
<g id="n">
<path d="m3.6719-6.2344c-0.046875-0.10938-0.078125-0.1875-0.21875-0.1875s-0.15625 0.046875-0.21875 0.20312l-1.9219 5.3281c-0.10938 0.29688-0.3125 0.60938-1 0.60938v0.28125c0.32812-0.03125 0.57812-0.03125 0.90625-0.03125 0.3125 0 0.51562 0.015625 1.0156 0.03125v-0.28125c-0.51562 0-0.67188-0.28125-0.67188-0.45312 0-0.078125 0.03125-0.125 0.046875-0.17188l0.42188-1.1562h2.3125l0.48438 1.3594c0.046875 0.078125 0.046875 0.10938 0.046875 0.15625 0 0.26562-0.5 0.26562-0.73438 0.26562v0.28125c0.40625-0.03125 0.875-0.03125 1.2812-0.03125s0.4375 0 1.1719 0.03125v-0.28125h-0.14062c-0.5625 0-0.65625-0.078125-0.75-0.32812zm0.57812 3.8906h-2.125l1.0625-2.9375z"/>
</g>
<g id="m">
<path d="m5.4219-5.5469c-0.28125-0.28125-0.79688-0.78125-1.7031-0.78125-1.7344 0-3.2031 1.4531-3.2031 3.2656 0 1.8438 1.4844 3.2656 3.2031 3.2656 1.4844 0 2.4219-1.2344 2.4219-2.2812 0-0.09375 0-0.17188-0.125-0.17188s-0.125 0.0625-0.125 0.14062c-0.078125 1.3594-1.1562 2.0312-2.0781 2.0312-0.76562 0-2.3906-0.48438-2.3906-2.9844s1.6406-2.9844 2.375-2.9844c0.89062 0 1.8281 0.67188 2.0469 2.125 0.015625 0.125 0.03125 0.15625 0.14062 0.15625 0.15625 0 0.15625-0.03125 0.15625-0.21875v-2.1094c0-0.15625 0-0.23438-0.10938-0.23438-0.0625 0-0.09375 0.03125-0.14062 0.10938z"/>
</g>
<g id="l">
<path d="m5.375-5.2969c0.5625-0.53125 1.125-0.54688 1.2656-0.54688v-0.28125c-0.25 0.03125-0.70312 0.03125-0.79688 0.03125-0.375 0-0.70312-0.015625-1.1094-0.03125v0.28125c0.25 0 0.39062 0.125 0.39062 0.29688 0 0.0625-0.03125 0.14062-0.078125 0.20312l-2.9844 2.7656v-2.8438c0-0.32812 0.015625-0.42188 0.70312-0.42188h0.21875v-0.28125c-0.40625 0.03125-0.90625 0.03125-1.3281 0.03125-0.40625 0-0.90625 0-1.3125-0.03125v0.28125h0.20312c0.6875 0 0.70312 0.09375 0.70312 0.42188v4.7188c0 0.32812-0.015625 0.42188-0.70312 0.42188h-0.20312v0.28125c0.40625-0.03125 0.90625-0.03125 1.3125-0.03125 0.42188 0 0.92188 0 1.3281 0.03125v-0.28125h-0.21875c-0.6875 0-0.70312-0.09375-0.70312-0.42188v-1.5469l1.0938-1 1.6719 2.375c0.078125 0.10938 0.15625 0.23438 0.15625 0.34375 0 0.25-0.34375 0.25-0.51562 0.25v0.28125c0.40625-0.03125 0.84375-0.03125 1.25-0.03125 0.23438 0 0.59375 0 1.0469 0.03125v-0.28125c-0.5625 0-0.6875-0.078125-0.96875-0.48438l-2.1094-2.9844z"/>
</g>
<g id="k">
<path d="m4.25-2.875c0-0.59375-0.03125-1.375-0.34375-2.0469-0.40625-0.84375-1.0781-1.0469-1.5938-1.0469-0.54688 0-1.2344 0.20312-1.625 1.0781-0.28125 0.60938-0.32812 1.3438-0.32812 2.0156 0 0.59375 0.015625 1.4531 0.40625 2.1719 0.42188 0.75 1.125 0.90625 1.5312 0.90625 0.57812 0 1.25-0.25 1.625-1.0781 0.26562-0.60938 0.32812-1.2812 0.32812-2zm-1.9375 2.8438c-0.28125 0-0.92188-0.125-1.0938-1.1406-0.09375-0.51562-0.09375-1.2969-0.09375-1.8125 0-0.60938 0-1.3125 0.10938-1.8125 0.1875-0.79688 0.75-0.95312 1.0625-0.95312 0.34375 0 0.90625 0.1875 1.0781 1.0156 0.09375 0.48438 0.09375 1.1875 0.09375 1.75s0 1.3125-0.09375 1.8438c-0.1875 1.0312-0.84375 1.1094-1.0625 1.1094z"/>
</g>
<g id="h">
<path d="m3.0781-3.7812c0-0.15625 0-0.23438-0.09375-0.23438-0.046875 0-0.0625 0-0.1875 0.10938-0.015625 0.015625-0.09375 0.09375-0.15625 0.14062-0.26562-0.20312-0.54688-0.25-0.85938-0.25-1.1875 0-1.4688 0.65625-1.4688 1.1094 0 0.28125 0.125 0.51562 0.32812 0.71875 0.29688 0.28125 0.64062 0.34375 1.0938 0.42188 0.46875 0.09375 0.60938 0.10938 0.8125 0.26562 0.09375 0.078125 0.3125 0.25 0.3125 0.57812 0 0.79688-0.90625 0.79688-1.0312 0.79688-0.90625 0-1.1406-0.76562-1.25-1.25-0.03125-0.09375-0.046875-0.14062-0.14062-0.14062-0.125 0-0.125 0.078125-0.125 0.23438v1.1406c0 0.15625 0 0.23438 0.09375 0.23438 0.0625 0 0.0625 0 0.23438-0.17188 0.03125-0.0625 0.125-0.17188 0.17188-0.21875 0.375 0.375 0.79688 0.39062 1.0156 0.39062 1.1094 0 1.4844-0.64062 1.4844-1.2344 0-0.40625-0.17188-0.65625-0.375-0.85938-0.29688-0.29688-0.625-0.35938-1.2812-0.48438-0.23438-0.046875-0.89062-0.15625-0.89062-0.67188 0-0.28125 0.20312-0.67188 1.0156-0.67188 0.96875 0 1.0312 0.75 1.0469 0.96875 0.015625 0.10938 0.015625 0.17188 0.125 0.17188 0.125 0 0.125-0.0625 0.125-0.23438z"/>
</g>
<g id="b">
<path d="m1.6719-2.3281c0-0.95312 0.67188-1.4062 1.2344-1.4062 0.53125 0 0.64062 0.4375 0.64062 0.96875v2.0781c0 0.40625-0.09375 0.40625-0.6875 0.40625v0.28125c0.42188-0.015625 0.59375-0.03125 1.0312-0.03125 0.42188 0 0.54688 0.015625 1.0156 0.03125v-0.28125c-0.45312 0-0.6875 0-0.6875-0.28125v-1.7188c0-0.73438 0-1-0.25-1.3125-0.20312-0.25-0.54688-0.375-1-0.375-0.82812 0-1.2188 0.625-1.3438 0.875h-0.015625v-0.875l-1.2969 0.10938v0.26562c0.60938 0 0.6875 0.0625 0.6875 0.51562v2.3906c0 0.40625-0.09375 0.40625-0.6875 0.40625v0.28125c0.42188-0.015625 0.59375-0.03125 1.0312-0.03125 0.42188 0 0.54688 0.015625 1.0156 0.03125v-0.28125c-0.59375 0-0.6875 0-0.6875-0.40625z"/>
</g>
<g id="i">
<path d="m3.4844-1.0781c0 0.15625 0 0.1875-0.125 0.375-0.28125 0.40625-0.70312 0.57812-1.0469 0.57812-0.39062 0-0.75-0.21875-0.98438-0.59375-0.23438-0.39062-0.25-0.90625-0.25-1.2031 0-0.42188 0.046875-0.89062 0.28125-1.25 0.20312-0.29688 0.5625-0.5625 1.0469-0.5625 0.375 0 0.73438 0.1875 0.96875 0.53125 0.10938 0.14062 0.10938 0.14062 0.10938 0.3125zm0.03125-2.3594c-0.046875-0.046875-0.45312-0.53125-1.1406-0.53125-1.1094 0-2.0625 0.89062-2.0625 2.0469 0 1.1094 0.89062 2.0156 1.9531 2.0156 0.65625 0 1.0625-0.375 1.2188-0.5625v0.5625l1.3594-0.09375v-0.28125c-0.60938 0-0.6875-0.0625-0.6875-0.5v-5.4375l-1.3281 0.09375v0.28125c0.60938 0 0.6875 0.0625 0.6875 0.5z"/>
</g>
<g id="f">
<path d="m1.625-3.0156c0.29688-0.51562 0.79688-0.70312 1.1719-0.70312 0.70312 0 1.2344 0.8125 1.2344 1.7812 0 1.0156-0.60938 1.8125-1.3281 1.8125-0.40625 0-0.75-0.23438-0.96875-0.54688-0.10938-0.1875-0.10938-0.20312-0.10938-0.375zm0 2.5781c0.23438 0.23438 0.53125 0.53125 1.125 0.53125 1.0781 0 2.0625-0.85938 2.0625-2.0312 0-1.125-0.89062-2.0312-1.9375-2.0312-0.48438 0-0.9375 0.20312-1.2812 0.5625v-0.5625l-1.3281 0.10938v0.26562c0.64062 0 0.6875 0.0625 0.6875 0.45312v4.1875c0 0.42188-0.09375 0.42188-0.6875 0.42188v0.26562c0.42188-0.015625 0.59375-0.015625 1.0312-0.015625 0.42188 0 0.54688 0 1.0156 0.015625v-0.26562c-0.59375 0-0.6875 0-0.6875-0.42188z"/>
</g>
<g id="e">
<path d="m3.0625-0.64062c0.046875 0.375 0.3125 0.6875 0.70312 0.6875 0.21875 0 0.78125-0.125 0.78125-0.84375v-0.5h-0.25v0.48438c0 0.10938 0 0.54688-0.32812 0.54688-0.3125 0-0.3125-0.42188-0.3125-0.5625v-1.5781c0-0.51562 0-0.8125-0.40625-1.1875-0.32812-0.29688-0.76562-0.42188-1.2188-0.42188-0.75 0-1.375 0.375-1.375 0.95312 0 0.26562 0.1875 0.42188 0.42188 0.42188s0.40625-0.17188 0.40625-0.40625c0-0.39062-0.39062-0.4375-0.40625-0.4375 0.25-0.23438 0.6875-0.3125 0.9375-0.3125 0.45312 0 0.96875 0.34375 0.96875 1.1406v0.28125c-0.48438 0.03125-1.1562 0.0625-1.75 0.35938-0.65625 0.3125-0.84375 0.78125-0.84375 1.1406 0 0.73438 0.85938 0.96875 1.4688 0.96875 0.73438 0 1.0781-0.48438 1.2031-0.73438zm-0.078125-0.625c0 0.875-0.67188 1.1406-1.0625 1.1406-0.42188 0-0.8125-0.3125-0.8125-0.75 0-0.59375 0.5-1.2188 1.875-1.2812z"/>
</g>
<g id="g">
<path d="m1.5938-1.9531v-4.2656l-1.3281 0.09375v0.28125c0.60938 0 0.6875 0.0625 0.6875 0.5v4.6562c0 0.40625-0.09375 0.40625-0.6875 0.40625v0.28125c0.39062-0.015625 0.625-0.03125 1-0.03125 0.35938 0 0.59375 0.015625 1 0.03125v-0.28125c-0.59375 0-0.70312 0-0.70312-0.40625v-0.90625l0.57812-0.48438 0.875 1.1719c0.14062 0.20312 0.21875 0.3125 0.21875 0.4375 0 0.078125-0.03125 0.1875-0.3125 0.1875v0.28125c0.40625-0.015625 0.625-0.03125 0.96875-0.03125 0.26562 0 0.54688 0 0.8125 0.03125v-0.28125c-0.29688 0-0.51562 0-0.84375-0.4375l-1.2656-1.7344c0.875-0.75 1.2969-1.1094 1.9062-1.1406v-0.26562c-0.32812 0.015625-0.34375 0.015625-0.67188 0.015625-0.26562 0-0.5 0-0.98438-0.015625v0.26562c0.14062 0.015625 0.23438 0.078125 0.23438 0.21875 0 0.17188-0.14062 0.29688-0.21875 0.35938z"/>
</g>
<g id="d">
<path d="m2.9219-3.5938v-0.26562h-1.3125v-1.6562h-0.25c0 0.75-0.3125 1.6719-1.1875 1.7031v0.21875h0.78125v2.4844c0 1 0.71875 1.2031 1.2031 1.2031 0.59375 0 0.90625-0.5625 0.90625-1.2031v-0.51562h-0.25v0.48438c0 0.67188-0.28125 0.98438-0.59375 0.98438-0.60938 0-0.60938-0.78125-0.60938-0.95312v-2.4844z"/>
</g>
<g id="ak">
<path d="m5.5-6.0938h-5.1562v0.26562h0.20312c0.6875 0 0.70312 0.10938 0.70312 0.4375v4.6875c0 0.32812-0.015625 0.42188-0.70312 0.42188h-0.20312v0.28125h5.2656l0.39062-2.3125h-0.25c-0.21875 1.3906-0.45312 2.0312-1.9844 2.0312h-1.2656c-0.42188 0-0.4375-0.0625-0.4375-0.35938v-2.3906h0.82812c0.89062 0 1 0.28125 1 1.0469h0.25v-2.375h-0.25c0 0.76562-0.10938 1.0469-1 1.0469h-0.82812v-2.1406c0-0.3125 0.015625-0.375 0.4375-0.375h1.2031c1.4062 0 1.6562 0.48438 1.7969 1.75h0.25z"/>
</g>
<g id="ad">
<path d="m1.6719-2.3281c0-0.96875 0.70312-1.4062 1.2344-1.4062 0.5 0 0.65625 0.34375 0.65625 0.96875v2.0781c0 0.40625-0.09375 0.40625-0.6875 0.40625v0.28125c0.42188-0.015625 0.59375-0.03125 1.0156-0.03125 0.4375 0 0.54688 0.015625 1.0312 0.03125v-0.28125c-0.59375 0-0.70312 0-0.70312-0.40625v-1.6406c0-0.96875 0.70312-1.4062 1.25-1.4062 0.48438 0 0.64062 0.34375 0.64062 0.96875v2.0781c0 0.40625-0.09375 0.40625-0.6875 0.40625v0.28125c0.42188-0.015625 0.59375-0.03125 1.0312-0.03125 0.42188 0 0.54688 0.015625 1.0156 0.03125v-0.28125c-0.45312 0-0.67188 0-0.6875-0.28125v-1.7188c0-0.78125 0-1.0312-0.29688-1.3594-0.1875-0.21875-0.54688-0.32812-0.95312-0.32812-0.65625 0-1.0938 0.375-1.3438 0.85938-0.10938-0.53125-0.46875-0.85938-1.2188-0.85938-0.71875 0-1.1562 0.46875-1.3438 0.89062h-0.015625v-0.89062l-1.2969 0.10938v0.26562c0.60938 0 0.6875 0.0625 0.6875 0.51562v2.3906c0 0.40625-0.09375 0.40625-0.6875 0.40625v0.28125c0.42188-0.015625 0.59375-0.03125 1.0312-0.03125 0.42188 0 0.54688 0.015625 1.0156 0.03125v-0.28125c-0.59375 0-0.6875 0-0.6875-0.40625z"/>
</g>
<g id="ai">
<path d="m2.6875-3.5938v-0.26562h-1.0625v-1.0156c0-0.8125 0.4375-1.2188 0.82812-1.2188 0.078125 0 0.17188 0.015625 0.26562 0.046875-0.09375 0.03125-0.23438 0.14062-0.23438 0.375s0.17188 0.39062 0.39062 0.39062c0.25 0 0.40625-0.17188 0.40625-0.40625 0-0.34375-0.34375-0.64062-0.82812-0.64062-0.70312 0-1.4375 0.53125-1.4375 1.4375v1.0312h-0.70312v0.26562h0.70312v2.9062c0 0.40625-0.09375 0.40625-0.6875 0.40625v0.28125c0.46875-0.015625 0.59375-0.03125 1.0469-0.03125 0.35938 0 0.57812 0.015625 1.1406 0.03125v-0.28125h-0.1875c-0.65625 0-0.67188-0.09375-0.67188-0.42188v-2.8906z"/>
</g>
<g id="ah">
<path d="m1.8594-5.5469c0-0.25-0.20312-0.46875-0.45312-0.46875s-0.45312 0.21875-0.45312 0.46875 0.20312 0.45312 0.45312 0.45312 0.45312-0.20312 0.45312-0.45312zm1.7969 0c0-0.25-0.21875-0.46875-0.46875-0.46875s-0.45312 0.21875-0.45312 0.46875 0.20312 0.45312 0.45312 0.45312 0.46875-0.20312 0.46875-0.45312z"/>
</g>
<g id="ab">
<path d="m1.125-1.6094c0.21875 0.14062 0.5 0.28125 0.90625 0.28125 0.85938 0 1.5-0.60938 1.5-1.3125 0-0.4375-0.25-0.75-0.35938-0.875 0.35938-0.32812 0.78125-0.32812 0.875-0.32812-0.03125 0.03125-0.10938 0.078125-0.10938 0.23438 0 0.10938 0.0625 0.26562 0.26562 0.26562 0.125 0 0.26562-0.078125 0.26562-0.26562 0-0.17188-0.125-0.45312-0.48438-0.45312-0.25 0-0.65625 0.09375-0.96875 0.42188-0.25-0.20312-0.59375-0.32812-0.96875-0.32812-0.85938 0-1.5 0.60938-1.5 1.3281 0 0.45312 0.26562 0.78125 0.40625 0.90625-0.015625 0.015625-0.26562 0.32812-0.26562 0.75 0 0.29688 0.14062 0.625 0.39062 0.78125-0.45312 0.15625-0.8125 0.48438-0.8125 0.90625 0 0.64062 0.875 1.1406 2.0312 1.1406 1.1094 0 2.0469-0.46875 2.0469-1.1562 0-0.375-0.17188-0.76562-0.5-0.98438-0.5-0.3125-1.0312-0.3125-1.875-0.3125-0.1875 0-0.46875 0-0.54688-0.015625-0.25-0.0625-0.42188-0.29688-0.42188-0.57812 0-0.15625 0.046875-0.28125 0.125-0.40625zm0.90625 0.046875c-0.79688 0-0.79688-0.89062-0.79688-1.0781 0-0.25 0.015625-0.54688 0.17188-0.76562 0.14062-0.1875 0.375-0.3125 0.625-0.3125 0.8125 0 0.8125 0.85938 0.8125 1.0781 0 0.20312 0 1.0781-0.8125 1.0781zm0.42188 1.5156c0.28125 0 1.3906 0.015625 1.3906 0.73438 0 0.51562-0.70312 0.92188-1.5312 0.92188-0.89062 0-1.5469-0.42188-1.5469-0.92188 0-0.14062 0.09375-0.73438 0.85938-0.73438z"/>
</g>
<g id="o">
<path d="m2.7188-5.7344c0-0.21875 0-0.23438-0.21875-0.23438-0.5625 0.5625-1.3906 0.5625-1.6719 0.5625v0.28125c0.17188 0 0.71875 0 1.2031-0.23438v4.6406c0 0.32812-0.015625 0.4375-0.85938 0.4375h-0.28125v0.28125c0.3125-0.03125 1.125-0.03125 1.4844-0.03125 0.375 0 1.1719 0 1.5 0.03125v-0.28125h-0.28125c-0.84375 0-0.875-0.10938-0.875-0.4375z"/>
</g>
<g id="aj">
<path d="m2.0312-3.75c-0.71875-0.17188-0.95312-0.75-0.95312-1.1406 0-0.60938 0.48438-1.1875 1.25-1.1875 1.1562 0 1.625 0.875 1.75 1.7656 0.015625 0.17188 0.03125 0.21875 0.14062 0.21875 0.125 0 0.125-0.0625 0.125-0.25v-1.7344c0-0.17188 0-0.25-0.10938-0.25-0.0625 0-0.078125 0.015625-0.14062 0.125-0.10938 0.15625-0.015625 0.046875-0.3125 0.51562-0.15625-0.1875-0.625-0.64062-1.4688-0.64062-1.0469 0-1.7969 0.82812-1.7969 1.7344 0 0.70312 0.42188 1.125 0.46875 1.1719 0.39062 0.40625 0.5625 0.4375 1.625 0.70312 0.73438 0.15625 0.8125 0.1875 1.1094 0.48438 0 0.015625 0.3125 0.34375 0.3125 0.875 0 0.60938-0.4375 1.2812-1.2656 1.2812-0.6875 0-1.9375-0.29688-2-1.7656-0.015625-0.14062-0.015625-0.1875-0.125-0.1875-0.125 0-0.125 0.0625-0.125 0.25v1.7344c0 0.17188 0 0.25 0.10938 0.25 0.0625 0 0.0625-0.015625 0.125-0.125 0.125-0.15625 0.03125-0.046875 0.32812-0.51562 0.54688 0.54688 1.2656 0.64062 1.7031 0.64062 1.0938 0 1.8125-0.90625 1.8125-1.8594 0-0.51562-0.1875-0.90625-0.39062-1.1719-0.39062-0.5-0.79688-0.59375-1.375-0.73438z"/>
</g>
<g id="ag">
<path d="m1.9219-5.4062c-0.03125-0.10938-0.03125-0.15625-0.03125-0.17188 0-0.26562 0.45312-0.26562 0.70312-0.26562v-0.28125c-0.39062 0.03125-0.85938 0.03125-1.2656 0.03125-0.375 0-0.51562-0.015625-1.1562-0.03125v0.28125c0.65625 0 0.76562 0.03125 0.89062 0.34375l2.1719 5.5c0.046875 0.14062 0.078125 0.20312 0.21875 0.20312s0.17188-0.0625 0.21875-0.1875l2.0781-5.2656c0.1875-0.46875 0.5625-0.59375 0.98438-0.59375v-0.28125c-0.32812 0.03125-0.57812 0.03125-0.89062 0.03125-0.375 0-0.5625-0.015625-1-0.03125v0.28125c0.4375 0 0.64062 0.21875 0.64062 0.4375 0 0.078125-0.015625 0.09375-0.046875 0.1875l-1.7188 4.3438z"/>
</g>
<g id="af">
<path d="m1.6562-6.2188-1.3281 0.09375v0.28125c0.60938 0 0.6875 0.0625 0.6875 0.5v4.6562c0 0.40625-0.09375 0.40625-0.6875 0.40625v0.28125c0.42188-0.015625 0.59375-0.03125 1-0.03125 0.42188 0 0.57812 0.015625 1.0156 0.03125v-0.28125c-0.59375 0-0.6875 0-0.6875-0.40625z"/>
</g>
<g id="ac">
<path d="m3.5469-1.5c0 0.79688-0.4375 1.375-1.0938 1.375-0.73438 0-0.78125-0.39062-0.78125-0.875v-2.9688l-1.3594 0.10938v0.26562c0.6875 0 0.6875 0.03125 0.6875 0.82812v1.3438c0 0.59375 0 0.96875 0.42188 1.2812 0.25 0.17188 0.625 0.23438 0.98438 0.23438 0.46875 0 0.90625-0.20312 1.1562-0.73438h0.015625v0.73438l1.3281-0.09375v-0.28125c-0.60938 0-0.6875-0.0625-0.6875-0.5v-3.1875l-1.3594 0.10938v0.26562c0.60938 0 0.6875 0.0625 0.6875 0.51562z"/>
</g>
<g id="ae">
<path d="m4.3438-1.9062c0-1.1719-0.9375-2.1094-2.0312-2.1094-1.1406 0-2.0469 0.95312-2.0469 2.1094 0 1.1094 0.92188 2 2.0312 2 1.1406 0 2.0469-0.90625 2.0469-2zm-2.0312 1.75c-0.45312 0-0.82812-0.21875-1.0312-0.5625-0.23438-0.39062-0.25-0.85938-0.25-1.2656 0-0.34375 0-0.84375 0.21875-1.2188 0.28125-0.45312 0.71875-0.59375 1.0469-0.59375 0.51562 0 0.875 0.29688 1.0625 0.59375 0.20312 0.375 0.20312 0.82812 0.20312 1.2188 0 0.32812 0 0.84375-0.21875 1.2344-0.25 0.42188-0.65625 0.59375-1.0312 0.59375z"/>
</g>
<g id="aw">
<path d="m2.0625-5.4219c0-0.32812 0.015625-0.42188 0.70312-0.42188h0.21875v-0.28125c-0.40625 0.03125-0.90625 0.03125-1.3281 0.03125-0.40625 0-0.90625 0-1.3125-0.03125v0.28125h0.20312c0.6875 0 0.70312 0.09375 0.70312 0.42188v3.3594c0 1.3125 1.0938 2.2656 2.3281 2.2656 1.3125 0 2.0781-1.2344 2.0781-2.125v-3.2344c0-0.26562 0-0.6875 0.90625-0.6875v-0.28125c-0.48438 0.015625-0.60938 0.03125-1.0469 0.03125s-0.5625-0.015625-1.0625-0.03125v0.28125c0.92188 0 0.92188 0.42188 0.92188 0.67188v3.1094c0 1.2188-0.875 1.9844-1.7812 1.9844-0.51562 0-1.5312-0.3125-1.5312-1.9375z"/>
</g>
<g id="av">
<path d="m1.625-2.8594c0-0.17188 0-0.1875 0.09375-0.32812 0.3125-0.40625 0.75-0.54688 1.0938-0.54688 0.375 0 0.73438 0.20312 0.96875 0.59375 0.23438 0.375 0.25 0.90625 0.25 1.1875 0 0.42188-0.046875 0.90625-0.28125 1.2656-0.20312 0.28125-0.5625 0.5625-1.0469 0.5625-0.39062 0-0.73438-0.21875-0.95312-0.54688-0.125-0.1875-0.125-0.20312-0.125-0.375zm-0.078125 2.3125c0.28125 0.39062 0.71875 0.64062 1.2031 0.64062 1.0781 0 2.0625-0.85938 2.0625-2.0312 0-1.125-0.89062-2.0312-1.9688-2.0312-0.60938 0-1.0312 0.3125-1.25 0.5625v-2.8125l-1.3281 0.09375v0.28125c0.60938 0 0.6875 0.0625 0.6875 0.5v5.3438h0.25z"/>
</g>
<g id="as">
<path d="m1.6406-6.2188-1.3281 0.09375v0.28125c0.60938 0 0.6875 0.0625 0.6875 0.5v4.6562c0 0.40625-0.09375 0.40625-0.6875 0.40625v0.28125c0.42188-0.015625 0.59375-0.03125 1.0312-0.03125 0.42188 0 0.54688 0.015625 1.0156 0.03125v-0.28125c-0.59375 0-0.6875 0-0.6875-0.40625v-1.6406c0-0.95312 0.67188-1.4062 1.2344-1.4062 0.53125 0 0.64062 0.4375 0.64062 0.96875v2.0781c0 0.40625-0.09375 0.40625-0.6875 0.40625v0.28125c0.42188-0.015625 0.59375-0.03125 1.0312-0.03125 0.42188 0 0.54688 0.015625 1.0156 0.03125v-0.28125c-0.45312 0-0.6875 0-0.6875-0.28125v-1.7188c0-0.73438 0-1-0.25-1.3125-0.20312-0.25-0.54688-0.375-1-0.375-0.59375 0-1.0469 0.3125-1.3125 0.82812h-0.015625z"/>
</g>
<g id="au">
<path d="m3.5781-2.8125c1.25 0 2.1719-0.78125 2.1719-1.6406 0-0.89062-0.92188-1.6719-2.1719-1.6719h-3.2188v0.28125h0.20312c0.6875 0 0.71875 0.09375 0.71875 0.42188v4.7188c0 0.32812-0.03125 0.42188-0.71875 0.42188h-0.20312v0.28125c0.40625-0.03125 0.90625-0.03125 1.3125-0.03125 0.42188 0 0.92188 0 1.3281 0.03125v-0.28125h-0.20312c-0.70312 0-0.71875-0.09375-0.71875-0.42188v-2.1094zm-1.5312-2.6719c0-0.29688 0.03125-0.35938 0.45312-0.35938h0.85938c1.4688 0 1.4688 0.98438 1.4688 1.3906s0 1.3906-1.4844 1.3906h-1.2969z"/>
</g>
<g id="at">
<path d="m6.1406-6.0781h-5.625l-0.1875 2.0312h0.25c0.125-1.4844 0.3125-1.75 1.6562-1.75 0.17188 0 0.42188 0 0.51562 0.015625 0.17188 0.046875 0.17188 0.125 0.17188 0.35938v4.7031c0 0.3125 0 0.4375-0.9375 0.4375h-0.35938v0.28125c0.32812-0.03125 1.3125-0.03125 1.7031-0.03125s1.375 0 1.6875 0.03125v-0.28125h-0.34375c-0.9375 0-0.9375-0.125-0.9375-0.4375v-4.7031c0-0.23438 0-0.3125 0.1875-0.35938 0.09375-0.015625 0.32812-0.015625 0.48438-0.015625 1.3594 0 1.5312 0.26562 1.6562 1.75h0.25z"/>
</g>
<g id="ar">
<path d="m3.0625 2.1406c0-0.046875-0.03125-0.078125-0.078125-0.14062-1.1562-1.0625-1.5156-2.6719-1.5156-4.25 0-1.375 0.26562-3.0625 1.5312-4.2656 0.046875-0.046875 0.0625-0.0625 0.0625-0.10938 0-0.0625-0.046875-0.10938-0.10938-0.10938-0.10938 0-0.92188 0.65625-1.4062 1.625-0.42188 0.85938-0.64062 1.7969-0.64062 2.8594 0 0.64062 0.078125 1.6719 0.57812 2.7188 0.53125 1.1094 1.3594 1.7656 1.4688 1.7656 0.0625 0 0.10938-0.03125 0.10938-0.09375z"/>
</g>
<g id="aq">
<path d="m0.5625-5.8438c0.6875 0 0.71875 0.09375 0.71875 0.42188v4.7188c0 0.32812-0.03125 0.42188-0.71875 0.42188h-0.20312v0.28125h3.3281c1.5625 0 2.8281-1.3281 2.8281-3.0156 0-1.7031-1.2344-3.1094-2.8281-3.1094h-3.3281v0.28125zm1.9375 5.5625c-0.42188 0-0.45312-0.0625-0.45312-0.35938v-4.8438c0-0.29688 0.03125-0.35938 0.45312-0.35938h0.95312c0.875 0 1.4062 0.45312 1.6562 0.78125 0.39062 0.51562 0.51562 1.1562 0.51562 2.0469 0 0.375 0 1.3125-0.48438 1.9375-0.46875 0.60938-1.1094 0.79688-1.6719 0.79688z"/>
</g>
<g id="ap">
<path d="m2.6719-2.25c0-0.73438-0.10938-1.7188-0.57812-2.7188-0.53125-1.1094-1.3594-1.7656-1.4688-1.7656-0.09375 0-0.10938 0.078125-0.10938 0.10938 0 0.046875 0.015625 0.0625 0.078125 0.125 0.53125 0.46875 1.5156 1.6875 1.5156 4.25 0 1.2812-0.23438 3.0625-1.5312 4.2812-0.015625 0.015625-0.0625 0.0625-0.0625 0.10938 0 0.015625 0.015625 0.09375 0.10938 0.09375 0.10938 0 0.92188-0.64062 1.4062-1.625 0.42188-0.85938 0.64062-1.7812 0.64062-2.8594z"/>
</g>
<g id="aa">
<path d="m3.375-5.5156c-0.046875-0.10938-0.0625-0.17188-0.20312-0.17188s-0.17188 0.0625-0.20312 0.17188l-1.7812 4.6875c-0.078125 0.21875-0.25 0.5625-0.90625 0.5625v0.26562c0.26562-0.03125 0.6875-0.03125 0.82812-0.03125 0.25 0 0.5 0 0.875 0.03125v-0.26562c-0.34375 0-0.54688-0.17188-0.54688-0.39062 0-0.0625 0-0.078125 0.03125-0.17188l0.375-1h2.1719l0.45312 1.1875c0.03125 0.09375 0.03125 0.125 0.03125 0.14062 0 0.23438-0.40625 0.23438-0.64062 0.23438v0.26562c0.6875-0.03125 0.70312-0.03125 1.1406-0.03125s0.59375 0 1.0469 0.03125v-0.26562h-0.14062c-0.5 0-0.57812-0.0625-0.67188-0.32812zm-0.4375 0.82812 0.96875 2.5938h-1.9688z"/>
</g>
<g id="z">
<path d="m5.6406-5.4062c0-0.125 0-0.20312-0.10938-0.20312-0.0625 0-0.0625 0-0.14062 0.10938l-0.40625 0.59375c-0.28125-0.3125-0.8125-0.70312-1.5781-0.70312-1.5938 0-2.9375 1.2812-2.9375 2.8906s1.3281 2.8906 2.9531 2.8906c1.3281 0 2.2188-1.0625 2.2188-2.0312 0-0.078125 0-0.15625-0.14062-0.15625-0.078125 0-0.10938 0.046875-0.10938 0.125-0.0625 1.2188-1.0625 1.7969-1.9062 1.7969-0.67188 0-2.1875-0.42188-2.1875-2.625 0-2.1562 1.4375-2.625 2.1875-2.625s1.6719 0.53125 1.8906 1.9062c0 0.0625 0.015625 0.10938 0.125 0.10938 0.14062 0 0.14062-0.046875 0.14062-0.20312z"/>
</g>
<g id="y">
<path d="m3.4062-3.3125 1.5625-1.375c0.51562-0.46875 0.9375-0.48438 1.125-0.48438v-0.26562c-0.3125 0.015625-0.32812 0.015625-0.73438 0.015625s-0.4375 0-0.95312-0.015625v0.26562c0.15625 0 0.29688 0.078125 0.29688 0.23438 0 0.0625-0.03125 0.17188-0.17188 0.29688l-2.6406 2.3438v-2.5c0-0.29688 0.015625-0.375 0.625-0.375h0.17188v-0.26562c-0.67188 0.015625-0.6875 0.015625-1.1719 0.015625-0.46875 0-0.48438 0-1.1719-0.015625v0.26562h0.1875c0.60938 0 0.625 0.078125 0.625 0.375v4.1562c0 0.29688-0.015625 0.375-0.625 0.375h-0.1875v0.26562c0.6875-0.03125 0.70312-0.03125 1.1719-0.03125 0.48438 0 0.5 0 1.1719 0.03125v-0.26562h-0.17188c-0.60938 0-0.625-0.078125-0.625-0.375v-1.3281l1.0312-0.92188 1.5469 2.1406c0.078125 0.09375 0.125 0.17188 0.125 0.26562 0 0.21875-0.28125 0.21875-0.42188 0.21875v0.26562c0.6875-0.03125 0.70312-0.03125 1.0938-0.03125 0.21875 0 0.65625 0 0.9375 0.03125v-0.26562c-0.28125 0-0.54688 0-0.78125-0.3125z"/>
</g>
<g id="v">
<path d="m3.8906-2.5469c0-0.84375-0.078125-1.3594-0.34375-1.875-0.34375-0.70312-1-0.875-1.4375-0.875-1 0-1.375 0.75-1.4844 0.96875-0.28125 0.57812-0.29688 1.375-0.29688 1.7812 0 0.53125 0.015625 1.3281 0.40625 1.9688 0.35938 0.59375 0.95312 0.75 1.375 0.75 0.39062 0 1.0625-0.125 1.4688-0.90625 0.29688-0.57812 0.3125-1.2969 0.3125-1.8125zm-1.7812 2.4844c-0.26562 0-0.8125-0.125-0.98438-0.95312-0.09375-0.45312-0.09375-1.2031-0.09375-1.625 0-0.54688 0-1.1094 0.09375-1.5469 0.17188-0.8125 0.78125-0.89062 0.98438-0.89062 0.26562 0 0.82812 0.14062 0.98438 0.85938 0.09375 0.4375 0.09375 1.0469 0.09375 1.5781 0 0.46875 0 1.1875-0.09375 1.6406-0.17188 0.82812-0.71875 0.9375-0.98438 0.9375z"/>
</g>
<g id="x">
<path d="m2.5-5.0781c0-0.21875-0.015625-0.21875-0.23438-0.21875-0.32812 0.3125-0.75 0.5-1.5 0.5v0.26562c0.21875 0 0.64062 0 1.1094-0.20312v4.0781c0 0.29688-0.03125 0.39062-0.78125 0.39062h-0.28125v0.26562c0.32812-0.03125 1.0156-0.03125 1.375-0.03125s1.0469 0 1.375 0.03125v-0.26562h-0.28125c-0.75 0-0.78125-0.09375-0.78125-0.39062z"/>
</g>
<g id="u">
<path d="m2.0938 1.2812c-0.51562 0-0.60938 0-0.60938-0.35938v-1.3125c0.375 0.40625 0.78125 0.46875 1.0469 0.46875 1 0 1.8906-0.78125 1.8906-1.7969 0-1-0.8125-1.7969-1.7812-1.7969-0.3125 0-0.76562 0.078125-1.1719 0.5v-0.5l-1.1875 0.09375v0.26562c0.5625 0 0.60938 0.046875 0.60938 0.375v3.7031c0 0.35938-0.10938 0.35938-0.60938 0.35938v0.26562c0.34375-0.03125 0.6875-0.03125 0.90625-0.03125 0.23438 0 0.5625 0 0.90625 0.03125zm-0.60938-3.9375c0.1875-0.3125 0.59375-0.60938 1.0938-0.60938 0.60938 0 1.125 0.67188 1.125 1.5469 0 0.90625-0.57812 1.5781-1.2188 1.5781-0.28125 0-0.64062-0.125-0.90625-0.51562-0.09375-0.14062-0.09375-0.15625-0.09375-0.29688z"/>
</g>
<g id="t">
<path d="m3.3438-2.375c0-0.78125-0.75-1.1719-1.4844-1.1719-0.65625 0-1.25 0.25-1.25 0.78125 0 0.23438 0.17188 0.375 0.375 0.375 0.23438 0 0.375-0.15625 0.375-0.375 0-0.1875-0.10938-0.32812-0.29688-0.35938 0.29688-0.20312 0.73438-0.20312 0.78125-0.20312 0.45312 0 0.89062 0.3125 0.89062 0.96875v0.23438c-0.45312 0.03125-0.98438 0.046875-1.5469 0.28125-0.70312 0.3125-0.84375 0.76562-0.84375 1.0312 0 0.6875 0.8125 0.89062 1.3594 0.89062 0.57812 0 0.9375-0.32812 1.125-0.64062 0.03125 0.29688 0.23438 0.60938 0.59375 0.60938 0.078125 0 0.75-0.03125 0.75-0.76562v-0.4375h-0.25v0.4375c0 0.32812-0.10938 0.45312-0.28125 0.45312-0.29688 0-0.29688-0.35938-0.29688-0.45312zm-0.60938 1.25c0 0.78125-0.64062 0.98438-0.96875 0.98438-0.40625 0-0.76562-0.28125-0.76562-0.67188 0-0.51562 0.5-1.0625 1.7344-1.0938z"/>
</g>
<g id="s">
<path d="m2.4062-2.1719 0.67188-0.53125c0.53125-0.42188 0.85938-0.45312 1.0625-0.46875v-0.26562c-0.20312 0.03125-0.3125 0.03125-0.64062 0.03125-0.39062 0-0.5-0.015625-0.84375-0.03125v0.26562c0.15625 0.015625 0.1875 0.10938 0.1875 0.15625 0 0.17188-0.17188 0.3125-0.23438 0.35938l-1.1406 0.92188v-3.7969l-1.1875 0.09375v0.26562c0.54688 0 0.60938 0.046875 0.60938 0.4375v4.1094c0 0.35938-0.10938 0.35938-0.60938 0.35938v0.26562c0.3125-0.03125 0.73438-0.03125 0.875-0.03125 0.15625 0 0.57812 0 0.89062 0.03125v-0.26562c-0.51562 0-0.60938 0-0.60938-0.35938v-0.76562l0.53125-0.4375c0.03125 0 0.23438 0.28125 0.35938 0.4375s0.25 0.32812 0.375 0.48438 0.28125 0.35938 0.28125 0.48438c0 0.14062-0.14062 0.15625-0.25 0.15625v0.26562c0.34375-0.03125 0.70312-0.03125 0.84375-0.03125 0.29688 0 0.46875 0 0.73438 0.03125v-0.26562c-0.32812 0-0.46875-0.03125-0.76562-0.40625z"/>
</g>
<g id="r">
<path d="m3.2969-1.8125c0.17188 0 0.21875 0 0.21875-0.1875 0-0.70312-0.39062-1.5469-1.5156-1.5469-0.98438 0-1.7656 0.8125-1.7656 1.7969 0 1.0312 0.85938 1.8281 1.875 1.8281 1 0 1.4062-0.84375 1.4062-1.0312 0-0.03125-0.03125-0.10938-0.125-0.10938s-0.10938 0.046875-0.125 0.09375c-0.28125 0.78125-0.96875 0.79688-1.1094 0.79688-0.35938 0-0.73438-0.15625-0.96875-0.53125-0.23438-0.35938-0.23438-0.875-0.23438-1.1094zm-2.3438-0.21875c0.078125-1.1094 0.75-1.2969 1.0469-1.2969 0.9375 0 0.96875 1.125 0.96875 1.2969z"/>
</g>
<g id="w">
<path d="m1.4844-3.1719h1.1875v-0.26562h-1.1875v-1.4688h-0.25c0 0.73438-0.32812 1.4844-1.0781 1.5156v0.21875h0.71875v2.1719c0 0.9375 0.71875 1.0781 1.0781 1.0781 0.54688 0 0.85938-0.46875 0.85938-1.0781v-0.4375h-0.25v0.42188c0 0.54688-0.25 0.84375-0.54688 0.84375-0.53125 0-0.53125-0.6875-0.53125-0.8125z"/>
</g>
<g id="ao">
<path d="m5.9688-7.0625c0.078125-0.125 0.078125-0.14062 0.078125-0.21875 0-0.17188-0.0625-0.17188-0.28125-0.17188h-4.8906l-0.125 2.4531h0.28125c0.0625-1.2344 0.39062-2.1094 2.1875-2.1094h1.7031l-4.2344 6.7031c-0.078125 0.125-0.078125 0.14062-0.078125 0.21875 0 0.1875 0.0625 0.1875 0.28125 0.1875h5.0312l0.1875-2.9062h-0.28125c-0.078125 1.5156-0.28125 2.5312-2.3125 2.5312h-1.7812z"/>
</g>
<g id="an">
<path d="m1.2188-2.75c0.0625-1.625 0.98438-1.8906 1.3594-1.8906 1.125 0 1.2344 1.4688 1.2344 1.8906zm-0.015625 0.23438h3.0469c0.25 0 0.28125 0 0.28125-0.23438 0-1.0781-0.59375-2.1406-1.9531-2.1406-1.2656 0-2.2656 1.125-2.2656 2.4844 0 1.4688 1.1406 2.5312 2.3906 2.5312 1.3281 0 1.8281-1.2188 1.8281-1.4219 0-0.10938-0.09375-0.125-0.14062-0.125-0.10938 0-0.125 0.0625-0.14062 0.14062-0.39062 1.125-1.375 1.125-1.4844 1.125-0.54688 0-0.98438-0.32812-1.2344-0.73438-0.32812-0.51562-0.32812-1.2344-0.32812-1.625z"/>
</g>
<g id="am">
<path d="m1.9375-4.8281-1.5312 0.125v0.34375c0.70312 0 0.79688 0.0625 0.79688 0.59375v2.9375c0 0.48438-0.10938 0.48438-0.84375 0.48438v0.34375c0.34375-0.015625 0.9375-0.03125 1.2031-0.03125 0.375 0 0.76562 0.015625 1.125 0.03125v-0.34375c-0.71875 0-0.75-0.046875-0.75-0.46875zm0.03125-1.8906c0-0.34375-0.26562-0.57812-0.57812-0.57812-0.32812 0-0.57812 0.29688-0.57812 0.57812 0 0.29688 0.25 0.57812 0.57812 0.57812 0.3125 0 0.57812-0.23438 0.57812-0.57812z"/>
</g>
<g id="al">
<path d="m1.8906-4.3594h1.5625v-0.34375h-1.5625v-2h-0.28125c0 0.89062-0.32812 2.0625-1.4062 2.0938v0.25h0.9375v3c0 1.3438 1.0156 1.4844 1.4062 1.4844 0.76562 0 1.0781-0.78125 1.0781-1.4844v-0.60938h-0.28125v0.59375c0 0.8125-0.32812 1.2188-0.71875 1.2188-0.73438 0-0.73438-0.98438-0.73438-1.1719z"/>
</g>
<clipPath id="di">
<path d="m57 376h47v21h-47z"/>
</clipPath>
<clipPath id="dh">
<path d="m0.52734 0.39844v619h388v-619zm64.207 390.12-4.8828 1.7734 1.2109 3.3477 4.8867-1.8086-4.7656-0.11719z" clip-rule="evenodd"/>
</clipPath>
<clipPath id="cw">
<path d="m57 443h47v22h-47z"/>
</clipPath>
<clipPath id="cl">
<path d="m0.52734 0.39844v619h388v-619zm64.207 458.07-4.8828 1.7773 1.2109 3.3438 4.8867-1.8047-4.7656-0.11719z" clip-rule="evenodd"/>
</clipPath>
<clipPath id="ca">
<path d="m56 497h47v20h-47z"/>
</clipPath>
<clipPath id="bp">
<path d="m0.52734 0.39844v619h388v-619zm93.906 513.53 4.9453 1.6289 1.125-3.3789-4.9453-1.6289 3.6719 3.1094z" clip-rule="evenodd"/>
</clipPath>
<clipPath id="be">
<path d="m56 577h47v20h-47z"/>
</clipPath>
<clipPath id="az">
<path d="m0.52734 0.39844v619h388v-619zm93.906 593.48 4.9453 1.6289 1.125-3.375-4.9453-1.6289 3.6719 3.1094z" clip-rule="evenodd"/>
</clipPath>
<clipPath id="ay">
<path d="m56 543h47v21h-47z"/>
</clipPath>
<clipPath id="ax">
<path d="m0.52734 0.39844v619h388v-619zm62.965 556.64-4.9453 1.6289 1.125 3.375 4.9453-1.6289-4.7656-0.26562z" clip-rule="evenodd"/>
</clipPath>
<clipPath id="dg">
<path d="m0.52734 307h180.47v294h-180.47z"/>
</clipPath>
<clipPath id="df">
<path d="m57 104h47v20h-47z"/>
</clipPath>
<clipPath id="de">
<path d="m0.52734 0.39844v619h388v-619zm95.238 120.46 4.9453 1.6289 1.125-3.375-4.9453-1.6289 3.6719 3.1094z" clip-rule="evenodd"/>
</clipPath>
<clipPath id="dd">
<path d="m57 170h47v21h-47z"/>
</clipPath>
<clipPath id="dc">
<path d="m0.52734 0.39844v619h388v-619zm95.238 187.08 4.9453 1.6289 1.125-3.375-4.9453-1.6289 3.6719 3.1094z" clip-rule="evenodd"/>
</clipPath>
<clipPath id="db">
<path d="m57 69h47v22h-47z"/>
</clipPath>
<clipPath id="da">
<path d="m0.52734 0.39844v619h388v-619zm64.207 83.652-4.8828 1.7773 1.2109 3.3438 4.8867-1.8047-4.7656-0.12109z" clip-rule="evenodd"/>
</clipPath>
<clipPath id="cz">
<path d="m57 137h47v20h-47z"/>
</clipPath>
<clipPath id="cy">
<path d="m0.52734 0.39844v619h388v-619zm64.297 150.25-4.9453 1.6289 1.125 3.375 4.9453-1.6289-4.7656-0.26562z" clip-rule="evenodd"/>
</clipPath>
<clipPath id="cx">
<path d="m57 204h47v20h-47z"/>
</clipPath>
<clipPath id="cv">
<path d="m0.52734 0.39844v619h388v-619zm64.297 217.02-4.9453 1.6289 1.125 3.375 4.9453-1.6289-4.7656-0.26562z" clip-rule="evenodd"/>
</clipPath>
<clipPath id="cu">
<path d="m0.52734 0.39844h180.47v274.6h-180.47z"/>
</clipPath>
<clipPath id="ct">
<path d="m197 0.39844h2v0.60156h-2z"/>
</clipPath>
<clipPath id="cs">
<path d="m194 307h1v294h-1z"/>
</clipPath>
<clipPath id="cr">
<path d="m0.52734 0.39844v619h388v-619zm191.83 595.22v5.1836h3.5508v-5.1836l-1.7734 4.4414z" clip-rule="evenodd"/>
</clipPath>
<clipPath id="cq">
<path d="m264 410h47v21h-47z"/>
</clipPath>
<clipPath id="cp">
<path d="m0.52734 0.39844v619h388v-619zm301.77 426.92 4.9453 1.625 1.125-3.375-4.9453-1.6289 3.6719 3.1094z" clip-rule="evenodd"/>
</clipPath>
<clipPath id="co">
<path d="m264 376h47v21h-47z"/>
</clipPath>
<clipPath id="cn">
<path d="m0.52734 0.39844v619h388v-619zm270.74 390.12-4.8867 1.7734 1.2148 3.3477 4.8867-1.8086-4.7695-0.11719z" clip-rule="evenodd"/>
</clipPath>
<clipPath id="cm">
<path d="m262 459h56v24h-56z"/>
</clipPath>
<clipPath id="ck">
<path d="m0.52734 0.39844v619h388v-619zm308.43 478.89 4.9414 1.6289 1.125-3.375-4.9414-1.6289 3.6719 3.1094z" clip-rule="evenodd"/>
</clipPath>
<clipPath id="cj">
<path d="m263 451h55v25h-55z"/>
</clipPath>
<clipPath id="ci">
<path d="m0.52734 0.39844v619h388v-619zm269.55 468.73-4.8867 1.7773 1.2148 3.3438 4.8867-1.7773-4.7695-0.14844z" clip-rule="evenodd"/>
</clipPath>
<clipPath id="ch">
<path d="m264 562h47v21h-47z"/>
</clipPath>
<clipPath id="cg">
<path d="m0.52734 0.39844v619h388v-619zm270.83 575.45-4.9453 1.6289 1.125 3.375 4.9453-1.6289-4.7695-0.26562z" clip-rule="evenodd"/>
</clipPath>
<clipPath id="cf">
<path d="m257 523h53v22h-53z"/>
</clipPath>
<clipPath id="ce">
<path d="m0.52734 0.39844v619h388v-619zm300.44 541.54 4.9453 1.6016 1.0938-3.375-4.9453-1.6016 3.7031 3.082z" clip-rule="evenodd"/>
</clipPath>
<clipPath id="cd">
<path d="m257 514h54v25h-54z"/>
</clipPath>
<clipPath id="cc">
<path d="m0.52734 0.39844v619h388v-619zm264.05 531.32-4.8555 1.8086 1.2148 3.3438 4.8828-1.8047-4.7656-0.11719z" clip-rule="evenodd"/>
</clipPath>
<clipPath id="cb">
<path d="m60 37h47v19h-47z"/>
</clipPath>
<clipPath id="bz">
<path d="m0.52734 0.39844v619h388v-619zm97.934 52.652 4.9766 1.4766 1.0039-3.4023-4.9727-1.4805 3.7578 2.9883z" clip-rule="evenodd"/>
</clipPath>
<clipPath id="by">
<path d="m60 344h47v19h-47z"/>
</clipPath>
<clipPath id="bx">
<path d="m0.52734 0.39844v619h388v-619zm97.578 359.11 4.9727 1.4805 1.0078-3.4062-4.9727-1.4805 3.7578 2.9922z" clip-rule="evenodd"/>
</clipPath>
<clipPath id="bw">
<path d="m266 344h48v19h-48z"/>
</clipPath>
<clipPath id="bv">
<path d="m0.52734 0.39844v619h388v-619zm304.46 359.11 4.9727 1.4805 1.0078-3.4062-4.9766-1.4805 3.7617 2.9922z" clip-rule="evenodd"/>
</clipPath>
<clipPath id="bu">
<path d="m194 0.39844h1v274.6h-1z"/>
</clipPath>
<clipPath id="bt">
<path d="m0.52734 0.39844v619h388v-619zm191.83 268.77v5.1836h3.5508v-5.1836l-1.7734 4.4414z" clip-rule="evenodd"/>
</clipPath>
<clipPath id="bs">
<path d="m264 37h47v19h-47z"/>
</clipPath>
<clipPath id="br">
<path d="m0.52734 0.39844v619h388v-619zm301.8 52.652 4.9766 1.4766 1.0078-3.4023-4.9766-1.4805 3.7617 2.9883z" clip-rule="evenodd"/>
</clipPath>
<clipPath id="bq">
<path d="m264 104h47v20h-47z"/>
</clipPath>
<clipPath id="bo">
<path d="m0.52734 0.39844v619h388v-619zm301.77 120.46 4.9453 1.6289 1.125-3.375-4.9453-1.6289 3.6719 3.1094z" clip-rule="evenodd"/>
</clipPath>
<clipPath id="bn">
<path d="m264 69h47v22h-47z"/>
</clipPath>
<clipPath id="bm">
<path d="m0.52734 0.39844v619h388v-619zm270.74 83.652-4.8867 1.7773 1.2148 3.3438 4.8867-1.8047-4.7695-0.12109z" clip-rule="evenodd"/>
</clipPath>
<clipPath id="bl">
<path d="m264 148h47v20h-47z"/>
</clipPath>
<clipPath id="bk">
<path d="m0.52734 0.39844v619h388v-619zm301.77 164.43 4.9453 1.6289 1.125-3.375-4.9453-1.6289 3.6719 3.1094z" clip-rule="evenodd"/>
</clipPath>
<clipPath id="bj">
<path d="m264 218h47v21h-47z"/>
</clipPath>
<clipPath id="bi">
<path d="m0.52734 0.39844v619h388v-619zm301.77 235.05 4.9453 1.6289 1.125-3.375-4.9453-1.6289 3.6719 3.1094z" clip-rule="evenodd"/>
</clipPath>
<clipPath id="bh">
<path d="m264 185h47v20h-47z"/>
</clipPath>
<clipPath id="bg">
<path d="m0.52734 0.39844v619h388v-619zm270.83 198.21-4.9453 1.6289 1.125 3.375 4.9453-1.625-4.7695-0.26953z" clip-rule="evenodd"/>
</clipPath>
<clipPath id="bf">
<path d="m264 252h47v20h-47z"/>
</clipPath>
<clipPath id="bd">
<path d="m0.52734 0.39844v619h388v-619zm270.83 264.98-4.9453 1.6289 1.125 3.375 4.9453-1.6289-4.7695-0.26562z" clip-rule="evenodd"/>
</clipPath>
<clipPath id="bc">
<path d="m207 0.39844h181v274.6h-181z"/>
</clipPath>
<clipPath id="bb">
<path d="m57 410h47v21h-47z"/>
</clipPath>
<clipPath id="ba">
<path d="m0.52734 0.39844v619h388v-619zm95.238 426.92 4.9453 1.625 1.125-3.375-4.9453-1.6289 3.6719 3.1094z" clip-rule="evenodd"/>
</clipPath>
</defs>
<g clip-path="url(#di)">
<g clip-path="url(#dh)">
<path transform="matrix(.1 0 0 -.1 .528 619.4)" d="m1003.3 2402.3-399.73-146.56" fill="none" stroke="#000" stroke-miterlimit="10" stroke-width="2.2208"/>
</g>
</g>
<path d="m64.734 390.52-3.5508 3.1953 4.7656 0.11719-1.4492-1.3594 0.23438-1.9531" fill-rule="evenodd"/>
<path transform="matrix(.1 0 0 -.1 .528 619.4)" d="m642.06 2288.8-35.508-31.953 47.656-1.1719-14.492 13.594z" fill="none" stroke="#000" stroke-miterlimit="10" stroke-width="2.2208"/>
<path transform="matrix(.1 0 0 -.1 .528 619.4)" d="m83.939 2149.1h-40v-799.49h40" fill="none" stroke="#000" stroke-miterlimit="10" stroke-width="2.2208"/>
<g clip-path="url(#cw)">
<g clip-path="url(#cl)">
<path transform="matrix(.1 0 0 -.1 .528 619.4)" d="m1003.3 1722.7-399.73-146.56" fill="none" stroke="#000" stroke-miterlimit="10" stroke-width="2.2208"/>
</g>
</g>
<path d="m64.734 458.47-3.5508 3.1992 4.7656 0.11719-1.4492-1.3633 0.23438-1.9531" fill-rule="evenodd"/>
<path transform="matrix(.1 0 0 -.1 .528 619.4)" d="m642.06 1609.3-35.508-31.992 47.656-1.1719-14.492 13.633z" fill="none" stroke="#000" stroke-miterlimit="10" stroke-width="2.2208"/>
<g clip-path="url(#ca)">
<g clip-path="url(#bp)">
<path transform="matrix(.1 0 0 -.1 .528 619.4)" d="m590.27 1189.7 399.73-133.24" fill="none" stroke="#000" stroke-miterlimit="10" stroke-width="2.2208"/>
</g>
</g>
<path d="m94.434 513.93 4.7969-0.26953-3.6719-3.1094 0.29688 1.9844-1.4219 1.3945" fill-rule="evenodd"/>
<path transform="matrix(.1 0 0 -.1 .528 619.4)" d="m939.06 1054.7 47.969 2.6953-36.719 31.094 2.9688-19.844z" fill="none" stroke="#000" stroke-miterlimit="10" stroke-width="2.2208"/>
<g clip-path="url(#be)">
<g clip-path="url(#az)">
<path transform="matrix(.1 0 0 -.1 .528 619.4)" d="m590.27 390.22 399.73-133.24" fill="none" stroke="#000" stroke-miterlimit="10" stroke-width="2.2208"/>
</g>
</g>
<path d="m94.434 593.88 4.7969-0.26562-3.6719-3.1094 0.29688 1.9844-1.4219 1.3906" fill-rule="evenodd"/>
<path transform="matrix(.1 0 0 -.1 .528 619.4)" d="m939.06 255.22 47.969 2.6562-36.719 31.094 2.9688-19.844z" fill="none" stroke="#000" stroke-miterlimit="10" stroke-width="2.2208"/>
<g clip-path="url(#ay)">
<g clip-path="url(#ax)">
<path transform="matrix(.1 0 0 -.1 .528 619.4)" d="m989.99 724.83-399.73-133.24" fill="none" stroke="#000" stroke-miterlimit="10" stroke-width="2.2208"/>
</g>
</g>
<path d="m63.492 557.04-3.6406 3.1094 4.7656 0.26562-1.4219-1.3906 0.29688-1.9844" fill-rule="evenodd"/>
<path transform="matrix(.1 0 0 -.1 .528 619.4)" d="m629.64 623.58-36.406-31.094 47.656-2.6562-14.219 13.906z" fill="none" stroke="#000" stroke-miterlimit="10" stroke-width="2.2208"/>
<g clip-path="url(#dg)">
<path transform="matrix(.1 0 0 -.1 .528 619.4)" d="m3.9778 190.38h1798.8v2931.4h-1798.8z" fill="none" stroke="#000" stroke-miterlimit="10" stroke-width="2.2208"/>
</g>
<g clip-path="url(#df)">
<g clip-path="url(#de)">
<path transform="matrix(.1 0 0 -.1 .528 619.4)" d="m603.59 5120.5 399.73-133.28" fill="none" stroke="#000" stroke-miterlimit="10" stroke-width="2.2208"/>
</g>
</g>
<path d="m95.766 120.86 4.7969-0.26562-3.6719-3.1094 0.29688 1.9844-1.4219 1.3906" fill-rule="evenodd"/>
<path transform="matrix(.1 0 0 -.1 .528 619.4)" d="m952.38 4985.4 47.969 2.6562-36.719 31.094 2.9688-19.844z" fill="none" stroke="#000" stroke-miterlimit="10" stroke-width="2.2208"/>
<g clip-path="url(#dd)">
<g clip-path="url(#dc)">
<path transform="matrix(.1 0 0 -.1 .528 619.4)" d="m603.59 4454.2 399.73-133.24" fill="none" stroke="#000" stroke-miterlimit="10" stroke-width="2.2208"/>
</g>
</g>
<path d="m95.766 187.48 4.7969-0.26562-3.6719-3.1094 0.29688 1.9844-1.4219 1.3906" fill-rule="evenodd"/>
<path transform="matrix(.1 0 0 -.1 .528 619.4)" d="m952.38 4319.2 47.969 2.6562-36.719 31.094 2.9688-19.844z" fill="none" stroke="#000" stroke-miterlimit="10" stroke-width="2.2208"/>
<g clip-path="url(#db)">
<g clip-path="url(#da)">
<path transform="matrix(.1 0 0 -.1 .528 619.4)" d="m1003.3 5466.9-399.73-146.56" fill="none" stroke="#000" stroke-miterlimit="10" stroke-width="2.2208"/>
</g>
</g>
<path d="m64.734 84.051-3.5508 3.1953 4.7656 0.12109-1.4492-1.3633 0.23438-1.9531" fill-rule="evenodd"/>
<path transform="matrix(.1 0 0 -.1 .528 619.4)" d="m642.06 5353.5-35.508-31.953 47.656-1.2109-14.492 13.633z" fill="none" stroke="#000" stroke-miterlimit="10" stroke-width="2.2208"/>
<g clip-path="url(#cz)">
<g clip-path="url(#cy)">
<path transform="matrix(.1 0 0 -.1 .528 619.4)" d="m1003.3 4788.8-399.73-133.24" fill="none" stroke="#000" stroke-miterlimit="10" stroke-width="2.2208"/>
</g>
</g>
<path d="m64.824 150.64-3.6406 3.1094 4.7656 0.26562-1.4219-1.3906 0.29688-1.9844" fill-rule="evenodd"/>
<path transform="matrix(.1 0 0 -.1 .528 619.4)" d="m642.96 4687.5-36.406-31.094 47.656-2.6562-14.219 13.906z" fill="none" stroke="#000" stroke-miterlimit="10" stroke-width="2.2208"/>
<g clip-path="url(#cx)">
<g clip-path="url(#cv)">
<path transform="matrix(.1 0 0 -.1 .528 619.4)" d="m1003.3 4121.1-399.73-133.24" fill="none" stroke="#000" stroke-miterlimit="10" stroke-width="2.2208"/>
</g>
</g>
<path d="m64.824 217.41-3.6406 3.1094 4.7656 0.26562-1.4219-1.3906 0.29688-1.9844" fill-rule="evenodd"/>
<path transform="matrix(.1 0 0 -.1 .528 619.4)" d="m642.96 4019.8-36.406-31.094 47.656-2.6562-14.219 13.906z" fill="none" stroke="#000" stroke-miterlimit="10" stroke-width="2.2208"/>
<g clip-path="url(#cu)">
<path transform="matrix(.1 0 0 -.1 .528 619.4)" d="m3.9778 3454.9h1798.8v2731.5h-1798.8z" fill="none" stroke="#000" stroke-miterlimit="10" stroke-width="2.2208"/>
</g>
<g clip-path="url(#ct)">
<path transform="matrix(.1 0 0 -.1 .528 619.4)" d="m1974.8 6186.4h2.3438" fill="none" stroke="#000" stroke-miterlimit="10" stroke-width="2.2208"/>
</g>
<g clip-path="url(#cs)">
<g clip-path="url(#cr)">
<path transform="matrix(.1 0 0 -.1 .528 619.4)" d="m1936 3121.7v-2931.4" fill="none" stroke="#000" stroke-miterlimit="10" stroke-width="2.2208"/>
</g>
</g>
<path d="m192.36 595.62 1.7773 4.4414 1.7734-4.4414-1.7734 0.89062-1.7773-0.89062" fill-rule="evenodd"/>
<path transform="matrix(.1 0 0 -.1 .528 619.4)" d="m1918.3 237.76 17.773-44.414 17.734 44.414-17.734-8.9062z" fill="none" stroke="#000" stroke-miterlimit="10" stroke-width="2.2208"/>
<g clip-path="url(#cq)">
<g clip-path="url(#cp)">
<path transform="matrix(.1 0 0 -.1 .528 619.4)" d="m2668.9 2055.8 399.77-133.24" fill="none" stroke="#000" stroke-miterlimit="10" stroke-width="2.2208"/>
</g>
</g>
<path d="m302.3 427.32 4.7969-0.26953-3.6719-3.1094 0.29688 1.9844-1.4219 1.3945" fill-rule="evenodd"/>
<path transform="matrix(.1 0 0 -.1 .528 619.4)" d="m3017.7 1920.8 47.969 2.6953-36.719 31.094 2.9688-19.844z" fill="none" stroke="#000" stroke-miterlimit="10" stroke-width="2.2208"/>
<g clip-path="url(#co)">
<g clip-path="url(#cn)">
<path transform="matrix(.1 0 0 -.1 .528 619.4)" d="m3068.6 2402.3-399.77-146.56" fill="none" stroke="#000" stroke-miterlimit="10" stroke-width="2.2208"/>
</g>
</g>
<path d="m271.27 390.52-3.5547 3.1953 4.7695 0.11719-1.4531-1.3594 0.23828-1.9531" fill-rule="evenodd"/>
<path transform="matrix(.1 0 0 -.1 .528 619.4)" d="m2707.4 2288.8-35.547-31.953 47.695-1.1719-14.531 13.594z" fill="none" stroke="#000" stroke-miterlimit="10" stroke-width="2.2208"/>
<path transform="matrix(.1 0 0 -.1 .528 619.4)" d="m2149.2 2149.1h-39.961v-386.45h39.961" fill="none" stroke="#000" stroke-miterlimit="10" stroke-width="2.2208"/>
<path transform="matrix(.1 0 0 -.1 .528 619.4)" d="m2069.3 190.38h1798.8v2931.4h-1798.8z" fill="none" stroke="#000" stroke-miterlimit="10" stroke-width="2.2208"/>
<g clip-path="url(#cm)">
<g clip-path="url(#ck)">
<path transform="matrix(.1 0 0 -.1 .528 619.4)" d="m2655.5 1562.8 479.69-159.88" fill="none" stroke="#000" stroke-miterlimit="10" stroke-width="2.2208"/>
</g>
</g>
<path d="m308.96 479.29 4.7969-0.26562-3.6719-3.1094 0.29297 1.9844-1.418 1.3906" fill-rule="evenodd"/>
<path transform="matrix(.1 0 0 -.1 .528 619.4)" d="m3084.3 1401.1 47.969 2.6562-36.719 31.094 2.9297-19.844z" fill="none" stroke="#000" stroke-miterlimit="10" stroke-width="2.2208"/>
<g clip-path="url(#cj)">
<g clip-path="url(#ci)">
<path transform="matrix(.1 0 0 -.1 .528 619.4)" d="m3135.2 1642.8-478.2-173.24" fill="none" stroke="#000" stroke-miterlimit="10" stroke-width="2.2208"/>
</g>
</g>
<path d="m270.08 469.13-3.5547 3.1953 4.7695 0.14844-1.4531-1.3594 0.23828-1.9844" fill-rule="evenodd"/>
<path transform="matrix(.1 0 0 -.1 .528 619.4)" d="m2695.5 1502.7-35.547-31.953 47.695-1.4844-14.531 13.594z" fill="none" stroke="#000" stroke-miterlimit="10" stroke-width="2.2208"/>
<g clip-path="url(#ch)">
<g clip-path="url(#cg)">
<path transform="matrix(.1 0 0 -.1 .528 619.4)" d="m3068.6 536.82-399.77-133.24" fill="none" stroke="#000" stroke-miterlimit="10" stroke-width="2.2208"/>
</g>
</g>
<path d="m271.36 575.84-3.6445 3.1094 4.7695 0.26562-1.4219-1.3906 0.29688-1.9844" fill-rule="evenodd"/>
<path transform="matrix(.1 0 0 -.1 .528 619.4)" d="m2708.3 435.53-36.445-31.094 47.695-2.6562-14.219 13.906z" fill="none" stroke="#000" stroke-miterlimit="10" stroke-width="2.2208"/>
<g clip-path="url(#cf)">
<g clip-path="url(#ce)">
<path transform="matrix(.1 0 0 -.1 .528 619.4)" d="m2602.3 923.23 453.05-146.56" fill="none" stroke="#000" stroke-miterlimit="10" stroke-width="2.2208"/>
</g>
</g>
<path d="m300.96 541.94 4.7969-0.29297-3.7031-3.082 0.29688 1.9844-1.3906 1.3906" fill-rule="evenodd"/>
<path transform="matrix(.1 0 0 -.1 .528 619.4)" d="m3004.4 774.6 47.969 2.9297-37.031 30.82 2.9688-19.844z" fill="none" stroke="#000" stroke-miterlimit="10" stroke-width="2.2208"/>
<g clip-path="url(#cd)">
<g clip-path="url(#cc)">
<path transform="matrix(.1 0 0 -.1 .528 619.4)" d="m3068.6 1016.5-466.37-173.24" fill="none" stroke="#000" stroke-miterlimit="10" stroke-width="2.2208"/>
</g>
</g>
<path d="m264.57 531.72-3.5234 3.2305 4.7656 0.11719-1.4492-1.3633 0.20703-1.9844" fill-rule="evenodd"/>
<path transform="matrix(.1 0 0 -.1 .528 619.4)" d="m2640.5 876.74-35.234-32.305 47.656-1.1719-14.492 13.633z" fill="none" stroke="#000" stroke-miterlimit="10" stroke-width="2.2208"/>
<g clip-path="url(#cb)">
<g clip-path="url(#bz)">
<path transform="matrix(.1 0 0 -.1 .528 619.4)" d="m630.23 5786.7 399.73-119.92" fill="none" stroke="#000" stroke-miterlimit="10" stroke-width="2.2208"/>
</g>
</g>
<path d="m98.461 53.051 4.7656-0.41797-3.7578-2.9883 0.35547 1.9531-1.3633 1.4531" fill-rule="evenodd"/>
<path transform="matrix(.1 0 0 -.1 .528 619.4)" d="m979.33 5663.5 47.656 4.1797-37.578 29.883 3.5547-19.531z" fill="none" stroke="#000" stroke-miterlimit="10" stroke-width="2.2208"/>
<g clip-path="url(#by)">
<g clip-path="url(#bx)">
<path transform="matrix(.1 0 0 -.1 .528 619.4)" d="m626.67 2722 399.73-119.92" fill="none" stroke="#000" stroke-miterlimit="10" stroke-width="2.2208"/>
</g>
</g>
<path d="m98.105 359.51 4.7656-0.41406-3.7578-2.9922 0.35547 1.957-1.3633 1.4492" fill-rule="evenodd"/>
<path transform="matrix(.1 0 0 -.1 .528 619.4)" d="m975.77 2598.9 47.656 4.1406-37.578 29.922 3.5547-19.57z" fill="none" stroke="#000" stroke-miterlimit="10" stroke-width="2.2208"/>
<g clip-path="url(#bw)">
<g clip-path="url(#bv)">
<path transform="matrix(.1 0 0 -.1 .528 619.4)" d="m2695.5 2722 399.73-119.92" fill="none" stroke="#000" stroke-miterlimit="10" stroke-width="2.2208"/>
</g>
</g>
<path d="m304.99 359.51 4.7656-0.41406-3.7617-2.9922 0.35547 1.957-1.3594 1.4492" fill-rule="evenodd"/>
<path transform="matrix(.1 0 0 -.1 .528 619.4)" d="m3044.6 2598.9 47.656 4.1406-37.617 29.922 3.5547-19.57z" fill="none" stroke="#000" stroke-miterlimit="10" stroke-width="2.2208"/>
<g clip-path="url(#bu)">
<g clip-path="url(#bt)">
<path transform="matrix(.1 0 0 -.1 .528 619.4)" d="m1936 6186.4v-2731.5" fill="none" stroke="#000" stroke-miterlimit="10" stroke-width="2.2208"/>
</g>
</g>
<path d="m192.36 269.17 1.7773 4.4414 1.7734-4.4414-1.7734 0.88672-1.7773-0.88672" fill-rule="evenodd"/>
<path transform="matrix(.1 0 0 -.1 .528 619.4)" d="m1918.3 3502.3 17.773-44.414 17.734 44.414-17.734-8.8672z" fill="none" stroke="#000" stroke-miterlimit="10" stroke-width="2.2208"/>
<g clip-path="url(#bs)">
<g clip-path="url(#br)">
<path transform="matrix(.1 0 0 -.1 .528 619.4)" d="m2668.9 5786.7 399.77-119.92" fill="none" stroke="#000" stroke-miterlimit="10" stroke-width="2.2208"/>
</g>
</g>
<path d="m302.32 53.051 4.7695-0.41797-3.7617-2.9883 0.35547 1.9531-1.3633 1.4531" fill-rule="evenodd"/>
<path transform="matrix(.1 0 0 -.1 .528 619.4)" d="m3018 5663.5 47.695 4.1797-37.617 29.883 3.5547-19.531z" fill="none" stroke="#000" stroke-miterlimit="10" stroke-width="2.2208"/>
<g clip-path="url(#bq)">
<g clip-path="url(#bo)">
<path transform="matrix(.1 0 0 -.1 .528 619.4)" d="m2668.9 5120.5 399.77-133.28" fill="none" stroke="#000" stroke-miterlimit="10" stroke-width="2.2208"/>
</g>
</g>
<path d="m302.3 120.86 4.7969-0.26562-3.6719-3.1094 0.29688 1.9844-1.4219 1.3906" fill-rule="evenodd"/>
<path transform="matrix(.1 0 0 -.1 .528 619.4)" d="m3017.7 4985.4 47.969 2.6562-36.719 31.094 2.9688-19.844z" fill="none" stroke="#000" stroke-miterlimit="10" stroke-width="2.2208"/>
<g clip-path="url(#bn)">
<g clip-path="url(#bm)">
<path transform="matrix(.1 0 0 -.1 .528 619.4)" d="m3068.6 5466.9-399.77-146.56" fill="none" stroke="#000" stroke-miterlimit="10" stroke-width="2.2208"/>
</g>
</g>
<path d="m271.27 84.051-3.5547 3.1953 4.7695 0.12109-1.4531-1.3633 0.23828-1.9531" fill-rule="evenodd"/>
<path transform="matrix(.1 0 0 -.1 .528 619.4)" d="m2707.4 5353.5-35.547-31.953 47.695-1.2109-14.531 13.633z" fill="none" stroke="#000" stroke-miterlimit="10" stroke-width="2.2208"/>
<g clip-path="url(#bl)">
<g clip-path="url(#bk)">
<path transform="matrix(.1 0 0 -.1 .528 619.4)" d="m2668.9 4680.7 399.77-133.24" fill="none" stroke="#000" stroke-miterlimit="10" stroke-width="2.2208"/>
</g>
</g>
<path d="m302.3 164.82 4.7969-0.26562-3.6719-3.1094 0.29688 1.9844-1.4219 1.3906" fill-rule="evenodd"/>
<path transform="matrix(.1 0 0 -.1 .528 619.4)" d="m3017.7 4545.7 47.969 2.6562-36.719 31.094 2.9688-19.844z" fill="none" stroke="#000" stroke-miterlimit="10" stroke-width="2.2208"/>
<g clip-path="url(#bj)">
<g clip-path="url(#bi)">
<path transform="matrix(.1 0 0 -.1 .528 619.4)" d="m2668.9 3974.5 399.77-133.24" fill="none" stroke="#000" stroke-miterlimit="10" stroke-width="2.2208"/>
</g>
</g>
<path d="m302.3 235.45 4.7969-0.26562-3.6719-3.1094 0.29688 1.9844-1.4219 1.3906" fill-rule="evenodd"/>
<path transform="matrix(.1 0 0 -.1 .528 619.4)" d="m3017.7 3839.5 47.969 2.6562-36.719 31.094 2.9688-19.844z" fill="none" stroke="#000" stroke-miterlimit="10" stroke-width="2.2208"/>
<g clip-path="url(#bh)">
<g clip-path="url(#bg)">
<path transform="matrix(.1 0 0 -.1 .528 619.4)" d="m3068.6 4309.1-399.77-133.24" fill="none" stroke="#000" stroke-miterlimit="10" stroke-width="2.2208"/>
</g>
</g>
<path d="m271.36 198.61-3.6445 3.1094 4.7695 0.26953-1.4219-1.3945 0.29688-1.9844" fill-rule="evenodd"/>
<path transform="matrix(.1 0 0 -.1 .528 619.4)" d="m2708.3 4207.9-36.445-31.094 47.695-2.6953-14.219 13.945z" fill="none" stroke="#000" stroke-miterlimit="10" stroke-width="2.2208"/>
<g clip-path="url(#bf)">
<g clip-path="url(#bd)">
<path transform="matrix(.1 0 0 -.1 .528 619.4)" d="m3068.6 3641.4-399.77-133.24" fill="none" stroke="#000" stroke-miterlimit="10" stroke-width="2.2208"/>
</g>
</g>
<path d="m271.36 265.38-3.6445 3.1094 4.7695 0.26562-1.4219-1.3906 0.29688-1.9844" fill-rule="evenodd"/>
<path transform="matrix(.1 0 0 -.1 .528 619.4)" d="m2708.3 3540.1-36.445-31.094 47.695-2.6562-14.219 13.906z" fill="none" stroke="#000" stroke-miterlimit="10" stroke-width="2.2208"/>
<path transform="matrix(.1 0 0 -.1 .528 619.4)" d="m2149.2 5213.7h-39.961v-399.73h39.961" fill="none" stroke="#000" stroke-miterlimit="10" stroke-width="2.2208"/>
<g clip-path="url(#bc)">
<path transform="matrix(.1 0 0 -.1 .528 619.4)" d="m2069.3 3454.9h1798.8v2731.5h-1798.8z" fill="none" stroke="#000" stroke-miterlimit="10" stroke-width="2.2208"/>
</g>
<g clip-path="url(#bb)">
<g clip-path="url(#ba)">
<path transform="matrix(.1 0 0 -.1 .528 619.4)" d="m603.59 2055.8 399.73-133.24" fill="none" stroke="#000" stroke-miterlimit="10" stroke-width="2.2208"/>
</g>
</g>
<path d="m95.766 427.32 4.7969-0.26953-3.6719-3.1094 0.29688 1.9844-1.4219 1.3945" fill-rule="evenodd"/>
<path transform="matrix(.1 0 0 -.1 .528 619.4)" d="m952.38 1920.8 47.969 2.6953-36.719 31.094 2.9688-19.844z" fill="none" stroke="#000" stroke-miterlimit="10" stroke-width="2.2208"/>
<g>
<use x="212.765" y="590.968" xlink:href="#c"/>
<use x="216.369493" y="590.968" xlink:href="#a"/>
<use x="220.468931" y="590.968" xlink:href="#q"/>
<use x="224.564782" y="590.968" xlink:href="#a"/>
<use x="228.66422" y="590.968" xlink:href="#j"/>
<use x="231.224128" y="590.968" xlink:href="#p"/>
<use x="235.827477" y="590.968" xlink:href="#a"/>
<use x="243.002391" y="590.968" xlink:href="#n"/>
<use x="249.65277" y="590.968" xlink:href="#m"/>
<use x="256.308528" y="590.968" xlink:href="#l"/>
<use x="263.474475" y="590.968" xlink:href="#k"/>
<use x="9.027" y="347.104" xlink:href="#h"/>
<use x="12.661979" y="347.104" xlink:href="#a"/>
<use x="16.761417" y="347.104" xlink:href="#b"/>
<use x="21.881231" y="347.104" xlink:href="#i"/>
<use x="30.076521" y="347.104" xlink:href="#f"/>
<use x="35.196335" y="347.104" xlink:href="#e"/>
<use x="39.804168" y="347.104" xlink:href="#g"/>
<use x="44.407518" y="347.104" xlink:href="#a"/>
<use x="48.506956" y="347.104" xlink:href="#d"/>
<use x="52.090826" y="347.104" xlink:href="#k"/>
<use x="9.027" y="400.408" xlink:href="#c"/>
<use x="12.631493" y="400.408" xlink:href="#a"/>
<use x="16.730931" y="400.408" xlink:href="#q"/>
<use x="20.826782" y="400.408" xlink:href="#a"/>
<use x="24.92622" y="400.408" xlink:href="#j"/>
<use x="27.486128" y="400.408" xlink:href="#p"/>
<use x="32.089477" y="400.408" xlink:href="#a"/>
<use x="39.264391" y="400.408" xlink:href="#n"/>
<use x="45.91477" y="400.408" xlink:href="#m"/>
<use x="52.570528" y="400.408" xlink:href="#l"/>
<use x="59.736475" y="400.408" xlink:href="#k"/>
<use x="100.828" y="365.761" xlink:href="#c"/>
<use x="104.432493" y="365.761" xlink:href="#a"/>
<use x="108.531931" y="365.761" xlink:href="#q"/>
<use x="112.627782" y="365.761" xlink:href="#a"/>
<use x="116.72722" y="365.761" xlink:href="#j"/>
<use x="119.287128" y="365.761" xlink:href="#p"/>
<use x="123.890477" y="365.761" xlink:href="#a"/>
<use x="131.065391" y="365.761" xlink:href="#f"/>
<use x="136.185205" y="365.761" xlink:href="#e"/>
<use x="140.793038" y="365.761" xlink:href="#g"/>
<use x="145.396388" y="365.761" xlink:href="#a"/>
<use x="149.495826" y="365.761" xlink:href="#d"/>
<use x="153.079696" y="365.761" xlink:href="#k"/>
<use x="100.828" y="319.12" xlink:href="#ak"/>
<use x="107.0991" y="319.12" xlink:href="#ad"/>
<use x="114.778822" y="319.12" xlink:href="#f"/>
<use x="119.898636" y="319.12" xlink:href="#ai"/>
<use x="122.714" y="319.522" xlink:href="#ah"/>
<use x="122.714" y="319.12" xlink:href="#e"/>
<use x="127.321833" y="319.12" xlink:href="#b"/>
<use x="132.441647" y="319.12" xlink:href="#ab"/>
<use x="137.04948" y="319.12" xlink:href="#a"/>
<use x="141.148918" y="319.12" xlink:href="#c"/>
</g>
<path transform="matrix(1 0 0 -1 100.83 322.26)" d="m1.25e-4 1.875e-4h43.926" fill="none" stroke="#000" stroke-miterlimit="10" stroke-width=".398"/>
<g>
<use x="9.027" y="411.513" xlink:href="#h"/>
<use x="12.661979" y="411.513" xlink:href="#a"/>
<use x="16.761417" y="411.513" xlink:href="#b"/>
<use x="21.881231" y="411.513" xlink:href="#i"/>
<use x="30.076521" y="411.513" xlink:href="#f"/>
<use x="35.196335" y="411.513" xlink:href="#e"/>
<use x="39.804168" y="411.513" xlink:href="#g"/>
<use x="44.407518" y="411.513" xlink:href="#a"/>
<use x="48.506956" y="411.513" xlink:href="#d"/>
<use x="52.090826" y="411.513" xlink:href="#o"/>
<use x="100.828" y="375.533" xlink:href="#h"/>
<use x="104.462979" y="375.533" xlink:href="#a"/>
<use x="108.562417" y="375.533" xlink:href="#b"/>
<use x="113.682231" y="375.533" xlink:href="#i"/>
<use x="121.877521" y="375.533" xlink:href="#n"/>
<use x="128.5279" y="375.533" xlink:href="#m"/>
<use x="135.183658" y="375.533" xlink:href="#l"/>
<use x="142.349605" y="375.533" xlink:href="#k"/>
<use x="9.027" y="319.12" xlink:href="#aj"/>
<use x="14.146814" y="319.12" xlink:href="#a"/>
<use x="18.246252" y="319.12" xlink:href="#b"/>
<use x="23.366067" y="319.12" xlink:href="#i"/>
<use x="28.485881" y="319.12" xlink:href="#a"/>
<use x="32.585319" y="319.12" xlink:href="#c"/>
</g>
<path transform="matrix(1 0 0 -1 9.027 320.52)" d="m3.4375e-4 -6.25e-4h27.16" fill="none" stroke="#000" stroke-miterlimit="10" stroke-width=".398"/>
<g>
<use x="100.828" y="433.723" xlink:href="#c"/>
<use x="104.432493" y="433.723" xlink:href="#a"/>
<use x="108.531931" y="433.723" xlink:href="#q"/>
<use x="112.627782" y="433.723" xlink:href="#a"/>
<use x="116.72722" y="433.723" xlink:href="#j"/>
<use x="119.287128" y="433.723" xlink:href="#p"/>
<use x="123.890477" y="433.723" xlink:href="#a"/>
<use x="131.065391" y="433.723" xlink:href="#f"/>
<use x="136.185205" y="433.723" xlink:href="#e"/>
<use x="140.793038" y="433.723" xlink:href="#g"/>
<use x="145.396388" y="433.723" xlink:href="#a"/>
<use x="149.495826" y="433.723" xlink:href="#d"/>
<use x="153.079696" y="433.723" xlink:href="#o"/>
<use x="100.828" y="443.495" xlink:href="#h"/>
<use x="104.462979" y="443.495" xlink:href="#a"/>
<use x="108.562417" y="443.495" xlink:href="#b"/>
<use x="113.682231" y="443.495" xlink:href="#i"/>
<use x="121.877521" y="443.495" xlink:href="#n"/>
<use x="128.5279" y="443.495" xlink:href="#m"/>
<use x="135.183658" y="443.495" xlink:href="#l"/>
<use x="142.349605" y="443.495" xlink:href="#o"/>
<use x="28.108" y="469.703" xlink:href="#ag"/>
<use x="34.247294" y="469.703" xlink:href="#a"/>
<use x="38.346732" y="469.703" xlink:href="#c"/>
<use x="41.951225" y="469.703" xlink:href="#af"/>
<use x="44.511132" y="469.703" xlink:href="#ac"/>
<use x="49.630947" y="469.703" xlink:href="#h"/>
<use x="53.265925" y="469.703" xlink:href="#d"/>
<use x="8.879" y="481.696" xlink:href="#d"/>
<use x="12.46287" y="481.696" xlink:href="#j"/>
<use x="15.022777" y="481.696" xlink:href="#ad"/>
<use x="22.702499" y="481.696" xlink:href="#a"/>
<use x="26.801937" y="481.696" xlink:href="#ae"/>
<use x="31.40977" y="481.696" xlink:href="#ac"/>
<use x="36.529584" y="481.696" xlink:href="#d"/>
<use x="7.695" y="578.086" xlink:href="#h"/>
<use x="11.329979" y="578.086" xlink:href="#a"/>
<use x="15.429417" y="578.086" xlink:href="#b"/>
<use x="20.549231" y="578.086" xlink:href="#i"/>
<use x="28.744521" y="578.086" xlink:href="#f"/>
<use x="33.855369" y="578.086" xlink:href="#e"/>
<use x="38.463202" y="578.086" xlink:href="#g"/>
<use x="43.075518" y="578.086" xlink:href="#a"/>
<use x="47.174956" y="578.086" xlink:href="#d"/>
<use x="50.758826" y="578.086" xlink:href="#k"/>
<use x="8.879" y="495.466" xlink:href="#c"/>
<use x="12.483493" y="495.466" xlink:href="#a"/>
<use x="16.582931" y="495.466" xlink:href="#h"/>
<use x="20.217909" y="495.466" xlink:href="#a"/>
<use x="24.317348" y="495.466" xlink:href="#b"/>
<use x="29.437162" y="495.466" xlink:href="#i"/>
<use x="37.632452" y="495.466" xlink:href="#f"/>
<use x="42.752266" y="495.466" xlink:href="#e"/>
<use x="47.360099" y="495.466" xlink:href="#g"/>
<use x="51.963449" y="495.466" xlink:href="#a"/>
<use x="56.062887" y="495.466" xlink:href="#d"/>
<use x="59.646757" y="495.466" xlink:href="#o"/>
<use x="9.027" y="40.609" xlink:href="#h"/>
<use x="12.661979" y="40.609" xlink:href="#a"/>
<use x="16.761417" y="40.609" xlink:href="#b"/>
<use x="21.881231" y="40.609" xlink:href="#i"/>
<use x="30.076521" y="40.609" xlink:href="#f"/>
<use x="35.196335" y="40.609" xlink:href="#e"/>
<use x="39.804168" y="40.609" xlink:href="#g"/>
<use x="44.407518" y="40.609" xlink:href="#a"/>
<use x="48.506956" y="40.609" xlink:href="#d"/>
<use x="52.090826" y="40.609" xlink:href="#k"/>
<use x="9.027" y="93.913" xlink:href="#c"/>
<use x="12.631493" y="93.913" xlink:href="#a"/>
<use x="16.730931" y="93.913" xlink:href="#q"/>
<use x="20.826782" y="93.913" xlink:href="#a"/>
<use x="24.92622" y="93.913" xlink:href="#j"/>
<use x="27.486128" y="93.913" xlink:href="#p"/>
<use x="32.089477" y="93.913" xlink:href="#a"/>
<use x="39.264391" y="93.913" xlink:href="#n"/>
<use x="45.91477" y="93.913" xlink:href="#m"/>
<use x="52.570528" y="93.913" xlink:href="#l"/>
<use x="59.736475" y="93.913" xlink:href="#k"/>
<use x="100.828" y="59.265" xlink:href="#c"/>
<use x="104.432493" y="59.265" xlink:href="#a"/>
<use x="108.531931" y="59.265" xlink:href="#q"/>
<use x="112.627782" y="59.265" xlink:href="#a"/>
<use x="116.72722" y="59.265" xlink:href="#j"/>
<use x="119.287128" y="59.265" xlink:href="#p"/>
<use x="123.890477" y="59.265" xlink:href="#a"/>
<use x="131.065391" y="59.265" xlink:href="#f"/>
<use x="136.185205" y="59.265" xlink:href="#e"/>
<use x="140.793038" y="59.265" xlink:href="#g"/>
<use x="145.396388" y="59.265" xlink:href="#a"/>
<use x="149.495826" y="59.265" xlink:href="#d"/>
<use x="153.079696" y="59.265" xlink:href="#k"/>
<use x="100.828" y="12.625" xlink:href="#ak"/>
<use x="107.0991" y="12.625" xlink:href="#ad"/>
<use x="114.778822" y="12.625" xlink:href="#f"/>
<use x="119.898636" y="12.625" xlink:href="#ai"/>
<use x="122.714" y="13.026" xlink:href="#ah"/>
<use x="122.714" y="12.625" xlink:href="#e"/>
<use x="127.321833" y="12.625" xlink:href="#b"/>
<use x="132.441647" y="12.625" xlink:href="#ab"/>
<use x="137.04948" y="12.625" xlink:href="#a"/>
<use x="141.148918" y="12.625" xlink:href="#c"/>
</g>
<path transform="matrix(1 0 0 -1 100.83 15.763)" d="m1.25e-4 0.0012812h43.926" fill="none" stroke="#000" stroke-miterlimit="10" stroke-width=".398"/>
<g>
<use x="9.027" y="105.018" xlink:href="#h"/>
<use x="12.661979" y="105.018" xlink:href="#a"/>
<use x="16.761417" y="105.018" xlink:href="#b"/>
<use x="21.881231" y="105.018" xlink:href="#i"/>
<use x="30.076521" y="105.018" xlink:href="#f"/>
<use x="35.196335" y="105.018" xlink:href="#e"/>
<use x="39.804168" y="105.018" xlink:href="#g"/>
<use x="44.407518" y="105.018" xlink:href="#a"/>
<use x="48.506956" y="105.018" xlink:href="#d"/>
<use x="52.090826" y="105.018" xlink:href="#o"/>
<use x="9.027" y="161.875" xlink:href="#c"/>
<use x="12.631493" y="161.875" xlink:href="#a"/>
<use x="16.730931" y="161.875" xlink:href="#q"/>
<use x="20.826782" y="161.875" xlink:href="#a"/>
<use x="24.92622" y="161.875" xlink:href="#j"/>
<use x="27.486128" y="161.875" xlink:href="#p"/>
<use x="32.089477" y="161.875" xlink:href="#a"/>
<use x="39.264391" y="161.875" xlink:href="#n"/>
<use x="45.91477" y="161.875" xlink:href="#m"/>
<use x="52.570528" y="161.875" xlink:href="#l"/>
<use x="59.736475" y="161.875" xlink:href="#o"/>
<use x="9.027" y="171.647" xlink:href="#h"/>
<use x="12.661979" y="171.647" xlink:href="#a"/>
<use x="16.761417" y="171.647" xlink:href="#b"/>
<use x="21.881231" y="171.647" xlink:href="#i"/>
<use x="30.076521" y="171.647" xlink:href="#f"/>
<use x="35.196335" y="171.647" xlink:href="#e"/>
<use x="39.804168" y="171.647" xlink:href="#g"/>
<use x="44.407518" y="171.647" xlink:href="#a"/>
<use x="48.506956" y="171.647" xlink:href="#d"/>
<use x="52.090826" y="171.647" xlink:href="#k"/>
<use x="100.828" y="194.005" xlink:href="#c"/>
<use x="104.432493" y="194.005" xlink:href="#a"/>
<use x="108.531931" y="194.005" xlink:href="#q"/>
<use x="112.627782" y="194.005" xlink:href="#a"/>
<use x="116.72722" y="194.005" xlink:href="#j"/>
<use x="119.287128" y="194.005" xlink:href="#p"/>
<use x="123.890477" y="194.005" xlink:href="#a"/>
<use x="131.065391" y="194.005" xlink:href="#f"/>
<use x="136.185205" y="194.005" xlink:href="#e"/>
<use x="140.793038" y="194.005" xlink:href="#g"/>
<use x="145.396388" y="194.005" xlink:href="#a"/>
<use x="149.495826" y="194.005" xlink:href="#d"/>
<use x="153.079696" y="194.005" xlink:href="#k"/>
<use x="100.828" y="127.227" xlink:href="#c"/>
<use x="104.432493" y="127.227" xlink:href="#a"/>
<use x="108.531931" y="127.227" xlink:href="#q"/>
<use x="112.627782" y="127.227" xlink:href="#a"/>
<use x="116.72722" y="127.227" xlink:href="#j"/>
<use x="119.287128" y="127.227" xlink:href="#p"/>
<use x="123.890477" y="127.227" xlink:href="#a"/>
<use x="131.065391" y="127.227" xlink:href="#f"/>
<use x="136.185205" y="127.227" xlink:href="#e"/>
<use x="140.793038" y="127.227" xlink:href="#g"/>
<use x="145.396388" y="127.227" xlink:href="#a"/>
<use x="149.495826" y="127.227" xlink:href="#d"/>
<use x="153.079696" y="127.227" xlink:href="#o"/>
<use x="100.828" y="137.148" xlink:href="#h"/>
<use x="104.462979" y="137.148" xlink:href="#a"/>
<use x="108.562417" y="137.148" xlink:href="#b"/>
<use x="113.682231" y="137.148" xlink:href="#i"/>
<use x="121.877521" y="137.148" xlink:href="#n"/>
<use x="128.5279" y="137.148" xlink:href="#m"/>
<use x="135.183658" y="137.148" xlink:href="#l"/>
<use x="142.349605" y="137.148" xlink:href="#o"/>
<use x="100.828" y="203.777" xlink:href="#h"/>
<use x="104.462979" y="203.777" xlink:href="#a"/>
<use x="108.562417" y="203.777" xlink:href="#b"/>
<use x="113.682231" y="203.777" xlink:href="#i"/>
<use x="121.877521" y="203.777" xlink:href="#n"/>
<use x="128.5279" y="203.777" xlink:href="#m"/>
<use x="135.183658" y="203.777" xlink:href="#l"/>
<use x="142.349605" y="203.777" xlink:href="#k"/>
<use x="100.828" y="69.038" xlink:href="#h"/>
<use x="104.462979" y="69.038" xlink:href="#a"/>
<use x="108.562417" y="69.038" xlink:href="#b"/>
<use x="113.682231" y="69.038" xlink:href="#i"/>
<use x="121.877521" y="69.038" xlink:href="#n"/>
<use x="128.5279" y="69.038" xlink:href="#m"/>
<use x="135.183658" y="69.038" xlink:href="#l"/>
<use x="142.349605" y="69.038" xlink:href="#k"/>
<use x="64.848" y="73.924" xlink:href="#aa"/>
<use x="70.959473" y="73.924" xlink:href="#z"/>
<use x="77.075727" y="73.924" xlink:href="#y"/>
<use x="83.646278" y="73.924" xlink:href="#v"/>
<use x="63.515" y="141.886" xlink:href="#aa"/>
<use x="69.626473" y="141.886" xlink:href="#z"/>
<use x="75.742727" y="141.886" xlink:href="#y"/>
<use x="82.321248" y="141.886" xlink:href="#x"/>
<use x="79.506" y="175.201" xlink:href="#u"/>
<use x="84.21075" y="175.201" xlink:href="#t"/>
<use x="88.445264" y="175.201" xlink:href="#s"/>
<use x="92.675793" y="175.201" xlink:href="#r"/>
<use x="96.439274" y="175.201" xlink:href="#w"/>
<use x="99.73252" y="175.201" xlink:href="#v"/>
<use x="63.515" y="208.515" xlink:href="#aa"/>
<use x="69.626473" y="208.515" xlink:href="#z"/>
<use x="75.742727" y="208.515" xlink:href="#y"/>
<use x="82.321248" y="208.515" xlink:href="#v"/>
<use x="79.506" y="41.942" xlink:href="#u"/>
<use x="84.21075" y="41.942" xlink:href="#t"/>
<use x="88.445264" y="41.942" xlink:href="#s"/>
<use x="92.675793" y="41.942" xlink:href="#r"/>
<use x="96.439274" y="41.942" xlink:href="#w"/>
<use x="99.73252" y="41.942" xlink:href="#v"/>
<use x="79.506" y="108.571" xlink:href="#u"/>
<use x="84.21075" y="108.571" xlink:href="#t"/>
<use x="88.445264" y="108.571" xlink:href="#s"/>
<use x="92.675793" y="108.571" xlink:href="#r"/>
<use x="96.439274" y="108.571" xlink:href="#w"/>
<use x="99.73252" y="108.571" xlink:href="#x"/>
<use x="74.176" y="347.104" xlink:href="#u"/>
<use x="78.88075" y="347.104" xlink:href="#t"/>
<use x="83.115264" y="347.104" xlink:href="#s"/>
<use x="87.345793" y="347.104" xlink:href="#r"/>
<use x="91.109274" y="347.104" xlink:href="#w"/>
<use x="94.40252" y="347.104" xlink:href="#v"/>
<use x="64.848" y="380.419" xlink:href="#aa"/>
<use x="70.959473" y="380.419" xlink:href="#z"/>
<use x="77.075727" y="380.419" xlink:href="#y"/>
<use x="83.646278" y="380.419" xlink:href="#v"/>
<use x="74.176" y="413.734" xlink:href="#u"/>
<use x="78.88075" y="413.734" xlink:href="#t"/>
<use x="83.115264" y="413.734" xlink:href="#s"/>
<use x="87.345793" y="413.734" xlink:href="#r"/>
<use x="91.109274" y="413.734" xlink:href="#w"/>
<use x="94.40252" y="413.734" xlink:href="#x"/>
<use x="74.176" y="500.352" xlink:href="#u"/>
<use x="78.88075" y="500.352" xlink:href="#t"/>
<use x="83.115264" y="500.352" xlink:href="#s"/>
<use x="87.345793" y="500.352" xlink:href="#r"/>
<use x="91.109274" y="500.352" xlink:href="#w"/>
<use x="94.40252" y="500.352" xlink:href="#x"/>
<use x="72.844" y="580.307" xlink:href="#u"/>
<use x="77.54875" y="580.307" xlink:href="#t"/>
<use x="81.783264" y="580.307" xlink:href="#s"/>
<use x="86.013793" y="580.307" xlink:href="#r"/>
<use x="89.777274" y="580.307" xlink:href="#w"/>
<use x="93.07052" y="580.307" xlink:href="#v"/>
<use x="63.515" y="548.325" xlink:href="#aa"/>
<use x="69.626473" y="548.325" xlink:href="#z"/>
<use x="75.742727" y="548.325" xlink:href="#y"/>
<use x="85.142663" y="548.325" xlink:href="#x"/>
<use x="64.848" y="448.381" xlink:href="#aa"/>
<use x="70.959473" y="448.381" xlink:href="#z"/>
<use x="77.075727" y="448.381" xlink:href="#y"/>
<use x="83.646278" y="448.381" xlink:href="#x"/>
<use x="9.027" y="12.625" xlink:href="#aj"/>
<use x="14.146814" y="12.625" xlink:href="#a"/>
<use x="18.246252" y="12.625" xlink:href="#b"/>
<use x="23.366067" y="12.625" xlink:href="#i"/>
<use x="28.485881" y="12.625" xlink:href="#a"/>
<use x="32.585319" y="12.625" xlink:href="#c"/>
</g>
<path transform="matrix(1 0 0 -1 9.027 14.019)" d="m3.4375e-4 -5.3125e-4h27.16" fill="none" stroke="#000" stroke-miterlimit="10" stroke-width=".398"/>
<g>
<use x="36.116" y="287.938" xlink:href="#ah"/>
<use x="34.965" y="289.803" xlink:href="#aw"/>
<use x="41.875404" y="289.803" xlink:href="#av"/>
<use x="47.255244" y="289.803" xlink:href="#a"/>
<use x="51.345716" y="289.803" xlink:href="#c"/>
<use x="54.950209" y="289.803" xlink:href="#d"/>
<use x="58.534079" y="289.803" xlink:href="#c"/>
<use x="62.138572" y="289.803" xlink:href="#e"/>
<use x="66.746405" y="289.803" xlink:href="#ab"/>
<use x="71.354238" y="289.803" xlink:href="#ac"/>
<use x="76.474052" y="289.803" xlink:href="#b"/>
<use x="81.593867" y="289.803" xlink:href="#ab"/>
<use x="89.277175" y="289.803" xlink:href="#ae"/>
<use x="93.885008" y="289.803" xlink:href="#as"/>
<use x="99.004822" y="289.803" xlink:href="#b"/>
<use x="104.124636" y="289.803" xlink:href="#a"/>
<use x="111.290583" y="289.803" xlink:href="#ag"/>
<use x="117.438844" y="289.803" xlink:href="#a"/>
<use x="121.538282" y="289.803" xlink:href="#c"/>
<use x="125.142775" y="289.803" xlink:href="#af"/>
<use x="127.702682" y="289.803" xlink:href="#ac"/>
<use x="132.822496" y="289.803" xlink:href="#h"/>
<use x="136.457475" y="289.803" xlink:href="#d"/>
<use x="34.973" y="616.287" xlink:href="#ag"/>
<use x="41.112294" y="616.287" xlink:href="#a"/>
<use x="45.211732" y="616.287" xlink:href="#c"/>
<use x="48.816225" y="616.287" xlink:href="#af"/>
<use x="51.376132" y="616.287" xlink:href="#ae"/>
<use x="55.983965" y="616.287" xlink:href="#c"/>
<use x="59.588458" y="616.287" xlink:href="#a"/>
<use x="63.687896" y="616.287" xlink:href="#b"/>
<use x="71.883186" y="616.287" xlink:href="#ab"/>
<use x="76.491019" y="616.287" xlink:href="#a"/>
<use x="80.590457" y="616.287" xlink:href="#ab"/>
<use x="85.19829" y="616.287" xlink:href="#e"/>
<use x="89.806123" y="616.287" xlink:href="#b"/>
<use x="94.925937" y="616.287" xlink:href="#ab"/>
<use x="99.53377" y="616.287" xlink:href="#a"/>
<use x="103.633208" y="616.287" xlink:href="#b"/>
<use x="108.753022" y="616.287" xlink:href="#a"/>
<use x="112.85246" y="616.287" xlink:href="#h"/>
<use x="119.553948" y="616.287" xlink:href="#n"/>
<use x="126.213293" y="616.287" xlink:href="#m"/>
<use x="132.869052" y="616.287" xlink:href="#l"/>
<use x="240.305" y="289.803" xlink:href="#ag"/>
<use x="246.444294" y="289.803" xlink:href="#a"/>
<use x="250.543732" y="289.803" xlink:href="#c"/>
<use x="254.148225" y="289.803" xlink:href="#af"/>
<use x="256.708132" y="289.803" xlink:href="#ae"/>
<use x="261.315965" y="289.803" xlink:href="#c"/>
<use x="264.920458" y="289.803" xlink:href="#a"/>
<use x="269.019896" y="289.803" xlink:href="#b"/>
<use x="277.215186" y="289.803" xlink:href="#ab"/>
<use x="281.823019" y="289.803" xlink:href="#a"/>
<use x="285.922457" y="289.803" xlink:href="#ab"/>
<use x="290.53029" y="289.803" xlink:href="#e"/>
<use x="295.138123" y="289.803" xlink:href="#b"/>
<use x="300.257937" y="289.803" xlink:href="#ab"/>
<use x="304.86577" y="289.803" xlink:href="#a"/>
<use x="308.965208" y="289.803" xlink:href="#b"/>
<use x="314.085022" y="289.803" xlink:href="#a"/>
<use x="318.18446" y="289.803" xlink:href="#h"/>
<use x="324.885948" y="289.803" xlink:href="#au"/>
<use x="330.905989" y="289.803" xlink:href="#e"/>
<use x="335.513822" y="289.803" xlink:href="#g"/>
<use x="340.117172" y="289.803" xlink:href="#a"/>
<use x="344.21661" y="289.803" xlink:href="#d"/>
<use x="184.715" y="616.287" xlink:href="#ao"/>
<use x="191.381551" y="616.287" xlink:href="#an"/>
<use x="196.229555" y="616.287" xlink:href="#am"/>
<use x="199.260103" y="616.287" xlink:href="#al"/>
<use x="7.695" y="568.314" xlink:href="#c"/>
<use x="11.299493" y="568.314" xlink:href="#a"/>
<use x="15.398931" y="568.314" xlink:href="#q"/>
<use x="19.494782" y="568.314" xlink:href="#a"/>
<use x="23.59422" y="568.314" xlink:href="#j"/>
<use x="26.154128" y="568.314" xlink:href="#p"/>
<use x="30.757477" y="568.314" xlink:href="#a"/>
<use x="37.932391" y="568.314" xlink:href="#n"/>
<use x="44.58277" y="568.314" xlink:href="#m"/>
<use x="51.238528" y="568.314" xlink:href="#l"/>
<use x="58.404475" y="568.314" xlink:href="#o"/>
<use x="215.579" y="347.104" xlink:href="#h"/>
<use x="219.213979" y="347.104" xlink:href="#a"/>
<use x="223.313417" y="347.104" xlink:href="#b"/>
<use x="228.433231" y="347.104" xlink:href="#i"/>
<use x="236.619554" y="347.104" xlink:href="#f"/>
<use x="241.739369" y="347.104" xlink:href="#e"/>
<use x="246.347202" y="347.104" xlink:href="#g"/>
<use x="250.959518" y="347.104" xlink:href="#a"/>
<use x="255.058956" y="347.104" xlink:href="#d"/>
<use x="258.642826" y="347.104" xlink:href="#k"/>
<use x="215.579" y="400.408" xlink:href="#c"/>
<use x="219.183493" y="400.408" xlink:href="#a"/>
<use x="223.282931" y="400.408" xlink:href="#q"/>
<use x="227.378782" y="400.408" xlink:href="#a"/>
<use x="231.47822" y="400.408" xlink:href="#j"/>
<use x="234.038128" y="400.408" xlink:href="#p"/>
<use x="238.641477" y="400.408" xlink:href="#a"/>
<use x="245.816391" y="400.408" xlink:href="#n"/>
<use x="252.46677" y="400.408" xlink:href="#m"/>
<use x="259.122528" y="400.408" xlink:href="#l"/>
<use x="266.288475" y="400.408" xlink:href="#k"/>
<use x="307.379" y="319.12" xlink:href="#ak"/>
<use x="313.6501" y="319.12" xlink:href="#ad"/>
<use x="321.329822" y="319.12" xlink:href="#f"/>
<use x="326.449636" y="319.12" xlink:href="#ai"/>
<use x="329.265" y="319.522" xlink:href="#ah"/>
<use x="329.265" y="319.12" xlink:href="#e"/>
<use x="333.872833" y="319.12" xlink:href="#b"/>
<use x="338.992647" y="319.12" xlink:href="#ab"/>
<use x="343.60048" y="319.12" xlink:href="#a"/>
<use x="347.699918" y="319.12" xlink:href="#c"/>
</g>
<path transform="matrix(1 0 0 -1 307.38 322.26)" d="m-9.375e-5 1.875e-4h43.926" fill="none" stroke="#000" stroke-miterlimit="10" stroke-width=".398"/>
<g>
<use x="215.579" y="411.513" xlink:href="#h"/>
<use x="219.213979" y="411.513" xlink:href="#a"/>
<use x="223.313417" y="411.513" xlink:href="#b"/>
<use x="228.433231" y="411.513" xlink:href="#i"/>
<use x="236.619554" y="411.513" xlink:href="#f"/>
<use x="241.739369" y="411.513" xlink:href="#e"/>
<use x="246.347202" y="411.513" xlink:href="#g"/>
<use x="250.959518" y="411.513" xlink:href="#a"/>
<use x="255.058956" y="411.513" xlink:href="#d"/>
<use x="258.642826" y="411.513" xlink:href="#o"/>
<use x="307.379" y="375.533" xlink:href="#h"/>
<use x="311.013979" y="375.533" xlink:href="#a"/>
<use x="315.113417" y="375.533" xlink:href="#b"/>
<use x="320.233231" y="375.533" xlink:href="#i"/>
<use x="328.428521" y="375.533" xlink:href="#n"/>
<use x="335.0789" y="375.533" xlink:href="#m"/>
<use x="341.734658" y="375.533" xlink:href="#l"/>
<use x="348.900605" y="375.533" xlink:href="#k"/>
<use x="215.579" y="319.12" xlink:href="#aj"/>
<use x="220.698814" y="319.12" xlink:href="#a"/>
<use x="224.798252" y="319.12" xlink:href="#b"/>
<use x="229.918067" y="319.12" xlink:href="#i"/>
<use x="235.037881" y="319.12" xlink:href="#a"/>
<use x="239.137319" y="319.12" xlink:href="#c"/>
</g>
<path transform="matrix(1 0 0 -1 215.58 320.52)" d="m-8.75e-4 -6.25e-4h27.164" fill="none" stroke="#000" stroke-miterlimit="10" stroke-width=".398"/>
<g>
<use x="307.379" y="433.723" xlink:href="#c"/>
<use x="310.983493" y="433.723" xlink:href="#a"/>
<use x="315.082931" y="433.723" xlink:href="#q"/>
<use x="319.178782" y="433.723" xlink:href="#a"/>
<use x="323.27822" y="433.723" xlink:href="#j"/>
<use x="325.838128" y="433.723" xlink:href="#p"/>
<use x="330.441477" y="433.723" xlink:href="#a"/>
<use x="337.616391" y="433.723" xlink:href="#f"/>
<use x="342.736205" y="433.723" xlink:href="#e"/>
<use x="347.344038" y="433.723" xlink:href="#g"/>
<use x="351.947388" y="433.723" xlink:href="#a"/>
<use x="356.046826" y="433.723" xlink:href="#d"/>
<use x="359.630696" y="433.723" xlink:href="#o"/>
<use x="307.379" y="443.495" xlink:href="#h"/>
<use x="311.013979" y="443.495" xlink:href="#a"/>
<use x="315.113417" y="443.495" xlink:href="#b"/>
<use x="320.233231" y="443.495" xlink:href="#i"/>
<use x="328.428521" y="443.495" xlink:href="#n"/>
<use x="335.0789" y="443.495" xlink:href="#m"/>
<use x="341.734658" y="443.495" xlink:href="#l"/>
<use x="348.900605" y="443.495" xlink:href="#o"/>
<use x="215.431" y="440.386" xlink:href="#d"/>
<use x="219.01487" y="440.386" xlink:href="#j"/>
<use x="221.574777" y="440.386" xlink:href="#ad"/>
<use x="229.254499" y="440.386" xlink:href="#a"/>
<use x="233.353937" y="440.386" xlink:href="#ae"/>
<use x="237.96177" y="440.386" xlink:href="#ac"/>
<use x="243.081584" y="440.386" xlink:href="#d"/>
<use x="254.596" y="616.287" xlink:href="#ag"/>
<use x="260.735294" y="616.287" xlink:href="#a"/>
<use x="264.834732" y="616.287" xlink:href="#c"/>
<use x="268.439225" y="616.287" xlink:href="#ai"/>
<use x="271.254675" y="616.287" xlink:href="#c"/>
<use x="275.118" y="616.689" xlink:href="#ah"/>
<use x="274.862" y="616.287" xlink:href="#ac"/>
<use x="279.981814" y="616.287" xlink:href="#as"/>
<use x="284.841603" y="616.287" xlink:href="#d"/>
<use x="288.425473" y="616.287" xlink:href="#a"/>
<use x="292.524911" y="616.287" xlink:href="#c"/>
<use x="299.204879" y="616.287" xlink:href="#at"/>
<use x="305.860638" y="616.287" xlink:href="#j"/>
<use x="308.420545" y="616.287" xlink:href="#ad"/>
<use x="316.100267" y="616.287" xlink:href="#a"/>
<use x="320.199705" y="616.287" xlink:href="#ae"/>
<use x="324.807538" y="616.287" xlink:href="#ac"/>
<use x="329.927352" y="616.287" xlink:href="#d"/>
<use x="280.727" y="345.772" xlink:href="#u"/>
<use x="285.43175" y="345.772" xlink:href="#t"/>
<use x="289.666264" y="345.772" xlink:href="#s"/>
<use x="293.896793" y="345.772" xlink:href="#r"/>
<use x="297.660274" y="345.772" xlink:href="#w"/>
<use x="300.95352" y="345.772" xlink:href="#v"/>
<use x="271.399" y="380.419" xlink:href="#aa"/>
<use x="277.510473" y="380.419" xlink:href="#z"/>
<use x="283.626727" y="380.419" xlink:href="#y"/>
<use x="290.197278" y="380.419" xlink:href="#v"/>
<use x="280.727" y="413.734" xlink:href="#u"/>
<use x="285.43175" y="413.734" xlink:href="#t"/>
<use x="289.666264" y="413.734" xlink:href="#s"/>
<use x="293.896793" y="413.734" xlink:href="#r"/>
<use x="297.660274" y="413.734" xlink:href="#w"/>
<use x="300.95352" y="413.734" xlink:href="#x"/>
<use x="215.43" y="459.042" xlink:href="#c"/>
<use x="219.034493" y="459.042" xlink:href="#a"/>
<use x="223.133931" y="459.042" xlink:href="#h"/>
<use x="226.768909" y="459.042" xlink:href="#a"/>
<use x="230.868348" y="459.042" xlink:href="#b"/>
<use x="235.988162" y="459.042" xlink:href="#i"/>
<use x="244.183452" y="459.042" xlink:href="#f"/>
<use x="249.303266" y="459.042" xlink:href="#e"/>
<use x="253.911099" y="459.042" xlink:href="#g"/>
<use x="258.514449" y="459.042" xlink:href="#a"/>
<use x="262.613887" y="459.042" xlink:href="#d"/>
<use x="266.197757" y="459.042" xlink:href="#o"/>
<use x="214.246" y="487.026" xlink:href="#c"/>
<use x="217.850493" y="487.026" xlink:href="#a"/>
<use x="221.949931" y="487.026" xlink:href="#q"/>
<use x="226.045782" y="487.026" xlink:href="#a"/>
<use x="230.14522" y="487.026" xlink:href="#j"/>
<use x="232.705128" y="487.026" xlink:href="#p"/>
<use x="237.308477" y="487.026" xlink:href="#a"/>
<use x="244.483391" y="487.026" xlink:href="#n"/>
<use x="251.13377" y="487.026" xlink:href="#m"/>
<use x="257.789528" y="487.026" xlink:href="#l"/>
<use x="264.955475" y="487.026" xlink:href="#o"/>
<use x="292.721" y="469.703" xlink:href="#u"/>
<use x="297.42575" y="469.703" xlink:href="#t"/>
<use x="301.660264" y="469.703" xlink:href="#s"/>
<use x="305.890793" y="469.703" xlink:href="#r"/>
<use x="309.654274" y="469.703" xlink:href="#w"/>
<use x="312.94752" y="469.703" xlink:href="#x"/>
<use x="279.395" y="452.379" xlink:href="#aa"/>
<use x="285.498503" y="452.379" xlink:href="#z"/>
<use x="291.614757" y="452.379" xlink:href="#y"/>
<use x="298.193278" y="452.379" xlink:href="#x"/>
<use x="214.098" y="524.339" xlink:href="#h"/>
<use x="217.732979" y="524.339" xlink:href="#a"/>
<use x="221.832417" y="524.339" xlink:href="#b"/>
<use x="226.952231" y="524.339" xlink:href="#i"/>
<use x="235.147521" y="524.339" xlink:href="#f"/>
<use x="240.258369" y="524.339" xlink:href="#e"/>
<use x="244.866202" y="524.339" xlink:href="#g"/>
<use x="249.478518" y="524.339" xlink:href="#a"/>
<use x="253.577956" y="524.339" xlink:href="#d"/>
<use x="257.161826" y="524.339" xlink:href="#k"/>
<use x="307.379" y="548.325" xlink:href="#c"/>
<use x="310.983493" y="548.325" xlink:href="#a"/>
<use x="315.082931" y="548.325" xlink:href="#q"/>
<use x="319.178782" y="548.325" xlink:href="#a"/>
<use x="323.27822" y="548.325" xlink:href="#j"/>
<use x="325.838128" y="548.325" xlink:href="#p"/>
<use x="330.441477" y="548.325" xlink:href="#a"/>
<use x="337.616391" y="548.325" xlink:href="#f"/>
<use x="342.736205" y="548.325" xlink:href="#e"/>
<use x="347.344038" y="548.325" xlink:href="#g"/>
<use x="351.947388" y="548.325" xlink:href="#a"/>
<use x="356.046826" y="548.325" xlink:href="#d"/>
<use x="359.630696" y="548.325" xlink:href="#k"/>
<use x="264.736" y="568.314" xlink:href="#aa"/>
<use x="270.847473" y="568.314" xlink:href="#z"/>
<use x="276.963727" y="568.314" xlink:href="#y"/>
<use x="283.534278" y="568.314" xlink:href="#v"/>
<use x="275.397" y="516.343" xlink:href="#aa"/>
<use x="281.508473" y="516.343" xlink:href="#z"/>
<use x="287.616757" y="516.343" xlink:href="#y"/>
<use x="294.195278" y="516.343" xlink:href="#x"/>
<use x="291.388" y="532.334" xlink:href="#u"/>
<use x="296.09275" y="532.334" xlink:href="#t"/>
<use x="300.327264" y="532.334" xlink:href="#s"/>
<use x="304.557793" y="532.334" xlink:href="#r"/>
<use x="308.321274" y="532.334" xlink:href="#w"/>
<use x="311.61452" y="532.334" xlink:href="#v"/>
<use x="214.246" y="546.993" xlink:href="#c"/>
<use x="217.850493" y="546.993" xlink:href="#a"/>
<use x="221.949931" y="546.993" xlink:href="#q"/>
<use x="226.045782" y="546.993" xlink:href="#a"/>
<use x="230.14522" y="546.993" xlink:href="#j"/>
<use x="232.705128" y="546.993" xlink:href="#p"/>
<use x="237.308477" y="546.993" xlink:href="#a"/>
<use x="244.483391" y="546.993" xlink:href="#n"/>
<use x="251.13377" y="546.993" xlink:href="#m"/>
<use x="257.789528" y="546.993" xlink:href="#l"/>
<use x="264.955475" y="546.993" xlink:href="#o"/>
<use x="307.379" y="558.098" xlink:href="#h"/>
<use x="311.013979" y="558.098" xlink:href="#a"/>
<use x="315.113417" y="558.098" xlink:href="#b"/>
<use x="320.233231" y="558.098" xlink:href="#i"/>
<use x="328.428521" y="558.098" xlink:href="#n"/>
<use x="335.0789" y="558.098" xlink:href="#m"/>
<use x="341.734658" y="558.098" xlink:href="#l"/>
<use x="348.900605" y="558.098" xlink:href="#k"/>
<use x="307.379" y="365.761" xlink:href="#c"/>
<use x="310.983493" y="365.761" xlink:href="#a"/>
<use x="315.082931" y="365.761" xlink:href="#q"/>
<use x="319.178782" y="365.761" xlink:href="#a"/>
<use x="323.27822" y="365.761" xlink:href="#j"/>
<use x="325.838128" y="365.761" xlink:href="#p"/>
<use x="330.441477" y="365.761" xlink:href="#a"/>
<use x="337.616391" y="365.761" xlink:href="#f"/>
<use x="342.736205" y="365.761" xlink:href="#e"/>
<use x="347.344038" y="365.761" xlink:href="#g"/>
<use x="351.947388" y="365.761" xlink:href="#a"/>
<use x="356.046826" y="365.761" xlink:href="#d"/>
<use x="359.630696" y="365.761" xlink:href="#k"/>
<use x="184.715" y="289.803" xlink:href="#ao"/>
<use x="191.381551" y="289.803" xlink:href="#an"/>
<use x="196.229555" y="289.803" xlink:href="#am"/>
<use x="199.260103" y="289.803" xlink:href="#al"/>
<use x="215.579" y="40.609" xlink:href="#h"/>
<use x="219.213979" y="40.609" xlink:href="#a"/>
<use x="223.313417" y="40.609" xlink:href="#b"/>
<use x="228.433231" y="40.609" xlink:href="#i"/>
<use x="236.619554" y="40.609" xlink:href="#f"/>
<use x="241.739369" y="40.609" xlink:href="#e"/>
<use x="246.347202" y="40.609" xlink:href="#g"/>
<use x="250.959518" y="40.609" xlink:href="#a"/>
<use x="255.058956" y="40.609" xlink:href="#d"/>
<use x="258.642826" y="40.609" xlink:href="#k"/>
<use x="215.579" y="93.913" xlink:href="#c"/>
<use x="219.183493" y="93.913" xlink:href="#a"/>
<use x="223.282931" y="93.913" xlink:href="#q"/>
<use x="227.378782" y="93.913" xlink:href="#a"/>
<use x="231.47822" y="93.913" xlink:href="#j"/>
<use x="234.038128" y="93.913" xlink:href="#p"/>
<use x="238.641477" y="93.913" xlink:href="#a"/>
<use x="245.816391" y="93.913" xlink:href="#n"/>
<use x="252.46677" y="93.913" xlink:href="#m"/>
<use x="259.122528" y="93.913" xlink:href="#l"/>
<use x="266.288475" y="93.913" xlink:href="#k"/>
<use x="307.379" y="59.265" xlink:href="#c"/>
<use x="310.983493" y="59.265" xlink:href="#a"/>
<use x="315.082931" y="59.265" xlink:href="#q"/>
<use x="319.178782" y="59.265" xlink:href="#a"/>
<use x="323.27822" y="59.265" xlink:href="#j"/>
<use x="325.838128" y="59.265" xlink:href="#p"/>
<use x="330.441477" y="59.265" xlink:href="#a"/>
<use x="337.616391" y="59.265" xlink:href="#f"/>
<use x="342.736205" y="59.265" xlink:href="#e"/>
<use x="347.344038" y="59.265" xlink:href="#g"/>
<use x="351.947388" y="59.265" xlink:href="#a"/>
<use x="356.046826" y="59.265" xlink:href="#d"/>
<use x="359.630696" y="59.265" xlink:href="#k"/>
<use x="307.379" y="12.625" xlink:href="#ak"/>
<use x="313.6501" y="12.625" xlink:href="#ad"/>
<use x="321.329822" y="12.625" xlink:href="#f"/>
<use x="326.449636" y="12.625" xlink:href="#ai"/>
<use x="329.265" y="13.026" xlink:href="#ah"/>
<use x="329.265" y="12.625" xlink:href="#e"/>
<use x="333.872833" y="12.625" xlink:href="#b"/>
<use x="338.992647" y="12.625" xlink:href="#ab"/>
<use x="343.60048" y="12.625" xlink:href="#a"/>
<use x="347.699918" y="12.625" xlink:href="#c"/>
</g>
<path transform="matrix(1 0 0 -1 307.38 15.763)" d="m-9.375e-5 0.0012812h43.926" fill="none" stroke="#000" stroke-miterlimit="10" stroke-width=".398"/>
<g>
<use x="215.579" y="105.018" xlink:href="#h"/>
<use x="219.213979" y="105.018" xlink:href="#a"/>
<use x="223.313417" y="105.018" xlink:href="#b"/>
<use x="228.433231" y="105.018" xlink:href="#i"/>
<use x="236.619554" y="105.018" xlink:href="#f"/>
<use x="241.739369" y="105.018" xlink:href="#e"/>
<use x="246.347202" y="105.018" xlink:href="#g"/>
<use x="250.959518" y="105.018" xlink:href="#a"/>
<use x="255.058956" y="105.018" xlink:href="#d"/>
<use x="258.642826" y="105.018" xlink:href="#o"/>
<use x="307.379" y="69.038" xlink:href="#h"/>
<use x="311.013979" y="69.038" xlink:href="#a"/>
<use x="315.113417" y="69.038" xlink:href="#b"/>
<use x="320.233231" y="69.038" xlink:href="#i"/>
<use x="328.428521" y="69.038" xlink:href="#n"/>
<use x="335.0789" y="69.038" xlink:href="#m"/>
<use x="341.734658" y="69.038" xlink:href="#l"/>
<use x="348.900605" y="69.038" xlink:href="#k"/>
<use x="215.579" y="12.625" xlink:href="#aj"/>
<use x="220.698814" y="12.625" xlink:href="#a"/>
<use x="224.798252" y="12.625" xlink:href="#b"/>
<use x="229.918067" y="12.625" xlink:href="#i"/>
<use x="235.037881" y="12.625" xlink:href="#a"/>
<use x="239.137319" y="12.625" xlink:href="#c"/>
</g>
<path transform="matrix(1 0 0 -1 215.58 14.019)" d="m-8.75e-4 -5.3125e-4h27.164" fill="none" stroke="#000" stroke-miterlimit="10" stroke-width=".398"/>
<g>
<use x="314.328" y="127.227" xlink:href="#ag"/>
<use x="320.467294" y="127.227" xlink:href="#a"/>
<use x="324.566732" y="127.227" xlink:href="#c"/>
<use x="328.171225" y="127.227" xlink:href="#af"/>
<use x="330.731132" y="127.227" xlink:href="#ac"/>
<use x="335.850947" y="127.227" xlink:href="#h"/>
<use x="339.485925" y="127.227" xlink:href="#d"/>
<use x="215.579" y="135.223" xlink:href="#d"/>
<use x="219.16287" y="135.223" xlink:href="#j"/>
<use x="221.722777" y="135.223" xlink:href="#ad"/>
<use x="229.402499" y="135.223" xlink:href="#a"/>
<use x="233.501937" y="135.223" xlink:href="#ae"/>
<use x="238.10977" y="135.223" xlink:href="#ac"/>
<use x="243.229584" y="135.223" xlink:href="#d"/>
<use x="216.763" y="146.328" xlink:href="#c"/>
<use x="220.367493" y="146.328" xlink:href="#a"/>
<use x="224.466931" y="146.328" xlink:href="#h"/>
<use x="228.101909" y="146.328" xlink:href="#a"/>
<use x="232.201348" y="146.328" xlink:href="#b"/>
<use x="237.321162" y="146.328" xlink:href="#i"/>
<use x="245.516452" y="146.328" xlink:href="#f"/>
<use x="250.6273" y="146.328" xlink:href="#e"/>
<use x="255.235132" y="146.328" xlink:href="#g"/>
<use x="259.847449" y="146.328" xlink:href="#a"/>
<use x="263.946887" y="146.328" xlink:href="#d"/>
<use x="267.530757" y="146.328" xlink:href="#o"/>
<use x="215.579" y="209.848" xlink:href="#c"/>
<use x="219.183493" y="209.848" xlink:href="#a"/>
<use x="223.282931" y="209.848" xlink:href="#q"/>
<use x="227.378782" y="209.848" xlink:href="#a"/>
<use x="231.47822" y="209.848" xlink:href="#j"/>
<use x="234.038128" y="209.848" xlink:href="#p"/>
<use x="238.641477" y="209.848" xlink:href="#a"/>
<use x="245.816391" y="209.848" xlink:href="#n"/>
<use x="252.46677" y="209.848" xlink:href="#m"/>
<use x="259.122528" y="209.848" xlink:href="#l"/>
<use x="266.288475" y="209.848" xlink:href="#o"/>
<use x="215.579" y="219.62" xlink:href="#h"/>
<use x="219.213979" y="219.62" xlink:href="#a"/>
<use x="223.313417" y="219.62" xlink:href="#b"/>
<use x="228.433231" y="219.62" xlink:href="#i"/>
<use x="236.619554" y="219.62" xlink:href="#f"/>
<use x="241.739369" y="219.62" xlink:href="#e"/>
<use x="246.347202" y="219.62" xlink:href="#g"/>
<use x="250.959518" y="219.62" xlink:href="#a"/>
<use x="255.058956" y="219.62" xlink:href="#d"/>
<use x="258.642826" y="219.62" xlink:href="#k"/>
<use x="307.379" y="241.978" xlink:href="#c"/>
<use x="310.983493" y="241.978" xlink:href="#a"/>
<use x="315.082931" y="241.978" xlink:href="#q"/>
<use x="319.178782" y="241.978" xlink:href="#a"/>
<use x="323.27822" y="241.978" xlink:href="#j"/>
<use x="325.838128" y="241.978" xlink:href="#p"/>
<use x="330.441477" y="241.978" xlink:href="#a"/>
<use x="337.616391" y="241.978" xlink:href="#f"/>
<use x="342.736205" y="241.978" xlink:href="#e"/>
<use x="347.344038" y="241.978" xlink:href="#g"/>
<use x="351.947388" y="241.978" xlink:href="#a"/>
<use x="356.046826" y="241.978" xlink:href="#d"/>
<use x="359.630696" y="241.978" xlink:href="#k"/>
<use x="307.379" y="175.201" xlink:href="#c"/>
<use x="310.983493" y="175.201" xlink:href="#a"/>
<use x="315.082931" y="175.201" xlink:href="#q"/>
<use x="319.178782" y="175.201" xlink:href="#a"/>
<use x="323.27822" y="175.201" xlink:href="#j"/>
<use x="325.838128" y="175.201" xlink:href="#p"/>
<use x="330.441477" y="175.201" xlink:href="#a"/>
<use x="337.616391" y="175.201" xlink:href="#f"/>
<use x="342.736205" y="175.201" xlink:href="#e"/>
<use x="347.344038" y="175.201" xlink:href="#g"/>
<use x="351.947388" y="175.201" xlink:href="#a"/>
<use x="356.046826" y="175.201" xlink:href="#d"/>
<use x="359.630696" y="175.201" xlink:href="#o"/>
<use x="307.379" y="185.121" xlink:href="#h"/>
<use x="311.013979" y="185.121" xlink:href="#a"/>
<use x="315.113417" y="185.121" xlink:href="#b"/>
<use x="320.233231" y="185.121" xlink:href="#i"/>
<use x="328.428521" y="185.121" xlink:href="#n"/>
<use x="335.0789" y="185.121" xlink:href="#m"/>
<use x="341.734658" y="185.121" xlink:href="#l"/>
<use x="348.900605" y="185.121" xlink:href="#o"/>
<use x="307.379" y="251.75" xlink:href="#h"/>
<use x="311.013979" y="251.75" xlink:href="#a"/>
<use x="315.113417" y="251.75" xlink:href="#b"/>
<use x="320.233231" y="251.75" xlink:href="#i"/>
<use x="328.428521" y="251.75" xlink:href="#n"/>
<use x="335.0789" y="251.75" xlink:href="#m"/>
<use x="341.734658" y="251.75" xlink:href="#l"/>
<use x="348.900605" y="251.75" xlink:href="#k"/>
<use x="280.727" y="108.571" xlink:href="#u"/>
<use x="285.43175" y="108.571" xlink:href="#t"/>
<use x="289.666264" y="108.571" xlink:href="#s"/>
<use x="293.896793" y="108.571" xlink:href="#r"/>
<use x="297.660274" y="108.571" xlink:href="#w"/>
<use x="300.95352" y="108.571" xlink:href="#x"/>
<use x="280.727" y="41.942" xlink:href="#u"/>
<use x="285.43175" y="41.942" xlink:href="#t"/>
<use x="289.666264" y="41.942" xlink:href="#s"/>
<use x="293.896793" y="41.942" xlink:href="#r"/>
<use x="297.660274" y="41.942" xlink:href="#w"/>
<use x="300.95352" y="41.942" xlink:href="#v"/>
<use x="280.727" y="151.214" xlink:href="#u"/>
<use x="285.43175" y="151.214" xlink:href="#t"/>
<use x="289.666264" y="151.214" xlink:href="#s"/>
<use x="293.896793" y="151.214" xlink:href="#r"/>
<use x="297.660274" y="151.214" xlink:href="#w"/>
<use x="300.95352" y="151.214" xlink:href="#x"/>
<use x="272.732" y="73.924" xlink:href="#aa"/>
<use x="278.843473" y="73.924" xlink:href="#z"/>
<use x="284.951757" y="73.924" xlink:href="#y"/>
<use x="291.530278" y="73.924" xlink:href="#v"/>
<use x="272.732" y="189.859" xlink:href="#aa"/>
<use x="278.843473" y="189.859" xlink:href="#z"/>
<use x="284.951757" y="189.859" xlink:href="#y"/>
<use x="291.530278" y="189.859" xlink:href="#x"/>
<use x="280.727" y="221.841" xlink:href="#u"/>
<use x="285.43175" y="221.841" xlink:href="#t"/>
<use x="289.666264" y="221.841" xlink:href="#s"/>
<use x="293.896793" y="221.841" xlink:href="#r"/>
<use x="297.660274" y="221.841" xlink:href="#w"/>
<use x="300.95352" y="221.841" xlink:href="#v"/>
<use x="271.399" y="256.488" xlink:href="#aa"/>
<use x="277.510473" y="256.488" xlink:href="#z"/>
<use x="283.626727" y="256.488" xlink:href="#y"/>
<use x="290.197278" y="256.488" xlink:href="#v"/>
<use x="99.495" y="534.111" xlink:href="#ar"/>
<use x="103.07887" y="534.111" xlink:href="#aq"/>
<use x="110.117494" y="534.111" xlink:href="#ac"/>
<use x="115.237308" y="534.111" xlink:href="#f"/>
<use x="120.357123" y="534.111" xlink:href="#af"/>
<use x="122.91703" y="534.111" xlink:href="#j"/>
<use x="125.476937" y="534.111" xlink:href="#g"/>
<use x="129.829228" y="534.111" xlink:href="#e"/>
<use x="134.437061" y="534.111" xlink:href="#d"/>
<use x="141.08744" y="534.111" xlink:href="#a"/>
<use x="145.186878" y="534.111" xlink:href="#c"/>
<use x="148.791371" y="534.111" xlink:href="#g"/>
<use x="153.143661" y="534.111" xlink:href="#e"/>
<use x="157.751494" y="534.111" xlink:href="#b"/>
<use x="162.871308" y="534.111" xlink:href="#b"/>
<use x="167.740064" y="534.111" xlink:href="#d"/>
<use x="171.323934" y="534.111" xlink:href="#ap"/>
<use x="99.495" y="543.587" xlink:href="#h"/>
<use x="103.129979" y="543.587" xlink:href="#a"/>
<use x="107.229417" y="543.587" xlink:href="#b"/>
<use x="112.349231" y="543.587" xlink:href="#i"/>
<use x="120.544521" y="543.587" xlink:href="#n"/>
<use x="127.1949" y="543.587" xlink:href="#m"/>
<use x="133.850658" y="543.587" xlink:href="#l"/>
<use x="141.016605" y="543.587" xlink:href="#o"/>
<use x="99.495" y="524.339" xlink:href="#c"/>
<use x="103.099493" y="524.339" xlink:href="#a"/>
<use x="107.198931" y="524.339" xlink:href="#q"/>
<use x="111.294782" y="524.339" xlink:href="#a"/>
<use x="115.39422" y="524.339" xlink:href="#j"/>
<use x="117.954128" y="524.339" xlink:href="#p"/>
<use x="122.557477" y="524.339" xlink:href="#a"/>
<use x="129.732391" y="524.339" xlink:href="#f"/>
<use x="134.852205" y="524.339" xlink:href="#e"/>
<use x="139.460038" y="524.339" xlink:href="#g"/>
<use x="144.063388" y="524.339" xlink:href="#a"/>
<use x="148.162826" y="524.339" xlink:href="#d"/>
<use x="151.746696" y="524.339" xlink:href="#o"/>
<use x="307.379" y="502.129" xlink:href="#ar"/>
<use x="310.96287" y="502.129" xlink:href="#aq"/>
<use x="318.001494" y="502.129" xlink:href="#ac"/>
<use x="323.121308" y="502.129" xlink:href="#f"/>
<use x="328.241123" y="502.129" xlink:href="#af"/>
<use x="330.80103" y="502.129" xlink:href="#j"/>
<use x="333.360937" y="502.129" xlink:href="#g"/>
<use x="337.713228" y="502.129" xlink:href="#e"/>
<use x="342.321061" y="502.129" xlink:href="#d"/>
<use x="348.97144" y="502.129" xlink:href="#a"/>
<use x="353.070878" y="502.129" xlink:href="#c"/>
<use x="356.675371" y="502.129" xlink:href="#g"/>
<use x="361.027661" y="502.129" xlink:href="#e"/>
<use x="365.635494" y="502.129" xlink:href="#b"/>
<use x="370.755308" y="502.129" xlink:href="#b"/>
<use x="375.624064" y="502.129" xlink:href="#d"/>
<use x="379.207934" y="502.129" xlink:href="#ap"/>
<use x="307.379" y="511.605" xlink:href="#h"/>
<use x="311.013979" y="511.605" xlink:href="#a"/>
<use x="315.113417" y="511.605" xlink:href="#b"/>
<use x="320.233231" y="511.605" xlink:href="#i"/>
<use x="328.428521" y="511.605" xlink:href="#n"/>
<use x="335.0789" y="511.605" xlink:href="#m"/>
<use x="341.734658" y="511.605" xlink:href="#l"/>
<use x="348.900605" y="511.605" xlink:href="#o"/>
<use x="307.379" y="492.357" xlink:href="#c"/>
<use x="310.983493" y="492.357" xlink:href="#a"/>
<use x="315.082931" y="492.357" xlink:href="#q"/>
<use x="319.178782" y="492.357" xlink:href="#a"/>
<use x="323.27822" y="492.357" xlink:href="#j"/>
<use x="325.838128" y="492.357" xlink:href="#p"/>
<use x="330.441477" y="492.357" xlink:href="#a"/>
<use x="337.616391" y="492.357" xlink:href="#f"/>
<use x="342.736205" y="492.357" xlink:href="#e"/>
<use x="347.344038" y="492.357" xlink:href="#g"/>
<use x="351.947388" y="492.357" xlink:href="#a"/>
<use x="356.046826" y="492.357" xlink:href="#d"/>
<use x="359.630696" y="492.357" xlink:href="#o"/>
</g>
</svg>
