<svg width="336pt" height="151pt" version="1.1" viewBox="0 0 336 151" xmlns="http://www.w3.org/2000/svg" xmlns:xlink="http://www.w3.org/1999/xlink">
<defs>
<g id="af">
<path d="m2.25-6.0312c0-0.35938 0.015625-0.46875 0.8125-0.46875h0.25v-0.3125c-0.34375 0.03125-1.125 0.03125-1.5156 0.03125-0.375 0-1.1719 0-1.5156-0.03125v0.3125h0.25c0.79688 0 0.82812 0.10938 0.82812 0.46875v5.25c0 0.35938-0.03125 0.46875-0.82812 0.46875h-0.25v0.3125c0.34375-0.03125 1.1406-0.03125 1.5156-0.03125 0.39062 0 1.1719 0 1.5156 0.03125v-0.3125h-0.25c-0.79688 0-0.8125-0.10938-0.8125-0.46875z"/>
</g>
<g id="c">
<path d="m1.0938-3.4219v2.6719c0 0.4375-0.10938 0.4375-0.78125 0.4375v0.3125c0.35938-0.015625 0.85938-0.03125 1.1406-0.03125 0.25 0 0.76562 0.015625 1.1094 0.03125v-0.3125c-0.67188 0-0.78125 0-0.78125-0.4375v-1.8438c0-1.0312 0.71875-1.5938 1.3438-1.5938 0.64062 0 0.75 0.53125 0.75 1.1094v2.3281c0 0.4375-0.10938 0.4375-0.78125 0.4375v0.3125c0.34375-0.015625 0.85938-0.03125 1.125-0.03125 0.25 0 0.78125 0.015625 1.1094 0.03125v-0.3125c-0.51562 0-0.76562 0-0.76562-0.29688v-1.9062c0-0.85938 0-1.1562-0.3125-1.5156-0.14062-0.17188-0.46875-0.375-1.0469-0.375-0.73438 0-1.2031 0.42188-1.4844 1.0469v-1.0469l-1.4062 0.10938v0.3125c0.70312 0 0.78125 0.0625 0.78125 0.5625z"/>
</g>
<g id="b">
<path d="m1.7188-3.9844h1.4375v-0.3125h-1.4375v-1.8281h-0.25c0 0.8125-0.29688 1.875-1.2812 1.9219v0.21875h0.84375v2.75c0 1.2188 0.9375 1.3438 1.2969 1.3438 0.70312 0 0.98438-0.70312 0.98438-1.3438v-0.5625h-0.25v0.54688c0 0.73438-0.29688 1.1094-0.67188 1.1094-0.67188 0-0.67188-0.90625-0.67188-1.0781z"/>
</g>
<g id="a">
<path d="m1.1094-2.5156c0.0625-1.4844 0.90625-1.7344 1.25-1.7344 1.0156 0 1.125 1.3438 1.125 1.7344zm0 0.21875h2.7812c0.21875 0 0.25 0 0.25-0.21875 0-0.98438-0.54688-1.9531-1.7812-1.9531-1.1562 0-2.0781 1.0312-2.0781 2.2812 0 1.3281 1.0469 2.2969 2.1875 2.2969 1.2188 0 1.6719-1.1094 1.6719-1.2969 0-0.09375-0.078125-0.125-0.14062-0.125-0.078125 0-0.10938 0.0625-0.125 0.14062-0.34375 1.0312-1.25 1.0312-1.3438 1.0312-0.5 0-0.89062-0.29688-1.125-0.67188-0.29688-0.46875-0.29688-1.125-0.29688-1.4844z"/>
</g>
<g id="d">
<path d="m1.6719-3.3125v-1.0938l-1.3906 0.10938v0.3125c0.70312 0 0.78125 0.0625 0.78125 0.5625v2.6719c0 0.4375-0.10938 0.4375-0.78125 0.4375v0.3125c0.39062-0.015625 0.85938-0.03125 1.1406-0.03125 0.39062 0 0.85938 0 1.2656 0.03125v-0.3125h-0.21875c-0.73438 0-0.75-0.10938-0.75-0.46875v-1.5312c0-0.98438 0.42188-1.875 1.1719-1.875 0.0625 0 0.09375 0 0.10938 0.015625-0.03125 0-0.23438 0.125-0.23438 0.39062s0.21875 0.42188 0.4375 0.42188c0.17188 0 0.42188-0.125 0.42188-0.4375s-0.3125-0.60938-0.73438-0.60938c-0.73438 0-1.0938 0.67188-1.2188 1.0938z"/>
</g>
<g id="i">
<path d="m2.2656-3.1562h1.6875c1.1875 0 2.2656-0.79688 2.2656-1.7969 0-0.98438-0.98438-1.8594-2.3438-1.8594h-3.5312v0.3125h0.25c0.76562 0 0.78125 0.10938 0.78125 0.46875v5.25c0 0.35938-0.015625 0.46875-0.78125 0.46875h-0.25v0.3125c0.35938-0.03125 1.0938-0.03125 1.4688-0.03125s1.125 0 1.4844 0.03125v-0.3125h-0.25c-0.76562 0-0.78125-0.10938-0.78125-0.46875zm-0.03125-0.25v-2.6875c0-0.34375 0.015625-0.40625 0.48438-0.40625h0.89062c1.5781 0 1.5781 1.0625 1.5781 1.5469 0 0.46875 0 1.5469-1.5781 1.5469z"/>
</g>
<g id="f">
<path d="m4.6875-2.1406c0-1.2656-0.98438-2.3281-2.1875-2.3281-1.25 0-2.2188 1.0938-2.2188 2.3281 0 1.2969 1.0312 2.25 2.2031 2.25 1.2031 0 2.2031-0.98438 2.2031-2.25zm-2.1875 2c-0.4375 0-0.875-0.20312-1.1406-0.67188-0.25-0.4375-0.25-1.0469-0.25-1.4062 0-0.39062 0-0.92188 0.23438-1.3594 0.26562-0.45312 0.73438-0.67188 1.1406-0.67188 0.4375 0 0.85938 0.21875 1.125 0.65625 0.26562 0.42188 0.26562 1 0.26562 1.375 0 0.35938 0 0.90625-0.21875 1.3438-0.23438 0.45312-0.67188 0.73438-1.1562 0.73438z"/>
</g>
<g id="p">
<path d="m3.8906-4c0.09375-0.10938 0.09375-0.125 0.09375-0.17188 0-0.125-0.09375-0.125-0.26562-0.125h-3.1875l-0.10938 1.6094h0.25c0.0625-1.0156 0.25-1.3906 1.3438-1.3906h1.1406l-2.7812 3.7656c-0.09375 0.10938-0.09375 0.125-0.09375 0.17188 0 0.14062 0.0625 0.14062 0.25 0.14062h3.2969l0.17188-1.8594h-0.25c-0.09375 1.1719-0.29688 1.6094-1.4531 1.6094h-1.1875z"/>
</g>
<g id="e">
<path d="m2.0781-1.9375c0.21875 0.046875 1.0312 0.20312 1.0312 0.92188 0 0.5-0.34375 0.90625-1.125 0.90625-0.84375 0-1.2031-0.5625-1.3906-1.4219-0.03125-0.125-0.03125-0.15625-0.14062-0.15625-0.125 0-0.125 0.0625-0.125 0.23438v1.3281c0 0.17188 0 0.23438 0.10938 0.23438 0.046875 0 0.0625-0.015625 0.25-0.20312 0.015625-0.015625 0.015625-0.03125 0.20312-0.21875 0.4375 0.40625 0.89062 0.42188 1.0938 0.42188 1.1406 0 1.6094-0.67188 1.6094-1.3906 0-0.51562-0.29688-0.82812-0.42188-0.9375-0.32812-0.32812-0.71875-0.40625-1.1406-0.48438-0.5625-0.10938-1.2188-0.23438-1.2188-0.8125 0-0.35938 0.25-0.76562 1.1094-0.76562 1.0938 0 1.1562 0.90625 1.1719 1.2031 0 0.09375 0.09375 0.09375 0.10938 0.09375 0.14062 0 0.14062-0.046875 0.14062-0.23438v-1.0156c0-0.15625 0-0.23438-0.10938-0.23438-0.046875 0-0.078125 0-0.20312 0.125-0.03125 0.03125-0.125 0.125-0.17188 0.15625-0.375-0.28125-0.78125-0.28125-0.9375-0.28125-1.2188 0-1.5938 0.67188-1.5938 1.2344 0 0.34375 0.15625 0.625 0.42188 0.84375 0.32812 0.25 0.60938 0.3125 1.3281 0.45312z"/>
</g>
<g id="y">
<path d="m6.6406-6.75h-6.0938l-0.1875 2.25h0.25c0.14062-1.6094 0.28125-1.9375 1.7969-1.9375 0.17188 0 0.4375 0 0.53125 0.015625 0.21875 0.046875 0.21875 0.15625 0.21875 0.375v5.2656c0 0.32812 0 0.46875-1.0469 0.46875h-0.40625v0.3125c0.40625-0.03125 1.4219-0.03125 1.8906-0.03125 0.45312 0 1.4844 0 1.8906 0.03125v-0.3125h-0.40625c-1.0469 0-1.0469-0.14062-1.0469-0.46875v-5.2656c0-0.1875 0-0.32812 0.1875-0.375 0.10938-0.015625 0.375-0.015625 0.5625-0.015625 1.5156 0 1.6562 0.32812 1.7969 1.9375h0.25z"/>
</g>
<g id="x">
<path d="m0.5625-3.4062c0 2.0625 1.6094 3.625 3.4688 3.625 1.625 0 2.5938-1.3906 2.5938-2.5469 0-0.09375 0-0.17188-0.125-0.17188-0.10938 0-0.10938 0.0625-0.125 0.17188-0.078125 1.4219-1.1406 2.2344-2.2344 2.2344-0.60938 0-2.5625-0.32812-2.5625-3.3125 0-2.9688 1.9531-3.3125 2.5625-3.3125 1.0781 0 1.9688 0.90625 2.1719 2.3594 0.015625 0.14062 0.015625 0.17188 0.15625 0.17188 0.15625 0 0.15625-0.03125 0.15625-0.23438v-2.3594c0-0.17188 0-0.25-0.10938-0.25-0.03125 0-0.078125 0-0.15625 0.125l-0.5 0.73438c-0.35938-0.35938-0.875-0.85938-1.8281-0.85938-1.875 0-3.4688 1.5938-3.4688 3.625z"/>
</g>
<g id="o">
<path d="m1.0938-3.4219v2.6719c0 0.4375-0.10938 0.4375-0.78125 0.4375v0.3125c0.35938-0.015625 0.85938-0.03125 1.1406-0.03125 0.25 0 0.76562 0.015625 1.1094 0.03125v-0.3125c-0.67188 0-0.78125 0-0.78125-0.4375v-1.8438c0-1.0312 0.71875-1.5938 1.3438-1.5938 0.64062 0 0.75 0.53125 0.75 1.1094v2.3281c0 0.4375-0.10938 0.4375-0.78125 0.4375v0.3125c0.34375-0.015625 0.85938-0.03125 1.125-0.03125 0.25 0 0.78125 0.015625 1.1094 0.03125v-0.3125c-0.65625 0-0.76562 0-0.76562-0.4375v-1.8438c0-1.0312 0.70312-1.5938 1.3438-1.5938 0.625 0 0.73438 0.53125 0.73438 1.1094v2.3281c0 0.4375-0.10938 0.4375-0.78125 0.4375v0.3125c0.34375-0.015625 0.85938-0.03125 1.125-0.03125s0.78125 0.015625 1.125 0.03125v-0.3125c-0.51562 0-0.76562 0-0.78125-0.29688v-1.9062c0-0.85938 0-1.1562-0.3125-1.5156-0.14062-0.17188-0.46875-0.375-1.0469-0.375-0.82812 0-1.2812 0.59375-1.4375 0.98438-0.14062-0.875-0.875-0.98438-1.3281-0.98438-0.73438 0-1.2031 0.42188-1.4844 1.0469v-1.0469l-1.4062 0.10938v0.3125c0.70312 0 0.78125 0.0625 0.78125 0.5625z"/>
</g>
<g id="g">
<path d="m1.7656-4.4062-1.3906 0.10938v0.3125c0.64062 0 0.73438 0.0625 0.73438 0.54688v2.6875c0 0.4375-0.10938 0.4375-0.78125 0.4375v0.3125c0.3125-0.015625 0.85938-0.03125 1.0938-0.03125 0.35938 0 0.70312 0.015625 1.0469 0.03125v-0.3125c-0.67188 0-0.70312-0.046875-0.70312-0.4375zm0.03125-1.7344c0-0.3125-0.23438-0.53125-0.51562-0.53125-0.3125 0-0.53125 0.26562-0.53125 0.53125s0.21875 0.53125 0.53125 0.53125c0.28125 0 0.51562-0.21875 0.51562-0.53125z"/>
</g>
<g id="n">
<path d="m3.8906-0.78125v0.89062l1.4375-0.10938v-0.3125c-0.6875 0-0.76562-0.0625-0.76562-0.5625v-3.5312l-1.4688 0.10938v0.3125c0.6875 0 0.78125 0.0625 0.78125 0.5625v1.7656c0 0.875-0.48438 1.5469-1.2188 1.5469-0.82812 0-0.875-0.46875-0.875-0.98438v-3.3125l-1.4688 0.10938v0.3125c0.78125 0 0.78125 0.03125 0.78125 0.90625v1.5c0 0.78125 0 1.6875 1.5156 1.6875 0.5625 0 1-0.28125 1.2812-0.89062z"/>
</g>
<g id="w">
<path d="m4.4688-3.9844h1.1406v-0.3125h-1.1719v-1.1562c0-0.89062 0.48438-1.3594 0.92188-1.3594 0.03125 0 0.1875 0 0.32812 0.078125-0.10938 0.03125-0.29688 0.17188-0.29688 0.42188 0 0.21875 0.15625 0.42188 0.4375 0.42188s0.4375-0.20312 0.4375-0.4375c0-0.35938-0.35938-0.70312-0.90625-0.70312-0.59375 0-1.0312 0.375-1.0781 0.42188-0.29688-0.375-0.85938-0.42188-1.125-0.42188-0.9375 0-2.0938 0.51562-2.0938 1.5938v1.1406h-0.79688v0.3125h0.79688v3.2344c0 0.4375-0.10938 0.4375-0.78125 0.4375v0.3125c0.32812-0.015625 0.85938-0.03125 1.1094-0.03125s0.73438 0.015625 1.1094 0.03125v-0.3125c-0.67188 0-0.78125 0-0.78125-0.4375v-3.2344h2.0938v3.2344c0 0.4375-0.10938 0.4375-0.78125 0.4375v0.3125c0.39062-0.015625 0.85938-0.03125 1.1406-0.03125 0.39062 0 0.85938 0 1.2656 0.03125v-0.3125h-0.21875c-0.73438 0-0.75-0.10938-0.75-0.46875zm-2.7812-0.3125v-1.125c0-0.96875 0.8125-1.3906 1.4688-1.3906 0.48438 0 0.76562 0.1875 0.76562 0.1875v0.015625c-0.15625 0.015625-0.35938 0.15625-0.35938 0.42188 0 0.0625 0 0.3125 0.28125 0.40625-0.03125 0.125-0.03125 0.21875-0.03125 0.34375v1.1406z"/>
</g>
<g id="v">
<path d="m2.0312-0.015625c0-0.625-0.25-1.0469-0.64062-1.0469-0.35938 0-0.53125 0.28125-0.53125 0.53125 0 0.26562 0.17188 0.53125 0.53125 0.53125 0.15625 0 0.28125-0.0625 0.375-0.14062l0.015625-0.015625c0.015625 0 0.015625 0 0.015625 0.14062 0 0.64062-0.26562 1.25-0.70312 1.7188-0.0625 0.0625-0.078125 0.078125-0.078125 0.10938 0 0.078125 0.046875 0.10938 0.09375 0.10938 0.125 0 0.92188-0.78125 0.92188-1.9375z"/>
</g>
<g id="u">
<path d="m6.1875-5.8281c0.14062-0.375 0.40625-0.65625 1.0938-0.67188v-0.3125c-0.3125 0.03125-0.71875 0.03125-0.96875 0.03125-0.29688 0-0.875-0.015625-1.1406-0.03125v0.3125c0.51562 0.015625 0.73438 0.26562 0.73438 0.5 0 0.078125-0.03125 0.14062-0.046875 0.20312l-1.8281 4.7969-1.9062-5.0312c-0.0625-0.14062-0.0625-0.15625-0.0625-0.17188 0-0.29688 0.5625-0.29688 0.8125-0.29688v-0.3125c-0.35938 0.03125-1.0469 0.03125-1.4219 0.03125-0.46875 0-0.90625-0.015625-1.2656-0.03125v0.3125c0.65625 0 0.84375 0 0.98438 0.375l2.3125 6.125c0.0625 0.1875 0.10938 0.21875 0.25 0.21875 0.15625 0 0.1875-0.046875 0.23438-0.1875z"/>
</g>
<g id="k">
<path d="m3.3125-0.75c0.046875 0.39062 0.3125 0.8125 0.78125 0.8125 0.21875 0 0.82812-0.14062 0.82812-0.95312v-0.5625h-0.25v0.5625c0 0.57812-0.25 0.64062-0.35938 0.64062-0.32812 0-0.375-0.45312-0.375-0.5v-1.9844c0-0.42188 0-0.8125-0.35938-1.1875-0.39062-0.39062-0.89062-0.54688-1.3594-0.54688-0.82812 0-1.5156 0.46875-1.5156 1.125 0 0.29688 0.20312 0.46875 0.46875 0.46875 0.28125 0 0.45312-0.20312 0.45312-0.45312 0-0.125-0.046875-0.45312-0.51562-0.45312 0.28125-0.35938 0.76562-0.46875 1.0781-0.46875 0.5 0 1.0625 0.39062 1.0625 1.2812v0.35938c-0.51562 0.03125-1.2031 0.0625-1.8281 0.35938-0.75 0.34375-1 0.85938-1 1.2969 0 0.8125 0.96875 1.0625 1.5938 1.0625 0.65625 0 1.1094-0.40625 1.2969-0.85938zm-0.0625-1.6406v1c0 0.9375-0.71875 1.2812-1.1719 1.2812-0.48438 0-0.89062-0.34375-0.89062-0.84375 0-0.54688 0.42188-1.375 2.0625-1.4375z"/>
</g>
<g id="j">
<path d="m1.7188-3.7656v-3.1562l-1.4375 0.10938v0.3125c0.70312 0 0.78125 0.0625 0.78125 0.5625v5.9375h0.25c0-0.015625 0.078125-0.15625 0.35938-0.625 0.14062 0.23438 0.5625 0.73438 1.2969 0.73438 1.1875 0 2.2188-0.98438 2.2188-2.2656 0-1.2656-0.96875-2.25-2.1094-2.25-0.78125 0-1.2031 0.46875-1.3594 0.64062zm0.03125 2.625v-2.0469c0-0.1875 0-0.20312 0.10938-0.35938 0.39062-0.5625 0.9375-0.64062 1.1719-0.64062 0.45312 0 0.8125 0.26562 1.0469 0.64062 0.26562 0.40625 0.28125 0.96875 0.28125 1.3906 0 0.35938-0.015625 0.95312-0.29688 1.4062-0.21875 0.3125-0.59375 0.64062-1.125 0.64062-0.45312 0-0.8125-0.23438-1.0469-0.60938-0.14062-0.20312-0.14062-0.23438-0.14062-0.42188z"/>
</g>
<g id="h">
<path d="m1.7656-6.9219-1.4375 0.10938v0.3125c0.70312 0 0.78125 0.0625 0.78125 0.5625v5.1875c0 0.4375-0.10938 0.4375-0.78125 0.4375v0.3125c0.32812-0.015625 0.85938-0.03125 1.1094-0.03125s0.73438 0.015625 1.1094 0.03125v-0.3125c-0.67188 0-0.78125 0-0.78125-0.4375z"/>
</g>
<g id="t">
<path d="m6.1094-6.0312c0-0.35938 0.015625-0.46875 0.78125-0.46875h0.25v-0.3125c-0.35938 0.03125-1.0938 0.03125-1.4688 0.03125s-1.125 0-1.4688-0.03125v0.3125h0.23438c0.76562 0 0.78125 0.10938 0.78125 0.46875v2.3281h-2.9688v-2.3281c0-0.35938 0.015625-0.46875 0.78125-0.46875h0.23438v-0.3125c-0.34375 0.03125-1.0781 0.03125-1.4688 0.03125-0.375 0-1.125 0-1.4688-0.03125v0.3125h0.23438c0.76562 0 0.79688 0.10938 0.79688 0.46875v5.25c0 0.35938-0.03125 0.46875-0.79688 0.46875h-0.23438v0.3125c0.34375-0.03125 1.0938-0.03125 1.4688-0.03125s1.125 0 1.4688 0.03125v-0.3125h-0.23438c-0.76562 0-0.78125-0.10938-0.78125-0.46875v-2.6094h2.9688v2.6094c0 0.35938-0.015625 0.46875-0.78125 0.46875h-0.23438v0.3125c0.34375-0.03125 1.0781-0.03125 1.4531-0.03125 0.39062 0 1.125 0 1.4844 0.03125v-0.3125h-0.25c-0.76562 0-0.78125-0.10938-0.78125-0.46875z"/>
</g>
<g id="s">
<path d="m3.4844-3.875-1.2812-0.29688c-0.625-0.15625-1-0.6875-1-1.2656 0-0.70312 0.53125-1.3125 1.3125-1.3125 1.6562 0 1.875 1.6406 1.9375 2.0781 0.015625 0.0625 0.015625 0.125 0.125 0.125 0.125 0 0.125-0.046875 0.125-0.23438v-2c0-0.17188 0-0.25-0.10938-0.25-0.0625 0-0.078125 0.015625-0.14062 0.14062l-0.35938 0.5625c-0.29688-0.29688-0.70312-0.70312-1.5938-0.70312-1.1094 0-1.9375 0.875-1.9375 1.9375 0 0.82812 0.53125 1.5625 1.2969 1.8281 0.10938 0.03125 0.625 0.15625 1.3281 0.32812 0.26562 0.0625 0.5625 0.14062 0.84375 0.5 0.20312 0.26562 0.3125 0.59375 0.3125 0.92188 0 0.70312-0.5 1.4219-1.3438 1.4219-0.28125 0-1.0469-0.046875-1.5781-0.53125-0.57812-0.54688-0.60938-1.1719-0.60938-1.5312-0.015625-0.10938-0.09375-0.10938-0.125-0.10938-0.125 0-0.125 0.078125-0.125 0.25v2c0 0.17188 0 0.23438 0.10938 0.23438 0.0625 0 0.078125-0.015625 0.14062-0.125 0-0.015625 0.03125-0.046875 0.35938-0.57812 0.3125 0.34375 0.95312 0.70312 1.8438 0.70312 1.1562 0 1.9531-0.96875 1.9531-2.0781 0-0.98438-0.65625-1.8125-1.4844-2.0156z"/>
</g>
<g id="m">
<path d="m1.1719-2.1719c0-1.625 0.8125-2.0469 1.3438-2.0469 0.09375 0 0.71875 0.015625 1.0625 0.375-0.40625 0.03125-0.46875 0.32812-0.46875 0.45312 0 0.26562 0.1875 0.45312 0.45312 0.45312s0.46875-0.15625 0.46875-0.46875c0-0.67188-0.76562-1.0625-1.5312-1.0625-1.25 0-2.1562 1.0781-2.1562 2.3125 0 1.2812 0.98438 2.2656 2.1406 2.2656 1.3281 0 1.6562-1.2031 1.6562-1.2969s-0.10938-0.09375-0.14062-0.09375c-0.078125 0-0.10938 0.03125-0.125 0.09375-0.28125 0.92188-0.9375 1.0469-1.2969 1.0469-0.53125 0-1.4062-0.42188-1.4062-2.0312z"/>
</g>
<g id="l">
<path d="m1.0625-0.75c0 0.4375-0.10938 0.4375-0.78125 0.4375v0.3125c0.32812-0.015625 0.79688-0.03125 1.0781-0.03125 0.3125 0 0.70312 0.015625 1.1094 0.03125v-0.3125c-0.67188 0-0.78125 0-0.78125-0.4375v-1.0312l0.64062-0.54688c0.76562 1.0469 1.1875 1.6094 1.1875 1.7969s-0.17188 0.21875-0.35938 0.21875v0.3125c0.26562-0.015625 0.85938-0.03125 1.0781-0.03125 0.28125 0 0.57812 0.015625 0.85938 0.03125v-0.3125c-0.375 0-0.59375 0-0.96875-0.53125l-1.2656-1.7812c-0.015625-0.015625-0.0625-0.078125-0.0625-0.10938s0.71875-0.64062 0.8125-0.71875c0.625-0.5 1.0469-0.53125 1.25-0.53125v-0.3125c-0.28125 0.03125-0.40625 0.03125-0.6875 0.03125-0.35938 0-0.98438-0.015625-1.125-0.03125v0.3125c0.1875 0 0.29688 0.10938 0.29688 0.25 0 0.20312-0.14062 0.3125-0.21875 0.39062l-1.4062 1.2031v-4.7812l-1.4375 0.10938v0.3125c0.70312 0 0.78125 0.0625 0.78125 0.5625z"/>
</g>
<g id="r">
<path d="m3.9844-4.1719 1.7969-1.7344c0.078125-0.078125 0.60938-0.57812 1.4219-0.59375v-0.3125c-0.26562 0.03125-0.57812 0.03125-0.85938 0.03125-0.35938 0-0.92188 0-1.2656-0.03125v0.3125c0.40625 0.015625 0.46875 0.23438 0.46875 0.32812 0 0.15625-0.10938 0.26562-0.1875 0.32812l-3.1094 2.9844v-3.1719c0-0.35938 0.015625-0.46875 0.78125-0.46875h0.23438v-0.3125c-0.34375 0.03125-1.0781 0.03125-1.4688 0.03125-0.375 0-1.125 0-1.4688-0.03125v0.3125h0.23438c0.76562 0 0.79688 0.10938 0.79688 0.46875v5.25c0 0.35938-0.03125 0.46875-0.79688 0.46875h-0.23438v0.3125c0.34375-0.03125 1.0938-0.03125 1.4688-0.03125s1.125 0 1.4688 0.03125v-0.3125h-0.23438c-0.76562 0-0.78125-0.10938-0.78125-0.46875v-1.7344l1.1562-1.1094 1.7969 2.6719c0.0625 0.09375 0.15625 0.21875 0.15625 0.34375 0 0.29688-0.39062 0.29688-0.59375 0.29688v0.3125c0.34375-0.03125 1.0469-0.03125 1.4219-0.03125 0.35938 0 0.73438 0.015625 1.1562 0.03125v-0.3125c-0.54688 0-0.75-0.03125-1.0469-0.46875z"/>
</g>
<g id="ae">
<path d="m2.2188-3.6562v-2.4375c0-0.34375 0.015625-0.40625 0.48438-0.40625h1.2344c0.96875 0 1.3125 0.84375 1.3125 1.375 0 0.64062-0.48438 1.4688-1.5938 1.4688zm2.3438 0.09375c0.96875-0.1875 1.6562-0.82812 1.6562-1.5625 0-0.85938-0.92188-1.6875-2.2188-1.6875h-3.6406v0.3125h0.23438c0.76562 0 0.79688 0.10938 0.79688 0.46875v5.25c0 0.35938-0.03125 0.46875-0.79688 0.46875h-0.23438v0.3125h3.9062c1.3281 0 2.2188-0.89062 2.2188-1.8281 0-0.85938-0.8125-1.6094-1.9219-1.7344zm-0.60938 3.25h-1.25c-0.46875 0-0.48438-0.0625-0.48438-0.39062v-2.7188h1.875c0.98438 0 1.4062 0.92188 1.4062 1.5938 0 0.70312-0.53125 1.5156-1.5469 1.5156z"/>
</g>
<g id="ad">
<path d="m4.1406-3.3438c0.25-0.64062 0.76562-0.64062 0.92188-0.64062v-0.3125c-0.23438 0.015625-0.51562 0.03125-0.75 0.03125-0.17188 0-0.64062-0.015625-0.85938-0.03125v0.3125c0.3125 0 0.46875 0.17188 0.46875 0.42188 0 0.10938-0.015625 0.125-0.0625 0.25l-1.0156 2.4375-1.0938-2.6719c-0.046875-0.10938-0.0625-0.14062-0.0625-0.1875 0-0.25 0.35938-0.25 0.5625-0.25v-0.3125c-0.26562 0.015625-0.92188 0.03125-1.0938 0.03125-0.26562 0-0.67188-0.015625-0.96875-0.03125v0.3125c0.48438 0 0.67188 0 0.8125 0.34375l1.5 3.6406c-0.0625 0.125-0.20312 0.45312-0.25 0.59375-0.21875 0.54688-0.5 1.2344-1.1406 1.2344-0.046875 0-0.28125 0-0.46875-0.1875 0.3125-0.03125 0.39062-0.25 0.39062-0.42188 0-0.25-0.1875-0.40625-0.42188-0.40625-0.20312 0-0.42188 0.125-0.42188 0.42188 0 0.45312 0.42188 0.8125 0.92188 0.8125 0.625 0 1.0312-0.57812 1.2656-1.1406z"/>
</g>
<g id="ac">
<path d="m3.9688-6.9375c-0.046875-0.125-0.078125-0.20312-0.23438-0.20312s-0.1875 0.0625-0.23438 0.20312l-2.0625 5.9531c-0.1875 0.51562-0.57812 0.67188-1.125 0.67188v0.3125c0.23438-0.015625 0.67188-0.03125 1.0156-0.03125 0.3125 0 0.82812 0.015625 1.1562 0.03125v-0.3125c-0.5 0-0.75-0.25-0.75-0.5 0-0.03125 0.015625-0.14062 0.015625-0.15625l0.46875-1.2969h2.4531l0.53125 1.5156c0.015625 0.046875 0.03125 0.10938 0.03125 0.14062 0 0.29688-0.5625 0.29688-0.82812 0.29688v0.3125c0.35938-0.03125 1.0625-0.03125 1.4375-0.03125 0.42188 0 0.89062 0.015625 1.2969 0.03125v-0.3125h-0.17188c-0.59375 0-0.73438-0.0625-0.84375-0.39062zm-0.53125 1.1094 1.125 3.25h-2.2344z"/>
</g>
<g id="q">
<path d="m6.1719-3.3438c0.17188-0.5 0.48438-0.64062 0.84375-0.64062v-0.3125c-0.23438 0.015625-0.51562 0.03125-0.73438 0.03125-0.29688 0-0.73438-0.015625-0.92188-0.03125v0.3125c0.35938 0 0.57812 0.1875 0.57812 0.46875 0 0.0625 0 0.09375-0.0625 0.21875l-0.90625 2.5469-0.98438-2.7812c-0.03125-0.125-0.046875-0.14062-0.046875-0.1875 0-0.26562 0.39062-0.26562 0.59375-0.26562v-0.3125c-0.29688 0.015625-0.79688 0.03125-1.0469 0.03125-0.29688 0-0.57812-0.015625-0.875-0.03125v0.3125c0.35938 0 0.51562 0.015625 0.625 0.14062 0.046875 0.0625 0.15625 0.35938 0.21875 0.54688l-0.84375 2.4219-0.95312-2.6562c-0.046875-0.125-0.046875-0.14062-0.046875-0.1875 0-0.26562 0.39062-0.26562 0.57812-0.26562v-0.3125c-0.29688 0.015625-0.85938 0.03125-1.0781 0.03125-0.046875 0-0.57812-0.015625-0.9375-0.03125v0.3125c0.5 0 0.625 0.03125 0.75 0.34375l1.25 3.5312c0.046875 0.14062 0.078125 0.21875 0.20312 0.21875 0.14062 0 0.15625-0.0625 0.20312-0.20312l1.0156-2.8125 1.0156 2.8281c0.03125 0.10938 0.0625 0.1875 0.20312 0.1875 0.125 0 0.15625-0.09375 0.1875-0.1875z"/>
</g>
<g id="ab">
<path d="m3.7812-0.54688v0.65625l1.4688-0.10938v-0.3125c-0.6875 0-0.78125-0.0625-0.78125-0.5625v-6.0469l-1.4219 0.10938v0.3125c0.6875 0 0.76562 0.0625 0.76562 0.5625v2.1562c-0.28125-0.35938-0.71875-0.625-1.25-0.625-1.1719 0-2.2188 0.98438-2.2188 2.2656 0 1.2656 0.96875 2.25 2.1094 2.25 0.64062 0 1.0781-0.34375 1.3281-0.65625zm0-2.6719v2.0469c0 0.17188 0 0.1875-0.10938 0.35938-0.29688 0.48438-0.73438 0.70312-1.1719 0.70312-0.45312 0-0.8125-0.26562-1.0469-0.64062-0.25-0.40625-0.28125-0.96875-0.28125-1.3906 0-0.35938 0.015625-0.95312 0.29688-1.4062 0.21875-0.3125 0.59375-0.64062 1.1406-0.64062 0.34375 0 0.76562 0.15625 1.0625 0.59375 0.10938 0.17188 0.10938 0.1875 0.10938 0.375z"/>
</g>
<g id="aa">
<path d="m2.2188-1.7188c-0.875 0-0.875-1-0.875-1.2188 0-0.26562 0.015625-0.59375 0.15625-0.84375 0.078125-0.10938 0.3125-0.39062 0.71875-0.39062 0.85938 0 0.85938 0.98438 0.85938 1.2188 0 0.26562 0 0.59375-0.15625 0.84375-0.078125 0.10938-0.3125 0.39062-0.70312 0.39062zm-1.1562 0.39062c0-0.03125 0-0.26562 0.15625-0.46875 0.39062 0.28125 0.8125 0.3125 1 0.3125 0.92188 0 1.6094-0.6875 1.6094-1.4531 0-0.375-0.15625-0.73438-0.40625-0.96875 0.35938-0.34375 0.71875-0.39062 0.89062-0.39062 0.03125 0 0.078125 0 0.10938 0.015625-0.10938 0.03125-0.17188 0.14062-0.17188 0.26562 0 0.17188 0.14062 0.28125 0.29688 0.28125 0.09375 0 0.28125-0.0625 0.28125-0.29688 0-0.17188-0.10938-0.48438-0.5-0.48438-0.20312 0-0.64062 0.0625-1.0625 0.46875-0.42188-0.32812-0.82812-0.35938-1.0469-0.35938-0.9375 0-1.625 0.6875-1.625 1.4531 0 0.4375 0.21875 0.8125 0.46875 1.0312-0.125 0.14062-0.3125 0.46875-0.3125 0.82812 0 0.3125 0.14062 0.6875 0.45312 0.89062-0.60938 0.15625-0.92188 0.59375-0.92188 0.98438 0 0.71875 0.98438 1.2656 2.2031 1.2656 1.1719 0 2.2031-0.5 2.2031-1.2812 0-0.34375-0.125-0.85938-0.64062-1.1406-0.53125-0.26562-1.1094-0.26562-1.7188-0.26562-0.25 0-0.67188 0-0.75-0.015625-0.3125-0.046875-0.51562-0.34375-0.51562-0.67188zm1.4375 3.1562c-1.0156 0-1.7031-0.51562-1.7031-1.0469 0-0.45312 0.375-0.82812 0.8125-0.84375h0.59375c0.85938 0 1.9688 0 1.9688 0.84375 0 0.54688-0.70312 1.0469-1.6719 1.0469z"/>
</g>
<g id="z">
<path d="m2.75-1.8594v-0.57812h-2.6406v0.57812z"/>
</g>
<clipPath id="au">
<path d="m1.5273 83h334.47v2h-334.47z"/>
</clipPath>
<clipPath id="at">
<path d="m270 0.058594h30v25.941h-30z"/>
</clipPath>
<clipPath id="an">
<path d="m267 0.058594h36v29.941h-36z"/>
</clipPath>
<clipPath id="am">
<path d="m94 0.058594h30v25.941h-30z"/>
</clipPath>
<clipPath id="al">
<path d="m91 0.058594h37v29.941h-37z"/>
</clipPath>
<clipPath id="ak">
<path d="m143 112h106v1h-106z"/>
</clipPath>
<clipPath id="aj">
<path d="m1.5273 0.058594v151h335v-151zm242.27 114.16h5.5117v-3.7812h-5.5117l4.7227 1.8906zm-94.816-3.7812h-5.5117v3.7812h5.5117l-4.7266-1.8906z" clip-rule="evenodd"/>
</clipPath>
<clipPath id="ai">
<path d="m298 0.058594h5v25.941h-5z"/>
</clipPath>
<clipPath id="ah">
<path d="m295 0.058594h11v29.941h-11z"/>
</clipPath>
<clipPath id="ag">
<path d="m123 0.058594h4v25.941h-4z"/>
</clipPath>
<clipPath id="as">
<path d="m119 0.058594h12v29.941h-12z"/>
</clipPath>
<clipPath id="ar">
<path d="m72 55h2v23h-2z"/>
</clipPath>
<clipPath id="aq">
<path d="m1.5273 0.058594v151h335v-151zm69.648 71.797v5.5117h3.7812v-5.5117l-1.8906 4.7227zm3.7812-11.184v-5.5117h-3.7812v5.5117l1.8906-4.7266z" clip-rule="evenodd"/>
</clipPath>
<clipPath id="ap">
<path d="m72 88h2v46h-2z"/>
</clipPath>
<clipPath id="ao">
<path d="m1.5273 0.058594v151h335v-151zm69.648 128.5v5.5117h3.7812v-5.5117l-1.8906 4.7266zm3.7812-35.281v-5.5117h-3.7812v5.5117l1.8906-4.7227z" clip-rule="evenodd"/>
</clipPath>
</defs>
<path d="m88.281 42.59 7.5898-3.8086 25.957 2.1719 0.72266 0.44141-0.09375 0.28125-4.3789 4.4727-29.859-3.1797v-0.41016" fill="#bfbfbf" fill-rule="evenodd"/>
<path transform="matrix(.1 0 0 -.1 1.528 151.06)" d="m867.53 1084.7 75.898 38.086 259.57-21.719 7.2266-4.4141-0.9375-2.8125-43.789-44.727-298.59 31.797v4.1016z" fill="none" stroke="#000" stroke-miterlimit="10" stroke-width="2.3625"/>
<path d="m264.05 43.031v1.293l29.926 3.6211 4.4727-4.6289-0.12891-1.9219-4.5352 4.7539-29.832-3.2109" fill="#7f7f7f" fill-rule="evenodd"/>
<path d="m88.281 43.031v1.293l29.922 3.6211 4.4766-4.6289-0.12891-1.9219-4.5352 4.7539-29.832-3.2109" fill="#7f7f7f" fill-rule="evenodd"/>
<path d="m264.05 42.59 7.5898-3.8086 25.957 2.1719 0.72266 0.44141-0.09375 0.28125-4.3789 4.4727-29.859-3.1797v-0.41016" fill="#bfbfbf" fill-rule="evenodd"/>
<path transform="matrix(.1 0 0 -.1 1.528 151.06)" d="m2625.2 1084.7 75.898 38.086 259.57-21.719 7.2266-4.4141-0.9375-2.8125-43.789-44.727-298.59 31.797v4.1016z" fill="none" stroke="#000" stroke-miterlimit="10" stroke-width="2.3625"/>
<path d="m101.73 25.738-4.3789 1.2578 25.734 0.66406 7.5312-2.7734-2.5195-0.375" fill="#bfbfbf" fill-rule="evenodd"/>
<path transform="matrix(.1 0 0 -.1 1.528 151.06)" d="m1002 1253.2-43.789-12.578 257.34-6.6406 75.312 27.734-25.195 3.75z" fill="none" stroke="#000" stroke-linejoin="round" stroke-miterlimit="10" stroke-width="2.3625"/>
<g clip-path="url(#au)">
<path transform="matrix(.1 0 0 -.1 1.528 151.06)" d="m6.6341 670.77h3331.1" fill="none" stroke="#000" stroke-dasharray="18.9" stroke-miterlimit="10" stroke-width="4.725"/>
</g>
<path d="m277.5 25.738-4.3789 1.2578 25.738 0.66406 7.5273-2.7734-2.5195-0.375" fill="#bfbfbf" fill-rule="evenodd"/>
<path transform="matrix(.1 0 0 -.1 1.528 151.06)" d="m2759.7 1253.2-43.789-12.578 257.38-6.6406 75.273 27.734-25.195 3.75z" fill="none" stroke="#000" stroke-linejoin="round" stroke-miterlimit="10" stroke-width="2.3625"/>
<path transform="matrix(.1 0 0 -.1 1.528 151.06)" d="m786.24 741.62h566.99v212.62h-566.99z" fill="none" stroke="#000" stroke-miterlimit="10" stroke-width="2.3625"/>
<path d="m129.36 32.008h-1.8906l1.8906-0.59766" fill="#7f7f7f" fill-rule="evenodd"/>
<path transform="matrix(.1 0 0 -.1 1.528 151.06)" d="m1278.3 1190.5h-18.906l18.906 5.9766z" fill="none" stroke="#000" stroke-miterlimit="10" stroke-width="2.3625"/>
<path d="m130.62 30.777v0.63281l-1.2617 0.59766v-0.59766" fill="#7f7f7f" fill-rule="evenodd"/>
<path transform="matrix(.1 0 0 -.1 1.528 151.06)" d="m1290.9 1202.8v-6.3281l-12.617-5.9766v5.9766z" fill="none" stroke="#000" stroke-miterlimit="10" stroke-width="2.3625"/>
<path d="m97.352 33.297v1.2305h2.5195l4.3789-1.2305v-0.62891l-4.3789 0.62891" fill="#7f7f7f" fill-rule="evenodd"/>
<path transform="matrix(.1 0 0 -.1 1.528 151.06)" d="m958.24 1177.6v-12.305h25.195l43.789 12.305v6.2891l-43.789-6.2891z" fill="none" stroke="#000" stroke-miterlimit="10" stroke-width="2.3625"/>
<path d="m120 34.402v1.3203l3.0859 0.0625v-1.2578" fill="#7f7f7f" fill-rule="evenodd"/>
<path transform="matrix(.1 0 0 -.1 1.528 151.06)" d="m1184.7 1166.5v-13.203l30.859-0.625v12.578z" fill="none" stroke="#000" stroke-linejoin="round" stroke-miterlimit="10" stroke-width="2.3625"/>
<path d="m123.09 35.785 1.2305-1.2578v-0.59766l-1.2305 0.59766" fill="#7f7f7f" fill-rule="evenodd"/>
<path transform="matrix(.1 0 0 -.1 1.528 151.06)" d="m1215.6 1152.7 12.305 12.578v5.9766l-12.305-5.9766z" fill="none" stroke="#000" stroke-linejoin="round" stroke-miterlimit="10" stroke-width="2.3625"/>
<path d="m305.12 32.008h-1.8906l1.8906-0.59766" fill="#7f7f7f" fill-rule="evenodd"/>
<path transform="matrix(.1 0 0 -.1 1.528 151.06)" d="m3036 1190.5h-18.906l18.906 5.9766z" fill="none" stroke="#000" stroke-miterlimit="10" stroke-width="2.3625"/>
<path d="m306.39 30.777v0.63281l-1.2617 0.59766v-0.59766" fill="#7f7f7f" fill-rule="evenodd"/>
<path transform="matrix(.1 0 0 -.1 1.528 151.06)" d="m3048.6 1202.8v-6.3281l-12.617-5.9766v5.9766z" fill="none" stroke="#000" stroke-miterlimit="10" stroke-width="2.3625"/>
<path d="m298.86 35.785 1.2266-1.2578v-0.59766l-1.2266 0.59766" fill="#7f7f7f" fill-rule="evenodd"/>
<path transform="matrix(.1 0 0 -.1 1.528 151.06)" d="m2973.3 1152.7 12.266 12.578v5.9766l-12.266-5.9766z" fill="none" stroke="#000" stroke-linejoin="round" stroke-miterlimit="10" stroke-width="2.3625"/>
<path d="m295.77 34.402v1.3203l3.0898 0.0625v-1.2578" fill="#7f7f7f" fill-rule="evenodd"/>
<path transform="matrix(.1 0 0 -.1 1.528 151.06)" d="m2942.4 1166.5v-13.203l30.898-0.625v12.578z" fill="none" stroke="#000" stroke-linejoin="round" stroke-miterlimit="10" stroke-width="2.3625"/>
<path d="m273.12 33.297v1.2305h2.5195l4.3789-1.2305v-0.62891l-4.3789 0.62891" fill="#7f7f7f" fill-rule="evenodd"/>
<path transform="matrix(.1 0 0 -.1 1.528 151.06)" d="m2715.9 1177.6v-12.305h25.195l43.789 12.305v6.2891l-43.789-6.2891z" fill="none" stroke="#000" stroke-miterlimit="10" stroke-width="2.3625"/>
<path transform="matrix(.1 0 0 -.1 1.528 151.06)" d="m786.24 174.63h566.99v453.59h-566.99z" fill="none" stroke="#000" stroke-miterlimit="10" stroke-width="2.3625"/>
<path transform="matrix(.1 0 0 -.1 1.528 151.06)" d="m2558.1 741.62h566.99v212.62h-566.99z" fill="none" stroke="#000" stroke-miterlimit="10" stroke-width="2.3625"/>
<path transform="matrix(.1 0 0 -.1 1.528 151.06)" d="m2558.1 174.63h566.99v453.59h-566.99z" fill="none" stroke="#000" stroke-miterlimit="10" stroke-width="2.3625"/>
<path d="m306.39 42.688 1.2578-0.63281h-1.2578l-1.2617 0.63281" fill="#fff" fill-rule="evenodd"/>
<path transform="matrix(.1 0 0 -.1 1.528 151.06)" d="m3048.6 1083.7 12.578 6.3281h-12.578l-12.617-6.3281z" fill="none" stroke="#000" stroke-miterlimit="10" stroke-width="2.3625"/>
<path transform="matrix(.1 0 0 -.1 1.528 151.06)" d="m2985.6 1190.5 25.195 12.305" fill="#656565" fill-rule="evenodd" stroke="#000" stroke-miterlimit="10" stroke-width="4.725"/>
<path transform="matrix(.1 0 0 -.1 1.528 151.06)" d="m2985.6 1196.5 25.195 12.617" fill="#656565" fill-rule="evenodd" stroke="#000" stroke-miterlimit="10" stroke-width="4.725"/>
<path d="m300.09 33.93 2.5195-1.2617v-1.8906l-2.5195 1.2305" fill="#7f7f7f" fill-rule="evenodd"/>
<path transform="matrix(.1 0 0 -.1 1.528 151.06)" d="m2985.6 1171.3 25.195 12.617v18.906l-25.195-12.305z" fill="none" stroke="#000" stroke-miterlimit="10" stroke-width="2.3625"/>
<path d="m300.09 31.41 2.5195-1.2617v-1.8594l-2.5195 1.2305" fill="#7f7f7f" fill-rule="evenodd"/>
<path transform="matrix(.1 0 0 -.1 1.528 151.06)" d="m2985.6 1196.5 25.195 12.617v18.594l-25.195-12.305z" fill="none" stroke="#000" stroke-miterlimit="10" stroke-width="2.3625"/>
<path d="m302.61 32.668 3.7812-1.8906v-3.7812l-3.7812 1.293" fill="#656565" fill-rule="evenodd"/>
<path transform="matrix(.1 0 0 -.1 1.528 151.06)" d="m3010.8 1183.9 37.812 18.906v37.812l-37.812-12.93z" fill="none" stroke="#000" stroke-miterlimit="10" stroke-width="2.3625"/>
<path d="m298.86 30.148v4.3789l1.2266-0.59766v-4.4102" fill="#656565" fill-rule="evenodd"/>
<path transform="matrix(.1 0 0 -.1 1.528 151.06)" d="m2973.3 1209.1v-43.789l12.266 5.9766v44.102z" fill="none" stroke="#000" stroke-miterlimit="10" stroke-width="2.3625"/>
<path d="m298.86 30.148-25.738-1.2578 0.63281 0.62891 24.473 0.62891" fill-rule="evenodd"/>
<path transform="matrix(.1 0 0 -.1 1.528 151.06)" d="m2973.3 1209.1-257.38 12.578 6.3281-6.2891 244.73-6.2891z" fill="none" stroke="#000" stroke-miterlimit="10" stroke-width="2.3625"/>
<path d="m273.12 29.52v3.7773l25.738 1.2305v-4.3789" fill="#bfbfbf" fill-rule="evenodd"/>
<path transform="matrix(.1 0 0 -.1 1.528 151.06)" d="m2715.9 1215.4v-37.773l257.38-12.305v43.789z" fill="none" stroke="#000" stroke-miterlimit="10" stroke-width="2.3625"/>
<path d="m123.72 43.977 3.1172-1.2891h5.6367l1.2617-0.63281h0.66016l-3.7773 2.5195h-6.8984" fill="#fff" fill-rule="evenodd"/>
<path transform="matrix(.1 0 0 -.1 1.528 151.06)" d="m1221.9 1070.8 31.172 12.891h56.367l12.617 6.3281h6.6016l-37.773-25.195h-68.984z" fill="none" stroke="#000" stroke-miterlimit="10" stroke-width="2.3625"/>
<path d="m273.12 26.996v1.8945l25.738 1.2578v-2.4883l-25.105-0.66406" fill="#bfbfbf" fill-rule="evenodd"/>
<path transform="matrix(.1 0 0 -.1 1.528 151.06)" d="m2715.9 1240.6v-18.945l257.38-12.578v24.883l-251.05 6.6406z" fill="none" stroke="#000" stroke-miterlimit="10" stroke-width="2.3625"/>
<g clip-path="url(#at)">
<path d="m271.23 2.5234-0.62891 23.215h28.258l0.62891-25.074h-0.62891" fill="#bfbfbf" fill-rule="evenodd"/>
</g>
<g clip-path="url(#an)">
<path transform="matrix(.1 0 0 -.1 1.528 151.06)" d="m2697 1485.3-6.2891-232.15h282.58l6.2891 250.74h-6.2891z" fill="none" stroke="#000" stroke-miterlimit="10" stroke-width="2.3625"/>
</g>
<path d="m126.84 32.668 3.7812-1.8906v-3.7812l-3.7812 1.293" fill="#656565" fill-rule="evenodd"/>
<path transform="matrix(.1 0 0 -.1 1.528 151.06)" d="m1253.1 1183.9 37.812 18.906v37.812l-37.812-12.93z" fill="none" stroke="#000" stroke-miterlimit="10" stroke-width="2.3625"/>
<path d="m123.09 30.148v4.3789l1.2305-0.59766v-4.4102" fill="#656565" fill-rule="evenodd"/>
<path transform="matrix(.1 0 0 -.1 1.528 151.06)" d="m1215.6 1209.1v-43.789l12.305 5.9766v44.102z" fill="none" stroke="#000" stroke-miterlimit="10" stroke-width="2.3625"/>
<path d="m299.49 45.203-0.62891 1.2617h8.1562l3.75-2.4883v-0.66016l-4.3789 1.8867" fill="#fff" fill-rule="evenodd"/>
<path transform="matrix(.1 0 0 -.1 1.528 151.06)" d="m2979.6 1058.5-6.2891-12.617h81.562l37.5 24.883v6.6016l-43.789-18.867z" fill="none" stroke="#000" stroke-miterlimit="10" stroke-width="2.3625"/>
<path d="m299.49 44.574h7.5273l-0.62891 0.62891h-6.8984" fill="#fff" fill-rule="evenodd"/>
<path transform="matrix(.1 0 0 -.1 1.528 151.06)" d="m2979.6 1064.8h75.273l-6.2891-6.2891h-68.984z" fill="none" stroke="#000" stroke-miterlimit="10" stroke-width="2.3625"/>
<path d="m306.39 45.203 0.62891-1.2266 3.1484-1.9219 0.60156 1.2617-4.3789 2.5195" fill="#fff" fill-rule="evenodd"/>
<path transform="matrix(.1 0 0 -.1 1.528 151.06)" d="m3048.6 1058.5 6.2891 12.266 31.484 19.219 6.0156-12.617-43.789-25.195z" fill="none" stroke="#000" stroke-miterlimit="10" stroke-width="2.3625"/>
<path d="m305.12 42.688h-1.8906l1.8906-0.63281h0.63281" fill="#fff" fill-rule="evenodd"/>
<path transform="matrix(.1 0 0 -.1 1.528 151.06)" d="m3036 1083.7h-18.906l18.906 6.3281h6.3281z" fill="none" stroke="#000" stroke-miterlimit="10" stroke-width="2.3625"/>
<path d="m123.72 44.574h7.5273l-0.62891 0.62891h-6.8984" fill="#fff" fill-rule="evenodd"/>
<path transform="matrix(.1 0 0 -.1 1.528 151.06)" d="m1221.9 1064.8h75.273l-6.2891-6.2891h-68.984z" fill="none" stroke="#000" stroke-miterlimit="10" stroke-width="2.3625"/>
<path d="m123.72 45.203-0.63281 1.2617h8.1602l3.7461-2.4883v-0.66016l-4.375 1.8867" fill="#fff" fill-rule="evenodd"/>
<path transform="matrix(.1 0 0 -.1 1.528 151.06)" d="m1221.9 1058.5-6.3281-12.617h81.602l37.461 24.883v6.6016l-43.75-18.867z" fill="none" stroke="#000" stroke-miterlimit="10" stroke-width="2.3625"/>
<path d="m123.09 30.148-25.734-1.2578 0.62891 0.62891 24.477 0.62891" fill-rule="evenodd"/>
<path transform="matrix(.1 0 0 -.1 1.528 151.06)" d="m1215.6 1209.1-257.34 12.578 6.2891-6.2891 244.77-6.2891z" fill="none" stroke="#000" stroke-miterlimit="10" stroke-width="2.3625"/>
<path d="m97.352 29.52v3.7773l25.734 1.2305v-4.3789" fill="#bfbfbf" fill-rule="evenodd"/>
<path transform="matrix(.1 0 0 -.1 1.528 151.06)" d="m958.24 1215.4v-37.773l257.34-12.305v43.789z" fill="none" stroke="#000" stroke-miterlimit="10" stroke-width="2.3625"/>
<path d="m299.49 43.977 3.1172-1.2891h5.6367l1.2617-0.63281h0.66016l-3.7773 2.5195h-6.8984" fill="#fff" fill-rule="evenodd"/>
<path transform="matrix(.1 0 0 -.1 1.528 151.06)" d="m2979.6 1070.8 31.172 12.891h56.367l12.617 6.3281h6.6016l-37.773-25.195h-68.984z" fill="none" stroke="#000" stroke-miterlimit="10" stroke-width="2.3625"/>
<path d="m124.32 31.41 2.5195-1.2617v-1.8594l-2.5195 1.2305" fill="#7f7f7f" fill-rule="evenodd"/>
<path transform="matrix(.1 0 0 -.1 1.528 151.06)" d="m1227.9 1196.5 25.195 12.617v18.594l-25.195-12.305z" fill="none" stroke="#000" stroke-miterlimit="10" stroke-width="2.3625"/>
<path d="m124.32 33.93 2.5195-1.2617v-1.8906l-2.5195 1.2305" fill="#7f7f7f" fill-rule="evenodd"/>
<path transform="matrix(.1 0 0 -.1 1.528 151.06)" d="m1227.9 1171.3 25.195 12.617v18.906l-25.195-12.305z" fill="none" stroke="#000" stroke-miterlimit="10" stroke-width="2.3625"/>
<path transform="matrix(.1 0 0 -.1 1.528 151.06)" d="m1227.9 1196.5 25.195 12.617" fill="#656565" fill-rule="evenodd" stroke="#000" stroke-miterlimit="10" stroke-width="4.725"/>
<path transform="matrix(.1 0 0 -.1 1.528 151.06)" d="m1227.9 1190.5 25.195 12.305" fill="#656565" fill-rule="evenodd" stroke="#000" stroke-miterlimit="10" stroke-width="4.725"/>
<path d="m97.352 26.996v1.8945l25.734 1.2578v-2.4883l-25.105-0.66406" fill="#bfbfbf" fill-rule="evenodd"/>
<path transform="matrix(.1 0 0 -.1 1.528 151.06)" d="m958.24 1240.6v-18.945l257.34-12.578v24.883l-251.05 6.6406z" fill="none" stroke="#000" stroke-miterlimit="10" stroke-width="2.3625"/>
<path d="m131.88 42.055-1.2578 0.63281h1.8555l1.2617-0.63281h-1.2617" fill="#fff" fill-rule="evenodd"/>
<path transform="matrix(.1 0 0 -.1 1.528 151.06)" d="m1303.5 1090-12.578-6.3281h18.555l12.617 6.3281z" fill="none" stroke="#000" stroke-miterlimit="10" stroke-width="2.3625"/>
<path d="m130.62 42.688 1.2578-0.63281h-1.2578l-1.2617 0.63281" fill="#fff" fill-rule="evenodd"/>
<path transform="matrix(.1 0 0 -.1 1.528 151.06)" d="m1290.9 1083.7 12.578 6.3281h-12.578l-12.617-6.3281z" fill="none" stroke="#000" stroke-miterlimit="10" stroke-width="2.3625"/>
<path d="m129.36 42.688h-1.8906l1.8906-0.63281h0.62891" fill="#fff" fill-rule="evenodd"/>
<path transform="matrix(.1 0 0 -.1 1.528 151.06)" d="m1278.3 1083.7h-18.906l18.906 6.3281h6.2891z" fill="none" stroke="#000" stroke-miterlimit="10" stroke-width="2.3625"/>
<path d="m130.62 45.203 0.62891-1.2266 3.1484-1.9219 0.59766 1.2617-4.375 2.5195" fill="#fff" fill-rule="evenodd"/>
<path transform="matrix(.1 0 0 -.1 1.528 151.06)" d="m1290.9 1058.5 6.2891 12.266 31.484 19.219 5.9766-12.617-43.75-25.195z" fill="none" stroke="#000" stroke-miterlimit="10" stroke-width="2.3625"/>
<g clip-path="url(#am)">
<path d="m95.461 2.5234-0.62891 23.215h28.254l0.63281-25.074h-0.63281" fill="#bfbfbf" fill-rule="evenodd"/>
</g>
<g clip-path="url(#al)">
<path transform="matrix(.1 0 0 -.1 1.528 151.06)" d="m939.33 1485.3-6.2891-232.15h282.54l6.3281 250.74h-6.3281z" fill="none" stroke="#000" stroke-miterlimit="10" stroke-width="2.3625"/>
</g>
<path d="m307.64 42.055-1.2578 0.63281h1.8555l1.2617-0.63281h-1.2617" fill="#fff" fill-rule="evenodd"/>
<path transform="matrix(.1 0 0 -.1 1.528 151.06)" d="m3061.2 1090-12.578-6.3281h18.555l12.617 6.3281z" fill="none" stroke="#000" stroke-miterlimit="10" stroke-width="2.3625"/>
<path d="m298.86 27.66 7.5273-2.7422v2.0508l-7.5273 3.1797" fill="#bfbfbf" fill-rule="evenodd"/>
<path transform="matrix(.1 0 0 -.1 1.528 151.06)" d="m2973.3 1234 75.273 27.422v-20.508l-75.273-31.797z" fill="none" stroke="#000" stroke-miterlimit="10" stroke-width="2.3625"/>
<path d="m110.39 43.473-0.066406-1.1641 0.69531-0.25391 1.0703 0.03125-0.03125 0.97656-0.59766 0.44141h-0.94531" fill="#fff" fill-rule="evenodd"/>
<path transform="matrix(.1 0 0 -.1 1.528 151.06)" d="m1088.7 1075.8-0.66406 11.641 6.9531 2.5391 10.703-0.3125-0.3125-9.7656-5.9766-4.4141h-9.4531z" fill="none" stroke="#000" stroke-miterlimit="10" stroke-width="2.3625"/>
<path d="m112.06 43.598-0.03125-1.1953 0.69141-0.21875 1.0742 0.0625-0.03125 0.97656-0.60156 0.4375h-0.94531" fill="#fff" fill-rule="evenodd"/>
<path transform="matrix(.1 0 0 -.1 1.528 151.06)" d="m1105.3 1074.6-0.3125 11.953 6.9141 2.1875 10.742-0.625-0.3125-9.7656-6.0156-4.375h-9.4531z" fill="none" stroke="#000" stroke-miterlimit="10" stroke-width="2.3625"/>
<path d="m113.77 43.691-0.066406-1.1328 0.72656-0.28125 1.0391 0.0625-0.0625 0.94531-0.53516 0.44141h-0.97656" fill="#fff" fill-rule="evenodd"/>
<path transform="matrix(.1 0 0 -.1 1.528 151.06)" d="m1122.4 1073.7-0.66406 11.328 7.2656 2.8125 10.391-0.625-0.625-9.4531-5.3516-4.4141h-9.7656z" fill="none" stroke="#000" stroke-miterlimit="10" stroke-width="2.3625"/>
<path d="m115.62 43.727-0.03125-1.1367 0.69141-0.25 1.043 0.03125-0.03125 0.97656-0.57031 0.44141h-0.94141" fill="#fff" fill-rule="evenodd"/>
<path transform="matrix(.1 0 0 -.1 1.528 151.06)" d="m1140.9 1073.3-0.3125 11.367 6.9141 2.5 10.43-0.3125-0.3125-9.7656-5.7031-4.4141h-9.4141z" fill="none" stroke="#000" stroke-miterlimit="10" stroke-width="2.3625"/>
<path d="m95.082 42.434-0.03125-1.1328 0.69531-0.28516 1.0703 0.09375-0.0625 0.94531-0.56641 0.47266h-0.94531" fill="#fff" fill-rule="evenodd"/>
<path transform="matrix(.1 0 0 -.1 1.528 151.06)" d="m935.54 1086.2-0.3125 11.328 6.9531 2.8516 10.703-0.9375-0.625-9.4531-5.6641-4.7266h-9.4531z" fill="none" stroke="#000" stroke-miterlimit="10" stroke-width="2.3625"/>
<path d="m96.375 42.559-0.03125-1.1641 0.69141-0.25391 1.0742 0.0625-0.0625 0.94531-0.57031 0.44141h-0.97656" fill="#fff" fill-rule="evenodd"/>
<path transform="matrix(.1 0 0 -.1 1.528 151.06)" d="m948.47 1085-0.3125 11.641 6.9141 2.5391 10.742-0.625-0.625-9.4531-5.7031-4.4141h-9.7656z" fill="none" stroke="#000" stroke-miterlimit="10" stroke-width="2.3625"/>
<path d="m97.699 42.746-0.0625-1.1328 0.72266-0.28125 1.0391 0.0625-0.0625 0.94531-0.53516 0.44141h-0.97656" fill="#fff" fill-rule="evenodd"/>
<path transform="matrix(.1 0 0 -.1 1.528 151.06)" d="m961.71 1083.1-0.625 11.328 7.2266 2.8125 10.391-0.625-0.625-9.4531-5.3516-4.4141h-9.7656z" fill="none" stroke="#000" stroke-miterlimit="10" stroke-width="2.3625"/>
<path d="m99.148 42.938-0.0625-1.1953 0.72266-0.25391 1.0391 0.0625-0.0625 0.97656-0.53516 0.44141h-0.97656" fill="#fff" fill-rule="evenodd"/>
<path transform="matrix(.1 0 0 -.1 1.528 151.06)" d="m976.2 1081.2-0.625 11.953 7.2266 2.5391 10.391-0.625-0.625-9.7656-5.3516-4.4141h-9.7656z" fill="none" stroke="#000" stroke-miterlimit="10" stroke-width="2.3625"/>
<path d="m100.34 43-0.0625-1.1328 0.69141-0.28516 1.0742 0.0625-0.0625 0.94531-0.57031 0.44141h-0.94531" fill="#fff" fill-rule="evenodd"/>
<path transform="matrix(.1 0 0 -.1 1.528 151.06)" d="m988.16 1080.6-0.625 11.328 6.9141 2.8516 10.742-0.625-0.625-9.4531-5.7031-4.4141h-9.4531z" fill="none" stroke="#000" stroke-miterlimit="10" stroke-width="2.3625"/>
<path d="m101.76 43.188-0.03125-1.1953 0.69141-0.25 1.0703 0.0625-0.058594 0.94141-0.53906 0.50781h-0.94531" fill="#fff" fill-rule="evenodd"/>
<path transform="matrix(.1 0 0 -.1 1.528 151.06)" d="m1002.3 1078.7-0.3125 11.953 6.9141 2.5 10.703-0.625-0.58594-9.4141-5.3906-5.0781h-9.4531z" fill="none" stroke="#000" stroke-miterlimit="10" stroke-width="2.3625"/>
<path d="m103.34 43.254-0.09375-1.168 0.72656-0.21875 1.0391 0.03125-0.03125 0.97656-0.53906 0.44141h-1.0039" fill="#fff" fill-rule="evenodd"/>
<path transform="matrix(.1 0 0 -.1 1.528 151.06)" d="m1018.1 1078-0.9375 11.68 7.2656 2.1875 10.391-0.3125-0.3125-9.7656-5.3906-4.4141h-10.039z" fill="none" stroke="#000" stroke-miterlimit="10" stroke-width="2.3625"/>
<path d="m104.82 43.316-0.03125-1.168 0.69531-0.25 1.0703 0.03125-0.0625 1.0078-0.56641 0.44141h-0.94531" fill="#fff" fill-rule="evenodd"/>
<path transform="matrix(.1 0 0 -.1 1.528 151.06)" d="m1032.9 1077.4-0.3125 11.68 6.9531 2.5 10.703-0.3125-0.625-10.078-5.6641-4.4141h-9.4531z" fill="none" stroke="#000" stroke-miterlimit="10" stroke-width="2.3625"/>
<path d="m106.08 43.41-0.03125-1.1328 0.72266-0.28516 1.0391 0.0625-0.0625 0.97656-0.53516 0.44141h-0.97656" fill="#fff" fill-rule="evenodd"/>
<path transform="matrix(.1 0 0 -.1 1.528 151.06)" d="m1045.5 1076.5-0.3125 11.328 7.2266 2.8516 10.391-0.625-0.625-9.7656-5.3516-4.4141h-9.7656z" fill="none" stroke="#000" stroke-miterlimit="10" stroke-width="2.3625"/>
<path d="m93.918 42.309-0.0625-1.168 0.72266-0.25 1.0742 0.0625-0.0625 0.94531-0.53906 0.44141h-0.94141" fill="#fff" fill-rule="evenodd"/>
<path transform="matrix(.1 0 0 -.1 1.528 151.06)" d="m923.9 1087.5-0.625 11.68 7.2266 2.5 10.742-0.625-0.625-9.4531-5.3906-4.4141h-9.4141z" fill="none" stroke="#000" stroke-miterlimit="10" stroke-width="2.3625"/>
<path d="m92.562 43.094-0.03125-1.1641 0.69531-0.25391 1.0703 0.066407-0.03125 0.97656-0.59766 0.46875h-0.94531" fill="#fff" fill-rule="evenodd"/>
<path transform="matrix(.1 0 0 -.1 1.528 151.06)" d="m910.34 1079.6-0.3125 11.641 6.9531 2.5391 10.703-0.66406-0.3125-9.7656-5.9766-4.6875h-9.4531z" fill="none" stroke="#000" stroke-miterlimit="10" stroke-width="2.3625"/>
<path d="m123.09 27.66 7.5312-2.7422v2.0508l-7.5312 3.1797" fill="#bfbfbf" fill-rule="evenodd"/>
<path transform="matrix(.1 0 0 -.1 1.528 151.06)" d="m1215.6 1234 75.312 27.422v-20.508l-75.312-31.797z" fill="none" stroke="#000" stroke-miterlimit="10" stroke-width="2.3625"/>
<path d="m103.02 5.043 0.50391-0.0625 0.53516-0.0625 0.59766-0.0625 0.66016-0.03125 0.69531-0.066407 0.72266-0.0625 0.75781-0.0625 0.78516-0.0625 0.78906-0.0625 0.82031-0.0625 0.81641-0.03125 0.78906-0.0625 0.78516-0.035156 0.75781-0.0625 0.72656-0.03125 1.3203-0.0625 0.56641-0.03125h0.53516l0.50391-0.03125 0.88281-0.03125h0.72656l0.62891 0.03125h0.47266l0.41016 0.0625 0.28125 0.0625 0.19141 0.0625 0.125 0.066406 0.15625 0.15625 0.0625 0.09375 0.066406 0.125 0.0625 0.16016 0.0625 0.21875 0.0625 0.28516 0.03125 0.34375 0.0625 0.44141 0.03125 0.50391 0.0625 0.60156 0.03125 0.69141v0.44141l0.035157 0.47266v1.0703l0.027343 0.59766v5.293l-0.027343 0.59766v1.0703l-0.035157 0.47266v0.44141l-0.03125 0.69141-0.0625 0.60156-0.03125 0.50391-0.0625 0.44141-0.0625 0.34766-0.0625 0.28125-0.09375 0.22266-0.066406 0.15625-0.09375 0.125-0.0625 0.09375-0.09375 0.066407-0.125 0.09375-0.16016 0.0625-0.25 0.09375-0.31641 0.0625-0.44141 0.0625-0.50391 0.0625-0.62891 0.03125-0.72656 0.0625-0.84766 0.03125h-1.0078l-0.53516 0.035156h-1.2617l-0.69141 0.03125h-5.9531l-0.69531-0.03125h-1.2578l-0.53906-0.035156h-1.0039l-0.85156-0.03125-0.72656-0.0625-0.62891-0.03125-0.50391-0.0625-0.44141-0.03125-0.31641-0.0625-0.25-0.0625-0.15625-0.0625-0.12891-0.0625-0.09375-0.066407-0.09375-0.0625-0.09375-0.125-0.09375-0.1875-0.097657-0.28516-0.09375-0.37891-0.0625-0.53516-0.03125-0.66016-0.0625-0.78906v-0.44141l-0.03125-0.4375v-1.6406l-0.03125-0.62891v-1.9844l0.03125-0.69141v-1.3242l0.03125-0.62891v-0.60156l0.03125-0.56641 0.03125-0.50391 0.03125-0.47266 0.03125-0.44141 0.03125-0.34375 0.03125-0.34766 0.03125-0.31641 0.0625-0.28125 0.066407-0.25391 0.09375-0.25 0.09375-0.25391 0.125-0.1875 0.16016-0.19141 0.1875-0.1875 0.1875-0.16016 0.22266-0.125 0.28125-0.125 0.28516-0.09375 0.31641-0.09375 0.3125-0.09375 0.37891-0.066406 0.41016-0.0625 0.44141-0.0625" fill="#fff" fill-rule="evenodd"/>
<path transform="matrix(.1 0 0 -.1 1.528 151.06)" d="m1015 1460.1 5.0391 0.625 5.3516 0.625 5.9766 0.625 6.6016 0.3125 6.9531 0.66406 7.2266 0.625 7.5781 0.625 7.8516 0.625 7.8906 0.625 8.2031 0.625 8.1641 0.3125 7.8906 0.625 7.8516 0.35156 7.5781 0.625 7.2656 0.3125 13.203 0.625 5.6641 0.3125h5.3516l5.0391 0.3125 8.8281 0.3125h7.2656l6.2891-0.3125h4.7266l4.1016-0.625 2.8125-0.625 1.9141-0.625 1.25-0.66406 1.5625-1.5625 0.625-0.9375 0.66406-1.25 0.625-1.6016 0.625-2.1875 0.625-2.8516 0.3125-3.4375 0.625-4.4141 0.3125-5.0391 0.625-6.0156 0.3125-6.9141v-4.4141l0.35156-4.7266v-10.703l0.27344-5.9766v-52.93l-0.27344-5.9766v-10.703l-0.35156-4.7266v-4.4141l-0.3125-6.9141-0.625-6.0156-0.3125-5.0391-0.625-4.4141-0.625-3.4766-0.625-2.8125-0.9375-2.2266-0.66406-1.5625-0.9375-1.25-0.625-0.9375-0.9375-0.66406-1.25-0.9375-1.6016-0.625-2.5-0.9375-3.1641-0.625-4.4141-0.625-5.0391-0.625-6.2891-0.3125-7.2656-0.625-8.4766-0.3125h-10.078l-5.3516-0.35156h-12.617l-6.9141-0.3125h-59.531l-6.9531 0.3125h-12.578l-5.3906 0.35156h-10.039l-8.5156 0.3125-7.2656 0.625-6.2891 0.3125-5.0391 0.625-4.4141 0.3125-3.1641 0.625-2.5 0.625-1.5625 0.625-1.2891 0.625-0.9375 0.66406-0.9375 0.625-0.9375 1.25-0.9375 1.875-0.97656 2.8516-0.9375 3.7891-0.625 5.3516-0.3125 6.6016-0.625 7.8906v4.4141l-0.3125 4.375v16.406l-0.3125 6.2891v19.844l0.3125 6.9141v13.242l0.3125 6.2891v6.0156l0.3125 5.6641 0.3125 5.0391 0.3125 4.7266 0.3125 4.4141 0.3125 3.4375 0.3125 3.4766 0.3125 3.1641 0.625 2.8125 0.66406 2.5391 0.9375 2.5 0.9375 2.5391 1.25 1.875 1.6016 1.9141 1.875 1.875 1.875 1.6016 2.2266 1.25 2.8125 1.25 2.8516 0.9375 3.1641 0.9375 3.125 0.9375 3.7891 0.66406 4.1016 0.625 4.4141 0.625z" fill="none" stroke="#000" stroke-linejoin="bevel" stroke-miterlimit="10" stroke-width="2.3625"/>
<path d="m286.16 43.473-0.0625-1.1641 0.69141-0.25391 1.0703 0.03125-0.03125 0.97656-0.59766 0.44141h-0.94531" fill="#fff" fill-rule="evenodd"/>
<path transform="matrix(.1 0 0 -.1 1.528 151.06)" d="m2846.4 1075.8-0.625 11.641 6.9141 2.5391 10.703-0.3125-0.3125-9.7656-5.9766-4.4141h-9.4531z" fill="none" stroke="#000" stroke-miterlimit="10" stroke-width="2.3625"/>
<path d="m287.83 43.598-0.03125-1.1953 0.69141-0.21875 1.0742 0.0625-0.035156 0.97656-0.59766 0.4375h-0.94531" fill="#fff" fill-rule="evenodd"/>
<path transform="matrix(.1 0 0 -.1 1.528 151.06)" d="m2863 1074.6-0.3125 11.953 6.9141 2.1875 10.742-0.625-0.35156-9.7656-5.9766-4.375h-9.4531z" fill="none" stroke="#000" stroke-miterlimit="10" stroke-width="2.3625"/>
<path d="m289.53 43.691-0.058594-1.1328 0.72266-0.28125 1.0391 0.0625-0.0625 0.94531-0.53516 0.44141h-0.97656" fill="#fff" fill-rule="evenodd"/>
<path transform="matrix(.1 0 0 -.1 1.528 151.06)" d="m2880 1073.7-0.58594 11.328 7.2266 2.8125 10.391-0.625-0.625-9.4531-5.3516-4.4141h-9.7656z" fill="none" stroke="#000" stroke-miterlimit="10" stroke-width="2.3625"/>
<path d="m291.39 43.727-0.03125-1.1367 0.69531-0.25 1.0391 0.03125-0.03125 0.97656-0.57031 0.44141h-0.94141" fill="#fff" fill-rule="evenodd"/>
<path transform="matrix(.1 0 0 -.1 1.528 151.06)" d="m2898.6 1073.3-0.3125 11.367 6.9531 2.5 10.391-0.3125-0.3125-9.7656-5.7031-4.4141h-9.4141z" fill="none" stroke="#000" stroke-miterlimit="10" stroke-width="2.3625"/>
<path d="m270.86 42.434-0.03125-1.1328 0.69141-0.28516 1.0703 0.09375-0.0625 0.94531-0.56641 0.47266h-0.94531" fill="#fff" fill-rule="evenodd"/>
<path transform="matrix(.1 0 0 -.1 1.528 151.06)" d="m2693.3 1086.2-0.3125 11.328 6.9141 2.8516 10.703-0.9375-0.625-9.4531-5.6641-4.7266h-9.4531z" fill="none" stroke="#000" stroke-miterlimit="10" stroke-width="2.3625"/>
<path d="m272.14 42.559-0.03125-1.1641 0.69531-0.25391 1.0703 0.0625-0.0625 0.94531-0.57031 0.44141h-0.97656" fill="#fff" fill-rule="evenodd"/>
<path transform="matrix(.1 0 0 -.1 1.528 151.06)" d="m2706.2 1085-0.3125 11.641 6.9531 2.5391 10.703-0.625-0.625-9.4531-5.7031-4.4141h-9.7656z" fill="none" stroke="#000" stroke-miterlimit="10" stroke-width="2.3625"/>
<path d="m273.47 42.746-0.0625-1.1328 0.72266-0.28125 1.0391 0.0625-0.0625 0.94531-0.53516 0.44141h-0.97656" fill="#fff" fill-rule="evenodd"/>
<path transform="matrix(.1 0 0 -.1 1.528 151.06)" d="m2719.4 1083.1-0.625 11.328 7.2266 2.8125 10.391-0.625-0.625-9.4531-5.3516-4.4141h-9.7656z" fill="none" stroke="#000" stroke-miterlimit="10" stroke-width="2.3625"/>
<path d="m274.92 42.938-0.0625-1.1953 0.72266-0.25391 1.0391 0.0625-0.0625 0.97656-0.53516 0.44141h-0.97656" fill="#fff" fill-rule="evenodd"/>
<path transform="matrix(.1 0 0 -.1 1.528 151.06)" d="m2733.9 1081.2-0.625 11.953 7.2266 2.5391 10.391-0.625-0.625-9.7656-5.3516-4.4141h-9.7656z" fill="none" stroke="#000" stroke-miterlimit="10" stroke-width="2.3625"/>
<path d="m276.11 43-0.0625-1.1328 0.69141-0.28516 1.0742 0.0625-0.0625 0.94531-0.57031 0.44141h-0.94531" fill="#fff" fill-rule="evenodd"/>
<path transform="matrix(.1 0 0 -.1 1.528 151.06)" d="m2745.9 1080.6-0.625 11.328 6.9141 2.8516 10.742-0.625-0.625-9.4531-5.7031-4.4141h-9.4531z" fill="none" stroke="#000" stroke-miterlimit="10" stroke-width="2.3625"/>
<path d="m277.53 43.188-0.03125-1.1953 0.69531-0.25 1.0703 0.0625-0.066406 0.94141-0.53516 0.50781h-0.94141" fill="#fff" fill-rule="evenodd"/>
<path transform="matrix(.1 0 0 -.1 1.528 151.06)" d="m2760 1078.7-0.3125 11.953 6.9531 2.5 10.703-0.625-0.66406-9.4141-5.3516-5.0781h-9.4141z" fill="none" stroke="#000" stroke-miterlimit="10" stroke-width="2.3625"/>
<path d="m279.11 43.254-0.09375-1.168 0.72656-0.21875 1.0391 0.03125-0.03125 0.97656-0.53516 0.44141h-1.0117" fill="#fff" fill-rule="evenodd"/>
<path transform="matrix(.1 0 0 -.1 1.528 151.06)" d="m2775.8 1078-0.9375 11.68 7.2656 2.1875 10.391-0.3125-0.3125-9.7656-5.3516-4.4141h-10.117z" fill="none" stroke="#000" stroke-miterlimit="10" stroke-width="2.3625"/>
<path d="m280.59 43.316-0.03125-1.168 0.69531-0.25 1.0703 0.03125-0.0625 1.0078-0.56641 0.44141h-0.94531" fill="#fff" fill-rule="evenodd"/>
<path transform="matrix(.1 0 0 -.1 1.528 151.06)" d="m2790.6 1077.4-0.3125 11.68 6.9531 2.5 10.703-0.3125-0.625-10.078-5.6641-4.4141h-9.4531z" fill="none" stroke="#000" stroke-miterlimit="10" stroke-width="2.3625"/>
<path d="m281.85 43.41-0.03125-1.1328 0.72266-0.28516 1.0391 0.0625-0.0625 0.97656-0.53516 0.44141h-0.97656" fill="#fff" fill-rule="evenodd"/>
<path transform="matrix(.1 0 0 -.1 1.528 151.06)" d="m2803.2 1076.5-0.3125 11.328 7.2266 2.8516 10.391-0.625-0.625-9.7656-5.3516-4.4141h-9.7656z" fill="none" stroke="#000" stroke-miterlimit="10" stroke-width="2.3625"/>
<path d="m269.69 42.309-0.0625-1.168 0.72656-0.25 1.0703 0.0625-0.0625 0.94531-0.53516 0.44141h-0.94531" fill="#fff" fill-rule="evenodd"/>
<path transform="matrix(.1 0 0 -.1 1.528 151.06)" d="m2681.6 1087.5-0.625 11.68 7.2656 2.5 10.703-0.625-0.625-9.4531-5.3516-4.4141h-9.4531z" fill="none" stroke="#000" stroke-miterlimit="10" stroke-width="2.3625"/>
<path d="m268.34 43.094-0.03125-1.1641 0.69141-0.25391 1.0703 0.066407-0.03125 0.97656-0.59766 0.46875h-0.94531" fill="#fff" fill-rule="evenodd"/>
<path transform="matrix(.1 0 0 -.1 1.528 151.06)" d="m2668.1 1079.6-0.3125 11.641 6.9141 2.5391 10.703-0.66406-0.3125-9.7656-5.9766-4.6875h-9.4531z" fill="none" stroke="#000" stroke-miterlimit="10" stroke-width="2.3625"/>
<path d="m278.79 5.043 0.50391-0.0625 0.53516-0.0625 0.59766-0.0625 0.66406-0.03125 0.69141-0.066407 0.72266-0.0625 0.75781-0.0625 0.78906-0.0625 0.78516-0.0625 0.82031-0.0625 0.81641-0.03125 0.78906-0.0625 0.78906-0.035156 0.75391-0.0625 0.72266-0.03125 0.66406-0.03125 0.66016-0.03125 0.57031-0.03125h0.53516l0.50391-0.03125 0.87891-0.03125h0.72656l0.62891 0.03125h0.47266l0.41016 0.0625 0.28125 0.0625 0.19141 0.0625 0.125 0.066406 0.15625 0.15625 0.066406 0.09375 0.0625 0.125 0.0625 0.16016 0.0625 0.21875 0.0625 0.28516 0.03125 0.34375 0.0625 0.44141 0.03125 0.50391 0.066406 0.60156 0.027344 0.69141v0.44141l0.035156 0.47266v1.0703l0.03125 0.59766v5.293l-0.03125 0.59766v1.0703l-0.035156 0.47266v0.44141l-0.027344 0.69141-0.066406 0.60156-0.03125 0.50391-0.0625 0.44141-0.0625 0.34766-0.0625 0.28125-0.09375 0.22266-0.0625 0.15625-0.097656 0.125-0.0625 0.09375-0.09375 0.066407-0.125 0.09375-0.16016 0.0625-0.25 0.09375-0.31641 0.0625-0.44141 0.0625-0.50391 0.0625-0.62891 0.03125-0.72266 0.0625-0.85156 0.03125h-1.0078l-0.53516 0.035156h-1.2617l-0.69141 0.03125h-5.9531l-0.69531-0.03125h-1.2578l-0.53516-0.035156h-1.0117l-0.84766-0.03125-0.72656-0.0625-0.62891-0.03125-0.50391-0.0625-0.44141-0.03125-0.3125-0.0625-0.25391-0.0625-0.15625-0.0625-0.12891-0.0625-0.09375-0.066407-0.09375-0.0625-0.09375-0.125-0.09375-0.1875-0.097657-0.28516-0.09375-0.37891-0.0625-0.53516-0.03125-0.66016-0.0625-0.78906v-0.44141l-0.03125-0.4375v-1.6406l-0.03125-0.62891v-1.9844l0.03125-0.69141v-1.3242l0.03125-0.62891v-0.60156l0.03125-0.56641 0.03125-0.50391 0.03125-0.47266 0.03125-0.44141 0.03125-0.34375 0.03125-0.34766 0.03125-0.31641 0.066407-0.28125 0.0625-0.25391 0.09375-0.25 0.09375-0.25391 0.125-0.1875 0.16016-0.19141 0.1875-0.1875 0.19141-0.16016 0.21875-0.125 0.28516-0.125 0.28125-0.09375 0.31641-0.09375 0.3125-0.09375 0.37891-0.066406 0.41016-0.0625 0.44141-0.0625" fill="#fff" fill-rule="evenodd"/>
<path transform="matrix(.1 0 0 -.1 1.528 151.06)" d="m2772.6 1460.1 5.0391 0.625 5.3516 0.625 5.9766 0.625 6.6406 0.3125 6.9141 0.66406 7.2266 0.625 7.5781 0.625 7.8906 0.625 7.8516 0.625 8.2031 0.625 8.1641 0.3125 7.8906 0.625 7.8906 0.35156 7.5391 0.625 7.2266 0.3125 6.6406 0.3125 6.6016 0.3125 5.7031 0.3125h5.3516l5.0391 0.3125 8.7891 0.3125h7.2656l6.2891-0.3125h4.7266l4.1016-0.625 2.8125-0.625 1.9141-0.625 1.25-0.66406 1.5625-1.5625 0.66406-0.9375 0.625-1.25 0.625-1.6016 0.625-2.1875 0.625-2.8516 0.3125-3.4375 0.625-4.4141 0.3125-5.0391 0.66406-6.0156 0.27344-6.9141v-4.4141l0.35156-4.7266v-10.703l0.3125-5.9766v-52.93l-0.3125-5.9766v-10.703l-0.35156-4.7266v-4.4141l-0.27344-6.9141-0.66406-6.0156-0.3125-5.0391-0.625-4.4141-0.625-3.4766-0.625-2.8125-0.9375-2.2266-0.625-1.5625-0.97656-1.25-0.625-0.9375-0.9375-0.66406-1.25-0.9375-1.6016-0.625-2.5-0.9375-3.1641-0.625-4.4141-0.625-5.0391-0.625-6.2891-0.3125-7.2266-0.625-8.5156-0.3125h-10.078l-5.3516-0.35156h-12.617l-6.9141-0.3125h-59.531l-6.9531 0.3125h-12.578l-5.3516 0.35156h-10.117l-8.4766 0.3125-7.2656 0.625-6.2891 0.3125-5.0391 0.625-4.4141 0.3125-3.125 0.625-2.5391 0.625-1.5625 0.625-1.2891 0.625-0.9375 0.66406-0.9375 0.625-0.9375 1.25-0.9375 1.875-0.97656 2.8516-0.9375 3.7891-0.625 5.3516-0.3125 6.6016-0.625 7.8906v4.4141l-0.3125 4.375v16.406l-0.3125 6.2891v19.844l0.3125 6.9141v13.242l0.3125 6.2891v6.0156l0.3125 5.6641 0.3125 5.0391 0.3125 4.7266 0.3125 4.4141 0.3125 3.4375 0.3125 3.4766 0.3125 3.1641 0.66406 2.8125 0.625 2.5391 0.9375 2.5 0.9375 2.5391 1.25 1.875 1.6016 1.9141 1.875 1.875 1.9141 1.6016 2.1875 1.25 2.8516 1.25 2.8125 0.9375 3.1641 0.9375 3.125 0.9375 3.7891 0.66406 4.1016 0.625 4.4141 0.625z" fill="none" stroke="#000" stroke-linejoin="bevel" stroke-miterlimit="10" stroke-width="2.3625"/>
<path transform="matrix(.1 0 0 -.1 1.528 151.06)" d="m2657.3 599.87h368.55v170.12h-368.55z" fill="#fff" fill-rule="evenodd" stroke="#000" stroke-miterlimit="10" stroke-width="2.3625"/>
<path transform="matrix(.1 0 0 -.1 1.528 151.06)" d="m885.46 599.87h368.55v170.12h-368.55z" fill="#fff" fill-rule="evenodd" stroke="#000" stroke-miterlimit="10" stroke-width="2.3625"/>
<path d="m287.52 42.086v-0.53516l0.57031-0.41016 1.1641 0.097656v0.15625l-0.37891 0.25-0.03125 0.50391-1.418-0.0625" fill="#fff" fill-rule="evenodd"/>
<path transform="matrix(.1 0 0 -.1 1.528 151.06)" d="m2859.9 1089.7v5.3516l5.7031 4.1016 11.641-0.97656v-1.5625l-3.7891-2.5-0.3125-5.0391-14.18 0.625z" fill="none" stroke="#000" stroke-miterlimit="10" stroke-width="2.3625"/>
<path d="m288.84 42.148v-0.56641l0.53516-0.41016 1.168 0.097656v0.125l-0.31641 0.25-0.0625 0.53906-1.418-0.035156" fill="#fff" fill-rule="evenodd"/>
<path transform="matrix(.1 0 0 -.1 1.528 151.06)" d="m2873.1 1089.1v5.6641l5.3516 4.1016 11.68-0.97656v-1.25l-3.1641-2.5-0.625-5.3906-14.18 0.35156z" fill="none" stroke="#000" stroke-miterlimit="10" stroke-width="2.3625"/>
<path d="m290.07 42.34v-0.53516l0.59766-0.44141 1.1641 0.125v0.125l-0.37891 0.25391-0.0625 0.50391-1.3828-0.03125" fill="#fff" fill-rule="evenodd"/>
<path transform="matrix(.1 0 0 -.1 1.528 151.06)" d="m2885.4 1087.2v5.3516l5.9766 4.4141 11.641-1.25v-1.25l-3.7891-2.5391-0.625-5.0391-13.828 0.3125z" fill="none" stroke="#000" stroke-miterlimit="10" stroke-width="2.3625"/>
<path d="m291.39 42.371v-0.53516l0.59766-0.44141 1.1367 0.125v0.125l-0.34766 0.28516-0.03125 0.47266-1.418-0.03125" fill="#fff" fill-rule="evenodd"/>
<path transform="matrix(.1 0 0 -.1 1.528 151.06)" d="m2898.6 1086.9v5.3516l5.9766 4.4141 11.367-1.25v-1.25l-3.4766-2.8516-0.3125-4.7266-14.18 0.3125z" fill="none" stroke="#000" stroke-miterlimit="10" stroke-width="2.3625"/>
<path d="m292.68 42.559v-0.59766l0.53516-0.37891 1.168 0.0625v0.19141l-0.22266 0.75391-0.59766 0.34766-1.0078-0.37891" fill="#fff" fill-rule="evenodd"/>
<path transform="matrix(.1 0 0 -.1 1.528 151.06)" d="m2911.6 1085v5.9766l5.3516 3.7891 11.68-0.625v-1.9141l-2.2266-7.5391-5.9766-3.4766-10.078 3.7891z" fill="none" stroke="#000" stroke-miterlimit="10" stroke-width="2.3625"/>
<path d="m272.4 40.418v-0.56641l0.56641-0.37891 1.1641 0.0625v0.19141l-0.34766 0.21875-0.058594 0.53516-1.418-0.0625" fill="#fff" fill-rule="evenodd"/>
<path transform="matrix(.1 0 0 -.1 1.528 151.06)" d="m2708.7 1106.4v5.6641l5.6641 3.7891 11.641-0.625v-1.9141l-3.4766-2.1875-0.58594-5.3516-14.18 0.625z" fill="none" stroke="#000" stroke-miterlimit="10" stroke-width="2.3625"/>
<path d="m273.56 40.574v-0.56641l0.56641-0.41016 1.168 0.16016v0.125l-0.34766 0.25-0.0625 0.50391-1.418-0.0625" fill="#fff" fill-rule="evenodd"/>
<path transform="matrix(.1 0 0 -.1 1.528 151.06)" d="m2720.3 1104.8v5.6641l5.6641 4.1016 11.68-1.6016v-1.25l-3.4766-2.5-0.625-5.0391-14.18 0.625z" fill="none" stroke="#000" stroke-miterlimit="10" stroke-width="2.3625"/>
<path d="m274.98 40.637v-0.53516l0.53516-0.41016 1.1992 0.09375v0.12891l-0.34766 0.28125-0.0625 0.47266-1.418-0.03125" fill="#fff" fill-rule="evenodd"/>
<path transform="matrix(.1 0 0 -.1 1.528 151.06)" d="m2734.5 1104.2v5.3516l5.3516 4.1016 11.992-0.9375v-1.2891l-3.4766-2.8125-0.625-4.7266-14.18 0.3125z" fill="none" stroke="#000" stroke-miterlimit="10" stroke-width="2.3625"/>
<path d="m276.11 40.797v-0.57031l0.53516-0.40625 1.168 0.09375v0.1875l-0.34766 0.22266-0.0625 0.53516-1.418-0.0625" fill="#fff" fill-rule="evenodd"/>
<path transform="matrix(.1 0 0 -.1 1.528 151.06)" d="m2745.9 1102.6v5.7031l5.3516 4.0625 11.68-0.9375v-1.875l-3.4766-2.2266-0.625-5.3516-14.18 0.625z" fill="none" stroke="#000" stroke-miterlimit="10" stroke-width="2.3625"/>
<path d="m277.41 40.859v-0.59766l0.53516-0.37891 1.1992 0.125v0.125l-0.37891 0.28516-0.0625 0.47266-1.3867-0.03125" fill="#fff" fill-rule="evenodd"/>
<path transform="matrix(.1 0 0 -.1 1.528 151.06)" d="m2758.8 1102v5.9766l5.3516 3.7891 11.992-1.25v-1.25l-3.7891-2.8516-0.625-4.7266-13.867 0.3125z" fill="none" stroke="#000" stroke-miterlimit="10" stroke-width="2.3625"/>
<path d="m278.7 40.953v-0.53516l0.56641-0.41016 1.1641 0.09375v0.125l-0.34766 0.25391-0.0625 0.50391-1.418-0.03125" fill="#fff" fill-rule="evenodd"/>
<path transform="matrix(.1 0 0 -.1 1.528 151.06)" d="m2771.7 1101v5.3516l5.6641 4.1016 11.641-0.9375v-1.25l-3.4766-2.5391-0.625-5.0391-14.18 0.3125z" fill="none" stroke="#000" stroke-miterlimit="10" stroke-width="2.3625"/>
<path d="m279.99 40.953v-0.53516l0.56641-0.41016 1.1367 0.09375v0.125l-0.34766 0.25391-0.03125 0.50391-1.418-0.03125" fill="#fff" fill-rule="evenodd"/>
<path transform="matrix(.1 0 0 -.1 1.528 151.06)" d="m2784.6 1101v5.3516l5.6641 4.1016 11.367-0.9375v-1.25l-3.4766-2.5391-0.3125-5.0391-14.18 0.3125z" fill="none" stroke="#000" stroke-miterlimit="10" stroke-width="2.3625"/>
<path d="m281.16 41.016v-0.53516l0.53516-0.37891 1.1641 0.09375v0.12891l-0.31641 0.25-0.09375 0.53516-1.418-0.09375" fill="#fff" fill-rule="evenodd"/>
<path transform="matrix(.1 0 0 -.1 1.528 151.06)" d="m2796.3 1100.4v5.3516l5.3516 3.7891 11.641-0.9375v-1.2891l-3.1641-2.5-0.9375-5.3516-14.18 0.9375z" fill="none" stroke="#000" stroke-miterlimit="10" stroke-width="2.3625"/>
<path d="m282.57 41.016v-0.53516l0.53906-0.37891 1.1641 0.09375v0.12891l-0.34766 0.25-0.03125 0.53516-1.4492-0.09375" fill="#fff" fill-rule="evenodd"/>
<path transform="matrix(.1 0 0 -.1 1.528 151.06)" d="m2810.4 1100.4v5.3516l5.3906 3.7891 11.641-0.9375v-1.2891l-3.4766-2.5-0.3125-5.3516-14.492 0.9375z" fill="none" stroke="#000" stroke-miterlimit="10" stroke-width="2.3625"/>
<path d="m270.98 41.141v-0.56641l0.53516-0.37891 1.1641 0.066407v0.1875l-0.34375 0.21875-0.066407 0.53516-1.3828-0.0625" fill="#fff" fill-rule="evenodd"/>
<path transform="matrix(.1 0 0 -.1 1.528 151.06)" d="m2694.5 1099.2v5.6641l5.3516 3.7891 11.641-0.66406v-1.875l-3.4375-2.1875-0.66406-5.3516-13.828 0.625z" fill="none" stroke="#000" stroke-miterlimit="10" stroke-width="2.3625"/>
<path d="m272.27 41.395v-0.53516l0.60156-0.41016 1.1328 0.09375v0.125l-0.34766 0.28516-0.0625 0.50391-1.3867-0.0625" fill="#fff" fill-rule="evenodd"/>
<path transform="matrix(.1 0 0 -.1 1.528 151.06)" d="m2707.4 1096.6v5.3516l6.0156 4.1016 11.328-0.9375v-1.25l-3.4766-2.8516-0.625-5.0391-13.867 0.625z" fill="none" stroke="#000" stroke-miterlimit="10" stroke-width="2.3625"/>
<path d="m273.59 41.488v-0.53516l0.59766-0.41016 1.1367 0.09375v0.16016l-0.34766 0.21875-0.03125 0.53516-1.418-0.0625" fill="#fff" fill-rule="evenodd"/>
<path transform="matrix(.1 0 0 -.1 1.528 151.06)" d="m2720.7 1095.7v5.3516l5.9766 4.1016 11.367-0.9375v-1.6016l-3.4766-2.1875-0.3125-5.3516-14.18 0.625z" fill="none" stroke="#000" stroke-miterlimit="10" stroke-width="2.3625"/>
<path d="m274.82 41.613v-0.59766l0.56641-0.37891 1.1641 0.09375v0.16016l-0.375 0.25-0.066407 0.50391-1.3867-0.03125" fill="#fff" fill-rule="evenodd"/>
<path transform="matrix(.1 0 0 -.1 1.528 151.06)" d="m2733 1094.4v5.9766l5.6641 3.7891 11.641-0.9375v-1.6016l-3.75-2.5-0.66406-5.0391-13.867 0.3125z" fill="none" stroke="#000" stroke-miterlimit="10" stroke-width="2.3625"/>
<path d="m276.11 41.676v-0.53516l0.53516-0.41016 1.168 0.12891v0.125l-0.34766 0.25391-0.0625 0.50391-1.418-0.066407" fill="#fff" fill-rule="evenodd"/>
<path transform="matrix(.1 0 0 -.1 1.528 151.06)" d="m2745.9 1093.8v5.3516l5.3516 4.1016 11.68-1.2891v-1.25l-3.4766-2.5391-0.625-5.0391-14.18 0.66406z" fill="none" stroke="#000" stroke-miterlimit="10" stroke-width="2.3625"/>
<path d="m277.38 41.742v-0.53906l0.53516-0.40625 1.1953 0.09375v0.125l-0.40625 0.28516-0.035157 0.50391-1.4141-0.0625" fill="#fff" fill-rule="evenodd"/>
<path transform="matrix(.1 0 0 -.1 1.528 151.06)" d="m2758.5 1093.1v5.3906l5.3516 4.0625 11.953-0.9375v-1.25l-4.0625-2.8516-0.35156-5.0391-14.141 0.625z" fill="none" stroke="#000" stroke-miterlimit="10" stroke-width="2.3625"/>
<path d="m278.6 41.867v-0.56641l0.57031-0.41016 1.1641 0.09375v0.15625l-0.34766 0.25391-0.0625 0.50391-1.418-0.03125" fill="#fff" fill-rule="evenodd"/>
<path transform="matrix(.1 0 0 -.1 1.528 151.06)" d="m2770.7 1091.9v5.6641l5.7031 4.1016 11.641-0.9375v-1.5625l-3.4766-2.5391-0.625-5.0391-14.18 0.3125z" fill="none" stroke="#000" stroke-miterlimit="10" stroke-width="2.3625"/>
<path d="m279.96 41.867v-0.56641l0.56641-0.37891 1.1328 0.0625v0.1875l-0.34375 0.22266-0.03125 0.50391-1.418-0.03125" fill="#fff" fill-rule="evenodd"/>
<path transform="matrix(.1 0 0 -.1 1.528 151.06)" d="m2784.3 1091.9v5.6641l5.6641 3.7891 11.328-0.625v-1.875l-3.4375-2.2266-0.3125-5.0391-14.18 0.3125z" fill="none" stroke="#000" stroke-miterlimit="10" stroke-width="2.3625"/>
<path d="m281.28 41.961v-0.56641l0.53516-0.41016 1.1641 0.125v0.16016l-0.37891 0.25-0.03125 0.47266-1.3828-0.03125" fill="#fff" fill-rule="evenodd"/>
<path transform="matrix(.1 0 0 -.1 1.528 151.06)" d="m2797.5 1091v5.6641l5.3516 4.1016 11.641-1.25v-1.6016l-3.7891-2.5-0.3125-4.7266-13.828 0.3125z" fill="none" stroke="#000" stroke-miterlimit="10" stroke-width="2.3625"/>
<path d="m282.57 41.992v-0.53516l0.57031-0.41016 1.1641 0.125v0.12891l-0.34766 0.25-0.03125 0.50391-1.4492-0.0625" fill="#fff" fill-rule="evenodd"/>
<path transform="matrix(.1 0 0 -.1 1.528 151.06)" d="m2810.4 1090.6v5.3516l5.7031 4.1016 11.641-1.25v-1.2891l-3.4766-2.5-0.3125-5.0391-14.492 0.625z" fill="none" stroke="#000" stroke-miterlimit="10" stroke-width="2.3625"/>
<g clip-path="url(#ak)">
<g clip-path="url(#aj)">
<path transform="matrix(.1 0 0 -.1 1.528 151.06)" d="m1424.1 387.25h1048.9" fill="none" stroke="#000" stroke-miterlimit="10" stroke-width="2.3625"/>
</g>
</g>
<path d="m148.98 110.44-4.7266 1.8906 4.7266 1.8906-0.94531-1.8906 0.94531-1.8906" fill-rule="evenodd"/>
<path transform="matrix(.1 0 0 -.1 1.528 151.06)" d="m1474.5 406.16-47.266-18.906 47.266-18.906-9.4531 18.906z" fill="none" stroke="#000" stroke-miterlimit="10" stroke-width="2.3625"/>
<path d="m243.8 114.22 4.7227-1.8906-4.7227-1.8906 0.94141 1.8906-0.94141 1.8906" fill-rule="evenodd"/>
<path transform="matrix(.1 0 0 -.1 1.528 151.06)" d="m2422.7 368.34 47.227 18.906-47.227 18.906 9.4141-18.906z" fill="none" stroke="#000" stroke-miterlimit="10" stroke-width="2.3625"/>
<path d="m269.47 43.094v-0.53516l0.56641-0.41016 1.1328 0.12891v0.125l-0.34375 0.25-0.035157 0.53516-1.4141-0.09375" fill="#fff" fill-rule="evenodd"/>
<path transform="matrix(.1 0 0 -.1 1.528 151.06)" d="m2679.4 1079.6v5.3516l5.6641 4.1016 11.328-1.2891v-1.25l-3.4375-2.5-0.35156-5.3516-14.141 0.9375z" fill="none" stroke="#000" stroke-miterlimit="10" stroke-width="2.3625"/>
<path d="m270.79 43.254 9.8633 1.2266 0.09375-1.0703-9.6719-0.97656-0.34766 0.50391v0.15625" fill="#fff" fill-rule="evenodd"/>
<path transform="matrix(.1 0 0 -.1 1.528 151.06)" d="m2692.6 1078 98.633-12.266 0.9375 10.703-96.719 9.7656-3.4766-5.0391v-1.5625z" fill="none" stroke="#000" stroke-miterlimit="10" stroke-width="2.3625"/>
<path d="m280.68 44.418v-0.56641l0.56641-0.41016 1.1328 0.09375v0.15625l-0.31641 0.25391-0.0625 0.50391-1.418-0.03125" fill="#fff" fill-rule="evenodd"/>
<path transform="matrix(.1 0 0 -.1 1.528 151.06)" d="m2791.6 1066.4v5.6641l5.6641 4.1016 11.328-0.9375v-1.5625l-3.1641-2.5391-0.625-5.0391-14.18 0.3125z" fill="none" stroke="#000" stroke-miterlimit="10" stroke-width="2.3625"/>
<path d="m101.61 41.742v-0.53906l0.53516-0.40625 1.1953 0.09375v0.125l-0.40625 0.28516-0.035157 0.50391-1.418-0.0625" fill="#fff" fill-rule="evenodd"/>
<path transform="matrix(.1 0 0 -.1 1.528 151.06)" d="m1000.8 1093.1v5.3906l5.3516 4.0625 11.953-0.9375v-1.25l-4.0625-2.8516-0.35156-5.0391-14.18 0.625z" fill="none" stroke="#000" stroke-miterlimit="10" stroke-width="2.3625"/>
<path transform="matrix(.1 0 0 -.1 1.528 151.06)" d="m2623.6 1073 302.11-31.172 41.875 41.562" fill="none" stroke="#000" stroke-miterlimit="10" stroke-width="2.3625"/>
<path d="m100.34 41.676v-0.53516l0.53516-0.41016 1.168 0.12891v0.125l-0.34766 0.25391-0.0625 0.50391-1.418-0.066407" fill="#fff" fill-rule="evenodd"/>
<path transform="matrix(.1 0 0 -.1 1.528 151.06)" d="m988.16 1093.8v5.3516l5.3516 4.1016 11.68-1.2891v-1.25l-3.4766-2.5391-0.625-5.0391-14.18 0.66406z" fill="none" stroke="#000" stroke-miterlimit="10" stroke-width="2.3625"/>
<path d="m99.055 41.613v-0.59766l0.56641-0.37891 1.1641 0.09375v0.16016l-0.37891 0.25-0.0625 0.50391-1.3867-0.03125" fill="#fff" fill-rule="evenodd"/>
<path transform="matrix(.1 0 0 -.1 1.528 151.06)" d="m975.27 1094.4v5.9766l5.6641 3.7891 11.641-0.9375v-1.6016l-3.7891-2.5-0.625-5.0391-13.867 0.3125z" fill="none" stroke="#000" stroke-miterlimit="10" stroke-width="2.3625"/>
<g clip-path="url(#ai)">
<path d="m299.49 0.66406-0.62891 25.074h3.7461v-23.812" fill="#7f7f7f" fill-rule="evenodd"/>
</g>
<g clip-path="url(#ah)">
<path transform="matrix(.1 0 0 -.1 1.528 151.06)" d="m2979.6 1503.9-6.2891-250.74h37.461v238.12z" fill="none" stroke="#000" stroke-miterlimit="10" stroke-width="2.3625"/>
</g>
<path d="m303.87 6.9336 4.375 1.2578v12.539l-4.375 1.8906" fill="#bfbfbf" fill-rule="evenodd"/>
<path transform="matrix(.1 0 0 -.1 1.528 151.06)" d="m3023.4 1441.2 43.75-12.578v-125.39l-43.75-18.906z" fill="none" stroke="#000" stroke-miterlimit="10" stroke-width="2.3625"/>
<path d="m97.824 41.488v-0.53516l0.59766-0.41016 1.1367 0.09375v0.16016l-0.34766 0.21875-0.03125 0.53516-1.418-0.0625" fill="#fff" fill-rule="evenodd"/>
<path transform="matrix(.1 0 0 -.1 1.528 151.06)" d="m962.96 1095.7v5.3516l5.9766 4.1016 11.367-0.9375v-1.6016l-3.4766-2.1875-0.3125-5.3516-14.18 0.625z" fill="none" stroke="#000" stroke-miterlimit="10" stroke-width="2.3625"/>
<path d="m96.5 41.395v-0.53516l0.60156-0.41016 1.1328 0.09375v0.125l-0.34766 0.28516-0.0625 0.50391-1.3867-0.0625" fill="#fff" fill-rule="evenodd"/>
<path transform="matrix(.1 0 0 -.1 1.528 151.06)" d="m949.72 1096.6v5.3516l6.0156 4.1016 11.328-0.9375v-1.25l-3.4766-2.8516-0.625-5.0391-13.867 0.625z" fill="none" stroke="#000" stroke-miterlimit="10" stroke-width="2.3625"/>
<path d="m95.211 41.141v-0.56641l0.53516-0.37891 1.1641 0.066407v0.1875l-0.34766 0.21875-0.0625 0.53516-1.3828-0.0625" fill="#fff" fill-rule="evenodd"/>
<path transform="matrix(.1 0 0 -.1 1.528 151.06)" d="m936.83 1099.2v5.6641l5.3516 3.7891 11.641-0.66406v-1.875l-3.4766-2.1875-0.625-5.3516-13.828 0.625z" fill="none" stroke="#000" stroke-miterlimit="10" stroke-width="2.3625"/>
<path d="m106.8 41.016v-0.53516l0.53516-0.37891 1.168 0.09375v0.12891l-0.34766 0.25-0.03125 0.53516-1.4492-0.09375" fill="#fff" fill-rule="evenodd"/>
<path transform="matrix(.1 0 0 -.1 1.528 151.06)" d="m1052.7 1100.4v5.3516l5.3516 3.7891 11.68-0.9375v-1.2891l-3.4766-2.5-0.3125-5.3516-14.492 0.9375z" fill="none" stroke="#000" stroke-miterlimit="10" stroke-width="2.3625"/>
<path d="m105.39 41.016v-0.53516l0.53516-0.37891 1.1641 0.09375v0.12891l-0.31641 0.25-0.09375 0.53516-1.418-0.09375" fill="#fff" fill-rule="evenodd"/>
<path transform="matrix(.1 0 0 -.1 1.528 151.06)" d="m1038.6 1100.4v5.3516l5.3516 3.7891 11.641-0.9375v-1.2891l-3.1641-2.5-0.9375-5.3516-14.18 0.9375z" fill="none" stroke="#000" stroke-miterlimit="10" stroke-width="2.3625"/>
<path d="m104.22 40.953v-0.53516l0.56641-0.41016 1.1367 0.09375v0.125l-0.34766 0.25391-0.03125 0.50391-1.418-0.03125" fill="#fff" fill-rule="evenodd"/>
<path transform="matrix(.1 0 0 -.1 1.528 151.06)" d="m1026.9 1101v5.3516l5.6641 4.1016 11.367-0.9375v-1.25l-3.4766-2.5391-0.3125-5.0391-14.18 0.3125z" fill="none" stroke="#000" stroke-miterlimit="10" stroke-width="2.3625"/>
<path d="m102.93 40.953v-0.53516l0.5625-0.41016 1.168 0.09375v0.125l-0.34766 0.25391-0.0625 0.50391-1.418-0.03125" fill="#fff" fill-rule="evenodd"/>
<path transform="matrix(.1 0 0 -.1 1.528 151.06)" d="m1014 1101v5.3516l5.625 4.1016 11.68-0.9375v-1.25l-3.4766-2.5391-0.625-5.0391-14.18 0.3125z" fill="none" stroke="#000" stroke-miterlimit="10" stroke-width="2.3625"/>
<path d="m101.64 40.859v-0.59766l0.53516-0.37891 1.1953 0.125v0.125l-0.37891 0.28516-0.058593 0.47266-1.3867-0.03125" fill="#fff" fill-rule="evenodd"/>
<path transform="matrix(.1 0 0 -.1 1.528 151.06)" d="m1001.1 1102v5.9766l5.3516 3.7891 11.953-1.25v-1.25l-3.7891-2.8516-0.58594-4.7266-13.867 0.3125z" fill="none" stroke="#000" stroke-miterlimit="10" stroke-width="2.3625"/>
<path d="m100.34 40.797v-0.57031l0.53516-0.40625 1.168 0.09375v0.1875l-0.34766 0.22266-0.0625 0.53516-1.418-0.0625" fill="#fff" fill-rule="evenodd"/>
<path transform="matrix(.1 0 0 -.1 1.528 151.06)" d="m988.16 1102.6v5.7031l5.3516 4.0625 11.68-0.9375v-1.875l-3.4766-2.2266-0.625-5.3516-14.18 0.625z" fill="none" stroke="#000" stroke-miterlimit="10" stroke-width="2.3625"/>
<path d="m99.211 40.637v-0.53516l0.53516-0.41016 1.1953 0.09375v0.12891l-0.34375 0.28125-0.0625 0.47266-1.418-0.03125" fill="#fff" fill-rule="evenodd"/>
<path transform="matrix(.1 0 0 -.1 1.528 151.06)" d="m976.83 1104.2v5.3516l5.3516 4.1016 11.953-0.9375v-1.2891l-3.4375-2.8125-0.625-4.7266-14.18 0.3125z" fill="none" stroke="#000" stroke-miterlimit="10" stroke-width="2.3625"/>
<path d="m97.793 40.574v-0.56641l0.56641-0.41016 1.168 0.16016v0.125l-0.34766 0.25-0.0625 0.50391-1.418-0.0625" fill="#fff" fill-rule="evenodd"/>
<path transform="matrix(.1 0 0 -.1 1.528 151.06)" d="m962.65 1104.8v5.6641l5.6641 4.1016 11.68-1.6016v-1.25l-3.4766-2.5-0.625-5.0391-14.18 0.625z" fill="none" stroke="#000" stroke-miterlimit="10" stroke-width="2.3625"/>
<path d="m96.629 40.418v-0.56641l0.56641-0.37891 1.1641 0.0625v0.19141l-0.34766 0.21875-0.0625 0.53516-1.418-0.0625" fill="#fff" fill-rule="evenodd"/>
<path transform="matrix(.1 0 0 -.1 1.528 151.06)" d="m951.01 1106.4v5.6641l5.6641 3.7891 11.641-0.625v-1.9141l-3.4766-2.1875-0.625-5.3516-14.18 0.625z" fill="none" stroke="#000" stroke-miterlimit="10" stroke-width="2.3625"/>
<path d="m116.91 42.559v-0.59766l0.53516-0.37891 1.1641 0.0625v0.19141l-0.21875 0.75391-0.59766 0.34766-1.0117-0.37891" fill="#fff" fill-rule="evenodd"/>
<path transform="matrix(.1 0 0 -.1 1.528 151.06)" d="m1153.9 1085v5.9766l5.3516 3.7891 11.641-0.625v-1.9141l-2.1875-7.5391-5.9766-3.4766-10.117 3.7891z" fill="none" stroke="#000" stroke-miterlimit="10" stroke-width="2.3625"/>
<path d="m115.62 42.371v-0.53516l0.60156-0.44141 1.1328 0.125v0.125l-0.34766 0.28516-0.03125 0.47266-1.418-0.03125" fill="#fff" fill-rule="evenodd"/>
<path transform="matrix(.1 0 0 -.1 1.528 151.06)" d="m1140.9 1086.9v5.3516l6.0156 4.4141 11.328-1.25v-1.25l-3.4766-2.8516-0.3125-4.7266-14.18 0.3125z" fill="none" stroke="#000" stroke-miterlimit="10" stroke-width="2.3625"/>
<path d="m114.3 42.34v-0.53516l0.59766-0.44141 1.1641 0.125v0.125l-0.37891 0.25391-0.0625 0.50391-1.3867-0.03125" fill="#fff" fill-rule="evenodd"/>
<path transform="matrix(.1 0 0 -.1 1.528 151.06)" d="m1127.7 1087.2v5.3516l5.9766 4.4141 11.641-1.25v-1.25l-3.7891-2.5391-0.625-5.0391-13.867 0.3125z" fill="none" stroke="#000" stroke-miterlimit="10" stroke-width="2.3625"/>
<path d="m113.07 42.148v-0.56641l0.53516-0.41016 1.1641 0.097656v0.125l-0.3125 0.25-0.0625 0.53906-1.418-0.035156" fill="#fff" fill-rule="evenodd"/>
<path transform="matrix(.1 0 0 -.1 1.528 151.06)" d="m1115.4 1089.1v5.6641l5.3516 4.1016 11.641-0.97656v-1.25l-3.125-2.5-0.625-5.3906-14.18 0.35156z" fill="none" stroke="#000" stroke-miterlimit="10" stroke-width="2.3625"/>
<path d="m302.61 1.9258v23.812l1.2617-1.2266v-21.359" fill="#7f7f7f" fill-rule="evenodd"/>
<path transform="matrix(.1 0 0 -.1 1.528 151.06)" d="m3010.8 1491.3v-238.12l12.617 12.266v213.59z" fill="none" stroke="#000" stroke-linejoin="round" stroke-miterlimit="10" stroke-width="2.3625"/>
<path d="m111.75 42.086v-0.53516l0.56641-0.41016 1.168 0.097656v0.15625l-0.37891 0.25-0.03125 0.50391-1.418-0.0625" fill="#fff" fill-rule="evenodd"/>
<path transform="matrix(.1 0 0 -.1 1.528 151.06)" d="m1102.2 1089.7v5.3516l5.6641 4.1016 11.68-0.97656v-1.5625l-3.7891-2.5-0.3125-5.0391-14.18 0.625z" fill="none" stroke="#000" stroke-miterlimit="10" stroke-width="2.3625"/>
<path d="m109.86 44.512-0.035156-1.1328 0.69531-0.28516 1.1016 0.09375-0.09375 0.94531-0.53516 0.44141h-0.94531" fill="#fff" fill-rule="evenodd"/>
<path transform="matrix(.1 0 0 -.1 1.528 151.06)" d="m1083.3 1065.5-0.35156 11.328 6.9531 2.8516 11.016-0.9375-0.9375-9.4531-5.3516-4.4141h-9.4531z" fill="none" stroke="#000" stroke-miterlimit="10" stroke-width="2.3625"/>
<path d="m114.84 44.984-0.066407-1.1641 0.72656-0.22266 1.0391 0.03125v0.94531l-0.59766 0.47266h-0.97656" fill="#fff" fill-rule="evenodd"/>
<path transform="matrix(.1 0 0 -.1 1.528 151.06)" d="m1133.1 1060.7-0.66406 11.641 7.2656 2.2266 10.391-0.3125v-9.4531l-5.9766-4.7266h-9.7656z" fill="none" stroke="#000" stroke-miterlimit="10" stroke-width="2.3625"/>
<path d="m113.23 44.672-0.0625-1.1992 0.69531-0.21875h1.0703l-0.03125 0.97656-0.59766 0.44141h-0.91406" fill="#fff" fill-rule="evenodd"/>
<path transform="matrix(.1 0 0 -.1 1.528 151.06)" d="m1117 1063.9-0.625 11.992 6.9531 2.1875h10.703l-0.3125-9.7656-5.9766-4.4141z" fill="none" stroke="#000" stroke-miterlimit="10" stroke-width="2.3625"/>
<path d="m128.1 6.9336 4.375 1.2578v12.539l-4.375 1.8906" fill="#bfbfbf" fill-rule="evenodd"/>
<path transform="matrix(.1 0 0 -.1 1.528 151.06)" d="m1265.7 1441.2 43.75-12.578v-125.39l-43.75-18.906z" fill="none" stroke="#000" stroke-miterlimit="10" stroke-width="2.3625"/>
<g clip-path="url(#ag)">
<path d="m123.72 0.66406-0.63281 25.074h3.75v-23.812" fill="#7f7f7f" fill-rule="evenodd"/>
</g>
<g clip-path="url(#as)">
<path transform="matrix(.1 0 0 -.1 1.528 151.06)" d="m1221.9 1503.9-6.3281-250.74h37.5v238.12z" fill="none" stroke="#000" stroke-miterlimit="10" stroke-width="2.3625"/>
</g>
<path transform="matrix(.1 0 0 -.1 1.528 151.06)" d="m865.93 1073 302.11-31.172 41.875 41.562" fill="none" stroke="#000" stroke-miterlimit="10" stroke-width="2.3625"/>
<path d="m126.84 1.9258v23.812l1.2617-1.2266v-21.359" fill="#7f7f7f" fill-rule="evenodd"/>
<path transform="matrix(.1 0 0 -.1 1.528 151.06)" d="m1253.1 1491.3v-238.12l12.617 12.266v213.59z" fill="none" stroke="#000" stroke-linejoin="round" stroke-miterlimit="10" stroke-width="2.3625"/>
<path d="m104.91 44.418v-0.56641l0.57031-0.41016 1.1328 0.09375v0.15625l-0.31641 0.25391-0.0625 0.50391-1.418-0.03125" fill="#fff" fill-rule="evenodd"/>
<path transform="matrix(.1 0 0 -.1 1.528 151.06)" d="m1033.8 1066.4v5.6641l5.7031 4.1016 11.328-0.9375v-1.5625l-3.1641-2.5391-0.625-5.0391-14.18 0.3125z" fill="none" stroke="#000" stroke-miterlimit="10" stroke-width="2.3625"/>
<path d="m95.02 43.254 9.8594 1.2266 0.097656-1.0703-9.6719-0.97656-0.34766 0.50391v0.15625" fill="#fff" fill-rule="evenodd"/>
<path transform="matrix(.1 0 0 -.1 1.528 151.06)" d="m934.92 1078 98.594-12.266 0.97656 10.703-96.719 9.7656-3.4766-5.0391v-1.5625z" fill="none" stroke="#000" stroke-miterlimit="10" stroke-width="2.3625"/>
<path d="m93.699 43.094v-0.53516l0.56641-0.41016 1.1328 0.12891v0.125l-0.34766 0.25-0.03125 0.53516-1.418-0.09375" fill="#fff" fill-rule="evenodd"/>
<path transform="matrix(.1 0 0 -.1 1.528 151.06)" d="m921.71 1079.6v5.3516l5.6641 4.1016 11.328-1.2891v-1.25l-3.4766-2.5-0.3125-5.3516-14.18 0.9375z" fill="none" stroke="#000" stroke-miterlimit="10" stroke-width="2.3625"/>
<path d="m106.8 41.992v-0.53516l0.56641-0.41016 1.168 0.125v0.12891l-0.34766 0.25-0.03125 0.50391-1.4492-0.0625" fill="#fff" fill-rule="evenodd"/>
<path transform="matrix(.1 0 0 -.1 1.528 151.06)" d="m1052.7 1090.6v5.3516l5.6641 4.1016 11.68-1.25v-1.2891l-3.4766-2.5-0.3125-5.0391-14.492 0.625z" fill="none" stroke="#000" stroke-miterlimit="10" stroke-width="2.3625"/>
<path d="m105.51 41.961v-0.56641l0.53516-0.41016 1.1641 0.125v0.16016l-0.37891 0.25-0.03125 0.47266-1.3867-0.03125" fill="#fff" fill-rule="evenodd"/>
<path transform="matrix(.1 0 0 -.1 1.528 151.06)" d="m1039.8 1091v5.6641l5.3516 4.1016 11.641-1.25v-1.6016l-3.7891-2.5-0.3125-4.7266-13.867 0.3125z" fill="none" stroke="#000" stroke-miterlimit="10" stroke-width="2.3625"/>
<path d="m104.19 41.867v-0.56641l0.56641-0.37891 1.1367 0.0625v0.1875l-0.34766 0.22266-0.03125 0.50391-1.418-0.03125" fill="#fff" fill-rule="evenodd"/>
<path transform="matrix(.1 0 0 -.1 1.528 151.06)" d="m1026.6 1091.9v5.6641l5.6641 3.7891 11.367-0.625v-1.875l-3.4766-2.2266-0.3125-5.0391-14.18 0.3125z" fill="none" stroke="#000" stroke-miterlimit="10" stroke-width="2.3625"/>
<path d="m102.83 41.867v-0.56641l0.56641-0.41016 1.168 0.09375v0.15625l-0.34766 0.25391-0.0625 0.50391-1.418-0.03125" fill="#fff" fill-rule="evenodd"/>
<path transform="matrix(.1 0 0 -.1 1.528 151.06)" d="m1013 1091.9v5.6641l5.6641 4.1016 11.68-0.9375v-1.5625l-3.4766-2.5391-0.625-5.0391-14.18 0.3125z" fill="none" stroke="#000" stroke-miterlimit="10" stroke-width="2.3625"/>
<path d="m287.3 44.512-0.0625-1.1328 0.72266-0.28516 1.0742 0.09375-0.035156 0.94531-0.56641 0.44141h-0.97656" fill="#fff" fill-rule="evenodd"/>
<path transform="matrix(.1 0 0 -.1 1.528 151.06)" d="m2857.7 1065.5-0.625 11.328 7.2266 2.8516 10.742-0.9375-0.35156-9.4531-5.6641-4.4141h-9.7656z" fill="none" stroke="#000" stroke-miterlimit="10" stroke-width="2.3625"/>
<path d="m289 44.672-0.0625-1.1992 0.69531-0.21875h1.0703l-0.03125 0.97656-0.59766 0.44141h-0.91406" fill="#fff" fill-rule="evenodd"/>
<path transform="matrix(.1 0 0 -.1 1.528 151.06)" d="m2874.7 1063.9-0.625 11.992 6.9531 2.1875h10.703l-0.3125-9.7656-5.9766-4.4141z" fill="none" stroke="#000" stroke-miterlimit="10" stroke-width="2.3625"/>
<path d="m290.61 44.984-0.0625-1.1641 0.72266-0.22266 1.0391 0.03125v0.94531l-0.59766 0.47266h-0.97656" fill="#fff" fill-rule="evenodd"/>
<path transform="matrix(.1 0 0 -.1 1.528 151.06)" d="m2890.8 1060.7-0.625 11.641 7.2266 2.2266 10.391-0.3125v-9.4531l-5.9766-4.7266h-9.7656z" fill="none" stroke="#000" stroke-miterlimit="10" stroke-width="2.3625"/>
<path d="m285.63 44.512-0.03125-1.1328 0.69141-0.28516 1.1016 0.09375-0.09375 0.94531-0.53516 0.44141h-0.94531" fill="#fff" fill-rule="evenodd"/>
<path transform="matrix(.1 0 0 -.1 1.528 151.06)" d="m2841 1065.5-0.3125 11.328 6.9141 2.8516 11.016-0.9375-0.9375-9.4531-5.3516-4.4141h-9.4531z" fill="none" stroke="#000" stroke-miterlimit="10" stroke-width="2.3625"/>
<g clip-path="url(#ar)">
<g clip-path="url(#aq)">
<path transform="matrix(.1 0 0 -.1 1.528 151.06)" d="m715.38 954.24v-212.62" fill="none" stroke="#000" stroke-miterlimit="10" stroke-width="2.3625"/>
</g>
</g>
<path d="m74.957 60.672-1.8906-4.7266-1.8906 4.7266 1.8906-0.94531 1.8906 0.94531" fill-rule="evenodd"/>
<path transform="matrix(.1 0 0 -.1 1.528 151.06)" d="m734.29 903.85-18.906 47.266-18.906-47.266 18.906 9.4531z" fill="none" stroke="#000" stroke-miterlimit="10" stroke-width="2.3625"/>
<path d="m71.176 71.855 1.8906 4.7227 1.8906-4.7227-1.8906 0.94531-1.8906-0.94531" fill-rule="evenodd"/>
<path transform="matrix(.1 0 0 -.1 1.528 151.06)" d="m696.48 792.02 18.906-47.227 18.906 47.227-18.906-9.4531z" fill="none" stroke="#000" stroke-miterlimit="10" stroke-width="2.3625"/>
<g clip-path="url(#ap)">
<g clip-path="url(#ao)">
<path transform="matrix(.1 0 0 -.1 1.528 151.06)" d="m715.38 628.23v-453.59" fill="none" stroke="#000" stroke-miterlimit="10" stroke-width="2.3625"/>
</g>
</g>
<path d="m74.957 93.273-1.8906-4.7227-1.8906 4.7227 1.8906-0.94531 1.8906 0.94531" fill-rule="evenodd"/>
<path transform="matrix(.1 0 0 -.1 1.528 151.06)" d="m734.29 577.84-18.906 47.227-18.906-47.227 18.906 9.4531z" fill="none" stroke="#000" stroke-miterlimit="10" stroke-width="2.3625"/>
<path d="m71.176 128.55 1.8906 4.7266 1.8906-4.7266-1.8906 0.94531-1.8906-0.94531" fill-rule="evenodd"/>
<path transform="matrix(.1 0 0 -.1 1.528 151.06)" d="m696.48 225.02 18.906-47.266 18.906 47.266-18.906-9.4531z" fill="none" stroke="#000" stroke-miterlimit="10" stroke-width="2.3625"/>
<path d="m111.53 44.512-0.0625-1.1328 0.72266-0.28516 1.0742 0.09375-0.035157 0.94531-0.56641 0.44141h-0.97656" fill="#fff" fill-rule="evenodd"/>
<path transform="matrix(.1 0 0 -.1 1.528 151.06)" d="m1100 1065.5-0.625 11.328 7.2266 2.8516 10.742-0.9375-0.35156-9.4531-5.6641-4.4141h-9.7656z" fill="none" stroke="#000" stroke-miterlimit="10" stroke-width="2.3625"/>
<g>
<use x="183.211" y="105.228" xlink:href="#af"/>
<use x="186.808495" y="105.228" xlink:href="#c"/>
<use x="192.064763" y="105.228" xlink:href="#b"/>
<use x="195.939218" y="105.228" xlink:href="#a"/>
<use x="200.366597" y="105.228" xlink:href="#d"/>
<use x="204.268948" y="105.228" xlink:href="#c"/>
<use x="209.804168" y="105.228" xlink:href="#a"/>
<use x="214.231548" y="105.228" xlink:href="#b"/>
<use x="269.515" y="69.792" xlink:href="#i"/>
<use x="276.295546" y="69.792" xlink:href="#d"/>
<use x="280.197896" y="69.792" xlink:href="#f"/>
<use x="285.179196" y="69.792" xlink:href="#p"/>
<use x="289.606575" y="69.792" xlink:href="#a"/>
<use x="294.033955" y="69.792" xlink:href="#e"/>
<use x="297.963204" y="69.792" xlink:href="#e"/>
<use x="264.569" y="106.645" xlink:href="#y"/>
<use x="271.76399" y="106.645" xlink:href="#x"/>
<use x="278.958979" y="106.645" xlink:href="#i"/>
<use x="289.057071" y="106.645" xlink:href="#o"/>
<use x="297.358905" y="106.645" xlink:href="#g"/>
<use x="300.126516" y="106.645" xlink:href="#b"/>
<use x="266.908" y="117.039" xlink:href="#i"/>
<use x="273.688546" y="117.039" xlink:href="#n"/>
<use x="279.223766" y="117.039" xlink:href="#w"/>
<use x="285.034951" y="117.039" xlink:href="#a"/>
<use x="289.46233" y="117.039" xlink:href="#d"/>
<use x="293.364681" y="117.039" xlink:href="#c"/>
<use x="298.899901" y="117.039" xlink:href="#v"/>
<use x="263.517" y="127.434" xlink:href="#u"/>
<use x="270.162054" y="127.434" xlink:href="#k"/>
<use x="275.143354" y="127.434" xlink:href="#d"/>
<use x="279.045705" y="127.434" xlink:href="#g"/>
<use x="281.813315" y="127.434" xlink:href="#k"/>
<use x="286.794615" y="127.434" xlink:href="#j"/>
<use x="292.329835" y="127.434" xlink:href="#h"/>
<use x="295.097446" y="127.434" xlink:href="#a"/>
<use x="299.524825" y="127.434" xlink:href="#c"/>
<use x="274.158" y="150.585" xlink:href="#t"/>
<use x="281.62995" y="150.585" xlink:href="#f"/>
<use x="286.61125" y="150.585" xlink:href="#e"/>
<use x="290.540499" y="150.585" xlink:href="#b"/>
<use x="92.338" y="69.792" xlink:href="#i"/>
<use x="99.118546" y="69.792" xlink:href="#d"/>
<use x="103.020896" y="69.792" xlink:href="#f"/>
<use x="108.002196" y="69.792" xlink:href="#p"/>
<use x="112.429575" y="69.792" xlink:href="#a"/>
<use x="116.856955" y="69.792" xlink:href="#e"/>
<use x="120.786204" y="69.792" xlink:href="#e"/>
<use x="87.392" y="106.645" xlink:href="#y"/>
<use x="94.58699" y="106.645" xlink:href="#x"/>
<use x="101.781979" y="106.645" xlink:href="#i"/>
<use x="111.880071" y="106.645" xlink:href="#o"/>
<use x="120.181905" y="106.645" xlink:href="#g"/>
<use x="122.949516" y="106.645" xlink:href="#b"/>
<use x="89.731" y="117.039" xlink:href="#i"/>
<use x="96.511546" y="117.039" xlink:href="#n"/>
<use x="102.046766" y="117.039" xlink:href="#w"/>
<use x="107.857951" y="117.039" xlink:href="#a"/>
<use x="112.28533" y="117.039" xlink:href="#d"/>
<use x="116.187681" y="117.039" xlink:href="#c"/>
<use x="121.722901" y="117.039" xlink:href="#v"/>
<use x="86.341" y="127.434" xlink:href="#u"/>
<use x="92.986054" y="127.434" xlink:href="#k"/>
<use x="97.967354" y="127.434" xlink:href="#d"/>
<use x="101.869705" y="127.434" xlink:href="#g"/>
<use x="104.637315" y="127.434" xlink:href="#k"/>
<use x="109.618615" y="127.434" xlink:href="#j"/>
<use x="115.153835" y="127.434" xlink:href="#h"/>
<use x="117.921446" y="127.434" xlink:href="#a"/>
<use x="122.348825" y="127.434" xlink:href="#c"/>
<use x="94.414" y="85.384" xlink:href="#s"/>
<use x="99.949221" y="85.384" xlink:href="#f"/>
<use x="105.209473" y="85.384" xlink:href="#m"/>
<use x="109.3579" y="85.384" xlink:href="#l"/>
<use x="114.337207" y="85.384" xlink:href="#a"/>
<use x="118.764587" y="85.384" xlink:href="#b"/>
<use x="271.589875" y="85.384" xlink:href="#s"/>
<use x="277.125095" y="85.384" xlink:href="#f"/>
<use x="282.385348" y="85.384" xlink:href="#m"/>
<use x="286.533775" y="85.384" xlink:href="#l"/>
<use x="291.513082" y="85.384" xlink:href="#a"/>
<use x="295.940462" y="85.384" xlink:href="#b"/>
<use x="8.969" y="108.063" xlink:href="#r"/>
<use x="16.71791" y="108.063" xlink:href="#f"/>
<use x="21.69921" y="108.063" xlink:href="#c"/>
<use x="26.955478" y="108.063" xlink:href="#b"/>
<use x="30.829933" y="108.063" xlink:href="#d"/>
<use x="34.732284" y="108.063" xlink:href="#f"/>
<use x="39.713584" y="108.063" xlink:href="#h"/>
<use x="42.481194" y="108.063" xlink:href="#h"/>
<use x="45.248804" y="108.063" xlink:href="#a"/>
<use x="52.993729" y="108.063" xlink:href="#j"/>
<use x="58.807903" y="108.063" xlink:href="#a"/>
<use x="63.235282" y="108.063" xlink:href="#g"/>
<use x="0.362" y="118.457" xlink:href="#ae"/>
<use x="7.41851" y="118.457" xlink:href="#a"/>
<use x="11.845889" y="118.457" xlink:href="#b"/>
<use x="15.720344" y="118.457" xlink:href="#d"/>
<use x="19.622695" y="118.457" xlink:href="#g"/>
<use x="22.390305" y="118.457" xlink:href="#a"/>
<use x="26.817684" y="118.457" xlink:href="#j"/>
<use x="32.352905" y="118.457" xlink:href="#e"/>
<use x="36.282154" y="118.457" xlink:href="#e"/>
<use x="40.211404" y="118.457" xlink:href="#ad"/>
<use x="45.469664" y="118.457" xlink:href="#e"/>
<use x="49.398913" y="118.457" xlink:href="#b"/>
<use x="53.273369" y="118.457" xlink:href="#a"/>
<use x="57.700748" y="118.457" xlink:href="#o"/>
<use x="8.969" y="54.201" xlink:href="#r"/>
<use x="16.71791" y="54.201" xlink:href="#f"/>
<use x="21.69921" y="54.201" xlink:href="#c"/>
<use x="26.955478" y="54.201" xlink:href="#b"/>
<use x="30.829933" y="54.201" xlink:href="#d"/>
<use x="34.732284" y="54.201" xlink:href="#f"/>
<use x="39.713584" y="54.201" xlink:href="#h"/>
<use x="42.481194" y="54.201" xlink:href="#h"/>
<use x="45.248804" y="54.201" xlink:href="#a"/>
<use x="52.993729" y="54.201" xlink:href="#j"/>
<use x="58.807903" y="54.201" xlink:href="#a"/>
<use x="63.235282" y="54.201" xlink:href="#g"/>
<use x="7.557" y="64.595" xlink:href="#ac"/>
<use x="15.02895" y="64.595" xlink:href="#c"/>
<use x="20.285218" y="64.595" xlink:href="#q"/>
<use x="27.201255" y="64.595" xlink:href="#a"/>
<use x="31.638597" y="64.595" xlink:href="#c"/>
<use x="37.163855" y="64.595" xlink:href="#ab"/>
<use x="42.699075" y="64.595" xlink:href="#n"/>
<use x="48.234296" y="64.595" xlink:href="#c"/>
<use x="53.769516" y="64.595" xlink:href="#aa"/>
<use x="58.750816" y="64.595" xlink:href="#e"/>
<use x="62.680066" y="64.595" xlink:href="#z"/>
<use x="22.252" y="74.99" xlink:href="#a"/>
<use x="26.679379" y="74.99" xlink:href="#c"/>
<use x="31.935647" y="74.99" xlink:href="#b"/>
<use x="35.53115" y="74.99" xlink:href="#q"/>
<use x="42.736102" y="74.99" xlink:href="#g"/>
<use x="45.49375" y="74.99" xlink:href="#m"/>
<use x="49.652139" y="74.99" xlink:href="#l"/>
<use x="54.910399" y="74.99" xlink:href="#h"/>
<use x="57.678009" y="74.99" xlink:href="#a"/>
<use x="62.105389" y="74.99" xlink:href="#d"/>
<use x="96.981" y="150.585" xlink:href="#t"/>
<use x="104.45295" y="150.585" xlink:href="#f"/>
<use x="109.43425" y="150.585" xlink:href="#e"/>
<use x="113.363499" y="150.585" xlink:href="#b"/>
</g>
</svg>
