<svg width="370pt" height="264pt" version="1.1" viewBox="0 0 370 264" xmlns="http://www.w3.org/2000/svg" xmlns:xlink="http://www.w3.org/1999/xlink">
<defs>
<g id="ac">
<path d="m2.4062-6.5938c-0.09375-0.21875-0.125-0.21875-0.35938-0.21875h-1.6719v0.3125h0.23438c0.76562 0 0.78125 0.10938 0.78125 0.46875v4.9844c0 0.26562 0 0.73438-1.0156 0.73438v0.3125c0.34375-0.015625 0.82812-0.03125 1.1562-0.03125s0.82812 0.015625 1.1719 0.03125v-0.3125c-1.0312 0-1.0312-0.46875-1.0312-0.73438v-5.375h0.015625l2.4062 6.2031c0.046875 0.125 0.09375 0.21875 0.1875 0.21875 0.10938 0 0.14062-0.078125 0.1875-0.1875l2.4531-6.3125v5.7188c0 0.35938-0.015625 0.46875-0.78125 0.46875h-0.23438v0.3125c0.35938-0.03125 1.0469-0.03125 1.4375-0.03125 0.375 0 1.0469 0 1.4219 0.03125v-0.3125h-0.25c-0.76562 0-0.78125-0.10938-0.78125-0.46875v-5.25c0-0.35938 0.015625-0.46875 0.78125-0.46875h0.25v-0.3125h-1.6875c-0.26562 0-0.26562 0.015625-0.32812 0.1875l-2.1875 5.625z"/>
</g>
<g id="u">
<path d="m2.0312-6.1719c0-0.23438-0.20312-0.5-0.5-0.5-0.28125 0-0.5 0.21875-0.5 0.5s0.21875 0.5 0.5 0.5c0.29688 0 0.5-0.26562 0.5-0.5zm1.9219 0c0-0.28125-0.21875-0.5-0.5-0.5-0.29688 0-0.5 0.26562-0.5 0.5s0.20312 0.5 0.5 0.5c0.28125 0 0.5-0.21875 0.5-0.5z"/>
</g>
<g id="o">
<path d="m3.8906-0.78125v0.89062l1.4375-0.10938v-0.3125c-0.6875 0-0.76562-0.0625-0.76562-0.5625v-3.5312l-1.4688 0.10938v0.3125c0.6875 0 0.78125 0.0625 0.78125 0.5625v1.7656c0 0.875-0.48438 1.5469-1.2188 1.5469-0.82812 0-0.875-0.46875-0.875-0.98438v-3.3125l-1.4688 0.10938v0.3125c0.78125 0 0.78125 0.03125 0.78125 0.90625v1.5c0 0.78125 0 1.6875 1.5156 1.6875 0.5625 0 1-0.28125 1.2812-0.89062z"/>
</g>
<g id="r">
<path d="m1.7656-6.9219-1.4375 0.10938v0.3125c0.70312 0 0.78125 0.0625 0.78125 0.5625v5.1875c0 0.4375-0.10938 0.4375-0.78125 0.4375v0.3125c0.32812-0.015625 0.85938-0.03125 1.1094-0.03125s0.73438 0.015625 1.1094 0.03125v-0.3125c-0.67188 0-0.78125 0-0.78125-0.4375z"/>
</g>
<g id="b">
<path d="m1.1094-2.5156c0.0625-1.4844 0.90625-1.7344 1.25-1.7344 1.0156 0 1.125 1.3438 1.125 1.7344zm0 0.21875h2.7812c0.21875 0 0.25 0 0.25-0.21875 0-0.98438-0.54688-1.9531-1.7812-1.9531-1.1562 0-2.0781 1.0312-2.0781 2.2812 0 1.3281 1.0469 2.2969 2.1875 2.2969 1.2188 0 1.6719-1.1094 1.6719-1.2969 0-0.09375-0.078125-0.125-0.14062-0.125-0.078125 0-0.10938 0.0625-0.125 0.14062-0.34375 1.0312-1.25 1.0312-1.3438 1.0312-0.5 0-0.89062-0.29688-1.125-0.67188-0.29688-0.46875-0.29688-1.125-0.29688-1.4844z"/>
</g>
<g id="d">
<path d="m1.6719-3.3125v-1.0938l-1.3906 0.10938v0.3125c0.70312 0 0.78125 0.0625 0.78125 0.5625v2.6719c0 0.4375-0.10938 0.4375-0.78125 0.4375v0.3125c0.39062-0.015625 0.85938-0.03125 1.1406-0.03125 0.39062 0 0.85938 0 1.2656 0.03125v-0.3125h-0.21875c-0.73438 0-0.75-0.10938-0.75-0.46875v-1.5312c0-0.98438 0.42188-1.875 1.1719-1.875 0.0625 0 0.09375 0 0.10938 0.015625-0.03125 0-0.23438 0.125-0.23438 0.39062s0.21875 0.42188 0.4375 0.42188c0.17188 0 0.42188-0.125 0.42188-0.4375s-0.3125-0.60938-0.73438-0.60938c-0.73438 0-1.0938 0.67188-1.2188 1.0938z"/>
</g>
<g id="v">
<path d="m3.9844-4.1719 1.7969-1.7344c0.078125-0.078125 0.60938-0.57812 1.4219-0.59375v-0.3125c-0.26562 0.03125-0.57812 0.03125-0.85938 0.03125-0.35938 0-0.92188 0-1.2656-0.03125v0.3125c0.40625 0.015625 0.46875 0.23438 0.46875 0.32812 0 0.15625-0.10938 0.26562-0.1875 0.32812l-3.1094 2.9844v-3.1719c0-0.35938 0.015625-0.46875 0.78125-0.46875h0.23438v-0.3125c-0.34375 0.03125-1.0781 0.03125-1.4688 0.03125-0.375 0-1.125 0-1.4688-0.03125v0.3125h0.23438c0.76562 0 0.79688 0.10938 0.79688 0.46875v5.25c0 0.35938-0.03125 0.46875-0.79688 0.46875h-0.23438v0.3125c0.34375-0.03125 1.0938-0.03125 1.4688-0.03125s1.125 0 1.4688 0.03125v-0.3125h-0.23438c-0.76562 0-0.78125-0.10938-0.78125-0.46875v-1.7344l1.1562-1.1094 1.7969 2.6719c0.0625 0.09375 0.15625 0.21875 0.15625 0.34375 0 0.29688-0.39062 0.29688-0.59375 0.29688v0.3125c0.34375-0.03125 1.0469-0.03125 1.4219-0.03125 0.35938 0 0.73438 0.015625 1.1562 0.03125v-0.3125c-0.54688 0-0.75-0.03125-1.0469-0.46875z"/>
</g>
<g id="f">
<path d="m4.6875-2.1406c0-1.2656-0.98438-2.3281-2.1875-2.3281-1.25 0-2.2188 1.0938-2.2188 2.3281 0 1.2969 1.0312 2.25 2.2031 2.25 1.2031 0 2.2031-0.98438 2.2031-2.25zm-2.1875 2c-0.4375 0-0.875-0.20312-1.1406-0.67188-0.25-0.4375-0.25-1.0469-0.25-1.4062 0-0.39062 0-0.92188 0.23438-1.3594 0.26562-0.45312 0.73438-0.67188 1.1406-0.67188 0.4375 0 0.85938 0.21875 1.125 0.65625 0.26562 0.42188 0.26562 1 0.26562 1.375 0 0.35938 0 0.90625-0.21875 1.3438-0.23438 0.45312-0.67188 0.73438-1.1562 0.73438z"/>
</g>
<g id="i">
<path d="m1.0938-3.4219v2.6719c0 0.4375-0.10938 0.4375-0.78125 0.4375v0.3125c0.35938-0.015625 0.85938-0.03125 1.1406-0.03125 0.25 0 0.76562 0.015625 1.1094 0.03125v-0.3125c-0.67188 0-0.78125 0-0.78125-0.4375v-1.8438c0-1.0312 0.71875-1.5938 1.3438-1.5938 0.64062 0 0.75 0.53125 0.75 1.1094v2.3281c0 0.4375-0.10938 0.4375-0.78125 0.4375v0.3125c0.34375-0.015625 0.85938-0.03125 1.125-0.03125 0.25 0 0.78125 0.015625 1.1094 0.03125v-0.3125c-0.65625 0-0.76562 0-0.76562-0.4375v-1.8438c0-1.0312 0.70312-1.5938 1.3438-1.5938 0.625 0 0.73438 0.53125 0.73438 1.1094v2.3281c0 0.4375-0.10938 0.4375-0.78125 0.4375v0.3125c0.34375-0.015625 0.85938-0.03125 1.125-0.03125s0.78125 0.015625 1.125 0.03125v-0.3125c-0.51562 0-0.76562 0-0.78125-0.29688v-1.9062c0-0.85938 0-1.1562-0.3125-1.5156-0.14062-0.17188-0.46875-0.375-1.0469-0.375-0.82812 0-1.2812 0.59375-1.4375 0.98438-0.14062-0.875-0.875-0.98438-1.3281-0.98438-0.73438 0-1.2031 0.42188-1.4844 1.0469v-1.0469l-1.4062 0.10938v0.3125c0.70312 0 0.78125 0.0625 0.78125 0.5625z"/>
</g>
<g id="g">
<path d="m1.0938-3.4219v2.6719c0 0.4375-0.10938 0.4375-0.78125 0.4375v0.3125c0.35938-0.015625 0.85938-0.03125 1.1406-0.03125 0.25 0 0.76562 0.015625 1.1094 0.03125v-0.3125c-0.67188 0-0.78125 0-0.78125-0.4375v-1.8438c0-1.0312 0.71875-1.5938 1.3438-1.5938 0.64062 0 0.75 0.53125 0.75 1.1094v2.3281c0 0.4375-0.10938 0.4375-0.78125 0.4375v0.3125c0.34375-0.015625 0.85938-0.03125 1.125-0.03125 0.25 0 0.78125 0.015625 1.1094 0.03125v-0.3125c-0.51562 0-0.76562 0-0.76562-0.29688v-1.9062c0-0.85938 0-1.1562-0.3125-1.5156-0.14062-0.17188-0.46875-0.375-1.0469-0.375-0.73438 0-1.2031 0.42188-1.4844 1.0469v-1.0469l-1.4062 0.10938v0.3125c0.70312 0 0.78125 0.0625 0.78125 0.5625z"/>
</g>
<g id="e">
<path d="m1.7656-4.4062-1.3906 0.10938v0.3125c0.64062 0 0.73438 0.0625 0.73438 0.54688v2.6875c0 0.4375-0.10938 0.4375-0.78125 0.4375v0.3125c0.3125-0.015625 0.85938-0.03125 1.0938-0.03125 0.35938 0 0.70312 0.015625 1.0469 0.03125v-0.3125c-0.67188 0-0.70312-0.046875-0.70312-0.4375zm0.03125-1.7344c0-0.3125-0.23438-0.53125-0.51562-0.53125-0.3125 0-0.53125 0.26562-0.53125 0.53125s0.21875 0.53125 0.53125 0.53125c0.28125 0 0.51562-0.21875 0.51562-0.53125z"/>
</g>
<g id="l">
<path d="m1.0625-0.75c0 0.4375-0.10938 0.4375-0.78125 0.4375v0.3125c0.32812-0.015625 0.79688-0.03125 1.0781-0.03125 0.3125 0 0.70312 0.015625 1.1094 0.03125v-0.3125c-0.67188 0-0.78125 0-0.78125-0.4375v-1.0312l0.64062-0.54688c0.76562 1.0469 1.1875 1.6094 1.1875 1.7969s-0.17188 0.21875-0.35938 0.21875v0.3125c0.26562-0.015625 0.85938-0.03125 1.0781-0.03125 0.28125 0 0.57812 0.015625 0.85938 0.03125v-0.3125c-0.375 0-0.59375 0-0.96875-0.53125l-1.2656-1.7812c-0.015625-0.015625-0.0625-0.078125-0.0625-0.10938s0.71875-0.64062 0.8125-0.71875c0.625-0.5 1.0469-0.53125 1.25-0.53125v-0.3125c-0.28125 0.03125-0.40625 0.03125-0.6875 0.03125-0.35938 0-0.98438-0.015625-1.125-0.03125v0.3125c0.1875 0 0.29688 0.10938 0.29688 0.25 0 0.20312-0.14062 0.3125-0.21875 0.39062l-1.4062 1.2031v-4.7812l-1.4375 0.10938v0.3125c0.70312 0 0.78125 0.0625 0.78125 0.5625z"/>
</g>
<g id="h">
<path d="m3.3125-0.75c0.046875 0.39062 0.3125 0.8125 0.78125 0.8125 0.21875 0 0.82812-0.14062 0.82812-0.95312v-0.5625h-0.25v0.5625c0 0.57812-0.25 0.64062-0.35938 0.64062-0.32812 0-0.375-0.45312-0.375-0.5v-1.9844c0-0.42188 0-0.8125-0.35938-1.1875-0.39062-0.39062-0.89062-0.54688-1.3594-0.54688-0.82812 0-1.5156 0.46875-1.5156 1.125 0 0.29688 0.20312 0.46875 0.46875 0.46875 0.28125 0 0.45312-0.20312 0.45312-0.45312 0-0.125-0.046875-0.45312-0.51562-0.45312 0.28125-0.35938 0.76562-0.46875 1.0781-0.46875 0.5 0 1.0625 0.39062 1.0625 1.2812v0.35938c-0.51562 0.03125-1.2031 0.0625-1.8281 0.35938-0.75 0.34375-1 0.85938-1 1.2969 0 0.8125 0.96875 1.0625 1.5938 1.0625 0.65625 0 1.1094-0.40625 1.2969-0.85938zm-0.0625-1.6406v1c0 0.9375-0.71875 1.2812-1.1719 1.2812-0.48438 0-0.89062-0.34375-0.89062-0.84375 0-0.54688 0.42188-1.375 2.0625-1.4375z"/>
</g>
<g id="a">
<path d="m1.7188-3.9844h1.4375v-0.3125h-1.4375v-1.8281h-0.25c0 0.8125-0.29688 1.875-1.2812 1.9219v0.21875h0.84375v2.75c0 1.2188 0.9375 1.3438 1.2969 1.3438 0.70312 0 0.98438-0.70312 0.98438-1.3438v-0.5625h-0.25v0.54688c0 0.73438-0.29688 1.1094-0.67188 1.1094-0.67188 0-0.67188-0.90625-0.67188-1.0781z"/>
</g>
<g id="c">
<path d="m2.0781-1.9375c0.21875 0.046875 1.0312 0.20312 1.0312 0.92188 0 0.5-0.34375 0.90625-1.125 0.90625-0.84375 0-1.2031-0.5625-1.3906-1.4219-0.03125-0.125-0.03125-0.15625-0.14062-0.15625-0.125 0-0.125 0.0625-0.125 0.23438v1.3281c0 0.17188 0 0.23438 0.10938 0.23438 0.046875 0 0.0625-0.015625 0.25-0.20312 0.015625-0.015625 0.015625-0.03125 0.20312-0.21875 0.4375 0.40625 0.89062 0.42188 1.0938 0.42188 1.1406 0 1.6094-0.67188 1.6094-1.3906 0-0.51562-0.29688-0.82812-0.42188-0.9375-0.32812-0.32812-0.71875-0.40625-1.1406-0.48438-0.5625-0.10938-1.2188-0.23438-1.2188-0.8125 0-0.35938 0.25-0.76562 1.1094-0.76562 1.0938 0 1.1562 0.90625 1.1719 1.2031 0 0.09375 0.09375 0.09375 0.10938 0.09375 0.14062 0 0.14062-0.046875 0.14062-0.23438v-1.0156c0-0.15625 0-0.23438-0.10938-0.23438-0.046875 0-0.078125 0-0.20312 0.125-0.03125 0.03125-0.125 0.125-0.17188 0.15625-0.375-0.28125-0.78125-0.28125-0.9375-0.28125-1.2188 0-1.5938 0.67188-1.5938 1.2344 0 0.34375 0.15625 0.625 0.42188 0.84375 0.32812 0.25 0.60938 0.3125 1.3281 0.45312z"/>
</g>
<g id="q">
<path d="m3.4844-3.875-1.2812-0.29688c-0.625-0.15625-1-0.6875-1-1.2656 0-0.70312 0.53125-1.3125 1.3125-1.3125 1.6562 0 1.875 1.6406 1.9375 2.0781 0.015625 0.0625 0.015625 0.125 0.125 0.125 0.125 0 0.125-0.046875 0.125-0.23438v-2c0-0.17188 0-0.25-0.10938-0.25-0.0625 0-0.078125 0.015625-0.14062 0.14062l-0.35938 0.5625c-0.29688-0.29688-0.70312-0.70312-1.5938-0.70312-1.1094 0-1.9375 0.875-1.9375 1.9375 0 0.82812 0.53125 1.5625 1.2969 1.8281 0.10938 0.03125 0.625 0.15625 1.3281 0.32812 0.26562 0.0625 0.5625 0.14062 0.84375 0.5 0.20312 0.26562 0.3125 0.59375 0.3125 0.92188 0 0.70312-0.5 1.4219-1.3438 1.4219-0.28125 0-1.0469-0.046875-1.5781-0.53125-0.57812-0.54688-0.60938-1.1719-0.60938-1.5312-0.015625-0.10938-0.09375-0.10938-0.125-0.10938-0.125 0-0.125 0.078125-0.125 0.25v2c0 0.17188 0 0.23438 0.10938 0.23438 0.0625 0 0.078125-0.015625 0.14062-0.125 0-0.015625 0.03125-0.046875 0.35938-0.57812 0.3125 0.34375 0.95312 0.70312 1.8438 0.70312 1.1562 0 1.9531-0.96875 1.9531-2.0781 0-0.98438-0.65625-1.8125-1.4844-2.0156z"/>
</g>
<g id="k">
<path d="m1.1719-2.1719c0-1.625 0.8125-2.0469 1.3438-2.0469 0.09375 0 0.71875 0.015625 1.0625 0.375-0.40625 0.03125-0.46875 0.32812-0.46875 0.45312 0 0.26562 0.1875 0.45312 0.45312 0.45312s0.46875-0.15625 0.46875-0.46875c0-0.67188-0.76562-1.0625-1.5312-1.0625-1.25 0-2.1562 1.0781-2.1562 2.3125 0 1.2812 0.98438 2.2656 2.1406 2.2656 1.3281 0 1.6562-1.2031 1.6562-1.2969s-0.10938-0.09375-0.14062-0.09375c-0.078125 0-0.10938 0.03125-0.125 0.09375-0.28125 0.92188-0.9375 1.0469-1.2969 1.0469-0.53125 0-1.4062-0.42188-1.4062-2.0312z"/>
</g>
<g id="j">
<path d="m1.0938-0.75c0 0.4375-0.10938 0.4375-0.78125 0.4375v0.3125c0.35938-0.015625 0.85938-0.03125 1.1406-0.03125 0.25 0 0.76562 0.015625 1.1094 0.03125v-0.3125c-0.67188 0-0.78125 0-0.78125-0.4375v-1.8438c0-1.0312 0.71875-1.5938 1.3438-1.5938 0.64062 0 0.75 0.53125 0.75 1.1094v2.3281c0 0.4375-0.10938 0.4375-0.78125 0.4375v0.3125c0.34375-0.015625 0.85938-0.03125 1.125-0.03125 0.25 0 0.78125 0.015625 1.1094 0.03125v-0.3125c-0.51562 0-0.76562 0-0.76562-0.29688v-1.9062c0-0.85938 0-1.1562-0.3125-1.5156-0.14062-0.17188-0.46875-0.375-1.0469-0.375-0.84375 0-1.2812 0.59375-1.4531 0.98438v-3.5l-1.4375 0.10938v0.3125c0.70312 0 0.78125 0.0625 0.78125 0.5625z"/>
</g>
<g id="n">
<path d="m1.7188-3.7656v-3.1562l-1.4375 0.10938v0.3125c0.70312 0 0.78125 0.0625 0.78125 0.5625v5.9375h0.25c0-0.015625 0.078125-0.15625 0.35938-0.625 0.14062 0.23438 0.5625 0.73438 1.2969 0.73438 1.1875 0 2.2188-0.98438 2.2188-2.2656 0-1.2656-0.96875-2.25-2.1094-2.25-0.78125 0-1.2031 0.46875-1.3594 0.64062zm0.03125 2.625v-2.0469c0-0.1875 0-0.20312 0.10938-0.35938 0.39062-0.5625 0.9375-0.64062 1.1719-0.64062 0.45312 0 0.8125 0.26562 1.0469 0.64062 0.26562 0.40625 0.28125 0.96875 0.28125 1.3906 0 0.35938-0.015625 0.95312-0.29688 1.4062-0.21875 0.3125-0.59375 0.64062-1.125 0.64062-0.45312 0-0.8125-0.23438-1.0469-0.60938-0.14062-0.20312-0.14062-0.23438-0.14062-0.42188z"/>
</g>
<g id="y">
<path d="m4.3594-7.0938c0.0625-0.14062 0.0625-0.15625 0.0625-0.1875 0-0.10938-0.09375-0.20312-0.20312-0.20312-0.14062 0-0.1875 0.10938-0.21875 0.20312l-3.3906 9.3906c-0.046875 0.14062-0.046875 0.15625-0.046875 0.1875 0 0.10938 0.078125 0.20312 0.1875 0.20312 0.14062 0 0.1875-0.10938 0.21875-0.20312z"/>
</g>
<g id="x">
<path d="m5.7969-2.5781h-0.25c-0.10938 1.0156-0.25 2.2656-2 2.2656h-0.8125c-0.46875 0-0.48438-0.0625-0.48438-0.39062v-5.3125c0-0.34375 0-0.48438 0.9375-0.48438h0.32812v-0.3125c-0.35938 0.03125-1.2656 0.03125-1.6719 0.03125-0.39062 0-1.1719 0-1.5156-0.03125v0.3125h0.23438c0.76562 0 0.79688 0.10938 0.79688 0.46875v5.25c0 0.35938-0.03125 0.46875-0.79688 0.46875h-0.23438v0.3125h5.1875z"/>
</g>
<g id="p">
<path d="m1.7188-3.75v-0.65625l-1.4375 0.10938v0.3125c0.70312 0 0.78125 0.0625 0.78125 0.5v4.6562c0 0.45312-0.10938 0.45312-0.78125 0.45312v0.3125c0.34375-0.015625 0.85938-0.03125 1.1094-0.03125 0.28125 0 0.78125 0.015625 1.125 0.03125v-0.3125c-0.65625 0-0.76562 0-0.76562-0.45312v-1.7656c0.046875 0.17188 0.46875 0.70312 1.2188 0.70312 1.1875 0 2.2188-0.98438 2.2188-2.2656 0-1.2656-0.95312-2.25-2.0781-2.25-0.78125 0-1.2031 0.4375-1.3906 0.65625zm0.03125 2.6094v-2.2188c0.28125-0.51562 0.76562-0.79688 1.2812-0.79688 0.73438 0 1.3281 0.875 1.3281 2 0 1.2031-0.6875 2.0469-1.4219 2.0469-0.40625 0-0.78125-0.20312-1.0469-0.60938-0.14062-0.20312-0.14062-0.21875-0.14062-0.42188z"/>
</g>
<g id="w">
<path d="m2.2188-3.6562v-2.4375c0-0.34375 0.015625-0.40625 0.48438-0.40625h1.2344c0.96875 0 1.3125 0.84375 1.3125 1.375 0 0.64062-0.48438 1.4688-1.5938 1.4688zm2.3438 0.09375c0.96875-0.1875 1.6562-0.82812 1.6562-1.5625 0-0.85938-0.92188-1.6875-2.2188-1.6875h-3.6406v0.3125h0.23438c0.76562 0 0.79688 0.10938 0.79688 0.46875v5.25c0 0.35938-0.03125 0.46875-0.79688 0.46875h-0.23438v0.3125h3.9062c1.3281 0 2.2188-0.89062 2.2188-1.8281 0-0.85938-0.8125-1.6094-1.9219-1.7344zm-0.60938 3.25h-1.25c-0.46875 0-0.48438-0.0625-0.48438-0.39062v-2.7188h1.875c0.98438 0 1.4062 0.92188 1.4062 1.5938 0 0.70312-0.53125 1.5156-1.5469 1.5156z"/>
</g>
<g id="t">
<path d="m1.75-4.2969v-1.1562c0-0.875 0.46875-1.3594 0.90625-1.3594 0.03125 0 0.1875 0 0.32812 0.078125-0.10938 0.03125-0.29688 0.17188-0.29688 0.42188 0 0.21875 0.15625 0.42188 0.4375 0.42188s0.4375-0.20312 0.4375-0.4375c0-0.375-0.375-0.70312-0.90625-0.70312-0.6875 0-1.5469 0.53125-1.5469 1.5938v1.1406h-0.78125v0.3125h0.78125v3.2344c0 0.4375-0.10938 0.4375-0.76562 0.4375v0.3125c0.39062-0.015625 0.85938-0.03125 1.125-0.03125 0.40625 0 0.875 0 1.2656 0.03125v-0.3125h-0.20312c-0.73438 0-0.75-0.10938-0.75-0.46875v-3.2031h1.125v-0.3125z"/>
</g>
<g id="ab">
<path d="m3.7812-0.54688v0.65625l1.4688-0.10938v-0.3125c-0.6875 0-0.78125-0.0625-0.78125-0.5625v-6.0469l-1.4219 0.10938v0.3125c0.6875 0 0.76562 0.0625 0.76562 0.5625v2.1562c-0.28125-0.35938-0.71875-0.625-1.25-0.625-1.1719 0-2.2188 0.98438-2.2188 2.2656 0 1.2656 0.96875 2.25 2.1094 2.25 0.64062 0 1.0781-0.34375 1.3281-0.65625zm0-2.6719v2.0469c0 0.17188 0 0.1875-0.10938 0.35938-0.29688 0.48438-0.73438 0.70312-1.1719 0.70312-0.45312 0-0.8125-0.26562-1.0469-0.64062-0.25-0.40625-0.28125-0.96875-0.28125-1.3906 0-0.35938 0.015625-0.95312 0.29688-1.4062 0.21875-0.3125 0.59375-0.64062 1.1406-0.64062 0.34375 0 0.76562 0.15625 1.0625 0.59375 0.10938 0.17188 0.10938 0.1875 0.10938 0.375z"/>
</g>
<g id="m">
<path d="m2.2656-3.1562h1.6875c1.1875 0 2.2656-0.79688 2.2656-1.7969 0-0.98438-0.98438-1.8594-2.3438-1.8594h-3.5312v0.3125h0.25c0.76562 0 0.78125 0.10938 0.78125 0.46875v5.25c0 0.35938-0.015625 0.46875-0.78125 0.46875h-0.25v0.3125c0.35938-0.03125 1.0938-0.03125 1.4688-0.03125s1.125 0 1.4844 0.03125v-0.3125h-0.25c-0.76562 0-0.78125-0.10938-0.78125-0.46875zm-0.03125-0.25v-2.6875c0-0.34375 0.015625-0.40625 0.48438-0.40625h0.89062c1.5781 0 1.5781 1.0625 1.5781 1.5469 0 0.46875 0 1.5469-1.5781 1.5469z"/>
</g>
<g id="s">
<path d="m2.75-1.8594v-0.57812h-2.6406v0.57812z"/>
</g>
<g id="aa">
<path d="m2.2188-1.7188c-0.875 0-0.875-1-0.875-1.2188 0-0.26562 0.015625-0.59375 0.15625-0.84375 0.078125-0.10938 0.3125-0.39062 0.71875-0.39062 0.85938 0 0.85938 0.98438 0.85938 1.2188 0 0.26562 0 0.59375-0.15625 0.84375-0.078125 0.10938-0.3125 0.39062-0.70312 0.39062zm-1.1562 0.39062c0-0.03125 0-0.26562 0.15625-0.46875 0.39062 0.28125 0.8125 0.3125 1 0.3125 0.92188 0 1.6094-0.6875 1.6094-1.4531 0-0.375-0.15625-0.73438-0.40625-0.96875 0.35938-0.34375 0.71875-0.39062 0.89062-0.39062 0.03125 0 0.078125 0 0.10938 0.015625-0.10938 0.03125-0.17188 0.14062-0.17188 0.26562 0 0.17188 0.14062 0.28125 0.29688 0.28125 0.09375 0 0.28125-0.0625 0.28125-0.29688 0-0.17188-0.10938-0.48438-0.5-0.48438-0.20312 0-0.64062 0.0625-1.0625 0.46875-0.42188-0.32812-0.82812-0.35938-1.0469-0.35938-0.9375 0-1.625 0.6875-1.625 1.4531 0 0.4375 0.21875 0.8125 0.46875 1.0312-0.125 0.14062-0.3125 0.46875-0.3125 0.82812 0 0.3125 0.14062 0.6875 0.45312 0.89062-0.60938 0.15625-0.92188 0.59375-0.92188 0.98438 0 0.71875 0.98438 1.2656 2.2031 1.2656 1.1719 0 2.2031-0.5 2.2031-1.2812 0-0.34375-0.125-0.85938-0.64062-1.1406-0.53125-0.26562-1.1094-0.26562-1.7188-0.26562-0.25 0-0.67188 0-0.75-0.015625-0.3125-0.046875-0.51562-0.34375-0.51562-0.67188zm1.4375 3.1562c-1.0156 0-1.7031-0.51562-1.7031-1.0469 0-0.45312 0.375-0.82812 0.8125-0.84375h0.59375c0.85938 0 1.9688 0 1.9688 0.84375 0 0.54688-0.70312 1.0469-1.6719 1.0469z"/>
</g>
<g id="z">
<path d="m6.1094-6.0312c0-0.35938 0.015625-0.46875 0.78125-0.46875h0.25v-0.3125c-0.35938 0.03125-1.0938 0.03125-1.4688 0.03125s-1.125 0-1.4688-0.03125v0.3125h0.23438c0.76562 0 0.78125 0.10938 0.78125 0.46875v2.3281h-2.9688v-2.3281c0-0.35938 0.015625-0.46875 0.78125-0.46875h0.23438v-0.3125c-0.34375 0.03125-1.0781 0.03125-1.4688 0.03125-0.375 0-1.125 0-1.4688-0.03125v0.3125h0.23438c0.76562 0 0.79688 0.10938 0.79688 0.46875v5.25c0 0.35938-0.03125 0.46875-0.79688 0.46875h-0.23438v0.3125c0.34375-0.03125 1.0938-0.03125 1.4688-0.03125s1.125 0 1.4688 0.03125v-0.3125h-0.23438c-0.76562 0-0.78125-0.10938-0.78125-0.46875v-2.6094h2.9688v2.6094c0 0.35938-0.015625 0.46875-0.78125 0.46875h-0.23438v0.3125c0.34375-0.03125 1.0781-0.03125 1.4531-0.03125 0.39062 0 1.125 0 1.4844 0.03125v-0.3125h-0.25c-0.76562 0-0.78125-0.10938-0.78125-0.46875z"/>
</g>
<clipPath id="ba">
<path d="m220 227h71v36.664h-71z"/>
</clipPath>
<clipPath id="az">
<path d="m21 227h71v36.664h-71z"/>
</clipPath>
<clipPath id="ao">
<path d="m91 156h130v2h-130z"/>
</clipPath>
<clipPath id="aj">
<path d="m-0.47266-0.33594v264h371v-264zm215.39 158.94h5.5117v-3.7773h-5.5117l4.7227 1.8906z" clip-rule="evenodd"/>
</clipPath>
<clipPath id="ai">
<path d="m255 213h1v22h-1z"/>
</clipPath>
<clipPath id="ah">
<path d="m-0.47266-0.33594v264h371v-264zm257.75 218.79v-5.5117h-3.7812v5.5117l1.8906-4.7266z" clip-rule="evenodd"/>
</clipPath>
<clipPath id="ag">
<path d="m56 71h2v23h-2z"/>
</clipPath>
<clipPath id="af">
<path d="m-0.47266-0.33594v264h371v-264zm55.523 88.223v5.5117h3.7812v-5.5117l-1.8906 4.7227z" clip-rule="evenodd"/>
</clipPath>
<clipPath id="ae">
<path d="m255 71h1v23h-1z"/>
</clipPath>
<clipPath id="ad">
<path d="m-0.47266-0.33594v264h371v-264zm257.75 77.039v-5.5117h-3.7812v5.5117l1.8906-4.7266z" clip-rule="evenodd"/>
</clipPath>
<clipPath id="ay">
<path d="m91 57h130v1h-130z"/>
</clipPath>
<clipPath id="ax">
<path d="m-0.47266-0.33594v264h371v-264zm215.39 59.715h5.5117v-3.7812h-5.5117l4.7227 1.8906z" clip-rule="evenodd"/>
</clipPath>
<clipPath id="aw">
<path d="m56 114h2v22h-2z"/>
</clipPath>
<clipPath id="av">
<path d="m-0.47266-0.33594v264h371v-264zm55.523 130.75v5.5117h3.7812v-5.5117l-1.8906 4.7266z" clip-rule="evenodd"/>
</clipPath>
<clipPath id="au">
<path d="m255 114h1v22h-1z"/>
</clipPath>
<clipPath id="at">
<path d="m-0.47266-0.33594v264h371v-264zm257.75 119.56v-5.5117h-3.7812v5.5117l1.8906-4.7227z" clip-rule="evenodd"/>
</clipPath>
<clipPath id="as">
<path d="m56 163h2v23h-2z"/>
</clipPath>
<clipPath id="ar">
<path d="m-0.47266-0.33594v264h371v-264zm55.523 180.36v5.5117h3.7812v-5.5117l-1.8906 4.7266z" clip-rule="evenodd"/>
</clipPath>
<clipPath id="aq">
<path d="m255 163h1v23h-1z"/>
</clipPath>
<clipPath id="ap">
<path d="m-0.47266-0.33594v264h371v-264zm257.75 169.18v-5.5117h-3.7812v5.5117l1.8906-4.7227z" clip-rule="evenodd"/>
</clipPath>
<clipPath id="an">
<path d="m56 214h2v23h-2z"/>
</clipPath>
<clipPath id="am">
<path d="m-0.47266-0.33594v264h371v-264zm55.523 231.39v5.5117h3.7812v-5.5117l-1.8906 4.7227z" clip-rule="evenodd"/>
</clipPath>
<clipPath id="al">
<path d="m91 255h130v2h-130z"/>
</clipPath>
<clipPath id="ak">
<path d="m-0.47266-0.33594v264h371v-264zm215.39 258.16h5.5117v-3.7812h-5.5117l4.7227 1.8906z" clip-rule="evenodd"/>
</clipPath>
</defs>
<path transform="matrix(.1 0 0 -.1 -.472 263.66)" d="m2308.2 1282.1c-18.281 0-33.086-14.805-33.086-33.086v-217.34c0-18.281 14.805-33.086 33.086-33.086h500.86c18.281 0 33.047 14.805 33.047 33.086v217.34c0 18.281-14.766 33.086-33.047 33.086z" fill="none" stroke="#000" stroke-miterlimit="10" stroke-width="4.725"/>
<path transform="matrix(.1 0 0 -.1 -.472 263.66)" d="m2842.1 1608.2h850.51" fill="none" stroke="#000" stroke-dasharray="4.725 14.175" stroke-dashoffset="14.175" stroke-miterlimit="10" stroke-width="4.725"/>
<g clip-path="url(#ba)">
<path transform="matrix(.1 0 0 -.1 -.472 263.66)" d="m2308.2 289.87c-18.281 0-33.086-14.805-33.086-33.086v-217.34c0-18.242 14.805-33.086 33.086-33.086h500.86c18.281 0 33.047 14.844 33.047 33.086v217.34c0 18.281-14.766 33.086-33.047 33.086z" fill="none" stroke="#000" stroke-miterlimit="10" stroke-width="4.725"/>
</g>
<path transform="matrix(.1 0 0 -.1 -.472 263.66)" d="m7.1419 644.25h212.62" fill="none" stroke="#000" stroke-dasharray="4.725 14.175" stroke-dashoffset="14.175" stroke-miterlimit="10" stroke-width="4.725"/>
<path transform="matrix(.1 0 0 -.1 -.472 263.66)" d="m928.51 644.25h1275.7" fill="none" stroke="#000" stroke-dasharray="4.725 14.175" stroke-dashoffset="14.175" stroke-miterlimit="10" stroke-width="4.725"/>
<path transform="matrix(.1 0 0 -.1 -.472 263.66)" d="m2275.1 1494.8h566.99v212.62h-566.99z" fill="none" stroke="#000" stroke-dasharray="18.9" stroke-miterlimit="10" stroke-width="4.725"/>
<path transform="matrix(.1 0 0 -.1 -.472 263.66)" d="m7.1419 1608.2h354.38" fill="none" stroke="#000" stroke-dasharray="4.725 14.175" stroke-dashoffset="14.175" stroke-miterlimit="10" stroke-width="4.725"/>
<path transform="matrix(.1 0 0 -.1 -.472 263.66)" d="m786.75 1608.2h1488.4" fill="none" stroke="#000" stroke-dasharray="4.725 14.175" stroke-dashoffset="14.175" stroke-miterlimit="10" stroke-width="4.725"/>
<path transform="matrix(.1 0 0 -.1 -.472 263.66)" d="m2913 644.25h779.61" fill="none" stroke="#000" stroke-dasharray="4.725 14.175" stroke-dashoffset="14.175" stroke-miterlimit="10" stroke-width="2.3625"/>
<path transform="matrix(.1 0 0 -.1 -.472 263.66)" d="m323.7 1282.1c-18.281 0-33.086-14.805-33.086-33.086v-217.34c0-18.281 14.805-33.086 33.086-33.086h500.86c18.242 0 33.047 14.805 33.047 33.086v217.34c0 18.281-14.805 33.086-33.047 33.086z" fill="none" stroke="#000" stroke-miterlimit="10" stroke-width="4.725"/>
<g clip-path="url(#az)">
<path transform="matrix(.1 0 0 -.1 -.472 263.66)" d="m323.7 289.87c-18.281 0-33.086-14.805-33.086-33.086v-217.34c0-18.242 14.805-33.086 33.086-33.086h500.86c18.242 0 33.047 14.844 33.047 33.086v217.34c0 18.281-14.805 33.086-33.047 33.086z" fill="none" stroke="#000" stroke-miterlimit="10" stroke-width="4.725"/>
</g>
<path transform="matrix(.1 0 0 -.1 -.472 263.66)" d="m361.52 1494.8h425.23v212.62h-425.23z" fill="none" stroke="#000" stroke-dasharray="18.9" stroke-miterlimit="10" stroke-width="4.725"/>
<path transform="matrix(.1 0 0 -.1 -.472 263.66)" d="m574.13 2345.3v-141.76" fill="none" stroke="#000" stroke-miterlimit="10" stroke-width="2.3625"/>
<path transform="matrix(.1 0 0 -.1 -.472 263.66)" d="m574.13 2203.5 141.76 70.859" fill="none" stroke="#000" stroke-miterlimit="10" stroke-width="4.725"/>
<path transform="matrix(.1 0 0 -.1 -.472 263.66)" d="m574.13 2203.5-141.76 70.859" fill="none" stroke="#000" stroke-miterlimit="10" stroke-width="4.725"/>
<path transform="matrix(.1 0 0 -.1 -.472 263.66)" d="m574.13 2203.5v-141.76" fill="none" stroke="#000" stroke-miterlimit="10" stroke-width="4.725"/>
<path transform="matrix(.1 0 0 -.1 -.472 263.66)" d="m574.13 2061.7-141.76-141.76" fill="none" stroke="#000" stroke-miterlimit="10" stroke-width="4.725"/>
<path transform="matrix(.1 0 0 -.1 -.472 263.66)" d="m574.13 2061.7 141.76-141.76" fill="none" stroke="#000" stroke-miterlimit="10" stroke-width="4.725"/>
<g clip-path="url(#ao)">
<g clip-path="url(#aj)">
<path transform="matrix(.1 0 0 -.1 -.472 263.66)" d="m928.51 1069.5h1275.7" fill="none" stroke="#000" stroke-miterlimit="10" stroke-width="9.45"/>
</g>
</g>
<path d="m214.91 158.6 4.7227-1.8867-4.7227-1.8906 0.94531 1.8906-0.94531 1.8867" fill-rule="evenodd"/>
<path transform="matrix(.1 0 0 -.1 -.472 263.66)" d="m2153.9 1050.6 47.227 18.867-47.227 18.906 9.4531-18.906z" fill="none" stroke="#000" stroke-miterlimit="10" stroke-width="2.3625"/>
<path transform="matrix(.1 0 0 -.1 -.472 263.66)" d="m2558.6 2345.3v-141.76" fill="none" stroke="#000" stroke-miterlimit="10" stroke-width="2.3625"/>
<path transform="matrix(.1 0 0 -.1 -.472 263.66)" d="m2558.6 2203.5 141.76 70.859" fill="none" stroke="#000" stroke-miterlimit="10" stroke-width="4.725"/>
<path transform="matrix(.1 0 0 -.1 -.472 263.66)" d="m2558.6 2203.5-141.76 70.859" fill="none" stroke="#000" stroke-miterlimit="10" stroke-width="4.725"/>
<path transform="matrix(.1 0 0 -.1 -.472 263.66)" d="m2558.6 2203.5v-141.76" fill="none" stroke="#000" stroke-miterlimit="10" stroke-width="4.725"/>
<path transform="matrix(.1 0 0 -.1 -.472 263.66)" d="m2558.6 2061.7-141.76-141.76" fill="none" stroke="#000" stroke-miterlimit="10" stroke-width="4.725"/>
<path transform="matrix(.1 0 0 -.1 -.472 263.66)" d="m2558.6 2061.7 141.76-141.76" fill="none" stroke="#000" stroke-miterlimit="10" stroke-width="4.725"/>
<g clip-path="url(#ai)">
<g clip-path="url(#ah)">
<path transform="matrix(.1 0 0 -.1 -.472 263.66)" d="m2558.6 502.49v-212.62" fill="none" stroke="#000" stroke-miterlimit="10" stroke-width="2.3625"/>
</g>
</g>
<path d="m257.28 218.45-1.8906-4.7266-1.8906 4.7266 1.8906-0.94531 1.8906 0.94531" fill-rule="evenodd"/>
<path transform="matrix(.1 0 0 -.1 -.472 263.66)" d="m2577.5 452.1-18.906 47.266-18.906-47.266 18.906 9.4531z" fill="none" stroke="#000" stroke-miterlimit="10" stroke-width="2.3625"/>
<path transform="matrix(.1 0 0 -.1 -.472 263.66)" d="m2204.3 502.49h708.75v283.52h-708.75z" fill="none" stroke="#000" stroke-dasharray="18.9" stroke-miterlimit="10" stroke-width="4.725"/>
<path transform="matrix(.1 0 0 -.1 -.472 263.66)" d="m219.76 502.49h708.75v283.52h-708.75z" fill="none" stroke="#000" stroke-dasharray="18.9" stroke-miterlimit="10" stroke-width="4.725"/>
<path transform="matrix(.1 0 0 -.1 -.472 263.66)" d="m644.99 2416.1c0-39.141-31.719-70.859-70.859-70.859s-70.898 31.719-70.898 70.859 31.758 70.859 70.898 70.859 70.859-31.719 70.859-70.859z" fill="none" stroke="#000" stroke-miterlimit="10" stroke-width="4.725"/>
<path transform="matrix(.1 0 0 -.1 -.472 263.66)" d="m2629.5 2416.1c0-39.141-31.719-70.859-70.859-70.859s-70.859 31.719-70.859 70.859 31.719 70.859 70.859 70.859 70.859-31.719 70.859-70.859z" fill="none" stroke="#000" stroke-miterlimit="10" stroke-width="4.725"/>
<g clip-path="url(#ag)">
<g clip-path="url(#af)">
<path transform="matrix(.1 0 0 -.1 -.472 263.66)" d="m574.13 1920v-212.62" fill="none" stroke="#000" stroke-miterlimit="10" stroke-width="2.3625"/>
</g>
</g>
<path d="m55.051 87.887 1.8906 4.7227 1.8906-4.7227-1.8906 0.94531-1.8906-0.94531" fill-rule="evenodd"/>
<path transform="matrix(.1 0 0 -.1 -.472 263.66)" d="m555.23 1757.8 18.906-47.227 18.906 47.227-18.906-9.4531z" fill="none" stroke="#000" stroke-miterlimit="10" stroke-width="2.3625"/>
<g clip-path="url(#ae)">
<g clip-path="url(#ad)">
<path transform="matrix(.1 0 0 -.1 -.472 263.66)" d="m2558.6 1920v-212.62" fill="none" stroke="#000" stroke-miterlimit="10" stroke-width="2.3625"/>
</g>
</g>
<path d="m257.28 76.703-1.8906-4.7266-1.8906 4.7266 1.8906-0.94531 1.8906 0.94531" fill-rule="evenodd"/>
<path transform="matrix(.1 0 0 -.1 -.472 263.66)" d="m2577.5 1869.6-18.906 47.266-18.906-47.266 18.906 9.4531z" fill="none" stroke="#000" stroke-miterlimit="10" stroke-width="2.3625"/>
<g clip-path="url(#ay)">
<g clip-path="url(#ax)">
<path transform="matrix(.1 0 0 -.1 -.472 263.66)" d="m928.51 2061.7h1275.7" fill="none" stroke="#000" stroke-miterlimit="10" stroke-width="9.45"/>
</g>
</g>
<path d="m214.91 59.379 4.7227-1.8906-4.7227-1.8906 0.94531 1.8906-0.94531 1.8906" fill-rule="evenodd"/>
<path transform="matrix(.1 0 0 -.1 -.472 263.66)" d="m2153.9 2042.8 47.227 18.906-47.227 18.906 9.4531-18.906z" fill="none" stroke="#000" stroke-miterlimit="10" stroke-width="2.3625"/>
<g clip-path="url(#aw)">
<g clip-path="url(#av)">
<path transform="matrix(.1 0 0 -.1 -.472 263.66)" d="m574.13 1494.8v-212.62" fill="none" stroke="#000" stroke-miterlimit="10" stroke-width="2.3625"/>
</g>
</g>
<path d="m55.051 130.41 1.8906 4.7266 1.8906-4.7266-1.8906 0.94531-1.8906-0.94531" fill-rule="evenodd"/>
<path transform="matrix(.1 0 0 -.1 -.472 263.66)" d="m555.23 1332.5 18.906-47.266 18.906 47.266-18.906-9.4531z" fill="none" stroke="#000" stroke-miterlimit="10" stroke-width="2.3625"/>
<g clip-path="url(#au)">
<g clip-path="url(#at)">
<path transform="matrix(.1 0 0 -.1 -.472 263.66)" d="m2558.6 1494.8v-212.62" fill="none" stroke="#000" stroke-miterlimit="10" stroke-width="2.3625"/>
</g>
</g>
<path d="m257.28 119.23-1.8906-4.7227-1.8906 4.7227 1.8906-0.94531 1.8906 0.94531" fill-rule="evenodd"/>
<path transform="matrix(.1 0 0 -.1 -.472 263.66)" d="m2577.5 1444.4-18.906 47.227-18.906-47.227 18.906 9.4531z" fill="none" stroke="#000" stroke-miterlimit="10" stroke-width="2.3625"/>
<g clip-path="url(#as)">
<g clip-path="url(#ar)">
<path transform="matrix(.1 0 0 -.1 -.472 263.66)" d="m574.13 998.62v-212.62" fill="none" stroke="#000" stroke-miterlimit="10" stroke-width="2.3625"/>
</g>
</g>
<path d="m55.051 180.02 1.8906 4.7266 1.8906-4.7266-1.8906 0.94531-1.8906-0.94531" fill-rule="evenodd"/>
<path transform="matrix(.1 0 0 -.1 -.472 263.66)" d="m555.23 836.4 18.906-47.266 18.906 47.266-18.906-9.4531z" fill="none" stroke="#000" stroke-miterlimit="10" stroke-width="2.3625"/>
<g clip-path="url(#aq)">
<g clip-path="url(#ap)">
<path transform="matrix(.1 0 0 -.1 -.472 263.66)" d="m2558.6 998.62v-212.62" fill="none" stroke="#000" stroke-miterlimit="10" stroke-width="2.3625"/>
</g>
</g>
<path d="m257.28 168.84-1.8906-4.7227-1.8906 4.7227 1.8906-0.94531 1.8906 0.94531" fill-rule="evenodd"/>
<path transform="matrix(.1 0 0 -.1 -.472 263.66)" d="m2577.5 948.23-18.906 47.227-18.906-47.227 18.906 9.4531z" fill="none" stroke="#000" stroke-miterlimit="10" stroke-width="2.3625"/>
<g clip-path="url(#an)">
<g clip-path="url(#am)">
<path transform="matrix(.1 0 0 -.1 -.472 263.66)" d="m574.13 488.31v-212.62" fill="none" stroke="#000" stroke-miterlimit="10" stroke-width="2.3625"/>
</g>
</g>
<path d="m55.051 231.05 1.8906 4.7227 1.8906-4.7227-1.8906 0.94531-1.8906-0.94531" fill-rule="evenodd"/>
<path transform="matrix(.1 0 0 -.1 -.472 263.66)" d="m555.23 326.08 18.906-47.227 18.906 47.227-18.906-9.4531z" fill="none" stroke="#000" stroke-miterlimit="10" stroke-width="2.3625"/>
<g clip-path="url(#al)">
<g clip-path="url(#ak)">
<path transform="matrix(.1 0 0 -.1 -.472 263.66)" d="m928.51 77.255h1275.7" fill="none" stroke="#000" stroke-miterlimit="10" stroke-width="9.45"/>
</g>
</g>
<path d="m214.91 257.83 4.7227-1.8906-4.7227-1.8906 0.94531 1.8906-0.94531 1.8906" fill-rule="evenodd"/>
<path transform="matrix(.1 0 0 -.1 -.472 263.66)" d="m2153.9 58.349 47.227 18.906-47.227 18.906 9.4531-18.906z" fill="none" stroke="#000" stroke-miterlimit="10" stroke-width="2.3625"/>
<g>
<use x="41.235" y="7.836" xlink:href="#ac"/>
<use x="50.644" y="8.27" xlink:href="#u"/>
<use x="50.367" y="7.836" xlink:href="#o"/>
<use x="55.902221" y="7.836" xlink:href="#r"/>
<use x="58.669831" y="7.836" xlink:href="#r"/>
<use x="61.437441" y="7.836" xlink:href="#b"/>
<use x="65.864821" y="7.836" xlink:href="#d"/>
<use x="67.165" y="48.941" xlink:href="#v"/>
<use x="74.91391" y="48.941" xlink:href="#f"/>
<use x="79.89521" y="48.941" xlink:href="#i"/>
<use x="88.197045" y="48.941" xlink:href="#i"/>
<use x="96.219927" y="48.941" xlink:href="#o"/>
<use x="101.755147" y="48.941" xlink:href="#g"/>
<use x="107.290368" y="48.941" xlink:href="#e"/>
<use x="110.057978" y="48.941" xlink:href="#l"/>
<use x="114.768295" y="48.941" xlink:href="#h"/>
<use x="119.749595" y="48.941" xlink:href="#a"/>
<use x="123.62405" y="48.941" xlink:href="#e"/>
<use x="126.391661" y="48.941" xlink:href="#f"/>
<use x="131.372961" y="48.941" xlink:href="#g"/>
<use x="140.225727" y="48.941" xlink:href="#i"/>
<use x="148.527562" y="48.941" xlink:href="#e"/>
<use x="151.295172" y="48.941" xlink:href="#a"/>
<use x="155.169627" y="48.941" xlink:href="#a"/>
<use x="159.044082" y="48.941" xlink:href="#b"/>
<use x="163.471462" y="48.941" xlink:href="#r"/>
<use x="166.239072" y="48.941" xlink:href="#c"/>
<use x="173.485867" y="48.941" xlink:href="#q"/>
<use x="179.021088" y="48.941" xlink:href="#k"/>
<use x="183.179477" y="48.941" xlink:href="#j"/>
<use x="188.704735" y="48.941" xlink:href="#d"/>
<use x="192.607085" y="48.941" xlink:href="#b"/>
<use x="197.034465" y="48.941" xlink:href="#e"/>
<use x="199.802075" y="48.941" xlink:href="#n"/>
<use x="205.616248" y="48.941" xlink:href="#b"/>
<use x="210.043628" y="48.941" xlink:href="#g"/>
<use x="215.578848" y="48.941" xlink:href="#y"/>
<use x="220.560148" y="48.941" xlink:href="#x"/>
<use x="226.786773" y="48.941" xlink:href="#b"/>
<use x="231.214153" y="48.941" xlink:href="#c"/>
<use x="235.143402" y="48.941" xlink:href="#b"/>
<use x="239.570782" y="48.941" xlink:href="#g"/>
<use x="100.277" y="149.577" xlink:href="#v"/>
<use x="108.02591" y="149.577" xlink:href="#f"/>
<use x="113.00721" y="149.577" xlink:href="#i"/>
<use x="121.309045" y="149.577" xlink:href="#i"/>
<use x="129.331927" y="149.577" xlink:href="#o"/>
<use x="134.867147" y="149.577" xlink:href="#g"/>
<use x="140.402368" y="149.577" xlink:href="#e"/>
<use x="143.169978" y="149.577" xlink:href="#l"/>
<use x="147.880295" y="149.577" xlink:href="#h"/>
<use x="152.861595" y="149.577" xlink:href="#a"/>
<use x="156.73605" y="149.577" xlink:href="#e"/>
<use x="159.503661" y="149.577" xlink:href="#f"/>
<use x="164.484961" y="149.577" xlink:href="#g"/>
<use x="173.337727" y="149.577" xlink:href="#p"/>
<use x="179.1519" y="149.577" xlink:href="#b"/>
<use x="183.57928" y="149.577" xlink:href="#d"/>
<use x="190.799176" y="149.577" xlink:href="#w"/>
<use x="197.855686" y="149.577" xlink:href="#d"/>
<use x="201.758036" y="149.577" xlink:href="#e"/>
<use x="204.525646" y="149.577" xlink:href="#b"/>
<use x="208.953026" y="149.577" xlink:href="#t"/>
<use x="237.506" y="7.836" xlink:href="#q"/>
<use x="243.041221" y="7.836" xlink:href="#k"/>
<use x="247.189647" y="7.836" xlink:href="#j"/>
<use x="252.724868" y="7.836" xlink:href="#i"/>
<use x="261.026702" y="7.836" xlink:href="#e"/>
<use x="263.794313" y="7.836" xlink:href="#ab"/>
<use x="269.329533" y="7.836" xlink:href="#a"/>
<use x="32.661" y="207.691" xlink:href="#n"/>
<use x="38.196221" y="207.691" xlink:href="#d"/>
<use x="42.098571" y="207.691" xlink:href="#e"/>
<use x="44.866181" y="207.691" xlink:href="#b"/>
<use x="49.293561" y="207.691" xlink:href="#t"/>
<use x="52.338131" y="207.691" xlink:href="#l"/>
<use x="57.038486" y="207.691" xlink:href="#h"/>
<use x="62.019786" y="207.691" xlink:href="#c"/>
<use x="65.949035" y="207.691" xlink:href="#a"/>
<use x="69.823491" y="207.691" xlink:href="#b"/>
<use x="74.25087" y="207.691" xlink:href="#g"/>
<use x="47.274" y="251.631" xlink:href="#m"/>
<use x="53.775593" y="251.631" xlink:href="#f"/>
<use x="58.756893" y="251.631" xlink:href="#c"/>
<use x="62.686142" y="251.631" xlink:href="#a"/>
<use x="38.764" y="152.412" xlink:href="#q"/>
<use x="44.299221" y="152.412" xlink:href="#b"/>
<use x="48.7266" y="152.412" xlink:href="#l"/>
<use x="53.98486" y="152.412" xlink:href="#d"/>
<use x="57.887211" y="152.412" xlink:href="#b"/>
<use x="62.31459" y="152.412" xlink:href="#a"/>
<use x="66.189" y="152.846" xlink:href="#u"/>
<use x="66.189" y="152.412" xlink:href="#h"/>
<use x="71.1703" y="152.412" xlink:href="#d"/>
<use x="120.427" y="248.796" xlink:href="#m"/>
<use x="126.928593" y="248.796" xlink:href="#f"/>
<use x="131.909893" y="248.796" xlink:href="#c"/>
<use x="135.839142" y="248.796" xlink:href="#a"/>
<use x="139.713597" y="248.796" xlink:href="#a"/>
<use x="143.588052" y="248.796" xlink:href="#d"/>
<use x="147.490403" y="248.796" xlink:href="#h"/>
<use x="152.471703" y="248.796" xlink:href="#g"/>
<use x="158.006923" y="248.796" xlink:href="#c"/>
<use x="161.936173" y="248.796" xlink:href="#p"/>
<use x="167.750346" y="248.796" xlink:href="#f"/>
<use x="172.731646" y="248.796" xlink:href="#d"/>
<use x="176.633997" y="248.796" xlink:href="#a"/>
<use x="304.965" y="44.688" xlink:href="#q"/>
<use x="310.500221" y="44.688" xlink:href="#k"/>
<use x="314.648647" y="44.688" xlink:href="#j"/>
<use x="320.183868" y="44.688" xlink:href="#d"/>
<use x="324.086218" y="44.688" xlink:href="#b"/>
<use x="328.513598" y="44.688" xlink:href="#e"/>
<use x="331.281208" y="44.688" xlink:href="#n"/>
<use x="336.816428" y="44.688" xlink:href="#y"/>
<use x="341.797728" y="44.688" xlink:href="#x"/>
<use x="348.024353" y="44.688" xlink:href="#b"/>
<use x="352.451733" y="44.688" xlink:href="#c"/>
<use x="356.380982" y="44.688" xlink:href="#b"/>
<use x="360.808362" y="44.688" xlink:href="#s"/>
<use x="304.965" y="56.973" xlink:href="#c"/>
<use x="308.894249" y="56.973" xlink:href="#k"/>
<use x="313.042676" y="56.973" xlink:href="#j"/>
<use x="318.577897" y="56.973" xlink:href="#e"/>
<use x="321.345507" y="56.973" xlink:href="#k"/>
<use x="325.503896" y="56.973" xlink:href="#j"/>
<use x="330.760164" y="56.973" xlink:href="#a"/>
<use x="30.101" y="194.934" xlink:href="#aa"/>
<use x="35.0823" y="194.934" xlink:href="#b"/>
<use x="39.509679" y="194.934" xlink:href="#r"/>
<use x="42.27729" y="194.934" xlink:href="#n"/>
<use x="48.091463" y="194.934" xlink:href="#b"/>
<use x="52.518843" y="194.934" xlink:href="#d"/>
<use x="59.738739" y="194.934" xlink:href="#m"/>
<use x="66.240331" y="194.934" xlink:href="#f"/>
<use x="71.221631" y="194.934" xlink:href="#c"/>
<use x="75.150881" y="194.934" xlink:href="#a"/>
<use x="79.025336" y="194.934" xlink:href="#s"/>
<use x="233.051" y="152.412" xlink:href="#q"/>
<use x="238.586221" y="152.412" xlink:href="#b"/>
<use x="243.0136" y="152.412" xlink:href="#l"/>
<use x="248.27186" y="152.412" xlink:href="#d"/>
<use x="252.174211" y="152.412" xlink:href="#b"/>
<use x="256.60159" y="152.412" xlink:href="#a"/>
<use x="260.476" y="152.846" xlink:href="#u"/>
<use x="260.476" y="152.412" xlink:href="#h"/>
<use x="265.4573" y="152.412" xlink:href="#d"/>
<use x="269.35965" y="152.412" xlink:href="#e"/>
<use x="272.127261" y="152.412" xlink:href="#g"/>
<use x="231.183" y="107.055" xlink:href="#m"/>
<use x="237.684593" y="107.055" xlink:href="#f"/>
<use x="242.665893" y="107.055" xlink:href="#c"/>
<use x="246.595142" y="107.055" xlink:href="#a"/>
<use x="250.469597" y="107.055" xlink:href="#i"/>
<use x="258.771432" y="107.055" xlink:href="#h"/>
<use x="263.752732" y="107.055" xlink:href="#p"/>
<use x="269.287952" y="107.055" xlink:href="#p"/>
<use x="275.102126" y="107.055" xlink:href="#b"/>
<use x="37.577802" y="107.055" xlink:href="#m"/>
<use x="44.079394" y="107.055" xlink:href="#f"/>
<use x="49.060694" y="107.055" xlink:href="#c"/>
<use x="52.989944" y="107.055" xlink:href="#a"/>
<use x="56.864399" y="107.055" xlink:href="#l"/>
<use x="61.843706" y="107.055" xlink:href="#f"/>
<use x="66.825006" y="107.055" xlink:href="#d"/>
<use x="70.727357" y="107.055" xlink:href="#n"/>
<use x="220.833" y="203.439" xlink:href="#z"/>
<use x="228.30495" y="203.439" xlink:href="#h"/>
<use x="233.28625" y="203.439" xlink:href="#o"/>
<use x="238.821471" y="203.439" xlink:href="#c"/>
<use x="242.75072" y="203.439" xlink:href="#n"/>
<use x="248.285941" y="203.439" xlink:href="#d"/>
<use x="252.188291" y="203.439" xlink:href="#e"/>
<use x="254.955901" y="203.439" xlink:href="#b"/>
<use x="259.383281" y="203.439" xlink:href="#t"/>
<use x="262.427851" y="203.439" xlink:href="#l"/>
<use x="267.128206" y="203.439" xlink:href="#h"/>
<use x="272.109506" y="203.439" xlink:href="#c"/>
<use x="276.038755" y="203.439" xlink:href="#a"/>
<use x="279.913211" y="203.439" xlink:href="#b"/>
<use x="284.34059" y="203.439" xlink:href="#g"/>
<use x="245.712" y="251.631" xlink:href="#m"/>
<use x="252.213593" y="251.631" xlink:href="#f"/>
<use x="257.194893" y="251.631" xlink:href="#c"/>
<use x="261.124142" y="251.631" xlink:href="#a"/>
<use x="304.966" y="241.709" xlink:href="#m"/>
<use x="311.467593" y="241.709" xlink:href="#f"/>
<use x="316.448893" y="241.709" xlink:href="#c"/>
<use x="320.378142" y="241.709" xlink:href="#a"/>
<use x="324.252597" y="241.709" xlink:href="#a"/>
<use x="328.127052" y="241.709" xlink:href="#d"/>
<use x="332.029403" y="241.709" xlink:href="#h"/>
<use x="337.010703" y="241.709" xlink:href="#g"/>
<use x="342.545923" y="241.709" xlink:href="#c"/>
<use x="346.475173" y="241.709" xlink:href="#p"/>
<use x="352.289346" y="241.709" xlink:href="#f"/>
<use x="357.270646" y="241.709" xlink:href="#d"/>
<use x="361.172997" y="241.709" xlink:href="#a"/>
<use x="365.047452" y="241.709" xlink:href="#s"/>
<use x="304.966" y="143.907" xlink:href="#w"/>
<use x="312.02251" y="143.907" xlink:href="#d"/>
<use x="315.92486" y="143.907" xlink:href="#e"/>
<use x="318.69247" y="143.907" xlink:href="#b"/>
<use x="323.11985" y="143.907" xlink:href="#t"/>
<use x="326.16442" y="143.907" xlink:href="#l"/>
<use x="331.143728" y="143.907" xlink:href="#f"/>
<use x="336.125028" y="143.907" xlink:href="#i"/>
<use x="344.426862" y="143.907" xlink:href="#i"/>
<use x="352.449744" y="143.907" xlink:href="#o"/>
<use x="357.984965" y="143.907" xlink:href="#g"/>
<use x="363.520185" y="143.907" xlink:href="#e"/>
<use x="366.287796" y="143.907" xlink:href="#s"/>
<use x="304.966" y="252.103" xlink:href="#c"/>
<use x="308.895249" y="252.103" xlink:href="#k"/>
<use x="313.043676" y="252.103" xlink:href="#j"/>
<use x="318.578897" y="252.103" xlink:href="#e"/>
<use x="321.346507" y="252.103" xlink:href="#k"/>
<use x="325.494934" y="252.103" xlink:href="#j"/>
<use x="330.761164" y="252.103" xlink:href="#a"/>
<use x="304.966" y="156.192" xlink:href="#l"/>
<use x="309.666355" y="156.192" xlink:href="#h"/>
<use x="314.647655" y="156.192" xlink:href="#a"/>
<use x="318.52211" y="156.192" xlink:href="#e"/>
<use x="321.28972" y="156.192" xlink:href="#f"/>
<use x="326.27102" y="156.192" xlink:href="#g"/>
<use x="331.806241" y="156.192" xlink:href="#c"/>
<use x="335.73549" y="156.192" xlink:href="#c"/>
<use x="339.66474" y="156.192" xlink:href="#k"/>
<use x="343.823129" y="156.192" xlink:href="#j"/>
<use x="349.358349" y="156.192" xlink:href="#e"/>
<use x="352.12596" y="156.192" xlink:href="#k"/>
<use x="356.274386" y="156.192" xlink:href="#j"/>
<use x="361.530654" y="156.192" xlink:href="#a"/>
</g>
</svg>
