<svg width="277pt" height="131pt" version="1.1" viewBox="0 0 277 131" xmlns="http://www.w3.org/2000/svg" xmlns:xlink="http://www.w3.org/1999/xlink">
<defs>
<g id="i">
<path d="m5.3906-1.5469-0.15625-0.0625c-0.40625 0.64062-0.5625 0.75-1.0781 0.75h-2.7031l1.9062-2c1.0156-1.0469 1.4531-1.9219 1.4531-2.7969 0-1.1406-0.92188-2.0156-2.0938-2.0156-0.625 0-1.2188 0.25-1.6406 0.70312-0.35938 0.39062-0.53125 0.75-0.71875 1.5625l0.23438 0.046875c0.45312-1.1094 0.85938-1.4688 1.6406-1.4688 0.95312 0 1.5938 0.64062 1.5938 1.5938 0 0.89062-0.51562 1.9375-1.4688 2.9531l-2.0156 2.1406v0.14062h4.4219z"/>
</g>
<g id="g">
<path d="m1.5469-5.2031c-0.34375 0-0.625 0.29688-0.625 0.64062 0 0.32812 0.28125 0.60938 0.60938 0.60938 0.35938 0 0.64062-0.28125 0.64062-0.60938 0-0.34375-0.28125-0.64062-0.625-0.64062zm0 4.0625c-0.34375 0-0.625 0.29688-0.625 0.65625 0 0.32812 0.28125 0.60938 0.60938 0.60938 0.35938 0 0.64062-0.28125 0.64062-0.60938 0-0.35938-0.28125-0.65625-0.625-0.65625z"/>
</g>
<g id="f">
<path d="m8.0156-0.21875c-0.51562-0.03125-0.625-0.14062-1.0312-0.98438l-2.8281-6.4375h-0.21875l-2.3594 5.5625c-0.73438 1.6562-0.85938 1.8438-1.4062 1.8594v0.21875h2.25v-0.21875c-0.54688 0-0.78125-0.14062-0.78125-0.46875 0-0.125 0.03125-0.28125 0.09375-0.4375l0.51562-1.3281h2.9844l0.45312 1.0938c0.14062 0.29688 0.21875 0.59375 0.21875 0.76562 0 0.28125-0.1875 0.35938-0.79688 0.375v0.21875h2.9062zm-5.5625-2.7031 1.2969-3.1094 1.3281 3.1094z"/>
</g>
<g id="d">
<path d="m0.1875-4.5156c0.0625-0.03125 0.17188-0.046875 0.29688-0.046875 0.32812 0 0.42188 0.17188 0.42188 0.73438v2.8125c0 0.64062-0.125 0.79688-0.70312 0.84375v0.17188h2.4062v-0.17188c-0.57812-0.046875-0.75-0.1875-0.75-0.59375v-3.1875c0.54688-0.5 0.79688-0.64062 1.1719-0.64062 0.54688 0 0.82812 0.34375 0.82812 1.0938v2.375c0 0.71875-0.15625 0.90625-0.71875 0.95312v0.17188h2.3594v-0.17188c-0.54688-0.0625-0.6875-0.1875-0.6875-0.75v-2.5938c0-1.0625-0.5-1.7031-1.3438-1.7031-0.51562 0-0.875 0.1875-1.6406 0.92188v-0.90625l-0.078125-0.015625c-0.5625 0.20312-0.9375 0.32812-1.5625 0.51562z"/>
</g>
<g id="c">
<path d="m2.8906-5.1094h-1.1406v-1.3125c0-0.10938-0.015625-0.14062-0.078125-0.14062-0.078125 0.09375-0.15625 0.20312-0.23438 0.3125-0.42188 0.625-0.92188 1.1719-1.0938 1.2188-0.125 0.078125-0.20312 0.15625-0.20312 0.20312s0.015625 0.0625 0.046875 0.09375h0.60938v3.4062c0 0.95312 0.34375 1.4375 1 1.4375 0.5625 0 1-0.26562 1.375-0.85938l-0.15625-0.125c-0.23438 0.28125-0.42188 0.40625-0.67188 0.40625-0.42188 0-0.59375-0.3125-0.59375-1.0312v-3.2344h1.1406z"/>
</g>
<g id="q">
<path d="m6.4844-5.1094v0.17188c0.375 0.078125 0.48438 0.15625 0.48438 0.35938 0 0.17188-0.0625 0.4375-0.1875 0.75l-1.0156 2.5156-0.95312-2.5469c-0.20312-0.51562-0.20312-0.51562-0.20312-0.67188 0-0.25 0.125-0.32812 0.67188-0.40625v-0.17188h-2.3125v0.17188c0.42188 0.046875 0.5625 0.17188 0.78125 0.78125 0.078125 0.21875 0.15625 0.4375 0.23438 0.64062l-1.0312 2.25-1.125-2.9531c-0.046875-0.10938-0.0625-0.23438-0.0625-0.34375 0-0.23438 0.125-0.32812 0.51562-0.375v-0.17188h-2.0469v0.17188c0.26562 0.03125 0.35938 0.14062 0.60938 0.71875l1.5312 3.875c0.125 0.34375 0.21875 0.5 0.29688 0.5 0.046875 0 0.14062-0.14062 0.28125-0.4375l1.2656-2.7188 1.0312 2.6719c0.15625 0.42188 0.20312 0.48438 0.28125 0.48438s0.125-0.09375 0.3125-0.54688l1.5625-3.9375c0.20312-0.46875 0.23438-0.53125 0.46875-0.60938v-0.17188z"/>
</g>
<g id="p">
<path d="m2.8281-5.2188c-1.4688 0-2.5 1.0938-2.5 2.6562 0 1.5312 1.0625 2.6719 2.4844 2.6719 1.4375 0 2.5156-1.2031 2.5156-2.7656 0-1.4844-1.0469-2.5625-2.5-2.5625zm-0.14062 0.3125c0.95312 0 1.625 1.0938 1.625 2.6562 0 1.2812-0.51562 2.0469-1.3594 2.0469-0.45312 0-0.85938-0.26562-1.1094-0.73438-0.3125-0.57812-0.5-1.375-0.5-2.1875 0-1.0781 0.54688-1.7812 1.3438-1.7812z"/>
</g>
<g id="a">
<path d="m0.078125-4.4219c0.15625-0.03125 0.26562-0.046875 0.39062-0.046875 0.29688 0 0.39062 0.1875 0.39062 0.6875v2.8281c0 0.5625-0.078125 0.64062-0.79688 0.78125v0.17188h2.7188v-0.17188c-0.76562-0.03125-0.96875-0.20312-0.96875-0.84375v-2.5625c0-0.35938 0.48438-0.92188 0.79688-0.92188 0.0625 0 0.17188 0.046875 0.29688 0.17188 0.17188 0.15625 0.29688 0.21875 0.45312 0.21875 0.26562 0 0.4375-0.1875 0.4375-0.5 0-0.375-0.23438-0.60938-0.625-0.60938-0.46875 0-0.79688 0.26562-1.3594 1.0625v-1.0469l-0.046875-0.015625c-0.60938 0.25-1.0156 0.39062-1.6875 0.60938z"/>
</g>
<g id="y">
<path d="m5.0781-7.6719h-0.25c-0.046875 0.26562-0.17188 0.39062-0.35938 0.39062-0.10938 0-0.3125-0.046875-0.5-0.14062-0.42188-0.15625-0.84375-0.25-1.2031-0.25-0.48438 0-0.98438 0.20312-1.3594 0.53125-0.39062 0.34375-0.59375 0.82812-0.59375 1.4062 0 0.90625 0.48438 1.5469 1.7656 2.2188 0.8125 0.4375 1.4062 0.89062 1.6875 1.3281 0.10938 0.14062 0.15625 0.39062 0.15625 0.65625 0 0.76562-0.5625 1.2812-1.3906 1.2812-1.0156 0-1.7344-0.625-2.2969-2h-0.26562l0.34375 2.3906h0.25c0.015625-0.20312 0.15625-0.375 0.32812-0.375 0.125 0 0.3125 0.046875 0.53125 0.125 0.42188 0.17188 0.875 0.26562 1.3281 0.26562 1.3125 0 2.3125-0.89062 2.3125-2.0625 0-0.92188-0.60938-1.6719-2.1094-2.4688-1.2031-0.65625-1.6719-1.1562-1.6719-1.7656 0-0.625 0.46875-1.0625 1.1719-1.0625 0.51562 0 1 0.21875 1.3906 0.625 0.35938 0.35938 0.51562 0.65625 0.6875 1.3281h0.28125z"/>
</g>
<g id="b">
<path d="m4.625-1.8594c-0.54688 0.85938-1.0312 1.1875-1.75 1.1875-0.65625 0-1.1406-0.32812-1.4688-0.96875-0.20312-0.4375-0.28125-0.8125-0.3125-1.5h3.5c-0.09375-0.73438-0.20312-1.0625-0.48438-1.4375-0.34375-0.40625-0.85938-0.64062-1.4531-0.64062-0.5625 0-1.1094 0.20312-1.5312 0.59375-0.53125 0.46875-0.84375 1.2656-0.84375 2.2031 0 1.5625 0.8125 2.5312 2.125 2.5312 1.0781 0 1.9219-0.67188 2.4062-1.8906zm-3.5-1.6406c0.125-0.89062 0.51562-1.3125 1.2031-1.3125s0.96875 0.32812 1.1094 1.3125z"/>
</g>
<g id="x">
<path d="m5.4062-5.1094h-1.5781v0.17188c0.375 0.03125 0.54688 0.15625 0.54688 0.35938 0 0.125-0.03125 0.23438-0.078125 0.34375l-1.125 2.9375-1.1562-2.9062c-0.0625-0.15625-0.09375-0.3125-0.09375-0.40625 0-0.21875 0.125-0.29688 0.51562-0.32812v-0.17188h-2.2188v0.17188c0.42188 0.03125 0.5 0.14062 1.0312 1.3125l1.3594 3.25c0.015625 0.0625 0.0625 0.14062 0.09375 0.23438 0.0625 0.20312 0.125 0.29688 0.20312 0.29688 0.0625 0 0.14062-0.14062 0.3125-0.5625l1.4531-3.6406c0.32812-0.78125 0.40625-0.85938 0.73438-0.89062z"/>
</g>
<g id="w">
<path d="m7.0312-5.1094-0.09375-2.5625h-0.25c-0.0625 0.23438-0.25 0.375-0.46875 0.375-0.10938 0-0.28125-0.03125-0.4375-0.09375-0.5625-0.1875-1.125-0.28125-1.6562-0.28125-0.9375 0-1.875 0.35938-2.5781 0.98438-0.79688 0.70312-1.2344 1.75-1.2344 3 0 1.0625 0.34375 2.0312 0.92188 2.6719 0.6875 0.75 1.7188 1.1719 2.8438 1.1719 1.2812 0 2.4062-0.51562 3.1094-1.4375l-0.21875-0.20312c-0.82812 0.79688-1.5781 1.1406-2.5156 1.1406-0.71875 0-1.3594-0.21875-1.8438-0.65625-0.625-0.54688-0.96875-1.5781-0.96875-2.8281 0-2.0625 1.0469-3.3906 2.6875-3.3906 0.65625 0 1.2344 0.25 1.7031 0.70312 0.35938 0.35938 0.53125 0.67188 0.73438 1.4062z"/>
</g>
<g id="v">
<path d="m0.21875-7.0625h0.0625c0.125-0.015625 0.26562-0.03125 0.35938-0.03125 0.35938 0 0.46875 0.15625 0.46875 0.70312v5.4062c0 0.60938-0.15625 0.75-0.875 0.8125v0.17188h2.6875v-0.17188c-0.71875-0.046875-0.85938-0.15625-0.85938-0.78125v-6.7656l-0.046875-0.03125c-0.59375 0.1875-1.0156 0.3125-1.7969 0.5z"/>
</g>
<g id="u">
<path d="m1.9844-5.2188-1.75 0.625v0.17188l0.078125-0.015625c0.14062-0.015625 0.28125-0.03125 0.39062-0.03125 0.26562 0 0.375 0.1875 0.375 0.6875v2.625c0 0.8125-0.10938 0.9375-0.89062 0.98438v0.17188h2.6875v-0.17188c-0.75-0.0625-0.84375-0.17188-0.84375-0.98438v-4.0312zm-0.53125-2.5312c-0.3125 0-0.5625 0.26562-0.5625 0.57812s0.25 0.57812 0.5625 0.57812c0.32812 0 0.59375-0.25 0.59375-0.57812 0-0.3125-0.26562-0.57812-0.59375-0.57812z"/>
</g>
<g id="h">
<path d="m3.2969-7.6719-2.0312 1.0312v0.15625c0.125-0.046875 0.25-0.09375 0.29688-0.125 0.20312-0.078125 0.40625-0.125 0.51562-0.125 0.23438 0 0.34375 0.17188 0.34375 0.54688v5.125c0 0.375-0.09375 0.64062-0.28125 0.75-0.17188 0.09375-0.32812 0.125-0.79688 0.14062v0.17188h3.125v-0.17188c-0.89062-0.015625-1.0781-0.125-1.0781-0.67188v-6.7969z"/>
</g>
<g id="t">
<path d="m3.5-5.1094h-1.3906v-1.3125c0-0.65625 0.21875-1.0156 0.64062-1.0156 0.25 0 0.40625 0.125 0.60938 0.45312 0.1875 0.29688 0.3125 0.40625 0.51562 0.40625 0.25 0 0.46875-0.20312 0.46875-0.46875 0-0.40625-0.5-0.70312-1.1719-0.70312-0.70312 0-1.3125 0.3125-1.6094 0.82812-0.29688 0.5-0.375 0.90625-0.39062 1.8125h-0.9375v0.375h0.9375v3.5469c0 0.82812-0.125 0.96875-0.9375 1.0156v0.17188h2.9375v-0.17188c-0.92188-0.03125-1.0469-0.15625-1.0469-1.0156v-3.5469h1.375z"/>
</g>
<g id="s">
<path d="m5.0156-0.75c-0.1875 0.15625-0.32812 0.21875-0.5 0.21875-0.26562 0-0.34375-0.15625-0.34375-0.65625v-2.2188c0-0.59375-0.046875-0.92188-0.21875-1.1875-0.25-0.40625-0.75-0.625-1.4062-0.625-1.0781 0-1.9062 0.5625-1.9062 1.2656 0 0.26562 0.21875 0.5 0.48438 0.5s0.51562-0.23438 0.51562-0.48438c0-0.046875-0.015625-0.09375-0.03125-0.1875s-0.03125-0.1875-0.03125-0.26562c0-0.3125 0.35938-0.5625 0.8125-0.5625 0.5625 0 0.85938 0.34375 0.85938 0.95312v0.6875c-1.7344 0.70312-1.9375 0.79688-2.4219 1.2188-0.25 0.23438-0.40625 0.625-0.40625 1 0 0.70312 0.5 1.2031 1.1875 1.2031 0.5 0 0.96875-0.23438 1.6562-0.82812 0.0625 0.59375 0.26562 0.82812 0.73438 0.82812 0.375 0 0.60938-0.125 1.0156-0.5625zm-1.7656-0.64062c0 0.34375-0.046875 0.45312-0.29688 0.57812-0.26562 0.17188-0.57812 0.26562-0.82812 0.26562-0.39062 0-0.70312-0.39062-0.70312-0.875v-0.046875c0-0.65625 0.46875-1.0781 1.8281-1.5781z"/>
</g>
<g id="r">
<path d="m5.3281-4.4062v-0.4375h-0.875c-0.21875 0-0.39062-0.03125-0.625-0.10938l-0.25-0.09375c-0.29688-0.10938-0.60938-0.17188-0.90625-0.17188-1.0469 0-1.8906 0.8125-1.8906 1.8438 0 0.71875 0.3125 1.1562 1.0625 1.5312-0.21875 0.20312-0.42188 0.39062-0.5 0.45312-0.375 0.32812-0.51562 0.54688-0.51562 0.78125s0.14062 0.375 0.59375 0.59375c-0.79688 0.59375-1.1094 0.96875-1.1094 1.3906 0 0.59375 0.89062 1.0938 1.9688 1.0938 0.84375 0 1.7344-0.29688 2.3281-0.76562 0.42188-0.35938 0.625-0.71875 0.625-1.1406 0-0.70312-0.53125-1.1875-1.375-1.2188l-1.4688-0.0625c-0.59375-0.03125-0.875-0.125-0.875-0.3125 0-0.23438 0.375-0.625 0.67188-0.71875 0.10938 0.015625 0.1875 0.03125 0.21875 0.03125 0.21875 0.015625 0.35938 0.03125 0.42188 0.03125 0.42188 0 0.875-0.17188 1.2344-0.48438 0.375-0.3125 0.54688-0.70312 0.54688-1.2812 0-0.32812-0.0625-0.57812-0.21875-0.95312zm-3.6562 4.4219c0.375 0.09375 1.2812 0.15625 1.8281 0.15625 1.0312 0 1.4062 0.14062 1.4062 0.54688 0 0.67188-0.85938 1.1094-2.1406 1.1094-1 0-1.6562-0.32812-1.6562-0.82812 0-0.26562 0.078125-0.40625 0.5625-0.98438zm0.046875-3.8438c0-0.67188 0.32812-1.0781 0.84375-1.0781 0.35938 0 0.64062 0.20312 0.82812 0.53125 0.20312 0.40625 0.34375 0.92188 0.34375 1.375 0 0.625-0.32812 1.0312-0.85938 1.0312-0.67188 0-1.1562-0.75-1.1562-1.8281z"/>
</g>
<g id="o">
<path d="m2.7031-8c-0.10938-0.15625-0.125-0.15625-0.39062-0.15625h-1.8281v0.34375c0.51562 0 0.8125 0 1.1406 0.078125v6.4844c0 0.34375 0 0.90625-1.1406 0.90625v0.34375c0.3125-0.03125 0.95312-0.03125 1.2812-0.03125 0.34375 0 0.96875 0 1.2812 0.03125v-0.34375c-1.1406 0-1.1406-0.5625-1.1406-0.90625v-6.2969c0.10938 0.09375 0.10938 0.125 0.20312 0.26562l4.6719 7.1094c0.10938 0.15625 0.125 0.17188 0.21875 0.17188s0.125-0.046875 0.14062-0.078125v-6.8281c0-0.34375 0-0.90625 1.125-0.90625v-0.34375c-0.3125 0.015625-0.9375 0.015625-1.2656 0.015625-0.34375 0-0.96875 0-1.2812-0.015625v0.34375c1.125 0 1.125 0.5625 1.125 0.90625v5.2188z"/>
</g>
<g id="e">
<path d="m4.5781-2.7656c0.26562 0 0.28125 0 0.28125-0.23438 0-1.2031-0.64062-2.3281-2.0938-2.3281-1.3594 0-2.4062 1.2344-2.4062 2.7031 0 1.5781 1.2188 2.75 2.5469 2.75 1.4219 0 1.9531-1.2969 1.9531-1.5469 0-0.078125-0.046875-0.125-0.125-0.125-0.09375 0-0.125 0.0625-0.14062 0.125-0.3125 1-1.1094 1.2812-1.625 1.2812-0.5 0-1.7031-0.34375-1.7031-2.4062v-0.21875zm-3.2969-0.23438c0.09375-1.875 1.1406-2.0938 1.4844-2.0938 1.2812 0 1.3438 1.6875 1.3594 2.0938z"/>
</g>
<g id="n">
<path d="m2.0156-4.8125h1.6719v-0.34375h-1.6719v-2.1875h-0.26562c-0.015625 1.1094-0.45312 2.2656-1.5312 2.2969v0.23438h1.0156v3.3281c0 1.3281 0.875 1.6094 1.5156 1.6094 0.75 0 1.1406-0.75 1.1406-1.6094v-0.67188h-0.25v0.65625c0 0.85938-0.35938 1.3594-0.8125 1.3594-0.8125 0-0.8125-1.1094-0.8125-1.3125z"/>
</g>
<g id="m">
<path d="m4.5469-4.8125c0.10938-0.14062 0.10938-0.15625 0.10938-0.20312 0-0.14062-0.078125-0.14062-0.28125-0.14062h-3.75l-0.14062 1.9062h0.26562c0.078125-1.2188 0.29688-1.6562 1.6094-1.6562h1.375l-3.4062 4.6875c0 0.21875 0.015625 0.21875 0.28125 0.21875h3.8906l0.20312-2.2031h-0.26562c-0.10938 1.3594-0.3125 1.9375-1.7344 1.9375h-1.4531z"/>
</g>
<g id="l">
<path d="m7.2344-4.0156c0.26562-0.75 0.78125-0.78125 0.98438-0.79688v-0.34375c-0.29688 0.03125-0.51562 0.03125-0.875 0.03125-0.34375 0-0.375 0-1.0156-0.03125v0.34375c0.53125 0.03125 0.67188 0.35938 0.67188 0.57812 0 0.015625 0 0.09375-0.046875 0.21875l-1.0938 3.125-1.2031-3.375c-0.046875-0.14062-0.046875-0.17188-0.046875-0.20312 0-0.34375 0.4375-0.34375 0.6875-0.34375v-0.34375c-0.34375 0.03125-0.82812 0.03125-1.1719 0.03125-0.39062 0-0.40625 0-1.0781-0.03125v0.34375c0.45312 0 0.60938 0.03125 0.75 0.1875 0.046875 0.078125 0.20312 0.46875 0.28125 0.70312l-1.0156 2.9219-1.1562-3.25c-0.046875-0.15625-0.046875-0.1875-0.046875-0.23438 0-0.32812 0.45312-0.32812 0.6875-0.32812v-0.34375c-0.29688 0.03125-0.89062 0.03125-1.2188 0.03125-0.34375 0-0.35938 0-1.1094-0.03125v0.34375c0.60938 0 0.71875 0.0625 0.85938 0.4375l1.5 4.2812c0.046875 0.125 0.09375 0.21875 0.21875 0.21875 0.10938 0 0.17188-0.046875 0.23438-0.23438l1.1875-3.4062 1.2031 3.4062c0.046875 0.1875 0.10938 0.23438 0.21875 0.23438 0.125 0 0.17188-0.09375 0.21875-0.21875z"/>
</g>
<g id="k">
<path d="m2-2.7812c0-1.1562 0.46875-2.25 1.3906-2.25 0.09375 0 0.125 0 0.17188 0.015625-0.09375 0.046875-0.28125 0.10938-0.28125 0.4375 0 0.34375 0.26562 0.48438 0.45312 0.48438 0.25 0 0.48438-0.15625 0.48438-0.48438 0-0.35938-0.32812-0.6875-0.84375-0.6875-1.0156 0-1.3594 1.0938-1.4219 1.3281h-0.015625v-1.3281l-1.6094 0.125v0.34375c0.8125 0 0.92188 0.09375 0.92188 0.67188v3.2344c0 0.54688-0.14062 0.54688-0.92188 0.54688v0.34375c0.34375-0.03125 1-0.03125 1.3594-0.03125 0.32812 0 1.1719 0 1.4375 0.03125v-0.34375h-0.23438c-0.875 0-0.89062-0.14062-0.89062-0.5625z"/>
</g>
<g id="j">
<path d="m3.3438-3.1719-0.078125-0.10938c0-0.046875 0.75-0.6875 0.84375-0.78125 0.82812-0.71875 1.3594-0.73438 1.6094-0.75v-0.34375c-0.25 0.03125-0.5625 0.03125-0.90625 0.03125-0.3125 0-0.92188 0-1.2031-0.03125v0.34375c0.20312 0.015625 0.34375 0.125 0.34375 0.3125 0 0.25-0.23438 0.45312-0.25 0.45312l-1.7031 1.5156v-5.7656l-1.6719 0.14062v0.34375c0.8125 0 0.92188 0.078125 0.92188 0.67188v6.25c0 0.54688-0.14062 0.54688-0.92188 0.54688v0.34375c0.34375-0.03125 0.92188-0.03125 1.2812-0.03125 0.34375 0 0.92188 0 1.2656 0.03125v-0.34375c-0.76562 0-0.92188 0-0.92188-0.54688v-1.2656l0.76562-0.67188 1.1562 1.6562c0.17188 0.25 0.26562 0.39062 0.26562 0.54688 0 0.21875-0.17188 0.28125-0.42188 0.28125v0.34375c0.29688-0.03125 0.89062-0.03125 1.2031-0.03125 0.51562 0 0.54688 0 1.0469 0.03125v-0.34375c-0.3125 0-0.6875 0-1.0156-0.5z"/>
</g>
<clipPath id="ae">
<path d="m33 0.097656h86v57.902h-86z"/>
</clipPath>
<clipPath id="ad">
<path d="m161 0.097656h86v57.902h-86z"/>
</clipPath>
<clipPath id="ac">
<path d="m118 21h44v2h-44z"/>
</clipPath>
<clipPath id="ab">
<path d="m-0.47266 0.097656v132h279v-132zm156.55 23.738h5.5156v-3.7812h-5.5156l4.7266 1.8906z" clip-rule="evenodd"/>
</clipPath>
<clipPath id="aa">
<path d="m118 36h44v1h-44z"/>
</clipPath>
<clipPath id="z">
<path d="m-0.47266 0.097656v132h279v-132zm124.1 34.133h-5.5117v3.7812h5.5117l-4.7227-1.8906z" clip-rule="evenodd"/>
</clipPath>
</defs>
<g>
<use x="146.94" y="128.2585" xlink:href="#i"/>
<use x="152.61" y="128.2585" xlink:href="#g"/>
<use x="155.76252" y="128.2585" xlink:href="#glyph-0-3"/>
<use x="158.59752" y="128.2585" xlink:href="#f"/>
<use x="166.785" y="128.2585" xlink:href="#d"/>
<use x="172.455" y="128.2585" xlink:href="#c"/>
<use x="175.60752" y="128.2585" xlink:href="#q"/>
<use x="183.795" y="128.2585" xlink:href="#p"/>
<use x="189.465" y="128.2585" xlink:href="#a"/>
<use x="193.24122" y="128.2585" xlink:href="#c"/>
</g>
<g clip-path="url(#ae)">
<path transform="matrix(.1 0 0 -.1 -.472 132.1)" d="m340.11 747.13h850.51v566.99h-850.51z" fill="none" stroke="#000" stroke-miterlimit="10" stroke-width="2.3625"/>
</g>
<path transform="matrix(.1 0 0 -.1 -.472 132.1)" d="m2395.5 1030.6c0-117.42-158.67-212.62-354.38-212.62s-354.38 95.195-354.38 212.62c0 117.46 158.67 212.66 354.38 212.66s354.38-95.195 354.38-212.66z" fill="none" stroke="#000" stroke-miterlimit="10" stroke-width="2.3625"/>
<g clip-path="url(#ad)">
<path transform="matrix(.1 0 0 -.1 -.472 132.1)" d="m1615.9 747.13h850.47v566.99h-850.47z" fill="none" stroke="#000" stroke-miterlimit="10" stroke-width="2.3625"/>
</g>
<path transform="matrix(.1 0 0 -.1 -.472 132.1)" d="m765.38 747.13v-354.38" fill="none" stroke="#000" stroke-miterlimit="10" stroke-width="14.175"/>
<path transform="matrix(.1 0 0 -.1 -.472 132.1)" d="m14.095 392.76h2735.8" fill="none" stroke="#000" stroke-miterlimit="10" stroke-width="14.175"/>
<path transform="matrix(.1 0 0 -.1 -.472 132.1)" d="m2041.1 747.13v-354.38" fill="none" stroke="#000" stroke-miterlimit="10" stroke-width="14.175"/>
<g clip-path="url(#ac)">
<g clip-path="url(#ab)">
<path transform="matrix(.1 0 0 -.1 -.472 132.1)" d="m1615.9 1101.5h-425.27" fill="none" stroke="#000" stroke-miterlimit="10" stroke-width="2.3625"/>
</g>
</g>
<path d="m156.07 23.836 4.7266-1.8906-4.7266-1.8906 0.94531 1.8906-0.94531 1.8906" fill-rule="evenodd"/>
<path transform="matrix(.1 0 0 -.1 -.472 132.1)" d="m1565.5 1082.6 47.266 18.906-47.266 18.906 9.4531-18.906z" fill="none" stroke="#000" stroke-miterlimit="10" stroke-width="2.3625"/>
<g clip-path="url(#aa)">
<g clip-path="url(#z)">
<path transform="matrix(.1 0 0 -.1 -.472 132.1)" d="m1190.6 959.75h425.27" fill="none" stroke="#000" stroke-miterlimit="10" stroke-width="2.3625"/>
</g>
</g>
<path d="m123.63 34.23-4.7227 1.8906 4.7227 1.8906-0.94531-1.8906 0.94531-1.8906" fill-rule="evenodd"/>
<path transform="matrix(.1 0 0 -.1 -.472 132.1)" d="m1241 978.66-47.227-18.906 47.227-18.906-9.4531 18.906z" fill="none" stroke="#000" stroke-miterlimit="10" stroke-width="2.3625"/>
<g>
<use x="135.601" y="33.2858" xlink:href="#i"/>
<use x="188.8428" y="32.561581" xlink:href="#y"/>
<use x="195.14784" y="32.561581" xlink:href="#b"/>
<use x="200.1828" y="32.561581" xlink:href="#a"/>
<use x="203.95902" y="32.561581" xlink:href="#x"/>
<use x="209.62902" y="32.561581" xlink:href="#b"/>
<use x="214.66398" y="32.561581" xlink:href="#a"/>
<use x="62.2028" y="32.561581" xlink:href="#w"/>
<use x="69.76658" y="32.561581" xlink:href="#v"/>
<use x="72.9191" y="32.561581" xlink:href="#u"/>
<use x="76.07162" y="32.561581" xlink:href="#b"/>
<use x="81.10658" y="32.561581" xlink:href="#d"/>
<use x="86.77658" y="32.561581" xlink:href="#c"/>
<use x="135.6008" y="14.858481" xlink:href="#h"/>
<use x="76.0656" y="128.258481" xlink:href="#h"/>
<use x="81.7356" y="128.258481" xlink:href="#g"/>
<use x="84.88812" y="128.258481" xlink:href="#glyph-0-3"/>
<use x="87.72312" y="128.258481" xlink:href="#f"/>
<use x="95.9106" y="128.258481" xlink:href="#d"/>
<use x="101.5806" y="128.258481" xlink:href="#t"/>
<use x="105.35682" y="128.258481" xlink:href="#a"/>
<use x="109.13304" y="128.258481" xlink:href="#s"/>
<use x="114.168" y="128.258481" xlink:href="#r"/>
<use x="119.838" y="128.258481" xlink:href="#b"/>
</g>
<path transform="matrix(.1 0 0 -.1 -.472 132.1)" d="m1119.8 1030.6c0-117.42-158.67-212.62-354.38-212.62-195.74 0-354.38 95.195-354.38 212.62 0 117.46 158.63 212.66 354.38 212.66 195.7 0 354.38-95.195 354.38-212.66z" fill="none" stroke="#000" stroke-miterlimit="10" stroke-width="2.3625"/>
<g>
<use x="229.316" y="104.125" xlink:href="#o"/>
<use x="238.091117" y="104.125" xlink:href="#e"/>
<use x="243.29402" y="104.125" xlink:href="#n"/>
<use x="247.84656" y="104.125" xlink:href="#m"/>
<use x="253.049463" y="104.125" xlink:href="#l"/>
<use x="261.18139" y="104.125" xlink:href="#e"/>
<use x="266.384293" y="104.125" xlink:href="#k"/>
<use x="270.936833" y="104.125" xlink:href="#j"/>
</g>
</svg>
