<svg width="388pt" height="291pt" version="1.1" viewBox="0 0 388 291" xmlns="http://www.w3.org/2000/svg" xmlns:xlink="http://www.w3.org/1999/xlink">
<defs>
<g id="w">
<path d="m4.7812-7.7656c0.046875-0.14062 0.046875-0.17188 0.046875-0.20312 0-0.10938-0.09375-0.20312-0.21875-0.20312-0.15625 0-0.1875 0.09375-0.21875 0.20312l-3.7188 10.281c-0.0625 0.14062-0.0625 0.17188-0.0625 0.20312 0 0.10938 0.09375 0.20312 0.21875 0.20312 0.15625 0 0.20312-0.09375 0.23438-0.20312z"/>
</g>
<g id="v">
<path d="m2.8438-5.6094c0.54688 0.39062 1.3594 1 1.4219 1.0469 0.046875 0.03125 0.09375 0.0625 0.17188 0.0625 0.17188 0 0.29688-0.17188 0.29688-0.3125 0-0.10938-0.046875-0.20312-0.23438-0.29688l-1.5312-0.71875 1.5156-0.71875c0.20312-0.09375 0.25-0.17188 0.25-0.29688 0-0.14062-0.125-0.3125-0.29688-0.3125-0.078125 0-0.09375 0-0.375 0.20312l-1.2188 0.90625 0.17188-1.8594c0-0.17188-0.14062-0.26562-0.29688-0.26562-0.17188 0-0.28125 0.125-0.28125 0.26562 0 0.10938 0.14062 1.6094 0.15625 1.8594l-1.3438-0.98438c-0.15625-0.125-0.1875-0.125-0.25-0.125-0.17188 0-0.29688 0.17188-0.29688 0.3125 0 0.10938 0.046875 0.20312 0.23438 0.29688l1.5312 0.71875-1.5156 0.71875c-0.20312 0.09375-0.25 0.17188-0.25 0.29688 0 0.03125 0 0.3125 0.35938 0.3125l1.5312-1.1094-0.15625 1.8594c0 0.15625 0.14062 0.26562 0.28125 0.26562 0.17188 0 0.29688-0.125 0.29688-0.26562 0-0.10938-0.14062-1.6094-0.17188-1.8594z"/>
</g>
<g id="e">
<path d="m1.2812-2.375c0-1.7812 0.89062-2.2344 1.4688-2.2344 0.09375 0 0.78125 0 1.1719 0.40625-0.45312 0.03125-0.51562 0.35938-0.51562 0.5 0 0.28125 0.1875 0.5 0.5 0.5 0.28125 0 0.5-0.1875 0.5-0.51562 0-0.73438-0.82812-1.1719-1.6719-1.1719-1.3594 0-2.3594 1.1875-2.3594 2.5312 0 1.4062 1.0781 2.4844 2.3438 2.4844 1.4531 0 1.8125-1.3125 1.8125-1.4219s-0.10938-0.10938-0.14062-0.10938c-0.10938 0-0.125 0.046875-0.14062 0.10938-0.32812 1.0156-1.0312 1.1406-1.4375 1.1406-0.57812 0-1.5312-0.46875-1.5312-2.2188z"/>
</g>
<g id="c">
<path d="m1.8281-3.625v-1.2031l-1.5156 0.125v0.34375c0.75 0 0.84375 0.078125 0.84375 0.60938v2.9219c0 0.48438-0.125 0.48438-0.84375 0.48438v0.34375c0.42188-0.015625 0.9375-0.03125 1.2344-0.03125 0.4375 0 0.95312 0 1.3906 0.03125v-0.34375h-0.23438c-0.8125 0-0.82812-0.10938-0.82812-0.5v-1.6875c0-1.0781 0.45312-2.0469 1.2812-2.0469 0.078125 0 0.10938 0 0.125 0.015625-0.03125 0-0.25 0.14062-0.25 0.42188 0 0.29688 0.23438 0.46875 0.46875 0.46875 0.20312 0 0.46875-0.14062 0.46875-0.48438s-0.34375-0.67188-0.8125-0.67188c-0.79688 0-1.1875 0.73438-1.3281 1.2031z"/>
</g>
<g id="a">
<path d="m1.2188-2.75c0.0625-1.625 0.98438-1.8906 1.3594-1.8906 1.125 0 1.2344 1.4688 1.2344 1.8906zm-0.015625 0.23438h3.0469c0.25 0 0.28125 0 0.28125-0.23438 0-1.0781-0.59375-2.1406-1.9531-2.1406-1.2656 0-2.2656 1.125-2.2656 2.4844 0 1.4688 1.1406 2.5312 2.3906 2.5312 1.3281 0 1.8281-1.2188 1.8281-1.4219 0-0.10938-0.09375-0.125-0.14062-0.125-0.10938 0-0.125 0.0625-0.14062 0.14062-0.39062 1.125-1.375 1.125-1.4844 1.125-0.54688 0-0.98438-0.32812-1.2344-0.73438-0.32812-0.51562-0.32812-1.2344-0.32812-1.625z"/>
</g>
<g id="g">
<path d="m3.625-0.82812c0.046875 0.4375 0.34375 0.89062 0.85938 0.89062 0.23438 0 0.89062-0.15625 0.89062-1.0312v-0.60938h-0.26562v0.60938c0 0.625-0.28125 0.70312-0.39062 0.70312-0.35938 0-0.40625-0.5-0.40625-0.54688v-2.1875c0-0.45312 0-0.875-0.39062-1.2812-0.4375-0.4375-0.98438-0.60938-1.5-0.60938-0.89062 0-1.6406 0.51562-1.6406 1.2344 0 0.32812 0.21875 0.51562 0.5 0.51562 0.29688 0 0.5-0.21875 0.5-0.5 0-0.14062-0.0625-0.5-0.5625-0.5 0.29688-0.39062 0.82812-0.5 1.1875-0.5 0.53125 0 1.1562 0.42188 1.1562 1.3906v0.40625c-0.5625 0.03125-1.3281 0.0625-2.0156 0.39062-0.8125 0.375-1.0938 0.9375-1.0938 1.4219 0 0.875 1.0625 1.1562 1.75 1.1562 0.71875 0 1.2188-0.4375 1.4219-0.95312zm-0.0625-1.7969v1.0938c0 1.0469-0.79688 1.4062-1.2812 1.4062-0.53125 0-0.98438-0.375-0.98438-0.92188 0-0.59375 0.45312-1.5 2.2656-1.5781z"/>
</g>
<g id="b">
<path d="m1.8906-4.3594h1.5625v-0.34375h-1.5625v-2h-0.28125c0 0.89062-0.32812 2.0625-1.4062 2.0938v0.25h0.9375v3c0 1.3438 1.0156 1.4844 1.4062 1.4844 0.76562 0 1.0781-0.78125 1.0781-1.4844v-0.60938h-0.28125v0.59375c0 0.8125-0.32812 1.2188-0.71875 1.2188-0.73438 0-0.73438-0.98438-0.73438-1.1719z"/>
</g>
<g id="f">
<path d="m2.2656-2.1094c0.25 0.03125 1.1406 0.21875 1.1406 1 0 0.54688-0.39062 0.98438-1.2344 0.98438-0.92188 0-1.3125-0.60938-1.5156-1.5469-0.03125-0.14062-0.046875-0.1875-0.15625-0.1875-0.14062 0-0.14062 0.078125-0.14062 0.28125v1.4375c0 0.1875 0 0.26562 0.125 0.26562 0.046875 0 0.0625-0.015625 0.26562-0.21875 0.03125-0.03125 0.03125-0.046875 0.21875-0.25 0.48438 0.45312 0.96875 0.46875 1.2031 0.46875 1.25 0 1.75-0.73438 1.75-1.5156 0-0.57812-0.32812-0.90625-0.45312-1.0469-0.35938-0.34375-0.78125-0.4375-1.25-0.51562-0.60938-0.125-1.3281-0.26562-1.3281-0.89062 0-0.39062 0.28125-0.82812 1.2188-0.82812 1.1875 0 1.25 0.96875 1.2656 1.3125 0.015625 0.09375 0.10938 0.09375 0.14062 0.09375 0.14062 0 0.14062-0.046875 0.14062-0.25v-1.1094c0-0.1875 0-0.26562-0.125-0.26562-0.046875 0-0.078125 0-0.21875 0.14062-0.03125 0.03125-0.14062 0.14062-0.1875 0.17188-0.40625-0.3125-0.85938-0.3125-1.0156-0.3125-1.3281 0-1.75 0.73438-1.75 1.3438 0 0.39062 0.17188 0.6875 0.46875 0.92188 0.34375 0.29688 0.65625 0.35938 1.4375 0.51562z"/>
</g>
<g id="d">
<path d="m5.1406-2.3281c0-1.4062-1.0938-2.5625-2.4219-2.5625-1.3594 0-2.4062 1.1875-2.4062 2.5625 0 1.4062 1.125 2.4531 2.4062 2.4531 1.3125 0 2.4219-1.0781 2.4219-2.4531zm-2.4219 2.1719c-0.46875 0-0.9375-0.21875-1.2344-0.73438-0.28125-0.46875-0.28125-1.1406-0.28125-1.5312 0-0.42188 0-1.0156 0.26562-1.5 0.29688-0.5 0.8125-0.71875 1.25-0.71875 0.48438 0 0.95312 0.23438 1.2344 0.70312s0.28125 1.1094 0.28125 1.5156c0 0.39062 0 0.98438-0.25 1.4688-0.23438 0.48438-0.71875 0.79688-1.2656 0.79688z"/>
</g>
<g id="j">
<path d="m1.1562-0.82812c0 0.48438-0.125 0.48438-0.84375 0.48438v0.34375c0.35938-0.015625 0.85938-0.03125 1.1875-0.03125s0.75 0.015625 1.1875 0.03125v-0.34375c-0.71875 0-0.84375 0-0.84375-0.48438v-1.125l0.70312-0.59375c0.82812 1.1562 1.2969 1.7656 1.2969 1.9531 0 0.21875-0.1875 0.25-0.39062 0.25v0.34375c0.29688-0.015625 0.9375-0.03125 1.1719-0.03125 0.3125 0 0.625 0.015625 0.95312 0.03125v-0.34375c-0.40625 0-0.65625 0-1.0625-0.57812l-1.3906-1.9531c0-0.015625-0.0625-0.078125-0.0625-0.10938 0-0.046875 0.78125-0.70312 0.89062-0.79688 0.6875-0.54688 1.1406-0.57812 1.375-0.57812v-0.34375c-0.32812 0.03125-0.46875 0.03125-0.76562 0.03125-0.39062 0-1.0781-0.015625-1.2188-0.03125v0.34375c0.20312 0 0.3125 0.125 0.3125 0.26562 0 0.21875-0.15625 0.35938-0.25 0.42188l-1.5312 1.3438v-5.2344l-1.5625 0.10938v0.34375c0.75 0 0.84375 0.078125 0.84375 0.60938z"/>
</g>
<g id="o">
<path d="m1.875-4.0938v-0.73438l-1.5625 0.125v0.34375c0.76562 0 0.84375 0.0625 0.84375 0.54688v5.0938c0 0.5-0.125 0.5-0.84375 0.5v0.32812c0.35938 0 0.9375-0.03125 1.2188-0.03125 0.29688 0 0.84375 0.03125 1.2344 0.03125v-0.32812c-0.73438 0-0.85938 0-0.85938-0.5v-1.9219c0.0625 0.17188 0.51562 0.76562 1.3438 0.76562 1.2969 0 2.4375-1.0781 2.4375-2.4844 0-1.375-1.0625-2.4688-2.2812-2.4688-0.85938 0-1.3125 0.48438-1.5312 0.73438zm0.03125 2.8438v-2.4219c0.3125-0.5625 0.85938-0.875 1.4062-0.875 0.79688 0 1.4688 0.95312 1.4688 2.1875 0 1.3281-0.76562 2.2344-1.5781 2.2344-0.4375 0-0.84375-0.21875-1.1406-0.65625-0.15625-0.23438-0.15625-0.25-0.15625-0.46875z"/>
</g>
<g id="h">
<path d="m1.2031-3.75v2.9219c0 0.48438-0.125 0.48438-0.85938 0.48438v0.34375c0.39062-0.015625 0.9375-0.03125 1.2344-0.03125 0.28125 0 0.85938 0.015625 1.2188 0.03125v-0.34375c-0.71875 0-0.84375 0-0.84375-0.48438v-2c0-1.1406 0.76562-1.75 1.4688-1.75 0.6875 0 0.8125 0.59375 0.8125 1.2031v2.5469c0 0.48438-0.125 0.48438-0.85938 0.48438v0.34375c0.39062-0.015625 0.9375-0.03125 1.2344-0.03125 0.28125 0 0.85938 0.015625 1.2188 0.03125v-0.34375c-0.5625 0-0.82812 0-0.84375-0.32812v-2.0781c0-0.9375 0-1.2812-0.34375-1.6719-0.14062-0.1875-0.5-0.40625-1.1406-0.40625-0.79688 0-1.3125 0.46875-1.6094 1.1562v-1.1562l-1.5469 0.125v0.34375c0.76562 0 0.85938 0.078125 0.85938 0.60938z"/>
</g>
<g id="q">
<path d="m4.2656-0.85938v0.98438l1.5625-0.125v-0.34375c-0.75 0-0.84375-0.078125-0.84375-0.60938v-3.875l-1.6094 0.125v0.34375c0.76562 0 0.85938 0.078125 0.85938 0.60938v1.9375c0 0.95312-0.53125 1.6875-1.3281 1.6875-0.90625 0-0.95312-0.5-0.95312-1.0781v-3.625l-1.6094 0.125v0.34375c0.85938 0 0.85938 0.03125 0.85938 1v1.6406c0 0.84375 0 1.8438 1.6562 1.8438 0.60938 0 1.0938-0.3125 1.4062-0.98438z"/>
</g>
<g id="n">
<path d="m1.2031-3.75v2.9219c0 0.48438-0.125 0.48438-0.85938 0.48438v0.34375c0.39062-0.015625 0.9375-0.03125 1.2344-0.03125 0.28125 0 0.85938 0.015625 1.2188 0.03125v-0.34375c-0.71875 0-0.84375 0-0.84375-0.48438v-2c0-1.1406 0.76562-1.75 1.4688-1.75 0.6875 0 0.8125 0.59375 0.8125 1.2031v2.5469c0 0.48438-0.125 0.48438-0.85938 0.48438v0.34375c0.39062-0.015625 0.9375-0.03125 1.2344-0.03125 0.28125 0 0.85938 0.015625 1.2188 0.03125v-0.34375c-0.71875 0-0.84375 0-0.84375-0.48438v-2c0-1.1406 0.78125-1.75 1.4688-1.75s0.8125 0.59375 0.8125 1.2031v2.5469c0 0.48438-0.125 0.48438-0.85938 0.48438v0.34375c0.39062-0.015625 0.9375-0.03125 1.2344-0.03125 0.28125 0 0.85938 0.015625 1.2188 0.03125v-0.34375c-0.5625 0-0.82812 0-0.84375-0.32812v-2.0781c0-0.9375 0-1.2812-0.34375-1.6719-0.14062-0.1875-0.5-0.40625-1.1406-0.40625-0.92188 0-1.3906 0.65625-1.5781 1.0781-0.15625-0.95312-0.96875-1.0781-1.4531-1.0781-0.79688 0-1.3125 0.46875-1.6094 1.1562v-1.1562l-1.5469 0.125v0.34375c0.76562 0 0.85938 0.078125 0.85938 0.60938z"/>
</g>
<g id="as">
<path d="m1.875-4.1094v-3.4531l-1.5625 0.10938v0.34375c0.75 0 0.84375 0.078125 0.84375 0.60938v6.5h0.26562c0.015625-0.015625 0.10938-0.15625 0.40625-0.67188 0.15625 0.25 0.60938 0.79688 1.4219 0.79688 1.2969 0 2.4375-1.0781 2.4375-2.4844 0-1.375-1.0781-2.4688-2.3125-2.4688-0.85938 0-1.3281 0.51562-1.5 0.71875zm0.03125 2.8594v-2.2344c0-0.21875 0-0.21875 0.125-0.39062 0.42188-0.625 1.0156-0.70312 1.2812-0.70312 0.5 0 0.89062 0.28125 1.1406 0.70312 0.29688 0.4375 0.32812 1.0625 0.32812 1.5156 0 0.39062-0.03125 1.0469-0.34375 1.5469-0.23438 0.32812-0.64062 0.6875-1.2344 0.6875-0.48438 0-0.875-0.25-1.1406-0.65625-0.15625-0.23438-0.15625-0.26562-0.15625-0.46875z"/>
</g>
<g id="ar">
<path d="m6.75-3.6719c0.20312-0.53125 0.53125-0.6875 0.92188-0.6875v-0.34375c-0.25 0.03125-0.5625 0.03125-0.79688 0.03125-0.32812 0-0.8125-0.015625-1.0156-0.03125v0.34375c0.39062 0 0.625 0.20312 0.625 0.51562 0 0.0625 0 0.09375-0.046875 0.23438l-1 2.7969-1.0781-3.0469c-0.046875-0.125-0.046875-0.15625-0.046875-0.20312 0-0.29688 0.42188-0.29688 0.64062-0.29688v-0.34375c-0.3125 0.015625-0.875 0.03125-1.1406 0.03125-0.32812 0-0.64062 0-0.96875-0.03125v0.34375c0.40625 0 0.57812 0.015625 0.6875 0.15625 0.0625 0.0625 0.17188 0.39062 0.25 0.60938l-0.9375 2.6406-1.0312-2.9219c-0.0625-0.125-0.0625-0.15625-0.0625-0.1875 0-0.29688 0.4375-0.29688 0.65625-0.29688v-0.34375c-0.32812 0.015625-0.9375 0.03125-1.2031 0.03125-0.03125 0-0.60938 0-1-0.03125v0.34375c0.53125 0 0.67188 0.03125 0.79688 0.375l1.375 3.8594c0.0625 0.15625 0.09375 0.25 0.23438 0.25s0.15625-0.078125 0.21875-0.21875l1.0938-3.0938 1.1094 3.0938c0.046875 0.125 0.078125 0.21875 0.21875 0.21875 0.15625 0 0.1875-0.10938 0.21875-0.21875z"/>
</g>
<g id="i">
<path d="m1.9375-4.8281-1.5312 0.125v0.34375c0.70312 0 0.79688 0.0625 0.79688 0.59375v2.9375c0 0.48438-0.10938 0.48438-0.84375 0.48438v0.34375c0.34375-0.015625 0.9375-0.03125 1.2031-0.03125 0.375 0 0.76562 0.015625 1.125 0.03125v-0.34375c-0.71875 0-0.75-0.046875-0.75-0.46875zm0.03125-1.8906c0-0.34375-0.26562-0.57812-0.57812-0.57812-0.32812 0-0.57812 0.29688-0.57812 0.57812 0 0.29688 0.25 0.57812 0.57812 0.57812 0.3125 0 0.57812-0.23438 0.57812-0.57812z"/>
</g>
<g id="m">
<path d="m1.9375-7.5625-1.5781 0.10938v0.34375c0.76562 0 0.84375 0.078125 0.84375 0.60938v5.6719c0 0.48438-0.10938 0.48438-0.84375 0.48438v0.34375c0.35938-0.015625 0.9375-0.03125 1.2188-0.03125 0.26562 0 0.79688 0.015625 1.2031 0.03125v-0.34375c-0.73438 0-0.84375 0-0.84375-0.48438z"/>
</g>
<g id="ab">
<path d="m4.5312-3.6719c0.28125-0.6875 0.82812-0.6875 1.0156-0.6875v-0.34375c-0.25 0.03125-0.57812 0.03125-0.82812 0.03125-0.1875 0-0.70312-0.015625-0.9375-0.03125v0.34375c0.32812 0 0.5 0.1875 0.5 0.46875 0 0.10938 0 0.125-0.0625 0.26562l-1.0938 2.6719-1.2188-2.9219c-0.046875-0.10938-0.0625-0.15625-0.0625-0.20312 0-0.28125 0.40625-0.28125 0.60938-0.28125v-0.34375c-0.28125 0.015625-1 0.03125-1.1875 0.03125-0.29688 0-0.73438 0-1.0625-0.03125v0.34375c0.53125 0 0.73438 0 0.89062 0.375l1.625 3.9844c-0.046875 0.14062-0.20312 0.5-0.26562 0.64062-0.23438 0.60938-0.54688 1.3594-1.25 1.3594-0.046875 0-0.29688 0-0.5-0.20312 0.32812-0.046875 0.42188-0.28125 0.42188-0.45312 0-0.28125-0.20312-0.45312-0.45312-0.45312-0.21875 0-0.46875 0.14062-0.46875 0.46875 0 0.48438 0.46875 0.875 1 0.875 0.6875 0 1.1406-0.625 1.4062-1.2344z"/>
</g>
<g id="u">
<path d="m4.5312-3.625c0.10938-0.25 0.29688-0.73438 1.0156-0.73438v-0.34375c-0.25 0.03125-0.57812 0.03125-0.82812 0.03125-0.26562 0-0.76562-0.015625-0.9375-0.03125v0.34375c0.39062 0 0.51562 0.26562 0.51562 0.46875 0 0.09375-0.015625 0.14062-0.0625 0.26562l-1.1094 2.7812-1.2344-3.0469c-0.0625-0.14062-0.0625-0.17188-0.0625-0.1875 0-0.28125 0.42188-0.28125 0.625-0.28125v-0.34375c-0.32812 0.015625-0.9375 0.03125-1.1875 0.03125-0.29688 0-0.73438 0-1.0625-0.03125v0.34375c0.6875 0 0.73438 0.0625 0.875 0.40625l1.5781 3.8594c0.0625 0.15625 0.078125 0.21875 0.21875 0.21875s0.1875-0.10938 0.23438-0.21875z"/>
</g>
<g id="k">
<path d="m3.8125-4.2344-1.4062-0.32812c-0.67188-0.17188-1.0938-0.76562-1.0938-1.3906 0-0.76562 0.57812-1.4375 1.4375-1.4375 1.8125 0 2.0625 1.7969 2.125 2.2812 0.015625 0.078125 0.015625 0.14062 0.125 0.14062 0.14062 0 0.14062-0.0625 0.14062-0.26562v-2.1875c0-0.1875 0-0.26562-0.10938-0.26562-0.078125 0-0.09375 0.015625-0.17188 0.14062l-0.375 0.625c-0.32812-0.3125-0.78125-0.76562-1.75-0.76562-1.2031 0-2.125 0.95312-2.125 2.1094 0 0.90625 0.57812 1.7031 1.4375 2 0.10938 0.046875 0.67188 0.17188 1.4375 0.35938 0.29688 0.078125 0.60938 0.15625 0.92188 0.5625 0.23438 0.28125 0.34375 0.64062 0.34375 1 0 0.76562-0.54688 1.5625-1.4688 1.5625-0.3125 0-1.1406-0.0625-1.7188-0.59375-0.64062-0.59375-0.67188-1.2812-0.67188-1.6719-0.015625-0.10938-0.10938-0.10938-0.14062-0.10938-0.14062 0-0.14062 0.0625-0.14062 0.26562v2.1875c0 0.17188 0 0.25 0.125 0.25 0.078125 0 0.078125-0.015625 0.15625-0.14062 0 0 0.03125-0.046875 0.39062-0.625 0.34375 0.375 1.0469 0.76562 2.0156 0.76562 1.2656 0 2.1406-1.0625 2.1406-2.2656 0-1.0938-0.71875-1.9844-1.625-2.2031z"/>
</g>
<g id="aq">
<path d="m0.60938-3.7344c0 2.2656 1.7656 3.9688 3.7969 3.9688 1.7812 0 2.8438-1.5156 2.8438-2.7812 0-0.10938 0-0.17188-0.14062-0.17188-0.125 0-0.125 0.0625-0.125 0.17188-0.09375 1.5469-1.2656 2.4531-2.4531 2.4531-0.65625 0-2.7969-0.375-2.7969-3.625 0-3.2656 2.125-3.625 2.7969-3.625 1.1875 0 2.1562 0.98438 2.375 2.5781 0.015625 0.15625 0.015625 0.1875 0.17188 0.1875 0.17188 0 0.17188-0.03125 0.17188-0.26562v-2.5781c0-0.1875 0-0.26562-0.125-0.26562-0.03125 0-0.078125 0-0.17188 0.125l-0.54688 0.8125c-0.39062-0.39062-0.95312-0.9375-2-0.9375-2.0469 0-3.7969 1.7344-3.7969 3.9531z"/>
</g>
<g id="ag">
<path d="m7.5-3.5625c0.15625 0 0.35938 0 0.35938-0.21875s-0.20312-0.21875-0.35938-0.21875h-6.5312c-0.15625 0-0.35938 0-0.35938 0.21875s0.20312 0.21875 0.375 0.21875zm0 2.1094c0.15625 0 0.35938 0 0.35938-0.21875s-0.20312-0.21875-0.35938-0.21875h-6.5156c-0.17188 0-0.375 0-0.375 0.21875s0.20312 0.21875 0.35938 0.21875z"/>
</g>
<g id="af">
<path d="m0.375-7.4531v0.34375h0.26562c0.84375 0 0.85938 0.125 0.85938 0.51562v5.75c0 0.39062-0.015625 0.5-0.85938 0.5h-0.26562v0.34375h4c1.8281 0 3.3281-1.6094 3.3281-3.6719s-1.4688-3.7812-3.3281-3.7812zm2.6094 7.1094c-0.51562 0-0.54688-0.078125-0.54688-0.4375v-5.8906c0-0.35938 0.03125-0.4375 0.54688-0.4375h1.0781c0.6875 0 1.4375 0.23438 1.9844 1.0156 0.46875 0.64062 0.57812 1.5781 0.57812 2.4219 0 1.2188-0.21875 1.875-0.60938 2.4062-0.21875 0.29688-0.82812 0.92188-1.9375 0.92188z"/>
</g>
<g id="p">
<path d="m2.4219-1.875c-0.95312 0-0.95312-1.0938-0.95312-1.3438 0-0.29688 0.015625-0.64062 0.17188-0.92188 0.09375-0.125 0.34375-0.42188 0.78125-0.42188 0.95312 0 0.95312 1.0781 0.95312 1.3281 0 0.29688-0.015625 0.65625-0.17188 0.92188-0.09375 0.125-0.34375 0.4375-0.78125 0.4375zm-1.2656 0.42188c0-0.046875 0-0.29688 0.1875-0.51562 0.42188 0.3125 0.875 0.34375 1.0781 0.34375 1.0156 0 1.7656-0.75 1.7656-1.5938 0-0.40625-0.17188-0.8125-0.45312-1.0625 0.40625-0.35938 0.79688-0.42188 0.98438-0.42188 0.03125 0 0.078125 0 0.10938 0.015625-0.10938 0.046875-0.17188 0.15625-0.17188 0.29688 0 0.1875 0.14062 0.3125 0.3125 0.3125 0.10938 0 0.32812-0.078125 0.32812-0.32812 0-0.1875-0.14062-0.53125-0.5625-0.53125-0.21875 0-0.70312 0.0625-1.1562 0.51562-0.45312-0.35938-0.92188-0.40625-1.1562-0.40625-1.0156 0-1.7656 0.76562-1.7656 1.5938 0 0.48438 0.23438 0.90625 0.51562 1.125-0.14062 0.17188-0.34375 0.53125-0.34375 0.90625 0 0.34375 0.14062 0.75 0.48438 0.96875-0.65625 0.1875-1 0.65625-1 1.0938 0 0.78125 1.0781 1.3906 2.4062 1.3906 1.2812 0 2.4219-0.5625 2.4219-1.4062 0-0.39062-0.15625-0.9375-0.71875-1.25-0.57812-0.29688-1.2031-0.29688-1.875-0.29688-0.26562 0-0.73438 0-0.8125-0.015625-0.34375-0.046875-0.57812-0.375-0.57812-0.73438zm1.5625 3.4531c-1.0938 0-1.8438-0.5625-1.8438-1.1406 0-0.5 0.40625-0.90625 0.89062-0.9375h0.64062c0.9375 0 2.1562 0 2.1562 0.9375 0 0.59375-0.76562 1.1406-1.8438 1.1406z"/>
</g>
<g id="aa">
<path d="m3.6094 2.625c0-0.046875 0-0.0625-0.1875-0.25-1.3594-1.375-1.7031-3.4375-1.7031-5.0938 0-1.9062 0.40625-3.7969 1.75-5.1719 0.14062-0.125 0.14062-0.14062 0.14062-0.1875 0-0.0625-0.046875-0.09375-0.10938-0.09375-0.10938 0-1.0938 0.73438-1.7344 2.125-0.5625 1.1875-0.6875 2.4062-0.6875 3.3281 0 0.84375 0.125 2.1562 0.71875 3.3906 0.65625 1.3438 1.5938 2.0469 1.7031 2.0469 0.0625 0 0.10938-0.03125 0.10938-0.09375z"/>
</g>
<g id="z">
<path d="m3.1562-2.7188c0-0.85938-0.125-2.1719-0.71875-3.4062-0.65625-1.3438-1.5938-2.0469-1.7031-2.0469-0.0625 0-0.10938 0.03125-0.10938 0.09375 0 0.046875 0 0.0625 0.20312 0.26562 1.0625 1.0781 1.6875 2.8125 1.6875 5.0938 0 1.8594-0.40625 3.7812-1.75 5.1562-0.14062 0.125-0.14062 0.14062-0.14062 0.1875 0 0.0625 0.046875 0.09375 0.10938 0.09375 0.10938 0 1.0938-0.73438 1.7344-2.125 0.54688-1.1875 0.6875-2.4062 0.6875-3.3125z"/>
</g>
<g id="y">
<path d="m2.0938-4.125c0-0.3125-0.26562-0.57812-0.57812-0.57812s-0.57812 0.26562-0.57812 0.57812 0.26562 0.57812 0.57812 0.57812 0.57812-0.26562 0.57812-0.57812zm-0.20312 4c0 0.3125 0 1.1562-0.70312 1.9688-0.078125 0.09375-0.078125 0.10938-0.078125 0.14062 0 0.078125 0.0625 0.125 0.10938 0.125 0.125 0 0.90625-0.875 0.90625-2.1406 0-0.3125-0.015625-1.125-0.60938-1.125-0.375 0-0.57812 0.29688-0.57812 0.57812s0.1875 0.57812 0.57812 0.57812c0.0625 0 0.078125 0 0.09375-0.015625 0.0625 0 0.1875-0.03125 0.28125-0.10938z"/>
</g>
<g id="t">
<path d="m2.2188-0.015625c0-0.6875-0.26562-1.1406-0.70312-1.1406-0.375 0-0.57812 0.29688-0.57812 0.57812s0.1875 0.57812 0.57812 0.57812c0.17188 0 0.3125-0.0625 0.42188-0.15625l0.015625-0.015625c0.015625 0 0.015625 0.015625 0.015625 0.15625 0 0.70312-0.29688 1.375-0.78125 1.875-0.0625 0.078125-0.078125 0.078125-0.078125 0.125 0 0.078125 0.0625 0.125 0.10938 0.125 0.14062 0 1-0.85938 1-2.125z"/>
</g>
<g id="s">
<path d="m1.9062-4.7031v-1.2656c0-0.95312 0.53125-1.4844 1-1.4844 0.03125 0 0.20312 0 0.35938 0.078125-0.125 0.046875-0.32812 0.1875-0.32812 0.45312s0.1875 0.46875 0.46875 0.46875c0.32812 0 0.48438-0.20312 0.48438-0.46875 0-0.40625-0.40625-0.76562-0.98438-0.76562-0.75 0-1.6875 0.57812-1.6875 1.7344v1.25h-0.85938v0.34375h0.85938v3.5312c0 0.48438-0.125 0.48438-0.84375 0.48438v0.34375c0.42188-0.015625 0.9375-0.03125 1.2344-0.03125 0.4375 0 0.95312 0 1.3906 0.03125v-0.34375h-0.23438c-0.79688 0-0.82812-0.10938-0.82812-0.5v-3.5156h1.25v-0.34375z"/>
</g>
<g id="x">
<path d="m4.1406-0.67188v1.9531c0 0.5-0.10938 0.5-0.84375 0.5v0.32812c0.375 0 0.9375-0.03125 1.2188-0.03125 0.29688 0 0.84375 0.03125 1.2344 0.03125v-0.32812c-0.73438 0-0.85938 0-0.85938-0.5v-6.1094h-0.23438l-0.40625 1c-0.15625-0.3125-0.59375-1-1.4688-1-1.2656 0-2.4062 1.0625-2.4062 2.4844 0 1.3594 1.0469 2.4688 2.3125 2.4688 0.76562 0 1.2188-0.46875 1.4531-0.79688zm0.03125-2.3438v1.5312c0 0.34375-0.1875 0.65625-0.4375 0.92188-0.14062 0.14062-0.48438 0.4375-1 0.4375-0.79688 0-1.4531-0.96875-1.4531-2.2188 0-1.2969 0.76562-2.2031 1.5625-2.2031 0.875 0 1.3281 0.95312 1.3281 1.5312z"/>
</g>
<g id="l">
<path d="m4.1406-0.59375v0.71875l1.6094-0.125v-0.34375c-0.76562 0-0.85938-0.078125-0.85938-0.60938v-6.6094l-1.5625 0.10938v0.34375c0.76562 0 0.84375 0.078125 0.84375 0.60938v2.3594c-0.3125-0.39062-0.78125-0.6875-1.375-0.6875-1.2812 0-2.4219 1.0781-2.4219 2.4844 0 1.3906 1.0625 2.4688 2.3125 2.4688 0.6875 0 1.1875-0.375 1.4531-0.71875zm0-2.9219v2.2344c0 0.1875 0 0.21875-0.10938 0.39062-0.32812 0.53125-0.82812 0.76562-1.2969 0.76562-0.48438 0-0.875-0.28125-1.1406-0.6875-0.28125-0.45312-0.3125-1.0781-0.3125-1.5156 0-0.40625 0.015625-1.0625 0.32812-1.5469 0.23438-0.34375 0.64062-0.70312 1.2344-0.70312 0.39062 0 0.84375 0.15625 1.1875 0.65625 0.10938 0.1875 0.10938 0.20312 0.10938 0.40625z"/>
</g>
<g id="ae">
<path d="m1.2031-0.82812c0 0.48438-0.125 0.48438-0.85938 0.48438v0.34375c0.39062-0.015625 0.9375-0.03125 1.2344-0.03125 0.28125 0 0.85938 0.015625 1.2188 0.03125v-0.34375c-0.71875 0-0.84375 0-0.84375-0.48438v-2c0-1.1406 0.76562-1.75 1.4688-1.75 0.6875 0 0.8125 0.59375 0.8125 1.2031v2.5469c0 0.48438-0.125 0.48438-0.85938 0.48438v0.34375c0.39062-0.015625 0.9375-0.03125 1.2344-0.03125 0.28125 0 0.85938 0.015625 1.2188 0.03125v-0.34375c-0.5625 0-0.82812 0-0.84375-0.32812v-2.0781c0-0.9375 0-1.2812-0.34375-1.6719-0.14062-0.1875-0.5-0.40625-1.1406-0.40625-0.92188 0-1.3906 0.65625-1.5781 1.0781v-3.8125l-1.5781 0.10938v0.34375c0.76562 0 0.85938 0.078125 0.85938 0.60938z"/>
</g>
<g id="ap">
<path d="m3.0625 2.1406c0-0.046875-0.03125-0.078125-0.078125-0.14062-1.1562-1.0625-1.5156-2.6719-1.5156-4.25 0-1.375 0.26562-3.0625 1.5312-4.2656 0.046875-0.046875 0.0625-0.0625 0.0625-0.10938 0-0.0625-0.046875-0.10938-0.10938-0.10938-0.10938 0-0.92188 0.65625-1.4062 1.625-0.42188 0.85938-0.64062 1.7969-0.64062 2.8594 0 0.64062 0.078125 1.6719 0.57812 2.7188 0.53125 1.1094 1.3594 1.7656 1.4688 1.7656 0.0625 0 0.10938-0.03125 0.10938-0.09375z"/>
</g>
<g id="al">
<path d="m1.5938-2.0469c0-0.375 0.09375-1.6875 1.125-1.6875-0.015625 0.015625-0.15625 0.125-0.15625 0.32812 0 0.25 0.1875 0.40625 0.39062 0.40625 0.1875 0 0.39062-0.14062 0.39062-0.40625 0-0.28125-0.26562-0.5625-0.67188-0.5625-0.53125 0-0.90625 0.375-1.125 0.9375v-0.9375l-1.2812 0.10938v0.26562c0.60938 0 0.6875 0.0625 0.6875 0.51562v2.3906c0 0.40625-0.09375 0.40625-0.6875 0.40625v0.28125c0.48438-0.015625 0.59375-0.03125 1.0469-0.03125 0.35938 0 0.57812 0.015625 1.1406 0.03125v-0.28125h-0.17188c-0.65625 0-0.6875-0.09375-0.6875-0.42188z"/>
</g>
<g id="ak">
<path d="m3.5469-1.5c0 0.79688-0.4375 1.375-1.0938 1.375-0.73438 0-0.78125-0.39062-0.78125-0.875v-2.9688l-1.3594 0.10938v0.26562c0.6875 0 0.6875 0.03125 0.6875 0.82812v1.3438c0 0.59375 0 0.96875 0.42188 1.2812 0.25 0.17188 0.625 0.23438 0.98438 0.23438 0.46875 0 0.90625-0.20312 1.1562-0.73438h0.015625v0.73438l1.3281-0.09375v-0.28125c-0.60938 0-0.6875-0.0625-0.6875-0.5v-3.1875l-1.3594 0.10938v0.26562c0.60938 0 0.6875 0.0625 0.6875 0.51562z"/>
</g>
<g id="r">
<path d="m1.6719-2.3281c0-0.95312 0.67188-1.4062 1.2344-1.4062 0.53125 0 0.64062 0.4375 0.64062 0.96875v2.0781c0 0.40625-0.09375 0.40625-0.6875 0.40625v0.28125c0.42188-0.015625 0.59375-0.03125 1.0312-0.03125 0.42188 0 0.54688 0.015625 1.0156 0.03125v-0.28125c-0.45312 0-0.6875 0-0.6875-0.28125v-1.7188c0-0.73438 0-1-0.25-1.3125-0.20312-0.25-0.54688-0.375-1-0.375-0.82812 0-1.2188 0.625-1.3438 0.875h-0.015625v-0.875l-1.2969 0.10938v0.26562c0.60938 0 0.6875 0.0625 0.6875 0.51562v2.3906c0 0.40625-0.09375 0.40625-0.6875 0.40625v0.28125c0.42188-0.015625 0.59375-0.03125 1.0312-0.03125 0.42188 0 0.54688 0.015625 1.0156 0.03125v-0.28125c-0.59375 0-0.6875 0-0.6875-0.40625z"/>
</g>
<g id="ad">
<path d="m1.6562-3.9688-1.2969 0.10938v0.26562c0.57812 0 0.65625 0.0625 0.65625 0.5v2.4062c0 0.40625-0.09375 0.40625-0.6875 0.40625v0.28125c0.39062-0.015625 0.59375-0.03125 0.98438-0.03125 0.14062 0 0.51562 0 0.95312 0.03125v-0.28125c-0.57812 0-0.60938-0.046875-0.60938-0.39062zm0.015625-1.5625c0-0.26562-0.20312-0.48438-0.48438-0.48438-0.26562 0-0.48438 0.23438-0.48438 0.48438 0 0.26562 0.21875 0.48438 0.48438 0.48438 0.28125 0 0.48438-0.20312 0.48438-0.48438z"/>
</g>
<g id="aj">
<path d="m1.125-1.6094c0.21875 0.14062 0.5 0.28125 0.90625 0.28125 0.85938 0 1.5-0.60938 1.5-1.3125 0-0.4375-0.25-0.75-0.35938-0.875 0.35938-0.32812 0.78125-0.32812 0.875-0.32812-0.03125 0.03125-0.10938 0.078125-0.10938 0.23438 0 0.10938 0.0625 0.26562 0.26562 0.26562 0.125 0 0.26562-0.078125 0.26562-0.26562 0-0.17188-0.125-0.45312-0.48438-0.45312-0.25 0-0.65625 0.09375-0.96875 0.42188-0.25-0.20312-0.59375-0.32812-0.96875-0.32812-0.85938 0-1.5 0.60938-1.5 1.3281 0 0.45312 0.26562 0.78125 0.40625 0.90625-0.015625 0.015625-0.26562 0.32812-0.26562 0.75 0 0.29688 0.14062 0.625 0.39062 0.78125-0.45312 0.15625-0.8125 0.48438-0.8125 0.90625 0 0.64062 0.875 1.1406 2.0312 1.1406 1.1094 0 2.0469-0.46875 2.0469-1.1562 0-0.375-0.17188-0.76562-0.5-0.98438-0.5-0.3125-1.0312-0.3125-1.875-0.3125-0.1875 0-0.46875 0-0.54688-0.015625-0.25-0.0625-0.42188-0.29688-0.42188-0.57812 0-0.15625 0.046875-0.28125 0.125-0.40625zm0.90625 0.046875c-0.79688 0-0.79688-0.89062-0.79688-1.0781 0-0.25 0.015625-0.54688 0.17188-0.76562 0.14062-0.1875 0.375-0.3125 0.625-0.3125 0.8125 0 0.8125 0.85938 0.8125 1.0781 0 0.20312 0 1.0781-0.8125 1.0781zm0.42188 1.5156c0.28125 0 1.3906 0.015625 1.3906 0.73438 0 0.51562-0.70312 0.92188-1.5312 0.92188-0.89062 0-1.5469-0.42188-1.5469-0.92188 0-0.14062 0.09375-0.73438 0.85938-0.73438z"/>
</g>
<g id="ac">
<path d="m4.3438-1.9062c0-1.1719-0.9375-2.1094-2.0312-2.1094-1.1406 0-2.0469 0.95312-2.0469 2.1094 0 1.1094 0.92188 2 2.0312 2 1.1406 0 2.0469-0.90625 2.0469-2zm-2.0312 1.75c-0.45312 0-0.82812-0.21875-1.0312-0.5625-0.23438-0.39062-0.25-0.85938-0.25-1.2656 0-0.34375 0-0.84375 0.21875-1.2188 0.28125-0.45312 0.71875-0.59375 1.0469-0.59375 0.51562 0 0.875 0.29688 1.0625 0.59375 0.20312 0.375 0.20312 0.82812 0.20312 1.2188 0 0.32812 0 0.84375-0.21875 1.2344-0.25 0.42188-0.65625 0.59375-1.0312 0.59375z"/>
</g>
<g id="ai">
<path d="m1.6406-6.2188-1.3281 0.09375v0.28125c0.60938 0 0.6875 0.0625 0.6875 0.5v4.6562c0 0.40625-0.09375 0.40625-0.6875 0.40625v0.28125c0.42188-0.015625 0.59375-0.03125 1.0312-0.03125 0.42188 0 0.54688 0.015625 1.0156 0.03125v-0.28125c-0.59375 0-0.6875 0-0.6875-0.40625v-1.6406c0-0.95312 0.67188-1.4062 1.2344-1.4062 0.53125 0 0.64062 0.4375 0.64062 0.96875v2.0781c0 0.40625-0.09375 0.40625-0.6875 0.40625v0.28125c0.42188-0.015625 0.59375-0.03125 1.0312-0.03125 0.42188 0 0.54688 0.015625 1.0156 0.03125v-0.28125c-0.45312 0-0.6875 0-0.6875-0.28125v-1.7188c0-0.73438 0-1-0.25-1.3125-0.20312-0.25-0.54688-0.375-1-0.375-0.59375 0-1.0469 0.3125-1.3125 0.82812h-0.015625z"/>
</g>
<g id="ah">
<path d="m3.0781-3.7812c0-0.15625 0-0.23438-0.09375-0.23438-0.046875 0-0.0625 0-0.1875 0.10938-0.015625 0.015625-0.09375 0.09375-0.15625 0.14062-0.26562-0.20312-0.54688-0.25-0.85938-0.25-1.1875 0-1.4688 0.65625-1.4688 1.1094 0 0.28125 0.125 0.51562 0.32812 0.71875 0.29688 0.28125 0.64062 0.34375 1.0938 0.42188 0.46875 0.09375 0.60938 0.10938 0.8125 0.26562 0.09375 0.078125 0.3125 0.25 0.3125 0.57812 0 0.79688-0.90625 0.79688-1.0312 0.79688-0.90625 0-1.1406-0.76562-1.25-1.25-0.03125-0.09375-0.046875-0.14062-0.14062-0.14062-0.125 0-0.125 0.078125-0.125 0.23438v1.1406c0 0.15625 0 0.23438 0.09375 0.23438 0.0625 0 0.0625 0 0.23438-0.17188 0.03125-0.0625 0.125-0.17188 0.17188-0.21875 0.375 0.375 0.79688 0.39062 1.0156 0.39062 1.1094 0 1.4844-0.64062 1.4844-1.2344 0-0.40625-0.17188-0.65625-0.375-0.85938-0.29688-0.29688-0.625-0.35938-1.2812-0.48438-0.23438-0.046875-0.89062-0.15625-0.89062-0.67188 0-0.28125 0.20312-0.67188 1.0156-0.67188 0.96875 0 1.0312 0.75 1.0469 0.96875 0.015625 0.10938 0.015625 0.17188 0.125 0.17188 0.125 0 0.125-0.0625 0.125-0.23438z"/>
</g>
<g id="ao">
<path d="m2.9219-3.5938v-0.26562h-1.3125v-1.6562h-0.25c0 0.75-0.3125 1.6719-1.1875 1.7031v0.21875h0.78125v2.4844c0 1 0.71875 1.2031 1.2031 1.2031 0.59375 0 0.90625-0.5625 0.90625-1.2031v-0.51562h-0.25v0.48438c0 0.67188-0.28125 0.98438-0.59375 0.98438-0.60938 0-0.60938-0.78125-0.60938-0.95312v-2.4844z"/>
</g>
<g id="an">
<path d="m3.4844-1.0781c0 0.15625 0 0.1875-0.125 0.375-0.28125 0.40625-0.70312 0.57812-1.0469 0.57812-0.39062 0-0.75-0.21875-0.98438-0.59375-0.23438-0.39062-0.25-0.90625-0.25-1.2031 0-0.42188 0.046875-0.89062 0.28125-1.25 0.20312-0.29688 0.5625-0.5625 1.0469-0.5625 0.375 0 0.73438 0.1875 0.96875 0.53125 0.10938 0.14062 0.10938 0.14062 0.10938 0.3125zm0.03125-2.3594c-0.046875-0.046875-0.45312-0.53125-1.1406-0.53125-1.1094 0-2.0625 0.89062-2.0625 2.0469 0 1.1094 0.89062 2.0156 1.9531 2.0156 0.65625 0 1.0625-0.375 1.2188-0.5625v0.5625l1.3594-0.09375v-0.28125c-0.60938 0-0.6875-0.0625-0.6875-0.5v-5.4375l-1.3281 0.09375v0.28125c0.60938 0 0.6875 0.0625 0.6875 0.5z"/>
</g>
<g id="am">
<path d="m2.6719-2.25c0-0.73438-0.10938-1.7188-0.57812-2.7188-0.53125-1.1094-1.3594-1.7656-1.4688-1.7656-0.09375 0-0.10938 0.078125-0.10938 0.10938 0 0.046875 0.015625 0.0625 0.078125 0.125 0.53125 0.46875 1.5156 1.6875 1.5156 4.25 0 1.2812-0.23438 3.0625-1.5312 4.2812-0.015625 0.015625-0.0625 0.0625-0.0625 0.10938 0 0.015625 0.015625 0.09375 0.10938 0.09375 0.10938 0 0.92188-0.64062 1.4062-1.625 0.42188-0.85938 0.64062-1.7812 0.64062-2.8594z"/>
</g>
<clipPath id="bi">
<path d="m235 66h2v40h-2z"/>
</clipPath>
<clipPath id="bh">
<path d="m-0.47266 290.73h384v-291h-384zm234.74-189.87v5.4141h3.4023v-5.4141l-1.7031 4.2539z" clip-rule="evenodd"/>
</clipPath>
<clipPath id="ba">
<path d="m44 56h2v34h-2z"/>
</clipPath>
<clipPath id="az">
<path d="m-0.47266 290.73h384v-291h-384zm43.375-206.45v5.418h3.4023v-5.418l-1.7031 4.2539z" clip-rule="evenodd"/>
</clipPath>
<clipPath id="ay">
<path d="m137 108h51v21h-51z"/>
</clipPath>
<clipPath id="ax">
<path d="m-0.47266 290.73h384v-291h-384zm180.53-164.66 4.9062 1.5312 1.0195-3.2578-4.9062-1.5312 3.5742 2.918z" clip-rule="evenodd"/>
</clipPath>
<clipPath id="aw">
<path d="m136 191h51v38h-51z"/>
</clipPath>
<clipPath id="av">
<path d="m-0.47266 290.73h384v-291h-384zm142.26-69.406-4.2227 2.8906 1.9297 2.8047 4.2227-2.8906-4.4492 1.0195z" clip-rule="evenodd"/>
</clipPath>
<clipPath id="au">
<path d="m235 85h117v157h-117z"/>
</clipPath>
<clipPath id="at">
<path d="m-0.47266 290.73h384v-291h-384zm247.35-206.17h-5.4141v3.4023h5.4141l-4.25-1.7031z" clip-rule="evenodd"/>
</clipPath>
<clipPath id="bg">
<path d="m44 133h2v78h-2z"/>
</clipPath>
<clipPath id="bf">
<path d="m-0.47266 290.73h384v-291h-384zm43.375-85.254v5.4141h3.4023v-5.4141l-1.7031 4.25z" clip-rule="evenodd"/>
</clipPath>
<clipPath id="be">
<path d="m44 240h2v33h-2z"/>
</clipPath>
<clipPath id="bd">
<path d="m-0.47266 290.73h384v-291h-384zm43.375-22.742v5.4141h3.4023v-5.4141l-1.7031 4.25z" clip-rule="evenodd"/>
</clipPath>
<clipPath id="bc">
<path d="m235 135h2v34h-2z"/>
</clipPath>
<clipPath id="bb">
<path d="m-0.47266 290.73h384v-291h-384zm234.74-127.36v5.4141h3.4023v-5.4141l-1.7031 4.2539z" clip-rule="evenodd"/>
</clipPath>
</defs>
<g clip-path="url(#bi)">
<g clip-path="url(#bh)">
<path transform="matrix(.1 0 0 -.1 -.472 290.74)" d="m2364.4 2236v-382.7" fill="none" stroke="#000" stroke-miterlimit="10" stroke-width="8.505"/>
</g>
</g>
<path d="m234.27 100.87 1.6992 4.2539 1.7031-4.2539-1.7031 0.85156-1.6992-0.85156" fill-rule="evenodd"/>
<path transform="matrix(.1 0 0 -.1 -.472 290.74)" d="m2347.4 1898.7 16.992-42.539 17.031 42.539-17.031-8.5156z" fill="none" stroke="#000" stroke-miterlimit="10" stroke-width="2.1262"/>
<g clip-path="url(#ba)">
<g clip-path="url(#az)">
<path transform="matrix(.1 0 0 -.1 -.472 290.74)" d="m450.74 2338.1v-318.95" fill="none" stroke="#000" stroke-miterlimit="10" stroke-width="8.505"/>
</g>
</g>
<path d="m42.902 84.281 1.6992 4.2539 1.7031-4.2539-1.7031 0.85156-1.6992-0.85156" fill-rule="evenodd"/>
<path transform="matrix(.1 0 0 -.1 -.472 290.74)" d="m433.74 2064.5 16.992-42.539 17.031 42.539-17.031-8.5156z" fill="none" stroke="#000" stroke-miterlimit="10" stroke-width="2.1262"/>
<g clip-path="url(#ay)">
<g clip-path="url(#ax)">
<path transform="matrix(.1 0 0 -.1 -.472 290.74)" d="m1407.6 1789.5 446.48-140.35" fill="none" stroke="#000" stroke-dasharray="17.01" stroke-miterlimit="10" stroke-width="2.1262"/>
</g>
</g>
<path d="m180.06 126.07 4.5938-0.33984-3.5742-2.918 0.3125 1.8984-1.332 1.3594" fill-rule="evenodd"/>
<path transform="matrix(.1 0 0 -.1 -.472 290.74)" d="m1805.3 1646.6 45.938 3.3984-35.742 29.18 3.125-18.984z" fill="none" stroke="#000" stroke-miterlimit="10" stroke-width="2.1262"/>
<g clip-path="url(#aw)">
<g clip-path="url(#av)">
<path transform="matrix(.1 0 0 -.1 -.472 290.74)" d="m1841.3 960.28-446.52-306.17" fill="none" stroke="#000" stroke-dasharray="17.01" stroke-miterlimit="10" stroke-width="2.1262"/>
</g>
</g>
<path d="m141.79 221.33-2.5195 3.8242 4.4492-1.0195-1.6719-0.90625-0.25781-1.8984" fill-rule="evenodd"/>
<path transform="matrix(.1 0 0 -.1 -.472 290.74)" d="m1422.6 694.07-25.195-38.242 44.492 10.195-16.719 9.0625z" fill="none" stroke="#000" stroke-miterlimit="10" stroke-width="2.1262"/>
<g clip-path="url(#au)">
<g clip-path="url(#at)">
<path transform="matrix(.1 0 0 -.1 -.472 290.74)" d="m2364.4 756.18v-255.16h1148.2v1543.7h-1084.4" fill="none" stroke="#000" stroke-miterlimit="10" stroke-width="8.505"/>
</g>
</g>
<path d="m246.88 84.566-4.25 1.6992 4.25 1.7031-0.84766-1.7031 0.84766-1.6992" fill-rule="evenodd"/>
<path transform="matrix(.1 0 0 -.1 -.472 290.74)" d="m2473.5 2061.7-42.5-16.992 42.5-17.031-8.4766 17.031z" fill="none" stroke="#000" stroke-miterlimit="10" stroke-width="2.1262"/>
<g clip-path="url(#bg)">
<g clip-path="url(#bf)">
<path transform="matrix(.1 0 0 -.1 -.472 290.74)" d="m450.74 1572.7v-765.47" fill="none" stroke="#000" stroke-miterlimit="10" stroke-width="8.505"/>
</g>
</g>
<path d="m42.902 205.48 1.6992 4.25 1.7031-4.25-1.7031 0.84766-1.6992-0.84766" fill-rule="evenodd"/>
<path transform="matrix(.1 0 0 -.1 -.472 290.74)" d="m433.74 852.55 16.992-42.5 17.031 42.5-17.031-8.4766z" fill="none" stroke="#000" stroke-miterlimit="10" stroke-width="2.1262"/>
<g clip-path="url(#be)">
<g clip-path="url(#bd)">
<path transform="matrix(.1 0 0 -.1 -.472 290.74)" d="m450.74 501.02v-318.95" fill="none" stroke="#000" stroke-miterlimit="10" stroke-width="8.505"/>
</g>
</g>
<path d="m42.902 267.99 1.6992 4.25 1.7031-4.25-1.7031 0.84766-1.6992-0.84766" fill-rule="evenodd"/>
<path transform="matrix(.1 0 0 -.1 -.472 290.74)" d="m433.74 227.43 16.992-42.5 17.031 42.5-17.031-8.4766z" fill="none" stroke="#000" stroke-miterlimit="10" stroke-width="2.1262"/>
<g clip-path="url(#bc)">
<g clip-path="url(#bb)">
<path transform="matrix(.1 0 0 -.1 -.472 290.74)" d="m2364.4 1547.1v-318.91" fill="none" stroke="#000" stroke-miterlimit="10" stroke-width="8.505"/>
</g>
</g>
<path d="m234.27 163.38 1.6992 4.2539 1.7031-4.2539-1.7031 0.85156-1.6992-0.85156" fill-rule="evenodd"/>
<path transform="matrix(.1 0 0 -.1 -.472 290.74)" d="m2347.4 1273.6 16.992-42.539 17.031 42.539-17.031-8.5156z" fill="none" stroke="#000" stroke-miterlimit="10" stroke-width="2.1262"/>
<g>
<use x="-0.046" y="41.527" xlink:href="#w"/>
<use x="5.40855" y="41.527" xlink:href="#v"/>
<use x="14.49583" y="41.527" xlink:href="#e"/>
<use x="19.343834" y="41.527" xlink:href="#c"/>
<use x="23.616929" y="41.527" xlink:href="#a"/>
<use x="28.464933" y="41.527" xlink:href="#g"/>
<use x="33.919483" y="41.527" xlink:href="#b"/>
<use x="38.162032" y="41.527" xlink:href="#a"/>
<use x="46.653675" y="41.527" xlink:href="#f"/>
<use x="50.956224" y="41.527" xlink:href="#d"/>
<use x="56.716229" y="41.527" xlink:href="#e"/>
<use x="61.258778" y="41.527" xlink:href="#j"/>
<use x="66.711147" y="41.527" xlink:href="#a"/>
<use x="71.559151" y="41.527" xlink:href="#b"/>
<use x="79.43443" y="41.527" xlink:href="#v"/>
<use x="84.88898" y="41.527" xlink:href="#w"/>
<use x="191.325" y="209.084" xlink:href="#o"/>
<use x="197.691551" y="209.084" xlink:href="#d"/>
<use x="203.146101" y="209.084" xlink:href="#c"/>
<use x="207.419195" y="209.084" xlink:href="#b"/>
<use x="211.661744" y="209.084" xlink:href="#h"/>
<use x="217.417385" y="209.084" xlink:href="#q"/>
<use x="223.478481" y="209.084" xlink:href="#n"/>
<use x="232.26358" y="209.084" xlink:href="#as"/>
<use x="238.63013" y="209.084" xlink:href="#a"/>
<use x="243.478134" y="209.084" xlink:href="#c"/>
<use x="191.325" y="186.97" xlink:href="#ar"/>
<use x="199.203552" y="186.97" xlink:href="#c"/>
<use x="203.476646" y="186.97" xlink:href="#i"/>
<use x="206.507194" y="186.97" xlink:href="#b"/>
<use x="210.749743" y="186.97" xlink:href="#a"/>
<use x="219.230478" y="186.97" xlink:href="#c"/>
<use x="223.503572" y="186.97" xlink:href="#a"/>
<use x="228.351576" y="186.97" xlink:href="#o"/>
<use x="234.412672" y="186.97" xlink:href="#m"/>
<use x="237.44322" y="186.97" xlink:href="#ab"/>
<use x="246.844683" y="186.97" xlink:href="#b"/>
<use x="251.087232" y="186.97" xlink:href="#d"/>
<use x="260.174512" y="186.97" xlink:href="#f"/>
<use x="264.477061" y="186.97" xlink:href="#a"/>
<use x="269.325065" y="186.97" xlink:href="#c"/>
<use x="273.598159" y="186.97" xlink:href="#u"/>
<use x="279.050528" y="186.97" xlink:href="#a"/>
<use x="283.898532" y="186.97" xlink:href="#c"/>
<use x="288.171626" y="186.97" xlink:href="#k"/>
<use x="294.232722" y="186.97" xlink:href="#d"/>
<use x="299.992727" y="186.97" xlink:href="#e"/>
<use x="304.535276" y="186.97" xlink:href="#j"/>
<use x="309.987644" y="186.97" xlink:href="#a"/>
<use x="314.835648" y="186.97" xlink:href="#b"/>
<use x="30.213" y="8.356" xlink:href="#aq"/>
<use x="38.091552" y="8.356" xlink:href="#m"/>
<use x="41.1221" y="8.356" xlink:href="#i"/>
<use x="44.152648" y="8.356" xlink:href="#a"/>
<use x="49.000652" y="8.356" xlink:href="#h"/>
<use x="54.756293" y="8.356" xlink:href="#b"/>
<use x="221.097159" y="8.356" xlink:href="#k"/>
<use x="227.158255" y="8.356" xlink:href="#a"/>
<use x="232.006259" y="8.356" xlink:href="#c"/>
<use x="236.279354" y="8.356" xlink:href="#u"/>
<use x="241.731722" y="8.356" xlink:href="#a"/>
<use x="246.579726" y="8.356" xlink:href="#c"/>
<use x="196.521" y="17.712" xlink:href="#ap"/>
<use x="200.10487" y="17.712" xlink:href="#al"/>
<use x="203.709363" y="17.712" xlink:href="#ak"/>
<use x="208.829177" y="17.712" xlink:href="#r"/>
<use x="213.948992" y="17.712" xlink:href="#r"/>
<use x="219.068806" y="17.712" xlink:href="#ad"/>
<use x="221.628713" y="17.712" xlink:href="#r"/>
<use x="226.748528" y="17.712" xlink:href="#aj"/>
<use x="234.431836" y="17.712" xlink:href="#ac"/>
<use x="239.030702" y="17.712" xlink:href="#r"/>
<use x="247.225992" y="17.712" xlink:href="#ai"/>
<use x="252.345806" y="17.712" xlink:href="#ac"/>
<use x="256.953639" y="17.712" xlink:href="#ah"/>
<use x="260.588618" y="17.712" xlink:href="#ao"/>
<use x="264.172488" y="17.712" xlink:href="#ad"/>
<use x="266.732395" y="17.712" xlink:href="#an"/>
<use x="271.85221" y="17.712" xlink:href="#am"/>
<use x="-0.046" y="52.584" xlink:href="#e"/>
<use x="4.802004" y="52.584" xlink:href="#m"/>
<use x="7.832552" y="52.584" xlink:href="#i"/>
<use x="10.8631" y="52.584" xlink:href="#a"/>
<use x="15.711104" y="52.584" xlink:href="#h"/>
<use x="21.466745" y="52.584" xlink:href="#b"/>
<use x="25.709294" y="52.584" xlink:href="#k"/>
<use x="31.77039" y="52.584" xlink:href="#d"/>
<use x="37.530395" y="52.584" xlink:href="#e"/>
<use x="42.072944" y="52.584" xlink:href="#j"/>
<use x="47.525312" y="52.584" xlink:href="#a"/>
<use x="52.373316" y="52.584" xlink:href="#b"/>
<use x="60.259505" y="52.584" xlink:href="#ag"/>
<use x="72.377333" y="52.584" xlink:href="#af"/>
<use x="80.710795" y="52.584" xlink:href="#g"/>
<use x="86.165345" y="52.584" xlink:href="#b"/>
<use x="90.407894" y="52.584" xlink:href="#g"/>
<use x="95.862444" y="52.584" xlink:href="#p"/>
<use x="101.316994" y="52.584" xlink:href="#c"/>
<use x="105.590088" y="52.584" xlink:href="#g"/>
<use x="111.044638" y="52.584" xlink:href="#n"/>
<use x="120.135191" y="52.584" xlink:href="#k"/>
<use x="126.196287" y="52.584" xlink:href="#d"/>
<use x="131.956292" y="52.584" xlink:href="#e"/>
<use x="136.498841" y="52.584" xlink:href="#j"/>
<use x="141.951209" y="52.584" xlink:href="#a"/>
<use x="146.799213" y="52.584" xlink:href="#b"/>
<use x="151.041762" y="52.584" xlink:href="#aa"/>
<use x="155.284311" y="52.584" xlink:href="#z"/>
<use x="159.52686" y="52.584" xlink:href="#y"/>
<use x="191.325" y="41.527" xlink:href="#w"/>
<use x="196.77955" y="41.527" xlink:href="#v"/>
<use x="205.86683" y="41.527" xlink:href="#e"/>
<use x="210.714834" y="41.527" xlink:href="#c"/>
<use x="214.987929" y="41.527" xlink:href="#a"/>
<use x="219.835933" y="41.527" xlink:href="#g"/>
<use x="225.290483" y="41.527" xlink:href="#b"/>
<use x="229.533032" y="41.527" xlink:href="#a"/>
<use x="238.024675" y="41.527" xlink:href="#f"/>
<use x="242.327224" y="41.527" xlink:href="#d"/>
<use x="248.087229" y="41.527" xlink:href="#e"/>
<use x="252.629778" y="41.527" xlink:href="#j"/>
<use x="258.082147" y="41.527" xlink:href="#a"/>
<use x="262.930151" y="41.527" xlink:href="#b"/>
<use x="270.80543" y="41.527" xlink:href="#g"/>
<use x="276.25998" y="41.527" xlink:href="#b"/>
<use x="284.146168" y="41.527" xlink:href="#o"/>
<use x="290.50181" y="41.527" xlink:href="#d"/>
<use x="295.95636" y="41.527" xlink:href="#c"/>
<use x="300.229454" y="41.527" xlink:href="#b"/>
<use x="304.472003" y="41.527" xlink:href="#h"/>
<use x="310.533099" y="41.527" xlink:href="#d"/>
<use x="315.987649" y="41.527" xlink:href="#t"/>
<use x="191.325" y="63.641" xlink:href="#f"/>
<use x="195.627549" y="63.641" xlink:href="#a"/>
<use x="200.475553" y="63.641" xlink:href="#c"/>
<use x="204.748648" y="63.641" xlink:href="#u"/>
<use x="210.201016" y="63.641" xlink:href="#a"/>
<use x="215.04902" y="63.641" xlink:href="#c"/>
<use x="219.322114" y="63.641" xlink:href="#k"/>
<use x="225.38321" y="63.641" xlink:href="#d"/>
<use x="231.143215" y="63.641" xlink:href="#e"/>
<use x="235.685764" y="63.641" xlink:href="#j"/>
<use x="241.138132" y="63.641" xlink:href="#a"/>
<use x="245.997046" y="63.641" xlink:href="#b"/>
<use x="253.872325" y="63.641" xlink:href="#ag"/>
<use x="265.990153" y="63.641" xlink:href="#af"/>
<use x="274.323615" y="63.641" xlink:href="#g"/>
<use x="279.778165" y="63.641" xlink:href="#b"/>
<use x="284.020714" y="63.641" xlink:href="#g"/>
<use x="289.475264" y="63.641" xlink:href="#p"/>
<use x="294.929814" y="63.641" xlink:href="#c"/>
<use x="299.202908" y="63.641" xlink:href="#g"/>
<use x="304.657458" y="63.641" xlink:href="#n"/>
<use x="313.748011" y="63.641" xlink:href="#k"/>
<use x="319.809107" y="63.641" xlink:href="#d"/>
<use x="325.569112" y="63.641" xlink:href="#e"/>
<use x="330.111661" y="63.641" xlink:href="#j"/>
<use x="335.564029" y="63.641" xlink:href="#a"/>
<use x="340.412033" y="63.641" xlink:href="#b"/>
<use x="344.654582" y="63.641" xlink:href="#aa"/>
<use x="348.897131" y="63.641" xlink:href="#o"/>
<use x="355.263682" y="63.641" xlink:href="#d"/>
<use x="360.718232" y="63.641" xlink:href="#c"/>
<use x="364.991327" y="63.641" xlink:href="#b"/>
<use x="369.233876" y="63.641" xlink:href="#h"/>
<use x="375.294971" y="63.641" xlink:href="#d"/>
<use x="380.749521" y="63.641" xlink:href="#z"/>
<use x="384.99207" y="63.641" xlink:href="#y"/>
<use x="203.374" y="52.584" xlink:href="#s"/>
<use x="206.707821" y="52.584" xlink:href="#d"/>
<use x="212.162371" y="52.584" xlink:href="#c"/>
<use x="220.068196" y="52.584" xlink:href="#i"/>
<use x="223.098744" y="52.584" xlink:href="#h"/>
<use x="229.15984" y="52.584" xlink:href="#e"/>
<use x="234.007844" y="52.584" xlink:href="#d"/>
<use x="239.462394" y="52.584" xlink:href="#n"/>
<use x="248.552947" y="52.584" xlink:href="#i"/>
<use x="251.583495" y="52.584" xlink:href="#h"/>
<use x="257.644591" y="52.584" xlink:href="#p"/>
<use x="266.74278" y="52.584" xlink:href="#c"/>
<use x="271.015875" y="52.584" xlink:href="#a"/>
<use x="275.863879" y="52.584" xlink:href="#x"/>
<use x="281.621702" y="52.584" xlink:href="#q"/>
<use x="287.682798" y="52.584" xlink:href="#a"/>
<use x="292.530802" y="52.584" xlink:href="#f"/>
<use x="296.833351" y="52.584" xlink:href="#b"/>
<use x="301.0759" y="52.584" xlink:href="#y"/>
<use x="307.739178" y="52.584" xlink:href="#v"/>
<use x="313.193728" y="52.584" xlink:href="#w"/>
<use x="-0.046" y="229.071" xlink:href="#c"/>
<use x="4.227094" y="229.071" xlink:href="#a"/>
<use x="9.075099" y="229.071" xlink:href="#g"/>
<use x="14.529649" y="229.071" xlink:href="#l"/>
<use x="24.223475" y="229.071" xlink:href="#c"/>
<use x="28.496569" y="229.071" xlink:href="#a"/>
<use x="33.344573" y="229.071" xlink:href="#o"/>
<use x="39.405669" y="229.071" xlink:href="#m"/>
<use x="42.436217" y="229.071" xlink:href="#ab"/>
<use x="51.83768" y="229.071" xlink:href="#s"/>
<use x="55.160591" y="229.071" xlink:href="#c"/>
<use x="59.433686" y="229.071" xlink:href="#d"/>
<use x="64.888236" y="229.071" xlink:href="#n"/>
<use x="77.622428" y="229.071" xlink:href="#e"/>
<use x="82.470432" y="229.071" xlink:href="#m"/>
<use x="85.50098" y="229.071" xlink:href="#i"/>
<use x="88.531528" y="229.071" xlink:href="#a"/>
<use x="93.379532" y="229.071" xlink:href="#h"/>
<use x="99.135174" y="229.071" xlink:href="#b"/>
<use x="103.377723" y="229.071" xlink:href="#k"/>
<use x="109.438819" y="229.071" xlink:href="#d"/>
<use x="115.198823" y="229.071" xlink:href="#e"/>
<use x="119.741373" y="229.071" xlink:href="#j"/>
<use x="125.193741" y="229.071" xlink:href="#a"/>
<use x="130.041745" y="229.071" xlink:href="#b"/>
<use x="-0.046" y="290.31" xlink:href="#e"/>
<use x="4.802004" y="290.31" xlink:href="#m"/>
<use x="7.832552" y="290.31" xlink:href="#d"/>
<use x="13.287102" y="290.31" xlink:href="#f"/>
<use x="17.589651" y="290.31" xlink:href="#a"/>
<use x="26.070385" y="290.31" xlink:href="#e"/>
<use x="30.918389" y="290.31" xlink:href="#m"/>
<use x="33.948937" y="290.31" xlink:href="#i"/>
<use x="36.979485" y="290.31" xlink:href="#a"/>
<use x="41.827489" y="290.31" xlink:href="#h"/>
<use x="47.59404" y="290.31" xlink:href="#b"/>
<use x="51.836589" y="290.31" xlink:href="#k"/>
<use x="57.897685" y="290.31" xlink:href="#d"/>
<use x="63.64678" y="290.31" xlink:href="#e"/>
<use x="68.200239" y="290.31" xlink:href="#j"/>
<use x="73.652607" y="290.31" xlink:href="#a"/>
<use x="78.500611" y="290.31" xlink:href="#b"/>
<use x="191.325" y="127.006" xlink:href="#c"/>
<use x="195.598094" y="127.006" xlink:href="#a"/>
<use x="200.446099" y="127.006" xlink:href="#g"/>
<use x="205.900649" y="127.006" xlink:href="#l"/>
<use x="215.594475" y="127.006" xlink:href="#c"/>
<use x="219.867569" y="127.006" xlink:href="#a"/>
<use x="224.715573" y="127.006" xlink:href="#x"/>
<use x="230.473396" y="127.006" xlink:href="#q"/>
<use x="236.534492" y="127.006" xlink:href="#a"/>
<use x="241.382496" y="127.006" xlink:href="#f"/>
<use x="245.685045" y="127.006" xlink:href="#b"/>
<use x="253.571234" y="127.006" xlink:href="#s"/>
<use x="256.905055" y="127.006" xlink:href="#c"/>
<use x="261.178149" y="127.006" xlink:href="#d"/>
<use x="266.632699" y="127.006" xlink:href="#n"/>
<use x="279.355982" y="127.006" xlink:href="#f"/>
<use x="283.658531" y="127.006" xlink:href="#a"/>
<use x="288.506536" y="127.006" xlink:href="#c"/>
<use x="292.77963" y="127.006" xlink:href="#u"/>
<use x="298.231998" y="127.006" xlink:href="#a"/>
<use x="303.080002" y="127.006" xlink:href="#c"/>
<use x="307.353097" y="127.006" xlink:href="#k"/>
<use x="313.414193" y="127.006" xlink:href="#d"/>
<use x="319.174197" y="127.006" xlink:href="#e"/>
<use x="323.716747" y="127.006" xlink:href="#j"/>
<use x="329.169115" y="127.006" xlink:href="#a"/>
<use x="334.017119" y="127.006" xlink:href="#b"/>
<use x="-0.046" y="104.042" xlink:href="#e"/>
<use x="4.802004" y="104.042" xlink:href="#c"/>
<use x="9.075099" y="104.042" xlink:href="#a"/>
<use x="13.923103" y="104.042" xlink:href="#g"/>
<use x="19.377653" y="104.042" xlink:href="#b"/>
<use x="23.620202" y="104.042" xlink:href="#a"/>
<use x="32.100936" y="104.042" xlink:href="#g"/>
<use x="37.555486" y="104.042" xlink:href="#l"/>
<use x="43.616582" y="104.042" xlink:href="#l"/>
<use x="49.677678" y="104.042" xlink:href="#c"/>
<use x="53.950772" y="104.042" xlink:href="#a"/>
<use x="58.798776" y="104.042" xlink:href="#f"/>
<use x="63.101325" y="104.042" xlink:href="#f"/>
<use x="71.047514" y="104.042" xlink:href="#aa"/>
<use x="75.290063" y="104.042" xlink:href="#ae"/>
<use x="81.351159" y="104.042" xlink:href="#d"/>
<use x="86.805709" y="104.042" xlink:href="#f"/>
<use x="91.108258" y="104.042" xlink:href="#b"/>
<use x="95.350807" y="104.042" xlink:href="#i"/>
<use x="98.381355" y="104.042" xlink:href="#l"/>
<use x="104.442451" y="104.042" xlink:href="#t"/>
<use x="111.105729" y="104.042" xlink:href="#o"/>
<use x="117.47228" y="104.042" xlink:href="#d"/>
<use x="122.92683" y="104.042" xlink:href="#c"/>
<use x="127.199924" y="104.042" xlink:href="#b"/>
<use x="131.442473" y="104.042" xlink:href="#h"/>
<use x="137.503569" y="104.042" xlink:href="#d"/>
<use x="142.958119" y="104.042" xlink:href="#z"/>
<use x="147.200668" y="104.042" xlink:href="#t"/>
<use x="-0.046" y="115.099" xlink:href="#f"/>
<use x="4.256549" y="115.099" xlink:href="#a"/>
<use x="9.104553" y="115.099" xlink:href="#h"/>
<use x="15.165649" y="115.099" xlink:href="#l"/>
<use x="24.859475" y="115.099" xlink:href="#l"/>
<use x="30.920571" y="115.099" xlink:href="#g"/>
<use x="36.375121" y="115.099" xlink:href="#b"/>
<use x="40.61767" y="115.099" xlink:href="#g"/>
<use x="46.07222" y="115.099" xlink:href="#p"/>
<use x="51.52677" y="115.099" xlink:href="#c"/>
<use x="55.799865" y="115.099" xlink:href="#g"/>
<use x="61.254415" y="115.099" xlink:href="#n"/>
<use x="73.988607" y="115.099" xlink:href="#c"/>
<use x="78.261702" y="115.099" xlink:href="#a"/>
<use x="83.109706" y="115.099" xlink:href="#x"/>
<use x="88.867529" y="115.099" xlink:href="#q"/>
<use x="94.928625" y="115.099" xlink:href="#a"/>
<use x="99.776629" y="115.099" xlink:href="#f"/>
<use x="104.079178" y="115.099" xlink:href="#b"/>
<use x="111.954457" y="115.099" xlink:href="#q"/>
<use x="118.015553" y="115.099" xlink:href="#f"/>
<use x="122.318102" y="115.099" xlink:href="#i"/>
<use x="125.34865" y="115.099" xlink:href="#h"/>
<use x="131.409746" y="115.099" xlink:href="#p"/>
<use x="-0.046" y="126.156" xlink:href="#e"/>
<use x="4.802004" y="126.156" xlink:href="#m"/>
<use x="7.832552" y="126.156" xlink:href="#i"/>
<use x="10.8631" y="126.156" xlink:href="#a"/>
<use x="15.711104" y="126.156" xlink:href="#h"/>
<use x="21.466745" y="126.156" xlink:href="#b"/>
<use x="25.709294" y="126.156" xlink:href="#k"/>
<use x="31.77039" y="126.156" xlink:href="#d"/>
<use x="37.530395" y="126.156" xlink:href="#e"/>
<use x="42.072944" y="126.156" xlink:href="#j"/>
<use x="47.525312" y="126.156" xlink:href="#a"/>
<use x="52.373316" y="126.156" xlink:href="#b"/>
<use x="191.325" y="198.027" xlink:href="#f"/>
<use x="195.627549" y="198.027" xlink:href="#o"/>
<use x="201.9941" y="198.027" xlink:href="#a"/>
<use x="206.842104" y="198.027" xlink:href="#e"/>
<use x="211.690108" y="198.027" xlink:href="#i"/>
<use x="214.720656" y="198.027" xlink:href="#s"/>
<use x="218.054477" y="198.027" xlink:href="#ab"/>
<use x="223.8123" y="198.027" xlink:href="#i"/>
<use x="226.842848" y="198.027" xlink:href="#h"/>
<use x="232.903944" y="198.027" xlink:href="#p"/>
<use x="241.991224" y="198.027" xlink:href="#e"/>
<use x="246.839228" y="198.027" xlink:href="#m"/>
<use x="249.869776" y="198.027" xlink:href="#i"/>
<use x="252.900324" y="198.027" xlink:href="#a"/>
<use x="257.748328" y="198.027" xlink:href="#h"/>
<use x="263.503969" y="198.027" xlink:href="#b"/>
<use x="271.390158" y="198.027" xlink:href="#ae"/>
<use x="277.451254" y="198.027" xlink:href="#d"/>
<use x="282.905804" y="198.027" xlink:href="#f"/>
<use x="287.208353" y="198.027" xlink:href="#b"/>
<use x="295.083632" y="198.027" xlink:href="#g"/>
<use x="300.538182" y="198.027" xlink:href="#l"/>
<use x="306.599278" y="198.027" xlink:href="#l"/>
<use x="312.660374" y="198.027" xlink:href="#c"/>
<use x="316.933468" y="198.027" xlink:href="#a"/>
<use x="321.781472" y="198.027" xlink:href="#f"/>
<use x="326.084021" y="198.027" xlink:href="#f"/>
<use x="330.38657" y="198.027" xlink:href="#t"/>
</g>
</svg>
