<svg width="281pt" height="620pt" version="1.1" viewBox="0 0 281 620" xmlns="http://www.w3.org/2000/svg" xmlns:xlink="http://www.w3.org/1999/xlink">
<defs>
<g id="ab">
<path d="m7.7344-4.6406c0.10938-0.32812 0.32812-0.53125 0.79688-0.53125v-0.26562c-0.26562 0.015625-0.53125 0.015625-0.78125 0.015625s-0.48438 0-0.92188-0.015625v0.26562c0.4375 0 0.65625 0.20312 0.65625 0.42188 0 0.03125 0 0.046875-0.03125 0.15625l-1.2656 3.6719-1.3438-3.875c-0.03125-0.09375-0.03125-0.10938-0.03125-0.14062 0-0.23438 0.40625-0.23438 0.64062-0.23438v-0.26562c-0.6875 0.015625-0.70312 0.015625-1.1094 0.015625-0.29688 0-0.625 0-0.98438-0.015625v0.26562c0.42188 0 0.54688 0.015625 0.64062 0.14062 0.0625 0.09375 0.20312 0.5625 0.20312 0.57812l-0.03125 0.09375-1.1875 3.4375-1.3281-3.875c-0.046875-0.10938-0.046875-0.125-0.046875-0.14062 0-0.23438 0.42188-0.23438 0.65625-0.23438v-0.26562c-0.6875 0.015625-0.70312 0.015625-1.1094 0.015625-0.29688 0-0.64062 0-1-0.015625v0.26562c0.46875 0 0.60938 0 0.71875 0.29688l1.6719 4.8594c0.046875 0.10938 0.078125 0.1875 0.20312 0.1875 0.10938 0 0.15625-0.078125 0.1875-0.1875l1.4062-4.0625 1.4062 4.0625c0.03125 0.09375 0.0625 0.1875 0.1875 0.1875s0.15625-0.078125 0.20312-0.1875z"/>
</g>
<g id="i">
<path d="m3.3438-2.375c0-0.78125-0.75-1.1719-1.4844-1.1719-0.65625 0-1.25 0.25-1.25 0.78125 0 0.23438 0.17188 0.375 0.375 0.375 0.23438 0 0.375-0.15625 0.375-0.375 0-0.1875-0.10938-0.32812-0.29688-0.35938 0.29688-0.20312 0.73438-0.20312 0.78125-0.20312 0.45312 0 0.89062 0.3125 0.89062 0.96875v0.23438c-0.45312 0.03125-0.98438 0.046875-1.5469 0.28125-0.70312 0.3125-0.84375 0.76562-0.84375 1.0312 0 0.6875 0.8125 0.89062 1.3594 0.89062 0.57812 0 0.9375-0.32812 1.125-0.64062 0.03125 0.29688 0.23438 0.60938 0.59375 0.60938 0.078125 0 0.75-0.03125 0.75-0.76562v-0.4375h-0.25v0.4375c0 0.32812-0.10938 0.45312-0.28125 0.45312-0.29688 0-0.29688-0.35938-0.29688-0.45312zm-0.60938 1.25c0 0.78125-0.64062 0.98438-0.96875 0.98438-0.40625 0-0.76562-0.28125-0.76562-0.67188 0-0.51562 0.5-1.0625 1.7344-1.0938z"/>
</g>
<g id="e">
<path d="m1.4688-1.8125c0-0.60938 0.25-1.4688 1.0156-1.4844-0.046875 0.03125-0.14062 0.09375-0.14062 0.28125 0 0.25 0.20312 0.35938 0.35938 0.35938 0.1875 0 0.35938-0.125 0.35938-0.35938 0-0.28125-0.25-0.5-0.60938-0.5-0.51562 0-0.875 0.39062-1.0312 0.84375h-0.015625v-0.84375l-1.125 0.09375v0.26562c0.54688 0 0.60938 0.046875 0.60938 0.4375v2.0938c0 0.35938-0.10938 0.35938-0.60938 0.35938v0.26562c0.3125-0.03125 0.75-0.03125 0.9375-0.03125 0.46875 0 0.48438 0 1 0.03125v-0.26562h-0.15625c-0.57812 0-0.59375-0.078125-0.59375-0.375z"/>
</g>
<g id="d">
<path d="m1.4844-3.1719h1.1875v-0.26562h-1.1875v-1.4688h-0.25c0 0.73438-0.32812 1.4844-1.0781 1.5156v0.21875h0.71875v2.1719c0 0.9375 0.71875 1.0781 1.0781 1.0781 0.54688 0 0.85938-0.46875 0.85938-1.0781v-0.4375h-0.25v0.42188c0 0.54688-0.25 0.84375-0.54688 0.84375-0.53125 0-0.53125-0.6875-0.53125-0.8125z"/>
</g>
<g id="a">
<path d="m3.2969-1.8125c0.17188 0 0.21875 0 0.21875-0.1875 0-0.70312-0.39062-1.5469-1.5156-1.5469-0.98438 0-1.7656 0.8125-1.7656 1.7969 0 1.0312 0.85938 1.8281 1.875 1.8281 1 0 1.4062-0.84375 1.4062-1.0312 0-0.03125-0.03125-0.10938-0.125-0.10938s-0.10938 0.046875-0.125 0.09375c-0.28125 0.78125-0.96875 0.79688-1.1094 0.79688-0.35938 0-0.73438-0.15625-0.96875-0.53125-0.23438-0.35938-0.23438-0.875-0.23438-1.1094zm-2.3438-0.21875c0.078125-1.1094 0.75-1.2969 1.0469-1.2969 0.9375 0 0.96875 1.125 0.96875 1.2969z"/>
</g>
<g id="l">
<path d="m3.375-5.5156c-0.046875-0.10938-0.0625-0.17188-0.20312-0.17188s-0.17188 0.0625-0.20312 0.17188l-1.7812 4.6875c-0.078125 0.21875-0.25 0.5625-0.90625 0.5625v0.26562c0.26562-0.03125 0.6875-0.03125 0.82812-0.03125 0.25 0 0.5 0 0.875 0.03125v-0.26562c-0.34375 0-0.54688-0.17188-0.54688-0.39062 0-0.0625 0-0.078125 0.03125-0.17188l0.375-1h2.1719l0.45312 1.1875c0.03125 0.09375 0.03125 0.125 0.03125 0.14062 0 0.23438-0.40625 0.23438-0.64062 0.23438v0.26562c0.6875-0.03125 0.70312-0.03125 1.1406-0.03125s0.59375 0 1.0469 0.03125v-0.26562h-0.14062c-0.5 0-0.57812-0.0625-0.67188-0.32812zm-0.4375 0.82812 0.96875 2.5938h-1.9688z"/>
</g>
<g id="b">
<path d="m3.875-2.4219c0-0.65625-0.3125-1.0938-1.1406-1.0938-0.79688 0-1.1562 0.57812-1.25 0.76562v-0.76562l-1.1562 0.09375v0.26562c0.54688 0 0.60938 0.046875 0.60938 0.4375v2.0938c0 0.35938-0.09375 0.35938-0.60938 0.35938v0.26562c0.34375-0.03125 0.6875-0.03125 0.90625-0.03125 0.23438 0 0.5625 0 0.90625 0.03125v-0.26562c-0.5 0-0.60938 0-0.60938-0.35938v-1.4375c0-0.84375 0.64062-1.2344 1.125-1.2344s0.60938 0.34375 0.60938 0.84375v1.8281c0 0.35938-0.09375 0.35938-0.60938 0.35938v0.26562c0.34375-0.03125 0.70312-0.03125 0.90625-0.03125 0.23438 0 0.57812 0 0.92188 0.03125v-0.26562c-0.51562 0-0.60938 0-0.60938-0.35938z"/>
</g>
<g id="af">
<path d="m5.2656-2.625c0.0625-0.1875 0.20312-0.53125 0.67188-0.54688v-0.26562c-0.26562 0.03125-0.28125 0.03125-0.625 0.03125-0.25 0-0.46875 0-0.71875-0.03125v0.26562c0.34375 0.015625 0.4375 0.21875 0.4375 0.35938 0 0.10938-0.03125 0.15625-0.046875 0.20312l-0.75 1.9844-0.82812-2.1719c-0.03125-0.10938-0.03125-0.125-0.03125-0.15625 0-0.20312 0.25-0.21875 0.4375-0.21875v-0.26562c-0.3125 0.03125-0.73438 0.03125-0.8125 0.03125-0.17188 0-0.5 0-0.73438-0.03125v0.26562c0.48438 0 0.5 0.046875 0.65625 0.46875l-0.73438 1.9688-0.79688-2.0781c0-0.03125-0.03125-0.10938-0.03125-0.14062 0-0.21875 0.29688-0.21875 0.4375-0.21875v-0.26562c-0.34375 0.03125-0.70312 0.03125-0.84375 0.03125s-0.5625 0-0.78125-0.03125v0.26562c0.39062 0 0.46875 0.03125 0.5625 0.25l1.0625 2.8125c0.046875 0.125 0.078125 0.1875 0.20312 0.1875 0.14062 0 0.17188-0.09375 0.20312-0.1875l0.84375-2.2344 0.84375 2.2344c0.046875 0.09375 0.078125 0.1875 0.21875 0.1875 0.125 0 0.15625-0.078125 0.1875-0.17188z"/>
</g>
<g id="g">
<path d="m2.625-5.4375v0.26562c0.53125 0 0.60938 0.046875 0.60938 0.4375v1.6875c-0.28125-0.3125-0.65625-0.46875-1.0781-0.46875-1 0-1.875 0.78125-1.875 1.7969 0 0.98438 0.79688 1.7969 1.7969 1.7969 0.46875 0 0.85938-0.21875 1.125-0.5v0.5l1.2188-0.078125v-0.26562c-0.54688 0-0.60938-0.046875-0.60938-0.4375v-4.8281zm0.57812 4.4531c0 0.14062 0 0.17188-0.125 0.32812-0.21875 0.32812-0.57812 0.51562-0.95312 0.51562s-0.6875-0.1875-0.875-0.48438c-0.21875-0.3125-0.26562-0.70312-0.26562-1.0781 0-0.46875 0.078125-0.79688 0.26562-1.0625 0.1875-0.29688 0.54688-0.53125 0.95312-0.53125 0.375 0 0.76562 0.20312 1 0.60938z"/>
</g>
<g id="k">
<path d="m2.6562-3.4219v0.26562c0.54688 0 0.60938 0.046875 0.60938 0.4375v1.3906c0 0.6875-0.40625 1.1875-1.0156 1.1875-0.6875 0-0.71875-0.34375-0.71875-0.75v-2.625l-1.2031 0.09375v0.26562c0.60938 0 0.60938 0.015625 0.60938 0.71875v1.2031c0 0.57812 0 1.3125 1.2656 1.3125 0.75 0 1.0469-0.57812 1.0781-0.64062h0.015625v0.64062l1.1875-0.078125v-0.26562c-0.54688 0-0.60938-0.046875-0.60938-0.4375v-2.8125z"/>
</g>
<g id="f">
<path d="m1.375-0.54688c-0.25-0.03125-0.4375-0.23438-0.4375-0.53125 0-0.1875 0.046875-0.26562 0.09375-0.32812 0.34375 0.1875 0.65625 0.23438 0.84375 0.23438 0.78125 0 1.375-0.54688 1.375-1.1719 0-0.29688-0.14062-0.5625-0.32812-0.76562 0.10938-0.09375 0.375-0.26562 0.76562-0.26562-0.03125 0.015625-0.078125 0.0625-0.078125 0.1875 0 0.14062 0.10938 0.25 0.25 0.25 0.10938 0 0.25-0.078125 0.25-0.26562 0-0.125-0.10938-0.40625-0.45312-0.40625-0.14062 0-0.53125 0.046875-0.89062 0.375-0.20312-0.14062-0.51562-0.28125-0.89062-0.28125-0.78125 0-1.3594 0.54688-1.3594 1.1719 0 0.375 0.20312 0.65625 0.375 0.8125-0.1875 0.20312-0.25 0.45312-0.25 0.64062 0 0.32812 0.17188 0.57812 0.34375 0.71875-0.42188 0.10938-0.75 0.42188-0.75 0.78125 0 0.57812 0.82812 1.0312 1.875 1.0312 1 0 1.875-0.40625 1.875-1.0469 0-0.42188-0.25-0.76562-0.51562-0.89062-0.46875-0.25-0.85938-0.25-1.6406-0.25zm0.5-0.85938c-0.73438 0-0.73438-0.76562-0.73438-0.9375 0-0.29688 0.03125-0.5 0.15625-0.65625 0.14062-0.1875 0.35938-0.28125 0.57812-0.28125 0.73438 0 0.73438 0.76562 0.73438 0.9375 0 0.29688-0.03125 0.5-0.15625 0.65625-0.17188 0.23438-0.42188 0.28125-0.57812 0.28125zm0.375 1.375c0.21875 0 1.2656 0 1.2656 0.64062 0 0.42188-0.60938 0.79688-1.4062 0.79688s-1.4062-0.375-1.4062-0.79688c0-0.17188 0.14062-0.64062 0.78125-0.64062z"/>
</g>
<g id="c">
<path d="m2.8438-3.3438c0-0.125 0-0.20312-0.10938-0.20312-0.046875 0-0.0625 0-0.1875 0.125-0.015625 0-0.09375 0.078125-0.10938 0.078125s-0.03125 0-0.078125-0.03125c-0.125-0.09375-0.35938-0.17188-0.71875-0.17188-1.1094 0-1.3594 0.59375-1.3594 0.98438s0.29688 0.625 0.3125 0.65625c0.32812 0.23438 0.5 0.26562 1.0469 0.35938 0.375 0.078125 0.98438 0.1875 0.98438 0.71875 0 0.3125-0.20312 0.6875-0.9375 0.6875-0.8125 0-1.0469-0.625-1.1406-1.0469-0.03125-0.10938-0.046875-0.14062-0.14062-0.14062-0.125 0-0.125 0.0625-0.125 0.21875v0.98438c0 0.125 0 0.20312 0.09375 0.20312 0.0625 0 0.0625 0 0.20312-0.15625 0.046875-0.046875 0.125-0.14062 0.17188-0.1875 0.35938 0.32812 0.73438 0.34375 0.9375 0.34375 1.0156 0 1.3594-0.57812 1.3594-1.1094 0-0.375-0.21875-0.9375-1.1719-1.1094-0.0625-0.015625-0.51562-0.09375-0.54688-0.09375-0.25-0.0625-0.625-0.23438-0.625-0.54688 0-0.23438 0.1875-0.57812 0.9375-0.57812 0.89062 0 0.9375 0.65625 0.95312 0.875 0 0.0625 0.0625 0.09375 0.10938 0.09375 0.14062 0 0.14062-0.0625 0.14062-0.20312z"/>
</g>
<g id="aa">
<path d="m2.3438-1.4531v-0.51562h-2.25v0.51562z"/>
</g>
<g id="o">
<path d="m2.0938 1.2812c-0.51562 0-0.60938 0-0.60938-0.35938v-1.3125c0.375 0.40625 0.78125 0.46875 1.0469 0.46875 1 0 1.8906-0.78125 1.8906-1.7969 0-1-0.8125-1.7969-1.7812-1.7969-0.3125 0-0.76562 0.078125-1.1719 0.5v-0.5l-1.1875 0.09375v0.26562c0.5625 0 0.60938 0.046875 0.60938 0.375v3.7031c0 0.35938-0.10938 0.35938-0.60938 0.35938v0.26562c0.34375-0.03125 0.6875-0.03125 0.90625-0.03125 0.23438 0 0.5625 0 0.90625 0.03125zm-0.60938-3.9375c0.1875-0.3125 0.59375-0.60938 1.0938-0.60938 0.60938 0 1.125 0.67188 1.125 1.5469 0 0.90625-0.57812 1.5781-1.2188 1.5781-0.28125 0-0.64062-0.125-0.90625-0.51562-0.09375-0.14062-0.09375-0.15625-0.09375-0.29688z"/>
</g>
<g id="n">
<path d="m3.9844-1.7031c0-0.98438-0.82812-1.8438-1.875-1.8438s-1.875 0.85938-1.875 1.8438c0 1 0.85938 1.7812 1.875 1.7812 1.0312 0 1.875-0.78125 1.875-1.7812zm-1.875 1.5312c-0.42188 0-0.76562-0.20312-0.9375-0.48438-0.20312-0.32812-0.21875-0.71875-0.21875-1.1094 0-0.3125 0-0.78125 0.23438-1.125 0.21875-0.28125 0.54688-0.4375 0.92188-0.4375 0.42188 0 0.76562 0.20312 0.9375 0.46875 0.21875 0.34375 0.23438 0.76562 0.23438 1.0938 0 0.35938-0.015625 0.79688-0.25 1.1406-0.20312 0.3125-0.5625 0.45312-0.92188 0.45312z"/>
</g>
<g id="u">
<path d="m3.3125-3.1562c0.046875-0.078125 0.0625-0.09375 0.0625-0.15625 0-0.125-0.09375-0.125-0.21875-0.125h-2.7031l-0.10938 1.3281h0.25c0.046875-0.82812 0.23438-1.1094 1.125-1.1094h0.90625l-2.3125 2.9219c-0.0625 0.078125-0.078125 0.09375-0.078125 0.15625 0 0.14062 0.09375 0.14062 0.23438 0.14062h2.7969l0.14062-1.5312h-0.25c-0.078125 0.92188-0.23438 1.2812-1.2188 1.2812h-0.9375z"/>
</g>
<g id="s">
<path d="m1.8594-3.3281c-0.51562-0.10938-0.89062-0.51562-0.89062-1 0-0.54688 0.46875-1.0469 1.1562-1.0469 1.375 0 1.5625 1.2969 1.6094 1.5938 0.015625 0.09375 0.015625 0.14062 0.125 0.14062 0.125 0 0.125-0.046875 0.125-0.20312v-1.5625c0-0.125 0-0.20312-0.10938-0.20312-0.0625 0-0.078125 0.015625-0.125 0.10938l-0.28125 0.45312c-0.40625-0.4375-0.90625-0.5625-1.3438-0.5625-0.95312 0-1.6562 0.71875-1.6562 1.5312 0 0.60938 0.34375 0.9375 0.5 1.0938 0.28125 0.28125 0.54688 0.34375 1.4062 0.54688 0.6875 0.15625 0.79688 0.1875 1.0625 0.46875 0.078125 0.078125 0.28125 0.34375 0.28125 0.73438 0 0.5625-0.42188 1.1406-1.1719 1.1406-0.875 0-1.7812-0.42188-1.8281-1.5312-0.015625-0.125-0.015625-0.1875-0.125-0.1875-0.125 0-0.125 0.0625-0.125 0.21875v1.5469c0 0.14062 0 0.21875 0.10938 0.21875 0.0625 0 0.0625-0.015625 0.125-0.09375 0.03125-0.046875 0.0625-0.125 0.28125-0.45312 0.5 0.4375 1.0938 0.54688 1.5781 0.54688 0.98438 0 1.6562-0.79688 1.6562-1.6406 0-0.70312-0.45312-1.4062-1.2656-1.5938z"/>
</g>
<g id="t">
<path d="m2.9375-3.1562c-0.23438 0.0625-0.26562 0.25-0.26562 0.34375 0 0.21875 0.15625 0.375 0.375 0.375s0.375-0.14062 0.375-0.39062c0-0.48438-0.53125-0.71875-1.2812-0.71875-1.1094 0-1.8594 0.875-1.8594 1.8281 0 1.0156 0.82812 1.7969 1.8281 1.7969 1.125 0 1.4062-0.9375 1.4062-1.0312s-0.10938-0.09375-0.125-0.09375c-0.0625 0-0.09375 0-0.125 0.078125-0.046875 0.17188-0.28125 0.79688-1.0781 0.79688-0.48438 0-1.2031-0.375-1.2031-1.5625 0-1.1406 0.59375-1.5781 1.1719-1.5781 0.078125 0 0.5 0 0.78125 0.15625z"/>
</g>
<g id="aj">
<path d="m2.4062-2.1719 0.67188-0.53125c0.53125-0.42188 0.85938-0.45312 1.0625-0.46875v-0.26562c-0.20312 0.03125-0.3125 0.03125-0.64062 0.03125-0.39062 0-0.5-0.015625-0.84375-0.03125v0.26562c0.15625 0.015625 0.1875 0.10938 0.1875 0.15625 0 0.17188-0.17188 0.3125-0.23438 0.35938l-1.1406 0.92188v-3.7969l-1.1875 0.09375v0.26562c0.54688 0 0.60938 0.046875 0.60938 0.4375v4.1094c0 0.35938-0.10938 0.35938-0.60938 0.35938v0.26562c0.3125-0.03125 0.73438-0.03125 0.875-0.03125 0.15625 0 0.57812 0 0.89062 0.03125v-0.26562c-0.51562 0-0.60938 0-0.60938-0.35938v-0.76562l0.53125-0.4375c0.03125 0 0.23438 0.28125 0.35938 0.4375s0.25 0.32812 0.375 0.48438 0.28125 0.35938 0.28125 0.48438c0 0.14062-0.14062 0.15625-0.25 0.15625v0.26562c0.34375-0.03125 0.70312-0.03125 0.84375-0.03125 0.29688 0 0.46875 0 0.73438 0.03125v-0.26562c-0.32812 0-0.46875-0.03125-0.76562-0.40625z"/>
</g>
<g id="z">
<path d="m5.1719-4.6406c0.125-0.1875 0.35938-0.53125 1.0469-0.53125v-0.26562c-0.25 0.015625-0.65625 0.015625-0.79688 0.015625-0.25 0-0.48438 0-0.875-0.015625v0.26562c0.28125 0 0.40625 0.14062 0.40625 0.28125 0 0.10938-0.0625 0.1875-0.10938 0.26562l-1.4062 2.1094-1.5625-2.3281c-0.03125-0.046875-0.0625-0.09375-0.0625-0.15625 0-0.17188 0.34375-0.17188 0.51562-0.17188v-0.26562c-0.6875 0.015625-0.70312 0.015625-1.1562 0.015625-0.4375 0-0.625 0-1.0469-0.015625v0.26562h0.125c0.42188 0 0.59375 0.046875 0.75 0.28125l1.8125 2.7188v1.5312c0 0.29688-0.015625 0.375-0.625 0.375h-0.17188v0.26562c0.67188-0.03125 0.6875-0.03125 1.1406-0.03125 0.51562 0 0.53125 0 1.1562 0.03125v-0.26562h-0.17188c-0.625 0-0.625-0.09375-0.625-0.35938v-1.5625z"/>
</g>
<g id="m">
<path d="m1.9375-5.3281c-0.09375-0.10938-0.09375-0.10938-0.25-0.10938h-1.3438v0.26562h0.23438c0.14062 0 0.20312 0 0.35938 0.015625 0.20312 0.015625 0.21875 0.03125 0.21875 0.17188v4.125c0 0.21875 0 0.59375-0.8125 0.59375v0.26562c0.35938-0.03125 0.73438-0.03125 0.95312-0.03125 0.20312 0 0.57812 0 0.9375 0.03125v-0.26562c-0.8125 0-0.8125-0.375-0.8125-0.59375v-4.0625l3.4531 4.7969c0.078125 0.09375 0.09375 0.125 0.17188 0.125 0.125 0 0.125-0.078125 0.125-0.21875v-4.375c0-0.20312 0-0.57812 0.8125-0.57812v-0.26562c-0.35938 0.015625-0.73438 0.015625-0.9375 0.015625s-0.57812 0-0.9375-0.015625v0.26562c0.79688 0 0.79688 0.375 0.79688 0.57812v3.4062z"/>
</g>
<g id="j">
<path d="m5.6406-5.4062c0-0.125 0-0.20312-0.10938-0.20312-0.0625 0-0.0625 0-0.14062 0.10938l-0.40625 0.59375c-0.28125-0.3125-0.8125-0.70312-1.5781-0.70312-1.5938 0-2.9375 1.2812-2.9375 2.8906s1.3281 2.8906 2.9531 2.8906c1.3281 0 2.2188-1.0625 2.2188-2.0312 0-0.078125 0-0.15625-0.14062-0.15625-0.078125 0-0.10938 0.046875-0.10938 0.125-0.0625 1.2188-1.0625 1.7969-1.9062 1.7969-0.67188 0-2.1875-0.42188-2.1875-2.625 0-2.1562 1.4375-2.625 2.1875-2.625s1.6719 0.53125 1.8906 1.9062c0 0.0625 0.015625 0.10938 0.125 0.10938 0.14062 0 0.14062-0.046875 0.14062-0.20312z"/>
</g>
<g id="r">
<path d="m3.4062-3.3125 1.5625-1.375c0.51562-0.46875 0.9375-0.48438 1.125-0.48438v-0.26562c-0.3125 0.015625-0.32812 0.015625-0.73438 0.015625s-0.4375 0-0.95312-0.015625v0.26562c0.15625 0 0.29688 0.078125 0.29688 0.23438 0 0.0625-0.03125 0.17188-0.17188 0.29688l-2.6406 2.3438v-2.5c0-0.29688 0.015625-0.375 0.625-0.375h0.17188v-0.26562c-0.67188 0.015625-0.6875 0.015625-1.1719 0.015625-0.46875 0-0.48438 0-1.1719-0.015625v0.26562h0.1875c0.60938 0 0.625 0.078125 0.625 0.375v4.1562c0 0.29688-0.015625 0.375-0.625 0.375h-0.1875v0.26562c0.6875-0.03125 0.70312-0.03125 1.1719-0.03125 0.48438 0 0.5 0 1.1719 0.03125v-0.26562h-0.17188c-0.60938 0-0.625-0.078125-0.625-0.375v-1.3281l1.0312-0.92188 1.5469 2.1406c0.078125 0.09375 0.125 0.17188 0.125 0.26562 0 0.21875-0.28125 0.21875-0.42188 0.21875v0.26562c0.6875-0.03125 0.70312-0.03125 1.0938-0.03125 0.21875 0 0.65625 0 0.9375 0.03125v-0.26562c-0.28125 0-0.54688 0-0.78125-0.3125z"/>
</g>
<g id="q">
<path d="m6.2188-2.4219c0-0.64062-0.28125-1.0938-1.1406-1.0938-0.73438 0-1.1094 0.5-1.2344 0.73438-0.14062-0.57812-0.59375-0.73438-1.1094-0.73438-0.78125 0-1.1406 0.54688-1.25 0.76562v-0.76562l-1.1562 0.09375v0.26562c0.54688 0 0.60938 0.046875 0.60938 0.4375v2.0938c0 0.35938-0.09375 0.35938-0.60938 0.35938v0.26562c0.34375-0.03125 0.6875-0.03125 0.90625-0.03125 0.23438 0 0.5625 0 0.90625 0.03125v-0.26562c-0.5 0-0.60938 0-0.60938-0.35938v-1.4375c0-0.84375 0.64062-1.2344 1.1406-1.2344 0.51562 0 0.60938 0.40625 0.60938 0.84375v1.8281c0 0.35938-0.10938 0.35938-0.60938 0.35938v0.26562c0.34375-0.03125 0.6875-0.03125 0.90625-0.03125 0.23438 0 0.5625 0 0.90625 0.03125v-0.26562c-0.51562 0-0.60938 0-0.60938-0.35938v-1.4375c0-0.84375 0.64062-1.2344 1.1406-1.2344 0.51562 0 0.60938 0.40625 0.60938 0.84375v1.8281c0 0.35938-0.10938 0.35938-0.60938 0.35938v0.26562c0.34375-0.03125 0.6875-0.03125 0.90625-0.03125 0.23438 0 0.5625 0 0.90625 0.03125v-0.26562c-0.51562 0-0.60938 0-0.60938-0.35938z"/>
</g>
<g id="p">
<path d="m1.5156-3.1719h0.96875v-0.26562h-0.98438v-0.89062c0-0.70312 0.39062-1.0625 0.73438-1.0625 0.125 0 0.20312 0.03125 0.23438 0.046875-0.14062 0.0625-0.1875 0.20312-0.1875 0.3125 0 0.20312 0.15625 0.35938 0.35938 0.35938 0.21875 0 0.35938-0.15625 0.35938-0.35938 0-0.34375-0.32812-0.57812-0.75-0.57812-0.59375 0-1.3125 0.4375-1.3125 1.2812v0.89062h-0.65625v0.26562h0.65625v2.5469c0 0.35938-0.09375 0.35938-0.60938 0.35938v0.26562c0.3125-0.03125 0.75-0.03125 0.95312-0.03125 0.46875 0 0.48438 0 1 0.03125v-0.26562h-0.15625c-0.59375 0-0.60938-0.078125-0.60938-0.375z"/>
</g>
<g id="h">
<path d="m1.5469-4.9062c0-0.23438-0.17188-0.45312-0.4375-0.45312-0.23438 0-0.4375 0.1875-0.4375 0.4375 0 0.28125 0.23438 0.45312 0.4375 0.45312 0.28125 0 0.4375-0.23438 0.4375-0.4375zm-1.1875 1.4844v0.26562c0.51562 0 0.57812 0.046875 0.57812 0.4375v2.0938c0 0.35938-0.09375 0.35938-0.60938 0.35938v0.26562c0.3125-0.03125 0.76562-0.03125 0.89062-0.03125 0.09375 0 0.57812 0 0.85938 0.03125v-0.26562c-0.53125 0-0.5625-0.03125-0.5625-0.34375v-2.9062z"/>
</g>
<g id="y">
<path d="m3.875-2.4219c0-0.65625-0.3125-1.0938-1.1406-1.0938-0.70312 0-1.0625 0.45312-1.2188 0.70312v-2.7188l-1.1875 0.09375v0.26562c0.54688 0 0.60938 0.046875 0.60938 0.4375v4.1094c0 0.35938-0.09375 0.35938-0.60938 0.35938v0.26562c0.34375-0.03125 0.6875-0.03125 0.90625-0.03125 0.23438 0 0.5625 0 0.90625 0.03125v-0.26562c-0.5 0-0.60938 0-0.60938-0.35938v-1.4375c0-0.84375 0.64062-1.2344 1.125-1.2344s0.60938 0.34375 0.60938 0.84375v1.8281c0 0.35938-0.09375 0.35938-0.60938 0.35938v0.26562c0.34375-0.03125 0.70312-0.03125 0.90625-0.03125 0.23438 0 0.57812 0 0.92188 0.03125v-0.26562c-0.51562 0-0.60938 0-0.60938-0.35938z"/>
</g>
<g id="ar">
<path d="m4.9375-2.0781h-0.25c-0.09375 0.82812-0.21875 1.8125-1.6719 1.8125h-0.75c-0.35938 0-0.375-0.046875-0.375-0.32812v-4.2031c0-0.26562 0-0.375 0.75-0.375h0.25v-0.26562c-0.35938 0.015625-0.9375 0.015625-1.3125 0.015625-0.53125 0-0.54688 0-1.2344-0.015625v0.26562h0.1875c0.60938 0 0.625 0.078125 0.625 0.375v4.1562c0 0.29688-0.015625 0.375-0.625 0.375h-0.1875v0.26562h4.3594z"/>
</g>
<g id="ae">
<path d="m1.5156-5.5312-1.1875 0.09375v0.26562c0.54688 0 0.60938 0.046875 0.60938 0.4375v4.1094c0 0.35938-0.09375 0.35938-0.60938 0.35938v0.26562c0.3125-0.03125 0.76562-0.03125 0.90625-0.03125 0.15625 0 0.57812 0 0.89062 0.03125v-0.26562c-0.5 0-0.60938 0-0.60938-0.35938z"/>
</g>
<g id="aq">
<path d="m3.7812-2.7031c0.625-0.17188 1.375-0.625 1.375-1.3125 0-0.78125-1-1.4219-2.1875-1.4219h-2.6094v0.26562h0.1875c0.60938 0 0.625 0.078125 0.625 0.375v4.1562c0 0.29688-0.015625 0.375-0.625 0.375h-0.1875v0.26562c0.6875-0.03125 0.70312-0.03125 1.1562-0.03125 0.46875 0 0.5 0 1.1719 0.03125v-0.26562h-0.17188c-0.625 0-0.64062-0.078125-0.64062-0.375v-1.9688h1.0156c0.57812 0 0.84375 0.29688 0.90625 0.35938 0.23438 0.25 0.23438 0.40625 0.23438 0.9375 0 0.5 0 0.84375 0.32812 1.1406 0.34375 0.29688 0.78125 0.34375 1.0156 0.34375 0.67188 0 0.82812-0.65625 0.82812-0.89062 0-0.046875 0-0.15625-0.125-0.15625s-0.125 0.09375-0.125 0.14062c-0.046875 0.5-0.3125 0.67188-0.54688 0.67188-0.42188 0-0.46875-0.35938-0.60938-1.375-0.0625-0.45312-0.14062-1-1.0156-1.2656zm-0.92188-0.14062h-0.98438v-2.0156c0-0.20312 0.015625-0.28125 0.20312-0.3125h0.48438c0.71875 0 1.7656 0 1.7656 1.1562 0 0.89062-0.625 1.1719-1.4688 1.1719z"/>
</g>
<g id="ap">
<path d="m3.8125-3.5156h-0.21875l-0.29688 0.6875c-0.26562-0.42188-0.64062-0.6875-1.1406-0.6875-1 0-1.875 0.78125-1.875 1.7969 0 1 0.8125 1.7969 1.7969 1.7969 0.57812 0 0.9375-0.3125 1.1406-0.5625v1.4062c0 0.35938-0.10938 0.35938-0.60938 0.35938v0.26562c0.34375-0.03125 0.6875-0.03125 0.90625-0.03125 0.23438 0 0.5625 0 0.90625 0.03125v-0.26562c-0.51562 0-0.60938 0-0.60938-0.35938zm-0.57812 2.3906c0 0.125 0 0.17188-0.125 0.375-0.28125 0.48438-0.70312 0.60938-0.98438 0.60938-0.64062 0-1.1406-0.71875-1.1406-1.5781 0-0.90625 0.59375-1.5469 1.2188-1.5469 0.65625 0 1.0312 0.64062 1.0312 1.0781z"/>
</g>
<g id="ai">
<path d="m3.5312-2.6094c0.1875-0.45312 0.46875-0.54688 0.75-0.5625v-0.26562c-0.26562 0.03125-0.28125 0.03125-0.60938 0.03125-0.078125 0-0.45312 0-0.70312-0.03125v0.26562c0.28125 0.015625 0.35938 0.1875 0.35938 0.32812 0 0.078125-0.015625 0.125-0.046875 0.1875l-0.85938 2.0156-0.95312-2.1719c-0.046875-0.09375-0.046875-0.14062-0.046875-0.15625 0-0.20312 0.29688-0.20312 0.42188-0.20312v-0.26562c-0.34375 0.03125-0.71875 0.03125-0.85938 0.03125-0.17188 0-0.54688 0-0.8125-0.03125v0.26562c0.48438 0 0.53125 0.046875 0.65625 0.3125l1.1875 2.7656c0.0625 0.125 0.10938 0.17188 0.21875 0.17188s0.17188-0.0625 0.20312-0.15625z"/>
</g>
<g id="ag">
<path d="m5.6406-5.3906h-5.1719l-0.17188 1.8125h0.25c0.10938-1.3438 0.29688-1.5469 1.5156-1.5469 0.15625 0 0.40625 0 0.46875 0.015625 0.14062 0.03125 0.15625 0.10938 0.15625 0.3125v4.1406c0 0.28125 0 0.39062-0.82812 0.39062h-0.3125v0.26562c0.29688-0.03125 1.1562-0.03125 1.5-0.03125s1.2031 0 1.5 0.03125v-0.26562h-0.29688c-0.82812 0-0.82812-0.10938-0.82812-0.39062v-4.1406c0-0.1875 0-0.28125 0.15625-0.3125 0.078125-0.015625 0.3125-0.015625 0.46875-0.015625 1.2188 0 1.3906 0.20312 1.5 1.5469h0.25z"/>
</g>
<g id="ad">
<path d="m1.9062-2.4844h1.4531c0.96875 0 1.9219-0.625 1.9219-1.4688 0-0.78125-0.84375-1.4844-1.9844-1.4844h-2.9375v0.26562h0.1875c0.60938 0 0.625 0.078125 0.625 0.375v4.1562c0 0.29688-0.015625 0.375-0.625 0.375h-0.1875v0.26562c0.6875-0.03125 0.70312-0.03125 1.1719-0.03125 0.48438 0 0.5 0 1.1719 0.03125v-0.26562h-0.17188c-0.60938 0-0.625-0.078125-0.625-0.375zm-0.03125-0.23438v-2.1406c0-0.26562 0.015625-0.3125 0.39062-0.3125h0.82812c1.3594 0 1.3594 0.85938 1.3594 1.2188 0 0.34375 0 1.2344-1.3594 1.2344z"/>
</g>
<g id="ac">
<path d="m5.2812-4.6406c0.21875-0.53125 0.71875-0.53125 0.875-0.53125v-0.26562c-0.23438 0.015625-0.64062 0.015625-0.78125 0.015625-0.15625 0-0.51562 0-0.875-0.015625v0.26562c0.34375 0 0.53125 0.17188 0.53125 0.375 0 0.078125 0 0.09375-0.046875 0.1875l-1.5781 3.8594-1.6562-4.0625c-0.03125-0.078125-0.046875-0.10938-0.046875-0.14062 0-0.21875 0.42188-0.21875 0.60938-0.21875v-0.26562c-0.67188 0.015625-0.6875 0.015625-1.1094 0.015625-0.375 0-0.625 0-1.0312-0.015625v0.26562c0.48438 0 0.65625 0 0.78125 0.29688l2 4.8594c0.0625 0.15625 0.125 0.1875 0.20312 0.1875 0.15625 0 0.17188-0.0625 0.21875-0.1875z"/>
</g>
<g id="x">
<path d="m1.4688-5.5312-1.1875 0.09375v0.26562c0.54688 0 0.60938 0.046875 0.60938 0.4375v4.7344h0.23438l0.29688-0.5c0.1875 0.28125 0.5625 0.57812 1.1094 0.57812 1 0 1.8906-0.78125 1.8906-1.7969 0-1-0.82812-1.7969-1.7969-1.7969-0.64062 0-1.0156 0.34375-1.1562 0.48438zm0.015625 3.0156c0-0.15625 0-0.17188 0.125-0.3125 0.23438-0.29688 0.60938-0.46875 0.96875-0.46875 0.40625 0 0.71875 0.25 0.875 0.48438 0.14062 0.21875 0.25 0.5 0.25 1.0781 0 0.1875 0 0.75-0.28125 1.125-0.29688 0.35938-0.67188 0.46875-0.92188 0.46875-0.39062 0-0.70312-0.20312-0.92188-0.51562-0.09375-0.15625-0.09375-0.15625-0.09375-0.3125z"/>
</g>
<g id="w">
<path d="m4.9375-5.4219h-4.5938v0.26562h0.1875c0.60938 0 0.625 0.09375 0.625 0.39062v4.125c0 0.29688-0.015625 0.375-0.625 0.375h-0.1875v0.26562c0.6875-0.03125 0.70312-0.03125 1.2344-0.03125 0.375 0 0.95312 0 1.3125 0.03125v-0.26562h-0.25c-0.75 0-0.75-0.10938-0.75-0.39062v-1.9219h0.73438c0.78125 0 0.875 0.25 0.875 0.92188h0.25v-2.125h-0.25c0 0.6875-0.09375 0.9375-0.875 0.9375h-0.73438v-1.9844c0-0.26562 0.015625-0.32812 0.375-0.32812h1.0625c1.2969 0 1.4531 0.5 1.5938 1.5469h0.23438z"/>
</g>
<g id="v">
<path d="m1.8906-4.7969c0-0.29688 0.015625-0.375 0.65625-0.375h0.1875v-0.26562c-0.64062 0.015625-0.65625 0.015625-1.2188 0.015625-0.54688 0-0.5625 0-1.2031-0.015625v0.26562h0.1875c0.625 0 0.65625 0.078125 0.65625 0.375v4.1562c0 0.29688-0.03125 0.375-0.65625 0.375h-0.1875v0.26562c0.64062-0.03125 0.65625-0.03125 1.2031-0.03125 0.5625 0 0.57812 0 1.2188 0.03125v-0.26562h-0.1875c-0.64062 0-0.65625-0.078125-0.65625-0.375z"/>
</g>
<g id="ao">
<path d="m2.0156-2.6562c0.625 0 1.0312 0.45312 1.0312 1.2969 0 1-0.5625 1.2812-0.98438 1.2812-0.4375 0-1.0469-0.15625-1.3281-0.57812 0.29688 0 0.5-0.1875 0.5-0.4375 0-0.26562-0.1875-0.4375-0.45312-0.4375-0.20312 0-0.4375 0.125-0.4375 0.45312 0 0.75 0.8125 1.25 1.7344 1.25 1.0469 0 1.7969-0.73438 1.7969-1.5312 0-0.67188-0.53125-1.2656-1.3438-1.4531 0.625-0.21875 1.1094-0.75 1.1094-1.3906s-0.71875-1.0938-1.5469-1.0938c-0.85938 0-1.5 0.45312-1.5 1.0625 0 0.29688 0.1875 0.42188 0.40625 0.42188 0.25 0 0.40625-0.17188 0.40625-0.40625 0-0.29688-0.26562-0.40625-0.4375-0.40625 0.34375-0.4375 0.95312-0.46875 1.0938-0.46875 0.20312 0 0.8125 0.0625 0.8125 0.89062 0 0.54688-0.23438 0.89062-0.34375 1.0156-0.23438 0.25-0.42188 0.26562-0.90625 0.29688-0.15625 0-0.21875 0.015625-0.21875 0.125s0.078125 0.10938 0.21875 0.10938z"/>
</g>
<g id="an">
<path d="m3.8906-2.5469c0-0.84375-0.078125-1.3594-0.34375-1.875-0.34375-0.70312-1-0.875-1.4375-0.875-1 0-1.375 0.75-1.4844 0.96875-0.28125 0.57812-0.29688 1.375-0.29688 1.7812 0 0.53125 0.015625 1.3281 0.40625 1.9688 0.35938 0.59375 0.95312 0.75 1.375 0.75 0.39062 0 1.0625-0.125 1.4688-0.90625 0.29688-0.57812 0.3125-1.2969 0.3125-1.8125zm-1.7812 2.4844c-0.26562 0-0.8125-0.125-0.98438-0.95312-0.09375-0.45312-0.09375-1.2031-0.09375-1.625 0-0.54688 0-1.1094 0.09375-1.5469 0.17188-0.8125 0.78125-0.89062 0.98438-0.89062 0.26562 0 0.82812 0.14062 0.98438 0.85938 0.09375 0.4375 0.09375 1.0469 0.09375 1.5781 0 0.46875 0 1.1875-0.09375 1.6406-0.17188 0.82812-0.71875 0.9375-0.98438 0.9375z"/>
</g>
<g id="am">
<path d="m1.625-0.4375c0-0.26562-0.21875-0.45312-0.45312-0.45312-0.26562 0-0.4375 0.21875-0.4375 0.4375 0 0.28125 0.21875 0.45312 0.4375 0.45312 0.26562 0 0.45312-0.21875 0.45312-0.4375z"/>
</g>
<g id="al">
<path d="m2.25-1.625c0.125-0.125 0.45312-0.39062 0.59375-0.5 0.48438-0.45312 0.95312-0.89062 0.95312-1.6094 0-0.95312-0.79688-1.5625-1.7812-1.5625-0.96875 0-1.5938 0.71875-1.5938 1.4375 0 0.39062 0.3125 0.4375 0.42188 0.4375 0.17188 0 0.42188-0.10938 0.42188-0.42188 0-0.40625-0.40625-0.40625-0.5-0.40625 0.23438-0.59375 0.76562-0.78125 1.1562-0.78125 0.73438 0 1.125 0.625 1.125 1.2969 0 0.82812-0.57812 1.4375-1.5312 2.3906l-1 1.0469c-0.09375 0.078125-0.09375 0.09375-0.09375 0.29688h3.1406l0.23438-1.4219h-0.25c-0.015625 0.15625-0.078125 0.54688-0.17188 0.70312-0.046875 0.0625-0.65625 0.0625-0.78125 0.0625h-1.4219z"/>
</g>
<g id="ak">
<path d="m2.5-5.0781c0-0.21875-0.015625-0.21875-0.23438-0.21875-0.32812 0.3125-0.75 0.5-1.5 0.5v0.26562c0.21875 0 0.64062 0 1.1094-0.20312v4.0781c0 0.29688-0.03125 0.39062-0.78125 0.39062h-0.28125v0.26562c0.32812-0.03125 1.0156-0.03125 1.375-0.03125s1.0469 0 1.375 0.03125v-0.26562h-0.28125c-0.75 0-0.78125-0.09375-0.78125-0.39062z"/>
</g>
<g id="ah">
<path d="m3.8125-3.1719h0.95312v-0.26562h-0.98438v-0.89062c0-0.71875 0.40625-1.0625 0.75-1.0625 0.03125 0 0.125 0 0.23438 0.046875-0.14062 0.0625-0.1875 0.20312-0.1875 0.3125 0 0.20312 0.15625 0.35938 0.35938 0.35938 0.21875 0 0.35938-0.15625 0.35938-0.35938 0-0.34375-0.32812-0.57812-0.75-0.57812-0.29688 0-0.64062 0.10938-0.90625 0.32812-0.26562-0.3125-0.73438-0.32812-0.95312-0.32812-0.79688 0-1.7969 0.39062-1.7969 1.2969v0.875h-0.65625v0.26562h0.65625v2.5469c0 0.35938-0.10938 0.35938-0.60938 0.35938v0.26562c0.3125-0.03125 0.75-0.03125 0.89062-0.03125 0.15625 0 0.59375 0 0.90625 0.03125v-0.26562c-0.51562 0-0.60938 0-0.60938-0.35938v-2.5469h1.7656v2.5469c0 0.35938-0.10938 0.35938-0.60938 0.35938v0.26562c0.3125-0.03125 0.75-0.03125 0.9375-0.03125 0.46875 0 0.48438 0 1 0.03125v-0.26562h-0.15625c-0.57812 0-0.59375-0.078125-0.59375-0.375zm-2.375-0.26562v-0.85938c0-0.78125 0.70312-1.0938 1.2344-1.0938 0.078125 0 0.375 0 0.60938 0.125-0.20312 0.09375-0.23438 0.26562-0.23438 0.34375 0 0.0625 0.015625 0.23438 0.20312 0.3125-0.015625 0.09375-0.015625 0.25-0.015625 0.28125v0.89062z"/>
</g>
<clipPath id="br">
<path d="m50 145h1v35h-1z"/>
</clipPath>
<clipPath id="bq">
<path d="m0.52734 619.87h281v-620h-281zm51.871-469.89v-4.7617h-3.1758v4.7617l1.5898-3.9688z" clip-rule="evenodd"/>
</clipPath>
<clipPath id="bf">
<path d="m206 143h1v34h-1z"/>
</clipPath>
<clipPath id="ay">
<path d="m0.52734 619.87h281v-620h-281zm204.68-447.39v4.7617h3.1758v-4.7617l-1.5898 3.9688z" clip-rule="evenodd"/>
</clipPath>
<clipPath id="ax">
<path d="m48 360h56v51h-56z"/>
</clipPath>
<clipPath id="aw">
<path d="m0.52734 619.87h281v-620h-281zm96.008-254.77 4.7617 0.12891 0.082031-3.1719-4.7656-0.13281 3.9453 1.7188z" clip-rule="evenodd"/>
</clipPath>
<clipPath id="av">
<path d="m152 359h57v51h-57z"/>
</clipPath>
<clipPath id="au">
<path d="m0.52734 619.87h281v-620h-281zm203.09-217.43 0.44922 4.7383 3.1523-0.29297-0.45312-4.7344-1.1914 4.1016z" clip-rule="evenodd"/>
</clipPath>
<clipPath id="at">
<path d="m152 545h57v51h-57z"/>
</clipPath>
<clipPath id="as">
<path d="m0.52734 619.87h281v-620h-281zm159.32-29.09-4.7617-0.13281-0.078125 3.1758 4.7617 0.13281-3.9141-1.6953z" clip-rule="evenodd"/>
</clipPath>
<clipPath id="bp">
<path d="m48 45h56v50h-56z"/>
</clipPath>
<clipPath id="bo">
<path d="m0.52734 619.87h281v-620h-281zm96.008-570.3 4.7617 0.13281 0.082031-3.1758-4.7656-0.12891 3.9453 1.7188z" clip-rule="evenodd"/>
</clipPath>
<clipPath id="bn">
<path d="m152 229h57v51h-57z"/>
</clipPath>
<clipPath id="bm">
<path d="m0.52734 619.87h281v-620h-281zm159.32-344.62-4.7617-0.13281-0.078125 3.1758 4.7617 0.13281-3.9141-1.6953z" clip-rule="evenodd"/>
</clipPath>
<clipPath id="bl">
<path d="m50 228h57v51h-57z"/>
</clipPath>
<clipPath id="bk">
<path d="m0.52734 619.87h281v-620h-281zm54.625-384.34-0.44922-4.7344-3.1523 0.28906 0.45312 4.7383 1.2148-4.0742z" clip-rule="evenodd"/>
</clipPath>
<clipPath id="bj">
<path d="m50 544h57v50h-57z"/>
</clipPath>
<clipPath id="bi">
<path d="m0.52734 619.87h281v-620h-281zm54.625-68.805-0.44922-4.7383-3.1523 0.29297 0.45312 4.7344 1.2148-4.0742z" clip-rule="evenodd"/>
</clipPath>
<clipPath id="bh">
<path d="m152 44h57v50h-57z"/>
</clipPath>
<clipPath id="bg">
<path d="m0.52734 619.87h281v-620h-281zm203.09-532.97 0.44922 4.7383 3.1523-0.29297-0.45312-4.7344-1.1914 4.1016z" clip-rule="evenodd"/>
</clipPath>
<clipPath id="be">
<path d="m206 458h1v35h-1z"/>
</clipPath>
<clipPath id="bd">
<path d="m0.52734 619.87h281v-620h-281zm204.68-131.86v4.7617h3.1758v-4.7617l-1.5898 3.9688z" clip-rule="evenodd"/>
</clipPath>
<clipPath id="bc">
<path d="m50 461h1v34h-1z"/>
</clipPath>
<clipPath id="bb">
<path d="m0.52734 619.87h281v-620h-281zm51.871-154.35v-4.7617h-3.1758v4.7617l1.5898-3.9688z" clip-rule="evenodd"/>
</clipPath>
<clipPath id="ba">
<path d="m0.52734 0h280.47v305h-280.47z"/>
</clipPath>
<clipPath id="az">
<path d="m0.52734 315h280.47v304.87h-280.47z"/>
</clipPath>
</defs>
<path transform="matrix(.1 0 0 -.1 .528 619.87)" d="m538.55 1431.1h357.23" fill="none" stroke="#000" stroke-miterlimit="10" stroke-width="1.9845"/>
<path transform="matrix(.1 0 0 -.1 .528 619.87)" d="m240.89 3360h642.97" fill="none" stroke="#000" stroke-miterlimit="10" stroke-width="1.9845"/>
<path transform="matrix(.1 0 0 -.1 .528 619.87)" d="m240.89 4586.4h583.44" fill="none" stroke="#000" stroke-miterlimit="10" stroke-width="1.9845"/>
<path transform="matrix(.1 0 0 -.1 .528 619.87)" d="m169.45 5574.7h428.63" fill="none" stroke="#000" stroke-miterlimit="10" stroke-width="1.9845"/>
<path transform="matrix(.1 0 0 -.1 .528 619.87)" d="m1967.4 2443.2h595.35" fill="none" stroke="#000" stroke-miterlimit="10" stroke-width="1.9845"/>
<path transform="matrix(.1 0 0 -.1 .528 619.87)" d="m1372.1 1490.6h654.88" fill="none" stroke="#000" stroke-miterlimit="10" stroke-width="1.9845"/>
<path transform="matrix(.1 0 0 -.1 .528 619.87)" d="m1967.4 418.98h595.35" fill="none" stroke="#000" stroke-miterlimit="10" stroke-width="1.9845"/>
<path transform="matrix(.1 0 0 -.1 .528 619.87)" d="m121.83 240.35h547.7" fill="none" stroke="#000" stroke-miterlimit="10" stroke-width="1.9845"/>
<path transform="matrix(.1 0 0 -.1 .528 619.87)" d="m121.83 2502.7h595.35" fill="none" stroke="#000" stroke-miterlimit="10" stroke-width="1.9845"/>
<path transform="matrix(.1 0 0 -.1 .528 619.87)" d="m1967.4 5562.8h654.88" fill="none" stroke="#000" stroke-miterlimit="10" stroke-width="1.9845"/>
<path transform="matrix(.1 0 0 -.1 .528 619.87)" d="m1669.7 4586.4h762.03" fill="none" stroke="#000" stroke-miterlimit="10" stroke-width="1.9845"/>
<path transform="matrix(.1 0 0 -.1 .528 619.87)" d="m1848.3 3276.6h726.33" fill="none" stroke="#000" stroke-miterlimit="10" stroke-width="1.9845"/>
<g clip-path="url(#br)">
<g clip-path="url(#bq)">
<path transform="matrix(.1 0 0 -.1 .528 619.87)" d="m502.84 4741.2v-333.4" fill="none" stroke="#000" stroke-miterlimit="10" stroke-width="1.9845"/>
</g>
</g>
<path d="m52.398 149.98-1.5859-3.9688-1.5898 3.9688 1.5898-0.79297 1.5859 0.79297" fill-rule="evenodd"/>
<path transform="matrix(.1 0 0 -.1 .528 619.87)" d="m518.7 4698.9-15.859 39.688-15.898-39.688 15.898 7.9297z" fill="none" stroke="#000" stroke-miterlimit="10" stroke-width="1.9845"/>
<g clip-path="url(#bf)">
<g clip-path="url(#ay)">
<path transform="matrix(.1 0 0 -.1 .528 619.87)" d="m2062.6 4765v-333.4" fill="none" stroke="#000" stroke-miterlimit="10" stroke-width="1.9845"/>
</g>
</g>
<path d="m205.21 172.47 1.5859 3.9688 1.5898-3.9688-1.5898 0.79297-1.5859-0.79297" fill-rule="evenodd"/>
<path transform="matrix(.1 0 0 -.1 .528 619.87)" d="m2046.8 4473.9 15.859-39.688 15.898 39.688-15.898-7.9297z" fill="none" stroke="#000" stroke-miterlimit="10" stroke-width="1.9845"/>
<path transform="matrix(.1 0 0 -.1 .528 619.87)" d="m776.71 989.18c0-146.13-118.48-264.61-264.61-264.61-146.13 0-264.61 118.48-264.61 264.61 0 146.13 118.48 264.61 264.61 264.61 146.13 0 264.61-118.48 264.61-264.61z" fill="none" stroke="#000" stroke-miterlimit="10" stroke-width="3.969"/>
<path transform="matrix(.1 0 0 -.1 .528 619.87)" d="m776.71 4144.5c0-146.13-118.48-264.61-264.61-264.61-146.13 0-264.61 118.48-264.61 264.61 0 146.13 118.48 264.61 264.61 264.61 146.13 0 264.61-118.48 264.61-264.61z" fill="none" stroke="#000" stroke-miterlimit="10" stroke-width="3.969"/>
<path d="m203.22 169.56h5.9531v-17.859h-5.9531z" fill="#fff" fill-rule="evenodd"/>
<path transform="matrix(.1 0 0 -.1 .528 619.87)" d="m2324.6 1871.6c0-146.13-118.48-264.61-264.61-264.61-146.13 0-264.57 118.48-264.57 264.61 0 146.09 118.44 264.57 264.57 264.57 146.13 0 264.61-118.48 264.61-264.57z" fill="none" stroke="#000" stroke-miterlimit="10" stroke-width="3.969"/>
<path d="m48.43 170.75h4.7617v-17.859h-4.7617z" fill="#fff" fill-rule="evenodd"/>
<path transform="matrix(.1 0 0 -.1 .528 619.87)" d="m2324.6 5027c0-146.09-118.48-264.57-264.61-264.57-146.13 0-264.57 118.48-264.57 264.57 0 146.17 118.44 264.61 264.57 264.61 146.13 0 264.61-118.44 264.61-264.61z" fill="none" stroke="#000" stroke-miterlimit="10" stroke-width="3.969"/>
<g clip-path="url(#ax)">
<g clip-path="url(#aw)">
<path transform="matrix(.1 0 0 -.1 .528 619.87)" d="m502.84 2121.7c14.531 247.97 219.88 441.64 468.32 441.64 10.586 0 21.211-0.35156 31.797-1.0938" fill="none" stroke="#000" stroke-miterlimit="10" stroke-width="1.9845"/>
</g>
</g>
<path d="m96.535 365.1 4.0234-1.457-3.9453-1.7188 0.76953 1.6133-0.84766 1.5625" fill-rule="evenodd"/>
<path transform="matrix(.1 0 0 -.1 .528 619.87)" d="m960.07 2547.7 40.234 14.57-39.453 17.188 7.6953-16.133z" fill="none" stroke="#000" stroke-miterlimit="10" stroke-width="1.9845"/>
<g clip-path="url(#av)">
<g clip-path="url(#au)">
<path transform="matrix(.1 0 0 -.1 .528 619.87)" d="m2050.7 2133.6c-14.531 247.97-219.88 441.64-468.32 441.64-10.586 0-21.211-0.39062-31.758-1.0938" fill="none" stroke="#000" stroke-miterlimit="10" stroke-width="1.9845"/>
</g>
</g>
<path d="m203.62 402.43 1.957 3.8125 1.1914-4.1016-1.5078 0.92578-1.6406-0.63672" fill-rule="evenodd"/>
<path transform="matrix(.1 0 0 -.1 .528 619.87)" d="m2030.9 2174.3 19.57-38.125 11.914 41.016-15.078-9.2578z" fill="none" stroke="#000" stroke-miterlimit="10" stroke-width="1.9845"/>
<g clip-path="url(#at)">
<g clip-path="url(#as)">
<path transform="matrix(.1 0 0 -.1 .528 619.87)" d="m2050.7 716.64c-14.531-247.97-219.88-441.64-468.32-441.64-10.586 0-21.211 0.35156-31.758 1.0938" fill="none" stroke="#000" stroke-miterlimit="10" stroke-width="1.9845"/>
</g>
</g>
<path d="m159.85 590.78-3.9922 1.4805 3.9141 1.6953-0.76563-1.6133 0.84375-1.5625" fill-rule="evenodd"/>
<path transform="matrix(.1 0 0 -.1 .528 619.87)" d="m1593.2 290.9-39.922-14.805 39.141-16.953-7.6562 16.133z" fill="none" stroke="#000" stroke-miterlimit="10" stroke-width="1.9845"/>
<g clip-path="url(#bp)">
<g clip-path="url(#bo)">
<path transform="matrix(.1 0 0 -.1 .528 619.87)" d="m502.84 5277c14.531 247.97 219.88 441.64 468.32 441.64 10.586 0 21.211-0.35156 31.797-1.0938" fill="none" stroke="#000" stroke-miterlimit="10" stroke-width="1.9845"/>
</g>
</g>
<path d="m96.535 49.562 4.0234-1.4531-3.9453-1.7188 0.76953 1.6133-0.84766 1.5586" fill-rule="evenodd"/>
<path transform="matrix(.1 0 0 -.1 .528 619.87)" d="m960.07 5703 40.234 14.531-39.453 17.188 7.6953-16.133z" fill="none" stroke="#000" stroke-miterlimit="10" stroke-width="1.9845"/>
<g clip-path="url(#bn)">
<g clip-path="url(#bm)">
<path transform="matrix(.1 0 0 -.1 .528 619.87)" d="m2050.7 3872c-14.531-247.97-219.88-441.64-468.32-441.64-10.586 0-21.211 0.35156-31.758 1.0938" fill="none" stroke="#000" stroke-miterlimit="10" stroke-width="1.9845"/>
</g>
</g>
<path d="m159.85 275.24-3.9922 1.4805 3.9141 1.6953-0.76563-1.6133 0.84375-1.5625" fill-rule="evenodd"/>
<path transform="matrix(.1 0 0 -.1 .528 619.87)" d="m1593.2 3446.2-39.922-14.805 39.141-16.953-7.6562 16.133z" fill="none" stroke="#000" stroke-miterlimit="10" stroke-width="1.9845"/>
<g clip-path="url(#bl)">
<g clip-path="url(#bk)">
<path transform="matrix(.1 0 0 -.1 .528 619.87)" d="m526.67 3883.9c14.531-248.01 219.88-441.64 468.28-441.64 10.625 0 21.211 0.35156 31.797 1.0938" fill="none" stroke="#000" stroke-miterlimit="10" stroke-width="1.9845"/>
</g>
</g>
<path d="m55.152 235.52-1.9336-3.7812-1.2148 4.0742 1.5078-0.92578 1.6406 0.63281" fill-rule="evenodd"/>
<path transform="matrix(.1 0 0 -.1 .528 619.87)" d="m546.24 3843.4-19.336 37.812-12.148-40.742 15.078 9.2578z" fill="none" stroke="#000" stroke-miterlimit="10" stroke-width="1.9845"/>
<g clip-path="url(#bj)">
<g clip-path="url(#bi)">
<path transform="matrix(.1 0 0 -.1 .528 619.87)" d="m526.67 728.55c14.531-248.01 219.88-441.64 468.28-441.64 10.625 0 21.211 0.35156 31.797 1.0547" fill="none" stroke="#000" stroke-miterlimit="10" stroke-width="1.9845"/>
</g>
</g>
<path d="m55.152 551.06-1.9336-3.7852-1.2148 4.0742 1.5078-0.92578 1.6406 0.63672" fill-rule="evenodd"/>
<path transform="matrix(.1 0 0 -.1 .528 619.87)" d="m546.24 688.04-19.336 37.852-12.148-40.742 15.078 9.2578z" fill="none" stroke="#000" stroke-miterlimit="10" stroke-width="1.9845"/>
<g clip-path="url(#bh)">
<g clip-path="url(#bg)">
<path transform="matrix(.1 0 0 -.1 .528 619.87)" d="m2050.7 5288.9c-14.531 247.97-219.88 441.64-468.32 441.64-10.586 0-21.211-0.39062-31.758-1.0938" fill="none" stroke="#000" stroke-miterlimit="10" stroke-width="1.9845"/>
</g>
</g>
<path d="m203.62 86.898 1.957 3.8125 1.1914-4.1016-1.5078 0.92578-1.6406-0.63672" fill-rule="evenodd"/>
<path transform="matrix(.1 0 0 -.1 .528 619.87)" d="m2030.9 5329.7 19.57-38.125 11.914 41.016-15.078-9.2578z" fill="none" stroke="#000" stroke-miterlimit="10" stroke-width="1.9845"/>
<path transform="matrix(.1 0 0 -.1 .528 619.87)" d="m2324.6 992.62c0-152.42-118.48-275.98-264.61-275.98-146.13 0-264.57 123.55-264.57 275.98s118.44 275.98 264.57 275.98c146.13 0 264.61-123.55 264.61-275.98z" fill="none" stroke="#000" stroke-miterlimit="10" stroke-width="3.969"/>
<path transform="matrix(.1 0 0 -.1 .528 619.87)" d="m1541.4 2538.4c0-146.13-118.48-264.57-264.61-264.57-146.13 0-264.61 118.44-264.61 264.57 0 146.13 118.48 264.61 264.61 264.61 146.13 0 264.61-118.48 264.61-264.61z" fill="none" stroke="#000" stroke-miterlimit="10" stroke-width="3.969"/>
<path transform="matrix(.1 0 0 -.1 .528 619.87)" d="m776.71 1849.1c0-146.13-118.48-264.61-264.61-264.61-146.13 0-264.61 118.48-264.61 264.61 0 146.13 118.48 264.61 264.61 264.61 146.13 0 264.61-118.48 264.61-264.61z" fill="none" stroke="#000" stroke-miterlimit="10" stroke-width="3.969"/>
<path transform="matrix(.1 0 0 -.1 .528 619.87)" d="m1541.4 5693.8c0-146.17-118.48-264.61-264.61-264.61-146.13 0-264.61 118.44-264.61 264.61 0 146.09 118.48 264.57 264.61 264.57 146.13 0 264.61-118.48 264.61-264.57z" fill="none" stroke="#000" stroke-miterlimit="10" stroke-width="3.969"/>
<path transform="matrix(.1 0 0 -.1 .528 619.87)" d="m1553.3 335.62c0-146.13-118.48-264.61-264.61-264.61-146.13 0-264.61 118.48-264.61 264.61 0 146.13 118.48 264.61 264.61 264.61 146.13 0 264.61-118.48 264.61-264.61z" fill="none" stroke="#000" stroke-miterlimit="10" stroke-width="3.969"/>
<path transform="matrix(.1 0 0 -.1 .528 619.87)" d="m776.71 5004.5c0-146.13-118.48-264.61-264.61-264.61-146.13 0-264.61 118.48-264.61 264.61 0 146.13 118.48 264.57 264.61 264.57 146.13 0 264.61-118.44 264.61-264.57z" fill="none" stroke="#000" stroke-miterlimit="10" stroke-width="3.969"/>
<g clip-path="url(#be)">
<g clip-path="url(#bd)">
<path transform="matrix(.1 0 0 -.1 .528 619.87)" d="m2062.6 1609.6v-333.36" fill="none" stroke="#000" stroke-miterlimit="10" stroke-width="1.9845"/>
</g>
</g>
<path d="m205.21 488.01 1.5859 3.9688 1.5898-3.9688-1.5898 0.79297-1.5859-0.79297" fill-rule="evenodd"/>
<path transform="matrix(.1 0 0 -.1 .528 619.87)" d="m2046.8 1318.6 15.859-39.688 15.898 39.688-15.898-7.9297z" fill="none" stroke="#000" stroke-miterlimit="10" stroke-width="1.9845"/>
<g clip-path="url(#bc)">
<g clip-path="url(#bb)">
<path transform="matrix(.1 0 0 -.1 .528 619.87)" d="m502.84 1585.9v-333.4" fill="none" stroke="#000" stroke-miterlimit="10" stroke-width="1.9845"/>
</g>
</g>
<path d="m52.398 465.52-1.5859-3.9688-1.5898 3.9688 1.5898-0.79297 1.5859 0.79297" fill-rule="evenodd"/>
<path transform="matrix(.1 0 0 -.1 .528 619.87)" d="m518.7 1543.5-15.859 39.688-15.898-39.688 15.898 7.9297z" fill="none" stroke="#000" stroke-miterlimit="10" stroke-width="1.9845"/>
<g clip-path="url(#ba)">
<path transform="matrix(.1 0 0 -.1 .528 619.87)" d="m2.7278 3157.6h2798.2v3036.3h-2798.2z" fill="none" stroke="#000" stroke-miterlimit="10" stroke-width="1.9845"/>
</g>
<g clip-path="url(#az)">
<path transform="matrix(.1 0 0 -.1 .528 619.87)" d="m2.7278 2.2247h2798.2v3036.3h-2798.2z" fill="none" stroke="#000" stroke-miterlimit="10" stroke-width="1.9845"/>
</g>
<path transform="matrix(.1 0 0 -.1 .528 619.87)" d="m1553.3 3491c0-146.13-118.48-264.61-264.61-264.61-146.13 0-264.61 118.48-264.61 264.61 0 146.13 118.48 264.61 264.61 264.61 146.13 0 264.61-118.48 264.61-264.61z" fill="none" stroke="#000" stroke-miterlimit="10" stroke-width="3.969"/>
<path transform="matrix(.1 0 0 -.1 .528 619.87)" d="m2324.6 4148c0-152.42-118.48-275.98-264.61-275.98-146.13 0-264.57 123.55-264.57 275.98s118.44 275.98 264.57 275.98c146.13 0 264.61-123.55 264.61-275.98z" fill="none" stroke="#000" stroke-miterlimit="10" stroke-width="3.969"/>
<g>
<use x="39.548" y="105.34" xlink:href="#ab"/>
<use x="47.53404" y="105.34" xlink:href="#i"/>
<use x="51.768554" y="105.34" xlink:href="#e"/>
<use x="55.068973" y="105.34" xlink:href="#d"/>
<use x="58.362218" y="105.34" xlink:href="#a"/>
<use x="202.006" y="356.493" xlink:href="#l"/>
<use x="208.348606" y="356.493" xlink:href="#b"/>
<use x="212.822223" y="356.493" xlink:href="#af"/>
<use x="218.699374" y="356.493" xlink:href="#a"/>
<use x="222.462856" y="356.493" xlink:href="#b"/>
<use x="227.167606" y="356.493" xlink:href="#g"/>
<use x="231.872356" y="356.493" xlink:href="#k"/>
<use x="236.577106" y="356.493" xlink:href="#b"/>
<use x="241.281856" y="356.493" xlink:href="#f"/>
<use x="245.51637" y="356.493" xlink:href="#c"/>
<use x="248.856639" y="356.493" xlink:href="#aa"/>
<use x="202.006" y="366.809" xlink:href="#o"/>
<use x="206.71075" y="366.809" xlink:href="#e"/>
<use x="210.011168" y="366.809" xlink:href="#n"/>
<use x="214.245683" y="366.809" xlink:href="#u"/>
<use x="218.009164" y="366.809" xlink:href="#a"/>
<use x="221.772645" y="366.809" xlink:href="#c"/>
<use x="225.112914" y="366.809" xlink:href="#c"/>
<use x="231.274598" y="366.809" xlink:href="#a"/>
<use x="235.038079" y="366.809" xlink:href="#e"/>
<use x="238.338498" y="366.809" xlink:href="#u"/>
<use x="242.101979" y="366.809" xlink:href="#a"/>
<use x="245.86546" y="366.809" xlink:href="#k"/>
<use x="250.57021" y="366.809" xlink:href="#f"/>
<use x="254.804724" y="366.809" xlink:href="#d"/>
<use x="202.006" y="375.538" xlink:href="#s"/>
<use x="206.71075" y="375.538" xlink:href="#n"/>
<use x="211.184367" y="375.538" xlink:href="#t"/>
<use x="214.708745" y="375.538" xlink:href="#aj"/>
<use x="218.939274" y="375.538" xlink:href="#a"/>
<use x="222.710726" y="375.538" xlink:href="#d"/>
<use x="140.333" y="480.681" xlink:href="#c"/>
<use x="143.673269" y="480.681" xlink:href="#a"/>
<use x="147.43675" y="480.681" xlink:href="#b"/>
<use x="152.1415" y="480.681" xlink:href="#g"/>
<use x="156.84625" y="480.681" xlink:href="#a"/>
<use x="163.431147" y="480.681" xlink:href="#s"/>
<use x="168.135897" y="480.681" xlink:href="#z"/>
<use x="174.478502" y="480.681" xlink:href="#m"/>
<use x="180.821108" y="480.681" xlink:href="#l"/>
<use x="186.932581" y="480.681" xlink:href="#j"/>
<use x="193.048835" y="480.681" xlink:href="#r"/>
<use x="202.006" y="574.318" xlink:href="#a"/>
<use x="205.769481" y="574.318" xlink:href="#q"/>
<use x="212.826208" y="574.318" xlink:href="#o"/>
<use x="217.530958" y="574.318" xlink:href="#p"/>
<use x="220.118849" y="574.318" xlink:href="#i"/>
<use x="224.353363" y="574.318" xlink:href="#b"/>
<use x="229.058113" y="574.318" xlink:href="#f"/>
<use x="233.292628" y="574.318" xlink:href="#a"/>
<use x="239.877524" y="574.318" xlink:href="#l"/>
<use x="245.988997" y="574.318" xlink:href="#j"/>
<use x="252.105252" y="574.318" xlink:href="#r"/>
<use x="202.006" y="584.634" xlink:href="#c"/>
<use x="205.346269" y="584.634" xlink:href="#a"/>
<use x="209.10975" y="584.634" xlink:href="#b"/>
<use x="213.8145" y="584.634" xlink:href="#g"/>
<use x="218.51925" y="584.634" xlink:href="#a"/>
<use x="225.104147" y="584.634" xlink:href="#b"/>
<use x="229.808897" y="584.634" xlink:href="#h"/>
<use x="232.160873" y="584.634" xlink:href="#t"/>
<use x="235.693222" y="584.634" xlink:href="#y"/>
<use x="240.158869" y="584.634" xlink:href="#d"/>
<use x="243.452114" y="584.634" xlink:href="#c"/>
<use x="37.585" y="431.085" xlink:href="#ar"/>
<use x="42.873958" y="431.085" xlink:href="#a"/>
<use x="46.63744" y="431.085" xlink:href="#d"/>
<use x="49.930685" y="431.085" xlink:href="#u"/>
<use x="53.694166" y="431.085" xlink:href="#d"/>
<use x="56.987411" y="431.085" xlink:href="#a"/>
<use x="60.750893" y="431.085" xlink:href="#c"/>
<use x="41.437" y="441.401" xlink:href="#l"/>
<use x="47.548473" y="441.401" xlink:href="#j"/>
<use x="53.664727" y="441.401" xlink:href="#r"/>
<use x="107.554" y="367.999" xlink:href="#f"/>
<use x="111.788514" y="367.999" xlink:href="#a"/>
<use x="115.551995" y="367.999" xlink:href="#c"/>
<use x="118.892264" y="367.999" xlink:href="#t"/>
<use x="122.424613" y="367.999" xlink:href="#y"/>
<use x="127.129363" y="367.999" xlink:href="#ae"/>
<use x="129.481339" y="367.999" xlink:href="#n"/>
<use x="133.715853" y="367.999" xlink:href="#c"/>
<use x="137.056122" y="367.999" xlink:href="#c"/>
<use x="140.396391" y="367.999" xlink:href="#a"/>
<use x="144.159872" y="367.999" xlink:href="#b"/>
<use x="201.004" y="434.656" xlink:href="#i"/>
<use x="205.238514" y="434.656" xlink:href="#k"/>
<use x="209.943264" y="434.656" xlink:href="#p"/>
<use x="192.779" y="444.972" xlink:href="#aq"/>
<use x="199.00843" y="444.972" xlink:href="#a"/>
<use x="202.771911" y="444.972" xlink:href="#ap"/>
<use x="207.241543" y="444.972" xlink:href="#k"/>
<use x="211.946293" y="444.972" xlink:href="#a"/>
<use x="215.709775" y="444.972" xlink:href="#c"/>
<use x="219.050044" y="444.972" xlink:href="#d"/>
<use x="193.125" y="424.34" xlink:href="#ab"/>
<use x="201.11104" y="424.34" xlink:href="#i"/>
<use x="205.345554" y="424.34" xlink:href="#e"/>
<use x="208.645973" y="424.34" xlink:href="#d"/>
<use x="211.939218" y="424.34" xlink:href="#a"/>
<use x="215.702699" y="424.34" xlink:href="#b"/>
<use x="196.882" y="514.274" xlink:href="#s"/>
<use x="201.58675" y="514.274" xlink:href="#z"/>
<use x="207.929356" y="514.274" xlink:href="#m"/>
<use x="185.7" y="525.039" xlink:href="#a"/>
<use x="189.463481" y="525.039" xlink:href="#q"/>
<use x="196.520208" y="525.039" xlink:href="#o"/>
<use x="201.224958" y="525.039" xlink:href="#p"/>
<use x="203.812849" y="525.039" xlink:href="#i"/>
<use x="208.047363" y="525.039" xlink:href="#b"/>
<use x="212.752113" y="525.039" xlink:href="#f"/>
<use x="216.986628" y="525.039" xlink:href="#a"/>
<use x="220.750109" y="525.039" xlink:href="#b"/>
<use x="37.196" y="531.864" xlink:href="#ab"/>
<use x="45.18204" y="531.864" xlink:href="#i"/>
<use x="49.416554" y="531.864" xlink:href="#e"/>
<use x="52.716973" y="531.864" xlink:href="#d"/>
<use x="56.010218" y="531.864" xlink:href="#a"/>
<use x="59.773699" y="531.864" xlink:href="#b"/>
<use x="40.935" y="521.548" xlink:href="#j"/>
<use x="47.051255" y="521.548" xlink:href="#ae"/>
<use x="49.403231" y="521.548" xlink:href="#n"/>
<use x="53.637745" y="521.548" xlink:href="#c"/>
<use x="56.978014" y="521.548" xlink:href="#a"/>
<use x="91.105" y="325.545" xlink:href="#s"/>
<use x="95.80975" y="325.545" xlink:href="#a"/>
<use x="99.573231" y="325.545" xlink:href="#e"/>
<use x="102.87365" y="325.545" xlink:href="#ai"/>
<use x="107.112149" y="325.545" xlink:href="#a"/>
<use x="110.87563" y="325.545" xlink:href="#e"/>
<use x="114.176048" y="325.545" xlink:href="#aa"/>
<use x="116.991088" y="325.545" xlink:href="#ag"/>
<use x="123.107343" y="325.545" xlink:href="#j"/>
<use x="129.223597" y="325.545" xlink:href="#ad"/>
<use x="137.812177" y="325.545" xlink:href="#ad"/>
<use x="143.571371" y="325.545" xlink:href="#e"/>
<use x="146.87179" y="325.545" xlink:href="#n"/>
<use x="151.098334" y="325.545" xlink:href="#u"/>
<use x="154.869785" y="325.545" xlink:href="#a"/>
<use x="158.633266" y="325.545" xlink:href="#c"/>
<use x="161.973535" y="325.545" xlink:href="#c"/>
</g>
<path transform="matrix(1 0 0 -1 91.106 326.94)" d="m-5.3125e-4 -0.0014062h74.207" fill="none" stroke="#000" stroke-miterlimit="10" stroke-width=".398"/>
<g>
<use x="91.465" y="10.116" xlink:href="#j"/>
<use x="97.581255" y="10.116" xlink:href="#ae"/>
<use x="99.933231" y="10.116" xlink:href="#h"/>
<use x="102.285208" y="10.116" xlink:href="#a"/>
<use x="106.048689" y="10.116" xlink:href="#b"/>
<use x="110.522306" y="10.116" xlink:href="#d"/>
<use x="113.815551" y="10.116" xlink:href="#aa"/>
<use x="116.638561" y="10.116" xlink:href="#ag"/>
<use x="122.754816" y="10.116" xlink:href="#j"/>
<use x="128.87107" y="10.116" xlink:href="#ad"/>
<use x="137.45168" y="10.116" xlink:href="#ad"/>
<use x="143.210874" y="10.116" xlink:href="#e"/>
<use x="146.511293" y="10.116" xlink:href="#n"/>
<use x="150.745807" y="10.116" xlink:href="#u"/>
<use x="154.509288" y="10.116" xlink:href="#a"/>
<use x="158.272769" y="10.116" xlink:href="#c"/>
<use x="161.613038" y="10.116" xlink:href="#c"/>
</g>
<path transform="matrix(1 0 0 -1 91.465 11.511)" d="m-1.5625e-4 -7.1875e-4h73.484" fill="none" stroke="#000" stroke-miterlimit="10" stroke-width=".398"/>
<g>
<use x="107.555" y="52.967" xlink:href="#f"/>
<use x="111.789514" y="52.967" xlink:href="#a"/>
<use x="115.552995" y="52.967" xlink:href="#c"/>
<use x="118.893264" y="52.967" xlink:href="#t"/>
<use x="122.417642" y="52.967" xlink:href="#y"/>
<use x="127.122393" y="52.967" xlink:href="#ae"/>
<use x="129.474369" y="52.967" xlink:href="#n"/>
<use x="133.708883" y="52.967" xlink:href="#c"/>
<use x="137.049152" y="52.967" xlink:href="#c"/>
<use x="140.389421" y="52.967" xlink:href="#a"/>
<use x="144.152902" y="52.967" xlink:href="#b"/>
<use x="202.007" y="41.064" xlink:href="#l"/>
<use x="208.349606" y="41.064" xlink:href="#b"/>
<use x="212.815253" y="41.064" xlink:href="#af"/>
<use x="218.700374" y="41.064" xlink:href="#a"/>
<use x="222.463856" y="41.064" xlink:href="#b"/>
<use x="227.168606" y="41.064" xlink:href="#g"/>
<use x="231.873356" y="41.064" xlink:href="#k"/>
<use x="236.578106" y="41.064" xlink:href="#b"/>
<use x="241.282856" y="41.064" xlink:href="#f"/>
<use x="245.51737" y="41.064" xlink:href="#c"/>
<use x="248.857639" y="41.064" xlink:href="#aa"/>
<use x="15.573" y="377.522" xlink:href="#c"/>
<use x="18.913269" y="377.522" xlink:href="#a"/>
<use x="22.67675" y="377.522" xlink:href="#b"/>
<use x="27.3815" y="377.522" xlink:href="#g"/>
<use x="32.08625" y="377.522" xlink:href="#a"/>
<use x="38.671147" y="377.522" xlink:href="#b"/>
<use x="43.375897" y="377.522" xlink:href="#h"/>
<use x="45.727873" y="377.522" xlink:href="#t"/>
<use x="49.260222" y="377.522" xlink:href="#y"/>
<use x="53.725869" y="377.522" xlink:href="#d"/>
<use x="57.019114" y="377.522" xlink:href="#c"/>
<use x="16.78" y="367.206" xlink:href="#a"/>
<use x="20.543481" y="367.206" xlink:href="#q"/>
<use x="27.600208" y="367.206" xlink:href="#o"/>
<use x="32.304958" y="367.206" xlink:href="#p"/>
<use x="34.892849" y="367.206" xlink:href="#i"/>
<use x="39.127363" y="367.206" xlink:href="#b"/>
<use x="43.832113" y="367.206" xlink:href="#f"/>
<use x="48.066628" y="367.206" xlink:href="#a"/>
<use x="54.651524" y="367.206" xlink:href="#l"/>
<use x="60.762997" y="367.206" xlink:href="#j"/>
<use x="66.879252" y="367.206" xlink:href="#r"/>
<use x="202.007" y="60.108" xlink:href="#ac"/>
<use x="207.640267" y="60.108" xlink:href="#a"/>
<use x="211.403748" y="60.108" xlink:href="#e"/>
<use x="214.704166" y="60.108" xlink:href="#x"/>
<use x="219.408916" y="60.108" xlink:href="#h"/>
<use x="221.760893" y="60.108" xlink:href="#b"/>
<use x="226.465643" y="60.108" xlink:href="#g"/>
<use x="231.170393" y="60.108" xlink:href="#k"/>
<use x="235.875143" y="60.108" xlink:href="#b"/>
<use x="240.579893" y="60.108" xlink:href="#f"/>
<use x="202.007" y="73.202" xlink:href="#c"/>
<use x="205.347269" y="73.202" xlink:href="#a"/>
<use x="209.11075" y="73.202" xlink:href="#b"/>
<use x="213.8155" y="73.202" xlink:href="#g"/>
<use x="218.52025" y="73.202" xlink:href="#a"/>
<use x="225.105147" y="73.202" xlink:href="#s"/>
<use x="229.809897" y="73.202" xlink:href="#z"/>
<use x="236.152502" y="73.202" xlink:href="#m"/>
<use x="167.221" y="158.903" xlink:href="#a"/>
<use x="170.984481" y="158.903" xlink:href="#q"/>
<use x="178.041208" y="158.903" xlink:href="#o"/>
<use x="182.745958" y="158.903" xlink:href="#p"/>
<use x="185.333849" y="158.903" xlink:href="#i"/>
<use x="189.568363" y="158.903" xlink:href="#b"/>
<use x="194.273113" y="158.903" xlink:href="#f"/>
<use x="198.507628" y="158.903" xlink:href="#a"/>
<use x="205.092524" y="158.903" xlink:href="#s"/>
<use x="209.797274" y="158.903" xlink:href="#z"/>
<use x="216.13988" y="158.903" xlink:href="#m"/>
<use x="222.482485" y="158.903" xlink:href="#l"/>
<use x="228.593958" y="158.903" xlink:href="#j"/>
<use x="234.710213" y="158.903" xlink:href="#r"/>
<use x="30.603" y="158.639" xlink:href="#a"/>
<use x="34.366481" y="158.639" xlink:href="#q"/>
<use x="41.423208" y="158.639" xlink:href="#o"/>
<use x="46.127958" y="158.639" xlink:href="#p"/>
<use x="48.715849" y="158.639" xlink:href="#i"/>
<use x="52.950363" y="158.639" xlink:href="#b"/>
<use x="57.655113" y="158.639" xlink:href="#f"/>
<use x="61.889628" y="158.639" xlink:href="#a"/>
<use x="68.474524" y="158.639" xlink:href="#w"/>
<use x="73.9986" y="158.639" xlink:href="#v"/>
<use x="77.047961" y="158.639" xlink:href="#m"/>
<use x="30.603" y="168.69" xlink:href="#c"/>
<use x="33.943269" y="168.69" xlink:href="#a"/>
<use x="37.70675" y="168.69" xlink:href="#b"/>
<use x="42.4115" y="168.69" xlink:href="#g"/>
<use x="47.11625" y="168.69" xlink:href="#a"/>
<use x="53.701147" y="168.69" xlink:href="#l"/>
<use x="59.812619" y="168.69" xlink:href="#j"/>
<use x="65.928874" y="168.69" xlink:href="#r"/>
<use x="192.484" y="271.982" xlink:href="#l"/>
<use x="198.826606" y="271.982" xlink:href="#b"/>
<use x="203.300223" y="271.982" xlink:href="#af"/>
<use x="209.177374" y="271.982" xlink:href="#a"/>
<use x="212.940856" y="271.982" xlink:href="#b"/>
<use x="217.645606" y="271.982" xlink:href="#g"/>
<use x="222.350356" y="271.982" xlink:href="#k"/>
<use x="227.055106" y="271.982" xlink:href="#b"/>
<use x="231.759856" y="271.982" xlink:href="#f"/>
<use x="235.99437" y="271.982" xlink:href="#c"/>
<use x="239.334639" y="271.982" xlink:href="#aa"/>
<use x="185.101" y="167.632" xlink:href="#c"/>
<use x="188.441269" y="167.632" xlink:href="#a"/>
<use x="192.20475" y="167.632" xlink:href="#b"/>
<use x="196.9095" y="167.632" xlink:href="#g"/>
<use x="201.61425" y="167.632" xlink:href="#a"/>
<use x="208.199147" y="167.632" xlink:href="#l"/>
<use x="214.310619" y="167.632" xlink:href="#j"/>
<use x="220.426874" y="167.632" xlink:href="#r"/>
<use x="200.816" y="300.549" xlink:href="#c"/>
<use x="204.156269" y="300.549" xlink:href="#a"/>
<use x="207.91975" y="300.549" xlink:href="#b"/>
<use x="212.6245" y="300.549" xlink:href="#g"/>
<use x="217.32925" y="300.549" xlink:href="#a"/>
<use x="223.914147" y="300.549" xlink:href="#w"/>
<use x="229.438223" y="300.549" xlink:href="#v"/>
<use x="232.487583" y="300.549" xlink:href="#m"/>
<use x="192.484" y="280.314" xlink:href="#o"/>
<use x="197.18875" y="280.314" xlink:href="#e"/>
<use x="200.489168" y="280.314" xlink:href="#n"/>
<use x="204.723683" y="280.314" xlink:href="#u"/>
<use x="208.487164" y="280.314" xlink:href="#a"/>
<use x="212.250645" y="280.314" xlink:href="#c"/>
<use x="215.590914" y="280.314" xlink:href="#c"/>
<use x="221.752598" y="280.314" xlink:href="#h"/>
<use x="224.104575" y="280.314" xlink:href="#b"/>
<use x="228.809325" y="280.314" xlink:href="#h"/>
<use x="231.161301" y="280.314" xlink:href="#d"/>
<use x="234.454547" y="280.314" xlink:href="#h"/>
<use x="236.806523" y="280.314" xlink:href="#h"/>
<use x="239.1585" y="280.314" xlink:href="#a"/>
<use x="242.921981" y="280.314" xlink:href="#e"/>
<use x="246.222399" y="280.314" xlink:href="#d"/>
<use x="192.484" y="289.836" xlink:href="#ac"/>
<use x="198.125237" y="289.836" xlink:href="#a"/>
<use x="201.888718" y="289.836" xlink:href="#e"/>
<use x="205.189136" y="289.836" xlink:href="#x"/>
<use x="209.885916" y="289.836" xlink:href="#h"/>
<use x="212.245863" y="289.836" xlink:href="#b"/>
<use x="216.950613" y="289.836" xlink:href="#g"/>
<use x="221.655363" y="289.836" xlink:href="#k"/>
<use x="226.360113" y="289.836" xlink:href="#b"/>
<use x="231.056893" y="289.836" xlink:href="#f"/>
<use x="235.291407" y="289.836" xlink:href="#i"/>
<use x="239.525921" y="289.836" xlink:href="#x"/>
<use x="244.230671" y="289.836" xlink:href="#x"/>
<use x="248.935421" y="289.836" xlink:href="#i"/>
<use x="253.169935" y="289.836" xlink:href="#k"/>
<use x="22.456" y="60.108" xlink:href="#ai"/>
<use x="26.686529" y="60.108" xlink:href="#a"/>
<use x="30.45001" y="60.108" xlink:href="#e"/>
<use x="33.750429" y="60.108" xlink:href="#c"/>
<use x="37.090698" y="60.108" xlink:href="#d"/>
<use x="40.383943" y="60.108" xlink:href="#e"/>
<use x="43.684361" y="60.108" xlink:href="#h"/>
<use x="46.036338" y="60.108" xlink:href="#t"/>
<use x="49.568686" y="60.108" xlink:href="#y"/>
<use x="54.273436" y="60.108" xlink:href="#a"/>
<use x="58.036917" y="60.108" xlink:href="#b"/>
<use x="31.399" y="50.586" xlink:href="#ao"/>
<use x="35.633514" y="50.586" xlink:href="#an"/>
<use x="42.689444" y="50.586" xlink:href="#s"/>
<use x="47.394194" y="50.586" xlink:href="#a"/>
<use x="51.157675" y="50.586" xlink:href="#aj"/>
<use x="55.627307" y="50.586" xlink:href="#am"/>
<use x="144.363" y="467.191" xlink:href="#a"/>
<use x="148.126481" y="467.191" xlink:href="#q"/>
<use x="155.183208" y="467.191" xlink:href="#o"/>
<use x="159.887958" y="467.191" xlink:href="#p"/>
<use x="162.475849" y="467.191" xlink:href="#i"/>
<use x="166.710363" y="467.191" xlink:href="#b"/>
<use x="171.415113" y="467.191" xlink:href="#f"/>
<use x="175.649628" y="467.191" xlink:href="#a"/>
<use x="182.234524" y="467.191" xlink:href="#s"/>
<use x="186.939274" y="467.191" xlink:href="#z"/>
<use x="193.28188" y="467.191" xlink:href="#m"/>
<use x="24.411" y="604.075" xlink:href="#c"/>
<use x="27.751269" y="604.075" xlink:href="#a"/>
<use x="31.51475" y="604.075" xlink:href="#b"/>
<use x="36.2195" y="604.075" xlink:href="#g"/>
<use x="40.92425" y="604.075" xlink:href="#a"/>
<use x="47.509147" y="604.075" xlink:href="#l"/>
<use x="53.620619" y="604.075" xlink:href="#j"/>
<use x="59.736874" y="604.075" xlink:href="#r"/>
<use x="13.523" y="593.363" xlink:href="#a"/>
<use x="17.286481" y="593.363" xlink:href="#q"/>
<use x="24.343208" y="593.363" xlink:href="#o"/>
<use x="29.047958" y="593.363" xlink:href="#p"/>
<use x="31.635849" y="593.363" xlink:href="#i"/>
<use x="35.870363" y="593.363" xlink:href="#b"/>
<use x="40.575113" y="593.363" xlink:href="#f"/>
<use x="44.809628" y="593.363" xlink:href="#a"/>
<use x="51.394524" y="593.363" xlink:href="#w"/>
<use x="56.9186" y="593.363" xlink:href="#v"/>
<use x="59.967961" y="593.363" xlink:href="#m"/>
<use x="54.409" y="485.045" xlink:href="#c"/>
<use x="57.749269" y="485.045" xlink:href="#a"/>
<use x="61.51275" y="485.045" xlink:href="#b"/>
<use x="66.2175" y="485.045" xlink:href="#g"/>
<use x="70.92225" y="485.045" xlink:href="#a"/>
<use x="77.507147" y="485.045" xlink:href="#w"/>
<use x="83.031223" y="485.045" xlink:href="#v"/>
<use x="86.080583" y="485.045" xlink:href="#m"/>
<use x="30.603" y="281.504" xlink:href="#a"/>
<use x="34.366481" y="281.504" xlink:href="#q"/>
<use x="41.423208" y="281.504" xlink:href="#o"/>
<use x="46.127958" y="281.504" xlink:href="#p"/>
<use x="48.715849" y="281.504" xlink:href="#i"/>
<use x="52.950363" y="281.504" xlink:href="#b"/>
<use x="57.655113" y="281.504" xlink:href="#f"/>
<use x="61.889628" y="281.504" xlink:href="#a"/>
<use x="68.474524" y="281.504" xlink:href="#l"/>
<use x="74.585997" y="281.504" xlink:href="#j"/>
<use x="80.702252" y="281.504" xlink:href="#r"/>
<use x="202.006" y="50.586" xlink:href="#o"/>
<use x="206.71075" y="50.586" xlink:href="#e"/>
<use x="210.011168" y="50.586" xlink:href="#n"/>
<use x="214.245683" y="50.586" xlink:href="#u"/>
<use x="218.009164" y="50.586" xlink:href="#a"/>
<use x="221.772645" y="50.586" xlink:href="#c"/>
<use x="225.112914" y="50.586" xlink:href="#c"/>
<use x="228.453183" y="50.586" xlink:href="#c"/>
<use x="234.614867" y="50.586" xlink:href="#h"/>
<use x="236.966844" y="50.586" xlink:href="#b"/>
<use x="241.671594" y="50.586" xlink:href="#h"/>
<use x="244.02357" y="50.586" xlink:href="#d"/>
<use x="247.316816" y="50.586" xlink:href="#h"/>
<use x="249.668792" y="50.586" xlink:href="#h"/>
<use x="252.020769" y="50.586" xlink:href="#a"/>
<use x="255.78425" y="50.586" xlink:href="#e"/>
<use x="259.084668" y="50.586" xlink:href="#d"/>
<use x="30.603" y="290.233" xlink:href="#c"/>
<use x="33.943269" y="290.233" xlink:href="#a"/>
<use x="37.70675" y="290.233" xlink:href="#b"/>
<use x="42.4115" y="290.233" xlink:href="#g"/>
<use x="47.11625" y="290.233" xlink:href="#a"/>
<use x="53.701147" y="290.233" xlink:href="#b"/>
<use x="58.405897" y="290.233" xlink:href="#h"/>
<use x="60.757873" y="290.233" xlink:href="#t"/>
<use x="64.290222" y="290.233" xlink:href="#y"/>
<use x="68.755869" y="290.233" xlink:href="#d"/>
<use x="72.049114" y="290.233" xlink:href="#c"/>
<use x="48.721" y="216.434" xlink:href="#al"/>
<use x="37.196" y="206.119" xlink:href="#ab"/>
<use x="45.18204" y="206.119" xlink:href="#i"/>
<use x="49.416554" y="206.119" xlink:href="#e"/>
<use x="52.716973" y="206.119" xlink:href="#d"/>
<use x="56.010218" y="206.119" xlink:href="#a"/>
<use x="59.773699" y="206.119" xlink:href="#b"/>
<use x="43.38" y="196.993" xlink:href="#w"/>
<use x="48.904076" y="196.993" xlink:href="#v"/>
<use x="51.953437" y="196.993" xlink:href="#m"/>
<use x="121.94" y="264.84" xlink:href="#w"/>
<use x="127.464076" y="264.84" xlink:href="#v"/>
<use x="130.513437" y="264.84" xlink:href="#m"/>
<use x="115.755" y="275.156" xlink:href="#ab"/>
<use x="123.74104" y="275.156" xlink:href="#i"/>
<use x="127.975554" y="275.156" xlink:href="#e"/>
<use x="131.275973" y="275.156" xlink:href="#d"/>
<use x="134.569218" y="275.156" xlink:href="#a"/>
<use x="138.332699" y="275.156" xlink:href="#b"/>
<use x="127.281" y="285.472" xlink:href="#ak"/>
<use x="191.935" y="198.844" xlink:href="#ac"/>
<use x="197.568267" y="198.844" xlink:href="#a"/>
<use x="201.331748" y="198.844" xlink:href="#e"/>
<use x="204.632166" y="198.844" xlink:href="#x"/>
<use x="209.336916" y="198.844" xlink:href="#h"/>
<use x="211.688893" y="198.844" xlink:href="#b"/>
<use x="216.393643" y="198.844" xlink:href="#aa"/>
<use x="196.403" y="209.61" xlink:href="#g"/>
<use x="201.10775" y="209.61" xlink:href="#k"/>
<use x="205.8125" y="209.61" xlink:href="#b"/>
<use x="210.51725" y="209.61" xlink:href="#f"/>
<use x="196.756" y="220.376" xlink:href="#n"/>
<use x="200.990514" y="220.376" xlink:href="#ah"/>
<use x="205.930382" y="220.376" xlink:href="#a"/>
<use x="209.693863" y="220.376" xlink:href="#b"/>
<use x="190.984" y="123.988" xlink:href="#f"/>
<use x="195.218514" y="123.988" xlink:href="#a"/>
<use x="198.981995" y="123.988" xlink:href="#c"/>
<use x="202.322264" y="123.988" xlink:href="#a"/>
<use x="206.085745" y="123.988" xlink:href="#b"/>
<use x="210.790496" y="123.988" xlink:href="#g"/>
<use x="215.495246" y="123.988" xlink:href="#a"/>
<use x="219.258727" y="123.988" xlink:href="#d"/>
<use x="198.072" y="113.672" xlink:href="#s"/>
<use x="202.77675" y="113.672" xlink:href="#z"/>
<use x="209.119356" y="113.672" xlink:href="#m"/>
<use x="120.577" y="594.95" xlink:href="#n"/>
<use x="124.811514" y="594.95" xlink:href="#ah"/>
<use x="129.751382" y="594.95" xlink:href="#a"/>
<use x="133.514863" y="594.95" xlink:href="#b"/>
<use x="107.993" y="584.634" xlink:href="#ac"/>
<use x="113.626267" y="584.634" xlink:href="#a"/>
<use x="117.389748" y="584.634" xlink:href="#e"/>
<use x="120.690166" y="584.634" xlink:href="#x"/>
<use x="125.394916" y="584.634" xlink:href="#h"/>
<use x="127.746893" y="584.634" xlink:href="#b"/>
<use x="132.451643" y="584.634" xlink:href="#g"/>
<use x="137.156393" y="584.634" xlink:href="#k"/>
<use x="141.861143" y="584.634" xlink:href="#b"/>
<use x="146.565893" y="584.634" xlink:href="#f"/>
<use x="45.075" y="115.656" xlink:href="#i"/>
<use x="49.309514" y="115.656" xlink:href="#k"/>
<use x="54.014264" y="115.656" xlink:href="#p"/>
<use x="41.194" y="125.972" xlink:href="#ag"/>
<use x="47.310255" y="125.972" xlink:href="#h"/>
<use x="49.662231" y="125.972" xlink:href="#q"/>
<use x="56.718958" y="125.972" xlink:href="#a"/>
<use x="44.722" y="136.288" xlink:href="#n"/>
<use x="48.956514" y="136.288" xlink:href="#k"/>
<use x="53.661264" y="136.288" xlink:href="#d"/>
</g>
</svg>
