<svg width="313pt" height="313pt" version="1.1" viewBox="0 0 313 313" xmlns="http://www.w3.org/2000/svg" xmlns:xlink="http://www.w3.org/1999/xlink">
<defs>
<g id="p">
<path d="m2.1094-6.0156c-0.0625-0.10938-0.09375-0.10938-0.26562-0.10938h-1.5v0.28125h0.25c0.42188 0 0.65625 0.0625 0.65625 0.0625v4.8281c0 0.25 0 0.67188-0.90625 0.67188v0.28125c0.48438-0.015625 0.60938-0.03125 1.0625-0.03125 0.42188 0 0.5625 0.015625 1.0469 0.03125v-0.28125c-0.92188 0-0.92188-0.42188-0.92188-0.67188v-4.625l3.8125 5.4688c0.078125 0.10938 0.125 0.10938 0.15625 0.10938 0.15625 0 0.15625-0.078125 0.15625-0.23438v-4.9375c0-0.25 0-0.67188 0.90625-0.67188v-0.28125c-0.48438 0.015625-0.60938 0.03125-1.0469 0.03125s-0.5625-0.015625-1.0625-0.03125v0.28125c0.92188 0 0.92188 0.42188 0.92188 0.67188v3.8281z"/>
</g>
<g id="g">
<path d="m3.0625-0.64062c0.046875 0.375 0.3125 0.6875 0.70312 0.6875 0.21875 0 0.78125-0.125 0.78125-0.84375v-0.5h-0.25v0.48438c0 0.10938 0 0.54688-0.32812 0.54688-0.3125 0-0.3125-0.42188-0.3125-0.5625v-1.5781c0-0.51562 0-0.8125-0.40625-1.1875-0.32812-0.29688-0.76562-0.42188-1.2188-0.42188-0.75 0-1.375 0.375-1.375 0.95312 0 0.26562 0.1875 0.42188 0.42188 0.42188s0.40625-0.17188 0.40625-0.40625c0-0.39062-0.39062-0.4375-0.40625-0.4375 0.25-0.23438 0.6875-0.3125 0.9375-0.3125 0.45312 0 0.96875 0.34375 0.96875 1.1406v0.28125c-0.48438 0.03125-1.1562 0.0625-1.75 0.35938-0.65625 0.3125-0.84375 0.78125-0.84375 1.1406 0 0.73438 0.85938 0.96875 1.4688 0.96875 0.73438 0 1.0781-0.48438 1.2031-0.73438zm-0.078125-0.625c0 0.875-0.67188 1.1406-1.0625 1.1406-0.42188 0-0.8125-0.3125-0.8125-0.75 0-0.59375 0.5-1.2188 1.875-1.2812z"/>
</g>
<g id="u">
<path d="m1.6719-2.3281c0-0.96875 0.70312-1.4062 1.2344-1.4062 0.5 0 0.65625 0.34375 0.65625 0.96875v2.0781c0 0.40625-0.09375 0.40625-0.6875 0.40625v0.28125c0.42188-0.015625 0.59375-0.03125 1.0156-0.03125 0.4375 0 0.54688 0.015625 1.0312 0.03125v-0.28125c-0.59375 0-0.70312 0-0.70312-0.40625v-1.6406c0-0.96875 0.70312-1.4062 1.25-1.4062 0.48438 0 0.64062 0.34375 0.64062 0.96875v2.0781c0 0.40625-0.09375 0.40625-0.6875 0.40625v0.28125c0.42188-0.015625 0.59375-0.03125 1.0312-0.03125 0.42188 0 0.54688 0.015625 1.0156 0.03125v-0.28125c-0.45312 0-0.67188 0-0.6875-0.28125v-1.7188c0-0.78125 0-1.0312-0.29688-1.3594-0.1875-0.21875-0.54688-0.32812-0.95312-0.32812-0.65625 0-1.0938 0.375-1.3438 0.85938-0.10938-0.53125-0.46875-0.85938-1.2188-0.85938-0.71875 0-1.1562 0.46875-1.3438 0.89062h-0.015625v-0.89062l-1.2969 0.10938v0.26562c0.60938 0 0.6875 0.0625 0.6875 0.51562v2.3906c0 0.40625-0.09375 0.40625-0.6875 0.40625v0.28125c0.42188-0.015625 0.59375-0.03125 1.0312-0.03125 0.42188 0 0.54688 0.015625 1.0156 0.03125v-0.28125c-0.59375 0-0.6875 0-0.6875-0.40625z"/>
</g>
<g id="a">
<path d="m3.5938-2.0469c0.1875 0 0.23438 0 0.23438-0.20312 0-0.92188-0.5-1.7656-1.6562-1.7656-1.0625 0-1.9062 0.9375-1.9062 2.0469 0 1.1719 0.9375 2.0625 2.0312 2.0625s1.5312-0.95312 1.5312-1.1562c0-0.0625-0.046875-0.125-0.125-0.125-0.09375 0-0.10938 0.0625-0.125 0.10938-0.29688 0.90625-1.1094 0.92188-1.2344 0.92188-0.4375 0-0.79688-0.23438-1-0.54688-0.29688-0.4375-0.3125-0.96875-0.3125-1.3438zm-2.5469-0.21875c0.078125-1.3906 0.875-1.5312 1.125-1.5312 0.5 0 1.0312 0.375 1.0469 1.5312z"/>
</g>
<g id="f">
<path d="m2.5625-1.6562v-0.5625h-2.4688v0.5625z"/>
</g>
<g id="m">
<path d="m2.0312-3.75c-0.71875-0.17188-0.95312-0.75-0.95312-1.1406 0-0.60938 0.48438-1.1875 1.25-1.1875 1.1562 0 1.625 0.875 1.75 1.7656 0.015625 0.17188 0.03125 0.21875 0.14062 0.21875 0.125 0 0.125-0.0625 0.125-0.25v-1.7344c0-0.17188 0-0.25-0.10938-0.25-0.0625 0-0.078125 0.015625-0.14062 0.125-0.10938 0.15625-0.015625 0.046875-0.3125 0.51562-0.15625-0.1875-0.625-0.64062-1.4688-0.64062-1.0469 0-1.7969 0.82812-1.7969 1.7344 0 0.70312 0.42188 1.125 0.46875 1.1719 0.39062 0.40625 0.5625 0.4375 1.625 0.70312 0.73438 0.15625 0.8125 0.1875 1.1094 0.48438 0 0.015625 0.3125 0.34375 0.3125 0.875 0 0.60938-0.4375 1.2812-1.2656 1.2812-0.6875 0-1.9375-0.29688-2-1.7656-0.015625-0.14062-0.015625-0.1875-0.125-0.1875-0.125 0-0.125 0.0625-0.125 0.25v1.7344c0 0.17188 0 0.25 0.10938 0.25 0.0625 0 0.0625-0.015625 0.125-0.125 0.125-0.15625 0.03125-0.046875 0.32812-0.51562 0.54688 0.54688 1.2656 0.64062 1.7031 0.64062 1.0938 0 1.8125-0.90625 1.8125-1.8594 0-0.51562-0.1875-0.90625-0.39062-1.1719-0.39062-0.5-0.79688-0.59375-1.375-0.73438z"/>
</g>
<g id="b">
<path d="m1.5938-2.0469c0-0.375 0.09375-1.6875 1.125-1.6875-0.015625 0.015625-0.15625 0.125-0.15625 0.32812 0 0.25 0.1875 0.40625 0.39062 0.40625 0.1875 0 0.39062-0.14062 0.39062-0.40625 0-0.28125-0.26562-0.5625-0.67188-0.5625-0.53125 0-0.90625 0.375-1.125 0.9375v-0.9375l-1.2812 0.10938v0.26562c0.60938 0 0.6875 0.0625 0.6875 0.51562v2.3906c0 0.40625-0.09375 0.40625-0.6875 0.40625v0.28125c0.48438-0.015625 0.59375-0.03125 1.0469-0.03125 0.35938 0 0.57812 0.015625 1.1406 0.03125v-0.28125h-0.17188c-0.65625 0-0.6875-0.09375-0.6875-0.42188z"/>
</g>
<g id="l">
<path d="m1.6094-3.1875c-0.015625-0.046875-0.046875-0.10938-0.046875-0.17188 0-0.23438 0.32812-0.23438 0.5-0.23438v-0.26562c-0.39062 0.015625-0.59375 0.015625-0.98438 0.015625-0.3125 0-0.57812 0-0.90625-0.015625v0.26562c0.42188 0 0.59375 0 0.73438 0.34375l1.3125 3.1719c0.046875 0.15625 0.125 0.17188 0.20312 0.17188s0.15625-0.015625 0.21875-0.17188l1.2188-2.9375c0.1875-0.45312 0.5-0.5625 0.8125-0.57812v-0.26562c-0.26562 0.015625-0.67188 0.015625-0.6875 0.015625-0.25 0-0.53125 0-0.78125-0.015625v0.26562c0.26562 0.03125 0.40625 0.15625 0.40625 0.39062 0 0.09375 0 0.10938-0.046875 0.20312l-0.92188 2.2656z"/>
</g>
<g id="j">
<path d="m3.6719-6.2344c-0.046875-0.10938-0.078125-0.1875-0.21875-0.1875s-0.15625 0.046875-0.21875 0.20312l-1.9219 5.3281c-0.10938 0.29688-0.3125 0.60938-1 0.60938v0.28125c0.32812-0.03125 0.57812-0.03125 0.90625-0.03125 0.3125 0 0.51562 0.015625 1.0156 0.03125v-0.28125c-0.51562 0-0.67188-0.28125-0.67188-0.45312 0-0.078125 0.03125-0.125 0.046875-0.17188l0.42188-1.1562h2.3125l0.48438 1.3594c0.046875 0.078125 0.046875 0.10938 0.046875 0.15625 0 0.26562-0.5 0.26562-0.73438 0.26562v0.28125c0.40625-0.03125 0.875-0.03125 1.2812-0.03125s0.4375 0 1.1719 0.03125v-0.28125h-0.14062c-0.5625 0-0.65625-0.078125-0.75-0.32812zm0.57812 3.8906h-2.125l1.0625-2.9375z"/>
</g>
<g id="k">
<path d="m2.6875-3.5938v-0.26562h-1.0625v-1.0156c0-0.8125 0.4375-1.2188 0.82812-1.2188 0.078125 0 0.17188 0.015625 0.26562 0.046875-0.09375 0.03125-0.23438 0.14062-0.23438 0.375s0.17188 0.39062 0.39062 0.39062c0.25 0 0.40625-0.17188 0.40625-0.40625 0-0.34375-0.34375-0.64062-0.82812-0.64062-0.70312 0-1.4375 0.53125-1.4375 1.4375v1.0312h-0.70312v0.26562h0.70312v2.9062c0 0.40625-0.09375 0.40625-0.6875 0.40625v0.28125c0.46875-0.015625 0.59375-0.03125 1.0469-0.03125 0.35938 0 0.57812 0.015625 1.1406 0.03125v-0.28125h-0.1875c-0.65625 0-0.67188-0.09375-0.67188-0.42188v-2.8906z"/>
</g>
<g id="v">
<path d="m1.8594-5.5469c0-0.25-0.20312-0.46875-0.45312-0.46875s-0.45312 0.21875-0.45312 0.46875 0.20312 0.45312 0.45312 0.45312 0.45312-0.20312 0.45312-0.45312zm1.7969 0c0-0.25-0.21875-0.46875-0.46875-0.46875s-0.45312 0.21875-0.45312 0.46875 0.20312 0.45312 0.45312 0.45312 0.46875-0.20312 0.46875-0.45312z"/>
</g>
<g id="o">
<path d="m3.5469-1.5c0 0.79688-0.4375 1.375-1.0938 1.375-0.73438 0-0.78125-0.39062-0.78125-0.875v-2.9688l-1.3594 0.10938v0.26562c0.6875 0 0.6875 0.03125 0.6875 0.82812v1.3438c0 0.59375 0 0.96875 0.42188 1.2812 0.25 0.17188 0.625 0.23438 0.98438 0.23438 0.46875 0 0.90625-0.20312 1.1562-0.73438h0.015625v0.73438l1.3281-0.09375v-0.28125c-0.60938 0-0.6875-0.0625-0.6875-0.5v-3.1875l-1.3594 0.10938v0.26562c0.60938 0 0.6875 0.0625 0.6875 0.51562z"/>
</g>
<g id="n">
<path d="m4.8438-3.3281h-2.7812v-2.0938c0-0.32812 0.015625-0.42188 0.70312-0.42188h0.21875v-0.28125c-0.40625 0.03125-0.90625 0.03125-1.3281 0.03125-0.40625 0-0.90625 0-1.3125-0.03125v0.28125h0.20312c0.6875 0 0.70312 0.09375 0.70312 0.42188v4.7188c0 0.32812-0.015625 0.42188-0.70312 0.42188h-0.20312v0.28125c0.40625-0.03125 0.90625-0.03125 1.3125-0.03125 0.42188 0 0.92188 0 1.3281 0.03125v-0.28125h-0.21875c-0.6875 0-0.70312-0.09375-0.70312-0.42188v-2.3438h2.7812v2.3438c0 0.32812-0.015625 0.42188-0.70312 0.42188h-0.21875v0.28125c0.40625-0.03125 0.90625-0.03125 1.3281-0.03125 0.40625 0 0.90625 0 1.3125 0.03125v-0.28125h-0.20312c-0.6875 0-0.70312-0.09375-0.70312-0.42188v-4.7188c0-0.32812 0.015625-0.42188 0.70312-0.42188h0.20312v-0.28125c-0.40625 0.03125-0.90625 0.03125-1.3125 0.03125-0.42188 0-0.92188 0-1.3281-0.03125v0.28125h0.21875c0.6875 0 0.70312 0.09375 0.70312 0.42188z"/>
</g>
<g id="d">
<path d="m4.3438-1.9062c0-1.1719-0.9375-2.1094-2.0312-2.1094-1.1406 0-2.0469 0.95312-2.0469 2.1094 0 1.1094 0.92188 2 2.0312 2 1.1406 0 2.0469-0.90625 2.0469-2zm-2.0312 1.75c-0.45312 0-0.82812-0.21875-1.0312-0.5625-0.23438-0.39062-0.25-0.85938-0.25-1.2656 0-0.34375 0-0.84375 0.21875-1.2188 0.28125-0.45312 0.71875-0.59375 1.0469-0.59375 0.51562 0 0.875 0.29688 1.0625 0.59375 0.20312 0.375 0.20312 0.82812 0.20312 1.2188 0 0.32812 0 0.84375-0.21875 1.2344-0.25 0.42188-0.65625 0.59375-1.0312 0.59375z"/>
</g>
<g id="c">
<path d="m3.0781-3.7812c0-0.15625 0-0.23438-0.09375-0.23438-0.046875 0-0.0625 0-0.1875 0.10938-0.015625 0.015625-0.09375 0.09375-0.15625 0.14062-0.26562-0.20312-0.54688-0.25-0.85938-0.25-1.1875 0-1.4688 0.65625-1.4688 1.1094 0 0.28125 0.125 0.51562 0.32812 0.71875 0.29688 0.28125 0.64062 0.34375 1.0938 0.42188 0.46875 0.09375 0.60938 0.10938 0.8125 0.26562 0.09375 0.078125 0.3125 0.25 0.3125 0.57812 0 0.79688-0.90625 0.79688-1.0312 0.79688-0.90625 0-1.1406-0.76562-1.25-1.25-0.03125-0.09375-0.046875-0.14062-0.14062-0.14062-0.125 0-0.125 0.078125-0.125 0.23438v1.1406c0 0.15625 0 0.23438 0.09375 0.23438 0.0625 0 0.0625 0 0.23438-0.17188 0.03125-0.0625 0.125-0.17188 0.17188-0.21875 0.375 0.375 0.79688 0.39062 1.0156 0.39062 1.1094 0 1.4844-0.64062 1.4844-1.2344 0-0.40625-0.17188-0.65625-0.375-0.85938-0.29688-0.29688-0.625-0.35938-1.2812-0.48438-0.23438-0.046875-0.89062-0.15625-0.89062-0.67188 0-0.28125 0.20312-0.67188 1.0156-0.67188 0.96875 0 1.0312 0.75 1.0469 0.96875 0.015625 0.10938 0.015625 0.17188 0.125 0.17188 0.125 0 0.125-0.0625 0.125-0.23438z"/>
</g>
<g id="e">
<path d="m2.9219-3.5938v-0.26562h-1.3125v-1.6562h-0.25c0 0.75-0.3125 1.6719-1.1875 1.7031v0.21875h0.78125v2.4844c0 1 0.71875 1.2031 1.2031 1.2031 0.59375 0 0.90625-0.5625 0.90625-1.2031v-0.51562h-0.25v0.48438c0 0.67188-0.28125 0.98438-0.59375 0.98438-0.60938 0-0.60938-0.78125-0.60938-0.95312v-2.4844z"/>
</g>
<g id="t">
<path d="m5.5-6.0938h-5.1562v0.26562h0.20312c0.6875 0 0.70312 0.10938 0.70312 0.4375v4.6875c0 0.32812-0.015625 0.42188-0.70312 0.42188h-0.20312v0.28125h5.2656l0.39062-2.3125h-0.25c-0.21875 1.3906-0.45312 2.0312-1.9844 2.0312h-1.2656c-0.42188 0-0.4375-0.0625-0.4375-0.35938v-2.3906h0.82812c0.89062 0 1 0.28125 1 1.0469h0.25v-2.375h-0.25c0 0.76562-0.10938 1.0469-1 1.0469h-0.82812v-2.1406c0-0.3125 0.015625-0.375 0.4375-0.375h1.2031c1.4062 0 1.6562 0.48438 1.7969 1.75h0.25z"/>
</g>
<g id="an">
<path d="m1.5469-4.0781c-0.26562-0.17188-0.48438-0.40625-0.48438-0.73438 0-0.59375 0.625-0.9375 1.2188-0.9375 0.70312 0 1.25 0.48438 1.25 1.1094s-0.53125 1.0469-0.89062 1.25zm1.3125 0.82812c0.45312-0.21875 1.1094-0.65625 1.1094-1.3906 0-0.84375-0.84375-1.3281-1.6562-1.3281-0.9375 0-1.6719 0.67188-1.6719 1.5 0 0.32812 0.125 0.65625 0.34375 0.92188 0.14062 0.17188 0.20312 0.20312 0.71875 0.53125-0.78125 0.375-1.3125 0.92188-1.3125 1.6562 0 0.95312 0.9375 1.5625 1.9062 1.5625 1.0469 0 1.9219-0.73438 1.9219-1.7031 0-0.875-0.67188-1.3125-0.89062-1.4531-0.09375-0.0625-0.35938-0.23438-0.46875-0.29688zm-0.90625 0.39062 1.125 0.70312c0.20312 0.125 0.65625 0.42188 0.65625 0.96875 0 0.70312-0.71875 1.1406-1.4219 1.1406-0.78125 0-1.4375-0.5625-1.4375-1.3125 0-0.64062 0.4375-1.1719 1.0781-1.5z"/>
</g>
<g id="h">
<path d="m1.7656-3.375c0-0.28125-0.21875-0.48438-0.48438-0.48438-0.28125 0-0.48438 0.20312-0.48438 0.48438 0 0.25 0.20312 0.48438 0.48438 0.48438 0.26562 0 0.48438-0.23438 0.48438-0.48438zm0 2.8906c0-0.26562-0.21875-0.48438-0.48438-0.48438-0.28125 0-0.48438 0.21875-0.48438 0.48438s0.20312 0.48438 0.48438 0.48438c0.26562 0 0.48438-0.21875 0.48438-0.48438z"/>
</g>
<g id="s">
<path d="m2.0625-5.4219c0-0.3125 0.015625-0.42188 0.73438-0.42188h0.21875v-0.28125c-0.35938 0.03125-0.96875 0.03125-1.3594 0.03125-0.375 0-1 0-1.3594-0.03125v0.28125h0.21875c0.71875 0 0.73438 0.10938 0.73438 0.42188v4.7188c0 0.3125-0.015625 0.42188-0.73438 0.42188h-0.21875v0.28125c0.35938-0.03125 0.98438-0.03125 1.3594-0.03125 0.39062 0 1 0 1.3594 0.03125v-0.28125h-0.21875c-0.71875 0-0.73438-0.10938-0.73438-0.42188z"/>
</g>
<g id="r">
<path d="m3.5781-2.8125c1.25 0 2.1719-0.78125 2.1719-1.6406 0-0.89062-0.92188-1.6719-2.1719-1.6719h-3.2188v0.28125h0.20312c0.6875 0 0.71875 0.09375 0.71875 0.42188v4.7188c0 0.32812-0.03125 0.42188-0.71875 0.42188h-0.20312v0.28125c0.40625-0.03125 0.90625-0.03125 1.3125-0.03125 0.42188 0 0.92188 0 1.3281 0.03125v-0.28125h-0.20312c-0.70312 0-0.71875-0.09375-0.71875-0.42188v-2.1094zm-1.5312-2.6719c0-0.29688 0.03125-0.35938 0.45312-0.35938h0.85938c1.4688 0 1.4688 0.98438 1.4688 1.3906s0 1.3906-1.4844 1.3906h-1.2969z"/>
</g>
<g id="i">
<path d="m3.4844-1.0781c0 0.15625 0 0.1875-0.125 0.375-0.28125 0.40625-0.70312 0.57812-1.0469 0.57812-0.39062 0-0.75-0.21875-0.98438-0.59375-0.23438-0.39062-0.25-0.90625-0.25-1.2031 0-0.42188 0.046875-0.89062 0.28125-1.25 0.20312-0.29688 0.5625-0.5625 1.0469-0.5625 0.375 0 0.73438 0.1875 0.96875 0.53125 0.10938 0.14062 0.10938 0.14062 0.10938 0.3125zm0.03125-2.3594c-0.046875-0.046875-0.45312-0.53125-1.1406-0.53125-1.1094 0-2.0625 0.89062-2.0625 2.0469 0 1.1094 0.89062 2.0156 1.9531 2.0156 0.65625 0 1.0625-0.375 1.2188-0.5625v0.5625l1.3594-0.09375v-0.28125c-0.60938 0-0.6875-0.0625-0.6875-0.5v-5.4375l-1.3281 0.09375v0.28125c0.60938 0 0.6875 0.0625 0.6875 0.5z"/>
</g>
<g id="am">
<path d="m2.7188-5.7344c0-0.21875 0-0.23438-0.21875-0.23438-0.5625 0.5625-1.3906 0.5625-1.6719 0.5625v0.28125c0.17188 0 0.71875 0 1.2031-0.23438v4.6406c0 0.32812-0.015625 0.4375-0.85938 0.4375h-0.28125v0.28125c0.3125-0.03125 1.125-0.03125 1.4844-0.03125 0.375 0 1.1719 0 1.5 0.03125v-0.28125h-0.28125c-0.84375 0-0.875-0.10938-0.875-0.4375z"/>
</g>
<g id="w">
<path d="m1.6719-2.3281c0-0.95312 0.67188-1.4062 1.2344-1.4062 0.53125 0 0.64062 0.4375 0.64062 0.96875v2.0781c0 0.40625-0.09375 0.40625-0.6875 0.40625v0.28125c0.42188-0.015625 0.59375-0.03125 1.0312-0.03125 0.42188 0 0.54688 0.015625 1.0156 0.03125v-0.28125c-0.45312 0-0.6875 0-0.6875-0.28125v-1.7188c0-0.73438 0-1-0.25-1.3125-0.20312-0.25-0.54688-0.375-1-0.375-0.82812 0-1.2188 0.625-1.3438 0.875h-0.015625v-0.875l-1.2969 0.10938v0.26562c0.60938 0 0.6875 0.0625 0.6875 0.51562v2.3906c0 0.40625-0.09375 0.40625-0.6875 0.40625v0.28125c0.42188-0.015625 0.59375-0.03125 1.0312-0.03125 0.42188 0 0.54688 0.015625 1.0156 0.03125v-0.28125c-0.59375 0-0.6875 0-0.6875-0.40625z"/>
</g>
<g id="x">
<path d="m0.5625-5.8438c0.6875 0 0.71875 0.09375 0.71875 0.42188v4.7188c0 0.32812-0.03125 0.42188-0.71875 0.42188h-0.20312v0.28125h3.3281c1.5625 0 2.8281-1.3281 2.8281-3.0156 0-1.7031-1.2344-3.1094-2.8281-3.1094h-3.3281v0.28125zm1.9375 5.5625c-0.42188 0-0.45312-0.0625-0.45312-0.35938v-4.8438c0-0.29688 0.03125-0.35938 0.45312-0.35938h0.95312c0.875 0 1.4062 0.45312 1.6562 0.78125 0.39062 0.51562 0.51562 1.1562 0.51562 2.0469 0 0.375 0 1.3125-0.48438 1.9375-0.46875 0.60938-1.1094 0.79688-1.6719 0.79688z"/>
</g>
<g id="al">
<path d="m0.26562-1.7656v0.28125h2.4375v0.78125c0 0.32812-0.015625 0.42188-0.6875 0.42188h-0.20312v0.28125c0.5625-0.03125 1.1875-0.03125 1.25-0.03125 0.046875 0 0.70312 0 1.2656 0.03125v-0.28125h-0.20312c-0.67188 0-0.70312-0.09375-0.70312-0.42188v-0.78125h0.92188v-0.28125h-0.92188v-4.0625c0-0.1875 0-0.25-0.17188-0.25-0.10938 0-0.10938 0.015625-0.1875 0.14062zm0.28125 0 2.2188-3.3125v3.3125z"/>
</g>
<g id="ak">
<path d="m0.9375-3.0938c0 0.15625 0 0.26562 0.125 0.26562 0.0625 0 0.09375-0.046875 0.14062-0.125 0.28125-0.375 0.70312-0.59375 1.1719-0.59375 0.96875 0 0.96875 1.3906 0.96875 1.7031 0 0.28125 0 0.84375-0.26562 1.25-0.23438 0.375-0.60938 0.54688-0.96875 0.54688-0.51562 0-1.125-0.34375-1.3438-1 0.015625 0 0.0625 0.015625 0.125 0.015625 0.1875 0 0.45312-0.10938 0.45312-0.4375 0-0.28125-0.20312-0.4375-0.45312-0.4375-0.1875 0-0.4375 0.10938-0.4375 0.46875 0 0.8125 0.6875 1.6406 1.6875 1.6406 1.0781 0 2-0.89062 2-2 0-1.0781-0.76562-1.9688-1.75-1.9688-0.42188 0-0.85938 0.14062-1.1875 0.46875v-1.7656c0.28125 0.078125 0.5625 0.125 0.82812 0.125 1.1094 0 1.75-0.79688 1.75-0.92188 0-0.078125-0.046875-0.10938-0.09375-0.10938-0.015625 0-0.03125 0-0.125 0.046875-0.42188 0.15625-0.82812 0.23438-1.2031 0.23438-0.39062 0-0.79688-0.078125-1.2031-0.23438-0.09375-0.046875-0.10938-0.046875-0.10938-0.046875-0.10938 0-0.10938 0.078125-0.10938 0.23438z"/>
</g>
<g id="ab">
<path d="m2.0469-3.1719v-2.3125c0-0.23438 0.03125-0.3125 0.20312-0.34375 0.078125-0.015625 0.35938-0.015625 0.54688-0.015625 0.76562 0 1.9062 0 1.9062 1.3281 0 0.78125-0.39062 1.3438-1.6094 1.3438zm2.0312 0.125c0.84375-0.23438 1.5469-0.76562 1.5469-1.4688 0-0.89062-1.0938-1.6094-2.4062-1.6094h-2.8594v0.28125h0.20312c0.6875 0 0.71875 0.09375 0.71875 0.42188v4.7188c0 0.32812-0.03125 0.42188-0.71875 0.42188h-0.20312v0.28125c0.42188-0.03125 0.875-0.03125 1.2969-0.03125 0.4375 0 0.875 0 1.3125 0.03125v-0.28125h-0.20312c-0.6875 0-0.71875-0.09375-0.71875-0.42188v-2.25h1.0781c0.65625 0 0.9375 0.34375 0.96875 0.375 0.28125 0.32812 0.28125 0.46875 0.28125 1.1094 0 0.59375 0 1 0.42188 1.3281 0.42188 0.34375 0.96875 0.34375 1.0625 0.34375 0.75 0 0.89062-0.78125 0.89062-1 0-0.0625 0-0.15625-0.125-0.15625s-0.125 0.078125-0.125 0.14062c-0.046875 0.57812-0.32812 0.78125-0.60938 0.78125s-0.39062-0.17188-0.45312-0.32812c-0.078125-0.20312-0.15625-0.8125-0.21875-1.2031-0.078125-0.5625-0.15625-1.1562-1.1406-1.4844z"/>
</g>
<g id="z">
<path d="m6.1406-6.0781h-5.625l-0.1875 2.0312h0.25c0.125-1.4844 0.3125-1.75 1.6562-1.75 0.17188 0 0.42188 0 0.51562 0.015625 0.17188 0.046875 0.17188 0.125 0.17188 0.35938v4.7031c0 0.3125 0 0.4375-0.9375 0.4375h-0.35938v0.28125c0.32812-0.03125 1.3125-0.03125 1.7031-0.03125s1.375 0 1.6875 0.03125v-0.28125h-0.34375c-0.9375 0-0.9375-0.125-0.9375-0.4375v-4.7031c0-0.23438 0-0.3125 0.1875-0.35938 0.09375-0.015625 0.32812-0.015625 0.48438-0.015625 1.3594 0 1.5312 0.26562 1.6562 1.75h0.25z"/>
</g>
<g id="aj">
<path d="m1.625-3.0156c0.29688-0.51562 0.79688-0.70312 1.1719-0.70312 0.70312 0 1.2344 0.8125 1.2344 1.7812 0 1.0156-0.60938 1.8125-1.3281 1.8125-0.40625 0-0.75-0.23438-0.96875-0.54688-0.10938-0.1875-0.10938-0.20312-0.10938-0.375zm0 2.5781c0.23438 0.23438 0.53125 0.53125 1.125 0.53125 1.0781 0 2.0625-0.85938 2.0625-2.0312 0-1.125-0.89062-2.0312-1.9375-2.0312-0.48438 0-0.9375 0.20312-1.2812 0.5625v-0.5625l-1.3281 0.10938v0.26562c0.64062 0 0.6875 0.0625 0.6875 0.45312v4.1875c0 0.42188-0.09375 0.42188-0.6875 0.42188v0.26562c0.42188-0.015625 0.59375-0.015625 1.0312-0.015625 0.42188 0 0.54688 0 1.0156 0.015625v-0.26562c-0.59375 0-0.6875 0-0.6875-0.42188z"/>
</g>
<g id="aa">
<path d="m5.3594-2.3125h-0.25c-0.09375 0.90625-0.21875 2.0312-1.8281 2.0312h-0.78125c-0.42188 0-0.4375-0.0625-0.4375-0.35938v-4.7656c0-0.32812 0.03125-0.4375 0.85938-0.4375h0.28125v-0.28125c-0.3125 0.03125-1.125 0.03125-1.4844 0.03125-0.42188 0-0.96875 0-1.375-0.03125v0.28125h0.20312c0.6875 0 0.70312 0.09375 0.70312 0.42188v4.7188c0 0.32812-0.015625 0.42188-0.70312 0.42188h-0.20312v0.28125h4.7656z"/>
</g>
<g id="y">
<path d="m1.6562-6.2188-1.3281 0.09375v0.28125c0.60938 0 0.6875 0.0625 0.6875 0.5v4.6562c0 0.40625-0.09375 0.40625-0.6875 0.40625v0.28125c0.42188-0.015625 0.59375-0.03125 1-0.03125 0.42188 0 0.57812 0.015625 1.0156 0.03125v-0.28125c-0.59375 0-0.6875 0-0.6875-0.40625z"/>
</g>
<g id="ai">
<path d="m1.2031-2.9688c0-0.92188 0.09375-1.4219 0.34375-1.8906 0.17188-0.375 0.60938-0.89062 1.2812-0.89062 0.17188 0 0.59375 0.03125 0.79688 0.35938-0.32812 0-0.48438 0.17188-0.48438 0.40625s0.17188 0.42188 0.42188 0.42188 0.42188-0.17188 0.42188-0.4375c0-0.5-0.35938-0.96875-1.1719-0.96875-1.1562 0-2.4219 1.1406-2.4219 3.1406 0 2.4219 1.0938 3.0312 1.9375 3.0312 0.98438 0 1.8906-0.84375 1.8906-2.0312 0-1.125-0.82812-2-1.8438-2-0.53125 0-0.92188 0.32812-1.1719 0.85938zm1.1094 2.9219c-0.51562 0-0.8125-0.42188-0.90625-0.6875-0.17188-0.40625-0.1875-1.1562-0.1875-1.2969 0-0.59375 0.28125-1.5625 1.1406-1.5625 0.14062 0 0.57812 0 0.875 0.54688 0.17188 0.34375 0.17188 0.78125 0.17188 1.2188 0 0.42188 0 0.875-0.17188 1.2031-0.28125 0.51562-0.67188 0.57812-0.92188 0.57812z"/>
</g>
<g id="q">
<path d="m1.6562-3.9688-1.2969 0.10938v0.26562c0.57812 0 0.65625 0.0625 0.65625 0.5v2.4062c0 0.40625-0.09375 0.40625-0.6875 0.40625v0.28125c0.39062-0.015625 0.59375-0.03125 0.98438-0.03125 0.14062 0 0.51562 0 0.95312 0.03125v-0.28125c-0.57812 0-0.60938-0.046875-0.60938-0.39062zm0.015625-1.5625c0-0.26562-0.20312-0.48438-0.48438-0.48438-0.26562 0-0.48438 0.23438-0.48438 0.48438 0 0.26562 0.21875 0.48438 0.48438 0.48438 0.28125 0 0.48438-0.20312 0.48438-0.48438z"/>
</g>
<g id="ah">
<path d="m4.3906-5.4688c0.078125-0.09375 0.078125-0.125 0.078125-0.3125h-2.2188c-1.1406 0-1.1719-0.10938-1.1875-0.28125h-0.25l-0.29688 1.875h0.25c0.03125-0.20312 0.10938-0.70312 0.21875-0.8125 0.0625-0.0625 0.78125-0.0625 0.90625-0.0625h1.875l-0.85938 1.1719c-1.1719 1.6094-1.2812 3.0781-1.2812 3.5781 0 0.10938 0 0.51562 0.42188 0.51562s0.42188-0.40625 0.42188-0.51562v-0.4375c0-1.3281 0.1875-2.3594 0.67188-3.0156z"/>
</g>
<g id="ag">
<path d="m1.5938-1.9531v-4.2656l-1.3281 0.09375v0.28125c0.60938 0 0.6875 0.0625 0.6875 0.5v4.6562c0 0.40625-0.09375 0.40625-0.6875 0.40625v0.28125c0.39062-0.015625 0.625-0.03125 1-0.03125 0.35938 0 0.59375 0.015625 1 0.03125v-0.28125c-0.59375 0-0.70312 0-0.70312-0.40625v-0.90625l0.57812-0.48438 0.875 1.1719c0.14062 0.20312 0.21875 0.3125 0.21875 0.4375 0 0.078125-0.03125 0.1875-0.3125 0.1875v0.28125c0.40625-0.015625 0.625-0.03125 0.96875-0.03125 0.26562 0 0.54688 0 0.8125 0.03125v-0.28125c-0.29688 0-0.51562 0-0.84375-0.4375l-1.2656-1.7344c0.875-0.75 1.2969-1.1094 1.9062-1.1406v-0.26562c-0.32812 0.015625-0.34375 0.015625-0.67188 0.015625-0.26562 0-0.5 0-0.98438-0.015625v0.26562c0.14062 0.015625 0.23438 0.078125 0.23438 0.21875 0 0.17188-0.14062 0.29688-0.21875 0.35938z"/>
</g>
<g id="af">
<path d="m4.1406-1.5938h-0.25c-0.015625 0.125-0.09375 0.65625-0.20312 0.79688-0.0625 0.078125-0.67188 0.078125-0.85938 0.078125h-1.5938l0.89062-0.84375c1.4688-1.2656 2.0156-1.75 2.0156-2.6562 0-1.0312-0.84375-1.75-1.9531-1.75-1.0312 0-1.7344 0.8125-1.7344 1.625 0 0.45312 0.39062 0.5 0.46875 0.5 0.20312 0 0.46875-0.14062 0.46875-0.46875 0-0.26562-0.1875-0.46875-0.46875-0.46875-0.046875 0-0.0625 0-0.10938 0.015625 0.21875-0.64062 0.79688-0.92188 1.2812-0.92188 0.90625 0 1.2188 0.84375 1.2188 1.4688 0 0.90625-0.6875 1.6562-1.1094 2.125l-1.6406 1.7656c-0.10938 0.10938-0.10938 0.125-0.10938 0.32812h3.4375z"/>
</g>
<g id="ae">
<path d="m2.7344-3.1562c0.82812-0.3125 1.2344-0.96875 1.2344-1.5938 0-0.6875-0.76562-1.2188-1.7031-1.2188-0.92188 0-1.625 0.53125-1.625 1.2031 0 0.29688 0.1875 0.46875 0.45312 0.46875s0.45312-0.1875 0.45312-0.45312c0-0.3125-0.21875-0.4375-0.53125-0.4375 0.23438-0.375 0.78125-0.5625 1.2344-0.5625 0.73438 0 0.875 0.59375 0.875 1.0156 0 0.26562-0.046875 0.70312-0.26562 1.0469-0.28125 0.39062-0.59375 0.40625-0.85938 0.4375-0.21875 0.015625-0.23438 0.015625-0.3125 0.015625s-0.15625 0.015625-0.15625 0.10938c0 0.125 0.078125 0.125 0.23438 0.125h0.40625c0.78125 0 1.125 0.625 1.125 1.4688 0 1.1562-0.60938 1.4844-1.0625 1.4844-0.17188 0-1.0469-0.046875-1.4375-0.71875 0.3125 0.046875 0.5625-0.17188 0.5625-0.48438 0-0.29688-0.21875-0.48438-0.48438-0.48438-0.21875 0-0.48438 0.14062-0.48438 0.51562 0 0.79688 0.82812 1.4219 1.875 1.4219 1.1094 0 1.9531-0.8125 1.9531-1.7344 0-0.78125-0.625-1.4375-1.4844-1.625z"/>
</g>
<g id="ad">
<path d="m1.125-1.6094c0.21875 0.14062 0.5 0.28125 0.90625 0.28125 0.85938 0 1.5-0.60938 1.5-1.3125 0-0.4375-0.25-0.75-0.35938-0.875 0.35938-0.32812 0.78125-0.32812 0.875-0.32812-0.03125 0.03125-0.10938 0.078125-0.10938 0.23438 0 0.10938 0.0625 0.26562 0.26562 0.26562 0.125 0 0.26562-0.078125 0.26562-0.26562 0-0.17188-0.125-0.45312-0.48438-0.45312-0.25 0-0.65625 0.09375-0.96875 0.42188-0.25-0.20312-0.59375-0.32812-0.96875-0.32812-0.85938 0-1.5 0.60938-1.5 1.3281 0 0.45312 0.26562 0.78125 0.40625 0.90625-0.015625 0.015625-0.26562 0.32812-0.26562 0.75 0 0.29688 0.14062 0.625 0.39062 0.78125-0.45312 0.15625-0.8125 0.48438-0.8125 0.90625 0 0.64062 0.875 1.1406 2.0312 1.1406 1.1094 0 2.0469-0.46875 2.0469-1.1562 0-0.375-0.17188-0.76562-0.5-0.98438-0.5-0.3125-1.0312-0.3125-1.875-0.3125-0.1875 0-0.46875 0-0.54688-0.015625-0.25-0.0625-0.42188-0.29688-0.42188-0.57812 0-0.15625 0.046875-0.28125 0.125-0.40625zm0.90625 0.046875c-0.79688 0-0.79688-0.89062-0.79688-1.0781 0-0.25 0.015625-0.54688 0.17188-0.76562 0.14062-0.1875 0.375-0.3125 0.625-0.3125 0.8125 0 0.8125 0.85938 0.8125 1.0781 0 0.20312 0 1.0781-0.8125 1.0781zm0.42188 1.5156c0.28125 0 1.3906 0.015625 1.3906 0.73438 0 0.51562-0.70312 0.92188-1.5312 0.92188-0.89062 0-1.5469-0.42188-1.5469-0.92188 0-0.14062 0.09375-0.73438 0.85938-0.73438z"/>
</g>
<g id="ac">
<path d="m1.625-2.8594c0-0.17188 0-0.1875 0.09375-0.32812 0.3125-0.40625 0.75-0.54688 1.0938-0.54688 0.375 0 0.73438 0.20312 0.96875 0.59375 0.23438 0.375 0.25 0.90625 0.25 1.1875 0 0.42188-0.046875 0.90625-0.28125 1.2656-0.20312 0.28125-0.5625 0.5625-1.0469 0.5625-0.39062 0-0.73438-0.21875-0.95312-0.54688-0.125-0.1875-0.125-0.20312-0.125-0.375zm-0.078125 2.3125c0.28125 0.39062 0.71875 0.64062 1.2031 0.64062 1.0781 0 2.0625-0.85938 2.0625-2.0312 0-1.125-0.89062-2.0312-1.9688-2.0312-0.60938 0-1.0312 0.3125-1.25 0.5625v-2.8125l-1.3281 0.09375v0.28125c0.60938 0 0.6875 0.0625 0.6875 0.5v5.3438h0.25z"/>
</g>
<clipPath id="bf">
<path d="m161 32h78v79h-78z"/>
</clipPath>
<clipPath id="be">
<path d="m6.5273 312.86h303v-313h-303zm228.78-277.07 0.3125 0.31641-2.5508 4.9141-0.66016-2.0156-2.0156-0.66406z" clip-rule="evenodd"/>
</clipPath>
<clipPath id="av">
<path d="m189 32h71v79h-71z"/>
</clipPath>
<clipPath id="au">
<path d="m6.5273 312.86h303v-313h-303zm186.28-205.56-0.34375-0.28516 2.2969-5.0391 0.75781 1.9531 2.0469 0.56641z" clip-rule="evenodd"/>
</clipPath>
<clipPath id="at">
<path d="m22 276h101v36.863h-101z"/>
</clipPath>
<clipPath id="as">
<path d="m33 139h86v142h-86z"/>
</clipPath>
<clipPath id="ar">
<path d="m6.5273 312.86h303v-313h-303zm108.23-170.72 0.34375 0.22266-1.1641 5.3867-1.1641-1.7656-2.1133-0.125z" clip-rule="evenodd"/>
</clipPath>
<clipPath id="aq">
<path d="m47 32h65v93h-65z"/>
</clipPath>
<clipPath id="ap">
<path d="m6.5273 312.86h303v-313h-303zm44.219-276.81 0.34375-0.22266 4.3164 3.4336-2.1094 0.28516-1.0391 1.8281z" clip-rule="evenodd"/>
</clipPath>
<clipPath id="ao">
<path d="m76 32h57v79h-57z"/>
</clipPath>
<clipPath id="bd">
<path d="m6.5273 312.86h303v-313h-303zm122.75-205.81-0.34375 0.22266-4.3789-3.3398 2.0781-0.31641 1.0078-1.8594z" clip-rule="evenodd"/>
</clipPath>
<clipPath id="bc">
<path d="m168 139h85v64h-85z"/>
</clipPath>
<clipPath id="bb">
<path d="m6.5273 312.86h303v-313h-303zm164.7-170.41 0.25391-0.31641 5.2305 1.7344-1.8906 0.97656-0.34766 2.0781z" clip-rule="evenodd"/>
</clipPath>
<clipPath id="ba">
<path d="m61 139h86v142h-86z"/>
</clipPath>
<clipPath id="az">
<path d="m6.5273 312.86h303v-313h-303zm58.738-35.492-0.34766-0.21875 1.168-5.3867 1.1641 1.7617 2.1094 0.12891z" clip-rule="evenodd"/>
</clipPath>
<clipPath id="ay">
<path d="m196 139h86v64h-86z"/>
</clipPath>
<clipPath id="ax">
<path d="m6.5273 312.86h303v-313h-303zm271.59-113.77-0.25391 0.31641-5.2305-1.7344 1.8906-0.97656 0.34766-2.0781z" clip-rule="evenodd"/>
</clipPath>
<clipPath id="aw">
<path d="m199 276h101v36.863h-101z"/>
</clipPath>
</defs>
<g clip-path="url(#bf)">
<g clip-path="url(#be)">
<path transform="matrix(.1 0 0 -.1 6.528 312.86)" d="m2287.8 2767.5-708.75-708.75" fill="none" stroke="#000" stroke-miterlimit="10" stroke-width="2.3625"/>
</g>
</g>
<path d="m233.07 41.027 2.0156-4.6953-4.6914 2.0156 2.0156 0.66406 0.66016 2.0156" fill-rule="evenodd"/>
<path transform="matrix(.1 0 0 -.1 6.528 312.86)" d="m2265.4 2718.4 20.156 46.953-46.914-20.156 20.156-6.6406z" fill="none" stroke="#000" stroke-miterlimit="10" stroke-width="2.3625"/>
<g clip-path="url(#av)">
<g clip-path="url(#au)">
<path transform="matrix(.1 0 0 -.1 6.528 312.86)" d="m2500.4 2767.5-637.89-708.75" fill="none" stroke="#000" stroke-miterlimit="10" stroke-width="2.3625"/>
</g>
</g>
<path d="m194.76 101.98-1.7656 4.7539 4.5703-2.2344-2.0469-0.56641-0.75781-1.9531" fill-rule="evenodd"/>
<path transform="matrix(.1 0 0 -.1 6.528 312.86)" d="m1882.3 2108.8-17.656-47.539 45.703 22.344-20.469 5.6641z" fill="none" stroke="#000" stroke-miterlimit="10" stroke-width="2.3625"/>
<g clip-path="url(#at)">
<path transform="matrix(.1 0 0 -.1 6.528 312.86)" d="m161.52 3.3566h992.23v354.38h-992.23z" fill="none" stroke="#000" stroke-miterlimit="10" stroke-width="2.3625"/>
</g>
<path transform="matrix(.1 0 0 -.1 6.528 312.86)" d="m161.52 2767.5h992.23v354.38h-992.23z" fill="none" stroke="#000" stroke-miterlimit="10" stroke-width="2.3625"/>
<path transform="matrix(.1 0 0 -.1 6.528 312.86)" d="m1933.4 2767.5h992.23v354.38h-992.23z" fill="none" stroke="#000" stroke-miterlimit="10" stroke-width="2.3625"/>
<g clip-path="url(#as)">
<g clip-path="url(#ar)">
<path transform="matrix(.1 0 0 -.1 6.528 312.86)" d="m303.24 357.73 779.65 1346.6" fill="none" stroke="#000" stroke-miterlimit="10" stroke-width="2.3625"/>
</g>
</g>
<path d="m113.93 147.75 0.72266-5.0391-4 3.1484 2.1133 0.125 1.1641 1.7656" fill-rule="evenodd"/>
<path transform="matrix(.1 0 0 -.1 6.528 312.86)" d="m1074.1 1651.1 7.2266 50.391-40-31.484 21.133-1.25z" fill="none" stroke="#000" stroke-miterlimit="10" stroke-width="2.3625"/>
<g clip-path="url(#aq)">
<g clip-path="url(#ap)">
<path transform="matrix(.1 0 0 -.1 6.528 312.86)" d="m444.99 2767.5 566.99-850.51" fill="none" stroke="#000" stroke-miterlimit="10" stroke-width="2.3625"/>
</g>
</g>
<path d="m55.406 39.262-4.1875-2.8633 1.0391 4.9766 1.0391-1.8281 2.1094-0.28516" fill-rule="evenodd"/>
<path transform="matrix(.1 0 0 -.1 6.528 312.86)" d="m488.78 2736-41.875 28.633 10.391-49.766 10.391 18.281z" fill="none" stroke="#000" stroke-miterlimit="10" stroke-width="2.3625"/>
<g clip-path="url(#ao)">
<g clip-path="url(#bd)">
<path transform="matrix(.1 0 0 -.1 6.528 312.86)" d="m728.51 2767.5 496.13-708.75" fill="none" stroke="#000" stroke-miterlimit="10" stroke-width="2.3625"/>
</g>
</g>
<path d="m124.55 103.93 4.25 2.7695-1.1641-4.9453-1.0078 1.8594-2.0781 0.31641" fill-rule="evenodd"/>
<path transform="matrix(.1 0 0 -.1 6.528 312.86)" d="m1180.2 2089.3 42.5-27.695-11.641 49.453-10.078-18.594z" fill="none" stroke="#000" stroke-miterlimit="10" stroke-width="2.3625"/>
<g clip-path="url(#bc)">
<g clip-path="url(#bb)">
<path transform="matrix(.1 0 0 -.1 6.528 312.86)" d="m1649.9 1704.4 779.61-566.99" fill="none" stroke="#000" stroke-miterlimit="10" stroke-width="2.3625"/>
</g>
</g>
<path d="m176.71 143.88-4.9492-1.2617 2.7109 4.3164 0.34766-2.0781 1.8906-0.97656" fill-rule="evenodd"/>
<path transform="matrix(.1 0 0 -.1 6.528 312.86)" d="m1701.9 1689.9-49.492 12.617 27.109-43.164 3.4766 20.781z" fill="none" stroke="#000" stroke-miterlimit="10" stroke-width="2.3625"/>
<path transform="matrix(.1 0 0 -.1 6.528 312.86)" d="m2642.1 783 212.62-425.27" fill="none" stroke="#000" stroke-dasharray="18.9" stroke-miterlimit="10" stroke-width="2.3625"/>
<g clip-path="url(#ba)">
<g clip-path="url(#az)">
<path transform="matrix(.1 0 0 -.1 6.528 312.86)" d="m1366.4 1704.4-779.61-1346.6" fill="none" stroke="#000" stroke-miterlimit="10" stroke-width="2.3625"/>
</g>
</g>
<path d="m66.086 271.77-0.72656 5.0391 4-3.1484-2.1094-0.12891-1.1641-1.7617" fill-rule="evenodd"/>
<path transform="matrix(.1 0 0 -.1 6.528 312.86)" d="m595.58 410.97-7.2656-50.391 40 31.484-21.094 1.2891z" fill="none" stroke="#000" stroke-miterlimit="10" stroke-width="2.3625"/>
<g clip-path="url(#ay)">
<g clip-path="url(#ax)">
<path transform="matrix(.1 0 0 -.1 6.528 312.86)" d="m1933.4 1704.4 779.61-566.99" fill="none" stroke="#000" stroke-miterlimit="10" stroke-width="2.3625"/>
</g>
</g>
<path d="m272.63 197.68 4.9453 1.2617-2.707-4.3164-0.34766 2.0781-1.8906 0.97656" fill-rule="evenodd"/>
<path transform="matrix(.1 0 0 -.1 6.528 312.86)" d="m2661 1151.9 49.453-12.617-27.07 43.164-3.4766-20.781z" fill="none" stroke="#000" stroke-miterlimit="10" stroke-width="2.3625"/>
<path transform="matrix(.1 0 0 -.1 6.528 312.86)" d="m2004.3 783h992.27v354.38h-992.27z" fill="none" stroke="#000" stroke-miterlimit="10" stroke-width="2.3625"/>
<path transform="matrix(.1 0 0 -.1 6.528 312.86)" d="m1012 1704.4h992.27v354.38h-992.27z" fill="none" stroke="#000" stroke-miterlimit="10" stroke-width="2.3625"/>
<g clip-path="url(#aw)">
<path transform="matrix(.1 0 0 -.1 6.528 312.86)" d="m1933.4 3.3566h992.23v354.38h-992.23z" fill="none" stroke="#000" stroke-miterlimit="10" stroke-width="2.3625"/>
</g>
<g>
<use x="210.635" y="270.908" xlink:href="#p"/>
<use x="217.545404" y="270.908" xlink:href="#g"/>
<use x="222.153237" y="270.908" xlink:href="#u"/>
<use x="229.832959" y="270.908" xlink:href="#a"/>
<use x="233.932397" y="270.908" xlink:href="#f"/>
<use x="237.004286" y="270.908" xlink:href="#m"/>
<use x="242.1241" y="270.908" xlink:href="#a"/>
<use x="246.223538" y="270.908" xlink:href="#b"/>
<use x="249.828031" y="270.908" xlink:href="#l"/>
<use x="254.431381" y="270.908" xlink:href="#a"/>
<use x="258.530819" y="270.908" xlink:href="#b"/>
<use x="265.210787" y="270.908" xlink:href="#j"/>
<use x="103.448" y="234.527" xlink:href="#k"/>
<use x="106.52" y="234.929" xlink:href="#v"/>
<use x="106.264" y="234.527" xlink:href="#o"/>
<use x="111.383814" y="234.527" xlink:href="#b"/>
<use x="118.063782" y="234.527" xlink:href="#n"/>
<use x="124.974187" y="234.527" xlink:href="#d"/>
<use x="129.58202" y="234.527" xlink:href="#c"/>
<use x="133.216998" y="234.527" xlink:href="#e"/>
<use x="139.867377" y="234.527" xlink:href="#t"/>
<use x="103.448" y="221.771" xlink:href="#an"/>
<use x="108.055833" y="221.771" xlink:href="#h"/>
<use x="113.691215" y="221.771" xlink:href="#s"/>
<use x="117.01775" y="221.771" xlink:href="#r"/>
<use x="123.28885" y="221.771" xlink:href="#f"/>
<use x="126.360739" y="221.771" xlink:href="#j"/>
<use x="133.262177" y="221.771" xlink:href="#i"/>
<use x="138.381991" y="221.771" xlink:href="#b"/>
<use x="141.986484" y="221.771" xlink:href="#a"/>
<use x="146.085922" y="221.771" xlink:href="#c"/>
<use x="149.7209" y="221.771" xlink:href="#c"/>
<use x="153.355879" y="221.771" xlink:href="#a"/>
<use x="7.076" y="163.657" xlink:href="#am"/>
<use x="11.683833" y="163.657" xlink:href="#h"/>
<use x="17.319215" y="163.657" xlink:href="#k"/>
<use x="20.134665" y="163.657" xlink:href="#d"/>
<use x="24.742498" y="163.657" xlink:href="#b"/>
<use x="28.346991" y="163.657" xlink:href="#i"/>
<use x="33.466805" y="163.657" xlink:href="#a"/>
<use x="37.557277" y="163.657" xlink:href="#b"/>
<use x="41.16177" y="163.657" xlink:href="#a"/>
<use x="48.336683" y="163.657" xlink:href="#s"/>
<use x="51.663217" y="163.657" xlink:href="#r"/>
<use x="57.934317" y="163.657" xlink:href="#f"/>
<use x="61.006206" y="163.657" xlink:href="#j"/>
<use x="67.916611" y="163.657" xlink:href="#i"/>
<use x="73.036425" y="163.657" xlink:href="#b"/>
<use x="76.640918" y="163.657" xlink:href="#a"/>
<use x="80.740356" y="163.657" xlink:href="#c"/>
<use x="84.375334" y="163.657" xlink:href="#c"/>
<use x="88.010313" y="163.657" xlink:href="#a"/>
<use x="36.619" y="174.051" xlink:href="#k"/>
<use x="39.69" y="174.453" xlink:href="#v"/>
<use x="39.434" y="174.051" xlink:href="#o"/>
<use x="44.553814" y="174.051" xlink:href="#b"/>
<use x="51.233782" y="174.051" xlink:href="#n"/>
<use x="58.144187" y="174.051" xlink:href="#d"/>
<use x="62.75202" y="174.051" xlink:href="#c"/>
<use x="66.386998" y="174.051" xlink:href="#e"/>
<use x="73.037377" y="174.051" xlink:href="#t"/>
<use x="82.383953" y="174.051" xlink:href="#g"/>
<use x="86.991786" y="174.051" xlink:href="#w"/>
<use x="56.561" y="298.311" xlink:href="#x"/>
<use x="63.599624" y="298.311" xlink:href="#h"/>
<use x="69.235006" y="298.311" xlink:href="#n"/>
<use x="76.145411" y="298.311" xlink:href="#d"/>
<use x="80.753244" y="298.311" xlink:href="#c"/>
<use x="84.388222" y="298.311" xlink:href="#e"/>
<use x="120.469" y="64.438" xlink:href="#al"/>
<use x="125.076833" y="64.438" xlink:href="#h"/>
<use x="130.712215" y="64.438" xlink:href="#k"/>
<use x="133.527665" y="64.438" xlink:href="#d"/>
<use x="138.135498" y="64.438" xlink:href="#b"/>
<use x="141.739991" y="64.438" xlink:href="#i"/>
<use x="146.859805" y="64.438" xlink:href="#a"/>
<use x="150.959243" y="64.438" xlink:href="#b"/>
<use x="154.563736" y="64.438" xlink:href="#a"/>
<use x="161.729683" y="64.438" xlink:href="#s"/>
<use x="165.056217" y="64.438" xlink:href="#r"/>
<use x="171.327317" y="64.438" xlink:href="#f"/>
<use x="174.399206" y="64.438" xlink:href="#j"/>
<use x="181.309611" y="64.438" xlink:href="#i"/>
<use x="186.429425" y="64.438" xlink:href="#b"/>
<use x="190.033918" y="64.438" xlink:href="#a"/>
<use x="194.133356" y="64.438" xlink:href="#c"/>
<use x="197.768334" y="64.438" xlink:href="#c"/>
<use x="201.403313" y="64.438" xlink:href="#a"/>
<use x="135.838" y="78.612" xlink:href="#k"/>
<use x="138.909" y="79.013" xlink:href="#v"/>
<use x="138.653" y="78.612" xlink:href="#o"/>
<use x="143.772814" y="78.612" xlink:href="#b"/>
<use x="150.452782" y="78.612" xlink:href="#n"/>
<use x="157.363187" y="78.612" xlink:href="#d"/>
<use x="161.97102" y="78.612" xlink:href="#c"/>
<use x="165.605998" y="78.612" xlink:href="#e"/>
<use x="172.256377" y="78.612" xlink:href="#t"/>
<use x="181.602953" y="78.612" xlink:href="#g"/>
<use x="186.210786" y="78.612" xlink:href="#w"/>
<use x="236.685" y="72.942" xlink:href="#ak"/>
<use x="241.292833" y="72.942" xlink:href="#h"/>
<use x="246.928215" y="72.942" xlink:href="#s"/>
<use x="250.25475" y="72.942" xlink:href="#r"/>
<use x="256.52585" y="72.942" xlink:href="#f"/>
<use x="259.597739" y="72.942" xlink:href="#j"/>
<use x="266.499177" y="72.942" xlink:href="#i"/>
<use x="271.618991" y="72.942" xlink:href="#b"/>
<use x="275.223484" y="72.942" xlink:href="#a"/>
<use x="279.322922" y="72.942" xlink:href="#c"/>
<use x="282.9579" y="72.942" xlink:href="#c"/>
<use x="286.592879" y="72.942" xlink:href="#a"/>
<use x="236.685" y="85.699" xlink:href="#k"/>
<use x="239.757" y="86.101" xlink:href="#v"/>
<use x="239.501" y="85.699" xlink:href="#o"/>
<use x="244.620814" y="85.699" xlink:href="#b"/>
<use x="251.300782" y="85.699" xlink:href="#p"/>
<use x="258.211187" y="85.699" xlink:href="#g"/>
<use x="262.81902" y="85.699" xlink:href="#u"/>
<use x="270.489775" y="85.699" xlink:href="#a"/>
<use x="274.589213" y="85.699" xlink:href="#f"/>
<use x="277.661102" y="85.699" xlink:href="#m"/>
<use x="282.780916" y="85.699" xlink:href="#a"/>
<use x="286.880354" y="85.699" xlink:href="#b"/>
<use x="290.484847" y="85.699" xlink:href="#l"/>
<use x="295.097163" y="85.699" xlink:href="#a"/>
<use x="299.196601" y="85.699" xlink:href="#b"/>
<use x="305.867603" y="85.699" xlink:href="#j"/>
<use x="42.499" y="29.002" xlink:href="#p"/>
<use x="49.409404" y="29.002" xlink:href="#g"/>
<use x="54.017237" y="29.002" xlink:href="#u"/>
<use x="61.696959" y="29.002" xlink:href="#a"/>
<use x="65.796397" y="29.002" xlink:href="#f"/>
<use x="68.868286" y="29.002" xlink:href="#m"/>
<use x="73.9881" y="29.002" xlink:href="#a"/>
<use x="78.087538" y="29.002" xlink:href="#b"/>
<use x="81.692031" y="29.002" xlink:href="#l"/>
<use x="86.295381" y="29.002" xlink:href="#a"/>
<use x="90.394819" y="29.002" xlink:href="#b"/>
<use x="29.743" y="14.828" xlink:href="#ab"/>
<use x="36.526082" y="14.828" xlink:href="#h"/>
<use x="42.161464" y="14.828" xlink:href="#x"/>
<use x="49.200088" y="14.828" xlink:href="#p"/>
<use x="56.110492" y="14.828" xlink:href="#m"/>
<use x="64.296816" y="14.828" xlink:href="#ab"/>
<use x="71.079897" y="14.828" xlink:href="#d"/>
<use x="75.947756" y="14.828" xlink:href="#d"/>
<use x="80.555589" y="14.828" xlink:href="#e"/>
<use x="206.916374" y="14.828" xlink:href="#z"/>
<use x="213.572133" y="14.828" xlink:href="#h"/>
<use x="219.207515" y="14.828" xlink:href="#z"/>
<use x="225.092164" y="14.828" xlink:href="#d"/>
<use x="229.699996" y="14.828" xlink:href="#aj"/>
<use x="234.819811" y="14.828" xlink:href="#f"/>
<use x="237.8917" y="14.828" xlink:href="#aa"/>
<use x="243.650818" y="14.828" xlink:href="#a"/>
<use x="247.750256" y="14.828" xlink:href="#l"/>
<use x="252.362572" y="14.828" xlink:href="#a"/>
<use x="256.462011" y="14.828" xlink:href="#y"/>
<use x="238.102" y="166.492" xlink:href="#k"/>
<use x="241.174" y="166.893" xlink:href="#v"/>
<use x="240.918" y="166.492" xlink:href="#o"/>
<use x="246.037814" y="166.492" xlink:href="#b"/>
<use x="252.717782" y="166.492" xlink:href="#n"/>
<use x="259.628187" y="166.492" xlink:href="#d"/>
<use x="264.23602" y="166.492" xlink:href="#c"/>
<use x="267.870998" y="166.492" xlink:href="#e"/>
<use x="274.521377" y="166.492" xlink:href="#t"/>
<use x="283.867953" y="166.492" xlink:href="#g"/>
<use x="288.475786" y="166.492" xlink:href="#w"/>
<use x="222.511" y="155.152" xlink:href="#ai"/>
<use x="227.118833" y="155.152" xlink:href="#h"/>
<use x="232.754215" y="155.152" xlink:href="#k"/>
<use x="235.569665" y="155.152" xlink:href="#d"/>
<use x="240.177498" y="155.152" xlink:href="#b"/>
<use x="243.781991" y="155.152" xlink:href="#i"/>
<use x="248.901805" y="155.152" xlink:href="#a"/>
<use x="253.001243" y="155.152" xlink:href="#b"/>
<use x="256.605736" y="155.152" xlink:href="#a"/>
<use x="263.771683" y="155.152" xlink:href="#s"/>
<use x="267.098217" y="155.152" xlink:href="#r"/>
<use x="273.369317" y="155.152" xlink:href="#f"/>
<use x="276.441206" y="155.152" xlink:href="#j"/>
<use x="283.351611" y="155.152" xlink:href="#i"/>
<use x="288.471425" y="155.152" xlink:href="#b"/>
<use x="292.075918" y="155.152" xlink:href="#a"/>
<use x="296.175356" y="155.152" xlink:href="#c"/>
<use x="299.810334" y="155.152" xlink:href="#c"/>
<use x="303.445313" y="155.152" xlink:href="#a"/>
<use x="208.337" y="213.266" xlink:href="#j"/>
<use x="215.247404" y="213.266" xlink:href="#h"/>
<use x="220.882787" y="213.266" xlink:href="#x"/>
<use x="227.921411" y="213.266" xlink:href="#p"/>
<use x="234.831815" y="213.266" xlink:href="#m"/>
<use x="243.018139" y="213.266" xlink:href="#g"/>
<use x="247.625972" y="213.266" xlink:href="#o"/>
<use x="252.745786" y="213.266" xlink:href="#e"/>
<use x="256.329656" y="213.266" xlink:href="#d"/>
<use x="260.937489" y="213.266" xlink:href="#b"/>
<use x="264.541982" y="213.266" xlink:href="#q"/>
<use x="267.101889" y="213.266" xlink:href="#e"/>
<use x="270.685759" y="213.266" xlink:href="#g"/>
<use x="275.293592" y="213.266" xlink:href="#e"/>
<use x="278.877462" y="213.266" xlink:href="#q"/>
<use x="281.437369" y="213.266" xlink:href="#l"/>
<use x="286.040719" y="213.266" xlink:href="#a"/>
<use x="290.140157" y="213.266" xlink:href="#b"/>
<use x="222.511" y="226.023" xlink:href="#p"/>
<use x="229.421404" y="226.023" xlink:href="#g"/>
<use x="234.029237" y="226.023" xlink:href="#u"/>
<use x="241.708959" y="226.023" xlink:href="#a"/>
<use x="245.808397" y="226.023" xlink:href="#f"/>
<use x="248.880286" y="226.023" xlink:href="#m"/>
<use x="254.0001" y="226.023" xlink:href="#a"/>
<use x="258.099538" y="226.023" xlink:href="#b"/>
<use x="261.704031" y="226.023" xlink:href="#l"/>
<use x="266.307381" y="226.023" xlink:href="#a"/>
<use x="270.406819" y="226.023" xlink:href="#b"/>
<use x="159.976" y="183.501" xlink:href="#k"/>
<use x="163.048" y="183.902" xlink:href="#v"/>
<use x="162.792" y="183.501" xlink:href="#o"/>
<use x="167.911814" y="183.501" xlink:href="#b"/>
<use x="174.591782" y="183.501" xlink:href="#n"/>
<use x="181.502187" y="183.501" xlink:href="#d"/>
<use x="186.11002" y="183.501" xlink:href="#c"/>
<use x="189.744998" y="183.501" xlink:href="#e"/>
<use x="196.395377" y="183.501" xlink:href="#t"/>
<use x="148.656" y="170.744" xlink:href="#ah"/>
<use x="153.263833" y="170.744" xlink:href="#h"/>
<use x="158.899215" y="170.744" xlink:href="#s"/>
<use x="162.22575" y="170.744" xlink:href="#r"/>
<use x="168.49685" y="170.744" xlink:href="#f"/>
<use x="171.568739" y="170.744" xlink:href="#j"/>
<use x="178.479143" y="170.744" xlink:href="#i"/>
<use x="183.589991" y="170.744" xlink:href="#b"/>
<use x="187.194484" y="170.744" xlink:href="#a"/>
<use x="191.293922" y="170.744" xlink:href="#c"/>
<use x="194.9289" y="170.744" xlink:href="#c"/>
<use x="198.563879" y="170.744" xlink:href="#a"/>
<use x="114.787" y="121.134" xlink:href="#aa"/>
<use x="120.546119" y="121.134" xlink:href="#h"/>
<use x="126.181501" y="121.134" xlink:href="#x"/>
<use x="133.220125" y="121.134" xlink:href="#p"/>
<use x="140.13053" y="121.134" xlink:href="#m"/>
<use x="148.316853" y="121.134" xlink:href="#y"/>
<use x="150.87676" y="121.134" xlink:href="#d"/>
<use x="155.484593" y="121.134" xlink:href="#ag"/>
<use x="159.836884" y="121.134" xlink:href="#g"/>
<use x="164.444716" y="121.134" xlink:href="#y"/>
<use x="167.004624" y="121.134" xlink:href="#a"/>
<use x="171.104062" y="121.134" xlink:href="#b"/>
<use x="127.544" y="135.308" xlink:href="#p"/>
<use x="134.454404" y="135.308" xlink:href="#g"/>
<use x="139.062237" y="135.308" xlink:href="#u"/>
<use x="146.741959" y="135.308" xlink:href="#a"/>
<use x="150.841397" y="135.308" xlink:href="#f"/>
<use x="153.913286" y="135.308" xlink:href="#m"/>
<use x="159.0331" y="135.308" xlink:href="#a"/>
<use x="163.132538" y="135.308" xlink:href="#b"/>
<use x="166.737031" y="135.308" xlink:href="#l"/>
<use x="171.340381" y="135.308" xlink:href="#a"/>
<use x="175.439819" y="135.308" xlink:href="#b"/>
<use x="-0.012" y="101.29" xlink:href="#af"/>
<use x="4.595833" y="101.29" xlink:href="#h"/>
<use x="10.231215" y="101.29" xlink:href="#k"/>
<use x="13.046665" y="101.29" xlink:href="#d"/>
<use x="17.654498" y="101.29" xlink:href="#b"/>
<use x="21.258991" y="101.29" xlink:href="#i"/>
<use x="26.378805" y="101.29" xlink:href="#a"/>
<use x="30.478243" y="101.29" xlink:href="#b"/>
<use x="34.082736" y="101.29" xlink:href="#a"/>
<use x="41.248683" y="101.29" xlink:href="#s"/>
<use x="44.575217" y="101.29" xlink:href="#r"/>
<use x="50.846317" y="101.29" xlink:href="#f"/>
<use x="53.918206" y="101.29" xlink:href="#j"/>
<use x="60.828611" y="101.29" xlink:href="#i"/>
<use x="65.948425" y="101.29" xlink:href="#b"/>
<use x="69.552918" y="101.29" xlink:href="#a"/>
<use x="73.652356" y="101.29" xlink:href="#c"/>
<use x="77.287334" y="101.29" xlink:href="#c"/>
<use x="80.922313" y="101.29" xlink:href="#a"/>
<use x="29.532" y="112.63" xlink:href="#k"/>
<use x="32.603" y="113.031" xlink:href="#v"/>
<use x="32.347" y="112.63" xlink:href="#o"/>
<use x="37.466814" y="112.63" xlink:href="#b"/>
<use x="44.146782" y="112.63" xlink:href="#n"/>
<use x="51.057187" y="112.63" xlink:href="#d"/>
<use x="55.66502" y="112.63" xlink:href="#c"/>
<use x="59.299998" y="112.63" xlink:href="#e"/>
<use x="65.950377" y="112.63" xlink:href="#t"/>
<use x="75.296953" y="112.63" xlink:href="#g"/>
<use x="79.904786" y="112.63" xlink:href="#w"/>
<use x="234.122" y="298.311" xlink:href="#t"/>
<use x="240.3931" y="298.311" xlink:href="#h"/>
<use x="246.028483" y="298.311" xlink:href="#n"/>
<use x="252.938887" y="298.311" xlink:href="#d"/>
<use x="257.54672" y="298.311" xlink:href="#c"/>
<use x="261.181699" y="298.311" xlink:href="#e"/>
<use x="93.526" y="50.264" xlink:href="#ae"/>
<use x="98.133833" y="50.264" xlink:href="#h"/>
<use x="103.769215" y="50.264" xlink:href="#s"/>
<use x="107.09575" y="50.264" xlink:href="#r"/>
<use x="113.36685" y="50.264" xlink:href="#f"/>
<use x="116.438739" y="50.264" xlink:href="#j"/>
<use x="123.349143" y="50.264" xlink:href="#i"/>
<use x="128.459991" y="50.264" xlink:href="#b"/>
<use x="132.064484" y="50.264" xlink:href="#a"/>
<use x="136.163922" y="50.264" xlink:href="#c"/>
<use x="139.7989" y="50.264" xlink:href="#c"/>
<use x="143.433879" y="50.264" xlink:href="#a"/>
<use x="150.608792" y="50.264" xlink:href="#l"/>
<use x="155.221108" y="50.264" xlink:href="#d"/>
<use x="159.819975" y="50.264" xlink:href="#w"/>
<use x="168.015265" y="50.264" xlink:href="#z"/>
<use x="188.577" y="250.119" xlink:href="#n"/>
<use x="195.487404" y="250.119" xlink:href="#d"/>
<use x="200.095237" y="250.119" xlink:href="#c"/>
<use x="203.730216" y="250.119" xlink:href="#e"/>
<use x="210.389561" y="250.119" xlink:href="#t"/>
<use x="219.72717" y="250.119" xlink:href="#q"/>
<use x="222.287077" y="250.119" xlink:href="#c"/>
<use x="225.922056" y="250.119" xlink:href="#e"/>
<use x="232.581401" y="250.119" xlink:href="#b"/>
<use x="236.185894" y="250.119" xlink:href="#a"/>
<use x="240.285332" y="250.119" xlink:href="#ad"/>
<use x="244.893165" y="250.119" xlink:href="#q"/>
<use x="247.453072" y="250.119" xlink:href="#c"/>
<use x="251.088051" y="250.119" xlink:href="#e"/>
<use x="254.671921" y="250.119" xlink:href="#b"/>
<use x="258.276414" y="250.119" xlink:href="#q"/>
<use x="260.836321" y="250.119" xlink:href="#a"/>
<use x="264.935759" y="250.119" xlink:href="#b"/>
<use x="268.540252" y="250.119" xlink:href="#e"/>
<use x="221.093" y="26.168" xlink:href="#p"/>
<use x="228.003404" y="26.168" xlink:href="#g"/>
<use x="232.611237" y="26.168" xlink:href="#u"/>
<use x="240.290959" y="26.168" xlink:href="#a"/>
<use x="244.390397" y="26.168" xlink:href="#f"/>
<use x="247.462286" y="26.168" xlink:href="#m"/>
<use x="252.5821" y="26.168" xlink:href="#a"/>
<use x="256.681538" y="26.168" xlink:href="#b"/>
<use x="260.286031" y="26.168" xlink:href="#l"/>
<use x="264.889381" y="26.168" xlink:href="#a"/>
<use x="268.988819" y="26.168" xlink:href="#b"/>
<use x="197.09" y="260.513" xlink:href="#ac"/>
<use x="202.46984" y="260.513" xlink:href="#a"/>
<use x="206.560312" y="260.513" xlink:href="#q"/>
<use x="209.120219" y="260.513" xlink:href="#u"/>
<use x="219.875416" y="260.513" xlink:href="#g"/>
<use x="224.483249" y="260.513" xlink:href="#o"/>
<use x="229.603063" y="260.513" xlink:href="#e"/>
<use x="233.186933" y="260.513" xlink:href="#d"/>
<use x="237.794766" y="260.513" xlink:href="#b"/>
<use x="241.399259" y="260.513" xlink:href="#q"/>
<use x="243.959166" y="260.513" xlink:href="#e"/>
<use x="247.543036" y="260.513" xlink:href="#g"/>
<use x="252.150869" y="260.513" xlink:href="#e"/>
<use x="255.734739" y="260.513" xlink:href="#q"/>
<use x="258.294646" y="260.513" xlink:href="#l"/>
<use x="262.897996" y="260.513" xlink:href="#a"/>
<use x="266.997434" y="260.513" xlink:href="#w"/>
</g>
</svg>
