<svg width="276pt" height="281pt" version="1.1" viewBox="0 0 276 281" xmlns="http://www.w3.org/2000/svg" xmlns:xlink="http://www.w3.org/1999/xlink">
<defs>
<g id="ag">
<path d="m7.7812-2.3594c0-0.46875 0.046875-0.53125 0.8125-0.53125v-0.34375c-0.3125 0.015625-1.1406 0.015625-1.5 0.015625-0.375 0-1.4219 0-1.7344-0.015625v0.34375h0.35938c1.0625 0 1.0938 0.14062 1.0938 0.57812v0.76562c0 1.3594-1.5625 1.4531-1.875 1.4531-0.9375 0-3.1875-0.57812-3.1875-4 0-3.4531 2.2656-3.9688 3.1094-3.9688 1.0312 0 2.2812 0.75 2.5938 2.8594 0.015625 0.14062 0.015625 0.17188 0.15625 0.17188 0.17188 0 0.17188-0.03125 0.17188-0.28125v-2.8281c0-0.21875 0-0.28125-0.125-0.28125-0.0625 0-0.078125 0.03125-0.15625 0.15625l-0.57812 0.9375c-0.34375-0.42188-1.0781-1.0938-2.2188-1.0938-2.1562 0-4.0625 1.8906-4.0625 4.3281 0 2.4844 1.9062 4.3438 4.0781 4.3438 0.84375 0 1.8125-0.28125 2.2656-1.0312 0.21875 0.375 0.60938 0.76562 0.70312 0.76562s0.09375-0.0625 0.09375-0.26562z"/>
</g>
<g id="d">
<path d="m2-2.7812c0-1.1562 0.46875-2.25 1.3906-2.25 0.09375 0 0.125 0 0.17188 0.015625-0.09375 0.046875-0.28125 0.10938-0.28125 0.4375 0 0.34375 0.26562 0.48438 0.45312 0.48438 0.25 0 0.48438-0.15625 0.48438-0.48438 0-0.35938-0.32812-0.6875-0.84375-0.6875-1.0156 0-1.3594 1.0938-1.4219 1.3281h-0.015625v-1.3281l-1.6094 0.125v0.34375c0.8125 0 0.92188 0.09375 0.92188 0.67188v3.2344c0 0.54688-0.14062 0.54688-0.92188 0.54688v0.34375c0.34375-0.03125 1-0.03125 1.3594-0.03125 0.32812 0 1.1719 0 1.4375 0.03125v-0.34375h-0.23438c-0.875 0-0.89062-0.14062-0.89062-0.5625z"/>
</g>
<g id="z">
<path d="m2.3438-7.4062c0-0.29688-0.25-0.54688-0.54688-0.54688s-0.54688 0.21875-0.54688 0.54688c0 0.34375 0.25 0.5625 0.54688 0.5625s0.54688-0.25 0.54688-0.5625zm2.2656 0c0-0.32812-0.26562-0.54688-0.5625-0.54688s-0.54688 0.25-0.54688 0.54688c0 0.3125 0.25 0.5625 0.54688 0.5625s0.5625-0.21875 0.5625-0.5625z"/>
</g>
<g id="m">
<path d="m5.4844-2.5625c0-1.5312-1.1719-2.7656-2.5625-2.7656-1.4219 0-2.5625 1.2656-2.5625 2.7656 0 1.5312 1.1875 2.6875 2.5625 2.6875 1.4062 0 2.5625-1.1719 2.5625-2.6875zm-2.5625 2.4219c-0.4375 0-0.96875-0.1875-1.3125-0.78125-0.32812-0.53125-0.34375-1.2344-0.34375-1.75 0-0.45312 0-1.1719 0.375-1.7188 0.32812-0.51562 0.85938-0.70312 1.2812-0.70312 0.45312 0 0.96875 0.21875 1.2812 0.6875 0.375 0.54688 0.375 1.2969 0.375 1.7344 0 0.42188 0 1.1719-0.3125 1.7344-0.32812 0.5625-0.89062 0.79688-1.3438 0.79688z"/>
</g>
<g id="u">
<path d="m3.5625-5.0156c0.89062-0.23438 1.6406-0.875 1.6406-1.7188 0-0.89062-0.85938-1.6875-2-1.6875-0.95312 0-1.9531 0.60938-1.9531 1.7656v1.5h-0.92188v0.34375h0.92188v3.9219c0 0.54688-0.14062 0.54688-0.92188 0.54688v0.34375c0.32812-0.03125 0.6875-0.03125 1.0156-0.03125 0.20312 0 0.48438 0 0.65625 0.03125v-6.6562c0-1.4531 1.0312-1.5156 1.2031-1.5156 0.48438 0 1.1562 0.375 1.1562 1.4375 0 1.4531-1.3281 1.5625-1.6406 1.5781-0.078125 0.015625-0.078125 0.10938-0.078125 0.125 0 0.10938 0.0625 0.10938 0.14062 0.125 1.2812 0.10938 1.9062 1.4219 1.9062 2.8281 0 1.5781-0.8125 1.9531-1.25 1.9531-0.078125 0-0.42188 0-0.67188-0.23438 0.26562-0.046875 0.34375-0.23438 0.34375-0.375 0-0.26562-0.1875-0.40625-0.39062-0.40625s-0.39062 0.14062-0.39062 0.40625c0 0.45312 0.4375 0.85938 1.125 0.85938 1.0469 0 2.0625-0.89062 2.0625-2.2031s-0.76562-2.5312-1.9531-2.9375z"/>
</g>
<g id="a">
<path d="m4.5781-2.7656c0.26562 0 0.28125 0 0.28125-0.23438 0-1.2031-0.64062-2.3281-2.0938-2.3281-1.3594 0-2.4062 1.2344-2.4062 2.7031 0 1.5781 1.2188 2.75 2.5469 2.75 1.4219 0 1.9531-1.2969 1.9531-1.5469 0-0.078125-0.046875-0.125-0.125-0.125-0.09375 0-0.125 0.0625-0.14062 0.125-0.3125 1-1.1094 1.2812-1.625 1.2812-0.5 0-1.7031-0.34375-1.7031-2.4062v-0.21875zm-3.2969-0.23438c0.09375-1.875 1.1406-2.0938 1.4844-2.0938 1.2812 0 1.3438 1.6875 1.3594 2.0938z"/>
</g>
<g id="h">
<path d="m3.5781-8.1562v0.34375c0.82812 0 0.92188 0.078125 0.92188 0.67188v2.6406c-0.25-0.35938-0.76562-0.76562-1.5-0.76562-1.3906 0-2.5781 1.1719-2.5781 2.7031 0 1.5156 1.125 2.6875 2.4531 2.6875 0.90625 0 1.4219-0.60938 1.5938-0.82812v0.82812l1.6875-0.125v-0.34375c-0.8125 0-0.90625-0.09375-0.90625-0.67188v-7.2812zm0.89062 6.75c0 0.21875 0 0.26562-0.17188 0.51562-0.28125 0.42188-0.76562 0.76562-1.375 0.76562-0.29688 0-1.5938-0.10938-1.5938-2.4375 0-0.85938 0.14062-1.3281 0.40625-1.7344 0.23438-0.35938 0.71875-0.73438 1.3125-0.73438 0.75 0 1.1562 0.53125 1.2812 0.73438 0.14062 0.20312 0.14062 0.21875 0.14062 0.4375z"/>
</g>
<g id="c">
<path d="m3.9219-5.0625c0-0.20312 0-0.26562-0.125-0.26562-0.09375 0-0.3125 0.26562-0.40625 0.375-0.35938-0.3125-0.73438-0.375-1.125-0.375-1.4375 0-1.875 0.78125-1.875 1.4375 0 0.14062 0 0.5625 0.45312 0.96875 0.39062 0.34375 0.79688 0.42188 1.3438 0.53125 0.65625 0.125 0.8125 0.17188 1.1094 0.40625 0.21875 0.17188 0.375 0.4375 0.375 0.78125 0 0.51562-0.29688 1.0781-1.3594 1.0781-0.78125 0-1.3594-0.45312-1.625-1.6406-0.046875-0.21875-0.046875-0.23438-0.046875-0.25-0.03125-0.046875-0.078125-0.046875-0.10938-0.046875-0.14062 0-0.14062 0.0625-0.14062 0.28125v1.625c0 0.21875 0 0.28125 0.125 0.28125 0.0625 0 0.0625-0.015625 0.26562-0.26562 0.0625-0.09375 0.0625-0.10938 0.25-0.29688 0.45312 0.5625 1.0938 0.5625 1.2969 0.5625 1.25 0 1.875-0.70312 1.875-1.6406 0-0.64062-0.39062-1.0312-0.5-1.1406-0.42188-0.375-0.75-0.4375-1.5469-0.57812-0.34375-0.078125-1.2188-0.25-1.2188-0.96875 0-0.35938 0.25-0.90625 1.3281-0.90625 1.2969 0 1.375 1.1094 1.3906 1.4688 0.015625 0.10938 0.09375 0.10938 0.14062 0.10938 0.125 0 0.125-0.0625 0.125-0.28125z"/>
</g>
<g id="r">
<path d="m7.625-3.0625h-0.26562c-0.28125 1.875-0.5625 2.7188-2.5938 2.7188h-1.625c-0.51562 0-0.54688-0.09375-0.54688-0.48438v-3.2188h1.0938c1.1406 0 1.2656 0.35938 1.2656 1.3906h0.26562v-3.1406h-0.26562c0 1.0312-0.125 1.3906-1.2656 1.3906h-1.0938v-2.9062c0-0.39062 0.03125-0.48438 0.54688-0.48438h1.5938c1.75 0 2.125 0.59375 2.3125 2.3281h0.25l-0.29688-2.6719h-6.5156v0.34375h0.25c0.85938 0 0.89062 0.125 0.89062 0.5625v6.3281c0 0.4375-0.03125 0.5625-0.89062 0.5625h-0.25v0.34375h6.6562z"/>
</g>
<g id="l">
<path d="m8.5781-2.9062c0-1.1094 0-1.4375-0.28125-1.8281-0.34375-0.46875-0.90625-0.53125-1.3125-0.53125-1 0-1.5 0.71875-1.6875 1.1719-0.17188-0.92188-0.8125-1.1719-1.5625-1.1719-1.1719 0-1.625 0.98438-1.7188 1.2188v-1.2188l-1.6406 0.125v0.34375c0.8125 0 0.92188 0.09375 0.92188 0.67188v3.2344c0 0.54688-0.14062 0.54688-0.92188 0.54688v0.34375c0.3125-0.03125 0.96875-0.03125 1.2969-0.03125 0.34375 0 1 0 1.2969 0.03125v-0.34375c-0.75 0-0.90625 0-0.90625-0.54688v-2.2188c0-1.25 0.82812-1.9219 1.5781-1.9219 0.73438 0 0.90625 0.60938 0.90625 1.3438v2.7969c0 0.54688-0.14062 0.54688-0.90625 0.54688v0.34375c0.29688-0.03125 0.95312-0.03125 1.2812-0.03125 0.34375 0 1 0 1.3125 0.03125v-0.34375c-0.76562 0-0.92188 0-0.92188-0.54688v-2.2188c0-1.25 0.82812-1.9219 1.5781-1.9219 0.73438 0 0.90625 0.60938 0.90625 1.3438v2.7969c0 0.54688-0.14062 0.54688-0.90625 0.54688v0.34375c0.3125-0.03125 0.95312-0.03125 1.2812-0.03125 0.34375 0 1 0 1.3125 0.03125v-0.34375c-0.60938 0-0.90625 0-0.90625-0.35938z"/>
</g>
<g id="k">
<path d="m2.9219 1.9688c-0.76562 0-0.90625 0-0.90625-0.53125v-2.0781c0.21875 0.29688 0.70312 0.76562 1.4688 0.76562 1.375 0 2.5938-1.1719 2.5938-2.7031 0-1.5156-1.125-2.6875-2.4375-2.6875-1.0469 0-1.6094 0.75-1.6406 0.79688v-0.79688l-1.6719 0.125v0.34375c0.84375 0 0.92188 0.09375 0.92188 0.60938v5.625c0 0.53125-0.14062 0.53125-0.92188 0.53125v0.34375c0.3125-0.015625 0.96875-0.015625 1.2969-0.015625 0.34375 0 1 0 1.2969 0.015625zm-0.90625-5.7812c0-0.23438 0-0.23438 0.14062-0.4375 0.35938-0.53125 0.9375-0.76562 1.3906-0.76562 0.90625 0 1.6094 1.0938 1.6094 2.4375 0 1.4219-0.8125 2.4531-1.7188 2.4531-0.375 0-0.71875-0.15625-0.96875-0.375-0.26562-0.28125-0.45312-0.51562-0.45312-0.84375z"/>
</g>
<g id="j">
<path d="m2.0625-4.8125h1.3438v-0.34375h-1.375v-1.3906c0-1.0781 0.54688-1.625 1.0469-1.625 0.09375 0 0.26562 0.015625 0.40625 0.09375-0.046875 0.015625-0.34375 0.125-0.34375 0.46875 0 0.26562 0.1875 0.46875 0.46875 0.46875s0.48438-0.20312 0.48438-0.48438c0-0.4375-0.4375-0.79688-1.0156-0.79688-0.82812 0-1.7812 0.65625-1.7812 1.875v1.3906h-0.92188v0.34375h0.92188v3.9219c0 0.54688-0.125 0.54688-0.90625 0.54688v0.34375c0.34375-0.03125 1-0.03125 1.3594-0.03125 0.3125 0 1.1719 0 1.4375 0.03125v-0.34375h-0.23438c-0.875 0-0.89062-0.14062-0.89062-0.5625z"/>
</g>
<g id="g">
<path d="m4.6094-3.1875c0-0.65625 0-1.125-0.51562-1.5938-0.42188-0.375-0.96875-0.54688-1.4844-0.54688-0.98438 0-1.7344 0.64062-1.7344 1.4219 0 0.34375 0.21875 0.51562 0.5 0.51562s0.48438-0.20312 0.48438-0.5c0-0.48438-0.42188-0.48438-0.60938-0.48438 0.28125-0.5 0.85938-0.71875 1.3281-0.71875 0.54688 0 1.2656 0.45312 1.2656 1.5312v0.48438c-2.4062 0.03125-3.3125 1.0312-3.3125 1.9531 0 0.95312 1.0938 1.25 1.8281 1.25 0.78125 0 1.3281-0.48438 1.5469-1.0625 0.046875 0.5625 0.42188 1 0.9375 1 0.25 0 0.9375-0.17188 0.9375-1.125v-0.67188h-0.26562v0.67188c0 0.6875-0.28125 0.78125-0.45312 0.78125-0.45312 0-0.45312-0.64062-0.45312-0.8125zm-0.76562 1.5c0 1.1719-0.875 1.5625-1.3906 1.5625-0.59375 0-1.0781-0.42188-1.0781-1 0-1.5781 2.0312-1.7188 2.4688-1.75z"/>
</g>
<g id="b">
<path d="m5.3125-2.9062c0-1.1094 0-1.4375-0.26562-1.8281-0.34375-0.46875-0.90625-0.53125-1.3125-0.53125-1.1719 0-1.625 0.98438-1.7188 1.2188v-1.2188l-1.6406 0.125v0.34375c0.8125 0 0.92188 0.09375 0.92188 0.67188v3.2344c0 0.54688-0.14062 0.54688-0.92188 0.54688v0.34375c0.3125-0.03125 0.96875-0.03125 1.2969-0.03125 0.34375 0 1 0 1.2969 0.03125v-0.34375c-0.75 0-0.90625 0-0.90625-0.54688v-2.2188c0-1.25 0.82812-1.9219 1.5781-1.9219 0.73438 0 0.90625 0.60938 0.90625 1.3438v2.7969c0 0.54688-0.14062 0.54688-0.90625 0.54688v0.34375c0.29688-0.03125 0.95312-0.03125 1.2812-0.03125 0.34375 0 1 0 1.3125 0.03125v-0.34375c-0.60938 0-0.90625 0-0.92188-0.35938z"/>
</g>
<g id="i">
<path d="m1.4219-2.1562c0.5625 0.35938 1.0469 0.35938 1.1719 0.35938 1.0781 0 1.875-0.8125 1.875-1.7344 0-0.3125-0.09375-0.76562-0.46875-1.1562 0.45312-0.46875 1.0156-0.46875 1.0781-0.46875 0.046875 0 0.10938 0 0.15625 0.015625-0.125 0.046875-0.17188 0.17188-0.17188 0.29688 0 0.17188 0.10938 0.3125 0.29688 0.3125 0.10938 0 0.3125-0.0625 0.3125-0.32812 0-0.20312-0.15625-0.54688-0.57812-0.54688-0.625 0-1.0938 0.39062-1.25 0.5625-0.35938-0.26562-0.78125-0.42188-1.2344-0.42188-1.0781 0-1.875 0.8125-1.875 1.7344 0 0.67188 0.40625 1.1094 0.53125 1.2188-0.14062 0.1875-0.35938 0.53125-0.35938 1 0 0.6875 0.42188 0.98438 0.51562 1.0469-0.54688 0.15625-1.0938 0.59375-1.0938 1.2031 0 0.82812 1.125 1.5156 2.5938 1.5156 1.4219 0 2.5938-0.64062 2.5938-1.5312 0-0.29688-0.078125-1-0.79688-1.375-0.60938-0.3125-1.2031-0.3125-2.2344-0.3125-0.73438 0-0.8125 0-1.0312-0.21875-0.10938-0.125-0.21875-0.35938-0.21875-0.60938 0-0.20312 0.0625-0.40625 0.1875-0.5625zm1.1875 0.10938c-1.0625 0-1.0625-1.2031-1.0625-1.4844 0-0.20312 0-0.70312 0.20312-1.0156 0.23438-0.35938 0.59375-0.46875 0.84375-0.46875 1.0469 0 1.0469 1.2031 1.0469 1.4844 0 0.20312 0 0.70312-0.20312 1.0156-0.21875 0.35938-0.57812 0.46875-0.82812 0.46875zm0.3125 4.25c-1.1406 0-2.0156-0.59375-2.0156-1.2656 0-0.09375 0.03125-0.5625 0.48438-0.875 0.26562-0.17188 0.35938-0.17188 1.2031-0.17188 0.98438 0 2.3438 0 2.3438 1.0469 0 0.70312-0.90625 1.2656-2.0156 1.2656z"/>
</g>
<g id="e">
<path d="m2.0156-4.8125h1.6719v-0.34375h-1.6719v-2.1875h-0.26562c-0.015625 1.1094-0.45312 2.2656-1.5312 2.2969v0.23438h1.0156v3.3281c0 1.3281 0.875 1.6094 1.5156 1.6094 0.75 0 1.1406-0.75 1.1406-1.6094v-0.67188h-0.25v0.65625c0 0.85938-0.35938 1.3594-0.8125 1.3594-0.8125 0-0.8125-1.1094-0.8125-1.3125z"/>
</g>
<g id="af">
<path d="m7.8125-8.1094h-7.1719l-0.21875 2.6719h0.26562c0.15625-1.8906 0.26562-2.3125 2.1562-2.3125 0.21875 0 0.54688 0 0.64062 0.015625 0.25 0.03125 0.25 0.1875 0.25 0.45312v6.3594c0 0.40625 0 0.57812-1.1719 0.57812h-0.42188v0.34375c0.375-0.03125 1.6094-0.03125 2.0781-0.03125s1.7031 0 2.0938 0.03125v-0.34375h-0.4375c-1.1719 0-1.1719-0.17188-1.1719-0.57812v-6.3594c0-0.29688 0.03125-0.40625 0.21875-0.45312 0.09375-0.015625 0.4375-0.015625 0.67188-0.015625 1.8906 0 2 0.42188 2.1562 2.3125h0.26562z"/>
</g>
<g id="ae">
<path d="m7.7969-8.1406c0-0.21875 0-0.28125-0.125-0.28125-0.0625 0-0.078125 0.03125-0.15625 0.15625l-0.57812 0.9375c-0.54688-0.67188-1.3594-1.0938-2.2188-1.0938-2.1875 0-4.0781 1.8906-4.0781 4.3281 0 2.4844 1.9219 4.3438 4.0781 4.3438 1.9688 0 3.0781-1.7031 3.0781-3.0156 0-0.14062 0-0.20312-0.14062-0.20312-0.10938 0-0.125 0.046875-0.125 0.14062-0.10938 1.8906-1.5 2.7344-2.6562 2.7344-0.82812 0-3.125-0.5-3.125-4 0-3.4531 2.25-3.9688 3.1094-3.9688 1.2656 0 2.3594 1.0625 2.5938 2.8438 0.03125 0.15625 0.03125 0.1875 0.17188 0.1875 0.17188 0 0.17188-0.03125 0.17188-0.28125z"/>
</g>
<g id="t">
<path d="m2.6094-3.7969h2.0156c1.4062 0 2.6719-0.95312 2.6719-2.1562 0-1.1562-1.1562-2.2031-2.7656-2.2031h-4.0312v0.34375h0.23438c0.875 0 0.90625 0.10938 0.90625 0.5625v6.3438c0 0.4375-0.03125 0.5625-0.90625 0.5625h-0.23438v0.34375c0.28125-0.03125 1.2656-0.03125 1.6094-0.03125 0.35938 0 1.3438 0 1.625 0.03125v-0.34375h-0.23438c-0.85938 0-0.89062-0.125-0.89062-0.5625zm-0.03125-0.29688v-3.25c0-0.39062 0.03125-0.46875 0.54688-0.46875h1.125c1.9375 0 1.9375 1.3438 1.9375 1.8594 0 0.5 0 1.8594-1.9375 1.8594z"/>
</g>
<g id="q">
<path d="m0.5-8.1562v0.34375h0.23438c0.875 0 0.90625 0.10938 0.90625 0.5625v6.3438c0 0.4375-0.03125 0.5625-0.90625 0.5625h-0.23438v0.34375h4.1875c2 0 3.5938-1.7969 3.5938-4 0-2.3125-1.6094-4.1562-3.5938-4.1562zm2.625 7.8125c-0.51562 0-0.54688-0.09375-0.54688-0.48438v-6.5156c0-0.39062 0.03125-0.46875 0.54688-0.46875h1.2656c0.98438 0 1.7812 0.46875 2.2656 1.2656 0.54688 0.84375 0.54688 2.0469 0.54688 2.5312 0 0.67188-0.015625 1.7969-0.70312 2.6719-0.39062 0.5-1.1094 1-2.1094 1z"/>
</g>
<g id="p">
<path d="m2.0781-7.3594c0-0.3125-0.25-0.59375-0.57812-0.59375-0.3125 0-0.57812 0.25-0.57812 0.57812 0 0.35938 0.28125 0.57812 0.57812 0.57812 0.35938 0 0.57812-0.29688 0.57812-0.5625zm-1.6406 2.2188v0.34375c0.75 0 0.85938 0.078125 0.85938 0.65625v3.25c0 0.54688-0.125 0.54688-0.90625 0.54688v0.34375c0.34375-0.03125 0.90625-0.03125 1.2656-0.03125 0.125 0 0.8125 0 1.2188 0.03125v-0.34375c-0.76562 0-0.8125-0.0625-0.8125-0.53125v-4.3906z"/>
</g>
<g id="f">
<path d="m3.6406-5.1406v0.34375c0.8125 0 0.90625 0.09375 0.90625 0.67188v2.1406c0 1.0156-0.54688 1.8594-1.4375 1.8594-0.98438 0-1.0469-0.5625-1.0469-1.1875v-3.9531l-1.6875 0.125v0.34375c0.92188 0 0.92188 0.046875 0.92188 1.1094v1.7812c0 0.75 0 1.1719 0.35938 1.5781 0.28125 0.29688 0.76562 0.45312 1.375 0.45312 0.20312 0 0.59375 0 1-0.35938 0.34375-0.26562 0.53125-0.71875 0.53125-0.71875v1.0781l1.6719-0.125v-0.34375c-0.8125 0-0.92188-0.09375-0.92188-0.67188v-4.25z"/>
</g>
<g id="s">
<path d="m5.2344-4.8125h1.3594v-0.34375h-1.375v-1.3906c0-1.0312 0.51562-1.625 1.0469-1.625 0.17188 0 0.34375 0.0625 0.42188 0.09375-0.046875 0.015625-0.35938 0.125-0.35938 0.46875 0 0.26562 0.20312 0.46875 0.46875 0.46875 0.29688 0 0.48438-0.20312 0.48438-0.48438 0-0.4375-0.42188-0.79688-1.0156-0.79688-0.48438 0-0.9375 0.21875-1.2344 0.51562-0.3125-0.45312-0.98438-0.51562-1.2969-0.51562-1.1562 0-2.4844 0.625-2.4844 1.8906v1.375h-0.9375v0.34375h0.9375v3.9219c0 0.54688-0.14062 0.54688-0.92188 0.54688v0.34375c0.34375-0.03125 0.92188-0.03125 1.2812-0.03125s0.95312 0 1.2969 0.03125v-0.34375c-0.76562 0-0.90625 0-0.90625-0.54688v-3.9219h2.4844v3.9219c0 0.54688-0.14062 0.54688-0.90625 0.54688v0.34375c0.32812-0.03125 0.98438-0.03125 1.3438-0.03125 0.32812 0 1.1719 0 1.4531 0.03125v-0.34375h-0.25c-0.85938 0-0.89062-0.14062-0.89062-0.5625zm-3.2656-0.34375v-1.3438c0-1.2188 1.0156-1.6719 1.7344-1.6719 0.09375 0 0.60938 0 0.95312 0.25-0.3125 0.0625-0.40625 0.28125-0.40625 0.46875 0 0.20312 0.09375 0.35938 0.28125 0.4375-0.046875 0.17188-0.046875 0.32812-0.046875 0.46875v1.3906z"/>
</g>
<g id="ad">
<path d="m3.2344-2.2656v-0.64062h-3.1094v0.64062z"/>
</g>
<g id="ac">
<path d="m4.875-4.0156c0.10938-0.26562 0.3125-0.78125 1.0781-0.79688v-0.34375c-0.34375 0.03125-0.51562 0.03125-0.89062 0.03125-0.25 0-0.42188 0-0.96875-0.03125v0.34375c0.5 0.03125 0.5625 0.39062 0.5625 0.51562 0 0.10938-0.03125 0.17188-0.09375 0.3125l-1.2188 3.0938-1.3281-3.375c-0.0625-0.17188-0.078125-0.17188-0.078125-0.23438 0-0.3125 0.45312-0.3125 0.67188-0.3125v-0.34375c-0.29688 0.03125-0.92188 0.03125-1.25 0.03125-0.39062 0-0.42188 0-1.1406-0.03125v0.34375c0.67188 0 0.78125 0.0625 0.92188 0.42188l1.7188 4.2812c0.0625 0.17188 0.078125 0.23438 0.21875 0.23438 0.09375 0 0.15625-0.03125 0.25-0.23438z"/>
</g>
<g id="ab">
<path d="m7.2969-6.9844c0.10938-0.29688 0.3125-0.82812 1.25-0.82812v-0.34375c-0.60938 0.015625-0.64062 0.015625-1.0938 0.015625-0.32812 0-0.92188 0-1.2188-0.015625v0.34375c0.60938 0 0.78125 0.34375 0.78125 0.57812 0 0.078125 0 0.09375-0.078125 0.26562l-2.2344 5.8906-2.3438-6.2188c-0.0625-0.125-0.0625-0.15625-0.0625-0.17188 0-0.34375 0.59375-0.34375 0.89062-0.34375v-0.34375c-0.28125 0.015625-1.1875 0.015625-1.5312 0.015625s-1.1562 0-1.4375-0.015625v0.34375c0.73438 0 0.92188 0 1.1094 0.46875l2.7969 7.375c0.0625 0.15625 0.078125 0.21875 0.25 0.21875s0.17188-0.03125 0.26562-0.23438z"/>
</g>
<g id="aa">
<path d="m2.0625-8.2969-1.6719 0.14062v0.34375c0.8125 0 0.90625 0.078125 0.90625 0.67188v6.25c0 0.54688-0.125 0.54688-0.90625 0.54688v0.34375c0.34375-0.03125 0.92188-0.03125 1.2812-0.03125s0.95312 0 1.2969 0.03125v-0.34375c-0.76562 0-0.90625 0-0.90625-0.54688z"/>
</g>
<g id="o">
<path d="m4.3281-4.4219c-0.14062 0-0.59375 0-0.59375 0.48438 0 0.29688 0.20312 0.5 0.5 0.5 0.26562 0 0.5-0.17188 0.5-0.51562 0-0.79688-0.84375-1.375-1.8125-1.375-1.3906 0-2.5 1.2344-2.5 2.75 0 1.5312 1.1406 2.7031 2.5 2.7031 1.5781 0 1.9375-1.4375 1.9375-1.5469s-0.09375-0.10938-0.125-0.10938c-0.10938 0-0.125 0.03125-0.15625 0.1875-0.26562 0.84375-0.90625 1.2031-1.5469 1.2031-0.73438 0-1.7031-0.64062-1.7031-2.4531 0-1.9844 1.0156-2.4688 1.6094-2.4688 0.45312 0 1.1094 0.17188 1.3906 0.64062z"/>
</g>
<g id="n">
<path d="m5.3125-2.9062c0-1.1094 0-1.4375-0.26562-1.8281-0.34375-0.46875-0.90625-0.53125-1.3125-0.53125-1.0312 0-1.5156 0.76562-1.6719 1.1406h-0.015625v-4.1719l-1.6719 0.14062v0.34375c0.8125 0 0.92188 0.078125 0.92188 0.67188v6.25c0 0.54688-0.14062 0.54688-0.92188 0.54688v0.34375c0.3125-0.03125 0.96875-0.03125 1.2969-0.03125 0.34375 0 1 0 1.2969 0.03125v-0.34375c-0.75 0-0.90625 0-0.90625-0.54688v-2.2188c0-1.25 0.82812-1.9219 1.5781-1.9219 0.73438 0 0.90625 0.60938 0.90625 1.3438v2.7969c0 0.54688-0.14062 0.54688-0.90625 0.54688v0.34375c0.29688-0.03125 0.95312-0.03125 1.2812-0.03125 0.34375 0 1 0 1.3125 0.03125v-0.34375c-0.60938 0-0.90625 0-0.92188-0.35938z"/>
</g>
<g id="y">
<path d="m2-8.2969-1.6719 0.14062v0.34375c0.8125 0 0.92188 0.078125 0.92188 0.67188v7.1406h0.25c0.046875-0.09375 0.39062-0.6875 0.4375-0.78125 0.28125 0.45312 0.78125 0.90625 1.5469 0.90625 1.375 0 2.5938-1.1719 2.5938-2.7031 0-1.5156-1.125-2.6875-2.4531-2.6875-0.65625 0-1.2188 0.29688-1.625 0.79688zm0.015625 4.4688c0-0.21875 0-0.23438 0.14062-0.42188 0.28125-0.4375 0.8125-0.78125 1.3906-0.78125 0.35938 0 1.6094 0.14062 1.6094 2.4375 0 0.79688-0.10938 1.2969-0.40625 1.7344-0.23438 0.375-0.70312 0.73438-1.3125 0.73438-0.64062 0-1.0625-0.40625-1.2656-0.73438-0.15625-0.25-0.15625-0.29688-0.15625-0.5z"/>
</g>
<g id="x">
<path d="m4.625-8.3125c-0.046875-0.15625-0.078125-0.21875-0.23438-0.21875-0.17188 0-0.1875 0.03125-0.25 0.21875l-2.5 7.1562c-0.17188 0.48438-0.5 0.79688-1.2656 0.8125v0.34375c0.71875-0.03125 0.75-0.03125 1.1406-0.03125 0.34375 0 0.90625 0 1.2188 0.03125v-0.34375c-0.5-0.015625-0.79688-0.26562-0.79688-0.59375 0-0.078125 0-0.10938 0.0625-0.25l0.54688-1.5938h3.0156l0.65625 1.875c0.0625 0.14062 0.0625 0.17188 0.0625 0.20312 0 0.35938-0.60938 0.35938-0.92188 0.35938v0.34375c0.28125-0.03125 1.2344-0.03125 1.5625-0.03125s1.1875 0 1.4688 0.03125v-0.34375c-0.78125 0-0.98438 0-1.1562-0.5zm-0.57812 1.2031 1.3906 3.9844h-2.7656z"/>
</g>
<g id="w">
<path d="m7.2344-4.0156c0.26562-0.75 0.78125-0.78125 0.98438-0.79688v-0.34375c-0.29688 0.03125-0.51562 0.03125-0.875 0.03125-0.34375 0-0.375 0-1.0156-0.03125v0.34375c0.53125 0.03125 0.67188 0.35938 0.67188 0.57812 0 0.015625 0 0.09375-0.046875 0.21875l-1.0938 3.125-1.2031-3.375c-0.046875-0.14062-0.046875-0.17188-0.046875-0.20312 0-0.34375 0.4375-0.34375 0.6875-0.34375v-0.34375c-0.34375 0.03125-0.82812 0.03125-1.1719 0.03125-0.39062 0-0.40625 0-1.0781-0.03125v0.34375c0.45312 0 0.60938 0.03125 0.75 0.1875 0.046875 0.078125 0.20312 0.46875 0.28125 0.70312l-1.0156 2.9219-1.1562-3.25c-0.046875-0.15625-0.046875-0.1875-0.046875-0.23438 0-0.32812 0.45312-0.32812 0.6875-0.32812v-0.34375c-0.29688 0.03125-0.89062 0.03125-1.2188 0.03125-0.34375 0-0.35938 0-1.1094-0.03125v0.34375c0.60938 0 0.71875 0.0625 0.85938 0.4375l1.5 4.2812c0.046875 0.125 0.09375 0.21875 0.21875 0.21875 0.10938 0 0.17188-0.046875 0.23438-0.23438l1.1875-3.4062 1.2031 3.4062c0.046875 0.1875 0.10938 0.23438 0.21875 0.23438 0.125 0 0.17188-0.09375 0.21875-0.21875z"/>
</g>
<g id="v">
<path d="m4.5469-4.8125c0.10938-0.14062 0.10938-0.15625 0.10938-0.20312 0-0.14062-0.078125-0.14062-0.28125-0.14062h-3.75l-0.14062 1.9062h0.26562c0.078125-1.2188 0.29688-1.6562 1.6094-1.6562h1.375l-3.4062 4.6875c0 0.21875 0.015625 0.21875 0.28125 0.21875h3.8906l0.20312-2.2031h-0.26562c-0.10938 1.3594-0.3125 1.9375-1.7344 1.9375h-1.4531z"/>
</g>
</defs>
<path transform="matrix(.1 0 0 -.1 -.472 282)" d="m713.12 1597.3h921.37v566.99h-921.37z" fill="#ccc" fill-rule="evenodd" stroke="#000" stroke-miterlimit="10" stroke-width="2.3625"/>
<path transform="matrix(.1 0 0 -.1 -.472 282)" d="m500.5 2164.2h141.76" fill="none" stroke="#000" stroke-miterlimit="10" stroke-width="2.3625"/>
<path transform="matrix(.1 0 0 -.1 -.472 282)" d="m500.5 675.89h141.76" fill="none" stroke="#000" stroke-miterlimit="10" stroke-width="2.3625"/>
<path transform="matrix(.1 0 0 -.1 -.472 282)" d="m571.36 2164.2v-1488.4" fill="none" stroke="#000" stroke-miterlimit="10" stroke-width="2.3625"/>
<path transform="matrix(.1 0 0 -.1 -.472 282)" d="m1705.4 1597.3h141.72" fill="none" stroke="#000" stroke-miterlimit="10" stroke-width="2.3625"/>
<path transform="matrix(.1 0 0 -.1 -.472 282)" d="m1776.2 1597.3v-921.37" fill="none" stroke="#000" stroke-miterlimit="10" stroke-width="2.3625"/>
<path transform="matrix(.1 0 0 -.1 -.472 282)" d="m1705.4 675.89h141.72" fill="none" stroke="#000" stroke-miterlimit="10" stroke-width="2.3625"/>
<path transform="matrix(.1 0 0 -.1 -.472 282)" d="m1138.4 675.89-141.76-141.76h70.859v-283.52h141.76v283.52h70.859z" fill="none" stroke="#000" stroke-miterlimit="10" stroke-width="2.3625"/>
<path transform="matrix(.1 0 0 -.1 -.472 282)" d="m1138.4 2589.5-141.76-141.72h70.859v-283.52h141.76v283.52h70.859z" fill="none" stroke="#000" stroke-miterlimit="10" stroke-width="2.3625"/>
<path transform="matrix(.1 0 0 -.1 -.472 282)" d="m713.12 675.89h921.37v921.37h-921.37z" fill="none" stroke="#000" stroke-miterlimit="10" stroke-width="2.3625"/>
<g>
<use x="0.001" y="93.865" xlink:href="#ag"/>
<use x="9.18618" y="93.865" xlink:href="#d"/>
<use x="13.738" y="94.336" xlink:href="#z"/>
<use x="13.738" y="93.865" xlink:href="#m"/>
<use x="19.591266" y="93.865" xlink:href="#u"/>
<use x="25.444532" y="93.865" xlink:href="#a"/>
<use x="34.54483" y="93.865" xlink:href="#h"/>
<use x="41.048459" y="93.865" xlink:href="#a"/>
<use x="46.251362" y="93.865" xlink:href="#c"/>
<use x="191.352" y="164.736" xlink:href="#r"/>
<use x="199.316554" y="164.736" xlink:href="#l"/>
<use x="209.071997" y="164.736" xlink:href="#k"/>
<use x="215.575626" y="164.736" xlink:href="#j"/>
<use x="219.152622" y="164.736" xlink:href="#g"/>
<use x="225.005888" y="164.736" xlink:href="#b"/>
<use x="231.509517" y="164.736" xlink:href="#i"/>
<use x="237.362783" y="164.736" xlink:href="#c"/>
<use x="241.979881" y="164.736" xlink:href="#j"/>
<use x="245.556877" y="164.736" xlink:href="#a"/>
<use x="250.75978" y="164.736" xlink:href="#b"/>
<use x="257.263409" y="164.736" xlink:href="#c"/>
<use x="261.880507" y="164.736" xlink:href="#e"/>
<use x="266.433047" y="164.736" xlink:href="#a"/>
<use x="271.63595" y="164.736" xlink:href="#d"/>
<use x="191.352" y="93.865" xlink:href="#af"/>
<use x="199.806717" y="93.865" xlink:href="#ae"/>
<use x="208.261435" y="93.865" xlink:href="#t"/>
<use x="220.123384" y="93.865" xlink:href="#q"/>
<use x="229.063483" y="93.865" xlink:href="#g"/>
<use x="234.916749" y="93.865" xlink:href="#e"/>
<use x="239.469289" y="93.865" xlink:href="#a"/>
<use x="244.672192" y="93.865" xlink:href="#b"/>
<use x="191.352" y="106.149" xlink:href="#p"/>
<use x="194.603814" y="106.149" xlink:href="#l"/>
<use x="208.256653" y="106.149" xlink:href="#t"/>
<use x="216.221207" y="106.149" xlink:href="#f"/>
<use x="222.724836" y="106.149" xlink:href="#s"/>
<use x="229.553646" y="106.149" xlink:href="#a"/>
<use x="234.756549" y="106.149" xlink:href="#d"/>
<use x="0.00185088" y="106.149" xlink:href="#r"/>
<use x="7.966405" y="106.149" xlink:href="#l"/>
<use x="17.721848" y="106.149" xlink:href="#k"/>
<use x="24.225477" y="106.149" xlink:href="#j"/>
<use x="27.802473" y="106.149" xlink:href="#g"/>
<use x="33.655739" y="106.149" xlink:href="#b"/>
<use x="40.159368" y="106.149" xlink:href="#i"/>
<use x="46.012634" y="106.149" xlink:href="#c"/>
<use x="50.629732" y="106.149" xlink:href="#ad"/>
<use x="24.155" y="278.129" xlink:href="#q"/>
<use x="33.095099" y="278.129" xlink:href="#g"/>
<use x="38.948364" y="278.129" xlink:href="#e"/>
<use x="43.500905" y="278.129" xlink:href="#a"/>
<use x="48.703808" y="278.129" xlink:href="#b"/>
<use x="59.104832" y="278.129" xlink:href="#ac"/>
<use x="64.960489" y="278.129" xlink:href="#m"/>
<use x="70.813755" y="278.129" xlink:href="#b"/>
<use x="81.214779" y="278.129" xlink:href="#h"/>
<use x="87.718407" y="278.129" xlink:href="#a"/>
<use x="92.92131" y="278.129" xlink:href="#d"/>
<use x="101.383201" y="278.129" xlink:href="#ab"/>
<use x="109.177991" y="278.129" xlink:href="#a"/>
<use x="114.380894" y="278.129" xlink:href="#d"/>
<use x="118.933435" y="278.129" xlink:href="#l"/>
<use x="128.688878" y="278.129" xlink:href="#p"/>
<use x="131.940692" y="278.129" xlink:href="#e"/>
<use x="136.493232" y="278.129" xlink:href="#e"/>
<use x="141.045772" y="278.129" xlink:href="#aa"/>
<use x="144.297587" y="278.129" xlink:href="#f"/>
<use x="150.801216" y="278.129" xlink:href="#b"/>
<use x="157.304844" y="278.129" xlink:href="#i"/>
<use x="163.15811" y="278.129" xlink:href="#c"/>
<use x="167.775209" y="278.129" xlink:href="#c"/>
<use x="172.392307" y="278.129" xlink:href="#o"/>
<use x="177.27242" y="278.129" xlink:href="#n"/>
<use x="183.776048" y="278.129" xlink:href="#p"/>
<use x="187.027863" y="278.129" xlink:href="#o"/>
<use x="191.907975" y="278.129" xlink:href="#n"/>
<use x="198.076859" y="278.129" xlink:href="#e"/>
<use x="15.343" y="8.82" xlink:href="#q"/>
<use x="24.283099" y="8.82" xlink:href="#g"/>
<use x="30.136364" y="8.82" xlink:href="#e"/>
<use x="34.688905" y="8.82" xlink:href="#a"/>
<use x="39.891808" y="8.82" xlink:href="#b"/>
<use x="46.395436" y="8.82" xlink:href="#g"/>
<use x="52.248702" y="8.82" xlink:href="#y"/>
<use x="58.752331" y="8.82" xlink:href="#d"/>
<use x="63.304871" y="8.82" xlink:href="#f"/>
<use x="69.8085" y="8.82" xlink:href="#j"/>
<use x="77.282891" y="8.82" xlink:href="#h"/>
<use x="83.78652" y="8.82" xlink:href="#f"/>
<use x="90.290149" y="8.82" xlink:href="#d"/>
<use x="94.842689" y="8.82" xlink:href="#o"/>
<use x="99.722802" y="8.82" xlink:href="#n"/>
<use x="110.123826" y="8.82" xlink:href="#x"/>
<use x="118.898942" y="8.82" xlink:href="#b"/>
<use x="125.079781" y="8.82" xlink:href="#w"/>
<use x="133.211708" y="8.82" xlink:href="#a"/>
<use x="138.414611" y="8.82" xlink:href="#b"/>
<use x="144.91824" y="8.82" xlink:href="#h"/>
<use x="151.421868" y="8.82" xlink:href="#f"/>
<use x="157.925497" y="8.82" xlink:href="#b"/>
<use x="164.429126" y="8.82" xlink:href="#i"/>
<use x="170.282392" y="8.82" xlink:href="#c"/>
<use x="174.89949" y="8.82" xlink:href="#k"/>
<use x="181.403119" y="8.82" xlink:href="#d"/>
<use x="185.955659" y="8.82" xlink:href="#m"/>
<use x="191.808925" y="8.82" xlink:href="#v"/>
<use x="197.011828" y="8.82" xlink:href="#a"/>
<use x="202.214731" y="8.82" xlink:href="#c"/>
<use x="206.831829" y="8.82" xlink:href="#c"/>
<use x="0.001" y="118.433" xlink:href="#k"/>
<use x="6.504629" y="118.433" xlink:href="#f"/>
<use x="13.008258" y="118.433" xlink:href="#s"/>
<use x="19.837068" y="118.433" xlink:href="#a"/>
<use x="25.039971" y="118.433" xlink:href="#d"/>
<use x="29.592511" y="118.433" xlink:href="#c"/>
</g>
</svg>
