<svg width="299pt" height="104pt" version="1.1" viewBox="0 0 299 104" xmlns="http://www.w3.org/2000/svg" xmlns:xlink="http://www.w3.org/1999/xlink">
<defs>
<g id="aw">
<path d="m3.9844-4.1719 1.7969-1.7344c0.078125-0.078125 0.60938-0.57812 1.4219-0.59375v-0.3125c-0.26562 0.03125-0.57812 0.03125-0.85938 0.03125-0.35938 0-0.92188 0-1.2656-0.03125v0.3125c0.40625 0.015625 0.46875 0.23438 0.46875 0.32812 0 0.15625-0.10938 0.26562-0.1875 0.32812l-3.1094 2.9844v-3.1719c0-0.35938 0.015625-0.46875 0.78125-0.46875h0.23438v-0.3125c-0.34375 0.03125-1.0781 0.03125-1.4688 0.03125-0.375 0-1.125 0-1.4688-0.03125v0.3125h0.23438c0.76562 0 0.79688 0.10938 0.79688 0.46875v5.25c0 0.35938-0.03125 0.46875-0.79688 0.46875h-0.23438v0.3125c0.34375-0.03125 1.0938-0.03125 1.4688-0.03125s1.125 0 1.4688 0.03125v-0.3125h-0.23438c-0.76562 0-0.78125-0.10938-0.78125-0.46875v-1.7344l1.1562-1.1094 1.7969 2.6719c0.0625 0.09375 0.15625 0.21875 0.15625 0.34375 0 0.29688-0.39062 0.29688-0.59375 0.29688v0.3125c0.34375-0.03125 1.0469-0.03125 1.4219-0.03125 0.35938 0 0.73438 0.015625 1.1562 0.03125v-0.3125c-0.54688 0-0.75-0.03125-1.0469-0.46875z"/>
</g>
<g id="m">
<path d="m3.3125-0.75c0.046875 0.39062 0.3125 0.8125 0.78125 0.8125 0.21875 0 0.82812-0.14062 0.82812-0.95312v-0.5625h-0.25v0.5625c0 0.57812-0.25 0.64062-0.35938 0.64062-0.32812 0-0.375-0.45312-0.375-0.5v-1.9844c0-0.42188 0-0.8125-0.35938-1.1875-0.39062-0.39062-0.89062-0.54688-1.3594-0.54688-0.82812 0-1.5156 0.46875-1.5156 1.125 0 0.29688 0.20312 0.46875 0.46875 0.46875 0.28125 0 0.45312-0.20312 0.45312-0.45312 0-0.125-0.046875-0.45312-0.51562-0.45312 0.28125-0.35938 0.76562-0.46875 1.0781-0.46875 0.5 0 1.0625 0.39062 1.0625 1.2812v0.35938c-0.51562 0.03125-1.2031 0.0625-1.8281 0.35938-0.75 0.34375-1 0.85938-1 1.2969 0 0.8125 0.96875 1.0625 1.5938 1.0625 0.65625 0 1.1094-0.40625 1.2969-0.85938zm-0.0625-1.6406v1c0 0.9375-0.71875 1.2812-1.1719 1.2812-0.48438 0-0.89062-0.34375-0.89062-0.84375 0-0.54688 0.42188-1.375 2.0625-1.4375z"/>
</g>
<g id="s">
<path d="m1.0938-3.4219v2.6719c0 0.4375-0.10938 0.4375-0.78125 0.4375v0.3125c0.35938-0.015625 0.85938-0.03125 1.1406-0.03125 0.25 0 0.76562 0.015625 1.1094 0.03125v-0.3125c-0.67188 0-0.78125 0-0.78125-0.4375v-1.8438c0-1.0312 0.71875-1.5938 1.3438-1.5938 0.64062 0 0.75 0.53125 0.75 1.1094v2.3281c0 0.4375-0.10938 0.4375-0.78125 0.4375v0.3125c0.34375-0.015625 0.85938-0.03125 1.125-0.03125 0.25 0 0.78125 0.015625 1.1094 0.03125v-0.3125c-0.51562 0-0.76562 0-0.76562-0.29688v-1.9062c0-0.85938 0-1.1562-0.3125-1.5156-0.14062-0.17188-0.46875-0.375-1.0469-0.375-0.73438 0-1.2031 0.42188-1.4844 1.0469v-1.0469l-1.4062 0.10938v0.3125c0.70312 0 0.78125 0.0625 0.78125 0.5625z"/>
</g>
<g id="as">
<path d="m1.7656-6.9219-1.4375 0.10938v0.3125c0.70312 0 0.78125 0.0625 0.78125 0.5625v5.1875c0 0.4375-0.10938 0.4375-0.78125 0.4375v0.3125c0.32812-0.015625 0.85938-0.03125 1.1094-0.03125s0.73438 0.015625 1.1094 0.03125v-0.3125c-0.67188 0-0.78125 0-0.78125-0.4375z"/>
</g>
<g id="ar">
<path d="m9.0625-5.8281c0.17188-0.57812 0.60938-0.67188 1-0.67188v-0.3125c-0.29688 0.03125-0.60938 0.03125-0.90625 0.03125s-0.9375-0.015625-1.1875-0.03125v0.3125c0.67188 0.015625 0.85938 0.34375 0.85938 0.53125 0 0.0625-0.03125 0.14062-0.046875 0.20312l-1.5 4.5938-1.5938-4.875c0-0.046875-0.03125-0.10938-0.03125-0.15625 0-0.29688 0.57812-0.29688 0.84375-0.29688v-0.3125c-0.35938 0.03125-1.0312 0.03125-1.4219 0.03125-0.375 0-0.79688-0.015625-1.2031-0.03125v0.3125c0.5625 0 0.76562 0 0.89062 0.35938l0.21875 0.70312-1.3906 4.2656-1.5938-4.9062c-0.015625-0.015625-0.03125-0.09375-0.03125-0.125 0-0.29688 0.57812-0.29688 0.84375-0.29688v-0.3125c-0.35938 0.03125-1.0312 0.03125-1.4219 0.03125-0.375 0-0.79688-0.015625-1.2188-0.03125v0.3125c0.75 0 0.79688 0.046875 0.92188 0.42188l1.9844 6.1094c0.03125 0.09375 0.0625 0.1875 0.1875 0.1875 0.14062 0 0.15625-0.0625 0.20312-0.20312l1.6406-5.0625 1.6562 5.0781c0.03125 0.09375 0.0625 0.1875 0.1875 0.1875 0.14062 0 0.17188-0.0625 0.20312-0.20312z"/>
</g>
<g id="r">
<path d="m1.6719-3.3125v-1.0938l-1.3906 0.10938v0.3125c0.70312 0 0.78125 0.0625 0.78125 0.5625v2.6719c0 0.4375-0.10938 0.4375-0.78125 0.4375v0.3125c0.39062-0.015625 0.85938-0.03125 1.1406-0.03125 0.39062 0 0.85938 0 1.2656 0.03125v-0.3125h-0.21875c-0.73438 0-0.75-0.10938-0.75-0.46875v-1.5312c0-0.98438 0.42188-1.875 1.1719-1.875 0.0625 0 0.09375 0 0.10938 0.015625-0.03125 0-0.23438 0.125-0.23438 0.39062s0.21875 0.42188 0.4375 0.42188c0.17188 0 0.42188-0.125 0.42188-0.4375s-0.3125-0.60938-0.73438-0.60938c-0.73438 0-1.0938 0.67188-1.2188 1.0938z"/>
</g>
<g id="aq">
<path d="m1.7188-3.9844h1.4375v-0.3125h-1.4375v-1.8281h-0.25c0 0.8125-0.29688 1.875-1.2812 1.9219v0.21875h0.84375v2.75c0 1.2188 0.9375 1.3438 1.2969 1.3438 0.70312 0 0.98438-0.70312 0.98438-1.3438v-0.5625h-0.25v0.54688c0 0.73438-0.29688 1.1094-0.67188 1.1094-0.67188 0-0.67188-0.90625-0.67188-1.0781z"/>
</g>
<g id="ap">
<path d="m1.1094-2.5156c0.0625-1.4844 0.90625-1.7344 1.25-1.7344 1.0156 0 1.125 1.3438 1.125 1.7344zm0 0.21875h2.7812c0.21875 0 0.25 0 0.25-0.21875 0-0.98438-0.54688-1.9531-1.7812-1.9531-1.1562 0-2.0781 1.0312-2.0781 2.2812 0 1.3281 1.0469 2.2969 2.1875 2.2969 1.2188 0 1.6719-1.1094 1.6719-1.2969 0-0.09375-0.078125-0.125-0.14062-0.125-0.078125 0-0.10938 0.0625-0.125 0.14062-0.34375 1.0312-1.25 1.0312-1.3438 1.0312-0.5 0-0.89062-0.29688-1.125-0.67188-0.29688-0.46875-0.29688-1.125-0.29688-1.4844z"/>
</g>
<g id="h">
<path d="m3.8906-0.78125v0.89062l1.4375-0.10938v-0.3125c-0.6875 0-0.76562-0.0625-0.76562-0.5625v-3.5312l-1.4688 0.10938v0.3125c0.6875 0 0.78125 0.0625 0.78125 0.5625v1.7656c0 0.875-0.48438 1.5469-1.2188 1.5469-0.82812 0-0.875-0.46875-0.875-0.98438v-3.3125l-1.4688 0.10938v0.3125c0.78125 0 0.78125 0.03125 0.78125 0.90625v1.5c0 0.78125 0 1.6875 1.5156 1.6875 0.5625 0 1-0.28125 1.2812-0.89062z"/>
</g>
<g id="u">
<path d="m1.75-4.2969v-1.1562c0-0.875 0.46875-1.3594 0.90625-1.3594 0.03125 0 0.1875 0 0.32812 0.078125-0.10938 0.03125-0.29688 0.17188-0.29688 0.42188 0 0.21875 0.15625 0.42188 0.4375 0.42188s0.4375-0.20312 0.4375-0.4375c0-0.375-0.375-0.70312-0.90625-0.70312-0.6875 0-1.5469 0.53125-1.5469 1.5938v1.1406h-0.78125v0.3125h0.78125v3.2344c0 0.4375-0.10938 0.4375-0.76562 0.4375v0.3125c0.39062-0.015625 0.85938-0.03125 1.125-0.03125 0.40625 0 0.875 0 1.2656 0.03125v-0.3125h-0.20312c-0.73438 0-0.75-0.10938-0.75-0.46875v-3.2031h1.125v-0.3125z"/>
</g>
<g id="t">
<path d="m3.7812-0.54688v0.65625l1.4688-0.10938v-0.3125c-0.6875 0-0.78125-0.0625-0.78125-0.5625v-6.0469l-1.4219 0.10938v0.3125c0.6875 0 0.76562 0.0625 0.76562 0.5625v2.1562c-0.28125-0.35938-0.71875-0.625-1.25-0.625-1.1719 0-2.2188 0.98438-2.2188 2.2656 0 1.2656 0.96875 2.25 2.1094 2.25 0.64062 0 1.0781-0.34375 1.3281-0.65625zm0-2.6719v2.0469c0 0.17188 0 0.1875-0.10938 0.35938-0.29688 0.48438-0.73438 0.70312-1.1719 0.70312-0.45312 0-0.8125-0.26562-1.0469-0.64062-0.25-0.40625-0.28125-0.96875-0.28125-1.3906 0-0.35938 0.015625-0.95312 0.29688-1.4062 0.21875-0.3125 0.59375-0.64062 1.1406-0.64062 0.34375 0 0.76562 0.15625 1.0625 0.59375 0.10938 0.17188 0.10938 0.1875 0.10938 0.375z"/>
</g>
<g id="av">
<path d="m3.9688-6.9375c-0.046875-0.125-0.078125-0.20312-0.23438-0.20312s-0.1875 0.0625-0.23438 0.20312l-2.0625 5.9531c-0.1875 0.51562-0.57812 0.67188-1.125 0.67188v0.3125c0.23438-0.015625 0.67188-0.03125 1.0156-0.03125 0.3125 0 0.82812 0.015625 1.1562 0.03125v-0.3125c-0.5 0-0.75-0.25-0.75-0.5 0-0.03125 0.015625-0.14062 0.015625-0.15625l0.46875-1.2969h2.4531l0.53125 1.5156c0.015625 0.046875 0.03125 0.10938 0.03125 0.14062 0 0.29688-0.5625 0.29688-0.82812 0.29688v0.3125c0.35938-0.03125 1.0625-0.03125 1.4375-0.03125 0.42188 0 0.89062 0.015625 1.2969 0.03125v-0.3125h-0.17188c-0.59375 0-0.73438-0.0625-0.84375-0.39062zm-0.53125 1.1094 1.125 3.25h-2.2344z"/>
</g>
<g id="au">
<path d="m1.1719-2.1719c0-1.625 0.8125-2.0469 1.3438-2.0469 0.09375 0 0.71875 0.015625 1.0625 0.375-0.40625 0.03125-0.46875 0.32812-0.46875 0.45312 0 0.26562 0.1875 0.45312 0.45312 0.45312s0.46875-0.15625 0.46875-0.46875c0-0.67188-0.76562-1.0625-1.5312-1.0625-1.25 0-2.1562 1.0781-2.1562 2.3125 0 1.2812 0.98438 2.2656 2.1406 2.2656 1.3281 0 1.6562-1.2031 1.6562-1.2969s-0.10938-0.09375-0.14062-0.09375c-0.078125 0-0.10938 0.03125-0.125 0.09375-0.28125 0.92188-0.9375 1.0469-1.2969 1.0469-0.53125 0-1.4062-0.42188-1.4062-2.0312z"/>
</g>
<g id="at">
<path d="m1.0938-0.75c0 0.4375-0.10938 0.4375-0.78125 0.4375v0.3125c0.35938-0.015625 0.85938-0.03125 1.1406-0.03125 0.25 0 0.76562 0.015625 1.1094 0.03125v-0.3125c-0.67188 0-0.78125 0-0.78125-0.4375v-1.8438c0-1.0312 0.71875-1.5938 1.3438-1.5938 0.64062 0 0.75 0.53125 0.75 1.1094v2.3281c0 0.4375-0.10938 0.4375-0.78125 0.4375v0.3125c0.34375-0.015625 0.85938-0.03125 1.125-0.03125 0.25 0 0.78125 0.015625 1.1094 0.03125v-0.3125c-0.51562 0-0.76562 0-0.76562-0.29688v-1.9062c0-0.85938 0-1.1562-0.3125-1.5156-0.14062-0.17188-0.46875-0.375-1.0469-0.375-0.84375 0-1.2812 0.59375-1.4531 0.98438v-3.5l-1.4375 0.10938v0.3125c0.70312 0 0.78125 0.0625 0.78125 0.5625z"/>
</g>
<g id="d">
<path d="m2.2188-1.8594c0-0.9375 0.57812-1.8906 1.7812-1.8906 0.015625 0.23438 0.1875 0.4375 0.4375 0.4375 0.21875 0 0.42188-0.15625 0.42188-0.42188 0-0.20312-0.125-0.625-0.95312-0.625-0.5 0-1.1406 0.1875-1.6875 0.8125v-0.34375c0-0.3125-0.0625-0.40625-0.40625-0.40625h-1.0938c-0.15625 0-0.40625 0-0.40625 0.29688 0 0.3125 0.25 0.3125 0.40625 0.3125h0.8125v3.0781h-0.8125c-0.15625 0-0.40625 0-0.40625 0.29688 0 0.3125 0.25 0.3125 0.40625 0.3125h2.5938c0.15625 0 0.42188 0 0.42188-0.29688 0-0.3125-0.26562-0.3125-0.42188-0.3125h-1.0938z"/>
</g>
<g id="c">
<path d="m3.5625-0.5c0 0.35938 0 0.5 0.40625 0.5h0.71875c0.17188 0 0.42188 0 0.42188-0.3125 0-0.29688-0.26562-0.29688-0.40625-0.29688h-0.45312v-5.0781c0-0.29688-0.046875-0.40625-0.39062-0.40625h-0.73438c-0.15625 0-0.40625 0-0.40625 0.3125 0 0.29688 0.26562 0.29688 0.40625 0.29688h0.4375v1.5781c-0.32812-0.29688-0.73438-0.45312-1.1562-0.45312-1.0938 0-2.0469 0.95312-2.0469 2.2188 0 1.2344 0.89062 2.2031 1.9531 2.2031 0.5625 0 0.98438-0.26562 1.25-0.5625zm0-2.1406v0.70312c0 0.5625-0.4375 1.3906-1.2031 1.3906-0.71875 0-1.3125-0.70312-1.3125-1.5938 0-0.95312 0.70312-1.6094 1.3906-1.6094 0.64062 0 1.125 0.5625 1.125 1.1094z"/>
</g>
<g id="a">
<path d="m2.2188-3.6875h1.625c0.15625 0 0.40625 0 0.40625-0.29688 0-0.3125-0.25-0.3125-0.40625-0.3125h-1.625v-0.8125c0-0.1875 0-0.40625-0.34375-0.40625s-0.34375 0.20312-0.34375 0.40625v0.8125h-0.875c-0.15625 0-0.40625 0-0.40625 0.3125 0 0.29688 0.25 0.29688 0.39062 0.29688h0.89062v2.4375c0 0.95312 0.67188 1.3125 1.4062 1.3125s1.5312-0.4375 1.5312-1.3125c0-0.1875 0-0.39062-0.34375-0.39062-0.32812 0-0.34375 0.20312-0.34375 0.375 0 0.625-0.57812 0.71875-0.79688 0.71875-0.76562 0-0.76562-0.51562-0.76562-0.76562z"/>
</g>
<g id="b">
<path d="m4.2344-1.9062c0.20312 0 0.39062 0 0.39062-0.35938 0-1.1406-0.64062-2.125-1.9375-2.125-1.1875 0-2.1406 1-2.1406 2.2344 0 1.2031 1.0156 2.2188 2.2969 2.2188 1.3125 0 1.7812-0.90625 1.7812-1.1562 0-0.26562-0.28125-0.26562-0.34375-0.26562-0.1875 0-0.26562 0.03125-0.32812 0.21875-0.21875 0.5-0.76562 0.59375-1.0469 0.59375-0.75 0-1.4844-0.5-1.6562-1.3594zm-2.9688-0.59375c0.14062-0.73438 0.73438-1.2812 1.4219-1.2812 0.51562 0 1.1406 0.25 1.2344 1.2812z"/>
</g>
<g id="j">
<path d="m4.6406-1.0938c0-0.26562-0.28125-0.26562-0.34375-0.26562-0.15625 0-0.26562 0.015625-0.32812 0.21875-0.0625 0.125-0.25 0.59375-0.98438 0.59375-0.84375 0-1.5625-0.70312-1.5625-1.6094 0-0.46875 0.26562-1.625 1.625-1.625 0.20312 0 0.59375 0 0.59375 0.09375 0.015625 0.34375 0.20312 0.48438 0.4375 0.48438s0.45312-0.17188 0.45312-0.45312c0-0.73438-1.0469-0.73438-1.4844-0.73438-1.7188 0-2.3125 1.3594-2.3125 2.2344 0 1.2031 0.9375 2.2188 2.1875 2.2188 1.3906 0 1.7188-0.98438 1.7188-1.1562z"/>
</g>
<g id="o">
<path d="m3.0781-3.8906c0-0.3125-0.0625-0.40625-0.39062-0.40625h-1.4219c-0.15625 0-0.40625 0-0.40625 0.29688 0 0.3125 0.25 0.3125 0.40625 0.3125h1.125v3.0781h-1.2031c-0.15625 0-0.40625 0-0.40625 0.3125 0 0.29688 0.25 0.29688 0.40625 0.29688h2.9375c0.15625 0 0.40625 0 0.40625-0.29688 0-0.3125-0.25-0.3125-0.40625-0.3125h-1.0469zm0-1.7188c0-0.26562-0.21875-0.48438-0.5-0.48438s-0.5 0.21875-0.5 0.48438c0 0.28125 0.21875 0.5 0.5 0.5s0.5-0.21875 0.5-0.5z"/>
</g>
<g id="n">
<path d="m4.2812-3.6875h0.29688c0.15625 0 0.40625 0 0.40625-0.29688 0-0.3125-0.23438-0.3125-0.40625-0.3125h-1.1562c-0.15625 0-0.40625 0-0.40625 0.29688 0 0.3125 0.25 0.3125 0.40625 0.3125h0.28125l-1.0938 3.2031-1.0781-3.2031h0.26562c0.15625 0 0.40625 0 0.40625-0.29688 0-0.3125-0.23438-0.3125-0.40625-0.3125h-1.1562c-0.15625 0-0.40625 0-0.40625 0.3125 0 0.29688 0.25 0.29688 0.40625 0.29688h0.29688l1.1406 3.3906c0.125 0.34375 0.32812 0.34375 0.53125 0.34375 0.1875 0 0.42188 0 0.53125-0.34375z"/>
</g>
<g id="f">
<path d="m4.3594 0.53125c0-0.14062-0.078125-0.1875-0.25-0.29688-1.2344-0.84375-1.7031-2.1719-1.7031-3.2812 0-1 0.39062-2.3906 1.7188-3.2969 0.15625-0.10938 0.23438-0.14062 0.23438-0.29688 0-0.078125-0.046875-0.28125-0.3125-0.28125-0.28125 0-2.3281 1.3125-2.3281 3.875 0 1.1875 0.46875 2.0781 0.8125 2.5781 0.53125 0.73438 1.2812 1.2812 1.5156 1.2812 0.26562 0 0.3125-0.1875 0.3125-0.28125z"/>
</g>
<g id="i">
<path d="m1.5938-5.4844h1.25c0.84375 0 1.0625 0.625 1.0625 0.95312 0 0.40625-0.3125 1.0625-1.2812 1.0625h-1.0312zm1.9219 2.2969c0.64062-0.21875 1.0781-0.73438 1.0781-1.3594 0-0.73438-0.60938-1.5469-1.7188-1.5469h-2.25c-0.14062 0-0.39062 0-0.39062 0.29688 0 0.3125 0.25 0.3125 0.40625 0.3125h0.26562v4.875h-0.26562c-0.15625 0-0.40625 0-0.40625 0.3125 0 0.29688 0.25 0.29688 0.39062 0.29688h2.4531c1.125 0 1.7344-0.89062 1.7344-1.6719 0-0.6875-0.48438-1.3281-1.2969-1.5156zm-0.65625 2.5781h-1.2656v-2.25h1.375c0.84375 0 1.1406 0.71875 1.1406 1.1719 0 0.48438-0.375 1.0781-1.25 1.0781z"/>
</g>
<g id="g">
<path d="m3.5156-3.0469c0-1.1875-0.46875-2.0938-0.8125-2.5781-0.53125-0.73438-1.2812-1.2969-1.5156-1.2969-0.25 0-0.3125 0.20312-0.3125 0.28125 0 0.15625 0.10938 0.21875 0.15625 0.25 1.6406 1.0938 1.7969 2.6875 1.7969 3.3438 0 1-0.375 2.375-1.7188 3.2812-0.15625 0.10938-0.23438 0.15625-0.23438 0.29688 0 0.09375 0.0625 0.28125 0.3125 0.28125 0.28125 0 2.3281-1.3125 2.3281-3.8594z"/>
</g>
<g id="q">
<path d="m1.6562-3.8281c0-0.3125 0-0.46875-0.40625-0.46875h-0.71875c-0.15625 0-0.40625 0-0.40625 0.3125 0 0.29688 0.25 0.29688 0.39062 0.29688h0.45312v3.0781h-0.4375c-0.15625 0-0.40625 0-0.40625 0.3125 0 0.29688 0.25 0.29688 0.39062 0.29688h1.5938c0.14062 0 0.39062 0 0.39062-0.29688 0-0.3125-0.25-0.3125-0.40625-0.3125h-0.4375v-1.7656c0-1 0.73438-1.375 1.25-1.375s0.65625 0.28125 0.65625 0.875v2.2656h-0.375c-0.17188 0-0.42188 0-0.42188 0.3125 0 0.29688 0.28125 0.29688 0.42188 0.29688h1.5156c0.14062 0 0.40625 0 0.40625-0.29688 0-0.3125-0.25-0.3125-0.42188-0.3125h-0.4375v-2.3125c0-1-0.5-1.4375-1.2969-1.4375-0.65625 0-1.1094 0.34375-1.2969 0.53125z"/>
</g>
<g id="p">
<path d="m4.6562-2.1562c0-1.25-0.92188-2.2344-2.0469-2.2344-1.1094 0-2.0469 0.98438-2.0469 2.2344 0 1.2656 0.95312 2.2188 2.0469 2.2188s2.0469-0.95312 2.0469-2.2188zm-2.0469 1.6094c-0.73438 0-1.3594-0.75-1.3594-1.6719 0-0.90625 0.65625-1.5625 1.3594-1.5625 0.71875 0 1.3594 0.65625 1.3594 1.5625 0 0.92188-0.625 1.6719-1.3594 1.6719z"/>
</g>
<g id="l">
<path d="m3.5625-0.3125c0.015625 0.3125 0.21875 0.3125 0.40625 0.3125h0.71875c0.17188 0 0.42188 0 0.42188-0.3125 0-0.29688-0.26562-0.29688-0.40625-0.29688h-0.45312v-3.2812c0-0.3125-0.046875-0.40625-0.39062-0.40625h-0.73438c-0.15625 0-0.40625 0-0.40625 0.3125 0 0.29688 0.26562 0.29688 0.40625 0.29688h0.4375v2.125c0 0.89062-0.79688 1.0156-1.125 1.0156-0.78125 0-0.78125-0.32812-0.78125-0.65625v-2.6875c0-0.3125-0.0625-0.40625-0.40625-0.40625h-0.71875c-0.15625 0-0.40625 0-0.40625 0.3125 0 0.29688 0.25 0.29688 0.39062 0.29688h0.45312v2.5469c0 0.96875 0.6875 1.2031 1.4062 1.2031 0.42188 0 0.82812-0.10938 1.1875-0.375z"/>
</g>
<g id="z">
<path d="m1.6562-2.625c0-0.59375 0.57812-1.125 1.2031-1.125 0.73438 0 1.3125 0.73438 1.3125 1.5938 0 0.95312-0.6875 1.6094-1.3906 1.6094-0.78125 0-1.125-0.875-1.125-1.3594zm0 2.1719c0.40625 0.42188 0.84375 0.51562 1.1562 0.51562 1.0781 0 2.0469-0.95312 2.0469-2.2188 0-1.2188-0.875-2.2031-1.9375-2.2031-0.48438 0-0.92188 0.1875-1.2656 0.48438 0-0.28125-0.015625-0.42188-0.40625-0.42188h-0.71875c-0.15625 0-0.40625 0-0.40625 0.3125 0 0.29688 0.25 0.29688 0.39062 0.29688h0.45312v5.2969h-0.4375c-0.15625 0-0.40625 0-0.40625 0.29688 0 0.3125 0.25 0.3125 0.39062 0.3125h1.5938c0.14062 0 0.39062 0 0.39062-0.3125 0-0.29688-0.25-0.29688-0.40625-0.29688h-0.4375z"/>
</g>
<g id="ao">
<path d="m2.9531-5.6875c0-0.29688-0.046875-0.40625-0.39062-0.40625h-1.5781c-0.15625 0-0.40625 0-0.40625 0.3125 0 0.29688 0.26562 0.29688 0.40625 0.29688h1.2812v4.875h-1.2812c-0.15625 0-0.40625 0-0.40625 0.3125 0 0.29688 0.26562 0.29688 0.40625 0.29688h3.2656c0.15625 0 0.40625 0 0.40625-0.29688 0-0.3125-0.23438-0.3125-0.40625-0.3125h-1.2969z"/>
</g>
<g id="e">
<path d="m3.6562-0.3125c0.21875 0.29688 0.6875 0.3125 1.0625 0.3125 0.28125 0 0.5 0 0.5-0.3125 0-0.29688-0.25-0.29688-0.39062-0.29688-0.42188 0-0.51562-0.046875-0.59375-0.078125v-2.1562c0-0.70312-0.54688-1.5469-1.9844-1.5469-0.42188 0-1.4375 0-1.4375 0.73438 0 0.29688 0.20312 0.45312 0.4375 0.45312 0.15625 0 0.4375-0.09375 0.4375-0.45312 0-0.078125 0.015625-0.09375 0.21875-0.10938 0.14062-0.015625 0.26562-0.015625 0.35938-0.015625 0.75 0 1.2656 0.3125 1.2656 1.0156-1.75 0.03125-2.9844 0.53125-2.9844 1.4844 0 0.6875 0.625 1.3438 1.6406 1.3438 0.375 0 1-0.078125 1.4688-0.375zm-0.125-1.8594v0.84375c0 0.21875 0 0.4375-0.375 0.60938-0.35938 0.17188-0.8125 0.17188-0.89062 0.17188-0.625 0-1.0312-0.34375-1.0312-0.73438 0-0.48438 0.85938-0.85938 2.2969-0.89062z"/>
</g>
<g id="y">
<path d="m2.9688-2.5469c-0.23438-0.03125-0.42188-0.0625-0.67188-0.10938-0.29688-0.046875-0.96875-0.17188-0.96875-0.54688 0-0.26562 0.3125-0.57812 1.2656-0.57812 0.82812 0 0.96875 0.29688 1 0.5625 0 0.17188 0.03125 0.34375 0.32812 0.34375 0.35938 0 0.35938-0.21875 0.35938-0.42188v-0.6875c0-0.15625 0-0.40625-0.29688-0.40625-0.25 0-0.28125 0.14062-0.3125 0.21875-0.4375-0.21875-0.875-0.21875-1.0625-0.21875-1.6562 0-1.8906 0.82812-1.8906 1.1875 0 0.90625 1.0469 1.0781 1.9688 1.2188 0.48438 0.078125 1.2812 0.20312 1.2812 0.73438 0 0.375-0.375 0.70312-1.2812 0.70312-0.46875 0-1.0156-0.10938-1.2656-0.89062-0.0625-0.17188-0.09375-0.28125-0.35938-0.28125-0.34375 0-0.34375 0.20312-0.34375 0.40625v0.96875c0 0.15625 0 0.40625 0.29688 0.40625 0.09375 0 0.25-0.015625 0.375-0.375 0.48438 0.35938 1.0156 0.375 1.2969 0.375 1.5625 0 1.8906-0.82812 1.8906-1.3125 0-1.0312-1.2812-1.25-1.6094-1.2969z"/>
</g>
<g id="x">
<path d="m3.1562-5.8281c-0.09375-0.375-0.23438-0.375-0.54688-0.375-0.28125 0-0.45312 0-0.53125 0.375l-1.2031 5.2188c-0.14062 0-0.375 0-0.4375 0.015625-0.10938 0.0625-0.17188 0.17188-0.17188 0.29688 0 0.29688 0.26562 0.29688 0.4375 0.29688h1.0156c0.17188 0 0.42188 0 0.42188-0.29688 0-0.3125-0.20312-0.3125-0.5625-0.3125l0.21875-1.0312h1.625l0.23438 1.0312c-0.35938 0-0.5625 0-0.5625 0.3125 0 0.29688 0.23438 0.29688 0.42188 0.29688h1.0156c0.15625 0 0.42188 0 0.42188-0.29688 0-0.125-0.046875-0.23438-0.17188-0.28125-0.0625-0.03125-0.28125-0.03125-0.42188-0.03125zm-0.54688 0.42188h0.015625l0.64062 3.1562h-1.3125z"/>
</g>
<g id="w">
<path d="m4.8281-5.7969c0-0.15625 0-0.40625-0.29688-0.40625-0.1875 0-0.23438 0.10938-0.28125 0.17188-0.015625 0.046875-0.015625 0.0625-0.15625 0.3125-0.32812-0.28125-0.78125-0.48438-1.2969-0.48438-1.2812 0-2.3906 1.3438-2.3906 3.1562 0 1.8281 1.1094 3.1562 2.4062 3.1562 1.1562 0 2.0156-0.89062 2.0156-1.7812 0-0.32812-0.25-0.32812-0.35938-0.32812-0.078125 0-0.3125 0-0.32812 0.28125-0.078125 0.98438-0.875 1.2188-1.2969 1.2188-0.90625 0-1.75-1.0625-1.75-2.5469s0.85938-2.5469 1.75-2.5469c0.59375 0 1.1406 0.45312 1.2812 1.2656 0.03125 0.17188 0.046875 0.32812 0.34375 0.32812 0.35938 0 0.35938-0.20312 0.35938-0.40625z"/>
</g>
<g id="v">
<path d="m2.75-3.5625 1.5156-1.9219c0.35938 0 0.5625 0 0.5625-0.3125 0-0.29688-0.26562-0.29688-0.40625-0.29688h-0.875c-0.14062 0-0.40625 0-0.40625 0.3125 0 0.29688 0.26562 0.29688 0.40625 0.29688l-2.0938 2.6562v-2.6562h0.21875c0.14062 0 0.40625 0 0.40625-0.29688 0-0.3125-0.25-0.3125-0.40625-0.3125h-1c-0.15625 0-0.40625 0-0.40625 0.29688 0 0.3125 0.25 0.3125 0.40625 0.3125h0.21875v4.875h-0.21875c-0.15625 0-0.40625 0-0.40625 0.29688 0 0.3125 0.25 0.3125 0.40625 0.3125h1c0.14062 0 0.40625 0 0.40625-0.29688 0-0.3125-0.25-0.3125-0.40625-0.3125h-0.21875v-1.3281l0.92188-1.1562 1.3906 2.4844c-0.14062 0-0.39062 0-0.39062 0.29688 0 0.3125 0.25 0.3125 0.40625 0.3125h0.75c0.14062 0 0.40625 0 0.40625-0.29688 0-0.3125-0.23438-0.3125-0.51562-0.3125-0.03125-0.03125-0.0625-0.09375-0.078125-0.125z"/>
</g>
<g id="an">
<path d="m2.8594-2.2188 1.1406-1.4688h0.39062c0.14062 0 0.42188 0 0.42188-0.29688 0-0.3125-0.26562-0.3125-0.42188-0.3125h-1.1562c-0.15625 0-0.40625 0-0.40625 0.29688 0 0.3125 0.21875 0.3125 0.48438 0.3125l-0.73438 1-0.75-1c0.25 0 0.46875 0 0.46875-0.3125 0-0.29688-0.25-0.29688-0.39062-0.29688h-1.1719c-0.14062 0-0.40625 0-0.40625 0.3125 0 0.29688 0.26562 0.29688 0.40625 0.29688h0.40625l1.1719 1.4688-1.2344 1.6094h-0.40625c-0.14062 0-0.40625 0-0.40625 0.3125 0 0.29688 0.26562 0.29688 0.40625 0.29688h1.1719c0.15625 0 0.40625 0 0.40625-0.29688 0-0.3125-0.21875-0.3125-0.53125-0.3125l0.85938-1.2188 0.89062 1.2188c-0.28125 0-0.5 0-0.5 0.3125 0 0.29688 0.25 0.29688 0.40625 0.29688h1.1562c0.14062 0 0.40625 0 0.40625-0.29688 0-0.3125-0.25-0.3125-0.40625-0.3125h-0.39062z"/>
</g>
<g id="am">
<path d="m2.8125-0.03125c-0.15625 0.625-0.625 0.78125-0.73438 0.8125s-0.28125 0.09375-0.28125 0.28125c0 0.15625 0.14062 0.32812 0.3125 0.32812 0.32812 0 1.3438-0.54688 1.3438-1.6406 0-0.60938-0.39062-1-0.82812-1-0.40625 0-0.625 0.29688-0.625 0.625 0 0.375 0.28125 0.625 0.60938 0.625 0.0625 0 0.125-0.015625 0.20312-0.03125z"/>
</g>
<g id="al">
<path d="m1.8906-5.7344c-0.10938-0.32812-0.26562-0.35938-0.53125-0.35938h-0.6875c-0.14062 0-0.39062 0-0.39062 0.29688 0 0.3125 0.23438 0.3125 0.39062 0.3125h0.25v4.875h-0.25c-0.14062 0-0.39062 0-0.39062 0.29688 0 0.3125 0.23438 0.3125 0.39062 0.3125h1.0625c0.15625 0 0.40625 0 0.40625-0.29688 0-0.3125-0.25-0.3125-0.40625-0.3125h-0.25v-4.7344h0.015625l1.8281 4.9844c0.125 0.34375 0.29688 0.35938 0.54688 0.35938 0.29688 0 0.42188-0.03125 0.42188-0.40625v-5.0781h0.25c0.14062 0 0.39062 0 0.39062-0.29688 0-0.3125-0.23438-0.3125-0.39062-0.3125h-1.0625c-0.15625 0-0.39062 0-0.39062 0.3125 0 0.29688 0.25 0.29688 0.39062 0.29688h0.25v4.7344z"/>
</g>
<g id="ak">
<path d="m0.51562-8.1562v0.34375h0.23438c0.85938 0 0.90625 0.10938 0.90625 0.5625v6.3438c0 0.4375-0.046875 0.5625-0.90625 0.5625h-0.23438v0.34375h4.5c1.5312 0 2.6094-1.0469 2.6094-2.1875 0-0.96875-0.875-1.9219-2.2969-2.0781 1.1406-0.21875 1.9688-0.98438 1.9688-1.875 0-1.0312-1.0469-2.0156-2.6094-2.0156zm2.0469 3.7969v-2.9844c0-0.39062 0.015625-0.46875 0.54688-0.46875h1.5c1.2031 0 1.625 1.0156 1.625 1.6719 0 0.78125-0.60938 1.7812-1.9375 1.7812zm0.54688 4.0156c-0.53125 0-0.54688-0.09375-0.54688-0.48438v-3.2969h2.2344c1.1406 0 1.7344 1 1.7344 1.9219 0 0.96875-0.71875 1.8594-1.8906 1.8594z"/>
</g>
<g id="ag">
<path d="m2.2031-4.5781c0-0.32812-0.28125-0.57812-0.57812-0.57812-0.34375 0-0.57812 0.28125-0.57812 0.57812 0 0.35938 0.29688 0.57812 0.5625 0.57812 0.32812 0 0.59375-0.25 0.59375-0.57812zm0 4c0-0.32812-0.28125-0.57812-0.57812-0.57812-0.34375 0-0.57812 0.26562-0.57812 0.57812 0 0.34375 0.29688 0.57812 0.5625 0.57812 0.32812 0 0.59375-0.25 0.59375-0.57812z"/>
</g>
<g id="af">
<path d="m2-2.7812c0-1.1562 0.46875-2.25 1.3906-2.25 0.09375 0 0.125 0 0.17188 0.015625-0.09375 0.046875-0.28125 0.10938-0.28125 0.4375 0 0.34375 0.26562 0.48438 0.45312 0.48438 0.25 0 0.48438-0.15625 0.48438-0.48438 0-0.35938-0.32812-0.6875-0.84375-0.6875-1.0156 0-1.3594 1.0938-1.4219 1.3281h-0.015625v-1.3281l-1.6094 0.125v0.34375c0.8125 0 0.92188 0.09375 0.92188 0.67188v3.2344c0 0.54688-0.14062 0.54688-0.92188 0.54688v0.34375c0.34375-0.03125 1-0.03125 1.3594-0.03125 0.32812 0 1.1719 0 1.4375 0.03125v-0.34375h-0.23438c-0.875 0-0.89062-0.14062-0.89062-0.5625z"/>
</g>
<g id="k">
<path d="m4.5781-2.7656c0.26562 0 0.28125 0 0.28125-0.23438 0-1.2031-0.64062-2.3281-2.0938-2.3281-1.3594 0-2.4062 1.2344-2.4062 2.7031 0 1.5781 1.2188 2.75 2.5469 2.75 1.4219 0 1.9531-1.2969 1.9531-1.5469 0-0.078125-0.046875-0.125-0.125-0.125-0.09375 0-0.125 0.0625-0.14062 0.125-0.3125 1-1.1094 1.2812-1.625 1.2812-0.5 0-1.7031-0.34375-1.7031-2.4062v-0.21875zm-3.2969-0.23438c0.09375-1.875 1.1406-2.0938 1.4844-2.0938 1.2812 0 1.3438 1.6875 1.3594 2.0938z"/>
</g>
<g id="ae">
<path d="m4.3281-4.4219c-0.14062 0-0.59375 0-0.59375 0.48438 0 0.29688 0.20312 0.5 0.5 0.5 0.26562 0 0.5-0.17188 0.5-0.51562 0-0.79688-0.84375-1.375-1.8125-1.375-1.3906 0-2.5 1.2344-2.5 2.75 0 1.5312 1.1406 2.7031 2.5 2.7031 1.5781 0 1.9375-1.4375 1.9375-1.5469s-0.09375-0.10938-0.125-0.10938c-0.10938 0-0.125 0.03125-0.15625 0.1875-0.26562 0.84375-0.90625 1.2031-1.5469 1.2031-0.73438 0-1.7031-0.64062-1.7031-2.4531 0-1.9844 1.0156-2.4688 1.6094-2.4688 0.45312 0 1.1094 0.17188 1.3906 0.64062z"/>
</g>
<g id="ad">
<path d="m2.0781-7.3594c0-0.3125-0.25-0.59375-0.57812-0.59375-0.3125 0-0.57812 0.25-0.57812 0.57812 0 0.35938 0.28125 0.57812 0.57812 0.57812 0.35938 0 0.57812-0.29688 0.57812-0.5625zm-1.6406 2.2188v0.34375c0.75 0 0.85938 0.078125 0.85938 0.65625v3.25c0 0.54688-0.125 0.54688-0.90625 0.54688v0.34375c0.34375-0.03125 0.90625-0.03125 1.2656-0.03125 0.125 0 0.8125 0 1.2188 0.03125v-0.34375c-0.76562 0-0.8125-0.0625-0.8125-0.53125v-4.3906z"/>
</g>
<g id="ac">
<path d="m4.875-4.0156c0.10938-0.26562 0.3125-0.78125 1.0781-0.79688v-0.34375c-0.34375 0.03125-0.51562 0.03125-0.89062 0.03125-0.25 0-0.42188 0-0.96875-0.03125v0.34375c0.5 0.03125 0.5625 0.39062 0.5625 0.51562 0 0.10938-0.03125 0.17188-0.09375 0.3125l-1.2188 3.0938-1.3281-3.375c-0.0625-0.17188-0.078125-0.17188-0.078125-0.23438 0-0.3125 0.45312-0.3125 0.67188-0.3125v-0.34375c-0.29688 0.03125-0.92188 0.03125-1.25 0.03125-0.39062 0-0.42188 0-1.1406-0.03125v0.34375c0.67188 0 0.78125 0.0625 0.92188 0.42188l1.7188 4.2812c0.0625 0.17188 0.078125 0.23438 0.21875 0.23438 0.09375 0 0.15625-0.03125 0.25-0.23438z"/>
</g>
<g id="ab">
<path d="m3.2344-2.2656v-0.64062h-3.1094v0.64062z"/>
</g>
<g id="aa">
<path d="m2.6094-3.7969h2.0156c1.4062 0 2.6719-0.95312 2.6719-2.1562 0-1.1562-1.1562-2.2031-2.7656-2.2031h-4.0312v0.34375h0.23438c0.875 0 0.90625 0.10938 0.90625 0.5625v6.3438c0 0.4375-0.03125 0.5625-0.90625 0.5625h-0.23438v0.34375c0.28125-0.03125 1.2656-0.03125 1.6094-0.03125 0.35938 0 1.3438 0 1.625 0.03125v-0.34375h-0.23438c-0.85938 0-0.89062-0.125-0.89062-0.5625zm-0.03125-0.29688v-3.25c0-0.39062 0.03125-0.46875 0.54688-0.46875h1.125c1.9375 0 1.9375 1.3438 1.9375 1.8594 0 0.5 0 1.8594-1.9375 1.8594z"/>
</g>
<g id="aj">
<path d="m4.6094-3.1875c0-0.65625 0-1.125-0.51562-1.5938-0.42188-0.375-0.96875-0.54688-1.4844-0.54688-0.98438 0-1.7344 0.64062-1.7344 1.4219 0 0.34375 0.21875 0.51562 0.5 0.51562s0.48438-0.20312 0.48438-0.5c0-0.48438-0.42188-0.48438-0.60938-0.48438 0.28125-0.5 0.85938-0.71875 1.3281-0.71875 0.54688 0 1.2656 0.45312 1.2656 1.5312v0.48438c-2.4062 0.03125-3.3125 1.0312-3.3125 1.9531 0 0.95312 1.0938 1.25 1.8281 1.25 0.78125 0 1.3281-0.48438 1.5469-1.0625 0.046875 0.5625 0.42188 1 0.9375 1 0.25 0 0.9375-0.17188 0.9375-1.125v-0.67188h-0.26562v0.67188c0 0.6875-0.28125 0.78125-0.45312 0.78125-0.45312 0-0.45312-0.64062-0.45312-0.8125zm-0.76562 1.5c0 1.1719-0.875 1.5625-1.3906 1.5625-0.59375 0-1.0781-0.42188-1.0781-1 0-1.5781 2.0312-1.7188 2.4688-1.75z"/>
</g>
<g id="ai">
<path d="m3.3438-3.1719-0.078125-0.10938c0-0.046875 0.75-0.6875 0.84375-0.78125 0.82812-0.71875 1.3594-0.73438 1.6094-0.75v-0.34375c-0.25 0.03125-0.5625 0.03125-0.90625 0.03125-0.3125 0-0.92188 0-1.2031-0.03125v0.34375c0.20312 0.015625 0.34375 0.125 0.34375 0.3125 0 0.25-0.23438 0.45312-0.25 0.45312l-1.7031 1.5156v-5.7656l-1.6719 0.14062v0.34375c0.8125 0 0.92188 0.078125 0.92188 0.67188v6.25c0 0.54688-0.14062 0.54688-0.92188 0.54688v0.34375c0.34375-0.03125 0.92188-0.03125 1.2812-0.03125 0.34375 0 0.92188 0 1.2656 0.03125v-0.34375c-0.76562 0-0.92188 0-0.92188-0.54688v-1.2656l0.76562-0.67188 1.1562 1.6562c0.17188 0.25 0.26562 0.39062 0.26562 0.54688 0 0.21875-0.17188 0.28125-0.42188 0.28125v0.34375c0.29688-0.03125 0.89062-0.03125 1.2031-0.03125 0.51562 0 0.54688 0 1.0469 0.03125v-0.34375c-0.3125 0-0.6875 0-1.0156-0.5z"/>
</g>
<g id="ah">
<path d="m2.0156-4.8125h1.6719v-0.34375h-1.6719v-2.1875h-0.26562c-0.015625 1.1094-0.45312 2.2656-1.5312 2.2969v0.23438h1.0156v3.3281c0 1.3281 0.875 1.6094 1.5156 1.6094 0.75 0 1.1406-0.75 1.1406-1.6094v-0.67188h-0.25v0.65625c0 0.85938-0.35938 1.3594-0.8125 1.3594-0.8125 0-0.8125-1.1094-0.8125-1.3125z"/>
</g>
<clipPath id="bb">
<path d="m115 95h12v9h-12z"/>
</clipPath>
<clipPath id="ba">
<path d="m0.52734 105.16h299v-105h-299zm122.39-6.1602 0.15625 0.40625-4.3438 3.4336 0.21875-2.1094-1.543-1.4492z" clip-rule="evenodd"/>
</clipPath>
<clipPath id="az">
<path d="m0.52734 65h79.473v2h-79.473z"/>
</clipPath>
<clipPath id="ay">
<path d="m145 96h11v8h-11z"/>
</clipPath>
<clipPath id="ax">
<path d="m0.52734 105.16h299v-105h-299zm147.78-5.2461 0.09375-0.41016 5.543-0.097656-1.4492 1.5156 0.37891 2.0781z" clip-rule="evenodd"/>
</clipPath>
</defs>
<path transform="matrix(.1 0 0 -.1 .528 105.16)" d="m1422 392.39c0-195.74-126.91-354.38-283.48-354.38s-283.52 158.63-283.52 354.38c0 195.7 126.95 354.38 283.52 354.38s283.48-158.67 283.48-354.38z" fill="none" stroke="#000" stroke-miterlimit="10" stroke-width="2.3625"/>
<path transform="matrix(.1 0 0 -.1 .528 105.16)" d="m1847.3 392.39c0-195.74-126.95-354.38-283.52-354.38s-283.48 158.63-283.48 354.38c0 195.7 126.91 354.38 283.48 354.38s283.52-158.67 283.52-354.38z" fill="none" stroke="#000" stroke-miterlimit="10" stroke-width="2.3625"/>
<path d="m171.08 65.926c0 19.574-15.867 35.438-35.438 35.438s-35.438-15.863-35.438-35.438c0-19.57 15.867-35.438 35.438-35.438s35.438 15.867 35.438 35.438" fill="#fff" fill-rule="evenodd"/>
<path transform="matrix(.1 0 0 -.1 .528 105.16)" d="m1705.5 392.39c0-195.74-158.67-354.38-354.38-354.38s-354.38 158.63-354.38 354.38c0 195.7 158.67 354.38 354.38 354.38s354.38-158.67 354.38-354.38z" fill="none" stroke="#000" stroke-miterlimit="10" stroke-width="4.725"/>
<g clip-path="url(#bb)">
<g clip-path="url(#ba)">
<path transform="matrix(.1 0 0 -.1 .528 105.16)" d="m1184.8 44.619 37.812 14.18" fill="none" stroke="#000" stroke-miterlimit="10" stroke-width="2.3625"/>
</g>
</g>
<path d="m118.73 102.84 3.7461-3.4336-5.0703-0.125 1.543 1.4492-0.21875 2.1094" fill-rule="evenodd"/>
<path transform="matrix(.1 0 0 -.1 .528 105.16)" d="m1182 23.212 37.461 34.336-50.703 1.25 15.43-14.492z" fill="none" stroke="#000" stroke-miterlimit="10" stroke-width="2.3625"/>
<path transform="matrix(.1 0 0 -.1 .528 105.16)" d="m1918.1 392.39h1063.1" fill="none" stroke="#000" stroke-miterlimit="10" stroke-width="2.3625"/>
<g clip-path="url(#az)">
<path transform="matrix(.1 0 0 -.1 .528 105.16)" d="m4.4856 392.39h779.65" fill="none" stroke="#000" stroke-miterlimit="10" stroke-width="2.3625"/>
</g>
<path transform="matrix(.1 0 0 -.1 .528 105.16)" d="m1137.3 108.88h2.5" fill="none" stroke="#000" stroke-miterlimit="10" stroke-width="2.3625"/>
<g clip-path="url(#ay)">
<g clip-path="url(#ax)">
<path transform="matrix(.1 0 0 -.1 .528 105.16)" d="m1520.3 42.08-40 11.992" fill="none" stroke="#000" stroke-miterlimit="10" stroke-width="2.3625"/>
</g>
</g>
<path d="m153.94 99.41-5.0703 0.44141 4 3.1523-0.37891-2.0781 1.4492-1.5156" fill-rule="evenodd"/>
<path transform="matrix(.1 0 0 -.1 .528 105.16)" d="m1534.1 57.548-50.703-4.4141 40-31.523-3.7891 20.781z" fill="none" stroke="#000" stroke-miterlimit="10" stroke-width="2.3625"/>
<g>
<use x="122.648" y="76.344" xlink:href="#aw"/>
<use x="130.39691" y="76.344" xlink:href="#m"/>
<use x="135.37821" y="76.344" xlink:href="#s"/>
<use x="140.913431" y="76.344" xlink:href="#m"/>
<use x="145.894731" y="76.344" xlink:href="#as"/>
<use x="113.917" y="51.775" xlink:href="#ar"/>
<use x="123.329664" y="51.775" xlink:href="#m"/>
<use x="128.310964" y="51.775" xlink:href="#r"/>
<use x="132.213315" y="51.775" xlink:href="#aq"/>
<use x="136.08777" y="51.775" xlink:href="#ap"/>
<use x="143.832695" y="51.775" xlink:href="#m"/>
<use x="148.813995" y="51.775" xlink:href="#h"/>
<use x="154.349216" y="51.775" xlink:href="#u"/>
<use x="192.352" y="46.106" xlink:href="#d"/>
<use x="197.582365" y="46.106" xlink:href="#c"/>
<use x="202.81273" y="46.106" xlink:href="#a"/>
</g>
<path transform="matrix(1 0 0 -1 208.67 45.907)" d="m0.001875 7.5e-4h3.1367" fill="none" stroke="#000" stroke-miterlimit="10" stroke-width=".398"/>
<g>
<use x="211.809" y="46.106" xlink:href="#d"/>
<use x="217.039365" y="46.106" xlink:href="#b"/>
<use x="222.26973" y="46.106" xlink:href="#j"/>
<use x="227.500095" y="46.106" xlink:href="#b"/>
<use x="232.73046" y="46.106" xlink:href="#o"/>
<use x="237.960825" y="46.106" xlink:href="#n"/>
<use x="243.19119" y="46.106" xlink:href="#b"/>
<use x="248.421555" y="46.106" xlink:href="#f"/>
<use x="253.65192" y="46.106" xlink:href="#i"/>
<use x="258.882285" y="46.106" xlink:href="#g"/>
<use x="267.433" y="46.106" xlink:href="#h"/>
<use x="272.968221" y="46.106" xlink:href="#s"/>
<use x="278.503441" y="46.106" xlink:href="#t"/>
<use x="192.352" y="58.39" xlink:href="#q"/>
<use x="197.582365" y="58.39" xlink:href="#p"/>
<use x="202.81273" y="58.39" xlink:href="#a"/>
</g>
<path transform="matrix(1 0 0 -1 208.67 58.191)" d="m0.001875-4.0625e-4h3.1367" fill="none" stroke="#000" stroke-miterlimit="10" stroke-width=".398"/>
<g>
<use x="211.809" y="58.39" xlink:href="#j"/>
<use x="217.039365" y="58.39" xlink:href="#p"/>
<use x="222.26973" y="58.39" xlink:href="#d"/>
<use x="227.500095" y="58.39" xlink:href="#d"/>
<use x="232.73046" y="58.39" xlink:href="#l"/>
<use x="237.960825" y="58.39" xlink:href="#z"/>
<use x="243.19119" y="58.39" xlink:href="#a"/>
<use x="248.421555" y="58.39" xlink:href="#f"/>
<use x="253.65192" y="58.39" xlink:href="#i"/>
<use x="258.882285" y="58.39" xlink:href="#g"/>
<use x="192.352" y="89.573" xlink:href="#c"/>
<use x="197.582365" y="89.573" xlink:href="#b"/>
<use x="202.81273" y="89.573" xlink:href="#ao"/>
<use x="208.043095" y="89.573" xlink:href="#o"/>
<use x="213.27346" y="89.573" xlink:href="#n"/>
<use x="218.503825" y="89.573" xlink:href="#b"/>
<use x="223.73419" y="89.573" xlink:href="#d"/>
</g>
<path transform="matrix(1 0 0 -1 229.59 89.374)" d="m0.00175-1e-3h3.1367" fill="none" stroke="#000" stroke-miterlimit="10" stroke-width=".398"/>
<g>
<use x="232.73" y="89.573" xlink:href="#c"/>
<use x="237.960365" y="89.573" xlink:href="#e"/>
<use x="243.19073" y="89.573" xlink:href="#a"/>
<use x="248.421095" y="89.573" xlink:href="#e"/>
<use x="253.65146" y="89.573" xlink:href="#f"/>
<use x="258.881825" y="89.573" xlink:href="#c"/>
<use x="264.11219" y="89.573" xlink:href="#e"/>
<use x="269.342555" y="89.573" xlink:href="#a"/>
<use x="274.57292" y="89.573" xlink:href="#e"/>
<use x="279.803285" y="89.573" xlink:href="#g"/>
<use x="192.352" y="101.857" xlink:href="#l"/>
<use x="197.582365" y="101.857" xlink:href="#c"/>
<use x="202.81273" y="101.857" xlink:href="#a"/>
</g>
<path transform="matrix(1 0 0 -1 208.67 101.66)" d="m0.001875 0.00175h3.1367" fill="none" stroke="#000" stroke-miterlimit="10" stroke-width=".398"/>
<g>
<use x="211.809" y="101.857" xlink:href="#y"/>
<use x="217.039365" y="101.857" xlink:href="#b"/>
<use x="222.26973" y="101.857" xlink:href="#q"/>
<use x="227.500095" y="101.857" xlink:href="#c"/>
<use x="232.73046" y="101.857" xlink:href="#f"/>
<use x="237.960825" y="101.857" xlink:href="#x"/>
<use x="243.19119" y="101.857" xlink:href="#w"/>
<use x="248.421555" y="101.857" xlink:href="#v"/>
<use x="253.65192" y="101.857" xlink:href="#g"/>
<use x="192.352" y="77.289" xlink:href="#b"/>
<use x="197.582365" y="77.289" xlink:href="#an"/>
<use x="202.81273" y="77.289" xlink:href="#a"/>
<use x="208.043095" y="77.289" xlink:href="#d"/>
<use x="213.27346" y="77.289" xlink:href="#e"/>
<use x="218.503825" y="77.289" xlink:href="#j"/>
<use x="223.73419" y="77.289" xlink:href="#a"/>
</g>
<path transform="matrix(1 0 0 -1 229.59 77.09)" d="m0.00175 1.5625e-4h3.1367" fill="none" stroke="#000" stroke-miterlimit="10" stroke-width=".398"/>
<g>
<use x="232.73" y="77.289" xlink:href="#c"/>
<use x="237.960365" y="77.289" xlink:href="#e"/>
<use x="243.19073" y="77.289" xlink:href="#a"/>
<use x="248.421095" y="77.289" xlink:href="#e"/>
<use x="253.65146" y="77.289" xlink:href="#f"/>
<use x="258.881825" y="77.289" xlink:href="#i"/>
<use x="264.11219" y="77.289" xlink:href="#am"/>
<use x="269.342555" y="77.289" xlink:href="#c"/>
<use x="274.57292" y="77.289" xlink:href="#e"/>
<use x="279.803285" y="77.289" xlink:href="#a"/>
<use x="285.03365" y="77.289" xlink:href="#e"/>
<use x="290.264015" y="77.289" xlink:href="#g"/>
<use x="1.001" y="9.253" xlink:href="#ak"/>
<use x="9.290736" y="9.253" xlink:href="#ag"/>
<use x="16.439945" y="9.253" xlink:href="#af"/>
<use x="20.992485" y="9.253" xlink:href="#k"/>
<use x="26.195388" y="9.253" xlink:href="#ae"/>
<use x="31.398292" y="9.253" xlink:href="#k"/>
<use x="36.601195" y="9.253" xlink:href="#ad"/>
<use x="39.853009" y="9.253" xlink:href="#ac"/>
<use x="45.708666" y="9.253" xlink:href="#k"/>
<use x="50.911569" y="9.253" xlink:href="#ab"/>
<use x="54.813746" y="9.253" xlink:href="#aa"/>
<use x="62.45551" y="9.253" xlink:href="#aj"/>
<use x="68.308776" y="9.253" xlink:href="#ai"/>
<use x="74.164433" y="9.253" xlink:href="#k"/>
<use x="79.367336" y="9.253" xlink:href="#ah"/>
<use x="1.001" y="77.761" xlink:href="#l"/>
<use x="6.231365" y="77.761" xlink:href="#c"/>
<use x="11.46173" y="77.761" xlink:href="#a"/>
</g>
<path transform="matrix(1 0 0 -1 17.32 77.562)" d="m3.125e-4 -5e-4h3.1367" fill="none" stroke="#000" stroke-miterlimit="10" stroke-width=".398"/>
<g>
<use x="20.458" y="77.761" xlink:href="#y"/>
<use x="25.688365" y="77.761" xlink:href="#b"/>
<use x="30.91873" y="77.761" xlink:href="#q"/>
<use x="36.149095" y="77.761" xlink:href="#c"/>
<use x="41.37946" y="77.761" xlink:href="#f"/>
<use x="46.609825" y="77.761" xlink:href="#al"/>
<use x="51.84019" y="77.761" xlink:href="#x"/>
<use x="57.070555" y="77.761" xlink:href="#w"/>
<use x="62.30092" y="77.761" xlink:href="#v"/>
<use x="67.531285" y="77.761" xlink:href="#g"/>
<use x="1.001" y="46.106" xlink:href="#d"/>
<use x="6.231365" y="46.106" xlink:href="#c"/>
<use x="11.46173" y="46.106" xlink:href="#a"/>
</g>
<path transform="matrix(1 0 0 -1 17.32 45.907)" d="m3.125e-4 7.5e-4h3.1367" fill="none" stroke="#000" stroke-miterlimit="10" stroke-width=".398"/>
<g>
<use x="20.458" y="46.106" xlink:href="#d"/>
<use x="25.688365" y="46.106" xlink:href="#b"/>
<use x="30.91873" y="46.106" xlink:href="#j"/>
<use x="36.149095" y="46.106" xlink:href="#b"/>
<use x="41.37946" y="46.106" xlink:href="#o"/>
<use x="46.609825" y="46.106" xlink:href="#n"/>
<use x="51.84019" y="46.106" xlink:href="#b"/>
<use x="57.070555" y="46.106" xlink:href="#f"/>
<use x="62.30092" y="46.106" xlink:href="#i"/>
<use x="67.531285" y="46.106" xlink:href="#g"/>
<use x="1.001" y="58.39" xlink:href="#h"/>
<use x="6.536221" y="58.39" xlink:href="#s"/>
<use x="12.071441" y="58.39" xlink:href="#t"/>
<use x="20.926" y="58.39" xlink:href="#j"/>
<use x="26.156365" y="58.39" xlink:href="#p"/>
<use x="31.38673" y="58.39" xlink:href="#d"/>
<use x="36.617095" y="58.39" xlink:href="#d"/>
<use x="41.84746" y="58.39" xlink:href="#l"/>
<use x="47.077825" y="58.39" xlink:href="#z"/>
<use x="52.30819" y="58.39" xlink:href="#a"/>
<use x="57.538555" y="58.39" xlink:href="#f"/>
<use x="62.76892" y="58.39" xlink:href="#i"/>
<use x="67.999285" y="58.39" xlink:href="#g"/>
<use x="107.4" y="64.06" xlink:href="#av"/>
<use x="114.87195" y="64.06" xlink:href="#h"/>
<use x="120.407171" y="64.06" xlink:href="#u"/>
<use x="123.451741" y="64.06" xlink:href="#r"/>
<use x="127.354092" y="64.06" xlink:href="#h"/>
<use x="132.889312" y="64.06" xlink:href="#u"/>
<use x="139.251428" y="64.06" xlink:href="#t"/>
<use x="144.786649" y="64.06" xlink:href="#h"/>
<use x="150.32187" y="64.06" xlink:href="#r"/>
<use x="154.22422" y="64.06" xlink:href="#au"/>
<use x="158.372647" y="64.06" xlink:href="#at"/>
</g>
</svg>
