<svg width="390pt" height="322pt" version="1.1" viewBox="0 0 390 322" xmlns="http://www.w3.org/2000/svg" xmlns:xlink="http://www.w3.org/1999/xlink">
<defs>
<g id="ax">
<path d="m5.375-5.2969c0.5625-0.53125 1.125-0.54688 1.2656-0.54688v-0.28125c-0.25 0.03125-0.70312 0.03125-0.79688 0.03125-0.375 0-0.70312-0.015625-1.1094-0.03125v0.28125c0.25 0 0.39062 0.125 0.39062 0.29688 0 0.0625-0.03125 0.14062-0.078125 0.20312l-2.9844 2.7656v-2.8438c0-0.32812 0.015625-0.42188 0.70312-0.42188h0.21875v-0.28125c-0.40625 0.03125-0.90625 0.03125-1.3281 0.03125-0.40625 0-0.90625 0-1.3125-0.03125v0.28125h0.20312c0.6875 0 0.70312 0.09375 0.70312 0.42188v4.7188c0 0.32812-0.015625 0.42188-0.70312 0.42188h-0.20312v0.28125c0.40625-0.03125 0.90625-0.03125 1.3125-0.03125 0.42188 0 0.92188 0 1.3281 0.03125v-0.28125h-0.21875c-0.6875 0-0.70312-0.09375-0.70312-0.42188v-1.5469l1.0938-1 1.6719 2.375c0.078125 0.10938 0.15625 0.23438 0.15625 0.34375 0 0.25-0.34375 0.25-0.51562 0.25v0.28125c0.40625-0.03125 0.84375-0.03125 1.25-0.03125 0.23438 0 0.59375 0 1.0469 0.03125v-0.28125c-0.5625 0-0.6875-0.078125-0.96875-0.48438l-2.1094-2.9844z"/>
</g>
<g id="t">
<path d="m3.0625-0.64062c0.046875 0.375 0.3125 0.6875 0.70312 0.6875 0.21875 0 0.78125-0.125 0.78125-0.84375v-0.5h-0.25v0.48438c0 0.10938 0 0.54688-0.32812 0.54688-0.3125 0-0.3125-0.42188-0.3125-0.5625v-1.5781c0-0.51562 0-0.8125-0.40625-1.1875-0.32812-0.29688-0.76562-0.42188-1.2188-0.42188-0.75 0-1.375 0.375-1.375 0.95312 0 0.26562 0.1875 0.42188 0.42188 0.42188s0.40625-0.17188 0.40625-0.40625c0-0.39062-0.39062-0.4375-0.40625-0.4375 0.25-0.23438 0.6875-0.3125 0.9375-0.3125 0.45312 0 0.96875 0.34375 0.96875 1.1406v0.28125c-0.48438 0.03125-1.1562 0.0625-1.75 0.35938-0.65625 0.3125-0.84375 0.78125-0.84375 1.1406 0 0.73438 0.85938 0.96875 1.4688 0.96875 0.73438 0 1.0781-0.48438 1.2031-0.73438zm-0.078125-0.625c0 0.875-0.67188 1.1406-1.0625 1.1406-0.42188 0-0.8125-0.3125-0.8125-0.75 0-0.59375 0.5-1.2188 1.875-1.2812z"/>
</g>
<g id="as">
<path d="m1.6719-2.3281c0-0.95312 0.67188-1.4062 1.2344-1.4062 0.53125 0 0.64062 0.4375 0.64062 0.96875v2.0781c0 0.40625-0.09375 0.40625-0.6875 0.40625v0.28125c0.42188-0.015625 0.59375-0.03125 1.0312-0.03125 0.42188 0 0.54688 0.015625 1.0156 0.03125v-0.28125c-0.45312 0-0.6875 0-0.6875-0.28125v-1.7188c0-0.73438 0-1-0.25-1.3125-0.20312-0.25-0.54688-0.375-1-0.375-0.82812 0-1.2188 0.625-1.3438 0.875h-0.015625v-0.875l-1.2969 0.10938v0.26562c0.60938 0 0.6875 0.0625 0.6875 0.51562v2.3906c0 0.40625-0.09375 0.40625-0.6875 0.40625v0.28125c0.42188-0.015625 0.59375-0.03125 1.0312-0.03125 0.42188 0 0.54688 0.015625 1.0156 0.03125v-0.28125c-0.59375 0-0.6875 0-0.6875-0.40625z"/>
</g>
<g id="ar">
<path d="m1.6562-6.2188-1.3281 0.09375v0.28125c0.60938 0 0.6875 0.0625 0.6875 0.5v4.6562c0 0.40625-0.09375 0.40625-0.6875 0.40625v0.28125c0.42188-0.015625 0.59375-0.03125 1-0.03125 0.42188 0 0.57812 0.015625 1.0156 0.03125v-0.28125c-0.59375 0-0.6875 0-0.6875-0.40625z"/>
</g>
<g id="aq">
<path d="m3.4844-1.0781c0 0.15625 0 0.1875-0.125 0.375-0.28125 0.40625-0.70312 0.57812-1.0469 0.57812-0.39062 0-0.75-0.21875-0.98438-0.59375-0.23438-0.39062-0.25-0.90625-0.25-1.2031 0-0.42188 0.046875-0.89062 0.28125-1.25 0.20312-0.29688 0.5625-0.5625 1.0469-0.5625 0.375 0 0.73438 0.1875 0.96875 0.53125 0.10938 0.14062 0.10938 0.14062 0.10938 0.3125zm0.03125-2.3594c-0.046875-0.046875-0.45312-0.53125-1.1406-0.53125-1.1094 0-2.0625 0.89062-2.0625 2.0469 0 1.1094 0.89062 2.0156 1.9531 2.0156 0.65625 0 1.0625-0.375 1.2188-0.5625v0.5625l1.3594-0.09375v-0.28125c-0.60938 0-0.6875-0.0625-0.6875-0.5v-5.4375l-1.3281 0.09375v0.28125c0.60938 0 0.6875 0.0625 0.6875 0.5z"/>
</g>
<g id="s">
<path d="m3.5469-1.5c0 0.79688-0.4375 1.375-1.0938 1.375-0.73438 0-0.78125-0.39062-0.78125-0.875v-2.9688l-1.3594 0.10938v0.26562c0.6875 0 0.6875 0.03125 0.6875 0.82812v1.3438c0 0.59375 0 0.96875 0.42188 1.2812 0.25 0.17188 0.625 0.23438 0.98438 0.23438 0.46875 0 0.90625-0.20312 1.1562-0.73438h0.015625v0.73438l1.3281-0.09375v-0.28125c-0.60938 0-0.6875-0.0625-0.6875-0.5v-3.1875l-1.3594 0.10938v0.26562c0.60938 0 0.6875 0.0625 0.6875 0.51562z"/>
</g>
<g id="x">
<path d="m1.5938-2.0469c0-0.375 0.09375-1.6875 1.125-1.6875-0.015625 0.015625-0.15625 0.125-0.15625 0.32812 0 0.25 0.1875 0.40625 0.39062 0.40625 0.1875 0 0.39062-0.14062 0.39062-0.40625 0-0.28125-0.26562-0.5625-0.67188-0.5625-0.53125 0-0.90625 0.375-1.125 0.9375v-0.9375l-1.2812 0.10938v0.26562c0.60938 0 0.6875 0.0625 0.6875 0.51562v2.3906c0 0.40625-0.09375 0.40625-0.6875 0.40625v0.28125c0.48438-0.015625 0.59375-0.03125 1.0469-0.03125 0.35938 0 0.57812 0.015625 1.1406 0.03125v-0.28125h-0.17188c-0.65625 0-0.6875-0.09375-0.6875-0.42188z"/>
</g>
<g id="ap">
<path d="m3.2656-3.5312c-0.1875 0.046875-0.375 0.17188-0.375 0.42188 0 0.23438 0.1875 0.42188 0.42188 0.42188s0.42188-0.15625 0.42188-0.4375c0-0.54688-0.625-0.89062-1.4219-0.89062-1.1406 0-2 0.95312-2 2.0781 0 1.1562 0.92188 2.0312 1.9844 2.0312 1.25 0 1.5312-1.0781 1.5312-1.1562 0-0.10938-0.09375-0.10938-0.125-0.10938-0.09375 0-0.09375 0.015625-0.15625 0.17188-0.20312 0.60938-0.70312 0.84375-1.1562 0.84375-0.57812 0-1.3125-0.46875-1.3125-1.7969 0-1.3906 0.71875-1.8125 1.25-1.8125 0.125 0 0.60938 0.015625 0.9375 0.23438z"/>
</g>
<g id="ao">
<path d="m1.6406-6.2188-1.3281 0.09375v0.28125c0.60938 0 0.6875 0.0625 0.6875 0.5v4.6562c0 0.40625-0.09375 0.40625-0.6875 0.40625v0.28125c0.42188-0.015625 0.59375-0.03125 1.0312-0.03125 0.42188 0 0.54688 0.015625 1.0156 0.03125v-0.28125c-0.59375 0-0.6875 0-0.6875-0.40625v-1.6406c0-0.95312 0.67188-1.4062 1.2344-1.4062 0.53125 0 0.64062 0.4375 0.64062 0.96875v2.0781c0 0.40625-0.09375 0.40625-0.6875 0.40625v0.28125c0.42188-0.015625 0.59375-0.03125 1.0312-0.03125 0.42188 0 0.54688 0.015625 1.0156 0.03125v-0.28125c-0.45312 0-0.6875 0-0.6875-0.28125v-1.7188c0-0.73438 0-1-0.25-1.3125-0.20312-0.25-0.54688-0.375-1-0.375-0.59375 0-1.0469 0.3125-1.3125 0.82812h-0.015625z"/>
</g>
<g id="aw">
<path d="m3.6719-6.2344c-0.046875-0.10938-0.078125-0.1875-0.21875-0.1875s-0.15625 0.046875-0.21875 0.20312l-1.9219 5.3281c-0.10938 0.29688-0.3125 0.60938-1 0.60938v0.28125c0.32812-0.03125 0.57812-0.03125 0.90625-0.03125 0.3125 0 0.51562 0.015625 1.0156 0.03125v-0.28125c-0.51562 0-0.67188-0.28125-0.67188-0.45312 0-0.078125 0.03125-0.125 0.046875-0.17188l0.42188-1.1562h2.3125l0.48438 1.3594c0.046875 0.078125 0.046875 0.10938 0.046875 0.15625 0 0.26562-0.5 0.26562-0.73438 0.26562v0.28125c0.40625-0.03125 0.875-0.03125 1.2812-0.03125s0.4375 0 1.1719 0.03125v-0.28125h-0.14062c-0.5625 0-0.65625-0.078125-0.75-0.32812zm0.57812 3.8906h-2.125l1.0625-2.9375z"/>
</g>
<g id="y">
<path d="m2.6875-3.5938v-0.26562h-1.0625v-1.0156c0-0.8125 0.4375-1.2188 0.82812-1.2188 0.078125 0 0.17188 0.015625 0.26562 0.046875-0.09375 0.03125-0.23438 0.14062-0.23438 0.375s0.17188 0.39062 0.39062 0.39062c0.25 0 0.40625-0.17188 0.40625-0.40625 0-0.34375-0.34375-0.64062-0.82812-0.64062-0.70312 0-1.4375 0.53125-1.4375 1.4375v1.0312h-0.70312v0.26562h0.70312v2.9062c0 0.40625-0.09375 0.40625-0.6875 0.40625v0.28125c0.46875-0.015625 0.59375-0.03125 1.0469-0.03125 0.35938 0 0.57812 0.015625 1.1406 0.03125v-0.28125h-0.1875c-0.65625 0-0.67188-0.09375-0.67188-0.42188v-2.8906z"/>
</g>
<g id="bi">
<path d="m4.25-2.875c0-0.59375-0.03125-1.375-0.34375-2.0469-0.40625-0.84375-1.0781-1.0469-1.5938-1.0469-0.54688 0-1.2344 0.20312-1.625 1.0781-0.28125 0.60938-0.32812 1.3438-0.32812 2.0156 0 0.59375 0.015625 1.4531 0.40625 2.1719 0.42188 0.75 1.125 0.90625 1.5312 0.90625 0.57812 0 1.25-0.25 1.625-1.0781 0.26562-0.60938 0.32812-1.2812 0.32812-2zm-1.9375 2.8438c-0.28125 0-0.92188-0.125-1.0938-1.1406-0.09375-0.51562-0.09375-1.2969-0.09375-1.8125 0-0.60938 0-1.3125 0.10938-1.8125 0.1875-0.79688 0.75-0.95312 1.0625-0.95312 0.34375 0 0.90625 0.1875 1.0781 1.0156 0.09375 0.48438 0.09375 1.1875 0.09375 1.75s0 1.3125-0.09375 1.8438c-0.1875 1.0312-0.84375 1.1094-1.0625 1.1094z"/>
</g>
<g id="av">
<path d="m6.7344-1.0312-1.4844-4.4062c0-0.03125-0.03125-0.09375-0.03125-0.125 0-0.28125 0.51562-0.28125 0.75-0.28125v-0.28125c-0.40625 0.03125-0.84375 0.03125-1.25 0.03125-0.5 0-0.5625 0-1.1094-0.03125v0.28125c0.45312 0 0.625 0.015625 0.71875 0.17188 0.078125 0.10938 0.26562 0.71875 0.26562 0.71875 0 0.015625-0.03125 0.09375-0.03125 0.125l-1.2656 3.7969-1.4688-4.375c-0.046875-0.125-0.046875-0.14062-0.046875-0.15625 0-0.28125 0.51562-0.28125 0.75-0.28125v-0.28125c-0.39062 0.03125-0.84375 0.03125-1.25 0.03125-0.48438 0-0.5625 0-1.1094-0.03125v0.28125c0.51562 0 0.6875 0 0.8125 0.34375l1.8281 5.5156c0.046875 0.125 0.09375 0.1875 0.20312 0.1875 0.0625 0 0.14062-0.03125 0.1875-0.1875l1.5312-4.5781 1.5156 4.5469c0.0625 0.15625 0.078125 0.21875 0.20312 0.21875 0.10938 0 0.14062-0.0625 0.1875-0.1875l1.75-5.2188c0.125-0.40625 0.375-0.64062 0.90625-0.64062v-0.28125c-0.28125 0.03125-0.5625 0.03125-0.84375 0.03125-0.29688 0-0.54688-0.015625-1.0625-0.03125v0.28125c0.5625 0 0.76562 0.28125 0.76562 0.48438 0 0.046875-0.015625 0.078125-0.03125 0.14062z"/>
</g>
<g id="au">
<path d="m2.9219-3.5938v-0.26562h-1.3125v-1.6562h-0.25c0 0.75-0.3125 1.6719-1.1875 1.7031v0.21875h0.78125v2.4844c0 1 0.71875 1.2031 1.2031 1.2031 0.59375 0 0.90625-0.5625 0.90625-1.2031v-0.51562h-0.25v0.48438c0 0.67188-0.28125 0.98438-0.59375 0.98438-0.60938 0-0.60938-0.78125-0.60938-0.95312v-2.4844z"/>
</g>
<g id="at">
<path d="m3.5938-2.0469c0.1875 0 0.23438 0 0.23438-0.20312 0-0.92188-0.5-1.7656-1.6562-1.7656-1.0625 0-1.9062 0.9375-1.9062 2.0469 0 1.1719 0.9375 2.0625 2.0312 2.0625s1.5312-0.95312 1.5312-1.1562c0-0.0625-0.046875-0.125-0.125-0.125-0.09375 0-0.10938 0.0625-0.125 0.10938-0.29688 0.90625-1.1094 0.92188-1.2344 0.92188-0.4375 0-0.79688-0.23438-1-0.54688-0.29688-0.4375-0.3125-0.96875-0.3125-1.3438zm-2.5469-0.21875c0.078125-1.3906 0.875-1.5312 1.125-1.5312 0.5 0 1.0312 0.375 1.0469 1.5312z"/>
</g>
<g id="bh">
<path d="m2.7188-5.7344c0-0.21875 0-0.23438-0.21875-0.23438-0.5625 0.5625-1.3906 0.5625-1.6719 0.5625v0.28125c0.17188 0 0.71875 0 1.2031-0.23438v4.6406c0 0.32812-0.015625 0.4375-0.85938 0.4375h-0.28125v0.28125c0.3125-0.03125 1.125-0.03125 1.4844-0.03125 0.375 0 1.1719 0 1.5 0.03125v-0.28125h-0.28125c-0.84375 0-0.875-0.10938-0.875-0.4375z"/>
</g>
<g id="c">
<path d="m3.8594-5.1094c0-0.29688-0.078125-0.375-0.375-0.375h-0.6875c-0.125 0-0.375 0-0.375 0.29688s0.23438 0.29688 0.375 0.29688h0.39062v1.3594c-0.1875-0.17188-0.54688-0.375-1.0312-0.375-0.98438 0-1.8438 0.85938-1.8438 1.9844 0 1.0938 0.79688 1.9688 1.7656 1.9688 0.40625 0 0.79688-0.15625 1.1094-0.48438 0 0.28125 0 0.4375 0.375 0.4375h0.6875c0.125 0 0.375 0 0.375-0.28125 0-0.29688-0.23438-0.29688-0.375-0.29688h-0.39062zm-0.67188 3.3594c0 0.48438-0.39062 1.2188-1.0781 1.2188-0.60938 0-1.1406-0.60938-1.1406-1.3906 0-0.79688 0.57812-1.4062 1.2344-1.4062 0.54688 0 0.98438 0.46875 0.98438 0.95312z"/>
</g>
<g id="a">
<path d="m3.7812-1.6875c0.1875 0 0.375 0 0.375-0.34375 0-1.0469-0.57812-1.9062-1.7344-1.9062-1.0938 0-1.9531 0.92188-1.9531 1.9844 0 1.1094 0.9375 2 2.0938 2 1.2031 0 1.5938-0.8125 1.5938-1.0312 0-0.1875-0.125-0.26562-0.32812-0.26562-0.125 0-0.23438 0-0.32812 0.20312-0.20312 0.51562-0.78125 0.51562-0.875 0.51562-0.53125 0-1.2812-0.3125-1.4531-1.1562zm-2.6094-0.57812c0.17188-0.73438 0.73438-1.0938 1.25-1.0938 0.625 0 1 0.42188 1.0625 1.0938z"/>
</g>
<g id="ak">
<path d="m2.6875-5.1094c0-0.29688-0.078125-0.375-0.375-0.375h-1.4531c-0.14062 0-0.39062 0-0.39062 0.29688s0.23438 0.29688 0.39062 0.29688h1.1562v4.3125h-1.1562c-0.14062 0-0.39062 0-0.39062 0.28125 0 0.29688 0.23438 0.29688 0.39062 0.29688h2.9844c0.14062 0 0.375 0 0.375-0.28125 0-0.29688-0.23438-0.29688-0.375-0.29688h-1.1562z"/>
</g>
<g id="w">
<path d="m2.7969-5.0312c0-0.25-0.20312-0.45312-0.45312-0.45312s-0.45312 0.20312-0.45312 0.45312 0.20312 0.45312 0.45312 0.45312 0.45312-0.20312 0.45312-0.45312zm-1.6719 1.1719c-0.14062 0-0.39062 0-0.39062 0.28125 0 0.29688 0.25 0.29688 0.39062 0.29688h1.0156v2.7031h-1.0938c-0.125 0-0.39062 0-0.39062 0.28125 0 0.29688 0.25 0.29688 0.39062 0.29688h2.6875c0.125 0 0.39062 0 0.39062-0.28125 0-0.29688-0.25-0.29688-0.39062-0.29688h-0.9375v-2.9062c0-0.29688-0.078125-0.375-0.375-0.375z"/>
</g>
<g id="v">
<path d="m3.8438-3.2812h0.25c0.14062 0 0.39062 0 0.39062-0.28125 0-0.29688-0.23438-0.29688-0.39062-0.29688h-1.0469c-0.125 0-0.39062 0-0.39062 0.28125 0 0.29688 0.25 0.29688 0.39062 0.29688h0.23438l-0.9375 2.7969-0.92188-2.7969h0.23438c0.125 0 0.39062 0 0.39062-0.28125 0-0.29688-0.25-0.29688-0.39062-0.29688h-1.0625c-0.125 0-0.375 0-0.375 0.28125 0 0.29688 0.23438 0.29688 0.375 0.29688h0.26562l0.98438 3c0.10938 0.32812 0.3125 0.32812 0.5 0.32812 0.17188 0 0.40625 0 0.51562-0.32812z"/>
</g>
<g id="d">
<path d="m2.0156-1.6562c0-0.90625 0.59375-1.6719 1.5625-1.6719 0.03125 0.32812 0.28125 0.39062 0.39062 0.39062 0.20312 0 0.40625-0.14062 0.40625-0.40625 0-0.15625-0.10938-0.5625-0.85938-0.5625-0.51562 0-1.0781 0.21875-1.5 0.70312v-0.28125c0-0.29688-0.078125-0.375-0.39062-0.375h-1c-0.125 0-0.39062 0-0.39062 0.28125 0 0.29688 0.25 0.29688 0.39062 0.29688h0.71875v2.7031h-0.71875c-0.125 0-0.39062 0-0.39062 0.28125 0 0.29688 0.25 0.29688 0.39062 0.29688h2.375c0.125 0 0.39062 0 0.39062-0.28125 0-0.29688-0.25-0.29688-0.39062-0.29688h-0.98438z"/>
</g>
<g id="h">
<path d="m3.8281-2.5312c0-0.70312-0.54688-1.4062-1.7969-1.4062-0.42188 0-1.3281 0-1.3281 0.67188 0 0.26562 0.20312 0.42188 0.42188 0.42188 0.14062 0 0.42188-0.046875 0.42188-0.48438 0.25-0.03125 0.40625-0.03125 0.48438-0.03125 0.71875 0 1.125 0.29688 1.125 0.84375-1.5 0.015625-2.6875 0.4375-2.6875 1.3281 0 0.67188 0.625 1.2344 1.5 1.2344 0.10938 0 0.78125 0 1.2656-0.35938 0.21875 0.3125 0.70312 0.3125 1 0.3125 0.25 0 0.46875 0 0.46875-0.29688 0-0.28125-0.25-0.28125-0.39062-0.28125s-0.32812 0-0.48438-0.0625zm-0.67188 1.2656c0 0.20312 0 0.39062-0.35938 0.57812-0.32812 0.15625-0.71875 0.15625-0.76562 0.15625-0.53125 0-0.89062-0.29688-0.89062-0.65625 0-0.4375 0.90625-0.75 2.0156-0.76562z"/>
</g>
<g id="b">
<path d="m2.0156-3.2812h1.4219c0.125 0 0.39062 0 0.39062-0.28125 0-0.29688-0.25-0.29688-0.39062-0.29688h-1.4219v-0.73438c0-0.17188 0-0.375-0.32812-0.375s-0.32812 0.20312-0.32812 0.39062v0.71875h-0.75c-0.14062 0-0.39062 0-0.39062 0.29688 0 0.28125 0.25 0.28125 0.375 0.28125h0.76562v2.0781c0 0.9375 0.64062 1.25 1.2812 1.25 0.76562 0 1.3906-0.54688 1.3906-1.2031 0-0.3125-0.23438-0.3125-0.34375-0.3125-0.14062 0-0.3125 0.015625-0.32812 0.29688-0.015625 0.4375-0.375 0.64062-0.67188 0.64062-0.67188 0-0.67188-0.48438-0.67188-0.70312z"/>
</g>
<g id="f">
<path d="m3.9219 0.46875c0-0.14062-0.09375-0.1875-0.17188-0.25-1.1875-0.78125-1.5469-2.0156-1.5469-2.9531 0-0.6875 0.1875-1.2656 0.375-1.6719 0.35938-0.67188 0.79688-1.0469 1.2188-1.3281 0.0625-0.046875 0.125-0.125 0.125-0.21875s-0.0625-0.26562-0.29688-0.26562c-0.20312 0-0.96875 0.51562-1.4688 1.2969-0.46875 0.75-0.625 1.5469-0.625 2.1719 0 0.60938 0.125 1.4531 0.71875 2.3125 0.4375 0.64062 1.1562 1.1875 1.375 1.1875 0.23438 0 0.29688-0.1875 0.29688-0.28125z"/>
</g>
<g id="e">
<path d="m3.1719-2.7344c0-0.60938-0.125-1.4531-0.71875-2.3125-0.4375-0.64062-1.1406-1.1719-1.375-1.1719-0.25 0-0.29688 0.1875-0.29688 0.26562 0 0.14062 0.09375 0.20312 0.17188 0.26562 1.1875 0.76562 1.5469 2.0156 1.5469 2.9375 0 0.6875-0.1875 1.2656-0.39062 1.6719-0.34375 0.6875-0.79688 1.0469-1.2188 1.3281-0.0625 0.0625-0.10938 0.14062-0.10938 0.21875 0 0.09375 0.046875 0.28125 0.29688 0.28125 0.20312 0 0.95312-0.53125 1.4531-1.3125 0.48438-0.73438 0.64062-1.5312 0.64062-2.1719z"/>
</g>
<g id="an">
<path d="m2.5938-1.9844 0.96875-1.2969h0.35938c0.14062 0 0.39062 0 0.39062-0.28125 0-0.29688-0.23438-0.29688-0.39062-0.29688h-1.0625c-0.14062 0-0.375 0-0.375 0.28125 0 0.29688 0.21875 0.29688 0.4375 0.29688l-0.59375 0.82812-0.625-0.82812c0.21875 0 0.4375 0 0.4375-0.29688 0-0.28125-0.25-0.28125-0.375-0.28125h-1.0781c-0.125 0-0.375 0-0.375 0.28125 0 0.29688 0.23438 0.29688 0.375 0.29688h0.35938l1.0156 1.2969-1.0625 1.4062h-0.35938c-0.14062 0-0.375 0-0.375 0.29688 0 0.28125 0.23438 0.28125 0.375 0.28125h1.0625c0.14062 0 0.375 0 0.375-0.28125 0-0.29688-0.20312-0.29688-0.46875-0.29688l0.71875-1.0469 0.73438 1.0469c-0.23438 0-0.45312 0-0.45312 0.29688 0 0.28125 0.25 0.28125 0.375 0.28125h1.0625c0.14062 0 0.39062 0 0.39062-0.28125 0-0.29688-0.23438-0.29688-0.39062-0.29688h-0.35938z"/>
</g>
<g id="i">
<path d="m4.1719-0.98438c0-0.1875-0.125-0.26562-0.32812-0.26562-0.10938 0-0.23438 0-0.3125 0.20312-0.0625 0.125-0.21875 0.51562-0.84375 0.51562-0.76562 0-1.3906-0.625-1.3906-1.4062 0-0.45312 0.28125-1.4219 1.4219-1.4219 0.15625 0 0.28125 0.015625 0.32812 0.015625 0.17188 0.015625 0.1875 0.03125 0.1875 0.10938 0.03125 0.29688 0.26562 0.39062 0.42188 0.39062 0.23438 0 0.42188-0.17188 0.42188-0.42188 0-0.67188-0.92188-0.67188-1.3438-0.67188-1.5469 0-2.0938 1.2188-2.0938 2 0 1.0938 0.875 1.9844 1.9844 1.9844 1.2812 0 1.5469-0.89062 1.5469-1.0312z"/>
</g>
<g id="k">
<path d="m0.5625-5.4844c-0.125 0-0.39062 0-0.39062 0.29688s0.25 0.29688 0.39062 0.29688h0.23438v4.3125h-0.23438c-0.125 0-0.39062 0-0.39062 0.28125 0 0.29688 0.25 0.29688 0.39062 0.29688h2.2031c1.0312 0 1.5625-0.8125 1.5625-1.5 0-0.53125-0.34375-1.1562-1.1406-1.375 0.67188-0.23438 0.95312-0.76562 0.95312-1.2031 0-0.67188-0.54688-1.4062-1.5469-1.4062zm0.90625 2.3438v-1.75h1.0938c0.73438 0 0.90625 0.54688 0.90625 0.8125 0 0.32812-0.23438 0.9375-1.1094 0.9375zm0 2.5625v-1.9844h1.2031c0.73438 0 0.98438 0.64062 0.98438 1.0312 0 0.4375-0.32812 0.95312-1.0781 0.95312z"/>
</g>
<g id="o">
<path d="m2.5-0.015625c-0.046875 0.1875-0.20312 0.53125-0.65625 0.6875-0.078125 0.03125-0.25 0.078125-0.25 0.28125 0 0.125 0.14062 0.29688 0.3125 0.29688 0.28125 0 1.2031-0.48438 1.2031-1.4844 0-0.51562-0.32812-0.90625-0.75-0.90625-0.34375 0-0.57812 0.26562-0.57812 0.5625 0 0.34375 0.25 0.57812 0.57812 0.57812 0.0625 0 0.125-0.015625 0.14062-0.015625z"/>
</g>
<g id="j">
<path d="m3.8594-2.625c0-0.875-0.4375-1.2812-1.1719-1.2812-0.42188 0-0.84375 0.14062-1.1875 0.4375 0-0.25 0-0.39062-0.375-0.39062h-0.67188c-0.125 0-0.375 0-0.375 0.28125 0 0.29688 0.23438 0.29688 0.375 0.29688h0.39062v2.7031h-0.39062c-0.125 0-0.375 0-0.375 0.28125 0 0.29688 0.23438 0.29688 0.375 0.29688h1.4531c0.125 0 0.375 0 0.375-0.28125 0-0.29688-0.25-0.29688-0.375-0.29688h-0.40625v-1.5625c0-0.875 0.6875-1.1875 1.125-1.1875s0.5625 0.21875 0.5625 0.75v2h-0.28125c-0.125 0-0.39062 0-0.39062 0.28125 0 0.29688 0.25 0.29688 0.39062 0.29688h1.3438c0.125 0 0.375 0 0.375-0.28125 0-0.29688-0.23438-0.29688-0.375-0.29688h-0.39062z"/>
</g>
<g id="n">
<path d="m4.2031-1.9375c0-1.1094-0.84375-2-1.8594-2-1 0-1.8438 0.89062-1.8438 2s0.84375 1.9844 1.8438 1.9844c1.0156 0 1.8594-0.875 1.8594-1.9844zm-1.8594 1.4062c-0.65625 0-1.1875-0.65625-1.1875-1.4688 0-0.79688 0.57812-1.3594 1.1875-1.3594 0.64062 0 1.2031 0.5625 1.2031 1.3594 0 0.8125-0.54688 1.4688-1.2031 1.4688z"/>
</g>
<g id="g">
<path d="m3.8594-3.4844c0-0.29688-0.078125-0.375-0.375-0.375h-0.6875c-0.125 0-0.375 0-0.375 0.28125 0 0.29688 0.23438 0.29688 0.375 0.29688h0.39062v1.875c0 0.76562-0.6875 0.875-0.98438 0.875-0.70312 0-0.70312-0.26562-0.70312-0.54688v-2.4062c0-0.29688-0.0625-0.375-0.375-0.375h-0.67188c-0.125 0-0.375 0-0.375 0.28125 0 0.29688 0.23438 0.29688 0.375 0.29688h0.39062v2.25c0 0.84375 0.59375 1.0781 1.2969 1.0781 0.3125 0 0.67188-0.046875 1.0469-0.3125 0.046875 0.26562 0.21875 0.26562 0.375 0.26562h0.6875c0.125 0 0.375 0 0.375-0.28125 0-0.29688-0.23438-0.29688-0.375-0.29688h-0.39062z"/>
</g>
<g id="r">
<path d="m1.9062 1.9844c0.125 0 0.375 0 0.375-0.28125 0-0.29688-0.25-0.29688-0.375-0.29688h-0.40625v-1.7969c0.28125 0.28125 0.64062 0.4375 1.0312 0.4375 1 0 1.8594-0.85938 1.8594-1.9844 0-1.0625-0.76562-1.9688-1.7656-1.9688-0.42188 0-0.79688 0.14062-1.125 0.40625 0-0.32812-0.10938-0.35938-0.375-0.35938h-0.67188c-0.125 0-0.375 0-0.375 0.28125 0 0.29688 0.23438 0.29688 0.375 0.29688h0.39062v4.6875h-0.39062c-0.125 0-0.375 0-0.375 0.28125 0 0.29688 0.23438 0.29688 0.375 0.29688zm-0.40625-4.3438c0-0.53125 0.53125-0.96875 1.0781-0.96875 0.625 0 1.1562 0.60938 1.1562 1.3906 0 0.79688-0.59375 1.4062-1.2344 1.4062s-1-0.73438-1-1.2031z"/>
</g>
<g id="m">
<path d="m3.8438-3.5625c0-0.125 0-0.375-0.28125-0.375-0.20312 0-0.25 0.10938-0.28125 0.17188-0.34375-0.17188-0.78125-0.17188-0.9375-0.17188-1.5625 0-1.7031 0.8125-1.7031 1.0625 0 0.48438 0.35938 0.70312 0.46875 0.76562 0.3125 0.1875 0.5625 0.23438 1.4844 0.375 0.23438 0.046875 0.9375 0.15625 0.9375 0.60938 0 0.26562-0.25 0.59375-1.125 0.59375-0.54688 0-0.90625-0.1875-1.0781-0.71875-0.0625-0.1875-0.09375-0.28125-0.34375-0.28125-0.34375 0-0.34375 0.20312-0.34375 0.39062v0.8125c0 0.125 0 0.375 0.29688 0.375 0.125 0 0.25-0.0625 0.32812-0.3125 0.45312 0.3125 0.96875 0.3125 1.1406 0.3125 1.5 0 1.7031-0.82812 1.7031-1.1719 0-0.4375-0.26562-0.71875-0.48438-0.85938-0.35938-0.21875-0.57812-0.26562-1.4219-0.40625-0.375-0.046875-0.96875-0.14062-0.96875-0.48438 0-0.23438 0.28125-0.48438 1.0938-0.48438s0.84375 0.3125 0.85938 0.5c0.015625 0.26562 0.25 0.26562 0.32812 0.26562 0.32812 0 0.32812-0.21875 0.32812-0.39062z"/>
</g>
<g id="q">
<path d="m2.8594-5.25c-0.0625-0.28125-0.15625-0.35938-0.46875-0.35938h-0.078125c-0.3125 0-0.40625 0.078125-0.46875 0.35938l-1.0469 4.6719h-0.17188c-0.125 0-0.375 0-0.375 0.28125 0 0.29688 0.23438 0.29688 0.375 0.29688h0.98438c0.125 0 0.375 0 0.375-0.28125 0-0.29688-0.20312-0.29688-0.51562-0.29688l0.1875-0.84375h1.3906l0.1875 0.84375c-0.3125 0-0.51562 0-0.51562 0.29688 0 0.28125 0.23438 0.28125 0.375 0.28125h0.98438c0.125 0 0.375 0 0.375-0.28125 0-0.29688-0.23438-0.29688-0.375-0.29688h-0.17188zm0.046875 3.2344h-1.125c0.23438-1.0312 0.53125-2.4062 0.5625-2.75h0.015625c0.015625 0.20312 0.10938 0.625 0.10938 0.6875z"/>
</g>
<g id="l">
<path d="m4.1094-2.7031c0-0.20312 0-1.2031-0.79688-1.2031-0.078125 0-0.51562 0-0.875 0.4375-0.03125-0.03125-0.1875-0.4375-0.67188-0.4375-0.21875 0-0.51562 0.0625-0.76562 0.29688-0.046875-0.25-0.21875-0.25-0.375-0.25h-0.29688c-0.14062 0-0.375 0-0.375 0.28125 0 0.29688 0.1875 0.29688 0.5 0.29688v2.7031c-0.3125 0-0.5 0-0.5 0.29688 0 0.28125 0.23438 0.28125 0.375 0.28125h0.79688c0.14062 0 0.375 0 0.375-0.28125 0-0.29688-0.1875-0.29688-0.5-0.29688v-1.5781c0-0.76562 0.35938-1.1719 0.71875-1.1719 0.1875 0 0.29688 0.125 0.29688 0.6875v2.0625c-0.078125 0-0.34375 0-0.34375 0.28125 0 0.29688 0.25 0.29688 0.375 0.29688h0.64062c0.14062 0 0.375 0 0.375-0.28125 0-0.29688-0.1875-0.29688-0.5-0.29688v-1.5781c0-0.76562 0.35938-1.1719 0.71875-1.1719 0.1875 0 0.29688 0.125 0.29688 0.6875v2.0625c-0.078125 0-0.34375 0-0.34375 0.28125 0 0.29688 0.25 0.29688 0.375 0.29688h0.64062c0.14062 0 0.375 0 0.375-0.28125 0-0.29688-0.1875-0.29688-0.51562-0.29688z"/>
</g>
<g id="ab">
<path d="m3.8594-2.625c0-0.875-0.4375-1.2812-1.1719-1.2812-0.42188 0-0.84375 0.14062-1.1875 0.4375v-1.6406c0-0.29688-0.0625-0.375-0.375-0.375h-0.67188c-0.125 0-0.375 0-0.375 0.29688s0.23438 0.29688 0.375 0.29688h0.39062v4.3125h-0.39062c-0.125 0-0.375 0-0.375 0.28125 0 0.29688 0.23438 0.29688 0.375 0.29688h1.4531c0.125 0 0.375 0 0.375-0.28125 0-0.29688-0.25-0.29688-0.375-0.29688h-0.40625v-1.5625c0-0.875 0.6875-1.1875 1.125-1.1875s0.5625 0.21875 0.5625 0.75v2h-0.28125c-0.125 0-0.39062 0-0.39062 0.28125 0 0.29688 0.25 0.29688 0.39062 0.29688h1.3438c0.125 0 0.375 0 0.375-0.28125 0-0.29688-0.23438-0.29688-0.375-0.29688h-0.39062z"/>
</g>
<g id="p">
<path d="m2.5938-2.2812 1.0625-1h0.3125c0.14062 0 0.375 0 0.375-0.28125 0-0.29688-0.23438-0.29688-0.375-0.29688h-1.3906c-0.14062 0-0.39062 0-0.39062 0.28125 0 0.29688 0.25 0.29688 0.39062 0.29688h0.29688l-1.375 1.2812v-3.1094c0-0.29688-0.0625-0.375-0.375-0.375h-0.59375c-0.125 0-0.375 0-0.375 0.29688s0.25 0.29688 0.375 0.29688h0.4375v4.3125h-0.4375c-0.125 0-0.375 0-0.375 0.28125 0 0.29688 0.25 0.29688 0.375 0.29688h1.4062c0.125 0 0.39062 0 0.39062-0.28125 0-0.29688-0.25-0.29688-0.39062-0.29688h-0.4375v-0.67188l0.70312-0.65625 1 1.3281c-0.28125 0-0.5 0-0.5 0.29688 0 0.28125 0.26562 0.28125 0.39062 0.28125h1.0781c0.14062 0 0.375 0 0.375-0.28125 0-0.29688-0.23438-0.29688-0.375-0.29688h-0.28125z"/>
</g>
<g id="aa">
<path d="m4.0469-3.5312c0-0.17188 0-0.375-0.32812-0.375-0.34375 0-0.34375 0.17188-0.34375 0.45312-0.28125-0.26562-0.625-0.45312-1.0938-0.45312-1.0312 0-1.9375 0.84375-1.9375 1.9844 0 1.0781 0.82812 1.9688 1.8438 1.9688 0.64062 0 1.0625-0.375 1.1875-0.5v1.8594h-0.42188c-0.125 0-0.39062 0-0.39062 0.28125 0 0.29688 0.25 0.29688 0.39062 0.29688h1.5156c0.125 0 0.39062 0 0.39062-0.28125 0-0.29688-0.25-0.29688-0.39062-0.29688h-0.42188zm-0.67188 1.7969c0 0.5-0.4375 1.2031-1.1562 1.2031-0.64062 0-1.2188-0.60938-1.2188-1.3906 0-0.82812 0.64062-1.4062 1.3125-1.4062 0.6875 0 1.0625 0.6875 1.0625 1.2344z"/>
</g>
<g id="z">
<path d="m1.5-5.1094c0-0.29688-0.0625-0.375-0.375-0.375h-0.67188c-0.125 0-0.375 0-0.375 0.29688s0.23438 0.29688 0.375 0.29688h0.39062v4.5c0 0.1875 0 0.39062 0.32812 0.39062s0.32812-0.20312 0.32812-0.39062c0.28125 0.28125 0.64062 0.4375 1.0312 0.4375 1 0 1.8594-0.85938 1.8594-1.9844 0-1.0625-0.76562-1.9688-1.7656-1.9688-0.42188 0-0.79688 0.14062-1.125 0.40625zm0 2.75c0-0.53125 0.53125-0.96875 1.0781-0.96875 0.625 0 1.1562 0.60938 1.1562 1.3906 0 0.79688-0.59375 1.4062-1.2344 1.4062s-1-0.73438-1-1.2031z"/>
</g>
<g id="ad">
<path d="m2.8125-5.2031c0-0.14062 0-0.375-0.28125-0.375-0.15625 0-0.21875 0.078125-0.28125 0.20312-0.28125 0.625-0.64062 0.85938-1 0.89062-0.125 0.015625-0.32812 0.03125-0.32812 0.29688 0 0.17188 0.09375 0.28125 0.3125 0.28125 0.35938 0 0.71875-0.1875 0.92188-0.35938v3.6875h-0.79688c-0.15625 0-0.375 0-0.375 0.29688 0 0.28125 0.23438 0.28125 0.375 0.28125h2.25c0.14062 0 0.375 0 0.375-0.28125 0-0.29688-0.21875-0.29688-0.375-0.29688h-0.79688z"/>
</g>
<g id="ac">
<path d="m4.2656-2.7344c0-1.6719-0.90625-2.8438-1.9219-2.8438-1 0-1.9062 1.2031-1.9062 2.8281 0 1.6719 0.90625 2.8438 1.9062 2.8438 1.0156 0 1.9219-1.2031 1.9219-2.8281zm-1.9219 2.25c-0.6875 0-1.25-1.0625-1.25-2.3438 0-1.3125 0.60938-2.1719 1.25-2.1719 0.65625 0 1.2656 0.875 1.2656 2.1719s-0.5625 2.3438-1.2656 2.3438z"/>
</g>
<g id="am">
<path d="m4.3438-5.2031c0-0.14062 0-0.375-0.29688-0.375-0.1875 0-0.25 0.10938-0.39062 0.40625-0.20312-0.17188-0.60938-0.40625-1.1406-0.40625-1.1562 0-2.1562 1.2188-2.1562 2.8281 0 1.625 0.98438 2.8438 2.1719 2.8438 1.0156 0 1.8125-0.75 1.8125-1.6094 0-0.3125-0.25-0.3125-0.32812-0.3125-0.046875 0-0.32812 0-0.34375 0.23438-0.0625 1.0938-1.0156 1.1094-1.1094 1.1094-0.79688 0-1.5469-0.95312-1.5469-2.25 0-1.3438 0.76562-2.2656 1.5469-2.2656 0.1875 0 0.9375 0.078125 1.1094 1.2031 0.046875 0.21875 0.26562 0.21875 0.34375 0.21875 0.32812 0 0.32812-0.20312 0.32812-0.375z"/>
</g>
<g id="al">
<path d="m2.4844-3.2031 1.3438-1.6875c0.32812 0 0.51562 0 0.51562-0.29688s-0.23438-0.29688-0.375-0.29688h-0.79688c-0.14062 0-0.39062 0-0.39062 0.29688s0.26562 0.29688 0.35938 0.29688l-1.8281 2.2969v-2.2969h0.1875c0.14062 0 0.39062 0 0.39062-0.29688s-0.23438-0.29688-0.39062-0.29688h-0.90625c-0.14062 0-0.39062 0-0.39062 0.29688s0.25 0.29688 0.39062 0.29688h0.1875v4.3125h-0.1875c-0.14062 0-0.39062 0-0.39062 0.28125 0 0.29688 0.25 0.29688 0.39062 0.29688h0.90625c0.14062 0 0.39062 0 0.39062-0.28125 0-0.29688-0.23438-0.29688-0.39062-0.29688h-0.1875v-1.1562l0.8125-1.0156 1.2188 2.1719c-0.09375 0-0.35938 0-0.35938 0.28125 0 0.29688 0.25 0.29688 0.39062 0.29688h0.6875c0.14062 0 0.375 0 0.375-0.28125 0-0.29688-0.20312-0.29688-0.46875-0.29688z"/>
</g>
<g id="bg">
<path d="m4.3438-7.5938c-0.0625-0.14062-0.078125-0.21875-0.25-0.21875s-0.21875 0.0625-0.26562 0.21875l-2.25 6.5312c-0.20312 0.54688-0.64062 0.71875-1.2344 0.71875v0.34375c0.25-0.015625 0.71875-0.03125 1.125-0.03125 0.32812 0 0.89062 0.015625 1.25 0.03125v-0.34375c-0.54688 0-0.82812-0.26562-0.82812-0.54688 0-0.03125 0.015625-0.14062 0.03125-0.17188l0.5-1.4219h2.6875l0.57812 1.6719c0.015625 0.03125 0.03125 0.10938 0.03125 0.14062 0 0.32812-0.60938 0.32812-0.89062 0.32812v0.34375c0.39062-0.03125 1.1562-0.03125 1.5625-0.03125 0.46875 0 0.96875 0.015625 1.4219 0.03125v-0.34375h-0.1875c-0.65625 0-0.8125-0.078125-0.92188-0.4375zm-0.57812 1.2188 1.2344 3.5469h-2.4531z"/>
</g>
<g id="ah">
<path d="m2.0938-4.125c0-0.3125-0.26562-0.57812-0.57812-0.57812s-0.57812 0.26562-0.57812 0.57812 0.26562 0.57812 0.57812 0.57812 0.57812-0.26562 0.57812-0.57812zm0 3.5469c0-0.3125-0.26562-0.57812-0.57812-0.57812s-0.57812 0.26562-0.57812 0.57812 0.26562 0.57812 0.57812 0.57812 0.57812-0.26562 0.57812-0.57812z"/>
</g>
<g id="ba">
<path d="m2.2656-2.1094c0.25 0.03125 1.1406 0.21875 1.1406 1 0 0.54688-0.39062 0.98438-1.2344 0.98438-0.92188 0-1.3125-0.60938-1.5156-1.5469-0.03125-0.14062-0.046875-0.1875-0.15625-0.1875-0.14062 0-0.14062 0.078125-0.14062 0.28125v1.4375c0 0.1875 0 0.26562 0.125 0.26562 0.046875 0 0.0625-0.015625 0.26562-0.21875 0.03125-0.03125 0.03125-0.046875 0.21875-0.25 0.48438 0.45312 0.96875 0.46875 1.2031 0.46875 1.25 0 1.75-0.73438 1.75-1.5156 0-0.57812-0.32812-0.90625-0.45312-1.0469-0.35938-0.34375-0.78125-0.4375-1.25-0.51562-0.60938-0.125-1.3281-0.26562-1.3281-0.89062 0-0.39062 0.28125-0.82812 1.2188-0.82812 1.1875 0 1.25 0.96875 1.2656 1.3125 0.015625 0.09375 0.10938 0.09375 0.14062 0.09375 0.14062 0 0.14062-0.046875 0.14062-0.25v-1.1094c0-0.1875 0-0.26562-0.125-0.26562-0.046875 0-0.078125 0-0.21875 0.14062-0.03125 0.03125-0.14062 0.14062-0.1875 0.17188-0.40625-0.3125-0.85938-0.3125-1.0156-0.3125-1.3281 0-1.75 0.73438-1.75 1.3438 0 0.39062 0.17188 0.6875 0.46875 0.92188 0.34375 0.29688 0.65625 0.35938 1.4375 0.51562z"/>
</g>
<g id="u">
<path d="m1.2188-2.75c0.0625-1.625 0.98438-1.8906 1.3594-1.8906 1.125 0 1.2344 1.4688 1.2344 1.8906zm-0.015625 0.23438h3.0469c0.25 0 0.28125 0 0.28125-0.23438 0-1.0781-0.59375-2.1406-1.9531-2.1406-1.2656 0-2.2656 1.125-2.2656 2.4844 0 1.4688 1.1406 2.5312 2.3906 2.5312 1.3281 0 1.8281-1.2188 1.8281-1.4219 0-0.10938-0.09375-0.125-0.14062-0.125-0.10938 0-0.125 0.0625-0.14062 0.14062-0.39062 1.125-1.375 1.125-1.4844 1.125-0.54688 0-0.98438-0.32812-1.2344-0.73438-0.32812-0.51562-0.32812-1.2344-0.32812-1.625z"/>
</g>
<g id="az">
<path d="m1.2031-3.75v2.9219c0 0.48438-0.125 0.48438-0.85938 0.48438v0.34375c0.39062-0.015625 0.9375-0.03125 1.2344-0.03125 0.28125 0 0.85938 0.015625 1.2188 0.03125v-0.34375c-0.71875 0-0.84375 0-0.84375-0.48438v-2c0-1.1406 0.76562-1.75 1.4688-1.75 0.6875 0 0.8125 0.59375 0.8125 1.2031v2.5469c0 0.48438-0.125 0.48438-0.85938 0.48438v0.34375c0.39062-0.015625 0.9375-0.03125 1.2344-0.03125 0.28125 0 0.85938 0.015625 1.2188 0.03125v-0.34375c-0.5625 0-0.82812 0-0.84375-0.32812v-2.0781c0-0.9375 0-1.2812-0.34375-1.6719-0.14062-0.1875-0.5-0.40625-1.1406-0.40625-0.79688 0-1.3125 0.46875-1.6094 1.1562v-1.1562l-1.5469 0.125v0.34375c0.76562 0 0.85938 0.078125 0.85938 0.60938z"/>
</g>
<g id="ay">
<path d="m4.1406-0.59375v0.71875l1.6094-0.125v-0.34375c-0.76562 0-0.85938-0.078125-0.85938-0.60938v-6.6094l-1.5625 0.10938v0.34375c0.76562 0 0.84375 0.078125 0.84375 0.60938v2.3594c-0.3125-0.39062-0.78125-0.6875-1.375-0.6875-1.2812 0-2.4219 1.0781-2.4219 2.4844 0 1.3906 1.0625 2.4688 2.3125 2.4688 0.6875 0 1.1875-0.375 1.4531-0.71875zm0-2.9219v2.2344c0 0.1875 0 0.21875-0.10938 0.39062-0.32812 0.53125-0.82812 0.76562-1.2969 0.76562-0.48438 0-0.875-0.28125-1.1406-0.6875-0.28125-0.45312-0.3125-1.0781-0.3125-1.5156 0-0.40625 0.015625-1.0625 0.32812-1.5469 0.23438-0.34375 0.64062-0.70312 1.2344-0.70312 0.39062 0 0.84375 0.15625 1.1875 0.65625 0.10938 0.1875 0.10938 0.20312 0.10938 0.40625z"/>
</g>
<g id="ag">
<path d="m3.0156-2.0469v-0.625h-2.8906v0.625z"/>
</g>
<g id="af">
<path d="m2.4688-3.4531h1.8438c1.3125 0 2.5-0.875 2.5-1.9688 0-1.0625-1.0938-2.0312-2.5781-2.0312h-3.8594v0.34375h0.26562c0.84375 0 0.85938 0.125 0.85938 0.51562v5.75c0 0.39062-0.015625 0.5-0.85938 0.5h-0.26562v0.34375c0.39062-0.03125 1.2031-0.03125 1.6094-0.03125 0.42188 0 1.2344 0 1.6094 0.03125v-0.34375h-0.25c-0.84375 0-0.875-0.10938-0.875-0.5zm-0.03125-0.28125v-2.9375c0-0.35938 0.03125-0.4375 0.54688-0.4375h0.96875c1.7344 0 1.7344 1.1562 1.7344 1.6875 0 0.51562 0 1.6875-1.7344 1.6875z"/>
</g>
<g id="ae">
<path d="m3.625-0.82812c0.046875 0.4375 0.34375 0.89062 0.85938 0.89062 0.23438 0 0.89062-0.15625 0.89062-1.0312v-0.60938h-0.26562v0.60938c0 0.625-0.28125 0.70312-0.39062 0.70312-0.35938 0-0.40625-0.5-0.40625-0.54688v-2.1875c0-0.45312 0-0.875-0.39062-1.2812-0.4375-0.4375-0.98438-0.60938-1.5-0.60938-0.89062 0-1.6406 0.51562-1.6406 1.2344 0 0.32812 0.21875 0.51562 0.5 0.51562 0.29688 0 0.5-0.21875 0.5-0.5 0-0.14062-0.0625-0.5-0.5625-0.5 0.29688-0.39062 0.82812-0.5 1.1875-0.5 0.53125 0 1.1562 0.42188 1.1562 1.3906v0.40625c-0.5625 0.03125-1.3281 0.0625-2.0156 0.39062-0.8125 0.375-1.0938 0.9375-1.0938 1.4219 0 0.875 1.0625 1.1562 1.75 1.1562 0.71875 0 1.2188-0.4375 1.4219-0.95312zm-0.0625-1.7969v1.0938c0 1.0469-0.79688 1.4062-1.2812 1.4062-0.53125 0-0.98438-0.375-0.98438-0.92188 0-0.59375 0.45312-1.5 2.2656-1.5781z"/>
</g>
<g id="aj">
<path d="m1.1562-0.82812c0 0.48438-0.125 0.48438-0.84375 0.48438v0.34375c0.35938-0.015625 0.85938-0.03125 1.1875-0.03125s0.75 0.015625 1.1875 0.03125v-0.34375c-0.71875 0-0.84375 0-0.84375-0.48438v-1.125l0.70312-0.59375c0.82812 1.1562 1.2969 1.7656 1.2969 1.9531 0 0.21875-0.1875 0.25-0.39062 0.25v0.34375c0.29688-0.015625 0.9375-0.03125 1.1719-0.03125 0.3125 0 0.625 0.015625 0.95312 0.03125v-0.34375c-0.40625 0-0.65625 0-1.0625-0.57812l-1.3906-1.9531c0-0.015625-0.0625-0.078125-0.0625-0.10938 0-0.046875 0.78125-0.70312 0.89062-0.79688 0.6875-0.54688 1.1406-0.57812 1.375-0.57812v-0.34375c-0.32812 0.03125-0.46875 0.03125-0.76562 0.03125-0.39062 0-1.0781-0.015625-1.2188-0.03125v0.34375c0.20312 0 0.3125 0.125 0.3125 0.26562 0 0.21875-0.15625 0.35938-0.25 0.42188l-1.5312 1.3438v-5.2344l-1.5625 0.10938v0.34375c0.75 0 0.84375 0.078125 0.84375 0.60938z"/>
</g>
<g id="ai">
<path d="m1.8906-4.3594h1.5625v-0.34375h-1.5625v-2h-0.28125c0 0.89062-0.32812 2.0625-1.4062 2.0938v0.25h0.9375v3c0 1.3438 1.0156 1.4844 1.4062 1.4844 0.76562 0 1.0781-0.78125 1.0781-1.4844v-0.60938h-0.28125v0.59375c0 0.8125-0.32812 1.2188-0.71875 1.2188-0.73438 0-0.73438-0.98438-0.73438-1.1719z"/>
</g>
<g id="bf">
<path d="m2.4219-3.9844v-2.6875c0-0.35938 0.015625-0.4375 0.53125-0.4375h1.3594c1.0469 0 1.4375 0.92188 1.4375 1.5 0 0.70312-0.53125 1.625-1.75 1.625zm2.5781 0.09375c1.0469-0.20312 1.8125-0.90625 1.8125-1.7188 0-0.9375-1.0156-1.8438-2.4219-1.8438h-4v0.34375h0.26562c0.84375 0 0.85938 0.125 0.85938 0.51562v5.75c0 0.39062-0.015625 0.5-0.85938 0.5h-0.26562v0.34375h4.2812c1.4531 0 2.4219-0.96875 2.4219-2 0-0.9375-0.89062-1.7656-2.0938-1.8906zm-0.6875 3.5469h-1.3594c-0.51562 0-0.53125-0.078125-0.53125-0.4375v-2.9688h2.0469c1.0781 0 1.5469 1.0156 1.5469 1.75 0 0.76562-0.57812 1.6562-1.7031 1.6562z"/>
</g>
<g id="be">
<path d="m1.8281-3.625v-1.2031l-1.5156 0.125v0.34375c0.75 0 0.84375 0.078125 0.84375 0.60938v2.9219c0 0.48438-0.125 0.48438-0.84375 0.48438v0.34375c0.42188-0.015625 0.9375-0.03125 1.2344-0.03125 0.4375 0 0.95312 0 1.3906 0.03125v-0.34375h-0.23438c-0.8125 0-0.82812-0.10938-0.82812-0.5v-1.6875c0-1.0781 0.45312-2.0469 1.2812-2.0469 0.078125 0 0.10938 0 0.125 0.015625-0.03125 0-0.25 0.14062-0.25 0.42188 0 0.29688 0.23438 0.46875 0.46875 0.46875 0.20312 0 0.46875-0.14062 0.46875-0.48438s-0.34375-0.67188-0.8125-0.67188c-0.79688 0-1.1875 0.73438-1.3281 1.2031z"/>
</g>
<g id="bd">
<path d="m1.2812-2.375c0-1.7812 0.89062-2.2344 1.4688-2.2344 0.09375 0 0.78125 0 1.1719 0.40625-0.45312 0.03125-0.51562 0.35938-0.51562 0.5 0 0.28125 0.1875 0.5 0.5 0.5 0.28125 0 0.5-0.1875 0.5-0.51562 0-0.73438-0.82812-1.1719-1.6719-1.1719-1.3594 0-2.3594 1.1875-2.3594 2.5312 0 1.4062 1.0781 2.4844 2.3438 2.4844 1.4531 0 1.8125-1.3125 1.8125-1.4219s-0.10938-0.10938-0.14062-0.10938c-0.10938 0-0.125 0.046875-0.14062 0.10938-0.32812 1.0156-1.0312 1.1406-1.4375 1.1406-0.57812 0-1.5312-0.46875-1.5312-2.2188z"/>
</g>
<g id="bc">
<path d="m1.9375-4.8281-1.5312 0.125v0.34375c0.70312 0 0.79688 0.0625 0.79688 0.59375v2.9375c0 0.48438-0.10938 0.48438-0.84375 0.48438v0.34375c0.34375-0.015625 0.9375-0.03125 1.2031-0.03125 0.375 0 0.76562 0.015625 1.125 0.03125v-0.34375c-0.71875 0-0.75-0.046875-0.75-0.46875zm0.03125-1.8906c0-0.34375-0.26562-0.57812-0.57812-0.57812-0.32812 0-0.57812 0.29688-0.57812 0.57812 0 0.29688 0.25 0.57812 0.57812 0.57812 0.3125 0 0.57812-0.23438 0.57812-0.57812z"/>
</g>
<g id="bb">
<path d="m4.5312-3.625c0.10938-0.25 0.29688-0.73438 1.0156-0.73438v-0.34375c-0.25 0.03125-0.57812 0.03125-0.82812 0.03125-0.26562 0-0.76562-0.015625-0.9375-0.03125v0.34375c0.39062 0 0.51562 0.26562 0.51562 0.46875 0 0.09375-0.015625 0.14062-0.0625 0.26562l-1.1094 2.7812-1.2344-3.0469c-0.0625-0.14062-0.0625-0.17188-0.0625-0.1875 0-0.28125 0.42188-0.28125 0.625-0.28125v-0.34375c-0.32812 0.015625-0.9375 0.03125-1.1875 0.03125-0.29688 0-0.73438 0-1.0625-0.03125v0.34375c0.6875 0 0.73438 0.0625 0.875 0.40625l1.5781 3.8594c0.0625 0.15625 0.078125 0.21875 0.21875 0.21875s0.1875-0.10938 0.23438-0.21875z"/>
</g>
<clipPath id="bq">
<path d="m270 191h9v9h-9z"/>
</clipPath>
<clipPath id="bp">
<path d="m-0.47266 323.33h402v-324h-402zm274.19-128.49 0.26953-0.32422 4.7656 2.1016-1.8359 0.73828-0.50391 1.9258z" clip-rule="evenodd"/>
</clipPath>
<clipPath id="bo">
<path d="m111 123h10v9h-10z"/>
</clipPath>
<clipPath id="bn">
<path d="m-0.47266 323.33h402v-324h-402zm117.7-195.17-0.23437 0.29297-4.8594-1.8359 1.8086-0.82813 0.41406-1.9531z" clip-rule="evenodd"/>
</clipPath>
<clipPath id="bm">
<path d="m119 94h153v38h-153z"/>
</clipPath>
<clipPath id="bl">
<path d="m-0.47266 323.33h402v-324h-402zm269.48-195.11-0.29687 0.29688-4.6484-2.3125 1.8672-0.64844 0.58984-1.8984z" clip-rule="evenodd"/>
</clipPath>
<clipPath id="bk">
<path d="m119 191h153v38h-153z"/>
</clipPath>
<clipPath id="bj">
<path d="m-0.47266 323.33h402v-324h-402zm122.32-128.49 0.29297-0.29688 4.6484 2.3086-1.8633 0.65234-0.59375 1.8945z" clip-rule="evenodd"/>
</clipPath>
</defs>
<path transform="matrix(.1 0 0 -.1 -.472 323.33)" d="m1292.8 1618c0-220.78-119.34-399.77-266.48-399.77-147.19 0-266.48 178.98-266.48 399.77 0 220.74 119.3 399.73 266.48 399.73 147.15 0 266.48-178.98 266.48-399.73z" fill="none" stroke="#000" stroke-miterlimit="10" stroke-width="2.2208"/>
<path transform="matrix(.1 0 0 -.1 -.472 323.33)" d="m3158.2 1618c0-220.78-119.34-399.77-266.48-399.77-147.19 0-266.48 178.98-266.48 399.77 0 220.74 119.3 399.73 266.48 399.73 147.15 0 266.48-178.98 266.48-399.73z" fill="none" stroke="#000" stroke-miterlimit="10" stroke-width="2.2208"/>
<path d="m155.45 161.53c0 18.398-14.914 33.312-33.312 33.312-18.395 0-33.309-14.914-33.309-33.312 0-18.395 14.914-33.309 33.309-33.309 18.398 0 33.312 14.914 33.312 33.309" fill="#fff" fill-rule="evenodd"/>
<path transform="matrix(.1 0 0 -.1 -.472 323.33)" d="m1559.3 1618c0-183.98-149.14-333.12-333.12-333.12-183.95 0-333.09 149.14-333.09 333.12 0 183.95 149.14 333.09 333.09 333.09 183.98 0 333.12-149.14 333.12-333.09z" fill="none" stroke="#000" stroke-miterlimit="10" stroke-width="4.4415"/>
<path d="m302.02 161.53c0 18.398-14.914 33.312-33.312 33.312-18.395 0-33.309-14.914-33.309-33.312 0-18.395 14.914-33.309 33.309-33.309 18.398 0 33.312 14.914 33.312 33.309" fill="#fff" fill-rule="evenodd"/>
<path transform="matrix(.1 0 0 -.1 -.472 323.33)" d="m3025 1618c0-183.98-149.14-333.12-333.12-333.12-183.95 0-333.09 149.14-333.09 333.12 0 183.95 149.14 333.09 333.09 333.09 183.98 0 333.12-149.14 333.12-333.09z" fill="none" stroke="#000" stroke-miterlimit="10" stroke-width="4.4415"/>
<g clip-path="url(#bq)">
<g clip-path="url(#bp)">
<path transform="matrix(.1 0 0 -.1 -.472 323.33)" d="m2762.6 1269.5-17.773 15.664" fill="none" stroke="#000" stroke-miterlimit="10" stroke-width="2.2208"/>
</g>
</g>
<path d="m278.75 196.62-4.5-1.5977 2.1602 4.2617 0.50391-1.9258 1.8359-0.73828" fill-rule="evenodd"/>
<path transform="matrix(.1 0 0 -.1 -.472 323.33)" d="m2792.2 1267.1-45 15.977 21.602-42.617 5.0391 19.258z" fill="none" stroke="#000" stroke-miterlimit="10" stroke-width="2.2208"/>
<g clip-path="url(#bo)">
<g clip-path="url(#bn)">
<path transform="matrix(.1 0 0 -.1 -.472 323.33)" d="m1152.1 1969.2 22.227-17.773" fill="none" stroke="#000" stroke-miterlimit="10" stroke-width="2.2208"/>
</g>
</g>
<path d="m112.13 126.62 4.5898 1.3633-2.3672-4.1445-0.41406 1.9531-1.8086 0.82813" fill-rule="evenodd"/>
<path transform="matrix(.1 0 0 -.1 -.472 323.33)" d="m1126 1967.1 45.898-13.633-23.672 41.445-4.1406-19.531z" fill="none" stroke="#000" stroke-miterlimit="10" stroke-width="2.2208"/>
<path transform="matrix(.1 0 0 -.1 -.472 323.33)" d="m1479.3 2878.2h1128.4" fill="none" stroke="#000" stroke-miterlimit="10" stroke-width="2.2208"/>
<path transform="matrix(.1 0 0 -.1 -.472 323.33)" d="m5.0325 894.06h910.51" fill="none" stroke="#000" stroke-miterlimit="10" stroke-width="2.2208"/>
<path transform="matrix(.1 0 0 -.1 -.472 323.33)" d="m1479.3 605.39h1061.8" fill="none" stroke="#000" stroke-miterlimit="10" stroke-width="2.2208"/>
<path transform="matrix(.1 0 0 -.1 -.472 323.33)" d="m3064.9 951.8h821.99" fill="none" stroke="#000" stroke-miterlimit="10" stroke-width="2.2208"/>
<g clip-path="url(#bm)">
<g clip-path="url(#bl)">
<path transform="matrix(.1 0 0 -.1 -.472 323.33)" d="m1226.1 1951.1c194.96 193.28 458.36 301.72 732.85 301.72 274.53 0 537.93-108.44 732.85-301.72" fill="none" stroke="#000" stroke-miterlimit="10" stroke-width="2.2208"/>
</g>
</g>
<path d="m264.06 126.2 4.4141 1.8086-1.957-4.3555-0.58984 1.8984-1.8672 0.64844" fill-rule="evenodd"/>
<path transform="matrix(.1 0 0 -.1 -.472 323.33)" d="m2645.3 1971.3 44.141-18.086-19.57 43.555-5.8984-18.984z" fill="none" stroke="#000" stroke-miterlimit="10" stroke-width="2.2208"/>
<g clip-path="url(#bk)">
<g clip-path="url(#bj)">
<path transform="matrix(.1 0 0 -.1 -.472 323.33)" d="m1226.1 1284.9c194.96-193.24 458.36-301.68 732.85-301.68 274.53 0 537.93 108.44 732.85 301.68" fill="none" stroke="#000" stroke-miterlimit="10" stroke-width="2.2208"/>
</g>
</g>
<path d="m126.79 196.85-4.4102-1.8047 1.9531 4.3516 0.59375-1.8945 1.8633-0.65234" fill-rule="evenodd"/>
<path transform="matrix(.1 0 0 -.1 -.472 323.33)" d="m1272.6 1264.8-44.102 18.047 19.531-43.516 5.9375 18.945z" fill="none" stroke="#000" stroke-miterlimit="10" stroke-width="2.2208"/>
<g>
<use x="110.096" y="182.788" xlink:href="#ax"/>
<use x="117.261947" y="182.788" xlink:href="#t"/>
<use x="121.86978" y="182.788" xlink:href="#as"/>
<use x="126.989594" y="182.788" xlink:href="#t"/>
<use x="131.597427" y="182.788" xlink:href="#ar"/>
<use x="110.725" y="171.239" xlink:href="#aq"/>
<use x="115.844814" y="171.239" xlink:href="#s"/>
<use x="120.964629" y="171.239" xlink:href="#x"/>
<use x="124.569122" y="171.239" xlink:href="#ap"/>
<use x="128.404948" y="171.239" xlink:href="#ao"/>
<use x="105.094" y="159.69" xlink:href="#aw"/>
<use x="112.004404" y="159.69" xlink:href="#s"/>
<use x="117.124219" y="159.69" xlink:href="#y"/>
<use x="119.939668" y="159.69" xlink:href="#x"/>
<use x="123.544161" y="159.69" xlink:href="#s"/>
<use x="128.663976" y="159.69" xlink:href="#y"/>
<use x="134.5549" y="159.69" xlink:href="#bi"/>
<use x="102.021" y="148.141" xlink:href="#av"/>
<use x="110.720201" y="148.141" xlink:href="#t"/>
<use x="115.328034" y="148.141" xlink:href="#x"/>
<use x="118.932527" y="148.141" xlink:href="#au"/>
<use x="122.516397" y="148.141" xlink:href="#at"/>
<use x="129.69131" y="148.141" xlink:href="#t"/>
<use x="134.299143" y="148.141" xlink:href="#s"/>
<use x="139.418958" y="148.141" xlink:href="#y"/>
<use x="248.605" y="147.016" xlink:href="#av"/>
<use x="257.304201" y="147.016" xlink:href="#t"/>
<use x="261.912034" y="147.016" xlink:href="#x"/>
<use x="265.516527" y="147.016" xlink:href="#au"/>
<use x="269.100397" y="147.016" xlink:href="#at"/>
<use x="276.27531" y="147.016" xlink:href="#t"/>
<use x="280.883143" y="147.016" xlink:href="#s"/>
<use x="286.002958" y="147.016" xlink:href="#y"/>
<use x="251.679" y="158.565" xlink:href="#aw"/>
<use x="258.589404" y="158.565" xlink:href="#s"/>
<use x="263.709219" y="158.565" xlink:href="#y"/>
<use x="266.524668" y="158.565" xlink:href="#x"/>
<use x="270.129161" y="158.565" xlink:href="#s"/>
<use x="275.248976" y="158.565" xlink:href="#y"/>
<use x="281.1399" y="158.565" xlink:href="#bh"/>
<use x="258.198" y="171.239" xlink:href="#aq"/>
<use x="263.317814" y="171.239" xlink:href="#s"/>
<use x="268.437629" y="171.239" xlink:href="#x"/>
<use x="272.042122" y="171.239" xlink:href="#ap"/>
<use x="275.877948" y="171.239" xlink:href="#ao"/>
<use x="257.569" y="182.788" xlink:href="#ax"/>
<use x="264.734947" y="182.788" xlink:href="#t"/>
<use x="269.34278" y="182.788" xlink:href="#as"/>
<use x="274.462594" y="182.788" xlink:href="#t"/>
<use x="279.070427" y="182.788" xlink:href="#ar"/>
<use x="147.89" y="59.302" xlink:href="#c"/>
<use x="152.59736" y="59.302" xlink:href="#a"/>
<use x="157.30472" y="59.302" xlink:href="#ak"/>
<use x="162.01208" y="59.302" xlink:href="#w"/>
<use x="166.71944" y="59.302" xlink:href="#v"/>
<use x="171.4268" y="59.302" xlink:href="#a"/>
<use x="176.13416" y="59.302" xlink:href="#d"/>
</g>
<path transform="matrix(1 0 0 -1 181.41 59.103)" d="m2.5e-4 0.0014375h2.8242" fill="none" stroke="#000" stroke-miterlimit="10" stroke-width=".398"/>
<g>
<use x="184.23" y="59.302" xlink:href="#c"/>
<use x="188.93736" y="59.302" xlink:href="#h"/>
<use x="193.64472" y="59.302" xlink:href="#b"/>
<use x="198.35208" y="59.302" xlink:href="#h"/>
<use x="203.05944" y="59.302" xlink:href="#f"/>
<use x="207.7668" y="59.302" xlink:href="#c"/>
<use x="212.47416" y="59.302" xlink:href="#h"/>
<use x="217.18152" y="59.302" xlink:href="#b"/>
<use x="221.88888" y="59.302" xlink:href="#h"/>
<use x="226.59624" y="59.302" xlink:href="#e"/>
<use x="147.89" y="47.753" xlink:href="#a"/>
<use x="152.59736" y="47.753" xlink:href="#an"/>
<use x="157.30472" y="47.753" xlink:href="#b"/>
<use x="162.01208" y="47.753" xlink:href="#d"/>
<use x="166.71944" y="47.753" xlink:href="#h"/>
<use x="171.4268" y="47.753" xlink:href="#i"/>
<use x="176.13416" y="47.753" xlink:href="#b"/>
</g>
<path transform="matrix(1 0 0 -1 181.41 47.553)" d="m2.5e-4 -0.0016875h2.8242" fill="none" stroke="#000" stroke-miterlimit="10" stroke-width=".398"/>
<g>
<use x="184.23" y="47.753" xlink:href="#c"/>
<use x="188.93736" y="47.753" xlink:href="#h"/>
<use x="193.64472" y="47.753" xlink:href="#b"/>
<use x="198.35208" y="47.753" xlink:href="#h"/>
<use x="203.05944" y="47.753" xlink:href="#f"/>
<use x="207.7668" y="47.753" xlink:href="#k"/>
<use x="212.47416" y="47.753" xlink:href="#o"/>
<use x="217.18152" y="47.753" xlink:href="#c"/>
<use x="221.88888" y="47.753" xlink:href="#h"/>
<use x="226.59624" y="47.753" xlink:href="#b"/>
<use x="231.3036" y="47.753" xlink:href="#h"/>
<use x="236.01096" y="47.753" xlink:href="#e"/>
<use x="147.446" y="18.021" xlink:href="#j"/>
<use x="152.15336" y="18.021" xlink:href="#n"/>
<use x="156.86072" y="18.021" xlink:href="#b"/>
<use x="166.27544" y="18.021" xlink:href="#i"/>
<use x="170.9828" y="18.021" xlink:href="#n"/>
<use x="175.69016" y="18.021" xlink:href="#d"/>
<use x="180.39752" y="18.021" xlink:href="#d"/>
<use x="185.10488" y="18.021" xlink:href="#g"/>
<use x="189.81224" y="18.021" xlink:href="#r"/>
<use x="194.5196" y="18.021" xlink:href="#b"/>
<use x="199.22696" y="18.021" xlink:href="#f"/>
<use x="203.93432" y="18.021" xlink:href="#k"/>
<use x="208.64168" y="18.021" xlink:href="#e"/>
<use x="218.0564" y="18.021" xlink:href="#g"/>
<use x="222.76376" y="18.021" xlink:href="#j"/>
<use x="227.47112" y="18.021" xlink:href="#c"/>
<use x="147.446" y="6.472" xlink:href="#d"/>
<use x="152.15336" y="6.472" xlink:href="#c"/>
<use x="156.86072" y="6.472" xlink:href="#b"/>
</g>
<path transform="matrix(1 0 0 -1 162.13 6.273)" d="m8.125e-4 -4.375e-4h2.8242" fill="none" stroke="#000" stroke-miterlimit="10" stroke-width=".398"/>
<g>
<use x="164.957" y="6.472" xlink:href="#d"/>
<use x="169.66436" y="6.472" xlink:href="#a"/>
<use x="174.37172" y="6.472" xlink:href="#i"/>
<use x="179.07908" y="6.472" xlink:href="#a"/>
<use x="183.78644" y="6.472" xlink:href="#w"/>
<use x="188.4938" y="6.472" xlink:href="#v"/>
<use x="193.20116" y="6.472" xlink:href="#a"/>
<use x="197.90852" y="6.472" xlink:href="#f"/>
<use x="202.61588" y="6.472" xlink:href="#k"/>
<use x="207.32324" y="6.472" xlink:href="#e"/>
<use x="216.73796" y="6.472" xlink:href="#g"/>
<use x="221.44532" y="6.472" xlink:href="#j"/>
<use x="226.15268" y="6.472" xlink:href="#c"/>
<use x="0.002" y="216.458" xlink:href="#f"/>
<use x="4.70936" y="216.458" xlink:href="#i"/>
<use x="9.41672" y="216.458" xlink:href="#n"/>
<use x="14.12408" y="216.458" xlink:href="#d"/>
<use x="18.83144" y="216.458" xlink:href="#d"/>
<use x="23.5388" y="216.458" xlink:href="#g"/>
<use x="28.24616" y="216.458" xlink:href="#r"/>
<use x="32.95352" y="216.458" xlink:href="#b"/>
<use x="37.66088" y="216.458" xlink:href="#f"/>
<use x="42.36824" y="216.458" xlink:href="#k"/>
<use x="47.0756" y="216.458" xlink:href="#e"/>
<use x="56.49032" y="216.458" xlink:href="#n"/>
<use x="61.19768" y="216.458" xlink:href="#c"/>
<use x="65.90504" y="216.458" xlink:href="#a"/>
<use x="70.6124" y="216.458" xlink:href="#d"/>
<use x="0.002" y="204.909" xlink:href="#d"/>
<use x="4.70936" y="204.909" xlink:href="#c"/>
<use x="9.41672" y="204.909" xlink:href="#b"/>
</g>
<path transform="matrix(1 0 0 -1 14.689 204.71)" d="m-0.0015-9.375e-4h2.8242" fill="none" stroke="#000" stroke-miterlimit="10" stroke-width=".398"/>
<g>
<use x="17.513" y="204.909" xlink:href="#d"/>
<use x="22.22036" y="204.909" xlink:href="#a"/>
<use x="26.92772" y="204.909" xlink:href="#i"/>
<use x="31.63508" y="204.909" xlink:href="#a"/>
<use x="36.34244" y="204.909" xlink:href="#w"/>
<use x="41.0498" y="204.909" xlink:href="#v"/>
<use x="45.75716" y="204.909" xlink:href="#a"/>
<use x="50.46452" y="204.909" xlink:href="#f"/>
<use x="55.17188" y="204.909" xlink:href="#k"/>
<use x="59.87924" y="204.909" xlink:href="#e"/>
<use x="69.29396" y="204.909" xlink:href="#g"/>
<use x="74.00132" y="204.909" xlink:href="#j"/>
<use x="78.70868" y="204.909" xlink:href="#c"/>
<use x="147.89" y="274.174" xlink:href="#a"/>
<use x="152.59736" y="274.174" xlink:href="#an"/>
<use x="157.30472" y="274.174" xlink:href="#b"/>
<use x="162.01208" y="274.174" xlink:href="#d"/>
<use x="166.71944" y="274.174" xlink:href="#h"/>
<use x="171.4268" y="274.174" xlink:href="#i"/>
<use x="176.13416" y="274.174" xlink:href="#b"/>
</g>
<path transform="matrix(1 0 0 -1 181.41 273.98)" d="m2.5e-4 -0.0015625h2.8242" fill="none" stroke="#000" stroke-miterlimit="10" stroke-width=".398"/>
<g>
<use x="184.23" y="274.174" xlink:href="#c"/>
<use x="188.93736" y="274.174" xlink:href="#h"/>
<use x="193.64472" y="274.174" xlink:href="#b"/>
<use x="198.35208" y="274.174" xlink:href="#h"/>
<use x="203.05944" y="274.174" xlink:href="#f"/>
<use x="207.7668" y="274.174" xlink:href="#k"/>
<use x="212.47416" y="274.174" xlink:href="#o"/>
<use x="217.18152" y="274.174" xlink:href="#c"/>
<use x="221.88888" y="274.174" xlink:href="#h"/>
<use x="226.59624" y="274.174" xlink:href="#b"/>
<use x="231.3036" y="274.174" xlink:href="#h"/>
<use x="236.01096" y="274.174" xlink:href="#e"/>
<use x="147.89" y="285.723" xlink:href="#c"/>
<use x="152.59736" y="285.723" xlink:href="#a"/>
<use x="157.30472" y="285.723" xlink:href="#ak"/>
<use x="162.01208" y="285.723" xlink:href="#w"/>
<use x="166.71944" y="285.723" xlink:href="#v"/>
<use x="171.4268" y="285.723" xlink:href="#a"/>
<use x="176.13416" y="285.723" xlink:href="#d"/>
</g>
<path transform="matrix(1 0 0 -1 181.41 285.52)" d="m2.5e-4 5.625e-4h2.8242" fill="none" stroke="#000" stroke-miterlimit="10" stroke-width=".398"/>
<g>
<use x="184.23" y="285.723" xlink:href="#c"/>
<use x="188.93736" y="285.723" xlink:href="#h"/>
<use x="193.64472" y="285.723" xlink:href="#b"/>
<use x="198.35208" y="285.723" xlink:href="#h"/>
<use x="203.05944" y="285.723" xlink:href="#f"/>
<use x="207.7668" y="285.723" xlink:href="#c"/>
<use x="212.47416" y="285.723" xlink:href="#h"/>
<use x="217.18152" y="285.723" xlink:href="#b"/>
<use x="221.88888" y="285.723" xlink:href="#h"/>
<use x="226.59624" y="285.723" xlink:href="#e"/>
<use x="147.446" y="233.782" xlink:href="#d"/>
<use x="152.15336" y="233.782" xlink:href="#c"/>
<use x="156.86072" y="233.782" xlink:href="#b"/>
</g>
<path transform="matrix(1 0 0 -1 162.13 233.58)" d="m8.125e-4 9.6875e-4h2.8242" fill="none" stroke="#000" stroke-miterlimit="10" stroke-width=".398"/>
<g>
<use x="164.957" y="233.782" xlink:href="#d"/>
<use x="169.66436" y="233.782" xlink:href="#a"/>
<use x="174.37172" y="233.782" xlink:href="#i"/>
<use x="179.07908" y="233.782" xlink:href="#a"/>
<use x="183.78644" y="233.782" xlink:href="#w"/>
<use x="188.4938" y="233.782" xlink:href="#v"/>
<use x="193.20116" y="233.782" xlink:href="#a"/>
<use x="197.90852" y="233.782" xlink:href="#f"/>
<use x="202.61588" y="233.782" xlink:href="#k"/>
<use x="207.32324" y="233.782" xlink:href="#e"/>
<use x="216.73796" y="233.782" xlink:href="#g"/>
<use x="221.44532" y="233.782" xlink:href="#j"/>
<use x="226.15268" y="233.782" xlink:href="#c"/>
<use x="147.446" y="245.331" xlink:href="#j"/>
<use x="152.15336" y="245.331" xlink:href="#n"/>
<use x="156.86072" y="245.331" xlink:href="#b"/>
<use x="166.27544" y="245.331" xlink:href="#i"/>
<use x="170.9828" y="245.331" xlink:href="#n"/>
<use x="175.69016" y="245.331" xlink:href="#d"/>
<use x="180.39752" y="245.331" xlink:href="#d"/>
<use x="185.10488" y="245.331" xlink:href="#g"/>
<use x="189.81224" y="245.331" xlink:href="#r"/>
<use x="194.5196" y="245.331" xlink:href="#b"/>
<use x="199.22696" y="245.331" xlink:href="#f"/>
<use x="203.93432" y="245.331" xlink:href="#k"/>
<use x="208.64168" y="245.331" xlink:href="#e"/>
<use x="218.0564" y="245.331" xlink:href="#g"/>
<use x="222.76376" y="245.331" xlink:href="#j"/>
<use x="227.47112" y="245.331" xlink:href="#c"/>
<use x="306.024" y="210.684" xlink:href="#f"/>
<use x="310.73136" y="210.684" xlink:href="#i"/>
<use x="315.43872" y="210.684" xlink:href="#n"/>
<use x="320.14608" y="210.684" xlink:href="#d"/>
<use x="324.85344" y="210.684" xlink:href="#d"/>
<use x="329.5608" y="210.684" xlink:href="#g"/>
<use x="334.26816" y="210.684" xlink:href="#r"/>
<use x="338.97552" y="210.684" xlink:href="#b"/>
<use x="343.68288" y="210.684" xlink:href="#f"/>
<use x="348.39024" y="210.684" xlink:href="#k"/>
<use x="353.0976" y="210.684" xlink:href="#e"/>
<use x="362.51232" y="210.684" xlink:href="#n"/>
<use x="367.21968" y="210.684" xlink:href="#c"/>
<use x="371.92704" y="210.684" xlink:href="#a"/>
<use x="376.6344" y="210.684" xlink:href="#d"/>
<use x="147.89" y="320.371" xlink:href="#g"/>
<use x="152.59736" y="320.371" xlink:href="#c"/>
<use x="157.30472" y="320.371" xlink:href="#b"/>
</g>
<path transform="matrix(1 0 0 -1 162.58 320.17)" d="m0.001125-8.75e-4h2.8242" fill="none" stroke="#000" stroke-miterlimit="10" stroke-width=".398"/>
<g>
<use x="165.401" y="320.371" xlink:href="#m"/>
<use x="170.10836" y="320.371" xlink:href="#a"/>
<use x="174.81572" y="320.371" xlink:href="#j"/>
<use x="179.52308" y="320.371" xlink:href="#c"/>
<use x="184.23044" y="320.371" xlink:href="#f"/>
<use x="188.9378" y="320.371" xlink:href="#q"/>
<use x="193.64516" y="320.371" xlink:href="#e"/>
<use x="147.89" y="297.272" xlink:href="#i"/>
<use x="152.59736" y="297.272" xlink:href="#n"/>
<use x="157.30472" y="297.272" xlink:href="#l"/>
<use x="162.01208" y="297.272" xlink:href="#r"/>
<use x="166.71944" y="297.272" xlink:href="#g"/>
<use x="171.4268" y="297.272" xlink:href="#b"/>
<use x="176.13416" y="297.272" xlink:href="#a"/>
<use x="185.54888" y="297.272" xlink:href="#i"/>
<use x="190.25624" y="297.272" xlink:href="#ab"/>
<use x="194.9636" y="297.272" xlink:href="#a"/>
<use x="199.67096" y="297.272" xlink:href="#i"/>
<use x="204.37832" y="297.272" xlink:href="#p"/>
<use x="209.08568" y="297.272" xlink:href="#m"/>
<use x="213.79304" y="297.272" xlink:href="#g"/>
<use x="218.5004" y="297.272" xlink:href="#l"/>
<use x="147.446" y="256.88" xlink:href="#m"/>
<use x="152.15336" y="256.88" xlink:href="#a"/>
<use x="156.86072" y="256.88" xlink:href="#aa"/>
</g>
<path transform="matrix(1 0 0 -1 162.13 256.68)" d="m8.125e-4 0.0013125h2.8242" fill="none" stroke="#000" stroke-miterlimit="10" stroke-width=".398"/>
<g>
<use x="164.957" y="256.88" xlink:href="#j"/>
<use x="169.66436" y="256.88" xlink:href="#g"/>
<use x="174.37172" y="256.88" xlink:href="#l"/>
<use x="179.07908" y="256.88" xlink:href="#z"/>
<use x="183.78644" y="256.88" xlink:href="#a"/>
<use x="188.4938" y="256.88" xlink:href="#d"/>
<use x="193.20116" y="256.88" xlink:href="#f"/>
<use x="197.90852" y="256.88" xlink:href="#k"/>
<use x="202.61588" y="256.88" xlink:href="#o"/>
<use x="207.32324" y="256.88" xlink:href="#ad"/>
<use x="212.0306" y="256.88" xlink:href="#e"/>
<use x="216.73796" y="256.88" xlink:href="#e"/>
<use x="147.446" y="29.57" xlink:href="#m"/>
<use x="152.15336" y="29.57" xlink:href="#a"/>
<use x="156.86072" y="29.57" xlink:href="#aa"/>
</g>
<path transform="matrix(1 0 0 -1 162.13 29.371)" d="m8.125e-4 -9.375e-5h2.8242" fill="none" stroke="#000" stroke-miterlimit="10" stroke-width=".398"/>
<g>
<use x="164.957" y="29.57" xlink:href="#j"/>
<use x="169.66436" y="29.57" xlink:href="#g"/>
<use x="174.37172" y="29.57" xlink:href="#l"/>
<use x="179.07908" y="29.57" xlink:href="#z"/>
<use x="183.78644" y="29.57" xlink:href="#a"/>
<use x="188.4938" y="29.57" xlink:href="#d"/>
<use x="193.20116" y="29.57" xlink:href="#f"/>
<use x="197.90852" y="29.57" xlink:href="#k"/>
<use x="202.61588" y="29.57" xlink:href="#o"/>
<use x="207.32324" y="29.57" xlink:href="#ac"/>
<use x="212.0306" y="29.57" xlink:href="#e"/>
<use x="216.73796" y="29.57" xlink:href="#e"/>
<use x="0.002" y="228.007" xlink:href="#m"/>
<use x="4.70936" y="228.007" xlink:href="#a"/>
<use x="9.41672" y="228.007" xlink:href="#aa"/>
</g>
<path transform="matrix(1 0 0 -1 14.689 227.81)" d="m-0.0015-5.9375e-4h2.8242" fill="none" stroke="#000" stroke-miterlimit="10" stroke-width=".398"/>
<g>
<use x="17.513" y="228.007" xlink:href="#j"/>
<use x="22.22036" y="228.007" xlink:href="#g"/>
<use x="26.92772" y="228.007" xlink:href="#l"/>
<use x="31.63508" y="228.007" xlink:href="#z"/>
<use x="36.34244" y="228.007" xlink:href="#a"/>
<use x="41.0498" y="228.007" xlink:href="#d"/>
<use x="45.75716" y="228.007" xlink:href="#f"/>
<use x="50.46452" y="228.007" xlink:href="#k"/>
<use x="55.17188" y="228.007" xlink:href="#o"/>
<use x="59.87924" y="228.007" xlink:href="#ad"/>
<use x="64.5866" y="228.007" xlink:href="#e"/>
<use x="69.29396" y="228.007" xlink:href="#e"/>
<use x="306.024" y="222.233" xlink:href="#m"/>
<use x="310.73136" y="222.233" xlink:href="#a"/>
<use x="315.43872" y="222.233" xlink:href="#aa"/>
</g>
<path transform="matrix(1 0 0 -1 320.71 222.03)" d="m9.375e-4 -0.0011562h2.8242" fill="none" stroke="#000" stroke-miterlimit="10" stroke-width=".398"/>
<g>
<use x="323.535" y="222.233" xlink:href="#j"/>
<use x="328.24236" y="222.233" xlink:href="#g"/>
<use x="332.94972" y="222.233" xlink:href="#l"/>
<use x="337.65708" y="222.233" xlink:href="#z"/>
<use x="342.36444" y="222.233" xlink:href="#a"/>
<use x="347.0718" y="222.233" xlink:href="#d"/>
<use x="351.77916" y="222.233" xlink:href="#f"/>
<use x="356.48652" y="222.233" xlink:href="#k"/>
<use x="361.19388" y="222.233" xlink:href="#o"/>
<use x="365.90124" y="222.233" xlink:href="#ac"/>
<use x="370.6086" y="222.233" xlink:href="#e"/>
<use x="375.31596" y="222.233" xlink:href="#e"/>
<use x="-0.027" y="248.085" xlink:href="#g"/>
<use x="4.68036" y="248.085" xlink:href="#c"/>
<use x="9.38772" y="248.085" xlink:href="#b"/>
</g>
<path transform="matrix(1 0 0 -1 14.659 247.89)" d="m0.0011562-7.1875e-4h2.8242" fill="none" stroke="#000" stroke-miterlimit="10" stroke-width=".398"/>
<g>
<use x="17.484" y="248.085" xlink:href="#m"/>
<use x="22.19136" y="248.085" xlink:href="#a"/>
<use x="26.89872" y="248.085" xlink:href="#j"/>
<use x="31.60608" y="248.085" xlink:href="#c"/>
<use x="36.31344" y="248.085" xlink:href="#f"/>
<use x="41.0208" y="248.085" xlink:href="#q"/>
<use x="45.72816" y="248.085" xlink:href="#e"/>
<use x="147.89" y="93.949" xlink:href="#g"/>
<use x="152.59736" y="93.949" xlink:href="#c"/>
<use x="157.30472" y="93.949" xlink:href="#b"/>
</g>
<path transform="matrix(1 0 0 -1 162.58 93.75)" d="m0.001125 0h2.8242" fill="none" stroke="#000" stroke-miterlimit="10" stroke-width=".398"/>
<g>
<use x="165.401" y="93.949" xlink:href="#m"/>
<use x="170.10836" y="93.949" xlink:href="#a"/>
<use x="174.81572" y="93.949" xlink:href="#j"/>
<use x="179.52308" y="93.949" xlink:href="#c"/>
<use x="184.23044" y="93.949" xlink:href="#f"/>
<use x="188.9378" y="93.949" xlink:href="#q"/>
<use x="193.64516" y="93.949" xlink:href="#e"/>
<use x="147.89" y="70.851" xlink:href="#i"/>
<use x="152.59736" y="70.851" xlink:href="#n"/>
<use x="157.30472" y="70.851" xlink:href="#l"/>
<use x="162.01208" y="70.851" xlink:href="#r"/>
<use x="166.71944" y="70.851" xlink:href="#g"/>
<use x="171.4268" y="70.851" xlink:href="#b"/>
<use x="176.13416" y="70.851" xlink:href="#a"/>
<use x="185.54888" y="70.851" xlink:href="#i"/>
<use x="190.25624" y="70.851" xlink:href="#ab"/>
<use x="194.9636" y="70.851" xlink:href="#a"/>
<use x="199.67096" y="70.851" xlink:href="#i"/>
<use x="204.37832" y="70.851" xlink:href="#p"/>
<use x="209.08568" y="70.851" xlink:href="#m"/>
<use x="213.79304" y="70.851" xlink:href="#g"/>
<use x="218.5004" y="70.851" xlink:href="#l"/>
<use x="147.89" y="82.4" xlink:href="#l"/>
<use x="152.59736" y="82.4" xlink:href="#h"/>
<use x="157.30472" y="82.4" xlink:href="#p"/>
<use x="162.01208" y="82.4" xlink:href="#a"/>
</g>
<path transform="matrix(1 0 0 -1 167.28 82.201)" d="m0.0011562 0.0017812h2.8242" fill="none" stroke="#000" stroke-miterlimit="10" stroke-width=".398"/>
<g>
<use x="170.108" y="82.4" xlink:href="#r"/>
<use x="174.81536" y="82.4" xlink:href="#h"/>
<use x="179.52272" y="82.4" xlink:href="#p"/>
<use x="184.23008" y="82.4" xlink:href="#a"/>
<use x="188.93744" y="82.4" xlink:href="#b"/>
<use x="193.6448" y="82.4" xlink:href="#f"/>
<use x="198.35216" y="82.4" xlink:href="#q"/>
<use x="203.05952" y="82.4" xlink:href="#o"/>
<use x="207.76688" y="82.4" xlink:href="#q"/>
<use x="212.47424" y="82.4" xlink:href="#am"/>
<use x="217.1816" y="82.4" xlink:href="#al"/>
<use x="221.88896" y="82.4" xlink:href="#ac"/>
<use x="226.59632" y="82.4" xlink:href="#o"/>
<use x="231.30368" y="82.4" xlink:href="#i"/>
<use x="236.01104" y="82.4" xlink:href="#ab"/>
<use x="240.7184" y="82.4" xlink:href="#a"/>
<use x="245.42576" y="82.4" xlink:href="#i"/>
<use x="250.13312" y="82.4" xlink:href="#p"/>
<use x="254.84048" y="82.4" xlink:href="#m"/>
<use x="259.54784" y="82.4" xlink:href="#g"/>
<use x="264.2552" y="82.4" xlink:href="#l"/>
<use x="268.96256" y="82.4" xlink:href="#e"/>
<use x="147.89" y="308.822" xlink:href="#l"/>
<use x="152.59736" y="308.822" xlink:href="#h"/>
<use x="157.30472" y="308.822" xlink:href="#p"/>
<use x="162.01208" y="308.822" xlink:href="#a"/>
</g>
<path transform="matrix(1 0 0 -1 167.28 308.62)" d="m0.0011562 9.0625e-4h2.8242" fill="none" stroke="#000" stroke-miterlimit="10" stroke-width=".398"/>
<g>
<use x="170.108" y="308.822" xlink:href="#r"/>
<use x="174.81536" y="308.822" xlink:href="#h"/>
<use x="179.52272" y="308.822" xlink:href="#p"/>
<use x="184.23008" y="308.822" xlink:href="#a"/>
<use x="188.93744" y="308.822" xlink:href="#b"/>
<use x="193.6448" y="308.822" xlink:href="#f"/>
<use x="198.35216" y="308.822" xlink:href="#q"/>
<use x="203.05952" y="308.822" xlink:href="#o"/>
<use x="207.76688" y="308.822" xlink:href="#q"/>
<use x="212.47424" y="308.822" xlink:href="#am"/>
<use x="217.1816" y="308.822" xlink:href="#al"/>
<use x="221.88896" y="308.822" xlink:href="#ad"/>
<use x="226.59632" y="308.822" xlink:href="#o"/>
<use x="231.30368" y="308.822" xlink:href="#i"/>
<use x="236.01104" y="308.822" xlink:href="#ab"/>
<use x="240.7184" y="308.822" xlink:href="#a"/>
<use x="245.42576" y="308.822" xlink:href="#i"/>
<use x="250.13312" y="308.822" xlink:href="#p"/>
<use x="254.84048" y="308.822" xlink:href="#m"/>
<use x="259.54784" y="308.822" xlink:href="#g"/>
<use x="264.2552" y="308.822" xlink:href="#l"/>
<use x="268.96256" y="308.822" xlink:href="#e"/>
<use x="306.024" y="199.135" xlink:href="#d"/>
<use x="310.73136" y="199.135" xlink:href="#c"/>
<use x="315.43872" y="199.135" xlink:href="#b"/>
</g>
<path transform="matrix(1 0 0 -1 320.71 198.94)" d="m9.375e-4 0.0014062h2.8242" fill="none" stroke="#000" stroke-miterlimit="10" stroke-width=".398"/>
<g>
<use x="323.535" y="199.135" xlink:href="#d"/>
<use x="328.24236" y="199.135" xlink:href="#a"/>
<use x="332.94972" y="199.135" xlink:href="#i"/>
<use x="337.65708" y="199.135" xlink:href="#a"/>
<use x="342.36444" y="199.135" xlink:href="#w"/>
<use x="347.0718" y="199.135" xlink:href="#v"/>
<use x="351.77916" y="199.135" xlink:href="#a"/>
<use x="356.48652" y="199.135" xlink:href="#f"/>
<use x="361.19388" y="199.135" xlink:href="#k"/>
<use x="365.90124" y="199.135" xlink:href="#e"/>
<use x="375.31596" y="199.135" xlink:href="#g"/>
<use x="380.02332" y="199.135" xlink:href="#j"/>
<use x="384.73068" y="199.135" xlink:href="#c"/>
<use x="0.446" y="16.244" xlink:href="#bg"/>
<use x="8.627825" y="16.244" xlink:href="#ah"/>
<use x="15.291103" y="16.244" xlink:href="#ba"/>
<use x="19.593652" y="16.244" xlink:href="#u"/>
<use x="24.441656" y="16.244" xlink:href="#az"/>
<use x="30.502752" y="16.244" xlink:href="#ay"/>
<use x="36.563848" y="16.244" xlink:href="#ag"/>
<use x="40.199851" y="16.244" xlink:href="#af"/>
<use x="47.330039" y="16.244" xlink:href="#ae"/>
<use x="52.784589" y="16.244" xlink:href="#aj"/>
<use x="58.236957" y="16.244" xlink:href="#u"/>
<use x="63.084961" y="16.244" xlink:href="#ai"/>
<use x="306.053" y="239.971" xlink:href="#g"/>
<use x="310.76036" y="239.971" xlink:href="#c"/>
<use x="315.46772" y="239.971" xlink:href="#b"/>
</g>
<path transform="matrix(1 0 0 -1 320.74 239.77)" d="m-0.0017188-0.0014375h2.8242" fill="none" stroke="#000" stroke-miterlimit="10" stroke-width=".398"/>
<g>
<use x="323.564" y="239.971" xlink:href="#m"/>
<use x="328.27136" y="239.971" xlink:href="#a"/>
<use x="332.97872" y="239.971" xlink:href="#j"/>
<use x="337.68608" y="239.971" xlink:href="#c"/>
<use x="342.39344" y="239.971" xlink:href="#f"/>
<use x="347.1008" y="239.971" xlink:href="#q"/>
<use x="351.80816" y="239.971" xlink:href="#e"/>
<use x="0.446" y="27.793" xlink:href="#bf"/>
<use x="8.172916" y="27.793" xlink:href="#ah"/>
<use x="14.836194" y="27.793" xlink:href="#be"/>
<use x="19.109288" y="27.793" xlink:href="#u"/>
<use x="23.957292" y="27.793" xlink:href="#bd"/>
<use x="28.805296" y="27.793" xlink:href="#u"/>
<use x="33.6533" y="27.793" xlink:href="#bc"/>
<use x="36.683848" y="27.793" xlink:href="#bb"/>
<use x="42.147126" y="27.793" xlink:href="#u"/>
<use x="46.99513" y="27.793" xlink:href="#ag"/>
<use x="50.631133" y="27.793" xlink:href="#af"/>
<use x="57.750411" y="27.793" xlink:href="#ae"/>
<use x="63.204961" y="27.793" xlink:href="#aj"/>
<use x="68.65733" y="27.793" xlink:href="#u"/>
<use x="73.505334" y="27.793" xlink:href="#ai"/>
</g>
</svg>
