<svg width="398pt" height="221pt" version="1.1" viewBox="0 0 398 221" xmlns="http://www.w3.org/2000/svg" xmlns:xlink="http://www.w3.org/1999/xlink">
<defs>
<g id="r">
<path d="m0.51562-8.1562v0.34375h0.23438c0.85938 0 0.90625 0.10938 0.90625 0.5625v6.3438c0 0.4375-0.046875 0.5625-0.90625 0.5625h-0.23438v0.34375h4.5c1.5312 0 2.6094-1.0469 2.6094-2.1875 0-0.96875-0.875-1.9219-2.2969-2.0781 1.1406-0.21875 1.9688-0.98438 1.9688-1.875 0-1.0312-1.0469-2.0156-2.6094-2.0156zm2.0469 3.7969v-2.9844c0-0.39062 0.015625-0.46875 0.54688-0.46875h1.5c1.2031 0 1.625 1.0156 1.625 1.6719 0 0.78125-0.60938 1.7812-1.9375 1.7812zm0.54688 4.0156c-0.53125 0-0.54688-0.09375-0.54688-0.48438v-3.2969h2.2344c1.1406 0 1.7344 1 1.7344 1.9219 0 0.96875-0.71875 1.8594-1.8906 1.8594z"/>
</g>
<g id="a">
<path d="m4.5781-2.7656c0.26562 0 0.28125 0 0.28125-0.23438 0-1.2031-0.64062-2.3281-2.0938-2.3281-1.3594 0-2.4062 1.2344-2.4062 2.7031 0 1.5781 1.2188 2.75 2.5469 2.75 1.4219 0 1.9531-1.2969 1.9531-1.5469 0-0.078125-0.046875-0.125-0.125-0.125-0.09375 0-0.125 0.0625-0.14062 0.125-0.3125 1-1.1094 1.2812-1.625 1.2812-0.5 0-1.7031-0.34375-1.7031-2.4062v-0.21875zm-3.2969-0.23438c0.09375-1.875 1.1406-2.0938 1.4844-2.0938 1.2812 0 1.3438 1.6875 1.3594 2.0938z"/>
</g>
<g id="c">
<path d="m5.3125-2.9062c0-1.1094 0-1.4375-0.26562-1.8281-0.34375-0.46875-0.90625-0.53125-1.3125-0.53125-1.1719 0-1.625 0.98438-1.7188 1.2188v-1.2188l-1.6406 0.125v0.34375c0.8125 0 0.92188 0.09375 0.92188 0.67188v3.2344c0 0.54688-0.14062 0.54688-0.92188 0.54688v0.34375c0.3125-0.03125 0.96875-0.03125 1.2969-0.03125 0.34375 0 1 0 1.2969 0.03125v-0.34375c-0.75 0-0.90625 0-0.90625-0.54688v-2.2188c0-1.25 0.82812-1.9219 1.5781-1.9219 0.73438 0 0.90625 0.60938 0.90625 1.3438v2.7969c0 0.54688-0.14062 0.54688-0.90625 0.54688v0.34375c0.29688-0.03125 0.95312-0.03125 1.2812-0.03125 0.34375 0 1 0 1.3125 0.03125v-0.34375c-0.60938 0-0.90625 0-0.92188-0.35938z"/>
</g>
<g id="m">
<path d="m3.6406-5.1406v0.34375c0.8125 0 0.90625 0.09375 0.90625 0.67188v2.1406c0 1.0156-0.54688 1.8594-1.4375 1.8594-0.98438 0-1.0469-0.5625-1.0469-1.1875v-3.9531l-1.6875 0.125v0.34375c0.92188 0 0.92188 0.046875 0.92188 1.1094v1.7812c0 0.75 0 1.1719 0.35938 1.5781 0.28125 0.29688 0.76562 0.45312 1.375 0.45312 0.20312 0 0.59375 0 1-0.35938 0.34375-0.26562 0.53125-0.71875 0.53125-0.71875v1.0781l1.6719-0.125v-0.34375c-0.8125 0-0.92188-0.09375-0.92188-0.67188v-4.25z"/>
</g>
<g id="b">
<path d="m2.0156-4.8125h1.6719v-0.34375h-1.6719v-2.1875h-0.26562c-0.015625 1.1094-0.45312 2.2656-1.5312 2.2969v0.23438h1.0156v3.3281c0 1.3281 0.875 1.6094 1.5156 1.6094 0.75 0 1.1406-0.75 1.1406-1.6094v-0.67188h-0.25v0.65625c0 0.85938-0.35938 1.3594-0.8125 1.3594-0.8125 0-0.8125-1.1094-0.8125-1.3125z"/>
</g>
<g id="p">
<path d="m4.5469-4.8125c0.10938-0.14062 0.10938-0.15625 0.10938-0.20312 0-0.14062-0.078125-0.14062-0.28125-0.14062h-3.75l-0.14062 1.9062h0.26562c0.078125-1.2188 0.29688-1.6562 1.6094-1.6562h1.375l-3.4062 4.6875c0 0.21875 0.015625 0.21875 0.28125 0.21875h3.8906l0.20312-2.2031h-0.26562c-0.10938 1.3594-0.3125 1.9375-1.7344 1.9375h-1.4531z"/>
</g>
<g id="e">
<path d="m2-8.2969-1.6719 0.14062v0.34375c0.8125 0 0.92188 0.078125 0.92188 0.67188v7.1406h0.25c0.046875-0.09375 0.39062-0.6875 0.4375-0.78125 0.28125 0.45312 0.78125 0.90625 1.5469 0.90625 1.375 0 2.5938-1.1719 2.5938-2.7031 0-1.5156-1.125-2.6875-2.4531-2.6875-0.65625 0-1.2188 0.29688-1.625 0.79688zm0.015625 4.4688c0-0.21875 0-0.23438 0.14062-0.42188 0.28125-0.4375 0.8125-0.78125 1.3906-0.78125 0.35938 0 1.6094 0.14062 1.6094 2.4375 0 0.79688-0.10938 1.2969-0.40625 1.7344-0.23438 0.375-0.70312 0.73438-1.3125 0.73438-0.64062 0-1.0625-0.40625-1.2656-0.73438-0.15625-0.25-0.15625-0.29688-0.15625-0.5z"/>
</g>
<g id="g">
<path d="m4.6094-3.1875c0-0.65625 0-1.125-0.51562-1.5938-0.42188-0.375-0.96875-0.54688-1.4844-0.54688-0.98438 0-1.7344 0.64062-1.7344 1.4219 0 0.34375 0.21875 0.51562 0.5 0.51562s0.48438-0.20312 0.48438-0.5c0-0.48438-0.42188-0.48438-0.60938-0.48438 0.28125-0.5 0.85938-0.71875 1.3281-0.71875 0.54688 0 1.2656 0.45312 1.2656 1.5312v0.48438c-2.4062 0.03125-3.3125 1.0312-3.3125 1.9531 0 0.95312 1.0938 1.25 1.8281 1.25 0.78125 0 1.3281-0.48438 1.5469-1.0625 0.046875 0.5625 0.42188 1 0.9375 1 0.25 0 0.9375-0.17188 0.9375-1.125v-0.67188h-0.26562v0.67188c0 0.6875-0.28125 0.78125-0.45312 0.78125-0.45312 0-0.45312-0.64062-0.45312-0.8125zm-0.76562 1.5c0 1.1719-0.875 1.5625-1.3906 1.5625-0.59375 0-1.0781-0.42188-1.0781-1 0-1.5781 2.0312-1.7188 2.4688-1.75z"/>
</g>
<g id="f">
<path d="m2-2.7812c0-1.1562 0.46875-2.25 1.3906-2.25 0.09375 0 0.125 0 0.17188 0.015625-0.09375 0.046875-0.28125 0.10938-0.28125 0.4375 0 0.34375 0.26562 0.48438 0.45312 0.48438 0.25 0 0.48438-0.15625 0.48438-0.48438 0-0.35938-0.32812-0.6875-0.84375-0.6875-1.0156 0-1.3594 1.0938-1.4219 1.3281h-0.015625v-1.3281l-1.6094 0.125v0.34375c0.8125 0 0.92188 0.09375 0.92188 0.67188v3.2344c0 0.54688-0.14062 0.54688-0.92188 0.54688v0.34375c0.34375-0.03125 1-0.03125 1.3594-0.03125 0.32812 0 1.1719 0 1.4375 0.03125v-0.34375h-0.23438c-0.875 0-0.89062-0.14062-0.89062-0.5625z"/>
</g>
<g id="q">
<path d="m2.3281 0.046875c0-0.73438-0.25-1.2031-0.71875-1.2031-0.34375 0-0.5625 0.26562-0.5625 0.57812s0.21875 0.57812 0.57812 0.57812c0.1875 0 0.3125-0.078125 0.39062-0.14062 0.03125-0.03125 0.046875-0.03125 0.046875-0.03125 0.03125 0 0.03125 0.15625 0.03125 0.21875 0 0.76562-0.3125 1.4844-0.84375 2.0312-0.046875 0.03125-0.0625 0.0625-0.0625 0.10938 0 0.0625 0.0625 0.125 0.125 0.125 0.10938 0 1.0156-0.89062 1.0156-2.2656z"/>
</g>
<g id="l">
<path d="m5.4844-2.5625c0-1.5312-1.1719-2.7656-2.5625-2.7656-1.4219 0-2.5625 1.2656-2.5625 2.7656 0 1.5312 1.1875 2.6875 2.5625 2.6875 1.4062 0 2.5625-1.1719 2.5625-2.6875zm-2.5625 2.4219c-0.4375 0-0.96875-0.1875-1.3125-0.78125-0.32812-0.53125-0.34375-1.2344-0.34375-1.75 0-0.45312 0-1.1719 0.375-1.7188 0.32812-0.51562 0.85938-0.70312 1.2812-0.70312 0.45312 0 0.96875 0.21875 1.2812 0.6875 0.375 0.54688 0.375 1.2969 0.375 1.7344 0 0.42188 0 1.1719-0.3125 1.7344-0.32812 0.5625-0.89062 0.79688-1.3438 0.79688z"/>
</g>
<g id="j">
<path d="m4.3281-4.4219c-0.14062 0-0.59375 0-0.59375 0.48438 0 0.29688 0.20312 0.5 0.5 0.5 0.26562 0 0.5-0.17188 0.5-0.51562 0-0.79688-0.84375-1.375-1.8125-1.375-1.3906 0-2.5 1.2344-2.5 2.75 0 1.5312 1.1406 2.7031 2.5 2.7031 1.5781 0 1.9375-1.4375 1.9375-1.5469s-0.09375-0.10938-0.125-0.10938c-0.10938 0-0.125 0.03125-0.15625 0.1875-0.26562 0.84375-0.90625 1.2031-1.5469 1.2031-0.73438 0-1.7031-0.64062-1.7031-2.4531 0-1.9844 1.0156-2.4688 1.6094-2.4688 0.45312 0 1.1094 0.17188 1.3906 0.64062z"/>
</g>
<g id="i">
<path d="m5.3125-2.9062c0-1.1094 0-1.4375-0.26562-1.8281-0.34375-0.46875-0.90625-0.53125-1.3125-0.53125-1.0312 0-1.5156 0.76562-1.6719 1.1406h-0.015625v-4.1719l-1.6719 0.14062v0.34375c0.8125 0 0.92188 0.078125 0.92188 0.67188v6.25c0 0.54688-0.14062 0.54688-0.92188 0.54688v0.34375c0.3125-0.03125 0.96875-0.03125 1.2969-0.03125 0.34375 0 1 0 1.2969 0.03125v-0.34375c-0.75 0-0.90625 0-0.90625-0.54688v-2.2188c0-1.25 0.82812-1.9219 1.5781-1.9219 0.73438 0 0.90625 0.60938 0.90625 1.3438v2.7969c0 0.54688-0.14062 0.54688-0.90625 0.54688v0.34375c0.29688-0.03125 0.95312-0.03125 1.2812-0.03125 0.34375 0 1 0 1.3125 0.03125v-0.34375c-0.60938 0-0.90625 0-0.92188-0.35938z"/>
</g>
<g id="h">
<path d="m2.0781-7.3594c0-0.3125-0.25-0.59375-0.57812-0.59375-0.3125 0-0.57812 0.25-0.57812 0.57812 0 0.35938 0.28125 0.57812 0.57812 0.57812 0.35938 0 0.57812-0.29688 0.57812-0.5625zm-1.6406 2.2188v0.34375c0.75 0 0.85938 0.078125 0.85938 0.65625v3.25c0 0.54688-0.125 0.54688-0.90625 0.54688v0.34375c0.34375-0.03125 0.90625-0.03125 1.2656-0.03125 0.125 0 0.8125 0 1.2188 0.03125v-0.34375c-0.76562 0-0.8125-0.0625-0.8125-0.53125v-4.3906z"/>
</g>
<g id="k">
<path d="m1.4219-2.1562c0.5625 0.35938 1.0469 0.35938 1.1719 0.35938 1.0781 0 1.875-0.8125 1.875-1.7344 0-0.3125-0.09375-0.76562-0.46875-1.1562 0.45312-0.46875 1.0156-0.46875 1.0781-0.46875 0.046875 0 0.10938 0 0.15625 0.015625-0.125 0.046875-0.17188 0.17188-0.17188 0.29688 0 0.17188 0.10938 0.3125 0.29688 0.3125 0.10938 0 0.3125-0.0625 0.3125-0.32812 0-0.20312-0.15625-0.54688-0.57812-0.54688-0.625 0-1.0938 0.39062-1.25 0.5625-0.35938-0.26562-0.78125-0.42188-1.2344-0.42188-1.0781 0-1.875 0.8125-1.875 1.7344 0 0.67188 0.40625 1.1094 0.53125 1.2188-0.14062 0.1875-0.35938 0.53125-0.35938 1 0 0.6875 0.42188 0.98438 0.51562 1.0469-0.54688 0.15625-1.0938 0.59375-1.0938 1.2031 0 0.82812 1.125 1.5156 2.5938 1.5156 1.4219 0 2.5938-0.64062 2.5938-1.5312 0-0.29688-0.078125-1-0.79688-1.375-0.60938-0.3125-1.2031-0.3125-2.2344-0.3125-0.73438 0-0.8125 0-1.0312-0.21875-0.10938-0.125-0.21875-0.35938-0.21875-0.60938 0-0.20312 0.0625-0.40625 0.1875-0.5625zm1.1875 0.10938c-1.0625 0-1.0625-1.2031-1.0625-1.4844 0-0.20312 0-0.70312 0.20312-1.0156 0.23438-0.35938 0.59375-0.46875 0.84375-0.46875 1.0469 0 1.0469 1.2031 1.0469 1.4844 0 0.20312 0 0.70312-0.20312 1.0156-0.21875 0.35938-0.57812 0.46875-0.82812 0.46875zm0.3125 4.25c-1.1406 0-2.0156-0.59375-2.0156-1.2656 0-0.09375 0.03125-0.5625 0.48438-0.875 0.26562-0.17188 0.35938-0.17188 1.2031-0.17188 0.98438 0 2.3438 0 2.3438 1.0469 0 0.70312-0.90625 1.2656-2.0156 1.2656z"/>
</g>
<g id="d">
<path d="m3.9219-5.0625c0-0.20312 0-0.26562-0.125-0.26562-0.09375 0-0.3125 0.26562-0.40625 0.375-0.35938-0.3125-0.73438-0.375-1.125-0.375-1.4375 0-1.875 0.78125-1.875 1.4375 0 0.14062 0 0.5625 0.45312 0.96875 0.39062 0.34375 0.79688 0.42188 1.3438 0.53125 0.65625 0.125 0.8125 0.17188 1.1094 0.40625 0.21875 0.17188 0.375 0.4375 0.375 0.78125 0 0.51562-0.29688 1.0781-1.3594 1.0781-0.78125 0-1.3594-0.45312-1.625-1.6406-0.046875-0.21875-0.046875-0.23438-0.046875-0.25-0.03125-0.046875-0.078125-0.046875-0.10938-0.046875-0.14062 0-0.14062 0.0625-0.14062 0.28125v1.625c0 0.21875 0 0.28125 0.125 0.28125 0.0625 0 0.0625-0.015625 0.26562-0.26562 0.0625-0.09375 0.0625-0.10938 0.25-0.29688 0.45312 0.5625 1.0938 0.5625 1.2969 0.5625 1.25 0 1.875-0.70312 1.875-1.6406 0-0.64062-0.39062-1.0312-0.5-1.1406-0.42188-0.375-0.75-0.4375-1.5469-0.57812-0.34375-0.078125-1.2188-0.25-1.2188-0.96875 0-0.35938 0.25-0.90625 1.3281-0.90625 1.2969 0 1.375 1.1094 1.3906 1.4688 0.015625 0.10938 0.09375 0.10938 0.14062 0.10938 0.125 0 0.125-0.0625 0.125-0.28125z"/>
</g>
<g id="o">
<path d="m3.5781-8.1562v0.34375c0.82812 0 0.92188 0.078125 0.92188 0.67188v2.6406c-0.25-0.35938-0.76562-0.76562-1.5-0.76562-1.3906 0-2.5781 1.1719-2.5781 2.7031 0 1.5156 1.125 2.6875 2.4531 2.6875 0.90625 0 1.4219-0.60938 1.5938-0.82812v0.82812l1.6875-0.125v-0.34375c-0.8125 0-0.90625-0.09375-0.90625-0.67188v-7.2812zm0.89062 6.75c0 0.21875 0 0.26562-0.17188 0.51562-0.28125 0.42188-0.76562 0.76562-1.375 0.76562-0.29688 0-1.5938-0.10938-1.5938-2.4375 0-0.85938 0.14062-1.3281 0.40625-1.7344 0.23438-0.35938 0.71875-0.73438 1.3125-0.73438 0.75 0 1.1562 0.53125 1.2812 0.73438 0.14062 0.20312 0.14062 0.21875 0.14062 0.4375z"/>
</g>
<g id="aa">
<path d="m2.7031-8c-0.10938-0.15625-0.125-0.15625-0.39062-0.15625h-1.8281v0.34375c0.51562 0 0.8125 0 1.1406 0.078125v6.4844c0 0.34375 0 0.90625-1.1406 0.90625v0.34375c0.3125-0.03125 0.95312-0.03125 1.2812-0.03125 0.34375 0 0.96875 0 1.2812 0.03125v-0.34375c-1.1406 0-1.1406-0.5625-1.1406-0.90625v-6.2969c0.10938 0.09375 0.10938 0.125 0.20312 0.26562l4.6719 7.1094c0.10938 0.15625 0.125 0.17188 0.21875 0.17188s0.125-0.046875 0.14062-0.078125v-6.8281c0-0.34375 0-0.90625 1.125-0.90625v-0.34375c-0.3125 0.015625-0.9375 0.015625-1.2656 0.015625-0.34375 0-0.96875 0-1.2812-0.015625v0.34375c1.125 0 1.125 0.5625 1.125 0.90625v5.2188z"/>
</g>
<g id="z">
<path d="m3.3438-2.8281c0.34375-0.45312 0.85938-1.0938 1.0781-1.3438 0.48438-0.54688 1.0469-0.64062 1.4375-0.64062v-0.34375c-0.51562 0.03125-0.54688 0.03125-1 0.03125s-0.48438 0-1.0781-0.03125v0.34375c0.15625 0.03125 0.34375 0.10938 0.34375 0.375 0 0.20312-0.10938 0.34375-0.1875 0.4375l-0.76562 0.96875-0.92188-1.2344c-0.03125-0.046875-0.10938-0.15625-0.10938-0.23438s0.0625-0.29688 0.42188-0.3125v-0.34375c-0.29688 0.03125-0.90625 0.03125-1.2344 0.03125-0.39062 0-0.42188 0-1.1562-0.03125v0.34375c0.60938 0 0.84375 0.03125 1.0938 0.35938l1.4062 1.8281c0.015625 0.015625 0.0625 0.09375 0.0625 0.125s-0.92188 1.2031-1.0469 1.3594c-0.53125 0.65625-1.0469 0.78125-1.5625 0.79688v0.34375c0.45312-0.03125 0.46875-0.03125 0.98438-0.03125 0.45312 0 0.48438 0 1.0781 0.03125v-0.34375c-0.28125-0.03125-0.32812-0.21875-0.32812-0.39062 0-0.1875 0.078125-0.28125 0.20312-0.4375 0.17188-0.25 0.5625-0.73438 0.85938-1.1094l0.96875 1.2812c0.20312 0.26562 0.20312 0.28125 0.20312 0.35938 0 0.09375-0.09375 0.28125-0.40625 0.29688v0.34375c0.3125-0.03125 0.89062-0.03125 1.2188-0.03125 0.40625 0 0.42188 0 1.1406 0.03125v-0.34375c-0.625 0-0.84375-0.03125-1.1406-0.40625z"/>
</g>
<g id="y">
<path d="m5.25-5.2656h-0.23438l-0.45312 1.1094c-0.21875-0.45312-0.67188-1.1094-1.5938-1.1094-1.3125 0-2.5469 1.125-2.5469 2.7031 0 1.5156 1.1406 2.6875 2.4531 2.6875 0.64062 0 1.1719-0.29688 1.5938-0.90625v2.2188c0 0.53125-0.125 0.53125-0.90625 0.53125v0.34375c0.3125-0.015625 0.95312-0.015625 1.2969-0.015625s0.98438 0 1.2969 0.015625v-0.34375c-0.76562 0-0.90625 0-0.90625-0.53125zm-0.75 3.6562c0 0.39062-0.21875 0.73438-0.5 1.0156-0.42188 0.4375-0.875 0.46875-1.0625 0.46875-0.90625 0-1.6094-1.125-1.6094-2.4375 0-1.4375 0.82812-2.4531 1.7188-2.4531 0.95312 0 1.4531 1.0312 1.4531 1.6562z"/>
</g>
<g id="x">
<path d="m8.5781-2.9062c0-1.1094 0-1.4375-0.28125-1.8281-0.34375-0.46875-0.90625-0.53125-1.3125-0.53125-1 0-1.5 0.71875-1.6875 1.1719-0.17188-0.92188-0.8125-1.1719-1.5625-1.1719-1.1719 0-1.625 0.98438-1.7188 1.2188v-1.2188l-1.6406 0.125v0.34375c0.8125 0 0.92188 0.09375 0.92188 0.67188v3.2344c0 0.54688-0.14062 0.54688-0.92188 0.54688v0.34375c0.3125-0.03125 0.96875-0.03125 1.2969-0.03125 0.34375 0 1 0 1.2969 0.03125v-0.34375c-0.75 0-0.90625 0-0.90625-0.54688v-2.2188c0-1.25 0.82812-1.9219 1.5781-1.9219 0.73438 0 0.90625 0.60938 0.90625 1.3438v2.7969c0 0.54688-0.14062 0.54688-0.90625 0.54688v0.34375c0.29688-0.03125 0.95312-0.03125 1.2812-0.03125 0.34375 0 1 0 1.3125 0.03125v-0.34375c-0.76562 0-0.92188 0-0.92188-0.54688v-2.2188c0-1.25 0.82812-1.9219 1.5781-1.9219 0.73438 0 0.90625 0.60938 0.90625 1.3438v2.7969c0 0.54688-0.14062 0.54688-0.90625 0.54688v0.34375c0.3125-0.03125 0.95312-0.03125 1.2812-0.03125 0.34375 0 1 0 1.3125 0.03125v-0.34375c-0.60938 0-0.90625 0-0.90625-0.35938z"/>
</g>
<g id="n">
<path d="m2.3438-7.4062c0-0.29688-0.25-0.54688-0.54688-0.54688s-0.54688 0.21875-0.54688 0.54688c0 0.34375 0.25 0.5625 0.54688 0.5625s0.54688-0.25 0.54688-0.5625zm2.2656 0c0-0.32812-0.26562-0.54688-0.5625-0.54688s-0.54688 0.25-0.54688 0.54688c0 0.3125 0.25 0.5625 0.54688 0.5625s0.5625-0.21875 0.5625-0.5625z"/>
</g>
<g id="w">
<path d="m7.7812-2.3594c0-0.46875 0.046875-0.53125 0.8125-0.53125v-0.34375c-0.3125 0.015625-1.1406 0.015625-1.5 0.015625-0.375 0-1.4219 0-1.7344-0.015625v0.34375h0.35938c1.0625 0 1.0938 0.14062 1.0938 0.57812v0.76562c0 1.3594-1.5625 1.4531-1.875 1.4531-0.9375 0-3.1875-0.57812-3.1875-4 0-3.4531 2.2656-3.9688 3.1094-3.9688 1.0312 0 2.2812 0.75 2.5938 2.8594 0.015625 0.14062 0.015625 0.17188 0.15625 0.17188 0.17188 0 0.17188-0.03125 0.17188-0.28125v-2.8281c0-0.21875 0-0.28125-0.125-0.28125-0.0625 0-0.078125 0.03125-0.15625 0.15625l-0.57812 0.9375c-0.34375-0.42188-1.0781-1.0938-2.2188-1.0938-2.1562 0-4.0625 1.8906-4.0625 4.3281 0 2.4844 1.9062 4.3438 4.0781 4.3438 0.84375 0 1.8125-0.28125 2.2656-1.0312 0.21875 0.375 0.60938 0.76562 0.70312 0.76562s0.09375-0.0625 0.09375-0.26562z"/>
</g>
<g id="v">
<path d="m2.4844-4.9844c-0.60938-0.15625-1.1406-0.75-1.1406-1.5156 0-0.84375 0.67188-1.5938 1.5938-1.5938 1.9688 0 2.2188 1.9375 2.2969 2.4531 0.03125 0.14062 0.03125 0.1875 0.14062 0.1875 0.14062 0 0.14062-0.0625 0.14062-0.26562v-2.4219c0-0.21875 0-0.28125-0.125-0.28125-0.03125 0-0.078125 0-0.17188 0.15625l-0.39062 0.73438c-0.57812-0.73438-1.3594-0.89062-1.8906-0.89062-1.3281 0-2.2969 1.0781-2.2969 2.2969 0 0.5625 0.20312 1.0938 0.65625 1.5781 0.40625 0.45312 0.82812 0.5625 1.6719 0.78125 0.42188 0.09375 1.0781 0.26562 1.25 0.32812 0.5625 0.28125 0.9375 0.92188 0.9375 1.5938 0 0.90625-0.64062 1.75-1.625 1.75-0.54688 0-1.2812-0.14062-1.875-0.64062-0.6875-0.625-0.73438-1.4844-0.75-1.8906-0.015625-0.09375-0.10938-0.09375-0.125-0.09375-0.14062 0-0.14062 0.0625-0.14062 0.28125v2.4062c0 0.21875 0 0.28125 0.125 0.28125 0.078125 0 0.078125-0.015625 0.17188-0.17188 0.046875-0.09375 0.29688-0.53125 0.39062-0.71875 0.42188 0.48438 1.1875 0.89062 2.2031 0.89062 1.3438 0 2.3125-1.1406 2.3125-2.4531 0-0.71875-0.28125-1.2656-0.59375-1.6562-0.4375-0.54688-0.98438-0.67188-1.4531-0.79688z"/>
</g>
<g id="u">
<path d="m2.0625-4.8125h1.3438v-0.34375h-1.375v-1.3906c0-1.0781 0.54688-1.625 1.0469-1.625 0.09375 0 0.26562 0.015625 0.40625 0.09375-0.046875 0.015625-0.34375 0.125-0.34375 0.46875 0 0.26562 0.1875 0.46875 0.46875 0.46875s0.48438-0.20312 0.48438-0.48438c0-0.4375-0.4375-0.79688-1.0156-0.79688-0.82812 0-1.7812 0.65625-1.7812 1.875v1.3906h-0.92188v0.34375h0.92188v3.9219c0 0.54688-0.125 0.54688-0.90625 0.54688v0.34375c0.34375-0.03125 1-0.03125 1.3594-0.03125 0.3125 0 1.1719 0 1.4375 0.03125v-0.34375h-0.23438c-0.875 0-0.89062-0.14062-0.89062-0.5625z"/>
</g>
<g id="t">
<path d="m3.5625-5.0156c0.89062-0.23438 1.6406-0.875 1.6406-1.7188 0-0.89062-0.85938-1.6875-2-1.6875-0.95312 0-1.9531 0.60938-1.9531 1.7656v1.5h-0.92188v0.34375h0.92188v3.9219c0 0.54688-0.14062 0.54688-0.92188 0.54688v0.34375c0.32812-0.03125 0.6875-0.03125 1.0156-0.03125 0.20312 0 0.48438 0 0.65625 0.03125v-6.6562c0-1.4531 1.0312-1.5156 1.2031-1.5156 0.48438 0 1.1562 0.375 1.1562 1.4375 0 1.4531-1.3281 1.5625-1.6406 1.5781-0.078125 0.015625-0.078125 0.10938-0.078125 0.125 0 0.10938 0.0625 0.10938 0.14062 0.125 1.2812 0.10938 1.9062 1.4219 1.9062 2.8281 0 1.5781-0.8125 1.9531-1.25 1.9531-0.078125 0-0.42188 0-0.67188-0.23438 0.26562-0.046875 0.34375-0.23438 0.34375-0.375 0-0.26562-0.1875-0.40625-0.39062-0.40625s-0.39062 0.14062-0.39062 0.40625c0 0.45312 0.4375 0.85938 1.125 0.85938 1.0469 0 2.0625-0.89062 2.0625-2.2031s-0.76562-2.5312-1.9531-2.9375z"/>
</g>
<g id="s">
<path d="m2.4688-3.5c0.015625-0.078125 0.3125-0.67188 0.76562-1.0469 0.29688-0.29688 0.70312-0.48438 1.1719-0.48438 0.48438 0 0.65625 0.35938 0.65625 0.82812 0 0.6875-0.5 2.0469-0.73438 2.7031-0.10938 0.28125-0.17188 0.4375-0.17188 0.65625 0 0.53125 0.375 0.96875 0.95312 0.96875 1.1094 0 1.5312-1.7656 1.5312-1.8281s-0.046875-0.10938-0.125-0.10938c-0.10938 0-0.125 0.03125-0.1875 0.23438-0.26562 0.98438-0.71875 1.4531-1.1875 1.4531-0.125 0-0.3125 0-0.3125-0.39062 0-0.29688 0.125-0.65625 0.20312-0.82812 0.23438-0.65625 0.73438-1.9844 0.73438-2.6719 0-0.71875-0.40625-1.25-1.3125-1.25-1.0781 0-1.625 0.75-1.8438 1.0469-0.046875-0.6875-0.53125-1.0469-1.0625-1.0469-0.375 0-0.64062 0.21875-0.84375 0.625-0.21875 0.4375-0.375 1.1562-0.375 1.2031s0.046875 0.10938 0.125 0.10938c0.09375 0 0.10938-0.015625 0.1875-0.29688 0.1875-0.71875 0.40625-1.4062 0.875-1.4062 0.28125 0 0.375 0.1875 0.375 0.54688 0 0.26562-0.125 0.73438-0.20312 1.1094l-0.34375 1.2812c-0.046875 0.23438-0.17188 0.76562-0.23438 0.98438-0.078125 0.3125-0.21875 0.875-0.21875 0.9375 0 0.15625 0.14062 0.29688 0.3125 0.29688 0.14062 0 0.3125-0.078125 0.40625-0.25 0.03125-0.0625 0.14062-0.48438 0.20312-0.71875l0.25-1.0781z"/>
</g>
<clipPath id="al">
<path d="m0.52734 43h15.473v36h-15.473z"/>
</clipPath>
<clipPath id="ak">
<path d="m114 14h1v30h-1z"/>
</clipPath>
<clipPath id="ai">
<path d="m0.52734 220.82h398v-221h-398zm114.05-177.35h-0.44141l-1.668-5.2617 1.8867 0.94531 1.8906-0.94531z" clip-rule="evenodd"/>
</clipPath>
<clipPath id="ah">
<path d="m263 14h1v30h-1z"/>
</clipPath>
<clipPath id="ag">
<path d="m0.52734 220.82h398v-221h-398zm262.88-177.35h-0.44141l-1.668-5.2617 1.8906 0.94531 1.8867-0.94531z" clip-rule="evenodd"/>
</clipPath>
<clipPath id="af">
<path d="m114 78h214v30h-214z"/>
</clipPath>
<clipPath id="ae">
<path d="m0.52734 220.82h398v-221h-398zm326.23-142.36h0.44141l1.668 5.2578-1.8906-0.94531-1.8867 0.94531zm-212.62 0h0.44141l1.668 5.2578-1.8906-0.94531-1.8867 0.94531z" clip-rule="evenodd"/>
</clipPath>
<clipPath id="ad">
<path d="m15 185h15v35.824h-15z"/>
</clipPath>
<clipPath id="ac">
<path d="m15 184h15v36.824h-15z"/>
</clipPath>
<clipPath id="ab">
<path d="m249 185h15v35.824h-15z"/>
</clipPath>
<clipPath id="aj">
<path d="m248 184h16v36.824h-16z"/>
</clipPath>
</defs>
<g clip-path="url(#al)">
<path transform="matrix(.1 0 0 -.1 .528 220.83)" d="m4.2512 1421.4h141.76v354.38h-141.76z" fill="#4c4c4c" fill-rule="evenodd" stroke="#000" stroke-miterlimit="10" stroke-width="2.3625"/>
</g>
<path transform="matrix(.1 0 0 -.1 .528 220.83)" d="m216.87 1421.4h141.76v354.38h-141.76z" fill="#4c4c4c" fill-rule="evenodd" stroke="#000" stroke-miterlimit="10" stroke-width="2.3625"/>
<path transform="matrix(.1 0 0 -.1 .528 220.83)" d="m429.49 1421.4h141.76v354.38h-141.76z" fill="#4c4c4c" fill-rule="evenodd" stroke="#000" stroke-miterlimit="10" stroke-width="2.3625"/>
<path transform="matrix(.1 0 0 -.1 .528 220.83)" d="m642.14 1421.4h141.72v354.38h-141.72z" fill="#4c4c4c" fill-rule="evenodd" stroke="#000" stroke-miterlimit="10" stroke-width="2.3625"/>
<path transform="matrix(.1 0 0 -.1 .528 220.83)" d="m854.76 1421.4h141.76v354.38h-141.76z" fill="#4c4c4c" fill-rule="evenodd" stroke="#000" stroke-miterlimit="10" stroke-width="2.3625"/>
<path transform="matrix(.1 0 0 -.1 .528 220.83)" d="m1067.4 1421.4h141.76v354.38h-141.76z" fill="#7f7f7f" fill-rule="evenodd" stroke="#000" stroke-miterlimit="10" stroke-width="2.3625"/>
<path transform="matrix(.1 0 0 -.1 .528 220.83)" d="m1280 1421.4h141.76v354.38h-141.76z" fill="#7f7f7f" fill-rule="evenodd" stroke="#000" stroke-miterlimit="10" stroke-width="2.3625"/>
<path transform="matrix(.1 0 0 -.1 .528 220.83)" d="m1492.6 1421.4h141.76v354.38h-141.76z" fill="#7f7f7f" fill-rule="evenodd" stroke="#000" stroke-miterlimit="10" stroke-width="2.3625"/>
<path transform="matrix(.1 0 0 -.1 .528 220.83)" d="m1705.3 1421.4h141.72v354.38h-141.72z" fill="#7f7f7f" fill-rule="evenodd" stroke="#000" stroke-miterlimit="10" stroke-width="2.3625"/>
<path transform="matrix(.1 0 0 -.1 .528 220.83)" d="m1917.9 1421.4h141.76v354.38h-141.76z" fill="#7f7f7f" fill-rule="evenodd" stroke="#000" stroke-miterlimit="10" stroke-width="2.3625"/>
<path transform="matrix(.1 0 0 -.1 .528 220.83)" d="m2130.5 1421.4h141.76v354.38h-141.76z" fill="#7f7f7f" fill-rule="evenodd" stroke="#000" stroke-miterlimit="10" stroke-width="2.3625"/>
<path transform="matrix(.1 0 0 -.1 .528 220.83)" d="m2343.1 1421.4h141.76v354.38h-141.76z" fill="#7f7f7f" fill-rule="evenodd" stroke="#000" stroke-miterlimit="10" stroke-width="2.3625"/>
<path transform="matrix(.1 0 0 -.1 .528 220.83)" d="m2768.4 1421.4h141.72v354.38h-141.72z" fill="#ccc" fill-rule="evenodd" stroke="#000" stroke-miterlimit="10" stroke-width="2.3625"/>
<path transform="matrix(.1 0 0 -.1 .528 220.83)" d="m2981 1421.4h141.76v354.38h-141.76z" fill="#ccc" fill-rule="evenodd" stroke="#000" stroke-miterlimit="10" stroke-width="2.3625"/>
<path transform="matrix(.1 0 0 -.1 .528 220.83)" d="m3193.6 1421.4h141.76v354.38h-141.76z" fill="#ccc" fill-rule="evenodd" stroke="#000" stroke-miterlimit="10" stroke-width="2.3625"/>
<path transform="matrix(.1 0 0 -.1 .528 220.83)" d="m3406.2 1421.4h141.76v354.38h-141.76z" fill="#fff" fill-rule="evenodd" stroke="#000" stroke-miterlimit="10" stroke-width="2.3625"/>
<path transform="matrix(.1 0 0 -.1 .528 220.83)" d="m3618.9 1421.4h141.76v354.38h-141.76z" fill="#fff" fill-rule="evenodd" stroke="#000" stroke-miterlimit="10" stroke-width="2.3625"/>
<path transform="matrix(.1 0 0 -.1 .528 220.83)" d="m3831.5 1421.4h141.72v354.38h-141.72z" fill="#fff" fill-rule="evenodd" stroke="#000" stroke-miterlimit="10" stroke-width="2.3625"/>
<g clip-path="url(#ak)">
<g clip-path="url(#ai)">
<path transform="matrix(.1 0 0 -.1 .528 220.83)" d="m1138.2 2059.2v-283.48" fill="none" stroke="#000" stroke-miterlimit="10" stroke-width="2.3625"/>
</g>
</g>
<path d="m112.46 38.211 1.8867 4.7266 1.8906-4.7266-1.8906 0.94531-1.8867-0.94531" fill-rule="evenodd"/>
<path transform="matrix(.1 0 0 -.1 .528 220.83)" d="m1119.4 1826.2 18.867-47.266 18.906 47.266-18.906-9.4531z" fill="none" stroke="#000" stroke-miterlimit="10" stroke-width="2.3625"/>
<g clip-path="url(#ah)">
<g clip-path="url(#ag)">
<path transform="matrix(.1 0 0 -.1 .528 220.83)" d="m2626.6 2059.2v-283.48" fill="none" stroke="#000" stroke-miterlimit="10" stroke-width="2.3625"/>
</g>
</g>
<path d="m261.3 38.211 1.8906 4.7266 1.8867-4.7266-1.8867 0.94531-1.8906-0.94531" fill-rule="evenodd"/>
<path transform="matrix(.1 0 0 -.1 .528 220.83)" d="m2607.7 1826.2 18.906-47.266 18.867 47.266-18.867-9.4531z" fill="none" stroke="#000" stroke-miterlimit="10" stroke-width="2.3625"/>
<path transform="matrix(.1 0 0 -.1 .528 220.83)" d="m2555.7 1421.4h141.76v354.38h-141.76z" fill="#ccc" fill-rule="evenodd" stroke="#000" stroke-miterlimit="10" stroke-width="2.3625"/>
<g clip-path="url(#af)">
<g clip-path="url(#ae)">
<path transform="matrix(.1 0 0 -.1 .528 220.83)" d="m1138.2 1421.4v-283.52h2126.2v283.52" fill="none" stroke="#000" stroke-miterlimit="10" stroke-width="2.3625"/>
</g>
</g>
<path d="m116.24 83.727-1.8906-4.7227-1.8867 4.7227 1.8867-0.94531 1.8906 0.94531" fill-rule="evenodd"/>
<path transform="matrix(.1 0 0 -.1 .528 220.83)" d="m1157.1 1371-18.906 47.227-18.867-47.227 18.867 9.4531z" fill="none" stroke="#000" stroke-miterlimit="10" stroke-width="2.3625"/>
<path d="m328.87 83.727-1.8906-4.7227-1.8867 4.7227 1.8867-0.94531 1.8906 0.94531" fill-rule="evenodd"/>
<path transform="matrix(.1 0 0 -.1 .528 220.83)" d="m3283.4 1371-18.906 47.227-18.867-47.227 18.867 9.4531z" fill="none" stroke="#000" stroke-miterlimit="10" stroke-width="2.3625"/>
<path transform="matrix(.1 0 0 -.1 .528 220.83)" d="m146.01 500.02h141.76v354.38h-141.76z" fill="#4c4c4c" fill-rule="evenodd" stroke="#000" stroke-miterlimit="10" stroke-width="2.3625"/>
<path transform="matrix(.1 0 0 -.1 .528 220.83)" d="m1421.8 500.02h141.76v354.38h-141.76z" fill="#7f7f7f" fill-rule="evenodd" stroke="#000" stroke-miterlimit="10" stroke-width="2.3625"/>
<g clip-path="url(#ad)">
<path d="m15.129 220.44h14.176v-35.438h-14.176z" fill="#ccc" fill-rule="evenodd"/>
</g>
<g clip-path="url(#ac)">
<path transform="matrix(.1 0 0 -.1 .528 220.83)" d="m146.01 3.885h141.76v354.38h-141.76z" fill="none" stroke="#000" stroke-miterlimit="10" stroke-width="2.3625"/>
</g>
<g clip-path="url(#ab)">
<path d="m249.02 220.44h14.176v-35.438h-14.176z" fill="#fff" fill-rule="evenodd"/>
</g>
<g clip-path="url(#aj)">
<path transform="matrix(.1 0 0 -.1 .528 220.83)" d="m2484.9 3.885h141.76v354.38h-141.76z" fill="none" stroke="#000" stroke-miterlimit="10" stroke-width="2.3625"/>
</g>
<g>
<use x="36.342" y="206.274" xlink:href="#r"/>
<use x="44.631736" y="206.274" xlink:href="#a"/>
<use x="49.834639" y="206.274" xlink:href="#c"/>
<use x="56.015477" y="206.274" xlink:href="#m"/>
<use x="62.519106" y="206.274" xlink:href="#b"/>
<use x="67.071646" y="206.274" xlink:href="#p"/>
<use x="72.274549" y="206.274" xlink:href="#e"/>
<use x="78.778178" y="206.274" xlink:href="#g"/>
<use x="84.631444" y="206.274" xlink:href="#f"/>
<use x="89.183984" y="206.274" xlink:href="#q"/>
<use x="96.333194" y="206.274" xlink:href="#g"/>
<use x="102.18646" y="206.274" xlink:href="#e"/>
<use x="109.012879" y="206.274" xlink:href="#a"/>
<use x="114.215782" y="206.274" xlink:href="#f"/>
<use x="122.665717" y="206.274" xlink:href="#c"/>
<use x="129.169346" y="206.274" xlink:href="#l"/>
<use x="135.357357" y="206.274" xlink:href="#j"/>
<use x="140.225515" y="206.274" xlink:href="#i"/>
<use x="150.638494" y="206.274" xlink:href="#c"/>
<use x="157.142123" y="206.274" xlink:href="#h"/>
<use x="160.393937" y="206.274" xlink:href="#j"/>
<use x="165.27405" y="206.274" xlink:href="#i"/>
<use x="171.442933" y="206.274" xlink:href="#b"/>
<use x="179.904824" y="206.274" xlink:href="#k"/>
<use x="185.75809" y="206.274" xlink:href="#a"/>
<use x="190.960993" y="206.274" xlink:href="#d"/>
<use x="195.578091" y="206.274" xlink:href="#a"/>
<use x="200.780994" y="206.274" xlink:href="#c"/>
<use x="207.284623" y="206.274" xlink:href="#o"/>
<use x="213.788252" y="206.274" xlink:href="#a"/>
<use x="218.991155" y="206.274" xlink:href="#b"/>
<use x="270.216796" y="206.274" xlink:href="#aa"/>
<use x="278.991912" y="206.274" xlink:href="#l"/>
<use x="285.167969" y="206.274" xlink:href="#j"/>
<use x="290.048081" y="206.274" xlink:href="#i"/>
<use x="300.449105" y="206.274" xlink:href="#c"/>
<use x="306.952734" y="206.274" xlink:href="#h"/>
<use x="310.204548" y="206.274" xlink:href="#j"/>
<use x="315.084661" y="206.274" xlink:href="#i"/>
<use x="321.2655" y="206.274" xlink:href="#b"/>
<use x="329.715435" y="206.274" xlink:href="#e"/>
<use x="336.541854" y="206.274" xlink:href="#a"/>
<use x="341.744757" y="206.274" xlink:href="#c"/>
<use x="347.925596" y="206.274" xlink:href="#m"/>
<use x="354.429224" y="206.274" xlink:href="#b"/>
<use x="358.981764" y="206.274" xlink:href="#p"/>
<use x="364.184668" y="206.274" xlink:href="#e"/>
<use x="370.688296" y="206.274" xlink:href="#g"/>
<use x="376.541562" y="206.274" xlink:href="#f"/>
<use x="232.693" y="9.253" xlink:href="#c"/>
<use x="239.196629" y="9.253" xlink:href="#a"/>
<use x="244.399532" y="9.253" xlink:href="#z"/>
<use x="250.577979" y="9.253" xlink:href="#b"/>
<use x="255.130519" y="9.253" xlink:href="#d"/>
<use x="259.747618" y="9.253" xlink:href="#a"/>
<use x="264.950521" y="9.253" xlink:href="#y"/>
<use x="271.128968" y="9.253" xlink:href="#c"/>
<use x="277.309806" y="9.253" xlink:href="#m"/>
<use x="283.813435" y="9.253" xlink:href="#x"/>
<use x="103.206229" y="9.253" xlink:href="#e"/>
<use x="109.709858" y="9.253" xlink:href="#g"/>
<use x="115.563124" y="9.253" xlink:href="#d"/>
<use x="120.180222" y="9.253" xlink:href="#a"/>
<use x="36.342" y="156.664" xlink:href="#r"/>
<use x="44.631736" y="156.664" xlink:href="#a"/>
<use x="49.834639" y="156.664" xlink:href="#f"/>
<use x="54.387179" y="156.664" xlink:href="#a"/>
<use x="59.590082" y="156.664" xlink:href="#h"/>
<use x="62.841896" y="156.664" xlink:href="#b"/>
<use x="67.394436" y="156.664" xlink:href="#d"/>
<use x="75.90893" y="156.664" xlink:href="#e"/>
<use x="82.735349" y="156.664" xlink:href="#a"/>
<use x="87.938252" y="156.664" xlink:href="#d"/>
<use x="92.55535" y="156.664" xlink:href="#b"/>
<use x="97.113" y="157.135" xlink:href="#n"/>
<use x="97.113" y="156.664" xlink:href="#g"/>
<use x="102.966266" y="156.664" xlink:href="#b"/>
<use x="107.518806" y="156.664" xlink:href="#h"/>
<use x="110.77062" y="156.664" xlink:href="#k"/>
<use x="116.623886" y="156.664" xlink:href="#b"/>
<use x="163.904311" y="156.664" xlink:href="#w"/>
<use x="173.089492" y="156.664" xlink:href="#a"/>
<use x="178.292395" y="156.664" xlink:href="#d"/>
<use x="182.909493" y="156.664" xlink:href="#a"/>
<use x="188.112396" y="156.664" xlink:href="#c"/>
<use x="194.616025" y="156.664" xlink:href="#o"/>
<use x="201.119653" y="156.664" xlink:href="#a"/>
<use x="206.322556" y="156.664" xlink:href="#b"/>
<use x="210.875097" y="156.664" xlink:href="#q"/>
<use x="218.036261" y="156.664" xlink:href="#c"/>
<use x="224.53989" y="156.664" xlink:href="#l"/>
<use x="230.715947" y="156.664" xlink:href="#j"/>
<use x="235.596059" y="156.664" xlink:href="#i"/>
<use x="245.997083" y="156.664" xlink:href="#c"/>
<use x="252.500712" y="156.664" xlink:href="#h"/>
<use x="255.752526" y="156.664" xlink:href="#j"/>
<use x="260.632639" y="156.664" xlink:href="#i"/>
<use x="266.801522" y="156.664" xlink:href="#b"/>
<use x="275.263413" y="156.664" xlink:href="#e"/>
<use x="282.089832" y="156.664" xlink:href="#a"/>
<use x="287.292735" y="156.664" xlink:href="#d"/>
<use x="291.909833" y="156.664" xlink:href="#b"/>
<use x="296.462" y="157.135" xlink:href="#n"/>
<use x="296.462" y="156.664" xlink:href="#g"/>
<use x="302.315266" y="156.664" xlink:href="#b"/>
<use x="306.867806" y="156.664" xlink:href="#h"/>
<use x="310.11962" y="156.664" xlink:href="#k"/>
<use x="315.972886" y="156.664" xlink:href="#b"/>
<use x="155.268" y="98.55" xlink:href="#v"/>
<use x="161.771629" y="98.55" xlink:href="#a"/>
<use x="166.974532" y="98.55" xlink:href="#c"/>
<use x="173.478161" y="98.55" xlink:href="#o"/>
<use x="179.981789" y="98.55" xlink:href="#a"/>
<use x="185.184692" y="98.55" xlink:href="#u"/>
<use x="188.761688" y="98.55" xlink:href="#a"/>
<use x="193.964591" y="98.55" xlink:href="#c"/>
<use x="200.46822" y="98.55" xlink:href="#d"/>
<use x="205.085318" y="98.55" xlink:href="#b"/>
<use x="209.637859" y="98.55" xlink:href="#a"/>
<use x="214.840762" y="98.55" xlink:href="#f"/>
<use x="219.393302" y="98.55" xlink:href="#k"/>
<use x="225.246568" y="98.55" xlink:href="#f"/>
<use x="229.796" y="99.021" xlink:href="#n"/>
<use x="229.796" y="98.55" xlink:href="#l"/>
<use x="235.649266" y="98.55" xlink:href="#t"/>
<use x="241.502532" y="98.55" xlink:href="#a"/>
<use x="250.607" y="98.55" xlink:href="#s"/>
</g>
</svg>
