<svg width="400pt" height="178pt" version="1.1" viewBox="0 0 400 178" xmlns="http://www.w3.org/2000/svg" xmlns:xlink="http://www.w3.org/1999/xlink">
<defs>
<g id="x">
<path d="m2.5781-2.2656c0-1.4219 1-2.2656 2.0312-2.2656 0.046875 0 0.125 0 0.1875 0.015625 0.03125 0.42188 0.35938 0.46875 0.45312 0.46875 0.26562 0 0.46875-0.20312 0.46875-0.46875 0-0.51562-0.5-0.70312-1.1094-0.70312-0.79688 0-1.4844 0.35938-2.0312 1.0156v-0.45312c0-0.375-0.0625-0.5-0.46875-0.5h-1.2188c-0.15625 0-0.46875 0-0.46875 0.34375 0 0.35938 0.3125 0.35938 0.46875 0.35938h0.92188v3.7656h-0.92188c-0.15625 0-0.46875 0-0.46875 0.34375s0.3125 0.34375 0.46875 0.34375h2.9531c0.15625 0 0.46875 0 0.46875-0.34375s-0.3125-0.34375-0.46875-0.34375h-1.2656z"/>
</g>
<g id="n">
<path d="m5-6.8125c0-0.375-0.078125-0.48438-0.48438-0.48438h-0.78125c-0.17188 0-0.48438 0-0.48438 0.34375s0.3125 0.34375 0.48438 0.34375h0.48438v1.9844c-0.1875-0.1875-0.6875-0.59375-1.4062-0.59375-1.2656 0-2.375 1.1406-2.375 2.6562 0 1.4688 1.0312 2.6406 2.2656 2.6406 0.78125 0 1.2969-0.46875 1.5156-0.73438 0 0.5 0 0.65625 0.48438 0.65625h0.78125c0.17188 0 0.48438 0 0.48438-0.34375s-0.3125-0.34375-0.48438-0.34375h-0.48438zm-0.78125 4.5469c0 0.65625-0.54688 1.6406-1.4531 1.6406-0.85938 0-1.5469-0.875-1.5469-1.9375 0-1.1562 0.8125-1.9688 1.6562-1.9688 0.78125 0 1.3438 0.70312 1.3438 1.3281z"/>
</g>
<g id="w">
<path d="m2.5781-4.4531h1.9375c0.17188 0 0.48438 0 0.48438-0.35938 0-0.34375-0.3125-0.34375-0.48438-0.34375h-1.9375v-0.96875c0-0.21875 0-0.5-0.375-0.5-0.39062 0-0.39062 0.28125-0.39062 0.5v0.96875h-1.0312c-0.15625 0-0.48438 0-0.48438 0.34375 0 0.35938 0.3125 0.35938 0.48438 0.35938h1.0312v3c0 1.125 0.75 1.5312 1.625 1.5312 0.64062 0 1.8281-0.32812 1.8281-1.5469 0-0.23438 0-0.5-0.40625-0.5-0.375 0-0.375 0.26562-0.375 0.51562-0.015625 0.71875-0.6875 0.82812-0.96875 0.82812-0.9375 0-0.9375-0.59375-0.9375-0.875z"/>
</g>
<g id="aj">
<path d="m5.0156-4.8125c0-0.1875 0-0.45312-0.32812-0.45312-0.28125 0-0.35938 0.28125-0.35938 0.29688-0.48438-0.29688-1.0312-0.29688-1.2656-0.29688-1.9531 0-2.2188 1-2.2188 1.4062 0 0.48438 0.29688 0.82812 0.70312 1.0469 0.375 0.21875 0.71875 0.28125 1.7031 0.4375 0.46875 0.078125 1.4219 0.23438 1.4219 0.89062 0 0.4375-0.40625 0.85938-1.5156 0.85938-0.76562 0-1.2656-0.29688-1.5156-1.1562-0.0625-0.17188-0.09375-0.29688-0.39062-0.29688-0.40625 0-0.40625 0.21875-0.40625 0.46875v1.2344c0 0.1875 0 0.45312 0.34375 0.45312 0.14062 0 0.25 0 0.42188-0.5 0.54688 0.45312 1.1719 0.5 1.5469 0.5 2.2031 0 2.2031-1.4375 2.2031-1.5625 0-1.2344-1.4688-1.4844-2.0469-1.5781-1.0469-0.17188-1.7656-0.29688-1.7656-0.79688 0-0.32812 0.35938-0.70312 1.4844-0.70312 1.1406 0 1.1875 0.53125 1.2188 0.84375 0.015625 0.23438 0.23438 0.28125 0.375 0.28125 0.39062 0 0.39062-0.21875 0.39062-0.45312z"/>
</g>
<g id="m">
<path d="m4.9688-2.2969c0.25 0 0.48438 0 0.48438-0.4375 0-1.4062-0.79688-2.5312-2.2812-2.5312-1.3906 0-2.5 1.2031-2.5 2.6562 0 1.5156 1.2031 2.6875 2.6719 2.6875 1.5469 0 2.1094-1.0625 2.1094-1.375 0-0.078125-0.03125-0.34375-0.39062-0.34375-0.23438 0-0.3125 0.09375-0.375 0.26562-0.29688 0.6875-1.0781 0.75-1.3125 0.75-0.98438 0-1.7656-0.75-1.9062-1.6719zm-3.4844-0.65625c0.15625-1.0156 0.9375-1.6094 1.6875-1.6094 1.1875 0 1.4375 1.0156 1.4844 1.6094z"/>
</g>
<g id="ai">
<path d="m5-3.5c0-1.1719-0.54688-1.7188-1.5312-1.7188-0.8125 0-1.3438 0.45312-1.5469 0.67188 0-0.4375 0-0.60938-0.46875-0.60938h-0.79688c-0.17188 0-0.48438 0-0.48438 0.34375 0 0.35938 0.3125 0.35938 0.48438 0.35938h0.48438v3.7656h-0.48438c-0.17188 0-0.48438 0-0.48438 0.34375s0.3125 0.34375 0.48438 0.34375h1.7656c0.15625 0 0.46875 0 0.46875-0.34375s-0.3125-0.34375-0.46875-0.34375h-0.5v-2.1719c0-1.1562 0.8125-1.6719 1.4531-1.6719 0.70312 0 0.84375 0.39062 0.84375 1.0781v2.7656h-0.48438c-0.17188 0-0.48438 0-0.48438 0.34375s0.3125 0.34375 0.48438 0.34375h1.75c0.17188 0 0.48438 0 0.48438-0.34375s-0.3125-0.34375-0.48438-0.34375h-0.48438z"/>
</g>
<g id="v">
<path d="m5.1094 0.6875c0-0.15625-0.078125-0.20312-0.25-0.32812-1.6406-1.1406-2.0469-2.8438-2.0469-4 0-1.1406 0.375-2.8594 2.0469-4.0156 0.17188-0.125 0.25-0.17188 0.25-0.32812 0-0.125-0.046875-0.3125-0.34375-0.3125s-1.1875 0.6875-1.7344 1.4688c-0.67188 0.9375-1 2.0469-1 3.1875 0 1.3281 0.48438 2.4375 0.98438 3.1406 0.54688 0.76562 1.4219 1.4844 1.75 1.4844 0.29688 0 0.34375-0.20312 0.34375-0.29688z"/>
</g>
<g id="u">
<path d="m4.1094-3.6406c0-0.9375-0.21875-2.1406-1.0781-3.2969-0.40625-0.5625-1.2969-1.3594-1.6562-1.3594-0.28125 0-0.34375 0.20312-0.34375 0.3125 0 0.14062 0.078125 0.20312 0.29688 0.34375 1.4531 1.0312 2 2.625 2 3.9844 0 1.0781-0.34375 2.8281-2.0469 4.0156-0.15625 0.10938-0.25 0.17188-0.25 0.32812 0 0.09375 0.0625 0.29688 0.34375 0.29688 0.29688 0 1.1875-0.6875 1.7344-1.4688 0.6875-0.96875 1-2.0938 1-3.1562z"/>
</g>
<g id="ao">
<path d="m3.4688-6.8125c0-0.375-0.078125-0.48438-0.48438-0.48438h-1.75c-0.17188 0-0.48438 0-0.48438 0.34375s0.3125 0.34375 0.48438 0.34375h1.4531v5.9219h-1.4531c-0.17188 0-0.48438 0-0.48438 0.34375s0.3125 0.34375 0.48438 0.34375h3.6875c0.17188 0 0.48438 0 0.48438-0.34375s-0.3125-0.34375-0.48438-0.34375h-1.4531z"/>
</g>
<g id="am">
<path d="m3.6094-6.7812c0-0.29688-0.23438-0.53125-0.53125-0.53125-0.3125 0-0.54688 0.23438-0.54688 0.53125s0.23438 0.54688 0.54688 0.54688c0.29688 0 0.53125-0.25 0.53125-0.54688zm-2.0625 1.625c-0.15625 0-0.46875 0-0.46875 0.34375 0 0.35938 0.3125 0.35938 0.46875 0.35938h1.2812v3.7656h-1.3594c-0.17188 0-0.48438 0-0.48438 0.34375s0.3125 0.34375 0.48438 0.34375h3.3281c0.15625 0 0.46875 0 0.46875-0.34375s-0.3125-0.34375-0.46875-0.34375h-1.1875v-3.9688c0-0.375-0.078125-0.5-0.48438-0.5z"/>
</g>
<g id="al">
<path d="m5.0625-4.4531h0.3125c0.17188 0 0.5 0 0.5-0.35938 0-0.34375-0.32812-0.34375-0.5-0.34375h-1.3125c-0.17188 0-0.48438 0-0.48438 0.34375 0 0.35938 0.3125 0.35938 0.48438 0.35938h0.29688l-1.2812 3.8438-1.2969-3.8438h0.29688c0.17188 0 0.48438 0 0.48438-0.35938 0-0.34375-0.3125-0.34375-0.48438-0.34375h-1.3125c-0.17188 0-0.48438 0-0.48438 0.34375 0 0.35938 0.3125 0.35938 0.48438 0.35938h0.3125l1.375 4.1094c0.125 0.40625 0.39062 0.40625 0.625 0.40625 0.21875 0 0.48438 0 0.60938-0.40625z"/>
</g>
<g id="ak">
<path d="m4.9531-3.3906c0-0.90625-0.6875-1.875-2.2969-1.875-0.5 0-1.6719 0-1.6719 0.82812 0 0.32812 0.23438 0.5 0.5 0.5 0.0625 0 0.46875-0.015625 0.46875-0.51562 0-0.0625 0.015625-0.078125 0.26562-0.09375 0.14062-0.015625 0.29688-0.015625 0.45312-0.015625 0.26562 0 0.67188 0 1.0625 0.29688 0.4375 0.32812 0.4375 0.67188 0.4375 1.0156-0.70312 0.015625-1.4062 0.078125-2.1406 0.3125-0.59375 0.20312-1.3594 0.625-1.3594 1.4375 0 0.85938 0.75 1.5781 1.8594 1.5781 0.39062 0 1.125-0.0625 1.75-0.5 0.23438 0.39062 0.82812 0.42188 1.2812 0.42188 0.29688 0 0.57812 0 0.57812-0.34375s-0.3125-0.34375-0.46875-0.34375c-0.3125 0-0.5625-0.03125-0.71875-0.09375zm-0.78125 1.8125c0 0.28125 0 0.53125-0.48438 0.75-0.42188 0.20312-0.98438 0.20312-1.0156 0.20312-0.71875 0-1.2188-0.375-1.2188-0.875 0-0.70312 1.2656-1.1094 2.7188-1.1094z"/>
</g>
<g id="aq">
<path d="m5.4531-1.2969c0-0.3125-0.29688-0.3125-0.39062-0.3125-0.28125 0-0.32812 0.09375-0.39062 0.26562-0.26562 0.65625-0.84375 0.71875-1.1406 0.71875-1.0156 0-1.875-0.84375-1.875-1.9531 0-0.60938 0.35938-1.9844 1.9219-1.9844 0.3125 0 0.5625 0.015625 0.67188 0.03125 0.09375 0.03125 0.09375 0.03125 0.09375 0.09375 0.046875 0.5 0.40625 0.5 0.48438 0.5 0.26562 0 0.48438-0.17188 0.48438-0.5 0-0.82812-1.2031-0.82812-1.7344-0.82812-2.0312 0-2.6875 1.6875-2.6875 2.6875 0 1.4531 1.1094 2.6562 2.5469 2.6562 1.5938 0 2.0156-1.1875 2.0156-1.375z"/>
</g>
<g id="ap">
<path d="m5-4.6562c0-0.375-0.078125-0.5-0.48438-0.5h-0.78125c-0.17188 0-0.48438 0-0.48438 0.34375 0 0.35938 0.3125 0.35938 0.48438 0.35938h0.48438v2.5938c0 0.96875-0.8125 1.2344-1.3438 1.2344-0.95312 0-0.95312-0.42188-0.95312-0.79688v-3.2344c0-0.375-0.0625-0.5-0.46875-0.5h-0.79688c-0.17188 0-0.48438 0-0.48438 0.34375 0 0.35938 0.3125 0.35938 0.48438 0.35938h0.48438v3.0938c0 1.0938 0.71875 1.4375 1.6406 1.4375 0.73438 0 1.1875-0.3125 1.4219-0.51562 0 0.4375 0.29688 0.4375 0.5 0.4375h0.78125c0.17188 0 0.48438 0 0.48438-0.34375s-0.3125-0.34375-0.48438-0.34375h-0.48438z"/>
</g>
<g id="j">
<path d="m2.3438-7.4062c0-0.29688-0.25-0.54688-0.54688-0.54688s-0.54688 0.21875-0.54688 0.54688c0 0.34375 0.25 0.5625 0.54688 0.5625s0.54688-0.25 0.54688-0.5625zm2.2656 0c0-0.32812-0.26562-0.54688-0.5625-0.54688s-0.54688 0.25-0.54688 0.54688c0 0.3125 0.25 0.5625 0.54688 0.5625s0.5625-0.21875 0.5625-0.5625z"/>
</g>
<g id="ag">
<path d="m6.8125-2.75c0 1.6719-1.1406 2.6562-2.2656 2.6562-0.70312 0-1.9531-0.48438-1.9531-2.5781v-4.5781c0-0.45312 0.03125-0.5625 0.89062-0.5625h0.25v-0.34375c-0.29688 0.015625-1.2656 0.015625-1.625 0.015625s-1.3281 0-1.625-0.015625v0.34375h0.25c0.85938 0 0.89062 0.10938 0.89062 0.5625v4.5156c0 1.7344 1.3906 2.9844 2.9062 2.9844 1.6562 0 2.6094-1.625 2.6094-2.8125v-4.5312c0-0.71875 0.92188-0.71875 1.125-0.71875v-0.34375c-0.3125 0.015625-0.95312 0.015625-1.2812 0.015625-0.34375 0-1 0-1.3125-0.015625v0.34375c1.1406 0 1.1406 0.5625 1.1406 0.875z"/>
</g>
<g id="y">
<path d="m2-8.2969-1.6719 0.14062v0.34375c0.8125 0 0.92188 0.078125 0.92188 0.67188v7.1406h0.25c0.046875-0.09375 0.39062-0.6875 0.4375-0.78125 0.28125 0.45312 0.78125 0.90625 1.5469 0.90625 1.375 0 2.5938-1.1719 2.5938-2.7031 0-1.5156-1.125-2.6875-2.4531-2.6875-0.65625 0-1.2188 0.29688-1.625 0.79688zm0.015625 4.4688c0-0.21875 0-0.23438 0.14062-0.42188 0.28125-0.4375 0.8125-0.78125 1.3906-0.78125 0.35938 0 1.6094 0.14062 1.6094 2.4375 0 0.79688-0.10938 1.2969-0.40625 1.7344-0.23438 0.375-0.70312 0.73438-1.3125 0.73438-0.64062 0-1.0625-0.40625-1.2656-0.73438-0.15625-0.25-0.15625-0.29688-0.15625-0.5z"/>
</g>
<g id="a">
<path d="m4.5781-2.7656c0.26562 0 0.28125 0 0.28125-0.23438 0-1.2031-0.64062-2.3281-2.0938-2.3281-1.3594 0-2.4062 1.2344-2.4062 2.7031 0 1.5781 1.2188 2.75 2.5469 2.75 1.4219 0 1.9531-1.2969 1.9531-1.5469 0-0.078125-0.046875-0.125-0.125-0.125-0.09375 0-0.125 0.0625-0.14062 0.125-0.3125 1-1.1094 1.2812-1.625 1.2812-0.5 0-1.7031-0.34375-1.7031-2.4062v-0.21875zm-3.2969-0.23438c0.09375-1.875 1.1406-2.0938 1.4844-2.0938 1.2812 0 1.3438 1.6875 1.3594 2.0938z"/>
</g>
<g id="b">
<path d="m2-2.7812c0-1.1562 0.46875-2.25 1.3906-2.25 0.09375 0 0.125 0 0.17188 0.015625-0.09375 0.046875-0.28125 0.10938-0.28125 0.4375 0 0.34375 0.26562 0.48438 0.45312 0.48438 0.25 0 0.48438-0.15625 0.48438-0.48438 0-0.35938-0.32812-0.6875-0.84375-0.6875-1.0156 0-1.3594 1.0938-1.4219 1.3281h-0.015625v-1.3281l-1.6094 0.125v0.34375c0.8125 0 0.92188 0.09375 0.92188 0.67188v3.2344c0 0.54688-0.14062 0.54688-0.92188 0.54688v0.34375c0.34375-0.03125 1-0.03125 1.3594-0.03125 0.32812 0 1.1719 0 1.4375 0.03125v-0.34375h-0.23438c-0.875 0-0.89062-0.14062-0.89062-0.5625z"/>
</g>
<g id="f">
<path d="m2.0156-4.8125h1.6719v-0.34375h-1.6719v-2.1875h-0.26562c-0.015625 1.1094-0.45312 2.2656-1.5312 2.2969v0.23438h1.0156v3.3281c0 1.3281 0.875 1.6094 1.5156 1.6094 0.75 0 1.1406-0.75 1.1406-1.6094v-0.67188h-0.25v0.65625c0 0.85938-0.35938 1.3594-0.8125 1.3594-0.8125 0-0.8125-1.1094-0.8125-1.3125z"/>
</g>
<g id="c">
<path d="m4.6094-3.1875c0-0.65625 0-1.125-0.51562-1.5938-0.42188-0.375-0.96875-0.54688-1.4844-0.54688-0.98438 0-1.7344 0.64062-1.7344 1.4219 0 0.34375 0.21875 0.51562 0.5 0.51562s0.48438-0.20312 0.48438-0.5c0-0.48438-0.42188-0.48438-0.60938-0.48438 0.28125-0.5 0.85938-0.71875 1.3281-0.71875 0.54688 0 1.2656 0.45312 1.2656 1.5312v0.48438c-2.4062 0.03125-3.3125 1.0312-3.3125 1.9531 0 0.95312 1.0938 1.25 1.8281 1.25 0.78125 0 1.3281-0.48438 1.5469-1.0625 0.046875 0.5625 0.42188 1 0.9375 1 0.25 0 0.9375-0.17188 0.9375-1.125v-0.67188h-0.26562v0.67188c0 0.6875-0.28125 0.78125-0.45312 0.78125-0.45312 0-0.45312-0.64062-0.45312-0.8125zm-0.76562 1.5c0 1.1719-0.875 1.5625-1.3906 1.5625-0.59375 0-1.0781-0.42188-1.0781-1 0-1.5781 2.0312-1.7188 2.4688-1.75z"/>
</g>
<g id="g">
<path d="m1.4219-2.1562c0.5625 0.35938 1.0469 0.35938 1.1719 0.35938 1.0781 0 1.875-0.8125 1.875-1.7344 0-0.3125-0.09375-0.76562-0.46875-1.1562 0.45312-0.46875 1.0156-0.46875 1.0781-0.46875 0.046875 0 0.10938 0 0.15625 0.015625-0.125 0.046875-0.17188 0.17188-0.17188 0.29688 0 0.17188 0.10938 0.3125 0.29688 0.3125 0.10938 0 0.3125-0.0625 0.3125-0.32812 0-0.20312-0.15625-0.54688-0.57812-0.54688-0.625 0-1.0938 0.39062-1.25 0.5625-0.35938-0.26562-0.78125-0.42188-1.2344-0.42188-1.0781 0-1.875 0.8125-1.875 1.7344 0 0.67188 0.40625 1.1094 0.53125 1.2188-0.14062 0.1875-0.35938 0.53125-0.35938 1 0 0.6875 0.42188 0.98438 0.51562 1.0469-0.54688 0.15625-1.0938 0.59375-1.0938 1.2031 0 0.82812 1.125 1.5156 2.5938 1.5156 1.4219 0 2.5938-0.64062 2.5938-1.5312 0-0.29688-0.078125-1-0.79688-1.375-0.60938-0.3125-1.2031-0.3125-2.2344-0.3125-0.73438 0-0.8125 0-1.0312-0.21875-0.10938-0.125-0.21875-0.35938-0.21875-0.60938 0-0.20312 0.0625-0.40625 0.1875-0.5625zm1.1875 0.10938c-1.0625 0-1.0625-1.2031-1.0625-1.4844 0-0.20312 0-0.70312 0.20312-1.0156 0.23438-0.35938 0.59375-0.46875 0.84375-0.46875 1.0469 0 1.0469 1.2031 1.0469 1.4844 0 0.20312 0 0.70312-0.20312 1.0156-0.21875 0.35938-0.57812 0.46875-0.82812 0.46875zm0.3125 4.25c-1.1406 0-2.0156-0.59375-2.0156-1.2656 0-0.09375 0.03125-0.5625 0.48438-0.875 0.26562-0.17188 0.35938-0.17188 1.2031-0.17188 0.98438 0 2.3438 0 2.3438 1.0469 0 0.70312-0.90625 1.2656-2.0156 1.2656z"/>
</g>
<g id="i">
<path d="m3.6406-5.1406v0.34375c0.8125 0 0.90625 0.09375 0.90625 0.67188v2.1406c0 1.0156-0.54688 1.8594-1.4375 1.8594-0.98438 0-1.0469-0.5625-1.0469-1.1875v-3.9531l-1.6875 0.125v0.34375c0.92188 0 0.92188 0.046875 0.92188 1.1094v1.7812c0 0.75 0 1.1719 0.35938 1.5781 0.28125 0.29688 0.76562 0.45312 1.375 0.45312 0.20312 0 0.59375 0 1-0.35938 0.34375-0.26562 0.53125-0.71875 0.53125-0.71875v1.0781l1.6719-0.125v-0.34375c-0.8125 0-0.92188-0.09375-0.92188-0.67188v-4.25z"/>
</g>
<g id="e">
<path d="m5.3125-2.9062c0-1.1094 0-1.4375-0.26562-1.8281-0.34375-0.46875-0.90625-0.53125-1.3125-0.53125-1.1719 0-1.625 0.98438-1.7188 1.2188v-1.2188l-1.6406 0.125v0.34375c0.8125 0 0.92188 0.09375 0.92188 0.67188v3.2344c0 0.54688-0.14062 0.54688-0.92188 0.54688v0.34375c0.3125-0.03125 0.96875-0.03125 1.2969-0.03125 0.34375 0 1 0 1.2969 0.03125v-0.34375c-0.75 0-0.90625 0-0.90625-0.54688v-2.2188c0-1.25 0.82812-1.9219 1.5781-1.9219 0.73438 0 0.90625 0.60938 0.90625 1.3438v2.7969c0 0.54688-0.14062 0.54688-0.90625 0.54688v0.34375c0.29688-0.03125 0.95312-0.03125 1.2812-0.03125 0.34375 0 1 0 1.3125 0.03125v-0.34375c-0.60938 0-0.90625 0-0.92188-0.35938z"/>
</g>
<g id="d">
<path d="m3.9219-5.0625c0-0.20312 0-0.26562-0.125-0.26562-0.09375 0-0.3125 0.26562-0.40625 0.375-0.35938-0.3125-0.73438-0.375-1.125-0.375-1.4375 0-1.875 0.78125-1.875 1.4375 0 0.14062 0 0.5625 0.45312 0.96875 0.39062 0.34375 0.79688 0.42188 1.3438 0.53125 0.65625 0.125 0.8125 0.17188 1.1094 0.40625 0.21875 0.17188 0.375 0.4375 0.375 0.78125 0 0.51562-0.29688 1.0781-1.3594 1.0781-0.78125 0-1.3594-0.45312-1.625-1.6406-0.046875-0.21875-0.046875-0.23438-0.046875-0.25-0.03125-0.046875-0.078125-0.046875-0.10938-0.046875-0.14062 0-0.14062 0.0625-0.14062 0.28125v1.625c0 0.21875 0 0.28125 0.125 0.28125 0.0625 0 0.0625-0.015625 0.26562-0.26562 0.0625-0.09375 0.0625-0.10938 0.25-0.29688 0.45312 0.5625 1.0938 0.5625 1.2969 0.5625 1.25 0 1.875-0.70312 1.875-1.6406 0-0.64062-0.39062-1.0312-0.5-1.1406-0.42188-0.375-0.75-0.4375-1.5469-0.57812-0.34375-0.078125-1.2188-0.25-1.2188-0.96875 0-0.35938 0.25-0.90625 1.3281-0.90625 1.2969 0 1.375 1.1094 1.3906 1.4688 0.015625 0.10938 0.09375 0.10938 0.14062 0.10938 0.125 0 0.125-0.0625 0.125-0.28125z"/>
</g>
<g id="ah">
<path d="m3.2344-2.2656v-0.64062h-3.1094v0.64062z"/>
</g>
<g id="an">
<path d="m4.6719-5.0156c0.1875-0.1875 0.64062-0.625 0.84375-0.8125 1.6406-1.625 1.9844-1.9688 2.9219-1.9844v-0.34375c-0.34375 0.015625-0.48438 0.015625-1.0312 0.015625-0.3125 0-1.0156 0-1.2812-0.015625v0.34375c0.25 0 0.46875 0.10938 0.46875 0.375 0 0.1875-0.09375 0.29688-0.35938 0.54688l-3.6406 3.5156v-3.8594c0-0.57812 0.125-0.57812 1.1406-0.57812v-0.34375c-0.29688 0.015625-1.2656 0.015625-1.625 0.015625s-1.3281 0-1.625-0.015625v0.34375c1.0156 0 1.1406 0 1.1406 0.57812v6.2969c0 0.59375-0.125 0.59375-1.1406 0.59375v0.34375c0.29688-0.03125 1.2656-0.03125 1.625-0.03125s1.3281 0 1.625 0.03125v-0.34375c-1.0156 0-1.1406 0-1.1406-0.59375v-2.0781l1.4219-1.375 2.2188 3.3125c0.046875 0.078125 0.09375 0.15625 0.10938 0.21875 0.03125 0.046875 0.046875 0.10938 0.046875 0.17188 0 0.34375-0.4375 0.34375-0.625 0.34375v0.34375c0.28125-0.03125 1.1562-0.03125 1.5-0.03125 0.3125 0 0.90625 0 1.3281 0.03125v-0.34375c-0.64062 0-0.84375-0.0625-1.2344-0.64062z"/>
</g>
<g id="h">
<path d="m2.0625-8.2969-1.6719 0.14062v0.34375c0.8125 0 0.90625 0.078125 0.90625 0.67188v6.25c0 0.54688-0.125 0.54688-0.90625 0.54688v0.34375c0.34375-0.03125 0.92188-0.03125 1.2812-0.03125s0.95312 0 1.2969 0.03125v-0.34375c-0.76562 0-0.90625 0-0.90625-0.54688z"/>
</g>
<g id="l">
<path d="m4.5469-4.8125c0.10938-0.14062 0.10938-0.15625 0.10938-0.20312 0-0.14062-0.078125-0.14062-0.28125-0.14062h-3.75l-0.14062 1.9062h0.26562c0.078125-1.2188 0.29688-1.6562 1.6094-1.6562h1.375l-3.4062 4.6875c0 0.21875 0.015625 0.21875 0.28125 0.21875h3.8906l0.20312-2.2031h-0.26562c-0.10938 1.3594-0.3125 1.9375-1.7344 1.9375h-1.4531z"/>
</g>
<g id="s">
<path d="m4.875-4.0156c0.10938-0.26562 0.3125-0.78125 1.0781-0.79688v-0.34375c-0.34375 0.03125-0.51562 0.03125-0.89062 0.03125-0.25 0-0.42188 0-0.96875-0.03125v0.34375c0.5 0.03125 0.5625 0.39062 0.5625 0.51562 0 0.10938-0.03125 0.17188-0.09375 0.3125l-1.2188 3.0938-1.3281-3.375c-0.0625-0.17188-0.078125-0.17188-0.078125-0.23438 0-0.3125 0.45312-0.3125 0.67188-0.3125v-0.34375c-0.29688 0.03125-0.92188 0.03125-1.25 0.03125-0.39062 0-0.42188 0-1.1406-0.03125v0.34375c0.67188 0 0.78125 0.0625 0.92188 0.42188l1.7188 4.2812c0.0625 0.17188 0.078125 0.23438 0.21875 0.23438 0.09375 0 0.15625-0.03125 0.25-0.23438z"/>
</g>
<g id="p">
<path d="m2.0781-7.3594c0-0.3125-0.25-0.59375-0.57812-0.59375-0.3125 0-0.57812 0.25-0.57812 0.57812 0 0.35938 0.28125 0.57812 0.57812 0.57812 0.35938 0 0.57812-0.29688 0.57812-0.5625zm-1.6406 2.2188v0.34375c0.75 0 0.85938 0.078125 0.85938 0.65625v3.25c0 0.54688-0.125 0.54688-0.90625 0.54688v0.34375c0.34375-0.03125 0.90625-0.03125 1.2656-0.03125 0.125 0 0.8125 0 1.2188 0.03125v-0.34375c-0.76562 0-0.8125-0.0625-0.8125-0.53125v-4.3906z"/>
</g>
<g id="r">
<path d="m0.5-8.1562v0.34375h0.23438c0.875 0 0.90625 0.10938 0.90625 0.5625v6.3438c0 0.4375-0.03125 0.5625-0.90625 0.5625h-0.23438v0.34375h4.1875c2 0 3.5938-1.7969 3.5938-4 0-2.3125-1.6094-4.1562-3.5938-4.1562zm2.625 7.8125c-0.51562 0-0.54688-0.09375-0.54688-0.48438v-6.5156c0-0.39062 0.03125-0.46875 0.54688-0.46875h1.2656c0.98438 0 1.7812 0.46875 2.2656 1.2656 0.54688 0.84375 0.54688 2.0469 0.54688 2.5312 0 0.67188-0.015625 1.7969-0.70312 2.6719-0.39062 0.5-1.1094 1-2.1094 1z"/>
</g>
<g id="z">
<path d="m3.5781-8.1562v0.34375c0.82812 0 0.92188 0.078125 0.92188 0.67188v2.6406c-0.25-0.35938-0.76562-0.76562-1.5-0.76562-1.3906 0-2.5781 1.1719-2.5781 2.7031 0 1.5156 1.125 2.6875 2.4531 2.6875 0.90625 0 1.4219-0.60938 1.5938-0.82812v0.82812l1.6875-0.125v-0.34375c-0.8125 0-0.90625-0.09375-0.90625-0.67188v-7.2812zm0.89062 6.75c0 0.21875 0 0.26562-0.17188 0.51562-0.28125 0.42188-0.76562 0.76562-1.375 0.76562-0.29688 0-1.5938-0.10938-1.5938-2.4375 0-0.85938 0.14062-1.3281 0.40625-1.7344 0.23438-0.35938 0.71875-0.73438 1.3125-0.73438 0.75 0 1.1562 0.53125 1.2812 0.73438 0.14062 0.20312 0.14062 0.21875 0.14062 0.4375z"/>
</g>
<g id="q">
<path d="m3.3438-3.1719-0.078125-0.10938c0-0.046875 0.75-0.6875 0.84375-0.78125 0.82812-0.71875 1.3594-0.73438 1.6094-0.75v-0.34375c-0.25 0.03125-0.5625 0.03125-0.90625 0.03125-0.3125 0-0.92188 0-1.2031-0.03125v0.34375c0.20312 0.015625 0.34375 0.125 0.34375 0.3125 0 0.25-0.23438 0.45312-0.25 0.45312l-1.7031 1.5156v-5.7656l-1.6719 0.14062v0.34375c0.8125 0 0.92188 0.078125 0.92188 0.67188v6.25c0 0.54688-0.14062 0.54688-0.92188 0.54688v0.34375c0.34375-0.03125 0.92188-0.03125 1.2812-0.03125 0.34375 0 0.92188 0 1.2656 0.03125v-0.34375c-0.76562 0-0.92188 0-0.92188-0.54688v-1.2656l0.76562-0.67188 1.1562 1.6562c0.17188 0.25 0.26562 0.39062 0.26562 0.54688 0 0.21875-0.17188 0.28125-0.42188 0.28125v0.34375c0.29688-0.03125 0.89062-0.03125 1.2031-0.03125 0.51562 0 0.54688 0 1.0469 0.03125v-0.34375c-0.3125 0-0.6875 0-1.0156-0.5z"/>
</g>
<g id="t">
<path d="m2.0625-4.8125h1.3438v-0.34375h-1.375v-1.3906c0-1.0781 0.54688-1.625 1.0469-1.625 0.09375 0 0.26562 0.015625 0.40625 0.09375-0.046875 0.015625-0.34375 0.125-0.34375 0.46875 0 0.26562 0.1875 0.46875 0.46875 0.46875s0.48438-0.20312 0.48438-0.48438c0-0.4375-0.4375-0.79688-1.0156-0.79688-0.82812 0-1.7812 0.65625-1.7812 1.875v1.3906h-0.92188v0.34375h0.92188v3.9219c0 0.54688-0.125 0.54688-0.90625 0.54688v0.34375c0.34375-0.03125 1-0.03125 1.3594-0.03125 0.3125 0 1.1719 0 1.4375 0.03125v-0.34375h-0.23438c-0.875 0-0.89062-0.14062-0.89062-0.5625z"/>
</g>
<g id="o">
<path d="m2.9219 1.9688c-0.76562 0-0.90625 0-0.90625-0.53125v-2.0781c0.21875 0.29688 0.70312 0.76562 1.4688 0.76562 1.375 0 2.5938-1.1719 2.5938-2.7031 0-1.5156-1.125-2.6875-2.4375-2.6875-1.0469 0-1.6094 0.75-1.6406 0.79688v-0.79688l-1.6719 0.125v0.34375c0.84375 0 0.92188 0.09375 0.92188 0.60938v5.625c0 0.53125-0.14062 0.53125-0.92188 0.53125v0.34375c0.3125-0.015625 0.96875-0.015625 1.2969-0.015625 0.34375 0 1 0 1.2969 0.015625zm-0.90625-5.7812c0-0.23438 0-0.23438 0.14062-0.4375 0.35938-0.53125 0.9375-0.76562 1.3906-0.76562 0.90625 0 1.6094 1.0938 1.6094 2.4375 0 1.4219-0.8125 2.4531-1.7188 2.4531-0.375 0-0.71875-0.15625-0.96875-0.375-0.26562-0.28125-0.45312-0.51562-0.45312-0.84375z"/>
</g>
<g id="k">
<path d="m5.4844-2.5625c0-1.5312-1.1719-2.7656-2.5625-2.7656-1.4219 0-2.5625 1.2656-2.5625 2.7656 0 1.5312 1.1875 2.6875 2.5625 2.6875 1.4062 0 2.5625-1.1719 2.5625-2.6875zm-2.5625 2.4219c-0.4375 0-0.96875-0.1875-1.3125-0.78125-0.32812-0.53125-0.34375-1.2344-0.34375-1.75 0-0.45312 0-1.1719 0.375-1.7188 0.32812-0.51562 0.85938-0.70312 1.2812-0.70312 0.45312 0 0.96875 0.21875 1.2812 0.6875 0.375 0.54688 0.375 1.2969 0.375 1.7344 0 0.42188 0 1.1719-0.3125 1.7344-0.32812 0.5625-0.89062 0.79688-1.3438 0.79688z"/>
</g>
<g id="af">
<path d="m3.8906 2.9062c0-0.03125 0-0.0625-0.20312-0.26562-1.2031-1.2031-1.875-3.1719-1.875-5.6094 0-2.3281 0.5625-4.3281 1.9531-5.7344 0.125-0.10938 0.125-0.125 0.125-0.17188 0-0.0625-0.0625-0.09375-0.10938-0.09375-0.15625 0-1.1406 0.85938-1.7188 2.0312-0.60938 1.2188-0.89062 2.4844-0.89062 3.9688 0 1.0625 0.17188 2.4844 0.78125 3.75 0.71875 1.4375 1.6875 2.2188 1.8281 2.2188 0.046875 0 0.10938-0.03125 0.10938-0.09375z"/>
</g>
<g id="ae">
<path d="m7.625-3.0625h-0.26562c-0.28125 1.875-0.5625 2.7188-2.5938 2.7188h-1.625c-0.51562 0-0.54688-0.09375-0.54688-0.48438v-3.2188h1.0938c1.1406 0 1.2656 0.35938 1.2656 1.3906h0.26562v-3.1406h-0.26562c0 1.0312-0.125 1.3906-1.2656 1.3906h-1.0938v-2.9062c0-0.39062 0.03125-0.48438 0.54688-0.48438h1.5938c1.75 0 2.125 0.59375 2.3125 2.3281h0.25l-0.29688-2.6719h-6.5156v0.34375h0.25c0.85938 0 0.89062 0.125 0.89062 0.5625v6.3281c0 0.4375-0.03125 0.5625-0.89062 0.5625h-0.25v0.34375h6.6562z"/>
</g>
<g id="ad">
<path d="m8.5781-2.9062c0-1.1094 0-1.4375-0.28125-1.8281-0.34375-0.46875-0.90625-0.53125-1.3125-0.53125-1 0-1.5 0.71875-1.6875 1.1719-0.17188-0.92188-0.8125-1.1719-1.5625-1.1719-1.1719 0-1.625 0.98438-1.7188 1.2188v-1.2188l-1.6406 0.125v0.34375c0.8125 0 0.92188 0.09375 0.92188 0.67188v3.2344c0 0.54688-0.14062 0.54688-0.92188 0.54688v0.34375c0.3125-0.03125 0.96875-0.03125 1.2969-0.03125 0.34375 0 1 0 1.2969 0.03125v-0.34375c-0.75 0-0.90625 0-0.90625-0.54688v-2.2188c0-1.25 0.82812-1.9219 1.5781-1.9219 0.73438 0 0.90625 0.60938 0.90625 1.3438v2.7969c0 0.54688-0.14062 0.54688-0.90625 0.54688v0.34375c0.29688-0.03125 0.95312-0.03125 1.2812-0.03125 0.34375 0 1 0 1.3125 0.03125v-0.34375c-0.76562 0-0.92188 0-0.92188-0.54688v-2.2188c0-1.25 0.82812-1.9219 1.5781-1.9219 0.73438 0 0.90625 0.60938 0.90625 1.3438v2.7969c0 0.54688-0.14062 0.54688-0.90625 0.54688v0.34375c0.3125-0.03125 0.95312-0.03125 1.2812-0.03125 0.34375 0 1 0 1.3125 0.03125v-0.34375c-0.60938 0-0.90625 0-0.90625-0.35938z"/>
</g>
<g id="ac">
<path d="m3.375-2.9688c0-0.92188-0.125-2.3906-0.79688-3.7812-0.70312-1.4375-1.6875-2.2188-1.8125-2.2188-0.046875 0-0.10938 0.03125-0.10938 0.09375 0 0.046875 0 0.0625 0.20312 0.26562 1.2031 1.2031 1.8594 3.1875 1.8594 5.625 0 2.3125-0.5625 4.3125-1.9375 5.7188-0.125 0.10938-0.125 0.14062-0.125 0.17188 0 0.0625 0.0625 0.09375 0.10938 0.09375 0.15625 0 1.1406-0.85938 1.7188-2.0312 0.60938-1.2188 0.89062-2.5156 0.89062-3.9375z"/>
</g>
<g id="ab">
<path d="m2.4844-4.9844c-0.60938-0.15625-1.1406-0.75-1.1406-1.5156 0-0.84375 0.67188-1.5938 1.5938-1.5938 1.9688 0 2.2188 1.9375 2.2969 2.4531 0.03125 0.14062 0.03125 0.1875 0.14062 0.1875 0.14062 0 0.14062-0.0625 0.14062-0.26562v-2.4219c0-0.21875 0-0.28125-0.125-0.28125-0.03125 0-0.078125 0-0.17188 0.15625l-0.39062 0.73438c-0.57812-0.73438-1.3594-0.89062-1.8906-0.89062-1.3281 0-2.2969 1.0781-2.2969 2.2969 0 0.5625 0.20312 1.0938 0.65625 1.5781 0.40625 0.45312 0.82812 0.5625 1.6719 0.78125 0.42188 0.09375 1.0781 0.26562 1.25 0.32812 0.5625 0.28125 0.9375 0.92188 0.9375 1.5938 0 0.90625-0.64062 1.75-1.625 1.75-0.54688 0-1.2812-0.14062-1.875-0.64062-0.6875-0.625-0.73438-1.4844-0.75-1.8906-0.015625-0.09375-0.10938-0.09375-0.125-0.09375-0.14062 0-0.14062 0.0625-0.14062 0.28125v2.4062c0 0.21875 0 0.28125 0.125 0.28125 0.078125 0 0.078125-0.015625 0.17188-0.17188 0.046875-0.09375 0.29688-0.53125 0.39062-0.71875 0.42188 0.48438 1.1875 0.89062 2.2031 0.89062 1.3438 0 2.3125-1.1406 2.3125-2.4531 0-0.71875-0.28125-1.2656-0.59375-1.6562-0.4375-0.54688-0.98438-0.67188-1.4531-0.79688z"/>
</g>
<g id="aa">
<path d="m2.6094-3.7969h2.0156c1.4062 0 2.6719-0.95312 2.6719-2.1562 0-1.1562-1.1562-2.2031-2.7656-2.2031h-4.0312v0.34375h0.23438c0.875 0 0.90625 0.10938 0.90625 0.5625v6.3438c0 0.4375-0.03125 0.5625-0.90625 0.5625h-0.23438v0.34375c0.28125-0.03125 1.2656-0.03125 1.6094-0.03125 0.35938 0 1.3438 0 1.625 0.03125v-0.34375h-0.23438c-0.85938 0-0.89062-0.125-0.89062-0.5625zm-0.03125-0.29688v-3.25c0-0.39062 0.03125-0.46875 0.54688-0.46875h1.125c1.9375 0 1.9375 1.3438 1.9375 1.8594 0 0.5 0 1.8594-1.9375 1.8594z"/>
</g>
<clipPath id="bg">
<path d="m84 156h313.53v22h-313.53z"/>
</clipPath>
<clipPath id="bf">
<path d="m106 0.21094h100v22.789h-100z"/>
</clipPath>
<clipPath id="ay">
<path d="m255 0.21094h100v22.789h-100z"/>
</clipPath>
<clipPath id="ax">
<path d="m155 21h2v37h-2z"/>
</clipPath>
<clipPath id="aw">
<path d="m-0.47266 178.21h398v-178h-398zm156.67-120.64h-0.44141l-1.668-5.2578 1.8867 0.94531 1.8906-0.94531z" clip-rule="evenodd"/>
</clipPath>
<clipPath id="av">
<path d="m311 21h2v37h-2z"/>
</clipPath>
<clipPath id="au">
<path d="m-0.47266 178.21h398v-178h-398zm312.16-156.52h0.44141l1.668 5.2617-1.8906-0.94531-1.8906 0.94531z" clip-rule="evenodd"/>
</clipPath>
<clipPath id="at">
<path d="m84 50h313.53v86h-313.53z"/>
</clipPath>
<clipPath id="as">
<path d="m155 135h2v22h-2z"/>
</clipPath>
<clipPath id="ar">
<path d="m-0.47266 178.21h398v-178h-398zm156.67-21.418h-0.44141l-1.668-5.2617 1.8867 0.94531 1.8906-0.94531zm-0.44141-21.703h0.44141l1.668 5.2578-1.8906-0.94531-1.8867 0.94531z" clip-rule="evenodd"/>
</clipPath>
<clipPath id="be">
<path d="m311 135h2v22h-2z"/>
</clipPath>
<clipPath id="bd">
<path d="m-0.47266 178.21h398v-178h-398zm312.6-21.418h-0.44141l-1.6719-5.2617 1.8906 0.94531 1.8906-0.94531zm-0.44141-21.703h0.44141l1.668 5.2578-1.8906-0.94531-1.8906 0.94531z" clip-rule="evenodd"/>
</clipPath>
<clipPath id="bc">
<path d="m155 99h2v30h-2z"/>
</clipPath>
<clipPath id="bb">
<path d="m-0.47266 178.21h398v-178h-398zm156.67-49.77h-0.44141l-1.668-5.2578 1.8867 0.94141 1.8906-0.94141z" clip-rule="evenodd"/>
</clipPath>
<clipPath id="ba">
<path d="m311 99h2v30h-2z"/>
</clipPath>
<clipPath id="az">
<path d="m-0.47266 178.21h398v-178h-398zm312.16-78.559h0.44141l1.668 5.2578-1.8906-0.94531-1.8906 0.94531z" clip-rule="evenodd"/>
</clipPath>
</defs>
<g clip-path="url(#bg)">
<path transform="matrix(.1 0 0 -.1 -.472 178.21)" d="m855.74 3.7306h3118.5v212.66h-3118.5z" fill="none" stroke="#000" stroke-miterlimit="10" stroke-width="2.3625"/>
</g>
<g clip-path="url(#bf)">
<path transform="matrix(.1 0 0 -.1 -.472 178.21)" d="m1068.4 1563h992.23v212.62h-992.23z" fill="none" stroke="#000" stroke-miterlimit="10" stroke-width="2.3625"/>
</g>
<g clip-path="url(#ay)">
<path transform="matrix(.1 0 0 -.1 -.472 178.21)" d="m2556.8 1563h992.27v212.62h-992.27z" fill="none" stroke="#000" stroke-miterlimit="10" stroke-width="2.3625"/>
</g>
<path transform="matrix(.1 0 0 -.1 -.472 178.21)" d="m2485.9 783.38h1204.9v425.23h-1204.9z" fill="none" stroke="#000" stroke-miterlimit="10" stroke-width="2.3625"/>
<g clip-path="url(#ax)">
<g clip-path="url(#aw)">
<path transform="matrix(.1 0 0 -.1 -.472 178.21)" d="m1564.5 1208.6v354.38" fill="none" stroke="#000" stroke-miterlimit="10" stroke-width="2.3625"/>
</g>
</g>
<path d="m154.09 52.309 1.8867 4.7227 1.8906-4.7227-1.8906 0.94531-1.8867-0.94531" fill-rule="evenodd"/>
<path transform="matrix(.1 0 0 -.1 -.472 178.21)" d="m1545.6 1259 18.867-47.227 18.906 47.227-18.906-9.4531z" fill="none" stroke="#000" stroke-miterlimit="10" stroke-width="2.3625"/>
<g clip-path="url(#av)">
<g clip-path="url(#au)">
<path transform="matrix(.1 0 0 -.1 -.472 178.21)" d="m3123.7 1208.6v354.38" fill="none" stroke="#000" stroke-miterlimit="10" stroke-width="2.3625"/>
</g>
</g>
<path d="m313.79 26.949-1.8906-4.7266-1.8906 4.7266 1.8906-0.94531 1.8906 0.94531" fill-rule="evenodd"/>
<path transform="matrix(.1 0 0 -.1 -.472 178.21)" d="m3142.6 1512.6-18.906 47.266-18.906-47.266 18.906 9.4531z" fill="none" stroke="#000" stroke-miterlimit="10" stroke-width="2.3625"/>
<path transform="matrix(.1 0 0 -.1 -.472 178.21)" d="m997.49 783.38h1204.9v425.23h-1204.9z" fill="none" stroke="#000" stroke-miterlimit="10" stroke-width="2.3625"/>
<path transform="matrix(.1 0 0 -.1 -.472 178.21)" d="m1668.4 1463.8c-18.242 0-33.047-14.805-33.047-33.086v-75.586c0-18.242 14.805-33.086 33.047-33.086h359.1c18.281 0 33.086 14.844 33.086 33.086v75.586c0 18.281-14.805 33.086-33.086 33.086z" fill="none" stroke="#000" stroke-miterlimit="10" stroke-width="2.3625"/>
<g clip-path="url(#at)">
<path transform="matrix(.1 0 0 -.1 -.472 178.21)" d="m855.74 429h3118.5v850.51h-3118.5z" fill="none" stroke="#000" stroke-miterlimit="10" stroke-width="2.3625"/>
</g>
<g clip-path="url(#as)">
<g clip-path="url(#ar)">
<path transform="matrix(.1 0 0 -.1 -.472 178.21)" d="m1564.5 429v-212.62" fill="none" stroke="#000" stroke-miterlimit="10" stroke-width="2.3625"/>
</g>
</g>
<path d="m157.87 140.35-1.8906-4.7227-1.8867 4.7227 1.8867-0.94531 1.8906 0.94531" fill-rule="evenodd"/>
<path transform="matrix(.1 0 0 -.1 -.472 178.21)" d="m1583.4 378.61-18.906 47.227-18.867-47.227 18.867 9.4531z" fill="none" stroke="#000" stroke-miterlimit="10" stroke-width="2.3625"/>
<path d="m154.09 151.53 1.8867 4.7266 1.8906-4.7266-1.8906 0.94531-1.8867-0.94531" fill-rule="evenodd"/>
<path transform="matrix(.1 0 0 -.1 -.472 178.21)" d="m1545.6 266.78 18.867-47.266 18.906 47.266-18.906-9.4531z" fill="none" stroke="#000" stroke-miterlimit="10" stroke-width="2.3625"/>
<g clip-path="url(#be)">
<g clip-path="url(#bd)">
<path transform="matrix(.1 0 0 -.1 -.472 178.21)" d="m3123.7 429v-212.62" fill="none" stroke="#000" stroke-miterlimit="10" stroke-width="2.3625"/>
</g>
</g>
<path d="m313.79 140.35-1.8906-4.7227-1.8906 4.7227 1.8906-0.94531 1.8906 0.94531" fill-rule="evenodd"/>
<path transform="matrix(.1 0 0 -.1 -.472 178.21)" d="m3142.6 378.61-18.906 47.227-18.906-47.227 18.906 9.4531z" fill="none" stroke="#000" stroke-miterlimit="10" stroke-width="2.3625"/>
<path d="m310.01 151.53 1.8906 4.7266 1.8906-4.7266-1.8906 0.94531-1.8906-0.94531" fill-rule="evenodd"/>
<path transform="matrix(.1 0 0 -.1 -.472 178.21)" d="m3104.8 266.78 18.906-47.266 18.906 47.266-18.906-9.4531z" fill="none" stroke="#000" stroke-miterlimit="10" stroke-width="2.3625"/>
<g clip-path="url(#bc)">
<g clip-path="url(#bb)">
<path transform="matrix(.1 0 0 -.1 -.472 178.21)" d="m1564.5 783.38v-283.52" fill="none" stroke="#000" stroke-miterlimit="10" stroke-width="2.3625"/>
</g>
</g>
<path d="m154.09 123.18 1.8867 4.7227 1.8906-4.7227-1.8906 0.94141-1.8867-0.94141" fill-rule="evenodd"/>
<path transform="matrix(.1 0 0 -.1 -.472 178.21)" d="m1545.6 550.25 18.867-47.227 18.906 47.227-18.906-9.4141z" fill="none" stroke="#000" stroke-miterlimit="10" stroke-width="2.3625"/>
<g clip-path="url(#ba)">
<g clip-path="url(#az)">
<path transform="matrix(.1 0 0 -.1 -.472 178.21)" d="m3123.7 783.38v-283.52" fill="none" stroke="#000" stroke-miterlimit="10" stroke-width="2.3625"/>
</g>
</g>
<path d="m313.79 104.91-1.8906-4.7227-1.8906 4.7227 1.8906-0.94531 1.8906 0.94531" fill-rule="evenodd"/>
<path transform="matrix(.1 0 0 -.1 -.472 178.21)" d="m3142.6 732.99-18.906 47.227-18.906-47.227 18.906 9.4531z" fill="none" stroke="#000" stroke-miterlimit="10" stroke-width="2.3625"/>
<path transform="matrix(.1 0 0 -.1 -.472 178.21)" d="m1635.4 499.86h425.23v141.76h-425.23z" fill="none" stroke="#000" stroke-miterlimit="10" stroke-width="2.3625"/>
<path transform="matrix(.1 0 0 -.1 -.472 178.21)" d="m2627.6 499.86h425.27v141.76h-425.27z" fill="none" stroke="#000" stroke-miterlimit="10" stroke-width="2.3625"/>
<path transform="matrix(.1 0 0 -.1 -.472 178.21)" d="m2660.7 1463.8c-18.281 0-33.086-14.805-33.086-33.086v-75.586c0-18.242 14.805-33.086 33.086-33.086h359.1c18.281 0 33.086 14.844 33.086 33.086v75.586c0 18.281-14.805 33.086-33.086 33.086z" fill="none" stroke="#000" stroke-miterlimit="10" stroke-width="2.3625"/>
<g>
<use x="90.45" y="43.176" xlink:href="#x"/>
<use x="96.602146" y="43.176" xlink:href="#n"/>
<use x="102.754292" y="43.176" xlink:href="#w"/>
</g>
<path transform="matrix(1 0 0 -1 109.64 42.977)" d="m5.3125e-4 4.375e-4h3.6914" fill="none" stroke="#000" stroke-miterlimit="10" stroke-width=".398"/>
<g>
<use x="113.335" y="43.176" xlink:href="#aj"/>
<use x="119.487146" y="43.176" xlink:href="#m"/>
<use x="125.639292" y="43.176" xlink:href="#ai"/>
<use x="131.791438" y="43.176" xlink:href="#n"/>
<use x="137.943584" y="43.176" xlink:href="#v"/>
<use x="144.09573" y="43.176" xlink:href="#u"/>
<use x="1.462" y="109.606" xlink:href="#j"/>
<use x="0.001" y="112.157" xlink:href="#ag"/>
<use x="8.776117" y="112.157" xlink:href="#y"/>
<use x="15.602536" y="112.157" xlink:href="#a"/>
<use x="20.805439" y="112.157" xlink:href="#b"/>
<use x="25.357979" y="112.157" xlink:href="#f"/>
<use x="29.910519" y="112.157" xlink:href="#b"/>
<use x="34.46306" y="112.157" xlink:href="#c"/>
<use x="40.316325" y="112.157" xlink:href="#g"/>
<use x="46.169591" y="112.157" xlink:href="#i"/>
<use x="52.67322" y="112.157" xlink:href="#e"/>
<use x="59.176849" y="112.157" xlink:href="#g"/>
<use x="65.030115" y="112.157" xlink:href="#d"/>
<use x="69.647213" y="112.157" xlink:href="#ah"/>
<use x="0.001" y="124.442" xlink:href="#an"/>
<use x="9.101298" y="124.442" xlink:href="#c"/>
<use x="14.954564" y="124.442" xlink:href="#e"/>
<use x="21.458193" y="124.442" xlink:href="#c"/>
<use x="27.311459" y="124.442" xlink:href="#h"/>
<use x="0.001" y="14.828" xlink:href="#l"/>
<use x="5.203903" y="14.828" xlink:href="#i"/>
<use x="11.707532" y="14.828" xlink:href="#s"/>
<use x="17.563189" y="14.828" xlink:href="#a"/>
<use x="22.766092" y="14.828" xlink:href="#b"/>
<use x="27.318632" y="14.828" xlink:href="#h"/>
<use x="30.567" y="15.299" xlink:href="#j"/>
<use x="30.567" y="14.828" xlink:href="#c"/>
<use x="36.420266" y="14.828" xlink:href="#d"/>
<use x="41.037364" y="14.828" xlink:href="#d"/>
<use x="45.654462" y="14.828" xlink:href="#p"/>
<use x="48.906277" y="14.828" xlink:href="#g"/>
<use x="54.759543" y="14.828" xlink:href="#a"/>
<use x="59.962446" y="14.828" xlink:href="#b"/>
<use x="0.001" y="27.112" xlink:href="#r"/>
<use x="8.941099" y="27.112" xlink:href="#c"/>
<use x="14.794364" y="27.112" xlink:href="#f"/>
<use x="19.346905" y="27.112" xlink:href="#a"/>
<use x="24.549808" y="27.112" xlink:href="#e"/>
<use x="31.377" y="27.583" xlink:href="#j"/>
<use x="31.052" y="27.112" xlink:href="#i"/>
<use x="37.555629" y="27.112" xlink:href="#y"/>
<use x="44.382048" y="27.112" xlink:href="#a"/>
<use x="49.584951" y="27.112" xlink:href="#b"/>
<use x="54.137491" y="27.112" xlink:href="#ah"/>
<use x="0.001" y="39.397" xlink:href="#f"/>
<use x="4.55354" y="39.397" xlink:href="#b"/>
<use x="9.10608" y="39.397" xlink:href="#c"/>
<use x="14.959346" y="39.397" xlink:href="#g"/>
<use x="20.812612" y="39.397" xlink:href="#i"/>
<use x="27.316241" y="39.397" xlink:href="#e"/>
<use x="33.81987" y="39.397" xlink:href="#g"/>
<use x="39.673136" y="39.397" xlink:href="#d"/>
<use x="44.290234" y="39.397" xlink:href="#z"/>
<use x="50.793863" y="39.397" xlink:href="#p"/>
<use x="54.045677" y="39.397" xlink:href="#a"/>
<use x="59.24858" y="39.397" xlink:href="#e"/>
<use x="65.752209" y="39.397" xlink:href="#d"/>
<use x="70.369307" y="39.397" xlink:href="#f"/>
<use x="137.097" y="170.744" xlink:href="#i"/>
<use x="143.600629" y="170.744" xlink:href="#e"/>
<use x="150.104258" y="170.744" xlink:href="#l"/>
<use x="155.307161" y="170.744" xlink:href="#i"/>
<use x="161.810789" y="170.744" xlink:href="#s"/>
<use x="167.666446" y="170.744" xlink:href="#a"/>
<use x="172.869349" y="170.744" xlink:href="#b"/>
<use x="177.42189" y="170.744" xlink:href="#h"/>
<use x="180.67" y="171.215" xlink:href="#j"/>
<use x="180.67" y="170.744" xlink:href="#c"/>
<use x="186.523266" y="170.744" xlink:href="#d"/>
<use x="191.140364" y="170.744" xlink:href="#d"/>
<use x="195.757462" y="170.744" xlink:href="#p"/>
<use x="199.009277" y="170.744" xlink:href="#g"/>
<use x="204.862543" y="170.744" xlink:href="#a"/>
<use x="210.065446" y="170.744" xlink:href="#b"/>
<use x="219.98" y="168.193" xlink:href="#j"/>
<use x="218.519" y="170.744" xlink:href="#ag"/>
<use x="227.294117" y="170.744" xlink:href="#y"/>
<use x="234.120536" y="170.744" xlink:href="#a"/>
<use x="239.323439" y="170.744" xlink:href="#b"/>
<use x="243.875979" y="170.744" xlink:href="#f"/>
<use x="248.428519" y="170.744" xlink:href="#b"/>
<use x="252.98106" y="170.744" xlink:href="#c"/>
<use x="258.834325" y="170.744" xlink:href="#g"/>
<use x="264.687591" y="170.744" xlink:href="#i"/>
<use x="271.19122" y="170.744" xlink:href="#e"/>
<use x="277.694849" y="170.744" xlink:href="#g"/>
<use x="283.548115" y="170.744" xlink:href="#d"/>
<use x="288.165213" y="170.744" xlink:href="#q"/>
<use x="293.69808" y="170.744" xlink:href="#c"/>
<use x="299.551346" y="170.744" xlink:href="#e"/>
<use x="306.054974" y="170.744" xlink:href="#c"/>
<use x="311.90824" y="170.744" xlink:href="#h"/>
<use x="252.301" y="83.809" xlink:href="#r"/>
<use x="261.241099" y="83.809" xlink:href="#c"/>
<use x="267.094364" y="83.809" xlink:href="#f"/>
<use x="271.646905" y="83.809" xlink:href="#a"/>
<use x="276.849808" y="83.809" xlink:href="#e"/>
<use x="283.030646" y="83.809" xlink:href="#f"/>
<use x="287.583186" y="83.809" xlink:href="#b"/>
<use x="292.135726" y="83.809" xlink:href="#c"/>
<use x="297.988992" y="83.809" xlink:href="#e"/>
<use x="304.492621" y="83.809" xlink:href="#d"/>
<use x="309.109719" y="83.809" xlink:href="#t"/>
<use x="312.686715" y="83.809" xlink:href="#a"/>
<use x="317.889618" y="83.809" xlink:href="#b"/>
<use x="322.442158" y="83.809" xlink:href="#o"/>
<use x="328.945787" y="83.809" xlink:href="#b"/>
<use x="333.498327" y="83.809" xlink:href="#k"/>
<use x="339.339638" y="83.809" xlink:href="#f"/>
<use x="343.892178" y="83.809" xlink:href="#k"/>
<use x="349.745444" y="83.809" xlink:href="#q"/>
<use x="355.601101" y="83.809" xlink:href="#k"/>
<use x="361.454367" y="83.809" xlink:href="#h"/>
<use x="364.706181" y="83.809" xlink:href="#h"/>
<use x="252.301" y="96.093" xlink:href="#af"/>
<use x="256.85354" y="96.093" xlink:href="#ae"/>
<use x="264.818094" y="96.093" xlink:href="#ad"/>
<use x="274.573538" y="96.093" xlink:href="#o"/>
<use x="281.077166" y="96.093" xlink:href="#t"/>
<use x="284.653" y="96.564" xlink:href="#j"/>
<use x="284.653" y="96.093" xlink:href="#c"/>
<use x="290.506266" y="96.093" xlink:href="#e"/>
<use x="297.009895" y="96.093" xlink:href="#g"/>
<use x="302.863161" y="96.093" xlink:href="#a"/>
<use x="308.066064" y="96.093" xlink:href="#b"/>
<use x="312.618604" y="96.093" xlink:href="#ac"/>
<use x="120.408" y="14.828" xlink:href="#ab"/>
<use x="126.911629" y="14.828" xlink:href="#a"/>
<use x="132.114532" y="14.828" xlink:href="#e"/>
<use x="138.618161" y="14.828" xlink:href="#z"/>
<use x="145.121789" y="14.828" xlink:href="#a"/>
<use x="150.324692" y="14.828" xlink:href="#b"/>
<use x="154.877233" y="14.828" xlink:href="#o"/>
<use x="161.380861" y="14.828" xlink:href="#b"/>
<use x="165.933402" y="14.828" xlink:href="#k"/>
<use x="171.786668" y="14.828" xlink:href="#l"/>
<use x="176.989571" y="14.828" xlink:href="#a"/>
<use x="182.192474" y="14.828" xlink:href="#d"/>
<use x="186.809572" y="14.828" xlink:href="#d"/>
<use x="258.590984" y="14.828" xlink:href="#ae"/>
<use x="266.555538" y="14.828" xlink:href="#ad"/>
<use x="276.310981" y="14.828" xlink:href="#o"/>
<use x="282.81461" y="14.828" xlink:href="#t"/>
<use x="286.388" y="15.299" xlink:href="#j"/>
<use x="286.388" y="14.828" xlink:href="#c"/>
<use x="292.241266" y="14.828" xlink:href="#e"/>
<use x="298.744895" y="14.828" xlink:href="#g"/>
<use x="304.598161" y="14.828" xlink:href="#a"/>
<use x="309.801064" y="14.828" xlink:href="#b"/>
<use x="314.353604" y="14.828" xlink:href="#o"/>
<use x="320.857233" y="14.828" xlink:href="#b"/>
<use x="325.409773" y="14.828" xlink:href="#k"/>
<use x="331.263039" y="14.828" xlink:href="#l"/>
<use x="336.465942" y="14.828" xlink:href="#a"/>
<use x="341.668845" y="14.828" xlink:href="#d"/>
<use x="346.285943" y="14.828" xlink:href="#d"/>
<use x="103.157" y="83.809" xlink:href="#r"/>
<use x="112.097099" y="83.809" xlink:href="#c"/>
<use x="117.950364" y="83.809" xlink:href="#f"/>
<use x="122.502905" y="83.809" xlink:href="#a"/>
<use x="127.705808" y="83.809" xlink:href="#e"/>
<use x="133.886646" y="83.809" xlink:href="#f"/>
<use x="138.439186" y="83.809" xlink:href="#b"/>
<use x="142.991726" y="83.809" xlink:href="#c"/>
<use x="148.844992" y="83.809" xlink:href="#e"/>
<use x="155.348621" y="83.809" xlink:href="#d"/>
<use x="159.965719" y="83.809" xlink:href="#t"/>
<use x="163.542715" y="83.809" xlink:href="#a"/>
<use x="168.745618" y="83.809" xlink:href="#b"/>
<use x="173.298158" y="83.809" xlink:href="#o"/>
<use x="179.801787" y="83.809" xlink:href="#b"/>
<use x="184.354327" y="83.809" xlink:href="#k"/>
<use x="190.207593" y="83.809" xlink:href="#f"/>
<use x="194.760133" y="83.809" xlink:href="#k"/>
<use x="200.613399" y="83.809" xlink:href="#q"/>
<use x="206.457101" y="83.809" xlink:href="#k"/>
<use x="212.310367" y="83.809" xlink:href="#h"/>
<use x="215.562181" y="83.809" xlink:href="#h"/>
<use x="103.157" y="96.093" xlink:href="#af"/>
<use x="107.70954" y="96.093" xlink:href="#ab"/>
<use x="114.213169" y="96.093" xlink:href="#a"/>
<use x="119.416072" y="96.093" xlink:href="#e"/>
<use x="125.919701" y="96.093" xlink:href="#z"/>
<use x="132.42333" y="96.093" xlink:href="#a"/>
<use x="137.626233" y="96.093" xlink:href="#b"/>
<use x="142.178773" y="96.093" xlink:href="#ac"/>
<use x="103.157" y="71.525" xlink:href="#l"/>
<use x="108.359903" y="71.525" xlink:href="#i"/>
<use x="114.863532" y="71.525" xlink:href="#s"/>
<use x="120.719189" y="71.525" xlink:href="#a"/>
<use x="125.922092" y="71.525" xlink:href="#b"/>
<use x="130.474632" y="71.525" xlink:href="#h"/>
<use x="133.723" y="71.996" xlink:href="#j"/>
<use x="133.723" y="71.525" xlink:href="#c"/>
<use x="139.576266" y="71.525" xlink:href="#d"/>
<use x="144.193364" y="71.525" xlink:href="#d"/>
<use x="148.810462" y="71.525" xlink:href="#p"/>
<use x="152.062277" y="71.525" xlink:href="#g"/>
<use x="157.915543" y="71.525" xlink:href="#a"/>
<use x="163.118446" y="71.525" xlink:href="#d"/>
<use x="252.306629" y="71.525" xlink:href="#l"/>
<use x="257.497577" y="71.525" xlink:href="#i"/>
<use x="264.001205" y="71.525" xlink:href="#s"/>
<use x="269.856862" y="71.525" xlink:href="#a"/>
<use x="275.059765" y="71.525" xlink:href="#b"/>
<use x="279.612306" y="71.525" xlink:href="#h"/>
<use x="282.866" y="71.996" xlink:href="#j"/>
<use x="282.866" y="71.525" xlink:href="#c"/>
<use x="288.719266" y="71.525" xlink:href="#d"/>
<use x="293.336364" y="71.525" xlink:href="#d"/>
<use x="297.953462" y="71.525" xlink:href="#p"/>
<use x="301.205277" y="71.525" xlink:href="#g"/>
<use x="307.058543" y="71.525" xlink:href="#a"/>
<use x="312.261446" y="71.525" xlink:href="#d"/>
<use x="317.502" y="43.176" xlink:href="#n"/>
<use x="323.654146" y="43.176" xlink:href="#m"/>
<use x="329.806292" y="43.176" xlink:href="#ao"/>
<use x="335.958438" y="43.176" xlink:href="#am"/>
<use x="342.110584" y="43.176" xlink:href="#al"/>
<use x="348.26273" y="43.176" xlink:href="#m"/>
<use x="354.414876" y="43.176" xlink:href="#x"/>
</g>
<path transform="matrix(1 0 0 -1 361.3 42.977)" d="m0.0016875 4.375e-4h3.6875" fill="none" stroke="#000" stroke-miterlimit="10" stroke-width=".398"/>
<g>
<use x="364.995" y="43.176" xlink:href="#n"/>
<use x="371.147146" y="43.176" xlink:href="#ak"/>
<use x="377.299292" y="43.176" xlink:href="#w"/>
<use x="383.451438" y="43.176" xlink:href="#ak"/>
<use x="389.603584" y="43.176" xlink:href="#v"/>
<use x="395.75573" y="43.176" xlink:href="#u"/>
<use x="268.934" y="125.386" xlink:href="#aa"/>
<use x="276.575764" y="125.386" xlink:href="#c"/>
<use x="282.42903" y="125.386" xlink:href="#q"/>
<use x="288.284687" y="125.386" xlink:href="#a"/>
<use x="293.48759" y="125.386" xlink:href="#f"/>
<use x="169.713013" y="125.386" xlink:href="#aa"/>
<use x="177.354777" y="125.386" xlink:href="#c"/>
<use x="183.208043" y="125.386" xlink:href="#q"/>
<use x="189.0637" y="125.386" xlink:href="#a"/>
<use x="194.266603" y="125.386" xlink:href="#f"/>
<use x="317.502" y="123.969" xlink:href="#x"/>
<use x="323.654146" y="123.969" xlink:href="#n"/>
<use x="329.806292" y="123.969" xlink:href="#w"/>
</g>
<path transform="matrix(1 0 0 -1 336.7 123.77)" d="m-6.875e-4 4.6875e-4h3.6914" fill="none" stroke="#000" stroke-miterlimit="10" stroke-width=".398"/>
<g>
<use x="340.387" y="123.969" xlink:href="#x"/>
<use x="346.539146" y="123.969" xlink:href="#m"/>
<use x="352.691292" y="123.969" xlink:href="#aq"/>
<use x="358.843438" y="123.969" xlink:href="#m"/>
<use x="364.995584" y="123.969" xlink:href="#am"/>
<use x="371.14773" y="123.969" xlink:href="#al"/>
<use x="377.299876" y="123.969" xlink:href="#m"/>
<use x="383.452021" y="123.969" xlink:href="#v"/>
<use x="389.604167" y="123.969" xlink:href="#u"/>
<use x="90.444416" y="123.969" xlink:href="#ap"/>
<use x="96.596562" y="123.969" xlink:href="#n"/>
<use x="102.748708" y="123.969" xlink:href="#w"/>
</g>
<path transform="matrix(1 0 0 -1 109.64 123.77)" d="m5.3125e-4 4.6875e-4h3.6914" fill="none" stroke="#000" stroke-miterlimit="10" stroke-width=".398"/>
<g>
<use x="113.335" y="123.969" xlink:href="#aj"/>
<use x="119.487146" y="123.969" xlink:href="#m"/>
<use x="125.639292" y="123.969" xlink:href="#ai"/>
<use x="131.791438" y="123.969" xlink:href="#n"/>
<use x="137.943584" y="123.969" xlink:href="#v"/>
<use x="144.09573" y="123.969" xlink:href="#u"/>
<use x="168.739" y="43.176" xlink:href="#r"/>
<use x="177.679099" y="43.176" xlink:href="#c"/>
<use x="183.532364" y="43.176" xlink:href="#f"/>
<use x="188.084905" y="43.176" xlink:href="#a"/>
<use x="193.287808" y="43.176" xlink:href="#e"/>
<use x="267.959987" y="43.176" xlink:href="#r"/>
<use x="276.900085" y="43.176" xlink:href="#c"/>
<use x="282.753351" y="43.176" xlink:href="#f"/>
<use x="287.305892" y="43.176" xlink:href="#a"/>
<use x="292.508795" y="43.176" xlink:href="#e"/>
<use x="0.001" y="99.873" xlink:href="#l"/>
<use x="5.203903" y="99.873" xlink:href="#i"/>
<use x="11.707532" y="99.873" xlink:href="#s"/>
<use x="17.563189" y="99.873" xlink:href="#a"/>
<use x="22.766092" y="99.873" xlink:href="#b"/>
<use x="27.318632" y="99.873" xlink:href="#h"/>
<use x="30.567" y="100.344" xlink:href="#j"/>
<use x="30.567" y="99.873" xlink:href="#c"/>
<use x="36.420266" y="99.873" xlink:href="#d"/>
<use x="41.037364" y="99.873" xlink:href="#d"/>
<use x="45.654462" y="99.873" xlink:href="#p"/>
<use x="48.906277" y="99.873" xlink:href="#g"/>
<use x="54.759543" y="99.873" xlink:href="#a"/>
<use x="59.962446" y="99.873" xlink:href="#b"/>
</g>
</svg>
