<svg width="397pt" height="216pt" version="1.1" viewBox="0 0 397 216" xmlns="http://www.w3.org/2000/svg" xmlns:xlink="http://www.w3.org/1999/xlink">
<defs>
<g id="ae">
<path d="m3.8125-4.2344-1.4062-0.32812c-0.67188-0.17188-1.0938-0.76562-1.0938-1.3906 0-0.76562 0.57812-1.4375 1.4375-1.4375 1.8125 0 2.0625 1.7969 2.125 2.2812 0.015625 0.078125 0.015625 0.14062 0.125 0.14062 0.14062 0 0.14062-0.0625 0.14062-0.26562v-2.1875c0-0.1875 0-0.26562-0.10938-0.26562-0.078125 0-0.09375 0.015625-0.17188 0.14062l-0.375 0.625c-0.32812-0.3125-0.78125-0.76562-1.75-0.76562-1.2031 0-2.125 0.95312-2.125 2.1094 0 0.90625 0.57812 1.7031 1.4375 2 0.10938 0.046875 0.67188 0.17188 1.4375 0.35938 0.29688 0.078125 0.60938 0.15625 0.92188 0.5625 0.23438 0.28125 0.34375 0.64062 0.34375 1 0 0.76562-0.54688 1.5625-1.4688 1.5625-0.3125 0-1.1406-0.0625-1.7188-0.59375-0.64062-0.59375-0.67188-1.2812-0.67188-1.6719-0.015625-0.10938-0.10938-0.10938-0.14062-0.10938-0.14062 0-0.14062 0.0625-0.14062 0.26562v2.1875c0 0.17188 0 0.25 0.125 0.25 0.078125 0 0.078125-0.015625 0.15625-0.14062 0 0 0.03125-0.046875 0.39062-0.625 0.34375 0.375 1.0469 0.76562 2.0156 0.76562 1.2656 0 2.1406-1.0625 2.1406-2.2656 0-1.0938-0.71875-1.9844-1.625-2.2031z"/>
</g>
<g id="i">
<path d="m1.2812-2.375c0-1.7812 0.89062-2.2344 1.4688-2.2344 0.09375 0 0.78125 0 1.1719 0.40625-0.45312 0.03125-0.51562 0.35938-0.51562 0.5 0 0.28125 0.1875 0.5 0.5 0.5 0.28125 0 0.5-0.1875 0.5-0.51562 0-0.73438-0.82812-1.1719-1.6719-1.1719-1.3594 0-2.3594 1.1875-2.3594 2.5312 0 1.4062 1.0781 2.4844 2.3438 2.4844 1.4531 0 1.8125-1.3125 1.8125-1.4219s-0.10938-0.10938-0.14062-0.10938c-0.10938 0-0.125 0.046875-0.14062 0.10938-0.32812 1.0156-1.0312 1.1406-1.4375 1.1406-0.57812 0-1.5312-0.46875-1.5312-2.2188z"/>
</g>
<g id="h">
<path d="m1.2031-0.82812c0 0.48438-0.125 0.48438-0.85938 0.48438v0.34375c0.39062-0.015625 0.9375-0.03125 1.2344-0.03125 0.28125 0 0.85938 0.015625 1.2188 0.03125v-0.34375c-0.71875 0-0.84375 0-0.84375-0.48438v-2c0-1.1406 0.76562-1.75 1.4688-1.75 0.6875 0 0.8125 0.59375 0.8125 1.2031v2.5469c0 0.48438-0.125 0.48438-0.85938 0.48438v0.34375c0.39062-0.015625 0.9375-0.03125 1.2344-0.03125 0.28125 0 0.85938 0.015625 1.2188 0.03125v-0.34375c-0.5625 0-0.82812 0-0.84375-0.32812v-2.0781c0-0.9375 0-1.2812-0.34375-1.6719-0.14062-0.1875-0.5-0.40625-1.1406-0.40625-0.92188 0-1.3906 0.65625-1.5781 1.0781v-3.8125l-1.5781 0.10938v0.34375c0.76562 0 0.85938 0.078125 0.85938 0.60938z"/>
</g>
<g id="f">
<path d="m1.9375-4.8281-1.5312 0.125v0.34375c0.70312 0 0.79688 0.0625 0.79688 0.59375v2.9375c0 0.48438-0.10938 0.48438-0.84375 0.48438v0.34375c0.34375-0.015625 0.9375-0.03125 1.2031-0.03125 0.375 0 0.76562 0.015625 1.125 0.03125v-0.34375c-0.71875 0-0.75-0.046875-0.75-0.46875zm0.03125-1.8906c0-0.34375-0.26562-0.57812-0.57812-0.57812-0.32812 0-0.57812 0.29688-0.57812 0.57812 0 0.29688 0.25 0.57812 0.57812 0.57812 0.3125 0 0.57812-0.23438 0.57812-0.57812z"/>
</g>
<g id="o">
<path d="m1.8906-4.3594h1.5625v-0.34375h-1.5625v-2h-0.28125c0 0.89062-0.32812 2.0625-1.4062 2.0938v0.25h0.9375v3c0 1.3438 1.0156 1.4844 1.4062 1.4844 0.76562 0 1.0781-0.78125 1.0781-1.4844v-0.60938h-0.28125v0.59375c0 0.8125-0.32812 1.2188-0.71875 1.2188-0.73438 0-0.73438-0.98438-0.73438-1.1719z"/>
</g>
<g id="aa">
<path d="m5.9688-7.0625c0.078125-0.125 0.078125-0.14062 0.078125-0.21875 0-0.17188-0.0625-0.17188-0.28125-0.17188h-4.8906l-0.125 2.4531h0.28125c0.0625-1.2344 0.39062-2.1094 2.1875-2.1094h1.7031l-4.2344 6.7031c-0.078125 0.125-0.078125 0.14062-0.078125 0.21875 0 0.1875 0.0625 0.1875 0.28125 0.1875h5.0312l0.1875-2.9062h-0.28125c-0.078125 1.5156-0.28125 2.5312-2.3125 2.5312h-1.7812z"/>
</g>
<g id="n">
<path d="m1.2188-2.75c0.0625-1.625 0.98438-1.8906 1.3594-1.8906 1.125 0 1.2344 1.4688 1.2344 1.8906zm-0.015625 0.23438h3.0469c0.25 0 0.28125 0 0.28125-0.23438 0-1.0781-0.59375-2.1406-1.9531-2.1406-1.2656 0-2.2656 1.125-2.2656 2.4844 0 1.4688 1.1406 2.5312 2.3906 2.5312 1.3281 0 1.8281-1.2188 1.8281-1.4219 0-0.10938-0.09375-0.125-0.14062-0.125-0.10938 0-0.125 0.0625-0.14062 0.14062-0.39062 1.125-1.375 1.125-1.4844 1.125-0.54688 0-0.98438-0.32812-1.2344-0.73438-0.32812-0.51562-0.32812-1.2344-0.32812-1.625z"/>
</g>
<g id="g">
<path d="m1.9375-7.5625-1.5781 0.10938v0.34375c0.76562 0 0.84375 0.078125 0.84375 0.60938v5.6719c0 0.48438-0.10938 0.48438-0.84375 0.48438v0.34375c0.35938-0.015625 0.9375-0.03125 1.2188-0.03125 0.26562 0 0.79688 0.015625 1.2031 0.03125v-0.34375c-0.73438 0-0.84375 0-0.84375-0.48438z"/>
</g>
<g id="z">
<path d="m3.5156-0.17188c-0.59375-0.21875-1.8125-1.0156-1.8125-3.5312 0-2.8281 1.5312-3.7188 2.5312-3.7188 1.0625 0 2.5312 0.9375 2.5312 3.7188 0 0.85938-0.125 2.3906-1.2812 3.25-0.23438-0.60938-0.59375-1.1562-1.2344-1.1562-0.54688 0-0.89062 0.46875-0.89062 0.90625 0 0.29688 0.14062 0.5 0.15625 0.53125zm1.6875-0.10938c-0.375 0.20312-0.71875 0.25-0.95312 0.25-0.5625 0-0.65625-0.5-0.65625-0.67188 0-0.3125 0.23438-0.67188 0.65625-0.67188 0.59375 0 0.82812 0.45312 0.95312 1.0938zm0.45312 0.20312c1.2812-0.57812 2.2031-1.9688 2.2031-3.625 0-2.2188-1.6406-3.9844-3.625-3.9844-1.9531 0-3.625 1.75-3.625 3.9844 0 2.2031 1.6406 3.9375 3.6406 3.9375 0.32812 0 0.71875-0.0625 1.0312-0.15625 0.15625 1.0312 0.3125 2.0312 1.3281 2.0312 1.1094 0 1.3125-1.4375 1.3125-2 0-0.10938 0-0.23438-0.10938-0.23438s-0.10938 0.09375-0.125 0.20312c-0.0625 0.59375-0.51562 0.92188-0.98438 0.92188-0.51562 0-0.79688-0.375-1.0469-1.0781z"/>
</g>
<g id="ad">
<path d="m4.2656-0.85938v0.98438l1.5625-0.125v-0.34375c-0.75 0-0.84375-0.078125-0.84375-0.60938v-3.875l-1.6094 0.125v0.34375c0.76562 0 0.85938 0.078125 0.85938 0.60938v1.9375c0 0.95312-0.53125 1.6875-1.3281 1.6875-0.90625 0-0.95312-0.5-0.95312-1.0781v-3.625l-1.6094 0.125v0.34375c0.85938 0 0.85938 0.03125 0.85938 1v1.6406c0 0.84375 0 1.8438 1.6562 1.8438 0.60938 0 1.0938-0.3125 1.4062-0.98438z"/>
</g>
<g id="ac">
<path d="m7.8594-3.7031c0-2.2188-1.6406-3.9844-3.625-3.9844-1.9531 0-3.625 1.75-3.625 3.9844s1.6875 3.9375 3.625 3.9375c1.9844 0 3.625-1.7344 3.625-3.9375zm-3.6094 3.6562c-1.0469 0-2.5156-0.95312-2.5156-3.7969 0-2.8281 1.5938-3.5781 2.5-3.5781 0.95312 0 2.5 0.78125 2.5 3.5781 0 2.8906-1.4844 3.7969-2.4844 3.7969z"/>
</g>
<g id="r">
<path d="m1.8281-3.625v-1.2031l-1.5156 0.125v0.34375c0.75 0 0.84375 0.078125 0.84375 0.60938v2.9219c0 0.48438-0.125 0.48438-0.84375 0.48438v0.34375c0.42188-0.015625 0.9375-0.03125 1.2344-0.03125 0.4375 0 0.95312 0 1.3906 0.03125v-0.34375h-0.23438c-0.8125 0-0.82812-0.10938-0.82812-0.5v-1.6875c0-1.0781 0.45312-2.0469 1.2812-2.0469 0.078125 0 0.10938 0 0.125 0.015625-0.03125 0-0.25 0.14062-0.25 0.42188 0 0.29688 0.23438 0.46875 0.46875 0.46875 0.20312 0 0.46875-0.14062 0.46875-0.48438s-0.34375-0.67188-0.8125-0.67188c-0.79688 0-1.1875 0.73438-1.3281 1.2031z"/>
</g>
<g id="ab">
<path d="m2.4219-1.875c-0.95312 0-0.95312-1.0938-0.95312-1.3438 0-0.29688 0.015625-0.64062 0.17188-0.92188 0.09375-0.125 0.34375-0.42188 0.78125-0.42188 0.95312 0 0.95312 1.0781 0.95312 1.3281 0 0.29688-0.015625 0.65625-0.17188 0.92188-0.09375 0.125-0.34375 0.4375-0.78125 0.4375zm-1.2656 0.42188c0-0.046875 0-0.29688 0.1875-0.51562 0.42188 0.3125 0.875 0.34375 1.0781 0.34375 1.0156 0 1.7656-0.75 1.7656-1.5938 0-0.40625-0.17188-0.8125-0.45312-1.0625 0.40625-0.35938 0.79688-0.42188 0.98438-0.42188 0.03125 0 0.078125 0 0.10938 0.015625-0.10938 0.046875-0.17188 0.15625-0.17188 0.29688 0 0.1875 0.14062 0.3125 0.3125 0.3125 0.10938 0 0.32812-0.078125 0.32812-0.32812 0-0.1875-0.14062-0.53125-0.5625-0.53125-0.21875 0-0.70312 0.0625-1.1562 0.51562-0.45312-0.35938-0.92188-0.40625-1.1562-0.40625-1.0156 0-1.7656 0.76562-1.7656 1.5938 0 0.48438 0.23438 0.90625 0.51562 1.125-0.14062 0.17188-0.34375 0.53125-0.34375 0.90625 0 0.34375 0.14062 0.75 0.48438 0.96875-0.65625 0.1875-1 0.65625-1 1.0938 0 0.78125 1.0781 1.3906 2.4062 1.3906 1.2812 0 2.4219-0.5625 2.4219-1.4062 0-0.39062-0.15625-0.9375-0.71875-1.25-0.57812-0.29688-1.2031-0.29688-1.875-0.29688-0.26562 0-0.73438 0-0.8125-0.015625-0.34375-0.046875-0.57812-0.375-0.57812-0.73438zm1.5625 3.4531c-1.0938 0-1.8438-0.5625-1.8438-1.1406 0-0.5 0.40625-0.90625 0.89062-0.9375h0.64062c0.9375 0 2.1562 0 2.1562 0.9375 0 0.59375-0.76562 1.1406-1.8438 1.1406z"/>
</g>
<g id="q">
<path d="m1.2031-3.75v2.9219c0 0.48438-0.125 0.48438-0.85938 0.48438v0.34375c0.39062-0.015625 0.9375-0.03125 1.2344-0.03125 0.28125 0 0.85938 0.015625 1.2188 0.03125v-0.34375c-0.71875 0-0.84375 0-0.84375-0.48438v-2c0-1.1406 0.76562-1.75 1.4688-1.75 0.6875 0 0.8125 0.59375 0.8125 1.2031v2.5469c0 0.48438-0.125 0.48438-0.85938 0.48438v0.34375c0.39062-0.015625 0.9375-0.03125 1.2344-0.03125 0.28125 0 0.85938 0.015625 1.2188 0.03125v-0.34375c-0.5625 0-0.82812 0-0.84375-0.32812v-2.0781c0-0.9375 0-1.2812-0.34375-1.6719-0.14062-0.1875-0.5-0.40625-1.1406-0.40625-0.79688 0-1.3125 0.46875-1.6094 1.1562v-1.1562l-1.5469 0.125v0.34375c0.76562 0 0.85938 0.078125 0.85938 0.60938z"/>
</g>
<g id="p">
<path d="m3.625-0.82812c0.046875 0.4375 0.34375 0.89062 0.85938 0.89062 0.23438 0 0.89062-0.15625 0.89062-1.0312v-0.60938h-0.26562v0.60938c0 0.625-0.28125 0.70312-0.39062 0.70312-0.35938 0-0.40625-0.5-0.40625-0.54688v-2.1875c0-0.45312 0-0.875-0.39062-1.2812-0.4375-0.4375-0.98438-0.60938-1.5-0.60938-0.89062 0-1.6406 0.51562-1.6406 1.2344 0 0.32812 0.21875 0.51562 0.5 0.51562 0.29688 0 0.5-0.21875 0.5-0.5 0-0.14062-0.0625-0.5-0.5625-0.5 0.29688-0.39062 0.82812-0.5 1.1875-0.5 0.53125 0 1.1562 0.42188 1.1562 1.3906v0.40625c-0.5625 0.03125-1.3281 0.0625-2.0156 0.39062-0.8125 0.375-1.0938 0.9375-1.0938 1.4219 0 0.875 1.0625 1.1562 1.75 1.1562 0.71875 0 1.2188-0.4375 1.4219-0.95312zm-0.0625-1.7969v1.0938c0 1.0469-0.79688 1.4062-1.2812 1.4062-0.53125 0-0.98438-0.375-0.98438-0.92188 0-0.59375 0.45312-1.5 2.2656-1.5781z"/>
</g>
<g id="c">
<path d="m7.7344-4.7969c0.078125-0.3125 0.09375-0.375 0.65625-0.375 0.1875 0 0.28125 0 0.28125-0.15625 0-0.10938-0.10938-0.10938-0.25-0.10938h-1.0312c-0.20312 0-0.23438 0-0.34375 0.15625l-3 4.5469-0.70312-4.5c-0.03125-0.1875-0.046875-0.20312-0.28125-0.20312h-1.0781c-0.14062 0-0.25 0-0.25 0.14062 0 0.125 0.10938 0.125 0.23438 0.125 0.26562 0 0.5 0 0.5 0.125 0 0.03125-0.015625 0.03125-0.03125 0.14062l-1.0156 4.0469c-0.09375 0.40625-0.3125 0.57812-0.84375 0.59375-0.046875 0-0.14062 0.015625-0.14062 0.15625 0 0.046875 0.046875 0.10938 0.125 0.10938 0.03125 0 0.20312-0.03125 0.78125-0.03125 0.625 0 0.75 0.03125 0.82812 0.03125 0.03125 0 0.14062 0 0.14062-0.15625 0-0.09375-0.078125-0.10938-0.14062-0.10938-0.28125 0-0.51562-0.046875-0.51562-0.32812 0-0.046875 0.015625-0.15625 0.015625-0.15625l1.0781-4.3281h0.015625l0.76562 4.8594c0.03125 0.125 0.03125 0.21875 0.15625 0.21875 0.10938 0 0.15625-0.09375 0.20312-0.15625l3.2812-4.9844h0.015625l-1.125 4.5156c-0.078125 0.29688-0.09375 0.35938-0.6875 0.35938-0.14062 0-0.25 0-0.25 0.15625 0 0.03125 0.03125 0.10938 0.14062 0.10938 0.09375 0 0.34375-0.015625 0.45312-0.03125h0.5c0.75 0 0.9375 0.03125 1 0.03125 0.046875 0 0.15625 0 0.15625-0.15625 0-0.10938-0.10938-0.10938-0.25-0.10938-0.015625 0-0.15625 0-0.29688-0.015625-0.17188-0.015625-0.1875-0.03125-0.1875-0.10938 0-0.046875 0.015625-0.09375 0.03125-0.125z"/>
</g>
<g id="a">
<path d="m6.3594-4.7969c0.09375-0.3125 0.10938-0.375 0.65625-0.375 0.1875 0 0.28125 0 0.28125-0.15625 0-0.015625 0-0.10938-0.14062-0.10938s-0.32812 0.015625-0.48438 0.015625h-0.5c-0.76562 0-0.96875-0.015625-1.0312-0.015625-0.03125 0-0.15625 0-0.15625 0.14062 0 0.125 0.09375 0.125 0.23438 0.125 0.25 0 0.48438 0 0.48438 0.125 0 0.03125 0 0.03125-0.03125 0.14062l-0.46875 1.9375h-2.5781l0.46875-1.8594c0.0625-0.28125 0.078125-0.34375 0.67188-0.34375 0.15625 0 0.25 0 0.25-0.15625 0-0.015625 0-0.10938-0.14062-0.10938s-0.34375 0.015625-0.48438 0.015625h-0.5c-0.76562 0-0.98438-0.015625-1.0312-0.015625-0.03125 0-0.15625 0-0.15625 0.14062 0 0.125 0.09375 0.125 0.21875 0.125 0.26562 0 0.5 0 0.5 0.125 0 0.03125 0 0.03125-0.03125 0.14062l-1.0625 4.2812c-0.078125 0.29688-0.09375 0.35938-0.6875 0.35938-0.14062 0-0.25 0-0.25 0.15625 0 0.03125 0.03125 0.10938 0.14062 0.10938 0.14062 0 0.34375-0.015625 0.48438-0.03125h0.51562c0.76562 0 0.96875 0.03125 1.0312 0.03125 0.046875 0 0.15625 0 0.15625-0.15625 0-0.10938-0.10938-0.10938-0.23438-0.10938-0.03125 0-0.17188 0-0.3125-0.015625-0.15625-0.015625-0.1875-0.03125-0.1875-0.10938 0-0.046875 0.03125-0.09375 0.03125-0.125l0.54688-2.1875h2.5625l-0.54688 2.1875c-0.078125 0.25-0.21875 0.25-0.70312 0.25-0.09375 0-0.1875 0-0.1875 0.15625 0 0.03125 0.015625 0.10938 0.125 0.10938 0.14062 0 0.34375-0.015625 0.48438-0.03125h0.51562c0.76562 0 0.96875 0.03125 1.0312 0.03125 0.046875 0 0.15625 0 0.15625-0.15625 0-0.10938-0.10938-0.10938-0.23438-0.10938-0.03125 0-0.17188 0-0.3125-0.015625-0.15625-0.015625-0.17188-0.03125-0.17188-0.10938 0-0.046875 0.015625-0.09375 0.015625-0.125z"/>
</g>
<g id="d">
<path d="m1.7656-1.9844c0.5 0 0.84375 0.34375 0.84375 0.95312 0 0.65625-0.39062 0.9375-0.82812 0.9375-0.17188 0-0.78125-0.03125-1.0469-0.375 0.23438-0.03125 0.32812-0.1875 0.32812-0.34375 0-0.20312-0.14062-0.34375-0.34375-0.34375-0.15625 0-0.34375 0.10938-0.34375 0.35938 0 0.59375 0.65625 0.92188 1.4219 0.92188 0.89062 0 1.4688-0.5625 1.4688-1.1562 0-0.4375-0.32812-0.90625-1.0469-1.0781 0.48438-0.15625 0.85938-0.54688 0.85938-1.0312s-0.5625-0.84375-1.2812-0.84375c-0.70312 0-1.2344 0.32812-1.2344 0.8125 0 0.26562 0.20312 0.32812 0.32812 0.32812 0.15625 0 0.3125-0.09375 0.3125-0.3125 0-0.1875-0.125-0.29688-0.29688-0.3125 0.28125-0.3125 0.82812-0.3125 0.89062-0.3125 0.29688 0 0.6875 0.14062 0.6875 0.64062 0 0.32812-0.1875 0.90625-0.79688 0.9375-0.10938 0-0.26562 0.015625-0.3125 0.015625-0.0625 0.015625-0.125 0.015625-0.125 0.10938s0.0625 0.09375 0.15625 0.09375z"/>
</g>
<g id="e">
<path d="m2.1406-3.7969c0-0.1875-0.015625-0.1875-0.20312-0.1875-0.39062 0.39062-1 0.39062-1.2188 0.39062v0.23438c0.15625 0 0.5625 0 0.92188-0.17188v3.0156c0 0.20312 0 0.28125-0.625 0.28125h-0.25v0.23438c0.32812-0.03125 0.79688-0.03125 1.125-0.03125s0.79688 0 1.125 0.03125v-0.23438h-0.25c-0.625 0-0.625-0.078125-0.625-0.28125z"/>
</g>
<g id="b">
<path d="m3.2188-1.125h-0.21875c-0.015625 0.09375-0.078125 0.48438-0.15625 0.54688-0.046875 0.046875-0.53125 0.046875-0.625 0.046875h-1.1094l0.76562-0.625c0.20312-0.17188 0.73438-0.54688 0.92188-0.73438 0.17188-0.17188 0.42188-0.48438 0.42188-0.90625 0-0.75-0.67188-1.1875-1.4844-1.1875-0.76562 0-1.2969 0.51562-1.2969 1.0781 0 0.29688 0.25 0.34375 0.3125 0.34375 0.15625 0 0.32812-0.10938 0.32812-0.32812 0-0.125-0.078125-0.32812-0.34375-0.32812 0.14062-0.29688 0.5-0.53125 0.92188-0.53125 0.625 0 0.95312 0.46875 0.95312 0.95312 0 0.42188-0.28125 0.85938-0.6875 1.25l-1.4219 1.2969c-0.0625 0.0625-0.0625 0.0625-0.0625 0.25h2.5938z"/>
</g>
<g id="y">
<path d="m2.25-1.625c0.125-0.125 0.45312-0.39062 0.59375-0.5 0.48438-0.45312 0.95312-0.89062 0.95312-1.6094 0-0.95312-0.79688-1.5625-1.7812-1.5625-0.96875 0-1.5938 0.71875-1.5938 1.4375 0 0.39062 0.3125 0.4375 0.42188 0.4375 0.17188 0 0.42188-0.10938 0.42188-0.42188 0-0.40625-0.40625-0.40625-0.5-0.40625 0.23438-0.59375 0.76562-0.78125 1.1562-0.78125 0.73438 0 1.125 0.625 1.125 1.2969 0 0.82812-0.57812 1.4375-1.5312 2.3906l-1 1.0469c-0.09375 0.078125-0.09375 0.09375-0.09375 0.29688h3.1406l0.23438-1.4219h-0.25c-0.015625 0.15625-0.078125 0.54688-0.17188 0.70312-0.046875 0.0625-0.65625 0.0625-0.78125 0.0625h-1.4219z"/>
</g>
<g id="m">
<path d="m2.3438-1.4531v-0.51562h-2.25v0.51562z"/>
</g>
<g id="l">
<path d="m1.9062-2.4844h1.4531c0.96875 0 1.9219-0.625 1.9219-1.4688 0-0.78125-0.84375-1.4844-1.9844-1.4844h-2.9375v0.26562h0.1875c0.60938 0 0.625 0.078125 0.625 0.375v4.1562c0 0.29688-0.015625 0.375-0.625 0.375h-0.1875v0.26562c0.6875-0.03125 0.70312-0.03125 1.1719-0.03125 0.48438 0 0.5 0 1.1719 0.03125v-0.26562h-0.17188c-0.60938 0-0.625-0.078125-0.625-0.375zm-0.03125-0.23438v-2.1406c0-0.26562 0.015625-0.3125 0.39062-0.3125h0.82812c1.3594 0 1.3594 0.85938 1.3594 1.2188 0 0.34375 0 1.2344-1.3594 1.2344z"/>
</g>
<g id="k">
<path d="m0.35938-5.4375v0.26562h0.1875c0.60938 0 0.625 0.078125 0.625 0.375v4.1562c0 0.29688-0.015625 0.375-0.625 0.375h-0.1875v0.26562h3.0312c1.4375 0 2.5938-1.1875 2.5938-2.6719 0-1.5312-1.1562-2.7656-2.5938-2.7656zm1.9062 5.1719c-0.375 0-0.39062-0.046875-0.39062-0.32812v-4.2656c0-0.26562 0.015625-0.3125 0.39062-0.3125h0.90625c0.625 0 1.1406 0.25 1.5 0.64062 0.5 0.60938 0.5 1.4688 0.5 1.8594 0 0.40625 0 1.1875-0.5 1.7656-0.26562 0.32812-0.78125 0.64062-1.5 0.64062z"/>
</g>
<g id="j">
<path d="m5.1719-4.5938c0-0.20312 0-0.57812 0.8125-0.57812v-0.26562c-0.35938 0.015625-0.71875 0.015625-0.9375 0.015625s-0.57812 0-0.9375-0.015625v0.26562c0.8125 0 0.8125 0.375 0.8125 0.57812v2.75c0 1.0938-0.8125 1.75-1.625 1.75-0.4375 0-1.4062-0.25-1.4062-1.7031v-3c0-0.29688 0.015625-0.375 0.625-0.375h0.17188v-0.26562c-0.67188 0.015625-0.6875 0.015625-1.1719 0.015625-0.46875 0-0.48438 0-1.1719-0.015625v0.26562h0.1875c0.60938 0 0.625 0.078125 0.625 0.375v2.9688c0 1.1406 0.98438 2 2.125 2 1.0625 0 1.8906-0.89062 1.8906-1.9844z"/>
</g>
<g id="x">
<path d="m2.0156-2.6562c0.625 0 1.0312 0.45312 1.0312 1.2969 0 1-0.5625 1.2812-0.98438 1.2812-0.4375 0-1.0469-0.15625-1.3281-0.57812 0.29688 0 0.5-0.1875 0.5-0.4375 0-0.26562-0.1875-0.4375-0.45312-0.4375-0.20312 0-0.4375 0.125-0.4375 0.45312 0 0.75 0.8125 1.25 1.7344 1.25 1.0469 0 1.7969-0.73438 1.7969-1.5312 0-0.67188-0.53125-1.2656-1.3438-1.4531 0.625-0.21875 1.1094-0.75 1.1094-1.3906s-0.71875-1.0938-1.5469-1.0938c-0.85938 0-1.5 0.45312-1.5 1.0625 0 0.29688 0.1875 0.42188 0.40625 0.42188 0.25 0 0.40625-0.17188 0.40625-0.40625 0-0.29688-0.26562-0.40625-0.4375-0.40625 0.34375-0.4375 0.95312-0.46875 1.0938-0.46875 0.20312 0 0.8125 0.0625 0.8125 0.89062 0 0.54688-0.23438 0.89062-0.34375 1.0156-0.23438 0.25-0.42188 0.26562-0.90625 0.29688-0.15625 0-0.21875 0.015625-0.21875 0.125s0.078125 0.10938 0.21875 0.10938z"/>
</g>
<g id="w">
<path d="m2.5-5.0781c0-0.21875-0.015625-0.21875-0.23438-0.21875-0.32812 0.3125-0.75 0.5-1.5 0.5v0.26562c0.21875 0 0.64062 0 1.1094-0.20312v4.0781c0 0.29688-0.03125 0.39062-0.78125 0.39062h-0.28125v0.26562c0.32812-0.03125 1.0156-0.03125 1.375-0.03125s1.0469 0 1.375 0.03125v-0.26562h-0.28125c-0.75 0-0.78125-0.09375-0.78125-0.39062z"/>
</g>
<g id="v">
<path d="m2.7188-5.7344c0-0.21875 0-0.23438-0.21875-0.23438-0.5625 0.5625-1.3906 0.5625-1.6719 0.5625v0.28125c0.17188 0 0.71875 0 1.2031-0.23438v4.6406c0 0.32812-0.015625 0.4375-0.85938 0.4375h-0.28125v0.28125c0.3125-0.03125 1.125-0.03125 1.4844-0.03125 0.375 0 1.1719 0 1.5 0.03125v-0.28125h-0.28125c-0.84375 0-0.875-0.10938-0.875-0.4375z"/>
</g>
<g id="u">
<path d="m2.7344-3.1562c0.82812-0.3125 1.2344-0.96875 1.2344-1.5938 0-0.6875-0.76562-1.2188-1.7031-1.2188-0.92188 0-1.625 0.53125-1.625 1.2031 0 0.29688 0.1875 0.46875 0.45312 0.46875s0.45312-0.1875 0.45312-0.45312c0-0.3125-0.21875-0.4375-0.53125-0.4375 0.23438-0.375 0.78125-0.5625 1.2344-0.5625 0.73438 0 0.875 0.59375 0.875 1.0156 0 0.26562-0.046875 0.70312-0.26562 1.0469-0.28125 0.39062-0.59375 0.40625-0.85938 0.4375-0.21875 0.015625-0.23438 0.015625-0.3125 0.015625s-0.15625 0.015625-0.15625 0.10938c0 0.125 0.078125 0.125 0.23438 0.125h0.40625c0.78125 0 1.125 0.625 1.125 1.4688 0 1.1562-0.60938 1.4844-1.0625 1.4844-0.17188 0-1.0469-0.046875-1.4375-0.71875 0.3125 0.046875 0.5625-0.17188 0.5625-0.48438 0-0.29688-0.21875-0.48438-0.48438-0.48438-0.21875 0-0.48438 0.14062-0.48438 0.51562 0 0.79688 0.82812 1.4219 1.875 1.4219 1.1094 0 1.9531-0.8125 1.9531-1.7344 0-0.78125-0.625-1.4375-1.4844-1.625z"/>
</g>
<g id="t">
<path d="m4.1406-1.5938h-0.25c-0.015625 0.125-0.09375 0.65625-0.20312 0.79688-0.0625 0.078125-0.67188 0.078125-0.85938 0.078125h-1.5938l0.89062-0.84375c1.4688-1.2656 2.0156-1.75 2.0156-2.6562 0-1.0312-0.84375-1.75-1.9531-1.75-1.0312 0-1.7344 0.8125-1.7344 1.625 0 0.45312 0.39062 0.5 0.46875 0.5 0.20312 0 0.46875-0.14062 0.46875-0.46875 0-0.26562-0.1875-0.46875-0.46875-0.46875-0.046875 0-0.0625 0-0.10938 0.015625 0.21875-0.64062 0.79688-0.92188 1.2812-0.92188 0.90625 0 1.2188 0.84375 1.2188 1.4688 0 0.90625-0.6875 1.6562-1.1094 2.125l-1.6406 1.7656c-0.10938 0.10938-0.10938 0.125-0.10938 0.32812h3.4375z"/>
</g>
<g id="s">
<path d="m0.26562-1.7656v0.28125h2.4375v0.78125c0 0.32812-0.015625 0.42188-0.6875 0.42188h-0.20312v0.28125c0.5625-0.03125 1.1875-0.03125 1.25-0.03125 0.046875 0 0.70312 0 1.2656 0.03125v-0.28125h-0.20312c-0.67188 0-0.70312-0.09375-0.70312-0.42188v-0.78125h0.92188v-0.28125h-0.92188v-4.0625c0-0.1875 0-0.25-0.17188-0.25-0.10938 0-0.10938 0.015625-0.1875 0.14062zm0.28125 0 2.2188-3.3125v3.3125z"/>
</g>
<clipPath id="bg">
<path d="m122 48h24v23h-24z"/>
</clipPath>
<clipPath id="bf">
<path d="m-1.4727 213.32h399v-214h-399zm145.01-145.74-0.21484 0.26172-3.8555-1.6992 1.4844-0.59766 0.40625-1.5586z" clip-rule="evenodd"/>
</clipPath>
<clipPath id="au">
<path d="m103 48h25v23h-25z"/>
</clipPath>
<clipPath id="al">
<path d="m-1.4727 213.32h399v-214h-399zm107.04-145.48-0.21484-0.26172 2.2734-3.543 0.35938 1.5547 1.4844 0.64844z" clip-rule="evenodd"/>
</clipPath>
<clipPath id="ak">
<path d="m123 13h1v23h-1z"/>
</clipPath>
<clipPath id="aj">
<path d="m-1.4727 213.32h399v-214h-399zm125.54-177.87h-0.33203l-1.2695-3.9961 1.4375 0.71875 1.4336-0.71875z" clip-rule="evenodd"/>
</clipPath>
<clipPath id="ai">
<path d="m340 81h22v22h-22z"/>
</clipPath>
<clipPath id="ah">
<path d="m-1.4727 213.32h399v-214h-399zm343.83-129.55 0.24219-0.24219 3.7344 1.9414-1.5312 0.50391-0.50391 1.5312z" clip-rule="evenodd"/>
</clipPath>
<clipPath id="ag">
<path d="m321 48h25v23h-25z"/>
</clipPath>
<clipPath id="af">
<path d="m-1.4727 213.32h399v-214h-399zm325.52-161.85 0.21484-0.26172 3.8555 1.6992-1.4844 0.59766-0.40625 1.5547z" clip-rule="evenodd"/>
</clipPath>
<clipPath id="be">
<path d="m296 48h31v23h-31z"/>
</clipPath>
<clipPath id="bd">
<path d="m-1.4727 213.32h399v-214h-399zm325.8-162.09 0.16797 0.26172-2.6562 3.2578-0.16797-1.6055-1.3867-0.8125z" clip-rule="evenodd"/>
</clipPath>
<clipPath id="bc">
<path d="m275 81h28v22h-28z"/>
</clipPath>
<clipPath id="bb">
<path d="m-1.4727 213.32h399v-214h-399zm301-129.77 0.19141 0.23828-2.418 3.4219-0.28516-1.5781-1.4375-0.71875z" clip-rule="evenodd"/>
</clipPath>
<clipPath id="ba">
<path d="m277 115h2v18h-2z"/>
</clipPath>
<clipPath id="az">
<path d="m-1.4727 213.32h399v-214h-399zm279.26-97.406h0.33594l1.2695 4-1.4375-0.71875-1.4336 0.71875z" clip-rule="evenodd"/>
</clipPath>
<clipPath id="ay">
<path d="m353 115h1v18h-1z"/>
</clipPath>
<clipPath id="ax">
<path d="m-1.4727 213.32h399v-214h-399zm354.68-97.406h0.33203l1.2695 4-1.4375-0.71875-1.4336 0.71875z" clip-rule="evenodd"/>
</clipPath>
<clipPath id="aw">
<path d="m78 115h1v18h-1z"/>
</clipPath>
<clipPath id="av">
<path d="m-1.4727 213.32h399v-214h-399zm80.297-80.91h-0.33203l-1.2695-3.9961 1.4336 0.71875 1.4375-0.71875z" clip-rule="evenodd"/>
</clipPath>
<clipPath id="at">
<path d="m140 81h22v22h-22z"/>
</clipPath>
<clipPath id="as">
<path d="m-1.4727 213.32h399v-214h-399zm161.17-113.39-0.24219 0.23828-3.7305-1.9414 1.5312-0.5 0.50391-1.5352z" clip-rule="evenodd"/>
</clipPath>
<clipPath id="ar">
<path d="m153 115h2v18h-2z"/>
</clipPath>
<clipPath id="aq">
<path d="m-1.4727 213.32h399v-214h-399zm155.71-80.91h-0.33594l-1.2695-3.9961 1.4375 0.71875 1.4336-0.71875z" clip-rule="evenodd"/>
</clipPath>
<clipPath id="ap">
<path d="m76 81h27v22h-27z"/>
</clipPath>
<clipPath id="ao">
<path d="m-1.4727 213.32h399v-214h-399zm80.105-113.18-0.19141-0.24219 2.418-3.4219 0.28906 1.582 1.4375 0.71484z" clip-rule="evenodd"/>
</clipPath>
<clipPath id="an">
<path d="m100 153h222v44h-222z"/>
</clipPath>
<clipPath id="am">
<path d="m-1.4727 213.32h399v-214h-399zm322.36-59.699h0.33594l1.2695 4-1.4375-0.71875-1.4375 0.71875z" clip-rule="evenodd"/>
</clipPath>
</defs>
<g clip-path="url(#bg)">
<g clip-path="url(#bf)">
<path transform="matrix(.1 0 0 -.1 -1.472 213.32)" d="m1264.5 1618.8 183.16-161.6" fill="none" stroke="#000" stroke-miterlimit="10" stroke-width="1.7955"/>
</g>
</g>
<path d="m139.46 66.148 3.6406 1.293-1.75-3.4492-0.40625 1.5586-1.4844 0.59766" fill-rule="evenodd"/>
<path transform="matrix(.1 0 0 -.1 -1.472 213.32)" d="m1409.4 1471.8 36.406-12.93-17.5 34.492-4.0625-15.586z" fill="none" stroke="#000" stroke-miterlimit="10" stroke-width="1.7955"/>
<g clip-path="url(#au)">
<g clip-path="url(#al)">
<path transform="matrix(.1 0 0 -.1 -1.472 213.32)" d="m1264.5 1618.8-193.91-161.6" fill="none" stroke="#000" stroke-miterlimit="10" stroke-width="1.7955"/>
</g>
</g>
<path d="m107.62 64.043-1.8438 3.3984 3.6875-1.1953-1.4844-0.64844-0.35938-1.5547" fill-rule="evenodd"/>
<path transform="matrix(.1 0 0 -.1 -1.472 213.32)" d="m1091 1492.8-18.438-33.984 36.875 11.953-14.844 6.4844z" fill="none" stroke="#000" stroke-miterlimit="10" stroke-width="1.7955"/>
<g clip-path="url(#ak)">
<g clip-path="url(#aj)">
<path transform="matrix(.1 0 0 -.1 -1.472 213.32)" d="m1253.8 1995.8v-215.47" fill="none" stroke="#000" stroke-miterlimit="10" stroke-width="1.7955"/>
</g>
</g>
<path d="m122.47 31.461 1.4375 3.5898 1.4336-3.5898-1.4336 0.71875-1.4375-0.71875" fill-rule="evenodd"/>
<path transform="matrix(.1 0 0 -.1 -1.472 213.32)" d="m1239.4 1818.6 14.375-35.898 14.336 35.898-14.336-7.1875z" fill="none" stroke="#000" stroke-miterlimit="10" stroke-width="1.7955"/>
<path transform="matrix(.1 0 0 -.1 -1.472 213.32)" d="m3544.8 649.19h161.56v161.6h-161.56z" fill="none" stroke="#000" stroke-miterlimit="10" stroke-width="1.7955"/>
<g clip-path="url(#ai)">
<g clip-path="url(#ah)">
<path transform="matrix(.1 0 0 -.1 -1.472 213.32)" d="m3440.7 1295.6 161.6-161.6" fill="none" stroke="#000" stroke-miterlimit="10" stroke-width="1.7955"/>
</g>
</g>
<path d="m346.33 85.469-3.5664-1.5312 1.5312 3.5664 0.50391-1.5312 1.5312-0.50391" fill-rule="evenodd"/>
<path transform="matrix(.1 0 0 -.1 -1.472 213.32)" d="m3478 1278.6-35.664 15.312 15.312-35.664 5.0391 15.312z" fill="none" stroke="#000" stroke-miterlimit="10" stroke-width="1.7955"/>
<path transform="matrix(.1 0 0 -.1 -1.472 213.32)" d="m2848.2 1295.6h161.6v161.6h-161.6z" fill="none" stroke="#000" stroke-miterlimit="10" stroke-width="1.7955"/>
<path transform="matrix(.1 0 0 -.1 -1.472 213.32)" d="m3279.1 1295.6h161.6v161.6h-161.6z" fill="none" stroke="#000" stroke-miterlimit="10" stroke-width="1.7955"/>
<path transform="matrix(.1 0 0 -.1 -1.472 213.32)" d="m2578.8 972.39h161.6v161.56h-161.6z" fill="none" stroke="#000" stroke-miterlimit="10" stroke-width="1.7955"/>
<path transform="matrix(.1 0 0 -.1 -1.472 213.32)" d="m2740.4 972.39h161.6v161.56h-161.6z" fill="none" stroke="#000" stroke-miterlimit="10" stroke-width="1.7955"/>
<path transform="matrix(.1 0 0 -.1 -1.472 213.32)" d="m3440.7 972.39h161.56v161.56h-161.56z" fill="none" stroke="#000" stroke-miterlimit="10" stroke-width="1.7955"/>
<path transform="matrix(.1 0 0 -.1 -1.472 213.32)" d="m3279.1 972.39h161.6v161.56h-161.6z" fill="none" stroke="#000" stroke-miterlimit="10" stroke-width="1.7955"/>
<path transform="matrix(.1 0 0 -.1 -1.472 213.32)" d="m2471.1 649.19h161.56v161.6h-161.56z" fill="none" stroke="#000" stroke-miterlimit="10" stroke-width="1.7955"/>
<path transform="matrix(.1 0 0 -.1 -1.472 213.32)" d="m2632.7 649.19h161.56v161.6h-161.56z" fill="none" stroke="#000" stroke-miterlimit="10" stroke-width="1.7955"/>
<path transform="matrix(.1 0 0 -.1 -1.472 213.32)" d="m3383.2 649.19h161.6v161.6h-161.6z" fill="none" stroke="#000" stroke-miterlimit="10" stroke-width="1.7955"/>
<path transform="matrix(.1 0 0 -.1 -1.472 213.32)" d="m3221.6 649.19h161.6v161.6h-161.6z" fill="none" stroke="#000" stroke-miterlimit="10" stroke-width="1.7955"/>
<path transform="matrix(.1 0 0 -.1 -1.472 213.32)" d="m2794.3 649.19h161.6v161.6h-161.6z" fill="none" stroke="#000" stroke-miterlimit="10" stroke-width="1.7955"/>
<path transform="matrix(.1 0 0 -.1 -1.472 213.32)" d="m3440.7 1295.6h215.43v161.6h-215.43z" fill="none" stroke="#000" stroke-miterlimit="10" stroke-width="1.7955"/>
<path transform="matrix(.1 0 0 -.1 -1.472 213.32)" d="m2902 972.39h215.47v161.56h-215.47z" fill="none" stroke="#000" stroke-miterlimit="10" stroke-width="1.7955"/>
<path transform="matrix(.1 0 0 -.1 -1.472 213.32)" d="m3602.3 972.39h215.43v161.56h-215.43z" fill="none" stroke="#000" stroke-miterlimit="10" stroke-width="1.7955"/>
<path transform="matrix(.1 0 0 -.1 -1.472 213.32)" d="m3706.4 649.19h219.02v161.6h-219.02z" fill="none" stroke="#000" stroke-miterlimit="10" stroke-width="1.7955"/>
<path transform="matrix(.1 0 0 -.1 -1.472 213.32)" d="m3009.8 1295.6h217.85v161.6h-217.85z" fill="none" stroke="#000" stroke-miterlimit="10" stroke-width="1.7955"/>
<g clip-path="url(#ag)">
<g clip-path="url(#af)">
<path transform="matrix(.1 0 0 -.1 -1.472 213.32)" d="m3440.7 1457.2-183.16 161.6" fill="none" stroke="#000" stroke-miterlimit="10" stroke-width="1.7955"/>
</g>
</g>
<path d="m328.11 52.91-3.6406-1.293 1.75 3.4453 0.40625-1.5547 1.4844-0.59766" fill-rule="evenodd"/>
<path transform="matrix(.1 0 0 -.1 -1.472 213.32)" d="m3295.9 1604.1-36.406 12.93 17.5-34.453 4.0625 15.547z" fill="none" stroke="#000" stroke-miterlimit="10" stroke-width="1.7955"/>
<path transform="matrix(.1 0 0 -.1 -1.472 213.32)" d="m3117.5 1618.8h269.34v161.6h-269.34z" fill="none" stroke="#000" stroke-miterlimit="10" stroke-width="1.7955"/>
<g clip-path="url(#be)">
<g clip-path="url(#bd)">
<path transform="matrix(.1 0 0 -.1 -1.472 213.32)" d="m3009.8 1457.2 247.77 161.6" fill="none" stroke="#000" stroke-miterlimit="10" stroke-width="1.7955"/>
</g>
</g>
<path d="m321.84 54.754 2.2266-3.1602-3.7812 0.74219 1.3867 0.8125 0.16797 1.6055" fill-rule="evenodd"/>
<path transform="matrix(.1 0 0 -.1 -1.472 213.32)" d="m3233.1 1585.7 22.266 31.602-37.812-7.4219 13.867-8.125z" fill="none" stroke="#000" stroke-miterlimit="10" stroke-width="1.7955"/>
<g clip-path="url(#bc)">
<g clip-path="url(#bb)">
<path transform="matrix(.1 0 0 -.1 -1.472 213.32)" d="m3009.8 1295.6-215.47-161.6" fill="none" stroke="#000" stroke-miterlimit="10" stroke-width="1.7955"/>
</g>
</g>
<path d="m297.3 87.215 2.0117-3.3047-3.7344 1.0078 1.4375 0.71875 0.28516 1.5781" fill-rule="evenodd"/>
<path transform="matrix(.1 0 0 -.1 -1.472 213.32)" d="m2987.7 1261.1 20.117 33.047-37.344-10.078 14.375-7.1875z" fill="none" stroke="#000" stroke-miterlimit="10" stroke-width="1.7955"/>
<g clip-path="url(#ba)">
<g clip-path="url(#az)">
<path transform="matrix(.1 0 0 -.1 -1.472 213.32)" d="m2794.3 972.39v-161.6" fill="none" stroke="#000" stroke-miterlimit="10" stroke-width="1.7955"/>
</g>
</g>
<path d="m279.39 119.92-1.4375-3.5898-1.4336 3.5898 1.4336-0.71875 1.4375 0.71875" fill-rule="evenodd"/>
<path transform="matrix(.1 0 0 -.1 -1.472 213.32)" d="m2808.7 934.07-14.375 35.898-14.336-35.898 14.336 7.1875z" fill="none" stroke="#000" stroke-miterlimit="10" stroke-width="1.7955"/>
<g clip-path="url(#ay)">
<g clip-path="url(#ax)">
<path transform="matrix(.1 0 0 -.1 -1.472 213.32)" d="m3548.4 972.39v-161.6" fill="none" stroke="#000" stroke-miterlimit="10" stroke-width="1.7955"/>
</g>
</g>
<path d="m354.8 119.92-1.4375-3.5898-1.4336 3.5898 1.4336-0.71875 1.4375 0.71875" fill-rule="evenodd"/>
<path transform="matrix(.1 0 0 -.1 -1.472 213.32)" d="m3562.8 934.07-14.375 35.898-14.336-35.898 14.336 7.1875z" fill="none" stroke="#000" stroke-miterlimit="10" stroke-width="1.7955"/>
<path transform="matrix(.1 0 0 -.1 -1.472 213.32)" d="m1551.8 649.19h161.6v161.6h-161.6z" fill="none" stroke="#000" stroke-miterlimit="10" stroke-width="1.7955"/>
<g clip-path="url(#aw)">
<g clip-path="url(#av)">
<path transform="matrix(.1 0 0 -.1 -1.472 213.32)" d="m801.28 972.39v-161.6" fill="none" stroke="#000" stroke-miterlimit="10" stroke-width="1.7955"/>
</g>
</g>
<path d="m77.223 128.42 1.4336 3.5898 1.4375-3.5898-1.4375 0.71875-1.4336-0.71875" fill-rule="evenodd"/>
<path transform="matrix(.1 0 0 -.1 -1.472 213.32)" d="m786.95 849.07 14.336-35.898 14.375 35.898-14.375-7.1875z" fill="none" stroke="#000" stroke-miterlimit="10" stroke-width="1.7955"/>
<g clip-path="url(#at)">
<g clip-path="url(#as)">
<path transform="matrix(.1 0 0 -.1 -1.472 213.32)" d="m1447.7 1295.6 161.56-161.6" fill="none" stroke="#000" stroke-miterlimit="10" stroke-width="1.7955"/>
</g>
</g>
<path d="m155.72 98.227 3.5664 1.5352-1.5312-3.5703-0.50391 1.5352-1.5312 0.5" fill-rule="evenodd"/>
<path transform="matrix(.1 0 0 -.1 -1.472 213.32)" d="m1571.9 1151 35.664-15.352-15.312 35.703-5.0391-15.352z" fill="none" stroke="#000" stroke-miterlimit="10" stroke-width="1.7955"/>
<g clip-path="url(#ar)">
<g clip-path="url(#aq)">
<path transform="matrix(.1 0 0 -.1 -1.472 213.32)" d="m1555.4 972.39v-161.6" fill="none" stroke="#000" stroke-miterlimit="10" stroke-width="1.7955"/>
</g>
</g>
<path d="m152.63 128.42 1.4375 3.5898 1.4336-3.5898-1.4336 0.71875-1.4375-0.71875" fill-rule="evenodd"/>
<path transform="matrix(.1 0 0 -.1 -1.472 213.32)" d="m1541 849.07 14.375-35.898 14.336 35.898-14.336-7.1875z" fill="none" stroke="#000" stroke-miterlimit="10" stroke-width="1.7955"/>
<g clip-path="url(#ap)">
<g clip-path="url(#ao)">
<path transform="matrix(.1 0 0 -.1 -1.472 213.32)" d="m1016.8 1295.6-215.47-161.6" fill="none" stroke="#000" stroke-miterlimit="10" stroke-width="1.7955"/>
</g>
</g>
<path d="m80.859 96.48-2.0117 3.3047 3.7383-1.0078-1.4375-0.71484-0.28906-1.582" fill-rule="evenodd"/>
<path transform="matrix(.1 0 0 -.1 -1.472 213.32)" d="m823.31 1168.4-20.117-33.047 37.383 10.078-14.375 7.1484z" fill="none" stroke="#000" stroke-miterlimit="10" stroke-width="1.7955"/>
<path transform="matrix(.1 0 0 -.1 -1.472 213.32)" d="m855.15 1295.6h161.6v161.6h-161.6z" fill="none" stroke="#000" stroke-miterlimit="10" stroke-width="1.7955"/>
<path transform="matrix(.1 0 0 -.1 -1.472 213.32)" d="m1286.1 1295.6h161.6v161.6h-161.6z" fill="none" stroke="#000" stroke-miterlimit="10" stroke-width="1.7955"/>
<path transform="matrix(.1 0 0 -.1 -1.472 213.32)" d="m585.85 972.39h161.56v161.56h-161.56z" fill="none" stroke="#000" stroke-miterlimit="10" stroke-width="1.7955"/>
<path transform="matrix(.1 0 0 -.1 -1.472 213.32)" d="m747.42 972.39h161.6v161.56h-161.6z" fill="none" stroke="#000" stroke-miterlimit="10" stroke-width="1.7955"/>
<path transform="matrix(.1 0 0 -.1 -1.472 213.32)" d="m1447.7 972.39h161.6v161.56h-161.6z" fill="none" stroke="#000" stroke-miterlimit="10" stroke-width="1.7955"/>
<path transform="matrix(.1 0 0 -.1 -1.472 213.32)" d="m1286.1 972.39h161.6v161.56h-161.6z" fill="none" stroke="#000" stroke-miterlimit="10" stroke-width="1.7955"/>
<path transform="matrix(.1 0 0 -.1 -1.472 213.32)" d="m478.12 649.19h161.6v161.6h-161.6z" fill="none" stroke="#000" stroke-miterlimit="10" stroke-width="1.7955"/>
<path transform="matrix(.1 0 0 -.1 -1.472 213.32)" d="m639.72 649.19h161.56v161.6h-161.56z" fill="none" stroke="#000" stroke-miterlimit="10" stroke-width="1.7955"/>
<path transform="matrix(.1 0 0 -.1 -1.472 213.32)" d="m1390.2 649.19h161.6v161.6h-161.6z" fill="none" stroke="#000" stroke-miterlimit="10" stroke-width="1.7955"/>
<path transform="matrix(.1 0 0 -.1 -1.472 213.32)" d="m1228.6 649.19h161.6v161.6h-161.6z" fill="none" stroke="#000" stroke-miterlimit="10" stroke-width="1.7955"/>
<path transform="matrix(.1 0 0 -.1 -1.472 213.32)" d="m801.28 649.19h161.6v161.6h-161.6z" fill="none" stroke="#000" stroke-miterlimit="10" stroke-width="1.7955"/>
<path transform="matrix(.1 0 0 -.1 -1.472 213.32)" d="m1447.7 1295.6h215.47v161.6h-215.47z" fill="none" stroke="#000" stroke-miterlimit="10" stroke-width="1.7955"/>
<path transform="matrix(.1 0 0 -.1 -1.472 213.32)" d="m909.02 972.39h215.47v161.56h-215.47z" fill="none" stroke="#000" stroke-miterlimit="10" stroke-width="1.7955"/>
<path transform="matrix(.1 0 0 -.1 -1.472 213.32)" d="m1609.3 972.39h215.47v161.56h-215.47z" fill="none" stroke="#000" stroke-miterlimit="10" stroke-width="1.7955"/>
<path transform="matrix(.1 0 0 -.1 -1.472 213.32)" d="m962.88 649.19h215.47v161.6h-215.47z" fill="none" stroke="#000" stroke-miterlimit="10" stroke-width="1.7955"/>
<path transform="matrix(.1 0 0 -.1 -1.472 213.32)" d="m1713.4 649.19h219.06v161.6h-219.06z" fill="none" stroke="#000" stroke-miterlimit="10" stroke-width="1.7955"/>
<path transform="matrix(.1 0 0 -.1 -1.472 213.32)" d="m1016.8 1295.6h217.85v161.6h-217.85z" fill="none" stroke="#000" stroke-miterlimit="10" stroke-width="1.7955"/>
<path transform="matrix(.1 0 0 -.1 -1.472 213.32)" d="m1124.5 1618.8h269.34v161.6h-269.34z" fill="none" stroke="#000" stroke-miterlimit="10" stroke-width="1.7955"/>
<path transform="matrix(.1 0 0 -.1 -1.472 213.32)" d="m424.25 595.32h1831.4v1238.9h-1831.4z" fill="none" stroke="#000" stroke-miterlimit="10" stroke-width="1.7955"/>
<path transform="matrix(.1 0 0 -.1 -1.472 213.32)" d="m2955.9 649.19h215.47v161.6h-215.47z" fill="none" stroke="#000" stroke-miterlimit="10" stroke-width="1.7955"/>
<path transform="matrix(.1 0 0 -.1 -1.472 213.32)" d="m2417.3 595.32h1562.1v1238.9h-1562.1z" fill="none" stroke="#000" stroke-miterlimit="10" stroke-width="1.7955"/>
<g clip-path="url(#an)">
<g clip-path="url(#am)">
<path transform="matrix(.1 0 0 -.1 -1.472 213.32)" d="m1016.8 595.32v-430.94h2208.5v430.94" fill="none" stroke="#000" stroke-miterlimit="10" stroke-width="1.7955"/>
</g>
</g>
<path d="m322.49 157.62-1.4375-3.5938-1.4375 3.5938 1.4375-0.71875 1.4375 0.71875" fill-rule="evenodd"/>
<path transform="matrix(.1 0 0 -.1 -1.472 213.32)" d="m3239.6 557-14.375 35.938-14.375-35.938 14.375 7.1875z" fill="none" stroke="#000" stroke-miterlimit="10" stroke-width="1.7955"/>
<g>
<use x="-0.181" y="24.775" xlink:href="#ae"/>
<use x="5.880096" y="24.775" xlink:href="#i"/>
<use x="10.422645" y="24.775" xlink:href="#h"/>
<use x="16.483741" y="24.775" xlink:href="#f"/>
<use x="19.514289" y="24.775" xlink:href="#i"/>
<use x="24.056838" y="24.775" xlink:href="#h"/>
<use x="29.823389" y="24.775" xlink:href="#o"/>
<use x="313.423" y="212.966" xlink:href="#aa"/>
<use x="320.089551" y="212.966" xlink:href="#f"/>
<use x="323.120099" y="212.966" xlink:href="#n"/>
<use x="327.968103" y="212.966" xlink:href="#g"/>
<use x="85.107537" y="212.966" xlink:href="#z"/>
<use x="93.592635" y="212.966" xlink:href="#ad"/>
<use x="99.653731" y="212.966" xlink:href="#n"/>
<use x="104.501735" y="212.966" xlink:href="#g"/>
<use x="107.532283" y="212.966" xlink:href="#g"/>
<use x="110.562831" y="212.966" xlink:href="#n"/>
<use x="82.571" y="8.255" xlink:href="#ac"/>
<use x="91.056098" y="8.255" xlink:href="#r"/>
<use x="95.329192" y="8.255" xlink:href="#f"/>
<use x="98.35974" y="8.255" xlink:href="#ab"/>
<use x="103.81429" y="8.255" xlink:href="#f"/>
<use x="106.844838" y="8.255" xlink:href="#q"/>
<use x="112.905934" y="8.255" xlink:href="#p"/>
<use x="118.360484" y="8.255" xlink:href="#g"/>
<use x="121.391032" y="8.255" xlink:href="#q"/>
<use x="127.452128" y="8.255" xlink:href="#p"/>
<use x="132.906678" y="8.255" xlink:href="#i"/>
<use x="137.449228" y="8.255" xlink:href="#h"/>
<use x="143.510324" y="8.255" xlink:href="#r"/>
<use x="147.783418" y="8.255" xlink:href="#f"/>
<use x="150.813966" y="8.255" xlink:href="#i"/>
<use x="155.356515" y="8.255" xlink:href="#h"/>
<use x="161.112156" y="8.255" xlink:href="#o"/>
<use x="119.474" y="45.965" xlink:href="#c"/>
<use x="87.166" y="77.21" xlink:href="#a"/>
<use x="94.122" y="78.317" xlink:href="#d"/>
<use x="106.57" y="78.287" xlink:href="#c"/>
<use x="114.703" y="79.394" xlink:href="#e"/>
<use x="130.263" y="78.287" xlink:href="#a"/>
<use x="137.219" y="79.394" xlink:href="#d"/>
<use x="147.991" y="78.287" xlink:href="#c"/>
<use x="156.124" y="79.394" xlink:href="#b"/>
<use x="60.11" y="109.533" xlink:href="#a"/>
<use x="67.067" y="110.64" xlink:href="#b"/>
<use x="76.391" y="109.533" xlink:href="#a"/>
<use x="83.348" y="110.64" xlink:href="#d"/>
<use x="94.12" y="109.533" xlink:href="#c"/>
<use x="102.252" y="110.64" xlink:href="#e"/>
<use x="129.185" y="109.533" xlink:href="#a"/>
<use x="136.142" y="110.64" xlink:href="#b"/>
<use x="146.424" y="109.533" xlink:href="#a"/>
<use x="153.381" y="110.64" xlink:href="#d"/>
<use x="164.152" y="109.533" xlink:href="#c"/>
<use x="172.285" y="110.64" xlink:href="#b"/>
<use x="186.456" y="110.61" xlink:href="#y"/>
<use x="190.690514" y="110.61" xlink:href="#m"/>
<use x="193.513524" y="110.61" xlink:href="#l"/>
<use x="199.272718" y="110.61" xlink:href="#k"/>
<use x="205.737266" y="110.61" xlink:href="#j"/>
<use x="175.681" y="78.287" xlink:href="#x"/>
<use x="179.915514" y="78.287" xlink:href="#m"/>
<use x="182.738524" y="78.287" xlink:href="#l"/>
<use x="188.497718" y="78.287" xlink:href="#k"/>
<use x="194.962266" y="78.287" xlink:href="#j"/>
<use x="196.152" y="142.933" xlink:href="#w"/>
<use x="200.386514" y="142.933" xlink:href="#m"/>
<use x="203.209524" y="142.933" xlink:href="#l"/>
<use x="208.968718" y="142.933" xlink:href="#k"/>
<use x="215.433266" y="142.933" xlink:href="#j"/>
<use x="174.926" y="142.933" xlink:href="#c"/>
<use x="183.059" y="144.04" xlink:href="#b"/>
<use x="156.959" y="142.933" xlink:href="#a"/>
<use x="163.915" y="144.04" xlink:href="#d"/>
<use x="140.678" y="142.933" xlink:href="#a"/>
<use x="147.634" y="144.04" xlink:href="#b"/>
<use x="123.918" y="142.933" xlink:href="#a"/>
<use x="130.874" y="144.04" xlink:href="#e"/>
<use x="99.507" y="143.053" xlink:href="#c"/>
<use x="107.639" y="144.16" xlink:href="#e"/>
<use x="81.659" y="142.933" xlink:href="#a"/>
<use x="88.615" y="144.04" xlink:href="#d"/>
<use x="65.378" y="142.933" xlink:href="#a"/>
<use x="72.334" y="144.04" xlink:href="#b"/>
<use x="48.618" y="142.933" xlink:href="#a"/>
<use x="55.574" y="144.04" xlink:href="#e"/>
<use x="318.798" y="45.965" xlink:href="#c"/>
<use x="286.489" y="77.21" xlink:href="#a"/>
<use x="293.446" y="78.317" xlink:href="#d"/>
<use x="305.894" y="78.287" xlink:href="#c"/>
<use x="314.026" y="79.394" xlink:href="#e"/>
<use x="329.586" y="78.287" xlink:href="#a"/>
<use x="336.543" y="79.394" xlink:href="#d"/>
<use x="347.315" y="78.287" xlink:href="#c"/>
<use x="355.447" y="79.394" xlink:href="#b"/>
<use x="345.748" y="109.533" xlink:href="#a"/>
<use x="352.705" y="110.64" xlink:href="#d"/>
<use x="328.509" y="109.533" xlink:href="#a"/>
<use x="335.466" y="110.64" xlink:href="#b"/>
<use x="363.476" y="109.533" xlink:href="#c"/>
<use x="371.609" y="110.64" xlink:href="#b"/>
<use x="293.443" y="109.533" xlink:href="#c"/>
<use x="301.576" y="110.64" xlink:href="#e"/>
<use x="275.715" y="109.533" xlink:href="#a"/>
<use x="282.672" y="110.64" xlink:href="#d"/>
<use x="259.434" y="109.533" xlink:href="#a"/>
<use x="266.391" y="110.64" xlink:href="#b"/>
<use x="247.942" y="142.933" xlink:href="#a"/>
<use x="254.898" y="144.04" xlink:href="#e"/>
<use x="264.701" y="142.933" xlink:href="#a"/>
<use x="271.658" y="144.04" xlink:href="#b"/>
<use x="280.983" y="142.933" xlink:href="#a"/>
<use x="287.939" y="144.04" xlink:href="#d"/>
<use x="298.83" y="143.053" xlink:href="#c"/>
<use x="306.963" y="144.16" xlink:href="#e"/>
<use x="323.242" y="142.933" xlink:href="#a"/>
<use x="330.198" y="144.04" xlink:href="#e"/>
<use x="340.002" y="142.933" xlink:href="#a"/>
<use x="346.958" y="144.04" xlink:href="#b"/>
<use x="356.283" y="142.933" xlink:href="#a"/>
<use x="363.239" y="144.04" xlink:href="#d"/>
<use x="374.25" y="142.933" xlink:href="#c"/>
<use x="382.383" y="144.04" xlink:href="#b"/>
<use x="14.637" y="142.574" xlink:href="#v"/>
<use x="14.469" y="77.569" xlink:href="#u"/>
<use x="14.637" y="109.892" xlink:href="#t"/>
<use x="14.637" y="47.401" xlink:href="#s"/>
</g>
</svg>
