<svg width="370pt" height="128pt" version="1.1" viewBox="0 0 370 128" xmlns="http://www.w3.org/2000/svg" xmlns:xlink="http://www.w3.org/1999/xlink">
<defs>
<g id="ak">
<path d="m2.7188-5.7344c0-0.21875 0-0.23438-0.21875-0.23438-0.5625 0.5625-1.3906 0.5625-1.6719 0.5625v0.28125c0.17188 0 0.71875 0 1.2031-0.23438v4.6406c0 0.32812-0.015625 0.4375-0.85938 0.4375h-0.28125v0.28125c0.3125-0.03125 1.125-0.03125 1.4844-0.03125 0.375 0 1.1719 0 1.5 0.03125v-0.28125h-0.28125c-0.84375 0-0.875-0.10938-0.875-0.4375z"/>
</g>
<g id="aj">
<path d="m2.5625-1.6562v-0.5625h-2.4688v0.5625z"/>
</g>
<g id="f">
<path d="m3.5781-2.8125c1.25 0 2.1719-0.78125 2.1719-1.6406 0-0.89062-0.92188-1.6719-2.1719-1.6719h-3.2188v0.28125h0.20312c0.6875 0 0.71875 0.09375 0.71875 0.42188v4.7188c0 0.32812-0.03125 0.42188-0.71875 0.42188h-0.20312v0.28125c0.40625-0.03125 0.90625-0.03125 1.3125-0.03125 0.42188 0 0.92188 0 1.3281 0.03125v-0.28125h-0.20312c-0.70312 0-0.71875-0.09375-0.71875-0.42188v-2.1094zm-1.5312-2.6719c0-0.29688 0.03125-0.35938 0.45312-0.35938h0.85938c1.4688 0 1.4688 0.98438 1.4688 1.3906s0 1.3906-1.4844 1.3906h-1.2969z"/>
</g>
<g id="q">
<path d="m0.5625-5.8438c0.6875 0 0.71875 0.09375 0.71875 0.42188v4.7188c0 0.32812-0.03125 0.42188-0.71875 0.42188h-0.20312v0.28125h3.3281c1.5625 0 2.8281-1.3281 2.8281-3.0156 0-1.7031-1.2344-3.1094-2.8281-3.1094h-3.3281v0.28125zm1.9375 5.5625c-0.42188 0-0.45312-0.0625-0.45312-0.35938v-4.8438c0-0.29688 0.03125-0.35938 0.45312-0.35938h0.95312c0.875 0 1.4062 0.45312 1.6562 0.78125 0.39062 0.51562 0.51562 1.1562 0.51562 2.0469 0 0.375 0 1.3125-0.48438 1.9375-0.46875 0.60938-1.1094 0.79688-1.6719 0.79688z"/>
</g>
<g id="w">
<path d="m2.0625-5.4219c0-0.32812 0.015625-0.42188 0.70312-0.42188h0.21875v-0.28125c-0.40625 0.03125-0.90625 0.03125-1.3281 0.03125-0.40625 0-0.90625 0-1.3125-0.03125v0.28125h0.20312c0.6875 0 0.70312 0.09375 0.70312 0.42188v3.3594c0 1.3125 1.0938 2.2656 2.3281 2.2656 1.3125 0 2.0781-1.2344 2.0781-2.125v-3.2344c0-0.26562 0-0.6875 0.90625-0.6875v-0.28125c-0.48438 0.015625-0.60938 0.03125-1.0469 0.03125s-0.5625-0.015625-1.0625-0.03125v0.28125c0.92188 0 0.92188 0.42188 0.92188 0.67188v3.1094c0 1.2188-0.875 1.9844-1.7812 1.9844-0.51562 0-1.5312-0.3125-1.5312-1.9375z"/>
</g>
<g id="m">
<path d="m6.1406-6.0781h-5.625l-0.1875 2.0312h0.25c0.125-1.4844 0.3125-1.75 1.6562-1.75 0.17188 0 0.42188 0 0.51562 0.015625 0.17188 0.046875 0.17188 0.125 0.17188 0.35938v4.7031c0 0.3125 0 0.4375-0.9375 0.4375h-0.35938v0.28125c0.32812-0.03125 1.3125-0.03125 1.7031-0.03125s1.375 0 1.6875 0.03125v-0.28125h-0.34375c-0.9375 0-0.9375-0.125-0.9375-0.4375v-4.7031c0-0.23438 0-0.3125 0.1875-0.35938 0.09375-0.015625 0.32812-0.015625 0.48438-0.015625 1.3594 0 1.5312 0.26562 1.6562 1.75h0.25z"/>
</g>
<g id="al">
<path d="m5.4219-5.5469c-0.28125-0.28125-0.79688-0.78125-1.7031-0.78125-1.7344 0-3.2031 1.4531-3.2031 3.2656 0 1.8438 1.4844 3.2656 3.2031 3.2656 1.4844 0 2.4219-1.2344 2.4219-2.2812 0-0.09375 0-0.17188-0.125-0.17188s-0.125 0.0625-0.125 0.14062c-0.078125 1.3594-1.1562 2.0312-2.0781 2.0312-0.76562 0-2.3906-0.48438-2.3906-2.9844s1.6406-2.9844 2.375-2.9844c0.89062 0 1.8281 0.67188 2.0469 2.125 0.015625 0.125 0.03125 0.15625 0.14062 0.15625 0.15625 0 0.15625-0.03125 0.15625-0.21875v-2.1094c0-0.15625 0-0.23438-0.10938-0.23438-0.0625 0-0.09375 0.03125-0.14062 0.10938z"/>
</g>
<g id="p">
<path d="m1.625-0.14062c0 0.29688 0 1.0312-0.67188 1.6719-0.03125 0.046875-0.03125 0.078125-0.03125 0.09375 0 0.046875 0.046875 0.10938 0.10938 0.10938 0.09375 0 0.82812-0.6875 0.82812-1.75 0-0.625-0.23438-0.95312-0.57812-0.95312-0.32812 0-0.48438 0.25-0.48438 0.48438 0 0.25 0.15625 0.48438 0.48438 0.48438 0.21875 0 0.34375-0.14062 0.34375-0.14062z"/>
</g>
<g id="z">
<path d="m2.0625-5.4219c0-0.3125 0.015625-0.42188 0.73438-0.42188h0.21875v-0.28125c-0.35938 0.03125-0.96875 0.03125-1.3594 0.03125-0.375 0-1 0-1.3594-0.03125v0.28125h0.21875c0.71875 0 0.73438 0.10938 0.73438 0.42188v4.7188c0 0.3125-0.015625 0.42188-0.73438 0.42188h-0.21875v0.28125c0.35938-0.03125 0.98438-0.03125 1.3594-0.03125 0.39062 0 1 0 1.3594 0.03125v-0.28125h-0.21875c-0.71875 0-0.73438-0.10938-0.73438-0.42188z"/>
</g>
<g id="ax">
<path d="m5.5-6.0938h-5.1562v0.26562h0.20312c0.6875 0 0.70312 0.10938 0.70312 0.4375v4.6875c0 0.32812-0.015625 0.42188-0.70312 0.42188h-0.20312v0.28125h5.2656l0.39062-2.3125h-0.25c-0.21875 1.3906-0.45312 2.0312-1.9844 2.0312h-1.2656c-0.42188 0-0.4375-0.0625-0.4375-0.35938v-2.3906h0.82812c0.89062 0 1 0.28125 1 1.0469h0.25v-2.375h-0.25c0 0.76562-0.10938 1.0469-1 1.0469h-0.82812v-2.1406c0-0.3125 0.015625-0.375 0.4375-0.375h1.2031c1.4062 0 1.6562 0.48438 1.7969 1.75h0.25z"/>
</g>
<g id="b">
<path d="m2.9219-3.5938v-0.26562h-1.3125v-1.6562h-0.25c0 0.75-0.3125 1.6719-1.1875 1.7031v0.21875h0.78125v2.4844c0 1 0.71875 1.2031 1.2031 1.2031 0.59375 0 0.90625-0.5625 0.90625-1.2031v-0.51562h-0.25v0.48438c0 0.67188-0.28125 0.98438-0.59375 0.98438-0.60938 0-0.60938-0.78125-0.60938-0.95312v-2.4844z"/>
</g>
<g id="i">
<path d="m1.6406-6.2188-1.3281 0.09375v0.28125c0.60938 0 0.6875 0.0625 0.6875 0.5v4.6562c0 0.40625-0.09375 0.40625-0.6875 0.40625v0.28125c0.42188-0.015625 0.59375-0.03125 1.0312-0.03125 0.42188 0 0.54688 0.015625 1.0156 0.03125v-0.28125c-0.59375 0-0.6875 0-0.6875-0.40625v-1.6406c0-0.95312 0.67188-1.4062 1.2344-1.4062 0.53125 0 0.64062 0.4375 0.64062 0.96875v2.0781c0 0.40625-0.09375 0.40625-0.6875 0.40625v0.28125c0.42188-0.015625 0.59375-0.03125 1.0312-0.03125 0.42188 0 0.54688 0.015625 1.0156 0.03125v-0.28125c-0.45312 0-0.6875 0-0.6875-0.28125v-1.7188c0-0.73438 0-1-0.25-1.3125-0.20312-0.25-0.54688-0.375-1-0.375-0.59375 0-1.0469 0.3125-1.3125 0.82812h-0.015625z"/>
</g>
<g id="d">
<path d="m3.5938-2.0469c0.1875 0 0.23438 0 0.23438-0.20312 0-0.92188-0.5-1.7656-1.6562-1.7656-1.0625 0-1.9062 0.9375-1.9062 2.0469 0 1.1719 0.9375 2.0625 2.0312 2.0625s1.5312-0.95312 1.5312-1.1562c0-0.0625-0.046875-0.125-0.125-0.125-0.09375 0-0.10938 0.0625-0.125 0.10938-0.29688 0.90625-1.1094 0.92188-1.2344 0.92188-0.4375 0-0.79688-0.23438-1-0.54688-0.29688-0.4375-0.3125-0.96875-0.3125-1.3438zm-2.5469-0.21875c0.078125-1.3906 0.875-1.5312 1.125-1.5312 0.5 0 1.0312 0.375 1.0469 1.5312z"/>
</g>
<g id="c">
<path d="m1.5938-2.0469c0-0.375 0.09375-1.6875 1.125-1.6875-0.015625 0.015625-0.15625 0.125-0.15625 0.32812 0 0.25 0.1875 0.40625 0.39062 0.40625 0.1875 0 0.39062-0.14062 0.39062-0.40625 0-0.28125-0.26562-0.5625-0.67188-0.5625-0.53125 0-0.90625 0.375-1.125 0.9375v-0.9375l-1.2812 0.10938v0.26562c0.60938 0 0.6875 0.0625 0.6875 0.51562v2.3906c0 0.40625-0.09375 0.40625-0.6875 0.40625v0.28125c0.48438-0.015625 0.59375-0.03125 1.0469-0.03125 0.35938 0 0.57812 0.015625 1.1406 0.03125v-0.28125h-0.17188c-0.65625 0-0.6875-0.09375-0.6875-0.42188z"/>
</g>
<g id="a">
<path d="m1.6719-2.3281c0-0.95312 0.67188-1.4062 1.2344-1.4062 0.53125 0 0.64062 0.4375 0.64062 0.96875v2.0781c0 0.40625-0.09375 0.40625-0.6875 0.40625v0.28125c0.42188-0.015625 0.59375-0.03125 1.0312-0.03125 0.42188 0 0.54688 0.015625 1.0156 0.03125v-0.28125c-0.45312 0-0.6875 0-0.6875-0.28125v-1.7188c0-0.73438 0-1-0.25-1.3125-0.20312-0.25-0.54688-0.375-1-0.375-0.82812 0-1.2188 0.625-1.3438 0.875h-0.015625v-0.875l-1.2969 0.10938v0.26562c0.60938 0 0.6875 0.0625 0.6875 0.51562v2.3906c0 0.40625-0.09375 0.40625-0.6875 0.40625v0.28125c0.42188-0.015625 0.59375-0.03125 1.0312-0.03125 0.42188 0 0.54688 0.015625 1.0156 0.03125v-0.28125c-0.59375 0-0.6875 0-0.6875-0.40625z"/>
</g>
<g id="aw">
<path d="m1.9219-5.4062c-0.03125-0.10938-0.03125-0.15625-0.03125-0.17188 0-0.26562 0.45312-0.26562 0.70312-0.26562v-0.28125c-0.39062 0.03125-0.85938 0.03125-1.2656 0.03125-0.375 0-0.51562-0.015625-1.1562-0.03125v0.28125c0.65625 0 0.76562 0.03125 0.89062 0.34375l2.1719 5.5c0.046875 0.14062 0.078125 0.20312 0.21875 0.20312s0.17188-0.0625 0.21875-0.1875l2.0781-5.2656c0.1875-0.46875 0.5625-0.59375 0.98438-0.59375v-0.28125c-0.32812 0.03125-0.57812 0.03125-0.89062 0.03125-0.375 0-0.5625-0.015625-1-0.03125v0.28125c0.4375 0 0.64062 0.21875 0.64062 0.4375 0 0.078125-0.015625 0.09375-0.046875 0.1875l-1.7188 4.3438z"/>
</g>
<g id="o">
<path d="m1.6719-2.3281c0-0.96875 0.70312-1.4062 1.2344-1.4062 0.5 0 0.65625 0.34375 0.65625 0.96875v2.0781c0 0.40625-0.09375 0.40625-0.6875 0.40625v0.28125c0.42188-0.015625 0.59375-0.03125 1.0156-0.03125 0.4375 0 0.54688 0.015625 1.0312 0.03125v-0.28125c-0.59375 0-0.70312 0-0.70312-0.40625v-1.6406c0-0.96875 0.70312-1.4062 1.25-1.4062 0.48438 0 0.64062 0.34375 0.64062 0.96875v2.0781c0 0.40625-0.09375 0.40625-0.6875 0.40625v0.28125c0.42188-0.015625 0.59375-0.03125 1.0312-0.03125 0.42188 0 0.54688 0.015625 1.0156 0.03125v-0.28125c-0.45312 0-0.67188 0-0.6875-0.28125v-1.7188c0-0.78125 0-1.0312-0.29688-1.3594-0.1875-0.21875-0.54688-0.32812-0.95312-0.32812-0.65625 0-1.0938 0.375-1.3438 0.85938-0.10938-0.53125-0.46875-0.85938-1.2188-0.85938-0.71875 0-1.1562 0.46875-1.3438 0.89062h-0.015625v-0.89062l-1.2969 0.10938v0.26562c0.60938 0 0.6875 0.0625 0.6875 0.51562v2.3906c0 0.40625-0.09375 0.40625-0.6875 0.40625v0.28125c0.42188-0.015625 0.59375-0.03125 1.0312-0.03125 0.42188 0 0.54688 0.015625 1.0156 0.03125v-0.28125c-0.59375 0-0.6875 0-0.6875-0.40625z"/>
</g>
<g id="h">
<path d="m1.6562-3.9688-1.2969 0.10938v0.26562c0.57812 0 0.65625 0.0625 0.65625 0.5v2.4062c0 0.40625-0.09375 0.40625-0.6875 0.40625v0.28125c0.39062-0.015625 0.59375-0.03125 0.98438-0.03125 0.14062 0 0.51562 0 0.95312 0.03125v-0.28125c-0.57812 0-0.60938-0.046875-0.60938-0.39062zm0.015625-1.5625c0-0.26562-0.20312-0.48438-0.48438-0.48438-0.26562 0-0.48438 0.23438-0.48438 0.48438 0 0.26562 0.21875 0.48438 0.48438 0.48438 0.28125 0 0.48438-0.20312 0.48438-0.48438z"/>
</g>
<g id="t">
<path d="m1.6562-6.2188-1.3281 0.09375v0.28125c0.60938 0 0.6875 0.0625 0.6875 0.5v4.6562c0 0.40625-0.09375 0.40625-0.6875 0.40625v0.28125c0.42188-0.015625 0.59375-0.03125 1-0.03125 0.42188 0 0.57812 0.015625 1.0156 0.03125v-0.28125c-0.59375 0-0.6875 0-0.6875-0.40625z"/>
</g>
<g id="n">
<path d="m3.5469-1.5c0 0.79688-0.4375 1.375-1.0938 1.375-0.73438 0-0.78125-0.39062-0.78125-0.875v-2.9688l-1.3594 0.10938v0.26562c0.6875 0 0.6875 0.03125 0.6875 0.82812v1.3438c0 0.59375 0 0.96875 0.42188 1.2812 0.25 0.17188 0.625 0.23438 0.98438 0.23438 0.46875 0 0.90625-0.20312 1.1562-0.73438h0.015625v0.73438l1.3281-0.09375v-0.28125c-0.60938 0-0.6875-0.0625-0.6875-0.5v-3.1875l-1.3594 0.10938v0.26562c0.60938 0 0.6875 0.0625 0.6875 0.51562z"/>
</g>
<g id="l">
<path d="m1.125-1.6094c0.21875 0.14062 0.5 0.28125 0.90625 0.28125 0.85938 0 1.5-0.60938 1.5-1.3125 0-0.4375-0.25-0.75-0.35938-0.875 0.35938-0.32812 0.78125-0.32812 0.875-0.32812-0.03125 0.03125-0.10938 0.078125-0.10938 0.23438 0 0.10938 0.0625 0.26562 0.26562 0.26562 0.125 0 0.26562-0.078125 0.26562-0.26562 0-0.17188-0.125-0.45312-0.48438-0.45312-0.25 0-0.65625 0.09375-0.96875 0.42188-0.25-0.20312-0.59375-0.32812-0.96875-0.32812-0.85938 0-1.5 0.60938-1.5 1.3281 0 0.45312 0.26562 0.78125 0.40625 0.90625-0.015625 0.015625-0.26562 0.32812-0.26562 0.75 0 0.29688 0.14062 0.625 0.39062 0.78125-0.45312 0.15625-0.8125 0.48438-0.8125 0.90625 0 0.64062 0.875 1.1406 2.0312 1.1406 1.1094 0 2.0469-0.46875 2.0469-1.1562 0-0.375-0.17188-0.76562-0.5-0.98438-0.5-0.3125-1.0312-0.3125-1.875-0.3125-0.1875 0-0.46875 0-0.54688-0.015625-0.25-0.0625-0.42188-0.29688-0.42188-0.57812 0-0.15625 0.046875-0.28125 0.125-0.40625zm0.90625 0.046875c-0.79688 0-0.79688-0.89062-0.79688-1.0781 0-0.25 0.015625-0.54688 0.17188-0.76562 0.14062-0.1875 0.375-0.3125 0.625-0.3125 0.8125 0 0.8125 0.85938 0.8125 1.0781 0 0.20312 0 1.0781-0.8125 1.0781zm0.42188 1.5156c0.28125 0 1.3906 0.015625 1.3906 0.73438 0 0.51562-0.70312 0.92188-1.5312 0.92188-0.89062 0-1.5469-0.42188-1.5469-0.92188 0-0.14062 0.09375-0.73438 0.85938-0.73438z"/>
</g>
<g id="v">
<path d="m3.6719-6.2344c-0.046875-0.10938-0.078125-0.1875-0.21875-0.1875s-0.15625 0.046875-0.21875 0.20312l-1.9219 5.3281c-0.10938 0.29688-0.3125 0.60938-1 0.60938v0.28125c0.32812-0.03125 0.57812-0.03125 0.90625-0.03125 0.3125 0 0.51562 0.015625 1.0156 0.03125v-0.28125c-0.51562 0-0.67188-0.28125-0.67188-0.45312 0-0.078125 0.03125-0.125 0.046875-0.17188l0.42188-1.1562h2.3125l0.48438 1.3594c0.046875 0.078125 0.046875 0.10938 0.046875 0.15625 0 0.26562-0.5 0.26562-0.73438 0.26562v0.28125c0.40625-0.03125 0.875-0.03125 1.2812-0.03125s0.4375 0 1.1719 0.03125v-0.28125h-0.14062c-0.5625 0-0.65625-0.078125-0.75-0.32812zm0.57812 3.8906h-2.125l1.0625-2.9375z"/>
</g>
<g id="y">
<path d="m5.7188-3c0.1875-0.54688 0.5625-0.57812 0.75-0.59375v-0.26562c-0.35938 0.015625-0.375 0.015625-0.67188 0.015625-0.34375 0-0.46875 0-0.82812-0.015625v0.26562c0.39062 0.015625 0.51562 0.25 0.51562 0.4375 0 0.09375-0.015625 0.14062-0.046875 0.20312l-0.82812 2.25-0.90625-2.4688c-0.046875-0.10938-0.046875-0.14062-0.046875-0.17188 0-0.21875 0.28125-0.25 0.51562-0.25v-0.26562c-0.40625 0.015625-0.78125 0.015625-0.92188 0.015625-0.28125 0-0.54688 0-0.82812-0.015625v0.26562c0.28125 0 0.46875 0.015625 0.5625 0.14062 0.078125 0.09375 0.20312 0.45312 0.20312 0.48438 0 0.015625-0.046875 0.10938-0.046875 0.125l-0.73438 2.0156-0.85938-2.3281c-0.046875-0.14062-0.046875-0.15625-0.046875-0.1875 0-0.25 0.34375-0.25 0.51562-0.25v-0.26562c-0.40625 0.015625-0.60938 0.015625-0.96875 0.015625-0.29688 0-0.5625 0-0.875-0.015625v0.26562c0.4375 0 0.54688 0.03125 0.65625 0.32812l1.1562 3.1719c0.046875 0.10938 0.078125 0.1875 0.21875 0.1875 0.125 0 0.17188-0.09375 0.20312-0.1875l0.90625-2.5 0.9375 2.5c0.03125 0.09375 0.0625 0.1875 0.20312 0.1875 0.125 0 0.15625-0.078125 0.1875-0.17188z"/>
</g>
<g id="ai">
<path d="m3.4844-1.0781c0 0.15625 0 0.1875-0.125 0.375-0.28125 0.40625-0.70312 0.57812-1.0469 0.57812-0.39062 0-0.75-0.21875-0.98438-0.59375-0.23438-0.39062-0.25-0.90625-0.25-1.2031 0-0.42188 0.046875-0.89062 0.28125-1.25 0.20312-0.29688 0.5625-0.5625 1.0469-0.5625 0.375 0 0.73438 0.1875 0.96875 0.53125 0.10938 0.14062 0.10938 0.14062 0.10938 0.3125zm0.03125-2.3594c-0.046875-0.046875-0.45312-0.53125-1.1406-0.53125-1.1094 0-2.0625 0.89062-2.0625 2.0469 0 1.1094 0.89062 2.0156 1.9531 2.0156 0.65625 0 1.0625-0.375 1.2188-0.5625v0.5625l1.3594-0.09375v-0.28125c-0.60938 0-0.6875-0.0625-0.6875-0.5v-5.4375l-1.3281 0.09375v0.28125c0.60938 0 0.6875 0.0625 0.6875 0.5z"/>
</g>
<g id="u">
<path d="m2.0312-3.75c-0.71875-0.17188-0.95312-0.75-0.95312-1.1406 0-0.60938 0.48438-1.1875 1.25-1.1875 1.1562 0 1.625 0.875 1.75 1.7656 0.015625 0.17188 0.03125 0.21875 0.14062 0.21875 0.125 0 0.125-0.0625 0.125-0.25v-1.7344c0-0.17188 0-0.25-0.10938-0.25-0.0625 0-0.078125 0.015625-0.14062 0.125-0.10938 0.15625-0.015625 0.046875-0.3125 0.51562-0.15625-0.1875-0.625-0.64062-1.4688-0.64062-1.0469 0-1.7969 0.82812-1.7969 1.7344 0 0.70312 0.42188 1.125 0.46875 1.1719 0.39062 0.40625 0.5625 0.4375 1.625 0.70312 0.73438 0.15625 0.8125 0.1875 1.1094 0.48438 0 0.015625 0.3125 0.34375 0.3125 0.875 0 0.60938-0.4375 1.2812-1.2656 1.2812-0.6875 0-1.9375-0.29688-2-1.7656-0.015625-0.14062-0.015625-0.1875-0.125-0.1875-0.125 0-0.125 0.0625-0.125 0.25v1.7344c0 0.17188 0 0.25 0.10938 0.25 0.0625 0 0.0625-0.015625 0.125-0.125 0.125-0.15625 0.03125-0.046875 0.32812-0.51562 0.54688 0.54688 1.2656 0.64062 1.7031 0.64062 1.0938 0 1.8125-0.90625 1.8125-1.8594 0-0.51562-0.1875-0.90625-0.39062-1.1719-0.39062-0.5-0.79688-0.59375-1.375-0.73438z"/>
</g>
<g id="k">
<path d="m3.2656-3.5312c-0.1875 0.046875-0.375 0.17188-0.375 0.42188 0 0.23438 0.1875 0.42188 0.42188 0.42188s0.42188-0.15625 0.42188-0.4375c0-0.54688-0.625-0.89062-1.4219-0.89062-1.1406 0-2 0.95312-2 2.0781 0 1.1562 0.92188 2.0312 1.9844 2.0312 1.25 0 1.5312-1.0781 1.5312-1.1562 0-0.10938-0.09375-0.10938-0.125-0.10938-0.09375 0-0.09375 0.015625-0.15625 0.17188-0.20312 0.60938-0.70312 0.84375-1.1562 0.84375-0.57812 0-1.3125-0.46875-1.3125-1.7969 0-1.3906 0.71875-1.8125 1.25-1.8125 0.125 0 0.60938 0.015625 0.9375 0.23438z"/>
</g>
<g id="ah">
<path d="m2.0312-5.4844c0-0.29688 0.015625-0.35938 0.4375-0.35938h1.1719c0.875 0 1.25 0.70312 1.25 1.2344 0 0.6875-0.60938 1.3125-1.4531 1.3125h-1.4062zm2.2031 2.2812c0.89062-0.17188 1.5156-0.75 1.5156-1.4062 0-0.79688-0.85938-1.5156-2.0469-1.5156h-3.3281v0.28125h0.20312c0.6875 0 0.70312 0.09375 0.70312 0.42188v4.7188c0 0.32812-0.015625 0.42188-0.70312 0.42188h-0.20312v0.28125h3.5781c1.2188 0 2.0625-0.79688 2.0625-1.625 0-0.8125-0.78125-1.4688-1.7812-1.5781zm-1.7656 2.9219c-0.42188 0-0.4375-0.0625-0.4375-0.35938v-2.4375h1.7031c1.0312 0 1.3906 0.875 1.3906 1.4219 0 0.70312-0.54688 1.375-1.4688 1.375z"/>
</g>
<g id="av">
<path d="m1.8594-5.5469c0-0.25-0.20312-0.46875-0.45312-0.46875s-0.45312 0.21875-0.45312 0.46875 0.20312 0.45312 0.45312 0.45312 0.45312-0.20312 0.45312-0.45312zm1.7969 0c0-0.25-0.21875-0.46875-0.46875-0.46875s-0.45312 0.21875-0.45312 0.46875 0.20312 0.45312 0.45312 0.45312 0.46875-0.20312 0.46875-0.45312z"/>
</g>
<g id="ag">
<path d="m1.625-2.8594c0-0.17188 0-0.1875 0.09375-0.32812 0.3125-0.40625 0.75-0.54688 1.0938-0.54688 0.375 0 0.73438 0.20312 0.96875 0.59375 0.23438 0.375 0.25 0.90625 0.25 1.1875 0 0.42188-0.046875 0.90625-0.28125 1.2656-0.20312 0.28125-0.5625 0.5625-1.0469 0.5625-0.39062 0-0.73438-0.21875-0.95312-0.54688-0.125-0.1875-0.125-0.20312-0.125-0.375zm-0.078125 2.3125c0.28125 0.39062 0.71875 0.64062 1.2031 0.64062 1.0781 0 2.0625-0.85938 2.0625-2.0312 0-1.125-0.89062-2.0312-1.9688-2.0312-0.60938 0-1.0312 0.3125-1.25 0.5625v-2.8125l-1.3281 0.09375v0.28125c0.60938 0 0.6875 0.0625 0.6875 0.5v5.3438h0.25z"/>
</g>
<g id="e">
<path d="m3.0625-0.64062c0.046875 0.375 0.3125 0.6875 0.70312 0.6875 0.21875 0 0.78125-0.125 0.78125-0.84375v-0.5h-0.25v0.48438c0 0.10938 0 0.54688-0.32812 0.54688-0.3125 0-0.3125-0.42188-0.3125-0.5625v-1.5781c0-0.51562 0-0.8125-0.40625-1.1875-0.32812-0.29688-0.76562-0.42188-1.2188-0.42188-0.75 0-1.375 0.375-1.375 0.95312 0 0.26562 0.1875 0.42188 0.42188 0.42188s0.40625-0.17188 0.40625-0.40625c0-0.39062-0.39062-0.4375-0.40625-0.4375 0.25-0.23438 0.6875-0.3125 0.9375-0.3125 0.45312 0 0.96875 0.34375 0.96875 1.1406v0.28125c-0.48438 0.03125-1.1562 0.0625-1.75 0.35938-0.65625 0.3125-0.84375 0.78125-0.84375 1.1406 0 0.73438 0.85938 0.96875 1.4688 0.96875 0.73438 0 1.0781-0.48438 1.2031-0.73438zm-0.078125-0.625c0 0.875-0.67188 1.1406-1.0625 1.1406-0.42188 0-0.8125-0.3125-0.8125-0.75 0-0.59375 0.5-1.2188 1.875-1.2812z"/>
</g>
<g id="s">
<path d="m1.625-3.0156c0.29688-0.51562 0.79688-0.70312 1.1719-0.70312 0.70312 0 1.2344 0.8125 1.2344 1.7812 0 1.0156-0.60938 1.8125-1.3281 1.8125-0.40625 0-0.75-0.23438-0.96875-0.54688-0.10938-0.1875-0.10938-0.20312-0.10938-0.375zm0 2.5781c0.23438 0.23438 0.53125 0.53125 1.125 0.53125 1.0781 0 2.0625-0.85938 2.0625-2.0312 0-1.125-0.89062-2.0312-1.9375-2.0312-0.48438 0-0.9375 0.20312-1.2812 0.5625v-0.5625l-1.3281 0.10938v0.26562c0.64062 0 0.6875 0.0625 0.6875 0.45312v4.1875c0 0.42188-0.09375 0.42188-0.6875 0.42188v0.26562c0.42188-0.015625 0.59375-0.015625 1.0312-0.015625 0.42188 0 0.54688 0 1.0156 0.015625v-0.26562c-0.59375 0-0.6875 0-0.6875-0.42188z"/>
</g>
<g id="g">
<path d="m4.3438-1.9062c0-1.1719-0.9375-2.1094-2.0312-2.1094-1.1406 0-2.0469 0.95312-2.0469 2.1094 0 1.1094 0.92188 2 2.0312 2 1.1406 0 2.0469-0.90625 2.0469-2zm-2.0312 1.75c-0.45312 0-0.82812-0.21875-1.0312-0.5625-0.23438-0.39062-0.25-0.85938-0.25-1.2656 0-0.34375 0-0.84375 0.21875-1.2188 0.28125-0.45312 0.71875-0.59375 1.0469-0.59375 0.51562 0 0.875 0.29688 1.0625 0.59375 0.20312 0.375 0.20312 0.82812 0.20312 1.2188 0 0.32812 0 0.84375-0.21875 1.2344-0.25 0.42188-0.65625 0.59375-1.0312 0.59375z"/>
</g>
<g id="j">
<path d="m3.0781-3.7812c0-0.15625 0-0.23438-0.09375-0.23438-0.046875 0-0.0625 0-0.1875 0.10938-0.015625 0.015625-0.09375 0.09375-0.15625 0.14062-0.26562-0.20312-0.54688-0.25-0.85938-0.25-1.1875 0-1.4688 0.65625-1.4688 1.1094 0 0.28125 0.125 0.51562 0.32812 0.71875 0.29688 0.28125 0.64062 0.34375 1.0938 0.42188 0.46875 0.09375 0.60938 0.10938 0.8125 0.26562 0.09375 0.078125 0.3125 0.25 0.3125 0.57812 0 0.79688-0.90625 0.79688-1.0312 0.79688-0.90625 0-1.1406-0.76562-1.25-1.25-0.03125-0.09375-0.046875-0.14062-0.14062-0.14062-0.125 0-0.125 0.078125-0.125 0.23438v1.1406c0 0.15625 0 0.23438 0.09375 0.23438 0.0625 0 0.0625 0 0.23438-0.17188 0.03125-0.0625 0.125-0.17188 0.17188-0.21875 0.375 0.375 0.79688 0.39062 1.0156 0.39062 1.1094 0 1.4844-0.64062 1.4844-1.2344 0-0.40625-0.17188-0.65625-0.375-0.85938-0.29688-0.29688-0.625-0.35938-1.2812-0.48438-0.23438-0.046875-0.89062-0.15625-0.89062-0.67188 0-0.28125 0.20312-0.67188 1.0156-0.67188 0.96875 0 1.0312 0.75 1.0469 0.96875 0.015625 0.10938 0.015625 0.17188 0.125 0.17188 0.125 0 0.125-0.0625 0.125-0.23438z"/>
</g>
<g id="x">
<path d="m2.1094-6.0156c-0.0625-0.10938-0.09375-0.10938-0.26562-0.10938h-1.5v0.28125h0.25c0.42188 0 0.65625 0.0625 0.65625 0.0625v4.8281c0 0.25 0 0.67188-0.90625 0.67188v0.28125c0.48438-0.015625 0.60938-0.03125 1.0625-0.03125 0.42188 0 0.5625 0.015625 1.0469 0.03125v-0.28125c-0.92188 0-0.92188-0.42188-0.92188-0.67188v-4.625l3.8125 5.4688c0.078125 0.10938 0.125 0.10938 0.15625 0.10938 0.15625 0 0.15625-0.078125 0.15625-0.23438v-4.9375c0-0.25 0-0.67188 0.90625-0.67188v-0.28125c-0.48438 0.015625-0.60938 0.03125-1.0469 0.03125s-0.5625-0.015625-1.0625-0.03125v0.28125c0.92188 0 0.92188 0.42188 0.92188 0.67188v3.8281z"/>
</g>
<g id="r">
<path d="m1.5938-1.9531v-4.2656l-1.3281 0.09375v0.28125c0.60938 0 0.6875 0.0625 0.6875 0.5v4.6562c0 0.40625-0.09375 0.40625-0.6875 0.40625v0.28125c0.39062-0.015625 0.625-0.03125 1-0.03125 0.35938 0 0.59375 0.015625 1 0.03125v-0.28125c-0.59375 0-0.70312 0-0.70312-0.40625v-0.90625l0.57812-0.48438 0.875 1.1719c0.14062 0.20312 0.21875 0.3125 0.21875 0.4375 0 0.078125-0.03125 0.1875-0.3125 0.1875v0.28125c0.40625-0.015625 0.625-0.03125 0.96875-0.03125 0.26562 0 0.54688 0 0.8125 0.03125v-0.28125c-0.29688 0-0.51562 0-0.84375-0.4375l-1.2656-1.7344c0.875-0.75 1.2969-1.1094 1.9062-1.1406v-0.26562c-0.32812 0.015625-0.34375 0.015625-0.67188 0.015625-0.26562 0-0.5 0-0.98438-0.015625v0.26562c0.14062 0.015625 0.23438 0.078125 0.23438 0.21875 0 0.17188-0.14062 0.29688-0.21875 0.35938z"/>
</g>
<g id="au">
<path d="m0.9375-3.0938c0 0.15625 0 0.26562 0.125 0.26562 0.0625 0 0.09375-0.046875 0.14062-0.125 0.28125-0.375 0.70312-0.59375 1.1719-0.59375 0.96875 0 0.96875 1.3906 0.96875 1.7031 0 0.28125 0 0.84375-0.26562 1.25-0.23438 0.375-0.60938 0.54688-0.96875 0.54688-0.51562 0-1.125-0.34375-1.3438-1 0.015625 0 0.0625 0.015625 0.125 0.015625 0.1875 0 0.45312-0.10938 0.45312-0.4375 0-0.28125-0.20312-0.4375-0.45312-0.4375-0.1875 0-0.4375 0.10938-0.4375 0.46875 0 0.8125 0.6875 1.6406 1.6875 1.6406 1.0781 0 2-0.89062 2-2 0-1.0781-0.76562-1.9688-1.75-1.9688-0.42188 0-0.85938 0.14062-1.1875 0.46875v-1.7656c0.28125 0.078125 0.5625 0.125 0.82812 0.125 1.1094 0 1.75-0.79688 1.75-0.92188 0-0.078125-0.046875-0.10938-0.09375-0.10938-0.015625 0-0.03125 0-0.125 0.046875-0.42188 0.15625-0.82812 0.23438-1.2031 0.23438-0.39062 0-0.79688-0.078125-1.2031-0.23438-0.09375-0.046875-0.10938-0.046875-0.10938-0.046875-0.10938 0-0.10938 0.078125-0.10938 0.23438z"/>
</g>
<g id="at">
<path d="m0.26562-1.7656v0.28125h2.4375v0.78125c0 0.32812-0.015625 0.42188-0.6875 0.42188h-0.20312v0.28125c0.5625-0.03125 1.1875-0.03125 1.25-0.03125 0.046875 0 0.70312 0 1.2656 0.03125v-0.28125h-0.20312c-0.67188 0-0.70312-0.09375-0.70312-0.42188v-0.78125h0.92188v-0.28125h-0.92188v-4.0625c0-0.1875 0-0.25-0.17188-0.25-0.10938 0-0.10938 0.015625-0.1875 0.14062zm0.28125 0 2.2188-3.3125v3.3125z"/>
</g>
<g id="as">
<path d="m2.7344-3.1562c0.82812-0.3125 1.2344-0.96875 1.2344-1.5938 0-0.6875-0.76562-1.2188-1.7031-1.2188-0.92188 0-1.625 0.53125-1.625 1.2031 0 0.29688 0.1875 0.46875 0.45312 0.46875s0.45312-0.1875 0.45312-0.45312c0-0.3125-0.21875-0.4375-0.53125-0.4375 0.23438-0.375 0.78125-0.5625 1.2344-0.5625 0.73438 0 0.875 0.59375 0.875 1.0156 0 0.26562-0.046875 0.70312-0.26562 1.0469-0.28125 0.39062-0.59375 0.40625-0.85938 0.4375-0.21875 0.015625-0.23438 0.015625-0.3125 0.015625s-0.15625 0.015625-0.15625 0.10938c0 0.125 0.078125 0.125 0.23438 0.125h0.40625c0.78125 0 1.125 0.625 1.125 1.4688 0 1.1562-0.60938 1.4844-1.0625 1.4844-0.17188 0-1.0469-0.046875-1.4375-0.71875 0.3125 0.046875 0.5625-0.17188 0.5625-0.48438 0-0.29688-0.21875-0.48438-0.48438-0.48438-0.21875 0-0.48438 0.14062-0.48438 0.51562 0 0.79688 0.82812 1.4219 1.875 1.4219 1.1094 0 1.9531-0.8125 1.9531-1.7344 0-0.78125-0.625-1.4375-1.4844-1.625z"/>
</g>
<g id="ar">
<path d="m4.1406-1.5938h-0.25c-0.015625 0.125-0.09375 0.65625-0.20312 0.79688-0.0625 0.078125-0.67188 0.078125-0.85938 0.078125h-1.5938l0.89062-0.84375c1.4688-1.2656 2.0156-1.75 2.0156-2.6562 0-1.0312-0.84375-1.75-1.9531-1.75-1.0312 0-1.7344 0.8125-1.7344 1.625 0 0.45312 0.39062 0.5 0.46875 0.5 0.20312 0 0.46875-0.14062 0.46875-0.46875 0-0.26562-0.1875-0.46875-0.46875-0.46875-0.046875 0-0.0625 0-0.10938 0.015625 0.21875-0.64062 0.79688-0.92188 1.2812-0.92188 0.90625 0 1.2188 0.84375 1.2188 1.4688 0 0.90625-0.6875 1.6562-1.1094 2.125l-1.6406 1.7656c-0.10938 0.10938-0.10938 0.125-0.10938 0.32812h3.4375z"/>
</g>
<g id="af">
<path d="m5.3594-2.3125h-0.25c-0.09375 0.90625-0.21875 2.0312-1.8281 2.0312h-0.78125c-0.42188 0-0.4375-0.0625-0.4375-0.35938v-4.7656c0-0.32812 0.03125-0.4375 0.85938-0.4375h0.28125v-0.28125c-0.3125 0.03125-1.125 0.03125-1.4844 0.03125-0.42188 0-0.96875 0-1.375-0.03125v0.28125h0.20312c0.6875 0 0.70312 0.09375 0.70312 0.42188v4.7188c0 0.32812-0.015625 0.42188-0.70312 0.42188h-0.20312v0.28125h4.7656z"/>
</g>
<g id="ae">
<path d="m1.625-3.1719c-0.046875-0.125-0.046875-0.17188-0.046875-0.1875 0-0.23438 0.3125-0.23438 0.5-0.23438v-0.26562c-0.45312 0.015625-0.625 0.015625-1 0.015625-0.03125 0-0.54688 0-0.89062-0.015625v0.26562c0.40625 0 0.57812 0.03125 0.6875 0.26562l1.4062 3.3281-0.21875 0.53125c-0.20312 0.46875-0.45312 1.0781-1.0469 1.0781-0.21875 0-0.375-0.10938-0.39062-0.125 0.0625-0.015625 0.3125-0.078125 0.3125-0.39062 0-0.23438-0.17188-0.375-0.375-0.375-0.21875 0-0.39062 0.14062-0.39062 0.39062 0 0.39062 0.39062 0.73438 0.84375 0.73438 0.59375 0 0.96875-0.53125 1.1875-1.0156l1.625-3.7969c0.09375-0.23438 0.26562-0.59375 0.82812-0.625v-0.26562c-0.28125 0.015625-0.5625 0.015625-0.67188 0.015625-0.25 0-0.53125 0-0.78125-0.015625v0.26562c0.40625 0.03125 0.40625 0.34375 0.40625 0.39062 0 0.09375-0.03125 0.1875-0.0625 0.25l-0.90625 2.1406z"/>
</g>
<g id="aq">
<path d="m2.0469-3.1719v-2.3125c0-0.23438 0.03125-0.3125 0.20312-0.34375 0.078125-0.015625 0.35938-0.015625 0.54688-0.015625 0.76562 0 1.9062 0 1.9062 1.3281 0 0.78125-0.39062 1.3438-1.6094 1.3438zm2.0312 0.125c0.84375-0.23438 1.5469-0.76562 1.5469-1.4688 0-0.89062-1.0938-1.6094-2.4062-1.6094h-2.8594v0.28125h0.20312c0.6875 0 0.71875 0.09375 0.71875 0.42188v4.7188c0 0.32812-0.03125 0.42188-0.71875 0.42188h-0.20312v0.28125c0.42188-0.03125 0.875-0.03125 1.2969-0.03125 0.4375 0 0.875 0 1.3125 0.03125v-0.28125h-0.20312c-0.6875 0-0.71875-0.09375-0.71875-0.42188v-2.25h1.0781c0.65625 0 0.9375 0.34375 0.96875 0.375 0.28125 0.32812 0.28125 0.46875 0.28125 1.1094 0 0.59375 0 1 0.42188 1.3281 0.42188 0.34375 0.96875 0.34375 1.0625 0.34375 0.75 0 0.89062-0.78125 0.89062-1 0-0.0625 0-0.15625-0.125-0.15625s-0.125 0.078125-0.125 0.14062c-0.046875 0.57812-0.32812 0.78125-0.60938 0.78125s-0.39062-0.17188-0.45312-0.32812c-0.078125-0.20312-0.15625-0.8125-0.21875-1.2031-0.078125-0.5625-0.15625-1.1562-1.1406-1.4844z"/>
</g>
<g id="ad">
<path d="m4.8438-3.3281h-2.7812v-2.0938c0-0.32812 0.015625-0.42188 0.70312-0.42188h0.21875v-0.28125c-0.40625 0.03125-0.90625 0.03125-1.3281 0.03125-0.40625 0-0.90625 0-1.3125-0.03125v0.28125h0.20312c0.6875 0 0.70312 0.09375 0.70312 0.42188v4.7188c0 0.32812-0.015625 0.42188-0.70312 0.42188h-0.20312v0.28125c0.40625-0.03125 0.90625-0.03125 1.3125-0.03125 0.42188 0 0.92188 0 1.3281 0.03125v-0.28125h-0.21875c-0.6875 0-0.70312-0.09375-0.70312-0.42188v-2.3438h2.7812v2.3438c0 0.32812-0.015625 0.42188-0.70312 0.42188h-0.21875v0.28125c0.40625-0.03125 0.90625-0.03125 1.3281-0.03125 0.40625 0 0.90625 0 1.3125 0.03125v-0.28125h-0.20312c-0.6875 0-0.70312-0.09375-0.70312-0.42188v-4.7188c0-0.32812 0.015625-0.42188 0.70312-0.42188h0.20312v-0.28125c-0.40625 0.03125-0.90625 0.03125-1.3125 0.03125-0.42188 0-0.92188 0-1.3281-0.03125v0.28125h0.21875c0.6875 0 0.70312 0.09375 0.70312 0.42188z"/>
</g>
<g id="ac">
<path d="m6.4062-5.8281v5.125c0 0.32812-0.015625 0.42188-0.70312 0.42188h-0.20312v0.28125c0.53125-0.03125 1.1406-0.03125 1.2656-0.03125 0.0625 0 0.71875 0 1.2812 0.03125v-0.28125h-0.20312c-0.6875 0-0.70312-0.09375-0.70312-0.42188v-4.7188c0-0.32812 0.015625-0.42188 0.70312-0.42188h0.20312v-0.28125h-1.5c-0.1875 0-0.25 0-0.3125 0.15625l-2.0156 5.0938-2-5.0469c-0.078125-0.1875-0.078125-0.20312-0.32812-0.20312h-1.5v0.28125h0.20312c0.6875 0 0.70312 0.09375 0.70312 0.42188v4.4688c0 0.25 0 0.67188-0.90625 0.67188v0.28125c0.48438-0.015625 0.60938-0.03125 1.0469-0.03125s0.57812 0.015625 1.0625 0.03125v-0.28125c-0.92188 0-0.92188-0.42188-0.92188-0.67188v-4.7969l0.015625-0.015625 2.2031 5.5625c0.046875 0.125 0.078125 0.20312 0.1875 0.20312 0.09375 0 0.14062-0.078125 0.17188-0.15625z"/>
</g>
<g id="ap">
<path d="m5.375-6.0938h-5.0312v0.26562h0.20312c0.6875 0 0.70312 0.10938 0.70312 0.4375v4.6875c0 0.32812-0.015625 0.42188-0.70312 0.42188h-0.20312v0.28125c0.40625-0.03125 0.95312-0.03125 1.375-0.03125 0.35938 0 1.1719 0 1.4844 0.03125v-0.28125h-0.28125c-0.82812 0-0.85938-0.10938-0.85938-0.4375v-2.2031h0.8125c0.85938 0 0.96875 0.29688 0.96875 1.0625h0.25v-2.3906h-0.25c0 0.76562-0.10938 1.0625-0.96875 1.0625h-0.8125v-2.2656c0-0.3125 0.015625-0.375 0.4375-0.375h1.125c1.375 0 1.6094 0.51562 1.75 1.75h0.25z"/>
</g>
<g id="ao">
<path d="m3.0625 2.1406c0-0.046875-0.03125-0.078125-0.078125-0.14062-1.1562-1.0625-1.5156-2.6719-1.5156-4.25 0-1.375 0.26562-3.0625 1.5312-4.2656 0.046875-0.046875 0.0625-0.0625 0.0625-0.10938 0-0.0625-0.046875-0.10938-0.10938-0.10938-0.10938 0-0.92188 0.65625-1.4062 1.625-0.42188 0.85938-0.64062 1.7969-0.64062 2.8594 0 0.64062 0.078125 1.6719 0.57812 2.7188 0.53125 1.1094 1.3594 1.7656 1.4688 1.7656 0.0625 0 0.10938-0.03125 0.10938-0.09375z"/>
</g>
<g id="ab">
<path d="m3.5938-3.5781c0.078125-0.09375 0.078125-0.10938 0.078125-0.15625 0-0.125-0.078125-0.125-0.23438-0.125h-2.9531l-0.09375 1.4688h0.25c0.046875-0.92188 0.21875-1.25 1.2188-1.25h1.0156l-2.5312 3.3281c-0.078125 0.10938-0.078125 0.125-0.078125 0.17188 0 0.14062 0.078125 0.14062 0.23438 0.14062h3.0469l0.15625-1.7031h-0.25c-0.09375 1-0.20312 1.4531-1.3281 1.4531h-1.0469z"/>
</g>
<g id="aa">
<path d="m1.7656-0.48438c0-0.26562-0.21875-0.48438-0.48438-0.48438-0.28125 0-0.48438 0.21875-0.48438 0.48438s0.20312 0.48438 0.48438 0.48438c0.26562 0 0.48438-0.21875 0.48438-0.48438z"/>
</g>
<g id="an">
<path d="m2.6719-2.25c0-0.73438-0.10938-1.7188-0.57812-2.7188-0.53125-1.1094-1.3594-1.7656-1.4688-1.7656-0.09375 0-0.10938 0.078125-0.10938 0.10938 0 0.046875 0.015625 0.0625 0.078125 0.125 0.53125 0.46875 1.5156 1.6875 1.5156 4.25 0 1.2812-0.23438 3.0625-1.5312 4.2812-0.015625 0.015625-0.0625 0.0625-0.0625 0.10938 0 0.015625 0.015625 0.09375 0.10938 0.09375 0.10938 0 0.92188-0.64062 1.4062-1.625 0.42188-0.85938 0.64062-1.7812 0.64062-2.8594z"/>
</g>
<g id="am">
<path d="m5.375-5.2969c0.5625-0.53125 1.125-0.54688 1.2656-0.54688v-0.28125c-0.25 0.03125-0.70312 0.03125-0.79688 0.03125-0.375 0-0.70312-0.015625-1.1094-0.03125v0.28125c0.25 0 0.39062 0.125 0.39062 0.29688 0 0.0625-0.03125 0.14062-0.078125 0.20312l-2.9844 2.7656v-2.8438c0-0.32812 0.015625-0.42188 0.70312-0.42188h0.21875v-0.28125c-0.40625 0.03125-0.90625 0.03125-1.3281 0.03125-0.40625 0-0.90625 0-1.3125-0.03125v0.28125h0.20312c0.6875 0 0.70312 0.09375 0.70312 0.42188v4.7188c0 0.32812-0.015625 0.42188-0.70312 0.42188h-0.20312v0.28125c0.40625-0.03125 0.90625-0.03125 1.3125-0.03125 0.42188 0 0.92188 0 1.3281 0.03125v-0.28125h-0.21875c-0.6875 0-0.70312-0.09375-0.70312-0.42188v-1.5469l1.0938-1 1.6719 2.375c0.078125 0.10938 0.15625 0.23438 0.15625 0.34375 0 0.25-0.34375 0.25-0.51562 0.25v0.28125c0.40625-0.03125 0.84375-0.03125 1.25-0.03125 0.23438 0 0.59375 0 1.0469 0.03125v-0.28125c-0.5625 0-0.6875-0.078125-0.96875-0.48438l-2.1094-2.9844z"/>
</g>
<clipPath id="bc">
<path d="m0.52734 85h369.47v1h-369.47z"/>
</clipPath>
<clipPath id="bb">
<path d="m0.52734 42h369.47v1h-369.47z"/>
</clipPath>
<clipPath id="ba">
<path d="m0.52734 63h369.47v2h-369.47z"/>
</clipPath>
<clipPath id="az">
<path d="m0.52734 21h369.47v107h-369.47z"/>
</clipPath>
<clipPath id="ay">
<path d="m0.52734 106h369.47v1h-369.47z"/>
</clipPath>
</defs>
<g clip-path="url(#bc)">
<path transform="matrix(.1 0 0 -.1 .528 128.03)" d="m3.8606 428.37h3685.5" fill="none" stroke="#000" stroke-miterlimit="10" stroke-width="2.3625"/>
</g>
<g clip-path="url(#bb)">
<path transform="matrix(.1 0 0 -.1 .528 128.03)" d="m3.8606 853.64h3685.5" fill="none" stroke="#000" stroke-miterlimit="10" stroke-width="2.3625"/>
</g>
<g clip-path="url(#ba)">
<path transform="matrix(.1 0 0 -.1 .528 128.03)" d="m3.8606 640.98h3685.5" fill="none" stroke="#000" stroke-miterlimit="10" stroke-width="2.3625"/>
</g>
<path transform="matrix(.1 0 0 -.1 .528 128.03)" d="m145.62 1066.3v-1063.1" fill="none" stroke="#000" stroke-miterlimit="10" stroke-width="2.3625"/>
<path transform="matrix(.1 0 0 -.1 .528 128.03)" d="m811.87 1066.3v-1063.1" fill="none" stroke="#000" stroke-miterlimit="10" stroke-width="2.3625"/>
<path transform="matrix(.1 0 0 -.1 .528 128.03)" d="m1279.6 1066.3v-1063.1" fill="none" stroke="#000" stroke-miterlimit="10" stroke-width="2.3625"/>
<path transform="matrix(.1 0 0 -.1 .528 128.03)" d="m1846.6 1066.3v-1063.1" fill="none" stroke="#000" stroke-miterlimit="10" stroke-width="2.3625"/>
<path transform="matrix(.1 0 0 -.1 .528 128.03)" d="m2980.6 1066.3v-1063.1" fill="none" stroke="#000" stroke-miterlimit="10" stroke-width="2.3625"/>
<g clip-path="url(#az)">
<path transform="matrix(.1 0 0 -.1 .528 128.03)" d="m3.8606 3.1325h3685.5v1063.1h-3685.5z" fill="none" stroke="#000" stroke-miterlimit="10" stroke-width="2.3625"/>
</g>
<g clip-path="url(#ay)">
<path transform="matrix(.1 0 0 -.1 .528 128.03)" d="m3.8606 215.75h3685.5" fill="none" stroke="#000" stroke-miterlimit="10" stroke-width="2.3625"/>
</g>
<g>
<use x="142.872" y="120.567" xlink:href="#ak"/>
<use x="147.479833" y="120.567" xlink:href="#aj"/>
<use x="150.551722" y="120.567" xlink:href="#f"/>
<use x="156.822822" y="120.567" xlink:href="#q"/>
<use x="163.861446" y="120.567" xlink:href="#w"/>
<use x="219.534" y="56.784" xlink:href="#m"/>
<use x="226.189759" y="56.784" xlink:href="#al"/>
<use x="232.845517" y="56.784" xlink:href="#f"/>
<use x="238.345507" y="56.784" xlink:href="#p"/>
<use x="243.98089" y="56.784" xlink:href="#w"/>
<use x="250.891294" y="56.784" xlink:href="#q"/>
<use x="257.929918" y="56.784" xlink:href="#f"/>
<use x="237.068" y="78.045" xlink:href="#z"/>
<use x="240.394534" y="78.045" xlink:href="#f"/>
<use x="211.904" y="99.306" xlink:href="#ax"/>
<use x="218.1751" y="99.306" xlink:href="#b"/>
<use x="221.75897" y="99.306" xlink:href="#i"/>
<use x="226.878785" y="99.306" xlink:href="#d"/>
<use x="230.978223" y="99.306" xlink:href="#c"/>
<use x="234.582716" y="99.306" xlink:href="#a"/>
<use x="239.70253" y="99.306" xlink:href="#d"/>
<use x="243.801968" y="99.306" xlink:href="#b"/>
<use x="247.385838" y="99.306" xlink:href="#p"/>
<use x="253.012254" y="99.306" xlink:href="#f"/>
<use x="259.283354" y="99.306" xlink:href="#f"/>
<use x="265.554454" y="99.306" xlink:href="#f"/>
<use x="23.351" y="78.045" xlink:href="#aw"/>
<use x="29.490294" y="78.045" xlink:href="#d"/>
<use x="33.589732" y="78.045" xlink:href="#c"/>
<use x="37.194225" y="78.045" xlink:href="#o"/>
<use x="44.873947" y="78.045" xlink:href="#h"/>
<use x="47.433854" y="78.045" xlink:href="#b"/>
<use x="51.017724" y="78.045" xlink:href="#b"/>
<use x="54.601594" y="78.045" xlink:href="#t"/>
<use x="57.161501" y="78.045" xlink:href="#n"/>
<use x="62.281316" y="78.045" xlink:href="#a"/>
<use x="67.40113" y="78.045" xlink:href="#l"/>
<use x="305.71" y="35.522" xlink:href="#v"/>
<use x="312.620404" y="35.522" xlink:href="#a"/>
<use x="317.480193" y="35.522" xlink:href="#y"/>
<use x="323.884893" y="35.522" xlink:href="#d"/>
<use x="327.984331" y="35.522" xlink:href="#a"/>
<use x="333.104145" y="35.522" xlink:href="#ai"/>
<use x="338.22396" y="35.522" xlink:href="#n"/>
<use x="343.343774" y="35.522" xlink:href="#a"/>
<use x="348.463588" y="35.522" xlink:href="#l"/>
<use x="353.071421" y="35.522" xlink:href="#d"/>
<use x="357.17086" y="35.522" xlink:href="#a"/>
<use x="28.086" y="99.306" xlink:href="#u"/>
<use x="33.205814" y="99.306" xlink:href="#h"/>
<use x="35.765722" y="99.306" xlink:href="#k"/>
<use x="39.601548" y="99.306" xlink:href="#i"/>
<use x="44.721362" y="99.306" xlink:href="#d"/>
<use x="48.8208" y="99.306" xlink:href="#c"/>
<use x="52.425293" y="99.306" xlink:href="#n"/>
<use x="57.545107" y="99.306" xlink:href="#a"/>
<use x="62.664922" y="99.306" xlink:href="#l"/>
<use x="24.002" y="35.522" xlink:href="#v"/>
<use x="30.912404" y="35.522" xlink:href="#a"/>
<use x="35.772193" y="35.522" xlink:href="#y"/>
<use x="42.176893" y="35.522" xlink:href="#d"/>
<use x="46.276331" y="35.522" xlink:href="#a"/>
<use x="51.396145" y="35.522" xlink:href="#ai"/>
<use x="56.51596" y="35.522" xlink:href="#n"/>
<use x="61.635774" y="35.522" xlink:href="#a"/>
<use x="66.755588" y="35.522" xlink:href="#l"/>
<use x="16.621" y="120.567" xlink:href="#ah"/>
<use x="23.147643" y="120.567" xlink:href="#h"/>
<use x="25.70755" y="120.567" xlink:href="#b"/>
<use x="29.547" y="120.969" xlink:href="#av"/>
<use x="29.291" y="120.567" xlink:href="#n"/>
<use x="34.410814" y="120.567" xlink:href="#ag"/>
<use x="39.790654" y="120.567" xlink:href="#d"/>
<use x="43.890092" y="120.567" xlink:href="#c"/>
<use x="47.494585" y="120.567" xlink:href="#b"/>
<use x="51.078455" y="120.567" xlink:href="#c"/>
<use x="54.682948" y="120.567" xlink:href="#e"/>
<use x="59.290781" y="120.567" xlink:href="#l"/>
<use x="63.898614" y="120.567" xlink:href="#n"/>
<use x="69.009462" y="120.567" xlink:href="#a"/>
<use x="74.129276" y="120.567" xlink:href="#l"/>
<use x="80.956" y="35.522" xlink:href="#v"/>
<use x="87.866404" y="35.522" xlink:href="#s"/>
<use x="92.986219" y="35.522" xlink:href="#s"/>
<use x="98.106033" y="35.522" xlink:href="#t"/>
<use x="100.66594" y="35.522" xlink:href="#h"/>
<use x="103.225848" y="35.522" xlink:href="#k"/>
<use x="107.321699" y="35.522" xlink:href="#e"/>
<use x="111.929532" y="35.522" xlink:href="#b"/>
<use x="115.513402" y="35.522" xlink:href="#h"/>
<use x="118.073309" y="35.522" xlink:href="#g"/>
<use x="122.681142" y="35.522" xlink:href="#a"/>
<use x="84.365" y="56.784" xlink:href="#m"/>
<use x="90.249648" y="56.784" xlink:href="#c"/>
<use x="93.854141" y="56.784" xlink:href="#e"/>
<use x="98.461974" y="56.784" xlink:href="#a"/>
<use x="103.581788" y="56.784" xlink:href="#j"/>
<use x="107.216767" y="56.784" xlink:href="#s"/>
<use x="112.596607" y="56.784" xlink:href="#g"/>
<use x="117.20444" y="56.784" xlink:href="#c"/>
<use x="120.808933" y="56.784" xlink:href="#b"/>
<use x="87.471" y="78.045" xlink:href="#x"/>
<use x="94.381404" y="78.045" xlink:href="#d"/>
<use x="98.480843" y="78.045" xlink:href="#b"/>
<use x="101.804687" y="78.045" xlink:href="#y"/>
<use x="108.209387" y="78.045" xlink:href="#g"/>
<use x="112.81722" y="78.045" xlink:href="#c"/>
<use x="116.421712" y="78.045" xlink:href="#r"/>
<use x="5.69" y="35.522" xlink:href="#au"/>
<use x="5.69" y="56.784" xlink:href="#at"/>
<use x="5.69" y="78.045" xlink:href="#as"/>
<use x="5.69" y="99.306" xlink:href="#ar"/>
<use x="5.69" y="120.567" xlink:href="#ak"/>
<use x="83.772" y="99.306" xlink:href="#q"/>
<use x="90.810624" y="99.306" xlink:href="#e"/>
<use x="95.418457" y="99.306" xlink:href="#b"/>
<use x="99.002327" y="99.306" xlink:href="#e"/>
<use x="106.685635" y="99.306" xlink:href="#af"/>
<use x="112.444754" y="99.306" xlink:href="#h"/>
<use x="115.004661" y="99.306" xlink:href="#a"/>
<use x="120.115509" y="99.306" xlink:href="#r"/>
<use x="87.65" y="120.567" xlink:href="#f"/>
<use x="93.9211" y="120.567" xlink:href="#i"/>
<use x="98.780889" y="120.567" xlink:href="#ae"/>
<use x="103.644264" y="120.567" xlink:href="#j"/>
<use x="107.279243" y="120.567" xlink:href="#h"/>
<use x="109.83915" y="120.567" xlink:href="#k"/>
<use x="113.935002" y="120.567" xlink:href="#e"/>
<use x="118.542835" y="120.567" xlink:href="#t"/>
<use x="137.358" y="35.522" xlink:href="#x"/>
<use x="144.268404" y="35.522" xlink:href="#e"/>
<use x="148.876237" y="35.522" xlink:href="#k"/>
<use x="152.712063" y="35.522" xlink:href="#i"/>
<use x="157.831878" y="35.522" xlink:href="#c"/>
<use x="161.436371" y="35.522" xlink:href="#h"/>
<use x="163.996278" y="35.522" xlink:href="#k"/>
<use x="167.84107" y="35.522" xlink:href="#i"/>
<use x="172.700859" y="35.522" xlink:href="#b"/>
<use x="27.668" y="56.784" xlink:href="#m"/>
<use x="33.552648" y="56.784" xlink:href="#c"/>
<use x="37.157141" y="56.784" xlink:href="#e"/>
<use x="41.764974" y="56.784" xlink:href="#a"/>
<use x="46.884788" y="56.784" xlink:href="#j"/>
<use x="50.519767" y="56.784" xlink:href="#s"/>
<use x="55.899607" y="56.784" xlink:href="#g"/>
<use x="60.50744" y="56.784" xlink:href="#c"/>
<use x="64.111933" y="56.784" xlink:href="#b"/>
<use x="139.794625" y="56.784" xlink:href="#u"/>
<use x="144.91444" y="56.784" xlink:href="#d"/>
<use x="149.013878" y="56.784" xlink:href="#l"/>
<use x="153.621711" y="56.784" xlink:href="#o"/>
<use x="161.301432" y="56.784" xlink:href="#d"/>
<use x="165.40087" y="56.784" xlink:href="#a"/>
<use x="170.260659" y="56.784" xlink:href="#b"/>
<use x="132.814" y="78.045" xlink:href="#q"/>
<use x="139.852624" y="78.045" xlink:href="#e"/>
<use x="144.460457" y="78.045" xlink:href="#b"/>
<use x="148.044327" y="78.045" xlink:href="#e"/>
<use x="152.65216" y="78.045" xlink:href="#l"/>
<use x="157.259993" y="78.045" xlink:href="#c"/>
<use x="160.864486" y="78.045" xlink:href="#e"/>
<use x="165.472319" y="78.045" xlink:href="#o"/>
<use x="173.15204" y="78.045" xlink:href="#o"/>
<use x="140.118" y="99.306" xlink:href="#aq"/>
<use x="146.901082" y="99.306" xlink:href="#e"/>
<use x="151.508915" y="99.306" xlink:href="#i"/>
<use x="156.628729" y="99.306" xlink:href="#o"/>
<use x="164.308451" y="99.306" xlink:href="#d"/>
<use x="168.407889" y="99.306" xlink:href="#a"/>
<use x="186.132" y="35.522" xlink:href="#ad"/>
<use x="193.042404" y="35.522" xlink:href="#m"/>
<use x="199.698163" y="35.522" xlink:href="#m"/>
<use x="206.353922" y="35.522" xlink:href="#f"/>
<use x="211.853912" y="35.522" xlink:href="#p"/>
<use x="217.489294" y="35.522" xlink:href="#u"/>
<use x="222.609108" y="35.522" xlink:href="#ac"/>
<use x="231.055457" y="35.522" xlink:href="#m"/>
<use x="237.711216" y="35.522" xlink:href="#f"/>
<use x="243.211206" y="35.522" xlink:href="#p"/>
<use x="248.846588" y="35.522" xlink:href="#z"/>
<use x="252.173123" y="35.522" xlink:href="#ac"/>
<use x="260.619471" y="35.522" xlink:href="#v"/>
<use x="267.529876" y="35.522" xlink:href="#f"/>
<use x="273.029866" y="35.522" xlink:href="#p"/>
<use x="278.656282" y="35.522" xlink:href="#ap"/>
<use x="284.679909" y="35.522" xlink:href="#m"/>
<use x="291.326701" y="35.522" xlink:href="#f"/>
<use x="319.129" y="15.679" xlink:href="#s"/>
<use x="324.248814" y="15.679" xlink:href="#e"/>
<use x="328.856647" y="15.679" xlink:href="#c"/>
<use x="332.46114" y="15.679" xlink:href="#b"/>
<use x="336.04501" y="15.679" xlink:href="#a"/>
<use x="341.164825" y="15.679" xlink:href="#d"/>
<use x="345.264263" y="15.679" xlink:href="#c"/>
<use x="33.218" y="7.174" xlink:href="#u"/>
<use x="38.337814" y="7.174" xlink:href="#k"/>
<use x="42.17364" y="7.174" xlink:href="#i"/>
<use x="47.293455" y="7.174" xlink:href="#h"/>
<use x="49.853362" y="7.174" xlink:href="#k"/>
<use x="53.698154" y="7.174" xlink:href="#i"/>
<use x="58.557943" y="7.174" xlink:href="#b"/>
<use x="95.99894" y="7.174" xlink:href="#af"/>
<use x="101.758058" y="7.174" xlink:href="#e"/>
<use x="106.114832" y="7.174" xlink:href="#ae"/>
<use x="110.718182" y="7.174" xlink:href="#d"/>
<use x="114.81762" y="7.174" xlink:href="#c"/>
<use x="146.711105" y="7.174" xlink:href="#f"/>
<use x="152.982205" y="7.174" xlink:href="#q"/>
<use x="160.020829" y="7.174" xlink:href="#w"/>
<use x="207.557992" y="7.174" xlink:href="#f"/>
<use x="213.829092" y="7.174" xlink:href="#c"/>
<use x="217.433585" y="7.174" xlink:href="#g"/>
<use x="222.041418" y="7.174" xlink:href="#b"/>
<use x="225.616321" y="7.174" xlink:href="#g"/>
<use x="230.224154" y="7.174" xlink:href="#r"/>
<use x="234.83647" y="7.174" xlink:href="#g"/>
<use x="239.444303" y="7.174" xlink:href="#t"/>
<use x="242.004211" y="7.174" xlink:href="#t"/>
<use x="244.564118" y="7.174" xlink:href="#d"/>
<use x="251.730065" y="7.174" xlink:href="#ao"/>
<use x="255.313935" y="7.174" xlink:href="#ab"/>
<use x="259.409786" y="7.174" xlink:href="#aa"/>
<use x="263.511914" y="7.174" xlink:href="#ah"/>
<use x="270.038557" y="7.174" xlink:href="#aa"/>
<use x="272.598464" y="7.174" xlink:href="#an"/>
<use x="316.975" y="56.784" xlink:href="#f"/>
<use x="323.2461" y="56.784" xlink:href="#c"/>
<use x="326.850593" y="56.784" xlink:href="#g"/>
<use x="331.458426" y="56.784" xlink:href="#ab"/>
<use x="335.554277" y="56.784" xlink:href="#d"/>
<use x="339.653716" y="56.784" xlink:href="#j"/>
<use x="343.288694" y="56.784" xlink:href="#j"/>
<use x="346.923673" y="56.784" xlink:href="#d"/>
<use x="322.813" y="78.045" xlink:href="#ad"/>
<use x="329.723404" y="78.045" xlink:href="#g"/>
<use x="334.331237" y="78.045" xlink:href="#j"/>
<use x="337.966216" y="78.045" xlink:href="#b"/>
<use x="341.550086" y="78.045" xlink:href="#j"/>
<use x="303.525" y="99.306" xlink:href="#x"/>
<use x="310.435404" y="99.306" xlink:href="#e"/>
<use x="315.043237" y="99.306" xlink:href="#k"/>
<use x="318.879063" y="99.306" xlink:href="#i"/>
<use x="323.747819" y="99.306" xlink:href="#ag"/>
<use x="328.867633" y="99.306" xlink:href="#e"/>
<use x="333.475466" y="99.306" xlink:href="#c"/>
<use x="337.079959" y="99.306" xlink:href="#r"/>
<use x="341.943334" y="99.306" xlink:href="#a"/>
<use x="347.063148" y="99.306" xlink:href="#g"/>
<use x="351.670981" y="99.306" xlink:href="#b"/>
<use x="355.254852" y="99.306" xlink:href="#d"/>
<use x="359.35429" y="99.306" xlink:href="#a"/>
<use x="298.392" y="7.174" xlink:href="#am"/>
<use x="305.557947" y="7.174" xlink:href="#g"/>
<use x="310.16578" y="7.174" xlink:href="#o"/>
<use x="317.845501" y="7.174" xlink:href="#o"/>
<use x="325.265197" y="7.174" xlink:href="#n"/>
<use x="330.385012" y="7.174" xlink:href="#a"/>
<use x="335.504826" y="7.174" xlink:href="#h"/>
<use x="338.064733" y="7.174" xlink:href="#r"/>
<use x="342.417024" y="7.174" xlink:href="#e"/>
<use x="347.024857" y="7.174" xlink:href="#b"/>
<use x="350.608727" y="7.174" xlink:href="#h"/>
<use x="353.168634" y="7.174" xlink:href="#g"/>
<use x="357.776467" y="7.174" xlink:href="#a"/>
<use x="362.896282" y="7.174" xlink:href="#j"/>
<use x="366.53126" y="7.174" xlink:href="#aj"/>
</g>
</svg>
