<svg width="400pt" height="235pt" version="1.1" viewBox="0 0 400 235" xmlns="http://www.w3.org/2000/svg" xmlns:xlink="http://www.w3.org/1999/xlink">
<defs>
<g id="m">
<path d="m6.1094-6.0312c0-0.35938 0.015625-0.46875 0.78125-0.46875h0.25v-0.3125c-0.35938 0.03125-1.0938 0.03125-1.4688 0.03125s-1.125 0-1.4688-0.03125v0.3125h0.23438c0.76562 0 0.78125 0.10938 0.78125 0.46875v2.3281h-2.9688v-2.3281c0-0.35938 0.015625-0.46875 0.78125-0.46875h0.23438v-0.3125c-0.34375 0.03125-1.0781 0.03125-1.4688 0.03125-0.375 0-1.125 0-1.4688-0.03125v0.3125h0.23438c0.76562 0 0.79688 0.10938 0.79688 0.46875v5.25c0 0.35938-0.03125 0.46875-0.79688 0.46875h-0.23438v0.3125c0.34375-0.03125 1.0938-0.03125 1.4688-0.03125s1.125 0 1.4688 0.03125v-0.3125h-0.23438c-0.76562 0-0.78125-0.10938-0.78125-0.46875v-2.6094h2.9688v2.6094c0 0.35938-0.015625 0.46875-0.78125 0.46875h-0.23438v0.3125c0.34375-0.03125 1.0781-0.03125 1.4531-0.03125 0.39062 0 1.125 0 1.4844 0.03125v-0.3125h-0.25c-0.76562 0-0.78125-0.10938-0.78125-0.46875z"/>
</g>
<g id="c">
<path d="m4.6875-2.1406c0-1.2656-0.98438-2.3281-2.1875-2.3281-1.25 0-2.2188 1.0938-2.2188 2.3281 0 1.2969 1.0312 2.25 2.2031 2.25 1.2031 0 2.2031-0.98438 2.2031-2.25zm-2.1875 2c-0.4375 0-0.875-0.20312-1.1406-0.67188-0.25-0.4375-0.25-1.0469-0.25-1.4062 0-0.39062 0-0.92188 0.23438-1.3594 0.26562-0.45312 0.73438-0.67188 1.1406-0.67188 0.4375 0 0.85938 0.21875 1.125 0.65625 0.26562 0.42188 0.26562 1 0.26562 1.375 0 0.35938 0 0.90625-0.21875 1.3438-0.23438 0.45312-0.67188 0.73438-1.1562 0.73438z"/>
</g>
<g id="d">
<path d="m2.0781-1.9375c0.21875 0.046875 1.0312 0.20312 1.0312 0.92188 0 0.5-0.34375 0.90625-1.125 0.90625-0.84375 0-1.2031-0.5625-1.3906-1.4219-0.03125-0.125-0.03125-0.15625-0.14062-0.15625-0.125 0-0.125 0.0625-0.125 0.23438v1.3281c0 0.17188 0 0.23438 0.10938 0.23438 0.046875 0 0.0625-0.015625 0.25-0.20312 0.015625-0.015625 0.015625-0.03125 0.20312-0.21875 0.4375 0.40625 0.89062 0.42188 1.0938 0.42188 1.1406 0 1.6094-0.67188 1.6094-1.3906 0-0.51562-0.29688-0.82812-0.42188-0.9375-0.32812-0.32812-0.71875-0.40625-1.1406-0.48438-0.5625-0.10938-1.2188-0.23438-1.2188-0.8125 0-0.35938 0.25-0.76562 1.1094-0.76562 1.0938 0 1.1562 0.90625 1.1719 1.2031 0 0.09375 0.09375 0.09375 0.10938 0.09375 0.14062 0 0.14062-0.046875 0.14062-0.23438v-1.0156c0-0.15625 0-0.23438-0.10938-0.23438-0.046875 0-0.078125 0-0.20312 0.125-0.03125 0.03125-0.125 0.125-0.17188 0.15625-0.375-0.28125-0.78125-0.28125-0.9375-0.28125-1.2188 0-1.5938 0.67188-1.5938 1.2344 0 0.34375 0.15625 0.625 0.42188 0.84375 0.32812 0.25 0.60938 0.3125 1.3281 0.45312z"/>
</g>
<g id="b">
<path d="m1.7188-3.9844h1.4375v-0.3125h-1.4375v-1.8281h-0.25c0 0.8125-0.29688 1.875-1.2812 1.9219v0.21875h0.84375v2.75c0 1.2188 0.9375 1.3438 1.2969 1.3438 0.70312 0 0.98438-0.70312 0.98438-1.3438v-0.5625h-0.25v0.54688c0 0.73438-0.29688 1.1094-0.67188 1.1094-0.67188 0-0.67188-0.90625-0.67188-1.0781z"/>
</g>
<g id="u">
<path d="m5.7969-6.7812h-5.4688v0.3125h0.23438c0.76562 0 0.79688 0.10938 0.79688 0.46875v5.2188c0 0.35938-0.03125 0.46875-0.79688 0.46875h-0.23438v0.3125c0.34375-0.03125 1.125-0.03125 1.5156-0.03125 0.40625 0 1.3125 0 1.6719 0.03125v-0.3125h-0.32812c-0.9375 0-0.9375-0.125-0.9375-0.46875v-2.4531h0.84375c0.96875 0 1.0625 0.3125 1.0625 1.1562h0.25v-2.6406h-0.25c0 0.84375-0.09375 1.1719-1.0625 1.1719h-0.84375v-2.5312c0-0.32812 0.015625-0.39062 0.48438-0.39062h1.1875c1.5 0 1.75 0.5625 1.9062 1.9375h0.25z"/>
</g>
<g id="t">
<path d="m9.0625-5.8281c0.17188-0.57812 0.60938-0.67188 1-0.67188v-0.3125c-0.29688 0.03125-0.60938 0.03125-0.90625 0.03125s-0.9375-0.015625-1.1875-0.03125v0.3125c0.67188 0.015625 0.85938 0.34375 0.85938 0.53125 0 0.0625-0.03125 0.14062-0.046875 0.20312l-1.5 4.5938-1.5938-4.875c0-0.046875-0.03125-0.10938-0.03125-0.15625 0-0.29688 0.57812-0.29688 0.84375-0.29688v-0.3125c-0.35938 0.03125-1.0312 0.03125-1.4219 0.03125-0.375 0-0.79688-0.015625-1.2031-0.03125v0.3125c0.5625 0 0.76562 0 0.89062 0.35938l0.21875 0.70312-1.3906 4.2656-1.5938-4.9062c-0.015625-0.015625-0.03125-0.09375-0.03125-0.125 0-0.29688 0.57812-0.29688 0.84375-0.29688v-0.3125c-0.35938 0.03125-1.0312 0.03125-1.4219 0.03125-0.375 0-0.79688-0.015625-1.2188-0.03125v0.3125c0.75 0 0.79688 0.046875 0.92188 0.42188l1.9844 6.1094c0.03125 0.09375 0.0625 0.1875 0.1875 0.1875 0.14062 0 0.15625-0.0625 0.20312-0.20312l1.6406-5.0625 1.6562 5.0781c0.03125 0.09375 0.0625 0.1875 0.1875 0.1875 0.14062 0 0.17188-0.0625 0.20312-0.20312z"/>
</g>
<g id="a">
<path d="m1.1094-2.5156c0.0625-1.4844 0.90625-1.7344 1.25-1.7344 1.0156 0 1.125 1.3438 1.125 1.7344zm0 0.21875h2.7812c0.21875 0 0.25 0 0.25-0.21875 0-0.98438-0.54688-1.9531-1.7812-1.9531-1.1562 0-2.0781 1.0312-2.0781 2.2812 0 1.3281 1.0469 2.2969 2.1875 2.2969 1.2188 0 1.6719-1.1094 1.6719-1.2969 0-0.09375-0.078125-0.125-0.14062-0.125-0.078125 0-0.10938 0.0625-0.125 0.14062-0.34375 1.0312-1.25 1.0312-1.3438 1.0312-0.5 0-0.89062-0.29688-1.125-0.67188-0.29688-0.46875-0.29688-1.125-0.29688-1.4844z"/>
</g>
<g id="s">
<path d="m1.7188-3.7656v-3.1562l-1.4375 0.10938v0.3125c0.70312 0 0.78125 0.0625 0.78125 0.5625v5.9375h0.25c0-0.015625 0.078125-0.15625 0.35938-0.625 0.14062 0.23438 0.5625 0.73438 1.2969 0.73438 1.1875 0 2.2188-0.98438 2.2188-2.2656 0-1.2656-0.96875-2.25-2.1094-2.25-0.78125 0-1.2031 0.46875-1.3594 0.64062zm0.03125 2.625v-2.0469c0-0.1875 0-0.20312 0.10938-0.35938 0.39062-0.5625 0.9375-0.64062 1.1719-0.64062 0.45312 0 0.8125 0.26562 1.0469 0.64062 0.26562 0.40625 0.28125 0.96875 0.28125 1.3906 0 0.35938-0.015625 0.95312-0.29688 1.4062-0.21875 0.3125-0.59375 0.64062-1.125 0.64062-0.45312 0-0.8125-0.23438-1.0469-0.60938-0.14062-0.20312-0.14062-0.23438-0.14062-0.42188z"/>
</g>
<g id="n">
<path d="m2.75-1.8594v-0.57812h-2.6406v0.57812z"/>
</g>
<g id="aj">
<path d="m3.4844-3.875-1.2812-0.29688c-0.625-0.15625-1-0.6875-1-1.2656 0-0.70312 0.53125-1.3125 1.3125-1.3125 1.6562 0 1.875 1.6406 1.9375 2.0781 0.015625 0.0625 0.015625 0.125 0.125 0.125 0.125 0 0.125-0.046875 0.125-0.23438v-2c0-0.17188 0-0.25-0.10938-0.25-0.0625 0-0.078125 0.015625-0.14062 0.14062l-0.35938 0.5625c-0.29688-0.29688-0.70312-0.70312-1.5938-0.70312-1.1094 0-1.9375 0.875-1.9375 1.9375 0 0.82812 0.53125 1.5625 1.2969 1.8281 0.10938 0.03125 0.625 0.15625 1.3281 0.32812 0.26562 0.0625 0.5625 0.14062 0.84375 0.5 0.20312 0.26562 0.3125 0.59375 0.3125 0.92188 0 0.70312-0.5 1.4219-1.3438 1.4219-0.28125 0-1.0469-0.046875-1.5781-0.53125-0.57812-0.54688-0.60938-1.1719-0.60938-1.5312-0.015625-0.10938-0.09375-0.10938-0.125-0.10938-0.125 0-0.125 0.078125-0.125 0.25v2c0 0.17188 0 0.23438 0.10938 0.23438 0.0625 0 0.078125-0.015625 0.14062-0.125 0-0.015625 0.03125-0.046875 0.35938-0.57812 0.3125 0.34375 0.95312 0.70312 1.8438 0.70312 1.1562 0 1.9531-0.96875 1.9531-2.0781 0-0.98438-0.65625-1.8125-1.4844-2.0156z"/>
</g>
<g id="f">
<path d="m1.6719-3.3125v-1.0938l-1.3906 0.10938v0.3125c0.70312 0 0.78125 0.0625 0.78125 0.5625v2.6719c0 0.4375-0.10938 0.4375-0.78125 0.4375v0.3125c0.39062-0.015625 0.85938-0.03125 1.1406-0.03125 0.39062 0 0.85938 0 1.2656 0.03125v-0.3125h-0.21875c-0.73438 0-0.75-0.10938-0.75-0.46875v-1.5312c0-0.98438 0.42188-1.875 1.1719-1.875 0.0625 0 0.09375 0 0.10938 0.015625-0.03125 0-0.23438 0.125-0.23438 0.39062s0.21875 0.42188 0.4375 0.42188c0.17188 0 0.42188-0.125 0.42188-0.4375s-0.3125-0.60938-0.73438-0.60938c-0.73438 0-1.0938 0.67188-1.2188 1.0938z"/>
</g>
<g id="ai">
<path d="m4.1406-3.3125c0.09375-0.23438 0.26562-0.67188 0.92188-0.67188v-0.3125c-0.23438 0.015625-0.51562 0.03125-0.75 0.03125s-0.6875-0.015625-0.85938-0.03125v0.3125c0.35938 0 0.46875 0.23438 0.46875 0.42188 0 0.09375-0.015625 0.14062-0.046875 0.25l-1.0312 2.5312-1.1094-2.7812c-0.0625-0.125-0.0625-0.14062-0.0625-0.17188 0-0.25 0.39062-0.25 0.57812-0.25v-0.3125c-0.3125 0.015625-0.85938 0.03125-1.0938 0.03125-0.26562 0-0.67188-0.015625-0.96875-0.03125v0.3125c0.625 0 0.67188 0.0625 0.79688 0.35938l1.4375 3.5469c0.0625 0.14062 0.078125 0.1875 0.20312 0.1875 0.14062 0 0.17188-0.09375 0.21875-0.1875z"/>
</g>
<g id="ah">
<path d="m2.2188-3.6562v-2.4375c0-0.34375 0.015625-0.40625 0.48438-0.40625h1.2344c0.96875 0 1.3125 0.84375 1.3125 1.375 0 0.64062-0.48438 1.4688-1.5938 1.4688zm2.3438 0.09375c0.96875-0.1875 1.6562-0.82812 1.6562-1.5625 0-0.85938-0.92188-1.6875-2.2188-1.6875h-3.6406v0.3125h0.23438c0.76562 0 0.79688 0.10938 0.79688 0.46875v5.25c0 0.35938-0.03125 0.46875-0.79688 0.46875h-0.23438v0.3125h3.9062c1.3281 0 2.2188-0.89062 2.2188-1.8281 0-0.85938-0.8125-1.6094-1.9219-1.7344zm-0.60938 3.25h-1.25c-0.46875 0-0.48438-0.0625-0.48438-0.39062v-2.7188h1.875c0.98438 0 1.4062 0.92188 1.4062 1.5938 0 0.70312-0.53125 1.5156-1.5469 1.5156z"/>
</g>
<g id="r">
<path d="m0.5625-3.4062c0 2.0625 1.6094 3.625 3.4688 3.625 1.625 0 2.5938-1.3906 2.5938-2.5469 0-0.09375 0-0.17188-0.125-0.17188-0.10938 0-0.10938 0.0625-0.125 0.17188-0.078125 1.4219-1.1406 2.2344-2.2344 2.2344-0.60938 0-2.5625-0.32812-2.5625-3.3125 0-2.9688 1.9531-3.3125 2.5625-3.3125 1.0781 0 1.9688 0.90625 2.1719 2.3594 0.015625 0.14062 0.015625 0.17188 0.15625 0.17188 0.15625 0 0.15625-0.03125 0.15625-0.23438v-2.3594c0-0.17188 0-0.25-0.10938-0.25-0.03125 0-0.078125 0-0.15625 0.125l-0.5 0.73438c-0.35938-0.35938-0.875-0.85938-1.8281-0.85938-1.875 0-3.4688 1.5938-3.4688 3.625z"/>
</g>
<g id="q">
<path d="m1.7656-6.9219-1.4375 0.10938v0.3125c0.70312 0 0.78125 0.0625 0.78125 0.5625v5.1875c0 0.4375-0.10938 0.4375-0.78125 0.4375v0.3125c0.32812-0.015625 0.85938-0.03125 1.1094-0.03125s0.73438 0.015625 1.1094 0.03125v-0.3125c-0.67188 0-0.78125 0-0.78125-0.4375z"/>
</g>
<g id="e">
<path d="m1.7656-4.4062-1.3906 0.10938v0.3125c0.64062 0 0.73438 0.0625 0.73438 0.54688v2.6875c0 0.4375-0.10938 0.4375-0.78125 0.4375v0.3125c0.3125-0.015625 0.85938-0.03125 1.0938-0.03125 0.35938 0 0.70312 0.015625 1.0469 0.03125v-0.3125c-0.67188 0-0.70312-0.046875-0.70312-0.4375zm0.03125-1.7344c0-0.3125-0.23438-0.53125-0.51562-0.53125-0.3125 0-0.53125 0.26562-0.53125 0.53125s0.21875 0.53125 0.53125 0.53125c0.28125 0 0.51562-0.21875 0.51562-0.53125z"/>
</g>
<g id="g">
<path d="m1.0938-3.4219v2.6719c0 0.4375-0.10938 0.4375-0.78125 0.4375v0.3125c0.35938-0.015625 0.85938-0.03125 1.1406-0.03125 0.25 0 0.76562 0.015625 1.1094 0.03125v-0.3125c-0.67188 0-0.78125 0-0.78125-0.4375v-1.8438c0-1.0312 0.71875-1.5938 1.3438-1.5938 0.64062 0 0.75 0.53125 0.75 1.1094v2.3281c0 0.4375-0.10938 0.4375-0.78125 0.4375v0.3125c0.34375-0.015625 0.85938-0.03125 1.125-0.03125 0.25 0 0.78125 0.015625 1.1094 0.03125v-0.3125c-0.51562 0-0.76562 0-0.76562-0.29688v-1.9062c0-0.85938 0-1.1562-0.3125-1.5156-0.14062-0.17188-0.46875-0.375-1.0469-0.375-0.73438 0-1.2031 0.42188-1.4844 1.0469v-1.0469l-1.4062 0.10938v0.3125c0.70312 0 0.78125 0.0625 0.78125 0.5625z"/>
</g>
<g id="ag">
<path d="m3.9688-6.9375c-0.046875-0.125-0.078125-0.20312-0.23438-0.20312s-0.1875 0.0625-0.23438 0.20312l-2.0625 5.9531c-0.1875 0.51562-0.57812 0.67188-1.125 0.67188v0.3125c0.23438-0.015625 0.67188-0.03125 1.0156-0.03125 0.3125 0 0.82812 0.015625 1.1562 0.03125v-0.3125c-0.5 0-0.75-0.25-0.75-0.5 0-0.03125 0.015625-0.14062 0.015625-0.15625l0.46875-1.2969h2.4531l0.53125 1.5156c0.015625 0.046875 0.03125 0.10938 0.03125 0.14062 0 0.29688-0.5625 0.29688-0.82812 0.29688v0.3125c0.35938-0.03125 1.0625-0.03125 1.4375-0.03125 0.42188 0 0.89062 0.015625 1.2969 0.03125v-0.3125h-0.17188c-0.59375 0-0.73438-0.0625-0.84375-0.39062zm-0.53125 1.1094 1.125 3.25h-2.2344z"/>
</g>
<g id="j">
<path d="m3.7812-0.54688v0.65625l1.4688-0.10938v-0.3125c-0.6875 0-0.78125-0.0625-0.78125-0.5625v-6.0469l-1.4219 0.10938v0.3125c0.6875 0 0.76562 0.0625 0.76562 0.5625v2.1562c-0.28125-0.35938-0.71875-0.625-1.25-0.625-1.1719 0-2.2188 0.98438-2.2188 2.2656 0 1.2656 0.96875 2.25 2.1094 2.25 0.64062 0 1.0781-0.34375 1.3281-0.65625zm0-2.6719v2.0469c0 0.17188 0 0.1875-0.10938 0.35938-0.29688 0.48438-0.73438 0.70312-1.1719 0.70312-0.45312 0-0.8125-0.26562-1.0469-0.64062-0.25-0.40625-0.28125-0.96875-0.28125-1.3906 0-0.35938 0.015625-0.95312 0.29688-1.4062 0.21875-0.3125 0.59375-0.64062 1.1406-0.64062 0.34375 0 0.76562 0.15625 1.0625 0.59375 0.10938 0.17188 0.10938 0.1875 0.10938 0.375z"/>
</g>
<g id="k">
<path d="m3.3125-0.75c0.046875 0.39062 0.3125 0.8125 0.78125 0.8125 0.21875 0 0.82812-0.14062 0.82812-0.95312v-0.5625h-0.25v0.5625c0 0.57812-0.25 0.64062-0.35938 0.64062-0.32812 0-0.375-0.45312-0.375-0.5v-1.9844c0-0.42188 0-0.8125-0.35938-1.1875-0.39062-0.39062-0.89062-0.54688-1.3594-0.54688-0.82812 0-1.5156 0.46875-1.5156 1.125 0 0.29688 0.20312 0.46875 0.46875 0.46875 0.28125 0 0.45312-0.20312 0.45312-0.45312 0-0.125-0.046875-0.45312-0.51562-0.45312 0.28125-0.35938 0.76562-0.46875 1.0781-0.46875 0.5 0 1.0625 0.39062 1.0625 1.2812v0.35938c-0.51562 0.03125-1.2031 0.0625-1.8281 0.35938-0.75 0.34375-1 0.85938-1 1.2969 0 0.8125 0.96875 1.0625 1.5938 1.0625 0.65625 0 1.1094-0.40625 1.2969-0.85938zm-0.0625-1.6406v1c0 0.9375-0.71875 1.2812-1.1719 1.2812-0.48438 0-0.89062-0.34375-0.89062-0.84375 0-0.54688 0.42188-1.375 2.0625-1.4375z"/>
</g>
<g id="l">
<path d="m2.25-6.0312c0-0.35938 0.015625-0.46875 0.8125-0.46875h0.25v-0.3125c-0.34375 0.03125-1.125 0.03125-1.5156 0.03125-0.375 0-1.1719 0-1.5156-0.03125v0.3125h0.25c0.79688 0 0.82812 0.10938 0.82812 0.46875v5.25c0 0.35938-0.03125 0.46875-0.82812 0.46875h-0.25v0.3125c0.34375-0.03125 1.1406-0.03125 1.5156-0.03125 0.39062 0 1.1719 0 1.5156 0.03125v-0.3125h-0.25c-0.79688 0-0.8125-0.10938-0.8125-0.46875z"/>
</g>
<g id="h">
<path d="m2.2656-3.1562h1.6875c1.1875 0 2.2656-0.79688 2.2656-1.7969 0-0.98438-0.98438-1.8594-2.3438-1.8594h-3.5312v0.3125h0.25c0.76562 0 0.78125 0.10938 0.78125 0.46875v5.25c0 0.35938-0.015625 0.46875-0.78125 0.46875h-0.25v0.3125c0.35938-0.03125 1.0938-0.03125 1.4688-0.03125s1.125 0 1.4844 0.03125v-0.3125h-0.25c-0.76562 0-0.78125-0.10938-0.78125-0.46875zm-0.03125-0.25v-2.6875c0-0.34375 0.015625-0.40625 0.48438-0.40625h0.89062c1.5781 0 1.5781 1.0625 1.5781 1.5469 0 0.46875 0 1.5469-1.5781 1.5469z"/>
</g>
<g id="i">
<path d="m1.9062-3.7656c0-0.29688-0.23438-0.53125-0.51562-0.53125-0.29688 0-0.53125 0.23438-0.53125 0.53125 0 0.28125 0.23438 0.53125 0.53125 0.53125 0.28125 0 0.51562-0.25 0.51562-0.53125zm0 3.2344c0-0.28125-0.23438-0.53125-0.51562-0.53125-0.29688 0-0.53125 0.25-0.53125 0.53125 0 0.29688 0.23438 0.53125 0.53125 0.53125 0.28125 0 0.51562-0.23438 0.51562-0.53125z"/>
</g>
<g id="p">
<path d="m3.8906-0.78125v0.89062l1.4375-0.10938v-0.3125c-0.6875 0-0.76562-0.0625-0.76562-0.5625v-3.5312l-1.4688 0.10938v0.3125c0.6875 0 0.78125 0.0625 0.78125 0.5625v1.7656c0 0.875-0.48438 1.5469-1.2188 1.5469-0.82812 0-0.875-0.46875-0.875-0.98438v-3.3125l-1.4688 0.10938v0.3125c0.78125 0 0.78125 0.03125 0.78125 0.90625v1.5c0 0.78125 0 1.6875 1.5156 1.6875 0.5625 0 1-0.28125 1.2812-0.89062z"/>
</g>
<g id="o">
<path d="m1.1719-2.1719c0-1.625 0.8125-2.0469 1.3438-2.0469 0.09375 0 0.71875 0.015625 1.0625 0.375-0.40625 0.03125-0.46875 0.32812-0.46875 0.45312 0 0.26562 0.1875 0.45312 0.45312 0.45312s0.46875-0.15625 0.46875-0.46875c0-0.67188-0.76562-1.0625-1.5312-1.0625-1.25 0-2.1562 1.0781-2.1562 2.3125 0 1.2812 0.98438 2.2656 2.1406 2.2656 1.3281 0 1.6562-1.2031 1.6562-1.2969s-0.10938-0.09375-0.14062-0.09375c-0.078125 0-0.10938 0.03125-0.125 0.09375-0.28125 0.92188-0.9375 1.0469-1.2969 1.0469-0.53125 0-1.4062-0.42188-1.4062-2.0312z"/>
</g>
<g id="ac">
<path d="m1.2656-0.76562 1.0625-1.0312c1.5469-1.375 2.1406-1.9062 2.1406-2.9062 0-1.1406-0.89062-1.9375-2.1094-1.9375-1.125 0-1.8594 0.92188-1.8594 1.8125 0 0.54688 0.5 0.54688 0.53125 0.54688 0.17188 0 0.51562-0.10938 0.51562-0.53125 0-0.25-0.1875-0.51562-0.53125-0.51562-0.078125 0-0.09375 0-0.125 0.015625 0.21875-0.65625 0.76562-1.0156 1.3438-1.0156 0.90625 0 1.3281 0.8125 1.3281 1.625 0 0.79688-0.48438 1.5781-1.0469 2.2031l-1.9062 2.125c-0.10938 0.10938-0.10938 0.14062-0.10938 0.375h3.7031l0.26562-1.7344h-0.23438c-0.0625 0.29688-0.125 0.73438-0.23438 0.89062-0.0625 0.078125-0.71875 0.078125-0.9375 0.078125z"/>
</g>
<g id="ab">
<path d="m2.8906-3.5156c0.8125-0.26562 1.3906-0.95312 1.3906-1.75 0-0.8125-0.875-1.375-1.8281-1.375-1 0-1.7656 0.59375-1.7656 1.3594 0 0.32812 0.21875 0.51562 0.51562 0.51562s0.5-0.21875 0.5-0.51562c0-0.48438-0.46875-0.48438-0.60938-0.48438 0.29688-0.5 0.95312-0.625 1.3125-0.625 0.42188 0 0.96875 0.21875 0.96875 1.1094 0 0.125-0.03125 0.70312-0.28125 1.1406-0.29688 0.48438-0.64062 0.51562-0.89062 0.51562-0.078125 0.015625-0.3125 0.03125-0.39062 0.03125-0.078125 0.015625-0.14062 0.03125-0.14062 0.125 0 0.10938 0.0625 0.10938 0.23438 0.10938h0.4375c0.8125 0 1.1875 0.67188 1.1875 1.6562 0 1.3594-0.6875 1.6406-1.125 1.6406s-1.1875-0.17188-1.5312-0.75c0.34375 0.046875 0.65625-0.17188 0.65625-0.54688 0-0.35938-0.26562-0.5625-0.54688-0.5625-0.25 0-0.5625 0.14062-0.5625 0.57812 0 0.90625 0.92188 1.5625 2.0156 1.5625 1.2188 0 2.125-0.90625 2.125-1.9219 0-0.8125-0.64062-1.5938-1.6719-1.8125z"/>
</g>
<g id="aa">
<path d="m2.9375-1.6406v0.85938c0 0.35938-0.03125 0.46875-0.76562 0.46875h-0.20312v0.3125c0.40625-0.03125 0.92188-0.03125 1.3438-0.03125s0.9375 0 1.3594 0.03125v-0.3125h-0.21875c-0.73438 0-0.75-0.10938-0.75-0.46875v-0.85938h0.98438v-0.3125h-0.98438v-4.5312c0-0.20312 0-0.26562-0.17188-0.26562-0.078125 0-0.10938 0-0.1875 0.125l-3.0625 4.6719v0.3125zm0.046875-0.3125h-2.4219l2.4219-3.7188z"/>
</g>
<g id="z">
<path d="m4.4688-2c0-1.1875-0.8125-2.1875-1.8906-2.1875-0.46875 0-0.90625 0.15625-1.2656 0.51562v-1.9531c0.20312 0.0625 0.53125 0.125 0.84375 0.125 1.2344 0 1.9375-0.90625 1.9375-1.0312 0-0.0625-0.03125-0.10938-0.10938-0.10938 0 0-0.03125 0-0.078125 0.03125-0.20312 0.09375-0.6875 0.29688-1.3594 0.29688-0.39062 0-0.85938-0.078125-1.3281-0.28125-0.078125-0.03125-0.09375-0.03125-0.10938-0.03125-0.10938 0-0.10938 0.078125-0.10938 0.23438v2.9531c0 0.17188 0 0.25 0.14062 0.25 0.078125 0 0.09375-0.015625 0.14062-0.078125 0.10938-0.15625 0.46875-0.70312 1.2812-0.70312 0.51562 0 0.76562 0.45312 0.84375 0.64062 0.15625 0.375 0.1875 0.75 0.1875 1.25 0 0.35938 0 0.95312-0.25 1.375-0.23438 0.39062-0.60938 0.64062-1.0625 0.64062-0.71875 0-1.2969-0.53125-1.4688-1.1094 0.03125 0 0.0625 0.015625 0.17188 0.015625 0.32812 0 0.5-0.25 0.5-0.48438 0-0.25-0.17188-0.5-0.5-0.5-0.14062 0-0.48438 0.078125-0.48438 0.53125 0 0.85938 0.6875 1.8281 1.7969 1.8281 1.1562 0 2.1719-0.95312 2.1719-2.2188z"/>
</g>
<g id="af">
<path d="m1.3125-3.2656v-0.25c0-2.5156 1.2344-2.875 1.75-2.875 0.23438 0 0.65625 0.0625 0.875 0.40625-0.15625 0-0.54688 0-0.54688 0.4375 0 0.3125 0.23438 0.46875 0.45312 0.46875 0.15625 0 0.46875-0.09375 0.46875-0.48438 0-0.59375-0.4375-1.0781-1.2656-1.0781-1.2812 0-2.625 1.2812-2.625 3.4844 0 2.6719 1.1562 3.375 2.0781 3.375 1.1094 0 2.0625-0.9375 2.0625-2.25 0-1.2656-0.89062-2.2188-2-2.2188-0.67188 0-1.0469 0.5-1.25 0.98438zm1.1875 3.2031c-0.625 0-0.92188-0.59375-0.98438-0.75-0.1875-0.46875-0.1875-1.2656-0.1875-1.4375 0-0.78125 0.32812-1.7812 1.2188-1.7812 0.17188 0 0.625 0 0.9375 0.625 0.17188 0.35938 0.17188 0.875 0.17188 1.3594s0 0.98438-0.17188 1.3438c-0.29688 0.59375-0.75 0.64062-0.98438 0.64062z"/>
</g>
<g id="y">
<path d="m1.625-4.5625c-0.45312-0.29688-0.5-0.625-0.5-0.79688 0-0.60938 0.65625-1.0312 1.3594-1.0312 0.71875 0 1.3594 0.51562 1.3594 1.2344 0 0.57812-0.39062 1.0469-0.98438 1.3906zm1.4531 0.95312c0.71875-0.375 1.2031-0.89062 1.2031-1.5469 0-0.92188-0.875-1.4844-1.7812-1.4844-1 0-1.8125 0.73438-1.8125 1.6719 0 0.17188 0.015625 0.625 0.4375 1.0938 0.10938 0.10938 0.48438 0.35938 0.73438 0.53125-0.57812 0.29688-1.4375 0.84375-1.4375 1.8438 0 1.0469 1.0156 1.7188 2.0625 1.7188 1.125 0 2.0781-0.82812 2.0781-1.8906 0-0.35938-0.10938-0.8125-0.5-1.2344-0.1875-0.20312-0.34375-0.29688-0.98438-0.70312zm-1 0.42188 1.2344 0.78125c0.28125 0.1875 0.75 0.48438 0.75 1.0938 0 0.73438-0.75 1.25-1.5625 1.25-0.85938 0-1.5781-0.60938-1.5781-1.4375 0-0.57812 0.3125-1.2188 1.1562-1.6875z"/>
</g>
<g id="x">
<path d="m4.5781-3.1875c0-0.79688-0.046875-1.5938-0.39062-2.3281-0.45312-0.96875-1.2812-1.125-1.6875-1.125-0.60938 0-1.3281 0.26562-1.75 1.1875-0.3125 0.6875-0.35938 1.4688-0.35938 2.2656 0 0.75 0.03125 1.6406 0.45312 2.4062 0.42188 0.79688 1.1562 1 1.6406 1 0.53125 0 1.2969-0.20312 1.7344-1.1562 0.3125-0.6875 0.35938-1.4688 0.35938-2.25zm-2.0938 3.1875c-0.39062 0-0.98438-0.25-1.1562-1.2031-0.10938-0.59375-0.10938-1.5156-0.10938-2.1094 0-0.64062 0-1.2969 0.078125-1.8281 0.1875-1.1875 0.9375-1.2812 1.1875-1.2812 0.32812 0 0.98438 0.1875 1.1719 1.1719 0.10938 0.5625 0.10938 1.3125 0.10938 1.9375 0 0.75 0 1.4219-0.10938 2.0625-0.15625 0.95312-0.71875 1.25-1.1719 1.25z"/>
</g>
<g id="ad">
<path d="m2.9375-6.375c0-0.25 0-0.26562-0.23438-0.26562-0.625 0.64062-1.5 0.64062-1.8125 0.64062v0.3125c0.20312 0 0.78125 0 1.2969-0.26562v5.1719c0 0.35938-0.03125 0.46875-0.92188 0.46875h-0.3125v0.3125c0.34375-0.03125 1.2031-0.03125 1.6094-0.03125 0.39062 0 1.2656 0 1.6094 0.03125v-0.3125h-0.3125c-0.90625 0-0.92188-0.10938-0.92188-0.46875z"/>
</g>
<g id="w">
<path d="m6.6406-6.75h-6.0938l-0.1875 2.25h0.25c0.14062-1.6094 0.28125-1.9375 1.7969-1.9375 0.17188 0 0.4375 0 0.53125 0.015625 0.21875 0.046875 0.21875 0.15625 0.21875 0.375v5.2656c0 0.32812 0 0.46875-1.0469 0.46875h-0.40625v0.3125c0.40625-0.03125 1.4219-0.03125 1.8906-0.03125 0.45312 0 1.4844 0 1.8906 0.03125v-0.3125h-0.40625c-1.0469 0-1.0469-0.14062-1.0469-0.46875v-5.2656c0-0.1875 0-0.32812 0.1875-0.375 0.10938-0.015625 0.375-0.015625 0.5625-0.015625 1.5156 0 1.6562 0.32812 1.7969 1.9375h0.25z"/>
</g>
<g id="ae">
<path d="m0.34375-6.8125v0.3125h0.25c0.76562 0 0.78125 0.10938 0.78125 0.46875v5.25c0 0.35938-0.015625 0.46875-0.78125 0.46875h-0.25v0.3125h3.6562c1.6719 0 3.0469-1.4688 3.0469-3.3438 0-1.9062-1.3438-3.4688-3.0469-3.4688zm2.375 6.5c-0.46875 0-0.48438-0.0625-0.48438-0.39062v-5.3906c0-0.34375 0.015625-0.40625 0.48438-0.40625h1c0.625 0 1.3125 0.21875 1.8125 0.92188 0.4375 0.59375 0.51562 1.4531 0.51562 2.2344 0 1.0938-0.1875 1.7031-0.54688 2.1875-0.20312 0.26562-0.76562 0.84375-1.7656 0.84375z"/>
</g>
<g id="v">
<path d="m5.9062-0.625c0.14062 0.21875 0.53125 0.60938 0.64062 0.60938 0.09375 0 0.09375-0.078125 0.09375-0.21875v-1.7344c0-0.39062 0.03125-0.4375 0.6875-0.4375v-0.3125c-0.375 0-0.92188 0.03125-1.2188 0.03125-0.39062 0-1.25 0-1.6094-0.03125v0.3125h0.32812c0.89062 0 0.92188 0.10938 0.92188 0.46875v0.64062c0 1.125-1.2656 1.2031-1.5469 1.2031-0.64062 0-2.625-0.34375-2.625-3.3125 0-2.9844 1.9688-3.3125 2.5625-3.3125 1.0781 0 1.9844 0.89062 2.1719 2.3594 0.03125 0.14062 0.03125 0.17188 0.17188 0.17188 0.15625 0 0.15625-0.03125 0.15625-0.23438v-2.3594c0-0.17188 0-0.25-0.10938-0.25-0.046875 0-0.078125 0-0.15625 0.125l-0.5 0.73438c-0.32812-0.3125-0.85938-0.85938-1.8438-0.85938-1.8594 0-3.4688 1.5781-3.4688 3.625s1.5938 3.625 3.4844 3.625c0.73438 0 1.5312-0.26562 1.8594-0.84375z"/>
</g>
<clipPath id="az">
<path d="m140 177h87v57.906h-87z"/>
</clipPath>
<clipPath id="ay">
<path d="m225 155h24v45h-24z"/>
</clipPath>
<clipPath id="ar">
<path d="m1.5273 234.91h398v-235h-398zm223.73-34.957v-1.6055l5.8242-1.1055-0.94141 1.8906 0.94141 1.8906z" clip-rule="evenodd"/>
</clipPath>
<clipPath id="aq">
<path d="m225 155h130v60h-130z"/>
</clipPath>
<clipPath id="ap">
<path d="m1.5273 234.91h398v-235h-398zm223.73-20.781v-1.6094l5.8242-1.1016-0.94141 1.8906 0.94141 1.8906z" clip-rule="evenodd"/>
</clipPath>
<clipPath id="ao">
<path d="m111 155h31v45h-31z"/>
</clipPath>
<clipPath id="an">
<path d="m1.5273 234.91h398v-235h-398zm140.28-36.562v1.6055l-5.8594 1.0703 0.94531-1.8906-0.94531-1.8906z" clip-rule="evenodd"/>
</clipPath>
<clipPath id="am">
<path d="m64 85h1v30h-1z"/>
</clipPath>
<clipPath id="al">
<path d="m1.5273 234.91h398v-235h-398zm63.137-120.61h-0.4375l-1.6719-5.2617 1.8906 0.94531 1.8906-0.94531zm-0.4375-28.793h0.4375l1.6719 5.2617-1.8906-0.94531-1.8906 0.94531z" clip-rule="evenodd"/>
</clipPath>
<clipPath id="ak">
<path d="m63 113h2v29h-2z"/>
</clipPath>
<clipPath id="ax">
<path d="m1.5273 234.91h398v-235h-398zm62.602-93.672h-0.44141l-1.668-5.2617 1.8906 0.94531 1.8906-0.94531zm-0.44141-27.375h0.44141l1.6719 5.2617-1.8906-0.94531-1.8906 0.94531z" clip-rule="evenodd"/>
</clipPath>
<clipPath id="aw">
<path d="m308 99h91.527v2h-91.527z"/>
</clipPath>
<clipPath id="av">
<path d="m308 113h91.527v2h-91.527z"/>
</clipPath>
<clipPath id="au">
<path d="m308 128h91.527v1h-91.527z"/>
</clipPath>
<clipPath id="at">
<path d="m308 142h91.527v1h-91.527z"/>
</clipPath>
<clipPath id="as">
<path d="m308 85h91.527v72h-91.527z"/>
</clipPath>
</defs>
<g clip-path="url(#az)">
<path transform="matrix(.1 0 0 -.1 1.528 234.9)" d="m1394.6 3.3859h850.47v566.99h-850.47z" fill="none" stroke="#000" stroke-miterlimit="10" stroke-width="2.3625"/>
</g>
<path transform="matrix(.1 0 0 -.1 1.528 234.9)" d="m1465.5 2058.7c0-117.42-158.67-212.62-354.38-212.62s-354.38 95.195-354.38 212.62c0 117.46 158.67 212.66 354.38 212.66s354.38-95.195 354.38-212.66z" fill="none" stroke="#000" stroke-miterlimit="10" stroke-width="2.3625"/>
<path transform="matrix(.1 0 0 -.1 1.528 234.9)" d="m685.89 1775.3h850.47v566.99h-850.47z" fill="none" stroke="#000" stroke-miterlimit="10" stroke-width="2.3625"/>
<path transform="matrix(.1 0 0 -.1 1.528 234.9)" d="m3804.4 2058.7c0-117.42-158.67-212.62-354.38-212.62s-354.38 95.195-354.38 212.62c0 117.46 158.67 212.66 354.38 212.66s354.38-95.195 354.38-212.66z" fill="none" stroke="#000" stroke-miterlimit="10" stroke-width="2.3625"/>
<path transform="matrix(.1 0 0 -.1 1.528 234.9)" d="m2953.9 2058.7c0-117.42-158.63-212.62-354.38-212.62-195.7 0-354.38 95.195-354.38 212.62 0 117.46 158.67 212.66 354.38 212.66 195.74 0 354.38-95.195 354.38-212.66z" fill="none" stroke="#000" stroke-miterlimit="10" stroke-width="2.3625"/>
<g clip-path="url(#ay)">
<g clip-path="url(#ar)">
<path transform="matrix(.1 0 0 -.1 1.528 234.9)" d="m2457.8 783v-425.23h-212.66" fill="none" stroke="#000" stroke-miterlimit="10" stroke-width="14.175"/>
</g>
</g>
<path d="m231.08 197.24-4.7227 1.8906 4.7227 1.8906-0.94141-1.8906 0.94141-1.8906" fill-rule="evenodd"/>
<path transform="matrix(.1 0 0 -.1 1.528 234.9)" d="m2295.5 376.67-47.227-18.906 47.227-18.906-9.4141 18.906z" fill="none" stroke="#000" stroke-miterlimit="10" stroke-width="2.3625"/>
<g clip-path="url(#aq)">
<g clip-path="url(#ap)">
<path transform="matrix(.1 0 0 -.1 1.528 234.9)" d="m3520.9 783v-566.99h-1275.8" fill="none" stroke="#000" stroke-miterlimit="10" stroke-width="14.175"/>
</g>
</g>
<path d="m231.08 211.41-4.7227 1.8906 4.7227 1.8906-0.94141-1.8906 0.94141-1.8906" fill-rule="evenodd"/>
<path transform="matrix(.1 0 0 -.1 1.528 234.9)" d="m2295.5 234.91-47.227-18.906 47.227-18.906-9.4141 18.906z" fill="none" stroke="#000" stroke-miterlimit="10" stroke-width="2.3625"/>
<g clip-path="url(#ao)">
<g clip-path="url(#an)">
<path transform="matrix(.1 0 0 -.1 1.528 234.9)" d="m1111.1 783v-425.23h283.52" fill="none" stroke="#000" stroke-miterlimit="10" stroke-width="14.175"/>
</g>
</g>
<path d="m135.95 201.02 4.7266-1.8906-4.7266-1.8906 0.94531 1.8906-0.94531 1.8906" fill-rule="evenodd"/>
<path transform="matrix(.1 0 0 -.1 1.528 234.9)" d="m1344.2 338.85 47.266 18.906-47.266 18.906 9.4531-18.906z" fill="none" stroke="#000" stroke-miterlimit="10" stroke-width="2.3625"/>
<path transform="matrix(.1 0 0 -.1 1.528 234.9)" d="m2004.1 1350h907.23" fill="none" stroke="#000" stroke-miterlimit="10" stroke-width="2.3625"/>
<path transform="matrix(.1 0 0 -.1 1.528 234.9)" d="m2004.1 1208.3h907.23" fill="none" stroke="#000" stroke-miterlimit="10" stroke-width="2.3625"/>
<path transform="matrix(.1 0 0 -.1 1.528 234.9)" d="m2004.1 1066.5h907.23" fill="none" stroke="#000" stroke-miterlimit="10" stroke-width="2.3625"/>
<path transform="matrix(.1 0 0 -.1 1.528 234.9)" d="m2004.1 924.75h907.23" fill="none" stroke="#000" stroke-miterlimit="10" stroke-width="2.3625"/>
<path transform="matrix(.1 0 0 -.1 1.528 234.9)" d="m2004.1 783h907.23v708.75h-907.23z" fill="none" stroke="#000" stroke-miterlimit="10" stroke-width="2.3625"/>
<path transform="matrix(.1 0 0 -.1 1.528 234.9)" d="m657.53 1350h907.19" fill="none" stroke="#000" stroke-miterlimit="10" stroke-width="2.3625"/>
<path transform="matrix(.1 0 0 -.1 1.528 234.9)" d="m600.81 1208.3h963.91" fill="none" stroke="#000" stroke-miterlimit="10" stroke-width="2.3625"/>
<path transform="matrix(.1 0 0 -.1 1.528 234.9)" d="m657.53 1066.5h907.19" fill="none" stroke="#000" stroke-miterlimit="10" stroke-width="2.3625"/>
<path transform="matrix(.1 0 0 -.1 1.528 234.9)" d="m657.53 924.75h907.19" fill="none" stroke="#000" stroke-miterlimit="10" stroke-width="2.3625"/>
<path transform="matrix(.1 0 0 -.1 1.528 234.9)" d="m657.53 783h907.19v708.75h-907.19z" fill="none" stroke="#000" stroke-miterlimit="10" stroke-width="2.3625"/>
<g clip-path="url(#am)">
<g clip-path="url(#al)">
<path transform="matrix(.1 0 0 -.1 1.528 234.9)" d="m629.17 1491.7v-283.48" fill="none" stroke="#000" stroke-miterlimit="10" stroke-width="2.3625"/>
</g>
</g>
<path d="m66.336 90.77-1.8906-4.7227-1.8906 4.7227 1.8906-0.94531 1.8906 0.94531" fill-rule="evenodd"/>
<path transform="matrix(.1 0 0 -.1 1.528 234.9)" d="m648.08 1441.4-18.906 47.227-18.906-47.227 18.906 9.4531z" fill="none" stroke="#000" stroke-miterlimit="10" stroke-width="2.3625"/>
<path d="m62.555 109.04 1.8906 4.7266 1.8906-4.7266-1.8906 0.94531-1.8906-0.94531" fill-rule="evenodd"/>
<path transform="matrix(.1 0 0 -.1 1.528 234.9)" d="m610.27 1258.7 18.906-47.266 18.906 47.266-18.906-9.4531z" fill="none" stroke="#000" stroke-miterlimit="10" stroke-width="2.3625"/>
<path transform="matrix(.1 0 0 -.1 1.528 234.9)" d="m643.35 1208.3h14.18" fill="none" stroke="#000" stroke-miterlimit="10" stroke-width="2.3625"/>
<g clip-path="url(#ak)">
<g clip-path="url(#ax)">
<path transform="matrix(.1 0 0 -.1 1.528 234.9)" d="m623.82 1208.3v-269.34" fill="none" stroke="#000" stroke-miterlimit="10" stroke-width="2.3625"/>
</g>
</g>
<path d="m65.801 119.12-1.8906-4.7266-1.8906 4.7266 1.8906-0.94531 1.8906 0.94531" fill-rule="evenodd"/>
<path transform="matrix(.1 0 0 -.1 1.528 234.9)" d="m642.73 1157.8-18.906 47.266-18.906-47.266 18.906 9.4531z" fill="none" stroke="#000" stroke-miterlimit="10" stroke-width="2.3625"/>
<path d="m62.02 135.97 1.8906 4.7266 1.8906-4.7266-1.8906 0.94531-1.8906-0.94531" fill-rule="evenodd"/>
<path transform="matrix(.1 0 0 -.1 1.528 234.9)" d="m604.92 989.32 18.906-47.266 18.906 47.266-18.906-9.4531z" fill="none" stroke="#000" stroke-miterlimit="10" stroke-width="2.3625"/>
<path transform="matrix(.1 0 0 -.1 1.528 234.9)" d="m1111.1 1775.3v-283.52" fill="none" stroke="#000" stroke-miterlimit="10" stroke-width="14.175"/>
<g clip-path="url(#aw)">
<path transform="matrix(.1 0 0 -.1 1.528 234.9)" d="m3067.3 1350h907.23" fill="none" stroke="#000" stroke-miterlimit="10" stroke-width="2.3625"/>
</g>
<g clip-path="url(#av)">
<path transform="matrix(.1 0 0 -.1 1.528 234.9)" d="m3067.3 1208.3h907.23" fill="none" stroke="#000" stroke-miterlimit="10" stroke-width="2.3625"/>
</g>
<g clip-path="url(#au)">
<path transform="matrix(.1 0 0 -.1 1.528 234.9)" d="m3067.3 1066.5h907.23" fill="none" stroke="#000" stroke-miterlimit="10" stroke-width="2.3625"/>
</g>
<g clip-path="url(#at)">
<path transform="matrix(.1 0 0 -.1 1.528 234.9)" d="m3067.3 924.75h907.23" fill="none" stroke="#000" stroke-miterlimit="10" stroke-width="2.3625"/>
</g>
<g clip-path="url(#as)">
<path transform="matrix(.1 0 0 -.1 1.528 234.9)" d="m3067.3 783h907.23v708.75h-907.23z" fill="none" stroke="#000" stroke-miterlimit="10" stroke-width="2.3625"/>
</g>
<path transform="matrix(.1 0 0 -.1 1.528 234.9)" d="m2174.3 1775.3h1701v566.99h-1701z" fill="none" stroke="#000" stroke-miterlimit="10" stroke-width="2.3625"/>
<path transform="matrix(.1 0 0 -.1 1.528 234.9)" d="m2528.6 1775.3v-283.52" fill="none" stroke="#000" stroke-miterlimit="10" stroke-width="14.175"/>
<path transform="matrix(.1 0 0 -.1 1.528 234.9)" d="m3450 1775.3v-283.52" fill="none" stroke="#000" stroke-miterlimit="10" stroke-width="14.175"/>
<path transform="matrix(.1 0 0 -.1 1.528 234.9)" d="m2174.3 286.86c0-117.42-158.67-212.62-354.38-212.62s-354.38 95.195-354.38 212.62 158.67 212.66 354.38 212.66 354.38-95.234 354.38-212.66z" fill="none" stroke="#000" stroke-miterlimit="10" stroke-width="2.3625"/>
<g>
<use x="108.022" y="221.771" xlink:href="#m"/>
<use x="115.49395" y="221.771" xlink:href="#c"/>
<use x="120.47525" y="221.771" xlink:href="#d"/>
<use x="124.404499" y="221.771" xlink:href="#b"/>
<use x="131.5965" y="221.771" xlink:href="#u"/>
<use x="153.338" y="210.431" xlink:href="#t"/>
<use x="162.750664" y="210.431" xlink:href="#a"/>
<use x="167.178044" y="210.431" xlink:href="#s"/>
<use x="172.713264" y="210.431" xlink:href="#n"/>
<use x="176.033799" y="210.431" xlink:href="#aj"/>
<use x="181.56902" y="210.431" xlink:href="#a"/>
<use x="185.996399" y="210.431" xlink:href="#f"/>
<use x="189.898749" y="210.431" xlink:href="#ai"/>
<use x="194.878057" y="210.431" xlink:href="#a"/>
<use x="199.305436" y="210.431" xlink:href="#f"/>
<use x="206.525333" y="210.431" xlink:href="#ah"/>
<use x="82.703" y="32.53" xlink:href="#t"/>
<use x="92.115664" y="32.53" xlink:href="#a"/>
<use x="96.543044" y="32.53" xlink:href="#s"/>
<use x="102.078264" y="32.53" xlink:href="#n"/>
<use x="105.398799" y="32.53" xlink:href="#r"/>
<use x="112.593789" y="32.53" xlink:href="#q"/>
<use x="115.361399" y="32.53" xlink:href="#e"/>
<use x="118.129009" y="32.53" xlink:href="#a"/>
<use x="122.556389" y="32.53" xlink:href="#g"/>
<use x="127.812657" y="32.53" xlink:href="#b"/>
<use x="135.004657" y="32.53" xlink:href="#ag"/>
<use x="211.656" y="109.795" xlink:href="#j"/>
<use x="217.191221" y="109.795" xlink:href="#a"/>
<use x="221.6186" y="109.795" xlink:href="#d"/>
<use x="225.547849" y="109.795" xlink:href="#b"/>
<use x="229.422305" y="109.795" xlink:href="#e"/>
<use x="232.189915" y="109.795" xlink:href="#g"/>
<use x="237.725135" y="109.795" xlink:href="#k"/>
<use x="242.706435" y="109.795" xlink:href="#b"/>
<use x="246.580891" y="109.795" xlink:href="#e"/>
<use x="249.348501" y="109.795" xlink:href="#c"/>
<use x="254.329801" y="109.795" xlink:href="#g"/>
<use x="259.865021" y="109.795" xlink:href="#l"/>
<use x="263.462516" y="109.795" xlink:href="#h"/>
<use x="270.243062" y="109.795" xlink:href="#i"/>
<use x="276.328218" y="109.795" xlink:href="#u"/>
<use x="208.515" y="123.969" xlink:href="#d"/>
<use x="212.444249" y="123.969" xlink:href="#c"/>
<use x="217.425549" y="123.969" xlink:href="#p"/>
<use x="222.96077" y="123.969" xlink:href="#f"/>
<use x="226.86312" y="123.969" xlink:href="#o"/>
<use x="231.2905" y="123.969" xlink:href="#a"/>
<use x="235.717879" y="123.969" xlink:href="#h"/>
<use x="242.219472" y="123.969" xlink:href="#c"/>
<use x="247.200772" y="123.969" xlink:href="#f"/>
<use x="251.103122" y="123.969" xlink:href="#b"/>
<use x="254.977578" y="123.969" xlink:href="#i"/>
<use x="261.072696" y="123.969" xlink:href="#ac"/>
<use x="266.053996" y="123.969" xlink:href="#ab"/>
<use x="271.035296" y="123.969" xlink:href="#aa"/>
<use x="276.016596" y="123.969" xlink:href="#z"/>
<use x="280.997896" y="123.969" xlink:href="#af"/>
<use x="206.902" y="138.143" xlink:href="#j"/>
<use x="212.437221" y="138.143" xlink:href="#a"/>
<use x="216.8646" y="138.143" xlink:href="#d"/>
<use x="220.793849" y="138.143" xlink:href="#b"/>
<use x="224.668305" y="138.143" xlink:href="#e"/>
<use x="227.435915" y="138.143" xlink:href="#g"/>
<use x="232.971135" y="138.143" xlink:href="#k"/>
<use x="237.952435" y="138.143" xlink:href="#b"/>
<use x="241.826891" y="138.143" xlink:href="#e"/>
<use x="244.594501" y="138.143" xlink:href="#c"/>
<use x="249.575801" y="138.143" xlink:href="#g"/>
<use x="255.111021" y="138.143" xlink:href="#h"/>
<use x="261.612614" y="138.143" xlink:href="#c"/>
<use x="266.593914" y="138.143" xlink:href="#f"/>
<use x="270.496265" y="138.143" xlink:href="#b"/>
<use x="274.37072" y="138.143" xlink:href="#i"/>
<use x="280.455876" y="138.143" xlink:href="#y"/>
<use x="285.437176" y="138.143" xlink:href="#x"/>
<use x="86.043" y="95.621" xlink:href="#d"/>
<use x="89.972249" y="95.621" xlink:href="#c"/>
<use x="94.953549" y="95.621" xlink:href="#p"/>
<use x="100.48877" y="95.621" xlink:href="#f"/>
<use x="104.39112" y="95.621" xlink:href="#o"/>
<use x="108.8185" y="95.621" xlink:href="#a"/>
<use x="113.245879" y="95.621" xlink:href="#l"/>
<use x="116.843374" y="95.621" xlink:href="#h"/>
<use x="123.62392" y="95.621" xlink:href="#i"/>
<use x="129.709076" y="95.621" xlink:href="#m"/>
<use x="76.025" y="109.795" xlink:href="#j"/>
<use x="81.560221" y="109.795" xlink:href="#a"/>
<use x="85.9876" y="109.795" xlink:href="#d"/>
<use x="89.916849" y="109.795" xlink:href="#b"/>
<use x="93.791305" y="109.795" xlink:href="#e"/>
<use x="96.558915" y="109.795" xlink:href="#g"/>
<use x="102.094135" y="109.795" xlink:href="#k"/>
<use x="107.075435" y="109.795" xlink:href="#b"/>
<use x="110.949891" y="109.795" xlink:href="#e"/>
<use x="113.717501" y="109.795" xlink:href="#c"/>
<use x="118.698801" y="109.795" xlink:href="#g"/>
<use x="124.234021" y="109.795" xlink:href="#l"/>
<use x="127.831516" y="109.795" xlink:href="#h"/>
<use x="134.612062" y="109.795" xlink:href="#i"/>
<use x="140.697218" y="109.795" xlink:href="#u"/>
<use x="72.884" y="123.969" xlink:href="#d"/>
<use x="76.813249" y="123.969" xlink:href="#c"/>
<use x="81.794549" y="123.969" xlink:href="#p"/>
<use x="87.32977" y="123.969" xlink:href="#f"/>
<use x="91.23212" y="123.969" xlink:href="#o"/>
<use x="95.6595" y="123.969" xlink:href="#a"/>
<use x="100.086879" y="123.969" xlink:href="#h"/>
<use x="106.588472" y="123.969" xlink:href="#c"/>
<use x="111.569772" y="123.969" xlink:href="#f"/>
<use x="115.472122" y="123.969" xlink:href="#b"/>
<use x="119.346578" y="123.969" xlink:href="#i"/>
<use x="125.441696" y="123.969" xlink:href="#ad"/>
<use x="130.422996" y="123.969" xlink:href="#ac"/>
<use x="135.404296" y="123.969" xlink:href="#ab"/>
<use x="140.385596" y="123.969" xlink:href="#aa"/>
<use x="145.366896" y="123.969" xlink:href="#z"/>
<use x="71.24" y="138.143" xlink:href="#j"/>
<use x="76.775221" y="138.143" xlink:href="#a"/>
<use x="81.2026" y="138.143" xlink:href="#d"/>
<use x="85.131849" y="138.143" xlink:href="#b"/>
<use x="89.006305" y="138.143" xlink:href="#e"/>
<use x="91.773915" y="138.143" xlink:href="#g"/>
<use x="97.309135" y="138.143" xlink:href="#k"/>
<use x="102.290435" y="138.143" xlink:href="#b"/>
<use x="106.164891" y="138.143" xlink:href="#e"/>
<use x="108.932501" y="138.143" xlink:href="#c"/>
<use x="113.913801" y="138.143" xlink:href="#g"/>
<use x="119.449021" y="138.143" xlink:href="#h"/>
<use x="125.950614" y="138.143" xlink:href="#c"/>
<use x="130.931914" y="138.143" xlink:href="#f"/>
<use x="134.834265" y="138.143" xlink:href="#b"/>
<use x="138.70872" y="138.143" xlink:href="#i"/>
<use x="144.793876" y="138.143" xlink:href="#y"/>
<use x="149.775176" y="138.143" xlink:href="#x"/>
<use x="11.268" y="106.488" xlink:href="#l"/>
<use x="14.865495" y="106.488" xlink:href="#h"/>
<use x="21.64604" y="106.488" xlink:href="#n"/>
<use x="24.966575" y="106.488" xlink:href="#m"/>
<use x="32.438525" y="106.488" xlink:href="#a"/>
<use x="36.865904" y="106.488" xlink:href="#k"/>
<use x="41.847204" y="106.488" xlink:href="#j"/>
<use x="47.382425" y="106.488" xlink:href="#a"/>
<use x="51.809804" y="106.488" xlink:href="#f"/>
<use x="55.712155" y="106.488" xlink:href="#d"/>
<use x="26.101" y="94.203" xlink:href="#w"/>
<use x="32.469094" y="94.203" xlink:href="#a"/>
<use x="36.896473" y="94.203" xlink:href="#e"/>
<use x="39.664084" y="94.203" xlink:href="#q"/>
<use x="45.74924" y="94.203" xlink:href="#j"/>
<use x="51.28446" y="94.203" xlink:href="#a"/>
<use x="55.71184" y="94.203" xlink:href="#d"/>
<use x="26.101" y="125.386" xlink:href="#w"/>
<use x="32.469094" y="125.386" xlink:href="#a"/>
<use x="36.896473" y="125.386" xlink:href="#e"/>
<use x="39.664084" y="125.386" xlink:href="#q"/>
<use x="45.74924" y="125.386" xlink:href="#j"/>
<use x="51.28446" y="125.386" xlink:href="#a"/>
<use x="55.71184" y="125.386" xlink:href="#d"/>
<use x="0.475" y="137.671" xlink:href="#w"/>
<use x="7.66999" y="137.671" xlink:href="#r"/>
<use x="14.864979" y="137.671" xlink:href="#h"/>
<use x="21.645525" y="137.671" xlink:href="#n"/>
<use x="24.96606" y="137.671" xlink:href="#m"/>
<use x="32.43801" y="137.671" xlink:href="#a"/>
<use x="36.865389" y="137.671" xlink:href="#k"/>
<use x="41.846689" y="137.671" xlink:href="#j"/>
<use x="47.38191" y="137.671" xlink:href="#a"/>
<use x="51.809289" y="137.671" xlink:href="#f"/>
<use x="55.711639" y="137.671" xlink:href="#d"/>
<use x="311.791" y="138.143" xlink:href="#j"/>
<use x="317.326221" y="138.143" xlink:href="#a"/>
<use x="321.7536" y="138.143" xlink:href="#d"/>
<use x="325.682849" y="138.143" xlink:href="#b"/>
<use x="329.557305" y="138.143" xlink:href="#e"/>
<use x="332.324915" y="138.143" xlink:href="#g"/>
<use x="337.860135" y="138.143" xlink:href="#k"/>
<use x="342.841435" y="138.143" xlink:href="#b"/>
<use x="346.715891" y="138.143" xlink:href="#e"/>
<use x="349.483501" y="138.143" xlink:href="#c"/>
<use x="354.464801" y="138.143" xlink:href="#g"/>
<use x="360.000021" y="138.143" xlink:href="#h"/>
<use x="366.501614" y="138.143" xlink:href="#c"/>
<use x="371.482914" y="138.143" xlink:href="#f"/>
<use x="375.385265" y="138.143" xlink:href="#b"/>
<use x="379.25972" y="138.143" xlink:href="#i"/>
<use x="385.344876" y="138.143" xlink:href="#y"/>
<use x="390.326176" y="138.143" xlink:href="#x"/>
<use x="314.821" y="123.969" xlink:href="#d"/>
<use x="318.750249" y="123.969" xlink:href="#c"/>
<use x="323.731549" y="123.969" xlink:href="#p"/>
<use x="329.26677" y="123.969" xlink:href="#f"/>
<use x="333.16912" y="123.969" xlink:href="#o"/>
<use x="337.5965" y="123.969" xlink:href="#a"/>
<use x="342.023879" y="123.969" xlink:href="#h"/>
<use x="348.525472" y="123.969" xlink:href="#c"/>
<use x="353.506772" y="123.969" xlink:href="#f"/>
<use x="357.409122" y="123.969" xlink:href="#b"/>
<use x="361.283578" y="123.969" xlink:href="#i"/>
<use x="367.378696" y="123.969" xlink:href="#ad"/>
<use x="372.359996" y="123.969" xlink:href="#ac"/>
<use x="377.341296" y="123.969" xlink:href="#ab"/>
<use x="382.322596" y="123.969" xlink:href="#aa"/>
<use x="387.303896" y="123.969" xlink:href="#z"/>
<use x="317.962" y="109.795" xlink:href="#j"/>
<use x="323.497221" y="109.795" xlink:href="#a"/>
<use x="327.9246" y="109.795" xlink:href="#d"/>
<use x="331.853849" y="109.795" xlink:href="#b"/>
<use x="335.728305" y="109.795" xlink:href="#e"/>
<use x="338.495915" y="109.795" xlink:href="#g"/>
<use x="344.031135" y="109.795" xlink:href="#k"/>
<use x="349.012435" y="109.795" xlink:href="#b"/>
<use x="352.886891" y="109.795" xlink:href="#e"/>
<use x="355.654501" y="109.795" xlink:href="#c"/>
<use x="360.635801" y="109.795" xlink:href="#g"/>
<use x="366.171021" y="109.795" xlink:href="#l"/>
<use x="369.768516" y="109.795" xlink:href="#h"/>
<use x="376.549062" y="109.795" xlink:href="#i"/>
<use x="382.634218" y="109.795" xlink:href="#u"/>
<use x="231.462" y="32.53" xlink:href="#t"/>
<use x="240.874664" y="32.53" xlink:href="#a"/>
<use x="245.302044" y="32.53" xlink:href="#s"/>
<use x="250.837264" y="32.53" xlink:href="#n"/>
<use x="254.157799" y="32.53" xlink:href="#r"/>
<use x="261.352789" y="32.53" xlink:href="#q"/>
<use x="264.120399" y="32.53" xlink:href="#e"/>
<use x="266.888009" y="32.53" xlink:href="#a"/>
<use x="271.315389" y="32.53" xlink:href="#g"/>
<use x="276.571657" y="32.53" xlink:href="#b"/>
<use x="283.763657" y="32.53" xlink:href="#ae"/>
<use x="316.718942" y="32.53" xlink:href="#t"/>
<use x="326.121644" y="32.53" xlink:href="#a"/>
<use x="330.549023" y="32.53" xlink:href="#s"/>
<use x="336.084244" y="32.53" xlink:href="#n"/>
<use x="339.404778" y="32.53" xlink:href="#r"/>
<use x="346.599768" y="32.53" xlink:href="#q"/>
<use x="349.367378" y="32.53" xlink:href="#e"/>
<use x="352.134989" y="32.53" xlink:href="#a"/>
<use x="356.562368" y="32.53" xlink:href="#g"/>
<use x="361.818636" y="32.53" xlink:href="#b"/>
<use x="369.020599" y="32.53" xlink:href="#r"/>
<use x="221.501" y="95.621" xlink:href="#d"/>
<use x="225.430249" y="95.621" xlink:href="#c"/>
<use x="230.411549" y="95.621" xlink:href="#p"/>
<use x="235.94677" y="95.621" xlink:href="#f"/>
<use x="239.84912" y="95.621" xlink:href="#o"/>
<use x="244.2765" y="95.621" xlink:href="#a"/>
<use x="248.703879" y="95.621" xlink:href="#l"/>
<use x="252.301374" y="95.621" xlink:href="#h"/>
<use x="259.08192" y="95.621" xlink:href="#i"/>
<use x="265.167076" y="95.621" xlink:href="#v"/>
<use x="327.808916" y="95.621" xlink:href="#d"/>
<use x="331.738165" y="95.621" xlink:href="#c"/>
<use x="336.719465" y="95.621" xlink:href="#p"/>
<use x="342.254686" y="95.621" xlink:href="#f"/>
<use x="346.157036" y="95.621" xlink:href="#o"/>
<use x="350.584416" y="95.621" xlink:href="#a"/>
<use x="355.011795" y="95.621" xlink:href="#l"/>
<use x="358.60929" y="95.621" xlink:href="#h"/>
<use x="365.389836" y="95.621" xlink:href="#i"/>
<use x="371.474992" y="95.621" xlink:href="#v"/>
<use x="36.183" y="30.42" xlink:href="#m"/>
<use x="43.65495" y="30.42" xlink:href="#c"/>
<use x="48.63625" y="30.42" xlink:href="#d"/>
<use x="52.565499" y="30.42" xlink:href="#b"/>
<use x="59.7575" y="30.42" xlink:href="#m"/>
<use x="184.668579" y="30.42" xlink:href="#m"/>
<use x="192.140529" y="30.42" xlink:href="#c"/>
<use x="197.121829" y="30.42" xlink:href="#d"/>
<use x="201.051079" y="30.42" xlink:href="#b"/>
<use x="208.24308" y="30.42" xlink:href="#v"/>
</g>
</svg>
