<svg width="365pt" height="137pt" version="1.1" viewBox="0 0 365 137" xmlns="http://www.w3.org/2000/svg" xmlns:xlink="http://www.w3.org/1999/xlink">
<defs>
<g id="t">
<path d="m7.1094-4.1875c0.0625-0.26562 0.078125-0.32812 0.59375-0.32812 0.15625 0 0.23438 0 0.23438-0.14062 0-0.10938-0.078125-0.10938-0.20312-0.10938h-0.95312c-0.20312 0-0.20312 0.015625-0.29688 0.14062l-2.6875 3.9844-0.6875-3.9375c-0.03125-0.17188-0.03125-0.1875-0.25-0.1875h-0.98438c-0.14062 0-0.23438 0-0.23438 0.15625 0 0.09375 0.078125 0.09375 0.23438 0.09375 0.10938 0 0.14062 0 0.26562 0.015625 0.14062 0.015625 0.15625 0.03125 0.15625 0.10938 0 0 0 0.046875-0.03125 0.14062l-0.875 3.5c-0.0625 0.23438-0.17188 0.48438-0.73438 0.5-0.046875 0-0.14062 0-0.14062 0.15625 0 0 0 0.09375 0.10938 0.09375 0.20312 0 0.5-0.03125 0.71875-0.03125 0.17188 0 0.57812 0.03125 0.73438 0.03125 0.046875 0 0.14062 0 0.14062-0.15625 0-0.09375-0.09375-0.09375-0.15625-0.09375-0.4375-0.015625-0.4375-0.20312-0.4375-0.29688 0-0.03125 0-0.0625 0.03125-0.17188l0.92188-3.7031 0.75 4.2344c0.03125 0.125 0.03125 0.1875 0.14062 0.1875 0.09375 0 0.15625-0.078125 0.20312-0.15625l2.9219-4.3438 0.015625 0.015625-0.98438 3.9375c-0.0625 0.23438-0.078125 0.29688-0.60938 0.29688-0.125 0-0.21875 0-0.21875 0.15625 0 0 0 0.09375 0.10938 0.09375 0.14062 0 0.29688-0.015625 0.4375-0.015625s0.29688-0.015625 0.4375-0.015625c0.20312 0 0.6875 0.03125 0.89062 0.03125 0.03125 0 0.14062 0 0.14062-0.15625 0-0.09375-0.078125-0.09375-0.21875-0.09375-0.015625 0-0.14062 0-0.26562-0.015625-0.15625-0.015625-0.15625-0.03125-0.15625-0.10938 0-0.03125 0.015625-0.10938 0.015625-0.14062z"/>
</g>
<g id="s">
<path d="m3.6719-6.2344c-0.046875-0.10938-0.078125-0.1875-0.21875-0.1875s-0.15625 0.046875-0.21875 0.20312l-1.9219 5.3281c-0.10938 0.29688-0.3125 0.60938-1 0.60938v0.28125c0.32812-0.03125 0.57812-0.03125 0.90625-0.03125 0.3125 0 0.51562 0.015625 1.0156 0.03125v-0.28125c-0.51562 0-0.67188-0.28125-0.67188-0.45312 0-0.078125 0.03125-0.125 0.046875-0.17188l0.42188-1.1562h2.3125l0.48438 1.3594c0.046875 0.078125 0.046875 0.10938 0.046875 0.15625 0 0.26562-0.5 0.26562-0.73438 0.26562v0.28125c0.40625-0.03125 0.875-0.03125 1.2812-0.03125s0.4375 0 1.1719 0.03125v-0.28125h-0.14062c-0.5625 0-0.65625-0.078125-0.75-0.32812zm0.57812 3.8906h-2.125l1.0625-2.9375z"/>
</g>
<g id="c">
<path d="m1.6719-2.3281c0-0.95312 0.67188-1.4062 1.2344-1.4062 0.53125 0 0.64062 0.4375 0.64062 0.96875v2.0781c0 0.40625-0.09375 0.40625-0.6875 0.40625v0.28125c0.42188-0.015625 0.59375-0.03125 1.0312-0.03125 0.42188 0 0.54688 0.015625 1.0156 0.03125v-0.28125c-0.45312 0-0.6875 0-0.6875-0.28125v-1.7188c0-0.73438 0-1-0.25-1.3125-0.20312-0.25-0.54688-0.375-1-0.375-0.82812 0-1.2188 0.625-1.3438 0.875h-0.015625v-0.875l-1.2969 0.10938v0.26562c0.60938 0 0.6875 0.0625 0.6875 0.51562v2.3906c0 0.40625-0.09375 0.40625-0.6875 0.40625v0.28125c0.42188-0.015625 0.59375-0.03125 1.0312-0.03125 0.42188 0 0.54688 0.015625 1.0156 0.03125v-0.28125c-0.59375 0-0.6875 0-0.6875-0.40625z"/>
</g>
<g id="p">
<path d="m5.7188-3c0.1875-0.54688 0.5625-0.57812 0.75-0.59375v-0.26562c-0.35938 0.015625-0.375 0.015625-0.67188 0.015625-0.34375 0-0.46875 0-0.82812-0.015625v0.26562c0.39062 0.015625 0.51562 0.25 0.51562 0.4375 0 0.09375-0.015625 0.14062-0.046875 0.20312l-0.82812 2.25-0.90625-2.4688c-0.046875-0.10938-0.046875-0.14062-0.046875-0.17188 0-0.21875 0.28125-0.25 0.51562-0.25v-0.26562c-0.40625 0.015625-0.78125 0.015625-0.92188 0.015625-0.28125 0-0.54688 0-0.82812-0.015625v0.26562c0.28125 0 0.46875 0.015625 0.5625 0.14062 0.078125 0.09375 0.20312 0.45312 0.20312 0.48438 0 0.015625-0.046875 0.10938-0.046875 0.125l-0.73438 2.0156-0.85938-2.3281c-0.046875-0.14062-0.046875-0.15625-0.046875-0.1875 0-0.25 0.34375-0.25 0.51562-0.25v-0.26562c-0.40625 0.015625-0.60938 0.015625-0.96875 0.015625-0.29688 0-0.5625 0-0.875-0.015625v0.26562c0.4375 0 0.54688 0.03125 0.65625 0.32812l1.1562 3.1719c0.046875 0.10938 0.078125 0.1875 0.21875 0.1875 0.125 0 0.17188-0.09375 0.20312-0.1875l0.90625-2.5 0.9375 2.5c0.03125 0.09375 0.0625 0.1875 0.20312 0.1875 0.125 0 0.15625-0.078125 0.1875-0.17188z"/>
</g>
<g id="f">
<path d="m3.5938-2.0469c0.1875 0 0.23438 0 0.23438-0.20312 0-0.92188-0.5-1.7656-1.6562-1.7656-1.0625 0-1.9062 0.9375-1.9062 2.0469 0 1.1719 0.9375 2.0625 2.0312 2.0625s1.5312-0.95312 1.5312-1.1562c0-0.0625-0.046875-0.125-0.125-0.125-0.09375 0-0.10938 0.0625-0.125 0.10938-0.29688 0.90625-1.1094 0.92188-1.2344 0.92188-0.4375 0-0.79688-0.23438-1-0.54688-0.29688-0.4375-0.3125-0.96875-0.3125-1.3438zm-2.5469-0.21875c0.078125-1.3906 0.875-1.5312 1.125-1.5312 0.5 0 1.0312 0.375 1.0469 1.5312z"/>
</g>
<g id="o">
<path d="m3.4844-1.0781c0 0.15625 0 0.1875-0.125 0.375-0.28125 0.40625-0.70312 0.57812-1.0469 0.57812-0.39062 0-0.75-0.21875-0.98438-0.59375-0.23438-0.39062-0.25-0.90625-0.25-1.2031 0-0.42188 0.046875-0.89062 0.28125-1.25 0.20312-0.29688 0.5625-0.5625 1.0469-0.5625 0.375 0 0.73438 0.1875 0.96875 0.53125 0.10938 0.14062 0.10938 0.14062 0.10938 0.3125zm0.03125-2.3594c-0.046875-0.046875-0.45312-0.53125-1.1406-0.53125-1.1094 0-2.0625 0.89062-2.0625 2.0469 0 1.1094 0.89062 2.0156 1.9531 2.0156 0.65625 0 1.0625-0.375 1.2188-0.5625v0.5625l1.3594-0.09375v-0.28125c-0.60938 0-0.6875-0.0625-0.6875-0.5v-5.4375l-1.3281 0.09375v0.28125c0.60938 0 0.6875 0.0625 0.6875 0.5z"/>
</g>
<g id="k">
<path d="m3.5469-1.5c0 0.79688-0.4375 1.375-1.0938 1.375-0.73438 0-0.78125-0.39062-0.78125-0.875v-2.9688l-1.3594 0.10938v0.26562c0.6875 0 0.6875 0.03125 0.6875 0.82812v1.3438c0 0.59375 0 0.96875 0.42188 1.2812 0.25 0.17188 0.625 0.23438 0.98438 0.23438 0.46875 0 0.90625-0.20312 1.1562-0.73438h0.015625v0.73438l1.3281-0.09375v-0.28125c-0.60938 0-0.6875-0.0625-0.6875-0.5v-3.1875l-1.3594 0.10938v0.26562c0.60938 0 0.6875 0.0625 0.6875 0.51562z"/>
</g>
<g id="i">
<path d="m1.125-1.6094c0.21875 0.14062 0.5 0.28125 0.90625 0.28125 0.85938 0 1.5-0.60938 1.5-1.3125 0-0.4375-0.25-0.75-0.35938-0.875 0.35938-0.32812 0.78125-0.32812 0.875-0.32812-0.03125 0.03125-0.10938 0.078125-0.10938 0.23438 0 0.10938 0.0625 0.26562 0.26562 0.26562 0.125 0 0.26562-0.078125 0.26562-0.26562 0-0.17188-0.125-0.45312-0.48438-0.45312-0.25 0-0.65625 0.09375-0.96875 0.42188-0.25-0.20312-0.59375-0.32812-0.96875-0.32812-0.85938 0-1.5 0.60938-1.5 1.3281 0 0.45312 0.26562 0.78125 0.40625 0.90625-0.015625 0.015625-0.26562 0.32812-0.26562 0.75 0 0.29688 0.14062 0.625 0.39062 0.78125-0.45312 0.15625-0.8125 0.48438-0.8125 0.90625 0 0.64062 0.875 1.1406 2.0312 1.1406 1.1094 0 2.0469-0.46875 2.0469-1.1562 0-0.375-0.17188-0.76562-0.5-0.98438-0.5-0.3125-1.0312-0.3125-1.875-0.3125-0.1875 0-0.46875 0-0.54688-0.015625-0.25-0.0625-0.42188-0.29688-0.42188-0.57812 0-0.15625 0.046875-0.28125 0.125-0.40625zm0.90625 0.046875c-0.79688 0-0.79688-0.89062-0.79688-1.0781 0-0.25 0.015625-0.54688 0.17188-0.76562 0.14062-0.1875 0.375-0.3125 0.625-0.3125 0.8125 0 0.8125 0.85938 0.8125 1.0781 0 0.20312 0 1.0781-0.8125 1.0781zm0.42188 1.5156c0.28125 0 1.3906 0.015625 1.3906 0.73438 0 0.51562-0.70312 0.92188-1.5312 0.92188-0.89062 0-1.5469-0.42188-1.5469-0.92188 0-0.14062 0.09375-0.73438 0.85938-0.73438z"/>
</g>
<g id="a">
<path d="m3.0781-3.7812c0-0.15625 0-0.23438-0.09375-0.23438-0.046875 0-0.0625 0-0.1875 0.10938-0.015625 0.015625-0.09375 0.09375-0.15625 0.14062-0.26562-0.20312-0.54688-0.25-0.85938-0.25-1.1875 0-1.4688 0.65625-1.4688 1.1094 0 0.28125 0.125 0.51562 0.32812 0.71875 0.29688 0.28125 0.64062 0.34375 1.0938 0.42188 0.46875 0.09375 0.60938 0.10938 0.8125 0.26562 0.09375 0.078125 0.3125 0.25 0.3125 0.57812 0 0.79688-0.90625 0.79688-1.0312 0.79688-0.90625 0-1.1406-0.76562-1.25-1.25-0.03125-0.09375-0.046875-0.14062-0.14062-0.14062-0.125 0-0.125 0.078125-0.125 0.23438v1.1406c0 0.15625 0 0.23438 0.09375 0.23438 0.0625 0 0.0625 0 0.23438-0.17188 0.03125-0.0625 0.125-0.17188 0.17188-0.21875 0.375 0.375 0.79688 0.39062 1.0156 0.39062 1.1094 0 1.4844-0.64062 1.4844-1.2344 0-0.40625-0.17188-0.65625-0.375-0.85938-0.29688-0.29688-0.625-0.35938-1.2812-0.48438-0.23438-0.046875-0.89062-0.15625-0.89062-0.67188 0-0.28125 0.20312-0.67188 1.0156-0.67188 0.96875 0 1.0312 0.75 1.0469 0.96875 0.015625 0.10938 0.015625 0.17188 0.125 0.17188 0.125 0 0.125-0.0625 0.125-0.23438z"/>
</g>
<g id="j">
<path d="m2.5625-1.6562v-0.5625h-2.4688v0.5625z"/>
</g>
<g id="e">
<path d="m3.2656-3.5312c-0.1875 0.046875-0.375 0.17188-0.375 0.42188 0 0.23438 0.1875 0.42188 0.42188 0.42188s0.42188-0.15625 0.42188-0.4375c0-0.54688-0.625-0.89062-1.4219-0.89062-1.1406 0-2 0.95312-2 2.0781 0 1.1562 0.92188 2.0312 1.9844 2.0312 1.25 0 1.5312-1.0781 1.5312-1.1562 0-0.10938-0.09375-0.10938-0.125-0.10938-0.09375 0-0.09375 0.015625-0.15625 0.17188-0.20312 0.60938-0.70312 0.84375-1.1562 0.84375-0.57812 0-1.3125-0.46875-1.3125-1.7969 0-1.3906 0.71875-1.8125 1.25-1.8125 0.125 0 0.60938 0.015625 0.9375 0.23438z"/>
</g>
<g id="d">
<path d="m1.6406-6.2188-1.3281 0.09375v0.28125c0.60938 0 0.6875 0.0625 0.6875 0.5v4.6562c0 0.40625-0.09375 0.40625-0.6875 0.40625v0.28125c0.42188-0.015625 0.59375-0.03125 1.0312-0.03125 0.42188 0 0.54688 0.015625 1.0156 0.03125v-0.28125c-0.59375 0-0.6875 0-0.6875-0.40625v-1.6406c0-0.95312 0.67188-1.4062 1.2344-1.4062 0.53125 0 0.64062 0.4375 0.64062 0.96875v2.0781c0 0.40625-0.09375 0.40625-0.6875 0.40625v0.28125c0.42188-0.015625 0.59375-0.03125 1.0312-0.03125 0.42188 0 0.54688 0.015625 1.0156 0.03125v-0.28125c-0.45312 0-0.6875 0-0.6875-0.28125v-1.7188c0-0.73438 0-1-0.25-1.3125-0.20312-0.25-0.54688-0.375-1-0.375-0.59375 0-1.0469 0.3125-1.3125 0.82812h-0.015625z"/>
</g>
<g id="h">
<path d="m1.6562-3.9688-1.2969 0.10938v0.26562c0.57812 0 0.65625 0.0625 0.65625 0.5v2.4062c0 0.40625-0.09375 0.40625-0.6875 0.40625v0.28125c0.39062-0.015625 0.59375-0.03125 0.98438-0.03125 0.14062 0 0.51562 0 0.95312 0.03125v-0.28125c-0.57812 0-0.60938-0.046875-0.60938-0.39062zm0.015625-1.5625c0-0.26562-0.20312-0.48438-0.48438-0.48438-0.26562 0-0.48438 0.23438-0.48438 0.48438 0 0.26562 0.21875 0.48438 0.48438 0.48438 0.28125 0 0.48438-0.20312 0.48438-0.48438z"/>
</g>
<g id="b">
<path d="m2.9219-3.5938v-0.26562h-1.3125v-1.6562h-0.25c0 0.75-0.3125 1.6719-1.1875 1.7031v0.21875h0.78125v2.4844c0 1 0.71875 1.2031 1.2031 1.2031 0.59375 0 0.90625-0.5625 0.90625-1.2031v-0.51562h-0.25v0.48438c0 0.67188-0.28125 0.98438-0.59375 0.98438-0.60938 0-0.60938-0.78125-0.60938-0.95312v-2.4844z"/>
</g>
<g id="x">
<path d="m6.1406-6.0781h-5.625l-0.1875 2.0312h0.25c0.125-1.4844 0.3125-1.75 1.6562-1.75 0.17188 0 0.42188 0 0.51562 0.015625 0.17188 0.046875 0.17188 0.125 0.17188 0.35938v4.7031c0 0.3125 0 0.4375-0.9375 0.4375h-0.35938v0.28125c0.32812-0.03125 1.3125-0.03125 1.7031-0.03125s1.375 0 1.6875 0.03125v-0.28125h-0.34375c-0.9375 0-0.9375-0.125-0.9375-0.4375v-4.7031c0-0.23438 0-0.3125 0.1875-0.35938 0.09375-0.015625 0.32812-0.015625 0.48438-0.015625 1.3594 0 1.5312 0.26562 1.6562 1.75h0.25z"/>
</g>
<g id="g">
<path d="m1.5938-2.0469c0-0.375 0.09375-1.6875 1.125-1.6875-0.015625 0.015625-0.15625 0.125-0.15625 0.32812 0 0.25 0.1875 0.40625 0.39062 0.40625 0.1875 0 0.39062-0.14062 0.39062-0.40625 0-0.28125-0.26562-0.5625-0.67188-0.5625-0.53125 0-0.90625 0.375-1.125 0.9375v-0.9375l-1.2812 0.10938v0.26562c0.60938 0 0.6875 0.0625 0.6875 0.51562v2.3906c0 0.40625-0.09375 0.40625-0.6875 0.40625v0.28125c0.48438-0.015625 0.59375-0.03125 1.0469-0.03125 0.35938 0 0.57812 0.015625 1.1406 0.03125v-0.28125h-0.17188c-0.65625 0-0.6875-0.09375-0.6875-0.42188z"/>
</g>
<g id="n">
<path d="m3.0625-0.64062c0.046875 0.375 0.3125 0.6875 0.70312 0.6875 0.21875 0 0.78125-0.125 0.78125-0.84375v-0.5h-0.25v0.48438c0 0.10938 0 0.54688-0.32812 0.54688-0.3125 0-0.3125-0.42188-0.3125-0.5625v-1.5781c0-0.51562 0-0.8125-0.40625-1.1875-0.32812-0.29688-0.76562-0.42188-1.2188-0.42188-0.75 0-1.375 0.375-1.375 0.95312 0 0.26562 0.1875 0.42188 0.42188 0.42188s0.40625-0.17188 0.40625-0.40625c0-0.39062-0.39062-0.4375-0.40625-0.4375 0.25-0.23438 0.6875-0.3125 0.9375-0.3125 0.45312 0 0.96875 0.34375 0.96875 1.1406v0.28125c-0.48438 0.03125-1.1562 0.0625-1.75 0.35938-0.65625 0.3125-0.84375 0.78125-0.84375 1.1406 0 0.73438 0.85938 0.96875 1.4688 0.96875 0.73438 0 1.0781-0.48438 1.2031-0.73438zm-0.078125-0.625c0 0.875-0.67188 1.1406-1.0625 1.1406-0.42188 0-0.8125-0.3125-0.8125-0.75 0-0.59375 0.5-1.2188 1.875-1.2812z"/>
</g>
<g id="w">
<path d="m1.625-3.0156c0.29688-0.51562 0.79688-0.70312 1.1719-0.70312 0.70312 0 1.2344 0.8125 1.2344 1.7812 0 1.0156-0.60938 1.8125-1.3281 1.8125-0.40625 0-0.75-0.23438-0.96875-0.54688-0.10938-0.1875-0.10938-0.20312-0.10938-0.375zm0 2.5781c0.23438 0.23438 0.53125 0.53125 1.125 0.53125 1.0781 0 2.0625-0.85938 2.0625-2.0312 0-1.125-0.89062-2.0312-1.9375-2.0312-0.48438 0-0.9375 0.20312-1.2812 0.5625v-0.5625l-1.3281 0.10938v0.26562c0.64062 0 0.6875 0.0625 0.6875 0.45312v4.1875c0 0.42188-0.09375 0.42188-0.6875 0.42188v0.26562c0.42188-0.015625 0.59375-0.015625 1.0312-0.015625 0.42188 0 0.54688 0 1.0156 0.015625v-0.26562c-0.59375 0-0.6875 0-0.6875-0.42188z"/>
</g>
<g id="m">
<path d="m4.3438-1.9062c0-1.1719-0.9375-2.1094-2.0312-2.1094-1.1406 0-2.0469 0.95312-2.0469 2.1094 0 1.1094 0.92188 2 2.0312 2 1.1406 0 2.0469-0.90625 2.0469-2zm-2.0312 1.75c-0.45312 0-0.82812-0.21875-1.0312-0.5625-0.23438-0.39062-0.25-0.85938-0.25-1.2656 0-0.34375 0-0.84375 0.21875-1.2188 0.28125-0.45312 0.71875-0.59375 1.0469-0.59375 0.51562 0 0.875 0.29688 1.0625 0.59375 0.20312 0.375 0.20312 0.82812 0.20312 1.2188 0 0.32812 0 0.84375-0.21875 1.2344-0.25 0.42188-0.65625 0.59375-1.0312 0.59375z"/>
</g>
<g id="v">
<path d="m1.9219-5.4062c-0.03125-0.10938-0.03125-0.15625-0.03125-0.17188 0-0.26562 0.45312-0.26562 0.70312-0.26562v-0.28125c-0.39062 0.03125-0.85938 0.03125-1.2656 0.03125-0.375 0-0.51562-0.015625-1.1562-0.03125v0.28125c0.65625 0 0.76562 0.03125 0.89062 0.34375l2.1719 5.5c0.046875 0.14062 0.078125 0.20312 0.21875 0.20312s0.17188-0.0625 0.21875-0.1875l2.0781-5.2656c0.1875-0.46875 0.5625-0.59375 0.98438-0.59375v-0.28125c-0.32812 0.03125-0.57812 0.03125-0.89062 0.03125-0.375 0-0.5625-0.015625-1-0.03125v0.28125c0.4375 0 0.64062 0.21875 0.64062 0.4375 0 0.078125-0.015625 0.09375-0.046875 0.1875l-1.7188 4.3438z"/>
</g>
<g id="l">
<path d="m1.6719-2.3281c0-0.96875 0.70312-1.4062 1.2344-1.4062 0.5 0 0.65625 0.34375 0.65625 0.96875v2.0781c0 0.40625-0.09375 0.40625-0.6875 0.40625v0.28125c0.42188-0.015625 0.59375-0.03125 1.0156-0.03125 0.4375 0 0.54688 0.015625 1.0312 0.03125v-0.28125c-0.59375 0-0.70312 0-0.70312-0.40625v-1.6406c0-0.96875 0.70312-1.4062 1.25-1.4062 0.48438 0 0.64062 0.34375 0.64062 0.96875v2.0781c0 0.40625-0.09375 0.40625-0.6875 0.40625v0.28125c0.42188-0.015625 0.59375-0.03125 1.0312-0.03125 0.42188 0 0.54688 0.015625 1.0156 0.03125v-0.28125c-0.45312 0-0.67188 0-0.6875-0.28125v-1.7188c0-0.78125 0-1.0312-0.29688-1.3594-0.1875-0.21875-0.54688-0.32812-0.95312-0.32812-0.65625 0-1.0938 0.375-1.3438 0.85938-0.10938-0.53125-0.46875-0.85938-1.2188-0.85938-0.71875 0-1.1562 0.46875-1.3438 0.89062h-0.015625v-0.89062l-1.2969 0.10938v0.26562c0.60938 0 0.6875 0.0625 0.6875 0.51562v2.3906c0 0.40625-0.09375 0.40625-0.6875 0.40625v0.28125c0.42188-0.015625 0.59375-0.03125 1.0312-0.03125 0.42188 0 0.54688 0.015625 1.0156 0.03125v-0.28125c-0.59375 0-0.6875 0-0.6875-0.40625z"/>
</g>
<g id="u">
<path d="m1.6562-6.2188-1.3281 0.09375v0.28125c0.60938 0 0.6875 0.0625 0.6875 0.5v4.6562c0 0.40625-0.09375 0.40625-0.6875 0.40625v0.28125c0.42188-0.015625 0.59375-0.03125 1-0.03125 0.42188 0 0.57812 0.015625 1.0156 0.03125v-0.28125c-0.59375 0-0.6875 0-0.6875-0.40625z"/>
</g>
<g id="ai">
<path d="m2.7188-5.7344c0-0.21875 0-0.23438-0.21875-0.23438-0.5625 0.5625-1.3906 0.5625-1.6719 0.5625v0.28125c0.17188 0 0.71875 0 1.2031-0.23438v4.6406c0 0.32812-0.015625 0.4375-0.85938 0.4375h-0.28125v0.28125c0.3125-0.03125 1.125-0.03125 1.4844-0.03125 0.375 0 1.1719 0 1.5 0.03125v-0.28125h-0.28125c-0.84375 0-0.875-0.10938-0.875-0.4375z"/>
</g>
<g id="r">
<path d="m3.5781-2.8125c1.25 0 2.1719-0.78125 2.1719-1.6406 0-0.89062-0.92188-1.6719-2.1719-1.6719h-3.2188v0.28125h0.20312c0.6875 0 0.71875 0.09375 0.71875 0.42188v4.7188c0 0.32812-0.03125 0.42188-0.71875 0.42188h-0.20312v0.28125c0.40625-0.03125 0.90625-0.03125 1.3125-0.03125 0.42188 0 0.92188 0 1.3281 0.03125v-0.28125h-0.20312c-0.70312 0-0.71875-0.09375-0.71875-0.42188v-2.1094zm-1.5312-2.6719c0-0.29688 0.03125-0.35938 0.45312-0.35938h0.85938c1.4688 0 1.4688 0.98438 1.4688 1.3906s0 1.3906-1.4844 1.3906h-1.2969z"/>
</g>
<g id="q">
<path d="m3.5938-3.5781c0.078125-0.09375 0.078125-0.10938 0.078125-0.15625 0-0.125-0.078125-0.125-0.23438-0.125h-2.9531l-0.09375 1.4688h0.25c0.046875-0.92188 0.21875-1.25 1.2188-1.25h1.0156l-2.5312 3.3281c-0.078125 0.10938-0.078125 0.125-0.078125 0.17188 0 0.14062 0.078125 0.14062 0.23438 0.14062h3.0469l0.15625-1.7031h-0.25c-0.09375 1-0.20312 1.4531-1.3281 1.4531h-1.0469z"/>
</g>
<g id="ah">
<path d="m2.7344-3.1562c0.82812-0.3125 1.2344-0.96875 1.2344-1.5938 0-0.6875-0.76562-1.2188-1.7031-1.2188-0.92188 0-1.625 0.53125-1.625 1.2031 0 0.29688 0.1875 0.46875 0.45312 0.46875s0.45312-0.1875 0.45312-0.45312c0-0.3125-0.21875-0.4375-0.53125-0.4375 0.23438-0.375 0.78125-0.5625 1.2344-0.5625 0.73438 0 0.875 0.59375 0.875 1.0156 0 0.26562-0.046875 0.70312-0.26562 1.0469-0.28125 0.39062-0.59375 0.40625-0.85938 0.4375-0.21875 0.015625-0.23438 0.015625-0.3125 0.015625s-0.15625 0.015625-0.15625 0.10938c0 0.125 0.078125 0.125 0.23438 0.125h0.40625c0.78125 0 1.125 0.625 1.125 1.4688 0 1.1562-0.60938 1.4844-1.0625 1.4844-0.17188 0-1.0469-0.046875-1.4375-0.71875 0.3125 0.046875 0.5625-0.17188 0.5625-0.48438 0-0.29688-0.21875-0.48438-0.48438-0.48438-0.21875 0-0.48438 0.14062-0.48438 0.51562 0 0.79688 0.82812 1.4219 1.875 1.4219 1.1094 0 1.9531-0.8125 1.9531-1.7344 0-0.78125-0.625-1.4375-1.4844-1.625z"/>
</g>
<g id="ag">
<path d="m4.1406-1.5938h-0.25c-0.015625 0.125-0.09375 0.65625-0.20312 0.79688-0.0625 0.078125-0.67188 0.078125-0.85938 0.078125h-1.5938l0.89062-0.84375c1.4688-1.2656 2.0156-1.75 2.0156-2.6562 0-1.0312-0.84375-1.75-1.9531-1.75-1.0312 0-1.7344 0.8125-1.7344 1.625 0 0.45312 0.39062 0.5 0.46875 0.5 0.20312 0 0.46875-0.14062 0.46875-0.46875 0-0.26562-0.1875-0.46875-0.46875-0.46875-0.046875 0-0.0625 0-0.10938 0.015625 0.21875-0.64062 0.79688-0.92188 1.2812-0.92188 0.90625 0 1.2188 0.84375 1.2188 1.4688 0 0.90625-0.6875 1.6562-1.1094 2.125l-1.6406 1.7656c-0.10938 0.10938-0.10938 0.125-0.10938 0.32812h3.4375z"/>
</g>
<g id="aa">
<path d="m2.0312-3.75c-0.71875-0.17188-0.95312-0.75-0.95312-1.1406 0-0.60938 0.48438-1.1875 1.25-1.1875 1.1562 0 1.625 0.875 1.75 1.7656 0.015625 0.17188 0.03125 0.21875 0.14062 0.21875 0.125 0 0.125-0.0625 0.125-0.25v-1.7344c0-0.17188 0-0.25-0.10938-0.25-0.0625 0-0.078125 0.015625-0.14062 0.125-0.10938 0.15625-0.015625 0.046875-0.3125 0.51562-0.15625-0.1875-0.625-0.64062-1.4688-0.64062-1.0469 0-1.7969 0.82812-1.7969 1.7344 0 0.70312 0.42188 1.125 0.46875 1.1719 0.39062 0.40625 0.5625 0.4375 1.625 0.70312 0.73438 0.15625 0.8125 0.1875 1.1094 0.48438 0 0.015625 0.3125 0.34375 0.3125 0.875 0 0.60938-0.4375 1.2812-1.2656 1.2812-0.6875 0-1.9375-0.29688-2-1.7656-0.015625-0.14062-0.015625-0.1875-0.125-0.1875-0.125 0-0.125 0.0625-0.125 0.25v1.7344c0 0.17188 0 0.25 0.10938 0.25 0.0625 0 0.0625-0.015625 0.125-0.125 0.125-0.15625 0.03125-0.046875 0.32812-0.51562 0.54688 0.54688 1.2656 0.64062 1.7031 0.64062 1.0938 0 1.8125-0.90625 1.8125-1.8594 0-0.51562-0.1875-0.90625-0.39062-1.1719-0.39062-0.5-0.79688-0.59375-1.375-0.73438z"/>
</g>
<g id="af">
<path d="m0.5625-5.8438c0.6875 0 0.71875 0.09375 0.71875 0.42188v4.7188c0 0.32812-0.03125 0.42188-0.71875 0.42188h-0.20312v0.28125h3.3281c1.5625 0 2.8281-1.3281 2.8281-3.0156 0-1.7031-1.2344-3.1094-2.8281-3.1094h-3.3281v0.28125zm1.9375 5.5625c-0.42188 0-0.45312-0.0625-0.45312-0.35938v-4.8438c0-0.29688 0.03125-0.35938 0.45312-0.35938h0.95312c0.875 0 1.4062 0.45312 1.6562 0.78125 0.39062 0.51562 0.51562 1.1562 0.51562 2.0469 0 0.375 0 1.3125-0.48438 1.9375-0.46875 0.60938-1.1094 0.79688-1.6719 0.79688z"/>
</g>
<g id="ae">
<path d="m0.26562-1.7656v0.28125h2.4375v0.78125c0 0.32812-0.015625 0.42188-0.6875 0.42188h-0.20312v0.28125c0.5625-0.03125 1.1875-0.03125 1.25-0.03125 0.046875 0 0.70312 0 1.2656 0.03125v-0.28125h-0.20312c-0.67188 0-0.70312-0.09375-0.70312-0.42188v-0.78125h0.92188v-0.28125h-0.92188v-4.0625c0-0.1875 0-0.25-0.17188-0.25-0.10938 0-0.10938 0.015625-0.1875 0.14062zm0.28125 0 2.2188-3.3125v3.3125z"/>
</g>
<g id="z">
<path d="m1.7969-2.3125c0-0.015625 0.046875-0.10938 0.046875-0.1875 0-0.17188-0.15625-0.28125-0.3125-0.28125-0.20312 0-0.25 0.15625-0.28125 0.21875l-0.76562 2.1562c-0.015625 0.0625-0.015625 0.078125-0.015625 0.09375 0 0.078125 0.20312 0.125 0.20312 0.125 0.046875 0 0.0625-0.03125 0.09375-0.09375z"/>
</g>
<g id="y">
<path d="m7-5.4375c0.078125-0.32812 0.10938-0.40625 0.79688-0.40625 0.15625 0 0.25 0 0.25-0.17188 0-0.078125-0.0625-0.10938-0.14062-0.10938l-0.5625 0.015625c-0.26562 0.015625-0.28125 0.015625-0.57812 0.015625-0.28125 0-0.29688 0-0.5625-0.015625-0.1875 0-0.42188-0.015625-0.59375-0.015625-0.046875 0-0.17188 0-0.17188 0.15625 0 0.125 0.09375 0.125 0.26562 0.125 0.03125 0 0.20312 0 0.34375 0.015625 0.17188 0.015625 0.21875 0.046875 0.21875 0.14062 0 0.03125-0.015625 0.0625-0.046875 0.17188l-0.54688 2.1875h-2.7812l0.53125-2.1094c0.078125-0.34375 0.10938-0.40625 0.79688-0.40625 0.15625 0 0.25 0 0.25-0.17188 0-0.078125-0.0625-0.10938-0.14062-0.10938l-0.5625 0.015625c-0.26562 0.015625-0.28125 0.015625-0.57812 0.015625-0.28125 0-0.29688 0-0.5625-0.015625-0.1875 0-0.42188-0.015625-0.59375-0.015625-0.046875 0-0.17188 0-0.17188 0.15625 0 0.125 0.09375 0.125 0.26562 0.125 0.03125 0 0.20312 0 0.34375 0.015625 0.17188 0.015625 0.21875 0.046875 0.21875 0.14062 0 0.03125-0.015625 0.078125-0.046875 0.17188l-1.2031 4.8281c-0.078125 0.32812-0.09375 0.40625-0.78125 0.40625-0.15625 0-0.26562 0-0.26562 0.17188 0 0.078125 0.0625 0.10938 0.14062 0.10938 0.17188 0 0.39062-0.015625 0.5625-0.015625 0.26562-0.015625 0.28125-0.015625 0.57812-0.015625 0.28125 0 0.29688 0 0.57812 0.015625 0.17188 0 0.40625 0.015625 0.57812 0.015625 0.0625 0 0.17188 0 0.17188-0.15625 0-0.125-0.078125-0.125-0.28125-0.125-0.03125 0-0.1875 0-0.32812-0.015625-0.20312-0.03125-0.21875-0.0625-0.21875-0.14062 0-0.03125 0-0.046875 0.046875-0.20312l0.59375-2.4062h2.7969c-0.078125 0.3125-0.60938 2.4531-0.65625 2.5469-0.0625 0.15625-0.078125 0.21875-0.76562 0.21875-0.10938 0-0.21875 0-0.21875 0.17188 0 0.078125 0.0625 0.10938 0.14062 0.10938 0.17188 0 0.39062-0.015625 0.5625-0.015625 0.26562-0.015625 0.28125-0.015625 0.57812-0.015625 0.28125 0 0.29688 0 0.57812 0.015625 0.17188 0 0.40625 0.015625 0.57812 0.015625 0.0625 0 0.17188 0 0.17188-0.15625 0-0.125-0.078125-0.125-0.26562-0.125-0.046875 0-0.20312 0-0.34375-0.015625-0.20312-0.03125-0.20312-0.0625-0.20312-0.14062s0.015625-0.15625 0.03125-0.21875z"/>
</g>
<g id="ad">
<path d="m8.5-5.4375c0.078125-0.32812 0.09375-0.40625 0.79688-0.40625 0.14062 0 0.25 0 0.25-0.17188 0-0.10938-0.09375-0.10938-0.26562-0.10938h-1.1719c-0.21875 0-0.26562 0-0.375 0.17188l-3.2969 5.1094-0.75-5.0469c-0.03125-0.23438-0.046875-0.23438-0.29688-0.23438h-1.2344c-0.15625 0-0.26562 0-0.26562 0.15625 0 0.125 0.09375 0.125 0.26562 0.125 0.046875 0 0.20312 0 0.34375 0.015625 0.17188 0.015625 0.21875 0.046875 0.21875 0.14062 0 0.03125-0.015625 0.078125-0.03125 0.17188l-1.1406 4.5625c-0.125 0.46875-0.375 0.64062-0.96875 0.67188-0.015625 0-0.14062 0.015625-0.14062 0.17188 0 0.015625 0 0.10938 0.125 0.10938 0.09375 0 0.32812-0.015625 0.4375-0.015625 0.14062-0.015625 0.17188-0.015625 0.45312-0.015625 0.21875 0 0.23438 0 0.45312 0.015625 0.14062 0 0.34375 0.015625 0.46875 0.015625 0.046875 0 0.15625 0 0.15625-0.15625 0-0.10938-0.09375-0.125-0.17188-0.125-0.42188 0-0.57812-0.14062-0.57812-0.375 0-0.0625 0-0.078125 0.03125-0.20312l1.2031-4.875h0.015625l0.8125 5.5c0.015625 0.14062 0.046875 0.23438 0.15625 0.23438s0.15625-0.09375 0.21875-0.17188l3.6406-5.625h0.015625l-1.2812 5.1094c-0.078125 0.32812-0.09375 0.40625-0.76562 0.40625-0.17188 0-0.28125 0-0.28125 0.17188 0 0.078125 0.0625 0.10938 0.14062 0.10938 0.10938 0 0.45312-0.015625 0.5625-0.015625 0.14062-0.015625 0.35938-0.015625 0.54688-0.015625 0.015625 0 0.375 0.015625 0.5625 0.015625s0.375 0.015625 0.54688 0.015625c0.0625 0 0.17188 0 0.17188-0.15625 0-0.125-0.09375-0.125-0.28125-0.125-0.03125 0-0.1875 0-0.32812-0.015625-0.20312-0.03125-0.21875-0.0625-0.21875-0.14062s0.03125-0.15625 0.046875-0.21875z"/>
</g>
<g id="ac">
<path d="m1.7656-1.9844c0.5 0 0.84375 0.34375 0.84375 0.95312 0 0.65625-0.39062 0.9375-0.82812 0.9375-0.17188 0-0.78125-0.03125-1.0469-0.375 0.23438-0.03125 0.32812-0.1875 0.32812-0.34375 0-0.20312-0.14062-0.34375-0.34375-0.34375-0.15625 0-0.34375 0.10938-0.34375 0.35938 0 0.59375 0.65625 0.92188 1.4219 0.92188 0.89062 0 1.4688-0.5625 1.4688-1.1562 0-0.4375-0.32812-0.90625-1.0469-1.0781 0.48438-0.15625 0.85938-0.54688 0.85938-1.0312s-0.5625-0.84375-1.2812-0.84375c-0.70312 0-1.2344 0.32812-1.2344 0.8125 0 0.26562 0.20312 0.32812 0.32812 0.32812 0.15625 0 0.3125-0.09375 0.3125-0.3125 0-0.1875-0.125-0.29688-0.29688-0.3125 0.28125-0.3125 0.82812-0.3125 0.89062-0.3125 0.29688 0 0.6875 0.14062 0.6875 0.64062 0 0.32812-0.1875 0.90625-0.79688 0.9375-0.10938 0-0.26562 0.015625-0.3125 0.015625-0.0625 0.015625-0.125 0.015625-0.125 0.10938s0.0625 0.09375 0.15625 0.09375z"/>
</g>
<g id="ab">
<path d="m3.375-0.98438v-0.23438h-0.70312v-2.6406c0-0.14062 0-0.1875-0.14062-0.1875-0.10938 0-0.125 0.03125-0.17188 0.09375l-2.0781 2.7344v0.23438h1.8594v0.48438c0 0.1875 0 0.26562-0.5 0.26562h-0.1875v0.23438c0.125 0 0.6875-0.03125 0.95312-0.03125s0.82812 0.03125 0.9375 0.03125v-0.23438h-0.17188c-0.5 0-0.5-0.078125-0.5-0.26562v-0.48438zm-1.2031-2.4062v2.1719h-1.6406z"/>
</g>
<clipPath id="be">
<path d="m97 29h17v20h-17z"/>
</clipPath>
<clipPath id="bd">
<path d="m1.5273 136.48h363v-137h-363zm100.09-95.973-3.207 3.9961 2.668 2.125 3.2031-3.9961-3.9688 2.2695z" clip-rule="evenodd"/>
</clipPath>
<clipPath id="as">
<path d="m322 0h42.527v29h-42.527z"/>
</clipPath>
<clipPath id="ap">
<path d="m344 22h20.527v20h-20.527z"/>
</clipPath>
<clipPath id="ao">
<path d="m210 38h2v97h-2z"/>
</clipPath>
<clipPath id="an">
<path d="m1.5273 136.48h363v-137h-363zm211.27-93.195v-5.1055h-3.4023v5.1055l1.6992-4.2539z" clip-rule="evenodd"/>
</clipPath>
<clipPath id="am">
<path d="m121 38h1v97h-1z"/>
</clipPath>
<clipPath id="al">
<path d="m1.5273 136.48h363v-137h-363zm118.57-6.5859v5.1016h3.3984v-5.1016l-1.6992 4.25z" clip-rule="evenodd"/>
</clipPath>
<clipPath id="ak">
<path d="m117 126h10v10.477h-10z"/>
</clipPath>
<clipPath id="aj">
<path d="m121 134h91v1h-91z"/>
</clipPath>
<clipPath id="bc">
<path d="m1.5273 136.48h363v-137h-363zm205.04-0.35156h5.1016v-3.3984h-5.1016l4.2539 1.6992z" clip-rule="evenodd"/>
</clipPath>
<clipPath id="bb">
<path d="m206 132h5v4.4766h-5z"/>
</clipPath>
<clipPath id="ba">
<path d="m203 129h11v7.4766h-11z"/>
</clipPath>
<clipPath id="az">
<path d="m268 38h1v97h-1z"/>
</clipPath>
<clipPath id="ay">
<path d="m1.5273 136.48h363v-137h-363zm268.68-93.195v-5.1055h-3.4023v5.1055l1.6992-4.2539z" clip-rule="evenodd"/>
</clipPath>
<clipPath id="ax">
<path d="m268 134h84v1h-84z"/>
</clipPath>
<clipPath id="aw">
<path d="m1.5273 136.48h363v-137h-363zm271.52-3.75h-5.1016v3.3984h5.1016l-4.25-1.6992z" clip-rule="evenodd"/>
</clipPath>
<clipPath id="av">
<path d="m268 132h6v4.4766h-6z"/>
</clipPath>
<clipPath id="au">
<path d="m265 129h12v7.4766h-12z"/>
</clipPath>
<clipPath id="at">
<path d="m351 38h1v97h-1z"/>
</clipPath>
<clipPath id="ar">
<path d="m1.5273 136.48h363v-137h-363zm348.2-6.5859v5.1016h3.4023v-5.1016l-1.6992 4.25z" clip-rule="evenodd"/>
</clipPath>
<clipPath id="aq">
<path d="m346 126h11v10.477h-11z"/>
</clipPath>
</defs>
<path transform="matrix(.1 0 0 -.1 1.528 136.48)" d="m755.03 1117.7h2.2656" fill="none" stroke="#000" stroke-miterlimit="10" stroke-width="2.1262"/>
<g clip-path="url(#be)">
<g clip-path="url(#bd)">
<path transform="matrix(.1 0 0 -.1 1.528 136.48)" d="m1087.9 1041.1-102.07-127.58" fill="none" stroke="#000" stroke-miterlimit="10" stroke-width="2.1262"/>
</g>
</g>
<path d="m101.61 40.504-1.3047 4.3945 3.9688-2.2695-1.8711-0.39844-0.79297-1.7266" fill-rule="evenodd"/>
<path transform="matrix(.1 0 0 -.1 1.528 136.48)" d="m1000.9 959.72-13.047-43.945 39.688 22.695-18.711 3.9844z" fill="none" stroke="#000" stroke-miterlimit="10" stroke-width="2.1262"/>
<path transform="matrix(.1 0 0 -.1 1.528 136.48)" d="m2925 148.08h637.85v956.8h-637.85z" fill="none" stroke="#000" stroke-miterlimit="10" stroke-width="2.1262"/>
<path transform="matrix(.1 0 0 -.1 1.528 136.48)" d="m1138.9 148.08h701.68v956.8h-701.68z" fill="none" stroke="#000" stroke-miterlimit="10" stroke-width="2.1262"/>
<path transform="matrix(.1 0 0 -.1 1.528 136.48)" d="m2031.9 148.08h701.64v956.8h-701.64z" fill="none" stroke="#000" stroke-miterlimit="10" stroke-width="2.1262"/>
<path transform="matrix(.1 0 0 -.1 1.528 136.48)" d="m2861.2 1232.5c0-70.469-85.703-127.58-191.37-127.58-105.66 0-191.37 57.109-191.37 127.58s85.703 127.58 191.37 127.58c105.66 0 191.37-57.109 191.37-127.58z" fill="none" stroke="#000" stroke-miterlimit="10" stroke-width="2.1262"/>
<path transform="matrix(.1 0 0 -.1 1.528 136.48)" d="m1521.6 1232.5c0-70.469-85.703-127.58-191.37-127.58-105.7 0-191.37 57.109-191.37 127.58s85.664 127.58 191.37 127.58c105.66 0 191.37-57.109 191.37-127.58z" fill="none" stroke="#000" stroke-miterlimit="10" stroke-width="2.1262"/>
<path transform="matrix(.1 0 0 -.1 1.528 136.48)" d="m2414.6 1232.5c0-70.469-85.664-127.58-191.37-127.58-105.66 0-191.33 57.109-191.33 127.58s85.664 127.58 191.33 127.58c105.7 0 191.37-57.109 191.37-127.58z" fill="none" stroke="#000" stroke-miterlimit="10" stroke-width="2.1262"/>
<g clip-path="url(#as)">
<path transform="matrix(.1 0 0 -.1 1.528 136.48)" d="m3626.6 1232.5c0-70.469-85.664-127.58-191.33-127.58-105.7 0-191.37 57.109-191.37 127.58s85.664 127.58 191.37 127.58c105.66 0 191.33-57.109 191.33-127.58z" fill="none" stroke="#000" stroke-miterlimit="10" stroke-width="2.1262"/>
</g>
<path d="m202.17 25.988c-1.4062 0-2.5508 1.1406-2.5508 2.5508v7.6523c0 1.4102 1.1445 2.5547 2.5508 2.5547h8.9297c1.4102 0 2.5547-1.1445 2.5547-2.5547v-7.6523c0-1.4102-1.1445-2.5508-2.5547-2.5508" fill="#fff" fill-rule="evenodd"/>
<path transform="matrix(.1 0 0 -.1 1.528 136.48)" d="m2006.4 1104.9c-14.062 0-25.508-11.406-25.508-25.508v-76.523c0-14.102 11.445-25.547 25.508-25.547h89.297c14.102 0 25.547 11.445 25.547 25.547v76.523c0 14.102-11.445 25.508-25.547 25.508z" fill="none" stroke="#000" stroke-miterlimit="10" stroke-width="2.1262"/>
<path d="m269.79 25.988c-1.4102 0-2.5547 1.1406-2.5547 2.5508v7.6523c0 1.4102 1.1445 2.5547 2.5547 2.5547h8.9297c1.4062 0 2.5508-1.1445 2.5508-2.5547v-7.6523c0-1.4102-1.1445-2.5508-2.5508-2.5508" fill="#fff" fill-rule="evenodd"/>
<path transform="matrix(.1 0 0 -.1 1.528 136.48)" d="m2682.6 1104.9c-14.102 0-25.547-11.406-25.547-25.508v-76.523c0-14.102 11.445-25.547 25.547-25.547h89.297c14.062 0 25.508 11.445 25.508 25.547v76.523c0 14.102-11.445 25.508-25.508 25.508z" fill="none" stroke="#000" stroke-miterlimit="10" stroke-width="2.1262"/>
<path d="m114.14 25.988c-1.4062 0-2.5508 1.1406-2.5508 2.5508v7.6523c0 1.4102 1.1445 2.5547 2.5508 2.5547h8.9336c1.4062 0 2.5508-1.1445 2.5508-2.5547v-7.6523c0-1.4102-1.1445-2.5508-2.5508-2.5508" fill="#fff" fill-rule="evenodd"/>
<path transform="matrix(.1 0 0 -.1 1.528 136.48)" d="m1126.1 1104.9c-14.062 0-25.508-11.406-25.508-25.508v-76.523c0-14.102 11.445-25.547 25.508-25.547h89.336c14.062 0 25.508 11.445 25.508 25.547v76.523c0 14.102-11.445 25.508-25.508 25.508z" fill="none" stroke="#000" stroke-miterlimit="10" stroke-width="2.1262"/>
<path d="m350.16 25.988c-1.4102 0-2.5508 1.1406-2.5508 2.5508v7.6523c0 1.4102 1.1406 2.5547 2.5508 2.5547h8.9297c1.4102 0 2.5508-1.1445 2.5508-2.5547v-7.6523c0-1.4102-1.1406-2.5508-2.5508-2.5508" fill="#fff" fill-rule="evenodd"/>
<g clip-path="url(#ap)">
<path transform="matrix(.1 0 0 -.1 1.528 136.48)" d="m3486.3 1104.9c-14.102 0-25.508-11.406-25.508-25.508v-76.523c0-14.102 11.406-25.547 25.508-25.547h89.297c14.102 0 25.508 11.445 25.508 25.547v76.523c0 14.102-11.406 25.508-25.508 25.508z" fill="none" stroke="#000" stroke-miterlimit="10" stroke-width="2.1262"/>
</g>
<path transform="matrix(.1 0 0 -.1 1.528 136.48)" d="m1138.9 913.51h701.68" fill="none" stroke="#000" stroke-miterlimit="10" stroke-width="2.1262"/>
<path transform="matrix(.1 0 0 -.1 1.528 136.48)" d="m1138.9 722.18h701.68" fill="none" stroke="#000" stroke-miterlimit="10" stroke-width="2.1262"/>
<path transform="matrix(.1 0 0 -.1 1.528 136.48)" d="m1138.9 530.81h701.68" fill="none" stroke="#000" stroke-miterlimit="10" stroke-width="2.1262"/>
<path transform="matrix(.1 0 0 -.1 1.528 136.48)" d="m1138.9 339.45h701.68" fill="none" stroke="#000" stroke-miterlimit="10" stroke-width="2.1262"/>
<path transform="matrix(.1 0 0 -.1 1.528 136.48)" d="m2031.9 913.51h701.64" fill="none" stroke="#000" stroke-miterlimit="10" stroke-width="2.1262"/>
<path transform="matrix(.1 0 0 -.1 1.528 136.48)" d="m2031.9 722.18h701.64" fill="none" stroke="#000" stroke-miterlimit="10" stroke-width="2.1262"/>
<path transform="matrix(.1 0 0 -.1 1.528 136.48)" d="m2031.9 530.81h701.64" fill="none" stroke="#000" stroke-miterlimit="10" stroke-width="2.1262"/>
<path transform="matrix(.1 0 0 -.1 1.528 136.48)" d="m2031.9 339.45h701.64" fill="none" stroke="#000" stroke-miterlimit="10" stroke-width="2.1262"/>
<path transform="matrix(.1 0 0 -.1 1.528 136.48)" d="m2925 722.18h637.85" fill="none" stroke="#000" stroke-miterlimit="10" stroke-width="2.1262"/>
<path transform="matrix(.1 0 0 -.1 1.528 136.48)" d="m2925 530.81h637.85" fill="none" stroke="#000" stroke-miterlimit="10" stroke-width="2.1262"/>
<path transform="matrix(.1 0 0 -.1 1.528 136.48)" d="m2925 339.45h637.85" fill="none" stroke="#000" stroke-miterlimit="10" stroke-width="2.1262"/>
<path transform="matrix(.1 0 0 -.1 1.528 136.48)" d="m2925 913.51h637.85" fill="none" stroke="#000" stroke-miterlimit="10" stroke-width="2.1262"/>
<g clip-path="url(#ao)">
<g clip-path="url(#an)">
<path transform="matrix(.1 0 0 -.1 1.528 136.48)" d="m2095.7 20.502v956.8" fill="none" stroke="#000" stroke-miterlimit="10" stroke-width="2.1262"/>
</g>
</g>
<path d="m212.8 43.281-1.7031-4.2539-1.6992 4.2539 1.6992-0.85156 1.7031 0.85156" fill-rule="evenodd"/>
<path transform="matrix(.1 0 0 -.1 1.528 136.48)" d="m2112.7 931.95-17.031 42.539-16.992-42.539 16.992 8.5156z" fill="none" stroke="#000" stroke-miterlimit="10" stroke-width="2.1262"/>
<g clip-path="url(#am)">
<g clip-path="url(#al)">
<path transform="matrix(.1 0 0 -.1 1.528 136.48)" d="m1202.7 977.3v-956.8" fill="none" stroke="#000" stroke-miterlimit="10" stroke-width="2.1262"/>
</g>
</g>
<path d="m120.1 129.89 1.6992 4.25 1.6992-4.25-1.6992 0.85156-1.6992-0.85156" fill-rule="evenodd"/>
<g clip-path="url(#ak)">
<path transform="matrix(.1 0 0 -.1 1.528 136.48)" d="m1185.7 65.854 16.992-42.5 16.992 42.5-16.992-8.5156z" fill="none" stroke="#000" stroke-miterlimit="10" stroke-width="2.1262"/>
</g>
<g clip-path="url(#aj)">
<g clip-path="url(#bc)">
<path transform="matrix(.1 0 0 -.1 1.528 136.48)" d="m1202.7 20.502h893.01" fill="none" stroke="#000" stroke-miterlimit="10" stroke-width="2.1262"/>
</g>
</g>
<g clip-path="url(#bb)">
<path d="m206.56 136.12 4.2539-1.6992-4.2539-1.6992 0.85156 1.6992-0.85156 1.6992" fill-rule="evenodd"/>
</g>
<g clip-path="url(#ba)">
<path transform="matrix(.1 0 0 -.1 1.528 136.48)" d="m2050.3 3.51 42.539 16.992-42.539 16.992 8.5156-16.992z" fill="none" stroke="#000" stroke-miterlimit="10" stroke-width="2.1262"/>
</g>
<g clip-path="url(#az)">
<g clip-path="url(#ay)">
<path transform="matrix(.1 0 0 -.1 1.528 136.48)" d="m2669.8 20.502v956.8" fill="none" stroke="#000" stroke-miterlimit="10" stroke-width="2.1262"/>
</g>
</g>
<path d="m270.21 43.281-1.7031-4.2539-1.6992 4.2539 1.6992-0.85156 1.7031 0.85156" fill-rule="evenodd"/>
<path transform="matrix(.1 0 0 -.1 1.528 136.48)" d="m2686.8 931.95-17.031 42.539-16.992-42.539 16.992 8.5156z" fill="none" stroke="#000" stroke-miterlimit="10" stroke-width="2.1262"/>
<g clip-path="url(#ax)">
<g clip-path="url(#aw)">
<path transform="matrix(.1 0 0 -.1 1.528 136.48)" d="m3499.1 20.502h-829.26" fill="none" stroke="#000" stroke-miterlimit="10" stroke-width="2.1262"/>
</g>
</g>
<g clip-path="url(#av)">
<path d="m273.04 132.73-4.25 1.6992 4.25 1.6992-0.84766-1.6992 0.84766-1.6992" fill-rule="evenodd"/>
</g>
<g clip-path="url(#au)">
<path transform="matrix(.1 0 0 -.1 1.528 136.48)" d="m2715.1 37.494-42.5-16.992 42.5-16.992-8.4766 16.992z" fill="none" stroke="#000" stroke-miterlimit="10" stroke-width="2.1262"/>
</g>
<g clip-path="url(#at)">
<g clip-path="url(#ar)">
<path transform="matrix(.1 0 0 -.1 1.528 136.48)" d="m3499.1 977.3v-956.8" fill="none" stroke="#000" stroke-miterlimit="10" stroke-width="2.1262"/>
</g>
</g>
<path d="m349.73 129.89 1.7031 4.25 1.6992-4.25-1.6992 0.85156-1.7031-0.85156" fill-rule="evenodd"/>
<g clip-path="url(#aq)">
<path transform="matrix(.1 0 0 -.1 1.528 136.48)" d="m3482 65.854 17.031-42.5 16.992 42.5-16.992-8.5156z" fill="none" stroke="#000" stroke-miterlimit="10" stroke-width="2.1262"/>
</g>
<path transform="matrix(.1 0 0 -.1 1.528 136.48)" d="m692.38 722.18v-191.37" fill="none" stroke="#000" stroke-miterlimit="10" stroke-width="2.1262"/>
<path transform="matrix(.1 0 0 -.1 1.528 136.48)" d="m501.01 530.81h574.1v191.37h-574.1z" fill="none" stroke="#000" stroke-miterlimit="10" stroke-width="2.1262"/>
<path transform="matrix(.1 0 0 -.1 1.528 136.48)" d="m692.38 722.18h382.73v191.33h-382.73z" fill="none" stroke="#000" stroke-miterlimit="10" stroke-width="2.1262"/>
<path transform="matrix(.1 0 0 -.1 1.528 136.48)" d="m883.74 913.51v-191.33" fill="none" stroke="#000" stroke-miterlimit="10" stroke-width="2.1262"/>
<g>
<use x="203.073" y="33.646" xlink:href="#t"/>
<use x="126.629" y="33.646" xlink:href="#s"/>
<use x="133.539404" y="33.646" xlink:href="#c"/>
<use x="138.399193" y="33.646" xlink:href="#p"/>
<use x="144.803893" y="33.646" xlink:href="#f"/>
<use x="148.903331" y="33.646" xlink:href="#c"/>
<use x="154.023145" y="33.646" xlink:href="#o"/>
<use x="159.14296" y="33.646" xlink:href="#k"/>
<use x="164.262774" y="33.646" xlink:href="#c"/>
<use x="169.382588" y="33.646" xlink:href="#i"/>
<use x="173.990421" y="33.646" xlink:href="#a"/>
<use x="177.6254" y="33.646" xlink:href="#j"/>
<use x="139.941" y="42.576" xlink:href="#a"/>
<use x="143.575979" y="42.576" xlink:href="#e"/>
<use x="147.411804" y="42.576" xlink:href="#d"/>
<use x="152.531619" y="42.576" xlink:href="#h"/>
<use x="155.091526" y="42.576" xlink:href="#e"/>
<use x="158.936318" y="42.576" xlink:href="#d"/>
<use x="163.796107" y="42.576" xlink:href="#b"/>
<use x="139.941" y="80.851" xlink:href="#a"/>
<use x="143.575979" y="80.851" xlink:href="#e"/>
<use x="147.411804" y="80.851" xlink:href="#d"/>
<use x="152.531619" y="80.851" xlink:href="#h"/>
<use x="155.091526" y="80.851" xlink:href="#e"/>
<use x="158.936318" y="80.851" xlink:href="#d"/>
<use x="163.796107" y="80.851" xlink:href="#b"/>
<use x="132.113" y="52.783" xlink:href="#x"/>
<use x="137.997648" y="52.783" xlink:href="#g"/>
<use x="141.602141" y="52.783" xlink:href="#n"/>
<use x="146.209974" y="52.783" xlink:href="#c"/>
<use x="151.329788" y="52.783" xlink:href="#a"/>
<use x="154.964767" y="52.783" xlink:href="#w"/>
<use x="160.344607" y="52.783" xlink:href="#m"/>
<use x="164.95244" y="52.783" xlink:href="#g"/>
<use x="168.556933" y="52.783" xlink:href="#b"/>
<use x="172.140803" y="52.783" xlink:href="#j"/>
<use x="127.254" y="71.92" xlink:href="#v"/>
<use x="133.393294" y="71.92" xlink:href="#f"/>
<use x="137.492732" y="71.92" xlink:href="#g"/>
<use x="141.097225" y="71.92" xlink:href="#l"/>
<use x="148.776947" y="71.92" xlink:href="#h"/>
<use x="151.336854" y="71.92" xlink:href="#b"/>
<use x="154.920724" y="71.92" xlink:href="#b"/>
<use x="158.504594" y="71.92" xlink:href="#u"/>
<use x="161.064501" y="71.92" xlink:href="#k"/>
<use x="166.184316" y="71.92" xlink:href="#c"/>
<use x="171.30413" y="71.92" xlink:href="#i"/>
<use x="175.911963" y="71.92" xlink:href="#a"/>
<use x="179.546941" y="71.92" xlink:href="#j"/>
<use x="139.941" y="61.713" xlink:href="#a"/>
<use x="143.575979" y="61.713" xlink:href="#e"/>
<use x="147.411804" y="61.713" xlink:href="#d"/>
<use x="152.531619" y="61.713" xlink:href="#h"/>
<use x="155.091526" y="61.713" xlink:href="#e"/>
<use x="158.936318" y="61.713" xlink:href="#d"/>
<use x="163.796107" y="61.713" xlink:href="#b"/>
<use x="132.221" y="22.163" xlink:href="#ai"/>
<use x="119.551" y="13.233" xlink:href="#r"/>
<use x="125.8221" y="13.233" xlink:href="#g"/>
<use x="129.426593" y="13.233" xlink:href="#m"/>
<use x="134.034426" y="13.233" xlink:href="#q"/>
<use x="138.130277" y="13.233" xlink:href="#f"/>
<use x="142.229716" y="13.233" xlink:href="#a"/>
<use x="145.864694" y="13.233" xlink:href="#a"/>
<use x="264.905" y="22.163" xlink:href="#ah"/>
<use x="208.857" y="12.524" xlink:href="#r"/>
<use x="215.1281" y="12.524" xlink:href="#g"/>
<use x="218.732593" y="12.524" xlink:href="#m"/>
<use x="223.340426" y="12.524" xlink:href="#q"/>
<use x="227.436277" y="12.524" xlink:href="#f"/>
<use x="231.535716" y="12.524" xlink:href="#a"/>
<use x="235.170694" y="12.524" xlink:href="#a"/>
<use x="221.527" y="21.455" xlink:href="#ag"/>
<use x="253.511" y="12.524" xlink:href="#r"/>
<use x="259.7821" y="12.524" xlink:href="#g"/>
<use x="263.386593" y="12.524" xlink:href="#m"/>
<use x="267.994426" y="12.524" xlink:href="#q"/>
<use x="272.090277" y="12.524" xlink:href="#f"/>
<use x="276.189716" y="12.524" xlink:href="#a"/>
<use x="279.824694" y="12.524" xlink:href="#a"/>
<use x="213.384" y="33.646" xlink:href="#s"/>
<use x="220.294404" y="33.646" xlink:href="#c"/>
<use x="225.154193" y="33.646" xlink:href="#p"/>
<use x="231.558893" y="33.646" xlink:href="#f"/>
<use x="235.658331" y="33.646" xlink:href="#c"/>
<use x="240.778145" y="33.646" xlink:href="#o"/>
<use x="245.89796" y="33.646" xlink:href="#k"/>
<use x="251.017774" y="33.646" xlink:href="#c"/>
<use x="256.137588" y="33.646" xlink:href="#i"/>
<use x="260.745421" y="33.646" xlink:href="#a"/>
<use x="264.3804" y="33.646" xlink:href="#j"/>
<use x="226.696" y="42.576" xlink:href="#a"/>
<use x="230.330979" y="42.576" xlink:href="#e"/>
<use x="234.166804" y="42.576" xlink:href="#d"/>
<use x="239.286619" y="42.576" xlink:href="#h"/>
<use x="241.846526" y="42.576" xlink:href="#e"/>
<use x="245.691318" y="42.576" xlink:href="#d"/>
<use x="250.551107" y="42.576" xlink:href="#b"/>
<use x="226.696" y="80.851" xlink:href="#a"/>
<use x="230.330979" y="80.851" xlink:href="#e"/>
<use x="234.166804" y="80.851" xlink:href="#d"/>
<use x="239.286619" y="80.851" xlink:href="#h"/>
<use x="241.846526" y="80.851" xlink:href="#e"/>
<use x="245.691318" y="80.851" xlink:href="#d"/>
<use x="250.551107" y="80.851" xlink:href="#b"/>
<use x="218.868" y="52.783" xlink:href="#x"/>
<use x="224.752648" y="52.783" xlink:href="#g"/>
<use x="228.357141" y="52.783" xlink:href="#n"/>
<use x="232.964974" y="52.783" xlink:href="#c"/>
<use x="238.084788" y="52.783" xlink:href="#a"/>
<use x="241.719767" y="52.783" xlink:href="#w"/>
<use x="247.099607" y="52.783" xlink:href="#m"/>
<use x="251.70744" y="52.783" xlink:href="#g"/>
<use x="255.311933" y="52.783" xlink:href="#b"/>
<use x="258.895803" y="52.783" xlink:href="#j"/>
<use x="214.009" y="71.92" xlink:href="#v"/>
<use x="220.148294" y="71.92" xlink:href="#f"/>
<use x="224.247732" y="71.92" xlink:href="#g"/>
<use x="227.852225" y="71.92" xlink:href="#l"/>
<use x="235.531947" y="71.92" xlink:href="#h"/>
<use x="238.091854" y="71.92" xlink:href="#b"/>
<use x="241.675724" y="71.92" xlink:href="#b"/>
<use x="245.259594" y="71.92" xlink:href="#u"/>
<use x="247.819501" y="71.92" xlink:href="#k"/>
<use x="252.939316" y="71.92" xlink:href="#c"/>
<use x="258.05913" y="71.92" xlink:href="#i"/>
<use x="262.666963" y="71.92" xlink:href="#a"/>
<use x="266.301941" y="71.92" xlink:href="#j"/>
<use x="226.696" y="61.713" xlink:href="#a"/>
<use x="230.330979" y="61.713" xlink:href="#e"/>
<use x="234.166804" y="61.713" xlink:href="#d"/>
<use x="239.286619" y="61.713" xlink:href="#h"/>
<use x="241.846526" y="61.713" xlink:href="#e"/>
<use x="245.691318" y="61.713" xlink:href="#d"/>
<use x="250.551107" y="61.713" xlink:href="#b"/>
<use x="308.348" y="42.576" xlink:href="#a"/>
<use x="311.982979" y="42.576" xlink:href="#e"/>
<use x="315.818804" y="42.576" xlink:href="#d"/>
<use x="320.938619" y="42.576" xlink:href="#h"/>
<use x="323.498526" y="42.576" xlink:href="#e"/>
<use x="327.343318" y="42.576" xlink:href="#d"/>
<use x="332.203107" y="42.576" xlink:href="#b"/>
<use x="308.348" y="80.851" xlink:href="#a"/>
<use x="311.982979" y="80.851" xlink:href="#e"/>
<use x="315.818804" y="80.851" xlink:href="#d"/>
<use x="320.938619" y="80.851" xlink:href="#h"/>
<use x="323.498526" y="80.851" xlink:href="#e"/>
<use x="327.343318" y="80.851" xlink:href="#d"/>
<use x="332.203107" y="80.851" xlink:href="#b"/>
<use x="300.52" y="52.783" xlink:href="#x"/>
<use x="306.404648" y="52.783" xlink:href="#g"/>
<use x="310.009141" y="52.783" xlink:href="#n"/>
<use x="314.616974" y="52.783" xlink:href="#c"/>
<use x="319.736788" y="52.783" xlink:href="#a"/>
<use x="323.371767" y="52.783" xlink:href="#w"/>
<use x="328.751607" y="52.783" xlink:href="#m"/>
<use x="333.35944" y="52.783" xlink:href="#g"/>
<use x="336.963933" y="52.783" xlink:href="#b"/>
<use x="340.547803" y="52.783" xlink:href="#j"/>
<use x="294.385" y="71.92" xlink:href="#v"/>
<use x="300.524294" y="71.92" xlink:href="#f"/>
<use x="304.623732" y="71.92" xlink:href="#g"/>
<use x="308.228225" y="71.92" xlink:href="#l"/>
<use x="315.907947" y="71.92" xlink:href="#h"/>
<use x="318.467854" y="71.92" xlink:href="#b"/>
<use x="322.051724" y="71.92" xlink:href="#b"/>
<use x="325.635594" y="71.92" xlink:href="#u"/>
<use x="328.195501" y="71.92" xlink:href="#k"/>
<use x="333.315316" y="71.92" xlink:href="#c"/>
<use x="338.43513" y="71.92" xlink:href="#i"/>
<use x="343.042963" y="71.92" xlink:href="#a"/>
<use x="346.677941" y="71.92" xlink:href="#j"/>
<use x="308.348" y="61.713" xlink:href="#a"/>
<use x="311.982979" y="61.713" xlink:href="#e"/>
<use x="315.818804" y="61.713" xlink:href="#d"/>
<use x="320.938619" y="61.713" xlink:href="#h"/>
<use x="323.498526" y="61.713" xlink:href="#e"/>
<use x="327.343318" y="61.713" xlink:href="#d"/>
<use x="332.203107" y="61.713" xlink:href="#b"/>
<use x="295.036" y="33.646" xlink:href="#s"/>
<use x="301.946404" y="33.646" xlink:href="#c"/>
<use x="306.806193" y="33.646" xlink:href="#p"/>
<use x="313.210893" y="33.646" xlink:href="#f"/>
<use x="317.310331" y="33.646" xlink:href="#c"/>
<use x="322.430145" y="33.646" xlink:href="#o"/>
<use x="327.54996" y="33.646" xlink:href="#k"/>
<use x="332.669774" y="33.646" xlink:href="#c"/>
<use x="337.789588" y="33.646" xlink:href="#i"/>
<use x="342.397421" y="33.646" xlink:href="#a"/>
<use x="346.0324" y="33.646" xlink:href="#j"/>
<use x="269.344" y="33.646" xlink:href="#t"/>
<use x="277.689" y="30.141" xlink:href="#z"/>
<use x="349.72" y="33.646" xlink:href="#t"/>
<use x="358.065" y="30.141" xlink:href="#z"/>
<use x="34.209" y="34.921" xlink:href="#s"/>
<use x="41.119404" y="34.921" xlink:href="#c"/>
<use x="45.979193" y="34.921" xlink:href="#p"/>
<use x="52.383893" y="34.921" xlink:href="#f"/>
<use x="56.483331" y="34.921" xlink:href="#c"/>
<use x="61.603145" y="34.921" xlink:href="#o"/>
<use x="66.72296" y="34.921" xlink:href="#k"/>
<use x="71.842774" y="34.921" xlink:href="#c"/>
<use x="76.962588" y="34.921" xlink:href="#i"/>
<use x="81.570421" y="34.921" xlink:href="#a"/>
<use x="85.2054" y="34.921" xlink:href="#o"/>
<use x="90.325214" y="34.921" xlink:href="#n"/>
<use x="94.933047" y="34.921" xlink:href="#b"/>
<use x="98.516917" y="34.921" xlink:href="#f"/>
<use x="102.616356" y="34.921" xlink:href="#c"/>
<use x="74.121" y="75.747" xlink:href="#aa"/>
<use x="79.240814" y="75.747" xlink:href="#f"/>
<use x="83.340252" y="75.747" xlink:href="#i"/>
<use x="87.948085" y="75.747" xlink:href="#l"/>
<use x="95.627807" y="75.747" xlink:href="#f"/>
<use x="99.727245" y="75.747" xlink:href="#c"/>
<use x="104.587034" y="75.747" xlink:href="#b"/>
<use x="54.641" y="77.023" xlink:href="#y"/>
<use x="62.264" y="78.019" xlink:href="#ac"/>
<use x="73.778" y="57.886" xlink:href="#y"/>
<use x="81.401" y="58.882" xlink:href="#ab"/>
<use x="93.866" y="59.162" xlink:href="#ad"/>
<use x="32.854" y="57.886" xlink:href="#aa"/>
<use x="37.973814" y="57.886" xlink:href="#f"/>
<use x="42.073252" y="57.886" xlink:href="#i"/>
<use x="46.681085" y="57.886" xlink:href="#l"/>
<use x="54.360807" y="57.886" xlink:href="#f"/>
<use x="58.460245" y="57.886" xlink:href="#c"/>
<use x="63.320034" y="57.886" xlink:href="#b"/>
<use x="-0.247" y="77.023" xlink:href="#af"/>
<use x="6.791624" y="77.023" xlink:href="#n"/>
<use x="11.399457" y="77.023" xlink:href="#b"/>
<use x="14.983327" y="77.023" xlink:href="#n"/>
<use x="19.59116" y="77.023" xlink:href="#i"/>
<use x="24.198993" y="77.023" xlink:href="#g"/>
<use x="27.803486" y="77.023" xlink:href="#n"/>
<use x="32.411319" y="77.023" xlink:href="#l"/>
<use x="40.09104" y="77.023" xlink:href="#l"/>
<use x="342.729" y="22.163" xlink:href="#ae"/>
<use x="330.059" y="13.233" xlink:href="#r"/>
<use x="336.3301" y="13.233" xlink:href="#g"/>
<use x="339.934593" y="13.233" xlink:href="#m"/>
<use x="344.542426" y="13.233" xlink:href="#q"/>
<use x="348.638277" y="13.233" xlink:href="#f"/>
<use x="352.737716" y="13.233" xlink:href="#a"/>
<use x="356.372694" y="13.233" xlink:href="#a"/>
<use x="115.042" y="33.646" xlink:href="#t"/>
</g>
</svg>
