<svg width="1137" height="532" version="1.1" viewBox="0 0 1137 532" xmlns="http://www.w3.org/2000/svg">
<defs>
<clipPath id="a">
<path d="m0 0h861v401h-861z"/>
</clipPath>
</defs>
<g transform="matrix(1.3 0 0 -1.3 0 532)">
<g transform="translate(-1,-1)">
<g clip-path="url(#a)">
<g transform="scale(.1)">
<path d="m3275 20h3118l24 2.4 24 6 23 11 20 14 17 17 14 20 11 23 6 24 2.4 24v1842l-2.4 25-6 24-11 23-14 19-17 18-20 14-23 9.6-24 7.2-24 2.4h-3118l-25-2.4-24-7.2-23-9.6-19-14-18-18-14-19-9.6-23-7.2-24-2.4-25v-1842l2.4-24 7.2-24 9.6-23 14-20 18-17 19-14 23-11 24-6 25-2.4" fill="#fff"/>
<path d="m3275 20h3118l24 2.4 24 6 23 11 20 14 17 17 14 20 11 23 6 24 2.4 24v1842l-2.4 25-6 24-11 23-14 19-17 18-20 14-23 9.6-24 7.2-24 2.4h-3118l-25-2.4-24-7.2-23-9.6-19-14-18-18-14-19-9.6-23-7.2-24-2.4-25v-1842l2.4-24 7.2-24 9.6-23 14-20 18-17 19-14 23-11 24-6 25-2.4" fill="none" stroke="#231f20" stroke-linejoin="round" stroke-miterlimit="10" stroke-width="7.5"/>
<g transform="scale(10)">
<text transform="matrix(1 0 0 -1 407 9.6)" fill="#231f20" font-family="Helvetica" font-size="12px" xml:space="preserve"><tspan x="0 8.0039997 14.676 17.34 20.004 26.676001 33.348 36.012001 42.683998 49.355999 52.692001 60.695999 67.367996 73.367996 80.040001 86.711998 89.375999 92.711998 99.384003 106.056 109.392 118.056 124.728 131.39999 134.73599 141.408 145.40401 152.076" y="0">Beliebige Anzahl an Routern</tspan></text>
</g>
<path d="m1375 20h1559v4e3h-1559z" fill="#fff"/>
<path d="m1375 20h1559v4e3h-1559v-4e3" fill="none" stroke="#231f20" stroke-linejoin="round" stroke-miterlimit="10" stroke-width="7.5"/>
<g transform="scale(10)">
<text transform="matrix(1 0 0 -1 203 9.6)" fill="#231f20" font-family="Helvetica" font-size="12px" xml:space="preserve"><tspan x="0 8.6639996 15.336 21.336 24.672001" y="0">Host</tspan></text>
</g>
<path d="m2452 559h992v142h-992z" fill="#fff"/>
<g transform="scale(10)">
<text transform="matrix(1 0 0 -1 250 59)" fill="#231f20" font-family="Helvetica" font-size="12px" xml:space="preserve"><tspan x="0 6.6719999 13.344 19.344 25.344 28.68 32.015999 40.68 47.352001 50.688 57.360001 64.031998 67.367996 70.031998 76.704002 82.704002 88.704002" y="0">phys. Datenfluss</tspan></text>
</g>
<path d="m6704 20h1530v4e3h-1530z" fill="#fff"/>
<path d="m6704 20h1530v4e3h-1530v-4e3" fill="none" stroke="#231f20" stroke-linejoin="round" stroke-miterlimit="10" stroke-width="7.5"/>
<g transform="scale(10)">
<text transform="matrix(1 0 0 -1 735 9.6)" fill="#231f20" font-family="Helvetica" font-size="12px" xml:space="preserve"><tspan x="0 8.6639996 15.336 21.336 24.672001" y="0">Host</tspan></text>
</g>
<path d="m1934 3365 2.4 12 7.2 11 11 11 16 11 19 8.4 23 7.2 50 9.6 28 1.2h29l28-1.2 52-9.6 22-7.2 19-8.4 16-11 11-11 7.2-11 2.4-12-2.4-11-7.2-12-11-11-16-9.6-19-8.4-22-7.2-25-6-54-6h-29l-54 6-24 6-23 7.2-19 8.4-16 9.6-11 11-7.2 12-2.4 11" fill="#fff"/>
<path d="m1934 3365 2.4 12 7.2 11 11 11 16 11 19 8.4 23 7.2 50 9.6 28 1.2h29l28-1.2 52-9.6 22-7.2 19-8.4 16-11 11-11 7.2-11 2.4-12-2.4-11-7.2-12-11-11-16-9.6-19-8.4-22-7.2-25-6-54-6h-29l-54 6-24 6-23 7.2-19 8.4-16 9.6-11 11-7.2 12-2.4 11" fill="none" stroke="#231f20" stroke-linejoin="round" stroke-miterlimit="10" stroke-width="7.5"/>
<path d="m1934 2884 2.4 11 7.2 12 11 11 16 9.6 19 8.4 23 7.2 24 6 54 6h29l54-6 25-6 22-7.2 19-8.4 16-9.6 11-11 7.2-12 2.4-11-2.4-12-7.2-11-11-11-16-11-19-8.4-22-7.2-52-9.6-28-1.2h-29l-28 1.2-50 9.6-23 7.2-19 8.4-16 11-11 11-7.2 11-2.4 12" fill="#fff"/>
<path d="m1934 2884 2.4 11 7.2 12 11 11 16 9.6 19 8.4 23 7.2 24 6 54 6h29l54-6 25-6 22-7.2 19-8.4 16-9.6 11-11 7.2-12 2.4-11-2.4-12-7.2-11-11-11-16-11-19-8.4-22-7.2-52-9.6-28-1.2h-29l-28 1.2-50 9.6-23 7.2-19 8.4-16 11-11 11-7.2 11-2.4 12" fill="none" stroke="#231f20" stroke-linejoin="round" stroke-miterlimit="10" stroke-width="7.5"/>
<path d="m1934 2387 2.4 12 7.2 12 11 9.6 16 11 19 8.4 23 7.2 50 9.6 28 1.2h29l28-1.2 52-9.6 22-7.2 19-8.4 16-11 11-9.6 7.2-12 2.4-12-2.4-11-7.2-12-11-11-16-9.6-19-8.4-22-7.2-25-6-26-3.6-28-1.2h-29l-28 1.2-26 3.6-24 6-23 7.2-19 8.4-16 9.6-11 11-7.2 12-2.4 11" fill="#fff"/>
<path d="m1934 2387 2.4 12 7.2 12 11 9.6 16 11 19 8.4 23 7.2 50 9.6 28 1.2h29l28-1.2 52-9.6 22-7.2 19-8.4 16-11 11-9.6 7.2-12 2.4-12-2.4-11-7.2-12-11-11-16-9.6-19-8.4-22-7.2-25-6-26-3.6-28-1.2h-29l-28 1.2-26 3.6-24 6-23 7.2-19 8.4-16 9.6-11 11-7.2 12-2.4 11" fill="none" stroke="#231f20" stroke-linejoin="round" stroke-miterlimit="10" stroke-width="7.5"/>
<path d="m1934 1906 2.4 11 7.2 12 11 11 16 9.6 19 8.4 23 7.2 24 6 54 6h29l54-6 25-6 22-7.2 19-8.4 16-9.6 11-11 7.2-12 2.4-11-2.4-12-7.2-11-11-11-16-9.6-19-9.6-22-7.2-25-4.8-54-6h-29l-54 6-24 4.8-23 7.2-19 9.6-16 9.6-11 11-7.2 11-2.4 12" fill="#fff"/>
<path d="m1934 1906 2.4 11 7.2 12 11 11 16 9.6 19 8.4 23 7.2 24 6 54 6h29l54-6 25-6 22-7.2 19-8.4 16-9.6 11-11 7.2-12 2.4-11-2.4-12-7.2-11-11-11-16-9.6-19-9.6-22-7.2-25-4.8-54-6h-29l-54 6-24 4.8-23 7.2-19 9.6-16 9.6-11 11-7.2 11-2.4 12" fill="none" stroke="#231f20" stroke-linejoin="round" stroke-miterlimit="10" stroke-width="7.5"/>
<path d="m1934 1423 2.4 12 7.2 11 11 11 16 9.6 19 9.6 23 7.2 24 4.8 54 6h29l54-6 25-4.8 22-7.2 19-9.6 16-9.6 11-11 7.2-11 2.4-12-2.4-12-7.2-11-11-11-16-9.6-19-8.4-22-7.2-25-6-54-6h-29l-54 6-24 6-23 7.2-19 8.4-16 9.6-11 11-7.2 11-2.4 12" fill="#fff"/>
<path d="m1934 1423 2.4 12 7.2 11 11 11 16 9.6 19 9.6 23 7.2 24 4.8 54 6h29l54-6 25-4.8 22-7.2 19-9.6 16-9.6 11-11 7.2-11 2.4-12-2.4-12-7.2-11-11-11-16-9.6-19-8.4-22-7.2-25-6-54-6h-29l-54 6-24 6-23 7.2-19 8.4-16 9.6-11 11-7.2 11-2.4 12" fill="none" stroke="#231f20" stroke-linejoin="round" stroke-miterlimit="10" stroke-width="7.5"/>
<path d="m1934 942 2.4 11 7.2 12 11 11 16 9.6 19 8.4 23 7.2 24 6 26 3.6 28 1.2h29l28-1.2 26-3.6 25-6 22-7.2 19-8.4 16-9.6 11-11 7.2-12 2.4-11-2.4-12-7.2-12-11-9.6-16-11-19-8.4-22-7.2-52-9.6-28-1.2h-29l-28 1.2-50 9.6-23 7.2-19 8.4-16 11-11 9.6-7.2 12-2.4 12" fill="#fff"/>
<path d="m1934 942 2.4 11 7.2 12 11 11 16 9.6 19 8.4 23 7.2 24 6 26 3.6 28 1.2h29l28-1.2 26-3.6 25-6 22-7.2 19-8.4 16-9.6 11-11 7.2-12 2.4-11-2.4-12-7.2-12-11-9.6-16-11-19-8.4-22-7.2-52-9.6-28-1.2h-29l-28 1.2-50 9.6-23 7.2-19 8.4-16 11-11 9.6-7.2 12-2.4 12" fill="none" stroke="#231f20" stroke-linejoin="round" stroke-miterlimit="10" stroke-width="7.5"/>
<path d="m2105 3086v-56" fill="none" stroke="#231f20" stroke-linecap="round" stroke-linejoin="round" stroke-miterlimit="10" stroke-width="2.5"/>
<path d="m2077 3079 28 83 28-83h-55" fill="#231f20"/>
<path d="m2132 3e3 -28-83-28 83h55" fill="#231f20"/>
<path d="m2105 3572v-60" fill="none" stroke="#231f20" stroke-linecap="round" stroke-linejoin="round" stroke-miterlimit="10" stroke-width="2.5"/>
<path d="m2077 3566 28 83 28-83h-55" fill="#231f20"/>
<path d="m2132 3518-28-83-28 83h55" fill="#231f20"/>
<path d="m2105 2599v-65" fill="none" stroke="#231f20" stroke-linecap="round" stroke-linejoin="round" stroke-miterlimit="10" stroke-width="2.5"/>
<path d="m2077 2593 28 83 28-83h-55" fill="#231f20"/>
<path d="m2132 2540-28-83-28 83h55" fill="#231f20"/>
<path d="m2105 2113v-61" fill="none" stroke="#231f20" stroke-linecap="round" stroke-linejoin="round" stroke-miterlimit="10" stroke-width="2.5"/>
<path d="m2077 2106 28 83 28-83h-55" fill="#231f20"/>
<path d="m2132 2059-28-83-28 83h55" fill="#231f20"/>
<path d="m2105 1626v-55" fill="none" stroke="#231f20" stroke-linecap="round" stroke-linejoin="round" stroke-miterlimit="10" stroke-width="2.5"/>
<path d="m2077 1619 28 83 28-83h-55" fill="#231f20"/>
<path d="m2132 1577-28-83-28 83h55" fill="#231f20"/>
<path d="m2105 1140v-52" fill="none" stroke="#231f20" stroke-linecap="round" stroke-linejoin="round" stroke-miterlimit="10" stroke-width="2.5"/>
<path d="m2077 1133 28 83 28-83h-55" fill="#231f20"/>
<path d="m2132 1096-28-83-28 83h55" fill="#231f20"/>
<path d="m3770 1423 2.4 12 7.2 11 11 11 16 9.6 19 9.6 22 7.2 25 4.8 54 6h28l55-6 24-4.8 23-7.2 19-9.6 14-9.6 12-11 6-11 2.4-12-2.4-12-6-11-12-11-14-9.6-19-8.4-23-7.2-24-6-55-6h-28l-54 6-25 6-22 7.2-19 8.4-16 9.6-11 11-7.2 11-2.4 12" fill="#fff"/>
<path d="m3770 1423 2.4 12 7.2 11 11 11 16 9.6 19 9.6 22 7.2 25 4.8 54 6h28l55-6 24-4.8 23-7.2 19-9.6 14-9.6 12-11 6-11 2.4-12-2.4-12-6-11-12-11-14-9.6-19-8.4-23-7.2-24-6-55-6h-28l-54 6-25 6-22 7.2-19 8.4-16 9.6-11 11-7.2 11-2.4 12" fill="none" stroke="#231f20" stroke-linecap="round" stroke-linejoin="round" stroke-miterlimit="10" stroke-width="7.5"/>
<path d="m3770 942 2.4 11 7.2 12 11 11 16 9.6 19 8.4 22 7.2 25 6 26 3.6 28 1.2h28l28-1.2 28-3.6 24-6 23-7.2 19-8.4 14-9.6 12-11 6-12 2.4-11-2.4-12-6-12-12-9.6-14-11-19-8.4-23-7.2-52-9.6-28-1.2h-28l-28 1.2-52 9.6-22 7.2-19 8.4-16 11-11 9.6-7.2 12-2.4 12" fill="#fff"/>
<path d="m3770 942 2.4 11 7.2 12 11 11 16 9.6 19 8.4 22 7.2 25 6 26 3.6 28 1.2h28l28-1.2 28-3.6 24-6 23-7.2 19-8.4 14-9.6 12-11 6-12 2.4-11-2.4-12-6-12-12-9.6-14-11-19-8.4-23-7.2-52-9.6-28-1.2h-28l-28 1.2-52 9.6-22 7.2-19 8.4-16 11-11 9.6-7.2 12-2.4 12" fill="none" stroke="#231f20" stroke-linecap="round" stroke-linejoin="round" stroke-miterlimit="10" stroke-width="7.5"/>
<path d="m3941 1626v-55" fill="none" stroke="#231f20" stroke-linecap="round" stroke-linejoin="round" stroke-miterlimit="10" stroke-width="2.5"/>
<path d="m3913 1619 28 83 28-83h-55" fill="#231f20"/>
<path d="m4e3 1577-28-83-28 83h55" fill="#231f20"/>
<path d="m3941 1140v-52" fill="none" stroke="#231f20" stroke-linecap="round" stroke-linejoin="round" stroke-miterlimit="10" stroke-width="2.5"/>
<path d="m3913 1133 28 83 28-83h-55" fill="#231f20"/>
<path d="m4e3 1096-28-83-28 83h55" fill="#231f20"/>
<path d="m7342 3365 2.4 12 7.2 11 11 11 16 11 19 8.4 23 7.2 50 9.6 28 1.2h29l28-1.2 52-9.6 22-7.2 19-8.4 16-11 11-11 7.2-11 2.4-12-2.4-11-7.2-12-11-11-16-9.6-19-8.4-22-7.2-25-6-54-6h-29l-54 6-24 6-23 7.2-19 8.4-16 9.6-11 11-7.2 12-2.4 11" fill="#fff"/>
<path d="m7342 3365 2.4 12 7.2 11 11 11 16 11 19 8.4 23 7.2 50 9.6 28 1.2h29l28-1.2 52-9.6 22-7.2 19-8.4 16-11 11-11 7.2-11 2.4-12-2.4-11-7.2-12-11-11-16-9.6-19-8.4-22-7.2-25-6-54-6h-29l-54 6-24 6-23 7.2-19 8.4-16 9.6-11 11-7.2 12-2.4 11" fill="none" stroke="#231f20" stroke-linecap="round" stroke-linejoin="round" stroke-miterlimit="10" stroke-width="7.5"/>
<path d="m7342 2884 2.4 11 7.2 12 11 11 16 9.6 19 8.4 23 7.2 24 6 54 6h29l54-6 25-6 22-7.2 19-8.4 16-9.6 11-11 7.2-12 2.4-11-2.4-12-7.2-11-11-11-16-11-19-8.4-22-7.2-52-9.6-28-1.2h-29l-28 1.2-50 9.6-23 7.2-19 8.4-16 11-11 11-7.2 11-2.4 12" fill="#fff"/>
<path d="m7342 2884 2.4 11 7.2 12 11 11 16 9.6 19 8.4 23 7.2 24 6 54 6h29l54-6 25-6 22-7.2 19-8.4 16-9.6 11-11 7.2-12 2.4-11-2.4-12-7.2-11-11-11-16-11-19-8.4-22-7.2-52-9.6-28-1.2h-29l-28 1.2-50 9.6-23 7.2-19 8.4-16 11-11 11-7.2 11-2.4 12" fill="none" stroke="#231f20" stroke-linecap="round" stroke-linejoin="round" stroke-miterlimit="10" stroke-width="7.5"/>
<path d="m7342 2387 2.4 12 7.2 12 11 9.6 16 11 19 8.4 23 7.2 50 9.6 28 1.2h29l28-1.2 52-9.6 22-7.2 19-8.4 16-11 11-9.6 7.2-12 2.4-12-2.4-11-7.2-12-11-11-16-9.6-19-8.4-22-7.2-25-6-26-3.6-28-1.2h-29l-28 1.2-26 3.6-24 6-23 7.2-19 8.4-16 9.6-11 11-7.2 12-2.4 11" fill="#fff"/>
<path d="m7342 2387 2.4 12 7.2 12 11 9.6 16 11 19 8.4 23 7.2 50 9.6 28 1.2h29l28-1.2 52-9.6 22-7.2 19-8.4 16-11 11-9.6 7.2-12 2.4-12-2.4-11-7.2-12-11-11-16-9.6-19-8.4-22-7.2-25-6-26-3.6-28-1.2h-29l-28 1.2-26 3.6-24 6-23 7.2-19 8.4-16 9.6-11 11-7.2 12-2.4 11" fill="none" stroke="#231f20" stroke-linecap="round" stroke-linejoin="round" stroke-miterlimit="10" stroke-width="7.5"/>
<path d="m7342 1906 2.4 11 7.2 12 11 11 16 9.6 19 8.4 23 7.2 24 6 54 6h29l54-6 25-6 22-7.2 19-8.4 16-9.6 11-11 7.2-12 2.4-11-2.4-12-7.2-11-11-11-16-9.6-19-9.6-22-7.2-25-4.8-54-6h-29l-54 6-24 4.8-23 7.2-19 9.6-16 9.6-11 11-7.2 11-2.4 12" fill="#fff"/>
<path d="m7342 1906 2.4 11 7.2 12 11 11 16 9.6 19 8.4 23 7.2 24 6 54 6h29l54-6 25-6 22-7.2 19-8.4 16-9.6 11-11 7.2-12 2.4-11-2.4-12-7.2-11-11-11-16-9.6-19-9.6-22-7.2-25-4.8-54-6h-29l-54 6-24 4.8-23 7.2-19 9.6-16 9.6-11 11-7.2 11-2.4 12" fill="none" stroke="#231f20" stroke-linecap="round" stroke-linejoin="round" stroke-miterlimit="10" stroke-width="7.5"/>
<path d="m7342 1423 2.4 12 7.2 11 11 11 16 9.6 19 9.6 23 7.2 24 4.8 54 6h29l54-6 25-4.8 22-7.2 19-9.6 16-9.6 11-11 7.2-11 2.4-12-2.4-12-7.2-11-11-11-16-9.6-19-8.4-22-7.2-25-6-54-6h-29l-54 6-24 6-23 7.2-19 8.4-16 9.6-11 11-7.2 11-2.4 12" fill="#fff"/>
<path d="m7342 1423 2.4 12 7.2 11 11 11 16 9.6 19 9.6 23 7.2 24 4.8 54 6h29l54-6 25-4.8 22-7.2 19-9.6 16-9.6 11-11 7.2-11 2.4-12-2.4-12-7.2-11-11-11-16-9.6-19-8.4-22-7.2-25-6-54-6h-29l-54 6-24 6-23 7.2-19 8.4-16 9.6-11 11-7.2 11-2.4 12" fill="none" stroke="#231f20" stroke-linecap="round" stroke-linejoin="round" stroke-miterlimit="10" stroke-width="7.5"/>
<path d="m7342 942 2.4 11 7.2 12 11 11 16 9.6 19 8.4 23 7.2 24 6 26 3.6 28 1.2h29l28-1.2 26-3.6 25-6 22-7.2 19-8.4 16-9.6 11-11 7.2-12 2.4-11-2.4-12-7.2-12-11-9.6-16-11-19-8.4-22-7.2-52-9.6-28-1.2h-29l-28 1.2-50 9.6-23 7.2-19 8.4-16 11-11 9.6-7.2 12-2.4 12" fill="#fff"/>
<path d="m7342 942 2.4 11 7.2 12 11 11 16 9.6 19 8.4 23 7.2 24 6 26 3.6 28 1.2h29l28-1.2 26-3.6 25-6 22-7.2 19-8.4 16-9.6 11-11 7.2-12 2.4-11-2.4-12-7.2-12-11-9.6-16-11-19-8.4-22-7.2-52-9.6-28-1.2h-29l-28 1.2-50 9.6-23 7.2-19 8.4-16 11-11 9.6-7.2 12-2.4 12" fill="none" stroke="#231f20" stroke-linecap="round" stroke-linejoin="round" stroke-miterlimit="10" stroke-width="7.5"/>
<path d="m7512 3086v-56" fill="none" stroke="#231f20" stroke-linecap="round" stroke-linejoin="round" stroke-miterlimit="10" stroke-width="2.5"/>
<path d="m7484 3079 28 83 28-83h-55" fill="#231f20"/>
<path d="m7540 3e3 -28-83-28 83h55" fill="#231f20"/>
<path d="m7512 3572v-60" fill="none" stroke="#231f20" stroke-linecap="round" stroke-linejoin="round" stroke-miterlimit="10" stroke-width="2.5"/>
<path d="m7484 3566 28 83 28-83h-55" fill="#231f20"/>
<path d="m7540 3518-28-83-28 83h55" fill="#231f20"/>
<path d="m7512 2599v-65" fill="none" stroke="#231f20" stroke-linecap="round" stroke-linejoin="round" stroke-miterlimit="10" stroke-width="2.5"/>
<path d="m7484 2593 28 83 28-83h-55" fill="#231f20"/>
<path d="m7540 2540-28-83-28 83h55" fill="#231f20"/>
<path d="m7512 2113v-61" fill="none" stroke="#231f20" stroke-linecap="round" stroke-linejoin="round" stroke-miterlimit="10" stroke-width="2.5"/>
<path d="m7484 2106 28 83 28-83h-55" fill="#231f20"/>
<path d="m7540 2059-28-83-28 83h55" fill="#231f20"/>
<path d="m7512 1626v-55" fill="none" stroke="#231f20" stroke-linecap="round" stroke-linejoin="round" stroke-miterlimit="10" stroke-width="2.5"/>
<path d="m7484 1619 28 83 28-83h-55" fill="#231f20"/>
<path d="m7540 1577-28-83-28 83h55" fill="#231f20"/>
<path d="m7512 1140v-52" fill="none" stroke="#231f20" stroke-linecap="round" stroke-linejoin="round" stroke-miterlimit="10" stroke-width="2.5"/>
<path d="m7484 1133 28 83 28-83h-55" fill="#231f20"/>
<path d="m7540 1096-28-83-28 83h55" fill="#231f20"/>
<g fill="none" stroke="#231f20" stroke-linecap="round" stroke-linejoin="round" stroke-miterlimit="10" stroke-width="2.5">
<path d="m2846 3748h4.8"/>
<path d="m2856 3748h4.8"/>
<path d="m2866 3748h4.8"/>
<path d="m2875 3748h4.8"/>
<path d="m2885 3748h4.8"/>
<path d="m2894 3748h4.8"/>
<path d="m2904 3748h4.8"/>
<path d="m2914 3748h4.8"/>
<path d="m2923 3748h4.8"/>
<path d="m2933 3748h4.8"/>
<path d="m2942 3748h4.8"/>
<path d="m3e3 3748h4.8"/>
<path d="m3e3 3748h4.8"/>
<path d="m3e3 3748h4.8"/>
<path d="m3e3 3748h4.8"/>
<path d="m3e3 3748h4.8"/>
<path d="m3e3 3748h4.8"/>
<path d="m3e3 3748h4.8"/>
<path d="m3e3 3748h4.8"/>
<path d="m3e3 3748h4.8"/>
<path d="m3e3 3748h4.8"/>
<path d="m3e3 3748h4.8"/>
<path d="m3058 3748h4.8"/>
<path d="m3067 3748h4.8"/>
<path d="m3077 3748h4.8"/>
<path d="m3086 3748h4.8"/>
<path d="m3096 3748h4.8"/>
<path d="m3106 3748h4.8"/>
<path d="m3115 3748h4.8"/>
<path d="m3125 3748h4.8"/>
<path d="m3134 3748h4.8"/>
<path d="m3144 3748h4.8"/>
<path d="m3154 3748h4.8"/>
<path d="m3163 3748h4.8"/>
<path d="m3173 3748h4.8"/>
<path d="m3182 3748h4.8"/>
<path d="m3192 3748h4.8"/>
<path d="m3202 3748h4.8"/>
<path d="m3211 3748h4.8"/>
<path d="m3221 3748h4.8"/>
<path d="m3230 3748h4.8"/>
<path d="m3240 3748h4.8"/>
<path d="m3250 3748h4.8"/>
<path d="m3259 3748h4.8"/>
<path d="m3269 3748h4.8"/>
<path d="m3278 3748h4.8"/>
<path d="m3288 3748h4.8"/>
<path d="m3298 3748h4.8"/>
<path d="m3307 3748h4.8"/>
<path d="m3317 3748h4.8"/>
<path d="m3326 3748h4.8"/>
<path d="m3336 3748h4.8"/>
<path d="m3346 3748h4.8"/>
<path d="m3355 3748h4.8"/>
<path d="m3365 3748h4.8"/>
<path d="m3374 3748h4.8"/>
<path d="m3384 3748h4.8"/>
<path d="m3394 3748h4.8"/>
<path d="m3403 3748h4.8"/>
<path d="m3413 3748h4.8"/>
<path d="m3422 3748h4.8"/>
<path d="m3432 3748h4.8"/>
<path d="m3442 3748h4.8"/>
<path d="m3451 3748h4.8"/>
<path d="m3461 3748h4.8"/>
<path d="m3470 3748h4.8"/>
<path d="m3480 3748h4.8"/>
<path d="m3490 3748h4.8"/>
<path d="m3499 3748h4.8"/>
<path d="m3509 3748h4.8"/>
<path d="m3518 3748h4.8"/>
<path d="m3528 3748h4.8"/>
<path d="m3538 3748h4.8"/>
<path d="m3547 3748h4.8"/>
<path d="m3557 3748h4.8"/>
<path d="m3566 3748h4.8"/>
<path d="m3576 3748h4.8"/>
<path d="m3586 3748h4.8"/>
<path d="m3595 3748h4.8"/>
<path d="m3605 3748h4.8"/>
<path d="m3614 3748h4.8"/>
<path d="m3624 3748h4.8"/>
<path d="m3634 3748h4.8"/>
<path d="m3643 3748h4.8"/>
<path d="m3653 3748h4.8"/>
<path d="m3662 3748h4.8"/>
<path d="m3672 3748h4.8"/>
<path d="m3682 3748h4.8"/>
<path d="m3691 3748h4.8"/>
<path d="m3701 3748h4.8"/>
<path d="m3710 3748h4.8"/>
<path d="m3720 3748h4.8"/>
<path d="m3730 3748h4.8"/>
<path d="m3739 3748h4.8"/>
<path d="m3749 3748h4.8"/>
<path d="m3758 3748h4.8"/>
<path d="m3768 3748h4.8"/>
<path d="m3778 3748h4.8"/>
<path d="m3787 3748h4.8"/>
<path d="m3797 3748h4.8"/>
<path d="m3806 3748h4.8"/>
<path d="m3816 3748h4.8"/>
<path d="m3826 3748h4.8"/>
<path d="m3835 3748h4.8"/>
<path d="m3845 3748h4.8"/>
<path d="m3854 3748h4.8"/>
<path d="m3864 3748h4.8"/>
<path d="m3874 3748h4.8"/>
<path d="m3883 3748h4.8"/>
<path d="m3893 3748h4.8"/>
<path d="m3902 3748h4.8"/>
<path d="m3912 3748h4.8"/>
<path d="m3922 3748h4.8"/>
<path d="m3931 3748h4.8"/>
<path d="m3941 3748h4.8"/>
<path d="m4e3 3748h4.8"/>
<path d="m4e3 3748h4.8"/>
<path d="m4e3 3748h4.8"/>
<path d="m4e3 3748h4.8"/>
<path d="m4e3 3748h4.8"/>
<path d="m4e3 3748h4.8"/>
<path d="m4e3 3748h4.8"/>
<path d="m4e3 3748h4.8"/>
<path d="m4e3 3748h4.8"/>
<path d="m4e3 3748h4.8"/>
<path d="m4e3 3748h4.8"/>
<path d="m4056 3748h4.8"/>
<path d="m4066 3748h4.8"/>
<path d="m4075 3748h4.8"/>
<path d="m4085 3748h4.8"/>
<path d="m4094 3748h4.8"/>
<path d="m4104 3748h4.8"/>
<path d="m4114 3748h4.8"/>
<path d="m4123 3748h4.8"/>
<path d="m4133 3748h4.8"/>
<path d="m4142 3748h4.8"/>
<path d="m4152 3748h4.8"/>
<path d="m4162 3748h4.8"/>
<path d="m4171 3748h4.8"/>
<path d="m4181 3748h4.8"/>
<path d="m4190 3748h4.8"/>
<path d="m4200 3748h4.8"/>
<path d="m4210 3748h4.8"/>
<path d="m4219 3748h4.8"/>
<path d="m4229 3748h4.8"/>
<path d="m4238 3748h4.8"/>
<path d="m4248 3748h4.8"/>
<path d="m4258 3748h4.8"/>
<path d="m4267 3748h4.8"/>
<path d="m4277 3748h4.8"/>
<path d="m4286 3748h4.8"/>
<path d="m4296 3748h4.8"/>
<path d="m4306 3748h4.8"/>
<path d="m4315 3748h4.8"/>
<path d="m4325 3748h4.8"/>
<path d="m4334 3748h4.8"/>
<path d="m4344 3748h4.8"/>
<path d="m4354 3748h4.8"/>
<path d="m4363 3748h4.8"/>
<path d="m4373 3748h4.8"/>
<path d="m4382 3748h4.8"/>
<path d="m4392 3748h4.8"/>
<path d="m4402 3748h4.8"/>
<path d="m4411 3748h4.8"/>
<path d="m4421 3748h4.8"/>
<path d="m4430 3748h4.8"/>
<path d="m4440 3748h4.8"/>
<path d="m4450 3748h4.8"/>
<path d="m4459 3748h4.8"/>
<path d="m4469 3748h4.8"/>
<path d="m4478 3748h4.8"/>
<path d="m4488 3748h4.8"/>
<path d="m4498 3748h4.8"/>
<path d="m4507 3748h4.8"/>
<path d="m4517 3748h4.8"/>
<path d="m4526 3748h4.8"/>
<path d="m4536 3748h4.8"/>
<path d="m4546 3748h4.8"/>
<path d="m4555 3748h4.8"/>
<path d="m4565 3748h4.8"/>
<path d="m4574 3748h4.8"/>
<path d="m4584 3748h4.8"/>
<path d="m4594 3748h4.8"/>
<path d="m4603 3748h4.8"/>
<path d="m4613 3748h4.8"/>
<path d="m4622 3748h4.8"/>
<path d="m4632 3748h4.8"/>
<path d="m4642 3748h4.8"/>
<path d="m4651 3748h4.8"/>
<path d="m4661 3748h4.8"/>
<path d="m4670 3748h4.8"/>
<path d="m4680 3748h4.8"/>
<path d="m4690 3748h4.8"/>
<path d="m4699 3748h4.8"/>
<path d="m4709 3748h4.8"/>
<path d="m4718 3748h4.8"/>
<path d="m4728 3748h4.8"/>
<path d="m4738 3748h4.8"/>
<path d="m4747 3748h4.8"/>
<path d="m4757 3748h4.8"/>
<path d="m4766 3748h4.8"/>
<path d="m4776 3748h4.8"/>
<path d="m4786 3748h4.8"/>
<path d="m4795 3748h4.8"/>
<path d="m4805 3748h4.8"/>
<path d="m4814 3748h4.8"/>
<path d="m4824 3748h4.8"/>
<path d="m4834 3748h4.8"/>
<path d="m4843 3748h4.8"/>
<path d="m4853 3748h4.8"/>
<path d="m4862 3748h4.8"/>
<path d="m4872 3748h4.8"/>
<path d="m4882 3748h4.8"/>
<path d="m4891 3748h4.8"/>
<path d="m4901 3748h4.8"/>
<path d="m4910 3748h4.8"/>
<path d="m4920 3748h4.8"/>
<path d="m4930 3748h4.8"/>
<path d="m4939 3748h4.8"/>
<path d="m4949 3748h4.8"/>
<path d="m5e3 3748h4.8"/>
<path d="m5e3 3748h4.8"/>
<path d="m5e3 3748h4.8"/>
<path d="m5e3 3748h4.8"/>
<path d="m5e3 3748h4.8"/>
<path d="m5e3 3748h4.8"/>
<path d="m5e3 3748h4.8"/>
<path d="m5e3 3748h4.8"/>
<path d="m5e3 3748h4.8"/>
<path d="m5e3 3748h4.8"/>
<path d="m5054 3748h4.8"/>
<path d="m5064 3748h4.8"/>
<path d="m5074 3748h4.8"/>
<path d="m5083 3748h4.8"/>
<path d="m5093 3748h4.8"/>
<path d="m5102 3748h4.8"/>
<path d="m5112 3748h4.8"/>
<path d="m5122 3748h4.8"/>
<path d="m5131 3748h4.8"/>
<path d="m5141 3748h4.8"/>
<path d="m5150 3748h4.8"/>
<path d="m5160 3748h4.8"/>
<path d="m5170 3748h4.8"/>
<path d="m5179 3748h4.8"/>
<path d="m5189 3748h4.8"/>
<path d="m5198 3748h4.8"/>
<path d="m5208 3748h4.8"/>
<path d="m5218 3748h4.8"/>
<path d="m5227 3748h4.8"/>
<path d="m5237 3748h4.8"/>
<path d="m5246 3748h4.8"/>
<path d="m5256 3748h4.8"/>
<path d="m5266 3748h4.8"/>
<path d="m5275 3748h4.8"/>
<path d="m5285 3748h4.8"/>
<path d="m5294 3748h4.8"/>
<path d="m5304 3748h4.8"/>
<path d="m5314 3748h4.8"/>
<path d="m5323 3748h4.8"/>
<path d="m5333 3748h4.8"/>
<path d="m5342 3748h4.8"/>
<path d="m5352 3748h4.8"/>
<path d="m5362 3748h4.8"/>
<path d="m5371 3748h4.8"/>
<path d="m5381 3748h4.8"/>
<path d="m5390 3748h4.8"/>
<path d="m5400 3748h4.8"/>
<path d="m5410 3748h4.8"/>
<path d="m5419 3748h4.8"/>
<path d="m5429 3748h4.8"/>
<path d="m5438 3748h4.8"/>
<path d="m5448 3748h4.8"/>
<path d="m5458 3748h4.8"/>
<path d="m5467 3748h4.8"/>
<path d="m5477 3748h4.8"/>
<path d="m5486 3748h4.8"/>
<path d="m5496 3748h4.8"/>
<path d="m5506 3748h4.8"/>
<path d="m5515 3748h4.8"/>
<path d="m5525 3748h4.8"/>
<path d="m5534 3748h4.8"/>
<path d="m5544 3748h4.8"/>
<path d="m5554 3748h4.8"/>
<path d="m5563 3748h4.8"/>
<path d="m5573 3748h4.8"/>
<path d="m5582 3748h4.8"/>
<path d="m5592 3748h4.8"/>
<path d="m5602 3748h4.8"/>
<path d="m5611 3748h4.8"/>
<path d="m5621 3748h4.8"/>
<path d="m5630 3748h4.8"/>
<path d="m5640 3748h4.8"/>
<path d="m5650 3748h4.8"/>
<path d="m5659 3748h4.8"/>
<path d="m5669 3748h4.8"/>
<path d="m5678 3748h4.8"/>
<path d="m5688 3748h4.8"/>
<path d="m5698 3748h4.8"/>
<path d="m5707 3748h4.8"/>
<path d="m5717 3748h4.8"/>
<path d="m5726 3748h4.8"/>
<path d="m5736 3748h4.8"/>
<path d="m5746 3748h4.8"/>
<path d="m5755 3748h4.8"/>
<path d="m5765 3748h4.8"/>
<path d="m5774 3748h4.8"/>
<path d="m5784 3748h4.8"/>
<path d="m5794 3748h4.8"/>
<path d="m5803 3748h4.8"/>
<path d="m5813 3748h4.8"/>
<path d="m5822 3748h4.8"/>
<path d="m5832 3748h4.8"/>
<path d="m5842 3748h4.8"/>
<path d="m5851 3748h4.8"/>
<path d="m5861 3748h4.8"/>
<path d="m5870 3748h4.8"/>
<path d="m5880 3748h4.8"/>
<path d="m5890 3748h4.8"/>
<path d="m5899 3748h4.8"/>
<path d="m5909 3748h4.8"/>
<path d="m5918 3748h4.8"/>
<path d="m5928 3748h4.8"/>
<path d="m5938 3748h4.8"/>
<path d="m5947 3748h4.8"/>
<path d="m6e3 3748h4.8"/>
<path d="m6e3 3748h4.8"/>
<path d="m6e3 3748h4.8"/>
<path d="m6e3 3748h4.8"/>
<path d="m6e3 3748h4.8"/>
<path d="m6e3 3748h4.8"/>
<path d="m6e3 3748h4.8"/>
<path d="m6e3 3748h4.8"/>
<path d="m6e3 3748h4.8"/>
<path d="m6e3 3748h4.8"/>
<path d="m6053 3748h4.8"/>
<path d="m6062 3748h4.8"/>
<path d="m6072 3748h4.8"/>
<path d="m6082 3748h4.8"/>
<path d="m6091 3748h4.8"/>
<path d="m6101 3748h4.8"/>
<path d="m6110 3748h4.8"/>
<path d="m6120 3748h4.8"/>
<path d="m6130 3748h4.8"/>
<path d="m6139 3748h4.8"/>
<path d="m6149 3748h4.8"/>
<path d="m6158 3748h4.8"/>
<path d="m6168 3748h4.8"/>
<path d="m6178 3748h4.8"/>
<path d="m6187 3748h4.8"/>
<path d="m6197 3748h4.8"/>
<path d="m6206 3748h4.8"/>
<path d="m6216 3748h4.8"/>
<path d="m6226 3748h4.8"/>
<path d="m6235 3748h4.8"/>
<path d="m6245 3748h4.8"/>
<path d="m6254 3748h4.8"/>
<path d="m6264 3748h4.8"/>
<path d="m6274 3748h4.8"/>
<path d="m6283 3748h4.8"/>
<path d="m6293 3748h4.8"/>
<path d="m6302 3748h4.8"/>
<path d="m6312 3748h4.8"/>
<path d="m6322 3748h4.8"/>
<path d="m6331 3748h4.8"/>
<path d="m6341 3748h4.8"/>
<path d="m6350 3748h4.8"/>
<path d="m6360 3748h4.8"/>
<path d="m6370 3748h4.8"/>
<path d="m6379 3748h4.8"/>
<path d="m6389 3748h4.8"/>
<path d="m6398 3748h4.8"/>
<path d="m6408 3748h4.8"/>
<path d="m6418 3748h4.8"/>
<path d="m6427 3748h4.8"/>
<path d="m6437 3748h4.8"/>
<path d="m6446 3748h4.8"/>
<path d="m6456 3748h4.8"/>
<path d="m6466 3748h4.8"/>
<path d="m6475 3748h4.8"/>
<path d="m6485 3748h4.8"/>
<path d="m6494 3748h4.8"/>
<path d="m6504 3748h4.8"/>
<path d="m6514 3748h4.8"/>
<path d="m6523 3748h4.8"/>
<path d="m6533 3748h4.8"/>
<path d="m6542 3748h4.8"/>
<path d="m6552 3748h4.8"/>
<path d="m6562 3748h4.8"/>
<path d="m6571 3748h4.8"/>
<path d="m6581 3748h4.8"/>
<path d="m6590 3748h4.8"/>
<path d="m6600 3748h4.8"/>
<path d="m6610 3748h4.8"/>
<path d="m6619 3748h4.8"/>
<path d="m6629 3748h4.8"/>
<path d="m6638 3748h4.8"/>
<path d="m6648 3748h4.8"/>
<path d="m6658 3748h4.8"/>
<path d="m6667 3748h4.8"/>
<path d="m6677 3748h4.8"/>
<path d="m6686 3748h4.8"/>
<path d="m6696 3748h4.8"/>
<path d="m6706 3748h4.8"/>
<path d="m6715 3748h4.8"/>
<path d="m6725 3748h4.8"/>
<path d="m6734 3748h4.8"/>
<path d="m6744 3748h4.8"/>
<path d="m6754 3748h4.8"/>
<path d="m6763 3748h4.8"/>
</g>
<path d="m2854 3720-83 28 83 28v-55" fill="#231f20"/>
<path d="m6763 3775 83-28-83-28v55" fill="#231f20"/>
<g fill="none" stroke="#231f20" stroke-linecap="round" stroke-linejoin="round" stroke-miterlimit="10" stroke-width="2.5">
<path d="m2846 3262h4.8"/>
<path d="m2856 3262h4.8"/>
<path d="m2866 3262h4.8"/>
<path d="m2875 3262h4.8"/>
<path d="m2885 3262h4.8"/>
<path d="m2894 3262h4.8"/>
<path d="m2904 3262h4.8"/>
<path d="m2914 3262h4.8"/>
<path d="m2923 3262h4.8"/>
<path d="m2933 3262h4.8"/>
<path d="m2942 3262h4.8"/>
<path d="m3e3 3262h4.8"/>
<path d="m3e3 3262h4.8"/>
<path d="m3e3 3262h4.8"/>
<path d="m3e3 3262h4.8"/>
<path d="m3e3 3262h4.8"/>
<path d="m3e3 3262h4.8"/>
<path d="m3e3 3262h4.8"/>
<path d="m3e3 3262h4.8"/>
<path d="m3e3 3262h4.8"/>
<path d="m3e3 3262h4.8"/>
<path d="m3e3 3262h4.8"/>
<path d="m3058 3262h4.8"/>
<path d="m3067 3262h4.8"/>
<path d="m3077 3262h4.8"/>
<path d="m3086 3262h4.8"/>
<path d="m3096 3262h4.8"/>
<path d="m3106 3262h4.8"/>
<path d="m3115 3262h4.8"/>
<path d="m3125 3262h4.8"/>
<path d="m3134 3262h4.8"/>
<path d="m3144 3262h4.8"/>
<path d="m3154 3262h4.8"/>
<path d="m3163 3262h4.8"/>
<path d="m3173 3262h4.8"/>
<path d="m3182 3262h4.8"/>
<path d="m3192 3262h4.8"/>
<path d="m3202 3262h4.8"/>
<path d="m3211 3262h4.8"/>
<path d="m3221 3262h4.8"/>
<path d="m3230 3262h4.8"/>
<path d="m3240 3262h4.8"/>
<path d="m3250 3262h4.8"/>
<path d="m3259 3262h4.8"/>
<path d="m3269 3262h4.8"/>
<path d="m3278 3262h4.8"/>
<path d="m3288 3262h4.8"/>
<path d="m3298 3262h4.8"/>
<path d="m3307 3262h4.8"/>
<path d="m3317 3262h4.8"/>
<path d="m3326 3262h4.8"/>
<path d="m3336 3262h4.8"/>
<path d="m3346 3262h4.8"/>
<path d="m3355 3262h4.8"/>
<path d="m3365 3262h4.8"/>
<path d="m3374 3262h4.8"/>
<path d="m3384 3262h4.8"/>
<path d="m3394 3262h4.8"/>
<path d="m3403 3262h4.8"/>
<path d="m3413 3262h4.8"/>
<path d="m3422 3262h4.8"/>
<path d="m3432 3262h4.8"/>
<path d="m3442 3262h4.8"/>
<path d="m3451 3262h4.8"/>
<path d="m3461 3262h4.8"/>
<path d="m3470 3262h4.8"/>
<path d="m3480 3262h4.8"/>
<path d="m3490 3262h4.8"/>
<path d="m3499 3262h4.8"/>
<path d="m3509 3262h4.8"/>
<path d="m3518 3262h4.8"/>
<path d="m3528 3262h4.8"/>
<path d="m3538 3262h4.8"/>
<path d="m3547 3262h4.8"/>
<path d="m3557 3262h4.8"/>
<path d="m3566 3262h4.8"/>
<path d="m3576 3262h4.8"/>
<path d="m3586 3262h4.8"/>
<path d="m3595 3262h4.8"/>
<path d="m3605 3262h4.8"/>
<path d="m3614 3262h4.8"/>
<path d="m3624 3262h4.8"/>
<path d="m3634 3262h4.8"/>
<path d="m3643 3262h4.8"/>
<path d="m3653 3262h4.8"/>
<path d="m3662 3262h4.8"/>
<path d="m3672 3262h4.8"/>
<path d="m3682 3262h4.8"/>
<path d="m3691 3262h4.8"/>
<path d="m3701 3262h4.8"/>
<path d="m3710 3262h4.8"/>
<path d="m3720 3262h4.8"/>
<path d="m3730 3262h4.8"/>
<path d="m3739 3262h4.8"/>
<path d="m3749 3262h4.8"/>
<path d="m3758 3262h4.8"/>
<path d="m3768 3262h4.8"/>
<path d="m3778 3262h4.8"/>
<path d="m3787 3262h4.8"/>
<path d="m3797 3262h4.8"/>
<path d="m3806 3262h4.8"/>
<path d="m3816 3262h4.8"/>
<path d="m3826 3262h4.8"/>
<path d="m3835 3262h4.8"/>
<path d="m3845 3262h4.8"/>
<path d="m3854 3262h4.8"/>
<path d="m3864 3262h4.8"/>
<path d="m3874 3262h4.8"/>
<path d="m3883 3262h4.8"/>
<path d="m3893 3262h4.8"/>
<path d="m3902 3262h4.8"/>
<path d="m3912 3262h4.8"/>
<path d="m3922 3262h4.8"/>
<path d="m3931 3262h4.8"/>
<path d="m3941 3262h4.8"/>
<path d="m4e3 3262h4.8"/>
<path d="m4e3 3262h4.8"/>
<path d="m4e3 3262h4.8"/>
<path d="m4e3 3262h4.8"/>
<path d="m4e3 3262h4.8"/>
<path d="m4e3 3262h4.8"/>
<path d="m4e3 3262h4.8"/>
<path d="m4e3 3262h4.8"/>
<path d="m4e3 3262h4.8"/>
<path d="m4e3 3262h4.8"/>
<path d="m4e3 3262h4.8"/>
<path d="m4056 3262h4.8"/>
<path d="m4066 3262h4.8"/>
<path d="m4075 3262h4.8"/>
<path d="m4085 3262h4.8"/>
<path d="m4094 3262h4.8"/>
<path d="m4104 3262h4.8"/>
<path d="m4114 3262h4.8"/>
<path d="m4123 3262h4.8"/>
<path d="m4133 3262h4.8"/>
<path d="m4142 3262h4.8"/>
<path d="m4152 3262h4.8"/>
<path d="m4162 3262h4.8"/>
<path d="m4171 3262h4.8"/>
<path d="m4181 3262h4.8"/>
<path d="m4190 3262h4.8"/>
<path d="m4200 3262h4.8"/>
<path d="m4210 3262h4.8"/>
<path d="m4219 3262h4.8"/>
<path d="m4229 3262h4.8"/>
<path d="m4238 3262h4.8"/>
<path d="m4248 3262h4.8"/>
<path d="m4258 3262h4.8"/>
<path d="m4267 3262h4.8"/>
<path d="m4277 3262h4.8"/>
<path d="m4286 3262h4.8"/>
<path d="m4296 3262h4.8"/>
<path d="m4306 3262h4.8"/>
<path d="m4315 3262h4.8"/>
<path d="m4325 3262h4.8"/>
<path d="m4334 3262h4.8"/>
<path d="m4344 3262h4.8"/>
<path d="m4354 3262h4.8"/>
<path d="m4363 3262h4.8"/>
<path d="m4373 3262h4.8"/>
<path d="m4382 3262h4.8"/>
<path d="m4392 3262h4.8"/>
<path d="m4402 3262h4.8"/>
<path d="m4411 3262h4.8"/>
<path d="m4421 3262h4.8"/>
<path d="m4430 3262h4.8"/>
<path d="m4440 3262h4.8"/>
<path d="m4450 3262h4.8"/>
<path d="m4459 3262h4.8"/>
<path d="m4469 3262h4.8"/>
<path d="m4478 3262h4.8"/>
<path d="m4488 3262h4.8"/>
<path d="m4498 3262h4.8"/>
<path d="m4507 3262h4.8"/>
<path d="m4517 3262h4.8"/>
<path d="m4526 3262h4.8"/>
<path d="m4536 3262h4.8"/>
<path d="m4546 3262h4.8"/>
<path d="m4555 3262h4.8"/>
<path d="m4565 3262h4.8"/>
<path d="m4574 3262h4.8"/>
<path d="m4584 3262h4.8"/>
<path d="m4594 3262h4.8"/>
<path d="m4603 3262h4.8"/>
<path d="m4613 3262h4.8"/>
<path d="m4622 3262h4.8"/>
<path d="m4632 3262h4.8"/>
<path d="m4642 3262h4.8"/>
<path d="m4651 3262h4.8"/>
<path d="m4661 3262h4.8"/>
<path d="m4670 3262h4.8"/>
<path d="m4680 3262h4.8"/>
<path d="m4690 3262h4.8"/>
<path d="m4699 3262h4.8"/>
<path d="m4709 3262h4.8"/>
<path d="m4718 3262h4.8"/>
<path d="m4728 3262h4.8"/>
<path d="m4738 3262h4.8"/>
<path d="m4747 3262h4.8"/>
<path d="m4757 3262h4.8"/>
<path d="m4766 3262h4.8"/>
<path d="m4776 3262h4.8"/>
<path d="m4786 3262h4.8"/>
<path d="m4795 3262h4.8"/>
<path d="m4805 3262h4.8"/>
<path d="m4814 3262h4.8"/>
<path d="m4824 3262h4.8"/>
<path d="m4834 3262h4.8"/>
<path d="m4843 3262h4.8"/>
<path d="m4853 3262h4.8"/>
<path d="m4862 3262h4.8"/>
<path d="m4872 3262h4.8"/>
<path d="m4882 3262h4.8"/>
<path d="m4891 3262h4.8"/>
<path d="m4901 3262h4.8"/>
<path d="m4910 3262h4.8"/>
<path d="m4920 3262h4.8"/>
<path d="m4930 3262h4.8"/>
<path d="m4939 3262h4.8"/>
<path d="m4949 3262h4.8"/>
<path d="m5e3 3262h4.8"/>
<path d="m5e3 3262h4.8"/>
<path d="m5e3 3262h4.8"/>
<path d="m5e3 3262h4.8"/>
<path d="m5e3 3262h4.8"/>
<path d="m5e3 3262h4.8"/>
<path d="m5e3 3262h4.8"/>
<path d="m5e3 3262h4.8"/>
<path d="m5e3 3262h4.8"/>
<path d="m5e3 3262h4.8"/>
<path d="m5054 3262h4.8"/>
<path d="m5064 3262h4.8"/>
<path d="m5074 3262h4.8"/>
<path d="m5083 3262h4.8"/>
<path d="m5093 3262h4.8"/>
<path d="m5102 3262h4.8"/>
<path d="m5112 3262h4.8"/>
<path d="m5122 3262h4.8"/>
<path d="m5131 3262h4.8"/>
<path d="m5141 3262h4.8"/>
<path d="m5150 3262h4.8"/>
<path d="m5160 3262h4.8"/>
<path d="m5170 3262h4.8"/>
<path d="m5179 3262h4.8"/>
<path d="m5189 3262h4.8"/>
<path d="m5198 3262h4.8"/>
<path d="m5208 3262h4.8"/>
<path d="m5218 3262h4.8"/>
<path d="m5227 3262h4.8"/>
<path d="m5237 3262h4.8"/>
<path d="m5246 3262h4.8"/>
<path d="m5256 3262h4.8"/>
<path d="m5266 3262h4.8"/>
<path d="m5275 3262h4.8"/>
<path d="m5285 3262h4.8"/>
<path d="m5294 3262h4.8"/>
<path d="m5304 3262h4.8"/>
<path d="m5314 3262h4.8"/>
<path d="m5323 3262h4.8"/>
<path d="m5333 3262h4.8"/>
<path d="m5342 3262h4.8"/>
<path d="m5352 3262h4.8"/>
<path d="m5362 3262h4.8"/>
<path d="m5371 3262h4.8"/>
<path d="m5381 3262h4.8"/>
<path d="m5390 3262h4.8"/>
<path d="m5400 3262h4.8"/>
<path d="m5410 3262h4.8"/>
<path d="m5419 3262h4.8"/>
<path d="m5429 3262h4.8"/>
<path d="m5438 3262h4.8"/>
<path d="m5448 3262h4.8"/>
<path d="m5458 3262h4.8"/>
<path d="m5467 3262h4.8"/>
<path d="m5477 3262h4.8"/>
<path d="m5486 3262h4.8"/>
<path d="m5496 3262h4.8"/>
<path d="m5506 3262h4.8"/>
<path d="m5515 3262h4.8"/>
<path d="m5525 3262h4.8"/>
<path d="m5534 3262h4.8"/>
<path d="m5544 3262h4.8"/>
<path d="m5554 3262h4.8"/>
<path d="m5563 3262h4.8"/>
<path d="m5573 3262h4.8"/>
<path d="m5582 3262h4.8"/>
<path d="m5592 3262h4.8"/>
<path d="m5602 3262h4.8"/>
<path d="m5611 3262h4.8"/>
<path d="m5621 3262h4.8"/>
<path d="m5630 3262h4.8"/>
<path d="m5640 3262h4.8"/>
<path d="m5650 3262h4.8"/>
<path d="m5659 3262h4.8"/>
<path d="m5669 3262h4.8"/>
<path d="m5678 3262h4.8"/>
<path d="m5688 3262h4.8"/>
<path d="m5698 3262h4.8"/>
<path d="m5707 3262h4.8"/>
<path d="m5717 3262h4.8"/>
<path d="m5726 3262h4.8"/>
<path d="m5736 3262h4.8"/>
<path d="m5746 3262h4.8"/>
<path d="m5755 3262h4.8"/>
<path d="m5765 3262h4.8"/>
<path d="m5774 3262h4.8"/>
<path d="m5784 3262h4.8"/>
<path d="m5794 3262h4.8"/>
<path d="m5803 3262h4.8"/>
<path d="m5813 3262h4.8"/>
<path d="m5822 3262h4.8"/>
<path d="m5832 3262h4.8"/>
<path d="m5842 3262h4.8"/>
<path d="m5851 3262h4.8"/>
<path d="m5861 3262h4.8"/>
<path d="m5870 3262h4.8"/>
<path d="m5880 3262h4.8"/>
<path d="m5890 3262h4.8"/>
<path d="m5899 3262h4.8"/>
<path d="m5909 3262h4.8"/>
<path d="m5918 3262h4.8"/>
<path d="m5928 3262h4.8"/>
<path d="m5938 3262h4.8"/>
<path d="m5947 3262h4.8"/>
<path d="m6e3 3262h4.8"/>
<path d="m6e3 3262h4.8"/>
<path d="m6e3 3262h4.8"/>
<path d="m6e3 3262h4.8"/>
<path d="m6e3 3262h4.8"/>
<path d="m6e3 3262h4.8"/>
<path d="m6e3 3262h4.8"/>
<path d="m6e3 3262h4.8"/>
<path d="m6e3 3262h4.8"/>
<path d="m6e3 3262h4.8"/>
<path d="m6053 3262h4.8"/>
<path d="m6062 3262h4.8"/>
<path d="m6072 3262h4.8"/>
<path d="m6082 3262h4.8"/>
<path d="m6091 3262h4.8"/>
<path d="m6101 3262h4.8"/>
<path d="m6110 3262h4.8"/>
<path d="m6120 3262h4.8"/>
<path d="m6130 3262h4.8"/>
<path d="m6139 3262h4.8"/>
<path d="m6149 3262h4.8"/>
<path d="m6158 3262h4.8"/>
<path d="m6168 3262h4.8"/>
<path d="m6178 3262h4.8"/>
<path d="m6187 3262h4.8"/>
<path d="m6197 3262h4.8"/>
<path d="m6206 3262h4.8"/>
<path d="m6216 3262h4.8"/>
<path d="m6226 3262h4.8"/>
<path d="m6235 3262h4.8"/>
<path d="m6245 3262h4.8"/>
<path d="m6254 3262h4.8"/>
<path d="m6264 3262h4.8"/>
<path d="m6274 3262h4.8"/>
<path d="m6283 3262h4.8"/>
<path d="m6293 3262h4.8"/>
<path d="m6302 3262h4.8"/>
<path d="m6312 3262h4.8"/>
<path d="m6322 3262h4.8"/>
<path d="m6331 3262h4.8"/>
<path d="m6341 3262h4.8"/>
<path d="m6350 3262h4.8"/>
<path d="m6360 3262h4.8"/>
<path d="m6370 3262h4.8"/>
<path d="m6379 3262h4.8"/>
<path d="m6389 3262h4.8"/>
<path d="m6398 3262h4.8"/>
<path d="m6408 3262h4.8"/>
<path d="m6418 3262h4.8"/>
<path d="m6427 3262h4.8"/>
<path d="m6437 3262h4.8"/>
<path d="m6446 3262h4.8"/>
<path d="m6456 3262h4.8"/>
<path d="m6466 3262h4.8"/>
<path d="m6475 3262h4.8"/>
<path d="m6485 3262h4.8"/>
<path d="m6494 3262h4.8"/>
<path d="m6504 3262h4.8"/>
<path d="m6514 3262h4.8"/>
<path d="m6523 3262h4.8"/>
<path d="m6533 3262h4.8"/>
<path d="m6542 3262h4.8"/>
<path d="m6552 3262h4.8"/>
<path d="m6562 3262h4.8"/>
<path d="m6571 3262h4.8"/>
<path d="m6581 3262h4.8"/>
<path d="m6590 3262h4.8"/>
<path d="m6600 3262h4.8"/>
<path d="m6610 3262h4.8"/>
<path d="m6619 3262h4.8"/>
<path d="m6629 3262h4.8"/>
<path d="m6638 3262h4.8"/>
<path d="m6648 3262h4.8"/>
<path d="m6658 3262h4.8"/>
<path d="m6667 3262h4.8"/>
<path d="m6677 3262h4.8"/>
<path d="m6686 3262h4.8"/>
<path d="m6696 3262h4.8"/>
<path d="m6706 3262h4.8"/>
<path d="m6715 3262h4.8"/>
<path d="m6725 3262h4.8"/>
<path d="m6734 3262h4.8"/>
<path d="m6744 3262h4.8"/>
<path d="m6754 3262h4.8"/>
<path d="m6763 3262h4.8"/>
</g>
<path d="m2854 3234-83 28 83 28v-55" fill="#231f20"/>
<path d="m6763 3289 83-28-83-28v55" fill="#231f20"/>
<g fill="none" stroke="#231f20" stroke-linecap="round" stroke-linejoin="round" stroke-miterlimit="10" stroke-width="2.5">
<path d="m2846 2774h4.8"/>
<path d="m2856 2774h4.8"/>
<path d="m2866 2774h4.8"/>
<path d="m2875 2774h4.8"/>
<path d="m2885 2774h4.8"/>
<path d="m2894 2774h4.8"/>
<path d="m2904 2774h4.8"/>
<path d="m2914 2774h4.8"/>
<path d="m2923 2774h4.8"/>
<path d="m2933 2774h4.8"/>
<path d="m2942 2774h4.8"/>
<path d="m3e3 2774h4.8"/>
<path d="m3e3 2774h4.8"/>
<path d="m3e3 2774h4.8"/>
<path d="m3e3 2774h4.8"/>
<path d="m3e3 2774h4.8"/>
<path d="m3e3 2774h4.8"/>
<path d="m3e3 2774h4.8"/>
<path d="m3e3 2774h4.8"/>
<path d="m3e3 2774h4.8"/>
<path d="m3e3 2774h4.8"/>
<path d="m3e3 2774h4.8"/>
<path d="m3058 2774h4.8"/>
<path d="m3067 2774h4.8"/>
<path d="m3077 2774h4.8"/>
<path d="m3086 2774h4.8"/>
<path d="m3096 2774h4.8"/>
<path d="m3106 2774h4.8"/>
<path d="m3115 2774h4.8"/>
<path d="m3125 2774h4.8"/>
<path d="m3134 2774h4.8"/>
<path d="m3144 2774h4.8"/>
<path d="m3154 2774h4.8"/>
<path d="m3163 2774h4.8"/>
<path d="m3173 2774h4.8"/>
<path d="m3182 2774h4.8"/>
<path d="m3192 2774h4.8"/>
<path d="m3202 2774h4.8"/>
<path d="m3211 2774h4.8"/>
<path d="m3221 2774h4.8"/>
<path d="m3230 2774h4.8"/>
<path d="m3240 2774h4.8"/>
<path d="m3250 2774h4.8"/>
<path d="m3259 2774h4.8"/>
<path d="m3269 2774h4.8"/>
<path d="m3278 2774h4.8"/>
<path d="m3288 2774h4.8"/>
<path d="m3298 2774h4.8"/>
<path d="m3307 2774h4.8"/>
<path d="m3317 2774h4.8"/>
<path d="m3326 2774h4.8"/>
<path d="m3336 2774h4.8"/>
<path d="m3346 2774h4.8"/>
<path d="m3355 2774h4.8"/>
<path d="m3365 2774h4.8"/>
<path d="m3374 2774h4.8"/>
<path d="m3384 2774h4.8"/>
<path d="m3394 2774h4.8"/>
<path d="m3403 2774h4.8"/>
<path d="m3413 2774h4.8"/>
<path d="m3422 2774h4.8"/>
<path d="m3432 2774h4.8"/>
<path d="m3442 2774h4.8"/>
<path d="m3451 2774h4.8"/>
<path d="m3461 2774h4.8"/>
<path d="m3470 2774h4.8"/>
<path d="m3480 2774h4.8"/>
<path d="m3490 2774h4.8"/>
<path d="m3499 2774h4.8"/>
<path d="m3509 2774h4.8"/>
<path d="m3518 2774h4.8"/>
<path d="m3528 2774h4.8"/>
<path d="m3538 2774h4.8"/>
<path d="m3547 2774h4.8"/>
<path d="m3557 2774h4.8"/>
<path d="m3566 2774h4.8"/>
<path d="m3576 2774h4.8"/>
<path d="m3586 2774h4.8"/>
<path d="m3595 2774h4.8"/>
<path d="m3605 2774h4.8"/>
<path d="m3614 2774h4.8"/>
<path d="m3624 2774h4.8"/>
<path d="m3634 2774h4.8"/>
<path d="m3643 2774h4.8"/>
<path d="m3653 2774h4.8"/>
<path d="m3662 2774h4.8"/>
<path d="m3672 2774h4.8"/>
<path d="m3682 2774h4.8"/>
<path d="m3691 2774h4.8"/>
<path d="m3701 2774h4.8"/>
<path d="m3710 2774h4.8"/>
<path d="m3720 2774h4.8"/>
<path d="m3730 2774h4.8"/>
<path d="m3739 2774h4.8"/>
<path d="m3749 2774h4.8"/>
<path d="m3758 2774h4.8"/>
<path d="m3768 2774h4.8"/>
<path d="m3778 2774h4.8"/>
<path d="m3787 2774h4.8"/>
<path d="m3797 2774h4.8"/>
<path d="m3806 2774h4.8"/>
<path d="m3816 2774h4.8"/>
<path d="m3826 2774h4.8"/>
<path d="m3835 2774h4.8"/>
<path d="m3845 2774h4.8"/>
<path d="m3854 2774h4.8"/>
<path d="m3864 2774h4.8"/>
<path d="m3874 2774h4.8"/>
<path d="m3883 2774h4.8"/>
<path d="m3893 2774h4.8"/>
<path d="m3902 2774h4.8"/>
<path d="m3912 2774h4.8"/>
<path d="m3922 2774h4.8"/>
<path d="m3931 2774h4.8"/>
<path d="m3941 2774h4.8"/>
<path d="m4e3 2774h4.8"/>
<path d="m4e3 2774h4.8"/>
<path d="m4e3 2774h4.8"/>
<path d="m4e3 2774h4.8"/>
<path d="m4e3 2774h4.8"/>
<path d="m4e3 2774h4.8"/>
<path d="m4e3 2774h4.8"/>
<path d="m4e3 2774h4.8"/>
<path d="m4e3 2774h4.8"/>
<path d="m4e3 2774h4.8"/>
<path d="m4e3 2774h4.8"/>
<path d="m4056 2774h4.8"/>
<path d="m4066 2774h4.8"/>
<path d="m4075 2774h4.8"/>
<path d="m4085 2774h4.8"/>
<path d="m4094 2774h4.8"/>
<path d="m4104 2774h4.8"/>
<path d="m4114 2774h4.8"/>
<path d="m4123 2774h4.8"/>
<path d="m4133 2774h4.8"/>
<path d="m4142 2774h4.8"/>
<path d="m4152 2774h4.8"/>
<path d="m4162 2774h4.8"/>
<path d="m4171 2774h4.8"/>
<path d="m4181 2774h4.8"/>
<path d="m4190 2774h4.8"/>
<path d="m4200 2774h4.8"/>
<path d="m4210 2774h4.8"/>
<path d="m4219 2774h4.8"/>
<path d="m4229 2774h4.8"/>
<path d="m4238 2774h4.8"/>
<path d="m4248 2774h4.8"/>
<path d="m4258 2774h4.8"/>
<path d="m4267 2774h4.8"/>
<path d="m4277 2774h4.8"/>
<path d="m4286 2774h4.8"/>
<path d="m4296 2774h4.8"/>
<path d="m4306 2774h4.8"/>
<path d="m4315 2774h4.8"/>
<path d="m4325 2774h4.8"/>
<path d="m4334 2774h4.8"/>
<path d="m4344 2774h4.8"/>
<path d="m4354 2774h4.8"/>
<path d="m4363 2774h4.8"/>
<path d="m4373 2774h4.8"/>
<path d="m4382 2774h4.8"/>
<path d="m4392 2774h4.8"/>
<path d="m4402 2774h4.8"/>
<path d="m4411 2774h4.8"/>
<path d="m4421 2774h4.8"/>
<path d="m4430 2774h4.8"/>
<path d="m4440 2774h4.8"/>
<path d="m4450 2774h4.8"/>
<path d="m4459 2774h4.8"/>
<path d="m4469 2774h4.8"/>
<path d="m4478 2774h4.8"/>
<path d="m4488 2774h4.8"/>
<path d="m4498 2774h4.8"/>
<path d="m4507 2774h4.8"/>
<path d="m4517 2774h4.8"/>
<path d="m4526 2774h4.8"/>
<path d="m4536 2774h4.8"/>
<path d="m4546 2774h4.8"/>
<path d="m4555 2774h4.8"/>
<path d="m4565 2774h4.8"/>
<path d="m4574 2774h4.8"/>
<path d="m4584 2774h4.8"/>
<path d="m4594 2774h4.8"/>
<path d="m4603 2774h4.8"/>
<path d="m4613 2774h4.8"/>
<path d="m4622 2774h4.8"/>
<path d="m4632 2774h4.8"/>
<path d="m4642 2774h4.8"/>
<path d="m4651 2774h4.8"/>
<path d="m4661 2774h4.8"/>
<path d="m4670 2774h4.8"/>
<path d="m4680 2774h4.8"/>
<path d="m4690 2774h4.8"/>
<path d="m4699 2774h4.8"/>
<path d="m4709 2774h4.8"/>
<path d="m4718 2774h4.8"/>
<path d="m4728 2774h4.8"/>
<path d="m4738 2774h4.8"/>
<path d="m4747 2774h4.8"/>
<path d="m4757 2774h4.8"/>
<path d="m4766 2774h4.8"/>
<path d="m4776 2774h4.8"/>
<path d="m4786 2774h4.8"/>
<path d="m4795 2774h4.8"/>
<path d="m4805 2774h4.8"/>
<path d="m4814 2774h4.8"/>
<path d="m4824 2774h4.8"/>
<path d="m4834 2774h4.8"/>
<path d="m4843 2774h4.8"/>
<path d="m4853 2774h4.8"/>
<path d="m4862 2774h4.8"/>
<path d="m4872 2774h4.8"/>
<path d="m4882 2774h4.8"/>
<path d="m4891 2774h4.8"/>
<path d="m4901 2774h4.8"/>
<path d="m4910 2774h4.8"/>
<path d="m4920 2774h4.8"/>
<path d="m4930 2774h4.8"/>
<path d="m4939 2774h4.8"/>
<path d="m4949 2774h4.8"/>
<path d="m5e3 2774h4.8"/>
<path d="m5e3 2774h4.8"/>
<path d="m5e3 2774h4.8"/>
<path d="m5e3 2774h4.8"/>
<path d="m5e3 2774h4.8"/>
<path d="m5e3 2774h4.8"/>
<path d="m5e3 2774h4.8"/>
<path d="m5e3 2774h4.8"/>
<path d="m5e3 2774h4.8"/>
<path d="m5e3 2774h4.8"/>
<path d="m5054 2774h4.8"/>
<path d="m5064 2774h4.8"/>
<path d="m5074 2774h4.8"/>
<path d="m5083 2774h4.8"/>
<path d="m5093 2774h4.8"/>
<path d="m5102 2774h4.8"/>
<path d="m5112 2774h4.8"/>
<path d="m5122 2774h4.8"/>
<path d="m5131 2774h4.8"/>
<path d="m5141 2774h4.8"/>
<path d="m5150 2774h4.8"/>
<path d="m5160 2774h4.8"/>
<path d="m5170 2774h4.8"/>
<path d="m5179 2774h4.8"/>
<path d="m5189 2774h4.8"/>
<path d="m5198 2774h4.8"/>
<path d="m5208 2774h4.8"/>
<path d="m5218 2774h4.8"/>
<path d="m5227 2774h4.8"/>
<path d="m5237 2774h4.8"/>
<path d="m5246 2774h4.8"/>
<path d="m5256 2774h4.8"/>
<path d="m5266 2774h4.8"/>
<path d="m5275 2774h4.8"/>
<path d="m5285 2774h4.8"/>
<path d="m5294 2774h4.8"/>
<path d="m5304 2774h4.8"/>
<path d="m5314 2774h4.8"/>
<path d="m5323 2774h4.8"/>
<path d="m5333 2774h4.8"/>
<path d="m5342 2774h4.8"/>
<path d="m5352 2774h4.8"/>
<path d="m5362 2774h4.8"/>
<path d="m5371 2774h4.8"/>
<path d="m5381 2774h4.8"/>
<path d="m5390 2774h4.8"/>
<path d="m5400 2774h4.8"/>
<path d="m5410 2774h4.8"/>
<path d="m5419 2774h4.8"/>
<path d="m5429 2774h4.8"/>
<path d="m5438 2774h4.8"/>
<path d="m5448 2774h4.8"/>
<path d="m5458 2774h4.8"/>
<path d="m5467 2774h4.8"/>
<path d="m5477 2774h4.8"/>
<path d="m5486 2774h4.8"/>
<path d="m5496 2774h4.8"/>
<path d="m5506 2774h4.8"/>
<path d="m5515 2774h4.8"/>
<path d="m5525 2774h4.8"/>
<path d="m5534 2774h4.8"/>
<path d="m5544 2774h4.8"/>
<path d="m5554 2774h4.8"/>
<path d="m5563 2774h4.8"/>
<path d="m5573 2774h4.8"/>
<path d="m5582 2774h4.8"/>
<path d="m5592 2774h4.8"/>
<path d="m5602 2774h4.8"/>
<path d="m5611 2774h4.8"/>
<path d="m5621 2774h4.8"/>
<path d="m5630 2774h4.8"/>
<path d="m5640 2774h4.8"/>
<path d="m5650 2774h4.8"/>
<path d="m5659 2774h4.8"/>
<path d="m5669 2774h4.8"/>
<path d="m5678 2774h4.8"/>
<path d="m5688 2774h4.8"/>
<path d="m5698 2774h4.8"/>
<path d="m5707 2774h4.8"/>
<path d="m5717 2774h4.8"/>
<path d="m5726 2774h4.8"/>
<path d="m5736 2774h4.8"/>
<path d="m5746 2774h4.8"/>
<path d="m5755 2774h4.8"/>
<path d="m5765 2774h4.8"/>
<path d="m5774 2774h4.8"/>
<path d="m5784 2774h4.8"/>
<path d="m5794 2774h4.8"/>
<path d="m5803 2774h4.8"/>
<path d="m5813 2774h4.8"/>
<path d="m5822 2774h4.8"/>
<path d="m5832 2774h4.8"/>
<path d="m5842 2774h4.8"/>
<path d="m5851 2774h4.8"/>
<path d="m5861 2774h4.8"/>
<path d="m5870 2774h4.8"/>
<path d="m5880 2774h4.8"/>
<path d="m5890 2774h4.8"/>
<path d="m5899 2774h4.8"/>
<path d="m5909 2774h4.8"/>
<path d="m5918 2774h4.8"/>
<path d="m5928 2774h4.8"/>
<path d="m5938 2774h4.8"/>
<path d="m5947 2774h4.8"/>
<path d="m6e3 2774h4.8"/>
<path d="m6e3 2774h4.8"/>
<path d="m6e3 2774h4.8"/>
<path d="m6e3 2774h4.8"/>
<path d="m6e3 2774h4.8"/>
<path d="m6e3 2774h4.8"/>
<path d="m6e3 2774h4.8"/>
<path d="m6e3 2774h4.8"/>
<path d="m6e3 2774h4.8"/>
<path d="m6e3 2774h4.8"/>
<path d="m6053 2774h4.8"/>
<path d="m6062 2774h4.8"/>
<path d="m6072 2774h4.8"/>
<path d="m6082 2774h4.8"/>
<path d="m6091 2774h4.8"/>
<path d="m6101 2774h4.8"/>
<path d="m6110 2774h4.8"/>
<path d="m6120 2774h4.8"/>
<path d="m6130 2774h4.8"/>
<path d="m6139 2774h4.8"/>
<path d="m6149 2774h4.8"/>
<path d="m6158 2774h4.8"/>
<path d="m6168 2774h4.8"/>
<path d="m6178 2774h4.8"/>
<path d="m6187 2774h4.8"/>
<path d="m6197 2774h4.8"/>
<path d="m6206 2774h4.8"/>
<path d="m6216 2774h4.8"/>
<path d="m6226 2774h4.8"/>
<path d="m6235 2774h4.8"/>
<path d="m6245 2774h4.8"/>
<path d="m6254 2774h4.8"/>
<path d="m6264 2774h4.8"/>
<path d="m6274 2774h4.8"/>
<path d="m6283 2774h4.8"/>
<path d="m6293 2774h4.8"/>
<path d="m6302 2774h4.8"/>
<path d="m6312 2774h4.8"/>
<path d="m6322 2774h4.8"/>
<path d="m6331 2774h4.8"/>
<path d="m6341 2774h4.8"/>
<path d="m6350 2774h4.8"/>
<path d="m6360 2774h4.8"/>
<path d="m6370 2774h4.8"/>
<path d="m6379 2774h4.8"/>
<path d="m6389 2774h4.8"/>
<path d="m6398 2774h4.8"/>
<path d="m6408 2774h4.8"/>
<path d="m6418 2774h4.8"/>
<path d="m6427 2774h4.8"/>
<path d="m6437 2774h4.8"/>
<path d="m6446 2774h4.8"/>
<path d="m6456 2774h4.8"/>
<path d="m6466 2774h4.8"/>
<path d="m6475 2774h4.8"/>
<path d="m6485 2774h4.8"/>
<path d="m6494 2774h4.8"/>
<path d="m6504 2774h4.8"/>
<path d="m6514 2774h4.8"/>
<path d="m6523 2774h4.8"/>
<path d="m6533 2774h4.8"/>
<path d="m6542 2774h4.8"/>
<path d="m6552 2774h4.8"/>
<path d="m6562 2774h4.8"/>
<path d="m6571 2774h4.8"/>
<path d="m6581 2774h4.8"/>
<path d="m6590 2774h4.8"/>
<path d="m6600 2774h4.8"/>
<path d="m6610 2774h4.8"/>
<path d="m6619 2774h4.8"/>
<path d="m6629 2774h4.8"/>
<path d="m6638 2774h4.8"/>
<path d="m6648 2774h4.8"/>
<path d="m6658 2774h4.8"/>
<path d="m6667 2774h4.8"/>
<path d="m6677 2774h4.8"/>
<path d="m6686 2774h4.8"/>
<path d="m6696 2774h4.8"/>
<path d="m6706 2774h4.8"/>
<path d="m6715 2774h4.8"/>
<path d="m6725 2774h4.8"/>
<path d="m6734 2774h4.8"/>
<path d="m6744 2774h4.8"/>
<path d="m6754 2774h4.8"/>
<path d="m6763 2774h4.8"/>
</g>
<path d="m2854 2747-83 28 83 28v-55" fill="#231f20"/>
<path d="m6763 2802 83-28-83-28v55" fill="#231f20"/>
<g fill="none" stroke="#231f20" stroke-linecap="round" stroke-linejoin="round" stroke-miterlimit="10" stroke-width="2.5">
<path d="m2846 2288h4.8"/>
<path d="m2856 2288h4.8"/>
<path d="m2866 2288h4.8"/>
<path d="m2875 2288h4.8"/>
<path d="m2885 2288h4.8"/>
<path d="m2894 2288h4.8"/>
<path d="m2904 2288h4.8"/>
<path d="m2914 2288h4.8"/>
<path d="m2923 2288h4.8"/>
<path d="m2933 2288h4.8"/>
<path d="m2942 2288h4.8"/>
<path d="m3e3 2288h4.8"/>
<path d="m3e3 2288h4.8"/>
<path d="m3e3 2288h4.8"/>
<path d="m3e3 2288h4.8"/>
<path d="m3e3 2288h4.8"/>
<path d="m3e3 2288h4.8"/>
<path d="m3e3 2288h4.8"/>
<path d="m3e3 2288h4.8"/>
<path d="m3e3 2288h4.8"/>
<path d="m3e3 2288h4.8"/>
<path d="m3e3 2288h4.8"/>
<path d="m3058 2288h4.8"/>
<path d="m3067 2288h4.8"/>
<path d="m3077 2288h4.8"/>
<path d="m3086 2288h4.8"/>
<path d="m3096 2288h4.8"/>
<path d="m3106 2288h4.8"/>
<path d="m3115 2288h4.8"/>
<path d="m3125 2288h4.8"/>
<path d="m3134 2288h4.8"/>
<path d="m3144 2288h4.8"/>
<path d="m3154 2288h4.8"/>
<path d="m3163 2288h4.8"/>
<path d="m3173 2288h4.8"/>
<path d="m3182 2288h4.8"/>
<path d="m3192 2288h4.8"/>
<path d="m3202 2288h4.8"/>
<path d="m3211 2288h4.8"/>
<path d="m3221 2288h4.8"/>
<path d="m3230 2288h4.8"/>
<path d="m3240 2288h4.8"/>
<path d="m3250 2288h4.8"/>
<path d="m3259 2288h4.8"/>
<path d="m3269 2288h4.8"/>
<path d="m3278 2288h4.8"/>
<path d="m3288 2288h4.8"/>
<path d="m3298 2288h4.8"/>
<path d="m3307 2288h4.8"/>
<path d="m3317 2288h4.8"/>
<path d="m3326 2288h4.8"/>
<path d="m3336 2288h4.8"/>
<path d="m3346 2288h4.8"/>
<path d="m3355 2288h4.8"/>
<path d="m3365 2288h4.8"/>
<path d="m3374 2288h4.8"/>
<path d="m3384 2288h4.8"/>
<path d="m3394 2288h4.8"/>
<path d="m3403 2288h4.8"/>
<path d="m3413 2288h4.8"/>
<path d="m3422 2288h4.8"/>
<path d="m3432 2288h4.8"/>
<path d="m3442 2288h4.8"/>
<path d="m3451 2288h4.8"/>
<path d="m3461 2288h4.8"/>
<path d="m3470 2288h4.8"/>
<path d="m3480 2288h4.8"/>
<path d="m3490 2288h4.8"/>
<path d="m3499 2288h4.8"/>
<path d="m3509 2288h4.8"/>
<path d="m3518 2288h4.8"/>
<path d="m3528 2288h4.8"/>
<path d="m3538 2288h4.8"/>
<path d="m3547 2288h4.8"/>
<path d="m3557 2288h4.8"/>
<path d="m3566 2288h4.8"/>
<path d="m3576 2288h4.8"/>
<path d="m3586 2288h4.8"/>
<path d="m3595 2288h4.8"/>
<path d="m3605 2288h4.8"/>
<path d="m3614 2288h4.8"/>
<path d="m3624 2288h4.8"/>
<path d="m3634 2288h4.8"/>
<path d="m3643 2288h4.8"/>
<path d="m3653 2288h4.8"/>
<path d="m3662 2288h4.8"/>
<path d="m3672 2288h4.8"/>
<path d="m3682 2288h4.8"/>
<path d="m3691 2288h4.8"/>
<path d="m3701 2288h4.8"/>
<path d="m3710 2288h4.8"/>
<path d="m3720 2288h4.8"/>
<path d="m3730 2288h4.8"/>
<path d="m3739 2288h4.8"/>
<path d="m3749 2288h4.8"/>
<path d="m3758 2288h4.8"/>
<path d="m3768 2288h4.8"/>
<path d="m3778 2288h4.8"/>
<path d="m3787 2288h4.8"/>
<path d="m3797 2288h4.8"/>
<path d="m3806 2288h4.8"/>
<path d="m3816 2288h4.8"/>
<path d="m3826 2288h4.8"/>
<path d="m3835 2288h4.8"/>
<path d="m3845 2288h4.8"/>
<path d="m3854 2288h4.8"/>
<path d="m3864 2288h4.8"/>
<path d="m3874 2288h4.8"/>
<path d="m3883 2288h4.8"/>
<path d="m3893 2288h4.8"/>
<path d="m3902 2288h4.8"/>
<path d="m3912 2288h4.8"/>
<path d="m3922 2288h4.8"/>
<path d="m3931 2288h4.8"/>
<path d="m3941 2288h4.8"/>
<path d="m4e3 2288h4.8"/>
<path d="m4e3 2288h4.8"/>
<path d="m4e3 2288h4.8"/>
<path d="m4e3 2288h4.8"/>
<path d="m4e3 2288h4.8"/>
<path d="m4e3 2288h4.8"/>
<path d="m4e3 2288h4.8"/>
<path d="m4e3 2288h4.8"/>
<path d="m4e3 2288h4.8"/>
<path d="m4e3 2288h4.8"/>
<path d="m4e3 2288h4.8"/>
<path d="m4056 2288h4.8"/>
<path d="m4066 2288h4.8"/>
<path d="m4075 2288h4.8"/>
<path d="m4085 2288h4.8"/>
<path d="m4094 2288h4.8"/>
<path d="m4104 2288h4.8"/>
<path d="m4114 2288h4.8"/>
<path d="m4123 2288h4.8"/>
<path d="m4133 2288h4.8"/>
<path d="m4142 2288h4.8"/>
<path d="m4152 2288h4.8"/>
<path d="m4162 2288h4.8"/>
<path d="m4171 2288h4.8"/>
<path d="m4181 2288h4.8"/>
<path d="m4190 2288h4.8"/>
<path d="m4200 2288h4.8"/>
<path d="m4210 2288h4.8"/>
<path d="m4219 2288h4.8"/>
<path d="m4229 2288h4.8"/>
<path d="m4238 2288h4.8"/>
<path d="m4248 2288h4.8"/>
<path d="m4258 2288h4.8"/>
<path d="m4267 2288h4.8"/>
<path d="m4277 2288h4.8"/>
<path d="m4286 2288h4.8"/>
<path d="m4296 2288h4.8"/>
<path d="m4306 2288h4.8"/>
<path d="m4315 2288h4.8"/>
<path d="m4325 2288h4.8"/>
<path d="m4334 2288h4.8"/>
<path d="m4344 2288h4.8"/>
<path d="m4354 2288h4.8"/>
<path d="m4363 2288h4.8"/>
<path d="m4373 2288h4.8"/>
<path d="m4382 2288h4.8"/>
<path d="m4392 2288h4.8"/>
<path d="m4402 2288h4.8"/>
<path d="m4411 2288h4.8"/>
<path d="m4421 2288h4.8"/>
<path d="m4430 2288h4.8"/>
<path d="m4440 2288h4.8"/>
<path d="m4450 2288h4.8"/>
<path d="m4459 2288h4.8"/>
<path d="m4469 2288h4.8"/>
<path d="m4478 2288h4.8"/>
<path d="m4488 2288h4.8"/>
<path d="m4498 2288h4.8"/>
<path d="m4507 2288h4.8"/>
<path d="m4517 2288h4.8"/>
<path d="m4526 2288h4.8"/>
<path d="m4536 2288h4.8"/>
<path d="m4546 2288h4.8"/>
<path d="m4555 2288h4.8"/>
<path d="m4565 2288h4.8"/>
<path d="m4574 2288h4.8"/>
<path d="m4584 2288h4.8"/>
<path d="m4594 2288h4.8"/>
<path d="m4603 2288h4.8"/>
<path d="m4613 2288h4.8"/>
<path d="m4622 2288h4.8"/>
<path d="m4632 2288h4.8"/>
<path d="m4642 2288h4.8"/>
<path d="m4651 2288h4.8"/>
<path d="m4661 2288h4.8"/>
<path d="m4670 2288h4.8"/>
<path d="m4680 2288h4.8"/>
<path d="m4690 2288h4.8"/>
<path d="m4699 2288h4.8"/>
<path d="m4709 2288h4.8"/>
<path d="m4718 2288h4.8"/>
<path d="m4728 2288h4.8"/>
<path d="m4738 2288h4.8"/>
<path d="m4747 2288h4.8"/>
<path d="m4757 2288h4.8"/>
<path d="m4766 2288h4.8"/>
<path d="m4776 2288h4.8"/>
<path d="m4786 2288h4.8"/>
<path d="m4795 2288h4.8"/>
<path d="m4805 2288h4.8"/>
<path d="m4814 2288h4.8"/>
<path d="m4824 2288h4.8"/>
<path d="m4834 2288h4.8"/>
<path d="m4843 2288h4.8"/>
<path d="m4853 2288h4.8"/>
<path d="m4862 2288h4.8"/>
<path d="m4872 2288h4.8"/>
<path d="m4882 2288h4.8"/>
<path d="m4891 2288h4.8"/>
<path d="m4901 2288h4.8"/>
<path d="m4910 2288h4.8"/>
<path d="m4920 2288h4.8"/>
<path d="m4930 2288h4.8"/>
<path d="m4939 2288h4.8"/>
<path d="m4949 2288h4.8"/>
<path d="m5e3 2288h4.8"/>
<path d="m5e3 2288h4.8"/>
<path d="m5e3 2288h4.8"/>
<path d="m5e3 2288h4.8"/>
<path d="m5e3 2288h4.8"/>
<path d="m5e3 2288h4.8"/>
<path d="m5e3 2288h4.8"/>
<path d="m5e3 2288h4.8"/>
<path d="m5e3 2288h4.8"/>
<path d="m5e3 2288h4.8"/>
<path d="m5054 2288h4.8"/>
<path d="m5064 2288h4.8"/>
<path d="m5074 2288h4.8"/>
<path d="m5083 2288h4.8"/>
<path d="m5093 2288h4.8"/>
<path d="m5102 2288h4.8"/>
<path d="m5112 2288h4.8"/>
<path d="m5122 2288h4.8"/>
<path d="m5131 2288h4.8"/>
<path d="m5141 2288h4.8"/>
<path d="m5150 2288h4.8"/>
<path d="m5160 2288h4.8"/>
<path d="m5170 2288h4.8"/>
<path d="m5179 2288h4.8"/>
<path d="m5189 2288h4.8"/>
<path d="m5198 2288h4.8"/>
<path d="m5208 2288h4.8"/>
<path d="m5218 2288h4.8"/>
<path d="m5227 2288h4.8"/>
<path d="m5237 2288h4.8"/>
<path d="m5246 2288h4.8"/>
<path d="m5256 2288h4.8"/>
<path d="m5266 2288h4.8"/>
<path d="m5275 2288h4.8"/>
<path d="m5285 2288h4.8"/>
<path d="m5294 2288h4.8"/>
<path d="m5304 2288h4.8"/>
<path d="m5314 2288h4.8"/>
<path d="m5323 2288h4.8"/>
<path d="m5333 2288h4.8"/>
<path d="m5342 2288h4.8"/>
<path d="m5352 2288h4.8"/>
<path d="m5362 2288h4.8"/>
<path d="m5371 2288h4.8"/>
<path d="m5381 2288h4.8"/>
<path d="m5390 2288h4.8"/>
<path d="m5400 2288h4.8"/>
<path d="m5410 2288h4.8"/>
<path d="m5419 2288h4.8"/>
<path d="m5429 2288h4.8"/>
<path d="m5438 2288h4.8"/>
<path d="m5448 2288h4.8"/>
<path d="m5458 2288h4.8"/>
<path d="m5467 2288h4.8"/>
<path d="m5477 2288h4.8"/>
<path d="m5486 2288h4.8"/>
<path d="m5496 2288h4.8"/>
<path d="m5506 2288h4.8"/>
<path d="m5515 2288h4.8"/>
<path d="m5525 2288h4.8"/>
<path d="m5534 2288h4.8"/>
<path d="m5544 2288h4.8"/>
<path d="m5554 2288h4.8"/>
<path d="m5563 2288h4.8"/>
<path d="m5573 2288h4.8"/>
<path d="m5582 2288h4.8"/>
<path d="m5592 2288h4.8"/>
<path d="m5602 2288h4.8"/>
<path d="m5611 2288h4.8"/>
<path d="m5621 2288h4.8"/>
<path d="m5630 2288h4.8"/>
<path d="m5640 2288h4.8"/>
<path d="m5650 2288h4.8"/>
<path d="m5659 2288h4.8"/>
<path d="m5669 2288h4.8"/>
<path d="m5678 2288h4.8"/>
<path d="m5688 2288h4.8"/>
<path d="m5698 2288h4.8"/>
<path d="m5707 2288h4.8"/>
<path d="m5717 2288h4.8"/>
<path d="m5726 2288h4.8"/>
<path d="m5736 2288h4.8"/>
<path d="m5746 2288h4.8"/>
<path d="m5755 2288h4.8"/>
<path d="m5765 2288h4.8"/>
<path d="m5774 2288h4.8"/>
<path d="m5784 2288h4.8"/>
<path d="m5794 2288h4.8"/>
<path d="m5803 2288h4.8"/>
<path d="m5813 2288h4.8"/>
<path d="m5822 2288h4.8"/>
<path d="m5832 2288h4.8"/>
<path d="m5842 2288h4.8"/>
<path d="m5851 2288h4.8"/>
<path d="m5861 2288h4.8"/>
<path d="m5870 2288h4.8"/>
<path d="m5880 2288h4.8"/>
<path d="m5890 2288h4.8"/>
<path d="m5899 2288h4.8"/>
<path d="m5909 2288h4.8"/>
<path d="m5918 2288h4.8"/>
<path d="m5928 2288h4.8"/>
<path d="m5938 2288h4.8"/>
<path d="m5947 2288h4.8"/>
<path d="m6e3 2288h4.8"/>
<path d="m6e3 2288h4.8"/>
<path d="m6e3 2288h4.8"/>
<path d="m6e3 2288h4.8"/>
<path d="m6e3 2288h4.8"/>
<path d="m6e3 2288h4.8"/>
<path d="m6e3 2288h4.8"/>
<path d="m6e3 2288h4.8"/>
<path d="m6e3 2288h4.8"/>
<path d="m6e3 2288h4.8"/>
<path d="m6053 2288h4.8"/>
<path d="m6062 2288h4.8"/>
<path d="m6072 2288h4.8"/>
<path d="m6082 2288h4.8"/>
<path d="m6091 2288h4.8"/>
<path d="m6101 2288h4.8"/>
<path d="m6110 2288h4.8"/>
<path d="m6120 2288h4.8"/>
<path d="m6130 2288h4.8"/>
<path d="m6139 2288h4.8"/>
<path d="m6149 2288h4.8"/>
<path d="m6158 2288h4.8"/>
<path d="m6168 2288h4.8"/>
<path d="m6178 2288h4.8"/>
<path d="m6187 2288h4.8"/>
<path d="m6197 2288h4.8"/>
<path d="m6206 2288h4.8"/>
<path d="m6216 2288h4.8"/>
<path d="m6226 2288h4.8"/>
<path d="m6235 2288h4.8"/>
<path d="m6245 2288h4.8"/>
<path d="m6254 2288h4.8"/>
<path d="m6264 2288h4.8"/>
<path d="m6274 2288h4.8"/>
<path d="m6283 2288h4.8"/>
<path d="m6293 2288h4.8"/>
<path d="m6302 2288h4.8"/>
<path d="m6312 2288h4.8"/>
<path d="m6322 2288h4.8"/>
<path d="m6331 2288h4.8"/>
<path d="m6341 2288h4.8"/>
<path d="m6350 2288h4.8"/>
<path d="m6360 2288h4.8"/>
<path d="m6370 2288h4.8"/>
<path d="m6379 2288h4.8"/>
<path d="m6389 2288h4.8"/>
<path d="m6398 2288h4.8"/>
<path d="m6408 2288h4.8"/>
<path d="m6418 2288h4.8"/>
<path d="m6427 2288h4.8"/>
<path d="m6437 2288h4.8"/>
<path d="m6446 2288h4.8"/>
<path d="m6456 2288h4.8"/>
<path d="m6466 2288h4.8"/>
<path d="m6475 2288h4.8"/>
<path d="m6485 2288h4.8"/>
<path d="m6494 2288h4.8"/>
<path d="m6504 2288h4.8"/>
<path d="m6514 2288h4.8"/>
<path d="m6523 2288h4.8"/>
<path d="m6533 2288h4.8"/>
<path d="m6542 2288h4.8"/>
<path d="m6552 2288h4.8"/>
<path d="m6562 2288h4.8"/>
<path d="m6571 2288h4.8"/>
<path d="m6581 2288h4.8"/>
<path d="m6590 2288h4.8"/>
<path d="m6600 2288h4.8"/>
<path d="m6610 2288h4.8"/>
<path d="m6619 2288h4.8"/>
<path d="m6629 2288h4.8"/>
<path d="m6638 2288h4.8"/>
<path d="m6648 2288h4.8"/>
<path d="m6658 2288h4.8"/>
<path d="m6667 2288h4.8"/>
<path d="m6677 2288h4.8"/>
<path d="m6686 2288h4.8"/>
<path d="m6696 2288h4.8"/>
<path d="m6706 2288h4.8"/>
<path d="m6715 2288h4.8"/>
<path d="m6725 2288h4.8"/>
<path d="m6734 2288h4.8"/>
<path d="m6744 2288h4.8"/>
<path d="m6754 2288h4.8"/>
<path d="m6763 2288h4.8"/>
</g>
<path d="m2854 2261-83 28 83 28v-55" fill="#231f20"/>
<path d="m6763 2316 83-28-83-28v55" fill="#231f20"/>
<g fill="none" stroke="#231f20" stroke-linecap="round" stroke-linejoin="round" stroke-miterlimit="10" stroke-width="2.5">
<path d="m2846 1801h4.8"/>
<path d="m2856 1801h4.8"/>
<path d="m2866 1801h4.8"/>
<path d="m2875 1801h4.8"/>
<path d="m2885 1801h4.8"/>
<path d="m2894 1801h4.8"/>
<path d="m2904 1801h4.8"/>
<path d="m2914 1801h4.8"/>
<path d="m2923 1801h4.8"/>
<path d="m2933 1801h4.8"/>
<path d="m2942 1801h4.8"/>
<path d="m3e3 1801h4.8"/>
<path d="m3e3 1801h4.8"/>
<path d="m3e3 1801h4.8"/>
<path d="m3e3 1801h4.8"/>
<path d="m3e3 1801h4.8"/>
<path d="m3e3 1801h4.8"/>
<path d="m3e3 1801h4.8"/>
<path d="m3e3 1801h4.8"/>
<path d="m3e3 1801h4.8"/>
<path d="m3e3 1801h4.8"/>
<path d="m3e3 1801h4.8"/>
<path d="m3058 1801h4.8"/>
<path d="m3067 1801h4.8"/>
<path d="m3077 1801h4.8"/>
<path d="m3086 1801h4.8"/>
<path d="m3096 1801h4.8"/>
<path d="m3106 1801h4.8"/>
<path d="m3115 1801h4.8"/>
<path d="m3125 1801h4.8"/>
<path d="m3134 1801h4.8"/>
<path d="m3144 1801h4.8"/>
<path d="m3154 1801h4.8"/>
<path d="m3163 1801h4.8"/>
<path d="m3173 1801h4.8"/>
<path d="m3182 1801h4.8"/>
<path d="m3192 1801h4.8"/>
</g>
<path d="m2854 1774-83 28 83 28v-55" fill="#231f20"/>
<path d="m3192 1829 83-28-83-28v55" fill="#231f20"/>
<g fill="none" stroke="#231f20" stroke-linecap="round" stroke-linejoin="round" stroke-miterlimit="10" stroke-width="2.5">
<path d="m2846 1315h4.8"/>
<path d="m2856 1315h4.8"/>
<path d="m2866 1315h4.8"/>
<path d="m2875 1315h4.8"/>
<path d="m2885 1315h4.8"/>
<path d="m2894 1315h4.8"/>
<path d="m2904 1315h4.8"/>
<path d="m2914 1315h4.8"/>
<path d="m2923 1315h4.8"/>
<path d="m2933 1315h4.8"/>
<path d="m2942 1315h4.8"/>
<path d="m3e3 1315h4.8"/>
<path d="m3e3 1315h4.8"/>
<path d="m3e3 1315h4.8"/>
<path d="m3e3 1315h4.8"/>
<path d="m3e3 1315h4.8"/>
<path d="m3e3 1315h4.8"/>
<path d="m3e3 1315h4.8"/>
<path d="m3e3 1315h4.8"/>
<path d="m3e3 1315h4.8"/>
<path d="m3e3 1315h4.8"/>
<path d="m3e3 1315h4.8"/>
<path d="m3058 1315h4.8"/>
<path d="m3067 1315h4.8"/>
<path d="m3077 1315h4.8"/>
<path d="m3086 1315h4.8"/>
<path d="m3096 1315h4.8"/>
<path d="m3106 1315h4.8"/>
<path d="m3115 1315h4.8"/>
<path d="m3125 1315h4.8"/>
<path d="m3134 1315h4.8"/>
<path d="m3144 1315h4.8"/>
<path d="m3154 1315h4.8"/>
<path d="m3163 1315h4.8"/>
<path d="m3173 1315h4.8"/>
<path d="m3182 1315h4.8"/>
<path d="m3192 1315h4.8"/>
</g>
<path d="m2854 1288-83 28 83 28v-55" fill="#231f20"/>
<path d="m3192 1343 83-28-83-28v55" fill="#231f20"/>
<g fill="none" stroke="#231f20" stroke-linecap="round" stroke-linejoin="round" stroke-miterlimit="10" stroke-width="2.5">
<path d="m2846 828h4.8"/>
<path d="m2856 828h4.8"/>
<path d="m2866 828h4.8"/>
<path d="m2875 828h4.8"/>
<path d="m2885 828h4.8"/>
<path d="m2894 828h4.8"/>
<path d="m2904 828h4.8"/>
<path d="m2914 828h4.8"/>
<path d="m2923 828h4.8"/>
<path d="m2933 828h4.8"/>
<path d="m2942 828h4.8"/>
<path d="m3e3 828h4.8"/>
<path d="m3e3 828h4.8"/>
<path d="m3e3 828h4.8"/>
<path d="m3e3 828h4.8"/>
<path d="m3e3 828h4.8"/>
<path d="m3e3 828h4.8"/>
<path d="m3e3 828h4.8"/>
<path d="m3e3 828h4.8"/>
<path d="m3e3 828h4.8"/>
<path d="m3e3 828h4.8"/>
<path d="m3e3 828h4.8"/>
<path d="m3058 828h4.8"/>
<path d="m3067 828h4.8"/>
<path d="m3077 828h4.8"/>
<path d="m3086 828h4.8"/>
<path d="m3096 828h4.8"/>
<path d="m3106 828h4.8"/>
<path d="m3115 828h4.8"/>
<path d="m3125 828h4.8"/>
<path d="m3134 828h4.8"/>
<path d="m3144 828h4.8"/>
<path d="m3154 828h4.8"/>
<path d="m3163 828h4.8"/>
<path d="m3173 828h4.8"/>
<path d="m3182 828h4.8"/>
<path d="m3192 828h4.8"/>
</g>
<path d="m2854 800-83 28 83 28v-55" fill="#231f20"/>
<path d="m3192 856 83-28-83-28v55" fill="#231f20"/>
<g fill="none" stroke="#231f20" stroke-linecap="round" stroke-linejoin="round" stroke-miterlimit="10" stroke-width="2.5">
<path d="m6383 1801h4.8"/>
<path d="m6392 1801h4.8"/>
<path d="m6402 1801h4.8"/>
<path d="m6412 1801h4.8"/>
<path d="m6421 1801h4.8"/>
<path d="m6431 1801h4.8"/>
<path d="m6440 1801h4.8"/>
<path d="m6450 1801h4.8"/>
<path d="m6460 1801h4.8"/>
<path d="m6469 1801h4.8"/>
<path d="m6479 1801h4.8"/>
<path d="m6488 1801h4.8"/>
<path d="m6498 1801h4.8"/>
<path d="m6508 1801h4.8"/>
<path d="m6517 1801h4.8"/>
<path d="m6527 1801h4.8"/>
<path d="m6536 1801h4.8"/>
<path d="m6546 1801h4.8"/>
<path d="m6556 1801h4.8"/>
<path d="m6565 1801h4.8"/>
<path d="m6575 1801h4.8"/>
<path d="m6584 1801h4.8"/>
<path d="m6594 1801h4.8"/>
<path d="m6604 1801h4.8"/>
<path d="m6613 1801h4.8"/>
<path d="m6623 1801h4.8"/>
<path d="m6632 1801h4.8"/>
<path d="m6642 1801h4.8"/>
<path d="m6652 1801h4.8"/>
<path d="m6661 1801h4.8"/>
<path d="m6671 1801h4.8"/>
<path d="m6680 1801h4.8"/>
<path d="m6690 1801h4.8"/>
<path d="m6700 1801h4.8"/>
<path d="m6709 1801h4.8"/>
<path d="m6719 1801h4.8"/>
<path d="m6728 1801h4.8"/>
<path d="m6738 1801h4.8"/>
<path d="m6748 1801h4.8"/>
<path d="m6757 1801h4.8"/>
<path d="m6767 1801h3.6"/>
</g>
<path d="m6390 1774-83 28 83 28v-55" fill="#231f20"/>
<path d="m6763 1829 83-28-83-28v55" fill="#231f20"/>
<g fill="none" stroke="#231f20" stroke-linecap="round" stroke-linejoin="round" stroke-miterlimit="10" stroke-width="2.5">
<path d="m6383 1315h4.8"/>
<path d="m6392 1315h4.8"/>
<path d="m6402 1315h4.8"/>
<path d="m6412 1315h4.8"/>
<path d="m6421 1315h4.8"/>
<path d="m6431 1315h4.8"/>
<path d="m6440 1315h4.8"/>
<path d="m6450 1315h4.8"/>
<path d="m6460 1315h4.8"/>
<path d="m6469 1315h4.8"/>
<path d="m6479 1315h4.8"/>
<path d="m6488 1315h4.8"/>
<path d="m6498 1315h4.8"/>
<path d="m6508 1315h4.8"/>
<path d="m6517 1315h4.8"/>
<path d="m6527 1315h4.8"/>
<path d="m6536 1315h4.8"/>
<path d="m6546 1315h4.8"/>
<path d="m6556 1315h4.8"/>
<path d="m6565 1315h4.8"/>
<path d="m6575 1315h4.8"/>
<path d="m6584 1315h4.8"/>
<path d="m6594 1315h4.8"/>
<path d="m6604 1315h4.8"/>
<path d="m6613 1315h4.8"/>
<path d="m6623 1315h4.8"/>
<path d="m6632 1315h4.8"/>
<path d="m6642 1315h4.8"/>
<path d="m6652 1315h4.8"/>
<path d="m6661 1315h4.8"/>
<path d="m6671 1315h4.8"/>
<path d="m6680 1315h4.8"/>
<path d="m6690 1315h4.8"/>
<path d="m6700 1315h4.8"/>
<path d="m6709 1315h4.8"/>
<path d="m6719 1315h4.8"/>
<path d="m6728 1315h4.8"/>
<path d="m6738 1315h4.8"/>
<path d="m6748 1315h4.8"/>
<path d="m6757 1315h4.8"/>
<path d="m6767 1315h3.6"/>
</g>
<path d="m6390 1288-83 28 83 28v-55" fill="#231f20"/>
<path d="m6763 1343 83-28-83-28v55" fill="#231f20"/>
<g fill="none" stroke="#231f20" stroke-linecap="round" stroke-linejoin="round" stroke-miterlimit="10" stroke-width="2.5">
<path d="m6383 828h4.8"/>
<path d="m6392 828h4.8"/>
<path d="m6402 828h4.8"/>
<path d="m6412 828h4.8"/>
<path d="m6421 828h4.8"/>
<path d="m6431 828h4.8"/>
<path d="m6440 828h4.8"/>
<path d="m6450 828h4.8"/>
<path d="m6460 828h4.8"/>
<path d="m6469 828h4.8"/>
<path d="m6479 828h4.8"/>
<path d="m6488 828h4.8"/>
<path d="m6498 828h4.8"/>
<path d="m6508 828h4.8"/>
<path d="m6517 828h4.8"/>
<path d="m6527 828h4.8"/>
<path d="m6536 828h4.8"/>
<path d="m6546 828h4.8"/>
<path d="m6556 828h4.8"/>
<path d="m6565 828h4.8"/>
<path d="m6575 828h4.8"/>
<path d="m6584 828h4.8"/>
<path d="m6594 828h4.8"/>
<path d="m6604 828h4.8"/>
<path d="m6613 828h4.8"/>
<path d="m6623 828h4.8"/>
<path d="m6632 828h4.8"/>
<path d="m6642 828h4.8"/>
<path d="m6652 828h4.8"/>
<path d="m6661 828h4.8"/>
<path d="m6671 828h4.8"/>
<path d="m6680 828h4.8"/>
<path d="m6690 828h4.8"/>
<path d="m6700 828h4.8"/>
<path d="m6709 828h4.8"/>
<path d="m6719 828h4.8"/>
<path d="m6728 828h4.8"/>
<path d="m6738 828h4.8"/>
<path d="m6748 828h4.8"/>
<path d="m6757 828h4.8"/>
<path d="m6767 828h3.6"/>
</g>
<path d="m6390 800-83 28 83 28v-55" fill="#231f20"/>
<path d="m6763 856 83-28-83-28v55" fill="#231f20"/>
<path d="m5471 1423 2.4 12 7.2 11 11 11 16 9.6 19 9.6 22 7.2 25 4.8 54 6h29l54-6 24-4.8 23-7.2 19-9.6 16-9.6 11-11 7.2-11 2.4-12-2.4-12-7.2-11-11-11-16-9.6-19-8.4-23-7.2-24-6-54-6h-29l-54 6-25 6-22 7.2-19 8.4-16 9.6-11 11-7.2 11-2.4 12" fill="#fff"/>
<path d="m5471 1423 2.4 12 7.2 11 11 11 16 9.6 19 9.6 22 7.2 25 4.8 54 6h29l54-6 24-4.8 23-7.2 19-9.6 16-9.6 11-11 7.2-11 2.4-12-2.4-12-7.2-11-11-11-16-9.6-19-8.4-23-7.2-24-6-54-6h-29l-54 6-25 6-22 7.2-19 8.4-16 9.6-11 11-7.2 11-2.4 12" fill="none" stroke="#231f20" stroke-linecap="round" stroke-linejoin="round" stroke-miterlimit="10" stroke-width="7.5"/>
<path d="m5471 942 2.4 11 7.2 12 11 11 16 9.6 19 8.4 22 7.2 25 6 26 3.6 28 1.2h29l28-1.2 26-3.6 24-6 23-7.2 19-8.4 16-9.6 11-11 7.2-12 2.4-11-2.4-12-7.2-12-11-9.6-16-11-19-8.4-23-7.2-50-9.6-28-1.2h-29l-28 1.2-52 9.6-22 7.2-19 8.4-16 11-11 9.6-7.2 12-2.4 12" fill="#fff"/>
<path d="m5471 942 2.4 11 7.2 12 11 11 16 9.6 19 8.4 22 7.2 25 6 26 3.6 28 1.2h29l28-1.2 26-3.6 24-6 23-7.2 19-8.4 16-9.6 11-11 7.2-12 2.4-11-2.4-12-7.2-12-11-9.6-16-11-19-8.4-23-7.2-50-9.6-28-1.2h-29l-28 1.2-52 9.6-22 7.2-19 8.4-16 11-11 9.6-7.2 12-2.4 12" fill="none" stroke="#231f20" stroke-linecap="round" stroke-linejoin="round" stroke-miterlimit="10" stroke-width="7.5"/>
<path d="m5641 1626v-55" fill="none" stroke="#231f20" stroke-linecap="round" stroke-linejoin="round" stroke-miterlimit="10" stroke-width="2.5"/>
<path d="m5614 1619 28 83 28-83h-55" fill="#231f20"/>
<path d="m5669 1577-28-83-28 83h55" fill="#231f20"/>
<path d="m5641 1140v-52" fill="none" stroke="#231f20" stroke-linecap="round" stroke-linejoin="round" stroke-miterlimit="10" stroke-width="2.5"/>
<path d="m5614 1133 28 83 28-83h-55" fill="#231f20"/>
<path d="m5669 1096-28-83-28 83h55" fill="#231f20"/>
<g fill="none" stroke="#231f20" stroke-linecap="round" stroke-linejoin="round" stroke-miterlimit="10" stroke-width="2.5">
<path d="m4682 1801h4.8"/>
<path d="m4692 1801h4.8"/>
<path d="m4702 1801h4.8"/>
<path d="m4711 1801h4.8"/>
<path d="m4721 1801h4.8"/>
<path d="m4730 1801h4.8"/>
<path d="m4740 1801h4.8"/>
<path d="m4750 1801h4.8"/>
<path d="m4759 1801h4.8"/>
<path d="m4769 1801h4.8"/>
<path d="m4778 1801h4.8"/>
<path d="m4788 1801h4.8"/>
<path d="m4798 1801h4.8"/>
<path d="m4807 1801h4.8"/>
<path d="m4817 1801h4.8"/>
<path d="m4826 1801h4.8"/>
<path d="m4836 1801h4.8"/>
<path d="m4846 1801h4.8"/>
<path d="m4855 1801h4.8"/>
<path d="m4865 1801h4.8"/>
<path d="m4874 1801h4.8"/>
<path d="m4884 1801h4.8"/>
<path d="m4894 1801h4.8"/>
</g>
<path d="m4690 1774-83 28 83 28v-55" fill="#231f20"/>
<path d="m4892 1829 83-28-83-28v55" fill="#231f20"/>
<g fill="none" stroke="#231f20" stroke-linecap="round" stroke-linejoin="round" stroke-miterlimit="10" stroke-width="2.5">
<path d="m4682 1315h4.8"/>
<path d="m4692 1315h4.8"/>
<path d="m4702 1315h4.8"/>
<path d="m4711 1315h4.8"/>
<path d="m4721 1315h4.8"/>
<path d="m4730 1315h4.8"/>
<path d="m4740 1315h4.8"/>
<path d="m4750 1315h4.8"/>
<path d="m4759 1315h4.8"/>
<path d="m4769 1315h4.8"/>
<path d="m4778 1315h4.8"/>
<path d="m4788 1315h4.8"/>
<path d="m4798 1315h4.8"/>
<path d="m4807 1315h4.8"/>
<path d="m4817 1315h4.8"/>
<path d="m4826 1315h4.8"/>
<path d="m4836 1315h4.8"/>
<path d="m4846 1315h4.8"/>
<path d="m4855 1315h4.8"/>
<path d="m4865 1315h4.8"/>
<path d="m4874 1315h4.8"/>
<path d="m4884 1315h4.8"/>
<path d="m4894 1315h4.8"/>
</g>
<path d="m4690 1288-83 28 83 28v-55" fill="#231f20"/>
<path d="m4892 1343 83-28-83-28v55" fill="#231f20"/>
<g fill="none" stroke="#231f20" stroke-linecap="round" stroke-linejoin="round" stroke-miterlimit="10" stroke-width="2.5">
<path d="m4682 828h4.8"/>
<path d="m4692 828h4.8"/>
<path d="m4702 828h4.8"/>
<path d="m4711 828h4.8"/>
<path d="m4721 828h4.8"/>
<path d="m4730 828h4.8"/>
<path d="m4740 828h4.8"/>
<path d="m4750 828h4.8"/>
<path d="m4759 828h4.8"/>
<path d="m4769 828h4.8"/>
<path d="m4778 828h4.8"/>
<path d="m4788 828h4.8"/>
<path d="m4798 828h4.8"/>
<path d="m4807 828h4.8"/>
<path d="m4817 828h4.8"/>
<path d="m4826 828h4.8"/>
<path d="m4836 828h4.8"/>
<path d="m4846 828h4.8"/>
<path d="m4855 828h4.8"/>
<path d="m4865 828h4.8"/>
<path d="m4874 828h4.8"/>
<path d="m4884 828h4.8"/>
<path d="m4894 828h4.8"/>
</g>
<path d="m4690 800-83 28 83 28v-55" fill="#231f20"/>
<path d="m4892 856 83-28-83-28v55" fill="#231f20"/>
<g fill="none" stroke="#231f20" stroke-linecap="round" stroke-linejoin="round" stroke-miterlimit="10">
<path d="m1148 445h7370" stroke-width="40"/>
<g stroke-width="2.5">
<path d="m2105 728v-283"/>
<path d="m3941 728v-283"/>
<path d="m5641 728v-283"/>
<path d="m7526 728v-283"/>
</g>
</g>
<g transform="scale(10)">
<text transform="matrix(1 0 0 -1 322 28)" fill="#231f20" font-family="Helvetica" font-size="12px" font-style="oblique" xml:space="preserve"><tspan x="0 8.6639996 15.336 22.007999 26.004 29.34 33.335999 40.007999 46.68 53.352001 60.023998 66.695999 72.695999 82.692001 89.363998 96.036003 98.699997 105.372 115.368" y="0">bertragungsmedium</tspan></text>
</g>
<path d="m6846 3649h1332v198h-1332z" fill="#fff"/>
<path d="m6846 3649h1332v198h-1332v-198" fill="none" stroke="#231f20" stroke-linecap="round" stroke-linejoin="round" stroke-miterlimit="10" stroke-width="7.5"/>
<g transform="scale(10)">
<text transform="matrix(1 0 0 -1 698 371)" fill="#231f20" font-family="Helvetica" font-size="12px" xml:space="preserve"><tspan x="0 8.0039997 14.676 23.34 30.011999 36.683998 43.355999 50.028 56.700001 63.372002 69.372002 75.372002 81.372002 88.043999 90.708 96.708 103.38 106.716" y="0">Anwendungsschicht</tspan></text>
</g>
<path d="m2424 3706v-3061l2.4-23 6-22 11-19 14-17 17-14 19-11 22-6 22-2.4h851l22 2.4 22 6 20 11 17 14 14 17 9.6 19 7.2 22 2.4 23v964l1.2 22 7.2 22 9.6 19 14 18 18 13 19 11 22 6 22 2.4h624l22-2.4 22-6 19-11 17-13 14-18 11-19 6-22 2.4-22v-964l2.4-23 6-22 11-19 14-17 17-14 20-11 20-6 23-2.4h623l23 2.4 22 6 19 11 17 14 14 17 11 19 6 22 2.4 23v964l2.4 22 6 22 11 19 14 18 17 13 19 11 22 6 22 2.4h680l23-2.4 20-6 20-11 17-13 14-18 11-19 6-22 2.4-22v-964l2.4-23 6-22 11-19 13-17 18-14 19-11 22-6 22-2.4h766l22 2.4 22 6 20 11 17 14 14 17 9.6 19 7.2 22 2.4 23v2886" fill="none" stroke="#918f90" stroke-linecap="round" stroke-linejoin="round" stroke-miterlimit="10" stroke-width="30"/>
<path d="m7e3 3515 64 191 64-191h-127" fill="#918f90"/>
<path d="m1439 3649h1332v198h-1332z" fill="#fff"/>
<path d="m1439 3649h1332v198h-1332v-198" fill="none" stroke="#231f20" stroke-linecap="round" stroke-linejoin="round" stroke-miterlimit="10" stroke-width="7.5"/>
<g transform="scale(10)">
<text transform="matrix(1 0 0 -1 157 371)" fill="#231f20" font-family="Helvetica" font-size="12px" xml:space="preserve"><tspan x="0 8.0039997 14.676 23.34 30.011999 36.683998 43.355999 50.028 56.700001 63.372002 69.372002 75.372002 81.372002 88.043999 90.708 96.708 103.38 106.716" y="0">Anwendungsschicht</tspan></text>
</g>
<path d="m1439 3162h1332v198h-1332z" fill="#fff"/>
<path d="m1439 3162h1332v198h-1332v-198" fill="none" stroke="#231f20" stroke-linecap="round" stroke-linejoin="round" stroke-miterlimit="10" stroke-width="7.5"/>
<g transform="scale(10)">
<text transform="matrix(1 0 0 -1 158 323)" fill="#231f20" font-family="Helvetica" font-size="12px" xml:space="preserve"><tspan x="0 8.6639996 15.336 19.332001 25.332001 28.667999 35.34 38.004002 40.667999 47.34 54.012001 60.683998 66.683998 72.683998 78.683998 85.356003 88.019997 94.019997 100.692 104.028" y="0">Darstellungsschicht</tspan></text>
</g>
<path d="m1439 2676h1332v198h-1332z" fill="#fff"/>
<path d="m1439 2676h1332v198h-1332v-198" fill="none" stroke="#231f20" stroke-linecap="round" stroke-linejoin="round" stroke-miterlimit="10" stroke-width="7.5"/>
<g transform="scale(10)">
<text transform="matrix(1 0 0 -1 169 274)" fill="#231f20" font-family="Helvetica" font-size="12px" xml:space="preserve"><tspan x="0 8.0039997 10.668 14.004 20.004 26.676001 33.348 40.02 46.02 52.02 58.02 64.692001 67.356003 73.356003 80.028 83.363998" y="0">Sitzungsschicht</tspan></text>
</g>
<path d="m1439 2189h1332v198h-1332z" fill="#fff"/>
<path d="m1439 2189h1332v198h-1332v-198" fill="none" stroke="#231f20" stroke-linecap="round" stroke-linejoin="round" stroke-miterlimit="10" stroke-width="7.5"/>
<g transform="scale(10)">
<text transform="matrix(1 0 0 -1 166 225)" fill="#231f20" font-family="Helvetica" font-size="12px" xml:space="preserve"><tspan x="0 7.3319998 11.328 18 24.672001 30.672001 37.344002 44.015999 48.012001 51.348 57.348 63.348 70.019997 72.683998 78.683998 85.356003 88.692001" y="0">Transportschicht</tspan></text>
</g>
<path d="m1439 1702h1332v199h-1332z" fill="#fff"/>
<path d="m1439 1702h1332v199h-1332v-199" fill="none" stroke="#231f20" stroke-linecap="round" stroke-linejoin="round" stroke-miterlimit="10" stroke-width="7.5"/>
<g transform="scale(10)">
<text transform="matrix(1 0 0 -1 158 177)" fill="#231f20" font-family="Helvetica" font-size="12px" xml:space="preserve"><tspan x="0 8.0039997 14.676 18.672001 28.667999 31.332001 34.667999 38.004002 40.667999 47.34 54.012001 60.683998 66.683998 72.683998 78.683998 85.356003 88.019997 94.019997 100.692 104.028" y="0">Vermittlungsschicht</tspan></text>
</g>
<path d="m1439 1216h1332v198h-1332z" fill="#fff"/>
<path d="m1439 1216h1332v198h-1332v-198" fill="none" stroke="#231f20" stroke-linecap="round" stroke-linejoin="round" stroke-miterlimit="10" stroke-width="7.5"/>
<g transform="scale(10)">
<text transform="matrix(1 0 0 -1 162 128)" fill="#231f20" font-family="Helvetica" font-size="12px" xml:space="preserve"><tspan x="0 8.0039997 10.668 16.667999 23.34 30.011999 34.007999 40.68 47.352001 54.023998 60.023998 66.024002 72.024002 78.695999 81.360001 87.360001 94.031998 97.367996" y="0">Sicherungsschicht</tspan></text>
</g>
<path d="m1439 728h1332v199h-1332z" fill="#fff"/>
<path d="m1439 728h1332v199h-1332v-199" fill="none" stroke="#231f20" stroke-linecap="round" stroke-linejoin="round" stroke-miterlimit="10" stroke-width="7.5"/>
<g transform="scale(10)">
<text transform="matrix(1 0 0 -1 149 79)" fill="#231f20" font-family="Helvetica" font-size="12px" xml:space="preserve"><tspan x="0 8.0039997 10.668 14.004 20.676001 27.348 34.02 38.015999 41.352001 45.348 52.02 58.692001 65.363998 72.036003 78.708 84.708 90.708 96.708 103.38 106.044 112.044 118.716 122.052" y="0">Bitbertragungsschicht</tspan></text>
</g>
<path d="m3275 1702h1332v199h-1332z" fill="#fff"/>
<path d="m3275 1702h1332v199h-1332v-199" fill="none" stroke="#231f20" stroke-linecap="round" stroke-linejoin="round" stroke-miterlimit="10" stroke-width="7.5"/>
<g transform="scale(10)">
<text transform="matrix(1 0 0 -1 342 177)" fill="#231f20" font-family="Helvetica" font-size="12px" xml:space="preserve"><tspan x="0 8.0039997 14.676 18.672001 28.667999 31.332001 34.667999 38.004002 40.667999 47.34 54.012001 60.683998 66.683998 72.683998 78.683998 85.356003 88.019997 94.019997 100.692 104.028" y="0">Vermittlungsschicht</tspan></text>
</g>
<path d="m3275 1216h1332v198h-1332z" fill="#fff"/>
<path d="m3275 1216h1332v198h-1332v-198" fill="none" stroke="#231f20" stroke-linecap="round" stroke-linejoin="round" stroke-miterlimit="10" stroke-width="7.5"/>
<g transform="scale(10)">
<text transform="matrix(1 0 0 -1 345 128)" fill="#231f20" font-family="Helvetica" font-size="12px" xml:space="preserve"><tspan x="0 8.0039997 10.668 16.667999 23.34 30.011999 34.007999 40.68 47.352001 54.023998 60.023998 66.024002 72.024002 78.695999 81.360001 87.360001 94.031998 97.367996" y="0">Sicherungsschicht</tspan></text>
</g>
<path d="m3275 728h1332v199h-1332z" fill="#fff"/>
<path d="m3275 728h1332v199h-1332v-199" fill="none" stroke="#231f20" stroke-linecap="round" stroke-linejoin="round" stroke-miterlimit="10" stroke-width="7.5"/>
<g transform="scale(10)">
<text transform="matrix(1 0 0 -1 333 79)" fill="#231f20" font-family="Helvetica" font-size="12px" xml:space="preserve"><tspan x="0 8.0039997 10.668 14.004 20.676001 27.348 34.02 38.015999 41.352001 45.348 52.02 58.692001 65.363998 72.036003 78.708 84.708 90.708 96.708 103.38 106.044 112.044 118.716 122.052" y="0">Bitbertragungsschicht</tspan></text>
</g>
<path d="m6846 3162h1332v198h-1332z" fill="#fff"/>
<path d="m6846 3162h1332v198h-1332v-198" fill="none" stroke="#231f20" stroke-linecap="round" stroke-linejoin="round" stroke-miterlimit="10" stroke-width="7.5"/>
<g transform="scale(10)">
<text transform="matrix(1 0 0 -1 699 323)" fill="#231f20" font-family="Helvetica" font-size="12px" xml:space="preserve"><tspan x="0 8.6639996 15.336 19.332001 25.332001 28.667999 35.34 38.004002 40.667999 47.34 54.012001 60.683998 66.683998 72.683998 78.683998 85.356003 88.019997 94.019997 100.692 104.028" y="0">Darstellungsschicht</tspan></text>
</g>
<path d="m6846 2676h1332v198h-1332z" fill="#fff"/>
<path d="m6846 2676h1332v198h-1332v-198" fill="none" stroke="#231f20" stroke-linecap="round" stroke-linejoin="round" stroke-miterlimit="10" stroke-width="7.5"/>
<g transform="scale(10)">
<text transform="matrix(1 0 0 -1 709 274)" fill="#231f20" font-family="Helvetica" font-size="12px" xml:space="preserve"><tspan x="0 8.0039997 10.668 14.004 20.004 26.676001 33.348 40.02 46.02 52.02 58.02 64.692001 67.356003 73.356003 80.028 83.363998" y="0">Sitzungsschicht</tspan></text>
</g>
<path d="m6846 2189h1332v198h-1332z" fill="#fff"/>
<path d="m6846 2189h1332v198h-1332v-198" fill="none" stroke="#231f20" stroke-linecap="round" stroke-linejoin="round" stroke-miterlimit="10" stroke-width="7.5"/>
<g transform="scale(10)">
<text transform="matrix(1 0 0 -1 707 225)" fill="#231f20" font-family="Helvetica" font-size="12px" xml:space="preserve"><tspan x="0 7.3319998 11.328 18 24.672001 30.672001 37.344002 44.015999 48.012001 51.348 57.348 63.348 70.019997 72.683998 78.683998 85.356003 88.692001" y="0">Transportschicht</tspan></text>
</g>
<path d="m6846 1702h1332v199h-1332z" fill="#fff"/>
<path d="m6846 1702h1332v199h-1332v-199" fill="none" stroke="#231f20" stroke-linecap="round" stroke-linejoin="round" stroke-miterlimit="10" stroke-width="7.5"/>
<g transform="scale(10)">
<text transform="matrix(1 0 0 -1 699 177)" fill="#231f20" font-family="Helvetica" font-size="12px" xml:space="preserve"><tspan x="0 8.0039997 14.676 18.672001 28.667999 31.332001 34.667999 38.004002 40.667999 47.34 54.012001 60.683998 66.683998 72.683998 78.683998 85.356003 88.019997 94.019997 100.692 104.028" y="0">Vermittlungsschicht</tspan></text>
</g>
<path d="m6846 1216h1332v198h-1332z" fill="#fff"/>
<path d="m6846 1216h1332v198h-1332v-198" fill="none" stroke="#231f20" stroke-linecap="round" stroke-linejoin="round" stroke-miterlimit="10" stroke-width="7.5"/>
<g transform="scale(10)">
<text transform="matrix(1 0 0 -1 702 128)" fill="#231f20" font-family="Helvetica" font-size="12px" xml:space="preserve"><tspan x="0 8.0039997 10.668 16.667999 23.34 30.011999 34.007999 40.68 47.352001 54.023998 60.023998 66.024002 72.024002 78.695999 81.360001 87.360001 94.031998 97.367996" y="0">Sicherungsschicht</tspan></text>
</g>
<path d="m6846 728h1332v199h-1332z" fill="#fff"/>
<path d="m6846 728h1332v199h-1332v-199" fill="none" stroke="#231f20" stroke-linecap="round" stroke-linejoin="round" stroke-miterlimit="10" stroke-width="7.5"/>
<g transform="scale(10)">
<text transform="matrix(1 0 0 -1 690 79)" fill="#231f20" font-family="Helvetica" font-size="12px" xml:space="preserve"><tspan x="0 8.0039997 10.668 14.004 20.676001 27.348 34.02 38.015999 41.352001 45.348 52.02 58.692001 65.363998 72.036003 78.708 84.708 90.708 96.708 103.38 106.044 112.044 118.716 122.052" y="0">Bitbertragungsschicht</tspan></text>
</g>
<path d="m5e3 1702h1332v199h-1332z" fill="#fff"/>
<path d="m5e3 1702h1332v199h-1332v-199" fill="none" stroke="#231f20" stroke-linecap="round" stroke-linejoin="round" stroke-miterlimit="10" stroke-width="7.5"/>
<g transform="scale(10)">
<text transform="matrix(1 0 0 -1 512 177)" fill="#231f20" font-family="Helvetica" font-size="12px" xml:space="preserve"><tspan x="0 8.0039997 14.676 18.672001 28.667999 31.332001 34.667999 38.004002 40.667999 47.34 54.012001 60.683998 66.683998 72.683998 78.683998 85.356003 88.019997 94.019997 100.692 104.028" y="0">Vermittlungsschicht</tspan></text>
</g>
<path d="m5e3 1216h1332v198h-1332z" fill="#fff"/>
<path d="m5e3 1216h1332v198h-1332v-198" fill="none" stroke="#231f20" stroke-linecap="round" stroke-linejoin="round" stroke-miterlimit="10" stroke-width="7.5"/>
<g transform="scale(10)">
<text transform="matrix(1 0 0 -1 515 128)" fill="#231f20" font-family="Helvetica" font-size="12px" xml:space="preserve"><tspan x="0 8.0039997 10.668 16.667999 23.34 30.011999 34.007999 40.68 47.352001 54.023998 60.023998 66.024002 72.024002 78.695999 81.360001 87.360001 94.031998 97.367996" y="0">Sicherungsschicht</tspan></text>
</g>
<path d="m5e3 728h1332v199h-1332z" fill="#fff"/>
<path d="m5e3 728h1332v199h-1332v-199" fill="none" stroke="#231f20" stroke-linecap="round" stroke-linejoin="round" stroke-miterlimit="10" stroke-width="7.5"/>
<g transform="scale(10)">
<text transform="matrix(1 0 0 -1 503 79)" fill="#231f20" font-family="Helvetica" font-size="12px" xml:space="preserve"><tspan x="0 8.0039997 10.668 14.004 20.676001 27.348 34.02 38.015999 41.352001 45.348 52.02 58.692001 65.363998 72.036003 78.708 84.708 90.708 96.708 103.38 106.044 112.044 118.716 122.052" y="0">Bitbertragungsschicht</tspan><tspan x="-78.719902 -70.715897 -66.719902 -60.047901 -56.711899 -50.039902 -44.039902 -37.367901 -34.703899 -32.039902 -25.367901 -22.0319 -16.0319 -7.3678999 -4.7038999 1.2961 7.2961001 13.9681 20.6401 27.312099 30.6481 37.320099 43.9921 50.664101" y="-264">Protokolle zwischen den</tspan><tspan x="-70.199982 -62.19598 -56.19598 -49.523979 -46.859982 -40.859982 -34.187981 -30.85198 -24.179979 -17.50798 -14.17198 -7.49998 -0.82797998 3.16802 6.5040202 12.50402 19.17602 21.840019 28.51202 35.184021 41.856022" y="-249.60001">Schichten der selben</tspan><tspan x="-31.439779 -23.43578 -16.763781 -10.09178 -3.41978 3.2522199" y="-235.2">Ebene</tspan><tspan x="-76.79998 -69.791977 -62.783981 -59.447979 -56.783981 -50.11198 -43.43998 -40.775982 -34.775982 -28.77598 -22.103979 -15.43198 -11.43598 -8.0999804 0.56401998 7.2360201 10.57202 17.24402 23.916019 27.25202 29.916019 36.58802 42.58802 48.58802" y="-220.8">=&gt; logischer Datenfluss</tspan></text>
</g>
<path d="m14 3126h953v270h-953v-270" fill="none" stroke="#231f20" stroke-linecap="round" stroke-linejoin="round" stroke-miterlimit="10" stroke-width="7.5"/>
<g transform="scale(10)">
<text transform="matrix(1 0 0 -1 22 329)" fill="#231f20" font-family="Helvetica" font-size="9px" xml:space="preserve"><tspan x="0 6.4980001 8.4960003 13.5 18.504 23.004 25.506001 28.007999 30.51 35.514 38.511002 41.013 46.016998 48.014999 53.019001" y="0">Dienst fr die</tspan><tspan x="-13.5598 -7.5567999 -2.5527999 3.9452 8.9491997 13.9532 18.957199 23.961201 28.9652 33.9692 38.4692 42.9692 47.4692 52.473202 54.471199 58.971199 63.975201 66.477203" y="10.8">Anwendungsschicht</tspan></text>
</g>
<path d="m14 2640h953v270h-953v-270" fill="none" stroke="#231f20" stroke-linecap="round" stroke-linejoin="round" stroke-miterlimit="10" stroke-width="7.5"/>
<g transform="scale(10)">
<text transform="matrix(1 0 0 -1 22 280)" fill="#231f20" font-family="Helvetica" font-size="9px" xml:space="preserve"><tspan x="0 6.4980001 8.4960003 13.5 18.504 23.004 25.506001 28.007999 30.51 35.514 38.511002 41.013 46.016998 48.014999 53.019001" y="0">Dienst fr die</tspan><tspan x="-12.6 -6.1020002 -1.098 1.899 6.3990002 8.901 13.905 15.903 17.900999 22.905001 27.909 32.912998 37.412998 41.912998 46.412998 51.417 53.415001 57.915001 62.918999 65.420998" y="10.8">Darstellungsschicht</tspan></text>
</g>
<path d="m14 2153h953v270h-953v-270" fill="none" stroke="#231f20" stroke-linecap="round" stroke-linejoin="round" stroke-miterlimit="10" stroke-width="7.5"/>
<g transform="scale(10)">
<text transform="matrix(1 0 0 -1 22 231)" fill="#231f20" font-family="Helvetica" font-size="9px" xml:space="preserve"><tspan x="0 6.4980001 8.4960003 13.5 18.504 23.004 25.506001 28.007999 30.51 35.514 38.511002 41.013 46.016998 48.014999 53.019001" y="0">Dienst fr die</tspan><tspan x="-4.8000002 1.2029999 3.201 5.7030001 10.203 15.207 20.211 25.215 29.715 34.215 38.715 43.719002 45.716999 50.216999 55.221001 57.723" y="10.8">Sitzungsschicht</tspan></text>
</g>
<path d="m14 1667h953v270h-953v-270" fill="none" stroke="#231f20" stroke-linecap="round" stroke-linejoin="round" stroke-miterlimit="10" stroke-width="7.5"/>
<g transform="scale(10)">
<text transform="matrix(1 0 0 -1 22 183)" fill="#231f20" font-family="Helvetica" font-size="9px" xml:space="preserve"><tspan x="0 6.4980001 8.4960003 13.5 18.504 23.004 25.506001 28.007999 30.51 35.514 38.511002 41.013 46.016998 48.014999 53.019001" y="0">Dienst fr die</tspan><tspan x="-6.7199202 -1.22092 1.77608 6.7800798 11.78408 16.284081 21.28808 26.29208 29.28908 31.79108 36.29108 40.79108 45.795078 47.793079 52.293079 57.297081 59.79908" y="10.8">Transportschicht</tspan></text>
</g>
<path d="m14 1180h953v270h-953v-270" fill="none" stroke="#231f20" stroke-linecap="round" stroke-linejoin="round" stroke-miterlimit="10" stroke-width="7.5"/>
<g transform="scale(10)">
<text transform="matrix(1 0 0 -1 22 134)" fill="#231f20" font-family="Helvetica" font-size="9px" xml:space="preserve"><tspan x="0 6.4980001 8.4960003 13.5 18.504 23.004 25.506001 28.007999 30.51 35.514 38.511002 41.013 46.016998 48.014999 53.019001" y="0">Dienst fr die</tspan><tspan x="-12.6 -6.5970001 -1.5930001 1.404 8.901 10.899 13.401 15.903 17.900999 22.905001 27.909 32.912998 37.412998 41.912998 46.412998 51.417 53.415001 57.915001 62.918999 65.420998" y="10.8">Vermittlungsschicht</tspan></text>
</g>
<path d="m14 694h953v270h-953v-270" fill="none" stroke="#231f20" stroke-linecap="round" stroke-linejoin="round" stroke-miterlimit="10" stroke-width="7.5"/>
<g transform="scale(10)">
<text transform="matrix(1 0 0 -1 22 86)" fill="#231f20" font-family="Helvetica" font-size="9px" xml:space="preserve"><tspan x="0 6.4980001 8.4960003 13.5 18.504 23.004 25.506001 28.007999 30.51 35.514 38.511002 41.013 46.016998 48.014999 53.019001" y="0">Dienst fr die</tspan><tspan x="-10.0801 -4.0770998 -2.0790999 2.4209001 7.4249001 12.4289 15.4259 20.429899 25.433901 30.437901 34.937901 39.437901 43.937901 48.941898 50.939899 55.439899 60.443901 62.9459" y="10.8">Sicherungsschicht</tspan></text>
</g>
<path d="m967 3262h343" fill="none" stroke="#918f90" stroke-linecap="round" stroke-linejoin="round" stroke-miterlimit="10" stroke-width="22"/>
<path d="m1298 3308 140-47-140-47v94" fill="#918f90"/>
<path d="m967 2774h343" fill="none" stroke="#918f90" stroke-linecap="round" stroke-linejoin="round" stroke-miterlimit="10" stroke-width="22"/>
<path d="m1298 2821 140-47-140-47v94" fill="#918f90"/>
<path d="m967 2288h343" fill="none" stroke="#918f90" stroke-linecap="round" stroke-linejoin="round" stroke-miterlimit="10" stroke-width="22"/>
<path d="m1298 2335 140-47-140-47v94" fill="#918f90"/>
<path d="m967 1801h343" fill="none" stroke="#918f90" stroke-linecap="round" stroke-linejoin="round" stroke-miterlimit="10" stroke-width="22"/>
<path d="m1298 1848 140-47-140-47v94" fill="#918f90"/>
<path d="m967 1315h343" fill="none" stroke="#918f90" stroke-linecap="round" stroke-linejoin="round" stroke-miterlimit="10" stroke-width="22"/>
<path d="m1298 1362 140-47-140-47v94" fill="#918f90"/>
<path d="m967 828h343" fill="none" stroke="#918f90" stroke-linecap="round" stroke-linejoin="round" stroke-miterlimit="10" stroke-width="22"/>
<path d="m1298 875 140-47-140-47v94" fill="#918f90"/>
<g transform="scale(10)">
<text transform="matrix(1 0 0 -1 22 363)" fill="#231f20" font-family="Helvetica" font-size="10px" xml:space="preserve"><tspan x="0 7.2199998 9.4399996 15 20.559999 25.559999 28.34 33.34 38.900002 44.459999 50.02 55.580002 61.139999 66.139999 71.699997 77.260002 82.82 87.82 90.599998" y="0">Dienstzugangspunkt</tspan></text>
</g>
<path d="m1171 3655 728-205" fill="none" stroke="#918f90" stroke-linecap="round" stroke-linejoin="round" stroke-miterlimit="10" stroke-width="12"/>
<path d="m1901 3488 98-66-118-6 19 72" fill="#918f90"/>
</g>
</g>
</g>
</g>
</svg>
