<svg width="302pt" height="245pt" version="1.1" viewBox="0 0 302 245" xmlns="http://www.w3.org/2000/svg" xmlns:xlink="http://www.w3.org/1999/xlink">
<defs>
<g id="ap">
<path d="m9.0625-5.8281c0.17188-0.57812 0.60938-0.67188 1-0.67188v-0.3125c-0.29688 0.03125-0.60938 0.03125-0.90625 0.03125s-0.9375-0.015625-1.1875-0.03125v0.3125c0.67188 0.015625 0.85938 0.34375 0.85938 0.53125 0 0.0625-0.03125 0.14062-0.046875 0.20312l-1.5 4.5938-1.5938-4.875c0-0.046875-0.03125-0.10938-0.03125-0.15625 0-0.29688 0.57812-0.29688 0.84375-0.29688v-0.3125c-0.35938 0.03125-1.0312 0.03125-1.4219 0.03125-0.375 0-0.79688-0.015625-1.2031-0.03125v0.3125c0.5625 0 0.76562 0 0.89062 0.35938l0.21875 0.70312-1.3906 4.2656-1.5938-4.9062c-0.015625-0.015625-0.03125-0.09375-0.03125-0.125 0-0.29688 0.57812-0.29688 0.84375-0.29688v-0.3125c-0.35938 0.03125-1.0312 0.03125-1.4219 0.03125-0.375 0-0.79688-0.015625-1.2188-0.03125v0.3125c0.75 0 0.79688 0.046875 0.92188 0.42188l1.9844 6.1094c0.03125 0.09375 0.0625 0.1875 0.1875 0.1875 0.14062 0 0.15625-0.0625 0.20312-0.20312l1.6406-5.0625 1.6562 5.0781c0.03125 0.09375 0.0625 0.1875 0.1875 0.1875 0.14062 0 0.17188-0.0625 0.20312-0.20312z"/>
</g>
<g id="v">
<path d="m3.3125-0.75c0.046875 0.39062 0.3125 0.8125 0.78125 0.8125 0.21875 0 0.82812-0.14062 0.82812-0.95312v-0.5625h-0.25v0.5625c0 0.57812-0.25 0.64062-0.35938 0.64062-0.32812 0-0.375-0.45312-0.375-0.5v-1.9844c0-0.42188 0-0.8125-0.35938-1.1875-0.39062-0.39062-0.89062-0.54688-1.3594-0.54688-0.82812 0-1.5156 0.46875-1.5156 1.125 0 0.29688 0.20312 0.46875 0.46875 0.46875 0.28125 0 0.45312-0.20312 0.45312-0.45312 0-0.125-0.046875-0.45312-0.51562-0.45312 0.28125-0.35938 0.76562-0.46875 1.0781-0.46875 0.5 0 1.0625 0.39062 1.0625 1.2812v0.35938c-0.51562 0.03125-1.2031 0.0625-1.8281 0.35938-0.75 0.34375-1 0.85938-1 1.2969 0 0.8125 0.96875 1.0625 1.5938 1.0625 0.65625 0 1.1094-0.40625 1.2969-0.85938zm-0.0625-1.6406v1c0 0.9375-0.71875 1.2812-1.1719 1.2812-0.48438 0-0.89062-0.34375-0.89062-0.84375 0-0.54688 0.42188-1.375 2.0625-1.4375z"/>
</g>
<g id="i">
<path d="m1.6719-3.3125v-1.0938l-1.3906 0.10938v0.3125c0.70312 0 0.78125 0.0625 0.78125 0.5625v2.6719c0 0.4375-0.10938 0.4375-0.78125 0.4375v0.3125c0.39062-0.015625 0.85938-0.03125 1.1406-0.03125 0.39062 0 0.85938 0 1.2656 0.03125v-0.3125h-0.21875c-0.73438 0-0.75-0.10938-0.75-0.46875v-1.5312c0-0.98438 0.42188-1.875 1.1719-1.875 0.0625 0 0.09375 0 0.10938 0.015625-0.03125 0-0.23438 0.125-0.23438 0.39062s0.21875 0.42188 0.4375 0.42188c0.17188 0 0.42188-0.125 0.42188-0.4375s-0.3125-0.60938-0.73438-0.60938c-0.73438 0-1.0938 0.67188-1.2188 1.0938z"/>
</g>
<g id="ak">
<path d="m1.7188-3.9844h1.4375v-0.3125h-1.4375v-1.8281h-0.25c0 0.8125-0.29688 1.875-1.2812 1.9219v0.21875h0.84375v2.75c0 1.2188 0.9375 1.3438 1.2969 1.3438 0.70312 0 0.98438-0.70312 0.98438-1.3438v-0.5625h-0.25v0.54688c0 0.73438-0.29688 1.1094-0.67188 1.1094-0.67188 0-0.67188-0.90625-0.67188-1.0781z"/>
</g>
<g id="l">
<path d="m1.1094-2.5156c0.0625-1.4844 0.90625-1.7344 1.25-1.7344 1.0156 0 1.125 1.3438 1.125 1.7344zm0 0.21875h2.7812c0.21875 0 0.25 0 0.25-0.21875 0-0.98438-0.54688-1.9531-1.7812-1.9531-1.1562 0-2.0781 1.0312-2.0781 2.2812 0 1.3281 1.0469 2.2969 2.1875 2.2969 1.2188 0 1.6719-1.1094 1.6719-1.2969 0-0.09375-0.078125-0.125-0.14062-0.125-0.078125 0-0.10938 0.0625-0.125 0.14062-0.34375 1.0312-1.25 1.0312-1.3438 1.0312-0.5 0-0.89062-0.29688-1.125-0.67188-0.29688-0.46875-0.29688-1.125-0.29688-1.4844z"/>
</g>
<g id="p">
<path d="m3.8906-0.78125v0.89062l1.4375-0.10938v-0.3125c-0.6875 0-0.76562-0.0625-0.76562-0.5625v-3.5312l-1.4688 0.10938v0.3125c0.6875 0 0.78125 0.0625 0.78125 0.5625v1.7656c0 0.875-0.48438 1.5469-1.2188 1.5469-0.82812 0-0.875-0.46875-0.875-0.98438v-3.3125l-1.4688 0.10938v0.3125c0.78125 0 0.78125 0.03125 0.78125 0.90625v1.5c0 0.78125 0 1.6875 1.5156 1.6875 0.5625 0 1-0.28125 1.2812-0.89062z"/>
</g>
<g id="u">
<path d="m1.75-4.2969v-1.1562c0-0.875 0.46875-1.3594 0.90625-1.3594 0.03125 0 0.1875 0 0.32812 0.078125-0.10938 0.03125-0.29688 0.17188-0.29688 0.42188 0 0.21875 0.15625 0.42188 0.4375 0.42188s0.4375-0.20312 0.4375-0.4375c0-0.375-0.375-0.70312-0.90625-0.70312-0.6875 0-1.5469 0.53125-1.5469 1.5938v1.1406h-0.78125v0.3125h0.78125v3.2344c0 0.4375-0.10938 0.4375-0.76562 0.4375v0.3125c0.39062-0.015625 0.85938-0.03125 1.125-0.03125 0.40625 0 0.875 0 1.2656 0.03125v-0.3125h-0.20312c-0.73438 0-0.75-0.10938-0.75-0.46875v-3.2031h1.125v-0.3125z"/>
</g>
<g id="x">
<path d="m3.9688-6.9375c-0.046875-0.125-0.078125-0.20312-0.23438-0.20312s-0.1875 0.0625-0.23438 0.20312l-2.0625 5.9531c-0.1875 0.51562-0.57812 0.67188-1.125 0.67188v0.3125c0.23438-0.015625 0.67188-0.03125 1.0156-0.03125 0.3125 0 0.82812 0.015625 1.1562 0.03125v-0.3125c-0.5 0-0.75-0.25-0.75-0.5 0-0.03125 0.015625-0.14062 0.015625-0.15625l0.46875-1.2969h2.4531l0.53125 1.5156c0.015625 0.046875 0.03125 0.10938 0.03125 0.14062 0 0.29688-0.5625 0.29688-0.82812 0.29688v0.3125c0.35938-0.03125 1.0625-0.03125 1.4375-0.03125 0.42188 0 0.89062 0.015625 1.2969 0.03125v-0.3125h-0.17188c-0.59375 0-0.73438-0.0625-0.84375-0.39062zm-0.53125 1.1094 1.125 3.25h-2.2344z"/>
</g>
<g id="w">
<path d="m3.7812-0.54688v0.65625l1.4688-0.10938v-0.3125c-0.6875 0-0.78125-0.0625-0.78125-0.5625v-6.0469l-1.4219 0.10938v0.3125c0.6875 0 0.76562 0.0625 0.76562 0.5625v2.1562c-0.28125-0.35938-0.71875-0.625-1.25-0.625-1.1719 0-2.2188 0.98438-2.2188 2.2656 0 1.2656 0.96875 2.25 2.1094 2.25 0.64062 0 1.0781-0.34375 1.3281-0.65625zm0-2.6719v2.0469c0 0.17188 0 0.1875-0.10938 0.35938-0.29688 0.48438-0.73438 0.70312-1.1719 0.70312-0.45312 0-0.8125-0.26562-1.0469-0.64062-0.25-0.40625-0.28125-0.96875-0.28125-1.3906 0-0.35938 0.015625-0.95312 0.29688-1.4062 0.21875-0.3125 0.59375-0.64062 1.1406-0.64062 0.34375 0 0.76562 0.15625 1.0625 0.59375 0.10938 0.17188 0.10938 0.1875 0.10938 0.375z"/>
</g>
<g id="bi">
<path d="m1.1719-2.1719c0-1.625 0.8125-2.0469 1.3438-2.0469 0.09375 0 0.71875 0.015625 1.0625 0.375-0.40625 0.03125-0.46875 0.32812-0.46875 0.45312 0 0.26562 0.1875 0.45312 0.45312 0.45312s0.46875-0.15625 0.46875-0.46875c0-0.67188-0.76562-1.0625-1.5312-1.0625-1.25 0-2.1562 1.0781-2.1562 2.3125 0 1.2812 0.98438 2.2656 2.1406 2.2656 1.3281 0 1.6562-1.2031 1.6562-1.2969s-0.10938-0.09375-0.14062-0.09375c-0.078125 0-0.10938 0.03125-0.125 0.09375-0.28125 0.92188-0.9375 1.0469-1.2969 1.0469-0.53125 0-1.4062-0.42188-1.4062-2.0312z"/>
</g>
<g id="bh">
<path d="m1.0938-0.75c0 0.4375-0.10938 0.4375-0.78125 0.4375v0.3125c0.35938-0.015625 0.85938-0.03125 1.1406-0.03125 0.25 0 0.76562 0.015625 1.1094 0.03125v-0.3125c-0.67188 0-0.78125 0-0.78125-0.4375v-1.8438c0-1.0312 0.71875-1.5938 1.3438-1.5938 0.64062 0 0.75 0.53125 0.75 1.1094v2.3281c0 0.4375-0.10938 0.4375-0.78125 0.4375v0.3125c0.34375-0.015625 0.85938-0.03125 1.125-0.03125 0.25 0 0.78125 0.015625 1.1094 0.03125v-0.3125c-0.51562 0-0.76562 0-0.76562-0.29688v-1.9062c0-0.85938 0-1.1562-0.3125-1.5156-0.14062-0.17188-0.46875-0.375-1.0469-0.375-0.84375 0-1.2812 0.59375-1.4531 0.98438v-3.5l-1.4375 0.10938v0.3125c0.70312 0 0.78125 0.0625 0.78125 0.5625z"/>
</g>
<g id="bg">
<path d="m3.4844-3.875-1.2812-0.29688c-0.625-0.15625-1-0.6875-1-1.2656 0-0.70312 0.53125-1.3125 1.3125-1.3125 1.6562 0 1.875 1.6406 1.9375 2.0781 0.015625 0.0625 0.015625 0.125 0.125 0.125 0.125 0 0.125-0.046875 0.125-0.23438v-2c0-0.17188 0-0.25-0.10938-0.25-0.0625 0-0.078125 0.015625-0.14062 0.14062l-0.35938 0.5625c-0.29688-0.29688-0.70312-0.70312-1.5938-0.70312-1.1094 0-1.9375 0.875-1.9375 1.9375 0 0.82812 0.53125 1.5625 1.2969 1.8281 0.10938 0.03125 0.625 0.15625 1.3281 0.32812 0.26562 0.0625 0.5625 0.14062 0.84375 0.5 0.20312 0.26562 0.3125 0.59375 0.3125 0.92188 0 0.70312-0.5 1.4219-1.3438 1.4219-0.28125 0-1.0469-0.046875-1.5781-0.53125-0.57812-0.54688-0.60938-1.1719-0.60938-1.5312-0.015625-0.10938-0.09375-0.10938-0.125-0.10938-0.125 0-0.125 0.078125-0.125 0.25v2c0 0.17188 0 0.23438 0.10938 0.23438 0.0625 0 0.078125-0.015625 0.14062-0.125 0-0.015625 0.03125-0.046875 0.35938-0.57812 0.3125 0.34375 0.95312 0.70312 1.8438 0.70312 1.1562 0 1.9531-0.96875 1.9531-2.0781 0-0.98438-0.65625-1.8125-1.4844-2.0156z"/>
</g>
<g id="bf">
<path d="m1.0938-3.4219v2.6719c0 0.4375-0.10938 0.4375-0.78125 0.4375v0.3125c0.35938-0.015625 0.85938-0.03125 1.1406-0.03125 0.25 0 0.76562 0.015625 1.1094 0.03125v-0.3125c-0.67188 0-0.78125 0-0.78125-0.4375v-1.8438c0-1.0312 0.71875-1.5938 1.3438-1.5938 0.64062 0 0.75 0.53125 0.75 1.1094v2.3281c0 0.4375-0.10938 0.4375-0.78125 0.4375v0.3125c0.34375-0.015625 0.85938-0.03125 1.125-0.03125 0.25 0 0.78125 0.015625 1.1094 0.03125v-0.3125c-0.51562 0-0.76562 0-0.76562-0.29688v-1.9062c0-0.85938 0-1.1562-0.3125-1.5156-0.14062-0.17188-0.46875-0.375-1.0469-0.375-0.73438 0-1.2031 0.42188-1.4844 1.0469v-1.0469l-1.4062 0.10938v0.3125c0.70312 0 0.78125 0.0625 0.78125 0.5625z"/>
</g>
<g id="be">
<path d="m2.75-1.8594v-0.57812h-2.6406v0.57812z"/>
</g>
<g id="bd">
<path d="m1.7188-3.75v-0.65625l-1.4375 0.10938v0.3125c0.70312 0 0.78125 0.0625 0.78125 0.5v4.6562c0 0.45312-0.10938 0.45312-0.78125 0.45312v0.3125c0.34375-0.015625 0.85938-0.03125 1.1094-0.03125 0.28125 0 0.78125 0.015625 1.125 0.03125v-0.3125c-0.65625 0-0.76562 0-0.76562-0.45312v-1.7656c0.046875 0.17188 0.46875 0.70312 1.2188 0.70312 1.1875 0 2.2188-0.98438 2.2188-2.2656 0-1.2656-0.95312-2.25-2.0781-2.25-0.78125 0-1.2031 0.4375-1.3906 0.65625zm0.03125 2.6094v-2.2188c0.28125-0.51562 0.76562-0.79688 1.2812-0.79688 0.73438 0 1.3281 0.875 1.3281 2 0 1.2031-0.6875 2.0469-1.4219 2.0469-0.40625 0-0.78125-0.20312-1.0469-0.60938-0.14062-0.20312-0.14062-0.21875-0.14062-0.42188z"/>
</g>
<g id="ao">
<path d="m4.6875-2.1406c0-1.2656-0.98438-2.3281-2.1875-2.3281-1.25 0-2.2188 1.0938-2.2188 2.3281 0 1.2969 1.0312 2.25 2.2031 2.25 1.2031 0 2.2031-0.98438 2.2031-2.25zm-2.1875 2c-0.4375 0-0.875-0.20312-1.1406-0.67188-0.25-0.4375-0.25-1.0469-0.25-1.4062 0-0.39062 0-0.92188 0.23438-1.3594 0.26562-0.45312 0.73438-0.67188 1.1406-0.67188 0.4375 0 0.85938 0.21875 1.125 0.65625 0.26562 0.42188 0.26562 1 0.26562 1.375 0 0.35938 0 0.90625-0.21875 1.3438-0.23438 0.45312-0.67188 0.73438-1.1562 0.73438z"/>
</g>
<g id="bc">
<path d="m3.8906-4c0.09375-0.10938 0.09375-0.125 0.09375-0.17188 0-0.125-0.09375-0.125-0.26562-0.125h-3.1875l-0.10938 1.6094h0.25c0.0625-1.0156 0.25-1.3906 1.3438-1.3906h1.1406l-2.7812 3.7656c-0.09375 0.10938-0.09375 0.125-0.09375 0.17188 0 0.14062 0.0625 0.14062 0.25 0.14062h3.2969l0.17188-1.8594h-0.25c-0.09375 1.1719-0.29688 1.6094-1.4531 1.6094h-1.1875z"/>
</g>
<g id="an">
<path d="m2.0781-1.9375c0.21875 0.046875 1.0312 0.20312 1.0312 0.92188 0 0.5-0.34375 0.90625-1.125 0.90625-0.84375 0-1.2031-0.5625-1.3906-1.4219-0.03125-0.125-0.03125-0.15625-0.14062-0.15625-0.125 0-0.125 0.0625-0.125 0.23438v1.3281c0 0.17188 0 0.23438 0.10938 0.23438 0.046875 0 0.0625-0.015625 0.25-0.20312 0.015625-0.015625 0.015625-0.03125 0.20312-0.21875 0.4375 0.40625 0.89062 0.42188 1.0938 0.42188 1.1406 0 1.6094-0.67188 1.6094-1.3906 0-0.51562-0.29688-0.82812-0.42188-0.9375-0.32812-0.32812-0.71875-0.40625-1.1406-0.48438-0.5625-0.10938-1.2188-0.23438-1.2188-0.8125 0-0.35938 0.25-0.76562 1.1094-0.76562 1.0938 0 1.1562 0.90625 1.1719 1.2031 0 0.09375 0.09375 0.09375 0.10938 0.09375 0.14062 0 0.14062-0.046875 0.14062-0.23438v-1.0156c0-0.15625 0-0.23438-0.10938-0.23438-0.046875 0-0.078125 0-0.20312 0.125-0.03125 0.03125-0.125 0.125-0.17188 0.15625-0.375-0.28125-0.78125-0.28125-0.9375-0.28125-1.2188 0-1.5938 0.67188-1.5938 1.2344 0 0.34375 0.15625 0.625 0.42188 0.84375 0.32812 0.25 0.60938 0.3125 1.3281 0.45312z"/>
</g>
<g id="bb">
<path d="m2.3125-6.6719c-0.09375-0.125-0.09375-0.14062-0.28125-0.14062h-1.7031v0.3125h0.29688c0.14062 0 0.34375 0.015625 0.48438 0.015625 0.23438 0.03125 0.25 0.046875 0.25 0.23438v5.2031c0 0.26562 0 0.73438-1.0312 0.73438v0.3125c0.34375-0.015625 0.84375-0.03125 1.1719-0.03125s0.8125 0.015625 1.1562 0.03125v-0.3125c-1.0156 0-1.0156-0.46875-1.0156-0.73438v-5.1875c0.046875 0.046875 0.046875 0.0625 0.09375 0.125l4.0625 5.9844c0.09375 0.10938 0.10938 0.125 0.17188 0.125 0.14062 0 0.14062-0.0625 0.14062-0.26562v-5.5c0-0.26562 0-0.73438 1.0312-0.73438v-0.3125c-0.35938 0.015625-0.84375 0.03125-1.1719 0.03125s-0.8125-0.015625-1.1562-0.03125v0.3125c1.0156 0 1.0156 0.46875 1.0156 0.73438v4.2656z"/>
</g>
<g id="am">
<path d="m0.5625-3.4062c0 2.0625 1.6094 3.625 3.4688 3.625 1.625 0 2.5938-1.3906 2.5938-2.5469 0-0.09375 0-0.17188-0.125-0.17188-0.10938 0-0.10938 0.0625-0.125 0.17188-0.078125 1.4219-1.1406 2.2344-2.2344 2.2344-0.60938 0-2.5625-0.32812-2.5625-3.3125 0-2.9688 1.9531-3.3125 2.5625-3.3125 1.0781 0 1.9688 0.90625 2.1719 2.3594 0.015625 0.14062 0.015625 0.17188 0.15625 0.17188 0.15625 0 0.15625-0.03125 0.15625-0.23438v-2.3594c0-0.17188 0-0.25-0.10938-0.25-0.03125 0-0.078125 0-0.15625 0.125l-0.5 0.73438c-0.35938-0.35938-0.875-0.85938-1.8281-0.85938-1.875 0-3.4688 1.5938-3.4688 3.625z"/>
</g>
<g id="al">
<path d="m3.9844-4.1719 1.7969-1.7344c0.078125-0.078125 0.60938-0.57812 1.4219-0.59375v-0.3125c-0.26562 0.03125-0.57812 0.03125-0.85938 0.03125-0.35938 0-0.92188 0-1.2656-0.03125v0.3125c0.40625 0.015625 0.46875 0.23438 0.46875 0.32812 0 0.15625-0.10938 0.26562-0.1875 0.32812l-3.1094 2.9844v-3.1719c0-0.35938 0.015625-0.46875 0.78125-0.46875h0.23438v-0.3125c-0.34375 0.03125-1.0781 0.03125-1.4688 0.03125-0.375 0-1.125 0-1.4688-0.03125v0.3125h0.23438c0.76562 0 0.79688 0.10938 0.79688 0.46875v5.25c0 0.35938-0.03125 0.46875-0.79688 0.46875h-0.23438v0.3125c0.34375-0.03125 1.0938-0.03125 1.4688-0.03125s1.125 0 1.4688 0.03125v-0.3125h-0.23438c-0.76562 0-0.78125-0.10938-0.78125-0.46875v-1.7344l1.1562-1.1094 1.7969 2.6719c0.0625 0.09375 0.15625 0.21875 0.15625 0.34375 0 0.29688-0.39062 0.29688-0.59375 0.29688v0.3125c0.34375-0.03125 1.0469-0.03125 1.4219-0.03125 0.35938 0 0.73438 0.015625 1.1562 0.03125v-0.3125c-0.54688 0-0.75-0.03125-1.0469-0.46875z"/>
</g>
<g id="ba">
<path d="m4.625-8.3125c-0.046875-0.15625-0.078125-0.21875-0.23438-0.21875-0.17188 0-0.1875 0.03125-0.25 0.21875l-2.5 7.1562c-0.17188 0.48438-0.5 0.79688-1.2656 0.8125v0.34375c0.71875-0.03125 0.75-0.03125 1.1406-0.03125 0.34375 0 0.90625 0 1.2188 0.03125v-0.34375c-0.5-0.015625-0.79688-0.26562-0.79688-0.59375 0-0.078125 0-0.10938 0.0625-0.25l0.54688-1.5938h3.0156l0.65625 1.875c0.0625 0.14062 0.0625 0.17188 0.0625 0.20312 0 0.35938-0.60938 0.35938-0.92188 0.35938v0.34375c0.28125-0.03125 1.2344-0.03125 1.5625-0.03125s1.1875 0 1.4688 0.03125v-0.34375c-0.78125 0-0.98438 0-1.1562-0.5zm-0.57812 1.2031 1.3906 3.9844h-2.7656z"/>
</g>
<g id="ah">
<path d="m2.2031-4.5781c0-0.32812-0.28125-0.57812-0.57812-0.57812-0.34375 0-0.57812 0.28125-0.57812 0.57812 0 0.35938 0.29688 0.57812 0.5625 0.57812 0.32812 0 0.59375-0.25 0.59375-0.57812zm0 4c0-0.32812-0.28125-0.57812-0.57812-0.57812-0.34375 0-0.57812 0.26562-0.57812 0.57812 0 0.34375 0.29688 0.57812 0.5625 0.57812 0.32812 0 0.59375-0.25 0.59375-0.57812z"/>
</g>
<g id="au">
<path d="m3.9219-5.0625c0-0.20312 0-0.26562-0.125-0.26562-0.09375 0-0.3125 0.26562-0.40625 0.375-0.35938-0.3125-0.73438-0.375-1.125-0.375-1.4375 0-1.875 0.78125-1.875 1.4375 0 0.14062 0 0.5625 0.45312 0.96875 0.39062 0.34375 0.79688 0.42188 1.3438 0.53125 0.65625 0.125 0.8125 0.17188 1.1094 0.40625 0.21875 0.17188 0.375 0.4375 0.375 0.78125 0 0.51562-0.29688 1.0781-1.3594 1.0781-0.78125 0-1.3594-0.45312-1.625-1.6406-0.046875-0.21875-0.046875-0.23438-0.046875-0.25-0.03125-0.046875-0.078125-0.046875-0.10938-0.046875-0.14062 0-0.14062 0.0625-0.14062 0.28125v1.625c0 0.21875 0 0.28125 0.125 0.28125 0.0625 0 0.0625-0.015625 0.26562-0.26562 0.0625-0.09375 0.0625-0.10938 0.25-0.29688 0.45312 0.5625 1.0938 0.5625 1.2969 0.5625 1.25 0 1.875-0.70312 1.875-1.6406 0-0.64062-0.39062-1.0312-0.5-1.1406-0.42188-0.375-0.75-0.4375-1.5469-0.57812-0.34375-0.078125-1.2188-0.25-1.2188-0.96875 0-0.35938 0.25-0.90625 1.3281-0.90625 1.2969 0 1.375 1.1094 1.3906 1.4688 0.015625 0.10938 0.09375 0.10938 0.14062 0.10938 0.125 0 0.125-0.0625 0.125-0.28125z"/>
</g>
<g id="k">
<path d="m4.5781-2.7656c0.26562 0 0.28125 0 0.28125-0.23438 0-1.2031-0.64062-2.3281-2.0938-2.3281-1.3594 0-2.4062 1.2344-2.4062 2.7031 0 1.5781 1.2188 2.75 2.5469 2.75 1.4219 0 1.9531-1.2969 1.9531-1.5469 0-0.078125-0.046875-0.125-0.125-0.125-0.09375 0-0.125 0.0625-0.14062 0.125-0.3125 1-1.1094 1.2812-1.625 1.2812-0.5 0-1.7031-0.34375-1.7031-2.4062v-0.21875zm-3.2969-0.23438c0.09375-1.875 1.1406-2.0938 1.4844-2.0938 1.2812 0 1.3438 1.6875 1.3594 2.0938z"/>
</g>
<g id="at">
<path d="m5.3125-2.9062c0-1.1094 0-1.4375-0.26562-1.8281-0.34375-0.46875-0.90625-0.53125-1.3125-0.53125-1.1719 0-1.625 0.98438-1.7188 1.2188v-1.2188l-1.6406 0.125v0.34375c0.8125 0 0.92188 0.09375 0.92188 0.67188v3.2344c0 0.54688-0.14062 0.54688-0.92188 0.54688v0.34375c0.3125-0.03125 0.96875-0.03125 1.2969-0.03125 0.34375 0 1 0 1.2969 0.03125v-0.34375c-0.75 0-0.90625 0-0.90625-0.54688v-2.2188c0-1.25 0.82812-1.9219 1.5781-1.9219 0.73438 0 0.90625 0.60938 0.90625 1.3438v2.7969c0 0.54688-0.14062 0.54688-0.90625 0.54688v0.34375c0.29688-0.03125 0.95312-0.03125 1.2812-0.03125 0.34375 0 1 0 1.3125 0.03125v-0.34375c-0.60938 0-0.90625 0-0.92188-0.35938z"/>
</g>
<g id="as">
<path d="m3.5781-8.1562v0.34375c0.82812 0 0.92188 0.078125 0.92188 0.67188v2.6406c-0.25-0.35938-0.76562-0.76562-1.5-0.76562-1.3906 0-2.5781 1.1719-2.5781 2.7031 0 1.5156 1.125 2.6875 2.4531 2.6875 0.90625 0 1.4219-0.60938 1.5938-0.82812v0.82812l1.6875-0.125v-0.34375c-0.8125 0-0.90625-0.09375-0.90625-0.67188v-7.2812zm0.89062 6.75c0 0.21875 0 0.26562-0.17188 0.51562-0.28125 0.42188-0.76562 0.76562-1.375 0.76562-0.29688 0-1.5938-0.10938-1.5938-2.4375 0-0.85938 0.14062-1.3281 0.40625-1.7344 0.23438-0.35938 0.71875-0.73438 1.3125-0.73438 0.75 0 1.1562 0.53125 1.2812 0.73438 0.14062 0.20312 0.14062 0.21875 0.14062 0.4375z"/>
</g>
<g id="ag">
<path d="m3.2344-2.2656v-0.64062h-3.1094v0.64062z"/>
</g>
<g id="af">
<path d="m2.6094-3.7969h2.0156c1.4062 0 2.6719-0.95312 2.6719-2.1562 0-1.1562-1.1562-2.2031-2.7656-2.2031h-4.0312v0.34375h0.23438c0.875 0 0.90625 0.10938 0.90625 0.5625v6.3438c0 0.4375-0.03125 0.5625-0.90625 0.5625h-0.23438v0.34375c0.28125-0.03125 1.2656-0.03125 1.6094-0.03125 0.35938 0 1.3438 0 1.625 0.03125v-0.34375h-0.23438c-0.85938 0-0.89062-0.125-0.89062-0.5625zm-0.03125-0.29688v-3.25c0-0.39062 0.03125-0.46875 0.54688-0.46875h1.125c1.9375 0 1.9375 1.3438 1.9375 1.8594 0 0.5 0 1.8594-1.9375 1.8594z"/>
</g>
<g id="ae">
<path d="m4.6094-3.1875c0-0.65625 0-1.125-0.51562-1.5938-0.42188-0.375-0.96875-0.54688-1.4844-0.54688-0.98438 0-1.7344 0.64062-1.7344 1.4219 0 0.34375 0.21875 0.51562 0.5 0.51562s0.48438-0.20312 0.48438-0.5c0-0.48438-0.42188-0.48438-0.60938-0.48438 0.28125-0.5 0.85938-0.71875 1.3281-0.71875 0.54688 0 1.2656 0.45312 1.2656 1.5312v0.48438c-2.4062 0.03125-3.3125 1.0312-3.3125 1.9531 0 0.95312 1.0938 1.25 1.8281 1.25 0.78125 0 1.3281-0.48438 1.5469-1.0625 0.046875 0.5625 0.42188 1 0.9375 1 0.25 0 0.9375-0.17188 0.9375-1.125v-0.67188h-0.26562v0.67188c0 0.6875-0.28125 0.78125-0.45312 0.78125-0.45312 0-0.45312-0.64062-0.45312-0.8125zm-0.76562 1.5c0 1.1719-0.875 1.5625-1.3906 1.5625-0.59375 0-1.0781-0.42188-1.0781-1 0-1.5781 2.0312-1.7188 2.4688-1.75z"/>
</g>
<g id="aj">
<path d="m3.3438-3.1719-0.078125-0.10938c0-0.046875 0.75-0.6875 0.84375-0.78125 0.82812-0.71875 1.3594-0.73438 1.6094-0.75v-0.34375c-0.25 0.03125-0.5625 0.03125-0.90625 0.03125-0.3125 0-0.92188 0-1.2031-0.03125v0.34375c0.20312 0.015625 0.34375 0.125 0.34375 0.3125 0 0.25-0.23438 0.45312-0.25 0.45312l-1.7031 1.5156v-5.7656l-1.6719 0.14062v0.34375c0.8125 0 0.92188 0.078125 0.92188 0.67188v6.25c0 0.54688-0.14062 0.54688-0.92188 0.54688v0.34375c0.34375-0.03125 0.92188-0.03125 1.2812-0.03125 0.34375 0 0.92188 0 1.2656 0.03125v-0.34375c-0.76562 0-0.92188 0-0.92188-0.54688v-1.2656l0.76562-0.67188 1.1562 1.6562c0.17188 0.25 0.26562 0.39062 0.26562 0.54688 0 0.21875-0.17188 0.28125-0.42188 0.28125v0.34375c0.29688-0.03125 0.89062-0.03125 1.2031-0.03125 0.51562 0 0.54688 0 1.0469 0.03125v-0.34375c-0.3125 0-0.6875 0-1.0156-0.5z"/>
</g>
<g id="ai">
<path d="m2.0156-4.8125h1.6719v-0.34375h-1.6719v-2.1875h-0.26562c-0.015625 1.1094-0.45312 2.2656-1.5312 2.2969v0.23438h1.0156v3.3281c0 1.3281 0.875 1.6094 1.5156 1.6094 0.75 0 1.1406-0.75 1.1406-1.6094v-0.67188h-0.25v0.65625c0 0.85938-0.35938 1.3594-0.8125 1.3594-0.8125 0-0.8125-1.1094-0.8125-1.3125z"/>
</g>
<g id="az">
<path d="m0.51562-8.1562v0.34375h0.23438c0.85938 0 0.90625 0.10938 0.90625 0.5625v6.3438c0 0.4375-0.046875 0.5625-0.90625 0.5625h-0.23438v0.34375h4.5c1.5312 0 2.6094-1.0469 2.6094-2.1875 0-0.96875-0.875-1.9219-2.2969-2.0781 1.1406-0.21875 1.9688-0.98438 1.9688-1.875 0-1.0312-1.0469-2.0156-2.6094-2.0156zm2.0469 3.7969v-2.9844c0-0.39062 0.015625-0.46875 0.54688-0.46875h1.5c1.2031 0 1.625 1.0156 1.625 1.6719 0 0.78125-0.60938 1.7812-1.9375 1.7812zm0.54688 4.0156c-0.53125 0-0.54688-0.09375-0.54688-0.48438v-3.2969h2.2344c1.1406 0 1.7344 1 1.7344 1.9219 0 0.96875-0.71875 1.8594-1.8906 1.8594z"/>
</g>
<g id="ay">
<path d="m2-2.7812c0-1.1562 0.46875-2.25 1.3906-2.25 0.09375 0 0.125 0 0.17188 0.015625-0.09375 0.046875-0.28125 0.10938-0.28125 0.4375 0 0.34375 0.26562 0.48438 0.45312 0.48438 0.25 0 0.48438-0.15625 0.48438-0.48438 0-0.35938-0.32812-0.6875-0.84375-0.6875-1.0156 0-1.3594 1.0938-1.4219 1.3281h-0.015625v-1.3281l-1.6094 0.125v0.34375c0.8125 0 0.92188 0.09375 0.92188 0.67188v3.2344c0 0.54688-0.14062 0.54688-0.92188 0.54688v0.34375c0.34375-0.03125 1-0.03125 1.3594-0.03125 0.32812 0 1.1719 0 1.4375 0.03125v-0.34375h-0.23438c-0.875 0-0.89062-0.14062-0.89062-0.5625z"/>
</g>
<g id="ax">
<path d="m4.3281-4.4219c-0.14062 0-0.59375 0-0.59375 0.48438 0 0.29688 0.20312 0.5 0.5 0.5 0.26562 0 0.5-0.17188 0.5-0.51562 0-0.79688-0.84375-1.375-1.8125-1.375-1.3906 0-2.5 1.2344-2.5 2.75 0 1.5312 1.1406 2.7031 2.5 2.7031 1.5781 0 1.9375-1.4375 1.9375-1.5469s-0.09375-0.10938-0.125-0.10938c-0.10938 0-0.125 0.03125-0.15625 0.1875-0.26562 0.84375-0.90625 1.2031-1.5469 1.2031-0.73438 0-1.7031-0.64062-1.7031-2.4531 0-1.9844 1.0156-2.4688 1.6094-2.4688 0.45312 0 1.1094 0.17188 1.3906 0.64062z"/>
</g>
<g id="aw">
<path d="m2.0781-7.3594c0-0.3125-0.25-0.59375-0.57812-0.59375-0.3125 0-0.57812 0.25-0.57812 0.57812 0 0.35938 0.28125 0.57812 0.57812 0.57812 0.35938 0 0.57812-0.29688 0.57812-0.5625zm-1.6406 2.2188v0.34375c0.75 0 0.85938 0.078125 0.85938 0.65625v3.25c0 0.54688-0.125 0.54688-0.90625 0.54688v0.34375c0.34375-0.03125 0.90625-0.03125 1.2656-0.03125 0.125 0 0.8125 0 1.2188 0.03125v-0.34375c-0.76562 0-0.8125-0.0625-0.8125-0.53125v-4.3906z"/>
</g>
<g id="av">
<path d="m4.875-4.0156c0.10938-0.26562 0.3125-0.78125 1.0781-0.79688v-0.34375c-0.34375 0.03125-0.51562 0.03125-0.89062 0.03125-0.25 0-0.42188 0-0.96875-0.03125v0.34375c0.5 0.03125 0.5625 0.39062 0.5625 0.51562 0 0.10938-0.03125 0.17188-0.09375 0.3125l-1.2188 3.0938-1.3281-3.375c-0.0625-0.17188-0.078125-0.17188-0.078125-0.23438 0-0.3125 0.45312-0.3125 0.67188-0.3125v-0.34375c-0.29688 0.03125-0.92188 0.03125-1.25 0.03125-0.39062 0-0.42188 0-1.1406-0.03125v0.34375c0.67188 0 0.78125 0.0625 0.92188 0.42188l1.7188 4.2812c0.0625 0.17188 0.078125 0.23438 0.21875 0.23438 0.09375 0 0.15625-0.03125 0.25-0.23438z"/>
</g>
<g id="o">
<path d="m2.2188-1.8594c0-0.9375 0.57812-1.8906 1.7812-1.8906 0.015625 0.23438 0.1875 0.4375 0.4375 0.4375 0.21875 0 0.42188-0.15625 0.42188-0.42188 0-0.20312-0.125-0.625-0.95312-0.625-0.5 0-1.1406 0.1875-1.6875 0.8125v-0.34375c0-0.3125-0.0625-0.40625-0.40625-0.40625h-1.0938c-0.15625 0-0.40625 0-0.40625 0.29688 0 0.3125 0.25 0.3125 0.40625 0.3125h0.8125v3.0781h-0.8125c-0.15625 0-0.40625 0-0.40625 0.29688 0 0.3125 0.25 0.3125 0.40625 0.3125h2.5938c0.15625 0 0.42188 0 0.42188-0.29688 0-0.3125-0.26562-0.3125-0.42188-0.3125h-1.0938z"/>
</g>
<g id="b">
<path d="m3.5625-0.5c0 0.35938 0 0.5 0.40625 0.5h0.71875c0.17188 0 0.42188 0 0.42188-0.3125 0-0.29688-0.26562-0.29688-0.40625-0.29688h-0.45312v-5.0781c0-0.29688-0.046875-0.40625-0.39062-0.40625h-0.73438c-0.15625 0-0.40625 0-0.40625 0.3125 0 0.29688 0.26562 0.29688 0.40625 0.29688h0.4375v1.5781c-0.32812-0.29688-0.73438-0.45312-1.1562-0.45312-1.0938 0-2.0469 0.95312-2.0469 2.2188 0 1.2344 0.89062 2.2031 1.9531 2.2031 0.5625 0 0.98438-0.26562 1.25-0.5625zm0-2.1406v0.70312c0 0.5625-0.4375 1.3906-1.2031 1.3906-0.71875 0-1.3125-0.70312-1.3125-1.5938 0-0.95312 0.70312-1.6094 1.3906-1.6094 0.64062 0 1.125 0.5625 1.125 1.1094z"/>
</g>
<g id="c">
<path d="m2.2188-3.6875h1.625c0.15625 0 0.40625 0 0.40625-0.29688 0-0.3125-0.25-0.3125-0.40625-0.3125h-1.625v-0.8125c0-0.1875 0-0.40625-0.34375-0.40625s-0.34375 0.20312-0.34375 0.40625v0.8125h-0.875c-0.15625 0-0.40625 0-0.40625 0.3125 0 0.29688 0.25 0.29688 0.39062 0.29688h0.89062v2.4375c0 0.95312 0.67188 1.3125 1.4062 1.3125s1.5312-0.4375 1.5312-1.3125c0-0.1875 0-0.39062-0.34375-0.39062-0.32812 0-0.34375 0.20312-0.34375 0.375 0 0.625-0.57812 0.71875-0.79688 0.71875-0.76562 0-0.76562-0.51562-0.76562-0.76562z"/>
</g>
<g id="f">
<path d="m2.9688-2.5469c-0.23438-0.03125-0.42188-0.0625-0.67188-0.10938-0.29688-0.046875-0.96875-0.17188-0.96875-0.54688 0-0.26562 0.3125-0.57812 1.2656-0.57812 0.82812 0 0.96875 0.29688 1 0.5625 0 0.17188 0.03125 0.34375 0.32812 0.34375 0.35938 0 0.35938-0.21875 0.35938-0.42188v-0.6875c0-0.15625 0-0.40625-0.29688-0.40625-0.25 0-0.28125 0.14062-0.3125 0.21875-0.4375-0.21875-0.875-0.21875-1.0625-0.21875-1.6562 0-1.8906 0.82812-1.8906 1.1875 0 0.90625 1.0469 1.0781 1.9688 1.2188 0.48438 0.078125 1.2812 0.20312 1.2812 0.73438 0 0.375-0.375 0.70312-1.2812 0.70312-0.46875 0-1.0156-0.10938-1.2656-0.89062-0.0625-0.17188-0.09375-0.28125-0.35938-0.28125-0.34375 0-0.34375 0.20312-0.34375 0.40625v0.96875c0 0.15625 0 0.40625 0.29688 0.40625 0.09375 0 0.25-0.015625 0.375-0.375 0.48438 0.35938 1.0156 0.375 1.2969 0.375 1.5625 0 1.8906-0.82812 1.8906-1.3125 0-1.0312-1.2812-1.25-1.6094-1.2969z"/>
</g>
<g id="a">
<path d="m4.2344-1.9062c0.20312 0 0.39062 0 0.39062-0.35938 0-1.1406-0.64062-2.125-1.9375-2.125-1.1875 0-2.1406 1-2.1406 2.2344 0 1.2031 1.0156 2.2188 2.2969 2.2188 1.3125 0 1.7812-0.90625 1.7812-1.1562 0-0.26562-0.28125-0.26562-0.34375-0.26562-0.1875 0-0.26562 0.03125-0.32812 0.21875-0.21875 0.5-0.76562 0.59375-1.0469 0.59375-0.75 0-1.4844-0.5-1.6562-1.3594zm-2.9688-0.59375c0.14062-0.73438 0.73438-1.2812 1.4219-1.2812 0.51562 0 1.1406 0.25 1.2344 1.2812z"/>
</g>
<g id="m">
<path d="m1.6562-3.8281c0-0.3125 0-0.46875-0.40625-0.46875h-0.71875c-0.15625 0-0.40625 0-0.40625 0.3125 0 0.29688 0.25 0.29688 0.39062 0.29688h0.45312v3.0781h-0.4375c-0.15625 0-0.40625 0-0.40625 0.3125 0 0.29688 0.25 0.29688 0.39062 0.29688h1.5938c0.14062 0 0.39062 0 0.39062-0.29688 0-0.3125-0.25-0.3125-0.40625-0.3125h-0.4375v-1.7656c0-1 0.73438-1.375 1.25-1.375s0.65625 0.28125 0.65625 0.875v2.2656h-0.375c-0.17188 0-0.42188 0-0.42188 0.3125 0 0.29688 0.28125 0.29688 0.42188 0.29688h1.5156c0.14062 0 0.40625 0 0.40625-0.29688 0-0.3125-0.25-0.3125-0.42188-0.3125h-0.4375v-2.3125c0-1-0.5-1.4375-1.2969-1.4375-0.65625 0-1.1094 0.34375-1.2969 0.53125z"/>
</g>
<g id="e">
<path d="m4.3594 0.53125c0-0.14062-0.078125-0.1875-0.25-0.29688-1.2344-0.84375-1.7031-2.1719-1.7031-3.2812 0-1 0.39062-2.3906 1.7188-3.2969 0.15625-0.10938 0.23438-0.14062 0.23438-0.29688 0-0.078125-0.046875-0.28125-0.3125-0.28125-0.28125 0-2.3281 1.3125-2.3281 3.875 0 1.1875 0.46875 2.0781 0.8125 2.5781 0.53125 0.73438 1.2812 1.2812 1.5156 1.2812 0.26562 0 0.3125-0.1875 0.3125-0.28125z"/>
</g>
<g id="j">
<path d="m3.6562-0.3125c0.21875 0.29688 0.6875 0.3125 1.0625 0.3125 0.28125 0 0.5 0 0.5-0.3125 0-0.29688-0.25-0.29688-0.39062-0.29688-0.42188 0-0.51562-0.046875-0.59375-0.078125v-2.1562c0-0.70312-0.54688-1.5469-1.9844-1.5469-0.42188 0-1.4375 0-1.4375 0.73438 0 0.29688 0.20312 0.45312 0.4375 0.45312 0.15625 0 0.4375-0.09375 0.4375-0.45312 0-0.078125 0.015625-0.09375 0.21875-0.10938 0.14062-0.015625 0.26562-0.015625 0.35938-0.015625 0.75 0 1.2656 0.3125 1.2656 1.0156-1.75 0.03125-2.9844 0.53125-2.9844 1.4844 0 0.6875 0.625 1.3438 1.6406 1.3438 0.375 0 1-0.078125 1.4688-0.375zm-0.125-1.8594v0.84375c0 0.21875 0 0.4375-0.375 0.60938-0.35938 0.17188-0.8125 0.17188-0.89062 0.17188-0.625 0-1.0312-0.34375-1.0312-0.73438 0-0.48438 0.85938-0.85938 2.2969-0.89062z"/>
</g>
<g id="d">
<path d="m3.5156-3.0469c0-1.1875-0.46875-2.0938-0.8125-2.5781-0.53125-0.73438-1.2812-1.2969-1.5156-1.2969-0.25 0-0.3125 0.20312-0.3125 0.28125 0 0.15625 0.10938 0.21875 0.15625 0.25 1.6406 1.0938 1.7969 2.6875 1.7969 3.3438 0 1-0.375 2.375-1.7188 3.2812-0.15625 0.10938-0.23438 0.15625-0.23438 0.29688 0 0.09375 0.0625 0.28125 0.3125 0.28125 0.28125 0 2.3281-1.3125 2.3281-3.8594z"/>
</g>
<g id="h">
<path d="m4.6406-1.0938c0-0.26562-0.28125-0.26562-0.34375-0.26562-0.15625 0-0.26562 0.015625-0.32812 0.21875-0.0625 0.125-0.25 0.59375-0.98438 0.59375-0.84375 0-1.5625-0.70312-1.5625-1.6094 0-0.46875 0.26562-1.625 1.625-1.625 0.20312 0 0.59375 0 0.59375 0.09375 0.015625 0.34375 0.20312 0.48438 0.4375 0.48438s0.45312-0.17188 0.45312-0.45312c0-0.73438-1.0469-0.73438-1.4844-0.73438-1.7188 0-2.3125 1.3594-2.3125 2.2344 0 1.2031 0.9375 2.2188 2.1875 2.2188 1.3906 0 1.7188-0.98438 1.7188-1.1562z"/>
</g>
<g id="ar">
<path d="m4.6562-2.1562c0-1.25-0.92188-2.2344-2.0469-2.2344-1.1094 0-2.0469 0.98438-2.0469 2.2344 0 1.2656 0.95312 2.2188 2.0469 2.2188s2.0469-0.95312 2.0469-2.2188zm-2.0469 1.6094c-0.73438 0-1.3594-0.75-1.3594-1.6719 0-0.90625 0.65625-1.5625 1.3594-1.5625 0.71875 0 1.3594 0.65625 1.3594 1.5625 0 0.92188-0.625 1.6719-1.3594 1.6719z"/>
</g>
<g id="t">
<path d="m1.0938-4c-0.03125-0.29688-0.21875-0.29688-0.40625-0.29688h-0.3125c-0.15625 0-0.42188 0-0.42188 0.29688 0 0.3125 0.21875 0.3125 0.57812 0.3125v3.0781c-0.35938 0-0.57812 0-0.57812 0.3125 0 0.29688 0.28125 0.29688 0.42188 0.29688h0.875c0.14062 0 0.40625 0 0.40625-0.29688 0-0.3125-0.20312-0.3125-0.5625-0.3125v-1.7812c0-0.89062 0.40625-1.3594 0.8125-1.3594 0.23438 0 0.35938 0.17188 0.35938 0.8125v2.3281c-0.1875 0-0.4375 0-0.4375 0.3125 0 0.29688 0.28125 0.29688 0.42188 0.29688h0.73438c0.15625 0 0.42188 0 0.42188-0.29688 0-0.3125-0.21875-0.3125-0.57812-0.3125v-1.7812c0-0.89062 0.40625-1.3594 0.82812-1.3594 0.21875 0 0.35938 0.17188 0.35938 0.8125v2.3281c-0.1875 0-0.4375 0-0.4375 0.3125 0 0.29688 0.26562 0.29688 0.40625 0.29688h0.75c0.15625 0 0.40625 0 0.40625-0.29688 0-0.3125-0.20312-0.3125-0.5625-0.3125v-2.4062c0-0.20312 0-1.3438-0.89062-1.3438-0.29688 0-0.70312 0.125-0.98438 0.51562-0.15625-0.32812-0.4375-0.51562-0.76562-0.51562-0.3125 0-0.60938 0.14062-0.84375 0.35938z"/>
</g>
<g id="ad">
<path d="m1.6562-2.625c0-0.59375 0.57812-1.125 1.2031-1.125 0.73438 0 1.3125 0.73438 1.3125 1.5938 0 0.95312-0.6875 1.6094-1.3906 1.6094-0.78125 0-1.125-0.875-1.125-1.3594zm0 2.1719c0.40625 0.42188 0.84375 0.51562 1.1562 0.51562 1.0781 0 2.0469-0.95312 2.0469-2.2188 0-1.2188-0.875-2.2031-1.9375-2.2031-0.48438 0-0.92188 0.1875-1.2656 0.48438 0-0.28125-0.015625-0.42188-0.40625-0.42188h-0.71875c-0.15625 0-0.40625 0-0.40625 0.3125 0 0.29688 0.25 0.29688 0.39062 0.29688h0.45312v5.2969h-0.4375c-0.15625 0-0.40625 0-0.40625 0.29688 0 0.3125 0.25 0.3125 0.39062 0.3125h1.5938c0.14062 0 0.39062 0 0.39062-0.3125 0-0.29688-0.25-0.29688-0.40625-0.29688h-0.4375z"/>
</g>
<g id="g">
<path d="m3.5625-0.3125c0.015625 0.3125 0.21875 0.3125 0.40625 0.3125h0.71875c0.17188 0 0.42188 0 0.42188-0.3125 0-0.29688-0.26562-0.29688-0.40625-0.29688h-0.45312v-3.2812c0-0.3125-0.046875-0.40625-0.39062-0.40625h-0.73438c-0.15625 0-0.40625 0-0.40625 0.3125 0 0.29688 0.26562 0.29688 0.40625 0.29688h0.4375v2.125c0 0.89062-0.79688 1.0156-1.125 1.0156-0.78125 0-0.78125-0.32812-0.78125-0.65625v-2.6875c0-0.3125-0.0625-0.40625-0.40625-0.40625h-0.71875c-0.15625 0-0.40625 0-0.40625 0.3125 0 0.29688 0.25 0.29688 0.39062 0.29688h0.45312v2.5469c0 0.96875 0.6875 1.2031 1.4062 1.2031 0.42188 0 0.82812-0.10938 1.1875-0.375z"/>
</g>
<g id="ac">
<path d="m4.25-2.9219c0-1-0.5-1.4375-1.2969-1.4375-0.65625 0-1.1094 0.34375-1.2969 0.53125v-1.8594c0-0.29688-0.0625-0.40625-0.40625-0.40625h-0.71875c-0.15625 0-0.40625 0-0.40625 0.3125 0 0.29688 0.25 0.29688 0.39062 0.29688h0.45312v4.875h-0.4375c-0.15625 0-0.40625 0-0.40625 0.3125 0 0.29688 0.25 0.29688 0.39062 0.29688h1.5938c0.14062 0 0.39062 0 0.39062-0.29688 0-0.3125-0.25-0.3125-0.40625-0.3125h-0.4375v-1.7656c0-1 0.73438-1.375 1.25-1.375s0.65625 0.28125 0.65625 0.875v2.2656h-0.375c-0.17188 0-0.42188 0-0.42188 0.3125 0 0.29688 0.28125 0.29688 0.42188 0.29688h1.5156c0.14062 0 0.40625 0 0.40625-0.29688 0-0.3125-0.25-0.3125-0.42188-0.3125h-0.4375z"/>
</g>
<g id="s">
<path d="m2.8594-2.5469 1.2344-1.1406h0.34375c0.14062 0 0.40625 0 0.40625-0.29688 0-0.3125-0.26562-0.3125-0.40625-0.3125h-1.5312c-0.17188 0-0.40625 0-0.40625 0.3125 0 0.29688 0.25 0.29688 0.40625 0.29688h0.35938l-1.6094 1.5156v-3.5156c0-0.29688-0.0625-0.40625-0.40625-0.40625h-0.64062c-0.15625 0-0.40625 0-0.40625 0.29688 0 0.3125 0.25 0.3125 0.40625 0.3125h0.48438v4.875h-0.48438c-0.15625 0-0.40625 0-0.40625 0.29688 0 0.3125 0.25 0.3125 0.40625 0.3125h1.5312c0.15625 0 0.40625 0 0.40625-0.29688 0-0.3125-0.25-0.3125-0.40625-0.3125h-0.48438v-0.8125l0.79688-0.73438 1.1875 1.5469c-0.35938 0-0.5625 0-0.5625 0.3125 0 0.29688 0.25 0.29688 0.40625 0.29688h1.1719c0.15625 0 0.40625 0 0.40625-0.29688 0-0.3125-0.25-0.3125-0.40625-0.3125h-0.3125z"/>
</g>
<g id="n">
<path d="m3.1562-5.8281c-0.09375-0.375-0.23438-0.375-0.54688-0.375-0.28125 0-0.45312 0-0.53125 0.375l-1.2031 5.2188c-0.14062 0-0.375 0-0.4375 0.015625-0.10938 0.0625-0.17188 0.17188-0.17188 0.29688 0 0.29688 0.26562 0.29688 0.4375 0.29688h1.0156c0.17188 0 0.42188 0 0.42188-0.29688 0-0.3125-0.20312-0.3125-0.5625-0.3125l0.21875-1.0312h1.625l0.23438 1.0312c-0.35938 0-0.5625 0-0.5625 0.3125 0 0.29688 0.23438 0.29688 0.42188 0.29688h1.0156c0.15625 0 0.42188 0 0.42188-0.29688 0-0.125-0.046875-0.23438-0.17188-0.28125-0.0625-0.03125-0.28125-0.03125-0.42188-0.03125zm-0.54688 0.42188h0.015625l0.64062 3.1562h-1.3125z"/>
</g>
<g id="ab">
<path d="m2.8125-0.03125c-0.15625 0.625-0.625 0.78125-0.73438 0.8125s-0.28125 0.09375-0.28125 0.28125c0 0.15625 0.14062 0.32812 0.3125 0.32812 0.32812 0 1.3438-0.54688 1.3438-1.6406 0-0.60938-0.39062-1-0.82812-1-0.40625 0-0.625 0.29688-0.625 0.625 0 0.375 0.28125 0.625 0.60938 0.625 0.0625 0 0.125-0.015625 0.20312-0.03125z"/>
</g>
<g id="r">
<path d="m3.0781-3.8906c0-0.3125-0.0625-0.40625-0.39062-0.40625h-1.4219c-0.15625 0-0.40625 0-0.40625 0.29688 0 0.3125 0.25 0.3125 0.40625 0.3125h1.125v3.0781h-1.2031c-0.15625 0-0.40625 0-0.40625 0.3125 0 0.29688 0.25 0.29688 0.40625 0.29688h2.9375c0.15625 0 0.40625 0 0.40625-0.29688 0-0.3125-0.25-0.3125-0.40625-0.3125h-1.0469zm0-1.7188c0-0.26562-0.21875-0.48438-0.5-0.48438s-0.5 0.21875-0.5 0.48438c0 0.28125 0.21875 0.5 0.5 0.5s0.5-0.21875 0.5-0.5z"/>
</g>
<g id="aa">
<path d="m4.8281-5.7969c0-0.15625 0-0.40625-0.29688-0.40625-0.1875 0-0.23438 0.10938-0.28125 0.17188-0.015625 0.046875-0.015625 0.0625-0.15625 0.3125-0.32812-0.28125-0.78125-0.48438-1.2969-0.48438-1.2812 0-2.3906 1.3438-2.3906 3.1562 0 1.8281 1.1094 3.1562 2.4062 3.1562 1.1562 0 2.0156-0.89062 2.0156-1.7812 0-0.32812-0.25-0.32812-0.35938-0.32812-0.078125 0-0.3125 0-0.32812 0.28125-0.078125 0.98438-0.875 1.2188-1.2969 1.2188-0.90625 0-1.75-1.0625-1.75-2.5469s0.85938-2.5469 1.75-2.5469c0.59375 0 1.1406 0.45312 1.2812 1.2656 0.03125 0.17188 0.046875 0.32812 0.34375 0.32812 0.35938 0 0.35938-0.20312 0.35938-0.40625z"/>
</g>
<g id="z">
<path d="m2.75-3.5625 1.5156-1.9219c0.35938 0 0.5625 0 0.5625-0.3125 0-0.29688-0.26562-0.29688-0.40625-0.29688h-0.875c-0.14062 0-0.40625 0-0.40625 0.3125 0 0.29688 0.26562 0.29688 0.40625 0.29688l-2.0938 2.6562v-2.6562h0.21875c0.14062 0 0.40625 0 0.40625-0.29688 0-0.3125-0.25-0.3125-0.40625-0.3125h-1c-0.15625 0-0.40625 0-0.40625 0.29688 0 0.3125 0.25 0.3125 0.40625 0.3125h0.21875v4.875h-0.21875c-0.15625 0-0.40625 0-0.40625 0.29688 0 0.3125 0.25 0.3125 0.40625 0.3125h1c0.14062 0 0.40625 0 0.40625-0.29688 0-0.3125-0.25-0.3125-0.40625-0.3125h-0.21875v-1.3281l0.92188-1.1562 1.3906 2.4844c-0.14062 0-0.39062 0-0.39062 0.29688 0 0.3125 0.25 0.3125 0.40625 0.3125h0.75c0.14062 0 0.40625 0 0.40625-0.29688 0-0.3125-0.23438-0.3125-0.51562-0.3125-0.03125-0.03125-0.0625-0.09375-0.078125-0.125z"/>
</g>
<g id="q">
<path d="m1.5938-5.4844h1.25c0.84375 0 1.0625 0.625 1.0625 0.95312 0 0.40625-0.3125 1.0625-1.2812 1.0625h-1.0312zm1.9219 2.2969c0.64062-0.21875 1.0781-0.73438 1.0781-1.3594 0-0.73438-0.60938-1.5469-1.7188-1.5469h-2.25c-0.14062 0-0.39062 0-0.39062 0.29688 0 0.3125 0.25 0.3125 0.40625 0.3125h0.26562v4.875h-0.26562c-0.15625 0-0.40625 0-0.40625 0.3125 0 0.29688 0.25 0.29688 0.39062 0.29688h2.4531c1.125 0 1.7344-0.89062 1.7344-1.6719 0-0.6875-0.48438-1.3281-1.2969-1.5156zm-0.65625 2.5781h-1.2656v-2.25h1.375c0.84375 0 1.1406 0.71875 1.1406 1.1719 0 0.48438-0.375 1.0781-1.25 1.0781z"/>
</g>
<g id="y">
<path d="m4.2812-3.6875h0.29688c0.15625 0 0.40625 0 0.40625-0.29688 0-0.3125-0.23438-0.3125-0.40625-0.3125h-1.1562c-0.15625 0-0.40625 0-0.40625 0.29688 0 0.3125 0.25 0.3125 0.40625 0.3125h0.28125l-1.0938 3.2031-1.0781-3.2031h0.26562c0.15625 0 0.40625 0 0.40625-0.29688 0-0.3125-0.23438-0.3125-0.40625-0.3125h-1.1562c-0.15625 0-0.40625 0-0.40625 0.3125 0 0.29688 0.25 0.29688 0.40625 0.29688h0.29688l1.1406 3.3906c0.125 0.34375 0.32812 0.34375 0.53125 0.34375 0.1875 0 0.42188 0 0.53125-0.34375z"/>
</g>
<g id="aq">
<path d="m1.8906-5.7344c-0.10938-0.32812-0.26562-0.35938-0.53125-0.35938h-0.6875c-0.14062 0-0.39062 0-0.39062 0.29688 0 0.3125 0.23438 0.3125 0.39062 0.3125h0.25v4.875h-0.25c-0.14062 0-0.39062 0-0.39062 0.29688 0 0.3125 0.23438 0.3125 0.39062 0.3125h1.0625c0.15625 0 0.40625 0 0.40625-0.29688 0-0.3125-0.25-0.3125-0.40625-0.3125h-0.25v-4.7344h0.015625l1.8281 4.9844c0.125 0.34375 0.29688 0.35938 0.54688 0.35938 0.29688 0 0.42188-0.03125 0.42188-0.40625v-5.0781h0.25c0.14062 0 0.39062 0 0.39062-0.29688 0-0.3125-0.23438-0.3125-0.39062-0.3125h-1.0625c-0.15625 0-0.39062 0-0.39062 0.3125 0 0.29688 0.25 0.29688 0.39062 0.29688h0.25v4.7344z"/>
</g>
<clipPath id="bq">
<path d="m0.52734 107h78.473v85h-78.473z"/>
</clipPath>
<clipPath id="bp">
<path d="m171 181h12v11h-12z"/>
</clipPath>
<clipPath id="bo">
<path d="m0.52734 244.92h309v-245h-309zm173.9-59.898 0.25-0.31641 5.168 1.9531-1.9219 0.88281-0.44141 2.0781z" clip-rule="evenodd"/>
</clipPath>
<clipPath id="bn">
<path d="m49 244h65v0.92188h-65z"/>
</clipPath>
<clipPath id="bm">
<path d="m31 79h142v39h-142z"/>
</clipPath>
<clipPath id="bl">
<path d="m0.52734 244.92h309v-245h-309zm169.43-130.74-0.34375 0.28125-4.7266-2.832 2.0508-0.57031 0.78516-1.9531z" clip-rule="evenodd"/>
</clipPath>
<clipPath id="bk">
<path d="m31 181h142v39h-142z"/>
</clipPath>
<clipPath id="bj">
<path d="m0.52734 244.92h309v-245h-309zm34.137-59.93 0.34375-0.28516 4.7266 2.8359-2.0469 0.56641-0.78906 1.9531z" clip-rule="evenodd"/>
</clipPath>
</defs>
<path transform="matrix(.1 0 0 -.1 .528 244.92)" d="m2187.3 953.36c0-234.84-126.95-425.23-283.52-425.23s-283.48 190.39-283.48 425.23c0 234.88 126.91 425.27 283.48 425.27s283.52-190.39 283.52-425.27z" fill="none" stroke="#000" stroke-miterlimit="10" stroke-width="2.3625"/>
<path d="m205.08 149.59c0 19.57-15.867 35.438-35.438 35.438s-35.438-15.867-35.438-35.438c0-19.574 15.867-35.438 35.438-35.438s35.438 15.863 35.438 35.438" fill="#fff" fill-rule="evenodd"/>
<path transform="matrix(.1 0 0 -.1 .528 244.92)" d="m2045.5 953.36c0-195.7-158.67-354.38-354.38-354.38s-354.38 158.67-354.38 354.38c0 195.74 158.67 354.38 354.38 354.38s354.38-158.63 354.38-354.38z" fill="none" stroke="#000" stroke-miterlimit="10" stroke-width="4.725"/>
<g clip-path="url(#bq)">
<path transform="matrix(.1 0 0 -.1 .528 244.92)" d="m713.04 953.36c0-195.7-158.63-354.38-354.38-354.38-195.7 0-354.38 158.67-354.38 354.38 0 195.74 158.67 354.38 354.38 354.38 195.74 0 354.38-158.63 354.38-354.38z" fill="none" stroke="#000" stroke-miterlimit="10" stroke-width="4.725"/>
</g>
<path transform="matrix(.1 0 0 -.1 .528 244.92)" d="m1902.5 1236.9h2.5" fill="none" stroke="#000" stroke-miterlimit="10" stroke-width="2.3625"/>
<path transform="matrix(.1 0 0 -.1 .528 244.92)" d="m2115.1 953.36h2.5391" fill="none" stroke="#000" stroke-miterlimit="10" stroke-width="2.3625"/>
<g clip-path="url(#bp)">
<g clip-path="url(#bo)">
<path transform="matrix(.1 0 0 -.1 .528 244.92)" d="m1785 564.96-43.164 34.336" fill="none" stroke="#000" stroke-miterlimit="10" stroke-width="2.3625"/>
</g>
</g>
<path d="m179.85 186.66-4.8828-1.4492 2.5195 4.4102 0.44141-2.0781 1.9219-0.88281" fill-rule="evenodd"/>
<path transform="matrix(.1 0 0 -.1 .528 244.92)" d="m1793.2 582.62-48.828 14.492 25.195-44.102 4.4141 20.781z" fill="none" stroke="#000" stroke-miterlimit="10" stroke-width="2.3625"/>
<g clip-path="url(#bn)">
<path transform="matrix(.1 0 0 -.1 .528 244.92)" d="m486.24 3.6341h637.89" fill="none" stroke="#000" stroke-miterlimit="10" stroke-width="2.3625"/>
</g>
<path transform="matrix(.1 0 0 -.1 .528 244.92)" d="m557.14 2101.6h1346.6" fill="none" stroke="#000" stroke-miterlimit="10" stroke-width="2.3625"/>
<path transform="matrix(.1 0 0 -.1 .528 244.92)" d="m2258.1 953.36h708.75" fill="none" stroke="#000" stroke-miterlimit="10" stroke-width="2.3625"/>
<g clip-path="url(#bm)">
<g clip-path="url(#bl)">
<path transform="matrix(.1 0 0 -.1 .528 244.92)" d="m344.49 1307.8c167.5 198.2 413.83 312.54 673.32 312.54 259.49 0 505.82-114.34 673.32-312.54" fill="none" stroke="#000" stroke-miterlimit="10" stroke-width="2.3625"/>
</g>
</g>
<path d="m164.88 111.63 4.5391 2.2656-1.7031-4.7891-0.78516 1.9531-2.0508 0.57031" fill-rule="evenodd"/>
<path transform="matrix(.1 0 0 -.1 .528 244.92)" d="m1643.5 1332.9 45.391-22.656-17.031 47.891-7.8516-19.531z" fill="none" stroke="#000" stroke-miterlimit="10" stroke-width="2.3625"/>
<g clip-path="url(#bk)">
<g clip-path="url(#bj)">
<path transform="matrix(.1 0 0 -.1 .528 244.92)" d="m344.49 598.99c167.5-198.2 413.83-312.58 673.32-312.58 259.49 0 505.82 114.38 673.32 312.58" fill="none" stroke="#000" stroke-miterlimit="10" stroke-width="2.3625"/>
</g>
</g>
<path d="m39.734 187.54-4.5352-2.2695 1.6992 4.7891 0.78906-1.9531 2.0469-0.56641" fill-rule="evenodd"/>
<path transform="matrix(.1 0 0 -.1 .528 244.92)" d="m392.06 573.79-45.352 22.695 16.992-47.891 7.8906 19.531z" fill="none" stroke="#000" stroke-miterlimit="10" stroke-width="2.3625"/>
<g>
<use x="14.698" y="135.403" xlink:href="#ap"/>
<use x="24.110664" y="135.403" xlink:href="#v"/>
<use x="29.091964" y="135.403" xlink:href="#i"/>
<use x="32.994315" y="135.403" xlink:href="#ak"/>
<use x="36.86877" y="135.403" xlink:href="#l"/>
<use x="44.613695" y="135.403" xlink:href="#v"/>
<use x="49.594995" y="135.403" xlink:href="#p"/>
<use x="55.130216" y="135.403" xlink:href="#u"/>
<use x="8.181" y="147.687" xlink:href="#x"/>
<use x="15.65295" y="147.687" xlink:href="#p"/>
<use x="21.188171" y="147.687" xlink:href="#u"/>
<use x="24.232741" y="147.687" xlink:href="#i"/>
<use x="28.135092" y="147.687" xlink:href="#p"/>
<use x="33.670312" y="147.687" xlink:href="#u"/>
<use x="40.032428" y="147.687" xlink:href="#w"/>
<use x="45.567649" y="147.687" xlink:href="#p"/>
<use x="51.10287" y="147.687" xlink:href="#i"/>
<use x="55.00522" y="147.687" xlink:href="#bi"/>
<use x="59.153647" y="147.687" xlink:href="#bh"/>
<use x="20.095" y="159.971" xlink:href="#bg"/>
<use x="25.630221" y="159.971" xlink:href="#l"/>
<use x="30.0576" y="159.971" xlink:href="#bf"/>
<use x="35.592821" y="159.971" xlink:href="#w"/>
<use x="41.128041" y="159.971" xlink:href="#l"/>
<use x="45.555421" y="159.971" xlink:href="#i"/>
<use x="49.457771" y="159.971" xlink:href="#be"/>
<use x="20.87" y="172.256" xlink:href="#bd"/>
<use x="26.405221" y="172.256" xlink:href="#i"/>
<use x="30.307571" y="172.256" xlink:href="#ao"/>
<use x="35.288871" y="172.256" xlink:href="#bc"/>
<use x="39.71625" y="172.256" xlink:href="#l"/>
<use x="44.14363" y="172.256" xlink:href="#an"/>
<use x="48.072879" y="172.256" xlink:href="#an"/>
<use x="154.868" y="159.971" xlink:href="#bb"/>
<use x="162.33995" y="159.971" xlink:href="#x"/>
<use x="169.532947" y="159.971" xlink:href="#am"/>
<use x="176.727937" y="159.971" xlink:href="#al"/>
<use x="147.382" y="147.687" xlink:href="#x"/>
<use x="154.574997" y="147.687" xlink:href="#am"/>
<use x="161.769987" y="147.687" xlink:href="#al"/>
<use x="172.846406" y="147.687" xlink:href="#ao"/>
<use x="178.096696" y="147.687" xlink:href="#w"/>
<use x="183.631916" y="147.687" xlink:href="#l"/>
<use x="188.059296" y="147.687" xlink:href="#i"/>
<use x="147.935" y="135.403" xlink:href="#ap"/>
<use x="157.347664" y="135.403" xlink:href="#v"/>
<use x="162.328964" y="135.403" xlink:href="#i"/>
<use x="166.231315" y="135.403" xlink:href="#ak"/>
<use x="170.10577" y="135.403" xlink:href="#l"/>
<use x="177.850695" y="135.403" xlink:href="#v"/>
<use x="182.831995" y="135.403" xlink:href="#p"/>
<use x="188.367216" y="135.403" xlink:href="#u"/>
<use x="219.283" y="9.253" xlink:href="#ba"/>
<use x="228.058117" y="9.253" xlink:href="#ah"/>
<use x="235.207326" y="9.253" xlink:href="#au"/>
<use x="239.824425" y="9.253" xlink:href="#k"/>
<use x="245.027328" y="9.253" xlink:href="#at"/>
<use x="251.530956" y="9.253" xlink:href="#as"/>
<use x="258.034585" y="9.253" xlink:href="#ag"/>
<use x="261.936763" y="9.253" xlink:href="#af"/>
<use x="269.578526" y="9.253" xlink:href="#ae"/>
<use x="275.431792" y="9.253" xlink:href="#aj"/>
<use x="281.287449" y="9.253" xlink:href="#k"/>
<use x="286.490352" y="9.253" xlink:href="#ai"/>
<use x="219.283" y="21.537" xlink:href="#az"/>
<use x="227.572736" y="21.537" xlink:href="#ah"/>
<use x="234.721945" y="21.537" xlink:href="#ay"/>
<use x="239.274485" y="21.537" xlink:href="#k"/>
<use x="244.477388" y="21.537" xlink:href="#ax"/>
<use x="249.680292" y="21.537" xlink:href="#k"/>
<use x="254.883195" y="21.537" xlink:href="#aw"/>
<use x="258.135009" y="21.537" xlink:href="#av"/>
<use x="263.990666" y="21.537" xlink:href="#k"/>
<use x="269.193569" y="21.537" xlink:href="#ag"/>
<use x="273.095746" y="21.537" xlink:href="#af"/>
<use x="280.73751" y="21.537" xlink:href="#ae"/>
<use x="286.590776" y="21.537" xlink:href="#aj"/>
<use x="292.446433" y="21.537" xlink:href="#k"/>
<use x="297.649336" y="21.537" xlink:href="#ai"/>
<use x="56.28" y="30.514" xlink:href="#o"/>
<use x="61.510365" y="30.514" xlink:href="#b"/>
<use x="66.74073" y="30.514" xlink:href="#c"/>
</g>
<path transform="matrix(1 0 0 -1 72.599 30.315)" d="m-0.0013438-0.0014062h3.1406" fill="none" stroke="#000" stroke-miterlimit="10" stroke-width=".398"/>
<g>
<use x="75.737" y="30.514" xlink:href="#f"/>
<use x="80.967365" y="30.514" xlink:href="#a"/>
<use x="86.19773" y="30.514" xlink:href="#m"/>
<use x="91.428095" y="30.514" xlink:href="#b"/>
<use x="96.65846" y="30.514" xlink:href="#e"/>
<use x="101.888825" y="30.514" xlink:href="#b"/>
<use x="107.11919" y="30.514" xlink:href="#j"/>
<use x="112.349555" y="30.514" xlink:href="#c"/>
<use x="117.57992" y="30.514" xlink:href="#j"/>
<use x="122.810285" y="30.514" xlink:href="#d"/>
<use x="56.28" y="46.106" xlink:href="#h"/>
<use x="61.510365" y="46.106" xlink:href="#ar"/>
<use x="66.74073" y="46.106" xlink:href="#t"/>
<use x="71.971095" y="46.106" xlink:href="#ad"/>
<use x="77.20146" y="46.106" xlink:href="#g"/>
<use x="82.431825" y="46.106" xlink:href="#c"/>
<use x="87.66219" y="46.106" xlink:href="#a"/>
<use x="98.12292" y="46.106" xlink:href="#h"/>
<use x="103.353285" y="46.106" xlink:href="#ac"/>
<use x="108.58365" y="46.106" xlink:href="#a"/>
<use x="113.814015" y="46.106" xlink:href="#h"/>
<use x="119.04438" y="46.106" xlink:href="#s"/>
<use x="124.274745" y="46.106" xlink:href="#f"/>
<use x="129.50511" y="46.106" xlink:href="#g"/>
<use x="134.735475" y="46.106" xlink:href="#t"/>
<use x="56.28" y="58.39" xlink:href="#t"/>
<use x="61.510365" y="58.39" xlink:href="#j"/>
<use x="66.74073" y="58.39" xlink:href="#s"/>
<use x="71.971095" y="58.39" xlink:href="#a"/>
</g>
<path transform="matrix(1 0 0 -1 77.829 58.191)" d="m-8.75e-4 -4.0625e-4h3.1406" fill="none" stroke="#000" stroke-miterlimit="10" stroke-width=".398"/>
<g>
<use x="80.967" y="58.39" xlink:href="#ad"/>
<use x="86.197365" y="58.39" xlink:href="#j"/>
<use x="91.42773" y="58.39" xlink:href="#s"/>
<use x="96.658095" y="58.39" xlink:href="#a"/>
<use x="101.88846" y="58.39" xlink:href="#c"/>
<use x="107.118825" y="58.39" xlink:href="#e"/>
<use x="112.34919" y="58.39" xlink:href="#n"/>
<use x="117.579555" y="58.39" xlink:href="#ab"/>
<use x="122.80992" y="58.39" xlink:href="#b"/>
<use x="128.040285" y="58.39" xlink:href="#j"/>
<use x="133.27065" y="58.39" xlink:href="#c"/>
<use x="138.501015" y="58.39" xlink:href="#j"/>
<use x="143.73138" y="58.39" xlink:href="#ab"/>
<use x="148.961745" y="58.39" xlink:href="#h"/>
<use x="154.19211" y="58.39" xlink:href="#ac"/>
<use x="159.422475" y="58.39" xlink:href="#a"/>
<use x="164.65284" y="58.39" xlink:href="#h"/>
<use x="169.883205" y="58.39" xlink:href="#s"/>
<use x="175.11357" y="58.39" xlink:href="#f"/>
<use x="180.343935" y="58.39" xlink:href="#g"/>
<use x="185.5743" y="58.39" xlink:href="#t"/>
<use x="190.804665" y="58.39" xlink:href="#d"/>
<use x="56.28" y="70.202" xlink:href="#g"/>
<use x="61.510365" y="70.202" xlink:href="#b"/>
<use x="66.74073" y="70.202" xlink:href="#c"/>
</g>
<path transform="matrix(1 0 0 -1 72.599 70.003)" d="m-0.0013438-9.0625e-4h3.1406" fill="none" stroke="#000" stroke-miterlimit="10" stroke-width=".398"/>
<g>
<use x="75.737" y="70.202" xlink:href="#f"/>
<use x="80.967365" y="70.202" xlink:href="#a"/>
<use x="86.19773" y="70.202" xlink:href="#m"/>
<use x="91.428095" y="70.202" xlink:href="#b"/>
<use x="96.65846" y="70.202" xlink:href="#e"/>
<use x="101.888825" y="70.202" xlink:href="#n"/>
<use x="107.11919" y="70.202" xlink:href="#d"/>
<use x="49.193" y="241.236" xlink:href="#g"/>
<use x="54.423365" y="241.236" xlink:href="#m"/>
<use x="59.65373" y="241.236" xlink:href="#b"/>
<use x="70.11446" y="241.236" xlink:href="#r"/>
<use x="75.344825" y="241.236" xlink:href="#f"/>
<use x="80.57519" y="241.236" xlink:href="#n"/>
<use x="85.805555" y="241.236" xlink:href="#aa"/>
<use x="91.03592" y="241.236" xlink:href="#z"/>
<use x="96.266285" y="241.236" xlink:href="#e"/>
<use x="101.49665" y="241.236" xlink:href="#q"/>
<use x="106.727015" y="241.236" xlink:href="#d"/>
<use x="226.37" y="133.985" xlink:href="#o"/>
<use x="231.600365" y="133.985" xlink:href="#b"/>
<use x="236.83073" y="133.985" xlink:href="#c"/>
</g>
<path transform="matrix(1 0 0 -1 242.69 133.79)" d="m-5e-4 8.4375e-4h3.1367" fill="none" stroke="#000" stroke-miterlimit="10" stroke-width=".398"/>
<g>
<use x="245.827" y="133.985" xlink:href="#o"/>
<use x="251.057365" y="133.985" xlink:href="#a"/>
<use x="256.28773" y="133.985" xlink:href="#h"/>
<use x="261.518095" y="133.985" xlink:href="#a"/>
<use x="266.74846" y="133.985" xlink:href="#r"/>
<use x="271.978825" y="133.985" xlink:href="#y"/>
<use x="277.20919" y="133.985" xlink:href="#a"/>
<use x="282.439555" y="133.985" xlink:href="#e"/>
<use x="287.66992" y="133.985" xlink:href="#q"/>
<use x="292.900285" y="133.985" xlink:href="#d"/>
<use x="226.37" y="146.27" xlink:href="#g"/>
<use x="231.600365" y="146.27" xlink:href="#m"/>
<use x="236.83073" y="146.27" xlink:href="#b"/>
<use x="247.29146" y="146.27" xlink:href="#r"/>
<use x="252.521825" y="146.27" xlink:href="#f"/>
<use x="257.75219" y="146.27" xlink:href="#aq"/>
<use x="262.982555" y="146.27" xlink:href="#n"/>
<use x="268.21292" y="146.27" xlink:href="#aa"/>
<use x="273.443285" y="146.27" xlink:href="#z"/>
<use x="278.67365" y="146.27" xlink:href="#e"/>
<use x="283.904015" y="146.27" xlink:href="#q"/>
<use x="289.13438" y="146.27" xlink:href="#d"/>
<use x="226.37" y="160.916" xlink:href="#g"/>
<use x="231.600365" y="160.916" xlink:href="#b"/>
<use x="236.83073" y="160.916" xlink:href="#c"/>
</g>
<path transform="matrix(1 0 0 -1 242.69 160.72)" d="m-5e-4 -0.00175h3.1367" fill="none" stroke="#000" stroke-miterlimit="10" stroke-width=".398"/>
<g>
<use x="245.827" y="160.916" xlink:href="#f"/>
<use x="251.057365" y="160.916" xlink:href="#a"/>
<use x="256.28773" y="160.916" xlink:href="#m"/>
<use x="261.518095" y="160.916" xlink:href="#b"/>
<use x="266.74846" y="160.916" xlink:href="#e"/>
<use x="271.978825" y="160.916" xlink:href="#n"/>
<use x="277.20919" y="160.916" xlink:href="#d"/>
<use x="49.193" y="228.952" xlink:href="#o"/>
<use x="54.423365" y="228.952" xlink:href="#b"/>
<use x="59.65373" y="228.952" xlink:href="#c"/>
</g>
<path transform="matrix(1 0 0 -1 65.512 228.75)" d="m-2.8125e-4 -9.0625e-4h3.1367" fill="none" stroke="#000" stroke-miterlimit="10" stroke-width=".398"/>
<g>
<use x="68.65" y="228.952" xlink:href="#o"/>
<use x="73.880365" y="228.952" xlink:href="#a"/>
<use x="79.11073" y="228.952" xlink:href="#h"/>
<use x="84.341095" y="228.952" xlink:href="#a"/>
<use x="89.57146" y="228.952" xlink:href="#r"/>
<use x="94.801825" y="228.952" xlink:href="#y"/>
<use x="100.03219" y="228.952" xlink:href="#a"/>
<use x="105.262555" y="228.952" xlink:href="#e"/>
<use x="110.49292" y="228.952" xlink:href="#q"/>
<use x="115.723285" y="228.952" xlink:href="#d"/>
</g>
</svg>
