<svg width="386pt" height="398pt" version="1.1" viewBox="0 0 386 398" xmlns="http://www.w3.org/2000/svg" xmlns:xlink="http://www.w3.org/1999/xlink">
<defs>
<g id="g">
<path d="m3.5625-0.3125c0.015625 0.3125 0.21875 0.3125 0.40625 0.3125h0.71875c0.17188 0 0.42188 0 0.42188-0.3125 0-0.29688-0.26562-0.29688-0.40625-0.29688h-0.45312v-3.2812c0-0.3125-0.046875-0.40625-0.39062-0.40625h-0.73438c-0.15625 0-0.40625 0-0.40625 0.3125 0 0.29688 0.26562 0.29688 0.40625 0.29688h0.4375v2.125c0 0.89062-0.79688 1.0156-1.125 1.0156-0.78125 0-0.78125-0.32812-0.78125-0.65625v-2.6875c0-0.3125-0.0625-0.40625-0.40625-0.40625h-0.71875c-0.15625 0-0.40625 0-0.40625 0.3125 0 0.29688 0.25 0.29688 0.39062 0.29688h0.45312v2.5469c0 0.96875 0.6875 1.2031 1.4062 1.2031 0.42188 0 0.82812-0.10938 1.1875-0.375z"/>
</g>
<g id="m">
<path d="m1.6562-3.8281c0-0.3125 0-0.46875-0.40625-0.46875h-0.71875c-0.15625 0-0.40625 0-0.40625 0.3125 0 0.29688 0.25 0.29688 0.39062 0.29688h0.45312v3.0781h-0.4375c-0.15625 0-0.40625 0-0.40625 0.3125 0 0.29688 0.25 0.29688 0.39062 0.29688h1.5938c0.14062 0 0.39062 0 0.39062-0.29688 0-0.3125-0.25-0.3125-0.40625-0.3125h-0.4375v-1.7656c0-1 0.73438-1.375 1.25-1.375s0.65625 0.28125 0.65625 0.875v2.2656h-0.375c-0.17188 0-0.42188 0-0.42188 0.3125 0 0.29688 0.28125 0.29688 0.42188 0.29688h1.5156c0.14062 0 0.40625 0 0.40625-0.29688 0-0.3125-0.25-0.3125-0.42188-0.3125h-0.4375v-2.3125c0-1-0.5-1.4375-1.2969-1.4375-0.65625 0-1.1094 0.34375-1.2969 0.53125z"/>
</g>
<g id="d">
<path d="m3.5625-0.5c0 0.35938 0 0.5 0.40625 0.5h0.71875c0.17188 0 0.42188 0 0.42188-0.3125 0-0.29688-0.26562-0.29688-0.40625-0.29688h-0.45312v-5.0781c0-0.29688-0.046875-0.40625-0.39062-0.40625h-0.73438c-0.15625 0-0.40625 0-0.40625 0.3125 0 0.29688 0.26562 0.29688 0.40625 0.29688h0.4375v1.5781c-0.32812-0.29688-0.73438-0.45312-1.1562-0.45312-1.0938 0-2.0469 0.95312-2.0469 2.2188 0 1.2344 0.89062 2.2031 1.9531 2.2031 0.5625 0 0.98438-0.26562 1.25-0.5625zm0-2.1406v0.70312c0 0.5625-0.4375 1.3906-1.2031 1.3906-0.71875 0-1.3125-0.70312-1.3125-1.5938 0-0.95312 0.70312-1.6094 1.3906-1.6094 0.64062 0 1.125 0.5625 1.125 1.1094z"/>
</g>
<g id="j">
<path d="m3.0781-3.8906c0-0.3125-0.0625-0.40625-0.39062-0.40625h-1.4219c-0.15625 0-0.40625 0-0.40625 0.29688 0 0.3125 0.25 0.3125 0.40625 0.3125h1.125v3.0781h-1.2031c-0.15625 0-0.40625 0-0.40625 0.3125 0 0.29688 0.25 0.29688 0.40625 0.29688h2.9375c0.15625 0 0.40625 0 0.40625-0.29688 0-0.3125-0.25-0.3125-0.40625-0.3125h-1.0469zm0-1.7188c0-0.26562-0.21875-0.48438-0.5-0.48438s-0.5 0.21875-0.5 0.48438c0 0.28125 0.21875 0.5 0.5 0.5s0.5-0.21875 0.5-0.5z"/>
</g>
<g id="h">
<path d="m2.9688-2.5469c-0.23438-0.03125-0.42188-0.0625-0.67188-0.10938-0.29688-0.046875-0.96875-0.17188-0.96875-0.54688 0-0.26562 0.3125-0.57812 1.2656-0.57812 0.82812 0 0.96875 0.29688 1 0.5625 0 0.17188 0.03125 0.34375 0.32812 0.34375 0.35938 0 0.35938-0.21875 0.35938-0.42188v-0.6875c0-0.15625 0-0.40625-0.29688-0.40625-0.25 0-0.28125 0.14062-0.3125 0.21875-0.4375-0.21875-0.875-0.21875-1.0625-0.21875-1.6562 0-1.8906 0.82812-1.8906 1.1875 0 0.90625 1.0469 1.0781 1.9688 1.2188 0.48438 0.078125 1.2812 0.20312 1.2812 0.73438 0 0.375-0.375 0.70312-1.2812 0.70312-0.46875 0-1.0156-0.10938-1.2656-0.89062-0.0625-0.17188-0.09375-0.28125-0.35938-0.28125-0.34375 0-0.34375 0.20312-0.34375 0.40625v0.96875c0 0.15625 0 0.40625 0.29688 0.40625 0.09375 0 0.25-0.015625 0.375-0.375 0.48438 0.35938 1.0156 0.375 1.2969 0.375 1.5625 0 1.8906-0.82812 1.8906-1.3125 0-1.0312-1.2812-1.25-1.6094-1.2969z"/>
</g>
<g id="s">
<path d="m3.1562-5.8281c-0.09375-0.375-0.23438-0.375-0.54688-0.375-0.28125 0-0.45312 0-0.53125 0.375l-1.2031 5.2188c-0.14062 0-0.375 0-0.4375 0.015625-0.10938 0.0625-0.17188 0.17188-0.17188 0.29688 0 0.29688 0.26562 0.29688 0.4375 0.29688h1.0156c0.17188 0 0.42188 0 0.42188-0.29688 0-0.3125-0.20312-0.3125-0.5625-0.3125l0.21875-1.0312h1.625l0.23438 1.0312c-0.35938 0-0.5625 0-0.5625 0.3125 0 0.29688 0.23438 0.29688 0.42188 0.29688h1.0156c0.15625 0 0.42188 0 0.42188-0.29688 0-0.125-0.046875-0.23438-0.17188-0.28125-0.0625-0.03125-0.28125-0.03125-0.42188-0.03125zm-0.54688 0.42188h0.015625l0.64062 3.1562h-1.3125z"/>
</g>
<g id="ag">
<path d="m4.8281-5.7969c0-0.15625 0-0.40625-0.29688-0.40625-0.1875 0-0.23438 0.10938-0.28125 0.17188-0.015625 0.046875-0.015625 0.0625-0.15625 0.3125-0.32812-0.28125-0.78125-0.48438-1.2969-0.48438-1.2812 0-2.3906 1.3438-2.3906 3.1562 0 1.8281 1.1094 3.1562 2.4062 3.1562 1.1562 0 2.0156-0.89062 2.0156-1.7812 0-0.32812-0.25-0.32812-0.35938-0.32812-0.078125 0-0.3125 0-0.32812 0.28125-0.078125 0.98438-0.875 1.2188-1.2969 1.2188-0.90625 0-1.75-1.0625-1.75-2.5469s0.85938-2.5469 1.75-2.5469c0.59375 0 1.1406 0.45312 1.2812 1.2656 0.03125 0.17188 0.046875 0.32812 0.34375 0.32812 0.35938 0 0.35938-0.20312 0.35938-0.40625z"/>
</g>
<g id="af">
<path d="m2.75-3.5625 1.5156-1.9219c0.35938 0 0.5625 0 0.5625-0.3125 0-0.29688-0.26562-0.29688-0.40625-0.29688h-0.875c-0.14062 0-0.40625 0-0.40625 0.3125 0 0.29688 0.26562 0.29688 0.40625 0.29688l-2.0938 2.6562v-2.6562h0.21875c0.14062 0 0.40625 0 0.40625-0.29688 0-0.3125-0.25-0.3125-0.40625-0.3125h-1c-0.15625 0-0.40625 0-0.40625 0.29688 0 0.3125 0.25 0.3125 0.40625 0.3125h0.21875v4.875h-0.21875c-0.15625 0-0.40625 0-0.40625 0.29688 0 0.3125 0.25 0.3125 0.40625 0.3125h1c0.14062 0 0.40625 0 0.40625-0.29688 0-0.3125-0.25-0.3125-0.40625-0.3125h-0.21875v-1.3281l0.92188-1.1562 1.3906 2.4844c-0.14062 0-0.39062 0-0.39062 0.29688 0 0.3125 0.25 0.3125 0.40625 0.3125h0.75c0.14062 0 0.40625 0 0.40625-0.29688 0-0.3125-0.23438-0.3125-0.51562-0.3125-0.03125-0.03125-0.0625-0.09375-0.078125-0.125z"/>
</g>
<g id="e">
<path d="m4.3594 0.53125c0-0.14062-0.078125-0.1875-0.25-0.29688-1.2344-0.84375-1.7031-2.1719-1.7031-3.2812 0-1 0.39062-2.3906 1.7188-3.2969 0.15625-0.10938 0.23438-0.14062 0.23438-0.29688 0-0.078125-0.046875-0.28125-0.3125-0.28125-0.28125 0-2.3281 1.3125-2.3281 3.875 0 1.1875 0.46875 2.0781 0.8125 2.5781 0.53125 0.73438 1.2812 1.2812 1.5156 1.2812 0.26562 0 0.3125-0.1875 0.3125-0.28125z"/>
</g>
<g id="o">
<path d="m1.5938-5.4844h1.25c0.84375 0 1.0625 0.625 1.0625 0.95312 0 0.40625-0.3125 1.0625-1.2812 1.0625h-1.0312zm1.9219 2.2969c0.64062-0.21875 1.0781-0.73438 1.0781-1.3594 0-0.73438-0.60938-1.5469-1.7188-1.5469h-2.25c-0.14062 0-0.39062 0-0.39062 0.29688 0 0.3125 0.25 0.3125 0.40625 0.3125h0.26562v4.875h-0.26562c-0.15625 0-0.40625 0-0.40625 0.3125 0 0.29688 0.25 0.29688 0.39062 0.29688h2.4531c1.125 0 1.7344-0.89062 1.7344-1.6719 0-0.6875-0.48438-1.3281-1.2969-1.5156zm-0.65625 2.5781h-1.2656v-2.25h1.375c0.84375 0 1.1406 0.71875 1.1406 1.1719 0 0.48438-0.375 1.0781-1.25 1.0781z"/>
</g>
<g id="u">
<path d="m2.8125-0.03125c-0.15625 0.625-0.625 0.78125-0.73438 0.8125s-0.28125 0.09375-0.28125 0.28125c0 0.15625 0.14062 0.32812 0.3125 0.32812 0.32812 0 1.3438-0.54688 1.3438-1.6406 0-0.60938-0.39062-1-0.82812-1-0.40625 0-0.625 0.29688-0.625 0.625 0 0.375 0.28125 0.625 0.60938 0.625 0.0625 0 0.125-0.015625 0.20312-0.03125z"/>
</g>
<g id="aj">
<path d="m3.0938-5.7969c0-0.15625 0-0.40625-0.29688-0.40625-0.1875 0-0.25 0.125-0.29688 0.23438-0.375 0.85938-0.89062 0.96875-1.0781 0.98438-0.17188 0.015625-0.375 0.03125-0.375 0.3125 0 0.25 0.17188 0.29688 0.32812 0.29688 0.1875 0 0.59375-0.0625 1.0312-0.4375v4.2031h-0.90625c-0.15625 0-0.39062 0-0.39062 0.3125 0 0.29688 0.25 0.29688 0.39062 0.29688h2.5c0.15625 0 0.40625 0 0.40625-0.29688 0-0.3125-0.23438-0.3125-0.40625-0.3125h-0.90625z"/>
</g>
<g id="f">
<path d="m3.5156-3.0469c0-1.1875-0.46875-2.0938-0.8125-2.5781-0.53125-0.73438-1.2812-1.2969-1.5156-1.2969-0.25 0-0.3125 0.20312-0.3125 0.28125 0 0.15625 0.10938 0.21875 0.15625 0.25 1.6406 1.0938 1.7969 2.6875 1.7969 3.3438 0 1-0.375 2.375-1.7188 3.2812-0.15625 0.10938-0.23438 0.15625-0.23438 0.29688 0 0.09375 0.0625 0.28125 0.3125 0.28125 0.28125 0 2.3281-1.3125 2.3281-3.8594z"/>
</g>
<g id="a">
<path d="m2.2188-3.6875h1.625c0.15625 0 0.40625 0 0.40625-0.29688 0-0.3125-0.25-0.3125-0.40625-0.3125h-1.625v-0.8125c0-0.1875 0-0.40625-0.34375-0.40625s-0.34375 0.20312-0.34375 0.40625v0.8125h-0.875c-0.15625 0-0.40625 0-0.40625 0.3125 0 0.29688 0.25 0.29688 0.39062 0.29688h0.89062v2.4375c0 0.95312 0.67188 1.3125 1.4062 1.3125s1.5312-0.4375 1.5312-1.3125c0-0.1875 0-0.39062-0.34375-0.39062-0.32812 0-0.34375 0.20312-0.34375 0.375 0 0.625-0.57812 0.71875-0.79688 0.71875-0.76562 0-0.76562-0.51562-0.76562-0.76562z"/>
</g>
<g id="n">
<path d="m4.6562-2.1562c0-1.25-0.92188-2.2344-2.0469-2.2344-1.1094 0-2.0469 0.98438-2.0469 2.2344 0 1.2656 0.95312 2.2188 2.0469 2.2188s2.0469-0.95312 2.0469-2.2188zm-2.0469 1.6094c-0.73438 0-1.3594-0.75-1.3594-1.6719 0-0.90625 0.65625-1.5625 1.3594-1.5625 0.71875 0 1.3594 0.65625 1.3594 1.5625 0 0.92188-0.625 1.6719-1.3594 1.6719z"/>
</g>
<g id="t">
<path d="m1.6562-2.625c0-0.59375 0.57812-1.125 1.2031-1.125 0.73438 0 1.3125 0.73438 1.3125 1.5938 0 0.95312-0.6875 1.6094-1.3906 1.6094-0.78125 0-1.125-0.875-1.125-1.3594zm0 2.1719c0.40625 0.42188 0.84375 0.51562 1.1562 0.51562 1.0781 0 2.0469-0.95312 2.0469-2.2188 0-1.2188-0.875-2.2031-1.9375-2.2031-0.48438 0-0.92188 0.1875-1.2656 0.48438 0-0.28125-0.015625-0.42188-0.40625-0.42188h-0.71875c-0.15625 0-0.40625 0-0.40625 0.3125 0 0.29688 0.25 0.29688 0.39062 0.29688h0.45312v5.2969h-0.4375c-0.15625 0-0.40625 0-0.40625 0.29688 0 0.3125 0.25 0.3125 0.39062 0.3125h1.5938c0.14062 0 0.39062 0 0.39062-0.3125 0-0.29688-0.25-0.29688-0.40625-0.29688h-0.4375z"/>
</g>
<g id="l">
<path d="m1.0938-4c-0.03125-0.29688-0.21875-0.29688-0.40625-0.29688h-0.3125c-0.15625 0-0.42188 0-0.42188 0.29688 0 0.3125 0.21875 0.3125 0.57812 0.3125v3.0781c-0.35938 0-0.57812 0-0.57812 0.3125 0 0.29688 0.28125 0.29688 0.42188 0.29688h0.875c0.14062 0 0.40625 0 0.40625-0.29688 0-0.3125-0.20312-0.3125-0.5625-0.3125v-1.7812c0-0.89062 0.40625-1.3594 0.8125-1.3594 0.23438 0 0.35938 0.17188 0.35938 0.8125v2.3281c-0.1875 0-0.4375 0-0.4375 0.3125 0 0.29688 0.28125 0.29688 0.42188 0.29688h0.73438c0.15625 0 0.42188 0 0.42188-0.29688 0-0.3125-0.21875-0.3125-0.57812-0.3125v-1.7812c0-0.89062 0.40625-1.3594 0.82812-1.3594 0.21875 0 0.35938 0.17188 0.35938 0.8125v2.3281c-0.1875 0-0.4375 0-0.4375 0.3125 0 0.29688 0.26562 0.29688 0.40625 0.29688h0.75c0.15625 0 0.40625 0 0.40625-0.29688 0-0.3125-0.20312-0.3125-0.5625-0.3125v-2.4062c0-0.20312 0-1.3438-0.89062-1.3438-0.29688 0-0.70312 0.125-0.98438 0.51562-0.15625-0.32812-0.4375-0.51562-0.76562-0.51562-0.3125 0-0.60938 0.14062-0.84375 0.35938z"/>
</g>
<g id="b">
<path d="m4.2344-1.9062c0.20312 0 0.39062 0 0.39062-0.35938 0-1.1406-0.64062-2.125-1.9375-2.125-1.1875 0-2.1406 1-2.1406 2.2344 0 1.2031 1.0156 2.2188 2.2969 2.2188 1.3125 0 1.7812-0.90625 1.7812-1.1562 0-0.26562-0.28125-0.26562-0.34375-0.26562-0.1875 0-0.26562 0.03125-0.32812 0.21875-0.21875 0.5-0.76562 0.59375-1.0469 0.59375-0.75 0-1.4844-0.5-1.6562-1.3594zm-2.9688-0.59375c0.14062-0.73438 0.73438-1.2812 1.4219-1.2812 0.51562 0 1.1406 0.25 1.2344 1.2812z"/>
</g>
<g id="c">
<path d="m2.2188-1.8594c0-0.9375 0.57812-1.8906 1.7812-1.8906 0.015625 0.23438 0.1875 0.4375 0.4375 0.4375 0.21875 0 0.42188-0.15625 0.42188-0.42188 0-0.20312-0.125-0.625-0.95312-0.625-0.5 0-1.1406 0.1875-1.6875 0.8125v-0.34375c0-0.3125-0.0625-0.40625-0.40625-0.40625h-1.0938c-0.15625 0-0.40625 0-0.40625 0.29688 0 0.3125 0.25 0.3125 0.40625 0.3125h0.8125v3.0781h-0.8125c-0.15625 0-0.40625 0-0.40625 0.29688 0 0.3125 0.25 0.3125 0.40625 0.3125h2.5938c0.15625 0 0.42188 0 0.42188-0.29688 0-0.3125-0.26562-0.3125-0.42188-0.3125h-1.0938z"/>
</g>
<g id="i">
<path d="m4.6406-1.0938c0-0.26562-0.28125-0.26562-0.34375-0.26562-0.15625 0-0.26562 0.015625-0.32812 0.21875-0.0625 0.125-0.25 0.59375-0.98438 0.59375-0.84375 0-1.5625-0.70312-1.5625-1.6094 0-0.46875 0.26562-1.625 1.625-1.625 0.20312 0 0.59375 0 0.59375 0.09375 0.015625 0.34375 0.20312 0.48438 0.4375 0.48438s0.45312-0.17188 0.45312-0.45312c0-0.73438-1.0469-0.73438-1.4844-0.73438-1.7188 0-2.3125 1.3594-2.3125 2.2344 0 1.2031 0.9375 2.2188 2.1875 2.2188 1.3906 0 1.7188-0.98438 1.7188-1.1562z"/>
</g>
<g id="ai">
<path d="m4.7188-3.0469c0-1.8438-1.0156-3.1562-2.1094-3.1562-1.1094 0-2.1094 1.3438-2.1094 3.1562 0 1.8438 1.0156 3.1562 2.1094 3.1562 1.125 0 2.1094-1.3281 2.1094-3.1562zm-2.1094 2.5469c-0.78125 0-1.4219-1.1719-1.4219-2.6562 0-1.4531 0.6875-2.4375 1.4219-2.4375s1.4219 0.98438 1.4219 2.4375c0 1.4844-0.64062 2.6562-1.4219 2.6562z"/>
</g>
<g id="z">
<path d="m4.2812-3.6875h0.29688c0.15625 0 0.40625 0 0.40625-0.29688 0-0.3125-0.23438-0.3125-0.40625-0.3125h-1.1562c-0.15625 0-0.40625 0-0.40625 0.29688 0 0.3125 0.25 0.3125 0.40625 0.3125h0.28125l-1.0938 3.2031-1.0781-3.2031h0.26562c0.15625 0 0.40625 0 0.40625-0.29688 0-0.3125-0.23438-0.3125-0.40625-0.3125h-1.1562c-0.15625 0-0.40625 0-0.40625 0.3125 0 0.29688 0.25 0.29688 0.40625 0.29688h0.29688l1.1406 3.3906c0.125 0.34375 0.32812 0.34375 0.53125 0.34375 0.1875 0 0.42188 0 0.53125-0.34375z"/>
</g>
<g id="k">
<path d="m3.6562-0.3125c0.21875 0.29688 0.6875 0.3125 1.0625 0.3125 0.28125 0 0.5 0 0.5-0.3125 0-0.29688-0.25-0.29688-0.39062-0.29688-0.42188 0-0.51562-0.046875-0.59375-0.078125v-2.1562c0-0.70312-0.54688-1.5469-1.9844-1.5469-0.42188 0-1.4375 0-1.4375 0.73438 0 0.29688 0.20312 0.45312 0.4375 0.45312 0.15625 0 0.4375-0.09375 0.4375-0.45312 0-0.078125 0.015625-0.09375 0.21875-0.10938 0.14062-0.015625 0.26562-0.015625 0.35938-0.015625 0.75 0 1.2656 0.3125 1.2656 1.0156-1.75 0.03125-2.9844 0.53125-2.9844 1.4844 0 0.6875 0.625 1.3438 1.6406 1.3438 0.375 0 1-0.078125 1.4688-0.375zm-0.125-1.8594v0.84375c0 0.21875 0 0.4375-0.375 0.60938-0.35938 0.17188-0.8125 0.17188-0.89062 0.17188-0.625 0-1.0312-0.34375-1.0312-0.73438 0-0.48438 0.85938-0.85938 2.2969-0.89062z"/>
</g>
<g id="ah">
<path d="m4.25-2.9219c0-1-0.5-1.4375-1.2969-1.4375-0.65625 0-1.1094 0.34375-1.2969 0.53125v-1.8594c0-0.29688-0.0625-0.40625-0.40625-0.40625h-0.71875c-0.15625 0-0.40625 0-0.40625 0.3125 0 0.29688 0.25 0.29688 0.39062 0.29688h0.45312v4.875h-0.4375c-0.15625 0-0.40625 0-0.40625 0.3125 0 0.29688 0.25 0.29688 0.39062 0.29688h1.5938c0.14062 0 0.39062 0 0.39062-0.29688 0-0.3125-0.25-0.3125-0.40625-0.3125h-0.4375v-1.7656c0-1 0.73438-1.375 1.25-1.375s0.65625 0.28125 0.65625 0.875v2.2656h-0.375c-0.17188 0-0.42188 0-0.42188 0.3125 0 0.29688 0.28125 0.29688 0.42188 0.29688h1.5156c0.14062 0 0.40625 0 0.40625-0.29688 0-0.3125-0.25-0.3125-0.42188-0.3125h-0.4375z"/>
</g>
<g id="x">
<path d="m2.8594-2.5469 1.2344-1.1406h0.34375c0.14062 0 0.40625 0 0.40625-0.29688 0-0.3125-0.26562-0.3125-0.40625-0.3125h-1.5312c-0.17188 0-0.40625 0-0.40625 0.3125 0 0.29688 0.25 0.29688 0.40625 0.29688h0.35938l-1.6094 1.5156v-3.5156c0-0.29688-0.0625-0.40625-0.40625-0.40625h-0.64062c-0.15625 0-0.40625 0-0.40625 0.29688 0 0.3125 0.25 0.3125 0.40625 0.3125h0.48438v4.875h-0.48438c-0.15625 0-0.40625 0-0.40625 0.29688 0 0.3125 0.25 0.3125 0.40625 0.3125h1.5312c0.15625 0 0.40625 0 0.40625-0.29688 0-0.3125-0.25-0.3125-0.40625-0.3125h-0.48438v-0.8125l0.79688-0.73438 1.1875 1.5469c-0.35938 0-0.5625 0-0.5625 0.3125 0 0.29688 0.25 0.29688 0.40625 0.29688h1.1719c0.15625 0 0.40625 0 0.40625-0.29688 0-0.3125-0.25-0.3125-0.40625-0.3125h-0.3125z"/>
</g>
<g id="ae">
<path d="m9.0625-5.8281c0.17188-0.57812 0.60938-0.67188 1-0.67188v-0.3125c-0.29688 0.03125-0.60938 0.03125-0.90625 0.03125s-0.9375-0.015625-1.1875-0.03125v0.3125c0.67188 0.015625 0.85938 0.34375 0.85938 0.53125 0 0.0625-0.03125 0.14062-0.046875 0.20312l-1.5 4.5938-1.5938-4.875c0-0.046875-0.03125-0.10938-0.03125-0.15625 0-0.29688 0.57812-0.29688 0.84375-0.29688v-0.3125c-0.35938 0.03125-1.0312 0.03125-1.4219 0.03125-0.375 0-0.79688-0.015625-1.2031-0.03125v0.3125c0.5625 0 0.76562 0 0.89062 0.35938l0.21875 0.70312-1.3906 4.2656-1.5938-4.9062c-0.015625-0.015625-0.03125-0.09375-0.03125-0.125 0-0.29688 0.57812-0.29688 0.84375-0.29688v-0.3125c-0.35938 0.03125-1.0312 0.03125-1.4219 0.03125-0.375 0-0.79688-0.015625-1.2188-0.03125v0.3125c0.75 0 0.79688 0.046875 0.92188 0.42188l1.9844 6.1094c0.03125 0.09375 0.0625 0.1875 0.1875 0.1875 0.14062 0 0.15625-0.0625 0.20312-0.20312l1.6406-5.0625 1.6562 5.0781c0.03125 0.09375 0.0625 0.1875 0.1875 0.1875 0.14062 0 0.17188-0.0625 0.20312-0.20312z"/>
</g>
<g id="w">
<path d="m3.3125-0.75c0.046875 0.39062 0.3125 0.8125 0.78125 0.8125 0.21875 0 0.82812-0.14062 0.82812-0.95312v-0.5625h-0.25v0.5625c0 0.57812-0.25 0.64062-0.35938 0.64062-0.32812 0-0.375-0.45312-0.375-0.5v-1.9844c0-0.42188 0-0.8125-0.35938-1.1875-0.39062-0.39062-0.89062-0.54688-1.3594-0.54688-0.82812 0-1.5156 0.46875-1.5156 1.125 0 0.29688 0.20312 0.46875 0.46875 0.46875 0.28125 0 0.45312-0.20312 0.45312-0.45312 0-0.125-0.046875-0.45312-0.51562-0.45312 0.28125-0.35938 0.76562-0.46875 1.0781-0.46875 0.5 0 1.0625 0.39062 1.0625 1.2812v0.35938c-0.51562 0.03125-1.2031 0.0625-1.8281 0.35938-0.75 0.34375-1 0.85938-1 1.2969 0 0.8125 0.96875 1.0625 1.5938 1.0625 0.65625 0 1.1094-0.40625 1.2969-0.85938zm-0.0625-1.6406v1c0 0.9375-0.71875 1.2812-1.1719 1.2812-0.48438 0-0.89062-0.34375-0.89062-0.84375 0-0.54688 0.42188-1.375 2.0625-1.4375z"/>
</g>
<g id="p">
<path d="m1.6719-3.3125v-1.0938l-1.3906 0.10938v0.3125c0.70312 0 0.78125 0.0625 0.78125 0.5625v2.6719c0 0.4375-0.10938 0.4375-0.78125 0.4375v0.3125c0.39062-0.015625 0.85938-0.03125 1.1406-0.03125 0.39062 0 0.85938 0 1.2656 0.03125v-0.3125h-0.21875c-0.73438 0-0.75-0.10938-0.75-0.46875v-1.5312c0-0.98438 0.42188-1.875 1.1719-1.875 0.0625 0 0.09375 0 0.10938 0.015625-0.03125 0-0.23438 0.125-0.23438 0.39062s0.21875 0.42188 0.4375 0.42188c0.17188 0 0.42188-0.125 0.42188-0.4375s-0.3125-0.60938-0.73438-0.60938c-0.73438 0-1.0938 0.67188-1.2188 1.0938z"/>
</g>
<g id="ab">
<path d="m1.7188-3.9844h1.4375v-0.3125h-1.4375v-1.8281h-0.25c0 0.8125-0.29688 1.875-1.2812 1.9219v0.21875h0.84375v2.75c0 1.2188 0.9375 1.3438 1.2969 1.3438 0.70312 0 0.98438-0.70312 0.98438-1.3438v-0.5625h-0.25v0.54688c0 0.73438-0.29688 1.1094-0.67188 1.1094-0.67188 0-0.67188-0.90625-0.67188-1.0781z"/>
</g>
<g id="r">
<path d="m1.1094-2.5156c0.0625-1.4844 0.90625-1.7344 1.25-1.7344 1.0156 0 1.125 1.3438 1.125 1.7344zm0 0.21875h2.7812c0.21875 0 0.25 0 0.25-0.21875 0-0.98438-0.54688-1.9531-1.7812-1.9531-1.1562 0-2.0781 1.0312-2.0781 2.2812 0 1.3281 1.0469 2.2969 2.1875 2.2969 1.2188 0 1.6719-1.1094 1.6719-1.2969 0-0.09375-0.078125-0.125-0.14062-0.125-0.078125 0-0.10938 0.0625-0.125 0.14062-0.34375 1.0312-1.25 1.0312-1.3438 1.0312-0.5 0-0.89062-0.29688-1.125-0.67188-0.29688-0.46875-0.29688-1.125-0.29688-1.4844z"/>
</g>
<g id="q">
<path d="m3.8906-0.78125v0.89062l1.4375-0.10938v-0.3125c-0.6875 0-0.76562-0.0625-0.76562-0.5625v-3.5312l-1.4688 0.10938v0.3125c0.6875 0 0.78125 0.0625 0.78125 0.5625v1.7656c0 0.875-0.48438 1.5469-1.2188 1.5469-0.82812 0-0.875-0.46875-0.875-0.98438v-3.3125l-1.4688 0.10938v0.3125c0.78125 0 0.78125 0.03125 0.78125 0.90625v1.5c0 0.78125 0 1.6875 1.5156 1.6875 0.5625 0 1-0.28125 1.2812-0.89062z"/>
</g>
<g id="v">
<path d="m1.75-4.2969v-1.1562c0-0.875 0.46875-1.3594 0.90625-1.3594 0.03125 0 0.1875 0 0.32812 0.078125-0.10938 0.03125-0.29688 0.17188-0.29688 0.42188 0 0.21875 0.15625 0.42188 0.4375 0.42188s0.4375-0.20312 0.4375-0.4375c0-0.375-0.375-0.70312-0.90625-0.70312-0.6875 0-1.5469 0.53125-1.5469 1.5938v1.1406h-0.78125v0.3125h0.78125v3.2344c0 0.4375-0.10938 0.4375-0.76562 0.4375v0.3125c0.39062-0.015625 0.85938-0.03125 1.125-0.03125 0.40625 0 0.875 0 1.2656 0.03125v-0.3125h-0.20312c-0.73438 0-0.75-0.10938-0.75-0.46875v-3.2031h1.125v-0.3125z"/>
</g>
<g id="aa">
<path d="m3.9688-6.9375c-0.046875-0.125-0.078125-0.20312-0.23438-0.20312s-0.1875 0.0625-0.23438 0.20312l-2.0625 5.9531c-0.1875 0.51562-0.57812 0.67188-1.125 0.67188v0.3125c0.23438-0.015625 0.67188-0.03125 1.0156-0.03125 0.3125 0 0.82812 0.015625 1.1562 0.03125v-0.3125c-0.5 0-0.75-0.25-0.75-0.5 0-0.03125 0.015625-0.14062 0.015625-0.15625l0.46875-1.2969h2.4531l0.53125 1.5156c0.015625 0.046875 0.03125 0.10938 0.03125 0.14062 0 0.29688-0.5625 0.29688-0.82812 0.29688v0.3125c0.35938-0.03125 1.0625-0.03125 1.4375-0.03125 0.42188 0 0.89062 0.015625 1.2969 0.03125v-0.3125h-0.17188c-0.59375 0-0.73438-0.0625-0.84375-0.39062zm-0.53125 1.1094 1.125 3.25h-2.2344z"/>
</g>
<g id="aq">
<path d="m2.9375-6.375c0-0.25 0-0.26562-0.23438-0.26562-0.625 0.64062-1.5 0.64062-1.8125 0.64062v0.3125c0.20312 0 0.78125 0 1.2969-0.26562v5.1719c0 0.35938-0.03125 0.46875-0.92188 0.46875h-0.3125v0.3125c0.34375-0.03125 1.2031-0.03125 1.6094-0.03125 0.39062 0 1.2656 0 1.6094 0.03125v-0.3125h-0.3125c-0.90625 0-0.92188-0.10938-0.92188-0.46875z"/>
</g>
<g id="ad">
<path d="m3.7812-0.54688v0.65625l1.4688-0.10938v-0.3125c-0.6875 0-0.78125-0.0625-0.78125-0.5625v-6.0469l-1.4219 0.10938v0.3125c0.6875 0 0.76562 0.0625 0.76562 0.5625v2.1562c-0.28125-0.35938-0.71875-0.625-1.25-0.625-1.1719 0-2.2188 0.98438-2.2188 2.2656 0 1.2656 0.96875 2.25 2.1094 2.25 0.64062 0 1.0781-0.34375 1.3281-0.65625zm0-2.6719v2.0469c0 0.17188 0 0.1875-0.10938 0.35938-0.29688 0.48438-0.73438 0.70312-1.1719 0.70312-0.45312 0-0.8125-0.26562-1.0469-0.64062-0.25-0.40625-0.28125-0.96875-0.28125-1.3906 0-0.35938 0.015625-0.95312 0.29688-1.4062 0.21875-0.3125 0.59375-0.64062 1.1406-0.64062 0.34375 0 0.76562 0.15625 1.0625 0.59375 0.10938 0.17188 0.10938 0.1875 0.10938 0.375z"/>
</g>
<g id="bb">
<path d="m1.1719-2.1719c0-1.625 0.8125-2.0469 1.3438-2.0469 0.09375 0 0.71875 0.015625 1.0625 0.375-0.40625 0.03125-0.46875 0.32812-0.46875 0.45312 0 0.26562 0.1875 0.45312 0.45312 0.45312s0.46875-0.15625 0.46875-0.46875c0-0.67188-0.76562-1.0625-1.5312-1.0625-1.25 0-2.1562 1.0781-2.1562 2.3125 0 1.2812 0.98438 2.2656 2.1406 2.2656 1.3281 0 1.6562-1.2031 1.6562-1.2969s-0.10938-0.09375-0.14062-0.09375c-0.078125 0-0.10938 0.03125-0.125 0.09375-0.28125 0.92188-0.9375 1.0469-1.2969 1.0469-0.53125 0-1.4062-0.42188-1.4062-2.0312z"/>
</g>
<g id="ba">
<path d="m1.0938-0.75c0 0.4375-0.10938 0.4375-0.78125 0.4375v0.3125c0.35938-0.015625 0.85938-0.03125 1.1406-0.03125 0.25 0 0.76562 0.015625 1.1094 0.03125v-0.3125c-0.67188 0-0.78125 0-0.78125-0.4375v-1.8438c0-1.0312 0.71875-1.5938 1.3438-1.5938 0.64062 0 0.75 0.53125 0.75 1.1094v2.3281c0 0.4375-0.10938 0.4375-0.78125 0.4375v0.3125c0.34375-0.015625 0.85938-0.03125 1.125-0.03125 0.25 0 0.78125 0.015625 1.1094 0.03125v-0.3125c-0.51562 0-0.76562 0-0.76562-0.29688v-1.9062c0-0.85938 0-1.1562-0.3125-1.5156-0.14062-0.17188-0.46875-0.375-1.0469-0.375-0.84375 0-1.2812 0.59375-1.4531 0.98438v-3.5l-1.4375 0.10938v0.3125c0.70312 0 0.78125 0.0625 0.78125 0.5625z"/>
</g>
<g id="az">
<path d="m3.4844-3.875-1.2812-0.29688c-0.625-0.15625-1-0.6875-1-1.2656 0-0.70312 0.53125-1.3125 1.3125-1.3125 1.6562 0 1.875 1.6406 1.9375 2.0781 0.015625 0.0625 0.015625 0.125 0.125 0.125 0.125 0 0.125-0.046875 0.125-0.23438v-2c0-0.17188 0-0.25-0.10938-0.25-0.0625 0-0.078125 0.015625-0.14062 0.14062l-0.35938 0.5625c-0.29688-0.29688-0.70312-0.70312-1.5938-0.70312-1.1094 0-1.9375 0.875-1.9375 1.9375 0 0.82812 0.53125 1.5625 1.2969 1.8281 0.10938 0.03125 0.625 0.15625 1.3281 0.32812 0.26562 0.0625 0.5625 0.14062 0.84375 0.5 0.20312 0.26562 0.3125 0.59375 0.3125 0.92188 0 0.70312-0.5 1.4219-1.3438 1.4219-0.28125 0-1.0469-0.046875-1.5781-0.53125-0.57812-0.54688-0.60938-1.1719-0.60938-1.5312-0.015625-0.10938-0.09375-0.10938-0.125-0.10938-0.125 0-0.125 0.078125-0.125 0.25v2c0 0.17188 0 0.23438 0.10938 0.23438 0.0625 0 0.078125-0.015625 0.14062-0.125 0-0.015625 0.03125-0.046875 0.35938-0.57812 0.3125 0.34375 0.95312 0.70312 1.8438 0.70312 1.1562 0 1.9531-0.96875 1.9531-2.0781 0-0.98438-0.65625-1.8125-1.4844-2.0156z"/>
</g>
<g id="ay">
<path d="m1.0938-3.4219v2.6719c0 0.4375-0.10938 0.4375-0.78125 0.4375v0.3125c0.35938-0.015625 0.85938-0.03125 1.1406-0.03125 0.25 0 0.76562 0.015625 1.1094 0.03125v-0.3125c-0.67188 0-0.78125 0-0.78125-0.4375v-1.8438c0-1.0312 0.71875-1.5938 1.3438-1.5938 0.64062 0 0.75 0.53125 0.75 1.1094v2.3281c0 0.4375-0.10938 0.4375-0.78125 0.4375v0.3125c0.34375-0.015625 0.85938-0.03125 1.125-0.03125 0.25 0 0.78125 0.015625 1.1094 0.03125v-0.3125c-0.51562 0-0.76562 0-0.76562-0.29688v-1.9062c0-0.85938 0-1.1562-0.3125-1.5156-0.14062-0.17188-0.46875-0.375-1.0469-0.375-0.73438 0-1.2031 0.42188-1.4844 1.0469v-1.0469l-1.4062 0.10938v0.3125c0.70312 0 0.78125 0.0625 0.78125 0.5625z"/>
</g>
<g id="ax">
<path d="m2.75-1.8594v-0.57812h-2.6406v0.57812z"/>
</g>
<g id="aw">
<path d="m1.7188-3.75v-0.65625l-1.4375 0.10938v0.3125c0.70312 0 0.78125 0.0625 0.78125 0.5v4.6562c0 0.45312-0.10938 0.45312-0.78125 0.45312v0.3125c0.34375-0.015625 0.85938-0.03125 1.1094-0.03125 0.28125 0 0.78125 0.015625 1.125 0.03125v-0.3125c-0.65625 0-0.76562 0-0.76562-0.45312v-1.7656c0.046875 0.17188 0.46875 0.70312 1.2188 0.70312 1.1875 0 2.2188-0.98438 2.2188-2.2656 0-1.2656-0.95312-2.25-2.0781-2.25-0.78125 0-1.2031 0.4375-1.3906 0.65625zm0.03125 2.6094v-2.2188c0.28125-0.51562 0.76562-0.79688 1.2812-0.79688 0.73438 0 1.3281 0.875 1.3281 2 0 1.2031-0.6875 2.0469-1.4219 2.0469-0.40625 0-0.78125-0.20312-1.0469-0.60938-0.14062-0.20312-0.14062-0.21875-0.14062-0.42188z"/>
</g>
<g id="av">
<path d="m4.6875-2.1406c0-1.2656-0.98438-2.3281-2.1875-2.3281-1.25 0-2.2188 1.0938-2.2188 2.3281 0 1.2969 1.0312 2.25 2.2031 2.25 1.2031 0 2.2031-0.98438 2.2031-2.25zm-2.1875 2c-0.4375 0-0.875-0.20312-1.1406-0.67188-0.25-0.4375-0.25-1.0469-0.25-1.4062 0-0.39062 0-0.92188 0.23438-1.3594 0.26562-0.45312 0.73438-0.67188 1.1406-0.67188 0.4375 0 0.85938 0.21875 1.125 0.65625 0.26562 0.42188 0.26562 1 0.26562 1.375 0 0.35938 0 0.90625-0.21875 1.3438-0.23438 0.45312-0.67188 0.73438-1.1562 0.73438z"/>
</g>
<g id="au">
<path d="m3.8906-4c0.09375-0.10938 0.09375-0.125 0.09375-0.17188 0-0.125-0.09375-0.125-0.26562-0.125h-3.1875l-0.10938 1.6094h0.25c0.0625-1.0156 0.25-1.3906 1.3438-1.3906h1.1406l-2.7812 3.7656c-0.09375 0.10938-0.09375 0.125-0.09375 0.17188 0 0.14062 0.0625 0.14062 0.25 0.14062h3.2969l0.17188-1.8594h-0.25c-0.09375 1.1719-0.29688 1.6094-1.4531 1.6094h-1.1875z"/>
</g>
<g id="ac">
<path d="m2.0781-1.9375c0.21875 0.046875 1.0312 0.20312 1.0312 0.92188 0 0.5-0.34375 0.90625-1.125 0.90625-0.84375 0-1.2031-0.5625-1.3906-1.4219-0.03125-0.125-0.03125-0.15625-0.14062-0.15625-0.125 0-0.125 0.0625-0.125 0.23438v1.3281c0 0.17188 0 0.23438 0.10938 0.23438 0.046875 0 0.0625-0.015625 0.25-0.20312 0.015625-0.015625 0.015625-0.03125 0.20312-0.21875 0.4375 0.40625 0.89062 0.42188 1.0938 0.42188 1.1406 0 1.6094-0.67188 1.6094-1.3906 0-0.51562-0.29688-0.82812-0.42188-0.9375-0.32812-0.32812-0.71875-0.40625-1.1406-0.48438-0.5625-0.10938-1.2188-0.23438-1.2188-0.8125 0-0.35938 0.25-0.76562 1.1094-0.76562 1.0938 0 1.1562 0.90625 1.1719 1.2031 0 0.09375 0.09375 0.09375 0.10938 0.09375 0.14062 0 0.14062-0.046875 0.14062-0.23438v-1.0156c0-0.15625 0-0.23438-0.10938-0.23438-0.046875 0-0.078125 0-0.20312 0.125-0.03125 0.03125-0.125 0.125-0.17188 0.15625-0.375-0.28125-0.78125-0.28125-0.9375-0.28125-1.2188 0-1.5938 0.67188-1.5938 1.2344 0 0.34375 0.15625 0.625 0.42188 0.84375 0.32812 0.25 0.60938 0.3125 1.3281 0.45312z"/>
</g>
<g id="at">
<path d="m0.5625-3.4062c0 2.0625 1.6094 3.625 3.4688 3.625 1.625 0 2.5938-1.3906 2.5938-2.5469 0-0.09375 0-0.17188-0.125-0.17188-0.10938 0-0.10938 0.0625-0.125 0.17188-0.078125 1.4219-1.1406 2.2344-2.2344 2.2344-0.60938 0-2.5625-0.32812-2.5625-3.3125 0-2.9688 1.9531-3.3125 2.5625-3.3125 1.0781 0 1.9688 0.90625 2.1719 2.3594 0.015625 0.14062 0.015625 0.17188 0.15625 0.17188 0.15625 0 0.15625-0.03125 0.15625-0.23438v-2.3594c0-0.17188 0-0.25-0.10938-0.25-0.03125 0-0.078125 0-0.15625 0.125l-0.5 0.73438c-0.35938-0.35938-0.875-0.85938-1.8281-0.85938-1.875 0-3.4688 1.5938-3.4688 3.625z"/>
</g>
<g id="as">
<path d="m3.9844-4.1719 1.7969-1.7344c0.078125-0.078125 0.60938-0.57812 1.4219-0.59375v-0.3125c-0.26562 0.03125-0.57812 0.03125-0.85938 0.03125-0.35938 0-0.92188 0-1.2656-0.03125v0.3125c0.40625 0.015625 0.46875 0.23438 0.46875 0.32812 0 0.15625-0.10938 0.26562-0.1875 0.32812l-3.1094 2.9844v-3.1719c0-0.35938 0.015625-0.46875 0.78125-0.46875h0.23438v-0.3125c-0.34375 0.03125-1.0781 0.03125-1.4688 0.03125-0.375 0-1.125 0-1.4688-0.03125v0.3125h0.23438c0.76562 0 0.79688 0.10938 0.79688 0.46875v5.25c0 0.35938-0.03125 0.46875-0.79688 0.46875h-0.23438v0.3125c0.34375-0.03125 1.0938-0.03125 1.4688-0.03125s1.125 0 1.4688 0.03125v-0.3125h-0.23438c-0.76562 0-0.78125-0.10938-0.78125-0.46875v-1.7344l1.1562-1.1094 1.7969 2.6719c0.0625 0.09375 0.15625 0.21875 0.15625 0.34375 0 0.29688-0.39062 0.29688-0.59375 0.29688v0.3125c0.34375-0.03125 1.0469-0.03125 1.4219-0.03125 0.35938 0 0.73438 0.015625 1.1562 0.03125v-0.3125c-0.54688 0-0.75-0.03125-1.0469-0.46875z"/>
</g>
<g id="ar">
<path d="m4.5781-3.1875c0-0.79688-0.046875-1.5938-0.39062-2.3281-0.45312-0.96875-1.2812-1.125-1.6875-1.125-0.60938 0-1.3281 0.26562-1.75 1.1875-0.3125 0.6875-0.35938 1.4688-0.35938 2.2656 0 0.75 0.03125 1.6406 0.45312 2.4062 0.42188 0.79688 1.1562 1 1.6406 1 0.53125 0 1.2969-0.20312 1.7344-1.1562 0.3125-0.6875 0.35938-1.4688 0.35938-2.25zm-2.0938 3.1875c-0.39062 0-0.98438-0.25-1.1562-1.2031-0.10938-0.59375-0.10938-1.5156-0.10938-2.1094 0-0.64062 0-1.2969 0.078125-1.8281 0.1875-1.1875 0.9375-1.2812 1.1875-1.2812 0.32812 0 0.98438 0.1875 1.1719 1.1719 0.10938 0.5625 0.10938 1.3125 0.10938 1.9375 0 0.75 0 1.4219-0.10938 2.0625-0.15625 0.95312-0.71875 1.25-1.1719 1.25z"/>
</g>
<g id="bk">
<path d="m4.625-8.3125c-0.046875-0.15625-0.078125-0.21875-0.23438-0.21875-0.17188 0-0.1875 0.03125-0.25 0.21875l-2.5 7.1562c-0.17188 0.48438-0.5 0.79688-1.2656 0.8125v0.34375c0.71875-0.03125 0.75-0.03125 1.1406-0.03125 0.34375 0 0.90625 0 1.2188 0.03125v-0.34375c-0.5-0.015625-0.79688-0.26562-0.79688-0.59375 0-0.078125 0-0.10938 0.0625-0.25l0.54688-1.5938h3.0156l0.65625 1.875c0.0625 0.14062 0.0625 0.17188 0.0625 0.20312 0 0.35938-0.60938 0.35938-0.92188 0.35938v0.34375c0.28125-0.03125 1.2344-0.03125 1.5625-0.03125s1.1875 0 1.4688 0.03125v-0.34375c-0.78125 0-0.98438 0-1.1562-0.5zm-0.57812 1.2031 1.3906 3.9844h-2.7656z"/>
</g>
<g id="an">
<path d="m2.2031-4.5781c0-0.32812-0.28125-0.57812-0.57812-0.57812-0.34375 0-0.57812 0.28125-0.57812 0.57812 0 0.35938 0.29688 0.57812 0.5625 0.57812 0.32812 0 0.59375-0.25 0.59375-0.57812zm0 4c0-0.32812-0.28125-0.57812-0.57812-0.57812-0.34375 0-0.57812 0.26562-0.57812 0.57812 0 0.34375 0.29688 0.57812 0.5625 0.57812 0.32812 0 0.59375-0.25 0.59375-0.57812z"/>
</g>
<g id="be">
<path d="m3.9219-5.0625c0-0.20312 0-0.26562-0.125-0.26562-0.09375 0-0.3125 0.26562-0.40625 0.375-0.35938-0.3125-0.73438-0.375-1.125-0.375-1.4375 0-1.875 0.78125-1.875 1.4375 0 0.14062 0 0.5625 0.45312 0.96875 0.39062 0.34375 0.79688 0.42188 1.3438 0.53125 0.65625 0.125 0.8125 0.17188 1.1094 0.40625 0.21875 0.17188 0.375 0.4375 0.375 0.78125 0 0.51562-0.29688 1.0781-1.3594 1.0781-0.78125 0-1.3594-0.45312-1.625-1.6406-0.046875-0.21875-0.046875-0.23438-0.046875-0.25-0.03125-0.046875-0.078125-0.046875-0.10938-0.046875-0.14062 0-0.14062 0.0625-0.14062 0.28125v1.625c0 0.21875 0 0.28125 0.125 0.28125 0.0625 0 0.0625-0.015625 0.26562-0.26562 0.0625-0.09375 0.0625-0.10938 0.25-0.29688 0.45312 0.5625 1.0938 0.5625 1.2969 0.5625 1.25 0 1.875-0.70312 1.875-1.6406 0-0.64062-0.39062-1.0312-0.5-1.1406-0.42188-0.375-0.75-0.4375-1.5469-0.57812-0.34375-0.078125-1.2188-0.25-1.2188-0.96875 0-0.35938 0.25-0.90625 1.3281-0.90625 1.2969 0 1.375 1.1094 1.3906 1.4688 0.015625 0.10938 0.09375 0.10938 0.14062 0.10938 0.125 0 0.125-0.0625 0.125-0.28125z"/>
</g>
<g id="y">
<path d="m4.5781-2.7656c0.26562 0 0.28125 0 0.28125-0.23438 0-1.2031-0.64062-2.3281-2.0938-2.3281-1.3594 0-2.4062 1.2344-2.4062 2.7031 0 1.5781 1.2188 2.75 2.5469 2.75 1.4219 0 1.9531-1.2969 1.9531-1.5469 0-0.078125-0.046875-0.125-0.125-0.125-0.09375 0-0.125 0.0625-0.14062 0.125-0.3125 1-1.1094 1.2812-1.625 1.2812-0.5 0-1.7031-0.34375-1.7031-2.4062v-0.21875zm-3.2969-0.23438c0.09375-1.875 1.1406-2.0938 1.4844-2.0938 1.2812 0 1.3438 1.6875 1.3594 2.0938z"/>
</g>
<g id="bd">
<path d="m5.3125-2.9062c0-1.1094 0-1.4375-0.26562-1.8281-0.34375-0.46875-0.90625-0.53125-1.3125-0.53125-1.1719 0-1.625 0.98438-1.7188 1.2188v-1.2188l-1.6406 0.125v0.34375c0.8125 0 0.92188 0.09375 0.92188 0.67188v3.2344c0 0.54688-0.14062 0.54688-0.92188 0.54688v0.34375c0.3125-0.03125 0.96875-0.03125 1.2969-0.03125 0.34375 0 1 0 1.2969 0.03125v-0.34375c-0.75 0-0.90625 0-0.90625-0.54688v-2.2188c0-1.25 0.82812-1.9219 1.5781-1.9219 0.73438 0 0.90625 0.60938 0.90625 1.3438v2.7969c0 0.54688-0.14062 0.54688-0.90625 0.54688v0.34375c0.29688-0.03125 0.95312-0.03125 1.2812-0.03125 0.34375 0 1 0 1.3125 0.03125v-0.34375c-0.60938 0-0.90625 0-0.92188-0.35938z"/>
</g>
<g id="bc">
<path d="m3.5781-8.1562v0.34375c0.82812 0 0.92188 0.078125 0.92188 0.67188v2.6406c-0.25-0.35938-0.76562-0.76562-1.5-0.76562-1.3906 0-2.5781 1.1719-2.5781 2.7031 0 1.5156 1.125 2.6875 2.4531 2.6875 0.90625 0 1.4219-0.60938 1.5938-0.82812v0.82812l1.6875-0.125v-0.34375c-0.8125 0-0.90625-0.09375-0.90625-0.67188v-7.2812zm0.89062 6.75c0 0.21875 0 0.26562-0.17188 0.51562-0.28125 0.42188-0.76562 0.76562-1.375 0.76562-0.29688 0-1.5938-0.10938-1.5938-2.4375 0-0.85938 0.14062-1.3281 0.40625-1.7344 0.23438-0.35938 0.71875-0.73438 1.3125-0.73438 0.75 0 1.1562 0.53125 1.2812 0.73438 0.14062 0.20312 0.14062 0.21875 0.14062 0.4375z"/>
</g>
<g id="am">
<path d="m3.2344-2.2656v-0.64062h-3.1094v0.64062z"/>
</g>
<g id="al">
<path d="m2.6094-3.7969h2.0156c1.4062 0 2.6719-0.95312 2.6719-2.1562 0-1.1562-1.1562-2.2031-2.7656-2.2031h-4.0312v0.34375h0.23438c0.875 0 0.90625 0.10938 0.90625 0.5625v6.3438c0 0.4375-0.03125 0.5625-0.90625 0.5625h-0.23438v0.34375c0.28125-0.03125 1.2656-0.03125 1.6094-0.03125 0.35938 0 1.3438 0 1.625 0.03125v-0.34375h-0.23438c-0.85938 0-0.89062-0.125-0.89062-0.5625zm-0.03125-0.29688v-3.25c0-0.39062 0.03125-0.46875 0.54688-0.46875h1.125c1.9375 0 1.9375 1.3438 1.9375 1.8594 0 0.5 0 1.8594-1.9375 1.8594z"/>
</g>
<g id="ak">
<path d="m4.6094-3.1875c0-0.65625 0-1.125-0.51562-1.5938-0.42188-0.375-0.96875-0.54688-1.4844-0.54688-0.98438 0-1.7344 0.64062-1.7344 1.4219 0 0.34375 0.21875 0.51562 0.5 0.51562s0.48438-0.20312 0.48438-0.5c0-0.48438-0.42188-0.48438-0.60938-0.48438 0.28125-0.5 0.85938-0.71875 1.3281-0.71875 0.54688 0 1.2656 0.45312 1.2656 1.5312v0.48438c-2.4062 0.03125-3.3125 1.0312-3.3125 1.9531 0 0.95312 1.0938 1.25 1.8281 1.25 0.78125 0 1.3281-0.48438 1.5469-1.0625 0.046875 0.5625 0.42188 1 0.9375 1 0.25 0 0.9375-0.17188 0.9375-1.125v-0.67188h-0.26562v0.67188c0 0.6875-0.28125 0.78125-0.45312 0.78125-0.45312 0-0.45312-0.64062-0.45312-0.8125zm-0.76562 1.5c0 1.1719-0.875 1.5625-1.3906 1.5625-0.59375 0-1.0781-0.42188-1.0781-1 0-1.5781 2.0312-1.7188 2.4688-1.75z"/>
</g>
<g id="ap">
<path d="m3.3438-3.1719-0.078125-0.10938c0-0.046875 0.75-0.6875 0.84375-0.78125 0.82812-0.71875 1.3594-0.73438 1.6094-0.75v-0.34375c-0.25 0.03125-0.5625 0.03125-0.90625 0.03125-0.3125 0-0.92188 0-1.2031-0.03125v0.34375c0.20312 0.015625 0.34375 0.125 0.34375 0.3125 0 0.25-0.23438 0.45312-0.25 0.45312l-1.7031 1.5156v-5.7656l-1.6719 0.14062v0.34375c0.8125 0 0.92188 0.078125 0.92188 0.67188v6.25c0 0.54688-0.14062 0.54688-0.92188 0.54688v0.34375c0.34375-0.03125 0.92188-0.03125 1.2812-0.03125 0.34375 0 0.92188 0 1.2656 0.03125v-0.34375c-0.76562 0-0.92188 0-0.92188-0.54688v-1.2656l0.76562-0.67188 1.1562 1.6562c0.17188 0.25 0.26562 0.39062 0.26562 0.54688 0 0.21875-0.17188 0.28125-0.42188 0.28125v0.34375c0.29688-0.03125 0.89062-0.03125 1.2031-0.03125 0.51562 0 0.54688 0 1.0469 0.03125v-0.34375c-0.3125 0-0.6875 0-1.0156-0.5z"/>
</g>
<g id="ao">
<path d="m2.0156-4.8125h1.6719v-0.34375h-1.6719v-2.1875h-0.26562c-0.015625 1.1094-0.45312 2.2656-1.5312 2.2969v0.23438h1.0156v3.3281c0 1.3281 0.875 1.6094 1.5156 1.6094 0.75 0 1.1406-0.75 1.1406-1.6094v-0.67188h-0.25v0.65625c0 0.85938-0.35938 1.3594-0.8125 1.3594-0.8125 0-0.8125-1.1094-0.8125-1.3125z"/>
</g>
<g id="bj">
<path d="m0.51562-8.1562v0.34375h0.23438c0.85938 0 0.90625 0.10938 0.90625 0.5625v6.3438c0 0.4375-0.046875 0.5625-0.90625 0.5625h-0.23438v0.34375h4.5c1.5312 0 2.6094-1.0469 2.6094-2.1875 0-0.96875-0.875-1.9219-2.2969-2.0781 1.1406-0.21875 1.9688-0.98438 1.9688-1.875 0-1.0312-1.0469-2.0156-2.6094-2.0156zm2.0469 3.7969v-2.9844c0-0.39062 0.015625-0.46875 0.54688-0.46875h1.5c1.2031 0 1.625 1.0156 1.625 1.6719 0 0.78125-0.60938 1.7812-1.9375 1.7812zm0.54688 4.0156c-0.53125 0-0.54688-0.09375-0.54688-0.48438v-3.2969h2.2344c1.1406 0 1.7344 1 1.7344 1.9219 0 0.96875-0.71875 1.8594-1.8906 1.8594z"/>
</g>
<g id="bi">
<path d="m2-2.7812c0-1.1562 0.46875-2.25 1.3906-2.25 0.09375 0 0.125 0 0.17188 0.015625-0.09375 0.046875-0.28125 0.10938-0.28125 0.4375 0 0.34375 0.26562 0.48438 0.45312 0.48438 0.25 0 0.48438-0.15625 0.48438-0.48438 0-0.35938-0.32812-0.6875-0.84375-0.6875-1.0156 0-1.3594 1.0938-1.4219 1.3281h-0.015625v-1.3281l-1.6094 0.125v0.34375c0.8125 0 0.92188 0.09375 0.92188 0.67188v3.2344c0 0.54688-0.14062 0.54688-0.92188 0.54688v0.34375c0.34375-0.03125 1-0.03125 1.3594-0.03125 0.32812 0 1.1719 0 1.4375 0.03125v-0.34375h-0.23438c-0.875 0-0.89062-0.14062-0.89062-0.5625z"/>
</g>
<g id="bh">
<path d="m4.3281-4.4219c-0.14062 0-0.59375 0-0.59375 0.48438 0 0.29688 0.20312 0.5 0.5 0.5 0.26562 0 0.5-0.17188 0.5-0.51562 0-0.79688-0.84375-1.375-1.8125-1.375-1.3906 0-2.5 1.2344-2.5 2.75 0 1.5312 1.1406 2.7031 2.5 2.7031 1.5781 0 1.9375-1.4375 1.9375-1.5469s-0.09375-0.10938-0.125-0.10938c-0.10938 0-0.125 0.03125-0.15625 0.1875-0.26562 0.84375-0.90625 1.2031-1.5469 1.2031-0.73438 0-1.7031-0.64062-1.7031-2.4531 0-1.9844 1.0156-2.4688 1.6094-2.4688 0.45312 0 1.1094 0.17188 1.3906 0.64062z"/>
</g>
<g id="bg">
<path d="m2.0781-7.3594c0-0.3125-0.25-0.59375-0.57812-0.59375-0.3125 0-0.57812 0.25-0.57812 0.57812 0 0.35938 0.28125 0.57812 0.57812 0.57812 0.35938 0 0.57812-0.29688 0.57812-0.5625zm-1.6406 2.2188v0.34375c0.75 0 0.85938 0.078125 0.85938 0.65625v3.25c0 0.54688-0.125 0.54688-0.90625 0.54688v0.34375c0.34375-0.03125 0.90625-0.03125 1.2656-0.03125 0.125 0 0.8125 0 1.2188 0.03125v-0.34375c-0.76562 0-0.8125-0.0625-0.8125-0.53125v-4.3906z"/>
</g>
<g id="bf">
<path d="m4.875-4.0156c0.10938-0.26562 0.3125-0.78125 1.0781-0.79688v-0.34375c-0.34375 0.03125-0.51562 0.03125-0.89062 0.03125-0.25 0-0.42188 0-0.96875-0.03125v0.34375c0.5 0.03125 0.5625 0.39062 0.5625 0.51562 0 0.10938-0.03125 0.17188-0.09375 0.3125l-1.2188 3.0938-1.3281-3.375c-0.0625-0.17188-0.078125-0.17188-0.078125-0.23438 0-0.3125 0.45312-0.3125 0.67188-0.3125v-0.34375c-0.29688 0.03125-0.92188 0.03125-1.25 0.03125-0.39062 0-0.42188 0-1.1406-0.03125v0.34375c0.67188 0 0.78125 0.0625 0.92188 0.42188l1.7188 4.2812c0.0625 0.17188 0.078125 0.23438 0.21875 0.23438 0.09375 0 0.15625-0.03125 0.25-0.23438z"/>
</g>
<clipPath id="cf">
<path d="m110 70h142v36h-142z"/>
</clipPath>
<clipPath id="ce">
<path d="m-0.47266 398.42h385v-400h-385zm248.9-295.94-0.3125 0.31641-5.0117-2.3008 1.9531-0.78516 0.57031-2.0156z" clip-rule="evenodd"/>
</clipPath>
<clipPath id="bt">
<path d="m86 307h44v38h-44z"/>
</clipPath>
<clipPath id="br">
<path d="m-0.47266 398.42h385v-400h-385zm94.02-87.852 0.34375 0.22266-1.3867 5.3555-1.1016-1.8281-2.0781-0.1875z" clip-rule="evenodd"/>
</clipPath>
<clipPath id="bq">
<path d="m299 149h55v113h-55z"/>
</clipPath>
<clipPath id="bp">
<path d="m-0.47266 398.42h385v-400h-385zm303.55-139.79-0.0625-0.44141 4.9453-2.457-0.62891 2.0156 1.2266 1.6992z" clip-rule="evenodd"/>
</clipPath>
<clipPath id="bo">
<path d="m40 148h50v114h-50z"/>
</clipPath>
<clipPath id="bn">
<path d="m-0.47266 398.42h385v-400h-385zm84.977-246.73 0.09375 0.40625-4.5352 3.1211 0.34766-2.082-1.4492-1.543z" clip-rule="evenodd"/>
</clipPath>
<clipPath id="bm">
<path d="m91 92h11v10h-11z"/>
</clipPath>
<clipPath id="bl">
<path d="m-0.47266 398.42h385v-400h-385zm99.277-300.63-0.21875 0.34766-5.3242-1.4492 1.8281-1.0742 0.21875-2.1094z" clip-rule="evenodd"/>
</clipPath>
<clipPath id="cd">
<path d="m75 267h8v8h-8z"/>
</clipPath>
<clipPath id="cc">
<path d="m-0.47266 398.42h385v-400h-385zm80.094-127.54v0.4375l-5.1953 1.8281 0.87891-1.9219-1.0078-1.8555z" clip-rule="evenodd"/>
</clipPath>
<clipPath id="cb">
<path d="m286 309h13v11h-13z"/>
</clipPath>
<clipPath id="ca">
<path d="m-0.47266 398.42h385v-400h-385zm290.48-85.426 0.21875-0.34375 5.293 1.6055-1.8594 1.0078-0.28125 2.1094z" clip-rule="evenodd"/>
</clipPath>
<clipPath id="bz">
<path d="m291 91h8v13h-8z"/>
</clipPath>
<clipPath id="by">
<path d="m-0.47266 398.42h385v-400h-385zm295.43-298.14-0.41016-0.03125-1.418-5.3242 1.8281 1.0391 1.9219-0.85156z" clip-rule="evenodd"/>
</clipPath>
<clipPath id="bx">
<path d="m305 134h12v9h-12z"/>
</clipPath>
<clipPath id="bw">
<path d="m-0.47266 398.42h385v-400h-385zm309.29-258.86-0.16016-0.41016 4.4766-3.2773-0.28516 2.1133 1.4805 1.4805z" clip-rule="evenodd"/>
</clipPath>
<clipPath id="bv">
<path d="m228 75h156.53v1h-156.53z"/>
</clipPath>
<clipPath id="bu">
<path d="m135 306h118v35h-118z"/>
</clipPath>
<clipPath id="bs">
<path d="m-0.47266 398.42h385v-400h-385zm139.09-88.543 0.34766-0.28516 4.6289 2.9922-2.0469 0.50391-0.85156 1.9219z" clip-rule="evenodd"/>
</clipPath>
</defs>
<g clip-path="url(#cf)">
<g clip-path="url(#ce)">
<path transform="matrix(.1 0 0 -.1 -.472 398.42)" d="m1139.2 3030.3c181.6 137.97 403.4 212.66 631.45 212.66 265.82 0 521.6-101.41 715.2-283.52" fill="none" stroke="#000" stroke-miterlimit="10" stroke-width="2.3625"/>
</g>
</g>
<path d="m243.11 100.5 4.7578 1.7656-2.2344-4.5664-0.57031 2.0156-1.9531 0.78516" fill-rule="evenodd"/>
<path transform="matrix(.1 0 0 -.1 -.472 398.42)" d="m2435.8 2979.2 47.578-17.656-22.344 45.664-5.7031-20.156z" fill="none" stroke="#000" stroke-miterlimit="10" stroke-width="2.3625"/>
<g clip-path="url(#bt)">
<g clip-path="url(#br)">
<path transform="matrix(.1 0 0 -.1 -.472 398.42)" d="m1252.6 833.11c9.8047-22.812 14.844-47.422 14.844-72.266 0-101.37-82.188-183.52-183.52-183.52-101.37 0-183.52 82.148-183.52 183.52 0 41.719 14.219 82.227 40.352 114.8" fill="none" stroke="#000" stroke-miterlimit="10" stroke-width="2.3625"/>
</g>
</g>
<path d="m92.504 316.15 0.91406-5.0117-4.0938 2.9961 2.0781 0.1875 1.1016 1.8281" fill-rule="evenodd"/>
<path transform="matrix(.1 0 0 -.1 -.472 398.42)" d="m929.76 822.72 9.1406 50.117-40.938-29.961 20.781-1.875z" fill="none" stroke="#000" stroke-miterlimit="10" stroke-width="2.3625"/>
<g clip-path="url(#bq)">
<g clip-path="url(#bp)">
<path transform="matrix(.1 0 0 -.1 -.472 398.42)" d="m3037.5 1400.4c267.85 32.695 469.18 260.12 469.18 529.96s-201.33 497.3-469.18 530" fill="none" stroke="#000" stroke-miterlimit="10" stroke-width="2.3625"/>
</g>
</g>
<path d="m307.96 255.73-4.3789 2.582 4.9766 1.1328-1.2266-1.6992 0.62891-2.0156" fill-rule="evenodd"/>
<path transform="matrix(.1 0 0 -.1 -.472 398.42)" d="m3084.4 1426.9-43.789-25.82 49.766-11.328-12.266 16.992z" fill="none" stroke="#000" stroke-miterlimit="10" stroke-width="2.3625"/>
<g clip-path="url(#bo)">
<g clip-path="url(#bn)">
<path transform="matrix(.1 0 0 -.1 -.472 398.42)" d="m869.6 1400.1c-250.35 56.133-428.28 278.44-428.28 535 0 248.32 166.95 465.66 406.88 529.73" fill="none" stroke="#000" stroke-miterlimit="10" stroke-width="2.3625"/>
</g>
</g>
<path d="m80.062 155.21 3.9688-3.1836-5.0703-0.44141 1.4492 1.543-0.34766 2.082" fill-rule="evenodd"/>
<path transform="matrix(.1 0 0 -.1 -.472 398.42)" d="m805.34 2432.1 39.688 31.836-50.703 4.4141 14.492-15.43z" fill="none" stroke="#000" stroke-miterlimit="10" stroke-width="2.3625"/>
<path transform="matrix(.1 0 0 -.1 -.472 398.42)" d="m1042.2 2888.5c0-87.5-70.938-158.44-158.44-158.44s-158.44 70.938-158.44 158.44 70.938 158.44 158.44 158.44 158.44-70.938 158.44-158.44z" fill="none" stroke="#000" stroke-miterlimit="10" stroke-width="2.3625"/>
<path transform="matrix(.1 0 0 -.1 -.472 398.42)" d="m971.36 1116.6c0-87.5-70.938-158.44-158.44-158.44s-158.48 70.938-158.48 158.44 70.977 158.44 158.48 158.44 158.44-70.938 158.44-158.44z" fill="none" stroke="#000" stroke-miterlimit="10" stroke-width="2.3625"/>
<path transform="matrix(.1 0 0 -.1 -.472 398.42)" d="m3168.5 974.86c0-87.5-70.938-158.44-158.44-158.44s-158.44 70.938-158.44 158.44 70.938 158.44 158.44 158.44 158.44-70.938 158.44-158.44z" fill="none" stroke="#000" stroke-miterlimit="10" stroke-width="2.3625"/>
<path transform="matrix(.1 0 0 -.1 -.472 398.42)" d="m3233 2749.6c0-87.5-70.938-158.44-158.44-158.44s-158.44 70.938-158.44 158.44 70.938 158.44 158.44 158.44 158.44-70.938 158.44-158.44z" fill="none" stroke="#000" stroke-miterlimit="10" stroke-width="2.3625"/>
<path transform="matrix(.1 0 0 -.1 -.472 398.42)" d="m2956.5 3028.3c0-87.5-70.938-158.44-158.44-158.44s-158.44 70.938-158.44 158.44 70.938 158.48 158.44 158.48 158.44-70.977 158.44-158.48z" fill="none" stroke="#000" stroke-miterlimit="10" stroke-width="2.3625"/>
<path d="m39.711 219.03h21.262v-38.586h-21.262z" fill="#fff" fill-rule="evenodd"/>
<path d="m309.98 130.83c0 20.879-16.922 37.801-37.797 37.801-20.879 0-37.801-16.922-37.801-37.801 0-20.875 16.922-37.801 37.801-37.801 20.875 0 37.797 16.926 37.797 37.801" fill="#fff" fill-rule="evenodd"/>
<path transform="matrix(.1 0 0 -.1 -.472 398.42)" d="m3104.5 2675.9c0-208.79-169.22-378.01-377.97-378.01-208.79 0-378.01 169.22-378.01 378.01 0 208.75 169.22 378.01 378.01 378.01 208.75 0 377.97-169.26 377.97-378.01z" fill="none" stroke="#000" stroke-miterlimit="10" stroke-width="4.725"/>
<path d="m343.06 180.45h7.0859l7.0859 38.586h-14.172z" fill="#fff" fill-rule="evenodd"/>
<path d="m154.06 279.67c0 20.875-16.926 37.797-37.801 37.797-20.879 0-37.801-16.922-37.801-37.797 0-20.879 16.922-37.801 37.801-37.801 20.875 0 37.801 16.922 37.801 37.801" fill="#fff" fill-rule="evenodd"/>
<path transform="matrix(.1 0 0 -.1 -.472 398.42)" d="m1545.3 1187.5c0-208.75-169.26-377.97-378.01-377.97-208.79 0-378.01 169.22-378.01 377.97 0 208.79 169.22 378.01 378.01 378.01 208.75 0 378.01-169.22 378.01-378.01z" fill="none" stroke="#000" stroke-miterlimit="10" stroke-width="4.725"/>
<path transform="matrix(.1 0 0 -.1 -.472 398.42)" d="m2158.3 2675.9h2.5391" fill="none" stroke="#000" stroke-miterlimit="10" stroke-width="2.3625"/>
<path transform="matrix(.1 0 0 -.1 -.472 398.42)" d="m2370.9 2392.4h2.5391" fill="none" stroke="#000" stroke-miterlimit="10" stroke-width="2.3625"/>
<g clip-path="url(#bm)">
<g clip-path="url(#bl)">
<path transform="matrix(.1 0 0 -.1 -.472 398.42)" d="m956.87 3027.1 33.086-21.406" fill="none" stroke="#000" stroke-miterlimit="10" stroke-width="2.3625"/>
</g>
</g>
<path d="m93.262 96.688 4.9766 0.97656-2.9297-4.1602-0.21875 2.1094-1.8281 1.0742" fill-rule="evenodd"/>
<path transform="matrix(.1 0 0 -.1 -.472 398.42)" d="m937.34 3017.3 49.766-9.7656-29.297 41.602-2.1875-21.094z" fill="none" stroke="#000" stroke-miterlimit="10" stroke-width="2.3625"/>
<g clip-path="url(#cd)">
<g clip-path="url(#cc)">
<path transform="matrix(.1 0 0 -.1 -.472 398.42)" d="m789.29 1272.9 9.4531 0.3125" fill="none" stroke="#000" stroke-miterlimit="10" stroke-width="2.3625"/>
</g>
</g>
<path d="m74.426 273.15 4.6602-2.0469-4.7891-1.7305 1.0078 1.8555-0.87891 1.9219" fill-rule="evenodd"/>
<path transform="matrix(.1 0 0 -.1 -.472 398.42)" d="m748.98 1252.7 46.602 20.469-47.891 17.305 10.078-18.555z" fill="none" stroke="#000" stroke-miterlimit="10" stroke-width="2.3625"/>
<g clip-path="url(#cb)">
<g clip-path="url(#ca)">
<path transform="matrix(.1 0 0 -.1 -.472 398.42)" d="m2952.4 824-44.727 30.859" fill="none" stroke="#000" stroke-miterlimit="10" stroke-width="2.3625"/>
</g>
</g>
<path d="m295.52 314.26-4.9453-1.1328 2.8047 4.25 0.28125-2.1094 1.8594-1.0078" fill-rule="evenodd"/>
<path transform="matrix(.1 0 0 -.1 -.472 398.42)" d="m2960 841.62-49.453 11.328 28.047-42.5 2.8125 21.094z" fill="none" stroke="#000" stroke-miterlimit="10" stroke-width="2.3625"/>
<g clip-path="url(#bz)">
<g clip-path="url(#by)">
<path transform="matrix(.1 0 0 -.1 -.472 398.42)" d="m2954.9 3037.8-2.5391-54.18" fill="none" stroke="#000" stroke-miterlimit="10" stroke-width="2.3625"/>
</g>
</g>
<path d="m293.13 94.922 1.6367 4.8203 2.1133-4.6328-1.9219 0.85156-1.8281-1.0391" fill-rule="evenodd"/>
<path transform="matrix(.1 0 0 -.1 -.472 398.42)" d="m2936 3035 16.367-48.203 21.133 46.328-19.219-8.5156z" fill="none" stroke="#000" stroke-miterlimit="10" stroke-width="2.3625"/>
<g clip-path="url(#bx)">
<g clip-path="url(#bw)">
<path transform="matrix(.1 0 0 -.1 -.472 398.42)" d="m3136.7 2605.6-42.539-14.18" fill="none" stroke="#000" stroke-miterlimit="10" stroke-width="2.3625"/>
</g>
</g>
<path d="m313.13 135.87-3.875 3.3086 5.0703 0.28516-1.4805-1.4805 0.28516-2.1133" fill-rule="evenodd"/>
<path transform="matrix(.1 0 0 -.1 -.472 398.42)" d="m3136 2625.5-38.75-33.086 50.703-2.8516-14.805 14.805z" fill="none" stroke="#000" stroke-miterlimit="10" stroke-width="2.3625"/>
<path transform="matrix(.1 0 0 -.1 -.472 398.42)" d="m1795.7 460.18h803.28" fill="none" stroke="#000" stroke-miterlimit="10" stroke-width="2.3625"/>
<path transform="matrix(.1 0 0 -.1 -.472 398.42)" d="m3279.4 2803.5h482.27" fill="none" stroke="#000" stroke-miterlimit="10" stroke-width="2.3625"/>
<g clip-path="url(#bv)">
<path transform="matrix(.1 0 0 -.1 -.472 398.42)" d="m2287.4 3228.7h1559.3" fill="none" stroke="#000" stroke-miterlimit="10" stroke-width="2.3625"/>
</g>
<path transform="matrix(.1 0 0 -.1 -.472 398.42)" d="m2873 1793.9h945" fill="none" stroke="#000" stroke-miterlimit="10" stroke-width="2.3625"/>
<path transform="matrix(.1 0 0 -.1 -.472 398.42)" d="m9.6419 1793.9h732.38" fill="none" stroke="#000" stroke-miterlimit="10" stroke-width="2.3625"/>
<path transform="matrix(.1 0 0 -.1 -.472 398.42)" d="m28.861 1163.3h482.27" fill="none" stroke="#000" stroke-miterlimit="10" stroke-width="2.3625"/>
<path transform="matrix(.1 0 0 -.1 -.472 398.42)" d="m2717.1 657.36h647.3" fill="none" stroke="#000" stroke-miterlimit="10" stroke-width="2.3625"/>
<path transform="matrix(.1 0 0 -.1 -.472 398.42)" d="m5.2669 2897h637.85" fill="none" stroke="#000" stroke-miterlimit="10" stroke-width="2.3625"/>
<path transform="matrix(.1 0 0 -.1 -.472 398.42)" d="m1195.7 3852.4h836.29" fill="none" stroke="#000" stroke-miterlimit="10" stroke-width="2.3625"/>
<path transform="matrix(.1 0 0 -.1 -.472 398.42)" d="m80.54 422.05h1554.8" fill="none" stroke="#000" stroke-miterlimit="10" stroke-width="2.3625"/>
<g clip-path="url(#bu)">
<g clip-path="url(#bs)">
<path transform="matrix(.1 0 0 -.1 -.472 398.42)" d="m1394.1 885.1c132.73-170.7 336.88-270.59 553.09-270.59 215.43 0 418.87 99.102 551.64 268.71" fill="none" stroke="#000" stroke-miterlimit="10" stroke-width="2.3625"/>
</g>
</g>
<path d="m143.6 312.59-4.4414-2.4258 1.543 4.8516 0.85156-1.9219 2.0469-0.50391" fill-rule="evenodd"/>
<path transform="matrix(.1 0 0 -.1 -.472 398.42)" d="m1440.7 858.34-44.414 24.258 15.43-48.516 8.5156 19.219z" fill="none" stroke="#000" stroke-miterlimit="10" stroke-width="2.3625"/>
<path d="m309.95 279.67c0 20.875-16.922 37.797-37.801 37.797-20.875 0-37.797-16.922-37.797-37.797 0-20.879 16.922-37.801 37.797-37.801 20.879 0 37.801 16.922 37.801 37.801" fill="#fff" fill-rule="evenodd"/>
<path transform="matrix(.1 0 0 -.1 -.472 398.42)" d="m3104.2 1187.5c0-208.75-169.22-377.97-378.01-377.97-208.75 0-377.97 169.22-377.97 377.97 0 208.79 169.22 378.01 377.97 378.01 208.79 0 378.01-169.22 378.01-378.01z" fill="none" stroke="#000" stroke-miterlimit="10" stroke-width="4.725"/>
<path d="m154.06 130.83c0 20.879-16.926 37.801-37.801 37.801-20.879 0-37.801-16.922-37.801-37.801 0-20.875 16.922-37.801 37.801-37.801 20.875 0 37.801 16.926 37.801 37.801" fill="#fff" fill-rule="evenodd"/>
<path transform="matrix(.1 0 0 -.1 -.472 398.42)" d="m1545.3 2675.9c0-208.79-169.26-378.01-378.01-378.01-208.79 0-378.01 169.22-378.01 378.01 0 208.75 169.22 378.01 378.01 378.01 208.75 0 378.01-169.26 378.01-378.01z" fill="none" stroke="#000" stroke-miterlimit="10" stroke-width="4.725"/>
<g>
<use x="0.442" y="212.77" xlink:href="#g"/>
<use x="5.672365" y="212.77" xlink:href="#m"/>
<use x="10.90273" y="212.77" xlink:href="#d"/>
<use x="21.36346" y="212.77" xlink:href="#j"/>
<use x="26.593825" y="212.77" xlink:href="#h"/>
<use x="31.82419" y="212.77" xlink:href="#s"/>
<use x="37.054555" y="212.77" xlink:href="#ag"/>
<use x="42.28492" y="212.77" xlink:href="#af"/>
<use x="47.515285" y="212.77" xlink:href="#e"/>
<use x="52.74565" y="212.77" xlink:href="#o"/>
<use x="57.976015" y="212.77" xlink:href="#u"/>
<use x="63.20638" y="212.77" xlink:href="#aj"/>
<use x="68.436745" y="212.77" xlink:href="#f"/>
<use x="307.674" y="230.031" xlink:href="#h"/>
<use x="312.904365" y="230.031" xlink:href="#a"/>
<use x="318.13473" y="230.031" xlink:href="#n"/>
<use x="323.365095" y="230.031" xlink:href="#t"/>
</g>
<path transform="matrix(1 0 0 -1 329.22 229.83)" d="m-3.4375e-4 -3.125e-5h3.1367" fill="none" stroke="#000" stroke-miterlimit="10" stroke-width=".398"/>
<g>
<use x="332.361" y="230.031" xlink:href="#a"/>
<use x="337.591365" y="230.031" xlink:href="#j"/>
<use x="342.82173" y="230.031" xlink:href="#l"/>
<use x="348.052095" y="230.031" xlink:href="#b"/>
<use x="353.28246" y="230.031" xlink:href="#c"/>
<use x="17.104" y="230.031" xlink:href="#h"/>
<use x="22.334365" y="230.031" xlink:href="#a"/>
<use x="27.56473" y="230.031" xlink:href="#n"/>
<use x="32.795095" y="230.031" xlink:href="#t"/>
</g>
<path transform="matrix(1 0 0 -1 38.653 229.83)" d="m-6.5625e-4 -3.125e-5h3.1367" fill="none" stroke="#000" stroke-miterlimit="10" stroke-width=".398"/>
<g>
<use x="41.791" y="230.031" xlink:href="#a"/>
<use x="47.021365" y="230.031" xlink:href="#j"/>
<use x="52.25173" y="230.031" xlink:href="#l"/>
<use x="57.482095" y="230.031" xlink:href="#b"/>
<use x="62.71246" y="230.031" xlink:href="#c"/>
<use x="286.76" y="200.486" xlink:href="#g"/>
<use x="291.990365" y="200.486" xlink:href="#m"/>
<use x="297.22073" y="200.486" xlink:href="#d"/>
<use x="307.68146" y="200.486" xlink:href="#m"/>
<use x="312.911825" y="200.486" xlink:href="#n"/>
<use x="318.14219" y="200.486" xlink:href="#a"/>
</g>
<path transform="matrix(1 0 0 -1 324 200.29)" d="m0 0.0018438h3.1367" fill="none" stroke="#000" stroke-miterlimit="10" stroke-width=".398"/>
<g>
<use x="327.138" y="200.486" xlink:href="#i"/>
<use x="332.368365" y="200.486" xlink:href="#n"/>
<use x="337.59873" y="200.486" xlink:href="#c"/>
<use x="342.829095" y="200.486" xlink:href="#c"/>
<use x="348.05946" y="200.486" xlink:href="#g"/>
<use x="353.289825" y="200.486" xlink:href="#t"/>
<use x="358.52019" y="200.486" xlink:href="#a"/>
<use x="363.750555" y="200.486" xlink:href="#e"/>
<use x="368.98092" y="200.486" xlink:href="#o"/>
<use x="374.211285" y="200.486" xlink:href="#f"/>
<use x="286.76" y="212.77" xlink:href="#g"/>
<use x="291.990365" y="212.77" xlink:href="#m"/>
<use x="297.22073" y="212.77" xlink:href="#d"/>
<use x="307.68146" y="212.77" xlink:href="#j"/>
<use x="312.911825" y="212.77" xlink:href="#h"/>
<use x="318.14219" y="212.77" xlink:href="#s"/>
<use x="323.372555" y="212.77" xlink:href="#ag"/>
<use x="328.60292" y="212.77" xlink:href="#af"/>
<use x="333.833285" y="212.77" xlink:href="#e"/>
<use x="339.06365" y="212.77" xlink:href="#o"/>
<use x="344.294015" y="212.77" xlink:href="#u"/>
<use x="349.52438" y="212.77" xlink:href="#ai"/>
<use x="354.754745" y="212.77" xlink:href="#f"/>
<use x="0.442" y="188.202" xlink:href="#c"/>
<use x="5.672365" y="188.202" xlink:href="#d"/>
<use x="10.90273" y="188.202" xlink:href="#a"/>
</g>
<path transform="matrix(1 0 0 -1 16.761 188)" d="m7.1875e-4 -0.0019062h3.1367" fill="none" stroke="#000" stroke-miterlimit="10" stroke-width=".398"/>
<g>
<use x="19.899" y="188.202" xlink:href="#c"/>
<use x="25.129365" y="188.202" xlink:href="#b"/>
<use x="30.35973" y="188.202" xlink:href="#i"/>
<use x="35.590095" y="188.202" xlink:href="#b"/>
<use x="40.82046" y="188.202" xlink:href="#j"/>
<use x="46.050825" y="188.202" xlink:href="#z"/>
<use x="51.28119" y="188.202" xlink:href="#b"/>
<use x="56.511555" y="188.202" xlink:href="#e"/>
<use x="61.74192" y="188.202" xlink:href="#o"/>
<use x="66.972285" y="188.202" xlink:href="#f"/>
<use x="0.442" y="200.486" xlink:href="#g"/>
<use x="5.672365" y="200.486" xlink:href="#m"/>
<use x="10.90273" y="200.486" xlink:href="#d"/>
<use x="21.36346" y="200.486" xlink:href="#m"/>
<use x="26.593825" y="200.486" xlink:href="#n"/>
<use x="31.82419" y="200.486" xlink:href="#a"/>
</g>
<path transform="matrix(1 0 0 -1 37.682 200.29)" d="m0.0015938 0.0018438h3.1367" fill="none" stroke="#000" stroke-miterlimit="10" stroke-width=".398"/>
<g>
<use x="40.82" y="200.486" xlink:href="#i"/>
<use x="46.050365" y="200.486" xlink:href="#n"/>
<use x="51.28073" y="200.486" xlink:href="#c"/>
<use x="56.511095" y="200.486" xlink:href="#c"/>
<use x="61.74146" y="200.486" xlink:href="#g"/>
<use x="66.971825" y="200.486" xlink:href="#t"/>
<use x="72.20219" y="200.486" xlink:href="#a"/>
<use x="77.432555" y="200.486" xlink:href="#e"/>
<use x="82.66292" y="200.486" xlink:href="#o"/>
<use x="87.893285" y="200.486" xlink:href="#f"/>
<use x="250.375" y="265.466" xlink:href="#ae"/>
<use x="259.787664" y="265.466" xlink:href="#w"/>
<use x="264.768964" y="265.466" xlink:href="#p"/>
<use x="268.671315" y="265.466" xlink:href="#ab"/>
<use x="272.54577" y="265.466" xlink:href="#r"/>
<use x="280.290695" y="265.466" xlink:href="#w"/>
<use x="285.271995" y="265.466" xlink:href="#q"/>
<use x="290.807216" y="265.466" xlink:href="#v"/>
<use x="239.707" y="277.751" xlink:href="#aa"/>
<use x="247.17895" y="277.751" xlink:href="#q"/>
<use x="252.714171" y="277.751" xlink:href="#v"/>
<use x="255.758741" y="277.751" xlink:href="#p"/>
<use x="259.661092" y="277.751" xlink:href="#q"/>
<use x="265.196312" y="277.751" xlink:href="#v"/>
<use x="271.558428" y="277.751" xlink:href="#aq"/>
<use x="279.857274" y="277.751" xlink:href="#ad"/>
<use x="285.392495" y="277.751" xlink:href="#q"/>
<use x="290.927715" y="277.751" xlink:href="#p"/>
<use x="294.830066" y="277.751" xlink:href="#bb"/>
<use x="298.988455" y="277.751" xlink:href="#ba"/>
<use x="255.771" y="290.035" xlink:href="#az"/>
<use x="261.306221" y="290.035" xlink:href="#r"/>
<use x="265.7336" y="290.035" xlink:href="#ay"/>
<use x="271.268821" y="290.035" xlink:href="#ad"/>
<use x="276.804041" y="290.035" xlink:href="#r"/>
<use x="281.231421" y="290.035" xlink:href="#p"/>
<use x="285.133771" y="290.035" xlink:href="#ax"/>
<use x="256.546" y="302.319" xlink:href="#aw"/>
<use x="262.081221" y="302.319" xlink:href="#p"/>
<use x="265.983571" y="302.319" xlink:href="#av"/>
<use x="270.964871" y="302.319" xlink:href="#au"/>
<use x="275.39225" y="302.319" xlink:href="#r"/>
<use x="279.81963" y="302.319" xlink:href="#ac"/>
<use x="283.748879" y="302.319" xlink:href="#ac"/>
<use x="250.375" y="128.922" xlink:href="#ae"/>
<use x="259.787664" y="128.922" xlink:href="#w"/>
<use x="264.768964" y="128.922" xlink:href="#p"/>
<use x="268.671315" y="128.922" xlink:href="#ab"/>
<use x="272.54577" y="128.922" xlink:href="#r"/>
<use x="280.290695" y="128.922" xlink:href="#w"/>
<use x="285.271995" y="128.922" xlink:href="#q"/>
<use x="290.807216" y="128.922" xlink:href="#v"/>
<use x="259.498" y="141.206" xlink:href="#aa"/>
<use x="266.690997" y="141.206" xlink:href="#at"/>
<use x="273.885987" y="141.206" xlink:href="#as"/>
<use x="281.634897" y="141.206" xlink:href="#ar"/>
<use x="94.459" y="116.638" xlink:href="#ae"/>
<use x="103.871664" y="116.638" xlink:href="#w"/>
<use x="108.852964" y="116.638" xlink:href="#p"/>
<use x="112.755315" y="116.638" xlink:href="#ab"/>
<use x="116.62977" y="116.638" xlink:href="#r"/>
<use x="124.374695" y="116.638" xlink:href="#w"/>
<use x="129.355995" y="116.638" xlink:href="#q"/>
<use x="134.891216" y="116.638" xlink:href="#v"/>
<use x="83.791" y="128.922" xlink:href="#aa"/>
<use x="91.26295" y="128.922" xlink:href="#q"/>
<use x="96.798171" y="128.922" xlink:href="#v"/>
<use x="99.842741" y="128.922" xlink:href="#p"/>
<use x="103.745092" y="128.922" xlink:href="#q"/>
<use x="109.280312" y="128.922" xlink:href="#v"/>
<use x="115.642428" y="128.922" xlink:href="#ar"/>
<use x="123.941274" y="128.922" xlink:href="#ad"/>
<use x="129.476495" y="128.922" xlink:href="#q"/>
<use x="135.011715" y="128.922" xlink:href="#p"/>
<use x="138.914066" y="128.922" xlink:href="#bb"/>
<use x="143.072455" y="128.922" xlink:href="#ba"/>
<use x="99.856" y="141.206" xlink:href="#az"/>
<use x="105.391221" y="141.206" xlink:href="#r"/>
<use x="109.8186" y="141.206" xlink:href="#ay"/>
<use x="115.353821" y="141.206" xlink:href="#ad"/>
<use x="120.889041" y="141.206" xlink:href="#r"/>
<use x="125.316421" y="141.206" xlink:href="#p"/>
<use x="129.218771" y="141.206" xlink:href="#ax"/>
<use x="100.631" y="153.491" xlink:href="#aw"/>
<use x="106.166221" y="153.491" xlink:href="#p"/>
<use x="110.068571" y="153.491" xlink:href="#av"/>
<use x="115.049871" y="153.491" xlink:href="#au"/>
<use x="119.47725" y="153.491" xlink:href="#r"/>
<use x="123.90463" y="153.491" xlink:href="#ac"/>
<use x="127.833879" y="153.491" xlink:href="#ac"/>
<use x="179.036" y="346.133" xlink:href="#c"/>
<use x="184.266365" y="346.133" xlink:href="#d"/>
<use x="189.49673" y="346.133" xlink:href="#a"/>
</g>
<path transform="matrix(1 0 0 -1 195.36 345.93)" d="m4.6875e-4 4.0625e-4h3.1367" fill="none" stroke="#000" stroke-miterlimit="10" stroke-width=".398"/>
<g>
<use x="198.493" y="346.133" xlink:href="#h"/>
<use x="203.723365" y="346.133" xlink:href="#b"/>
<use x="208.95373" y="346.133" xlink:href="#m"/>
<use x="214.184095" y="346.133" xlink:href="#d"/>
<use x="219.41446" y="346.133" xlink:href="#e"/>
<use x="224.644825" y="346.133" xlink:href="#d"/>
<use x="229.87519" y="346.133" xlink:href="#k"/>
<use x="235.105555" y="346.133" xlink:href="#a"/>
<use x="240.33592" y="346.133" xlink:href="#k"/>
<use x="245.566285" y="346.133" xlink:href="#f"/>
<use x="94.459" y="277.751" xlink:href="#ae"/>
<use x="103.871664" y="277.751" xlink:href="#w"/>
<use x="108.852964" y="277.751" xlink:href="#p"/>
<use x="112.755315" y="277.751" xlink:href="#ab"/>
<use x="116.62977" y="277.751" xlink:href="#r"/>
<use x="124.374695" y="277.751" xlink:href="#w"/>
<use x="129.355995" y="277.751" xlink:href="#q"/>
<use x="134.891216" y="277.751" xlink:href="#v"/>
<use x="102.637" y="290.035" xlink:href="#aa"/>
<use x="109.829997" y="290.035" xlink:href="#at"/>
<use x="117.024987" y="290.035" xlink:href="#as"/>
<use x="124.773897" y="290.035" xlink:href="#aq"/>
<use x="327.392" y="111.819" xlink:href="#a"/>
<use x="332.622365" y="111.819" xlink:href="#j"/>
<use x="337.85273" y="111.819" xlink:href="#l"/>
<use x="343.083095" y="111.819" xlink:href="#b"/>
<use x="348.31346" y="111.819" xlink:href="#n"/>
<use x="353.543825" y="111.819" xlink:href="#g"/>
<use x="358.77419" y="111.819" xlink:href="#a"/>
<use x="328.809" y="130.025" xlink:href="#g"/>
<use x="334.039365" y="130.025" xlink:href="#d"/>
<use x="339.26973" y="130.025" xlink:href="#a"/>
</g>
<path transform="matrix(1 0 0 -1 345.13 129.82)" d="m9.0625e-4 7.8125e-4h3.1367" fill="none" stroke="#000" stroke-miterlimit="10" stroke-width=".398"/>
<g>
<use x="348.266" y="130.025" xlink:href="#h"/>
<use x="353.496365" y="130.025" xlink:href="#b"/>
<use x="358.72673" y="130.025" xlink:href="#m"/>
<use x="363.957095" y="130.025" xlink:href="#d"/>
<use x="369.18746" y="130.025" xlink:href="#e"/>
<use x="374.417825" y="130.025" xlink:href="#s"/>
<use x="379.64819" y="130.025" xlink:href="#f"/>
<use x="328.81" y="142.309" xlink:href="#h"/>
<use x="334.040365" y="142.309" xlink:href="#a"/>
<use x="339.27073" y="142.309" xlink:href="#k"/>
<use x="344.501095" y="142.309" xlink:href="#c"/>
<use x="349.73146" y="142.309" xlink:href="#a"/>
</g>
<path transform="matrix(1 0 0 -1 355.59 142.11)" d="m8.4375e-4 6.25e-4h3.1367" fill="none" stroke="#000" stroke-miterlimit="10" stroke-width=".398"/>
<g>
<use x="358.727" y="142.309" xlink:href="#a"/>
<use x="363.957365" y="142.309" xlink:href="#j"/>
<use x="369.18773" y="142.309" xlink:href="#l"/>
<use x="374.418095" y="142.309" xlink:href="#b"/>
<use x="379.64846" y="142.309" xlink:href="#c"/>
<use x="179.036" y="361.095" xlink:href="#i"/>
<use x="184.266365" y="361.095" xlink:href="#n"/>
<use x="189.49673" y="361.095" xlink:href="#l"/>
<use x="194.727095" y="361.095" xlink:href="#t"/>
<use x="199.95746" y="361.095" xlink:href="#g"/>
<use x="205.187825" y="361.095" xlink:href="#a"/>
<use x="210.41819" y="361.095" xlink:href="#b"/>
<use x="220.87892" y="361.095" xlink:href="#i"/>
<use x="226.109285" y="361.095" xlink:href="#ah"/>
<use x="231.33965" y="361.095" xlink:href="#b"/>
<use x="236.570015" y="361.095" xlink:href="#i"/>
<use x="241.80038" y="361.095" xlink:href="#x"/>
<use x="247.030745" y="361.095" xlink:href="#h"/>
<use x="252.26111" y="361.095" xlink:href="#g"/>
<use x="257.491475" y="361.095" xlink:href="#l"/>
<use x="179.036" y="397.947" xlink:href="#h"/>
<use x="184.266365" y="397.947" xlink:href="#a"/>
<use x="189.49673" y="397.947" xlink:href="#k"/>
<use x="194.727095" y="397.947" xlink:href="#c"/>
<use x="199.95746" y="397.947" xlink:href="#a"/>
</g>
<path transform="matrix(1 0 0 -1 205.82 397.75)" d="m0.0014062 0.0019062h3.1367" fill="none" stroke="#000" stroke-miterlimit="10" stroke-width=".398"/>
<g>
<use x="208.954" y="397.947" xlink:href="#a"/>
<use x="214.184365" y="397.947" xlink:href="#j"/>
<use x="219.41473" y="397.947" xlink:href="#l"/>
<use x="224.645095" y="397.947" xlink:href="#b"/>
<use x="229.87546" y="397.947" xlink:href="#c"/>
<use x="179.036" y="385.978" xlink:href="#g"/>
<use x="184.266365" y="385.978" xlink:href="#d"/>
<use x="189.49673" y="385.978" xlink:href="#a"/>
</g>
<path transform="matrix(1 0 0 -1 195.36 385.78)" d="m4.6875e-4 0.0016562h3.1367" fill="none" stroke="#000" stroke-miterlimit="10" stroke-width=".398"/>
<g>
<use x="198.493" y="385.978" xlink:href="#h"/>
<use x="203.723365" y="385.978" xlink:href="#b"/>
<use x="208.95373" y="385.978" xlink:href="#m"/>
<use x="214.184095" y="385.978" xlink:href="#d"/>
<use x="219.41446" y="385.978" xlink:href="#e"/>
<use x="224.644825" y="385.978" xlink:href="#s"/>
<use x="229.87519" y="385.978" xlink:href="#f"/>
<use x="179.036" y="373.379" xlink:href="#l"/>
<use x="184.266365" y="373.379" xlink:href="#k"/>
<use x="189.49673" y="373.379" xlink:href="#x"/>
<use x="194.727095" y="373.379" xlink:href="#b"/>
</g>
<path transform="matrix(1 0 0 -1 200.58 373.18)" d="m9.375e-4 3.125e-4h3.1367" fill="none" stroke="#000" stroke-miterlimit="10" stroke-width=".398"/>
<g>
<use x="203.723" y="373.379" xlink:href="#t"/>
<use x="208.953365" y="373.379" xlink:href="#k"/>
<use x="214.18373" y="373.379" xlink:href="#x"/>
<use x="219.414095" y="373.379" xlink:href="#b"/>
<use x="224.64446" y="373.379" xlink:href="#a"/>
<use x="229.874825" y="373.379" xlink:href="#e"/>
<use x="235.10519" y="373.379" xlink:href="#s"/>
<use x="240.335555" y="373.379" xlink:href="#u"/>
<use x="245.56592" y="373.379" xlink:href="#aj"/>
<use x="250.796285" y="373.379" xlink:href="#u"/>
<use x="256.02665" y="373.379" xlink:href="#d"/>
<use x="261.257015" y="373.379" xlink:href="#k"/>
<use x="266.48738" y="373.379" xlink:href="#a"/>
<use x="271.717745" y="373.379" xlink:href="#k"/>
<use x="276.94811" y="373.379" xlink:href="#u"/>
<use x="282.178475" y="373.379" xlink:href="#i"/>
<use x="287.40884" y="373.379" xlink:href="#ah"/>
<use x="292.639205" y="373.379" xlink:href="#b"/>
<use x="297.86957" y="373.379" xlink:href="#i"/>
<use x="303.099935" y="373.379" xlink:href="#x"/>
<use x="308.3303" y="373.379" xlink:href="#h"/>
<use x="313.560665" y="373.379" xlink:href="#g"/>
<use x="318.79103" y="373.379" xlink:href="#l"/>
<use x="324.021395" y="373.379" xlink:href="#f"/>
<use x="228.205" y="57.957" xlink:href="#c"/>
<use x="233.435365" y="57.957" xlink:href="#d"/>
<use x="238.66573" y="57.957" xlink:href="#a"/>
</g>
<path transform="matrix(1 0 0 -1 244.52 57.758)" d="m4.375e-4 1.875e-4h3.1367" fill="none" stroke="#000" stroke-miterlimit="10" stroke-width=".398"/>
<g>
<use x="247.661" y="57.957" xlink:href="#c"/>
<use x="252.891365" y="57.957" xlink:href="#b"/>
<use x="258.12173" y="57.957" xlink:href="#i"/>
<use x="263.352095" y="57.957" xlink:href="#b"/>
<use x="268.58246" y="57.957" xlink:href="#j"/>
<use x="273.812825" y="57.957" xlink:href="#z"/>
<use x="279.04319" y="57.957" xlink:href="#b"/>
<use x="284.273555" y="57.957" xlink:href="#e"/>
<use x="289.50392" y="57.957" xlink:href="#o"/>
<use x="294.734285" y="57.957" xlink:href="#f"/>
<use x="228.205" y="70.399" xlink:href="#g"/>
<use x="233.435365" y="70.399" xlink:href="#m"/>
<use x="238.66573" y="70.399" xlink:href="#d"/>
<use x="245.63955" y="70.399" xlink:href="#e"/>
<use x="250.869915" y="70.399" xlink:href="#i"/>
<use x="256.10028" y="70.399" xlink:href="#n"/>
<use x="261.330645" y="70.399" xlink:href="#c"/>
<use x="266.56101" y="70.399" xlink:href="#c"/>
<use x="271.791375" y="70.399" xlink:href="#g"/>
<use x="277.02174" y="70.399" xlink:href="#t"/>
<use x="282.252105" y="70.399" xlink:href="#a"/>
<use x="287.48247" y="70.399" xlink:href="#e"/>
<use x="292.712835" y="70.399" xlink:href="#o"/>
<use x="297.9432" y="70.399" xlink:href="#f"/>
<use x="304.91702" y="70.399" xlink:href="#n"/>
<use x="310.147385" y="70.399" xlink:href="#d"/>
<use x="315.37775" y="70.399" xlink:href="#b"/>
<use x="320.608115" y="70.399" xlink:href="#c"/>
<use x="329.32539" y="70.399" xlink:href="#j"/>
<use x="334.555755" y="70.399" xlink:href="#h"/>
<use x="339.78612" y="70.399" xlink:href="#s"/>
<use x="345.016485" y="70.399" xlink:href="#ag"/>
<use x="350.24685" y="70.399" xlink:href="#af"/>
<use x="355.477215" y="70.399" xlink:href="#e"/>
<use x="360.70758" y="70.399" xlink:href="#o"/>
<use x="365.937945" y="70.399" xlink:href="#u"/>
<use x="371.16831" y="70.399" xlink:href="#aj"/>
<use x="376.398675" y="70.399" xlink:href="#f"/>
<use x="381.62904" y="70.399" xlink:href="#f"/>
<use x="0.001" y="31.593" xlink:href="#bk"/>
<use x="8.776117" y="31.593" xlink:href="#an"/>
<use x="15.925326" y="31.593" xlink:href="#be"/>
<use x="20.542425" y="31.593" xlink:href="#y"/>
<use x="25.745328" y="31.593" xlink:href="#bd"/>
<use x="32.248956" y="31.593" xlink:href="#bc"/>
<use x="38.752585" y="31.593" xlink:href="#am"/>
<use x="42.654763" y="31.593" xlink:href="#al"/>
<use x="50.296526" y="31.593" xlink:href="#ak"/>
<use x="56.149792" y="31.593" xlink:href="#ap"/>
<use x="62.005449" y="31.593" xlink:href="#y"/>
<use x="67.208352" y="31.593" xlink:href="#ao"/>
<use x="286.76" y="188.202" xlink:href="#c"/>
<use x="291.990365" y="188.202" xlink:href="#d"/>
<use x="297.22073" y="188.202" xlink:href="#a"/>
</g>
<path transform="matrix(1 0 0 -1 303.08 188)" d="m1.25e-4 -0.0019062h3.1367" fill="none" stroke="#000" stroke-miterlimit="10" stroke-width=".398"/>
<g>
<use x="306.216" y="188.202" xlink:href="#c"/>
<use x="311.446365" y="188.202" xlink:href="#b"/>
<use x="316.67673" y="188.202" xlink:href="#i"/>
<use x="321.907095" y="188.202" xlink:href="#b"/>
<use x="327.13746" y="188.202" xlink:href="#j"/>
<use x="332.367825" y="188.202" xlink:href="#z"/>
<use x="337.59819" y="188.202" xlink:href="#b"/>
<use x="342.828555" y="188.202" xlink:href="#e"/>
<use x="348.05892" y="188.202" xlink:href="#o"/>
<use x="353.289285" y="188.202" xlink:href="#f"/>
<use x="0.001" y="45.767" xlink:href="#bj"/>
<use x="8.290736" y="45.767" xlink:href="#an"/>
<use x="15.439945" y="45.767" xlink:href="#bi"/>
<use x="19.992485" y="45.767" xlink:href="#y"/>
<use x="25.195388" y="45.767" xlink:href="#bh"/>
<use x="30.398292" y="45.767" xlink:href="#y"/>
<use x="35.601195" y="45.767" xlink:href="#bg"/>
<use x="38.853009" y="45.767" xlink:href="#bf"/>
<use x="44.708666" y="45.767" xlink:href="#y"/>
<use x="49.911569" y="45.767" xlink:href="#am"/>
<use x="53.813746" y="45.767" xlink:href="#al"/>
<use x="61.45551" y="45.767" xlink:href="#ak"/>
<use x="67.308776" y="45.767" xlink:href="#ap"/>
<use x="73.164433" y="45.767" xlink:href="#y"/>
<use x="78.367336" y="45.767" xlink:href="#ao"/>
<use x="2.363" y="275.829" xlink:href="#a"/>
<use x="7.593365" y="275.829" xlink:href="#j"/>
<use x="12.82373" y="275.829" xlink:href="#l"/>
<use x="18.054095" y="275.829" xlink:href="#b"/>
<use x="23.28446" y="275.829" xlink:href="#n"/>
<use x="28.514825" y="275.829" xlink:href="#g"/>
<use x="33.74519" y="275.829" xlink:href="#a"/>
<use x="1.418" y="294.067" xlink:href="#g"/>
<use x="6.648365" y="294.067" xlink:href="#d"/>
<use x="11.87873" y="294.067" xlink:href="#a"/>
</g>
<path transform="matrix(1 0 0 -1 17.737 293.87)" d="m0.0012812-1.875e-4h3.1367" fill="none" stroke="#000" stroke-miterlimit="10" stroke-width=".398"/>
<g>
<use x="20.875" y="294.067" xlink:href="#h"/>
<use x="26.105365" y="294.067" xlink:href="#b"/>
<use x="31.33573" y="294.067" xlink:href="#m"/>
<use x="36.566095" y="294.067" xlink:href="#d"/>
<use x="41.79646" y="294.067" xlink:href="#e"/>
<use x="47.026825" y="294.067" xlink:href="#s"/>
<use x="52.25719" y="294.067" xlink:href="#f"/>
<use x="1.418" y="306.351" xlink:href="#h"/>
<use x="6.648365" y="306.351" xlink:href="#a"/>
<use x="11.87873" y="306.351" xlink:href="#k"/>
<use x="17.109095" y="306.351" xlink:href="#c"/>
<use x="22.33946" y="306.351" xlink:href="#a"/>
</g>
<path transform="matrix(1 0 0 -1 28.198 306.15)" d="m0.0012188-3.4375e-4h3.1367" fill="none" stroke="#000" stroke-miterlimit="10" stroke-width=".398"/>
<g>
<use x="31.336" y="306.351" xlink:href="#a"/>
<use x="36.566365" y="306.351" xlink:href="#j"/>
<use x="41.79673" y="306.351" xlink:href="#l"/>
<use x="47.027095" y="306.351" xlink:href="#b"/>
<use x="52.25746" y="306.351" xlink:href="#c"/>
<use x="271.168" y="326.415" xlink:href="#c"/>
<use x="276.398365" y="326.415" xlink:href="#d"/>
<use x="281.62873" y="326.415" xlink:href="#a"/>
</g>
<path transform="matrix(1 0 0 -1 287.49 326.22)" d="m0.0012812 0.0011562h3.1367" fill="none" stroke="#000" stroke-miterlimit="10" stroke-width=".398"/>
<g>
<use x="290.625" y="326.415" xlink:href="#c"/>
<use x="295.855365" y="326.415" xlink:href="#b"/>
<use x="301.08573" y="326.415" xlink:href="#i"/>
<use x="306.316095" y="326.415" xlink:href="#b"/>
<use x="311.54646" y="326.415" xlink:href="#j"/>
<use x="316.776825" y="326.415" xlink:href="#z"/>
<use x="322.00719" y="326.415" xlink:href="#b"/>
<use x="327.237555" y="326.415" xlink:href="#e"/>
<use x="332.46792" y="326.415" xlink:href="#o"/>
<use x="337.698285" y="326.415" xlink:href="#f"/>
<use x="0.001" y="102.464" xlink:href="#c"/>
<use x="5.231365" y="102.464" xlink:href="#d"/>
<use x="10.46173" y="102.464" xlink:href="#a"/>
</g>
<path transform="matrix(1 0 0 -1 16.32 102.26)" d="m3.125e-4 -6.25e-4h3.1367" fill="none" stroke="#000" stroke-miterlimit="10" stroke-width=".398"/>
<g>
<use x="19.458" y="102.464" xlink:href="#c"/>
<use x="24.688365" y="102.464" xlink:href="#b"/>
<use x="29.91873" y="102.464" xlink:href="#i"/>
<use x="35.149095" y="102.464" xlink:href="#b"/>
<use x="40.37946" y="102.464" xlink:href="#j"/>
<use x="45.609825" y="102.464" xlink:href="#z"/>
<use x="50.84019" y="102.464" xlink:href="#b"/>
<use x="56.070555" y="102.464" xlink:href="#e"/>
<use x="61.30092" y="102.464" xlink:href="#o"/>
<use x="66.531285" y="102.464" xlink:href="#f"/>
<use x="119.032" y="6.93" xlink:href="#c"/>
<use x="124.262365" y="6.93" xlink:href="#d"/>
<use x="129.49273" y="6.93" xlink:href="#a"/>
</g>
<path transform="matrix(1 0 0 -1 135.35 6.731)" d="m5.625e-4 5.3125e-4h3.1367" fill="none" stroke="#000" stroke-miterlimit="10" stroke-width=".398"/>
<g>
<use x="138.489" y="6.93" xlink:href="#h"/>
<use x="143.719365" y="6.93" xlink:href="#b"/>
<use x="148.94973" y="6.93" xlink:href="#m"/>
<use x="154.180095" y="6.93" xlink:href="#d"/>
<use x="159.41046" y="6.93" xlink:href="#e"/>
<use x="164.640825" y="6.93" xlink:href="#d"/>
<use x="169.87119" y="6.93" xlink:href="#k"/>
<use x="175.101555" y="6.93" xlink:href="#a"/>
<use x="180.33192" y="6.93" xlink:href="#k"/>
<use x="185.562285" y="6.93" xlink:href="#f"/>
<use x="119.032" y="23.719" xlink:href="#i"/>
<use x="124.262365" y="23.719" xlink:href="#n"/>
<use x="129.49273" y="23.719" xlink:href="#l"/>
<use x="134.723095" y="23.719" xlink:href="#t"/>
<use x="139.95346" y="23.719" xlink:href="#g"/>
<use x="145.183825" y="23.719" xlink:href="#a"/>
<use x="150.41419" y="23.719" xlink:href="#b"/>
<use x="160.87492" y="23.719" xlink:href="#i"/>
<use x="166.105285" y="23.719" xlink:href="#ah"/>
<use x="171.33565" y="23.719" xlink:href="#b"/>
<use x="176.566015" y="23.719" xlink:href="#i"/>
<use x="181.79638" y="23.719" xlink:href="#x"/>
<use x="187.026745" y="23.719" xlink:href="#h"/>
<use x="192.25711" y="23.719" xlink:href="#g"/>
<use x="197.487475" y="23.719" xlink:href="#l"/>
<use x="119.032" y="60.571" xlink:href="#h"/>
<use x="124.262365" y="60.571" xlink:href="#a"/>
<use x="129.49273" y="60.571" xlink:href="#k"/>
<use x="134.723095" y="60.571" xlink:href="#c"/>
<use x="139.95346" y="60.571" xlink:href="#a"/>
</g>
<path transform="matrix(1 0 0 -1 145.81 60.372)" d="m5e-4 9.0625e-4h3.1367" fill="none" stroke="#000" stroke-miterlimit="10" stroke-width=".398"/>
<g>
<use x="148.95" y="60.571" xlink:href="#a"/>
<use x="154.180365" y="60.571" xlink:href="#j"/>
<use x="159.41073" y="60.571" xlink:href="#l"/>
<use x="164.641095" y="60.571" xlink:href="#b"/>
<use x="169.87146" y="60.571" xlink:href="#c"/>
<use x="119.032" y="36.003" xlink:href="#l"/>
<use x="124.262365" y="36.003" xlink:href="#k"/>
<use x="129.49273" y="36.003" xlink:href="#x"/>
<use x="134.723095" y="36.003" xlink:href="#b"/>
</g>
<path transform="matrix(1 0 0 -1 140.58 35.804)" d="m0.0010312-6.875e-4h3.1367" fill="none" stroke="#000" stroke-miterlimit="10" stroke-width=".398"/>
<g>
<use x="143.719" y="36.003" xlink:href="#t"/>
<use x="148.949365" y="36.003" xlink:href="#k"/>
<use x="154.17973" y="36.003" xlink:href="#x"/>
<use x="159.410095" y="36.003" xlink:href="#b"/>
<use x="164.64046" y="36.003" xlink:href="#a"/>
<use x="169.870825" y="36.003" xlink:href="#e"/>
<use x="175.10119" y="36.003" xlink:href="#s"/>
<use x="180.331555" y="36.003" xlink:href="#u"/>
<use x="185.56192" y="36.003" xlink:href="#ai"/>
<use x="190.792285" y="36.003" xlink:href="#u"/>
<use x="196.02265" y="36.003" xlink:href="#d"/>
<use x="201.253015" y="36.003" xlink:href="#k"/>
<use x="206.48338" y="36.003" xlink:href="#a"/>
<use x="211.713745" y="36.003" xlink:href="#k"/>
<use x="216.94411" y="36.003" xlink:href="#u"/>
<use x="222.174475" y="36.003" xlink:href="#i"/>
<use x="227.40484" y="36.003" xlink:href="#ah"/>
<use x="232.635205" y="36.003" xlink:href="#b"/>
<use x="237.86557" y="36.003" xlink:href="#i"/>
<use x="243.095935" y="36.003" xlink:href="#x"/>
<use x="248.3263" y="36.003" xlink:href="#h"/>
<use x="253.556665" y="36.003" xlink:href="#g"/>
<use x="258.78703" y="36.003" xlink:href="#l"/>
<use x="264.017395" y="36.003" xlink:href="#f"/>
<use x="119.032" y="48.287" xlink:href="#g"/>
<use x="124.262365" y="48.287" xlink:href="#d"/>
<use x="129.49273" y="48.287" xlink:href="#a"/>
</g>
<path transform="matrix(1 0 0 -1 135.35 48.088)" d="m5.625e-4 -0.0018438h3.1367" fill="none" stroke="#000" stroke-miterlimit="10" stroke-width=".398"/>
<g>
<use x="138.489" y="48.287" xlink:href="#h"/>
<use x="143.719365" y="48.287" xlink:href="#b"/>
<use x="148.94973" y="48.287" xlink:href="#m"/>
<use x="154.180095" y="48.287" xlink:href="#d"/>
<use x="159.41046" y="48.287" xlink:href="#e"/>
<use x="164.640825" y="48.287" xlink:href="#s"/>
<use x="169.87119" y="48.287" xlink:href="#f"/>
<use x="7.529" y="338.794" xlink:href="#c"/>
<use x="12.759365" y="338.794" xlink:href="#d"/>
<use x="17.98973" y="338.794" xlink:href="#a"/>
</g>
<path transform="matrix(1 0 0 -1 23.848 338.6)" d="m-3.4375e-4 0.00125h3.1367" fill="none" stroke="#000" stroke-miterlimit="10" stroke-width=".398"/>
<g>
<use x="26.986" y="338.794" xlink:href="#c"/>
<use x="32.216365" y="338.794" xlink:href="#b"/>
<use x="37.44673" y="338.794" xlink:href="#i"/>
<use x="42.677095" y="338.794" xlink:href="#b"/>
<use x="47.90746" y="338.794" xlink:href="#j"/>
<use x="53.137825" y="338.794" xlink:href="#z"/>
<use x="58.36819" y="338.794" xlink:href="#b"/>
<use x="63.598555" y="338.794" xlink:href="#e"/>
<use x="68.82892" y="338.794" xlink:href="#o"/>
<use x="74.059285" y="338.794" xlink:href="#f"/>
<use x="7.529" y="351.078" xlink:href="#g"/>
<use x="12.759365" y="351.078" xlink:href="#m"/>
<use x="17.98973" y="351.078" xlink:href="#d"/>
<use x="24.96355" y="351.078" xlink:href="#e"/>
<use x="30.193915" y="351.078" xlink:href="#i"/>
<use x="35.42428" y="351.078" xlink:href="#n"/>
<use x="40.654645" y="351.078" xlink:href="#c"/>
<use x="45.88501" y="351.078" xlink:href="#c"/>
<use x="51.115375" y="351.078" xlink:href="#g"/>
<use x="56.34574" y="351.078" xlink:href="#t"/>
<use x="61.576105" y="351.078" xlink:href="#a"/>
<use x="66.80647" y="351.078" xlink:href="#e"/>
<use x="72.036835" y="351.078" xlink:href="#o"/>
<use x="77.2672" y="351.078" xlink:href="#f"/>
<use x="84.24102" y="351.078" xlink:href="#n"/>
<use x="89.471385" y="351.078" xlink:href="#d"/>
<use x="94.70175" y="351.078" xlink:href="#b"/>
<use x="99.932115" y="351.078" xlink:href="#c"/>
<use x="108.64939" y="351.078" xlink:href="#j"/>
<use x="113.879755" y="351.078" xlink:href="#h"/>
<use x="119.11012" y="351.078" xlink:href="#s"/>
<use x="124.340485" y="351.078" xlink:href="#ag"/>
<use x="129.57085" y="351.078" xlink:href="#af"/>
<use x="134.801215" y="351.078" xlink:href="#e"/>
<use x="140.03158" y="351.078" xlink:href="#o"/>
<use x="145.261945" y="351.078" xlink:href="#u"/>
<use x="150.49231" y="351.078" xlink:href="#ai"/>
<use x="155.722675" y="351.078" xlink:href="#f"/>
<use x="160.95304" y="351.078" xlink:href="#f"/>
</g>
</svg>
