<svg width="385pt" height="376pt" version="1.1" viewBox="0 0 385 376" xmlns="http://www.w3.org/2000/svg" xmlns:xlink="http://www.w3.org/1999/xlink">
<defs>
<g id="g">
<path d="m3.5625-0.3125c0.015625 0.3125 0.21875 0.3125 0.40625 0.3125h0.71875c0.17188 0 0.42188 0 0.42188-0.3125 0-0.29688-0.26562-0.29688-0.40625-0.29688h-0.45312v-3.2812c0-0.3125-0.046875-0.40625-0.39062-0.40625h-0.73438c-0.15625 0-0.40625 0-0.40625 0.3125 0 0.29688 0.26562 0.29688 0.40625 0.29688h0.4375v2.125c0 0.89062-0.79688 1.0156-1.125 1.0156-0.78125 0-0.78125-0.32812-0.78125-0.65625v-2.6875c0-0.3125-0.0625-0.40625-0.40625-0.40625h-0.71875c-0.15625 0-0.40625 0-0.40625 0.3125 0 0.29688 0.25 0.29688 0.39062 0.29688h0.45312v2.5469c0 0.96875 0.6875 1.2031 1.4062 1.2031 0.42188 0 0.82812-0.10938 1.1875-0.375z"/>
</g>
<g id="i">
<path d="m1.6562-3.8281c0-0.3125 0-0.46875-0.40625-0.46875h-0.71875c-0.15625 0-0.40625 0-0.40625 0.3125 0 0.29688 0.25 0.29688 0.39062 0.29688h0.45312v3.0781h-0.4375c-0.15625 0-0.40625 0-0.40625 0.3125 0 0.29688 0.25 0.29688 0.39062 0.29688h1.5938c0.14062 0 0.39062 0 0.39062-0.29688 0-0.3125-0.25-0.3125-0.40625-0.3125h-0.4375v-1.7656c0-1 0.73438-1.375 1.25-1.375s0.65625 0.28125 0.65625 0.875v2.2656h-0.375c-0.17188 0-0.42188 0-0.42188 0.3125 0 0.29688 0.28125 0.29688 0.42188 0.29688h1.5156c0.14062 0 0.40625 0 0.40625-0.29688 0-0.3125-0.25-0.3125-0.42188-0.3125h-0.4375v-2.3125c0-1-0.5-1.4375-1.2969-1.4375-0.65625 0-1.1094 0.34375-1.2969 0.53125z"/>
</g>
<g id="b">
<path d="m3.5625-0.5c0 0.35938 0 0.5 0.40625 0.5h0.71875c0.17188 0 0.42188 0 0.42188-0.3125 0-0.29688-0.26562-0.29688-0.40625-0.29688h-0.45312v-5.0781c0-0.29688-0.046875-0.40625-0.39062-0.40625h-0.73438c-0.15625 0-0.40625 0-0.40625 0.3125 0 0.29688 0.26562 0.29688 0.40625 0.29688h0.4375v1.5781c-0.32812-0.29688-0.73438-0.45312-1.1562-0.45312-1.0938 0-2.0469 0.95312-2.0469 2.2188 0 1.2344 0.89062 2.2031 1.9531 2.2031 0.5625 0 0.98438-0.26562 1.25-0.5625zm0-2.1406v0.70312c0 0.5625-0.4375 1.3906-1.2031 1.3906-0.71875 0-1.3125-0.70312-1.3125-1.5938 0-0.95312 0.70312-1.6094 1.3906-1.6094 0.64062 0 1.125 0.5625 1.125 1.1094z"/>
</g>
<g id="p">
<path d="m4.6562-2.1562c0-1.25-0.92188-2.2344-2.0469-2.2344-1.1094 0-2.0469 0.98438-2.0469 2.2344 0 1.2656 0.95312 2.2188 2.0469 2.2188s2.0469-0.95312 2.0469-2.2188zm-2.0469 1.6094c-0.73438 0-1.3594-0.75-1.3594-1.6719 0-0.90625 0.65625-1.5625 1.3594-1.5625 0.71875 0 1.3594 0.65625 1.3594 1.5625 0 0.92188-0.625 1.6719-1.3594 1.6719z"/>
</g>
<g id="c">
<path d="m2.2188-3.6875h1.625c0.15625 0 0.40625 0 0.40625-0.29688 0-0.3125-0.25-0.3125-0.40625-0.3125h-1.625v-0.8125c0-0.1875 0-0.40625-0.34375-0.40625s-0.34375 0.20312-0.34375 0.40625v0.8125h-0.875c-0.15625 0-0.40625 0-0.40625 0.3125 0 0.29688 0.25 0.29688 0.39062 0.29688h0.89062v2.4375c0 0.95312 0.67188 1.3125 1.4062 1.3125s1.5312-0.4375 1.5312-1.3125c0-0.1875 0-0.39062-0.34375-0.39062-0.32812 0-0.34375 0.20312-0.34375 0.375 0 0.625-0.57812 0.71875-0.79688 0.71875-0.76562 0-0.76562-0.51562-0.76562-0.76562z"/>
</g>
<g id="h">
<path d="m4.6406-1.0938c0-0.26562-0.28125-0.26562-0.34375-0.26562-0.15625 0-0.26562 0.015625-0.32812 0.21875-0.0625 0.125-0.25 0.59375-0.98438 0.59375-0.84375 0-1.5625-0.70312-1.5625-1.6094 0-0.46875 0.26562-1.625 1.625-1.625 0.20312 0 0.59375 0 0.59375 0.09375 0.015625 0.34375 0.20312 0.48438 0.4375 0.48438s0.45312-0.17188 0.45312-0.45312c0-0.73438-1.0469-0.73438-1.4844-0.73438-1.7188 0-2.3125 1.3594-2.3125 2.2344 0 1.2031 0.9375 2.2188 2.1875 2.2188 1.3906 0 1.7188-0.98438 1.7188-1.1562z"/>
</g>
<g id="f">
<path d="m2.2188-1.8594c0-0.9375 0.57812-1.8906 1.7812-1.8906 0.015625 0.23438 0.1875 0.4375 0.4375 0.4375 0.21875 0 0.42188-0.15625 0.42188-0.42188 0-0.20312-0.125-0.625-0.95312-0.625-0.5 0-1.1406 0.1875-1.6875 0.8125v-0.34375c0-0.3125-0.0625-0.40625-0.40625-0.40625h-1.0938c-0.15625 0-0.40625 0-0.40625 0.29688 0 0.3125 0.25 0.3125 0.40625 0.3125h0.8125v3.0781h-0.8125c-0.15625 0-0.40625 0-0.40625 0.29688 0 0.3125 0.25 0.3125 0.40625 0.3125h2.5938c0.15625 0 0.42188 0 0.42188-0.29688 0-0.3125-0.26562-0.3125-0.42188-0.3125h-1.0938z"/>
</g>
<g id="u">
<path d="m1.6562-2.625c0-0.59375 0.57812-1.125 1.2031-1.125 0.73438 0 1.3125 0.73438 1.3125 1.5938 0 0.95312-0.6875 1.6094-1.3906 1.6094-0.78125 0-1.125-0.875-1.125-1.3594zm0 2.1719c0.40625 0.42188 0.84375 0.51562 1.1562 0.51562 1.0781 0 2.0469-0.95312 2.0469-2.2188 0-1.2188-0.875-2.2031-1.9375-2.2031-0.48438 0-0.92188 0.1875-1.2656 0.48438 0-0.28125-0.015625-0.42188-0.40625-0.42188h-0.71875c-0.15625 0-0.40625 0-0.40625 0.3125 0 0.29688 0.25 0.29688 0.39062 0.29688h0.45312v5.2969h-0.4375c-0.15625 0-0.40625 0-0.40625 0.29688 0 0.3125 0.25 0.3125 0.39062 0.3125h1.5938c0.14062 0 0.39062 0 0.39062-0.3125 0-0.29688-0.25-0.29688-0.40625-0.29688h-0.4375z"/>
</g>
<g id="d">
<path d="m4.3594 0.53125c0-0.14062-0.078125-0.1875-0.25-0.29688-1.2344-0.84375-1.7031-2.1719-1.7031-3.2812 0-1 0.39062-2.3906 1.7188-3.2969 0.15625-0.10938 0.23438-0.14062 0.23438-0.29688 0-0.078125-0.046875-0.28125-0.3125-0.28125-0.28125 0-2.3281 1.3125-2.3281 3.875 0 1.1875 0.46875 2.0781 0.8125 2.5781 0.53125 0.73438 1.2812 1.2812 1.5156 1.2812 0.26562 0 0.3125-0.1875 0.3125-0.28125z"/>
</g>
<g id="m">
<path d="m1.5938-5.4844h1.25c0.84375 0 1.0625 0.625 1.0625 0.95312 0 0.40625-0.3125 1.0625-1.2812 1.0625h-1.0312zm1.9219 2.2969c0.64062-0.21875 1.0781-0.73438 1.0781-1.3594 0-0.73438-0.60938-1.5469-1.7188-1.5469h-2.25c-0.14062 0-0.39062 0-0.39062 0.29688 0 0.3125 0.25 0.3125 0.40625 0.3125h0.26562v4.875h-0.26562c-0.15625 0-0.40625 0-0.40625 0.3125 0 0.29688 0.25 0.29688 0.39062 0.29688h2.4531c1.125 0 1.7344-0.89062 1.7344-1.6719 0-0.6875-0.48438-1.3281-1.2969-1.5156zm-0.65625 2.5781h-1.2656v-2.25h1.375c0.84375 0 1.1406 0.71875 1.1406 1.1719 0 0.48438-0.375 1.0781-1.25 1.0781z"/>
</g>
<g id="e">
<path d="m3.5156-3.0469c0-1.1875-0.46875-2.0938-0.8125-2.5781-0.53125-0.73438-1.2812-1.2969-1.5156-1.2969-0.25 0-0.3125 0.20312-0.3125 0.28125 0 0.15625 0.10938 0.21875 0.15625 0.25 1.6406 1.0938 1.7969 2.6875 1.7969 3.3438 0 1-0.375 2.375-1.7188 3.2812-0.15625 0.10938-0.23438 0.15625-0.23438 0.29688 0 0.09375 0.0625 0.28125 0.3125 0.28125 0.28125 0 2.3281-1.3125 2.3281-3.8594z"/>
</g>
<g id="x">
<path d="m3.0781-3.8906c0-0.3125-0.0625-0.40625-0.39062-0.40625h-1.4219c-0.15625 0-0.40625 0-0.40625 0.29688 0 0.3125 0.25 0.3125 0.40625 0.3125h1.125v3.0781h-1.2031c-0.15625 0-0.40625 0-0.40625 0.3125 0 0.29688 0.25 0.29688 0.40625 0.29688h2.9375c0.15625 0 0.40625 0 0.40625-0.29688 0-0.3125-0.25-0.3125-0.40625-0.3125h-1.0469zm0-1.7188c0-0.26562-0.21875-0.48438-0.5-0.48438s-0.5 0.21875-0.5 0.48438c0 0.28125 0.21875 0.5 0.5 0.5s0.5-0.21875 0.5-0.5z"/>
</g>
<g id="j">
<path d="m2.9688-2.5469c-0.23438-0.03125-0.42188-0.0625-0.67188-0.10938-0.29688-0.046875-0.96875-0.17188-0.96875-0.54688 0-0.26562 0.3125-0.57812 1.2656-0.57812 0.82812 0 0.96875 0.29688 1 0.5625 0 0.17188 0.03125 0.34375 0.32812 0.34375 0.35938 0 0.35938-0.21875 0.35938-0.42188v-0.6875c0-0.15625 0-0.40625-0.29688-0.40625-0.25 0-0.28125 0.14062-0.3125 0.21875-0.4375-0.21875-0.875-0.21875-1.0625-0.21875-1.6562 0-1.8906 0.82812-1.8906 1.1875 0 0.90625 1.0469 1.0781 1.9688 1.2188 0.48438 0.078125 1.2812 0.20312 1.2812 0.73438 0 0.375-0.375 0.70312-1.2812 0.70312-0.46875 0-1.0156-0.10938-1.2656-0.89062-0.0625-0.17188-0.09375-0.28125-0.35938-0.28125-0.34375 0-0.34375 0.20312-0.34375 0.40625v0.96875c0 0.15625 0 0.40625 0.29688 0.40625 0.09375 0 0.25-0.015625 0.375-0.375 0.48438 0.35938 1.0156 0.375 1.2969 0.375 1.5625 0 1.8906-0.82812 1.8906-1.3125 0-1.0312-1.2812-1.25-1.6094-1.2969z"/>
</g>
<g id="r">
<path d="m3.1562-5.8281c-0.09375-0.375-0.23438-0.375-0.54688-0.375-0.28125 0-0.45312 0-0.53125 0.375l-1.2031 5.2188c-0.14062 0-0.375 0-0.4375 0.015625-0.10938 0.0625-0.17188 0.17188-0.17188 0.29688 0 0.29688 0.26562 0.29688 0.4375 0.29688h1.0156c0.17188 0 0.42188 0 0.42188-0.29688 0-0.3125-0.20312-0.3125-0.5625-0.3125l0.21875-1.0312h1.625l0.23438 1.0312c-0.35938 0-0.5625 0-0.5625 0.3125 0 0.29688 0.23438 0.29688 0.42188 0.29688h1.0156c0.15625 0 0.42188 0 0.42188-0.29688 0-0.125-0.046875-0.23438-0.17188-0.28125-0.0625-0.03125-0.28125-0.03125-0.42188-0.03125zm-0.54688 0.42188h0.015625l0.64062 3.1562h-1.3125z"/>
</g>
<g id="ah">
<path d="m4.8281-5.7969c0-0.15625 0-0.40625-0.29688-0.40625-0.1875 0-0.23438 0.10938-0.28125 0.17188-0.015625 0.046875-0.015625 0.0625-0.15625 0.3125-0.32812-0.28125-0.78125-0.48438-1.2969-0.48438-1.2812 0-2.3906 1.3438-2.3906 3.1562 0 1.8281 1.1094 3.1562 2.4062 3.1562 1.1562 0 2.0156-0.89062 2.0156-1.7812 0-0.32812-0.25-0.32812-0.35938-0.32812-0.078125 0-0.3125 0-0.32812 0.28125-0.078125 0.98438-0.875 1.2188-1.2969 1.2188-0.90625 0-1.75-1.0625-1.75-2.5469s0.85938-2.5469 1.75-2.5469c0.59375 0 1.1406 0.45312 1.2812 1.2656 0.03125 0.17188 0.046875 0.32812 0.34375 0.32812 0.35938 0 0.35938-0.20312 0.35938-0.40625z"/>
</g>
<g id="ag">
<path d="m2.75-3.5625 1.5156-1.9219c0.35938 0 0.5625 0 0.5625-0.3125 0-0.29688-0.26562-0.29688-0.40625-0.29688h-0.875c-0.14062 0-0.40625 0-0.40625 0.3125 0 0.29688 0.26562 0.29688 0.40625 0.29688l-2.0938 2.6562v-2.6562h0.21875c0.14062 0 0.40625 0 0.40625-0.29688 0-0.3125-0.25-0.3125-0.40625-0.3125h-1c-0.15625 0-0.40625 0-0.40625 0.29688 0 0.3125 0.25 0.3125 0.40625 0.3125h0.21875v4.875h-0.21875c-0.15625 0-0.40625 0-0.40625 0.29688 0 0.3125 0.25 0.3125 0.40625 0.3125h1c0.14062 0 0.40625 0 0.40625-0.29688 0-0.3125-0.25-0.3125-0.40625-0.3125h-0.21875v-1.3281l0.92188-1.1562 1.3906 2.4844c-0.14062 0-0.39062 0-0.39062 0.29688 0 0.3125 0.25 0.3125 0.40625 0.3125h0.75c0.14062 0 0.40625 0 0.40625-0.29688 0-0.3125-0.23438-0.3125-0.51562-0.3125-0.03125-0.03125-0.0625-0.09375-0.078125-0.125z"/>
</g>
<g id="q">
<path d="m2.8125-0.03125c-0.15625 0.625-0.625 0.78125-0.73438 0.8125s-0.28125 0.09375-0.28125 0.28125c0 0.15625 0.14062 0.32812 0.3125 0.32812 0.32812 0 1.3438-0.54688 1.3438-1.6406 0-0.60938-0.39062-1-0.82812-1-0.40625 0-0.625 0.29688-0.625 0.625 0 0.375 0.28125 0.625 0.60938 0.625 0.0625 0 0.125-0.015625 0.20312-0.03125z"/>
</g>
<g id="aj">
<path d="m4.7188-3.0469c0-1.8438-1.0156-3.1562-2.1094-3.1562-1.1094 0-2.1094 1.3438-2.1094 3.1562 0 1.8438 1.0156 3.1562 2.1094 3.1562 1.125 0 2.1094-1.3281 2.1094-3.1562zm-2.1094 2.5469c-0.78125 0-1.4219-1.1719-1.4219-2.6562 0-1.4531 0.6875-2.4375 1.4219-2.4375s1.4219 0.98438 1.4219 2.4375c0 1.4844-0.64062 2.6562-1.4219 2.6562z"/>
</g>
<g id="a">
<path d="m4.2344-1.9062c0.20312 0 0.39062 0 0.39062-0.35938 0-1.1406-0.64062-2.125-1.9375-2.125-1.1875 0-2.1406 1-2.1406 2.2344 0 1.2031 1.0156 2.2188 2.2969 2.2188 1.3125 0 1.7812-0.90625 1.7812-1.1562 0-0.26562-0.28125-0.26562-0.34375-0.26562-0.1875 0-0.26562 0.03125-0.32812 0.21875-0.21875 0.5-0.76562 0.59375-1.0469 0.59375-0.75 0-1.4844-0.5-1.6562-1.3594zm-2.9688-0.59375c0.14062-0.73438 0.73438-1.2812 1.4219-1.2812 0.51562 0 1.1406 0.25 1.2344 1.2812z"/>
</g>
<g id="ai">
<path d="m3.0938-5.7969c0-0.15625 0-0.40625-0.29688-0.40625-0.1875 0-0.25 0.125-0.29688 0.23438-0.375 0.85938-0.89062 0.96875-1.0781 0.98438-0.17188 0.015625-0.375 0.03125-0.375 0.3125 0 0.25 0.17188 0.29688 0.32812 0.29688 0.1875 0 0.59375-0.0625 1.0312-0.4375v4.2031h-0.90625c-0.15625 0-0.39062 0-0.39062 0.3125 0 0.29688 0.25 0.29688 0.39062 0.29688h2.5c0.15625 0 0.40625 0 0.40625-0.29688 0-0.3125-0.23438-0.3125-0.40625-0.3125h-0.90625z"/>
</g>
<g id="af">
<path d="m4.2812-3.6875h0.29688c0.15625 0 0.40625 0 0.40625-0.29688 0-0.3125-0.23438-0.3125-0.40625-0.3125h-1.1562c-0.15625 0-0.40625 0-0.40625 0.29688 0 0.3125 0.25 0.3125 0.40625 0.3125h0.28125l-1.0938 3.2031-1.0781-3.2031h0.26562c0.15625 0 0.40625 0 0.40625-0.29688 0-0.3125-0.23438-0.3125-0.40625-0.3125h-1.1562c-0.15625 0-0.40625 0-0.40625 0.3125 0 0.29688 0.25 0.29688 0.40625 0.29688h0.29688l1.1406 3.3906c0.125 0.34375 0.32812 0.34375 0.53125 0.34375 0.1875 0 0.42188 0 0.53125-0.34375z"/>
</g>
<g id="l">
<path d="m3.6562-0.3125c0.21875 0.29688 0.6875 0.3125 1.0625 0.3125 0.28125 0 0.5 0 0.5-0.3125 0-0.29688-0.25-0.29688-0.39062-0.29688-0.42188 0-0.51562-0.046875-0.59375-0.078125v-2.1562c0-0.70312-0.54688-1.5469-1.9844-1.5469-0.42188 0-1.4375 0-1.4375 0.73438 0 0.29688 0.20312 0.45312 0.4375 0.45312 0.15625 0 0.4375-0.09375 0.4375-0.45312 0-0.078125 0.015625-0.09375 0.21875-0.10938 0.14062-0.015625 0.26562-0.015625 0.35938-0.015625 0.75 0 1.2656 0.3125 1.2656 1.0156-1.75 0.03125-2.9844 0.53125-2.9844 1.4844 0 0.6875 0.625 1.3438 1.6406 1.3438 0.375 0 1-0.078125 1.4688-0.375zm-0.125-1.8594v0.84375c0 0.21875 0 0.4375-0.375 0.60938-0.35938 0.17188-0.8125 0.17188-0.89062 0.17188-0.625 0-1.0312-0.34375-1.0312-0.73438 0-0.48438 0.85938-0.85938 2.2969-0.89062z"/>
</g>
<g id="w">
<path d="m1.0938-4c-0.03125-0.29688-0.21875-0.29688-0.40625-0.29688h-0.3125c-0.15625 0-0.42188 0-0.42188 0.29688 0 0.3125 0.21875 0.3125 0.57812 0.3125v3.0781c-0.35938 0-0.57812 0-0.57812 0.3125 0 0.29688 0.28125 0.29688 0.42188 0.29688h0.875c0.14062 0 0.40625 0 0.40625-0.29688 0-0.3125-0.20312-0.3125-0.5625-0.3125v-1.7812c0-0.89062 0.40625-1.3594 0.8125-1.3594 0.23438 0 0.35938 0.17188 0.35938 0.8125v2.3281c-0.1875 0-0.4375 0-0.4375 0.3125 0 0.29688 0.28125 0.29688 0.42188 0.29688h0.73438c0.15625 0 0.42188 0 0.42188-0.29688 0-0.3125-0.21875-0.3125-0.57812-0.3125v-1.7812c0-0.89062 0.40625-1.3594 0.82812-1.3594 0.21875 0 0.35938 0.17188 0.35938 0.8125v2.3281c-0.1875 0-0.4375 0-0.4375 0.3125 0 0.29688 0.26562 0.29688 0.40625 0.29688h0.75c0.15625 0 0.40625 0 0.40625-0.29688 0-0.3125-0.20312-0.3125-0.5625-0.3125v-2.4062c0-0.20312 0-1.3438-0.89062-1.3438-0.29688 0-0.70312 0.125-0.98438 0.51562-0.15625-0.32812-0.4375-0.51562-0.76562-0.51562-0.3125 0-0.60938 0.14062-0.84375 0.35938z"/>
</g>
<g id="ae">
<path d="m4.25-2.9219c0-1-0.5-1.4375-1.2969-1.4375-0.65625 0-1.1094 0.34375-1.2969 0.53125v-1.8594c0-0.29688-0.0625-0.40625-0.40625-0.40625h-0.71875c-0.15625 0-0.40625 0-0.40625 0.3125 0 0.29688 0.25 0.29688 0.39062 0.29688h0.45312v4.875h-0.4375c-0.15625 0-0.40625 0-0.40625 0.3125 0 0.29688 0.25 0.29688 0.39062 0.29688h1.5938c0.14062 0 0.39062 0 0.39062-0.29688 0-0.3125-0.25-0.3125-0.40625-0.3125h-0.4375v-1.7656c0-1 0.73438-1.375 1.25-1.375s0.65625 0.28125 0.65625 0.875v2.2656h-0.375c-0.17188 0-0.42188 0-0.42188 0.3125 0 0.29688 0.28125 0.29688 0.42188 0.29688h1.5156c0.14062 0 0.40625 0 0.40625-0.29688 0-0.3125-0.25-0.3125-0.42188-0.3125h-0.4375z"/>
</g>
<g id="v">
<path d="m2.8594-2.5469 1.2344-1.1406h0.34375c0.14062 0 0.40625 0 0.40625-0.29688 0-0.3125-0.26562-0.3125-0.40625-0.3125h-1.5312c-0.17188 0-0.40625 0-0.40625 0.3125 0 0.29688 0.25 0.29688 0.40625 0.29688h0.35938l-1.6094 1.5156v-3.5156c0-0.29688-0.0625-0.40625-0.40625-0.40625h-0.64062c-0.15625 0-0.40625 0-0.40625 0.29688 0 0.3125 0.25 0.3125 0.40625 0.3125h0.48438v4.875h-0.48438c-0.15625 0-0.40625 0-0.40625 0.29688 0 0.3125 0.25 0.3125 0.40625 0.3125h1.5312c0.15625 0 0.40625 0 0.40625-0.29688 0-0.3125-0.25-0.3125-0.40625-0.3125h-0.48438v-0.8125l0.79688-0.73438 1.1875 1.5469c-0.35938 0-0.5625 0-0.5625 0.3125 0 0.29688 0.25 0.29688 0.40625 0.29688h1.1719c0.15625 0 0.40625 0 0.40625-0.29688 0-0.3125-0.25-0.3125-0.40625-0.3125h-0.3125z"/>
</g>
<g id="ad">
<path d="m9.0625-5.8281c0.17188-0.57812 0.60938-0.67188 1-0.67188v-0.3125c-0.29688 0.03125-0.60938 0.03125-0.90625 0.03125s-0.9375-0.015625-1.1875-0.03125v0.3125c0.67188 0.015625 0.85938 0.34375 0.85938 0.53125 0 0.0625-0.03125 0.14062-0.046875 0.20312l-1.5 4.5938-1.5938-4.875c0-0.046875-0.03125-0.10938-0.03125-0.15625 0-0.29688 0.57812-0.29688 0.84375-0.29688v-0.3125c-0.35938 0.03125-1.0312 0.03125-1.4219 0.03125-0.375 0-0.79688-0.015625-1.2031-0.03125v0.3125c0.5625 0 0.76562 0 0.89062 0.35938l0.21875 0.70312-1.3906 4.2656-1.5938-4.9062c-0.015625-0.015625-0.03125-0.09375-0.03125-0.125 0-0.29688 0.57812-0.29688 0.84375-0.29688v-0.3125c-0.35938 0.03125-1.0312 0.03125-1.4219 0.03125-0.375 0-0.79688-0.015625-1.2188-0.03125v0.3125c0.75 0 0.79688 0.046875 0.92188 0.42188l1.9844 6.1094c0.03125 0.09375 0.0625 0.1875 0.1875 0.1875 0.14062 0 0.15625-0.0625 0.20312-0.20312l1.6406-5.0625 1.6562 5.0781c0.03125 0.09375 0.0625 0.1875 0.1875 0.1875 0.14062 0 0.17188-0.0625 0.20312-0.20312z"/>
</g>
<g id="t">
<path d="m3.3125-0.75c0.046875 0.39062 0.3125 0.8125 0.78125 0.8125 0.21875 0 0.82812-0.14062 0.82812-0.95312v-0.5625h-0.25v0.5625c0 0.57812-0.25 0.64062-0.35938 0.64062-0.32812 0-0.375-0.45312-0.375-0.5v-1.9844c0-0.42188 0-0.8125-0.35938-1.1875-0.39062-0.39062-0.89062-0.54688-1.3594-0.54688-0.82812 0-1.5156 0.46875-1.5156 1.125 0 0.29688 0.20312 0.46875 0.46875 0.46875 0.28125 0 0.45312-0.20312 0.45312-0.45312 0-0.125-0.046875-0.45312-0.51562-0.45312 0.28125-0.35938 0.76562-0.46875 1.0781-0.46875 0.5 0 1.0625 0.39062 1.0625 1.2812v0.35938c-0.51562 0.03125-1.2031 0.0625-1.8281 0.35938-0.75 0.34375-1 0.85938-1 1.2969 0 0.8125 0.96875 1.0625 1.5938 1.0625 0.65625 0 1.1094-0.40625 1.2969-0.85938zm-0.0625-1.6406v1c0 0.9375-0.71875 1.2812-1.1719 1.2812-0.48438 0-0.89062-0.34375-0.89062-0.84375 0-0.54688 0.42188-1.375 2.0625-1.4375z"/>
</g>
<g id="k">
<path d="m1.6719-3.3125v-1.0938l-1.3906 0.10938v0.3125c0.70312 0 0.78125 0.0625 0.78125 0.5625v2.6719c0 0.4375-0.10938 0.4375-0.78125 0.4375v0.3125c0.39062-0.015625 0.85938-0.03125 1.1406-0.03125 0.39062 0 0.85938 0 1.2656 0.03125v-0.3125h-0.21875c-0.73438 0-0.75-0.10938-0.75-0.46875v-1.5312c0-0.98438 0.42188-1.875 1.1719-1.875 0.0625 0 0.09375 0 0.10938 0.015625-0.03125 0-0.23438 0.125-0.23438 0.39062s0.21875 0.42188 0.4375 0.42188c0.17188 0 0.42188-0.125 0.42188-0.4375s-0.3125-0.60938-0.73438-0.60938c-0.73438 0-1.0938 0.67188-1.2188 1.0938z"/>
</g>
<g id="aa">
<path d="m1.7188-3.9844h1.4375v-0.3125h-1.4375v-1.8281h-0.25c0 0.8125-0.29688 1.875-1.2812 1.9219v0.21875h0.84375v2.75c0 1.2188 0.9375 1.3438 1.2969 1.3438 0.70312 0 0.98438-0.70312 0.98438-1.3438v-0.5625h-0.25v0.54688c0 0.73438-0.29688 1.1094-0.67188 1.1094-0.67188 0-0.67188-0.90625-0.67188-1.0781z"/>
</g>
<g id="o">
<path d="m1.1094-2.5156c0.0625-1.4844 0.90625-1.7344 1.25-1.7344 1.0156 0 1.125 1.3438 1.125 1.7344zm0 0.21875h2.7812c0.21875 0 0.25 0 0.25-0.21875 0-0.98438-0.54688-1.9531-1.7812-1.9531-1.1562 0-2.0781 1.0312-2.0781 2.2812 0 1.3281 1.0469 2.2969 2.1875 2.2969 1.2188 0 1.6719-1.1094 1.6719-1.2969 0-0.09375-0.078125-0.125-0.14062-0.125-0.078125 0-0.10938 0.0625-0.125 0.14062-0.34375 1.0312-1.25 1.0312-1.3438 1.0312-0.5 0-0.89062-0.29688-1.125-0.67188-0.29688-0.46875-0.29688-1.125-0.29688-1.4844z"/>
</g>
<g id="n">
<path d="m3.8906-0.78125v0.89062l1.4375-0.10938v-0.3125c-0.6875 0-0.76562-0.0625-0.76562-0.5625v-3.5312l-1.4688 0.10938v0.3125c0.6875 0 0.78125 0.0625 0.78125 0.5625v1.7656c0 0.875-0.48438 1.5469-1.2188 1.5469-0.82812 0-0.875-0.46875-0.875-0.98438v-3.3125l-1.4688 0.10938v0.3125c0.78125 0 0.78125 0.03125 0.78125 0.90625v1.5c0 0.78125 0 1.6875 1.5156 1.6875 0.5625 0 1-0.28125 1.2812-0.89062z"/>
</g>
<g id="s">
<path d="m1.75-4.2969v-1.1562c0-0.875 0.46875-1.3594 0.90625-1.3594 0.03125 0 0.1875 0 0.32812 0.078125-0.10938 0.03125-0.29688 0.17188-0.29688 0.42188 0 0.21875 0.15625 0.42188 0.4375 0.42188s0.4375-0.20312 0.4375-0.4375c0-0.375-0.375-0.70312-0.90625-0.70312-0.6875 0-1.5469 0.53125-1.5469 1.5938v1.1406h-0.78125v0.3125h0.78125v3.2344c0 0.4375-0.10938 0.4375-0.76562 0.4375v0.3125c0.39062-0.015625 0.85938-0.03125 1.125-0.03125 0.40625 0 0.875 0 1.2656 0.03125v-0.3125h-0.20312c-0.73438 0-0.75-0.10938-0.75-0.46875v-3.2031h1.125v-0.3125z"/>
</g>
<g id="z">
<path d="m3.9688-6.9375c-0.046875-0.125-0.078125-0.20312-0.23438-0.20312s-0.1875 0.0625-0.23438 0.20312l-2.0625 5.9531c-0.1875 0.51562-0.57812 0.67188-1.125 0.67188v0.3125c0.23438-0.015625 0.67188-0.03125 1.0156-0.03125 0.3125 0 0.82812 0.015625 1.1562 0.03125v-0.3125c-0.5 0-0.75-0.25-0.75-0.5 0-0.03125 0.015625-0.14062 0.015625-0.15625l0.46875-1.2969h2.4531l0.53125 1.5156c0.015625 0.046875 0.03125 0.10938 0.03125 0.14062 0 0.29688-0.5625 0.29688-0.82812 0.29688v0.3125c0.35938-0.03125 1.0625-0.03125 1.4375-0.03125 0.42188 0 0.89062 0.015625 1.2969 0.03125v-0.3125h-0.17188c-0.59375 0-0.73438-0.0625-0.84375-0.39062zm-0.53125 1.1094 1.125 3.25h-2.2344z"/>
</g>
<g id="aq">
<path d="m4.5781-3.1875c0-0.79688-0.046875-1.5938-0.39062-2.3281-0.45312-0.96875-1.2812-1.125-1.6875-1.125-0.60938 0-1.3281 0.26562-1.75 1.1875-0.3125 0.6875-0.35938 1.4688-0.35938 2.2656 0 0.75 0.03125 1.6406 0.45312 2.4062 0.42188 0.79688 1.1562 1 1.6406 1 0.53125 0 1.2969-0.20312 1.7344-1.1562 0.3125-0.6875 0.35938-1.4688 0.35938-2.25zm-2.0938 3.1875c-0.39062 0-0.98438-0.25-1.1562-1.2031-0.10938-0.59375-0.10938-1.5156-0.10938-2.1094 0-0.64062 0-1.2969 0.078125-1.8281 0.1875-1.1875 0.9375-1.2812 1.1875-1.2812 0.32812 0 0.98438 0.1875 1.1719 1.1719 0.10938 0.5625 0.10938 1.3125 0.10938 1.9375 0 0.75 0 1.4219-0.10938 2.0625-0.15625 0.95312-0.71875 1.25-1.1719 1.25z"/>
</g>
<g id="ac">
<path d="m3.7812-0.54688v0.65625l1.4688-0.10938v-0.3125c-0.6875 0-0.78125-0.0625-0.78125-0.5625v-6.0469l-1.4219 0.10938v0.3125c0.6875 0 0.76562 0.0625 0.76562 0.5625v2.1562c-0.28125-0.35938-0.71875-0.625-1.25-0.625-1.1719 0-2.2188 0.98438-2.2188 2.2656 0 1.2656 0.96875 2.25 2.1094 2.25 0.64062 0 1.0781-0.34375 1.3281-0.65625zm0-2.6719v2.0469c0 0.17188 0 0.1875-0.10938 0.35938-0.29688 0.48438-0.73438 0.70312-1.1719 0.70312-0.45312 0-0.8125-0.26562-1.0469-0.64062-0.25-0.40625-0.28125-0.96875-0.28125-1.3906 0-0.35938 0.015625-0.95312 0.29688-1.4062 0.21875-0.3125 0.59375-0.64062 1.1406-0.64062 0.34375 0 0.76562 0.15625 1.0625 0.59375 0.10938 0.17188 0.10938 0.1875 0.10938 0.375z"/>
</g>
<g id="bb">
<path d="m1.1719-2.1719c0-1.625 0.8125-2.0469 1.3438-2.0469 0.09375 0 0.71875 0.015625 1.0625 0.375-0.40625 0.03125-0.46875 0.32812-0.46875 0.45312 0 0.26562 0.1875 0.45312 0.45312 0.45312s0.46875-0.15625 0.46875-0.46875c0-0.67188-0.76562-1.0625-1.5312-1.0625-1.25 0-2.1562 1.0781-2.1562 2.3125 0 1.2812 0.98438 2.2656 2.1406 2.2656 1.3281 0 1.6562-1.2031 1.6562-1.2969s-0.10938-0.09375-0.14062-0.09375c-0.078125 0-0.10938 0.03125-0.125 0.09375-0.28125 0.92188-0.9375 1.0469-1.2969 1.0469-0.53125 0-1.4062-0.42188-1.4062-2.0312z"/>
</g>
<g id="ba">
<path d="m1.0938-0.75c0 0.4375-0.10938 0.4375-0.78125 0.4375v0.3125c0.35938-0.015625 0.85938-0.03125 1.1406-0.03125 0.25 0 0.76562 0.015625 1.1094 0.03125v-0.3125c-0.67188 0-0.78125 0-0.78125-0.4375v-1.8438c0-1.0312 0.71875-1.5938 1.3438-1.5938 0.64062 0 0.75 0.53125 0.75 1.1094v2.3281c0 0.4375-0.10938 0.4375-0.78125 0.4375v0.3125c0.34375-0.015625 0.85938-0.03125 1.125-0.03125 0.25 0 0.78125 0.015625 1.1094 0.03125v-0.3125c-0.51562 0-0.76562 0-0.76562-0.29688v-1.9062c0-0.85938 0-1.1562-0.3125-1.5156-0.14062-0.17188-0.46875-0.375-1.0469-0.375-0.84375 0-1.2812 0.59375-1.4531 0.98438v-3.5l-1.4375 0.10938v0.3125c0.70312 0 0.78125 0.0625 0.78125 0.5625z"/>
</g>
<g id="az">
<path d="m3.4844-3.875-1.2812-0.29688c-0.625-0.15625-1-0.6875-1-1.2656 0-0.70312 0.53125-1.3125 1.3125-1.3125 1.6562 0 1.875 1.6406 1.9375 2.0781 0.015625 0.0625 0.015625 0.125 0.125 0.125 0.125 0 0.125-0.046875 0.125-0.23438v-2c0-0.17188 0-0.25-0.10938-0.25-0.0625 0-0.078125 0.015625-0.14062 0.14062l-0.35938 0.5625c-0.29688-0.29688-0.70312-0.70312-1.5938-0.70312-1.1094 0-1.9375 0.875-1.9375 1.9375 0 0.82812 0.53125 1.5625 1.2969 1.8281 0.10938 0.03125 0.625 0.15625 1.3281 0.32812 0.26562 0.0625 0.5625 0.14062 0.84375 0.5 0.20312 0.26562 0.3125 0.59375 0.3125 0.92188 0 0.70312-0.5 1.4219-1.3438 1.4219-0.28125 0-1.0469-0.046875-1.5781-0.53125-0.57812-0.54688-0.60938-1.1719-0.60938-1.5312-0.015625-0.10938-0.09375-0.10938-0.125-0.10938-0.125 0-0.125 0.078125-0.125 0.25v2c0 0.17188 0 0.23438 0.10938 0.23438 0.0625 0 0.078125-0.015625 0.14062-0.125 0-0.015625 0.03125-0.046875 0.35938-0.57812 0.3125 0.34375 0.95312 0.70312 1.8438 0.70312 1.1562 0 1.9531-0.96875 1.9531-2.0781 0-0.98438-0.65625-1.8125-1.4844-2.0156z"/>
</g>
<g id="ay">
<path d="m1.0938-3.4219v2.6719c0 0.4375-0.10938 0.4375-0.78125 0.4375v0.3125c0.35938-0.015625 0.85938-0.03125 1.1406-0.03125 0.25 0 0.76562 0.015625 1.1094 0.03125v-0.3125c-0.67188 0-0.78125 0-0.78125-0.4375v-1.8438c0-1.0312 0.71875-1.5938 1.3438-1.5938 0.64062 0 0.75 0.53125 0.75 1.1094v2.3281c0 0.4375-0.10938 0.4375-0.78125 0.4375v0.3125c0.34375-0.015625 0.85938-0.03125 1.125-0.03125 0.25 0 0.78125 0.015625 1.1094 0.03125v-0.3125c-0.51562 0-0.76562 0-0.76562-0.29688v-1.9062c0-0.85938 0-1.1562-0.3125-1.5156-0.14062-0.17188-0.46875-0.375-1.0469-0.375-0.73438 0-1.2031 0.42188-1.4844 1.0469v-1.0469l-1.4062 0.10938v0.3125c0.70312 0 0.78125 0.0625 0.78125 0.5625z"/>
</g>
<g id="ax">
<path d="m2.75-1.8594v-0.57812h-2.6406v0.57812z"/>
</g>
<g id="aw">
<path d="m1.7188-3.75v-0.65625l-1.4375 0.10938v0.3125c0.70312 0 0.78125 0.0625 0.78125 0.5v4.6562c0 0.45312-0.10938 0.45312-0.78125 0.45312v0.3125c0.34375-0.015625 0.85938-0.03125 1.1094-0.03125 0.28125 0 0.78125 0.015625 1.125 0.03125v-0.3125c-0.65625 0-0.76562 0-0.76562-0.45312v-1.7656c0.046875 0.17188 0.46875 0.70312 1.2188 0.70312 1.1875 0 2.2188-0.98438 2.2188-2.2656 0-1.2656-0.95312-2.25-2.0781-2.25-0.78125 0-1.2031 0.4375-1.3906 0.65625zm0.03125 2.6094v-2.2188c0.28125-0.51562 0.76562-0.79688 1.2812-0.79688 0.73438 0 1.3281 0.875 1.3281 2 0 1.2031-0.6875 2.0469-1.4219 2.0469-0.40625 0-0.78125-0.20312-1.0469-0.60938-0.14062-0.20312-0.14062-0.21875-0.14062-0.42188z"/>
</g>
<g id="av">
<path d="m4.6875-2.1406c0-1.2656-0.98438-2.3281-2.1875-2.3281-1.25 0-2.2188 1.0938-2.2188 2.3281 0 1.2969 1.0312 2.25 2.2031 2.25 1.2031 0 2.2031-0.98438 2.2031-2.25zm-2.1875 2c-0.4375 0-0.875-0.20312-1.1406-0.67188-0.25-0.4375-0.25-1.0469-0.25-1.4062 0-0.39062 0-0.92188 0.23438-1.3594 0.26562-0.45312 0.73438-0.67188 1.1406-0.67188 0.4375 0 0.85938 0.21875 1.125 0.65625 0.26562 0.42188 0.26562 1 0.26562 1.375 0 0.35938 0 0.90625-0.21875 1.3438-0.23438 0.45312-0.67188 0.73438-1.1562 0.73438z"/>
</g>
<g id="au">
<path d="m3.8906-4c0.09375-0.10938 0.09375-0.125 0.09375-0.17188 0-0.125-0.09375-0.125-0.26562-0.125h-3.1875l-0.10938 1.6094h0.25c0.0625-1.0156 0.25-1.3906 1.3438-1.3906h1.1406l-2.7812 3.7656c-0.09375 0.10938-0.09375 0.125-0.09375 0.17188 0 0.14062 0.0625 0.14062 0.25 0.14062h3.2969l0.17188-1.8594h-0.25c-0.09375 1.1719-0.29688 1.6094-1.4531 1.6094h-1.1875z"/>
</g>
<g id="ab">
<path d="m2.0781-1.9375c0.21875 0.046875 1.0312 0.20312 1.0312 0.92188 0 0.5-0.34375 0.90625-1.125 0.90625-0.84375 0-1.2031-0.5625-1.3906-1.4219-0.03125-0.125-0.03125-0.15625-0.14062-0.15625-0.125 0-0.125 0.0625-0.125 0.23438v1.3281c0 0.17188 0 0.23438 0.10938 0.23438 0.046875 0 0.0625-0.015625 0.25-0.20312 0.015625-0.015625 0.015625-0.03125 0.20312-0.21875 0.4375 0.40625 0.89062 0.42188 1.0938 0.42188 1.1406 0 1.6094-0.67188 1.6094-1.3906 0-0.51562-0.29688-0.82812-0.42188-0.9375-0.32812-0.32812-0.71875-0.40625-1.1406-0.48438-0.5625-0.10938-1.2188-0.23438-1.2188-0.8125 0-0.35938 0.25-0.76562 1.1094-0.76562 1.0938 0 1.1562 0.90625 1.1719 1.2031 0 0.09375 0.09375 0.09375 0.10938 0.09375 0.14062 0 0.14062-0.046875 0.14062-0.23438v-1.0156c0-0.15625 0-0.23438-0.10938-0.23438-0.046875 0-0.078125 0-0.20312 0.125-0.03125 0.03125-0.125 0.125-0.17188 0.15625-0.375-0.28125-0.78125-0.28125-0.9375-0.28125-1.2188 0-1.5938 0.67188-1.5938 1.2344 0 0.34375 0.15625 0.625 0.42188 0.84375 0.32812 0.25 0.60938 0.3125 1.3281 0.45312z"/>
</g>
<g id="at">
<path d="m0.5625-3.4062c0 2.0625 1.6094 3.625 3.4688 3.625 1.625 0 2.5938-1.3906 2.5938-2.5469 0-0.09375 0-0.17188-0.125-0.17188-0.10938 0-0.10938 0.0625-0.125 0.17188-0.078125 1.4219-1.1406 2.2344-2.2344 2.2344-0.60938 0-2.5625-0.32812-2.5625-3.3125 0-2.9688 1.9531-3.3125 2.5625-3.3125 1.0781 0 1.9688 0.90625 2.1719 2.3594 0.015625 0.14062 0.015625 0.17188 0.15625 0.17188 0.15625 0 0.15625-0.03125 0.15625-0.23438v-2.3594c0-0.17188 0-0.25-0.10938-0.25-0.03125 0-0.078125 0-0.15625 0.125l-0.5 0.73438c-0.35938-0.35938-0.875-0.85938-1.8281-0.85938-1.875 0-3.4688 1.5938-3.4688 3.625z"/>
</g>
<g id="as">
<path d="m3.9844-4.1719 1.7969-1.7344c0.078125-0.078125 0.60938-0.57812 1.4219-0.59375v-0.3125c-0.26562 0.03125-0.57812 0.03125-0.85938 0.03125-0.35938 0-0.92188 0-1.2656-0.03125v0.3125c0.40625 0.015625 0.46875 0.23438 0.46875 0.32812 0 0.15625-0.10938 0.26562-0.1875 0.32812l-3.1094 2.9844v-3.1719c0-0.35938 0.015625-0.46875 0.78125-0.46875h0.23438v-0.3125c-0.34375 0.03125-1.0781 0.03125-1.4688 0.03125-0.375 0-1.125 0-1.4688-0.03125v0.3125h0.23438c0.76562 0 0.79688 0.10938 0.79688 0.46875v5.25c0 0.35938-0.03125 0.46875-0.79688 0.46875h-0.23438v0.3125c0.34375-0.03125 1.0938-0.03125 1.4688-0.03125s1.125 0 1.4688 0.03125v-0.3125h-0.23438c-0.76562 0-0.78125-0.10938-0.78125-0.46875v-1.7344l1.1562-1.1094 1.7969 2.6719c0.0625 0.09375 0.15625 0.21875 0.15625 0.34375 0 0.29688-0.39062 0.29688-0.59375 0.29688v0.3125c0.34375-0.03125 1.0469-0.03125 1.4219-0.03125 0.35938 0 0.73438 0.015625 1.1562 0.03125v-0.3125c-0.54688 0-0.75-0.03125-1.0469-0.46875z"/>
</g>
<g id="ar">
<path d="m2.9375-6.375c0-0.25 0-0.26562-0.23438-0.26562-0.625 0.64062-1.5 0.64062-1.8125 0.64062v0.3125c0.20312 0 0.78125 0 1.2969-0.26562v5.1719c0 0.35938-0.03125 0.46875-0.92188 0.46875h-0.3125v0.3125c0.34375-0.03125 1.2031-0.03125 1.6094-0.03125 0.39062 0 1.2656 0 1.6094 0.03125v-0.3125h-0.3125c-0.90625 0-0.92188-0.10938-0.92188-0.46875z"/>
</g>
<g id="bk">
<path d="m0.51562-8.1562v0.34375h0.23438c0.85938 0 0.90625 0.10938 0.90625 0.5625v6.3438c0 0.4375-0.046875 0.5625-0.90625 0.5625h-0.23438v0.34375h4.5c1.5312 0 2.6094-1.0469 2.6094-2.1875 0-0.96875-0.875-1.9219-2.2969-2.0781 1.1406-0.21875 1.9688-0.98438 1.9688-1.875 0-1.0312-1.0469-2.0156-2.6094-2.0156zm2.0469 3.7969v-2.9844c0-0.39062 0.015625-0.46875 0.54688-0.46875h1.5c1.2031 0 1.625 1.0156 1.625 1.6719 0 0.78125-0.60938 1.7812-1.9375 1.7812zm0.54688 4.0156c-0.53125 0-0.54688-0.09375-0.54688-0.48438v-3.2969h2.2344c1.1406 0 1.7344 1 1.7344 1.9219 0 0.96875-0.71875 1.8594-1.8906 1.8594z"/>
</g>
<g id="am">
<path d="m2.2031-4.5781c0-0.32812-0.28125-0.57812-0.57812-0.57812-0.34375 0-0.57812 0.28125-0.57812 0.57812 0 0.35938 0.29688 0.57812 0.5625 0.57812 0.32812 0 0.59375-0.25 0.59375-0.57812zm0 4c0-0.32812-0.28125-0.57812-0.57812-0.57812-0.34375 0-0.57812 0.26562-0.57812 0.57812 0 0.34375 0.29688 0.57812 0.5625 0.57812 0.32812 0 0.59375-0.25 0.59375-0.57812z"/>
</g>
<g id="bf">
<path d="m2-2.7812c0-1.1562 0.46875-2.25 1.3906-2.25 0.09375 0 0.125 0 0.17188 0.015625-0.09375 0.046875-0.28125 0.10938-0.28125 0.4375 0 0.34375 0.26562 0.48438 0.45312 0.48438 0.25 0 0.48438-0.15625 0.48438-0.48438 0-0.35938-0.32812-0.6875-0.84375-0.6875-1.0156 0-1.3594 1.0938-1.4219 1.3281h-0.015625v-1.3281l-1.6094 0.125v0.34375c0.8125 0 0.92188 0.09375 0.92188 0.67188v3.2344c0 0.54688-0.14062 0.54688-0.92188 0.54688v0.34375c0.34375-0.03125 1-0.03125 1.3594-0.03125 0.32812 0 1.1719 0 1.4375 0.03125v-0.34375h-0.23438c-0.875 0-0.89062-0.14062-0.89062-0.5625z"/>
</g>
<g id="y">
<path d="m4.5781-2.7656c0.26562 0 0.28125 0 0.28125-0.23438 0-1.2031-0.64062-2.3281-2.0938-2.3281-1.3594 0-2.4062 1.2344-2.4062 2.7031 0 1.5781 1.2188 2.75 2.5469 2.75 1.4219 0 1.9531-1.2969 1.9531-1.5469 0-0.078125-0.046875-0.125-0.125-0.125-0.09375 0-0.125 0.0625-0.14062 0.125-0.3125 1-1.1094 1.2812-1.625 1.2812-0.5 0-1.7031-0.34375-1.7031-2.4062v-0.21875zm-3.2969-0.23438c0.09375-1.875 1.1406-2.0938 1.4844-2.0938 1.2812 0 1.3438 1.6875 1.3594 2.0938z"/>
</g>
<g id="be">
<path d="m4.3281-4.4219c-0.14062 0-0.59375 0-0.59375 0.48438 0 0.29688 0.20312 0.5 0.5 0.5 0.26562 0 0.5-0.17188 0.5-0.51562 0-0.79688-0.84375-1.375-1.8125-1.375-1.3906 0-2.5 1.2344-2.5 2.75 0 1.5312 1.1406 2.7031 2.5 2.7031 1.5781 0 1.9375-1.4375 1.9375-1.5469s-0.09375-0.10938-0.125-0.10938c-0.10938 0-0.125 0.03125-0.15625 0.1875-0.26562 0.84375-0.90625 1.2031-1.5469 1.2031-0.73438 0-1.7031-0.64062-1.7031-2.4531 0-1.9844 1.0156-2.4688 1.6094-2.4688 0.45312 0 1.1094 0.17188 1.3906 0.64062z"/>
</g>
<g id="bd">
<path d="m2.0781-7.3594c0-0.3125-0.25-0.59375-0.57812-0.59375-0.3125 0-0.57812 0.25-0.57812 0.57812 0 0.35938 0.28125 0.57812 0.57812 0.57812 0.35938 0 0.57812-0.29688 0.57812-0.5625zm-1.6406 2.2188v0.34375c0.75 0 0.85938 0.078125 0.85938 0.65625v3.25c0 0.54688-0.125 0.54688-0.90625 0.54688v0.34375c0.34375-0.03125 0.90625-0.03125 1.2656-0.03125 0.125 0 0.8125 0 1.2188 0.03125v-0.34375c-0.76562 0-0.8125-0.0625-0.8125-0.53125v-4.3906z"/>
</g>
<g id="bc">
<path d="m4.875-4.0156c0.10938-0.26562 0.3125-0.78125 1.0781-0.79688v-0.34375c-0.34375 0.03125-0.51562 0.03125-0.89062 0.03125-0.25 0-0.42188 0-0.96875-0.03125v0.34375c0.5 0.03125 0.5625 0.39062 0.5625 0.51562 0 0.10938-0.03125 0.17188-0.09375 0.3125l-1.2188 3.0938-1.3281-3.375c-0.0625-0.17188-0.078125-0.17188-0.078125-0.23438 0-0.3125 0.45312-0.3125 0.67188-0.3125v-0.34375c-0.29688 0.03125-0.92188 0.03125-1.25 0.03125-0.39062 0-0.42188 0-1.1406-0.03125v0.34375c0.67188 0 0.78125 0.0625 0.92188 0.42188l1.7188 4.2812c0.0625 0.17188 0.078125 0.23438 0.21875 0.23438 0.09375 0 0.15625-0.03125 0.25-0.23438z"/>
</g>
<g id="al">
<path d="m3.2344-2.2656v-0.64062h-3.1094v0.64062z"/>
</g>
<g id="ak">
<path d="m2.6094-3.7969h2.0156c1.4062 0 2.6719-0.95312 2.6719-2.1562 0-1.1562-1.1562-2.2031-2.7656-2.2031h-4.0312v0.34375h0.23438c0.875 0 0.90625 0.10938 0.90625 0.5625v6.3438c0 0.4375-0.03125 0.5625-0.90625 0.5625h-0.23438v0.34375c0.28125-0.03125 1.2656-0.03125 1.6094-0.03125 0.35938 0 1.3438 0 1.625 0.03125v-0.34375h-0.23438c-0.85938 0-0.89062-0.125-0.89062-0.5625zm-0.03125-0.29688v-3.25c0-0.39062 0.03125-0.46875 0.54688-0.46875h1.125c1.9375 0 1.9375 1.3438 1.9375 1.8594 0 0.5 0 1.8594-1.9375 1.8594z"/>
</g>
<g id="ap">
<path d="m4.6094-3.1875c0-0.65625 0-1.125-0.51562-1.5938-0.42188-0.375-0.96875-0.54688-1.4844-0.54688-0.98438 0-1.7344 0.64062-1.7344 1.4219 0 0.34375 0.21875 0.51562 0.5 0.51562s0.48438-0.20312 0.48438-0.5c0-0.48438-0.42188-0.48438-0.60938-0.48438 0.28125-0.5 0.85938-0.71875 1.3281-0.71875 0.54688 0 1.2656 0.45312 1.2656 1.5312v0.48438c-2.4062 0.03125-3.3125 1.0312-3.3125 1.9531 0 0.95312 1.0938 1.25 1.8281 1.25 0.78125 0 1.3281-0.48438 1.5469-1.0625 0.046875 0.5625 0.42188 1 0.9375 1 0.25 0 0.9375-0.17188 0.9375-1.125v-0.67188h-0.26562v0.67188c0 0.6875-0.28125 0.78125-0.45312 0.78125-0.45312 0-0.45312-0.64062-0.45312-0.8125zm-0.76562 1.5c0 1.1719-0.875 1.5625-1.3906 1.5625-0.59375 0-1.0781-0.42188-1.0781-1 0-1.5781 2.0312-1.7188 2.4688-1.75z"/>
</g>
<g id="ao">
<path d="m3.3438-3.1719-0.078125-0.10938c0-0.046875 0.75-0.6875 0.84375-0.78125 0.82812-0.71875 1.3594-0.73438 1.6094-0.75v-0.34375c-0.25 0.03125-0.5625 0.03125-0.90625 0.03125-0.3125 0-0.92188 0-1.2031-0.03125v0.34375c0.20312 0.015625 0.34375 0.125 0.34375 0.3125 0 0.25-0.23438 0.45312-0.25 0.45312l-1.7031 1.5156v-5.7656l-1.6719 0.14062v0.34375c0.8125 0 0.92188 0.078125 0.92188 0.67188v6.25c0 0.54688-0.14062 0.54688-0.92188 0.54688v0.34375c0.34375-0.03125 0.92188-0.03125 1.2812-0.03125 0.34375 0 0.92188 0 1.2656 0.03125v-0.34375c-0.76562 0-0.92188 0-0.92188-0.54688v-1.2656l0.76562-0.67188 1.1562 1.6562c0.17188 0.25 0.26562 0.39062 0.26562 0.54688 0 0.21875-0.17188 0.28125-0.42188 0.28125v0.34375c0.29688-0.03125 0.89062-0.03125 1.2031-0.03125 0.51562 0 0.54688 0 1.0469 0.03125v-0.34375c-0.3125 0-0.6875 0-1.0156-0.5z"/>
</g>
<g id="an">
<path d="m2.0156-4.8125h1.6719v-0.34375h-1.6719v-2.1875h-0.26562c-0.015625 1.1094-0.45312 2.2656-1.5312 2.2969v0.23438h1.0156v3.3281c0 1.3281 0.875 1.6094 1.5156 1.6094 0.75 0 1.1406-0.75 1.1406-1.6094v-0.67188h-0.25v0.65625c0 0.85938-0.35938 1.3594-0.8125 1.3594-0.8125 0-0.8125-1.1094-0.8125-1.3125z"/>
</g>
<g id="bj">
<path d="m4.625-8.3125c-0.046875-0.15625-0.078125-0.21875-0.23438-0.21875-0.17188 0-0.1875 0.03125-0.25 0.21875l-2.5 7.1562c-0.17188 0.48438-0.5 0.79688-1.2656 0.8125v0.34375c0.71875-0.03125 0.75-0.03125 1.1406-0.03125 0.34375 0 0.90625 0 1.2188 0.03125v-0.34375c-0.5-0.015625-0.79688-0.26562-0.79688-0.59375 0-0.078125 0-0.10938 0.0625-0.25l0.54688-1.5938h3.0156l0.65625 1.875c0.0625 0.14062 0.0625 0.17188 0.0625 0.20312 0 0.35938-0.60938 0.35938-0.92188 0.35938v0.34375c0.28125-0.03125 1.2344-0.03125 1.5625-0.03125s1.1875 0 1.4688 0.03125v-0.34375c-0.78125 0-0.98438 0-1.1562-0.5zm-0.57812 1.2031 1.3906 3.9844h-2.7656z"/>
</g>
<g id="bi">
<path d="m3.9219-5.0625c0-0.20312 0-0.26562-0.125-0.26562-0.09375 0-0.3125 0.26562-0.40625 0.375-0.35938-0.3125-0.73438-0.375-1.125-0.375-1.4375 0-1.875 0.78125-1.875 1.4375 0 0.14062 0 0.5625 0.45312 0.96875 0.39062 0.34375 0.79688 0.42188 1.3438 0.53125 0.65625 0.125 0.8125 0.17188 1.1094 0.40625 0.21875 0.17188 0.375 0.4375 0.375 0.78125 0 0.51562-0.29688 1.0781-1.3594 1.0781-0.78125 0-1.3594-0.45312-1.625-1.6406-0.046875-0.21875-0.046875-0.23438-0.046875-0.25-0.03125-0.046875-0.078125-0.046875-0.10938-0.046875-0.14062 0-0.14062 0.0625-0.14062 0.28125v1.625c0 0.21875 0 0.28125 0.125 0.28125 0.0625 0 0.0625-0.015625 0.26562-0.26562 0.0625-0.09375 0.0625-0.10938 0.25-0.29688 0.45312 0.5625 1.0938 0.5625 1.2969 0.5625 1.25 0 1.875-0.70312 1.875-1.6406 0-0.64062-0.39062-1.0312-0.5-1.1406-0.42188-0.375-0.75-0.4375-1.5469-0.57812-0.34375-0.078125-1.2188-0.25-1.2188-0.96875 0-0.35938 0.25-0.90625 1.3281-0.90625 1.2969 0 1.375 1.1094 1.3906 1.4688 0.015625 0.10938 0.09375 0.10938 0.14062 0.10938 0.125 0 0.125-0.0625 0.125-0.28125z"/>
</g>
<g id="bh">
<path d="m5.3125-2.9062c0-1.1094 0-1.4375-0.26562-1.8281-0.34375-0.46875-0.90625-0.53125-1.3125-0.53125-1.1719 0-1.625 0.98438-1.7188 1.2188v-1.2188l-1.6406 0.125v0.34375c0.8125 0 0.92188 0.09375 0.92188 0.67188v3.2344c0 0.54688-0.14062 0.54688-0.92188 0.54688v0.34375c0.3125-0.03125 0.96875-0.03125 1.2969-0.03125 0.34375 0 1 0 1.2969 0.03125v-0.34375c-0.75 0-0.90625 0-0.90625-0.54688v-2.2188c0-1.25 0.82812-1.9219 1.5781-1.9219 0.73438 0 0.90625 0.60938 0.90625 1.3438v2.7969c0 0.54688-0.14062 0.54688-0.90625 0.54688v0.34375c0.29688-0.03125 0.95312-0.03125 1.2812-0.03125 0.34375 0 1 0 1.3125 0.03125v-0.34375c-0.60938 0-0.90625 0-0.92188-0.35938z"/>
</g>
<g id="bg">
<path d="m3.5781-8.1562v0.34375c0.82812 0 0.92188 0.078125 0.92188 0.67188v2.6406c-0.25-0.35938-0.76562-0.76562-1.5-0.76562-1.3906 0-2.5781 1.1719-2.5781 2.7031 0 1.5156 1.125 2.6875 2.4531 2.6875 0.90625 0 1.4219-0.60938 1.5938-0.82812v0.82812l1.6875-0.125v-0.34375c-0.8125 0-0.90625-0.09375-0.90625-0.67188v-7.2812zm0.89062 6.75c0 0.21875 0 0.26562-0.17188 0.51562-0.28125 0.42188-0.76562 0.76562-1.375 0.76562-0.29688 0-1.5938-0.10938-1.5938-2.4375 0-0.85938 0.14062-1.3281 0.40625-1.7344 0.23438-0.35938 0.71875-0.73438 1.3125-0.73438 0.75 0 1.1562 0.53125 1.2812 0.73438 0.14062 0.20312 0.14062 0.21875 0.14062 0.4375z"/>
</g>
<clipPath id="by">
<path d="m38 126h48v150h-48z"/>
</clipPath>
<clipPath id="bx">
<path d="m0.52734 377.54h400v-378h-400zm82.121-248.48 0.21094 0.33203-3.4453 4.0547-0.18359-2.0273-1.7227-1.0586z" clip-rule="evenodd"/>
</clipPath>
<clipPath id="bs">
<path d="m297 126h48v150h-48z"/>
</clipPath>
<clipPath id="br">
<path d="m0.52734 377.54h400v-378h-400zm299.73-105.05-0.21094-0.33203 3.4492-4.0547 0.17969 2.0273 1.7227 1.0586z" clip-rule="evenodd"/>
</clipPath>
<clipPath id="bq">
<path d="m0.52734 336h68.473v1h-68.473z"/>
</clipPath>
<clipPath id="bp">
<path d="m113 61h157v38h-157z"/>
</clipPath>
<clipPath id="bo">
<path d="m0.52734 377.54h400v-378h-400zm266.07-282.23-0.30078 0.30078-4.75-2.3594 1.9062-0.66406 0.60547-1.9375z" clip-rule="evenodd"/>
</clipPath>
<clipPath id="bn">
<path d="m113 303h157v28h-157z"/>
</clipPath>
<clipPath id="bm">
<path d="m0.52734 377.54h400v-378h-400zm116.26-70.973 0.21094-0.33203 5.1719 1.1484-1.6914 1.1211-0.12109 2.0234z" clip-rule="evenodd"/>
</clipPath>
<clipPath id="bl">
<path d="m77 272h9v9h-9z"/>
</clipPath>
<clipPath id="bw">
<path d="m0.52734 377.54h400v-378h-400zm81.82-101.79 0.30078 0.30078-2.4492 4.7188-0.63672-1.9375-1.9336-0.63281z" clip-rule="evenodd"/>
</clipPath>
<clipPath id="bv">
<path d="m297 120h9v9h-9z"/>
</clipPath>
<clipPath id="bu">
<path d="m0.52734 377.54h400v-378h-400zm299.88-251.57-0.30078-0.30078 2.4492-4.7188 0.63281 1.9375 1.9375 0.63281z" clip-rule="evenodd"/>
</clipPath>
<clipPath id="bt">
<path d="m0.52734 207h78.473v1h-78.473z"/>
</clipPath>
</defs>
<path transform="matrix(.1 0 0 -.1 .528 377.54)" d="m3077.1 2686.2c0-118.91-96.406-215.31-215.31-215.31s-215.31 96.406-215.31 215.31 96.406 215.31 215.31 215.31 215.31-96.406 215.31-215.31z" fill="none" stroke="#000" stroke-miterlimit="10" stroke-width="2.268"/>
<g clip-path="url(#by)">
<g clip-path="url(#bx)">
<path transform="matrix(.1 0 0 -.1 .528 377.54)" d="m820.62 1053.2c-253.12 148.98-408.52 420.74-408.52 714.41s155.39 565.47 408.52 714.41" fill="none" stroke="#000" stroke-miterlimit="10" stroke-width="2.268"/>
</g>
</g>
<path d="m79.414 133.44 2.9023-3.9336-4.8086 0.84766 1.7227 1.0586 0.18359 2.0273" fill-rule="evenodd"/>
<path transform="matrix(.1 0 0 -.1 .528 377.54)" d="m788.86 2440.9 29.023 39.336-48.086-8.4766 17.227-10.586z" fill="none" stroke="#000" stroke-miterlimit="10" stroke-width="2.268"/>
<g clip-path="url(#bs)">
<g clip-path="url(#br)">
<path transform="matrix(.1 0 0 -.1 .528 377.54)" d="m2997.9 1053.2c253.09 148.98 408.48 420.74 408.48 714.41s-155.39 565.47-408.48 714.41" fill="none" stroke="#000" stroke-miterlimit="10" stroke-width="2.268"/>
</g>
</g>
<path d="m303.49 268.1-2.9023 3.9336 4.8047-0.84766-1.7227-1.0586-0.17969-2.0273" fill-rule="evenodd"/>
<path transform="matrix(.1 0 0 -.1 .528 377.54)" d="m3029.6 1094.4-29.023-39.336 48.047 8.4766-17.227 10.586z" fill="none" stroke="#000" stroke-miterlimit="10" stroke-width="2.268"/>
<path transform="matrix(.1 0 0 -.1 .528 377.54)" d="m1172 849.14c0-118.95-96.406-215.31-215.31-215.31s-215.31 96.367-215.31 215.31c0 118.91 96.406 215.27 215.31 215.27s215.31-96.367 215.31-215.27z" fill="none" stroke="#000" stroke-miterlimit="10" stroke-width="2.268"/>
<path d="m34.961 207.2h20.41v-37.043h-20.41z" fill="#fff" fill-rule="evenodd"/>
<path d="m334.34 170.15h6.8047l6.8047 37.043h-13.609z" fill="#fff" fill-rule="evenodd"/>
<path d="m150.63 272.21c0 18.789-15.23 34.02-34.02 34.02s-34.02-15.23-34.02-34.02c0-18.789 15.23-34.02 34.02-34.02s34.02 15.23 34.02 34.02" fill="#fff" fill-rule="evenodd"/>
<path transform="matrix(.1 0 0 -.1 .528 377.54)" d="m1501 1053.2c0-187.89-152.3-340.2-340.2-340.2s-340.2 152.3-340.2 340.2 152.3 340.2 340.2 340.2 340.2-152.3 340.2-340.2z" fill="none" stroke="#000" stroke-miterlimit="10" stroke-width="4.536"/>
<path d="m300.32 129.33c0 18.785-15.23 34.02-34.02 34.02s-34.02-15.234-34.02-34.02c0-18.789 15.23-34.02 34.02-34.02s34.02 15.23 34.02 34.02" fill="#fff" fill-rule="evenodd"/>
<path transform="matrix(.1 0 0 -.1 .528 377.54)" d="m2997.9 2482.1c0-187.85-152.3-340.2-340.2-340.2s-340.2 152.34-340.2 340.2c0 187.89 152.3 340.2 340.2 340.2s340.2-152.3 340.2-340.2z" fill="none" stroke="#000" stroke-miterlimit="10" stroke-width="4.536"/>
<path transform="matrix(.1 0 0 -.1 .528 377.54)" d="m3020.3 2957.5h735.12" fill="none" stroke="#000" stroke-miterlimit="10" stroke-width="2.268"/>
<g clip-path="url(#bq)">
<path transform="matrix(.1 0 0 -.1 .528 377.54)" d="m4.1341 412.77h675.86" fill="none" stroke="#000" stroke-miterlimit="10" stroke-width="2.268"/>
</g>
<g clip-path="url(#bp)">
<g clip-path="url(#bo)">
<path transform="matrix(.1 0 0 -.1 .528 377.54)" d="m1160.8 2822.3c199.06 197.38 468.09 308.12 748.44 308.12 280.35 0 549.34-110.74 748.44-308.12" fill="none" stroke="#000" stroke-miterlimit="10" stroke-width="2.268"/>
</g>
</g>
<path d="m261.55 93.25 4.5078 1.8438-1.9961-4.4453-0.60547 1.9375-1.9062 0.66406" fill-rule="evenodd"/>
<path transform="matrix(.1 0 0 -.1 .528 377.54)" d="m2610.2 2842.8 45.078-18.438-19.961 44.453-6.0547-19.375z" fill="none" stroke="#000" stroke-miterlimit="10" stroke-width="2.268"/>
<g clip-path="url(#bn)">
<g clip-path="url(#bm)">
<path transform="matrix(.1 0 0 -.1 .528 377.54)" d="m1165.3 710.31c226.41-134.61 485-205.7 748.44-205.7s521.99 71.094 748.44 205.7" fill="none" stroke="#000" stroke-miterlimit="10" stroke-width="2.268"/>
</g>
</g>
<path d="m122.17 307.38-4.8359-0.72266 3.0234 3.8672 0.12109-2.0234 1.6914-1.1211" fill-rule="evenodd"/>
<path transform="matrix(.1 0 0 -.1 .528 377.54)" d="m1216.4 701.56-48.359 7.2266 30.234-38.672 1.2109 20.234z" fill="none" stroke="#000" stroke-miterlimit="10" stroke-width="2.268"/>
<path transform="matrix(.1 0 0 -.1 .528 377.54)" d="m1501 2482.1c0-187.85-152.3-340.2-340.2-340.2s-340.2 152.34-340.2 340.2c0 187.89 152.3 340.2 340.2 340.2s340.2-152.3 340.2-340.2z" fill="none" stroke="#000" stroke-miterlimit="10" stroke-width="4.536"/>
<path transform="matrix(.1 0 0 -.1 .528 377.54)" d="m2997.6 1053.2c0-187.89-152.3-340.2-340.2-340.2s-340.2 152.3-340.2 340.2 152.3 340.2 340.2 340.2 340.2-152.3 340.2-340.2z" fill="none" stroke="#000" stroke-miterlimit="10" stroke-width="4.536"/>
<path transform="matrix(.1 0 0 -.1 .528 377.54)" d="m2112.1 2482.1h2.4219" fill="none" stroke="#000" stroke-miterlimit="10" stroke-width="2.268"/>
<path transform="matrix(.1 0 0 -.1 .528 377.54)" d="m2316.3 2209.9h2.4219" fill="none" stroke="#000" stroke-miterlimit="10" stroke-width="2.268"/>
<g clip-path="url(#bl)">
<g clip-path="url(#bw)">
<path transform="matrix(.1 0 0 -.1 .528 377.54)" d="m804.56 1001.2 13.633 13.594" fill="none" stroke="#000" stroke-miterlimit="10" stroke-width="2.268"/>
</g>
</g>
<path d="m80.199 280.77 1.9336-4.5078-4.5039 1.9375 1.9336 0.63281 0.63672 1.9375" fill-rule="evenodd"/>
<path transform="matrix(.1 0 0 -.1 .528 377.54)" d="m796.71 967.65 19.336 45.078-45.039-19.375 19.336-6.3281z" fill="none" stroke="#000" stroke-miterlimit="10" stroke-width="2.268"/>
<g clip-path="url(#bv)">
<g clip-path="url(#bu)">
<path transform="matrix(.1 0 0 -.1 .528 377.54)" d="m3019.1 2538.9-20.273-20.273" fill="none" stroke="#000" stroke-miterlimit="10" stroke-width="2.268"/>
</g>
</g>
<path d="m302.55 120.95-1.9375 4.5078 4.5078-1.9375-1.9375-0.63281-0.63281-1.9375" fill-rule="evenodd"/>
<path transform="matrix(.1 0 0 -.1 .528 377.54)" d="m3020.3 2565.9-19.375-45.078 45.078 19.375-19.375 6.3281z" fill="none" stroke="#000" stroke-miterlimit="10" stroke-width="2.268"/>
<path transform="matrix(.1 0 0 -.1 .528 377.54)" d="m1646.2 355h834.61" fill="none" stroke="#000" stroke-miterlimit="10" stroke-width="2.268"/>
<path transform="matrix(.1 0 0 -.1 .528 377.54)" d="m1650.4 3638.7h748.75" fill="none" stroke="#000" stroke-miterlimit="10" stroke-width="2.268"/>
<g clip-path="url(#bt)">
<path transform="matrix(.1 0 0 -.1 .528 377.54)" d="m4.1341 1703.4h771.09" fill="none" stroke="#000" stroke-miterlimit="10" stroke-width="2.268"/>
</g>
<path transform="matrix(.1 0 0 -.1 .528 377.54)" d="m2866.3 1703.4h880" fill="none" stroke="#000" stroke-miterlimit="10" stroke-width="2.268"/>
<g>
<use x="287.169" y="189.344" xlink:href="#g"/>
<use x="292.399365" y="189.344" xlink:href="#i"/>
<use x="297.62973" y="189.344" xlink:href="#b"/>
<use x="308.09046" y="189.344" xlink:href="#i"/>
<use x="313.320825" y="189.344" xlink:href="#p"/>
<use x="318.55119" y="189.344" xlink:href="#c"/>
</g>
<path transform="matrix(1 0 0 -1 324.41 189.14)" d="m0.0011562 4.6875e-4h3.1367" fill="none" stroke="#000" stroke-miterlimit="10" stroke-width=".398"/>
<g>
<use x="327.547" y="189.344" xlink:href="#h"/>
<use x="332.777365" y="189.344" xlink:href="#p"/>
<use x="338.00773" y="189.344" xlink:href="#f"/>
<use x="343.238095" y="189.344" xlink:href="#f"/>
<use x="348.46846" y="189.344" xlink:href="#g"/>
<use x="353.698825" y="189.344" xlink:href="#u"/>
<use x="358.92919" y="189.344" xlink:href="#c"/>
<use x="364.159555" y="189.344" xlink:href="#d"/>
<use x="369.38992" y="189.344" xlink:href="#m"/>
<use x="374.620285" y="189.344" xlink:href="#e"/>
<use x="287.169" y="201.136" xlink:href="#g"/>
<use x="292.399365" y="201.136" xlink:href="#i"/>
<use x="297.62973" y="201.136" xlink:href="#b"/>
<use x="308.09046" y="201.136" xlink:href="#x"/>
<use x="313.320825" y="201.136" xlink:href="#j"/>
<use x="318.55119" y="201.136" xlink:href="#r"/>
<use x="323.781555" y="201.136" xlink:href="#ah"/>
<use x="329.01192" y="201.136" xlink:href="#ag"/>
<use x="334.242285" y="201.136" xlink:href="#d"/>
<use x="339.47265" y="201.136" xlink:href="#m"/>
<use x="344.703015" y="201.136" xlink:href="#q"/>
<use x="349.93338" y="201.136" xlink:href="#aj"/>
<use x="355.163745" y="201.136" xlink:href="#e"/>
<use x="302.559" y="75.746" xlink:href="#p"/>
<use x="307.789365" y="75.746" xlink:href="#b"/>
<use x="313.01973" y="75.746" xlink:href="#a"/>
<use x="318.250095" y="75.746" xlink:href="#f"/>
<use x="328.710825" y="75.746" xlink:href="#x"/>
<use x="333.94119" y="75.746" xlink:href="#j"/>
<use x="339.171555" y="75.746" xlink:href="#r"/>
<use x="344.40192" y="75.746" xlink:href="#ah"/>
<use x="349.632285" y="75.746" xlink:href="#ag"/>
<use x="354.86265" y="75.746" xlink:href="#d"/>
<use x="360.093015" y="75.746" xlink:href="#m"/>
<use x="365.32338" y="75.746" xlink:href="#q"/>
<use x="370.553745" y="75.746" xlink:href="#ai"/>
<use x="375.78411" y="75.746" xlink:href="#e"/>
<use x="381.014475" y="75.746" xlink:href="#e"/>
<use x="302.559" y="52.162" xlink:href="#f"/>
<use x="307.789365" y="52.162" xlink:href="#b"/>
<use x="313.01973" y="52.162" xlink:href="#c"/>
</g>
<path transform="matrix(1 0 0 -1 318.88 51.962)" d="m9.0625e-4 0.0010625h3.1367" fill="none" stroke="#000" stroke-miterlimit="10" stroke-width=".398"/>
<g>
<use x="322.016" y="52.162" xlink:href="#f"/>
<use x="327.246365" y="52.162" xlink:href="#a"/>
<use x="332.47673" y="52.162" xlink:href="#h"/>
<use x="337.707095" y="52.162" xlink:href="#a"/>
<use x="342.93746" y="52.162" xlink:href="#x"/>
<use x="348.167825" y="52.162" xlink:href="#af"/>
<use x="353.39819" y="52.162" xlink:href="#a"/>
<use x="358.628555" y="52.162" xlink:href="#d"/>
<use x="363.85892" y="52.162" xlink:href="#m"/>
<use x="369.089285" y="52.162" xlink:href="#e"/>
<use x="302.559" y="63.954" xlink:href="#g"/>
<use x="307.789365" y="63.954" xlink:href="#i"/>
<use x="313.01973" y="63.954" xlink:href="#b"/>
<use x="323.48046" y="63.954" xlink:href="#d"/>
<use x="328.710825" y="63.954" xlink:href="#h"/>
<use x="333.94119" y="63.954" xlink:href="#p"/>
<use x="339.171555" y="63.954" xlink:href="#f"/>
<use x="344.40192" y="63.954" xlink:href="#f"/>
<use x="349.632285" y="63.954" xlink:href="#g"/>
<use x="354.86265" y="63.954" xlink:href="#u"/>
<use x="360.093015" y="63.954" xlink:href="#c"/>
<use x="365.32338" y="63.954" xlink:href="#d"/>
<use x="370.553745" y="63.954" xlink:href="#m"/>
<use x="375.78411" y="63.954" xlink:href="#e"/>
<use x="303.92" y="93.888" xlink:href="#g"/>
<use x="309.150365" y="93.888" xlink:href="#b"/>
<use x="314.38073" y="93.888" xlink:href="#c"/>
</g>
<path transform="matrix(1 0 0 -1 320.24 93.689)" d="m-7.1875e-4 0.0015h3.1406" fill="none" stroke="#000" stroke-miterlimit="10" stroke-width=".398"/>
<g>
<use x="323.377" y="93.888" xlink:href="#j"/>
<use x="328.607365" y="93.888" xlink:href="#a"/>
<use x="333.83773" y="93.888" xlink:href="#i"/>
<use x="339.068095" y="93.888" xlink:href="#b"/>
<use x="344.29846" y="93.888" xlink:href="#d"/>
<use x="349.528825" y="93.888" xlink:href="#r"/>
<use x="354.75919" y="93.888" xlink:href="#e"/>
<use x="0.982" y="306.6" xlink:href="#f"/>
<use x="6.212365" y="306.6" xlink:href="#b"/>
<use x="11.44273" y="306.6" xlink:href="#c"/>
</g>
<path transform="matrix(1 0 0 -1 17.301 306.4)" d="m-2.1875e-4 -0.0013438h3.1367" fill="none" stroke="#000" stroke-miterlimit="10" stroke-width=".398"/>
<g>
<use x="20.439" y="306.6" xlink:href="#f"/>
<use x="25.669365" y="306.6" xlink:href="#a"/>
<use x="30.89973" y="306.6" xlink:href="#h"/>
<use x="36.130095" y="306.6" xlink:href="#a"/>
<use x="41.36046" y="306.6" xlink:href="#x"/>
<use x="46.590825" y="306.6" xlink:href="#af"/>
<use x="51.82119" y="306.6" xlink:href="#a"/>
<use x="57.051555" y="306.6" xlink:href="#d"/>
<use x="62.28192" y="306.6" xlink:href="#m"/>
<use x="67.512285" y="306.6" xlink:href="#e"/>
<use x="0.982" y="318.393" xlink:href="#g"/>
<use x="6.212365" y="318.393" xlink:href="#i"/>
<use x="11.44273" y="318.393" xlink:href="#b"/>
<use x="21.90346" y="318.393" xlink:href="#d"/>
<use x="27.133825" y="318.393" xlink:href="#h"/>
<use x="32.36419" y="318.393" xlink:href="#p"/>
<use x="37.594555" y="318.393" xlink:href="#f"/>
<use x="42.82492" y="318.393" xlink:href="#f"/>
<use x="48.055285" y="318.393" xlink:href="#g"/>
<use x="53.28565" y="318.393" xlink:href="#u"/>
<use x="58.516015" y="318.393" xlink:href="#c"/>
<use x="63.74638" y="318.393" xlink:href="#d"/>
<use x="68.976745" y="318.393" xlink:href="#m"/>
<use x="74.20711" y="318.393" xlink:href="#e"/>
<use x="0.982" y="330.185" xlink:href="#p"/>
<use x="6.212365" y="330.185" xlink:href="#b"/>
<use x="11.44273" y="330.185" xlink:href="#a"/>
<use x="16.673095" y="330.185" xlink:href="#f"/>
<use x="27.133825" y="330.185" xlink:href="#x"/>
<use x="32.36419" y="330.185" xlink:href="#j"/>
<use x="37.594555" y="330.185" xlink:href="#r"/>
<use x="42.82492" y="330.185" xlink:href="#ah"/>
<use x="48.055285" y="330.185" xlink:href="#ag"/>
<use x="53.28565" y="330.185" xlink:href="#d"/>
<use x="58.516015" y="330.185" xlink:href="#m"/>
<use x="63.74638" y="330.185" xlink:href="#q"/>
<use x="68.976745" y="330.185" xlink:href="#aj"/>
<use x="74.20711" y="330.185" xlink:href="#e"/>
<use x="79.437475" y="330.185" xlink:href="#e"/>
<use x="1.436" y="350.383" xlink:href="#g"/>
<use x="6.666365" y="350.383" xlink:href="#b"/>
<use x="11.89673" y="350.383" xlink:href="#c"/>
</g>
<path transform="matrix(1 0 0 -1 17.754 350.18)" d="m-9.375e-5 -5.9375e-4h3.1367" fill="none" stroke="#000" stroke-miterlimit="10" stroke-width=".398"/>
<g>
<use x="20.892" y="350.383" xlink:href="#j"/>
<use x="26.122365" y="350.383" xlink:href="#a"/>
<use x="31.35273" y="350.383" xlink:href="#i"/>
<use x="36.583095" y="350.383" xlink:href="#b"/>
<use x="41.81346" y="350.383" xlink:href="#d"/>
<use x="47.043825" y="350.383" xlink:href="#r"/>
<use x="52.27419" y="350.383" xlink:href="#e"/>
<use x="94.898" y="115.658" xlink:href="#ad"/>
<use x="104.310664" y="115.658" xlink:href="#t"/>
<use x="109.291964" y="115.658" xlink:href="#k"/>
<use x="113.194315" y="115.658" xlink:href="#aa"/>
<use x="117.06877" y="115.658" xlink:href="#o"/>
<use x="124.813695" y="115.658" xlink:href="#t"/>
<use x="129.794995" y="115.658" xlink:href="#n"/>
<use x="135.330216" y="115.658" xlink:href="#s"/>
<use x="84.23" y="127.45" xlink:href="#z"/>
<use x="91.70195" y="127.45" xlink:href="#n"/>
<use x="97.237171" y="127.45" xlink:href="#s"/>
<use x="100.281741" y="127.45" xlink:href="#k"/>
<use x="104.184092" y="127.45" xlink:href="#n"/>
<use x="109.719312" y="127.45" xlink:href="#s"/>
<use x="116.081428" y="127.45" xlink:href="#aq"/>
<use x="124.380274" y="127.45" xlink:href="#ac"/>
<use x="129.915495" y="127.45" xlink:href="#n"/>
<use x="135.450715" y="127.45" xlink:href="#k"/>
<use x="139.353066" y="127.45" xlink:href="#bb"/>
<use x="143.511455" y="127.45" xlink:href="#ba"/>
<use x="100.294" y="139.242" xlink:href="#az"/>
<use x="105.829221" y="139.242" xlink:href="#o"/>
<use x="110.2566" y="139.242" xlink:href="#ay"/>
<use x="115.791821" y="139.242" xlink:href="#ac"/>
<use x="121.327041" y="139.242" xlink:href="#o"/>
<use x="125.754421" y="139.242" xlink:href="#k"/>
<use x="129.656771" y="139.242" xlink:href="#ax"/>
<use x="101.069" y="151.034" xlink:href="#aw"/>
<use x="106.604221" y="151.034" xlink:href="#k"/>
<use x="110.506571" y="151.034" xlink:href="#av"/>
<use x="115.487871" y="151.034" xlink:href="#au"/>
<use x="119.91525" y="151.034" xlink:href="#o"/>
<use x="124.34263" y="151.034" xlink:href="#ab"/>
<use x="128.271879" y="151.034" xlink:href="#ab"/>
<use x="244.568" y="127.45" xlink:href="#ad"/>
<use x="253.980664" y="127.45" xlink:href="#t"/>
<use x="258.961964" y="127.45" xlink:href="#k"/>
<use x="262.864315" y="127.45" xlink:href="#aa"/>
<use x="266.73877" y="127.45" xlink:href="#o"/>
<use x="274.483695" y="127.45" xlink:href="#t"/>
<use x="279.464995" y="127.45" xlink:href="#n"/>
<use x="285.000216" y="127.45" xlink:href="#s"/>
<use x="253.653" y="139.242" xlink:href="#z"/>
<use x="260.845997" y="139.242" xlink:href="#at"/>
<use x="268.040987" y="139.242" xlink:href="#as"/>
<use x="275.789897" y="139.242" xlink:href="#aq"/>
<use x="94.898" y="270.317" xlink:href="#ad"/>
<use x="104.310664" y="270.317" xlink:href="#t"/>
<use x="109.291964" y="270.317" xlink:href="#k"/>
<use x="113.194315" y="270.317" xlink:href="#aa"/>
<use x="117.06877" y="270.317" xlink:href="#o"/>
<use x="124.813695" y="270.317" xlink:href="#t"/>
<use x="129.794995" y="270.317" xlink:href="#n"/>
<use x="135.330216" y="270.317" xlink:href="#s"/>
<use x="103.076" y="282.109" xlink:href="#z"/>
<use x="110.268997" y="282.109" xlink:href="#at"/>
<use x="117.463987" y="282.109" xlink:href="#as"/>
<use x="125.212897" y="282.109" xlink:href="#ar"/>
<use x="244.568" y="258.525" xlink:href="#ad"/>
<use x="253.980664" y="258.525" xlink:href="#t"/>
<use x="258.961964" y="258.525" xlink:href="#k"/>
<use x="262.864315" y="258.525" xlink:href="#aa"/>
<use x="266.73877" y="258.525" xlink:href="#o"/>
<use x="274.483695" y="258.525" xlink:href="#t"/>
<use x="279.464995" y="258.525" xlink:href="#n"/>
<use x="285.000216" y="258.525" xlink:href="#s"/>
<use x="233.9" y="270.317" xlink:href="#z"/>
<use x="241.37195" y="270.317" xlink:href="#n"/>
<use x="246.907171" y="270.317" xlink:href="#s"/>
<use x="249.951741" y="270.317" xlink:href="#k"/>
<use x="253.854092" y="270.317" xlink:href="#n"/>
<use x="259.389312" y="270.317" xlink:href="#s"/>
<use x="265.751428" y="270.317" xlink:href="#ar"/>
<use x="274.050274" y="270.317" xlink:href="#ac"/>
<use x="279.585495" y="270.317" xlink:href="#n"/>
<use x="285.120715" y="270.317" xlink:href="#k"/>
<use x="289.023066" y="270.317" xlink:href="#bb"/>
<use x="293.181455" y="270.317" xlink:href="#ba"/>
<use x="249.964" y="282.109" xlink:href="#az"/>
<use x="255.499221" y="282.109" xlink:href="#o"/>
<use x="259.9266" y="282.109" xlink:href="#ay"/>
<use x="265.461821" y="282.109" xlink:href="#ac"/>
<use x="270.997041" y="282.109" xlink:href="#o"/>
<use x="275.424421" y="282.109" xlink:href="#k"/>
<use x="279.326771" y="282.109" xlink:href="#ax"/>
<use x="250.739" y="293.901" xlink:href="#aw"/>
<use x="256.274221" y="293.901" xlink:href="#k"/>
<use x="260.176571" y="293.901" xlink:href="#av"/>
<use x="265.157871" y="293.901" xlink:href="#au"/>
<use x="269.58525" y="293.901" xlink:href="#o"/>
<use x="274.01263" y="293.901" xlink:href="#ab"/>
<use x="277.941879" y="293.901" xlink:href="#ab"/>
<use x="165.165" y="335.96" xlink:href="#f"/>
<use x="170.395365" y="335.96" xlink:href="#b"/>
<use x="175.62573" y="335.96" xlink:href="#c"/>
</g>
<path transform="matrix(1 0 0 -1 181.48 335.76)" d="m3.75e-4 -7.1875e-4h3.1367" fill="none" stroke="#000" stroke-miterlimit="10" stroke-width=".398"/>
<g>
<use x="184.622" y="335.96" xlink:href="#j"/>
<use x="189.852365" y="335.96" xlink:href="#a"/>
<use x="195.08273" y="335.96" xlink:href="#i"/>
<use x="200.313095" y="335.96" xlink:href="#b"/>
<use x="205.54346" y="335.96" xlink:href="#d"/>
<use x="210.773825" y="335.96" xlink:href="#b"/>
<use x="216.00419" y="335.96" xlink:href="#l"/>
<use x="221.234555" y="335.96" xlink:href="#c"/>
<use x="226.46492" y="335.96" xlink:href="#l"/>
<use x="231.695285" y="335.96" xlink:href="#e"/>
<use x="165.589" y="7.624" xlink:href="#f"/>
<use x="170.819365" y="7.624" xlink:href="#b"/>
<use x="176.04973" y="7.624" xlink:href="#c"/>
</g>
<path transform="matrix(1 0 0 -1 181.91 7.424)" d="m-7.5e-4 -0.0017812h3.1406" fill="none" stroke="#000" stroke-miterlimit="10" stroke-width=".398"/>
<g>
<use x="185.046" y="7.624" xlink:href="#j"/>
<use x="190.276365" y="7.624" xlink:href="#a"/>
<use x="195.50673" y="7.624" xlink:href="#i"/>
<use x="200.737095" y="7.624" xlink:href="#b"/>
<use x="205.96746" y="7.624" xlink:href="#d"/>
<use x="211.197825" y="7.624" xlink:href="#b"/>
<use x="216.42819" y="7.624" xlink:href="#l"/>
<use x="221.658555" y="7.624" xlink:href="#c"/>
<use x="226.88892" y="7.624" xlink:href="#l"/>
<use x="232.119285" y="7.624" xlink:href="#e"/>
<use x="0.982" y="47.626" xlink:href="#bk"/>
<use x="9.271736" y="47.626" xlink:href="#am"/>
<use x="16.420945" y="47.626" xlink:href="#bf"/>
<use x="20.973485" y="47.626" xlink:href="#y"/>
<use x="26.176388" y="47.626" xlink:href="#be"/>
<use x="31.379292" y="47.626" xlink:href="#y"/>
<use x="36.582195" y="47.626" xlink:href="#bd"/>
<use x="39.834009" y="47.626" xlink:href="#bc"/>
<use x="45.689666" y="47.626" xlink:href="#y"/>
<use x="50.892569" y="47.626" xlink:href="#al"/>
<use x="54.794746" y="47.626" xlink:href="#ak"/>
<use x="62.43651" y="47.626" xlink:href="#ap"/>
<use x="68.289776" y="47.626" xlink:href="#ao"/>
<use x="74.145433" y="47.626" xlink:href="#y"/>
<use x="79.348336" y="47.626" xlink:href="#an"/>
<use x="0.982" y="34.02" xlink:href="#bj"/>
<use x="9.757117" y="34.02" xlink:href="#am"/>
<use x="16.906326" y="34.02" xlink:href="#bi"/>
<use x="21.523425" y="34.02" xlink:href="#y"/>
<use x="26.726328" y="34.02" xlink:href="#bh"/>
<use x="33.229956" y="34.02" xlink:href="#bg"/>
<use x="39.733585" y="34.02" xlink:href="#al"/>
<use x="43.635763" y="34.02" xlink:href="#ak"/>
<use x="51.277526" y="34.02" xlink:href="#ap"/>
<use x="57.130792" y="34.02" xlink:href="#ao"/>
<use x="62.986449" y="34.02" xlink:href="#y"/>
<use x="68.189352" y="34.02" xlink:href="#an"/>
<use x="0.982" y="189.344" xlink:href="#g"/>
<use x="6.212365" y="189.344" xlink:href="#i"/>
<use x="11.44273" y="189.344" xlink:href="#b"/>
<use x="21.90346" y="189.344" xlink:href="#i"/>
<use x="27.133825" y="189.344" xlink:href="#p"/>
<use x="32.36419" y="189.344" xlink:href="#c"/>
</g>
<path transform="matrix(1 0 0 -1 38.222 189.14)" d="m6.5625e-4 4.6875e-4h3.1367" fill="none" stroke="#000" stroke-miterlimit="10" stroke-width=".398"/>
<g>
<use x="41.36" y="189.344" xlink:href="#h"/>
<use x="46.590365" y="189.344" xlink:href="#p"/>
<use x="51.82073" y="189.344" xlink:href="#f"/>
<use x="57.051095" y="189.344" xlink:href="#f"/>
<use x="62.28146" y="189.344" xlink:href="#g"/>
<use x="67.511825" y="189.344" xlink:href="#u"/>
<use x="72.74219" y="189.344" xlink:href="#c"/>
<use x="77.972555" y="189.344" xlink:href="#d"/>
<use x="83.20292" y="189.344" xlink:href="#m"/>
<use x="88.433285" y="189.344" xlink:href="#e"/>
<use x="0.982" y="177.552" xlink:href="#f"/>
<use x="6.212365" y="177.552" xlink:href="#b"/>
<use x="11.44273" y="177.552" xlink:href="#c"/>
</g>
<path transform="matrix(1 0 0 -1 17.301 177.35)" d="m-2.1875e-4 4.375e-4h3.1367" fill="none" stroke="#000" stroke-miterlimit="10" stroke-width=".398"/>
<g>
<use x="20.439" y="177.552" xlink:href="#f"/>
<use x="25.669365" y="177.552" xlink:href="#a"/>
<use x="30.89973" y="177.552" xlink:href="#h"/>
<use x="36.130095" y="177.552" xlink:href="#a"/>
<use x="41.36046" y="177.552" xlink:href="#x"/>
<use x="46.590825" y="177.552" xlink:href="#af"/>
<use x="51.82119" y="177.552" xlink:href="#a"/>
<use x="57.051555" y="177.552" xlink:href="#d"/>
<use x="62.28192" y="177.552" xlink:href="#m"/>
<use x="67.512285" y="177.552" xlink:href="#e"/>
<use x="165.165" y="350.927" xlink:href="#h"/>
<use x="170.395365" y="350.927" xlink:href="#p"/>
<use x="175.62573" y="350.927" xlink:href="#w"/>
<use x="180.856095" y="350.927" xlink:href="#u"/>
<use x="186.08646" y="350.927" xlink:href="#g"/>
<use x="191.316825" y="350.927" xlink:href="#c"/>
<use x="196.54719" y="350.927" xlink:href="#a"/>
<use x="207.00792" y="350.927" xlink:href="#h"/>
<use x="212.238285" y="350.927" xlink:href="#ae"/>
<use x="217.46865" y="350.927" xlink:href="#a"/>
<use x="222.699015" y="350.927" xlink:href="#h"/>
<use x="227.92938" y="350.927" xlink:href="#v"/>
<use x="233.159745" y="350.927" xlink:href="#j"/>
<use x="238.39011" y="350.927" xlink:href="#g"/>
<use x="243.620475" y="350.927" xlink:href="#w"/>
<use x="0.982" y="201.136" xlink:href="#g"/>
<use x="6.212365" y="201.136" xlink:href="#i"/>
<use x="11.44273" y="201.136" xlink:href="#b"/>
<use x="21.90346" y="201.136" xlink:href="#x"/>
<use x="27.133825" y="201.136" xlink:href="#j"/>
<use x="32.36419" y="201.136" xlink:href="#r"/>
<use x="37.594555" y="201.136" xlink:href="#ah"/>
<use x="42.82492" y="201.136" xlink:href="#ag"/>
<use x="48.055285" y="201.136" xlink:href="#d"/>
<use x="53.28565" y="201.136" xlink:href="#m"/>
<use x="58.516015" y="201.136" xlink:href="#q"/>
<use x="63.74638" y="201.136" xlink:href="#ai"/>
<use x="68.976745" y="201.136" xlink:href="#e"/>
<use x="165.165" y="374.511" xlink:href="#g"/>
<use x="170.395365" y="374.511" xlink:href="#b"/>
<use x="175.62573" y="374.511" xlink:href="#c"/>
</g>
<path transform="matrix(1 0 0 -1 181.48 374.31)" d="m3.75e-4 -5e-4h3.1367" fill="none" stroke="#000" stroke-miterlimit="10" stroke-width=".398"/>
<g>
<use x="184.622" y="374.511" xlink:href="#j"/>
<use x="189.852365" y="374.511" xlink:href="#a"/>
<use x="195.08273" y="374.511" xlink:href="#i"/>
<use x="200.313095" y="374.511" xlink:href="#b"/>
<use x="205.54346" y="374.511" xlink:href="#d"/>
<use x="210.773825" y="374.511" xlink:href="#r"/>
<use x="216.00419" y="374.511" xlink:href="#e"/>
<use x="165.165" y="362.719" xlink:href="#w"/>
<use x="170.395365" y="362.719" xlink:href="#l"/>
<use x="175.62573" y="362.719" xlink:href="#v"/>
<use x="180.856095" y="362.719" xlink:href="#a"/>
</g>
<path transform="matrix(1 0 0 -1 186.71 362.52)" d="m8.4375e-4 4.6875e-4h3.1367" fill="none" stroke="#000" stroke-miterlimit="10" stroke-width=".398"/>
<g>
<use x="189.853" y="362.719" xlink:href="#u"/>
<use x="195.083365" y="362.719" xlink:href="#l"/>
<use x="200.31373" y="362.719" xlink:href="#v"/>
<use x="205.544095" y="362.719" xlink:href="#a"/>
<use x="210.77446" y="362.719" xlink:href="#c"/>
<use x="216.004825" y="362.719" xlink:href="#d"/>
<use x="221.23519" y="362.719" xlink:href="#r"/>
<use x="226.465555" y="362.719" xlink:href="#q"/>
<use x="231.69592" y="362.719" xlink:href="#ai"/>
<use x="236.926285" y="362.719" xlink:href="#q"/>
<use x="242.15665" y="362.719" xlink:href="#b"/>
<use x="247.387015" y="362.719" xlink:href="#l"/>
<use x="252.61738" y="362.719" xlink:href="#c"/>
<use x="257.847745" y="362.719" xlink:href="#l"/>
<use x="263.07811" y="362.719" xlink:href="#q"/>
<use x="268.308475" y="362.719" xlink:href="#h"/>
<use x="273.53884" y="362.719" xlink:href="#ae"/>
<use x="278.769205" y="362.719" xlink:href="#a"/>
<use x="283.99957" y="362.719" xlink:href="#h"/>
<use x="289.229935" y="362.719" xlink:href="#v"/>
<use x="294.4603" y="362.719" xlink:href="#j"/>
<use x="299.690665" y="362.719" xlink:href="#g"/>
<use x="304.92103" y="362.719" xlink:href="#w"/>
<use x="310.151395" y="362.719" xlink:href="#e"/>
<use x="165.589" y="24.495" xlink:href="#h"/>
<use x="170.819365" y="24.495" xlink:href="#p"/>
<use x="176.04973" y="24.495" xlink:href="#w"/>
<use x="181.280095" y="24.495" xlink:href="#u"/>
<use x="186.51046" y="24.495" xlink:href="#g"/>
<use x="191.740825" y="24.495" xlink:href="#c"/>
<use x="196.97119" y="24.495" xlink:href="#a"/>
<use x="207.43192" y="24.495" xlink:href="#h"/>
<use x="212.662285" y="24.495" xlink:href="#ae"/>
<use x="217.89265" y="24.495" xlink:href="#a"/>
<use x="223.123015" y="24.495" xlink:href="#h"/>
<use x="228.35338" y="24.495" xlink:href="#v"/>
<use x="233.583745" y="24.495" xlink:href="#j"/>
<use x="238.81411" y="24.495" xlink:href="#g"/>
<use x="244.044475" y="24.495" xlink:href="#w"/>
<use x="165.589" y="48.08" xlink:href="#g"/>
<use x="170.819365" y="48.08" xlink:href="#b"/>
<use x="176.04973" y="48.08" xlink:href="#c"/>
</g>
<path transform="matrix(1 0 0 -1 181.91 47.88)" d="m-7.5e-4 0.0010938h3.1406" fill="none" stroke="#000" stroke-miterlimit="10" stroke-width=".398"/>
<g>
<use x="185.046" y="48.08" xlink:href="#j"/>
<use x="190.276365" y="48.08" xlink:href="#a"/>
<use x="195.50673" y="48.08" xlink:href="#i"/>
<use x="200.737095" y="48.08" xlink:href="#b"/>
<use x="205.96746" y="48.08" xlink:href="#d"/>
<use x="211.197825" y="48.08" xlink:href="#r"/>
<use x="216.42819" y="48.08" xlink:href="#e"/>
<use x="165.589" y="36.288" xlink:href="#w"/>
<use x="170.819365" y="36.288" xlink:href="#l"/>
<use x="176.04973" y="36.288" xlink:href="#v"/>
<use x="181.280095" y="36.288" xlink:href="#a"/>
</g>
<path transform="matrix(1 0 0 -1 187.14 36.088)" d="m-0.0012812-0.0018438h3.1406" fill="none" stroke="#000" stroke-miterlimit="10" stroke-width=".398"/>
<g>
<use x="190.276" y="36.288" xlink:href="#u"/>
<use x="195.506365" y="36.288" xlink:href="#l"/>
<use x="200.73673" y="36.288" xlink:href="#v"/>
<use x="205.967095" y="36.288" xlink:href="#a"/>
<use x="211.19746" y="36.288" xlink:href="#c"/>
<use x="216.427825" y="36.288" xlink:href="#d"/>
<use x="221.65819" y="36.288" xlink:href="#r"/>
<use x="226.888555" y="36.288" xlink:href="#q"/>
<use x="232.11892" y="36.288" xlink:href="#aj"/>
<use x="237.349285" y="36.288" xlink:href="#q"/>
<use x="242.57965" y="36.288" xlink:href="#b"/>
<use x="247.810015" y="36.288" xlink:href="#l"/>
<use x="253.04038" y="36.288" xlink:href="#c"/>
<use x="258.270745" y="36.288" xlink:href="#l"/>
<use x="263.50111" y="36.288" xlink:href="#q"/>
<use x="268.731475" y="36.288" xlink:href="#h"/>
<use x="273.96184" y="36.288" xlink:href="#ae"/>
<use x="279.192205" y="36.288" xlink:href="#a"/>
<use x="284.42257" y="36.288" xlink:href="#h"/>
<use x="289.652935" y="36.288" xlink:href="#v"/>
<use x="294.8833" y="36.288" xlink:href="#j"/>
<use x="300.113665" y="36.288" xlink:href="#g"/>
<use x="305.34403" y="36.288" xlink:href="#w"/>
<use x="310.574395" y="36.288" xlink:href="#e"/>
<use x="287.169" y="177.552" xlink:href="#f"/>
<use x="292.399365" y="177.552" xlink:href="#b"/>
<use x="297.62973" y="177.552" xlink:href="#c"/>
</g>
<path transform="matrix(1 0 0 -1 303.49 177.35)" d="m2.8125e-4 4.375e-4h3.1367" fill="none" stroke="#000" stroke-miterlimit="10" stroke-width=".398"/>
<g>
<use x="306.626" y="177.552" xlink:href="#f"/>
<use x="311.856365" y="177.552" xlink:href="#a"/>
<use x="317.08673" y="177.552" xlink:href="#h"/>
<use x="322.317095" y="177.552" xlink:href="#a"/>
<use x="327.54746" y="177.552" xlink:href="#x"/>
<use x="332.777825" y="177.552" xlink:href="#af"/>
<use x="338.00819" y="177.552" xlink:href="#a"/>
<use x="343.238555" y="177.552" xlink:href="#d"/>
<use x="348.46892" y="177.552" xlink:href="#m"/>
<use x="353.699285" y="177.552" xlink:href="#e"/>
</g>
</svg>
