<svg width="356pt" height="108pt" version="1.1" viewBox="0 0 356 108" xmlns="http://www.w3.org/2000/svg" xmlns:xlink="http://www.w3.org/1999/xlink">
<defs>
<g id="y">
<path d="m8.8125-6.2656h-1.875v0.1875c0.48438 0.046875 0.65625 0.15625 0.65625 0.40625 0 0.20312-0.0625 0.4375-0.15625 0.70312l-1.1719 3.2031-1.25-3.2188c-0.03125-0.046875-0.10938-0.25-0.125-0.28125-0.078125-0.20312-0.14062-0.375-0.14062-0.48438 0-0.21875 0.21875-0.3125 0.73438-0.32812v-0.1875h-2.5312v0.1875c0.54688 0.015625 0.64062 0.09375 0.95312 0.84375l0.3125 0.78125-1 2.6719-1.3594-3.5625c-0.078125-0.17188-0.10938-0.32812-0.10938-0.4375 0-0.20312 0.125-0.26562 0.60938-0.29688v-0.1875h-2.3125v0.1875c0.48438 0.046875 0.625 0.21875 0.96875 1.1094l1.8281 5.0781h0.14062l1.4531-4 1.5156 4h0.14062c0.8125-2.4688 0.90625-2.7344 1.9375-5.5156 0.17188-0.5 0.28125-0.57812 0.78125-0.67188z"/>
</g>
<g id="d">
<path d="m3.8594-1.5469c-0.45312 0.71875-0.85938 0.98438-1.4688 0.98438-0.53125 0-0.9375-0.26562-1.2188-0.8125-0.17188-0.35938-0.23438-0.67188-0.25-1.25h2.9062c-0.078125-0.60938-0.17188-0.875-0.40625-1.1875-0.28125-0.34375-0.71875-0.53125-1.2031-0.53125s-0.92188 0.17188-1.2812 0.48438c-0.45312 0.39062-0.70312 1.0625-0.70312 1.8438 0 1.2969 0.6875 2.1094 1.7656 2.1094 0.90625 0 1.6094-0.5625 2.0156-1.5781zm-2.9219-1.375c0.10938-0.73438 0.42188-1.0938 1-1.0938s0.79688 0.26562 0.92188 1.0938z"/>
</g>
<g id="x">
<path d="m1.4531-6.4375-0.046875-0.015625c-0.40625 0.14062-0.65625 0.21875-1.1094 0.34375l-0.26562 0.0625v0.15625c0.046875-0.015625 0.09375-0.015625 0.15625-0.015625 0.375 0 0.46875 0.09375 0.46875 0.48438v4.9062c0 0.29688 0.79688 0.60938 1.5625 0.60938 1.2344 0 2.2031-1.0312 2.2031-2.3906 0-1.1562-0.71875-2.0469-1.6562-2.0469-0.57812 0-1.125 0.32812-1.3125 0.79688zm0 3.3906c0-0.35938 0.4375-0.70312 0.92188-0.70312 0.75 0 1.2188 0.73438 1.2188 1.8906 0 1.0469-0.45312 1.6562-1.2344 1.6562-0.48438 0-0.90625-0.21875-0.90625-0.45312z"/>
</g>
<g id="w">
<path d="m5.0469-2.0781v-0.625h-4.7656v0.625z"/>
</g>
<g id="ac">
<path d="m4.2188-6.3906h-0.1875c-0.046875 0.21875-0.14062 0.32812-0.3125 0.32812-0.09375 0-0.25-0.046875-0.40625-0.125-0.35938-0.125-0.70312-0.20312-1-0.20312-0.40625 0-0.82812 0.15625-1.1406 0.4375-0.32812 0.29688-0.5 0.6875-0.5 1.1719 0 0.76562 0.42188 1.2969 1.4688 1.8438 0.6875 0.35938 1.1719 0.75 1.4062 1.1094 0.09375 0.125 0.14062 0.32812 0.14062 0.54688 0 0.64062-0.46875 1.0781-1.1562 1.0781-0.84375 0-1.4375-0.53125-1.9219-1.6719h-0.21875l0.29688 2h0.20312c0-0.1875 0.125-0.3125 0.26562-0.3125 0.09375 0 0.26562 0.03125 0.4375 0.10938 0.35938 0.14062 0.73438 0.20312 1.125 0.20312 1.0781 0 1.9219-0.73438 1.9219-1.7188 0-0.76562-0.51562-1.3906-1.7656-2.0625-1-0.54688-1.3906-0.95312-1.3906-1.4688s0.39062-0.875 0.98438-0.875c0.42188 0 0.82812 0.17188 1.1562 0.51562 0.28125 0.29688 0.42188 0.54688 0.57812 1.1094h0.23438z"/>
</g>
<g id="v">
<path d="m0.0625-3.6875c0.14062-0.03125 0.21875-0.03125 0.32812-0.03125 0.25 0 0.32812 0.14062 0.32812 0.5625v2.3594c0 0.46875-0.0625 0.54688-0.67188 0.65625v0.14062h2.2656v-0.14062c-0.64062-0.03125-0.79688-0.17188-0.79688-0.70312v-2.1406c0-0.29688 0.40625-0.76562 0.65625-0.76562 0.0625 0 0.14062 0.046875 0.25 0.14062 0.15625 0.125 0.25 0.1875 0.375 0.1875 0.23438 0 0.375-0.15625 0.375-0.42188 0-0.3125-0.20312-0.5-0.53125-0.5-0.39062 0-0.67188 0.21875-1.125 0.89062v-0.875l-0.046875-0.015625c-0.5 0.20312-0.84375 0.32812-1.4062 0.5z"/>
</g>
<g id="ab">
<path d="m4.5156-4.25h-1.3281v0.14062c0.3125 0.03125 0.45312 0.125 0.45312 0.29688 0 0.09375-0.015625 0.1875-0.0625 0.28125l-0.9375 2.4531-0.95312-2.4219c-0.0625-0.125-0.09375-0.26562-0.09375-0.34375 0-0.17188 0.10938-0.23438 0.4375-0.26562v-0.14062h-1.8594v0.14062c0.35938 0.015625 0.4375 0.10938 0.875 1.0781l1.125 2.7188c0.015625 0.0625 0.046875 0.125 0.078125 0.20312 0.0625 0.17188 0.10938 0.23438 0.17188 0.23438s0.125-0.10938 0.26562-0.46875l1.2031-3.0312c0.28125-0.64062 0.32812-0.70312 0.625-0.73438z"/>
</g>
<g id="aa">
<path d="m5.8594-4.25-0.078125-2.1406h-0.20312c-0.0625 0.20312-0.20312 0.3125-0.39062 0.3125-0.09375 0-0.23438-0.03125-0.375-0.078125-0.46875-0.15625-0.9375-0.23438-1.375-0.23438-0.78125 0-1.5625 0.29688-2.1562 0.8125-0.65625 0.59375-1.0156 1.4688-1.0156 2.5 0 0.89062 0.28125 1.7031 0.76562 2.2344 0.5625 0.60938 1.4375 0.96875 2.375 0.96875 1.0625 0 2-0.42188 2.5781-1.1875l-0.17188-0.17188c-0.70312 0.67188-1.3281 0.95312-2.1094 0.95312-0.59375 0-1.125-0.1875-1.5312-0.54688-0.51562-0.46875-0.8125-1.3125-0.8125-2.3594 0-1.7188 0.875-2.8281 2.25-2.8281 0.54688 0 1.0312 0.20312 1.4062 0.57812 0.3125 0.29688 0.45312 0.5625 0.625 1.1875z"/>
</g>
<g id="z">
<path d="m0.17188-5.8906h0.0625c0.10938-0.015625 0.21875-0.015625 0.29688-0.015625 0.29688 0 0.39062 0.125 0.39062 0.57812v4.5c0 0.51562-0.125 0.64062-0.71875 0.6875v0.14062h2.2188v-0.14062c-0.59375-0.03125-0.70312-0.14062-0.70312-0.65625v-5.6406l-0.03125-0.015625c-0.5 0.15625-0.85938 0.25-1.5156 0.40625z"/>
</g>
<g id="af">
<path d="m1.6562-4.3438-1.4688 0.51562v0.14062l0.078125-0.015625c0.10938-0.015625 0.23438-0.015625 0.32812-0.015625 0.21875 0 0.29688 0.14062 0.29688 0.5625v2.1875c0 0.6875-0.09375 0.79688-0.73438 0.82812v0.14062h2.2344v-0.14062c-0.625-0.046875-0.70312-0.14062-0.70312-0.82812v-3.3438zm-0.45312-2.1094c-0.25 0-0.46875 0.21875-0.46875 0.48438s0.20312 0.46875 0.46875 0.46875c0.28125 0 0.5-0.20312 0.5-0.46875s-0.21875-0.48438-0.5-0.48438z"/>
</g>
<g id="ae">
<path d="m0.15625-3.7656c0.046875-0.03125 0.14062-0.03125 0.25-0.03125 0.26562 0 0.34375 0.14062 0.34375 0.60938v2.3438c0 0.53125-0.09375 0.67188-0.57812 0.70312v0.14062h2v-0.14062c-0.48438-0.03125-0.625-0.15625-0.625-0.5v-2.6562c0.45312-0.42188 0.67188-0.53125 0.98438-0.53125 0.45312 0 0.6875 0.29688 0.6875 0.92188v1.9688c0 0.59375-0.125 0.76562-0.59375 0.79688v0.14062h1.9531v-0.14062c-0.45312-0.046875-0.5625-0.15625-0.5625-0.625v-2.1719c0-0.875-0.42188-1.4062-1.125-1.4062-0.4375 0-0.71875 0.15625-1.375 0.76562v-0.75l-0.0625-0.015625c-0.45312 0.17188-0.78125 0.26562-1.2969 0.42188z"/>
</g>
<g id="ad">
<path d="m2.4062-4.25h-0.95312v-1.0938c0-0.09375 0-0.125-0.0625-0.125-0.0625 0.078125-0.125 0.17188-0.1875 0.26562-0.35938 0.51562-0.76562 0.96875-0.92188 1-0.10938 0.078125-0.15625 0.14062-0.15625 0.1875 0 0.03125 0 0.046875 0.03125 0.0625h0.5v2.8438c0 0.79688 0.28125 1.2031 0.84375 1.2031 0.46875 0 0.82812-0.21875 1.1406-0.71875l-0.125-0.10938c-0.20312 0.25-0.35938 0.34375-0.5625 0.34375-0.35938 0-0.5-0.26562-0.5-0.85938v-2.7031h0.95312z"/>
</g>
<g id="j">
<path d="m2.0781-1.9375c0.21875 0.046875 1.0312 0.20312 1.0312 0.92188 0 0.5-0.34375 0.90625-1.125 0.90625-0.84375 0-1.2031-0.5625-1.3906-1.4219-0.03125-0.125-0.03125-0.15625-0.14062-0.15625-0.125 0-0.125 0.0625-0.125 0.23438v1.3281c0 0.17188 0 0.23438 0.10938 0.23438 0.046875 0 0.0625-0.015625 0.25-0.20312 0.015625-0.015625 0.015625-0.03125 0.20312-0.21875 0.4375 0.40625 0.89062 0.42188 1.0938 0.42188 1.1406 0 1.6094-0.67188 1.6094-1.3906 0-0.51562-0.29688-0.82812-0.42188-0.9375-0.32812-0.32812-0.71875-0.40625-1.1406-0.48438-0.5625-0.10938-1.2188-0.23438-1.2188-0.8125 0-0.35938 0.25-0.76562 1.1094-0.76562 1.0938 0 1.1562 0.90625 1.1719 1.2031 0 0.09375 0.09375 0.09375 0.10938 0.09375 0.14062 0 0.14062-0.046875 0.14062-0.23438v-1.0156c0-0.15625 0-0.23438-0.10938-0.23438-0.046875 0-0.078125 0-0.20312 0.125-0.03125 0.03125-0.125 0.125-0.17188 0.15625-0.375-0.28125-0.78125-0.28125-0.9375-0.28125-1.2188 0-1.5938 0.67188-1.5938 1.2344 0 0.34375 0.15625 0.625 0.42188 0.84375 0.32812 0.25 0.60938 0.3125 1.3281 0.45312z"/>
</g>
<g id="b">
<path d="m4.6875-2.1406c0-1.2656-0.98438-2.3281-2.1875-2.3281-1.25 0-2.2188 1.0938-2.2188 2.3281 0 1.2969 1.0312 2.25 2.2031 2.25 1.2031 0 2.2031-0.98438 2.2031-2.25zm-2.1875 2c-0.4375 0-0.875-0.20312-1.1406-0.67188-0.25-0.4375-0.25-1.0469-0.25-1.4062 0-0.39062 0-0.92188 0.23438-1.3594 0.26562-0.45312 0.73438-0.67188 1.1406-0.67188 0.4375 0 0.85938 0.21875 1.125 0.65625 0.26562 0.42188 0.26562 1 0.26562 1.375 0 0.35938 0 0.90625-0.21875 1.3438-0.23438 0.45312-0.67188 0.73438-1.1562 0.73438z"/>
</g>
<g id="l">
<path d="m3.8906-0.78125v0.89062l1.4375-0.10938v-0.3125c-0.6875 0-0.76562-0.0625-0.76562-0.5625v-3.5312l-1.4688 0.10938v0.3125c0.6875 0 0.78125 0.0625 0.78125 0.5625v1.7656c0 0.875-0.48438 1.5469-1.2188 1.5469-0.82812 0-0.875-0.46875-0.875-0.98438v-3.3125l-1.4688 0.10938v0.3125c0.78125 0 0.78125 0.03125 0.78125 0.90625v1.5c0 0.78125 0 1.6875 1.5156 1.6875 0.5625 0 1-0.28125 1.2812-0.89062z"/>
</g>
<g id="c">
<path d="m1.6719-3.3125v-1.0938l-1.3906 0.10938v0.3125c0.70312 0 0.78125 0.0625 0.78125 0.5625v2.6719c0 0.4375-0.10938 0.4375-0.78125 0.4375v0.3125c0.39062-0.015625 0.85938-0.03125 1.1406-0.03125 0.39062 0 0.85938 0 1.2656 0.03125v-0.3125h-0.21875c-0.73438 0-0.75-0.10938-0.75-0.46875v-1.5312c0-0.98438 0.42188-1.875 1.1719-1.875 0.0625 0 0.09375 0 0.10938 0.015625-0.03125 0-0.23438 0.125-0.23438 0.39062s0.21875 0.42188 0.4375 0.42188c0.17188 0 0.42188-0.125 0.42188-0.4375s-0.3125-0.60938-0.73438-0.60938c-0.73438 0-1.0938 0.67188-1.2188 1.0938z"/>
</g>
<g id="k">
<path d="m1.1719-2.1719c0-1.625 0.8125-2.0469 1.3438-2.0469 0.09375 0 0.71875 0.015625 1.0625 0.375-0.40625 0.03125-0.46875 0.32812-0.46875 0.45312 0 0.26562 0.1875 0.45312 0.45312 0.45312s0.46875-0.15625 0.46875-0.46875c0-0.67188-0.76562-1.0625-1.5312-1.0625-1.25 0-2.1562 1.0781-2.1562 2.3125 0 1.2812 0.98438 2.2656 2.1406 2.2656 1.3281 0 1.6562-1.2031 1.6562-1.2969s-0.10938-0.09375-0.14062-0.09375c-0.078125 0-0.10938 0.03125-0.125 0.09375-0.28125 0.92188-0.9375 1.0469-1.2969 1.0469-0.53125 0-1.4062-0.42188-1.4062-2.0312z"/>
</g>
<g id="g">
<path d="m1.1094-2.5156c0.0625-1.4844 0.90625-1.7344 1.25-1.7344 1.0156 0 1.125 1.3438 1.125 1.7344zm0 0.21875h2.7812c0.21875 0 0.25 0 0.25-0.21875 0-0.98438-0.54688-1.9531-1.7812-1.9531-1.1562 0-2.0781 1.0312-2.0781 2.2812 0 1.3281 1.0469 2.2969 2.1875 2.2969 1.2188 0 1.6719-1.1094 1.6719-1.2969 0-0.09375-0.078125-0.125-0.14062-0.125-0.078125 0-0.10938 0.0625-0.125 0.14062-0.34375 1.0312-1.25 1.0312-1.3438 1.0312-0.5 0-0.89062-0.29688-1.125-0.67188-0.29688-0.46875-0.29688-1.125-0.29688-1.4844z"/>
</g>
<g id="f">
<path d="m2.2656-3.1562h1.6875c1.1875 0 2.2656-0.79688 2.2656-1.7969 0-0.98438-0.98438-1.8594-2.3438-1.8594h-3.5312v0.3125h0.25c0.76562 0 0.78125 0.10938 0.78125 0.46875v5.25c0 0.35938-0.015625 0.46875-0.78125 0.46875h-0.25v0.3125c0.35938-0.03125 1.0938-0.03125 1.4688-0.03125s1.125 0 1.4844 0.03125v-0.3125h-0.25c-0.76562 0-0.78125-0.10938-0.78125-0.46875zm-0.03125-0.25v-2.6875c0-0.34375 0.015625-0.40625 0.48438-0.40625h0.89062c1.5781 0 1.5781 1.0625 1.5781 1.5469 0 0.46875 0 1.5469-1.5781 1.5469z"/>
</g>
<g id="a">
<path d="m1.7188-3.9844h1.4375v-0.3125h-1.4375v-1.8281h-0.25c0 0.8125-0.29688 1.875-1.2812 1.9219v0.21875h0.84375v2.75c0 1.2188 0.9375 1.3438 1.2969 1.3438 0.70312 0 0.98438-0.70312 0.98438-1.3438v-0.5625h-0.25v0.54688c0 0.73438-0.29688 1.1094-0.67188 1.1094-0.67188 0-0.67188-0.90625-0.67188-1.0781z"/>
</g>
<g id="e">
<path d="m1.9062-3.7656c0-0.29688-0.23438-0.53125-0.51562-0.53125-0.29688 0-0.53125 0.23438-0.53125 0.53125 0 0.28125 0.23438 0.53125 0.53125 0.53125 0.28125 0 0.51562-0.25 0.51562-0.53125zm0 3.2344c0-0.28125-0.23438-0.53125-0.51562-0.53125-0.29688 0-0.53125 0.25-0.53125 0.53125 0 0.29688 0.23438 0.53125 0.53125 0.53125 0.28125 0 0.51562-0.23438 0.51562-0.53125z"/>
</g>
<g id="u">
<path d="m1.625-4.5625c-0.45312-0.29688-0.5-0.625-0.5-0.79688 0-0.60938 0.65625-1.0312 1.3594-1.0312 0.71875 0 1.3594 0.51562 1.3594 1.2344 0 0.57812-0.39062 1.0469-0.98438 1.3906zm1.4531 0.95312c0.71875-0.375 1.2031-0.89062 1.2031-1.5469 0-0.92188-0.875-1.4844-1.7812-1.4844-1 0-1.8125 0.73438-1.8125 1.6719 0 0.17188 0.015625 0.625 0.4375 1.0938 0.10938 0.10938 0.48438 0.35938 0.73438 0.53125-0.57812 0.29688-1.4375 0.84375-1.4375 1.8438 0 1.0469 1.0156 1.7188 2.0625 1.7188 1.125 0 2.0781-0.82812 2.0781-1.8906 0-0.35938-0.10938-0.8125-0.5-1.2344-0.1875-0.20312-0.34375-0.29688-0.98438-0.70312zm-1 0.42188 1.2344 0.78125c0.28125 0.1875 0.75 0.48438 0.75 1.0938 0 0.73438-0.75 1.25-1.5625 1.25-0.85938 0-1.5781-0.60938-1.5781-1.4375 0-0.57812 0.3125-1.2188 1.1562-1.6875z"/>
</g>
<g id="t">
<path d="m4.5781-3.1875c0-0.79688-0.046875-1.5938-0.39062-2.3281-0.45312-0.96875-1.2812-1.125-1.6875-1.125-0.60938 0-1.3281 0.26562-1.75 1.1875-0.3125 0.6875-0.35938 1.4688-0.35938 2.2656 0 0.75 0.03125 1.6406 0.45312 2.4062 0.42188 0.79688 1.1562 1 1.6406 1 0.53125 0 1.2969-0.20312 1.7344-1.1562 0.3125-0.6875 0.35938-1.4688 0.35938-2.25zm-2.0938 3.1875c-0.39062 0-0.98438-0.25-1.1562-1.2031-0.10938-0.59375-0.10938-1.5156-0.10938-2.1094 0-0.64062 0-1.2969 0.078125-1.8281 0.1875-1.1875 0.9375-1.2812 1.1875-1.2812 0.32812 0 0.98438 0.1875 1.1719 1.1719 0.10938 0.5625 0.10938 1.3125 0.10938 1.9375 0 0.75 0 1.4219-0.10938 2.0625-0.15625 0.95312-0.71875 1.25-1.1719 1.25z"/>
</g>
<g id="s">
<path d="m3.7812-0.54688v0.65625l1.4688-0.10938v-0.3125c-0.6875 0-0.78125-0.0625-0.78125-0.5625v-6.0469l-1.4219 0.10938v0.3125c0.6875 0 0.76562 0.0625 0.76562 0.5625v2.1562c-0.28125-0.35938-0.71875-0.625-1.25-0.625-1.1719 0-2.2188 0.98438-2.2188 2.2656 0 1.2656 0.96875 2.25 2.1094 2.25 0.64062 0 1.0781-0.34375 1.3281-0.65625zm0-2.6719v2.0469c0 0.17188 0 0.1875-0.10938 0.35938-0.29688 0.48438-0.73438 0.70312-1.1719 0.70312-0.45312 0-0.8125-0.26562-1.0469-0.64062-0.25-0.40625-0.28125-0.96875-0.28125-1.3906 0-0.35938 0.015625-0.95312 0.29688-1.4062 0.21875-0.3125 0.59375-0.64062 1.1406-0.64062 0.34375 0 0.76562 0.15625 1.0625 0.59375 0.10938 0.17188 0.10938 0.1875 0.10938 0.375z"/>
</g>
<g id="i">
<path d="m1.7656-4.4062-1.3906 0.10938v0.3125c0.64062 0 0.73438 0.0625 0.73438 0.54688v2.6875c0 0.4375-0.10938 0.4375-0.78125 0.4375v0.3125c0.3125-0.015625 0.85938-0.03125 1.0938-0.03125 0.35938 0 0.70312 0.015625 1.0469 0.03125v-0.3125c-0.67188 0-0.70312-0.046875-0.70312-0.4375zm0.03125-1.7344c0-0.3125-0.23438-0.53125-0.51562-0.53125-0.3125 0-0.53125 0.26562-0.53125 0.53125s0.21875 0.53125 0.53125 0.53125c0.28125 0 0.51562-0.21875 0.51562-0.53125z"/>
</g>
<g id="h">
<path d="m1.0938-3.4219v2.6719c0 0.4375-0.10938 0.4375-0.78125 0.4375v0.3125c0.35938-0.015625 0.85938-0.03125 1.1406-0.03125 0.25 0 0.76562 0.015625 1.1094 0.03125v-0.3125c-0.67188 0-0.78125 0-0.78125-0.4375v-1.8438c0-1.0312 0.71875-1.5938 1.3438-1.5938 0.64062 0 0.75 0.53125 0.75 1.1094v2.3281c0 0.4375-0.10938 0.4375-0.78125 0.4375v0.3125c0.34375-0.015625 0.85938-0.03125 1.125-0.03125 0.25 0 0.78125 0.015625 1.1094 0.03125v-0.3125c-0.51562 0-0.76562 0-0.76562-0.29688v-1.9062c0-0.85938 0-1.1562-0.3125-1.5156-0.14062-0.17188-0.46875-0.375-1.0469-0.375-0.73438 0-1.2031 0.42188-1.4844 1.0469v-1.0469l-1.4062 0.10938v0.3125c0.70312 0 0.78125 0.0625 0.78125 0.5625z"/>
</g>
<g id="r">
<path d="m3.3125-0.75c0.046875 0.39062 0.3125 0.8125 0.78125 0.8125 0.21875 0 0.82812-0.14062 0.82812-0.95312v-0.5625h-0.25v0.5625c0 0.57812-0.25 0.64062-0.35938 0.64062-0.32812 0-0.375-0.45312-0.375-0.5v-1.9844c0-0.42188 0-0.8125-0.35938-1.1875-0.39062-0.39062-0.89062-0.54688-1.3594-0.54688-0.82812 0-1.5156 0.46875-1.5156 1.125 0 0.29688 0.20312 0.46875 0.46875 0.46875 0.28125 0 0.45312-0.20312 0.45312-0.45312 0-0.125-0.046875-0.45312-0.51562-0.45312 0.28125-0.35938 0.76562-0.46875 1.0781-0.46875 0.5 0 1.0625 0.39062 1.0625 1.2812v0.35938c-0.51562 0.03125-1.2031 0.0625-1.8281 0.35938-0.75 0.34375-1 0.85938-1 1.2969 0 0.8125 0.96875 1.0625 1.5938 1.0625 0.65625 0 1.1094-0.40625 1.2969-0.85938zm-0.0625-1.6406v1c0 0.9375-0.71875 1.2812-1.1719 1.2812-0.48438 0-0.89062-0.34375-0.89062-0.84375 0-0.54688 0.42188-1.375 2.0625-1.4375z"/>
</g>
<g id="q">
<path d="m2.9375-6.375c0-0.25 0-0.26562-0.23438-0.26562-0.625 0.64062-1.5 0.64062-1.8125 0.64062v0.3125c0.20312 0 0.78125 0 1.2969-0.26562v5.1719c0 0.35938-0.03125 0.46875-0.92188 0.46875h-0.3125v0.3125c0.34375-0.03125 1.2031-0.03125 1.6094-0.03125 0.39062 0 1.2656 0 1.6094 0.03125v-0.3125h-0.3125c-0.90625 0-0.92188-0.10938-0.92188-0.46875z"/>
</g>
<g id="p">
<path d="m1.2656-0.76562 1.0625-1.0312c1.5469-1.375 2.1406-1.9062 2.1406-2.9062 0-1.1406-0.89062-1.9375-2.1094-1.9375-1.125 0-1.8594 0.92188-1.8594 1.8125 0 0.54688 0.5 0.54688 0.53125 0.54688 0.17188 0 0.51562-0.10938 0.51562-0.53125 0-0.25-0.1875-0.51562-0.53125-0.51562-0.078125 0-0.09375 0-0.125 0.015625 0.21875-0.65625 0.76562-1.0156 1.3438-1.0156 0.90625 0 1.3281 0.8125 1.3281 1.625 0 0.79688-0.48438 1.5781-1.0469 2.2031l-1.9062 2.125c-0.10938 0.10938-0.10938 0.14062-0.10938 0.375h3.7031l0.26562-1.7344h-0.23438c-0.0625 0.29688-0.125 0.73438-0.23438 0.89062-0.0625 0.078125-0.71875 0.078125-0.9375 0.078125z"/>
</g>
<g id="o">
<path d="m2.8906-3.5156c0.8125-0.26562 1.3906-0.95312 1.3906-1.75 0-0.8125-0.875-1.375-1.8281-1.375-1 0-1.7656 0.59375-1.7656 1.3594 0 0.32812 0.21875 0.51562 0.51562 0.51562s0.5-0.21875 0.5-0.51562c0-0.48438-0.46875-0.48438-0.60938-0.48438 0.29688-0.5 0.95312-0.625 1.3125-0.625 0.42188 0 0.96875 0.21875 0.96875 1.1094 0 0.125-0.03125 0.70312-0.28125 1.1406-0.29688 0.48438-0.64062 0.51562-0.89062 0.51562-0.078125 0.015625-0.3125 0.03125-0.39062 0.03125-0.078125 0.015625-0.14062 0.03125-0.14062 0.125 0 0.10938 0.0625 0.10938 0.23438 0.10938h0.4375c0.8125 0 1.1875 0.67188 1.1875 1.6562 0 1.3594-0.6875 1.6406-1.125 1.6406s-1.1875-0.17188-1.5312-0.75c0.34375 0.046875 0.65625-0.17188 0.65625-0.54688 0-0.35938-0.26562-0.5625-0.54688-0.5625-0.25 0-0.5625 0.14062-0.5625 0.57812 0 0.90625 0.92188 1.5625 2.0156 1.5625 1.2188 0 2.125-0.90625 2.125-1.9219 0-0.8125-0.64062-1.5938-1.6719-1.8125z"/>
</g>
<g id="n">
<path d="m2.9375-1.6406v0.85938c0 0.35938-0.03125 0.46875-0.76562 0.46875h-0.20312v0.3125c0.40625-0.03125 0.92188-0.03125 1.3438-0.03125s0.9375 0 1.3594 0.03125v-0.3125h-0.21875c-0.73438 0-0.75-0.10938-0.75-0.46875v-0.85938h0.98438v-0.3125h-0.98438v-4.5312c0-0.20312 0-0.26562-0.17188-0.26562-0.078125 0-0.10938 0-0.1875 0.125l-3.0625 4.6719v0.3125zm0.046875-0.3125h-2.4219l2.4219-3.7188z"/>
</g>
<g id="m">
<path d="m4.4688-2c0-1.1875-0.8125-2.1875-1.8906-2.1875-0.46875 0-0.90625 0.15625-1.2656 0.51562v-1.9531c0.20312 0.0625 0.53125 0.125 0.84375 0.125 1.2344 0 1.9375-0.90625 1.9375-1.0312 0-0.0625-0.03125-0.10938-0.10938-0.10938 0 0-0.03125 0-0.078125 0.03125-0.20312 0.09375-0.6875 0.29688-1.3594 0.29688-0.39062 0-0.85938-0.078125-1.3281-0.28125-0.078125-0.03125-0.09375-0.03125-0.10938-0.03125-0.10938 0-0.10938 0.078125-0.10938 0.23438v2.9531c0 0.17188 0 0.25 0.14062 0.25 0.078125 0 0.09375-0.015625 0.14062-0.078125 0.10938-0.15625 0.46875-0.70312 1.2812-0.70312 0.51562 0 0.76562 0.45312 0.84375 0.64062 0.15625 0.375 0.1875 0.75 0.1875 1.25 0 0.35938 0 0.95312-0.25 1.375-0.23438 0.39062-0.60938 0.64062-1.0625 0.64062-0.71875 0-1.2969-0.53125-1.4688-1.1094 0.03125 0 0.0625 0.015625 0.17188 0.015625 0.32812 0 0.5-0.25 0.5-0.48438 0-0.25-0.17188-0.5-0.5-0.5-0.14062 0-0.48438 0.078125-0.48438 0.53125 0 0.85938 0.6875 1.8281 1.7969 1.8281 1.1562 0 2.1719-0.95312 2.1719-2.2188z"/>
</g>
<clipPath id="al">
<path d="m0.52734 21h86.473v58h-86.473z"/>
</clipPath>
<clipPath id="ak">
<path d="m234 35h37v2h-37z"/>
</clipPath>
<clipPath id="aj">
<path d="m0.52734-0.66016v108h356v-108zm264.62 38.652h5.5117v-3.7812h-5.5117l4.7227 1.8906z" clip-rule="evenodd"/>
</clipPath>
<clipPath id="ai">
<path d="m85 70h38v3h-38z"/>
</clipPath>
<clipPath id="ah">
<path d="m0.52734-0.66016v108h356v-108zm90.43 70.309h-5.5156v3.7812h5.5156l-4.7266-1.8906z" clip-rule="evenodd"/>
</clipPath>
<clipPath id="ag">
<path d="m121 64h114v43.34h-114z"/>
</clipPath>
</defs>
<g>
<use x="288.798" y="53.8036" xlink:href="#y"/>
<use x="297.7188" y="53.8036" xlink:href="#d"/>
<use x="301.9146" y="53.8036" xlink:href="#x"/>
<use x="306.6396" y="53.8036" xlink:href="#w"/>
<use x="311.9694" y="53.8036" xlink:href="#ac"/>
<use x="317.2236" y="53.8036" xlink:href="#d"/>
<use x="321.4194" y="53.8036" xlink:href="#v"/>
<use x="324.56625" y="53.8036" xlink:href="#ab"/>
<use x="329.29125" y="53.8036" xlink:href="#d"/>
<use x="333.48705" y="53.8036" xlink:href="#v"/>
</g>
<g clip-path="url(#al)">
<path transform="matrix(.1 0 0 -.1 .528 107.34)" d="m3.3919 287.13h850.47v566.99h-850.47z" fill="none" stroke="#000" stroke-miterlimit="10" stroke-width="2.3625"/>
</g>
<path transform="matrix(.1 0 0 -.1 .528 107.34)" d="m3476.2 570.61c0-117.42-158.67-212.62-354.38-212.62s-354.38 95.195-354.38 212.62c0 117.46 158.67 212.66 354.38 212.66s354.38-95.195 354.38-212.66z" fill="none" stroke="#000" stroke-miterlimit="10" stroke-width="2.3625"/>
<path transform="matrix(.1 0 0 -.1 .528 107.34)" d="m2696.6 287.13h850.47v566.99h-850.47z" fill="none" stroke="#000" stroke-miterlimit="10" stroke-width="2.3625"/>
<path transform="matrix(.1 0 0 -.1 .528 107.34)" d="m853.86 712.36h354.38" fill="none" stroke="#000" stroke-miterlimit="10" stroke-width="14.175"/>
<g clip-path="url(#ak)">
<g clip-path="url(#aj)">
<path transform="matrix(.1 0 0 -.1 .528 107.34)" d="m2342.3 712.36h354.38" fill="none" stroke="#000" stroke-miterlimit="10" stroke-width="14.175"/>
</g>
</g>
<path d="m265.15 37.992 4.7227-1.8906-4.7227-1.8906 0.94531 1.8906-0.94531 1.8906" fill-rule="evenodd"/>
<path transform="matrix(.1 0 0 -.1 .528 107.34)" d="m2646.2 693.46 47.227 18.906-47.227 18.906 9.4531-18.906z" fill="none" stroke="#000" stroke-miterlimit="10" stroke-width="2.3625"/>
<g clip-path="url(#ai)">
<g clip-path="url(#ah)">
<path transform="matrix(.1 0 0 -.1 .528 107.34)" d="m853.86 357.99h354.38" fill="none" stroke="#000" stroke-miterlimit="10" stroke-width="14.175"/>
</g>
</g>
<path d="m90.957 69.648-4.7266 1.8906 4.7266 1.8906-0.94531-1.8906 0.94531-1.8906" fill-rule="evenodd"/>
<path transform="matrix(.1 0 0 -.1 .528 107.34)" d="m904.29 376.9-47.266-18.906 47.266-18.906-9.4531 18.906z" fill="none" stroke="#000" stroke-miterlimit="10" stroke-width="2.3625"/>
<path transform="matrix(.1 0 0 -.1 .528 107.34)" d="m2342.3 357.99h354.38" fill="none" stroke="#000" stroke-miterlimit="10" stroke-width="14.175"/>
<path transform="matrix(.1 0 0 -.1 .528 107.34)" d="m1208.2 924.98h1134" fill="none" stroke="#000" stroke-miterlimit="10" stroke-width="2.3625"/>
<path transform="matrix(.1 0 0 -.1 .528 107.34)" d="m1208.2 287.13h1134" fill="none" stroke="#000" stroke-miterlimit="10" stroke-width="2.3625"/>
<path transform="matrix(.1 0 0 -.1 .528 107.34)" d="m1208.2 145.37h1134" fill="none" stroke="#000" stroke-miterlimit="10" stroke-width="2.3625"/>
<path transform="matrix(.1 0 0 -.1 .528 107.34)" d="m1208.2 783.26h1134" fill="none" stroke="#000" stroke-miterlimit="10" stroke-width="2.3625"/>
<g clip-path="url(#ag)">
<path transform="matrix(.1 0 0 -.1 .528 107.34)" d="m1208.2 3.6144h1134v425.27h-1134z" fill="none" stroke="#000" stroke-miterlimit="10" stroke-width="2.3625"/>
</g>
<path transform="matrix(.1 0 0 -.1 .528 107.34)" d="m1208.2 641.5h1134v425.23h-1134z" fill="none" stroke="#000" stroke-miterlimit="10" stroke-width="2.3625"/>
<g>
<use x="20.2526" y="53.8036" xlink:href="#y"/>
<use x="29.1734" y="53.8036" xlink:href="#d"/>
<use x="33.3692" y="53.8036" xlink:href="#x"/>
<use x="38.0942" y="53.8036" xlink:href="#w"/>
<use x="43.424" y="53.8036" xlink:href="#aa"/>
<use x="49.72715" y="53.8036" xlink:href="#z"/>
<use x="52.35425" y="53.8036" xlink:href="#af"/>
<use x="54.98135" y="53.8036" xlink:href="#d"/>
<use x="59.17715" y="53.8036" xlink:href="#ae"/>
<use x="63.90215" y="53.8036" xlink:href="#ad"/>
</g>
<path transform="matrix(.1 0 0 -.1 .528 107.34)" d="m783 570.61c0-117.42-158.67-212.62-354.38-212.62s-354.38 95.195-354.38 212.62c0 117.46 158.67 212.66 354.38 212.66s354.38-95.195 354.38-212.66z" fill="none" stroke="#000" stroke-miterlimit="10" stroke-width="2.3625"/>
<g>
<use x="146.825" y="74.36" xlink:href="#j"/>
<use x="150.754249" y="74.36" xlink:href="#b"/>
<use x="155.735549" y="74.36" xlink:href="#l"/>
<use x="161.27077" y="74.36" xlink:href="#c"/>
<use x="165.17312" y="74.36" xlink:href="#k"/>
<use x="169.6005" y="74.36" xlink:href="#g"/>
<use x="174.027879" y="74.36" xlink:href="#f"/>
<use x="180.529472" y="74.36" xlink:href="#b"/>
<use x="185.510772" y="74.36" xlink:href="#c"/>
<use x="189.413122" y="74.36" xlink:href="#a"/>
<use x="193.287578" y="74.36" xlink:href="#e"/>
<use x="199.382696" y="74.36" xlink:href="#u"/>
<use x="204.363996" y="74.36" xlink:href="#t"/>
<use x="128.851" y="88.691" xlink:href="#s"/>
<use x="134.386221" y="88.691" xlink:href="#g"/>
<use x="138.8136" y="88.691" xlink:href="#j"/>
<use x="142.742849" y="88.691" xlink:href="#a"/>
<use x="146.617305" y="88.691" xlink:href="#i"/>
<use x="149.384915" y="88.691" xlink:href="#h"/>
<use x="154.920135" y="88.691" xlink:href="#r"/>
<use x="159.901435" y="88.691" xlink:href="#a"/>
<use x="163.775891" y="88.691" xlink:href="#i"/>
<use x="166.543501" y="88.691" xlink:href="#b"/>
<use x="171.524801" y="88.691" xlink:href="#h"/>
<use x="177.060021" y="88.691" xlink:href="#f"/>
<use x="183.561614" y="88.691" xlink:href="#b"/>
<use x="188.542914" y="88.691" xlink:href="#c"/>
<use x="192.445265" y="88.691" xlink:href="#a"/>
<use x="196.31972" y="88.691" xlink:href="#e"/>
<use x="202.404876" y="88.691" xlink:href="#q"/>
<use x="207.386176" y="88.691" xlink:href="#p"/>
<use x="212.367476" y="88.691" xlink:href="#o"/>
<use x="217.348776" y="88.691" xlink:href="#n"/>
<use x="222.330076" y="88.691" xlink:href="#m"/>
<use x="136.323" y="25.38" xlink:href="#s"/>
<use x="141.858221" y="25.38" xlink:href="#g"/>
<use x="146.2856" y="25.38" xlink:href="#j"/>
<use x="150.214849" y="25.38" xlink:href="#a"/>
<use x="154.089305" y="25.38" xlink:href="#i"/>
<use x="156.856915" y="25.38" xlink:href="#h"/>
<use x="162.392135" y="25.38" xlink:href="#r"/>
<use x="167.373435" y="25.38" xlink:href="#a"/>
<use x="171.247891" y="25.38" xlink:href="#i"/>
<use x="174.015501" y="25.38" xlink:href="#b"/>
<use x="178.996801" y="25.38" xlink:href="#h"/>
<use x="184.532021" y="25.38" xlink:href="#f"/>
<use x="191.033614" y="25.38" xlink:href="#b"/>
<use x="196.014914" y="25.38" xlink:href="#c"/>
<use x="199.917265" y="25.38" xlink:href="#a"/>
<use x="203.79172" y="25.38" xlink:href="#e"/>
<use x="209.876876" y="25.38" xlink:href="#u"/>
<use x="214.858176" y="25.38" xlink:href="#t"/>
<use x="139.353" y="10.576" xlink:href="#j"/>
<use x="143.282249" y="10.576" xlink:href="#b"/>
<use x="148.263549" y="10.576" xlink:href="#l"/>
<use x="153.79877" y="10.576" xlink:href="#c"/>
<use x="157.70112" y="10.576" xlink:href="#k"/>
<use x="162.1285" y="10.576" xlink:href="#g"/>
<use x="166.555879" y="10.576" xlink:href="#f"/>
<use x="173.057472" y="10.576" xlink:href="#b"/>
<use x="178.038772" y="10.576" xlink:href="#c"/>
<use x="181.941122" y="10.576" xlink:href="#a"/>
<use x="185.815578" y="10.576" xlink:href="#e"/>
<use x="191.910696" y="10.576" xlink:href="#q"/>
<use x="196.891996" y="10.576" xlink:href="#p"/>
<use x="201.873296" y="10.576" xlink:href="#o"/>
<use x="206.854596" y="10.576" xlink:href="#n"/>
<use x="211.835896" y="10.576" xlink:href="#m"/>
</g>
</svg>
