<svg width="347pt" height="516pt" version="1.1" viewBox="0 0 347 516" xmlns="http://www.w3.org/2000/svg" xmlns:xlink="http://www.w3.org/1999/xlink">
<defs>
<g id="c">
<path d="m3.1406-5.1562c0-0.15625 0-0.21875-0.17188-0.21875-0.09375 0-0.10938 0-0.1875 0.10938l-2.5469 3.7031v0.25h2.25v0.67188c0 0.29688-0.015625 0.375-0.64062 0.375h-0.17188v0.26562c0.67188-0.03125 0.6875-0.03125 1.1406-0.03125s0.46875 0 1.1406 0.03125v-0.26562h-0.17188c-0.625 0-0.64062-0.078125-0.64062-0.375v-0.67188h0.84375v-0.25h-0.84375zm-0.59375 0.64062v2.9531h-2.0312z"/>
</g>
<g id="b">
<path d="m3.125-2.3438c0 1.9375-0.92188 2.2656-1.3906 2.2656-0.17188 0-0.57812-0.015625-0.79688-0.26562 0.35938-0.03125 0.375-0.29688 0.375-0.375 0-0.23438-0.1875-0.375-0.375-0.375-0.14062 0-0.375 0.09375-0.375 0.39062 0 0.54688 0.45312 0.875 1.1875 0.875 1.0938 0 2.125-1.0938 2.125-2.7969 0-2.0625-0.92188-2.6719-1.7344-2.6719-0.95312 0-1.7969 0.73438-1.7969 1.7812 0 1.0156 0.78125 1.7656 1.6875 1.7656 0.5625 0 0.90625-0.35938 1.0938-0.76562zm-1.0625 0.375c-0.375 0-0.60938-0.17188-0.78125-0.46875-0.1875-0.28125-0.1875-0.67188-0.1875-1.0781 0-0.46875 0-0.79688 0.21875-1.125 0.20312-0.29688 0.45312-0.45312 0.82812-0.45312 0.53125 0 0.76562 0.53125 0.79688 0.5625 0.15625 0.39062 0.17188 1.0156 0.17188 1.1719 0 0.64062-0.34375 1.3906-1.0469 1.3906z"/>
</g>
<g id="d">
<path d="m1.1094-4.4844c0.10938 0.03125 0.42188 0.125 0.76562 0.125 1 0 1.5938-0.70312 1.5938-0.82812 0-0.09375-0.046875-0.10938-0.09375-0.10938-0.015625 0-0.03125 0-0.09375 0.03125-0.3125 0.125-0.6875 0.21875-1.1094 0.21875-0.46875 0-0.85938-0.10938-1.1094-0.21875-0.078125-0.03125-0.09375-0.03125-0.10938-0.03125-0.09375 0-0.09375 0.078125-0.09375 0.23438v2.3281c0 0.14062 0 0.23438 0.125 0.23438 0.0625 0 0.078125-0.03125 0.125-0.09375 0.09375-0.10938 0.39062-0.51562 1.0781-0.51562 0.4375 0 0.65625 0.35938 0.73438 0.51562 0.125 0.28125 0.14062 0.65625 0.14062 0.95312s0 0.73438-0.21875 1.0781c-0.15625 0.25-0.48438 0.48438-0.90625 0.48438-0.51562 0-1.0156-0.3125-1.2031-0.84375 0.015625 0.015625 0.078125 0.015625 0.078125 0.015625 0.21875 0 0.40625-0.14062 0.40625-0.39062 0-0.29688-0.23438-0.40625-0.39062-0.40625s-0.40625 0.078125-0.40625 0.42188c0 0.71875 0.625 1.4531 1.5312 1.4531 1 0 1.8438-0.78125 1.8438-1.7656 0-0.92188-0.67188-1.75-1.6094-1.75-0.39062 0-0.76562 0.125-1.0781 0.40625z"/>
</g>
<g id="h">
<path d="m2.0156-2.6562c0.625 0 1.0312 0.45312 1.0312 1.2969 0 1-0.5625 1.2812-0.98438 1.2812-0.4375 0-1.0469-0.15625-1.3281-0.57812 0.29688 0 0.5-0.1875 0.5-0.4375 0-0.26562-0.1875-0.4375-0.45312-0.4375-0.20312 0-0.4375 0.125-0.4375 0.45312 0 0.75 0.8125 1.25 1.7344 1.25 1.0469 0 1.7969-0.73438 1.7969-1.5312 0-0.67188-0.53125-1.2656-1.3438-1.4531 0.625-0.21875 1.1094-0.75 1.1094-1.3906s-0.71875-1.0938-1.5469-1.0938c-0.85938 0-1.5 0.45312-1.5 1.0625 0 0.29688 0.1875 0.42188 0.40625 0.42188 0.25 0 0.40625-0.17188 0.40625-0.40625 0-0.29688-0.26562-0.40625-0.4375-0.40625 0.34375-0.4375 0.95312-0.46875 1.0938-0.46875 0.20312 0 0.8125 0.0625 0.8125 0.89062 0 0.54688-0.23438 0.89062-0.34375 1.0156-0.23438 0.25-0.42188 0.26562-0.90625 0.29688-0.15625 0-0.21875 0.015625-0.21875 0.125s0.078125 0.10938 0.21875 0.10938z"/>
</g>
<g id="g">
<path d="m2.25-1.625c0.125-0.125 0.45312-0.39062 0.59375-0.5 0.48438-0.45312 0.95312-0.89062 0.95312-1.6094 0-0.95312-0.79688-1.5625-1.7812-1.5625-0.96875 0-1.5938 0.71875-1.5938 1.4375 0 0.39062 0.3125 0.4375 0.42188 0.4375 0.17188 0 0.42188-0.10938 0.42188-0.42188 0-0.40625-0.40625-0.40625-0.5-0.40625 0.23438-0.59375 0.76562-0.78125 1.1562-0.78125 0.73438 0 1.125 0.625 1.125 1.2969 0 0.82812-0.57812 1.4375-1.5312 2.3906l-1 1.0469c-0.09375 0.078125-0.09375 0.09375-0.09375 0.29688h3.1406l0.23438-1.4219h-0.25c-0.015625 0.15625-0.078125 0.54688-0.17188 0.70312-0.046875 0.0625-0.65625 0.0625-0.78125 0.0625h-1.4219z"/>
</g>
<g id="f">
<path d="m2.5-5.0781c0-0.21875-0.015625-0.21875-0.23438-0.21875-0.32812 0.3125-0.75 0.5-1.5 0.5v0.26562c0.21875 0 0.64062 0 1.1094-0.20312v4.0781c0 0.29688-0.03125 0.39062-0.78125 0.39062h-0.28125v0.26562c0.32812-0.03125 1.0156-0.03125 1.375-0.03125s1.0469 0 1.375 0.03125v-0.26562h-0.28125c-0.75 0-0.78125-0.09375-0.78125-0.39062z"/>
</g>
<g id="a">
<path d="m3.8906-2.5469c0-0.84375-0.078125-1.3594-0.34375-1.875-0.34375-0.70312-1-0.875-1.4375-0.875-1 0-1.375 0.75-1.4844 0.96875-0.28125 0.57812-0.29688 1.375-0.29688 1.7812 0 0.53125 0.015625 1.3281 0.40625 1.9688 0.35938 0.59375 0.95312 0.75 1.375 0.75 0.39062 0 1.0625-0.125 1.4688-0.90625 0.29688-0.57812 0.3125-1.2969 0.3125-1.8125zm-1.7812 2.4844c-0.26562 0-0.8125-0.125-0.98438-0.95312-0.09375-0.45312-0.09375-1.2031-0.09375-1.625 0-0.54688 0-1.1094 0.09375-1.5469 0.17188-0.8125 0.78125-0.89062 0.98438-0.89062 0.26562 0 0.82812 0.14062 0.98438 0.85938 0.09375 0.4375 0.09375 1.0469 0.09375 1.5781 0 0.46875 0 1.1875-0.09375 1.6406-0.17188 0.82812-0.71875 0.9375-0.98438 0.9375z"/>
</g>
<g id="q">
<path d="m2.6406-2.875c0.45312-0.21875 1-0.60938 1-1.2344 0-0.76562-0.78125-1.1875-1.5156-1.1875-0.84375 0-1.5312 0.57812-1.5312 1.3281 0 0.29688 0.09375 0.5625 0.29688 0.79688 0.14062 0.17188 0.17188 0.1875 0.65625 0.5-0.98438 0.4375-1.2031 1.0156-1.2031 1.4531 0 0.89062 0.89062 1.3906 1.7656 1.3906 0.96875 0 1.7656-0.67188 1.7656-1.5156 0-0.5-0.26562-0.82812-0.40625-0.96875-0.125-0.125-0.14062-0.14062-0.82812-0.5625zm-1.2344-0.75c-0.23438-0.14062-0.42188-0.375-0.42188-0.64062 0-0.5 0.54688-0.82812 1.125-0.82812 0.60938 0 1.125 0.42188 1.125 0.98438 0 0.45312-0.35938 0.84375-0.82812 1.0781zm0.39062 1.0938c0.03125 0.015625 0.9375 0.57812 1.0781 0.65625 0.125 0.078125 0.54688 0.32812 0.54688 0.8125 0 0.60938-0.65625 0.98438-1.2969 0.98438-0.71875 0-1.3125-0.48438-1.3125-1.1406 0-0.59375 0.4375-1.0625 0.98438-1.3125z"/>
</g>
<g id="u">
<path d="m4.0312-4.8594c0.078125-0.078125 0.078125-0.09375 0.078125-0.26562h-2.0312c-0.20312 0-0.4375-0.015625-0.64062-0.03125-0.42188-0.03125-0.42188-0.10938-0.45312-0.23438h-0.25l-0.26562 1.6875h0.25c0.015625-0.125 0.10938-0.67188 0.21875-0.73438 0.078125-0.046875 0.6875-0.046875 0.79688-0.046875h1.6875l-0.8125 1.1094c-0.90625 1.2031-1.1094 2.4688-1.1094 3.0938 0 0.078125 0 0.45312 0.375 0.45312s0.375-0.35938 0.375-0.45312v-0.39062c0-1.1406 0.20312-2.0781 0.59375-2.6094z"/>
</g>
<g id="v">
<path d="m1.0938-2.6406c0-0.65625 0.0625-1.2344 0.34375-1.7188 0.25-0.40625 0.65625-0.73438 1.1562-0.73438 0.15625 0 0.51562 0.03125 0.70312 0.29688-0.35938 0.03125-0.39062 0.29688-0.39062 0.375 0 0.25 0.1875 0.375 0.375 0.375 0.14062 0 0.375-0.078125 0.375-0.39062 0-0.46875-0.35938-0.85938-1.0781-0.85938-1.1094 0-2.2344 1.0469-2.2344 2.7656 0 2.1719 1.0156 2.7031 1.7812 2.7031 0.39062 0 0.79688-0.10938 1.1562-0.45312 0.32812-0.3125 0.59375-0.64062 0.59375-1.3438 0-1.0312-0.79688-1.7656-1.6719-1.7656-0.57812 0-0.92188 0.35938-1.1094 0.75zm1.0312 2.5625c-0.42188 0-0.6875-0.28125-0.79688-0.51562-0.1875-0.35938-0.20312-0.89062-0.20312-1.2031 0-0.78125 0.42188-1.375 1.0469-1.375 0.39062 0 0.64062 0.20312 0.78125 0.48438 0.17188 0.29688 0.17188 0.65625 0.17188 1.0625s0 0.75-0.15625 1.0469c-0.21875 0.35938-0.48438 0.5-0.84375 0.5z"/>
</g>
<g id="t">
<path d="m6.0312-0.078125c1.2812-0.5625 2.4219-2.0469 2.4219-3.9688 0-2.4844-1.8125-4.375-3.9062-4.375-2.125 0-3.9062 1.9219-3.9062 4.375 0 2.3906 1.7812 4.2969 3.9062 4.2969 0.40625 0 0.8125-0.078125 1.125-0.17188 0.20312 1.2188 0.35938 2.2344 1.4219 2.2344 1.4062 0 1.4219-2.0781 1.4219-2.1875 0-0.125 0-0.23438-0.125-0.23438-0.09375 0-0.09375 0.078125-0.10938 0.17188-0.078125 0.85938-0.67188 1.1406-1.0781 1.1406-0.60938 0-0.89062-0.4375-1.1719-1.2812zm-2.2188-0.0625c-0.89062-0.3125-2.0781-1.3438-2.0781-3.9219 0-2.9844 1.6094-4.0938 2.8125-4.0938 1.25 0 2.8125 1.1562 2.8125 4.0938 0 1.7031-0.51562 2.9375-1.4844 3.6094-0.20312-0.59375-0.53125-1.2969-1.3125-1.2969-0.59375 0-0.9375 0.5-0.9375 1 0 0.3125 0.17188 0.57812 0.1875 0.60938zm1.8125-0.14062c-0.35938 0.1875-0.75 0.26562-1.0781 0.26562-0.5 0-0.6875-0.46875-0.6875-0.75 0-0.34375 0.25-0.75 0.70312-0.75 0.6875 0 0.92188 0.5625 1.0625 1.2344z"/>
</g>
<g id="k">
<path d="m3.6406-5.1406v0.34375c0.8125 0 0.90625 0.09375 0.90625 0.67188v2.1406c0 1.0156-0.54688 1.8594-1.4375 1.8594-0.98438 0-1.0469-0.5625-1.0469-1.1875v-3.9531l-1.6875 0.125v0.34375c0.92188 0 0.92188 0.046875 0.92188 1.1094v1.7812c0 0.75 0 1.1719 0.35938 1.5781 0.28125 0.29688 0.76562 0.45312 1.375 0.45312 0.20312 0 0.59375 0 1-0.35938 0.34375-0.26562 0.53125-0.71875 0.53125-0.71875v1.0781l1.6719-0.125v-0.34375c-0.8125 0-0.92188-0.09375-0.92188-0.67188v-4.25z"/>
</g>
<g id="e">
<path d="m4.5781-2.7656c0.26562 0 0.28125 0 0.28125-0.23438 0-1.2031-0.64062-2.3281-2.0938-2.3281-1.3594 0-2.4062 1.2344-2.4062 2.7031 0 1.5781 1.2188 2.75 2.5469 2.75 1.4219 0 1.9531-1.2969 1.9531-1.5469 0-0.078125-0.046875-0.125-0.125-0.125-0.09375 0-0.125 0.0625-0.14062 0.125-0.3125 1-1.1094 1.2812-1.625 1.2812-0.5 0-1.7031-0.34375-1.7031-2.4062v-0.21875zm-3.2969-0.23438c0.09375-1.875 1.1406-2.0938 1.4844-2.0938 1.2812 0 1.3438 1.6875 1.3594 2.0938z"/>
</g>
<g id="j">
<path d="m2.0625-8.2969-1.6719 0.14062v0.34375c0.8125 0 0.90625 0.078125 0.90625 0.67188v6.25c0 0.54688-0.125 0.54688-0.90625 0.54688v0.34375c0.34375-0.03125 0.92188-0.03125 1.2812-0.03125s0.95312 0 1.2969 0.03125v-0.34375c-0.76562 0-0.90625 0-0.90625-0.54688z"/>
</g>
<g id="n">
<path d="m5.0469-4.0625c1.1875-0.28125 2.0938-1.0312 2.0938-1.9531 0-1.1562-1.3438-2.1406-3.0625-2.1406h-3.5781v0.34375h0.23438c0.875 0 0.90625 0.10938 0.90625 0.5625v6.3438c0 0.4375-0.03125 0.5625-0.90625 0.5625h-0.23438v0.34375c0.28125-0.03125 1.25-0.03125 1.6094-0.03125 0.34375 0 1.3281 0 1.6094 0.03125v-0.34375h-0.23438c-0.85938 0-0.90625-0.125-0.90625-0.5625v-3.0625h1.3906c0.46875 0 0.90625 0.125 1.2344 0.46875 0.40625 0.45312 0.40625 0.70312 0.40625 1.5312 0 0.9375 0 1.25 0.51562 1.7656 0.1875 0.17188 0.6875 0.45312 1.3594 0.45312 0.9375 0 1.0938-1.0312 1.0938-1.2969 0-0.0625 0-0.17188-0.14062-0.17188-0.125 0-0.125 0.078125-0.125 0.1875-0.0625 0.71875-0.40625 1.0469-0.79688 1.0469-0.54688 0-0.67188-0.5625-0.76562-1.2031-0.015625-0.078125-0.078125-0.59375-0.10938-0.89062-0.09375-0.59375-0.14062-0.98438-0.5-1.3594-0.125-0.125-0.4375-0.45312-1.0938-0.625zm-1.125-0.14062h-1.3438v-3.1406c0-0.26562 0-0.40625 0.25-0.46875h0.70312c0.96875 0 2.5 0 2.5 1.7969 0 1.0469-0.5625 1.8125-2.1094 1.8125z"/>
</g>
<g id="m">
<path d="m5.4844-2.5625c0-1.5312-1.1719-2.7656-2.5625-2.7656-1.4219 0-2.5625 1.2656-2.5625 2.7656 0 1.5312 1.1875 2.6875 2.5625 2.6875 1.4062 0 2.5625-1.1719 2.5625-2.6875zm-2.5625 2.4219c-0.4375 0-0.96875-0.1875-1.3125-0.78125-0.32812-0.53125-0.34375-1.2344-0.34375-1.75 0-0.45312 0-1.1719 0.375-1.7188 0.32812-0.51562 0.85938-0.70312 1.2812-0.70312 0.45312 0 0.96875 0.21875 1.2812 0.6875 0.375 0.54688 0.375 1.2969 0.375 1.7344 0 0.42188 0 1.1719-0.3125 1.7344-0.32812 0.5625-0.89062 0.79688-1.3438 0.79688z"/>
</g>
<g id="i">
<path d="m2.0156-4.8125h1.6719v-0.34375h-1.6719v-2.1875h-0.26562c-0.015625 1.1094-0.45312 2.2656-1.5312 2.2969v0.23438h1.0156v3.3281c0 1.3281 0.875 1.6094 1.5156 1.6094 0.75 0 1.1406-0.75 1.1406-1.6094v-0.67188h-0.25v0.65625c0 0.85938-0.35938 1.3594-0.8125 1.3594-0.8125 0-0.8125-1.1094-0.8125-1.3125z"/>
</g>
<g id="l">
<path d="m2-2.7812c0-1.1562 0.46875-2.25 1.3906-2.25 0.09375 0 0.125 0 0.17188 0.015625-0.09375 0.046875-0.28125 0.10938-0.28125 0.4375 0 0.34375 0.26562 0.48438 0.45312 0.48438 0.25 0 0.48438-0.15625 0.48438-0.48438 0-0.35938-0.32812-0.6875-0.84375-0.6875-1.0156 0-1.3594 1.0938-1.4219 1.3281h-0.015625v-1.3281l-1.6094 0.125v0.34375c0.8125 0 0.92188 0.09375 0.92188 0.67188v3.2344c0 0.54688-0.14062 0.54688-0.92188 0.54688v0.34375c0.34375-0.03125 1-0.03125 1.3594-0.03125 0.32812 0 1.1719 0 1.4375 0.03125v-0.34375h-0.23438c-0.875 0-0.89062-0.14062-0.89062-0.5625z"/>
</g>
<g id="r">
<path d="m3.4375-7.6562c0-0.28125 0-0.29688-0.23438-0.29688-0.28125 0.32812-0.89062 0.76562-2.1094 0.76562v0.34375c0.26562 0 0.85938 0 1.5312-0.29688v6.2188c0 0.4375-0.046875 0.57812-1.0938 0.57812h-0.375v0.34375c0.32812-0.03125 1.4844-0.03125 1.875-0.03125 0.40625 0 1.5469 0 1.875 0.03125v-0.34375h-0.375c-1.0469 0-1.0938-0.14062-1.0938-0.57812z"/>
</g>
<g id="p">
<path d="m6.3906-7.75c0.09375-0.15625 0.09375-0.15625 0.09375-0.25 0-0.15625-0.046875-0.15625-0.28125-0.15625h-5.2656l-0.125 2.6562h0.26562c0.078125-1.3438 0.45312-2.3125 2.3906-2.3125h1.9062l-4.7344 7.5312c0 0.26562 0.015625 0.28125 0.29688 0.28125h5.4219l0.1875-3.1562h-0.26562c-0.078125 1.6875-0.32812 2.7812-2.5 2.7812h-2.0312z"/>
</g>
<g id="o">
<path d="m2.0781-7.3594c0-0.3125-0.25-0.59375-0.57812-0.59375-0.3125 0-0.57812 0.25-0.57812 0.57812 0 0.35938 0.28125 0.57812 0.57812 0.57812 0.35938 0 0.57812-0.29688 0.57812-0.5625zm-1.6406 2.2188v0.34375c0.75 0 0.85938 0.078125 0.85938 0.65625v3.25c0 0.54688-0.125 0.54688-0.90625 0.54688v0.34375c0.34375-0.03125 0.90625-0.03125 1.2656-0.03125 0.125 0 0.8125 0 1.2188 0.03125v-0.34375c-0.76562 0-0.8125-0.0625-0.8125-0.53125v-4.3906z"/>
</g>
<g id="s">
<path d="m5.2656-2.0156h-0.26562c-0.046875 0.20312-0.14062 0.875-0.25 1.0625-0.09375 0.10938-0.76562 0.10938-1.125 0.10938h-2.2188c0.32812-0.28125 1.0625-1.0469 1.3594-1.3281 1.8281-1.6719 2.5-2.2969 2.5-3.4844 0-1.375-1.0938-2.2969-2.4844-2.2969-1.375 0-2.2031 1.1875-2.2031 2.2188 0 0.60938 0.53125 0.60938 0.5625 0.60938 0.26562 0 0.5625-0.1875 0.5625-0.5625 0-0.34375-0.21875-0.5625-0.5625-0.5625-0.09375 0-0.125 0-0.15625 0.015625 0.21875-0.8125 0.875-1.375 1.6406-1.375 1.0156 0 1.6406 0.85938 1.6406 1.9531 0 1.0156-0.57812 1.9062-1.2656 2.6719l-2.4219 2.7031v0.28125h4.375z"/>
</g>
<clipPath id="x">
<path d="m308 98h1v408h-1z"/>
</clipPath>
<clipPath id="w">
<path d="m-0.47266-3.1055v519h349v-519zm306.3 501.28v7.7148h5.293v-7.7148l-2.6484 6.6133z" clip-rule="evenodd"/>
</clipPath>
</defs>
<path transform="matrix(.1 0 0 -.1 -.472 515.9)" d="m2158.3 4828.7c0-88.359-71.641-160.04-160.04-160.04-88.398 0-160.04 71.68-160.04 160.04 0 88.398 71.641 160.08 160.04 160.08 88.398 0 160.04-71.68 160.04-160.08z" fill="none" stroke="#000" stroke-miterlimit="10" stroke-width="13.227"/>
<path d="m22.773 306.82c0 1.0977-0.88672 1.9844-1.9805 1.9844-1.0977 0-1.9844-0.88672-1.9844-1.9844 0-1.0938 0.88672-1.9844 1.9844-1.9844 1.0938 0 1.9805 0.89062 1.9805 1.9844" fill-rule="evenodd"/>
<path transform="matrix(.1 0 0 -.1 -.472 515.9)" d="m232.45 2090.7c0-10.977-8.8672-19.844-19.805-19.844-10.977 0-19.844 8.8672-19.844 19.844 0 10.938 8.8672 19.844 19.844 19.844 10.938 0 19.805-8.9062 19.805-19.844z" fill="none" stroke="#000" stroke-miterlimit="10" stroke-width="3.3068"/>
<path d="m22.773 326.66c0 1.0977-0.88672 1.9844-1.9805 1.9844-1.0977 0-1.9844-0.88672-1.9844-1.9844 0-1.0938 0.88672-1.9805 1.9844-1.9805 1.0938 0 1.9805 0.88672 1.9805 1.9805" fill-rule="evenodd"/>
<path transform="matrix(.1 0 0 -.1 -.472 515.9)" d="m232.45 1892.3c0-10.977-8.8672-19.844-19.805-19.844-10.977 0-19.844 8.8672-19.844 19.844 0 10.938 8.8672 19.805 19.844 19.805 10.938 0 19.805-8.8672 19.805-19.805z" fill="none" stroke="#000" stroke-miterlimit="10" stroke-width="3.3068"/>
<path d="m22.773 346.51c0 1.0938-0.88672 1.9805-1.9805 1.9805-1.0977 0-1.9844-0.88672-1.9844-1.9805 0-1.0977 0.88672-1.9844 1.9844-1.9844 1.0938 0 1.9805 0.88672 1.9805 1.9844" fill-rule="evenodd"/>
<path transform="matrix(.1 0 0 -.1 -.472 515.9)" d="m232.45 1693.9c0-10.938-8.8672-19.805-19.805-19.805-10.977 0-19.844 8.8672-19.844 19.805 0 10.977 8.8672 19.844 19.844 19.844 10.938 0 19.805-8.8672 19.805-19.844z" fill="none" stroke="#000" stroke-miterlimit="10" stroke-width="3.3068"/>
<path d="m112.06 326.66c0 1.0977-0.89062 1.9844-1.9844 1.9844-1.0977 0-1.9844-0.88672-1.9844-1.9844 0-1.0938 0.88672-1.9805 1.9844-1.9805 1.0938 0 1.9844 0.88672 1.9844 1.9805" fill-rule="evenodd"/>
<path transform="matrix(.1 0 0 -.1 -.472 515.9)" d="m1125.3 1892.3c0-10.977-8.9062-19.844-19.844-19.844-10.977 0-19.844 8.8672-19.844 19.844 0 10.938 8.8672 19.805 19.844 19.805 10.938 0 19.844-8.8672 19.844-19.805z" fill="none" stroke="#000" stroke-miterlimit="10" stroke-width="3.3068"/>
<path d="m112.06 346.51c0 1.0938-0.89062 1.9805-1.9844 1.9805-1.0977 0-1.9844-0.88672-1.9844-1.9805 0-1.0977 0.88672-1.9844 1.9844-1.9844 1.0938 0 1.9844 0.88672 1.9844 1.9844" fill-rule="evenodd"/>
<path transform="matrix(.1 0 0 -.1 -.472 515.9)" d="m1125.3 1693.9c0-10.938-8.9062-19.805-19.844-19.805-10.977 0-19.844 8.8672-19.844 19.805 0 10.977 8.8672 19.844 19.844 19.844 10.938 0 19.844-8.8672 19.844-19.844z" fill="none" stroke="#000" stroke-miterlimit="10" stroke-width="3.3068"/>
<path d="m201.34 346.51c0 1.0938-0.89062 1.9805-1.9844 1.9805s-1.9844-0.88672-1.9844-1.9805c0-1.0977 0.89062-1.9844 1.9844-1.9844s1.9844 0.88672 1.9844 1.9844" fill-rule="evenodd"/>
<path transform="matrix(.1 0 0 -.1 -.472 515.9)" d="m2018.1 1693.9c0-10.938-8.9062-19.805-19.844-19.805s-19.844 8.8672-19.844 19.805c0 10.977 8.9062 19.844 19.844 19.844s19.844-8.8672 19.844-19.844z" fill="none" stroke="#000" stroke-miterlimit="10" stroke-width="3.3068"/>
<path d="m201.34 326.66c0 1.0977-0.89062 1.9844-1.9844 1.9844s-1.9844-0.88672-1.9844-1.9844c0-1.0938 0.89062-1.9805 1.9844-1.9805s1.9844 0.88672 1.9844 1.9805" fill-rule="evenodd"/>
<path transform="matrix(.1 0 0 -.1 -.472 515.9)" d="m2018.1 1892.3c0-10.977-8.9062-19.844-19.844-19.844s-19.844 8.8672-19.844 19.844c0 10.938 8.9062 19.805 19.844 19.805s19.844-8.8672 19.844-19.805z" fill="none" stroke="#000" stroke-miterlimit="10" stroke-width="3.3068"/>
<path d="m290.62 326.66c0 1.0977-0.88672 1.9844-1.9844 1.9844-1.0938 0-1.9844-0.88672-1.9844-1.9844 0-1.0938 0.89062-1.9805 1.9844-1.9805 1.0977 0 1.9844 0.88672 1.9844 1.9805" fill-rule="evenodd"/>
<path transform="matrix(.1 0 0 -.1 -.472 515.9)" d="m2910.9 1892.3c0-10.977-8.8672-19.844-19.844-19.844-10.938 0-19.844 8.8672-19.844 19.844 0 10.938 8.9062 19.805 19.844 19.805 10.977 0 19.844-8.8672 19.844-19.805z" fill="none" stroke="#000" stroke-miterlimit="10" stroke-width="3.3068"/>
<path d="m290.62 346.51c0 1.0938-0.88672 1.9805-1.9844 1.9805-1.0938 0-1.9844-0.88672-1.9844-1.9805 0-1.0977 0.89062-1.9844 1.9844-1.9844 1.0977 0 1.9844 0.88672 1.9844 1.9844" fill-rule="evenodd"/>
<path transform="matrix(.1 0 0 -.1 -.472 515.9)" d="m2910.9 1693.9c0-10.938-8.8672-19.805-19.844-19.805-10.938 0-19.844 8.8672-19.844 19.805 0 10.977 8.9062 19.844 19.844 19.844 10.977 0 19.844-8.8672 19.844-19.844z" fill="none" stroke="#000" stroke-miterlimit="10" stroke-width="3.3068"/>
<path d="m112.06 306.82c0 1.0977-0.89062 1.9844-1.9844 1.9844-1.0977 0-1.9844-0.88672-1.9844-1.9844 0-1.0938 0.88672-1.9844 1.9844-1.9844 1.0938 0 1.9844 0.89062 1.9844 1.9844" fill-rule="evenodd"/>
<path transform="matrix(.1 0 0 -.1 -.472 515.9)" d="m1125.3 2090.7c0-10.977-8.9062-19.844-19.844-19.844-10.977 0-19.844 8.8672-19.844 19.844 0 10.938 8.8672 19.844 19.844 19.844 10.938 0 19.844-8.9062 19.844-19.844z" fill="none" stroke="#000" stroke-miterlimit="10" stroke-width="3.3068"/>
<path d="m201.34 306.82c0 1.0977-0.89062 1.9844-1.9844 1.9844s-1.9844-0.88672-1.9844-1.9844c0-1.0938 0.89062-1.9844 1.9844-1.9844s1.9844 0.89062 1.9844 1.9844" fill-rule="evenodd"/>
<path transform="matrix(.1 0 0 -.1 -.472 515.9)" d="m2018.1 2090.7c0-10.977-8.9062-19.844-19.844-19.844s-19.844 8.8672-19.844 19.844c0 10.938 8.9062 19.844 19.844 19.844s19.844-8.9062 19.844-19.844z" fill="none" stroke="#000" stroke-miterlimit="10" stroke-width="3.3068"/>
<path d="m290.62 306.82c0 1.0977-0.88672 1.9844-1.9844 1.9844-1.0938 0-1.9844-0.88672-1.9844-1.9844 0-1.0938 0.89062-1.9844 1.9844-1.9844 1.0977 0 1.9844 0.89062 1.9844 1.9844" fill-rule="evenodd"/>
<path transform="matrix(.1 0 0 -.1 -.472 515.9)" d="m2910.9 2090.7c0-10.977-8.8672-19.844-19.844-19.844-10.938 0-19.844 8.8672-19.844 19.844 0 10.938 8.9062 19.844 19.844 19.844 10.977 0 19.844-8.9062 19.844-19.844z" fill="none" stroke="#000" stroke-miterlimit="10" stroke-width="3.3068"/>
<path transform="matrix(.1 0 0 -.1 -.472 515.9)" d="m212.65 4670v-396.8" fill="none" stroke="#000" stroke-miterlimit="10" stroke-width="13.227"/>
<path transform="matrix(.1 0 0 -.1 -.472 515.9)" d="m2692.7 4670h396.84v297.62h-396.84z" fill="none" stroke="#000" stroke-miterlimit="10" stroke-width="13.227"/>
<path transform="matrix(.1 0 0 -.1 -.472 515.9)" d="m1105.5 4670v-396.8" fill="none" stroke="#000" stroke-miterlimit="10" stroke-width="13.227"/>
<path transform="matrix(.1 0 0 -.1 -.472 515.9)" d="m1998.3 4670v-396.8" fill="none" stroke="#000" stroke-miterlimit="10" stroke-width="13.227"/>
<path transform="matrix(.1 0 0 -.1 -.472 515.9)" d="m212.65 4273.2h2678.4" fill="none" stroke="#000" stroke-miterlimit="10" stroke-width="13.227"/>
<path transform="matrix(.1 0 0 -.1 -.472 515.9)" d="m2891.1 4670v-396.8" fill="none" stroke="#000" stroke-miterlimit="10" stroke-width="13.227"/>
<path transform="matrix(.1 0 0 -.1 -.472 515.9)" d="m14.212 4670h396.84v297.62h-396.84z" fill="none" stroke="#000" stroke-miterlimit="10" stroke-width="13.227"/>
<path transform="matrix(.1 0 0 -.1 -.472 515.9)" d="m113.43 3479.5h198.4v198.4h-198.4z" fill="none" stroke="#000" stroke-miterlimit="10" stroke-width="3.3068"/>
<path transform="matrix(.1 0 0 -.1 -.472 515.9)" d="m113.43 3181.9h198.4v198.4h-198.4z" fill="none" stroke="#000" stroke-miterlimit="10" stroke-width="3.3068"/>
<path transform="matrix(.1 0 0 -.1 -.472 515.9)" d="m1006.2 3479.5h198.4v198.4h-198.4z" fill="none" stroke="#000" stroke-miterlimit="10" stroke-width="3.3068"/>
<path transform="matrix(.1 0 0 -.1 -.472 515.9)" d="m1899.1 3181.9h198.44v198.4h-198.44z" fill="none" stroke="#000" stroke-miterlimit="10" stroke-width="3.3068"/>
<path transform="matrix(.1 0 0 -.1 -.472 515.9)" d="m2791.9 2884.3h198.4v198.44h-198.4z" fill="none" stroke="#000" stroke-miterlimit="10" stroke-width="3.3068"/>
<path transform="matrix(.1 0 0 -.1 -.472 515.9)" d="m113.43 2884.3h198.4v198.44h-198.4z" fill="none" stroke="#000" stroke-miterlimit="10" stroke-width="3.3068"/>
<path transform="matrix(.1 0 0 -.1 -.472 515.9)" d="m113.43 2586.7h198.4v198.4h-198.4z" fill="none" stroke="#000" stroke-miterlimit="10" stroke-width="3.3068"/>
<path transform="matrix(.1 0 0 -.1 -.472 515.9)" d="m113.43 2289.1h198.4v198.4h-198.4z" fill="none" stroke="#000" stroke-miterlimit="10" stroke-width="3.3068"/>
<path transform="matrix(.1 0 0 -.1 -.472 515.9)" d="m1006.2 2289.1h198.4v198.4h-198.4z" fill="none" stroke="#000" stroke-miterlimit="10" stroke-width="3.3068"/>
<path transform="matrix(.1 0 0 -.1 -.472 515.9)" d="m1006.2 2586.7h198.4v198.4h-198.4z" fill="none" stroke="#000" stroke-miterlimit="10" stroke-width="3.3068"/>
<path transform="matrix(.1 0 0 -.1 -.472 515.9)" d="m1006.2 2884.3h198.4v198.44h-198.4z" fill="none" stroke="#000" stroke-miterlimit="10" stroke-width="3.3068"/>
<path transform="matrix(.1 0 0 -.1 -.472 515.9)" d="m1006.2 3181.9h198.4v198.4h-198.4z" fill="none" stroke="#000" stroke-miterlimit="10" stroke-width="3.3068"/>
<path transform="matrix(.1 0 0 -.1 -.472 515.9)" d="m1899.1 2884.3h198.44v198.44h-198.44z" fill="none" stroke="#000" stroke-miterlimit="10" stroke-width="3.3068"/>
<path transform="matrix(.1 0 0 -.1 -.472 515.9)" d="m1899.1 2586.7h198.44v198.4h-198.44z" fill="none" stroke="#000" stroke-miterlimit="10" stroke-width="3.3068"/>
<path transform="matrix(.1 0 0 -.1 -.472 515.9)" d="m2791.9 2586.7h198.4v198.4h-198.4z" fill="none" stroke="#000" stroke-miterlimit="10" stroke-width="3.3068"/>
<path transform="matrix(.1 0 0 -.1 -.472 515.9)" d="m2791.9 2289.1h198.4v198.4h-198.4z" fill="none" stroke="#000" stroke-miterlimit="10" stroke-width="3.3068"/>
<path transform="matrix(.1 0 0 -.1 -.472 515.9)" d="m1899.1 2289.1h198.44v198.4h-198.44z" fill="none" stroke="#000" stroke-miterlimit="10" stroke-width="3.3068"/>
<g clip-path="url(#x)">
<g clip-path="url(#w)">
<path transform="matrix(.1 0 0 -.1 -.472 515.9)" d="m3089.5 4174v-4067.3" fill="none" stroke="#000" stroke-miterlimit="10" stroke-width="3.3068"/>
</g>
</g>
<path d="m305.83 498.18 2.6445 6.6133 2.6484-6.6133-2.6484 1.3242-2.6445-1.3242" fill-rule="evenodd"/>
<path transform="matrix(.1 0 0 -.1 -.472 515.9)" d="m3063 177.2 26.445-66.133 26.484 66.133-26.484-13.242z" fill="none" stroke="#000" stroke-miterlimit="10" stroke-width="3.3068"/>
<path transform="matrix(.1 0 0 -.1 -.472 515.9)" d="m3089.5 3975.6h198.44" fill="none" stroke="#000" stroke-miterlimit="10" stroke-width="3.3068"/>
<path transform="matrix(.1 0 0 -.1 -.472 515.9)" d="m3089.5 3677.9h198.44" fill="none" stroke="#000" stroke-miterlimit="10" stroke-width="3.3068"/>
<path transform="matrix(.1 0 0 -.1 -.472 515.9)" d="m3089.5 3380.3h198.44" fill="none" stroke="#000" stroke-miterlimit="10" stroke-width="3.3068"/>
<path transform="matrix(.1 0 0 -.1 -.472 515.9)" d="m3089.5 3082.7h198.44" fill="none" stroke="#000" stroke-miterlimit="10" stroke-width="3.3068"/>
<path transform="matrix(.1 0 0 -.1 -.472 515.9)" d="m3089.5 2785.1h198.44" fill="none" stroke="#000" stroke-miterlimit="10" stroke-width="3.3068"/>
<path transform="matrix(.1 0 0 -.1 -.472 515.9)" d="m3089.5 2487.5h198.44" fill="none" stroke="#000" stroke-miterlimit="10" stroke-width="3.3068"/>
<path transform="matrix(.1 0 0 -.1 -.472 515.9)" d="m113.43 1297.1h198.4v198.4h-198.4z" fill="none" stroke="#000" stroke-miterlimit="10" stroke-width="3.3068"/>
<path transform="matrix(.1 0 0 -.1 -.472 515.9)" d="m1006.2 1297.1h198.4v198.4h-198.4z" fill="none" stroke="#000" stroke-miterlimit="10" stroke-width="3.3068"/>
<path transform="matrix(.1 0 0 -.1 -.472 515.9)" d="m1006.2 999.47h198.4v198.44h-198.4z" fill="none" stroke="#000" stroke-miterlimit="10" stroke-width="3.3068"/>
<path transform="matrix(.1 0 0 -.1 -.472 515.9)" d="m1899.1 1297.1h198.44v198.4h-198.44z" fill="none" stroke="#000" stroke-miterlimit="10" stroke-width="3.3068"/>
<path transform="matrix(.1 0 0 -.1 -.472 515.9)" d="m1899.1 999.47h198.44v198.44h-198.44z" fill="none" stroke="#000" stroke-miterlimit="10" stroke-width="3.3068"/>
<path transform="matrix(.1 0 0 -.1 -.472 515.9)" d="m1899.1 701.89h198.44v198.4h-198.44z" fill="none" stroke="#000" stroke-miterlimit="10" stroke-width="3.3068"/>
<path transform="matrix(.1 0 0 -.1 -.472 515.9)" d="m2791.9 1297.1h198.4v198.4h-198.4z" fill="none" stroke="#000" stroke-miterlimit="10" stroke-width="3.3068"/>
<path transform="matrix(.1 0 0 -.1 -.472 515.9)" d="m2791.9 999.47h198.4v198.44h-198.4z" fill="none" stroke="#000" stroke-miterlimit="10" stroke-width="3.3068"/>
<path transform="matrix(.1 0 0 -.1 -.472 515.9)" d="m2791.9 701.89h198.4v198.4h-198.4z" fill="none" stroke="#000" stroke-miterlimit="10" stroke-width="3.3068"/>
<path transform="matrix(.1 0 0 -.1 -.472 515.9)" d="m2791.9 404.27h198.4v198.4h-198.4z" fill="none" stroke="#000" stroke-miterlimit="10" stroke-width="3.3068"/>
<path transform="matrix(.1 0 0 -.1 -.472 515.9)" d="m113.43 3777.2h198.4v198.4h-198.4z" fill="none" stroke="#000" stroke-miterlimit="10" stroke-width="3.3068"/>
<path transform="matrix(.1 0 0 -.1 -.472 515.9)" d="m3089.5 1495.5h198.44" fill="none" stroke="#000" stroke-miterlimit="10" stroke-width="3.3068"/>
<path transform="matrix(.1 0 0 -.1 -.472 515.9)" d="m3089.5 1197.9h198.44" fill="none" stroke="#000" stroke-miterlimit="10" stroke-width="3.3068"/>
<path transform="matrix(.1 0 0 -.1 -.472 515.9)" d="m3089.5 900.29h198.44" fill="none" stroke="#000" stroke-miterlimit="10" stroke-width="3.3068"/>
<path transform="matrix(.1 0 0 -.1 -.472 515.9)" d="m3089.5 602.67h198.44" fill="none" stroke="#000" stroke-miterlimit="10" stroke-width="3.3068"/>
<path transform="matrix(.1 0 0 -.1 -.472 515.9)" d="m1265.5 4828.7c0-88.359-71.641-160.04-160.04-160.04-88.398 0-160.04 71.68-160.04 160.04 0 88.398 71.641 160.08 160.04 160.08 88.398 0 160.04-71.68 160.04-160.08z" fill="none" stroke="#000" stroke-miterlimit="10" stroke-width="13.227"/>
<g>
<use x="329.883" y="374.334" xlink:href="#c"/>
<use x="334.117514" y="374.334" xlink:href="#b"/>
<use x="338.352028" y="374.334" xlink:href="#b"/>
<use x="342.586542" y="374.334" xlink:href="#b"/>
<use x="2.586" y="9.183" xlink:href="#t"/>
<use x="11.69108" y="9.183" xlink:href="#k"/>
<use x="18.194709" y="9.183" xlink:href="#e"/>
<use x="23.397612" y="9.183" xlink:href="#j"/>
<use x="26.649427" y="9.183" xlink:href="#j"/>
<use x="29.901241" y="9.183" xlink:href="#e"/>
<use x="89.595946" y="9.183" xlink:href="#n"/>
<use x="98.210863" y="9.183" xlink:href="#m"/>
<use x="104.064129" y="9.183" xlink:href="#k"/>
<use x="110.567757" y="9.183" xlink:href="#i"/>
<use x="115.120298" y="9.183" xlink:href="#e"/>
<use x="120.323201" y="9.183" xlink:href="#l"/>
<use x="128.785091" y="9.183" xlink:href="#r"/>
<use x="279.308232" y="9.183" xlink:href="#p"/>
<use x="286.462224" y="9.183" xlink:href="#o"/>
<use x="289.714038" y="9.183" xlink:href="#e"/>
<use x="294.916941" y="9.183" xlink:href="#j"/>
<use x="176.919117" y="9.183" xlink:href="#n"/>
<use x="185.534035" y="9.183" xlink:href="#m"/>
<use x="191.3873" y="9.183" xlink:href="#k"/>
<use x="197.890929" y="9.183" xlink:href="#i"/>
<use x="202.443469" y="9.183" xlink:href="#e"/>
<use x="207.646372" y="9.183" xlink:href="#l"/>
<use x="216.096308" y="9.183" xlink:href="#s"/>
<use x="336.234" y="277.093" xlink:href="#d"/>
<use x="336.234" y="247.325" xlink:href="#c"/>
<use x="336.234" y="217.557" xlink:href="#h"/>
<use x="336.234" y="187.79" xlink:href="#g"/>
<use x="336.234" y="158.022" xlink:href="#f"/>
<use x="336.234" y="128.254" xlink:href="#a"/>
<use x="298.504" y="515.235" xlink:href="#p"/>
<use x="305.657992" y="515.235" xlink:href="#e"/>
<use x="310.860895" y="515.235" xlink:href="#o"/>
<use x="314.112709" y="515.235" xlink:href="#i"/>
<use x="190.967" y="380.288" xlink:href="#c"/>
<use x="195.201514" y="380.288" xlink:href="#b"/>
<use x="199.436028" y="380.288" xlink:href="#b"/>
<use x="203.670542" y="380.288" xlink:href="#q"/>
<use x="190.967" y="410.056" xlink:href="#c"/>
<use x="195.201514" y="410.056" xlink:href="#b"/>
<use x="199.436028" y="410.056" xlink:href="#b"/>
<use x="203.670542" y="410.056" xlink:href="#b"/>
<use x="190.967" y="439.823" xlink:href="#d"/>
<use x="195.201514" y="439.823" xlink:href="#a"/>
<use x="199.436028" y="439.823" xlink:href="#a"/>
<use x="203.670542" y="439.823" xlink:href="#a"/>
<use x="280.27" y="469.591" xlink:href="#d"/>
<use x="284.504514" y="469.591" xlink:href="#a"/>
<use x="288.739028" y="469.591" xlink:href="#a"/>
<use x="292.973542" y="469.591" xlink:href="#a"/>
<use x="280.27" y="439.823" xlink:href="#c"/>
<use x="284.504514" y="439.823" xlink:href="#b"/>
<use x="288.739028" y="439.823" xlink:href="#b"/>
<use x="292.973542" y="439.823" xlink:href="#b"/>
<use x="280.27" y="410.056" xlink:href="#c"/>
<use x="284.504514" y="410.056" xlink:href="#b"/>
<use x="288.739028" y="410.056" xlink:href="#b"/>
<use x="292.973542" y="410.056" xlink:href="#q"/>
<use x="280.27" y="380.288" xlink:href="#c"/>
<use x="284.504514" y="380.288" xlink:href="#b"/>
<use x="288.739028" y="380.288" xlink:href="#b"/>
<use x="292.973542" y="380.288" xlink:href="#u"/>
<use x="286.622" y="221.526" xlink:href="#f"/>
<use x="197.318" y="281.062" xlink:href="#c"/>
<use x="286.622" y="251.294" xlink:href="#g"/>
<use x="286.622" y="281.062" xlink:href="#h"/>
<use x="197.318" y="251.294" xlink:href="#h"/>
<use x="197.318" y="221.526" xlink:href="#g"/>
<use x="197.318" y="191.759" xlink:href="#f"/>
<use x="108.015" y="161.991" xlink:href="#f"/>
<use x="108.015" y="191.759" xlink:href="#g"/>
<use x="108.015" y="221.526" xlink:href="#h"/>
<use x="108.015" y="251.294" xlink:href="#c"/>
<use x="108.015" y="281.062" xlink:href="#d"/>
<use x="101.664" y="380.288" xlink:href="#c"/>
<use x="105.898514" y="380.288" xlink:href="#b"/>
<use x="110.133028" y="380.288" xlink:href="#b"/>
<use x="114.367542" y="380.288" xlink:href="#b"/>
<use x="101.664" y="410.056" xlink:href="#d"/>
<use x="105.898514" y="410.056" xlink:href="#a"/>
<use x="110.133028" y="410.056" xlink:href="#a"/>
<use x="114.367542" y="410.056" xlink:href="#a"/>
<use x="12.361" y="380.288" xlink:href="#d"/>
<use x="16.595514" y="380.288" xlink:href="#a"/>
<use x="20.830028" y="380.288" xlink:href="#a"/>
<use x="25.064542" y="380.288" xlink:href="#a"/>
<use x="18.712" y="281.062" xlink:href="#v"/>
<use x="18.712" y="251.294" xlink:href="#d"/>
<use x="18.712" y="221.526" xlink:href="#c"/>
<use x="18.712" y="191.759" xlink:href="#h"/>
<use x="18.712" y="161.991" xlink:href="#g"/>
<use x="18.712" y="132.223" xlink:href="#f"/>
<use x="329.883" y="404.102" xlink:href="#d"/>
<use x="334.117514" y="404.102" xlink:href="#a"/>
<use x="338.352028" y="404.102" xlink:href="#a"/>
<use x="342.586542" y="404.102" xlink:href="#a"/>
<use x="329.883" y="431.885" xlink:href="#d"/>
<use x="334.117514" y="431.885" xlink:href="#a"/>
<use x="338.352028" y="431.885" xlink:href="#a"/>
<use x="342.586542" y="431.885" xlink:href="#f"/>
<use x="329.883" y="461.653" xlink:href="#d"/>
<use x="334.117514" y="461.653" xlink:href="#a"/>
<use x="338.352028" y="461.653" xlink:href="#a"/>
<use x="342.586542" y="461.653" xlink:href="#g"/>
</g>
</svg>
