<svg width="350pt" height="120pt" version="1.1" viewBox="0 0 350 120" xmlns="http://www.w3.org/2000/svg" xmlns:xlink="http://www.w3.org/1999/xlink">
<defs>
<g id="g">
<path d="m2.4844-4.9844c-0.60938-0.15625-1.1406-0.75-1.1406-1.5156 0-0.84375 0.67188-1.5938 1.5938-1.5938 1.9688 0 2.2188 1.9375 2.2969 2.4531 0.03125 0.14062 0.03125 0.1875 0.14062 0.1875 0.14062 0 0.14062-0.0625 0.14062-0.26562v-2.4219c0-0.21875 0-0.28125-0.125-0.28125-0.03125 0-0.078125 0-0.17188 0.15625l-0.39062 0.73438c-0.57812-0.73438-1.3594-0.89062-1.8906-0.89062-1.3281 0-2.2969 1.0781-2.2969 2.2969 0 0.5625 0.20312 1.0938 0.65625 1.5781 0.40625 0.45312 0.82812 0.5625 1.6719 0.78125 0.42188 0.09375 1.0781 0.26562 1.25 0.32812 0.5625 0.28125 0.9375 0.92188 0.9375 1.5938 0 0.90625-0.64062 1.75-1.625 1.75-0.54688 0-1.2812-0.14062-1.875-0.64062-0.6875-0.625-0.73438-1.4844-0.75-1.8906-0.015625-0.09375-0.10938-0.09375-0.125-0.09375-0.14062 0-0.14062 0.0625-0.14062 0.28125v2.4062c0 0.21875 0 0.28125 0.125 0.28125 0.078125 0 0.078125-0.015625 0.17188-0.17188 0.046875-0.09375 0.29688-0.53125 0.39062-0.71875 0.42188 0.48438 1.1875 0.89062 2.2031 0.89062 1.3438 0 2.3125-1.1406 2.3125-2.4531 0-0.71875-0.28125-1.2656-0.59375-1.6562-0.4375-0.54688-0.98438-0.67188-1.4531-0.79688z"/>
</g>
<g id="a">
<path d="m4.5781-2.7656c0.26562 0 0.28125 0 0.28125-0.23438 0-1.2031-0.64062-2.3281-2.0938-2.3281-1.3594 0-2.4062 1.2344-2.4062 2.7031 0 1.5781 1.2188 2.75 2.5469 2.75 1.4219 0 1.9531-1.2969 1.9531-1.5469 0-0.078125-0.046875-0.125-0.125-0.125-0.09375 0-0.125 0.0625-0.14062 0.125-0.3125 1-1.1094 1.2812-1.625 1.2812-0.5 0-1.7031-0.34375-1.7031-2.4062v-0.21875zm-3.2969-0.23438c0.09375-1.875 1.1406-2.0938 1.4844-2.0938 1.2812 0 1.3438 1.6875 1.3594 2.0938z"/>
</g>
<g id="b">
<path d="m5.3125-2.9062c0-1.1094 0-1.4375-0.26562-1.8281-0.34375-0.46875-0.90625-0.53125-1.3125-0.53125-1.1719 0-1.625 0.98438-1.7188 1.2188v-1.2188l-1.6406 0.125v0.34375c0.8125 0 0.92188 0.09375 0.92188 0.67188v3.2344c0 0.54688-0.14062 0.54688-0.92188 0.54688v0.34375c0.3125-0.03125 0.96875-0.03125 1.2969-0.03125 0.34375 0 1 0 1.2969 0.03125v-0.34375c-0.75 0-0.90625 0-0.90625-0.54688v-2.2188c0-1.25 0.82812-1.9219 1.5781-1.9219 0.73438 0 0.90625 0.60938 0.90625 1.3438v2.7969c0 0.54688-0.14062 0.54688-0.90625 0.54688v0.34375c0.29688-0.03125 0.95312-0.03125 1.2812-0.03125 0.34375 0 1 0 1.3125 0.03125v-0.34375c-0.60938 0-0.90625 0-0.92188-0.35938z"/>
</g>
<g id="k">
<path d="m3.5781-8.1562v0.34375c0.82812 0 0.92188 0.078125 0.92188 0.67188v2.6406c-0.25-0.35938-0.76562-0.76562-1.5-0.76562-1.3906 0-2.5781 1.1719-2.5781 2.7031 0 1.5156 1.125 2.6875 2.4531 2.6875 0.90625 0 1.4219-0.60938 1.5938-0.82812v0.82812l1.6875-0.125v-0.34375c-0.8125 0-0.90625-0.09375-0.90625-0.67188v-7.2812zm0.89062 6.75c0 0.21875 0 0.26562-0.17188 0.51562-0.28125 0.42188-0.76562 0.76562-1.375 0.76562-0.29688 0-1.5938-0.10938-1.5938-2.4375 0-0.85938 0.14062-1.3281 0.40625-1.7344 0.23438-0.35938 0.71875-0.73438 1.3125-0.73438 0.75 0 1.1562 0.53125 1.2812 0.73438 0.14062 0.20312 0.14062 0.21875 0.14062 0.4375z"/>
</g>
<g id="f">
<path d="m2.9219 1.9688c-0.76562 0-0.90625 0-0.90625-0.53125v-2.0781c0.21875 0.29688 0.70312 0.76562 1.4688 0.76562 1.375 0 2.5938-1.1719 2.5938-2.7031 0-1.5156-1.125-2.6875-2.4375-2.6875-1.0469 0-1.6094 0.75-1.6406 0.79688v-0.79688l-1.6719 0.125v0.34375c0.84375 0 0.92188 0.09375 0.92188 0.60938v5.625c0 0.53125-0.14062 0.53125-0.92188 0.53125v0.34375c0.3125-0.015625 0.96875-0.015625 1.2969-0.015625 0.34375 0 1 0 1.2969 0.015625zm-0.90625-5.7812c0-0.23438 0-0.23438 0.14062-0.4375 0.35938-0.53125 0.9375-0.76562 1.3906-0.76562 0.90625 0 1.6094 1.0938 1.6094 2.4375 0 1.4219-0.8125 2.4531-1.7188 2.4531-0.375 0-0.71875-0.15625-0.96875-0.375-0.26562-0.28125-0.45312-0.51562-0.45312-0.84375z"/>
</g>
<g id="h">
<path d="m3.6406-5.1406v0.34375c0.8125 0 0.90625 0.09375 0.90625 0.67188v2.1406c0 1.0156-0.54688 1.8594-1.4375 1.8594-0.98438 0-1.0469-0.5625-1.0469-1.1875v-3.9531l-1.6875 0.125v0.34375c0.92188 0 0.92188 0.046875 0.92188 1.1094v1.7812c0 0.75 0 1.1719 0.35938 1.5781 0.28125 0.29688 0.76562 0.45312 1.375 0.45312 0.20312 0 0.59375 0 1-0.35938 0.34375-0.26562 0.53125-0.71875 0.53125-0.71875v1.0781l1.6719-0.125v-0.34375c-0.8125 0-0.92188-0.09375-0.92188-0.67188v-4.25z"/>
</g>
<g id="p">
<path d="m5.2344-4.8125h1.3594v-0.34375h-1.375v-1.3906c0-1.0312 0.51562-1.625 1.0469-1.625 0.17188 0 0.34375 0.0625 0.42188 0.09375-0.046875 0.015625-0.35938 0.125-0.35938 0.46875 0 0.26562 0.20312 0.46875 0.46875 0.46875 0.29688 0 0.48438-0.20312 0.48438-0.48438 0-0.4375-0.42188-0.79688-1.0156-0.79688-0.48438 0-0.9375 0.21875-1.2344 0.51562-0.3125-0.45312-0.98438-0.51562-1.2969-0.51562-1.1562 0-2.4844 0.625-2.4844 1.8906v1.375h-0.9375v0.34375h0.9375v3.9219c0 0.54688-0.14062 0.54688-0.92188 0.54688v0.34375c0.34375-0.03125 0.92188-0.03125 1.2812-0.03125s0.95312 0 1.2969 0.03125v-0.34375c-0.76562 0-0.90625 0-0.90625-0.54688v-3.9219h2.4844v3.9219c0 0.54688-0.14062 0.54688-0.90625 0.54688v0.34375c0.32812-0.03125 0.98438-0.03125 1.3438-0.03125 0.32812 0 1.1719 0 1.4531 0.03125v-0.34375h-0.25c-0.85938 0-0.89062-0.14062-0.89062-0.5625zm-3.2656-0.34375v-1.3438c0-1.2188 1.0156-1.6719 1.7344-1.6719 0.09375 0 0.60938 0 0.95312 0.25-0.3125 0.0625-0.40625 0.28125-0.40625 0.46875 0 0.20312 0.09375 0.35938 0.28125 0.4375-0.046875 0.17188-0.046875 0.32812-0.046875 0.46875v1.3906z"/>
</g>
<g id="e">
<path d="m2-2.7812c0-1.1562 0.46875-2.25 1.3906-2.25 0.09375 0 0.125 0 0.17188 0.015625-0.09375 0.046875-0.28125 0.10938-0.28125 0.4375 0 0.34375 0.26562 0.48438 0.45312 0.48438 0.25 0 0.48438-0.15625 0.48438-0.48438 0-0.35938-0.32812-0.6875-0.84375-0.6875-1.0156 0-1.3594 1.0938-1.4219 1.3281h-0.015625v-1.3281l-1.6094 0.125v0.34375c0.8125 0 0.92188 0.09375 0.92188 0.67188v3.2344c0 0.54688-0.14062 0.54688-0.92188 0.54688v0.34375c0.34375-0.03125 1-0.03125 1.3594-0.03125 0.32812 0 1.1719 0 1.4375 0.03125v-0.34375h-0.23438c-0.875 0-0.89062-0.14062-0.89062-0.5625z"/>
</g>
<g id="c">
<path d="m3.9219-5.0625c0-0.20312 0-0.26562-0.125-0.26562-0.09375 0-0.3125 0.26562-0.40625 0.375-0.35938-0.3125-0.73438-0.375-1.125-0.375-1.4375 0-1.875 0.78125-1.875 1.4375 0 0.14062 0 0.5625 0.45312 0.96875 0.39062 0.34375 0.79688 0.42188 1.3438 0.53125 0.65625 0.125 0.8125 0.17188 1.1094 0.40625 0.21875 0.17188 0.375 0.4375 0.375 0.78125 0 0.51562-0.29688 1.0781-1.3594 1.0781-0.78125 0-1.3594-0.45312-1.625-1.6406-0.046875-0.21875-0.046875-0.23438-0.046875-0.25-0.03125-0.046875-0.078125-0.046875-0.10938-0.046875-0.14062 0-0.14062 0.0625-0.14062 0.28125v1.625c0 0.21875 0 0.28125 0.125 0.28125 0.0625 0 0.0625-0.015625 0.26562-0.26562 0.0625-0.09375 0.0625-0.10938 0.25-0.29688 0.45312 0.5625 1.0938 0.5625 1.2969 0.5625 1.25 0 1.875-0.70312 1.875-1.6406 0-0.64062-0.39062-1.0312-0.5-1.1406-0.42188-0.375-0.75-0.4375-1.5469-0.57812-0.34375-0.078125-1.2188-0.25-1.2188-0.96875 0-0.35938 0.25-0.90625 1.3281-0.90625 1.2969 0 1.375 1.1094 1.3906 1.4688 0.015625 0.10938 0.09375 0.10938 0.14062 0.10938 0.125 0 0.125-0.0625 0.125-0.28125z"/>
</g>
<g id="o">
<path d="m4.3281-4.4219c-0.14062 0-0.59375 0-0.59375 0.48438 0 0.29688 0.20312 0.5 0.5 0.5 0.26562 0 0.5-0.17188 0.5-0.51562 0-0.79688-0.84375-1.375-1.8125-1.375-1.3906 0-2.5 1.2344-2.5 2.75 0 1.5312 1.1406 2.7031 2.5 2.7031 1.5781 0 1.9375-1.4375 1.9375-1.5469s-0.09375-0.10938-0.125-0.10938c-0.10938 0-0.125 0.03125-0.15625 0.1875-0.26562 0.84375-0.90625 1.2031-1.5469 1.2031-0.73438 0-1.7031-0.64062-1.7031-2.4531 0-1.9844 1.0156-2.4688 1.6094-2.4688 0.45312 0 1.1094 0.17188 1.3906 0.64062z"/>
</g>
<g id="ae">
<path d="m5.3125-2.9062c0-1.1094 0-1.4375-0.26562-1.8281-0.34375-0.46875-0.90625-0.53125-1.3125-0.53125-1.0312 0-1.5156 0.76562-1.6719 1.1406h-0.015625v-4.1719l-1.6719 0.14062v0.34375c0.8125 0 0.92188 0.078125 0.92188 0.67188v6.25c0 0.54688-0.14062 0.54688-0.92188 0.54688v0.34375c0.3125-0.03125 0.96875-0.03125 1.2969-0.03125 0.34375 0 1 0 1.2969 0.03125v-0.34375c-0.75 0-0.90625 0-0.90625-0.54688v-2.2188c0-1.25 0.82812-1.9219 1.5781-1.9219 0.73438 0 0.90625 0.60938 0.90625 1.3438v2.7969c0 0.54688-0.14062 0.54688-0.90625 0.54688v0.34375c0.29688-0.03125 0.95312-0.03125 1.2812-0.03125 0.34375 0 1 0 1.3125 0.03125v-0.34375c-0.60938 0-0.90625 0-0.92188-0.35938z"/>
</g>
<g id="n">
<path d="m2.0781-7.3594c0-0.3125-0.25-0.59375-0.57812-0.59375-0.3125 0-0.57812 0.25-0.57812 0.57812 0 0.35938 0.28125 0.57812 0.57812 0.57812 0.35938 0 0.57812-0.29688 0.57812-0.5625zm-1.6406 2.2188v0.34375c0.75 0 0.85938 0.078125 0.85938 0.65625v3.25c0 0.54688-0.125 0.54688-0.90625 0.54688v0.34375c0.34375-0.03125 0.90625-0.03125 1.2656-0.03125 0.125 0 0.8125 0 1.2188 0.03125v-0.34375c-0.76562 0-0.8125-0.0625-0.8125-0.53125v-4.3906z"/>
</g>
<g id="ad">
<path d="m2-8.2969-1.6719 0.14062v0.34375c0.8125 0 0.92188 0.078125 0.92188 0.67188v7.1406h0.25c0.046875-0.09375 0.39062-0.6875 0.4375-0.78125 0.28125 0.45312 0.78125 0.90625 1.5469 0.90625 1.375 0 2.5938-1.1719 2.5938-2.7031 0-1.5156-1.125-2.6875-2.4531-2.6875-0.65625 0-1.2188 0.29688-1.625 0.79688zm0.015625 4.4688c0-0.21875 0-0.23438 0.14062-0.42188 0.28125-0.4375 0.8125-0.78125 1.3906-0.78125 0.35938 0 1.6094 0.14062 1.6094 2.4375 0 0.79688-0.10938 1.2969-0.40625 1.7344-0.23438 0.375-0.70312 0.73438-1.3125 0.73438-0.64062 0-1.0625-0.40625-1.2656-0.73438-0.15625-0.25-0.15625-0.29688-0.15625-0.5z"/>
</g>
<g id="d">
<path d="m2.0156-4.8125h1.6719v-0.34375h-1.6719v-2.1875h-0.26562c-0.015625 1.1094-0.45312 2.2656-1.5312 2.2969v0.23438h1.0156v3.3281c0 1.3281 0.875 1.6094 1.5156 1.6094 0.75 0 1.1406-0.75 1.1406-1.6094v-0.67188h-0.25v0.65625c0 0.85938-0.35938 1.3594-0.8125 1.3594-0.8125 0-0.8125-1.1094-0.8125-1.3125z"/>
</g>
<g id="z">
<path d="m0.5-8.1562v0.34375h0.23438c0.875 0 0.90625 0.10938 0.90625 0.5625v6.3438c0 0.4375-0.03125 0.5625-0.90625 0.5625h-0.23438v0.34375h4.1875c2 0 3.5938-1.7969 3.5938-4 0-2.3125-1.6094-4.1562-3.5938-4.1562zm2.625 7.8125c-0.51562 0-0.54688-0.09375-0.54688-0.48438v-6.5156c0-0.39062 0.03125-0.46875 0.54688-0.46875h1.2656c0.98438 0 1.7812 0.46875 2.2656 1.2656 0.54688 0.84375 0.54688 2.0469 0.54688 2.5312 0 0.67188-0.015625 1.7969-0.70312 2.6719-0.39062 0.5-1.1094 1-2.1094 1z"/>
</g>
<g id="m">
<path d="m4.6094-3.1875c0-0.65625 0-1.125-0.51562-1.5938-0.42188-0.375-0.96875-0.54688-1.4844-0.54688-0.98438 0-1.7344 0.64062-1.7344 1.4219 0 0.34375 0.21875 0.51562 0.5 0.51562s0.48438-0.20312 0.48438-0.5c0-0.48438-0.42188-0.48438-0.60938-0.48438 0.28125-0.5 0.85938-0.71875 1.3281-0.71875 0.54688 0 1.2656 0.45312 1.2656 1.5312v0.48438c-2.4062 0.03125-3.3125 1.0312-3.3125 1.9531 0 0.95312 1.0938 1.25 1.8281 1.25 0.78125 0 1.3281-0.48438 1.5469-1.0625 0.046875 0.5625 0.42188 1 0.9375 1 0.25 0 0.9375-0.17188 0.9375-1.125v-0.67188h-0.26562v0.67188c0 0.6875-0.28125 0.78125-0.45312 0.78125-0.45312 0-0.45312-0.64062-0.45312-0.8125zm-0.76562 1.5c0 1.1719-0.875 1.5625-1.3906 1.5625-0.59375 0-1.0781-0.42188-1.0781-1 0-1.5781 2.0312-1.7188 2.4688-1.75z"/>
</g>
<g id="y">
<path d="m4.625-8.3125c-0.046875-0.15625-0.078125-0.21875-0.23438-0.21875-0.17188 0-0.1875 0.03125-0.25 0.21875l-2.5 7.1562c-0.17188 0.48438-0.5 0.79688-1.2656 0.8125v0.34375c0.71875-0.03125 0.75-0.03125 1.1406-0.03125 0.34375 0 0.90625 0 1.2188 0.03125v-0.34375c-0.5-0.015625-0.79688-0.26562-0.79688-0.59375 0-0.078125 0-0.10938 0.0625-0.25l0.54688-1.5938h3.0156l0.65625 1.875c0.0625 0.14062 0.0625 0.17188 0.0625 0.20312 0 0.35938-0.60938 0.35938-0.92188 0.35938v0.34375c0.28125-0.03125 1.2344-0.03125 1.5625-0.03125s1.1875 0 1.4688 0.03125v-0.34375c-0.78125 0-0.98438 0-1.1562-0.5zm-0.57812 1.2031 1.3906 3.9844h-2.7656z"/>
</g>
<g id="x">
<path d="m7.2344-4.0156c0.26562-0.75 0.78125-0.78125 0.98438-0.79688v-0.34375c-0.29688 0.03125-0.51562 0.03125-0.875 0.03125-0.34375 0-0.375 0-1.0156-0.03125v0.34375c0.53125 0.03125 0.67188 0.35938 0.67188 0.57812 0 0.015625 0 0.09375-0.046875 0.21875l-1.0938 3.125-1.2031-3.375c-0.046875-0.14062-0.046875-0.17188-0.046875-0.20312 0-0.34375 0.4375-0.34375 0.6875-0.34375v-0.34375c-0.34375 0.03125-0.82812 0.03125-1.1719 0.03125-0.39062 0-0.40625 0-1.0781-0.03125v0.34375c0.45312 0 0.60938 0.03125 0.75 0.1875 0.046875 0.078125 0.20312 0.46875 0.28125 0.70312l-1.0156 2.9219-1.1562-3.25c-0.046875-0.15625-0.046875-0.1875-0.046875-0.23438 0-0.32812 0.45312-0.32812 0.6875-0.32812v-0.34375c-0.29688 0.03125-0.89062 0.03125-1.2188 0.03125-0.34375 0-0.35938 0-1.1094-0.03125v0.34375c0.60938 0 0.71875 0.0625 0.85938 0.4375l1.5 4.2812c0.046875 0.125 0.09375 0.21875 0.21875 0.21875 0.10938 0 0.17188-0.046875 0.23438-0.23438l1.1875-3.4062 1.2031 3.4062c0.046875 0.1875 0.10938 0.23438 0.21875 0.23438 0.125 0 0.17188-0.09375 0.21875-0.21875z"/>
</g>
<g id="j">
<path d="m1.4219-2.1562c0.5625 0.35938 1.0469 0.35938 1.1719 0.35938 1.0781 0 1.875-0.8125 1.875-1.7344 0-0.3125-0.09375-0.76562-0.46875-1.1562 0.45312-0.46875 1.0156-0.46875 1.0781-0.46875 0.046875 0 0.10938 0 0.15625 0.015625-0.125 0.046875-0.17188 0.17188-0.17188 0.29688 0 0.17188 0.10938 0.3125 0.29688 0.3125 0.10938 0 0.3125-0.0625 0.3125-0.32812 0-0.20312-0.15625-0.54688-0.57812-0.54688-0.625 0-1.0938 0.39062-1.25 0.5625-0.35938-0.26562-0.78125-0.42188-1.2344-0.42188-1.0781 0-1.875 0.8125-1.875 1.7344 0 0.67188 0.40625 1.1094 0.53125 1.2188-0.14062 0.1875-0.35938 0.53125-0.35938 1 0 0.6875 0.42188 0.98438 0.51562 1.0469-0.54688 0.15625-1.0938 0.59375-1.0938 1.2031 0 0.82812 1.125 1.5156 2.5938 1.5156 1.4219 0 2.5938-0.64062 2.5938-1.5312 0-0.29688-0.078125-1-0.79688-1.375-0.60938-0.3125-1.2031-0.3125-2.2344-0.3125-0.73438 0-0.8125 0-1.0312-0.21875-0.10938-0.125-0.21875-0.35938-0.21875-0.60938 0-0.20312 0.0625-0.40625 0.1875-0.5625zm1.1875 0.10938c-1.0625 0-1.0625-1.2031-1.0625-1.4844 0-0.20312 0-0.70312 0.20312-1.0156 0.23438-0.35938 0.59375-0.46875 0.84375-0.46875 1.0469 0 1.0469 1.2031 1.0469 1.4844 0 0.20312 0 0.70312-0.20312 1.0156-0.21875 0.35938-0.57812 0.46875-0.82812 0.46875zm0.3125 4.25c-1.1406 0-2.0156-0.59375-2.0156-1.2656 0-0.09375 0.03125-0.5625 0.48438-0.875 0.26562-0.17188 0.35938-0.17188 1.2031-0.17188 0.98438 0 2.3438 0 2.3438 1.0469 0 0.70312-0.90625 1.2656-2.0156 1.2656z"/>
</g>
<g id="i">
<path d="m5.4844-2.5625c0-1.5312-1.1719-2.7656-2.5625-2.7656-1.4219 0-2.5625 1.2656-2.5625 2.7656 0 1.5312 1.1875 2.6875 2.5625 2.6875 1.4062 0 2.5625-1.1719 2.5625-2.6875zm-2.5625 2.4219c-0.4375 0-0.96875-0.1875-1.3125-0.78125-0.32812-0.53125-0.34375-1.2344-0.34375-1.75 0-0.45312 0-1.1719 0.375-1.7188 0.32812-0.51562 0.85938-0.70312 1.2812-0.70312 0.45312 0 0.96875 0.21875 1.2812 0.6875 0.375 0.54688 0.375 1.2969 0.375 1.7344 0 0.42188 0 1.1719-0.3125 1.7344-0.32812 0.5625-0.89062 0.79688-1.3438 0.79688z"/>
</g>
<g id="w">
<path d="m4.5469-4.8125c0.10938-0.14062 0.10938-0.15625 0.10938-0.20312 0-0.14062-0.078125-0.14062-0.28125-0.14062h-3.75l-0.14062 1.9062h0.26562c0.078125-1.2188 0.29688-1.6562 1.6094-1.6562h1.375l-3.4062 4.6875c0 0.21875 0.015625 0.21875 0.28125 0.21875h3.8906l0.20312-2.2031h-0.26562c-0.10938 1.3594-0.3125 1.9375-1.7344 1.9375h-1.4531z"/>
</g>
<g id="v">
<path d="m3.3438-3.1719-0.078125-0.10938c0-0.046875 0.75-0.6875 0.84375-0.78125 0.82812-0.71875 1.3594-0.73438 1.6094-0.75v-0.34375c-0.25 0.03125-0.5625 0.03125-0.90625 0.03125-0.3125 0-0.92188 0-1.2031-0.03125v0.34375c0.20312 0.015625 0.34375 0.125 0.34375 0.3125 0 0.25-0.23438 0.45312-0.25 0.45312l-1.7031 1.5156v-5.7656l-1.6719 0.14062v0.34375c0.8125 0 0.92188 0.078125 0.92188 0.67188v6.25c0 0.54688-0.14062 0.54688-0.92188 0.54688v0.34375c0.34375-0.03125 0.92188-0.03125 1.2812-0.03125 0.34375 0 0.92188 0 1.2656 0.03125v-0.34375c-0.76562 0-0.92188 0-0.92188-0.54688v-1.2656l0.76562-0.67188 1.1562 1.6562c0.17188 0.25 0.26562 0.39062 0.26562 0.54688 0 0.21875-0.17188 0.28125-0.42188 0.28125v0.34375c0.29688-0.03125 0.89062-0.03125 1.2031-0.03125 0.51562 0 0.54688 0 1.0469 0.03125v-0.34375c-0.3125 0-0.6875 0-1.0156-0.5z"/>
</g>
<g id="ac">
<path d="m7.625-3.0625h-0.26562c-0.28125 1.875-0.5625 2.7188-2.5938 2.7188h-1.625c-0.51562 0-0.54688-0.09375-0.54688-0.48438v-3.2188h1.0938c1.1406 0 1.2656 0.35938 1.2656 1.3906h0.26562v-3.1406h-0.26562c0 1.0312-0.125 1.3906-1.2656 1.3906h-1.0938v-2.9062c0-0.39062 0.03125-0.48438 0.54688-0.48438h1.5938c1.75 0 2.125 0.59375 2.3125 2.3281h0.25l-0.29688-2.6719h-6.5156v0.34375h0.25c0.85938 0 0.89062 0.125 0.89062 0.5625v6.3281c0 0.4375-0.03125 0.5625-0.89062 0.5625h-0.25v0.34375h6.6562z"/>
</g>
<g id="u">
<path d="m8.5781-2.9062c0-1.1094 0-1.4375-0.28125-1.8281-0.34375-0.46875-0.90625-0.53125-1.3125-0.53125-1 0-1.5 0.71875-1.6875 1.1719-0.17188-0.92188-0.8125-1.1719-1.5625-1.1719-1.1719 0-1.625 0.98438-1.7188 1.2188v-1.2188l-1.6406 0.125v0.34375c0.8125 0 0.92188 0.09375 0.92188 0.67188v3.2344c0 0.54688-0.14062 0.54688-0.92188 0.54688v0.34375c0.3125-0.03125 0.96875-0.03125 1.2969-0.03125 0.34375 0 1 0 1.2969 0.03125v-0.34375c-0.75 0-0.90625 0-0.90625-0.54688v-2.2188c0-1.25 0.82812-1.9219 1.5781-1.9219 0.73438 0 0.90625 0.60938 0.90625 1.3438v2.7969c0 0.54688-0.14062 0.54688-0.90625 0.54688v0.34375c0.29688-0.03125 0.95312-0.03125 1.2812-0.03125 0.34375 0 1 0 1.3125 0.03125v-0.34375c-0.76562 0-0.92188 0-0.92188-0.54688v-2.2188c0-1.25 0.82812-1.9219 1.5781-1.9219 0.73438 0 0.90625 0.60938 0.90625 1.3438v2.7969c0 0.54688-0.14062 0.54688-0.90625 0.54688v0.34375c0.3125-0.03125 0.95312-0.03125 1.2812-0.03125 0.34375 0 1 0 1.3125 0.03125v-0.34375c-0.60938 0-0.90625 0-0.90625-0.35938z"/>
</g>
<g id="ab">
<path d="m2.0625-4.8125h1.3438v-0.34375h-1.375v-1.3906c0-1.0781 0.54688-1.625 1.0469-1.625 0.09375 0 0.26562 0.015625 0.40625 0.09375-0.046875 0.015625-0.34375 0.125-0.34375 0.46875 0 0.26562 0.1875 0.46875 0.46875 0.46875s0.48438-0.20312 0.48438-0.48438c0-0.4375-0.4375-0.79688-1.0156-0.79688-0.82812 0-1.7812 0.65625-1.7812 1.875v1.3906h-0.92188v0.34375h0.92188v3.9219c0 0.54688-0.125 0.54688-0.90625 0.54688v0.34375c0.34375-0.03125 1-0.03125 1.3594-0.03125 0.3125 0 1.1719 0 1.4375 0.03125v-0.34375h-0.23438c-0.875 0-0.89062-0.14062-0.89062-0.5625z"/>
</g>
<g id="aa">
<path d="m4.875-4.0156c0.10938-0.26562 0.3125-0.78125 1.0781-0.79688v-0.34375c-0.34375 0.03125-0.51562 0.03125-0.89062 0.03125-0.25 0-0.42188 0-0.96875-0.03125v0.34375c0.5 0.03125 0.5625 0.39062 0.5625 0.51562 0 0.10938-0.03125 0.17188-0.09375 0.3125l-1.2188 3.0938-1.3281-3.375c-0.0625-0.17188-0.078125-0.17188-0.078125-0.23438 0-0.3125 0.45312-0.3125 0.67188-0.3125v-0.34375c-0.29688 0.03125-0.92188 0.03125-1.25 0.03125-0.39062 0-0.42188 0-1.1406-0.03125v0.34375c0.67188 0 0.78125 0.0625 0.92188 0.42188l1.7188 4.2812c0.0625 0.17188 0.078125 0.23438 0.21875 0.23438 0.09375 0 0.15625-0.03125 0.25-0.23438z"/>
</g>
<g id="t">
<path d="m3.2344-2.2656v-0.64062h-3.1094v0.64062z"/>
</g>
<g id="s">
<path d="m7.8125-8.1094h-7.1719l-0.21875 2.6719h0.26562c0.15625-1.8906 0.26562-2.3125 2.1562-2.3125 0.21875 0 0.54688 0 0.64062 0.015625 0.25 0.03125 0.25 0.1875 0.25 0.45312v6.3594c0 0.40625 0 0.57812-1.1719 0.57812h-0.42188v0.34375c0.375-0.03125 1.6094-0.03125 2.0781-0.03125s1.7031 0 2.0938 0.03125v-0.34375h-0.4375c-1.1719 0-1.1719-0.17188-1.1719-0.57812v-6.3594c0-0.29688 0.03125-0.40625 0.21875-0.45312 0.09375-0.015625 0.4375-0.015625 0.67188-0.015625 1.8906 0 2 0.42188 2.1562 2.3125h0.26562z"/>
</g>
<g id="l">
<path d="m7.7969-8.1406c0-0.21875 0-0.28125-0.125-0.28125-0.0625 0-0.078125 0.03125-0.15625 0.15625l-0.57812 0.9375c-0.54688-0.67188-1.3594-1.0938-2.2188-1.0938-2.1875 0-4.0781 1.8906-4.0781 4.3281 0 2.4844 1.9219 4.3438 4.0781 4.3438 1.9688 0 3.0781-1.7031 3.0781-3.0156 0-0.14062 0-0.20312-0.14062-0.20312-0.10938 0-0.125 0.046875-0.125 0.14062-0.10938 1.8906-1.5 2.7344-2.6562 2.7344-0.82812 0-3.125-0.5-3.125-4 0-3.4531 2.25-3.9688 3.1094-3.9688 1.2656 0 2.3594 1.0625 2.5938 2.8438 0.03125 0.15625 0.03125 0.1875 0.17188 0.1875 0.17188 0 0.17188-0.03125 0.17188-0.28125z"/>
</g>
<g id="r">
<path d="m2.6094-3.7969h2.0156c1.4062 0 2.6719-0.95312 2.6719-2.1562 0-1.1562-1.1562-2.2031-2.7656-2.2031h-4.0312v0.34375h0.23438c0.875 0 0.90625 0.10938 0.90625 0.5625v6.3438c0 0.4375-0.03125 0.5625-0.90625 0.5625h-0.23438v0.34375c0.28125-0.03125 1.2656-0.03125 1.6094-0.03125 0.35938 0 1.3438 0 1.625 0.03125v-0.34375h-0.23438c-0.85938 0-0.89062-0.125-0.89062-0.5625zm-0.03125-0.29688v-3.25c0-0.39062 0.03125-0.46875 0.54688-0.46875h1.125c1.9375 0 1.9375 1.3438 1.9375 1.8594 0 0.5 0 1.8594-1.9375 1.8594z"/>
</g>
<g id="q">
<path d="m2.0625-8.2969-1.6719 0.14062v0.34375c0.8125 0 0.90625 0.078125 0.90625 0.67188v6.25c0 0.54688-0.125 0.54688-0.90625 0.54688v0.34375c0.34375-0.03125 0.92188-0.03125 1.2812-0.03125s0.95312 0 1.2969 0.03125v-0.34375c-0.76562 0-0.90625 0-0.90625-0.54688z"/>
</g>
<clipPath id="an">
<path d="m119 85h112v1h-112z"/>
</clipPath>
<clipPath id="am">
<path d="m0.52734 120.11h350v-120h-350zm230.36-34.559v0.52734l-6.3125 2.0039 1.1367-2.2695-1.1367-2.2656z" clip-rule="evenodd"/>
</clipPath>
<clipPath id="al">
<path d="m283 34h1v46h-1z"/>
</clipPath>
<clipPath id="ak">
<path d="m0.52734 120.11h350v-120h-350zm282.56-85.59h0.52734l2.0039 6.3125-2.2656-1.1328-2.2695 1.1328z" clip-rule="evenodd"/>
</clipPath>
<clipPath id="aj">
<path d="m53 34h1v46h-1z"/>
</clipPath>
<clipPath id="ai">
<path d="m0.52734 120.11h350v-120h-350zm53.457-40.836h-0.53125l-2.0039-6.3125 2.2695 1.1367 2.2695-1.1367z" clip-rule="evenodd"/>
</clipPath>
<clipPath id="ah">
<path d="m0.52734 0.11328h120.47v51.887h-120.47z"/>
</clipPath>
<clipPath id="ag">
<path d="m0.52734 60h120.47v52h-120.47z"/>
</clipPath>
<clipPath id="af">
<path d="m230 0.11328h120v51.887h-120z"/>
</clipPath>
</defs>
<path transform="matrix(.1 0 0 -.1 .528 120.11)" d="m1382.4 70.818c-2.0312-0.19531-4.0625-0.27344-6.0938-0.27344-37.07 0-67.109 30.039-67.109 67.07 0 37.07 30.039 67.109 67.109 67.109 23.281 0 44.883-12.07 57.109-31.875" fill="none" stroke="#000" stroke-miterlimit="10" stroke-width="2.835"/>
<path d="m205.11 89.219h8.5039v-11.906h-8.5039z" fill="#fff" fill-rule="evenodd"/>
<g clip-path="url(#an)">
<g clip-path="url(#am)">
<path transform="matrix(.1 0 0 -.1 .528 120.11)" d="m1195.3 342.97h1105.6" fill="none" stroke="#000" stroke-miterlimit="10" stroke-width="2.835"/>
</g>
</g>
<path d="m224.57 88.086 5.6719-2.2695-5.6719-2.2656 1.1367 2.2656-1.1367 2.2695" fill-rule="evenodd"/>
<path transform="matrix(.1 0 0 -.1 .528 120.11)" d="m2240.5 320.27 56.719 22.695-56.719 22.656 11.367-22.656z" fill="none" stroke="#000" stroke-miterlimit="10" stroke-width="2.835"/>
<g clip-path="url(#al)">
<g clip-path="url(#ak)">
<path transform="matrix(.1 0 0 -.1 .528 120.11)" d="m2828.3 853.24v-442.27" fill="none" stroke="#000" stroke-miterlimit="10" stroke-width="2.835"/>
</g>
</g>
<path d="m285.62 40.836-2.2656-5.668-2.2695 5.668 2.2695-1.1328 2.2656 1.1328" fill-rule="evenodd"/>
<path transform="matrix(.1 0 0 -.1 .528 120.11)" d="m2850.9 792.77-22.656 56.68-22.695-56.68 22.695 11.328z" fill="none" stroke="#000" stroke-miterlimit="10" stroke-width="2.835"/>
<g clip-path="url(#aj)">
<g clip-path="url(#ai)">
<path transform="matrix(.1 0 0 -.1 .528 120.11)" d="m531.91 853.24v-442.27" fill="none" stroke="#000" stroke-miterlimit="10" stroke-width="2.835"/>
</g>
</g>
<path d="m51.449 72.965 2.2695 5.6719 2.2695-5.6719-2.2695 1.1367-2.2695-1.1367" fill-rule="evenodd"/>
<path transform="matrix(.1 0 0 -.1 .528 120.11)" d="m509.21 471.48 22.695-56.719 22.695 56.719-22.695-11.367z" fill="none" stroke="#000" stroke-miterlimit="10" stroke-width="2.835"/>
<path transform="matrix(.1 0 0 -.1 .528 120.11)" d="m2045.8 223.86c1.0938 0 2.1484-0.039062 3.2422-0.039062 80.234 0 145.31 65.078 145.31 145.31s-65.078 145.31-145.31 145.31c-6.7578 0-13.555-0.46875-20.234-1.4062" fill="#fff" fill-rule="evenodd" stroke="#000" stroke-miterlimit="10" stroke-width="2.835"/>
<path transform="matrix(.1 0 0 -.1 .528 120.11)" d="m1467.5 479.02c-5.3125 0.54688-10.703 0.85938-16.055 0.85938-85.078 0-154.02-68.984-154.02-154.06 0-78.125 58.477-143.87 136.05-152.97" fill="#fff" fill-rule="evenodd" stroke="#000" stroke-miterlimit="10" stroke-width="2.835"/>
<path transform="matrix(.1 0 0 -.1 .528 120.11)" d="m1450.5 206.87h595.35v255.16h-595.35z" fill="#fff" fill-rule="evenodd" stroke="#000" stroke-miterlimit="10" stroke-width="2.835"/>
<g clip-path="url(#ah)">
<path transform="matrix(.1 0 0 -.1 .528 120.11)" d="m4.6028 683.16h1190.7v510.27h-1190.7z" fill="none" stroke="#000" stroke-miterlimit="10" stroke-width="2.835"/>
</g>
<g clip-path="url(#ag)">
<path transform="matrix(.1 0 0 -.1 .528 120.11)" d="m4.6028 87.81h1190.7v510.27h-1190.7z" fill="none" stroke="#000" stroke-miterlimit="10" stroke-width="2.835"/>
</g>
<g clip-path="url(#af)">
<path transform="matrix(.1 0 0 -.1 .528 120.11)" d="m2300.9 683.16h1190.7v510.27h-1190.7z" fill="none" stroke="#000" stroke-miterlimit="10" stroke-width="2.835"/>
</g>
<path transform="matrix(.1 0 0 -.1 .528 120.11)" d="m2300.9 87.81h1190.7v510.27h-1190.7z" fill="none" stroke="#000" stroke-miterlimit="10" stroke-width="2.835"/>
<path transform="matrix(.1 0 0 -.1 .528 120.11)" d="m2556.1 513.04h595.35v255.16h-595.35z" fill="#fff" fill-rule="evenodd" stroke="#000" stroke-miterlimit="10" stroke-width="2.835"/>
<path transform="matrix(.1 0 0 -.1 .528 120.11)" d="m259.76 513.04h595.35v255.16h-595.35z" fill="#fff" fill-rule="evenodd" stroke="#000" stroke-miterlimit="10" stroke-width="2.835"/>
<path transform="matrix(.1 0 0 -.1 .528 120.11)" d="m1824.7 121.79c4.6875-59.766 54.57-105.9 114.57-105.9 46.836 0 89.023 28.438 106.56 71.914" fill="none" stroke="#000" stroke-miterlimit="10" stroke-width="2.835"/>
<path transform="matrix(.1 0 0 -.1 .528 120.11)" d="m1518.5 70.778c35.977-35.078 84.18-54.688 134.41-54.688 72.617 0 139.06 40.898 171.8 105.7" fill="none" stroke="#000" stroke-miterlimit="10" stroke-width="2.835"/>
<path transform="matrix(.1 0 0 -.1 .528 120.11)" d="m2045.8 87.849c15.664-12.344 34.961-19.023 54.883-19.023 48.945 0 88.672 39.688 88.672 88.672 0 37.344-23.398 70.703-58.516 83.398" fill="none" stroke="#000" stroke-miterlimit="10" stroke-width="2.835"/>
<path transform="matrix(.1 0 0 -.1 .528 120.11)" d="m2096.8 513.04c42.148 24.844 68.047 70.156 68.047 119.06 0 76.328-61.875 138.2-138.2 138.2s-138.2-61.875-138.2-138.2c0-11.445 1.4453-22.891 4.2578-34.023" fill="none" stroke="#000" stroke-miterlimit="10" stroke-width="2.835"/>
<path transform="matrix(.1 0 0 -.1 .528 120.11)" d="m1892.7 615.08c-12.109 65.078-68.906 112.3-135.08 112.3-75.859 0-137.34-61.523-137.34-137.38 0-2.9688 0.078125-5.9375 0.27344-8.9062" fill="none" stroke="#000" stroke-miterlimit="10" stroke-width="2.835"/>
<path transform="matrix(.1 0 0 -.1 .528 120.11)" d="m1620.5 581.09c-13.398 55.859-63.32 95.273-120.74 95.273-68.594 0-124.18-55.625-124.18-124.18 0-26.289 8.3203-51.914 23.828-73.164" fill="none" stroke="#000" stroke-miterlimit="10" stroke-width="2.835"/>
<path transform="matrix(.1 0 0 -.1 .528 120.11)" d="m1518.5 70.778c0-37.578-30.508-68.047-68.047-68.047-37.578 0-68.047 30.469-68.047 68.047" fill="none" stroke="#000" stroke-miterlimit="10" stroke-width="2.835"/>
<g>
<use x="9.485" y="103.901" xlink:href="#g"/>
<use x="15.988629" y="103.901" xlink:href="#a"/>
<use x="21.191532" y="103.901" xlink:href="#b"/>
<use x="27.695161" y="103.901" xlink:href="#k"/>
<use x="34.198789" y="103.901" xlink:href="#a"/>
<use x="39.401692" y="103.901" xlink:href="#f"/>
<use x="45.905321" y="103.901" xlink:href="#h"/>
<use x="52.40895" y="103.901" xlink:href="#p"/>
<use x="59.23776" y="103.901" xlink:href="#a"/>
<use x="64.440663" y="103.901" xlink:href="#e"/>
<use x="9.485" y="32.475" xlink:href="#c"/>
<use x="14.102098" y="32.475" xlink:href="#o"/>
<use x="18.982211" y="32.475" xlink:href="#ae"/>
<use x="25.48584" y="32.475" xlink:href="#e"/>
<use x="30.03838" y="32.475" xlink:href="#a"/>
<use x="35.241283" y="32.475" xlink:href="#n"/>
<use x="38.493097" y="32.475" xlink:href="#ad"/>
<use x="44.996726" y="32.475" xlink:href="#d"/>
<use x="53.446661" y="32.475" xlink:href="#z"/>
<use x="62.38676" y="32.475" xlink:href="#m"/>
<use x="68.240026" y="32.475" xlink:href="#d"/>
<use x="72.792566" y="32.475" xlink:href="#a"/>
<use x="77.995469" y="32.475" xlink:href="#b"/>
<use x="9.485" y="17.736" xlink:href="#y"/>
<use x="18.260117" y="17.736" xlink:href="#b"/>
<use x="24.440955" y="17.736" xlink:href="#x"/>
<use x="32.572882" y="17.736" xlink:href="#a"/>
<use x="37.775785" y="17.736" xlink:href="#b"/>
<use x="44.279414" y="17.736" xlink:href="#k"/>
<use x="50.771088" y="17.736" xlink:href="#h"/>
<use x="57.274716" y="17.736" xlink:href="#b"/>
<use x="63.778345" y="17.736" xlink:href="#j"/>
<use x="69.631611" y="17.736" xlink:href="#c"/>
<use x="74.248709" y="17.736" xlink:href="#f"/>
<use x="80.752338" y="17.736" xlink:href="#e"/>
<use x="85.304878" y="17.736" xlink:href="#i"/>
<use x="91.158144" y="17.736" xlink:href="#w"/>
<use x="96.361047" y="17.736" xlink:href="#a"/>
<use x="101.56395" y="17.736" xlink:href="#c"/>
<use x="106.181049" y="17.736" xlink:href="#c"/>
<use x="110.798147" y="17.736" xlink:href="#c"/>
<use x="38.818" y="58.551" xlink:href="#g"/>
<use x="45.321629" y="58.551" xlink:href="#i"/>
<use x="51.497685" y="58.551" xlink:href="#o"/>
<use x="56.377798" y="58.551" xlink:href="#v"/>
<use x="62.233455" y="58.551" xlink:href="#a"/>
<use x="67.436358" y="58.551" xlink:href="#d"/>
<use x="239.069" y="103.901" xlink:href="#ac"/>
<use x="247.033554" y="103.901" xlink:href="#u"/>
<use x="256.788997" y="103.901" xlink:href="#f"/>
<use x="263.292626" y="103.901" xlink:href="#ab"/>
<use x="266.869622" y="103.901" xlink:href="#m"/>
<use x="272.722888" y="103.901" xlink:href="#b"/>
<use x="279.226517" y="103.901" xlink:href="#j"/>
<use x="285.079783" y="103.901" xlink:href="#c"/>
<use x="289.696881" y="103.901" xlink:href="#f"/>
<use x="296.20051" y="103.901" xlink:href="#h"/>
<use x="302.704139" y="103.901" xlink:href="#p"/>
<use x="309.532949" y="103.901" xlink:href="#a"/>
<use x="314.735852" y="103.901" xlink:href="#e"/>
<use x="239.069" y="89.162" xlink:href="#g"/>
<use x="245.572629" y="89.162" xlink:href="#a"/>
<use x="250.775532" y="89.162" xlink:href="#e"/>
<use x="255.328072" y="89.162" xlink:href="#aa"/>
<use x="261.183729" y="89.162" xlink:href="#a"/>
<use x="266.386632" y="89.162" xlink:href="#e"/>
<use x="270.939172" y="89.162" xlink:href="#t"/>
<use x="274.841349" y="89.162" xlink:href="#s"/>
<use x="283.296067" y="89.162" xlink:href="#l"/>
<use x="291.750784" y="89.162" xlink:href="#r"/>
<use x="239.069" y="17.736" xlink:href="#y"/>
<use x="247.844117" y="17.736" xlink:href="#b"/>
<use x="254.024955" y="17.736" xlink:href="#x"/>
<use x="262.156882" y="17.736" xlink:href="#a"/>
<use x="267.359785" y="17.736" xlink:href="#b"/>
<use x="273.863414" y="17.736" xlink:href="#k"/>
<use x="280.367043" y="17.736" xlink:href="#h"/>
<use x="286.858716" y="17.736" xlink:href="#b"/>
<use x="293.362345" y="17.736" xlink:href="#j"/>
<use x="299.215611" y="17.736" xlink:href="#c"/>
<use x="303.832709" y="17.736" xlink:href="#f"/>
<use x="310.336338" y="17.736" xlink:href="#e"/>
<use x="314.888878" y="17.736" xlink:href="#i"/>
<use x="320.742144" y="17.736" xlink:href="#w"/>
<use x="325.945047" y="17.736" xlink:href="#a"/>
<use x="331.14795" y="17.736" xlink:href="#c"/>
<use x="335.765049" y="17.736" xlink:href="#c"/>
<use x="340.382147" y="17.736" xlink:href="#c"/>
<use x="268.403" y="58.551" xlink:href="#g"/>
<use x="274.906629" y="58.551" xlink:href="#i"/>
<use x="281.082685" y="58.551" xlink:href="#o"/>
<use x="285.962798" y="58.551" xlink:href="#v"/>
<use x="291.818455" y="58.551" xlink:href="#a"/>
<use x="297.021358" y="58.551" xlink:href="#d"/>
<use x="239.069" y="32.475" xlink:href="#q"/>
<use x="242.320814" y="32.475" xlink:href="#n"/>
<use x="245.572629" y="32.475" xlink:href="#a"/>
<use x="250.775532" y="32.475" xlink:href="#c"/>
<use x="255.39263" y="32.475" xlink:href="#d"/>
<use x="263.842565" y="32.475" xlink:href="#z"/>
<use x="272.782664" y="32.475" xlink:href="#m"/>
<use x="278.63593" y="32.475" xlink:href="#d"/>
<use x="283.18847" y="32.475" xlink:href="#a"/>
<use x="288.391373" y="32.475" xlink:href="#b"/>
<use x="154.523" y="89.162" xlink:href="#g"/>
<use x="161.026629" y="89.162" xlink:href="#a"/>
<use x="166.229532" y="89.162" xlink:href="#j"/>
<use x="172.082798" y="89.162" xlink:href="#u"/>
<use x="181.838241" y="89.162" xlink:href="#a"/>
<use x="187.041144" y="89.162" xlink:href="#b"/>
<use x="193.221982" y="89.162" xlink:href="#d"/>
<use x="9.480123" y="89.162" xlink:href="#l"/>
<use x="17.93484" y="89.162" xlink:href="#q"/>
<use x="21.186654" y="89.162" xlink:href="#n"/>
<use x="24.438469" y="89.162" xlink:href="#a"/>
<use x="29.641372" y="89.162" xlink:href="#b"/>
<use x="35.82221" y="89.162" xlink:href="#d"/>
<use x="40.37475" y="89.162" xlink:href="#t"/>
<use x="44.276928" y="89.162" xlink:href="#s"/>
<use x="52.731645" y="89.162" xlink:href="#l"/>
<use x="61.186363" y="89.162" xlink:href="#r"/>
</g>
</svg>
