<svg width="384pt" height="192pt" version="1.1" viewBox="0 0 384 192" xmlns="http://www.w3.org/2000/svg" xmlns:xlink="http://www.w3.org/1999/xlink">
<defs>
<g id="ad">
<path d="m2.7031-8c-0.10938-0.15625-0.125-0.15625-0.39062-0.15625h-1.8281v0.34375c0.51562 0 0.8125 0 1.1406 0.078125v6.4844c0 0.34375 0 0.90625-1.1406 0.90625v0.34375c0.3125-0.03125 0.95312-0.03125 1.2812-0.03125 0.34375 0 0.96875 0 1.2812 0.03125v-0.34375c-1.1406 0-1.1406-0.5625-1.1406-0.90625v-6.2969c0.10938 0.09375 0.10938 0.125 0.20312 0.26562l4.6719 7.1094c0.10938 0.15625 0.125 0.17188 0.21875 0.17188s0.125-0.046875 0.14062-0.078125v-6.8281c0-0.34375 0-0.90625 1.125-0.90625v-0.34375c-0.3125 0.015625-0.9375 0.015625-1.2656 0.015625-0.34375 0-0.96875 0-1.2812-0.015625v0.34375c1.125 0 1.125 0.5625 1.125 0.90625v5.2188z"/>
</g>
<g id="az">
<path d="m7.1875-7.0469c0.39062-0.625 0.9375-0.76562 1.4531-0.76562v-0.34375c-0.67188 0.015625-0.6875 0.015625-1.1094 0.015625-0.32812 0-0.92188 0-1.2188-0.015625v0.34375c0.34375 0 0.59375 0.15625 0.59375 0.4375 0 0.15625-0.015625 0.1875-0.14062 0.375l-2.0156 3.2969-2.2344-3.5938c-0.0625-0.125-0.09375-0.15625-0.09375-0.23438 0-0.25 0.3125-0.28125 0.75-0.28125v-0.34375c-0.28125 0.015625-1.25 0.015625-1.5781 0.015625-0.34375 0-1.1875 0-1.4688-0.015625v0.34375c0.84375 0 1 0.03125 1.2656 0.46875l2.5156 4.0781v2.3594c0 0.4375-0.03125 0.5625-0.89062 0.5625h-0.25v0.34375c0.28125-0.03125 1.2656-0.03125 1.6094-0.03125s1.3281 0 1.6094 0.03125v-0.34375h-0.23438c-0.875 0-0.89062-0.125-0.89062-0.54688v-2.3906z"/>
</g>
<g id="k">
<path d="m2.4844-4.9844c-0.60938-0.15625-1.1406-0.75-1.1406-1.5156 0-0.84375 0.67188-1.5938 1.5938-1.5938 1.9688 0 2.2188 1.9375 2.2969 2.4531 0.03125 0.14062 0.03125 0.1875 0.14062 0.1875 0.14062 0 0.14062-0.0625 0.14062-0.26562v-2.4219c0-0.21875 0-0.28125-0.125-0.28125-0.03125 0-0.078125 0-0.17188 0.15625l-0.39062 0.73438c-0.57812-0.73438-1.3594-0.89062-1.8906-0.89062-1.3281 0-2.2969 1.0781-2.2969 2.2969 0 0.5625 0.20312 1.0938 0.65625 1.5781 0.40625 0.45312 0.82812 0.5625 1.6719 0.78125 0.42188 0.09375 1.0781 0.26562 1.25 0.32812 0.5625 0.28125 0.9375 0.92188 0.9375 1.5938 0 0.90625-0.64062 1.75-1.625 1.75-0.54688 0-1.2812-0.14062-1.875-0.64062-0.6875-0.625-0.73438-1.4844-0.75-1.8906-0.015625-0.09375-0.10938-0.09375-0.125-0.09375-0.14062 0-0.14062 0.0625-0.14062 0.28125v2.4062c0 0.21875 0 0.28125 0.125 0.28125 0.078125 0 0.078125-0.015625 0.17188-0.17188 0.046875-0.09375 0.29688-0.53125 0.39062-0.71875 0.42188 0.48438 1.1875 0.89062 2.2031 0.89062 1.3438 0 2.3125-1.1406 2.3125-2.4531 0-0.71875-0.28125-1.2656-0.59375-1.6562-0.4375-0.54688-0.98438-0.67188-1.4531-0.79688z"/>
</g>
<g id="u">
<path d="m6.8281-8.1406h-6.3438v0.34375h0.25c0.85938 0 0.89062 0.125 0.89062 0.5625v6.3281c0 0.4375-0.03125 0.5625-0.89062 0.5625h-0.25v0.34375c0.29688-0.03125 1.3594-0.03125 1.7188-0.03125 0.42188 0 1.4688 0 1.8125 0.03125v-0.34375h-0.35938c-1.0312 0-1.0625-0.14062-1.0625-0.57812v-2.9688h1.0469c1.125 0 1.25 0.39062 1.25 1.3906h0.26562v-3.1406h-0.26562c0 1-0.125 1.3906-1.25 1.3906h-1.0469v-3.0625c0-0.39062 0.03125-0.48438 0.54688-0.48438h1.5c1.7188 0 2.0625 0.64062 2.2344 2.3281h0.26562z"/>
</g>
<g id="an">
<path d="m2.5938-7.25c0-0.45312 0.03125-0.5625 0.9375-0.5625h0.26562v-0.34375c-0.29688 0.015625-1.3281 0.015625-1.6875 0.015625s-1.3906 0-1.6719-0.015625v0.34375h0.25c0.90625 0 0.9375 0.10938 0.9375 0.5625v6.3438c0 0.4375-0.03125 0.5625-0.9375 0.5625h-0.25v0.34375c0.28125-0.03125 1.3125-0.03125 1.6719-0.03125s1.3906 0 1.6875 0.03125v-0.34375h-0.26562c-0.90625 0-0.9375-0.125-0.9375-0.5625z"/>
</g>
<g id="j">
<path d="m2.6094-3.7969h2.0156c1.4062 0 2.6719-0.95312 2.6719-2.1562 0-1.1562-1.1562-2.2031-2.7656-2.2031h-4.0312v0.34375h0.23438c0.875 0 0.90625 0.10938 0.90625 0.5625v6.3438c0 0.4375-0.03125 0.5625-0.90625 0.5625h-0.23438v0.34375c0.28125-0.03125 1.2656-0.03125 1.6094-0.03125 0.35938 0 1.3438 0 1.625 0.03125v-0.34375h-0.23438c-0.85938 0-0.89062-0.125-0.89062-0.5625zm-0.03125-0.29688v-3.25c0-0.39062 0.03125-0.46875 0.54688-0.46875h1.125c1.9375 0 1.9375 1.3438 1.9375 1.8594 0 0.5 0 1.8594-1.9375 1.8594z"/>
</g>
<g id="am">
<path d="m7.625-3.0625h-0.26562c-0.28125 1.875-0.5625 2.7188-2.5938 2.7188h-1.625c-0.51562 0-0.54688-0.09375-0.54688-0.48438v-3.2188h1.0938c1.1406 0 1.2656 0.35938 1.2656 1.3906h0.26562v-3.1406h-0.26562c0 1.0312-0.125 1.3906-1.2656 1.3906h-1.0938v-2.9062c0-0.39062 0.03125-0.48438 0.54688-0.48438h1.5938c1.75 0 2.125 0.59375 2.3125 2.3281h0.25l-0.29688-2.6719h-6.5156v0.34375h0.25c0.85938 0 0.89062 0.125 0.89062 0.5625v6.3281c0 0.4375-0.03125 0.5625-0.89062 0.5625h-0.25v0.34375h6.6562z"/>
</g>
<g id="d">
<path d="m8.5781-2.9062c0-1.1094 0-1.4375-0.28125-1.8281-0.34375-0.46875-0.90625-0.53125-1.3125-0.53125-1 0-1.5 0.71875-1.6875 1.1719-0.17188-0.92188-0.8125-1.1719-1.5625-1.1719-1.1719 0-1.625 0.98438-1.7188 1.2188v-1.2188l-1.6406 0.125v0.34375c0.8125 0 0.92188 0.09375 0.92188 0.67188v3.2344c0 0.54688-0.14062 0.54688-0.92188 0.54688v0.34375c0.3125-0.03125 0.96875-0.03125 1.2969-0.03125 0.34375 0 1 0 1.2969 0.03125v-0.34375c-0.75 0-0.90625 0-0.90625-0.54688v-2.2188c0-1.25 0.82812-1.9219 1.5781-1.9219 0.73438 0 0.90625 0.60938 0.90625 1.3438v2.7969c0 0.54688-0.14062 0.54688-0.90625 0.54688v0.34375c0.29688-0.03125 0.95312-0.03125 1.2812-0.03125 0.34375 0 1 0 1.3125 0.03125v-0.34375c-0.76562 0-0.92188 0-0.92188-0.54688v-2.2188c0-1.25 0.82812-1.9219 1.5781-1.9219 0.73438 0 0.90625 0.60938 0.90625 1.3438v2.7969c0 0.54688-0.14062 0.54688-0.90625 0.54688v0.34375c0.3125-0.03125 0.95312-0.03125 1.2812-0.03125 0.34375 0 1 0 1.3125 0.03125v-0.34375c-0.60938 0-0.90625 0-0.90625-0.35938z"/>
</g>
<g id="s">
<path d="m2.9219 1.9688c-0.76562 0-0.90625 0-0.90625-0.53125v-2.0781c0.21875 0.29688 0.70312 0.76562 1.4688 0.76562 1.375 0 2.5938-1.1719 2.5938-2.7031 0-1.5156-1.125-2.6875-2.4375-2.6875-1.0469 0-1.6094 0.75-1.6406 0.79688v-0.79688l-1.6719 0.125v0.34375c0.84375 0 0.92188 0.09375 0.92188 0.60938v5.625c0 0.53125-0.14062 0.53125-0.92188 0.53125v0.34375c0.3125-0.015625 0.96875-0.015625 1.2969-0.015625 0.34375 0 1 0 1.2969 0.015625zm-0.90625-5.7812c0-0.23438 0-0.23438 0.14062-0.4375 0.35938-0.53125 0.9375-0.76562 1.3906-0.76562 0.90625 0 1.6094 1.0938 1.6094 2.4375 0 1.4219-0.8125 2.4531-1.7188 2.4531-0.375 0-0.71875-0.15625-0.96875-0.375-0.26562-0.28125-0.45312-0.51562-0.45312-0.84375z"/>
</g>
<g id="ac">
<path d="m2.0625-4.8125h1.3438v-0.34375h-1.375v-1.3906c0-1.0781 0.54688-1.625 1.0469-1.625 0.09375 0 0.26562 0.015625 0.40625 0.09375-0.046875 0.015625-0.34375 0.125-0.34375 0.46875 0 0.26562 0.1875 0.46875 0.46875 0.46875s0.48438-0.20312 0.48438-0.48438c0-0.4375-0.4375-0.79688-1.0156-0.79688-0.82812 0-1.7812 0.65625-1.7812 1.875v1.3906h-0.92188v0.34375h0.92188v3.9219c0 0.54688-0.125 0.54688-0.90625 0.54688v0.34375c0.34375-0.03125 1-0.03125 1.3594-0.03125 0.3125 0 1.1719 0 1.4375 0.03125v-0.34375h-0.23438c-0.875 0-0.89062-0.14062-0.89062-0.5625z"/>
</g>
<g id="n">
<path d="m2.3438-7.4062c0-0.29688-0.25-0.54688-0.54688-0.54688s-0.54688 0.21875-0.54688 0.54688c0 0.34375 0.25 0.5625 0.54688 0.5625s0.54688-0.25 0.54688-0.5625zm2.2656 0c0-0.32812-0.26562-0.54688-0.5625-0.54688s-0.54688 0.25-0.54688 0.54688c0 0.3125 0.25 0.5625 0.54688 0.5625s0.5625-0.21875 0.5625-0.5625z"/>
</g>
<g id="m">
<path d="m4.6094-3.1875c0-0.65625 0-1.125-0.51562-1.5938-0.42188-0.375-0.96875-0.54688-1.4844-0.54688-0.98438 0-1.7344 0.64062-1.7344 1.4219 0 0.34375 0.21875 0.51562 0.5 0.51562s0.48438-0.20312 0.48438-0.5c0-0.48438-0.42188-0.48438-0.60938-0.48438 0.28125-0.5 0.85938-0.71875 1.3281-0.71875 0.54688 0 1.2656 0.45312 1.2656 1.5312v0.48438c-2.4062 0.03125-3.3125 1.0312-3.3125 1.9531 0 0.95312 1.0938 1.25 1.8281 1.25 0.78125 0 1.3281-0.48438 1.5469-1.0625 0.046875 0.5625 0.42188 1 0.9375 1 0.25 0 0.9375-0.17188 0.9375-1.125v-0.67188h-0.26562v0.67188c0 0.6875-0.28125 0.78125-0.45312 0.78125-0.45312 0-0.45312-0.64062-0.45312-0.8125zm-0.76562 1.5c0 1.1719-0.875 1.5625-1.3906 1.5625-0.59375 0-1.0781-0.42188-1.0781-1 0-1.5781 2.0312-1.7188 2.4688-1.75z"/>
</g>
<g id="b">
<path d="m5.3125-2.9062c0-1.1094 0-1.4375-0.26562-1.8281-0.34375-0.46875-0.90625-0.53125-1.3125-0.53125-1.1719 0-1.625 0.98438-1.7188 1.2188v-1.2188l-1.6406 0.125v0.34375c0.8125 0 0.92188 0.09375 0.92188 0.67188v3.2344c0 0.54688-0.14062 0.54688-0.92188 0.54688v0.34375c0.3125-0.03125 0.96875-0.03125 1.2969-0.03125 0.34375 0 1 0 1.2969 0.03125v-0.34375c-0.75 0-0.90625 0-0.90625-0.54688v-2.2188c0-1.25 0.82812-1.9219 1.5781-1.9219 0.73438 0 0.90625 0.60938 0.90625 1.3438v2.7969c0 0.54688-0.14062 0.54688-0.90625 0.54688v0.34375c0.29688-0.03125 0.95312-0.03125 1.2812-0.03125 0.34375 0 1 0 1.3125 0.03125v-0.34375c-0.60938 0-0.90625 0-0.92188-0.35938z"/>
</g>
<g id="i">
<path d="m1.4219-2.1562c0.5625 0.35938 1.0469 0.35938 1.1719 0.35938 1.0781 0 1.875-0.8125 1.875-1.7344 0-0.3125-0.09375-0.76562-0.46875-1.1562 0.45312-0.46875 1.0156-0.46875 1.0781-0.46875 0.046875 0 0.10938 0 0.15625 0.015625-0.125 0.046875-0.17188 0.17188-0.17188 0.29688 0 0.17188 0.10938 0.3125 0.29688 0.3125 0.10938 0 0.3125-0.0625 0.3125-0.32812 0-0.20312-0.15625-0.54688-0.57812-0.54688-0.625 0-1.0938 0.39062-1.25 0.5625-0.35938-0.26562-0.78125-0.42188-1.2344-0.42188-1.0781 0-1.875 0.8125-1.875 1.7344 0 0.67188 0.40625 1.1094 0.53125 1.2188-0.14062 0.1875-0.35938 0.53125-0.35938 1 0 0.6875 0.42188 0.98438 0.51562 1.0469-0.54688 0.15625-1.0938 0.59375-1.0938 1.2031 0 0.82812 1.125 1.5156 2.5938 1.5156 1.4219 0 2.5938-0.64062 2.5938-1.5312 0-0.29688-0.078125-1-0.79688-1.375-0.60938-0.3125-1.2031-0.3125-2.2344-0.3125-0.73438 0-0.8125 0-1.0312-0.21875-0.10938-0.125-0.21875-0.35938-0.21875-0.60938 0-0.20312 0.0625-0.40625 0.1875-0.5625zm1.1875 0.10938c-1.0625 0-1.0625-1.2031-1.0625-1.4844 0-0.20312 0-0.70312 0.20312-1.0156 0.23438-0.35938 0.59375-0.46875 0.84375-0.46875 1.0469 0 1.0469 1.2031 1.0469 1.4844 0 0.20312 0 0.70312-0.20312 1.0156-0.21875 0.35938-0.57812 0.46875-0.82812 0.46875zm0.3125 4.25c-1.1406 0-2.0156-0.59375-2.0156-1.2656 0-0.09375 0.03125-0.5625 0.48438-0.875 0.26562-0.17188 0.35938-0.17188 1.2031-0.17188 0.98438 0 2.3438 0 2.3438 1.0469 0 0.70312-0.90625 1.2656-2.0156 1.2656z"/>
</g>
<g id="a">
<path d="m4.5781-2.7656c0.26562 0 0.28125 0 0.28125-0.23438 0-1.2031-0.64062-2.3281-2.0938-2.3281-1.3594 0-2.4062 1.2344-2.4062 2.7031 0 1.5781 1.2188 2.75 2.5469 2.75 1.4219 0 1.9531-1.2969 1.9531-1.5469 0-0.078125-0.046875-0.125-0.125-0.125-0.09375 0-0.125 0.0625-0.14062 0.125-0.3125 1-1.1094 1.2812-1.625 1.2812-0.5 0-1.7031-0.34375-1.7031-2.4062v-0.21875zm-3.2969-0.23438c0.09375-1.875 1.1406-2.0938 1.4844-2.0938 1.2812 0 1.3438 1.6875 1.3594 2.0938z"/>
</g>
<g id="c">
<path d="m2-2.7812c0-1.1562 0.46875-2.25 1.3906-2.25 0.09375 0 0.125 0 0.17188 0.015625-0.09375 0.046875-0.28125 0.10938-0.28125 0.4375 0 0.34375 0.26562 0.48438 0.45312 0.48438 0.25 0 0.48438-0.15625 0.48438-0.48438 0-0.35938-0.32812-0.6875-0.84375-0.6875-1.0156 0-1.3594 1.0938-1.4219 1.3281h-0.015625v-1.3281l-1.6094 0.125v0.34375c0.8125 0 0.92188 0.09375 0.92188 0.67188v3.2344c0 0.54688-0.14062 0.54688-0.92188 0.54688v0.34375c0.34375-0.03125 1-0.03125 1.3594-0.03125 0.32812 0 1.1719 0 1.4375 0.03125v-0.34375h-0.23438c-0.875 0-0.89062-0.14062-0.89062-0.5625z"/>
</g>
<g id="ab">
<path d="m3.2344-2.2656v-0.64062h-3.1094v0.64062z"/>
</g>
<g id="h">
<path d="m3.9219-5.0625c0-0.20312 0-0.26562-0.125-0.26562-0.09375 0-0.3125 0.26562-0.40625 0.375-0.35938-0.3125-0.73438-0.375-1.125-0.375-1.4375 0-1.875 0.78125-1.875 1.4375 0 0.14062 0 0.5625 0.45312 0.96875 0.39062 0.34375 0.79688 0.42188 1.3438 0.53125 0.65625 0.125 0.8125 0.17188 1.1094 0.40625 0.21875 0.17188 0.375 0.4375 0.375 0.78125 0 0.51562-0.29688 1.0781-1.3594 1.0781-0.78125 0-1.3594-0.45312-1.625-1.6406-0.046875-0.21875-0.046875-0.23438-0.046875-0.25-0.03125-0.046875-0.078125-0.046875-0.10938-0.046875-0.14062 0-0.14062 0.0625-0.14062 0.28125v1.625c0 0.21875 0 0.28125 0.125 0.28125 0.0625 0 0.0625-0.015625 0.26562-0.26562 0.0625-0.09375 0.0625-0.10938 0.25-0.29688 0.45312 0.5625 1.0938 0.5625 1.2969 0.5625 1.25 0 1.875-0.70312 1.875-1.6406 0-0.64062-0.39062-1.0312-0.5-1.1406-0.42188-0.375-0.75-0.4375-1.5469-0.57812-0.34375-0.078125-1.2188-0.25-1.2188-0.96875 0-0.35938 0.25-0.90625 1.3281-0.90625 1.2969 0 1.375 1.1094 1.3906 1.4688 0.015625 0.10938 0.09375 0.10938 0.14062 0.10938 0.125 0 0.125-0.0625 0.125-0.28125z"/>
</g>
<g id="e">
<path d="m2.0156-4.8125h1.6719v-0.34375h-1.6719v-2.1875h-0.26562c-0.015625 1.1094-0.45312 2.2656-1.5312 2.2969v0.23438h1.0156v3.3281c0 1.3281 0.875 1.6094 1.5156 1.6094 0.75 0 1.1406-0.75 1.1406-1.6094v-0.67188h-0.25v0.65625c0 0.85938-0.35938 1.3594-0.8125 1.3594-0.8125 0-0.8125-1.1094-0.8125-1.3125z"/>
</g>
<g id="g">
<path d="m5.4844-2.5625c0-1.5312-1.1719-2.7656-2.5625-2.7656-1.4219 0-2.5625 1.2656-2.5625 2.7656 0 1.5312 1.1875 2.6875 2.5625 2.6875 1.4062 0 2.5625-1.1719 2.5625-2.6875zm-2.5625 2.4219c-0.4375 0-0.96875-0.1875-1.3125-0.78125-0.32812-0.53125-0.34375-1.2344-0.34375-1.75 0-0.45312 0-1.1719 0.375-1.7188 0.32812-0.51562 0.85938-0.70312 1.2812-0.70312 0.45312 0 0.96875 0.21875 1.2812 0.6875 0.375 0.54688 0.375 1.2969 0.375 1.7344 0 0.42188 0 1.1719-0.3125 1.7344-0.32812 0.5625-0.89062 0.79688-1.3438 0.79688z"/>
</g>
<g id="ay">
<path d="m3.5625-5.0156c0.89062-0.23438 1.6406-0.875 1.6406-1.7188 0-0.89062-0.85938-1.6875-2-1.6875-0.95312 0-1.9531 0.60938-1.9531 1.7656v1.5h-0.92188v0.34375h0.92188v3.9219c0 0.54688-0.14062 0.54688-0.92188 0.54688v0.34375c0.32812-0.03125 0.6875-0.03125 1.0156-0.03125 0.20312 0 0.48438 0 0.65625 0.03125v-6.6562c0-1.4531 1.0312-1.5156 1.2031-1.5156 0.48438 0 1.1562 0.375 1.1562 1.4375 0 1.4531-1.3281 1.5625-1.6406 1.5781-0.078125 0.015625-0.078125 0.10938-0.078125 0.125 0 0.10938 0.0625 0.10938 0.14062 0.125 1.2812 0.10938 1.9062 1.4219 1.9062 2.8281 0 1.5781-0.8125 1.9531-1.25 1.9531-0.078125 0-0.42188 0-0.67188-0.23438 0.26562-0.046875 0.34375-0.23438 0.34375-0.375 0-0.26562-0.1875-0.40625-0.39062-0.40625s-0.39062 0.14062-0.39062 0.40625c0 0.45312 0.4375 0.85938 1.125 0.85938 1.0469 0 2.0625-0.89062 2.0625-2.2031s-0.76562-2.5312-1.9531-2.9375z"/>
</g>
<g id="aa">
<path d="m4.625-8.3125c-0.046875-0.15625-0.078125-0.21875-0.23438-0.21875-0.17188 0-0.1875 0.03125-0.25 0.21875l-2.5 7.1562c-0.17188 0.48438-0.5 0.79688-1.2656 0.8125v0.34375c0.71875-0.03125 0.75-0.03125 1.1406-0.03125 0.34375 0 0.90625 0 1.2188 0.03125v-0.34375c-0.5-0.015625-0.79688-0.26562-0.79688-0.59375 0-0.078125 0-0.10938 0.0625-0.25l0.54688-1.5938h3.0156l0.65625 1.875c0.0625 0.14062 0.0625 0.17188 0.0625 0.20312 0 0.35938-0.60938 0.35938-0.92188 0.35938v0.34375c0.28125-0.03125 1.2344-0.03125 1.5625-0.03125s1.1875 0 1.4688 0.03125v-0.34375c-0.78125 0-0.98438 0-1.1562-0.5zm-0.57812 1.2031 1.3906 3.9844h-2.7656z"/>
</g>
<g id="ax">
<path d="m7.2344-4.0156c0.26562-0.75 0.78125-0.78125 0.98438-0.79688v-0.34375c-0.29688 0.03125-0.51562 0.03125-0.875 0.03125-0.34375 0-0.375 0-1.0156-0.03125v0.34375c0.53125 0.03125 0.67188 0.35938 0.67188 0.57812 0 0.015625 0 0.09375-0.046875 0.21875l-1.0938 3.125-1.2031-3.375c-0.046875-0.14062-0.046875-0.17188-0.046875-0.20312 0-0.34375 0.4375-0.34375 0.6875-0.34375v-0.34375c-0.34375 0.03125-0.82812 0.03125-1.1719 0.03125-0.39062 0-0.40625 0-1.0781-0.03125v0.34375c0.45312 0 0.60938 0.03125 0.75 0.1875 0.046875 0.078125 0.20312 0.46875 0.28125 0.70312l-1.0156 2.9219-1.1562-3.25c-0.046875-0.15625-0.046875-0.1875-0.046875-0.23438 0-0.32812 0.45312-0.32812 0.6875-0.32812v-0.34375c-0.29688 0.03125-0.89062 0.03125-1.2188 0.03125-0.34375 0-0.35938 0-1.1094-0.03125v0.34375c0.60938 0 0.71875 0.0625 0.85938 0.4375l1.5 4.2812c0.046875 0.125 0.09375 0.21875 0.21875 0.21875 0.10938 0 0.17188-0.046875 0.23438-0.23438l1.1875-3.4062 1.2031 3.4062c0.046875 0.1875 0.10938 0.23438 0.21875 0.23438 0.125 0 0.17188-0.09375 0.21875-0.21875z"/>
</g>
<g id="q">
<path d="m3.5781-8.1562v0.34375c0.82812 0 0.92188 0.078125 0.92188 0.67188v2.6406c-0.25-0.35938-0.76562-0.76562-1.5-0.76562-1.3906 0-2.5781 1.1719-2.5781 2.7031 0 1.5156 1.125 2.6875 2.4531 2.6875 0.90625 0 1.4219-0.60938 1.5938-0.82812v0.82812l1.6875-0.125v-0.34375c-0.8125 0-0.90625-0.09375-0.90625-0.67188v-7.2812zm0.89062 6.75c0 0.21875 0 0.26562-0.17188 0.51562-0.28125 0.42188-0.76562 0.76562-1.375 0.76562-0.29688 0-1.5938-0.10938-1.5938-2.4375 0-0.85938 0.14062-1.3281 0.40625-1.7344 0.23438-0.35938 0.71875-0.73438 1.3125-0.73438 0.75 0 1.1562 0.53125 1.2812 0.73438 0.14062 0.20312 0.14062 0.21875 0.14062 0.4375z"/>
</g>
<g id="f">
<path d="m3.6406-5.1406v0.34375c0.8125 0 0.90625 0.09375 0.90625 0.67188v2.1406c0 1.0156-0.54688 1.8594-1.4375 1.8594-0.98438 0-1.0469-0.5625-1.0469-1.1875v-3.9531l-1.6875 0.125v0.34375c0.92188 0 0.92188 0.046875 0.92188 1.1094v1.7812c0 0.75 0 1.1719 0.35938 1.5781 0.28125 0.29688 0.76562 0.45312 1.375 0.45312 0.20312 0 0.59375 0 1-0.35938 0.34375-0.26562 0.53125-0.71875 0.53125-0.71875v1.0781l1.6719-0.125v-0.34375c-0.8125 0-0.92188-0.09375-0.92188-0.67188v-4.25z"/>
</g>
<g id="aw">
<path d="m8.4531-4.0469c0-2.4844-1.8125-4.375-3.9062-4.375-2.125 0-3.9062 1.9219-3.9062 4.375 0 2.4219 1.8125 4.2969 3.9062 4.2969 2.1406 0 3.9062-1.9062 3.9062-4.2969zm-3.9062 4.0156c-1.2188 0-2.7969-1.1406-2.7969-4.2031 0-2.9219 1.6719-3.9219 2.7969-3.9219 1.1719 0 2.7969 1.0312 2.7969 3.9219 0 3.1094-1.625 4.2031-2.7969 4.2031z"/>
</g>
<g id="l">
<path d="m2.0781-7.3594c0-0.3125-0.25-0.59375-0.57812-0.59375-0.3125 0-0.57812 0.25-0.57812 0.57812 0 0.35938 0.28125 0.57812 0.57812 0.57812 0.35938 0 0.57812-0.29688 0.57812-0.5625zm-1.6406 2.2188v0.34375c0.75 0 0.85938 0.078125 0.85938 0.65625v3.25c0 0.54688-0.125 0.54688-0.90625 0.54688v0.34375c0.34375-0.03125 0.90625-0.03125 1.2656-0.03125 0.125 0 0.8125 0 1.2188 0.03125v-0.34375c-0.76562 0-0.8125-0.0625-0.8125-0.53125v-4.3906z"/>
</g>
<g id="av">
<path d="m6.3906-7.75c0.09375-0.15625 0.09375-0.15625 0.09375-0.25 0-0.15625-0.046875-0.15625-0.28125-0.15625h-5.2656l-0.125 2.6562h0.26562c0.078125-1.3438 0.45312-2.3125 2.3906-2.3125h1.9062l-4.7344 7.5312c0 0.26562 0.015625 0.28125 0.29688 0.28125h5.4219l0.1875-3.1562h-0.26562c-0.078125 1.6875-0.32812 2.7812-2.5 2.7812h-2.0312z"/>
</g>
<g id="z">
<path d="m7.8125-8.1094h-7.1719l-0.21875 2.6719h0.26562c0.15625-1.8906 0.26562-2.3125 2.1562-2.3125 0.21875 0 0.54688 0 0.64062 0.015625 0.25 0.03125 0.25 0.1875 0.25 0.45312v6.3594c0 0.40625 0 0.57812-1.1719 0.57812h-0.42188v0.34375c0.375-0.03125 1.6094-0.03125 2.0781-0.03125s1.7031 0 2.0938 0.03125v-0.34375h-0.4375c-1.1719 0-1.1719-0.17188-1.1719-0.57812v-6.3594c0-0.29688 0.03125-0.40625 0.21875-0.45312 0.09375-0.015625 0.4375-0.015625 0.67188-0.015625 1.8906 0 2 0.42188 2.1562 2.3125h0.26562z"/>
</g>
<g id="y">
<path d="m7.7969-8.1406c0-0.21875 0-0.28125-0.125-0.28125-0.0625 0-0.078125 0.03125-0.15625 0.15625l-0.57812 0.9375c-0.54688-0.67188-1.3594-1.0938-2.2188-1.0938-2.1875 0-4.0781 1.8906-4.0781 4.3281 0 2.4844 1.9219 4.3438 4.0781 4.3438 1.9688 0 3.0781-1.7031 3.0781-3.0156 0-0.14062 0-0.20312-0.14062-0.20312-0.10938 0-0.125 0.046875-0.125 0.14062-0.10938 1.8906-1.5 2.7344-2.6562 2.7344-0.82812 0-3.125-0.5-3.125-4 0-3.4531 2.25-3.9688 3.1094-3.9688 1.2656 0 2.3594 1.0625 2.5938 2.8438 0.03125 0.15625 0.03125 0.1875 0.17188 0.1875 0.17188 0 0.17188-0.03125 0.17188-0.28125z"/>
</g>
<g id="x">
<path d="m7.1406-7.25c0-0.45312 0.03125-0.5625 0.89062-0.5625h0.23438v-0.34375c-0.28125 0.015625-1.2656 0.015625-1.6094 0.015625-0.35938 0-1.3438 0-1.625-0.015625v0.34375h0.23438c0.85938 0 0.90625 0.10938 0.90625 0.5625v2.8281h-3.5781v-2.8281c0-0.45312 0.03125-0.5625 0.89062-0.5625h0.25v-0.34375c-0.29688 0.015625-1.2656 0.015625-1.625 0.015625s-1.3281 0-1.625-0.015625v0.34375h0.25c0.85938 0 0.89062 0.10938 0.89062 0.5625v6.3438c0 0.4375-0.03125 0.5625-0.89062 0.5625h-0.25v0.34375c0.29688-0.03125 1.2656-0.03125 1.625-0.03125s1.3281 0 1.625 0.03125v-0.34375h-0.25c-0.85938 0-0.89062-0.125-0.89062-0.5625v-3.1719h3.5781v3.1719c0 0.4375-0.046875 0.5625-0.90625 0.5625h-0.23438v0.34375c0.28125-0.03125 1.2656-0.03125 1.6094-0.03125 0.35938 0 1.3438 0 1.625 0.03125v-0.34375h-0.23438c-0.85938 0-0.89062-0.125-0.89062-0.5625z"/>
</g>
<g id="au">
<path d="m5.25-5.2656h-0.23438l-0.45312 1.1094c-0.21875-0.45312-0.67188-1.1094-1.5938-1.1094-1.3125 0-2.5469 1.125-2.5469 2.7031 0 1.5156 1.1406 2.6875 2.4531 2.6875 0.64062 0 1.1719-0.29688 1.5938-0.90625v2.2188c0 0.53125-0.125 0.53125-0.90625 0.53125v0.34375c0.3125-0.015625 0.95312-0.015625 1.2969-0.015625s0.98438 0 1.2969 0.015625v-0.34375c-0.76562 0-0.90625 0-0.90625-0.53125zm-0.75 3.6562c0 0.39062-0.21875 0.73438-0.5 1.0156-0.42188 0.4375-0.875 0.46875-1.0625 0.46875-0.90625 0-1.6094-1.125-1.6094-2.4375 0-1.4375 0.82812-2.4531 1.7188-2.4531 0.95312 0 1.4531 1.0312 1.4531 1.6562z"/>
</g>
<g id="at">
<path d="m4.5469-4.8125c0.10938-0.14062 0.10938-0.15625 0.10938-0.20312 0-0.14062-0.078125-0.14062-0.28125-0.14062h-3.75l-0.14062 1.9062h0.26562c0.078125-1.2188 0.29688-1.6562 1.6094-1.6562h1.375l-3.4062 4.6875c0 0.21875 0.015625 0.21875 0.28125 0.21875h3.8906l0.20312-2.2031h-0.26562c-0.10938 1.3594-0.3125 1.9375-1.7344 1.9375h-1.4531z"/>
</g>
<g id="p">
<path d="m0.51562-8.1562v0.34375h0.23438c0.85938 0 0.90625 0.10938 0.90625 0.5625v6.3438c0 0.4375-0.046875 0.5625-0.90625 0.5625h-0.23438v0.34375h4.5c1.5312 0 2.6094-1.0469 2.6094-2.1875 0-0.96875-0.875-1.9219-2.2969-2.0781 1.1406-0.21875 1.9688-0.98438 1.9688-1.875 0-1.0312-1.0469-2.0156-2.6094-2.0156zm2.0469 3.7969v-2.9844c0-0.39062 0.015625-0.46875 0.54688-0.46875h1.5c1.2031 0 1.625 1.0156 1.625 1.6719 0 0.78125-0.60938 1.7812-1.9375 1.7812zm0.54688 4.0156c-0.53125 0-0.54688-0.09375-0.54688-0.48438v-3.2969h2.2344c1.1406 0 1.7344 1 1.7344 1.9219 0 0.96875-0.71875 1.8594-1.8906 1.8594z"/>
</g>
<g id="as">
<path d="m6.8125-2.75c0 1.6719-1.1406 2.6562-2.2656 2.6562-0.70312 0-1.9531-0.48438-1.9531-2.5781v-4.5781c0-0.45312 0.03125-0.5625 0.89062-0.5625h0.25v-0.34375c-0.29688 0.015625-1.2656 0.015625-1.625 0.015625s-1.3281 0-1.625-0.015625v0.34375h0.25c0.85938 0 0.89062 0.10938 0.89062 0.5625v4.5156c0 1.7344 1.3906 2.9844 2.9062 2.9844 1.6562 0 2.6094-1.625 2.6094-2.8125v-4.5312c0-0.71875 0.92188-0.71875 1.125-0.71875v-0.34375c-0.3125 0.015625-0.95312 0.015625-1.2812 0.015625-0.34375 0-1 0-1.3125-0.015625v0.34375c1.1406 0 1.1406 0.5625 1.1406 0.875z"/>
</g>
<g id="w">
<path d="m5.0469-4.0625c1.1875-0.28125 2.0938-1.0312 2.0938-1.9531 0-1.1562-1.3438-2.1406-3.0625-2.1406h-3.5781v0.34375h0.23438c0.875 0 0.90625 0.10938 0.90625 0.5625v6.3438c0 0.4375-0.03125 0.5625-0.90625 0.5625h-0.23438v0.34375c0.28125-0.03125 1.25-0.03125 1.6094-0.03125 0.34375 0 1.3281 0 1.6094 0.03125v-0.34375h-0.23438c-0.85938 0-0.90625-0.125-0.90625-0.5625v-3.0625h1.3906c0.46875 0 0.90625 0.125 1.2344 0.46875 0.40625 0.45312 0.40625 0.70312 0.40625 1.5312 0 0.9375 0 1.25 0.51562 1.7656 0.1875 0.17188 0.6875 0.45312 1.3594 0.45312 0.9375 0 1.0938-1.0312 1.0938-1.2969 0-0.0625 0-0.17188-0.14062-0.17188-0.125 0-0.125 0.078125-0.125 0.1875-0.0625 0.71875-0.40625 1.0469-0.79688 1.0469-0.54688 0-0.67188-0.5625-0.76562-1.2031-0.015625-0.078125-0.078125-0.59375-0.10938-0.89062-0.09375-0.59375-0.14062-0.98438-0.5-1.3594-0.125-0.125-0.4375-0.45312-1.0938-0.625zm-1.125-0.14062h-1.3438v-3.1406c0-0.26562 0-0.40625 0.25-0.46875h0.70312c0.96875 0 2.5 0 2.5 1.7969 0 1.0469-0.5625 1.8125-2.1094 1.8125z"/>
</g>
<g id="ar">
<path d="m7.7812-2.3594c0-0.46875 0.046875-0.53125 0.8125-0.53125v-0.34375c-0.3125 0.015625-1.1406 0.015625-1.5 0.015625-0.375 0-1.4219 0-1.7344-0.015625v0.34375h0.35938c1.0625 0 1.0938 0.14062 1.0938 0.57812v0.76562c0 1.3594-1.5625 1.4531-1.875 1.4531-0.9375 0-3.1875-0.57812-3.1875-4 0-3.4531 2.2656-3.9688 3.1094-3.9688 1.0312 0 2.2812 0.75 2.5938 2.8594 0.015625 0.14062 0.015625 0.17188 0.15625 0.17188 0.17188 0 0.17188-0.03125 0.17188-0.28125v-2.8281c0-0.21875 0-0.28125-0.125-0.28125-0.0625 0-0.078125 0.03125-0.15625 0.15625l-0.57812 0.9375c-0.34375-0.42188-1.0781-1.0938-2.2188-1.0938-2.1562 0-4.0625 1.8906-4.0625 4.3281 0 2.4844 1.9062 4.3438 4.0781 4.3438 0.84375 0 1.8125-0.28125 2.2656-1.0312 0.21875 0.375 0.60938 0.76562 0.70312 0.76562s0.09375-0.0625 0.09375-0.26562z"/>
</g>
<g id="aq">
<path d="m4.6719-5.0156c0.1875-0.1875 0.64062-0.625 0.84375-0.8125 1.6406-1.625 1.9844-1.9688 2.9219-1.9844v-0.34375c-0.34375 0.015625-0.48438 0.015625-1.0312 0.015625-0.3125 0-1.0156 0-1.2812-0.015625v0.34375c0.25 0 0.46875 0.10938 0.46875 0.375 0 0.1875-0.09375 0.29688-0.35938 0.54688l-3.6406 3.5156v-3.8594c0-0.57812 0.125-0.57812 1.1406-0.57812v-0.34375c-0.29688 0.015625-1.2656 0.015625-1.625 0.015625s-1.3281 0-1.625-0.015625v0.34375c1.0156 0 1.1406 0 1.1406 0.57812v6.2969c0 0.59375-0.125 0.59375-1.1406 0.59375v0.34375c0.29688-0.03125 1.2656-0.03125 1.625-0.03125s1.3281 0 1.625 0.03125v-0.34375c-1.0156 0-1.1406 0-1.1406-0.59375v-2.0781l1.4219-1.375 2.2188 3.3125c0.046875 0.078125 0.09375 0.15625 0.10938 0.21875 0.03125 0.046875 0.046875 0.10938 0.046875 0.17188 0 0.34375-0.4375 0.34375-0.625 0.34375v0.34375c0.28125-0.03125 1.1562-0.03125 1.5-0.03125 0.3125 0 0.90625 0 1.3281 0.03125v-0.34375c-0.64062 0-0.84375-0.0625-1.2344-0.64062z"/>
</g>
<g id="v">
<path d="m5.2656-2.0156h-0.26562c-0.046875 0.20312-0.14062 0.875-0.25 1.0625-0.09375 0.10938-0.76562 0.10938-1.125 0.10938h-2.2188c0.32812-0.28125 1.0625-1.0469 1.3594-1.3281 1.8281-1.6719 2.5-2.2969 2.5-3.4844 0-1.375-1.0938-2.2969-2.4844-2.2969-1.375 0-2.2031 1.1875-2.2031 2.2188 0 0.60938 0.53125 0.60938 0.5625 0.60938 0.26562 0 0.5625-0.1875 0.5625-0.5625 0-0.34375-0.21875-0.5625-0.5625-0.5625-0.09375 0-0.125 0-0.15625 0.015625 0.21875-0.8125 0.875-1.375 1.6406-1.375 1.0156 0 1.6406 0.85938 1.6406 1.9531 0 1.0156-0.57812 1.9062-1.2656 2.6719l-2.4219 2.7031v0.28125h4.375z"/>
</g>
<g id="t">
<path d="m4.8438-4c0.3125-0.79688 0.875-0.8125 1.1094-0.8125v-0.34375c-0.34375 0.03125-0.51562 0.03125-0.89062 0.03125-0.28125 0-0.3125 0-0.96875-0.03125v0.34375c0.4375 0.03125 0.54688 0.3125 0.54688 0.51562 0 0.10938-0.03125 0.17188-0.078125 0.29688l-1.2188 3.0156-1.3281-3.2656c-0.0625-0.15625-0.0625-0.23438-0.0625-0.25 0-0.3125 0.40625-0.3125 0.65625-0.3125v-0.34375c-0.3125 0.03125-0.90625 0.03125-1.2344 0.03125-0.45312 0-0.48438 0-1.1562-0.03125v0.34375c0.6875 0 0.78125 0.0625 0.9375 0.4375l1.7812 4.375c-0.51562 1.2656-0.51562 1.2969-0.57812 1.3906-0.20312 0.35938-0.51562 0.8125-1.0625 0.8125-0.35938 0-0.59375-0.21875-0.59375-0.21875s0.42188-0.046875 0.42188-0.46875c0-0.28125-0.23438-0.4375-0.4375-0.4375s-0.45312 0.10938-0.45312 0.46875c0 0.45312 0.4375 0.89062 1.0625 0.89062 0.67188 0 1.1719-0.57812 1.4688-1.3438z"/>
</g>
<g id="ap">
<path d="m4.3281-4.4219c-0.14062 0-0.59375 0-0.59375 0.48438 0 0.29688 0.20312 0.5 0.5 0.5 0.26562 0 0.5-0.17188 0.5-0.51562 0-0.79688-0.84375-1.375-1.8125-1.375-1.3906 0-2.5 1.2344-2.5 2.75 0 1.5312 1.1406 2.7031 2.5 2.7031 1.5781 0 1.9375-1.4375 1.9375-1.5469s-0.09375-0.10938-0.125-0.10938c-0.10938 0-0.125 0.03125-0.15625 0.1875-0.26562 0.84375-0.90625 1.2031-1.5469 1.2031-0.73438 0-1.7031-0.64062-1.7031-2.4531 0-1.9844 1.0156-2.4688 1.6094-2.4688 0.45312 0 1.1094 0.17188 1.3906 0.64062z"/>
</g>
<g id="ao">
<path d="m0.5-8.1562v0.34375h0.23438c0.875 0 0.90625 0.10938 0.90625 0.5625v6.3438c0 0.4375-0.03125 0.5625-0.90625 0.5625h-0.23438v0.34375h4.1875c2 0 3.5938-1.7969 3.5938-4 0-2.3125-1.6094-4.1562-3.5938-4.1562zm2.625 7.8125c-0.51562 0-0.54688-0.09375-0.54688-0.48438v-6.5156c0-0.39062 0.03125-0.46875 0.54688-0.46875h1.2656c0.98438 0 1.7812 0.46875 2.2656 1.2656 0.54688 0.84375 0.54688 2.0469 0.54688 2.5312 0 0.67188-0.015625 1.7969-0.70312 2.6719-0.39062 0.5-1.1094 1-2.1094 1z"/>
</g>
<g id="al">
<path d="m6.1094-6.0312c0-0.35938 0.015625-0.46875 0.78125-0.46875h0.25v-0.3125c-0.35938 0.03125-1.0938 0.03125-1.4688 0.03125s-1.125 0-1.4688-0.03125v0.3125h0.23438c0.76562 0 0.78125 0.10938 0.78125 0.46875v2.3281h-2.9688v-2.3281c0-0.35938 0.015625-0.46875 0.78125-0.46875h0.23438v-0.3125c-0.34375 0.03125-1.0781 0.03125-1.4688 0.03125-0.375 0-1.125 0-1.4688-0.03125v0.3125h0.23438c0.76562 0 0.79688 0.10938 0.79688 0.46875v5.25c0 0.35938-0.03125 0.46875-0.79688 0.46875h-0.23438v0.3125c0.34375-0.03125 1.0938-0.03125 1.4688-0.03125s1.125 0 1.4688 0.03125v-0.3125h-0.23438c-0.76562 0-0.78125-0.10938-0.78125-0.46875v-2.6094h2.9688v2.6094c0 0.35938-0.015625 0.46875-0.78125 0.46875h-0.23438v0.3125c0.34375-0.03125 1.0781-0.03125 1.4531-0.03125 0.39062 0 1.125 0 1.4844 0.03125v-0.3125h-0.25c-0.76562 0-0.78125-0.10938-0.78125-0.46875z"/>
</g>
<g id="o">
<path d="m1.1094-2.5156c0.0625-1.4844 0.90625-1.7344 1.25-1.7344 1.0156 0 1.125 1.3438 1.125 1.7344zm0 0.21875h2.7812c0.21875 0 0.25 0 0.25-0.21875 0-0.98438-0.54688-1.9531-1.7812-1.9531-1.1562 0-2.0781 1.0312-2.0781 2.2812 0 1.3281 1.0469 2.2969 2.1875 2.2969 1.2188 0 1.6719-1.1094 1.6719-1.2969 0-0.09375-0.078125-0.125-0.14062-0.125-0.078125 0-0.10938 0.0625-0.125 0.14062-0.34375 1.0312-1.25 1.0312-1.3438 1.0312-0.5 0-0.89062-0.29688-1.125-0.67188-0.29688-0.46875-0.29688-1.125-0.29688-1.4844z"/>
</g>
<g id="r">
<path d="m3.3125-0.75c0.046875 0.39062 0.3125 0.8125 0.78125 0.8125 0.21875 0 0.82812-0.14062 0.82812-0.95312v-0.5625h-0.25v0.5625c0 0.57812-0.25 0.64062-0.35938 0.64062-0.32812 0-0.375-0.45312-0.375-0.5v-1.9844c0-0.42188 0-0.8125-0.35938-1.1875-0.39062-0.39062-0.89062-0.54688-1.3594-0.54688-0.82812 0-1.5156 0.46875-1.5156 1.125 0 0.29688 0.20312 0.46875 0.46875 0.46875 0.28125 0 0.45312-0.20312 0.45312-0.45312 0-0.125-0.046875-0.45312-0.51562-0.45312 0.28125-0.35938 0.76562-0.46875 1.0781-0.46875 0.5 0 1.0625 0.39062 1.0625 1.2812v0.35938c-0.51562 0.03125-1.2031 0.0625-1.8281 0.35938-0.75 0.34375-1 0.85938-1 1.2969 0 0.8125 0.96875 1.0625 1.5938 1.0625 0.65625 0 1.1094-0.40625 1.2969-0.85938zm-0.0625-1.6406v1c0 0.9375-0.71875 1.2812-1.1719 1.2812-0.48438 0-0.89062-0.34375-0.89062-0.84375 0-0.54688 0.42188-1.375 2.0625-1.4375z"/>
</g>
<g id="aj">
<path d="m3.7812-0.54688v0.65625l1.4688-0.10938v-0.3125c-0.6875 0-0.78125-0.0625-0.78125-0.5625v-6.0469l-1.4219 0.10938v0.3125c0.6875 0 0.76562 0.0625 0.76562 0.5625v2.1562c-0.28125-0.35938-0.71875-0.625-1.25-0.625-1.1719 0-2.2188 0.98438-2.2188 2.2656 0 1.2656 0.96875 2.25 2.1094 2.25 0.64062 0 1.0781-0.34375 1.3281-0.65625zm0-2.6719v2.0469c0 0.17188 0 0.1875-0.10938 0.35938-0.29688 0.48438-0.73438 0.70312-1.1719 0.70312-0.45312 0-0.8125-0.26562-1.0469-0.64062-0.25-0.40625-0.28125-0.96875-0.28125-1.3906 0-0.35938 0.015625-0.95312 0.29688-1.4062 0.21875-0.3125 0.59375-0.64062 1.1406-0.64062 0.34375 0 0.76562 0.15625 1.0625 0.59375 0.10938 0.17188 0.10938 0.1875 0.10938 0.375z"/>
</g>
<g id="ai">
<path d="m1.6719-3.3125v-1.0938l-1.3906 0.10938v0.3125c0.70312 0 0.78125 0.0625 0.78125 0.5625v2.6719c0 0.4375-0.10938 0.4375-0.78125 0.4375v0.3125c0.39062-0.015625 0.85938-0.03125 1.1406-0.03125 0.39062 0 0.85938 0 1.2656 0.03125v-0.3125h-0.21875c-0.73438 0-0.75-0.10938-0.75-0.46875v-1.5312c0-0.98438 0.42188-1.875 1.1719-1.875 0.0625 0 0.09375 0 0.10938 0.015625-0.03125 0-0.23438 0.125-0.23438 0.39062s0.21875 0.42188 0.4375 0.42188c0.17188 0 0.42188-0.125 0.42188-0.4375s-0.3125-0.60938-0.73438-0.60938c-0.73438 0-1.0938 0.67188-1.2188 1.0938z"/>
</g>
<g id="ah">
<path d="m2.75-1.8594v-0.57812h-2.6406v0.57812z"/>
</g>
<g id="ag">
<path d="m5.7969-2.5781h-0.25c-0.10938 1.0156-0.25 2.2656-2 2.2656h-0.8125c-0.46875 0-0.48438-0.0625-0.48438-0.39062v-5.3125c0-0.34375 0-0.48438 0.9375-0.48438h0.32812v-0.3125c-0.35938 0.03125-1.2656 0.03125-1.6719 0.03125-0.39062 0-1.1719 0-1.5156-0.03125v0.3125h0.23438c0.76562 0 0.79688 0.10938 0.79688 0.46875v5.25c0 0.35938-0.03125 0.46875-0.79688 0.46875h-0.23438v0.3125h5.1875z"/>
</g>
<g id="af">
<path d="m2.0312-6.1719c0-0.23438-0.20312-0.5-0.5-0.5-0.28125 0-0.5 0.21875-0.5 0.5s0.21875 0.5 0.5 0.5c0.29688 0 0.5-0.26562 0.5-0.5zm1.9219 0c0-0.28125-0.21875-0.5-0.5-0.5-0.29688 0-0.5 0.26562-0.5 0.5s0.20312 0.5 0.5 0.5c0.28125 0 0.5-0.21875 0.5-0.5z"/>
</g>
<g id="ae">
<path d="m1.0938-3.4219v2.6719c0 0.4375-0.10938 0.4375-0.78125 0.4375v0.3125c0.35938-0.015625 0.85938-0.03125 1.1406-0.03125 0.25 0 0.76562 0.015625 1.1094 0.03125v-0.3125c-0.67188 0-0.78125 0-0.78125-0.4375v-1.8438c0-1.0312 0.71875-1.5938 1.3438-1.5938 0.64062 0 0.75 0.53125 0.75 1.1094v2.3281c0 0.4375-0.10938 0.4375-0.78125 0.4375v0.3125c0.34375-0.015625 0.85938-0.03125 1.125-0.03125 0.25 0 0.78125 0.015625 1.1094 0.03125v-0.3125c-0.51562 0-0.76562 0-0.76562-0.29688v-1.9062c0-0.85938 0-1.1562-0.3125-1.5156-0.14062-0.17188-0.46875-0.375-1.0469-0.375-0.73438 0-1.2031 0.42188-1.4844 1.0469v-1.0469l-1.4062 0.10938v0.3125c0.70312 0 0.78125 0.0625 0.78125 0.5625z"/>
</g>
<g id="ak">
<path d="m2.2188-1.7188c-0.875 0-0.875-1-0.875-1.2188 0-0.26562 0.015625-0.59375 0.15625-0.84375 0.078125-0.10938 0.3125-0.39062 0.71875-0.39062 0.85938 0 0.85938 0.98438 0.85938 1.2188 0 0.26562 0 0.59375-0.15625 0.84375-0.078125 0.10938-0.3125 0.39062-0.70312 0.39062zm-1.1562 0.39062c0-0.03125 0-0.26562 0.15625-0.46875 0.39062 0.28125 0.8125 0.3125 1 0.3125 0.92188 0 1.6094-0.6875 1.6094-1.4531 0-0.375-0.15625-0.73438-0.40625-0.96875 0.35938-0.34375 0.71875-0.39062 0.89062-0.39062 0.03125 0 0.078125 0 0.10938 0.015625-0.10938 0.03125-0.17188 0.14062-0.17188 0.26562 0 0.17188 0.14062 0.28125 0.29688 0.28125 0.09375 0 0.28125-0.0625 0.28125-0.29688 0-0.17188-0.10938-0.48438-0.5-0.48438-0.20312 0-0.64062 0.0625-1.0625 0.46875-0.42188-0.32812-0.82812-0.35938-1.0469-0.35938-0.9375 0-1.625 0.6875-1.625 1.4531 0 0.4375 0.21875 0.8125 0.46875 1.0312-0.125 0.14062-0.3125 0.46875-0.3125 0.82812 0 0.3125 0.14062 0.6875 0.45312 0.89062-0.60938 0.15625-0.92188 0.59375-0.92188 0.98438 0 0.71875 0.98438 1.2656 2.2031 1.2656 1.1719 0 2.2031-0.5 2.2031-1.2812 0-0.34375-0.125-0.85938-0.64062-1.1406-0.53125-0.26562-1.1094-0.26562-1.7188-0.26562-0.25 0-0.67188 0-0.75-0.015625-0.3125-0.046875-0.51562-0.34375-0.51562-0.67188zm1.4375 3.1562c-1.0156 0-1.7031-0.51562-1.7031-1.0469 0-0.45312 0.375-0.82812 0.8125-0.84375h0.59375c0.85938 0 1.9688 0 1.9688 0.84375 0 0.54688-0.70312 1.0469-1.6719 1.0469z"/>
</g>
<clipPath id="bm">
<path d="m326 21h2v44h-2z"/>
</clipPath>
<clipPath id="bl">
<path d="m0.52734 192.04h384v-193h-384zm326.18-170.7h0.44141l1.668 5.2617-1.8867-0.94531-1.8906 0.94531z" clip-rule="evenodd"/>
</clipPath>
<clipPath id="bh">
<path d="m0.52734 127h312.47v1h-312.47z"/>
</clipPath>
<clipPath id="bg">
<path d="m326 106h2v44h-2z"/>
</clipPath>
<clipPath id="bf">
<path d="m0.52734 192.04h384v-193h-384zm326.62-42.68h-0.44141l-1.668-5.2578 1.8906 0.94531 1.8867-0.94531z" clip-rule="evenodd"/>
</clipPath>
<clipPath id="be">
<path d="m0.52734 21h312.47v171h-312.47z"/>
</clipPath>
<clipPath id="bd">
<path d="m0.52734 149h312.47v1h-312.47z"/>
</clipPath>
<clipPath id="bc">
<path d="m0.52734 170h312.47v1h-312.47z"/>
</clipPath>
<clipPath id="bb">
<path d="m0.52734 7h1.4727v8h-1.4727z"/>
</clipPath>
<clipPath id="ba">
<path d="m0.52734 21h312.47v44h-312.47z"/>
</clipPath>
<clipPath id="bk">
<path d="m0.52734 42h312.47v44h-312.47z"/>
</clipPath>
<clipPath id="bj">
<path d="m0.52734 14h312.47v1h-312.47z"/>
</clipPath>
<clipPath id="bi">
<path d="m0.52734 42h312.47v1h-312.47z"/>
</clipPath>
</defs>
<path transform="matrix(.1 0 0 -.1 .528 192.04)" d="m1066.9 1066.9v-425.27" fill="none" stroke="#000" stroke-miterlimit="10" stroke-width="2.3625"/>
<path transform="matrix(.1 0 0 -.1 .528 192.04)" d="m3193.1 1704.7h141.76" fill="none" stroke="#000" stroke-miterlimit="10" stroke-width="2.3625"/>
<g clip-path="url(#bm)">
<g clip-path="url(#bl)">
<path transform="matrix(.1 0 0 -.1 .528 192.04)" d="m3264 1279.5v425.23" fill="none" stroke="#000" stroke-miterlimit="10" stroke-width="2.3625"/>
</g>
</g>
<path d="m328.82 26.609-1.8867-4.7266-1.8906 4.7266 1.8906-0.94531 1.8867 0.94531" fill-rule="evenodd"/>
<path transform="matrix(.1 0 0 -.1 .528 192.04)" d="m3282.9 1654.3-18.867 47.266-18.906-47.266 18.906 9.4531z" fill="none" stroke="#000" stroke-miterlimit="10" stroke-width="2.3625"/>
<g clip-path="url(#bh)">
<path transform="matrix(.1 0 0 -.1 .528 192.04)" d="m3.7434 641.61h3118.5" fill="none" stroke="#000" stroke-miterlimit="10" stroke-width="2.3625"/>
</g>
<path transform="matrix(.1 0 0 -.1 .528 192.04)" d="m1492.1 1066.9v-425.27" fill="none" stroke="#000" stroke-miterlimit="10" stroke-width="2.3625"/>
<path transform="matrix(.1 0 0 -.1 .528 192.04)" d="m1350.4 1066.9v-425.27" fill="none" stroke="#000" stroke-miterlimit="10" stroke-width="2.3625"/>
<path transform="matrix(.1 0 0 -.1 .528 192.04)" d="m1208.6 1066.9v-425.27" fill="none" stroke="#000" stroke-miterlimit="10" stroke-width="2.3625"/>
<path transform="matrix(.1 0 0 -.1 .528 192.04)" d="m925.11 1066.9v-425.27" fill="none" stroke="#000" stroke-miterlimit="10" stroke-width="2.3625"/>
<path transform="matrix(.1 0 0 -.1 .528 192.04)" d="m783.39 1066.9v-425.27" fill="none" stroke="#000" stroke-miterlimit="10" stroke-width="2.3625"/>
<path transform="matrix(.1 0 0 -.1 .528 192.04)" d="m641.63 1066.9v-425.27" fill="none" stroke="#000" stroke-miterlimit="10" stroke-width="2.3625"/>
<path transform="matrix(.1 0 0 -.1 .528 192.04)" d="m358.12 1066.9v-425.27" fill="none" stroke="#000" stroke-miterlimit="10" stroke-width="2.3625"/>
<g clip-path="url(#bg)">
<g clip-path="url(#bf)">
<path transform="matrix(.1 0 0 -.1 .528 192.04)" d="m3264 854.27v-425.27" fill="none" stroke="#000" stroke-miterlimit="10" stroke-width="2.3625"/>
</g>
</g>
<path d="m325.04 144.11 1.8906 4.7227 1.8867-4.7227-1.8867 0.94531-1.8906-0.94531" fill-rule="evenodd"/>
<path transform="matrix(.1 0 0 -.1 .528 192.04)" d="m3245.1 479.39 18.906-47.227 18.867 47.227-18.867-9.4531z" fill="none" stroke="#000" stroke-miterlimit="10" stroke-width="2.3625"/>
<g clip-path="url(#be)">
<path transform="matrix(.1 0 0 -.1 .528 192.04)" d="m3.7434 3.7603h3118.5v1701h-3118.5z" fill="none" stroke="#000" stroke-miterlimit="10" stroke-width="2.3625"/>
</g>
<g clip-path="url(#bd)">
<path transform="matrix(.1 0 0 -.1 .528 192.04)" d="m3.7434 428.99h3118.5" fill="none" stroke="#000" stroke-miterlimit="10" stroke-width="2.3625"/>
</g>
<g clip-path="url(#bc)">
<path transform="matrix(.1 0 0 -.1 .528 192.04)" d="m3.7434 216.38h3118.5" fill="none" stroke="#000" stroke-miterlimit="10" stroke-width="2.3625"/>
</g>
<path transform="matrix(.1 0 0 -.1 .528 192.04)" d="m358.12 641.61h283.52v425.27h-283.52z" fill="#7f7f7f" fill-rule="evenodd" stroke="#000" stroke-miterlimit="10" stroke-width="2.3625"/>
<path transform="matrix(.1 0 0 -.1 .528 192.04)" d="m3193.1 428.99h141.76" fill="none" stroke="#000" stroke-miterlimit="10" stroke-width="2.3625"/>
<g clip-path="url(#bb)">
<path transform="matrix(.1 0 0 -.1 .528 192.04)" d="m3.7434 1846.5v-70.859" fill="none" stroke="#000" stroke-miterlimit="10" stroke-width="2.3625"/>
</g>
<path transform="matrix(.1 0 0 -.1 .528 192.04)" d="m1492.1 1846.5v-70.859" fill="none" stroke="#000" stroke-miterlimit="10" stroke-width="2.3625"/>
<path transform="matrix(.1 0 0 -.1 .528 192.04)" d="m3122.3 1846.5v-70.859" fill="none" stroke="#000" stroke-miterlimit="10" stroke-width="2.3625"/>
<g clip-path="url(#ba)">
<path transform="matrix(.1 0 0 -.1 .528 192.04)" d="m3.7434 1279.5h3118.5v425.23h-3118.5z" fill="none" stroke="#000" stroke-miterlimit="10" stroke-width="2.3625"/>
</g>
<path transform="matrix(.1 0 0 -.1 .528 192.04)" d="m1492.1 1704.7v-212.62" fill="none" stroke="#000" stroke-miterlimit="10" stroke-width="2.3625"/>
<g clip-path="url(#bk)">
<path transform="matrix(.1 0 0 -.1 .528 192.04)" d="m3.7434 1066.9h3118.5v425.23h-3118.5z" fill="none" stroke="#000" stroke-miterlimit="10" stroke-width="2.3625"/>
</g>
<g clip-path="url(#bj)">
<path transform="matrix(.1 0 0 -.1 .528 192.04)" d="m3.7434 1775.6h3118.5" fill="none" stroke="#000" stroke-miterlimit="10" stroke-width="2.3625"/>
</g>
<path transform="matrix(.1 0 0 -.1 .528 192.04)" d="m1492.1 641.61v-212.62" fill="none" stroke="#000" stroke-miterlimit="10" stroke-width="2.3625"/>
<g clip-path="url(#bi)">
<path transform="matrix(.1 0 0 -.1 .528 192.04)" d="m3.7434 1492.1h3118.5" fill="none" stroke="#000" stroke-miterlimit="10" stroke-width="2.3625"/>
</g>
<g>
<use x="124.086" y="126.465" xlink:href="#ad"/>
<use x="124.086" y="112.291" xlink:href="#az"/>
<use x="125.222" y="98.117" xlink:href="#k"/>
<use x="138.827018" y="98.117" xlink:href="#u"/>
<use x="140.536" y="112.291" xlink:href="#an"/>
<use x="138.26" y="126.465" xlink:href="#ad"/>
<use x="96.143" y="98.117" xlink:href="#j"/>
<use x="158.468" y="109.456" xlink:href="#am"/>
<use x="166.432554" y="109.456" xlink:href="#d"/>
<use x="176.187997" y="109.456" xlink:href="#s"/>
<use x="182.691626" y="109.456" xlink:href="#ac"/>
<use x="186.268" y="109.927" xlink:href="#n"/>
<use x="186.268" y="109.456" xlink:href="#m"/>
<use x="192.121266" y="109.456" xlink:href="#b"/>
<use x="198.624895" y="109.456" xlink:href="#i"/>
<use x="204.478161" y="109.456" xlink:href="#a"/>
<use x="209.681064" y="109.456" xlink:href="#c"/>
<use x="214.233604" y="109.456" xlink:href="#ab"/>
<use x="218.135781" y="109.456" xlink:href="#u"/>
<use x="224.794828" y="109.456" xlink:href="#a"/>
<use x="229.997731" y="109.456" xlink:href="#b"/>
<use x="236.501359" y="109.456" xlink:href="#h"/>
<use x="241.118458" y="109.456" xlink:href="#e"/>
<use x="245.670998" y="109.456" xlink:href="#a"/>
<use x="250.873901" y="109.456" xlink:href="#c"/>
<use x="255.426441" y="109.456" xlink:href="#i"/>
<use x="261.279707" y="109.456" xlink:href="#c"/>
<use x="265.834" y="109.927" xlink:href="#n"/>
<use x="265.834" y="109.456" xlink:href="#g"/>
<use x="271.687266" y="109.456" xlink:href="#ay"/>
<use x="277.540532" y="109.456" xlink:href="#a"/>
<use x="103.043" y="184.579" xlink:href="#aa"/>
<use x="111.818117" y="184.579" xlink:href="#b"/>
<use x="117.998955" y="184.579" xlink:href="#ax"/>
<use x="126.130882" y="184.579" xlink:href="#a"/>
<use x="131.333785" y="184.579" xlink:href="#b"/>
<use x="137.837414" y="184.579" xlink:href="#q"/>
<use x="144.329088" y="184.579" xlink:href="#f"/>
<use x="150.832716" y="184.579" xlink:href="#b"/>
<use x="157.336345" y="184.579" xlink:href="#i"/>
<use x="163.189611" y="184.579" xlink:href="#h"/>
<use x="167.806709" y="184.579" xlink:href="#q"/>
<use x="174.310338" y="184.579" xlink:href="#m"/>
<use x="180.163604" y="184.579" xlink:href="#e"/>
<use x="184.716144" y="184.579" xlink:href="#a"/>
<use x="189.919047" y="184.579" xlink:href="#b"/>
<use x="42.562" y="142.057" xlink:href="#j"/>
<use x="50.526554" y="142.057" xlink:href="#c"/>
<use x="55.404" y="142.528" xlink:href="#n"/>
<use x="55.079" y="142.057" xlink:href="#f"/>
<use x="61.582629" y="142.057" xlink:href="#ac"/>
<use x="65.159625" y="142.057" xlink:href="#h"/>
<use x="69.776723" y="142.057" xlink:href="#f"/>
<use x="76.280352" y="142.057" xlink:href="#d"/>
<use x="86.035795" y="142.057" xlink:href="#d"/>
<use x="95.791238" y="142.057" xlink:href="#a"/>
<use x="125.998" y="164.735" xlink:href="#aw"/>
<use x="135.10308" y="164.735" xlink:href="#s"/>
<use x="141.606709" y="164.735" xlink:href="#e"/>
<use x="146.159249" y="164.735" xlink:href="#l"/>
<use x="149.411064" y="164.735" xlink:href="#g"/>
<use x="155.26433" y="164.735" xlink:href="#b"/>
<use x="161.767958" y="164.735" xlink:href="#a"/>
<use x="166.970861" y="164.735" xlink:href="#b"/>
<use x="206.415" y="142.057" xlink:href="#av"/>
<use x="213.568992" y="142.057" xlink:href="#a"/>
<use x="218.771895" y="142.057" xlink:href="#l"/>
<use x="222.023709" y="142.057" xlink:href="#i"/>
<use x="227.876975" y="142.057" xlink:href="#a"/>
<use x="233.079878" y="142.057" xlink:href="#c"/>
<use x="318.744" y="92.447" xlink:href="#z"/>
<use x="327.198717" y="92.447" xlink:href="#y"/>
<use x="335.653435" y="92.447" xlink:href="#j"/>
<use x="343.617989" y="92.447" xlink:href="#ab"/>
<use x="347.520166" y="92.447" xlink:href="#x"/>
<use x="356.295283" y="92.447" xlink:href="#a"/>
<use x="361.498186" y="92.447" xlink:href="#m"/>
<use x="367.351452" y="92.447" xlink:href="#q"/>
<use x="373.855081" y="92.447" xlink:href="#a"/>
<use x="379.057984" y="92.447" xlink:href="#c"/>
<use x="108.114" y="55.595" xlink:href="#k"/>
<use x="114.617629" y="55.595" xlink:href="#a"/>
<use x="119.820532" y="55.595" xlink:href="#au"/>
<use x="125.998979" y="55.595" xlink:href="#f"/>
<use x="132.502608" y="55.595" xlink:href="#a"/>
<use x="137.705511" y="55.595" xlink:href="#b"/>
<use x="144.20914" y="55.595" xlink:href="#at"/>
<use x="149.412043" y="55.595" xlink:href="#b"/>
<use x="155.592881" y="55.595" xlink:href="#f"/>
<use x="162.09651" y="55.595" xlink:href="#d"/>
<use x="171.851953" y="55.595" xlink:href="#d"/>
<use x="181.595441" y="55.595" xlink:href="#a"/>
<use x="186.798344" y="55.595" xlink:href="#c"/>
<use x="95.937" y="78.273" xlink:href="#p"/>
<use x="104.226736" y="78.273" xlink:href="#a"/>
<use x="109.429639" y="78.273" xlink:href="#h"/>
<use x="114.046737" y="78.273" xlink:href="#e"/>
<use x="118.599" y="78.744" xlink:href="#n"/>
<use x="118.599" y="78.273" xlink:href="#m"/>
<use x="124.452266" y="78.273" xlink:href="#e"/>
<use x="129.004806" y="78.273" xlink:href="#l"/>
<use x="132.25662" y="78.273" xlink:href="#i"/>
<use x="138.109886" y="78.273" xlink:href="#f"/>
<use x="144.613515" y="78.273" xlink:href="#b"/>
<use x="151.117144" y="78.273" xlink:href="#i"/>
<use x="156.97041" y="78.273" xlink:href="#h"/>
<use x="161.587508" y="78.273" xlink:href="#b"/>
<use x="167.768347" y="78.273" xlink:href="#f"/>
<use x="174.271975" y="78.273" xlink:href="#d"/>
<use x="184.027419" y="78.273" xlink:href="#d"/>
<use x="193.782862" y="78.273" xlink:href="#a"/>
<use x="198.985765" y="78.273" xlink:href="#c"/>
<use x="0.882" y="95.282" xlink:href="#al"/>
<use x="8.35395" y="95.282" xlink:href="#o"/>
<use x="12.781329" y="95.282" xlink:href="#r"/>
<use x="17.762629" y="95.282" xlink:href="#aj"/>
<use x="23.29785" y="95.282" xlink:href="#o"/>
<use x="27.725229" y="95.282" xlink:href="#ai"/>
<use x="31.62758" y="95.282" xlink:href="#ah"/>
<use x="4.839" y="108.039" xlink:href="#ag"/>
<use x="11.066" y="108.473" xlink:href="#af"/>
<use x="11.066" y="108.039" xlink:href="#r"/>
<use x="16.0473" y="108.039" xlink:href="#ae"/>
<use x="21.582521" y="108.039" xlink:href="#ak"/>
<use x="26.563821" y="108.039" xlink:href="#o"/>
<use x="67.389" y="98.117" xlink:href="#as"/>
<use x="67.47" y="112.291" xlink:href="#w"/>
<use x="67.185" y="126.465" xlink:href="#ar"/>
<use x="81.564" y="98.117" xlink:href="#aa"/>
<use x="81.724" y="112.291" xlink:href="#y"/>
<use x="81.401" y="126.465" xlink:href="#aq"/>
<use x="95.737676" y="126.465" xlink:href="#x"/>
<use x="96.874" y="112.291" xlink:href="#k"/>
<use x="109.992" y="98.117" xlink:href="#w"/>
<use x="111.048" y="112.291" xlink:href="#k"/>
<use x="110.072" y="126.465" xlink:href="#z"/>
<use x="205.034" y="8.82" xlink:href="#v"/>
<use x="214.784661" y="8.82" xlink:href="#p"/>
<use x="223.074397" y="8.82" xlink:href="#t"/>
<use x="229.252844" y="8.82" xlink:href="#e"/>
<use x="233.805384" y="8.82" xlink:href="#a"/>
<use x="54.790611" y="8.82" xlink:href="#v"/>
<use x="64.541272" y="8.82" xlink:href="#p"/>
<use x="72.831007" y="8.82" xlink:href="#t"/>
<use x="79.009455" y="8.82" xlink:href="#e"/>
<use x="83.561995" y="8.82" xlink:href="#a"/>
<use x="22.597" y="35.751" xlink:href="#k"/>
<use x="29.100629" y="35.751" xlink:href="#g"/>
<use x="34.953895" y="35.751" xlink:href="#f"/>
<use x="41.457524" y="35.751" xlink:href="#c"/>
<use x="46.010064" y="35.751" xlink:href="#ap"/>
<use x="51.212967" y="35.751" xlink:href="#a"/>
<use x="56.41587" y="35.751" xlink:href="#j"/>
<use x="64.057634" y="35.751" xlink:href="#g"/>
<use x="69.9109" y="35.751" xlink:href="#c"/>
<use x="74.46344" y="35.751" xlink:href="#e"/>
<use x="79.01598" y="35.751" xlink:href="#b"/>
<use x="85.184863" y="35.751" xlink:href="#f"/>
<use x="91.688492" y="35.751" xlink:href="#d"/>
<use x="101.443935" y="35.751" xlink:href="#d"/>
<use x="111.199378" y="35.751" xlink:href="#a"/>
<use x="116.402281" y="35.751" xlink:href="#c"/>
<use x="158.793029" y="35.751" xlink:href="#ao"/>
<use x="167.733128" y="35.751" xlink:href="#a"/>
<use x="172.936031" y="35.751" xlink:href="#h"/>
<use x="177.553129" y="35.751" xlink:href="#e"/>
<use x="182.105669" y="35.751" xlink:href="#l"/>
<use x="185.357484" y="35.751" xlink:href="#b"/>
<use x="191.861113" y="35.751" xlink:href="#m"/>
<use x="197.714379" y="35.751" xlink:href="#e"/>
<use x="202.266919" y="35.751" xlink:href="#l"/>
<use x="205.518733" y="35.751" xlink:href="#g"/>
<use x="211.371999" y="35.751" xlink:href="#b"/>
<use x="217.875628" y="35.751" xlink:href="#j"/>
<use x="225.517392" y="35.751" xlink:href="#g"/>
<use x="231.370658" y="35.751" xlink:href="#c"/>
<use x="235.923198" y="35.751" xlink:href="#e"/>
<use x="240.475738" y="35.751" xlink:href="#b"/>
<use x="246.644621" y="35.751" xlink:href="#f"/>
<use x="253.14825" y="35.751" xlink:href="#d"/>
<use x="262.903693" y="35.751" xlink:href="#d"/>
<use x="272.659136" y="35.751" xlink:href="#a"/>
<use x="277.862039" y="35.751" xlink:href="#c"/>
</g>
</svg>
