<svg width="386pt" height="103pt" version="1.1" viewBox="0 0 386 103" xmlns="http://www.w3.org/2000/svg" xmlns:xlink="http://www.w3.org/1999/xlink">
<defs>
<g id="u">
<path d="m6.8125-2.75c0 1.6719-1.1406 2.6562-2.2656 2.6562-0.70312 0-1.9531-0.48438-1.9531-2.5781v-4.5781c0-0.45312 0.03125-0.5625 0.89062-0.5625h0.25v-0.34375c-0.29688 0.015625-1.2656 0.015625-1.625 0.015625s-1.3281 0-1.625-0.015625v0.34375h0.25c0.85938 0 0.89062 0.10938 0.89062 0.5625v4.5156c0 1.7344 1.3906 2.9844 2.9062 2.9844 1.6562 0 2.6094-1.625 2.6094-2.8125v-4.5312c0-0.71875 0.92188-0.71875 1.125-0.71875v-0.34375c-0.3125 0.015625-0.95312 0.015625-1.2812 0.015625-0.34375 0-1 0-1.3125-0.015625v0.34375c1.1406 0 1.1406 0.5625 1.1406 0.875z"/>
</g>
<g id="l">
<path d="m0.5-8.1562v0.34375h0.23438c0.875 0 0.90625 0.10938 0.90625 0.5625v6.3438c0 0.4375-0.03125 0.5625-0.90625 0.5625h-0.23438v0.34375h4.1875c2 0 3.5938-1.7969 3.5938-4 0-2.3125-1.6094-4.1562-3.5938-4.1562zm2.625 7.8125c-0.51562 0-0.54688-0.09375-0.54688-0.48438v-6.5156c0-0.39062 0.03125-0.46875 0.54688-0.46875h1.2656c0.98438 0 1.7812 0.46875 2.2656 1.2656 0.54688 0.84375 0.54688 2.0469 0.54688 2.5312 0 0.67188-0.015625 1.7969-0.70312 2.6719-0.39062 0.5-1.1094 1-2.1094 1z"/>
</g>
<g id="g">
<path d="m2.6094-3.7969h2.0156c1.4062 0 2.6719-0.95312 2.6719-2.1562 0-1.1562-1.1562-2.2031-2.7656-2.2031h-4.0312v0.34375h0.23438c0.875 0 0.90625 0.10938 0.90625 0.5625v6.3438c0 0.4375-0.03125 0.5625-0.90625 0.5625h-0.23438v0.34375c0.28125-0.03125 1.2656-0.03125 1.6094-0.03125 0.35938 0 1.3438 0 1.625 0.03125v-0.34375h-0.23438c-0.85938 0-0.89062-0.125-0.89062-0.5625zm-0.03125-0.29688v-3.25c0-0.39062 0.03125-0.46875 0.54688-0.46875h1.125c1.9375 0 1.9375 1.3438 1.9375 1.8594 0 0.5 0 1.8594-1.9375 1.8594z"/>
</g>
<g id="k">
<path d="m3.2344-2.2656v-0.64062h-3.1094v0.64062z"/>
</g>
<g id="v">
<path d="m7.1406-7.25c0-0.45312 0.03125-0.5625 0.89062-0.5625h0.23438v-0.34375c-0.28125 0.015625-1.2656 0.015625-1.6094 0.015625-0.35938 0-1.3438 0-1.625-0.015625v0.34375h0.23438c0.85938 0 0.90625 0.10938 0.90625 0.5625v2.8281h-3.5781v-2.8281c0-0.45312 0.03125-0.5625 0.89062-0.5625h0.25v-0.34375c-0.29688 0.015625-1.2656 0.015625-1.625 0.015625s-1.3281 0-1.625-0.015625v0.34375h0.25c0.85938 0 0.89062 0.10938 0.89062 0.5625v6.3438c0 0.4375-0.03125 0.5625-0.89062 0.5625h-0.25v0.34375c0.29688-0.03125 1.2656-0.03125 1.625-0.03125s1.3281 0 1.625 0.03125v-0.34375h-0.25c-0.85938 0-0.89062-0.125-0.89062-0.5625v-3.1719h3.5781v3.1719c0 0.4375-0.046875 0.5625-0.90625 0.5625h-0.23438v0.34375c0.28125-0.03125 1.2656-0.03125 1.6094-0.03125 0.35938 0 1.3438 0 1.625 0.03125v-0.34375h-0.23438c-0.85938 0-0.89062-0.125-0.89062-0.5625z"/>
</g>
<g id="a">
<path d="m4.5781-2.7656c0.26562 0 0.28125 0 0.28125-0.23438 0-1.2031-0.64062-2.3281-2.0938-2.3281-1.3594 0-2.4062 1.2344-2.4062 2.7031 0 1.5781 1.2188 2.75 2.5469 2.75 1.4219 0 1.9531-1.2969 1.9531-1.5469 0-0.078125-0.046875-0.125-0.125-0.125-0.09375 0-0.125 0.0625-0.14062 0.125-0.3125 1-1.1094 1.2812-1.625 1.2812-0.5 0-1.7031-0.34375-1.7031-2.4062v-0.21875zm-3.2969-0.23438c0.09375-1.875 1.1406-2.0938 1.4844-2.0938 1.2812 0 1.3438 1.6875 1.3594 2.0938z"/>
</g>
<g id="h">
<path d="m4.6094-3.1875c0-0.65625 0-1.125-0.51562-1.5938-0.42188-0.375-0.96875-0.54688-1.4844-0.54688-0.98438 0-1.7344 0.64062-1.7344 1.4219 0 0.34375 0.21875 0.51562 0.5 0.51562s0.48438-0.20312 0.48438-0.5c0-0.48438-0.42188-0.48438-0.60938-0.48438 0.28125-0.5 0.85938-0.71875 1.3281-0.71875 0.54688 0 1.2656 0.45312 1.2656 1.5312v0.48438c-2.4062 0.03125-3.3125 1.0312-3.3125 1.9531 0 0.95312 1.0938 1.25 1.8281 1.25 0.78125 0 1.3281-0.48438 1.5469-1.0625 0.046875 0.5625 0.42188 1 0.9375 1 0.25 0 0.9375-0.17188 0.9375-1.125v-0.67188h-0.26562v0.67188c0 0.6875-0.28125 0.78125-0.45312 0.78125-0.45312 0-0.45312-0.64062-0.45312-0.8125zm-0.76562 1.5c0 1.1719-0.875 1.5625-1.3906 1.5625-0.59375 0-1.0781-0.42188-1.0781-1 0-1.5781 2.0312-1.7188 2.4688-1.75z"/>
</g>
<g id="j">
<path d="m3.5781-8.1562v0.34375c0.82812 0 0.92188 0.078125 0.92188 0.67188v2.6406c-0.25-0.35938-0.76562-0.76562-1.5-0.76562-1.3906 0-2.5781 1.1719-2.5781 2.7031 0 1.5156 1.125 2.6875 2.4531 2.6875 0.90625 0 1.4219-0.60938 1.5938-0.82812v0.82812l1.6875-0.125v-0.34375c-0.8125 0-0.90625-0.09375-0.90625-0.67188v-7.2812zm0.89062 6.75c0 0.21875 0 0.26562-0.17188 0.51562-0.28125 0.42188-0.76562 0.76562-1.375 0.76562-0.29688 0-1.5938-0.10938-1.5938-2.4375 0-0.85938 0.14062-1.3281 0.40625-1.7344 0.23438-0.35938 0.71875-0.73438 1.3125-0.73438 0.75 0 1.1562 0.53125 1.2812 0.73438 0.14062 0.20312 0.14062 0.21875 0.14062 0.4375z"/>
</g>
<g id="d">
<path d="m2-2.7812c0-1.1562 0.46875-2.25 1.3906-2.25 0.09375 0 0.125 0 0.17188 0.015625-0.09375 0.046875-0.28125 0.10938-0.28125 0.4375 0 0.34375 0.26562 0.48438 0.45312 0.48438 0.25 0 0.48438-0.15625 0.48438-0.48438 0-0.35938-0.32812-0.6875-0.84375-0.6875-1.0156 0-1.3594 1.0938-1.4219 1.3281h-0.015625v-1.3281l-1.6094 0.125v0.34375c0.8125 0 0.92188 0.09375 0.92188 0.67188v3.2344c0 0.54688-0.14062 0.54688-0.92188 0.54688v0.34375c0.34375-0.03125 1-0.03125 1.3594-0.03125 0.32812 0 1.1719 0 1.4375 0.03125v-0.34375h-0.23438c-0.875 0-0.89062-0.14062-0.89062-0.5625z"/>
</g>
<g id="aa">
<path d="m4.625-8.3125c-0.046875-0.15625-0.078125-0.21875-0.23438-0.21875-0.17188 0-0.1875 0.03125-0.25 0.21875l-2.5 7.1562c-0.17188 0.48438-0.5 0.79688-1.2656 0.8125v0.34375c0.71875-0.03125 0.75-0.03125 1.1406-0.03125 0.34375 0 0.90625 0 1.2188 0.03125v-0.34375c-0.5-0.015625-0.79688-0.26562-0.79688-0.59375 0-0.078125 0-0.10938 0.0625-0.25l0.54688-1.5938h3.0156l0.65625 1.875c0.0625 0.14062 0.0625 0.17188 0.0625 0.20312 0 0.35938-0.60938 0.35938-0.92188 0.35938v0.34375c0.28125-0.03125 1.2344-0.03125 1.5625-0.03125s1.1875 0 1.4688 0.03125v-0.34375c-0.78125 0-0.98438 0-1.1562-0.5zm-0.57812 1.2031 1.3906 3.9844h-2.7656z"/>
</g>
<g id="b">
<path d="m5.3125-2.9062c0-1.1094 0-1.4375-0.26562-1.8281-0.34375-0.46875-0.90625-0.53125-1.3125-0.53125-1.1719 0-1.625 0.98438-1.7188 1.2188v-1.2188l-1.6406 0.125v0.34375c0.8125 0 0.92188 0.09375 0.92188 0.67188v3.2344c0 0.54688-0.14062 0.54688-0.92188 0.54688v0.34375c0.3125-0.03125 0.96875-0.03125 1.2969-0.03125 0.34375 0 1 0 1.2969 0.03125v-0.34375c-0.75 0-0.90625 0-0.90625-0.54688v-2.2188c0-1.25 0.82812-1.9219 1.5781-1.9219 0.73438 0 0.90625 0.60938 0.90625 1.3438v2.7969c0 0.54688-0.14062 0.54688-0.90625 0.54688v0.34375c0.29688-0.03125 0.95312-0.03125 1.2812-0.03125 0.34375 0 1 0 1.3125 0.03125v-0.34375c-0.60938 0-0.90625 0-0.92188-0.35938z"/>
</g>
<g id="z">
<path d="m7.2344-4.0156c0.26562-0.75 0.78125-0.78125 0.98438-0.79688v-0.34375c-0.29688 0.03125-0.51562 0.03125-0.875 0.03125-0.34375 0-0.375 0-1.0156-0.03125v0.34375c0.53125 0.03125 0.67188 0.35938 0.67188 0.57812 0 0.015625 0 0.09375-0.046875 0.21875l-1.0938 3.125-1.2031-3.375c-0.046875-0.14062-0.046875-0.17188-0.046875-0.20312 0-0.34375 0.4375-0.34375 0.6875-0.34375v-0.34375c-0.34375 0.03125-0.82812 0.03125-1.1719 0.03125-0.39062 0-0.40625 0-1.0781-0.03125v0.34375c0.45312 0 0.60938 0.03125 0.75 0.1875 0.046875 0.078125 0.20312 0.46875 0.28125 0.70312l-1.0156 2.9219-1.1562-3.25c-0.046875-0.15625-0.046875-0.1875-0.046875-0.23438 0-0.32812 0.45312-0.32812 0.6875-0.32812v-0.34375c-0.29688 0.03125-0.89062 0.03125-1.2188 0.03125-0.34375 0-0.35938 0-1.1094-0.03125v0.34375c0.60938 0 0.71875 0.0625 0.85938 0.4375l1.5 4.2812c0.046875 0.125 0.09375 0.21875 0.21875 0.21875 0.10938 0 0.17188-0.046875 0.23438-0.23438l1.1875-3.4062 1.2031 3.4062c0.046875 0.1875 0.10938 0.23438 0.21875 0.23438 0.125 0 0.17188-0.09375 0.21875-0.21875z"/>
</g>
<g id="f">
<path d="m3.6406-5.1406v0.34375c0.8125 0 0.90625 0.09375 0.90625 0.67188v2.1406c0 1.0156-0.54688 1.8594-1.4375 1.8594-0.98438 0-1.0469-0.5625-1.0469-1.1875v-3.9531l-1.6875 0.125v0.34375c0.92188 0 0.92188 0.046875 0.92188 1.1094v1.7812c0 0.75 0 1.1719 0.35938 1.5781 0.28125 0.29688 0.76562 0.45312 1.375 0.45312 0.20312 0 0.59375 0 1-0.35938 0.34375-0.26562 0.53125-0.71875 0.53125-0.71875v1.0781l1.6719-0.125v-0.34375c-0.8125 0-0.92188-0.09375-0.92188-0.67188v-4.25z"/>
</g>
<g id="n">
<path d="m1.4219-2.1562c0.5625 0.35938 1.0469 0.35938 1.1719 0.35938 1.0781 0 1.875-0.8125 1.875-1.7344 0-0.3125-0.09375-0.76562-0.46875-1.1562 0.45312-0.46875 1.0156-0.46875 1.0781-0.46875 0.046875 0 0.10938 0 0.15625 0.015625-0.125 0.046875-0.17188 0.17188-0.17188 0.29688 0 0.17188 0.10938 0.3125 0.29688 0.3125 0.10938 0 0.3125-0.0625 0.3125-0.32812 0-0.20312-0.15625-0.54688-0.57812-0.54688-0.625 0-1.0938 0.39062-1.25 0.5625-0.35938-0.26562-0.78125-0.42188-1.2344-0.42188-1.0781 0-1.875 0.8125-1.875 1.7344 0 0.67188 0.40625 1.1094 0.53125 1.2188-0.14062 0.1875-0.35938 0.53125-0.35938 1 0 0.6875 0.42188 0.98438 0.51562 1.0469-0.54688 0.15625-1.0938 0.59375-1.0938 1.2031 0 0.82812 1.125 1.5156 2.5938 1.5156 1.4219 0 2.5938-0.64062 2.5938-1.5312 0-0.29688-0.078125-1-0.79688-1.375-0.60938-0.3125-1.2031-0.3125-2.2344-0.3125-0.73438 0-0.8125 0-1.0312-0.21875-0.10938-0.125-0.21875-0.35938-0.21875-0.60938 0-0.20312 0.0625-0.40625 0.1875-0.5625zm1.1875 0.10938c-1.0625 0-1.0625-1.2031-1.0625-1.4844 0-0.20312 0-0.70312 0.20312-1.0156 0.23438-0.35938 0.59375-0.46875 0.84375-0.46875 1.0469 0 1.0469 1.2031 1.0469 1.4844 0 0.20312 0 0.70312-0.20312 1.0156-0.21875 0.35938-0.57812 0.46875-0.82812 0.46875zm0.3125 4.25c-1.1406 0-2.0156-0.59375-2.0156-1.2656 0-0.09375 0.03125-0.5625 0.48438-0.875 0.26562-0.17188 0.35938-0.17188 1.2031-0.17188 0.98438 0 2.3438 0 2.3438 1.0469 0 0.70312-0.90625 1.2656-2.0156 1.2656z"/>
</g>
<g id="m">
<path d="m3.9219-5.0625c0-0.20312 0-0.26562-0.125-0.26562-0.09375 0-0.3125 0.26562-0.40625 0.375-0.35938-0.3125-0.73438-0.375-1.125-0.375-1.4375 0-1.875 0.78125-1.875 1.4375 0 0.14062 0 0.5625 0.45312 0.96875 0.39062 0.34375 0.79688 0.42188 1.3438 0.53125 0.65625 0.125 0.8125 0.17188 1.1094 0.40625 0.21875 0.17188 0.375 0.4375 0.375 0.78125 0 0.51562-0.29688 1.0781-1.3594 1.0781-0.78125 0-1.3594-0.45312-1.625-1.6406-0.046875-0.21875-0.046875-0.23438-0.046875-0.25-0.03125-0.046875-0.078125-0.046875-0.10938-0.046875-0.14062 0-0.14062 0.0625-0.14062 0.28125v1.625c0 0.21875 0 0.28125 0.125 0.28125 0.0625 0 0.0625-0.015625 0.26562-0.26562 0.0625-0.09375 0.0625-0.10938 0.25-0.29688 0.45312 0.5625 1.0938 0.5625 1.2969 0.5625 1.25 0 1.875-0.70312 1.875-1.6406 0-0.64062-0.39062-1.0312-0.5-1.1406-0.42188-0.375-0.75-0.4375-1.5469-0.57812-0.34375-0.078125-1.2188-0.25-1.2188-0.96875 0-0.35938 0.25-0.90625 1.3281-0.90625 1.2969 0 1.375 1.1094 1.3906 1.4688 0.015625 0.10938 0.09375 0.10938 0.14062 0.10938 0.125 0 0.125-0.0625 0.125-0.28125z"/>
</g>
<g id="c">
<path d="m2.0156-4.8125h1.6719v-0.34375h-1.6719v-2.1875h-0.26562c-0.015625 1.1094-0.45312 2.2656-1.5312 2.2969v0.23438h1.0156v3.3281c0 1.3281 0.875 1.6094 1.5156 1.6094 0.75 0 1.1406-0.75 1.1406-1.6094v-0.67188h-0.25v0.65625c0 0.85938-0.35938 1.3594-0.8125 1.3594-0.8125 0-0.8125-1.1094-0.8125-1.3125z"/>
</g>
<g id="t">
<path d="m2.4844-4.9844c-0.60938-0.15625-1.1406-0.75-1.1406-1.5156 0-0.84375 0.67188-1.5938 1.5938-1.5938 1.9688 0 2.2188 1.9375 2.2969 2.4531 0.03125 0.14062 0.03125 0.1875 0.14062 0.1875 0.14062 0 0.14062-0.0625 0.14062-0.26562v-2.4219c0-0.21875 0-0.28125-0.125-0.28125-0.03125 0-0.078125 0-0.17188 0.15625l-0.39062 0.73438c-0.57812-0.73438-1.3594-0.89062-1.8906-0.89062-1.3281 0-2.2969 1.0781-2.2969 2.2969 0 0.5625 0.20312 1.0938 0.65625 1.5781 0.40625 0.45312 0.82812 0.5625 1.6719 0.78125 0.42188 0.09375 1.0781 0.26562 1.25 0.32812 0.5625 0.28125 0.9375 0.92188 0.9375 1.5938 0 0.90625-0.64062 1.75-1.625 1.75-0.54688 0-1.2812-0.14062-1.875-0.64062-0.6875-0.625-0.73438-1.4844-0.75-1.8906-0.015625-0.09375-0.10938-0.09375-0.125-0.09375-0.14062 0-0.14062 0.0625-0.14062 0.28125v2.4062c0 0.21875 0 0.28125 0.125 0.28125 0.078125 0 0.078125-0.015625 0.17188-0.17188 0.046875-0.09375 0.29688-0.53125 0.39062-0.71875 0.42188 0.48438 1.1875 0.89062 2.2031 0.89062 1.3438 0 2.3125-1.1406 2.3125-2.4531 0-0.71875-0.28125-1.2656-0.59375-1.6562-0.4375-0.54688-0.98438-0.67188-1.4531-0.79688z"/>
</g>
<g id="e">
<path d="m8.5781-2.9062c0-1.1094 0-1.4375-0.28125-1.8281-0.34375-0.46875-0.90625-0.53125-1.3125-0.53125-1 0-1.5 0.71875-1.6875 1.1719-0.17188-0.92188-0.8125-1.1719-1.5625-1.1719-1.1719 0-1.625 0.98438-1.7188 1.2188v-1.2188l-1.6406 0.125v0.34375c0.8125 0 0.92188 0.09375 0.92188 0.67188v3.2344c0 0.54688-0.14062 0.54688-0.92188 0.54688v0.34375c0.3125-0.03125 0.96875-0.03125 1.2969-0.03125 0.34375 0 1 0 1.2969 0.03125v-0.34375c-0.75 0-0.90625 0-0.90625-0.54688v-2.2188c0-1.25 0.82812-1.9219 1.5781-1.9219 0.73438 0 0.90625 0.60938 0.90625 1.3438v2.7969c0 0.54688-0.14062 0.54688-0.90625 0.54688v0.34375c0.29688-0.03125 0.95312-0.03125 1.2812-0.03125 0.34375 0 1 0 1.3125 0.03125v-0.34375c-0.76562 0-0.92188 0-0.92188-0.54688v-2.2188c0-1.25 0.82812-1.9219 1.5781-1.9219 0.73438 0 0.90625 0.60938 0.90625 1.3438v2.7969c0 0.54688-0.14062 0.54688-0.90625 0.54688v0.34375c0.3125-0.03125 0.95312-0.03125 1.2812-0.03125 0.34375 0 1 0 1.3125 0.03125v-0.34375c-0.60938 0-0.90625 0-0.90625-0.35938z"/>
</g>
<g id="y">
<path d="m6.8125-3.0625h-0.26562c-0.10938 1.2031-0.26562 2.7188-2.3594 2.7188h-1.0469c-0.51562 0-0.54688-0.09375-0.54688-0.48438v-6.4219c0-0.42188 0.03125-0.5625 1.0625-0.5625h0.35938v-0.34375c-0.34375 0.015625-1.3906 0.015625-1.8125 0.015625-0.35938 0-1.4219 0-1.7188-0.015625v0.34375h0.25c0.85938 0 0.89062 0.10938 0.89062 0.5625v6.3438c0 0.4375-0.03125 0.5625-0.89062 0.5625h-0.25v0.34375h6.0156z"/>
</g>
<g id="s">
<path d="m2.3438-7.4062c0-0.29688-0.25-0.54688-0.54688-0.54688s-0.54688 0.21875-0.54688 0.54688c0 0.34375 0.25 0.5625 0.54688 0.5625s0.54688-0.25 0.54688-0.5625zm2.2656 0c0-0.32812-0.26562-0.54688-0.5625-0.54688s-0.54688 0.25-0.54688 0.54688c0 0.3125 0.25 0.5625 0.54688 0.5625s0.5625-0.21875 0.5625-0.5625z"/>
</g>
<g id="r">
<path d="m2.0781-7.3594c0-0.3125-0.25-0.59375-0.57812-0.59375-0.3125 0-0.57812 0.25-0.57812 0.57812 0 0.35938 0.28125 0.57812 0.57812 0.57812 0.35938 0 0.57812-0.29688 0.57812-0.5625zm-1.6406 2.2188v0.34375c0.75 0 0.85938 0.078125 0.85938 0.65625v3.25c0 0.54688-0.125 0.54688-0.90625 0.54688v0.34375c0.34375-0.03125 0.90625-0.03125 1.2656-0.03125 0.125 0 0.8125 0 1.2188 0.03125v-0.34375c-0.76562 0-0.8125-0.0625-0.8125-0.53125v-4.3906z"/>
</g>
<g id="i">
<path d="m5.4844-2.5625c0-1.5312-1.1719-2.7656-2.5625-2.7656-1.4219 0-2.5625 1.2656-2.5625 2.7656 0 1.5312 1.1875 2.6875 2.5625 2.6875 1.4062 0 2.5625-1.1719 2.5625-2.6875zm-2.5625 2.4219c-0.4375 0-0.96875-0.1875-1.3125-0.78125-0.32812-0.53125-0.34375-1.2344-0.34375-1.75 0-0.45312 0-1.1719 0.375-1.7188 0.32812-0.51562 0.85938-0.70312 1.2812-0.70312 0.45312 0 0.96875 0.21875 1.2812 0.6875 0.375 0.54688 0.375 1.2969 0.375 1.7344 0 0.42188 0 1.1719-0.3125 1.7344-0.32812 0.5625-0.89062 0.79688-1.3438 0.79688z"/>
</g>
<g id="x">
<path d="m2.0625-4.8125h1.3438v-0.34375h-1.375v-1.3906c0-1.0781 0.54688-1.625 1.0469-1.625 0.09375 0 0.26562 0.015625 0.40625 0.09375-0.046875 0.015625-0.34375 0.125-0.34375 0.46875 0 0.26562 0.1875 0.46875 0.46875 0.46875s0.48438-0.20312 0.48438-0.48438c0-0.4375-0.4375-0.79688-1.0156-0.79688-0.82812 0-1.7812 0.65625-1.7812 1.875v1.3906h-0.92188v0.34375h0.92188v3.9219c0 0.54688-0.125 0.54688-0.90625 0.54688v0.34375c0.34375-0.03125 1-0.03125 1.3594-0.03125 0.3125 0 1.1719 0 1.4375 0.03125v-0.34375h-0.23438c-0.875 0-0.89062-0.14062-0.89062-0.5625z"/>
</g>
<g id="q">
<path d="m5.2656-2.0156h-0.26562c-0.046875 0.20312-0.14062 0.875-0.25 1.0625-0.09375 0.10938-0.76562 0.10938-1.125 0.10938h-2.2188c0.32812-0.28125 1.0625-1.0469 1.3594-1.3281 1.8281-1.6719 2.5-2.2969 2.5-3.4844 0-1.375-1.0938-2.2969-2.4844-2.2969-1.375 0-2.2031 1.1875-2.2031 2.2188 0 0.60938 0.53125 0.60938 0.5625 0.60938 0.26562 0 0.5625-0.1875 0.5625-0.5625 0-0.34375-0.21875-0.5625-0.5625-0.5625-0.09375 0-0.125 0-0.15625 0.015625 0.21875-0.8125 0.875-1.375 1.6406-1.375 1.0156 0 1.6406 0.85938 1.6406 1.9531 0 1.0156-0.57812 1.9062-1.2656 2.6719l-2.4219 2.7031v0.28125h4.375z"/>
</g>
<g id="p">
<path d="m0.51562-8.1562v0.34375h0.23438c0.85938 0 0.90625 0.10938 0.90625 0.5625v6.3438c0 0.4375-0.046875 0.5625-0.90625 0.5625h-0.23438v0.34375h4.5c1.5312 0 2.6094-1.0469 2.6094-2.1875 0-0.96875-0.875-1.9219-2.2969-2.0781 1.1406-0.21875 1.9688-0.98438 1.9688-1.875 0-1.0312-1.0469-2.0156-2.6094-2.0156zm2.0469 3.7969v-2.9844c0-0.39062 0.015625-0.46875 0.54688-0.46875h1.5c1.2031 0 1.625 1.0156 1.625 1.6719 0 0.78125-0.60938 1.7812-1.9375 1.7812zm0.54688 4.0156c-0.53125 0-0.54688-0.09375-0.54688-0.48438v-3.2969h2.2344c1.1406 0 1.7344 1 1.7344 1.9219 0 0.96875-0.71875 1.8594-1.8906 1.8594z"/>
</g>
<g id="o">
<path d="m4.8438-4c0.3125-0.79688 0.875-0.8125 1.1094-0.8125v-0.34375c-0.34375 0.03125-0.51562 0.03125-0.89062 0.03125-0.28125 0-0.3125 0-0.96875-0.03125v0.34375c0.4375 0.03125 0.54688 0.3125 0.54688 0.51562 0 0.10938-0.03125 0.17188-0.078125 0.29688l-1.2188 3.0156-1.3281-3.2656c-0.0625-0.15625-0.0625-0.23438-0.0625-0.25 0-0.3125 0.40625-0.3125 0.65625-0.3125v-0.34375c-0.3125 0.03125-0.90625 0.03125-1.2344 0.03125-0.45312 0-0.48438 0-1.1562-0.03125v0.34375c0.6875 0 0.78125 0.0625 0.9375 0.4375l1.7812 4.375c-0.51562 1.2656-0.51562 1.2969-0.57812 1.3906-0.20312 0.35938-0.51562 0.8125-1.0625 0.8125-0.35938 0-0.59375-0.21875-0.59375-0.21875s0.42188-0.046875 0.42188-0.46875c0-0.28125-0.23438-0.4375-0.4375-0.4375s-0.45312 0.10938-0.45312 0.46875c0 0.45312 0.4375 0.89062 1.0625 0.89062 0.67188 0 1.1719-0.57812 1.4688-1.3438z"/>
</g>
<g id="w">
<path d="m4.3281-4.4219c-0.14062 0-0.59375 0-0.59375 0.48438 0 0.29688 0.20312 0.5 0.5 0.5 0.26562 0 0.5-0.17188 0.5-0.51562 0-0.79688-0.84375-1.375-1.8125-1.375-1.3906 0-2.5 1.2344-2.5 2.75 0 1.5312 1.1406 2.7031 2.5 2.7031 1.5781 0 1.9375-1.4375 1.9375-1.5469s-0.09375-0.10938-0.125-0.10938c-0.10938 0-0.125 0.03125-0.15625 0.1875-0.26562 0.84375-0.90625 1.2031-1.5469 1.2031-0.73438 0-1.7031-0.64062-1.7031-2.4531 0-1.9844 1.0156-2.4688 1.6094-2.4688 0.45312 0 1.1094 0.17188 1.3906 0.64062z"/>
</g>
<clipPath id="aj">
<path d="m0.52734 24h312.47v78.746h-312.47z"/>
</clipPath>
<clipPath id="ai">
<path d="m326 24h2v15h-2z"/>
</clipPath>
<clipPath id="ah">
<path d="m0.52734-1.2539v104h390v-104zm328.32 30.754v-5.5117h-3.7812v5.5117l1.8906-4.7266z" clip-rule="evenodd"/>
</clipPath>
<clipPath id="ag">
<path d="m326 52h2v16h-2z"/>
</clipPath>
<clipPath id="af">
<path d="m0.52734-1.2539v104h390v-104zm324.54 63.199v5.5117h3.7812v-5.5117l-1.8906 4.7227z" clip-rule="evenodd"/>
</clipPath>
<clipPath id="ae">
<path d="m0.52734 24h312.47v44h-312.47z"/>
</clipPath>
<clipPath id="ad">
<path d="m0.52734 45h312.47v1h-312.47z"/>
</clipPath>
<clipPath id="ac">
<path d="m0.52734 10h1.4727v8h-1.4727z"/>
</clipPath>
<clipPath id="ab">
<path d="m0.52734 14h312.47v1h-312.47z"/>
</clipPath>
</defs>
<g clip-path="url(#aj)">
<path transform="matrix(.1 0 0 -.1 .528 102.75)" d="m4.0169 3.2512h3118.5v779.61h-3118.5z" fill="none" stroke="#000" stroke-miterlimit="10" stroke-width="2.3625"/>
</g>
<path transform="matrix(.1 0 0 -.1 .528 102.75)" d="m3193.4 782.86h141.72" fill="none" stroke="#000" stroke-miterlimit="10" stroke-width="2.3625"/>
<path transform="matrix(.1 0 0 -.1 .528 102.75)" d="m3193.4 357.63h141.72" fill="none" stroke="#000" stroke-miterlimit="10" stroke-width="2.3625"/>
<g clip-path="url(#ai)">
<g clip-path="url(#ah)">
<path transform="matrix(.1 0 0 -.1 .528 102.75)" d="m3264.3 641.14v141.72" fill="none" stroke="#000" stroke-miterlimit="10" stroke-width="2.3625"/>
</g>
</g>
<path d="m328.84 29.5-1.8906-4.7266-1.8906 4.7266 1.8906-0.94531 1.8906 0.94531" fill-rule="evenodd"/>
<path transform="matrix(.1 0 0 -.1 .528 102.75)" d="m3283.2 732.47-18.906 47.266-18.906-47.266 18.906 9.4531z" fill="none" stroke="#000" stroke-miterlimit="10" stroke-width="2.3625"/>
<g clip-path="url(#ag)">
<g clip-path="url(#af)">
<path transform="matrix(.1 0 0 -.1 .528 102.75)" d="m3264.3 499.38v-141.76" fill="none" stroke="#000" stroke-miterlimit="10" stroke-width="2.3625"/>
</g>
</g>
<path d="m325.06 61.945 1.8906 4.7227 1.8906-4.7227-1.8906 0.94531-1.8906-0.94531" fill-rule="evenodd"/>
<path transform="matrix(.1 0 0 -.1 .528 102.75)" d="m3245.3 408.02 18.906-47.227 18.906 47.227-18.906-9.4531z" fill="none" stroke="#000" stroke-miterlimit="10" stroke-width="2.3625"/>
<g clip-path="url(#ae)">
<path transform="matrix(.1 0 0 -.1 .528 102.75)" d="m4.0169 357.63h3118.5v425.23h-3118.5z" fill="none" stroke="#000" stroke-miterlimit="10" stroke-width="2.3625"/>
</g>
<path transform="matrix(.1 0 0 -.1 .528 102.75)" d="m1492.4 782.86v-425.23" fill="none" stroke="#000" stroke-miterlimit="10" stroke-width="2.3625"/>
<g clip-path="url(#ad)">
<path transform="matrix(.1 0 0 -.1 .528 102.75)" d="m4.0169 570.24h3118.5" fill="none" stroke="#000" stroke-miterlimit="10" stroke-width="2.3625"/>
</g>
<g clip-path="url(#ac)">
<path transform="matrix(.1 0 0 -.1 .528 102.75)" d="m4.0169 924.62v-70.859" fill="none" stroke="#000" stroke-miterlimit="10" stroke-width="2.3625"/>
</g>
<path transform="matrix(.1 0 0 -.1 .528 102.75)" d="m1492.4 924.62v-70.859" fill="none" stroke="#000" stroke-miterlimit="10" stroke-width="2.3625"/>
<path transform="matrix(.1 0 0 -.1 .528 102.75)" d="m3122.5 924.62v-70.859" fill="none" stroke="#000" stroke-miterlimit="10" stroke-width="2.3625"/>
<g clip-path="url(#ab)">
<path transform="matrix(.1 0 0 -.1 .528 102.75)" d="m4.0169 882.12h3118.5" fill="none" stroke="#000" stroke-miterlimit="10" stroke-width="2.3625"/>
</g>
<g>
<use x="319.825" y="49.925" xlink:href="#u"/>
<use x="328.600117" y="49.925" xlink:href="#l"/>
<use x="337.540215" y="49.925" xlink:href="#g"/>
<use x="345.50477" y="49.925" xlink:href="#k"/>
<use x="349.406947" y="49.925" xlink:href="#v"/>
<use x="358.182064" y="49.925" xlink:href="#a"/>
<use x="363.384967" y="49.925" xlink:href="#h"/>
<use x="369.238233" y="49.925" xlink:href="#j"/>
<use x="375.741861" y="49.925" xlink:href="#a"/>
<use x="380.944764" y="49.925" xlink:href="#d"/>
<use x="103.043" y="88.195" xlink:href="#aa"/>
<use x="111.818117" y="88.195" xlink:href="#b"/>
<use x="117.998955" y="88.195" xlink:href="#z"/>
<use x="126.130882" y="88.195" xlink:href="#a"/>
<use x="131.333785" y="88.195" xlink:href="#b"/>
<use x="137.837414" y="88.195" xlink:href="#j"/>
<use x="144.341043" y="88.195" xlink:href="#f"/>
<use x="150.832716" y="88.195" xlink:href="#b"/>
<use x="157.336345" y="88.195" xlink:href="#n"/>
<use x="163.189611" y="88.195" xlink:href="#m"/>
<use x="167.806709" y="88.195" xlink:href="#j"/>
<use x="174.310338" y="88.195" xlink:href="#h"/>
<use x="180.163604" y="88.195" xlink:href="#c"/>
<use x="184.716144" y="88.195" xlink:href="#a"/>
<use x="189.919047" y="88.195" xlink:href="#b"/>
<use x="29.255" y="59.847" xlink:href="#t"/>
<use x="35.758629" y="59.847" xlink:href="#a"/>
<use x="40.961532" y="59.847" xlink:href="#n"/>
<use x="46.814798" y="59.847" xlink:href="#e"/>
<use x="56.570241" y="59.847" xlink:href="#a"/>
<use x="61.773144" y="59.847" xlink:href="#b"/>
<use x="67.953982" y="59.847" xlink:href="#c"/>
<use x="72.506523" y="59.847" xlink:href="#k"/>
<use x="76.4087" y="59.847" xlink:href="#y"/>
<use x="83.718" y="60.318" xlink:href="#s"/>
<use x="83.718" y="59.847" xlink:href="#h"/>
<use x="89.571266" y="59.847" xlink:href="#b"/>
<use x="96.074895" y="59.847" xlink:href="#n"/>
<use x="101.928161" y="59.847" xlink:href="#a"/>
<use x="178.083" y="38.586" xlink:href="#l"/>
<use x="187.023099" y="38.586" xlink:href="#a"/>
<use x="192.226002" y="38.586" xlink:href="#m"/>
<use x="196.8431" y="38.586" xlink:href="#c"/>
<use x="201.39564" y="38.586" xlink:href="#r"/>
<use x="204.647454" y="38.586" xlink:href="#b"/>
<use x="211.151083" y="38.586" xlink:href="#h"/>
<use x="217.004349" y="38.586" xlink:href="#c"/>
<use x="221.556889" y="38.586" xlink:href="#r"/>
<use x="224.808704" y="38.586" xlink:href="#i"/>
<use x="230.66197" y="38.586" xlink:href="#b"/>
<use x="237.165598" y="38.586" xlink:href="#g"/>
<use x="244.807362" y="38.586" xlink:href="#i"/>
<use x="250.660628" y="38.586" xlink:href="#d"/>
<use x="255.213168" y="38.586" xlink:href="#c"/>
<use x="259.765708" y="38.586" xlink:href="#b"/>
<use x="265.934592" y="38.586" xlink:href="#f"/>
<use x="272.43822" y="38.586" xlink:href="#e"/>
<use x="282.193664" y="38.586" xlink:href="#e"/>
<use x="291.949107" y="38.586" xlink:href="#a"/>
<use x="297.15201" y="38.586" xlink:href="#d"/>
<use x="178.083" y="59.847" xlink:href="#u"/>
<use x="186.858117" y="59.847" xlink:href="#l"/>
<use x="195.798215" y="59.847" xlink:href="#g"/>
<use x="203.76277" y="59.847" xlink:href="#k"/>
<use x="207.664947" y="59.847" xlink:href="#g"/>
<use x="215.629501" y="59.847" xlink:href="#d"/>
<use x="220.507" y="60.318" xlink:href="#s"/>
<use x="220.182" y="59.847" xlink:href="#f"/>
<use x="226.685629" y="59.847" xlink:href="#x"/>
<use x="230.262625" y="59.847" xlink:href="#m"/>
<use x="234.879723" y="59.847" xlink:href="#f"/>
<use x="241.383352" y="59.847" xlink:href="#e"/>
<use x="251.138795" y="59.847" xlink:href="#e"/>
<use x="260.894238" y="59.847" xlink:href="#a"/>
<use x="54.788" y="8.82" xlink:href="#q"/>
<use x="64.538661" y="8.82" xlink:href="#p"/>
<use x="72.828397" y="8.82" xlink:href="#o"/>
<use x="79.006844" y="8.82" xlink:href="#c"/>
<use x="83.559384" y="8.82" xlink:href="#a"/>
<use x="205.038563" y="8.82" xlink:href="#q"/>
<use x="214.789224" y="8.82" xlink:href="#p"/>
<use x="223.078959" y="8.82" xlink:href="#o"/>
<use x="229.257407" y="8.82" xlink:href="#c"/>
<use x="233.809947" y="8.82" xlink:href="#a"/>
<use x="29.255" y="38.586" xlink:href="#t"/>
<use x="35.758629" y="38.586" xlink:href="#i"/>
<use x="41.611895" y="38.586" xlink:href="#f"/>
<use x="48.115524" y="38.586" xlink:href="#d"/>
<use x="52.668064" y="38.586" xlink:href="#w"/>
<use x="57.870967" y="38.586" xlink:href="#a"/>
<use x="63.07387" y="38.586" xlink:href="#g"/>
<use x="70.715634" y="38.586" xlink:href="#i"/>
<use x="76.5689" y="38.586" xlink:href="#d"/>
<use x="81.12144" y="38.586" xlink:href="#c"/>
<use x="85.67398" y="38.586" xlink:href="#b"/>
<use x="91.842863" y="38.586" xlink:href="#f"/>
<use x="98.346492" y="38.586" xlink:href="#e"/>
<use x="108.101935" y="38.586" xlink:href="#e"/>
<use x="117.857378" y="38.586" xlink:href="#a"/>
<use x="123.060281" y="38.586" xlink:href="#d"/>
</g>
</svg>
