<svg width="400pt" height="299pt" version="1.1" viewBox="0 0 400 299" xmlns="http://www.w3.org/2000/svg" xmlns:xlink="http://www.w3.org/1999/xlink">
<defs>
<g id="aw">
<path d="m4.5938-4.1875c-0.0625-0.45312-0.125-0.6875-0.3125-1-0.34375-0.60938-0.95312-0.95312-1.6875-0.95312-1.4062 0-2.2969 1.2188-2.2969 3.1562 0 1.9219 0.85938 3.1406 2.2031 3.1406 0.54688 0 1.0625-0.20312 1.4219-0.59375 0.375-0.39062 0.5625-0.8125 0.71875-1.7656h-0.64062c-0.09375 0.51562-0.17188 0.76562-0.35938 1.0312-0.26562 0.40625-0.625 0.60938-1.0781 0.60938-1 0-1.5781-0.875-1.5781-2.3906 0-1.5469 0.60938-2.4531 1.625-2.4531 0.34375 0 0.65625 0.10938 0.89062 0.3125 0.23438 0.21875 0.34375 0.4375 0.45312 0.90625z"/>
</g>
<g id="k">
<path d="m1.9219-4.4844c-1 0-1.6875 0.92188-1.6875 2.3125 0 1.3438 0.6875 2.2812 1.6719 2.2812 0.96875 0 1.6562-0.9375 1.6562-2.2969 0-1.3438-0.6875-2.2969-1.6406-2.2969zm0 0.64062c0.60938 0 1.0156 0.65625 1.0156 1.6562 0 1.0156-0.40625 1.6562-1.0312 1.6562-0.64062 0-1.0469-0.64062-1.0469-1.6562s0.40625-1.6562 1.0625-1.6562z"/>
</g>
<g id="c">
<path d="m1-4.3594h-0.5625v4.3594h0.60938v-2.375c0-0.90625 0.375-1.4531 0.98438-1.4531 0.5 0 0.71875 0.34375 0.71875 1.1406v2.6875h0.60938v-2.9688c0-0.95312-0.4375-1.5156-1.2031-1.5156-0.5 0-0.84375 0.23438-1.1562 0.76562z"/>
</g>
<g id="d">
<path d="m2.875-1.3594c-0.0625 0.48438-0.45312 0.84375-0.9375 0.84375-0.35938 0-0.64062-0.15625-0.8125-0.45312-0.14062-0.25-0.1875-0.48438-0.20312-0.96875h2.5938c-0.015625-0.85938-0.09375-1.2656-0.29688-1.7031-0.28125-0.57812-0.67188-0.84375-1.25-0.84375-1.0312 0-1.6875 0.92188-1.6875 2.3906 0 1.375 0.625 2.2188 1.6406 2.2188 0.8125 0 1.3906-0.54688 1.5469-1.4844zm-1.9531-1.1719c0.03125-0.78125 0.4375-1.2969 1.0156-1.2969 0.3125 0 0.5625 0.14062 0.73438 0.40625 0.14062 0.23438 0.1875 0.45312 0.21875 0.89062z"/>
</g>
<g id="m">
<path d="m3.25-2.8906c-0.10938-1.0625-0.54688-1.5938-1.3438-1.5938-1.0469 0-1.7031 0.92188-1.7031 2.3906 0 1.3594 0.625 2.2188 1.6094 2.2188 0.8125 0 1.2969-0.5625 1.4375-1.6719h-0.57812c-0.125 0.6875-0.42188 1.0312-0.875 1.0312-0.60938 0-0.95312-0.57812-0.95312-1.6406s0.375-1.6719 1-1.6719c0.46875 0 0.73438 0.28125 0.82812 0.9375z"/>
</g>
<g id="g">
<path d="m1.75-3.75v-0.60938h-0.57812v-1.2188h-0.59375v1.2188h-0.48438v0.60938h0.48438v2.875c0 0.64062 0.21875 0.9375 0.70312 0.9375 0.046875 0 0.0625 0 0.20312-0.03125 0.046875 0 0.09375 0 0.26562-0.03125v-0.57812h-0.20312c-0.26562 0.015625-0.375-0.09375-0.375-0.34375v-2.8281z"/>
</g>
<g id="e">
<path d="m1.0625-4.3594h-0.60938v4.3594h0.60938zm0-0.78125v-0.84375h-0.60938v0.84375z"/>
</g>
<g id="t">
<path d="m2.2656-3.7031v-0.75c-0.0625-0.015625-0.09375-0.03125-0.15625-0.03125-0.42188 0-0.70312 0.25-1.0156 0.875v-0.75h-0.5625v4.3594h0.59375v-2.5469c0-0.67188 0.39062-1.1719 0.92188-1.1562z"/>
</g>
<g id="ah">
<path d="m3.375-4.3594h-0.5625v0.64062c-0.32812-0.5625-0.60938-0.76562-1.0938-0.76562-0.89062 0-1.4844 0.875-1.4844 2.2031 0 1.4531 0.625 2.4062 1.5625 2.4062 0.4375 0 0.73438-0.1875 0.96875-0.60938v2.2031h0.60938zm-1.5312 0.53125c0.625 0 0.95312 0.625 0.95312 1.7812 0 0.96875-0.35938 1.5312-0.98438 1.5312-0.59375 0-0.95312-0.64062-0.95312-1.7344 0-1.0625 0.32812-1.5781 0.98438-1.5781z"/>
</g>
<g id="bm">
<path d="m3.3438 0v-4.3594h-0.60938v2.4062c0 0.875-0.375 1.4375-0.98438 1.4375-0.45312 0-0.6875-0.32812-0.6875-0.95312v-2.8906h-0.59375v3.1406c0 0.84375 0.4375 1.3438 1.1719 1.3438 0.53125 0 0.8125-0.20312 1.125-0.79688v0.67188z"/>
</g>
<g id="h">
<path d="m3.0469-3.1094c-0.046875-0.875-0.53125-1.375-1.3438-1.375-0.82812 0-1.375 0.54688-1.375 1.375 0 0.5625 0.26562 0.90625 0.82812 1.0781l0.70312 0.20312c0.54688 0.17188 0.70312 0.29688 0.70312 0.625 0 0.42188-0.3125 0.6875-0.84375 0.6875-0.60938 0-0.875-0.26562-0.92188-0.89062h-0.57812c0.015625 0.4375 0.0625 0.64062 0.1875 0.875 0.23438 0.42188 0.6875 0.65625 1.2812 0.65625 0.90625 0 1.4844-0.5625 1.4844-1.4375 0-0.60938-0.28125-0.92188-1-1.1562l-0.60938-0.17188c-0.53125-0.17188-0.64062-0.28125-0.64062-0.57812 0-0.39062 0.26562-0.625 0.73438-0.625 0.53125 0 0.78125 0.23438 0.8125 0.73438z"/>
</g>
<g id="av">
<path d="m1.6094-6.1094c-0.84375 1.5469-1.1406 2.5625-1.1406 3.9219s0.25 2.2031 1.1719 3.9062h0.40625c-0.76562-1.8125-0.9375-2.5469-0.9375-3.8281 0-1.4844 0.1875-2.3281 0.92188-4z"/>
</g>
<g id="au">
<path d="m4.0938-4.2344c-0.03125-0.53125-0.09375-0.78125-0.25-1.0781-0.28125-0.53125-0.85938-0.82812-1.5938-0.82812-0.59375 0-1.0469 0.1875-1.3438 0.5625-0.25 0.32812-0.40625 0.78125-0.40625 1.2656 0 0.75 0.34375 1.2344 1.0469 1.4375l1 0.28125c0.8125 0.23438 1.0469 0.45312 1.0469 1.0312 0 0.65625-0.46875 1.0312-1.2656 1.0312-0.54688 0-0.95312-0.20312-1.1719-0.57812-0.14062-0.23438-0.1875-0.4375-0.20312-0.82812h-0.625c0.015625 0.64062 0.10938 1 0.35938 1.3438 0.375 0.53125 0.85938 0.75 1.6094 0.75 1.2031 0 1.9375-0.67188 1.9375-1.7969 0-0.84375-0.39062-1.4062-1.125-1.6094l-1.3906-0.39062c-0.40625-0.10938-0.57812-0.34375-0.57812-0.76562 0-0.65625 0.40625-1.0469 1.1094-1.0469 0.45312 0 0.82812 0.1875 1.0312 0.51562 0.10938 0.20312 0.17188 0.375 0.1875 0.70312z"/>
</g>
<g id="at">
<path d="m2.6094-2.4062 1.8438-3.5781h-0.76562l-1.4219 2.875-1.4062-2.875h-0.76562l1.8438 3.5781v2.4062h0.67188z"/>
</g>
<g id="as">
<path d="m3.7656-1.125-2.4688-4.8594h-0.78125v5.9844h0.64062v-4.8594l2.5156 4.8594h0.73438v-5.9844h-0.64062z"/>
</g>
<g id="ar">
<path d="m3.7188-1.7969v-0.60938h-3.4531v0.60938z"/>
</g>
<g id="aq">
<path d="m0.51562 0h2.1094c1 0 1.6562-0.70312 1.6562-1.7812 0-0.73438-0.23438-1.125-0.89062-1.4375 0.45312-0.29688 0.65625-0.67188 0.65625-1.25 0-0.90625-0.54688-1.5156-1.375-1.5156h-2.1562zm0.65625-5.2812h1.2031c0.6875 0 1 0.26562 1 0.89062 0 0.64062-0.3125 0.9375-1.0156 0.9375h-1.1875zm0 2.4844h1.2969c0.76562 0 1.1406 0.34375 1.1406 1.0156 0 0.6875-0.375 1.0938-1.0156 1.0938h-1.4219z"/>
</g>
<g id="p">
<path d="m3.7188-3.25h-3.4531v0.60938h3.4531zm0 1.6875h-3.4531v0.60938h3.4531z"/>
</g>
<g id="y">
<path d="m2.4531-5.8594h-0.46875c-0.1875 0.875-0.40625 1.0469-1.2969 1.125v0.57812h1.125v4.1562h0.64062z"/>
</g>
<g id="x">
<path d="m0.59375 0h0.35938c0 0.53125-0.125 0.8125-0.35938 0.84375v0.375c0.46875-0.09375 0.70312-0.53125 0.71875-1.2812v-0.82812h-0.71875z"/>
</g>
<g id="o">
<path d="m3.7969 1.0469v-0.42188h-3.7969v0.42188z"/>
</g>
<g id="ag">
<path d="m1.0625-5.9844h-0.60938v5.9844h0.60938z"/>
</g>
<g id="ap">
<path d="m0.65625 1.7188c0.84375-1.5469 1.1562-2.5625 1.1562-3.9219 0-1.3438-0.26562-2.1875-1.1719-3.9062h-0.40625c0.75 1.8438 0.9375 2.5625 0.9375 3.8438 0 1.4688-0.20312 2.3125-0.9375 3.9844z"/>
</g>
<g id="ao">
<path d="m1.75-2.4062h-1.4844v0.60938h1.4844v1.7969h0.5v-1.7969h1.4688v-0.60938h-1.4688v-1.7969h-0.5z"/>
</g>
<g id="af">
<path d="m0.96875-3.0312c0.09375-0.60938 0.32812-0.84375 0.84375-0.84375 0.54688 0 0.82812 0.25 0.82812 0.73438 0 0.3125-0.09375 0.45312-0.3125 0.5l-1 0.14062c-0.6875 0.10938-1.0781 0.59375-1.0781 1.3438 0 0.78125 0.45312 1.2812 1.1406 1.2812 0.51562 0 0.875-0.20312 1.2656-0.70312 0.046875 0.48438 0.20312 0.65625 0.60938 0.65625 0.09375 0 0.17188-0.015625 0.28125-0.046875 0.046875-0.015625 0.046875-0.015625 0.078125-0.03125v-0.53125c-0.15625 0.03125-0.15625 0.03125-0.20312 0.03125-0.125 0-0.20312-0.09375-0.20312-0.26562v-2.5c0-0.75-0.51562-1.2188-1.3594-1.2188-0.5625 0-0.98438 0.20312-1.2188 0.57812-0.14062 0.23438-0.1875 0.4375-0.21875 0.875zm1.6562 1.5312c0 0.54688-0.51562 1.0156-1.1094 1.0156-0.42188 0-0.64062-0.25-0.64062-0.73438 0-0.4375 0.21875-0.64062 0.75-0.73438 0.70312-0.10938 0.875-0.15625 1-0.26562z"/>
</g>
<g id="an">
<path d="m1.9688-2.7344 1.375-1.625h-0.76562l-1.5312 1.8438v-3.4688h-0.59375v5.9844h0.59375v-1.6562l0.5-0.54688 1.0938 2.2031h0.78125z"/>
</g>
<g id="bh">
<path d="m1.6875-0.78125-0.9375-3.5781h-0.6875l1.2969 4.3594h0.64062l1.3594-4.3594h-0.65625z"/>
</g>
<g id="bl">
<path d="m2.4531-3.4062 0.73438 3.4062h0.60938l1.0469-4.3594h-0.60938l-0.73438 3.4531-0.6875-3.4531h-0.6875l-0.6875 3.4531-0.6875-3.4531h-0.65625l1.0312 4.3594h0.60938z"/>
</g>
<g id="am">
<path d="m3.4062-5.9844h-0.59375v2.2812c-0.28125-0.54688-0.60938-0.78125-1.0938-0.78125-0.89062 0-1.4844 0.875-1.4844 2.2031 0 1.4688 0.625 2.4062 1.5781 2.4062 0.48438 0 0.76562-0.20312 1.0312-0.75v0.625h0.5625zm-1.5625 2.1562c0.60938 0 0.95312 0.625 0.95312 1.7656 0 0.5625-0.09375 0.95312-0.3125 1.2188-0.17188 0.20312-0.40625 0.32812-0.67188 0.32812-0.59375 0-0.95312-0.64062-0.95312-1.7188s0.32812-1.5938 0.98438-1.5938z"/>
</g>
<g id="bg">
<path d="m3.4062-4.3594h-0.5625v0.64062c-0.32812-0.5625-0.60938-0.76562-1.0938-0.76562-0.89062 0-1.4688 0.875-1.4688 2.2031 0 1.4531 0.60938 2.4062 1.5469 2.4062 0.45312 0 0.73438-0.1875 0.98438-0.60938v0.17188c0 0.53125-0.046875 0.8125-0.17188 1.0469-0.15625 0.32812-0.4375 0.48438-0.85938 0.48438-0.45312 0-0.6875-0.1875-0.79688-0.6875h-0.59375c0.078125 0.5625 0.20312 0.8125 0.48438 1.0312 0.23438 0.17188 0.53125 0.26562 0.875 0.26562 0.64062 0 1.0938-0.23438 1.3594-0.70312 0.21875-0.34375 0.29688-0.78125 0.29688-1.4844zm-1.5312 0.53125c0.60938 0 0.95312 0.625 0.95312 1.7656 0 0.5625-0.09375 0.95312-0.3125 1.2188-0.17188 0.20312-0.40625 0.32812-0.67188 0.32812-0.59375 0-0.9375-0.64062-0.9375-1.7188s0.3125-1.5938 0.96875-1.5938z"/>
</g>
<g id="bk">
<path d="m1.9219-5.8594c-1.0781 0-1.6719 1.0781-1.6719 3s0.59375 3.0156 1.6562 3.0156c1.0469 0 1.6406-1.0938 1.6406-3s-0.59375-3.0156-1.625-3.0156zm-0.015625 0.65625c0.65625 0 1 0.82812 1 2.3438 0 1.5469-0.34375 2.375-1 2.375-0.67188 0-1.0156-0.8125-1.0156-2.375 0-1.5469 0.34375-2.3438 1.0156-2.3438z"/>
</g>
<g id="bf">
<path d="m1.0625-0.75c0 0.4375-0.10938 0.4375-0.78125 0.4375v0.3125c0.32812-0.015625 0.79688-0.03125 1.0781-0.03125 0.3125 0 0.70312 0.015625 1.1094 0.03125v-0.3125c-0.67188 0-0.78125 0-0.78125-0.4375v-1.0312l0.64062-0.54688c0.76562 1.0469 1.1875 1.6094 1.1875 1.7969s-0.17188 0.21875-0.35938 0.21875v0.3125c0.26562-0.015625 0.85938-0.03125 1.0781-0.03125 0.28125 0 0.57812 0.015625 0.85938 0.03125v-0.3125c-0.375 0-0.59375 0-0.96875-0.53125l-1.2656-1.7812c-0.015625-0.015625-0.0625-0.078125-0.0625-0.10938s0.71875-0.64062 0.8125-0.71875c0.625-0.5 1.0469-0.53125 1.25-0.53125v-0.3125c-0.28125 0.03125-0.40625 0.03125-0.6875 0.03125-0.35938 0-0.98438-0.015625-1.125-0.03125v0.3125c0.1875 0 0.29688 0.10938 0.29688 0.25 0 0.20312-0.14062 0.3125-0.21875 0.39062l-1.4062 1.2031v-4.7812l-1.4375 0.10938v0.3125c0.70312 0 0.78125 0.0625 0.78125 0.5625z"/>
</g>
<g id="f">
<path d="m3.3125-0.75c0.046875 0.39062 0.3125 0.8125 0.78125 0.8125 0.21875 0 0.82812-0.14062 0.82812-0.95312v-0.5625h-0.25v0.5625c0 0.57812-0.25 0.64062-0.35938 0.64062-0.32812 0-0.375-0.45312-0.375-0.5v-1.9844c0-0.42188 0-0.8125-0.35938-1.1875-0.39062-0.39062-0.89062-0.54688-1.3594-0.54688-0.82812 0-1.5156 0.46875-1.5156 1.125 0 0.29688 0.20312 0.46875 0.46875 0.46875 0.28125 0 0.45312-0.20312 0.45312-0.45312 0-0.125-0.046875-0.45312-0.51562-0.45312 0.28125-0.35938 0.76562-0.46875 1.0781-0.46875 0.5 0 1.0625 0.39062 1.0625 1.2812v0.35938c-0.51562 0.03125-1.2031 0.0625-1.8281 0.35938-0.75 0.34375-1 0.85938-1 1.2969 0 0.8125 0.96875 1.0625 1.5938 1.0625 0.65625 0 1.1094-0.40625 1.2969-0.85938zm-0.0625-1.6406v1c0 0.9375-0.71875 1.2812-1.1719 1.2812-0.48438 0-0.89062-0.34375-0.89062-0.84375 0-0.54688 0.42188-1.375 2.0625-1.4375z"/>
</g>
<g id="b">
<path d="m1.0938-3.4219v2.6719c0 0.4375-0.10938 0.4375-0.78125 0.4375v0.3125c0.35938-0.015625 0.85938-0.03125 1.1406-0.03125 0.25 0 0.76562 0.015625 1.1094 0.03125v-0.3125c-0.67188 0-0.78125 0-0.78125-0.4375v-1.8438c0-1.0312 0.71875-1.5938 1.3438-1.5938 0.64062 0 0.75 0.53125 0.75 1.1094v2.3281c0 0.4375-0.10938 0.4375-0.78125 0.4375v0.3125c0.34375-0.015625 0.85938-0.03125 1.125-0.03125 0.25 0 0.78125 0.015625 1.1094 0.03125v-0.3125c-0.51562 0-0.76562 0-0.76562-0.29688v-1.9062c0-0.85938 0-1.1562-0.3125-1.5156-0.14062-0.17188-0.46875-0.375-1.0469-0.375-0.73438 0-1.2031 0.42188-1.4844 1.0469v-1.0469l-1.4062 0.10938v0.3125c0.70312 0 0.78125 0.0625 0.78125 0.5625z"/>
</g>
<g id="r">
<path d="m1.7188-3.7656v-3.1562l-1.4375 0.10938v0.3125c0.70312 0 0.78125 0.0625 0.78125 0.5625v5.9375h0.25c0-0.015625 0.078125-0.15625 0.35938-0.625 0.14062 0.23438 0.5625 0.73438 1.2969 0.73438 1.1875 0 2.2188-0.98438 2.2188-2.2656 0-1.2656-0.96875-2.25-2.1094-2.25-0.78125 0-1.2031 0.46875-1.3594 0.64062zm0.03125 2.625v-2.0469c0-0.1875 0-0.20312 0.10938-0.35938 0.39062-0.5625 0.9375-0.64062 1.1719-0.64062 0.45312 0 0.8125 0.26562 1.0469 0.64062 0.26562 0.40625 0.28125 0.96875 0.28125 1.3906 0 0.35938-0.015625 0.95312-0.29688 1.4062-0.21875 0.3125-0.59375 0.64062-1.125 0.64062-0.45312 0-0.8125-0.23438-1.0469-0.60938-0.14062-0.20312-0.14062-0.23438-0.14062-0.42188z"/>
</g>
<g id="a">
<path d="m1.1094-2.5156c0.0625-1.4844 0.90625-1.7344 1.25-1.7344 1.0156 0 1.125 1.3438 1.125 1.7344zm0 0.21875h2.7812c0.21875 0 0.25 0 0.25-0.21875 0-0.98438-0.54688-1.9531-1.7812-1.9531-1.1562 0-2.0781 1.0312-2.0781 2.2812 0 1.3281 1.0469 2.2969 2.1875 2.2969 1.2188 0 1.6719-1.1094 1.6719-1.2969 0-0.09375-0.078125-0.125-0.14062-0.125-0.078125 0-0.10938 0.0625-0.125 0.14062-0.34375 1.0312-1.25 1.0312-1.3438 1.0312-0.5 0-0.89062-0.29688-1.125-0.67188-0.29688-0.46875-0.29688-1.125-0.29688-1.4844z"/>
</g>
<g id="l">
<path d="m2.2188-1.7188c-0.875 0-0.875-1-0.875-1.2188 0-0.26562 0.015625-0.59375 0.15625-0.84375 0.078125-0.10938 0.3125-0.39062 0.71875-0.39062 0.85938 0 0.85938 0.98438 0.85938 1.2188 0 0.26562 0 0.59375-0.15625 0.84375-0.078125 0.10938-0.3125 0.39062-0.70312 0.39062zm-1.1562 0.39062c0-0.03125 0-0.26562 0.15625-0.46875 0.39062 0.28125 0.8125 0.3125 1 0.3125 0.92188 0 1.6094-0.6875 1.6094-1.4531 0-0.375-0.15625-0.73438-0.40625-0.96875 0.35938-0.34375 0.71875-0.39062 0.89062-0.39062 0.03125 0 0.078125 0 0.10938 0.015625-0.10938 0.03125-0.17188 0.14062-0.17188 0.26562 0 0.17188 0.14062 0.28125 0.29688 0.28125 0.09375 0 0.28125-0.0625 0.28125-0.29688 0-0.17188-0.10938-0.48438-0.5-0.48438-0.20312 0-0.64062 0.0625-1.0625 0.46875-0.42188-0.32812-0.82812-0.35938-1.0469-0.35938-0.9375 0-1.625 0.6875-1.625 1.4531 0 0.4375 0.21875 0.8125 0.46875 1.0312-0.125 0.14062-0.3125 0.46875-0.3125 0.82812 0 0.3125 0.14062 0.6875 0.45312 0.89062-0.60938 0.15625-0.92188 0.59375-0.92188 0.98438 0 0.71875 0.98438 1.2656 2.2031 1.2656 1.1719 0 2.2031-0.5 2.2031-1.2812 0-0.34375-0.125-0.85938-0.64062-1.1406-0.53125-0.26562-1.1094-0.26562-1.7188-0.26562-0.25 0-0.67188 0-0.75-0.015625-0.3125-0.046875-0.51562-0.34375-0.51562-0.67188zm1.4375 3.1562c-1.0156 0-1.7031-0.51562-1.7031-1.0469 0-0.45312 0.375-0.82812 0.8125-0.84375h0.59375c0.85938 0 1.9688 0 1.9688 0.84375 0 0.54688-0.70312 1.0469-1.6719 1.0469z"/>
</g>
<g id="n">
<path d="m1.7656-4.4062-1.3906 0.10938v0.3125c0.64062 0 0.73438 0.0625 0.73438 0.54688v2.6875c0 0.4375-0.10938 0.4375-0.78125 0.4375v0.3125c0.3125-0.015625 0.85938-0.03125 1.0938-0.03125 0.35938 0 0.70312 0.015625 1.0469 0.03125v-0.3125c-0.67188 0-0.70312-0.046875-0.70312-0.4375zm0.03125-1.7344c0-0.3125-0.23438-0.53125-0.51562-0.53125-0.3125 0-0.53125 0.26562-0.53125 0.53125s0.21875 0.53125 0.53125 0.53125c0.28125 0 0.51562-0.21875 0.51562-0.53125z"/>
</g>
<g id="v">
<path d="m2.0781-1.9375c0.21875 0.046875 1.0312 0.20312 1.0312 0.92188 0 0.5-0.34375 0.90625-1.125 0.90625-0.84375 0-1.2031-0.5625-1.3906-1.4219-0.03125-0.125-0.03125-0.15625-0.14062-0.15625-0.125 0-0.125 0.0625-0.125 0.23438v1.3281c0 0.17188 0 0.23438 0.10938 0.23438 0.046875 0 0.0625-0.015625 0.25-0.20312 0.015625-0.015625 0.015625-0.03125 0.20312-0.21875 0.4375 0.40625 0.89062 0.42188 1.0938 0.42188 1.1406 0 1.6094-0.67188 1.6094-1.3906 0-0.51562-0.29688-0.82812-0.42188-0.9375-0.32812-0.32812-0.71875-0.40625-1.1406-0.48438-0.5625-0.10938-1.2188-0.23438-1.2188-0.8125 0-0.35938 0.25-0.76562 1.1094-0.76562 1.0938 0 1.1562 0.90625 1.1719 1.2031 0 0.09375 0.09375 0.09375 0.10938 0.09375 0.14062 0 0.14062-0.046875 0.14062-0.23438v-1.0156c0-0.15625 0-0.23438-0.10938-0.23438-0.046875 0-0.078125 0-0.20312 0.125-0.03125 0.03125-0.125 0.125-0.17188 0.15625-0.375-0.28125-0.78125-0.28125-0.9375-0.28125-1.2188 0-1.5938 0.67188-1.5938 1.2344 0 0.34375 0.15625 0.625 0.42188 0.84375 0.32812 0.25 0.60938 0.3125 1.3281 0.45312z"/>
</g>
<g id="u">
<path d="m3.7812-0.54688v0.65625l1.4688-0.10938v-0.3125c-0.6875 0-0.78125-0.0625-0.78125-0.5625v-6.0469l-1.4219 0.10938v0.3125c0.6875 0 0.76562 0.0625 0.76562 0.5625v2.1562c-0.28125-0.35938-0.71875-0.625-1.25-0.625-1.1719 0-2.2188 0.98438-2.2188 2.2656 0 1.2656 0.96875 2.25 2.1094 2.25 0.64062 0 1.0781-0.34375 1.3281-0.65625zm0-2.6719v2.0469c0 0.17188 0 0.1875-0.10938 0.35938-0.29688 0.48438-0.73438 0.70312-1.1719 0.70312-0.45312 0-0.8125-0.26562-1.0469-0.64062-0.25-0.40625-0.28125-0.96875-0.28125-1.3906 0-0.35938 0.015625-0.95312 0.29688-1.4062 0.21875-0.3125 0.59375-0.64062 1.1406-0.64062 0.34375 0 0.76562 0.15625 1.0625 0.59375 0.10938 0.17188 0.10938 0.1875 0.10938 0.375z"/>
</g>
<g id="w">
<path d="m3.4844-3.875-1.2812-0.29688c-0.625-0.15625-1-0.6875-1-1.2656 0-0.70312 0.53125-1.3125 1.3125-1.3125 1.6562 0 1.875 1.6406 1.9375 2.0781 0.015625 0.0625 0.015625 0.125 0.125 0.125 0.125 0 0.125-0.046875 0.125-0.23438v-2c0-0.17188 0-0.25-0.10938-0.25-0.0625 0-0.078125 0.015625-0.14062 0.14062l-0.35938 0.5625c-0.29688-0.29688-0.70312-0.70312-1.5938-0.70312-1.1094 0-1.9375 0.875-1.9375 1.9375 0 0.82812 0.53125 1.5625 1.2969 1.8281 0.10938 0.03125 0.625 0.15625 1.3281 0.32812 0.26562 0.0625 0.5625 0.14062 0.84375 0.5 0.20312 0.26562 0.3125 0.59375 0.3125 0.92188 0 0.70312-0.5 1.4219-1.3438 1.4219-0.28125 0-1.0469-0.046875-1.5781-0.53125-0.57812-0.54688-0.60938-1.1719-0.60938-1.5312-0.015625-0.10938-0.09375-0.10938-0.125-0.10938-0.125 0-0.125 0.078125-0.125 0.25v2c0 0.17188 0 0.23438 0.10938 0.23438 0.0625 0 0.078125-0.015625 0.14062-0.125 0-0.015625 0.03125-0.046875 0.35938-0.57812 0.3125 0.34375 0.95312 0.70312 1.8438 0.70312 1.1562 0 1.9531-0.96875 1.9531-2.0781 0-0.98438-0.65625-1.8125-1.4844-2.0156z"/>
</g>
<g id="ae">
<path d="m6.0781-5.8594c0.375-0.59375 0.95312-0.64062 1.2812-0.64062v-0.3125c-0.3125 0.03125-0.70312 0.03125-0.98438 0.03125-0.29688 0-0.875-0.015625-1.1406-0.03125v0.3125c0.40625 0 0.5625 0.1875 0.5625 0.39062 0 0.10938-0.0625 0.23438-0.09375 0.29688l-1.6406 2.6719-1.8125-2.9375c-0.0625-0.10938-0.0625-0.125-0.0625-0.17188 0-0.20312 0.25-0.25 0.6875-0.25v-0.3125c-0.35938 0.03125-1.0781 0.03125-1.4688 0.03125-0.42188 0-0.875 0-1.2969-0.03125v0.3125h0.1875c0.67188 0 0.75 0.10938 0.90625 0.375l2.0938 3.4062v1.9375c0 0.35938-0.015625 0.46875-0.78125 0.46875h-0.25v0.3125c0.35938-0.03125 1.0781-0.03125 1.4688-0.03125 0.375 0 1.0938 0 1.4531 0.03125v-0.3125h-0.23438c-0.76562 0-0.79688-0.09375-0.79688-0.48438v-1.9219z"/>
</g>
<g id="ad">
<path d="m2.3125-6.6719c-0.09375-0.125-0.09375-0.14062-0.28125-0.14062h-1.7031v0.3125h0.29688c0.14062 0 0.34375 0.015625 0.48438 0.015625 0.23438 0.03125 0.25 0.046875 0.25 0.23438v5.2031c0 0.26562 0 0.73438-1.0312 0.73438v0.3125c0.34375-0.015625 0.84375-0.03125 1.1719-0.03125s0.8125 0.015625 1.1562 0.03125v-0.3125c-1.0156 0-1.0156-0.46875-1.0156-0.73438v-5.1875c0.046875 0.046875 0.046875 0.0625 0.09375 0.125l4.0625 5.9844c0.09375 0.10938 0.10938 0.125 0.17188 0.125 0.14062 0 0.14062-0.0625 0.14062-0.26562v-5.5c0-0.26562 0-0.73438 1.0312-0.73438v-0.3125c-0.35938 0.015625-0.84375 0.03125-1.1719 0.03125s-0.8125-0.015625-1.1562-0.03125v0.3125c1.0156 0 1.0156 0.46875 1.0156 0.73438v4.2656z"/>
</g>
<g id="bj">
<path d="m5.4531-6.4531c0.0625-0.10938 0.0625-0.125 0.0625-0.20312 0-0.15625-0.046875-0.15625-0.25-0.15625h-4.4688l-0.10938 2.25h0.25c0.0625-1.125 0.375-1.9375 2-1.9375h1.5625l-3.875 6.125c-0.0625 0.10938-0.0625 0.125-0.0625 0.20312 0 0.17188 0.046875 0.17188 0.25 0.17188h4.5938l0.17188-2.6562h-0.25c-0.078125 1.375-0.26562 2.3125-2.1094 2.3125h-1.6406z"/>
</g>
<g id="s">
<path d="m1.7188-3.9844h1.4375v-0.3125h-1.4375v-1.8281h-0.25c0 0.8125-0.29688 1.875-1.2812 1.9219v0.21875h0.84375v2.75c0 1.2188 0.9375 1.3438 1.2969 1.3438 0.70312 0 0.98438-0.70312 0.98438-1.3438v-0.5625h-0.25v0.54688c0 0.73438-0.29688 1.1094-0.67188 1.1094-0.67188 0-0.67188-0.90625-0.67188-1.0781z"/>
</g>
<g id="be">
<path d="m6.1719-3.3438c0.17188-0.5 0.48438-0.64062 0.84375-0.64062v-0.3125c-0.23438 0.015625-0.51562 0.03125-0.73438 0.03125-0.29688 0-0.73438-0.015625-0.92188-0.03125v0.3125c0.35938 0 0.57812 0.1875 0.57812 0.46875 0 0.0625 0 0.09375-0.0625 0.21875l-0.90625 2.5469-0.98438-2.7812c-0.03125-0.125-0.046875-0.14062-0.046875-0.1875 0-0.26562 0.39062-0.26562 0.59375-0.26562v-0.3125c-0.29688 0.015625-0.79688 0.03125-1.0469 0.03125-0.29688 0-0.57812-0.015625-0.875-0.03125v0.3125c0.35938 0 0.51562 0.015625 0.625 0.14062 0.046875 0.0625 0.15625 0.35938 0.21875 0.54688l-0.84375 2.4219-0.95312-2.6562c-0.046875-0.125-0.046875-0.14062-0.046875-0.1875 0-0.26562 0.39062-0.26562 0.57812-0.26562v-0.3125c-0.29688 0.015625-0.85938 0.03125-1.0781 0.03125-0.046875 0-0.57812-0.015625-0.9375-0.03125v0.3125c0.5 0 0.625 0.03125 0.75 0.34375l1.25 3.5312c0.046875 0.14062 0.078125 0.21875 0.20312 0.21875 0.14062 0 0.15625-0.0625 0.20312-0.20312l1.0156-2.8125 1.0156 2.8281c0.03125 0.10938 0.0625 0.1875 0.20312 0.1875 0.125 0 0.15625-0.09375 0.1875-0.1875z"/>
</g>
<g id="ac">
<path d="m2.2656-3.1562h1.6875c1.1875 0 2.2656-0.79688 2.2656-1.7969 0-0.98438-0.98438-1.8594-2.3438-1.8594h-3.5312v0.3125h0.25c0.76562 0 0.78125 0.10938 0.78125 0.46875v5.25c0 0.35938-0.015625 0.46875-0.78125 0.46875h-0.25v0.3125c0.35938-0.03125 1.0938-0.03125 1.4688-0.03125s1.125 0 1.4844 0.03125v-0.3125h-0.25c-0.76562 0-0.78125-0.10938-0.78125-0.46875zm-0.03125-0.25v-2.6875c0-0.34375 0.015625-0.40625 0.48438-0.40625h0.89062c1.5781 0 1.5781 1.0625 1.5781 1.5469 0 0.46875 0 1.5469-1.5781 1.5469z"/>
</g>
<g id="j">
<path d="m3.8906-0.78125v0.89062l1.4375-0.10938v-0.3125c-0.6875 0-0.76562-0.0625-0.76562-0.5625v-3.5312l-1.4688 0.10938v0.3125c0.6875 0 0.78125 0.0625 0.78125 0.5625v1.7656c0 0.875-0.48438 1.5469-1.2188 1.5469-0.82812 0-0.875-0.46875-0.875-0.98438v-3.3125l-1.4688 0.10938v0.3125c0.78125 0 0.78125 0.03125 0.78125 0.90625v1.5c0 0.78125 0 1.6875 1.5156 1.6875 0.5625 0 1-0.28125 1.2812-0.89062z"/>
</g>
<g id="bd">
<path d="m4.4688-3.9844h1.1406v-0.3125h-1.1719v-1.1562c0-0.89062 0.48438-1.3594 0.92188-1.3594 0.03125 0 0.1875 0 0.32812 0.078125-0.10938 0.03125-0.29688 0.17188-0.29688 0.42188 0 0.21875 0.15625 0.42188 0.4375 0.42188s0.4375-0.20312 0.4375-0.4375c0-0.35938-0.35938-0.70312-0.90625-0.70312-0.59375 0-1.0312 0.375-1.0781 0.42188-0.29688-0.375-0.85938-0.42188-1.125-0.42188-0.9375 0-2.0938 0.51562-2.0938 1.5938v1.1406h-0.79688v0.3125h0.79688v3.2344c0 0.4375-0.10938 0.4375-0.78125 0.4375v0.3125c0.32812-0.015625 0.85938-0.03125 1.1094-0.03125s0.73438 0.015625 1.1094 0.03125v-0.3125c-0.67188 0-0.78125 0-0.78125-0.4375v-3.2344h2.0938v3.2344c0 0.4375-0.10938 0.4375-0.78125 0.4375v0.3125c0.39062-0.015625 0.85938-0.03125 1.1406-0.03125 0.39062 0 0.85938 0 1.2656 0.03125v-0.3125h-0.21875c-0.73438 0-0.75-0.10938-0.75-0.46875zm-2.7812-0.3125v-1.125c0-0.96875 0.8125-1.3906 1.4688-1.3906 0.48438 0 0.76562 0.1875 0.76562 0.1875v0.015625c-0.15625 0.015625-0.35938 0.15625-0.35938 0.42188 0 0.0625 0 0.3125 0.28125 0.40625-0.03125 0.125-0.03125 0.21875-0.03125 0.34375v1.1406z"/>
</g>
<g id="i">
<path d="m1.6719-3.3125v-1.0938l-1.3906 0.10938v0.3125c0.70312 0 0.78125 0.0625 0.78125 0.5625v2.6719c0 0.4375-0.10938 0.4375-0.78125 0.4375v0.3125c0.39062-0.015625 0.85938-0.03125 1.1406-0.03125 0.39062 0 0.85938 0 1.2656 0.03125v-0.3125h-0.21875c-0.73438 0-0.75-0.10938-0.75-0.46875v-1.5312c0-0.98438 0.42188-1.875 1.1719-1.875 0.0625 0 0.09375 0 0.10938 0.015625-0.03125 0-0.23438 0.125-0.23438 0.39062s0.21875 0.42188 0.4375 0.42188c0.17188 0 0.42188-0.125 0.42188-0.4375s-0.3125-0.60938-0.73438-0.60938c-0.73438 0-1.0938 0.67188-1.2188 1.0938z"/>
</g>
<g id="bc">
<path d="m6.1875-5.8281c0.14062-0.375 0.40625-0.65625 1.0938-0.67188v-0.3125c-0.3125 0.03125-0.71875 0.03125-0.96875 0.03125-0.29688 0-0.875-0.015625-1.1406-0.03125v0.3125c0.51562 0.015625 0.73438 0.26562 0.73438 0.5 0 0.078125-0.03125 0.14062-0.046875 0.20312l-1.8281 4.7969-1.9062-5.0312c-0.0625-0.14062-0.0625-0.15625-0.0625-0.17188 0-0.29688 0.5625-0.29688 0.8125-0.29688v-0.3125c-0.35938 0.03125-1.0469 0.03125-1.4219 0.03125-0.46875 0-0.90625-0.015625-1.2656-0.03125v0.3125c0.65625 0 0.84375 0 0.98438 0.375l2.3125 6.125c0.0625 0.1875 0.10938 0.21875 0.25 0.21875 0.15625 0 0.1875-0.046875 0.23438-0.1875z"/>
</g>
<g id="al">
<path d="m1.7656-6.9219-1.4375 0.10938v0.3125c0.70312 0 0.78125 0.0625 0.78125 0.5625v5.1875c0 0.4375-0.10938 0.4375-0.78125 0.4375v0.3125c0.32812-0.015625 0.85938-0.03125 1.1094-0.03125s0.73438 0.015625 1.1094 0.03125v-0.3125c-0.67188 0-0.78125 0-0.78125-0.4375z"/>
</g>
<g id="bb">
<path d="m3.8906-4c0.09375-0.10938 0.09375-0.125 0.09375-0.17188 0-0.125-0.09375-0.125-0.26562-0.125h-3.1875l-0.10938 1.6094h0.25c0.0625-1.0156 0.25-1.3906 1.3438-1.3906h1.1406l-2.7812 3.7656c-0.09375 0.10938-0.09375 0.125-0.09375 0.17188 0 0.14062 0.0625 0.14062 0.25 0.14062h3.2969l0.17188-1.8594h-0.25c-0.09375 1.1719-0.29688 1.6094-1.4531 1.6094h-1.1875z"/>
</g>
<g id="ab">
<path d="m2.0312-0.015625c0-0.625-0.25-1.0469-0.64062-1.0469-0.35938 0-0.53125 0.28125-0.53125 0.53125 0 0.26562 0.17188 0.53125 0.53125 0.53125 0.15625 0 0.28125-0.0625 0.375-0.14062l0.015625-0.015625c0.015625 0 0.015625 0 0.015625 0.14062 0 0.64062-0.26562 1.25-0.70312 1.7188-0.0625 0.0625-0.078125 0.078125-0.078125 0.10938 0 0.078125 0.046875 0.10938 0.09375 0.10938 0.125 0 0.92188-0.78125 0.92188-1.9375z"/>
</g>
<g id="aa">
<path d="m3.9688-6.9375c-0.046875-0.125-0.078125-0.20312-0.23438-0.20312s-0.1875 0.0625-0.23438 0.20312l-2.0625 5.9531c-0.1875 0.51562-0.57812 0.67188-1.125 0.67188v0.3125c0.23438-0.015625 0.67188-0.03125 1.0156-0.03125 0.3125 0 0.82812 0.015625 1.1562 0.03125v-0.3125c-0.5 0-0.75-0.25-0.75-0.5 0-0.03125 0.015625-0.14062 0.015625-0.15625l0.46875-1.2969h2.4531l0.53125 1.5156c0.015625 0.046875 0.03125 0.10938 0.03125 0.14062 0 0.29688-0.5625 0.29688-0.82812 0.29688v0.3125c0.35938-0.03125 1.0625-0.03125 1.4375-0.03125 0.42188 0 0.89062 0.015625 1.2969 0.03125v-0.3125h-0.17188c-0.59375 0-0.73438-0.0625-0.84375-0.39062zm-0.53125 1.1094 1.125 3.25h-2.2344z"/>
</g>
<g id="q">
<path d="m0.5625-3.4062c0 2.0625 1.6094 3.625 3.4688 3.625 1.625 0 2.5938-1.3906 2.5938-2.5469 0-0.09375 0-0.17188-0.125-0.17188-0.10938 0-0.10938 0.0625-0.125 0.17188-0.078125 1.4219-1.1406 2.2344-2.2344 2.2344-0.60938 0-2.5625-0.32812-2.5625-3.3125 0-2.9688 1.9531-3.3125 2.5625-3.3125 1.0781 0 1.9688 0.90625 2.1719 2.3594 0.015625 0.14062 0.015625 0.17188 0.15625 0.17188 0.15625 0 0.15625-0.03125 0.15625-0.23438v-2.3594c0-0.17188 0-0.25-0.10938-0.25-0.03125 0-0.078125 0-0.15625 0.125l-0.5 0.73438c-0.35938-0.35938-0.875-0.85938-1.8281-0.85938-1.875 0-3.4688 1.5938-3.4688 3.625z"/>
</g>
<g id="z">
<path d="m3.9844-4.1719 1.7969-1.7344c0.078125-0.078125 0.60938-0.57812 1.4219-0.59375v-0.3125c-0.26562 0.03125-0.57812 0.03125-0.85938 0.03125-0.35938 0-0.92188 0-1.2656-0.03125v0.3125c0.40625 0.015625 0.46875 0.23438 0.46875 0.32812 0 0.15625-0.10938 0.26562-0.1875 0.32812l-3.1094 2.9844v-3.1719c0-0.35938 0.015625-0.46875 0.78125-0.46875h0.23438v-0.3125c-0.34375 0.03125-1.0781 0.03125-1.4688 0.03125-0.375 0-1.125 0-1.4688-0.03125v0.3125h0.23438c0.76562 0 0.79688 0.10938 0.79688 0.46875v5.25c0 0.35938-0.03125 0.46875-0.79688 0.46875h-0.23438v0.3125c0.34375-0.03125 1.0938-0.03125 1.4688-0.03125s1.125 0 1.4688 0.03125v-0.3125h-0.23438c-0.76562 0-0.78125-0.10938-0.78125-0.46875v-1.7344l1.1562-1.1094 1.7969 2.6719c0.0625 0.09375 0.15625 0.21875 0.15625 0.34375 0 0.29688-0.39062 0.29688-0.59375 0.29688v0.3125c0.34375-0.03125 1.0469-0.03125 1.4219-0.03125 0.35938 0 0.73438 0.015625 1.1562 0.03125v-0.3125c-0.54688 0-0.75-0.03125-1.0469-0.46875z"/>
</g>
<g id="ba">
<path d="m2.75-1.8594v-0.57812h-2.6406v0.57812z"/>
</g>
<g id="az">
<path d="m6.6406-6.75h-6.0938l-0.1875 2.25h0.25c0.14062-1.6094 0.28125-1.9375 1.7969-1.9375 0.17188 0 0.4375 0 0.53125 0.015625 0.21875 0.046875 0.21875 0.15625 0.21875 0.375v5.2656c0 0.32812 0 0.46875-1.0469 0.46875h-0.40625v0.3125c0.40625-0.03125 1.4219-0.03125 1.8906-0.03125 0.45312 0 1.4844 0 1.8906 0.03125v-0.3125h-0.40625c-1.0469 0-1.0469-0.14062-1.0469-0.46875v-5.2656c0-0.1875 0-0.32812 0.1875-0.375 0.10938-0.015625 0.375-0.015625 0.5625-0.015625 1.5156 0 1.6562 0.32812 1.7969 1.9375h0.25z"/>
</g>
<g id="ay">
<path d="m0.34375-6.8125v0.3125h0.25c0.76562 0 0.78125 0.10938 0.78125 0.46875v5.25c0 0.35938-0.015625 0.46875-0.78125 0.46875h-0.25v0.3125h3.6562c1.6719 0 3.0469-1.4688 3.0469-3.3438 0-1.9062-1.3438-3.4688-3.0469-3.4688zm2.375 6.5c-0.46875 0-0.48438-0.0625-0.48438-0.39062v-5.3906c0-0.34375 0.015625-0.40625 0.48438-0.40625h1c0.625 0 1.3125 0.21875 1.8125 0.92188 0.4375 0.59375 0.51562 1.4531 0.51562 2.2344 0 1.0938-0.1875 1.7031-0.54688 2.1875-0.20312 0.26562-0.76562 0.84375-1.7656 0.84375z"/>
</g>
<g id="ax">
<path d="m2.0312-6.1719c0-0.23438-0.20312-0.5-0.5-0.5-0.28125 0-0.5 0.21875-0.5 0.5s0.21875 0.5 0.5 0.5c0.29688 0 0.5-0.26562 0.5-0.5zm1.9219 0c0-0.28125-0.21875-0.5-0.5-0.5-0.29688 0-0.5 0.26562-0.5 0.5s0.20312 0.5 0.5 0.5c0.28125 0 0.5-0.21875 0.5-0.5z"/>
</g>
<g id="ak">
<path d="m1.0938-3.4219v2.6719c0 0.4375-0.10938 0.4375-0.78125 0.4375v0.3125c0.35938-0.015625 0.85938-0.03125 1.1406-0.03125 0.25 0 0.76562 0.015625 1.1094 0.03125v-0.3125c-0.67188 0-0.78125 0-0.78125-0.4375v-1.8438c0-1.0312 0.71875-1.5938 1.3438-1.5938 0.64062 0 0.75 0.53125 0.75 1.1094v2.3281c0 0.4375-0.10938 0.4375-0.78125 0.4375v0.3125c0.34375-0.015625 0.85938-0.03125 1.125-0.03125 0.25 0 0.78125 0.015625 1.1094 0.03125v-0.3125c-0.65625 0-0.76562 0-0.76562-0.4375v-1.8438c0-1.0312 0.70312-1.5938 1.3438-1.5938 0.625 0 0.73438 0.53125 0.73438 1.1094v2.3281c0 0.4375-0.10938 0.4375-0.78125 0.4375v0.3125c0.34375-0.015625 0.85938-0.03125 1.125-0.03125s0.78125 0.015625 1.125 0.03125v-0.3125c-0.51562 0-0.76562 0-0.78125-0.29688v-1.9062c0-0.85938 0-1.1562-0.3125-1.5156-0.14062-0.17188-0.46875-0.375-1.0469-0.375-0.82812 0-1.2812 0.59375-1.4375 0.98438-0.14062-0.875-0.875-0.98438-1.3281-0.98438-0.73438 0-1.2031 0.42188-1.4844 1.0469v-1.0469l-1.4062 0.10938v0.3125c0.70312 0 0.78125 0.0625 0.78125 0.5625z"/>
</g>
<g id="aj">
<path d="m1.7188-3.75v-0.65625l-1.4375 0.10938v0.3125c0.70312 0 0.78125 0.0625 0.78125 0.5v4.6562c0 0.45312-0.10938 0.45312-0.78125 0.45312v0.3125c0.34375-0.015625 0.85938-0.03125 1.1094-0.03125 0.28125 0 0.78125 0.015625 1.125 0.03125v-0.3125c-0.65625 0-0.76562 0-0.76562-0.45312v-1.7656c0.046875 0.17188 0.46875 0.70312 1.2188 0.70312 1.1875 0 2.2188-0.98438 2.2188-2.2656 0-1.2656-0.95312-2.25-2.0781-2.25-0.78125 0-1.2031 0.4375-1.3906 0.65625zm0.03125 2.6094v-2.2188c0.28125-0.51562 0.76562-0.79688 1.2812-0.79688 0.73438 0 1.3281 0.875 1.3281 2 0 1.2031-0.6875 2.0469-1.4219 2.0469-0.40625 0-0.78125-0.20312-1.0469-0.60938-0.14062-0.20312-0.14062-0.21875-0.14062-0.42188z"/>
</g>
<g id="ai">
<path d="m1.75-4.2969v-1.1562c0-0.875 0.46875-1.3594 0.90625-1.3594 0.03125 0 0.1875 0 0.32812 0.078125-0.10938 0.03125-0.29688 0.17188-0.29688 0.42188 0 0.21875 0.15625 0.42188 0.4375 0.42188s0.4375-0.20312 0.4375-0.4375c0-0.375-0.375-0.70312-0.90625-0.70312-0.6875 0-1.5469 0.53125-1.5469 1.5938v1.1406h-0.78125v0.3125h0.78125v3.2344c0 0.4375-0.10938 0.4375-0.76562 0.4375v0.3125c0.39062-0.015625 0.85938-0.03125 1.125-0.03125 0.40625 0 0.875 0 1.2656 0.03125v-0.3125h-0.20312c-0.73438 0-0.75-0.10938-0.75-0.46875v-3.2031h1.125v-0.3125z"/>
</g>
<g id="bi">
<path d="m4.1406-3.3125c0.09375-0.23438 0.26562-0.67188 0.92188-0.67188v-0.3125c-0.23438 0.015625-0.51562 0.03125-0.75 0.03125s-0.6875-0.015625-0.85938-0.03125v0.3125c0.35938 0 0.46875 0.23438 0.46875 0.42188 0 0.09375-0.015625 0.14062-0.046875 0.25l-1.0312 2.5312-1.1094-2.7812c-0.0625-0.125-0.0625-0.14062-0.0625-0.17188 0-0.25 0.39062-0.25 0.57812-0.25v-0.3125c-0.3125 0.015625-0.85938 0.03125-1.0938 0.03125-0.26562 0-0.67188-0.015625-0.96875-0.03125v0.3125c0.625 0 0.67188 0.0625 0.79688 0.35938l1.4375 3.5469c0.0625 0.14062 0.078125 0.1875 0.20312 0.1875 0.14062 0 0.17188-0.09375 0.21875-0.1875z"/>
</g>
<clipPath id="bu">
<path d="m86 44h209v21h-209z"/>
</clipPath>
<clipPath id="bt">
<path d="m-0.47266 299.23h397v-301h-397zm292.38-238.11-0.03125 0.40234-5.2461 1.293 1.0508-1.7891-0.80469-1.9141z" clip-rule="evenodd"/>
</clipPath>
<clipPath id="bs">
<path d="m85 113h210v22h-210z"/>
</clipPath>
<clipPath id="br">
<path d="m-0.47266 299.23h397v-301h-397zm89.168-168.25-0.03125-0.40234 5.0312-2.0078-0.80469 1.9141 1.0508 1.793z" clip-rule="evenodd"/>
</clipPath>
<clipPath id="bq">
<path d="m86 183h209v21h-209z"/>
</clipPath>
<clipPath id="bp">
<path d="m-0.47266 299.23h397v-301h-397zm292.38-99.191-0.03125 0.40234-5.2461 1.2969 1.0508-1.793-0.80469-1.9141z" clip-rule="evenodd"/>
</clipPath>
<clipPath id="bo">
<path d="m6 26h2v257h-2z"/>
</clipPath>
<clipPath id="bn">
<path d="m-0.47266 299.23h397v-301h-397zm7.6094-16.828h-0.43359l-1.6367-5.1562 1.8516 0.92578 1.8555-0.92578z" clip-rule="evenodd"/>
</clipPath>
</defs>
<g clip-path="url(#bu)">
<g clip-path="url(#bt)">
<path transform="matrix(.1 0 0 -.1 -.472 299.23)" d="m907.42 2518.1 2014.3-138.91" fill="none" stroke="#000" stroke-miterlimit="10" stroke-width="2.3152"/>
</g>
</g>
<path d="m286.63 62.82 4.7539-1.543-4.5078-2.1602 0.80469 1.9141-1.0508 1.7891" fill-rule="evenodd"/>
<path transform="matrix(.1 0 0 -.1 -.472 299.23)" d="m2871 2364.1 47.539 15.43-45.078 21.602 8.0469-19.141z" fill="none" stroke="#000" stroke-miterlimit="10" stroke-width="2.3152"/>
<g clip-path="url(#bs)">
<g clip-path="url(#br)">
<path transform="matrix(.1 0 0 -.1 -.472 299.23)" d="m2921.7 1823.6-2028.2-138.91" fill="none" stroke="#000" stroke-miterlimit="10" stroke-width="2.3152"/>
</g>
</g>
<path d="m93.695 128.57-4.5078 2.1602 4.7539 1.5469-1.0508-1.793 0.80469-1.9141" fill-rule="evenodd"/>
<path transform="matrix(.1 0 0 -.1 -.472 299.23)" d="m941.67 1706.6-45.078-21.602 47.539-15.469-10.508 17.93z" fill="none" stroke="#000" stroke-miterlimit="10" stroke-width="2.3152"/>
<g clip-path="url(#bq)">
<g clip-path="url(#bp)">
<path transform="matrix(.1 0 0 -.1 -.472 299.23)" d="m907.42 1129 2014.3-138.91" fill="none" stroke="#000" stroke-miterlimit="10" stroke-width="2.3152"/>
</g>
</g>
<path d="m286.63 201.74 4.7539-1.543-4.5078-2.1641 0.80469 1.9141-1.0508 1.793" fill-rule="evenodd"/>
<path transform="matrix(.1 0 0 -.1 -.472 299.23)" d="m2871 974.94 47.539 15.43-45.078 21.641 8.0469-19.141z" fill="none" stroke="#000" stroke-miterlimit="10" stroke-width="2.3152"/>
<g>
<use x="112.495" y="46.029" xlink:href="#aw"/>
<use x="117.429261" y="46.029" xlink:href="#k"/>
<use x="121.229975" y="46.029" xlink:href="#c"/>
<use x="125.03069" y="46.029" xlink:href="#c"/>
<use x="128.831404" y="46.029" xlink:href="#d"/>
<use x="132.632118" y="46.029" xlink:href="#m"/>
<use x="136.049427" y="46.029" xlink:href="#g"/>
<use x="137.949785" y="46.029" xlink:href="#e"/>
<use x="139.466736" y="46.029" xlink:href="#k"/>
<use x="143.267451" y="46.029" xlink:href="#c"/>
<use x="147.068165" y="46.029" xlink:href="#glyph-0-8"/>
<use x="148.968522" y="46.029" xlink:href="#t"/>
<use x="151.24395" y="46.029" xlink:href="#d"/>
<use x="155.044665" y="46.029" xlink:href="#ah"/>
<use x="158.845379" y="46.029" xlink:href="#bm"/>
<use x="162.646093" y="46.029" xlink:href="#d"/>
<use x="166.446808" y="46.029" xlink:href="#h"/>
<use x="169.864117" y="46.029" xlink:href="#g"/>
<use x="171.764474" y="46.029" xlink:href="#av"/>
<use x="174.039902" y="46.029" xlink:href="#au"/>
<use x="178.599092" y="46.029" xlink:href="#at"/>
<use x="183.158282" y="46.029" xlink:href="#as"/>
<use x="188.092543" y="46.029" xlink:href="#ar"/>
<use x="192.08496" y="46.029" xlink:href="#aq"/>
<use x="196.64415" y="46.029" xlink:href="#e"/>
<use x="198.161102" y="46.029" xlink:href="#g"/>
<use x="200.061459" y="46.029" xlink:href="#p"/>
<use x="204.053877" y="46.029" xlink:href="#y"/>
<use x="207.854591" y="46.029" xlink:href="#x"/>
<use x="209.754948" y="46.029" xlink:href="#h"/>
<use x="213.172257" y="46.029" xlink:href="#d"/>
<use x="216.972972" y="46.029" xlink:href="#ah"/>
<use x="220.773686" y="46.029" xlink:href="#o"/>
<use x="224.5744" y="46.029" xlink:href="#c"/>
<use x="228.375115" y="46.029" xlink:href="#k"/>
<use x="232.175829" y="46.029" xlink:href="#p"/>
<use x="236.168246" y="46.029" xlink:href="#m"/>
<use x="239.585555" y="46.029" xlink:href="#ag"/>
<use x="241.102507" y="46.029" xlink:href="#e"/>
<use x="242.619459" y="46.029" xlink:href="#d"/>
<use x="246.420173" y="46.029" xlink:href="#c"/>
<use x="250.220888" y="46.029" xlink:href="#g"/>
<use x="252.121245" y="46.029" xlink:href="#o"/>
<use x="255.921959" y="46.029" xlink:href="#e"/>
<use x="257.438911" y="46.029" xlink:href="#h"/>
<use x="260.85622" y="46.029" xlink:href="#c"/>
<use x="264.656934" y="46.029" xlink:href="#ap"/>
<use x="118.05164" y="186.333" xlink:href="#h"/>
<use x="121.468949" y="186.333" xlink:href="#d"/>
<use x="125.269663" y="186.333" xlink:href="#ah"/>
<use x="129.070378" y="186.333" xlink:href="#o"/>
<use x="132.871092" y="186.333" xlink:href="#c"/>
<use x="136.671807" y="186.333" xlink:href="#k"/>
<use x="140.472521" y="186.333" xlink:href="#p"/>
<use x="144.464938" y="186.333" xlink:href="#m"/>
<use x="147.882247" y="186.333" xlink:href="#ag"/>
<use x="149.399199" y="186.333" xlink:href="#e"/>
<use x="150.916151" y="186.333" xlink:href="#d"/>
<use x="154.716865" y="186.333" xlink:href="#c"/>
<use x="158.51758" y="186.333" xlink:href="#g"/>
<use x="160.417937" y="186.333" xlink:href="#o"/>
<use x="164.218651" y="186.333" xlink:href="#e"/>
<use x="165.735603" y="186.333" xlink:href="#h"/>
<use x="169.152912" y="186.333" xlink:href="#c"/>
<use x="172.953626" y="186.333" xlink:href="#ao"/>
<use x="176.946043" y="186.333" xlink:href="#y"/>
<use x="180.746758" y="186.333" xlink:href="#x"/>
<use x="182.647115" y="186.333" xlink:href="#glyph-0-8"/>
<use x="184.547472" y="186.333" xlink:href="#af"/>
<use x="188.348187" y="186.333" xlink:href="#m"/>
<use x="191.765496" y="186.333" xlink:href="#an"/>
<use x="195.182805" y="186.333" xlink:href="#p"/>
<use x="199.175222" y="186.333" xlink:href="#h"/>
<use x="202.592531" y="186.333" xlink:href="#d"/>
<use x="206.393245" y="186.333" xlink:href="#t"/>
<use x="208.668673" y="186.333" xlink:href="#bh"/>
<use x="212.085982" y="186.333" xlink:href="#d"/>
<use x="215.886696" y="186.333" xlink:href="#t"/>
<use x="218.162124" y="186.333" xlink:href="#o"/>
<use x="221.962838" y="186.333" xlink:href="#e"/>
<use x="223.47979" y="186.333" xlink:href="#h"/>
<use x="226.897099" y="186.333" xlink:href="#c"/>
<use x="230.697813" y="186.333" xlink:href="#ao"/>
<use x="234.690231" y="186.333" xlink:href="#y"/>
<use x="238.490945" y="186.333" xlink:href="#ap"/>
<use x="118.05164" y="172.4416" xlink:href="#aw"/>
<use x="122.985901" y="172.4416" xlink:href="#k"/>
<use x="126.786615" y="172.4416" xlink:href="#c"/>
<use x="130.58733" y="172.4416" xlink:href="#c"/>
<use x="134.388044" y="172.4416" xlink:href="#d"/>
<use x="138.188758" y="172.4416" xlink:href="#m"/>
<use x="141.606067" y="172.4416" xlink:href="#g"/>
<use x="143.506425" y="172.4416" xlink:href="#e"/>
<use x="145.023376" y="172.4416" xlink:href="#k"/>
<use x="148.824091" y="172.4416" xlink:href="#c"/>
<use x="152.624805" y="172.4416" xlink:href="#glyph-0-8"/>
<use x="154.525162" y="172.4416" xlink:href="#af"/>
<use x="158.325877" y="172.4416" xlink:href="#m"/>
<use x="161.743186" y="172.4416" xlink:href="#an"/>
<use x="165.160495" y="172.4416" xlink:href="#c"/>
<use x="168.961209" y="172.4416" xlink:href="#k"/>
<use x="172.761924" y="172.4416" xlink:href="#bl"/>
<use x="177.696184" y="172.4416" xlink:href="#ag"/>
<use x="179.213136" y="172.4416" xlink:href="#d"/>
<use x="183.013851" y="172.4416" xlink:href="#am"/>
<use x="186.814565" y="172.4416" xlink:href="#bg"/>
<use x="190.615279" y="172.4416" xlink:href="#d"/>
<use x="194.415994" y="172.4416" xlink:href="#am"/>
<use x="198.216708" y="172.4416" xlink:href="#glyph-0-8"/>
<use x="200.117065" y="172.4416" xlink:href="#av"/>
<use x="202.392493" y="172.4416" xlink:href="#au"/>
<use x="206.951683" y="172.4416" xlink:href="#at"/>
<use x="211.510874" y="172.4416" xlink:href="#as"/>
<use x="216.445135" y="172.4416" xlink:href="#ar"/>
<use x="220.437552" y="172.4416" xlink:href="#aq"/>
<use x="224.996742" y="172.4416" xlink:href="#e"/>
<use x="226.513694" y="172.4416" xlink:href="#g"/>
<use x="228.414051" y="172.4416" xlink:href="#p"/>
<use x="232.406468" y="172.4416" xlink:href="#bk"/>
<use x="236.207182" y="172.4416" xlink:href="#x"/>
<use x="111.10594" y="116.8756" xlink:href="#h"/>
<use x="114.523249" y="116.8756" xlink:href="#d"/>
<use x="118.323963" y="116.8756" xlink:href="#ah"/>
<use x="122.124678" y="116.8756" xlink:href="#o"/>
<use x="125.925392" y="116.8756" xlink:href="#c"/>
<use x="129.726107" y="116.8756" xlink:href="#k"/>
<use x="133.526821" y="116.8756" xlink:href="#p"/>
<use x="137.519238" y="116.8756" xlink:href="#h"/>
<use x="140.936547" y="116.8756" xlink:href="#d"/>
<use x="144.737262" y="116.8756" xlink:href="#t"/>
<use x="147.012689" y="116.8756" xlink:href="#bh"/>
<use x="150.429998" y="116.8756" xlink:href="#d"/>
<use x="154.230713" y="116.8756" xlink:href="#t"/>
<use x="156.50614" y="116.8756" xlink:href="#o"/>
<use x="160.306855" y="116.8756" xlink:href="#e"/>
<use x="161.823807" y="116.8756" xlink:href="#h"/>
<use x="165.241116" y="116.8756" xlink:href="#c"/>
<use x="169.04183" y="116.8756" xlink:href="#x"/>
<use x="170.942187" y="116.8756" xlink:href="#glyph-0-8"/>
<use x="172.842544" y="116.8756" xlink:href="#af"/>
<use x="176.643259" y="116.8756" xlink:href="#m"/>
<use x="180.060568" y="116.8756" xlink:href="#an"/>
<use x="183.477877" y="116.8756" xlink:href="#p"/>
<use x="187.470294" y="116.8756" xlink:href="#m"/>
<use x="190.887603" y="116.8756" xlink:href="#ag"/>
<use x="192.404555" y="116.8756" xlink:href="#e"/>
<use x="193.921506" y="116.8756" xlink:href="#d"/>
<use x="197.722221" y="116.8756" xlink:href="#c"/>
<use x="201.522935" y="116.8756" xlink:href="#g"/>
<use x="203.423292" y="116.8756" xlink:href="#o"/>
<use x="207.224007" y="116.8756" xlink:href="#e"/>
<use x="208.740959" y="116.8756" xlink:href="#h"/>
<use x="212.158268" y="116.8756" xlink:href="#c"/>
<use x="215.958982" y="116.8756" xlink:href="#ao"/>
<use x="219.951399" y="116.8756" xlink:href="#y"/>
<use x="223.752113" y="116.8756" xlink:href="#ap"/>
<use x="111.10594" y="102.9842" xlink:href="#aw"/>
<use x="116.040201" y="102.9842" xlink:href="#k"/>
<use x="119.840915" y="102.9842" xlink:href="#c"/>
<use x="123.64163" y="102.9842" xlink:href="#c"/>
<use x="127.442344" y="102.9842" xlink:href="#d"/>
<use x="131.243058" y="102.9842" xlink:href="#m"/>
<use x="134.660367" y="102.9842" xlink:href="#g"/>
<use x="136.560725" y="102.9842" xlink:href="#e"/>
<use x="138.077676" y="102.9842" xlink:href="#k"/>
<use x="141.878391" y="102.9842" xlink:href="#c"/>
<use x="145.679105" y="102.9842" xlink:href="#glyph-0-8"/>
<use x="147.579462" y="102.9842" xlink:href="#bg"/>
<use x="151.380177" y="102.9842" xlink:href="#t"/>
<use x="153.655605" y="102.9842" xlink:href="#af"/>
<use x="157.456319" y="102.9842" xlink:href="#c"/>
<use x="161.257033" y="102.9842" xlink:href="#g"/>
<use x="163.157391" y="102.9842" xlink:href="#d"/>
<use x="166.958105" y="102.9842" xlink:href="#am"/>
<use x="170.758819" y="102.9842" xlink:href="#glyph-0-8"/>
<use x="172.659177" y="102.9842" xlink:href="#av"/>
<use x="174.934604" y="102.9842" xlink:href="#au"/>
<use x="179.493795" y="102.9842" xlink:href="#at"/>
<use x="184.052985" y="102.9842" xlink:href="#as"/>
<use x="188.987246" y="102.9842" xlink:href="#ar"/>
<use x="192.979663" y="102.9842" xlink:href="#aq"/>
<use x="197.538853" y="102.9842" xlink:href="#e"/>
<use x="199.055805" y="102.9842" xlink:href="#g"/>
<use x="200.956162" y="102.9842" xlink:href="#p"/>
<use x="204.948579" y="102.9842" xlink:href="#y"/>
<use x="208.749294" y="102.9842" xlink:href="#x"/>
</g>
<g clip-path="url(#bo)">
<g clip-path="url(#bn)">
<path transform="matrix(.1 0 0 -.1 -.472 299.23)" d="m73.9 2726.5v-2556" fill="none" stroke="#000" stroke-miterlimit="10" stroke-width="2.3152"/>
</g>
</g>
<path d="m5.0664 277.25 1.8516 4.6289 1.8555-4.6289-1.8555 0.92578-1.8516-0.92578" fill-rule="evenodd"/>
<path transform="matrix(.1 0 0 -.1 -.472 299.23)" d="m55.384 219.86 18.516-46.289 18.555 46.289-18.555-9.2578z" fill="none" stroke="#000" stroke-miterlimit="10" stroke-width="2.3152"/>
<g>
<use x="298.558" y="274.235" xlink:href="#bf"/>
<use x="303.258355" y="274.235" xlink:href="#f"/>
<use x="308.239655" y="274.235" xlink:href="#b"/>
<use x="313.774875" y="274.235" xlink:href="#b"/>
<use x="322.637604" y="274.235" xlink:href="#r"/>
<use x="328.441815" y="274.235" xlink:href="#a"/>
<use x="332.869194" y="274.235" xlink:href="#l"/>
<use x="337.850494" y="274.235" xlink:href="#n"/>
<use x="340.618105" y="274.235" xlink:href="#b"/>
<use x="346.153325" y="274.235" xlink:href="#b"/>
<use x="351.688546" y="274.235" xlink:href="#a"/>
<use x="356.115925" y="274.235" xlink:href="#b"/>
<use x="20.822" y="34.919" xlink:href="#v"/>
<use x="24.751249" y="34.919" xlink:href="#a"/>
<use x="29.178629" y="34.919" xlink:href="#b"/>
<use x="34.713849" y="34.919" xlink:href="#u"/>
<use x="43.566616" y="34.919" xlink:href="#w"/>
<use x="49.101836" y="34.919" xlink:href="#ae"/>
<use x="56.573786" y="34.919" xlink:href="#ad"/>
<use x="-0.009" y="298.769" xlink:href="#bj"/>
<use x="6.079145" y="298.769" xlink:href="#a"/>
<use x="10.506524" y="298.769" xlink:href="#n"/>
<use x="13.274135" y="298.769" xlink:href="#s"/>
<use x="20.822" y="156.197" xlink:href="#be"/>
<use x="27.738037" y="156.197" xlink:href="#a"/>
<use x="32.165416" y="156.197" xlink:href="#n"/>
<use x="34.933027" y="156.197" xlink:href="#v"/>
<use x="38.862276" y="156.197" xlink:href="#a"/>
<use x="46.617164" y="156.197" xlink:href="#ac"/>
<use x="53.397709" y="156.197" xlink:href="#j"/>
<use x="58.93293" y="156.197" xlink:href="#bd"/>
<use x="64.744115" y="156.197" xlink:href="#a"/>
<use x="69.171494" y="156.197" xlink:href="#i"/>
<use x="76.39139" y="156.197" xlink:href="#j"/>
<use x="81.926611" y="156.197" xlink:href="#b"/>
<use x="87.461831" y="156.197" xlink:href="#u"/>
<use x="96.314598" y="156.197" xlink:href="#bc"/>
<use x="102.959652" y="156.197" xlink:href="#f"/>
<use x="107.940952" y="156.197" xlink:href="#i"/>
<use x="111.843302" y="156.197" xlink:href="#n"/>
<use x="114.610913" y="156.197" xlink:href="#f"/>
<use x="119.592213" y="156.197" xlink:href="#r"/>
<use x="125.127433" y="156.197" xlink:href="#al"/>
<use x="127.895044" y="156.197" xlink:href="#a"/>
<use x="135.639969" y="156.197" xlink:href="#bb"/>
<use x="140.067348" y="156.197" xlink:href="#j"/>
<use x="145.602569" y="156.197" xlink:href="#ab"/>
<use x="20.822" y="166.381" xlink:href="#v"/>
<use x="24.751249" y="166.381" xlink:href="#a"/>
<use x="29.178629" y="166.381" xlink:href="#b"/>
<use x="34.713849" y="166.381" xlink:href="#u"/>
<use x="40.24907" y="166.381" xlink:href="#a"/>
<use x="47.993995" y="166.381" xlink:href="#aa"/>
<use x="55.196955" y="166.381" xlink:href="#q"/>
<use x="62.391945" y="166.381" xlink:href="#z"/>
<use x="20.822" y="7.145" xlink:href="#q"/>
<use x="28.01699" y="7.145" xlink:href="#al"/>
<use x="30.7846" y="7.145" xlink:href="#n"/>
<use x="33.55221" y="7.145" xlink:href="#a"/>
<use x="37.97959" y="7.145" xlink:href="#b"/>
<use x="43.235857" y="7.145" xlink:href="#s"/>
<use x="47.110313" y="7.145" xlink:href="#ba"/>
<use x="50.430847" y="7.145" xlink:href="#az"/>
<use x="57.625837" y="7.145" xlink:href="#q"/>
<use x="64.820827" y="7.145" xlink:href="#ac"/>
</g>
<path transform="matrix(1 0 0 -1 20.822 8.54)" d="m-0.0016875 9.375e-4h50.785" fill="none" stroke="#000" stroke-miterlimit="10" stroke-width=".398"/>
<g>
<use x="20.822" y="265.44" xlink:href="#ay"/>
<use x="28.43243" y="265.44" xlink:href="#f"/>
<use x="33.41373" y="265.44" xlink:href="#s"/>
<use x="37.288185" y="265.44" xlink:href="#a"/>
<use x="41.715565" y="265.44" xlink:href="#b"/>
<use x="47.527" y="265.874" xlink:href="#ax"/>
<use x="47.25" y="265.44" xlink:href="#j"/>
<use x="52.785221" y="265.44" xlink:href="#r"/>
<use x="58.599394" y="265.44" xlink:href="#a"/>
<use x="63.026773" y="265.44" xlink:href="#i"/>
<use x="66.929124" y="265.44" xlink:href="#s"/>
<use x="70.803579" y="265.44" xlink:href="#i"/>
<use x="74.705929" y="265.44" xlink:href="#f"/>
<use x="79.687229" y="265.44" xlink:href="#l"/>
<use x="84.668529" y="265.44" xlink:href="#j"/>
<use x="90.20375" y="265.44" xlink:href="#b"/>
<use x="95.73897" y="265.44" xlink:href="#l"/>
<use x="20.822" y="275.624" xlink:href="#bf"/>
<use x="25.522355" y="275.624" xlink:href="#f"/>
<use x="30.503655" y="275.624" xlink:href="#b"/>
<use x="36.038875" y="275.624" xlink:href="#b"/>
<use x="44.901604" y="275.624" xlink:href="#r"/>
<use x="50.705815" y="275.624" xlink:href="#a"/>
<use x="55.133194" y="275.624" xlink:href="#l"/>
<use x="60.114494" y="275.624" xlink:href="#n"/>
<use x="62.882105" y="275.624" xlink:href="#b"/>
<use x="68.417325" y="275.624" xlink:href="#b"/>
<use x="73.952546" y="275.624" xlink:href="#a"/>
<use x="78.379925" y="275.624" xlink:href="#b"/>
<use x="20.822" y="144.625" xlink:href="#a"/>
<use x="25.249379" y="144.625" xlink:href="#ak"/>
<use x="33.551214" y="144.625" xlink:href="#aj"/>
<use x="39.086435" y="144.625" xlink:href="#ai"/>
<use x="42.131005" y="144.625" xlink:href="#f"/>
<use x="47.112305" y="144.625" xlink:href="#b"/>
<use x="52.647526" y="144.625" xlink:href="#l"/>
<use x="57.628826" y="144.625" xlink:href="#a"/>
<use x="65.373751" y="144.625" xlink:href="#w"/>
<use x="70.908972" y="144.625" xlink:href="#ae"/>
<use x="78.380922" y="144.625" xlink:href="#ad"/>
<use x="85.852872" y="144.625" xlink:href="#aa"/>
<use x="93.045869" y="144.625" xlink:href="#q"/>
<use x="100.250821" y="144.625" xlink:href="#z"/>
<use x="107.999731" y="144.625" xlink:href="#ab"/>
<use x="298.558" y="7.145" xlink:href="#w"/>
<use x="304.093221" y="7.145" xlink:href="#a"/>
<use x="308.5206" y="7.145" xlink:href="#i"/>
<use x="312.42295" y="7.145" xlink:href="#bi"/>
<use x="317.402258" y="7.145" xlink:href="#a"/>
<use x="321.829637" y="7.145" xlink:href="#i"/>
<use x="325.731988" y="7.145" xlink:href="#ba"/>
<use x="329.052522" y="7.145" xlink:href="#az"/>
<use x="336.247512" y="7.145" xlink:href="#q"/>
<use x="343.442502" y="7.145" xlink:href="#ac"/>
</g>
<path transform="matrix(1 0 0 -1 298.56 8.54)" d="m5.9375e-4 9.375e-4h51.668" fill="none" stroke="#000" stroke-miterlimit="10" stroke-width=".398"/>
<g>
<use x="298.558" y="68.247" xlink:href="#a"/>
<use x="302.985379" y="68.247" xlink:href="#ak"/>
<use x="311.287214" y="68.247" xlink:href="#aj"/>
<use x="316.822435" y="68.247" xlink:href="#ai"/>
<use x="319.867005" y="68.247" xlink:href="#f"/>
<use x="324.848305" y="68.247" xlink:href="#b"/>
<use x="330.383526" y="68.247" xlink:href="#l"/>
<use x="335.364826" y="68.247" xlink:href="#a"/>
<use x="343.109751" y="68.247" xlink:href="#w"/>
<use x="348.644971" y="68.247" xlink:href="#ae"/>
<use x="356.116921" y="68.247" xlink:href="#ad"/>
<use x="363.588871" y="68.247" xlink:href="#ab"/>
<use x="369.68399" y="68.247" xlink:href="#be"/>
<use x="376.600027" y="68.247" xlink:href="#a"/>
<use x="381.027407" y="68.247" xlink:href="#n"/>
<use x="383.795017" y="68.247" xlink:href="#v"/>
<use x="387.724266" y="68.247" xlink:href="#a"/>
<use x="298.558" y="88.615" xlink:href="#v"/>
<use x="302.487249" y="88.615" xlink:href="#a"/>
<use x="306.914629" y="88.615" xlink:href="#b"/>
<use x="312.449849" y="88.615" xlink:href="#u"/>
<use x="317.98507" y="88.615" xlink:href="#a"/>
<use x="325.729995" y="88.615" xlink:href="#w"/>
<use x="331.265216" y="88.615" xlink:href="#ae"/>
<use x="338.737166" y="88.615" xlink:href="#ad"/>
<use x="346.209116" y="88.615" xlink:href="#aa"/>
<use x="353.412076" y="88.615" xlink:href="#q"/>
<use x="360.607065" y="88.615" xlink:href="#z"/>
<use x="298.558" y="78.431" xlink:href="#ac"/>
<use x="305.338546" y="78.431" xlink:href="#j"/>
<use x="310.873766" y="78.431" xlink:href="#bd"/>
<use x="316.684951" y="78.431" xlink:href="#a"/>
<use x="321.11233" y="78.431" xlink:href="#i"/>
<use x="328.332226" y="78.431" xlink:href="#j"/>
<use x="333.867447" y="78.431" xlink:href="#b"/>
<use x="339.402667" y="78.431" xlink:href="#u"/>
<use x="348.265396" y="78.431" xlink:href="#bc"/>
<use x="354.900488" y="78.431" xlink:href="#f"/>
<use x="359.881788" y="78.431" xlink:href="#i"/>
<use x="363.784138" y="78.431" xlink:href="#n"/>
<use x="366.551749" y="78.431" xlink:href="#f"/>
<use x="371.533049" y="78.431" xlink:href="#r"/>
<use x="377.068269" y="78.431" xlink:href="#al"/>
<use x="379.83588" y="78.431" xlink:href="#a"/>
<use x="387.580805" y="78.431" xlink:href="#bb"/>
<use x="392.018147" y="78.431" xlink:href="#j"/>
<use x="397.543405" y="78.431" xlink:href="#ab"/>
<use x="298.558" y="202.95" xlink:href="#a"/>
<use x="302.985379" y="202.95" xlink:href="#ak"/>
<use x="311.287214" y="202.95" xlink:href="#aj"/>
<use x="316.822435" y="202.95" xlink:href="#ai"/>
<use x="319.867005" y="202.95" xlink:href="#f"/>
<use x="324.848305" y="202.95" xlink:href="#b"/>
<use x="330.383526" y="202.95" xlink:href="#l"/>
<use x="335.364826" y="202.95" xlink:href="#a"/>
<use x="343.109751" y="202.95" xlink:href="#aa"/>
<use x="350.312711" y="202.95" xlink:href="#q"/>
<use x="357.5077" y="202.95" xlink:href="#z"/>
<use x="298.558" y="264.052" xlink:href="#ay"/>
<use x="306.16843" y="264.052" xlink:href="#f"/>
<use x="311.14973" y="264.052" xlink:href="#s"/>
<use x="315.024185" y="264.052" xlink:href="#a"/>
<use x="319.451565" y="264.052" xlink:href="#b"/>
<use x="325.264" y="264.486" xlink:href="#ax"/>
<use x="324.987" y="264.052" xlink:href="#j"/>
<use x="330.522221" y="264.052" xlink:href="#r"/>
<use x="336.336394" y="264.052" xlink:href="#a"/>
<use x="340.763773" y="264.052" xlink:href="#i"/>
<use x="344.666124" y="264.052" xlink:href="#s"/>
<use x="348.540579" y="264.052" xlink:href="#i"/>
<use x="352.442929" y="264.052" xlink:href="#f"/>
<use x="357.424229" y="264.052" xlink:href="#l"/>
<use x="362.405529" y="264.052" xlink:href="#j"/>
<use x="367.94075" y="264.052" xlink:href="#b"/>
<use x="373.47597" y="264.052" xlink:href="#l"/>
</g>
</svg>
