<svg width="216pt" height="221pt" version="1.1" viewBox="0 0 216 221" xmlns="http://www.w3.org/2000/svg" xmlns:xlink="http://www.w3.org/1999/xlink">
<defs>
<g id="o">
<path d="m2.2188-1.8594c0-0.9375 0.57812-1.8906 1.7812-1.8906 0.015625 0.23438 0.1875 0.4375 0.4375 0.4375 0.21875 0 0.42188-0.15625 0.42188-0.42188 0-0.20312-0.125-0.625-0.95312-0.625-0.5 0-1.1406 0.1875-1.6875 0.8125v-0.34375c0-0.3125-0.0625-0.40625-0.40625-0.40625h-1.0938c-0.15625 0-0.40625 0-0.40625 0.29688 0 0.3125 0.25 0.3125 0.40625 0.3125h0.8125v3.0781h-0.8125c-0.15625 0-0.40625 0-0.40625 0.29688 0 0.3125 0.25 0.3125 0.40625 0.3125h2.5938c0.15625 0 0.42188 0 0.42188-0.29688 0-0.3125-0.26562-0.3125-0.42188-0.3125h-1.0938z"/>
</g>
<g id="e">
<path d="m3.5625-0.5c0 0.35938 0 0.5 0.40625 0.5h0.71875c0.17188 0 0.42188 0 0.42188-0.3125 0-0.29688-0.26562-0.29688-0.40625-0.29688h-0.45312v-5.0781c0-0.29688-0.046875-0.40625-0.39062-0.40625h-0.73438c-0.15625 0-0.40625 0-0.40625 0.3125 0 0.29688 0.26562 0.29688 0.40625 0.29688h0.4375v1.5781c-0.32812-0.29688-0.73438-0.45312-1.1562-0.45312-1.0938 0-2.0469 0.95312-2.0469 2.2188 0 1.2344 0.89062 2.2031 1.9531 2.2031 0.5625 0 0.98438-0.26562 1.25-0.5625zm0-2.1406v0.70312c0 0.5625-0.4375 1.3906-1.2031 1.3906-0.71875 0-1.3125-0.70312-1.3125-1.5938 0-0.95312 0.70312-1.6094 1.3906-1.6094 0.64062 0 1.125 0.5625 1.125 1.1094z"/>
</g>
<g id="b">
<path d="m2.2188-3.6875h1.625c0.15625 0 0.40625 0 0.40625-0.29688 0-0.3125-0.25-0.3125-0.40625-0.3125h-1.625v-0.8125c0-0.1875 0-0.40625-0.34375-0.40625s-0.34375 0.20312-0.34375 0.40625v0.8125h-0.875c-0.15625 0-0.40625 0-0.40625 0.3125 0 0.29688 0.25 0.29688 0.39062 0.29688h0.89062v2.4375c0 0.95312 0.67188 1.3125 1.4062 1.3125s1.5312-0.4375 1.5312-1.3125c0-0.1875 0-0.39062-0.34375-0.39062-0.32812 0-0.34375 0.20312-0.34375 0.375 0 0.625-0.57812 0.71875-0.79688 0.71875-0.76562 0-0.76562-0.51562-0.76562-0.76562z"/>
</g>
<g id="ab">
<path d="m2.9688-2.5469c-0.23438-0.03125-0.42188-0.0625-0.67188-0.10938-0.29688-0.046875-0.96875-0.17188-0.96875-0.54688 0-0.26562 0.3125-0.57812 1.2656-0.57812 0.82812 0 0.96875 0.29688 1 0.5625 0 0.17188 0.03125 0.34375 0.32812 0.34375 0.35938 0 0.35938-0.21875 0.35938-0.42188v-0.6875c0-0.15625 0-0.40625-0.29688-0.40625-0.25 0-0.28125 0.14062-0.3125 0.21875-0.4375-0.21875-0.875-0.21875-1.0625-0.21875-1.6562 0-1.8906 0.82812-1.8906 1.1875 0 0.90625 1.0469 1.0781 1.9688 1.2188 0.48438 0.078125 1.2812 0.20312 1.2812 0.73438 0 0.375-0.375 0.70312-1.2812 0.70312-0.46875 0-1.0156-0.10938-1.2656-0.89062-0.0625-0.17188-0.09375-0.28125-0.35938-0.28125-0.34375 0-0.34375 0.20312-0.34375 0.40625v0.96875c0 0.15625 0 0.40625 0.29688 0.40625 0.09375 0 0.25-0.015625 0.375-0.375 0.48438 0.35938 1.0156 0.375 1.2969 0.375 1.5625 0 1.8906-0.82812 1.8906-1.3125 0-1.0312-1.2812-1.25-1.6094-1.2969z"/>
</g>
<g id="c">
<path d="m4.2344-1.9062c0.20312 0 0.39062 0 0.39062-0.35938 0-1.1406-0.64062-2.125-1.9375-2.125-1.1875 0-2.1406 1-2.1406 2.2344 0 1.2031 1.0156 2.2188 2.2969 2.2188 1.3125 0 1.7812-0.90625 1.7812-1.1562 0-0.26562-0.28125-0.26562-0.34375-0.26562-0.1875 0-0.26562 0.03125-0.32812 0.21875-0.21875 0.5-0.76562 0.59375-1.0469 0.59375-0.75 0-1.4844-0.5-1.6562-1.3594zm-2.9688-0.59375c0.14062-0.73438 0.73438-1.2812 1.4219-1.2812 0.51562 0 1.1406 0.25 1.2344 1.2812z"/>
</g>
<g id="aa">
<path d="m1.6562-3.8281c0-0.3125 0-0.46875-0.40625-0.46875h-0.71875c-0.15625 0-0.40625 0-0.40625 0.3125 0 0.29688 0.25 0.29688 0.39062 0.29688h0.45312v3.0781h-0.4375c-0.15625 0-0.40625 0-0.40625 0.3125 0 0.29688 0.25 0.29688 0.39062 0.29688h1.5938c0.14062 0 0.39062 0 0.39062-0.29688 0-0.3125-0.25-0.3125-0.40625-0.3125h-0.4375v-1.7656c0-1 0.73438-1.375 1.25-1.375s0.65625 0.28125 0.65625 0.875v2.2656h-0.375c-0.17188 0-0.42188 0-0.42188 0.3125 0 0.29688 0.28125 0.29688 0.42188 0.29688h1.5156c0.14062 0 0.40625 0 0.40625-0.29688 0-0.3125-0.25-0.3125-0.42188-0.3125h-0.4375v-2.3125c0-1-0.5-1.4375-1.2969-1.4375-0.65625 0-1.1094 0.34375-1.2969 0.53125z"/>
</g>
<g id="k">
<path d="m4.3594 0.53125c0-0.14062-0.078125-0.1875-0.25-0.29688-1.2344-0.84375-1.7031-2.1719-1.7031-3.2812 0-1 0.39062-2.3906 1.7188-3.2969 0.15625-0.10938 0.23438-0.14062 0.23438-0.29688 0-0.078125-0.046875-0.28125-0.3125-0.28125-0.28125 0-2.3281 1.3125-2.3281 3.875 0 1.1875 0.46875 2.0781 0.8125 2.5781 0.53125 0.73438 1.2812 1.2812 1.5156 1.2812 0.26562 0 0.3125-0.1875 0.3125-0.28125z"/>
</g>
<g id="a">
<path d="m3.6562-0.3125c0.21875 0.29688 0.6875 0.3125 1.0625 0.3125 0.28125 0 0.5 0 0.5-0.3125 0-0.29688-0.25-0.29688-0.39062-0.29688-0.42188 0-0.51562-0.046875-0.59375-0.078125v-2.1562c0-0.70312-0.54688-1.5469-1.9844-1.5469-0.42188 0-1.4375 0-1.4375 0.73438 0 0.29688 0.20312 0.45312 0.4375 0.45312 0.15625 0 0.4375-0.09375 0.4375-0.45312 0-0.078125 0.015625-0.09375 0.21875-0.10938 0.14062-0.015625 0.26562-0.015625 0.35938-0.015625 0.75 0 1.2656 0.3125 1.2656 1.0156-1.75 0.03125-2.9844 0.53125-2.9844 1.4844 0 0.6875 0.625 1.3438 1.6406 1.3438 0.375 0 1-0.078125 1.4688-0.375zm-0.125-1.8594v0.84375c0 0.21875 0 0.4375-0.375 0.60938-0.35938 0.17188-0.8125 0.17188-0.89062 0.17188-0.625 0-1.0312-0.34375-1.0312-0.73438 0-0.48438 0.85938-0.85938 2.2969-0.89062z"/>
</g>
<g id="j">
<path d="m3.5156-3.0469c0-1.1875-0.46875-2.0938-0.8125-2.5781-0.53125-0.73438-1.2812-1.2969-1.5156-1.2969-0.25 0-0.3125 0.20312-0.3125 0.28125 0 0.15625 0.10938 0.21875 0.15625 0.25 1.6406 1.0938 1.7969 2.6875 1.7969 3.3438 0 1-0.375 2.375-1.7188 3.2812-0.15625 0.10938-0.23438 0.15625-0.23438 0.29688 0 0.09375 0.0625 0.28125 0.3125 0.28125 0.28125 0 2.3281-1.3125 2.3281-3.8594z"/>
</g>
<g id="as">
<path d="m1.0938-4c-0.03125-0.29688-0.21875-0.29688-0.40625-0.29688h-0.3125c-0.15625 0-0.42188 0-0.42188 0.29688 0 0.3125 0.21875 0.3125 0.57812 0.3125v3.0781c-0.35938 0-0.57812 0-0.57812 0.3125 0 0.29688 0.28125 0.29688 0.42188 0.29688h0.875c0.14062 0 0.40625 0 0.40625-0.29688 0-0.3125-0.20312-0.3125-0.5625-0.3125v-1.7812c0-0.89062 0.40625-1.3594 0.8125-1.3594 0.23438 0 0.35938 0.17188 0.35938 0.8125v2.3281c-0.1875 0-0.4375 0-0.4375 0.3125 0 0.29688 0.28125 0.29688 0.42188 0.29688h0.73438c0.15625 0 0.42188 0 0.42188-0.29688 0-0.3125-0.21875-0.3125-0.57812-0.3125v-1.7812c0-0.89062 0.40625-1.3594 0.82812-1.3594 0.21875 0 0.35938 0.17188 0.35938 0.8125v2.3281c-0.1875 0-0.4375 0-0.4375 0.3125 0 0.29688 0.26562 0.29688 0.40625 0.29688h0.75c0.15625 0 0.40625 0 0.40625-0.29688 0-0.3125-0.20312-0.3125-0.5625-0.3125v-2.4062c0-0.20312 0-1.3438-0.89062-1.3438-0.29688 0-0.70312 0.125-0.98438 0.51562-0.15625-0.32812-0.4375-0.51562-0.76562-0.51562-0.3125 0-0.60938 0.14062-0.84375 0.35938z"/>
</g>
<g id="l">
<path d="m2.8594-2.5469 1.2344-1.1406h0.34375c0.14062 0 0.40625 0 0.40625-0.29688 0-0.3125-0.26562-0.3125-0.40625-0.3125h-1.5312c-0.17188 0-0.40625 0-0.40625 0.3125 0 0.29688 0.25 0.29688 0.40625 0.29688h0.35938l-1.6094 1.5156v-3.5156c0-0.29688-0.0625-0.40625-0.40625-0.40625h-0.64062c-0.15625 0-0.40625 0-0.40625 0.29688 0 0.3125 0.25 0.3125 0.40625 0.3125h0.48438v4.875h-0.48438c-0.15625 0-0.40625 0-0.40625 0.29688 0 0.3125 0.25 0.3125 0.40625 0.3125h1.5312c0.15625 0 0.40625 0 0.40625-0.29688 0-0.3125-0.25-0.3125-0.40625-0.3125h-0.48438v-0.8125l0.79688-0.73438 1.1875 1.5469c-0.35938 0-0.5625 0-0.5625 0.3125 0 0.29688 0.25 0.29688 0.40625 0.29688h1.1719c0.15625 0 0.40625 0 0.40625-0.29688 0-0.3125-0.25-0.3125-0.40625-0.3125h-0.3125z"/>
</g>
<g id="n">
<path d="m1.6562-2.625c0-0.59375 0.57812-1.125 1.2031-1.125 0.73438 0 1.3125 0.73438 1.3125 1.5938 0 0.95312-0.6875 1.6094-1.3906 1.6094-0.78125 0-1.125-0.875-1.125-1.3594zm0 2.1719c0.40625 0.42188 0.84375 0.51562 1.1562 0.51562 1.0781 0 2.0469-0.95312 2.0469-2.2188 0-1.2188-0.875-2.2031-1.9375-2.2031-0.48438 0-0.92188 0.1875-1.2656 0.48438 0-0.28125-0.015625-0.42188-0.40625-0.42188h-0.71875c-0.15625 0-0.40625 0-0.40625 0.3125 0 0.29688 0.25 0.29688 0.39062 0.29688h0.45312v5.2969h-0.4375c-0.15625 0-0.40625 0-0.40625 0.29688 0 0.3125 0.25 0.3125 0.39062 0.3125h1.5938c0.14062 0 0.39062 0 0.39062-0.3125 0-0.29688-0.25-0.29688-0.40625-0.29688h-0.4375z"/>
</g>
<g id="af">
<path d="m2.8125-0.03125c-0.15625 0.625-0.625 0.78125-0.73438 0.8125s-0.28125 0.09375-0.28125 0.28125c0 0.15625 0.14062 0.32812 0.3125 0.32812 0.32812 0 1.3438-0.54688 1.3438-1.6406 0-0.60938-0.39062-1-0.82812-1-0.40625 0-0.625 0.29688-0.625 0.625 0 0.375 0.28125 0.625 0.60938 0.625 0.0625 0 0.125-0.015625 0.20312-0.03125z"/>
</g>
<g id="ar">
<path d="m3.5625-0.3125c0.015625 0.3125 0.21875 0.3125 0.40625 0.3125h0.71875c0.17188 0 0.42188 0 0.42188-0.3125 0-0.29688-0.26562-0.29688-0.40625-0.29688h-0.45312v-3.2812c0-0.3125-0.046875-0.40625-0.39062-0.40625h-0.73438c-0.15625 0-0.40625 0-0.40625 0.3125 0 0.29688 0.26562 0.29688 0.40625 0.29688h0.4375v2.125c0 0.89062-0.79688 1.0156-1.125 1.0156-0.78125 0-0.78125-0.32812-0.78125-0.65625v-2.6875c0-0.3125-0.0625-0.40625-0.40625-0.40625h-0.71875c-0.15625 0-0.40625 0-0.40625 0.3125 0 0.29688 0.25 0.29688 0.39062 0.29688h0.45312v2.5469c0 0.96875 0.6875 1.2031 1.4062 1.2031 0.42188 0 0.82812-0.10938 1.1875-0.375z"/>
</g>
<g id="aq">
<path d="m2.8594-2.2188 1.1406-1.4688h0.39062c0.14062 0 0.42188 0 0.42188-0.29688 0-0.3125-0.26562-0.3125-0.42188-0.3125h-1.1562c-0.15625 0-0.40625 0-0.40625 0.29688 0 0.3125 0.21875 0.3125 0.48438 0.3125l-0.73438 1-0.75-1c0.25 0 0.46875 0 0.46875-0.3125 0-0.29688-0.25-0.29688-0.39062-0.29688h-1.1719c-0.14062 0-0.40625 0-0.40625 0.3125 0 0.29688 0.26562 0.29688 0.40625 0.29688h0.40625l1.1719 1.4688-1.2344 1.6094h-0.40625c-0.14062 0-0.40625 0-0.40625 0.3125 0 0.29688 0.26562 0.29688 0.40625 0.29688h1.1719c0.15625 0 0.40625 0 0.40625-0.29688 0-0.3125-0.21875-0.3125-0.53125-0.3125l0.85938-1.2188 0.89062 1.2188c-0.28125 0-0.5 0-0.5 0.3125 0 0.29688 0.25 0.29688 0.40625 0.29688h1.1562c0.14062 0 0.40625 0 0.40625-0.29688 0-0.3125-0.25-0.3125-0.40625-0.3125h-0.39062z"/>
</g>
<g id="ae">
<path d="m4.6406-1.0938c0-0.26562-0.28125-0.26562-0.34375-0.26562-0.15625 0-0.26562 0.015625-0.32812 0.21875-0.0625 0.125-0.25 0.59375-0.98438 0.59375-0.84375 0-1.5625-0.70312-1.5625-1.6094 0-0.46875 0.26562-1.625 1.625-1.625 0.20312 0 0.59375 0 0.59375 0.09375 0.015625 0.34375 0.20312 0.48438 0.4375 0.48438s0.45312-0.17188 0.45312-0.45312c0-0.73438-1.0469-0.73438-1.4844-0.73438-1.7188 0-2.3125 1.3594-2.3125 2.2344 0 1.2031 0.9375 2.2188 2.1875 2.2188 1.3906 0 1.7188-0.98438 1.7188-1.1562z"/>
</g>
<g id="ap">
<path d="m2.9531-5.6875c0-0.29688-0.046875-0.40625-0.39062-0.40625h-1.5781c-0.15625 0-0.40625 0-0.40625 0.3125 0 0.29688 0.26562 0.29688 0.40625 0.29688h1.2812v4.875h-1.2812c-0.15625 0-0.40625 0-0.40625 0.3125 0 0.29688 0.26562 0.29688 0.40625 0.29688h3.2656c0.15625 0 0.40625 0 0.40625-0.29688 0-0.3125-0.23438-0.3125-0.40625-0.3125h-1.2969z"/>
</g>
<g id="ad">
<path d="m3.0781-3.8906c0-0.3125-0.0625-0.40625-0.39062-0.40625h-1.4219c-0.15625 0-0.40625 0-0.40625 0.29688 0 0.3125 0.25 0.3125 0.40625 0.3125h1.125v3.0781h-1.2031c-0.15625 0-0.40625 0-0.40625 0.3125 0 0.29688 0.25 0.29688 0.40625 0.29688h2.9375c0.15625 0 0.40625 0 0.40625-0.29688 0-0.3125-0.25-0.3125-0.40625-0.3125h-1.0469zm0-1.7188c0-0.26562-0.21875-0.48438-0.5-0.48438s-0.5 0.21875-0.5 0.48438c0 0.28125 0.21875 0.5 0.5 0.5s0.5-0.21875 0.5-0.5z"/>
</g>
<g id="ac">
<path d="m4.2812-3.6875h0.29688c0.15625 0 0.40625 0 0.40625-0.29688 0-0.3125-0.23438-0.3125-0.40625-0.3125h-1.1562c-0.15625 0-0.40625 0-0.40625 0.29688 0 0.3125 0.25 0.3125 0.40625 0.3125h0.28125l-1.0938 3.2031-1.0781-3.2031h0.26562c0.15625 0 0.40625 0 0.40625-0.29688 0-0.3125-0.23438-0.3125-0.40625-0.3125h-1.1562c-0.15625 0-0.40625 0-0.40625 0.3125 0 0.29688 0.25 0.29688 0.40625 0.29688h0.29688l1.1406 3.3906c0.125 0.34375 0.32812 0.34375 0.53125 0.34375 0.1875 0 0.42188 0 0.53125-0.34375z"/>
</g>
<g id="z">
<path d="m9.0625-5.8281c0.17188-0.57812 0.60938-0.67188 1-0.67188v-0.3125c-0.29688 0.03125-0.60938 0.03125-0.90625 0.03125s-0.9375-0.015625-1.1875-0.03125v0.3125c0.67188 0.015625 0.85938 0.34375 0.85938 0.53125 0 0.0625-0.03125 0.14062-0.046875 0.20312l-1.5 4.5938-1.5938-4.875c0-0.046875-0.03125-0.10938-0.03125-0.15625 0-0.29688 0.57812-0.29688 0.84375-0.29688v-0.3125c-0.35938 0.03125-1.0312 0.03125-1.4219 0.03125-0.375 0-0.79688-0.015625-1.2031-0.03125v0.3125c0.5625 0 0.76562 0 0.89062 0.35938l0.21875 0.70312-1.3906 4.2656-1.5938-4.9062c-0.015625-0.015625-0.03125-0.09375-0.03125-0.125 0-0.29688 0.57812-0.29688 0.84375-0.29688v-0.3125c-0.35938 0.03125-1.0312 0.03125-1.4219 0.03125-0.375 0-0.79688-0.015625-1.2188-0.03125v0.3125c0.75 0 0.79688 0.046875 0.92188 0.42188l1.9844 6.1094c0.03125 0.09375 0.0625 0.1875 0.1875 0.1875 0.14062 0 0.15625-0.0625 0.20312-0.20312l1.6406-5.0625 1.6562 5.0781c0.03125 0.09375 0.0625 0.1875 0.1875 0.1875 0.14062 0 0.17188-0.0625 0.20312-0.20312z"/>
</g>
<g id="h">
<path d="m3.3125-0.75c0.046875 0.39062 0.3125 0.8125 0.78125 0.8125 0.21875 0 0.82812-0.14062 0.82812-0.95312v-0.5625h-0.25v0.5625c0 0.57812-0.25 0.64062-0.35938 0.64062-0.32812 0-0.375-0.45312-0.375-0.5v-1.9844c0-0.42188 0-0.8125-0.35938-1.1875-0.39062-0.39062-0.89062-0.54688-1.3594-0.54688-0.82812 0-1.5156 0.46875-1.5156 1.125 0 0.29688 0.20312 0.46875 0.46875 0.46875 0.28125 0 0.45312-0.20312 0.45312-0.45312 0-0.125-0.046875-0.45312-0.51562-0.45312 0.28125-0.35938 0.76562-0.46875 1.0781-0.46875 0.5 0 1.0625 0.39062 1.0625 1.2812v0.35938c-0.51562 0.03125-1.2031 0.0625-1.8281 0.35938-0.75 0.34375-1 0.85938-1 1.2969 0 0.8125 0.96875 1.0625 1.5938 1.0625 0.65625 0 1.1094-0.40625 1.2969-0.85938zm-0.0625-1.6406v1c0 0.9375-0.71875 1.2812-1.1719 1.2812-0.48438 0-0.89062-0.34375-0.89062-0.84375 0-0.54688 0.42188-1.375 2.0625-1.4375z"/>
</g>
<g id="d">
<path d="m1.6719-3.3125v-1.0938l-1.3906 0.10938v0.3125c0.70312 0 0.78125 0.0625 0.78125 0.5625v2.6719c0 0.4375-0.10938 0.4375-0.78125 0.4375v0.3125c0.39062-0.015625 0.85938-0.03125 1.1406-0.03125 0.39062 0 0.85938 0 1.2656 0.03125v-0.3125h-0.21875c-0.73438 0-0.75-0.10938-0.75-0.46875v-1.5312c0-0.98438 0.42188-1.875 1.1719-1.875 0.0625 0 0.09375 0 0.10938 0.015625-0.03125 0-0.23438 0.125-0.23438 0.39062s0.21875 0.42188 0.4375 0.42188c0.17188 0 0.42188-0.125 0.42188-0.4375s-0.3125-0.60938-0.73438-0.60938c-0.73438 0-1.0938 0.67188-1.2188 1.0938z"/>
</g>
<g id="q">
<path d="m1.7188-3.9844h1.4375v-0.3125h-1.4375v-1.8281h-0.25c0 0.8125-0.29688 1.875-1.2812 1.9219v0.21875h0.84375v2.75c0 1.2188 0.9375 1.3438 1.2969 1.3438 0.70312 0 0.98438-0.70312 0.98438-1.3438v-0.5625h-0.25v0.54688c0 0.73438-0.29688 1.1094-0.67188 1.1094-0.67188 0-0.67188-0.90625-0.67188-1.0781z"/>
</g>
<g id="g">
<path d="m1.1094-2.5156c0.0625-1.4844 0.90625-1.7344 1.25-1.7344 1.0156 0 1.125 1.3438 1.125 1.7344zm0 0.21875h2.7812c0.21875 0 0.25 0 0.25-0.21875 0-0.98438-0.54688-1.9531-1.7812-1.9531-1.1562 0-2.0781 1.0312-2.0781 2.2812 0 1.3281 1.0469 2.2969 2.1875 2.2969 1.2188 0 1.6719-1.1094 1.6719-1.2969 0-0.09375-0.078125-0.125-0.14062-0.125-0.078125 0-0.10938 0.0625-0.125 0.14062-0.34375 1.0312-1.25 1.0312-1.3438 1.0312-0.5 0-0.89062-0.29688-1.125-0.67188-0.29688-0.46875-0.29688-1.125-0.29688-1.4844z"/>
</g>
<g id="f">
<path d="m3.8906-0.78125v0.89062l1.4375-0.10938v-0.3125c-0.6875 0-0.76562-0.0625-0.76562-0.5625v-3.5312l-1.4688 0.10938v0.3125c0.6875 0 0.78125 0.0625 0.78125 0.5625v1.7656c0 0.875-0.48438 1.5469-1.2188 1.5469-0.82812 0-0.875-0.46875-0.875-0.98438v-3.3125l-1.4688 0.10938v0.3125c0.78125 0 0.78125 0.03125 0.78125 0.90625v1.5c0 0.78125 0 1.6875 1.5156 1.6875 0.5625 0 1-0.28125 1.2812-0.89062z"/>
</g>
<g id="i">
<path d="m1.75-4.2969v-1.1562c0-0.875 0.46875-1.3594 0.90625-1.3594 0.03125 0 0.1875 0 0.32812 0.078125-0.10938 0.03125-0.29688 0.17188-0.29688 0.42188 0 0.21875 0.15625 0.42188 0.4375 0.42188s0.4375-0.20312 0.4375-0.4375c0-0.375-0.375-0.70312-0.90625-0.70312-0.6875 0-1.5469 0.53125-1.5469 1.5938v1.1406h-0.78125v0.3125h0.78125v3.2344c0 0.4375-0.10938 0.4375-0.76562 0.4375v0.3125c0.39062-0.015625 0.85938-0.03125 1.125-0.03125 0.40625 0 0.875 0 1.2656 0.03125v-0.3125h-0.20312c-0.73438 0-0.75-0.10938-0.75-0.46875v-3.2031h1.125v-0.3125z"/>
</g>
<g id="t">
<path d="m3.9688-6.9375c-0.046875-0.125-0.078125-0.20312-0.23438-0.20312s-0.1875 0.0625-0.23438 0.20312l-2.0625 5.9531c-0.1875 0.51562-0.57812 0.67188-1.125 0.67188v0.3125c0.23438-0.015625 0.67188-0.03125 1.0156-0.03125 0.3125 0 0.82812 0.015625 1.1562 0.03125v-0.3125c-0.5 0-0.75-0.25-0.75-0.5 0-0.03125 0.015625-0.14062 0.015625-0.15625l0.46875-1.2969h2.4531l0.53125 1.5156c0.015625 0.046875 0.03125 0.10938 0.03125 0.14062 0 0.29688-0.5625 0.29688-0.82812 0.29688v0.3125c0.35938-0.03125 1.0625-0.03125 1.4375-0.03125 0.42188 0 0.89062 0.015625 1.2969 0.03125v-0.3125h-0.17188c-0.59375 0-0.73438-0.0625-0.84375-0.39062zm-0.53125 1.1094 1.125 3.25h-2.2344z"/>
</g>
<g id="p">
<path d="m3.7812-0.54688v0.65625l1.4688-0.10938v-0.3125c-0.6875 0-0.78125-0.0625-0.78125-0.5625v-6.0469l-1.4219 0.10938v0.3125c0.6875 0 0.76562 0.0625 0.76562 0.5625v2.1562c-0.28125-0.35938-0.71875-0.625-1.25-0.625-1.1719 0-2.2188 0.98438-2.2188 2.2656 0 1.2656 0.96875 2.25 2.1094 2.25 0.64062 0 1.0781-0.34375 1.3281-0.65625zm0-2.6719v2.0469c0 0.17188 0 0.1875-0.10938 0.35938-0.29688 0.48438-0.73438 0.70312-1.1719 0.70312-0.45312 0-0.8125-0.26562-1.0469-0.64062-0.25-0.40625-0.28125-0.96875-0.28125-1.3906 0-0.35938 0.015625-0.95312 0.29688-1.4062 0.21875-0.3125 0.59375-0.64062 1.1406-0.64062 0.34375 0 0.76562 0.15625 1.0625 0.59375 0.10938 0.17188 0.10938 0.1875 0.10938 0.375z"/>
</g>
<g id="y">
<path d="m1.1719-2.1719c0-1.625 0.8125-2.0469 1.3438-2.0469 0.09375 0 0.71875 0.015625 1.0625 0.375-0.40625 0.03125-0.46875 0.32812-0.46875 0.45312 0 0.26562 0.1875 0.45312 0.45312 0.45312s0.46875-0.15625 0.46875-0.46875c0-0.67188-0.76562-1.0625-1.5312-1.0625-1.25 0-2.1562 1.0781-2.1562 2.3125 0 1.2812 0.98438 2.2656 2.1406 2.2656 1.3281 0 1.6562-1.2031 1.6562-1.2969s-0.10938-0.09375-0.14062-0.09375c-0.078125 0-0.10938 0.03125-0.125 0.09375-0.28125 0.92188-0.9375 1.0469-1.2969 1.0469-0.53125 0-1.4062-0.42188-1.4062-2.0312z"/>
</g>
<g id="x">
<path d="m1.0938-0.75c0 0.4375-0.10938 0.4375-0.78125 0.4375v0.3125c0.35938-0.015625 0.85938-0.03125 1.1406-0.03125 0.25 0 0.76562 0.015625 1.1094 0.03125v-0.3125c-0.67188 0-0.78125 0-0.78125-0.4375v-1.8438c0-1.0312 0.71875-1.5938 1.3438-1.5938 0.64062 0 0.75 0.53125 0.75 1.1094v2.3281c0 0.4375-0.10938 0.4375-0.78125 0.4375v0.3125c0.34375-0.015625 0.85938-0.03125 1.125-0.03125 0.25 0 0.78125 0.015625 1.1094 0.03125v-0.3125c-0.51562 0-0.76562 0-0.76562-0.29688v-1.9062c0-0.85938 0-1.1562-0.3125-1.5156-0.14062-0.17188-0.46875-0.375-1.0469-0.375-0.84375 0-1.2812 0.59375-1.4531 0.98438v-3.5l-1.4375 0.10938v0.3125c0.70312 0 0.78125 0.0625 0.78125 0.5625z"/>
</g>
<g id="w">
<path d="m3.4844-3.875-1.2812-0.29688c-0.625-0.15625-1-0.6875-1-1.2656 0-0.70312 0.53125-1.3125 1.3125-1.3125 1.6562 0 1.875 1.6406 1.9375 2.0781 0.015625 0.0625 0.015625 0.125 0.125 0.125 0.125 0 0.125-0.046875 0.125-0.23438v-2c0-0.17188 0-0.25-0.10938-0.25-0.0625 0-0.078125 0.015625-0.14062 0.14062l-0.35938 0.5625c-0.29688-0.29688-0.70312-0.70312-1.5938-0.70312-1.1094 0-1.9375 0.875-1.9375 1.9375 0 0.82812 0.53125 1.5625 1.2969 1.8281 0.10938 0.03125 0.625 0.15625 1.3281 0.32812 0.26562 0.0625 0.5625 0.14062 0.84375 0.5 0.20312 0.26562 0.3125 0.59375 0.3125 0.92188 0 0.70312-0.5 1.4219-1.3438 1.4219-0.28125 0-1.0469-0.046875-1.5781-0.53125-0.57812-0.54688-0.60938-1.1719-0.60938-1.5312-0.015625-0.10938-0.09375-0.10938-0.125-0.10938-0.125 0-0.125 0.078125-0.125 0.25v2c0 0.17188 0 0.23438 0.10938 0.23438 0.0625 0 0.078125-0.015625 0.14062-0.125 0-0.015625 0.03125-0.046875 0.35938-0.57812 0.3125 0.34375 0.95312 0.70312 1.8438 0.70312 1.1562 0 1.9531-0.96875 1.9531-2.0781 0-0.98438-0.65625-1.8125-1.4844-2.0156z"/>
</g>
<g id="m">
<path d="m1.0938-3.4219v2.6719c0 0.4375-0.10938 0.4375-0.78125 0.4375v0.3125c0.35938-0.015625 0.85938-0.03125 1.1406-0.03125 0.25 0 0.76562 0.015625 1.1094 0.03125v-0.3125c-0.67188 0-0.78125 0-0.78125-0.4375v-1.8438c0-1.0312 0.71875-1.5938 1.3438-1.5938 0.64062 0 0.75 0.53125 0.75 1.1094v2.3281c0 0.4375-0.10938 0.4375-0.78125 0.4375v0.3125c0.34375-0.015625 0.85938-0.03125 1.125-0.03125 0.25 0 0.78125 0.015625 1.1094 0.03125v-0.3125c-0.51562 0-0.76562 0-0.76562-0.29688v-1.9062c0-0.85938 0-1.1562-0.3125-1.5156-0.14062-0.17188-0.46875-0.375-1.0469-0.375-0.73438 0-1.2031 0.42188-1.4844 1.0469v-1.0469l-1.4062 0.10938v0.3125c0.70312 0 0.78125 0.0625 0.78125 0.5625z"/>
</g>
<g id="ao">
<path d="m2.75-1.8594v-0.57812h-2.6406v0.57812z"/>
</g>
<g id="an">
<path d="m1.3594-0.78125c0 0.35938-0.03125 0.46875-0.79688 0.46875h-0.23438v0.3125h5.75l0.42188-2.5781h-0.25c-0.25 1.5469-0.48438 2.2656-2.1875 2.2656h-1.3281c-0.46875 0-0.48438-0.0625-0.48438-0.39062v-2.6719h0.89062c0.96875 0 1.0781 0.32812 1.0781 1.1719h0.25v-2.6406h-0.25c0 0.85938-0.10938 1.1719-1.0781 1.1719h-0.89062v-2.4062c0-0.32812 0.015625-0.39062 0.48438-0.39062h1.2812c1.5312 0 1.7969 0.54688 1.9531 1.9375h0.25l-0.28125-2.25h-5.6094v0.3125h0.23438c0.76562 0 0.79688 0.10938 0.79688 0.46875z"/>
</g>
<g id="am">
<path d="m1.0938-3.4219v2.6719c0 0.4375-0.10938 0.4375-0.78125 0.4375v0.3125c0.35938-0.015625 0.85938-0.03125 1.1406-0.03125 0.25 0 0.76562 0.015625 1.1094 0.03125v-0.3125c-0.67188 0-0.78125 0-0.78125-0.4375v-1.8438c0-1.0312 0.71875-1.5938 1.3438-1.5938 0.64062 0 0.75 0.53125 0.75 1.1094v2.3281c0 0.4375-0.10938 0.4375-0.78125 0.4375v0.3125c0.34375-0.015625 0.85938-0.03125 1.125-0.03125 0.25 0 0.78125 0.015625 1.1094 0.03125v-0.3125c-0.65625 0-0.76562 0-0.76562-0.4375v-1.8438c0-1.0312 0.70312-1.5938 1.3438-1.5938 0.625 0 0.73438 0.53125 0.73438 1.1094v2.3281c0 0.4375-0.10938 0.4375-0.78125 0.4375v0.3125c0.34375-0.015625 0.85938-0.03125 1.125-0.03125s0.78125 0.015625 1.125 0.03125v-0.3125c-0.51562 0-0.76562 0-0.78125-0.29688v-1.9062c0-0.85938 0-1.1562-0.3125-1.5156-0.14062-0.17188-0.46875-0.375-1.0469-0.375-0.82812 0-1.2812 0.59375-1.4375 0.98438-0.14062-0.875-0.875-0.98438-1.3281-0.98438-0.73438 0-1.2031 0.42188-1.4844 1.0469v-1.0469l-1.4062 0.10938v0.3125c0.70312 0 0.78125 0.0625 0.78125 0.5625z"/>
</g>
<g id="v">
<path d="m1.7188-3.75v-0.65625l-1.4375 0.10938v0.3125c0.70312 0 0.78125 0.0625 0.78125 0.5v4.6562c0 0.45312-0.10938 0.45312-0.78125 0.45312v0.3125c0.34375-0.015625 0.85938-0.03125 1.1094-0.03125 0.28125 0 0.78125 0.015625 1.125 0.03125v-0.3125c-0.65625 0-0.76562 0-0.76562-0.45312v-1.7656c0.046875 0.17188 0.46875 0.70312 1.2188 0.70312 1.1875 0 2.2188-0.98438 2.2188-2.2656 0-1.2656-0.95312-2.25-2.0781-2.25-0.78125 0-1.2031 0.4375-1.3906 0.65625zm0.03125 2.6094v-2.2188c0.28125-0.51562 0.76562-0.79688 1.2812-0.79688 0.73438 0 1.3281 0.875 1.3281 2 0 1.2031-0.6875 2.0469-1.4219 2.0469-0.40625 0-0.78125-0.20312-1.0469-0.60938-0.14062-0.20312-0.14062-0.21875-0.14062-0.42188z"/>
</g>
<g id="u">
<path d="m2.0312-6.1719c0-0.23438-0.20312-0.5-0.5-0.5-0.28125 0-0.5 0.21875-0.5 0.5s0.21875 0.5 0.5 0.5c0.29688 0 0.5-0.26562 0.5-0.5zm1.9219 0c0-0.28125-0.21875-0.5-0.5-0.5-0.29688 0-0.5 0.26562-0.5 0.5s0.20312 0.5 0.5 0.5c0.28125 0 0.5-0.21875 0.5-0.5z"/>
</g>
<g id="s">
<path d="m2.2188-1.7188c-0.875 0-0.875-1-0.875-1.2188 0-0.26562 0.015625-0.59375 0.15625-0.84375 0.078125-0.10938 0.3125-0.39062 0.71875-0.39062 0.85938 0 0.85938 0.98438 0.85938 1.2188 0 0.26562 0 0.59375-0.15625 0.84375-0.078125 0.10938-0.3125 0.39062-0.70312 0.39062zm-1.1562 0.39062c0-0.03125 0-0.26562 0.15625-0.46875 0.39062 0.28125 0.8125 0.3125 1 0.3125 0.92188 0 1.6094-0.6875 1.6094-1.4531 0-0.375-0.15625-0.73438-0.40625-0.96875 0.35938-0.34375 0.71875-0.39062 0.89062-0.39062 0.03125 0 0.078125 0 0.10938 0.015625-0.10938 0.03125-0.17188 0.14062-0.17188 0.26562 0 0.17188 0.14062 0.28125 0.29688 0.28125 0.09375 0 0.28125-0.0625 0.28125-0.29688 0-0.17188-0.10938-0.48438-0.5-0.48438-0.20312 0-0.64062 0.0625-1.0625 0.46875-0.42188-0.32812-0.82812-0.35938-1.0469-0.35938-0.9375 0-1.625 0.6875-1.625 1.4531 0 0.4375 0.21875 0.8125 0.46875 1.0312-0.125 0.14062-0.3125 0.46875-0.3125 0.82812 0 0.3125 0.14062 0.6875 0.45312 0.89062-0.60938 0.15625-0.92188 0.59375-0.92188 0.98438 0 0.71875 0.98438 1.2656 2.2031 1.2656 1.1719 0 2.2031-0.5 2.2031-1.2812 0-0.34375-0.125-0.85938-0.64062-1.1406-0.53125-0.26562-1.1094-0.26562-1.7188-0.26562-0.25 0-0.67188 0-0.75-0.015625-0.3125-0.046875-0.51562-0.34375-0.51562-0.67188zm1.4375 3.1562c-1.0156 0-1.7031-0.51562-1.7031-1.0469 0-0.45312 0.375-0.82812 0.8125-0.84375h0.59375c0.85938 0 1.9688 0 1.9688 0.84375 0 0.54688-0.70312 1.0469-1.6719 1.0469z"/>
</g>
<g id="al">
<path d="m5.7969-2.2969c0 1.4062-0.96875 2.2031-1.9062 2.2031-0.46875 0-1.6406-0.25-1.6406-2.1406v-3.7969c0-0.35938 0.015625-0.46875 0.78125-0.46875h0.23438v-0.3125c-0.34375 0.03125-1.0781 0.03125-1.4688 0.03125-0.375 0-1.125 0-1.4688-0.03125v0.3125h0.23438c0.76562 0 0.79688 0.10938 0.79688 0.46875v3.7656c0 1.3906 1.1562 2.4844 2.5156 2.4844 1.1406 0 2.0312-0.92188 2.2031-2.0625 0.03125-0.20312 0.03125-0.29688 0.03125-0.6875v-3.1875c0-0.32812 0-0.78125 1.0312-0.78125v-0.3125c-0.35938 0.015625-0.84375 0.03125-1.1719 0.03125-0.35938 0-0.82812-0.015625-1.1875-0.03125v0.3125c1.0156 0 1.0156 0.46875 1.0156 0.73438z"/>
</g>
<g id="ak">
<path d="m1.7188-3.7656v-3.1562l-1.4375 0.10938v0.3125c0.70312 0 0.78125 0.0625 0.78125 0.5625v5.9375h0.25c0-0.015625 0.078125-0.15625 0.35938-0.625 0.14062 0.23438 0.5625 0.73438 1.2969 0.73438 1.1875 0 2.2188-0.98438 2.2188-2.2656 0-1.2656-0.96875-2.25-2.1094-2.25-0.78125 0-1.2031 0.46875-1.3594 0.64062zm0.03125 2.625v-2.0469c0-0.1875 0-0.20312 0.10938-0.35938 0.39062-0.5625 0.9375-0.64062 1.1719-0.64062 0.45312 0 0.8125 0.26562 1.0469 0.64062 0.26562 0.40625 0.28125 0.96875 0.28125 1.3906 0 0.35938-0.015625 0.95312-0.29688 1.4062-0.21875 0.3125-0.59375 0.64062-1.125 0.64062-0.45312 0-0.8125-0.23438-1.0469-0.60938-0.14062-0.20312-0.14062-0.23438-0.14062-0.42188z"/>
</g>
<g id="r">
<path d="m2.0781-1.9375c0.21875 0.046875 1.0312 0.20312 1.0312 0.92188 0 0.5-0.34375 0.90625-1.125 0.90625-0.84375 0-1.2031-0.5625-1.3906-1.4219-0.03125-0.125-0.03125-0.15625-0.14062-0.15625-0.125 0-0.125 0.0625-0.125 0.23438v1.3281c0 0.17188 0 0.23438 0.10938 0.23438 0.046875 0 0.0625-0.015625 0.25-0.20312 0.015625-0.015625 0.015625-0.03125 0.20312-0.21875 0.4375 0.40625 0.89062 0.42188 1.0938 0.42188 1.1406 0 1.6094-0.67188 1.6094-1.3906 0-0.51562-0.29688-0.82812-0.42188-0.9375-0.32812-0.32812-0.71875-0.40625-1.1406-0.48438-0.5625-0.10938-1.2188-0.23438-1.2188-0.8125 0-0.35938 0.25-0.76562 1.1094-0.76562 1.0938 0 1.1562 0.90625 1.1719 1.2031 0 0.09375 0.09375 0.09375 0.10938 0.09375 0.14062 0 0.14062-0.046875 0.14062-0.23438v-1.0156c0-0.15625 0-0.23438-0.10938-0.23438-0.046875 0-0.078125 0-0.20312 0.125-0.03125 0.03125-0.125 0.125-0.17188 0.15625-0.375-0.28125-0.78125-0.28125-0.9375-0.28125-1.2188 0-1.5938 0.67188-1.5938 1.2344 0 0.34375 0.15625 0.625 0.42188 0.84375 0.32812 0.25 0.60938 0.3125 1.3281 0.45312z"/>
</g>
<g id="aj">
<path d="m1.0625-0.75c0 0.4375-0.10938 0.4375-0.78125 0.4375v0.3125c0.32812-0.015625 0.79688-0.03125 1.0781-0.03125 0.3125 0 0.70312 0.015625 1.1094 0.03125v-0.3125c-0.67188 0-0.78125 0-0.78125-0.4375v-1.0312l0.64062-0.54688c0.76562 1.0469 1.1875 1.6094 1.1875 1.7969s-0.17188 0.21875-0.35938 0.21875v0.3125c0.26562-0.015625 0.85938-0.03125 1.0781-0.03125 0.28125 0 0.57812 0.015625 0.85938 0.03125v-0.3125c-0.375 0-0.59375 0-0.96875-0.53125l-1.2656-1.7812c-0.015625-0.015625-0.0625-0.078125-0.0625-0.10938s0.71875-0.64062 0.8125-0.71875c0.625-0.5 1.0469-0.53125 1.25-0.53125v-0.3125c-0.28125 0.03125-0.40625 0.03125-0.6875 0.03125-0.35938 0-0.98438-0.015625-1.125-0.03125v0.3125c0.1875 0 0.29688 0.10938 0.29688 0.25 0 0.20312-0.14062 0.3125-0.21875 0.39062l-1.4062 1.2031v-4.7812l-1.4375 0.10938v0.3125c0.70312 0 0.78125 0.0625 0.78125 0.5625z"/>
</g>
<g id="ai">
<path d="m1.7656-6.9219-1.4375 0.10938v0.3125c0.70312 0 0.78125 0.0625 0.78125 0.5625v5.1875c0 0.4375-0.10938 0.4375-0.78125 0.4375v0.3125c0.32812-0.015625 0.85938-0.03125 1.1094-0.03125s0.73438 0.015625 1.1094 0.03125v-0.3125c-0.67188 0-0.78125 0-0.78125-0.4375z"/>
</g>
<g id="ah">
<path d="m4.6875-2.1406c0-1.2656-0.98438-2.3281-2.1875-2.3281-1.25 0-2.2188 1.0938-2.2188 2.3281 0 1.2969 1.0312 2.25 2.2031 2.25 1.2031 0 2.2031-0.98438 2.2031-2.25zm-2.1875 2c-0.4375 0-0.875-0.20312-1.1406-0.67188-0.25-0.4375-0.25-1.0469-0.25-1.4062 0-0.39062 0-0.92188 0.23438-1.3594 0.26562-0.45312 0.73438-0.67188 1.1406-0.67188 0.4375 0 0.85938 0.21875 1.125 0.65625 0.26562 0.42188 0.26562 1 0.26562 1.375 0 0.35938 0 0.90625-0.21875 1.3438-0.23438 0.45312-0.67188 0.73438-1.1562 0.73438z"/>
</g>
<g id="ag">
<path d="m3.8906-4c0.09375-0.10938 0.09375-0.125 0.09375-0.17188 0-0.125-0.09375-0.125-0.26562-0.125h-3.1875l-0.10938 1.6094h0.25c0.0625-1.0156 0.25-1.3906 1.3438-1.3906h1.1406l-2.7812 3.7656c-0.09375 0.10938-0.09375 0.125-0.09375 0.17188 0 0.14062 0.0625 0.14062 0.25 0.14062h3.2969l0.17188-1.8594h-0.25c-0.09375 1.1719-0.29688 1.6094-1.4531 1.6094h-1.1875z"/>
</g>
<clipPath id="bc">
<path d="m25 132h67v88.637h-67z"/>
</clipPath>
<clipPath id="bb">
<path d="m37 89h13v12h-13z"/>
</clipPath>
<clipPath id="ba">
<path d="m0.52734-0.36328v221h207v-221zm45.293 94.836-4.4102-3.3086-2.2656 3.0273 4.4102 3.3047-2.6484-4.3438z" clip-rule="evenodd"/>
</clipPath>
<clipPath id="az">
<path d="m0.52734 135h78.473v85.637h-78.473z"/>
</clipPath>
<clipPath id="ay">
<path d="m0.52734 22h71.473v71h-71.473z"/>
</clipPath>
<clipPath id="ax">
<path d="m0.52734 15h78.473v85h-78.473z"/>
</clipPath>
<clipPath id="aw">
<path d="m38 210h12v10.637h-12z"/>
</clipPath>
<clipPath id="av">
<path d="m0.52734-0.36328v221h207v-221zm46.207 215.39-4.5664-3.1484-2.1406 3.1484 4.5977 3.1211-2.8359-4.2227z" clip-rule="evenodd"/>
</clipPath>
<clipPath id="au">
<path d="m38 210h13v10.637h-13z"/>
</clipPath>
<clipPath id="at">
<path d="m93 177h114.53v2h-114.53z"/>
</clipPath>
</defs>
<g clip-path="url(#bc)">
<path transform="matrix(.1 0 0 -.1 .528 220.64)" d="m873.78 426.25c0-234.84-133.28-425.23-297.7-425.23-164.38 0-297.66 190.39-297.66 425.23s133.28 425.23 297.66 425.23c164.41 0 297.7-190.39 297.7-425.23z" fill="none" stroke="#000" stroke-miterlimit="10" stroke-width="2.3625"/>
</g>
<g clip-path="url(#bb)">
<g clip-path="url(#ba)">
<path transform="matrix(.1 0 0 -.1 .528 220.64)" d="m457.96 1234.2-56.68 42.539" fill="none" stroke="#000" stroke-miterlimit="10" stroke-width="2.3625"/>
</g>
</g>
<path d="m45.82 94.473-4.9141-1.3203 2.6484 4.3438 0.375-2.0781 1.8906-0.94531" fill-rule="evenodd"/>
<path transform="matrix(.1 0 0 -.1 .528 220.64)" d="m452.92 1261.6-49.141 13.203 26.484-43.438 3.75 20.781z" fill="none" stroke="#000" stroke-miterlimit="10" stroke-width="2.3625"/>
<path transform="matrix(.1 0 0 -.1 .528 220.64)" d="m869.06 1631.1c0-234.88-133.28-425.27-297.7-425.27-164.38 0-297.66 190.39-297.66 425.27 0 234.84 133.28 425.23 297.66 425.23 164.41 0 297.7-190.39 297.7-425.23z" fill="none" stroke="#000" stroke-miterlimit="10" stroke-width="2.3625"/>
<path d="m72.312 178.01c0 19.57-15.867 35.438-35.438 35.438s-35.438-15.867-35.438-35.438c0-19.57 15.867-35.438 35.438-35.438s35.438 15.867 35.438 35.438" fill="#fff" fill-rule="evenodd"/>
<g clip-path="url(#az)">
<path transform="matrix(.1 0 0 -.1 .528 220.64)" d="m717.84 426.25c0-195.7-158.67-354.38-354.38-354.38s-354.38 158.67-354.38 354.38 158.67 354.38 354.38 354.38 354.38-158.67 354.38-354.38z" fill="none" stroke="#000" stroke-miterlimit="10" stroke-width="4.725"/>
</g>
<g clip-path="url(#ay)">
<path d="m71.84 57.523c0 19.574-15.867 35.438-35.438 35.438-19.57 0-35.438-15.863-35.438-35.438 0-19.57 15.867-35.438 35.438-35.438 19.57 0 35.438 15.867 35.438 35.438" fill="#fff" fill-rule="evenodd"/>
</g>
<g clip-path="url(#ax)">
<path transform="matrix(.1 0 0 -.1 .528 220.64)" d="m713.12 1631.1c0-195.74-158.67-354.38-354.38-354.38s-354.38 158.63-354.38 354.38c0 195.7 158.67 354.38 354.38 354.38s354.38-158.67 354.38-354.38z" fill="none" stroke="#000" stroke-miterlimit="10" stroke-width="4.725"/>
</g>
<path transform="matrix(.1 0 0 -.1 .528 220.64)" d="m925.74 1631.1h1134" fill="none" stroke="#000" stroke-miterlimit="10" stroke-width="2.3625"/>
<g clip-path="url(#aw)">
<g clip-path="url(#av)">
<path transform="matrix(.1 0 0 -.1 .528 220.64)" d="m454.52 38.479-44.727 30.547" fill="none" stroke="#000" stroke-miterlimit="10" stroke-width="2.3625"/>
</g>
</g>
<path d="m46.734 215.02-4.9453-1.1016 2.8359 4.2227 0.28125-2.1133 1.8281-1.0078" fill-rule="evenodd"/>
<g clip-path="url(#au)">
<path transform="matrix(.1 0 0 -.1 .528 220.64)" d="m462.06 56.136-49.453 11.016 28.359-42.227 2.8125 21.133z" fill="none" stroke="#000" stroke-miterlimit="10" stroke-width="2.3625"/>
</g>
<g clip-path="url(#at)">
<path transform="matrix(.1 0 0 -.1 .528 220.64)" d="m930.46 426.25h1134" fill="none" stroke="#000" stroke-miterlimit="10" stroke-width="2.3625"/>
</g>
<g>
<use x="93.133" y="53.193" xlink:href="#o"/>
<use x="98.363365" y="53.193" xlink:href="#e"/>
<use x="103.59373" y="53.193" xlink:href="#b"/>
</g>
<path transform="matrix(1 0 0 -1 109.45 52.994)" d="m-0.0017812 0.0018125h3.1406" fill="none" stroke="#000" stroke-miterlimit="10" stroke-width=".398"/>
<g>
<use x="112.59" y="53.193" xlink:href="#ab"/>
<use x="117.820365" y="53.193" xlink:href="#c"/>
<use x="123.05073" y="53.193" xlink:href="#aa"/>
<use x="128.281095" y="53.193" xlink:href="#e"/>
<use x="133.51146" y="53.193" xlink:href="#k"/>
<use x="138.741825" y="53.193" xlink:href="#e"/>
<use x="143.97219" y="53.193" xlink:href="#a"/>
<use x="149.202555" y="53.193" xlink:href="#b"/>
<use x="154.43292" y="53.193" xlink:href="#a"/>
<use x="159.663285" y="53.193" xlink:href="#j"/>
<use x="93.133" y="68.784" xlink:href="#as"/>
<use x="98.363365" y="68.784" xlink:href="#a"/>
<use x="103.59373" y="68.784" xlink:href="#l"/>
<use x="108.824095" y="68.784" xlink:href="#c"/>
</g>
<path transform="matrix(1 0 0 -1 114.68 68.585)" d="m0.0015938-9.375e-4h3.1367" fill="none" stroke="#000" stroke-miterlimit="10" stroke-width=".398"/>
<g>
<use x="117.82" y="68.784" xlink:href="#n"/>
<use x="123.050365" y="68.784" xlink:href="#a"/>
<use x="128.28073" y="68.784" xlink:href="#l"/>
<use x="133.511095" y="68.784" xlink:href="#c"/>
<use x="138.74146" y="68.784" xlink:href="#b"/>
<use x="143.971825" y="68.784" xlink:href="#k"/>
<use x="149.20219" y="68.784" xlink:href="#n"/>
<use x="154.432555" y="68.784" xlink:href="#a"/>
<use x="159.66292" y="68.784" xlink:href="#l"/>
<use x="164.893285" y="68.784" xlink:href="#c"/>
<use x="170.12365" y="68.784" xlink:href="#b"/>
<use x="175.354015" y="68.784" xlink:href="#af"/>
<use x="180.58438" y="68.784" xlink:href="#e"/>
<use x="185.814745" y="68.784" xlink:href="#a"/>
<use x="191.04511" y="68.784" xlink:href="#b"/>
<use x="196.275475" y="68.784" xlink:href="#a"/>
<use x="201.50584" y="68.784" xlink:href="#j"/>
<use x="93.133" y="81.069" xlink:href="#ar"/>
<use x="98.363365" y="81.069" xlink:href="#e"/>
<use x="103.59373" y="81.069" xlink:href="#b"/>
</g>
<path transform="matrix(1 0 0 -1 109.45 80.869)" d="m-0.0017812 0.0018125h3.1406" fill="none" stroke="#000" stroke-miterlimit="10" stroke-width=".398"/>
<g>
<use x="112.59" y="81.069" xlink:href="#ab"/>
<use x="117.820365" y="81.069" xlink:href="#c"/>
<use x="123.05073" y="81.069" xlink:href="#aa"/>
<use x="128.281095" y="81.069" xlink:href="#e"/>
<use x="133.51146" y="81.069" xlink:href="#k"/>
<use x="138.741825" y="81.069" xlink:href="#n"/>
<use x="143.97219" y="81.069" xlink:href="#a"/>
<use x="149.202555" y="81.069" xlink:href="#l"/>
<use x="154.43292" y="81.069" xlink:href="#c"/>
<use x="159.663285" y="81.069" xlink:href="#b"/>
<use x="164.89365" y="81.069" xlink:href="#j"/>
<use x="14.698" y="43.271" xlink:href="#z"/>
<use x="24.110664" y="43.271" xlink:href="#h"/>
<use x="29.091964" y="43.271" xlink:href="#d"/>
<use x="32.994315" y="43.271" xlink:href="#q"/>
<use x="36.86877" y="43.271" xlink:href="#g"/>
<use x="44.613695" y="43.271" xlink:href="#h"/>
<use x="49.594995" y="43.271" xlink:href="#f"/>
<use x="55.130216" y="43.271" xlink:href="#i"/>
<use x="8.181" y="55.555" xlink:href="#t"/>
<use x="15.65295" y="55.555" xlink:href="#f"/>
<use x="21.188171" y="55.555" xlink:href="#i"/>
<use x="24.232741" y="55.555" xlink:href="#d"/>
<use x="28.135092" y="55.555" xlink:href="#f"/>
<use x="33.670312" y="55.555" xlink:href="#i"/>
<use x="40.032428" y="55.555" xlink:href="#p"/>
<use x="45.567649" y="55.555" xlink:href="#f"/>
<use x="51.10287" y="55.555" xlink:href="#d"/>
<use x="55.00522" y="55.555" xlink:href="#y"/>
<use x="59.153647" y="55.555" xlink:href="#x"/>
<use x="20.095" y="67.839" xlink:href="#w"/>
<use x="25.630221" y="67.839" xlink:href="#g"/>
<use x="30.0576" y="67.839" xlink:href="#m"/>
<use x="35.592821" y="67.839" xlink:href="#p"/>
<use x="41.128041" y="67.839" xlink:href="#g"/>
<use x="45.555421" y="67.839" xlink:href="#d"/>
<use x="49.457771" y="67.839" xlink:href="#ao"/>
<use x="15.171" y="163.751" xlink:href="#z"/>
<use x="24.583664" y="163.751" xlink:href="#h"/>
<use x="29.564964" y="163.751" xlink:href="#d"/>
<use x="33.467315" y="163.751" xlink:href="#q"/>
<use x="37.34177" y="163.751" xlink:href="#g"/>
<use x="45.086695" y="163.751" xlink:href="#h"/>
<use x="50.067995" y="163.751" xlink:href="#f"/>
<use x="55.603216" y="163.751" xlink:href="#i"/>
<use x="13.164" y="128.316" xlink:href="#an"/>
<use x="19.944546" y="128.316" xlink:href="#am"/>
<use x="28.24638" y="128.316" xlink:href="#v"/>
<use x="33.781601" y="128.316" xlink:href="#i"/>
<use x="36.826" y="128.75" xlink:href="#u"/>
<use x="36.826" y="128.316" xlink:href="#h"/>
<use x="41.8073" y="128.316" xlink:href="#m"/>
<use x="47.342521" y="128.316" xlink:href="#s"/>
<use x="52.323821" y="128.316" xlink:href="#g"/>
<use x="56.7512" y="128.316" xlink:href="#d"/>
<use x="93.605" y="189.265" xlink:href="#c"/>
<use x="98.835365" y="189.265" xlink:href="#aq"/>
<use x="104.06573" y="189.265" xlink:href="#b"/>
<use x="109.296095" y="189.265" xlink:href="#o"/>
<use x="114.52646" y="189.265" xlink:href="#a"/>
<use x="119.756825" y="189.265" xlink:href="#ae"/>
<use x="124.98719" y="189.265" xlink:href="#b"/>
</g>
<path transform="matrix(1 0 0 -1 130.84 189.06)" d="m-0.00125-0.0014062h3.1406" fill="none" stroke="#000" stroke-miterlimit="10" stroke-width=".398"/>
<g>
<use x="133.984" y="189.265" xlink:href="#e"/>
<use x="139.214365" y="189.265" xlink:href="#a"/>
<use x="144.44473" y="189.265" xlink:href="#b"/>
<use x="149.675095" y="189.265" xlink:href="#a"/>
<use x="154.90546" y="189.265" xlink:href="#k"/>
<use x="160.135825" y="189.265" xlink:href="#n"/>
<use x="165.36619" y="189.265" xlink:href="#a"/>
<use x="170.596555" y="189.265" xlink:href="#l"/>
<use x="175.82692" y="189.265" xlink:href="#c"/>
<use x="181.057285" y="189.265" xlink:href="#b"/>
<use x="186.28765" y="189.265" xlink:href="#af"/>
<use x="191.518015" y="189.265" xlink:href="#e"/>
<use x="196.74838" y="189.265" xlink:href="#a"/>
<use x="201.978745" y="189.265" xlink:href="#b"/>
<use x="207.20911" y="189.265" xlink:href="#a"/>
<use x="212.439475" y="189.265" xlink:href="#j"/>
<use x="93.605" y="201.549" xlink:href="#e"/>
<use x="98.835365" y="201.549" xlink:href="#c"/>
<use x="104.06573" y="201.549" xlink:href="#ap"/>
<use x="109.296095" y="201.549" xlink:href="#ad"/>
<use x="114.52646" y="201.549" xlink:href="#ac"/>
<use x="119.756825" y="201.549" xlink:href="#c"/>
<use x="124.98719" y="201.549" xlink:href="#o"/>
</g>
<path transform="matrix(1 0 0 -1 130.84 201.35)" d="m-0.00125-0.0015625h3.1406" fill="none" stroke="#000" stroke-miterlimit="10" stroke-width=".398"/>
<g>
<use x="133.984" y="201.549" xlink:href="#e"/>
<use x="139.214365" y="201.549" xlink:href="#a"/>
<use x="144.44473" y="201.549" xlink:href="#b"/>
<use x="149.675095" y="201.549" xlink:href="#a"/>
<use x="154.90546" y="201.549" xlink:href="#k"/>
<use x="160.135825" y="201.549" xlink:href="#e"/>
<use x="165.36619" y="201.549" xlink:href="#a"/>
<use x="170.596555" y="201.549" xlink:href="#b"/>
<use x="175.82692" y="201.549" xlink:href="#a"/>
<use x="181.057285" y="201.549" xlink:href="#j"/>
<use x="8.654" y="176.035" xlink:href="#t"/>
<use x="16.12595" y="176.035" xlink:href="#f"/>
<use x="21.661171" y="176.035" xlink:href="#i"/>
<use x="24.705741" y="176.035" xlink:href="#d"/>
<use x="28.608092" y="176.035" xlink:href="#f"/>
<use x="34.143312" y="176.035" xlink:href="#i"/>
<use x="40.505428" y="176.035" xlink:href="#p"/>
<use x="46.040649" y="176.035" xlink:href="#f"/>
<use x="51.57587" y="176.035" xlink:href="#d"/>
<use x="55.47822" y="176.035" xlink:href="#y"/>
<use x="59.626647" y="176.035" xlink:href="#x"/>
<use x="8.487" y="186.235" xlink:href="#u"/>
<use x="7.242" y="188.32" xlink:href="#al"/>
<use x="14.71395" y="188.32" xlink:href="#ak"/>
<use x="20.528123" y="188.32" xlink:href="#g"/>
<use x="24.955503" y="188.32" xlink:href="#d"/>
<use x="28.857853" y="188.32" xlink:href="#q"/>
<use x="32.732308" y="188.32" xlink:href="#d"/>
<use x="36.634659" y="188.32" xlink:href="#h"/>
<use x="41.615959" y="188.32" xlink:href="#s"/>
<use x="46.597259" y="188.32" xlink:href="#f"/>
<use x="52.132479" y="188.32" xlink:href="#m"/>
<use x="57.6677" y="188.32" xlink:href="#s"/>
<use x="62.649" y="188.32" xlink:href="#r"/>
<use x="25.424" y="200.604" xlink:href="#aj"/>
<use x="30.124355" y="200.604" xlink:href="#h"/>
<use x="35.105655" y="200.604" xlink:href="#m"/>
<use x="40.640875" y="200.604" xlink:href="#h"/>
<use x="45.622175" y="200.604" xlink:href="#ai"/>
<use x="21.755" y="7.836" xlink:href="#w"/>
<use x="27.290221" y="7.836" xlink:href="#g"/>
<use x="31.7176" y="7.836" xlink:href="#m"/>
<use x="37.252821" y="7.836" xlink:href="#p"/>
<use x="42.788041" y="7.836" xlink:href="#g"/>
<use x="47.215421" y="7.836" xlink:href="#d"/>
<use x="93.605" y="173.673" xlink:href="#o"/>
<use x="98.835365" y="173.673" xlink:href="#e"/>
<use x="104.06573" y="173.673" xlink:href="#b"/>
</g>
<path transform="matrix(1 0 0 -1 109.92 173.47)" d="m0.0017812 0.0013438h3.1367" fill="none" stroke="#000" stroke-miterlimit="10" stroke-width=".398"/>
<g>
<use x="113.062" y="173.673" xlink:href="#o"/>
<use x="118.292365" y="173.673" xlink:href="#c"/>
<use x="123.52273" y="173.673" xlink:href="#ae"/>
<use x="128.753095" y="173.673" xlink:href="#c"/>
<use x="133.98346" y="173.673" xlink:href="#ad"/>
<use x="139.213825" y="173.673" xlink:href="#ac"/>
<use x="144.44419" y="173.673" xlink:href="#c"/>
<use x="149.674555" y="173.673" xlink:href="#k"/>
<use x="154.90492" y="173.673" xlink:href="#n"/>
<use x="160.135285" y="173.673" xlink:href="#a"/>
<use x="165.36565" y="173.673" xlink:href="#l"/>
<use x="170.596015" y="173.673" xlink:href="#c"/>
<use x="175.82638" y="173.673" xlink:href="#b"/>
<use x="181.056745" y="173.673" xlink:href="#j"/>
<use x="20.87" y="80.124" xlink:href="#v"/>
<use x="26.405221" y="80.124" xlink:href="#d"/>
<use x="30.307571" y="80.124" xlink:href="#ah"/>
<use x="35.288871" y="80.124" xlink:href="#ag"/>
<use x="39.71625" y="80.124" xlink:href="#g"/>
<use x="44.14363" y="80.124" xlink:href="#r"/>
<use x="48.072879" y="80.124" xlink:href="#r"/>
</g>
</svg>
